<?xml version="1.0" encoding="us-ascii" standalone="no"?><svg xmlns="http://www.w3.org/2000/svg" xmlns:xlink="http://www.w3.org/1999/xlink" contentStyleType="text/css" height="454.4px" preserveAspectRatio="none" style="width:670px;height:454px;background:#FFFFFF;" version="1.1" viewBox="0 0 670 454" width="670px" zoomAndPan="magnify"><defs/><g><rect fill="#FFFFFF" height="371.807" style="stroke:#181818;stroke-width:0.4000000000000001;" width="4" x="34" y="39.2969"/><rect fill="#FFFFFF" height="38.2016" style="stroke:#181818;stroke-width:0.4000000000000001;" width="4" x="159.6" y="73.5102"/><rect fill="#FFFFFF" height="74.582" style="stroke:#181818;stroke-width:0.4000000000000001;" width="4" x="159.6" y="141.9445"/><rect fill="#FFFFFF" height="143.0281" style="stroke:#181818;stroke-width:0.4000000000000001;" width="4" x="159.6" y="246.7594"/><rect fill="#FFFFFF" height="24.5164" style="stroke:#181818;stroke-width:0.4000000000000001;" width="4" x="285.2" y="154.4609"/><rect fill="#FFFFFF" height="12" style="stroke:#181818;stroke-width:0.4000000000000001;" width="4" x="433.8" y="166.9773"/><rect fill="#FFFFFF" height="12.5164" style="stroke:#181818;stroke-width:0.4000000000000001;" width="4" x="485.8" y="191.4938"/><rect fill="#FFFFFF" height="12" style="stroke:#181818;stroke-width:0.4000000000000001;" width="4" x="524.4" y="259.2758"/><rect fill="#FFFFFF" height="93.4789" style="stroke:#181818;stroke-width:0.4000000000000001;" width="4" x="566.4" y="283.7922"/><rect fill="#FFFFFF" height="30.2328" style="stroke:#181818;stroke-width:0.4000000000000001;" width="4" x="630.6" y="334.5219"/><rect fill="none" height="32.6133" style="stroke:#000000;stroke-width:0.6000000000000001;" width="124.6" x="543" y="289.7922"/><line style="stroke:#181818;stroke-width:0.20000000000000004;stroke-dasharray:5.0,5.0;" x1="36" x2="36" y1="35.2969" y2="414.7039"/><line style="stroke:#181818;stroke-width:0.20000000000000004;stroke-dasharray:5.0,5.0;" x1="161.6" x2="161.6" y1="55.7453" y2="414.7039"/><line style="stroke:#181818;stroke-width:0.20000000000000004;stroke-dasharray:5.0,5.0;" x1="287" x2="287" y1="35.2969" y2="414.7039"/><line style="stroke:#181818;stroke-width:0.20000000000000004;stroke-dasharray:5.0,5.0;" x1="368.2" x2="368.2" y1="35.2969" y2="414.7039"/><line style="stroke:#181818;stroke-width:0.20000000000000004;stroke-dasharray:5.0,5.0;" x1="435.8" x2="435.8" y1="35.2969" y2="414.7039"/><line style="stroke:#181818;stroke-width:0.20000000000000004;stroke-dasharray:5.0,5.0;" x1="487.8" x2="487.8" y1="35.2969" y2="414.7039"/><line style="stroke:#181818;stroke-width:0.20000000000000004;stroke-dasharray:5.0,5.0;" x1="526.2" x2="526.2" y1="35.2969" y2="414.7039"/><line style="stroke:#181818;stroke-width:0.20000000000000004;stroke-dasharray:5.0,5.0;" x1="568.2" x2="568.2" y1="35.2969" y2="414.7039"/><line style="stroke:#181818;stroke-width:0.20000000000000004;stroke-dasharray:5.0,5.0;" x1="632.4" x2="632.4" y1="313.957" y2="414.7039"/><rect fill="#E2E2F0" height="20.4969" rx="1" ry="1" style="stroke:#181818;stroke-width:0.20000000000000004;" width="68" x="2" y="14.4"/><text fill="#000000" font-family="sans-serif" font-size="5.6" lengthAdjust="spacing" textLength="38.4" x="16.8" y="23.243">&#171;Presentation&#187;</text><text fill="#000000" font-family="sans-serif" font-size="5.6" lengthAdjust="spacing" textLength="62.4" x="4.8" y="30.6914">AnalyzeCandidateFilesUI</text><rect fill="#E2E2F0" height="20.4969" rx="1" ry="1" style="stroke:#181818;stroke-width:0.20000000000000004;" width="68" x="2" y="414.3039"/><text fill="#000000" font-family="sans-serif" font-size="5.6" lengthAdjust="spacing" textLength="38.4" x="16.8" y="423.1469">&#171;Presentation&#187;</text><text fill="#000000" font-family="sans-serif" font-size="5.6" lengthAdjust="spacing" textLength="62.4" x="4.8" y="430.5953">AnalyzeCandidateFilesUI</text><rect fill="#E2E2F0" height="20.4969" rx="1" ry="1" style="stroke:#181818;stroke-width:0.20000000000000004;" width="88" x="117.6" y="414.3039"/><text fill="#000000" font-family="sans-serif" font-size="5.6" lengthAdjust="spacing" textLength="34" x="144.6" y="423.1469">&#171;Application&#187;</text><text fill="#000000" font-family="sans-serif" font-size="5.6" lengthAdjust="spacing" textLength="82.4" x="120.4" y="430.5953">AnalyzeCandidateFilesController</text><rect fill="#E2E2F0" height="20.4969" rx="1" ry="1" style="stroke:#181818;stroke-width:0.20000000000000004;" width="87.6" x="243.4" y="14.4"/><text fill="#000000" font-family="sans-serif" font-size="5.6" lengthAdjust="spacing" textLength="25.2" x="274.6" y="23.243">&#171;Service&#187;</text><text fill="#000000" font-family="sans-serif" font-size="5.6" lengthAdjust="spacing" textLength="82" x="246.2" y="30.6914">JobOpeningManagementService</text><rect fill="#E2E2F0" height="20.4969" rx="1" ry="1" style="stroke:#181818;stroke-width:0.20000000000000004;" width="87.6" x="243.4" y="414.3039"/><text fill="#000000" font-family="sans-serif" font-size="5.6" lengthAdjust="spacing" textLength="25.2" x="274.6" y="423.1469">&#171;Service&#187;</text><text fill="#000000" font-family="sans-serif" font-size="5.6" lengthAdjust="spacing" textLength="82" x="246.2" y="430.5953">JobOpeningManagementService</text><rect fill="#E2E2F0" height="20.4969" rx="1" ry="1" style="stroke:#181818;stroke-width:0.20000000000000004;" width="66.8" x="335" y="14.4"/><text fill="#000000" font-family="sans-serif" font-size="5.6" lengthAdjust="spacing" textLength="25.2" x="355.8" y="23.243">&#171;Service&#187;</text><text fill="#000000" font-family="sans-serif" font-size="5.6" lengthAdjust="spacing" textLength="61.2" x="337.8" y="30.6914">JobOpeningDTOService</text><rect fill="#E2E2F0" height="20.4969" rx="1" ry="1" style="stroke:#181818;stroke-width:0.20000000000000004;" width="66.8" x="335" y="414.3039"/><text fill="#000000" font-family="sans-serif" font-size="5.6" lengthAdjust="spacing" textLength="25.2" x="355.8" y="423.1469">&#171;Service&#187;</text><text fill="#000000" font-family="sans-serif" font-size="5.6" lengthAdjust="spacing" textLength="61.2" x="337.8" y="430.5953">JobOpeningDTOService</text><text fill="#000000" font-family="sans-serif" font-size="5.6" lengthAdjust="spacing" textLength="33.6" x="417.8" y="26.443">&#171;Repository&#187;</text><text fill="#000000" font-family="sans-serif" font-size="5.6" lengthAdjust="spacing" textLength="57.6" x="405.8" y="33.8914">JobOpeningRepository</text><path d="M428.6,6 C428.6,2 435.8,2 435.8,2 C435.8,2 443,2 443,6 L443,16.4 C443,20.4 435.8,20.4 435.8,20.4 C435.8,20.4 428.6,20.4 428.6,16.4 L428.6,6 " fill="#E2E2F0" style="stroke:#181818;stroke-width:0.6000000000000001;"/><path d="M428.6,6 C428.6,10 435.8,10 435.8,10 C435.8,10 443,10 443,6 " fill="none" style="stroke:#181818;stroke-width:0.6000000000000001;"/><text fill="#000000" font-family="sans-serif" font-size="5.6" lengthAdjust="spacing" textLength="33.6" x="417.8" y="420.3469">&#171;Repository&#187;</text><text fill="#000000" font-family="sans-serif" font-size="5.6" lengthAdjust="spacing" textLength="57.6" x="405.8" y="427.7953">JobOpeningRepository</text><path d="M428.6,433.2008 C428.6,429.2008 435.8,429.2008 435.8,429.2008 C435.8,429.2008 443,429.2008 443,433.2008 L443,443.6008 C443,447.6008 435.8,447.6008 435.8,447.6008 C435.8,447.6008 428.6,447.6008 428.6,443.6008 L428.6,433.2008 " fill="#E2E2F0" style="stroke:#181818;stroke-width:0.6000000000000001;"/><path d="M428.6,433.2008 C428.6,437.2008 435.8,437.2008 435.8,437.2008 C435.8,437.2008 443,437.2008 443,433.2008 " fill="none" style="stroke:#181818;stroke-width:0.6000000000000001;"/><rect fill="#E2E2F0" height="20.4969" rx="1" ry="1" style="stroke:#181818;stroke-width:0.20000000000000004;" width="36" x="469.8" y="14.4"/><text fill="#000000" font-family="sans-serif" font-size="5.6" lengthAdjust="spacing" textLength="25.6" x="475" y="23.243">&#171;Domain&#187;</text><text fill="#000000" font-family="sans-serif" font-size="5.6" lengthAdjust="spacing" textLength="30.4" x="472.6" y="30.6914">JobOpening</text><rect fill="#E2E2F0" height="20.4969" rx="1" ry="1" style="stroke:#181818;stroke-width:0.20000000000000004;" width="36" x="469.8" y="414.3039"/><text fill="#000000" font-family="sans-serif" font-size="5.6" lengthAdjust="spacing" textLength="25.6" x="475" y="423.1469">&#171;Domain&#187;</text><text fill="#000000" font-family="sans-serif" font-size="5.6" lengthAdjust="spacing" textLength="30.4" x="472.6" y="430.5953">JobOpening</text><rect fill="#E2E2F0" height="20.4969" rx="1" ry="1" style="stroke:#181818;stroke-width:0.20000000000000004;" width="33.2" x="509.8" y="14.4"/><text fill="#000000" font-family="sans-serif" font-size="5.6" lengthAdjust="spacing" textLength="25.6" x="513.6" y="23.243">&#171;Domain&#187;</text><text fill="#000000" font-family="sans-serif" font-size="5.6" lengthAdjust="spacing" textLength="27.6" x="512.6" y="30.6914">Application</text><rect fill="#E2E2F0" height="20.4969" rx="1" ry="1" style="stroke:#181818;stroke-width:0.20000000000000004;" width="33.2" x="509.8" y="414.3039"/><text fill="#000000" font-family="sans-serif" font-size="5.6" lengthAdjust="spacing" textLength="25.6" x="513.6" y="423.1469">&#171;Domain&#187;</text><text fill="#000000" font-family="sans-serif" font-size="5.6" lengthAdjust="spacing" textLength="27.6" x="512.6" y="430.5953">Application</text><rect fill="#E2E2F0" height="20.4969" rx="1" ry="1" style="stroke:#181818;stroke-width:0.20000000000000004;" width="42.8" x="547" y="14.4"/><text fill="#000000" font-family="sans-serif" font-size="5.6" lengthAdjust="spacing" textLength="25.2" x="555.8" y="23.243">&#171;Service&#187;</text><text fill="#000000" font-family="sans-serif" font-size="5.6" lengthAdjust="spacing" textLength="37.2" x="549.8" y="30.6914">ThreadService</text><rect fill="#E2E2F0" height="20.4969" rx="1" ry="1" style="stroke:#181818;stroke-width:0.20000000000000004;" width="42.8" x="547" y="414.3039"/><text fill="#000000" font-family="sans-serif" font-size="5.6" lengthAdjust="spacing" textLength="25.2" x="555.8" y="423.1469">&#171;Service&#187;</text><text fill="#000000" font-family="sans-serif" font-size="5.6" lengthAdjust="spacing" textLength="37.2" x="549.8" y="430.5953">ThreadService</text><rect fill="#E2E2F0" height="20.4969" rx="1" ry="1" style="stroke:#181818;stroke-width:0.20000000000000004;" width="62" x="601.6" y="414.3039"/><text fill="#000000" font-family="sans-serif" font-size="5.6" lengthAdjust="spacing" textLength="24.8" x="620.2" y="423.1469">&#171;Thread&#187;</text><text fill="#000000" font-family="sans-serif" font-size="5.6" lengthAdjust="spacing" textLength="56.4" x="604.4" y="430.5953">FileWordCountThread</text><rect fill="#FFFFFF" height="371.807" style="stroke:#181818;stroke-width:0.4000000000000001;" width="4" x="34" y="39.2969"/><rect fill="#FFFFFF" height="38.2016" style="stroke:#181818;stroke-width:0.4000000000000001;" width="4" x="159.6" y="73.5102"/><rect fill="#FFFFFF" height="74.582" style="stroke:#181818;stroke-width:0.4000000000000001;" width="4" x="159.6" y="141.9445"/><rect fill="#FFFFFF" height="143.0281" style="stroke:#181818;stroke-width:0.4000000000000001;" width="4" x="159.6" y="246.7594"/><rect fill="#FFFFFF" height="24.5164" style="stroke:#181818;stroke-width:0.4000000000000001;" width="4" x="285.2" y="154.4609"/><rect fill="#FFFFFF" height="12" style="stroke:#181818;stroke-width:0.4000000000000001;" width="4" x="433.8" y="166.9773"/><rect fill="#FFFFFF" height="12.5164" style="stroke:#181818;stroke-width:0.4000000000000001;" width="4" x="485.8" y="191.4938"/><rect fill="#FFFFFF" height="12" style="stroke:#181818;stroke-width:0.4000000000000001;" width="4" x="524.4" y="259.2758"/><rect fill="#FFFFFF" height="93.4789" style="stroke:#181818;stroke-width:0.4000000000000001;" width="4" x="566.4" y="283.7922"/><rect fill="#FFFFFF" height="30.2328" style="stroke:#181818;stroke-width:0.4000000000000001;" width="4" x="630.6" y="334.5219"/><polygon fill="#181818" points="112.8,47.0133,116.8,48.6133,112.8,50.2133,114.4,48.6133" style="stroke:#181818;stroke-width:0.4000000000000001;"/><line style="stroke:#181818;stroke-width:0.4000000000000001;" x1="38" x2="115.2" y1="48.6133" y2="48.6133"/><text fill="#000000" font-family="sans-serif" font-size="5.2" font-weight="bold" lengthAdjust="spacing" textLength="2.8" x="40.8" y="46.5082">1</text><text fill="#000000" font-family="sans-serif" font-size="5.2" lengthAdjust="spacing" textLength="14.4" x="45.2" y="46.5082">create</text><rect fill="#E2E2F0" height="20.4969" rx="1" ry="1" style="stroke:#181818;stroke-width:0.20000000000000004;" width="88" x="117.6" y="39.2969"/><text fill="#000000" font-family="sans-serif" font-size="5.6" lengthAdjust="spacing" textLength="34" x="144.6" y="48.1398">&#171;Application&#187;</text><text fill="#000000" font-family="sans-serif" font-size="5.6" lengthAdjust="spacing" textLength="82.4" x="120.4" y="55.5883">AnalyzeCandidateFilesController</text><polygon fill="#181818" points="154.8,71.9102,158.8,73.5102,154.8,75.1102,156.4,73.5102" style="stroke:#181818;stroke-width:0.4000000000000001;"/><line style="stroke:#181818;stroke-width:0.4000000000000001;" x1="38" x2="157.2" y1="73.5102" y2="73.5102"/><text fill="#000000" font-family="sans-serif" font-size="5.2" font-weight="bold" lengthAdjust="spacing" textLength="2.8" x="40.8" y="71.4051">2</text><text fill="#000000" font-family="sans-serif" font-size="5.2" lengthAdjust="spacing" textLength="51.2" x="45.2" y="71.4051">showAllJobOpenings()</text><rect fill="none" height="23.6852" style="stroke:#000000;stroke-width:0.6000000000000001;" width="119.6" x="116.4" y="76.7102"/><path d="M116.4,76.7102 L141.2,76.7102 L141.2,80.3102 L137.2,84.3102 L116.4,84.3102 L116.4,76.7102 " fill="#EEEEEE" style="stroke:#000000;stroke-width:0.8000000000000002;"/><text fill="#000000" font-family="sans-serif" font-size="5.2" font-weight="bold" lengthAdjust="spacing" textLength="6.8" x="121.6" y="83.1215">ref</text><text fill="#000000" font-family="sans-serif" font-size="4.8" lengthAdjust="spacing" textLength="81.2" x="135" y="91.0898">sequence-diagram-get-job-openings</text><text fill="#000000" font-family="sans-serif" font-size="4.8" lengthAdjust="spacing" textLength="115.2" x="119.2" y="97.4742">(in docs/team-decisions/shared-sequence-diagram)</text><polygon fill="#181818" points="42.4,110.1117,38.4,111.7117,42.4,113.3117,40.8,111.7117" style="stroke:#181818;stroke-width:0.4000000000000001;"/><line style="stroke:#181818;stroke-width:0.4000000000000001;stroke-dasharray:2.0,2.0;" x1="40" x2="161.2" y1="111.7117" y2="111.7117"/><text fill="#000000" font-family="sans-serif" font-size="5.2" font-weight="bold" lengthAdjust="spacing" textLength="2.8" x="44.8" y="109.6066">3</text><text fill="#000000" font-family="sans-serif" font-size="5.2" lengthAdjust="spacing" textLength="44.8" x="49.2" y="109.6066">jobOpeningDTOList</text><line style="stroke:#181818;stroke-width:0.4000000000000001;" x1="38" x2="54.8" y1="124.2281" y2="124.2281"/><line style="stroke:#181818;stroke-width:0.4000000000000001;" x1="54.8" x2="54.8" y1="124.2281" y2="129.4281"/><line style="stroke:#181818;stroke-width:0.4000000000000001;" x1="38.4" x2="54.8" y1="129.4281" y2="129.4281"/><polygon fill="#181818" points="42.4,127.8281,38.4,129.4281,42.4,131.0281,40.8,129.4281" style="stroke:#181818;stroke-width:0.4000000000000001;"/><text fill="#000000" font-family="sans-serif" font-size="5.2" font-weight="bold" lengthAdjust="spacing" textLength="2.8" x="40.8" y="122.123">4</text><text fill="#000000" font-family="sans-serif" font-size="5.2" lengthAdjust="spacing" textLength="21.6" x="45.2" y="122.123">doShow()</text><polygon fill="#181818" points="154.8,140.3445,158.8,141.9445,154.8,143.5445,156.4,141.9445" style="stroke:#181818;stroke-width:0.4000000000000001;"/><line style="stroke:#181818;stroke-width:0.4000000000000001;" x1="38" x2="157.2" y1="141.9445" y2="141.9445"/><text fill="#000000" font-family="sans-serif" font-size="5.2" font-weight="bold" lengthAdjust="spacing" textLength="2.8" x="40.8" y="139.8395">5</text><text fill="#000000" font-family="sans-serif" font-size="5.2" lengthAdjust="spacing" textLength="109.6" x="45.2" y="139.8395">getJobOpeningWithJobReference(jobReference)</text><polygon fill="#181818" points="280.4,152.8609,284.4,154.4609,280.4,156.0609,282,154.4609" style="stroke:#181818;stroke-width:0.4000000000000001;"/><line style="stroke:#181818;stroke-width:0.4000000000000001;" x1="163.6" x2="282.8" y1="154.4609" y2="154.4609"/><text fill="#000000" font-family="sans-serif" font-size="5.2" font-weight="bold" lengthAdjust="spacing" textLength="2.8" x="166.4" y="152.3559">6</text><text fill="#000000" font-family="sans-serif" font-size="5.2" lengthAdjust="spacing" textLength="109.6" x="170.8" y="152.3559">getJobOpeningWithJobReference(jobReference)</text><polygon fill="#181818" points="429,165.3773,433,166.9773,429,168.5773,430.6,166.9773" style="stroke:#181818;stroke-width:0.4000000000000001;"/><line style="stroke:#181818;stroke-width:0.4000000000000001;" x1="289.2" x2="431.4" y1="166.9773" y2="166.9773"/><text fill="#000000" font-family="sans-serif" font-size="5.2" font-weight="bold" lengthAdjust="spacing" textLength="2.8" x="292" y="164.8723">7</text><text fill="#000000" font-family="sans-serif" font-size="5.2" lengthAdjust="spacing" textLength="109.6" x="296.4" y="164.8723">getJobOpeningWithJobReference(jobReference)</text><polygon fill="#181818" points="481,189.8938,485,191.4938,481,193.0938,482.6,191.4938" style="stroke:#181818;stroke-width:0.4000000000000001;"/><line style="stroke:#181818;stroke-width:0.4000000000000001;" x1="163.6" x2="483.4" y1="191.4938" y2="191.4938"/><text fill="#000000" font-family="sans-serif" font-size="5.2" font-weight="bold" lengthAdjust="spacing" textLength="2.8" x="166.4" y="189.3887">8</text><text fill="#000000" font-family="sans-serif" font-size="5.2" lengthAdjust="spacing" textLength="38.8" x="170.8" y="189.3887">getApplications()</text><polygon fill="#181818" points="168,202.4102,164,204.0102,168,205.6102,166.4,204.0102" style="stroke:#181818;stroke-width:0.4000000000000001;"/><line style="stroke:#181818;stroke-width:0.4000000000000001;stroke-dasharray:2.0,2.0;" x1="165.6" x2="487.4" y1="204.0102" y2="204.0102"/><text fill="#000000" font-family="sans-serif" font-size="5.2" font-weight="bold" lengthAdjust="spacing" textLength="2.8" x="170.4" y="201.9051">9</text><text fill="#000000" font-family="sans-serif" font-size="5.2" lengthAdjust="spacing" textLength="27.6" x="174.8" y="201.9051">applications</text><polygon fill="#181818" points="42.4,214.9266,38.4,216.5266,42.4,218.1266,40.8,216.5266" style="stroke:#181818;stroke-width:0.4000000000000001;"/><line style="stroke:#181818;stroke-width:0.4000000000000001;stroke-dasharray:2.0,2.0;" x1="40" x2="161.2" y1="216.5266" y2="216.5266"/><text fill="#000000" font-family="sans-serif" font-size="5.2" font-weight="bold" lengthAdjust="spacing" textLength="5.6" x="44.8" y="214.4215">10</text><text fill="#000000" font-family="sans-serif" font-size="5.2" lengthAdjust="spacing" textLength="27.6" x="52" y="214.4215">applications</text><line style="stroke:#181818;stroke-width:0.4000000000000001;" x1="38" x2="54.8" y1="229.043" y2="229.043"/><line style="stroke:#181818;stroke-width:0.4000000000000001;" x1="54.8" x2="54.8" y1="229.043" y2="234.243"/><line style="stroke:#181818;stroke-width:0.4000000000000001;" x1="38.4" x2="54.8" y1="234.243" y2="234.243"/><polygon fill="#181818" points="42.4,232.643,38.4,234.243,42.4,235.843,40.8,234.243" style="stroke:#181818;stroke-width:0.4000000000000001;"/><text fill="#000000" font-family="sans-serif" font-size="5.2" font-weight="bold" lengthAdjust="spacing" textLength="5.6" x="40.8" y="226.9379">11</text><text fill="#000000" font-family="sans-serif" font-size="5.2" lengthAdjust="spacing" textLength="21.6" x="48" y="226.9379">doShow()</text><polygon fill="#181818" points="154.8,245.1594,158.8,246.7594,154.8,248.3594,156.4,246.7594" style="stroke:#181818;stroke-width:0.4000000000000001;"/><line style="stroke:#181818;stroke-width:0.4000000000000001;" x1="38" x2="157.2" y1="246.7594" y2="246.7594"/><text fill="#000000" font-family="sans-serif" font-size="5.2" font-weight="bold" lengthAdjust="spacing" textLength="5.6" x="40.8" y="244.6543">12</text><text fill="#000000" font-family="sans-serif" font-size="5.2" lengthAdjust="spacing" textLength="94.8" x="48" y="244.6543">analyzeFilesFromApplication(application)</text><polygon fill="#181818" points="519.6,257.6758,523.6,259.2758,519.6,260.8758,521.2,259.2758" style="stroke:#181818;stroke-width:0.4000000000000001;"/><line style="stroke:#181818;stroke-width:0.4000000000000001;" x1="163.6" x2="522" y1="259.2758" y2="259.2758"/><text fill="#000000" font-family="sans-serif" font-size="5.2" font-weight="bold" lengthAdjust="spacing" textLength="5.6" x="166.4" y="257.1707">13</text><text fill="#000000" font-family="sans-serif" font-size="5.2" lengthAdjust="spacing" textLength="21.6" x="173.6" y="257.1707">getFiles()</text><polygon fill="#181818" points="561.6,282.1922,565.6,283.7922,561.6,285.3922,563.2,283.7922" style="stroke:#181818;stroke-width:0.4000000000000001;"/><line style="stroke:#181818;stroke-width:0.4000000000000001;" x1="163.6" x2="564" y1="283.7922" y2="283.7922"/><text fill="#000000" font-family="sans-serif" font-size="5.2" font-weight="bold" lengthAdjust="spacing" textLength="5.6" x="166.4" y="281.6871">14</text><text fill="#000000" font-family="sans-serif" font-size="5.2" lengthAdjust="spacing" textLength="75.6" x="173.6" y="281.6871">getTop20Words(applicationFiles)</text><path d="M543,289.7922 L572.2,289.7922 L572.2,293.5086 L568.2,297.5086 L543,297.5086 L543,289.7922 " fill="#EEEEEE" style="stroke:#000000;stroke-width:0.6000000000000001;"/><rect fill="none" height="32.6133" style="stroke:#000000;stroke-width:0.6000000000000001;" width="124.6" x="543" y="289.7922"/><text fill="#000000" font-family="sans-serif" font-size="5.2" font-weight="bold" lengthAdjust="spacing" textLength="11.2" x="549" y="295.8035">loop</text><text fill="#000000" font-family="sans-serif" font-size="4.4" font-weight="bold" lengthAdjust="spacing" textLength="37.2" x="578.2" y="295.3402">[number of files]</text><polygon fill="#181818" points="596.8,305.225,600.8,306.825,596.8,308.425,598.4,306.825" style="stroke:#181818;stroke-width:0.4000000000000001;"/><line style="stroke:#181818;stroke-width:0.4000000000000001;" x1="570.4" x2="599.2" y1="306.825" y2="306.825"/><text fill="#000000" font-family="sans-serif" font-size="5.2" font-weight="bold" lengthAdjust="spacing" textLength="5.6" x="573.2" y="304.7199">15</text><text fill="#000000" font-family="sans-serif" font-size="5.2" lengthAdjust="spacing" textLength="14.4" x="580.4" y="304.7199">create</text><rect fill="#E2E2F0" height="20.4969" rx="1" ry="1" style="stroke:#181818;stroke-width:0.20000000000000004;" width="62" x="601.6" y="297.5086"/><text fill="#000000" font-family="sans-serif" font-size="5.6" lengthAdjust="spacing" textLength="24.8" x="620.2" y="306.3516">&#171;Thread&#187;</text><text fill="#000000" font-family="sans-serif" font-size="5.6" lengthAdjust="spacing" textLength="56.4" x="604.4" y="313.8">FileWordCountThread</text><polygon fill="#181818" points="625.8,332.9219,629.8,334.5219,625.8,336.1219,627.4,334.5219" style="stroke:#181818;stroke-width:0.4000000000000001;"/><line style="stroke:#181818;stroke-width:0.4000000000000001;" x1="570.4" x2="628.2" y1="334.5219" y2="334.5219"/><text fill="#000000" font-family="sans-serif" font-size="5.2" font-weight="bold" lengthAdjust="spacing" textLength="5.6" x="573.2" y="332.4168">16</text><text fill="#000000" font-family="sans-serif" font-size="5.2" lengthAdjust="spacing" textLength="13.6" x="580.4" y="332.4168">start()</text><line style="stroke:#181818;stroke-width:0.4000000000000001;" x1="634.6" x2="651.4" y1="347.0383" y2="347.0383"/><line style="stroke:#181818;stroke-width:0.4000000000000001;" x1="651.4" x2="651.4" y1="347.0383" y2="352.2383"/><line style="stroke:#181818;stroke-width:0.4000000000000001;" x1="635" x2="651.4" y1="352.2383" y2="352.2383"/><polygon fill="#181818" points="639,350.6383,635,352.2383,639,353.8383,637.4,352.2383" style="stroke:#181818;stroke-width:0.4000000000000001;"/><text fill="#000000" font-family="sans-serif" font-size="5.2" font-weight="bold" lengthAdjust="spacing" textLength="5.6" x="637.4" y="344.9332">17</text><text fill="#000000" font-family="sans-serif" font-size="5.2" lengthAdjust="spacing" textLength="10.4" x="644.6" y="344.9332">run()</text><polygon fill="#181818" points="574.8,363.1547,570.8,364.7547,574.8,366.3547,573.2,364.7547" style="stroke:#181818;stroke-width:0.4000000000000001;"/><line style="stroke:#181818;stroke-width:0.4000000000000001;stroke-dasharray:2.0,2.0;" x1="572.4" x2="632.2" y1="364.7547" y2="364.7547"/><text fill="#000000" font-family="sans-serif" font-size="5.2" font-weight="bold" lengthAdjust="spacing" textLength="5.6" x="577.2" y="362.6496">18</text><text fill="#000000" font-family="sans-serif" font-size="5.2" lengthAdjust="spacing" textLength="12.8" x="584.4" y="362.6496">top20</text><polygon fill="#181818" points="168,375.6711,164,377.2711,168,378.8711,166.4,377.2711" style="stroke:#181818;stroke-width:0.4000000000000001;"/><line style="stroke:#181818;stroke-width:0.4000000000000001;stroke-dasharray:2.0,2.0;" x1="165.6" x2="568" y1="377.2711" y2="377.2711"/><text fill="#000000" font-family="sans-serif" font-size="5.2" font-weight="bold" lengthAdjust="spacing" textLength="5.6" x="170.4" y="375.166">19</text><text fill="#000000" font-family="sans-serif" font-size="5.2" lengthAdjust="spacing" textLength="12.8" x="177.6" y="375.166">top20</text><polygon fill="#181818" points="42.4,388.1875,38.4,389.7875,42.4,391.3875,40.8,389.7875" style="stroke:#181818;stroke-width:0.4000000000000001;"/><line style="stroke:#181818;stroke-width:0.4000000000000001;stroke-dasharray:2.0,2.0;" x1="40" x2="161.2" y1="389.7875" y2="389.7875"/><text fill="#000000" font-family="sans-serif" font-size="5.2" font-weight="bold" lengthAdjust="spacing" textLength="5.6" x="44.8" y="387.6824">20</text><text fill="#000000" font-family="sans-serif" font-size="5.2" lengthAdjust="spacing" textLength="12.8" x="52" y="387.6824">top20</text><line style="stroke:#181818;stroke-width:0.4000000000000001;" x1="38" x2="54.8" y1="402.3039" y2="402.3039"/><line style="stroke:#181818;stroke-width:0.4000000000000001;" x1="54.8" x2="54.8" y1="402.3039" y2="407.5039"/><line style="stroke:#181818;stroke-width:0.4000000000000001;" x1="38.4" x2="54.8" y1="407.5039" y2="407.5039"/><polygon fill="#181818" points="42.4,405.9039,38.4,407.5039,42.4,409.1039,40.8,407.5039" style="stroke:#181818;stroke-width:0.4000000000000001;"/><text fill="#000000" font-family="sans-serif" font-size="5.2" font-weight="bold" lengthAdjust="spacing" textLength="5.6" x="40.8" y="400.1988">21</text><text fill="#000000" font-family="sans-serif" font-size="5.2" lengthAdjust="spacing" textLength="21.6" x="48" y="400.1988">doShow()</text><!--SRC=[hLN1Zjem4BtdAwozbAwKKlM8LaWH58dLLY08uh8NamnWb7XIsw7QVdrj9n0dcBJRrhVOyzwy6JzFFXoLAkHeE2moobMPPvyIp8SIlfV04mXJHW-2va50IuMyp7SWWYKLYYMiqF7auUbfAK02LrGnvEFnAuyupTv-meJobALKmOnb83Vp1q8bsSoxwAWeCfRqWoV8bS0i0s599l7gfKkp1d5c2HYAPzmj2k2C7xvHJW-GQt7riOK_BzP_X9x6YpRCR0HJgkYEIZ2m5HGecKBnraOs-pLozNMvwEQSOauPRmFhyFkXJhTiRBHSzjGI7mNGr2qYlYczYZ7HfjLR5Ea4IwwgROkPRITn40H4hoXHxAnlnToZtJ1hCoVXs5xAuoCPaKG35VYEzQ4yueyeovgAvU1Z4tgbjpTytHQm9tW6SINfc3CyW0fFk0knvYIld0mO9oacSgX0HwIGCAcR9eVoI0MaOPV3KM6pX5gpLZuY9zSFBqog9d0Ar2-uAjd2KrphajqYM_tGofjUR9awwgyLx44OROEJy_7xDZNQnyRZVylUoc3UIkl4B4DkSnXR_qkQJYhxIcu2d2xxGbh7wtlTg5GwhwVbkuuENyNM4FMbKOUcHunFoyKMVeh_O2XQpKyxDcS2SwVaWPFqVMxIKwPgeAMzspapZEwru-RimXtNHesn-FBPZ1_fwhG9x-MBFTxC40jI_QS8xidUu6-Zp8gjYSrmyuwjomAUtcusM3EEb9weWpvhLnFK9y9ID5IYv3wY9lBIC6MwrVjM_3cDyCOi7XQ78LxtERY3VPTrVm40]--></g></svg>