<?xml version="1.0" encoding="UTF-8" standalone="no"?><svg xmlns="http://www.w3.org/2000/svg" xmlns:xlink="http://www.w3.org/1999/xlink" contentStyleType="text/css" height="1825px" preserveAspectRatio="none" style="width:2755px;height:1825px;background:#FFFFFF;" version="1.1" viewBox="0 0 2755 1825" width="2755px" zoomAndPan="magnify"><defs/><g><text fill="#000000" font-family="sans-serif" font-size="14" font-weight="bold" lengthAdjust="spacing" textLength="206" x="1276" y="29.5332">[US1003 - Sequence Diagram]</text><rect fill="#FFFFFF" height="1538.4688" style="stroke:#181818;stroke-width:1.0;" width="10" x="109" y="149.9219"/><rect fill="#FFFFFF" height="30" style="stroke:#181818;stroke-width:1.0;" width="10" x="344.5" y="181.0781"/><rect fill="#FFFFFF" height="687.5" style="stroke:#181818;stroke-width:1.0;" width="10" x="344.5" y="250.2344"/><rect fill="#FFFFFF" height="228.7813" style="stroke:#181818;stroke-width:1.0;" width="10" x="344.5" y="976.8906"/><rect fill="#FFFFFF" height="319.25" style="stroke:#181818;stroke-width:1.0;" width="10" x="344.5" y="1296.9844"/><rect fill="#FFFFFF" height="30" style="stroke:#181818;stroke-width:1.0;" width="10" x="556.5" y="1016.0469"/><rect fill="#FFFFFF" height="30" style="stroke:#181818;stroke-width:1.0;" width="10" x="701.5" y="1129.5156"/><rect fill="#FFFFFF" height="30" style="stroke:#181818;stroke-width:1.0;" width="10" x="959.5" y="289.3906"/><rect fill="#FFFFFF" height="228.7813" style="stroke:#181818;stroke-width:1.0;" width="10" x="1210" y="358.5469"/><rect fill="#FFFFFF" height="30" style="stroke:#181818;stroke-width:1.0;" width="10" x="1574" y="413.2813"/><rect fill="#FFFFFF" height="30" style="stroke:#181818;stroke-width:1.0;" width="10" x="1732.5" y="542.3281"/><rect fill="#FFFFFF" height="128.4688" style="stroke:#181818;stroke-width:1.0;" width="10" x="1947" y="618.4844"/><rect fill="#FFFFFF" height="30" style="stroke:#181818;stroke-width:1.0;" width="10" x="1947" y="1380.4531"/><rect fill="#FFFFFF" height="128.4688" style="stroke:#181818;stroke-width:1.0;" width="10" x="2240.5" y="778.1094"/><rect fill="#FFFFFF" height="128.4688" style="stroke:#181818;stroke-width:1.0;" width="10" x="2240.5" y="1456.6094"/><rect fill="#FFFFFF" height="30" style="stroke:#181818;stroke-width:1.0;" width="10" x="2493" y="701.9531"/><rect fill="#FFFFFF" height="30" style="stroke:#181818;stroke-width:1.0;" width="10" x="2671.5" y="861.5781"/><rect fill="#FFFFFF" height="30" style="stroke:#181818;stroke-width:1.0;" width="10" x="2671.5" y="1540.0781"/><rect fill="none" height="106.4688" style="stroke:#000000;stroke-width:1.5;" width="737" x="1063" y="473.8594"/><rect fill="none" height="106.4688" style="stroke:#000000;stroke-width:1.5;" width="824" x="1790" y="633.4844"/><rect fill="none" height="106.4688" style="stroke:#000000;stroke-width:1.5;" width="645" x="2104" y="793.1094"/><rect fill="none" height="106.4688" style="stroke:#000000;stroke-width:1.5;" width="543" x="223" y="1061.0469"/><rect fill="none" height="106.4688" style="stroke:#000000;stroke-width:1.5;" width="1891" x="223" y="1311.9844"/><rect fill="none" height="106.4688" style="stroke:#000000;stroke-width:1.5;" width="645" x="2104" y="1471.6094"/><line style="stroke:#181818;stroke-width:0.5;stroke-dasharray:5.0,5.0;" x1="114" x2="114" y1="139.9219" y2="1713.3906"/><line style="stroke:#181818;stroke-width:0.5;stroke-dasharray:5.0,5.0;" x1="349" x2="349" y1="139.9219" y2="1713.3906"/><line style="stroke:#181818;stroke-width:0.5;stroke-dasharray:5.0,5.0;" x1="561" x2="561" y1="139.9219" y2="1713.3906"/><line style="stroke:#181818;stroke-width:0.5;stroke-dasharray:5.0,5.0;" x1="706" x2="706" y1="139.9219" y2="1713.3906"/><line style="stroke:#181818;stroke-width:0.5;stroke-dasharray:5.0,5.0;" x1="964" x2="964" y1="139.9219" y2="1713.3906"/><line style="stroke:#181818;stroke-width:0.5;stroke-dasharray:5.0,5.0;" x1="1215" x2="1215" y1="139.9219" y2="1713.3906"/><line style="stroke:#181818;stroke-width:0.5;stroke-dasharray:5.0,5.0;" x1="1579" x2="1579" y1="139.9219" y2="1713.3906"/><line style="stroke:#181818;stroke-width:0.5;stroke-dasharray:5.0,5.0;" x1="1737" x2="1737" y1="139.9219" y2="1713.3906"/><line style="stroke:#181818;stroke-width:0.5;stroke-dasharray:5.0,5.0;" x1="1952" x2="1952" y1="139.9219" y2="1713.3906"/><line style="stroke:#181818;stroke-width:0.5;stroke-dasharray:5.0,5.0;" x1="2245" x2="2245" y1="139.9219" y2="1713.3906"/><line style="stroke:#181818;stroke-width:0.5;stroke-dasharray:5.0,5.0;" x1="2498" x2="2498" y1="139.9219" y2="1713.3906"/><line style="stroke:#181818;stroke-width:0.5;stroke-dasharray:5.0,5.0;" x1="2676" x2="2676" y1="139.9219" y2="1713.3906"/><rect fill="#E2E2F0" height="64.3125" rx="2.5" ry="2.5" style="stroke:#181818;stroke-width:0.5;" width="218" x="5" y="74.6094"/><text fill="#000000" font-family="sans-serif" font-size="20" lengthAdjust="spacing" textLength="130" x="49" y="102.3711">«presentation»</text><text fill="#000000" font-family="sans-serif" font-size="20" lengthAdjust="spacing" textLength="204" x="12" y="127.5273">:RegisterJobOpeningUI</text><rect fill="#E2E2F0" height="64.3125" rx="2.5" ry="2.5" style="stroke:#181818;stroke-width:0.5;" width="218" x="5" y="1712.3906"/><text fill="#000000" font-family="sans-serif" font-size="20" lengthAdjust="spacing" textLength="130" x="49" y="1740.1523">«presentation»</text><text fill="#000000" font-family="sans-serif" font-size="20" lengthAdjust="spacing" textLength="204" x="12" y="1765.3086">:RegisterJobOpeningUI</text><text fill="#000000" font-family="sans-serif" font-size="20" lengthAdjust="spacing" textLength="115" x="289" y="110.3711">«application»</text><text fill="#000000" font-family="sans-serif" font-size="20" lengthAdjust="spacing" textLength="227" x="233" y="135.5273">:ListJobOpeningController</text><ellipse cx="349.5" cy="73.6094" fill="#E2E2F0" rx="12" ry="12" style="stroke:#181818;stroke-width:0.5;"/><polygon fill="#181818" points="345.5,61.6094,351.5,56.6094,349.5,61.6094,351.5,66.6094,345.5,61.6094" style="stroke:#181818;stroke-width:1.0;"/><text fill="#000000" font-family="sans-serif" font-size="20" lengthAdjust="spacing" textLength="115" x="289" y="1733.1523">«application»</text><text fill="#000000" font-family="sans-serif" font-size="20" lengthAdjust="spacing" textLength="227" x="233" y="1758.3086">:ListJobOpeningController</text><ellipse cx="349.5" cy="1778.7031" fill="#E2E2F0" rx="12" ry="12" style="stroke:#181818;stroke-width:0.5;"/><polygon fill="#181818" points="345.5,1766.7031,351.5,1761.7031,349.5,1766.7031,351.5,1771.7031,345.5,1766.7031" style="stroke:#181818;stroke-width:1.0;"/><text fill="#000000" font-family="sans-serif" font-size="20" lengthAdjust="spacing" textLength="110" x="503.5" y="110.3711">«repository»</text><text fill="#000000" font-family="sans-serif" font-size="20" lengthAdjust="spacing" textLength="165" x="476" y="135.5273">:CriteriaRepository</text><path d="M543.5,53.6094 C543.5,43.6094 561.5,43.6094 561.5,43.6094 C561.5,43.6094 579.5,43.6094 579.5,53.6094 L579.5,79.6094 C579.5,89.6094 561.5,89.6094 561.5,89.6094 C561.5,89.6094 543.5,89.6094 543.5,79.6094 L543.5,53.6094 " fill="#E2E2F0" style="stroke:#181818;stroke-width:1.5;"/><path d="M543.5,53.6094 C543.5,63.6094 561.5,63.6094 561.5,63.6094 C561.5,63.6094 579.5,63.6094 579.5,53.6094 " fill="none" style="stroke:#181818;stroke-width:1.5;"/><text fill="#000000" font-family="sans-serif" font-size="20" lengthAdjust="spacing" textLength="110" x="503.5" y="1733.1523">«repository»</text><text fill="#000000" font-family="sans-serif" font-size="20" lengthAdjust="spacing" textLength="165" x="476" y="1758.3086">:CriteriaRepository</text><path d="M543.5,1772.7031 C543.5,1762.7031 561.5,1762.7031 561.5,1762.7031 C561.5,1762.7031 579.5,1762.7031 579.5,1772.7031 L579.5,1798.7031 C579.5,1808.7031 561.5,1808.7031 561.5,1808.7031 C561.5,1808.7031 543.5,1808.7031 543.5,1798.7031 L543.5,1772.7031 " fill="#E2E2F0" style="stroke:#181818;stroke-width:1.5;"/><path d="M543.5,1772.7031 C543.5,1782.7031 561.5,1782.7031 561.5,1782.7031 C561.5,1782.7031 579.5,1782.7031 579.5,1772.7031 " fill="none" style="stroke:#181818;stroke-width:1.5;"/><rect fill="#E2E2F0" height="64.3125" rx="2.5" ry="2.5" style="stroke:#181818;stroke-width:0.5;" width="99" x="657" y="74.6094"/><text fill="#000000" font-family="sans-serif" font-size="20" lengthAdjust="spacing" textLength="85" x="664" y="102.3711">«domain»</text><text fill="#000000" font-family="sans-serif" font-size="20" lengthAdjust="spacing" textLength="70" x="671.5" y="127.5273">:Criteria</text><rect fill="#E2E2F0" height="64.3125" rx="2.5" ry="2.5" style="stroke:#181818;stroke-width:0.5;" width="99" x="657" y="1712.3906"/><text fill="#000000" font-family="sans-serif" font-size="20" lengthAdjust="spacing" textLength="85" x="664" y="1740.1523">«domain»</text><text fill="#000000" font-family="sans-serif" font-size="20" lengthAdjust="spacing" textLength="70" x="671.5" y="1765.3086">:Criteria</text><rect fill="#E2E2F0" height="64.3125" rx="2.5" ry="2.5" style="stroke:#181818;stroke-width:0.5;" width="197" x="866" y="74.6094"/><text fill="#000000" font-family="sans-serif" font-size="20" lengthAdjust="spacing" textLength="84" x="922.5" y="102.3711">«service»</text><text fill="#000000" font-family="sans-serif" font-size="20" lengthAdjust="spacing" textLength="183" x="873" y="127.5273">:AuthorizationService</text><rect fill="#E2E2F0" height="64.3125" rx="2.5" ry="2.5" style="stroke:#181818;stroke-width:0.5;" width="197" x="866" y="1712.3906"/><text fill="#000000" font-family="sans-serif" font-size="20" lengthAdjust="spacing" textLength="84" x="922.5" y="1740.1523">«service»</text><text fill="#000000" font-family="sans-serif" font-size="20" lengthAdjust="spacing" textLength="183" x="873" y="1765.3086">:AuthorizationService</text><rect fill="#E2E2F0" height="64.3125" rx="2.5" ry="2.5" style="stroke:#181818;stroke-width:0.5;" width="284" x="1073" y="74.6094"/><text fill="#000000" font-family="sans-serif" font-size="20" lengthAdjust="spacing" textLength="84" x="1173" y="102.3711">«service»</text><text fill="#000000" font-family="sans-serif" font-size="20" lengthAdjust="spacing" textLength="270" x="1080" y="127.5273">:CustomerManagementService</text><rect fill="#E2E2F0" height="64.3125" rx="2.5" ry="2.5" style="stroke:#181818;stroke-width:0.5;" width="284" x="1073" y="1712.3906"/><text fill="#000000" font-family="sans-serif" font-size="20" lengthAdjust="spacing" textLength="84" x="1173" y="1740.1523">«service»</text><text fill="#000000" font-family="sans-serif" font-size="20" lengthAdjust="spacing" textLength="270" x="1080" y="1765.3086">:CustomerManagementService</text><text fill="#000000" font-family="sans-serif" font-size="20" lengthAdjust="spacing" textLength="110" x="1521" y="110.3711">«repository»</text><text fill="#000000" font-family="sans-serif" font-size="20" lengthAdjust="spacing" textLength="186" x="1483" y="135.5273">:CustomerRepository</text><path d="M1561,53.6094 C1561,43.6094 1579,43.6094 1579,43.6094 C1579,43.6094 1597,43.6094 1597,53.6094 L1597,79.6094 C1597,89.6094 1579,89.6094 1579,89.6094 C1579,89.6094 1561,89.6094 1561,79.6094 L1561,53.6094 " fill="#E2E2F0" style="stroke:#181818;stroke-width:1.5;"/><path d="M1561,53.6094 C1561,63.6094 1579,63.6094 1579,63.6094 C1579,63.6094 1597,63.6094 1597,53.6094 " fill="none" style="stroke:#181818;stroke-width:1.5;"/><text fill="#000000" font-family="sans-serif" font-size="20" lengthAdjust="spacing" textLength="110" x="1521" y="1733.1523">«repository»</text><text fill="#000000" font-family="sans-serif" font-size="20" lengthAdjust="spacing" textLength="186" x="1483" y="1758.3086">:CustomerRepository</text><path d="M1561,1772.7031 C1561,1762.7031 1579,1762.7031 1579,1762.7031 C1579,1762.7031 1597,1762.7031 1597,1772.7031 L1597,1798.7031 C1597,1808.7031 1579,1808.7031 1579,1808.7031 C1579,1808.7031 1561,1808.7031 1561,1798.7031 L1561,1772.7031 " fill="#E2E2F0" style="stroke:#181818;stroke-width:1.5;"/><path d="M1561,1772.7031 C1561,1782.7031 1579,1782.7031 1579,1782.7031 C1579,1782.7031 1597,1782.7031 1597,1772.7031 " fill="none" style="stroke:#181818;stroke-width:1.5;"/><rect fill="#E2E2F0" height="64.3125" rx="2.5" ry="2.5" style="stroke:#181818;stroke-width:0.5;" width="105" x="1685" y="74.6094"/><text fill="#000000" font-family="sans-serif" font-size="20" lengthAdjust="spacing" textLength="85" x="1695" y="102.3711">«domain»</text><text fill="#000000" font-family="sans-serif" font-size="20" lengthAdjust="spacing" textLength="91" x="1692" y="127.5273">:Customer</text><rect fill="#E2E2F0" height="64.3125" rx="2.5" ry="2.5" style="stroke:#181818;stroke-width:0.5;" width="105" x="1685" y="1712.3906"/><text fill="#000000" font-family="sans-serif" font-size="20" lengthAdjust="spacing" textLength="85" x="1695" y="1740.1523">«domain»</text><text fill="#000000" font-family="sans-serif" font-size="20" lengthAdjust="spacing" textLength="91" x="1692" y="1765.3086">:Customer</text><rect fill="#E2E2F0" height="64.3125" rx="2.5" ry="2.5" style="stroke:#181818;stroke-width:0.5;" width="304" x="1800" y="74.6094"/><text fill="#000000" font-family="sans-serif" font-size="20" lengthAdjust="spacing" textLength="84" x="1910" y="102.3711">«service»</text><text fill="#000000" font-family="sans-serif" font-size="20" lengthAdjust="spacing" textLength="290" x="1807" y="127.5273">:JobOpeningManagementService</text><rect fill="#E2E2F0" height="64.3125" rx="2.5" ry="2.5" style="stroke:#181818;stroke-width:0.5;" width="304" x="1800" y="1712.3906"/><text fill="#000000" font-family="sans-serif" font-size="20" lengthAdjust="spacing" textLength="84" x="1910" y="1740.1523">«service»</text><text fill="#000000" font-family="sans-serif" font-size="20" lengthAdjust="spacing" textLength="290" x="1807" y="1765.3086">:JobOpeningManagementService</text><rect fill="#E2E2F0" height="64.3125" rx="2.5" ry="2.5" style="stroke:#181818;stroke-width:0.5;" width="263" x="2114" y="74.6094"/><text fill="#000000" font-family="sans-serif" font-size="20" lengthAdjust="spacing" textLength="84" x="2203.5" y="102.3711">«service»</text><text fill="#000000" font-family="sans-serif" font-size="20" lengthAdjust="spacing" textLength="249" x="2121" y="127.5273">:JobOpeningListDTOService</text><rect fill="#E2E2F0" height="64.3125" rx="2.5" ry="2.5" style="stroke:#181818;stroke-width:0.5;" width="263" x="2114" y="1712.3906"/><text fill="#000000" font-family="sans-serif" font-size="20" lengthAdjust="spacing" textLength="84" x="2203.5" y="1740.1523">«service»</text><text fill="#000000" font-family="sans-serif" font-size="20" lengthAdjust="spacing" textLength="249" x="2121" y="1765.3086">:JobOpeningListDTOService</text><text fill="#000000" font-family="sans-serif" font-size="20" lengthAdjust="spacing" textLength="110" x="2440" y="110.3711">«repository»</text><text fill="#000000" font-family="sans-serif" font-size="20" lengthAdjust="spacing" textLength="206" x="2392" y="135.5273">:JobOpeningRepository</text><path d="M2480,53.6094 C2480,43.6094 2498,43.6094 2498,43.6094 C2498,43.6094 2516,43.6094 2516,53.6094 L2516,79.6094 C2516,89.6094 2498,89.6094 2498,89.6094 C2498,89.6094 2480,89.6094 2480,79.6094 L2480,53.6094 " fill="#E2E2F0" style="stroke:#181818;stroke-width:1.5;"/><path d="M2480,53.6094 C2480,63.6094 2498,63.6094 2498,63.6094 C2498,63.6094 2516,63.6094 2516,53.6094 " fill="none" style="stroke:#181818;stroke-width:1.5;"/><text fill="#000000" font-family="sans-serif" font-size="20" lengthAdjust="spacing" textLength="110" x="2440" y="1733.1523">«repository»</text><text fill="#000000" font-family="sans-serif" font-size="20" lengthAdjust="spacing" textLength="206" x="2392" y="1758.3086">:JobOpeningRepository</text><path d="M2480,1772.7031 C2480,1762.7031 2498,1762.7031 2498,1762.7031 C2498,1762.7031 2516,1762.7031 2516,1772.7031 L2516,1798.7031 C2516,1808.7031 2498,1808.7031 2498,1808.7031 C2498,1808.7031 2480,1808.7031 2480,1798.7031 L2480,1772.7031 " fill="#E2E2F0" style="stroke:#181818;stroke-width:1.5;"/><path d="M2480,1772.7031 C2480,1782.7031 2498,1782.7031 2498,1782.7031 C2498,1782.7031 2516,1782.7031 2516,1772.7031 " fill="none" style="stroke:#181818;stroke-width:1.5;"/><rect fill="#E2E2F0" height="64.3125" rx="2.5" ry="2.5" style="stroke:#181818;stroke-width:0.5;" width="125" x="2614" y="74.6094"/><text fill="#000000" font-family="sans-serif" font-size="20" lengthAdjust="spacing" textLength="85" x="2634" y="102.3711">«domain»</text><text fill="#000000" font-family="sans-serif" font-size="20" lengthAdjust="spacing" textLength="111" x="2621" y="127.5273">:JobOpening</text><rect fill="#E2E2F0" height="64.3125" rx="2.5" ry="2.5" style="stroke:#181818;stroke-width:0.5;" width="125" x="2614" y="1712.3906"/><text fill="#000000" font-family="sans-serif" font-size="20" lengthAdjust="spacing" textLength="85" x="2634" y="1740.1523">«domain»</text><text fill="#000000" font-family="sans-serif" font-size="20" lengthAdjust="spacing" textLength="111" x="2621" y="1765.3086">:JobOpening</text><rect fill="#FFFFFF" height="1538.4688" style="stroke:#181818;stroke-width:1.0;" width="10" x="109" y="149.9219"/><rect fill="#FFFFFF" height="30" style="stroke:#181818;stroke-width:1.0;" width="10" x="344.5" y="181.0781"/><rect fill="#FFFFFF" height="687.5" style="stroke:#181818;stroke-width:1.0;" width="10" x="344.5" y="250.2344"/><rect fill="#FFFFFF" height="228.7813" style="stroke:#181818;stroke-width:1.0;" width="10" x="344.5" y="976.8906"/><rect fill="#FFFFFF" height="319.25" style="stroke:#181818;stroke-width:1.0;" width="10" x="344.5" y="1296.9844"/><rect fill="#FFFFFF" height="30" style="stroke:#181818;stroke-width:1.0;" width="10" x="556.5" y="1016.0469"/><rect fill="#FFFFFF" height="30" style="stroke:#181818;stroke-width:1.0;" width="10" x="701.5" y="1129.5156"/><rect fill="#FFFFFF" height="30" style="stroke:#181818;stroke-width:1.0;" width="10" x="959.5" y="289.3906"/><rect fill="#FFFFFF" height="228.7813" style="stroke:#181818;stroke-width:1.0;" width="10" x="1210" y="358.5469"/><rect fill="#FFFFFF" height="30" style="stroke:#181818;stroke-width:1.0;" width="10" x="1574" y="413.2813"/><rect fill="#FFFFFF" height="30" style="stroke:#181818;stroke-width:1.0;" width="10" x="1732.5" y="542.3281"/><rect fill="#FFFFFF" height="128.4688" style="stroke:#181818;stroke-width:1.0;" width="10" x="1947" y="618.4844"/><rect fill="#FFFFFF" height="30" style="stroke:#181818;stroke-width:1.0;" width="10" x="1947" y="1380.4531"/><rect fill="#FFFFFF" height="128.4688" style="stroke:#181818;stroke-width:1.0;" width="10" x="2240.5" y="778.1094"/><rect fill="#FFFFFF" height="128.4688" style="stroke:#181818;stroke-width:1.0;" width="10" x="2240.5" y="1456.6094"/><rect fill="#FFFFFF" height="30" style="stroke:#181818;stroke-width:1.0;" width="10" x="2493" y="701.9531"/><rect fill="#FFFFFF" height="30" style="stroke:#181818;stroke-width:1.0;" width="10" x="2671.5" y="861.5781"/><rect fill="#FFFFFF" height="30" style="stroke:#181818;stroke-width:1.0;" width="10" x="2671.5" y="1540.0781"/><polygon fill="#181818" points="332.5,177.0781,342.5,181.0781,332.5,185.0781,336.5,181.0781" style="stroke:#181818;stroke-width:1.0;"/><line style="stroke:#181818;stroke-width:1.0;" x1="119" x2="338.5" y1="181.0781" y2="181.0781"/><text fill="#000000" font-family="sans-serif" font-size="20" lengthAdjust="spacing" textLength="70" x="126" y="174.6836">create()</text><polygon fill="#181818" points="332.5,246.2344,342.5,250.2344,332.5,254.2344,336.5,250.2344" style="stroke:#181818;stroke-width:1.0;"/><line style="stroke:#181818;stroke-width:1.0;" x1="119" x2="338.5" y1="250.2344" y2="250.2344"/><text fill="#000000" font-family="sans-serif" font-size="20" lengthAdjust="spacing" textLength="178" x="126" y="243.8398">getJobOpeningList()</text><polygon fill="#181818" points="947.5,285.3906,957.5,289.3906,947.5,293.3906,951.5,289.3906" style="stroke:#181818;stroke-width:1.0;"/><line style="stroke:#181818;stroke-width:1.0;" x1="354.5" x2="953.5" y1="289.3906" y2="289.3906"/><text fill="#000000" font-family="sans-serif" font-size="20" lengthAdjust="spacing" textLength="586" x="361.5" y="282.9961">loggedinUserWithPermissions(BaseRole.CUSTOMER_MANAGER)</text><polygon fill="#181818" points="1198,354.5469,1208,358.5469,1198,362.5469,1202,358.5469" style="stroke:#181818;stroke-width:1.0;"/><line style="stroke:#181818;stroke-width:1.0;" x1="354.5" x2="1204" y1="358.5469" y2="358.5469"/><text fill="#000000" font-family="sans-serif" font-size="20" lengthAdjust="spacing" textLength="381" x="361.5" y="352.1523">getAssignedCustomerCodesList(username)</text><polygon fill="#181818" points="1562,409.2813,1572,413.2813,1562,417.2813,1566,413.2813" style="stroke:#181818;stroke-width:1.0;"/><line style="stroke:#181818;stroke-width:1.0;" x1="1220" x2="1568" y1="413.2813" y2="413.2813"/><text fill="#000000" font-family="sans-serif" font-size="20" lengthAdjust="spacing" textLength="335" x="1227" y="406.8867">getCustomersByUsername(username)</text><path d="M1589,371.5469 L1589,431.5469 L1843,431.5469 L1843,381.5469 L1833,371.5469 L1589,371.5469 " fill="#FEFFDD" style="stroke:#181818;stroke-width:0.5;"/><path d="M1833,371.5469 L1833,381.5469 L1843,381.5469 L1833,371.5469 " fill="#FEFFDD" style="stroke:#181818;stroke-width:0.5;"/><text fill="#000000" font-family="sans-serif" font-size="20" lengthAdjust="spacing" textLength="233" x="1595" y="397.3086">Username is the Customer</text><text fill="#000000" font-family="sans-serif" font-size="20" lengthAdjust="spacing" textLength="144" x="1601" y="422.4648">Manager's email</text><path d="M1063,473.8594 L1149,473.8594 L1149,491.0156 L1139,501.0156 L1063,501.0156 L1063,473.8594 " fill="#EEEEEE" style="stroke:#000000;stroke-width:1.5;"/><rect fill="none" height="106.4688" style="stroke:#000000;stroke-width:1.5;" width="737" x="1063" y="473.8594"/><text fill="#000000" font-family="sans-serif" font-size="20" font-weight="bold" lengthAdjust="spacing" textLength="41" x="1078" y="495.6211">loop</text><text fill="#000000" font-family="sans-serif" font-size="20" font-weight="bold" lengthAdjust="spacing" textLength="131" x="1164" y="496.6211">[for all codes]</text><polygon fill="#181818" points="1720.5,538.3281,1730.5,542.3281,1720.5,546.3281,1724.5,542.3281" style="stroke:#181818;stroke-width:1.0;"/><line style="stroke:#181818;stroke-width:1.0;" x1="1220" x2="1726.5" y1="542.3281" y2="542.3281"/><text fill="#000000" font-family="sans-serif" font-size="20" lengthAdjust="spacing" textLength="142" x="1227" y="535.9336">customerCode()</text><polygon fill="#181818" points="1935,614.4844,1945,618.4844,1935,622.4844,1939,618.4844" style="stroke:#181818;stroke-width:1.0;"/><line style="stroke:#181818;stroke-width:1.0;" x1="354.5" x2="1941" y1="618.4844" y2="618.4844"/><text fill="#000000" font-family="sans-serif" font-size="20" lengthAdjust="spacing" textLength="596" x="361.5" y="612.0898">getJobOpeningsFromCustomerCodes(assignedCustomerCodesList)</text><path d="M1790,633.4844 L1876,633.4844 L1876,650.6406 L1866,660.6406 L1790,660.6406 L1790,633.4844 " fill="#EEEEEE" style="stroke:#000000;stroke-width:1.5;"/><rect fill="none" height="106.4688" style="stroke:#000000;stroke-width:1.5;" width="824" x="1790" y="633.4844"/><text fill="#000000" font-family="sans-serif" font-size="20" font-weight="bold" lengthAdjust="spacing" textLength="41" x="1805" y="655.2461">loop</text><text fill="#000000" font-family="sans-serif" font-size="20" font-weight="bold" lengthAdjust="spacing" textLength="144" x="1891" y="656.2461">[for each code]</text><polygon fill="#181818" points="2481,697.9531,2491,701.9531,2481,705.9531,2485,701.9531" style="stroke:#181818;stroke-width:1.0;"/><line style="stroke:#181818;stroke-width:1.0;" x1="1957" x2="2487" y1="701.9531" y2="701.9531"/><text fill="#000000" font-family="sans-serif" font-size="20" lengthAdjust="spacing" textLength="517" x="1964" y="695.5586">getJobOpeningListMatchingCustomerCode(customerCode)</text><polygon fill="#181818" points="2228.5,774.1094,2238.5,778.1094,2228.5,782.1094,2232.5,778.1094" style="stroke:#181818;stroke-width:1.0;"/><line style="stroke:#181818;stroke-width:1.0;" x1="354.5" x2="2234.5" y1="778.1094" y2="778.1094"/><text fill="#000000" font-family="sans-serif" font-size="20" lengthAdjust="spacing" textLength="273" x="361.5" y="771.7148">convertToDTO(jobOpeningList)</text><path d="M2104,793.1094 L2190,793.1094 L2190,810.2656 L2180,820.2656 L2104,820.2656 L2104,793.1094 " fill="#EEEEEE" style="stroke:#000000;stroke-width:1.5;"/><rect fill="none" height="106.4688" style="stroke:#000000;stroke-width:1.5;" width="645" x="2104" y="793.1094"/><text fill="#000000" font-family="sans-serif" font-size="20" font-weight="bold" lengthAdjust="spacing" textLength="41" x="2119" y="814.8711">loop</text><text fill="#000000" font-family="sans-serif" font-size="20" font-weight="bold" lengthAdjust="spacing" textLength="213" x="2205" y="815.8711">[for each JobOpening]</text><polygon fill="#181818" points="2659.5,857.5781,2669.5,861.5781,2659.5,865.5781,2663.5,861.5781" style="stroke:#181818;stroke-width:1.0;"/><line style="stroke:#181818;stroke-width:1.0;" x1="2250.5" x2="2665.5" y1="861.5781" y2="861.5781"/><text fill="#000000" font-family="sans-serif" font-size="20" lengthAdjust="spacing" textLength="73" x="2257.5" y="855.1836">toDTO()</text><polygon fill="#181818" points="130,933.7344,120,937.7344,130,941.7344,126,937.7344" style="stroke:#181818;stroke-width:1.0;"/><line style="stroke:#181818;stroke-width:1.0;stroke-dasharray:2.0,2.0;" x1="124" x2="348.5" y1="937.7344" y2="937.7344"/><text fill="#000000" font-family="sans-serif" font-size="20" lengthAdjust="spacing" textLength="172" x="136" y="931.3398">jobOpeningListDTO</text><polygon fill="#181818" points="332.5,972.8906,342.5,976.8906,332.5,980.8906,336.5,976.8906" style="stroke:#181818;stroke-width:1.0;"/><line style="stroke:#181818;stroke-width:1.0;" x1="119" x2="338.5" y1="976.8906" y2="976.8906"/><text fill="#000000" font-family="sans-serif" font-size="20" lengthAdjust="spacing" textLength="106" x="126" y="970.4961">getCriteria()</text><polygon fill="#181818" points="544.5,1012.0469,554.5,1016.0469,544.5,1020.0469,548.5,1016.0469" style="stroke:#181818;stroke-width:1.0;"/><line style="stroke:#181818;stroke-width:1.0;" x1="354.5" x2="550.5" y1="1016.0469" y2="1016.0469"/><text fill="#000000" font-family="sans-serif" font-size="20" lengthAdjust="spacing" textLength="177" x="361.5" y="1009.6523">jobOpeningCriteria()</text><path d="M223,1061.0469 L309,1061.0469 L309,1078.2031 L299,1088.2031 L223,1088.2031 L223,1061.0469 " fill="#EEEEEE" style="stroke:#000000;stroke-width:1.5;"/><rect fill="none" height="106.4688" style="stroke:#000000;stroke-width:1.5;" width="543" x="223" y="1061.0469"/><text fill="#000000" font-family="sans-serif" font-size="20" font-weight="bold" lengthAdjust="spacing" textLength="41" x="238" y="1082.8086">loop</text><text fill="#000000" font-family="sans-serif" font-size="20" font-weight="bold" lengthAdjust="spacing" textLength="140" x="324" y="1083.8086">[for all criteria]</text><polygon fill="#181818" points="689.5,1125.5156,699.5,1129.5156,689.5,1133.5156,693.5,1129.5156" style="stroke:#181818;stroke-width:1.0;"/><line style="stroke:#181818;stroke-width:1.0;" x1="354.5" x2="695.5" y1="1129.5156" y2="1129.5156"/><text fill="#000000" font-family="sans-serif" font-size="20" lengthAdjust="spacing" textLength="73" x="361.5" y="1123.1211">toDTO()</text><polygon fill="#181818" points="130,1201.6719,120,1205.6719,130,1209.6719,126,1205.6719" style="stroke:#181818;stroke-width:1.0;"/><line style="stroke:#181818;stroke-width:1.0;stroke-dasharray:2.0,2.0;" x1="124" x2="348.5" y1="1205.6719" y2="1205.6719"/><text fill="#000000" font-family="sans-serif" font-size="20" lengthAdjust="spacing" textLength="133" x="136" y="1199.2773">criteriaListDTO</text><line style="stroke:#181818;stroke-width:1.0;" x1="119" x2="161" y1="1244.8281" y2="1244.8281"/><line style="stroke:#181818;stroke-width:1.0;" x1="161" x2="161" y1="1244.8281" y2="1257.8281"/><line style="stroke:#181818;stroke-width:1.0;" x1="120" x2="161" y1="1257.8281" y2="1257.8281"/><polygon fill="#181818" points="130,1253.8281,120,1257.8281,130,1261.8281,126,1257.8281" style="stroke:#181818;stroke-width:1.0;"/><text fill="#000000" font-family="sans-serif" font-size="20" lengthAdjust="spacing" textLength="85" x="126" y="1238.4336">doShow()</text><polygon fill="#181818" points="332.5,1292.9844,342.5,1296.9844,332.5,1300.9844,336.5,1296.9844" style="stroke:#181818;stroke-width:1.0;"/><line style="stroke:#181818;stroke-width:1.0;" x1="119" x2="338.5" y1="1296.9844" y2="1296.9844"/><text fill="#000000" font-family="sans-serif" font-size="20" lengthAdjust="spacing" textLength="60" x="126" y="1290.5898">criteria</text><path d="M223,1311.9844 L299,1311.9844 L299,1329.1406 L289,1339.1406 L223,1339.1406 L223,1311.9844 " fill="#EEEEEE" style="stroke:#000000;stroke-width:1.5;"/><rect fill="none" height="106.4688" style="stroke:#000000;stroke-width:1.5;" width="1891" x="223" y="1311.9844"/><text fill="#000000" font-family="sans-serif" font-size="20" font-weight="bold" lengthAdjust="spacing" textLength="31" x="238" y="1333.7461">opt</text><text fill="#000000" font-family="sans-serif" font-size="20" font-weight="bold" lengthAdjust="spacing" textLength="208" x="314" y="1334.7461">[criteria was selected]</text><polygon fill="#181818" points="1935,1376.4531,1945,1380.4531,1935,1384.4531,1939,1380.4531" style="stroke:#181818;stroke-width:1.0;"/><line style="stroke:#181818;stroke-width:1.0;" x1="354.5" x2="1941" y1="1380.4531" y2="1380.4531"/><text fill="#000000" font-family="sans-serif" font-size="20" lengthAdjust="spacing" textLength="248" x="361.5" y="1374.0586">filterJobOpeningList(criteria)</text><polygon fill="#181818" points="2228.5,1452.6094,2238.5,1456.6094,2228.5,1460.6094,2232.5,1456.6094" style="stroke:#181818;stroke-width:1.0;"/><line style="stroke:#181818;stroke-width:1.0;" x1="354.5" x2="2234.5" y1="1456.6094" y2="1456.6094"/><text fill="#000000" font-family="sans-serif" font-size="20" lengthAdjust="spacing" textLength="273" x="361.5" y="1450.2148">convertToDTO(jobOpeningList)</text><path d="M2104,1471.6094 L2190,1471.6094 L2190,1488.7656 L2180,1498.7656 L2104,1498.7656 L2104,1471.6094 " fill="#EEEEEE" style="stroke:#000000;stroke-width:1.5;"/><rect fill="none" height="106.4688" style="stroke:#000000;stroke-width:1.5;" width="645" x="2104" y="1471.6094"/><text fill="#000000" font-family="sans-serif" font-size="20" font-weight="bold" lengthAdjust="spacing" textLength="41" x="2119" y="1493.3711">loop</text><text fill="#000000" font-family="sans-serif" font-size="20" font-weight="bold" lengthAdjust="spacing" textLength="213" x="2205" y="1494.3711">[for each JobOpening]</text><polygon fill="#181818" points="2659.5,1536.0781,2669.5,1540.0781,2659.5,1544.0781,2663.5,1540.0781" style="stroke:#181818;stroke-width:1.0;"/><line style="stroke:#181818;stroke-width:1.0;" x1="2250.5" x2="2665.5" y1="1540.0781" y2="1540.0781"/><text fill="#000000" font-family="sans-serif" font-size="20" lengthAdjust="spacing" textLength="73" x="2257.5" y="1533.6836">toDTO()</text><polygon fill="#181818" points="130,1612.2344,120,1616.2344,130,1620.2344,126,1616.2344" style="stroke:#181818;stroke-width:1.0;"/><line style="stroke:#181818;stroke-width:1.0;stroke-dasharray:2.0,2.0;" x1="124" x2="348.5" y1="1616.2344" y2="1616.2344"/><text fill="#000000" font-family="sans-serif" font-size="20" lengthAdjust="spacing" textLength="172" x="136" y="1609.8398">jobOpeningListDTO</text><line style="stroke:#181818;stroke-width:1.0;" x1="119" x2="161" y1="1655.3906" y2="1655.3906"/><line style="stroke:#181818;stroke-width:1.0;" x1="161" x2="161" y1="1655.3906" y2="1668.3906"/><line style="stroke:#181818;stroke-width:1.0;" x1="120" x2="161" y1="1668.3906" y2="1668.3906"/><polygon fill="#181818" points="130,1664.3906,120,1668.3906,130,1672.3906,126,1668.3906" style="stroke:#181818;stroke-width:1.0;"/><text fill="#000000" font-family="sans-serif" font-size="20" lengthAdjust="spacing" textLength="85" x="126" y="1648.9961">doShow()</text><line style="stroke:#FFFFFF;stroke-width:1.0;stroke-dasharray:2.0,2.0;" x1="119" x2="161" y1="1687.3906" y2="1687.3906"/><line style="stroke:#FFFFFF;stroke-width:1.0;stroke-dasharray:2.0,2.0;" x1="161" x2="161" y1="1687.3906" y2="1700.3906"/><line style="stroke:#FFFFFF;stroke-width:1.0;stroke-dasharray:2.0,2.0;" x1="114" x2="161" y1="1700.3906" y2="1700.3906"/><polygon fill="#FFFFFF" points="124,1696.3906,114,1700.3906,124,1704.3906,120,1700.3906" style="stroke:#FFFFFF;stroke-width:1.0;"/><!--SRC=[xLPDJzmm4BtxLrZqqDq35MrlAuIqRA6YOakrsQW7G9L9XiJWjLFRkmX-VHrda_WZXAhdvXRFlFbuVXvRFL9U4KasJ6IFaECSxicMwNF1TK9V07ywGaXJpG1Vfyd7ewFF-10dy7iBF0FyXPB2G6yHCY4qpMX5kCO7nyUL10LS4qq5FpcvuRCL55HfaD_4tLK5dF8YlJZ0HE7q0cKcbnIinf6gOZJhOPS6r4CMZIC3QQ6BzUeIvKIJEwAWHakeXA9Qo6SBNaXgCbAowfORMBGSLf-B3Q7SY-4XGty5SaSpi83vLfT2qXVRGz8OBBWs9Bji3BlOAYqs89U4am8sXa0tG6mTRNxl7JOVBOyrltVsa6CDz5irt8AnEzN_LQ1Q0L_MLq4KtpZ6G-ySC35a6E6YTm_G295CqntHK6iPfHVuyCHA4yzm9i6iJwQEJoDQyFzzL07QRz442Fon-QotGUs5PO1C50NabAU6ofzKbpz0RgXIHeXgScheMGa67nPfihvQdgr-BUVVvr_FLbCRh8lVohHUTCfibxtCiIARwkScPy4XR-qBaOEoZMnDPPni84Ww86thO9F5IPpK_TurgTjrTVgSxdC5IUkF2vDKqgBKCzowOQgmBljQRZXkKiht2eFH0UlWKTsEWbeVTujZhywD2L7XUo4nOGndDK-TwUtcQuKv54-c7ZRAxra7wklim7DR64AlU8Rxr0h2Ez-XajMv51jF4XFocb02VVXp8-BE55XQyZgJNqXJMNJQXuxQakYihAyQbrUNv6ciWi59Ci3pg5_7UGnosNQOzcTWhGN1To3rMfZVoOFdu0oGU7gYc4ndl3cK1XczCan-RHEF4ZHE2_A867JfQcw8C2MOqJd33_6LyDQ8RI_pUBZwCovwBNZfd2Z-cOiV6U5PYZrGF17Q5qS_3eEwndZltYj3XzwBx9zudzksXfRPC933hlNFHLAAf_hI2-x2VSA1gqnKkhFZ9tEzAc2GQSYZjiC9Sq-PzwgqjqmRQbYA0vFarVFMScCAHFyFtxyVla5zr6lNxvvAirctreXSeFdz0m00]--></g></svg>