<?xml version="1.0" encoding="us-ascii" standalone="no"?><svg xmlns="http://www.w3.org/2000/svg" xmlns:xlink="http://www.w3.org/1999/xlink" contentStyleType="text/css" height="2122px" preserveAspectRatio="none" style="width:2077px;height:2122px;background:#FFFFFF;" version="1.1" viewBox="0 0 2077 2122" width="2077px" zoomAndPan="magnify"><defs/><g><rect fill="#FFFFFF" height="1915.9668" style="stroke:#181818;stroke-width:1.0;" width="10" x="86.5" y="98.2422"/><rect fill="#FFFFFF" height="1915.9668" style="stroke:#181818;stroke-width:1.0;" width="10" x="461.5" y="98.2422"/><rect fill="#FFFFFF" height="1835.0938" style="stroke:#181818;stroke-width:1.0;" width="10" x="654.5" y="179.1152"/><rect fill="#FFFFFF" height="202.7461" style="stroke:#181818;stroke-width:1.0;" width="10" x="865" y="562.6074"/><rect fill="#FFFFFF" height="743.1504" style="stroke:#181818;stroke-width:1.0;" width="10" x="865" y="982.7305"/><rect fill="#FFFFFF" height="1772.5117" style="stroke:#181818;stroke-width:1.0;" width="10" x="1106" y="241.6973"/><rect fill="#FFFFFF" height="31.291" style="stroke:#181818;stroke-width:1.0;" width="10" x="1225" y="1154.1855"/><rect fill="#FFFFFF" height="721.8594" style="stroke:#181818;stroke-width:1.0;" width="10" x="1346" y="1292.3496"/><rect fill="#FFFFFF" height="30" style="stroke:#181818;stroke-width:1.0;" width="10" x="1538.5" y="1412.5137"/><rect fill="#FFFFFF" height="30" style="stroke:#181818;stroke-width:1.0;" width="10" x="1778.5" y="1544.3867"/><rect fill="#FFFFFF" height="350.9102" style="stroke:#181818;stroke-width:1.0;" width="10" x="1977" y="1663.2988"/><rect fill="none" height="1807.0938" style="stroke:#000000;stroke-width:1.5;" width="2061.5" x="10" y="136.5332"/><rect fill="none" height="1383.3105" style="stroke:#000000;stroke-width:1.5;" width="2041.5" x="20" y="457.4434"/><rect fill="none" height="63.582" style="stroke:#000000;stroke-width:1.5;" width="291" x="1031.5" y="640.1895"/><rect fill="none" height="63.582" style="stroke:#000000;stroke-width:1.5;" width="369" x="1031.5" y="1060.3125"/><rect fill="none" height="219.4551" style="stroke:#000000;stroke-width:1.5;" width="1176.5" x="746" y="1369.9316"/><rect fill="none" height="124.873" style="stroke:#000000;stroke-width:1.5;" width="1156.5" x="756" y="1457.5137"/><rect fill="none" height="50.582" style="stroke:#000000;stroke-width:1.5;" width="528" x="20" y="1886.0449"/><line style="stroke:#181818;stroke-width:0.5;stroke-dasharray:5.0,5.0;" x1="91" x2="91" y1="88.2422" y2="2023.209"/><line style="stroke:#181818;stroke-width:0.5;stroke-dasharray:5.0,5.0;" x1="466" x2="466" y1="88.2422" y2="2023.209"/><line style="stroke:#181818;stroke-width:0.5;stroke-dasharray:5.0,5.0;" x1="659" x2="659" y1="88.2422" y2="2023.209"/><line style="stroke:#181818;stroke-width:0.5;stroke-dasharray:5.0,5.0;" x1="870" x2="870" y1="88.2422" y2="2023.209"/><line style="stroke:#181818;stroke-width:0.5;stroke-dasharray:5.0,5.0;" x1="1110.5" x2="1110.5" y1="88.2422" y2="2023.209"/><line style="stroke:#181818;stroke-width:0.5;stroke-dasharray:5.0,5.0;" x1="1229.5" x2="1229.5" y1="88.2422" y2="2023.209"/><line style="stroke:#181818;stroke-width:0.5;stroke-dasharray:5.0,5.0;" x1="1350.5" x2="1350.5" y1="88.2422" y2="2023.209"/><line style="stroke:#181818;stroke-width:0.5;stroke-dasharray:5.0,5.0;" x1="1543.5" x2="1543.5" y1="88.2422" y2="2023.209"/><line style="stroke:#181818;stroke-width:0.5;stroke-dasharray:5.0,5.0;" x1="1783.5" x2="1783.5" y1="88.2422" y2="2023.209"/><line style="stroke:#181818;stroke-width:0.5;stroke-dasharray:5.0,5.0;" x1="1981.5" x2="1981.5" y1="1628.1973" y2="2023.209"/><text fill="#000000" font-family="sans-serif" font-size="14" lengthAdjust="spacing" textLength="117" x="30" y="84.7285">CustomerManager</text><ellipse cx="91.5" cy="18.1211" fill="#E2E2F0" rx="8" ry="8" style="stroke:#181818;stroke-width:0.5;"/><path d="M91.5,26.1211 L91.5,53.1211 M78.5,34.1211 L104.5,34.1211 M91.5,53.1211 L78.5,68.1211 M91.5,53.1211 L104.5,68.1211 " fill="none" style="stroke:#181818;stroke-width:0.5;"/><text fill="#000000" font-family="sans-serif" font-size="14" lengthAdjust="spacing" textLength="117" x="30" y="2037.3164">CustomerManager</text><ellipse cx="91.5" cy="2049.3301" fill="#E2E2F0" rx="8" ry="8" style="stroke:#181818;stroke-width:0.5;"/><path d="M91.5,2057.3301 L91.5,2084.3301 M78.5,2065.3301 L104.5,2065.3301 M91.5,2084.3301 L78.5,2099.3301 M91.5,2084.3301 L104.5,2099.3301 " fill="none" style="stroke:#181818;stroke-width:0.5;"/><rect fill="#E2E2F0" height="51.2422" rx="2.5" ry="2.5" style="stroke:#181818;stroke-width:0.5;" width="143" x="395" y="36"/><text fill="#000000" font-family="sans-serif" font-size="14" lengthAdjust="spacing" textLength="96" x="418.5" y="58.1074">&#171;Presentation&#187;</text><text fill="#000000" font-family="sans-serif" font-size="14" lengthAdjust="spacing" textLength="129" x="402" y="76.7285">ListCandidateDataUI</text><rect fill="#E2E2F0" height="51.2422" rx="2.5" ry="2.5" style="stroke:#181818;stroke-width:0.5;" width="143" x="395" y="2022.209"/><text fill="#000000" font-family="sans-serif" font-size="14" lengthAdjust="spacing" textLength="96" x="418.5" y="2044.3164">&#171;Presentation&#187;</text><text fill="#000000" font-family="sans-serif" font-size="14" lengthAdjust="spacing" textLength="129" x="402" y="2062.9375">ListCandidateDataUI</text><rect fill="#E2E2F0" height="51.2422" rx="2.5" ry="2.5" style="stroke:#181818;stroke-width:0.5;" width="193" x="563" y="36"/><text fill="#000000" font-family="sans-serif" font-size="14" lengthAdjust="spacing" textLength="85" x="617" y="58.1074">&#171;Application&#187;</text><text fill="#000000" font-family="sans-serif" font-size="14" lengthAdjust="spacing" textLength="179" x="570" y="76.7285">ListCandidateDataController</text><rect fill="#E2E2F0" height="51.2422" rx="2.5" ry="2.5" style="stroke:#181818;stroke-width:0.5;" width="193" x="563" y="2022.209"/><text fill="#000000" font-family="sans-serif" font-size="14" lengthAdjust="spacing" textLength="85" x="617" y="2044.3164">&#171;Application&#187;</text><text fill="#000000" font-family="sans-serif" font-size="14" lengthAdjust="spacing" textLength="179" x="570" y="2062.9375">ListCandidateDataController</text><rect fill="#E2E2F0" height="51.2422" rx="2.5" ry="2.5" style="stroke:#181818;stroke-width:0.5;" width="208" x="766" y="36"/><text fill="#000000" font-family="sans-serif" font-size="14" lengthAdjust="spacing" textLength="100" x="820" y="58.1074">&#171;Infrastructure&#187;</text><text fill="#000000" font-family="sans-serif" font-size="14" lengthAdjust="spacing" textLength="194" x="773" y="76.7285">ListCandidateDataDTOService</text><rect fill="#E2E2F0" height="51.2422" rx="2.5" ry="2.5" style="stroke:#181818;stroke-width:0.5;" width="208" x="766" y="2022.209"/><text fill="#000000" font-family="sans-serif" font-size="14" lengthAdjust="spacing" textLength="100" x="820" y="2044.3164">&#171;Infrastructure&#187;</text><text fill="#000000" font-family="sans-serif" font-size="14" lengthAdjust="spacing" textLength="194" x="773" y="2062.9375">ListCandidateDataDTOService</text><text fill="#000000" font-family="sans-serif" font-size="14" lengthAdjust="spacing" textLength="100" x="1058" y="66.1074">&#171;Infrastructure&#187;</text><text fill="#000000" font-family="sans-serif" font-size="14" lengthAdjust="spacing" textLength="133" x="1041.5" y="84.7285">CandidateRepository</text><path d="M1093,15 C1093,5 1111,5 1111,5 C1111,5 1129,5 1129,15 L1129,41 C1129,51 1111,51 1111,51 C1111,51 1093,51 1093,41 L1093,15 " fill="#E2E2F0" style="stroke:#181818;stroke-width:1.5;"/><path d="M1093,15 C1093,25 1111,25 1111,25 C1111,25 1129,25 1129,15 " fill="none" style="stroke:#181818;stroke-width:1.5;"/><text fill="#000000" font-family="sans-serif" font-size="14" lengthAdjust="spacing" textLength="100" x="1058" y="2037.3164">&#171;Infrastructure&#187;</text><text fill="#000000" font-family="sans-serif" font-size="14" lengthAdjust="spacing" textLength="133" x="1041.5" y="2055.9375">CandidateRepository</text><path d="M1093,2069.4512 C1093,2059.4512 1111,2059.4512 1111,2059.4512 C1111,2059.4512 1129,2059.4512 1129,2069.4512 L1129,2095.4512 C1129,2105.4512 1111,2105.4512 1111,2105.4512 C1111,2105.4512 1093,2105.4512 1093,2095.4512 L1093,2069.4512 " fill="#E2E2F0" style="stroke:#181818;stroke-width:1.5;"/><path d="M1093,2069.4512 C1093,2079.4512 1111,2079.4512 1111,2079.4512 C1111,2079.4512 1129,2079.4512 1129,2069.4512 " fill="none" style="stroke:#181818;stroke-width:1.5;"/><rect fill="#E2E2F0" height="51.2422" rx="2.5" ry="2.5" style="stroke:#181818;stroke-width:0.5;" width="79" x="1190.5" y="36"/><text fill="#000000" font-family="sans-serif" font-size="14" lengthAdjust="spacing" textLength="64" x="1198" y="58.1074">&#171;Domain&#187;</text><text fill="#000000" font-family="sans-serif" font-size="14" lengthAdjust="spacing" textLength="65" x="1197.5" y="76.7285">Candidate</text><rect fill="#E2E2F0" height="51.2422" rx="2.5" ry="2.5" style="stroke:#181818;stroke-width:0.5;" width="79" x="1190.5" y="2022.209"/><text fill="#000000" font-family="sans-serif" font-size="14" lengthAdjust="spacing" textLength="64" x="1198" y="2044.3164">&#171;Domain&#187;</text><text fill="#000000" font-family="sans-serif" font-size="14" lengthAdjust="spacing" textLength="65" x="1197.5" y="2062.9375">Candidate</text><text fill="#000000" font-family="sans-serif" font-size="14" lengthAdjust="spacing" textLength="100" x="1298" y="66.1074">&#171;Infrastructure&#187;</text><text fill="#000000" font-family="sans-serif" font-size="14" lengthAdjust="spacing" textLength="137" x="1279.5" y="84.7285">ApplicationRepository</text><path d="M1333,15 C1333,5 1351,5 1351,5 C1351,5 1369,5 1369,15 L1369,41 C1369,51 1351,51 1351,51 C1351,51 1333,51 1333,41 L1333,15 " fill="#E2E2F0" style="stroke:#181818;stroke-width:1.5;"/><path d="M1333,15 C1333,25 1351,25 1351,25 C1351,25 1369,25 1369,15 " fill="none" style="stroke:#181818;stroke-width:1.5;"/><text fill="#000000" font-family="sans-serif" font-size="14" lengthAdjust="spacing" textLength="100" x="1298" y="2037.3164">&#171;Infrastructure&#187;</text><text fill="#000000" font-family="sans-serif" font-size="14" lengthAdjust="spacing" textLength="137" x="1279.5" y="2055.9375">ApplicationRepository</text><path d="M1333,2069.4512 C1333,2059.4512 1351,2059.4512 1351,2059.4512 C1351,2059.4512 1369,2059.4512 1369,2069.4512 L1369,2095.4512 C1369,2105.4512 1351,2105.4512 1351,2105.4512 C1351,2105.4512 1333,2105.4512 1333,2095.4512 L1333,2069.4512 " fill="#E2E2F0" style="stroke:#181818;stroke-width:1.5;"/><path d="M1333,2069.4512 C1333,2079.4512 1351,2079.4512 1351,2079.4512 C1351,2079.4512 1369,2079.4512 1369,2069.4512 " fill="none" style="stroke:#181818;stroke-width:1.5;"/><rect fill="#E2E2F0" height="32.6211" rx="2.5" ry="2.5" style="stroke:#181818;stroke-width:0.5;" width="222" x="1432.5" y="54.6211"/><text fill="#000000" font-family="sans-serif" font-size="14" lengthAdjust="spacing" textLength="208" x="1439.5" y="76.7285">List&lt;Applications&gt; allApplications</text><rect fill="#E2E2F0" height="32.6211" rx="2.5" ry="2.5" style="stroke:#181818;stroke-width:0.5;" width="222" x="1432.5" y="2022.209"/><text fill="#000000" font-family="sans-serif" font-size="14" lengthAdjust="spacing" textLength="208" x="1439.5" y="2044.3164">List&lt;Applications&gt; allApplications</text><rect fill="#E2E2F0" height="32.6211" rx="2.5" ry="2.5" style="stroke:#181818;stroke-width:0.5;" width="238" x="1664.5" y="54.6211"/><text fill="#000000" font-family="sans-serif" font-size="14" lengthAdjust="spacing" textLength="224" x="1671.5" y="76.7285">List&lt;Applications&gt; ApplicationsDTO</text><rect fill="#E2E2F0" height="32.6211" rx="2.5" ry="2.5" style="stroke:#181818;stroke-width:0.5;" width="238" x="1664.5" y="2022.209"/><text fill="#000000" font-family="sans-serif" font-size="14" lengthAdjust="spacing" textLength="224" x="1671.5" y="2044.3164">List&lt;Applications&gt; ApplicationsDTO</text><rect fill="#E2E2F0" height="32.6211" rx="2.5" ry="2.5" style="stroke:#181818;stroke-width:0.5;" width="139" x="1912.5" y="2022.209"/><text fill="#000000" font-family="sans-serif" font-size="14" lengthAdjust="spacing" textLength="125" x="1919.5" y="2044.3164">CandidateDataDTO</text><rect fill="#FFFFFF" height="1915.9668" style="stroke:#181818;stroke-width:1.0;" width="10" x="86.5" y="98.2422"/><rect fill="#FFFFFF" height="1915.9668" style="stroke:#181818;stroke-width:1.0;" width="10" x="461.5" y="98.2422"/><rect fill="#FFFFFF" height="1835.0938" style="stroke:#181818;stroke-width:1.0;" width="10" x="654.5" y="179.1152"/><rect fill="#FFFFFF" height="202.7461" style="stroke:#181818;stroke-width:1.0;" width="10" x="865" y="562.6074"/><rect fill="#FFFFFF" height="743.1504" style="stroke:#181818;stroke-width:1.0;" width="10" x="865" y="982.7305"/><rect fill="#FFFFFF" height="1772.5117" style="stroke:#181818;stroke-width:1.0;" width="10" x="1106" y="241.6973"/><rect fill="#FFFFFF" height="31.291" style="stroke:#181818;stroke-width:1.0;" width="10" x="1225" y="1154.1855"/><rect fill="#FFFFFF" height="721.8594" style="stroke:#181818;stroke-width:1.0;" width="10" x="1346" y="1292.3496"/><rect fill="#FFFFFF" height="30" style="stroke:#181818;stroke-width:1.0;" width="10" x="1538.5" y="1412.5137"/><rect fill="#FFFFFF" height="30" style="stroke:#181818;stroke-width:1.0;" width="10" x="1778.5" y="1544.3867"/><rect fill="#FFFFFF" height="350.9102" style="stroke:#181818;stroke-width:1.0;" width="10" x="1977" y="1663.2988"/><polygon fill="#181818" points="449.5,117.5332,459.5,121.5332,449.5,125.5332,453.5,121.5332" style="stroke:#181818;stroke-width:1.0;"/><line style="stroke:#181818;stroke-width:1.0;" x1="96.5" x2="455.5" y1="121.5332" y2="121.5332"/><text fill="#000000" font-family="sans-serif" font-size="13" font-weight="bold" lengthAdjust="spacing" textLength="7" x="103.5" y="116.2705">1</text><text fill="#000000" font-family="sans-serif" font-size="13" lengthAdjust="spacing" textLength="240" x="114.5" y="116.2705">Asks to list the information of a candidate</text><path d="M10,136.5332 L83,136.5332 L83,145.8242 L73,155.8242 L10,155.8242 L10,136.5332 " fill="#EEEEEE" style="stroke:#000000;stroke-width:1.5;"/><rect fill="none" height="1807.0938" style="stroke:#000000;stroke-width:1.5;" width="2061.5" x="10" y="136.5332"/><text fill="#000000" font-family="sans-serif" font-size="13" font-weight="bold" lengthAdjust="spacing" textLength="28" x="25" y="151.5615">loop</text><polygon fill="#181818" points="642.5,175.1152,652.5,179.1152,642.5,183.1152,646.5,179.1152" style="stroke:#181818;stroke-width:1.0;"/><line style="stroke:#181818;stroke-width:1.0;" x1="471.5" x2="648.5" y1="179.1152" y2="179.1152"/><text fill="#000000" font-family="sans-serif" font-size="13" font-weight="bold" lengthAdjust="spacing" textLength="7" x="478.5" y="173.8525">2</text><text fill="#000000" font-family="sans-serif" font-size="13" lengthAdjust="spacing" textLength="44" x="489.5" y="173.8525">create()</text><polygon fill="#181818" points="642.5,206.4063,652.5,210.4063,642.5,214.4063,646.5,210.4063" style="stroke:#181818;stroke-width:1.0;"/><line style="stroke:#181818;stroke-width:1.0;" x1="471.5" x2="648.5" y1="210.4063" y2="210.4063"/><text fill="#000000" font-family="sans-serif" font-size="13" font-weight="bold" lengthAdjust="spacing" textLength="7" x="478.5" y="205.1436">3</text><text fill="#000000" font-family="sans-serif" font-size="13" lengthAdjust="spacing" textLength="90" x="489.5" y="205.1436">listCandidates()</text><polygon fill="#181818" points="1094,237.6973,1104,241.6973,1094,245.6973,1098,241.6973" style="stroke:#181818;stroke-width:1.0;"/><line style="stroke:#181818;stroke-width:1.0;" x1="664.5" x2="1100" y1="241.6973" y2="241.6973"/><text fill="#000000" font-family="sans-serif" font-size="13" font-weight="bold" lengthAdjust="spacing" textLength="7" x="671.5" y="236.4346">4</text><text fill="#000000" font-family="sans-serif" font-size="13" lengthAdjust="spacing" textLength="57" x="682.5" y="236.4346">instance()</text><polygon fill="#181818" points="675.5,268.9883,665.5,272.9883,675.5,276.9883,671.5,272.9883" style="stroke:#181818;stroke-width:1.0;"/><line style="stroke:#181818;stroke-width:1.0;stroke-dasharray:2.0,2.0;" x1="669.5" x2="1105" y1="272.9883" y2="272.9883"/><text fill="#000000" font-family="sans-serif" font-size="13" font-weight="bold" lengthAdjust="spacing" textLength="7" x="681.5" y="267.7256">5</text><text fill="#000000" font-family="sans-serif" font-size="13" lengthAdjust="spacing" textLength="49" x="692.5" y="267.7256">instance</text><polygon fill="#181818" points="1094,300.2793,1104,304.2793,1094,308.2793,1098,304.2793" style="stroke:#181818;stroke-width:1.0;"/><line style="stroke:#181818;stroke-width:1.0;" x1="664.5" x2="1100" y1="304.2793" y2="304.2793"/><text fill="#000000" font-family="sans-serif" font-size="13" font-weight="bold" lengthAdjust="spacing" textLength="7" x="671.5" y="299.0166">6</text><text fill="#000000" font-family="sans-serif" font-size="13" lengthAdjust="spacing" textLength="43" x="682.5" y="299.0166">findAll()</text><polygon fill="#181818" points="675.5,331.5703,665.5,335.5703,675.5,339.5703,671.5,335.5703" style="stroke:#181818;stroke-width:1.0;"/><line style="stroke:#181818;stroke-width:1.0;stroke-dasharray:2.0,2.0;" x1="669.5" x2="1105" y1="335.5703" y2="335.5703"/><text fill="#000000" font-family="sans-serif" font-size="13" font-weight="bold" lengthAdjust="spacing" textLength="7" x="681.5" y="330.3076">7</text><text fill="#000000" font-family="sans-serif" font-size="13" lengthAdjust="spacing" textLength="35" x="692.5" y="330.3076">findAll</text><polygon fill="#181818" points="482.5,362.8613,472.5,366.8613,482.5,370.8613,478.5,366.8613" style="stroke:#181818;stroke-width:1.0;"/><line style="stroke:#181818;stroke-width:1.0;stroke-dasharray:2.0,2.0;" x1="476.5" x2="653.5" y1="366.8613" y2="366.8613"/><text fill="#000000" font-family="sans-serif" font-size="13" font-weight="bold" lengthAdjust="spacing" textLength="7" x="488.5" y="361.5986">8</text><text fill="#000000" font-family="sans-serif" font-size="13" lengthAdjust="spacing" textLength="4" x="499.5" y="361.5986">&#160;</text><line style="stroke:#181818;stroke-width:1.0;" x1="471.5" x2="513.5" y1="398.1523" y2="398.1523"/><line style="stroke:#181818;stroke-width:1.0;" x1="513.5" x2="513.5" y1="398.1523" y2="411.1523"/><line style="stroke:#181818;stroke-width:1.0;" x1="472.5" x2="513.5" y1="411.1523" y2="411.1523"/><polygon fill="#181818" points="482.5,407.1523,472.5,411.1523,482.5,415.1523,478.5,411.1523" style="stroke:#181818;stroke-width:1.0;"/><text fill="#000000" font-family="sans-serif" font-size="13" font-weight="bold" lengthAdjust="spacing" textLength="7" x="478.5" y="392.8896">9</text><text fill="#000000" font-family="sans-serif" font-size="13" lengthAdjust="spacing" textLength="38" x="489.5" y="392.8896">show()</text><polygon fill="#181818" points="107.5,438.4434,97.5,442.4434,107.5,446.4434,103.5,442.4434" style="stroke:#181818;stroke-width:1.0;"/><line style="stroke:#181818;stroke-width:1.0;stroke-dasharray:2.0,2.0;" x1="101.5" x2="460.5" y1="442.4434" y2="442.4434"/><text fill="#000000" font-family="sans-serif" font-size="13" font-weight="bold" lengthAdjust="spacing" textLength="14" x="113.5" y="437.1807">10</text><text fill="#000000" font-family="sans-serif" font-size="13" lengthAdjust="spacing" textLength="321" x="131.5" y="437.1807">prompts user to choose a candidate (email as identifier)</text><path d="M20,457.4434 L81,457.4434 L81,466.7344 L71,476.7344 L20,476.7344 L20,457.4434 " fill="#EEEEEE" style="stroke:#000000;stroke-width:1.5;"/><rect fill="none" height="1383.3105" style="stroke:#000000;stroke-width:1.5;" width="2041.5" x="20" y="457.4434"/><text fill="#000000" font-family="sans-serif" font-size="13" font-weight="bold" lengthAdjust="spacing" textLength="16" x="35" y="472.4717">alt</text><text fill="#000000" font-family="sans-serif" font-size="11" font-weight="bold" lengthAdjust="spacing" textLength="125" x="96" y="471.3135">[Invalid email address]</text><polygon fill="#181818" points="449.5,496.0254,459.5,500.0254,449.5,504.0254,453.5,500.0254" style="stroke:#181818;stroke-width:1.0;"/><line style="stroke:#181818;stroke-width:1.0;" x1="96.5" x2="455.5" y1="500.0254" y2="500.0254"/><text fill="#000000" font-family="sans-serif" font-size="13" font-weight="bold" lengthAdjust="spacing" textLength="14" x="103.5" y="494.7627">11</text><text fill="#000000" font-family="sans-serif" font-size="13" lengthAdjust="spacing" textLength="177" x="121.5" y="494.7627">Inputs an invalid email address</text><polygon fill="#181818" points="642.5,527.3164,652.5,531.3164,642.5,535.3164,646.5,531.3164" style="stroke:#181818;stroke-width:1.0;"/><line style="stroke:#181818;stroke-width:1.0;" x1="471.5" x2="648.5" y1="531.3164" y2="531.3164"/><text fill="#000000" font-family="sans-serif" font-size="13" font-weight="bold" lengthAdjust="spacing" textLength="14" x="478.5" y="526.0537">12</text><text fill="#000000" font-family="sans-serif" font-size="13" lengthAdjust="spacing" textLength="141" x="496.5" y="526.0537">listCandidateData(email)</text><polygon fill="#181818" points="853,558.6074,863,562.6074,853,566.6074,857,562.6074" style="stroke:#181818;stroke-width:1.0;"/><line style="stroke:#181818;stroke-width:1.0;" x1="664.5" x2="859" y1="562.6074" y2="562.6074"/><text fill="#000000" font-family="sans-serif" font-size="13" font-weight="bold" lengthAdjust="spacing" textLength="14" x="671.5" y="557.3447">13</text><text fill="#000000" font-family="sans-serif" font-size="13" lengthAdjust="spacing" textLength="141" x="689.5" y="557.3447">listCandidateData(email)</text><polygon fill="#181818" points="1094,589.8984,1104,593.8984,1094,597.8984,1098,593.8984" style="stroke:#181818;stroke-width:1.0;"/><line style="stroke:#181818;stroke-width:1.0;" x1="875" x2="1100" y1="593.8984" y2="593.8984"/><text fill="#000000" font-family="sans-serif" font-size="13" font-weight="bold" lengthAdjust="spacing" textLength="14" x="882" y="588.6357">14</text><text fill="#000000" font-family="sans-serif" font-size="13" lengthAdjust="spacing" textLength="57" x="900" y="588.6357">instance()</text><polygon fill="#181818" points="1094,621.1895,1104,625.1895,1094,629.1895,1098,625.1895" style="stroke:#181818;stroke-width:1.0;"/><line style="stroke:#181818;stroke-width:1.0;" x1="875" x2="1100" y1="625.1895" y2="625.1895"/><text fill="#000000" font-family="sans-serif" font-size="13" font-weight="bold" lengthAdjust="spacing" textLength="14" x="882" y="619.9268">15</text><text fill="#000000" font-family="sans-serif" font-size="13" lengthAdjust="spacing" textLength="85" x="900" y="619.9268">findById(email)</text><path d="M1031.5,640.1895 L1104.5,640.1895 L1104.5,649.4805 L1094.5,659.4805 L1031.5,659.4805 L1031.5,640.1895 " fill="#EEEEEE" style="stroke:#000000;stroke-width:1.5;"/><rect fill="none" height="63.582" style="stroke:#000000;stroke-width:1.5;" width="291" x="1031.5" y="640.1895"/><text fill="#000000" font-family="sans-serif" font-size="13" font-weight="bold" lengthAdjust="spacing" textLength="28" x="1046.5" y="655.2178">loop</text><text fill="#000000" font-family="sans-serif" font-size="11" font-weight="bold" lengthAdjust="spacing" textLength="198" x="1119.5" y="654.0596">[returns null since it doesn't match]</text><line style="stroke:#181818;stroke-width:1.0;" x1="1116" x2="1158" y1="682.7715" y2="682.7715"/><line style="stroke:#181818;stroke-width:1.0;" x1="1158" x2="1158" y1="682.7715" y2="695.7715"/><line style="stroke:#181818;stroke-width:1.0;" x1="1117" x2="1158" y1="695.7715" y2="695.7715"/><polygon fill="#181818" points="1127,691.7715,1117,695.7715,1127,699.7715,1123,695.7715" style="stroke:#181818;stroke-width:1.0;"/><text fill="#000000" font-family="sans-serif" font-size="13" font-weight="bold" lengthAdjust="spacing" textLength="14" x="1123" y="677.5088">16</text><text fill="#000000" font-family="sans-serif" font-size="13" lengthAdjust="spacing" textLength="53" x="1141" y="677.5088">searches</text><polygon fill="#181818" points="886,730.0625,876,734.0625,886,738.0625,882,734.0625" style="stroke:#181818;stroke-width:1.0;"/><line style="stroke:#181818;stroke-width:1.0;stroke-dasharray:2.0,2.0;" x1="880" x2="1105" y1="734.0625" y2="734.0625"/><text fill="#000000" font-family="sans-serif" font-size="13" font-weight="bold" lengthAdjust="spacing" textLength="14" x="892" y="728.7998">17</text><text fill="#000000" font-family="sans-serif" font-size="13" lengthAdjust="spacing" textLength="20" x="910" y="728.7998">null</text><polygon fill="#181818" points="675.5,761.3535,665.5,765.3535,675.5,769.3535,671.5,765.3535" style="stroke:#181818;stroke-width:1.0;"/><line style="stroke:#181818;stroke-width:1.0;stroke-dasharray:2.0,2.0;" x1="669.5" x2="869" y1="765.3535" y2="765.3535"/><text fill="#000000" font-family="sans-serif" font-size="13" font-weight="bold" lengthAdjust="spacing" textLength="14" x="681.5" y="760.0908">18</text><text fill="#000000" font-family="sans-serif" font-size="13" lengthAdjust="spacing" textLength="20" x="699.5" y="760.0908">null</text><polygon fill="#181818" points="482.5,792.6445,472.5,796.6445,482.5,800.6445,478.5,796.6445" style="stroke:#181818;stroke-width:1.0;"/><line style="stroke:#181818;stroke-width:1.0;stroke-dasharray:2.0,2.0;" x1="476.5" x2="653.5" y1="796.6445" y2="796.6445"/><text fill="#000000" font-family="sans-serif" font-size="13" font-weight="bold" lengthAdjust="spacing" textLength="14" x="488.5" y="791.3818">19</text><text fill="#000000" font-family="sans-serif" font-size="13" lengthAdjust="spacing" textLength="20" x="506.5" y="791.3818">null</text><line style="stroke:#181818;stroke-width:1.0;" x1="471.5" x2="513.5" y1="827.9355" y2="827.9355"/><line style="stroke:#181818;stroke-width:1.0;" x1="513.5" x2="513.5" y1="827.9355" y2="840.9355"/><line style="stroke:#181818;stroke-width:1.0;" x1="472.5" x2="513.5" y1="840.9355" y2="840.9355"/><polygon fill="#181818" points="482.5,836.9355,472.5,840.9355,482.5,844.9355,478.5,840.9355" style="stroke:#181818;stroke-width:1.0;"/><text fill="#000000" font-family="sans-serif" font-size="13" font-weight="bold" lengthAdjust="spacing" textLength="14" x="478.5" y="822.6729">20</text><text fill="#000000" font-family="sans-serif" font-size="13" lengthAdjust="spacing" textLength="54" x="496.5" y="822.6729">doShow()</text><polygon fill="#181818" points="107.5,868.2266,97.5,872.2266,107.5,876.2266,103.5,872.2266" style="stroke:#181818;stroke-width:1.0;"/><line style="stroke:#181818;stroke-width:1.0;stroke-dasharray:2.0,2.0;" x1="101.5" x2="460.5" y1="872.2266" y2="872.2266"/><text fill="#000000" font-family="sans-serif" font-size="13" font-weight="bold" lengthAdjust="spacing" textLength="14" x="113.5" y="866.9639">21</text><text fill="#000000" font-family="sans-serif" font-size="13" lengthAdjust="spacing" textLength="279" x="131.5" y="866.9639">Notifies the user it's invalid and asks to try again</text><line style="stroke:#000000;stroke-width:1.0;stroke-dasharray:2.0,2.0;" x1="20" x2="2061.5" y1="881.2266" y2="881.2266"/><text fill="#000000" font-family="sans-serif" font-size="11" font-weight="bold" lengthAdjust="spacing" textLength="117" x="25" y="893.0967">[Valid email address]</text><polygon fill="#181818" points="449.5,916.1484,459.5,920.1484,449.5,924.1484,453.5,920.1484" style="stroke:#181818;stroke-width:1.0;"/><line style="stroke:#181818;stroke-width:1.0;" x1="96.5" x2="455.5" y1="920.1484" y2="920.1484"/><text fill="#000000" font-family="sans-serif" font-size="13" font-weight="bold" lengthAdjust="spacing" textLength="14" x="103.5" y="914.8857">22</text><text fill="#000000" font-family="sans-serif" font-size="13" lengthAdjust="spacing" textLength="160" x="121.5" y="914.8857">Inputs a valid email address</text><polygon fill="#181818" points="642.5,947.4395,652.5,951.4395,642.5,955.4395,646.5,951.4395" style="stroke:#181818;stroke-width:1.0;"/><line style="stroke:#181818;stroke-width:1.0;" x1="471.5" x2="648.5" y1="951.4395" y2="951.4395"/><text fill="#000000" font-family="sans-serif" font-size="13" font-weight="bold" lengthAdjust="spacing" textLength="14" x="478.5" y="946.1768">23</text><text fill="#000000" font-family="sans-serif" font-size="13" lengthAdjust="spacing" textLength="141" x="496.5" y="946.1768">listCandidateData(email)</text><polygon fill="#181818" points="853,978.7305,863,982.7305,853,986.7305,857,982.7305" style="stroke:#181818;stroke-width:1.0;"/><line style="stroke:#181818;stroke-width:1.0;" x1="664.5" x2="859" y1="982.7305" y2="982.7305"/><text fill="#000000" font-family="sans-serif" font-size="13" font-weight="bold" lengthAdjust="spacing" textLength="14" x="671.5" y="977.4678">24</text><text fill="#000000" font-family="sans-serif" font-size="13" lengthAdjust="spacing" textLength="141" x="689.5" y="977.4678">listCandidateData(email)</text><polygon fill="#181818" points="1094,1010.0215,1104,1014.0215,1094,1018.0215,1098,1014.0215" style="stroke:#181818;stroke-width:1.0;"/><line style="stroke:#181818;stroke-width:1.0;" x1="875" x2="1100" y1="1014.0215" y2="1014.0215"/><text fill="#000000" font-family="sans-serif" font-size="13" font-weight="bold" lengthAdjust="spacing" textLength="14" x="882" y="1008.7588">25</text><text fill="#000000" font-family="sans-serif" font-size="13" lengthAdjust="spacing" textLength="57" x="900" y="1008.7588">instance()</text><polygon fill="#181818" points="1094,1041.3125,1104,1045.3125,1094,1049.3125,1098,1045.3125" style="stroke:#181818;stroke-width:1.0;"/><line style="stroke:#181818;stroke-width:1.0;" x1="875" x2="1100" y1="1045.3125" y2="1045.3125"/><text fill="#000000" font-family="sans-serif" font-size="13" font-weight="bold" lengthAdjust="spacing" textLength="14" x="882" y="1040.0498">26</text><text fill="#000000" font-family="sans-serif" font-size="13" lengthAdjust="spacing" textLength="85" x="900" y="1040.0498">findById(email)</text><path d="M1031.5,1060.3125 L1104.5,1060.3125 L1104.5,1069.6035 L1094.5,1079.6035 L1031.5,1079.6035 L1031.5,1060.3125 " fill="#EEEEEE" style="stroke:#000000;stroke-width:1.5;"/><rect fill="none" height="63.582" style="stroke:#000000;stroke-width:1.5;" width="369" x="1031.5" y="1060.3125"/><text fill="#000000" font-family="sans-serif" font-size="13" font-weight="bold" lengthAdjust="spacing" textLength="28" x="1046.5" y="1075.3408">loop</text><text fill="#000000" font-family="sans-serif" font-size="11" font-weight="bold" lengthAdjust="spacing" textLength="276" x="1119.5" y="1074.1826">[returns the candidate when it matches the email]</text><line style="stroke:#181818;stroke-width:1.0;" x1="1116" x2="1158" y1="1102.8945" y2="1102.8945"/><line style="stroke:#181818;stroke-width:1.0;" x1="1158" x2="1158" y1="1102.8945" y2="1115.8945"/><line style="stroke:#181818;stroke-width:1.0;" x1="1117" x2="1158" y1="1115.8945" y2="1115.8945"/><polygon fill="#181818" points="1127,1111.8945,1117,1115.8945,1127,1119.8945,1123,1115.8945" style="stroke:#181818;stroke-width:1.0;"/><text fill="#000000" font-family="sans-serif" font-size="13" font-weight="bold" lengthAdjust="spacing" textLength="14" x="1123" y="1097.6318">27</text><text fill="#000000" font-family="sans-serif" font-size="13" lengthAdjust="spacing" textLength="53" x="1141" y="1097.6318">searches</text><polygon fill="#181818" points="1213,1150.1855,1223,1154.1855,1213,1158.1855,1217,1154.1855" style="stroke:#181818;stroke-width:1.0;"/><line style="stroke:#181818;stroke-width:1.0;" x1="1116" x2="1219" y1="1154.1855" y2="1154.1855"/><text fill="#000000" font-family="sans-serif" font-size="13" font-weight="bold" lengthAdjust="spacing" textLength="14" x="1123" y="1148.9229">28</text><text fill="#000000" font-family="sans-serif" font-size="13" lengthAdjust="spacing" textLength="57" x="1141" y="1148.9229">instance()</text><polygon fill="#181818" points="1127,1181.4766,1117,1185.4766,1127,1189.4766,1123,1185.4766" style="stroke:#181818;stroke-width:1.0;"/><line style="stroke:#181818;stroke-width:1.0;stroke-dasharray:2.0,2.0;" x1="1121" x2="1229" y1="1185.4766" y2="1185.4766"/><text fill="#000000" font-family="sans-serif" font-size="13" font-weight="bold" lengthAdjust="spacing" textLength="14" x="1133" y="1180.2139">29</text><text fill="#000000" font-family="sans-serif" font-size="13" lengthAdjust="spacing" textLength="56" x="1151" y="1180.2139">candidate</text><polygon fill="#181818" points="886,1212.7676,876,1216.7676,886,1220.7676,882,1216.7676" style="stroke:#181818;stroke-width:1.0;"/><line style="stroke:#181818;stroke-width:1.0;stroke-dasharray:2.0,2.0;" x1="880" x2="1105" y1="1216.7676" y2="1216.7676"/><text fill="#000000" font-family="sans-serif" font-size="13" font-weight="bold" lengthAdjust="spacing" textLength="14" x="892" y="1211.5049">30</text><text fill="#000000" font-family="sans-serif" font-size="13" lengthAdjust="spacing" textLength="56" x="910" y="1211.5049">candidate</text><line style="stroke:#181818;stroke-width:1.0;" x1="875" x2="917" y1="1248.0586" y2="1248.0586"/><line style="stroke:#181818;stroke-width:1.0;" x1="917" x2="917" y1="1248.0586" y2="1261.0586"/><line style="stroke:#181818;stroke-width:1.0;" x1="876" x2="917" y1="1261.0586" y2="1261.0586"/><polygon fill="#181818" points="886,1257.0586,876,1261.0586,886,1265.0586,882,1261.0586" style="stroke:#181818;stroke-width:1.0;"/><text fill="#000000" font-family="sans-serif" font-size="13" font-weight="bold" lengthAdjust="spacing" textLength="14" x="882" y="1242.7959">31</text><text fill="#000000" font-family="sans-serif" font-size="13" lengthAdjust="spacing" textLength="199" x="900" y="1242.7959">candidateDTO = toDTO(candidate)</text><polygon fill="#181818" points="1334,1288.3496,1344,1292.3496,1334,1296.3496,1338,1292.3496" style="stroke:#181818;stroke-width:1.0;"/><line style="stroke:#181818;stroke-width:1.0;" x1="875" x2="1340" y1="1292.3496" y2="1292.3496"/><text fill="#000000" font-family="sans-serif" font-size="13" font-weight="bold" lengthAdjust="spacing" textLength="14" x="882" y="1287.0869">32</text><text fill="#000000" font-family="sans-serif" font-size="13" lengthAdjust="spacing" textLength="57" x="900" y="1287.0869">instance()</text><polygon fill="#181818" points="1334,1319.6406,1344,1323.6406,1334,1327.6406,1338,1323.6406" style="stroke:#181818;stroke-width:1.0;"/><line style="stroke:#181818;stroke-width:1.0;" x1="875" x2="1340" y1="1323.6406" y2="1323.6406"/><text fill="#000000" font-family="sans-serif" font-size="13" font-weight="bold" lengthAdjust="spacing" textLength="14" x="882" y="1318.3779">33</text><text fill="#000000" font-family="sans-serif" font-size="13" lengthAdjust="spacing" textLength="43" x="900" y="1318.3779">findAll()</text><polygon fill="#181818" points="886,1350.9316,876,1354.9316,886,1358.9316,882,1354.9316" style="stroke:#181818;stroke-width:1.0;"/><line style="stroke:#181818;stroke-width:1.0;stroke-dasharray:2.0,2.0;" x1="880" x2="1345" y1="1354.9316" y2="1354.9316"/><text fill="#000000" font-family="sans-serif" font-size="13" font-weight="bold" lengthAdjust="spacing" textLength="14" x="892" y="1349.6689">34</text><text fill="#000000" font-family="sans-serif" font-size="13" lengthAdjust="spacing" textLength="84" x="910" y="1349.6689">allApplications</text><path d="M746,1369.9316 L819,1369.9316 L819,1379.2227 L809,1389.2227 L746,1389.2227 L746,1369.9316 " fill="#EEEEEE" style="stroke:#000000;stroke-width:1.5;"/><rect fill="none" height="219.4551" style="stroke:#000000;stroke-width:1.5;" width="1176.5" x="746" y="1369.9316"/><text fill="#000000" font-family="sans-serif" font-size="13" font-weight="bold" lengthAdjust="spacing" textLength="28" x="761" y="1384.96">loop</text><text fill="#000000" font-family="sans-serif" font-size="11" font-weight="bold" lengthAdjust="spacing" textLength="211" x="834" y="1383.8018">[for each application in allApplications]</text><polygon fill="#181818" points="1526.5,1408.5137,1536.5,1412.5137,1526.5,1416.5137,1530.5,1412.5137" style="stroke:#181818;stroke-width:1.0;"/><line style="stroke:#181818;stroke-width:1.0;" x1="875" x2="1532.5" y1="1412.5137" y2="1412.5137"/><text fill="#000000" font-family="sans-serif" font-size="13" font-weight="bold" lengthAdjust="spacing" textLength="14" x="882" y="1407.251">35</text><text fill="#000000" font-family="sans-serif" font-size="13" lengthAdjust="spacing" textLength="66" x="900" y="1407.251">app = get(i)</text><path d="M756,1457.5137 L817,1457.5137 L817,1466.8047 L807,1476.8047 L756,1476.8047 L756,1457.5137 " fill="#EEEEEE" style="stroke:#000000;stroke-width:1.5;"/><rect fill="none" height="124.873" style="stroke:#000000;stroke-width:1.5;" width="1156.5" x="756" y="1457.5137"/><text fill="#000000" font-family="sans-serif" font-size="13" font-weight="bold" lengthAdjust="spacing" textLength="16" x="771" y="1472.542">alt</text><text fill="#000000" font-family="sans-serif" font-size="11" font-weight="bold" lengthAdjust="spacing" textLength="175" x="832" y="1471.3838">[if app.email == candidate.email]</text><line style="stroke:#181818;stroke-width:1.0;" x1="875" x2="917" y1="1500.0957" y2="1500.0957"/><line style="stroke:#181818;stroke-width:1.0;" x1="917" x2="917" y1="1500.0957" y2="1513.0957"/><line style="stroke:#181818;stroke-width:1.0;" x1="876" x2="917" y1="1513.0957" y2="1513.0957"/><polygon fill="#181818" points="886,1509.0957,876,1513.0957,886,1517.0957,882,1513.0957" style="stroke:#181818;stroke-width:1.0;"/><text fill="#000000" font-family="sans-serif" font-size="13" font-weight="bold" lengthAdjust="spacing" textLength="14" x="882" y="1494.833">36</text><text fill="#000000" font-family="sans-serif" font-size="13" lengthAdjust="spacing" textLength="129" x="900" y="1494.833">appDTO = toDTO(app)</text><polygon fill="#181818" points="1766.5,1540.3867,1776.5,1544.3867,1766.5,1548.3867,1770.5,1544.3867" style="stroke:#181818;stroke-width:1.0;"/><line style="stroke:#181818;stroke-width:1.0;" x1="875" x2="1772.5" y1="1544.3867" y2="1544.3867"/><text fill="#000000" font-family="sans-serif" font-size="13" font-weight="bold" lengthAdjust="spacing" textLength="14" x="882" y="1539.124">37</text><text fill="#000000" font-family="sans-serif" font-size="13" lengthAdjust="spacing" textLength="76" x="900" y="1539.124">add(appDTO)</text><polygon fill="#181818" points="1900.5,1615.6777,1910.5,1619.6777,1900.5,1623.6777,1904.5,1619.6777" style="stroke:#181818;stroke-width:1.0;"/><line style="stroke:#181818;stroke-width:1.0;" x1="875" x2="1906.5" y1="1619.6777" y2="1619.6777"/><text fill="#000000" font-family="sans-serif" font-size="13" font-weight="bold" lengthAdjust="spacing" textLength="14" x="882" y="1614.415">38</text><text fill="#000000" font-family="sans-serif" font-size="13" lengthAdjust="spacing" textLength="44" x="900" y="1614.415">create()</text><rect fill="#E2E2F0" height="32.6211" rx="2.5" ry="2.5" style="stroke:#181818;stroke-width:0.5;" width="139" x="1912.5" y="1596.3867"/><text fill="#000000" font-family="sans-serif" font-size="14" lengthAdjust="spacing" textLength="125" x="1919.5" y="1618.4941">CandidateDataDTO</text><polygon fill="#181818" points="1965,1659.2988,1975,1663.2988,1965,1667.2988,1969,1663.2988" style="stroke:#181818;stroke-width:1.0;"/><line style="stroke:#181818;stroke-width:1.0;" x1="875" x2="1971" y1="1663.2988" y2="1663.2988"/><text fill="#000000" font-family="sans-serif" font-size="13" font-weight="bold" lengthAdjust="spacing" textLength="14" x="882" y="1658.0361">39</text><text fill="#000000" font-family="sans-serif" font-size="13" lengthAdjust="spacing" textLength="140" x="900" y="1658.0361">setCandidate(candidate)</text><polygon fill="#181818" points="1965,1690.5898,1975,1694.5898,1965,1698.5898,1969,1694.5898" style="stroke:#181818;stroke-width:1.0;"/><line style="stroke:#181818;stroke-width:1.0;" x1="875" x2="1971" y1="1694.5898" y2="1694.5898"/><text fill="#000000" font-family="sans-serif" font-size="13" font-weight="bold" lengthAdjust="spacing" textLength="14" x="882" y="1689.3271">40</text><text fill="#000000" font-family="sans-serif" font-size="13" lengthAdjust="spacing" textLength="207" x="900" y="1689.3271">setAllApplications(applicationsDTO)</text><polygon fill="#181818" points="675.5,1721.8809,665.5,1725.8809,675.5,1729.8809,671.5,1725.8809" style="stroke:#181818;stroke-width:1.0;"/><line style="stroke:#181818;stroke-width:1.0;stroke-dasharray:2.0,2.0;" x1="669.5" x2="869" y1="1725.8809" y2="1725.8809"/><text fill="#000000" font-family="sans-serif" font-size="13" font-weight="bold" lengthAdjust="spacing" textLength="14" x="681.5" y="1720.6182">41</text><text fill="#000000" font-family="sans-serif" font-size="13" lengthAdjust="spacing" textLength="109" x="699.5" y="1720.6182">candidateDataDTO</text><polygon fill="#181818" points="482.5,1753.1719,472.5,1757.1719,482.5,1761.1719,478.5,1757.1719" style="stroke:#181818;stroke-width:1.0;"/><line style="stroke:#181818;stroke-width:1.0;stroke-dasharray:2.0,2.0;" x1="476.5" x2="653.5" y1="1757.1719" y2="1757.1719"/><text fill="#000000" font-family="sans-serif" font-size="13" font-weight="bold" lengthAdjust="spacing" textLength="14" x="488.5" y="1751.9092">42</text><text fill="#000000" font-family="sans-serif" font-size="13" lengthAdjust="spacing" textLength="109" x="506.5" y="1751.9092">candidateDataDTO</text><line style="stroke:#181818;stroke-width:1.0;" x1="471.5" x2="513.5" y1="1788.4629" y2="1788.4629"/><line style="stroke:#181818;stroke-width:1.0;" x1="513.5" x2="513.5" y1="1788.4629" y2="1801.4629"/><line style="stroke:#181818;stroke-width:1.0;" x1="472.5" x2="513.5" y1="1801.4629" y2="1801.4629"/><polygon fill="#181818" points="482.5,1797.4629,472.5,1801.4629,482.5,1805.4629,478.5,1801.4629" style="stroke:#181818;stroke-width:1.0;"/><text fill="#000000" font-family="sans-serif" font-size="13" font-weight="bold" lengthAdjust="spacing" textLength="14" x="478.5" y="1783.2002">43</text><text fill="#000000" font-family="sans-serif" font-size="13" lengthAdjust="spacing" textLength="54" x="496.5" y="1783.2002">doShow()</text><polygon fill="#181818" points="107.5,1828.7539,97.5,1832.7539,107.5,1836.7539,103.5,1832.7539" style="stroke:#181818;stroke-width:1.0;"/><line style="stroke:#181818;stroke-width:1.0;stroke-dasharray:2.0,2.0;" x1="101.5" x2="460.5" y1="1832.7539" y2="1832.7539"/><text fill="#000000" font-family="sans-serif" font-size="13" font-weight="bold" lengthAdjust="spacing" textLength="14" x="113.5" y="1827.4912">44</text><text fill="#000000" font-family="sans-serif" font-size="13" lengthAdjust="spacing" textLength="137" x="131.5" y="1827.4912">Shows candidate's data</text><polygon fill="#181818" points="107.5,1867.0449,97.5,1871.0449,107.5,1875.0449,103.5,1871.0449" style="stroke:#181818;stroke-width:1.0;"/><line style="stroke:#181818;stroke-width:1.0;stroke-dasharray:2.0,2.0;" x1="101.5" x2="460.5" y1="1871.0449" y2="1871.0449"/><text fill="#000000" font-family="sans-serif" font-size="13" font-weight="bold" lengthAdjust="spacing" textLength="14" x="113.5" y="1865.7822">45</text><text fill="#000000" font-family="sans-serif" font-size="13" lengthAdjust="spacing" textLength="323" x="131.5" y="1865.7822">Asks the user if it wants to search for another candidate</text><path d="M20,1886.0449 L81,1886.0449 L81,1895.3359 L71,1905.3359 L20,1905.3359 L20,1886.0449 " fill="#EEEEEE" style="stroke:#000000;stroke-width:1.5;"/><rect fill="none" height="50.582" style="stroke:#000000;stroke-width:1.5;" width="528" x="20" y="1886.0449"/><text fill="#000000" font-family="sans-serif" font-size="13" font-weight="bold" lengthAdjust="spacing" textLength="16" x="35" y="1901.0732">alt</text><text fill="#000000" font-family="sans-serif" font-size="11" font-weight="bold" lengthAdjust="spacing" textLength="158" x="96" y="1899.915">[User wants to search again]</text><polygon fill="#181818" points="449.5,1924.627,459.5,1928.627,449.5,1932.627,453.5,1928.627" style="stroke:#181818;stroke-width:1.0;"/><line style="stroke:#181818;stroke-width:1.0;" x1="96.5" x2="455.5" y1="1928.627" y2="1928.627"/><text fill="#000000" font-family="sans-serif" font-size="13" font-weight="bold" lengthAdjust="spacing" textLength="14" x="103.5" y="1923.3643">46</text><text fill="#000000" font-family="sans-serif" font-size="13" lengthAdjust="spacing" textLength="111" x="121.5" y="1923.3643">Writes "y" or "Yes"</text><polygon fill="#181818" points="449.5,1969.918,459.5,1973.918,449.5,1977.918,453.5,1973.918" style="stroke:#181818;stroke-width:1.0;"/><line style="stroke:#181818;stroke-width:1.0;" x1="96.5" x2="455.5" y1="1973.918" y2="1973.918"/><text fill="#000000" font-family="sans-serif" font-size="13" font-weight="bold" lengthAdjust="spacing" textLength="14" x="103.5" y="1968.6553">47</text><text fill="#000000" font-family="sans-serif" font-size="13" lengthAdjust="spacing" textLength="104" x="121.5" y="1968.6553">Writes "n" or "No"</text><polygon fill="#181818" points="107.5,2001.209,97.5,2005.209,107.5,2009.209,103.5,2005.209" style="stroke:#181818;stroke-width:1.0;"/><line style="stroke:#181818;stroke-width:1.0;stroke-dasharray:2.0,2.0;" x1="101.5" x2="460.5" y1="2005.209" y2="2005.209"/><text fill="#000000" font-family="sans-serif" font-size="13" font-weight="bold" lengthAdjust="spacing" textLength="14" x="113.5" y="1999.9463">48</text><text fill="#000000" font-family="sans-serif" font-size="13" lengthAdjust="spacing" textLength="203" x="131.5" y="1999.9463">Sends user back to the main menu</text><!--SRC=[jLV1RkCu3BtdAuXScWpGwJsO5l2cFHXePegcdSK2Ur5j9H4gIrv9Rj6_Nr9ERDbH77TdrfV45jyZHJrHrCNEkT8khgvAoPIh2larqyMLvVzKN6NyCXTiQrWncR3AQLKLBznCxAjG9SElS31RSMlPbYTIR1L8ld6J2U2JP4uRc2uhwtJ1pOefD39JO1QMAs_nm8mJcIZHDKo_VNimt7Bbc1DQtTpyhUw5TKkcSf4pns-POy-fHp-dCNHIbb9afy5BhPpHKXv2U7gyZz6aQcEOTQRAN6LubEdswSUQcpUHSS-qldlycIxlF1aDlp3BuqmDooCljHMOdeywbiUxXn-nO6vrmOJgG6l026T1FdhkahWxccUOHNi3JChmGus-JzTFez3X6-QiHUFBCK4_nTwSB0zY4cyuU91EyuvYy1-MAxYymRS59FRLWjCWCI9mEmv2RRGfV1oWDy0WExYgeLBhilv7ptDAH2IF1MI6ezLitewsSP1-eY0PwiM6O1htThG02upBEeRx9yxl5wc5qYjSDauEs9Fa6w7oHCgE-nx7tgHFKQUnFpVAhDtfzv2GHeXjjO3IwA9q5YhB3IK_sscDoWno3JEEOfQqgYB7RIusWfk0Z4a7gNfZKkImjynph0YsDUckSwhA2ZqoXSau2pkvGAIsEh9vpz4-d_ljFHRMBE2XB7H6zn_FY21kISlrnqUQHzsIXi5mtFpAWgga12kG5OI3N7EhBXpW3iXs7L0WYiQBvSnaEsuxXbpblUGqKchIGqvFJA79_B7DBMU32Gib6O6tsiprkgVEdaA_Qoyvwqk2bwbm5xRH3YuiIhEk7Cvy0DjYvMt9k4Gr__oyEE5_KEPlKEbunVutzVw2aa-gcjQjhIRlEwv8tLxL-rNrT2V9HgjzKFbnjd6PQ8lx06Sjs3gyta4LUu8Dj3mRQIYK4Tp1oXt3y6Y6Qzmj-3jhFewJGJ9UF4tAakvvU9uzSW0UaHzdfTVnd94czXM0-Ty1Qp4uhV4i_T2fEreG6wPsozrCp8UnT6YA3G6-rYNc-hfTeVhJC46RNz_M3Te6KXjX7HCFnXdA1b_ddyiDeHTKHsSrrVmpiskQoR4JF0iOh0w3Wy74qCkNBx5USnX3nQkjzAEsO9EEmOb5t2HTFSzOjxCV4tFRK_Vw_56bxUpHDB8CXjt4-43ETHadEWuojQqRR3RmXvrkh09eVOTf6fKDdNJlU4toxKbzQFdYmvH6AnChvbGQdWdTn_KwcsxVygSHU6c1ATuKwVB-5xVJe0awHDi9-nYiQl1tFOrERetm_KtXXMMllkF2gT9L5mgkgic_]--></g></svg>