<?xml version="1.0" encoding="UTF-8" standalone="no"?><svg xmlns="http://www.w3.org/2000/svg" xmlns:xlink="http://www.w3.org/1999/xlink" contentStyleType="text/css" height="1742px" preserveAspectRatio="none" style="width:3027px;height:1742px;background:#FFFFFF;" version="1.1" viewBox="0 0 3027 1742" width="3027px" zoomAndPan="magnify"><defs/><g><text fill="#000000" font-family="sans-serif" font-size="14" font-weight="bold" lengthAdjust="spacing" textLength="163" x="1425.25" y="24.5332">US1020 - Class Diagram</text><!--class AbstractUI--><g id="elem_AbstractUI"><rect codeLine="7" fill="#F1F1F1" height="126.625" id="AbstractUI" rx="2.5" ry="2.5" style="stroke:#181818;stroke-width:0.5;" width="126" x="919" y="45.6094"/><ellipse cx="935.45" cy="63.1875" fill="#A9DCDF" rx="12" ry="12" style="stroke:#181818;stroke-width:1.0;"/><path d="M937.9031,65.2188 L933.0281,65.2188 L932.5438,66.4375 L933.0281,66.4375 Q933.7625,66.4375 934.0594,66.7188 Q934.3719,66.9844 934.3719,67.4375 Q934.3719,67.875 934.0594,68.1563 Q933.7625,68.4375 933.0281,68.4375 L930.3406,68.4375 Q929.6219,68.4375 929.3094,68.1563 Q928.9969,67.875 928.9969,67.4375 Q928.9969,66.9844 929.325,66.7031 Q929.6531,66.4219 930.3875,66.4375 L933.5281,58.6094 L932.2313,58.6094 Q931.4969,58.6094 931.1844,58.3281 Q930.8875,58.0469 930.8875,57.5938 Q930.8875,57.1406 931.1844,56.875 Q931.4969,56.5938 932.2313,56.5938 L936.5438,56.5938 L940.5281,66.4375 Q941.2313,66.4375 941.4656,66.5938 Q941.9188,66.9063 941.9188,67.4375 Q941.9188,67.875 941.6063,68.1563 Q941.3094,68.4375 940.5906,68.4375 L937.8875,68.4375 Q937.1688,68.4375 936.8563,68.1563 Q936.5438,67.875 936.5438,67.4375 Q936.5438,66.9844 936.8563,66.7188 Q937.1688,66.4375 937.8875,66.4375 L938.3719,66.4375 L937.9031,65.2188 Z M937.075,63.2188 L935.45,59.25 L933.8406,63.2188 L937.075,63.2188 Z " fill="#000000"/><text fill="#000000" font-family="sans-serif" font-size="20" font-style="italic" lengthAdjust="spacing" textLength="91" x="950.55" y="71.3711">AbstractUI</text><line style="stroke:#181818;stroke-width:0.5;" x1="920" x2="1044" y1="80.7656" y2="80.7656"/><line style="stroke:#181818;stroke-width:0.5;" x1="920" x2="1044" y1="88.7656" y2="88.7656"/><polygon fill="#FFFF44" points="930,101.8438,934,105.8438,930,109.8438,926,105.8438" style="stroke:#B38D22;stroke-width:1.0;"/><text fill="#000000" font-family="sans-serif" font-size="20" lengthAdjust="spacing" textLength="85" x="940" y="113.5273">doShow()</text><polygon fill="#FFFF44" points="930,127,934,131,930,135,926,131" style="stroke:#B38D22;stroke-width:1.0;"/><text fill="#000000" font-family="sans-serif" font-size="20" lengthAdjust="spacing" textLength="60" x="940" y="138.6836">show()</text><polygon fill="#FFFF44" points="930,152.1563,934,156.1563,930,160.1563,926,156.1563" style="stroke:#B38D22;stroke-width:1.0;"/><text fill="#000000" font-family="sans-serif" font-size="20" lengthAdjust="spacing" textLength="99" x="940" y="163.8398">mainLoop()</text></g><!--class PublishingResultJobOpeningUI--><g id="elem_PublishingResultJobOpeningUI"><rect codeLine="13" fill="#F1F1F1" height="76.3125" id="PublishingResultJobOpeningUI" rx="2.5" ry="2.5" style="stroke:#181818;stroke-width:0.5;" width="300" x="832" y="232.6094"/><ellipse cx="848" cy="250.1875" fill="#ADD1B2" rx="12" ry="12" style="stroke:#181818;stroke-width:1.0;"/><path d="M850.1406,245.1094 Q850.3281,244.8594 850.5469,244.7344 Q850.7656,244.5938 851.0156,244.5938 Q851.4531,244.5938 851.7344,244.9063 Q852.0156,245.2031 852.0156,245.9219 L852.0156,247.625 Q852.0156,248.3438 851.7344,248.6563 Q851.4531,248.9688 851.0156,248.9688 Q850.625,248.9688 850.375,248.7344 Q850.125,248.5156 850.0156,247.9063 Q849.9531,247.4844 849.7344,247.2656 Q849.3438,246.8281 848.625,246.5625 Q847.9063,246.2969 847.1875,246.2969 Q846.2813,246.2969 845.5313,246.6875 Q844.7813,247.0781 844.2031,247.9688 Q843.625,248.8438 843.625,250.0469 L843.625,251.3438 Q843.625,252.7969 844.6719,253.7656 Q845.7344,254.7344 847.5938,254.7344 Q848.7031,254.7344 849.4844,254.4219 Q849.9219,254.25 850.4375,253.7344 Q850.75,253.4219 850.9219,253.3281 Q851.0938,253.2344 851.3281,253.2344 Q851.7188,253.2344 852.0156,253.5469 Q852.3281,253.8438 852.3281,254.25 Q852.3281,254.6563 851.9219,255.125 Q851.3281,255.8125 850.3906,256.2031 Q849.125,256.7344 847.6094,256.7344 Q845.8281,256.7344 844.4063,256 Q843.25,255.4063 842.4375,254.1406 Q841.625,252.875 841.625,251.3906 L841.625,250.0313 Q841.625,248.4688 842.3438,247.125 Q843.0781,245.7656 844.3594,245.0313 Q845.6563,244.2969 847.1094,244.2969 Q847.9688,244.2969 848.7188,244.5 Q849.4844,244.7031 850.1406,245.1094 Z " fill="#000000"/><text fill="#000000" font-family="sans-serif" font-size="20" lengthAdjust="spacing" textLength="266" x="863" y="258.3711">PublishingResultJobOpeningUI</text><line style="stroke:#181818;stroke-width:0.5;" x1="833" x2="1131" y1="267.7656" y2="267.7656"/><line style="stroke:#181818;stroke-width:0.5;" x1="833" x2="1131" y1="275.7656" y2="275.7656"/><ellipse cx="843" cy="293.8438" fill="#84BE84" rx="3" ry="3" style="stroke:#038048;stroke-width:1.0;"/><text fill="#000000" font-family="sans-serif" font-size="20" lengthAdjust="spacing" textLength="85" x="853" y="300.5273">doShow()</text></g><!--class PublishingResultJobOpeningController--><g id="elem_PublishingResultJobOpeningController"><rect codeLine="17" fill="#F1F1F1" height="176.9375" id="PublishingResultJobOpeningController" rx="2.5" ry="2.5" style="stroke:#181818;stroke-width:0.5;" width="964" x="500" y="504.6094"/><ellipse cx="811.5" cy="522.1875" fill="#ADD1B2" rx="12" ry="12" style="stroke:#181818;stroke-width:1.0;"/><path d="M813.6406,517.1094 Q813.8281,516.8594 814.0469,516.7344 Q814.2656,516.5938 814.5156,516.5938 Q814.9531,516.5938 815.2344,516.9063 Q815.5156,517.2031 815.5156,517.9219 L815.5156,519.625 Q815.5156,520.3438 815.2344,520.6563 Q814.9531,520.9688 814.5156,520.9688 Q814.125,520.9688 813.875,520.7344 Q813.625,520.5156 813.5156,519.9063 Q813.4531,519.4844 813.2344,519.2656 Q812.8438,518.8281 812.125,518.5625 Q811.4063,518.2969 810.6875,518.2969 Q809.7813,518.2969 809.0313,518.6875 Q808.2813,519.0781 807.7031,519.9688 Q807.125,520.8438 807.125,522.0469 L807.125,523.3438 Q807.125,524.7969 808.1719,525.7656 Q809.2344,526.7344 811.0938,526.7344 Q812.2031,526.7344 812.9844,526.4219 Q813.4219,526.25 813.9375,525.7344 Q814.25,525.4219 814.4219,525.3281 Q814.5938,525.2344 814.8281,525.2344 Q815.2188,525.2344 815.5156,525.5469 Q815.8281,525.8438 815.8281,526.25 Q815.8281,526.6563 815.4219,527.125 Q814.8281,527.8125 813.8906,528.2031 Q812.625,528.7344 811.1094,528.7344 Q809.3281,528.7344 807.9063,528 Q806.75,527.4063 805.9375,526.1406 Q805.125,524.875 805.125,523.3906 L805.125,522.0313 Q805.125,520.4688 805.8438,519.125 Q806.5781,517.7656 807.8594,517.0313 Q809.1563,516.2969 810.6094,516.2969 Q811.4688,516.2969 812.2188,516.5 Q812.9844,516.7031 813.6406,517.1094 Z " fill="#000000"/><text fill="#000000" font-family="sans-serif" font-size="20" lengthAdjust="spacing" textLength="332" x="833.5" y="530.3711">PublishingResultJobOpeningController</text><line style="stroke:#181818;stroke-width:0.5;" x1="501" x2="1463" y1="539.7656" y2="539.7656"/><line style="stroke:#181818;stroke-width:0.5;" x1="501" x2="1463" y1="547.7656" y2="547.7656"/><ellipse cx="511" cy="565.8438" fill="#84BE84" rx="3" ry="3" style="stroke:#038048;stroke-width:1.0;"/><text fill="#000000" font-family="sans-serif" font-size="20" lengthAdjust="spacing" textLength="357" x="521" y="572.5273">getJobOpeningList() : jobOpeningListDto</text><ellipse cx="511" cy="591" fill="#84BE84" rx="3" ry="3" style="stroke:#038048;stroke-width:1.0;"/><text fill="#000000" font-family="sans-serif" font-size="20" lengthAdjust="spacing" textLength="394" x="521" y="597.6836">publishResultForJobOpening(jobOpeningDto)</text><rect fill="#F24D5C" height="6" style="stroke:#C82930;stroke-width:1.0;" width="6" x="508" y="613.1563"/><text fill="#000000" font-family="sans-serif" font-size="20" lengthAdjust="spacing" textLength="723" x="521" y="622.8398">sendEmail(customerManagerEmail, candidateEmail, jobReference, userPassword)</text><rect fill="#F24D5C" height="6" style="stroke:#C82930;stroke-width:1.0;" width="6" x="508" y="638.3125"/><text fill="#000000" font-family="sans-serif" font-size="20" lengthAdjust="spacing" textLength="937" x="521" y="647.9961">sendEmail(customerManagerEmail, customerEmail, acceptedCandidadeList, jobReference, userPassword)</text><rect fill="#F24D5C" height="6" style="stroke:#C82930;stroke-width:1.0;" width="6" x="508" y="663.4688"/><text fill="#000000" font-family="sans-serif" font-size="20" lengthAdjust="spacing" textLength="488" x="521" y="673.1523">publishResults(jobOpeningDto, customerManagerEmail)</text></g><!--class ApplicationRepository--><g id="elem_ApplicationRepository"><rect codeLine="26" fill="#F1F1F1" height="76.3125" id="ApplicationRepository" rx="2.5" ry="2.5" style="stroke:#181818;stroke-width:0.5;" width="227" x="1173.5" y="1090.1094"/><ellipse cx="1189.5" cy="1107.6875" fill="#B4A7E5" rx="12" ry="12" style="stroke:#181818;stroke-width:1.0;"/><path d="M1190.5,1103.8594 L1190.5,1111.6875 L1192.5313,1111.6875 Q1193.25,1111.6875 1193.5469,1111.9688 Q1193.8594,1112.2344 1193.8594,1112.6875 Q1193.8594,1113.125 1193.5469,1113.4063 Q1193.25,1113.6875 1192.5313,1113.6875 L1186.4844,1113.6875 Q1185.75,1113.6875 1185.4375,1113.4063 Q1185.1406,1113.125 1185.1406,1112.6875 Q1185.1406,1112.2344 1185.4375,1111.9688 Q1185.75,1111.6875 1186.4844,1111.6875 L1188.5,1111.6875 L1188.5,1103.8594 L1186.4844,1103.8594 Q1185.75,1103.8594 1185.4375,1103.5781 Q1185.1406,1103.2969 1185.1406,1102.8438 Q1185.1406,1102.3906 1185.4375,1102.125 Q1185.75,1101.8438 1186.4844,1101.8438 L1192.5313,1101.8438 Q1193.25,1101.8438 1193.5469,1102.125 Q1193.8594,1102.3906 1193.8594,1102.8438 Q1193.8594,1103.2969 1193.5469,1103.5781 Q1193.25,1103.8594 1192.5313,1103.8594 L1190.5,1103.8594 Z " fill="#000000"/><text fill="#000000" font-family="sans-serif" font-size="20" font-style="italic" lengthAdjust="spacing" textLength="193" x="1204.5" y="1115.8711">ApplicationRepository</text><line style="stroke:#181818;stroke-width:0.5;" x1="1174.5" x2="1399.5" y1="1125.2656" y2="1125.2656"/><line style="stroke:#181818;stroke-width:0.5;" x1="1174.5" x2="1399.5" y1="1133.2656" y2="1133.2656"/><ellipse cx="1184.5" cy="1151.3438" fill="#84BE84" rx="3" ry="3" style="stroke:#038048;stroke-width:1.0;"/><text fill="#000000" font-family="sans-serif" font-size="20" lengthAdjust="spacing" textLength="148" x="1194.5" y="1158.0273">save(application)</text></g><!--class Application--><g id="elem_Application"><rect codeLine="30" fill="#F1F1F1" height="101.4688" id="Application" rx="2.5" ry="2.5" style="stroke:#181818;stroke-width:0.5;" width="195" x="1292.5" y="1387.6094"/><ellipse cx="1338.2" cy="1405.1875" fill="#ADD1B2" rx="12" ry="12" style="stroke:#181818;stroke-width:1.0;"/><path d="M1340.3406,1400.1094 Q1340.5281,1399.8594 1340.7469,1399.7344 Q1340.9656,1399.5938 1341.2156,1399.5938 Q1341.6531,1399.5938 1341.9344,1399.9063 Q1342.2156,1400.2031 1342.2156,1400.9219 L1342.2156,1402.625 Q1342.2156,1403.3438 1341.9344,1403.6563 Q1341.6531,1403.9688 1341.2156,1403.9688 Q1340.825,1403.9688 1340.575,1403.7344 Q1340.325,1403.5156 1340.2156,1402.9063 Q1340.1531,1402.4844 1339.9344,1402.2656 Q1339.5438,1401.8281 1338.825,1401.5625 Q1338.1063,1401.2969 1337.3875,1401.2969 Q1336.4813,1401.2969 1335.7313,1401.6875 Q1334.9813,1402.0781 1334.4031,1402.9688 Q1333.825,1403.8438 1333.825,1405.0469 L1333.825,1406.3438 Q1333.825,1407.7969 1334.8719,1408.7656 Q1335.9344,1409.7344 1337.7938,1409.7344 Q1338.9031,1409.7344 1339.6844,1409.4219 Q1340.1219,1409.25 1340.6375,1408.7344 Q1340.95,1408.4219 1341.1219,1408.3281 Q1341.2938,1408.2344 1341.5281,1408.2344 Q1341.9188,1408.2344 1342.2156,1408.5469 Q1342.5281,1408.8438 1342.5281,1409.25 Q1342.5281,1409.6563 1342.1219,1410.125 Q1341.5281,1410.8125 1340.5906,1411.2031 Q1339.325,1411.7344 1337.8094,1411.7344 Q1336.0281,1411.7344 1334.6063,1411 Q1333.45,1410.4063 1332.6375,1409.1406 Q1331.825,1407.875 1331.825,1406.3906 L1331.825,1405.0313 Q1331.825,1403.4688 1332.5438,1402.125 Q1333.2781,1400.7656 1334.5594,1400.0313 Q1335.8563,1399.2969 1337.3094,1399.2969 Q1338.1688,1399.2969 1338.9188,1399.5 Q1339.6844,1399.7031 1340.3406,1400.1094 Z " fill="#000000"/><text fill="#000000" font-family="sans-serif" font-size="20" lengthAdjust="spacing" textLength="95" x="1359.8" y="1413.3711">Application</text><line style="stroke:#181818;stroke-width:0.5;" x1="1293.5" x2="1486.5" y1="1422.7656" y2="1422.7656"/><line style="stroke:#181818;stroke-width:0.5;" x1="1293.5" x2="1486.5" y1="1430.7656" y2="1430.7656"/><ellipse cx="1303.5" cy="1448.8438" fill="#84BE84" rx="3" ry="3" style="stroke:#038048;stroke-width:1.0;"/><text fill="#000000" font-family="sans-serif" font-size="20" lengthAdjust="spacing" textLength="168" x="1313.5" y="1455.5273">acceptApplication()</text><ellipse cx="1303.5" cy="1474" fill="#84BE84" rx="3" ry="3" style="stroke:#038048;stroke-width:1.0;"/><text fill="#000000" font-family="sans-serif" font-size="20" lengthAdjust="spacing" textLength="158" x="1313.5" y="1480.6836">rejectApplication()</text></g><!--class RankRepository--><g id="elem_RankRepository"><rect codeLine="35" fill="#F1F1F1" height="76.3125" id="RankRepository" rx="2.5" ry="2.5" style="stroke:#181818;stroke-width:0.5;" width="386" x="1612" y="903.1094"/><ellipse cx="1730" cy="920.6875" fill="#B4A7E5" rx="12" ry="12" style="stroke:#181818;stroke-width:1.0;"/><path d="M1731,916.8594 L1731,924.6875 L1733.0313,924.6875 Q1733.75,924.6875 1734.0469,924.9688 Q1734.3594,925.2344 1734.3594,925.6875 Q1734.3594,926.125 1734.0469,926.4063 Q1733.75,926.6875 1733.0313,926.6875 L1726.9844,926.6875 Q1726.25,926.6875 1725.9375,926.4063 Q1725.6406,926.125 1725.6406,925.6875 Q1725.6406,925.2344 1725.9375,924.9688 Q1726.25,924.6875 1726.9844,924.6875 L1729,924.6875 L1729,916.8594 L1726.9844,916.8594 Q1726.25,916.8594 1725.9375,916.5781 Q1725.6406,916.2969 1725.6406,915.8438 Q1725.6406,915.3906 1725.9375,915.125 Q1726.25,914.8438 1726.9844,914.8438 L1733.0313,914.8438 Q1733.75,914.8438 1734.0469,915.125 Q1734.3594,915.3906 1734.3594,915.8438 Q1734.3594,916.2969 1734.0469,916.5781 Q1733.75,916.8594 1733.0313,916.8594 L1731,916.8594 Z " fill="#000000"/><text fill="#000000" font-family="sans-serif" font-size="20" font-style="italic" lengthAdjust="spacing" textLength="141" x="1752" y="928.8711">RankRepository</text><line style="stroke:#181818;stroke-width:0.5;" x1="1613" x2="1997" y1="938.2656" y2="938.2656"/><line style="stroke:#181818;stroke-width:0.5;" x1="1613" x2="1997" y1="946.2656" y2="946.2656"/><ellipse cx="1623" cy="964.3438" fill="#84BE84" rx="3" ry="3" style="stroke:#038048;stroke-width:1.0;"/><text fill="#000000" font-family="sans-serif" font-size="20" lengthAdjust="spacing" textLength="359" x="1633" y="971.0273">rankOfJobOpening(jobReference) : Rank</text></g><!--class Rank--><g id="elem_Rank"><rect codeLine="39" fill="#F1F1F1" height="76.3125" id="Rank" rx="2.5" ry="2.5" style="stroke:#181818;stroke-width:0.5;" width="352" x="1225" y="903.1094"/><ellipse cx="1374" cy="920.6875" fill="#ADD1B2" rx="12" ry="12" style="stroke:#181818;stroke-width:1.0;"/><path d="M1376.1406,915.6094 Q1376.3281,915.3594 1376.5469,915.2344 Q1376.7656,915.0938 1377.0156,915.0938 Q1377.4531,915.0938 1377.7344,915.4063 Q1378.0156,915.7031 1378.0156,916.4219 L1378.0156,918.125 Q1378.0156,918.8438 1377.7344,919.1563 Q1377.4531,919.4688 1377.0156,919.4688 Q1376.625,919.4688 1376.375,919.2344 Q1376.125,919.0156 1376.0156,918.4063 Q1375.9531,917.9844 1375.7344,917.7656 Q1375.3438,917.3281 1374.625,917.0625 Q1373.9063,916.7969 1373.1875,916.7969 Q1372.2813,916.7969 1371.5313,917.1875 Q1370.7813,917.5781 1370.2031,918.4688 Q1369.625,919.3438 1369.625,920.5469 L1369.625,921.8438 Q1369.625,923.2969 1370.6719,924.2656 Q1371.7344,925.2344 1373.5938,925.2344 Q1374.7031,925.2344 1375.4844,924.9219 Q1375.9219,924.75 1376.4375,924.2344 Q1376.75,923.9219 1376.9219,923.8281 Q1377.0938,923.7344 1377.3281,923.7344 Q1377.7188,923.7344 1378.0156,924.0469 Q1378.3281,924.3438 1378.3281,924.75 Q1378.3281,925.1563 1377.9219,925.625 Q1377.3281,926.3125 1376.3906,926.7031 Q1375.125,927.2344 1373.6094,927.2344 Q1371.8281,927.2344 1370.4063,926.5 Q1369.25,925.9063 1368.4375,924.6406 Q1367.625,923.375 1367.625,921.8906 L1367.625,920.5313 Q1367.625,918.9688 1368.3438,917.625 Q1369.0781,916.2656 1370.3594,915.5313 Q1371.6563,914.7969 1373.1094,914.7969 Q1373.9688,914.7969 1374.7188,915 Q1375.4844,915.2031 1376.1406,915.6094 Z " fill="#000000"/><text fill="#000000" font-family="sans-serif" font-size="20" lengthAdjust="spacing" textLength="45" x="1396" y="928.8711">Rank</text><line style="stroke:#181818;stroke-width:0.5;" x1="1226" x2="1576" y1="938.2656" y2="938.2656"/><rect fill="none" height="6" style="stroke:#C82930;stroke-width:1.0;" width="6" x="1233" y="953.3438"/><text fill="#000000" font-family="sans-serif" font-size="20" lengthAdjust="spacing" textLength="325" x="1246" y="963.0273">JobReference jobOpeningAssociated</text><line style="stroke:#181818;stroke-width:0.5;" x1="1226" x2="1576" y1="971.4219" y2="971.4219"/></g><!--class AuthorizationService--><g id="elem_AuthorizationService"><rect codeLine="43" fill="#F1F1F1" height="76.3125" id="AuthorizationService" rx="2.5" ry="2.5" style="stroke:#181818;stroke-width:0.5;" width="392" x="7" y="741.6094"/><ellipse cx="110" cy="759.1875" fill="#ADD1B2" rx="12" ry="12" style="stroke:#181818;stroke-width:1.0;"/><path d="M112.1406,754.1094 Q112.3281,753.8594 112.5469,753.7344 Q112.7656,753.5938 113.0156,753.5938 Q113.4531,753.5938 113.7344,753.9063 Q114.0156,754.2031 114.0156,754.9219 L114.0156,756.625 Q114.0156,757.3438 113.7344,757.6563 Q113.4531,757.9688 113.0156,757.9688 Q112.625,757.9688 112.375,757.7344 Q112.125,757.5156 112.0156,756.9063 Q111.9531,756.4844 111.7344,756.2656 Q111.3438,755.8281 110.625,755.5625 Q109.9063,755.2969 109.1875,755.2969 Q108.2813,755.2969 107.5313,755.6875 Q106.7813,756.0781 106.2031,756.9688 Q105.625,757.8438 105.625,759.0469 L105.625,760.3438 Q105.625,761.7969 106.6719,762.7656 Q107.7344,763.7344 109.5938,763.7344 Q110.7031,763.7344 111.4844,763.4219 Q111.9219,763.25 112.4375,762.7344 Q112.75,762.4219 112.9219,762.3281 Q113.0938,762.2344 113.3281,762.2344 Q113.7188,762.2344 114.0156,762.5469 Q114.3281,762.8438 114.3281,763.25 Q114.3281,763.6563 113.9219,764.125 Q113.3281,764.8125 112.3906,765.2031 Q111.125,765.7344 109.6094,765.7344 Q107.8281,765.7344 106.4063,765 Q105.25,764.4063 104.4375,763.1406 Q103.625,761.875 103.625,760.3906 L103.625,759.0313 Q103.625,757.4688 104.3438,756.125 Q105.0781,754.7656 106.3594,754.0313 Q107.6563,753.2969 109.1094,753.2969 Q109.9688,753.2969 110.7188,753.5 Q111.4844,753.7031 112.1406,754.1094 Z " fill="#000000"/><text fill="#000000" font-family="sans-serif" font-size="20" lengthAdjust="spacing" textLength="177" x="132" y="767.3711">AuthorizationService</text><line style="stroke:#181818;stroke-width:0.5;" x1="8" x2="398" y1="776.7656" y2="776.7656"/><line style="stroke:#181818;stroke-width:0.5;" x1="8" x2="398" y1="784.7656" y2="784.7656"/><ellipse cx="18" cy="802.8438" fill="#84BE84" rx="3" ry="3" style="stroke:#038048;stroke-width:1.0;"/><text fill="#000000" font-family="sans-serif" font-size="20" lengthAdjust="spacing" textLength="365" x="28" y="809.5273">ensureAuthenticatedUserHasAnyOf(roles)</text></g><!--class DomainRepository--><g id="elem_DomainRepository"><rect codeLine="48" fill="#F1F1F1" height="101.4688" id="DomainRepository" rx="2.5" ry="2.5" style="stroke:#181818;stroke-width:0.5;" width="198" x="1706" y="1387.6094"/><ellipse cx="1722" cy="1405.1875" fill="#B4A7E5" rx="12" ry="12" style="stroke:#181818;stroke-width:1.0;"/><path d="M1723,1401.3594 L1723,1409.1875 L1725.0313,1409.1875 Q1725.75,1409.1875 1726.0469,1409.4688 Q1726.3594,1409.7344 1726.3594,1410.1875 Q1726.3594,1410.625 1726.0469,1410.9063 Q1725.75,1411.1875 1725.0313,1411.1875 L1718.9844,1411.1875 Q1718.25,1411.1875 1717.9375,1410.9063 Q1717.6406,1410.625 1717.6406,1410.1875 Q1717.6406,1409.7344 1717.9375,1409.4688 Q1718.25,1409.1875 1718.9844,1409.1875 L1721,1409.1875 L1721,1401.3594 L1718.9844,1401.3594 Q1718.25,1401.3594 1717.9375,1401.0781 Q1717.6406,1400.7969 1717.6406,1400.3438 Q1717.6406,1399.8906 1717.9375,1399.625 Q1718.25,1399.3438 1718.9844,1399.3438 L1725.0313,1399.3438 Q1725.75,1399.3438 1726.0469,1399.625 Q1726.3594,1399.8906 1726.3594,1400.3438 Q1726.3594,1400.7969 1726.0469,1401.0781 Q1725.75,1401.3594 1725.0313,1401.3594 L1723,1401.3594 Z " fill="#000000"/><text fill="#000000" font-family="sans-serif" font-size="20" font-style="italic" lengthAdjust="spacing" textLength="164" x="1737" y="1413.3711">DomainRepository</text><line style="stroke:#181818;stroke-width:0.5;" x1="1707" x2="1903" y1="1422.7656" y2="1422.7656"/><line style="stroke:#181818;stroke-width:0.5;" x1="1707" x2="1903" y1="1430.7656" y2="1430.7656"/><ellipse cx="1717" cy="1448.8438" fill="#84BE84" rx="3" ry="3" style="stroke:#038048;stroke-width:1.0;"/><text fill="#000000" font-family="sans-serif" font-size="20" lengthAdjust="spacing" textLength="95" x="1727" y="1455.5273">ofIdentity()</text><ellipse cx="1717" cy="1474" fill="#84BE84" rx="3" ry="3" style="stroke:#038048;stroke-width:1.0;"/><text fill="#000000" font-family="sans-serif" font-size="20" lengthAdjust="spacing" textLength="55" x="1727" y="1480.6836">save()</text></g><!--class JobOpeningRepository--><g id="elem_JobOpeningRepository"><rect codeLine="53" fill="#F1F1F1" height="76.3125" id="JobOpeningRepository" rx="2.5" ry="2.5" style="stroke:#181818;stroke-width:0.5;" width="899" x="1505.5" y="555.1094"/><ellipse cx="1849" cy="572.6875" fill="#B4A7E5" rx="12" ry="12" style="stroke:#181818;stroke-width:1.0;"/><path d="M1850,568.8594 L1850,576.6875 L1852.0313,576.6875 Q1852.75,576.6875 1853.0469,576.9688 Q1853.3594,577.2344 1853.3594,577.6875 Q1853.3594,578.125 1853.0469,578.4063 Q1852.75,578.6875 1852.0313,578.6875 L1845.9844,578.6875 Q1845.25,578.6875 1844.9375,578.4063 Q1844.6406,578.125 1844.6406,577.6875 Q1844.6406,577.2344 1844.9375,576.9688 Q1845.25,576.6875 1845.9844,576.6875 L1848,576.6875 L1848,568.8594 L1845.9844,568.8594 Q1845.25,568.8594 1844.9375,568.5781 Q1844.6406,568.2969 1844.6406,567.8438 Q1844.6406,567.3906 1844.9375,567.125 Q1845.25,566.8438 1845.9844,566.8438 L1852.0313,566.8438 Q1852.75,566.8438 1853.0469,567.125 Q1853.3594,567.3906 1853.3594,567.8438 Q1853.3594,568.2969 1853.0469,568.5781 Q1852.75,568.8594 1852.0313,568.8594 L1850,568.8594 Z " fill="#000000"/><text fill="#000000" font-family="sans-serif" font-size="20" font-style="italic" lengthAdjust="spacing" textLength="203" x="1871" y="580.8711">JobOpeningRepository</text><line style="stroke:#181818;stroke-width:0.5;" x1="1506.5" x2="2403.5" y1="590.2656" y2="590.2656"/><line style="stroke:#181818;stroke-width:0.5;" x1="1506.5" x2="2403.5" y1="598.2656" y2="598.2656"/><ellipse cx="1516.5" cy="616.3438" fill="#84BE84" rx="3" ry="3" style="stroke:#038048;stroke-width:1.0;"/><text fill="#000000" font-family="sans-serif" font-size="20" lengthAdjust="spacing" textLength="872" x="1526.5" y="623.0273">jobOpeningsInResultListOfCustomerManager(customerManagerUsername) : Iterable&lt;JobOpening&gt;</text></g><!--class JobOpeningManagementService--><g id="elem_JobOpeningManagementService"><rect codeLine="56" fill="#F1F1F1" height="76.3125" id="JobOpeningManagementService" rx="2.5" ry="2.5" style="stroke:#181818;stroke-width:0.5;" width="894" x="1759" y="368.6094"/><ellipse cx="2059.5" cy="386.1875" fill="#ADD1B2" rx="12" ry="12" style="stroke:#181818;stroke-width:1.0;"/><path d="M2061.6406,381.1094 Q2061.8281,380.8594 2062.0469,380.7344 Q2062.2656,380.5938 2062.5156,380.5938 Q2062.9531,380.5938 2063.2344,380.9063 Q2063.5156,381.2031 2063.5156,381.9219 L2063.5156,383.625 Q2063.5156,384.3438 2063.2344,384.6563 Q2062.9531,384.9688 2062.5156,384.9688 Q2062.125,384.9688 2061.875,384.7344 Q2061.625,384.5156 2061.5156,383.9063 Q2061.4531,383.4844 2061.2344,383.2656 Q2060.8438,382.8281 2060.125,382.5625 Q2059.4063,382.2969 2058.6875,382.2969 Q2057.7813,382.2969 2057.0313,382.6875 Q2056.2813,383.0781 2055.7031,383.9688 Q2055.125,384.8438 2055.125,386.0469 L2055.125,387.3438 Q2055.125,388.7969 2056.1719,389.7656 Q2057.2344,390.7344 2059.0938,390.7344 Q2060.2031,390.7344 2060.9844,390.4219 Q2061.4219,390.25 2061.9375,389.7344 Q2062.25,389.4219 2062.4219,389.3281 Q2062.5938,389.2344 2062.8281,389.2344 Q2063.2188,389.2344 2063.5156,389.5469 Q2063.8281,389.8438 2063.8281,390.25 Q2063.8281,390.6563 2063.4219,391.125 Q2062.8281,391.8125 2061.8906,392.2031 Q2060.625,392.7344 2059.1094,392.7344 Q2057.3281,392.7344 2055.9063,392 Q2054.75,391.4063 2053.9375,390.1406 Q2053.125,388.875 2053.125,387.3906 L2053.125,386.0313 Q2053.125,384.4688 2053.8438,383.125 Q2054.5781,381.7656 2055.8594,381.0313 Q2057.1563,380.2969 2058.6094,380.2969 Q2059.4688,380.2969 2060.2188,380.5 Q2060.9844,380.7031 2061.6406,381.1094 Z " fill="#000000"/><text fill="#000000" font-family="sans-serif" font-size="20" lengthAdjust="spacing" textLength="284" x="2081.5" y="394.3711">JobOpeningManagementService</text><line style="stroke:#181818;stroke-width:0.5;" x1="1760" x2="2652" y1="403.7656" y2="403.7656"/><line style="stroke:#181818;stroke-width:0.5;" x1="1760" x2="2652" y1="411.7656" y2="411.7656"/><ellipse cx="1770" cy="429.8438" fill="#84BE84" rx="3" ry="3" style="stroke:#038048;stroke-width:1.0;"/><text fill="#000000" font-family="sans-serif" font-size="20" lengthAdjust="spacing" textLength="867" x="1780" y="436.5273">jobOpeningsInResultListOfCustomerManager(customerManagerUsername) : List&lt;JobOpeningDto&gt;</text></g><!--class JobOpeningDTOService--><g id="elem_JobOpeningDTOService"><rect codeLine="59" fill="#F1F1F1" height="76.3125" id="JobOpeningDTOService" rx="2.5" ry="2.5" style="stroke:#181818;stroke-width:0.5;" width="509" x="2511.5" y="555.1094"/><ellipse cx="2655.5" cy="572.6875" fill="#ADD1B2" rx="12" ry="12" style="stroke:#181818;stroke-width:1.0;"/><path d="M2657.6406,567.6094 Q2657.8281,567.3594 2658.0469,567.2344 Q2658.2656,567.0938 2658.5156,567.0938 Q2658.9531,567.0938 2659.2344,567.4063 Q2659.5156,567.7031 2659.5156,568.4219 L2659.5156,570.125 Q2659.5156,570.8438 2659.2344,571.1563 Q2658.9531,571.4688 2658.5156,571.4688 Q2658.125,571.4688 2657.875,571.2344 Q2657.625,571.0156 2657.5156,570.4063 Q2657.4531,569.9844 2657.2344,569.7656 Q2656.8438,569.3281 2656.125,569.0625 Q2655.4063,568.7969 2654.6875,568.7969 Q2653.7813,568.7969 2653.0313,569.1875 Q2652.2813,569.5781 2651.7031,570.4688 Q2651.125,571.3438 2651.125,572.5469 L2651.125,573.8438 Q2651.125,575.2969 2652.1719,576.2656 Q2653.2344,577.2344 2655.0938,577.2344 Q2656.2031,577.2344 2656.9844,576.9219 Q2657.4219,576.75 2657.9375,576.2344 Q2658.25,575.9219 2658.4219,575.8281 Q2658.5938,575.7344 2658.8281,575.7344 Q2659.2188,575.7344 2659.5156,576.0469 Q2659.8281,576.3438 2659.8281,576.75 Q2659.8281,577.1563 2659.4219,577.625 Q2658.8281,578.3125 2657.8906,578.7031 Q2656.625,579.2344 2655.1094,579.2344 Q2653.3281,579.2344 2651.9063,578.5 Q2650.75,577.9063 2649.9375,576.6406 Q2649.125,575.375 2649.125,573.8906 L2649.125,572.5313 Q2649.125,570.9688 2649.8438,569.625 Q2650.5781,568.2656 2651.8594,567.5313 Q2653.1563,566.7969 2654.6094,566.7969 Q2655.4688,566.7969 2656.2188,567 Q2656.9844,567.2031 2657.6406,567.6094 Z " fill="#000000"/><text fill="#000000" font-family="sans-serif" font-size="20" lengthAdjust="spacing" textLength="212" x="2677.5" y="580.8711">JobOpeningDTOService</text><line style="stroke:#181818;stroke-width:0.5;" x1="2512.5" x2="3019.5" y1="590.2656" y2="590.2656"/><line style="stroke:#181818;stroke-width:0.5;" x1="2512.5" x2="3019.5" y1="598.2656" y2="598.2656"/><ellipse cx="2522.5" cy="616.3438" fill="#84BE84" rx="3" ry="3" style="stroke:#038048;stroke-width:1.0;"/><text fill="#000000" font-family="sans-serif" font-size="20" lengthAdjust="spacing" textLength="482" x="2532.5" y="623.0273">convertToDTO(jobOpeningList) : List&lt;JobOpeningDto&gt;</text></g><!--class JobOpening--><g id="elem_JobOpening"><rect codeLine="62" fill="#F1F1F1" height="76.3125" id="JobOpening" rx="2.5" ry="2.5" style="stroke:#181818;stroke-width:0.5;" width="139" x="2388.5" y="903.1094"/><ellipse cx="2404.5" cy="920.6875" fill="#ADD1B2" rx="12" ry="12" style="stroke:#181818;stroke-width:1.0;"/><path d="M2406.6406,915.6094 Q2406.8281,915.3594 2407.0469,915.2344 Q2407.2656,915.0938 2407.5156,915.0938 Q2407.9531,915.0938 2408.2344,915.4063 Q2408.5156,915.7031 2408.5156,916.4219 L2408.5156,918.125 Q2408.5156,918.8438 2408.2344,919.1563 Q2407.9531,919.4688 2407.5156,919.4688 Q2407.125,919.4688 2406.875,919.2344 Q2406.625,919.0156 2406.5156,918.4063 Q2406.4531,917.9844 2406.2344,917.7656 Q2405.8438,917.3281 2405.125,917.0625 Q2404.4063,916.7969 2403.6875,916.7969 Q2402.7813,916.7969 2402.0313,917.1875 Q2401.2813,917.5781 2400.7031,918.4688 Q2400.125,919.3438 2400.125,920.5469 L2400.125,921.8438 Q2400.125,923.2969 2401.1719,924.2656 Q2402.2344,925.2344 2404.0938,925.2344 Q2405.2031,925.2344 2405.9844,924.9219 Q2406.4219,924.75 2406.9375,924.2344 Q2407.25,923.9219 2407.4219,923.8281 Q2407.5938,923.7344 2407.8281,923.7344 Q2408.2188,923.7344 2408.5156,924.0469 Q2408.8281,924.3438 2408.8281,924.75 Q2408.8281,925.1563 2408.4219,925.625 Q2407.8281,926.3125 2406.8906,926.7031 Q2405.625,927.2344 2404.1094,927.2344 Q2402.3281,927.2344 2400.9063,926.5 Q2399.75,925.9063 2398.9375,924.6406 Q2398.125,923.375 2398.125,921.8906 L2398.125,920.5313 Q2398.125,918.9688 2398.8438,917.625 Q2399.5781,916.2656 2400.8594,915.5313 Q2402.1563,914.7969 2403.6094,914.7969 Q2404.4688,914.7969 2405.2188,915 Q2405.9844,915.2031 2406.6406,915.6094 Z " fill="#000000"/><text fill="#000000" font-family="sans-serif" font-size="20" lengthAdjust="spacing" textLength="105" x="2419.5" y="928.8711">JobOpening</text><line style="stroke:#181818;stroke-width:0.5;" x1="2389.5" x2="2526.5" y1="938.2656" y2="938.2656"/><line style="stroke:#181818;stroke-width:0.5;" x1="2389.5" x2="2526.5" y1="946.2656" y2="946.2656"/><ellipse cx="2399.5" cy="964.3438" fill="#84BE84" rx="3" ry="3" style="stroke:#038048;stroke-width:1.0;"/><text fill="#000000" font-family="sans-serif" font-size="20" lengthAdjust="spacing" textLength="62" x="2409.5" y="971.0273">toDto()</text></g><!--class EventPublisher--><g id="elem_EventPublisher"><rect codeLine="67" fill="#F1F1F1" height="76.3125" id="EventPublisher" rx="2.5" ry="2.5" style="stroke:#181818;stroke-width:0.5;" width="168" x="639" y="1251.6094"/><ellipse cx="655" cy="1269.1875" fill="#B4A7E5" rx="12" ry="12" style="stroke:#181818;stroke-width:1.0;"/><path d="M656,1265.3594 L656,1273.1875 L658.0313,1273.1875 Q658.75,1273.1875 659.0469,1273.4688 Q659.3594,1273.7344 659.3594,1274.1875 Q659.3594,1274.625 659.0469,1274.9063 Q658.75,1275.1875 658.0313,1275.1875 L651.9844,1275.1875 Q651.25,1275.1875 650.9375,1274.9063 Q650.6406,1274.625 650.6406,1274.1875 Q650.6406,1273.7344 650.9375,1273.4688 Q651.25,1273.1875 651.9844,1273.1875 L654,1273.1875 L654,1265.3594 L651.9844,1265.3594 Q651.25,1265.3594 650.9375,1265.0781 Q650.6406,1264.7969 650.6406,1264.3438 Q650.6406,1263.8906 650.9375,1263.625 Q651.25,1263.3438 651.9844,1263.3438 L658.0313,1263.3438 Q658.75,1263.3438 659.0469,1263.625 Q659.3594,1263.8906 659.3594,1264.3438 Q659.3594,1264.7969 659.0469,1265.0781 Q658.75,1265.3594 658.0313,1265.3594 L656,1265.3594 Z " fill="#000000"/><text fill="#000000" font-family="sans-serif" font-size="20" font-style="italic" lengthAdjust="spacing" textLength="134" x="670" y="1277.3711">EventPublisher</text><line style="stroke:#181818;stroke-width:0.5;" x1="640" x2="806" y1="1286.7656" y2="1286.7656"/><line style="stroke:#181818;stroke-width:0.5;" x1="640" x2="806" y1="1294.7656" y2="1294.7656"/><ellipse cx="650" cy="1312.8438" fill="#84BE84" rx="3" ry="3" style="stroke:#038048;stroke-width:1.0;"/><text fill="#000000" font-family="sans-serif" font-size="20" lengthAdjust="spacing" textLength="74" x="660" y="1319.5273">publish()</text></g><!--class EventHandler--><g id="elem_EventHandler"><rect codeLine="70" fill="#F1F1F1" height="76.3125" id="EventHandler" rx="2.5" ry="2.5" style="stroke:#181818;stroke-width:0.5;" width="154" x="2832" y="1251.6094"/><ellipse cx="2848" cy="1269.1875" fill="#B4A7E5" rx="12" ry="12" style="stroke:#181818;stroke-width:1.0;"/><path d="M2849,1265.3594 L2849,1273.1875 L2851.0313,1273.1875 Q2851.75,1273.1875 2852.0469,1273.4688 Q2852.3594,1273.7344 2852.3594,1274.1875 Q2852.3594,1274.625 2852.0469,1274.9063 Q2851.75,1275.1875 2851.0313,1275.1875 L2844.9844,1275.1875 Q2844.25,1275.1875 2843.9375,1274.9063 Q2843.6406,1274.625 2843.6406,1274.1875 Q2843.6406,1273.7344 2843.9375,1273.4688 Q2844.25,1273.1875 2844.9844,1273.1875 L2847,1273.1875 L2847,1265.3594 L2844.9844,1265.3594 Q2844.25,1265.3594 2843.9375,1265.0781 Q2843.6406,1264.7969 2843.6406,1264.3438 Q2843.6406,1263.8906 2843.9375,1263.625 Q2844.25,1263.3438 2844.9844,1263.3438 L2851.0313,1263.3438 Q2851.75,1263.3438 2852.0469,1263.625 Q2852.3594,1263.8906 2852.3594,1264.3438 Q2852.3594,1264.7969 2852.0469,1265.0781 Q2851.75,1265.3594 2851.0313,1265.3594 L2849,1265.3594 Z " fill="#000000"/><text fill="#000000" font-family="sans-serif" font-size="20" font-style="italic" lengthAdjust="spacing" textLength="120" x="2863" y="1277.3711">EventHandler</text><line style="stroke:#181818;stroke-width:0.5;" x1="2833" x2="2985" y1="1286.7656" y2="1286.7656"/><line style="stroke:#181818;stroke-width:0.5;" x1="2833" x2="2985" y1="1294.7656" y2="1294.7656"/><ellipse cx="2843" cy="1312.8438" fill="#84BE84" rx="3" ry="3" style="stroke:#038048;stroke-width:1.0;"/><text fill="#000000" font-family="sans-serif" font-size="20" lengthAdjust="spacing" textLength="84" x="2853" y="1319.5273">onEvent()</text></g><!--class DomainEvent--><g id="elem_DomainEvent"><rect codeLine="73" fill="#F1F1F1" height="51.1563" id="DomainEvent" rx="2.5" ry="2.5" style="stroke:#181818;stroke-width:0.5;" width="153" x="2525.5" y="1548.6094"/><ellipse cx="2541.5" cy="1566.1875" fill="#B4A7E5" rx="12" ry="12" style="stroke:#181818;stroke-width:1.0;"/><path d="M2542.5,1562.3594 L2542.5,1570.1875 L2544.5313,1570.1875 Q2545.25,1570.1875 2545.5469,1570.4688 Q2545.8594,1570.7344 2545.8594,1571.1875 Q2545.8594,1571.625 2545.5469,1571.9063 Q2545.25,1572.1875 2544.5313,1572.1875 L2538.4844,1572.1875 Q2537.75,1572.1875 2537.4375,1571.9063 Q2537.1406,1571.625 2537.1406,1571.1875 Q2537.1406,1570.7344 2537.4375,1570.4688 Q2537.75,1570.1875 2538.4844,1570.1875 L2540.5,1570.1875 L2540.5,1562.3594 L2538.4844,1562.3594 Q2537.75,1562.3594 2537.4375,1562.0781 Q2537.1406,1561.7969 2537.1406,1561.3438 Q2537.1406,1560.8906 2537.4375,1560.625 Q2537.75,1560.3438 2538.4844,1560.3438 L2544.5313,1560.3438 Q2545.25,1560.3438 2545.5469,1560.625 Q2545.8594,1560.8906 2545.8594,1561.3438 Q2545.8594,1561.7969 2545.5469,1562.0781 Q2545.25,1562.3594 2544.5313,1562.3594 L2542.5,1562.3594 Z " fill="#000000"/><text fill="#000000" font-family="sans-serif" font-size="20" font-style="italic" lengthAdjust="spacing" textLength="119" x="2556.5" y="1574.3711">DomainEvent</text><line style="stroke:#181818;stroke-width:0.5;" x1="2526.5" x2="2677.5" y1="1583.7656" y2="1583.7656"/><line style="stroke:#181818;stroke-width:0.5;" x1="2526.5" x2="2677.5" y1="1591.7656" y2="1591.7656"/></g><!--class CustomerRepository--><g id="elem_CustomerRepository"><rect codeLine="77" fill="#F1F1F1" height="76.3125" id="CustomerRepository" rx="2.5" ry="2.5" style="stroke:#181818;stroke-width:0.5;" width="403" x="512.5" y="741.6094"/><ellipse cx="619.5" cy="759.1875" fill="#ADD1B2" rx="12" ry="12" style="stroke:#181818;stroke-width:1.0;"/><path d="M621.6406,754.1094 Q621.8281,753.8594 622.0469,753.7344 Q622.2656,753.5938 622.5156,753.5938 Q622.9531,753.5938 623.2344,753.9063 Q623.5156,754.2031 623.5156,754.9219 L623.5156,756.625 Q623.5156,757.3438 623.2344,757.6563 Q622.9531,757.9688 622.5156,757.9688 Q622.125,757.9688 621.875,757.7344 Q621.625,757.5156 621.5156,756.9063 Q621.4531,756.4844 621.2344,756.2656 Q620.8438,755.8281 620.125,755.5625 Q619.4063,755.2969 618.6875,755.2969 Q617.7813,755.2969 617.0313,755.6875 Q616.2813,756.0781 615.7031,756.9688 Q615.125,757.8438 615.125,759.0469 L615.125,760.3438 Q615.125,761.7969 616.1719,762.7656 Q617.2344,763.7344 619.0938,763.7344 Q620.2031,763.7344 620.9844,763.4219 Q621.4219,763.25 621.9375,762.7344 Q622.25,762.4219 622.4219,762.3281 Q622.5938,762.2344 622.8281,762.2344 Q623.2188,762.2344 623.5156,762.5469 Q623.8281,762.8438 623.8281,763.25 Q623.8281,763.6563 623.4219,764.125 Q622.8281,764.8125 621.8906,765.2031 Q620.625,765.7344 619.1094,765.7344 Q617.3281,765.7344 615.9063,765 Q614.75,764.4063 613.9375,763.1406 Q613.125,761.875 613.125,760.3906 L613.125,759.0313 Q613.125,757.4688 613.8438,756.125 Q614.5781,754.7656 615.8594,754.0313 Q617.1563,753.2969 618.6094,753.2969 Q619.4688,753.2969 620.2188,753.5 Q620.9844,753.7031 621.6406,754.1094 Z " fill="#000000"/><text fill="#000000" font-family="sans-serif" font-size="20" lengthAdjust="spacing" textLength="180" x="641.5" y="767.3711">CustomerRepository</text><line style="stroke:#181818;stroke-width:0.5;" x1="513.5" x2="914.5" y1="776.7656" y2="776.7656"/><line style="stroke:#181818;stroke-width:0.5;" x1="513.5" x2="914.5" y1="784.7656" y2="784.7656"/><ellipse cx="523.5" cy="802.8438" fill="#84BE84" rx="3" ry="3" style="stroke:#038048;stroke-width:1.0;"/><text fill="#000000" font-family="sans-serif" font-size="20" lengthAdjust="spacing" textLength="376" x="533.5" y="809.5273">customerEmailOfCustomer(companyCode)</text></g><!--class ApplicationStatusChangedWatchDog--><g id="elem_ApplicationStatusChangedWatchDog"><rect codeLine="82" fill="#F1F1F1" height="51.1563" id="ApplicationStatusChangedWatchDog" rx="2.5" ry="2.5" style="stroke:#181818;stroke-width:0.5;" width="355" x="2660.5" y="754.1094"/><ellipse cx="2676.5" cy="771.6875" fill="#ADD1B2" rx="12" ry="12" style="stroke:#181818;stroke-width:1.0;"/><path d="M2678.6406,766.6094 Q2678.8281,766.3594 2679.0469,766.2344 Q2679.2656,766.0938 2679.5156,766.0938 Q2679.9531,766.0938 2680.2344,766.4063 Q2680.5156,766.7031 2680.5156,767.4219 L2680.5156,769.125 Q2680.5156,769.8438 2680.2344,770.1563 Q2679.9531,770.4688 2679.5156,770.4688 Q2679.125,770.4688 2678.875,770.2344 Q2678.625,770.0156 2678.5156,769.4063 Q2678.4531,768.9844 2678.2344,768.7656 Q2677.8438,768.3281 2677.125,768.0625 Q2676.4063,767.7969 2675.6875,767.7969 Q2674.7813,767.7969 2674.0313,768.1875 Q2673.2813,768.5781 2672.7031,769.4688 Q2672.125,770.3438 2672.125,771.5469 L2672.125,772.8438 Q2672.125,774.2969 2673.1719,775.2656 Q2674.2344,776.2344 2676.0938,776.2344 Q2677.2031,776.2344 2677.9844,775.9219 Q2678.4219,775.75 2678.9375,775.2344 Q2679.25,774.9219 2679.4219,774.8281 Q2679.5938,774.7344 2679.8281,774.7344 Q2680.2188,774.7344 2680.5156,775.0469 Q2680.8281,775.3438 2680.8281,775.75 Q2680.8281,776.1563 2680.4219,776.625 Q2679.8281,777.3125 2678.8906,777.7031 Q2677.625,778.2344 2676.1094,778.2344 Q2674.3281,778.2344 2672.9063,777.5 Q2671.75,776.9063 2670.9375,775.6406 Q2670.125,774.375 2670.125,772.8906 L2670.125,771.5313 Q2670.125,769.9688 2670.8438,768.625 Q2671.5781,767.2656 2672.8594,766.5313 Q2674.1563,765.7969 2675.6094,765.7969 Q2676.4688,765.7969 2677.2188,766 Q2677.9844,766.2031 2678.6406,766.6094 Z " fill="#000000"/><text fill="#000000" font-family="sans-serif" font-size="20" lengthAdjust="spacing" textLength="321" x="2691.5" y="779.8711">ApplicationStatusChangedWatchDog</text><line style="stroke:#181818;stroke-width:0.5;" x1="2661.5" x2="3014.5" y1="789.2656" y2="789.2656"/><line style="stroke:#181818;stroke-width:0.5;" x1="2661.5" x2="3014.5" y1="797.2656" y2="797.2656"/></g><!--class ApplicationStatusChangedEvent--><g id="elem_ApplicationStatusChangedEvent"><rect codeLine="85" fill="#F1F1F1" height="51.1563" id="ApplicationStatusChangedEvent" rx="2.5" ry="2.5" style="stroke:#181818;stroke-width:0.5;" width="312" x="2404" y="1264.1094"/><ellipse cx="2420" cy="1281.6875" fill="#ADD1B2" rx="12" ry="12" style="stroke:#181818;stroke-width:1.0;"/><path d="M2422.1406,1276.6094 Q2422.3281,1276.3594 2422.5469,1276.2344 Q2422.7656,1276.0938 2423.0156,1276.0938 Q2423.4531,1276.0938 2423.7344,1276.4063 Q2424.0156,1276.7031 2424.0156,1277.4219 L2424.0156,1279.125 Q2424.0156,1279.8438 2423.7344,1280.1563 Q2423.4531,1280.4688 2423.0156,1280.4688 Q2422.625,1280.4688 2422.375,1280.2344 Q2422.125,1280.0156 2422.0156,1279.4063 Q2421.9531,1278.9844 2421.7344,1278.7656 Q2421.3438,1278.3281 2420.625,1278.0625 Q2419.9063,1277.7969 2419.1875,1277.7969 Q2418.2813,1277.7969 2417.5313,1278.1875 Q2416.7813,1278.5781 2416.2031,1279.4688 Q2415.625,1280.3438 2415.625,1281.5469 L2415.625,1282.8438 Q2415.625,1284.2969 2416.6719,1285.2656 Q2417.7344,1286.2344 2419.5938,1286.2344 Q2420.7031,1286.2344 2421.4844,1285.9219 Q2421.9219,1285.75 2422.4375,1285.2344 Q2422.75,1284.9219 2422.9219,1284.8281 Q2423.0938,1284.7344 2423.3281,1284.7344 Q2423.7188,1284.7344 2424.0156,1285.0469 Q2424.3281,1285.3438 2424.3281,1285.75 Q2424.3281,1286.1563 2423.9219,1286.625 Q2423.3281,1287.3125 2422.3906,1287.7031 Q2421.125,1288.2344 2419.6094,1288.2344 Q2417.8281,1288.2344 2416.4063,1287.5 Q2415.25,1286.9063 2414.4375,1285.6406 Q2413.625,1284.375 2413.625,1282.8906 L2413.625,1281.5313 Q2413.625,1279.9688 2414.3438,1278.625 Q2415.0781,1277.2656 2416.3594,1276.5313 Q2417.6563,1275.7969 2419.1094,1275.7969 Q2419.9688,1275.7969 2420.7188,1276 Q2421.4844,1276.2031 2422.1406,1276.6094 Z " fill="#000000"/><text fill="#000000" font-family="sans-serif" font-size="20" lengthAdjust="spacing" textLength="278" x="2435" y="1289.8711">ApplicationStatusChangedEvent</text><line style="stroke:#181818;stroke-width:0.5;" x1="2405" x2="2715" y1="1299.2656" y2="1299.2656"/><line style="stroke:#181818;stroke-width:0.5;" x1="2405" x2="2715" y1="1307.2656" y2="1307.2656"/></g><!--class NotifyCandidateOnApplicationStatusChangedController--><g id="elem_NotifyCandidateOnApplicationStatusChangedController"><rect codeLine="87" fill="#F1F1F1" height="126.625" id="NotifyCandidateOnApplicationStatusChangedController" rx="2.5" ry="2.5" style="stroke:#181818;stroke-width:0.5;" width="609" x="2175.5" y="1064.6094"/><ellipse cx="2236" cy="1082.1875" fill="#ADD1B2" rx="12" ry="12" style="stroke:#181818;stroke-width:1.0;"/><path d="M2238.1406,1077.1094 Q2238.3281,1076.8594 2238.5469,1076.7344 Q2238.7656,1076.5938 2239.0156,1076.5938 Q2239.4531,1076.5938 2239.7344,1076.9063 Q2240.0156,1077.2031 2240.0156,1077.9219 L2240.0156,1079.625 Q2240.0156,1080.3438 2239.7344,1080.6563 Q2239.4531,1080.9688 2239.0156,1080.9688 Q2238.625,1080.9688 2238.375,1080.7344 Q2238.125,1080.5156 2238.0156,1079.9063 Q2237.9531,1079.4844 2237.7344,1079.2656 Q2237.3438,1078.8281 2236.625,1078.5625 Q2235.9063,1078.2969 2235.1875,1078.2969 Q2234.2813,1078.2969 2233.5313,1078.6875 Q2232.7813,1079.0781 2232.2031,1079.9688 Q2231.625,1080.8438 2231.625,1082.0469 L2231.625,1083.3438 Q2231.625,1084.7969 2232.6719,1085.7656 Q2233.7344,1086.7344 2235.5938,1086.7344 Q2236.7031,1086.7344 2237.4844,1086.4219 Q2237.9219,1086.25 2238.4375,1085.7344 Q2238.75,1085.4219 2238.9219,1085.3281 Q2239.0938,1085.2344 2239.3281,1085.2344 Q2239.7188,1085.2344 2240.0156,1085.5469 Q2240.3281,1085.8438 2240.3281,1086.25 Q2240.3281,1086.6563 2239.9219,1087.125 Q2239.3281,1087.8125 2238.3906,1088.2031 Q2237.125,1088.7344 2235.6094,1088.7344 Q2233.8281,1088.7344 2232.4063,1088 Q2231.25,1087.4063 2230.4375,1086.1406 Q2229.625,1084.875 2229.625,1083.3906 L2229.625,1082.0313 Q2229.625,1080.4688 2230.3438,1079.125 Q2231.0781,1077.7656 2232.3594,1077.0313 Q2233.6563,1076.2969 2235.1094,1076.2969 Q2235.9688,1076.2969 2236.7188,1076.5 Q2237.4844,1076.7031 2238.1406,1077.1094 Z " fill="#000000"/><text fill="#000000" font-family="sans-serif" font-size="20" lengthAdjust="spacing" textLength="479" x="2258" y="1090.3711">NotifyCandidateOnApplicationStatusChangedController</text><line style="stroke:#181818;stroke-width:0.5;" x1="2176.5" x2="2783.5" y1="1099.7656" y2="1099.7656"/><line style="stroke:#181818;stroke-width:0.5;" x1="2176.5" x2="2783.5" y1="1107.7656" y2="1107.7656"/><ellipse cx="2186.5" cy="1125.8438" fill="#84BE84" rx="3" ry="3" style="stroke:#038048;stroke-width:1.0;"/><text fill="#000000" font-family="sans-serif" font-size="20" lengthAdjust="spacing" textLength="582" x="2196.5" y="1132.5273">notifyCandidateOfChangedStatus(applicationStatusChangedEvent)</text><rect fill="#F24D5C" height="6" style="stroke:#C82930;stroke-width:1.0;" width="6" x="2183.5" y="1148"/><text fill="#000000" font-family="sans-serif" font-size="20" lengthAdjust="spacing" textLength="210" x="2196.5" y="1157.6836">getSessionCredentials()</text><rect fill="#F24D5C" height="6" style="stroke:#C82930;stroke-width:1.0;" width="6" x="2183.5" y="1173.1563"/><text fill="#000000" font-family="sans-serif" font-size="20" lengthAdjust="spacing" textLength="372" x="2196.5" y="1182.8398">establishConnection(username, password)</text></g><!--class NotificationRepository--><g id="elem_NotificationRepository"><rect codeLine="92" fill="#F1F1F1" height="51.1563" id="NotificationRepository" rx="2.5" ry="2.5" style="stroke:#181818;stroke-width:0.5;" width="225" x="2230.5" y="1548.6094"/><ellipse cx="2246.5" cy="1566.1875" fill="#ADD1B2" rx="12" ry="12" style="stroke:#181818;stroke-width:1.0;"/><path d="M2248.6406,1561.1094 Q2248.8281,1560.8594 2249.0469,1560.7344 Q2249.2656,1560.5938 2249.5156,1560.5938 Q2249.9531,1560.5938 2250.2344,1560.9063 Q2250.5156,1561.2031 2250.5156,1561.9219 L2250.5156,1563.625 Q2250.5156,1564.3438 2250.2344,1564.6563 Q2249.9531,1564.9688 2249.5156,1564.9688 Q2249.125,1564.9688 2248.875,1564.7344 Q2248.625,1564.5156 2248.5156,1563.9063 Q2248.4531,1563.4844 2248.2344,1563.2656 Q2247.8438,1562.8281 2247.125,1562.5625 Q2246.4063,1562.2969 2245.6875,1562.2969 Q2244.7813,1562.2969 2244.0313,1562.6875 Q2243.2813,1563.0781 2242.7031,1563.9688 Q2242.125,1564.8438 2242.125,1566.0469 L2242.125,1567.3438 Q2242.125,1568.7969 2243.1719,1569.7656 Q2244.2344,1570.7344 2246.0938,1570.7344 Q2247.2031,1570.7344 2247.9844,1570.4219 Q2248.4219,1570.25 2248.9375,1569.7344 Q2249.25,1569.4219 2249.4219,1569.3281 Q2249.5938,1569.2344 2249.8281,1569.2344 Q2250.2188,1569.2344 2250.5156,1569.5469 Q2250.8281,1569.8438 2250.8281,1570.25 Q2250.8281,1570.6563 2250.4219,1571.125 Q2249.8281,1571.8125 2248.8906,1572.2031 Q2247.625,1572.7344 2246.1094,1572.7344 Q2244.3281,1572.7344 2242.9063,1572 Q2241.75,1571.4063 2240.9375,1570.1406 Q2240.125,1568.875 2240.125,1567.3906 L2240.125,1566.0313 Q2240.125,1564.4688 2240.8438,1563.125 Q2241.5781,1561.7656 2242.8594,1561.0313 Q2244.1563,1560.2969 2245.6094,1560.2969 Q2246.4688,1560.2969 2247.2188,1560.5 Q2247.9844,1560.7031 2248.6406,1561.1094 Z " fill="#000000"/><text fill="#000000" font-family="sans-serif" font-size="20" lengthAdjust="spacing" textLength="191" x="2261.5" y="1574.3711">NotificationRepository</text><line style="stroke:#181818;stroke-width:0.5;" x1="2231.5" x2="2454.5" y1="1583.7656" y2="1583.7656"/><line style="stroke:#181818;stroke-width:0.5;" x1="2231.5" x2="2454.5" y1="1591.7656" y2="1591.7656"/></g><!--class NotificationManagementService--><g id="elem_NotificationManagementService"><rect codeLine="94" fill="#F1F1F1" height="76.3125" id="NotificationManagementService" rx="2.5" ry="2.5" style="stroke:#181818;stroke-width:0.5;" width="480" x="2069" y="1400.1094"/><ellipse cx="2167" cy="1417.6875" fill="#ADD1B2" rx="12" ry="12" style="stroke:#181818;stroke-width:1.0;"/><path d="M2169.1406,1412.6094 Q2169.3281,1412.3594 2169.5469,1412.2344 Q2169.7656,1412.0938 2170.0156,1412.0938 Q2170.4531,1412.0938 2170.7344,1412.4063 Q2171.0156,1412.7031 2171.0156,1413.4219 L2171.0156,1415.125 Q2171.0156,1415.8438 2170.7344,1416.1563 Q2170.4531,1416.4688 2170.0156,1416.4688 Q2169.625,1416.4688 2169.375,1416.2344 Q2169.125,1416.0156 2169.0156,1415.4063 Q2168.9531,1414.9844 2168.7344,1414.7656 Q2168.3438,1414.3281 2167.625,1414.0625 Q2166.9063,1413.7969 2166.1875,1413.7969 Q2165.2813,1413.7969 2164.5313,1414.1875 Q2163.7813,1414.5781 2163.2031,1415.4688 Q2162.625,1416.3438 2162.625,1417.5469 L2162.625,1418.8438 Q2162.625,1420.2969 2163.6719,1421.2656 Q2164.7344,1422.2344 2166.5938,1422.2344 Q2167.7031,1422.2344 2168.4844,1421.9219 Q2168.9219,1421.75 2169.4375,1421.2344 Q2169.75,1420.9219 2169.9219,1420.8281 Q2170.0938,1420.7344 2170.3281,1420.7344 Q2170.7188,1420.7344 2171.0156,1421.0469 Q2171.3281,1421.3438 2171.3281,1421.75 Q2171.3281,1422.1563 2170.9219,1422.625 Q2170.3281,1423.3125 2169.3906,1423.7031 Q2168.125,1424.2344 2166.6094,1424.2344 Q2164.8281,1424.2344 2163.4063,1423.5 Q2162.25,1422.9063 2161.4375,1421.6406 Q2160.625,1420.375 2160.625,1418.8906 L2160.625,1417.5313 Q2160.625,1415.9688 2161.3438,1414.625 Q2162.0781,1413.2656 2163.3594,1412.5313 Q2164.6563,1411.7969 2166.1094,1411.7969 Q2166.9688,1411.7969 2167.7188,1412 Q2168.4844,1412.2031 2169.1406,1412.6094 Z " fill="#000000"/><text fill="#000000" font-family="sans-serif" font-size="20" lengthAdjust="spacing" textLength="275" x="2189" y="1425.8711">NotificationManagementService</text><line style="stroke:#181818;stroke-width:0.5;" x1="2070" x2="2548" y1="1435.2656" y2="1435.2656"/><line style="stroke:#181818;stroke-width:0.5;" x1="2070" x2="2548" y1="1443.2656" y2="1443.2656"/><ellipse cx="2080" cy="1461.3438" fill="#84BE84" rx="3" ry="3" style="stroke:#038048;stroke-width:1.0;"/><text fill="#000000" font-family="sans-serif" font-size="20" lengthAdjust="spacing" textLength="453" x="2090" y="1468.0273">registerNotification(applicationStatusChangedEvent)</text></g><!--class Notification--><g id="elem_Notification"><rect codeLine="97" fill="#F1F1F1" height="76.3125" id="Notification" rx="2.5" ry="2.5" style="stroke:#181818;stroke-width:0.5;" width="413" x="2053.5" y="1659.6094"/><ellipse cx="2207.5" cy="1677.1875" fill="#ADD1B2" rx="12" ry="12" style="stroke:#181818;stroke-width:1.0;"/><path d="M2209.6406,1672.1094 Q2209.8281,1671.8594 2210.0469,1671.7344 Q2210.2656,1671.5938 2210.5156,1671.5938 Q2210.9531,1671.5938 2211.2344,1671.9063 Q2211.5156,1672.2031 2211.5156,1672.9219 L2211.5156,1674.625 Q2211.5156,1675.3438 2211.2344,1675.6563 Q2210.9531,1675.9688 2210.5156,1675.9688 Q2210.125,1675.9688 2209.875,1675.7344 Q2209.625,1675.5156 2209.5156,1674.9063 Q2209.4531,1674.4844 2209.2344,1674.2656 Q2208.8438,1673.8281 2208.125,1673.5625 Q2207.4063,1673.2969 2206.6875,1673.2969 Q2205.7813,1673.2969 2205.0313,1673.6875 Q2204.2813,1674.0781 2203.7031,1674.9688 Q2203.125,1675.8438 2203.125,1677.0469 L2203.125,1678.3438 Q2203.125,1679.7969 2204.1719,1680.7656 Q2205.2344,1681.7344 2207.0938,1681.7344 Q2208.2031,1681.7344 2208.9844,1681.4219 Q2209.4219,1681.25 2209.9375,1680.7344 Q2210.25,1680.4219 2210.4219,1680.3281 Q2210.5938,1680.2344 2210.8281,1680.2344 Q2211.2188,1680.2344 2211.5156,1680.5469 Q2211.8281,1680.8438 2211.8281,1681.25 Q2211.8281,1681.6563 2211.4219,1682.125 Q2210.8281,1682.8125 2209.8906,1683.2031 Q2208.625,1683.7344 2207.1094,1683.7344 Q2205.3281,1683.7344 2203.9063,1683 Q2202.75,1682.4063 2201.9375,1681.1406 Q2201.125,1679.875 2201.125,1678.3906 L2201.125,1677.0313 Q2201.125,1675.4688 2201.8438,1674.125 Q2202.5781,1672.7656 2203.8594,1672.0313 Q2205.1563,1671.2969 2206.6094,1671.2969 Q2207.4688,1671.2969 2208.2188,1671.5 Q2208.9844,1671.7031 2209.6406,1672.1094 Z " fill="#000000"/><text fill="#000000" font-family="sans-serif" font-size="20" lengthAdjust="spacing" textLength="96" x="2229.5" y="1685.3711">Notification</text><line style="stroke:#181818;stroke-width:0.5;" x1="2054.5" x2="2465.5" y1="1694.7656" y2="1694.7656"/><line style="stroke:#181818;stroke-width:0.5;" x1="2054.5" x2="2465.5" y1="1702.7656" y2="1702.7656"/><ellipse cx="2064.5" cy="1720.8438" fill="#84BE84" rx="3" ry="3" style="stroke:#038048;stroke-width:1.0;"/><text fill="#000000" font-family="sans-serif" font-size="20" lengthAdjust="spacing" textLength="386" x="2074.5" y="1727.5273">Notification(applicationStatusChangedEvent)</text></g><!--class FollowUpConnectionService--><g id="elem_FollowUpConnectionService"><rect codeLine="101" fill="#F1F1F1" height="126.625" id="FollowUpConnectionService" rx="2.5" ry="2.5" style="stroke:#181818;stroke-width:0.5;" width="613" x="505.5" y="877.6094"/><ellipse cx="686" cy="895.1875" fill="#ADD1B2" rx="12" ry="12" style="stroke:#181818;stroke-width:1.0;"/><path d="M688.1406,890.1094 Q688.3281,889.8594 688.5469,889.7344 Q688.7656,889.5938 689.0156,889.5938 Q689.4531,889.5938 689.7344,889.9063 Q690.0156,890.2031 690.0156,890.9219 L690.0156,892.625 Q690.0156,893.3438 689.7344,893.6563 Q689.4531,893.9688 689.0156,893.9688 Q688.625,893.9688 688.375,893.7344 Q688.125,893.5156 688.0156,892.9063 Q687.9531,892.4844 687.7344,892.2656 Q687.3438,891.8281 686.625,891.5625 Q685.9063,891.2969 685.1875,891.2969 Q684.2813,891.2969 683.5313,891.6875 Q682.7813,892.0781 682.2031,892.9688 Q681.625,893.8438 681.625,895.0469 L681.625,896.3438 Q681.625,897.7969 682.6719,898.7656 Q683.7344,899.7344 685.5938,899.7344 Q686.7031,899.7344 687.4844,899.4219 Q687.9219,899.25 688.4375,898.7344 Q688.75,898.4219 688.9219,898.3281 Q689.0938,898.2344 689.3281,898.2344 Q689.7188,898.2344 690.0156,898.5469 Q690.3281,898.8438 690.3281,899.25 Q690.3281,899.6563 689.9219,900.125 Q689.3281,900.8125 688.3906,901.2031 Q687.125,901.7344 685.6094,901.7344 Q683.8281,901.7344 682.4063,901 Q681.25,900.4063 680.4375,899.1406 Q679.625,897.875 679.625,896.3906 L679.625,895.0313 Q679.625,893.4688 680.3438,892.125 Q681.0781,890.7656 682.3594,890.0313 Q683.6563,889.2969 685.1094,889.2969 Q685.9688,889.2969 686.7188,889.5 Q687.4844,889.7031 688.1406,890.1094 Z " fill="#000000"/><text fill="#000000" font-family="sans-serif" font-size="20" lengthAdjust="spacing" textLength="243" x="708" y="903.3711">FollowUpConnectionService</text><line style="stroke:#181818;stroke-width:0.5;" x1="506.5" x2="1117.5" y1="912.7656" y2="912.7656"/><line style="stroke:#181818;stroke-width:0.5;" x1="506.5" x2="1117.5" y1="920.7656" y2="920.7656"/><ellipse cx="516.5" cy="938.8438" fill="#84BE84" rx="3" ry="3" style="stroke:#038048;stroke-width:1.0;"/><text fill="#000000" font-family="sans-serif" font-size="20" lengthAdjust="spacing" textLength="586" x="526.5" y="945.5273">sendEmail(customerManagerEmail, receiverEmail,topic,emailBody)</text><ellipse cx="516.5" cy="964" fill="#84BE84" rx="3" ry="3" style="stroke:#038048;stroke-width:1.0;"/><text fill="#000000" font-family="sans-serif" font-size="20" lengthAdjust="spacing" textLength="157" x="526.5" y="970.6836">closeConnection()</text><ellipse cx="516.5" cy="989.1563" fill="#84BE84" rx="3" ry="3" style="stroke:#038048;stroke-width:1.0;"/><text fill="#000000" font-family="sans-serif" font-size="20" lengthAdjust="spacing" textLength="372" x="526.5" y="995.8398">establishConnection(username, password)</text></g><!--class RankOrder--><g id="elem_RankOrder"><rect codeLine="106" fill="#F1F1F1" height="101.4688" id="RankOrder" rx="2.5" ry="2.5" style="stroke:#181818;stroke-width:0.5;" width="158" x="1436" y="1077.6094"/><ellipse cx="1452" cy="1107.7656" fill="#FF8B40" rx="12" ry="12" style="stroke:#181818;stroke-width:1.0;"/><path d="M1452.5,1111.8438 L1455.3906,1104.9375 L1454.9375,1104.9375 Q1454.2188,1104.9375 1453.9063,1104.6563 Q1453.5938,1104.375 1453.5938,1103.9219 Q1453.5938,1103.4688 1453.9063,1103.2031 Q1454.2188,1102.9219 1454.9375,1102.9219 L1457.625,1102.9219 Q1458.3438,1102.9219 1458.6563,1103.2031 Q1458.9688,1103.4688 1458.9688,1103.9219 Q1458.9688,1104.4688 1458.5,1104.7813 Q1458.2656,1104.9375 1457.5781,1104.9375 L1453.4688,1114.7656 L1451.5469,1114.7656 L1447.4375,1104.9375 Q1446.7344,1104.9375 1446.5156,1104.7813 Q1446.0469,1104.4688 1446.0469,1103.9219 Q1446.0469,1103.4688 1446.3594,1103.2031 Q1446.6563,1102.9219 1447.375,1102.9219 L1450.0781,1102.9219 Q1450.7969,1102.9219 1451.0938,1103.2031 Q1451.4063,1103.4688 1451.4063,1103.9219 Q1451.4063,1104.375 1451.1094,1104.6563 Q1450.8125,1104.9375 1450.0781,1104.9375 L1449.6094,1104.9375 L1452.5,1111.8438 Z " fill="#000000"/><text fill="#000000" font-family="sans-serif" font-size="20" font-style="italic" lengthAdjust="spacing" textLength="128" x="1465" y="1103.3711">value object</text><text fill="#000000" font-family="sans-serif" font-size="20" lengthAdjust="spacing" textLength="97" x="1480.5" y="1128.5273">RankOrder</text><line style="stroke:#181818;stroke-width:0.5;" x1="1437" x2="1593" y1="1137.9219" y2="1137.9219"/><rect fill="none" height="6" style="stroke:#C82930;stroke-width:1.0;" width="6" x="1444" y="1153"/><text fill="#000000" font-family="sans-serif" font-size="20" lengthAdjust="spacing" textLength="96" x="1457" y="1162.6836">orderValue</text><line style="stroke:#181818;stroke-width:0.5;" x1="1437" x2="1593" y1="1171.0781" y2="1171.0781"/></g><!--reverse link AbstractUI to PublishingResultJobOpeningUI--><g id="link_AbstractUI_PublishingResultJobOpeningUI"><path codeLine="110" d="M982,192.9294 C982,206.8094 982,220.5694 982,232.5194 " fill="none" id="AbstractUI-backto-PublishingResultJobOpeningUI" style="stroke:#181818;stroke-width:1.0;"/><polygon fill="none" points="975,192.6894,982,172.6894,989,192.6894,975,192.6894" style="stroke:#181818;stroke-width:1.0;"/></g><!--link PublishingResultJobOpeningUI to PublishingResultJobOpeningController--><g id="link_PublishingResultJobOpeningUI_PublishingResultJobOpeningController"><path codeLine="112" d="M982,308.6894 C982,354.9294 982,435.6194 982,499.0994 " fill="none" id="PublishingResultJobOpeningUI-to-PublishingResultJobOpeningController" style="stroke:#181818;stroke-width:1.0;stroke-dasharray:7.0,7.0;"/><polygon fill="#181818" points="982,504.4194,986,495.4194,982,499.4194,978,495.4194,982,504.4194" style="stroke:#181818;stroke-width:1.0;"/></g><!--link PublishingResultJobOpeningController to AuthorizationService--><g id="link_PublishingResultJobOpeningController_AuthorizationService"><path codeLine="114" d="M612.46,681.6294 C525.36,702.2594 436.93,723.2094 364.64,740.3294 " fill="none" id="PublishingResultJobOpeningController-to-AuthorizationService" style="stroke:#181818;stroke-width:1.0;"/><polygon fill="#181818" points="359.46,741.5494,369.1369,743.3817,364.3271,740.4042,367.3046,735.5944,359.46,741.5494" style="stroke:#181818;stroke-width:1.0;"/></g><!--link PublishingResultJobOpeningController to ApplicationRepository--><g id="link_PublishingResultJobOpeningController_ApplicationRepository"><path codeLine="116" d="M1029.57,681.7594 C1090.01,792.9694 1188.69,974.0694 1207,1004.6094 C1223.47,1032.0894 1243.14,1062.2394 1258.85,1085.7394 " fill="none" id="PublishingResultJobOpeningController-to-ApplicationRepository" style="stroke:#181818;stroke-width:1.0;"/><polygon fill="#181818" points="1261.73,1090.0494,1260.0659,1080.3421,1258.9565,1085.8891,1253.4095,1084.7797,1261.73,1090.0494" style="stroke:#181818;stroke-width:1.0;"/></g><!--link JobOpeningManagementService to JobOpeningRepository--><g id="link_JobOpeningManagementService_JobOpeningRepository"><path codeLine="117" d="M2155.51,444.7194 C2113.21,475.8194 2052.96,520.1094 2009.56,552.0094 " fill="none" id="JobOpeningManagementService-to-JobOpeningRepository" style="stroke:#181818;stroke-width:1.0;"/><polygon fill="#181818" points="2005.41,555.0494,2015.0273,552.9262,2009.4338,552.0814,2010.2786,546.488,2005.41,555.0494" style="stroke:#181818;stroke-width:1.0;"/></g><!--link JobOpeningManagementService to JobOpeningDTOService--><g id="link_JobOpeningManagementService_JobOpeningDTOService"><path codeLine="118" d="M2318.31,444.6094 C2414.08,476.1694 2551.28,521.3694 2648.5,553.3994 " fill="none" id="JobOpeningManagementService-to-JobOpeningDTOService" style="stroke:#181818;stroke-width:1.0;"/><polygon fill="#181818" points="2653.39,555.0094,2646.0809,548.4081,2648.6381,553.4539,2643.5922,556.0111,2653.39,555.0094" style="stroke:#181818;stroke-width:1.0;"/></g><!--link JobOpeningManagementService to JobOpening--><g id="link_JobOpeningManagementService_JobOpening"><path codeLine="119" d="M2346.37,444.7094 C2375.67,458.8294 2403.31,478.1794 2422,504.6094 C2507.28,625.1894 2483.68,814.2194 2467.47,897.8694 " fill="none" id="JobOpeningManagementService-to-JobOpening" style="stroke:#181818;stroke-width:1.0;stroke-dasharray:7.0,7.0;"/><polygon fill="#181818" points="2466.47,902.9794,2472.1212,894.9132,2467.4286,898.0721,2464.2696,893.3795,2466.47,902.9794" style="stroke:#181818;stroke-width:1.0;"/></g><!--link JobOpeningDTOService to JobOpening--><g id="link_JobOpeningDTOService_JobOpening"><path codeLine="120" d="M2733.04,631.1394 C2674.99,696.3494 2554.96,831.1794 2494.5,899.1094 " fill="none" id="JobOpeningDTOService-to-JobOpening" style="stroke:#181818;stroke-width:1.0;stroke-dasharray:7.0,7.0;"/><polygon fill="#181818" points="2490.96,903.0894,2499.9299,899.0223,2494.2827,899.3531,2493.9519,893.7059,2490.96,903.0894" style="stroke:#181818;stroke-width:1.0;"/></g><!--link ApplicationRepository to Application--><g id="link_ApplicationRepository_Application"><path codeLine="121" d="M1299.42,1166.2594 C1317.44,1220.1394 1350.94,1320.2994 1371.76,1382.5594 " fill="none" id="ApplicationRepository-to-Application" style="stroke:#181818;stroke-width:1.0;stroke-dasharray:7.0,7.0;"/><polygon fill="#181818" points="1373.36,1387.3494,1374.2998,1377.5455,1371.7746,1382.6074,1366.7126,1380.0821,1373.36,1387.3494" style="stroke:#181818;stroke-width:1.0;"/></g><!--link ApplicationRepository to DomainRepository--><g id="link_ApplicationRepository_DomainRepository"><path codeLine="122" d="M1349.48,1166.2594 C1437.46,1218.5694 1598.82,1314.5194 1703.97,1377.0394 " fill="none" id="ApplicationRepository-to-DomainRepository" style="stroke:#181818;stroke-width:1.0;stroke-dasharray:7.0,7.0;"/><polygon fill="none" points="1707.7,1371.1094,1721.31,1387.3494,1700.54,1383.1394,1707.7,1371.1094" style="stroke:#181818;stroke-width:1.0;"/></g><!--link RankRepository to DomainRepository--><g id="link_RankRepository_DomainRepository"><path codeLine="123" d="M1805,979.3194 C1805,1061.7494 1805,1260.8894 1805,1367.2994 " fill="none" id="RankRepository-to-DomainRepository" style="stroke:#181818;stroke-width:1.0;stroke-dasharray:7.0,7.0;"/><polygon fill="none" points="1812,1367.5994,1805,1387.5994,1798,1367.5994,1812,1367.5994" style="stroke:#181818;stroke-width:1.0;"/></g><!--link ApplicationStatusChangedEvent to DomainEvent--><g id="link_ApplicationStatusChangedEvent_DomainEvent"><path codeLine="125" d="M2563.65,1315.1894 C2570.73,1362.7694 2586.39,1468.0894 2595.35,1528.3994 " fill="none" id="ApplicationStatusChangedEvent-to-DomainEvent" style="stroke:#181818;stroke-width:1.0;stroke-dasharray:7.0,7.0;"/><polygon fill="none" points="2602.31,1527.5794,2598.32,1548.3894,2588.46,1529.6394,2602.31,1527.5794" style="stroke:#181818;stroke-width:1.0;"/></g><!--link Rank to EventPublisher--><g id="link_Rank_EventPublisher"><path codeLine="127" d="M1326.08,979.2394 C1277.5,1003.3894 1212.91,1035.6694 1156,1064.6094 C1036.62,1125.3294 899.38,1196.5694 811.97,1242.1294 " fill="none" id="Rank-to-EventPublisher" style="stroke:#181818;stroke-width:1.0;"/><polygon fill="none" points="815.07,1248.4094,794.1,1251.4494,808.6,1235.9894,815.07,1248.4094" style="stroke:#181818;stroke-width:1.0;"/></g><!--link ApplicationStatusChangedWatchDog to EventHandler--><g id="link_ApplicationStatusChangedWatchDog_EventHandler"><path codeLine="128" d="M2845.8,805.4894 C2851.62,824.9394 2859.34,852.7594 2864,877.6094 C2887.46,1002.6594 2900.01,1151.5694 2905.51,1231.3594 " fill="none" id="ApplicationStatusChangedWatchDog-to-EventHandler" style="stroke:#181818;stroke-width:1.0;stroke-dasharray:7.0,7.0;"/><polygon fill="none" points="2912.5,1231.0694,2906.84,1251.4894,2898.53,1231.9994,2912.5,1231.0694" style="stroke:#181818;stroke-width:1.0;"/></g><!--link ApplicationStatusChangedWatchDog to NotifyCandidateOnApplicationStatusChangedController--><g id="link_ApplicationStatusChangedWatchDog_NotifyCandidateOnApplicationStatusChangedController"><path codeLine="129" d="M2812.54,805.2494 C2758.13,857.9094 2628.96,982.9394 2548.56,1060.7494 " fill="none" id="ApplicationStatusChangedWatchDog-to-NotifyCandidateOnApplicationStatusChangedController" style="stroke:#181818;stroke-width:1.0;stroke-dasharray:7.0,7.0;"/><polygon fill="#181818" points="2544.77,1064.4194,2554.0251,1061.0515,2548.3692,1060.9487,2548.4721,1055.2928,2544.77,1064.4194" style="stroke:#181818;stroke-width:1.0;"/></g><!--link ApplicationStatusChangedWatchDog to ApplicationStatusChangedEvent--><g id="link_ApplicationStatusChangedWatchDog_ApplicationStatusChangedEvent"><path codeLine="130" d="M2839.1,805.1994 C2842.14,884.2094 2847.68,1130.0694 2802,1191.6094 C2776.6,1225.8394 2737.14,1248.0094 2697.4,1262.3594 " fill="none" id="ApplicationStatusChangedWatchDog-to-ApplicationStatusChangedEvent" style="stroke:#181818;stroke-width:1.0;stroke-dasharray:7.0,7.0;"/><polygon fill="#181818" points="2692.55,1264.0794,2702.3693,1264.842,2697.2626,1262.4086,2699.696,1257.3018,2692.55,1264.0794" style="stroke:#181818;stroke-width:1.0;"/></g><!--link PublishingResultJobOpeningController to FollowUpConnectionService--><g id="link_PublishingResultJobOpeningController_FollowUpConnectionService"><path codeLine="132" d="M974.35,681.6694 C967.79,724.6394 955.61,775.9794 933,817.6094 C922.06,837.7594 906.81,856.8294 890.82,873.6594 " fill="none" id="PublishingResultJobOpeningController-to-FollowUpConnectionService" style="stroke:#181818;stroke-width:1.0;"/><polygon fill="#181818" points="887.18,877.4394,896.3066,873.7373,890.6507,873.8402,890.5478,868.1842,887.18,877.4394" style="stroke:#181818;stroke-width:1.0;"/></g><!--link PublishingResultJobOpeningController to CustomerRepository--><g id="link_PublishingResultJobOpeningController_CustomerRepository"><path codeLine="133" d="M854.67,681.7694 C825.82,701.6294 796.55,721.7794 772.24,738.5194 " fill="none" id="PublishingResultJobOpeningController-to-CustomerRepository" style="stroke:#181818;stroke-width:1.0;"/><polygon fill="#181818" points="768.07,741.3894,777.7525,739.5868,772.1902,738.5567,773.2203,732.9944,768.07,741.3894" style="stroke:#181818;stroke-width:1.0;"/></g><!--link NotifyCandidateOnApplicationStatusChangedController to NotificationManagementService--><g id="link_NotifyCandidateOnApplicationStatusChangedController_NotificationManagementService"><path codeLine="134" d="M2427.59,1191.8494 C2413.41,1210.4294 2398.75,1231.2594 2387,1251.6094 C2360,1298.3694 2337.17,1356.2894 2323.32,1394.8394 " fill="none" id="NotifyCandidateOnApplicationStatusChangedController-to-NotificationManagementService" style="stroke:#181818;stroke-width:1.0;"/><polygon fill="#181818" points="2321.5,1399.9094,2328.2844,1392.7699,2323.1753,1395.1984,2320.7468,1390.0894,2321.5,1399.9094" style="stroke:#181818;stroke-width:1.0;"/></g><!--link NotificationManagementService to Notification--><g id="link_NotificationManagementService_Notification"><path codeLine="135" d="M2264.29,1476.1694 C2244.54,1495.4594 2223.46,1520.8094 2213,1548.6094 C2199.71,1583.9394 2215.01,1624.8894 2231.61,1654.7494 " fill="none" id="NotificationManagementService-to-Notification" style="stroke:#181818;stroke-width:1.0;stroke-dasharray:7.0,7.0;"/><polygon fill="#181818" points="2234.28,1659.4494,2233.3051,1649.6489,2231.807,1655.1038,2226.3521,1653.6057,2234.28,1659.4494" style="stroke:#181818;stroke-width:1.0;"/></g><!--link NotificationManagementService to NotificationRepository--><g id="link_NotificationManagementService_NotificationRepository"><path codeLine="136" d="M2318.47,1476.4394 C2323.83,1497.5694 2330.45,1523.6294 2335.45,1543.3694 " fill="none" id="NotificationManagementService-to-NotificationRepository" style="stroke:#181818;stroke-width:1.0;"/><polygon fill="#181818" points="2336.69,1548.2494,2338.3541,1538.5421,2335.4605,1543.4029,2330.5997,1540.5093,2336.69,1548.2494" style="stroke:#181818;stroke-width:1.0;"/></g><!--link NotificationRepository to Notification--><g id="link_NotificationRepository_Notification"><path codeLine="137" d="M2326.2,1599.6994 C2315.28,1615.6794 2300.77,1636.9294 2288.12,1655.4494 " fill="none" id="NotificationRepository-to-Notification" style="stroke:#181818;stroke-width:1.0;"/><polygon fill="#181818" points="2285.28,1659.5994,2293.6666,1654.4355,2288.106,1655.4746,2287.0669,1649.914,2285.28,1659.5994" style="stroke:#181818;stroke-width:1.0;"/></g><!--link NotifyCandidateOnApplicationStatusChangedController to ApplicationStatusChangedEvent--><g id="link_NotifyCandidateOnApplicationStatusChangedController_ApplicationStatusChangedEvent"><path codeLine="139" d="M2511.39,1191.6894 C2523.09,1215.0194 2535.83,1240.4094 2545.33,1259.3494 " fill="none" id="NotifyCandidateOnApplicationStatusChangedController-to-ApplicationStatusChangedEvent" style="stroke:#181818;stroke-width:1.0;"/><polygon fill="#181818" points="2547.67,1264.0194,2547.2102,1254.1813,2545.4282,1259.5501,2540.0594,1257.7681,2547.67,1264.0194" style="stroke:#181818;stroke-width:1.0;"/></g><!--link PublishingResultJobOpeningController to RankRepository--><g id="link_PublishingResultJobOpeningController_RankRepository"><path codeLine="140" d="M1190.21,681.6394 C1358.05,752.2094 1586.16,848.1094 1712.02,901.0194 " fill="none" id="PublishingResultJobOpeningController-to-RankRepository" style="stroke:#181818;stroke-width:1.0;"/><polygon fill="#181818" points="1716.82,903.0394,1710.0665,895.8706,1712.2089,901.1061,1706.9734,903.2485,1716.82,903.0394" style="stroke:#181818;stroke-width:1.0;"/></g><!--link PublishingResultJobOpeningController to Rank--><g id="link_PublishingResultJobOpeningController_Rank"><path codeLine="141" d="M1118.02,681.6394 C1145.15,700.5794 1172.98,721.0994 1198,741.6094 C1259.43,791.9594 1323.95,857.5694 1363.34,899.2794 " fill="none" id="PublishingResultJobOpeningController-to-Rank" style="stroke:#181818;stroke-width:1.0;stroke-dasharray:7.0,7.0;"/><polygon fill="#181818" points="1366.83,902.9894,1363.5745,893.6941,1363.4032,899.3484,1357.7489,899.177,1366.83,902.9894" style="stroke:#181818;stroke-width:1.0;"/></g><!--link Rank to RankOrder--><g id="link_Rank_RankOrder"><path codeLine="142" d="M1424.07,979.5494 C1440.63,1006.4194 1463.19,1043.0294 1481.7,1073.0594 " fill="none" id="Rank-to-RankOrder" style="stroke:#181818;stroke-width:1.0;"/><polygon fill="#181818" points="1484.4,1077.4494,1483.0752,1067.69,1481.7731,1073.195,1476.2682,1071.893,1484.4,1077.4494" style="stroke:#181818;stroke-width:1.0;"/><text fill="#000000" font-family="sans-serif" font-size="20" lengthAdjust="spacing" textLength="31" x="1447.4934" y="1065.0987">1..*</text></g><!--link RankOrder to Application--><g id="link_RankOrder_Application"><path codeLine="143" d="M1494.78,1178.9394 C1472.1,1234.8294 1435.43,1325.1794 1412.03,1382.8294 " fill="none" id="RankOrder-to-Application" style="stroke:#181818;stroke-width:1.0;"/><polygon fill="#181818" points="1410.09,1387.6094,1417.1719,1380.7649,1411.9642,1382.9739,1409.7552,1377.7662,1410.09,1387.6094" style="stroke:#181818;stroke-width:1.0;"/><text fill="#000000" font-family="sans-serif" font-size="20" lengthAdjust="spacing" textLength="11" x="1400.9593" y="1375.2792">1</text></g><!--link Rank to ApplicationRepository--><g id="link_Rank_ApplicationRepository"><path codeLine="144" d="M1377.93,979.5494 C1359.02,1010.2394 1332.27,1053.6494 1312.68,1085.4394 " fill="none" id="Rank-to-ApplicationRepository" style="stroke:#181818;stroke-width:1.0;"/><polygon fill="#181818" points="1309.84,1090.0394,1317.9718,1084.483,1312.4669,1085.785,1311.1648,1080.28,1309.84,1090.0394" style="stroke:#181818;stroke-width:1.0;"/></g><!--link Rank to ApplicationStatusChangedEvent--><g id="link_Rank_ApplicationStatusChangedEvent"><path codeLine="145" d="M1504.25,979.1194 C1649.21,1030.3894 1921.78,1124.2994 2158,1191.6094 C2252.93,1218.6594 2361.83,1244.6294 2442.33,1262.8794 " fill="none" id="Rank-to-ApplicationStatusChangedEvent" style="stroke:#181818;stroke-width:1.0;stroke-dasharray:7.0,7.0;"/><polygon fill="#181818" points="2447.59,1264.0694,2439.6921,1258.1853,2442.7128,1262.9681,2437.93,1265.9888,2447.59,1264.0694" style="stroke:#181818;stroke-width:1.0;"/></g><!--link PublishingResultJobOpeningController to EventPublisher--><g id="link_PublishingResultJobOpeningController_EventPublisher"><path codeLine="147" d="M598.78,681.6294 C550.66,699.4794 512.22,719.6094 495,741.6094 C422.93,833.6894 448.38,894.5894 488,1004.6094 C522.36,1100.0294 604.23,1186.1394 661.62,1237.8994 " fill="none" id="PublishingResultJobOpeningController-to-EventPublisher" style="stroke:#181818;stroke-width:1.0;"/><polygon fill="none" points="666.38,1232.7694,676.74,1251.2594,657.12,1243.2594,666.38,1232.7694" style="stroke:#181818;stroke-width:1.0;"/></g><!--reverse link JobOpeningManagementService to PublishingResultJobOpeningController--><g id="link_JobOpeningManagementService_PublishingResultJobOpeningController"><path codeLine="148" d="M1908.53,445.2894 C1779.17,462.3294 1625.93,483.3694 1488,504.6094 C1480.07,505.8294 1472.07,507.0694 1464.02,508.3394 " fill="none" id="JobOpeningManagementService-backto-PublishingResultJobOpeningController" style="stroke:#181818;stroke-width:1.0;"/><polygon fill="#181818" points="1913.51,444.6394,1904.0703,441.83,1908.5515,445.2824,1905.0992,449.7636,1913.51,444.6394" style="stroke:#181818;stroke-width:1.0;"/></g><!--link JobOpeningRepository to DomainRepository--><g id="link_JobOpeningRepository_DomainRepository"><path codeLine="149" d="M1972.61,631.5594 C2000.32,694.0494 2051,824.1594 2051,940.1094 C2051,940.1094 2051,940.1094 2051,1129.1094 C2051,1231.6394 1966.73,1319.6594 1896.84,1375.0294 " fill="none" id="JobOpeningRepository-to-DomainRepository" style="stroke:#181818;stroke-width:1.0;stroke-dasharray:7.0,7.0;"/><polygon fill="none" points="1900.93,1380.7094,1880.82,1387.3694,1892.39,1369.6194,1900.93,1380.7094" style="stroke:#181818;stroke-width:1.0;"/></g><!--link JobOpeningRepository to JobOpening--><g id="link_JobOpeningRepository_JobOpening"><path codeLine="150" d="M2008.83,631.1394 C2104.1,696.6694 2301.6,832.5294 2399.86,900.1194 " fill="none" id="JobOpeningRepository-to-JobOpening" style="stroke:#181818;stroke-width:1.0;stroke-dasharray:7.0,7.0;"/><polygon fill="#181818" points="2404.18,903.0894,2399.0162,894.7028,2400.0552,900.2634,2394.4946,901.3024,2404.18,903.0894" style="stroke:#181818;stroke-width:1.0;"/></g><!--SRC=[hLRVRzCm47xtNs6D1p9eku5uG6YgD5egXe2YbS6pwrnRizIERATJ6Vpld9sqST8ipIRwLD_TTx_zEUPMo9HfjauKluMOnh1WMM8dIjgP-0tqzJbvlh8sDU_EpjA4IPkjam5NwpEUC6FwiM1B11DYXKs0tinUdRy-ftqwSbewtca9ONDZDUEMUXozB8utL_IUKFmzex6QhTHTT5eSJNXOCo4_AvMYu2yXkOjlsJmHPYNayXeCfln9pQSfI3nxfozBXnqW8wnNgoG1JJrs2O7oip0sEgNlwA-AQ6mLMgQvpzpXHEaI5fNcQ7fA-jI0Z3zWBKd4CsFL6lGN9jaIj1VsA6So5Z6pK9pHmJKiG8FaqAEP0VqDoxXJEkxahP0MHyOvf1RYKHua1bV3iHYLwaoreZ926DUtcmXfGIyO1tgPfedWp0ebho5LHbYbjxx7XcqWOgKw65G0ygPvxe4Kf_gIQlW5l2Rz6yQcrqpUrg9g54qNrIdj6-26x31b9kw4k3xz59W5Yt1fZE82HnO7sMTsfRJuxNEQWTu8XBZO84scmQb1MfSpn3VOy8_CNChjT17X1eAfDt2itFRNgb2BgzZvi5lV2T_AMl5bYJLicRovalbatIfC5wFgEEjhvLALREsRT8LHs3o1YpBA4CFdzPUo7Bd6J8is_A_u3X34ncri2Z_-FWtYSYKteErtXUAeUfMxk_GTj0grKNrG7pPOPq4neD6kk3pUi6Rs4IzXuesKz8AQKJvqhxdtOV8yTXqg9-eB2ozwsSO8QJfbSZjICVXSduVNQcQPpT3ZYiabyhuFTNZxSgl2w2UpV3LMo_l6YrentMUUctrLLYosenszJUL3k9A7NM6o1biKLZaav8x3u8wzaCLdO0pgHnhyVM69YPm6Z6L-E1XG8eauyiYA_UhHTC-0bG8EQEo-KT-uz1gMk5-WGyDZ1JGvz_ltE2U5bmcsLTtTf6N5GNh7tX8D7CHcTxGg5Rm7xlzx5MyT0_546GYQwMIFRRBZsgcEyGs-k8X-z9vD9c_Vlpa_fHkMP43LtB7zSEZPM3cp7qxk2Wo-9Yx-zFkjdmQ4j7uu3FhzOQVlX3O_mTU4SzVq7Zm6tlI2aXQIzQWc-dy4gAJELj2W0Y9D-BfDymV1e5RfmsP_XWTF8gczyuD68z9ALXNNEHjwjzWN9w-IEpb6aSxR7bQGVIVGy2bSsT5pQ_sT5n8TFKWbtPVwy2KZJoWyJwULV4chDcZvRl7QxUlczVmFL_OWm1CBFJQ_pgslNfPkkC4EkBiJGthoQZ1uSLAIDYdfErUVLExp7jTCPrxztxQKDjtPRWtAqWfT7UvJutTrC-CyO5hbmty0]--></g></svg>