<?xml version="1.0" encoding="UTF-8" standalone="no"?><svg xmlns="http://www.w3.org/2000/svg" xmlns:xlink="http://www.w3.org/1999/xlink" contentStyleType="text/css" height="1879px" preserveAspectRatio="none" style="width:3640px;height:1879px;background:#FFFFFF;" version="1.1" viewBox="0 0 3640 1879" width="3640px" zoomAndPan="magnify"><defs/><g><text fill="#000000" font-family="sans-serif" font-size="14" font-weight="bold" lengthAdjust="spacing" textLength="163" x="1731.75" y="24.5332">US1020 - Class Diagram</text><!--class AbstractUI--><g id="elem_AbstractUI"><rect codeLine="7" fill="#F1F1F1" height="126.625" id="AbstractUI" rx="2.5" ry="2.5" style="stroke:#181818;stroke-width:0.5;" width="126" x="383" y="45.6094"/><ellipse cx="399.45" cy="63.1875" fill="#A9DCDF" rx="12" ry="12" style="stroke:#181818;stroke-width:1.0;"/><path d="M401.9031,65.2188 L397.0281,65.2188 L396.5438,66.4375 L397.0281,66.4375 Q397.7625,66.4375 398.0594,66.7188 Q398.3719,66.9844 398.3719,67.4375 Q398.3719,67.875 398.0594,68.1563 Q397.7625,68.4375 397.0281,68.4375 L394.3406,68.4375 Q393.6219,68.4375 393.3094,68.1563 Q392.9969,67.875 392.9969,67.4375 Q392.9969,66.9844 393.325,66.7031 Q393.6531,66.4219 394.3875,66.4375 L397.5281,58.6094 L396.2313,58.6094 Q395.4969,58.6094 395.1844,58.3281 Q394.8875,58.0469 394.8875,57.5938 Q394.8875,57.1406 395.1844,56.875 Q395.4969,56.5938 396.2313,56.5938 L400.5438,56.5938 L404.5281,66.4375 Q405.2313,66.4375 405.4656,66.5938 Q405.9188,66.9063 405.9188,67.4375 Q405.9188,67.875 405.6063,68.1563 Q405.3094,68.4375 404.5906,68.4375 L401.8875,68.4375 Q401.1688,68.4375 400.8563,68.1563 Q400.5438,67.875 400.5438,67.4375 Q400.5438,66.9844 400.8563,66.7188 Q401.1688,66.4375 401.8875,66.4375 L402.3719,66.4375 L401.9031,65.2188 Z M401.075,63.2188 L399.45,59.25 L397.8406,63.2188 L401.075,63.2188 Z " fill="#000000"/><text fill="#000000" font-family="sans-serif" font-size="20" font-style="italic" lengthAdjust="spacing" textLength="91" x="414.55" y="71.3711">AbstractUI</text><line style="stroke:#181818;stroke-width:0.5;" x1="384" x2="508" y1="80.7656" y2="80.7656"/><line style="stroke:#181818;stroke-width:0.5;" x1="384" x2="508" y1="88.7656" y2="88.7656"/><polygon fill="#FFFF44" points="394,101.8438,398,105.8438,394,109.8438,390,105.8438" style="stroke:#B38D22;stroke-width:1.0;"/><text fill="#000000" font-family="sans-serif" font-size="20" lengthAdjust="spacing" textLength="85" x="404" y="113.5273">doShow()</text><polygon fill="#FFFF44" points="394,127,398,131,394,135,390,131" style="stroke:#B38D22;stroke-width:1.0;"/><text fill="#000000" font-family="sans-serif" font-size="20" lengthAdjust="spacing" textLength="60" x="404" y="138.6836">show()</text><polygon fill="#FFFF44" points="394,152.1563,398,156.1563,394,160.1563,390,156.1563" style="stroke:#B38D22;stroke-width:1.0;"/><text fill="#000000" font-family="sans-serif" font-size="20" lengthAdjust="spacing" textLength="99" x="404" y="163.8398">mainLoop()</text></g><!--class PublishingResultJobOpeningUI--><g id="elem_PublishingResultJobOpeningUI"><rect codeLine="13" fill="#F1F1F1" height="76.3125" id="PublishingResultJobOpeningUI" rx="2.5" ry="2.5" style="stroke:#181818;stroke-width:0.5;" width="300" x="296" y="232.6094"/><ellipse cx="312" cy="250.1875" fill="#ADD1B2" rx="12" ry="12" style="stroke:#181818;stroke-width:1.0;"/><path d="M314.1406,245.1094 Q314.3281,244.8594 314.5469,244.7344 Q314.7656,244.5938 315.0156,244.5938 Q315.4531,244.5938 315.7344,244.9063 Q316.0156,245.2031 316.0156,245.9219 L316.0156,247.625 Q316.0156,248.3438 315.7344,248.6563 Q315.4531,248.9688 315.0156,248.9688 Q314.625,248.9688 314.375,248.7344 Q314.125,248.5156 314.0156,247.9063 Q313.9531,247.4844 313.7344,247.2656 Q313.3438,246.8281 312.625,246.5625 Q311.9063,246.2969 311.1875,246.2969 Q310.2813,246.2969 309.5313,246.6875 Q308.7813,247.0781 308.2031,247.9688 Q307.625,248.8438 307.625,250.0469 L307.625,251.3438 Q307.625,252.7969 308.6719,253.7656 Q309.7344,254.7344 311.5938,254.7344 Q312.7031,254.7344 313.4844,254.4219 Q313.9219,254.25 314.4375,253.7344 Q314.75,253.4219 314.9219,253.3281 Q315.0938,253.2344 315.3281,253.2344 Q315.7188,253.2344 316.0156,253.5469 Q316.3281,253.8438 316.3281,254.25 Q316.3281,254.6563 315.9219,255.125 Q315.3281,255.8125 314.3906,256.2031 Q313.125,256.7344 311.6094,256.7344 Q309.8281,256.7344 308.4063,256 Q307.25,255.4063 306.4375,254.1406 Q305.625,252.875 305.625,251.3906 L305.625,250.0313 Q305.625,248.4688 306.3438,247.125 Q307.0781,245.7656 308.3594,245.0313 Q309.6563,244.2969 311.1094,244.2969 Q311.9688,244.2969 312.7188,244.5 Q313.4844,244.7031 314.1406,245.1094 Z " fill="#000000"/><text fill="#000000" font-family="sans-serif" font-size="20" lengthAdjust="spacing" textLength="266" x="327" y="258.3711">PublishingResultJobOpeningUI</text><line style="stroke:#181818;stroke-width:0.5;" x1="297" x2="595" y1="267.7656" y2="267.7656"/><line style="stroke:#181818;stroke-width:0.5;" x1="297" x2="595" y1="275.7656" y2="275.7656"/><ellipse cx="307" cy="293.8438" fill="#84BE84" rx="3" ry="3" style="stroke:#038048;stroke-width:1.0;"/><text fill="#000000" font-family="sans-serif" font-size="20" lengthAdjust="spacing" textLength="85" x="317" y="300.5273">doShow()</text></g><!--class PublishingResultJobOpeningController--><g id="elem_PublishingResultJobOpeningController"><rect codeLine="17" fill="#F1F1F1" height="126.625" id="PublishingResultJobOpeningController" rx="2.5" ry="2.5" style="stroke:#181818;stroke-width:0.5;" width="515" x="188.5" y="504.6094"/><ellipse cx="275.5" cy="522.1875" fill="#ADD1B2" rx="12" ry="12" style="stroke:#181818;stroke-width:1.0;"/><path d="M277.6406,517.1094 Q277.8281,516.8594 278.0469,516.7344 Q278.2656,516.5938 278.5156,516.5938 Q278.9531,516.5938 279.2344,516.9063 Q279.5156,517.2031 279.5156,517.9219 L279.5156,519.625 Q279.5156,520.3438 279.2344,520.6563 Q278.9531,520.9688 278.5156,520.9688 Q278.125,520.9688 277.875,520.7344 Q277.625,520.5156 277.5156,519.9063 Q277.4531,519.4844 277.2344,519.2656 Q276.8438,518.8281 276.125,518.5625 Q275.4063,518.2969 274.6875,518.2969 Q273.7813,518.2969 273.0313,518.6875 Q272.2813,519.0781 271.7031,519.9688 Q271.125,520.8438 271.125,522.0469 L271.125,523.3438 Q271.125,524.7969 272.1719,525.7656 Q273.2344,526.7344 275.0938,526.7344 Q276.2031,526.7344 276.9844,526.4219 Q277.4219,526.25 277.9375,525.7344 Q278.25,525.4219 278.4219,525.3281 Q278.5938,525.2344 278.8281,525.2344 Q279.2188,525.2344 279.5156,525.5469 Q279.8281,525.8438 279.8281,526.25 Q279.8281,526.6563 279.4219,527.125 Q278.8281,527.8125 277.8906,528.2031 Q276.625,528.7344 275.1094,528.7344 Q273.3281,528.7344 271.9063,528 Q270.75,527.4063 269.9375,526.1406 Q269.125,524.875 269.125,523.3906 L269.125,522.0313 Q269.125,520.4688 269.8438,519.125 Q270.5781,517.7656 271.8594,517.0313 Q273.1563,516.2969 274.6094,516.2969 Q275.4688,516.2969 276.2188,516.5 Q276.9844,516.7031 277.6406,517.1094 Z " fill="#000000"/><text fill="#000000" font-family="sans-serif" font-size="20" lengthAdjust="spacing" textLength="332" x="297.5" y="530.3711">PublishingResultJobOpeningController</text><line style="stroke:#181818;stroke-width:0.5;" x1="189.5" x2="702.5" y1="539.7656" y2="539.7656"/><line style="stroke:#181818;stroke-width:0.5;" x1="189.5" x2="702.5" y1="547.7656" y2="547.7656"/><ellipse cx="199.5" cy="565.8438" fill="#84BE84" rx="3" ry="3" style="stroke:#038048;stroke-width:1.0;"/><text fill="#000000" font-family="sans-serif" font-size="20" lengthAdjust="spacing" textLength="357" x="209.5" y="572.5273">getJobOpeningList() : jobOpeningListDto</text><ellipse cx="199.5" cy="591" fill="#84BE84" rx="3" ry="3" style="stroke:#038048;stroke-width:1.0;"/><text fill="#000000" font-family="sans-serif" font-size="20" lengthAdjust="spacing" textLength="394" x="209.5" y="597.6836">publishResultForJobOpening(jobOpeningDto)</text><rect fill="#F24D5C" height="6" style="stroke:#C82930;stroke-width:1.0;" width="6" x="196.5" y="613.1563"/><text fill="#000000" font-family="sans-serif" font-size="20" lengthAdjust="spacing" textLength="488" x="209.5" y="622.8398">publishResults(jobOpeningDto, customerManagerEmail)</text></g><!--class ApplicationRepository--><g id="elem_ApplicationRepository"><rect codeLine="24" fill="#F1F1F1" height="76.3125" id="ApplicationRepository" rx="2.5" ry="2.5" style="stroke:#181818;stroke-width:0.5;" width="227" x="997.5" y="989.1094"/><ellipse cx="1013.5" cy="1006.6875" fill="#B4A7E5" rx="12" ry="12" style="stroke:#181818;stroke-width:1.0;"/><path d="M1014.5,1002.8594 L1014.5,1010.6875 L1016.5313,1010.6875 Q1017.25,1010.6875 1017.5469,1010.9688 Q1017.8594,1011.2344 1017.8594,1011.6875 Q1017.8594,1012.125 1017.5469,1012.4063 Q1017.25,1012.6875 1016.5313,1012.6875 L1010.4844,1012.6875 Q1009.75,1012.6875 1009.4375,1012.4063 Q1009.1406,1012.125 1009.1406,1011.6875 Q1009.1406,1011.2344 1009.4375,1010.9688 Q1009.75,1010.6875 1010.4844,1010.6875 L1012.5,1010.6875 L1012.5,1002.8594 L1010.4844,1002.8594 Q1009.75,1002.8594 1009.4375,1002.5781 Q1009.1406,1002.2969 1009.1406,1001.8438 Q1009.1406,1001.3906 1009.4375,1001.125 Q1009.75,1000.8438 1010.4844,1000.8438 L1016.5313,1000.8438 Q1017.25,1000.8438 1017.5469,1001.125 Q1017.8594,1001.3906 1017.8594,1001.8438 Q1017.8594,1002.2969 1017.5469,1002.5781 Q1017.25,1002.8594 1016.5313,1002.8594 L1014.5,1002.8594 Z " fill="#000000"/><text fill="#000000" font-family="sans-serif" font-size="20" font-style="italic" lengthAdjust="spacing" textLength="193" x="1028.5" y="1014.8711">ApplicationRepository</text><line style="stroke:#181818;stroke-width:0.5;" x1="998.5" x2="1223.5" y1="1024.2656" y2="1024.2656"/><line style="stroke:#181818;stroke-width:0.5;" x1="998.5" x2="1223.5" y1="1032.2656" y2="1032.2656"/><ellipse cx="1008.5" cy="1050.3438" fill="#84BE84" rx="3" ry="3" style="stroke:#038048;stroke-width:1.0;"/><text fill="#000000" font-family="sans-serif" font-size="20" lengthAdjust="spacing" textLength="148" x="1018.5" y="1057.0273">save(application)</text></g><!--class Application--><g id="elem_Application"><rect codeLine="28" fill="#F1F1F1" height="101.4688" id="Application" rx="2.5" ry="2.5" style="stroke:#181818;stroke-width:0.5;" width="195" x="1150.5" y="1337.6094"/><ellipse cx="1196.2" cy="1355.1875" fill="#ADD1B2" rx="12" ry="12" style="stroke:#181818;stroke-width:1.0;"/><path d="M1198.3406,1350.1094 Q1198.5281,1349.8594 1198.7469,1349.7344 Q1198.9656,1349.5938 1199.2156,1349.5938 Q1199.6531,1349.5938 1199.9344,1349.9063 Q1200.2156,1350.2031 1200.2156,1350.9219 L1200.2156,1352.625 Q1200.2156,1353.3438 1199.9344,1353.6563 Q1199.6531,1353.9688 1199.2156,1353.9688 Q1198.825,1353.9688 1198.575,1353.7344 Q1198.325,1353.5156 1198.2156,1352.9063 Q1198.1531,1352.4844 1197.9344,1352.2656 Q1197.5438,1351.8281 1196.825,1351.5625 Q1196.1063,1351.2969 1195.3875,1351.2969 Q1194.4813,1351.2969 1193.7313,1351.6875 Q1192.9813,1352.0781 1192.4031,1352.9688 Q1191.825,1353.8438 1191.825,1355.0469 L1191.825,1356.3438 Q1191.825,1357.7969 1192.8719,1358.7656 Q1193.9344,1359.7344 1195.7938,1359.7344 Q1196.9031,1359.7344 1197.6844,1359.4219 Q1198.1219,1359.25 1198.6375,1358.7344 Q1198.95,1358.4219 1199.1219,1358.3281 Q1199.2938,1358.2344 1199.5281,1358.2344 Q1199.9188,1358.2344 1200.2156,1358.5469 Q1200.5281,1358.8438 1200.5281,1359.25 Q1200.5281,1359.6563 1200.1219,1360.125 Q1199.5281,1360.8125 1198.5906,1361.2031 Q1197.325,1361.7344 1195.8094,1361.7344 Q1194.0281,1361.7344 1192.6063,1361 Q1191.45,1360.4063 1190.6375,1359.1406 Q1189.825,1357.875 1189.825,1356.3906 L1189.825,1355.0313 Q1189.825,1353.4688 1190.5438,1352.125 Q1191.2781,1350.7656 1192.5594,1350.0313 Q1193.8563,1349.2969 1195.3094,1349.2969 Q1196.1688,1349.2969 1196.9188,1349.5 Q1197.6844,1349.7031 1198.3406,1350.1094 Z " fill="#000000"/><text fill="#000000" font-family="sans-serif" font-size="20" lengthAdjust="spacing" textLength="95" x="1217.8" y="1363.3711">Application</text><line style="stroke:#181818;stroke-width:0.5;" x1="1151.5" x2="1344.5" y1="1372.7656" y2="1372.7656"/><line style="stroke:#181818;stroke-width:0.5;" x1="1151.5" x2="1344.5" y1="1380.7656" y2="1380.7656"/><ellipse cx="1161.5" cy="1398.8438" fill="#84BE84" rx="3" ry="3" style="stroke:#038048;stroke-width:1.0;"/><text fill="#000000" font-family="sans-serif" font-size="20" lengthAdjust="spacing" textLength="168" x="1171.5" y="1405.5273">acceptApplication()</text><ellipse cx="1161.5" cy="1424" fill="#84BE84" rx="3" ry="3" style="stroke:#038048;stroke-width:1.0;"/><text fill="#000000" font-family="sans-serif" font-size="20" lengthAdjust="spacing" textLength="158" x="1171.5" y="1430.6836">rejectApplication()</text></g><!--class RankRepository--><g id="elem_RankRepository"><rect codeLine="33" fill="#F1F1F1" height="76.3125" id="RankRepository" rx="2.5" ry="2.5" style="stroke:#181818;stroke-width:0.5;" width="386" x="7" y="827.6094"/><ellipse cx="125" cy="845.1875" fill="#B4A7E5" rx="12" ry="12" style="stroke:#181818;stroke-width:1.0;"/><path d="M126,841.3594 L126,849.1875 L128.0313,849.1875 Q128.75,849.1875 129.0469,849.4688 Q129.3594,849.7344 129.3594,850.1875 Q129.3594,850.625 129.0469,850.9063 Q128.75,851.1875 128.0313,851.1875 L121.9844,851.1875 Q121.25,851.1875 120.9375,850.9063 Q120.6406,850.625 120.6406,850.1875 Q120.6406,849.7344 120.9375,849.4688 Q121.25,849.1875 121.9844,849.1875 L124,849.1875 L124,841.3594 L121.9844,841.3594 Q121.25,841.3594 120.9375,841.0781 Q120.6406,840.7969 120.6406,840.3438 Q120.6406,839.8906 120.9375,839.625 Q121.25,839.3438 121.9844,839.3438 L128.0313,839.3438 Q128.75,839.3438 129.0469,839.625 Q129.3594,839.8906 129.3594,840.3438 Q129.3594,840.7969 129.0469,841.0781 Q128.75,841.3594 128.0313,841.3594 L126,841.3594 Z " fill="#000000"/><text fill="#000000" font-family="sans-serif" font-size="20" font-style="italic" lengthAdjust="spacing" textLength="141" x="147" y="853.3711">RankRepository</text><line style="stroke:#181818;stroke-width:0.5;" x1="8" x2="392" y1="862.7656" y2="862.7656"/><line style="stroke:#181818;stroke-width:0.5;" x1="8" x2="392" y1="870.7656" y2="870.7656"/><ellipse cx="18" cy="888.8438" fill="#84BE84" rx="3" ry="3" style="stroke:#038048;stroke-width:1.0;"/><text fill="#000000" font-family="sans-serif" font-size="20" lengthAdjust="spacing" textLength="359" x="28" y="895.5273">rankOfJobOpening(jobReference) : Rank</text></g><!--class Rank--><g id="elem_Rank"><rect codeLine="37" fill="#F1F1F1" height="76.3125" id="Rank" rx="2.5" ry="2.5" style="stroke:#181818;stroke-width:0.5;" width="352" x="1185" y="827.6094"/><ellipse cx="1334" cy="845.1875" fill="#ADD1B2" rx="12" ry="12" style="stroke:#181818;stroke-width:1.0;"/><path d="M1336.1406,840.1094 Q1336.3281,839.8594 1336.5469,839.7344 Q1336.7656,839.5938 1337.0156,839.5938 Q1337.4531,839.5938 1337.7344,839.9063 Q1338.0156,840.2031 1338.0156,840.9219 L1338.0156,842.625 Q1338.0156,843.3438 1337.7344,843.6563 Q1337.4531,843.9688 1337.0156,843.9688 Q1336.625,843.9688 1336.375,843.7344 Q1336.125,843.5156 1336.0156,842.9063 Q1335.9531,842.4844 1335.7344,842.2656 Q1335.3438,841.8281 1334.625,841.5625 Q1333.9063,841.2969 1333.1875,841.2969 Q1332.2813,841.2969 1331.5313,841.6875 Q1330.7813,842.0781 1330.2031,842.9688 Q1329.625,843.8438 1329.625,845.0469 L1329.625,846.3438 Q1329.625,847.7969 1330.6719,848.7656 Q1331.7344,849.7344 1333.5938,849.7344 Q1334.7031,849.7344 1335.4844,849.4219 Q1335.9219,849.25 1336.4375,848.7344 Q1336.75,848.4219 1336.9219,848.3281 Q1337.0938,848.2344 1337.3281,848.2344 Q1337.7188,848.2344 1338.0156,848.5469 Q1338.3281,848.8438 1338.3281,849.25 Q1338.3281,849.6563 1337.9219,850.125 Q1337.3281,850.8125 1336.3906,851.2031 Q1335.125,851.7344 1333.6094,851.7344 Q1331.8281,851.7344 1330.4063,851 Q1329.25,850.4063 1328.4375,849.1406 Q1327.625,847.875 1327.625,846.3906 L1327.625,845.0313 Q1327.625,843.4688 1328.3438,842.125 Q1329.0781,840.7656 1330.3594,840.0313 Q1331.6563,839.2969 1333.1094,839.2969 Q1333.9688,839.2969 1334.7188,839.5 Q1335.4844,839.7031 1336.1406,840.1094 Z " fill="#000000"/><text fill="#000000" font-family="sans-serif" font-size="20" lengthAdjust="spacing" textLength="45" x="1356" y="853.3711">Rank</text><line style="stroke:#181818;stroke-width:0.5;" x1="1186" x2="1536" y1="862.7656" y2="862.7656"/><rect fill="none" height="6" style="stroke:#C82930;stroke-width:1.0;" width="6" x="1193" y="877.8438"/><text fill="#000000" font-family="sans-serif" font-size="20" lengthAdjust="spacing" textLength="325" x="1206" y="887.5273">JobReference jobOpeningAssociated</text><line style="stroke:#181818;stroke-width:0.5;" x1="1186" x2="1536" y1="895.9219" y2="895.9219"/></g><!--class AuthorizationService--><g id="elem_AuthorizationService"><rect codeLine="41" fill="#F1F1F1" height="76.3125" id="AuthorizationService" rx="2.5" ry="2.5" style="stroke:#181818;stroke-width:0.5;" width="392" x="499" y="691.6094"/><ellipse cx="602" cy="709.1875" fill="#ADD1B2" rx="12" ry="12" style="stroke:#181818;stroke-width:1.0;"/><path d="M604.1406,704.1094 Q604.3281,703.8594 604.5469,703.7344 Q604.7656,703.5938 605.0156,703.5938 Q605.4531,703.5938 605.7344,703.9063 Q606.0156,704.2031 606.0156,704.9219 L606.0156,706.625 Q606.0156,707.3438 605.7344,707.6563 Q605.4531,707.9688 605.0156,707.9688 Q604.625,707.9688 604.375,707.7344 Q604.125,707.5156 604.0156,706.9063 Q603.9531,706.4844 603.7344,706.2656 Q603.3438,705.8281 602.625,705.5625 Q601.9063,705.2969 601.1875,705.2969 Q600.2813,705.2969 599.5313,705.6875 Q598.7813,706.0781 598.2031,706.9688 Q597.625,707.8438 597.625,709.0469 L597.625,710.3438 Q597.625,711.7969 598.6719,712.7656 Q599.7344,713.7344 601.5938,713.7344 Q602.7031,713.7344 603.4844,713.4219 Q603.9219,713.25 604.4375,712.7344 Q604.75,712.4219 604.9219,712.3281 Q605.0938,712.2344 605.3281,712.2344 Q605.7188,712.2344 606.0156,712.5469 Q606.3281,712.8438 606.3281,713.25 Q606.3281,713.6563 605.9219,714.125 Q605.3281,714.8125 604.3906,715.2031 Q603.125,715.7344 601.6094,715.7344 Q599.8281,715.7344 598.4063,715 Q597.25,714.4063 596.4375,713.1406 Q595.625,711.875 595.625,710.3906 L595.625,709.0313 Q595.625,707.4688 596.3438,706.125 Q597.0781,704.7656 598.3594,704.0313 Q599.6563,703.2969 601.1094,703.2969 Q601.9688,703.2969 602.7188,703.5 Q603.4844,703.7031 604.1406,704.1094 Z " fill="#000000"/><text fill="#000000" font-family="sans-serif" font-size="20" lengthAdjust="spacing" textLength="177" x="624" y="717.3711">AuthorizationService</text><line style="stroke:#181818;stroke-width:0.5;" x1="500" x2="890" y1="726.7656" y2="726.7656"/><line style="stroke:#181818;stroke-width:0.5;" x1="500" x2="890" y1="734.7656" y2="734.7656"/><ellipse cx="510" cy="752.8438" fill="#84BE84" rx="3" ry="3" style="stroke:#038048;stroke-width:1.0;"/><text fill="#000000" font-family="sans-serif" font-size="20" lengthAdjust="spacing" textLength="365" x="520" y="759.5273">ensureAuthenticatedUserHasAnyOf(roles)</text></g><!--class DomainRepository--><g id="elem_DomainRepository"><rect codeLine="46" fill="#F1F1F1" height="101.4688" id="DomainRepository" rx="2.5" ry="2.5" style="stroke:#181818;stroke-width:0.5;" width="198" x="845" y="1337.6094"/><ellipse cx="861" cy="1355.1875" fill="#B4A7E5" rx="12" ry="12" style="stroke:#181818;stroke-width:1.0;"/><path d="M862,1351.3594 L862,1359.1875 L864.0313,1359.1875 Q864.75,1359.1875 865.0469,1359.4688 Q865.3594,1359.7344 865.3594,1360.1875 Q865.3594,1360.625 865.0469,1360.9063 Q864.75,1361.1875 864.0313,1361.1875 L857.9844,1361.1875 Q857.25,1361.1875 856.9375,1360.9063 Q856.6406,1360.625 856.6406,1360.1875 Q856.6406,1359.7344 856.9375,1359.4688 Q857.25,1359.1875 857.9844,1359.1875 L860,1359.1875 L860,1351.3594 L857.9844,1351.3594 Q857.25,1351.3594 856.9375,1351.0781 Q856.6406,1350.7969 856.6406,1350.3438 Q856.6406,1349.8906 856.9375,1349.625 Q857.25,1349.3438 857.9844,1349.3438 L864.0313,1349.3438 Q864.75,1349.3438 865.0469,1349.625 Q865.3594,1349.8906 865.3594,1350.3438 Q865.3594,1350.7969 865.0469,1351.0781 Q864.75,1351.3594 864.0313,1351.3594 L862,1351.3594 Z " fill="#000000"/><text fill="#000000" font-family="sans-serif" font-size="20" font-style="italic" lengthAdjust="spacing" textLength="164" x="876" y="1363.3711">DomainRepository</text><line style="stroke:#181818;stroke-width:0.5;" x1="846" x2="1042" y1="1372.7656" y2="1372.7656"/><line style="stroke:#181818;stroke-width:0.5;" x1="846" x2="1042" y1="1380.7656" y2="1380.7656"/><ellipse cx="856" cy="1398.8438" fill="#84BE84" rx="3" ry="3" style="stroke:#038048;stroke-width:1.0;"/><text fill="#000000" font-family="sans-serif" font-size="20" lengthAdjust="spacing" textLength="95" x="866" y="1405.5273">ofIdentity()</text><ellipse cx="856" cy="1424" fill="#84BE84" rx="3" ry="3" style="stroke:#038048;stroke-width:1.0;"/><text fill="#000000" font-family="sans-serif" font-size="20" lengthAdjust="spacing" textLength="55" x="866" y="1430.6836">save()</text></g><!--class JobOpeningRepository--><g id="elem_JobOpeningRepository"><rect codeLine="51" fill="#F1F1F1" height="76.3125" id="JobOpeningRepository" rx="2.5" ry="2.5" style="stroke:#181818;stroke-width:0.5;" width="899" x="738.5" y="530.1094"/><ellipse cx="1082" cy="547.6875" fill="#B4A7E5" rx="12" ry="12" style="stroke:#181818;stroke-width:1.0;"/><path d="M1083,543.8594 L1083,551.6875 L1085.0313,551.6875 Q1085.75,551.6875 1086.0469,551.9688 Q1086.3594,552.2344 1086.3594,552.6875 Q1086.3594,553.125 1086.0469,553.4063 Q1085.75,553.6875 1085.0313,553.6875 L1078.9844,553.6875 Q1078.25,553.6875 1077.9375,553.4063 Q1077.6406,553.125 1077.6406,552.6875 Q1077.6406,552.2344 1077.9375,551.9688 Q1078.25,551.6875 1078.9844,551.6875 L1081,551.6875 L1081,543.8594 L1078.9844,543.8594 Q1078.25,543.8594 1077.9375,543.5781 Q1077.6406,543.2969 1077.6406,542.8438 Q1077.6406,542.3906 1077.9375,542.125 Q1078.25,541.8438 1078.9844,541.8438 L1085.0313,541.8438 Q1085.75,541.8438 1086.0469,542.125 Q1086.3594,542.3906 1086.3594,542.8438 Q1086.3594,543.2969 1086.0469,543.5781 Q1085.75,543.8594 1085.0313,543.8594 L1083,543.8594 Z " fill="#000000"/><text fill="#000000" font-family="sans-serif" font-size="20" font-style="italic" lengthAdjust="spacing" textLength="203" x="1104" y="555.8711">JobOpeningRepository</text><line style="stroke:#181818;stroke-width:0.5;" x1="739.5" x2="1636.5" y1="565.2656" y2="565.2656"/><line style="stroke:#181818;stroke-width:0.5;" x1="739.5" x2="1636.5" y1="573.2656" y2="573.2656"/><ellipse cx="749.5" cy="591.3438" fill="#84BE84" rx="3" ry="3" style="stroke:#038048;stroke-width:1.0;"/><text fill="#000000" font-family="sans-serif" font-size="20" lengthAdjust="spacing" textLength="872" x="759.5" y="598.0273">jobOpeningsInResultListOfCustomerManager(customerManagerUsername) : Iterable&lt;JobOpening&gt;</text></g><!--class JobOpeningManagementService--><g id="elem_JobOpeningManagementService"><rect codeLine="54" fill="#F1F1F1" height="76.3125" id="JobOpeningManagementService" rx="2.5" ry="2.5" style="stroke:#181818;stroke-width:0.5;" width="894" x="1110" y="368.6094"/><ellipse cx="1410.5" cy="386.1875" fill="#ADD1B2" rx="12" ry="12" style="stroke:#181818;stroke-width:1.0;"/><path d="M1412.6406,381.1094 Q1412.8281,380.8594 1413.0469,380.7344 Q1413.2656,380.5938 1413.5156,380.5938 Q1413.9531,380.5938 1414.2344,380.9063 Q1414.5156,381.2031 1414.5156,381.9219 L1414.5156,383.625 Q1414.5156,384.3438 1414.2344,384.6563 Q1413.9531,384.9688 1413.5156,384.9688 Q1413.125,384.9688 1412.875,384.7344 Q1412.625,384.5156 1412.5156,383.9063 Q1412.4531,383.4844 1412.2344,383.2656 Q1411.8438,382.8281 1411.125,382.5625 Q1410.4063,382.2969 1409.6875,382.2969 Q1408.7813,382.2969 1408.0313,382.6875 Q1407.2813,383.0781 1406.7031,383.9688 Q1406.125,384.8438 1406.125,386.0469 L1406.125,387.3438 Q1406.125,388.7969 1407.1719,389.7656 Q1408.2344,390.7344 1410.0938,390.7344 Q1411.2031,390.7344 1411.9844,390.4219 Q1412.4219,390.25 1412.9375,389.7344 Q1413.25,389.4219 1413.4219,389.3281 Q1413.5938,389.2344 1413.8281,389.2344 Q1414.2188,389.2344 1414.5156,389.5469 Q1414.8281,389.8438 1414.8281,390.25 Q1414.8281,390.6563 1414.4219,391.125 Q1413.8281,391.8125 1412.8906,392.2031 Q1411.625,392.7344 1410.1094,392.7344 Q1408.3281,392.7344 1406.9063,392 Q1405.75,391.4063 1404.9375,390.1406 Q1404.125,388.875 1404.125,387.3906 L1404.125,386.0313 Q1404.125,384.4688 1404.8438,383.125 Q1405.5781,381.7656 1406.8594,381.0313 Q1408.1563,380.2969 1409.6094,380.2969 Q1410.4688,380.2969 1411.2188,380.5 Q1411.9844,380.7031 1412.6406,381.1094 Z " fill="#000000"/><text fill="#000000" font-family="sans-serif" font-size="20" lengthAdjust="spacing" textLength="284" x="1432.5" y="394.3711">JobOpeningManagementService</text><line style="stroke:#181818;stroke-width:0.5;" x1="1111" x2="2003" y1="403.7656" y2="403.7656"/><line style="stroke:#181818;stroke-width:0.5;" x1="1111" x2="2003" y1="411.7656" y2="411.7656"/><ellipse cx="1121" cy="429.8438" fill="#84BE84" rx="3" ry="3" style="stroke:#038048;stroke-width:1.0;"/><text fill="#000000" font-family="sans-serif" font-size="20" lengthAdjust="spacing" textLength="867" x="1131" y="436.5273">jobOpeningsInResultListOfCustomerManager(customerManagerUsername) : List&lt;JobOpeningDto&gt;</text></g><!--class JobOpeningDTOService--><g id="elem_JobOpeningDTOService"><rect codeLine="57" fill="#F1F1F1" height="76.3125" id="JobOpeningDTOService" rx="2.5" ry="2.5" style="stroke:#181818;stroke-width:0.5;" width="509" x="1672.5" y="530.1094"/><ellipse cx="1816.5" cy="547.6875" fill="#ADD1B2" rx="12" ry="12" style="stroke:#181818;stroke-width:1.0;"/><path d="M1818.6406,542.6094 Q1818.8281,542.3594 1819.0469,542.2344 Q1819.2656,542.0938 1819.5156,542.0938 Q1819.9531,542.0938 1820.2344,542.4063 Q1820.5156,542.7031 1820.5156,543.4219 L1820.5156,545.125 Q1820.5156,545.8438 1820.2344,546.1563 Q1819.9531,546.4688 1819.5156,546.4688 Q1819.125,546.4688 1818.875,546.2344 Q1818.625,546.0156 1818.5156,545.4063 Q1818.4531,544.9844 1818.2344,544.7656 Q1817.8438,544.3281 1817.125,544.0625 Q1816.4063,543.7969 1815.6875,543.7969 Q1814.7813,543.7969 1814.0313,544.1875 Q1813.2813,544.5781 1812.7031,545.4688 Q1812.125,546.3438 1812.125,547.5469 L1812.125,548.8438 Q1812.125,550.2969 1813.1719,551.2656 Q1814.2344,552.2344 1816.0938,552.2344 Q1817.2031,552.2344 1817.9844,551.9219 Q1818.4219,551.75 1818.9375,551.2344 Q1819.25,550.9219 1819.4219,550.8281 Q1819.5938,550.7344 1819.8281,550.7344 Q1820.2188,550.7344 1820.5156,551.0469 Q1820.8281,551.3438 1820.8281,551.75 Q1820.8281,552.1563 1820.4219,552.625 Q1819.8281,553.3125 1818.8906,553.7031 Q1817.625,554.2344 1816.1094,554.2344 Q1814.3281,554.2344 1812.9063,553.5 Q1811.75,552.9063 1810.9375,551.6406 Q1810.125,550.375 1810.125,548.8906 L1810.125,547.5313 Q1810.125,545.9688 1810.8438,544.625 Q1811.5781,543.2656 1812.8594,542.5313 Q1814.1563,541.7969 1815.6094,541.7969 Q1816.4688,541.7969 1817.2188,542 Q1817.9844,542.2031 1818.6406,542.6094 Z " fill="#000000"/><text fill="#000000" font-family="sans-serif" font-size="20" lengthAdjust="spacing" textLength="212" x="1838.5" y="555.8711">JobOpeningDTOService</text><line style="stroke:#181818;stroke-width:0.5;" x1="1673.5" x2="2180.5" y1="565.2656" y2="565.2656"/><line style="stroke:#181818;stroke-width:0.5;" x1="1673.5" x2="2180.5" y1="573.2656" y2="573.2656"/><ellipse cx="1683.5" cy="591.3438" fill="#84BE84" rx="3" ry="3" style="stroke:#038048;stroke-width:1.0;"/><text fill="#000000" font-family="sans-serif" font-size="20" lengthAdjust="spacing" textLength="482" x="1693.5" y="598.0273">convertToDTO(jobOpeningList) : List&lt;JobOpeningDto&gt;</text></g><!--class JobOpening--><g id="elem_JobOpening"><rect codeLine="60" fill="#F1F1F1" height="76.3125" id="JobOpening" rx="2.5" ry="2.5" style="stroke:#181818;stroke-width:0.5;" width="139" x="1666.5" y="827.6094"/><ellipse cx="1682.5" cy="845.1875" fill="#ADD1B2" rx="12" ry="12" style="stroke:#181818;stroke-width:1.0;"/><path d="M1684.6406,840.1094 Q1684.8281,839.8594 1685.0469,839.7344 Q1685.2656,839.5938 1685.5156,839.5938 Q1685.9531,839.5938 1686.2344,839.9063 Q1686.5156,840.2031 1686.5156,840.9219 L1686.5156,842.625 Q1686.5156,843.3438 1686.2344,843.6563 Q1685.9531,843.9688 1685.5156,843.9688 Q1685.125,843.9688 1684.875,843.7344 Q1684.625,843.5156 1684.5156,842.9063 Q1684.4531,842.4844 1684.2344,842.2656 Q1683.8438,841.8281 1683.125,841.5625 Q1682.4063,841.2969 1681.6875,841.2969 Q1680.7813,841.2969 1680.0313,841.6875 Q1679.2813,842.0781 1678.7031,842.9688 Q1678.125,843.8438 1678.125,845.0469 L1678.125,846.3438 Q1678.125,847.7969 1679.1719,848.7656 Q1680.2344,849.7344 1682.0938,849.7344 Q1683.2031,849.7344 1683.9844,849.4219 Q1684.4219,849.25 1684.9375,848.7344 Q1685.25,848.4219 1685.4219,848.3281 Q1685.5938,848.2344 1685.8281,848.2344 Q1686.2188,848.2344 1686.5156,848.5469 Q1686.8281,848.8438 1686.8281,849.25 Q1686.8281,849.6563 1686.4219,850.125 Q1685.8281,850.8125 1684.8906,851.2031 Q1683.625,851.7344 1682.1094,851.7344 Q1680.3281,851.7344 1678.9063,851 Q1677.75,850.4063 1676.9375,849.1406 Q1676.125,847.875 1676.125,846.3906 L1676.125,845.0313 Q1676.125,843.4688 1676.8438,842.125 Q1677.5781,840.7656 1678.8594,840.0313 Q1680.1563,839.2969 1681.6094,839.2969 Q1682.4688,839.2969 1683.2188,839.5 Q1683.9844,839.7031 1684.6406,840.1094 Z " fill="#000000"/><text fill="#000000" font-family="sans-serif" font-size="20" lengthAdjust="spacing" textLength="105" x="1697.5" y="853.3711">JobOpening</text><line style="stroke:#181818;stroke-width:0.5;" x1="1667.5" x2="1804.5" y1="862.7656" y2="862.7656"/><line style="stroke:#181818;stroke-width:0.5;" x1="1667.5" x2="1804.5" y1="870.7656" y2="870.7656"/><ellipse cx="1677.5" cy="888.8438" fill="#84BE84" rx="3" ry="3" style="stroke:#038048;stroke-width:1.0;"/><text fill="#000000" font-family="sans-serif" font-size="20" lengthAdjust="spacing" textLength="62" x="1687.5" y="895.5273">toDto()</text></g><!--class EventPublisher--><g id="elem_EventPublisher"><rect codeLine="65" fill="#F1F1F1" height="76.3125" id="EventPublisher" rx="2.5" ry="2.5" style="stroke:#181818;stroke-width:0.5;" width="168" x="1527" y="1176.1094"/><ellipse cx="1543" cy="1193.6875" fill="#B4A7E5" rx="12" ry="12" style="stroke:#181818;stroke-width:1.0;"/><path d="M1544,1189.8594 L1544,1197.6875 L1546.0313,1197.6875 Q1546.75,1197.6875 1547.0469,1197.9688 Q1547.3594,1198.2344 1547.3594,1198.6875 Q1547.3594,1199.125 1547.0469,1199.4063 Q1546.75,1199.6875 1546.0313,1199.6875 L1539.9844,1199.6875 Q1539.25,1199.6875 1538.9375,1199.4063 Q1538.6406,1199.125 1538.6406,1198.6875 Q1538.6406,1198.2344 1538.9375,1197.9688 Q1539.25,1197.6875 1539.9844,1197.6875 L1542,1197.6875 L1542,1189.8594 L1539.9844,1189.8594 Q1539.25,1189.8594 1538.9375,1189.5781 Q1538.6406,1189.2969 1538.6406,1188.8438 Q1538.6406,1188.3906 1538.9375,1188.125 Q1539.25,1187.8438 1539.9844,1187.8438 L1546.0313,1187.8438 Q1546.75,1187.8438 1547.0469,1188.125 Q1547.3594,1188.3906 1547.3594,1188.8438 Q1547.3594,1189.2969 1547.0469,1189.5781 Q1546.75,1189.8594 1546.0313,1189.8594 L1544,1189.8594 Z " fill="#000000"/><text fill="#000000" font-family="sans-serif" font-size="20" font-style="italic" lengthAdjust="spacing" textLength="134" x="1558" y="1201.8711">EventPublisher</text><line style="stroke:#181818;stroke-width:0.5;" x1="1528" x2="1694" y1="1211.2656" y2="1211.2656"/><line style="stroke:#181818;stroke-width:0.5;" x1="1528" x2="1694" y1="1219.2656" y2="1219.2656"/><ellipse cx="1538" cy="1237.3438" fill="#84BE84" rx="3" ry="3" style="stroke:#038048;stroke-width:1.0;"/><text fill="#000000" font-family="sans-serif" font-size="20" lengthAdjust="spacing" textLength="74" x="1548" y="1244.0273">publish()</text></g><!--class EventHandler--><g id="elem_EventHandler"><rect codeLine="68" fill="#F1F1F1" height="76.3125" id="EventHandler" rx="2.5" ry="2.5" style="stroke:#181818;stroke-width:0.5;" width="154" x="2713" y="1176.1094"/><ellipse cx="2729" cy="1193.6875" fill="#B4A7E5" rx="12" ry="12" style="stroke:#181818;stroke-width:1.0;"/><path d="M2730,1189.8594 L2730,1197.6875 L2732.0313,1197.6875 Q2732.75,1197.6875 2733.0469,1197.9688 Q2733.3594,1198.2344 2733.3594,1198.6875 Q2733.3594,1199.125 2733.0469,1199.4063 Q2732.75,1199.6875 2732.0313,1199.6875 L2725.9844,1199.6875 Q2725.25,1199.6875 2724.9375,1199.4063 Q2724.6406,1199.125 2724.6406,1198.6875 Q2724.6406,1198.2344 2724.9375,1197.9688 Q2725.25,1197.6875 2725.9844,1197.6875 L2728,1197.6875 L2728,1189.8594 L2725.9844,1189.8594 Q2725.25,1189.8594 2724.9375,1189.5781 Q2724.6406,1189.2969 2724.6406,1188.8438 Q2724.6406,1188.3906 2724.9375,1188.125 Q2725.25,1187.8438 2725.9844,1187.8438 L2732.0313,1187.8438 Q2732.75,1187.8438 2733.0469,1188.125 Q2733.3594,1188.3906 2733.3594,1188.8438 Q2733.3594,1189.2969 2733.0469,1189.5781 Q2732.75,1189.8594 2732.0313,1189.8594 L2730,1189.8594 Z " fill="#000000"/><text fill="#000000" font-family="sans-serif" font-size="20" font-style="italic" lengthAdjust="spacing" textLength="120" x="2744" y="1201.8711">EventHandler</text><line style="stroke:#181818;stroke-width:0.5;" x1="2714" x2="2866" y1="1211.2656" y2="1211.2656"/><line style="stroke:#181818;stroke-width:0.5;" x1="2714" x2="2866" y1="1219.2656" y2="1219.2656"/><ellipse cx="2724" cy="1237.3438" fill="#84BE84" rx="3" ry="3" style="stroke:#038048;stroke-width:1.0;"/><text fill="#000000" font-family="sans-serif" font-size="20" lengthAdjust="spacing" textLength="84" x="2734" y="1244.0273">onEvent()</text></g><!--class DomainEvent--><g id="elem_DomainEvent"><rect codeLine="71" fill="#F1F1F1" height="51.1563" id="DomainEvent" rx="2.5" ry="2.5" style="stroke:#181818;stroke-width:0.5;" width="153" x="2061.5" y="1821.6094"/><ellipse cx="2077.5" cy="1839.1875" fill="#B4A7E5" rx="12" ry="12" style="stroke:#181818;stroke-width:1.0;"/><path d="M2078.5,1835.3594 L2078.5,1843.1875 L2080.5313,1843.1875 Q2081.25,1843.1875 2081.5469,1843.4688 Q2081.8594,1843.7344 2081.8594,1844.1875 Q2081.8594,1844.625 2081.5469,1844.9063 Q2081.25,1845.1875 2080.5313,1845.1875 L2074.4844,1845.1875 Q2073.75,1845.1875 2073.4375,1844.9063 Q2073.1406,1844.625 2073.1406,1844.1875 Q2073.1406,1843.7344 2073.4375,1843.4688 Q2073.75,1843.1875 2074.4844,1843.1875 L2076.5,1843.1875 L2076.5,1835.3594 L2074.4844,1835.3594 Q2073.75,1835.3594 2073.4375,1835.0781 Q2073.1406,1834.7969 2073.1406,1834.3438 Q2073.1406,1833.8906 2073.4375,1833.625 Q2073.75,1833.3438 2074.4844,1833.3438 L2080.5313,1833.3438 Q2081.25,1833.3438 2081.5469,1833.625 Q2081.8594,1833.8906 2081.8594,1834.3438 Q2081.8594,1834.7969 2081.5469,1835.0781 Q2081.25,1835.3594 2080.5313,1835.3594 L2078.5,1835.3594 Z " fill="#000000"/><text fill="#000000" font-family="sans-serif" font-size="20" font-style="italic" lengthAdjust="spacing" textLength="119" x="2092.5" y="1847.3711">DomainEvent</text><line style="stroke:#181818;stroke-width:0.5;" x1="2062.5" x2="2213.5" y1="1856.7656" y2="1856.7656"/><line style="stroke:#181818;stroke-width:0.5;" x1="2062.5" x2="2213.5" y1="1864.7656" y2="1864.7656"/></g><!--class JobOpeningResultsPublishedWatchDog--><g id="elem_JobOpeningResultsPublishedWatchDog"><rect codeLine="75" fill="#F1F1F1" height="51.1563" id="JobOpeningResultsPublishedWatchDog" rx="2.5" ry="2.5" style="stroke:#181818;stroke-width:0.5;" width="380" x="2985" y="704.1094"/><ellipse cx="3001" cy="721.6875" fill="#ADD1B2" rx="12" ry="12" style="stroke:#181818;stroke-width:1.0;"/><path d="M3003.1406,716.6094 Q3003.3281,716.3594 3003.5469,716.2344 Q3003.7656,716.0938 3004.0156,716.0938 Q3004.4531,716.0938 3004.7344,716.4063 Q3005.0156,716.7031 3005.0156,717.4219 L3005.0156,719.125 Q3005.0156,719.8438 3004.7344,720.1563 Q3004.4531,720.4688 3004.0156,720.4688 Q3003.625,720.4688 3003.375,720.2344 Q3003.125,720.0156 3003.0156,719.4063 Q3002.9531,718.9844 3002.7344,718.7656 Q3002.3438,718.3281 3001.625,718.0625 Q3000.9063,717.7969 3000.1875,717.7969 Q2999.2813,717.7969 2998.5313,718.1875 Q2997.7813,718.5781 2997.2031,719.4688 Q2996.625,720.3438 2996.625,721.5469 L2996.625,722.8438 Q2996.625,724.2969 2997.6719,725.2656 Q2998.7344,726.2344 3000.5938,726.2344 Q3001.7031,726.2344 3002.4844,725.9219 Q3002.9219,725.75 3003.4375,725.2344 Q3003.75,724.9219 3003.9219,724.8281 Q3004.0938,724.7344 3004.3281,724.7344 Q3004.7188,724.7344 3005.0156,725.0469 Q3005.3281,725.3438 3005.3281,725.75 Q3005.3281,726.1563 3004.9219,726.625 Q3004.3281,727.3125 3003.3906,727.7031 Q3002.125,728.2344 3000.6094,728.2344 Q2998.8281,728.2344 2997.4063,727.5 Q2996.25,726.9063 2995.4375,725.6406 Q2994.625,724.375 2994.625,722.8906 L2994.625,721.5313 Q2994.625,719.9688 2995.3438,718.625 Q2996.0781,717.2656 2997.3594,716.5313 Q2998.6563,715.7969 3000.1094,715.7969 Q3000.9688,715.7969 3001.7188,716 Q3002.4844,716.2031 3003.1406,716.6094 Z " fill="#000000"/><text fill="#000000" font-family="sans-serif" font-size="20" lengthAdjust="spacing" textLength="346" x="3016" y="729.8711">JobOpeningResultsPublishedWatchDog</text><line style="stroke:#181818;stroke-width:0.5;" x1="2986" x2="3364" y1="739.2656" y2="739.2656"/><line style="stroke:#181818;stroke-width:0.5;" x1="2986" x2="3364" y1="747.2656" y2="747.2656"/></g><!--class JobOpeningResultsPublishedEvent--><g id="elem_JobOpeningResultsPublishedEvent"><rect codeLine="78" fill="#F1F1F1" height="51.1563" id="JobOpeningResultsPublishedEvent" rx="2.5" ry="2.5" style="stroke:#181818;stroke-width:0.5;" width="337" x="3296.5" y="1536.6094"/><ellipse cx="3312.5" cy="1554.1875" fill="#ADD1B2" rx="12" ry="12" style="stroke:#181818;stroke-width:1.0;"/><path d="M3314.6406,1549.1094 Q3314.8281,1548.8594 3315.0469,1548.7344 Q3315.2656,1548.5938 3315.5156,1548.5938 Q3315.9531,1548.5938 3316.2344,1548.9063 Q3316.5156,1549.2031 3316.5156,1549.9219 L3316.5156,1551.625 Q3316.5156,1552.3438 3316.2344,1552.6563 Q3315.9531,1552.9688 3315.5156,1552.9688 Q3315.125,1552.9688 3314.875,1552.7344 Q3314.625,1552.5156 3314.5156,1551.9063 Q3314.4531,1551.4844 3314.2344,1551.2656 Q3313.8438,1550.8281 3313.125,1550.5625 Q3312.4063,1550.2969 3311.6875,1550.2969 Q3310.7813,1550.2969 3310.0313,1550.6875 Q3309.2813,1551.0781 3308.7031,1551.9688 Q3308.125,1552.8438 3308.125,1554.0469 L3308.125,1555.3438 Q3308.125,1556.7969 3309.1719,1557.7656 Q3310.2344,1558.7344 3312.0938,1558.7344 Q3313.2031,1558.7344 3313.9844,1558.4219 Q3314.4219,1558.25 3314.9375,1557.7344 Q3315.25,1557.4219 3315.4219,1557.3281 Q3315.5938,1557.2344 3315.8281,1557.2344 Q3316.2188,1557.2344 3316.5156,1557.5469 Q3316.8281,1557.8438 3316.8281,1558.25 Q3316.8281,1558.6563 3316.4219,1559.125 Q3315.8281,1559.8125 3314.8906,1560.2031 Q3313.625,1560.7344 3312.1094,1560.7344 Q3310.3281,1560.7344 3308.9063,1560 Q3307.75,1559.4063 3306.9375,1558.1406 Q3306.125,1556.875 3306.125,1555.3906 L3306.125,1554.0313 Q3306.125,1552.4688 3306.8438,1551.125 Q3307.5781,1549.7656 3308.8594,1549.0313 Q3310.1563,1548.2969 3311.6094,1548.2969 Q3312.4688,1548.2969 3313.2188,1548.5 Q3313.9844,1548.7031 3314.6406,1549.1094 Z " fill="#000000"/><text fill="#000000" font-family="sans-serif" font-size="20" lengthAdjust="spacing" textLength="303" x="3327.5" y="1562.3711">JobOpeningResultsPublishedEvent</text><line style="stroke:#181818;stroke-width:0.5;" x1="3297.5" x2="3632.5" y1="1571.7656" y2="1571.7656"/><line style="stroke:#181818;stroke-width:0.5;" x1="3297.5" x2="3632.5" y1="1579.7656" y2="1579.7656"/></g><!--class SendEmailOnJobOpeningResultsPublishedController--><g id="elem_SendEmailOnJobOpeningResultsPublishedController"><rect codeLine="80" fill="#F1F1F1" height="126.625" id="SendEmailOnJobOpeningResultsPublishedController" rx="2.5" ry="2.5" style="stroke:#181818;stroke-width:0.5;" width="492" x="2929" y="963.6094"/><ellipse cx="2945" cy="981.1875" fill="#ADD1B2" rx="12" ry="12" style="stroke:#181818;stroke-width:1.0;"/><path d="M2947.1406,976.1094 Q2947.3281,975.8594 2947.5469,975.7344 Q2947.7656,975.5938 2948.0156,975.5938 Q2948.4531,975.5938 2948.7344,975.9063 Q2949.0156,976.2031 2949.0156,976.9219 L2949.0156,978.625 Q2949.0156,979.3438 2948.7344,979.6563 Q2948.4531,979.9688 2948.0156,979.9688 Q2947.625,979.9688 2947.375,979.7344 Q2947.125,979.5156 2947.0156,978.9063 Q2946.9531,978.4844 2946.7344,978.2656 Q2946.3438,977.8281 2945.625,977.5625 Q2944.9063,977.2969 2944.1875,977.2969 Q2943.2813,977.2969 2942.5313,977.6875 Q2941.7813,978.0781 2941.2031,978.9688 Q2940.625,979.8438 2940.625,981.0469 L2940.625,982.3438 Q2940.625,983.7969 2941.6719,984.7656 Q2942.7344,985.7344 2944.5938,985.7344 Q2945.7031,985.7344 2946.4844,985.4219 Q2946.9219,985.25 2947.4375,984.7344 Q2947.75,984.4219 2947.9219,984.3281 Q2948.0938,984.2344 2948.3281,984.2344 Q2948.7188,984.2344 2949.0156,984.5469 Q2949.3281,984.8438 2949.3281,985.25 Q2949.3281,985.6563 2948.9219,986.125 Q2948.3281,986.8125 2947.3906,987.2031 Q2946.125,987.7344 2944.6094,987.7344 Q2942.8281,987.7344 2941.4063,987 Q2940.25,986.4063 2939.4375,985.1406 Q2938.625,983.875 2938.625,982.3906 L2938.625,981.0313 Q2938.625,979.4688 2939.3438,978.125 Q2940.0781,976.7656 2941.3594,976.0313 Q2942.6563,975.2969 2944.1094,975.2969 Q2944.9688,975.2969 2945.7188,975.5 Q2946.4844,975.7031 2947.1406,976.1094 Z " fill="#000000"/><text fill="#000000" font-family="sans-serif" font-size="20" lengthAdjust="spacing" textLength="458" x="2960" y="989.3711">SendEmailOnJobOpeningResultsPublishedController</text><line style="stroke:#181818;stroke-width:0.5;" x1="2930" x2="3420" y1="998.7656" y2="998.7656"/><line style="stroke:#181818;stroke-width:0.5;" x1="2930" x2="3420" y1="1006.7656" y2="1006.7656"/><ellipse cx="2940" cy="1024.8438" fill="#84BE84" rx="3" ry="3" style="stroke:#038048;stroke-width:1.0;"/><text fill="#000000" font-family="sans-serif" font-size="20" lengthAdjust="spacing" textLength="401" x="2950" y="1031.5273">sendEmail(jobOpeningResultsPublishedEvent)</text><rect fill="#F24D5C" height="6" style="stroke:#C82930;stroke-width:1.0;" width="6" x="2937" y="1047"/><text fill="#000000" font-family="sans-serif" font-size="20" lengthAdjust="spacing" textLength="210" x="2950" y="1056.6836">getSessionCredentials()</text><rect fill="#F24D5C" height="6" style="stroke:#C82930;stroke-width:1.0;" width="6" x="2937" y="1072.1563"/><text fill="#000000" font-family="sans-serif" font-size="20" lengthAdjust="spacing" textLength="372" x="2950" y="1081.8398">establishConnection(username, password)</text></g><!--class CustomerRepository--><g id="elem_CustomerRepository"><rect codeLine="85" fill="#F1F1F1" height="76.3125" id="CustomerRepository" rx="2.5" ry="2.5" style="stroke:#181818;stroke-width:0.5;" width="403" x="2973.5" y="1176.1094"/><ellipse cx="3080.5" cy="1193.6875" fill="#ADD1B2" rx="12" ry="12" style="stroke:#181818;stroke-width:1.0;"/><path d="M3082.6406,1188.6094 Q3082.8281,1188.3594 3083.0469,1188.2344 Q3083.2656,1188.0938 3083.5156,1188.0938 Q3083.9531,1188.0938 3084.2344,1188.4063 Q3084.5156,1188.7031 3084.5156,1189.4219 L3084.5156,1191.125 Q3084.5156,1191.8438 3084.2344,1192.1563 Q3083.9531,1192.4688 3083.5156,1192.4688 Q3083.125,1192.4688 3082.875,1192.2344 Q3082.625,1192.0156 3082.5156,1191.4063 Q3082.4531,1190.9844 3082.2344,1190.7656 Q3081.8438,1190.3281 3081.125,1190.0625 Q3080.4063,1189.7969 3079.6875,1189.7969 Q3078.7813,1189.7969 3078.0313,1190.1875 Q3077.2813,1190.5781 3076.7031,1191.4688 Q3076.125,1192.3438 3076.125,1193.5469 L3076.125,1194.8438 Q3076.125,1196.2969 3077.1719,1197.2656 Q3078.2344,1198.2344 3080.0938,1198.2344 Q3081.2031,1198.2344 3081.9844,1197.9219 Q3082.4219,1197.75 3082.9375,1197.2344 Q3083.25,1196.9219 3083.4219,1196.8281 Q3083.5938,1196.7344 3083.8281,1196.7344 Q3084.2188,1196.7344 3084.5156,1197.0469 Q3084.8281,1197.3438 3084.8281,1197.75 Q3084.8281,1198.1563 3084.4219,1198.625 Q3083.8281,1199.3125 3082.8906,1199.7031 Q3081.625,1200.2344 3080.1094,1200.2344 Q3078.3281,1200.2344 3076.9063,1199.5 Q3075.75,1198.9063 3074.9375,1197.6406 Q3074.125,1196.375 3074.125,1194.8906 L3074.125,1193.5313 Q3074.125,1191.9688 3074.8438,1190.625 Q3075.5781,1189.2656 3076.8594,1188.5313 Q3078.1563,1187.7969 3079.6094,1187.7969 Q3080.4688,1187.7969 3081.2188,1188 Q3081.9844,1188.2031 3082.6406,1188.6094 Z " fill="#000000"/><text fill="#000000" font-family="sans-serif" font-size="20" lengthAdjust="spacing" textLength="180" x="3102.5" y="1201.8711">CustomerRepository</text><line style="stroke:#181818;stroke-width:0.5;" x1="2974.5" x2="3375.5" y1="1211.2656" y2="1211.2656"/><line style="stroke:#181818;stroke-width:0.5;" x1="2974.5" x2="3375.5" y1="1219.2656" y2="1219.2656"/><ellipse cx="2984.5" cy="1237.3438" fill="#84BE84" rx="3" ry="3" style="stroke:#038048;stroke-width:1.0;"/><text fill="#000000" font-family="sans-serif" font-size="20" lengthAdjust="spacing" textLength="376" x="2994.5" y="1244.0273">customerEmailOfCustomer(companyCode)</text></g><!--class ApplicationStatusChangedWatchDog--><g id="elem_ApplicationStatusChangedWatchDog"><rect codeLine="90" fill="#F1F1F1" height="51.1563" id="ApplicationStatusChangedWatchDog" rx="2.5" ry="2.5" style="stroke:#181818;stroke-width:0.5;" width="355" x="2288.5" y="704.1094"/><ellipse cx="2304.5" cy="721.6875" fill="#ADD1B2" rx="12" ry="12" style="stroke:#181818;stroke-width:1.0;"/><path d="M2306.6406,716.6094 Q2306.8281,716.3594 2307.0469,716.2344 Q2307.2656,716.0938 2307.5156,716.0938 Q2307.9531,716.0938 2308.2344,716.4063 Q2308.5156,716.7031 2308.5156,717.4219 L2308.5156,719.125 Q2308.5156,719.8438 2308.2344,720.1563 Q2307.9531,720.4688 2307.5156,720.4688 Q2307.125,720.4688 2306.875,720.2344 Q2306.625,720.0156 2306.5156,719.4063 Q2306.4531,718.9844 2306.2344,718.7656 Q2305.8438,718.3281 2305.125,718.0625 Q2304.4063,717.7969 2303.6875,717.7969 Q2302.7813,717.7969 2302.0313,718.1875 Q2301.2813,718.5781 2300.7031,719.4688 Q2300.125,720.3438 2300.125,721.5469 L2300.125,722.8438 Q2300.125,724.2969 2301.1719,725.2656 Q2302.2344,726.2344 2304.0938,726.2344 Q2305.2031,726.2344 2305.9844,725.9219 Q2306.4219,725.75 2306.9375,725.2344 Q2307.25,724.9219 2307.4219,724.8281 Q2307.5938,724.7344 2307.8281,724.7344 Q2308.2188,724.7344 2308.5156,725.0469 Q2308.8281,725.3438 2308.8281,725.75 Q2308.8281,726.1563 2308.4219,726.625 Q2307.8281,727.3125 2306.8906,727.7031 Q2305.625,728.2344 2304.1094,728.2344 Q2302.3281,728.2344 2300.9063,727.5 Q2299.75,726.9063 2298.9375,725.6406 Q2298.125,724.375 2298.125,722.8906 L2298.125,721.5313 Q2298.125,719.9688 2298.8438,718.625 Q2299.5781,717.2656 2300.8594,716.5313 Q2302.1563,715.7969 2303.6094,715.7969 Q2304.4688,715.7969 2305.2188,716 Q2305.9844,716.2031 2306.6406,716.6094 Z " fill="#000000"/><text fill="#000000" font-family="sans-serif" font-size="20" lengthAdjust="spacing" textLength="321" x="2319.5" y="729.8711">ApplicationStatusChangedWatchDog</text><line style="stroke:#181818;stroke-width:0.5;" x1="2289.5" x2="2642.5" y1="739.2656" y2="739.2656"/><line style="stroke:#181818;stroke-width:0.5;" x1="2289.5" x2="2642.5" y1="747.2656" y2="747.2656"/></g><!--class ApplicationStatusChangedEvent--><g id="elem_ApplicationStatusChangedEvent"><rect codeLine="93" fill="#F1F1F1" height="51.1563" id="ApplicationStatusChangedEvent" rx="2.5" ry="2.5" style="stroke:#181818;stroke-width:0.5;" width="312" x="1738" y="1536.6094"/><ellipse cx="1754" cy="1554.1875" fill="#ADD1B2" rx="12" ry="12" style="stroke:#181818;stroke-width:1.0;"/><path d="M1756.1406,1549.1094 Q1756.3281,1548.8594 1756.5469,1548.7344 Q1756.7656,1548.5938 1757.0156,1548.5938 Q1757.4531,1548.5938 1757.7344,1548.9063 Q1758.0156,1549.2031 1758.0156,1549.9219 L1758.0156,1551.625 Q1758.0156,1552.3438 1757.7344,1552.6563 Q1757.4531,1552.9688 1757.0156,1552.9688 Q1756.625,1552.9688 1756.375,1552.7344 Q1756.125,1552.5156 1756.0156,1551.9063 Q1755.9531,1551.4844 1755.7344,1551.2656 Q1755.3438,1550.8281 1754.625,1550.5625 Q1753.9063,1550.2969 1753.1875,1550.2969 Q1752.2813,1550.2969 1751.5313,1550.6875 Q1750.7813,1551.0781 1750.2031,1551.9688 Q1749.625,1552.8438 1749.625,1554.0469 L1749.625,1555.3438 Q1749.625,1556.7969 1750.6719,1557.7656 Q1751.7344,1558.7344 1753.5938,1558.7344 Q1754.7031,1558.7344 1755.4844,1558.4219 Q1755.9219,1558.25 1756.4375,1557.7344 Q1756.75,1557.4219 1756.9219,1557.3281 Q1757.0938,1557.2344 1757.3281,1557.2344 Q1757.7188,1557.2344 1758.0156,1557.5469 Q1758.3281,1557.8438 1758.3281,1558.25 Q1758.3281,1558.6563 1757.9219,1559.125 Q1757.3281,1559.8125 1756.3906,1560.2031 Q1755.125,1560.7344 1753.6094,1560.7344 Q1751.8281,1560.7344 1750.4063,1560 Q1749.25,1559.4063 1748.4375,1558.1406 Q1747.625,1556.875 1747.625,1555.3906 L1747.625,1554.0313 Q1747.625,1552.4688 1748.3438,1551.125 Q1749.0781,1549.7656 1750.3594,1549.0313 Q1751.6563,1548.2969 1753.1094,1548.2969 Q1753.9688,1548.2969 1754.7188,1548.5 Q1755.4844,1548.7031 1756.1406,1549.1094 Z " fill="#000000"/><text fill="#000000" font-family="sans-serif" font-size="20" lengthAdjust="spacing" textLength="278" x="1769" y="1562.3711">ApplicationStatusChangedEvent</text><line style="stroke:#181818;stroke-width:0.5;" x1="1739" x2="2049" y1="1571.7656" y2="1571.7656"/><line style="stroke:#181818;stroke-width:0.5;" x1="1739" x2="2049" y1="1579.7656" y2="1579.7656"/></g><!--class NotifyCandidateOnApplicationStatusChangedController--><g id="elem_NotifyCandidateOnApplicationStatusChangedController"><rect codeLine="95" fill="#F1F1F1" height="126.625" id="NotifyCandidateOnApplicationStatusChangedController" rx="2.5" ry="2.5" style="stroke:#181818;stroke-width:0.5;" width="609" x="1912.5" y="963.6094"/><ellipse cx="1973" cy="981.1875" fill="#ADD1B2" rx="12" ry="12" style="stroke:#181818;stroke-width:1.0;"/><path d="M1975.1406,976.1094 Q1975.3281,975.8594 1975.5469,975.7344 Q1975.7656,975.5938 1976.0156,975.5938 Q1976.4531,975.5938 1976.7344,975.9063 Q1977.0156,976.2031 1977.0156,976.9219 L1977.0156,978.625 Q1977.0156,979.3438 1976.7344,979.6563 Q1976.4531,979.9688 1976.0156,979.9688 Q1975.625,979.9688 1975.375,979.7344 Q1975.125,979.5156 1975.0156,978.9063 Q1974.9531,978.4844 1974.7344,978.2656 Q1974.3438,977.8281 1973.625,977.5625 Q1972.9063,977.2969 1972.1875,977.2969 Q1971.2813,977.2969 1970.5313,977.6875 Q1969.7813,978.0781 1969.2031,978.9688 Q1968.625,979.8438 1968.625,981.0469 L1968.625,982.3438 Q1968.625,983.7969 1969.6719,984.7656 Q1970.7344,985.7344 1972.5938,985.7344 Q1973.7031,985.7344 1974.4844,985.4219 Q1974.9219,985.25 1975.4375,984.7344 Q1975.75,984.4219 1975.9219,984.3281 Q1976.0938,984.2344 1976.3281,984.2344 Q1976.7188,984.2344 1977.0156,984.5469 Q1977.3281,984.8438 1977.3281,985.25 Q1977.3281,985.6563 1976.9219,986.125 Q1976.3281,986.8125 1975.3906,987.2031 Q1974.125,987.7344 1972.6094,987.7344 Q1970.8281,987.7344 1969.4063,987 Q1968.25,986.4063 1967.4375,985.1406 Q1966.625,983.875 1966.625,982.3906 L1966.625,981.0313 Q1966.625,979.4688 1967.3438,978.125 Q1968.0781,976.7656 1969.3594,976.0313 Q1970.6563,975.2969 1972.1094,975.2969 Q1972.9688,975.2969 1973.7188,975.5 Q1974.4844,975.7031 1975.1406,976.1094 Z " fill="#000000"/><text fill="#000000" font-family="sans-serif" font-size="20" lengthAdjust="spacing" textLength="479" x="1995" y="989.3711">NotifyCandidateOnApplicationStatusChangedController</text><line style="stroke:#181818;stroke-width:0.5;" x1="1913.5" x2="2520.5" y1="998.7656" y2="998.7656"/><line style="stroke:#181818;stroke-width:0.5;" x1="1913.5" x2="2520.5" y1="1006.7656" y2="1006.7656"/><ellipse cx="1923.5" cy="1024.8438" fill="#84BE84" rx="3" ry="3" style="stroke:#038048;stroke-width:1.0;"/><text fill="#000000" font-family="sans-serif" font-size="20" lengthAdjust="spacing" textLength="582" x="1933.5" y="1031.5273">notifyCandidateOfChangedStatus(applicationStatusChangedEvent)</text><rect fill="#F24D5C" height="6" style="stroke:#C82930;stroke-width:1.0;" width="6" x="1920.5" y="1047"/><text fill="#000000" font-family="sans-serif" font-size="20" lengthAdjust="spacing" textLength="210" x="1933.5" y="1056.6836">getSessionCredentials()</text><rect fill="#F24D5C" height="6" style="stroke:#C82930;stroke-width:1.0;" width="6" x="1920.5" y="1072.1563"/><text fill="#000000" font-family="sans-serif" font-size="20" lengthAdjust="spacing" textLength="372" x="1933.5" y="1081.8398">establishConnection(username, password)</text></g><!--class NotificationRepository--><g id="elem_NotificationRepository"><rect codeLine="100" fill="#F1F1F1" height="51.1563" id="NotificationRepository" rx="2.5" ry="2.5" style="stroke:#181818;stroke-width:0.5;" width="225" x="2883.5" y="1536.6094"/><ellipse cx="2899.5" cy="1554.1875" fill="#ADD1B2" rx="12" ry="12" style="stroke:#181818;stroke-width:1.0;"/><path d="M2901.6406,1549.1094 Q2901.8281,1548.8594 2902.0469,1548.7344 Q2902.2656,1548.5938 2902.5156,1548.5938 Q2902.9531,1548.5938 2903.2344,1548.9063 Q2903.5156,1549.2031 2903.5156,1549.9219 L2903.5156,1551.625 Q2903.5156,1552.3438 2903.2344,1552.6563 Q2902.9531,1552.9688 2902.5156,1552.9688 Q2902.125,1552.9688 2901.875,1552.7344 Q2901.625,1552.5156 2901.5156,1551.9063 Q2901.4531,1551.4844 2901.2344,1551.2656 Q2900.8438,1550.8281 2900.125,1550.5625 Q2899.4063,1550.2969 2898.6875,1550.2969 Q2897.7813,1550.2969 2897.0313,1550.6875 Q2896.2813,1551.0781 2895.7031,1551.9688 Q2895.125,1552.8438 2895.125,1554.0469 L2895.125,1555.3438 Q2895.125,1556.7969 2896.1719,1557.7656 Q2897.2344,1558.7344 2899.0938,1558.7344 Q2900.2031,1558.7344 2900.9844,1558.4219 Q2901.4219,1558.25 2901.9375,1557.7344 Q2902.25,1557.4219 2902.4219,1557.3281 Q2902.5938,1557.2344 2902.8281,1557.2344 Q2903.2188,1557.2344 2903.5156,1557.5469 Q2903.8281,1557.8438 2903.8281,1558.25 Q2903.8281,1558.6563 2903.4219,1559.125 Q2902.8281,1559.8125 2901.8906,1560.2031 Q2900.625,1560.7344 2899.1094,1560.7344 Q2897.3281,1560.7344 2895.9063,1560 Q2894.75,1559.4063 2893.9375,1558.1406 Q2893.125,1556.875 2893.125,1555.3906 L2893.125,1554.0313 Q2893.125,1552.4688 2893.8438,1551.125 Q2894.5781,1549.7656 2895.8594,1549.0313 Q2897.1563,1548.2969 2898.6094,1548.2969 Q2899.4688,1548.2969 2900.2188,1548.5 Q2900.9844,1548.7031 2901.6406,1549.1094 Z " fill="#000000"/><text fill="#000000" font-family="sans-serif" font-size="20" lengthAdjust="spacing" textLength="191" x="2914.5" y="1562.3711">NotificationRepository</text><line style="stroke:#181818;stroke-width:0.5;" x1="2884.5" x2="3107.5" y1="1571.7656" y2="1571.7656"/><line style="stroke:#181818;stroke-width:0.5;" x1="2884.5" x2="3107.5" y1="1579.7656" y2="1579.7656"/></g><!--class NotificationManagementService--><g id="elem_NotificationManagementService"><rect codeLine="102" fill="#F1F1F1" height="76.3125" id="NotificationManagementService" rx="2.5" ry="2.5" style="stroke:#181818;stroke-width:0.5;" width="480" x="2897" y="1350.1094"/><ellipse cx="2995" cy="1367.6875" fill="#ADD1B2" rx="12" ry="12" style="stroke:#181818;stroke-width:1.0;"/><path d="M2997.1406,1362.6094 Q2997.3281,1362.3594 2997.5469,1362.2344 Q2997.7656,1362.0938 2998.0156,1362.0938 Q2998.4531,1362.0938 2998.7344,1362.4063 Q2999.0156,1362.7031 2999.0156,1363.4219 L2999.0156,1365.125 Q2999.0156,1365.8438 2998.7344,1366.1563 Q2998.4531,1366.4688 2998.0156,1366.4688 Q2997.625,1366.4688 2997.375,1366.2344 Q2997.125,1366.0156 2997.0156,1365.4063 Q2996.9531,1364.9844 2996.7344,1364.7656 Q2996.3438,1364.3281 2995.625,1364.0625 Q2994.9063,1363.7969 2994.1875,1363.7969 Q2993.2813,1363.7969 2992.5313,1364.1875 Q2991.7813,1364.5781 2991.2031,1365.4688 Q2990.625,1366.3438 2990.625,1367.5469 L2990.625,1368.8438 Q2990.625,1370.2969 2991.6719,1371.2656 Q2992.7344,1372.2344 2994.5938,1372.2344 Q2995.7031,1372.2344 2996.4844,1371.9219 Q2996.9219,1371.75 2997.4375,1371.2344 Q2997.75,1370.9219 2997.9219,1370.8281 Q2998.0938,1370.7344 2998.3281,1370.7344 Q2998.7188,1370.7344 2999.0156,1371.0469 Q2999.3281,1371.3438 2999.3281,1371.75 Q2999.3281,1372.1563 2998.9219,1372.625 Q2998.3281,1373.3125 2997.3906,1373.7031 Q2996.125,1374.2344 2994.6094,1374.2344 Q2992.8281,1374.2344 2991.4063,1373.5 Q2990.25,1372.9063 2989.4375,1371.6406 Q2988.625,1370.375 2988.625,1368.8906 L2988.625,1367.5313 Q2988.625,1365.9688 2989.3438,1364.625 Q2990.0781,1363.2656 2991.3594,1362.5313 Q2992.6563,1361.7969 2994.1094,1361.7969 Q2994.9688,1361.7969 2995.7188,1362 Q2996.4844,1362.2031 2997.1406,1362.6094 Z " fill="#000000"/><text fill="#000000" font-family="sans-serif" font-size="20" lengthAdjust="spacing" textLength="275" x="3017" y="1375.8711">NotificationManagementService</text><line style="stroke:#181818;stroke-width:0.5;" x1="2898" x2="3376" y1="1385.2656" y2="1385.2656"/><line style="stroke:#181818;stroke-width:0.5;" x1="2898" x2="3376" y1="1393.2656" y2="1393.2656"/><ellipse cx="2908" cy="1411.3438" fill="#84BE84" rx="3" ry="3" style="stroke:#038048;stroke-width:1.0;"/><text fill="#000000" font-family="sans-serif" font-size="20" lengthAdjust="spacing" textLength="453" x="2918" y="1418.0273">registerNotification(applicationStatusChangedEvent)</text></g><!--class Notification--><g id="elem_Notification"><rect codeLine="105" fill="#F1F1F1" height="76.3125" id="Notification" rx="2.5" ry="2.5" style="stroke:#181818;stroke-width:0.5;" width="413" x="2839.5" y="1685.6094"/><ellipse cx="2993.5" cy="1703.1875" fill="#ADD1B2" rx="12" ry="12" style="stroke:#181818;stroke-width:1.0;"/><path d="M2995.6406,1698.1094 Q2995.8281,1697.8594 2996.0469,1697.7344 Q2996.2656,1697.5938 2996.5156,1697.5938 Q2996.9531,1697.5938 2997.2344,1697.9063 Q2997.5156,1698.2031 2997.5156,1698.9219 L2997.5156,1700.625 Q2997.5156,1701.3438 2997.2344,1701.6563 Q2996.9531,1701.9688 2996.5156,1701.9688 Q2996.125,1701.9688 2995.875,1701.7344 Q2995.625,1701.5156 2995.5156,1700.9063 Q2995.4531,1700.4844 2995.2344,1700.2656 Q2994.8438,1699.8281 2994.125,1699.5625 Q2993.4063,1699.2969 2992.6875,1699.2969 Q2991.7813,1699.2969 2991.0313,1699.6875 Q2990.2813,1700.0781 2989.7031,1700.9688 Q2989.125,1701.8438 2989.125,1703.0469 L2989.125,1704.3438 Q2989.125,1705.7969 2990.1719,1706.7656 Q2991.2344,1707.7344 2993.0938,1707.7344 Q2994.2031,1707.7344 2994.9844,1707.4219 Q2995.4219,1707.25 2995.9375,1706.7344 Q2996.25,1706.4219 2996.4219,1706.3281 Q2996.5938,1706.2344 2996.8281,1706.2344 Q2997.2188,1706.2344 2997.5156,1706.5469 Q2997.8281,1706.8438 2997.8281,1707.25 Q2997.8281,1707.6563 2997.4219,1708.125 Q2996.8281,1708.8125 2995.8906,1709.2031 Q2994.625,1709.7344 2993.1094,1709.7344 Q2991.3281,1709.7344 2989.9063,1709 Q2988.75,1708.4063 2987.9375,1707.1406 Q2987.125,1705.875 2987.125,1704.3906 L2987.125,1703.0313 Q2987.125,1701.4688 2987.8438,1700.125 Q2988.5781,1698.7656 2989.8594,1698.0313 Q2991.1563,1697.2969 2992.6094,1697.2969 Q2993.4688,1697.2969 2994.2188,1697.5 Q2994.9844,1697.7031 2995.6406,1698.1094 Z " fill="#000000"/><text fill="#000000" font-family="sans-serif" font-size="20" lengthAdjust="spacing" textLength="96" x="3015.5" y="1711.3711">Notification</text><line style="stroke:#181818;stroke-width:0.5;" x1="2840.5" x2="3251.5" y1="1720.7656" y2="1720.7656"/><line style="stroke:#181818;stroke-width:0.5;" x1="2840.5" x2="3251.5" y1="1728.7656" y2="1728.7656"/><ellipse cx="2850.5" cy="1746.8438" fill="#84BE84" rx="3" ry="3" style="stroke:#038048;stroke-width:1.0;"/><text fill="#000000" font-family="sans-serif" font-size="20" lengthAdjust="spacing" textLength="386" x="2860.5" y="1753.5273">Notification(applicationStatusChangedEvent)</text></g><!--class ApplicationAcceptedWatchDog--><g id="elem_ApplicationAcceptedWatchDog"><rect codeLine="110" fill="#F1F1F1" height="51.1563" id="ApplicationAcceptedWatchDog" rx="2.5" ry="2.5" style="stroke:#181818;stroke-width:0.5;" width="304" x="2433" y="840.1094"/><ellipse cx="2449" cy="857.6875" fill="#ADD1B2" rx="12" ry="12" style="stroke:#181818;stroke-width:1.0;"/><path d="M2451.1406,852.6094 Q2451.3281,852.3594 2451.5469,852.2344 Q2451.7656,852.0938 2452.0156,852.0938 Q2452.4531,852.0938 2452.7344,852.4063 Q2453.0156,852.7031 2453.0156,853.4219 L2453.0156,855.125 Q2453.0156,855.8438 2452.7344,856.1563 Q2452.4531,856.4688 2452.0156,856.4688 Q2451.625,856.4688 2451.375,856.2344 Q2451.125,856.0156 2451.0156,855.4063 Q2450.9531,854.9844 2450.7344,854.7656 Q2450.3438,854.3281 2449.625,854.0625 Q2448.9063,853.7969 2448.1875,853.7969 Q2447.2813,853.7969 2446.5313,854.1875 Q2445.7813,854.5781 2445.2031,855.4688 Q2444.625,856.3438 2444.625,857.5469 L2444.625,858.8438 Q2444.625,860.2969 2445.6719,861.2656 Q2446.7344,862.2344 2448.5938,862.2344 Q2449.7031,862.2344 2450.4844,861.9219 Q2450.9219,861.75 2451.4375,861.2344 Q2451.75,860.9219 2451.9219,860.8281 Q2452.0938,860.7344 2452.3281,860.7344 Q2452.7188,860.7344 2453.0156,861.0469 Q2453.3281,861.3438 2453.3281,861.75 Q2453.3281,862.1563 2452.9219,862.625 Q2452.3281,863.3125 2451.3906,863.7031 Q2450.125,864.2344 2448.6094,864.2344 Q2446.8281,864.2344 2445.4063,863.5 Q2444.25,862.9063 2443.4375,861.6406 Q2442.625,860.375 2442.625,858.8906 L2442.625,857.5313 Q2442.625,855.9688 2443.3438,854.625 Q2444.0781,853.2656 2445.3594,852.5313 Q2446.6563,851.7969 2448.1094,851.7969 Q2448.9688,851.7969 2449.7188,852 Q2450.4844,852.2031 2451.1406,852.6094 Z " fill="#000000"/><text fill="#000000" font-family="sans-serif" font-size="20" lengthAdjust="spacing" textLength="270" x="2464" y="865.8711">ApplicationAcceptedWatchDog</text><line style="stroke:#181818;stroke-width:0.5;" x1="2434" x2="2736" y1="875.2656" y2="875.2656"/><line style="stroke:#181818;stroke-width:0.5;" x1="2434" x2="2736" y1="883.2656" y2="883.2656"/></g><!--class ApplicationAcceptedEvent--><g id="elem_ApplicationAcceptedEvent"><rect codeLine="113" fill="#F1F1F1" height="51.1563" id="ApplicationAcceptedEvent" rx="2.5" ry="2.5" style="stroke:#181818;stroke-width:0.5;" width="261" x="2007.5" y="1362.6094"/><ellipse cx="2023.5" cy="1380.1875" fill="#ADD1B2" rx="12" ry="12" style="stroke:#181818;stroke-width:1.0;"/><path d="M2025.6406,1375.1094 Q2025.8281,1374.8594 2026.0469,1374.7344 Q2026.2656,1374.5938 2026.5156,1374.5938 Q2026.9531,1374.5938 2027.2344,1374.9063 Q2027.5156,1375.2031 2027.5156,1375.9219 L2027.5156,1377.625 Q2027.5156,1378.3438 2027.2344,1378.6563 Q2026.9531,1378.9688 2026.5156,1378.9688 Q2026.125,1378.9688 2025.875,1378.7344 Q2025.625,1378.5156 2025.5156,1377.9063 Q2025.4531,1377.4844 2025.2344,1377.2656 Q2024.8438,1376.8281 2024.125,1376.5625 Q2023.4063,1376.2969 2022.6875,1376.2969 Q2021.7813,1376.2969 2021.0313,1376.6875 Q2020.2813,1377.0781 2019.7031,1377.9688 Q2019.125,1378.8438 2019.125,1380.0469 L2019.125,1381.3438 Q2019.125,1382.7969 2020.1719,1383.7656 Q2021.2344,1384.7344 2023.0938,1384.7344 Q2024.2031,1384.7344 2024.9844,1384.4219 Q2025.4219,1384.25 2025.9375,1383.7344 Q2026.25,1383.4219 2026.4219,1383.3281 Q2026.5938,1383.2344 2026.8281,1383.2344 Q2027.2188,1383.2344 2027.5156,1383.5469 Q2027.8281,1383.8438 2027.8281,1384.25 Q2027.8281,1384.6563 2027.4219,1385.125 Q2026.8281,1385.8125 2025.8906,1386.2031 Q2024.625,1386.7344 2023.1094,1386.7344 Q2021.3281,1386.7344 2019.9063,1386 Q2018.75,1385.4063 2017.9375,1384.1406 Q2017.125,1382.875 2017.125,1381.3906 L2017.125,1380.0313 Q2017.125,1378.4688 2017.8438,1377.125 Q2018.5781,1375.7656 2019.8594,1375.0313 Q2021.1563,1374.2969 2022.6094,1374.2969 Q2023.4688,1374.2969 2024.2188,1374.5 Q2024.9844,1374.7031 2025.6406,1375.1094 Z " fill="#000000"/><text fill="#000000" font-family="sans-serif" font-size="20" lengthAdjust="spacing" textLength="227" x="2038.5" y="1388.3711">ApplicationAcceptedEvent</text><line style="stroke:#181818;stroke-width:0.5;" x1="2008.5" x2="2267.5" y1="1397.7656" y2="1397.7656"/><line style="stroke:#181818;stroke-width:0.5;" x1="2008.5" x2="2267.5" y1="1405.7656" y2="1405.7656"/></g><!--class SendEmailOnApplicationAcceptedController--><g id="elem_SendEmailOnApplicationAcceptedController"><rect codeLine="115" fill="#F1F1F1" height="126.625" id="SendEmailOnApplicationAcceptedController" rx="2.5" ry="2.5" style="stroke:#181818;stroke-width:0.5;" width="416" x="2191" y="1150.6094"/><ellipse cx="2207" cy="1168.1875" fill="#ADD1B2" rx="12" ry="12" style="stroke:#181818;stroke-width:1.0;"/><path d="M2209.1406,1163.1094 Q2209.3281,1162.8594 2209.5469,1162.7344 Q2209.7656,1162.5938 2210.0156,1162.5938 Q2210.4531,1162.5938 2210.7344,1162.9063 Q2211.0156,1163.2031 2211.0156,1163.9219 L2211.0156,1165.625 Q2211.0156,1166.3438 2210.7344,1166.6563 Q2210.4531,1166.9688 2210.0156,1166.9688 Q2209.625,1166.9688 2209.375,1166.7344 Q2209.125,1166.5156 2209.0156,1165.9063 Q2208.9531,1165.4844 2208.7344,1165.2656 Q2208.3438,1164.8281 2207.625,1164.5625 Q2206.9063,1164.2969 2206.1875,1164.2969 Q2205.2813,1164.2969 2204.5313,1164.6875 Q2203.7813,1165.0781 2203.2031,1165.9688 Q2202.625,1166.8438 2202.625,1168.0469 L2202.625,1169.3438 Q2202.625,1170.7969 2203.6719,1171.7656 Q2204.7344,1172.7344 2206.5938,1172.7344 Q2207.7031,1172.7344 2208.4844,1172.4219 Q2208.9219,1172.25 2209.4375,1171.7344 Q2209.75,1171.4219 2209.9219,1171.3281 Q2210.0938,1171.2344 2210.3281,1171.2344 Q2210.7188,1171.2344 2211.0156,1171.5469 Q2211.3281,1171.8438 2211.3281,1172.25 Q2211.3281,1172.6563 2210.9219,1173.125 Q2210.3281,1173.8125 2209.3906,1174.2031 Q2208.125,1174.7344 2206.6094,1174.7344 Q2204.8281,1174.7344 2203.4063,1174 Q2202.25,1173.4063 2201.4375,1172.1406 Q2200.625,1170.875 2200.625,1169.3906 L2200.625,1168.0313 Q2200.625,1166.4688 2201.3438,1165.125 Q2202.0781,1163.7656 2203.3594,1163.0313 Q2204.6563,1162.2969 2206.1094,1162.2969 Q2206.9688,1162.2969 2207.7188,1162.5 Q2208.4844,1162.7031 2209.1406,1163.1094 Z " fill="#000000"/><text fill="#000000" font-family="sans-serif" font-size="20" lengthAdjust="spacing" textLength="382" x="2222" y="1176.3711">SendEmailOnApplicationAcceptedController</text><line style="stroke:#181818;stroke-width:0.5;" x1="2192" x2="2606" y1="1185.7656" y2="1185.7656"/><line style="stroke:#181818;stroke-width:0.5;" x1="2192" x2="2606" y1="1193.7656" y2="1193.7656"/><ellipse cx="2202" cy="1211.8438" fill="#84BE84" rx="3" ry="3" style="stroke:#038048;stroke-width:1.0;"/><text fill="#000000" font-family="sans-serif" font-size="20" lengthAdjust="spacing" textLength="329" x="2212" y="1218.5273">sendEmail(applicationAcceptedEvent)</text><rect fill="#F24D5C" height="6" style="stroke:#C82930;stroke-width:1.0;" width="6" x="2199" y="1234"/><text fill="#000000" font-family="sans-serif" font-size="20" lengthAdjust="spacing" textLength="210" x="2212" y="1243.6836">getSessionCredentials()</text><rect fill="#F24D5C" height="6" style="stroke:#C82930;stroke-width:1.0;" width="6" x="2199" y="1259.1563"/><text fill="#000000" font-family="sans-serif" font-size="20" lengthAdjust="spacing" textLength="372" x="2212" y="1268.8398">establishConnection(username, password)</text></g><!--class FollowUpConnectionService--><g id="elem_FollowUpConnectionService"><rect codeLine="120" fill="#F1F1F1" height="126.625" id="FollowUpConnectionService" rx="2.5" ry="2.5" style="stroke:#181818;stroke-width:0.5;" width="613" x="2226.5" y="1498.6094"/><ellipse cx="2407" cy="1516.1875" fill="#ADD1B2" rx="12" ry="12" style="stroke:#181818;stroke-width:1.0;"/><path d="M2409.1406,1511.1094 Q2409.3281,1510.8594 2409.5469,1510.7344 Q2409.7656,1510.5938 2410.0156,1510.5938 Q2410.4531,1510.5938 2410.7344,1510.9063 Q2411.0156,1511.2031 2411.0156,1511.9219 L2411.0156,1513.625 Q2411.0156,1514.3438 2410.7344,1514.6563 Q2410.4531,1514.9688 2410.0156,1514.9688 Q2409.625,1514.9688 2409.375,1514.7344 Q2409.125,1514.5156 2409.0156,1513.9063 Q2408.9531,1513.4844 2408.7344,1513.2656 Q2408.3438,1512.8281 2407.625,1512.5625 Q2406.9063,1512.2969 2406.1875,1512.2969 Q2405.2813,1512.2969 2404.5313,1512.6875 Q2403.7813,1513.0781 2403.2031,1513.9688 Q2402.625,1514.8438 2402.625,1516.0469 L2402.625,1517.3438 Q2402.625,1518.7969 2403.6719,1519.7656 Q2404.7344,1520.7344 2406.5938,1520.7344 Q2407.7031,1520.7344 2408.4844,1520.4219 Q2408.9219,1520.25 2409.4375,1519.7344 Q2409.75,1519.4219 2409.9219,1519.3281 Q2410.0938,1519.2344 2410.3281,1519.2344 Q2410.7188,1519.2344 2411.0156,1519.5469 Q2411.3281,1519.8438 2411.3281,1520.25 Q2411.3281,1520.6563 2410.9219,1521.125 Q2410.3281,1521.8125 2409.3906,1522.2031 Q2408.125,1522.7344 2406.6094,1522.7344 Q2404.8281,1522.7344 2403.4063,1522 Q2402.25,1521.4063 2401.4375,1520.1406 Q2400.625,1518.875 2400.625,1517.3906 L2400.625,1516.0313 Q2400.625,1514.4688 2401.3438,1513.125 Q2402.0781,1511.7656 2403.3594,1511.0313 Q2404.6563,1510.2969 2406.1094,1510.2969 Q2406.9688,1510.2969 2407.7188,1510.5 Q2408.4844,1510.7031 2409.1406,1511.1094 Z " fill="#000000"/><text fill="#000000" font-family="sans-serif" font-size="20" lengthAdjust="spacing" textLength="243" x="2429" y="1524.3711">FollowUpConnectionService</text><line style="stroke:#181818;stroke-width:0.5;" x1="2227.5" x2="2838.5" y1="1533.7656" y2="1533.7656"/><line style="stroke:#181818;stroke-width:0.5;" x1="2227.5" x2="2838.5" y1="1541.7656" y2="1541.7656"/><ellipse cx="2237.5" cy="1559.8438" fill="#84BE84" rx="3" ry="3" style="stroke:#038048;stroke-width:1.0;"/><text fill="#000000" font-family="sans-serif" font-size="20" lengthAdjust="spacing" textLength="586" x="2247.5" y="1566.5273">sendEmail(customerManagerEmail, receiverEmail,topic,emailBody)</text><ellipse cx="2237.5" cy="1585" fill="#84BE84" rx="3" ry="3" style="stroke:#038048;stroke-width:1.0;"/><text fill="#000000" font-family="sans-serif" font-size="20" lengthAdjust="spacing" textLength="157" x="2247.5" y="1591.6836">closeConnection()</text><ellipse cx="2237.5" cy="1610.1563" fill="#84BE84" rx="3" ry="3" style="stroke:#038048;stroke-width:1.0;"/><text fill="#000000" font-family="sans-serif" font-size="20" lengthAdjust="spacing" textLength="372" x="2247.5" y="1616.8398">establishConnection(username, password)</text></g><!--class RankOrder--><g id="elem_RankOrder"><rect codeLine="125" fill="#F1F1F1" height="101.4688" id="RankOrder" rx="2.5" ry="2.5" style="stroke:#181818;stroke-width:0.5;" width="158" x="1260" y="976.6094"/><ellipse cx="1276" cy="1006.7656" fill="#FF8B40" rx="12" ry="12" style="stroke:#181818;stroke-width:1.0;"/><path d="M1276.5,1010.8438 L1279.3906,1003.9375 L1278.9375,1003.9375 Q1278.2188,1003.9375 1277.9063,1003.6563 Q1277.5938,1003.375 1277.5938,1002.9219 Q1277.5938,1002.4688 1277.9063,1002.2031 Q1278.2188,1001.9219 1278.9375,1001.9219 L1281.625,1001.9219 Q1282.3438,1001.9219 1282.6563,1002.2031 Q1282.9688,1002.4688 1282.9688,1002.9219 Q1282.9688,1003.4688 1282.5,1003.7813 Q1282.2656,1003.9375 1281.5781,1003.9375 L1277.4688,1013.7656 L1275.5469,1013.7656 L1271.4375,1003.9375 Q1270.7344,1003.9375 1270.5156,1003.7813 Q1270.0469,1003.4688 1270.0469,1002.9219 Q1270.0469,1002.4688 1270.3594,1002.2031 Q1270.6563,1001.9219 1271.375,1001.9219 L1274.0781,1001.9219 Q1274.7969,1001.9219 1275.0938,1002.2031 Q1275.4063,1002.4688 1275.4063,1002.9219 Q1275.4063,1003.375 1275.1094,1003.6563 Q1274.8125,1003.9375 1274.0781,1003.9375 L1273.6094,1003.9375 L1276.5,1010.8438 Z " fill="#000000"/><text fill="#000000" font-family="sans-serif" font-size="20" font-style="italic" lengthAdjust="spacing" textLength="128" x="1289" y="1002.3711">value object</text><text fill="#000000" font-family="sans-serif" font-size="20" lengthAdjust="spacing" textLength="97" x="1304.5" y="1027.5273">RankOrder</text><line style="stroke:#181818;stroke-width:0.5;" x1="1261" x2="1417" y1="1036.9219" y2="1036.9219"/><rect fill="none" height="6" style="stroke:#C82930;stroke-width:1.0;" width="6" x="1268" y="1052"/><text fill="#000000" font-family="sans-serif" font-size="20" lengthAdjust="spacing" textLength="96" x="1281" y="1061.6836">orderValue</text><line style="stroke:#181818;stroke-width:0.5;" x1="1261" x2="1417" y1="1070.0781" y2="1070.0781"/></g><!--reverse link AbstractUI to PublishingResultJobOpeningUI--><g id="link_AbstractUI_PublishingResultJobOpeningUI"><path codeLine="129" d="M446,192.9294 C446,206.8094 446,220.5694 446,232.5194 " fill="none" id="AbstractUI-backto-PublishingResultJobOpeningUI" style="stroke:#181818;stroke-width:1.0;"/><polygon fill="none" points="439,192.6894,446,172.6894,453,192.6894,439,192.6894" style="stroke:#181818;stroke-width:1.0;"/></g><!--link PublishingResultJobOpeningUI to PublishingResultJobOpeningController--><g id="link_PublishingResultJobOpeningUI_PublishingResultJobOpeningController"><path codeLine="131" d="M446,308.7394 C446,356.4294 446,440.1194 446,499.3194 " fill="none" id="PublishingResultJobOpeningUI-to-PublishingResultJobOpeningController" style="stroke:#181818;stroke-width:1.0;stroke-dasharray:7.0,7.0;"/><polygon fill="#181818" points="446,504.6094,450,495.6094,446,499.6094,442,495.6094,446,504.6094" style="stroke:#181818;stroke-width:1.0;"/></g><!--link PublishingResultJobOpeningController to AuthorizationService--><g id="link_PublishingResultJobOpeningController_AuthorizationService"><path codeLine="133" d="M543.7,631.6894 C573.7,650.9094 605.89,671.5294 632.82,688.7794 " fill="none" id="PublishingResultJobOpeningController-to-AuthorizationService" style="stroke:#181818;stroke-width:1.0;"/><polygon fill="#181818" points="637.1,691.5194,631.6797,683.2962,632.8899,688.8221,627.3641,690.0323,637.1,691.5194" style="stroke:#181818;stroke-width:1.0;"/></g><!--link PublishingResultJobOpeningController to ApplicationRepository--><g id="link_PublishingResultJobOpeningController_ApplicationRepository"><path codeLine="135" d="M442.13,631.8594 C442.79,674.4594 450.49,729.7294 481,767.6094 C608.24,925.6094 847.95,987.9394 992.19,1011.8594 " fill="none" id="PublishingResultJobOpeningController-to-ApplicationRepository" style="stroke:#181818;stroke-width:1.0;"/><polygon fill="#181818" points="997.28,1012.6994,989.0499,1007.2896,992.3465,1011.8866,987.7495,1015.1832,997.28,1012.6994" style="stroke:#181818;stroke-width:1.0;"/></g><!--link JobOpeningManagementService to JobOpeningRepository--><g id="link_JobOpeningManagementService_JobOpeningRepository"><path codeLine="136" d="M1470.95,444.7994 C1413.26,469.7394 1337.41,502.5294 1278.77,527.8694 " fill="none" id="JobOpeningManagementService-to-JobOpeningRepository" style="stroke:#181818;stroke-width:1.0;"/><polygon fill="#181818" points="1273.87,529.9894,1283.7183,530.0949,1278.4605,528.0077,1280.5477,522.75,1273.87,529.9894" style="stroke:#181818;stroke-width:1.0;"/></g><!--link JobOpeningManagementService to JobOpeningDTOService--><g id="link_JobOpeningManagementService_JobOpeningDTOService"><path codeLine="137" d="M1643.28,444.7994 C1701.13,469.7394 1777.18,502.5294 1835.98,527.8694 " fill="none" id="JobOpeningManagementService-to-JobOpeningDTOService" style="stroke:#181818;stroke-width:1.0;"/><polygon fill="#181818" points="1840.9,529.9894,1834.2115,522.76,1836.3065,528.0146,1831.0519,530.1096,1840.9,529.9894" style="stroke:#181818;stroke-width:1.0;"/></g><!--link JobOpeningManagementService to JobOpening--><g id="link_JobOpeningManagementService_JobOpening"><path codeLine="138" d="M2004.29,432.9694 C2093.56,447.4394 2169.14,469.8894 2199,504.6094 C2235.81,547.3994 2228.61,583.5594 2199,631.6094 C2176.71,667.7694 1935.42,777.3494 1810.31,832.3694 " fill="none" id="JobOpeningManagementService-to-JobOpening" style="stroke:#181818;stroke-width:1.0;stroke-dasharray:7.0,7.0;"/><polygon fill="#181818" points="1805.54,834.4594,1815.3888,834.4908,1810.1155,832.4433,1812.1631,827.17,1805.54,834.4594" style="stroke:#181818;stroke-width:1.0;"/></g><!--link JobOpeningDTOService to JobOpening--><g id="link_JobOpeningDTOService_JobOpening"><path codeLine="139" d="M1903,606.2394 C1867.26,661.5294 1800.26,765.1894 1762.91,822.9794 " fill="none" id="JobOpeningDTOService-to-JobOpening" style="stroke:#181818;stroke-width:1.0;stroke-dasharray:7.0,7.0;"/><polygon fill="#181818" points="1760.05,827.3994,1768.2945,822.0116,1762.7639,823.2,1761.5755,817.6694,1760.05,827.3994" style="stroke:#181818;stroke-width:1.0;"/></g><!--link ApplicationRepository to Application--><g id="link_ApplicationRepository_Application"><path codeLine="140" d="M1125.15,1065.1794 C1149.4,1128.7194 1199.01,1258.7394 1227.21,1332.6194 " fill="none" id="ApplicationRepository-to-Application" style="stroke:#181818;stroke-width:1.0;stroke-dasharray:7.0,7.0;"/><polygon fill="#181818" points="1229.03,1337.4094,1229.5527,1327.5744,1227.2447,1332.739,1222.0801,1330.4309,1229.03,1337.4094" style="stroke:#181818;stroke-width:1.0;"/></g><!--link ApplicationRepository to DomainRepository--><g id="link_ApplicationRepository_DomainRepository"><path codeLine="141" d="M1093.76,1065.1794 C1065.91,1125.0394 1010.61,1243.9094 975.57,1319.2494 " fill="none" id="ApplicationRepository-to-DomainRepository" style="stroke:#181818;stroke-width:1.0;stroke-dasharray:7.0,7.0;"/><polygon fill="none" points="981.9,1322.2194,967.12,1337.4094,969.21,1316.3194,981.9,1322.2194" style="stroke:#181818;stroke-width:1.0;"/></g><!--link RankRepository to DomainRepository--><g id="link_RankRepository_DomainRepository"><path codeLine="142" d="M252.91,903.6294 C379.38,992.1094 700.27,1216.5994 856.23,1325.7094 " fill="none" id="RankRepository-to-DomainRepository" style="stroke:#181818;stroke-width:1.0;stroke-dasharray:7.0,7.0;"/><polygon fill="none" points="860.68,1320.2794,873.05,1337.4794,852.65,1331.7494,860.68,1320.2794" style="stroke:#181818;stroke-width:1.0;"/></g><!--link ApplicationAcceptedEvent to DomainEvent--><g id="link_ApplicationAcceptedEvent_DomainEvent"><path codeLine="144" d="M2138,1413.6794 C2138,1487.2194 2138,1706.3494 2138,1801.3494 " fill="none" id="ApplicationAcceptedEvent-to-DomainEvent" style="stroke:#181818;stroke-width:1.0;stroke-dasharray:7.0,7.0;"/><polygon fill="none" points="2145,1801.4194,2138,1821.4194,2131,1801.4194,2145,1801.4194" style="stroke:#181818;stroke-width:1.0;"/></g><!--link JobOpeningResultsPublishedEvent to DomainEvent--><g id="link_JobOpeningResultsPublishedEvent_DomainEvent"><path codeLine="145" d="M3449.63,1587.8394 C3420.7,1631.8694 3353.48,1722.8794 3270,1761.6094 C3177.31,1804.6194 2491.8,1833.3994 2234.88,1842.7794 " fill="none" id="JobOpeningResultsPublishedEvent-to-DomainEvent" style="stroke:#181818;stroke-width:1.0;stroke-dasharray:7.0,7.0;"/><polygon fill="none" points="2234.85,1849.7894,2214.61,1843.5094,2234.34,1835.7894,2234.85,1849.7894" style="stroke:#181818;stroke-width:1.0;"/></g><!--link ApplicationStatusChangedEvent to DomainEvent--><g id="link_ApplicationStatusChangedEvent_DomainEvent"><path codeLine="146" d="M1915.23,1587.7294 C1957.41,1636.6494 2052.12,1746.4994 2103.41,1805.9894 " fill="none" id="ApplicationStatusChangedEvent-to-DomainEvent" style="stroke:#181818;stroke-width:1.0;stroke-dasharray:7.0,7.0;"/><polygon fill="none" points="2108.89,1801.6294,2116.65,1821.3494,2098.29,1810.7694,2108.89,1801.6294" style="stroke:#181818;stroke-width:1.0;"/></g><!--link Rank to EventPublisher--><g id="link_Rank_EventPublisher"><path codeLine="148" d="M1427.25,903.7594 C1451.51,919.7794 1477.71,940.2294 1497,963.6094 C1544.84,1021.5894 1577.02,1102.9094 1594.67,1156.7594 " fill="none" id="Rank-to-EventPublisher" style="stroke:#181818;stroke-width:1.0;"/><polygon fill="none" points="1601.38,1154.7694,1600.73,1175.9494,1588.03,1158.9794,1601.38,1154.7694" style="stroke:#181818;stroke-width:1.0;"/></g><!--link ApplicationAcceptedWatchDog to EventHandler--><g id="link_ApplicationAcceptedWatchDog_EventHandler"><path codeLine="149" d="M2599.58,891.2494 C2632.32,946.5994 2712.37,1081.8894 2757.56,1158.2794 " fill="none" id="ApplicationAcceptedWatchDog-to-EventHandler" style="stroke:#181818;stroke-width:1.0;stroke-dasharray:7.0,7.0;"/><polygon fill="none" points="2763.83,1155.1194,2767.99,1175.8994,2751.78,1162.2494,2763.83,1155.1194" style="stroke:#181818;stroke-width:1.0;"/></g><!--link JobOpeningResultsPublishedWatchDog to EventHandler--><g id="link_JobOpeningResultsPublishedWatchDog_EventHandler"><path codeLine="150" d="M3139.08,755.2894 C3084.36,794.3194 2979.4,874.9994 2912,963.6094 C2866.18,1023.8394 2830.69,1103.9994 2810.08,1157.0094 " fill="none" id="JobOpeningResultsPublishedWatchDog-to-EventHandler" style="stroke:#181818;stroke-width:1.0;stroke-dasharray:7.0,7.0;"/><polygon fill="none" points="2816.56,1159.6794,2802.92,1175.8994,2803.46,1154.7194,2816.56,1159.6794" style="stroke:#181818;stroke-width:1.0;"/></g><!--link ApplicationStatusChangedWatchDog to EventHandler--><g id="link_ApplicationStatusChangedWatchDog_EventHandler"><path codeLine="151" d="M2642.49,755.1294 C2685.39,769.4994 2726.94,792.1094 2755,827.6094 C2829.93,922.4394 2816.86,1074.2794 2802.44,1156.2394 " fill="none" id="ApplicationStatusChangedWatchDog-to-EventHandler" style="stroke:#181818;stroke-width:1.0;stroke-dasharray:7.0,7.0;"/><polygon fill="none" points="2809.31,1157.6194,2798.71,1175.9694,2795.55,1155.0094,2809.31,1157.6194" style="stroke:#181818;stroke-width:1.0;"/></g><!--link ApplicationAcceptedWatchDog to SendEmailOnApplicationAcceptedController--><g id="link_ApplicationAcceptedWatchDog_SendEmailOnApplicationAcceptedController"><path codeLine="152" d="M2595.14,891.4094 C2611.2,934.9094 2637.15,1026.3994 2601,1090.6094 C2588.36,1113.0594 2569.76,1131.8694 2548.89,1147.4694 " fill="none" id="ApplicationAcceptedWatchDog-to-SendEmailOnApplicationAcceptedController" style="stroke:#181818;stroke-width:1.0;stroke-dasharray:7.0,7.0;"/><polygon fill="#181818" points="2544.69,1150.5394,2554.3121,1148.4383,2548.7207,1147.5807,2549.5782,1141.9892,2544.69,1150.5394" style="stroke:#181818;stroke-width:1.0;"/></g><!--link JobOpeningResultsPublishedWatchDog to SendEmailOnJobOpeningResultsPublishedController--><g id="link_JobOpeningResultsPublishedWatchDog_SendEmailOnJobOpeningResultsPublishedController"><path codeLine="153" d="M3175,755.2994 C3175,799.4094 3175,893.2294 3175,957.9694 " fill="none" id="JobOpeningResultsPublishedWatchDog-to-SendEmailOnJobOpeningResultsPublishedController" style="stroke:#181818;stroke-width:1.0;stroke-dasharray:7.0,7.0;"/><polygon fill="#181818" points="3175,963.3594,3179,954.3594,3175,958.3594,3171,954.3594,3175,963.3594" style="stroke:#181818;stroke-width:1.0;"/></g><!--link ApplicationStatusChangedWatchDog to NotifyCandidateOnApplicationStatusChangedController--><g id="link_ApplicationStatusChangedWatchDog_NotifyCandidateOnApplicationStatusChangedController"><path codeLine="154" d="M2445.2,755.2994 C2407.72,799.7694 2327.7,894.7394 2273.11,959.5194 " fill="none" id="ApplicationStatusChangedWatchDog-to-NotifyCandidateOnApplicationStatusChangedController" style="stroke:#181818;stroke-width:1.0;stroke-dasharray:7.0,7.0;"/><polygon fill="#181818" points="2269.88,963.3594,2278.7398,959.0578,2273.1033,959.537,2272.6241,953.9005,2269.88,963.3594" style="stroke:#181818;stroke-width:1.0;"/></g><!--link ApplicationAcceptedWatchDog to ApplicationAcceptedEvent--><g id="link_ApplicationAcceptedWatchDog_ApplicationAcceptedEvent"><path codeLine="155" d="M2588.08,891.3394 C2592.34,937.6794 2594.1,1037.6494 2539,1090.6094 C2420.47,1204.5294 2289.56,1033.6694 2174,1150.6094 C2119.25,1206.0194 2125.4,1307.1794 2132.6,1357.3194 " fill="none" id="ApplicationAcceptedWatchDog-to-ApplicationAcceptedEvent" style="stroke:#181818;stroke-width:1.0;stroke-dasharray:7.0,7.0;"/><polygon fill="#181818" points="2133.35,1362.2994,2135.968,1352.8048,2132.6069,1357.3549,2128.0568,1353.9938,2133.35,1362.2994" style="stroke:#181818;stroke-width:1.0;"/></g><!--link JobOpeningResultsPublishedWatchDog to JobOpeningResultsPublishedEvent--><g id="link_JobOpeningResultsPublishedWatchDog_JobOpeningResultsPublishedEvent"><path codeLine="156" d="M3240.19,755.2194 C3335.32,795.8794 3501,886.6994 3501,1026.1094 C3501,1026.1094 3501,1026.1094 3501,1215.1094 C3501,1332.6494 3480.19,1471.4494 3470.22,1531.2494 " fill="none" id="JobOpeningResultsPublishedWatchDog-to-JobOpeningResultsPublishedEvent" style="stroke:#181818;stroke-width:1.0;stroke-dasharray:7.0,7.0;"/><polygon fill="#181818" points="3469.34,1536.4494,3474.7767,1528.2371,3470.1689,1531.5186,3466.8875,1526.9108,3469.34,1536.4494" style="stroke:#181818;stroke-width:1.0;"/></g><!--link ApplicationStatusChangedWatchDog to ApplicationStatusChangedEvent--><g id="link_ApplicationStatusChangedWatchDog_ApplicationStatusChangedEvent"><path codeLine="157" d="M2288.39,743.0394 C2109.25,766.3694 1859,833.4494 1859,1026.1094 C1859,1026.1094 1859,1026.1094 1859,1215.1094 C1859,1332.6194 1879.23,1471.4394 1888.93,1531.2494 " fill="none" id="ApplicationStatusChangedWatchDog-to-ApplicationStatusChangedEvent" style="stroke:#181818;stroke-width:1.0;stroke-dasharray:7.0,7.0;"/><polygon fill="#181818" points="1889.78,1536.4394,1892.2863,1526.9148,1888.9789,1531.504,1884.3897,1528.1965,1889.78,1536.4394" style="stroke:#181818;stroke-width:1.0;"/></g><!--link SendEmailOnApplicationAcceptedController to FollowUpConnectionService--><g id="link_SendEmailOnApplicationAcceptedController_FollowUpConnectionService"><path codeLine="159" d="M2423.27,1277.7694 C2446.86,1338.6894 2482.59,1430.9494 2506.82,1493.5094 " fill="none" id="SendEmailOnApplicationAcceptedController-to-FollowUpConnectionService" style="stroke:#181818;stroke-width:1.0;"/><polygon fill="#181818" points="2508.69,1498.3294,2509.1764,1488.4925,2506.8874,1493.6656,2501.7144,1491.3766,2508.69,1498.3294" style="stroke:#181818;stroke-width:1.0;"/></g><!--link SendEmailOnJobOpeningResultsPublishedController to FollowUpConnectionService--><g id="link_SendEmailOnJobOpeningResultsPublishedController_FollowUpConnectionService"><path codeLine="160" d="M3035.74,1090.7394 C3007.27,1107.5594 2979.02,1127.5794 2956,1150.6094 C2910.28,1196.3394 2926.72,1228.1994 2885,1277.6094 C2812.16,1363.8694 2710,1442.7194 2634.49,1495.2394 " fill="none" id="SendEmailOnJobOpeningResultsPublishedController-to-FollowUpConnectionService" style="stroke:#181818;stroke-width:1.0;"/><polygon fill="#181818" points="2630.01,1498.3494,2639.6839,1496.5013,2634.1168,1495.4974,2635.1207,1489.9303,2630.01,1498.3494" style="stroke:#181818;stroke-width:1.0;"/></g><!--link SendEmailOnJobOpeningResultsPublishedController to CustomerRepository--><g id="link_SendEmailOnJobOpeningResultsPublishedController_CustomerRepository"><path codeLine="161" d="M3175,1090.7394 C3175,1117.0594 3175,1146.9794 3175,1170.6494 " fill="none" id="SendEmailOnJobOpeningResultsPublishedController-to-CustomerRepository" style="stroke:#181818;stroke-width:1.0;"/><polygon fill="#181818" points="3175,1175.9094,3179,1166.9094,3175,1170.9094,3171,1166.9094,3175,1175.9094" style="stroke:#181818;stroke-width:1.0;"/></g><!--link NotifyCandidateOnApplicationStatusChangedController to NotificationManagementService--><g id="link_NotifyCandidateOnApplicationStatusChangedController_NotificationManagementService"><path codeLine="162" d="M2521.59,1090.5294 C2558.7,1106.2594 2594.29,1125.9594 2625,1150.6094 C2675.43,1191.0894 2644.61,1238.3594 2696,1277.6094 C2752.33,1320.6294 2823.44,1346.9394 2892.01,1362.9694 " fill="none" id="NotifyCandidateOnApplicationStatusChangedController-to-NotificationManagementService" style="stroke:#181818;stroke-width:1.0;"/><polygon fill="#181818" points="2896.94,1364.0994,2889.075,1358.1713,2892.069,1362.9709,2887.2694,1365.9649,2896.94,1364.0994" style="stroke:#181818;stroke-width:1.0;"/></g><!--link NotificationManagementService to Notification--><g id="link_NotificationManagementService_Notification"><path codeLine="163" d="M3142.3,1426.2294 C3147.59,1474.0894 3151.66,1559.0694 3126,1625.6094 C3118.11,1646.0794 3104.09,1665.4194 3089.96,1681.3694 " fill="none" id="NotificationManagementService-to-Notification" style="stroke:#181818;stroke-width:1.0;stroke-dasharray:7.0,7.0;"/><polygon fill="#181818" points="3086.37,1685.3494,3095.3724,1681.3547,3089.7227,1681.64,3089.4374,1675.9904,3086.37,1685.3494" style="stroke:#181818;stroke-width:1.0;"/></g><!--link NotificationManagementService to NotificationRepository--><g id="link_NotificationManagementService_NotificationRepository"><path codeLine="164" d="M3106.41,1426.4294 C3080.31,1458.2594 3043.35,1503.3594 3019.52,1532.4194 " fill="none" id="NotificationManagementService-to-NotificationRepository" style="stroke:#181818;stroke-width:1.0;"/><polygon fill="#181818" points="3016.1,1536.5894,3024.9057,1532.178,3019.2755,1532.7272,3018.7262,1527.0971,3016.1,1536.5894" style="stroke:#181818;stroke-width:1.0;"/></g><!--link NotificationRepository to Notification--><g id="link_NotificationRepository_Notification"><path codeLine="165" d="M3003.7,1587.6794 C3011.45,1612.3794 3023.53,1650.9294 3032.8,1680.5094 " fill="none" id="NotificationRepository-to-Notification" style="stroke:#181818;stroke-width:1.0;"/><polygon fill="#181818" points="3034.38,1685.5494,3035.5235,1675.7671,3032.8935,1680.7755,3027.8852,1678.1455,3034.38,1685.5494" style="stroke:#181818;stroke-width:1.0;"/></g><!--link SendEmailOnApplicationAcceptedController to ApplicationAcceptedEvent--><g id="link_SendEmailOnApplicationAcceptedController_ApplicationAcceptedEvent"><path codeLine="167" d="M2304.03,1277.6894 C2261.35,1305.8194 2213.18,1337.5694 2179.76,1359.5894 " fill="none" id="SendEmailOnApplicationAcceptedController-to-ApplicationAcceptedEvent" style="stroke:#181818;stroke-width:1.0;"/><polygon fill="#181818" points="2175.35,1362.4994,2185.0676,1360.8969,2179.5278,1359.7523,2180.6724,1354.2125,2175.35,1362.4994" style="stroke:#181818;stroke-width:1.0;"/></g><!--link SendEmailOnJobOpeningResultsPublishedController to JobOpeningResultsPublishedEvent--><g id="link_SendEmailOnJobOpeningResultsPublishedController_JobOpeningResultsPublishedEvent"><path codeLine="168" d="M3328.99,1090.6894 C3353.92,1106.8994 3377.07,1126.6994 3394,1150.6094 C3478.89,1270.5194 3473.76,1458.5794 3468.03,1531.1494 " fill="none" id="SendEmailOnJobOpeningResultsPublishedController-to-JobOpeningResultsPublishedEvent" style="stroke:#181818;stroke-width:1.0;"/><polygon fill="#181818" points="3467.62,1536.1794,3472.3515,1527.5415,3468.034,1531.1965,3464.379,1526.879,3467.62,1536.1794" style="stroke:#181818;stroke-width:1.0;"/></g><!--link NotifyCandidateOnApplicationStatusChangedController to ApplicationStatusChangedEvent--><g id="link_NotifyCandidateOnApplicationStatusChangedController_ApplicationStatusChangedEvent"><path codeLine="169" d="M2160.61,1090.7094 C2144.4,1109.5494 2127.04,1130.5494 2112,1150.6094 C2052.47,1230.0094 2036.87,1250.1394 1990,1337.6094 C1954.09,1404.6294 1921.2,1487.9394 1904.85,1531.4694 " fill="none" id="NotifyCandidateOnApplicationStatusChangedController-to-ApplicationStatusChangedEvent" style="stroke:#181818;stroke-width:1.0;"/><polygon fill="#181818" points="1903.03,1536.3194,1909.9166,1529.2785,1904.7731,1531.633,1902.4185,1526.4895,1903.03,1536.3194" style="stroke:#181818;stroke-width:1.0;"/></g><!--link PublishingResultJobOpeningController to RankRepository--><g id="link_PublishingResultJobOpeningController_RankRepository"><path codeLine="170" d="M393.83,631.7794 C345.82,689.4494 275.96,773.3594 234.53,823.1294 " fill="none" id="PublishingResultJobOpeningController-to-RankRepository" style="stroke:#181818;stroke-width:1.0;"/><polygon fill="#181818" points="231.11,827.2394,239.943,822.8829,234.3095,823.3971,233.7953,817.7637,231.11,827.2394" style="stroke:#181818;stroke-width:1.0;"/></g><!--link PublishingResultJobOpeningController to Rank--><g id="link_PublishingResultJobOpeningController_Rank"><path codeLine="171" d="M701.28,631.6394 C768.9,649.6094 841.56,670.1794 908,691.6094 C1034.14,732.2894 1176.45,788.3694 1267.35,825.5094 " fill="none" id="PublishingResultJobOpeningController-to-Rank" style="stroke:#181818;stroke-width:1.0;stroke-dasharray:7.0,7.0;"/><polygon fill="#181818" points="1272.17,827.4894,1265.3632,820.3713,1267.5445,825.5907,1262.3252,827.772,1272.17,827.4894" style="stroke:#181818;stroke-width:1.0;"/></g><!--link Rank to RankOrder--><g id="link_Rank_RankOrder"><path codeLine="172" d="M1355.84,904.0094 C1353.07,924.1194 1349.59,949.2994 1346.52,971.5694 " fill="none" id="Rank-to-RankOrder" style="stroke:#181818;stroke-width:1.0;"/><polygon fill="#181818" points="1345.83,976.5594,1351.0255,968.1924,1346.5151,971.6065,1343.1009,967.0962,1345.83,976.5594" style="stroke:#181818;stroke-width:1.0;"/><text fill="#000000" font-family="sans-serif" font-size="20" lengthAdjust="spacing" textLength="31" x="1313.7192" y="964.2228">1..*</text></g><!--link RankOrder to Application--><g id="link_RankOrder_Application"><path codeLine="173" d="M1326.44,1077.6494 C1309.49,1144.5194 1279.39,1263.2594 1261.82,1332.5994 " fill="none" id="RankOrder-to-Application" style="stroke:#181818;stroke-width:1.0;"/><polygon fill="#181818" points="1260.57,1337.4994,1266.6603,1329.7593,1261.7995,1332.6529,1258.9059,1327.7921,1260.57,1337.4994" style="stroke:#181818;stroke-width:1.0;"/><text fill="#000000" font-family="sans-serif" font-size="20" lengthAdjust="spacing" textLength="11" x="1250.4758" y="1325.1551">1</text></g><!--link Rank to ApplicationRepository--><g id="link_Rank_ApplicationRepository"><path codeLine="174" d="M1302.7,903.7994 C1264,928.4994 1213.24,960.8794 1173.67,986.1294 " fill="none" id="Rank-to-ApplicationRepository" style="stroke:#181818;stroke-width:1.0;"/><polygon fill="#181818" points="1169.39,988.8594,1179.1259,987.3723,1173.6001,986.1621,1174.8103,980.6362,1169.39,988.8594" style="stroke:#181818;stroke-width:1.0;"/></g><!--link Rank to ApplicationStatusChangedEvent--><g id="link_Rank_ApplicationStatusChangedEvent"><path codeLine="175" d="M1395.76,903.7294 C1410.1,920.8294 1425.74,942.0894 1436,963.6094 C1497.69,1093.0394 1431.05,1157.9294 1510,1277.6094 C1592.37,1402.4794 1749.52,1492.2094 1835.02,1534.2694 " fill="none" id="Rank-to-ApplicationStatusChangedEvent" style="stroke:#181818;stroke-width:1.0;stroke-dasharray:7.0,7.0;"/><polygon fill="#181818" points="1839.54,1536.4794,1833.2114,1528.9329,1835.0481,1534.2833,1829.6977,1536.12,1839.54,1536.4794" style="stroke:#181818;stroke-width:1.0;"/></g><!--link Rank to ApplicationAcceptedEvent--><g id="link_Rank_ApplicationAcceptedEvent"><path codeLine="176" d="M1444.16,903.6294 C1479.95,920.5594 1521.79,941.6994 1558,963.6094 C1776.68,1095.9194 2017.05,1287.8894 2104.15,1359.1294 " fill="none" id="Rank-to-ApplicationAcceptedEvent" style="stroke:#181818;stroke-width:1.0;stroke-dasharray:7.0,7.0;"/><polygon fill="#181818" points="2108.18,1362.4294,2103.7526,1353.6317,2104.3121,1359.2609,2098.683,1359.8203,2108.18,1362.4294" style="stroke:#181818;stroke-width:1.0;"/></g><!--link PublishingResultJobOpeningController to JobOpeningResultsPublishedEvent--><g id="link_PublishingResultJobOpeningController_JobOpeningResultsPublishedEvent"><path codeLine="178" d="M703.72,629.2994 C709.53,630.1294 715.29,630.8994 721,631.6094 C1014.62,667.9094 3108.46,581.3594 3383,691.6094 C3488.67,734.0494 3572,750.7294 3572,864.6094 C3572,864.6094 3572,864.6094 3572,1215.1094 C3572,1337.1194 3510.52,1472.9594 3480.77,1531.5594 " fill="none" id="PublishingResultJobOpeningController-to-JobOpeningResultsPublishedEvent" style="stroke:#181818;stroke-width:1.0;stroke-dasharray:7.0,7.0;"/><polygon fill="#181818" points="3478.34,1536.3194,3485.9904,1530.1168,3480.6103,1531.8645,3478.8626,1526.4844,3478.34,1536.3194" style="stroke:#181818;stroke-width:1.0;"/></g><!--link PublishingResultJobOpeningController to EventPublisher--><g id="link_PublishingResultJobOpeningController_EventPublisher"><path codeLine="179" d="M703.57,627.9594 C709.43,629.1994 715.25,630.4194 721,631.6094 C1093.84,708.8994 1301.59,543.4194 1555,827.6094 C1636.26,918.7394 1630.76,1073.0594 1620.45,1156.1194 " fill="none" id="PublishingResultJobOpeningController-to-EventPublisher" style="stroke:#181818;stroke-width:1.0;"/><polygon fill="none" points="1627.37,1157.2394,1617.71,1176.0994,1613.5,1155.3294,1627.37,1157.2394" style="stroke:#181818;stroke-width:1.0;"/></g><!--reverse link JobOpeningManagementService to PublishingResultJobOpeningController--><g id="link_JobOpeningManagementService_PublishingResultJobOpeningController"><path codeLine="180" d="M1156.24,445.2194 C1017.89,460.5594 862.21,480.4394 721,504.6094 C715.33,505.5794 709.6,506.5894 703.83,507.6394 " fill="none" id="JobOpeningManagementService-backto-PublishingResultJobOpeningController" style="stroke:#181818;stroke-width:1.0;"/><polygon fill="#181818" points="1161.57,444.6294,1152.1805,441.6566,1156.6011,445.1862,1153.0715,449.6068,1161.57,444.6294" style="stroke:#181818;stroke-width:1.0;"/></g><!--link JobOpeningRepository to DomainRepository--><g id="link_JobOpeningRepository_DomainRepository"><path codeLine="181" d="M1127.06,606.2894 C1054.79,655.5694 944,749.8394 944,864.6094 C944,864.6094 944,864.6094 944,1028.1094 C944,1128.6594 944,1245.0494 944,1317.3794 " fill="none" id="JobOpeningRepository-to-DomainRepository" style="stroke:#181818;stroke-width:1.0;stroke-dasharray:7.0,7.0;"/><polygon fill="none" points="951,1317.4594,944,1337.4594,937,1317.4594,951,1317.4594" style="stroke:#181818;stroke-width:1.0;"/></g><!--link JobOpeningRepository to JobOpening--><g id="link_JobOpeningRepository_JobOpening"><path codeLine="182" d="M1460.36,606.1594 C1523.6,624.3294 1587.42,651.3694 1639,691.6094 C1681.92,725.0894 1708.82,783.1794 1723.12,822.7294 " fill="none" id="JobOpeningRepository-to-JobOpening" style="stroke:#181818;stroke-width:1.0;stroke-dasharray:7.0,7.0;"/><polygon fill="#181818" points="1724.8,827.4594,1725.5626,817.6401,1723.1292,822.7468,1718.0225,820.3134,1724.8,827.4594" style="stroke:#181818;stroke-width:1.0;"/></g><!--SRC=[hLXDRziu4BtpLn3f8ShMTj9Y3uiY4E3QDPgYkrx4JVTCIsERZKmA9EN0JVlVbwGaYv8fMGwIKqI-Dz-S6LW-KfOIGRO9ZnuXnZ6iI9Qe6MTgGNy2Vd-3BZTAfVB3zNMQ4AQoRJAA-FOwIeYKmvYIjIOZfAXA03yitjsyly53F36tU5hU8aIMKWaIAMnvU5nyFjpXPuJrtniSyyM6FmLNnQTqFxQ4ig-Sf_hWDqAvY7-pPKBbXhBrFKXjyXU-dAV0zBSL-hOIs8CoqVuAdYGWiEMkmRdyIgKAhl07_ADsD5LS8zDSPYvmnaL52oguXbwXOHqhw_S376LIyIs8lmaZQn2VjDE9DHvHfa2iI0HudAO9ZOYYdDr3oYLLNEojnPBi823LjUEsGx9G4aMGAkTKn-Wj5l03eiRfRrStlYViiQ5LwAFvgkxpFQn008l0XCnmAalCb-ODyHS7veHrB2MFA54GEzPdQiC5_MbjMe3OKKqnke79J82v1gQCpH0_I12VYHop_NmLw7o2R0PmoaqjDRpWgxlOo51x6maRoeRpbOiDRcMyl6DvParnp5UJUZg3HdgDgOniRP3kj1QoJE2sqX9gzRd_rLdEt6fBYp2ybdv3S7JhQlIfdtwREteZpdOWr3UkZuFwm-WlqaPGSNqRD1FrQQVzB1ui28qh7ey5Dc2V2OiJ2-BC7ZH0UTBjpRDHSwajmAK9nMiicuCklQQL1U80-8-eQ3Fbw-UgIDl11wqvS04ijYzxpjevLJUoBxkaE67sQZ4jHZUk1KYfdyf4W2rgaiZ0t81KnAArTAPVkddXML440vnguvwuYAyEbfRrKzMxJNjncljmAB90ZuIKiFs4ns0pUUasdOKYAjCIDuIjzOonnXxtfXnLW3mnReCs8lmFLtIrd-YIeB7k2NFMngj7cJLegmALKzpEUgpyTGDl7JXgyi_UUszB4B3Mhm-42ppbW4-uVPtd2QddVMm7JNl6o_lkP9UezfVa0RSz8T8YztLJEDEQ-TD3Mi6Tz5J6-2R-GASl0hehFnLFQJG0y_z77k_DV8eIBi6nn9oTQw6Pn7CHwttdzZRuFdWpc_tryS-RAxmZIGQOByqk48PsLdC3-sxEJNgSpUtsrt3OkOOXrBcaZOR3iDTErYN7sToCED-sS0xTjr-XZX5iMRxbu0nIDLWxIQCQ2VduJOn_NHmrF6s7_GgF5YRKs097NX1gUxykFkyA9qPdpOoSqJa8F7XhiewvEQ-l5QYZ6HM2t0K3dTu9VAnJCyvmkaW-oyBU_Q-dqU6vgqaljyANZEFJlhTLLszVJnHTJzyw2n6XlXaofHcspmnqPc9UNrpeMGRH2nARMzQvlw3EMwUaojxLZM_2c_OVTxqZ1UUaiQCoNv347dNwiYISgjpUux8-2_hnHYMnRCiXldWt6lrnKUqagDfEykkBshWwyFpJsbwFylXr-tb0TkIjjrEzyjNl5oZVfEgNaooj6N7ylBo_O_XdU0kqlc7y3m00]--></g></svg>