<?xml version="1.0" encoding="UTF-8" standalone="no"?><svg xmlns="http://www.w3.org/2000/svg" xmlns:xlink="http://www.w3.org/1999/xlink" contentStyleType="text/css" height="675px" preserveAspectRatio="none" style="width:1840px;height:675px;background:#FFFFFF;" version="1.1" viewBox="0 0 1840 675" width="1840px" zoomAndPan="magnify"><defs/><g><text fill="#000000" font-family="sans-serif" font-size="14" font-weight="bold" lengthAdjust="spacing" textLength="376" x="733.75" y="29.5332">US1020 - Notify Candidate Application Status Changed</text><rect fill="#FFFFFF" height="387.5625" style="stroke:#181818;stroke-width:1.0;" width="10" x="108" y="175.2344"/><rect fill="#FFFFFF" height="348.4063" style="stroke:#181818;stroke-width:1.0;" width="10" x="284.5" y="214.3906"/><rect fill="#FFFFFF" height="183.625" style="stroke:#181818;stroke-width:1.0;" width="10" x="752.5" y="379.1719"/><rect fill="#FFFFFF" height="144.4688" style="stroke:#181818;stroke-width:1.0;" width="10" x="1249.5" y="418.3281"/><rect fill="#FFFFFF" height="30" style="stroke:#181818;stroke-width:1.0;" width="10" x="1733" y="532.7969"/><line style="stroke:#181818;stroke-width:0.5;stroke-dasharray:5.0,5.0;" x1="112.5" x2="112.5" y1="134.0781" y2="580.7969"/><line style="stroke:#181818;stroke-width:0.5;stroke-dasharray:5.0,5.0;" x1="289.5" x2="289.5" y1="134.0781" y2="580.7969"/><line style="stroke:#181818;stroke-width:0.5;stroke-dasharray:5.0,5.0;" x1="757.5" x2="757.5" y1="282.625" y2="580.7969"/><line style="stroke:#181818;stroke-width:0.5;stroke-dasharray:5.0,5.0;" x1="1254" x2="1254" y1="134.0781" y2="580.7969"/><line style="stroke:#181818;stroke-width:0.5;stroke-dasharray:5.0,5.0;" x1="1568.5" x2="1568.5" y1="473.9844" y2="580.7969"/><line style="stroke:#181818;stroke-width:0.5;stroke-dasharray:5.0,5.0;" x1="1737.5" x2="1737.5" y1="134.0781" y2="580.7969"/><rect fill="#E2E2F0" height="64.3125" rx="2.5" ry="2.5" style="stroke:#181818;stroke-width:0.5;" width="149" x="38.5" y="68.7656"/><text fill="#000000" font-family="sans-serif" font-size="20" font-style="italic" lengthAdjust="spacing" textLength="118" x="54" y="96.5273">«application»</text><text fill="#000000" font-family="sans-serif" font-size="20" lengthAdjust="spacing" textLength="135" x="45.5" y="121.6836">:EventPublisher</text><rect fill="#E2E2F0" height="64.3125" rx="2.5" ry="2.5" style="stroke:#181818;stroke-width:0.5;" width="149" x="38.5" y="579.7969"/><text fill="#000000" font-family="sans-serif" font-size="20" font-style="italic" lengthAdjust="spacing" textLength="118" x="54" y="607.5586">«application»</text><text fill="#000000" font-family="sans-serif" font-size="20" lengthAdjust="spacing" textLength="135" x="45.5" y="632.7148">:EventPublisher</text><rect fill="#E2E2F0" height="89.4688" rx="2.5" ry="2.5" style="stroke:#181818;stroke-width:0.5;" width="184" x="197.5" y="43.6094"/><text fill="#000000" font-family="sans-serif" font-size="20" font-style="italic" lengthAdjust="spacing" textLength="118" x="230.5" y="71.3711">«application»</text><text fill="#000000" font-family="sans-serif" font-size="20" lengthAdjust="spacing" textLength="157" x="211" y="96.5273">:ApplicationStatus</text><text fill="#000000" font-family="sans-serif" font-size="20" lengthAdjust="spacing" textLength="170" x="204.5" y="121.6836">ChangedWatchDog</text><rect fill="#E2E2F0" height="89.4688" rx="2.5" ry="2.5" style="stroke:#181818;stroke-width:0.5;" width="184" x="197.5" y="579.7969"/><text fill="#000000" font-family="sans-serif" font-size="20" font-style="italic" lengthAdjust="spacing" textLength="118" x="230.5" y="607.5586">«application»</text><text fill="#000000" font-family="sans-serif" font-size="20" lengthAdjust="spacing" textLength="157" x="211" y="632.7148">:ApplicationStatus</text><text fill="#000000" font-family="sans-serif" font-size="20" lengthAdjust="spacing" textLength="170" x="204.5" y="657.8711">ChangedWatchDog</text><rect fill="#E2E2F0" height="89.4688" rx="2.5" ry="2.5" style="stroke:#181818;stroke-width:0.5;" width="280" x="617.5" y="579.7969"/><text fill="#000000" font-family="sans-serif" font-size="20" font-style="italic" lengthAdjust="spacing" textLength="118" x="698.5" y="607.5586">«application»</text><text fill="#000000" font-family="sans-serif" font-size="20" lengthAdjust="spacing" textLength="266" x="624.5" y="632.7148">:NotifyCandidateOnApplication</text><text fill="#000000" font-family="sans-serif" font-size="20" lengthAdjust="spacing" textLength="219" x="648" y="657.8711">StatusChangedController</text><rect fill="#E2E2F0" height="89.4688" rx="2.5" ry="2.5" style="stroke:#181818;stroke-width:0.5;" width="193" x="1158" y="43.6094"/><text fill="#000000" font-family="sans-serif" font-size="20" font-style="italic" lengthAdjust="spacing" textLength="86" x="1211.5" y="71.3711">«service»</text><text fill="#000000" font-family="sans-serif" font-size="20" lengthAdjust="spacing" textLength="102" x="1203.5" y="96.5273">:Notification</text><text fill="#000000" font-family="sans-serif" font-size="20" lengthAdjust="spacing" textLength="179" x="1165" y="121.6836">ManagementService</text><rect fill="#E2E2F0" height="89.4688" rx="2.5" ry="2.5" style="stroke:#181818;stroke-width:0.5;" width="193" x="1158" y="579.7969"/><text fill="#000000" font-family="sans-serif" font-size="20" font-style="italic" lengthAdjust="spacing" textLength="86" x="1211.5" y="607.5586">«service»</text><text fill="#000000" font-family="sans-serif" font-size="20" lengthAdjust="spacing" textLength="102" x="1203.5" y="632.7148">:Notification</text><text fill="#000000" font-family="sans-serif" font-size="20" lengthAdjust="spacing" textLength="179" x="1165" y="657.8711">ManagementService</text><rect fill="#E2E2F0" height="64.3125" rx="2.5" ry="2.5" style="stroke:#181818;stroke-width:0.5;" width="116" x="1510.5" y="579.7969"/><text fill="#000000" font-family="sans-serif" font-size="20" font-style="italic" lengthAdjust="spacing" textLength="88" x="1524.5" y="607.5586">«domain»</text><text fill="#000000" font-family="sans-serif" font-size="20" lengthAdjust="spacing" textLength="102" x="1517.5" y="632.7148">:Notification</text><text fill="#000000" font-family="sans-serif" font-size="20" lengthAdjust="spacing" textLength="197" x="1636.5" y="129.6836">:NotificationRepository</text><path d="M1720,72.9219 C1720,62.9219 1738,62.9219 1738,62.9219 C1738,62.9219 1756,62.9219 1756,72.9219 L1756,98.9219 C1756,108.9219 1738,108.9219 1738,108.9219 C1738,108.9219 1720,108.9219 1720,98.9219 L1720,72.9219 " fill="#E2E2F0" style="stroke:#181818;stroke-width:1.5;"/><path d="M1720,72.9219 C1720,82.9219 1738,82.9219 1738,82.9219 C1738,82.9219 1756,82.9219 1756,72.9219 " fill="none" style="stroke:#181818;stroke-width:1.5;"/><text fill="#000000" font-family="sans-serif" font-size="20" lengthAdjust="spacing" textLength="197" x="1636.5" y="600.5586">:NotificationRepository</text><path d="M1720,614.9531 C1720,604.9531 1738,604.9531 1738,604.9531 C1738,604.9531 1756,604.9531 1756,614.9531 L1756,640.9531 C1756,650.9531 1738,650.9531 1738,650.9531 C1738,650.9531 1720,650.9531 1720,640.9531 L1720,614.9531 " fill="#E2E2F0" style="stroke:#181818;stroke-width:1.5;"/><path d="M1720,614.9531 C1720,624.9531 1738,624.9531 1738,624.9531 C1738,624.9531 1756,624.9531 1756,614.9531 " fill="none" style="stroke:#181818;stroke-width:1.5;"/><rect fill="#FFFFFF" height="387.5625" style="stroke:#181818;stroke-width:1.0;" width="10" x="108" y="175.2344"/><rect fill="#FFFFFF" height="348.4063" style="stroke:#181818;stroke-width:1.0;" width="10" x="284.5" y="214.3906"/><rect fill="#FFFFFF" height="183.625" style="stroke:#181818;stroke-width:1.0;" width="10" x="752.5" y="379.1719"/><rect fill="#FFFFFF" height="144.4688" style="stroke:#181818;stroke-width:1.0;" width="10" x="1249.5" y="418.3281"/><rect fill="#FFFFFF" height="30" style="stroke:#181818;stroke-width:1.0;" width="10" x="1733" y="532.7969"/><polygon fill="#181818" points="96,171.2344,106,175.2344,96,179.2344,100,175.2344" style="stroke:#181818;stroke-width:1.0;"/><line style="stroke:#181818;stroke-width:1.0;" x1="0" x2="102" y1="175.2344" y2="175.2344"/><text fill="#000000" font-family="sans-serif" font-size="20" font-weight="bold" lengthAdjust="spacing" textLength="11" x="7" y="168.8398">1</text><text fill="#000000" font-family="sans-serif" font-size="20" lengthAdjust="spacing" textLength="74" x="22" y="168.8398">publish()</text><polygon fill="#181818" points="272.5,210.3906,282.5,214.3906,272.5,218.3906,276.5,214.3906" style="stroke:#181818;stroke-width:1.0;"/><line style="stroke:#181818;stroke-width:1.0;" x1="118" x2="278.5" y1="214.3906" y2="214.3906"/><text fill="#000000" font-family="sans-serif" font-size="20" font-weight="bold" lengthAdjust="spacing" textLength="11" x="125" y="207.9961">2</text><text fill="#000000" font-family="sans-serif" font-size="20" lengthAdjust="spacing" textLength="84" x="140" y="207.9961">onEvent()</text><polygon fill="#181818" points="605.5,249.5469,615.5,253.5469,605.5,257.5469,609.5,253.5469" style="stroke:#181818;stroke-width:1.0;"/><line style="stroke:#181818;stroke-width:1.0;" x1="294.5" x2="611.5" y1="253.5469" y2="253.5469"/><text fill="#000000" font-family="sans-serif" font-size="20" font-weight="bold" lengthAdjust="spacing" textLength="11" x="301.5" y="247.1523">3</text><text fill="#000000" font-family="sans-serif" font-size="20" lengthAdjust="spacing" textLength="70" x="316.5" y="247.1523">create()</text><rect fill="#E2E2F0" height="89.4688" rx="2.5" ry="2.5" style="stroke:#181818;stroke-width:0.5;" width="280" x="617.5" y="222.3906"/><text fill="#000000" font-family="sans-serif" font-size="20" font-style="italic" lengthAdjust="spacing" textLength="118" x="698.5" y="250.1523">«application»</text><text fill="#000000" font-family="sans-serif" font-size="20" lengthAdjust="spacing" textLength="266" x="624.5" y="275.3086">:NotifyCandidateOnApplication</text><text fill="#000000" font-family="sans-serif" font-size="20" lengthAdjust="spacing" textLength="219" x="648" y="300.4648">StatusChangedController</text><polygon fill="#181818" points="740.5,375.1719,750.5,379.1719,740.5,383.1719,744.5,379.1719" style="stroke:#181818;stroke-width:1.0;"/><line style="stroke:#181818;stroke-width:1.0;" x1="294.5" x2="746.5" y1="379.1719" y2="379.1719"/><text fill="#000000" font-family="sans-serif" font-size="20" font-weight="bold" lengthAdjust="spacing" textLength="11" x="301.5" y="360.1992">4</text><text fill="#000000" font-family="sans-serif" font-size="20" lengthAdjust="spacing" textLength="158" x="316.5" y="347.6211">notifyCandidateOf</text><text fill="#000000" font-family="sans-serif" font-size="20" lengthAdjust="spacing" textLength="424" x="316.5" y="372.7773">ChangedStatus(applicationStatusChangedEvent)</text><polygon fill="#181818" points="1237.5,414.3281,1247.5,418.3281,1237.5,422.3281,1241.5,418.3281" style="stroke:#181818;stroke-width:1.0;"/><line style="stroke:#181818;stroke-width:1.0;" x1="762.5" x2="1243.5" y1="418.3281" y2="418.3281"/><text fill="#000000" font-family="sans-serif" font-size="20" font-weight="bold" lengthAdjust="spacing" textLength="11" x="769.5" y="411.9336">5</text><text fill="#000000" font-family="sans-serif" font-size="20" lengthAdjust="spacing" textLength="453" x="784.5" y="411.9336">registerNotification(applicationStatusChangedEvent)</text><polygon fill="#181818" points="1498.5,478.6406,1508.5,482.6406,1498.5,486.6406,1502.5,482.6406" style="stroke:#181818;stroke-width:1.0;"/><line style="stroke:#181818;stroke-width:1.0;" x1="1259.5" x2="1504.5" y1="482.6406" y2="482.6406"/><text fill="#000000" font-family="sans-serif" font-size="20" font-weight="bold" lengthAdjust="spacing" textLength="11" x="1266.5" y="463.668">6</text><text fill="#000000" font-family="sans-serif" font-size="20" lengthAdjust="spacing" textLength="212" x="1281.5" y="451.0898">create(applicationStatus</text><text fill="#000000" font-family="sans-serif" font-size="20" lengthAdjust="spacing" textLength="134" x="1281.5" y="476.2461">ChangedEvent)</text><rect fill="#E2E2F0" height="64.3125" rx="2.5" ry="2.5" style="stroke:#181818;stroke-width:0.5;" width="116" x="1510.5" y="426.3281"/><text fill="#000000" font-family="sans-serif" font-size="20" font-style="italic" lengthAdjust="spacing" textLength="88" x="1524.5" y="454.0898">«domain»</text><text fill="#000000" font-family="sans-serif" font-size="20" lengthAdjust="spacing" textLength="102" x="1517.5" y="479.2461">:Notification</text><polygon fill="#181818" points="1721,528.7969,1731,532.7969,1721,536.7969,1725,532.7969" style="stroke:#181818;stroke-width:1.0;"/><line style="stroke:#181818;stroke-width:1.0;" x1="1259.5" x2="1727" y1="532.7969" y2="532.7969"/><text fill="#000000" font-family="sans-serif" font-size="20" font-weight="bold" lengthAdjust="spacing" textLength="11" x="1266.5" y="526.4023">7</text><text fill="#000000" font-family="sans-serif" font-size="20" lengthAdjust="spacing" textLength="148" x="1281.5" y="526.4023">save(notification)</text><!--SRC=[ZPBTIiD048Nlzoa6hweWL2z3AKWQGT0OsceH19acqtPfkXjs9u7wz6wpiLqYQdEty_FDp3cnMwagDBWhTRwb0WfQOLtolLOyavy4jqE1DMjLxvPaX6399S7Bx6PuEuHhI3NBrHvYL8Kia0dkgggKERBK2cQCN5k8DwZML0ZXnh3CPOMAuI9A6bASrSjIsWsP2q0BIGQZ4Pu8ut6l9w1x-Blgw0laV3FHwvQpcFp3yMiVjtvM0VYzGtVWs0bXT5bsAyRpwUD7yfgaytD6795Fg71DEtVnZ4mZS_BtflE7-Pi3MH_y4z9sfAwuq3kKXu5kTLoYfLxXb2fj9MkpzoqVqoHx5aB0zVYWS0IL5trmAJ1dsHniIp8XNCvLB2OHQDMQ4nOi9a8uMLt1IO6hgmXoGoxjAd-c8r0zcLT7kxp40-pxsQNRyS7q4rI8m873GQs44HXQIyjaGY7Endk8Ky3xuR1fS1l- -jDrdB2l5Ji2YmqDLB1BCAqpfA1-n7r1y7kf8EHC20koy1L8z0K0]--></g></svg>