<?xml version="1.0" encoding="UTF-8" standalone="no"?><svg xmlns="http://www.w3.org/2000/svg" xmlns:xlink="http://www.w3.org/1999/xlink" contentStyleType="text/css" height="1718px" preserveAspectRatio="none" style="width:2978px;height:1718px;background:#FFFFFF;" version="1.1" viewBox="0 0 2978 1718" width="2978px" zoomAndPan="magnify"><defs/><g><text fill="#000000" font-family="sans-serif" font-size="14" font-weight="bold" lengthAdjust="spacing" textLength="196" x="1392.5" y="29.5332">US1020 - Sequence Diagram</text><rect fill="#FFFFFF" height="1438.4688" style="stroke:#181818;stroke-width:1.0;" width="10" x="87.5" y="149.9219"/><rect fill="#FFFFFF" height="333.5625" style="stroke:#181818;stroke-width:1.0;" width="10" x="560.5" y="181.0781"/><rect fill="#FFFFFF" height="1043.5938" style="stroke:#181818;stroke-width:1.0;" width="10" x="560.5" y="553.7969"/><rect fill="#FFFFFF" height="154.7813" style="stroke:#181818;stroke-width:1.0;" width="10" x="998.5" y="320.7031"/><rect fill="#FFFFFF" height="956.2813" style="stroke:#181818;stroke-width:1.0;" width="10" x="998.5" y="592.9531"/><rect fill="#FFFFFF" height="793.8125" style="stroke:#181818;stroke-width:1.0;" width="10" x="1003.5" y="709.2656"/><rect fill="#FFFFFF" height="30" style="stroke:#181818;stroke-width:1.0;" width="10" x="1407.5" y="632.1094"/><rect fill="#FFFFFF" height="30" style="stroke:#181818;stroke-width:1.0;" width="10" x="1592" y="753.4219"/><rect fill="#FFFFFF" height="465.7188" style="stroke:#181818;stroke-width:1.0;" width="10" x="1729" y="822.5781"/><rect fill="#FFFFFF" height="144.4688" style="stroke:#181818;stroke-width:1.0;" width="10" x="1954" y="950.3594"/><rect fill="#FFFFFF" height="30" style="stroke:#181818;stroke-width:1.0;" width="10" x="1954" y="1135.9844"/><rect fill="#FFFFFF" height="30" style="stroke:#181818;stroke-width:1.0;" width="10" x="2122.5" y="1212.1406"/><rect fill="#FFFFFF" height="30" style="stroke:#181818;stroke-width:1.0;" width="10" x="2872.5" y="1064.8281"/><rect fill="#FFFFFF" height="30" style="stroke:#181818;stroke-width:1.0;" width="10" x="2872.5" y="1427.9219"/><rect fill="none" height="412.5625" style="stroke:#000000;stroke-width:1.5;" width="1309" x="1663" y="837.5781"/><rect fill="none" height="292.0938" style="stroke:#000000;stroke-width:1.5;" width="1289" x="1673" y="881.8906"/><line style="stroke:#181818;stroke-width:0.5;stroke-dasharray:5.0,5.0;" x1="92" x2="92" y1="139.9219" y2="1606.3906"/><line style="stroke:#181818;stroke-width:0.5;stroke-dasharray:5.0,5.0;" x1="565" x2="565" y1="139.9219" y2="1606.3906"/><line style="stroke:#181818;stroke-width:0.5;stroke-dasharray:5.0,5.0;" x1="1003.5" x2="1003.5" y1="249.3125" y2="1606.3906"/><line style="stroke:#181818;stroke-width:0.5;stroke-dasharray:5.0,5.0;" x1="1412" x2="1412" y1="139.9219" y2="1606.3906"/><line style="stroke:#181818;stroke-width:0.5;stroke-dasharray:5.0,5.0;" x1="1597" x2="1597" y1="139.9219" y2="1606.3906"/><line style="stroke:#181818;stroke-width:0.5;stroke-dasharray:5.0,5.0;" x1="1734" x2="1734" y1="139.9219" y2="1606.3906"/><line style="stroke:#181818;stroke-width:0.5;stroke-dasharray:5.0,5.0;" x1="1958.5" x2="1958.5" y1="139.9219" y2="1606.3906"/><line style="stroke:#181818;stroke-width:0.5;stroke-dasharray:5.0,5.0;" x1="2127.5" x2="2127.5" y1="139.9219" y2="1606.3906"/><line style="stroke:#181818;stroke-width:0.5;stroke-dasharray:5.0,5.0;" x1="2469" x2="2469" y1="1006.0156" y2="1606.3906"/><line style="stroke:#181818;stroke-width:0.5;stroke-dasharray:5.0,5.0;" x1="2698" x2="2698" y1="1356.5313" y2="1606.3906"/><line style="stroke:#181818;stroke-width:0.5;stroke-dasharray:5.0,5.0;" x1="2877" x2="2877" y1="139.9219" y2="1606.3906"/><text fill="#000000" font-family="sans-serif" font-size="20" lengthAdjust="spacing" textLength="169" x="5" y="135.5273">Customer Manager</text><ellipse cx="92.5" cy="63.2656" fill="#E2E2F0" rx="8" ry="8" style="stroke:#181818;stroke-width:0.5;"/><path d="M92.5,71.2656 L92.5,98.2656 M79.5,79.2656 L105.5,79.2656 M92.5,98.2656 L79.5,113.2656 M92.5,98.2656 L105.5,113.2656 " fill="none" style="stroke:#181818;stroke-width:0.5;"/><text fill="#000000" font-family="sans-serif" font-size="20" lengthAdjust="spacing" textLength="169" x="5" y="1626.1523">Customer Manager</text><ellipse cx="92.5" cy="1639.0469" fill="#E2E2F0" rx="8" ry="8" style="stroke:#181818;stroke-width:0.5;"/><path d="M92.5,1647.0469 L92.5,1674.0469 M79.5,1655.0469 L105.5,1655.0469 M92.5,1674.0469 L79.5,1689.0469 M92.5,1674.0469 L105.5,1689.0469 " fill="none" style="stroke:#181818;stroke-width:0.5;"/><rect fill="#E2E2F0" height="64.3125" rx="2.5" ry="2.5" style="stroke:#181818;stroke-width:0.5;" width="261" x="435" y="74.6094"/><text fill="#000000" font-family="sans-serif" font-size="20" font-style="italic" lengthAdjust="spacing" textLength="131" x="500" y="102.3711">«presentation»</text><text fill="#000000" font-family="sans-serif" font-size="20" lengthAdjust="spacing" textLength="247" x="442" y="127.5273">:PublishResultJobOpeningUI</text><rect fill="#E2E2F0" height="64.3125" rx="2.5" ry="2.5" style="stroke:#181818;stroke-width:0.5;" width="261" x="435" y="1605.3906"/><text fill="#000000" font-family="sans-serif" font-size="20" font-style="italic" lengthAdjust="spacing" textLength="131" x="500" y="1633.1523">«presentation»</text><text fill="#000000" font-family="sans-serif" font-size="20" lengthAdjust="spacing" textLength="247" x="442" y="1658.3086">:PublishResultJobOpeningUI</text><rect fill="#E2E2F0" height="89.4688" rx="2.5" ry="2.5" style="stroke:#181818;stroke-width:0.5;" width="204" x="901.5" y="1605.3906"/><text fill="#000000" font-family="sans-serif" font-size="20" font-style="italic" lengthAdjust="spacing" textLength="118" x="944.5" y="1633.1523">«application»</text><text fill="#000000" font-family="sans-serif" font-size="20" lengthAdjust="spacing" textLength="123" x="942" y="1658.3086">:PublishResult</text><text fill="#000000" font-family="sans-serif" font-size="20" lengthAdjust="spacing" textLength="190" x="908.5" y="1683.4648">JobOpeningController</text><rect fill="#E2E2F0" height="64.3125" rx="2.5" ry="2.5" style="stroke:#181818;stroke-width:0.5;" width="197" x="1314" y="74.6094"/><text fill="#000000" font-family="sans-serif" font-size="20" font-style="italic" lengthAdjust="spacing" textLength="86" x="1369.5" y="102.3711">«service»</text><text fill="#000000" font-family="sans-serif" font-size="20" lengthAdjust="spacing" textLength="183" x="1321" y="127.5273">:AuthorizationService</text><rect fill="#E2E2F0" height="64.3125" rx="2.5" ry="2.5" style="stroke:#181818;stroke-width:0.5;" width="197" x="1314" y="1605.3906"/><text fill="#000000" font-family="sans-serif" font-size="20" font-style="italic" lengthAdjust="spacing" textLength="86" x="1369.5" y="1633.1523">«service»</text><text fill="#000000" font-family="sans-serif" font-size="20" lengthAdjust="spacing" textLength="183" x="1321" y="1658.3086">:AuthorizationService</text><text fill="#000000" font-family="sans-serif" font-size="20" font-style="italic" lengthAdjust="spacing" textLength="110" x="1539" y="110.3711">«repository»</text><text fill="#000000" font-family="sans-serif" font-size="20" lengthAdjust="spacing" textLength="146" x="1521" y="135.5273">:RankRepository</text><path d="M1579,53.6094 C1579,43.6094 1597,43.6094 1597,43.6094 C1597,43.6094 1615,43.6094 1615,53.6094 L1615,79.6094 C1615,89.6094 1597,89.6094 1597,89.6094 C1597,89.6094 1579,89.6094 1579,79.6094 L1579,53.6094 " fill="#E2E2F0" style="stroke:#181818;stroke-width:1.5;"/><path d="M1579,53.6094 C1579,63.6094 1597,63.6094 1597,63.6094 C1597,63.6094 1615,63.6094 1615,53.6094 " fill="none" style="stroke:#181818;stroke-width:1.5;"/><text fill="#000000" font-family="sans-serif" font-size="20" font-style="italic" lengthAdjust="spacing" textLength="110" x="1539" y="1626.1523">«repository»</text><text fill="#000000" font-family="sans-serif" font-size="20" lengthAdjust="spacing" textLength="146" x="1521" y="1651.3086">:RankRepository</text><path d="M1579,1665.7031 C1579,1655.7031 1597,1655.7031 1597,1655.7031 C1597,1655.7031 1615,1655.7031 1615,1665.7031 L1615,1691.7031 C1615,1701.7031 1597,1701.7031 1597,1701.7031 C1597,1701.7031 1579,1701.7031 1579,1691.7031 L1579,1665.7031 " fill="#E2E2F0" style="stroke:#181818;stroke-width:1.5;"/><path d="M1579,1665.7031 C1579,1675.7031 1597,1675.7031 1597,1675.7031 C1597,1675.7031 1615,1675.7031 1615,1665.7031 " fill="none" style="stroke:#181818;stroke-width:1.5;"/><rect fill="#E2E2F0" height="64.3125" rx="2.5" ry="2.5" style="stroke:#181818;stroke-width:0.5;" width="102" x="1683" y="74.6094"/><text fill="#000000" font-family="sans-serif" font-size="20" font-style="italic" lengthAdjust="spacing" textLength="88" x="1690" y="102.3711">«domain»</text><text fill="#000000" font-family="sans-serif" font-size="20" lengthAdjust="spacing" textLength="51" x="1708.5" y="127.5273">:Rank</text><rect fill="#E2E2F0" height="64.3125" rx="2.5" ry="2.5" style="stroke:#181818;stroke-width:0.5;" width="102" x="1683" y="1605.3906"/><text fill="#000000" font-family="sans-serif" font-size="20" font-style="italic" lengthAdjust="spacing" textLength="88" x="1690" y="1633.1523">«domain»</text><text fill="#000000" font-family="sans-serif" font-size="20" lengthAdjust="spacing" textLength="51" x="1708.5" y="1658.3086">:Rank</text><rect fill="#E2E2F0" height="64.3125" rx="2.5" ry="2.5" style="stroke:#181818;stroke-width:0.5;" width="115" x="1901.5" y="74.6094"/><text fill="#000000" font-family="sans-serif" font-size="20" font-style="italic" lengthAdjust="spacing" textLength="88" x="1915" y="102.3711">«domain»</text><text fill="#000000" font-family="sans-serif" font-size="20" lengthAdjust="spacing" textLength="101" x="1908.5" y="127.5273">:Application</text><rect fill="#E2E2F0" height="64.3125" rx="2.5" ry="2.5" style="stroke:#181818;stroke-width:0.5;" width="115" x="1901.5" y="1605.3906"/><text fill="#000000" font-family="sans-serif" font-size="20" font-style="italic" lengthAdjust="spacing" textLength="88" x="1915" y="1633.1523">«domain»</text><text fill="#000000" font-family="sans-serif" font-size="20" lengthAdjust="spacing" textLength="101" x="1908.5" y="1658.3086">:Application</text><text fill="#000000" font-family="sans-serif" font-size="20" font-style="italic" lengthAdjust="spacing" textLength="110" x="2069.5" y="110.3711">«repository»</text><text fill="#000000" font-family="sans-serif" font-size="20" lengthAdjust="spacing" textLength="196" x="2026.5" y="135.5273">:ApplicationRepository</text><path d="M2109.5,53.6094 C2109.5,43.6094 2127.5,43.6094 2127.5,43.6094 C2127.5,43.6094 2145.5,43.6094 2145.5,53.6094 L2145.5,79.6094 C2145.5,89.6094 2127.5,89.6094 2127.5,89.6094 C2127.5,89.6094 2109.5,89.6094 2109.5,79.6094 L2109.5,53.6094 " fill="#E2E2F0" style="stroke:#181818;stroke-width:1.5;"/><path d="M2109.5,53.6094 C2109.5,63.6094 2127.5,63.6094 2127.5,63.6094 C2127.5,63.6094 2145.5,63.6094 2145.5,53.6094 " fill="none" style="stroke:#181818;stroke-width:1.5;"/><text fill="#000000" font-family="sans-serif" font-size="20" font-style="italic" lengthAdjust="spacing" textLength="110" x="2069.5" y="1626.1523">«repository»</text><text fill="#000000" font-family="sans-serif" font-size="20" lengthAdjust="spacing" textLength="196" x="2026.5" y="1651.3086">:ApplicationRepository</text><path d="M2109.5,1665.7031 C2109.5,1655.7031 2127.5,1655.7031 2127.5,1655.7031 C2127.5,1655.7031 2145.5,1655.7031 2145.5,1665.7031 L2145.5,1691.7031 C2145.5,1701.7031 2127.5,1701.7031 2127.5,1701.7031 C2127.5,1701.7031 2109.5,1701.7031 2109.5,1691.7031 L2109.5,1665.7031 " fill="#E2E2F0" style="stroke:#181818;stroke-width:1.5;"/><path d="M2109.5,1665.7031 C2109.5,1675.7031 2127.5,1675.7031 2127.5,1675.7031 C2127.5,1675.7031 2145.5,1675.7031 2145.5,1665.7031 " fill="none" style="stroke:#181818;stroke-width:1.5;"/><rect fill="#E2E2F0" height="64.3125" rx="2.5" ry="2.5" style="stroke:#181818;stroke-width:0.5;" width="247" x="2346" y="1605.3906"/><text fill="#000000" font-family="sans-serif" font-size="20" font-style="italic" lengthAdjust="spacing" textLength="142" x="2398.5" y="1633.1523">«domain event»</text><text fill="#000000" font-family="sans-serif" font-size="20" lengthAdjust="spacing" textLength="233" x="2353" y="1658.3086">:ApplicationAcceptedEvent</text><rect fill="#E2E2F0" height="89.4688" rx="2.5" ry="2.5" style="stroke:#181818;stroke-width:0.5;" width="190" x="2603" y="1605.3906"/><text fill="#000000" font-family="sans-serif" font-size="20" font-style="italic" lengthAdjust="spacing" textLength="142" x="2627" y="1633.1523">«domain event»</text><text fill="#000000" font-family="sans-serif" font-size="20" lengthAdjust="spacing" textLength="176" x="2610" y="1658.3086">:JobOpeningResults</text><text fill="#000000" font-family="sans-serif" font-size="20" lengthAdjust="spacing" textLength="133" x="2631.5" y="1683.4648">PublishedEvent</text><rect fill="#E2E2F0" height="64.3125" rx="2.5" ry="2.5" style="stroke:#181818;stroke-width:0.5;" width="149" x="2803" y="74.6094"/><text fill="#000000" font-family="sans-serif" font-size="20" font-style="italic" lengthAdjust="spacing" textLength="99" x="2828" y="102.3711">«interface»</text><text fill="#000000" font-family="sans-serif" font-size="20" lengthAdjust="spacing" textLength="135" x="2810" y="127.5273">:EventPublisher</text><rect fill="#E2E2F0" height="64.3125" rx="2.5" ry="2.5" style="stroke:#181818;stroke-width:0.5;" width="149" x="2803" y="1605.3906"/><text fill="#000000" font-family="sans-serif" font-size="20" font-style="italic" lengthAdjust="spacing" textLength="99" x="2828" y="1633.1523">«interface»</text><text fill="#000000" font-family="sans-serif" font-size="20" lengthAdjust="spacing" textLength="135" x="2810" y="1658.3086">:EventPublisher</text><rect fill="#FFFFFF" height="1438.4688" style="stroke:#181818;stroke-width:1.0;" width="10" x="87.5" y="149.9219"/><rect fill="#FFFFFF" height="333.5625" style="stroke:#181818;stroke-width:1.0;" width="10" x="560.5" y="181.0781"/><rect fill="#FFFFFF" height="1043.5938" style="stroke:#181818;stroke-width:1.0;" width="10" x="560.5" y="553.7969"/><rect fill="#FFFFFF" height="154.7813" style="stroke:#181818;stroke-width:1.0;" width="10" x="998.5" y="320.7031"/><rect fill="#FFFFFF" height="956.2813" style="stroke:#181818;stroke-width:1.0;" width="10" x="998.5" y="592.9531"/><rect fill="#FFFFFF" height="793.8125" style="stroke:#181818;stroke-width:1.0;" width="10" x="1003.5" y="709.2656"/><rect fill="#FFFFFF" height="30" style="stroke:#181818;stroke-width:1.0;" width="10" x="1407.5" y="632.1094"/><rect fill="#FFFFFF" height="30" style="stroke:#181818;stroke-width:1.0;" width="10" x="1592" y="753.4219"/><rect fill="#FFFFFF" height="465.7188" style="stroke:#181818;stroke-width:1.0;" width="10" x="1729" y="822.5781"/><rect fill="#FFFFFF" height="144.4688" style="stroke:#181818;stroke-width:1.0;" width="10" x="1954" y="950.3594"/><rect fill="#FFFFFF" height="30" style="stroke:#181818;stroke-width:1.0;" width="10" x="1954" y="1135.9844"/><rect fill="#FFFFFF" height="30" style="stroke:#181818;stroke-width:1.0;" width="10" x="2122.5" y="1212.1406"/><rect fill="#FFFFFF" height="30" style="stroke:#181818;stroke-width:1.0;" width="10" x="2872.5" y="1064.8281"/><rect fill="#FFFFFF" height="30" style="stroke:#181818;stroke-width:1.0;" width="10" x="2872.5" y="1427.9219"/><polygon fill="#181818" points="548.5,177.0781,558.5,181.0781,548.5,185.0781,552.5,181.0781" style="stroke:#181818;stroke-width:1.0;"/><line style="stroke:#181818;stroke-width:1.0;" x1="97.5" x2="554.5" y1="181.0781" y2="181.0781"/><text fill="#000000" font-family="sans-serif" font-size="20" font-weight="bold" lengthAdjust="spacing" textLength="11" x="104.5" y="174.6836">1</text><text fill="#000000" font-family="sans-serif" font-size="20" lengthAdjust="spacing" textLength="330" x="119.5" y="174.6836">asks to publish results for job opening</text><polygon fill="#181818" points="889.5,216.2344,899.5,220.2344,889.5,224.2344,893.5,220.2344" style="stroke:#181818;stroke-width:1.0;"/><line style="stroke:#181818;stroke-width:1.0;" x1="570.5" x2="895.5" y1="220.2344" y2="220.2344"/><text fill="#000000" font-family="sans-serif" font-size="20" font-weight="bold" lengthAdjust="spacing" textLength="11" x="577.5" y="213.8398">2</text><text fill="#000000" font-family="sans-serif" font-size="20" lengthAdjust="spacing" textLength="56" x="592.5" y="213.8398">create</text><rect fill="#E2E2F0" height="89.4688" rx="2.5" ry="2.5" style="stroke:#181818;stroke-width:0.5;" width="204" x="901.5" y="189.0781"/><text fill="#000000" font-family="sans-serif" font-size="20" font-style="italic" lengthAdjust="spacing" textLength="118" x="944.5" y="216.8398">«application»</text><text fill="#000000" font-family="sans-serif" font-size="20" lengthAdjust="spacing" textLength="123" x="942" y="241.9961">:PublishResult</text><text fill="#000000" font-family="sans-serif" font-size="20" lengthAdjust="spacing" textLength="190" x="908.5" y="267.1523">JobOpeningController</text><polygon fill="#181818" points="986.5,316.7031,996.5,320.7031,986.5,324.7031,990.5,320.7031" style="stroke:#181818;stroke-width:1.0;"/><line style="stroke:#181818;stroke-width:1.0;" x1="570.5" x2="992.5" y1="320.7031" y2="320.7031"/><text fill="#000000" font-family="sans-serif" font-size="20" font-weight="bold" lengthAdjust="spacing" textLength="11" x="577.5" y="314.3086">3</text><text fill="#000000" font-family="sans-serif" font-size="20" lengthAdjust="spacing" textLength="178" x="592.5" y="314.3086">getJobOpeningList()</text><rect fill="none" height="110.625" style="stroke:#000000;stroke-width:1.5;" width="486" x="898.5" y="328.7031"/><path d="M898.5,328.7031 L969.5,328.7031 L969.5,345.7031 L959.5,355.7031 L898.5,355.7031 L898.5,328.7031 " fill="#EEEEEE" style="stroke:#000000;stroke-width:2.0;"/><text fill="#000000" font-family="sans-serif" font-size="20" font-weight="bold" lengthAdjust="spacing" textLength="26" x="911.5" y="351.4648">ref</text><text fill="#000000" font-family="sans-serif" font-size="20" lengthAdjust="spacing" textLength="6" x="1138.5" y="380.4648"> </text><text fill="#000000" font-family="sans-serif" font-size="20" lengthAdjust="spacing" textLength="55" x="902.5" y="405.6211">Check</text><text fill="#000000" font-family="sans-serif" font-size="20" font-weight="bold" lengthAdjust="spacing" textLength="417" x="963.5" y="405.6211">sequence-diagram-job-opening-in-screening</text><text fill="#000000" font-family="sans-serif" font-size="20" lengthAdjust="spacing" textLength="6" x="1138.5" y="430.7773"> </text><polygon fill="#181818" points="581.5,471.4844,571.5,475.4844,581.5,479.4844,577.5,475.4844" style="stroke:#181818;stroke-width:1.0;"/><line style="stroke:#181818;stroke-width:1.0;stroke-dasharray:2.0,2.0;" x1="575.5" x2="1002.5" y1="475.4844" y2="475.4844"/><text fill="#000000" font-family="sans-serif" font-size="20" font-weight="bold" lengthAdjust="spacing" textLength="11" x="587.5" y="469.0898">4</text><text fill="#000000" font-family="sans-serif" font-size="20" lengthAdjust="spacing" textLength="172" x="602.5" y="469.0898">jobOpeningListDTO</text><polygon fill="#181818" points="108.5,510.6406,98.5,514.6406,108.5,518.6406,104.5,514.6406" style="stroke:#181818;stroke-width:1.0;"/><line style="stroke:#181818;stroke-width:1.0;stroke-dasharray:2.0,2.0;" x1="102.5" x2="564.5" y1="514.6406" y2="514.6406"/><text fill="#000000" font-family="sans-serif" font-size="20" font-weight="bold" lengthAdjust="spacing" textLength="11" x="114.5" y="508.2461">5</text><text fill="#000000" font-family="sans-serif" font-size="20" lengthAdjust="spacing" textLength="424" x="129.5" y="508.2461">displays the job openings and asks to select one</text><polygon fill="#181818" points="548.5,549.7969,558.5,553.7969,548.5,557.7969,552.5,553.7969" style="stroke:#181818;stroke-width:1.0;"/><line style="stroke:#181818;stroke-width:1.0;" x1="97.5" x2="554.5" y1="553.7969" y2="553.7969"/><text fill="#000000" font-family="sans-serif" font-size="20" font-weight="bold" lengthAdjust="spacing" textLength="11" x="104.5" y="547.4023">6</text><text fill="#000000" font-family="sans-serif" font-size="20" lengthAdjust="spacing" textLength="168" x="119.5" y="547.4023">selects job opening</text><polygon fill="#181818" points="986.5,588.9531,996.5,592.9531,986.5,596.9531,990.5,592.9531" style="stroke:#181818;stroke-width:1.0;"/><line style="stroke:#181818;stroke-width:1.0;" x1="570.5" x2="992.5" y1="592.9531" y2="592.9531"/><text fill="#000000" font-family="sans-serif" font-size="20" font-weight="bold" lengthAdjust="spacing" textLength="11" x="577.5" y="586.5586">7</text><text fill="#000000" font-family="sans-serif" font-size="20" lengthAdjust="spacing" textLength="394" x="592.5" y="586.5586">publishResultForJobOpening(jobOpeningDto)</text><polygon fill="#181818" points="1395.5,628.1094,1405.5,632.1094,1395.5,636.1094,1399.5,632.1094" style="stroke:#181818;stroke-width:1.0;"/><line style="stroke:#181818;stroke-width:1.0;" x1="1008.5" x2="1401.5" y1="632.1094" y2="632.1094"/><text fill="#000000" font-family="sans-serif" font-size="20" font-weight="bold" lengthAdjust="spacing" textLength="11" x="1015.5" y="625.7148">8</text><text fill="#000000" font-family="sans-serif" font-size="20" lengthAdjust="spacing" textLength="365" x="1030.5" y="625.7148">ensureAuthenticatedUserHasAnyOf(roles)</text><line style="stroke:#181818;stroke-width:1.0;" x1="1008.5" x2="1055.5" y1="696.2656" y2="696.2656"/><line style="stroke:#181818;stroke-width:1.0;" x1="1055.5" x2="1055.5" y1="696.2656" y2="709.2656"/><line style="stroke:#181818;stroke-width:1.0;" x1="1014.5" x2="1055.5" y1="709.2656" y2="709.2656"/><polygon fill="#181818" points="1024.5,705.2656,1014.5,709.2656,1024.5,713.2656,1020.5,709.2656" style="stroke:#181818;stroke-width:1.0;"/><text fill="#000000" font-family="sans-serif" font-size="20" font-weight="bold" lengthAdjust="spacing" textLength="11" x="1020.5" y="689.8711">9</text><text fill="#000000" font-family="sans-serif" font-size="20" lengthAdjust="spacing" textLength="269" x="1035.5" y="689.8711">publishResults(jobOpeningDto)</text><polygon fill="#181818" points="1580,749.4219,1590,753.4219,1580,757.4219,1584,753.4219" style="stroke:#181818;stroke-width:1.0;"/><line style="stroke:#181818;stroke-width:1.0;" x1="1013.5" x2="1586" y1="753.4219" y2="753.4219"/><text fill="#000000" font-family="sans-serif" font-size="20" font-weight="bold" lengthAdjust="spacing" textLength="22" x="1020.5" y="747.0273">10</text><text fill="#000000" font-family="sans-serif" font-size="20" lengthAdjust="spacing" textLength="296" x="1046.5" y="747.0273">rankOfJobOpening(jobReference)</text><polygon fill="#181818" points="1717,818.5781,1727,822.5781,1717,826.5781,1721,822.5781" style="stroke:#181818;stroke-width:1.0;"/><line style="stroke:#181818;stroke-width:1.0;" x1="1013.5" x2="1723" y1="822.5781" y2="822.5781"/><text fill="#000000" font-family="sans-serif" font-size="20" font-weight="bold" lengthAdjust="spacing" textLength="22" x="1020.5" y="816.1836">11</text><text fill="#000000" font-family="sans-serif" font-size="20" lengthAdjust="spacing" textLength="265" x="1046.5" y="816.1836">publishResults(numVacancies)</text><path d="M1663,837.5781 L1749,837.5781 L1749,854.7344 L1739,864.7344 L1663,864.7344 L1663,837.5781 " fill="#EEEEEE" style="stroke:#000000;stroke-width:1.5;"/><rect fill="none" height="412.5625" style="stroke:#000000;stroke-width:1.5;" width="1309" x="1663" y="837.5781"/><text fill="#000000" font-family="sans-serif" font-size="20" font-weight="bold" lengthAdjust="spacing" textLength="41" x="1678" y="859.3398">loop</text><text fill="#000000" font-family="sans-serif" font-size="20" font-weight="bold" lengthAdjust="spacing" textLength="201" x="1764" y="860.3398">[for each RankOrder]</text><path d="M1673,881.8906 L1741,881.8906 L1741,899.0469 L1731,909.0469 L1673,909.0469 L1673,881.8906 " fill="#EEEEEE" style="stroke:#000000;stroke-width:1.5;"/><rect fill="none" height="292.0938" style="stroke:#000000;stroke-width:1.5;" width="1289" x="1673" y="881.8906"/><text fill="#000000" font-family="sans-serif" font-size="20" font-weight="bold" lengthAdjust="spacing" textLength="23" x="1688" y="903.6523">alt</text><text fill="#000000" font-family="sans-serif" font-size="20" font-weight="bold" lengthAdjust="spacing" textLength="308" x="1756" y="904.6523">[if orderValue &lt;= numVacancies]</text><polygon fill="#181818" points="1942,946.3594,1952,950.3594,1942,954.3594,1946,950.3594" style="stroke:#181818;stroke-width:1.0;"/><line style="stroke:#181818;stroke-width:1.0;" x1="1739" x2="1948" y1="950.3594" y2="950.3594"/><text fill="#000000" font-family="sans-serif" font-size="20" font-weight="bold" lengthAdjust="spacing" textLength="22" x="1746" y="943.9648">12</text><text fill="#000000" font-family="sans-serif" font-size="20" lengthAdjust="spacing" textLength="168" x="1772" y="943.9648">acceptApplication()</text><polygon fill="#181818" points="2334,985.5156,2344,989.5156,2334,993.5156,2338,989.5156" style="stroke:#181818;stroke-width:1.0;"/><line style="stroke:#181818;stroke-width:1.0;" x1="1964" x2="2340" y1="989.5156" y2="989.5156"/><text fill="#000000" font-family="sans-serif" font-size="20" font-weight="bold" lengthAdjust="spacing" textLength="22" x="1971" y="983.1211">13</text><text fill="#000000" font-family="sans-serif" font-size="20" lengthAdjust="spacing" textLength="332" x="1997" y="983.1211">create(candidateEmail, jobReference)</text><rect fill="#E2E2F0" height="64.3125" rx="2.5" ry="2.5" style="stroke:#181818;stroke-width:0.5;" width="247" x="2346" y="958.3594"/><text fill="#000000" font-family="sans-serif" font-size="20" font-style="italic" lengthAdjust="spacing" textLength="142" x="2398.5" y="986.1211">«domain event»</text><text fill="#000000" font-family="sans-serif" font-size="20" lengthAdjust="spacing" textLength="233" x="2353" y="1011.2773">:ApplicationAcceptedEvent</text><polygon fill="#181818" points="2860.5,1060.8281,2870.5,1064.8281,2860.5,1068.8281,2864.5,1064.8281" style="stroke:#181818;stroke-width:1.0;"/><line style="stroke:#181818;stroke-width:1.0;" x1="1964" x2="2866.5" y1="1064.8281" y2="1064.8281"/><text fill="#000000" font-family="sans-serif" font-size="20" font-weight="bold" lengthAdjust="spacing" textLength="22" x="1971" y="1058.4336">14</text><text fill="#000000" font-family="sans-serif" font-size="20" lengthAdjust="spacing" textLength="299" x="1997" y="1058.4336">publish(applicationAcceptedEvent)</text><line style="stroke:#000000;stroke-width:1.0;stroke-dasharray:2.0,2.0;" x1="1673" x2="2962" y1="1103.8281" y2="1103.8281"/><polygon fill="#181818" points="1942,1131.9844,1952,1135.9844,1942,1139.9844,1946,1135.9844" style="stroke:#181818;stroke-width:1.0;"/><line style="stroke:#181818;stroke-width:1.0;" x1="1739" x2="1948" y1="1135.9844" y2="1135.9844"/><text fill="#000000" font-family="sans-serif" font-size="20" font-weight="bold" lengthAdjust="spacing" textLength="22" x="1746" y="1129.5898">15</text><text fill="#000000" font-family="sans-serif" font-size="20" lengthAdjust="spacing" textLength="170" x="1772" y="1129.5898">rejectApplication()&lt;</text><polygon fill="#181818" points="2110.5,1208.1406,2120.5,1212.1406,2110.5,1216.1406,2114.5,1212.1406" style="stroke:#181818;stroke-width:1.0;"/><line style="stroke:#181818;stroke-width:1.0;" x1="1739" x2="2116.5" y1="1212.1406" y2="1212.1406"/><text fill="#000000" font-family="sans-serif" font-size="20" font-weight="bold" lengthAdjust="spacing" textLength="22" x="1746" y="1205.7461">16</text><text fill="#000000" font-family="sans-serif" font-size="20" lengthAdjust="spacing" textLength="148" x="1772" y="1205.7461">save(application)</text><polygon fill="#181818" points="1024.5,1284.2969,1014.5,1288.2969,1024.5,1292.2969,1020.5,1288.2969" style="stroke:#181818;stroke-width:1.0;"/><line style="stroke:#181818;stroke-width:1.0;stroke-dasharray:2.0,2.0;" x1="1018.5" x2="1733" y1="1288.2969" y2="1288.2969"/><text fill="#000000" font-family="sans-serif" font-size="20" font-weight="bold" lengthAdjust="spacing" textLength="22" x="1030.5" y="1281.9023">17</text><text fill="#000000" font-family="sans-serif" font-size="20" lengthAdjust="spacing" textLength="201" x="1056.5" y="1281.9023">acceptedCandidateList</text><polygon fill="#181818" points="2591,1323.4531,2601,1327.4531,2591,1331.4531,2595,1327.4531" style="stroke:#181818;stroke-width:1.0;"/><line style="stroke:#181818;stroke-width:1.0;" x1="1013.5" x2="2597" y1="1327.4531" y2="1327.4531"/><text fill="#000000" font-family="sans-serif" font-size="20" font-weight="bold" lengthAdjust="spacing" textLength="22" x="1020.5" y="1321.0586">18</text><text fill="#000000" font-family="sans-serif" font-size="20" lengthAdjust="spacing" textLength="538" x="1046.5" y="1321.0586">create(acceptedCandidateList, companyCode, jobReference)</text><rect fill="#E2E2F0" height="89.4688" rx="2.5" ry="2.5" style="stroke:#181818;stroke-width:0.5;" width="190" x="2603" y="1296.2969"/><text fill="#000000" font-family="sans-serif" font-size="20" font-style="italic" lengthAdjust="spacing" textLength="142" x="2627" y="1324.0586">«domain event»</text><text fill="#000000" font-family="sans-serif" font-size="20" lengthAdjust="spacing" textLength="176" x="2610" y="1349.2148">:JobOpeningResults</text><text fill="#000000" font-family="sans-serif" font-size="20" lengthAdjust="spacing" textLength="133" x="2631.5" y="1374.3711">PublishedEvent</text><polygon fill="#181818" points="2860.5,1423.9219,2870.5,1427.9219,2860.5,1431.9219,2864.5,1427.9219" style="stroke:#181818;stroke-width:1.0;"/><line style="stroke:#181818;stroke-width:1.0;" x1="1013.5" x2="2866.5" y1="1427.9219" y2="1427.9219"/><text fill="#000000" font-family="sans-serif" font-size="20" font-weight="bold" lengthAdjust="spacing" textLength="22" x="1020.5" y="1421.5273">19</text><text fill="#000000" font-family="sans-serif" font-size="20" lengthAdjust="spacing" textLength="371" x="1046.5" y="1421.5273">publish(jobOpeningResultsPublishedEvent)</text><line style="stroke:#181818;stroke-width:1.0;stroke-dasharray:2.0,2.0;" x1="1013.5" x2="1055.5" y1="1502.0781" y2="1502.0781"/><line style="stroke:#181818;stroke-width:1.0;stroke-dasharray:2.0,2.0;" x1="1055.5" x2="1055.5" y1="1502.0781" y2="1515.0781"/><line style="stroke:#181818;stroke-width:1.0;stroke-dasharray:2.0,2.0;" x1="1008.5" x2="1055.5" y1="1515.0781" y2="1515.0781"/><polygon fill="#181818" points="1018.5,1511.0781,1008.5,1515.0781,1018.5,1519.0781,1014.5,1515.0781" style="stroke:#181818;stroke-width:1.0;"/><text fill="#000000" font-family="sans-serif" font-size="20" font-weight="bold" lengthAdjust="spacing" textLength="22" x="1020.5" y="1495.6836">20</text><text fill="#000000" font-family="sans-serif" font-size="20" lengthAdjust="spacing" textLength="6" x="1046.5" y="1495.6836"> </text><polygon fill="#181818" points="581.5,1545.2344,571.5,1549.2344,581.5,1553.2344,577.5,1549.2344" style="stroke:#181818;stroke-width:1.0;"/><line style="stroke:#181818;stroke-width:1.0;stroke-dasharray:2.0,2.0;" x1="575.5" x2="1002.5" y1="1549.2344" y2="1549.2344"/><text fill="#000000" font-family="sans-serif" font-size="20" font-weight="bold" lengthAdjust="spacing" textLength="22" x="587.5" y="1542.8398">21</text><text fill="#000000" font-family="sans-serif" font-size="20" lengthAdjust="spacing" textLength="71" x="613.5" y="1542.8398">success</text><polygon fill="#181818" points="103.5,1584.3906,93.5,1588.3906,103.5,1592.3906,99.5,1588.3906" style="stroke:#181818;stroke-width:1.0;"/><line style="stroke:#181818;stroke-width:1.0;stroke-dasharray:2.0,2.0;" x1="97.5" x2="559.5" y1="1588.3906" y2="1588.3906"/><text fill="#000000" font-family="sans-serif" font-size="20" font-weight="bold" lengthAdjust="spacing" textLength="22" x="109.5" y="1581.9961">22</text><text fill="#000000" font-family="sans-serif" font-size="20" lengthAdjust="spacing" textLength="148" x="135.5" y="1581.9961">displays success</text><!--SRC=[ZLPDRzim3BtxLn2zB0sMjTlHw0eOQOPrs9R0RNSO2WoApJHg7CcJv03ThnybsR7yqMK-18dCz_X4FLBHEovAfjY-aDaESyXnmwh2V9B2tF4_21ykepTROqeTNroK1HEcsXVlChc_qFYxGf7XBEViYV1HPBWf41xktbz-k8GPtDK1SDC4iCf8KUtNgEXxPgI2itcbZToZWczCi2TKPy0qKIpIY4GPdl6IKi9PlAhM1TVR53M9-oBNon855qyFjnvm2rTNfKADmZ33fRY-_XV-KRGCSzgeaaLHfvxVfr-9YvLbmRDnggGoMwdu7_Vs3jM1P-YmoSFzvvy4rdwDW3apRCqq4YfbOfTYAJMdVR-u-FHNkbWj2Q2EwuDa5kQ3AIwNUyP71BLYlOumD90GnFMK9F-X940dMOQbmNnne7exWkz9iZXc1RJh0uAsvluKzAEeJoLa-h9CLoUfN7W3zWUtM1682uDgmrpjdSNuWHdqVehi9yokhLbYGkmq60cb9m7b9S66JFairo2zqe3ZbXXkBTvQP3gD8LD8By9Ludt2m9rVkJQJyvR3naIHmWt80rdU_vnlCTl1TDhlfnd9cDKoPbpCDELpFwRJA4AHa-GDeMtQcTjLR8K7cM_kbr6ElUHMh8ssjOWXvvfw-eKgiSLmsneO9MXgfB70p80K6FBPWdHhwkFqw_K3UjfgnKtnlHq-ITLMRj9kvSR8SuVixSGk-TrV-ywB0L3eIg5jKFA7DIlc3zIDdvbEnCjoCw56HzrZSrYt56pEBtPor0VSqQp_KsV8uxi-1aMTlTnqjvpY1fKrmVaHTcJpkEDw8BP-CymqK4l3zmVBcCXuKuPkYfR3FeMKfMi8IhK5EucMAhUp6teFAmnmChLz-uCL5SBLHmXp3H3sSSP9R2-wSHBCbydvAA0zdIWQ3KWienr5RNjEI47EQGZYWkP9yHR6gpnWMQoEnPkmLoRV2PMBrUZxuE0eubH8Cep0GkDuGMqzoLZuJ6tOAUVLgNgUL34GOUT3OORg_AdM7jViW67vXXLhKtJjFIQYP_D6XhLf5AG_ZXTM7zQyiO2TYgCDr7OwWTqD53XebEOjq7yWkerUvZB7CLSrJHWQwRb_0tRllzxugFtJyqj0tcoq7rRVA-7De2lQXDR_l0-2ww09xynxTud-1G00]--></g></svg>