<?xml version="1.0" encoding="UTF-8" standalone="no"?><svg xmlns="http://www.w3.org/2000/svg" xmlns:xlink="http://www.w3.org/1999/xlink" contentStyleType="text/css" height="1944px" preserveAspectRatio="none" style="width:3392px;height:1944px;background:#FFFFFF;" version="1.1" viewBox="0 0 3392 1944" width="3392px" zoomAndPan="magnify"><defs/><g><text fill="#000000" font-family="sans-serif" font-size="14" font-weight="bold" lengthAdjust="spacing" textLength="196" x="1599.5" y="29.5332">US1020 - Sequence Diagram</text><rect fill="#FFFFFF" height="1664.25" style="stroke:#181818;stroke-width:1.0;" width="10" x="87.5" y="149.9219"/><rect fill="#FFFFFF" height="333.5625" style="stroke:#181818;stroke-width:1.0;" width="10" x="560.5" y="181.0781"/><rect fill="#FFFFFF" height="1269.375" style="stroke:#181818;stroke-width:1.0;" width="10" x="560.5" y="553.7969"/><rect fill="#FFFFFF" height="154.7813" style="stroke:#181818;stroke-width:1.0;" width="10" x="998.5" y="320.7031"/><rect fill="#FFFFFF" height="1182.0625" style="stroke:#181818;stroke-width:1.0;" width="10" x="998.5" y="592.9531"/><rect fill="#FFFFFF" height="1019.5938" style="stroke:#181818;stroke-width:1.0;" width="10" x="1003.5" y="709.2656"/><rect fill="#FFFFFF" height="30" style="stroke:#181818;stroke-width:1.0;" width="10" x="1519.5" y="632.1094"/><rect fill="#FFFFFF" height="30" style="stroke:#181818;stroke-width:1.0;" width="10" x="1704" y="753.4219"/><rect fill="#FFFFFF" height="691.5" style="stroke:#181818;stroke-width:1.0;" width="10" x="1841" y="822.5781"/><rect fill="#FFFFFF" height="30" style="stroke:#181818;stroke-width:1.0;" width="10" x="2064" y="950.3594"/><rect fill="#FFFFFF" height="30" style="stroke:#181818;stroke-width:1.0;" width="10" x="2064" y="1021.5156"/><rect fill="#FFFFFF" height="30" style="stroke:#181818;stroke-width:1.0;" width="10" x="2232.5" y="1097.6719"/><rect fill="#FFFFFF" height="30" style="stroke:#181818;stroke-width:1.0;" width="10" x="3286.5" y="1242.1406"/><rect fill="#FFFFFF" height="30" style="stroke:#181818;stroke-width:1.0;" width="10" x="3286.5" y="1430.9219"/><rect fill="#FFFFFF" height="30" style="stroke:#181818;stroke-width:1.0;" width="10" x="3286.5" y="1653.7031"/><rect fill="none" height="638.3438" style="stroke:#000000;stroke-width:1.5;" width="1611" x="1775" y="837.5781"/><rect fill="none" height="177.625" style="stroke:#000000;stroke-width:1.5;" width="396" x="1785" y="881.8906"/><rect fill="none" height="181.7813" style="stroke:#000000;stroke-width:1.5;" width="1591" x="1785" y="1287.1406"/><line style="stroke:#181818;stroke-width:0.5;stroke-dasharray:5.0,5.0;" x1="92" x2="92" y1="139.9219" y2="1832.1719"/><line style="stroke:#181818;stroke-width:0.5;stroke-dasharray:5.0,5.0;" x1="565" x2="565" y1="139.9219" y2="1832.1719"/><line style="stroke:#181818;stroke-width:0.5;stroke-dasharray:5.0,5.0;" x1="1003.5" x2="1003.5" y1="249.3125" y2="1832.1719"/><line style="stroke:#181818;stroke-width:0.5;stroke-dasharray:5.0,5.0;" x1="1524" x2="1524" y1="139.9219" y2="1832.1719"/><line style="stroke:#181818;stroke-width:0.5;stroke-dasharray:5.0,5.0;" x1="1709" x2="1709" y1="139.9219" y2="1832.1719"/><line style="stroke:#181818;stroke-width:0.5;stroke-dasharray:5.0,5.0;" x1="1846" x2="1846" y1="139.9219" y2="1832.1719"/><line style="stroke:#181818;stroke-width:0.5;stroke-dasharray:5.0,5.0;" x1="2068.5" x2="2068.5" y1="139.9219" y2="1832.1719"/><line style="stroke:#181818;stroke-width:0.5;stroke-dasharray:5.0,5.0;" x1="2237.5" x2="2237.5" y1="139.9219" y2="1832.1719"/><line style="stroke:#181818;stroke-width:0.5;stroke-dasharray:5.0,5.0;" x1="2575" x2="2575" y1="1372.1094" y2="1832.1719"/><line style="stroke:#181818;stroke-width:0.5;stroke-dasharray:5.0,5.0;" x1="2858" x2="2858" y1="1183.3281" y2="1832.1719"/><line style="stroke:#181818;stroke-width:0.5;stroke-dasharray:5.0,5.0;" x1="3112" x2="3112" y1="1582.3125" y2="1832.1719"/><line style="stroke:#181818;stroke-width:0.5;stroke-dasharray:5.0,5.0;" x1="3291" x2="3291" y1="139.9219" y2="1832.1719"/><text fill="#000000" font-family="sans-serif" font-size="20" lengthAdjust="spacing" textLength="169" x="5" y="135.5273">Customer Manager</text><ellipse cx="92.5" cy="63.2656" fill="#E2E2F0" rx="8" ry="8" style="stroke:#181818;stroke-width:0.5;"/><path d="M92.5,71.2656 L92.5,98.2656 M79.5,79.2656 L105.5,79.2656 M92.5,98.2656 L79.5,113.2656 M92.5,98.2656 L105.5,113.2656 " fill="none" style="stroke:#181818;stroke-width:0.5;"/><text fill="#000000" font-family="sans-serif" font-size="20" lengthAdjust="spacing" textLength="169" x="5" y="1851.9336">Customer Manager</text><ellipse cx="92.5" cy="1864.8281" fill="#E2E2F0" rx="8" ry="8" style="stroke:#181818;stroke-width:0.5;"/><path d="M92.5,1872.8281 L92.5,1899.8281 M79.5,1880.8281 L105.5,1880.8281 M92.5,1899.8281 L79.5,1914.8281 M92.5,1899.8281 L105.5,1914.8281 " fill="none" style="stroke:#181818;stroke-width:0.5;"/><rect fill="#E2E2F0" height="64.3125" rx="2.5" ry="2.5" style="stroke:#181818;stroke-width:0.5;" width="261" x="435" y="74.6094"/><text fill="#000000" font-family="sans-serif" font-size="20" font-style="italic" lengthAdjust="spacing" textLength="131" x="500" y="102.3711">«presentation»</text><text fill="#000000" font-family="sans-serif" font-size="20" lengthAdjust="spacing" textLength="247" x="442" y="127.5273">:PublishResultJobOpeningUI</text><rect fill="#E2E2F0" height="64.3125" rx="2.5" ry="2.5" style="stroke:#181818;stroke-width:0.5;" width="261" x="435" y="1831.1719"/><text fill="#000000" font-family="sans-serif" font-size="20" font-style="italic" lengthAdjust="spacing" textLength="131" x="500" y="1858.9336">«presentation»</text><text fill="#000000" font-family="sans-serif" font-size="20" lengthAdjust="spacing" textLength="247" x="442" y="1884.0898">:PublishResultJobOpeningUI</text><rect fill="#E2E2F0" height="89.4688" rx="2.5" ry="2.5" style="stroke:#181818;stroke-width:0.5;" width="204" x="901.5" y="1831.1719"/><text fill="#000000" font-family="sans-serif" font-size="20" font-style="italic" lengthAdjust="spacing" textLength="118" x="944.5" y="1858.9336">«application»</text><text fill="#000000" font-family="sans-serif" font-size="20" lengthAdjust="spacing" textLength="123" x="942" y="1884.0898">:PublishResult</text><text fill="#000000" font-family="sans-serif" font-size="20" lengthAdjust="spacing" textLength="190" x="908.5" y="1909.2461">JobOpeningController</text><rect fill="#E2E2F0" height="64.3125" rx="2.5" ry="2.5" style="stroke:#181818;stroke-width:0.5;" width="197" x="1426" y="74.6094"/><text fill="#000000" font-family="sans-serif" font-size="20" font-style="italic" lengthAdjust="spacing" textLength="86" x="1481.5" y="102.3711">«service»</text><text fill="#000000" font-family="sans-serif" font-size="20" lengthAdjust="spacing" textLength="183" x="1433" y="127.5273">:AuthorizationService</text><rect fill="#E2E2F0" height="64.3125" rx="2.5" ry="2.5" style="stroke:#181818;stroke-width:0.5;" width="197" x="1426" y="1831.1719"/><text fill="#000000" font-family="sans-serif" font-size="20" font-style="italic" lengthAdjust="spacing" textLength="86" x="1481.5" y="1858.9336">«service»</text><text fill="#000000" font-family="sans-serif" font-size="20" lengthAdjust="spacing" textLength="183" x="1433" y="1884.0898">:AuthorizationService</text><text fill="#000000" font-family="sans-serif" font-size="20" font-style="italic" lengthAdjust="spacing" textLength="110" x="1651" y="110.3711">«repository»</text><text fill="#000000" font-family="sans-serif" font-size="20" lengthAdjust="spacing" textLength="146" x="1633" y="135.5273">:RankRepository</text><path d="M1691,53.6094 C1691,43.6094 1709,43.6094 1709,43.6094 C1709,43.6094 1727,43.6094 1727,53.6094 L1727,79.6094 C1727,89.6094 1709,89.6094 1709,89.6094 C1709,89.6094 1691,89.6094 1691,79.6094 L1691,53.6094 " fill="#E2E2F0" style="stroke:#181818;stroke-width:1.5;"/><path d="M1691,53.6094 C1691,63.6094 1709,63.6094 1709,63.6094 C1709,63.6094 1727,63.6094 1727,53.6094 " fill="none" style="stroke:#181818;stroke-width:1.5;"/><text fill="#000000" font-family="sans-serif" font-size="20" font-style="italic" lengthAdjust="spacing" textLength="110" x="1651" y="1851.9336">«repository»</text><text fill="#000000" font-family="sans-serif" font-size="20" lengthAdjust="spacing" textLength="146" x="1633" y="1877.0898">:RankRepository</text><path d="M1691,1891.4844 C1691,1881.4844 1709,1881.4844 1709,1881.4844 C1709,1881.4844 1727,1881.4844 1727,1891.4844 L1727,1917.4844 C1727,1927.4844 1709,1927.4844 1709,1927.4844 C1709,1927.4844 1691,1927.4844 1691,1917.4844 L1691,1891.4844 " fill="#E2E2F0" style="stroke:#181818;stroke-width:1.5;"/><path d="M1691,1891.4844 C1691,1901.4844 1709,1901.4844 1709,1901.4844 C1709,1901.4844 1727,1901.4844 1727,1891.4844 " fill="none" style="stroke:#181818;stroke-width:1.5;"/><rect fill="#E2E2F0" height="64.3125" rx="2.5" ry="2.5" style="stroke:#181818;stroke-width:0.5;" width="102" x="1795" y="74.6094"/><text fill="#000000" font-family="sans-serif" font-size="20" font-style="italic" lengthAdjust="spacing" textLength="88" x="1802" y="102.3711">«domain»</text><text fill="#000000" font-family="sans-serif" font-size="20" lengthAdjust="spacing" textLength="51" x="1820.5" y="127.5273">:Rank</text><rect fill="#E2E2F0" height="64.3125" rx="2.5" ry="2.5" style="stroke:#181818;stroke-width:0.5;" width="102" x="1795" y="1831.1719"/><text fill="#000000" font-family="sans-serif" font-size="20" font-style="italic" lengthAdjust="spacing" textLength="88" x="1802" y="1858.9336">«domain»</text><text fill="#000000" font-family="sans-serif" font-size="20" lengthAdjust="spacing" textLength="51" x="1820.5" y="1884.0898">:Rank</text><rect fill="#E2E2F0" height="64.3125" rx="2.5" ry="2.5" style="stroke:#181818;stroke-width:0.5;" width="115" x="2011.5" y="74.6094"/><text fill="#000000" font-family="sans-serif" font-size="20" font-style="italic" lengthAdjust="spacing" textLength="88" x="2025" y="102.3711">«domain»</text><text fill="#000000" font-family="sans-serif" font-size="20" lengthAdjust="spacing" textLength="101" x="2018.5" y="127.5273">:Application</text><rect fill="#E2E2F0" height="64.3125" rx="2.5" ry="2.5" style="stroke:#181818;stroke-width:0.5;" width="115" x="2011.5" y="1831.1719"/><text fill="#000000" font-family="sans-serif" font-size="20" font-style="italic" lengthAdjust="spacing" textLength="88" x="2025" y="1858.9336">«domain»</text><text fill="#000000" font-family="sans-serif" font-size="20" lengthAdjust="spacing" textLength="101" x="2018.5" y="1884.0898">:Application</text><text fill="#000000" font-family="sans-serif" font-size="20" font-style="italic" lengthAdjust="spacing" textLength="110" x="2179.5" y="110.3711">«repository»</text><text fill="#000000" font-family="sans-serif" font-size="20" lengthAdjust="spacing" textLength="196" x="2136.5" y="135.5273">:ApplicationRepository</text><path d="M2219.5,53.6094 C2219.5,43.6094 2237.5,43.6094 2237.5,43.6094 C2237.5,43.6094 2255.5,43.6094 2255.5,53.6094 L2255.5,79.6094 C2255.5,89.6094 2237.5,89.6094 2237.5,89.6094 C2237.5,89.6094 2219.5,89.6094 2219.5,79.6094 L2219.5,53.6094 " fill="#E2E2F0" style="stroke:#181818;stroke-width:1.5;"/><path d="M2219.5,53.6094 C2219.5,63.6094 2237.5,63.6094 2237.5,63.6094 C2237.5,63.6094 2255.5,63.6094 2255.5,53.6094 " fill="none" style="stroke:#181818;stroke-width:1.5;"/><text fill="#000000" font-family="sans-serif" font-size="20" font-style="italic" lengthAdjust="spacing" textLength="110" x="2179.5" y="1851.9336">«repository»</text><text fill="#000000" font-family="sans-serif" font-size="20" lengthAdjust="spacing" textLength="196" x="2136.5" y="1877.0898">:ApplicationRepository</text><path d="M2219.5,1891.4844 C2219.5,1881.4844 2237.5,1881.4844 2237.5,1881.4844 C2237.5,1881.4844 2255.5,1881.4844 2255.5,1891.4844 L2255.5,1917.4844 C2255.5,1927.4844 2237.5,1927.4844 2237.5,1927.4844 C2237.5,1927.4844 2219.5,1927.4844 2219.5,1917.4844 L2219.5,1891.4844 " fill="#E2E2F0" style="stroke:#181818;stroke-width:1.5;"/><path d="M2219.5,1891.4844 C2219.5,1901.4844 2237.5,1901.4844 2237.5,1901.4844 C2237.5,1901.4844 2255.5,1901.4844 2255.5,1891.4844 " fill="none" style="stroke:#181818;stroke-width:1.5;"/><rect fill="#E2E2F0" height="64.3125" rx="2.5" ry="2.5" style="stroke:#181818;stroke-width:0.5;" width="247" x="2452" y="1831.1719"/><text fill="#000000" font-family="sans-serif" font-size="20" font-style="italic" lengthAdjust="spacing" textLength="142" x="2504.5" y="1858.9336">«domain event»</text><text fill="#000000" font-family="sans-serif" font-size="20" lengthAdjust="spacing" textLength="233" x="2459" y="1884.0898">:ApplicationAcceptedEvent</text><rect fill="#E2E2F0" height="64.3125" rx="2.5" ry="2.5" style="stroke:#181818;stroke-width:0.5;" width="298" x="2709" y="1831.1719"/><text fill="#000000" font-family="sans-serif" font-size="20" font-style="italic" lengthAdjust="spacing" textLength="142" x="2787" y="1858.9336">«domain event»</text><text fill="#000000" font-family="sans-serif" font-size="20" lengthAdjust="spacing" textLength="284" x="2716" y="1884.0898">:ApplicationStatusChangedEvent</text><rect fill="#E2E2F0" height="89.4688" rx="2.5" ry="2.5" style="stroke:#181818;stroke-width:0.5;" width="190" x="3017" y="1831.1719"/><text fill="#000000" font-family="sans-serif" font-size="20" font-style="italic" lengthAdjust="spacing" textLength="142" x="3041" y="1858.9336">«domain event»</text><text fill="#000000" font-family="sans-serif" font-size="20" lengthAdjust="spacing" textLength="176" x="3024" y="1884.0898">:JobOpeningResults</text><text fill="#000000" font-family="sans-serif" font-size="20" lengthAdjust="spacing" textLength="133" x="3045.5" y="1909.2461">PublishedEvent</text><rect fill="#E2E2F0" height="64.3125" rx="2.5" ry="2.5" style="stroke:#181818;stroke-width:0.5;" width="149" x="3217" y="74.6094"/><text fill="#000000" font-family="sans-serif" font-size="20" font-style="italic" lengthAdjust="spacing" textLength="99" x="3242" y="102.3711">«interface»</text><text fill="#000000" font-family="sans-serif" font-size="20" lengthAdjust="spacing" textLength="135" x="3224" y="127.5273">:EventPublisher</text><rect fill="#E2E2F0" height="64.3125" rx="2.5" ry="2.5" style="stroke:#181818;stroke-width:0.5;" width="149" x="3217" y="1831.1719"/><text fill="#000000" font-family="sans-serif" font-size="20" font-style="italic" lengthAdjust="spacing" textLength="99" x="3242" y="1858.9336">«interface»</text><text fill="#000000" font-family="sans-serif" font-size="20" lengthAdjust="spacing" textLength="135" x="3224" y="1884.0898">:EventPublisher</text><rect fill="#FFFFFF" height="1664.25" style="stroke:#181818;stroke-width:1.0;" width="10" x="87.5" y="149.9219"/><rect fill="#FFFFFF" height="333.5625" style="stroke:#181818;stroke-width:1.0;" width="10" x="560.5" y="181.0781"/><rect fill="#FFFFFF" height="1269.375" style="stroke:#181818;stroke-width:1.0;" width="10" x="560.5" y="553.7969"/><rect fill="#FFFFFF" height="154.7813" style="stroke:#181818;stroke-width:1.0;" width="10" x="998.5" y="320.7031"/><rect fill="#FFFFFF" height="1182.0625" style="stroke:#181818;stroke-width:1.0;" width="10" x="998.5" y="592.9531"/><rect fill="#FFFFFF" height="1019.5938" style="stroke:#181818;stroke-width:1.0;" width="10" x="1003.5" y="709.2656"/><rect fill="#FFFFFF" height="30" style="stroke:#181818;stroke-width:1.0;" width="10" x="1519.5" y="632.1094"/><rect fill="#FFFFFF" height="30" style="stroke:#181818;stroke-width:1.0;" width="10" x="1704" y="753.4219"/><rect fill="#FFFFFF" height="691.5" style="stroke:#181818;stroke-width:1.0;" width="10" x="1841" y="822.5781"/><rect fill="#FFFFFF" height="30" style="stroke:#181818;stroke-width:1.0;" width="10" x="2064" y="950.3594"/><rect fill="#FFFFFF" height="30" style="stroke:#181818;stroke-width:1.0;" width="10" x="2064" y="1021.5156"/><rect fill="#FFFFFF" height="30" style="stroke:#181818;stroke-width:1.0;" width="10" x="2232.5" y="1097.6719"/><rect fill="#FFFFFF" height="30" style="stroke:#181818;stroke-width:1.0;" width="10" x="3286.5" y="1242.1406"/><rect fill="#FFFFFF" height="30" style="stroke:#181818;stroke-width:1.0;" width="10" x="3286.5" y="1430.9219"/><rect fill="#FFFFFF" height="30" style="stroke:#181818;stroke-width:1.0;" width="10" x="3286.5" y="1653.7031"/><polygon fill="#181818" points="548.5,177.0781,558.5,181.0781,548.5,185.0781,552.5,181.0781" style="stroke:#181818;stroke-width:1.0;"/><line style="stroke:#181818;stroke-width:1.0;" x1="97.5" x2="554.5" y1="181.0781" y2="181.0781"/><text fill="#000000" font-family="sans-serif" font-size="20" font-weight="bold" lengthAdjust="spacing" textLength="11" x="104.5" y="174.6836">1</text><text fill="#000000" font-family="sans-serif" font-size="20" lengthAdjust="spacing" textLength="330" x="119.5" y="174.6836">asks to publish results for job opening</text><polygon fill="#181818" points="889.5,216.2344,899.5,220.2344,889.5,224.2344,893.5,220.2344" style="stroke:#181818;stroke-width:1.0;"/><line style="stroke:#181818;stroke-width:1.0;" x1="570.5" x2="895.5" y1="220.2344" y2="220.2344"/><text fill="#000000" font-family="sans-serif" font-size="20" font-weight="bold" lengthAdjust="spacing" textLength="11" x="577.5" y="213.8398">2</text><text fill="#000000" font-family="sans-serif" font-size="20" lengthAdjust="spacing" textLength="56" x="592.5" y="213.8398">create</text><rect fill="#E2E2F0" height="89.4688" rx="2.5" ry="2.5" style="stroke:#181818;stroke-width:0.5;" width="204" x="901.5" y="189.0781"/><text fill="#000000" font-family="sans-serif" font-size="20" font-style="italic" lengthAdjust="spacing" textLength="118" x="944.5" y="216.8398">«application»</text><text fill="#000000" font-family="sans-serif" font-size="20" lengthAdjust="spacing" textLength="123" x="942" y="241.9961">:PublishResult</text><text fill="#000000" font-family="sans-serif" font-size="20" lengthAdjust="spacing" textLength="190" x="908.5" y="267.1523">JobOpeningController</text><polygon fill="#181818" points="986.5,316.7031,996.5,320.7031,986.5,324.7031,990.5,320.7031" style="stroke:#181818;stroke-width:1.0;"/><line style="stroke:#181818;stroke-width:1.0;" x1="570.5" x2="992.5" y1="320.7031" y2="320.7031"/><text fill="#000000" font-family="sans-serif" font-size="20" font-weight="bold" lengthAdjust="spacing" textLength="11" x="577.5" y="314.3086">3</text><text fill="#000000" font-family="sans-serif" font-size="20" lengthAdjust="spacing" textLength="178" x="592.5" y="314.3086">getJobOpeningList()</text><rect fill="none" height="110.625" style="stroke:#000000;stroke-width:1.5;" width="447" x="898.5" y="328.7031"/><path d="M898.5,328.7031 L969.5,328.7031 L969.5,345.7031 L959.5,355.7031 L898.5,355.7031 L898.5,328.7031 " fill="#EEEEEE" style="stroke:#000000;stroke-width:2.0;"/><text fill="#000000" font-family="sans-serif" font-size="20" font-weight="bold" lengthAdjust="spacing" textLength="26" x="911.5" y="351.4648">ref</text><text fill="#000000" font-family="sans-serif" font-size="20" lengthAdjust="spacing" textLength="6" x="1119" y="380.4648"> </text><text fill="#000000" font-family="sans-serif" font-size="20" lengthAdjust="spacing" textLength="55" x="902.5" y="405.6211">Check</text><text fill="#000000" font-family="sans-serif" font-size="20" font-weight="bold" lengthAdjust="spacing" textLength="378" x="963.5" y="405.6211">sequence-diagram-job-opening-in-result</text><text fill="#000000" font-family="sans-serif" font-size="20" lengthAdjust="spacing" textLength="6" x="1119" y="430.7773"> </text><polygon fill="#181818" points="581.5,471.4844,571.5,475.4844,581.5,479.4844,577.5,475.4844" style="stroke:#181818;stroke-width:1.0;"/><line style="stroke:#181818;stroke-width:1.0;stroke-dasharray:2.0,2.0;" x1="575.5" x2="1002.5" y1="475.4844" y2="475.4844"/><text fill="#000000" font-family="sans-serif" font-size="20" font-weight="bold" lengthAdjust="spacing" textLength="11" x="587.5" y="469.0898">4</text><text fill="#000000" font-family="sans-serif" font-size="20" lengthAdjust="spacing" textLength="172" x="602.5" y="469.0898">jobOpeningListDTO</text><polygon fill="#181818" points="108.5,510.6406,98.5,514.6406,108.5,518.6406,104.5,514.6406" style="stroke:#181818;stroke-width:1.0;"/><line style="stroke:#181818;stroke-width:1.0;stroke-dasharray:2.0,2.0;" x1="102.5" x2="564.5" y1="514.6406" y2="514.6406"/><text fill="#000000" font-family="sans-serif" font-size="20" font-weight="bold" lengthAdjust="spacing" textLength="11" x="114.5" y="508.2461">5</text><text fill="#000000" font-family="sans-serif" font-size="20" lengthAdjust="spacing" textLength="424" x="129.5" y="508.2461">displays the job openings and asks to select one</text><polygon fill="#181818" points="548.5,549.7969,558.5,553.7969,548.5,557.7969,552.5,553.7969" style="stroke:#181818;stroke-width:1.0;"/><line style="stroke:#181818;stroke-width:1.0;" x1="97.5" x2="554.5" y1="553.7969" y2="553.7969"/><text fill="#000000" font-family="sans-serif" font-size="20" font-weight="bold" lengthAdjust="spacing" textLength="11" x="104.5" y="547.4023">6</text><text fill="#000000" font-family="sans-serif" font-size="20" lengthAdjust="spacing" textLength="168" x="119.5" y="547.4023">selects job opening</text><polygon fill="#181818" points="986.5,588.9531,996.5,592.9531,986.5,596.9531,990.5,592.9531" style="stroke:#181818;stroke-width:1.0;"/><line style="stroke:#181818;stroke-width:1.0;" x1="570.5" x2="992.5" y1="592.9531" y2="592.9531"/><text fill="#000000" font-family="sans-serif" font-size="20" font-weight="bold" lengthAdjust="spacing" textLength="11" x="577.5" y="586.5586">7</text><text fill="#000000" font-family="sans-serif" font-size="20" lengthAdjust="spacing" textLength="394" x="592.5" y="586.5586">publishResultForJobOpening(jobOpeningDto)</text><polygon fill="#181818" points="1507.5,628.1094,1517.5,632.1094,1507.5,636.1094,1511.5,632.1094" style="stroke:#181818;stroke-width:1.0;"/><line style="stroke:#181818;stroke-width:1.0;" x1="1008.5" x2="1513.5" y1="632.1094" y2="632.1094"/><text fill="#000000" font-family="sans-serif" font-size="20" font-weight="bold" lengthAdjust="spacing" textLength="11" x="1015.5" y="625.7148">8</text><text fill="#000000" font-family="sans-serif" font-size="20" lengthAdjust="spacing" textLength="316" x="1030.5" y="625.7148">loggedinUserWithPermissions(roles)</text><line style="stroke:#181818;stroke-width:1.0;" x1="1008.5" x2="1055.5" y1="696.2656" y2="696.2656"/><line style="stroke:#181818;stroke-width:1.0;" x1="1055.5" x2="1055.5" y1="696.2656" y2="709.2656"/><line style="stroke:#181818;stroke-width:1.0;" x1="1014.5" x2="1055.5" y1="709.2656" y2="709.2656"/><polygon fill="#181818" points="1024.5,705.2656,1014.5,709.2656,1024.5,713.2656,1020.5,709.2656" style="stroke:#181818;stroke-width:1.0;"/><text fill="#000000" font-family="sans-serif" font-size="20" font-weight="bold" lengthAdjust="spacing" textLength="11" x="1020.5" y="689.8711">9</text><text fill="#000000" font-family="sans-serif" font-size="20" lengthAdjust="spacing" textLength="482" x="1035.5" y="689.8711">publishResults(jobOpeningDto,customerManagerEmail)</text><polygon fill="#181818" points="1692,749.4219,1702,753.4219,1692,757.4219,1696,753.4219" style="stroke:#181818;stroke-width:1.0;"/><line style="stroke:#181818;stroke-width:1.0;" x1="1013.5" x2="1698" y1="753.4219" y2="753.4219"/><text fill="#000000" font-family="sans-serif" font-size="20" font-weight="bold" lengthAdjust="spacing" textLength="22" x="1020.5" y="747.0273">10</text><text fill="#000000" font-family="sans-serif" font-size="20" lengthAdjust="spacing" textLength="296" x="1046.5" y="747.0273">rankOfJobOpening(jobReference)</text><polygon fill="#181818" points="1829,818.5781,1839,822.5781,1829,826.5781,1833,822.5781" style="stroke:#181818;stroke-width:1.0;"/><line style="stroke:#181818;stroke-width:1.0;" x1="1013.5" x2="1835" y1="822.5781" y2="822.5781"/><text fill="#000000" font-family="sans-serif" font-size="20" font-weight="bold" lengthAdjust="spacing" textLength="22" x="1020.5" y="816.1836">11</text><text fill="#000000" font-family="sans-serif" font-size="20" lengthAdjust="spacing" textLength="478" x="1046.5" y="816.1836">publishResults(numVacancies,customerManagerEmail)</text><path d="M1775,837.5781 L1861,837.5781 L1861,854.7344 L1851,864.7344 L1775,864.7344 L1775,837.5781 " fill="#EEEEEE" style="stroke:#000000;stroke-width:1.5;"/><rect fill="none" height="638.3438" style="stroke:#000000;stroke-width:1.5;" width="1611" x="1775" y="837.5781"/><text fill="#000000" font-family="sans-serif" font-size="20" font-weight="bold" lengthAdjust="spacing" textLength="41" x="1790" y="859.3398">loop</text><text fill="#000000" font-family="sans-serif" font-size="20" font-weight="bold" lengthAdjust="spacing" textLength="201" x="1876" y="860.3398">[for each RankOrder]</text><path d="M1785,881.8906 L1853,881.8906 L1853,899.0469 L1843,909.0469 L1785,909.0469 L1785,881.8906 " fill="#EEEEEE" style="stroke:#000000;stroke-width:1.5;"/><rect fill="none" height="177.625" style="stroke:#000000;stroke-width:1.5;" width="396" x="1785" y="881.8906"/><text fill="#000000" font-family="sans-serif" font-size="20" font-weight="bold" lengthAdjust="spacing" textLength="23" x="1800" y="903.6523">alt</text><text fill="#000000" font-family="sans-serif" font-size="20" font-weight="bold" lengthAdjust="spacing" textLength="308" x="1868" y="904.6523">[if orderValue &lt;= numVacancies]</text><polygon fill="#181818" points="2052,946.3594,2062,950.3594,2052,954.3594,2056,950.3594" style="stroke:#181818;stroke-width:1.0;"/><line style="stroke:#181818;stroke-width:1.0;" x1="1851" x2="2058" y1="950.3594" y2="950.3594"/><text fill="#000000" font-family="sans-serif" font-size="20" font-weight="bold" lengthAdjust="spacing" textLength="22" x="1858" y="943.9648">12</text><text fill="#000000" font-family="sans-serif" font-size="20" lengthAdjust="spacing" textLength="168" x="1884" y="943.9648">acceptApplication()</text><line style="stroke:#000000;stroke-width:1.0;stroke-dasharray:2.0,2.0;" x1="1785" x2="2181" y1="989.3594" y2="989.3594"/><polygon fill="#181818" points="2052,1017.5156,2062,1021.5156,2052,1025.5156,2056,1021.5156" style="stroke:#181818;stroke-width:1.0;"/><line style="stroke:#181818;stroke-width:1.0;" x1="1851" x2="2058" y1="1021.5156" y2="1021.5156"/><text fill="#000000" font-family="sans-serif" font-size="20" font-weight="bold" lengthAdjust="spacing" textLength="22" x="1858" y="1015.1211">13</text><text fill="#000000" font-family="sans-serif" font-size="20" lengthAdjust="spacing" textLength="158" x="1884" y="1015.1211">rejectApplication()</text><polygon fill="#181818" points="2220.5,1093.6719,2230.5,1097.6719,2220.5,1101.6719,2224.5,1097.6719" style="stroke:#181818;stroke-width:1.0;"/><line style="stroke:#181818;stroke-width:1.0;" x1="1851" x2="2226.5" y1="1097.6719" y2="1097.6719"/><text fill="#000000" font-family="sans-serif" font-size="20" font-weight="bold" lengthAdjust="spacing" textLength="22" x="1858" y="1091.2773">14</text><text fill="#000000" font-family="sans-serif" font-size="20" lengthAdjust="spacing" textLength="148" x="1884" y="1091.2773">save(application)</text><polygon fill="#181818" points="2697,1162.8281,2707,1166.8281,2697,1170.8281,2701,1166.8281" style="stroke:#181818;stroke-width:1.0;"/><line style="stroke:#181818;stroke-width:1.0;" x1="1851" x2="2703" y1="1166.8281" y2="1166.8281"/><text fill="#000000" font-family="sans-serif" font-size="20" font-weight="bold" lengthAdjust="spacing" textLength="22" x="1858" y="1160.4336">15</text><text fill="#000000" font-family="sans-serif" font-size="20" lengthAdjust="spacing" textLength="436" x="1884" y="1160.4336">create(candidateEmail, jobReference, newStatus)</text><rect fill="#E2E2F0" height="64.3125" rx="2.5" ry="2.5" style="stroke:#181818;stroke-width:0.5;" width="298" x="2709" y="1135.6719"/><text fill="#000000" font-family="sans-serif" font-size="20" font-style="italic" lengthAdjust="spacing" textLength="142" x="2787" y="1163.4336">«domain event»</text><text fill="#000000" font-family="sans-serif" font-size="20" lengthAdjust="spacing" textLength="284" x="2716" y="1188.5898">:ApplicationStatusChangedEvent</text><polygon fill="#181818" points="3274.5,1238.1406,3284.5,1242.1406,3274.5,1246.1406,3278.5,1242.1406" style="stroke:#181818;stroke-width:1.0;"/><line style="stroke:#181818;stroke-width:1.0;" x1="1851" x2="3280.5" y1="1242.1406" y2="1242.1406"/><text fill="#000000" font-family="sans-serif" font-size="20" font-weight="bold" lengthAdjust="spacing" textLength="22" x="1858" y="1235.7461">16</text><text fill="#000000" font-family="sans-serif" font-size="20" lengthAdjust="spacing" textLength="350" x="1884" y="1235.7461">publish(applicationStatusChangedEvent)</text><path d="M1785,1287.1406 L1853,1287.1406 L1853,1304.2969 L1843,1314.2969 L1785,1314.2969 L1785,1287.1406 " fill="#EEEEEE" style="stroke:#000000;stroke-width:1.5;"/><rect fill="none" height="181.7813" style="stroke:#000000;stroke-width:1.5;" width="1591" x="1785" y="1287.1406"/><text fill="#000000" font-family="sans-serif" font-size="20" font-weight="bold" lengthAdjust="spacing" textLength="23" x="1800" y="1308.9023">alt</text><text fill="#000000" font-family="sans-serif" font-size="20" font-weight="bold" lengthAdjust="spacing" textLength="308" x="1868" y="1309.9023">[if orderValue &lt;= numVacancies]</text><polygon fill="#181818" points="2440,1351.6094,2450,1355.6094,2440,1359.6094,2444,1355.6094" style="stroke:#181818;stroke-width:1.0;"/><line style="stroke:#181818;stroke-width:1.0;" x1="1851" x2="2446" y1="1355.6094" y2="1355.6094"/><text fill="#000000" font-family="sans-serif" font-size="20" font-weight="bold" lengthAdjust="spacing" textLength="22" x="1858" y="1349.2148">17</text><text fill="#000000" font-family="sans-serif" font-size="20" lengthAdjust="spacing" textLength="551" x="1884" y="1349.2148">create(customerManagerEmail, candidateEmail, jobReference)</text><rect fill="#E2E2F0" height="64.3125" rx="2.5" ry="2.5" style="stroke:#181818;stroke-width:0.5;" width="247" x="2452" y="1324.4531"/><text fill="#000000" font-family="sans-serif" font-size="20" font-style="italic" lengthAdjust="spacing" textLength="142" x="2504.5" y="1352.2148">«domain event»</text><text fill="#000000" font-family="sans-serif" font-size="20" lengthAdjust="spacing" textLength="233" x="2459" y="1377.3711">:ApplicationAcceptedEvent</text><polygon fill="#181818" points="3274.5,1426.9219,3284.5,1430.9219,3274.5,1434.9219,3278.5,1430.9219" style="stroke:#181818;stroke-width:1.0;"/><line style="stroke:#181818;stroke-width:1.0;" x1="1851" x2="3280.5" y1="1430.9219" y2="1430.9219"/><text fill="#000000" font-family="sans-serif" font-size="20" font-weight="bold" lengthAdjust="spacing" textLength="22" x="1858" y="1424.5273">18</text><text fill="#000000" font-family="sans-serif" font-size="20" lengthAdjust="spacing" textLength="299" x="1884" y="1424.5273">publish(applicationAcceptedEvent)</text><polygon fill="#181818" points="1024.5,1510.0781,1014.5,1514.0781,1024.5,1518.0781,1020.5,1514.0781" style="stroke:#181818;stroke-width:1.0;"/><line style="stroke:#181818;stroke-width:1.0;stroke-dasharray:2.0,2.0;" x1="1018.5" x2="1845" y1="1514.0781" y2="1514.0781"/><text fill="#000000" font-family="sans-serif" font-size="20" font-weight="bold" lengthAdjust="spacing" textLength="22" x="1030.5" y="1507.6836">19</text><text fill="#000000" font-family="sans-serif" font-size="20" lengthAdjust="spacing" textLength="201" x="1056.5" y="1507.6836">acceptedCandidateList</text><polygon fill="#181818" points="3005,1549.2344,3015,1553.2344,3005,1557.2344,3009,1553.2344" style="stroke:#181818;stroke-width:1.0;"/><line style="stroke:#181818;stroke-width:1.0;" x1="1013.5" x2="3011" y1="1553.2344" y2="1553.2344"/><text fill="#000000" font-family="sans-serif" font-size="20" font-weight="bold" lengthAdjust="spacing" textLength="22" x="1020.5" y="1546.8398">20</text><text fill="#000000" font-family="sans-serif" font-size="20" lengthAdjust="spacing" textLength="757" x="1046.5" y="1546.8398">create(customerManagerEmail, acceptedCandidateList, companyCode, jobReference)</text><rect fill="#E2E2F0" height="89.4688" rx="2.5" ry="2.5" style="stroke:#181818;stroke-width:0.5;" width="190" x="3017" y="1522.0781"/><text fill="#000000" font-family="sans-serif" font-size="20" font-style="italic" lengthAdjust="spacing" textLength="142" x="3041" y="1549.8398">«domain event»</text><text fill="#000000" font-family="sans-serif" font-size="20" lengthAdjust="spacing" textLength="176" x="3024" y="1574.9961">:JobOpeningResults</text><text fill="#000000" font-family="sans-serif" font-size="20" lengthAdjust="spacing" textLength="133" x="3045.5" y="1600.1523">PublishedEvent</text><polygon fill="#181818" points="3274.5,1649.7031,3284.5,1653.7031,3274.5,1657.7031,3278.5,1653.7031" style="stroke:#181818;stroke-width:1.0;"/><line style="stroke:#181818;stroke-width:1.0;" x1="1013.5" x2="3280.5" y1="1653.7031" y2="1653.7031"/><text fill="#000000" font-family="sans-serif" font-size="20" font-weight="bold" lengthAdjust="spacing" textLength="22" x="1020.5" y="1647.3086">21</text><text fill="#000000" font-family="sans-serif" font-size="20" lengthAdjust="spacing" textLength="371" x="1046.5" y="1647.3086">publish(jobOpeningResultsPublishedEvent)</text><line style="stroke:#181818;stroke-width:1.0;stroke-dasharray:2.0,2.0;" x1="1013.5" x2="1055.5" y1="1727.8594" y2="1727.8594"/><line style="stroke:#181818;stroke-width:1.0;stroke-dasharray:2.0,2.0;" x1="1055.5" x2="1055.5" y1="1727.8594" y2="1740.8594"/><line style="stroke:#181818;stroke-width:1.0;stroke-dasharray:2.0,2.0;" x1="1008.5" x2="1055.5" y1="1740.8594" y2="1740.8594"/><polygon fill="#181818" points="1018.5,1736.8594,1008.5,1740.8594,1018.5,1744.8594,1014.5,1740.8594" style="stroke:#181818;stroke-width:1.0;"/><text fill="#000000" font-family="sans-serif" font-size="20" font-weight="bold" lengthAdjust="spacing" textLength="22" x="1020.5" y="1721.4648">22</text><text fill="#000000" font-family="sans-serif" font-size="20" lengthAdjust="spacing" textLength="6" x="1046.5" y="1721.4648"> </text><polygon fill="#181818" points="581.5,1771.0156,571.5,1775.0156,581.5,1779.0156,577.5,1775.0156" style="stroke:#181818;stroke-width:1.0;"/><line style="stroke:#181818;stroke-width:1.0;stroke-dasharray:2.0,2.0;" x1="575.5" x2="1002.5" y1="1775.0156" y2="1775.0156"/><text fill="#000000" font-family="sans-serif" font-size="20" font-weight="bold" lengthAdjust="spacing" textLength="22" x="587.5" y="1768.6211">23</text><text fill="#000000" font-family="sans-serif" font-size="20" lengthAdjust="spacing" textLength="71" x="613.5" y="1768.6211">success</text><polygon fill="#181818" points="103.5,1810.1719,93.5,1814.1719,103.5,1818.1719,99.5,1814.1719" style="stroke:#181818;stroke-width:1.0;"/><line style="stroke:#181818;stroke-width:1.0;stroke-dasharray:2.0,2.0;" x1="97.5" x2="559.5" y1="1814.1719" y2="1814.1719"/><text fill="#000000" font-family="sans-serif" font-size="20" font-weight="bold" lengthAdjust="spacing" textLength="22" x="109.5" y="1807.7773">24</text><text fill="#000000" font-family="sans-serif" font-size="20" lengthAdjust="spacing" textLength="148" x="135.5" y="1807.7773">displays success</text><!--SRC=[hLPDRzim3BtxLn2zB0cQjTlHw0e4QOPrs9R0QJTW630eDfEeSIHFaZDqltwKPSVoHz8TvaFHoEJZ8_b4Mk-uo9XY-rJ6EqmWmJNBK_DU2hFaVn3UNWUljiPaEhowob8cJBvFNyToVwNnLuuYnd72sORyWy1mao8yBjzSlxs6CInB0xYh35XkfCZtArJqVsoaWejfhetSeuBFJB0DgWjWcY1cKK2a38zvHY7X8bpagvJhROIQo7sKgtc6WelDuxrpk8URcqoXHc6OuLBStfxp_o5gX2abgcIQbg6d3z4dmc9PblAu7sgIcwrK_4_nTedgm6CiV2UF3n- -axDsP-IOCCDMJ2DvHKpi8ioavfJtSs4V_OncYpavgEDv9vXrSyPabyWzups4QhAEXs_gKV3iMamc_y34yvx4CMO6azc1wbq0V9bCPiUeWFRy7C2IkfJhwPQ9ZOyoMKvVHAaxvtgfVuYojpxIntcqU16gCA-SNVjd2tBYmg1QiwA3XL3vWHbqgWpiNnZVMic5vB7JO2Ha3WIKemHhalQJN85qJ3sCUqAuj_vMQADH2B52Uk6V4ku6FOr_ujeCXZM6jGa2XMkG1xeuxkTqY_4EHgFshHmJZN59Oyp5s34SZO80HK9yr-HgOuwBb4BBsWjxzp0F4cn5jaojjIr420dND1QUgGnRz7FMm2X0LI2DASO6f40VprQZML1dfqyN3-YfInLMbNTQU2zLNRP1dSgTaSF2ivM9FNBPtxhB6mAaSaEQvEAHRl4tRhOBL7kkDObM3sXEe6uX5Nx5aPUOEspWbvrjyDLDZfTnEGpBMJWZxQOdYVlWRfA4e6XQpDVD6aIuHcKbCJow7T6St_7Sow1yqutKIO46-bSMCn5pr6SoQCQjWUsJIfaLTuRYRy6ElBbAx9A0riDI0vnqRzz-PMcESFCEV08T3_iKyfhOwrhCBMyE3OQz3dKVUr_xZUvon5HZFmtBWdg4JoJn_qkYmy5UlTHqoRbIb6hHx803RzDrUTGXcaBf8z4IJ3CY3VRH2AffDw1k9Pms4nO2kGHVffSWyBTR45r2jeQpnL63FllkJZcJpsnnBXTw-p-bPvTZFUe7VNVa4iwLP7WQ-qGn6Xlw1NtrrA9RZvCA2zgdzZ877iVZg6ObfscLgTqmlREddfpaNApo5ylN2qvLbNjQzizJcM1VIQkfvbVngVs1qVoyQCtZiZGjyNZWLVfjit9j-xjNvvI4rcSthhTmA_F6HYs-KVu2]--></g></svg>