<?xml version="1.0" encoding="UTF-8" standalone="no"?><svg xmlns="http://www.w3.org/2000/svg" xmlns:xlink="http://www.w3.org/1999/xlink" contentStyleType="text/css" height="802px" preserveAspectRatio="none" style="width:2568px;height:802px;background:#FFFFFF;" version="1.1" viewBox="0 0 2568 802" width="2568px" zoomAndPan="magnify"><defs/><g><text fill="#000000" font-family="sans-serif" font-size="14" font-weight="bold" lengthAdjust="spacing" textLength="298" x="1136.5" y="29.5332">List Job JobOpenings - Sequence Diagram</text><rect fill="#FFFFFF" height="530.875" style="stroke:#181818;stroke-width:1.0;" width="10" x="72.5" y="149.9219"/><rect fill="#FFFFFF" height="415.4063" style="stroke:#181818;stroke-width:1.0;" width="10" x="294.5" y="256.3906"/><rect fill="#FFFFFF" height="30" style="stroke:#181818;stroke-width:1.0;" width="10" x="924.5" y="295.5469"/><rect fill="#FFFFFF" height="267.9375" style="stroke:#181818;stroke-width:1.0;" width="10" x="1185" y="364.7031"/><rect fill="#FFFFFF" height="128.4688" style="stroke:#181818;stroke-width:1.0;" width="10" x="1757" y="473.0156"/><rect fill="#FFFFFF" height="30" style="stroke:#181818;stroke-width:1.0;" width="10" x="2191" y="403.8594"/><rect fill="#FFFFFF" height="30" style="stroke:#181818;stroke-width:1.0;" width="10" x="2484.5" y="556.4844"/><rect fill="none" height="106.4688" style="stroke:#000000;stroke-width:1.5;" width="926" x="1636" y="488.0156"/><line style="stroke:#181818;stroke-width:0.5;stroke-dasharray:5.0,5.0;" x1="77" x2="77" y1="139.9219" y2="689.7969"/><line style="stroke:#181818;stroke-width:0.5;stroke-dasharray:5.0,5.0;" x1="299.5" x2="299.5" y1="197.5781" y2="689.7969"/><line style="stroke:#181818;stroke-width:0.5;stroke-dasharray:5.0,5.0;" x1="929" x2="929" y1="139.9219" y2="689.7969"/><line style="stroke:#181818;stroke-width:0.5;stroke-dasharray:5.0,5.0;" x1="1190" x2="1190" y1="139.9219" y2="689.7969"/><line style="stroke:#181818;stroke-width:0.5;stroke-dasharray:5.0,5.0;" x1="1494" x2="1494" y1="139.9219" y2="689.7969"/><line style="stroke:#181818;stroke-width:0.5;stroke-dasharray:5.0,5.0;" x1="1762" x2="1762" y1="139.9219" y2="689.7969"/><line style="stroke:#181818;stroke-width:0.5;stroke-dasharray:5.0,5.0;" x1="1984" x2="1984" y1="139.9219" y2="689.7969"/><line style="stroke:#181818;stroke-width:0.5;stroke-dasharray:5.0,5.0;" x1="2196" x2="2196" y1="139.9219" y2="689.7969"/><line style="stroke:#181818;stroke-width:0.5;stroke-dasharray:5.0,5.0;" x1="2364" x2="2364" y1="139.9219" y2="689.7969"/><line style="stroke:#181818;stroke-width:0.5;stroke-dasharray:5.0,5.0;" x1="2489" x2="2489" y1="139.9219" y2="689.7969"/><rect fill="#E2E2F0" height="64.3125" rx="2.5" ry="2.5" style="stroke:#181818;stroke-width:0.5;" width="145" x="5" y="74.6094"/><text fill="#000000" font-family="sans-serif" font-size="20" font-style="italic" lengthAdjust="spacing" textLength="131" x="12" y="102.3711">«presentation»</text><text fill="#000000" font-family="sans-serif" font-size="20" lengthAdjust="spacing" textLength="56" x="49.5" y="127.5273">:XxxUI</text><rect fill="#E2E2F0" height="64.3125" rx="2.5" ry="2.5" style="stroke:#181818;stroke-width:0.5;" width="145" x="5" y="688.7969"/><text fill="#000000" font-family="sans-serif" font-size="20" font-style="italic" lengthAdjust="spacing" textLength="131" x="12" y="716.5586">«presentation»</text><text fill="#000000" font-family="sans-serif" font-size="20" lengthAdjust="spacing" textLength="56" x="49.5" y="741.7148">:XxxUI</text><rect fill="#E2E2F0" height="64.3125" rx="2.5" ry="2.5" style="stroke:#181818;stroke-width:0.5;" width="136" x="231.5" y="688.7969"/><text fill="#000000" font-family="sans-serif" font-size="20" font-style="italic" lengthAdjust="spacing" textLength="118" x="240.5" y="716.5586">«application»</text><text fill="#000000" font-family="sans-serif" font-size="20" lengthAdjust="spacing" textLength="122" x="238.5" y="741.7148">:XxxController</text><rect fill="#E2E2F0" height="64.3125" rx="2.5" ry="2.5" style="stroke:#181818;stroke-width:0.5;" width="197" x="831" y="74.6094"/><text fill="#000000" font-family="sans-serif" font-size="20" font-style="italic" lengthAdjust="spacing" textLength="86" x="886.5" y="102.3711">«service»</text><text fill="#000000" font-family="sans-serif" font-size="20" lengthAdjust="spacing" textLength="183" x="838" y="127.5273">:AuthorizationService</text><rect fill="#E2E2F0" height="64.3125" rx="2.5" ry="2.5" style="stroke:#181818;stroke-width:0.5;" width="197" x="831" y="688.7969"/><text fill="#000000" font-family="sans-serif" font-size="20" font-style="italic" lengthAdjust="spacing" textLength="86" x="886.5" y="716.5586">«service»</text><text fill="#000000" font-family="sans-serif" font-size="20" lengthAdjust="spacing" textLength="183" x="838" y="741.7148">:AuthorizationService</text><rect fill="#E2E2F0" height="64.3125" rx="2.5" ry="2.5" style="stroke:#181818;stroke-width:0.5;" width="304" x="1038" y="74.6094"/><text fill="#000000" font-family="sans-serif" font-size="20" font-style="italic" lengthAdjust="spacing" textLength="86" x="1147" y="102.3711">«service»</text><text fill="#000000" font-family="sans-serif" font-size="20" lengthAdjust="spacing" textLength="290" x="1045" y="127.5273">:JobOpeningManagementService</text><rect fill="#E2E2F0" height="64.3125" rx="2.5" ry="2.5" style="stroke:#181818;stroke-width:0.5;" width="304" x="1038" y="688.7969"/><text fill="#000000" font-family="sans-serif" font-size="20" font-style="italic" lengthAdjust="spacing" textLength="86" x="1147" y="716.5586">«service»</text><text fill="#000000" font-family="sans-serif" font-size="20" lengthAdjust="spacing" textLength="290" x="1045" y="741.7148">:JobOpeningManagementService</text><rect fill="#E2E2F0" height="64.3125" rx="2.5" ry="2.5" style="stroke:#181818;stroke-width:0.5;" width="284" x="1352" y="74.6094"/><text fill="#000000" font-family="sans-serif" font-size="20" font-style="italic" lengthAdjust="spacing" textLength="86" x="1451" y="102.3711">«service»</text><text fill="#000000" font-family="sans-serif" font-size="20" lengthAdjust="spacing" textLength="270" x="1359" y="127.5273">:CustomerManagementService</text><rect fill="#E2E2F0" height="64.3125" rx="2.5" ry="2.5" style="stroke:#181818;stroke-width:0.5;" width="284" x="1352" y="688.7969"/><text fill="#000000" font-family="sans-serif" font-size="20" font-style="italic" lengthAdjust="spacing" textLength="86" x="1451" y="716.5586">«service»</text><text fill="#000000" font-family="sans-serif" font-size="20" lengthAdjust="spacing" textLength="270" x="1359" y="741.7148">:CustomerManagementService</text><rect fill="#E2E2F0" height="64.3125" rx="2.5" ry="2.5" style="stroke:#181818;stroke-width:0.5;" width="232" x="1646" y="74.6094"/><text fill="#000000" font-family="sans-serif" font-size="20" font-style="italic" lengthAdjust="spacing" textLength="86" x="1719" y="102.3711">«service»</text><text fill="#000000" font-family="sans-serif" font-size="20" lengthAdjust="spacing" textLength="218" x="1653" y="127.5273">:JobOpeningDTOService</text><rect fill="#E2E2F0" height="64.3125" rx="2.5" ry="2.5" style="stroke:#181818;stroke-width:0.5;" width="232" x="1646" y="688.7969"/><text fill="#000000" font-family="sans-serif" font-size="20" font-style="italic" lengthAdjust="spacing" textLength="86" x="1719" y="716.5586">«service»</text><text fill="#000000" font-family="sans-serif" font-size="20" lengthAdjust="spacing" textLength="218" x="1653" y="741.7148">:JobOpeningDTOService</text><text fill="#000000" font-family="sans-serif" font-size="20" font-style="italic" lengthAdjust="spacing" textLength="110" x="1926" y="110.3711">«repository»</text><text fill="#000000" font-family="sans-serif" font-size="20" lengthAdjust="spacing" textLength="186" x="1888" y="135.5273">:CustomerRepository</text><path d="M1966,53.6094 C1966,43.6094 1984,43.6094 1984,43.6094 C1984,43.6094 2002,43.6094 2002,53.6094 L2002,79.6094 C2002,89.6094 1984,89.6094 1984,89.6094 C1984,89.6094 1966,89.6094 1966,79.6094 L1966,53.6094 " fill="#E2E2F0" style="stroke:#181818;stroke-width:1.5;"/><path d="M1966,53.6094 C1966,63.6094 1984,63.6094 1984,63.6094 C1984,63.6094 2002,63.6094 2002,53.6094 " fill="none" style="stroke:#181818;stroke-width:1.5;"/><text fill="#000000" font-family="sans-serif" font-size="20" font-style="italic" lengthAdjust="spacing" textLength="110" x="1926" y="709.5586">«repository»</text><text fill="#000000" font-family="sans-serif" font-size="20" lengthAdjust="spacing" textLength="186" x="1888" y="734.7148">:CustomerRepository</text><path d="M1966,749.1094 C1966,739.1094 1984,739.1094 1984,739.1094 C1984,739.1094 2002,739.1094 2002,749.1094 L2002,775.1094 C2002,785.1094 1984,785.1094 1984,785.1094 C1984,785.1094 1966,785.1094 1966,775.1094 L1966,749.1094 " fill="#E2E2F0" style="stroke:#181818;stroke-width:1.5;"/><path d="M1966,749.1094 C1966,759.1094 1984,759.1094 1984,759.1094 C1984,759.1094 2002,759.1094 2002,749.1094 " fill="none" style="stroke:#181818;stroke-width:1.5;"/><text fill="#000000" font-family="sans-serif" font-size="20" font-style="italic" lengthAdjust="spacing" textLength="110" x="2138" y="110.3711">«repository»</text><text fill="#000000" font-family="sans-serif" font-size="20" lengthAdjust="spacing" textLength="206" x="2090" y="135.5273">:JobOpeningRepository</text><path d="M2178,53.6094 C2178,43.6094 2196,43.6094 2196,43.6094 C2196,43.6094 2214,43.6094 2214,53.6094 L2214,79.6094 C2214,89.6094 2196,89.6094 2196,89.6094 C2196,89.6094 2178,89.6094 2178,79.6094 L2178,53.6094 " fill="#E2E2F0" style="stroke:#181818;stroke-width:1.5;"/><path d="M2178,53.6094 C2178,63.6094 2196,63.6094 2196,63.6094 C2196,63.6094 2214,63.6094 2214,53.6094 " fill="none" style="stroke:#181818;stroke-width:1.5;"/><text fill="#000000" font-family="sans-serif" font-size="20" font-style="italic" lengthAdjust="spacing" textLength="110" x="2138" y="709.5586">«repository»</text><text fill="#000000" font-family="sans-serif" font-size="20" lengthAdjust="spacing" textLength="206" x="2090" y="734.7148">:JobOpeningRepository</text><path d="M2178,749.1094 C2178,739.1094 2196,739.1094 2196,739.1094 C2196,739.1094 2214,739.1094 2214,749.1094 L2214,775.1094 C2214,785.1094 2196,785.1094 2196,785.1094 C2196,785.1094 2178,785.1094 2178,775.1094 L2178,749.1094 " fill="#E2E2F0" style="stroke:#181818;stroke-width:1.5;"/><path d="M2178,749.1094 C2178,759.1094 2196,759.1094 2196,759.1094 C2196,759.1094 2214,759.1094 2214,749.1094 " fill="none" style="stroke:#181818;stroke-width:1.5;"/><rect fill="#E2E2F0" height="64.3125" rx="2.5" ry="2.5" style="stroke:#181818;stroke-width:0.5;" width="105" x="2312" y="74.6094"/><text fill="#000000" font-family="sans-serif" font-size="20" font-style="italic" lengthAdjust="spacing" textLength="88" x="2320.5" y="102.3711">«domain»</text><text fill="#000000" font-family="sans-serif" font-size="20" lengthAdjust="spacing" textLength="91" x="2319" y="127.5273">:Customer</text><rect fill="#E2E2F0" height="64.3125" rx="2.5" ry="2.5" style="stroke:#181818;stroke-width:0.5;" width="105" x="2312" y="688.7969"/><text fill="#000000" font-family="sans-serif" font-size="20" font-style="italic" lengthAdjust="spacing" textLength="88" x="2320.5" y="716.5586">«domain»</text><text fill="#000000" font-family="sans-serif" font-size="20" lengthAdjust="spacing" textLength="91" x="2319" y="741.7148">:Customer</text><rect fill="#E2E2F0" height="64.3125" rx="2.5" ry="2.5" style="stroke:#181818;stroke-width:0.5;" width="125" x="2427" y="74.6094"/><text fill="#000000" font-family="sans-serif" font-size="20" font-style="italic" lengthAdjust="spacing" textLength="88" x="2445.5" y="102.3711">«domain»</text><text fill="#000000" font-family="sans-serif" font-size="20" lengthAdjust="spacing" textLength="111" x="2434" y="127.5273">:JobOpening</text><rect fill="#E2E2F0" height="64.3125" rx="2.5" ry="2.5" style="stroke:#181818;stroke-width:0.5;" width="125" x="2427" y="688.7969"/><text fill="#000000" font-family="sans-serif" font-size="20" font-style="italic" lengthAdjust="spacing" textLength="88" x="2445.5" y="716.5586">«domain»</text><text fill="#000000" font-family="sans-serif" font-size="20" lengthAdjust="spacing" textLength="111" x="2434" y="741.7148">:JobOpening</text><rect fill="#FFFFFF" height="530.875" style="stroke:#181818;stroke-width:1.0;" width="10" x="72.5" y="149.9219"/><rect fill="#FFFFFF" height="415.4063" style="stroke:#181818;stroke-width:1.0;" width="10" x="294.5" y="256.3906"/><rect fill="#FFFFFF" height="30" style="stroke:#181818;stroke-width:1.0;" width="10" x="924.5" y="295.5469"/><rect fill="#FFFFFF" height="267.9375" style="stroke:#181818;stroke-width:1.0;" width="10" x="1185" y="364.7031"/><rect fill="#FFFFFF" height="128.4688" style="stroke:#181818;stroke-width:1.0;" width="10" x="1757" y="473.0156"/><rect fill="#FFFFFF" height="30" style="stroke:#181818;stroke-width:1.0;" width="10" x="2191" y="403.8594"/><rect fill="#FFFFFF" height="30" style="stroke:#181818;stroke-width:1.0;" width="10" x="2484.5" y="556.4844"/><polygon fill="#181818" points="219.5,177.0781,229.5,181.0781,219.5,185.0781,223.5,181.0781" style="stroke:#181818;stroke-width:1.0;"/><line style="stroke:#181818;stroke-width:1.0;" x1="82.5" x2="225.5" y1="181.0781" y2="181.0781"/><text fill="#000000" font-family="sans-serif" font-size="20" font-weight="bold" lengthAdjust="spacing" textLength="11" x="89.5" y="174.6836">1</text><text fill="#000000" font-family="sans-serif" font-size="20" lengthAdjust="spacing" textLength="56" x="104.5" y="174.6836">create</text><rect fill="#E2E2F0" height="64.3125" rx="2.5" ry="2.5" style="stroke:#181818;stroke-width:0.5;" width="136" x="231.5" y="149.9219"/><text fill="#000000" font-family="sans-serif" font-size="20" font-style="italic" lengthAdjust="spacing" textLength="118" x="240.5" y="177.6836">«application»</text><text fill="#000000" font-family="sans-serif" font-size="20" lengthAdjust="spacing" textLength="122" x="238.5" y="202.8398">:XxxController</text><polygon fill="#181818" points="282.5,252.3906,292.5,256.3906,282.5,260.3906,286.5,256.3906" style="stroke:#181818;stroke-width:1.0;"/><line style="stroke:#181818;stroke-width:1.0;" x1="82.5" x2="288.5" y1="256.3906" y2="256.3906"/><text fill="#000000" font-family="sans-serif" font-size="20" font-weight="bold" lengthAdjust="spacing" textLength="11" x="89.5" y="249.9961">2</text><text fill="#000000" font-family="sans-serif" font-size="20" lengthAdjust="spacing" textLength="178" x="104.5" y="249.9961">getJobOpeningList()</text><polygon fill="#181818" points="912.5,291.5469,922.5,295.5469,912.5,299.5469,916.5,295.5469" style="stroke:#181818;stroke-width:1.0;"/><line style="stroke:#181818;stroke-width:1.0;" x1="304.5" x2="918.5" y1="295.5469" y2="295.5469"/><text fill="#000000" font-family="sans-serif" font-size="20" font-weight="bold" lengthAdjust="spacing" textLength="11" x="311.5" y="289.1523">3</text><text fill="#000000" font-family="sans-serif" font-size="20" lengthAdjust="spacing" textLength="586" x="326.5" y="289.1523">loggedinUserWithPermissions(BaseRole.CUSTOMER_MANAGER)</text><polygon fill="#181818" points="1173,360.7031,1183,364.7031,1173,368.7031,1177,364.7031" style="stroke:#181818;stroke-width:1.0;"/><line style="stroke:#181818;stroke-width:1.0;" x1="304.5" x2="1179" y1="364.7031" y2="364.7031"/><text fill="#000000" font-family="sans-serif" font-size="20" font-weight="bold" lengthAdjust="spacing" textLength="11" x="311.5" y="358.3086">4</text><text fill="#000000" font-family="sans-serif" font-size="20" lengthAdjust="spacing" textLength="394" x="326.5" y="358.3086">jobOpeningsOfCustomerManager(username)</text><polygon fill="#181818" points="2179,399.8594,2189,403.8594,2179,407.8594,2183,403.8594" style="stroke:#181818;stroke-width:1.0;"/><line style="stroke:#181818;stroke-width:1.0;" x1="1195" x2="2185" y1="403.8594" y2="403.8594"/><text fill="#000000" font-family="sans-serif" font-size="20" font-weight="bold" lengthAdjust="spacing" textLength="11" x="1202" y="397.4648">5</text><text fill="#000000" font-family="sans-serif" font-size="20" lengthAdjust="spacing" textLength="668" x="1217" y="397.4648">getJobOpeningListMatchingCustomerManager(customerManagerUsername)</text><polygon fill="#181818" points="1745,469.0156,1755,473.0156,1745,477.0156,1749,473.0156" style="stroke:#181818;stroke-width:1.0;"/><line style="stroke:#181818;stroke-width:1.0;" x1="1195" x2="1751" y1="473.0156" y2="473.0156"/><text fill="#000000" font-family="sans-serif" font-size="20" font-weight="bold" lengthAdjust="spacing" textLength="11" x="1202" y="466.6211">6</text><text fill="#000000" font-family="sans-serif" font-size="20" lengthAdjust="spacing" textLength="273" x="1217" y="466.6211">convertToDTO(jobOpeningList)</text><path d="M1636,488.0156 L1722,488.0156 L1722,505.1719 L1712,515.1719 L1636,515.1719 L1636,488.0156 " fill="#EEEEEE" style="stroke:#000000;stroke-width:1.5;"/><rect fill="none" height="106.4688" style="stroke:#000000;stroke-width:1.5;" width="926" x="1636" y="488.0156"/><text fill="#000000" font-family="sans-serif" font-size="20" font-weight="bold" lengthAdjust="spacing" textLength="41" x="1651" y="509.7773">loop</text><text fill="#000000" font-family="sans-serif" font-size="20" font-weight="bold" lengthAdjust="spacing" textLength="213" x="1737" y="510.7773">[for each JobOpening]</text><polygon fill="#181818" points="2472.5,552.4844,2482.5,556.4844,2472.5,560.4844,2476.5,556.4844" style="stroke:#181818;stroke-width:1.0;"/><line style="stroke:#181818;stroke-width:1.0;" x1="1767" x2="2478.5" y1="556.4844" y2="556.4844"/><text fill="#000000" font-family="sans-serif" font-size="20" font-weight="bold" lengthAdjust="spacing" textLength="11" x="1774" y="550.0898">7</text><text fill="#000000" font-family="sans-serif" font-size="20" lengthAdjust="spacing" textLength="73" x="1789" y="550.0898">toDTO()</text><polygon fill="#181818" points="315.5,628.6406,305.5,632.6406,315.5,636.6406,311.5,632.6406" style="stroke:#181818;stroke-width:1.0;"/><line style="stroke:#181818;stroke-width:1.0;stroke-dasharray:2.0,2.0;" x1="309.5" x2="1189" y1="632.6406" y2="632.6406"/><text fill="#000000" font-family="sans-serif" font-size="20" font-weight="bold" lengthAdjust="spacing" textLength="11" x="321.5" y="626.2461">8</text><text fill="#000000" font-family="sans-serif" font-size="20" lengthAdjust="spacing" textLength="172" x="336.5" y="626.2461">jobOpeningListDTO</text><polygon fill="#181818" points="93.5,667.7969,83.5,671.7969,93.5,675.7969,89.5,671.7969" style="stroke:#181818;stroke-width:1.0;"/><line style="stroke:#181818;stroke-width:1.0;stroke-dasharray:2.0,2.0;" x1="87.5" x2="298.5" y1="671.7969" y2="671.7969"/><text fill="#000000" font-family="sans-serif" font-size="20" font-weight="bold" lengthAdjust="spacing" textLength="11" x="99.5" y="665.4023">9</text><text fill="#000000" font-family="sans-serif" font-size="20" lengthAdjust="spacing" textLength="172" x="114.5" y="665.4023">jobOpeningListDTO</text><!--SRC=[XLHDRzf04BtxLwnoAKGYL3rQ4H8bj0M5EhAnMkM25dimcwnttTqnIlFhEruxs2Q48Y7XcVSnmpompq8LtF1SwkGPKfR2ZfSIlsc5aNW5zkMpzscFM5X_F2uaLrZcyYRH-TZ2dn9K0gDKy8pudeS29R1xOP4jzRPw1mKeeJBBHYnguEpk3SvBrAhCjs0yZoP0aOY2zDcL__lb9LvSCMvPl62tjuK12mev2gqca_VO6Srgj9HW76Us3k-9nOj2YkGyQLhYNXlnwheHc8D8m76dyVh78v5jNNj7R7TQSSKpo6ckBdyPhA8Bz5bfKUTWpfDd5xcjzTqww7j66ohrg2b7lkKMEfuX5DeArEPlOxO9vmyLonmRVM9hU49T1cUfvrTjp0YSwfmBTM6lHhmBfPGaA0uSWQBWUHI7qSGT-FhQPua1QdIhp6SPOAjOPN4mR3KgZESnUZaqiUg3-qpgB8DKg9Y-mry2zmzWSc4jnSCEljBt4Me9DxCuMWUhURXPJNzEly_3ePCwgZijLqhXfDZph4BYiwVsvn7i-i4mWvB6K3o74uUAMMkve3cj-XPd5bznJFRq-LGxwJ_77ravuTDrtifUEq2TFZg7LWSmkDRqE7ZgZT8vGOEljv1Q5sod3IE3VUSFmpNhDMjrPqGUwCI7ntv7zbZhJUkge59dvVLQpHpr8cs0-fDNa1whEa1zIAB4Y__WNU3-0G00]--></g></svg>