<?xml version="1.0" encoding="UTF-8" standalone="no"?><svg xmlns="http://www.w3.org/2000/svg" xmlns:xlink="http://www.w3.org/1999/xlink" contentStyleType="text/css" height="1348px" preserveAspectRatio="none" style="width:2615px;height:1348px;background:#FFFFFF;" version="1.1" viewBox="0 0 2615 1348" width="2615px" zoomAndPan="magnify"><defs/><g><text fill="#000000" font-family="sans-serif" font-size="14" font-weight="bold" lengthAdjust="spacing" textLength="335" x="1141" y="29.5332">TCP Connection Sequence Diagram [Shared SD]</text><rect fill="#FFFFFF" height="1150.5313" style="stroke:#181818;stroke-width:1.0;" width="10" x="87" y="118.9219"/><rect fill="#FFFFFF" height="69.1563" style="stroke:#181818;stroke-width:1.0;" width="10" x="611" y="150.0781"/><rect fill="#FFFFFF" height="996.0625" style="stroke:#181818;stroke-width:1.0;" width="10" x="611" y="258.3906"/><rect fill="#FFFFFF" height="30" style="stroke:#181818;stroke-width:1.0;" width="10" x="915" y="189.2344"/><rect fill="#FFFFFF" height="917.75" style="stroke:#181818;stroke-width:1.0;" width="10" x="1274" y="297.5469"/><rect fill="#FFFFFF" height="39.1563" style="stroke:#181818;stroke-width:1.0;" width="10" x="1765.5" y="388.8594"/><rect fill="#FFFFFF" height="731.125" style="stroke:#181818;stroke-width:1.0;" width="10" x="2099.5" y="438.0156"/><rect fill="#FFFFFF" height="337.5625" style="stroke:#181818;stroke-width:1.0;" width="10" x="2489.5" y="642.9531"/><rect fill="none" height="604.5" style="stroke:#000000;stroke-width:1.5;" width="2598" x="10" y="657.9531"/><line style="stroke:#181818;stroke-width:0.5;stroke-dasharray:5.0,5.0;" x1="92" x2="92" y1="108.9219" y2="1279.4531"/><line style="stroke:#181818;stroke-width:0.5;stroke-dasharray:5.0,5.0;" x1="616" x2="616" y1="108.9219" y2="1279.4531"/><line style="stroke:#181818;stroke-width:0.5;stroke-dasharray:5.0,5.0;" x1="919.5" x2="919.5" y1="108.9219" y2="1279.4531"/><line style="stroke:#181818;stroke-width:0.5;stroke-dasharray:5.0,5.0;" x1="1278.5" x2="1278.5" y1="108.9219" y2="1279.4531"/><line style="stroke:#181818;stroke-width:0.5;stroke-dasharray:5.0,5.0;" x1="1629" x2="1629" y1="482.0938" y2="1279.4531"/><line style="stroke:#181818;stroke-width:0.5;stroke-dasharray:5.0,5.0;" x1="1770" x2="1770" y1="108.9219" y2="1279.4531"/><line style="stroke:#181818;stroke-width:0.5;stroke-dasharray:5.0,5.0;" x1="2104.5" x2="2104.5" y1="431.9375" y2="1279.4531"/><line style="stroke:#181818;stroke-width:0.5;stroke-dasharray:5.0,5.0;" x1="2494" x2="2494" y1="108.9219" y2="1279.4531"/><rect fill="#E2E2F0" height="64.3125" rx="2.5" ry="2.5" style="stroke:#181818;stroke-width:0.5;" width="144" x="20" y="43.6094"/><text fill="#000000" font-family="sans-serif" font-size="20" lengthAdjust="spacing" textLength="130" x="27" y="71.3711">«presentation»</text><text fill="#000000" font-family="sans-serif" font-size="20" lengthAdjust="spacing" textLength="56" x="64" y="96.5273">:XxxUI</text><rect fill="#E2E2F0" height="64.3125" rx="2.5" ry="2.5" style="stroke:#181818;stroke-width:0.5;" width="144" x="20" y="1278.4531"/><text fill="#000000" font-family="sans-serif" font-size="20" lengthAdjust="spacing" textLength="130" x="27" y="1306.2148">«presentation»</text><text fill="#000000" font-family="sans-serif" font-size="20" lengthAdjust="spacing" textLength="56" x="64" y="1331.3711">:XxxUI</text><rect fill="#E2E2F0" height="64.3125" rx="2.5" ry="2.5" style="stroke:#181818;stroke-width:0.5;" width="136" x="548" y="43.6094"/><text fill="#000000" font-family="sans-serif" font-size="20" lengthAdjust="spacing" textLength="115" x="558.5" y="71.3711">«application»</text><text fill="#000000" font-family="sans-serif" font-size="20" lengthAdjust="spacing" textLength="122" x="555" y="96.5273">:XxxController</text><rect fill="#E2E2F0" height="64.3125" rx="2.5" ry="2.5" style="stroke:#181818;stroke-width:0.5;" width="136" x="548" y="1278.4531"/><text fill="#000000" font-family="sans-serif" font-size="20" lengthAdjust="spacing" textLength="115" x="558.5" y="1306.2148">«application»</text><text fill="#000000" font-family="sans-serif" font-size="20" lengthAdjust="spacing" textLength="122" x="555" y="1331.3711">:XxxController</text><rect fill="#E2E2F0" height="64.3125" rx="2.5" ry="2.5" style="stroke:#181818;stroke-width:0.5;" width="197" x="821.5" y="43.6094"/><text fill="#000000" font-family="sans-serif" font-size="20" font-style="italic" lengthAdjust="spacing" textLength="86" x="877" y="71.3711">«service»</text><text fill="#000000" font-family="sans-serif" font-size="20" lengthAdjust="spacing" textLength="183" x="828.5" y="96.5273">:AuthorizationService</text><rect fill="#E2E2F0" height="64.3125" rx="2.5" ry="2.5" style="stroke:#181818;stroke-width:0.5;" width="197" x="821.5" y="1278.4531"/><text fill="#000000" font-family="sans-serif" font-size="20" font-style="italic" lengthAdjust="spacing" textLength="86" x="877" y="1306.2148">«service»</text><text fill="#000000" font-family="sans-serif" font-size="20" lengthAdjust="spacing" textLength="183" x="828.5" y="1331.3711">:AuthorizationService</text><rect fill="#E2E2F0" height="64.3125" rx="2.5" ry="2.5" style="stroke:#181818;stroke-width:0.5;" width="263" x="1147.5" y="43.6094"/><text fill="#000000" font-family="sans-serif" font-size="20" lengthAdjust="spacing" textLength="84" x="1237" y="71.3711">«service»</text><text fill="#000000" font-family="sans-serif" font-size="20" lengthAdjust="spacing" textLength="249" x="1154.5" y="96.5273">:FollowUpConnectionService</text><rect fill="#E2E2F0" height="64.3125" rx="2.5" ry="2.5" style="stroke:#181818;stroke-width:0.5;" width="263" x="1147.5" y="1278.4531"/><text fill="#000000" font-family="sans-serif" font-size="20" lengthAdjust="spacing" textLength="84" x="1237" y="1306.2148">«service»</text><text fill="#000000" font-family="sans-serif" font-size="20" lengthAdjust="spacing" textLength="249" x="1154.5" y="1331.3711">:FollowUpConnectionService</text><rect fill="#E2E2F0" height="39.1563" rx="2.5" ry="2.5" style="stroke:#181818;stroke-width:0.5;" width="104" x="1577" y="1278.4531"/><text fill="#000000" font-family="sans-serif" font-size="20" lengthAdjust="spacing" textLength="90" x="1584" y="1306.2148">:DataDTO</text><rect fill="#E2E2F0" height="39.1563" rx="2.5" ry="2.5" style="stroke:#181818;stroke-width:0.5;" width="159" x="1691" y="68.7656"/><text fill="#000000" font-family="sans-serif" font-size="20" lengthAdjust="spacing" textLength="145" x="1698" y="96.5273">:FollowUpServer</text><rect fill="#E2E2F0" height="39.1563" rx="2.5" ry="2.5" style="stroke:#181818;stroke-width:0.5;" width="159" x="1691" y="1278.4531"/><text fill="#000000" font-family="sans-serif" font-size="20" lengthAdjust="spacing" textLength="145" x="1698" y="1306.2148">:FollowUpServer</text><rect fill="#E2E2F0" height="39.1563" rx="2.5" ry="2.5" style="stroke:#181818;stroke-width:0.5;" width="228" x="1990.5" y="1278.4531"/><text fill="#000000" font-family="sans-serif" font-size="20" lengthAdjust="spacing" textLength="214" x="1997.5" y="1306.2148">:ClientConnectionThread</text><rect fill="#E2E2F0" height="64.3125" rx="2.5" ry="2.5" style="stroke:#181818;stroke-width:0.5;" width="207" x="2391" y="43.6094"/><text fill="#000000" font-family="sans-serif" font-size="20" font-style="italic" lengthAdjust="spacing" textLength="86" x="2451.5" y="71.3711">«service»</text><text fill="#000000" font-family="sans-serif" font-size="20" lengthAdjust="spacing" textLength="193" x="2398" y="96.5273">:AuthenticationService</text><rect fill="#E2E2F0" height="64.3125" rx="2.5" ry="2.5" style="stroke:#181818;stroke-width:0.5;" width="207" x="2391" y="1278.4531"/><text fill="#000000" font-family="sans-serif" font-size="20" font-style="italic" lengthAdjust="spacing" textLength="86" x="2451.5" y="1306.2148">«service»</text><text fill="#000000" font-family="sans-serif" font-size="20" lengthAdjust="spacing" textLength="193" x="2398" y="1331.3711">:AuthenticationService</text><rect fill="#FFFFFF" height="1150.5313" style="stroke:#181818;stroke-width:1.0;" width="10" x="87" y="118.9219"/><rect fill="#FFFFFF" height="69.1563" style="stroke:#181818;stroke-width:1.0;" width="10" x="611" y="150.0781"/><rect fill="#FFFFFF" height="996.0625" style="stroke:#181818;stroke-width:1.0;" width="10" x="611" y="258.3906"/><rect fill="#FFFFFF" height="30" style="stroke:#181818;stroke-width:1.0;" width="10" x="915" y="189.2344"/><rect fill="#FFFFFF" height="917.75" style="stroke:#181818;stroke-width:1.0;" width="10" x="1274" y="297.5469"/><rect fill="#FFFFFF" height="39.1563" style="stroke:#181818;stroke-width:1.0;" width="10" x="1765.5" y="388.8594"/><rect fill="#FFFFFF" height="731.125" style="stroke:#181818;stroke-width:1.0;" width="10" x="2099.5" y="438.0156"/><rect fill="#FFFFFF" height="337.5625" style="stroke:#181818;stroke-width:1.0;" width="10" x="2489.5" y="642.9531"/><polygon fill="#181818" points="599,146.0781,609,150.0781,599,154.0781,603,150.0781" style="stroke:#181818;stroke-width:1.0;"/><line style="stroke:#181818;stroke-width:1.0;" x1="97" x2="605" y1="150.0781" y2="150.0781"/><text fill="#000000" font-family="sans-serif" font-size="20" font-weight="bold" lengthAdjust="spacing" textLength="11" x="104" y="143.6836">1</text><text fill="#000000" font-family="sans-serif" font-size="20" lengthAdjust="spacing" textLength="210" x="119" y="143.6836">getSessionCredentials()</text><polygon fill="#181818" points="903,185.2344,913,189.2344,903,193.2344,907,189.2344" style="stroke:#181818;stroke-width:1.0;"/><line style="stroke:#181818;stroke-width:1.0;" x1="621" x2="909" y1="189.2344" y2="189.2344"/><text fill="#000000" font-family="sans-serif" font-size="20" font-weight="bold" lengthAdjust="spacing" textLength="11" x="628" y="182.8398">2</text><text fill="#000000" font-family="sans-serif" font-size="20" lengthAdjust="spacing" textLength="260" x="643" y="182.8398">theSession.authenticatedUser</text><polygon fill="#181818" points="599,254.3906,609,258.3906,599,262.3906,603,258.3906" style="stroke:#181818;stroke-width:1.0;"/><line style="stroke:#181818;stroke-width:1.0;" x1="97" x2="605" y1="258.3906" y2="258.3906"/><text fill="#000000" font-family="sans-serif" font-size="20" font-weight="bold" lengthAdjust="spacing" textLength="11" x="104" y="251.9961">3</text><text fill="#000000" font-family="sans-serif" font-size="20" lengthAdjust="spacing" textLength="480" x="119" y="251.9961">getconnection(username, password, PORT_NUMBER)</text><polygon fill="#181818" points="1262,293.5469,1272,297.5469,1262,301.5469,1266,297.5469" style="stroke:#181818;stroke-width:1.0;"/><line style="stroke:#181818;stroke-width:1.0;" x1="621" x2="1268" y1="297.5469" y2="297.5469"/><text fill="#000000" font-family="sans-serif" font-size="20" font-weight="bold" lengthAdjust="spacing" textLength="11" x="628" y="291.1523">4</text><text fill="#000000" font-family="sans-serif" font-size="20" lengthAdjust="spacing" textLength="619" x="643" y="291.1523">establishConnection(username, password, serverIP, PORT_NUMBER)</text><line style="stroke:#181818;stroke-width:1.0;stroke-dasharray:2.0,2.0;" x1="1284" x2="1326" y1="336.7031" y2="336.7031"/><line style="stroke:#181818;stroke-width:1.0;stroke-dasharray:2.0,2.0;" x1="1326" x2="1326" y1="336.7031" y2="349.7031"/><line style="stroke:#181818;stroke-width:1.0;stroke-dasharray:2.0,2.0;" x1="1285" x2="1326" y1="349.7031" y2="349.7031"/><polygon fill="#181818" points="1295,345.7031,1285,349.7031,1295,353.7031,1291,349.7031" style="stroke:#181818;stroke-width:1.0;"/><text fill="#000000" font-family="sans-serif" font-size="20" font-weight="bold" lengthAdjust="spacing" textLength="11" x="1291" y="330.3086">5</text><text fill="#000000" font-family="sans-serif" font-size="20" lengthAdjust="spacing" textLength="307" x="1306" y="330.3086">socket(serverIP, PORT_NUMBER)</text><polygon fill="#181818" points="1753.5,384.8594,1763.5,388.8594,1753.5,392.8594,1757.5,388.8594" style="stroke:#181818;stroke-width:1.0;"/><line style="stroke:#181818;stroke-width:1.0;stroke-dasharray:2.0,2.0;" x1="1284" x2="1759.5" y1="388.8594" y2="388.8594"/><text fill="#000000" font-family="sans-serif" font-size="20" font-weight="bold" lengthAdjust="spacing" textLength="11" x="1291" y="382.4648">6</text><text fill="#000000" font-family="sans-serif" font-size="20" lengthAdjust="spacing" textLength="6" x="1306" y="382.4648"> </text><polygon fill="#181818" points="1978.5,424.0156,1988.5,428.0156,1978.5,432.0156,1982.5,428.0156" style="stroke:#181818;stroke-width:1.0;"/><line style="stroke:#181818;stroke-width:1.0;" x1="1770.5" x2="1984.5" y1="428.0156" y2="428.0156"/><text fill="#000000" font-family="sans-serif" font-size="20" font-weight="bold" lengthAdjust="spacing" textLength="11" x="1777.5" y="421.6211">7</text><text fill="#000000" font-family="sans-serif" font-size="20" lengthAdjust="spacing" textLength="176" x="1792.5" y="421.6211">create(clientSocket)</text><rect fill="#E2E2F0" height="39.1563" rx="2.5" ry="2.5" style="stroke:#181818;stroke-width:0.5;" width="228" x="1990.5" y="396.8594"/><text fill="#000000" font-family="sans-serif" font-size="20" lengthAdjust="spacing" textLength="214" x="1997.5" y="424.6211">:ClientConnectionThread</text><polygon fill="#181818" points="1565,474.1719,1575,478.1719,1565,482.1719,1569,478.1719" style="stroke:#181818;stroke-width:1.0;"/><line style="stroke:#181818;stroke-width:1.0;" x1="1284" x2="1571" y1="478.1719" y2="478.1719"/><text fill="#000000" font-family="sans-serif" font-size="20" font-weight="bold" lengthAdjust="spacing" textLength="11" x="1291" y="471.7773">8</text><text fill="#000000" font-family="sans-serif" font-size="20" lengthAdjust="spacing" textLength="254" x="1306" y="471.7773">create(username, password)</text><rect fill="#E2E2F0" height="39.1563" rx="2.5" ry="2.5" style="stroke:#181818;stroke-width:0.5;" width="104" x="1577" y="447.0156"/><text fill="#000000" font-family="sans-serif" font-size="20" lengthAdjust="spacing" textLength="90" x="1584" y="474.7773">:DataDTO</text><polygon fill="#181818" points="2087.5,524.3281,2097.5,528.3281,2087.5,532.3281,2091.5,528.3281" style="stroke:#181818;stroke-width:1.0;"/><line style="stroke:#181818;stroke-width:1.0;" x1="1284" x2="2093.5" y1="528.3281" y2="528.3281"/><text fill="#000000" font-family="sans-serif" font-size="20" font-weight="bold" lengthAdjust="spacing" textLength="11" x="1291" y="521.9336">9</text><text fill="#000000" font-family="sans-serif" font-size="20" lengthAdjust="spacing" textLength="288" x="1306" y="521.9336">authenticationProtocol(dataDTO)</text><polygon fill="#181818" points="2477.5,638.9531,2487.5,642.9531,2477.5,646.9531,2481.5,642.9531" style="stroke:#181818;stroke-width:1.0;"/><line style="stroke:#181818;stroke-width:1.0;" x1="2109.5" x2="2483.5" y1="642.9531" y2="642.9531"/><text fill="#000000" font-family="sans-serif" font-size="20" font-weight="bold" lengthAdjust="spacing" textLength="22" x="2116.5" y="598.8242">10</text><text fill="#000000" font-family="sans-serif" font-size="20" lengthAdjust="spacing" textLength="303" x="2142.5" y="561.0898">authenticate(username, password,</text><text fill="#000000" font-family="sans-serif" font-size="20" lengthAdjust="spacing" textLength="329" x="2148.5" y="586.2461">BaseRoles.CUSTOMER_MANAGER,</text><text fill="#000000" font-family="sans-serif" font-size="20" lengthAdjust="spacing" textLength="219" x="2148.5" y="611.4023">BaseRoles.CUSTOMER,</text><text fill="#000000" font-family="sans-serif" font-size="20" lengthAdjust="spacing" textLength="220" x="2148.5" y="636.5586">BaseRoles.CANDIDATE)</text><path d="M10,657.9531 L78,657.9531 L78,675.1094 L68,685.1094 L10,685.1094 L10,657.9531 " fill="#EEEEEE" style="stroke:#000000;stroke-width:1.5;"/><rect fill="none" height="604.5" style="stroke:#000000;stroke-width:1.5;" width="2598" x="10" y="657.9531"/><text fill="#000000" font-family="sans-serif" font-size="20" font-weight="bold" lengthAdjust="spacing" textLength="23" x="25" y="679.7148">alt</text><text fill="#000000" font-family="sans-serif" font-size="20" font-weight="bold" lengthAdjust="spacing" textLength="257" x="93" y="680.7148">[authentication successful]</text><polygon fill="#181818" points="2120.5,722.4219,2110.5,726.4219,2120.5,730.4219,2116.5,726.4219" style="stroke:#181818;stroke-width:1.0;"/><line style="stroke:#181818;stroke-width:1.0;stroke-dasharray:2.0,2.0;" x1="2114.5" x2="2488.5" y1="726.4219" y2="726.4219"/><text fill="#000000" font-family="sans-serif" font-size="20" font-weight="bold" lengthAdjust="spacing" textLength="22" x="2126.5" y="720.0273">11</text><text fill="#000000" font-family="sans-serif" font-size="20" lengthAdjust="spacing" textLength="34" x="2152.5" y="720.0273">true</text><line style="stroke:#181818;stroke-width:1.0;stroke-dasharray:2.0,2.0;" x1="2109.5" x2="2151.5" y1="783.7344" y2="783.7344"/><line style="stroke:#181818;stroke-width:1.0;stroke-dasharray:2.0,2.0;" x1="2151.5" x2="2151.5" y1="783.7344" y2="796.7344"/><line style="stroke:#181818;stroke-width:1.0;stroke-dasharray:2.0,2.0;" x1="2110.5" x2="2151.5" y1="796.7344" y2="796.7344"/><polygon fill="#181818" points="2120.5,792.7344,2110.5,796.7344,2120.5,800.7344,2116.5,796.7344" style="stroke:#181818;stroke-width:1.0;"/><text fill="#000000" font-family="sans-serif" font-size="20" font-weight="bold" lengthAdjust="spacing" textLength="22" x="2116.5" y="777.3398">12</text><text fill="#000000" font-family="sans-serif" font-size="20" lengthAdjust="spacing" textLength="156" x="2142.5" y="777.3398">sOut.writeByte(2)</text><path d="M1757,739.4219 L1757,799.4219 L2094,799.4219 L2094,749.4219 L2084,739.4219 L1757,739.4219 " fill="#FEFFDD" style="stroke:#181818;stroke-width:0.5;"/><path d="M2084,739.4219 L2084,749.4219 L2094,749.4219 L2084,739.4219 " fill="#FEFFDD" style="stroke:#181818;stroke-width:0.5;"/><text fill="#000000" font-family="sans-serif" font-size="20" lengthAdjust="spacing" textLength="302" x="1763" y="765.1836">sOut an ObjectOutputStream from</text><text fill="#000000" font-family="sans-serif" font-size="20" lengthAdjust="spacing" textLength="316" x="1763" y="790.3398">the connection's sock OutputStream</text><path d="M2310,752 L2310,787 L2500,787 L2500,762 L2490,752 L2310,752 " fill="#FEFFDD" style="stroke:#181818;stroke-width:0.5;"/><path d="M2490,752 L2490,762 L2500,762 L2490,752 " fill="#FEFFDD" style="stroke:#181818;stroke-width:0.5;"/><text fill="#000000" font-family="sans-serif" font-size="20" lengthAdjust="spacing" textLength="169" x="2316" y="777.7617">2 -&gt; ACK response</text><polygon fill="#181818" points="1295,831.8906,1285,835.8906,1295,839.8906,1291,835.8906" style="stroke:#181818;stroke-width:1.0;"/><line style="stroke:#181818;stroke-width:1.0;stroke-dasharray:2.0,2.0;" x1="1289" x2="2098.5" y1="835.8906" y2="835.8906"/><text fill="#000000" font-family="sans-serif" font-size="20" font-weight="bold" lengthAdjust="spacing" textLength="22" x="1301" y="829.4961">13</text><text fill="#000000" font-family="sans-serif" font-size="20" lengthAdjust="spacing" textLength="6" x="1327" y="829.4961"> </text><polygon fill="#181818" points="632,871.0469,622,875.0469,632,879.0469,628,875.0469" style="stroke:#181818;stroke-width:1.0;"/><line style="stroke:#181818;stroke-width:1.0;stroke-dasharray:2.0,2.0;" x1="626" x2="1273" y1="875.0469" y2="875.0469"/><text fill="#000000" font-family="sans-serif" font-size="20" font-weight="bold" lengthAdjust="spacing" textLength="22" x="638" y="868.6523">14</text><text fill="#000000" font-family="sans-serif" font-size="20" lengthAdjust="spacing" textLength="34" x="664" y="868.6523">true</text><polygon fill="#181818" points="108,910.2031,98,914.2031,108,918.2031,104,914.2031" style="stroke:#181818;stroke-width:1.0;"/><line style="stroke:#181818;stroke-width:1.0;stroke-dasharray:2.0,2.0;" x1="102" x2="610" y1="914.2031" y2="914.2031"/><text fill="#000000" font-family="sans-serif" font-size="20" font-weight="bold" lengthAdjust="spacing" textLength="22" x="114" y="907.8086">15</text><text fill="#000000" font-family="sans-serif" font-size="20" lengthAdjust="spacing" textLength="34" x="140" y="907.8086">true</text><line style="stroke:#000000;stroke-width:1.0;stroke-dasharray:2.0,2.0;" x1="10" x2="2608" y1="923.2031" y2="923.2031"/><text fill="#000000" font-family="sans-serif" font-size="20" font-weight="bold" lengthAdjust="spacing" textLength="206" x="15" y="943.9648">[authentication failed]</text><polygon fill="#181818" points="2120.5,976.5156,2110.5,980.5156,2120.5,984.5156,2116.5,980.5156" style="stroke:#181818;stroke-width:1.0;"/><line style="stroke:#181818;stroke-width:1.0;stroke-dasharray:2.0,2.0;" x1="2114.5" x2="2493.5" y1="980.5156" y2="980.5156"/><text fill="#000000" font-family="sans-serif" font-size="20" font-weight="bold" lengthAdjust="spacing" textLength="22" x="2126.5" y="974.1211">16</text><text fill="#000000" font-family="sans-serif" font-size="20" lengthAdjust="spacing" textLength="42" x="2152.5" y="974.1211">false</text><line style="stroke:#181818;stroke-width:1.0;stroke-dasharray:2.0,2.0;" x1="2109.5" x2="2151.5" y1="1019.6719" y2="1019.6719"/><line style="stroke:#181818;stroke-width:1.0;stroke-dasharray:2.0,2.0;" x1="2151.5" x2="2151.5" y1="1019.6719" y2="1032.6719"/><line style="stroke:#181818;stroke-width:1.0;stroke-dasharray:2.0,2.0;" x1="2110.5" x2="2151.5" y1="1032.6719" y2="1032.6719"/><polygon fill="#181818" points="2120.5,1028.6719,2110.5,1032.6719,2120.5,1036.6719,2116.5,1032.6719" style="stroke:#181818;stroke-width:1.0;"/><text fill="#000000" font-family="sans-serif" font-size="20" font-weight="bold" lengthAdjust="spacing" textLength="22" x="2116.5" y="1013.2773">17</text><text fill="#000000" font-family="sans-serif" font-size="20" lengthAdjust="spacing" textLength="156" x="2142.5" y="1013.2773">sOut.writeByte(3)</text><path d="M2310,997.0156 L2310,1032.0156 L2501,1032.0156 L2501,1007.0156 L2491,997.0156 L2310,997.0156 " fill="#FEFFDD" style="stroke:#181818;stroke-width:0.5;"/><path d="M2491,997.0156 L2491,1007.0156 L2501,1007.0156 L2491,997.0156 " fill="#FEFFDD" style="stroke:#181818;stroke-width:0.5;"/><text fill="#000000" font-family="sans-serif" font-size="20" lengthAdjust="spacing" textLength="170" x="2316" y="1022.7773">3 -&gt; ERR response</text><polygon fill="#181818" points="1295,1067.8281,1285,1071.8281,1295,1075.8281,1291,1071.8281" style="stroke:#181818;stroke-width:1.0;"/><line style="stroke:#181818;stroke-width:1.0;stroke-dasharray:2.0,2.0;" x1="1289" x2="2098.5" y1="1071.8281" y2="1071.8281"/><text fill="#000000" font-family="sans-serif" font-size="20" font-weight="bold" lengthAdjust="spacing" textLength="22" x="1301" y="1065.4336">18</text><text fill="#000000" font-family="sans-serif" font-size="20" lengthAdjust="spacing" textLength="6" x="1327" y="1065.4336"> </text><line style="stroke:#181818;stroke-width:1.0;" x1="2109.5" x2="2151.5" y1="1110.9844" y2="1110.9844"/><line style="stroke:#181818;stroke-width:1.0;" x1="2151.5" x2="2151.5" y1="1110.9844" y2="1123.9844"/><line style="stroke:#181818;stroke-width:1.0;" x1="2110.5" x2="2151.5" y1="1123.9844" y2="1123.9844"/><polygon fill="#181818" points="2120.5,1119.9844,2110.5,1123.9844,2120.5,1127.9844,2116.5,1123.9844" style="stroke:#181818;stroke-width:1.0;"/><text fill="#000000" font-family="sans-serif" font-size="20" font-weight="bold" lengthAdjust="spacing" textLength="22" x="2116.5" y="1104.5898">19</text><text fill="#000000" font-family="sans-serif" font-size="20" lengthAdjust="spacing" textLength="172" x="2142.5" y="1104.5898">clientSocket.close()</text><line style="stroke:#181818;stroke-width:1.0;stroke-dasharray:2.0,2.0;" x1="1284" x2="1326" y1="1168.1406" y2="1168.1406"/><line style="stroke:#181818;stroke-width:1.0;stroke-dasharray:2.0,2.0;" x1="1326" x2="1326" y1="1168.1406" y2="1181.1406"/><line style="stroke:#181818;stroke-width:1.0;stroke-dasharray:2.0,2.0;" x1="1279" x2="1326" y1="1181.1406" y2="1181.1406"/><polygon fill="#181818" points="1289,1177.1406,1279,1181.1406,1289,1185.1406,1285,1181.1406" style="stroke:#181818;stroke-width:1.0;"/><text fill="#000000" font-family="sans-serif" font-size="20" font-weight="bold" lengthAdjust="spacing" textLength="22" x="1291" y="1161.7461">20</text><text fill="#000000" font-family="sans-serif" font-size="20" lengthAdjust="spacing" textLength="124" x="1317" y="1161.7461">socket.close()</text><polygon fill="#181818" points="632,1211.2969,622,1215.2969,632,1219.2969,628,1215.2969" style="stroke:#181818;stroke-width:1.0;"/><line style="stroke:#181818;stroke-width:1.0;stroke-dasharray:2.0,2.0;" x1="626" x2="1278" y1="1215.2969" y2="1215.2969"/><text fill="#000000" font-family="sans-serif" font-size="20" font-weight="bold" lengthAdjust="spacing" textLength="22" x="638" y="1208.9023">21</text><text fill="#000000" font-family="sans-serif" font-size="20" lengthAdjust="spacing" textLength="42" x="664" y="1208.9023">false</text><polygon fill="#181818" points="108,1250.4531,98,1254.4531,108,1258.4531,104,1254.4531" style="stroke:#181818;stroke-width:1.0;"/><line style="stroke:#181818;stroke-width:1.0;stroke-dasharray:2.0,2.0;" x1="102" x2="615" y1="1254.4531" y2="1254.4531"/><text fill="#000000" font-family="sans-serif" font-size="20" font-weight="bold" lengthAdjust="spacing" textLength="22" x="114" y="1248.0586">22</text><text fill="#000000" font-family="sans-serif" font-size="20" lengthAdjust="spacing" textLength="42" x="140" y="1248.0586">false</text><!--SRC=[hLNRRjim37ttLmXzMLAqmT2-1K60r77NO6qJ-38CMuT2jPd6go9vajpRru-M7L_aDC20-SccU7Z8Gr9MJodFgAHR9k8dI4W2QvepVIcu3j9t86UV7KUdcW49tHLn1USGwrHm4i2V77WCP9xIHyIJdy66IemGp7yv3eRKQPncb6joD9ba4XHmJGlaT7h7nzzVNwF54Q6AH0lRcMOPI-EEB_9gAHW3QJ1kw5ztKUDPhZT2fky65e1yJcCmlhCelFf19XDLsgRJNdBr2N9T8ebuYRAcq7QimXh8PujwJZMTXqlZKRrR7hkeHQogXC3pltc-vUUo55LgkCED19gKrDUByChtPdDdJ-48gWIpA-yMJdCjUBvz08dloF1CDHGDSA85EPqQMScOF88EG2cCvc8_YzYKgS6mGHZv7UEDg5BWCS4qAjY8DZb14c423TPuEmbOXhQb3D_BAQvb6UGOajCjd92CAlKYP792Lai_lB-DRYuylvSgmMUNRjL3Z0bAqmUMgerxEB8oNLkiB8uYQCDJJKP9LL6STkXKiM1wS21Q6rVDHuUaiXbZyPJVfgZTT1mV8rECKwDX49jf2Wpji0OrATSJjJjgzQ1DLQSrtOrtcwMlsB07gwaGHZlpkf92YrYmGL96heIe_QlvwkBsaPxSSN915VY2WHgvKH0kRpp__cPsE_lY-VjFBUliThwOpqBFQct1NrP4cRRI9ogFOnpwTSvg5Ol7v7ngLQvb3atpMZLQVcgPwz6BJ3LSl66jPqtlkC1y6AnrRIby2ULa-V0R9nW_ibm76Zkp9MifjhKV9asQ1Vgap3IIjd_j2ZmnH4wNLgQFcuRtp7J6_KhmOiy4Lt00RbNQtfJUjfJRRYbbDXTFyKPedm5JOFTZJLC6IOFTsuWrtcUmR-gRLlzJXyw7XwGwBwJoVFz_IDNUYtP2xLKVnKme60m_KDYwZshlFNBqRuWzlVfGp7xsdJv-Z2kkx9qyk7ATVmF-hFu2]--></g></svg>