<?xml version="1.0" encoding="UTF-8" standalone="no"?><svg xmlns="http://www.w3.org/2000/svg" xmlns:xlink="http://www.w3.org/1999/xlink" contentStyleType="text/css" height="1120px" preserveAspectRatio="none" style="width:2916px;height:1120px;background:#FFFFFF;" version="1.1" viewBox="0 0 2916 1120" width="2916px" zoomAndPan="magnify"><defs/><g><text fill="#000000" font-family="sans-serif" font-size="14" font-weight="bold" lengthAdjust="spacing" textLength="135" x="1383.5" y="24.5332">2003 Class Diagram</text><!--class AbstractUI--><g id="elem_AbstractUI"><rect codeLine="5" fill="#F1F1F1" height="76.3125" id="AbstractUI" rx="2.5" ry="2.5" style="stroke:#181818;stroke-width:0.5;" width="125" x="2255.5" y="310.1094"/><ellipse cx="2271.5" cy="327.6875" fill="#B4A7E5" rx="12" ry="12" style="stroke:#181818;stroke-width:1.0;"/><path d="M2272.5,323.8594 L2272.5,331.6875 L2274.5313,331.6875 Q2275.25,331.6875 2275.5469,331.9688 Q2275.8594,332.2344 2275.8594,332.6875 Q2275.8594,333.125 2275.5469,333.4063 Q2275.25,333.6875 2274.5313,333.6875 L2268.4844,333.6875 Q2267.75,333.6875 2267.4375,333.4063 Q2267.1406,333.125 2267.1406,332.6875 Q2267.1406,332.2344 2267.4375,331.9688 Q2267.75,331.6875 2268.4844,331.6875 L2270.5,331.6875 L2270.5,323.8594 L2268.4844,323.8594 Q2267.75,323.8594 2267.4375,323.5781 Q2267.1406,323.2969 2267.1406,322.8438 Q2267.1406,322.3906 2267.4375,322.125 Q2267.75,321.8438 2268.4844,321.8438 L2274.5313,321.8438 Q2275.25,321.8438 2275.5469,322.125 Q2275.8594,322.3906 2275.8594,322.8438 Q2275.8594,323.2969 2275.5469,323.5781 Q2275.25,323.8594 2274.5313,323.8594 L2272.5,323.8594 Z " fill="#000000"/><text fill="#000000" font-family="sans-serif" font-size="20" font-style="italic" lengthAdjust="spacing" textLength="91" x="2286.5" y="335.8711">AbstractUI</text><line style="stroke:#181818;stroke-width:0.5;" x1="2256.5" x2="2379.5" y1="345.2656" y2="345.2656"/><line style="stroke:#181818;stroke-width:0.5;" x1="2256.5" x2="2379.5" y1="353.2656" y2="353.2656"/><polygon fill="#FFFF44" points="2266.5,366.3438,2270.5,370.3438,2266.5,374.3438,2262.5,370.3438" style="stroke:#B38D22;stroke-width:1.0;"/><text fill="#000000" font-family="sans-serif" font-size="20" lengthAdjust="spacing" textLength="85" x="2276.5" y="378.0273">doShow()</text></g><!--class GenerateRequirementsTemplateFileUI--><g id="elem_GenerateRequirementsTemplateFileUI"><rect codeLine="9" fill="#F1F1F1" height="101.4688" id="GenerateRequirementsTemplateFileUI" rx="2.5" ry="2.5" style="stroke:#181818;stroke-width:0.5;" width="370" x="2133" y="71.1094"/><ellipse cx="2149" cy="101.2656" fill="#ADD1B2" rx="12" ry="12" style="stroke:#181818;stroke-width:1.0;"/><path d="M2151.1406,96.1875 Q2151.3281,95.9375 2151.5469,95.8125 Q2151.7656,95.6719 2152.0156,95.6719 Q2152.4531,95.6719 2152.7344,95.9844 Q2153.0156,96.2813 2153.0156,97 L2153.0156,98.7031 Q2153.0156,99.4219 2152.7344,99.7344 Q2152.4531,100.0469 2152.0156,100.0469 Q2151.625,100.0469 2151.375,99.8125 Q2151.125,99.5938 2151.0156,98.9844 Q2150.9531,98.5625 2150.7344,98.3438 Q2150.3438,97.9063 2149.625,97.6406 Q2148.9063,97.375 2148.1875,97.375 Q2147.2813,97.375 2146.5313,97.7656 Q2145.7813,98.1563 2145.2031,99.0469 Q2144.625,99.9219 2144.625,101.125 L2144.625,102.4219 Q2144.625,103.875 2145.6719,104.8438 Q2146.7344,105.8125 2148.5938,105.8125 Q2149.7031,105.8125 2150.4844,105.5 Q2150.9219,105.3281 2151.4375,104.8125 Q2151.75,104.5 2151.9219,104.4063 Q2152.0938,104.3125 2152.3281,104.3125 Q2152.7188,104.3125 2153.0156,104.625 Q2153.3281,104.9219 2153.3281,105.3281 Q2153.3281,105.7344 2152.9219,106.2031 Q2152.3281,106.8906 2151.3906,107.2813 Q2150.125,107.8125 2148.6094,107.8125 Q2146.8281,107.8125 2145.4063,107.0781 Q2144.25,106.4844 2143.4375,105.2188 Q2142.625,103.9531 2142.625,102.4688 L2142.625,101.1094 Q2142.625,99.5469 2143.3438,98.2031 Q2144.0781,96.8438 2145.3594,96.1094 Q2146.6563,95.375 2148.1094,95.375 Q2148.9688,95.375 2149.7188,95.5781 Q2150.4844,95.7813 2151.1406,96.1875 Z " fill="#000000"/><text fill="#000000" font-family="sans-serif" font-size="20" font-style="italic" lengthAdjust="spacing" textLength="131" x="2266.5" y="96.8711">«presentation»</text><text fill="#000000" font-family="sans-serif" font-size="20" lengthAdjust="spacing" textLength="336" x="2164" y="122.0273">GenerateRequirementsTemplateFileUI</text><line style="stroke:#181818;stroke-width:0.5;" x1="2134" x2="2502" y1="131.4219" y2="131.4219"/><line style="stroke:#181818;stroke-width:0.5;" x1="2134" x2="2502" y1="139.4219" y2="139.4219"/><ellipse cx="2144" cy="157.5" fill="#84BE84" rx="3" ry="3" style="stroke:#038048;stroke-width:1.0;"/><text fill="#000000" font-family="sans-serif" font-size="20" lengthAdjust="spacing" textLength="85" x="2154" y="164.1836">doShow()</text></g><!--class GenerateRequirementsTemplateFileController--><g id="elem_GenerateRequirementsTemplateFileController"><rect codeLine="13" fill="#F1F1F1" height="151.7813" id="GenerateRequirementsTemplateFileController" rx="2.5" ry="2.5" style="stroke:#181818;stroke-width:0.5;" width="503" x="1594.5" y="45.6094"/><ellipse cx="1640.65" cy="75.7656" fill="#ADD1B2" rx="12" ry="12" style="stroke:#181818;stroke-width:1.0;"/><path d="M1642.7906,70.6875 Q1642.9781,70.4375 1643.1969,70.3125 Q1643.4156,70.1719 1643.6656,70.1719 Q1644.1031,70.1719 1644.3844,70.4844 Q1644.6656,70.7813 1644.6656,71.5 L1644.6656,73.2031 Q1644.6656,73.9219 1644.3844,74.2344 Q1644.1031,74.5469 1643.6656,74.5469 Q1643.275,74.5469 1643.025,74.3125 Q1642.775,74.0938 1642.6656,73.4844 Q1642.6031,73.0625 1642.3844,72.8438 Q1641.9938,72.4063 1641.275,72.1406 Q1640.5563,71.875 1639.8375,71.875 Q1638.9313,71.875 1638.1813,72.2656 Q1637.4313,72.6563 1636.8531,73.5469 Q1636.275,74.4219 1636.275,75.625 L1636.275,76.9219 Q1636.275,78.375 1637.3219,79.3438 Q1638.3844,80.3125 1640.2438,80.3125 Q1641.3531,80.3125 1642.1344,80 Q1642.5719,79.8281 1643.0875,79.3125 Q1643.4,79 1643.5719,78.9063 Q1643.7438,78.8125 1643.9781,78.8125 Q1644.3688,78.8125 1644.6656,79.125 Q1644.9781,79.4219 1644.9781,79.8281 Q1644.9781,80.2344 1644.5719,80.7031 Q1643.9781,81.3906 1643.0406,81.7813 Q1641.775,82.3125 1640.2594,82.3125 Q1638.4781,82.3125 1637.0563,81.5781 Q1635.9,80.9844 1635.0875,79.7188 Q1634.275,78.4531 1634.275,76.9688 L1634.275,75.6094 Q1634.275,74.0469 1634.9938,72.7031 Q1635.7281,71.3438 1637.0094,70.6094 Q1638.3063,69.875 1639.7594,69.875 Q1640.6188,69.875 1641.3688,70.0781 Q1642.1344,70.2813 1642.7906,70.6875 Z " fill="#000000"/><text fill="#000000" font-family="sans-serif" font-size="20" font-style="italic" lengthAdjust="spacing" textLength="118" x="1804.35" y="71.3711">«application»</text><text fill="#000000" font-family="sans-serif" font-size="20" lengthAdjust="spacing" textLength="402" x="1662.35" y="96.5273">GenerateRequirementsTemplateFileController</text><line style="stroke:#181818;stroke-width:0.5;" x1="1595.5" x2="2096.5" y1="105.9219" y2="105.9219"/><line style="stroke:#181818;stroke-width:0.5;" x1="1595.5" x2="2096.5" y1="113.9219" y2="113.9219"/><ellipse cx="1605.5" cy="132" fill="#84BE84" rx="3" ry="3" style="stroke:#038048;stroke-width:1.0;"/><text fill="#000000" font-family="sans-serif" font-size="20" lengthAdjust="spacing" textLength="70" x="1615.5" y="138.6836">create()</text><ellipse cx="1605.5" cy="157.1563" fill="#84BE84" rx="3" ry="3" style="stroke:#038048;stroke-width:1.0;"/><text fill="#000000" font-family="sans-serif" font-size="20" lengthAdjust="spacing" textLength="178" x="1615.5" y="163.8398">getJobOpeningList()</text><ellipse cx="1605.5" cy="182.3125" fill="#84BE84" rx="3" ry="3" style="stroke:#038048;stroke-width:1.0;"/><text fill="#000000" font-family="sans-serif" font-size="20" lengthAdjust="spacing" textLength="476" x="1615.5" y="188.9961">exportTemplateFile(JobOpeningDTO jobOpeningDTO)</text></g><!--class RequirementsTemplateManagerService--><g id="elem_RequirementsTemplateManagerService"><rect codeLine="19" fill="#F1F1F1" height="126.625" id="RequirementsTemplateManagerService" rx="2.5" ry="2.5" style="stroke:#181818;stroke-width:0.5;" width="683" x="539.5" y="284.6094"/><ellipse cx="703.5" cy="314.7656" fill="#ADD1B2" rx="12" ry="12" style="stroke:#181818;stroke-width:1.0;"/><path d="M705.6406,309.6875 Q705.8281,309.4375 706.0469,309.3125 Q706.2656,309.1719 706.5156,309.1719 Q706.9531,309.1719 707.2344,309.4844 Q707.5156,309.7813 707.5156,310.5 L707.5156,312.2031 Q707.5156,312.9219 707.2344,313.2344 Q706.9531,313.5469 706.5156,313.5469 Q706.125,313.5469 705.875,313.3125 Q705.625,313.0938 705.5156,312.4844 Q705.4531,312.0625 705.2344,311.8438 Q704.8438,311.4063 704.125,311.1406 Q703.4063,310.875 702.6875,310.875 Q701.7813,310.875 701.0313,311.2656 Q700.2813,311.6563 699.7031,312.5469 Q699.125,313.4219 699.125,314.625 L699.125,315.9219 Q699.125,317.375 700.1719,318.3438 Q701.2344,319.3125 703.0938,319.3125 Q704.2031,319.3125 704.9844,319 Q705.4219,318.8281 705.9375,318.3125 Q706.25,318 706.4219,317.9063 Q706.5938,317.8125 706.8281,317.8125 Q707.2188,317.8125 707.5156,318.125 Q707.8281,318.4219 707.8281,318.8281 Q707.8281,319.2344 707.4219,319.7031 Q706.8281,320.3906 705.8906,320.7813 Q704.625,321.3125 703.1094,321.3125 Q701.3281,321.3125 699.9063,320.5781 Q698.75,319.9844 697.9375,318.7188 Q697.125,317.4531 697.125,315.9688 L697.125,314.6094 Q697.125,313.0469 697.8438,311.7031 Q698.5781,310.3438 699.8594,309.6094 Q701.1563,308.875 702.6094,308.875 Q703.4688,308.875 704.2188,309.0781 Q704.9844,309.2813 705.6406,309.6875 Z " fill="#000000"/><text fill="#000000" font-family="sans-serif" font-size="20" font-style="italic" lengthAdjust="spacing" textLength="86" x="855.5" y="310.3711">«service»</text><text fill="#000000" font-family="sans-serif" font-size="20" lengthAdjust="spacing" textLength="346" x="725.5" y="335.5273">RequirementsTemplateManagerService</text><line style="stroke:#181818;stroke-width:0.5;" x1="540.5" x2="1221.5" y1="344.9219" y2="344.9219"/><line style="stroke:#181818;stroke-width:0.5;" x1="540.5" x2="1221.5" y1="352.9219" y2="352.9219"/><ellipse cx="550.5" cy="371" fill="#84BE84" rx="3" ry="3" style="stroke:#038048;stroke-width:1.0;"/><text fill="#000000" font-family="sans-serif" font-size="20" lengthAdjust="spacing" textLength="598" x="560.5" y="377.6836">getRequirementFromJobOpening(JobOpeningDTO jobOpeningDTO)</text><ellipse cx="550.5" cy="396.1563" fill="#84BE84" rx="3" ry="3" style="stroke:#038048;stroke-width:1.0;"/><text fill="#000000" font-family="sans-serif" font-size="20" lengthAdjust="spacing" textLength="656" x="560.5" y="402.8398">generateNewTemplate(RequirementSpecification requirementSpecification)</text></g><!--class RequirementSpecificationRepository--><g id="elem_RequirementSpecificationRepository"><rect codeLine="24" fill="#F1F1F1" height="126.625" id="RequirementSpecificationRepository" rx="2.5" ry="2.5" style="stroke:#181818;stroke-width:0.5;" width="638" x="7" y="585.1094"/><ellipse cx="163" cy="627.8438" fill="#ADD1B2" rx="12" ry="12" style="stroke:#181818;stroke-width:1.0;"/><path d="M165.1406,622.7656 Q165.3281,622.5156 165.5469,622.3906 Q165.7656,622.25 166.0156,622.25 Q166.4531,622.25 166.7344,622.5625 Q167.0156,622.8594 167.0156,623.5781 L167.0156,625.2813 Q167.0156,626 166.7344,626.3125 Q166.4531,626.625 166.0156,626.625 Q165.625,626.625 165.375,626.3906 Q165.125,626.1719 165.0156,625.5625 Q164.9531,625.1406 164.7344,624.9219 Q164.3438,624.4844 163.625,624.2188 Q162.9063,623.9531 162.1875,623.9531 Q161.2813,623.9531 160.5313,624.3438 Q159.7813,624.7344 159.2031,625.625 Q158.625,626.5 158.625,627.7031 L158.625,629 Q158.625,630.4531 159.6719,631.4219 Q160.7344,632.3906 162.5938,632.3906 Q163.7031,632.3906 164.4844,632.0781 Q164.9219,631.9063 165.4375,631.3906 Q165.75,631.0781 165.9219,630.9844 Q166.0938,630.8906 166.3281,630.8906 Q166.7188,630.8906 167.0156,631.2031 Q167.3281,631.5 167.3281,631.9063 Q167.3281,632.3125 166.9219,632.7813 Q166.3281,633.4688 165.3906,633.8594 Q164.125,634.3906 162.6094,634.3906 Q160.8281,634.3906 159.4063,633.6563 Q158.25,633.0625 157.4375,631.7969 Q156.625,630.5313 156.625,629.0469 L156.625,627.6875 Q156.625,626.125 157.3438,624.7813 Q158.0781,623.4219 159.3594,622.6875 Q160.6563,621.9531 162.1094,621.9531 Q162.9688,621.9531 163.7188,622.1563 Q164.4844,622.3594 165.1406,622.7656 Z " fill="#000000"/><text fill="#000000" font-family="sans-serif" font-size="20" font-style="italic" lengthAdjust="spacing" textLength="124" x="281.5" y="610.8711">«persistence»</text><text fill="#000000" font-family="sans-serif" font-size="20" font-style="italic" lengthAdjust="spacing" textLength="110" x="288.5" y="636.0273">«repository»</text><text fill="#000000" font-family="sans-serif" font-size="20" lengthAdjust="spacing" textLength="317" x="185" y="661.1836">RequirementSpecificationRepository</text><line style="stroke:#181818;stroke-width:0.5;" x1="8" x2="644" y1="670.5781" y2="670.5781"/><line style="stroke:#181818;stroke-width:0.5;" x1="8" x2="644" y1="678.5781" y2="678.5781"/><ellipse cx="18" cy="696.6563" fill="#84BE84" rx="3" ry="3" style="stroke:#038048;stroke-width:1.0;"/><text fill="#000000" font-family="sans-serif" font-size="20" lengthAdjust="spacing" textLength="611" x="28" y="703.3398">requirementSpecificationFromDTO(JobOpeningDTO jobOpeningDTO)</text></g><!--class RequirementsTemplatePlugin--><g id="elem_RequirementsTemplatePlugin"><rect codeLine="28" fill="#F1F1F1" height="151.7813" id="RequirementsTemplatePlugin" rx="2.5" ry="2.5" style="stroke:#181818;stroke-width:0.5;" width="401" x="680.5" y="572.6094"/><ellipse cx="749" cy="602.7656" fill="#ADD1B2" rx="12" ry="12" style="stroke:#181818;stroke-width:1.0;"/><path d="M751.1406,597.6875 Q751.3281,597.4375 751.5469,597.3125 Q751.7656,597.1719 752.0156,597.1719 Q752.4531,597.1719 752.7344,597.4844 Q753.0156,597.7813 753.0156,598.5 L753.0156,600.2031 Q753.0156,600.9219 752.7344,601.2344 Q752.4531,601.5469 752.0156,601.5469 Q751.625,601.5469 751.375,601.3125 Q751.125,601.0938 751.0156,600.4844 Q750.9531,600.0625 750.7344,599.8438 Q750.3438,599.4063 749.625,599.1406 Q748.9063,598.875 748.1875,598.875 Q747.2813,598.875 746.5313,599.2656 Q745.7813,599.6563 745.2031,600.5469 Q744.625,601.4219 744.625,602.625 L744.625,603.9219 Q744.625,605.375 745.6719,606.3438 Q746.7344,607.3125 748.5938,607.3125 Q749.7031,607.3125 750.4844,607 Q750.9219,606.8281 751.4375,606.3125 Q751.75,606 751.9219,605.9063 Q752.0938,605.8125 752.3281,605.8125 Q752.7188,605.8125 753.0156,606.125 Q753.3281,606.4219 753.3281,606.8281 Q753.3281,607.2344 752.9219,607.7031 Q752.3281,608.3906 751.3906,608.7813 Q750.125,609.3125 748.6094,609.3125 Q746.8281,609.3125 745.4063,608.5781 Q744.25,607.9844 743.4375,606.7188 Q742.625,605.4531 742.625,603.9688 L742.625,602.6094 Q742.625,601.0469 743.3438,599.7031 Q744.0781,598.3438 745.3594,597.6094 Q746.6563,596.875 748.1094,596.875 Q748.9688,596.875 749.7188,597.0781 Q750.4844,597.2813 751.1406,597.6875 Z " fill="#000000"/><text fill="#000000" font-family="sans-serif" font-size="20" font-style="italic" lengthAdjust="spacing" textLength="76" x="860.5" y="598.3711">«plugin»</text><text fill="#000000" font-family="sans-serif" font-size="20" lengthAdjust="spacing" textLength="255" x="771" y="623.5273">RequirementsTemplatePlugin</text><line style="stroke:#181818;stroke-width:0.5;" x1="681.5" x2="1080.5" y1="632.9219" y2="632.9219"/><line style="stroke:#181818;stroke-width:0.5;" x1="681.5" x2="1080.5" y1="640.9219" y2="640.9219"/><ellipse cx="691.5" cy="659" fill="#84BE84" rx="3" ry="3" style="stroke:#038048;stroke-width:1.0;"/><text fill="#000000" font-family="sans-serif" font-size="20" lengthAdjust="spacing" textLength="374" x="701.5" y="665.6836">newRequirementsSpecificationsTemplate()</text><ellipse cx="691.5" cy="684.1563" fill="#84BE84" rx="3" ry="3" style="stroke:#038048;stroke-width:1.0;"/><text fill="#000000" font-family="sans-serif" font-size="20" lengthAdjust="spacing" textLength="123" x="701.5" y="690.8398">generateFile()</text><ellipse cx="691.5" cy="709.3125" fill="#84BE84" rx="3" ry="3" style="stroke:#038048;stroke-width:1.0;"/><text fill="#000000" font-family="sans-serif" font-size="20" lengthAdjust="spacing" textLength="69" x="701.5" y="715.9961">export()</text></g><!--class RequirementsTemplateParser--><g id="elem_RequirementsTemplateParser"><rect codeLine="34" fill="#F1F1F1" height="101.4688" id="RequirementsTemplateParser" rx="2.5" ry="2.5" style="stroke:#181818;stroke-width:0.5;" width="326" x="580" y="899.1094"/><ellipse cx="609.5" cy="929.2656" fill="#ADD1B2" rx="12" ry="12" style="stroke:#181818;stroke-width:1.0;"/><path d="M611.6406,924.1875 Q611.8281,923.9375 612.0469,923.8125 Q612.2656,923.6719 612.5156,923.6719 Q612.9531,923.6719 613.2344,923.9844 Q613.5156,924.2813 613.5156,925 L613.5156,926.7031 Q613.5156,927.4219 613.2344,927.7344 Q612.9531,928.0469 612.5156,928.0469 Q612.125,928.0469 611.875,927.8125 Q611.625,927.5938 611.5156,926.9844 Q611.4531,926.5625 611.2344,926.3438 Q610.8438,925.9063 610.125,925.6406 Q609.4063,925.375 608.6875,925.375 Q607.7813,925.375 607.0313,925.7656 Q606.2813,926.1563 605.7031,927.0469 Q605.125,927.9219 605.125,929.125 L605.125,930.4219 Q605.125,931.875 606.1719,932.8438 Q607.2344,933.8125 609.0938,933.8125 Q610.2031,933.8125 610.9844,933.5 Q611.4219,933.3281 611.9375,932.8125 Q612.25,932.5 612.4219,932.4063 Q612.5938,932.3125 612.8281,932.3125 Q613.2188,932.3125 613.5156,932.625 Q613.8281,932.9219 613.8281,933.3281 Q613.8281,933.7344 613.4219,934.2031 Q612.8281,934.8906 611.8906,935.2813 Q610.625,935.8125 609.1094,935.8125 Q607.3281,935.8125 605.9063,935.0781 Q604.75,934.4844 603.9375,933.2188 Q603.125,931.9531 603.125,930.4688 L603.125,929.1094 Q603.125,927.5469 603.8438,926.2031 Q604.5781,924.8438 605.8594,924.1094 Q607.1563,923.375 608.6094,923.375 Q609.4688,923.375 610.2188,923.5781 Q610.9844,923.7813 611.6406,924.1875 Z " fill="#000000"/><text fill="#000000" font-family="sans-serif" font-size="20" font-style="italic" lengthAdjust="spacing" textLength="79" x="719" y="924.8711">«parser»</text><text fill="#000000" font-family="sans-serif" font-size="20" lengthAdjust="spacing" textLength="262" x="627.5" y="950.0273">RequirementsTemplateParser</text><line style="stroke:#181818;stroke-width:0.5;" x1="581" x2="905" y1="959.4219" y2="959.4219"/><line style="stroke:#181818;stroke-width:0.5;" x1="581" x2="905" y1="967.4219" y2="967.4219"/><ellipse cx="591" cy="985.5" fill="#84BE84" rx="3" ry="3" style="stroke:#038048;stroke-width:1.0;"/><text fill="#000000" font-family="sans-serif" font-size="20" lengthAdjust="spacing" textLength="299" x="601" y="992.1836">checkFileSyntax(File templateFile)</text></g><!--class AuthorizationService--><g id="elem_AuthorizationService"><rect codeLine="38" fill="#F1F1F1" height="101.4688" id="AuthorizationService" rx="2.5" ry="2.5" style="stroke:#181818;stroke-width:0.5;" width="743" x="816.5" y="71.1094"/><ellipse cx="1095" cy="101.2656" fill="#ADD1B2" rx="12" ry="12" style="stroke:#181818;stroke-width:1.0;"/><path d="M1097.1406,96.1875 Q1097.3281,95.9375 1097.5469,95.8125 Q1097.7656,95.6719 1098.0156,95.6719 Q1098.4531,95.6719 1098.7344,95.9844 Q1099.0156,96.2813 1099.0156,97 L1099.0156,98.7031 Q1099.0156,99.4219 1098.7344,99.7344 Q1098.4531,100.0469 1098.0156,100.0469 Q1097.625,100.0469 1097.375,99.8125 Q1097.125,99.5938 1097.0156,98.9844 Q1096.9531,98.5625 1096.7344,98.3438 Q1096.3438,97.9063 1095.625,97.6406 Q1094.9063,97.375 1094.1875,97.375 Q1093.2813,97.375 1092.5313,97.7656 Q1091.7813,98.1563 1091.2031,99.0469 Q1090.625,99.9219 1090.625,101.125 L1090.625,102.4219 Q1090.625,103.875 1091.6719,104.8438 Q1092.7344,105.8125 1094.5938,105.8125 Q1095.7031,105.8125 1096.4844,105.5 Q1096.9219,105.3281 1097.4375,104.8125 Q1097.75,104.5 1097.9219,104.4063 Q1098.0938,104.3125 1098.3281,104.3125 Q1098.7188,104.3125 1099.0156,104.625 Q1099.3281,104.9219 1099.3281,105.3281 Q1099.3281,105.7344 1098.9219,106.2031 Q1098.3281,106.8906 1097.3906,107.2813 Q1096.125,107.8125 1094.6094,107.8125 Q1092.8281,107.8125 1091.4063,107.0781 Q1090.25,106.4844 1089.4375,105.2188 Q1088.625,103.9531 1088.625,102.4688 L1088.625,101.1094 Q1088.625,99.5469 1089.3438,98.2031 Q1090.0781,96.8438 1091.3594,96.1094 Q1092.6563,95.375 1094.1094,95.375 Q1094.9688,95.375 1095.7188,95.5781 Q1096.4844,95.7813 1097.1406,96.1875 Z " fill="#000000"/><text fill="#000000" font-family="sans-serif" font-size="20" font-style="italic" lengthAdjust="spacing" textLength="86" x="1162.5" y="96.8711">«service»</text><text fill="#000000" font-family="sans-serif" font-size="20" lengthAdjust="spacing" textLength="177" x="1117" y="122.0273">AuthorizationService</text><line style="stroke:#181818;stroke-width:0.5;" x1="817.5" x2="1558.5" y1="131.4219" y2="131.4219"/><line style="stroke:#181818;stroke-width:0.5;" x1="817.5" x2="1558.5" y1="139.4219" y2="139.4219"/><ellipse cx="827.5" cy="157.5" fill="#84BE84" rx="3" ry="3" style="stroke:#038048;stroke-width:1.0;"/><text fill="#000000" font-family="sans-serif" font-size="20" lengthAdjust="spacing" textLength="716" x="837.5" y="164.1836">loggedinUserWithPermissions(Role ... Action BaseRole.CUSTOMER_MANAGER)</text></g><!--class JobOpeningRepository--><g id="elem_JobOpeningRepository"><rect codeLine="42" fill="#F1F1F1" height="151.7813" id="JobOpeningRepository" rx="2.5" ry="2.5" style="stroke:#181818;stroke-width:0.5;" width="682" x="1862" y="873.6094"/><ellipse cx="2098.5" cy="916.3438" fill="#ADD1B2" rx="12" ry="12" style="stroke:#181818;stroke-width:1.0;"/><path d="M2100.6406,911.2656 Q2100.8281,911.0156 2101.0469,910.8906 Q2101.2656,910.75 2101.5156,910.75 Q2101.9531,910.75 2102.2344,911.0625 Q2102.5156,911.3594 2102.5156,912.0781 L2102.5156,913.7813 Q2102.5156,914.5 2102.2344,914.8125 Q2101.9531,915.125 2101.5156,915.125 Q2101.125,915.125 2100.875,914.8906 Q2100.625,914.6719 2100.5156,914.0625 Q2100.4531,913.6406 2100.2344,913.4219 Q2099.8438,912.9844 2099.125,912.7188 Q2098.4063,912.4531 2097.6875,912.4531 Q2096.7813,912.4531 2096.0313,912.8438 Q2095.2813,913.2344 2094.7031,914.125 Q2094.125,915 2094.125,916.2031 L2094.125,917.5 Q2094.125,918.9531 2095.1719,919.9219 Q2096.2344,920.8906 2098.0938,920.8906 Q2099.2031,920.8906 2099.9844,920.5781 Q2100.4219,920.4063 2100.9375,919.8906 Q2101.25,919.5781 2101.4219,919.4844 Q2101.5938,919.3906 2101.8281,919.3906 Q2102.2188,919.3906 2102.5156,919.7031 Q2102.8281,920 2102.8281,920.4063 Q2102.8281,920.8125 2102.4219,921.2813 Q2101.8281,921.9688 2100.8906,922.3594 Q2099.625,922.8906 2098.1094,922.8906 Q2096.3281,922.8906 2094.9063,922.1563 Q2093.75,921.5625 2092.9375,920.2969 Q2092.125,919.0313 2092.125,917.5469 L2092.125,916.1875 Q2092.125,914.625 2092.8438,913.2813 Q2093.5781,911.9219 2094.8594,911.1875 Q2096.1563,910.4531 2097.6094,910.4531 Q2098.4688,910.4531 2099.2188,910.6563 Q2099.9844,910.8594 2100.6406,911.2656 Z " fill="#000000"/><text fill="#000000" font-family="sans-serif" font-size="20" font-style="italic" lengthAdjust="spacing" textLength="126" x="2157.5" y="899.3711">«Persistence»</text><text fill="#000000" font-family="sans-serif" font-size="20" font-style="italic" lengthAdjust="spacing" textLength="117" x="2162" y="924.5273">«Repository»</text><text fill="#000000" font-family="sans-serif" font-size="20" lengthAdjust="spacing" textLength="200" x="2120.5" y="949.6836">JobOpeningRepository</text><line style="stroke:#181818;stroke-width:0.5;" x1="1863" x2="2543" y1="959.0781" y2="959.0781"/><line style="stroke:#181818;stroke-width:0.5;" x1="1863" x2="2543" y1="967.0781" y2="967.0781"/><ellipse cx="1873" cy="985.1563" fill="#84BE84" rx="3" ry="3" style="stroke:#038048;stroke-width:1.0;"/><text fill="#000000" font-family="sans-serif" font-size="20" lengthAdjust="spacing" textLength="236" x="1883" y="991.8398">rebuild(JobOpening: entity)</text><ellipse cx="1873" cy="1010.3125" fill="#84BE84" rx="3" ry="3" style="stroke:#038048;stroke-width:1.0;"/><text fill="#000000" font-family="sans-serif" font-size="20" lengthAdjust="spacing" textLength="655" x="1883" y="1016.9961">getJobOpeningListMatchingCostumerCode(CustomerCode costumerCode)</text></g><!--class CustomerManagementService--><g id="elem_CustomerManagementService"><rect codeLine="47" fill="#F1F1F1" height="101.4688" id="CustomerManagementService" rx="2.5" ry="2.5" style="stroke:#181818;stroke-width:0.5;" width="535" x="1254.5" y="598.1094"/><ellipse cx="1385.5" cy="628.2656" fill="#ADD1B2" rx="12" ry="12" style="stroke:#181818;stroke-width:1.0;"/><path d="M1387.6406,623.1875 Q1387.8281,622.9375 1388.0469,622.8125 Q1388.2656,622.6719 1388.5156,622.6719 Q1388.9531,622.6719 1389.2344,622.9844 Q1389.5156,623.2813 1389.5156,624 L1389.5156,625.7031 Q1389.5156,626.4219 1389.2344,626.7344 Q1388.9531,627.0469 1388.5156,627.0469 Q1388.125,627.0469 1387.875,626.8125 Q1387.625,626.5938 1387.5156,625.9844 Q1387.4531,625.5625 1387.2344,625.3438 Q1386.8438,624.9063 1386.125,624.6406 Q1385.4063,624.375 1384.6875,624.375 Q1383.7813,624.375 1383.0313,624.7656 Q1382.2813,625.1563 1381.7031,626.0469 Q1381.125,626.9219 1381.125,628.125 L1381.125,629.4219 Q1381.125,630.875 1382.1719,631.8438 Q1383.2344,632.8125 1385.0938,632.8125 Q1386.2031,632.8125 1386.9844,632.5 Q1387.4219,632.3281 1387.9375,631.8125 Q1388.25,631.5 1388.4219,631.4063 Q1388.5938,631.3125 1388.8281,631.3125 Q1389.2188,631.3125 1389.5156,631.625 Q1389.8281,631.9219 1389.8281,632.3281 Q1389.8281,632.7344 1389.4219,633.2031 Q1388.8281,633.8906 1387.8906,634.2813 Q1386.625,634.8125 1385.1094,634.8125 Q1383.3281,634.8125 1381.9063,634.0781 Q1380.75,633.4844 1379.9375,632.2188 Q1379.125,630.9531 1379.125,629.4688 L1379.125,628.1094 Q1379.125,626.5469 1379.8438,625.2031 Q1380.5781,623.8438 1381.8594,623.1094 Q1383.1563,622.375 1384.6094,622.375 Q1385.4688,622.375 1386.2188,622.5781 Q1386.9844,622.7813 1387.6406,623.1875 Z " fill="#000000"/><text fill="#000000" font-family="sans-serif" font-size="20" font-style="italic" lengthAdjust="spacing" textLength="89" x="1495" y="623.8711">«Service»</text><text fill="#000000" font-family="sans-serif" font-size="20" lengthAdjust="spacing" textLength="264" x="1407.5" y="649.0273">CustomerManagementService</text><line style="stroke:#181818;stroke-width:0.5;" x1="1255.5" x2="1788.5" y1="658.4219" y2="658.4219"/><line style="stroke:#181818;stroke-width:0.5;" x1="1255.5" x2="1788.5" y1="666.4219" y2="666.4219"/><ellipse cx="1265.5" cy="684.5" fill="#84BE84" rx="3" ry="3" style="stroke:#038048;stroke-width:1.0;"/><text fill="#000000" font-family="sans-serif" font-size="20" lengthAdjust="spacing" textLength="508" x="1275.5" y="691.1836">getAssignedCostumerCodesList(EmailAddress username)</text></g><!--class CustomerRepository--><g id="elem_CustomerRepository"><rect codeLine="51" fill="#F1F1F1" height="151.7813" id="CustomerRepository" rx="2.5" ry="2.5" style="stroke:#181818;stroke-width:0.5;" width="489" x="941.5" y="873.6094"/><ellipse cx="1091.5" cy="916.3438" fill="#ADD1B2" rx="12" ry="12" style="stroke:#181818;stroke-width:1.0;"/><path d="M1093.6406,911.2656 Q1093.8281,911.0156 1094.0469,910.8906 Q1094.2656,910.75 1094.5156,910.75 Q1094.9531,910.75 1095.2344,911.0625 Q1095.5156,911.3594 1095.5156,912.0781 L1095.5156,913.7813 Q1095.5156,914.5 1095.2344,914.8125 Q1094.9531,915.125 1094.5156,915.125 Q1094.125,915.125 1093.875,914.8906 Q1093.625,914.6719 1093.5156,914.0625 Q1093.4531,913.6406 1093.2344,913.4219 Q1092.8438,912.9844 1092.125,912.7188 Q1091.4063,912.4531 1090.6875,912.4531 Q1089.7813,912.4531 1089.0313,912.8438 Q1088.2813,913.2344 1087.7031,914.125 Q1087.125,915 1087.125,916.2031 L1087.125,917.5 Q1087.125,918.9531 1088.1719,919.9219 Q1089.2344,920.8906 1091.0938,920.8906 Q1092.2031,920.8906 1092.9844,920.5781 Q1093.4219,920.4063 1093.9375,919.8906 Q1094.25,919.5781 1094.4219,919.4844 Q1094.5938,919.3906 1094.8281,919.3906 Q1095.2188,919.3906 1095.5156,919.7031 Q1095.8281,920 1095.8281,920.4063 Q1095.8281,920.8125 1095.4219,921.2813 Q1094.8281,921.9688 1093.8906,922.3594 Q1092.625,922.8906 1091.1094,922.8906 Q1089.3281,922.8906 1087.9063,922.1563 Q1086.75,921.5625 1085.9375,920.2969 Q1085.125,919.0313 1085.125,917.5469 L1085.125,916.1875 Q1085.125,914.625 1085.8438,913.2813 Q1086.5781,911.9219 1087.8594,911.1875 Q1089.1563,910.4531 1090.6094,910.4531 Q1091.4688,910.4531 1092.2188,910.6563 Q1092.9844,910.8594 1093.6406,911.2656 Z " fill="#000000"/><text fill="#000000" font-family="sans-serif" font-size="20" font-style="italic" lengthAdjust="spacing" textLength="126" x="1140.5" y="899.3711">«Persistence»</text><text fill="#000000" font-family="sans-serif" font-size="20" font-style="italic" lengthAdjust="spacing" textLength="117" x="1145" y="924.5273">«Repository»</text><text fill="#000000" font-family="sans-serif" font-size="20" lengthAdjust="spacing" textLength="180" x="1113.5" y="949.6836">CustomerRepository</text><line style="stroke:#181818;stroke-width:0.5;" x1="942.5" x2="1429.5" y1="959.0781" y2="959.0781"/><line style="stroke:#181818;stroke-width:0.5;" x1="942.5" x2="1429.5" y1="967.0781" y2="967.0781"/><ellipse cx="952.5" cy="985.1563" fill="#84BE84" rx="3" ry="3" style="stroke:#038048;stroke-width:1.0;"/><text fill="#000000" font-family="sans-serif" font-size="20" lengthAdjust="spacing" textLength="163" x="962.5" y="991.8398">save(e: Customer)</text><ellipse cx="952.5" cy="1010.3125" fill="#84BE84" rx="3" ry="3" style="stroke:#038048;stroke-width:1.0;"/><text fill="#000000" font-family="sans-serif" font-size="20" lengthAdjust="spacing" textLength="462" x="962.5" y="1016.9961">getCostumersByUsername(EmailAddress username)</text></g><!--class Customer--><g id="elem_Customer"><rect codeLine="57" fill="#F1F1F1" height="227.25" id="Customer" rx="2.5" ry="2.5" style="stroke:#181818;stroke-width:0.5;" width="361" x="1465.5" y="836.1094"/><ellipse cx="1563.5" cy="878.8438" fill="#ADD1B2" rx="12" ry="12" style="stroke:#181818;stroke-width:1.0;"/><path d="M1565.6406,873.7656 Q1565.8281,873.5156 1566.0469,873.3906 Q1566.2656,873.25 1566.5156,873.25 Q1566.9531,873.25 1567.2344,873.5625 Q1567.5156,873.8594 1567.5156,874.5781 L1567.5156,876.2813 Q1567.5156,877 1567.2344,877.3125 Q1566.9531,877.625 1566.5156,877.625 Q1566.125,877.625 1565.875,877.3906 Q1565.625,877.1719 1565.5156,876.5625 Q1565.4531,876.1406 1565.2344,875.9219 Q1564.8438,875.4844 1564.125,875.2188 Q1563.4063,874.9531 1562.6875,874.9531 Q1561.7813,874.9531 1561.0313,875.3438 Q1560.2813,875.7344 1559.7031,876.625 Q1559.125,877.5 1559.125,878.7031 L1559.125,880 Q1559.125,881.4531 1560.1719,882.4219 Q1561.2344,883.3906 1563.0938,883.3906 Q1564.2031,883.3906 1564.9844,883.0781 Q1565.4219,882.9063 1565.9375,882.3906 Q1566.25,882.0781 1566.4219,881.9844 Q1566.5938,881.8906 1566.8281,881.8906 Q1567.2188,881.8906 1567.5156,882.2031 Q1567.8281,882.5 1567.8281,882.9063 Q1567.8281,883.3125 1567.4219,883.7813 Q1566.8281,884.4688 1565.8906,884.8594 Q1564.625,885.3906 1563.1094,885.3906 Q1561.3281,885.3906 1559.9063,884.6563 Q1558.75,884.0625 1557.9375,882.7969 Q1557.125,881.5313 1557.125,880.0469 L1557.125,878.6875 Q1557.125,877.125 1557.8438,875.7813 Q1558.5781,874.4219 1559.8594,873.6875 Q1561.1563,872.9531 1562.6094,872.9531 Q1563.4688,872.9531 1564.2188,873.1563 Q1564.9844,873.3594 1565.6406,873.7656 Z " fill="#000000"/><text fill="#000000" font-family="sans-serif" font-size="20" font-style="italic" lengthAdjust="spacing" textLength="91" x="1618" y="861.8711">«Domain»</text><text fill="#000000" font-family="sans-serif" font-size="20" font-style="italic" lengthAdjust="spacing" textLength="160" x="1583.5" y="887.0273">«Aggregate Root»</text><text fill="#000000" font-family="sans-serif" font-size="20" lengthAdjust="spacing" textLength="85" x="1621" y="912.1836">Customer</text><line style="stroke:#181818;stroke-width:0.5;" x1="1466.5" x2="1825.5" y1="921.5781" y2="921.5781"/><rect fill="none" height="6" style="stroke:#C82930;stroke-width:1.0;" width="6" x="1473.5" y="936.6563"/><text fill="#000000" font-family="sans-serif" font-size="20" lengthAdjust="spacing" textLength="266" x="1486.5" y="946.3398">CustomerCode customerCode</text><rect fill="none" height="6" style="stroke:#C82930;stroke-width:1.0;" width="6" x="1473.5" y="961.8125"/><text fill="#000000" font-family="sans-serif" font-size="20" lengthAdjust="spacing" textLength="270" x="1486.5" y="971.4961">CompanyName companyName</text><rect fill="none" height="6" style="stroke:#C82930;stroke-width:1.0;" width="6" x="1473.5" y="986.9688"/><text fill="#000000" font-family="sans-serif" font-size="20" lengthAdjust="spacing" textLength="334" x="1486.5" y="996.6523">EmailAddress costumerManagerEmail</text><line style="stroke:#181818;stroke-width:0.5;" x1="1466.5" x2="1825.5" y1="1005.0469" y2="1005.0469"/><ellipse cx="1476.5" cy="1023.125" fill="#84BE84" rx="3" ry="3" style="stroke:#038048;stroke-width:1.0;"/><text fill="#000000" font-family="sans-serif" font-size="20" lengthAdjust="spacing" textLength="142" x="1486.5" y="1029.8086">customerCode()</text><ellipse cx="1476.5" cy="1048.2813" fill="#84BE84" rx="3" ry="3" style="stroke:#038048;stroke-width:1.0;"/><text fill="#000000" font-family="sans-serif" font-size="20" lengthAdjust="spacing" textLength="144" x="1486.5" y="1054.9648">companyName()</text></g><!--class JobOpeningManagementService--><g id="elem_JobOpeningManagementService"><rect codeLine="65" fill="#F1F1F1" height="101.4688" id="JobOpeningManagementService" rx="2.5" ry="2.5" style="stroke:#181818;stroke-width:0.5;" width="816" x="1825" y="598.1094"/><ellipse cx="2086.5" cy="628.2656" fill="#ADD1B2" rx="12" ry="12" style="stroke:#181818;stroke-width:1.0;"/><path d="M2088.6406,623.1875 Q2088.8281,622.9375 2089.0469,622.8125 Q2089.2656,622.6719 2089.5156,622.6719 Q2089.9531,622.6719 2090.2344,622.9844 Q2090.5156,623.2813 2090.5156,624 L2090.5156,625.7031 Q2090.5156,626.4219 2090.2344,626.7344 Q2089.9531,627.0469 2089.5156,627.0469 Q2089.125,627.0469 2088.875,626.8125 Q2088.625,626.5938 2088.5156,625.9844 Q2088.4531,625.5625 2088.2344,625.3438 Q2087.8438,624.9063 2087.125,624.6406 Q2086.4063,624.375 2085.6875,624.375 Q2084.7813,624.375 2084.0313,624.7656 Q2083.2813,625.1563 2082.7031,626.0469 Q2082.125,626.9219 2082.125,628.125 L2082.125,629.4219 Q2082.125,630.875 2083.1719,631.8438 Q2084.2344,632.8125 2086.0938,632.8125 Q2087.2031,632.8125 2087.9844,632.5 Q2088.4219,632.3281 2088.9375,631.8125 Q2089.25,631.5 2089.4219,631.4063 Q2089.5938,631.3125 2089.8281,631.3125 Q2090.2188,631.3125 2090.5156,631.625 Q2090.8281,631.9219 2090.8281,632.3281 Q2090.8281,632.7344 2090.4219,633.2031 Q2089.8281,633.8906 2088.8906,634.2813 Q2087.625,634.8125 2086.1094,634.8125 Q2084.3281,634.8125 2082.9063,634.0781 Q2081.75,633.4844 2080.9375,632.2188 Q2080.125,630.9531 2080.125,629.4688 L2080.125,628.1094 Q2080.125,626.5469 2080.8438,625.2031 Q2081.5781,623.8438 2082.8594,623.1094 Q2084.1563,622.375 2085.6094,622.375 Q2086.4688,622.375 2087.2188,622.5781 Q2087.9844,622.7813 2088.6406,623.1875 Z " fill="#000000"/><text fill="#000000" font-family="sans-serif" font-size="20" font-style="italic" lengthAdjust="spacing" textLength="89" x="2206" y="623.8711">«Service»</text><text fill="#000000" font-family="sans-serif" font-size="20" lengthAdjust="spacing" textLength="284" x="2108.5" y="649.0273">JobOpeningManagementService</text><line style="stroke:#181818;stroke-width:0.5;" x1="1826" x2="2640" y1="658.4219" y2="658.4219"/><line style="stroke:#181818;stroke-width:0.5;" x1="1826" x2="2640" y1="666.4219" y2="666.4219"/><ellipse cx="1836" cy="684.5" fill="#84BE84" rx="3" ry="3" style="stroke:#038048;stroke-width:1.0;"/><text fill="#000000" font-family="sans-serif" font-size="20" lengthAdjust="spacing" textLength="789" x="1846" y="691.1836">getJobOpeningsFromCostumerCodes(List&lt;CustomerCode&gt; assignedCostumerCodesList)</text></g><!--class JobOpeningListDTOService--><g id="elem_JobOpeningListDTOService"><rect codeLine="69" fill="#F1F1F1" height="101.4688" id="JobOpeningListDTOService" rx="2.5" ry="2.5" style="stroke:#181818;stroke-width:0.5;" width="466" x="2393" y="441.6094"/><ellipse cx="2500" cy="471.7656" fill="#ADD1B2" rx="12" ry="12" style="stroke:#181818;stroke-width:1.0;"/><path d="M2502.1406,466.6875 Q2502.3281,466.4375 2502.5469,466.3125 Q2502.7656,466.1719 2503.0156,466.1719 Q2503.4531,466.1719 2503.7344,466.4844 Q2504.0156,466.7813 2504.0156,467.5 L2504.0156,469.2031 Q2504.0156,469.9219 2503.7344,470.2344 Q2503.4531,470.5469 2503.0156,470.5469 Q2502.625,470.5469 2502.375,470.3125 Q2502.125,470.0938 2502.0156,469.4844 Q2501.9531,469.0625 2501.7344,468.8438 Q2501.3438,468.4063 2500.625,468.1406 Q2499.9063,467.875 2499.1875,467.875 Q2498.2813,467.875 2497.5313,468.2656 Q2496.7813,468.6563 2496.2031,469.5469 Q2495.625,470.4219 2495.625,471.625 L2495.625,472.9219 Q2495.625,474.375 2496.6719,475.3438 Q2497.7344,476.3125 2499.5938,476.3125 Q2500.7031,476.3125 2501.4844,476 Q2501.9219,475.8281 2502.4375,475.3125 Q2502.75,475 2502.9219,474.9063 Q2503.0938,474.8125 2503.3281,474.8125 Q2503.7188,474.8125 2504.0156,475.125 Q2504.3281,475.4219 2504.3281,475.8281 Q2504.3281,476.2344 2503.9219,476.7031 Q2503.3281,477.3906 2502.3906,477.7813 Q2501.125,478.3125 2499.6094,478.3125 Q2497.8281,478.3125 2496.4063,477.5781 Q2495.25,476.9844 2494.4375,475.7188 Q2493.625,474.4531 2493.625,472.9688 L2493.625,471.6094 Q2493.625,470.0469 2494.3438,468.7031 Q2495.0781,467.3438 2496.3594,466.6094 Q2497.6563,465.875 2499.1094,465.875 Q2499.9688,465.875 2500.7188,466.0781 Q2501.4844,466.2813 2502.1406,466.6875 Z " fill="#000000"/><text fill="#000000" font-family="sans-serif" font-size="20" font-style="italic" lengthAdjust="spacing" textLength="89" x="2599" y="467.3711">«Service»</text><text fill="#000000" font-family="sans-serif" font-size="20" lengthAdjust="spacing" textLength="243" x="2522" y="492.5273">JobOpeningListDTOService</text><line style="stroke:#181818;stroke-width:0.5;" x1="2394" x2="2858" y1="501.9219" y2="501.9219"/><line style="stroke:#181818;stroke-width:0.5;" x1="2394" x2="2858" y1="509.9219" y2="509.9219"/><ellipse cx="2404" cy="528" fill="#84BE84" rx="3" ry="3" style="stroke:#038048;stroke-width:1.0;"/><text fill="#000000" font-family="sans-serif" font-size="20" lengthAdjust="spacing" textLength="439" x="2414" y="534.6836">convertToDTO(List&lt;JobOpening&gt; jobOpeningList)</text></g><!--class JobOpening--><g id="elem_JobOpening"><rect codeLine="73" fill="#F1F1F1" height="327.875" id="JobOpening" rx="2.5" ry="2.5" style="stroke:#181818;stroke-width:0.5;" width="330" x="2579" y="785.6094"/><ellipse cx="2661.5" cy="828.3438" fill="#ADD1B2" rx="12" ry="12" style="stroke:#181818;stroke-width:1.0;"/><path d="M2663.6406,823.2656 Q2663.8281,823.0156 2664.0469,822.8906 Q2664.2656,822.75 2664.5156,822.75 Q2664.9531,822.75 2665.2344,823.0625 Q2665.5156,823.3594 2665.5156,824.0781 L2665.5156,825.7813 Q2665.5156,826.5 2665.2344,826.8125 Q2664.9531,827.125 2664.5156,827.125 Q2664.125,827.125 2663.875,826.8906 Q2663.625,826.6719 2663.5156,826.0625 Q2663.4531,825.6406 2663.2344,825.4219 Q2662.8438,824.9844 2662.125,824.7188 Q2661.4063,824.4531 2660.6875,824.4531 Q2659.7813,824.4531 2659.0313,824.8438 Q2658.2813,825.2344 2657.7031,826.125 Q2657.125,827 2657.125,828.2031 L2657.125,829.5 Q2657.125,830.9531 2658.1719,831.9219 Q2659.2344,832.8906 2661.0938,832.8906 Q2662.2031,832.8906 2662.9844,832.5781 Q2663.4219,832.4063 2663.9375,831.8906 Q2664.25,831.5781 2664.4219,831.4844 Q2664.5938,831.3906 2664.8281,831.3906 Q2665.2188,831.3906 2665.5156,831.7031 Q2665.8281,832 2665.8281,832.4063 Q2665.8281,832.8125 2665.4219,833.2813 Q2664.8281,833.9688 2663.8906,834.3594 Q2662.625,834.8906 2661.1094,834.8906 Q2659.3281,834.8906 2657.9063,834.1563 Q2656.75,833.5625 2655.9375,832.2969 Q2655.125,831.0313 2655.125,829.5469 L2655.125,828.1875 Q2655.125,826.625 2655.8438,825.2813 Q2656.5781,823.9219 2657.8594,823.1875 Q2659.1563,822.4531 2660.6094,822.4531 Q2661.4688,822.4531 2662.2188,822.6563 Q2662.9844,822.8594 2663.6406,823.2656 Z " fill="#000000"/><text fill="#000000" font-family="sans-serif" font-size="20" font-style="italic" lengthAdjust="spacing" textLength="91" x="2716" y="811.3711">«Domain»</text><text fill="#000000" font-family="sans-serif" font-size="20" font-style="italic" lengthAdjust="spacing" textLength="160" x="2681.5" y="836.5273">«Aggregate Root»</text><text fill="#000000" font-family="sans-serif" font-size="20" lengthAdjust="spacing" textLength="105" x="2709" y="861.6836">JobOpening</text><line style="stroke:#181818;stroke-width:0.5;" x1="2580" x2="2908" y1="871.0781" y2="871.0781"/><rect fill="none" height="6" style="stroke:#C82930;stroke-width:1.0;" width="6" x="2587" y="886.1563"/><text fill="#000000" font-family="sans-serif" font-size="20" lengthAdjust="spacing" textLength="124" x="2600" y="895.8398">String function</text><rect fill="none" height="6" style="stroke:#C82930;stroke-width:1.0;" width="6" x="2587" y="911.3125"/><text fill="#000000" font-family="sans-serif" font-size="20" lengthAdjust="spacing" textLength="240" x="2600" y="920.9961">ContractType contractType</text><rect fill="none" height="6" style="stroke:#C82930;stroke-width:1.0;" width="6" x="2587" y="936.4688"/><text fill="#000000" font-family="sans-serif" font-size="20" lengthAdjust="spacing" textLength="196" x="2600" y="946.1523">WorkMode workMode</text><rect fill="none" height="6" style="stroke:#C82930;stroke-width:1.0;" width="6" x="2587" y="961.625"/><text fill="#000000" font-family="sans-serif" font-size="20" lengthAdjust="spacing" textLength="251" x="2600" y="971.3086">Address jobOpeningAddress</text><rect fill="none" height="6" style="stroke:#C82930;stroke-width:1.0;" width="6" x="2587" y="986.7813"/><text fill="#000000" font-family="sans-serif" font-size="20" lengthAdjust="spacing" textLength="174" x="2600" y="996.4648">String jobReference</text><rect fill="none" height="6" style="stroke:#C82930;stroke-width:1.0;" width="6" x="2587" y="1011.9375"/><text fill="#000000" font-family="sans-serif" font-size="20" lengthAdjust="spacing" textLength="194" x="2600" y="1021.6211">Integer numVacancies</text><rect fill="none" height="6" style="stroke:#C82930;stroke-width:1.0;" width="6" x="2587" y="1037.0938"/><text fill="#000000" font-family="sans-serif" font-size="20" lengthAdjust="spacing" textLength="152" x="2600" y="1046.7773">String description</text><rect fill="none" height="6" style="stroke:#C82930;stroke-width:1.0;" width="6" x="2587" y="1062.25"/><text fill="#000000" font-family="sans-serif" font-size="20" lengthAdjust="spacing" textLength="303" x="2600" y="1071.9336">File requirementsSpecificationsFile</text><line style="stroke:#181818;stroke-width:0.5;" x1="2580" x2="2908" y1="1080.3281" y2="1080.3281"/><ellipse cx="2590" cy="1098.4063" fill="#84BE84" rx="3" ry="3" style="stroke:#038048;stroke-width:1.0;"/><text fill="#000000" font-family="sans-serif" font-size="20" lengthAdjust="spacing" textLength="70" x="2600" y="1105.0898">create()</text></g><!--link GenerateRequirementsTemplateFileUI to AbstractUI--><g id="link_GenerateRequirementsTemplateFileUI_AbstractUI"><path codeLine="87" d="M2318,172.1594 C2318,206.9094 2318,253.4794 2318,289.8294 " fill="none" id="GenerateRequirementsTemplateFileUI-to-AbstractUI" style="stroke:#181818;stroke-width:1.0;stroke-dasharray:7.0,7.0;"/><polygon fill="none" points="2325,289.8894,2318,309.8894,2311,289.8894,2325,289.8894" style="stroke:#181818;stroke-width:1.0;"/><text fill="#000000" font-family="sans-serif" font-size="20" lengthAdjust="spacing" textLength="99" x="2319" y="249.3711">implements</text></g><!--reverse link GenerateRequirementsTemplateFileController to GenerateRequirementsTemplateFileUI--><g id="link_GenerateRequirementsTemplateFileController_GenerateRequirementsTemplateFileUI"><path codeLine="88" d="M2102.91,121.6094 C2112.93,121.6094 2122.94,121.6094 2132.96,121.6094 " fill="none" id="GenerateRequirementsTemplateFileController-backto-GenerateRequirementsTemplateFileUI" style="stroke:#181818;stroke-width:1.0;stroke-dasharray:7.0,7.0;"/><polygon fill="#181818" points="2097.67,121.6094,2106.67,125.6094,2102.67,121.6094,2106.67,117.6094,2097.67,121.6094" style="stroke:#181818;stroke-width:1.0;"/></g><!--reverse link AuthorizationService to GenerateRequirementsTemplateFileController--><g id="link_AuthorizationService_GenerateRequirementsTemplateFileController"><path codeLine="90" d="M1564.88,121.6094 C1574.72,121.6094 1584.56,121.6094 1594.4,121.6094 " fill="none" id="AuthorizationService-backto-GenerateRequirementsTemplateFileController" style="stroke:#181818;stroke-width:1.0;stroke-dasharray:7.0,7.0;"/><polygon fill="#181818" points="1559.73,121.6094,1568.73,125.6094,1564.73,121.6094,1568.73,117.6094,1559.73,121.6094" style="stroke:#181818;stroke-width:1.0;"/></g><!--link GenerateRequirementsTemplateFileController to CustomerManagementService--><g id="link_GenerateRequirementsTemplateFileController_CustomerManagementService"><path codeLine="91" d="M1799.58,197.8294 C1733.35,305.1394 1613.35,499.5894 1555.27,593.6994 " fill="none" id="GenerateRequirementsTemplateFileController-to-CustomerManagementService" style="stroke:#181818;stroke-width:1.0;stroke-dasharray:7.0,7.0;"/><polygon fill="#181818" points="1552.55,598.1094,1560.6818,592.553,1555.1769,593.855,1553.8748,588.35,1552.55,598.1094" style="stroke:#181818;stroke-width:1.0;"/></g><!--link GenerateRequirementsTemplateFileController to JobOpeningManagementService--><g id="link_GenerateRequirementsTemplateFileController_JobOpeningManagementService"><path codeLine="92" d="M1901.45,197.8294 C1980.63,305.2494 2124.17,499.9794 2193.47,593.9794 " fill="none" id="GenerateRequirementsTemplateFileController-to-JobOpeningManagementService" style="stroke:#181818;stroke-width:1.0;stroke-dasharray:7.0,7.0;"/><polygon fill="#181818" points="2196.51,598.1094,2194.3868,588.4921,2193.5421,594.0855,2187.9486,593.2408,2196.51,598.1094" style="stroke:#181818;stroke-width:1.0;"/></g><!--link GenerateRequirementsTemplateFileController to JobOpeningListDTOService--><g id="link_GenerateRequirementsTemplateFileController_JobOpeningListDTOService"><path codeLine="93" d="M1961.51,197.8194 C1975.94,207.6694 1990.39,217.7594 2004,227.6094 C2111.18,305.1694 2117.98,355.9494 2238,411.6094 C2284.61,433.2194 2337.06,448.9894 2387.97,460.4894 " fill="none" id="GenerateRequirementsTemplateFileController-to-JobOpeningListDTOService" style="stroke:#181818;stroke-width:1.0;stroke-dasharray:7.0,7.0;"/><polygon fill="#181818" points="2392.89,461.5894,2384.9884,455.7102,2388.0121,460.4911,2383.2312,463.5149,2392.89,461.5894" style="stroke:#181818;stroke-width:1.0;"/></g><!--link GenerateRequirementsTemplateFileController to RequirementsTemplateManagerService--><g id="link_GenerateRequirementsTemplateFileController_RequirementsTemplateManagerService"><path codeLine="94" d="M1594.47,193.2394 C1588.6,194.7294 1582.77,196.1894 1577,197.6094 C1453.17,228.1394 1316.08,258.3494 1196.54,283.5394 " fill="none" id="GenerateRequirementsTemplateFileController-to-RequirementsTemplateManagerService" style="stroke:#181818;stroke-width:1.0;stroke-dasharray:7.0,7.0;"/><polygon fill="#181818" points="1191.58,284.5794,1201.211,286.6395,1196.4727,283.5493,1199.5629,278.8111,1191.58,284.5794" style="stroke:#181818;stroke-width:1.0;"/></g><!--link CustomerManagementService to CustomerRepository--><g id="link_CustomerManagementService_CustomerRepository"><path codeLine="97" d="M1466.14,699.3194 C1413.92,745.7894 1335.09,815.9394 1274.34,869.9994 " fill="none" id="CustomerManagementService-to-CustomerRepository" style="stroke:#181818;stroke-width:1.0;"/><polygon fill="#181818" points="1270.37,873.5394,1279.7598,870.5676,1274.1133,870.2247,1274.4562,864.5782,1270.37,873.5394" style="stroke:#181818;stroke-width:1.0;"/></g><!--link CustomerManagementService to Customer--><g id="link_CustomerManagementService_Customer"><path codeLine="98" d="M1542.62,699.3194 C1557.53,735.2794 1578.32,785.4194 1597.35,831.3094 " fill="none" id="CustomerManagementService-to-Customer" style="stroke:#181818;stroke-width:1.0;"/><polygon fill="#181818" points="1599.31,836.0194,1599.53,826.173,1597.3819,831.4061,1592.1487,829.258,1599.31,836.0194" style="stroke:#181818;stroke-width:1.0;"/></g><!--link JobOpeningManagementService to JobOpeningRepository--><g id="link_JobOpeningManagementService_JobOpeningRepository"><path codeLine="99" d="M2228.01,699.3194 C2223.4,745.3294 2216.45,814.5394 2211.05,868.3694 " fill="none" id="JobOpeningManagementService-to-JobOpeningRepository" style="stroke:#181818;stroke-width:1.0;"/><polygon fill="#181818" points="2210.53,873.5394,2215.3862,864.971,2211.0162,868.5631,2207.4241,864.1931,2210.53,873.5394" style="stroke:#181818;stroke-width:1.0;"/></g><!--link JobOpeningManagementService to JobOpening--><g id="link_JobOpeningManagementService_JobOpening"><path codeLine="100" d="M2382.78,699.2194 C2440.91,721.5694 2506.66,750.8294 2562,785.6094 C2566.24,788.2794 2570.48,791.0394 2574.71,793.8994 " fill="none" id="JobOpeningManagementService-to-JobOpening" style="stroke:#181818;stroke-width:1.0;"/><polygon fill="#181818" points="2578.93,796.7794,2573.733,788.4133,2574.794,793.9698,2569.2376,795.0309,2578.93,796.7794" style="stroke:#181818;stroke-width:1.0;"/></g><!--link JobOpeningListDTOService to JobOpening--><g id="link_JobOpeningListDTOService_JobOpening"><path codeLine="101" d="M2648.1,542.6694 C2652.04,552.4794 2655.88,562.7794 2659,572.6094 C2680.3,639.5894 2698.43,714.8794 2712.4,780.4094 " fill="none" id="JobOpeningListDTOService-to-JobOpening" style="stroke:#181818;stroke-width:1.0;"/><polygon fill="#181818" points="2713.48,785.5094,2715.5189,775.8739,2712.4392,780.6189,2707.6941,777.5392,2713.48,785.5094" style="stroke:#181818;stroke-width:1.0;"/></g><!--link JobOpeningRepository to JobOpening--><g id="link_JobOpeningRepository_JobOpening"><path codeLine="102" d="M2544.03,949.6094 C2553.9,949.6094 2563.76,949.6094 2573.63,949.6094 " fill="none" id="JobOpeningRepository-to-JobOpening" style="stroke:#181818;stroke-width:1.0;"/><polygon fill="#181818" points="2578.79,949.6094,2569.79,945.6094,2573.79,949.6094,2569.79,953.6094,2578.79,949.6094" style="stroke:#181818;stroke-width:1.0;"/></g><!--link RequirementsTemplateManagerService to RequirementSpecificationRepository--><g id="link_RequirementsTemplateManagerService_RequirementSpecificationRepository"><path codeLine="104" d="M764.65,411.6894 C671.57,461.7494 541.46,531.7294 447.13,582.4594 " fill="none" id="RequirementsTemplateManagerService-to-RequirementSpecificationRepository" style="stroke:#181818;stroke-width:1.0;stroke-dasharray:7.0,7.0;"/><polygon fill="#181818" points="442.67,584.8594,452.4904,584.1106,447.0714,582.4872,448.6948,577.0683,442.67,584.8594" style="stroke:#181818;stroke-width:1.0;"/></g><!--link RequirementsTemplateManagerService to RequirementsTemplatePlugin--><g id="link_RequirementsTemplateManagerService_RequirementsTemplatePlugin"><path codeLine="105" d="M881,411.6894 C881,456.8794 881,518.2994 881,567.1494 " fill="none" id="RequirementsTemplateManagerService-to-RequirementsTemplatePlugin" style="stroke:#181818;stroke-width:1.0;stroke-dasharray:7.0,7.0;"/><polygon fill="#181818" points="881,572.4294,885,563.4294,881,567.4294,877,563.4294,881,572.4294" style="stroke:#181818;stroke-width:1.0;"/></g><!--link RequirementsTemplatePlugin to RequirementsTemplateParser--><g id="link_RequirementsTemplatePlugin_RequirementsTemplateParser"><path codeLine="106" d="M846.35,724.6694 C822.04,777.3594 790.08,846.5894 768.18,894.0494 " fill="none" id="RequirementsTemplatePlugin-to-RequirementsTemplateParser" style="stroke:#181818;stroke-width:1.0;stroke-dasharray:7.0,7.0;"/><polygon fill="#181818" points="765.96,898.8694,773.375,892.3873,768.0635,894.3334,766.1174,889.0218,765.96,898.8694" style="stroke:#181818;stroke-width:1.0;"/></g><!--SRC=[fLPDRzim3BtxLmZOeHwAkiLsAu80QVg13arR9Ebw6J2eCkDeiILFafkcs_xxACMEbSnEa-ucYUGZnKTIqZCkSgfebaesWvZ4CA55QYwbC2F-2kJJIN0mDIRNfyV7UKg5AR8qOZ8xPYdL-YZcD47Z833Sf5Rxv3FfMmavhoHS650Joe3qdhHHb9c7Q_8h-41YEPhAUVWn-1C43erSWG153GpXPy4LP22C7aE6VWrSyXJGiDF95MWKKCEbw7O9GXs-0wgF5rGoJK4X9CtpbBCAqG8o1QY8W8Sa0VD5Fjtb8BX8RhWsxXHUSgcCZnZMMkVZE_B3ttc1DGKqe88ce4QWdZdcgTFHorKP34RWMLqgcTMkjdkrjiiytCAyyXPwOACS69-KToUgHT0S_fhA47AfkP5gOIa2fJ5H8EmLlebEHwsavPNQFDdBOUJ_aSlxj4Yui46uHUbFmDnNNlEvCWtzX3bAQwR3jznIfLqjvMvHbT4KsCmYZHPOiI-XNHBZ5Os7sYlCL2h-wc9gAuLK9Wd4N3pWyICtqtjG6TVQtY8SIWIFeeZqc6FpZ6gmPr7_OJI-6rmClmzwjxshYw7djCxp6e7tFe6u7_xBtrF1qzZZwPHWEhXPDBRCW1esnNLVQXmWeFeoXh1VQ2FB3M6Un8klqbbsY2kNLMP6cqtImqGa0cBVYtOTUv5HdlRY64U79WNcJj2ioOsNXBUou9ng-WmXdAxioyjN0UYpnKFfR4i86p6WetE9oiBvx2M9WWIhXGobDEwkHsGzSzx6ocIMKx6uHNHCwcgDahK8gdoNeyV9RC5wOAxwFOYmiMvsOgPMrxR3rmWABKCT_qfTGjkOR0p12d0mjFbdKZm3pcff1ujpLfjslTdIYhy38oEZhEAa4Axt70_2FNRZHMw9g3SeUvHgDh3SpSi5dbN4rF6K9pKwYeOm0MKB4a-lyM55weWeig-KKS4uUCgOCAPuNaRZ1ezgdO1MxBzwjYeFi9qauqk5m7kxEx-Z8ezsUQnF2SVzKXJie1-bC35HTu_7EmZsUEWh-AP9knTEX22jasblf2szj1zMjxKdziLv-vE2zR7i2N935yX3-w0-YkLS77KRPkms8yyWs3Pih6BJ8xQ7KT0wILhrl7TYNINOuNktaU2MRzGxa3R-GC6Mxr6hfVkz17y1]--></g></svg>