<?xml version="1.0" encoding="us-ascii" standalone="no"?><svg xmlns="http://www.w3.org/2000/svg" xmlns:xlink="http://www.w3.org/1999/xlink" contentStyleType="text/css" height="1543px" preserveAspectRatio="none" style="width:3256px;height:1543px;background:#FFFFFF;" version="1.1" viewBox="0 0 3256 1543" width="3256px" zoomAndPan="magnify"><defs/><g><text fill="#000000" font-family="sans-serif" font-size="14" font-weight="bold" lengthAdjust="spacing" textLength="187" x="1531.5" y="30.1074">US1012 Sequence Diagram</text><rect fill="#DDDDDD" height="1485.0879" style="stroke:#181818;stroke-width:0.5;" width="364.5" x="2885.5" y="45.6211"/><text fill="#000000" font-family="sans-serif" font-size="13" font-weight="bold" lengthAdjust="spacing" textLength="41" x="3047.25" y="59.6494">Plugin</text><rect fill="#FFFFFF" height="1297.6035" style="stroke:#181818;stroke-width:1.0;" width="10" x="63.5" y="137.8633"/><rect fill="#FFFFFF" height="31.291" style="stroke:#181818;stroke-width:1.0;" width="10" x="376.5" y="203.4453"/><rect fill="#FFFFFF" height="1097.8574" style="stroke:#181818;stroke-width:1.0;" width="10" x="376.5" y="266.0273"/><rect fill="#FFFFFF" height="30" style="stroke:#181818;stroke-width:1.0;" width="10" x="676.5" y="297.3184"/><rect fill="#FFFFFF" height="554.7832" style="stroke:#181818;stroke-width:1.0;" width="10" x="676.5" y="358.6094"/><rect fill="#FFFFFF" height="419.2012" style="stroke:#181818;stroke-width:1.0;" width="10" x="676.5" y="944.6836"/><rect fill="#FFFFFF" height="30" style="stroke:#181818;stroke-width:1.0;" width="10" x="1093.5" y="389.9004"/><rect fill="#FFFFFF" height="187.1641" style="stroke:#181818;stroke-width:1.0;" width="10" x="1281" y="451.1914"/><rect fill="#FFFFFF" height="30" style="stroke:#181818;stroke-width:1.0;" width="10" x="1531" y="494.1279"/><rect fill="#FFFFFF" height="30" style="stroke:#181818;stroke-width:1.0;" width="10" x="1650" y="593.3555"/><rect fill="#FFFFFF" height="102.582" style="stroke:#181818;stroke-width:1.0;" width="10" x="1811" y="661.6465"/><rect fill="#FFFFFF" height="102.582" style="stroke:#181818;stroke-width:1.0;" width="10" x="2029" y="787.5195"/><rect fill="#FFFFFF" height="30" style="stroke:#181818;stroke-width:1.0;" width="10" x="2212.5" y="719.2285"/><rect fill="#FFFFFF" height="30" style="stroke:#181818;stroke-width:1.0;" width="10" x="2346.5" y="845.1016"/><rect fill="#FFFFFF" height="31.291" style="stroke:#181818;stroke-width:1.0;" width="10" x="2521" y="975.9746"/><rect fill="#FFFFFF" height="267.0371" style="stroke:#181818;stroke-width:1.0;" width="10" x="2521" y="1065.5566"/><rect fill="#FFFFFF" height="20" style="stroke:#181818;stroke-width:1.0;" width="10" x="2789" y="1007.2656"/><rect fill="#FFFFFF" height="204.4551" style="stroke:#181818;stroke-width:1.0;" width="10" x="2959.5" y="1096.8477"/><rect fill="#FFFFFF" height="30" style="stroke:#181818;stroke-width:1.0;" width="10" x="3164.5" y="1184.0752"/><rect fill="none" height="80.582" style="stroke:#000000;stroke-width:1.5;" width="532.5" x="1172" y="550.7734"/><rect fill="none" height="80.582" style="stroke:#000000;stroke-width:1.5;" width="610" x="1694.5" y="676.6465"/><rect fill="none" height="80.582" style="stroke:#000000;stroke-width:1.5;" width="481" x="1927.5" y="802.5195"/><line style="stroke:#181818;stroke-width:0.5;stroke-dasharray:5.0,5.0;" x1="68" x2="68" y1="127.8633" y2="1444.4668"/><line style="stroke:#181818;stroke-width:0.5;stroke-dasharray:5.0,5.0;" x1="381" x2="381" y1="127.8633" y2="1444.4668"/><line style="stroke:#181818;stroke-width:0.5;stroke-dasharray:5.0,5.0;" x1="681" x2="681" y1="127.8633" y2="1444.4668"/><line style="stroke:#181818;stroke-width:0.5;stroke-dasharray:5.0,5.0;" x1="1098" x2="1098" y1="127.8633" y2="1444.4668"/><line style="stroke:#181818;stroke-width:0.5;stroke-dasharray:5.0,5.0;" x1="1286" x2="1286" y1="127.8633" y2="1444.4668"/><line style="stroke:#181818;stroke-width:0.5;stroke-dasharray:5.0,5.0;" x1="1535.5" x2="1535.5" y1="127.8633" y2="1444.4668"/><line style="stroke:#181818;stroke-width:0.5;stroke-dasharray:5.0,5.0;" x1="1654.5" x2="1654.5" y1="127.8633" y2="1444.4668"/><line style="stroke:#181818;stroke-width:0.5;stroke-dasharray:5.0,5.0;" x1="1815.5" x2="1815.5" y1="127.8633" y2="1444.4668"/><line style="stroke:#181818;stroke-width:0.5;stroke-dasharray:5.0,5.0;" x1="2033.5" x2="2033.5" y1="127.8633" y2="1444.4668"/><line style="stroke:#181818;stroke-width:0.5;stroke-dasharray:5.0,5.0;" x1="2217.5" x2="2217.5" y1="127.8633" y2="1444.4668"/><line style="stroke:#181818;stroke-width:0.5;stroke-dasharray:5.0,5.0;" x1="2351.5" x2="2351.5" y1="127.8633" y2="1444.4668"/><line style="stroke:#181818;stroke-width:0.5;stroke-dasharray:5.0,5.0;" x1="2525.5" x2="2525.5" y1="127.8633" y2="1444.4668"/><line style="stroke:#181818;stroke-width:0.5;stroke-dasharray:5.0,5.0;" x1="2793.5" x2="2793.5" y1="127.8633" y2="1444.4668"/><line style="stroke:#181818;stroke-width:0.5;stroke-dasharray:5.0,5.0;" x1="2964.5" x2="2964.5" y1="127.8633" y2="1444.4668"/><line style="stroke:#181818;stroke-width:0.5;stroke-dasharray:5.0,5.0;" x1="3169" x2="3169" y1="127.8633" y2="1444.4668"/><text fill="#000000" font-family="sans-serif" font-size="14" lengthAdjust="spacing" textLength="121" x="5" y="124.3496">Customer Manager</text><ellipse cx="68.5" cy="57.7422" fill="#E2E2F0" rx="8" ry="8" style="stroke:#181818;stroke-width:0.5;"/><path d="M68.5,65.7422 L68.5,92.7422 M55.5,73.7422 L81.5,73.7422 M68.5,92.7422 L55.5,107.7422 M68.5,92.7422 L81.5,107.7422 " fill="none" style="stroke:#181818;stroke-width:0.5;"/><text fill="#000000" font-family="sans-serif" font-size="14" lengthAdjust="spacing" textLength="121" x="5" y="1458.5742">Customer Manager</text><ellipse cx="68.5" cy="1470.5879" fill="#E2E2F0" rx="8" ry="8" style="stroke:#181818;stroke-width:0.5;"/><path d="M68.5,1478.5879 L68.5,1505.5879 M55.5,1486.5879 L81.5,1486.5879 M68.5,1505.5879 L55.5,1520.5879 M68.5,1505.5879 L81.5,1520.5879 " fill="none" style="stroke:#181818;stroke-width:0.5;"/><rect fill="#E2E2F0" height="51.2422" rx="2.5" ry="2.5" style="stroke:#181818;stroke-width:0.5;" width="265" x="249" y="75.6211"/><text fill="#000000" font-family="sans-serif" font-size="14" lengthAdjust="spacing" textLength="95" x="334" y="97.7285">&#171;presentation&#187;</text><text fill="#000000" font-family="sans-serif" font-size="14" lengthAdjust="spacing" textLength="251" x="256" y="116.3496">:GenerateInterviewModelTemplateFileUI</text><rect fill="#E2E2F0" height="51.2422" rx="2.5" ry="2.5" style="stroke:#181818;stroke-width:0.5;" width="265" x="249" y="1443.4668"/><text fill="#000000" font-family="sans-serif" font-size="14" lengthAdjust="spacing" textLength="95" x="334" y="1465.5742">&#171;presentation&#187;</text><text fill="#000000" font-family="sans-serif" font-size="14" lengthAdjust="spacing" textLength="251" x="256" y="1484.1953">:GenerateInterviewModelTemplateFileUI</text><rect fill="#E2E2F0" height="51.2422" rx="2.5" ry="2.5" style="stroke:#181818;stroke-width:0.5;" width="315" x="524" y="75.6211"/><text fill="#000000" font-family="sans-serif" font-size="14" lengthAdjust="spacing" textLength="84" x="639.5" y="97.7285">&#171;application&#187;</text><text fill="#000000" font-family="sans-serif" font-size="14" lengthAdjust="spacing" textLength="301" x="531" y="116.3496">:GenerateInterviewModelTemplateFileController</text><rect fill="#E2E2F0" height="51.2422" rx="2.5" ry="2.5" style="stroke:#181818;stroke-width:0.5;" width="315" x="524" y="1443.4668"/><text fill="#000000" font-family="sans-serif" font-size="14" lengthAdjust="spacing" textLength="84" x="639.5" y="1465.5742">&#171;application&#187;</text><text fill="#000000" font-family="sans-serif" font-size="14" lengthAdjust="spacing" textLength="301" x="531" y="1484.1953">:GenerateInterviewModelTemplateFileController</text><rect fill="#E2E2F0" height="51.2422" rx="2.5" ry="2.5" style="stroke:#181818;stroke-width:0.5;" width="147" x="1025" y="75.6211"/><text fill="#000000" font-family="sans-serif" font-size="14" lengthAdjust="spacing" textLength="61" x="1068" y="97.7285">&#171;service&#187;</text><text fill="#000000" font-family="sans-serif" font-size="14" lengthAdjust="spacing" textLength="133" x="1032" y="116.3496">:AuthorizationService</text><rect fill="#E2E2F0" height="51.2422" rx="2.5" ry="2.5" style="stroke:#181818;stroke-width:0.5;" width="147" x="1025" y="1443.4668"/><text fill="#000000" font-family="sans-serif" font-size="14" lengthAdjust="spacing" textLength="61" x="1068" y="1465.5742">&#171;service&#187;</text><text fill="#000000" font-family="sans-serif" font-size="14" lengthAdjust="spacing" textLength="133" x="1032" y="1484.1953">:AuthorizationService</text><rect fill="#E2E2F0" height="51.2422" rx="2.5" ry="2.5" style="stroke:#181818;stroke-width:0.5;" width="208" x="1182" y="75.6211"/><text fill="#000000" font-family="sans-serif" font-size="14" lengthAdjust="spacing" textLength="61" x="1255.5" y="97.7285">&#171;service&#187;</text><text fill="#000000" font-family="sans-serif" font-size="14" lengthAdjust="spacing" textLength="194" x="1189" y="116.3496">:CustomerManagementService</text><rect fill="#E2E2F0" height="51.2422" rx="2.5" ry="2.5" style="stroke:#181818;stroke-width:0.5;" width="208" x="1182" y="1443.4668"/><text fill="#000000" font-family="sans-serif" font-size="14" lengthAdjust="spacing" textLength="61" x="1255.5" y="1465.5742">&#171;service&#187;</text><text fill="#000000" font-family="sans-serif" font-size="14" lengthAdjust="spacing" textLength="194" x="1189" y="1484.1953">:CustomerManagementService</text><text fill="#000000" font-family="sans-serif" font-size="14" lengthAdjust="spacing" textLength="79" x="1493.5" y="105.7285">&#171;repository&#187;</text><text fill="#000000" font-family="sans-serif" font-size="14" lengthAdjust="spacing" textLength="133" x="1466.5" y="124.3496">:CustomerRepository</text><path d="M1518,54.6211 C1518,44.6211 1536,44.6211 1536,44.6211 C1536,44.6211 1554,44.6211 1554,54.6211 L1554,80.6211 C1554,90.6211 1536,90.6211 1536,90.6211 C1536,90.6211 1518,90.6211 1518,80.6211 L1518,54.6211 " fill="#E2E2F0" style="stroke:#181818;stroke-width:1.5;"/><path d="M1518,54.6211 C1518,64.6211 1536,64.6211 1536,64.6211 C1536,64.6211 1554,64.6211 1554,54.6211 " fill="none" style="stroke:#181818;stroke-width:1.5;"/><text fill="#000000" font-family="sans-serif" font-size="14" lengthAdjust="spacing" textLength="79" x="1493.5" y="1458.5742">&#171;repository&#187;</text><text fill="#000000" font-family="sans-serif" font-size="14" lengthAdjust="spacing" textLength="133" x="1466.5" y="1477.1953">:CustomerRepository</text><path d="M1518,1490.709 C1518,1480.709 1536,1480.709 1536,1480.709 C1536,1480.709 1554,1480.709 1554,1490.709 L1554,1516.709 C1554,1526.709 1536,1526.709 1536,1526.709 C1536,1526.709 1518,1526.709 1518,1516.709 L1518,1490.709 " fill="#E2E2F0" style="stroke:#181818;stroke-width:1.5;"/><path d="M1518,1490.709 C1518,1500.709 1536,1500.709 1536,1500.709 C1536,1500.709 1554,1500.709 1554,1490.709 " fill="none" style="stroke:#181818;stroke-width:1.5;"/><rect fill="#E2E2F0" height="51.2422" rx="2.5" ry="2.5" style="stroke:#181818;stroke-width:0.5;" width="79" x="1615.5" y="75.6211"/><text fill="#000000" font-family="sans-serif" font-size="14" lengthAdjust="spacing" textLength="62" x="1624" y="97.7285">&#171;domain&#187;</text><text fill="#000000" font-family="sans-serif" font-size="14" lengthAdjust="spacing" textLength="65" x="1622.5" y="116.3496">:Customer</text><rect fill="#E2E2F0" height="51.2422" rx="2.5" ry="2.5" style="stroke:#181818;stroke-width:0.5;" width="79" x="1615.5" y="1443.4668"/><text fill="#000000" font-family="sans-serif" font-size="14" lengthAdjust="spacing" textLength="62" x="1624" y="1465.5742">&#171;domain&#187;</text><text fill="#000000" font-family="sans-serif" font-size="14" lengthAdjust="spacing" textLength="65" x="1622.5" y="1484.1953">:Customer</text><rect fill="#E2E2F0" height="51.2422" rx="2.5" ry="2.5" style="stroke:#181818;stroke-width:0.5;" width="223" x="1704.5" y="75.6211"/><text fill="#000000" font-family="sans-serif" font-size="14" lengthAdjust="spacing" textLength="61" x="1785.5" y="97.7285">&#171;service&#187;</text><text fill="#000000" font-family="sans-serif" font-size="14" lengthAdjust="spacing" textLength="209" x="1711.5" y="116.3496">:JobOpeningManagementService</text><rect fill="#E2E2F0" height="51.2422" rx="2.5" ry="2.5" style="stroke:#181818;stroke-width:0.5;" width="223" x="1704.5" y="1443.4668"/><text fill="#000000" font-family="sans-serif" font-size="14" lengthAdjust="spacing" textLength="61" x="1785.5" y="1465.5742">&#171;service&#187;</text><text fill="#000000" font-family="sans-serif" font-size="14" lengthAdjust="spacing" textLength="209" x="1711.5" y="1484.1953">:JobOpeningManagementService</text><rect fill="#E2E2F0" height="51.2422" rx="2.5" ry="2.5" style="stroke:#181818;stroke-width:0.5;" width="193" x="1937.5" y="75.6211"/><text fill="#000000" font-family="sans-serif" font-size="14" lengthAdjust="spacing" textLength="61" x="2003.5" y="97.7285">&#171;service&#187;</text><text fill="#000000" font-family="sans-serif" font-size="14" lengthAdjust="spacing" textLength="179" x="1944.5" y="116.3496">:JobOpeningListDTOService</text><rect fill="#E2E2F0" height="51.2422" rx="2.5" ry="2.5" style="stroke:#181818;stroke-width:0.5;" width="193" x="1937.5" y="1443.4668"/><text fill="#000000" font-family="sans-serif" font-size="14" lengthAdjust="spacing" textLength="61" x="2003.5" y="1465.5742">&#171;service&#187;</text><text fill="#000000" font-family="sans-serif" font-size="14" lengthAdjust="spacing" textLength="179" x="1944.5" y="1484.1953">:JobOpeningListDTOService</text><text fill="#000000" font-family="sans-serif" font-size="14" lengthAdjust="spacing" textLength="79" x="2175" y="105.7285">&#171;repository&#187;</text><text fill="#000000" font-family="sans-serif" font-size="14" lengthAdjust="spacing" textLength="148" x="2140.5" y="124.3496">:JobOpeningRepository</text><path d="M2199.5,54.6211 C2199.5,44.6211 2217.5,44.6211 2217.5,44.6211 C2217.5,44.6211 2235.5,44.6211 2235.5,54.6211 L2235.5,80.6211 C2235.5,90.6211 2217.5,90.6211 2217.5,90.6211 C2217.5,90.6211 2199.5,90.6211 2199.5,80.6211 L2199.5,54.6211 " fill="#E2E2F0" style="stroke:#181818;stroke-width:1.5;"/><path d="M2199.5,54.6211 C2199.5,64.6211 2217.5,64.6211 2217.5,64.6211 C2217.5,64.6211 2235.5,64.6211 2235.5,54.6211 " fill="none" style="stroke:#181818;stroke-width:1.5;"/><text fill="#000000" font-family="sans-serif" font-size="14" lengthAdjust="spacing" textLength="79" x="2175" y="1458.5742">&#171;repository&#187;</text><text fill="#000000" font-family="sans-serif" font-size="14" lengthAdjust="spacing" textLength="148" x="2140.5" y="1477.1953">:JobOpeningRepository</text><path d="M2199.5,1490.709 C2199.5,1480.709 2217.5,1480.709 2217.5,1480.709 C2217.5,1480.709 2235.5,1480.709 2235.5,1490.709 L2235.5,1516.709 C2235.5,1526.709 2217.5,1526.709 2217.5,1526.709 C2217.5,1526.709 2199.5,1526.709 2199.5,1516.709 L2199.5,1490.709 " fill="#E2E2F0" style="stroke:#181818;stroke-width:1.5;"/><path d="M2199.5,1490.709 C2199.5,1500.709 2217.5,1500.709 2217.5,1500.709 C2217.5,1500.709 2235.5,1500.709 2235.5,1490.709 " fill="none" style="stroke:#181818;stroke-width:1.5;"/><rect fill="#E2E2F0" height="51.2422" rx="2.5" ry="2.5" style="stroke:#181818;stroke-width:0.5;" width="94" x="2304.5" y="75.6211"/><text fill="#000000" font-family="sans-serif" font-size="14" lengthAdjust="spacing" textLength="62" x="2320.5" y="97.7285">&#171;domain&#187;</text><text fill="#000000" font-family="sans-serif" font-size="14" lengthAdjust="spacing" textLength="80" x="2311.5" y="116.3496">:JobOpening</text><rect fill="#E2E2F0" height="51.2422" rx="2.5" ry="2.5" style="stroke:#181818;stroke-width:0.5;" width="94" x="2304.5" y="1443.4668"/><text fill="#000000" font-family="sans-serif" font-size="14" lengthAdjust="spacing" textLength="62" x="2320.5" y="1465.5742">&#171;domain&#187;</text><text fill="#000000" font-family="sans-serif" font-size="14" lengthAdjust="spacing" textLength="80" x="2311.5" y="1484.1953">:JobOpening</text><rect fill="#E2E2F0" height="51.2422" rx="2.5" ry="2.5" style="stroke:#181818;stroke-width:0.5;" width="235" x="2408.5" y="75.6211"/><text fill="#000000" font-family="sans-serif" font-size="14" lengthAdjust="spacing" textLength="61" x="2495.5" y="97.7285">&#171;service&#187;</text><text fill="#000000" font-family="sans-serif" font-size="14" lengthAdjust="spacing" textLength="221" x="2415.5" y="116.3496">:InterviewTemplateManagerService</text><rect fill="#E2E2F0" height="51.2422" rx="2.5" ry="2.5" style="stroke:#181818;stroke-width:0.5;" width="235" x="2408.5" y="1443.4668"/><text fill="#000000" font-family="sans-serif" font-size="14" lengthAdjust="spacing" textLength="61" x="2495.5" y="1465.5742">&#171;service&#187;</text><text fill="#000000" font-family="sans-serif" font-size="14" lengthAdjust="spacing" textLength="221" x="2415.5" y="1484.1953">:InterviewTemplateManagerService</text><text fill="#000000" font-family="sans-serif" font-size="14" lengthAdjust="spacing" textLength="79" x="2751.5" y="105.7285">&#171;repository&#187;</text><text fill="#000000" font-family="sans-serif" font-size="14" lengthAdjust="spacing" textLength="165" x="2708.5" y="124.3496">:InterviewModelRepository</text><path d="M2776,54.6211 C2776,44.6211 2794,44.6211 2794,44.6211 C2794,44.6211 2812,44.6211 2812,54.6211 L2812,80.6211 C2812,90.6211 2794,90.6211 2794,90.6211 C2794,90.6211 2776,90.6211 2776,80.6211 L2776,54.6211 " fill="#E2E2F0" style="stroke:#181818;stroke-width:1.5;"/><path d="M2776,54.6211 C2776,64.6211 2794,64.6211 2794,64.6211 C2794,64.6211 2812,64.6211 2812,54.6211 " fill="none" style="stroke:#181818;stroke-width:1.5;"/><text fill="#000000" font-family="sans-serif" font-size="14" lengthAdjust="spacing" textLength="79" x="2751.5" y="1458.5742">&#171;repository&#187;</text><text fill="#000000" font-family="sans-serif" font-size="14" lengthAdjust="spacing" textLength="165" x="2708.5" y="1477.1953">:InterviewModelRepository</text><path d="M2776,1490.709 C2776,1480.709 2794,1480.709 2794,1480.709 C2794,1480.709 2812,1480.709 2812,1490.709 L2812,1516.709 C2812,1526.709 2794,1526.709 2794,1526.709 C2794,1526.709 2776,1526.709 2776,1516.709 L2776,1490.709 " fill="#E2E2F0" style="stroke:#181818;stroke-width:1.5;"/><path d="M2776,1490.709 C2776,1500.709 2794,1500.709 2794,1500.709 C2794,1500.709 2812,1500.709 2812,1490.709 " fill="none" style="stroke:#181818;stroke-width:1.5;"/><rect fill="#E2E2F0" height="51.2422" rx="2.5" ry="2.5" style="stroke:#181818;stroke-width:0.5;" width="150" x="2889.5" y="75.6211"/><text fill="#000000" font-family="sans-serif" font-size="14" lengthAdjust="spacing" textLength="55" x="2937" y="97.7285">&#171;Plugin&#187;</text><text fill="#000000" font-family="sans-serif" font-size="14" lengthAdjust="spacing" textLength="136" x="2896.5" y="116.3496">:InterviewModelPlugin</text><rect fill="#E2E2F0" height="51.2422" rx="2.5" ry="2.5" style="stroke:#181818;stroke-width:0.5;" width="150" x="2889.5" y="1443.4668"/><text fill="#000000" font-family="sans-serif" font-size="14" lengthAdjust="spacing" textLength="55" x="2937" y="1465.5742">&#171;Plugin&#187;</text><text fill="#000000" font-family="sans-serif" font-size="14" lengthAdjust="spacing" textLength="136" x="2896.5" y="1484.1953">:InterviewModelPlugin</text><rect fill="#E2E2F0" height="51.2422" rx="2.5" ry="2.5" style="stroke:#181818;stroke-width:0.5;" width="153" x="3093" y="75.6211"/><text fill="#000000" font-family="sans-serif" font-size="14" lengthAdjust="spacing" textLength="128" x="3105.5" y="97.7285">&#171;Parser/Interpreter&#187;</text><text fill="#000000" font-family="sans-serif" font-size="14" lengthAdjust="spacing" textLength="139" x="3100" y="116.3496">:InterviewModelParser</text><rect fill="#E2E2F0" height="51.2422" rx="2.5" ry="2.5" style="stroke:#181818;stroke-width:0.5;" width="153" x="3093" y="1443.4668"/><text fill="#000000" font-family="sans-serif" font-size="14" lengthAdjust="spacing" textLength="128" x="3105.5" y="1465.5742">&#171;Parser/Interpreter&#187;</text><text fill="#000000" font-family="sans-serif" font-size="14" lengthAdjust="spacing" textLength="139" x="3100" y="1484.1953">:InterviewModelParser</text><rect fill="#FFFFFF" height="1297.6035" style="stroke:#181818;stroke-width:1.0;" width="10" x="63.5" y="137.8633"/><rect fill="#FFFFFF" height="31.291" style="stroke:#181818;stroke-width:1.0;" width="10" x="376.5" y="203.4453"/><rect fill="#FFFFFF" height="1097.8574" style="stroke:#181818;stroke-width:1.0;" width="10" x="376.5" y="266.0273"/><rect fill="#FFFFFF" height="30" style="stroke:#181818;stroke-width:1.0;" width="10" x="676.5" y="297.3184"/><rect fill="#FFFFFF" height="554.7832" style="stroke:#181818;stroke-width:1.0;" width="10" x="676.5" y="358.6094"/><rect fill="#FFFFFF" height="419.2012" style="stroke:#181818;stroke-width:1.0;" width="10" x="676.5" y="944.6836"/><rect fill="#FFFFFF" height="30" style="stroke:#181818;stroke-width:1.0;" width="10" x="1093.5" y="389.9004"/><rect fill="#FFFFFF" height="187.1641" style="stroke:#181818;stroke-width:1.0;" width="10" x="1281" y="451.1914"/><rect fill="#FFFFFF" height="30" style="stroke:#181818;stroke-width:1.0;" width="10" x="1531" y="494.1279"/><rect fill="#FFFFFF" height="30" style="stroke:#181818;stroke-width:1.0;" width="10" x="1650" y="593.3555"/><rect fill="#FFFFFF" height="102.582" style="stroke:#181818;stroke-width:1.0;" width="10" x="1811" y="661.6465"/><rect fill="#FFFFFF" height="102.582" style="stroke:#181818;stroke-width:1.0;" width="10" x="2029" y="787.5195"/><rect fill="#FFFFFF" height="30" style="stroke:#181818;stroke-width:1.0;" width="10" x="2212.5" y="719.2285"/><rect fill="#FFFFFF" height="30" style="stroke:#181818;stroke-width:1.0;" width="10" x="2346.5" y="845.1016"/><rect fill="#FFFFFF" height="31.291" style="stroke:#181818;stroke-width:1.0;" width="10" x="2521" y="975.9746"/><rect fill="#FFFFFF" height="267.0371" style="stroke:#181818;stroke-width:1.0;" width="10" x="2521" y="1065.5566"/><rect fill="#FFFFFF" height="20" style="stroke:#181818;stroke-width:1.0;" width="10" x="2789" y="1007.2656"/><rect fill="#FFFFFF" height="204.4551" style="stroke:#181818;stroke-width:1.0;" width="10" x="2959.5" y="1096.8477"/><rect fill="#FFFFFF" height="30" style="stroke:#181818;stroke-width:1.0;" width="10" x="3164.5" y="1184.0752"/><polygon fill="#181818" points="364.5,199.4453,374.5,203.4453,364.5,207.4453,368.5,203.4453" style="stroke:#181818;stroke-width:1.0;"/><line style="stroke:#181818;stroke-width:1.0;" x1="73.5" x2="370.5" y1="203.4453" y2="203.4453"/><text fill="#000000" font-family="sans-serif" font-size="13" lengthAdjust="spacing" textLength="188" x="80.5" y="180.8916">asks to generate a new interview</text><text fill="#000000" font-family="sans-serif" font-size="13" lengthAdjust="spacing" textLength="55" x="84.5" y="198.1826">model file</text><polygon fill="#181818" points="84.5,230.7363,74.5,234.7363,84.5,238.7363,80.5,234.7363" style="stroke:#181818;stroke-width:1.0;"/><line style="stroke:#181818;stroke-width:1.0;stroke-dasharray:2.0,2.0;" x1="78.5" x2="380.5" y1="234.7363" y2="234.7363"/><text fill="#000000" font-family="sans-serif" font-size="13" lengthAdjust="spacing" textLength="171" x="90.5" y="229.4736">shows job Openings to select</text><polygon fill="#181818" points="364.5,262.0273,374.5,266.0273,364.5,270.0273,368.5,266.0273" style="stroke:#181818;stroke-width:1.0;"/><line style="stroke:#181818;stroke-width:1.0;" x1="73.5" x2="370.5" y1="266.0273" y2="266.0273"/><text fill="#000000" font-family="sans-serif" font-size="13" lengthAdjust="spacing" textLength="126" x="80.5" y="260.7646">selects a job Opening</text><polygon fill="#181818" points="664.5,293.3184,674.5,297.3184,664.5,301.3184,668.5,297.3184" style="stroke:#181818;stroke-width:1.0;"/><line style="stroke:#181818;stroke-width:1.0;" x1="386.5" x2="670.5" y1="297.3184" y2="297.3184"/><text fill="#000000" font-family="sans-serif" font-size="13" lengthAdjust="spacing" textLength="44" x="393.5" y="292.0557">create()</text><polygon fill="#181818" points="664.5,354.6094,674.5,358.6094,664.5,362.6094,668.5,358.6094" style="stroke:#181818;stroke-width:1.0;"/><line style="stroke:#181818;stroke-width:1.0;" x1="386.5" x2="670.5" y1="358.6094" y2="358.6094"/><text fill="#000000" font-family="sans-serif" font-size="13" lengthAdjust="spacing" textLength="115" x="393.5" y="353.3467">getJobOpeningList()</text><polygon fill="#181818" points="1081.5,385.9004,1091.5,389.9004,1081.5,393.9004,1085.5,389.9004" style="stroke:#181818;stroke-width:1.0;"/><line style="stroke:#181818;stroke-width:1.0;" x1="686.5" x2="1087.5" y1="389.9004" y2="389.9004"/><text fill="#000000" font-family="sans-serif" font-size="13" lengthAdjust="spacing" textLength="388" x="693.5" y="384.6377">loggedinUserWithPermissions(BaseRole.CUSTOMER_MANAGER)</text><polygon fill="#181818" points="1269,447.1914,1279,451.1914,1269,455.1914,1273,451.1914" style="stroke:#181818;stroke-width:1.0;"/><line style="stroke:#181818;stroke-width:1.0;" x1="686.5" x2="1275" y1="451.1914" y2="451.1914"/><text fill="#000000" font-family="sans-serif" font-size="13" lengthAdjust="spacing" textLength="251" x="693.5" y="445.9287">getAssignedCustomerCodesList(username)</text><polygon fill="#181818" points="1519,490.1279,1529,494.1279,1519,498.1279,1523,494.1279" style="stroke:#181818;stroke-width:1.0;"/><line style="stroke:#181818;stroke-width:1.0;" x1="1291" x2="1525" y1="494.1279" y2="494.1279"/><text fill="#000000" font-family="sans-serif" font-size="13" lengthAdjust="spacing" textLength="221" x="1298" y="488.8652">getCustomersByUsername(username)</text><path d="M1546,464.1914 L1546,508.1914 L1722,508.1914 L1722,474.1914 L1712,464.1914 L1546,464.1914 " fill="#FEFFDD" style="stroke:#181818;stroke-width:0.5;"/><path d="M1712,464.1914 L1712,474.1914 L1722,474.1914 L1712,464.1914 " fill="#FEFFDD" style="stroke:#181818;stroke-width:0.5;"/><text fill="#000000" font-family="sans-serif" font-size="13" lengthAdjust="spacing" textLength="155" x="1552" y="483.2197">Username is the Customer</text><text fill="#000000" font-family="sans-serif" font-size="13" lengthAdjust="spacing" textLength="94" x="1556" y="500.5107">Manager's email</text><path d="M1172,550.7734 L1245,550.7734 L1245,560.0645 L1235,570.0645 L1172,570.0645 L1172,550.7734 " fill="#EEEEEE" style="stroke:#000000;stroke-width:1.5;"/><rect fill="none" height="80.582" style="stroke:#000000;stroke-width:1.5;" width="532.5" x="1172" y="550.7734"/><text fill="#000000" font-family="sans-serif" font-size="13" font-weight="bold" lengthAdjust="spacing" textLength="28" x="1187" y="565.8018">loop</text><text fill="#000000" font-family="sans-serif" font-size="11" font-weight="bold" lengthAdjust="spacing" textLength="76" x="1260" y="564.6436">[for all codes]</text><polygon fill="#181818" points="1638,589.3555,1648,593.3555,1638,597.3555,1642,593.3555" style="stroke:#181818;stroke-width:1.0;"/><line style="stroke:#181818;stroke-width:1.0;" x1="1291" x2="1644" y1="593.3555" y2="593.3555"/><text fill="#000000" font-family="sans-serif" font-size="13" lengthAdjust="spacing" textLength="92" x="1298" y="588.0928">customerCode()</text><polygon fill="#181818" points="1799,657.6465,1809,661.6465,1799,665.6465,1803,661.6465" style="stroke:#181818;stroke-width:1.0;"/><line style="stroke:#181818;stroke-width:1.0;" x1="686.5" x2="1805" y1="661.6465" y2="661.6465"/><text fill="#000000" font-family="sans-serif" font-size="13" lengthAdjust="spacing" textLength="390" x="693.5" y="656.3838">getJobOpeningsFromCustomerCodes(assignedCustomerCodesList)</text><path d="M1694.5,676.6465 L1767.5,676.6465 L1767.5,685.9375 L1757.5,695.9375 L1694.5,695.9375 L1694.5,676.6465 " fill="#EEEEEE" style="stroke:#000000;stroke-width:1.5;"/><rect fill="none" height="80.582" style="stroke:#000000;stroke-width:1.5;" width="610" x="1694.5" y="676.6465"/><text fill="#000000" font-family="sans-serif" font-size="13" font-weight="bold" lengthAdjust="spacing" textLength="28" x="1709.5" y="691.6748">loop</text><text fill="#000000" font-family="sans-serif" font-size="11" font-weight="bold" lengthAdjust="spacing" textLength="83" x="1782.5" y="690.5166">[for each code]</text><polygon fill="#181818" points="2200.5,715.2285,2210.5,719.2285,2200.5,723.2285,2204.5,719.2285" style="stroke:#181818;stroke-width:1.0;"/><line style="stroke:#181818;stroke-width:1.0;" x1="1821" x2="2206.5" y1="719.2285" y2="719.2285"/><text fill="#000000" font-family="sans-serif" font-size="13" lengthAdjust="spacing" textLength="338" x="1828" y="713.9658">getJobOpeningListMatchingCustomerCode(customerCode)</text><polygon fill="#181818" points="2017,783.5195,2027,787.5195,2017,791.5195,2021,787.5195" style="stroke:#181818;stroke-width:1.0;"/><line style="stroke:#181818;stroke-width:1.0;" x1="686.5" x2="2023" y1="787.5195" y2="787.5195"/><text fill="#000000" font-family="sans-serif" font-size="13" lengthAdjust="spacing" textLength="175" x="693.5" y="782.2568">convertToDTO(jobOpeningList)</text><path d="M1927.5,802.5195 L2000.5,802.5195 L2000.5,811.8105 L1990.5,821.8105 L1927.5,821.8105 L1927.5,802.5195 " fill="#EEEEEE" style="stroke:#000000;stroke-width:1.5;"/><rect fill="none" height="80.582" style="stroke:#000000;stroke-width:1.5;" width="481" x="1927.5" y="802.5195"/><text fill="#000000" font-family="sans-serif" font-size="13" font-weight="bold" lengthAdjust="spacing" textLength="28" x="1942.5" y="817.5479">loop</text><text fill="#000000" font-family="sans-serif" font-size="11" font-weight="bold" lengthAdjust="spacing" textLength="122" x="2015.5" y="816.3896">[for each JobOpening]</text><polygon fill="#181818" points="2334.5,841.1016,2344.5,845.1016,2334.5,849.1016,2338.5,845.1016" style="stroke:#181818;stroke-width:1.0;"/><line style="stroke:#181818;stroke-width:1.0;" x1="2039" x2="2340.5" y1="845.1016" y2="845.1016"/><text fill="#000000" font-family="sans-serif" font-size="13" lengthAdjust="spacing" textLength="45" x="2046" y="839.8389">toDTO()</text><polygon fill="#181818" points="397.5,909.3926,387.5,913.3926,397.5,917.3926,393.5,913.3926" style="stroke:#181818;stroke-width:1.0;"/><line style="stroke:#181818;stroke-width:1.0;stroke-dasharray:2.0,2.0;" x1="391.5" x2="680.5" y1="913.3926" y2="913.3926"/><text fill="#000000" font-family="sans-serif" font-size="13" lengthAdjust="spacing" textLength="112" x="403.5" y="908.1299">jobOpeningListDTO</text><polygon fill="#181818" points="664.5,940.6836,674.5,944.6836,664.5,948.6836,668.5,944.6836" style="stroke:#181818;stroke-width:1.0;"/><line style="stroke:#181818;stroke-width:1.0;" x1="386.5" x2="670.5" y1="944.6836" y2="944.6836"/><text fill="#000000" font-family="sans-serif" font-size="13" lengthAdjust="spacing" textLength="209" x="393.5" y="939.4209">exportTemplateFile(jobOpeningDTO)</text><polygon fill="#181818" points="2509,971.9746,2519,975.9746,2509,979.9746,2513,975.9746" style="stroke:#181818;stroke-width:1.0;"/><line style="stroke:#181818;stroke-width:1.0;" x1="686.5" x2="2515" y1="975.9746" y2="975.9746"/><text fill="#000000" font-family="sans-serif" font-size="13" lengthAdjust="spacing" textLength="264" x="693.5" y="970.7119">getInterviewFromJobOpening(jobOpeningDTO)</text><polygon fill="#181818" points="2777,1003.2656,2787,1007.2656,2777,1011.2656,2781,1007.2656" style="stroke:#181818;stroke-width:1.0;"/><line style="stroke:#181818;stroke-width:1.0;" x1="2526" x2="2783" y1="1007.2656" y2="1007.2656"/><text fill="#000000" font-family="sans-serif" font-size="13" lengthAdjust="spacing" textLength="239" x="2533" y="1002.0029">interviewModelFromDTO(jobOpeningDTO)</text><line style="stroke:#ADD8E6;stroke-width:1.0;" x1="2799" x2="2841" y1="1026.2656" y2="1026.2656"/><line style="stroke:#ADD8E6;stroke-width:1.0;" x1="2841" x2="2841" y1="1026.2656" y2="1039.2656"/><line style="stroke:#ADD8E6;stroke-width:1.0;" x1="2794" x2="2841" y1="1039.2656" y2="1039.2656"/><polygon fill="#ADD8E6" points="2804,1035.2656,2794,1039.2656,2804,1043.2656,2800,1039.2656" style="stroke:#ADD8E6;stroke-width:1.0;"/><polygon fill="#181818" points="2509,1061.5566,2519,1065.5566,2509,1069.5566,2513,1065.5566" style="stroke:#181818;stroke-width:1.0;"/><line style="stroke:#181818;stroke-width:1.0;" x1="686.5" x2="2515" y1="1065.5566" y2="1065.5566"/><text fill="#000000" font-family="sans-serif" font-size="13" lengthAdjust="spacing" textLength="220" x="693.5" y="1060.2939">generateNewTemplate(interviewModel)</text><polygon fill="#181818" points="2947.5,1092.8477,2957.5,1096.8477,2947.5,1100.8477,2951.5,1096.8477" style="stroke:#181818;stroke-width:1.0;"/><line style="stroke:#181818;stroke-width:1.0;" x1="2531" x2="2953.5" y1="1096.8477" y2="1096.8477"/><text fill="#000000" font-family="sans-serif" font-size="13" lengthAdjust="spacing" textLength="168" x="2538" y="1091.585">newInterviewModelTemplate()</text><line style="stroke:#181818;stroke-width:1.0;" x1="2969.5" x2="3011.5" y1="1128.1387" y2="1128.1387"/><line style="stroke:#181818;stroke-width:1.0;" x1="3011.5" x2="3011.5" y1="1128.1387" y2="1141.1387"/><line style="stroke:#181818;stroke-width:1.0;" x1="2970.5" x2="3011.5" y1="1141.1387" y2="1141.1387"/><polygon fill="#181818" points="2980.5,1137.1387,2970.5,1141.1387,2980.5,1145.1387,2976.5,1141.1387" style="stroke:#181818;stroke-width:1.0;"/><text fill="#000000" font-family="sans-serif" font-size="13" lengthAdjust="spacing" textLength="79" x="2976.5" y="1122.876">generateFile()</text><polygon fill="#181818" points="3152.5,1180.0752,3162.5,1184.0752,3152.5,1188.0752,3156.5,1184.0752" style="stroke:#181818;stroke-width:1.0;"/><line style="stroke:#181818;stroke-width:1.0;" x1="2969.5" x2="3158.5" y1="1184.0752" y2="1184.0752"/><text fill="#000000" font-family="sans-serif" font-size="13" lengthAdjust="spacing" textLength="176" x="2976.5" y="1178.8125">checkFileSyntax(templateFile)</text><path d="M2772,1154.1387 L2772,1198.1387 L2954,1198.1387 L2954,1164.1387 L2944,1154.1387 L2772,1154.1387 " fill="#FEFFDD" style="stroke:#181818;stroke-width:0.5;"/><path d="M2944,1154.1387 L2944,1164.1387 L2954,1164.1387 L2944,1154.1387 " fill="#FEFFDD" style="stroke:#181818;stroke-width:0.5;"/><text fill="#000000" font-family="sans-serif" font-size="13" lengthAdjust="spacing" textLength="161" x="2778" y="1173.167">Along with the requirements</text><text fill="#000000" font-family="sans-serif" font-size="13" lengthAdjust="spacing" textLength="109" x="2782" y="1190.458">template grammar.</text><line style="stroke:#181818;stroke-width:1.0;" x1="2969.5" x2="3011.5" y1="1257.0117" y2="1257.0117"/><line style="stroke:#181818;stroke-width:1.0;" x1="3011.5" x2="3011.5" y1="1257.0117" y2="1270.0117"/><line style="stroke:#181818;stroke-width:1.0;" x1="2970.5" x2="3011.5" y1="1270.0117" y2="1270.0117"/><polygon fill="#181818" points="2980.5,1266.0117,2970.5,1270.0117,2980.5,1274.0117,2976.5,1270.0117" style="stroke:#181818;stroke-width:1.0;"/><text fill="#000000" font-family="sans-serif" font-size="13" lengthAdjust="spacing" textLength="44" x="2976.5" y="1251.749">export()</text><polygon fill="#181818" points="2542,1297.3027,2532,1301.3027,2542,1305.3027,2538,1301.3027" style="stroke:#181818;stroke-width:1.0;"/><line style="stroke:#181818;stroke-width:1.0;stroke-dasharray:2.0,2.0;" x1="2536" x2="2963.5" y1="1301.3027" y2="1301.3027"/><text fill="#000000" font-family="sans-serif" font-size="13" lengthAdjust="spacing" textLength="70" x="2548" y="1296.04">confirmation</text><polygon fill="#181818" points="697.5,1328.5938,687.5,1332.5938,697.5,1336.5938,693.5,1332.5938" style="stroke:#181818;stroke-width:1.0;"/><line style="stroke:#181818;stroke-width:1.0;stroke-dasharray:2.0,2.0;" x1="691.5" x2="2525" y1="1332.5938" y2="1332.5938"/><text fill="#000000" font-family="sans-serif" font-size="13" lengthAdjust="spacing" textLength="70" x="703.5" y="1327.3311">confirmation</text><polygon fill="#181818" points="392.5,1359.8848,382.5,1363.8848,392.5,1367.8848,388.5,1363.8848" style="stroke:#181818;stroke-width:1.0;"/><line style="stroke:#181818;stroke-width:1.0;stroke-dasharray:2.0,2.0;" x1="386.5" x2="680.5" y1="1363.8848" y2="1363.8848"/><text fill="#000000" font-family="sans-serif" font-size="13" lengthAdjust="spacing" textLength="70" x="398.5" y="1358.6221">confirmation</text><polygon fill="#181818" points="392.5,1391.1758,382.5,1395.1758,392.5,1399.1758,388.5,1395.1758" style="stroke:#181818;stroke-width:1.0;"/><line style="stroke:#181818;stroke-width:1.0;stroke-dasharray:2.0,2.0;" x1="386.5" x2="680.5" y1="1395.1758" y2="1395.1758"/><text fill="#000000" font-family="sans-serif" font-size="13" lengthAdjust="spacing" textLength="70" x="398.5" y="1389.9131">confirmation</text><polygon fill="#181818" points="84.5,1422.4668,74.5,1426.4668,84.5,1430.4668,80.5,1426.4668" style="stroke:#181818;stroke-width:1.0;"/><line style="stroke:#181818;stroke-width:1.0;stroke-dasharray:2.0,2.0;" x1="78.5" x2="380.5" y1="1426.4668" y2="1426.4668"/><text fill="#000000" font-family="sans-serif" font-size="13" lengthAdjust="spacing" textLength="284" x="90.5" y="1421.2041">confirms the success of the exportation of the file</text><!--SRC=[bLTBRziu4BxpLn3PG-H3skqUWoA0wwP55dLJ-84zR8k2biSoKubKIJgFHNxy3YbH8Yb5tVL1i3WptpmuBnbkIg3RzPlVt_n1r_3p1287-fwpGh6A49ORgUZPugIDh43H9HEi07L6cKQXwnLvVducv7md7-dwIHkeICsKuJclcJ3qxEtRMe46OPZXKbnTVHMN7q60OWPkX05rp-5XAVTGRg2gIppzm4lOtZJmDoaMg-kIv_y7QY65KR8iMuiNczMd55HRqHmSuFnaZbBnVvoATKDmWfQmli-dP7s8cWXLw7C8CAIIFJDinpHO80Mrr1n3_HHXhRhZ2AG_JWtQoufn4M54abCE_2btjpK8Befn5v0UMF-VW3vnRTvlRXEKc3WLXvuvYSGOOI8MFNiYFUL6brK-eThS3xrfZwPyY9CpyMC5F_64d8FOKwmXGcmXVIbF1HUfQStf26H3S70lI3A5VhrsKbYE-1n3SKmDYljBEfkm1_1xzByfUFkW5rTOdlGIkNzeQYGjsagaZ0fueDn3VnMqikZqWCKO8jqGGl6781SMos9UKdsK3vhUoHrjhyTXQoWXntA1I3eoes7Hg3qGZhKHg-hATG0Ko1KW8PlrFAur13hSUonKW8cpTo3lV7BSADNs31GiPL70deijXlKlRevVG5LSQ-mnEdk7MREI9RnQRDURs-Nrwljo_dd-yNerSs0Tlkz0zZ0mqnz7ceVDfh5-ZZeB0NjFN-3LQEV82IqJh894wKZNSWnEsL19eBhFyqQrFzVldhQjhaIf_Gc9IXKlZkQIUZRACGkElIsOKctLdMiAME9b9pwmEsWEdYUyuY5NnrPAMTC3ZZvMbZItSUf8ltRU9bWGucmMoGxqHzGH-pgwhKXh624lSARtv1CYQjrf9kiFIbPHIcJifKH9yYCU2OFOeO575xoE51lIM3Pev6EbjcGcF-B_qA8i3F9ic0MZGs8apfDyNSo7Gc6qWqZ7uytcWXJteCn6ucjs5p443MGu6CamcC7a2aAQQ8pCGFt6APuCq7HOI1I8KPREvYOGlZ7V3QTzscBZ7WkFjSHG1IjS436Kd-6oYSdX-hoxAzj4NzTkxkcq6_jBQVj5arVTsBDftpkGgkcW_8Wd7WK1cx6DU3oQeHOnlcC75RZimRg3TW4WBUB5tx-LjltjoXDyytf20CyVbNVeNpE7F_TRInRRc5HmvvrFWC3BPfj0L1pfuojsbg2r-qS7rYA4MDv2TxMpKLQtVjYwEKB-m_Ajd_03uZ4pGLOaCwE40uwCUIanuHzmmhg9eV1hXYjNe1gdXXUdzikcOkeL6LP4k_gCL4DBcNAjoTs-q3nBT4FO30vSLUuB8-qfOVYwUmYMbWdHw1xZ6ep41kMNh5M_aay7JxSbzLjSozzCRNtASz2QoeDxRKBaeFoHsmmJA_u5]--></g></svg>