<?xml version="1.0" encoding="us-ascii" standalone="no"?><svg xmlns="http://www.w3.org/2000/svg" xmlns:xlink="http://www.w3.org/1999/xlink" contentStyleType="text/css" height="1327px" preserveAspectRatio="none" style="width:2481px;height:1327px;background:#FFFFFF;" version="1.1" viewBox="0 0 2481 1327" width="2481px" zoomAndPan="magnify"><defs/><g><text fill="#000000" font-family="sans-serif" font-size="14" font-weight="bold" lengthAdjust="spacing" textLength="187" x="1148.5" y="30.1074">US1018 Sequence Diagram</text><rect fill="#FFFFFF" height="1092.9727" style="stroke:#181818;stroke-width:1.0;" width="10" x="63.5" y="133.2422"/><rect fill="#FFFFFF" height="997.8086" style="stroke:#181818;stroke-width:1.0;" width="10" x="594.5" y="228.4063"/><rect fill="#FFFFFF" height="280.3281" style="stroke:#181818;stroke-width:1.0;" width="10" x="861.5" y="321.9395"/><rect fill="#FFFFFF" height="498.7832" style="stroke:#181818;stroke-width:1.0;" width="10" x="861.5" y="696.1406"/><rect fill="#FFFFFF" height="156.4551" style="stroke:#181818;stroke-width:1.0;" width="10" x="1081.5" y="414.5215"/><rect fill="#FFFFFF" height="31.291" style="stroke:#181818;stroke-width:1.0;" width="10" x="1293.5" y="508.3945"/><rect fill="#FFFFFF" height="30" style="stroke:#181818;stroke-width:1.0;" width="10" x="1462.5" y="353.2305"/><rect fill="#FFFFFF" height="30" style="stroke:#181818;stroke-width:1.0;" width="10" x="1462.5" y="727.4316"/><rect fill="#FFFFFF" height="31.291" style="stroke:#181818;stroke-width:1.0;" width="10" x="1627" y="445.8125"/><rect fill="#FFFFFF" height="31.291" style="stroke:#181818;stroke-width:1.0;" width="10" x="1795.5" y="788.7227"/><rect fill="#FFFFFF" height="30" style="stroke:#181818;stroke-width:1.0;" width="10" x="1795.5" y="1126.6328"/><rect fill="#FFFFFF" height="31.291" style="stroke:#181818;stroke-width:1.0;" width="10" x="1972.5" y="851.3047"/><rect fill="#FFFFFF" height="31.291" style="stroke:#181818;stroke-width:1.0;" width="10" x="2133.5" y="913.8867"/><rect fill="#FFFFFF" height="30" style="stroke:#181818;stroke-width:1.0;" width="10" x="2248.5" y="1065.3418"/><rect fill="#FFFFFF" height="31.291" style="stroke:#181818;stroke-width:1.0;" width="10" x="2381" y="1002.7598"/><rect fill="none" height="204.4551" style="stroke:#000000;stroke-width:1.5;" width="1717" x="758" y="960.1777"/><line style="stroke:#181818;stroke-width:0.5;stroke-dasharray:5.0,5.0;" x1="68" x2="68" y1="123.2422" y2="1244.2148"/><line style="stroke:#181818;stroke-width:0.5;stroke-dasharray:5.0,5.0;" x1="599" x2="599" y1="123.2422" y2="1244.2148"/><line style="stroke:#181818;stroke-width:0.5;stroke-dasharray:5.0,5.0;" x1="866" x2="866" y1="277.5273" y2="1244.2148"/><line style="stroke:#181818;stroke-width:0.5;stroke-dasharray:5.0,5.0;" x1="1086" x2="1086" y1="123.2422" y2="1244.2148"/><line style="stroke:#181818;stroke-width:0.5;stroke-dasharray:5.0,5.0;" x1="1298" x2="1298" y1="123.2422" y2="1244.2148"/><line style="stroke:#181818;stroke-width:0.5;stroke-dasharray:5.0,5.0;" x1="1467" x2="1467" y1="123.2422" y2="1244.2148"/><line style="stroke:#181818;stroke-width:0.5;stroke-dasharray:5.0,5.0;" x1="1632" x2="1632" y1="123.2422" y2="1244.2148"/><line style="stroke:#181818;stroke-width:0.5;stroke-dasharray:5.0,5.0;" x1="1800" x2="1800" y1="123.2422" y2="1244.2148"/><line style="stroke:#181818;stroke-width:0.5;stroke-dasharray:5.0,5.0;" x1="1977" x2="1977" y1="123.2422" y2="1244.2148"/><line style="stroke:#181818;stroke-width:0.5;stroke-dasharray:5.0,5.0;" x1="2138" x2="2138" y1="123.2422" y2="1244.2148"/><line style="stroke:#181818;stroke-width:0.5;stroke-dasharray:5.0,5.0;" x1="2253" x2="2253" y1="123.2422" y2="1244.2148"/><line style="stroke:#181818;stroke-width:0.5;stroke-dasharray:5.0,5.0;" x1="2386" x2="2386" y1="123.2422" y2="1244.2148"/><text fill="#000000" font-family="sans-serif" font-size="14" lengthAdjust="spacing" textLength="121" x="5" y="119.7285">Customer Manager</text><ellipse cx="68.5" cy="53.1211" fill="#E2E2F0" rx="8" ry="8" style="stroke:#181818;stroke-width:0.5;"/><path d="M68.5,61.1211 L68.5,88.1211 M55.5,69.1211 L81.5,69.1211 M68.5,88.1211 L55.5,103.1211 M68.5,88.1211 L81.5,103.1211 " fill="none" style="stroke:#181818;stroke-width:0.5;"/><text fill="#000000" font-family="sans-serif" font-size="14" lengthAdjust="spacing" textLength="121" x="5" y="1258.3223">Customer Manager</text><ellipse cx="68.5" cy="1270.3359" fill="#E2E2F0" rx="8" ry="8" style="stroke:#181818;stroke-width:0.5;"/><path d="M68.5,1278.3359 L68.5,1305.3359 M55.5,1286.3359 L81.5,1286.3359 M68.5,1305.3359 L55.5,1320.3359 M68.5,1305.3359 L81.5,1320.3359 " fill="none" style="stroke:#181818;stroke-width:0.5;"/><rect fill="#E2E2F0" height="51.2422" rx="2.5" ry="2.5" style="stroke:#181818;stroke-width:0.5;" width="147" x="526" y="71"/><text fill="#000000" font-family="sans-serif" font-size="14" font-style="italic" lengthAdjust="spacing" textLength="95" x="552" y="93.1074">&#171;presentation&#187;</text><text fill="#000000" font-family="sans-serif" font-size="14" lengthAdjust="spacing" textLength="133" x="533" y="111.7285">:EvaluateInterviewsUI</text><rect fill="#E2E2F0" height="51.2422" rx="2.5" ry="2.5" style="stroke:#181818;stroke-width:0.5;" width="147" x="526" y="1243.2148"/><text fill="#000000" font-family="sans-serif" font-size="14" font-style="italic" lengthAdjust="spacing" textLength="95" x="552" y="1265.3223">&#171;presentation&#187;</text><text fill="#000000" font-family="sans-serif" font-size="14" lengthAdjust="spacing" textLength="133" x="533" y="1283.9434">:EvaluateInterviewsUI</text><rect fill="#E2E2F0" height="51.2422" rx="2.5" ry="2.5" style="stroke:#181818;stroke-width:0.5;" width="197" x="768" y="1243.2148"/><text fill="#000000" font-family="sans-serif" font-size="14" font-style="italic" lengthAdjust="spacing" textLength="84" x="824.5" y="1265.3223">&#171;application&#187;</text><text fill="#000000" font-family="sans-serif" font-size="14" lengthAdjust="spacing" textLength="183" x="775" y="1283.9434">:EvaluateInterviewsController</text><rect fill="#E2E2F0" height="51.2422" rx="2.5" ry="2.5" style="stroke:#181818;stroke-width:0.5;" width="223" x="975" y="71"/><text fill="#000000" font-family="sans-serif" font-size="14" font-style="italic" lengthAdjust="spacing" textLength="62" x="1055.5" y="93.1074">&#171;Service&#187;</text><text fill="#000000" font-family="sans-serif" font-size="14" lengthAdjust="spacing" textLength="209" x="982" y="111.7285">:JobOpeningManagementService</text><rect fill="#E2E2F0" height="51.2422" rx="2.5" ry="2.5" style="stroke:#181818;stroke-width:0.5;" width="223" x="975" y="1243.2148"/><text fill="#000000" font-family="sans-serif" font-size="14" font-style="italic" lengthAdjust="spacing" textLength="62" x="1055.5" y="1265.3223">&#171;Service&#187;</text><text fill="#000000" font-family="sans-serif" font-size="14" lengthAdjust="spacing" textLength="209" x="982" y="1283.9434">:JobOpeningManagementService</text><rect fill="#E2E2F0" height="51.2422" rx="2.5" ry="2.5" style="stroke:#181818;stroke-width:0.5;" width="171" x="1213" y="71"/><text fill="#000000" font-family="sans-serif" font-size="14" font-style="italic" lengthAdjust="spacing" textLength="62" x="1267.5" y="93.1074">&#171;Service&#187;</text><text fill="#000000" font-family="sans-serif" font-size="14" lengthAdjust="spacing" textLength="157" x="1220" y="111.7285">:JobOpeningDTOService</text><rect fill="#E2E2F0" height="51.2422" rx="2.5" ry="2.5" style="stroke:#181818;stroke-width:0.5;" width="171" x="1213" y="1243.2148"/><text fill="#000000" font-family="sans-serif" font-size="14" font-style="italic" lengthAdjust="spacing" textLength="62" x="1267.5" y="1265.3223">&#171;Service&#187;</text><text fill="#000000" font-family="sans-serif" font-size="14" lengthAdjust="spacing" textLength="157" x="1220" y="1283.9434">:JobOpeningDTOService</text><rect fill="#E2E2F0" height="51.2422" rx="2.5" ry="2.5" style="stroke:#181818;stroke-width:0.5;" width="147" x="1394" y="71"/><text fill="#000000" font-family="sans-serif" font-size="14" font-style="italic" lengthAdjust="spacing" textLength="60" x="1437.5" y="93.1074">&#171;service&#187;</text><text fill="#000000" font-family="sans-serif" font-size="14" lengthAdjust="spacing" textLength="133" x="1401" y="111.7285">:AuthorizationService</text><rect fill="#E2E2F0" height="51.2422" rx="2.5" ry="2.5" style="stroke:#181818;stroke-width:0.5;" width="147" x="1394" y="1243.2148"/><text fill="#000000" font-family="sans-serif" font-size="14" font-style="italic" lengthAdjust="spacing" textLength="60" x="1437.5" y="1265.3223">&#171;service&#187;</text><text fill="#000000" font-family="sans-serif" font-size="14" lengthAdjust="spacing" textLength="133" x="1401" y="1283.9434">:AuthorizationService</text><rect fill="#E2E2F0" height="51.2422" rx="2.5" ry="2.5" style="stroke:#181818;stroke-width:0.5;" width="162" x="1551" y="71"/><text fill="#000000" font-family="sans-serif" font-size="14" font-style="italic" lengthAdjust="spacing" textLength="79" x="1592.5" y="93.1074">&#171;repository&#187;</text><text fill="#000000" font-family="sans-serif" font-size="14" lengthAdjust="spacing" textLength="148" x="1558" y="111.7285">:JobOpeningRepository</text><rect fill="#E2E2F0" height="51.2422" rx="2.5" ry="2.5" style="stroke:#181818;stroke-width:0.5;" width="162" x="1551" y="1243.2148"/><text fill="#000000" font-family="sans-serif" font-size="14" font-style="italic" lengthAdjust="spacing" textLength="79" x="1592.5" y="1265.3223">&#171;repository&#187;</text><text fill="#000000" font-family="sans-serif" font-size="14" lengthAdjust="spacing" textLength="148" x="1558" y="1283.9434">:JobOpeningRepository</text><rect fill="#E2E2F0" height="51.2422" rx="2.5" ry="2.5" style="stroke:#181818;stroke-width:0.5;" width="155" x="1723" y="71"/><text fill="#000000" font-family="sans-serif" font-size="14" font-style="italic" lengthAdjust="spacing" textLength="79" x="1761" y="93.1074">&#171;repository&#187;</text><text fill="#000000" font-family="sans-serif" font-size="14" lengthAdjust="spacing" textLength="141" x="1730" y="111.7285">:ApplicationRepository</text><rect fill="#E2E2F0" height="51.2422" rx="2.5" ry="2.5" style="stroke:#181818;stroke-width:0.5;" width="155" x="1723" y="1243.2148"/><text fill="#000000" font-family="sans-serif" font-size="14" font-style="italic" lengthAdjust="spacing" textLength="79" x="1761" y="1265.3223">&#171;repository&#187;</text><text fill="#000000" font-family="sans-serif" font-size="14" lengthAdjust="spacing" textLength="141" x="1730" y="1283.9434">:ApplicationRepository</text><rect fill="#E2E2F0" height="51.2422" rx="2.5" ry="2.5" style="stroke:#181818;stroke-width:0.5;" width="179" x="1888" y="71"/><text fill="#000000" font-family="sans-serif" font-size="14" font-style="italic" lengthAdjust="spacing" textLength="79" x="1938" y="93.1074">&#171;repository&#187;</text><text fill="#000000" font-family="sans-serif" font-size="14" lengthAdjust="spacing" textLength="165" x="1895" y="111.7285">:InterviewModelRepository</text><rect fill="#E2E2F0" height="51.2422" rx="2.5" ry="2.5" style="stroke:#181818;stroke-width:0.5;" width="179" x="1888" y="1243.2148"/><text fill="#000000" font-family="sans-serif" font-size="14" font-style="italic" lengthAdjust="spacing" textLength="79" x="1938" y="1265.3223">&#171;repository&#187;</text><text fill="#000000" font-family="sans-serif" font-size="14" lengthAdjust="spacing" textLength="165" x="1895" y="1283.9434">:InterviewModelRepository</text><rect fill="#E2E2F0" height="51.2422" rx="2.5" ry="2.5" style="stroke:#181818;stroke-width:0.5;" width="123" x="2077" y="71"/><text fill="#000000" font-family="sans-serif" font-size="14" font-style="italic" lengthAdjust="spacing" textLength="71" x="2103" y="93.1074">&#171;interface&#187;</text><text fill="#000000" font-family="sans-serif" font-size="14" lengthAdjust="spacing" textLength="109" x="2084" y="111.7285">:FileManagement</text><rect fill="#E2E2F0" height="51.2422" rx="2.5" ry="2.5" style="stroke:#181818;stroke-width:0.5;" width="123" x="2077" y="1243.2148"/><text fill="#000000" font-family="sans-serif" font-size="14" font-style="italic" lengthAdjust="spacing" textLength="71" x="2103" y="1265.3223">&#171;interface&#187;</text><text fill="#000000" font-family="sans-serif" font-size="14" lengthAdjust="spacing" textLength="109" x="2084" y="1283.9434">:FileManagement</text><rect fill="#E2E2F0" height="51.2422" rx="2.5" ry="2.5" style="stroke:#181818;stroke-width:0.5;" width="87" x="2210" y="71"/><text fill="#000000" font-family="sans-serif" font-size="14" font-style="italic" lengthAdjust="spacing" textLength="62" x="2222.5" y="93.1074">&#171;domain&#187;</text><text fill="#000000" font-family="sans-serif" font-size="14" lengthAdjust="spacing" textLength="73" x="2217" y="111.7285">:Application</text><rect fill="#E2E2F0" height="51.2422" rx="2.5" ry="2.5" style="stroke:#181818;stroke-width:0.5;" width="87" x="2210" y="1243.2148"/><text fill="#000000" font-family="sans-serif" font-size="14" font-style="italic" lengthAdjust="spacing" textLength="62" x="2222.5" y="1265.3223">&#171;domain&#187;</text><text fill="#000000" font-family="sans-serif" font-size="14" lengthAdjust="spacing" textLength="73" x="2217" y="1283.9434">:Application</text><rect fill="#E2E2F0" height="51.2422" rx="2.5" ry="2.5" style="stroke:#181818;stroke-width:0.5;" width="158" x="2307" y="71"/><text fill="#000000" font-family="sans-serif" font-size="14" font-style="italic" lengthAdjust="spacing" textLength="71" x="2350.5" y="93.1074">&#171;interface&#187;</text><text fill="#000000" font-family="sans-serif" font-size="14" lengthAdjust="spacing" textLength="144" x="2314" y="111.7285">:InterviewAnswerPlugin</text><rect fill="#E2E2F0" height="51.2422" rx="2.5" ry="2.5" style="stroke:#181818;stroke-width:0.5;" width="158" x="2307" y="1243.2148"/><text fill="#000000" font-family="sans-serif" font-size="14" font-style="italic" lengthAdjust="spacing" textLength="71" x="2350.5" y="1265.3223">&#171;interface&#187;</text><text fill="#000000" font-family="sans-serif" font-size="14" lengthAdjust="spacing" textLength="144" x="2314" y="1283.9434">:InterviewAnswerPlugin</text><rect fill="#FFFFFF" height="1092.9727" style="stroke:#181818;stroke-width:1.0;" width="10" x="63.5" y="133.2422"/><rect fill="#FFFFFF" height="997.8086" style="stroke:#181818;stroke-width:1.0;" width="10" x="594.5" y="228.4063"/><rect fill="#FFFFFF" height="280.3281" style="stroke:#181818;stroke-width:1.0;" width="10" x="861.5" y="321.9395"/><rect fill="#FFFFFF" height="498.7832" style="stroke:#181818;stroke-width:1.0;" width="10" x="861.5" y="696.1406"/><rect fill="#FFFFFF" height="156.4551" style="stroke:#181818;stroke-width:1.0;" width="10" x="1081.5" y="414.5215"/><rect fill="#FFFFFF" height="31.291" style="stroke:#181818;stroke-width:1.0;" width="10" x="1293.5" y="508.3945"/><rect fill="#FFFFFF" height="30" style="stroke:#181818;stroke-width:1.0;" width="10" x="1462.5" y="353.2305"/><rect fill="#FFFFFF" height="30" style="stroke:#181818;stroke-width:1.0;" width="10" x="1462.5" y="727.4316"/><rect fill="#FFFFFF" height="31.291" style="stroke:#181818;stroke-width:1.0;" width="10" x="1627" y="445.8125"/><rect fill="#FFFFFF" height="31.291" style="stroke:#181818;stroke-width:1.0;" width="10" x="1795.5" y="788.7227"/><rect fill="#FFFFFF" height="30" style="stroke:#181818;stroke-width:1.0;" width="10" x="1795.5" y="1126.6328"/><rect fill="#FFFFFF" height="31.291" style="stroke:#181818;stroke-width:1.0;" width="10" x="1972.5" y="851.3047"/><rect fill="#FFFFFF" height="31.291" style="stroke:#181818;stroke-width:1.0;" width="10" x="2133.5" y="913.8867"/><rect fill="#FFFFFF" height="30" style="stroke:#181818;stroke-width:1.0;" width="10" x="2248.5" y="1065.3418"/><rect fill="#FFFFFF" height="31.291" style="stroke:#181818;stroke-width:1.0;" width="10" x="2381" y="1002.7598"/><path d="M1472,138.2422 L1472,199.2422 L1728,199.2422 L1728,148.2422 L1718,138.2422 L1472,138.2422 " fill="#FEFFDD" style="stroke:#181818;stroke-width:0.5;"/><path d="M1718,138.2422 L1718,148.2422 L1728,148.2422 L1718,138.2422 " fill="#FEFFDD" style="stroke:#181818;stroke-width:0.5;"/><text fill="#000000" font-family="sans-serif" font-size="13" lengthAdjust="spacing" textLength="235" x="1478" y="157.2705">The AuthorizationService is implemented</text><text fill="#000000" font-family="sans-serif" font-size="13" lengthAdjust="spacing" textLength="173" x="1478" y="174.5615">in the eapli framework and will</text><text fill="#000000" font-family="sans-serif" font-size="13" lengthAdjust="spacing" textLength="162" x="1478" y="191.8525">be used in this functionality.</text><polygon fill="#181818" points="582.5,224.4063,592.5,228.4063,582.5,232.4063,586.5,228.4063" style="stroke:#181818;stroke-width:1.0;"/><line style="stroke:#181818;stroke-width:1.0;" x1="73.5" x2="588.5" y1="228.4063" y2="228.4063"/><text fill="#000000" font-family="sans-serif" font-size="13" font-weight="bold" lengthAdjust="spacing" textLength="7" x="80.5" y="223.1436">1</text><text fill="#000000" font-family="sans-serif" font-size="13" lengthAdjust="spacing" textLength="491" x="91.5" y="223.1436">wants to execute the process that evaluates (grades) the interviews for a job opening.</text><polygon fill="#181818" points="756,255.6973,766,259.6973,756,263.6973,760,259.6973" style="stroke:#181818;stroke-width:1.0;"/><line style="stroke:#181818;stroke-width:1.0;" x1="604.5" x2="762" y1="259.6973" y2="259.6973"/><text fill="#000000" font-family="sans-serif" font-size="13" font-weight="bold" lengthAdjust="spacing" textLength="7" x="611.5" y="254.4346">2</text><text fill="#000000" font-family="sans-serif" font-size="13" lengthAdjust="spacing" textLength="36" x="622.5" y="254.4346">create</text><rect fill="#E2E2F0" height="51.2422" rx="2.5" ry="2.5" style="stroke:#181818;stroke-width:0.5;" width="197" x="768" y="236.4063"/><text fill="#000000" font-family="sans-serif" font-size="14" font-style="italic" lengthAdjust="spacing" textLength="84" x="824.5" y="258.5137">&#171;application&#187;</text><text fill="#000000" font-family="sans-serif" font-size="14" lengthAdjust="spacing" textLength="183" x="775" y="277.1348">:EvaluateInterviewsController</text><polygon fill="#181818" points="849.5,317.9395,859.5,321.9395,849.5,325.9395,853.5,321.9395" style="stroke:#181818;stroke-width:1.0;"/><line style="stroke:#181818;stroke-width:1.0;" x1="604.5" x2="855.5" y1="321.9395" y2="321.9395"/><text fill="#000000" font-family="sans-serif" font-size="13" font-weight="bold" lengthAdjust="spacing" textLength="7" x="611.5" y="316.6768">3</text><text fill="#000000" font-family="sans-serif" font-size="13" lengthAdjust="spacing" textLength="115" x="622.5" y="316.6768">getJobOpeningList()</text><polygon fill="#181818" points="1450.5,349.2305,1460.5,353.2305,1450.5,357.2305,1454.5,353.2305" style="stroke:#181818;stroke-width:1.0;"/><line style="stroke:#181818;stroke-width:1.0;" x1="871.5" x2="1456.5" y1="353.2305" y2="353.2305"/><text fill="#000000" font-family="sans-serif" font-size="13" font-weight="bold" lengthAdjust="spacing" textLength="7" x="878.5" y="347.9678">4</text><text fill="#000000" font-family="sans-serif" font-size="13" lengthAdjust="spacing" textLength="241" x="889.5" y="347.9678">ensureAuthenticatedUserHasAnyOf(roles)</text><polygon fill="#181818" points="1069.5,410.5215,1079.5,414.5215,1069.5,418.5215,1073.5,414.5215" style="stroke:#181818;stroke-width:1.0;"/><line style="stroke:#181818;stroke-width:1.0;" x1="871.5" x2="1075.5" y1="414.5215" y2="414.5215"/><text fill="#000000" font-family="sans-serif" font-size="13" font-weight="bold" lengthAdjust="spacing" textLength="7" x="878.5" y="409.2588">5</text><text fill="#000000" font-family="sans-serif" font-size="13" lengthAdjust="spacing" textLength="115" x="889.5" y="409.2588">getJobOpeningList()</text><polygon fill="#181818" points="1615,441.8125,1625,445.8125,1615,449.8125,1619,445.8125" style="stroke:#181818;stroke-width:1.0;"/><line style="stroke:#181818;stroke-width:1.0;" x1="1091.5" x2="1621" y1="445.8125" y2="445.8125"/><text fill="#000000" font-family="sans-serif" font-size="13" font-weight="bold" lengthAdjust="spacing" textLength="7" x="1098.5" y="440.5498">6</text><text fill="#000000" font-family="sans-serif" font-size="13" lengthAdjust="spacing" textLength="115" x="1109.5" y="440.5498">getJobOpeningList()</text><polygon fill="#181818" points="1102.5,473.1035,1092.5,477.1035,1102.5,481.1035,1098.5,477.1035" style="stroke:#181818;stroke-width:1.0;"/><line style="stroke:#181818;stroke-width:1.0;" x1="1096.5" x2="1631" y1="477.1035" y2="477.1035"/><text fill="#000000" font-family="sans-serif" font-size="13" font-weight="bold" lengthAdjust="spacing" textLength="7" x="1108.5" y="471.8408">7</text><text fill="#000000" font-family="sans-serif" font-size="13" lengthAdjust="spacing" textLength="89" x="1119.5" y="471.8408">JobOpeningList</text><polygon fill="#181818" points="1281.5,504.3945,1291.5,508.3945,1281.5,512.3945,1285.5,508.3945" style="stroke:#181818;stroke-width:1.0;"/><line style="stroke:#181818;stroke-width:1.0;" x1="1091.5" x2="1287.5" y1="508.3945" y2="508.3945"/><text fill="#000000" font-family="sans-serif" font-size="13" font-weight="bold" lengthAdjust="spacing" textLength="7" x="1098.5" y="503.1318">8</text><text fill="#000000" font-family="sans-serif" font-size="13" lengthAdjust="spacing" textLength="172" x="1109.5" y="503.1318">convertToDto(JobOpeningList)</text><polygon fill="#181818" points="1102.5,535.6855,1092.5,539.6855,1102.5,543.6855,1098.5,539.6855" style="stroke:#181818;stroke-width:1.0;"/><line style="stroke:#181818;stroke-width:1.0;" x1="1096.5" x2="1297.5" y1="539.6855" y2="539.6855"/><text fill="#000000" font-family="sans-serif" font-size="13" font-weight="bold" lengthAdjust="spacing" textLength="7" x="1108.5" y="534.4229">9</text><text fill="#000000" font-family="sans-serif" font-size="13" lengthAdjust="spacing" textLength="109" x="1119.5" y="534.4229">JobOpeningDtoList</text><polygon fill="#181818" points="882.5,566.9766,872.5,570.9766,882.5,574.9766,878.5,570.9766" style="stroke:#181818;stroke-width:1.0;"/><line style="stroke:#181818;stroke-width:1.0;" x1="876.5" x2="1085.5" y1="570.9766" y2="570.9766"/><text fill="#000000" font-family="sans-serif" font-size="13" font-weight="bold" lengthAdjust="spacing" textLength="14" x="888.5" y="565.7139">10</text><text fill="#000000" font-family="sans-serif" font-size="13" lengthAdjust="spacing" textLength="109" x="906.5" y="565.7139">JobOpeningDtoList</text><polygon fill="#181818" points="615.5,598.2676,605.5,602.2676,615.5,606.2676,611.5,602.2676" style="stroke:#181818;stroke-width:1.0;"/><line style="stroke:#181818;stroke-width:1.0;" x1="609.5" x2="865.5" y1="602.2676" y2="602.2676"/><text fill="#000000" font-family="sans-serif" font-size="13" font-weight="bold" lengthAdjust="spacing" textLength="14" x="621.5" y="597.0049">11</text><text fill="#000000" font-family="sans-serif" font-size="13" lengthAdjust="spacing" textLength="109" x="639.5" y="597.0049">JobOpeningDtoList</text><polygon fill="#181818" points="84.5,629.5586,74.5,633.5586,84.5,637.5586,80.5,633.5586" style="stroke:#181818;stroke-width:1.0;"/><line style="stroke:#181818;stroke-width:1.0;stroke-dasharray:2.0,2.0;" x1="78.5" x2="593.5" y1="633.5586" y2="633.5586"/><text fill="#000000" font-family="sans-serif" font-size="13" font-weight="bold" lengthAdjust="spacing" textLength="14" x="90.5" y="628.2959">12</text><text fill="#000000" font-family="sans-serif" font-size="13" lengthAdjust="spacing" textLength="152" x="108.5" y="628.2959">Shows the job opening list</text><polygon fill="#181818" points="582.5,660.8496,592.5,664.8496,582.5,668.8496,586.5,664.8496" style="stroke:#181818;stroke-width:1.0;"/><line style="stroke:#181818;stroke-width:1.0;" x1="73.5" x2="588.5" y1="664.8496" y2="664.8496"/><text fill="#000000" font-family="sans-serif" font-size="13" font-weight="bold" lengthAdjust="spacing" textLength="14" x="80.5" y="659.5869">13</text><text fill="#000000" font-family="sans-serif" font-size="13" lengthAdjust="spacing" textLength="125" x="98.5" y="659.5869">Selects a job opening</text><polygon fill="#181818" points="849.5,692.1406,859.5,696.1406,849.5,700.1406,853.5,696.1406" style="stroke:#181818;stroke-width:1.0;"/><line style="stroke:#181818;stroke-width:1.0;" x1="604.5" x2="855.5" y1="696.1406" y2="696.1406"/><text fill="#000000" font-family="sans-serif" font-size="13" font-weight="bold" lengthAdjust="spacing" textLength="14" x="611.5" y="690.8779">14</text><text fill="#000000" font-family="sans-serif" font-size="13" lengthAdjust="spacing" textLength="220" x="629.5" y="690.8779">intervirviewsEvaluation(jobOpeningDto)</text><polygon fill="#181818" points="1450.5,723.4316,1460.5,727.4316,1450.5,731.4316,1454.5,727.4316" style="stroke:#181818;stroke-width:1.0;"/><line style="stroke:#181818;stroke-width:1.0;" x1="871.5" x2="1456.5" y1="727.4316" y2="727.4316"/><text fill="#000000" font-family="sans-serif" font-size="13" font-weight="bold" lengthAdjust="spacing" textLength="14" x="878.5" y="722.1689">15</text><text fill="#000000" font-family="sans-serif" font-size="13" lengthAdjust="spacing" textLength="241" x="896.5" y="722.1689">ensureAuthenticatedUserHasAnyOf(roles)</text><polygon fill="#181818" points="1783.5,784.7227,1793.5,788.7227,1783.5,792.7227,1787.5,788.7227" style="stroke:#181818;stroke-width:1.0;"/><line style="stroke:#181818;stroke-width:1.0;" x1="871.5" x2="1789.5" y1="788.7227" y2="788.7227"/><text fill="#000000" font-family="sans-serif" font-size="13" font-weight="bold" lengthAdjust="spacing" textLength="14" x="878.5" y="783.46">16</text><text fill="#000000" font-family="sans-serif" font-size="13" lengthAdjust="spacing" textLength="365" x="896.5" y="783.46">applicationsForJobOpeningWithInterviewAnswers(jobReference)</text><polygon fill="#181818" points="882.5,816.0137,872.5,820.0137,882.5,824.0137,878.5,820.0137" style="stroke:#181818;stroke-width:1.0;"/><line style="stroke:#181818;stroke-width:1.0;stroke-dasharray:2.0,2.0;" x1="876.5" x2="1799.5" y1="820.0137" y2="820.0137"/><text fill="#000000" font-family="sans-serif" font-size="13" font-weight="bold" lengthAdjust="spacing" textLength="14" x="888.5" y="814.751">17</text><text fill="#000000" font-family="sans-serif" font-size="13" lengthAdjust="spacing" textLength="69" x="906.5" y="814.751">applications</text><polygon fill="#181818" points="1960.5,847.3047,1970.5,851.3047,1960.5,855.3047,1964.5,851.3047" style="stroke:#181818;stroke-width:1.0;"/><line style="stroke:#181818;stroke-width:1.0;" x1="871.5" x2="1966.5" y1="851.3047" y2="851.3047"/><text fill="#000000" font-family="sans-serif" font-size="13" font-weight="bold" lengthAdjust="spacing" textLength="14" x="878.5" y="846.042">18</text><text fill="#000000" font-family="sans-serif" font-size="13" lengthAdjust="spacing" textLength="274" x="896.5" y="846.042">interviewModelByInterviewName(interviewName)</text><polygon fill="#181818" points="882.5,878.5957,872.5,882.5957,882.5,886.5957,878.5,882.5957" style="stroke:#181818;stroke-width:1.0;"/><line style="stroke:#181818;stroke-width:1.0;stroke-dasharray:2.0,2.0;" x1="876.5" x2="1976.5" y1="882.5957" y2="882.5957"/><text fill="#000000" font-family="sans-serif" font-size="13" font-weight="bold" lengthAdjust="spacing" textLength="14" x="888.5" y="877.333">19</text><text fill="#000000" font-family="sans-serif" font-size="13" lengthAdjust="spacing" textLength="84" x="906.5" y="877.333">InterviewModel</text><polygon fill="#181818" points="2121.5,909.8867,2131.5,913.8867,2121.5,917.8867,2125.5,913.8867" style="stroke:#181818;stroke-width:1.0;"/><line style="stroke:#181818;stroke-width:1.0;" x1="871.5" x2="2127.5" y1="913.8867" y2="913.8867"/><text fill="#000000" font-family="sans-serif" font-size="13" font-weight="bold" lengthAdjust="spacing" textLength="14" x="878.5" y="908.624">20</text><text fill="#000000" font-family="sans-serif" font-size="13" lengthAdjust="spacing" textLength="160" x="896.5" y="908.624">importData(configFileName)</text><polygon fill="#181818" points="882.5,941.1777,872.5,945.1777,882.5,949.1777,878.5,945.1777" style="stroke:#181818;stroke-width:1.0;"/><line style="stroke:#181818;stroke-width:1.0;stroke-dasharray:2.0,2.0;" x1="876.5" x2="2137.5" y1="945.1777" y2="945.1777"/><text fill="#000000" font-family="sans-serif" font-size="13" font-weight="bold" lengthAdjust="spacing" textLength="14" x="888.5" y="939.915">21</text><text fill="#000000" font-family="sans-serif" font-size="13" lengthAdjust="spacing" textLength="25" x="906.5" y="939.915">data</text><path d="M758,960.1777 L831,960.1777 L831,969.4688 L821,979.4688 L758,979.4688 L758,960.1777 " fill="#EEEEEE" style="stroke:#000000;stroke-width:1.5;"/><rect fill="none" height="204.4551" style="stroke:#000000;stroke-width:1.5;" width="1717" x="758" y="960.1777"/><text fill="#000000" font-family="sans-serif" font-size="13" font-weight="bold" lengthAdjust="spacing" textLength="28" x="773" y="975.2061">loop</text><text fill="#000000" font-family="sans-serif" font-size="11" font-weight="bold" lengthAdjust="spacing" textLength="115" x="846" y="974.0479">[for each application]</text><polygon fill="#181818" points="2369,998.7598,2379,1002.7598,2369,1006.7598,2373,1002.7598" style="stroke:#181818;stroke-width:1.0;"/><line style="stroke:#181818;stroke-width:1.0;" x1="871.5" x2="2375" y1="1002.7598" y2="1002.7598"/><text fill="#000000" font-family="sans-serif" font-size="13" font-weight="bold" lengthAdjust="spacing" textLength="14" x="878.5" y="997.4971">22</text><text fill="#000000" font-family="sans-serif" font-size="13" lengthAdjust="spacing" textLength="267" x="896.5" y="997.4971">evaluateInterviewAnswerFiles(interviewAnswer)</text><polygon fill="#181818" points="882.5,1030.0508,872.5,1034.0508,882.5,1038.0508,878.5,1034.0508" style="stroke:#181818;stroke-width:1.0;"/><line style="stroke:#181818;stroke-width:1.0;stroke-dasharray:2.0,2.0;" x1="876.5" x2="2385" y1="1034.0508" y2="1034.0508"/><text fill="#000000" font-family="sans-serif" font-size="13" font-weight="bold" lengthAdjust="spacing" textLength="14" x="888.5" y="1028.7881">23</text><text fill="#000000" font-family="sans-serif" font-size="13" lengthAdjust="spacing" textLength="32" x="906.5" y="1028.7881">result</text><polygon fill="#181818" points="2236.5,1061.3418,2246.5,1065.3418,2236.5,1069.3418,2240.5,1065.3418" style="stroke:#181818;stroke-width:1.0;"/><line style="stroke:#181818;stroke-width:1.0;" x1="871.5" x2="2242.5" y1="1065.3418" y2="1065.3418"/><text fill="#000000" font-family="sans-serif" font-size="13" font-weight="bold" lengthAdjust="spacing" textLength="14" x="878.5" y="1060.0791">24</text><text fill="#000000" font-family="sans-serif" font-size="13" lengthAdjust="spacing" textLength="163" x="896.5" y="1060.0791">updateinterviewGrade(grade)</text><polygon fill="#181818" points="1783.5,1122.6328,1793.5,1126.6328,1783.5,1130.6328,1787.5,1126.6328" style="stroke:#181818;stroke-width:1.0;"/><line style="stroke:#181818;stroke-width:1.0;" x1="871.5" x2="1789.5" y1="1126.6328" y2="1126.6328"/><text fill="#000000" font-family="sans-serif" font-size="13" font-weight="bold" lengthAdjust="spacing" textLength="14" x="878.5" y="1121.3701">25</text><text fill="#000000" font-family="sans-serif" font-size="13" lengthAdjust="spacing" textLength="96" x="896.5" y="1121.3701">save(application)</text><polygon fill="#181818" points="615.5,1190.9238,605.5,1194.9238,615.5,1198.9238,611.5,1194.9238" style="stroke:#181818;stroke-width:1.0;"/><line style="stroke:#181818;stroke-width:1.0;stroke-dasharray:2.0,2.0;" x1="609.5" x2="865.5" y1="1194.9238" y2="1194.9238"/><text fill="#000000" font-family="sans-serif" font-size="13" font-weight="bold" lengthAdjust="spacing" textLength="14" x="621.5" y="1189.6611">26</text><text fill="#000000" font-family="sans-serif" font-size="13" lengthAdjust="spacing" textLength="49" x="639.5" y="1189.6611">success</text><polygon fill="#181818" points="79.5,1222.2148,69.5,1226.2148,79.5,1230.2148,75.5,1226.2148" style="stroke:#181818;stroke-width:1.0;"/><line style="stroke:#181818;stroke-width:1.0;stroke-dasharray:2.0,2.0;" x1="73.5" x2="598.5" y1="1226.2148" y2="1226.2148"/><text fill="#000000" font-family="sans-serif" font-size="13" font-weight="bold" lengthAdjust="spacing" textLength="14" x="85.5" y="1220.9521">27</text><text fill="#000000" font-family="sans-serif" font-size="13" lengthAdjust="spacing" textLength="49" x="103.5" y="1220.9521">success</text><!--SRC=[bLPHRzis47xNhpZaoIcGedqRX290riohXtePOXi3ziP8PvkTJ6eaPI_xzJjICabHjDFgoIRllllkoE-Eh3DIT8SNL4LXk6aGDgkF7px-12lyfqDH8JnojbFiK1IiCbB1pUTE6tb01Kics0xL3J0DvyLXhIXQfWolUCk4WPloboDhEcPm8Gog8yUJtYoStsO1dpwr2ZKAmmoNulx-JTVFKXWbc-OSUltybK1OspQyocFy9b-UMXHSx7f-1ugsicWLEeYmFwmItl3h2jRZ-YaF4ZQku3nqPYyL_yynZd4UDkilVv6ZVfF0CxPISpgKruH0s20SvVzCEOIQ9LZPdUjW_e2MiiOcmVERtuisvms6mt8OyoMvS0kqPQuknULqd4Dq9SYpbWV6HSRDStiG-eJgZwRRyHw0dtVwjJIya0P1yTtUz8TMhFS8kNC5JbY7jd6vO5qGb25JPCGFjYGkF4drDp1HmuatJV62q6cimTcHxxOJbOLZ3JUlxmiaEnlRIP8VIHnJ_IKBS7TljLR2YNBMO2JWlrXrv6c9j4fMg6bvpmpW83WDCz9zZVhMsVXQ41rg0mo-oHUG_Nrx7uXi5aL1WIYSrUMxToLK2fdb6bPBsA49j_KhrsPs6-L29eLJDTcxmfO0A7Idq1QNIcWF5UiDAUGBqm_YzMaxeuP0J0D8Vo0r9Wi3x4JmUKf0dmUO-BXj-qtR1n7FgJ4VnUDaGWLVRpME6Ebf5DJdDGxdKQBAPADTJcuK9hGwEcWfZgZCMZuQEHk7lRsMOy2ua6FKJxCvHfP6lfrb9bxs1FkhcWVF0iUev_kxMUGW8dTtsqaSTpRYMBGbhFRof9ty8hL1Oo4Iso7K2XkiIE0ZUJhu-pwTGSQzaeVPIfrbzYtcc8enJkW71Jawyrw3IVtwnN6CtFGfutwkvrA5ilx9pJxfujfcz8nRLFOHa_B8uVlBa9zzT_v6n3GcoLn4FkUMcOHbQAvkTlxywer-fzamu_6_99KCd4yaDtH36kDvdIQImntbCL-MTgP9PHwPOJCI_vRlxDJEa9mlFISQue52JPvfOB9rIusKhPiqjBMFQ-wXpaoIALtw2PPS2KjEXsBsYvdEbE2DcbBw8WYvq1ksQxAT9yMR910bLqBNKbNG-_ngHt0_Y3DKSsM98iVRawWNHARP4MUHOoRgTVbybnhi4yQUSBXJTqC7qrrbtoAJ5ccV3xaMcR6dDqZidJoD_WS0]--></g></svg>