<?xml version="1.0" encoding="UTF-8" standalone="no"?><svg xmlns="http://www.w3.org/2000/svg" xmlns:xlink="http://www.w3.org/1999/xlink" contentStyleType="text/css" height="2111px" preserveAspectRatio="none" style="width:2281px;height:2111px;background:#FFFFFF;" version="1.1" viewBox="0 0 2281 2111" width="2281px" zoomAndPan="magnify"><defs/><g><!--class AbstractUI--><g id="elem_AbstractUI"><rect codeLine="4" fill="#F1F1F1" height="126.625" id="AbstractUI" rx="2.5" ry="2.5" style="stroke:#181818;stroke-width:0.5;" width="126" x="1638" y="7"/><ellipse cx="1654.45" cy="24.5781" fill="#A9DCDF" rx="12" ry="12" style="stroke:#181818;stroke-width:1.0;"/><path d="M1656.9031,26.6094 L1652.0281,26.6094 L1651.5438,27.8281 L1652.0281,27.8281 Q1652.7625,27.8281 1653.0594,28.1094 Q1653.3719,28.375 1653.3719,28.8281 Q1653.3719,29.2656 1653.0594,29.5469 Q1652.7625,29.8281 1652.0281,29.8281 L1649.3406,29.8281 Q1648.6219,29.8281 1648.3094,29.5469 Q1647.9969,29.2656 1647.9969,28.8281 Q1647.9969,28.375 1648.325,28.0938 Q1648.6531,27.8125 1649.3875,27.8281 L1652.5281,20 L1651.2313,20 Q1650.4969,20 1650.1844,19.7188 Q1649.8875,19.4375 1649.8875,18.9844 Q1649.8875,18.5313 1650.1844,18.2656 Q1650.4969,17.9844 1651.2313,17.9844 L1655.5438,17.9844 L1659.5281,27.8281 Q1660.2313,27.8281 1660.4656,27.9844 Q1660.9188,28.2969 1660.9188,28.8281 Q1660.9188,29.2656 1660.6063,29.5469 Q1660.3094,29.8281 1659.5906,29.8281 L1656.8875,29.8281 Q1656.1688,29.8281 1655.8563,29.5469 Q1655.5438,29.2656 1655.5438,28.8281 Q1655.5438,28.375 1655.8563,28.1094 Q1656.1688,27.8281 1656.8875,27.8281 L1657.3719,27.8281 L1656.9031,26.6094 Z M1656.075,24.6094 L1654.45,20.6406 L1652.8406,24.6094 L1656.075,24.6094 Z " fill="#000000"/><text fill="#000000" font-family="sans-serif" font-size="20" font-style="italic" lengthAdjust="spacing" textLength="91" x="1669.55" y="32.7617">AbstractUI</text><line style="stroke:#181818;stroke-width:0.5;" x1="1639" x2="1763" y1="42.1563" y2="42.1563"/><line style="stroke:#181818;stroke-width:0.5;" x1="1639" x2="1763" y1="50.1563" y2="50.1563"/><polygon fill="#FFFF44" points="1649,63.2344,1653,67.2344,1649,71.2344,1645,67.2344" style="stroke:#B38D22;stroke-width:1.0;"/><text fill="#000000" font-family="sans-serif" font-size="20" lengthAdjust="spacing" textLength="85" x="1659" y="74.918">doShow()</text><polygon fill="#FFFF44" points="1649,88.3906,1653,92.3906,1649,96.3906,1645,92.3906" style="stroke:#B38D22;stroke-width:1.0;"/><text fill="#000000" font-family="sans-serif" font-size="20" lengthAdjust="spacing" textLength="60" x="1659" y="100.0742">show()</text><polygon fill="#FFFF44" points="1649,113.5469,1653,117.5469,1649,121.5469,1645,117.5469" style="stroke:#B38D22;stroke-width:1.0;"/><text fill="#000000" font-family="sans-serif" font-size="20" lengthAdjust="spacing" textLength="99" x="1659" y="125.2305">mainLoop()</text></g><!--class AuthorizationService--><g id="elem_AuthorizationService"><rect codeLine="10" fill="#F1F1F1" height="76.3125" id="AuthorizationService" rx="2.5" ry="2.5" style="stroke:#181818;stroke-width:0.5;" width="343" x="1529.5" y="466"/><ellipse cx="1608" cy="483.5781" fill="#ADD1B2" rx="12" ry="12" style="stroke:#181818;stroke-width:1.0;"/><path d="M1610.1406,478.5 Q1610.3281,478.25 1610.5469,478.125 Q1610.7656,477.9844 1611.0156,477.9844 Q1611.4531,477.9844 1611.7344,478.2969 Q1612.0156,478.5938 1612.0156,479.3125 L1612.0156,481.0156 Q1612.0156,481.7344 1611.7344,482.0469 Q1611.4531,482.3594 1611.0156,482.3594 Q1610.625,482.3594 1610.375,482.125 Q1610.125,481.9063 1610.0156,481.2969 Q1609.9531,480.875 1609.7344,480.6563 Q1609.3438,480.2188 1608.625,479.9531 Q1607.9063,479.6875 1607.1875,479.6875 Q1606.2813,479.6875 1605.5313,480.0781 Q1604.7813,480.4688 1604.2031,481.3594 Q1603.625,482.2344 1603.625,483.4375 L1603.625,484.7344 Q1603.625,486.1875 1604.6719,487.1563 Q1605.7344,488.125 1607.5938,488.125 Q1608.7031,488.125 1609.4844,487.8125 Q1609.9219,487.6406 1610.4375,487.125 Q1610.75,486.8125 1610.9219,486.7188 Q1611.0938,486.625 1611.3281,486.625 Q1611.7188,486.625 1612.0156,486.9375 Q1612.3281,487.2344 1612.3281,487.6406 Q1612.3281,488.0469 1611.9219,488.5156 Q1611.3281,489.2031 1610.3906,489.5938 Q1609.125,490.125 1607.6094,490.125 Q1605.8281,490.125 1604.4063,489.3906 Q1603.25,488.7969 1602.4375,487.5313 Q1601.625,486.2656 1601.625,484.7813 L1601.625,483.4219 Q1601.625,481.8594 1602.3438,480.5156 Q1603.0781,479.1563 1604.3594,478.4219 Q1605.6563,477.6875 1607.1094,477.6875 Q1607.9688,477.6875 1608.7188,477.8906 Q1609.4844,478.0938 1610.1406,478.5 Z " fill="#000000"/><text fill="#000000" font-family="sans-serif" font-size="20" lengthAdjust="spacing" textLength="177" x="1630" y="491.7617">AuthorizationService</text><line style="stroke:#181818;stroke-width:0.5;" x1="1530.5" x2="1871.5" y1="501.1563" y2="501.1563"/><line style="stroke:#181818;stroke-width:0.5;" x1="1530.5" x2="1871.5" y1="509.1563" y2="509.1563"/><ellipse cx="1540.5" cy="527.2344" fill="#84BE84" rx="3" ry="3" style="stroke:#038048;stroke-width:1.0;"/><text fill="#000000" font-family="sans-serif" font-size="20" lengthAdjust="spacing" textLength="316" x="1550.5" y="533.918">loggedinUserWithPermissions(roles)</text></g><!--class UserManagementService--><g id="elem_UserManagementService"><rect codeLine="14" fill="#F1F1F1" height="76.3125" id="UserManagementService" rx="2.5" ry="2.5" style="stroke:#181818;stroke-width:0.5;" width="505" x="1343.5" y="614.5"/><ellipse cx="1481.5" cy="632.0781" fill="#ADD1B2" rx="12" ry="12" style="stroke:#181818;stroke-width:1.0;"/><path d="M1483.6406,627 Q1483.8281,626.75 1484.0469,626.625 Q1484.2656,626.4844 1484.5156,626.4844 Q1484.9531,626.4844 1485.2344,626.7969 Q1485.5156,627.0938 1485.5156,627.8125 L1485.5156,629.5156 Q1485.5156,630.2344 1485.2344,630.5469 Q1484.9531,630.8594 1484.5156,630.8594 Q1484.125,630.8594 1483.875,630.625 Q1483.625,630.4063 1483.5156,629.7969 Q1483.4531,629.375 1483.2344,629.1563 Q1482.8438,628.7188 1482.125,628.4531 Q1481.4063,628.1875 1480.6875,628.1875 Q1479.7813,628.1875 1479.0313,628.5781 Q1478.2813,628.9688 1477.7031,629.8594 Q1477.125,630.7344 1477.125,631.9375 L1477.125,633.2344 Q1477.125,634.6875 1478.1719,635.6563 Q1479.2344,636.625 1481.0938,636.625 Q1482.2031,636.625 1482.9844,636.3125 Q1483.4219,636.1406 1483.9375,635.625 Q1484.25,635.3125 1484.4219,635.2188 Q1484.5938,635.125 1484.8281,635.125 Q1485.2188,635.125 1485.5156,635.4375 Q1485.8281,635.7344 1485.8281,636.1406 Q1485.8281,636.5469 1485.4219,637.0156 Q1484.8281,637.7031 1483.8906,638.0938 Q1482.625,638.625 1481.1094,638.625 Q1479.3281,638.625 1477.9063,637.8906 Q1476.75,637.2969 1475.9375,636.0313 Q1475.125,634.7656 1475.125,633.2813 L1475.125,631.9219 Q1475.125,630.3594 1475.8438,629.0156 Q1476.5781,627.6563 1477.8594,626.9219 Q1479.1563,626.1875 1480.6094,626.1875 Q1481.4688,626.1875 1482.2188,626.3906 Q1482.9844,626.5938 1483.6406,627 Z " fill="#000000"/><text fill="#000000" font-family="sans-serif" font-size="20" lengthAdjust="spacing" textLength="220" x="1503.5" y="640.2617">UserManagementService</text><line style="stroke:#181818;stroke-width:0.5;" x1="1344.5" x2="1847.5" y1="649.6563" y2="649.6563"/><line style="stroke:#181818;stroke-width:0.5;" x1="1344.5" x2="1847.5" y1="657.6563" y2="657.6563"/><ellipse cx="1354.5" cy="675.7344" fill="#84BE84" rx="3" ry="3" style="stroke:#038048;stroke-width:1.0;"/><text fill="#000000" font-family="sans-serif" font-size="20" lengthAdjust="spacing" textLength="478" x="1364.5" y="682.418">registerNewUser(email, password, name, email, roles)</text></g><!--class CustomerManagementService--><g id="elem_CustomerManagementService"><rect codeLine="17" fill="#F1F1F1" height="101.4688" id="CustomerManagementService" rx="2.5" ry="2.5" style="stroke:#181818;stroke-width:0.5;" width="548" x="760" y="602"/><ellipse cx="897.5" cy="619.5781" fill="#ADD1B2" rx="12" ry="12" style="stroke:#181818;stroke-width:1.0;"/><path d="M899.6406,614.5 Q899.8281,614.25 900.0469,614.125 Q900.2656,613.9844 900.5156,613.9844 Q900.9531,613.9844 901.2344,614.2969 Q901.5156,614.5938 901.5156,615.3125 L901.5156,617.0156 Q901.5156,617.7344 901.2344,618.0469 Q900.9531,618.3594 900.5156,618.3594 Q900.125,618.3594 899.875,618.125 Q899.625,617.9063 899.5156,617.2969 Q899.4531,616.875 899.2344,616.6563 Q898.8438,616.2188 898.125,615.9531 Q897.4063,615.6875 896.6875,615.6875 Q895.7813,615.6875 895.0313,616.0781 Q894.2813,616.4688 893.7031,617.3594 Q893.125,618.2344 893.125,619.4375 L893.125,620.7344 Q893.125,622.1875 894.1719,623.1563 Q895.2344,624.125 897.0938,624.125 Q898.2031,624.125 898.9844,623.8125 Q899.4219,623.6406 899.9375,623.125 Q900.25,622.8125 900.4219,622.7188 Q900.5938,622.625 900.8281,622.625 Q901.2188,622.625 901.5156,622.9375 Q901.8281,623.2344 901.8281,623.6406 Q901.8281,624.0469 901.4219,624.5156 Q900.8281,625.2031 899.8906,625.5938 Q898.625,626.125 897.1094,626.125 Q895.3281,626.125 893.9063,625.3906 Q892.75,624.7969 891.9375,623.5313 Q891.125,622.2656 891.125,620.7813 L891.125,619.4219 Q891.125,617.8594 891.8438,616.5156 Q892.5781,615.1563 893.8594,614.4219 Q895.1563,613.6875 896.6094,613.6875 Q897.4688,613.6875 898.2188,613.8906 Q898.9844,614.0938 899.6406,614.5 Z " fill="#000000"/><text fill="#000000" font-family="sans-serif" font-size="20" lengthAdjust="spacing" textLength="264" x="919.5" y="627.7617">CustomerManagementService</text><line style="stroke:#181818;stroke-width:0.5;" x1="761" x2="1307" y1="637.1563" y2="637.1563"/><line style="stroke:#181818;stroke-width:0.5;" x1="761" x2="1307" y1="645.1563" y2="645.1563"/><ellipse cx="771" cy="675.8125" fill="#84BE84" rx="3" ry="3" style="stroke:#038048;stroke-width:1.0;"/><text fill="#000000" font-family="sans-serif" font-size="20" lengthAdjust="spacing" textLength="521" x="781" y="669.918">registerNewEntity(companyName, address, customerCode,</text><text fill="#000000" font-family="sans-serif" font-size="20" lengthAdjust="spacing" textLength="310" x="781" y="695.0742">customerManager,email,password)</text></g><!--class EventPublisher--><g id="elem_EventPublisher"><rect codeLine="21" fill="#F1F1F1" height="76.3125" id="EventPublisher" rx="2.5" ry="2.5" style="stroke:#181818;stroke-width:0.5;" width="168" x="1133" y="949.5"/><ellipse cx="1149" cy="967.0781" fill="#B4A7E5" rx="12" ry="12" style="stroke:#181818;stroke-width:1.0;"/><path d="M1150,963.25 L1150,971.0781 L1152.0313,971.0781 Q1152.75,971.0781 1153.0469,971.3594 Q1153.3594,971.625 1153.3594,972.0781 Q1153.3594,972.5156 1153.0469,972.7969 Q1152.75,973.0781 1152.0313,973.0781 L1145.9844,973.0781 Q1145.25,973.0781 1144.9375,972.7969 Q1144.6406,972.5156 1144.6406,972.0781 Q1144.6406,971.625 1144.9375,971.3594 Q1145.25,971.0781 1145.9844,971.0781 L1148,971.0781 L1148,963.25 L1145.9844,963.25 Q1145.25,963.25 1144.9375,962.9688 Q1144.6406,962.6875 1144.6406,962.2344 Q1144.6406,961.7813 1144.9375,961.5156 Q1145.25,961.2344 1145.9844,961.2344 L1152.0313,961.2344 Q1152.75,961.2344 1153.0469,961.5156 Q1153.3594,961.7813 1153.3594,962.2344 Q1153.3594,962.6875 1153.0469,962.9688 Q1152.75,963.25 1152.0313,963.25 L1150,963.25 Z " fill="#000000"/><text fill="#000000" font-family="sans-serif" font-size="20" font-style="italic" lengthAdjust="spacing" textLength="134" x="1164" y="975.2617">EventPublisher</text><line style="stroke:#181818;stroke-width:0.5;" x1="1134" x2="1300" y1="984.6563" y2="984.6563"/><line style="stroke:#181818;stroke-width:0.5;" x1="1134" x2="1300" y1="992.6563" y2="992.6563"/><ellipse cx="1144" cy="1010.7344" fill="#84BE84" rx="3" ry="3" style="stroke:#038048;stroke-width:1.0;"/><text fill="#000000" font-family="sans-serif" font-size="20" lengthAdjust="spacing" textLength="74" x="1154" y="1017.418">publish()</text></g><!--class EventHandler--><g id="elem_EventHandler"><rect codeLine="24" fill="#F1F1F1" height="76.3125" id="EventHandler" rx="2.5" ry="2.5" style="stroke:#181818;stroke-width:0.5;" width="154" x="1109" y="1123.5"/><ellipse cx="1125" cy="1141.0781" fill="#B4A7E5" rx="12" ry="12" style="stroke:#181818;stroke-width:1.0;"/><path d="M1126,1137.25 L1126,1145.0781 L1128.0313,1145.0781 Q1128.75,1145.0781 1129.0469,1145.3594 Q1129.3594,1145.625 1129.3594,1146.0781 Q1129.3594,1146.5156 1129.0469,1146.7969 Q1128.75,1147.0781 1128.0313,1147.0781 L1121.9844,1147.0781 Q1121.25,1147.0781 1120.9375,1146.7969 Q1120.6406,1146.5156 1120.6406,1146.0781 Q1120.6406,1145.625 1120.9375,1145.3594 Q1121.25,1145.0781 1121.9844,1145.0781 L1124,1145.0781 L1124,1137.25 L1121.9844,1137.25 Q1121.25,1137.25 1120.9375,1136.9688 Q1120.6406,1136.6875 1120.6406,1136.2344 Q1120.6406,1135.7813 1120.9375,1135.5156 Q1121.25,1135.2344 1121.9844,1135.2344 L1128.0313,1135.2344 Q1128.75,1135.2344 1129.0469,1135.5156 Q1129.3594,1135.7813 1129.3594,1136.2344 Q1129.3594,1136.6875 1129.0469,1136.9688 Q1128.75,1137.25 1128.0313,1137.25 L1126,1137.25 Z " fill="#000000"/><text fill="#000000" font-family="sans-serif" font-size="20" font-style="italic" lengthAdjust="spacing" textLength="120" x="1140" y="1149.2617">EventHandler</text><line style="stroke:#181818;stroke-width:0.5;" x1="1110" x2="1262" y1="1158.6563" y2="1158.6563"/><line style="stroke:#181818;stroke-width:0.5;" x1="1110" x2="1262" y1="1166.6563" y2="1166.6563"/><ellipse cx="1120" cy="1184.7344" fill="#84BE84" rx="3" ry="3" style="stroke:#038048;stroke-width:1.0;"/><text fill="#000000" font-family="sans-serif" font-size="20" lengthAdjust="spacing" textLength="84" x="1130" y="1191.418">onEvent()</text></g><!--class DomainEvent--><g id="elem_DomainEvent"><rect codeLine="27" fill="#F1F1F1" height="101.4688" id="DomainEvent" rx="2.5" ry="2.5" style="stroke:#181818;stroke-width:0.5;" width="153" x="640.5" y="1111"/><ellipse cx="656.5" cy="1128.5781" fill="#B4A7E5" rx="12" ry="12" style="stroke:#181818;stroke-width:1.0;"/><path d="M657.5,1124.75 L657.5,1132.5781 L659.5313,1132.5781 Q660.25,1132.5781 660.5469,1132.8594 Q660.8594,1133.125 660.8594,1133.5781 Q660.8594,1134.0156 660.5469,1134.2969 Q660.25,1134.5781 659.5313,1134.5781 L653.4844,1134.5781 Q652.75,1134.5781 652.4375,1134.2969 Q652.1406,1134.0156 652.1406,1133.5781 Q652.1406,1133.125 652.4375,1132.8594 Q652.75,1132.5781 653.4844,1132.5781 L655.5,1132.5781 L655.5,1124.75 L653.4844,1124.75 Q652.75,1124.75 652.4375,1124.4688 Q652.1406,1124.1875 652.1406,1123.7344 Q652.1406,1123.2813 652.4375,1123.0156 Q652.75,1122.7344 653.4844,1122.7344 L659.5313,1122.7344 Q660.25,1122.7344 660.5469,1123.0156 Q660.8594,1123.2813 660.8594,1123.7344 Q660.8594,1124.1875 660.5469,1124.4688 Q660.25,1124.75 659.5313,1124.75 L657.5,1124.75 Z " fill="#000000"/><text fill="#000000" font-family="sans-serif" font-size="20" font-style="italic" lengthAdjust="spacing" textLength="119" x="671.5" y="1136.7617">DomainEvent</text><line style="stroke:#181818;stroke-width:0.5;" x1="641.5" x2="792.5" y1="1146.1563" y2="1146.1563"/><line style="stroke:#181818;stroke-width:0.5;" x1="641.5" x2="792.5" y1="1154.1563" y2="1154.1563"/><ellipse cx="651.5" cy="1172.2344" fill="#84BE84" rx="3" ry="3" style="stroke:#038048;stroke-width:1.0;"/><text fill="#000000" font-family="sans-serif" font-size="20" lengthAdjust="spacing" textLength="110" x="661.5" y="1178.918">occurredAt()</text><ellipse cx="651.5" cy="1197.3906" fill="#84BE84" rx="3" ry="3" style="stroke:#038048;stroke-width:1.0;"/><text fill="#000000" font-family="sans-serif" font-size="20" lengthAdjust="spacing" textLength="122" x="661.5" y="1204.0742">registeredAt()</text></g><!--class DomainRepository--><g id="elem_DomainRepository"><rect codeLine="31" fill="#F1F1F1" height="76.3125" id="DomainRepository" rx="2.5" ry="2.5" style="stroke:#181818;stroke-width:0.5;" width="198" x="1299" y="1952.5"/><ellipse cx="1315" cy="1970.0781" fill="#B4A7E5" rx="12" ry="12" style="stroke:#181818;stroke-width:1.0;"/><path d="M1316,1966.25 L1316,1974.0781 L1318.0313,1974.0781 Q1318.75,1974.0781 1319.0469,1974.3594 Q1319.3594,1974.625 1319.3594,1975.0781 Q1319.3594,1975.5156 1319.0469,1975.7969 Q1318.75,1976.0781 1318.0313,1976.0781 L1311.9844,1976.0781 Q1311.25,1976.0781 1310.9375,1975.7969 Q1310.6406,1975.5156 1310.6406,1975.0781 Q1310.6406,1974.625 1310.9375,1974.3594 Q1311.25,1974.0781 1311.9844,1974.0781 L1314,1974.0781 L1314,1966.25 L1311.9844,1966.25 Q1311.25,1966.25 1310.9375,1965.9688 Q1310.6406,1965.6875 1310.6406,1965.2344 Q1310.6406,1964.7813 1310.9375,1964.5156 Q1311.25,1964.2344 1311.9844,1964.2344 L1318.0313,1964.2344 Q1318.75,1964.2344 1319.0469,1964.5156 Q1319.3594,1964.7813 1319.3594,1965.2344 Q1319.3594,1965.6875 1319.0469,1965.9688 Q1318.75,1966.25 1318.0313,1966.25 L1316,1966.25 Z " fill="#000000"/><text fill="#000000" font-family="sans-serif" font-size="20" font-style="italic" lengthAdjust="spacing" textLength="164" x="1330" y="1978.2617">DomainRepository</text><line style="stroke:#181818;stroke-width:0.5;" x1="1300" x2="1496" y1="1987.6563" y2="1987.6563"/><line style="stroke:#181818;stroke-width:0.5;" x1="1300" x2="1496" y1="1995.6563" y2="1995.6563"/><ellipse cx="1310" cy="2013.7344" fill="#84BE84" rx="3" ry="3" style="stroke:#038048;stroke-width:1.0;"/><text fill="#000000" font-family="sans-serif" font-size="20" lengthAdjust="spacing" textLength="136" x="1320" y="2020.418">save(customer)</text></g><!--class RegisterCustomerUI--><g id="elem_RegisterCustomerUI"><rect codeLine="37" fill="#F1F1F1" height="51.1563" id="RegisterCustomerUI" rx="2.5" ry="2.5" style="stroke:#181818;stroke-width:0.5;" width="212" x="1595" y="194"/><ellipse cx="1611" cy="211.5781" fill="#ADD1B2" rx="12" ry="12" style="stroke:#181818;stroke-width:1.0;"/><path d="M1613.1406,206.5 Q1613.3281,206.25 1613.5469,206.125 Q1613.7656,205.9844 1614.0156,205.9844 Q1614.4531,205.9844 1614.7344,206.2969 Q1615.0156,206.5938 1615.0156,207.3125 L1615.0156,209.0156 Q1615.0156,209.7344 1614.7344,210.0469 Q1614.4531,210.3594 1614.0156,210.3594 Q1613.625,210.3594 1613.375,210.125 Q1613.125,209.9063 1613.0156,209.2969 Q1612.9531,208.875 1612.7344,208.6563 Q1612.3438,208.2188 1611.625,207.9531 Q1610.9063,207.6875 1610.1875,207.6875 Q1609.2813,207.6875 1608.5313,208.0781 Q1607.7813,208.4688 1607.2031,209.3594 Q1606.625,210.2344 1606.625,211.4375 L1606.625,212.7344 Q1606.625,214.1875 1607.6719,215.1563 Q1608.7344,216.125 1610.5938,216.125 Q1611.7031,216.125 1612.4844,215.8125 Q1612.9219,215.6406 1613.4375,215.125 Q1613.75,214.8125 1613.9219,214.7188 Q1614.0938,214.625 1614.3281,214.625 Q1614.7188,214.625 1615.0156,214.9375 Q1615.3281,215.2344 1615.3281,215.6406 Q1615.3281,216.0469 1614.9219,216.5156 Q1614.3281,217.2031 1613.3906,217.5938 Q1612.125,218.125 1610.6094,218.125 Q1608.8281,218.125 1607.4063,217.3906 Q1606.25,216.7969 1605.4375,215.5313 Q1604.625,214.2656 1604.625,212.7813 L1604.625,211.4219 Q1604.625,209.8594 1605.3438,208.5156 Q1606.0781,207.1563 1607.3594,206.4219 Q1608.6563,205.6875 1610.1094,205.6875 Q1610.9688,205.6875 1611.7188,205.8906 Q1612.4844,206.0938 1613.1406,206.5 Z " fill="#000000"/><text fill="#000000" font-family="sans-serif" font-size="20" lengthAdjust="spacing" textLength="178" x="1626" y="219.7617">RegisterCustomerUI</text><line style="stroke:#181818;stroke-width:0.5;" x1="1596" x2="1806" y1="229.1563" y2="229.1563"/><line style="stroke:#181818;stroke-width:0.5;" x1="1596" x2="1806" y1="237.1563" y2="237.1563"/></g><!--class RegisterCustomerController--><g id="elem_RegisterCustomerController"><rect codeLine="41" fill="#F1F1F1" height="101.4688" id="RegisterCustomerController" rx="2.5" ry="2.5" style="stroke:#181818;stroke-width:0.5;" width="545" x="1428.5" y="305"/><ellipse cx="1574.5" cy="322.5781" fill="#ADD1B2" rx="12" ry="12" style="stroke:#181818;stroke-width:1.0;"/><path d="M1576.6406,317.5 Q1576.8281,317.25 1577.0469,317.125 Q1577.2656,316.9844 1577.5156,316.9844 Q1577.9531,316.9844 1578.2344,317.2969 Q1578.5156,317.5938 1578.5156,318.3125 L1578.5156,320.0156 Q1578.5156,320.7344 1578.2344,321.0469 Q1577.9531,321.3594 1577.5156,321.3594 Q1577.125,321.3594 1576.875,321.125 Q1576.625,320.9063 1576.5156,320.2969 Q1576.4531,319.875 1576.2344,319.6563 Q1575.8438,319.2188 1575.125,318.9531 Q1574.4063,318.6875 1573.6875,318.6875 Q1572.7813,318.6875 1572.0313,319.0781 Q1571.2813,319.4688 1570.7031,320.3594 Q1570.125,321.2344 1570.125,322.4375 L1570.125,323.7344 Q1570.125,325.1875 1571.1719,326.1563 Q1572.2344,327.125 1574.0938,327.125 Q1575.2031,327.125 1575.9844,326.8125 Q1576.4219,326.6406 1576.9375,326.125 Q1577.25,325.8125 1577.4219,325.7188 Q1577.5938,325.625 1577.8281,325.625 Q1578.2188,325.625 1578.5156,325.9375 Q1578.8281,326.2344 1578.8281,326.6406 Q1578.8281,327.0469 1578.4219,327.5156 Q1577.8281,328.2031 1576.8906,328.5938 Q1575.625,329.125 1574.1094,329.125 Q1572.3281,329.125 1570.9063,328.3906 Q1569.75,327.7969 1568.9375,326.5313 Q1568.125,325.2656 1568.125,323.7813 L1568.125,322.4219 Q1568.125,320.8594 1568.8438,319.5156 Q1569.5781,318.1563 1570.8594,317.4219 Q1572.1563,316.6875 1573.6094,316.6875 Q1574.4688,316.6875 1575.2188,316.8906 Q1575.9844,317.0938 1576.6406,317.5 Z " fill="#000000"/><text fill="#000000" font-family="sans-serif" font-size="20" lengthAdjust="spacing" textLength="244" x="1596.5" y="330.7617">RegisterCustomerController</text><line style="stroke:#181818;stroke-width:0.5;" x1="1429.5" x2="1972.5" y1="340.1563" y2="340.1563"/><line style="stroke:#181818;stroke-width:0.5;" x1="1429.5" x2="1972.5" y1="348.1563" y2="348.1563"/><ellipse cx="1439.5" cy="378.8125" fill="#84BE84" rx="3" ry="3" style="stroke:#038048;stroke-width:1.0;"/><text fill="#000000" font-family="sans-serif" font-size="20" lengthAdjust="spacing" textLength="518" x="1449.5" y="372.918">registerCustomer(companyName, address, customerCode,</text><text fill="#000000" font-family="sans-serif" font-size="20" lengthAdjust="spacing" textLength="327" x="1449.5" y="398.0742">userEmail, userName, phoneNumber)</text></g><!--class AddCustomerOnNewCustomerUserRegisteredController--><g id="elem_AddCustomerOnNewCustomerUserRegisteredController"><rect codeLine="44" fill="#F1F1F1" height="76.3125" id="AddCustomerOnNewCustomerUserRegisteredController" rx="2.5" ry="2.5" style="stroke:#181818;stroke-width:0.5;" width="526" x="619" y="1444"/><ellipse cx="635" cy="1461.5781" fill="#ADD1B2" rx="12" ry="12" style="stroke:#181818;stroke-width:1.0;"/><path d="M637.1406,1456.5 Q637.3281,1456.25 637.5469,1456.125 Q637.7656,1455.9844 638.0156,1455.9844 Q638.4531,1455.9844 638.7344,1456.2969 Q639.0156,1456.5938 639.0156,1457.3125 L639.0156,1459.0156 Q639.0156,1459.7344 638.7344,1460.0469 Q638.4531,1460.3594 638.0156,1460.3594 Q637.625,1460.3594 637.375,1460.125 Q637.125,1459.9063 637.0156,1459.2969 Q636.9531,1458.875 636.7344,1458.6563 Q636.3438,1458.2188 635.625,1457.9531 Q634.9063,1457.6875 634.1875,1457.6875 Q633.2813,1457.6875 632.5313,1458.0781 Q631.7813,1458.4688 631.2031,1459.3594 Q630.625,1460.2344 630.625,1461.4375 L630.625,1462.7344 Q630.625,1464.1875 631.6719,1465.1563 Q632.7344,1466.125 634.5938,1466.125 Q635.7031,1466.125 636.4844,1465.8125 Q636.9219,1465.6406 637.4375,1465.125 Q637.75,1464.8125 637.9219,1464.7188 Q638.0938,1464.625 638.3281,1464.625 Q638.7188,1464.625 639.0156,1464.9375 Q639.3281,1465.2344 639.3281,1465.6406 Q639.3281,1466.0469 638.9219,1466.5156 Q638.3281,1467.2031 637.3906,1467.5938 Q636.125,1468.125 634.6094,1468.125 Q632.8281,1468.125 631.4063,1467.3906 Q630.25,1466.7969 629.4375,1465.5313 Q628.625,1464.2656 628.625,1462.7813 L628.625,1461.4219 Q628.625,1459.8594 629.3438,1458.5156 Q630.0781,1457.1563 631.3594,1456.4219 Q632.6563,1455.6875 634.1094,1455.6875 Q634.9688,1455.6875 635.7188,1455.8906 Q636.4844,1456.0938 637.1406,1456.5 Z " fill="#000000"/><text fill="#000000" font-family="sans-serif" font-size="20" lengthAdjust="spacing" textLength="492" x="650" y="1469.7617">AddCustomerOnNewCustomerUserRegisteredController</text><line style="stroke:#181818;stroke-width:0.5;" x1="620" x2="1144" y1="1479.1563" y2="1479.1563"/><line style="stroke:#181818;stroke-width:0.5;" x1="620" x2="1144" y1="1487.1563" y2="1487.1563"/><ellipse cx="630" cy="1505.2344" fill="#84BE84" rx="3" ry="3" style="stroke:#038048;stroke-width:1.0;"/><text fill="#000000" font-family="sans-serif" font-size="20" lengthAdjust="spacing" textLength="396" x="640" y="1511.918">registerEntity(newCustomerRegisteredEvent)</text></g><!--class GeneratePasswordService--><g id="elem_GeneratePasswordService"><rect codeLine="47" fill="#F1F1F1" height="76.3125" id="GeneratePasswordService" rx="2.5" ry="2.5" style="stroke:#181818;stroke-width:0.5;" width="380" x="1884" y="614.5"/><ellipse cx="1951.5" cy="632.0781" fill="#ADD1B2" rx="12" ry="12" style="stroke:#181818;stroke-width:1.0;"/><path d="M1953.6406,627 Q1953.8281,626.75 1954.0469,626.625 Q1954.2656,626.4844 1954.5156,626.4844 Q1954.9531,626.4844 1955.2344,626.7969 Q1955.5156,627.0938 1955.5156,627.8125 L1955.5156,629.5156 Q1955.5156,630.2344 1955.2344,630.5469 Q1954.9531,630.8594 1954.5156,630.8594 Q1954.125,630.8594 1953.875,630.625 Q1953.625,630.4063 1953.5156,629.7969 Q1953.4531,629.375 1953.2344,629.1563 Q1952.8438,628.7188 1952.125,628.4531 Q1951.4063,628.1875 1950.6875,628.1875 Q1949.7813,628.1875 1949.0313,628.5781 Q1948.2813,628.9688 1947.7031,629.8594 Q1947.125,630.7344 1947.125,631.9375 L1947.125,633.2344 Q1947.125,634.6875 1948.1719,635.6563 Q1949.2344,636.625 1951.0938,636.625 Q1952.2031,636.625 1952.9844,636.3125 Q1953.4219,636.1406 1953.9375,635.625 Q1954.25,635.3125 1954.4219,635.2188 Q1954.5938,635.125 1954.8281,635.125 Q1955.2188,635.125 1955.5156,635.4375 Q1955.8281,635.7344 1955.8281,636.1406 Q1955.8281,636.5469 1955.4219,637.0156 Q1954.8281,637.7031 1953.8906,638.0938 Q1952.625,638.625 1951.1094,638.625 Q1949.3281,638.625 1947.9063,637.8906 Q1946.75,637.2969 1945.9375,636.0313 Q1945.125,634.7656 1945.125,633.2813 L1945.125,631.9219 Q1945.125,630.3594 1945.8438,629.0156 Q1946.5781,627.6563 1947.8594,626.9219 Q1949.1563,626.1875 1950.6094,626.1875 Q1951.4688,626.1875 1952.2188,626.3906 Q1952.9844,626.5938 1953.6406,627 Z " fill="#000000"/><text fill="#000000" font-family="sans-serif" font-size="20" lengthAdjust="spacing" textLength="236" x="1973.5" y="640.2617">GeneratePasswordService</text><line style="stroke:#181818;stroke-width:0.5;" x1="1885" x2="2263" y1="649.6563" y2="649.6563"/><line style="stroke:#181818;stroke-width:0.5;" x1="1885" x2="2263" y1="657.6563" y2="657.6563"/><ellipse cx="1895" cy="675.7344" fill="#84BE84" rx="3" ry="3" style="stroke:#038048;stroke-width:1.0;"/><text fill="#000000" font-family="sans-serif" font-size="20" lengthAdjust="spacing" textLength="353" x="1905" y="682.418">generatePassword(): RandomPassword</text></g><!--class RandomPassword--><g id="elem_RandomPassword"><rect codeLine="51" fill="#F1F1F1" height="126.625" id="RandomPassword" rx="2.5" ry="2.5" style="stroke:#181818;stroke-width:0.5;" width="401" x="1873.5" y="924"/><ellipse cx="1989" cy="941.5781" fill="#ADD1B2" rx="12" ry="12" style="stroke:#181818;stroke-width:1.0;"/><path d="M1991.1406,936.5 Q1991.3281,936.25 1991.5469,936.125 Q1991.7656,935.9844 1992.0156,935.9844 Q1992.4531,935.9844 1992.7344,936.2969 Q1993.0156,936.5938 1993.0156,937.3125 L1993.0156,939.0156 Q1993.0156,939.7344 1992.7344,940.0469 Q1992.4531,940.3594 1992.0156,940.3594 Q1991.625,940.3594 1991.375,940.125 Q1991.125,939.9063 1991.0156,939.2969 Q1990.9531,938.875 1990.7344,938.6563 Q1990.3438,938.2188 1989.625,937.9531 Q1988.9063,937.6875 1988.1875,937.6875 Q1987.2813,937.6875 1986.5313,938.0781 Q1985.7813,938.4688 1985.2031,939.3594 Q1984.625,940.2344 1984.625,941.4375 L1984.625,942.7344 Q1984.625,944.1875 1985.6719,945.1563 Q1986.7344,946.125 1988.5938,946.125 Q1989.7031,946.125 1990.4844,945.8125 Q1990.9219,945.6406 1991.4375,945.125 Q1991.75,944.8125 1991.9219,944.7188 Q1992.0938,944.625 1992.3281,944.625 Q1992.7188,944.625 1993.0156,944.9375 Q1993.3281,945.2344 1993.3281,945.6406 Q1993.3281,946.0469 1992.9219,946.5156 Q1992.3281,947.2031 1991.3906,947.5938 Q1990.125,948.125 1988.6094,948.125 Q1986.8281,948.125 1985.4063,947.3906 Q1984.25,946.7969 1983.4375,945.5313 Q1982.625,944.2656 1982.625,942.7813 L1982.625,941.4219 Q1982.625,939.8594 1983.3438,938.5156 Q1984.0781,937.1563 1985.3594,936.4219 Q1986.6563,935.6875 1988.1094,935.6875 Q1988.9688,935.6875 1989.7188,935.8906 Q1990.4844,936.0938 1991.1406,936.5 Z " fill="#000000"/><text fill="#000000" font-family="sans-serif" font-size="20" lengthAdjust="spacing" textLength="161" x="2011" y="949.7617">RandomPassword</text><line style="stroke:#181818;stroke-width:0.5;" x1="1874.5" x2="2273.5" y1="959.1563" y2="959.1563"/><rect fill="none" height="6" style="stroke:#C82930;stroke-width:1.0;" width="6" x="1881.5" y="974.2344"/><text fill="#000000" font-family="sans-serif" font-size="20" lengthAdjust="spacing" textLength="121" x="1894.5" y="983.918">rawPassword</text><line style="stroke:#181818;stroke-width:0.5;" x1="1874.5" x2="2273.5" y1="992.3125" y2="992.3125"/><ellipse cx="1884.5" cy="1010.3906" fill="#84BE84" rx="3" ry="3" style="stroke:#038048;stroke-width:1.0;"/><text fill="#000000" font-family="sans-serif" font-size="20" lengthAdjust="spacing" textLength="354" x="1894.5" y="1017.0742">RandomPassword() : RandomPassword</text><rect fill="#F24D5C" height="6" style="stroke:#C82930;stroke-width:1.0;" width="6" x="1881.5" y="1032.5469"/><text fill="#000000" font-family="sans-serif" font-size="20" lengthAdjust="spacing" textLength="374" x="1894.5" y="1042.2305">RandomPassword(int) : RandomPassword</text></g><!--class Customer--><g id="elem_Customer"><rect codeLine="57" fill="#F1F1F1" height="101.4688" id="Customer" rx="2.5" ry="2.5" style="stroke:#181818;stroke-width:0.5;" width="467" x="568.5" y="1716"/><ellipse cx="755" cy="1733.5781" fill="#ADD1B2" rx="12" ry="12" style="stroke:#181818;stroke-width:1.0;"/><path d="M757.1406,1728.5 Q757.3281,1728.25 757.5469,1728.125 Q757.7656,1727.9844 758.0156,1727.9844 Q758.4531,1727.9844 758.7344,1728.2969 Q759.0156,1728.5938 759.0156,1729.3125 L759.0156,1731.0156 Q759.0156,1731.7344 758.7344,1732.0469 Q758.4531,1732.3594 758.0156,1732.3594 Q757.625,1732.3594 757.375,1732.125 Q757.125,1731.9063 757.0156,1731.2969 Q756.9531,1730.875 756.7344,1730.6563 Q756.3438,1730.2188 755.625,1729.9531 Q754.9063,1729.6875 754.1875,1729.6875 Q753.2813,1729.6875 752.5313,1730.0781 Q751.7813,1730.4688 751.2031,1731.3594 Q750.625,1732.2344 750.625,1733.4375 L750.625,1734.7344 Q750.625,1736.1875 751.6719,1737.1563 Q752.7344,1738.125 754.5938,1738.125 Q755.7031,1738.125 756.4844,1737.8125 Q756.9219,1737.6406 757.4375,1737.125 Q757.75,1736.8125 757.9219,1736.7188 Q758.0938,1736.625 758.3281,1736.625 Q758.7188,1736.625 759.0156,1736.9375 Q759.3281,1737.2344 759.3281,1737.6406 Q759.3281,1738.0469 758.9219,1738.5156 Q758.3281,1739.2031 757.3906,1739.5938 Q756.125,1740.125 754.6094,1740.125 Q752.8281,1740.125 751.4063,1739.3906 Q750.25,1738.7969 749.4375,1737.5313 Q748.625,1736.2656 748.625,1734.7813 L748.625,1733.4219 Q748.625,1731.8594 749.3438,1730.5156 Q750.0781,1729.1563 751.3594,1728.4219 Q752.6563,1727.6875 754.1094,1727.6875 Q754.9688,1727.6875 755.7188,1727.8906 Q756.4844,1728.0938 757.1406,1728.5 Z " fill="#000000"/><text fill="#000000" font-family="sans-serif" font-size="20" lengthAdjust="spacing" textLength="85" x="777" y="1741.7617">Customer</text><line style="stroke:#181818;stroke-width:0.5;" x1="569.5" x2="1034.5" y1="1751.1563" y2="1751.1563"/><line style="stroke:#181818;stroke-width:0.5;" x1="569.5" x2="1034.5" y1="1759.1563" y2="1759.1563"/><ellipse cx="579.5" cy="1789.8125" fill="#84BE84" rx="3" ry="3" style="stroke:#038048;stroke-width:1.0;"/><text fill="#000000" font-family="sans-serif" font-size="20" lengthAdjust="spacing" textLength="311" x="589.5" y="1783.918">Customer(companyName, address,</text><text fill="#000000" font-family="sans-serif" font-size="20" lengthAdjust="spacing" textLength="440" x="589.5" y="1809.0742">customerCode, customerManager, customerUser)</text></g><!--class CustomerRepository--><g id="elem_CustomerRepository"><rect codeLine="62" fill="#F1F1F1" height="76.3125" id="CustomerRepository" rx="2.5" ry="2.5" style="stroke:#181818;stroke-width:0.5;" width="215" x="855.5" y="1580"/><ellipse cx="871.5" cy="1597.5781" fill="#B4A7E5" rx="12" ry="12" style="stroke:#181818;stroke-width:1.0;"/><path d="M872.5,1593.75 L872.5,1601.5781 L874.5313,1601.5781 Q875.25,1601.5781 875.5469,1601.8594 Q875.8594,1602.125 875.8594,1602.5781 Q875.8594,1603.0156 875.5469,1603.2969 Q875.25,1603.5781 874.5313,1603.5781 L868.4844,1603.5781 Q867.75,1603.5781 867.4375,1603.2969 Q867.1406,1603.0156 867.1406,1602.5781 Q867.1406,1602.125 867.4375,1601.8594 Q867.75,1601.5781 868.4844,1601.5781 L870.5,1601.5781 L870.5,1593.75 L868.4844,1593.75 Q867.75,1593.75 867.4375,1593.4688 Q867.1406,1593.1875 867.1406,1592.7344 Q867.1406,1592.2813 867.4375,1592.0156 Q867.75,1591.7344 868.4844,1591.7344 L874.5313,1591.7344 Q875.25,1591.7344 875.5469,1592.0156 Q875.8594,1592.2813 875.8594,1592.7344 Q875.8594,1593.1875 875.5469,1593.4688 Q875.25,1593.75 874.5313,1593.75 L872.5,1593.75 Z " fill="#000000"/><text fill="#000000" font-family="sans-serif" font-size="20" font-style="italic" lengthAdjust="spacing" textLength="181" x="886.5" y="1605.7617">CustomerRepository</text><line style="stroke:#181818;stroke-width:0.5;" x1="856.5" x2="1069.5" y1="1615.1563" y2="1615.1563"/><line style="stroke:#181818;stroke-width:0.5;" x1="856.5" x2="1069.5" y1="1623.1563" y2="1623.1563"/><ellipse cx="866.5" cy="1641.2344" fill="#84BE84" rx="3" ry="3" style="stroke:#038048;stroke-width:1.0;"/><text fill="#000000" font-family="sans-serif" font-size="20" lengthAdjust="spacing" textLength="140" x="876.5" y="1647.918">save(Customer)</text></g><!--class CustomerCode--><g id="elem_CustomerCode"><rect codeLine="65" fill="#F1F1F1" height="126.625" id="CustomerCode" rx="2.5" ry="2.5" style="stroke:#181818;stroke-width:0.5;" width="216" x="7" y="1927"/><ellipse cx="45.5" cy="1957.1563" fill="#FF8B40" rx="12" ry="12" style="stroke:#181818;stroke-width:1.0;"/><path d="M46,1961.2344 L48.8906,1954.3281 L48.4375,1954.3281 Q47.7188,1954.3281 47.4063,1954.0469 Q47.0938,1953.7656 47.0938,1953.3125 Q47.0938,1952.8594 47.4063,1952.5938 Q47.7188,1952.3125 48.4375,1952.3125 L51.125,1952.3125 Q51.8438,1952.3125 52.1563,1952.5938 Q52.4688,1952.8594 52.4688,1953.3125 Q52.4688,1953.8594 52,1954.1719 Q51.7656,1954.3281 51.0781,1954.3281 L46.9688,1964.1563 L45.0469,1964.1563 L40.9375,1954.3281 Q40.2344,1954.3281 40.0156,1954.1719 Q39.5469,1953.8594 39.5469,1953.3125 Q39.5469,1952.8594 39.8594,1952.5938 Q40.1563,1952.3125 40.875,1952.3125 L43.5781,1952.3125 Q44.2969,1952.3125 44.5938,1952.5938 Q44.9063,1952.8594 44.9063,1953.3125 Q44.9063,1953.7656 44.6094,1954.0469 Q44.3125,1954.3281 43.5781,1954.3281 L43.1094,1954.3281 L46,1961.2344 Z " fill="#000000"/><text fill="#000000" font-family="sans-serif" font-size="20" font-style="italic" lengthAdjust="spacing" textLength="128" x="67.5" y="1952.7617">«value object»</text><text fill="#000000" font-family="sans-serif" font-size="20" lengthAdjust="spacing" textLength="132" x="65.5" y="1977.918">CustomerCode</text><line style="stroke:#181818;stroke-width:0.5;" x1="8" x2="222" y1="1987.3125" y2="1987.3125"/><rect fill="none" height="6" style="stroke:#C82930;stroke-width:1.0;" width="6" x="15" y="2002.3906"/><text fill="#000000" font-family="sans-serif" font-size="20" lengthAdjust="spacing" textLength="43" x="28" y="2012.0742">code</text><line style="stroke:#181818;stroke-width:0.5;" x1="8" x2="222" y1="2020.4688" y2="2020.4688"/><ellipse cx="18" cy="2038.5469" fill="#84BE84" rx="3" ry="3" style="stroke:#038048;stroke-width:1.0;"/><text fill="#000000" font-family="sans-serif" font-size="20" lengthAdjust="spacing" textLength="189" x="28" y="2045.2305">CustomerCode(code)</text></g><!--class CompanyName--><g id="elem_CompanyName"><rect codeLine="69" fill="#F1F1F1" height="126.625" id="CompanyName" rx="2.5" ry="2.5" style="stroke:#181818;stroke-width:0.5;" width="223" x="258.5" y="1927"/><ellipse cx="299.25" cy="1957.1563" fill="#FF8B40" rx="12" ry="12" style="stroke:#181818;stroke-width:1.0;"/><path d="M299.75,1961.2344 L302.6406,1954.3281 L302.1875,1954.3281 Q301.4688,1954.3281 301.1563,1954.0469 Q300.8438,1953.7656 300.8438,1953.3125 Q300.8438,1952.8594 301.1563,1952.5938 Q301.4688,1952.3125 302.1875,1952.3125 L304.875,1952.3125 Q305.5938,1952.3125 305.9063,1952.5938 Q306.2188,1952.8594 306.2188,1953.3125 Q306.2188,1953.8594 305.75,1954.1719 Q305.5156,1954.3281 304.8281,1954.3281 L300.7188,1964.1563 L298.7969,1964.1563 L294.6875,1954.3281 Q293.9844,1954.3281 293.7656,1954.1719 Q293.2969,1953.8594 293.2969,1953.3125 Q293.2969,1952.8594 293.6094,1952.5938 Q293.9063,1952.3125 294.625,1952.3125 L297.3281,1952.3125 Q298.0469,1952.3125 298.3438,1952.5938 Q298.6563,1952.8594 298.6563,1953.3125 Q298.6563,1953.7656 298.3594,1954.0469 Q298.0625,1954.3281 297.3281,1954.3281 L296.8594,1954.3281 L299.75,1961.2344 Z " fill="#000000"/><text fill="#000000" font-family="sans-serif" font-size="20" font-style="italic" lengthAdjust="spacing" textLength="128" x="322.75" y="1952.7617">«value object»</text><text fill="#000000" font-family="sans-serif" font-size="20" lengthAdjust="spacing" textLength="134" x="319.75" y="1977.918">CompanyName</text><line style="stroke:#181818;stroke-width:0.5;" x1="259.5" x2="480.5" y1="1987.3125" y2="1987.3125"/><rect fill="none" height="6" style="stroke:#C82930;stroke-width:1.0;" width="6" x="266.5" y="2002.3906"/><text fill="#000000" font-family="sans-serif" font-size="20" lengthAdjust="spacing" textLength="48" x="279.5" y="2012.0742">name</text><line style="stroke:#181818;stroke-width:0.5;" x1="259.5" x2="480.5" y1="2020.4688" y2="2020.4688"/><ellipse cx="269.5" cy="2038.5469" fill="#84BE84" rx="3" ry="3" style="stroke:#038048;stroke-width:1.0;"/><text fill="#000000" font-family="sans-serif" font-size="20" lengthAdjust="spacing" textLength="196" x="279.5" y="2045.2305">CompanyName(name)</text></g><!--class Address--><g id="elem_Address"><rect codeLine="73" fill="#F1F1F1" height="227.25" id="Address" rx="2.5" ry="2.5" style="stroke:#181818;stroke-width:0.5;" width="571" x="516.5" y="1877"/><ellipse cx="735.5" cy="1907.1563" fill="#FF8B40" rx="12" ry="12" style="stroke:#181818;stroke-width:1.0;"/><path d="M736,1911.2344 L738.8906,1904.3281 L738.4375,1904.3281 Q737.7188,1904.3281 737.4063,1904.0469 Q737.0938,1903.7656 737.0938,1903.3125 Q737.0938,1902.8594 737.4063,1902.5938 Q737.7188,1902.3125 738.4375,1902.3125 L741.125,1902.3125 Q741.8438,1902.3125 742.1563,1902.5938 Q742.4688,1902.8594 742.4688,1903.3125 Q742.4688,1903.8594 742,1904.1719 Q741.7656,1904.3281 741.0781,1904.3281 L736.9688,1914.1563 L735.0469,1914.1563 L730.9375,1904.3281 Q730.2344,1904.3281 730.0156,1904.1719 Q729.5469,1903.8594 729.5469,1903.3125 Q729.5469,1902.8594 729.8594,1902.5938 Q730.1563,1902.3125 730.875,1902.3125 L733.5781,1902.3125 Q734.2969,1902.3125 734.5938,1902.5938 Q734.9063,1902.8594 734.9063,1903.3125 Q734.9063,1903.7656 734.6094,1904.0469 Q734.3125,1904.3281 733.5781,1904.3281 L733.1094,1904.3281 L736,1911.2344 Z " fill="#000000"/><text fill="#000000" font-family="sans-serif" font-size="20" font-style="italic" lengthAdjust="spacing" textLength="128" x="755.5" y="1902.7617">«value object»</text><text fill="#000000" font-family="sans-serif" font-size="20" lengthAdjust="spacing" textLength="73" x="783" y="1927.918">Address</text><line style="stroke:#181818;stroke-width:0.5;" x1="517.5" x2="1086.5" y1="1937.3125" y2="1937.3125"/><rect fill="none" height="6" style="stroke:#C82930;stroke-width:1.0;" width="6" x="524.5" y="1952.3906"/><text fill="#000000" font-family="sans-serif" font-size="20" lengthAdjust="spacing" textLength="102" x="537.5" y="1962.0742">streetName</text><rect fill="none" height="6" style="stroke:#C82930;stroke-width:1.0;" width="6" x="524.5" y="1977.5469"/><text fill="#000000" font-family="sans-serif" font-size="20" lengthAdjust="spacing" textLength="119" x="537.5" y="1987.2305">streetNumber</text><rect fill="none" height="6" style="stroke:#C82930;stroke-width:1.0;" width="6" x="524.5" y="2002.7031"/><text fill="#000000" font-family="sans-serif" font-size="20" lengthAdjust="spacing" textLength="100" x="537.5" y="2012.3867">postalCode</text><rect fill="none" height="6" style="stroke:#C82930;stroke-width:1.0;" width="6" x="524.5" y="2027.8594"/><text fill="#000000" font-family="sans-serif" font-size="20" lengthAdjust="spacing" textLength="58" x="537.5" y="2037.543">district</text><rect fill="none" height="6" style="stroke:#C82930;stroke-width:1.0;" width="6" x="524.5" y="2053.0156"/><text fill="#000000" font-family="sans-serif" font-size="20" lengthAdjust="spacing" textLength="30" x="537.5" y="2062.6992">city</text><line style="stroke:#181818;stroke-width:0.5;" x1="517.5" x2="1086.5" y1="2071.0938" y2="2071.0938"/><ellipse cx="527.5" cy="2089.1719" fill="#84BE84" rx="3" ry="3" style="stroke:#038048;stroke-width:1.0;"/><text fill="#000000" font-family="sans-serif" font-size="20" lengthAdjust="spacing" textLength="544" x="537.5" y="2095.8555">Address(streetName, streetNumber, postalCode, district, city)</text></g><!--class NewCustomerUserRegisteredEvent--><g id="elem_NewCustomerUserRegisteredEvent"><rect codeLine="81" fill="#F1F1F1" height="101.4688" id="NewCustomerUserRegisteredEvent" rx="2.5" ry="2.5" style="stroke:#181818;stroke-width:0.5;" width="626" x="536" y="763"/><ellipse cx="689.5" cy="780.5781" fill="#ADD1B2" rx="12" ry="12" style="stroke:#181818;stroke-width:1.0;"/><path d="M691.6406,775.5 Q691.8281,775.25 692.0469,775.125 Q692.2656,774.9844 692.5156,774.9844 Q692.9531,774.9844 693.2344,775.2969 Q693.5156,775.5938 693.5156,776.3125 L693.5156,778.0156 Q693.5156,778.7344 693.2344,779.0469 Q692.9531,779.3594 692.5156,779.3594 Q692.125,779.3594 691.875,779.125 Q691.625,778.9063 691.5156,778.2969 Q691.4531,777.875 691.2344,777.6563 Q690.8438,777.2188 690.125,776.9531 Q689.4063,776.6875 688.6875,776.6875 Q687.7813,776.6875 687.0313,777.0781 Q686.2813,777.4688 685.7031,778.3594 Q685.125,779.2344 685.125,780.4375 L685.125,781.7344 Q685.125,783.1875 686.1719,784.1563 Q687.2344,785.125 689.0938,785.125 Q690.2031,785.125 690.9844,784.8125 Q691.4219,784.6406 691.9375,784.125 Q692.25,783.8125 692.4219,783.7188 Q692.5938,783.625 692.8281,783.625 Q693.2188,783.625 693.5156,783.9375 Q693.8281,784.2344 693.8281,784.6406 Q693.8281,785.0469 693.4219,785.5156 Q692.8281,786.2031 691.8906,786.5938 Q690.625,787.125 689.1094,787.125 Q687.3281,787.125 685.9063,786.3906 Q684.75,785.7969 683.9375,784.5313 Q683.125,783.2656 683.125,781.7813 L683.125,780.4219 Q683.125,778.8594 683.8438,777.5156 Q684.5781,776.1563 685.8594,775.4219 Q687.1563,774.6875 688.6094,774.6875 Q689.4688,774.6875 690.2188,774.8906 Q690.9844,775.0938 691.6406,775.5 Z " fill="#000000"/><text fill="#000000" font-family="sans-serif" font-size="20" lengthAdjust="spacing" textLength="310" x="711.5" y="788.7617">NewCustomerUserRegisteredEvent</text><line style="stroke:#181818;stroke-width:0.5;" x1="537" x2="1161" y1="798.1563" y2="798.1563"/><line style="stroke:#181818;stroke-width:0.5;" x1="537" x2="1161" y1="806.1563" y2="806.1563"/><ellipse cx="547" cy="836.8125" fill="#84BE84" rx="3" ry="3" style="stroke:#038048;stroke-width:1.0;"/><text fill="#000000" font-family="sans-serif" font-size="20" lengthAdjust="spacing" textLength="599" x="557" y="830.918">NewEntityRegisteredEvent(companyName, address, customerCode,</text><text fill="#000000" font-family="sans-serif" font-size="20" lengthAdjust="spacing" textLength="300" x="557" y="856.0742">customerManager, customerUser)</text></g><!--class DomainEventBase--><g id="elem_DomainEventBase"><rect codeLine="84" fill="#F1F1F1" height="51.1563" id="DomainEventBase" rx="2.5" ry="2.5" style="stroke:#181818;stroke-width:0.5;" width="198" x="900" y="962"/><ellipse cx="916" cy="979.5781" fill="#A9DCDF" rx="12" ry="12" style="stroke:#181818;stroke-width:1.0;"/><path d="M918.4531,981.6094 L913.5781,981.6094 L913.0938,982.8281 L913.5781,982.8281 Q914.3125,982.8281 914.6094,983.1094 Q914.9219,983.375 914.9219,983.8281 Q914.9219,984.2656 914.6094,984.5469 Q914.3125,984.8281 913.5781,984.8281 L910.8906,984.8281 Q910.1719,984.8281 909.8594,984.5469 Q909.5469,984.2656 909.5469,983.8281 Q909.5469,983.375 909.875,983.0938 Q910.2031,982.8125 910.9375,982.8281 L914.0781,975 L912.7813,975 Q912.0469,975 911.7344,974.7188 Q911.4375,974.4375 911.4375,973.9844 Q911.4375,973.5313 911.7344,973.2656 Q912.0469,972.9844 912.7813,972.9844 L917.0938,972.9844 L921.0781,982.8281 Q921.7813,982.8281 922.0156,982.9844 Q922.4688,983.2969 922.4688,983.8281 Q922.4688,984.2656 922.1563,984.5469 Q921.8594,984.8281 921.1406,984.8281 L918.4375,984.8281 Q917.7188,984.8281 917.4063,984.5469 Q917.0938,984.2656 917.0938,983.8281 Q917.0938,983.375 917.4063,983.1094 Q917.7188,982.8281 918.4375,982.8281 L918.9219,982.8281 L918.4531,981.6094 Z M917.625,979.6094 L916,975.6406 L914.3906,979.6094 L917.625,979.6094 Z " fill="#000000"/><text fill="#000000" font-family="sans-serif" font-size="20" font-style="italic" lengthAdjust="spacing" textLength="164" x="931" y="987.7617">DomainEventBase</text><line style="stroke:#181818;stroke-width:0.5;" x1="901" x2="1097" y1="997.1563" y2="997.1563"/><line style="stroke:#181818;stroke-width:0.5;" x1="901" x2="1097" y1="1005.1563" y2="1005.1563"/></g><!--class NewCustomerUserRegisteredWatchDog--><g id="elem_NewCustomerUserRegisteredWatchDog"><rect codeLine="86" fill="#F1F1F1" height="51.1563" id="NewCustomerUserRegisteredWatchDog" rx="2.5" ry="2.5" style="stroke:#181818;stroke-width:0.5;" width="387" x="961.5" y="1272"/><ellipse cx="977.5" cy="1289.5781" fill="#ADD1B2" rx="12" ry="12" style="stroke:#181818;stroke-width:1.0;"/><path d="M979.6406,1284.5 Q979.8281,1284.25 980.0469,1284.125 Q980.2656,1283.9844 980.5156,1283.9844 Q980.9531,1283.9844 981.2344,1284.2969 Q981.5156,1284.5938 981.5156,1285.3125 L981.5156,1287.0156 Q981.5156,1287.7344 981.2344,1288.0469 Q980.9531,1288.3594 980.5156,1288.3594 Q980.125,1288.3594 979.875,1288.125 Q979.625,1287.9063 979.5156,1287.2969 Q979.4531,1286.875 979.2344,1286.6563 Q978.8438,1286.2188 978.125,1285.9531 Q977.4063,1285.6875 976.6875,1285.6875 Q975.7813,1285.6875 975.0313,1286.0781 Q974.2813,1286.4688 973.7031,1287.3594 Q973.125,1288.2344 973.125,1289.4375 L973.125,1290.7344 Q973.125,1292.1875 974.1719,1293.1563 Q975.2344,1294.125 977.0938,1294.125 Q978.2031,1294.125 978.9844,1293.8125 Q979.4219,1293.6406 979.9375,1293.125 Q980.25,1292.8125 980.4219,1292.7188 Q980.5938,1292.625 980.8281,1292.625 Q981.2188,1292.625 981.5156,1292.9375 Q981.8281,1293.2344 981.8281,1293.6406 Q981.8281,1294.0469 981.4219,1294.5156 Q980.8281,1295.2031 979.8906,1295.5938 Q978.625,1296.125 977.1094,1296.125 Q975.3281,1296.125 973.9063,1295.3906 Q972.75,1294.7969 971.9375,1293.5313 Q971.125,1292.2656 971.125,1290.7813 L971.125,1289.4219 Q971.125,1287.8594 971.8438,1286.5156 Q972.5781,1285.1563 973.8594,1284.4219 Q975.1563,1283.6875 976.6094,1283.6875 Q977.4688,1283.6875 978.2188,1283.8906 Q978.9844,1284.0938 979.6406,1284.5 Z " fill="#000000"/><text fill="#000000" font-family="sans-serif" font-size="20" lengthAdjust="spacing" textLength="353" x="992.5" y="1297.7617">NewCustomerUserRegisteredWatchDog</text><line style="stroke:#181818;stroke-width:0.5;" x1="962.5" x2="1347.5" y1="1307.1563" y2="1307.1563"/><line style="stroke:#181818;stroke-width:0.5;" x1="962.5" x2="1347.5" y1="1315.1563" y2="1315.1563"/></g><!--class SystemUser--><g id="elem_SystemUser"><rect codeLine="89" fill="#F1F1F1" height="51.1563" id="SystemUser" rx="2.5" ry="2.5" style="stroke:#181818;stroke-width:0.5;" width="141" x="1122.5" y="1965"/><ellipse cx="1138.5" cy="1982.5781" fill="#ADD1B2" rx="12" ry="12" style="stroke:#181818;stroke-width:1.0;"/><path d="M1140.6406,1977.5 Q1140.8281,1977.25 1141.0469,1977.125 Q1141.2656,1976.9844 1141.5156,1976.9844 Q1141.9531,1976.9844 1142.2344,1977.2969 Q1142.5156,1977.5938 1142.5156,1978.3125 L1142.5156,1980.0156 Q1142.5156,1980.7344 1142.2344,1981.0469 Q1141.9531,1981.3594 1141.5156,1981.3594 Q1141.125,1981.3594 1140.875,1981.125 Q1140.625,1980.9063 1140.5156,1980.2969 Q1140.4531,1979.875 1140.2344,1979.6563 Q1139.8438,1979.2188 1139.125,1978.9531 Q1138.4063,1978.6875 1137.6875,1978.6875 Q1136.7813,1978.6875 1136.0313,1979.0781 Q1135.2813,1979.4688 1134.7031,1980.3594 Q1134.125,1981.2344 1134.125,1982.4375 L1134.125,1983.7344 Q1134.125,1985.1875 1135.1719,1986.1563 Q1136.2344,1987.125 1138.0938,1987.125 Q1139.2031,1987.125 1139.9844,1986.8125 Q1140.4219,1986.6406 1140.9375,1986.125 Q1141.25,1985.8125 1141.4219,1985.7188 Q1141.5938,1985.625 1141.8281,1985.625 Q1142.2188,1985.625 1142.5156,1985.9375 Q1142.8281,1986.2344 1142.8281,1986.6406 Q1142.8281,1987.0469 1142.4219,1987.5156 Q1141.8281,1988.2031 1140.8906,1988.5938 Q1139.625,1989.125 1138.1094,1989.125 Q1136.3281,1989.125 1134.9063,1988.3906 Q1133.75,1987.7969 1132.9375,1986.5313 Q1132.125,1985.2656 1132.125,1983.7813 L1132.125,1982.4219 Q1132.125,1980.8594 1132.8438,1979.5156 Q1133.5781,1978.1563 1134.8594,1977.4219 Q1136.1563,1976.6875 1137.6094,1976.6875 Q1138.4688,1976.6875 1139.2188,1976.8906 Q1139.9844,1977.0938 1140.6406,1977.5 Z " fill="#000000"/><text fill="#000000" font-family="sans-serif" font-size="20" lengthAdjust="spacing" textLength="107" x="1153.5" y="1990.7617">SystemUser</text><line style="stroke:#181818;stroke-width:0.5;" x1="1123.5" x2="1262.5" y1="2000.1563" y2="2000.1563"/><line style="stroke:#181818;stroke-width:0.5;" x1="1123.5" x2="1262.5" y1="2008.1563" y2="2008.1563"/></g><!--reverse link AbstractUI to RegisterCustomerUI--><g id="link_AbstractUI_RegisterCustomerUI"><path codeLine="92" d="M1701,154.65 C1701,169 1701,182.85 1701,193.96 " fill="none" id="AbstractUI-backto-RegisterCustomerUI" style="stroke:#181818;stroke-width:1.0;"/><polygon fill="none" points="1694,154.27,1701,134.27,1708,154.27,1694,154.27" style="stroke:#181818;stroke-width:1.0;"/></g><!--link RegisterCustomerUI to RegisterCustomerController--><g id="link_RegisterCustomerUI_RegisterCustomerController"><path codeLine="93" d="M1701,245.08 C1701,260.34 1701,280.59 1701,299.52 " fill="none" id="RegisterCustomerUI-to-RegisterCustomerController" style="stroke:#181818;stroke-width:1.0;stroke-dasharray:7.0,7.0;"/><polygon fill="#181818" points="1701,304.82,1705,295.82,1701,299.82,1697,295.82,1701,304.82" style="stroke:#181818;stroke-width:1.0;"/></g><!--link NewCustomerUserRegisteredEvent to DomainEventBase--><g id="link_NewCustomerUserRegisteredEvent_DomainEventBase"><path codeLine="96" d="M892.39,864.25 C915.13,890.33 942.63,921.86 964,946.36 " fill="none" id="NewCustomerUserRegisteredEvent-to-DomainEventBase" style="stroke:#181818;stroke-width:1.0;"/><polygon fill="none" points="969.49,942.01,977.36,961.69,958.94,951.22,969.49,942.01" style="stroke:#181818;stroke-width:1.0;"/></g><!--link NewCustomerUserRegisteredEvent to DomainEvent--><g id="link_NewCustomerUserRegisteredEvent_DomainEvent"><path codeLine="97" d="M830.09,864.07 C807.28,923.85 768.82,1024.66 743.18,1091.88 " fill="none" id="NewCustomerUserRegisteredEvent-to-DomainEvent" style="stroke:#181818;stroke-width:1.0;stroke-dasharray:7.0,7.0;"/><polygon fill="none" points="749.65,1094.55,735.98,1110.74,736.57,1089.56,749.65,1094.55" style="stroke:#181818;stroke-width:1.0;"/></g><!--reverse link EventHandler to NewCustomerUserRegisteredWatchDog--><g id="link_EventHandler_NewCustomerUserRegisteredWatchDog"><path codeLine="99" d="M1172.85,1219.35 C1168.62,1237.61 1164.16,1256.91 1160.75,1271.64 " fill="none" id="EventHandler-backto-NewCustomerUserRegisteredWatchDog" style="stroke:#181818;stroke-width:1.0;stroke-dasharray:7.0,7.0;"/><polygon fill="none" points="1166.04,1217.73,1177.36,1199.83,1179.68,1220.89,1166.04,1217.73" style="stroke:#181818;stroke-width:1.0;"/></g><!--link NewCustomerUserRegisteredWatchDog to AddCustomerOnNewCustomerUserRegisteredController--><g id="link_NewCustomerUserRegisteredWatchDog_AddCustomerOnNewCustomerUserRegisteredController"><path codeLine="100" d="M1118.18,1323.11 C1073.02,1353.3 995.86,1404.88 942.07,1440.84 " fill="none" id="NewCustomerUserRegisteredWatchDog-to-AddCustomerOnNewCustomerUserRegisteredController" style="stroke:#181818;stroke-width:1.0;stroke-dasharray:7.0,7.0;"/><polygon fill="#181818" points="937.59,1443.84,947.2933,1442.1528,941.7437,1441.0566,942.8399,1435.507,937.59,1443.84" style="stroke:#181818;stroke-width:1.0;"/></g><!--link EventPublisher to EventHandler--><g id="link_EventPublisher_EventHandler"><path codeLine="101" d="M1210.27,1025.82 C1205.38,1052.98 1198.74,1089.8 1193.65,1118.08 " fill="none" id="EventPublisher-to-EventHandler" style="stroke:#181818;stroke-width:1.0;stroke-dasharray:7.0,7.0;"/><polygon fill="#181818" points="1192.71,1123.25,1198.2429,1115.1022,1193.5969,1118.3293,1190.3698,1113.6832,1192.71,1123.25" style="stroke:#181818;stroke-width:1.0;"/></g><!--link Customer to CompanyName--><g id="link_Customer_CompanyName"><path codeLine="102" d="M630.3,1817.09 C586.03,1833.19 539.49,1853.17 499,1877 C477.03,1889.93 455.3,1906.83 436.12,1923.58 " fill="none" id="Customer-to-CompanyName" style="stroke:#181818;stroke-width:1.0;"/><polygon fill="#181818" points="432.31,1926.93,441.7117,1923.9961,436.0667,1923.6304,436.4324,1917.9854,432.31,1926.93" style="stroke:#181818;stroke-width:1.0;"/></g><!--link Customer to CustomerCode--><g id="link_Customer_CustomerCode"><path codeLine="103" d="M568.16,1784.91 C463.85,1799.66 341.99,1826.86 241,1877 C217.48,1888.68 195,1905.94 175.71,1923.47 " fill="none" id="Customer-to-CustomerCode" style="stroke:#181818;stroke-width:1.0;"/><polygon fill="#181818" points="171.9,1926.97,181.2406,1923.8469,175.5893,1923.5953,175.841,1917.944,171.9,1926.97" style="stroke:#181818;stroke-width:1.0;"/></g><!--link Customer to Address--><g id="link_Customer_Address"><path codeLine="104" d="M802,1817.04 C802,1833.28 802,1852.08 802,1871.17 " fill="none" id="Customer-to-Address" style="stroke:#181818;stroke-width:1.0;"/><polygon fill="#181818" points="802,1876.56,806,1867.56,802,1871.56,798,1867.56,802,1876.56" style="stroke:#181818;stroke-width:1.0;"/></g><!--link Customer to SystemUser--><g id="link_Customer_SystemUser"><path codeLine="105" d="M990.47,1817.1 C1030.42,1832.54 1070.8,1852.23 1105,1877 C1135.63,1899.18 1160.99,1934.86 1176.5,1960.08 " fill="none" id="Customer-to-SystemUser" style="stroke:#181818;stroke-width:1.0;"/><polygon fill="#181818" points="1179.28,1964.67,1178.0173,1954.9024,1176.6803,1960.399,1171.1837,1959.062,1179.28,1964.67" style="stroke:#181818;stroke-width:1.0;"/></g><!--link CustomerRepository to DomainRepository--><g id="link_CustomerRepository_DomainRepository"><path codeLine="106" d="M1011.17,1656.03 C1074.38,1705.08 1188.17,1794.97 1281,1877 C1307.05,1900.02 1335.16,1926.98 1357.3,1948.73 " fill="none" id="CustomerRepository-to-DomainRepository" style="stroke:#181818;stroke-width:1.0;stroke-dasharray:7.0,7.0;"/><polygon fill="#181818" points="1361.08,1952.45,1357.4888,1943.2792,1357.5231,1948.936,1351.8664,1948.9702,1361.08,1952.45" style="stroke:#181818;stroke-width:1.0;"/></g><!--link CustomerRepository to Customer--><g id="link_CustomerRepository_Customer"><path codeLine="107" d="M921.96,1656.35 C903.28,1673.35 880.83,1693.77 860.43,1712.33 " fill="none" id="CustomerRepository-to-Customer" style="stroke:#181818;stroke-width:1.0;"/><polygon fill="#181818" points="856.65,1715.78,866.0031,1712.6947,860.3529,1712.4202,860.6274,1706.77,856.65,1715.78" style="stroke:#181818;stroke-width:1.0;"/></g><!--link RegisterCustomerController to AuthorizationService--><g id="link_RegisterCustomerController_AuthorizationService"><path codeLine="109" d="M1701,406.1 C1701,423.85 1701,443.68 1701,460.76 " fill="none" id="RegisterCustomerController-to-AuthorizationService" style="stroke:#181818;stroke-width:1.0;"/><polygon fill="#181818" points="1701,465.96,1705,456.96,1701,460.96,1697,456.96,1701,465.96" style="stroke:#181818;stroke-width:1.0;"/></g><!--link CustomerManagementService to UserManagementService--><g id="link_CustomerManagementService_UserManagementService"><path codeLine="110" d="M1308.14,652.5 C1318.11,652.5 1328.09,652.5 1338.06,652.5 " fill="none" id="CustomerManagementService-to-UserManagementService" style="stroke:#181818;stroke-width:1.0;"/><polygon fill="#181818" points="1343.28,652.5,1334.28,648.5,1338.28,652.5,1334.28,656.5,1343.28,652.5" style="stroke:#181818;stroke-width:1.0;"/></g><!--link RegisterCustomerController to CustomerManagementService--><g id="link_RegisterCustomerController_CustomerManagementService"><path codeLine="111" d="M1588.98,406.04 C1467.45,459.8 1274.28,545.23 1150.88,599.81 " fill="none" id="RegisterCustomerController-to-CustomerManagementService" style="stroke:#181818;stroke-width:1.0;"/><polygon fill="#181818" points="1146.15,601.9,1155.9988,601.9315,1150.7255,599.8839,1152.7731,594.6106,1146.15,601.9" style="stroke:#181818;stroke-width:1.0;"/></g><!--link RegisterCustomerController to GeneratePasswordService--><g id="link_RegisterCustomerController_GeneratePasswordService"><path codeLine="112" d="M1797.88,406.11 C1828.45,423.45 1861.63,444.11 1890,466 C1947.05,510.03 2004.16,570.86 2039.28,610.67 " fill="none" id="RegisterCustomerController-to-GeneratePasswordService" style="stroke:#181818;stroke-width:1.0;"/><polygon fill="#181818" points="2042.61,614.46,2039.6761,605.0583,2039.3104,610.7033,2033.6654,610.3376,2042.61,614.46" style="stroke:#181818;stroke-width:1.0;"/></g><!--link CustomerManagementService to NewCustomerUserRegisteredEvent--><g id="link_CustomerManagementService_NewCustomerUserRegisteredEvent"><path codeLine="113" d="M976.23,703.15 C955.37,721.08 931.75,741.38 910.58,759.58 " fill="none" id="CustomerManagementService-to-NewCustomerUserRegisteredEvent" style="stroke:#181818;stroke-width:1.0;"/><polygon fill="#181818" points="906.65,762.95,916.0865,760.1299,910.4463,759.696,910.8801,754.0559,906.65,762.95" style="stroke:#181818;stroke-width:1.0;"/></g><!--link CustomerManagementService to EventPublisher--><g id="link_CustomerManagementService_EventPublisher"><path codeLine="114" d="M1121.88,703.28 C1143.68,719.62 1164.83,739.68 1179,763 C1213.03,818.98 1218.87,896.64 1218.8,944.13 " fill="none" id="CustomerManagementService-to-EventPublisher" style="stroke:#181818;stroke-width:1.0;stroke-dasharray:7.0,7.0;"/><polygon fill="#181818" points="1218.77,949.19,1222.847,940.2246,1218.8129,944.1902,1214.8473,940.156,1218.77,949.19" style="stroke:#181818;stroke-width:1.0;"/></g><!--link GeneratePasswordService to RandomPassword--><g id="link_GeneratePasswordService_RandomPassword"><path codeLine="116" d="M2074,690.73 C2074,745.73 2074,849.59 2074,918.43 " fill="none" id="GeneratePasswordService-to-RandomPassword" style="stroke:#181818;stroke-width:1.0;stroke-dasharray:7.0,7.0;"/><polygon fill="#181818" points="2074,923.74,2078,914.74,2074,918.74,2070,914.74,2074,923.74" style="stroke:#181818;stroke-width:1.0;"/></g><!--reverse link NewCustomerUserRegisteredEvent to AddCustomerOnNewCustomerUserRegisteredController--><g id="link_NewCustomerUserRegisteredEvent_AddCustomerOnNewCustomerUserRegisteredController"><path codeLine="117" d="M848.49,869.29 C847.9,937.5 847,1057.61 847,1160.5 C847,1160.5 847,1160.5 847,1298.5 C847,1349.63 860.42,1407.41 870.64,1444 " fill="none" id="NewCustomerUserRegisteredEvent-backto-AddCustomerOnNewCustomerUserRegisteredController" style="stroke:#181818;stroke-width:1.0;stroke-dasharray:7.0,7.0;"/><polygon fill="#181818" points="848.53,864.06,844.453,873.0254,848.4871,869.0598,852.4527,873.094,848.53,864.06" style="stroke:#181818;stroke-width:1.0;"/></g><!--link AddCustomerOnNewCustomerUserRegisteredController to Customer--><g id="link_AddCustomerOnNewCustomerUserRegisteredController_Customer"><path codeLine="118" d="M862.54,1520.43 C854,1538.11 844.46,1559.74 838,1580 C824.26,1623.07 814.88,1673.53 809.15,1710.94 " fill="none" id="AddCustomerOnNewCustomerUserRegisteredController-to-Customer" style="stroke:#181818;stroke-width:1.0;stroke-dasharray:7.0,7.0;"/><polygon fill="#181818" points="808.4,1715.89,813.6932,1707.5844,809.1431,1710.9455,805.782,1706.3955,808.4,1715.89" style="stroke:#181818;stroke-width:1.0;"/></g><!--link AddCustomerOnNewCustomerUserRegisteredController to CustomerRepository--><g id="link_AddCustomerOnNewCustomerUserRegisteredController_CustomerRepository"><path codeLine="119" d="M904.56,1520.33 C914.92,1537.46 927.24,1557.84 937.89,1575.46 " fill="none" id="AddCustomerOnNewCustomerUserRegisteredController-to-CustomerRepository" style="stroke:#181818;stroke-width:1.0;stroke-dasharray:7.0,7.0;"/><polygon fill="#181818" points="940.56,1579.87,939.3356,1570.0975,937.977,1575.5888,932.4857,1574.2303,940.56,1579.87" style="stroke:#181818;stroke-width:1.0;"/></g><!--SRC=[fLPRJzim57xFhx34Iwgc24rxc2PK2GfiapQ6MZ5Uzc8IqteaTcGxhKhPVz-nuyIEILDWUOhFvJktByUHZvILME0Yv-aZoL167d2LgolEr88-4VJX9887tqibSAfGccCfqPaztdv3kmZ1SuGolbZnJJooH-aV2apPTyvB4FoD8WjHgHKNz0ahojc2Y3LDYGKRevmlboIZx5OISKVLweQ8Wae9bZ8MF2VI0z8sFp33Ir8Go3b04cH9fIBYccoqOKmWbpn19NXkkCWIn7114cJ5BNODFQkauiKGl8z_oHHLspZbHOdPzjhWuYmJHCe4fHPgnZEI_6Pf1raaTVmcArCTPG3xW27OvHeYtrJtEPKh8fhGPIqmFGrilsAMvSwICoCDB2-u7elHj8PfMWb1iZDbH-VwPuKl0UQav98gBhQxQ8maNfEuASwKqOnfRe6QdXhgk2c6wXdm3wPXgd1PDDhNDRc2WL_MWzMljN6vuenSLyLzdPybOvOrq3yPZB9D4jpcRGVwSx9ZPyxBUPZkkZ1V22C2At9Zv-pOD4RBG1UFFgCvp94NZSHhLaU-YoP8u4rhDWxqyGYzW9g4DZ3M7hCsObEQpdHu28xRPWeeP7ehqBsj6U8evJhOa0grh9fvhEecfGEXqzFuLt9qTVNf_EF92ArnNX74x_-GL4sd2EaUfM3cfQ-zOYtp05r1mtWQJYyE3UTyOYtga4ftv30Ix592b4Pm1qDGE48V5Cvrhd38W5Q2faeN0vo3w3P6x22I3aBY0IIjVsBSNQPx6M-tmnYrwotGlM_RlU10SBrug-aSI_rz7Cpq3gjqTS6NEyVPnHPKXJOpGk_EEdsUJ7eMKjIpeuudqu7T1EGTxXsQJ9wdOJs7V8v3fu4eJTtWL9NWvU__Ltb1VM_TVb7tGZ8zwiHj0916zpwGGE6HfAknhEuAtJYZdZLX2Wblf3v3Ft8KxHzjdKZFJqgq_wy0F7h_HeR3U0cztNFFbJAK97WD4t30sRIvE_uesdUj6UFWHdahrmol3sVy3bYF1l_bxT5DF_y0]--></g></svg>