<?xml version="1.0" encoding="UTF-8" standalone="no"?><svg xmlns="http://www.w3.org/2000/svg" xmlns:xlink="http://www.w3.org/1999/xlink" contentStyleType="text/css" height="1234px" preserveAspectRatio="none" style="width:2775px;height:1234px;background:#FFFFFF;" version="1.1" viewBox="0 0 2775 1234" width="2775px" zoomAndPan="magnify"><defs/><g><text fill="#000000" font-family="sans-serif" font-size="14" font-weight="bold" lengthAdjust="spacing" textLength="218" x="1277" y="29.5332">[US1001] Register Customer - 1</text><rect fill="#FFFFFF" height="978.2188" style="stroke:#181818;stroke-width:1.0;" width="10" x="87.5" y="144.0781"/><rect fill="#FFFFFF" height="835.4375" style="stroke:#181818;stroke-width:1.0;" width="10" x="495.5" y="295.8594"/><rect fill="#FFFFFF" height="583.3438" style="stroke:#181818;stroke-width:1.0;" width="10" x="1021.5" y="538.9531"/><rect fill="#FFFFFF" height="153.625" style="stroke:#181818;stroke-width:1.0;" width="10" x="1285.5" y="578.1094"/><rect fill="#FFFFFF" height="65.3125" style="stroke:#181818;stroke-width:1.0;" width="10" x="1508" y="627.2656"/><rect fill="#FFFFFF" height="39.1563" style="stroke:#181818;stroke-width:1.0;" width="10" x="1701" y="770.8906"/><rect fill="#FFFFFF" height="247.9375" style="stroke:#181818;stroke-width:1.0;" width="10" x="1927.5" y="874.3594"/><rect fill="#FFFFFF" height="30" style="stroke:#181818;stroke-width:1.0;" width="10" x="2130" y="1092.2969"/><rect fill="#FFFFFF" height="39.1563" style="stroke:#181818;stroke-width:1.0;" width="10" x="2408.5" y="913.5156"/><line style="stroke:#181818;stroke-width:0.5;stroke-dasharray:5.0,5.0;" x1="92" x2="92" y1="134.0781" y2="1140.2969"/><line style="stroke:#181818;stroke-width:0.5;stroke-dasharray:5.0,5.0;" x1="500.5" x2="500.5" y1="134.0781" y2="1140.2969"/><line style="stroke:#181818;stroke-width:0.5;stroke-dasharray:5.0,5.0;" x1="1026.5" x2="1026.5" y1="351.5156" y2="1140.2969"/><line style="stroke:#181818;stroke-width:0.5;stroke-dasharray:5.0,5.0;" x1="1290.5" x2="1290.5" y1="134.0781" y2="1140.2969"/><line style="stroke:#181818;stroke-width:0.5;stroke-dasharray:5.0,5.0;" x1="1512.5" x2="1512.5" y1="633.7656" y2="1140.2969"/><line style="stroke:#181818;stroke-width:0.5;stroke-dasharray:5.0,5.0;" x1="1705.5" x2="1705.5" y1="134.0781" y2="1140.2969"/><line style="stroke:#181818;stroke-width:0.5;stroke-dasharray:5.0,5.0;" x1="1932.5" x2="1932.5" y1="134.0781" y2="1140.2969"/><line style="stroke:#181818;stroke-width:0.5;stroke-dasharray:5.0,5.0;" x1="2134.5" x2="2134.5" y1="134.0781" y2="1140.2969"/><line style="stroke:#181818;stroke-width:0.5;stroke-dasharray:5.0,5.0;" x1="2413.5" x2="2413.5" y1="134.0781" y2="1140.2969"/><line style="stroke:#181818;stroke-width:0.5;stroke-dasharray:5.0,5.0;" x1="2629.5" x2="2629.5" y1="1020.9063" y2="1140.2969"/><text fill="#000000" font-family="sans-serif" font-size="20" lengthAdjust="spacing" textLength="169" x="5" y="129.6836">Customer Manager</text><ellipse cx="92.5" cy="57.4219" fill="#E2E2F0" rx="8" ry="8" style="stroke:#181818;stroke-width:0.5;"/><path d="M92.5,65.4219 L92.5,92.4219 M79.5,73.4219 L105.5,73.4219 M92.5,92.4219 L79.5,107.4219 M92.5,92.4219 L105.5,107.4219 " fill="none" style="stroke:#181818;stroke-width:0.5;"/><text fill="#000000" font-family="sans-serif" font-size="20" lengthAdjust="spacing" textLength="169" x="5" y="1160.0586">Customer Manager</text><ellipse cx="92.5" cy="1172.9531" fill="#E2E2F0" rx="8" ry="8" style="stroke:#181818;stroke-width:0.5;"/><path d="M92.5,1180.9531 L92.5,1207.9531 M79.5,1188.9531 L105.5,1188.9531 M92.5,1207.9531 L79.5,1222.9531 M92.5,1207.9531 L105.5,1222.9531 " fill="none" style="stroke:#181818;stroke-width:0.5;"/><rect fill="#E2E2F0" height="64.3125" rx="2.5" ry="2.5" style="stroke:#181818;stroke-width:0.5;" width="192" x="404.5" y="68.7656"/><text fill="#000000" font-family="sans-serif" font-size="20" font-style="italic" lengthAdjust="spacing" textLength="131" x="435" y="96.5273">«presentation»</text><text fill="#000000" font-family="sans-serif" font-size="20" lengthAdjust="spacing" textLength="178" x="411.5" y="121.6836">RegisterCustomerUI</text><rect fill="#E2E2F0" height="64.3125" rx="2.5" ry="2.5" style="stroke:#181818;stroke-width:0.5;" width="192" x="404.5" y="1139.2969"/><text fill="#000000" font-family="sans-serif" font-size="20" font-style="italic" lengthAdjust="spacing" textLength="131" x="435" y="1167.0586">«presentation»</text><text fill="#000000" font-family="sans-serif" font-size="20" lengthAdjust="spacing" textLength="178" x="411.5" y="1192.2148">RegisterCustomerUI</text><rect fill="#E2E2F0" height="64.3125" rx="2.5" ry="2.5" style="stroke:#181818;stroke-width:0.5;" width="258" x="897.5" y="1139.2969"/><text fill="#000000" font-family="sans-serif" font-size="20" font-style="italic" lengthAdjust="spacing" textLength="105" x="974" y="1167.0586">«controller»</text><text fill="#000000" font-family="sans-serif" font-size="20" lengthAdjust="spacing" textLength="244" x="904.5" y="1192.2148">RegisterCustomerController</text><rect fill="#E2E2F0" height="64.3125" rx="2.5" ry="2.5" style="stroke:#181818;stroke-width:0.5;" width="250" x="1165.5" y="68.7656"/><text fill="#000000" font-family="sans-serif" font-size="20" font-style="italic" lengthAdjust="spacing" textLength="86" x="1247.5" y="96.5273">«service»</text><text fill="#000000" font-family="sans-serif" font-size="20" lengthAdjust="spacing" textLength="236" x="1172.5" y="121.6836">GeneratePasswordService</text><rect fill="#E2E2F0" height="64.3125" rx="2.5" ry="2.5" style="stroke:#181818;stroke-width:0.5;" width="250" x="1165.5" y="1139.2969"/><text fill="#000000" font-family="sans-serif" font-size="20" font-style="italic" lengthAdjust="spacing" textLength="86" x="1247.5" y="1167.0586">«service»</text><text fill="#000000" font-family="sans-serif" font-size="20" lengthAdjust="spacing" textLength="236" x="1172.5" y="1192.2148">GeneratePasswordService</text><rect fill="#E2E2F0" height="64.3125" rx="2.5" ry="2.5" style="stroke:#181818;stroke-width:0.5;" width="175" x="1425.5" y="1139.2969"/><text fill="#000000" font-family="sans-serif" font-size="20" font-style="italic" lengthAdjust="spacing" textLength="88" x="1469" y="1167.0586">«domain»</text><text fill="#000000" font-family="sans-serif" font-size="20" lengthAdjust="spacing" textLength="161" x="1432.5" y="1192.2148">RandomPassword</text><rect fill="#E2E2F0" height="64.3125" rx="2.5" ry="2.5" style="stroke:#181818;stroke-width:0.5;" width="191" x="1610.5" y="68.7656"/><text fill="#000000" font-family="sans-serif" font-size="20" font-style="italic" lengthAdjust="spacing" textLength="86" x="1663" y="96.5273">«service»</text><text fill="#000000" font-family="sans-serif" font-size="20" lengthAdjust="spacing" textLength="177" x="1617.5" y="121.6836">AuthorizationService</text><rect fill="#E2E2F0" height="64.3125" rx="2.5" ry="2.5" style="stroke:#181818;stroke-width:0.5;" width="191" x="1610.5" y="1139.2969"/><text fill="#000000" font-family="sans-serif" font-size="20" font-style="italic" lengthAdjust="spacing" textLength="86" x="1663" y="1167.0586">«service»</text><text fill="#000000" font-family="sans-serif" font-size="20" lengthAdjust="spacing" textLength="177" x="1617.5" y="1192.2148">AuthorizationService</text><rect fill="#E2E2F0" height="64.3125" rx="2.5" ry="2.5" style="stroke:#181818;stroke-width:0.5;" width="242" x="1811.5" y="68.7656"/><text fill="#000000" font-family="sans-serif" font-size="20" font-style="italic" lengthAdjust="spacing" textLength="86" x="1889.5" y="96.5273">«service»</text><text fill="#000000" font-family="sans-serif" font-size="20" lengthAdjust="spacing" textLength="228" x="1818.5" y="121.6836">EntityManagementService</text><rect fill="#E2E2F0" height="64.3125" rx="2.5" ry="2.5" style="stroke:#181818;stroke-width:0.5;" width="242" x="1811.5" y="1139.2969"/><text fill="#000000" font-family="sans-serif" font-size="20" font-style="italic" lengthAdjust="spacing" textLength="86" x="1889.5" y="1167.0586">«service»</text><text fill="#000000" font-family="sans-serif" font-size="20" lengthAdjust="spacing" textLength="228" x="1818.5" y="1192.2148">EntityManagementService</text><rect fill="#E2E2F0" height="64.3125" rx="2.5" ry="2.5" style="stroke:#181818;stroke-width:0.5;" width="143" x="2063.5" y="68.7656"/><text fill="#000000" font-family="sans-serif" font-size="20" font-style="italic" lengthAdjust="spacing" textLength="88" x="2091" y="96.5273">«domain»</text><text fill="#000000" font-family="sans-serif" font-size="20" lengthAdjust="spacing" textLength="129" x="2070.5" y="121.6836">EventPublisher</text><rect fill="#E2E2F0" height="64.3125" rx="2.5" ry="2.5" style="stroke:#181818;stroke-width:0.5;" width="143" x="2063.5" y="1139.2969"/><text fill="#000000" font-family="sans-serif" font-size="20" font-style="italic" lengthAdjust="spacing" textLength="88" x="2091" y="1167.0586">«domain»</text><text fill="#000000" font-family="sans-serif" font-size="20" lengthAdjust="spacing" textLength="129" x="2070.5" y="1192.2148">EventPublisher</text><rect fill="#E2E2F0" height="64.3125" rx="2.5" ry="2.5" style="stroke:#181818;stroke-width:0.5;" width="234" x="2296.5" y="68.7656"/><text fill="#000000" font-family="sans-serif" font-size="20" font-style="italic" lengthAdjust="spacing" textLength="86" x="2370.5" y="96.5273">«service»</text><text fill="#000000" font-family="sans-serif" font-size="20" lengthAdjust="spacing" textLength="220" x="2303.5" y="121.6836">UserManagementService</text><rect fill="#E2E2F0" height="64.3125" rx="2.5" ry="2.5" style="stroke:#181818;stroke-width:0.5;" width="234" x="2296.5" y="1139.2969"/><text fill="#000000" font-family="sans-serif" font-size="20" font-style="italic" lengthAdjust="spacing" textLength="86" x="2370.5" y="1167.0586">«service»</text><text fill="#000000" font-family="sans-serif" font-size="20" lengthAdjust="spacing" textLength="220" x="2303.5" y="1192.2148">UserManagementService</text><rect fill="#E2E2F0" height="89.4688" rx="2.5" ry="2.5" style="stroke:#181818;stroke-width:0.5;" width="179" x="2540.5" y="1139.2969"/><text fill="#000000" font-family="sans-serif" font-size="20" font-style="italic" lengthAdjust="spacing" textLength="88" x="2586" y="1167.0586">«domain»</text><text fill="#000000" font-family="sans-serif" font-size="20" lengthAdjust="spacing" textLength="165" x="2547.5" y="1192.2148">NewCustomerUser</text><text fill="#000000" font-family="sans-serif" font-size="20" lengthAdjust="spacing" textLength="145" x="2557.5" y="1217.3711">RegisteredEvent</text><rect fill="#FFFFFF" height="978.2188" style="stroke:#181818;stroke-width:1.0;" width="10" x="87.5" y="144.0781"/><rect fill="#FFFFFF" height="835.4375" style="stroke:#181818;stroke-width:1.0;" width="10" x="495.5" y="295.8594"/><rect fill="#FFFFFF" height="583.3438" style="stroke:#181818;stroke-width:1.0;" width="10" x="1021.5" y="538.9531"/><rect fill="#FFFFFF" height="153.625" style="stroke:#181818;stroke-width:1.0;" width="10" x="1285.5" y="578.1094"/><rect fill="#FFFFFF" height="65.3125" style="stroke:#181818;stroke-width:1.0;" width="10" x="1508" y="627.2656"/><rect fill="#FFFFFF" height="39.1563" style="stroke:#181818;stroke-width:1.0;" width="10" x="1701" y="770.8906"/><rect fill="#FFFFFF" height="247.9375" style="stroke:#181818;stroke-width:1.0;" width="10" x="1927.5" y="874.3594"/><rect fill="#FFFFFF" height="30" style="stroke:#181818;stroke-width:1.0;" width="10" x="2130" y="1092.2969"/><rect fill="#FFFFFF" height="39.1563" style="stroke:#181818;stroke-width:1.0;" width="10" x="2408.5" y="913.5156"/><path d="M2418,149.0781 L2418,259.0781 L2768,259.0781 L2768,159.0781 L2758,149.0781 L2418,149.0781 " fill="#FEFFDD" style="stroke:#181818;stroke-width:0.5;"/><path d="M2758,149.0781 L2758,159.0781 L2768,159.0781 L2758,149.0781 " fill="#FEFFDD" style="stroke:#181818;stroke-width:0.5;"/><text fill="#000000" font-family="sans-serif" font-size="20" lengthAdjust="spacing" textLength="297" x="2424" y="174.8398">The UserManagementService and</text><text fill="#000000" font-family="sans-serif" font-size="20" lengthAdjust="spacing" textLength="329" x="2424" y="199.9961">AuthorizationService are implemented</text><text fill="#000000" font-family="sans-serif" font-size="20" lengthAdjust="spacing" textLength="265" x="2424" y="225.1523">in the eapli framework and will</text><text fill="#000000" font-family="sans-serif" font-size="20" lengthAdjust="spacing" textLength="240" x="2424" y="250.3086">be used in this functionality.</text><polygon fill="#181818" points="483.5,291.8594,493.5,295.8594,483.5,299.8594,487.5,295.8594" style="stroke:#181818;stroke-width:1.0;"/><line style="stroke:#181818;stroke-width:1.0;" x1="97.5" x2="489.5" y1="295.8594" y2="295.8594"/><text fill="#000000" font-family="sans-serif" font-size="20" font-weight="bold" lengthAdjust="spacing" textLength="11" x="104.5" y="289.4648">1</text><text fill="#000000" font-family="sans-serif" font-size="20" lengthAdjust="spacing" textLength="277" x="119.5" y="289.4648">wants to register new customer</text><polygon fill="#181818" points="885.5,331.0156,895.5,335.0156,885.5,339.0156,889.5,335.0156" style="stroke:#181818;stroke-width:1.0;"/><line style="stroke:#181818;stroke-width:1.0;" x1="505.5" x2="891.5" y1="335.0156" y2="335.0156"/><text fill="#000000" font-family="sans-serif" font-size="20" font-weight="bold" lengthAdjust="spacing" textLength="11" x="512.5" y="328.6211">2</text><text fill="#000000" font-family="sans-serif" font-size="20" lengthAdjust="spacing" textLength="56" x="527.5" y="328.6211">create</text><rect fill="#E2E2F0" height="64.3125" rx="2.5" ry="2.5" style="stroke:#181818;stroke-width:0.5;" width="258" x="897.5" y="303.8594"/><text fill="#000000" font-family="sans-serif" font-size="20" font-style="italic" lengthAdjust="spacing" textLength="105" x="974" y="331.6211">«controller»</text><text fill="#000000" font-family="sans-serif" font-size="20" lengthAdjust="spacing" textLength="244" x="904.5" y="356.7773">RegisterCustomerController</text><polygon fill="#181818" points="108.5,406.3281,98.5,410.3281,108.5,414.3281,104.5,410.3281" style="stroke:#181818;stroke-width:1.0;"/><line style="stroke:#181818;stroke-width:1.0;stroke-dasharray:2.0,2.0;" x1="102.5" x2="494.5" y1="410.3281" y2="410.3281"/><text fill="#000000" font-family="sans-serif" font-size="20" font-weight="bold" lengthAdjust="spacing" textLength="11" x="114.5" y="403.9336">3</text><text fill="#000000" font-family="sans-serif" font-size="20" lengthAdjust="spacing" textLength="269" x="129.5" y="403.9336">asks for necessary information</text><polygon fill="#181818" points="483.5,470.6406,493.5,474.6406,483.5,478.6406,487.5,474.6406" style="stroke:#181818;stroke-width:1.0;"/><line style="stroke:#181818;stroke-width:1.0;" x1="97.5" x2="489.5" y1="474.6406" y2="474.6406"/><text fill="#000000" font-family="sans-serif" font-size="20" font-weight="bold" lengthAdjust="spacing" textLength="11" x="104.5" y="455.668">4</text><text fill="#000000" font-family="sans-serif" font-size="20" lengthAdjust="spacing" textLength="359" x="119.5" y="443.0898">companyName, address, customerCode,</text><text fill="#000000" font-family="sans-serif" font-size="20" lengthAdjust="spacing" textLength="320" x="119.5" y="468.2461">userEmail, userName, phoneNumber</text><polygon fill="#181818" points="1009.5,534.9531,1019.5,538.9531,1009.5,542.9531,1013.5,538.9531" style="stroke:#181818;stroke-width:1.0;"/><line style="stroke:#181818;stroke-width:1.0;" x1="505.5" x2="1015.5" y1="538.9531" y2="538.9531"/><text fill="#000000" font-family="sans-serif" font-size="20" font-weight="bold" lengthAdjust="spacing" textLength="11" x="512.5" y="519.9805">5</text><text fill="#000000" font-family="sans-serif" font-size="20" lengthAdjust="spacing" textLength="482" x="527.5" y="507.4023">registerEntity(companyName, address, customerCode,</text><text fill="#000000" font-family="sans-serif" font-size="20" lengthAdjust="spacing" textLength="327" x="527.5" y="532.5586">userEmail, userName, phoneNumber)</text><polygon fill="#181818" points="1273.5,574.1094,1283.5,578.1094,1273.5,582.1094,1277.5,578.1094" style="stroke:#181818;stroke-width:1.0;"/><line style="stroke:#181818;stroke-width:1.0;" x1="1031.5" x2="1279.5" y1="578.1094" y2="578.1094"/><text fill="#000000" font-family="sans-serif" font-size="20" font-weight="bold" lengthAdjust="spacing" textLength="11" x="1038.5" y="571.7148">6</text><text fill="#000000" font-family="sans-serif" font-size="20" lengthAdjust="spacing" textLength="180" x="1053.5" y="571.7148">generatePassword()</text><polygon fill="#181818" points="1413.5,613.2656,1423.5,617.2656,1413.5,621.2656,1417.5,617.2656" style="stroke:#181818;stroke-width:1.0;"/><line style="stroke:#181818;stroke-width:1.0;" x1="1295.5" x2="1419.5" y1="617.2656" y2="617.2656"/><text fill="#000000" font-family="sans-serif" font-size="20" font-weight="bold" lengthAdjust="spacing" textLength="11" x="1302.5" y="610.8711">7</text><text fill="#000000" font-family="sans-serif" font-size="20" lengthAdjust="spacing" textLength="70" x="1317.5" y="610.8711">create()</text><rect fill="#E2E2F0" height="64.3125" rx="2.5" ry="2.5" style="stroke:#181818;stroke-width:0.5;" width="175" x="1425.5" y="586.1094"/><text fill="#000000" font-family="sans-serif" font-size="20" font-style="italic" lengthAdjust="spacing" textLength="88" x="1469" y="613.8711">«domain»</text><text fill="#000000" font-family="sans-serif" font-size="20" lengthAdjust="spacing" textLength="161" x="1432.5" y="639.0273">RandomPassword</text><polygon fill="#181818" points="1306.5,688.5781,1296.5,692.5781,1306.5,696.5781,1302.5,692.5781" style="stroke:#181818;stroke-width:1.0;"/><line style="stroke:#181818;stroke-width:1.0;stroke-dasharray:2.0,2.0;" x1="1300.5" x2="1512" y1="692.5781" y2="692.5781"/><text fill="#000000" font-family="sans-serif" font-size="20" font-weight="bold" lengthAdjust="spacing" textLength="11" x="1312.5" y="686.1836">8</text><text fill="#000000" font-family="sans-serif" font-size="20" lengthAdjust="spacing" textLength="86" x="1327.5" y="686.1836">password</text><polygon fill="#181818" points="1042.5,727.7344,1032.5,731.7344,1042.5,735.7344,1038.5,731.7344" style="stroke:#181818;stroke-width:1.0;"/><line style="stroke:#181818;stroke-width:1.0;stroke-dasharray:2.0,2.0;" x1="1036.5" x2="1289.5" y1="731.7344" y2="731.7344"/><text fill="#000000" font-family="sans-serif" font-size="20" font-weight="bold" lengthAdjust="spacing" textLength="11" x="1048.5" y="725.3398">9</text><text fill="#000000" font-family="sans-serif" font-size="20" lengthAdjust="spacing" textLength="86" x="1063.5" y="725.3398">password</text><polygon fill="#181818" points="1689,766.8906,1699,770.8906,1689,774.8906,1693,770.8906" style="stroke:#181818;stroke-width:1.0;"/><line style="stroke:#181818;stroke-width:1.0;" x1="1031.5" x2="1695" y1="770.8906" y2="770.8906"/><text fill="#000000" font-family="sans-serif" font-size="20" font-weight="bold" lengthAdjust="spacing" textLength="22" x="1038.5" y="764.4961">10</text><text fill="#000000" font-family="sans-serif" font-size="20" lengthAdjust="spacing" textLength="316" x="1064.5" y="764.4961">loggedinUserWithPermissions(roles)</text><polygon fill="#181818" points="1042.5,806.0469,1032.5,810.0469,1042.5,814.0469,1038.5,810.0469" style="stroke:#181818;stroke-width:1.0;"/><line style="stroke:#181818;stroke-width:1.0;" x1="1036.5" x2="1705" y1="810.0469" y2="810.0469"/><text fill="#000000" font-family="sans-serif" font-size="20" font-weight="bold" lengthAdjust="spacing" textLength="22" x="1048.5" y="803.6523">11</text><text fill="#000000" font-family="sans-serif" font-size="20" lengthAdjust="spacing" textLength="200" x="1074.5" y="803.6523">customerManagerUser</text><polygon fill="#181818" points="1915.5,870.3594,1925.5,874.3594,1915.5,878.3594,1919.5,874.3594" style="stroke:#181818;stroke-width:1.0;"/><line style="stroke:#181818;stroke-width:1.0;" x1="1031.5" x2="1921.5" y1="874.3594" y2="874.3594"/><text fill="#000000" font-family="sans-serif" font-size="20" font-weight="bold" lengthAdjust="spacing" textLength="22" x="1038.5" y="855.3867">12</text><text fill="#000000" font-family="sans-serif" font-size="20" lengthAdjust="spacing" textLength="521" x="1064.5" y="842.8086">registerNewEntity(companyName, address, customerCode,</text><text fill="#000000" font-family="sans-serif" font-size="20" lengthAdjust="spacing" textLength="207" x="1064.5" y="867.9648">customerManagerUser)</text><polygon fill="#181818" points="2396.5,909.5156,2406.5,913.5156,2396.5,917.5156,2400.5,913.5156" style="stroke:#181818;stroke-width:1.0;"/><line style="stroke:#181818;stroke-width:1.0;" x1="1937.5" x2="2402.5" y1="913.5156" y2="913.5156"/><text fill="#000000" font-family="sans-serif" font-size="20" font-weight="bold" lengthAdjust="spacing" textLength="22" x="1944.5" y="907.1211">13</text><text fill="#000000" font-family="sans-serif" font-size="20" lengthAdjust="spacing" textLength="426" x="1970.5" y="907.1211">registerNewUser(email, password, name,  roles)</text><polygon fill="#181818" points="1948.5,948.6719,1938.5,952.6719,1948.5,956.6719,1944.5,952.6719" style="stroke:#181818;stroke-width:1.0;"/><line style="stroke:#181818;stroke-width:1.0;stroke-dasharray:2.0,2.0;" x1="1942.5" x2="2412.5" y1="952.6719" y2="952.6719"/><text fill="#000000" font-family="sans-serif" font-size="20" font-weight="bold" lengthAdjust="spacing" textLength="22" x="1954.5" y="946.2773">14</text><text fill="#000000" font-family="sans-serif" font-size="20" lengthAdjust="spacing" textLength="122" x="1980.5" y="946.2773">customerUser</text><polygon fill="#181818" points="2528.5,1012.9844,2538.5,1016.9844,2528.5,1020.9844,2532.5,1016.9844" style="stroke:#181818;stroke-width:1.0;"/><line style="stroke:#181818;stroke-width:1.0;" x1="1937.5" x2="2534.5" y1="1016.9844" y2="1016.9844"/><text fill="#000000" font-family="sans-serif" font-size="20" font-weight="bold" lengthAdjust="spacing" textLength="22" x="1944.5" y="998.0117">15</text><text fill="#000000" font-family="sans-serif" font-size="20" lengthAdjust="spacing" textLength="422" x="1970.5" y="985.4336">create(companyName, address, customerCode,</text><text fill="#000000" font-family="sans-serif" font-size="20" lengthAdjust="spacing" textLength="341" x="1970.5" y="1010.5898">customerManagerUser, customerUser)</text><rect fill="#E2E2F0" height="89.4688" rx="2.5" ry="2.5" style="stroke:#181818;stroke-width:0.5;" width="179" x="2540.5" y="960.6719"/><text fill="#000000" font-family="sans-serif" font-size="20" font-style="italic" lengthAdjust="spacing" textLength="88" x="2586" y="988.4336">«domain»</text><text fill="#000000" font-family="sans-serif" font-size="20" lengthAdjust="spacing" textLength="165" x="2547.5" y="1013.5898">NewCustomerUser</text><text fill="#000000" font-family="sans-serif" font-size="20" lengthAdjust="spacing" textLength="145" x="2557.5" y="1038.7461">RegisteredEvent</text><polygon fill="#181818" points="2118,1088.2969,2128,1092.2969,2118,1096.2969,2122,1092.2969" style="stroke:#181818;stroke-width:1.0;"/><line style="stroke:#181818;stroke-width:1.0;" x1="1937.5" x2="2124" y1="1092.2969" y2="1092.2969"/><text fill="#000000" font-family="sans-serif" font-size="20" font-weight="bold" lengthAdjust="spacing" textLength="22" x="1944.5" y="1085.9023">16</text><text fill="#000000" font-family="sans-serif" font-size="20" lengthAdjust="spacing" textLength="121" x="1970.5" y="1085.9023">publish(event)</text><!--SRC=[hLHDRnen4BtxLumuaGYgf4SK8KLeIv4Qj0hGIcrwS7OdOE6rLxONH7vznzuF326HMfK30klDUsy-xLQeaXjUI9rjCOSSNtWbtHUjt4Ay8do-ORnoMbN5Cnh6d70IuTTgSNjpS_iR7d4jh4C3ayewNT2F8TmonZEd3VIwnmUk-1fD3xY5rI9vP8madSX4oPM3NilIubUp6Zc3kxlIe4Nbk1DQZSSVnqt8jD5IDagJvUCtOiYwr_FuAIeqt67AhTrhao_Gx4I68NYQBYZMrYzlXBdATT661Nmw9JWzSl76vdtbDjg8rv13h76_Mdxz-RvAegZQXxfs1TKW3aqUFh2Nx0YTLizIs4rJYoHzrzwAM2wBh3uIcUE-wnT1dbJR3So3VYtxFPalOsN_KTeX6B7UEA_0bXk4Ynw0gimk5G-uGH15AGCQSoOKE691Nae1BpJCI7tP-dZO2odPCq9bQRW3JbXugLJc-RYa0dzYI3XlAWoksD54D5Fgls4ufaaSmPwojk0qc7Rc5UuXQqeGHSueRkQZ_FnTNuyWCyWzUVtkwOXsHENPaXFjUJAqbfi3-QF_HKYLdQfdkg2o7-QKsW1udjDMs46dFj4v3fuKvMWIAhGS-7HD3IutMk6yNj-Zhr6NHZrb_VyYS7KiWnTXBAmWIT8sZM1zjcxz24u0nlpE4JYT7giMOz8fOxHcmvQlR7XOZYUOGDFbUGaLr5flOGj705AlrvWBvMVnXt2R54qXhALUs3xT3xIHbH33MBt0dLHNhkRUUQPOjebgXMc7ZssWTVgRJbnGYkmHCysFln5-VCvaFBQFTHVRuWn01Jbe4eNeSvnip-flmh0rdqK784uq83i3uGX4BVtN10SdUbT7_XIepVMvwwE_FN4fKXOxE_yRZ4OFzTYUvE8lmHy0]--></g></svg>