<?xml version="1.0" encoding="UTF-8" standalone="no"?><svg xmlns="http://www.w3.org/2000/svg" xmlns:xlink="http://www.w3.org/1999/xlink" contentStyleType="text/css" height="1380px" preserveAspectRatio="none" style="width:2857px;height:1380px;background:#FFFFFF;" version="1.1" viewBox="0 0 2857 1380" width="2857px" zoomAndPan="magnify"><defs/><g><text fill="#000000" font-family="sans-serif" font-size="14" font-weight="bold" lengthAdjust="spacing" textLength="218" x="1318" y="29.5332">[US1001] Register Customer - 1</text><rect fill="#FFFFFF" height="1124" style="stroke:#181818;stroke-width:1.0;" width="10" x="87.5" y="144.0781"/><rect fill="#FFFFFF" height="981.2188" style="stroke:#181818;stroke-width:1.0;" width="10" x="495.5" y="295.8594"/><rect fill="#FFFFFF" height="729.125" style="stroke:#181818;stroke-width:1.0;" width="10" x="1021.5" y="538.9531"/><rect fill="#FFFFFF" height="39.1563" style="stroke:#181818;stroke-width:1.0;" width="10" x="1381.5" y="578.1094"/><rect fill="#FFFFFF" height="586.5" style="stroke:#181818;stroke-width:1.0;" width="10" x="1626" y="681.5781"/><rect fill="#FFFFFF" height="153.625" style="stroke:#181818;stroke-width:1.0;" width="10" x="1900" y="720.7344"/><rect fill="#FFFFFF" height="65.3125" style="stroke:#181818;stroke-width:1.0;" width="10" x="2122.5" y="769.8906"/><rect fill="#FFFFFF" height="30" style="stroke:#181818;stroke-width:1.0;" width="10" x="2291.5" y="1238.0781"/><rect fill="#FFFFFF" height="184.9375" style="stroke:#181818;stroke-width:1.0;" width="10" x="2490" y="913.5156"/><line style="stroke:#181818;stroke-width:0.5;stroke-dasharray:5.0,5.0;" x1="92" x2="92" y1="134.0781" y2="1286.0781"/><line style="stroke:#181818;stroke-width:0.5;stroke-dasharray:5.0,5.0;" x1="500.5" x2="500.5" y1="134.0781" y2="1286.0781"/><line style="stroke:#181818;stroke-width:0.5;stroke-dasharray:5.0,5.0;" x1="1026.5" x2="1026.5" y1="351.5156" y2="1286.0781"/><line style="stroke:#181818;stroke-width:0.5;stroke-dasharray:5.0,5.0;" x1="1386" x2="1386" y1="134.0781" y2="1286.0781"/><line style="stroke:#181818;stroke-width:0.5;stroke-dasharray:5.0,5.0;" x1="1631" x2="1631" y1="134.0781" y2="1286.0781"/><line style="stroke:#181818;stroke-width:0.5;stroke-dasharray:5.0,5.0;" x1="1905" x2="1905" y1="134.0781" y2="1286.0781"/><line style="stroke:#181818;stroke-width:0.5;stroke-dasharray:5.0,5.0;" x1="2127" x2="2127" y1="776.3906" y2="1286.0781"/><line style="stroke:#181818;stroke-width:0.5;stroke-dasharray:5.0,5.0;" x1="2296" x2="2296" y1="134.0781" y2="1286.0781"/><line style="stroke:#181818;stroke-width:0.5;stroke-dasharray:5.0,5.0;" x1="2495" x2="2495" y1="134.0781" y2="1286.0781"/><line style="stroke:#181818;stroke-width:0.5;stroke-dasharray:5.0,5.0;" x1="2711" x2="2711" y1="1166.6875" y2="1286.0781"/><text fill="#000000" font-family="sans-serif" font-size="20" lengthAdjust="spacing" textLength="169" x="5" y="129.6836">Customer Manager</text><ellipse cx="92.5" cy="57.4219" fill="#E2E2F0" rx="8" ry="8" style="stroke:#181818;stroke-width:0.5;"/><path d="M92.5,65.4219 L92.5,92.4219 M79.5,73.4219 L105.5,73.4219 M92.5,92.4219 L79.5,107.4219 M92.5,92.4219 L105.5,107.4219 " fill="none" style="stroke:#181818;stroke-width:0.5;"/><text fill="#000000" font-family="sans-serif" font-size="20" lengthAdjust="spacing" textLength="169" x="5" y="1305.8398">Customer Manager</text><ellipse cx="92.5" cy="1318.7344" fill="#E2E2F0" rx="8" ry="8" style="stroke:#181818;stroke-width:0.5;"/><path d="M92.5,1326.7344 L92.5,1353.7344 M79.5,1334.7344 L105.5,1334.7344 M92.5,1353.7344 L79.5,1368.7344 M92.5,1353.7344 L105.5,1368.7344 " fill="none" style="stroke:#181818;stroke-width:0.5;"/><rect fill="#E2E2F0" height="64.3125" rx="2.5" ry="2.5" style="stroke:#181818;stroke-width:0.5;" width="192" x="404.5" y="68.7656"/><text fill="#000000" font-family="sans-serif" font-size="20" font-style="italic" lengthAdjust="spacing" textLength="131" x="435" y="96.5273">«presentation»</text><text fill="#000000" font-family="sans-serif" font-size="20" lengthAdjust="spacing" textLength="178" x="411.5" y="121.6836">RegisterCustomerUI</text><rect fill="#E2E2F0" height="64.3125" rx="2.5" ry="2.5" style="stroke:#181818;stroke-width:0.5;" width="192" x="404.5" y="1285.0781"/><text fill="#000000" font-family="sans-serif" font-size="20" font-style="italic" lengthAdjust="spacing" textLength="131" x="435" y="1312.8398">«presentation»</text><text fill="#000000" font-family="sans-serif" font-size="20" lengthAdjust="spacing" textLength="178" x="411.5" y="1337.9961">RegisterCustomerUI</text><rect fill="#E2E2F0" height="64.3125" rx="2.5" ry="2.5" style="stroke:#181818;stroke-width:0.5;" width="258" x="897.5" y="1285.0781"/><text fill="#000000" font-family="sans-serif" font-size="20" font-style="italic" lengthAdjust="spacing" textLength="105" x="974" y="1312.8398">«controller»</text><text fill="#000000" font-family="sans-serif" font-size="20" lengthAdjust="spacing" textLength="244" x="904.5" y="1337.9961">RegisterCustomerController</text><rect fill="#E2E2F0" height="64.3125" rx="2.5" ry="2.5" style="stroke:#181818;stroke-width:0.5;" width="191" x="1291" y="68.7656"/><text fill="#000000" font-family="sans-serif" font-size="20" font-style="italic" lengthAdjust="spacing" textLength="86" x="1343.5" y="96.5273">«service»</text><text fill="#000000" font-family="sans-serif" font-size="20" lengthAdjust="spacing" textLength="177" x="1298" y="121.6836">AuthorizationService</text><rect fill="#E2E2F0" height="64.3125" rx="2.5" ry="2.5" style="stroke:#181818;stroke-width:0.5;" width="191" x="1291" y="1285.0781"/><text fill="#000000" font-family="sans-serif" font-size="20" font-style="italic" lengthAdjust="spacing" textLength="86" x="1343.5" y="1312.8398">«service»</text><text fill="#000000" font-family="sans-serif" font-size="20" lengthAdjust="spacing" textLength="177" x="1298" y="1337.9961">AuthorizationService</text><rect fill="#E2E2F0" height="64.3125" rx="2.5" ry="2.5" style="stroke:#181818;stroke-width:0.5;" width="278" x="1492" y="68.7656"/><text fill="#000000" font-family="sans-serif" font-size="20" font-style="italic" lengthAdjust="spacing" textLength="86" x="1588" y="96.5273">«service»</text><text fill="#000000" font-family="sans-serif" font-size="20" lengthAdjust="spacing" textLength="264" x="1499" y="121.6836">CustomerManagementService</text><rect fill="#E2E2F0" height="64.3125" rx="2.5" ry="2.5" style="stroke:#181818;stroke-width:0.5;" width="278" x="1492" y="1285.0781"/><text fill="#000000" font-family="sans-serif" font-size="20" font-style="italic" lengthAdjust="spacing" textLength="86" x="1588" y="1312.8398">«service»</text><text fill="#000000" font-family="sans-serif" font-size="20" lengthAdjust="spacing" textLength="264" x="1499" y="1337.9961">CustomerManagementService</text><rect fill="#E2E2F0" height="64.3125" rx="2.5" ry="2.5" style="stroke:#181818;stroke-width:0.5;" width="250" x="1780" y="68.7656"/><text fill="#000000" font-family="sans-serif" font-size="20" font-style="italic" lengthAdjust="spacing" textLength="86" x="1862" y="96.5273">«service»</text><text fill="#000000" font-family="sans-serif" font-size="20" lengthAdjust="spacing" textLength="236" x="1787" y="121.6836">GeneratePasswordService</text><rect fill="#E2E2F0" height="64.3125" rx="2.5" ry="2.5" style="stroke:#181818;stroke-width:0.5;" width="250" x="1780" y="1285.0781"/><text fill="#000000" font-family="sans-serif" font-size="20" font-style="italic" lengthAdjust="spacing" textLength="86" x="1862" y="1312.8398">«service»</text><text fill="#000000" font-family="sans-serif" font-size="20" lengthAdjust="spacing" textLength="236" x="1787" y="1337.9961">GeneratePasswordService</text><rect fill="#E2E2F0" height="64.3125" rx="2.5" ry="2.5" style="stroke:#181818;stroke-width:0.5;" width="175" x="2040" y="1285.0781"/><text fill="#000000" font-family="sans-serif" font-size="20" font-style="italic" lengthAdjust="spacing" textLength="88" x="2083.5" y="1312.8398">«domain»</text><text fill="#000000" font-family="sans-serif" font-size="20" lengthAdjust="spacing" textLength="161" x="2047" y="1337.9961">RandomPassword</text><rect fill="#E2E2F0" height="64.3125" rx="2.5" ry="2.5" style="stroke:#181818;stroke-width:0.5;" width="143" x="2225" y="68.7656"/><text fill="#000000" font-family="sans-serif" font-size="20" font-style="italic" lengthAdjust="spacing" textLength="88" x="2252.5" y="96.5273">«domain»</text><text fill="#000000" font-family="sans-serif" font-size="20" lengthAdjust="spacing" textLength="129" x="2232" y="121.6836">EventPublisher</text><rect fill="#E2E2F0" height="64.3125" rx="2.5" ry="2.5" style="stroke:#181818;stroke-width:0.5;" width="143" x="2225" y="1285.0781"/><text fill="#000000" font-family="sans-serif" font-size="20" font-style="italic" lengthAdjust="spacing" textLength="88" x="2252.5" y="1312.8398">«domain»</text><text fill="#000000" font-family="sans-serif" font-size="20" lengthAdjust="spacing" textLength="129" x="2232" y="1337.9961">EventPublisher</text><rect fill="#E2E2F0" height="64.3125" rx="2.5" ry="2.5" style="stroke:#181818;stroke-width:0.5;" width="234" x="2378" y="68.7656"/><text fill="#000000" font-family="sans-serif" font-size="20" font-style="italic" lengthAdjust="spacing" textLength="86" x="2452" y="96.5273">«service»</text><text fill="#000000" font-family="sans-serif" font-size="20" lengthAdjust="spacing" textLength="220" x="2385" y="121.6836">UserManagementService</text><rect fill="#E2E2F0" height="64.3125" rx="2.5" ry="2.5" style="stroke:#181818;stroke-width:0.5;" width="234" x="2378" y="1285.0781"/><text fill="#000000" font-family="sans-serif" font-size="20" font-style="italic" lengthAdjust="spacing" textLength="86" x="2452" y="1312.8398">«service»</text><text fill="#000000" font-family="sans-serif" font-size="20" lengthAdjust="spacing" textLength="220" x="2385" y="1337.9961">UserManagementService</text><rect fill="#E2E2F0" height="89.4688" rx="2.5" ry="2.5" style="stroke:#181818;stroke-width:0.5;" width="179" x="2622" y="1285.0781"/><text fill="#000000" font-family="sans-serif" font-size="20" font-style="italic" lengthAdjust="spacing" textLength="88" x="2667.5" y="1312.8398">«domain»</text><text fill="#000000" font-family="sans-serif" font-size="20" lengthAdjust="spacing" textLength="165" x="2629" y="1337.9961">NewCustomerUser</text><text fill="#000000" font-family="sans-serif" font-size="20" lengthAdjust="spacing" textLength="145" x="2639" y="1363.1523">RegisteredEvent</text><rect fill="#FFFFFF" height="1124" style="stroke:#181818;stroke-width:1.0;" width="10" x="87.5" y="144.0781"/><rect fill="#FFFFFF" height="981.2188" style="stroke:#181818;stroke-width:1.0;" width="10" x="495.5" y="295.8594"/><rect fill="#FFFFFF" height="729.125" style="stroke:#181818;stroke-width:1.0;" width="10" x="1021.5" y="538.9531"/><rect fill="#FFFFFF" height="39.1563" style="stroke:#181818;stroke-width:1.0;" width="10" x="1381.5" y="578.1094"/><rect fill="#FFFFFF" height="586.5" style="stroke:#181818;stroke-width:1.0;" width="10" x="1626" y="681.5781"/><rect fill="#FFFFFF" height="153.625" style="stroke:#181818;stroke-width:1.0;" width="10" x="1900" y="720.7344"/><rect fill="#FFFFFF" height="65.3125" style="stroke:#181818;stroke-width:1.0;" width="10" x="2122.5" y="769.8906"/><rect fill="#FFFFFF" height="30" style="stroke:#181818;stroke-width:1.0;" width="10" x="2291.5" y="1238.0781"/><rect fill="#FFFFFF" height="184.9375" style="stroke:#181818;stroke-width:1.0;" width="10" x="2490" y="913.5156"/><path d="M2500,149.0781 L2500,259.0781 L2850,259.0781 L2850,159.0781 L2840,149.0781 L2500,149.0781 " fill="#FEFFDD" style="stroke:#181818;stroke-width:0.5;"/><path d="M2840,149.0781 L2840,159.0781 L2850,159.0781 L2840,149.0781 " fill="#FEFFDD" style="stroke:#181818;stroke-width:0.5;"/><text fill="#000000" font-family="sans-serif" font-size="20" lengthAdjust="spacing" textLength="297" x="2506" y="174.8398">The UserManagementService and</text><text fill="#000000" font-family="sans-serif" font-size="20" lengthAdjust="spacing" textLength="329" x="2506" y="199.9961">AuthorizationService are implemented</text><text fill="#000000" font-family="sans-serif" font-size="20" lengthAdjust="spacing" textLength="265" x="2506" y="225.1523">in the eapli framework and will</text><text fill="#000000" font-family="sans-serif" font-size="20" lengthAdjust="spacing" textLength="240" x="2506" y="250.3086">be used in this functionality.</text><polygon fill="#181818" points="483.5,291.8594,493.5,295.8594,483.5,299.8594,487.5,295.8594" style="stroke:#181818;stroke-width:1.0;"/><line style="stroke:#181818;stroke-width:1.0;" x1="97.5" x2="489.5" y1="295.8594" y2="295.8594"/><text fill="#000000" font-family="sans-serif" font-size="20" font-weight="bold" lengthAdjust="spacing" textLength="11" x="104.5" y="289.4648">1</text><text fill="#000000" font-family="sans-serif" font-size="20" lengthAdjust="spacing" textLength="277" x="119.5" y="289.4648">wants to register new customer</text><polygon fill="#181818" points="885.5,331.0156,895.5,335.0156,885.5,339.0156,889.5,335.0156" style="stroke:#181818;stroke-width:1.0;"/><line style="stroke:#181818;stroke-width:1.0;" x1="505.5" x2="891.5" y1="335.0156" y2="335.0156"/><text fill="#000000" font-family="sans-serif" font-size="20" font-weight="bold" lengthAdjust="spacing" textLength="11" x="512.5" y="328.6211">2</text><text fill="#000000" font-family="sans-serif" font-size="20" lengthAdjust="spacing" textLength="56" x="527.5" y="328.6211">create</text><rect fill="#E2E2F0" height="64.3125" rx="2.5" ry="2.5" style="stroke:#181818;stroke-width:0.5;" width="258" x="897.5" y="303.8594"/><text fill="#000000" font-family="sans-serif" font-size="20" font-style="italic" lengthAdjust="spacing" textLength="105" x="974" y="331.6211">«controller»</text><text fill="#000000" font-family="sans-serif" font-size="20" lengthAdjust="spacing" textLength="244" x="904.5" y="356.7773">RegisterCustomerController</text><polygon fill="#181818" points="108.5,406.3281,98.5,410.3281,108.5,414.3281,104.5,410.3281" style="stroke:#181818;stroke-width:1.0;"/><line style="stroke:#181818;stroke-width:1.0;stroke-dasharray:2.0,2.0;" x1="102.5" x2="494.5" y1="410.3281" y2="410.3281"/><text fill="#000000" font-family="sans-serif" font-size="20" font-weight="bold" lengthAdjust="spacing" textLength="11" x="114.5" y="403.9336">3</text><text fill="#000000" font-family="sans-serif" font-size="20" lengthAdjust="spacing" textLength="269" x="129.5" y="403.9336">asks for necessary information</text><polygon fill="#181818" points="483.5,470.6406,493.5,474.6406,483.5,478.6406,487.5,474.6406" style="stroke:#181818;stroke-width:1.0;"/><line style="stroke:#181818;stroke-width:1.0;" x1="97.5" x2="489.5" y1="474.6406" y2="474.6406"/><text fill="#000000" font-family="sans-serif" font-size="20" font-weight="bold" lengthAdjust="spacing" textLength="11" x="104.5" y="455.668">4</text><text fill="#000000" font-family="sans-serif" font-size="20" lengthAdjust="spacing" textLength="359" x="119.5" y="443.0898">companyName, address, customerCode,</text><text fill="#000000" font-family="sans-serif" font-size="20" lengthAdjust="spacing" textLength="320" x="119.5" y="468.2461">userEmail, userName, phoneNumber</text><polygon fill="#181818" points="1009.5,534.9531,1019.5,538.9531,1009.5,542.9531,1013.5,538.9531" style="stroke:#181818;stroke-width:1.0;"/><line style="stroke:#181818;stroke-width:1.0;" x1="505.5" x2="1015.5" y1="538.9531" y2="538.9531"/><text fill="#000000" font-family="sans-serif" font-size="20" font-weight="bold" lengthAdjust="spacing" textLength="11" x="512.5" y="519.9805">5</text><text fill="#000000" font-family="sans-serif" font-size="20" lengthAdjust="spacing" textLength="482" x="527.5" y="507.4023">registerEntity(companyName, address, customerCode,</text><text fill="#000000" font-family="sans-serif" font-size="20" lengthAdjust="spacing" textLength="327" x="527.5" y="532.5586">userEmail, userName, phoneNumber)</text><polygon fill="#181818" points="1369.5,574.1094,1379.5,578.1094,1369.5,582.1094,1373.5,578.1094" style="stroke:#181818;stroke-width:1.0;"/><line style="stroke:#181818;stroke-width:1.0;" x1="1031.5" x2="1375.5" y1="578.1094" y2="578.1094"/><text fill="#000000" font-family="sans-serif" font-size="20" font-weight="bold" lengthAdjust="spacing" textLength="11" x="1038.5" y="571.7148">6</text><text fill="#000000" font-family="sans-serif" font-size="20" lengthAdjust="spacing" textLength="316" x="1053.5" y="571.7148">loggedinUserWithPermissions(roles)</text><polygon fill="#181818" points="1042.5,613.2656,1032.5,617.2656,1042.5,621.2656,1038.5,617.2656" style="stroke:#181818;stroke-width:1.0;"/><line style="stroke:#181818;stroke-width:1.0;stroke-dasharray:2.0,2.0;" x1="1036.5" x2="1385.5" y1="617.2656" y2="617.2656"/><text fill="#000000" font-family="sans-serif" font-size="20" font-weight="bold" lengthAdjust="spacing" textLength="11" x="1048.5" y="610.8711">7</text><text fill="#000000" font-family="sans-serif" font-size="20" lengthAdjust="spacing" textLength="159" x="1063.5" y="610.8711">customerManager</text><polygon fill="#181818" points="1614,677.5781,1624,681.5781,1614,685.5781,1618,681.5781" style="stroke:#181818;stroke-width:1.0;"/><line style="stroke:#181818;stroke-width:1.0;" x1="1031.5" x2="1620" y1="681.5781" y2="681.5781"/><text fill="#000000" font-family="sans-serif" font-size="20" font-weight="bold" lengthAdjust="spacing" textLength="11" x="1038.5" y="662.6055">8</text><text fill="#000000" font-family="sans-serif" font-size="20" lengthAdjust="spacing" textLength="557" x="1053.5" y="650.0273">registerNewCustomer(companyName, address, customerCode,</text><text fill="#000000" font-family="sans-serif" font-size="20" lengthAdjust="spacing" textLength="218" x="1053.5" y="675.1836">customerManager,email)</text><polygon fill="#181818" points="1888,716.7344,1898,720.7344,1888,724.7344,1892,720.7344" style="stroke:#181818;stroke-width:1.0;"/><line style="stroke:#181818;stroke-width:1.0;" x1="1636" x2="1894" y1="720.7344" y2="720.7344"/><text fill="#000000" font-family="sans-serif" font-size="20" font-weight="bold" lengthAdjust="spacing" textLength="11" x="1643" y="714.3398">9</text><text fill="#000000" font-family="sans-serif" font-size="20" lengthAdjust="spacing" textLength="180" x="1658" y="714.3398">generatePassword()</text><polygon fill="#181818" points="2028,755.8906,2038,759.8906,2028,763.8906,2032,759.8906" style="stroke:#181818;stroke-width:1.0;"/><line style="stroke:#181818;stroke-width:1.0;" x1="1910" x2="2034" y1="759.8906" y2="759.8906"/><text fill="#000000" font-family="sans-serif" font-size="20" font-weight="bold" lengthAdjust="spacing" textLength="22" x="1917" y="753.4961">10</text><text fill="#000000" font-family="sans-serif" font-size="20" lengthAdjust="spacing" textLength="70" x="1943" y="753.4961">create()</text><rect fill="#E2E2F0" height="64.3125" rx="2.5" ry="2.5" style="stroke:#181818;stroke-width:0.5;" width="175" x="2040" y="728.7344"/><text fill="#000000" font-family="sans-serif" font-size="20" font-style="italic" lengthAdjust="spacing" textLength="88" x="2083.5" y="756.4961">«domain»</text><text fill="#000000" font-family="sans-serif" font-size="20" lengthAdjust="spacing" textLength="161" x="2047" y="781.6523">RandomPassword</text><polygon fill="#181818" points="1921,831.2031,1911,835.2031,1921,839.2031,1917,835.2031" style="stroke:#181818;stroke-width:1.0;"/><line style="stroke:#181818;stroke-width:1.0;stroke-dasharray:2.0,2.0;" x1="1915" x2="2126.5" y1="835.2031" y2="835.2031"/><text fill="#000000" font-family="sans-serif" font-size="20" font-weight="bold" lengthAdjust="spacing" textLength="22" x="1927" y="828.8086">11</text><text fill="#000000" font-family="sans-serif" font-size="20" lengthAdjust="spacing" textLength="86" x="1953" y="828.8086">password</text><polygon fill="#181818" points="1647,870.3594,1637,874.3594,1647,878.3594,1643,874.3594" style="stroke:#181818;stroke-width:1.0;"/><line style="stroke:#181818;stroke-width:1.0;stroke-dasharray:2.0,2.0;" x1="1641" x2="1904" y1="874.3594" y2="874.3594"/><text fill="#000000" font-family="sans-serif" font-size="20" font-weight="bold" lengthAdjust="spacing" textLength="22" x="1653" y="867.9648">12</text><text fill="#000000" font-family="sans-serif" font-size="20" lengthAdjust="spacing" textLength="86" x="1679" y="867.9648">password</text><polygon fill="#181818" points="2478,909.5156,2488,913.5156,2478,917.5156,2482,913.5156" style="stroke:#181818;stroke-width:1.0;"/><line style="stroke:#181818;stroke-width:1.0;" x1="1636" x2="2484" y1="913.5156" y2="913.5156"/><text fill="#000000" font-family="sans-serif" font-size="20" font-weight="bold" lengthAdjust="spacing" textLength="22" x="1643" y="907.1211">13</text><text fill="#000000" font-family="sans-serif" font-size="20" lengthAdjust="spacing" textLength="538" x="1669" y="907.1211">registerNewUser(email, password,firstname,lastname,  roles)</text><path d="M2505,926.5156 L2505,1061.5156 L2770,1061.5156 L2770,936.5156 L2760,926.5156 L2505,926.5156 " fill="#FEFFDD" style="stroke:#181818;stroke-width:0.5;"/><path d="M2760,926.5156 L2760,936.5156 L2770,936.5156 L2760,926.5156 " fill="#FEFFDD" style="stroke:#181818;stroke-width:0.5;"/><text fill="#000000" font-family="sans-serif" font-size="20" lengthAdjust="spacing" textLength="157" x="2511" y="952.2773">The last name will</text><text fill="#000000" font-family="sans-serif" font-size="20" lengthAdjust="spacing" textLength="169" x="2511" y="977.4336">be an empty string.</text><text fill="#000000" font-family="sans-serif" font-size="20" lengthAdjust="spacing" textLength="160" x="2511" y="1002.5898">Seeing as this is a</text><text fill="#000000" font-family="sans-serif" font-size="20" lengthAdjust="spacing" textLength="244" x="2511" y="1027.7461">method from the framework</text><text fill="#000000" font-family="sans-serif" font-size="20" lengthAdjust="spacing" textLength="164" x="2511" y="1052.9023">we can't change it.</text><polygon fill="#181818" points="1647,1094.4531,1637,1098.4531,1647,1102.4531,1643,1098.4531" style="stroke:#181818;stroke-width:1.0;"/><line style="stroke:#181818;stroke-width:1.0;stroke-dasharray:2.0,2.0;" x1="1641" x2="2494" y1="1098.4531" y2="1098.4531"/><text fill="#000000" font-family="sans-serif" font-size="20" font-weight="bold" lengthAdjust="spacing" textLength="22" x="1653" y="1092.0586">14</text><text fill="#000000" font-family="sans-serif" font-size="20" lengthAdjust="spacing" textLength="122" x="1679" y="1092.0586">customerUser</text><polygon fill="#181818" points="2610,1158.7656,2620,1162.7656,2610,1166.7656,2614,1162.7656" style="stroke:#181818;stroke-width:1.0;"/><line style="stroke:#181818;stroke-width:1.0;" x1="1636" x2="2616" y1="1162.7656" y2="1162.7656"/><text fill="#000000" font-family="sans-serif" font-size="20" font-weight="bold" lengthAdjust="spacing" textLength="22" x="1643" y="1143.793">15</text><text fill="#000000" font-family="sans-serif" font-size="20" lengthAdjust="spacing" textLength="422" x="1669" y="1131.2148">create(companyName, address, customerCode,</text><text fill="#000000" font-family="sans-serif" font-size="20" lengthAdjust="spacing" textLength="300" x="1669" y="1156.3711">customerManager, customerUser)</text><rect fill="#E2E2F0" height="89.4688" rx="2.5" ry="2.5" style="stroke:#181818;stroke-width:0.5;" width="179" x="2622" y="1106.4531"/><text fill="#000000" font-family="sans-serif" font-size="20" font-style="italic" lengthAdjust="spacing" textLength="88" x="2667.5" y="1134.2148">«domain»</text><text fill="#000000" font-family="sans-serif" font-size="20" lengthAdjust="spacing" textLength="165" x="2629" y="1159.3711">NewCustomerUser</text><text fill="#000000" font-family="sans-serif" font-size="20" lengthAdjust="spacing" textLength="145" x="2639" y="1184.5273">RegisteredEvent</text><polygon fill="#181818" points="2279.5,1234.0781,2289.5,1238.0781,2279.5,1242.0781,2283.5,1238.0781" style="stroke:#181818;stroke-width:1.0;"/><line style="stroke:#181818;stroke-width:1.0;" x1="1636" x2="2285.5" y1="1238.0781" y2="1238.0781"/><text fill="#000000" font-family="sans-serif" font-size="20" font-weight="bold" lengthAdjust="spacing" textLength="22" x="1643" y="1231.6836">16</text><text fill="#000000" font-family="sans-serif" font-size="20" lengthAdjust="spacing" textLength="121" x="1669" y="1231.6836">publish(event)</text><!--SRC=[hLHjQzim4FwkNt7qozAIb7OVGocKu6M1DPYyTB1r7rJxOelOaf7aXlJNxoI_HFNQCiP2I6nnpptttDqZinUoufgNXKhsc4AAEruNzekITYrU43vVCLvR9Ulo2JLZLjW2uUTsVNrrTVqBLfW9Or73h3PMbVGmWMl6U6ALXhF-y9vBdg4-0svWkuvMZ16b5OcekBHmrcNfuhUB9d81DpULHeFISYkKlBtz63UZehKgYfPfjbbzemn9Vph4tzKsLrgy-EHhrCyYGO-yssw-_Y2eQSw6k8wlaLLIUI4ukb-_3vsZHCqjnjoOWz9f29p77m1NNAQgx60-FfvJE1royKTdecSgAgwV2c7ojXjH_6xqrhodPVkHbYKU-ebHoAFive6fvsze7wBb9cHs7waiWXPPRXq3s-G8RzO099gzDINW6a6KLU6ZCML2WgKioAj2m8xM6QbDUuU7WoWAzeHG6rfl7oSCx6gPk7oy4FPuoP3YN55-TSKp3QZTK_SBarlQnIaSIBK1gq1tMo_n04dRWW2v8Dp2eTm6NbnC8T78NVBctAMZj5DgpvugKIvFWiPmVQJwwBtqKjbhzaILrFRZagIDWQSf-SACU_QPId7yA4cZZgZHnTZ9rKrmbIk9oyR0fxgclOn8agkFe_z2S7vgWoDnahqDYTIRQWfGg2p3L4WtyU_2vZ7gKXX3Yis8V8ecoE4nZ3L-dFILzrMr5mjBSGZfMCcD9wN1nlwTt07F69tqe3xApfWpF36HVQUG3Vmz2e8fW35dSWgEvwUz26FYEMFawqcNhshpX0fTZ4_JoNiho9ErbMq7FN2T7s4pnGuxtWbjh7JTA7Zx0D3E0uBFQSsTzi39QjURsMK0bw8t7vU0PMMFOAmMChjaQqJwTpU4zoDzEIkHd9wIVLNftTpxc1qG4Yu_MKXoBZEolWqzwswflXb9S2M53V7bzYtnrr8mWd_QXbTSvwVSCT1CcijtXEuc33ScPc5LmrTVP73GcYZKuUwbtm00]--></g></svg>