<?xml version="1.0" encoding="us-ascii" standalone="no"?><svg xmlns="http://www.w3.org/2000/svg" xmlns:xlink="http://www.w3.org/1999/xlink" contentStyleType="text/css" height="595.8px" preserveAspectRatio="none" style="width:1472px;height:595px;background:#FFFFFF;" version="1.1" viewBox="0 0 1472 595" width="1472.4px" zoomAndPan="magnify"><defs/><g><text fill="#000000" font-family="sans-serif" font-size="8.4" font-weight="bold" lengthAdjust="spacing" textLength="117" x="677.1" y="18.0645">US2000a Sequence Diagram</text><rect fill="#FFFFFF" height="455.577" style="stroke:#181818;stroke-width:0.6;" width="6" x="18.9" y="79.9453"/><rect fill="#FFFFFF" height="447.0023" style="stroke:#181818;stroke-width:0.6;" width="6" x="153.9" y="93.9199"/><rect fill="#FFFFFF" height="329.1586" style="stroke:#181818;stroke-width:0.6;" width="6" x="338.7" y="187.5891"/><rect fill="#FFFFFF" height="18.7746" style="stroke:#181818;stroke-width:0.6;" width="6" x="537.3" y="206.3637"/><rect fill="#FFFFFF" height="254.0602" style="stroke:#181818;stroke-width:0.6;" width="6" x="648.6" y="243.9129"/><rect fill="#FFFFFF" height="130.4438" style="stroke:#181818;stroke-width:0.6;" width="6" x="749.7" y="348.7547"/><rect fill="#FFFFFF" height="173.393" style="stroke:#181818;stroke-width:0.6;" width="6" x="935.7" y="367.5293"/><rect fill="#FFFFFF" height="92.8945" style="stroke:#181818;stroke-width:0.6;" width="6" x="1146.9" y="386.3039"/><rect fill="#FFFFFF" height="31.3453" style="stroke:#181818;stroke-width:0.6;" width="6" x="1258.2" y="411.0785"/><rect fill="#FFFFFF" height="18.7746" style="stroke:#181818;stroke-width:0.6;" width="6" x="1334.1" y="262.6875"/><rect fill="#FFFFFF" height="18" style="stroke:#181818;stroke-width:0.6;" width="6" x="1421.7" y="461.1984"/><line style="stroke:#181818;stroke-width:0.3;stroke-dasharray:5.0,5.0;" x1="21.6" x2="21.6" y1="73.9453" y2="546.3223"/><line style="stroke:#181818;stroke-width:0.3;stroke-dasharray:5.0,5.0;" x1="156.9" x2="156.9" y1="73.9453" y2="546.3223"/><line style="stroke:#181818;stroke-width:0.3;stroke-dasharray:5.0,5.0;" x1="341.7" x2="341.7" y1="123.3926" y2="546.3223"/><line style="stroke:#181818;stroke-width:0.3;stroke-dasharray:5.0,5.0;" x1="540" x2="540" y1="73.9453" y2="546.3223"/><line style="stroke:#181818;stroke-width:0.3;stroke-dasharray:5.0,5.0;" x1="651.6" x2="651.6" y1="73.9453" y2="546.3223"/><line style="stroke:#181818;stroke-width:0.3;stroke-dasharray:5.0,5.0;" x1="752.4" x2="752.4" y1="73.9453" y2="546.3223"/><line style="stroke:#181818;stroke-width:0.3;stroke-dasharray:5.0,5.0;" x1="831.6" x2="831.6" y1="316.5211" y2="546.3223"/><line style="stroke:#181818;stroke-width:0.3;stroke-dasharray:5.0,5.0;" x1="938.4" x2="938.4" y1="73.9453" y2="546.3223"/><line style="stroke:#181818;stroke-width:0.3;stroke-dasharray:5.0,5.0;" x1="1149.6" x2="1149.6" y1="73.9453" y2="546.3223"/><line style="stroke:#181818;stroke-width:0.3;stroke-dasharray:5.0,5.0;" x1="1261.2" x2="1261.2" y1="415.7766" y2="546.3223"/><line style="stroke:#181818;stroke-width:0.3;stroke-dasharray:5.0,5.0;" x1="1336.8" x2="1336.8" y1="73.9453" y2="546.3223"/><line style="stroke:#181818;stroke-width:0.3;stroke-dasharray:5.0,5.0;" x1="1424.4" x2="1424.4" y1="73.9453" y2="546.3223"/><text fill="#000000" font-family="sans-serif" font-size="8.4" lengthAdjust="spacing" textLength="34.2" x="3" y="71.8371">Operator</text><ellipse cx="21.9" cy="31.8727" fill="#E2E2F0" rx="4.8" ry="4.8" style="stroke:#181818;stroke-width:0.3;"/><path d="M21.9,36.6727 L21.9,52.8727 M14.1,41.4727 L29.7,41.4727 M21.9,52.8727 L14.1,61.8727 M21.9,52.8727 L29.7,61.8727 " fill="none" style="stroke:#181818;stroke-width:0.3;"/><text fill="#000000" font-family="sans-serif" font-size="8.4" lengthAdjust="spacing" textLength="34.2" x="3" y="554.7867">Operator</text><ellipse cx="21.9" cy="561.9949" fill="#E2E2F0" rx="4.8" ry="4.8" style="stroke:#181818;stroke-width:0.3;"/><path d="M21.9,566.7949 L21.9,582.9949 M14.1,571.5949 L29.7,571.5949 M21.9,582.9949 L14.1,591.9949 M21.9,582.9949 L29.7,591.9949 " fill="none" style="stroke:#181818;stroke-width:0.3;"/><rect fill="#E2E2F0" height="30.7453" rx="1.5" ry="1.5" style="stroke:#181818;stroke-width:0.3;" width="86.4" x="113.7" y="42.6"/><text fill="#000000" font-family="sans-serif" font-size="8.4" font-style="italic" lengthAdjust="spacing" textLength="57" x="128.4" y="55.8645">&#171;presentation&#187;</text><text fill="#000000" font-family="sans-serif" font-size="8.4" lengthAdjust="spacing" textLength="78" x="117.9" y="67.0371">RegisterCandidateUI</text><rect fill="#E2E2F0" height="30.7453" rx="1.5" ry="1.5" style="stroke:#181818;stroke-width:0.3;" width="86.4" x="113.7" y="545.7223"/><text fill="#000000" font-family="sans-serif" font-size="8.4" font-style="italic" lengthAdjust="spacing" textLength="57" x="128.4" y="558.9867">&#171;presentation&#187;</text><text fill="#000000" font-family="sans-serif" font-size="8.4" lengthAdjust="spacing" textLength="78" x="117.9" y="570.1594">RegisterCandidateUI</text><rect fill="#E2E2F0" height="30.7453" rx="1.5" ry="1.5" style="stroke:#181818;stroke-width:0.3;" width="116.4" x="283.5" y="545.7223"/><text fill="#000000" font-family="sans-serif" font-size="8.4" font-style="italic" lengthAdjust="spacing" textLength="45" x="319.2" y="558.9867">&#171;controller&#187;</text><text fill="#000000" font-family="sans-serif" font-size="8.4" lengthAdjust="spacing" textLength="108" x="287.7" y="570.1594">RegisterCandidateController</text><rect fill="#E2E2F0" height="30.7453" rx="1.5" ry="1.5" style="stroke:#181818;stroke-width:0.3;" width="85.8" x="497.4" y="42.6"/><text fill="#000000" font-family="sans-serif" font-size="8.4" font-style="italic" lengthAdjust="spacing" textLength="36" x="522.3" y="55.8645">&#171;service&#187;</text><text fill="#000000" font-family="sans-serif" font-size="8.4" lengthAdjust="spacing" textLength="77.4" x="501.6" y="67.0371">AuthorizationService</text><rect fill="#E2E2F0" height="30.7453" rx="1.5" ry="1.5" style="stroke:#181818;stroke-width:0.3;" width="85.8" x="497.4" y="545.7223"/><text fill="#000000" font-family="sans-serif" font-size="8.4" font-style="italic" lengthAdjust="spacing" textLength="36" x="522.3" y="558.9867">&#171;service&#187;</text><text fill="#000000" font-family="sans-serif" font-size="8.4" lengthAdjust="spacing" textLength="77.4" x="501.6" y="570.1594">AuthorizationService</text><rect fill="#E2E2F0" height="30.7453" rx="1.5" ry="1.5" style="stroke:#181818;stroke-width:0.3;" width="124.8" x="589.2" y="42.6"/><text fill="#000000" font-family="sans-serif" font-size="8.4" font-style="italic" lengthAdjust="spacing" textLength="36" x="633.6" y="55.8645">&#171;service&#187;</text><text fill="#000000" font-family="sans-serif" font-size="8.4" lengthAdjust="spacing" textLength="116.4" x="593.4" y="67.0371">CandidateManagementService</text><rect fill="#E2E2F0" height="30.7453" rx="1.5" ry="1.5" style="stroke:#181818;stroke-width:0.3;" width="124.8" x="589.2" y="545.7223"/><text fill="#000000" font-family="sans-serif" font-size="8.4" font-style="italic" lengthAdjust="spacing" textLength="36" x="633.6" y="558.9867">&#171;service&#187;</text><text fill="#000000" font-family="sans-serif" font-size="8.4" lengthAdjust="spacing" textLength="116.4" x="593.4" y="570.1594">CandidateManagementService</text><rect fill="#E2E2F0" height="30.7453" rx="1.5" ry="1.5" style="stroke:#181818;stroke-width:0.3;" width="65.4" x="720" y="42.6"/><text fill="#000000" font-family="sans-serif" font-size="8.4" font-style="italic" lengthAdjust="spacing" textLength="37.2" x="734.1" y="55.8645">&#171;domain&#187;</text><text fill="#000000" font-family="sans-serif" font-size="8.4" lengthAdjust="spacing" textLength="57" x="724.2" y="67.0371">EventPublisher</text><rect fill="#E2E2F0" height="30.7453" rx="1.5" ry="1.5" style="stroke:#181818;stroke-width:0.3;" width="65.4" x="720" y="545.7223"/><text fill="#000000" font-family="sans-serif" font-size="8.4" font-style="italic" lengthAdjust="spacing" textLength="37.2" x="734.1" y="558.9867">&#171;domain&#187;</text><text fill="#000000" font-family="sans-serif" font-size="8.4" lengthAdjust="spacing" textLength="57" x="724.2" y="570.1594">EventPublisher</text><rect fill="#E2E2F0" height="41.918" rx="1.5" ry="1.5" style="stroke:#181818;stroke-width:0.3;" width="80.4" x="791.4" y="545.7223"/><text fill="#000000" font-family="sans-serif" font-size="8.4" font-style="italic" lengthAdjust="spacing" textLength="37.2" x="813" y="558.9867">&#171;domain&#187;</text><text fill="#000000" font-family="sans-serif" font-size="8.4" lengthAdjust="spacing" textLength="72" x="795.6" y="570.1594">NewCandidateUser</text><text fill="#000000" font-family="sans-serif" font-size="8.4" lengthAdjust="spacing" textLength="63" x="800.1" y="581.332">RegisteredEvent</text><rect fill="#E2E2F0" height="41.918" rx="1.5" ry="1.5" style="stroke:#181818;stroke-width:0.3;" width="121.8" x="877.8" y="31.4273"/><text fill="#000000" font-family="sans-serif" font-size="8.4" font-style="italic" lengthAdjust="spacing" textLength="37.2" x="920.1" y="44.6918">&#171;domain&#187;</text><text fill="#000000" font-family="sans-serif" font-size="8.4" lengthAdjust="spacing" textLength="113.4" x="882" y="55.8645">NewCandidateUserRegistered</text><text fill="#000000" font-family="sans-serif" font-size="8.4" lengthAdjust="spacing" textLength="39.6" x="918.9" y="67.0371">WatchDog</text><rect fill="#E2E2F0" height="41.918" rx="1.5" ry="1.5" style="stroke:#181818;stroke-width:0.3;" width="121.8" x="877.8" y="545.7223"/><text fill="#000000" font-family="sans-serif" font-size="8.4" font-style="italic" lengthAdjust="spacing" textLength="37.2" x="920.1" y="558.9867">&#171;domain&#187;</text><text fill="#000000" font-family="sans-serif" font-size="8.4" lengthAdjust="spacing" textLength="113.4" x="882" y="570.1594">NewCandidateUserRegistered</text><text fill="#000000" font-family="sans-serif" font-size="8.4" lengthAdjust="spacing" textLength="39.6" x="918.9" y="581.332">WatchDog</text><rect fill="#E2E2F0" height="41.918" rx="1.5" ry="1.5" style="stroke:#181818;stroke-width:0.3;" width="145.8" x="1077" y="31.4273"/><text fill="#000000" font-family="sans-serif" font-size="8.4" font-style="italic" lengthAdjust="spacing" textLength="37.2" x="1131.3" y="44.6918">&#171;domain&#187;</text><text fill="#000000" font-family="sans-serif" font-size="8.4" lengthAdjust="spacing" textLength="137.4" x="1081.2" y="55.8645">AddCandidateOnNewCandidateUser</text><text fill="#000000" font-family="sans-serif" font-size="8.4" lengthAdjust="spacing" textLength="78.6" x="1110.6" y="67.0371">RegisteredController</text><rect fill="#E2E2F0" height="41.918" rx="1.5" ry="1.5" style="stroke:#181818;stroke-width:0.3;" width="145.8" x="1077" y="545.7223"/><text fill="#000000" font-family="sans-serif" font-size="8.4" font-style="italic" lengthAdjust="spacing" textLength="37.2" x="1131.3" y="558.9867">&#171;domain&#187;</text><text fill="#000000" font-family="sans-serif" font-size="8.4" lengthAdjust="spacing" textLength="137.4" x="1081.2" y="570.1594">AddCandidateOnNewCandidateUser</text><text fill="#000000" font-family="sans-serif" font-size="8.4" lengthAdjust="spacing" textLength="78.6" x="1110.6" y="581.332">RegisteredController</text><rect fill="#E2E2F0" height="30.7453" rx="1.5" ry="1.5" style="stroke:#181818;stroke-width:0.3;" width="64.8" x="1228.8" y="545.7223"/><text fill="#000000" font-family="sans-serif" font-size="8.4" font-style="italic" lengthAdjust="spacing" textLength="37.2" x="1242.6" y="558.9867">&#171;domain&#187;</text><text fill="#000000" font-family="sans-serif" font-size="8.4" lengthAdjust="spacing" textLength="56.4" x="1233" y="570.1594">CandidateUser</text><rect fill="#E2E2F0" height="41.918" rx="1.5" ry="1.5" style="stroke:#181818;stroke-width:0.3;" width="75" x="1299.6" y="31.4273"/><text fill="#000000" font-family="sans-serif" font-size="8.4" font-style="italic" lengthAdjust="spacing" textLength="36" x="1319.1" y="44.6918">&#171;service&#187;</text><text fill="#000000" font-family="sans-serif" font-size="8.4" lengthAdjust="spacing" textLength="66.6" x="1303.8" y="55.8645">UserManagement</text><text fill="#000000" font-family="sans-serif" font-size="8.4" lengthAdjust="spacing" textLength="28.2" x="1323" y="67.0371">Service</text><rect fill="#E2E2F0" height="41.918" rx="1.5" ry="1.5" style="stroke:#181818;stroke-width:0.3;" width="75" x="1299.6" y="545.7223"/><text fill="#000000" font-family="sans-serif" font-size="8.4" font-style="italic" lengthAdjust="spacing" textLength="36" x="1319.1" y="558.9867">&#171;service&#187;</text><text fill="#000000" font-family="sans-serif" font-size="8.4" lengthAdjust="spacing" textLength="66.6" x="1303.8" y="570.1594">UserManagement</text><text fill="#000000" font-family="sans-serif" font-size="8.4" lengthAdjust="spacing" textLength="28.2" x="1323" y="581.332">Service</text><rect fill="#E2E2F0" height="30.7453" rx="1.5" ry="1.5" style="stroke:#181818;stroke-width:0.3;" width="88.2" x="1380.6" y="42.6"/><text fill="#000000" font-family="sans-serif" font-size="8.4" font-style="italic" lengthAdjust="spacing" textLength="37.2" x="1406.1" y="55.8645">&#171;domain&#187;</text><text fill="#000000" font-family="sans-serif" font-size="8.4" lengthAdjust="spacing" textLength="79.8" x="1384.8" y="67.0371">CandidateRepository</text><rect fill="#E2E2F0" height="30.7453" rx="1.5" ry="1.5" style="stroke:#181818;stroke-width:0.3;" width="88.2" x="1380.6" y="545.7223"/><text fill="#000000" font-family="sans-serif" font-size="8.4" font-style="italic" lengthAdjust="spacing" textLength="37.2" x="1406.1" y="558.9867">&#171;domain&#187;</text><text fill="#000000" font-family="sans-serif" font-size="8.4" lengthAdjust="spacing" textLength="79.8" x="1384.8" y="570.1594">CandidateRepository</text><rect fill="#FFFFFF" height="455.577" style="stroke:#181818;stroke-width:0.6;" width="6" x="18.9" y="79.9453"/><rect fill="#FFFFFF" height="447.0023" style="stroke:#181818;stroke-width:0.6;" width="6" x="153.9" y="93.9199"/><rect fill="#FFFFFF" height="329.1586" style="stroke:#181818;stroke-width:0.6;" width="6" x="338.7" y="187.5891"/><rect fill="#FFFFFF" height="18.7746" style="stroke:#181818;stroke-width:0.6;" width="6" x="537.3" y="206.3637"/><rect fill="#FFFFFF" height="254.0602" style="stroke:#181818;stroke-width:0.6;" width="6" x="648.6" y="243.9129"/><rect fill="#FFFFFF" height="130.4438" style="stroke:#181818;stroke-width:0.6;" width="6" x="749.7" y="348.7547"/><rect fill="#FFFFFF" height="173.393" style="stroke:#181818;stroke-width:0.6;" width="6" x="935.7" y="367.5293"/><rect fill="#FFFFFF" height="92.8945" style="stroke:#181818;stroke-width:0.6;" width="6" x="1146.9" y="386.3039"/><rect fill="#FFFFFF" height="31.3453" style="stroke:#181818;stroke-width:0.6;" width="6" x="1258.2" y="411.0785"/><rect fill="#FFFFFF" height="18.7746" style="stroke:#181818;stroke-width:0.6;" width="6" x="1334.1" y="262.6875"/><rect fill="#FFFFFF" height="18" style="stroke:#181818;stroke-width:0.6;" width="6" x="1421.7" y="461.1984"/><polygon fill="#181818" points="146.7,91.5199,152.7,93.9199,146.7,96.3199,149.1,93.9199" style="stroke:#181818;stroke-width:0.6;"/><line style="stroke:#181818;stroke-width:0.6;" x1="24.9" x2="150.3" y1="93.9199" y2="93.9199"/><text fill="#000000" font-family="sans-serif" font-size="7.8" font-weight="bold" lengthAdjust="spacing" textLength="4.2" x="29.1" y="90.7623">1</text><text fill="#000000" font-family="sans-serif" font-size="7.8" lengthAdjust="spacing" textLength="109.8" x="35.7" y="90.7623">wants to register new candidate</text><polygon fill="#181818" points="276.3,110.2945,282.3,112.6945,276.3,115.0945,278.7,112.6945" style="stroke:#181818;stroke-width:0.6;"/><line style="stroke:#181818;stroke-width:0.6;" x1="159.9" x2="279.9" y1="112.6945" y2="112.6945"/><text fill="#000000" font-family="sans-serif" font-size="7.8" font-weight="bold" lengthAdjust="spacing" textLength="4.2" x="164.1" y="109.5369">2</text><text fill="#000000" font-family="sans-serif" font-size="7.8" lengthAdjust="spacing" textLength="21.6" x="170.7" y="109.5369">create</text><rect fill="#E2E2F0" height="30.7453" rx="1.5" ry="1.5" style="stroke:#181818;stroke-width:0.3;" width="116.4" x="283.5" y="98.7199"/><text fill="#000000" font-family="sans-serif" font-size="8.4" font-style="italic" lengthAdjust="spacing" textLength="45" x="319.2" y="111.9844">&#171;controller&#187;</text><text fill="#000000" font-family="sans-serif" font-size="8.4" lengthAdjust="spacing" textLength="108" x="287.7" y="123.157">RegisterCandidateController</text><polygon fill="#181818" points="31.5,147.6398,25.5,150.0398,31.5,152.4398,29.1,150.0398" style="stroke:#181818;stroke-width:0.6;"/><line style="stroke:#181818;stroke-width:0.6;stroke-dasharray:2.0,2.0;" x1="27.9" x2="153.3" y1="150.0398" y2="150.0398"/><text fill="#000000" font-family="sans-serif" font-size="7.8" font-weight="bold" lengthAdjust="spacing" textLength="4.2" x="35.1" y="146.8822">3</text><text fill="#000000" font-family="sans-serif" font-size="7.8" lengthAdjust="spacing" textLength="106.2" x="41.7" y="146.8822">asks for necessary information</text><polygon fill="#181818" points="146.7,166.4145,152.7,168.8145,146.7,171.2145,149.1,168.8145" style="stroke:#181818;stroke-width:0.6;"/><line style="stroke:#181818;stroke-width:0.6;" x1="24.9" x2="150.3" y1="168.8145" y2="168.8145"/><text fill="#000000" font-family="sans-serif" font-size="7.8" font-weight="bold" lengthAdjust="spacing" textLength="4.2" x="29.1" y="165.6568">4</text><text fill="#000000" font-family="sans-serif" font-size="7.8" lengthAdjust="spacing" textLength="108" x="35.7" y="165.6568">name, email and phoneNumber</text><polygon fill="#181818" points="331.5,185.1891,337.5,187.5891,331.5,189.9891,333.9,187.5891" style="stroke:#181818;stroke-width:0.6;"/><line style="stroke:#181818;stroke-width:0.6;" x1="159.9" x2="335.1" y1="187.5891" y2="187.5891"/><text fill="#000000" font-family="sans-serif" font-size="7.8" font-weight="bold" lengthAdjust="spacing" textLength="4.2" x="164.1" y="184.4314">5</text><text fill="#000000" font-family="sans-serif" font-size="7.8" lengthAdjust="spacing" textLength="160.8" x="170.7" y="184.4314">registerCandidate(name, email, phoneNumber)</text><polygon fill="#181818" points="530.1,203.9637,536.1,206.3637,530.1,208.7637,532.5,206.3637" style="stroke:#181818;stroke-width:0.6;"/><line style="stroke:#181818;stroke-width:0.6;" x1="344.7" x2="533.7" y1="206.3637" y2="206.3637"/><text fill="#000000" font-family="sans-serif" font-size="7.8" font-weight="bold" lengthAdjust="spacing" textLength="4.2" x="348.9" y="203.2061">6</text><text fill="#000000" font-family="sans-serif" font-size="7.8" lengthAdjust="spacing" textLength="120.6" x="355.5" y="203.2061">ensureUserWithPermissions(roles)</text><polygon fill="#181818" points="351.3,222.7383,345.3,225.1383,351.3,227.5383,348.9,225.1383" style="stroke:#181818;stroke-width:0.6;"/><line style="stroke:#181818;stroke-width:0.6;" x1="347.7" x2="539.7" y1="225.1383" y2="225.1383"/><text fill="#000000" font-family="sans-serif" font-size="7.8" font-weight="bold" lengthAdjust="spacing" textLength="4.2" x="354.9" y="221.9807">7</text><text fill="#000000" font-family="sans-serif" font-size="7.8" lengthAdjust="spacing" textLength="171.6" x="361.5" y="221.9807">return if the logged user has the right permissions</text><polygon fill="#181818" points="641.4,241.5129,647.4,243.9129,641.4,246.3129,643.8,243.9129" style="stroke:#181818;stroke-width:0.6;"/><line style="stroke:#181818;stroke-width:0.6;" x1="344.7" x2="645" y1="243.9129" y2="243.9129"/><text fill="#000000" font-family="sans-serif" font-size="7.8" font-weight="bold" lengthAdjust="spacing" textLength="4.2" x="348.9" y="240.7553">8</text><text fill="#000000" font-family="sans-serif" font-size="7.8" lengthAdjust="spacing" textLength="160.8" x="355.5" y="240.7553">registerCandidate(name, email, phoneNumber)</text><polygon fill="#181818" points="1326.9,260.2875,1332.9,262.6875,1326.9,265.0875,1329.3,262.6875" style="stroke:#181818;stroke-width:0.6;"/><line style="stroke:#181818;stroke-width:0.6;" x1="654.6" x2="1330.5" y1="262.6875" y2="262.6875"/><text fill="#000000" font-family="sans-serif" font-size="7.8" font-weight="bold" lengthAdjust="spacing" textLength="4.2" x="658.8" y="259.5299">9</text><text fill="#000000" font-family="sans-serif" font-size="7.8" lengthAdjust="spacing" textLength="139.8" x="665.4" y="259.5299">registerNewUser(email,password, name)</text><polygon fill="#181818" points="661.2,279.0621,655.2,281.4621,661.2,283.8621,658.8,281.4621" style="stroke:#181818;stroke-width:0.6;"/><line style="stroke:#181818;stroke-width:0.6;" x1="657.6" x2="1336.5" y1="281.4621" y2="281.4621"/><text fill="#000000" font-family="sans-serif" font-size="7.8" font-weight="bold" lengthAdjust="spacing" textLength="8.4" x="664.8" y="278.3045">10</text><text fill="#000000" font-family="sans-serif" font-size="7.8" lengthAdjust="spacing" textLength="49.8" x="675.6" y="278.3045">candidateUser</text><polygon fill="#181818" points="784.2,297.8367,790.2,300.2367,784.2,302.6367,786.6,300.2367" style="stroke:#181818;stroke-width:0.6;"/><line style="stroke:#181818;stroke-width:0.6;" x1="654.6" x2="787.8" y1="300.2367" y2="300.2367"/><text fill="#000000" font-family="sans-serif" font-size="7.8" font-weight="bold" lengthAdjust="spacing" textLength="8.4" x="658.8" y="297.0791">11</text><text fill="#000000" font-family="sans-serif" font-size="7.8" lengthAdjust="spacing" textLength="94.2" x="669.6" y="297.0791">create(user, phoneNumber)</text><rect fill="#E2E2F0" height="41.918" rx="1.5" ry="1.5" style="stroke:#181818;stroke-width:0.3;" width="80.4" x="791.4" y="286.2621"/><text fill="#000000" font-family="sans-serif" font-size="8.4" font-style="italic" lengthAdjust="spacing" textLength="37.2" x="813" y="299.5266">&#171;domain&#187;</text><text fill="#000000" font-family="sans-serif" font-size="8.4" lengthAdjust="spacing" textLength="72" x="795.6" y="310.6992">NewCandidateUser</text><text fill="#000000" font-family="sans-serif" font-size="8.4" lengthAdjust="spacing" textLength="63" x="800.1" y="321.8719">RegisteredEvent</text><polygon fill="#181818" points="742.5,346.3547,748.5,348.7547,742.5,351.1547,744.9,348.7547" style="stroke:#181818;stroke-width:0.6;"/><line style="stroke:#181818;stroke-width:0.6;" x1="654.6" x2="746.1" y1="348.7547" y2="348.7547"/><text fill="#000000" font-family="sans-serif" font-size="7.8" font-weight="bold" lengthAdjust="spacing" textLength="8.4" x="658.8" y="345.5971">12</text><text fill="#000000" font-family="sans-serif" font-size="7.8" lengthAdjust="spacing" textLength="47.4" x="669.6" y="345.5971">publish(event)</text><polygon fill="#181818" points="928.5,365.1293,934.5,367.5293,928.5,369.9293,930.9,367.5293" style="stroke:#181818;stroke-width:0.6;"/><line style="stroke:#181818;stroke-width:0.6;" x1="755.7" x2="932.1" y1="367.5293" y2="367.5293"/><text fill="#000000" font-family="sans-serif" font-size="7.8" font-weight="bold" lengthAdjust="spacing" textLength="8.4" x="759.9" y="364.3717">13</text><text fill="#000000" font-family="sans-serif" font-size="7.8" lengthAdjust="spacing" textLength="32.4" x="770.7" y="364.3717">onEvent()</text><polygon fill="#181818" points="1139.7,383.9039,1145.7,386.3039,1139.7,388.7039,1142.1,386.3039" style="stroke:#181818;stroke-width:0.6;"/><line style="stroke:#181818;stroke-width:0.6;" x1="941.7" x2="1143.3" y1="386.3039" y2="386.3039"/><text fill="#000000" font-family="sans-serif" font-size="7.8" font-weight="bold" lengthAdjust="spacing" textLength="8.4" x="945.9" y="383.1463">14</text><text fill="#000000" font-family="sans-serif" font-size="7.8" lengthAdjust="spacing" textLength="183" x="956.7" y="383.1463">registerNewUser(newCandidateUserRegisteredEvent)</text><polygon fill="#181818" points="1221.6,402.6785,1227.6,405.0785,1221.6,407.4785,1224,405.0785" style="stroke:#181818;stroke-width:0.6;"/><line style="stroke:#181818;stroke-width:0.6;" x1="1152.9" x2="1225.2" y1="405.0785" y2="405.0785"/><text fill="#000000" font-family="sans-serif" font-size="7.8" font-weight="bold" lengthAdjust="spacing" textLength="8.4" x="1157.1" y="401.9209">15</text><text fill="#000000" font-family="sans-serif" font-size="7.8" lengthAdjust="spacing" textLength="21.6" x="1167.9" y="401.9209">create</text><rect fill="#E2E2F0" height="30.7453" rx="1.5" ry="1.5" style="stroke:#181818;stroke-width:0.3;" width="64.8" x="1228.8" y="391.1039"/><text fill="#000000" font-family="sans-serif" font-size="8.4" font-style="italic" lengthAdjust="spacing" textLength="37.2" x="1242.6" y="404.3684">&#171;domain&#187;</text><text fill="#000000" font-family="sans-serif" font-size="8.4" lengthAdjust="spacing" textLength="56.4" x="1233" y="415.541">CandidateUser</text><polygon fill="#181818" points="1159.5,440.0238,1153.5,442.4238,1159.5,444.8238,1157.1,442.4238" style="stroke:#181818;stroke-width:0.6;"/><line style="stroke:#181818;stroke-width:0.6;stroke-dasharray:2.0,2.0;" x1="1155.9" x2="1260.6" y1="442.4238" y2="442.4238"/><text fill="#000000" font-family="sans-serif" font-size="7.8" font-weight="bold" lengthAdjust="spacing" textLength="8.4" x="1163.1" y="439.2662">16</text><text fill="#000000" font-family="sans-serif" font-size="7.8" lengthAdjust="spacing" textLength="49.8" x="1173.9" y="439.2662">candidateUser</text><polygon fill="#181818" points="1414.5,458.7984,1420.5,461.1984,1414.5,463.5984,1416.9,461.1984" style="stroke:#181818;stroke-width:0.6;"/><line style="stroke:#181818;stroke-width:0.6;" x1="1152.9" x2="1418.1" y1="461.1984" y2="461.1984"/><text fill="#000000" font-family="sans-serif" font-size="7.8" font-weight="bold" lengthAdjust="spacing" textLength="8.4" x="1157.1" y="458.0408">17</text><text fill="#000000" font-family="sans-serif" font-size="7.8" lengthAdjust="spacing" textLength="70.2" x="1167.9" y="458.0408">save(candidateUser)</text><polygon fill="#181818" points="351.3,495.573,345.3,497.973,351.3,500.373,348.9,497.973" style="stroke:#181818;stroke-width:0.6;"/><line style="stroke:#181818;stroke-width:0.6;stroke-dasharray:2.0,2.0;" x1="347.7" x2="651" y1="497.973" y2="497.973"/><text fill="#000000" font-family="sans-serif" font-size="7.8" font-weight="bold" lengthAdjust="spacing" textLength="8.4" x="354.9" y="494.8154">18</text><text fill="#000000" font-family="sans-serif" font-size="7.8" lengthAdjust="spacing" textLength="29.4" x="365.7" y="494.8154">success</text><polygon fill="#181818" points="166.5,514.3477,160.5,516.7477,166.5,519.1477,164.1,516.7477" style="stroke:#181818;stroke-width:0.6;"/><line style="stroke:#181818;stroke-width:0.6;stroke-dasharray:2.0,2.0;" x1="162.9" x2="341.1" y1="516.7477" y2="516.7477"/><text fill="#000000" font-family="sans-serif" font-size="7.8" font-weight="bold" lengthAdjust="spacing" textLength="8.4" x="170.1" y="513.59">19</text><text fill="#000000" font-family="sans-serif" font-size="7.8" lengthAdjust="spacing" textLength="29.4" x="180.9" y="513.59">success</text><polygon fill="#181818" points="28.5,533.1223,22.5,535.5223,28.5,537.9223,26.1,535.5223" style="stroke:#181818;stroke-width:0.6;"/><line style="stroke:#181818;stroke-width:0.6;stroke-dasharray:2.0,2.0;" x1="24.9" x2="153.3" y1="535.5223" y2="535.5223"/><text fill="#000000" font-family="sans-serif" font-size="7.8" font-weight="bold" lengthAdjust="spacing" textLength="8.4" x="32.1" y="532.3646">20</text><text fill="#000000" font-family="sans-serif" font-size="7.8" lengthAdjust="spacing" textLength="29.4" x="42.9" y="532.3646">success</text><!--SRC=[dLHTQzim57tNhxZqoIijX3sQKYX9O86b3Kcpm2WKrRwrnMB9a-I4xTVlId9isMswiJmOMpddt7E_n1khP5Eze6RC2hj7s6u-JoOJ3XlysQ3C46Q25vfNZF7CAWqN3pLgJcyNm0sXvsl6Qgwjo4JDfOMBDHR2MDHJBdEHSulRHO0kuEQcrcXGMcw5ahUtVo5EbRHQxVSOOaqVrrz98kjEnm9tZIsL5h-z-WRrGMJecNVRno_VYMh2sPZN1LnooGkio63CdYutvxdp0w5NpSjUcBBrELyHF5SL5szIlCTZNnPIV9Adf37tIa7Ws_p-yPyrUeKdkUCsAsUgy3AxsLcDkpplD1xaHwxUwS7pn_u6Ke7atixYtPzzuPy6ZTj-KFekpXfhPGHDv2yVR3siF_E3Amu4RAVLFU7wbWOoXICf6R0AT9inI3n2TfAEg0iYBXpDbU3oCeLCeqEmSExqI3Sb2pyCl2edbA4nd5m9IT-Ldqes32zvXLU0P7KF51FgKacy3_lOHqixTrtEISIyYccVUikEwkpvlI4flmKf04hJQD-TdR3b2dKbZ25l9g56euaKF8Eni3wT6N9Z6or1l88j4VQgA327nlMuf0QuCosAqaBTIxCSnwedMxHU_vlWSkFIenbnvOnbQA9TVacWrzoOezBvbQzt940SjWrqxoABHpUsx82dG67w-mb8NEOZYpru1IdKuNf8q6ru57w-Oem01DlDKb3Itm191DZD6ACjRYiVzkvjalBiXJ0V1UnLGldRJNRwZXXDTK_nfGWRV3qoShPSWJGEGOkPWk47J0R4s1z11Zhks_r6hOW-HuGemRO7tTYQ9dCBEO3xjlevR1VoFL2xHeCjF-46pjpjyWS0]--></g></svg>