<?xml version="1.0" encoding="us-ascii" standalone="no"?><svg xmlns="http://www.w3.org/2000/svg" xmlns:xlink="http://www.w3.org/1999/xlink" contentStyleType="text/css" height="1062px" preserveAspectRatio="none" style="width:1377px;height:1062px;background:#FFFFFF;" version="1.1" viewBox="0 0 1377 1062" width="1377px" zoomAndPan="magnify"><defs/><g><text fill="#000000" font-family="sans-serif" font-size="8.4" font-weight="bold" lengthAdjust="spacing" textLength="112.2" x="631.95" y="18.0645">US1011 Sequence Diagram</text><rect fill="#FFFFFF" height="921.8789" style="stroke:#181818;stroke-width:0.6;" width="6" x="38.1" y="79.9453"/><rect fill="#FFFFFF" height="907.9043" style="stroke:#181818;stroke-width:0.6;" width="6" x="222.9" y="93.9199"/><rect fill="#FFFFFF" height="205.7461" style="stroke:#181818;stroke-width:0.6;" width="6" x="431.7" y="150.0398"/><rect fill="#FFFFFF" height="205.7461" style="stroke:#181818;stroke-width:0.6;" width="6" x="431.7" y="430.8844"/><rect fill="#FFFFFF" height="290.0953" style="stroke:#181818;stroke-width:0.6;" width="6" x="431.7" y="692.9543"/><rect fill="#FFFFFF" height="206.7715" style="stroke:#181818;stroke-width:0.6;" width="6" x="434.7" y="753.3035"/><rect fill="#FFFFFF" height="18" style="stroke:#181818;stroke-width:0.6;" width="6" x="637.5" y="168.8145"/><rect fill="#FFFFFF" height="18" style="stroke:#181818;stroke-width:0.6;" width="6" x="637.5" y="449.659"/><rect fill="#FFFFFF" height="18" style="stroke:#181818;stroke-width:0.6;" width="6" x="637.5" y="711.7289"/><rect fill="#FFFFFF" height="131.4223" style="stroke:#181818;stroke-width:0.6;" width="6" x="729.3" y="486.4336"/><rect fill="#FFFFFF" height="56.3238" style="stroke:#181818;stroke-width:0.6;" width="6" x="851.1" y="542.7574"/><rect fill="#FFFFFF" height="131.4223" style="stroke:#181818;stroke-width:0.6;" width="6" x="932.1" y="205.5891"/><rect fill="#FFFFFF" height="56.3238" style="stroke:#181818;stroke-width:0.6;" width="6" x="1042.5" y="261.9129"/><rect fill="#FFFFFF" height="18.7746" style="stroke:#181818;stroke-width:0.6;" width="6" x="1107.6" y="561.532"/><rect fill="#FFFFFF" height="18.7746" style="stroke:#181818;stroke-width:0.6;" width="6" x="1172.7" y="280.6875"/><rect fill="#FFFFFF" height="18" style="stroke:#181818;stroke-width:0.6;" width="6" x="1172.7" y="882.9258"/><rect fill="#FFFFFF" height="18.7746" style="stroke:#181818;stroke-width:0.6;" width="6" x="1253.1" y="224.3637"/><rect fill="#FFFFFF" height="51.5238" style="stroke:#181818;stroke-width:0.6;" width="6" x="1253.1" y="775.0781"/><rect fill="#FFFFFF" height="18" style="stroke:#181818;stroke-width:0.6;" width="6" x="1253.1" y="919.7004"/><rect fill="#FFFFFF" height="18.7746" style="stroke:#181818;stroke-width:0.6;" width="6" x="1338.6" y="505.2082"/><rect fill="#FFFFFF" height="18.7746" style="stroke:#181818;stroke-width:0.6;" width="6" x="1338.6" y="845.3766"/><line style="stroke:#181818;stroke-width:0.3;stroke-dasharray:5.0,5.0;" x1="40.8" x2="40.8" y1="73.9453" y2="1012.6242"/><line style="stroke:#181818;stroke-width:0.3;stroke-dasharray:5.0,5.0;" x1="225.9" x2="225.9" y1="73.9453" y2="1012.6242"/><line style="stroke:#181818;stroke-width:0.3;stroke-dasharray:5.0,5.0;" x1="434.7" x2="434.7" y1="123.3926" y2="1012.6242"/><line style="stroke:#181818;stroke-width:0.3;stroke-dasharray:5.0,5.0;" x1="640.2" x2="640.2" y1="73.9453" y2="1012.6242"/><line style="stroke:#181818;stroke-width:0.3;stroke-dasharray:5.0,5.0;" x1="732" x2="732" y1="73.9453" y2="1012.6242"/><line style="stroke:#181818;stroke-width:0.3;stroke-dasharray:5.0,5.0;" x1="853.8" x2="853.8" y1="73.9453" y2="1012.6242"/><line style="stroke:#181818;stroke-width:0.3;stroke-dasharray:5.0,5.0;" x1="934.8" x2="934.8" y1="73.9453" y2="1012.6242"/><line style="stroke:#181818;stroke-width:0.3;stroke-dasharray:5.0,5.0;" x1="1045.5" x2="1045.5" y1="73.9453" y2="1012.6242"/><line style="stroke:#181818;stroke-width:0.3;stroke-dasharray:5.0,5.0;" x1="1110.3" x2="1110.3" y1="73.9453" y2="1012.6242"/><line style="stroke:#181818;stroke-width:0.3;stroke-dasharray:5.0,5.0;" x1="1175.7" x2="1175.7" y1="73.9453" y2="1012.6242"/><line style="stroke:#181818;stroke-width:0.3;stroke-dasharray:5.0,5.0;" x1="1256.1" x2="1256.1" y1="73.9453" y2="1012.6242"/><line style="stroke:#181818;stroke-width:0.3;stroke-dasharray:5.0,5.0;" x1="1341.3" x2="1341.3" y1="73.9453" y2="1012.6242"/><text fill="#000000" font-family="sans-serif" font-size="8.4" lengthAdjust="spacing" textLength="72.6" x="3" y="71.8371">Customer Manager</text><ellipse cx="41.1" cy="31.8727" fill="#E2E2F0" rx="4.8" ry="4.8" style="stroke:#181818;stroke-width:0.3;"/><path d="M41.1,36.6727 L41.1,52.8727 M33.3,41.4727 L48.9,41.4727 M41.1,52.8727 L33.3,61.8727 M41.1,52.8727 L48.9,61.8727 " fill="none" style="stroke:#181818;stroke-width:0.3;"/><text fill="#000000" font-family="sans-serif" font-size="8.4" lengthAdjust="spacing" textLength="72.6" x="3" y="1021.0887">Customer Manager</text><ellipse cx="41.1" cy="1028.2969" fill="#E2E2F0" rx="4.8" ry="4.8" style="stroke:#181818;stroke-width:0.3;"/><path d="M41.1,1033.0969 L41.1,1049.2969 M33.3,1037.8969 L48.9,1037.8969 M41.1,1049.2969 L33.3,1058.2969 M41.1,1049.2969 L48.9,1058.2969 " fill="none" style="stroke:#181818;stroke-width:0.3;"/><rect fill="#E2E2F0" height="30.7453" rx="1.5" ry="1.5" style="stroke:#181818;stroke-width:0.3;" width="94.8" x="178.5" y="42.6"/><text fill="#000000" font-family="sans-serif" font-size="8.4" font-style="italic" lengthAdjust="spacing" textLength="57" x="197.4" y="55.8645">&#171;presentation&#187;</text><text fill="#000000" font-family="sans-serif" font-size="8.4" lengthAdjust="spacing" textLength="86.4" x="182.7" y="67.0371">SelectInterviewModelUI</text><rect fill="#E2E2F0" height="30.7453" rx="1.5" ry="1.5" style="stroke:#181818;stroke-width:0.3;" width="94.8" x="178.5" y="1012.0242"/><text fill="#000000" font-family="sans-serif" font-size="8.4" font-style="italic" lengthAdjust="spacing" textLength="57" x="197.4" y="1025.2887">&#171;presentation&#187;</text><text fill="#000000" font-family="sans-serif" font-size="8.4" lengthAdjust="spacing" textLength="86.4" x="182.7" y="1036.4613">SelectInterviewModelUI</text><rect fill="#E2E2F0" height="30.7453" rx="1.5" ry="1.5" style="stroke:#181818;stroke-width:0.3;" width="124.8" x="372.3" y="1012.0242"/><text fill="#000000" font-family="sans-serif" font-size="8.4" font-style="italic" lengthAdjust="spacing" textLength="50.4" x="409.5" y="1025.2887">&#171;application&#187;</text><text fill="#000000" font-family="sans-serif" font-size="8.4" lengthAdjust="spacing" textLength="116.4" x="376.5" y="1036.4613">SelectInterviewModelController</text><rect fill="#E2E2F0" height="30.7453" rx="1.5" ry="1.5" style="stroke:#181818;stroke-width:0.3;" width="85.8" x="597.6" y="42.6"/><text fill="#000000" font-family="sans-serif" font-size="8.4" font-style="italic" lengthAdjust="spacing" textLength="36" x="622.5" y="55.8645">&#171;service&#187;</text><text fill="#000000" font-family="sans-serif" font-size="8.4" lengthAdjust="spacing" textLength="77.4" x="601.8" y="67.0371">AuthorizationService</text><rect fill="#E2E2F0" height="30.7453" rx="1.5" ry="1.5" style="stroke:#181818;stroke-width:0.3;" width="85.8" x="597.6" y="1012.0242"/><text fill="#000000" font-family="sans-serif" font-size="8.4" font-style="italic" lengthAdjust="spacing" textLength="36" x="622.5" y="1025.2887">&#171;service&#187;</text><text fill="#000000" font-family="sans-serif" font-size="8.4" lengthAdjust="spacing" textLength="77.4" x="601.8" y="1036.4613">AuthorizationService</text><rect fill="#E2E2F0" height="41.918" rx="1.5" ry="1.5" style="stroke:#181818;stroke-width:0.3;" width="85.8" x="689.4" y="31.4273"/><text fill="#000000" font-family="sans-serif" font-size="8.4" font-style="italic" lengthAdjust="spacing" textLength="36" x="714.3" y="44.6918">&#171;service&#187;</text><text fill="#000000" font-family="sans-serif" font-size="8.4" lengthAdjust="spacing" textLength="55.8" x="704.4" y="55.8645">InterviewModel</text><text fill="#000000" font-family="sans-serif" font-size="8.4" lengthAdjust="spacing" textLength="77.4" x="693.6" y="67.0371">ManagementService</text><rect fill="#E2E2F0" height="41.918" rx="1.5" ry="1.5" style="stroke:#181818;stroke-width:0.3;" width="85.8" x="689.4" y="1012.0242"/><text fill="#000000" font-family="sans-serif" font-size="8.4" font-style="italic" lengthAdjust="spacing" textLength="36" x="714.3" y="1025.2887">&#171;service&#187;</text><text fill="#000000" font-family="sans-serif" font-size="8.4" lengthAdjust="spacing" textLength="55.8" x="704.4" y="1036.4613">InterviewModel</text><text fill="#000000" font-family="sans-serif" font-size="8.4" lengthAdjust="spacing" textLength="77.4" x="693.6" y="1047.634">ManagementService</text><rect fill="#E2E2F0" height="41.918" rx="1.5" ry="1.5" style="stroke:#181818;stroke-width:0.3;" width="64.2" x="822" y="31.4273"/><text fill="#000000" font-family="sans-serif" font-size="8.4" font-style="italic" lengthAdjust="spacing" textLength="36" x="836.1" y="44.6918">&#171;service&#187;</text><text fill="#000000" font-family="sans-serif" font-size="8.4" lengthAdjust="spacing" textLength="55.8" x="826.2" y="55.8645">InterviewModel</text><text fill="#000000" font-family="sans-serif" font-size="8.4" lengthAdjust="spacing" textLength="41.4" x="833.4" y="67.0371">DtoService</text><rect fill="#E2E2F0" height="41.918" rx="1.5" ry="1.5" style="stroke:#181818;stroke-width:0.3;" width="64.2" x="822" y="1012.0242"/><text fill="#000000" font-family="sans-serif" font-size="8.4" font-style="italic" lengthAdjust="spacing" textLength="36" x="836.1" y="1025.2887">&#171;service&#187;</text><text fill="#000000" font-family="sans-serif" font-size="8.4" lengthAdjust="spacing" textLength="55.8" x="826.2" y="1036.4613">InterviewModel</text><text fill="#000000" font-family="sans-serif" font-size="8.4" lengthAdjust="spacing" textLength="41.4" x="833.4" y="1047.634">DtoService</text><rect fill="#E2E2F0" height="41.918" rx="1.5" ry="1.5" style="stroke:#181818;stroke-width:0.3;" width="85.8" x="892.2" y="31.4273"/><text fill="#000000" font-family="sans-serif" font-size="8.4" font-style="italic" lengthAdjust="spacing" textLength="36" x="917.1" y="44.6918">&#171;service&#187;</text><text fill="#000000" font-family="sans-serif" font-size="8.4" lengthAdjust="spacing" textLength="45.6" x="912.3" y="55.8645">JobOpening</text><text fill="#000000" font-family="sans-serif" font-size="8.4" lengthAdjust="spacing" textLength="77.4" x="896.4" y="67.0371">ManagementService</text><rect fill="#E2E2F0" height="41.918" rx="1.5" ry="1.5" style="stroke:#181818;stroke-width:0.3;" width="85.8" x="892.2" y="1012.0242"/><text fill="#000000" font-family="sans-serif" font-size="8.4" font-style="italic" lengthAdjust="spacing" textLength="36" x="917.1" y="1025.2887">&#171;service&#187;</text><text fill="#000000" font-family="sans-serif" font-size="8.4" lengthAdjust="spacing" textLength="45.6" x="912.3" y="1036.4613">JobOpening</text><text fill="#000000" font-family="sans-serif" font-size="8.4" lengthAdjust="spacing" textLength="77.4" x="896.4" y="1047.634">ManagementService</text><rect fill="#E2E2F0" height="41.918" rx="1.5" ry="1.5" style="stroke:#181818;stroke-width:0.3;" width="54" x="1018.5" y="31.4273"/><text fill="#000000" font-family="sans-serif" font-size="8.4" font-style="italic" lengthAdjust="spacing" textLength="36" x="1027.5" y="44.6918">&#171;service&#187;</text><text fill="#000000" font-family="sans-serif" font-size="8.4" lengthAdjust="spacing" textLength="45.6" x="1022.7" y="55.8645">JobOpening</text><text fill="#000000" font-family="sans-serif" font-size="8.4" lengthAdjust="spacing" textLength="41.4" x="1024.8" y="67.0371">DtoService</text><rect fill="#E2E2F0" height="41.918" rx="1.5" ry="1.5" style="stroke:#181818;stroke-width:0.3;" width="54" x="1018.5" y="1012.0242"/><text fill="#000000" font-family="sans-serif" font-size="8.4" font-style="italic" lengthAdjust="spacing" textLength="36" x="1027.5" y="1025.2887">&#171;service&#187;</text><text fill="#000000" font-family="sans-serif" font-size="8.4" lengthAdjust="spacing" textLength="45.6" x="1022.7" y="1036.4613">JobOpening</text><text fill="#000000" font-family="sans-serif" font-size="8.4" lengthAdjust="spacing" textLength="41.4" x="1024.8" y="1047.634">DtoService</text><rect fill="#E2E2F0" height="30.7453" rx="1.5" ry="1.5" style="stroke:#181818;stroke-width:0.3;" width="64.2" x="1078.5" y="42.6"/><text fill="#000000" font-family="sans-serif" font-size="8.4" font-style="italic" lengthAdjust="spacing" textLength="37.2" x="1092" y="55.8645">&#171;domain&#187;</text><text fill="#000000" font-family="sans-serif" font-size="8.4" lengthAdjust="spacing" textLength="55.8" x="1082.7" y="67.0371">InterviewModel</text><rect fill="#E2E2F0" height="30.7453" rx="1.5" ry="1.5" style="stroke:#181818;stroke-width:0.3;" width="64.2" x="1078.5" y="1012.0242"/><text fill="#000000" font-family="sans-serif" font-size="8.4" font-style="italic" lengthAdjust="spacing" textLength="37.2" x="1092" y="1025.2887">&#171;domain&#187;</text><text fill="#000000" font-family="sans-serif" font-size="8.4" lengthAdjust="spacing" textLength="55.8" x="1082.7" y="1036.4613">InterviewModel</text><rect fill="#E2E2F0" height="30.7453" rx="1.5" ry="1.5" style="stroke:#181818;stroke-width:0.3;" width="54" x="1148.7" y="42.6"/><text fill="#000000" font-family="sans-serif" font-size="8.4" font-style="italic" lengthAdjust="spacing" textLength="37.2" x="1157.1" y="55.8645">&#171;domain&#187;</text><text fill="#000000" font-family="sans-serif" font-size="8.4" lengthAdjust="spacing" textLength="45.6" x="1152.9" y="67.0371">JobOpening</text><rect fill="#E2E2F0" height="30.7453" rx="1.5" ry="1.5" style="stroke:#181818;stroke-width:0.3;" width="54" x="1148.7" y="1012.0242"/><text fill="#000000" font-family="sans-serif" font-size="8.4" font-style="italic" lengthAdjust="spacing" textLength="37.2" x="1157.1" y="1025.2887">&#171;domain&#187;</text><text fill="#000000" font-family="sans-serif" font-size="8.4" lengthAdjust="spacing" textLength="45.6" x="1152.9" y="1036.4613">JobOpening</text><rect fill="#E2E2F0" height="30.7453" rx="1.5" ry="1.5" style="stroke:#181818;stroke-width:0.3;" width="94.8" x="1208.7" y="42.6"/><text fill="#000000" font-family="sans-serif" font-size="8.4" font-style="italic" lengthAdjust="spacing" textLength="47.4" x="1232.4" y="55.8645">&#171;repository&#187;</text><text fill="#000000" font-family="sans-serif" font-size="8.4" lengthAdjust="spacing" textLength="86.4" x="1212.9" y="67.0371">JobOpeningRepository</text><rect fill="#E2E2F0" height="30.7453" rx="1.5" ry="1.5" style="stroke:#181818;stroke-width:0.3;" width="94.8" x="1208.7" y="1012.0242"/><text fill="#000000" font-family="sans-serif" font-size="8.4" font-style="italic" lengthAdjust="spacing" textLength="47.4" x="1232.4" y="1025.2887">&#171;repository&#187;</text><text fill="#000000" font-family="sans-serif" font-size="8.4" lengthAdjust="spacing" textLength="86.4" x="1212.9" y="1036.4613">JobOpeningRepository</text><rect fill="#E2E2F0" height="41.918" rx="1.5" ry="1.5" style="stroke:#181818;stroke-width:0.3;" width="64.2" x="1309.5" y="31.4273"/><text fill="#000000" font-family="sans-serif" font-size="8.4" font-style="italic" lengthAdjust="spacing" textLength="47.4" x="1317.9" y="44.6918">&#171;repository&#187;</text><text fill="#000000" font-family="sans-serif" font-size="8.4" lengthAdjust="spacing" textLength="55.8" x="1313.7" y="55.8645">InterviewModel</text><text fill="#000000" font-family="sans-serif" font-size="8.4" lengthAdjust="spacing" textLength="40.8" x="1321.2" y="67.0371">Repository</text><rect fill="#E2E2F0" height="41.918" rx="1.5" ry="1.5" style="stroke:#181818;stroke-width:0.3;" width="64.2" x="1309.5" y="1012.0242"/><text fill="#000000" font-family="sans-serif" font-size="8.4" font-style="italic" lengthAdjust="spacing" textLength="47.4" x="1317.9" y="1025.2887">&#171;repository&#187;</text><text fill="#000000" font-family="sans-serif" font-size="8.4" lengthAdjust="spacing" textLength="55.8" x="1313.7" y="1036.4613">InterviewModel</text><text fill="#000000" font-family="sans-serif" font-size="8.4" lengthAdjust="spacing" textLength="40.8" x="1321.2" y="1047.634">Repository</text><rect fill="#FFFFFF" height="921.8789" style="stroke:#181818;stroke-width:0.6;" width="6" x="38.1" y="79.9453"/><rect fill="#FFFFFF" height="907.9043" style="stroke:#181818;stroke-width:0.6;" width="6" x="222.9" y="93.9199"/><rect fill="#FFFFFF" height="205.7461" style="stroke:#181818;stroke-width:0.6;" width="6" x="431.7" y="150.0398"/><rect fill="#FFFFFF" height="205.7461" style="stroke:#181818;stroke-width:0.6;" width="6" x="431.7" y="430.8844"/><rect fill="#FFFFFF" height="290.0953" style="stroke:#181818;stroke-width:0.6;" width="6" x="431.7" y="692.9543"/><rect fill="#FFFFFF" height="206.7715" style="stroke:#181818;stroke-width:0.6;" width="6" x="434.7" y="753.3035"/><rect fill="#FFFFFF" height="18" style="stroke:#181818;stroke-width:0.6;" width="6" x="637.5" y="168.8145"/><rect fill="#FFFFFF" height="18" style="stroke:#181818;stroke-width:0.6;" width="6" x="637.5" y="449.659"/><rect fill="#FFFFFF" height="18" style="stroke:#181818;stroke-width:0.6;" width="6" x="637.5" y="711.7289"/><rect fill="#FFFFFF" height="131.4223" style="stroke:#181818;stroke-width:0.6;" width="6" x="729.3" y="486.4336"/><rect fill="#FFFFFF" height="56.3238" style="stroke:#181818;stroke-width:0.6;" width="6" x="851.1" y="542.7574"/><rect fill="#FFFFFF" height="131.4223" style="stroke:#181818;stroke-width:0.6;" width="6" x="932.1" y="205.5891"/><rect fill="#FFFFFF" height="56.3238" style="stroke:#181818;stroke-width:0.6;" width="6" x="1042.5" y="261.9129"/><rect fill="#FFFFFF" height="18.7746" style="stroke:#181818;stroke-width:0.6;" width="6" x="1107.6" y="561.532"/><rect fill="#FFFFFF" height="18.7746" style="stroke:#181818;stroke-width:0.6;" width="6" x="1172.7" y="280.6875"/><rect fill="#FFFFFF" height="18" style="stroke:#181818;stroke-width:0.6;" width="6" x="1172.7" y="882.9258"/><rect fill="#FFFFFF" height="18.7746" style="stroke:#181818;stroke-width:0.6;" width="6" x="1253.1" y="224.3637"/><rect fill="#FFFFFF" height="51.5238" style="stroke:#181818;stroke-width:0.6;" width="6" x="1253.1" y="775.0781"/><rect fill="#FFFFFF" height="18" style="stroke:#181818;stroke-width:0.6;" width="6" x="1253.1" y="919.7004"/><rect fill="#FFFFFF" height="18.7746" style="stroke:#181818;stroke-width:0.6;" width="6" x="1338.6" y="505.2082"/><rect fill="#FFFFFF" height="18.7746" style="stroke:#181818;stroke-width:0.6;" width="6" x="1338.6" y="845.3766"/><polygon fill="#181818" points="215.7,91.5199,221.7,93.9199,215.7,96.3199,218.1,93.9199" style="stroke:#181818;stroke-width:0.6;"/><line style="stroke:#181818;stroke-width:0.6;" x1="44.1" x2="219.3" y1="93.9199" y2="93.9199"/><text fill="#000000" font-family="sans-serif" font-size="7.8" lengthAdjust="spacing" textLength="167.4" x="48.3" y="90.7623">wants to select interview model for a job opening</text><polygon fill="#181818" points="365.1,110.2945,371.1,112.6945,365.1,115.0945,367.5,112.6945" style="stroke:#181818;stroke-width:0.6;"/><line style="stroke:#181818;stroke-width:0.6;" x1="228.9" x2="368.7" y1="112.6945" y2="112.6945"/><text fill="#000000" font-family="sans-serif" font-size="7.8" lengthAdjust="spacing" textLength="21.6" x="233.1" y="109.5369">create</text><rect fill="#E2E2F0" height="30.7453" rx="1.5" ry="1.5" style="stroke:#181818;stroke-width:0.3;" width="124.8" x="372.3" y="98.7199"/><text fill="#000000" font-family="sans-serif" font-size="8.4" font-style="italic" lengthAdjust="spacing" textLength="50.4" x="409.5" y="111.9844">&#171;application&#187;</text><text fill="#000000" font-family="sans-serif" font-size="8.4" lengthAdjust="spacing" textLength="116.4" x="376.5" y="123.157">SelectInterviewModelController</text><polygon fill="#181818" points="424.5,147.6398,430.5,150.0398,424.5,152.4398,426.9,150.0398" style="stroke:#181818;stroke-width:0.6;"/><line style="stroke:#181818;stroke-width:0.6;" x1="228.9" x2="428.1" y1="150.0398" y2="150.0398"/><text fill="#000000" font-family="sans-serif" font-size="7.8" lengthAdjust="spacing" textLength="69.6" x="233.1" y="146.8822">activeJobOpenings()</text><polygon fill="#181818" points="630.3,166.4145,636.3,168.8145,630.3,171.2145,632.7,168.8145" style="stroke:#181818;stroke-width:0.6;"/><line style="stroke:#181818;stroke-width:0.6;" x1="437.7" x2="633.9" y1="168.8145" y2="168.8145"/><text fill="#000000" font-family="sans-serif" font-size="7.8" lengthAdjust="spacing" textLength="144.6" x="441.9" y="165.6568">ensureAuthenticatedUserHasAnyOf(roles)</text><polygon fill="#181818" points="924.9,203.1891,930.9,205.5891,924.9,207.9891,927.3,205.5891" style="stroke:#181818;stroke-width:0.6;"/><line style="stroke:#181818;stroke-width:0.6;" x1="437.7" x2="928.5" y1="205.5891" y2="205.5891"/><text fill="#000000" font-family="sans-serif" font-size="7.8" lengthAdjust="spacing" textLength="69.6" x="441.9" y="202.4314">activeJobOpenings()</text><polygon fill="#181818" points="1245.9,221.9637,1251.9,224.3637,1245.9,226.7637,1248.3,224.3637" style="stroke:#181818;stroke-width:0.6;"/><line style="stroke:#181818;stroke-width:0.6;" x1="938.1" x2="1249.5" y1="224.3637" y2="224.3637"/><text fill="#000000" font-family="sans-serif" font-size="7.8" lengthAdjust="spacing" textLength="69.6" x="942.3" y="221.2061">activeJobOpenings()</text><polygon fill="#181818" points="944.7,240.7383,938.7,243.1383,944.7,245.5383,942.3,243.1383" style="stroke:#181818;stroke-width:0.6;"/><line style="stroke:#181818;stroke-width:0.6;stroke-dasharray:2.0,2.0;" x1="941.1" x2="1255.5" y1="243.1383" y2="243.1383"/><text fill="#000000" font-family="sans-serif" font-size="7.8" lengthAdjust="spacing" textLength="43.2" x="948.3" y="239.9807">jobOpenings</text><polygon fill="#181818" points="1035.3,259.5129,1041.3,261.9129,1035.3,264.3129,1037.7,261.9129" style="stroke:#181818;stroke-width:0.6;"/><line style="stroke:#181818;stroke-width:0.6;" x1="938.1" x2="1038.9" y1="261.9129" y2="261.9129"/><text fill="#000000" font-family="sans-serif" font-size="7.8" lengthAdjust="spacing" textLength="93" x="942.3" y="258.7553">convertToDto(jobOpenings)</text><polygon fill="#181818" points="1165.5,278.2875,1171.5,280.6875,1165.5,283.0875,1167.9,280.6875" style="stroke:#181818;stroke-width:0.6;"/><line style="stroke:#181818;stroke-width:0.6;" x1="1048.5" x2="1169.1" y1="280.6875" y2="280.6875"/><text fill="#000000" font-family="sans-serif" font-size="7.8" lengthAdjust="spacing" textLength="23.4" x="1052.7" y="277.5299">toDto()</text><polygon fill="#181818" points="1055.1,297.0621,1049.1,299.4621,1055.1,301.8621,1052.7,299.4621" style="stroke:#181818;stroke-width:0.6;"/><line style="stroke:#181818;stroke-width:0.6;stroke-dasharray:2.0,2.0;" x1="1051.5" x2="1175.1" y1="299.4621" y2="299.4621"/><text fill="#000000" font-family="sans-serif" font-size="7.8" lengthAdjust="spacing" textLength="51" x="1058.7" y="296.3045">jobOpeningDto</text><polygon fill="#181818" points="944.7,315.8367,938.7,318.2367,944.7,320.6367,942.3,318.2367" style="stroke:#181818;stroke-width:0.6;"/><line style="stroke:#181818;stroke-width:0.6;stroke-dasharray:2.0,2.0;" x1="941.1" x2="1044.9" y1="318.2367" y2="318.2367"/><text fill="#000000" font-family="sans-serif" font-size="7.8" lengthAdjust="spacing" textLength="55.2" x="948.3" y="315.0791">jobOpeningDtos</text><polygon fill="#181818" points="444.3,334.6113,438.3,337.0113,444.3,339.4113,441.9,337.0113" style="stroke:#181818;stroke-width:0.6;"/><line style="stroke:#181818;stroke-width:0.6;stroke-dasharray:2.0,2.0;" x1="440.7" x2="934.5" y1="337.0113" y2="337.0113"/><text fill="#000000" font-family="sans-serif" font-size="7.8" lengthAdjust="spacing" textLength="55.2" x="447.9" y="333.8537">jobOpeningDtos</text><polygon fill="#181818" points="235.5,353.3859,229.5,355.7859,235.5,358.1859,233.1,355.7859" style="stroke:#181818;stroke-width:0.6;"/><line style="stroke:#181818;stroke-width:0.6;stroke-dasharray:2.0,2.0;" x1="231.9" x2="434.1" y1="355.7859" y2="355.7859"/><text fill="#000000" font-family="sans-serif" font-size="7.8" lengthAdjust="spacing" textLength="55.2" x="239.1" y="352.6283">jobOpeningDtos</text><polygon fill="#181818" points="50.7,372.1605,44.7,374.5605,50.7,376.9605,48.3,374.5605" style="stroke:#181818;stroke-width:0.6;"/><line style="stroke:#181818;stroke-width:0.6;stroke-dasharray:2.0,2.0;" x1="47.1" x2="222.3" y1="374.5605" y2="374.5605"/><text fill="#000000" font-family="sans-serif" font-size="7.8" lengthAdjust="spacing" textLength="90.6" x="54.3" y="371.4029">shows active job openings</text><polygon fill="#181818" points="215.7,390.9352,221.7,393.3352,215.7,395.7352,218.1,393.3352" style="stroke:#181818;stroke-width:0.6;"/><line style="stroke:#181818;stroke-width:0.6;" x1="44.1" x2="219.3" y1="393.3352" y2="393.3352"/><text fill="#000000" font-family="sans-serif" font-size="7.8" lengthAdjust="spacing" textLength="67.2" x="48.3" y="390.1775">selects job opening</text><polygon fill="#181818" points="50.7,409.7098,44.7,412.1098,50.7,414.5098,48.3,412.1098" style="stroke:#181818;stroke-width:0.6;"/><line style="stroke:#181818;stroke-width:0.6;stroke-dasharray:2.0,2.0;" x1="47.1" x2="222.3" y1="412.1098" y2="412.1098"/><text fill="#000000" font-family="sans-serif" font-size="7.8" lengthAdjust="spacing" textLength="94.8" x="54.3" y="408.9521">shows the interview models</text><polygon fill="#181818" points="424.5,428.4844,430.5,430.8844,424.5,433.2844,426.9,430.8844" style="stroke:#181818;stroke-width:0.6;"/><line style="stroke:#181818;stroke-width:0.6;" x1="228.9" x2="428.1" y1="430.8844" y2="430.8844"/><text fill="#000000" font-family="sans-serif" font-size="7.8" lengthAdjust="spacing" textLength="88.8" x="233.1" y="427.7268">availableInterviewModels()</text><polygon fill="#181818" points="630.3,447.259,636.3,449.659,630.3,452.059,632.7,449.659" style="stroke:#181818;stroke-width:0.6;"/><line style="stroke:#181818;stroke-width:0.6;" x1="437.7" x2="633.9" y1="449.659" y2="449.659"/><text fill="#000000" font-family="sans-serif" font-size="7.8" lengthAdjust="spacing" textLength="144.6" x="441.9" y="446.5014">ensureAuthenticatedUserHasAnyOf(roles)</text><polygon fill="#181818" points="722.1,484.0336,728.1,486.4336,722.1,488.8336,724.5,486.4336" style="stroke:#181818;stroke-width:0.6;"/><line style="stroke:#181818;stroke-width:0.6;" x1="437.7" x2="725.7" y1="486.4336" y2="486.4336"/><text fill="#000000" font-family="sans-serif" font-size="7.8" lengthAdjust="spacing" textLength="88.8" x="441.9" y="483.276">availableInterviewModels()</text><polygon fill="#181818" points="1331.4,502.8082,1337.4,505.2082,1331.4,507.6082,1333.8,505.2082" style="stroke:#181818;stroke-width:0.6;"/><line style="stroke:#181818;stroke-width:0.6;" x1="735.3" x2="1335" y1="505.2082" y2="505.2082"/><text fill="#000000" font-family="sans-serif" font-size="7.8" lengthAdjust="spacing" textLength="88.8" x="739.5" y="502.0506">availableInterviewModels()</text><polygon fill="#181818" points="741.9,521.5828,735.9,523.9828,741.9,526.3828,739.5,523.9828" style="stroke:#181818;stroke-width:0.6;"/><line style="stroke:#181818;stroke-width:0.6;stroke-dasharray:2.0,2.0;" x1="738.3" x2="1341" y1="523.9828" y2="523.9828"/><text fill="#000000" font-family="sans-serif" font-size="7.8" lengthAdjust="spacing" textLength="54.6" x="745.5" y="520.8252">interviewModels</text><polygon fill="#181818" points="843.9,540.3574,849.9,542.7574,843.9,545.1574,846.3,542.7574" style="stroke:#181818;stroke-width:0.6;"/><line style="stroke:#181818;stroke-width:0.6;" x1="735.3" x2="847.5" y1="542.7574" y2="542.7574"/><text fill="#000000" font-family="sans-serif" font-size="7.8" lengthAdjust="spacing" textLength="104.4" x="739.5" y="539.5998">convertToDto(interviewModels)</text><polygon fill="#181818" points="1100.4,559.132,1106.4,561.532,1100.4,563.932,1102.8,561.532" style="stroke:#181818;stroke-width:0.6;"/><line style="stroke:#181818;stroke-width:0.6;" x1="857.1" x2="1104" y1="561.532" y2="561.532"/><text fill="#000000" font-family="sans-serif" font-size="7.8" lengthAdjust="spacing" textLength="23.4" x="861.3" y="558.3744">toDto()</text><polygon fill="#181818" points="863.7,577.9066,857.7,580.3066,863.7,582.7066,861.3,580.3066" style="stroke:#181818;stroke-width:0.6;"/><line style="stroke:#181818;stroke-width:0.6;stroke-dasharray:2.0,2.0;" x1="860.1" x2="1110" y1="580.3066" y2="580.3066"/><text fill="#000000" font-family="sans-serif" font-size="7.8" lengthAdjust="spacing" textLength="70.2" x="867.3" y="577.149">interviewModelsDTO</text><polygon fill="#181818" points="741.9,596.6813,735.9,599.0813,741.9,601.4812,739.5,599.0813" style="stroke:#181818;stroke-width:0.6;"/><line style="stroke:#181818;stroke-width:0.6;stroke-dasharray:2.0,2.0;" x1="738.3" x2="853.5" y1="599.0813" y2="599.0813"/><text fill="#000000" font-family="sans-serif" font-size="7.8" lengthAdjust="spacing" textLength="54.6" x="745.5" y="595.9236">interviewModels</text><polygon fill="#181818" points="444.3,615.4559,438.3,617.8559,444.3,620.2559,441.9,617.8559" style="stroke:#181818;stroke-width:0.6;"/><line style="stroke:#181818;stroke-width:0.6;stroke-dasharray:2.0,2.0;" x1="440.7" x2="731.7" y1="617.8559" y2="617.8559"/><text fill="#000000" font-family="sans-serif" font-size="7.8" lengthAdjust="spacing" textLength="70.8" x="447.9" y="614.6982">interviewModelsDtos</text><polygon fill="#181818" points="235.5,634.2305,229.5,636.6305,235.5,639.0305,233.1,636.6305" style="stroke:#181818;stroke-width:0.6;"/><line style="stroke:#181818;stroke-width:0.6;stroke-dasharray:2.0,2.0;" x1="231.9" x2="434.1" y1="636.6305" y2="636.6305"/><text fill="#000000" font-family="sans-serif" font-size="7.8" lengthAdjust="spacing" textLength="70.8" x="239.1" y="633.4729">interviewModelsDtos</text><polygon fill="#181818" points="50.7,653.0051,44.7,655.4051,50.7,657.8051,48.3,655.4051" style="stroke:#181818;stroke-width:0.6;"/><line style="stroke:#181818;stroke-width:0.6;" x1="47.1" x2="222.3" y1="655.4051" y2="655.4051"/><text fill="#000000" font-family="sans-serif" font-size="7.8" lengthAdjust="spacing" textLength="113.4" x="54.3" y="652.2475">shows available Interview Models</text><polygon fill="#181818" points="215.7,671.7797,221.7,674.1797,215.7,676.5797,218.1,674.1797" style="stroke:#181818;stroke-width:0.6;"/><line style="stroke:#181818;stroke-width:0.6;" x1="44.1" x2="219.3" y1="674.1797" y2="674.1797"/><text fill="#000000" font-family="sans-serif" font-size="7.8" lengthAdjust="spacing" textLength="91.2" x="48.3" y="671.0221">selects an interview model</text><polygon fill="#181818" points="424.5,690.5543,430.5,692.9543,424.5,695.3543,426.9,692.9543" style="stroke:#181818;stroke-width:0.6;"/><line style="stroke:#181818;stroke-width:0.6;" x1="228.9" x2="428.1" y1="692.9543" y2="692.9543"/><text fill="#000000" font-family="sans-serif" font-size="7.8" lengthAdjust="spacing" textLength="191.4" x="233.1" y="689.7967">updateJobOpening(jobOpeningDto, insterviewModelDto)</text><polygon fill="#181818" points="630.3,709.3289,636.3,711.7289,630.3,714.1289,632.7,711.7289" style="stroke:#181818;stroke-width:0.6;"/><line style="stroke:#181818;stroke-width:0.6;" x1="437.7" x2="633.9" y1="711.7289" y2="711.7289"/><text fill="#000000" font-family="sans-serif" font-size="7.8" lengthAdjust="spacing" textLength="144.6" x="441.9" y="708.5713">ensureAuthenticatedUserHasAnyOf(roles)</text><line style="stroke:#181818;stroke-width:0.6;" x1="437.7" x2="465.9" y1="745.5035" y2="745.5035"/><line style="stroke:#181818;stroke-width:0.6;" x1="465.9" x2="465.9" y1="745.5035" y2="753.3035"/><line style="stroke:#181818;stroke-width:0.6;" x1="441.3" x2="465.9" y1="753.3035" y2="753.3035"/><polygon fill="#181818" points="447.3,750.9035,441.3,753.3035,447.3,755.7035,444.9,753.3035" style="stroke:#181818;stroke-width:0.6;"/><text fill="#000000" font-family="sans-serif" font-size="7.8" lengthAdjust="spacing" textLength="191.4" x="444.9" y="742.3459">updateJobOpening(jobOpeningDto, insterviewModelDto)</text><polygon fill="#181818" points="1245.9,772.6781,1251.9,775.0781,1245.9,777.4781,1248.3,775.0781" style="stroke:#181818;stroke-width:0.6;"/><line style="stroke:#181818;stroke-width:0.6;" x1="440.7" x2="1249.5" y1="775.0781" y2="775.0781"/><text fill="#000000" font-family="sans-serif" font-size="7.8" lengthAdjust="spacing" textLength="81" x="444.9" y="771.9205">ofIdentity(jobReference)</text><path d="M443.4,782.8781 L443.4,809.2781 L682.2,809.2781 L682.2,788.8781 L676.2,782.8781 L443.4,782.8781 " fill="#FEFFDD" style="stroke:#181818;stroke-width:0.3;"/><path d="M676.2,782.8781 L676.2,788.8781 L682.2,788.8781 L676.2,782.8781 " fill="#FEFFDD" style="stroke:#181818;stroke-width:0.3;"/><text fill="#000000" font-family="sans-serif" font-size="7.8" lengthAdjust="spacing" textLength="226.2" x="447" y="794.2951">The jobReference comes from the Dto instance. ofIdentity obtains</text><text fill="#000000" font-family="sans-serif" font-size="7.8" lengthAdjust="spacing" textLength="86.4" x="447" y="804.6697">the jobOpening instance.</text><polygon fill="#181818" points="447.3,824.202,441.3,826.602,447.3,829.002,444.9,826.602" style="stroke:#181818;stroke-width:0.6;"/><line style="stroke:#181818;stroke-width:0.6;stroke-dasharray:2.0,2.0;" x1="443.7" x2="1255.5" y1="826.602" y2="826.602"/><text fill="#000000" font-family="sans-serif" font-size="7.8" lengthAdjust="spacing" textLength="39" x="450.9" y="823.4443">jobOpening</text><polygon fill="#181818" points="1331.4,842.9766,1337.4,845.3766,1331.4,847.7766,1333.8,845.3766" style="stroke:#181818;stroke-width:0.6;"/><line style="stroke:#181818;stroke-width:0.6;" x1="440.7" x2="1335" y1="845.3766" y2="845.3766"/><text fill="#000000" font-family="sans-serif" font-size="7.8" lengthAdjust="spacing" textLength="86.4" x="444.9" y="842.2189">ofIdentity(interviewModel)</text><polygon fill="#181818" points="447.3,861.7512,441.3,864.1512,447.3,866.5512,444.9,864.1512" style="stroke:#181818;stroke-width:0.6;"/><line style="stroke:#181818;stroke-width:0.6;stroke-dasharray:2.0,2.0;" x1="443.7" x2="1341" y1="864.1512" y2="864.1512"/><text fill="#000000" font-family="sans-serif" font-size="7.8" lengthAdjust="spacing" textLength="50.4" x="450.9" y="860.9936">interviewModel</text><polygon fill="#181818" points="1165.5,880.5258,1171.5,882.9258,1165.5,885.3258,1167.9,882.9258" style="stroke:#181818;stroke-width:0.6;"/><line style="stroke:#181818;stroke-width:0.6;" x1="440.7" x2="1169.1" y1="882.9258" y2="882.9258"/><text fill="#000000" font-family="sans-serif" font-size="7.8" lengthAdjust="spacing" textLength="119.4" x="444.9" y="879.7682">updateJobOpening(interviewModel)</text><polygon fill="#181818" points="1245.9,917.3004,1251.9,919.7004,1245.9,922.1004,1248.3,919.7004" style="stroke:#181818;stroke-width:0.6;"/><line style="stroke:#181818;stroke-width:0.6;" x1="440.7" x2="1249.5" y1="919.7004" y2="919.7004"/><text fill="#000000" font-family="sans-serif" font-size="7.8" lengthAdjust="spacing" textLength="59.4" x="444.9" y="916.5428">save(jobOpening)</text><line style="stroke:#181818;stroke-width:0.6;stroke-dasharray:2.0,2.0;" x1="440.7" x2="465.9" y1="959.475" y2="959.475"/><line style="stroke:#181818;stroke-width:0.6;stroke-dasharray:2.0,2.0;" x1="465.9" x2="465.9" y1="959.475" y2="967.275"/><line style="stroke:#181818;stroke-width:0.6;stroke-dasharray:2.0,2.0;" x1="437.7" x2="465.9" y1="967.275" y2="967.275"/><polygon fill="#181818" points="443.7,964.875,437.7,967.275,443.7,969.675,441.3,967.275" style="stroke:#181818;stroke-width:0.6;"/><text fill="#000000" font-family="sans-serif" font-size="7.8" lengthAdjust="spacing" textLength="39" x="444.9" y="956.3174">jobOpening</text><polygon fill="#181818" points="235.5,980.6496,229.5,983.0496,235.5,985.4496,233.1,983.0496" style="stroke:#181818;stroke-width:0.6;"/><line style="stroke:#181818;stroke-width:0.6;stroke-dasharray:2.0,2.0;" x1="231.9" x2="434.1" y1="983.0496" y2="983.0496"/><text fill="#000000" font-family="sans-serif" font-size="7.8" lengthAdjust="spacing" textLength="29.4" x="239.1" y="979.892">success</text><polygon fill="#181818" points="47.7,999.4242,41.7,1001.8242,47.7,1004.2242,45.3,1001.8242" style="stroke:#181818;stroke-width:0.6;"/><line style="stroke:#181818;stroke-width:0.6;stroke-dasharray:2.0,2.0;" x1="44.1" x2="225.3" y1="1001.8242" y2="1001.8242"/><text fill="#000000" font-family="sans-serif" font-size="7.8" lengthAdjust="spacing" textLength="60.6" x="51.3" y="998.6666">displays success</text><!--SRC=[lLPDRzim3BtxLmWzPSKwhDUWA52q0-fYGOPyt0OCYiqaAXp9avGKsQyVATcnf3br3jik1YppFJwAJvIji1MmvVpsy-qjcyFFFSW2s9FW6yrtMSOBgpIxUjmRgtQWsOHBlW5znRX1q9TPbjLSMr68calBhkPGGM5pQK4V1BnDL0dLClVHERkxgpKOa9PReUJz_J3sKKchLLKr6HyNiw_8mkkw4aKloSFURfKMlzp7EJ4LuA0FoyKpGerVIc5nrk_Ibxb3gI57FfdCB-TuiYe6FoscpS9vaXUrcjOWXToS4_4oVKz4Y4y44F07QhYqWaOrXfTgnuKydwgXlo1o1hKo0YrrR32pBzy8fq_hGxkQCEIJFWRdMt7W5XgJqfFTtAC9n-mDUGspYXbdE2RQ36n7ATWQ3S_PgrenvKK7P3bIvKH4Jho-7hD20tu8LyVCXKDNj1bzw2We1FKv9oE2R3bc3AJPQo3pOhV9sb0kiKdFt3p8utGzmZC09c0XM5P2_DwIKgC7L518bZaheGZVXa481H78xVYDmr6Yrou-bDJ5jqcy_N3Fb3o0jWk51Xq5w4GV1MSUxsphECROE895iHHq4kHpTBGO7SkAE7kgG41IIAl5btBgy_kGjXsDwyu7UqUGWIWKZJfcPglUJDEEq8acTh8ti8cysaU4hafTRXBB7hYe-Ag2-BZrEFTV6fVcwsLQA3BBt3n6BNu8N8hqjcm6nus3KreHOqAH7QRDrutonCu9IvIu0sN45Lm7ZhF7slc40XkHOSua3RapqfloNrPbAD3NUZ98cZ3niEz7PFW1HEVwnFHj3zcfYQpHscTzBbDdnyRUroLcwqRQA3g77n5iGfcuzdzdzT-JsHAsmrojyv84sYEHpM0DcdxjUYQwLFYYnMPhFTLYwuRE2O8Etu5XQwrsRfHWTYU8uxTFGHwcLXPlVvDPJz0KqCLc84j6sQ9R91scVPT8MrnxqeFYOf_rdFJehFUvkU-eTxlPqvopAL-cwLMJTiNm0mJD_RCRPuiVsAdG1EqPsHS5cA6xfXIchlZHz8NZ_qxuHhzIlm40]--></g></svg>