<?xml version="1.0" encoding="us-ascii" standalone="no"?><svg xmlns="http://www.w3.org/2000/svg" xmlns:xlink="http://www.w3.org/1999/xlink" contentStyleType="text/css" height="299px" preserveAspectRatio="none" style="width:1003px;height:299px;background:#FFFFFF;" version="1.1" viewBox="0 0 1003 299" width="1003px" zoomAndPan="magnify"><defs/><g><!--cluster <<aggregate>> Interview Model--><g id="cluster_&lt;&lt;aggregate&gt;&gt; Interview Model"><path d="M8.5,6.0137 L215.5,6.0137 A3.75,3.75 0 0 1 218,8.5137 L225,30.6348 L428.5,30.6348 A2.5,2.5 0 0 1 431,33.1348 L431,289.5137 A2.5,2.5 0 0 1 428.5,292.0137 L8.5,292.0137 A2.5,2.5 0 0 1 6,289.5137 L6,8.5137 A2.5,2.5 0 0 1 8.5,6.0137 " fill="none" style="stroke:#000000;stroke-width:1.5;"/><line style="stroke:#000000;stroke-width:1.5;" x1="6" x2="225" y1="30.6348" y2="30.6348"/><text fill="#000000" font-family="sans-serif" font-size="14" font-weight="bold" lengthAdjust="spacing" textLength="206" x="10" y="23.1211">&#171;aggregate&#187; Interview Model</text></g><!--cluster <<aggregate>> Requirement Specification--><g id="cluster_&lt;&lt;aggregate&gt;&gt; Requirement Specification"><path d="M597.5,6.0137 L876.5,6.0137 A3.75,3.75 0 0 1 879,8.5137 L886,30.6348 L993.5,30.6348 A2.5,2.5 0 0 1 996,33.1348 L996,289.5137 A2.5,2.5 0 0 1 993.5,292.0137 L597.5,292.0137 A2.5,2.5 0 0 1 595,289.5137 L595,8.5137 A2.5,2.5 0 0 1 597.5,6.0137 " fill="none" style="stroke:#000000;stroke-width:1.5;"/><line style="stroke:#000000;stroke-width:1.5;" x1="595" x2="886" y1="30.6348" y2="30.6348"/><text fill="#000000" font-family="sans-serif" font-size="14" font-weight="bold" lengthAdjust="spacing" textLength="278" x="599" y="23.1211">&#171;aggregate&#187; Requirement Specification</text></g><!--class InterviewModel--><g id="elem_InterviewModel"><rect codeLine="6" fill="#F1F1F1" height="76.543" id="InterviewModel" rx="2.5" ry="2.5" style="stroke:#181818;stroke-width:0.5;" width="125" x="254.5" y="43.0137"/><ellipse cx="269.5" cy="73.2852" fill="#ADD1B2" rx="11" ry="11" style="stroke:#181818;stroke-width:1.0;"/><path d="M268.3594,74.082 L268.3594,76.582 L272.6875,76.582 L272.6875,75.6602 Q272.6875,75.0508 272.9219,74.7852 Q273.1719,74.5195 273.5469,74.5195 Q273.9219,74.5195 274.1563,74.7852 Q274.3906,75.0508 274.3906,75.6602 L274.3906,78.2852 L266.3906,78.2852 Q265.7656,78.2852 265.5,78.0508 Q265.25,77.8164 265.25,77.4258 Q265.25,77.0508 265.5156,76.8164 Q265.7813,76.582 266.3906,76.582 L266.6563,76.582 L266.6563,69.9258 L266.3906,69.9258 Q265.7656,69.9258 265.5,69.6914 Q265.25,69.457 265.25,69.0664 Q265.25,68.6914 265.5,68.457 Q265.7656,68.2227 266.3906,68.2227 L274.0156,68.2227 L274.0156,70.8164 Q274.0156,71.4258 273.7813,71.6914 Q273.5625,71.9414 273.1719,71.9414 Q272.7969,71.9414 272.5625,71.6914 Q272.3281,71.4258 272.3281,70.8164 L272.3281,69.9258 L268.3594,69.9258 L268.3594,72.3789 L269.8438,72.3789 Q269.8438,71.7227 269.9688,71.5352 Q270.2344,71.1289 270.7031,71.1289 Q271.0781,71.1289 271.3125,71.3945 Q271.5469,71.6445 271.5469,72.2539 L271.5469,74.2227 Q271.5469,74.7695 271.4219,74.957 Q271.1563,75.3477 270.7031,75.3477 Q270.2344,75.3477 269.9688,74.9414 Q269.8438,74.7539 269.8438,74.082 L268.3594,74.082 Z " fill="#000000"/><text fill="#000000" font-family="sans-serif" font-size="12" font-style="italic" lengthAdjust="spacing" textLength="43" x="308.5" y="60.9629">&#171;entity&#187;</text><text fill="#000000" font-family="sans-serif" font-size="12" font-style="italic" lengthAdjust="spacing" textLength="35" x="312.5" y="76.9238">&#171;root&#187;</text><text fill="#000000" font-family="sans-serif" font-size="14" lengthAdjust="spacing" textLength="93" x="283.5" y="95.043">InterviewModel</text><line style="stroke:#181818;stroke-width:0.5;" x1="255.5" x2="378.5" y1="103.5566" y2="103.5566"/><line style="stroke:#181818;stroke-width:0.5;" x1="255.5" x2="378.5" y1="111.5566" y2="111.5566"/></g><!--class InterviewModelName--><g id="elem_InterviewModelName"><rect codeLine="7" fill="#F1F1F1" height="76.543" id="InterviewModelName" rx="2.5" ry="2.5" style="stroke:#181818;stroke-width:0.5;" width="161" x="22.5" y="199.0137"/><ellipse cx="37.5" cy="229.2852" fill="#FF8B40" rx="11" ry="11" style="stroke:#181818;stroke-width:1.0;"/><path d="M38.0938,232.5508 L40.5625,226.6758 L40.1719,226.6758 Q39.5625,226.6758 39.2969,226.4414 Q39.0313,226.207 39.0313,225.8164 Q39.0313,225.4414 39.2969,225.207 Q39.5625,224.9727 40.1719,224.9727 L42.4531,224.9727 Q43.0625,224.9727 43.3281,225.207 Q43.5938,225.4414 43.5938,225.8164 Q43.5938,226.2852 43.1875,226.5508 Q43,226.6758 42.4063,226.6758 L38.9219,235.0352 L37.2813,235.0352 L33.7969,226.6758 Q33.2031,226.6758 33.0156,226.5508 Q32.6094,226.2852 32.6094,225.8164 Q32.6094,225.4414 32.875,225.207 Q33.1406,224.9727 33.75,224.9727 L36.0469,224.9727 Q36.6563,224.9727 36.9063,225.207 Q37.1719,225.4414 37.1719,225.8164 Q37.1719,226.207 36.9063,226.4414 Q36.6563,226.6758 36.0469,226.6758 L35.6406,226.6758 L38.0938,232.5508 Z " fill="#000000"/><text fill="#000000" font-family="sans-serif" font-size="12" font-style="italic" lengthAdjust="spacing" textLength="81" x="75.5" y="216.9629">&#171;value object&#187;</text><text fill="#000000" font-family="sans-serif" font-size="12" font-style="italic" lengthAdjust="spacing" textLength="61" x="85.5" y="232.9238">&#171;identifier&#187;</text><text fill="#000000" font-family="sans-serif" font-size="14" lengthAdjust="spacing" textLength="129" x="51.5" y="251.043">InterviewModelName</text><line style="stroke:#181818;stroke-width:0.5;" x1="23.5" x2="182.5" y1="259.5566" y2="259.5566"/><line style="stroke:#181818;stroke-width:0.5;" x1="23.5" x2="182.5" y1="267.5566" y2="267.5566"/></g><!--class InterviewModelDescription--><g id="elem_InterviewModelDescription"><rect codeLine="8" fill="#F1F1F1" height="60.582" id="InterviewModelDescription" rx="2.5" ry="2.5" style="stroke:#181818;stroke-width:0.5;" width="196" x="219" y="207.0137"/><ellipse cx="234" cy="229.3047" fill="#FF8B40" rx="11" ry="11" style="stroke:#181818;stroke-width:1.0;"/><path d="M234.5938,232.5703 L237.0625,226.6953 L236.6719,226.6953 Q236.0625,226.6953 235.7969,226.4609 Q235.5313,226.2266 235.5313,225.8359 Q235.5313,225.4609 235.7969,225.2266 Q236.0625,224.9922 236.6719,224.9922 L238.9531,224.9922 Q239.5625,224.9922 239.8281,225.2266 Q240.0938,225.4609 240.0938,225.8359 Q240.0938,226.3047 239.6875,226.5703 Q239.5,226.6953 238.9063,226.6953 L235.4219,235.0547 L233.7813,235.0547 L230.2969,226.6953 Q229.7031,226.6953 229.5156,226.5703 Q229.1094,226.3047 229.1094,225.8359 Q229.1094,225.4609 229.375,225.2266 Q229.6406,224.9922 230.25,224.9922 L232.5469,224.9922 Q233.1563,224.9922 233.4063,225.2266 Q233.6719,225.4609 233.6719,225.8359 Q233.6719,226.2266 233.4063,226.4609 Q233.1563,226.6953 232.5469,226.6953 L232.1406,226.6953 L234.5938,232.5703 Z " fill="#000000"/><text fill="#000000" font-family="sans-serif" font-size="12" font-style="italic" lengthAdjust="spacing" textLength="81" x="289.5" y="224.9629">&#171;value object&#187;</text><text fill="#000000" font-family="sans-serif" font-size="14" lengthAdjust="spacing" textLength="164" x="248" y="243.082">InterviewModelDescription</text><line style="stroke:#181818;stroke-width:0.5;" x1="220" x2="414" y1="251.5957" y2="251.5957"/><line style="stroke:#181818;stroke-width:0.5;" x1="220" x2="414" y1="259.5957" y2="259.5957"/></g><!--class RequirementSpecification--><g id="elem_RequirementSpecification"><rect codeLine="12" fill="#F1F1F1" height="76.543" id="RequirementSpecification" rx="2.5" ry="2.5" style="stroke:#181818;stroke-width:0.5;" width="193" x="611.5" y="43.0137"/><ellipse cx="626.5" cy="73.2852" fill="#ADD1B2" rx="11" ry="11" style="stroke:#181818;stroke-width:1.0;"/><path d="M625.3594,74.082 L625.3594,76.582 L629.6875,76.582 L629.6875,75.6602 Q629.6875,75.0508 629.9219,74.7852 Q630.1719,74.5195 630.5469,74.5195 Q630.9219,74.5195 631.1563,74.7852 Q631.3906,75.0508 631.3906,75.6602 L631.3906,78.2852 L623.3906,78.2852 Q622.7656,78.2852 622.5,78.0508 Q622.25,77.8164 622.25,77.4258 Q622.25,77.0508 622.5156,76.8164 Q622.7813,76.582 623.3906,76.582 L623.6563,76.582 L623.6563,69.9258 L623.3906,69.9258 Q622.7656,69.9258 622.5,69.6914 Q622.25,69.457 622.25,69.0664 Q622.25,68.6914 622.5,68.457 Q622.7656,68.2227 623.3906,68.2227 L631.0156,68.2227 L631.0156,70.8164 Q631.0156,71.4258 630.7813,71.6914 Q630.5625,71.9414 630.1719,71.9414 Q629.7969,71.9414 629.5625,71.6914 Q629.3281,71.4258 629.3281,70.8164 L629.3281,69.9258 L625.3594,69.9258 L625.3594,72.3789 L626.8438,72.3789 Q626.8438,71.7227 626.9688,71.5352 Q627.2344,71.1289 627.7031,71.1289 Q628.0781,71.1289 628.3125,71.3945 Q628.5469,71.6445 628.5469,72.2539 L628.5469,74.2227 Q628.5469,74.7695 628.4219,74.957 Q628.1563,75.3477 627.7031,75.3477 Q627.2344,75.3477 626.9688,74.9414 Q626.8438,74.7539 626.8438,74.082 L625.3594,74.082 Z " fill="#000000"/><text fill="#000000" font-family="sans-serif" font-size="12" font-style="italic" lengthAdjust="spacing" textLength="43" x="699.5" y="60.9629">&#171;entity&#187;</text><text fill="#000000" font-family="sans-serif" font-size="12" font-style="italic" lengthAdjust="spacing" textLength="35" x="703.5" y="76.9238">&#171;root&#187;</text><text fill="#000000" font-family="sans-serif" font-size="14" lengthAdjust="spacing" textLength="161" x="640.5" y="95.043">RequirementSpecification</text><line style="stroke:#181818;stroke-width:0.5;" x1="612.5" x2="803.5" y1="103.5566" y2="103.5566"/><line style="stroke:#181818;stroke-width:0.5;" x1="612.5" x2="803.5" y1="111.5566" y2="111.5566"/></g><!--class RequirementName--><g id="elem_RequirementName"><rect codeLine="13" fill="#F1F1F1" height="76.543" id="RequirementName" rx="2.5" ry="2.5" style="stroke:#181818;stroke-width:0.5;" width="149" x="611.5" y="199.0137"/><ellipse cx="626.5" cy="229.2852" fill="#FF8B40" rx="11" ry="11" style="stroke:#181818;stroke-width:1.0;"/><path d="M627.0938,232.5508 L629.5625,226.6758 L629.1719,226.6758 Q628.5625,226.6758 628.2969,226.4414 Q628.0313,226.207 628.0313,225.8164 Q628.0313,225.4414 628.2969,225.207 Q628.5625,224.9727 629.1719,224.9727 L631.4531,224.9727 Q632.0625,224.9727 632.3281,225.207 Q632.5938,225.4414 632.5938,225.8164 Q632.5938,226.2852 632.1875,226.5508 Q632,226.6758 631.4063,226.6758 L627.9219,235.0352 L626.2813,235.0352 L622.7969,226.6758 Q622.2031,226.6758 622.0156,226.5508 Q621.6094,226.2852 621.6094,225.8164 Q621.6094,225.4414 621.875,225.207 Q622.1406,224.9727 622.75,224.9727 L625.0469,224.9727 Q625.6563,224.9727 625.9063,225.207 Q626.1719,225.4414 626.1719,225.8164 Q626.1719,226.207 625.9063,226.4414 Q625.6563,226.6758 625.0469,226.6758 L624.6406,226.6758 L627.0938,232.5508 Z " fill="#000000"/><text fill="#000000" font-family="sans-serif" font-size="12" font-style="italic" lengthAdjust="spacing" textLength="81" x="658.5" y="216.9629">&#171;value object&#187;</text><text fill="#000000" font-family="sans-serif" font-size="12" font-style="italic" lengthAdjust="spacing" textLength="61" x="668.5" y="232.9238">&#171;identifier&#187;</text><text fill="#000000" font-family="sans-serif" font-size="14" lengthAdjust="spacing" textLength="117" x="640.5" y="251.043">RequirementName</text><line style="stroke:#181818;stroke-width:0.5;" x1="612.5" x2="759.5" y1="259.5566" y2="259.5566"/><line style="stroke:#181818;stroke-width:0.5;" x1="612.5" x2="759.5" y1="267.5566" y2="267.5566"/></g><!--class RequirementDescription--><g id="elem_RequirementDescription"><rect codeLine="14" fill="#F1F1F1" height="60.582" id="RequirementDescription" rx="2.5" ry="2.5" style="stroke:#181818;stroke-width:0.5;" width="184" x="796" y="207.0137"/><ellipse cx="811" cy="229.3047" fill="#FF8B40" rx="11" ry="11" style="stroke:#181818;stroke-width:1.0;"/><path d="M811.5938,232.5703 L814.0625,226.6953 L813.6719,226.6953 Q813.0625,226.6953 812.7969,226.4609 Q812.5313,226.2266 812.5313,225.8359 Q812.5313,225.4609 812.7969,225.2266 Q813.0625,224.9922 813.6719,224.9922 L815.9531,224.9922 Q816.5625,224.9922 816.8281,225.2266 Q817.0938,225.4609 817.0938,225.8359 Q817.0938,226.3047 816.6875,226.5703 Q816.5,226.6953 815.9063,226.6953 L812.4219,235.0547 L810.7813,235.0547 L807.2969,226.6953 Q806.7031,226.6953 806.5156,226.5703 Q806.1094,226.3047 806.1094,225.8359 Q806.1094,225.4609 806.375,225.2266 Q806.6406,224.9922 807.25,224.9922 L809.5469,224.9922 Q810.1563,224.9922 810.4063,225.2266 Q810.6719,225.4609 810.6719,225.8359 Q810.6719,226.2266 810.4063,226.4609 Q810.1563,226.6953 809.5469,226.6953 L809.1406,226.6953 L811.5938,232.5703 Z " fill="#000000"/><text fill="#000000" font-family="sans-serif" font-size="12" font-style="italic" lengthAdjust="spacing" textLength="81" x="860.5" y="224.9629">&#171;value object&#187;</text><text fill="#000000" font-family="sans-serif" font-size="14" lengthAdjust="spacing" textLength="152" x="825" y="243.082">RequirementDescription</text><line style="stroke:#181818;stroke-width:0.5;" x1="797" x2="979" y1="251.5957" y2="251.5957"/><line style="stroke:#181818;stroke-width:0.5;" x1="797" x2="979" y1="259.5957" y2="259.5957"/></g><!--class FullClassName--><g id="elem_FullClassName"><rect codeLine="3" fill="#F1F1F1" height="60.582" id="FullClassName" rx="2.5" ry="2.5" style="stroke:#181818;stroke-width:0.5;" width="126" x="450" y="207.0137"/><ellipse cx="465" cy="229.3047" fill="#FF8B40" rx="11" ry="11" style="stroke:#181818;stroke-width:1.0;"/><path d="M465.5938,232.5703 L468.0625,226.6953 L467.6719,226.6953 Q467.0625,226.6953 466.7969,226.4609 Q466.5313,226.2266 466.5313,225.8359 Q466.5313,225.4609 466.7969,225.2266 Q467.0625,224.9922 467.6719,224.9922 L469.9531,224.9922 Q470.5625,224.9922 470.8281,225.2266 Q471.0938,225.4609 471.0938,225.8359 Q471.0938,226.3047 470.6875,226.5703 Q470.5,226.6953 469.9063,226.6953 L466.4219,235.0547 L464.7813,235.0547 L461.2969,226.6953 Q460.7031,226.6953 460.5156,226.5703 Q460.1094,226.3047 460.1094,225.8359 Q460.1094,225.4609 460.375,225.2266 Q460.6406,224.9922 461.25,224.9922 L463.5469,224.9922 Q464.1563,224.9922 464.4063,225.2266 Q464.6719,225.4609 464.6719,225.8359 Q464.6719,226.2266 464.4063,226.4609 Q464.1563,226.6953 463.5469,226.6953 L463.1406,226.6953 L465.5938,232.5703 Z " fill="#000000"/><text fill="#000000" font-family="sans-serif" font-size="12" font-style="italic" lengthAdjust="spacing" textLength="81" x="485.5" y="224.9629">&#171;value object&#187;</text><text fill="#000000" font-family="sans-serif" font-size="14" lengthAdjust="spacing" textLength="94" x="479" y="243.082">FullClassName</text><line style="stroke:#181818;stroke-width:0.5;" x1="451" x2="575" y1="251.5957" y2="251.5957"/><line style="stroke:#181818;stroke-width:0.5;" x1="451" x2="575" y1="259.5957" y2="259.5957"/></g><!--link InterviewModel to InterviewModelName--><g id="link_InterviewModel_InterviewModelName"><path codeLine="17" d="M264.65,120.1837 C231.36,144.1437 193.2999,171.5288 160.0499,195.4588 " fill="none" id="InterviewModel-to-InterviewModelName" style="stroke:#181818;stroke-width:1.0;"/><polygon fill="#181818" points="155.18,198.9637,164.8214,196.953,159.2383,196.043,160.1483,190.4598,155.18,198.9637" style="stroke:#181818;stroke-width:1.0;"/><polygon fill="#000000" points="232.0584,156.7386,223.0001,159.6365,226.4334,164.4074,232.0584,156.7386" style="stroke:#000000;stroke-width:1.0;"/><text fill="#000000" font-family="sans-serif" font-size="13" lengthAdjust="spacing" textLength="51" x="237" y="165.042">identifies</text><text fill="#000000" font-family="sans-serif" font-size="13" lengthAdjust="spacing" textLength="7" x="156.8511" y="187.6778">1</text></g><!--link InterviewModel to InterviewModelDescription--><g id="link_InterviewModel_InterviewModelDescription"><path codeLine="18" d="M317,120.1837 C317,146.9037 317,176.2437 317,200.9337 " fill="none" id="InterviewModel-to-InterviewModelDescription" style="stroke:#181818;stroke-width:1.0;"/><polygon fill="#181818" points="317,206.9337,321,197.9337,317,201.9337,313,197.9337,317,206.9337" style="stroke:#181818;stroke-width:1.0;"/><polygon fill="#000000" points="322,154.6592,319.0611,163.7043,324.9389,163.7043,322,154.6592" style="stroke:#000000;stroke-width:1.0;"/><text fill="#000000" font-family="sans-serif" font-size="13" lengthAdjust="spacing" textLength="56" x="331" y="165.042">describes</text><text fill="#000000" font-family="sans-serif" font-size="13" lengthAdjust="spacing" textLength="7" x="309.2781" y="195.9749">1</text></g><!--link InterviewModel to FullClassName--><g id="link_InterviewModel_FullClassName"><path codeLine="19" d="M364.95,120.1837 C398.95,146.9037 439.2117,178.5372 470.6417,203.2272 " fill="none" id="InterviewModel-to-FullClassName" style="stroke:#181818;stroke-width:1.0;"/><polygon fill="#181818" points="475.36,206.9337,470.7536,198.2285,471.4281,203.845,465.8116,204.5195,475.36,206.9337" style="stroke:#181818;stroke-width:1.0;"/><polygon fill="#000000" points="428.0684,156.5701,433.365,164.4693,436.9965,159.8474,428.0684,156.5701" style="stroke:#000000;stroke-width:1.0;"/><text fill="#000000" font-family="sans-serif" font-size="13" lengthAdjust="spacing" textLength="59" x="441" y="165.042">configures</text><text fill="#000000" font-family="sans-serif" font-size="13" lengthAdjust="spacing" textLength="7" x="459.8749" y="195.9749">1</text></g><!--link RequirementSpecification to RequirementName--><g id="link_RequirementSpecification_RequirementName"><path codeLine="21" d="M702.62,120.1837 C699.2,144.1437 695.6289,169.094 692.2089,193.024 " fill="none" id="RequirementSpecification-to-RequirementName" style="stroke:#181818;stroke-width:1.0;"/><polygon fill="#181818" points="691.36,198.9637,696.5931,190.6201,692.0674,194.014,688.6735,189.4883,691.36,198.9637" style="stroke:#181818;stroke-width:1.0;"/><polygon fill="#000000" points="703.7075,154.7095,699.5183,163.2477,705.337,164.0794,703.7075,154.7095" style="stroke:#000000;stroke-width:1.0;"/><text fill="#000000" font-family="sans-serif" font-size="13" lengthAdjust="spacing" textLength="51" x="712" y="165.042">identifies</text><text fill="#000000" font-family="sans-serif" font-size="13" lengthAdjust="spacing" textLength="7" x="684.6913" y="187.6778">1</text></g><!--link RequirementSpecification to RequirementDescription--><g id="link_RequirementSpecification_RequirementDescription"><path codeLine="22" d="M752.03,120.1837 C783.26,146.9037 820.0108,178.3432 848.8708,203.0332 " fill="none" id="RequirementSpecification-to-RequirementDescription" style="stroke:#181818;stroke-width:1.0;"/><polygon fill="#181818" points="853.43,206.9337,849.1915,198.0435,849.6307,203.6833,843.9909,204.1225,853.43,206.9337" style="stroke:#181818;stroke-width:1.0;"/><polygon fill="#000000" points="809.2007,156.4088,814.1632,164.522,817.9843,160.0556,809.2007,156.4088" style="stroke:#000000;stroke-width:1.0;"/><text fill="#000000" font-family="sans-serif" font-size="13" lengthAdjust="spacing" textLength="56" x="822" y="165.042">describes</text><text fill="#000000" font-family="sans-serif" font-size="13" lengthAdjust="spacing" textLength="7" x="838.5781" y="195.9749">1</text></g><!--link RequirementSpecification to FullClassName--><g id="link_RequirementSpecification_FullClassName"><path codeLine="23" d="M653.09,120.1837 C639.78,129.6837 625.73,140.0237 613,150.0137 C589.89,168.1537 569.3748,185.7979 550.1448,202.8879 " fill="none" id="RequirementSpecification-to-FullClassName" style="stroke:#181818;stroke-width:1.0;"/><polygon fill="#181818" points="545.66,206.8737,555.0444,203.8849,549.3974,203.5522,549.7301,197.9052,545.66,206.8737" style="stroke:#181818;stroke-width:1.0;"/><polygon fill="#000000" points="621.8979,156.5277,613.0059,159.9015,616.6872,164.4838,621.8979,156.5277" style="stroke:#000000;stroke-width:1.0;"/><text fill="#000000" font-family="sans-serif" font-size="13" lengthAdjust="spacing" textLength="59" x="627" y="165.042">configures</text><text fill="#000000" font-family="sans-serif" font-size="13" lengthAdjust="spacing" textLength="7" x="544.6742" y="195.9025">1</text></g><!--SRC=[fLB1IiGm4BtdAuPwM0Lh5Jn82Jse53peGS5xDfsDqRIfIReYo_wxIOlQ5hlTnPmocNbltfl9uiMvsgP9KYjMkQPKProN2LVCshYGJ1XM4jA6a3TAtOJR0oiHA3r-FZtAywlho_CJM3FL8EZbAtANPR3P4b8p_iO4GaGf4yAWO0vzwgvoQDOIF-1U5wWYs13m1oidtUTljatw9jsxnr5gj0xSWJmWEb53mBmoIcKHE5SIJITqYkiMBJUoTb9NysQtKtOVyRsH1alV4vvgvBunPu5pPBnNDoZROmGzwF_yzuWECU_jZzOMnnb45z4VoqdXfxq5kX-kfoM5eWsMkz23Vve2rzLAYiQqa4KSaybHVnEC1ZhIV0XyKleioIuJNm00]--></g></svg>