<?xml version="1.0" encoding="UTF-8" standalone="no"?><svg xmlns="http://www.w3.org/2000/svg" xmlns:xlink="http://www.w3.org/1999/xlink" contentStyleType="text/css" height="1150px" preserveAspectRatio="none" style="width:2056px;height:1150px;background:#FFFFFF;" version="1.1" viewBox="0 0 2056 1150" width="2056px" zoomAndPan="magnify"><defs/><g><text fill="#000000" font-family="sans-serif" font-size="14" font-weight="bold" lengthAdjust="spacing" textLength="155" x="943.5" y="24.5332">US1002 Domain Model</text><!--cluster <<aggregate>> Requirement Specification--><g id="cluster_&lt;&lt;aggregate&gt;&gt; Requirement Specification"><path d="M1544.5,808.5039 L1916.5,808.5039 A3.75,3.75 0 0 1 1919,811.0039 L1926,839.6602 L2046.5,839.6602 A2.5,2.5 0 0 1 2049,842.1602 L2049,1141.0039 A2.5,2.5 0 0 1 2046.5,1143.5039 L1544.5,1143.5039 A2.5,2.5 0 0 1 1542,1141.0039 L1542,811.0039 A2.5,2.5 0 0 1 1544.5,808.5039 " fill="none" style="stroke:#000000;stroke-width:1.5;"/><line style="stroke:#000000;stroke-width:1.5;" x1="1542" x2="1926" y1="839.6602" y2="839.6602"/><text fill="#000000" font-family="sans-serif" font-size="20" font-weight="bold" lengthAdjust="spacing" textLength="371" x="1546" y="831.2656">«aggregate» Requirement Specification</text></g><!--cluster <<aggregate>> Job Opening--><g id="cluster_&lt;&lt;aggregate&gt;&gt; Job Opening"><path d="M227.5,467.5039 L472.5,467.5039 A3.75,3.75 0 0 1 475,470.0039 L482,498.6602 L1386.5,498.6602 A2.5,2.5 0 0 1 1389,501.1602 L1389,959.0039 A2.5,2.5 0 0 1 1386.5,961.5039 L227.5,961.5039 A2.5,2.5 0 0 1 225,959.0039 L225,470.0039 A2.5,2.5 0 0 1 227.5,467.5039 " fill="none" style="stroke:#000000;stroke-width:1.5;"/><line style="stroke:#000000;stroke-width:1.5;" x1="225" x2="482" y1="498.6602" y2="498.6602"/><text fill="#000000" font-family="sans-serif" font-size="20" font-weight="bold" lengthAdjust="spacing" textLength="244" x="229" y="490.2656">«aggregate» Job Opening</text></g><!--cluster <<aggregate>> Customer Manager--><g id="cluster_&lt;&lt;aggregate&gt;&gt; Customer Manager"><path d="M1322.5,45.5039 L1626.5,45.5039 A3.75,3.75 0 0 1 1629,48.0039 L1636,76.6602 L1636.5,76.6602 A2.5,2.5 0 0 1 1639,79.1602 L1639,196.0039 A2.5,2.5 0 0 1 1636.5,198.5039 L1322.5,198.5039 A2.5,2.5 0 0 1 1320,196.0039 L1320,48.0039 A2.5,2.5 0 0 1 1322.5,45.5039 " fill="none" style="stroke:#000000;stroke-width:1.5;"/><line style="stroke:#000000;stroke-width:1.5;" x1="1320" x2="1636" y1="76.6602" y2="76.6602"/><text fill="#000000" font-family="sans-serif" font-size="20" font-weight="bold" lengthAdjust="spacing" textLength="303" x="1324" y="68.2656">«aggregate» Customer Manager</text></g><!--cluster <<aggregate>> Entity--><g id="cluster_&lt;&lt;aggregate&gt;&gt; Entity"><path d="M1415.5,257.5039 L1594.5,257.5039 A3.75,3.75 0 0 1 1597,260.0039 L1604,288.6602 L1811.5,288.6602 A2.5,2.5 0 0 1 1814,291.1602 L1814,618.0039 A2.5,2.5 0 0 1 1811.5,620.5039 L1415.5,620.5039 A2.5,2.5 0 0 1 1413,618.0039 L1413,260.0039 A2.5,2.5 0 0 1 1415.5,257.5039 " fill="none" style="stroke:#000000;stroke-width:1.5;"/><line style="stroke:#000000;stroke-width:1.5;" x1="1413" x2="1604" y1="288.6602" y2="288.6602"/><text fill="#000000" font-family="sans-serif" font-size="20" font-weight="bold" lengthAdjust="spacing" textLength="178" x="1417" y="280.2656">«aggregate» Entity</text></g><!--cluster <<aggregate>> Customer--><g id="cluster_&lt;&lt;aggregate&gt;&gt; Customer"><path d="M476.5,45.5039 L692.5,45.5039 A3.75,3.75 0 0 1 695,48.0039 L702,76.6602 L702.5,76.6602 A2.5,2.5 0 0 1 705,79.1602 L705,196.0039 A2.5,2.5 0 0 1 702.5,198.5039 L476.5,198.5039 A2.5,2.5 0 0 1 474,196.0039 L474,48.0039 A2.5,2.5 0 0 1 476.5,45.5039 " fill="none" style="stroke:#000000;stroke-width:1.5;"/><line style="stroke:#000000;stroke-width:1.5;" x1="474" x2="702" y1="76.6602" y2="76.6602"/><text fill="#000000" font-family="sans-serif" font-size="20" font-weight="bold" lengthAdjust="spacing" textLength="215" x="478" y="68.2656">«aggregate» Customer</text></g><!--class RequirementSpecification--><g id="elem_RequirementSpecification"><rect codeLine="15" fill="#F5F5DC" height="93.4688" id="RequirementSpecification" rx="2.5" ry="2.5" style="stroke:#181818;stroke-width:0.5;" width="256" x="1612" y="852.5039"/><ellipse cx="1628" cy="895.2383" fill="#ADD1B2" rx="12" ry="12" style="stroke:#181818;stroke-width:1.0;"/><path d="M1625.9531,896.3008 L1625.9531,899.2383 L1631.0469,899.2383 L1631.0469,898.1445 Q1631.0469,897.4258 1631.3281,897.1289 Q1631.6094,896.8164 1632.0625,896.8164 Q1632.5,896.8164 1632.7813,897.1289 Q1633.0625,897.4258 1633.0625,898.1445 L1633.0625,901.2383 L1623.625,901.2383 Q1622.9063,901.2383 1622.5938,900.957 Q1622.2969,900.6758 1622.2969,900.2383 Q1622.2969,899.7852 1622.6094,899.5195 Q1622.9219,899.2383 1623.625,899.2383 L1623.9375,899.2383 L1623.9375,891.4102 L1623.625,891.4102 Q1622.9063,891.4102 1622.5938,891.1289 Q1622.2969,890.8477 1622.2969,890.3945 Q1622.2969,889.9414 1622.5938,889.6758 Q1622.9063,889.3945 1623.625,889.3945 L1632.6094,889.3945 L1632.6094,892.4414 Q1632.6094,893.1602 1632.3281,893.4727 Q1632.0625,893.7695 1631.625,893.7695 Q1631.1719,893.7695 1630.8906,893.4727 Q1630.6094,893.1758 1630.6094,892.4414 L1630.6094,891.4102 L1625.9531,891.4102 L1625.9531,894.3008 L1627.7031,894.3008 Q1627.7031,893.5195 1627.8438,893.2852 Q1628.1563,892.8164 1628.7031,892.8164 Q1629.1563,892.8164 1629.4219,893.1289 Q1629.7031,893.4258 1629.7031,894.1445 L1629.7031,896.457 Q1629.7031,897.1133 1629.5469,897.332 Q1629.2344,897.7852 1628.7031,897.7852 Q1628.1563,897.7852 1627.8438,897.3164 Q1627.7031,897.082 1627.7031,896.3008 L1625.9531,896.3008 Z " fill="#000000"/><text fill="#000000" font-family="sans-serif" font-size="20" font-style="italic" lengthAdjust="spacing" textLength="69" x="1719.5" y="878.2656">«entity»</text><text fill="#000000" font-family="sans-serif" font-size="20" font-style="italic" lengthAdjust="spacing" textLength="56" x="1726" y="903.4219">«root»</text><text fill="#000000" font-family="sans-serif" font-size="20" lengthAdjust="spacing" textLength="222" x="1643" y="928.5781">RequirementSpecification</text><line style="stroke:#181818;stroke-width:0.5;" x1="1613" x2="1867" y1="937.9727" y2="937.9727"/></g><!--class RequirementName--><g id="elem_RequirementName"><rect codeLine="16" fill="#F5F5DC" height="93.4688" id="RequirementName" rx="2.5" ry="2.5" style="stroke:#181818;stroke-width:0.5;" width="196" x="1558" y="1034.5039"/><ellipse cx="1574" cy="1077.2383" fill="#FF8B40" rx="12" ry="12" style="stroke:#181818;stroke-width:1.0;"/><path d="M1574.5,1081.3164 L1577.3906,1074.4102 L1576.9375,1074.4102 Q1576.2188,1074.4102 1575.9063,1074.1289 Q1575.5938,1073.8477 1575.5938,1073.3945 Q1575.5938,1072.9414 1575.9063,1072.6758 Q1576.2188,1072.3945 1576.9375,1072.3945 L1579.625,1072.3945 Q1580.3438,1072.3945 1580.6563,1072.6758 Q1580.9688,1072.9414 1580.9688,1073.3945 Q1580.9688,1073.9414 1580.5,1074.2539 Q1580.2656,1074.4102 1579.5781,1074.4102 L1575.4688,1084.2383 L1573.5469,1084.2383 L1569.4375,1074.4102 Q1568.7344,1074.4102 1568.5156,1074.2539 Q1568.0469,1073.9414 1568.0469,1073.3945 Q1568.0469,1072.9414 1568.3594,1072.6758 Q1568.6563,1072.3945 1569.375,1072.3945 L1572.0781,1072.3945 Q1572.7969,1072.3945 1573.0938,1072.6758 Q1573.4063,1072.9414 1573.4063,1073.3945 Q1573.4063,1073.8477 1573.1094,1074.1289 Q1572.8125,1074.4102 1572.0781,1074.4102 L1571.6094,1074.4102 L1574.5,1081.3164 Z " fill="#000000"/><text fill="#000000" font-family="sans-serif" font-size="20" font-style="italic" lengthAdjust="spacing" textLength="128" x="1606" y="1060.2656">«value object»</text><text fill="#000000" font-family="sans-serif" font-size="20" font-style="italic" lengthAdjust="spacing" textLength="99" x="1620.5" y="1085.4219">«identifier»</text><text fill="#000000" font-family="sans-serif" font-size="20" lengthAdjust="spacing" textLength="162" x="1589" y="1110.5781">RequirementName</text><line style="stroke:#181818;stroke-width:0.5;" x1="1559" x2="1753" y1="1119.9727" y2="1119.9727"/></g><!--class RequirementDescription--><g id="elem_RequirementDescription"><rect codeLine="17" fill="#F5F5DC" height="68.3125" id="RequirementDescription" rx="2.5" ry="2.5" style="stroke:#181818;stroke-width:0.5;" width="243" x="1789.5" y="1047.0039"/><ellipse cx="1805.5" cy="1077.1602" fill="#FF8B40" rx="12" ry="12" style="stroke:#181818;stroke-width:1.0;"/><path d="M1806,1081.2383 L1808.8906,1074.332 L1808.4375,1074.332 Q1807.7188,1074.332 1807.4063,1074.0508 Q1807.0938,1073.7695 1807.0938,1073.3164 Q1807.0938,1072.8633 1807.4063,1072.5977 Q1807.7188,1072.3164 1808.4375,1072.3164 L1811.125,1072.3164 Q1811.8438,1072.3164 1812.1563,1072.5977 Q1812.4688,1072.8633 1812.4688,1073.3164 Q1812.4688,1073.8633 1812,1074.1758 Q1811.7656,1074.332 1811.0781,1074.332 L1806.9688,1084.1602 L1805.0469,1084.1602 L1800.9375,1074.332 Q1800.2344,1074.332 1800.0156,1074.1758 Q1799.5469,1073.8633 1799.5469,1073.3164 Q1799.5469,1072.8633 1799.8594,1072.5977 Q1800.1563,1072.3164 1800.875,1072.3164 L1803.5781,1072.3164 Q1804.2969,1072.3164 1804.5938,1072.5977 Q1804.9063,1072.8633 1804.9063,1073.3164 Q1804.9063,1073.7695 1804.6094,1074.0508 Q1804.3125,1074.332 1803.5781,1074.332 L1803.1094,1074.332 L1806,1081.2383 Z " fill="#000000"/><text fill="#000000" font-family="sans-serif" font-size="20" font-style="italic" lengthAdjust="spacing" textLength="128" x="1861" y="1072.7656">«value object»</text><text fill="#000000" font-family="sans-serif" font-size="20" lengthAdjust="spacing" textLength="209" x="1820.5" y="1097.9219">RequirementDescription</text><line style="stroke:#181818;stroke-width:0.5;" x1="1790.5" x2="2031.5" y1="1107.3164" y2="1107.3164"/></g><!--class JobOpening--><g id="elem_JobOpening"><rect codeLine="21" fill="#F5F5DC" height="93.4688" id="JobOpening" rx="2.5" ry="2.5" style="stroke:#181818;stroke-width:0.5;" width="139" x="754.5" y="511.5039"/><ellipse cx="770.5" cy="554.2383" fill="#ADD1B2" rx="12" ry="12" style="stroke:#181818;stroke-width:1.0;"/><path d="M768.4531,555.3008 L768.4531,558.2383 L773.5469,558.2383 L773.5469,557.1445 Q773.5469,556.4258 773.8281,556.1289 Q774.1094,555.8164 774.5625,555.8164 Q775,555.8164 775.2813,556.1289 Q775.5625,556.4258 775.5625,557.1445 L775.5625,560.2383 L766.125,560.2383 Q765.4063,560.2383 765.0938,559.957 Q764.7969,559.6758 764.7969,559.2383 Q764.7969,558.7852 765.1094,558.5195 Q765.4219,558.2383 766.125,558.2383 L766.4375,558.2383 L766.4375,550.4102 L766.125,550.4102 Q765.4063,550.4102 765.0938,550.1289 Q764.7969,549.8477 764.7969,549.3945 Q764.7969,548.9414 765.0938,548.6758 Q765.4063,548.3945 766.125,548.3945 L775.1094,548.3945 L775.1094,551.4414 Q775.1094,552.1602 774.8281,552.4727 Q774.5625,552.7695 774.125,552.7695 Q773.6719,552.7695 773.3906,552.4727 Q773.1094,552.1758 773.1094,551.4414 L773.1094,550.4102 L768.4531,550.4102 L768.4531,553.3008 L770.2031,553.3008 Q770.2031,552.5195 770.3438,552.2852 Q770.6563,551.8164 771.2031,551.8164 Q771.6563,551.8164 771.9219,552.1289 Q772.2031,552.4258 772.2031,553.1445 L772.2031,555.457 Q772.2031,556.1133 772.0469,556.332 Q771.7344,556.7852 771.2031,556.7852 Q770.6563,556.7852 770.3438,556.3164 Q770.2031,556.082 770.2031,555.3008 L768.4531,555.3008 Z " fill="#000000"/><text fill="#000000" font-family="sans-serif" font-size="20" font-style="italic" lengthAdjust="spacing" textLength="69" x="803.5" y="537.2656">«entity»</text><text fill="#000000" font-family="sans-serif" font-size="20" font-style="italic" lengthAdjust="spacing" textLength="56" x="810" y="562.4219">«root»</text><text fill="#000000" font-family="sans-serif" font-size="20" lengthAdjust="spacing" textLength="105" x="785.5" y="587.5781">JobOpening</text><line style="stroke:#181818;stroke-width:0.5;" x1="755.5" x2="892.5" y1="596.9727" y2="596.9727"/></g><!--class JobFunction--><g id="elem_JobFunction"><rect codeLine="22" fill="#F5F5DC" height="68.3125" id="JobFunction" rx="2.5" ry="2.5" style="stroke:#181818;stroke-width:0.5;" width="158" x="1215" y="693.5039"/><ellipse cx="1231" cy="723.6602" fill="#FF8B40" rx="12" ry="12" style="stroke:#181818;stroke-width:1.0;"/><path d="M1231.5,727.7383 L1234.3906,720.832 L1233.9375,720.832 Q1233.2188,720.832 1232.9063,720.5508 Q1232.5938,720.2695 1232.5938,719.8164 Q1232.5938,719.3633 1232.9063,719.0977 Q1233.2188,718.8164 1233.9375,718.8164 L1236.625,718.8164 Q1237.3438,718.8164 1237.6563,719.0977 Q1237.9688,719.3633 1237.9688,719.8164 Q1237.9688,720.3633 1237.5,720.6758 Q1237.2656,720.832 1236.5781,720.832 L1232.4688,730.6602 L1230.5469,730.6602 L1226.4375,720.832 Q1225.7344,720.832 1225.5156,720.6758 Q1225.0469,720.3633 1225.0469,719.8164 Q1225.0469,719.3633 1225.3594,719.0977 Q1225.6563,718.8164 1226.375,718.8164 L1229.0781,718.8164 Q1229.7969,718.8164 1230.0938,719.0977 Q1230.4063,719.3633 1230.4063,719.8164 Q1230.4063,720.2695 1230.1094,720.5508 Q1229.8125,720.832 1229.0781,720.832 L1228.6094,720.832 L1231.5,727.7383 Z " fill="#000000"/><text fill="#000000" font-family="sans-serif" font-size="20" font-style="italic" lengthAdjust="spacing" textLength="128" x="1244" y="719.2656">«value object»</text><text fill="#000000" font-family="sans-serif" font-size="20" lengthAdjust="spacing" textLength="105" x="1255.5" y="744.4219">JobFunction</text><line style="stroke:#181818;stroke-width:0.5;" x1="1216" x2="1372" y1="753.8164" y2="753.8164"/></g><!--class ContractType--><g id="elem_ContractType"><rect codeLine="23" fill="#F5F5DC" height="68.3125" id="ContractType" rx="2.5" ry="2.5" style="stroke:#181818;stroke-width:0.5;" width="158" x="241" y="865.0039"/><ellipse cx="257" cy="895.1602" fill="#FF8B40" rx="12" ry="12" style="stroke:#181818;stroke-width:1.0;"/><path d="M257.5,899.2383 L260.3906,892.332 L259.9375,892.332 Q259.2188,892.332 258.9063,892.0508 Q258.5938,891.7695 258.5938,891.3164 Q258.5938,890.8633 258.9063,890.5977 Q259.2188,890.3164 259.9375,890.3164 L262.625,890.3164 Q263.3438,890.3164 263.6563,890.5977 Q263.9688,890.8633 263.9688,891.3164 Q263.9688,891.8633 263.5,892.1758 Q263.2656,892.332 262.5781,892.332 L258.4688,902.1602 L256.5469,902.1602 L252.4375,892.332 Q251.7344,892.332 251.5156,892.1758 Q251.0469,891.8633 251.0469,891.3164 Q251.0469,890.8633 251.3594,890.5977 Q251.6563,890.3164 252.375,890.3164 L255.0781,890.3164 Q255.7969,890.3164 256.0938,890.5977 Q256.4063,890.8633 256.4063,891.3164 Q256.4063,891.7695 256.1094,892.0508 Q255.8125,892.332 255.0781,892.332 L254.6094,892.332 L257.5,899.2383 Z " fill="#000000"/><text fill="#000000" font-family="sans-serif" font-size="20" font-style="italic" lengthAdjust="spacing" textLength="128" x="270" y="890.7656">«value object»</text><text fill="#000000" font-family="sans-serif" font-size="20" lengthAdjust="spacing" textLength="119" x="274.5" y="915.9219">ContractType</text><line style="stroke:#181818;stroke-width:0.5;" x1="242" x2="398" y1="925.3164" y2="925.3164"/></g><!--class Mode--><g id="elem_Mode"><rect codeLine="24" fill="#F5F5DC" height="68.3125" id="Mode" rx="2.5" ry="2.5" style="stroke:#181818;stroke-width:0.5;" width="158" x="383" y="693.5039"/><ellipse cx="399" cy="723.6602" fill="#FF8B40" rx="12" ry="12" style="stroke:#181818;stroke-width:1.0;"/><path d="M399.5,727.7383 L402.3906,720.832 L401.9375,720.832 Q401.2188,720.832 400.9063,720.5508 Q400.5938,720.2695 400.5938,719.8164 Q400.5938,719.3633 400.9063,719.0977 Q401.2188,718.8164 401.9375,718.8164 L404.625,718.8164 Q405.3438,718.8164 405.6563,719.0977 Q405.9688,719.3633 405.9688,719.8164 Q405.9688,720.3633 405.5,720.6758 Q405.2656,720.832 404.5781,720.832 L400.4688,730.6602 L398.5469,730.6602 L394.4375,720.832 Q393.7344,720.832 393.5156,720.6758 Q393.0469,720.3633 393.0469,719.8164 Q393.0469,719.3633 393.3594,719.0977 Q393.6563,718.8164 394.375,718.8164 L397.0781,718.8164 Q397.7969,718.8164 398.0938,719.0977 Q398.4063,719.3633 398.4063,719.8164 Q398.4063,720.2695 398.1094,720.5508 Q397.8125,720.832 397.0781,720.832 L396.6094,720.832 L399.5,727.7383 Z " fill="#000000"/><text fill="#000000" font-family="sans-serif" font-size="20" font-style="italic" lengthAdjust="spacing" textLength="128" x="412" y="719.2656">«value object»</text><text fill="#000000" font-family="sans-serif" font-size="20" lengthAdjust="spacing" textLength="50" x="451" y="744.4219">Mode</text><line style="stroke:#181818;stroke-width:0.5;" x1="384" x2="540" y1="753.8164" y2="753.8164"/></g><!--class NumberVacancy--><g id="elem_NumberVacancy"><rect codeLine="25" fill="#F5F5DC" height="68.3125" id="NumberVacancy" rx="2.5" ry="2.5" style="stroke:#181818;stroke-width:0.5;" width="177" x="576.5" y="693.5039"/><ellipse cx="592.5" cy="723.6602" fill="#FF8B40" rx="12" ry="12" style="stroke:#181818;stroke-width:1.0;"/><path d="M593,727.7383 L595.8906,720.832 L595.4375,720.832 Q594.7188,720.832 594.4063,720.5508 Q594.0938,720.2695 594.0938,719.8164 Q594.0938,719.3633 594.4063,719.0977 Q594.7188,718.8164 595.4375,718.8164 L598.125,718.8164 Q598.8438,718.8164 599.1563,719.0977 Q599.4688,719.3633 599.4688,719.8164 Q599.4688,720.3633 599,720.6758 Q598.7656,720.832 598.0781,720.832 L593.9688,730.6602 L592.0469,730.6602 L587.9375,720.832 Q587.2344,720.832 587.0156,720.6758 Q586.5469,720.3633 586.5469,719.8164 Q586.5469,719.3633 586.8594,719.0977 Q587.1563,718.8164 587.875,718.8164 L590.5781,718.8164 Q591.2969,718.8164 591.5938,719.0977 Q591.9063,719.3633 591.9063,719.8164 Q591.9063,720.2695 591.6094,720.5508 Q591.3125,720.832 590.5781,720.832 L590.1094,720.832 L593,727.7383 Z " fill="#000000"/><text fill="#000000" font-family="sans-serif" font-size="20" font-style="italic" lengthAdjust="spacing" textLength="128" x="615" y="719.2656">«value object»</text><text fill="#000000" font-family="sans-serif" font-size="20" lengthAdjust="spacing" textLength="143" x="607.5" y="744.4219">NumberVacancy</text><line style="stroke:#181818;stroke-width:0.5;" x1="577.5" x2="752.5" y1="753.8164" y2="753.8164"/></g><!--class Description--><g id="elem_Description"><rect codeLine="26" fill="#F5F5DC" height="68.3125" id="Description" rx="2.5" ry="2.5" style="stroke:#181818;stroke-width:0.5;" width="158" x="694" y="865.0039"/><ellipse cx="710" cy="895.1602" fill="#FF8B40" rx="12" ry="12" style="stroke:#181818;stroke-width:1.0;"/><path d="M710.5,899.2383 L713.3906,892.332 L712.9375,892.332 Q712.2188,892.332 711.9063,892.0508 Q711.5938,891.7695 711.5938,891.3164 Q711.5938,890.8633 711.9063,890.5977 Q712.2188,890.3164 712.9375,890.3164 L715.625,890.3164 Q716.3438,890.3164 716.6563,890.5977 Q716.9688,890.8633 716.9688,891.3164 Q716.9688,891.8633 716.5,892.1758 Q716.2656,892.332 715.5781,892.332 L711.4688,902.1602 L709.5469,902.1602 L705.4375,892.332 Q704.7344,892.332 704.5156,892.1758 Q704.0469,891.8633 704.0469,891.3164 Q704.0469,890.8633 704.3594,890.5977 Q704.6563,890.3164 705.375,890.3164 L708.0781,890.3164 Q708.7969,890.3164 709.0938,890.5977 Q709.4063,890.8633 709.4063,891.3164 Q709.4063,891.7695 709.1094,892.0508 Q708.8125,892.332 708.0781,892.332 L707.6094,892.332 L710.5,899.2383 Z " fill="#000000"/><text fill="#000000" font-family="sans-serif" font-size="20" font-style="italic" lengthAdjust="spacing" textLength="128" x="723" y="890.7656">«value object»</text><text fill="#000000" font-family="sans-serif" font-size="20" lengthAdjust="spacing" textLength="98" x="738" y="915.9219">Description</text><line style="stroke:#181818;stroke-width:0.5;" x1="695" x2="851" y1="925.3164" y2="925.3164"/></g><!--class JobReference--><g id="elem_JobReference"><rect codeLine="27" fill="#F5F5DC" height="93.4688" id="JobReference" rx="2.5" ry="2.5" style="stroke:#181818;stroke-width:0.5;" width="158" x="887" y="852.5039"/><ellipse cx="903" cy="895.2383" fill="#FF8B40" rx="12" ry="12" style="stroke:#181818;stroke-width:1.0;"/><path d="M903.5,899.3164 L906.3906,892.4102 L905.9375,892.4102 Q905.2188,892.4102 904.9063,892.1289 Q904.5938,891.8477 904.5938,891.3945 Q904.5938,890.9414 904.9063,890.6758 Q905.2188,890.3945 905.9375,890.3945 L908.625,890.3945 Q909.3438,890.3945 909.6563,890.6758 Q909.9688,890.9414 909.9688,891.3945 Q909.9688,891.9414 909.5,892.2539 Q909.2656,892.4102 908.5781,892.4102 L904.4688,902.2383 L902.5469,902.2383 L898.4375,892.4102 Q897.7344,892.4102 897.5156,892.2539 Q897.0469,891.9414 897.0469,891.3945 Q897.0469,890.9414 897.3594,890.6758 Q897.6563,890.3945 898.375,890.3945 L901.0781,890.3945 Q901.7969,890.3945 902.0938,890.6758 Q902.4063,890.9414 902.4063,891.3945 Q902.4063,891.8477 902.1094,892.1289 Q901.8125,892.4102 901.0781,892.4102 L900.6094,892.4102 L903.5,899.3164 Z " fill="#000000"/><text fill="#000000" font-family="sans-serif" font-size="20" font-style="italic" lengthAdjust="spacing" textLength="128" x="916" y="878.2656">«value object»</text><text fill="#000000" font-family="sans-serif" font-size="20" font-style="italic" lengthAdjust="spacing" textLength="99" x="930.5" y="903.4219">«identifier»</text><text fill="#000000" font-family="sans-serif" font-size="20" lengthAdjust="spacing" textLength="123" x="918.5" y="928.5781">JobReference</text><line style="stroke:#181818;stroke-width:0.5;" x1="888" x2="1044" y1="937.9727" y2="937.9727"/></g><!--class Rank--><g id="elem_Rank"><rect codeLine="28" fill="#F5F5DC" height="68.3125" id="Rank" rx="2.5" ry="2.5" style="stroke:#181818;stroke-width:0.5;" width="158" x="1080" y="865.0039"/><ellipse cx="1096" cy="895.1602" fill="#FF8B40" rx="12" ry="12" style="stroke:#181818;stroke-width:1.0;"/><path d="M1096.5,899.2383 L1099.3906,892.332 L1098.9375,892.332 Q1098.2188,892.332 1097.9063,892.0508 Q1097.5938,891.7695 1097.5938,891.3164 Q1097.5938,890.8633 1097.9063,890.5977 Q1098.2188,890.3164 1098.9375,890.3164 L1101.625,890.3164 Q1102.3438,890.3164 1102.6563,890.5977 Q1102.9688,890.8633 1102.9688,891.3164 Q1102.9688,891.8633 1102.5,892.1758 Q1102.2656,892.332 1101.5781,892.332 L1097.4688,902.1602 L1095.5469,902.1602 L1091.4375,892.332 Q1090.7344,892.332 1090.5156,892.1758 Q1090.0469,891.8633 1090.0469,891.3164 Q1090.0469,890.8633 1090.3594,890.5977 Q1090.6563,890.3164 1091.375,890.3164 L1094.0781,890.3164 Q1094.7969,890.3164 1095.0938,890.5977 Q1095.4063,890.8633 1095.4063,891.3164 Q1095.4063,891.7695 1095.1094,892.0508 Q1094.8125,892.332 1094.0781,892.332 L1093.6094,892.332 L1096.5,899.2383 Z " fill="#000000"/><text fill="#000000" font-family="sans-serif" font-size="20" font-style="italic" lengthAdjust="spacing" textLength="128" x="1109" y="890.7656">«value object»</text><text fill="#000000" font-family="sans-serif" font-size="20" lengthAdjust="spacing" textLength="45" x="1150.5" y="915.9219">Rank</text><line style="stroke:#181818;stroke-width:0.5;" x1="1081" x2="1237" y1="925.3164" y2="925.3164"/></g><!--class CustomerManager--><g id="elem_CustomerManager"><rect codeLine="32" fill="#F5F5DC" height="93.4688" id="CustomerManager" rx="2.5" ry="2.5" style="stroke:#181818;stroke-width:0.5;" width="197" x="1380.5" y="89.5039"/><ellipse cx="1396.5" cy="132.2383" fill="#ADD1B2" rx="12" ry="12" style="stroke:#181818;stroke-width:1.0;"/><path d="M1394.4531,133.3008 L1394.4531,136.2383 L1399.5469,136.2383 L1399.5469,135.1445 Q1399.5469,134.4258 1399.8281,134.1289 Q1400.1094,133.8164 1400.5625,133.8164 Q1401,133.8164 1401.2813,134.1289 Q1401.5625,134.4258 1401.5625,135.1445 L1401.5625,138.2383 L1392.125,138.2383 Q1391.4063,138.2383 1391.0938,137.957 Q1390.7969,137.6758 1390.7969,137.2383 Q1390.7969,136.7852 1391.1094,136.5195 Q1391.4219,136.2383 1392.125,136.2383 L1392.4375,136.2383 L1392.4375,128.4102 L1392.125,128.4102 Q1391.4063,128.4102 1391.0938,128.1289 Q1390.7969,127.8477 1390.7969,127.3945 Q1390.7969,126.9414 1391.0938,126.6758 Q1391.4063,126.3945 1392.125,126.3945 L1401.1094,126.3945 L1401.1094,129.4414 Q1401.1094,130.1602 1400.8281,130.4727 Q1400.5625,130.7695 1400.125,130.7695 Q1399.6719,130.7695 1399.3906,130.4727 Q1399.1094,130.1758 1399.1094,129.4414 L1399.1094,128.4102 L1394.4531,128.4102 L1394.4531,131.3008 L1396.2031,131.3008 Q1396.2031,130.5195 1396.3438,130.2852 Q1396.6563,129.8164 1397.2031,129.8164 Q1397.6563,129.8164 1397.9219,130.1289 Q1398.2031,130.4258 1398.2031,131.1445 L1398.2031,133.457 Q1398.2031,134.1133 1398.0469,134.332 Q1397.7344,134.7852 1397.2031,134.7852 Q1396.6563,134.7852 1396.3438,134.3164 Q1396.2031,134.082 1396.2031,133.3008 L1394.4531,133.3008 Z " fill="#000000"/><text fill="#000000" font-family="sans-serif" font-size="20" font-style="italic" lengthAdjust="spacing" textLength="69" x="1458.5" y="115.2656">«entity»</text><text fill="#000000" font-family="sans-serif" font-size="20" font-style="italic" lengthAdjust="spacing" textLength="56" x="1465" y="140.4219">«root»</text><text fill="#000000" font-family="sans-serif" font-size="20" lengthAdjust="spacing" textLength="163" x="1411.5" y="165.5781">CustomerManager</text><line style="stroke:#181818;stroke-width:0.5;" x1="1381.5" x2="1576.5" y1="174.9727" y2="174.9727"/></g><!--class Entity--><g id="elem_Entity"><rect codeLine="35" fill="#F5F5DC" height="93.4688" id="Entity" rx="2.5" ry="2.5" style="stroke:#181818;stroke-width:0.5;" width="99" x="1429.5" y="301.5039"/><ellipse cx="1445.5" cy="344.2383" fill="#ADD1B2" rx="12" ry="12" style="stroke:#181818;stroke-width:1.0;"/><path d="M1443.4531,345.3008 L1443.4531,348.2383 L1448.5469,348.2383 L1448.5469,347.1445 Q1448.5469,346.4258 1448.8281,346.1289 Q1449.1094,345.8164 1449.5625,345.8164 Q1450,345.8164 1450.2813,346.1289 Q1450.5625,346.4258 1450.5625,347.1445 L1450.5625,350.2383 L1441.125,350.2383 Q1440.4063,350.2383 1440.0938,349.957 Q1439.7969,349.6758 1439.7969,349.2383 Q1439.7969,348.7852 1440.1094,348.5195 Q1440.4219,348.2383 1441.125,348.2383 L1441.4375,348.2383 L1441.4375,340.4102 L1441.125,340.4102 Q1440.4063,340.4102 1440.0938,340.1289 Q1439.7969,339.8477 1439.7969,339.3945 Q1439.7969,338.9414 1440.0938,338.6758 Q1440.4063,338.3945 1441.125,338.3945 L1450.1094,338.3945 L1450.1094,341.4414 Q1450.1094,342.1602 1449.8281,342.4727 Q1449.5625,342.7695 1449.125,342.7695 Q1448.6719,342.7695 1448.3906,342.4727 Q1448.1094,342.1758 1448.1094,341.4414 L1448.1094,340.4102 L1443.4531,340.4102 L1443.4531,343.3008 L1445.2031,343.3008 Q1445.2031,342.5195 1445.3438,342.2852 Q1445.6563,341.8164 1446.2031,341.8164 Q1446.6563,341.8164 1446.9219,342.1289 Q1447.2031,342.4258 1447.2031,343.1445 L1447.2031,345.457 Q1447.2031,346.1133 1447.0469,346.332 Q1446.7344,346.7852 1446.2031,346.7852 Q1445.6563,346.7852 1445.3438,346.3164 Q1445.2031,346.082 1445.2031,345.3008 L1443.4531,345.3008 Z " fill="#000000"/><text fill="#000000" font-family="sans-serif" font-size="20" font-style="italic" lengthAdjust="spacing" textLength="69" x="1458.5" y="327.2656">«entity»</text><text fill="#000000" font-family="sans-serif" font-size="20" font-style="italic" lengthAdjust="spacing" textLength="56" x="1465" y="352.4219">«root»</text><text fill="#000000" font-family="sans-serif" font-size="20" lengthAdjust="spacing" textLength="49" x="1468.5" y="377.5781">Entity</text><line style="stroke:#181818;stroke-width:0.5;" x1="1430.5" x2="1527.5" y1="386.9727" y2="386.9727"/></g><!--class CustomerCode--><g id="elem_CustomerCode"><rect codeLine="36" fill="#F5F5DC" height="93.4688" id="CustomerCode" rx="2.5" ry="2.5" style="stroke:#181818;stroke-width:0.5;" width="166" x="1429" y="511.5039"/><ellipse cx="1445" cy="554.2383" fill="#FF8B40" rx="12" ry="12" style="stroke:#181818;stroke-width:1.0;"/><path d="M1445.5,558.3164 L1448.3906,551.4102 L1447.9375,551.4102 Q1447.2188,551.4102 1446.9063,551.1289 Q1446.5938,550.8477 1446.5938,550.3945 Q1446.5938,549.9414 1446.9063,549.6758 Q1447.2188,549.3945 1447.9375,549.3945 L1450.625,549.3945 Q1451.3438,549.3945 1451.6563,549.6758 Q1451.9688,549.9414 1451.9688,550.3945 Q1451.9688,550.9414 1451.5,551.2539 Q1451.2656,551.4102 1450.5781,551.4102 L1446.4688,561.2383 L1444.5469,561.2383 L1440.4375,551.4102 Q1439.7344,551.4102 1439.5156,551.2539 Q1439.0469,550.9414 1439.0469,550.3945 Q1439.0469,549.9414 1439.3594,549.6758 Q1439.6563,549.3945 1440.375,549.3945 L1443.0781,549.3945 Q1443.7969,549.3945 1444.0938,549.6758 Q1444.4063,549.9414 1444.4063,550.3945 Q1444.4063,550.8477 1444.1094,551.1289 Q1443.8125,551.4102 1443.0781,551.4102 L1442.6094,551.4102 L1445.5,558.3164 Z " fill="#000000"/><text fill="#000000" font-family="sans-serif" font-size="20" font-style="italic" lengthAdjust="spacing" textLength="128" x="1462" y="537.2656">«value object»</text><text fill="#000000" font-family="sans-serif" font-size="20" font-style="italic" lengthAdjust="spacing" textLength="99" x="1476.5" y="562.4219">«identifier»</text><text fill="#000000" font-family="sans-serif" font-size="20" lengthAdjust="spacing" textLength="132" x="1460" y="587.5781">CustomerCode</text><line style="stroke:#181818;stroke-width:0.5;" x1="1430" x2="1594" y1="596.9727" y2="596.9727"/></g><!--class CompanyName--><g id="elem_CompanyName"><rect codeLine="37" fill="#F5F5DC" height="68.3125" id="CompanyName" rx="2.5" ry="2.5" style="stroke:#181818;stroke-width:0.5;" width="168" x="1630" y="524.0039"/><ellipse cx="1646" cy="554.1602" fill="#FF8B40" rx="12" ry="12" style="stroke:#181818;stroke-width:1.0;"/><path d="M1646.5,558.2383 L1649.3906,551.332 L1648.9375,551.332 Q1648.2188,551.332 1647.9063,551.0508 Q1647.5938,550.7695 1647.5938,550.3164 Q1647.5938,549.8633 1647.9063,549.5977 Q1648.2188,549.3164 1648.9375,549.3164 L1651.625,549.3164 Q1652.3438,549.3164 1652.6563,549.5977 Q1652.9688,549.8633 1652.9688,550.3164 Q1652.9688,550.8633 1652.5,551.1758 Q1652.2656,551.332 1651.5781,551.332 L1647.4688,561.1602 L1645.5469,561.1602 L1641.4375,551.332 Q1640.7344,551.332 1640.5156,551.1758 Q1640.0469,550.8633 1640.0469,550.3164 Q1640.0469,549.8633 1640.3594,549.5977 Q1640.6563,549.3164 1641.375,549.3164 L1644.0781,549.3164 Q1644.7969,549.3164 1645.0938,549.5977 Q1645.4063,549.8633 1645.4063,550.3164 Q1645.4063,550.7695 1645.1094,551.0508 Q1644.8125,551.332 1644.0781,551.332 L1643.6094,551.332 L1646.5,558.2383 Z " fill="#000000"/><text fill="#000000" font-family="sans-serif" font-size="20" font-style="italic" lengthAdjust="spacing" textLength="128" x="1664" y="549.7656">«value object»</text><text fill="#000000" font-family="sans-serif" font-size="20" lengthAdjust="spacing" textLength="134" x="1661" y="574.9219">CompanyName</text><line style="stroke:#181818;stroke-width:0.5;" x1="1631" x2="1797" y1="584.3164" y2="584.3164"/></g><!--class Customer--><g id="elem_Customer"><rect codeLine="40" fill="#F5F5DC" height="93.4688" id="Customer" rx="2.5" ry="2.5" style="stroke:#181818;stroke-width:0.5;" width="119" x="529.5" y="89.5039"/><ellipse cx="545.5" cy="132.2383" fill="#ADD1B2" rx="12" ry="12" style="stroke:#181818;stroke-width:1.0;"/><path d="M543.4531,133.3008 L543.4531,136.2383 L548.5469,136.2383 L548.5469,135.1445 Q548.5469,134.4258 548.8281,134.1289 Q549.1094,133.8164 549.5625,133.8164 Q550,133.8164 550.2813,134.1289 Q550.5625,134.4258 550.5625,135.1445 L550.5625,138.2383 L541.125,138.2383 Q540.4063,138.2383 540.0938,137.957 Q539.7969,137.6758 539.7969,137.2383 Q539.7969,136.7852 540.1094,136.5195 Q540.4219,136.2383 541.125,136.2383 L541.4375,136.2383 L541.4375,128.4102 L541.125,128.4102 Q540.4063,128.4102 540.0938,128.1289 Q539.7969,127.8477 539.7969,127.3945 Q539.7969,126.9414 540.0938,126.6758 Q540.4063,126.3945 541.125,126.3945 L550.1094,126.3945 L550.1094,129.4414 Q550.1094,130.1602 549.8281,130.4727 Q549.5625,130.7695 549.125,130.7695 Q548.6719,130.7695 548.3906,130.4727 Q548.1094,130.1758 548.1094,129.4414 L548.1094,128.4102 L543.4531,128.4102 L543.4531,131.3008 L545.2031,131.3008 Q545.2031,130.5195 545.3438,130.2852 Q545.6563,129.8164 546.2031,129.8164 Q546.6563,129.8164 546.9219,130.1289 Q547.2031,130.4258 547.2031,131.1445 L547.2031,133.457 Q547.2031,134.1133 547.0469,134.332 Q546.7344,134.7852 546.2031,134.7852 Q545.6563,134.7852 545.3438,134.3164 Q545.2031,134.082 545.2031,133.3008 L543.4531,133.3008 Z " fill="#000000"/><text fill="#000000" font-family="sans-serif" font-size="20" font-style="italic" lengthAdjust="spacing" textLength="69" x="568.5" y="115.2656">«entity»</text><text fill="#000000" font-family="sans-serif" font-size="20" font-style="italic" lengthAdjust="spacing" textLength="56" x="575" y="140.4219">«root»</text><text fill="#000000" font-family="sans-serif" font-size="20" lengthAdjust="spacing" textLength="85" x="560.5" y="165.5781">Customer</text><line style="stroke:#181818;stroke-width:0.5;" x1="530.5" x2="647.5" y1="174.9727" y2="174.9727"/></g><!--class Address--><g id="elem_Address"><rect codeLine="12" fill="#F5F5DC" height="68.3125" id="Address" rx="2.5" ry="2.5" style="stroke:#181818;stroke-width:0.5;" width="158" x="7" y="865.0039"/><ellipse cx="23" cy="895.1602" fill="#FF8B40" rx="12" ry="12" style="stroke:#181818;stroke-width:1.0;"/><path d="M23.5,899.2383 L26.3906,892.332 L25.9375,892.332 Q25.2188,892.332 24.9063,892.0508 Q24.5938,891.7695 24.5938,891.3164 Q24.5938,890.8633 24.9063,890.5977 Q25.2188,890.3164 25.9375,890.3164 L28.625,890.3164 Q29.3438,890.3164 29.6563,890.5977 Q29.9688,890.8633 29.9688,891.3164 Q29.9688,891.8633 29.5,892.1758 Q29.2656,892.332 28.5781,892.332 L24.4688,902.1602 L22.5469,902.1602 L18.4375,892.332 Q17.7344,892.332 17.5156,892.1758 Q17.0469,891.8633 17.0469,891.3164 Q17.0469,890.8633 17.3594,890.5977 Q17.6563,890.3164 18.375,890.3164 L21.0781,890.3164 Q21.7969,890.3164 22.0938,890.5977 Q22.4063,890.8633 22.4063,891.3164 Q22.4063,891.7695 22.1094,892.0508 Q21.8125,892.332 21.0781,892.332 L20.6094,892.332 L23.5,899.2383 Z " fill="#000000"/><text fill="#000000" font-family="sans-serif" font-size="20" font-style="italic" lengthAdjust="spacing" textLength="128" x="36" y="890.7656">«value object»</text><text fill="#000000" font-family="sans-serif" font-size="20" lengthAdjust="spacing" textLength="73" x="63.5" y="915.9219">Address</text><line style="stroke:#181818;stroke-width:0.5;" x1="8" x2="164" y1="925.3164" y2="925.3164"/></g><!--link Entity to JobOpening--><g id="link_Entity_JobOpening"><path codeLine="46" d="M1429.23,364.8039 C1315.09,401.0539 1033.92,490.3439 898.83,533.2439 " fill="none" id="Entity-to-JobOpening" style="stroke:#222222;stroke-width:1.0;"/><polygon fill="#222222" points="893.69,534.8739,903.4793,535.9556,898.4544,533.3573,901.0527,528.3325,893.69,534.8739" style="stroke:#222222;stroke-width:1.0;"/><text fill="#000000" font-family="sans-serif" font-size="20" lengthAdjust="spacing" textLength="52" x="1230" y="446.2656">sends</text><text fill="#000000" font-family="sans-serif" font-size="20" lengthAdjust="spacing" textLength="31" x="901.5435" y="554.6413">1..*</text></g><!--link Entity to CompanyName--><g id="link_Entity_CompanyName"><path codeLine="47" d="M1528.77,369.0839 C1557.19,382.1339 1592.36,401.0639 1619,424.5039 C1649.86,451.6639 1676.28,490.6539 1693.37,519.3039 " fill="none" id="Entity-to-CompanyName" style="stroke:#222222;stroke-width:1.0;"/><polygon fill="#222222" points="1696.03,523.8139,1694.8919,514.031,1693.4849,519.5101,1688.0058,518.1032,1696.03,523.8139" style="stroke:#222222;stroke-width:1.0;"/><text fill="#000000" font-family="sans-serif" font-size="20" lengthAdjust="spacing" textLength="133" x="1644" y="446.2656">is described by</text><text fill="#000000" font-family="sans-serif" font-size="20" lengthAdjust="spacing" textLength="11" x="1680.9961" y="511.5374">1</text></g><!--link Entity to Address--><g id="link_Entity_Address"><path codeLine="48" d="M1429.25,377.8539 C1415.64,384.4739 1400.61,390.6839 1386,394.5039 C1135.98,459.8039 446.98,327.2339 225,459.5039 C85.93,542.3739 79.95,768.9539 83.48,859.6839 " fill="none" id="Entity-to-Address" style="stroke:#222222;stroke-width:1.0;"/><polygon fill="#222222" points="83.7,864.9439,87.3098,855.7804,83.4853,859.9485,79.3172,856.124,83.7,864.9439" style="stroke:#222222;stroke-width:1.0;"/><text fill="#000000" font-family="sans-serif" font-size="20" lengthAdjust="spacing" textLength="107" x="107" y="658.2656">is located at</text><text fill="#000000" font-family="sans-serif" font-size="20" lengthAdjust="spacing" textLength="11" x="71.3594" y="852.6897">1</text></g><!--link Entity to CustomerCode--><g id="link_Entity_CustomerCode"><path codeLine="49" d="M1481.67,394.5739 C1483.06,412.4039 1485.09,432.9739 1488,451.5039 C1490.81,469.4139 1494.91,488.8139 1498.93,506.0339 " fill="none" id="Entity-to-CustomerCode" style="stroke:#222222;stroke-width:1.0;"/><polygon fill="#222222" points="1500.18,511.3039,1502.0123,501.627,1499.0348,506.4368,1494.225,503.4593,1500.18,511.3039" style="stroke:#222222;stroke-width:1.0;"/><text fill="#000000" font-family="sans-serif" font-size="20" lengthAdjust="spacing" textLength="125" x="1489" y="446.2656">is identified by</text><text fill="#000000" font-family="sans-serif" font-size="20" lengthAdjust="spacing" textLength="11" x="1486.8526" y="499.0896">1</text></g><!--link CustomerManager to Entity--><g id="link_CustomerManager_Entity"><path codeLine="51" d="M1479,182.5739 C1479,216.0239 1479,261.4939 1479,296.1339 " fill="none" id="CustomerManager-to-Entity" style="stroke:#222222;stroke-width:1.0;"/><polygon fill="#222222" points="1479,301.1639,1483,292.1639,1479,296.1639,1475,292.1639,1479,301.1639" style="stroke:#222222;stroke-width:1.0;"/><text fill="#000000" font-family="sans-serif" font-size="20" lengthAdjust="spacing" textLength="80" x="1480" y="236.2656">manages</text><text fill="#000000" font-family="sans-serif" font-size="20" lengthAdjust="spacing" textLength="31" x="1445.9172" y="288.9308">1..*</text></g><!--link CustomerManager to JobOpening--><g id="link_CustomerManager_JobOpening"><path codeLine="52" d="M1407.97,182.5539 C1283.1,262.6139 1025.47,427.8139 898.32,509.3539 " fill="none" id="CustomerManager-to-JobOpening" style="stroke:#222222;stroke-width:1.0;"/><polygon fill="#222222" points="893.85,512.2139,903.5859,510.7268,898.0601,509.5166,899.2703,503.9907,893.85,512.2139" style="stroke:#222222;stroke-width:1.0;"/><text fill="#000000" font-family="sans-serif" font-size="20" lengthAdjust="spacing" textLength="77" x="1300" y="356.2656">registers</text><text fill="#000000" font-family="sans-serif" font-size="20" lengthAdjust="spacing" textLength="31" x="901.4515" y="529.9968">1..*</text></g><!--link CustomerManager to RequirementSpecification--><g id="link_CustomerManager_RequirementSpecification"><path codeLine="53" d="M1577.66,147.4339 C1692.91,165.7239 1868,215.1939 1868,347.0039 C1868,347.0039 1868,347.0039 1868,728.5039 C1868,775.6339 1836.1,817.9539 1804.15,848.5139 " fill="none" id="CustomerManager-to-RequirementSpecification" style="stroke:#222222;stroke-width:1.0;"/><polygon fill="#222222" points="1800.25,852.1839,1809.5389,848.9102,1803.8843,848.7499,1804.0445,843.0954,1800.25,852.1839" style="stroke:#222222;stroke-width:1.0;"/><text fill="#000000" font-family="sans-serif" font-size="20" lengthAdjust="spacing" textLength="62" x="1869" y="566.2656">selects</text><text fill="#000000" font-family="sans-serif" font-size="20" lengthAdjust="spacing" textLength="31" x="1775.2633" y="839.9535">1..*</text></g><!--link Customer to Entity--><g id="link_Customer_Entity"><path codeLine="55" d="M648.78,151.1039 C812.54,189.7539 1266.68,296.9039 1424.28,334.0939 " fill="none" id="Customer-to-Entity" style="stroke:#222222;stroke-width:1.0;"/><polygon fill="#222222" points="1429.31,335.2839,1421.4781,329.3122,1424.4454,334.1284,1419.6292,337.0957,1429.31,335.2839" style="stroke:#222222;stroke-width:1.0;"/><text fill="#000000" font-family="sans-serif" font-size="20" lengthAdjust="spacing" textLength="94" x="1008" y="236.2656">represents</text><text fill="#000000" font-family="sans-serif" font-size="20" lengthAdjust="spacing" textLength="11" x="1410.5489" y="327.4771">1</text></g><!--link JobOpening to JobReference--><g id="link_JobOpening_JobReference"><path codeLine="57" d="M849.78,604.5939 C863.78,630.2739 880.86,663.1939 894,693.5039 C916.23,744.7739 936.89,805.3539 950.33,847.2039 " fill="none" id="JobOpening-to-JobReference" style="stroke:#222222;stroke-width:1.0;"/><polygon fill="#222222" points="951.93,852.2139,953.0201,842.4256,950.4175,847.4482,945.3949,844.8455,951.93,852.2139" style="stroke:#222222;stroke-width:1.0;"/><text fill="#000000" font-family="sans-serif" font-size="20" lengthAdjust="spacing" textLength="70" x="921" y="735.7656">includes</text><text fill="#000000" font-family="sans-serif" font-size="20" lengthAdjust="spacing" textLength="11" x="938.3003" y="839.9875">1</text></g><!--link JobOpening to Mode--><g id="link_JobOpening_Mode"><path codeLine="58" d="M754.1,586.6239 C718.98,600.8839 675.93,618.9339 638,636.5039 C601.34,653.4839 561.19,673.8739 528.5,690.9539 " fill="none" id="JobOpening-to-Mode" style="stroke:#222222;stroke-width:1.0;"/><polygon fill="#222222" points="523.73,693.4439,533.5599,692.8336,528.1644,691.134,529.8641,685.7385,523.73,693.4439" style="stroke:#222222;stroke-width:1.0;"/><text fill="#000000" font-family="sans-serif" font-size="20" lengthAdjust="spacing" textLength="70" x="639" y="658.2656">includes</text><text fill="#000000" font-family="sans-serif" font-size="20" lengthAdjust="spacing" textLength="11" x="522.3945" y="681.1897">1</text></g><!--link JobOpening to NumberVacancy--><g id="link_JobOpening_NumberVacancy"><path codeLine="59" d="M774.88,604.5939 C764.18,614.9039 753.06,625.9339 743,636.5039 C726.97,653.3439 709.97,672.7639 695.94,689.2339 " fill="none" id="JobOpening-to-NumberVacancy" style="stroke:#222222;stroke-width:1.0;"/><polygon fill="#222222" points="692.44,693.3639,701.3249,689.1145,695.6857,689.5606,695.2396,683.9213,692.44,693.3639" style="stroke:#222222;stroke-width:1.0;"/><text fill="#000000" font-family="sans-serif" font-size="20" lengthAdjust="spacing" textLength="70" x="744" y="658.2656">includes</text><text fill="#000000" font-family="sans-serif" font-size="20" lengthAdjust="spacing" textLength="11" x="685.2109" y="681.0959">1</text></g><!--link JobOpening to Address--><g id="link_JobOpening_Address"><path codeLine="60" d="M754.27,565.0339 C608.07,579.0539 276.21,618.4939 195,693.5039 C144.81,739.8639 113.25,814.6939 97.68,859.8339 " fill="none" id="JobOpening-to-Address" style="stroke:#222222;stroke-width:1.0;"/><polygon fill="#222222" points="96.04,864.6539,102.7332,857.4289,97.6554,859.9221,95.1622,854.8442,96.04,864.6539" style="stroke:#222222;stroke-width:1.0;"/><text fill="#000000" font-family="sans-serif" font-size="20" lengthAdjust="spacing" textLength="70" x="196" y="735.7656">includes</text><text fill="#000000" font-family="sans-serif" font-size="20" lengthAdjust="spacing" textLength="11" x="85.7919" y="852.6432">1</text></g><!--link JobOpening to JobFunction--><g id="link_JobOpening_JobFunction"><path codeLine="61" d="M893.68,573.0639 C953.87,586.2339 1042.64,608.1339 1117,636.5039 C1156.46,651.5539 1198.68,672.8139 1231.99,690.8839 " fill="none" id="JobOpening-to-JobFunction" style="stroke:#222222;stroke-width:1.0;"/><polygon fill="#222222" points="1236.42,693.3039,1230.4451,685.4745,1232.0338,690.9036,1226.6046,692.4924,1236.42,693.3039" style="stroke:#222222;stroke-width:1.0;"/><text fill="#000000" font-family="sans-serif" font-size="20" lengthAdjust="spacing" textLength="70" x="1177" y="658.2656">includes</text><text fill="#000000" font-family="sans-serif" font-size="20" lengthAdjust="spacing" textLength="11" x="1214.5781" y="681.0256">1</text></g><!--link JobOpening to Description--><g id="link_JobOpening_Description"><path codeLine="62" d="M823.26,604.6439 C822.59,622.9939 821.33,644.3039 819,663.5039 C810.51,733.4439 793.05,813.7739 782.25,859.9439 " fill="none" id="JobOpening-to-Description" style="stroke:#222222;stroke-width:1.0;"/><polygon fill="#222222" points="781.09,864.8539,787.0399,857.0054,782.232,859.9861,779.2514,855.1782,781.09,864.8539" style="stroke:#222222;stroke-width:1.0;"/><text fill="#000000" font-family="sans-serif" font-size="20" lengthAdjust="spacing" textLength="70" x="815" y="735.7656">includes</text><text fill="#000000" font-family="sans-serif" font-size="20" lengthAdjust="spacing" textLength="11" x="770.5352" y="852.5842">1</text></g><!--link JobOpening to ContractType--><g id="link_JobOpening_ContractType"><path codeLine="63" d="M754.48,566.2039 C623.98,581.3139 350.36,621.0539 294,693.5039 C256.79,741.3339 280.18,815.3639 300.28,860.0039 " fill="none" id="JobOpening-to-ContractType" style="stroke:#222222;stroke-width:1.0;"/><polygon fill="#222222" points="302.46,864.7639,302.3656,854.9155,300.3856,860.2145,295.0866,858.2345,302.46,864.7639" style="stroke:#222222;stroke-width:1.0;"/><text fill="#000000" font-family="sans-serif" font-size="20" lengthAdjust="spacing" textLength="70" x="295" y="735.7656">includes</text><text fill="#000000" font-family="sans-serif" font-size="20" lengthAdjust="spacing" textLength="11" x="287.5" y="852.4788">1</text></g><!--link JobOpening to RequirementSpecification--><g id="link_JobOpening_RequirementSpecification"><path codeLine="64" d="M893.56,566.6539 C979.86,577.2439 1130.91,599.3739 1256,636.5039 C1318.44,655.0339 1332.78,664.3139 1391,693.5039 C1487.75,742.0139 1594.49,806.2339 1664.14,849.6639 " fill="none" id="JobOpening-to-RequirementSpecification" style="stroke:#222222;stroke-width:1.0;"/><polygon fill="#222222" points="1668.67,852.4939,1663.1654,844.3269,1664.4324,849.8401,1658.9193,851.1071,1668.67,852.4939" style="stroke:#222222;stroke-width:1.0;"/><text fill="#000000" font-family="sans-serif" font-size="20" lengthAdjust="spacing" textLength="70" x="1517" y="735.7656">includes</text><text fill="#000000" font-family="sans-serif" font-size="20" lengthAdjust="spacing" textLength="11" x="1646.8658" y="839.9354">1</text></g><!--link JobOpening to Rank--><g id="link_JobOpening_Rank"><path codeLine="65" d="M892.07,604.7339 C926.17,629.1639 967.1,660.8739 1000,693.5039 C1053.41,746.4739 1104.9,817.5139 1134.18,860.4139 " fill="none" id="JobOpening-to-Rank" style="stroke:#222222;stroke-width:1.0;"/><polygon fill="#222222" points="1137.12,864.7339,1135.3559,855.0443,1134.3038,860.6025,1128.7456,859.5503,1137.12,864.7339" style="stroke:#222222;stroke-width:1.0;"/><text fill="#000000" font-family="sans-serif" font-size="20" lengthAdjust="spacing" textLength="70" x="1061" y="735.7656">includes</text><text fill="#000000" font-family="sans-serif" font-size="20" lengthAdjust="spacing" textLength="8" x="1124.8336" y="852.7364">*</text></g><!--link RequirementSpecification to RequirementName--><g id="link_RequirementSpecification_RequirementName"><path codeLine="67" d="M1718.59,945.8939 C1706.69,971.3839 1691.86,1003.1539 1679.63,1029.3739 " fill="none" id="RequirementSpecification-to-RequirementName" style="stroke:#222222;stroke-width:1.0;"/><polygon fill="#222222" points="1677.37,1034.2039,1684.794,1027.7321,1679.4797,1029.6708,1677.5411,1024.3565,1677.37,1034.2039" style="stroke:#222222;stroke-width:1.0;"/><polygon fill="#000000" points="1714.3833,983.8327,1704.0018,994.9583,1712.524,998.9355,1714.3833,983.8327" style="stroke:#000000;stroke-width:1.0;"/><text fill="#000000" font-family="sans-serif" font-size="20" lengthAdjust="spacing" textLength="77" x="1724" y="999.2656">identifies</text><text fill="#000000" font-family="sans-serif" font-size="20" lengthAdjust="spacing" textLength="11" x="1668.5025" y="1021.9762">1</text></g><!--link RequirementSpecification to RequirementDescription--><g id="link_RequirementSpecification_RequirementDescription"><path codeLine="68" d="M1783.59,945.8939 C1812.29,976.0939 1849.35,1015.1039 1876.09,1043.2539 " fill="none" id="RequirementSpecification-to-RequirementDescription" style="stroke:#222222;stroke-width:1.0;"/><polygon fill="#222222" points="1879.63,1046.9839,1876.337,1037.7019,1876.1885,1043.3568,1870.5336,1043.2083,1879.63,1046.9839" style="stroke:#222222;stroke-width:1.0;"/><polygon fill="#000000" points="1837.4898,985.2823,1844.0489,999.013,1850.8669,992.5353,1837.4898,985.2823" style="stroke:#000000;stroke-width:1.0;"/><text fill="#000000" font-family="sans-serif" font-size="20" lengthAdjust="spacing" textLength="85" x="1856" y="999.2656">describes</text><text fill="#000000" font-family="sans-serif" font-size="20" lengthAdjust="spacing" textLength="11" x="1862.293" y="1034.7366">1</text></g><!--SRC=[dLLDRzf04BtlhrYH0srK4XBrK5bM98T0cge94YQvB-l1sMBlkhlhLZJAV-_u2smtDg5Sa9ZttioycHtCHiY4QHP7YcyWe06iMHhPcPBM5t-0Nex9yDdQn3Zdvqd4f4tZw8oh-9n7p9XH85Y8P49CfKFpW6Uj5glKmXrNCXSQasSH08KuiLlAgh1f4wyPtuHQfJAOg4XfkW8HGWtaQQr-5w6Jo_n3Y1Ks0lheNup7b_H6nKn8Ugy2Y0WP-b-znVI6FddV7wTqVlrjklG9oJDHBmWquBVhVdZwT3ARVRd-FFv8Vx4e1QfMFu3Rgolwyaf8WZMn4EZ0TLaOQWYP1Gmju6SgDCGWBVKJu68jEBD2oG5z8HG_613OR0tNW67Y0e5QhgkLol9b2JDkKMAD-i1Yw2_LTT5W55mBq4NbRmhTWE5Q96K5_Qs_ag5tUxkOtdhBgT_bmpUrelC4f91XgtECb84tUsrKYDXPAlcxojgp9hYdcd6xt2Pm12tRZYFW3scy0lt4E9Dy-oxUZdgCsxJXnWBMe47o_vhwRkvCRdhv-P2x9Zj9ZLKnQ7hF98PrQxnLk8nsxlDhb_uqXxTKYn_VyJYgz9E3m-nx6HCL9qnk3p-llaQgKZeCwjj-T1_FbEVxyycTjxoRF_YaT60qkgA3YxEpqq7z8JdKW0nC4pHejE5GOV2GPuktmfE-shR1rUNBWNZuiOa0R_8_cdM3S-pEnbnrE1gHzWxKYYxK71hd8TC7tVVdK3HL60lwBSAUqNbKCtyYd9XfbBVhgMpHePWdGHEGNo1h5eygSFCPeWEIHoaQsmINsFlIfJvCyv1qWIjqRKnzelNBUKYoVeuEOHktzH2uPnxTnDECc5se6YYRHQTObQxrl-Zi5nF_pe-YrmnnTcy6HVu2]--></g></svg>