<?xml version="1.0" encoding="UTF-8" standalone="no"?><svg xmlns="http://www.w3.org/2000/svg" xmlns:xlink="http://www.w3.org/1999/xlink" contentStyleType="text/css" height="1133px" preserveAspectRatio="none" style="width:2640px;height:1133px;background:#FFFFFF;" version="1.1" viewBox="0 0 2640 1133" width="2640px" zoomAndPan="magnify"><defs/><g><text fill="#000000" font-family="sans-serif" font-size="14" font-weight="bold" lengthAdjust="spacing" textLength="163" x="1231.5" y="24.5332">US1015 - Class Diagram</text><!--class AbstractUI--><g id="elem_AbstractUI"><rect codeLine="7" fill="#F1F1F1" height="126.625" id="AbstractUI" rx="2.5" ry="2.5" style="stroke:#181818;stroke-width:0.5;" width="126" x="1288" y="45.6094"/><ellipse cx="1304.45" cy="63.1875" fill="#A9DCDF" rx="12" ry="12" style="stroke:#181818;stroke-width:1.0;"/><path d="M1306.9031,65.2188 L1302.0281,65.2188 L1301.5438,66.4375 L1302.0281,66.4375 Q1302.7625,66.4375 1303.0594,66.7188 Q1303.3719,66.9844 1303.3719,67.4375 Q1303.3719,67.875 1303.0594,68.1563 Q1302.7625,68.4375 1302.0281,68.4375 L1299.3406,68.4375 Q1298.6219,68.4375 1298.3094,68.1563 Q1297.9969,67.875 1297.9969,67.4375 Q1297.9969,66.9844 1298.325,66.7031 Q1298.6531,66.4219 1299.3875,66.4375 L1302.5281,58.6094 L1301.2313,58.6094 Q1300.4969,58.6094 1300.1844,58.3281 Q1299.8875,58.0469 1299.8875,57.5938 Q1299.8875,57.1406 1300.1844,56.875 Q1300.4969,56.5938 1301.2313,56.5938 L1305.5438,56.5938 L1309.5281,66.4375 Q1310.2313,66.4375 1310.4656,66.5938 Q1310.9188,66.9063 1310.9188,67.4375 Q1310.9188,67.875 1310.6063,68.1563 Q1310.3094,68.4375 1309.5906,68.4375 L1306.8875,68.4375 Q1306.1688,68.4375 1305.8563,68.1563 Q1305.5438,67.875 1305.5438,67.4375 Q1305.5438,66.9844 1305.8563,66.7188 Q1306.1688,66.4375 1306.8875,66.4375 L1307.3719,66.4375 L1306.9031,65.2188 Z M1306.075,63.2188 L1304.45,59.25 L1302.8406,63.2188 L1306.075,63.2188 Z " fill="#000000"/><text fill="#000000" font-family="sans-serif" font-size="20" font-style="italic" lengthAdjust="spacing" textLength="91" x="1319.55" y="71.3711">AbstractUI</text><line style="stroke:#181818;stroke-width:0.5;" x1="1289" x2="1413" y1="80.7656" y2="80.7656"/><line style="stroke:#181818;stroke-width:0.5;" x1="1289" x2="1413" y1="88.7656" y2="88.7656"/><polygon fill="#FFFF44" points="1299,101.8438,1303,105.8438,1299,109.8438,1295,105.8438" style="stroke:#B38D22;stroke-width:1.0;"/><text fill="#000000" font-family="sans-serif" font-size="20" lengthAdjust="spacing" textLength="85" x="1309" y="113.5273">doShow()</text><polygon fill="#FFFF44" points="1299,127,1303,131,1299,135,1295,131" style="stroke:#B38D22;stroke-width:1.0;"/><text fill="#000000" font-family="sans-serif" font-size="20" lengthAdjust="spacing" textLength="60" x="1309" y="138.6836">show()</text><polygon fill="#FFFF44" points="1299,152.1563,1303,156.1563,1299,160.1563,1295,156.1563" style="stroke:#B38D22;stroke-width:1.0;"/><text fill="#000000" font-family="sans-serif" font-size="20" lengthAdjust="spacing" textLength="99" x="1309" y="163.8398">mainLoop()</text></g><!--class VerifyRequirementUI--><g id="elem_VerifyRequirementUI"><rect codeLine="13" fill="#F1F1F1" height="76.3125" id="VerifyRequirementUI" rx="2.5" ry="2.5" style="stroke:#181818;stroke-width:0.5;" width="215" x="1243.5" y="232.6094"/><ellipse cx="1259.5" cy="250.1875" fill="#ADD1B2" rx="12" ry="12" style="stroke:#181818;stroke-width:1.0;"/><path d="M1261.6406,245.1094 Q1261.8281,244.8594 1262.0469,244.7344 Q1262.2656,244.5938 1262.5156,244.5938 Q1262.9531,244.5938 1263.2344,244.9063 Q1263.5156,245.2031 1263.5156,245.9219 L1263.5156,247.625 Q1263.5156,248.3438 1263.2344,248.6563 Q1262.9531,248.9688 1262.5156,248.9688 Q1262.125,248.9688 1261.875,248.7344 Q1261.625,248.5156 1261.5156,247.9063 Q1261.4531,247.4844 1261.2344,247.2656 Q1260.8438,246.8281 1260.125,246.5625 Q1259.4063,246.2969 1258.6875,246.2969 Q1257.7813,246.2969 1257.0313,246.6875 Q1256.2813,247.0781 1255.7031,247.9688 Q1255.125,248.8438 1255.125,250.0469 L1255.125,251.3438 Q1255.125,252.7969 1256.1719,253.7656 Q1257.2344,254.7344 1259.0938,254.7344 Q1260.2031,254.7344 1260.9844,254.4219 Q1261.4219,254.25 1261.9375,253.7344 Q1262.25,253.4219 1262.4219,253.3281 Q1262.5938,253.2344 1262.8281,253.2344 Q1263.2188,253.2344 1263.5156,253.5469 Q1263.8281,253.8438 1263.8281,254.25 Q1263.8281,254.6563 1263.4219,255.125 Q1262.8281,255.8125 1261.8906,256.2031 Q1260.625,256.7344 1259.1094,256.7344 Q1257.3281,256.7344 1255.9063,256 Q1254.75,255.4063 1253.9375,254.1406 Q1253.125,252.875 1253.125,251.3906 L1253.125,250.0313 Q1253.125,248.4688 1253.8438,247.125 Q1254.5781,245.7656 1255.8594,245.0313 Q1257.1563,244.2969 1258.6094,244.2969 Q1259.4688,244.2969 1260.2188,244.5 Q1260.9844,244.7031 1261.6406,245.1094 Z " fill="#000000"/><text fill="#000000" font-family="sans-serif" font-size="20" lengthAdjust="spacing" textLength="181" x="1274.5" y="258.3711">VerifyRequirementUI</text><line style="stroke:#181818;stroke-width:0.5;" x1="1244.5" x2="1457.5" y1="267.7656" y2="267.7656"/><line style="stroke:#181818;stroke-width:0.5;" x1="1244.5" x2="1457.5" y1="275.7656" y2="275.7656"/><ellipse cx="1254.5" cy="293.8438" fill="#84BE84" rx="3" ry="3" style="stroke:#038048;stroke-width:1.0;"/><text fill="#000000" font-family="sans-serif" font-size="20" lengthAdjust="spacing" textLength="85" x="1264.5" y="300.5273">doShow()</text></g><!--class VerifyRequirementsController--><g id="elem_VerifyRequirementsController"><rect codeLine="17" fill="#F1F1F1" height="126.625" id="VerifyRequirementsController" rx="2.5" ry="2.5" style="stroke:#181818;stroke-width:0.5;" width="453" x="1124.5" y="429.6094"/><ellipse cx="1218" cy="447.1875" fill="#ADD1B2" rx="12" ry="12" style="stroke:#181818;stroke-width:1.0;"/><path d="M1220.1406,442.1094 Q1220.3281,441.8594 1220.5469,441.7344 Q1220.7656,441.5938 1221.0156,441.5938 Q1221.4531,441.5938 1221.7344,441.9063 Q1222.0156,442.2031 1222.0156,442.9219 L1222.0156,444.625 Q1222.0156,445.3438 1221.7344,445.6563 Q1221.4531,445.9688 1221.0156,445.9688 Q1220.625,445.9688 1220.375,445.7344 Q1220.125,445.5156 1220.0156,444.9063 Q1219.9531,444.4844 1219.7344,444.2656 Q1219.3438,443.8281 1218.625,443.5625 Q1217.9063,443.2969 1217.1875,443.2969 Q1216.2813,443.2969 1215.5313,443.6875 Q1214.7813,444.0781 1214.2031,444.9688 Q1213.625,445.8438 1213.625,447.0469 L1213.625,448.3438 Q1213.625,449.7969 1214.6719,450.7656 Q1215.7344,451.7344 1217.5938,451.7344 Q1218.7031,451.7344 1219.4844,451.4219 Q1219.9219,451.25 1220.4375,450.7344 Q1220.75,450.4219 1220.9219,450.3281 Q1221.0938,450.2344 1221.3281,450.2344 Q1221.7188,450.2344 1222.0156,450.5469 Q1222.3281,450.8438 1222.3281,451.25 Q1222.3281,451.6563 1221.9219,452.125 Q1221.3281,452.8125 1220.3906,453.2031 Q1219.125,453.7344 1217.6094,453.7344 Q1215.8281,453.7344 1214.4063,453 Q1213.25,452.4063 1212.4375,451.1406 Q1211.625,449.875 1211.625,448.3906 L1211.625,447.0313 Q1211.625,445.4688 1212.3438,444.125 Q1213.0781,442.7656 1214.3594,442.0313 Q1215.6563,441.2969 1217.1094,441.2969 Q1217.9688,441.2969 1218.7188,441.5 Q1219.4844,441.7031 1220.1406,442.1094 Z " fill="#000000"/><text fill="#000000" font-family="sans-serif" font-size="20" lengthAdjust="spacing" textLength="257" x="1240" y="455.3711">VerifyRequirementsController</text><line style="stroke:#181818;stroke-width:0.5;" x1="1125.5" x2="1576.5" y1="464.7656" y2="464.7656"/><line style="stroke:#181818;stroke-width:0.5;" x1="1125.5" x2="1576.5" y1="472.7656" y2="472.7656"/><ellipse cx="1135.5" cy="490.8438" fill="#84BE84" rx="3" ry="3" style="stroke:#038048;stroke-width:1.0;"/><text fill="#000000" font-family="sans-serif" font-size="20" lengthAdjust="spacing" textLength="357" x="1145.5" y="497.5273">getJobOpeningList() : jobOpeningListDto</text><ellipse cx="1135.5" cy="516" fill="#84BE84" rx="3" ry="3" style="stroke:#038048;stroke-width:1.0;"/><text fill="#000000" font-family="sans-serif" font-size="20" lengthAdjust="spacing" textLength="390" x="1145.5" y="522.6836">verifyAvailableRequirements(jobOpeningDto)</text><rect fill="#F24D5C" height="6" style="stroke:#C82930;stroke-width:1.0;" width="6" x="1132.5" y="538.1563"/><text fill="#000000" font-family="sans-serif" font-size="20" lengthAdjust="spacing" textLength="426" x="1145.5" y="547.8398">verifyRequirementsOfApplications(jobReference)</text></g><!--class RequirementSpecificationPlugin--><g id="elem_RequirementSpecificationPlugin"><rect codeLine="24" fill="#F1F1F1" height="76.3125" id="RequirementSpecificationPlugin" rx="2.5" ry="2.5" style="stroke:#181818;stroke-width:0.5;" width="318" x="7" y="616.6094"/><ellipse cx="23" cy="634.1875" fill="#B4A7E5" rx="12" ry="12" style="stroke:#181818;stroke-width:1.0;"/><path d="M24,630.3594 L24,638.1875 L26.0313,638.1875 Q26.75,638.1875 27.0469,638.4688 Q27.3594,638.7344 27.3594,639.1875 Q27.3594,639.625 27.0469,639.9063 Q26.75,640.1875 26.0313,640.1875 L19.9844,640.1875 Q19.25,640.1875 18.9375,639.9063 Q18.6406,639.625 18.6406,639.1875 Q18.6406,638.7344 18.9375,638.4688 Q19.25,638.1875 19.9844,638.1875 L22,638.1875 L22,630.3594 L19.9844,630.3594 Q19.25,630.3594 18.9375,630.0781 Q18.6406,629.7969 18.6406,629.3438 Q18.6406,628.8906 18.9375,628.625 Q19.25,628.3438 19.9844,628.3438 L26.0313,628.3438 Q26.75,628.3438 27.0469,628.625 Q27.3594,628.8906 27.3594,629.3438 Q27.3594,629.7969 27.0469,630.0781 Q26.75,630.3594 26.0313,630.3594 L24,630.3594 Z " fill="#000000"/><text fill="#000000" font-family="sans-serif" font-size="20" font-style="italic" lengthAdjust="spacing" textLength="284" x="38" y="642.3711">RequirementSpecificationPlugin</text><line style="stroke:#181818;stroke-width:0.5;" x1="8" x2="324" y1="651.7656" y2="651.7656"/><line style="stroke:#181818;stroke-width:0.5;" x1="8" x2="324" y1="659.7656" y2="659.7656"/><ellipse cx="18" cy="677.8438" fill="#84BE84" rx="3" ry="3" style="stroke:#038048;stroke-width:1.0;"/><text fill="#000000" font-family="sans-serif" font-size="20" lengthAdjust="spacing" textLength="223" x="28" y="684.5273">evaluateFile(file) : Integer</text></g><!--class ApplicationRepository--><g id="elem_ApplicationRepository"><rect codeLine="28" fill="#F1F1F1" height="76.3125" id="ApplicationRepository" rx="2.5" ry="2.5" style="stroke:#181818;stroke-width:0.5;" width="760" x="360" y="616.6094"/><ellipse cx="639" cy="634.1875" fill="#B4A7E5" rx="12" ry="12" style="stroke:#181818;stroke-width:1.0;"/><path d="M640,630.3594 L640,638.1875 L642.0313,638.1875 Q642.75,638.1875 643.0469,638.4688 Q643.3594,638.7344 643.3594,639.1875 Q643.3594,639.625 643.0469,639.9063 Q642.75,640.1875 642.0313,640.1875 L635.9844,640.1875 Q635.25,640.1875 634.9375,639.9063 Q634.6406,639.625 634.6406,639.1875 Q634.6406,638.7344 634.9375,638.4688 Q635.25,638.1875 635.9844,638.1875 L638,638.1875 L638,630.3594 L635.9844,630.3594 Q635.25,630.3594 634.9375,630.0781 Q634.6406,629.7969 634.6406,629.3438 Q634.6406,628.8906 634.9375,628.625 Q635.25,628.3438 635.9844,628.3438 L642.0313,628.3438 Q642.75,628.3438 643.0469,628.625 Q643.3594,628.8906 643.3594,629.3438 Q643.3594,629.7969 643.0469,630.0781 Q642.75,630.3594 642.0313,630.3594 L640,630.3594 Z " fill="#000000"/><text fill="#000000" font-family="sans-serif" font-size="20" font-style="italic" lengthAdjust="spacing" textLength="193" x="661" y="642.3711">ApplicationRepository</text><line style="stroke:#181818;stroke-width:0.5;" x1="361" x2="1119" y1="651.7656" y2="651.7656"/><line style="stroke:#181818;stroke-width:0.5;" x1="361" x2="1119" y1="659.7656" y2="659.7656"/><ellipse cx="371" cy="677.8438" fill="#84BE84" rx="3" ry="3" style="stroke:#038048;stroke-width:1.0;"/><text fill="#000000" font-family="sans-serif" font-size="20" lengthAdjust="spacing" textLength="733" x="381" y="684.5273">applicationsForJobOpeningWithRequirements(jobReference) : Iterable&lt;Application&gt;</text></g><!--class Application--><g id="elem_Application"><rect codeLine="32" fill="#F1F1F1" height="76.3125" id="Application" rx="2.5" ry="2.5" style="stroke:#181818;stroke-width:0.5;" width="315" x="541.5" y="888.6094"/><ellipse cx="647" cy="906.1875" fill="#ADD1B2" rx="12" ry="12" style="stroke:#181818;stroke-width:1.0;"/><path d="M649.1406,901.1094 Q649.3281,900.8594 649.5469,900.7344 Q649.7656,900.5938 650.0156,900.5938 Q650.4531,900.5938 650.7344,900.9063 Q651.0156,901.2031 651.0156,901.9219 L651.0156,903.625 Q651.0156,904.3438 650.7344,904.6563 Q650.4531,904.9688 650.0156,904.9688 Q649.625,904.9688 649.375,904.7344 Q649.125,904.5156 649.0156,903.9063 Q648.9531,903.4844 648.7344,903.2656 Q648.3438,902.8281 647.625,902.5625 Q646.9063,902.2969 646.1875,902.2969 Q645.2813,902.2969 644.5313,902.6875 Q643.7813,903.0781 643.2031,903.9688 Q642.625,904.8438 642.625,906.0469 L642.625,907.3438 Q642.625,908.7969 643.6719,909.7656 Q644.7344,910.7344 646.5938,910.7344 Q647.7031,910.7344 648.4844,910.4219 Q648.9219,910.25 649.4375,909.7344 Q649.75,909.4219 649.9219,909.3281 Q650.0938,909.2344 650.3281,909.2344 Q650.7188,909.2344 651.0156,909.5469 Q651.3281,909.8438 651.3281,910.25 Q651.3281,910.6563 650.9219,911.125 Q650.3281,911.8125 649.3906,912.2031 Q648.125,912.7344 646.6094,912.7344 Q644.8281,912.7344 643.4063,912 Q642.25,911.4063 641.4375,910.1406 Q640.625,908.875 640.625,907.3906 L640.625,906.0313 Q640.625,904.4688 641.3438,903.125 Q642.0781,901.7656 643.3594,901.0313 Q644.6563,900.2969 646.1094,900.2969 Q646.9688,900.2969 647.7188,900.5 Q648.4844,900.7031 649.1406,901.1094 Z " fill="#000000"/><text fill="#000000" font-family="sans-serif" font-size="20" lengthAdjust="spacing" textLength="95" x="669" y="914.3711">Application</text><line style="stroke:#181818;stroke-width:0.5;" x1="542.5" x2="855.5" y1="923.7656" y2="923.7656"/><line style="stroke:#181818;stroke-width:0.5;" x1="542.5" x2="855.5" y1="931.7656" y2="931.7656"/><ellipse cx="552.5" cy="949.8438" fill="#84BE84" rx="3" ry="3" style="stroke:#038048;stroke-width:1.0;"/><text fill="#000000" font-family="sans-serif" font-size="20" lengthAdjust="spacing" textLength="288" x="562.5" y="956.5273">updateRequirementResult(result)</text></g><!--class AuthorizationService--><g id="elem_AuthorizationService"><rect codeLine="36" fill="#F1F1F1" height="76.3125" id="AuthorizationService" rx="2.5" ry="2.5" style="stroke:#181818;stroke-width:0.5;" width="392" x="1155" y="616.6094"/><ellipse cx="1258" cy="634.1875" fill="#ADD1B2" rx="12" ry="12" style="stroke:#181818;stroke-width:1.0;"/><path d="M1260.1406,629.1094 Q1260.3281,628.8594 1260.5469,628.7344 Q1260.7656,628.5938 1261.0156,628.5938 Q1261.4531,628.5938 1261.7344,628.9063 Q1262.0156,629.2031 1262.0156,629.9219 L1262.0156,631.625 Q1262.0156,632.3438 1261.7344,632.6563 Q1261.4531,632.9688 1261.0156,632.9688 Q1260.625,632.9688 1260.375,632.7344 Q1260.125,632.5156 1260.0156,631.9063 Q1259.9531,631.4844 1259.7344,631.2656 Q1259.3438,630.8281 1258.625,630.5625 Q1257.9063,630.2969 1257.1875,630.2969 Q1256.2813,630.2969 1255.5313,630.6875 Q1254.7813,631.0781 1254.2031,631.9688 Q1253.625,632.8438 1253.625,634.0469 L1253.625,635.3438 Q1253.625,636.7969 1254.6719,637.7656 Q1255.7344,638.7344 1257.5938,638.7344 Q1258.7031,638.7344 1259.4844,638.4219 Q1259.9219,638.25 1260.4375,637.7344 Q1260.75,637.4219 1260.9219,637.3281 Q1261.0938,637.2344 1261.3281,637.2344 Q1261.7188,637.2344 1262.0156,637.5469 Q1262.3281,637.8438 1262.3281,638.25 Q1262.3281,638.6563 1261.9219,639.125 Q1261.3281,639.8125 1260.3906,640.2031 Q1259.125,640.7344 1257.6094,640.7344 Q1255.8281,640.7344 1254.4063,640 Q1253.25,639.4063 1252.4375,638.1406 Q1251.625,636.875 1251.625,635.3906 L1251.625,634.0313 Q1251.625,632.4688 1252.3438,631.125 Q1253.0781,629.7656 1254.3594,629.0313 Q1255.6563,628.2969 1257.1094,628.2969 Q1257.9688,628.2969 1258.7188,628.5 Q1259.4844,628.7031 1260.1406,629.1094 Z " fill="#000000"/><text fill="#000000" font-family="sans-serif" font-size="20" lengthAdjust="spacing" textLength="177" x="1280" y="642.3711">AuthorizationService</text><line style="stroke:#181818;stroke-width:0.5;" x1="1156" x2="1546" y1="651.7656" y2="651.7656"/><line style="stroke:#181818;stroke-width:0.5;" x1="1156" x2="1546" y1="659.7656" y2="659.7656"/><ellipse cx="1166" cy="677.8438" fill="#84BE84" rx="3" ry="3" style="stroke:#038048;stroke-width:1.0;"/><text fill="#000000" font-family="sans-serif" font-size="20" lengthAdjust="spacing" textLength="365" x="1176" y="684.5273">ensureAuthenticatedUserHasAnyOf(roles)</text></g><!--class RequirementSpecificationAnswer--><g id="elem_RequirementSpecificationAnswer"><rect codeLine="40" fill="#F1F1F1" height="101.4688" id="RequirementSpecificationAnswer" rx="2.5" ry="2.5" style="stroke:#181818;stroke-width:0.5;" width="322" x="362" y="1024.6094"/><ellipse cx="378" cy="1054.7656" fill="#FF8B40" rx="12" ry="12" style="stroke:#181818;stroke-width:1.0;"/><path d="M378.5,1058.8438 L381.3906,1051.9375 L380.9375,1051.9375 Q380.2188,1051.9375 379.9063,1051.6563 Q379.5938,1051.375 379.5938,1050.9219 Q379.5938,1050.4688 379.9063,1050.2031 Q380.2188,1049.9219 380.9375,1049.9219 L383.625,1049.9219 Q384.3438,1049.9219 384.6563,1050.2031 Q384.9688,1050.4688 384.9688,1050.9219 Q384.9688,1051.4688 384.5,1051.7813 Q384.2656,1051.9375 383.5781,1051.9375 L379.4688,1061.7656 L377.5469,1061.7656 L373.4375,1051.9375 Q372.7344,1051.9375 372.5156,1051.7813 Q372.0469,1051.4688 372.0469,1050.9219 Q372.0469,1050.4688 372.3594,1050.2031 Q372.6563,1049.9219 373.375,1049.9219 L376.0781,1049.9219 Q376.7969,1049.9219 377.0938,1050.2031 Q377.4063,1050.4688 377.4063,1050.9219 Q377.4063,1051.375 377.1094,1051.6563 Q376.8125,1051.9375 376.0781,1051.9375 L375.6094,1051.9375 L378.5,1058.8438 Z " fill="#000000"/><text fill="#000000" font-family="sans-serif" font-size="20" font-style="italic" lengthAdjust="spacing" textLength="128" x="473" y="1050.3711">«value object»</text><text fill="#000000" font-family="sans-serif" font-size="20" lengthAdjust="spacing" textLength="288" x="393" y="1075.5273">RequirementSpecificationAnswer</text><line style="stroke:#181818;stroke-width:0.5;" x1="363" x2="683" y1="1084.9219" y2="1084.9219"/><rect fill="none" height="6" style="stroke:#C82930;stroke-width:1.0;" width="6" x="370" y="1100"/><text fill="#000000" font-family="sans-serif" font-size="20" lengthAdjust="spacing" textLength="94" x="383" y="1109.6836">file : String</text><line style="stroke:#181818;stroke-width:0.5;" x1="363" x2="683" y1="1118.0781" y2="1118.0781"/></g><!--class RequirementSpecificationResult--><g id="elem_RequirementSpecificationResult"><rect codeLine="44" fill="#F1F1F1" height="101.4688" id="RequirementSpecificationResult" rx="2.5" ry="2.5" style="stroke:#181818;stroke-width:0.5;" width="311" x="719.5" y="1024.6094"/><ellipse cx="735.5" cy="1054.7656" fill="#FF8B40" rx="12" ry="12" style="stroke:#181818;stroke-width:1.0;"/><path d="M736,1058.8438 L738.8906,1051.9375 L738.4375,1051.9375 Q737.7188,1051.9375 737.4063,1051.6563 Q737.0938,1051.375 737.0938,1050.9219 Q737.0938,1050.4688 737.4063,1050.2031 Q737.7188,1049.9219 738.4375,1049.9219 L741.125,1049.9219 Q741.8438,1049.9219 742.1563,1050.2031 Q742.4688,1050.4688 742.4688,1050.9219 Q742.4688,1051.4688 742,1051.7813 Q741.7656,1051.9375 741.0781,1051.9375 L736.9688,1061.7656 L735.0469,1061.7656 L730.9375,1051.9375 Q730.2344,1051.9375 730.0156,1051.7813 Q729.5469,1051.4688 729.5469,1050.9219 Q729.5469,1050.4688 729.8594,1050.2031 Q730.1563,1049.9219 730.875,1049.9219 L733.5781,1049.9219 Q734.2969,1049.9219 734.5938,1050.2031 Q734.9063,1050.4688 734.9063,1050.9219 Q734.9063,1051.375 734.6094,1051.6563 Q734.3125,1051.9375 733.5781,1051.9375 L733.1094,1051.9375 L736,1058.8438 Z " fill="#000000"/><text fill="#000000" font-family="sans-serif" font-size="20" font-style="italic" lengthAdjust="spacing" textLength="128" x="825" y="1050.3711">«value object»</text><text fill="#000000" font-family="sans-serif" font-size="20" lengthAdjust="spacing" textLength="277" x="750.5" y="1075.5273">RequirementSpecificationResult</text><line style="stroke:#181818;stroke-width:0.5;" x1="720.5" x2="1029.5" y1="1084.9219" y2="1084.9219"/><rect fill="none" height="6" style="stroke:#C82930;stroke-width:1.0;" width="6" x="727.5" y="1100"/><text fill="#000000" font-family="sans-serif" font-size="20" lengthAdjust="spacing" textLength="137" x="740.5" y="1109.6836">result : Boolean</text><line style="stroke:#181818;stroke-width:0.5;" x1="720.5" x2="1029.5" y1="1118.0781" y2="1118.0781"/></g><!--class DomainRepository--><g id="elem_DomainRepository"><rect codeLine="48" fill="#F1F1F1" height="101.4688" id="DomainRepository" rx="2.5" ry="2.5" style="stroke:#181818;stroke-width:0.5;" width="198" x="1132" y="1024.6094"/><ellipse cx="1148" cy="1042.1875" fill="#B4A7E5" rx="12" ry="12" style="stroke:#181818;stroke-width:1.0;"/><path d="M1149,1038.3594 L1149,1046.1875 L1151.0313,1046.1875 Q1151.75,1046.1875 1152.0469,1046.4688 Q1152.3594,1046.7344 1152.3594,1047.1875 Q1152.3594,1047.625 1152.0469,1047.9063 Q1151.75,1048.1875 1151.0313,1048.1875 L1144.9844,1048.1875 Q1144.25,1048.1875 1143.9375,1047.9063 Q1143.6406,1047.625 1143.6406,1047.1875 Q1143.6406,1046.7344 1143.9375,1046.4688 Q1144.25,1046.1875 1144.9844,1046.1875 L1147,1046.1875 L1147,1038.3594 L1144.9844,1038.3594 Q1144.25,1038.3594 1143.9375,1038.0781 Q1143.6406,1037.7969 1143.6406,1037.3438 Q1143.6406,1036.8906 1143.9375,1036.625 Q1144.25,1036.3438 1144.9844,1036.3438 L1151.0313,1036.3438 Q1151.75,1036.3438 1152.0469,1036.625 Q1152.3594,1036.8906 1152.3594,1037.3438 Q1152.3594,1037.7969 1152.0469,1038.0781 Q1151.75,1038.3594 1151.0313,1038.3594 L1149,1038.3594 Z " fill="#000000"/><text fill="#000000" font-family="sans-serif" font-size="20" font-style="italic" lengthAdjust="spacing" textLength="164" x="1163" y="1050.3711">DomainRepository</text><line style="stroke:#181818;stroke-width:0.5;" x1="1133" x2="1329" y1="1059.7656" y2="1059.7656"/><line style="stroke:#181818;stroke-width:0.5;" x1="1133" x2="1329" y1="1067.7656" y2="1067.7656"/><ellipse cx="1143" cy="1085.8438" fill="#84BE84" rx="3" ry="3" style="stroke:#038048;stroke-width:1.0;"/><text fill="#000000" font-family="sans-serif" font-size="20" lengthAdjust="spacing" textLength="95" x="1153" y="1092.5273">ofIdentity()</text><ellipse cx="1143" cy="1111" fill="#84BE84" rx="3" ry="3" style="stroke:#038048;stroke-width:1.0;"/><text fill="#000000" font-family="sans-serif" font-size="20" lengthAdjust="spacing" textLength="55" x="1153" y="1117.6836">save()</text></g><!--class JobOpeningRepository--><g id="elem_JobOpeningRepository"><rect codeLine="53" fill="#F1F1F1" height="76.3125" id="JobOpeningRepository" rx="2.5" ry="2.5" style="stroke:#181818;stroke-width:0.5;" width="931" x="963.5" y="752.6094"/><ellipse cx="1324.5" cy="770.1875" fill="#ADD1B2" rx="12" ry="12" style="stroke:#181818;stroke-width:1.0;"/><path d="M1326.6406,765.1094 Q1326.8281,764.8594 1327.0469,764.7344 Q1327.2656,764.5938 1327.5156,764.5938 Q1327.9531,764.5938 1328.2344,764.9063 Q1328.5156,765.2031 1328.5156,765.9219 L1328.5156,767.625 Q1328.5156,768.3438 1328.2344,768.6563 Q1327.9531,768.9688 1327.5156,768.9688 Q1327.125,768.9688 1326.875,768.7344 Q1326.625,768.5156 1326.5156,767.9063 Q1326.4531,767.4844 1326.2344,767.2656 Q1325.8438,766.8281 1325.125,766.5625 Q1324.4063,766.2969 1323.6875,766.2969 Q1322.7813,766.2969 1322.0313,766.6875 Q1321.2813,767.0781 1320.7031,767.9688 Q1320.125,768.8438 1320.125,770.0469 L1320.125,771.3438 Q1320.125,772.7969 1321.1719,773.7656 Q1322.2344,774.7344 1324.0938,774.7344 Q1325.2031,774.7344 1325.9844,774.4219 Q1326.4219,774.25 1326.9375,773.7344 Q1327.25,773.4219 1327.4219,773.3281 Q1327.5938,773.2344 1327.8281,773.2344 Q1328.2188,773.2344 1328.5156,773.5469 Q1328.8281,773.8438 1328.8281,774.25 Q1328.8281,774.6563 1328.4219,775.125 Q1327.8281,775.8125 1326.8906,776.2031 Q1325.625,776.7344 1324.1094,776.7344 Q1322.3281,776.7344 1320.9063,776 Q1319.75,775.4063 1318.9375,774.1406 Q1318.125,772.875 1318.125,771.3906 L1318.125,770.0313 Q1318.125,768.4688 1318.8438,767.125 Q1319.5781,765.7656 1320.8594,765.0313 Q1322.1563,764.2969 1323.6094,764.2969 Q1324.4688,764.2969 1325.2188,764.5 Q1325.9844,764.7031 1326.6406,765.1094 Z " fill="#000000"/><text fill="#000000" font-family="sans-serif" font-size="20" lengthAdjust="spacing" textLength="200" x="1346.5" y="778.3711">JobOpeningRepository</text><line style="stroke:#181818;stroke-width:0.5;" x1="964.5" x2="1893.5" y1="787.7656" y2="787.7656"/><line style="stroke:#181818;stroke-width:0.5;" x1="964.5" x2="1893.5" y1="795.7656" y2="795.7656"/><ellipse cx="974.5" cy="813.8438" fill="#84BE84" rx="3" ry="3" style="stroke:#038048;stroke-width:1.0;"/><text fill="#000000" font-family="sans-serif" font-size="20" lengthAdjust="spacing" textLength="904" x="984.5" y="820.5273">jobOpeningsInScreeningListOfCustomerManager(customerManagerUsername) : Iterable&lt;JobOpening&gt;</text></g><!--class JobOpeningManagementService--><g id="elem_JobOpeningManagementService"><rect codeLine="57" fill="#F1F1F1" height="76.3125" id="JobOpeningManagementService" rx="2.5" ry="2.5" style="stroke:#181818;stroke-width:0.5;" width="926" x="1707" y="616.6094"/><ellipse cx="2023.5" cy="634.1875" fill="#ADD1B2" rx="12" ry="12" style="stroke:#181818;stroke-width:1.0;"/><path d="M2025.6406,629.1094 Q2025.8281,628.8594 2026.0469,628.7344 Q2026.2656,628.5938 2026.5156,628.5938 Q2026.9531,628.5938 2027.2344,628.9063 Q2027.5156,629.2031 2027.5156,629.9219 L2027.5156,631.625 Q2027.5156,632.3438 2027.2344,632.6563 Q2026.9531,632.9688 2026.5156,632.9688 Q2026.125,632.9688 2025.875,632.7344 Q2025.625,632.5156 2025.5156,631.9063 Q2025.4531,631.4844 2025.2344,631.2656 Q2024.8438,630.8281 2024.125,630.5625 Q2023.4063,630.2969 2022.6875,630.2969 Q2021.7813,630.2969 2021.0313,630.6875 Q2020.2813,631.0781 2019.7031,631.9688 Q2019.125,632.8438 2019.125,634.0469 L2019.125,635.3438 Q2019.125,636.7969 2020.1719,637.7656 Q2021.2344,638.7344 2023.0938,638.7344 Q2024.2031,638.7344 2024.9844,638.4219 Q2025.4219,638.25 2025.9375,637.7344 Q2026.25,637.4219 2026.4219,637.3281 Q2026.5938,637.2344 2026.8281,637.2344 Q2027.2188,637.2344 2027.5156,637.5469 Q2027.8281,637.8438 2027.8281,638.25 Q2027.8281,638.6563 2027.4219,639.125 Q2026.8281,639.8125 2025.8906,640.2031 Q2024.625,640.7344 2023.1094,640.7344 Q2021.3281,640.7344 2019.9063,640 Q2018.75,639.4063 2017.9375,638.1406 Q2017.125,636.875 2017.125,635.3906 L2017.125,634.0313 Q2017.125,632.4688 2017.8438,631.125 Q2018.5781,629.7656 2019.8594,629.0313 Q2021.1563,628.2969 2022.6094,628.2969 Q2023.4688,628.2969 2024.2188,628.5 Q2024.9844,628.7031 2025.6406,629.1094 Z " fill="#000000"/><text fill="#000000" font-family="sans-serif" font-size="20" lengthAdjust="spacing" textLength="284" x="2045.5" y="642.3711">JobOpeningManagementService</text><line style="stroke:#181818;stroke-width:0.5;" x1="1708" x2="2632" y1="651.7656" y2="651.7656"/><line style="stroke:#181818;stroke-width:0.5;" x1="1708" x2="2632" y1="659.7656" y2="659.7656"/><ellipse cx="1718" cy="677.8438" fill="#84BE84" rx="3" ry="3" style="stroke:#038048;stroke-width:1.0;"/><text fill="#000000" font-family="sans-serif" font-size="20" lengthAdjust="spacing" textLength="899" x="1728" y="684.5273">jobOpeningsInScreeningListOfCustomerManager(customerManagerUsername) : List&lt;JobOpeningDto&gt;</text></g><!--class JobOpeningDTOService--><g id="elem_JobOpeningDTOService"><rect codeLine="60" fill="#F1F1F1" height="76.3125" id="JobOpeningDTOService" rx="2.5" ry="2.5" style="stroke:#181818;stroke-width:0.5;" width="509" x="1929.5" y="752.6094"/><ellipse cx="2073.5" cy="770.1875" fill="#ADD1B2" rx="12" ry="12" style="stroke:#181818;stroke-width:1.0;"/><path d="M2075.6406,765.1094 Q2075.8281,764.8594 2076.0469,764.7344 Q2076.2656,764.5938 2076.5156,764.5938 Q2076.9531,764.5938 2077.2344,764.9063 Q2077.5156,765.2031 2077.5156,765.9219 L2077.5156,767.625 Q2077.5156,768.3438 2077.2344,768.6563 Q2076.9531,768.9688 2076.5156,768.9688 Q2076.125,768.9688 2075.875,768.7344 Q2075.625,768.5156 2075.5156,767.9063 Q2075.4531,767.4844 2075.2344,767.2656 Q2074.8438,766.8281 2074.125,766.5625 Q2073.4063,766.2969 2072.6875,766.2969 Q2071.7813,766.2969 2071.0313,766.6875 Q2070.2813,767.0781 2069.7031,767.9688 Q2069.125,768.8438 2069.125,770.0469 L2069.125,771.3438 Q2069.125,772.7969 2070.1719,773.7656 Q2071.2344,774.7344 2073.0938,774.7344 Q2074.2031,774.7344 2074.9844,774.4219 Q2075.4219,774.25 2075.9375,773.7344 Q2076.25,773.4219 2076.4219,773.3281 Q2076.5938,773.2344 2076.8281,773.2344 Q2077.2188,773.2344 2077.5156,773.5469 Q2077.8281,773.8438 2077.8281,774.25 Q2077.8281,774.6563 2077.4219,775.125 Q2076.8281,775.8125 2075.8906,776.2031 Q2074.625,776.7344 2073.1094,776.7344 Q2071.3281,776.7344 2069.9063,776 Q2068.75,775.4063 2067.9375,774.1406 Q2067.125,772.875 2067.125,771.3906 L2067.125,770.0313 Q2067.125,768.4688 2067.8438,767.125 Q2068.5781,765.7656 2069.8594,765.0313 Q2071.1563,764.2969 2072.6094,764.2969 Q2073.4688,764.2969 2074.2188,764.5 Q2074.9844,764.7031 2075.6406,765.1094 Z " fill="#000000"/><text fill="#000000" font-family="sans-serif" font-size="20" lengthAdjust="spacing" textLength="212" x="2095.5" y="778.3711">JobOpeningDTOService</text><line style="stroke:#181818;stroke-width:0.5;" x1="1930.5" x2="2437.5" y1="787.7656" y2="787.7656"/><line style="stroke:#181818;stroke-width:0.5;" x1="1930.5" x2="2437.5" y1="795.7656" y2="795.7656"/><ellipse cx="1940.5" cy="813.8438" fill="#84BE84" rx="3" ry="3" style="stroke:#038048;stroke-width:1.0;"/><text fill="#000000" font-family="sans-serif" font-size="20" lengthAdjust="spacing" textLength="482" x="1950.5" y="820.5273">convertToDTO(jobOpeningList) : List&lt;JobOpeningDto&gt;</text></g><!--class JobOpening--><g id="elem_JobOpening"><rect codeLine="63" fill="#F1F1F1" height="76.3125" id="JobOpening" rx="2.5" ry="2.5" style="stroke:#181818;stroke-width:0.5;" width="139" x="2327.5" y="1037.1094"/><ellipse cx="2343.5" cy="1054.6875" fill="#ADD1B2" rx="12" ry="12" style="stroke:#181818;stroke-width:1.0;"/><path d="M2345.6406,1049.6094 Q2345.8281,1049.3594 2346.0469,1049.2344 Q2346.2656,1049.0938 2346.5156,1049.0938 Q2346.9531,1049.0938 2347.2344,1049.4063 Q2347.5156,1049.7031 2347.5156,1050.4219 L2347.5156,1052.125 Q2347.5156,1052.8438 2347.2344,1053.1563 Q2346.9531,1053.4688 2346.5156,1053.4688 Q2346.125,1053.4688 2345.875,1053.2344 Q2345.625,1053.0156 2345.5156,1052.4063 Q2345.4531,1051.9844 2345.2344,1051.7656 Q2344.8438,1051.3281 2344.125,1051.0625 Q2343.4063,1050.7969 2342.6875,1050.7969 Q2341.7813,1050.7969 2341.0313,1051.1875 Q2340.2813,1051.5781 2339.7031,1052.4688 Q2339.125,1053.3438 2339.125,1054.5469 L2339.125,1055.8438 Q2339.125,1057.2969 2340.1719,1058.2656 Q2341.2344,1059.2344 2343.0938,1059.2344 Q2344.2031,1059.2344 2344.9844,1058.9219 Q2345.4219,1058.75 2345.9375,1058.2344 Q2346.25,1057.9219 2346.4219,1057.8281 Q2346.5938,1057.7344 2346.8281,1057.7344 Q2347.2188,1057.7344 2347.5156,1058.0469 Q2347.8281,1058.3438 2347.8281,1058.75 Q2347.8281,1059.1563 2347.4219,1059.625 Q2346.8281,1060.3125 2345.8906,1060.7031 Q2344.625,1061.2344 2343.1094,1061.2344 Q2341.3281,1061.2344 2339.9063,1060.5 Q2338.75,1059.9063 2337.9375,1058.6406 Q2337.125,1057.375 2337.125,1055.8906 L2337.125,1054.5313 Q2337.125,1052.9688 2337.8438,1051.625 Q2338.5781,1050.2656 2339.8594,1049.5313 Q2341.1563,1048.7969 2342.6094,1048.7969 Q2343.4688,1048.7969 2344.2188,1049 Q2344.9844,1049.2031 2345.6406,1049.6094 Z " fill="#000000"/><text fill="#000000" font-family="sans-serif" font-size="20" lengthAdjust="spacing" textLength="105" x="2358.5" y="1062.8711">JobOpening</text><line style="stroke:#181818;stroke-width:0.5;" x1="2328.5" x2="2465.5" y1="1072.2656" y2="1072.2656"/><line style="stroke:#181818;stroke-width:0.5;" x1="2328.5" x2="2465.5" y1="1080.2656" y2="1080.2656"/><ellipse cx="2338.5" cy="1098.3438" fill="#84BE84" rx="3" ry="3" style="stroke:#038048;stroke-width:1.0;"/><text fill="#000000" font-family="sans-serif" font-size="20" lengthAdjust="spacing" textLength="62" x="2348.5" y="1105.0273">toDto()</text></g><!--reverse link AbstractUI to VerifyRequirementUI--><g id="link_AbstractUI_VerifyRequirementUI"><path codeLine="69" d="M1351,192.9294 C1351,206.8094 1351,220.5694 1351,232.5194 " fill="none" id="AbstractUI-backto-VerifyRequirementUI" style="stroke:#181818;stroke-width:1.0;"/><polygon fill="none" points="1344,192.6894,1351,172.6894,1358,192.6894,1344,192.6894" style="stroke:#181818;stroke-width:1.0;"/></g><!--link VerifyRequirementUI to VerifyRequirementsController--><g id="link_VerifyRequirementUI_VerifyRequirementsController"><path codeLine="71" d="M1351,309.0094 C1351,340.5294 1351,386.4194 1351,424.3694 " fill="none" id="VerifyRequirementUI-to-VerifyRequirementsController" style="stroke:#181818;stroke-width:1.0;stroke-dasharray:7.0,7.0;"/><polygon fill="#181818" points="1351,429.4294,1355,420.4294,1351,424.4294,1347,420.4294,1351,429.4294" style="stroke:#181818;stroke-width:1.0;"/></g><!--link VerifyRequirementsController to AuthorizationService--><g id="link_VerifyRequirementsController_AuthorizationService"><path codeLine="73" d="M1351,556.6894 C1351,575.0394 1351,594.6594 1351,611.4194 " fill="none" id="VerifyRequirementsController-to-AuthorizationService" style="stroke:#181818;stroke-width:1.0;"/><polygon fill="#181818" points="1351,616.5194,1355,607.5194,1351,611.5194,1347,607.5194,1351,616.5194" style="stroke:#181818;stroke-width:1.0;"/></g><!--link VerifyRequirementsController to JobOpeningRepository--><g id="link_VerifyRequirementsController_JobOpeningRepository"><path codeLine="74" d="M1506.33,556.6594 C1529.39,572.7494 1550.06,592.5194 1564,616.6094 C1580.91,645.8494 1579.41,662.5494 1564,692.6094 C1552.09,715.8394 1531.73,734.7694 1510.39,749.5294 " fill="none" id="VerifyRequirementsController-to-JobOpeningRepository" style="stroke:#181818;stroke-width:1.0;"/><polygon fill="#181818" points="1506.11,752.4294,1515.8037,750.6882,1510.2481,749.6229,1511.3134,744.0673,1506.11,752.4294" style="stroke:#181818;stroke-width:1.0;"/></g><!--link VerifyRequirementsController to ApplicationRepository--><g id="link_VerifyRequirementsController_ApplicationRepository"><path codeLine="75" d="M1124.35,553.2794 C1045.09,573.9694 958.22,596.6394 887.15,615.1994 " fill="none" id="VerifyRequirementsController-to-ApplicationRepository" style="stroke:#181818;stroke-width:1.0;"/><polygon fill="#181818" points="882.06,616.5294,891.7763,618.1397,886.8996,615.2731,889.7662,610.3964,882.06,616.5294" style="stroke:#181818;stroke-width:1.0;"/></g><!--link VerifyRequirementsController to RequirementSpecificationPlugin--><g id="link_VerifyRequirementsController_RequirementSpecificationPlugin"><path codeLine="76" d="M1124.29,515.9794 C919.26,537.0894 609.45,572.3494 342,616.6094 C338.1,617.2594 334.16,617.9294 330.18,618.6194 " fill="none" id="VerifyRequirementsController-to-RequirementSpecificationPlugin" style="stroke:#181818;stroke-width:1.0;"/><polygon fill="#181818" points="325.13,619.5094,334.689,621.8813,330.0536,618.6388,333.2961,614.0035,325.13,619.5094" style="stroke:#181818;stroke-width:1.0;"/></g><!--link VerifyRequirementsController to JobOpeningManagementService--><g id="link_VerifyRequirementsController_JobOpeningManagementService"><path codeLine="77" d="M1577.51,538.2194 C1702.3,562.5294 1855.64,592.3894 1975.06,615.6494 " fill="none" id="VerifyRequirementsController-to-JobOpeningManagementService" style="stroke:#181818;stroke-width:1.0;"/><polygon fill="#181818" points="1980.01,616.6094,1971.9438,610.9582,1975.1027,615.6508,1970.4101,618.8098,1980.01,616.6094" style="stroke:#181818;stroke-width:1.0;"/></g><!--link JobOpeningManagementService to JobOpeningRepository--><g id="link_JobOpeningManagementService_JobOpeningRepository"><path codeLine="79" d="M1965.07,692.6694 C1863.55,711.0294 1741.15,733.1594 1638.96,751.6394 " fill="none" id="JobOpeningManagementService-to-JobOpeningRepository" style="stroke:#181818;stroke-width:1.0;"/><polygon fill="#181818" points="1633.8,752.5694,1643.3656,754.9144,1638.7212,751.685,1641.9506,747.0406,1633.8,752.5694" style="stroke:#181818;stroke-width:1.0;"/></g><!--link JobOpeningManagementService to JobOpeningDTOService--><g id="link_JobOpeningManagementService_JobOpeningDTOService"><path codeLine="80" d="M2173.9,692.9394 C2175.66,709.7794 2177.75,729.7594 2179.57,747.1694 " fill="none" id="JobOpeningManagementService-to-JobOpeningDTOService" style="stroke:#181818;stroke-width:1.0;"/><polygon fill="#181818" points="2180.12,752.4794,2183.1727,743.1156,2179.6055,747.5059,2175.2151,743.9387,2180.12,752.4794" style="stroke:#181818;stroke-width:1.0;"/></g><!--link JobOpeningManagementService to JobOpening--><g id="link_JobOpeningManagementService_JobOpening"><path codeLine="81" d="M2381.17,692.7794 C2410.52,706.8794 2437.06,726.1894 2456,752.6094 C2516.86,837.5094 2459.69,966.5494 2422.76,1032.3494 " fill="none" id="JobOpeningManagementService-to-JobOpening" style="stroke:#181818;stroke-width:1.0;stroke-dasharray:7.0,7.0;"/><polygon fill="#181818" points="2420.14,1036.9794,2428.0596,1031.1245,2422.6069,1032.6303,2421.1011,1027.1775,2420.14,1036.9794" style="stroke:#181818;stroke-width:1.0;"/></g><!--link JobOpeningDTOService to JobOpening--><g id="link_JobOpeningDTOService_JobOpening"><path codeLine="82" d="M2212.07,828.8294 C2251.81,881.5494 2324.26,977.6394 2365.7,1032.5894 " fill="none" id="JobOpeningDTOService-to-JobOpening" style="stroke:#181818;stroke-width:1.0;stroke-dasharray:7.0,7.0;"/><polygon fill="#181818" points="2368.87,1036.8094,2366.6316,1027.2183,2365.854,1032.8214,2360.2509,1032.0438,2368.87,1036.8094" style="stroke:#181818;stroke-width:1.0;"/></g><!--link ApplicationRepository to Application--><g id="link_ApplicationRepository_Application"><path codeLine="86" d="M734.34,692.8694 C726.77,742.7594 713.36,831.0394 705.42,883.3494 " fill="none" id="ApplicationRepository-to-Application" style="stroke:#181818;stroke-width:1.0;stroke-dasharray:7.0,7.0;"/><polygon fill="#181818" points="704.67,888.2994,709.9866,880.0088,705.4271,883.357,702.0788,878.7975,704.67,888.2994" style="stroke:#181818;stroke-width:1.0;"/></g><!--link Application to RequirementSpecificationResult--><g id="link_Application_RequirementSpecificationResult"><path codeLine="87" d="M743.87,964.9594 C764.37,982.0294 789.03,1002.5494 811.41,1021.1694 " fill="none" id="Application-to-RequirementSpecificationResult" style="stroke:#181818;stroke-width:1.0;"/><polygon fill="#181818" points="815.26,1024.3894,810.9035,1015.5564,811.4177,1021.1899,805.7843,1021.7041,815.26,1024.3894" style="stroke:#181818;stroke-width:1.0;"/><text fill="#000000" font-family="sans-serif" font-size="20" lengthAdjust="spacing" textLength="11" x="795.9011" y="1012.031">1</text></g><!--link Application to RequirementSpecificationAnswer--><g id="link_Application_RequirementSpecificationAnswer"><path codeLine="88" d="M654.13,964.9594 C633.63,982.0294 608.97,1002.5494 586.59,1021.1694 " fill="none" id="Application-to-RequirementSpecificationAnswer" style="stroke:#181818;stroke-width:1.0;"/><polygon fill="#181818" points="582.74,1024.3894,592.2157,1021.7041,586.5823,1021.1899,587.0965,1015.5564,582.74,1024.3894" style="stroke:#181818;stroke-width:1.0;"/><text fill="#000000" font-family="sans-serif" font-size="20" lengthAdjust="spacing" textLength="11" x="578.6895" y="1012.031">1</text></g><!--link ApplicationRepository to DomainRepository--><g id="link_ApplicationRepository_DomainRepository"><path codeLine="91" d="M783.57,692.7494 C870.93,767.2094 1067.74,934.9594 1168.69,1020.9994 " fill="none" id="ApplicationRepository-to-DomainRepository" style="stroke:#181818;stroke-width:1.0;stroke-dasharray:7.0,7.0;"/><polygon fill="#181818" points="1172.54,1024.2794,1168.2906,1015.3944,1168.7367,1021.0337,1163.0974,1021.4798,1172.54,1024.2794" style="stroke:#181818;stroke-width:1.0;"/></g><!--link JobOpeningRepository to DomainRepository--><g id="link_JobOpeningRepository_DomainRepository"><path codeLine="92" d="M1402.91,828.8294 C1368.63,877.7494 1308.16,964.0194 1268.85,1020.1094 " fill="none" id="JobOpeningRepository-to-DomainRepository" style="stroke:#181818;stroke-width:1.0;stroke-dasharray:7.0,7.0;"/><polygon fill="#181818" points="1265.82,1024.4294,1274.2593,1019.3521,1268.6883,1020.3339,1267.7065,1014.7629,1265.82,1024.4294" style="stroke:#181818;stroke-width:1.0;"/></g><!--SRC=[hLHTRzem57tthx3QXmPreUsqILE5a6WH6bCd9j9spoQv0RUEdTaE5UtsttVjiCMm0Aqq7e9yVS-vNyVNF79PCiqAeT97o6W6EQk47Ibf4_uCzFqvELbOMvhBixDIC6chGdHJLPobWXaJPvpD4Ko8vLO0lKikpYy-qfXUkriw_7DB29iPgrbggSVHmVfuDwOlXEBlc6OgMQYdgBC-cl1GC2vlb2hHy8kGck8UDCzNK_XHSGq5o9hhjE7PxMckiJojX01DFMOEzekQJKgGNCvlkB5HXrxIXmtJq2hqN7gkmP9nmMO2GjAeyKVV3edNpg7F91-KfU0firn9ZvX23Xfa2ZxXaz2PS6b1vom56fYJ4bAUhoc-YMhEfQy1banKpCA82uXo_BWIniWm1-se6x8WXIcKod2hzCfpi22vaT9DJxvpkzYkjSdS1K9orv1UGDvlHX1OVQ2gp33LW74A1cKNQVyNp6vGsONI_Db34z1BZWNuSgMfDBXhH3jgoEuCwC_C3EHgaaSuNZ01qQuE3gHvGXdqUj7zk-FHwDFLX_CETQq4gcOFaDf-7-F5r7KKwqoindOSfgthEKnR5up4LmeJPd9pKaFbbByr99MFCrUpNQ78JwbXImZLtWnj2zV8qunbachuA-r9VbqPgmhGNvbag9SetJoxpafMR4ww2THlYrv3VMFgiVt771mWY8_FpQMmdS7mTXA4JfN4zsXl5PgZpQVzUahVIAlmjcuv8S4cw_sCuxQrH4ZRhkh6SN_lQcg1XOlBmTjUns5Kcq9U4QjjQno6xTzSRqds7q4HikToTwMl1pK2sWlgRe186xwUTk3abDEwXhjRlGxTV7f75qS7jiwR8FN-sv_EzXeYhJkctVKt]--></g></svg>