<?xml version="1.0" encoding="UTF-8" standalone="no"?><svg xmlns="http://www.w3.org/2000/svg" xmlns:xlink="http://www.w3.org/1999/xlink" contentStyleType="text/css" height="1133px" preserveAspectRatio="none" style="width:2794px;height:1133px;background:#FFFFFF;" version="1.1" viewBox="0 0 2794 1133" width="2794px" zoomAndPan="magnify"><defs/><g><text fill="#000000" font-family="sans-serif" font-size="14" font-weight="bold" lengthAdjust="spacing" textLength="163" x="1308.75" y="24.5332">US1015 - Class Diagram</text><!--class AbstractUI--><g id="elem_AbstractUI"><rect codeLine="7" fill="#F1F1F1" height="126.625" id="AbstractUI" rx="2.5" ry="2.5" style="stroke:#181818;stroke-width:0.5;" width="126" x="1136.5" y="45.6094"/><ellipse cx="1152.95" cy="63.1875" fill="#A9DCDF" rx="12" ry="12" style="stroke:#181818;stroke-width:1.0;"/><path d="M1155.4031,65.2188 L1150.5281,65.2188 L1150.0438,66.4375 L1150.5281,66.4375 Q1151.2625,66.4375 1151.5594,66.7188 Q1151.8719,66.9844 1151.8719,67.4375 Q1151.8719,67.875 1151.5594,68.1563 Q1151.2625,68.4375 1150.5281,68.4375 L1147.8406,68.4375 Q1147.1219,68.4375 1146.8094,68.1563 Q1146.4969,67.875 1146.4969,67.4375 Q1146.4969,66.9844 1146.825,66.7031 Q1147.1531,66.4219 1147.8875,66.4375 L1151.0281,58.6094 L1149.7313,58.6094 Q1148.9969,58.6094 1148.6844,58.3281 Q1148.3875,58.0469 1148.3875,57.5938 Q1148.3875,57.1406 1148.6844,56.875 Q1148.9969,56.5938 1149.7313,56.5938 L1154.0438,56.5938 L1158.0281,66.4375 Q1158.7313,66.4375 1158.9656,66.5938 Q1159.4188,66.9063 1159.4188,67.4375 Q1159.4188,67.875 1159.1063,68.1563 Q1158.8094,68.4375 1158.0906,68.4375 L1155.3875,68.4375 Q1154.6688,68.4375 1154.3563,68.1563 Q1154.0438,67.875 1154.0438,67.4375 Q1154.0438,66.9844 1154.3563,66.7188 Q1154.6688,66.4375 1155.3875,66.4375 L1155.8719,66.4375 L1155.4031,65.2188 Z M1154.575,63.2188 L1152.95,59.25 L1151.3406,63.2188 L1154.575,63.2188 Z " fill="#000000"/><text fill="#000000" font-family="sans-serif" font-size="20" font-style="italic" lengthAdjust="spacing" textLength="91" x="1168.05" y="71.3711">AbstractUI</text><line style="stroke:#181818;stroke-width:0.5;" x1="1137.5" x2="1261.5" y1="80.7656" y2="80.7656"/><line style="stroke:#181818;stroke-width:0.5;" x1="1137.5" x2="1261.5" y1="88.7656" y2="88.7656"/><polygon fill="#FFFF44" points="1147.5,101.8438,1151.5,105.8438,1147.5,109.8438,1143.5,105.8438" style="stroke:#B38D22;stroke-width:1.0;"/><text fill="#000000" font-family="sans-serif" font-size="20" lengthAdjust="spacing" textLength="85" x="1157.5" y="113.5273">doShow()</text><polygon fill="#FFFF44" points="1147.5,127,1151.5,131,1147.5,135,1143.5,131" style="stroke:#B38D22;stroke-width:1.0;"/><text fill="#000000" font-family="sans-serif" font-size="20" lengthAdjust="spacing" textLength="60" x="1157.5" y="138.6836">show()</text><polygon fill="#FFFF44" points="1147.5,152.1563,1151.5,156.1563,1147.5,160.1563,1143.5,156.1563" style="stroke:#B38D22;stroke-width:1.0;"/><text fill="#000000" font-family="sans-serif" font-size="20" lengthAdjust="spacing" textLength="99" x="1157.5" y="163.8398">mainLoop()</text></g><!--class VerifyRequirementUI--><g id="elem_VerifyRequirementUI"><rect codeLine="13" fill="#F1F1F1" height="76.3125" id="VerifyRequirementUI" rx="2.5" ry="2.5" style="stroke:#181818;stroke-width:0.5;" width="215" x="1092" y="232.6094"/><ellipse cx="1108" cy="250.1875" fill="#ADD1B2" rx="12" ry="12" style="stroke:#181818;stroke-width:1.0;"/><path d="M1110.1406,245.1094 Q1110.3281,244.8594 1110.5469,244.7344 Q1110.7656,244.5938 1111.0156,244.5938 Q1111.4531,244.5938 1111.7344,244.9063 Q1112.0156,245.2031 1112.0156,245.9219 L1112.0156,247.625 Q1112.0156,248.3438 1111.7344,248.6563 Q1111.4531,248.9688 1111.0156,248.9688 Q1110.625,248.9688 1110.375,248.7344 Q1110.125,248.5156 1110.0156,247.9063 Q1109.9531,247.4844 1109.7344,247.2656 Q1109.3438,246.8281 1108.625,246.5625 Q1107.9063,246.2969 1107.1875,246.2969 Q1106.2813,246.2969 1105.5313,246.6875 Q1104.7813,247.0781 1104.2031,247.9688 Q1103.625,248.8438 1103.625,250.0469 L1103.625,251.3438 Q1103.625,252.7969 1104.6719,253.7656 Q1105.7344,254.7344 1107.5938,254.7344 Q1108.7031,254.7344 1109.4844,254.4219 Q1109.9219,254.25 1110.4375,253.7344 Q1110.75,253.4219 1110.9219,253.3281 Q1111.0938,253.2344 1111.3281,253.2344 Q1111.7188,253.2344 1112.0156,253.5469 Q1112.3281,253.8438 1112.3281,254.25 Q1112.3281,254.6563 1111.9219,255.125 Q1111.3281,255.8125 1110.3906,256.2031 Q1109.125,256.7344 1107.6094,256.7344 Q1105.8281,256.7344 1104.4063,256 Q1103.25,255.4063 1102.4375,254.1406 Q1101.625,252.875 1101.625,251.3906 L1101.625,250.0313 Q1101.625,248.4688 1102.3438,247.125 Q1103.0781,245.7656 1104.3594,245.0313 Q1105.6563,244.2969 1107.1094,244.2969 Q1107.9688,244.2969 1108.7188,244.5 Q1109.4844,244.7031 1110.1406,245.1094 Z " fill="#000000"/><text fill="#000000" font-family="sans-serif" font-size="20" lengthAdjust="spacing" textLength="181" x="1123" y="258.3711">VerifyRequirementUI</text><line style="stroke:#181818;stroke-width:0.5;" x1="1093" x2="1306" y1="267.7656" y2="267.7656"/><line style="stroke:#181818;stroke-width:0.5;" x1="1093" x2="1306" y1="275.7656" y2="275.7656"/><ellipse cx="1103" cy="293.8438" fill="#84BE84" rx="3" ry="3" style="stroke:#038048;stroke-width:1.0;"/><text fill="#000000" font-family="sans-serif" font-size="20" lengthAdjust="spacing" textLength="85" x="1113" y="300.5273">doShow()</text></g><!--class VerifyRequirementsController--><g id="elem_VerifyRequirementsController"><rect codeLine="17" fill="#F1F1F1" height="126.625" id="VerifyRequirementsController" rx="2.5" ry="2.5" style="stroke:#181818;stroke-width:0.5;" width="453" x="973" y="429.6094"/><ellipse cx="1066.5" cy="447.1875" fill="#ADD1B2" rx="12" ry="12" style="stroke:#181818;stroke-width:1.0;"/><path d="M1068.6406,442.1094 Q1068.8281,441.8594 1069.0469,441.7344 Q1069.2656,441.5938 1069.5156,441.5938 Q1069.9531,441.5938 1070.2344,441.9063 Q1070.5156,442.2031 1070.5156,442.9219 L1070.5156,444.625 Q1070.5156,445.3438 1070.2344,445.6563 Q1069.9531,445.9688 1069.5156,445.9688 Q1069.125,445.9688 1068.875,445.7344 Q1068.625,445.5156 1068.5156,444.9063 Q1068.4531,444.4844 1068.2344,444.2656 Q1067.8438,443.8281 1067.125,443.5625 Q1066.4063,443.2969 1065.6875,443.2969 Q1064.7813,443.2969 1064.0313,443.6875 Q1063.2813,444.0781 1062.7031,444.9688 Q1062.125,445.8438 1062.125,447.0469 L1062.125,448.3438 Q1062.125,449.7969 1063.1719,450.7656 Q1064.2344,451.7344 1066.0938,451.7344 Q1067.2031,451.7344 1067.9844,451.4219 Q1068.4219,451.25 1068.9375,450.7344 Q1069.25,450.4219 1069.4219,450.3281 Q1069.5938,450.2344 1069.8281,450.2344 Q1070.2188,450.2344 1070.5156,450.5469 Q1070.8281,450.8438 1070.8281,451.25 Q1070.8281,451.6563 1070.4219,452.125 Q1069.8281,452.8125 1068.8906,453.2031 Q1067.625,453.7344 1066.1094,453.7344 Q1064.3281,453.7344 1062.9063,453 Q1061.75,452.4063 1060.9375,451.1406 Q1060.125,449.875 1060.125,448.3906 L1060.125,447.0313 Q1060.125,445.4688 1060.8438,444.125 Q1061.5781,442.7656 1062.8594,442.0313 Q1064.1563,441.2969 1065.6094,441.2969 Q1066.4688,441.2969 1067.2188,441.5 Q1067.9844,441.7031 1068.6406,442.1094 Z " fill="#000000"/><text fill="#000000" font-family="sans-serif" font-size="20" lengthAdjust="spacing" textLength="257" x="1088.5" y="455.3711">VerifyRequirementsController</text><line style="stroke:#181818;stroke-width:0.5;" x1="974" x2="1425" y1="464.7656" y2="464.7656"/><line style="stroke:#181818;stroke-width:0.5;" x1="974" x2="1425" y1="472.7656" y2="472.7656"/><ellipse cx="984" cy="490.8438" fill="#84BE84" rx="3" ry="3" style="stroke:#038048;stroke-width:1.0;"/><text fill="#000000" font-family="sans-serif" font-size="20" lengthAdjust="spacing" textLength="357" x="994" y="497.5273">getJobOpeningList() : jobOpeningListDto</text><ellipse cx="984" cy="516" fill="#84BE84" rx="3" ry="3" style="stroke:#038048;stroke-width:1.0;"/><text fill="#000000" font-family="sans-serif" font-size="20" lengthAdjust="spacing" textLength="390" x="994" y="522.6836">verifyAvailableRequirements(jobOpeningDto)</text><rect fill="#F24D5C" height="6" style="stroke:#C82930;stroke-width:1.0;" width="6" x="981" y="538.1563"/><text fill="#000000" font-family="sans-serif" font-size="20" lengthAdjust="spacing" textLength="426" x="994" y="547.8398">verifyRequirementsOfApplications(jobReference)</text></g><!--class FileManagement--><g id="elem_FileManagement"><rect codeLine="24" fill="#F1F1F1" height="76.3125" id="FileManagement" rx="2.5" ry="2.5" style="stroke:#181818;stroke-width:0.5;" width="183" x="7" y="752.6094"/><ellipse cx="23" cy="770.1875" fill="#B4A7E5" rx="12" ry="12" style="stroke:#181818;stroke-width:1.0;"/><path d="M24,766.3594 L24,774.1875 L26.0313,774.1875 Q26.75,774.1875 27.0469,774.4688 Q27.3594,774.7344 27.3594,775.1875 Q27.3594,775.625 27.0469,775.9063 Q26.75,776.1875 26.0313,776.1875 L19.9844,776.1875 Q19.25,776.1875 18.9375,775.9063 Q18.6406,775.625 18.6406,775.1875 Q18.6406,774.7344 18.9375,774.4688 Q19.25,774.1875 19.9844,774.1875 L22,774.1875 L22,766.3594 L19.9844,766.3594 Q19.25,766.3594 18.9375,766.0781 Q18.6406,765.7969 18.6406,765.3438 Q18.6406,764.8906 18.9375,764.625 Q19.25,764.3438 19.9844,764.3438 L26.0313,764.3438 Q26.75,764.3438 27.0469,764.625 Q27.3594,764.8906 27.3594,765.3438 Q27.3594,765.7969 27.0469,766.0781 Q26.75,766.3594 26.0313,766.3594 L24,766.3594 Z " fill="#000000"/><text fill="#000000" font-family="sans-serif" font-size="20" font-style="italic" lengthAdjust="spacing" textLength="149" x="38" y="778.3711">FileManagement</text><line style="stroke:#181818;stroke-width:0.5;" x1="8" x2="189" y1="787.7656" y2="787.7656"/><line style="stroke:#181818;stroke-width:0.5;" x1="8" x2="189" y1="795.7656" y2="795.7656"/><ellipse cx="18" cy="813.8438" fill="#84BE84" rx="3" ry="3" style="stroke:#038048;stroke-width:1.0;"/><text fill="#000000" font-family="sans-serif" font-size="20" lengthAdjust="spacing" textLength="136" x="28" y="820.5273">importData(file)</text></g><!--class RequirementSpecificationPlugin--><g id="elem_RequirementSpecificationPlugin"><rect codeLine="28" fill="#F1F1F1" height="76.3125" id="RequirementSpecificationPlugin" rx="2.5" ry="2.5" style="stroke:#181818;stroke-width:0.5;" width="472" x="225.5" y="752.6094"/><ellipse cx="315" cy="770.1875" fill="#B4A7E5" rx="12" ry="12" style="stroke:#181818;stroke-width:1.0;"/><path d="M316,766.3594 L316,774.1875 L318.0313,774.1875 Q318.75,774.1875 319.0469,774.4688 Q319.3594,774.7344 319.3594,775.1875 Q319.3594,775.625 319.0469,775.9063 Q318.75,776.1875 318.0313,776.1875 L311.9844,776.1875 Q311.25,776.1875 310.9375,775.9063 Q310.6406,775.625 310.6406,775.1875 Q310.6406,774.7344 310.9375,774.4688 Q311.25,774.1875 311.9844,774.1875 L314,774.1875 L314,766.3594 L311.9844,766.3594 Q311.25,766.3594 310.9375,766.0781 Q310.6406,765.7969 310.6406,765.3438 Q310.6406,764.8906 310.9375,764.625 Q311.25,764.3438 311.9844,764.3438 L318.0313,764.3438 Q318.75,764.3438 319.0469,764.625 Q319.3594,764.8906 319.3594,765.3438 Q319.3594,765.7969 319.0469,766.0781 Q318.75,766.3594 318.0313,766.3594 L316,766.3594 Z " fill="#000000"/><text fill="#000000" font-family="sans-serif" font-size="20" font-style="italic" lengthAdjust="spacing" textLength="284" x="337" y="778.3711">RequirementSpecificationPlugin</text><line style="stroke:#181818;stroke-width:0.5;" x1="226.5" x2="696.5" y1="787.7656" y2="787.7656"/><line style="stroke:#181818;stroke-width:0.5;" x1="226.5" x2="696.5" y1="795.7656" y2="795.7656"/><ellipse cx="236.5" cy="813.8438" fill="#84BE84" rx="3" ry="3" style="stroke:#038048;stroke-width:1.0;"/><text fill="#000000" font-family="sans-serif" font-size="20" lengthAdjust="spacing" textLength="445" x="246.5" y="820.5273">evaluateRequirementSpecificationFile(file) : Integer</text></g><!--class ApplicationRepository--><g id="elem_ApplicationRepository"><rect codeLine="32" fill="#F1F1F1" height="76.3125" id="ApplicationRepository" rx="2.5" ry="2.5" style="stroke:#181818;stroke-width:0.5;" width="760" x="514.5" y="616.6094"/><ellipse cx="793.5" cy="634.1875" fill="#B4A7E5" rx="12" ry="12" style="stroke:#181818;stroke-width:1.0;"/><path d="M794.5,630.3594 L794.5,638.1875 L796.5313,638.1875 Q797.25,638.1875 797.5469,638.4688 Q797.8594,638.7344 797.8594,639.1875 Q797.8594,639.625 797.5469,639.9063 Q797.25,640.1875 796.5313,640.1875 L790.4844,640.1875 Q789.75,640.1875 789.4375,639.9063 Q789.1406,639.625 789.1406,639.1875 Q789.1406,638.7344 789.4375,638.4688 Q789.75,638.1875 790.4844,638.1875 L792.5,638.1875 L792.5,630.3594 L790.4844,630.3594 Q789.75,630.3594 789.4375,630.0781 Q789.1406,629.7969 789.1406,629.3438 Q789.1406,628.8906 789.4375,628.625 Q789.75,628.3438 790.4844,628.3438 L796.5313,628.3438 Q797.25,628.3438 797.5469,628.625 Q797.8594,628.8906 797.8594,629.3438 Q797.8594,629.7969 797.5469,630.0781 Q797.25,630.3594 796.5313,630.3594 L794.5,630.3594 Z " fill="#000000"/><text fill="#000000" font-family="sans-serif" font-size="20" font-style="italic" lengthAdjust="spacing" textLength="193" x="815.5" y="642.3711">ApplicationRepository</text><line style="stroke:#181818;stroke-width:0.5;" x1="515.5" x2="1273.5" y1="651.7656" y2="651.7656"/><line style="stroke:#181818;stroke-width:0.5;" x1="515.5" x2="1273.5" y1="659.7656" y2="659.7656"/><ellipse cx="525.5" cy="677.8438" fill="#84BE84" rx="3" ry="3" style="stroke:#038048;stroke-width:1.0;"/><text fill="#000000" font-family="sans-serif" font-size="20" lengthAdjust="spacing" textLength="733" x="535.5" y="684.5273">applicationsForJobOpeningWithRequirements(jobReference) : Iterable&lt;Application&gt;</text></g><!--class Application--><g id="elem_Application"><rect codeLine="36" fill="#F1F1F1" height="76.3125" id="Application" rx="2.5" ry="2.5" style="stroke:#181818;stroke-width:0.5;" width="315" x="696" y="888.6094"/><ellipse cx="801.5" cy="906.1875" fill="#ADD1B2" rx="12" ry="12" style="stroke:#181818;stroke-width:1.0;"/><path d="M803.6406,901.1094 Q803.8281,900.8594 804.0469,900.7344 Q804.2656,900.5938 804.5156,900.5938 Q804.9531,900.5938 805.2344,900.9063 Q805.5156,901.2031 805.5156,901.9219 L805.5156,903.625 Q805.5156,904.3438 805.2344,904.6563 Q804.9531,904.9688 804.5156,904.9688 Q804.125,904.9688 803.875,904.7344 Q803.625,904.5156 803.5156,903.9063 Q803.4531,903.4844 803.2344,903.2656 Q802.8438,902.8281 802.125,902.5625 Q801.4063,902.2969 800.6875,902.2969 Q799.7813,902.2969 799.0313,902.6875 Q798.2813,903.0781 797.7031,903.9688 Q797.125,904.8438 797.125,906.0469 L797.125,907.3438 Q797.125,908.7969 798.1719,909.7656 Q799.2344,910.7344 801.0938,910.7344 Q802.2031,910.7344 802.9844,910.4219 Q803.4219,910.25 803.9375,909.7344 Q804.25,909.4219 804.4219,909.3281 Q804.5938,909.2344 804.8281,909.2344 Q805.2188,909.2344 805.5156,909.5469 Q805.8281,909.8438 805.8281,910.25 Q805.8281,910.6563 805.4219,911.125 Q804.8281,911.8125 803.8906,912.2031 Q802.625,912.7344 801.1094,912.7344 Q799.3281,912.7344 797.9063,912 Q796.75,911.4063 795.9375,910.1406 Q795.125,908.875 795.125,907.3906 L795.125,906.0313 Q795.125,904.4688 795.8438,903.125 Q796.5781,901.7656 797.8594,901.0313 Q799.1563,900.2969 800.6094,900.2969 Q801.4688,900.2969 802.2188,900.5 Q802.9844,900.7031 803.6406,901.1094 Z " fill="#000000"/><text fill="#000000" font-family="sans-serif" font-size="20" lengthAdjust="spacing" textLength="95" x="823.5" y="914.3711">Application</text><line style="stroke:#181818;stroke-width:0.5;" x1="697" x2="1010" y1="923.7656" y2="923.7656"/><line style="stroke:#181818;stroke-width:0.5;" x1="697" x2="1010" y1="931.7656" y2="931.7656"/><ellipse cx="707" cy="949.8438" fill="#84BE84" rx="3" ry="3" style="stroke:#038048;stroke-width:1.0;"/><text fill="#000000" font-family="sans-serif" font-size="20" lengthAdjust="spacing" textLength="288" x="717" y="956.5273">updateRequirementResult(result)</text></g><!--class AuthorizationService--><g id="elem_AuthorizationService"><rect codeLine="40" fill="#F1F1F1" height="76.3125" id="AuthorizationService" rx="2.5" ry="2.5" style="stroke:#181818;stroke-width:0.5;" width="392" x="1309.5" y="616.6094"/><ellipse cx="1412.5" cy="634.1875" fill="#ADD1B2" rx="12" ry="12" style="stroke:#181818;stroke-width:1.0;"/><path d="M1414.6406,629.1094 Q1414.8281,628.8594 1415.0469,628.7344 Q1415.2656,628.5938 1415.5156,628.5938 Q1415.9531,628.5938 1416.2344,628.9063 Q1416.5156,629.2031 1416.5156,629.9219 L1416.5156,631.625 Q1416.5156,632.3438 1416.2344,632.6563 Q1415.9531,632.9688 1415.5156,632.9688 Q1415.125,632.9688 1414.875,632.7344 Q1414.625,632.5156 1414.5156,631.9063 Q1414.4531,631.4844 1414.2344,631.2656 Q1413.8438,630.8281 1413.125,630.5625 Q1412.4063,630.2969 1411.6875,630.2969 Q1410.7813,630.2969 1410.0313,630.6875 Q1409.2813,631.0781 1408.7031,631.9688 Q1408.125,632.8438 1408.125,634.0469 L1408.125,635.3438 Q1408.125,636.7969 1409.1719,637.7656 Q1410.2344,638.7344 1412.0938,638.7344 Q1413.2031,638.7344 1413.9844,638.4219 Q1414.4219,638.25 1414.9375,637.7344 Q1415.25,637.4219 1415.4219,637.3281 Q1415.5938,637.2344 1415.8281,637.2344 Q1416.2188,637.2344 1416.5156,637.5469 Q1416.8281,637.8438 1416.8281,638.25 Q1416.8281,638.6563 1416.4219,639.125 Q1415.8281,639.8125 1414.8906,640.2031 Q1413.625,640.7344 1412.1094,640.7344 Q1410.3281,640.7344 1408.9063,640 Q1407.75,639.4063 1406.9375,638.1406 Q1406.125,636.875 1406.125,635.3906 L1406.125,634.0313 Q1406.125,632.4688 1406.8438,631.125 Q1407.5781,629.7656 1408.8594,629.0313 Q1410.1563,628.2969 1411.6094,628.2969 Q1412.4688,628.2969 1413.2188,628.5 Q1413.9844,628.7031 1414.6406,629.1094 Z " fill="#000000"/><text fill="#000000" font-family="sans-serif" font-size="20" lengthAdjust="spacing" textLength="177" x="1434.5" y="642.3711">AuthorizationService</text><line style="stroke:#181818;stroke-width:0.5;" x1="1310.5" x2="1700.5" y1="651.7656" y2="651.7656"/><line style="stroke:#181818;stroke-width:0.5;" x1="1310.5" x2="1700.5" y1="659.7656" y2="659.7656"/><ellipse cx="1320.5" cy="677.8438" fill="#84BE84" rx="3" ry="3" style="stroke:#038048;stroke-width:1.0;"/><text fill="#000000" font-family="sans-serif" font-size="20" lengthAdjust="spacing" textLength="365" x="1330.5" y="684.5273">ensureAuthenticatedUserHasAnyOf(roles)</text></g><!--class RequirementSpecificationAnswer--><g id="elem_RequirementSpecificationAnswer"><rect codeLine="44" fill="#F1F1F1" height="101.4688" id="RequirementSpecificationAnswer" rx="2.5" ry="2.5" style="stroke:#181818;stroke-width:0.5;" width="322" x="516.5" y="1024.6094"/><ellipse cx="532.5" cy="1054.7656" fill="#FF8B40" rx="12" ry="12" style="stroke:#181818;stroke-width:1.0;"/><path d="M533,1058.8438 L535.8906,1051.9375 L535.4375,1051.9375 Q534.7188,1051.9375 534.4063,1051.6563 Q534.0938,1051.375 534.0938,1050.9219 Q534.0938,1050.4688 534.4063,1050.2031 Q534.7188,1049.9219 535.4375,1049.9219 L538.125,1049.9219 Q538.8438,1049.9219 539.1563,1050.2031 Q539.4688,1050.4688 539.4688,1050.9219 Q539.4688,1051.4688 539,1051.7813 Q538.7656,1051.9375 538.0781,1051.9375 L533.9688,1061.7656 L532.0469,1061.7656 L527.9375,1051.9375 Q527.2344,1051.9375 527.0156,1051.7813 Q526.5469,1051.4688 526.5469,1050.9219 Q526.5469,1050.4688 526.8594,1050.2031 Q527.1563,1049.9219 527.875,1049.9219 L530.5781,1049.9219 Q531.2969,1049.9219 531.5938,1050.2031 Q531.9063,1050.4688 531.9063,1050.9219 Q531.9063,1051.375 531.6094,1051.6563 Q531.3125,1051.9375 530.5781,1051.9375 L530.1094,1051.9375 L533,1058.8438 Z " fill="#000000"/><text fill="#000000" font-family="sans-serif" font-size="20" font-style="italic" lengthAdjust="spacing" textLength="128" x="627.5" y="1050.3711">«value object»</text><text fill="#000000" font-family="sans-serif" font-size="20" lengthAdjust="spacing" textLength="288" x="547.5" y="1075.5273">RequirementSpecificationAnswer</text><line style="stroke:#181818;stroke-width:0.5;" x1="517.5" x2="837.5" y1="1084.9219" y2="1084.9219"/><rect fill="none" height="6" style="stroke:#C82930;stroke-width:1.0;" width="6" x="524.5" y="1100"/><text fill="#000000" font-family="sans-serif" font-size="20" lengthAdjust="spacing" textLength="94" x="537.5" y="1109.6836">file : String</text><line style="stroke:#181818;stroke-width:0.5;" x1="517.5" x2="837.5" y1="1118.0781" y2="1118.0781"/></g><!--class RequirementSpecificationResult--><g id="elem_RequirementSpecificationResult"><rect codeLine="48" fill="#F1F1F1" height="101.4688" id="RequirementSpecificationResult" rx="2.5" ry="2.5" style="stroke:#181818;stroke-width:0.5;" width="311" x="874" y="1024.6094"/><ellipse cx="890" cy="1054.7656" fill="#FF8B40" rx="12" ry="12" style="stroke:#181818;stroke-width:1.0;"/><path d="M890.5,1058.8438 L893.3906,1051.9375 L892.9375,1051.9375 Q892.2188,1051.9375 891.9063,1051.6563 Q891.5938,1051.375 891.5938,1050.9219 Q891.5938,1050.4688 891.9063,1050.2031 Q892.2188,1049.9219 892.9375,1049.9219 L895.625,1049.9219 Q896.3438,1049.9219 896.6563,1050.2031 Q896.9688,1050.4688 896.9688,1050.9219 Q896.9688,1051.4688 896.5,1051.7813 Q896.2656,1051.9375 895.5781,1051.9375 L891.4688,1061.7656 L889.5469,1061.7656 L885.4375,1051.9375 Q884.7344,1051.9375 884.5156,1051.7813 Q884.0469,1051.4688 884.0469,1050.9219 Q884.0469,1050.4688 884.3594,1050.2031 Q884.6563,1049.9219 885.375,1049.9219 L888.0781,1049.9219 Q888.7969,1049.9219 889.0938,1050.2031 Q889.4063,1050.4688 889.4063,1050.9219 Q889.4063,1051.375 889.1094,1051.6563 Q888.8125,1051.9375 888.0781,1051.9375 L887.6094,1051.9375 L890.5,1058.8438 Z " fill="#000000"/><text fill="#000000" font-family="sans-serif" font-size="20" font-style="italic" lengthAdjust="spacing" textLength="128" x="979.5" y="1050.3711">«value object»</text><text fill="#000000" font-family="sans-serif" font-size="20" lengthAdjust="spacing" textLength="277" x="905" y="1075.5273">RequirementSpecificationResult</text><line style="stroke:#181818;stroke-width:0.5;" x1="875" x2="1184" y1="1084.9219" y2="1084.9219"/><rect fill="none" height="6" style="stroke:#C82930;stroke-width:1.0;" width="6" x="882" y="1100"/><text fill="#000000" font-family="sans-serif" font-size="20" lengthAdjust="spacing" textLength="137" x="895" y="1109.6836">result : Boolean</text><line style="stroke:#181818;stroke-width:0.5;" x1="875" x2="1184" y1="1118.0781" y2="1118.0781"/></g><!--class DomainRepository--><g id="elem_DomainRepository"><rect codeLine="52" fill="#F1F1F1" height="101.4688" id="DomainRepository" rx="2.5" ry="2.5" style="stroke:#181818;stroke-width:0.5;" width="198" x="1286.5" y="1024.6094"/><ellipse cx="1302.5" cy="1042.1875" fill="#B4A7E5" rx="12" ry="12" style="stroke:#181818;stroke-width:1.0;"/><path d="M1303.5,1038.3594 L1303.5,1046.1875 L1305.5313,1046.1875 Q1306.25,1046.1875 1306.5469,1046.4688 Q1306.8594,1046.7344 1306.8594,1047.1875 Q1306.8594,1047.625 1306.5469,1047.9063 Q1306.25,1048.1875 1305.5313,1048.1875 L1299.4844,1048.1875 Q1298.75,1048.1875 1298.4375,1047.9063 Q1298.1406,1047.625 1298.1406,1047.1875 Q1298.1406,1046.7344 1298.4375,1046.4688 Q1298.75,1046.1875 1299.4844,1046.1875 L1301.5,1046.1875 L1301.5,1038.3594 L1299.4844,1038.3594 Q1298.75,1038.3594 1298.4375,1038.0781 Q1298.1406,1037.7969 1298.1406,1037.3438 Q1298.1406,1036.8906 1298.4375,1036.625 Q1298.75,1036.3438 1299.4844,1036.3438 L1305.5313,1036.3438 Q1306.25,1036.3438 1306.5469,1036.625 Q1306.8594,1036.8906 1306.8594,1037.3438 Q1306.8594,1037.7969 1306.5469,1038.0781 Q1306.25,1038.3594 1305.5313,1038.3594 L1303.5,1038.3594 Z " fill="#000000"/><text fill="#000000" font-family="sans-serif" font-size="20" font-style="italic" lengthAdjust="spacing" textLength="164" x="1317.5" y="1050.3711">DomainRepository</text><line style="stroke:#181818;stroke-width:0.5;" x1="1287.5" x2="1483.5" y1="1059.7656" y2="1059.7656"/><line style="stroke:#181818;stroke-width:0.5;" x1="1287.5" x2="1483.5" y1="1067.7656" y2="1067.7656"/><ellipse cx="1297.5" cy="1085.8438" fill="#84BE84" rx="3" ry="3" style="stroke:#038048;stroke-width:1.0;"/><text fill="#000000" font-family="sans-serif" font-size="20" lengthAdjust="spacing" textLength="95" x="1307.5" y="1092.5273">ofIdentity()</text><ellipse cx="1297.5" cy="1111" fill="#84BE84" rx="3" ry="3" style="stroke:#038048;stroke-width:1.0;"/><text fill="#000000" font-family="sans-serif" font-size="20" lengthAdjust="spacing" textLength="55" x="1307.5" y="1117.6836">save()</text></g><!--class JobOpeningRepository--><g id="elem_JobOpeningRepository"><rect codeLine="57" fill="#F1F1F1" height="76.3125" id="JobOpeningRepository" rx="2.5" ry="2.5" style="stroke:#181818;stroke-width:0.5;" width="931" x="1118" y="752.6094"/><ellipse cx="1479" cy="770.1875" fill="#ADD1B2" rx="12" ry="12" style="stroke:#181818;stroke-width:1.0;"/><path d="M1481.1406,765.1094 Q1481.3281,764.8594 1481.5469,764.7344 Q1481.7656,764.5938 1482.0156,764.5938 Q1482.4531,764.5938 1482.7344,764.9063 Q1483.0156,765.2031 1483.0156,765.9219 L1483.0156,767.625 Q1483.0156,768.3438 1482.7344,768.6563 Q1482.4531,768.9688 1482.0156,768.9688 Q1481.625,768.9688 1481.375,768.7344 Q1481.125,768.5156 1481.0156,767.9063 Q1480.9531,767.4844 1480.7344,767.2656 Q1480.3438,766.8281 1479.625,766.5625 Q1478.9063,766.2969 1478.1875,766.2969 Q1477.2813,766.2969 1476.5313,766.6875 Q1475.7813,767.0781 1475.2031,767.9688 Q1474.625,768.8438 1474.625,770.0469 L1474.625,771.3438 Q1474.625,772.7969 1475.6719,773.7656 Q1476.7344,774.7344 1478.5938,774.7344 Q1479.7031,774.7344 1480.4844,774.4219 Q1480.9219,774.25 1481.4375,773.7344 Q1481.75,773.4219 1481.9219,773.3281 Q1482.0938,773.2344 1482.3281,773.2344 Q1482.7188,773.2344 1483.0156,773.5469 Q1483.3281,773.8438 1483.3281,774.25 Q1483.3281,774.6563 1482.9219,775.125 Q1482.3281,775.8125 1481.3906,776.2031 Q1480.125,776.7344 1478.6094,776.7344 Q1476.8281,776.7344 1475.4063,776 Q1474.25,775.4063 1473.4375,774.1406 Q1472.625,772.875 1472.625,771.3906 L1472.625,770.0313 Q1472.625,768.4688 1473.3438,767.125 Q1474.0781,765.7656 1475.3594,765.0313 Q1476.6563,764.2969 1478.1094,764.2969 Q1478.9688,764.2969 1479.7188,764.5 Q1480.4844,764.7031 1481.1406,765.1094 Z " fill="#000000"/><text fill="#000000" font-family="sans-serif" font-size="20" lengthAdjust="spacing" textLength="200" x="1501" y="778.3711">JobOpeningRepository</text><line style="stroke:#181818;stroke-width:0.5;" x1="1119" x2="2048" y1="787.7656" y2="787.7656"/><line style="stroke:#181818;stroke-width:0.5;" x1="1119" x2="2048" y1="795.7656" y2="795.7656"/><ellipse cx="1129" cy="813.8438" fill="#84BE84" rx="3" ry="3" style="stroke:#038048;stroke-width:1.0;"/><text fill="#000000" font-family="sans-serif" font-size="20" lengthAdjust="spacing" textLength="904" x="1139" y="820.5273">jobOpeningsInScreeningListOfCustomerManager(customerManagerUsername) : Iterable&lt;JobOpening&gt;</text></g><!--class JobOpeningManagementService--><g id="elem_JobOpeningManagementService"><rect codeLine="61" fill="#F1F1F1" height="76.3125" id="JobOpeningManagementService" rx="2.5" ry="2.5" style="stroke:#181818;stroke-width:0.5;" width="926" x="1861.5" y="616.6094"/><ellipse cx="2178" cy="634.1875" fill="#ADD1B2" rx="12" ry="12" style="stroke:#181818;stroke-width:1.0;"/><path d="M2180.1406,629.1094 Q2180.3281,628.8594 2180.5469,628.7344 Q2180.7656,628.5938 2181.0156,628.5938 Q2181.4531,628.5938 2181.7344,628.9063 Q2182.0156,629.2031 2182.0156,629.9219 L2182.0156,631.625 Q2182.0156,632.3438 2181.7344,632.6563 Q2181.4531,632.9688 2181.0156,632.9688 Q2180.625,632.9688 2180.375,632.7344 Q2180.125,632.5156 2180.0156,631.9063 Q2179.9531,631.4844 2179.7344,631.2656 Q2179.3438,630.8281 2178.625,630.5625 Q2177.9063,630.2969 2177.1875,630.2969 Q2176.2813,630.2969 2175.5313,630.6875 Q2174.7813,631.0781 2174.2031,631.9688 Q2173.625,632.8438 2173.625,634.0469 L2173.625,635.3438 Q2173.625,636.7969 2174.6719,637.7656 Q2175.7344,638.7344 2177.5938,638.7344 Q2178.7031,638.7344 2179.4844,638.4219 Q2179.9219,638.25 2180.4375,637.7344 Q2180.75,637.4219 2180.9219,637.3281 Q2181.0938,637.2344 2181.3281,637.2344 Q2181.7188,637.2344 2182.0156,637.5469 Q2182.3281,637.8438 2182.3281,638.25 Q2182.3281,638.6563 2181.9219,639.125 Q2181.3281,639.8125 2180.3906,640.2031 Q2179.125,640.7344 2177.6094,640.7344 Q2175.8281,640.7344 2174.4063,640 Q2173.25,639.4063 2172.4375,638.1406 Q2171.625,636.875 2171.625,635.3906 L2171.625,634.0313 Q2171.625,632.4688 2172.3438,631.125 Q2173.0781,629.7656 2174.3594,629.0313 Q2175.6563,628.2969 2177.1094,628.2969 Q2177.9688,628.2969 2178.7188,628.5 Q2179.4844,628.7031 2180.1406,629.1094 Z " fill="#000000"/><text fill="#000000" font-family="sans-serif" font-size="20" lengthAdjust="spacing" textLength="284" x="2200" y="642.3711">JobOpeningManagementService</text><line style="stroke:#181818;stroke-width:0.5;" x1="1862.5" x2="2786.5" y1="651.7656" y2="651.7656"/><line style="stroke:#181818;stroke-width:0.5;" x1="1862.5" x2="2786.5" y1="659.7656" y2="659.7656"/><ellipse cx="1872.5" cy="677.8438" fill="#84BE84" rx="3" ry="3" style="stroke:#038048;stroke-width:1.0;"/><text fill="#000000" font-family="sans-serif" font-size="20" lengthAdjust="spacing" textLength="899" x="1882.5" y="684.5273">jobOpeningsInScreeningListOfCustomerManager(customerManagerUsername) : List&lt;JobOpeningDto&gt;</text></g><!--class JobOpeningDTOService--><g id="elem_JobOpeningDTOService"><rect codeLine="64" fill="#F1F1F1" height="76.3125" id="JobOpeningDTOService" rx="2.5" ry="2.5" style="stroke:#181818;stroke-width:0.5;" width="509" x="2084" y="752.6094"/><ellipse cx="2228" cy="770.1875" fill="#ADD1B2" rx="12" ry="12" style="stroke:#181818;stroke-width:1.0;"/><path d="M2230.1406,765.1094 Q2230.3281,764.8594 2230.5469,764.7344 Q2230.7656,764.5938 2231.0156,764.5938 Q2231.4531,764.5938 2231.7344,764.9063 Q2232.0156,765.2031 2232.0156,765.9219 L2232.0156,767.625 Q2232.0156,768.3438 2231.7344,768.6563 Q2231.4531,768.9688 2231.0156,768.9688 Q2230.625,768.9688 2230.375,768.7344 Q2230.125,768.5156 2230.0156,767.9063 Q2229.9531,767.4844 2229.7344,767.2656 Q2229.3438,766.8281 2228.625,766.5625 Q2227.9063,766.2969 2227.1875,766.2969 Q2226.2813,766.2969 2225.5313,766.6875 Q2224.7813,767.0781 2224.2031,767.9688 Q2223.625,768.8438 2223.625,770.0469 L2223.625,771.3438 Q2223.625,772.7969 2224.6719,773.7656 Q2225.7344,774.7344 2227.5938,774.7344 Q2228.7031,774.7344 2229.4844,774.4219 Q2229.9219,774.25 2230.4375,773.7344 Q2230.75,773.4219 2230.9219,773.3281 Q2231.0938,773.2344 2231.3281,773.2344 Q2231.7188,773.2344 2232.0156,773.5469 Q2232.3281,773.8438 2232.3281,774.25 Q2232.3281,774.6563 2231.9219,775.125 Q2231.3281,775.8125 2230.3906,776.2031 Q2229.125,776.7344 2227.6094,776.7344 Q2225.8281,776.7344 2224.4063,776 Q2223.25,775.4063 2222.4375,774.1406 Q2221.625,772.875 2221.625,771.3906 L2221.625,770.0313 Q2221.625,768.4688 2222.3438,767.125 Q2223.0781,765.7656 2224.3594,765.0313 Q2225.6563,764.2969 2227.1094,764.2969 Q2227.9688,764.2969 2228.7188,764.5 Q2229.4844,764.7031 2230.1406,765.1094 Z " fill="#000000"/><text fill="#000000" font-family="sans-serif" font-size="20" lengthAdjust="spacing" textLength="212" x="2250" y="778.3711">JobOpeningDTOService</text><line style="stroke:#181818;stroke-width:0.5;" x1="2085" x2="2592" y1="787.7656" y2="787.7656"/><line style="stroke:#181818;stroke-width:0.5;" x1="2085" x2="2592" y1="795.7656" y2="795.7656"/><ellipse cx="2095" cy="813.8438" fill="#84BE84" rx="3" ry="3" style="stroke:#038048;stroke-width:1.0;"/><text fill="#000000" font-family="sans-serif" font-size="20" lengthAdjust="spacing" textLength="482" x="2105" y="820.5273">convertToDTO(jobOpeningList) : List&lt;JobOpeningDto&gt;</text></g><!--class JobOpening--><g id="elem_JobOpening"><rect codeLine="67" fill="#F1F1F1" height="76.3125" id="JobOpening" rx="2.5" ry="2.5" style="stroke:#181818;stroke-width:0.5;" width="139" x="2482" y="1037.1094"/><ellipse cx="2498" cy="1054.6875" fill="#ADD1B2" rx="12" ry="12" style="stroke:#181818;stroke-width:1.0;"/><path d="M2500.1406,1049.6094 Q2500.3281,1049.3594 2500.5469,1049.2344 Q2500.7656,1049.0938 2501.0156,1049.0938 Q2501.4531,1049.0938 2501.7344,1049.4063 Q2502.0156,1049.7031 2502.0156,1050.4219 L2502.0156,1052.125 Q2502.0156,1052.8438 2501.7344,1053.1563 Q2501.4531,1053.4688 2501.0156,1053.4688 Q2500.625,1053.4688 2500.375,1053.2344 Q2500.125,1053.0156 2500.0156,1052.4063 Q2499.9531,1051.9844 2499.7344,1051.7656 Q2499.3438,1051.3281 2498.625,1051.0625 Q2497.9063,1050.7969 2497.1875,1050.7969 Q2496.2813,1050.7969 2495.5313,1051.1875 Q2494.7813,1051.5781 2494.2031,1052.4688 Q2493.625,1053.3438 2493.625,1054.5469 L2493.625,1055.8438 Q2493.625,1057.2969 2494.6719,1058.2656 Q2495.7344,1059.2344 2497.5938,1059.2344 Q2498.7031,1059.2344 2499.4844,1058.9219 Q2499.9219,1058.75 2500.4375,1058.2344 Q2500.75,1057.9219 2500.9219,1057.8281 Q2501.0938,1057.7344 2501.3281,1057.7344 Q2501.7188,1057.7344 2502.0156,1058.0469 Q2502.3281,1058.3438 2502.3281,1058.75 Q2502.3281,1059.1563 2501.9219,1059.625 Q2501.3281,1060.3125 2500.3906,1060.7031 Q2499.125,1061.2344 2497.6094,1061.2344 Q2495.8281,1061.2344 2494.4063,1060.5 Q2493.25,1059.9063 2492.4375,1058.6406 Q2491.625,1057.375 2491.625,1055.8906 L2491.625,1054.5313 Q2491.625,1052.9688 2492.3438,1051.625 Q2493.0781,1050.2656 2494.3594,1049.5313 Q2495.6563,1048.7969 2497.1094,1048.7969 Q2497.9688,1048.7969 2498.7188,1049 Q2499.4844,1049.2031 2500.1406,1049.6094 Z " fill="#000000"/><text fill="#000000" font-family="sans-serif" font-size="20" lengthAdjust="spacing" textLength="105" x="2513" y="1062.8711">JobOpening</text><line style="stroke:#181818;stroke-width:0.5;" x1="2483" x2="2620" y1="1072.2656" y2="1072.2656"/><line style="stroke:#181818;stroke-width:0.5;" x1="2483" x2="2620" y1="1080.2656" y2="1080.2656"/><ellipse cx="2493" cy="1098.3438" fill="#84BE84" rx="3" ry="3" style="stroke:#038048;stroke-width:1.0;"/><text fill="#000000" font-family="sans-serif" font-size="20" lengthAdjust="spacing" textLength="62" x="2503" y="1105.0273">toDto()</text></g><!--reverse link AbstractUI to VerifyRequirementUI--><g id="link_AbstractUI_VerifyRequirementUI"><path codeLine="73" d="M1199.5,192.9294 C1199.5,206.8094 1199.5,220.5694 1199.5,232.5194 " fill="none" id="AbstractUI-backto-VerifyRequirementUI" style="stroke:#181818;stroke-width:1.0;"/><polygon fill="none" points="1192.5,192.6894,1199.5,172.6894,1206.5,192.6894,1192.5,192.6894" style="stroke:#181818;stroke-width:1.0;"/></g><!--link VerifyRequirementUI to VerifyRequirementsController--><g id="link_VerifyRequirementUI_VerifyRequirementsController"><path codeLine="75" d="M1199.5,309.0094 C1199.5,340.5294 1199.5,386.4194 1199.5,424.3694 " fill="none" id="VerifyRequirementUI-to-VerifyRequirementsController" style="stroke:#181818;stroke-width:1.0;stroke-dasharray:7.0,7.0;"/><polygon fill="#181818" points="1199.5,429.4294,1203.5,420.4294,1199.5,424.4294,1195.5,420.4294,1199.5,429.4294" style="stroke:#181818;stroke-width:1.0;"/></g><!--link VerifyRequirementsController to AuthorizationService--><g id="link_VerifyRequirementsController_AuthorizationService"><path codeLine="77" d="M1319.56,556.6894 C1356.74,576.0694 1396.64,596.8694 1429.91,614.2094 " fill="none" id="VerifyRequirementsController-to-AuthorizationService" style="stroke:#181818;stroke-width:1.0;"/><polygon fill="#181818" points="1434.35,616.5194,1428.2261,608.8059,1429.9186,614.2036,1424.5209,615.8961,1434.35,616.5194" style="stroke:#181818;stroke-width:1.0;"/></g><!--link VerifyRequirementsController to JobOpeningRepository--><g id="link_VerifyRequirementsController_JobOpeningRepository"><path codeLine="78" d="M1426.13,519.6894 C1548.16,538.6294 1681.19,569.4694 1718.5,616.6094 C1739.46,643.0994 1733.91,662.5494 1718.5,692.6094 C1706.59,715.8394 1686.23,734.7694 1664.89,749.5294 " fill="none" id="VerifyRequirementsController-to-JobOpeningRepository" style="stroke:#181818;stroke-width:1.0;"/><polygon fill="#181818" points="1660.61,752.4294,1670.3037,750.6882,1664.7481,749.6229,1665.8134,744.0673,1660.61,752.4294" style="stroke:#181818;stroke-width:1.0;"/></g><!--link VerifyRequirementsController to ApplicationRepository--><g id="link_VerifyRequirementsController_ApplicationRepository"><path codeLine="79" d="M1079.83,556.6894 C1042.93,575.9894 1003.33,596.6994 970.25,613.9994 " fill="none" id="VerifyRequirementsController-to-ApplicationRepository" style="stroke:#181818;stroke-width:1.0;"/><polygon fill="#181818" points="965.42,616.5194,975.2499,615.9091,969.8544,614.2095,971.5541,608.814,965.42,616.5194" style="stroke:#181818;stroke-width:1.0;"/></g><!--link VerifyRequirementsController to RequirementSpecificationPlugin--><g id="link_VerifyRequirementsController_RequirementSpecificationPlugin"><path codeLine="80" d="M972.87,506.3194 C793.76,520.7794 563.2,551.6994 496.5,616.6094 C461.93,650.2594 456.64,707.9494 457.69,747.3794 " fill="none" id="VerifyRequirementsController-to-RequirementSpecificationPlugin" style="stroke:#181818;stroke-width:1.0;stroke-dasharray:7.0,7.0;"/><polygon fill="#181818" points="457.87,752.5794,461.5593,743.4476,457.6987,747.5823,453.564,743.7217,457.87,752.5794" style="stroke:#181818;stroke-width:1.0;"/></g><!--link VerifyRequirementsController to FileManagement--><g id="link_VerifyRequirementsController_FileManagement"><path codeLine="81" d="M972.72,514.0394 C822.77,531.3994 623.28,562.5794 453.5,616.6094 C348.02,650.1794 234.38,710.2194 164.83,749.9894 " fill="none" id="VerifyRequirementsController-to-FileManagement" style="stroke:#181818;stroke-width:1.0;stroke-dasharray:7.0,7.0;"/><polygon fill="#181818" points="160.32,752.5794,170.1155,751.5559,164.6533,750.0849,166.1243,744.6226,160.32,752.5794" style="stroke:#181818;stroke-width:1.0;"/></g><!--link VerifyRequirementsController to JobOpeningManagementService--><g id="link_VerifyRequirementsController_JobOpeningManagementService"><path codeLine="82" d="M1426.15,526.2394 C1608.79,552.1394 1865.96,588.5994 2058.37,615.8794 " fill="none" id="VerifyRequirementsController-to-JobOpeningManagementService" style="stroke:#181818;stroke-width:1.0;"/><polygon fill="#181818" points="2063.47,616.5994,2055.1346,611.3533,2058.5214,615.8843,2053.9904,619.271,2063.47,616.5994" style="stroke:#181818;stroke-width:1.0;"/></g><!--link JobOpeningManagementService to JobOpeningRepository--><g id="link_JobOpeningManagementService_JobOpeningRepository"><path codeLine="84" d="M2119.57,692.6694 C2018.05,711.0294 1895.65,733.1594 1793.46,751.6394 " fill="none" id="JobOpeningManagementService-to-JobOpeningRepository" style="stroke:#181818;stroke-width:1.0;"/><polygon fill="#181818" points="1788.3,752.5694,1797.8656,754.9144,1793.2212,751.685,1796.4506,747.0406,1788.3,752.5694" style="stroke:#181818;stroke-width:1.0;"/></g><!--link JobOpeningManagementService to JobOpeningDTOService--><g id="link_JobOpeningManagementService_JobOpeningDTOService"><path codeLine="85" d="M2328.4,692.9394 C2330.16,709.7794 2332.25,729.7594 2334.07,747.1694 " fill="none" id="JobOpeningManagementService-to-JobOpeningDTOService" style="stroke:#181818;stroke-width:1.0;"/><polygon fill="#181818" points="2334.62,752.4794,2337.6727,743.1156,2334.1055,747.5059,2329.7151,743.9387,2334.62,752.4794" style="stroke:#181818;stroke-width:1.0;"/></g><!--link JobOpeningManagementService to JobOpening--><g id="link_JobOpeningManagementService_JobOpening"><path codeLine="86" d="M2535.67,692.7794 C2565.02,706.8794 2591.56,726.1894 2610.5,752.6094 C2671.36,837.5094 2614.19,966.5494 2577.26,1032.3494 " fill="none" id="JobOpeningManagementService-to-JobOpening" style="stroke:#181818;stroke-width:1.0;stroke-dasharray:7.0,7.0;"/><polygon fill="#181818" points="2574.64,1036.9794,2582.5596,1031.1245,2577.1069,1032.6303,2575.6011,1027.1775,2574.64,1036.9794" style="stroke:#181818;stroke-width:1.0;"/></g><!--link JobOpeningDTOService to JobOpening--><g id="link_JobOpeningDTOService_JobOpening"><path codeLine="87" d="M2366.57,828.8294 C2406.31,881.5494 2478.76,977.6394 2520.2,1032.5894 " fill="none" id="JobOpeningDTOService-to-JobOpening" style="stroke:#181818;stroke-width:1.0;stroke-dasharray:7.0,7.0;"/><polygon fill="#181818" points="2523.37,1036.8094,2521.1316,1027.2183,2520.354,1032.8214,2514.7509,1032.0438,2523.37,1036.8094" style="stroke:#181818;stroke-width:1.0;"/></g><!--link ApplicationRepository to Application--><g id="link_ApplicationRepository_Application"><path codeLine="91" d="M888.84,692.8694 C881.27,742.7594 867.86,831.0394 859.92,883.3494 " fill="none" id="ApplicationRepository-to-Application" style="stroke:#181818;stroke-width:1.0;stroke-dasharray:7.0,7.0;"/><polygon fill="#181818" points="859.17,888.2994,864.4866,880.0088,859.9271,883.357,856.5788,878.7975,859.17,888.2994" style="stroke:#181818;stroke-width:1.0;"/></g><!--link Application to RequirementSpecificationResult--><g id="link_Application_RequirementSpecificationResult"><path codeLine="92" d="M898.37,964.9594 C918.87,982.0294 943.53,1002.5494 965.91,1021.1694 " fill="none" id="Application-to-RequirementSpecificationResult" style="stroke:#181818;stroke-width:1.0;"/><polygon fill="#181818" points="969.76,1024.3894,965.4035,1015.5564,965.9177,1021.1899,960.2843,1021.7041,969.76,1024.3894" style="stroke:#181818;stroke-width:1.0;"/><text fill="#000000" font-family="sans-serif" font-size="20" lengthAdjust="spacing" textLength="11" x="950.4011" y="1012.031">1</text></g><!--link Application to RequirementSpecificationAnswer--><g id="link_Application_RequirementSpecificationAnswer"><path codeLine="93" d="M808.63,964.9594 C788.13,982.0294 763.47,1002.5494 741.09,1021.1694 " fill="none" id="Application-to-RequirementSpecificationAnswer" style="stroke:#181818;stroke-width:1.0;"/><polygon fill="#181818" points="737.24,1024.3894,746.7157,1021.7041,741.0823,1021.1899,741.5965,1015.5564,737.24,1024.3894" style="stroke:#181818;stroke-width:1.0;"/><text fill="#000000" font-family="sans-serif" font-size="20" lengthAdjust="spacing" textLength="11" x="733.1895" y="1012.031">1</text></g><!--link ApplicationRepository to DomainRepository--><g id="link_ApplicationRepository_DomainRepository"><path codeLine="96" d="M938.07,692.7494 C1025.43,767.2094 1222.24,934.9594 1323.19,1020.9994 " fill="none" id="ApplicationRepository-to-DomainRepository" style="stroke:#181818;stroke-width:1.0;stroke-dasharray:7.0,7.0;"/><polygon fill="#181818" points="1327.04,1024.2794,1322.7906,1015.3944,1323.2367,1021.0337,1317.5974,1021.4798,1327.04,1024.2794" style="stroke:#181818;stroke-width:1.0;"/></g><!--link JobOpeningRepository to DomainRepository--><g id="link_JobOpeningRepository_DomainRepository"><path codeLine="97" d="M1557.41,828.8294 C1523.13,877.7494 1462.66,964.0194 1423.35,1020.1094 " fill="none" id="JobOpeningRepository-to-DomainRepository" style="stroke:#181818;stroke-width:1.0;stroke-dasharray:7.0,7.0;"/><polygon fill="#181818" points="1420.32,1024.4294,1428.7593,1019.3521,1423.1883,1020.3339,1422.2065,1014.7629,1420.32,1024.4294" style="stroke:#181818;stroke-width:1.0;"/></g><!--SRC=[hLHTRzem57tthx3MXmPreUsqILE5a6WH6bCd9j9spoRSW5l7pkmRAhhjlyzssEAmy55flA3utdFkzp5FN1PCiroez0dcT0uPAmMEbCI4lm1zTq5EbuY5kJe_BmIJMEQYcwhyF1NCc7ZEsSA22K6E0kXzSdbn-O76zCPPwV2FbH0sCwXPYjJZw63pUJ-cFmYrlnCwLybIFKUTpQS9FtB6vQrIXNtuHKX5yG2QP-ifV2-vXXnanNLMy-psD3UsFAs404qzPW7uMSqc1KWk5xVSODIXL_InyJH4PJrNdckmObomcO2GDAhzhM-7n1ldq6UI3Of2y9GXLz8Zff211fc2J_WqT2PS8kYCfK17NC0N9jd2MtpEF2-KnY535cNMwk4r8E192aXvjedvLPGBBZq1h9We6S8kLnUpehQz65lc1UXcaA2MAHJAS5HwxRbPKEL8wRgvtpWkjvjMjy05ikIkixs0l5_FCdZrWSfYtYnX2iRkRwJzNx04WnANIlCN3qr0hxWjmBT1cbA3CrkqeuRvlG7zYPc1N4-ooEu9c81eLxi6qZpRVUhreeUt9wFHn-lt5ntgMWnKpHuXnNxVnekfwwYjCq5jst6OjghdC6rLi2M-LZPX9fkJ6YftGbj3Kjbuxch6jRsMCshO2iApgOUsXQltt8nbachuUoEJxAOqg7BGrRBgA6r-kyvAbZSdNGVgjqMlztupjl-OWmC4yUtTkXIsCnZUJOBGgPBsiF5EsUUegH77K_f6ehBMgkM419BO-nd7RVf6I9leTUEulrVZMc2X0ZfustKSHhLjo16nsbHZFyoNk5_IZY1eYkXholjd1GdPOzpTc-D1zShj1NKR8DA6hseFdDokjGftTsiwePjFxytbcmCwzIf8fPZxqzaMBjAgIksklm40]--></g></svg>