<?xml version="1.0" encoding="UTF-8" standalone="no"?><svg xmlns="http://www.w3.org/2000/svg" xmlns:xlink="http://www.w3.org/1999/xlink" contentStyleType="text/css" height="1695px" preserveAspectRatio="none" style="width:3894px;height:1695px;background:#FFFFFF;" version="1.1" viewBox="0 0 3894 1695" width="3894px" zoomAndPan="magnify"><defs/><g><text fill="#000000" font-family="sans-serif" font-size="14" font-weight="bold" lengthAdjust="spacing" textLength="196" x="1850.5" y="29.5332">US1015 - Sequence Diagram</text><rect fill="#FFFFFF" height="1414.8438" style="stroke:#181818;stroke-width:1.0;" width="10" x="87.5" y="149.9219"/><rect fill="#FFFFFF" height="569.0313" style="stroke:#181818;stroke-width:1.0;" width="10" x="571.5" y="181.0781"/><rect fill="#FFFFFF" height="784.5" style="stroke:#181818;stroke-width:1.0;" width="10" x="571.5" y="789.2656"/><rect fill="#FFFFFF" height="415.4063" style="stroke:#181818;stroke-width:1.0;" width="10" x="1016.5" y="295.5469"/><rect fill="#FFFFFF" height="697.1875" style="stroke:#181818;stroke-width:1.0;" width="10" x="1016.5" y="828.4219"/><rect fill="#FFFFFF" height="534.7188" style="stroke:#181818;stroke-width:1.0;" width="10" x="1021.5" y="944.7344"/><rect fill="#FFFFFF" height="30" style="stroke:#181818;stroke-width:1.0;" width="10" x="1492.5" y="334.7031"/><rect fill="#FFFFFF" height="30" style="stroke:#181818;stroke-width:1.0;" width="10" x="1492.5" y="867.5781"/><rect fill="#FFFFFF" height="267.9375" style="stroke:#181818;stroke-width:1.0;" width="10" x="1753" y="403.8594"/><rect fill="#FFFFFF" height="128.4688" style="stroke:#181818;stroke-width:1.0;" width="10" x="2070" y="512.1719"/><rect fill="#FFFFFF" height="30" style="stroke:#181818;stroke-width:1.0;" width="10" x="2477" y="443.0156"/><rect fill="#FFFFFF" height="30" style="stroke:#181818;stroke-width:1.0;" width="10" x="2655.5" y="595.6406"/><rect fill="#FFFFFF" height="30" style="stroke:#181818;stroke-width:1.0;" width="10" x="2892.5" y="1067.2031"/><rect fill="#FFFFFF" height="39.1563" style="stroke:#181818;stroke-width:1.0;" width="10" x="3168" y="988.8906"/><rect fill="#FFFFFF" height="30" style="stroke:#181818;stroke-width:1.0;" width="10" x="3168" y="1397.2969"/><rect fill="#FFFFFF" height="39.1563" style="stroke:#181818;stroke-width:1.0;" width="10" x="3426" y="1249.8281"/><rect fill="#FFFFFF" height="30" style="stroke:#181818;stroke-width:1.0;" width="10" x="3665.5" y="1136.3594"/><rect fill="#FFFFFF" height="30" style="stroke:#181818;stroke-width:1.0;" width="10" x="3815.5" y="1328.1406"/><rect fill="none" height="106.4688" style="stroke:#000000;stroke-width:1.5;" width="784" x="1949" y="527.1719"/><rect fill="none" height="253.9375" style="stroke:#000000;stroke-width:1.5;" width="3010" x="878" y="1181.3594"/><line style="stroke:#181818;stroke-width:0.5;stroke-dasharray:5.0,5.0;" x1="92" x2="92" y1="139.9219" y2="1582.7656"/><line style="stroke:#181818;stroke-width:0.5;stroke-dasharray:5.0,5.0;" x1="576" x2="576" y1="139.9219" y2="1582.7656"/><line style="stroke:#181818;stroke-width:0.5;stroke-dasharray:5.0,5.0;" x1="1021" x2="1021" y1="236.7344" y2="1582.7656"/><line style="stroke:#181818;stroke-width:0.5;stroke-dasharray:5.0,5.0;" x1="1497" x2="1497" y1="139.9219" y2="1582.7656"/><line style="stroke:#181818;stroke-width:0.5;stroke-dasharray:5.0,5.0;" x1="1758" x2="1758" y1="139.9219" y2="1582.7656"/><line style="stroke:#181818;stroke-width:0.5;stroke-dasharray:5.0,5.0;" x1="2075" x2="2075" y1="139.9219" y2="1582.7656"/><line style="stroke:#181818;stroke-width:0.5;stroke-dasharray:5.0,5.0;" x1="2482" x2="2482" y1="139.9219" y2="1582.7656"/><line style="stroke:#181818;stroke-width:0.5;stroke-dasharray:5.0,5.0;" x1="2660" x2="2660" y1="139.9219" y2="1582.7656"/><line style="stroke:#181818;stroke-width:0.5;stroke-dasharray:5.0,5.0;" x1="2897" x2="2897" y1="139.9219" y2="1582.7656"/><line style="stroke:#181818;stroke-width:0.5;stroke-dasharray:5.0,5.0;" x1="3173" x2="3173" y1="139.9219" y2="1582.7656"/><line style="stroke:#181818;stroke-width:0.5;stroke-dasharray:5.0,5.0;" x1="3431" x2="3431" y1="139.9219" y2="1582.7656"/><line style="stroke:#181818;stroke-width:0.5;stroke-dasharray:5.0,5.0;" x1="3670" x2="3670" y1="139.9219" y2="1582.7656"/><line style="stroke:#181818;stroke-width:0.5;stroke-dasharray:5.0,5.0;" x1="3820" x2="3820" y1="139.9219" y2="1582.7656"/><text fill="#000000" font-family="sans-serif" font-size="20" lengthAdjust="spacing" textLength="169" x="5" y="135.5273">Customer Manager</text><ellipse cx="92.5" cy="63.2656" fill="#E2E2F0" rx="8" ry="8" style="stroke:#181818;stroke-width:0.5;"/><path d="M92.5,71.2656 L92.5,98.2656 M79.5,79.2656 L105.5,79.2656 M92.5,98.2656 L79.5,113.2656 M92.5,98.2656 L105.5,113.2656 " fill="none" style="stroke:#181818;stroke-width:0.5;"/><text fill="#000000" font-family="sans-serif" font-size="20" lengthAdjust="spacing" textLength="169" x="5" y="1602.5273">Customer Manager</text><ellipse cx="92.5" cy="1615.4219" fill="#E2E2F0" rx="8" ry="8" style="stroke:#181818;stroke-width:0.5;"/><path d="M92.5,1623.4219 L92.5,1650.4219 M79.5,1631.4219 L105.5,1631.4219 M92.5,1650.4219 L79.5,1665.4219 M92.5,1650.4219 L105.5,1665.4219 " fill="none" style="stroke:#181818;stroke-width:0.5;"/><rect fill="#E2E2F0" height="64.3125" rx="2.5" ry="2.5" style="stroke:#181818;stroke-width:0.5;" width="201" x="476" y="74.6094"/><text fill="#000000" font-family="sans-serif" font-size="20" font-style="italic" lengthAdjust="spacing" textLength="131" x="511" y="102.3711">«presentation»</text><text fill="#000000" font-family="sans-serif" font-size="20" lengthAdjust="spacing" textLength="187" x="483" y="127.5273">:VerifyRequirementUI</text><rect fill="#E2E2F0" height="64.3125" rx="2.5" ry="2.5" style="stroke:#181818;stroke-width:0.5;" width="201" x="476" y="1581.7656"/><text fill="#000000" font-family="sans-serif" font-size="20" font-style="italic" lengthAdjust="spacing" textLength="131" x="511" y="1609.5273">«presentation»</text><text fill="#000000" font-family="sans-serif" font-size="20" lengthAdjust="spacing" textLength="187" x="483" y="1634.6836">:VerifyRequirementUI</text><rect fill="#E2E2F0" height="64.3125" rx="2.5" ry="2.5" style="stroke:#181818;stroke-width:0.5;" width="267" x="888" y="1581.7656"/><text fill="#000000" font-family="sans-serif" font-size="20" font-style="italic" lengthAdjust="spacing" textLength="118" x="962.5" y="1609.5273">«application»</text><text fill="#000000" font-family="sans-serif" font-size="20" lengthAdjust="spacing" textLength="253" x="895" y="1634.6836">:VerifyRequirementController</text><rect fill="#E2E2F0" height="64.3125" rx="2.5" ry="2.5" style="stroke:#181818;stroke-width:0.5;" width="197" x="1399" y="74.6094"/><text fill="#000000" font-family="sans-serif" font-size="20" font-style="italic" lengthAdjust="spacing" textLength="86" x="1454.5" y="102.3711">«service»</text><text fill="#000000" font-family="sans-serif" font-size="20" lengthAdjust="spacing" textLength="183" x="1406" y="127.5273">:AuthorizationService</text><rect fill="#E2E2F0" height="64.3125" rx="2.5" ry="2.5" style="stroke:#181818;stroke-width:0.5;" width="197" x="1399" y="1581.7656"/><text fill="#000000" font-family="sans-serif" font-size="20" font-style="italic" lengthAdjust="spacing" textLength="86" x="1454.5" y="1609.5273">«service»</text><text fill="#000000" font-family="sans-serif" font-size="20" lengthAdjust="spacing" textLength="183" x="1406" y="1634.6836">:AuthorizationService</text><rect fill="#E2E2F0" height="64.3125" rx="2.5" ry="2.5" style="stroke:#181818;stroke-width:0.5;" width="304" x="1606" y="74.6094"/><text fill="#000000" font-family="sans-serif" font-size="20" font-style="italic" lengthAdjust="spacing" textLength="86" x="1715" y="102.3711">«service»</text><text fill="#000000" font-family="sans-serif" font-size="20" lengthAdjust="spacing" textLength="290" x="1613" y="127.5273">:JobOpeningManagementService</text><rect fill="#E2E2F0" height="64.3125" rx="2.5" ry="2.5" style="stroke:#181818;stroke-width:0.5;" width="304" x="1606" y="1581.7656"/><text fill="#000000" font-family="sans-serif" font-size="20" font-style="italic" lengthAdjust="spacing" textLength="86" x="1715" y="1609.5273">«service»</text><text fill="#000000" font-family="sans-serif" font-size="20" lengthAdjust="spacing" textLength="290" x="1613" y="1634.6836">:JobOpeningManagementService</text><rect fill="#E2E2F0" height="64.3125" rx="2.5" ry="2.5" style="stroke:#181818;stroke-width:0.5;" width="232" x="1959" y="74.6094"/><text fill="#000000" font-family="sans-serif" font-size="20" font-style="italic" lengthAdjust="spacing" textLength="86" x="2032" y="102.3711">«service»</text><text fill="#000000" font-family="sans-serif" font-size="20" lengthAdjust="spacing" textLength="218" x="1966" y="127.5273">:JobOpeningDTOService</text><rect fill="#E2E2F0" height="64.3125" rx="2.5" ry="2.5" style="stroke:#181818;stroke-width:0.5;" width="232" x="1959" y="1581.7656"/><text fill="#000000" font-family="sans-serif" font-size="20" font-style="italic" lengthAdjust="spacing" textLength="86" x="2032" y="1609.5273">«service»</text><text fill="#000000" font-family="sans-serif" font-size="20" lengthAdjust="spacing" textLength="218" x="1966" y="1634.6836">:JobOpeningDTOService</text><text fill="#000000" font-family="sans-serif" font-size="20" font-style="italic" lengthAdjust="spacing" textLength="110" x="2424" y="110.3711">«repository»</text><text fill="#000000" font-family="sans-serif" font-size="20" lengthAdjust="spacing" textLength="206" x="2376" y="135.5273">:JobOpeningRepository</text><path d="M2464,53.6094 C2464,43.6094 2482,43.6094 2482,43.6094 C2482,43.6094 2500,43.6094 2500,53.6094 L2500,79.6094 C2500,89.6094 2482,89.6094 2482,89.6094 C2482,89.6094 2464,89.6094 2464,79.6094 L2464,53.6094 " fill="#E2E2F0" style="stroke:#181818;stroke-width:1.5;"/><path d="M2464,53.6094 C2464,63.6094 2482,63.6094 2482,63.6094 C2482,63.6094 2500,63.6094 2500,53.6094 " fill="none" style="stroke:#181818;stroke-width:1.5;"/><text fill="#000000" font-family="sans-serif" font-size="20" font-style="italic" lengthAdjust="spacing" textLength="110" x="2424" y="1602.5273">«repository»</text><text fill="#000000" font-family="sans-serif" font-size="20" lengthAdjust="spacing" textLength="206" x="2376" y="1627.6836">:JobOpeningRepository</text><path d="M2464,1642.0781 C2464,1632.0781 2482,1632.0781 2482,1632.0781 C2482,1632.0781 2500,1632.0781 2500,1642.0781 L2500,1668.0781 C2500,1678.0781 2482,1678.0781 2482,1678.0781 C2482,1678.0781 2464,1678.0781 2464,1668.0781 L2464,1642.0781 " fill="#E2E2F0" style="stroke:#181818;stroke-width:1.5;"/><path d="M2464,1642.0781 C2464,1652.0781 2482,1652.0781 2482,1652.0781 C2482,1652.0781 2500,1652.0781 2500,1642.0781 " fill="none" style="stroke:#181818;stroke-width:1.5;"/><rect fill="#E2E2F0" height="64.3125" rx="2.5" ry="2.5" style="stroke:#181818;stroke-width:0.5;" width="125" x="2598" y="74.6094"/><text fill="#000000" font-family="sans-serif" font-size="20" font-style="italic" lengthAdjust="spacing" textLength="88" x="2616.5" y="102.3711">«domain»</text><text fill="#000000" font-family="sans-serif" font-size="20" lengthAdjust="spacing" textLength="111" x="2605" y="127.5273">:JobOpening</text><rect fill="#E2E2F0" height="64.3125" rx="2.5" ry="2.5" style="stroke:#181818;stroke-width:0.5;" width="125" x="2598" y="1581.7656"/><text fill="#000000" font-family="sans-serif" font-size="20" font-style="italic" lengthAdjust="spacing" textLength="88" x="2616.5" y="1609.5273">«domain»</text><text fill="#000000" font-family="sans-serif" font-size="20" lengthAdjust="spacing" textLength="111" x="2605" y="1634.6836">:JobOpening</text><text fill="#000000" font-family="sans-serif" font-size="20" font-style="italic" lengthAdjust="spacing" textLength="110" x="2839.5" y="110.3711">«repository»</text><text fill="#000000" font-family="sans-serif" font-size="20" lengthAdjust="spacing" textLength="323" x="2733" y="135.5273">:RequirementSpecificationRepository</text><path d="M2879.5,53.6094 C2879.5,43.6094 2897.5,43.6094 2897.5,43.6094 C2897.5,43.6094 2915.5,43.6094 2915.5,53.6094 L2915.5,79.6094 C2915.5,89.6094 2897.5,89.6094 2897.5,89.6094 C2897.5,89.6094 2879.5,89.6094 2879.5,79.6094 L2879.5,53.6094 " fill="#E2E2F0" style="stroke:#181818;stroke-width:1.5;"/><path d="M2879.5,53.6094 C2879.5,63.6094 2897.5,63.6094 2897.5,63.6094 C2897.5,63.6094 2915.5,63.6094 2915.5,53.6094 " fill="none" style="stroke:#181818;stroke-width:1.5;"/><text fill="#000000" font-family="sans-serif" font-size="20" font-style="italic" lengthAdjust="spacing" textLength="110" x="2839.5" y="1602.5273">«repository»</text><text fill="#000000" font-family="sans-serif" font-size="20" lengthAdjust="spacing" textLength="323" x="2733" y="1627.6836">:RequirementSpecificationRepository</text><path d="M2879.5,1642.0781 C2879.5,1632.0781 2897.5,1632.0781 2897.5,1632.0781 C2897.5,1632.0781 2915.5,1632.0781 2915.5,1642.0781 L2915.5,1668.0781 C2915.5,1678.0781 2897.5,1678.0781 2897.5,1678.0781 C2897.5,1678.0781 2879.5,1678.0781 2879.5,1668.0781 L2879.5,1642.0781 " fill="#E2E2F0" style="stroke:#181818;stroke-width:1.5;"/><path d="M2879.5,1642.0781 C2879.5,1652.0781 2897.5,1652.0781 2897.5,1652.0781 C2897.5,1652.0781 2915.5,1652.0781 2915.5,1642.0781 " fill="none" style="stroke:#181818;stroke-width:1.5;"/><text fill="#000000" font-family="sans-serif" font-size="20" font-style="italic" lengthAdjust="spacing" textLength="110" x="3115" y="110.3711">«repository»</text><text fill="#000000" font-family="sans-serif" font-size="20" lengthAdjust="spacing" textLength="196" x="3072" y="135.5273">:ApplicationRepository</text><path d="M3155,53.6094 C3155,43.6094 3173,43.6094 3173,43.6094 C3173,43.6094 3191,43.6094 3191,53.6094 L3191,79.6094 C3191,89.6094 3173,89.6094 3173,89.6094 C3173,89.6094 3155,89.6094 3155,79.6094 L3155,53.6094 " fill="#E2E2F0" style="stroke:#181818;stroke-width:1.5;"/><path d="M3155,53.6094 C3155,63.6094 3173,63.6094 3173,63.6094 C3173,63.6094 3191,63.6094 3191,53.6094 " fill="none" style="stroke:#181818;stroke-width:1.5;"/><text fill="#000000" font-family="sans-serif" font-size="20" font-style="italic" lengthAdjust="spacing" textLength="110" x="3115" y="1602.5273">«repository»</text><text fill="#000000" font-family="sans-serif" font-size="20" lengthAdjust="spacing" textLength="196" x="3072" y="1627.6836">:ApplicationRepository</text><path d="M3155,1642.0781 C3155,1632.0781 3173,1632.0781 3173,1632.0781 C3173,1632.0781 3191,1632.0781 3191,1642.0781 L3191,1668.0781 C3191,1678.0781 3173,1678.0781 3173,1678.0781 C3173,1678.0781 3155,1678.0781 3155,1668.0781 L3155,1642.0781 " fill="#E2E2F0" style="stroke:#181818;stroke-width:1.5;"/><path d="M3155,1642.0781 C3155,1652.0781 3173,1652.0781 3173,1652.0781 C3173,1652.0781 3191,1652.0781 3191,1642.0781 " fill="none" style="stroke:#181818;stroke-width:1.5;"/><rect fill="#E2E2F0" height="64.3125" rx="2.5" ry="2.5" style="stroke:#181818;stroke-width:0.5;" width="294" x="3284" y="74.6094"/><text fill="#000000" font-family="sans-serif" font-size="20" font-style="italic" lengthAdjust="spacing" textLength="99" x="3381.5" y="102.3711">«interface»</text><text fill="#000000" font-family="sans-serif" font-size="20" lengthAdjust="spacing" textLength="280" x="3291" y="127.5273">:RequirementSpecificationPlugin</text><rect fill="#E2E2F0" height="64.3125" rx="2.5" ry="2.5" style="stroke:#181818;stroke-width:0.5;" width="294" x="3284" y="1581.7656"/><text fill="#000000" font-family="sans-serif" font-size="20" font-style="italic" lengthAdjust="spacing" textLength="99" x="3381.5" y="1609.5273">«interface»</text><text fill="#000000" font-family="sans-serif" font-size="20" lengthAdjust="spacing" textLength="280" x="3291" y="1634.6836">:RequirementSpecificationPlugin</text><rect fill="#E2E2F0" height="64.3125" rx="2.5" ry="2.5" style="stroke:#181818;stroke-width:0.5;" width="165" x="3588" y="74.6094"/><text fill="#000000" font-family="sans-serif" font-size="20" font-style="italic" lengthAdjust="spacing" textLength="99" x="3621" y="102.3711">«interface»</text><text fill="#000000" font-family="sans-serif" font-size="20" lengthAdjust="spacing" textLength="151" x="3595" y="127.5273">:FileManagement</text><rect fill="#E2E2F0" height="64.3125" rx="2.5" ry="2.5" style="stroke:#181818;stroke-width:0.5;" width="165" x="3588" y="1581.7656"/><text fill="#000000" font-family="sans-serif" font-size="20" font-style="italic" lengthAdjust="spacing" textLength="99" x="3621" y="1609.5273">«interface»</text><text fill="#000000" font-family="sans-serif" font-size="20" lengthAdjust="spacing" textLength="151" x="3595" y="1634.6836">:FileManagement</text><rect fill="#E2E2F0" height="64.3125" rx="2.5" ry="2.5" style="stroke:#181818;stroke-width:0.5;" width="115" x="3763" y="74.6094"/><text fill="#000000" font-family="sans-serif" font-size="20" font-style="italic" lengthAdjust="spacing" textLength="88" x="3776.5" y="102.3711">«domain»</text><text fill="#000000" font-family="sans-serif" font-size="20" lengthAdjust="spacing" textLength="101" x="3770" y="127.5273">:Application</text><rect fill="#E2E2F0" height="64.3125" rx="2.5" ry="2.5" style="stroke:#181818;stroke-width:0.5;" width="115" x="3763" y="1581.7656"/><text fill="#000000" font-family="sans-serif" font-size="20" font-style="italic" lengthAdjust="spacing" textLength="88" x="3776.5" y="1609.5273">«domain»</text><text fill="#000000" font-family="sans-serif" font-size="20" lengthAdjust="spacing" textLength="101" x="3770" y="1634.6836">:Application</text><rect fill="#FFFFFF" height="1414.8438" style="stroke:#181818;stroke-width:1.0;" width="10" x="87.5" y="149.9219"/><rect fill="#FFFFFF" height="569.0313" style="stroke:#181818;stroke-width:1.0;" width="10" x="571.5" y="181.0781"/><rect fill="#FFFFFF" height="784.5" style="stroke:#181818;stroke-width:1.0;" width="10" x="571.5" y="789.2656"/><rect fill="#FFFFFF" height="415.4063" style="stroke:#181818;stroke-width:1.0;" width="10" x="1016.5" y="295.5469"/><rect fill="#FFFFFF" height="697.1875" style="stroke:#181818;stroke-width:1.0;" width="10" x="1016.5" y="828.4219"/><rect fill="#FFFFFF" height="534.7188" style="stroke:#181818;stroke-width:1.0;" width="10" x="1021.5" y="944.7344"/><rect fill="#FFFFFF" height="30" style="stroke:#181818;stroke-width:1.0;" width="10" x="1492.5" y="334.7031"/><rect fill="#FFFFFF" height="30" style="stroke:#181818;stroke-width:1.0;" width="10" x="1492.5" y="867.5781"/><rect fill="#FFFFFF" height="267.9375" style="stroke:#181818;stroke-width:1.0;" width="10" x="1753" y="403.8594"/><rect fill="#FFFFFF" height="128.4688" style="stroke:#181818;stroke-width:1.0;" width="10" x="2070" y="512.1719"/><rect fill="#FFFFFF" height="30" style="stroke:#181818;stroke-width:1.0;" width="10" x="2477" y="443.0156"/><rect fill="#FFFFFF" height="30" style="stroke:#181818;stroke-width:1.0;" width="10" x="2655.5" y="595.6406"/><rect fill="#FFFFFF" height="30" style="stroke:#181818;stroke-width:1.0;" width="10" x="2892.5" y="1067.2031"/><rect fill="#FFFFFF" height="39.1563" style="stroke:#181818;stroke-width:1.0;" width="10" x="3168" y="988.8906"/><rect fill="#FFFFFF" height="30" style="stroke:#181818;stroke-width:1.0;" width="10" x="3168" y="1397.2969"/><rect fill="#FFFFFF" height="39.1563" style="stroke:#181818;stroke-width:1.0;" width="10" x="3426" y="1249.8281"/><rect fill="#FFFFFF" height="30" style="stroke:#181818;stroke-width:1.0;" width="10" x="3665.5" y="1136.3594"/><rect fill="#FFFFFF" height="30" style="stroke:#181818;stroke-width:1.0;" width="10" x="3815.5" y="1328.1406"/><polygon fill="#181818" points="559.5,177.0781,569.5,181.0781,559.5,185.0781,563.5,181.0781" style="stroke:#181818;stroke-width:1.0;"/><line style="stroke:#181818;stroke-width:1.0;" x1="97.5" x2="565.5" y1="181.0781" y2="181.0781"/><text fill="#000000" font-family="sans-serif" font-size="20" font-weight="bold" lengthAdjust="spacing" textLength="11" x="104.5" y="174.6836">1</text><text fill="#000000" font-family="sans-serif" font-size="20" lengthAdjust="spacing" textLength="369" x="119.5" y="174.6836">asks to verify requirements of applications</text><polygon fill="#181818" points="876,216.2344,886,220.2344,876,224.2344,880,220.2344" style="stroke:#181818;stroke-width:1.0;"/><line style="stroke:#181818;stroke-width:1.0;" x1="581.5" x2="882" y1="220.2344" y2="220.2344"/><text fill="#000000" font-family="sans-serif" font-size="20" font-weight="bold" lengthAdjust="spacing" textLength="11" x="588.5" y="213.8398">2</text><text fill="#000000" font-family="sans-serif" font-size="20" lengthAdjust="spacing" textLength="56" x="603.5" y="213.8398">create</text><rect fill="#E2E2F0" height="64.3125" rx="2.5" ry="2.5" style="stroke:#181818;stroke-width:0.5;" width="267" x="888" y="189.0781"/><text fill="#000000" font-family="sans-serif" font-size="20" font-style="italic" lengthAdjust="spacing" textLength="118" x="962.5" y="216.8398">«application»</text><text fill="#000000" font-family="sans-serif" font-size="20" lengthAdjust="spacing" textLength="253" x="895" y="241.9961">:VerifyRequirementController</text><polygon fill="#181818" points="1004.5,291.5469,1014.5,295.5469,1004.5,299.5469,1008.5,295.5469" style="stroke:#181818;stroke-width:1.0;"/><line style="stroke:#181818;stroke-width:1.0;" x1="581.5" x2="1010.5" y1="295.5469" y2="295.5469"/><text fill="#000000" font-family="sans-serif" font-size="20" font-weight="bold" lengthAdjust="spacing" textLength="11" x="588.5" y="289.1523">3</text><text fill="#000000" font-family="sans-serif" font-size="20" lengthAdjust="spacing" textLength="178" x="603.5" y="289.1523">getJobOpeningList()</text><polygon fill="#181818" points="1480.5,330.7031,1490.5,334.7031,1480.5,338.7031,1484.5,334.7031" style="stroke:#181818;stroke-width:1.0;"/><line style="stroke:#181818;stroke-width:1.0;" x1="1026.5" x2="1486.5" y1="334.7031" y2="334.7031"/><text fill="#000000" font-family="sans-serif" font-size="20" font-weight="bold" lengthAdjust="spacing" textLength="11" x="1033.5" y="328.3086">4</text><text fill="#000000" font-family="sans-serif" font-size="20" lengthAdjust="spacing" textLength="306" x="1048.5" y="328.3086">loggedinUserWithPermissions(role)</text><polygon fill="#181818" points="1741,399.8594,1751,403.8594,1741,407.8594,1745,403.8594" style="stroke:#181818;stroke-width:1.0;"/><line style="stroke:#181818;stroke-width:1.0;" x1="1026.5" x2="1747" y1="403.8594" y2="403.8594"/><text fill="#000000" font-family="sans-serif" font-size="20" font-weight="bold" lengthAdjust="spacing" textLength="11" x="1033.5" y="397.4648">5</text><text fill="#000000" font-family="sans-serif" font-size="20" lengthAdjust="spacing" textLength="680" x="1048.5" y="397.4648">jobOpeningsInScreeingListOfCustomerManager(customerManagerUsername)</text><polygon fill="#181818" points="2465,439.0156,2475,443.0156,2465,447.0156,2469,443.0156" style="stroke:#181818;stroke-width:1.0;"/><line style="stroke:#181818;stroke-width:1.0;" x1="1763" x2="2471" y1="443.0156" y2="443.0156"/><text fill="#000000" font-family="sans-serif" font-size="20" font-weight="bold" lengthAdjust="spacing" textLength="11" x="1770" y="436.6211">6</text><text fill="#000000" font-family="sans-serif" font-size="20" lengthAdjust="spacing" textLength="680" x="1785" y="436.6211">jobOpeningsInScreeingListOfCustomerManager(customerManagerUsername)</text><polygon fill="#181818" points="2058,508.1719,2068,512.1719,2058,516.1719,2062,512.1719" style="stroke:#181818;stroke-width:1.0;"/><line style="stroke:#181818;stroke-width:1.0;" x1="1763" x2="2064" y1="512.1719" y2="512.1719"/><text fill="#000000" font-family="sans-serif" font-size="20" font-weight="bold" lengthAdjust="spacing" textLength="11" x="1770" y="505.7773">7</text><text fill="#000000" font-family="sans-serif" font-size="20" lengthAdjust="spacing" textLength="273" x="1785" y="505.7773">convertToDTO(jobOpeningList)</text><path d="M1949,527.1719 L2035,527.1719 L2035,544.3281 L2025,554.3281 L1949,554.3281 L1949,527.1719 " fill="#EEEEEE" style="stroke:#000000;stroke-width:1.5;"/><rect fill="none" height="106.4688" style="stroke:#000000;stroke-width:1.5;" width="784" x="1949" y="527.1719"/><text fill="#000000" font-family="sans-serif" font-size="20" font-weight="bold" lengthAdjust="spacing" textLength="41" x="1964" y="548.9336">loop</text><text fill="#000000" font-family="sans-serif" font-size="20" font-weight="bold" lengthAdjust="spacing" textLength="213" x="2050" y="549.9336">[for each JobOpening]</text><polygon fill="#181818" points="2643.5,591.6406,2653.5,595.6406,2643.5,599.6406,2647.5,595.6406" style="stroke:#181818;stroke-width:1.0;"/><line style="stroke:#181818;stroke-width:1.0;" x1="2080" x2="2649.5" y1="595.6406" y2="595.6406"/><text fill="#000000" font-family="sans-serif" font-size="20" font-weight="bold" lengthAdjust="spacing" textLength="11" x="2087" y="589.2461">8</text><text fill="#000000" font-family="sans-serif" font-size="20" lengthAdjust="spacing" textLength="73" x="2102" y="589.2461">toDTO()</text><polygon fill="#181818" points="1037.5,667.7969,1027.5,671.7969,1037.5,675.7969,1033.5,671.7969" style="stroke:#181818;stroke-width:1.0;"/><line style="stroke:#181818;stroke-width:1.0;stroke-dasharray:2.0,2.0;" x1="1031.5" x2="1757" y1="671.7969" y2="671.7969"/><text fill="#000000" font-family="sans-serif" font-size="20" font-weight="bold" lengthAdjust="spacing" textLength="11" x="1043.5" y="665.4023">9</text><text fill="#000000" font-family="sans-serif" font-size="20" lengthAdjust="spacing" textLength="172" x="1058.5" y="665.4023">jobOpeningListDTO</text><polygon fill="#181818" points="592.5,706.9531,582.5,710.9531,592.5,714.9531,588.5,710.9531" style="stroke:#181818;stroke-width:1.0;"/><line style="stroke:#181818;stroke-width:1.0;stroke-dasharray:2.0,2.0;" x1="586.5" x2="1020.5" y1="710.9531" y2="710.9531"/><text fill="#000000" font-family="sans-serif" font-size="20" font-weight="bold" lengthAdjust="spacing" textLength="22" x="598.5" y="704.5586">10</text><text fill="#000000" font-family="sans-serif" font-size="20" lengthAdjust="spacing" textLength="172" x="624.5" y="704.5586">jobOpeningListDTO</text><polygon fill="#181818" points="108.5,746.1094,98.5,750.1094,108.5,754.1094,104.5,750.1094" style="stroke:#181818;stroke-width:1.0;"/><line style="stroke:#181818;stroke-width:1.0;stroke-dasharray:2.0,2.0;" x1="102.5" x2="575.5" y1="750.1094" y2="750.1094"/><text fill="#000000" font-family="sans-serif" font-size="20" font-weight="bold" lengthAdjust="spacing" textLength="22" x="114.5" y="743.7148">11</text><text fill="#000000" font-family="sans-serif" font-size="20" lengthAdjust="spacing" textLength="424" x="140.5" y="743.7148">displays the job openings and asks to select one</text><polygon fill="#181818" points="559.5,785.2656,569.5,789.2656,559.5,793.2656,563.5,789.2656" style="stroke:#181818;stroke-width:1.0;"/><line style="stroke:#181818;stroke-width:1.0;" x1="97.5" x2="565.5" y1="789.2656" y2="789.2656"/><text fill="#000000" font-family="sans-serif" font-size="20" font-weight="bold" lengthAdjust="spacing" textLength="22" x="104.5" y="782.8711">12</text><text fill="#000000" font-family="sans-serif" font-size="20" lengthAdjust="spacing" textLength="168" x="130.5" y="782.8711">selects job opening</text><polygon fill="#181818" points="1004.5,824.4219,1014.5,828.4219,1004.5,832.4219,1008.5,828.4219" style="stroke:#181818;stroke-width:1.0;"/><line style="stroke:#181818;stroke-width:1.0;" x1="581.5" x2="1010.5" y1="828.4219" y2="828.4219"/><text fill="#000000" font-family="sans-serif" font-size="20" font-weight="bold" lengthAdjust="spacing" textLength="22" x="588.5" y="822.0273">13</text><text fill="#000000" font-family="sans-serif" font-size="20" lengthAdjust="spacing" textLength="390" x="614.5" y="822.0273">verifyAvailableRequirements(jobOpeningDto)</text><polygon fill="#181818" points="1480.5,863.5781,1490.5,867.5781,1480.5,871.5781,1484.5,867.5781" style="stroke:#181818;stroke-width:1.0;"/><line style="stroke:#181818;stroke-width:1.0;" x1="1026.5" x2="1486.5" y1="867.5781" y2="867.5781"/><text fill="#000000" font-family="sans-serif" font-size="20" font-weight="bold" lengthAdjust="spacing" textLength="22" x="1033.5" y="861.1836">14</text><text fill="#000000" font-family="sans-serif" font-size="20" lengthAdjust="spacing" textLength="365" x="1059.5" y="861.1836">ensureAuthenticatedUserHasAnyOf(roles)</text><line style="stroke:#181818;stroke-width:1.0;" x1="1026.5" x2="1073.5" y1="931.7344" y2="931.7344"/><line style="stroke:#181818;stroke-width:1.0;" x1="1073.5" x2="1073.5" y1="931.7344" y2="944.7344"/><line style="stroke:#181818;stroke-width:1.0;" x1="1032.5" x2="1073.5" y1="944.7344" y2="944.7344"/><polygon fill="#181818" points="1042.5,940.7344,1032.5,944.7344,1042.5,948.7344,1038.5,944.7344" style="stroke:#181818;stroke-width:1.0;"/><text fill="#000000" font-family="sans-serif" font-size="20" font-weight="bold" lengthAdjust="spacing" textLength="22" x="1038.5" y="925.3398">15</text><text fill="#000000" font-family="sans-serif" font-size="20" lengthAdjust="spacing" textLength="426" x="1064.5" y="925.3398">verifyRequirementsOfApplications(jobReference)</text><polygon fill="#181818" points="3156,984.8906,3166,988.8906,3156,992.8906,3160,988.8906" style="stroke:#181818;stroke-width:1.0;"/><line style="stroke:#181818;stroke-width:1.0;" x1="1031.5" x2="3162" y1="988.8906" y2="988.8906"/><text fill="#000000" font-family="sans-serif" font-size="20" font-weight="bold" lengthAdjust="spacing" textLength="22" x="1038.5" y="982.4961">16</text><text fill="#000000" font-family="sans-serif" font-size="20" lengthAdjust="spacing" textLength="529" x="1064.5" y="982.4961">applicationsForJobOpeningWithRequirements(jobReference)</text><polygon fill="#181818" points="1042.5,1024.0469,1032.5,1028.0469,1042.5,1032.0469,1038.5,1028.0469" style="stroke:#181818;stroke-width:1.0;"/><line style="stroke:#181818;stroke-width:1.0;stroke-dasharray:2.0,2.0;" x1="1036.5" x2="3172" y1="1028.0469" y2="1028.0469"/><text fill="#000000" font-family="sans-serif" font-size="20" font-weight="bold" lengthAdjust="spacing" textLength="22" x="1048.5" y="1021.6523">17</text><text fill="#000000" font-family="sans-serif" font-size="20" lengthAdjust="spacing" textLength="103" x="1074.5" y="1021.6523">applications</text><polygon fill="#181818" points="2880.5,1063.2031,2890.5,1067.2031,2880.5,1071.2031,2884.5,1067.2031" style="stroke:#181818;stroke-width:1.0;"/><line style="stroke:#181818;stroke-width:1.0;" x1="1031.5" x2="2886.5" y1="1067.2031" y2="1067.2031"/><text fill="#000000" font-family="sans-serif" font-size="20" font-weight="bold" lengthAdjust="spacing" textLength="22" x="1038.5" y="1060.8086">18</text><text fill="#000000" font-family="sans-serif" font-size="20" lengthAdjust="spacing" textLength="569" x="1064.5" y="1060.8086">requirementSpecificationByRequirementName(requirementName)</text><polygon fill="#181818" points="3653.5,1132.3594,3663.5,1136.3594,3653.5,1140.3594,3657.5,1136.3594" style="stroke:#181818;stroke-width:1.0;"/><line style="stroke:#181818;stroke-width:1.0;" x1="1031.5" x2="3659.5" y1="1136.3594" y2="1136.3594"/><text fill="#000000" font-family="sans-serif" font-size="20" font-weight="bold" lengthAdjust="spacing" textLength="22" x="1038.5" y="1129.9648">19</text><text fill="#000000" font-family="sans-serif" font-size="20" lengthAdjust="spacing" textLength="245" x="1064.5" y="1129.9648">importData(configFileName)</text><path d="M878,1181.3594 L964,1181.3594 L964,1198.5156 L954,1208.5156 L878,1208.5156 L878,1181.3594 " fill="#EEEEEE" style="stroke:#000000;stroke-width:1.5;"/><rect fill="none" height="253.9375" style="stroke:#000000;stroke-width:1.5;" width="3010" x="878" y="1181.3594"/><text fill="#000000" font-family="sans-serif" font-size="20" font-weight="bold" lengthAdjust="spacing" textLength="41" x="893" y="1203.1211">loop</text><text fill="#000000" font-family="sans-serif" font-size="20" font-weight="bold" lengthAdjust="spacing" textLength="201" x="979" y="1204.1211">[for each application]</text><polygon fill="#181818" points="3414,1245.8281,3424,1249.8281,3414,1253.8281,3418,1249.8281" style="stroke:#181818;stroke-width:1.0;"/><line style="stroke:#181818;stroke-width:1.0;" x1="1031.5" x2="3420" y1="1249.8281" y2="1249.8281"/><text fill="#000000" font-family="sans-serif" font-size="20" font-weight="bold" lengthAdjust="spacing" textLength="22" x="1038.5" y="1243.4336">20</text><text fill="#000000" font-family="sans-serif" font-size="20" lengthAdjust="spacing" textLength="510" x="1064.5" y="1243.4336">evaluateRequirementSpecificationFile(requirementAnswer)</text><polygon fill="#181818" points="1042.5,1284.9844,1032.5,1288.9844,1042.5,1292.9844,1038.5,1288.9844" style="stroke:#181818;stroke-width:1.0;"/><line style="stroke:#181818;stroke-width:1.0;stroke-dasharray:2.0,2.0;" x1="1036.5" x2="3430" y1="1288.9844" y2="1288.9844"/><text fill="#000000" font-family="sans-serif" font-size="20" font-weight="bold" lengthAdjust="spacing" textLength="22" x="1048.5" y="1282.5898">21</text><text fill="#000000" font-family="sans-serif" font-size="20" lengthAdjust="spacing" textLength="48" x="1074.5" y="1282.5898">result</text><polygon fill="#181818" points="3803.5,1324.1406,3813.5,1328.1406,3803.5,1332.1406,3807.5,1328.1406" style="stroke:#181818;stroke-width:1.0;"/><line style="stroke:#181818;stroke-width:1.0;" x1="1031.5" x2="3809.5" y1="1328.1406" y2="1328.1406"/><text fill="#000000" font-family="sans-serif" font-size="20" font-weight="bold" lengthAdjust="spacing" textLength="22" x="1038.5" y="1321.7461">22</text><text fill="#000000" font-family="sans-serif" font-size="20" lengthAdjust="spacing" textLength="288" x="1064.5" y="1321.7461">updateRequirementResult(result)</text><polygon fill="#181818" points="3156,1393.2969,3166,1397.2969,3156,1401.2969,3160,1397.2969" style="stroke:#181818;stroke-width:1.0;"/><line style="stroke:#181818;stroke-width:1.0;" x1="1031.5" x2="3162" y1="1397.2969" y2="1397.2969"/><text fill="#000000" font-family="sans-serif" font-size="20" font-weight="bold" lengthAdjust="spacing" textLength="22" x="1038.5" y="1390.9023">23</text><text fill="#000000" font-family="sans-serif" font-size="20" lengthAdjust="spacing" textLength="148" x="1064.5" y="1390.9023">save(application)</text><line style="stroke:#181818;stroke-width:1.0;stroke-dasharray:2.0,2.0;" x1="1031.5" x2="1073.5" y1="1478.4531" y2="1478.4531"/><line style="stroke:#181818;stroke-width:1.0;stroke-dasharray:2.0,2.0;" x1="1073.5" x2="1073.5" y1="1478.4531" y2="1491.4531"/><line style="stroke:#181818;stroke-width:1.0;stroke-dasharray:2.0,2.0;" x1="1026.5" x2="1073.5" y1="1491.4531" y2="1491.4531"/><polygon fill="#181818" points="1036.5,1487.4531,1026.5,1491.4531,1036.5,1495.4531,1032.5,1491.4531" style="stroke:#181818;stroke-width:1.0;"/><text fill="#000000" font-family="sans-serif" font-size="20" font-weight="bold" lengthAdjust="spacing" textLength="22" x="1038.5" y="1472.0586">24</text><text fill="#000000" font-family="sans-serif" font-size="20" lengthAdjust="spacing" textLength="6" x="1064.5" y="1472.0586"> </text><polygon fill="#181818" points="592.5,1521.6094,582.5,1525.6094,592.5,1529.6094,588.5,1525.6094" style="stroke:#181818;stroke-width:1.0;"/><line style="stroke:#181818;stroke-width:1.0;stroke-dasharray:2.0,2.0;" x1="586.5" x2="1020.5" y1="1525.6094" y2="1525.6094"/><text fill="#000000" font-family="sans-serif" font-size="20" font-weight="bold" lengthAdjust="spacing" textLength="22" x="598.5" y="1519.2148">25</text><text fill="#000000" font-family="sans-serif" font-size="20" lengthAdjust="spacing" textLength="71" x="624.5" y="1519.2148">success</text><polygon fill="#181818" points="103.5,1560.7656,93.5,1564.7656,103.5,1568.7656,99.5,1564.7656" style="stroke:#181818;stroke-width:1.0;"/><line style="stroke:#181818;stroke-width:1.0;stroke-dasharray:2.0,2.0;" x1="97.5" x2="570.5" y1="1564.7656" y2="1564.7656"/><text fill="#000000" font-family="sans-serif" font-size="20" font-weight="bold" lengthAdjust="spacing" textLength="22" x="109.5" y="1558.3711">26</text><text fill="#000000" font-family="sans-serif" font-size="20" lengthAdjust="spacing" textLength="148" x="135.5" y="1558.3711">displays success</text><!--SRC=[hLPHRzCm47xFhx3sGeSq1aYyH6XIs5PHH6dLR23nCdd9fJLBx60xHUFNStQSn0vDDoJwCAs-k-y-ttrthdfWlAQILgN87Y0dEHIqAVLSS9sotq3UlevUxBIkLNn-NfUKwwOgNsMYEbVmim6UmLdEw1RZeqWpNGAvJT-yVlEEd97KEP2hpe4sMl2ckWU9_sTQI79osIWjAf1aIJdTWZmXL274zIP2KffbhCQKv2J-2f8LZnk4P18guFfsqRekoFltjGI5HrGpmIykdegynAj9KPOksUNDvZDYqBekMNOO8cdqJaZssrfJa7kMWOrDRcy-ViTWrPxz5VX9tAzgu8nls-kPz7xyfzKoVLRurSqgZ4lly2W8pQcczrH14BU1MYY6bNvqSNURwxM9axtXI5ONW-wvg2ZZOHQlf6aD6IjS-KOvD-d1d1vGCfH-59iyW-uKZNNPR1bt5DQ8mRW6MT03TPwp4eO6sP3vycY4HxabwjV8YfljgOPMoP7vIyukZ5XZz7vGH0kojxeaSg2lY2Y8fqFbuImGPM4mZ5nVlen99W4D_YbYRq4FtVlCb9wT3XZ69uf8wuinhNXZKehj5dB6Rr5BtvZUhK5MJ2b3O8Pp0gSOGqWFOyFiKGwZmwY3jhgEoO-UYrhm51c3exKgkhbtOp_Bmk-62wSLUFGD9jAtq3P5gut_aoMueOCUtx4xZWOAxHHYCmJ7TkeRWLzdFu8E13Um_f45BeMeIO4h41FioD0rQpIV3jqcmXpQWf_sTW-sFmlOsbFWkKqL1IR7ext889-GkN49eapzsmvRBJ_XtyhDoDDucmc8ISuKlY6FgFyTc6WYNEC8HPxTP2We8TD4SF3np0Y4azJwAHyed1XJW64-OZTooPwoajwNu6qEvNNjIekH8Bh96SrERCgh6WdcVK0GCxQG6r5zf2hXZwl2pe_wXm7oSxYcxCVlbreLtlgnp3TGW3HlxIJnWBpLSHoichcGWmRD5XWNPvGYlD4mB-RZjlPPN_TWfntGgellJG5Rztx4_gOC5lq7lpXVS9ndCln-6WBtQHroQFLeTVR3lERBcB2g5b9VuLCsmnLGiArvIOwbd2ydiw6fjuNBmIjVD5caTKnWJyi6eQPUH4FEhqt2rI-GqzLPZvAPPtHeAlxcmj-9Hugtdk2QnAIfyv3dneBDMimfHibaicGgbPEEedkOUMMSp71S42DplrkziUtACvxlTXA3xQcQB0EbZkvCRsLsxi5Ej3yl_W00]--></g></svg>