<?xml version="1.0" encoding="UTF-8" standalone="no"?><svg xmlns="http://www.w3.org/2000/svg" xmlns:xlink="http://www.w3.org/1999/xlink" contentStyleType="text/css" height="1556px" preserveAspectRatio="none" style="width:3380px;height:1556px;background:#FFFFFF;" version="1.1" viewBox="0 0 3380 1556" width="3380px" zoomAndPan="magnify"><defs/><g><text fill="#000000" font-family="sans-serif" font-size="14" font-weight="bold" lengthAdjust="spacing" textLength="196" x="1593.5" y="29.5332">US1015 - Sequence Diagram</text><rect fill="#FFFFFF" height="1276.5313" style="stroke:#181818;stroke-width:1.0;" width="10" x="87.5" y="149.9219"/><rect fill="#FFFFFF" height="569.0313" style="stroke:#181818;stroke-width:1.0;" width="10" x="571.5" y="181.0781"/><rect fill="#FFFFFF" height="646.1875" style="stroke:#181818;stroke-width:1.0;" width="10" x="571.5" y="789.2656"/><rect fill="#FFFFFF" height="415.4063" style="stroke:#181818;stroke-width:1.0;" width="10" x="1016.5" y="295.5469"/><rect fill="#FFFFFF" height="558.875" style="stroke:#181818;stroke-width:1.0;" width="10" x="1016.5" y="828.4219"/><rect fill="#FFFFFF" height="396.4063" style="stroke:#181818;stroke-width:1.0;" width="10" x="1021.5" y="944.7344"/><rect fill="#FFFFFF" height="30" style="stroke:#181818;stroke-width:1.0;" width="10" x="1492.5" y="334.7031"/><rect fill="#FFFFFF" height="30" style="stroke:#181818;stroke-width:1.0;" width="10" x="1492.5" y="867.5781"/><rect fill="#FFFFFF" height="267.9375" style="stroke:#181818;stroke-width:1.0;" width="10" x="1753" y="403.8594"/><rect fill="#FFFFFF" height="128.4688" style="stroke:#181818;stroke-width:1.0;" width="10" x="2070" y="512.1719"/><rect fill="#FFFFFF" height="30" style="stroke:#181818;stroke-width:1.0;" width="10" x="2477" y="443.0156"/><rect fill="#FFFFFF" height="30" style="stroke:#181818;stroke-width:1.0;" width="10" x="2655.5" y="595.6406"/><rect fill="#FFFFFF" height="39.1563" style="stroke:#181818;stroke-width:1.0;" width="10" x="2829" y="988.8906"/><rect fill="#FFFFFF" height="30" style="stroke:#181818;stroke-width:1.0;" width="10" x="2829" y="1258.9844"/><rect fill="#FFFFFF" height="39.1563" style="stroke:#181818;stroke-width:1.0;" width="10" x="3087" y="1111.5156"/><rect fill="#FFFFFF" height="30" style="stroke:#181818;stroke-width:1.0;" width="10" x="3301.5" y="1189.8281"/><rect fill="none" height="106.4688" style="stroke:#000000;stroke-width:1.5;" width="784" x="1949" y="527.1719"/><rect fill="none" height="253.9375" style="stroke:#000000;stroke-width:1.5;" width="2496" x="878" y="1043.0469"/><line style="stroke:#181818;stroke-width:0.5;stroke-dasharray:5.0,5.0;" x1="92" x2="92" y1="139.9219" y2="1444.4531"/><line style="stroke:#181818;stroke-width:0.5;stroke-dasharray:5.0,5.0;" x1="576" x2="576" y1="139.9219" y2="1444.4531"/><line style="stroke:#181818;stroke-width:0.5;stroke-dasharray:5.0,5.0;" x1="1021" x2="1021" y1="236.7344" y2="1444.4531"/><line style="stroke:#181818;stroke-width:0.5;stroke-dasharray:5.0,5.0;" x1="1497" x2="1497" y1="139.9219" y2="1444.4531"/><line style="stroke:#181818;stroke-width:0.5;stroke-dasharray:5.0,5.0;" x1="1758" x2="1758" y1="139.9219" y2="1444.4531"/><line style="stroke:#181818;stroke-width:0.5;stroke-dasharray:5.0,5.0;" x1="2075" x2="2075" y1="139.9219" y2="1444.4531"/><line style="stroke:#181818;stroke-width:0.5;stroke-dasharray:5.0,5.0;" x1="2482" x2="2482" y1="139.9219" y2="1444.4531"/><line style="stroke:#181818;stroke-width:0.5;stroke-dasharray:5.0,5.0;" x1="2660" x2="2660" y1="139.9219" y2="1444.4531"/><line style="stroke:#181818;stroke-width:0.5;stroke-dasharray:5.0,5.0;" x1="2834" x2="2834" y1="139.9219" y2="1444.4531"/><line style="stroke:#181818;stroke-width:0.5;stroke-dasharray:5.0,5.0;" x1="3092" x2="3092" y1="139.9219" y2="1444.4531"/><line style="stroke:#181818;stroke-width:0.5;stroke-dasharray:5.0,5.0;" x1="3306" x2="3306" y1="139.9219" y2="1444.4531"/><text fill="#000000" font-family="sans-serif" font-size="20" lengthAdjust="spacing" textLength="169" x="5" y="135.5273">Customer Manager</text><ellipse cx="92.5" cy="63.2656" fill="#E2E2F0" rx="8" ry="8" style="stroke:#181818;stroke-width:0.5;"/><path d="M92.5,71.2656 L92.5,98.2656 M79.5,79.2656 L105.5,79.2656 M92.5,98.2656 L79.5,113.2656 M92.5,98.2656 L105.5,113.2656 " fill="none" style="stroke:#181818;stroke-width:0.5;"/><text fill="#000000" font-family="sans-serif" font-size="20" lengthAdjust="spacing" textLength="169" x="5" y="1464.2148">Customer Manager</text><ellipse cx="92.5" cy="1477.1094" fill="#E2E2F0" rx="8" ry="8" style="stroke:#181818;stroke-width:0.5;"/><path d="M92.5,1485.1094 L92.5,1512.1094 M79.5,1493.1094 L105.5,1493.1094 M92.5,1512.1094 L79.5,1527.1094 M92.5,1512.1094 L105.5,1527.1094 " fill="none" style="stroke:#181818;stroke-width:0.5;"/><rect fill="#E2E2F0" height="64.3125" rx="2.5" ry="2.5" style="stroke:#181818;stroke-width:0.5;" width="201" x="476" y="74.6094"/><text fill="#000000" font-family="sans-serif" font-size="20" font-style="italic" lengthAdjust="spacing" textLength="131" x="511" y="102.3711">«presentation»</text><text fill="#000000" font-family="sans-serif" font-size="20" lengthAdjust="spacing" textLength="187" x="483" y="127.5273">:VerifyRequirementUI</text><rect fill="#E2E2F0" height="64.3125" rx="2.5" ry="2.5" style="stroke:#181818;stroke-width:0.5;" width="201" x="476" y="1443.4531"/><text fill="#000000" font-family="sans-serif" font-size="20" font-style="italic" lengthAdjust="spacing" textLength="131" x="511" y="1471.2148">«presentation»</text><text fill="#000000" font-family="sans-serif" font-size="20" lengthAdjust="spacing" textLength="187" x="483" y="1496.3711">:VerifyRequirementUI</text><rect fill="#E2E2F0" height="64.3125" rx="2.5" ry="2.5" style="stroke:#181818;stroke-width:0.5;" width="267" x="888" y="1443.4531"/><text fill="#000000" font-family="sans-serif" font-size="20" font-style="italic" lengthAdjust="spacing" textLength="118" x="962.5" y="1471.2148">«application»</text><text fill="#000000" font-family="sans-serif" font-size="20" lengthAdjust="spacing" textLength="253" x="895" y="1496.3711">:VerifyRequirementController</text><rect fill="#E2E2F0" height="64.3125" rx="2.5" ry="2.5" style="stroke:#181818;stroke-width:0.5;" width="197" x="1399" y="74.6094"/><text fill="#000000" font-family="sans-serif" font-size="20" font-style="italic" lengthAdjust="spacing" textLength="86" x="1454.5" y="102.3711">«service»</text><text fill="#000000" font-family="sans-serif" font-size="20" lengthAdjust="spacing" textLength="183" x="1406" y="127.5273">:AuthorizationService</text><rect fill="#E2E2F0" height="64.3125" rx="2.5" ry="2.5" style="stroke:#181818;stroke-width:0.5;" width="197" x="1399" y="1443.4531"/><text fill="#000000" font-family="sans-serif" font-size="20" font-style="italic" lengthAdjust="spacing" textLength="86" x="1454.5" y="1471.2148">«service»</text><text fill="#000000" font-family="sans-serif" font-size="20" lengthAdjust="spacing" textLength="183" x="1406" y="1496.3711">:AuthorizationService</text><rect fill="#E2E2F0" height="64.3125" rx="2.5" ry="2.5" style="stroke:#181818;stroke-width:0.5;" width="304" x="1606" y="74.6094"/><text fill="#000000" font-family="sans-serif" font-size="20" font-style="italic" lengthAdjust="spacing" textLength="86" x="1715" y="102.3711">«service»</text><text fill="#000000" font-family="sans-serif" font-size="20" lengthAdjust="spacing" textLength="290" x="1613" y="127.5273">:JobOpeningManagementService</text><rect fill="#E2E2F0" height="64.3125" rx="2.5" ry="2.5" style="stroke:#181818;stroke-width:0.5;" width="304" x="1606" y="1443.4531"/><text fill="#000000" font-family="sans-serif" font-size="20" font-style="italic" lengthAdjust="spacing" textLength="86" x="1715" y="1471.2148">«service»</text><text fill="#000000" font-family="sans-serif" font-size="20" lengthAdjust="spacing" textLength="290" x="1613" y="1496.3711">:JobOpeningManagementService</text><rect fill="#E2E2F0" height="64.3125" rx="2.5" ry="2.5" style="stroke:#181818;stroke-width:0.5;" width="232" x="1959" y="74.6094"/><text fill="#000000" font-family="sans-serif" font-size="20" font-style="italic" lengthAdjust="spacing" textLength="86" x="2032" y="102.3711">«service»</text><text fill="#000000" font-family="sans-serif" font-size="20" lengthAdjust="spacing" textLength="218" x="1966" y="127.5273">:JobOpeningDTOService</text><rect fill="#E2E2F0" height="64.3125" rx="2.5" ry="2.5" style="stroke:#181818;stroke-width:0.5;" width="232" x="1959" y="1443.4531"/><text fill="#000000" font-family="sans-serif" font-size="20" font-style="italic" lengthAdjust="spacing" textLength="86" x="2032" y="1471.2148">«service»</text><text fill="#000000" font-family="sans-serif" font-size="20" lengthAdjust="spacing" textLength="218" x="1966" y="1496.3711">:JobOpeningDTOService</text><text fill="#000000" font-family="sans-serif" font-size="20" font-style="italic" lengthAdjust="spacing" textLength="110" x="2424" y="110.3711">«repository»</text><text fill="#000000" font-family="sans-serif" font-size="20" lengthAdjust="spacing" textLength="206" x="2376" y="135.5273">:JobOpeningRepository</text><path d="M2464,53.6094 C2464,43.6094 2482,43.6094 2482,43.6094 C2482,43.6094 2500,43.6094 2500,53.6094 L2500,79.6094 C2500,89.6094 2482,89.6094 2482,89.6094 C2482,89.6094 2464,89.6094 2464,79.6094 L2464,53.6094 " fill="#E2E2F0" style="stroke:#181818;stroke-width:1.5;"/><path d="M2464,53.6094 C2464,63.6094 2482,63.6094 2482,63.6094 C2482,63.6094 2500,63.6094 2500,53.6094 " fill="none" style="stroke:#181818;stroke-width:1.5;"/><text fill="#000000" font-family="sans-serif" font-size="20" font-style="italic" lengthAdjust="spacing" textLength="110" x="2424" y="1464.2148">«repository»</text><text fill="#000000" font-family="sans-serif" font-size="20" lengthAdjust="spacing" textLength="206" x="2376" y="1489.3711">:JobOpeningRepository</text><path d="M2464,1503.7656 C2464,1493.7656 2482,1493.7656 2482,1493.7656 C2482,1493.7656 2500,1493.7656 2500,1503.7656 L2500,1529.7656 C2500,1539.7656 2482,1539.7656 2482,1539.7656 C2482,1539.7656 2464,1539.7656 2464,1529.7656 L2464,1503.7656 " fill="#E2E2F0" style="stroke:#181818;stroke-width:1.5;"/><path d="M2464,1503.7656 C2464,1513.7656 2482,1513.7656 2482,1513.7656 C2482,1513.7656 2500,1513.7656 2500,1503.7656 " fill="none" style="stroke:#181818;stroke-width:1.5;"/><rect fill="#E2E2F0" height="64.3125" rx="2.5" ry="2.5" style="stroke:#181818;stroke-width:0.5;" width="125" x="2598" y="74.6094"/><text fill="#000000" font-family="sans-serif" font-size="20" font-style="italic" lengthAdjust="spacing" textLength="88" x="2616.5" y="102.3711">«domain»</text><text fill="#000000" font-family="sans-serif" font-size="20" lengthAdjust="spacing" textLength="111" x="2605" y="127.5273">:JobOpening</text><rect fill="#E2E2F0" height="64.3125" rx="2.5" ry="2.5" style="stroke:#181818;stroke-width:0.5;" width="125" x="2598" y="1443.4531"/><text fill="#000000" font-family="sans-serif" font-size="20" font-style="italic" lengthAdjust="spacing" textLength="88" x="2616.5" y="1471.2148">«domain»</text><text fill="#000000" font-family="sans-serif" font-size="20" lengthAdjust="spacing" textLength="111" x="2605" y="1496.3711">:JobOpening</text><text fill="#000000" font-family="sans-serif" font-size="20" font-style="italic" lengthAdjust="spacing" textLength="110" x="2776" y="110.3711">«repository»</text><text fill="#000000" font-family="sans-serif" font-size="20" lengthAdjust="spacing" textLength="196" x="2733" y="135.5273">:ApplicationRepository</text><path d="M2816,53.6094 C2816,43.6094 2834,43.6094 2834,43.6094 C2834,43.6094 2852,43.6094 2852,53.6094 L2852,79.6094 C2852,89.6094 2834,89.6094 2834,89.6094 C2834,89.6094 2816,89.6094 2816,79.6094 L2816,53.6094 " fill="#E2E2F0" style="stroke:#181818;stroke-width:1.5;"/><path d="M2816,53.6094 C2816,63.6094 2834,63.6094 2834,63.6094 C2834,63.6094 2852,63.6094 2852,53.6094 " fill="none" style="stroke:#181818;stroke-width:1.5;"/><text fill="#000000" font-family="sans-serif" font-size="20" font-style="italic" lengthAdjust="spacing" textLength="110" x="2776" y="1464.2148">«repository»</text><text fill="#000000" font-family="sans-serif" font-size="20" lengthAdjust="spacing" textLength="196" x="2733" y="1489.3711">:ApplicationRepository</text><path d="M2816,1503.7656 C2816,1493.7656 2834,1493.7656 2834,1493.7656 C2834,1493.7656 2852,1493.7656 2852,1503.7656 L2852,1529.7656 C2852,1539.7656 2834,1539.7656 2834,1539.7656 C2834,1539.7656 2816,1539.7656 2816,1529.7656 L2816,1503.7656 " fill="#E2E2F0" style="stroke:#181818;stroke-width:1.5;"/><path d="M2816,1503.7656 C2816,1513.7656 2834,1513.7656 2834,1513.7656 C2834,1513.7656 2852,1513.7656 2852,1503.7656 " fill="none" style="stroke:#181818;stroke-width:1.5;"/><rect fill="#E2E2F0" height="64.3125" rx="2.5" ry="2.5" style="stroke:#181818;stroke-width:0.5;" width="294" x="2945" y="74.6094"/><text fill="#000000" font-family="sans-serif" font-size="20" font-style="italic" lengthAdjust="spacing" textLength="99" x="3042.5" y="102.3711">«interface»</text><text fill="#000000" font-family="sans-serif" font-size="20" lengthAdjust="spacing" textLength="280" x="2952" y="127.5273">:RequirementSpecificationPlugin</text><rect fill="#E2E2F0" height="64.3125" rx="2.5" ry="2.5" style="stroke:#181818;stroke-width:0.5;" width="294" x="2945" y="1443.4531"/><text fill="#000000" font-family="sans-serif" font-size="20" font-style="italic" lengthAdjust="spacing" textLength="99" x="3042.5" y="1471.2148">«interface»</text><text fill="#000000" font-family="sans-serif" font-size="20" lengthAdjust="spacing" textLength="280" x="2952" y="1496.3711">:RequirementSpecificationPlugin</text><rect fill="#E2E2F0" height="64.3125" rx="2.5" ry="2.5" style="stroke:#181818;stroke-width:0.5;" width="115" x="3249" y="74.6094"/><text fill="#000000" font-family="sans-serif" font-size="20" font-style="italic" lengthAdjust="spacing" textLength="88" x="3262.5" y="102.3711">«domain»</text><text fill="#000000" font-family="sans-serif" font-size="20" lengthAdjust="spacing" textLength="101" x="3256" y="127.5273">:Application</text><rect fill="#E2E2F0" height="64.3125" rx="2.5" ry="2.5" style="stroke:#181818;stroke-width:0.5;" width="115" x="3249" y="1443.4531"/><text fill="#000000" font-family="sans-serif" font-size="20" font-style="italic" lengthAdjust="spacing" textLength="88" x="3262.5" y="1471.2148">«domain»</text><text fill="#000000" font-family="sans-serif" font-size="20" lengthAdjust="spacing" textLength="101" x="3256" y="1496.3711">:Application</text><rect fill="#FFFFFF" height="1276.5313" style="stroke:#181818;stroke-width:1.0;" width="10" x="87.5" y="149.9219"/><rect fill="#FFFFFF" height="569.0313" style="stroke:#181818;stroke-width:1.0;" width="10" x="571.5" y="181.0781"/><rect fill="#FFFFFF" height="646.1875" style="stroke:#181818;stroke-width:1.0;" width="10" x="571.5" y="789.2656"/><rect fill="#FFFFFF" height="415.4063" style="stroke:#181818;stroke-width:1.0;" width="10" x="1016.5" y="295.5469"/><rect fill="#FFFFFF" height="558.875" style="stroke:#181818;stroke-width:1.0;" width="10" x="1016.5" y="828.4219"/><rect fill="#FFFFFF" height="396.4063" style="stroke:#181818;stroke-width:1.0;" width="10" x="1021.5" y="944.7344"/><rect fill="#FFFFFF" height="30" style="stroke:#181818;stroke-width:1.0;" width="10" x="1492.5" y="334.7031"/><rect fill="#FFFFFF" height="30" style="stroke:#181818;stroke-width:1.0;" width="10" x="1492.5" y="867.5781"/><rect fill="#FFFFFF" height="267.9375" style="stroke:#181818;stroke-width:1.0;" width="10" x="1753" y="403.8594"/><rect fill="#FFFFFF" height="128.4688" style="stroke:#181818;stroke-width:1.0;" width="10" x="2070" y="512.1719"/><rect fill="#FFFFFF" height="30" style="stroke:#181818;stroke-width:1.0;" width="10" x="2477" y="443.0156"/><rect fill="#FFFFFF" height="30" style="stroke:#181818;stroke-width:1.0;" width="10" x="2655.5" y="595.6406"/><rect fill="#FFFFFF" height="39.1563" style="stroke:#181818;stroke-width:1.0;" width="10" x="2829" y="988.8906"/><rect fill="#FFFFFF" height="30" style="stroke:#181818;stroke-width:1.0;" width="10" x="2829" y="1258.9844"/><rect fill="#FFFFFF" height="39.1563" style="stroke:#181818;stroke-width:1.0;" width="10" x="3087" y="1111.5156"/><rect fill="#FFFFFF" height="30" style="stroke:#181818;stroke-width:1.0;" width="10" x="3301.5" y="1189.8281"/><polygon fill="#181818" points="559.5,177.0781,569.5,181.0781,559.5,185.0781,563.5,181.0781" style="stroke:#181818;stroke-width:1.0;"/><line style="stroke:#181818;stroke-width:1.0;" x1="97.5" x2="565.5" y1="181.0781" y2="181.0781"/><text fill="#000000" font-family="sans-serif" font-size="20" font-weight="bold" lengthAdjust="spacing" textLength="11" x="104.5" y="174.6836">1</text><text fill="#000000" font-family="sans-serif" font-size="20" lengthAdjust="spacing" textLength="369" x="119.5" y="174.6836">asks to verify requirements of applications</text><polygon fill="#181818" points="876,216.2344,886,220.2344,876,224.2344,880,220.2344" style="stroke:#181818;stroke-width:1.0;"/><line style="stroke:#181818;stroke-width:1.0;" x1="581.5" x2="882" y1="220.2344" y2="220.2344"/><text fill="#000000" font-family="sans-serif" font-size="20" font-weight="bold" lengthAdjust="spacing" textLength="11" x="588.5" y="213.8398">2</text><text fill="#000000" font-family="sans-serif" font-size="20" lengthAdjust="spacing" textLength="56" x="603.5" y="213.8398">create</text><rect fill="#E2E2F0" height="64.3125" rx="2.5" ry="2.5" style="stroke:#181818;stroke-width:0.5;" width="267" x="888" y="189.0781"/><text fill="#000000" font-family="sans-serif" font-size="20" font-style="italic" lengthAdjust="spacing" textLength="118" x="962.5" y="216.8398">«application»</text><text fill="#000000" font-family="sans-serif" font-size="20" lengthAdjust="spacing" textLength="253" x="895" y="241.9961">:VerifyRequirementController</text><polygon fill="#181818" points="1004.5,291.5469,1014.5,295.5469,1004.5,299.5469,1008.5,295.5469" style="stroke:#181818;stroke-width:1.0;"/><line style="stroke:#181818;stroke-width:1.0;" x1="581.5" x2="1010.5" y1="295.5469" y2="295.5469"/><text fill="#000000" font-family="sans-serif" font-size="20" font-weight="bold" lengthAdjust="spacing" textLength="11" x="588.5" y="289.1523">3</text><text fill="#000000" font-family="sans-serif" font-size="20" lengthAdjust="spacing" textLength="178" x="603.5" y="289.1523">getJobOpeningList()</text><polygon fill="#181818" points="1480.5,330.7031,1490.5,334.7031,1480.5,338.7031,1484.5,334.7031" style="stroke:#181818;stroke-width:1.0;"/><line style="stroke:#181818;stroke-width:1.0;" x1="1026.5" x2="1486.5" y1="334.7031" y2="334.7031"/><text fill="#000000" font-family="sans-serif" font-size="20" font-weight="bold" lengthAdjust="spacing" textLength="11" x="1033.5" y="328.3086">4</text><text fill="#000000" font-family="sans-serif" font-size="20" lengthAdjust="spacing" textLength="306" x="1048.5" y="328.3086">loggedinUserWithPermissions(role)</text><polygon fill="#181818" points="1741,399.8594,1751,403.8594,1741,407.8594,1745,403.8594" style="stroke:#181818;stroke-width:1.0;"/><line style="stroke:#181818;stroke-width:1.0;" x1="1026.5" x2="1747" y1="403.8594" y2="403.8594"/><text fill="#000000" font-family="sans-serif" font-size="20" font-weight="bold" lengthAdjust="spacing" textLength="11" x="1033.5" y="397.4648">5</text><text fill="#000000" font-family="sans-serif" font-size="20" lengthAdjust="spacing" textLength="680" x="1048.5" y="397.4648">jobOpeningsInScreeingListOfCustomerManager(customerManagerUsername)</text><polygon fill="#181818" points="2465,439.0156,2475,443.0156,2465,447.0156,2469,443.0156" style="stroke:#181818;stroke-width:1.0;"/><line style="stroke:#181818;stroke-width:1.0;" x1="1763" x2="2471" y1="443.0156" y2="443.0156"/><text fill="#000000" font-family="sans-serif" font-size="20" font-weight="bold" lengthAdjust="spacing" textLength="11" x="1770" y="436.6211">6</text><text fill="#000000" font-family="sans-serif" font-size="20" lengthAdjust="spacing" textLength="680" x="1785" y="436.6211">jobOpeningsInScreeingListOfCustomerManager(customerManagerUsername)</text><polygon fill="#181818" points="2058,508.1719,2068,512.1719,2058,516.1719,2062,512.1719" style="stroke:#181818;stroke-width:1.0;"/><line style="stroke:#181818;stroke-width:1.0;" x1="1763" x2="2064" y1="512.1719" y2="512.1719"/><text fill="#000000" font-family="sans-serif" font-size="20" font-weight="bold" lengthAdjust="spacing" textLength="11" x="1770" y="505.7773">7</text><text fill="#000000" font-family="sans-serif" font-size="20" lengthAdjust="spacing" textLength="273" x="1785" y="505.7773">convertToDTO(jobOpeningList)</text><path d="M1949,527.1719 L2035,527.1719 L2035,544.3281 L2025,554.3281 L1949,554.3281 L1949,527.1719 " fill="#EEEEEE" style="stroke:#000000;stroke-width:1.5;"/><rect fill="none" height="106.4688" style="stroke:#000000;stroke-width:1.5;" width="784" x="1949" y="527.1719"/><text fill="#000000" font-family="sans-serif" font-size="20" font-weight="bold" lengthAdjust="spacing" textLength="41" x="1964" y="548.9336">loop</text><text fill="#000000" font-family="sans-serif" font-size="20" font-weight="bold" lengthAdjust="spacing" textLength="213" x="2050" y="549.9336">[for each JobOpening]</text><polygon fill="#181818" points="2643.5,591.6406,2653.5,595.6406,2643.5,599.6406,2647.5,595.6406" style="stroke:#181818;stroke-width:1.0;"/><line style="stroke:#181818;stroke-width:1.0;" x1="2080" x2="2649.5" y1="595.6406" y2="595.6406"/><text fill="#000000" font-family="sans-serif" font-size="20" font-weight="bold" lengthAdjust="spacing" textLength="11" x="2087" y="589.2461">8</text><text fill="#000000" font-family="sans-serif" font-size="20" lengthAdjust="spacing" textLength="73" x="2102" y="589.2461">toDTO()</text><polygon fill="#181818" points="1037.5,667.7969,1027.5,671.7969,1037.5,675.7969,1033.5,671.7969" style="stroke:#181818;stroke-width:1.0;"/><line style="stroke:#181818;stroke-width:1.0;stroke-dasharray:2.0,2.0;" x1="1031.5" x2="1757" y1="671.7969" y2="671.7969"/><text fill="#000000" font-family="sans-serif" font-size="20" font-weight="bold" lengthAdjust="spacing" textLength="11" x="1043.5" y="665.4023">9</text><text fill="#000000" font-family="sans-serif" font-size="20" lengthAdjust="spacing" textLength="172" x="1058.5" y="665.4023">jobOpeningListDTO</text><polygon fill="#181818" points="592.5,706.9531,582.5,710.9531,592.5,714.9531,588.5,710.9531" style="stroke:#181818;stroke-width:1.0;"/><line style="stroke:#181818;stroke-width:1.0;stroke-dasharray:2.0,2.0;" x1="586.5" x2="1020.5" y1="710.9531" y2="710.9531"/><text fill="#000000" font-family="sans-serif" font-size="20" font-weight="bold" lengthAdjust="spacing" textLength="22" x="598.5" y="704.5586">10</text><text fill="#000000" font-family="sans-serif" font-size="20" lengthAdjust="spacing" textLength="172" x="624.5" y="704.5586">jobOpeningListDTO</text><polygon fill="#181818" points="108.5,746.1094,98.5,750.1094,108.5,754.1094,104.5,750.1094" style="stroke:#181818;stroke-width:1.0;"/><line style="stroke:#181818;stroke-width:1.0;stroke-dasharray:2.0,2.0;" x1="102.5" x2="575.5" y1="750.1094" y2="750.1094"/><text fill="#000000" font-family="sans-serif" font-size="20" font-weight="bold" lengthAdjust="spacing" textLength="22" x="114.5" y="743.7148">11</text><text fill="#000000" font-family="sans-serif" font-size="20" lengthAdjust="spacing" textLength="424" x="140.5" y="743.7148">displays the job openings and asks to select one</text><polygon fill="#181818" points="559.5,785.2656,569.5,789.2656,559.5,793.2656,563.5,789.2656" style="stroke:#181818;stroke-width:1.0;"/><line style="stroke:#181818;stroke-width:1.0;" x1="97.5" x2="565.5" y1="789.2656" y2="789.2656"/><text fill="#000000" font-family="sans-serif" font-size="20" font-weight="bold" lengthAdjust="spacing" textLength="22" x="104.5" y="782.8711">12</text><text fill="#000000" font-family="sans-serif" font-size="20" lengthAdjust="spacing" textLength="168" x="130.5" y="782.8711">selects job opening</text><polygon fill="#181818" points="1004.5,824.4219,1014.5,828.4219,1004.5,832.4219,1008.5,828.4219" style="stroke:#181818;stroke-width:1.0;"/><line style="stroke:#181818;stroke-width:1.0;" x1="581.5" x2="1010.5" y1="828.4219" y2="828.4219"/><text fill="#000000" font-family="sans-serif" font-size="20" font-weight="bold" lengthAdjust="spacing" textLength="22" x="588.5" y="822.0273">13</text><text fill="#000000" font-family="sans-serif" font-size="20" lengthAdjust="spacing" textLength="390" x="614.5" y="822.0273">verifyAvailableRequirements(jobOpeningDto)</text><polygon fill="#181818" points="1480.5,863.5781,1490.5,867.5781,1480.5,871.5781,1484.5,867.5781" style="stroke:#181818;stroke-width:1.0;"/><line style="stroke:#181818;stroke-width:1.0;" x1="1026.5" x2="1486.5" y1="867.5781" y2="867.5781"/><text fill="#000000" font-family="sans-serif" font-size="20" font-weight="bold" lengthAdjust="spacing" textLength="22" x="1033.5" y="861.1836">14</text><text fill="#000000" font-family="sans-serif" font-size="20" lengthAdjust="spacing" textLength="365" x="1059.5" y="861.1836">ensureAuthenticatedUserHasAnyOf(roles)</text><line style="stroke:#181818;stroke-width:1.0;" x1="1026.5" x2="1073.5" y1="931.7344" y2="931.7344"/><line style="stroke:#181818;stroke-width:1.0;" x1="1073.5" x2="1073.5" y1="931.7344" y2="944.7344"/><line style="stroke:#181818;stroke-width:1.0;" x1="1032.5" x2="1073.5" y1="944.7344" y2="944.7344"/><polygon fill="#181818" points="1042.5,940.7344,1032.5,944.7344,1042.5,948.7344,1038.5,944.7344" style="stroke:#181818;stroke-width:1.0;"/><text fill="#000000" font-family="sans-serif" font-size="20" font-weight="bold" lengthAdjust="spacing" textLength="22" x="1038.5" y="925.3398">15</text><text fill="#000000" font-family="sans-serif" font-size="20" lengthAdjust="spacing" textLength="426" x="1064.5" y="925.3398">verifyRequirementsOfApplications(jobReference)</text><polygon fill="#181818" points="2817,984.8906,2827,988.8906,2817,992.8906,2821,988.8906" style="stroke:#181818;stroke-width:1.0;"/><line style="stroke:#181818;stroke-width:1.0;" x1="1031.5" x2="2823" y1="988.8906" y2="988.8906"/><text fill="#000000" font-family="sans-serif" font-size="20" font-weight="bold" lengthAdjust="spacing" textLength="22" x="1038.5" y="982.4961">16</text><text fill="#000000" font-family="sans-serif" font-size="20" lengthAdjust="spacing" textLength="529" x="1064.5" y="982.4961">applicationsForJobOpeningWithRequirements(jobReference)</text><polygon fill="#181818" points="1042.5,1024.0469,1032.5,1028.0469,1042.5,1032.0469,1038.5,1028.0469" style="stroke:#181818;stroke-width:1.0;"/><line style="stroke:#181818;stroke-width:1.0;stroke-dasharray:2.0,2.0;" x1="1036.5" x2="2833" y1="1028.0469" y2="1028.0469"/><text fill="#000000" font-family="sans-serif" font-size="20" font-weight="bold" lengthAdjust="spacing" textLength="22" x="1048.5" y="1021.6523">17</text><text fill="#000000" font-family="sans-serif" font-size="20" lengthAdjust="spacing" textLength="103" x="1074.5" y="1021.6523">applications</text><path d="M878,1043.0469 L964,1043.0469 L964,1060.2031 L954,1070.2031 L878,1070.2031 L878,1043.0469 " fill="#EEEEEE" style="stroke:#000000;stroke-width:1.5;"/><rect fill="none" height="253.9375" style="stroke:#000000;stroke-width:1.5;" width="2496" x="878" y="1043.0469"/><text fill="#000000" font-family="sans-serif" font-size="20" font-weight="bold" lengthAdjust="spacing" textLength="41" x="893" y="1064.8086">loop</text><text fill="#000000" font-family="sans-serif" font-size="20" font-weight="bold" lengthAdjust="spacing" textLength="201" x="979" y="1065.8086">[for each application]</text><polygon fill="#181818" points="3075,1107.5156,3085,1111.5156,3075,1115.5156,3079,1111.5156" style="stroke:#181818;stroke-width:1.0;"/><line style="stroke:#181818;stroke-width:1.0;" x1="1031.5" x2="3081" y1="1111.5156" y2="1111.5156"/><text fill="#000000" font-family="sans-serif" font-size="20" font-weight="bold" lengthAdjust="spacing" textLength="22" x="1038.5" y="1105.1211">18</text><text fill="#000000" font-family="sans-serif" font-size="20" lengthAdjust="spacing" textLength="409" x="1064.5" y="1105.1211">evaluateRequirementsFile(requirementAnswer)</text><polygon fill="#181818" points="1042.5,1146.6719,1032.5,1150.6719,1042.5,1154.6719,1038.5,1150.6719" style="stroke:#181818;stroke-width:1.0;"/><line style="stroke:#181818;stroke-width:1.0;stroke-dasharray:2.0,2.0;" x1="1036.5" x2="3091" y1="1150.6719" y2="1150.6719"/><text fill="#000000" font-family="sans-serif" font-size="20" font-weight="bold" lengthAdjust="spacing" textLength="22" x="1048.5" y="1144.2773">19</text><text fill="#000000" font-family="sans-serif" font-size="20" lengthAdjust="spacing" textLength="48" x="1074.5" y="1144.2773">result</text><polygon fill="#181818" points="3289.5,1185.8281,3299.5,1189.8281,3289.5,1193.8281,3293.5,1189.8281" style="stroke:#181818;stroke-width:1.0;"/><line style="stroke:#181818;stroke-width:1.0;" x1="1031.5" x2="3295.5" y1="1189.8281" y2="1189.8281"/><text fill="#000000" font-family="sans-serif" font-size="20" font-weight="bold" lengthAdjust="spacing" textLength="22" x="1038.5" y="1183.4336">20</text><text fill="#000000" font-family="sans-serif" font-size="20" lengthAdjust="spacing" textLength="288" x="1064.5" y="1183.4336">updateRequirementResult(result)</text><polygon fill="#181818" points="2817,1254.9844,2827,1258.9844,2817,1262.9844,2821,1258.9844" style="stroke:#181818;stroke-width:1.0;"/><line style="stroke:#181818;stroke-width:1.0;" x1="1031.5" x2="2823" y1="1258.9844" y2="1258.9844"/><text fill="#000000" font-family="sans-serif" font-size="20" font-weight="bold" lengthAdjust="spacing" textLength="22" x="1038.5" y="1252.5898">21</text><text fill="#000000" font-family="sans-serif" font-size="20" lengthAdjust="spacing" textLength="148" x="1064.5" y="1252.5898">save(application)</text><line style="stroke:#181818;stroke-width:1.0;stroke-dasharray:2.0,2.0;" x1="1031.5" x2="1073.5" y1="1340.1406" y2="1340.1406"/><line style="stroke:#181818;stroke-width:1.0;stroke-dasharray:2.0,2.0;" x1="1073.5" x2="1073.5" y1="1340.1406" y2="1353.1406"/><line style="stroke:#181818;stroke-width:1.0;stroke-dasharray:2.0,2.0;" x1="1026.5" x2="1073.5" y1="1353.1406" y2="1353.1406"/><polygon fill="#181818" points="1036.5,1349.1406,1026.5,1353.1406,1036.5,1357.1406,1032.5,1353.1406" style="stroke:#181818;stroke-width:1.0;"/><text fill="#000000" font-family="sans-serif" font-size="20" font-weight="bold" lengthAdjust="spacing" textLength="22" x="1038.5" y="1333.7461">22</text><text fill="#000000" font-family="sans-serif" font-size="20" lengthAdjust="spacing" textLength="6" x="1064.5" y="1333.7461"> </text><polygon fill="#181818" points="592.5,1383.2969,582.5,1387.2969,592.5,1391.2969,588.5,1387.2969" style="stroke:#181818;stroke-width:1.0;"/><line style="stroke:#181818;stroke-width:1.0;stroke-dasharray:2.0,2.0;" x1="586.5" x2="1020.5" y1="1387.2969" y2="1387.2969"/><text fill="#000000" font-family="sans-serif" font-size="20" font-weight="bold" lengthAdjust="spacing" textLength="22" x="598.5" y="1380.9023">23</text><text fill="#000000" font-family="sans-serif" font-size="20" lengthAdjust="spacing" textLength="71" x="624.5" y="1380.9023">success</text><polygon fill="#181818" points="103.5,1422.4531,93.5,1426.4531,103.5,1430.4531,99.5,1426.4531" style="stroke:#181818;stroke-width:1.0;"/><line style="stroke:#181818;stroke-width:1.0;stroke-dasharray:2.0,2.0;" x1="97.5" x2="570.5" y1="1426.4531" y2="1426.4531"/><text fill="#000000" font-family="sans-serif" font-size="20" font-weight="bold" lengthAdjust="spacing" textLength="22" x="109.5" y="1420.0586">24</text><text fill="#000000" font-family="sans-serif" font-size="20" lengthAdjust="spacing" textLength="148" x="135.5" y="1420.0586">displays success</text><!--SRC=[hLPDJ-Cm4BtdLrXSjaNg0Ylj9K984H-Y2DIgQNUblI0tcRI6nCxQJbVbr-_O-R831LRQ7X2rPzwycNaphdfclAII5hb8dY4bAMIqolMDu3fcBq2-dGPVjbgNAZmvANFATLNaNnDHd2ZuNG5FO98oka7_8D1Cvq1MyTdfsNSo8N5ZGAvQ0rffmQjY3HB_JxIGvEYoKbeK8Ca3vNG3yeXGXH3NYm19QPQm4aEIe_07I9Rj5mZ991J0zMfQcqx9-NafGU4HrKpmYukFF2ynDIdol0bskLpS8mOjovmbRqD4bTuAoLxiRGnonnAmlj5gUViBdLLzzihnJgnd9N36DtLw9hphVpTxY3_bVhMS-Nxn8nvvhYdLT4qLU7uBA8LYMEbzu_Uuk9uRFzbTl1EryK7pL1IKSJzAr5Ti42RwH1Id8N492SiQg7bURHYtC8juZXYCQv0PVQCy3e4wh4lKAepjg8PQJe7vIoONHZ4XMZyheWNPMN4GsPDHH6J44ODoSAQ8CZKOHZF7no599E25UuhO6z1z2U-PqgDnZs5iWe3KjkXJAoWakTXi86LyXGtzoVHs3h9WIXa28nGhZD67a0x6kjcZ50Q7GGjjnHMIfuwBcl8O6KD3QvQrmzVCtYZnlnikd1RWq3UOIDz2sn1rf_zF52_31dgOOtiSz1JgKS1c28xjr4k1NqTFNWUy3AnzO85p8KgIuHx205lITyrUca-BRWDX36t1nzsz0zkTUMpjAV3KXWgyguP7dKWl7v-vCV6yJFth3bijVs1Voyt8qrYR2GX9oXGkyZtgVml6cuYcSOGYptOo5EIGQ28uk7Xc1Fn9gksK2-HFZ2b0FnzXCtBHZhAShdDmze1okdQbnK0GxUGCPYSqvLML1BEa4SICBQH6LBTKHNm_o-pyg7yO83T6qvJTy15HiynPFvRv0ZAGvi4xIDmZRtKSUglcHiXUWsOB38ip2E5drC-B-JGxUDBLtTjfRsYryU-k_Dbml3iBBnzSrY617Sqh17Dvtx0SHiw2ZRZw0tBietGi42Rmhymhq6U1Bpt-El4jd2HUktVr3abLfZwtXGKRrPY764K7WqM7GZMjLNG78wTm1oFudJlGcFQcMoQEJjlo30LTIyzR5wfA4b3gtINXx8ZMt5i2zZtz2m00]--></g></svg>