<?xml version="1.0" encoding="UTF-8" standalone="no"?><svg xmlns="http://www.w3.org/2000/svg" xmlns:xlink="http://www.w3.org/1999/xlink" contentStyleType="text/css" height="1349px" preserveAspectRatio="none" style="width:2453px;height:1349px;background:#FFFFFF;" version="1.1" viewBox="0 0 2453 1349" width="2453px" zoomAndPan="magnify"><defs/><g><text fill="#000000" font-family="sans-serif" font-size="14" font-weight="bold" lengthAdjust="spacing" textLength="196" x="1130" y="29.5332">US1015 - Sequence Diagram</text><rect fill="#FFFFFF" height="1069.0625" style="stroke:#181818;stroke-width:1.0;" width="10" x="87.5" y="149.9219"/><rect fill="#FFFFFF" height="283.25" style="stroke:#181818;stroke-width:1.0;" width="10" x="560.5" y="181.0781"/><rect fill="#FFFFFF" height="724.5" style="stroke:#181818;stroke-width:1.0;" width="10" x="560.5" y="503.4844"/><rect fill="#FFFFFF" height="129.625" style="stroke:#181818;stroke-width:1.0;" width="10" x="994.5" y="295.5469"/><rect fill="#FFFFFF" height="637.1875" style="stroke:#181818;stroke-width:1.0;" width="10" x="994.5" y="542.6406"/><rect fill="#FFFFFF" height="396.4063" style="stroke:#181818;stroke-width:1.0;" width="10" x="999.5" y="737.2656"/><rect fill="#FFFFFF" height="30" style="stroke:#181818;stroke-width:1.0;" width="10" x="1470.5" y="581.7969"/><rect fill="#FFFFFF" height="39.1563" style="stroke:#181818;stroke-width:1.0;" width="10" x="1685" y="650.9531"/><rect fill="#FFFFFF" height="39.1563" style="stroke:#181818;stroke-width:1.0;" width="10" x="1902" y="781.4219"/><rect fill="#FFFFFF" height="30" style="stroke:#181818;stroke-width:1.0;" width="10" x="1902" y="1051.5156"/><rect fill="#FFFFFF" height="39.1563" style="stroke:#181818;stroke-width:1.0;" width="10" x="2160" y="904.0469"/><rect fill="#FFFFFF" height="30" style="stroke:#181818;stroke-width:1.0;" width="10" x="2374.5" y="982.3594"/><rect fill="none" height="253.9375" style="stroke:#000000;stroke-width:1.5;" width="1591" x="856" y="835.5781"/><line style="stroke:#181818;stroke-width:0.5;stroke-dasharray:5.0,5.0;" x1="92" x2="92" y1="139.9219" y2="1236.9844"/><line style="stroke:#181818;stroke-width:0.5;stroke-dasharray:5.0,5.0;" x1="565" x2="565" y1="139.9219" y2="1236.9844"/><line style="stroke:#181818;stroke-width:0.5;stroke-dasharray:5.0,5.0;" x1="999" x2="999" y1="236.7344" y2="1236.9844"/><line style="stroke:#181818;stroke-width:0.5;stroke-dasharray:5.0,5.0;" x1="1475" x2="1475" y1="139.9219" y2="1236.9844"/><line style="stroke:#181818;stroke-width:0.5;stroke-dasharray:5.0,5.0;" x1="1690" x2="1690" y1="139.9219" y2="1236.9844"/><line style="stroke:#181818;stroke-width:0.5;stroke-dasharray:5.0,5.0;" x1="1907" x2="1907" y1="139.9219" y2="1236.9844"/><line style="stroke:#181818;stroke-width:0.5;stroke-dasharray:5.0,5.0;" x1="2165" x2="2165" y1="139.9219" y2="1236.9844"/><line style="stroke:#181818;stroke-width:0.5;stroke-dasharray:5.0,5.0;" x1="2379" x2="2379" y1="139.9219" y2="1236.9844"/><text fill="#000000" font-family="sans-serif" font-size="20" lengthAdjust="spacing" textLength="169" x="5" y="135.5273">Customer Manager</text><ellipse cx="92.5" cy="63.2656" fill="#E2E2F0" rx="8" ry="8" style="stroke:#181818;stroke-width:0.5;"/><path d="M92.5,71.2656 L92.5,98.2656 M79.5,79.2656 L105.5,79.2656 M92.5,98.2656 L79.5,113.2656 M92.5,98.2656 L105.5,113.2656 " fill="none" style="stroke:#181818;stroke-width:0.5;"/><text fill="#000000" font-family="sans-serif" font-size="20" lengthAdjust="spacing" textLength="169" x="5" y="1256.7461">Customer Manager</text><ellipse cx="92.5" cy="1269.6406" fill="#E2E2F0" rx="8" ry="8" style="stroke:#181818;stroke-width:0.5;"/><path d="M92.5,1277.6406 L92.5,1304.6406 M79.5,1285.6406 L105.5,1285.6406 M92.5,1304.6406 L79.5,1319.6406 M92.5,1304.6406 L105.5,1319.6406 " fill="none" style="stroke:#181818;stroke-width:0.5;"/><rect fill="#E2E2F0" height="64.3125" rx="2.5" ry="2.5" style="stroke:#181818;stroke-width:0.5;" width="201" x="465" y="74.6094"/><text fill="#000000" font-family="sans-serif" font-size="20" font-style="italic" lengthAdjust="spacing" textLength="131" x="500" y="102.3711">«presentation»</text><text fill="#000000" font-family="sans-serif" font-size="20" lengthAdjust="spacing" textLength="187" x="472" y="127.5273">:VerifyRequirementUI</text><rect fill="#E2E2F0" height="64.3125" rx="2.5" ry="2.5" style="stroke:#181818;stroke-width:0.5;" width="201" x="465" y="1235.9844"/><text fill="#000000" font-family="sans-serif" font-size="20" font-style="italic" lengthAdjust="spacing" textLength="131" x="500" y="1263.7461">«presentation»</text><text fill="#000000" font-family="sans-serif" font-size="20" lengthAdjust="spacing" textLength="187" x="472" y="1288.9023">:VerifyRequirementUI</text><rect fill="#E2E2F0" height="64.3125" rx="2.5" ry="2.5" style="stroke:#181818;stroke-width:0.5;" width="267" x="866" y="1235.9844"/><text fill="#000000" font-family="sans-serif" font-size="20" font-style="italic" lengthAdjust="spacing" textLength="118" x="940.5" y="1263.7461">«application»</text><text fill="#000000" font-family="sans-serif" font-size="20" lengthAdjust="spacing" textLength="253" x="873" y="1288.9023">:VerifyRequirementController</text><rect fill="#E2E2F0" height="64.3125" rx="2.5" ry="2.5" style="stroke:#181818;stroke-width:0.5;" width="197" x="1377" y="74.6094"/><text fill="#000000" font-family="sans-serif" font-size="20" font-style="italic" lengthAdjust="spacing" textLength="86" x="1432.5" y="102.3711">«service»</text><text fill="#000000" font-family="sans-serif" font-size="20" lengthAdjust="spacing" textLength="183" x="1384" y="127.5273">:AuthorizationService</text><rect fill="#E2E2F0" height="64.3125" rx="2.5" ry="2.5" style="stroke:#181818;stroke-width:0.5;" width="197" x="1377" y="1235.9844"/><text fill="#000000" font-family="sans-serif" font-size="20" font-style="italic" lengthAdjust="spacing" textLength="86" x="1432.5" y="1263.7461">«service»</text><text fill="#000000" font-family="sans-serif" font-size="20" lengthAdjust="spacing" textLength="183" x="1384" y="1288.9023">:AuthorizationService</text><text fill="#000000" font-family="sans-serif" font-size="20" font-style="italic" lengthAdjust="spacing" textLength="110" x="1632" y="110.3711">«repository»</text><text fill="#000000" font-family="sans-serif" font-size="20" lengthAdjust="spacing" textLength="206" x="1584" y="135.5273">:JobOpeningRepository</text><path d="M1672,53.6094 C1672,43.6094 1690,43.6094 1690,43.6094 C1690,43.6094 1708,43.6094 1708,53.6094 L1708,79.6094 C1708,89.6094 1690,89.6094 1690,89.6094 C1690,89.6094 1672,89.6094 1672,79.6094 L1672,53.6094 " fill="#E2E2F0" style="stroke:#181818;stroke-width:1.5;"/><path d="M1672,53.6094 C1672,63.6094 1690,63.6094 1690,63.6094 C1690,63.6094 1708,63.6094 1708,53.6094 " fill="none" style="stroke:#181818;stroke-width:1.5;"/><text fill="#000000" font-family="sans-serif" font-size="20" font-style="italic" lengthAdjust="spacing" textLength="110" x="1632" y="1256.7461">«repository»</text><text fill="#000000" font-family="sans-serif" font-size="20" lengthAdjust="spacing" textLength="206" x="1584" y="1281.9023">:JobOpeningRepository</text><path d="M1672,1296.2969 C1672,1286.2969 1690,1286.2969 1690,1286.2969 C1690,1286.2969 1708,1286.2969 1708,1296.2969 L1708,1322.2969 C1708,1332.2969 1690,1332.2969 1690,1332.2969 C1690,1332.2969 1672,1332.2969 1672,1322.2969 L1672,1296.2969 " fill="#E2E2F0" style="stroke:#181818;stroke-width:1.5;"/><path d="M1672,1296.2969 C1672,1306.2969 1690,1306.2969 1690,1306.2969 C1690,1306.2969 1708,1306.2969 1708,1296.2969 " fill="none" style="stroke:#181818;stroke-width:1.5;"/><text fill="#000000" font-family="sans-serif" font-size="20" font-style="italic" lengthAdjust="spacing" textLength="110" x="1849" y="110.3711">«repository»</text><text fill="#000000" font-family="sans-serif" font-size="20" lengthAdjust="spacing" textLength="196" x="1806" y="135.5273">:ApplicationRepository</text><path d="M1889,53.6094 C1889,43.6094 1907,43.6094 1907,43.6094 C1907,43.6094 1925,43.6094 1925,53.6094 L1925,79.6094 C1925,89.6094 1907,89.6094 1907,89.6094 C1907,89.6094 1889,89.6094 1889,79.6094 L1889,53.6094 " fill="#E2E2F0" style="stroke:#181818;stroke-width:1.5;"/><path d="M1889,53.6094 C1889,63.6094 1907,63.6094 1907,63.6094 C1907,63.6094 1925,63.6094 1925,53.6094 " fill="none" style="stroke:#181818;stroke-width:1.5;"/><text fill="#000000" font-family="sans-serif" font-size="20" font-style="italic" lengthAdjust="spacing" textLength="110" x="1849" y="1256.7461">«repository»</text><text fill="#000000" font-family="sans-serif" font-size="20" lengthAdjust="spacing" textLength="196" x="1806" y="1281.9023">:ApplicationRepository</text><path d="M1889,1296.2969 C1889,1286.2969 1907,1286.2969 1907,1286.2969 C1907,1286.2969 1925,1286.2969 1925,1296.2969 L1925,1322.2969 C1925,1332.2969 1907,1332.2969 1907,1332.2969 C1907,1332.2969 1889,1332.2969 1889,1322.2969 L1889,1296.2969 " fill="#E2E2F0" style="stroke:#181818;stroke-width:1.5;"/><path d="M1889,1296.2969 C1889,1306.2969 1907,1306.2969 1907,1306.2969 C1907,1306.2969 1925,1306.2969 1925,1296.2969 " fill="none" style="stroke:#181818;stroke-width:1.5;"/><rect fill="#E2E2F0" height="64.3125" rx="2.5" ry="2.5" style="stroke:#181818;stroke-width:0.5;" width="294" x="2018" y="74.6094"/><text fill="#000000" font-family="sans-serif" font-size="20" font-style="italic" lengthAdjust="spacing" textLength="99" x="2115.5" y="102.3711">«interface»</text><text fill="#000000" font-family="sans-serif" font-size="20" lengthAdjust="spacing" textLength="280" x="2025" y="127.5273">:RequirementSpecificationPlugin</text><rect fill="#E2E2F0" height="64.3125" rx="2.5" ry="2.5" style="stroke:#181818;stroke-width:0.5;" width="294" x="2018" y="1235.9844"/><text fill="#000000" font-family="sans-serif" font-size="20" font-style="italic" lengthAdjust="spacing" textLength="99" x="2115.5" y="1263.7461">«interface»</text><text fill="#000000" font-family="sans-serif" font-size="20" lengthAdjust="spacing" textLength="280" x="2025" y="1288.9023">:RequirementSpecificationPlugin</text><rect fill="#E2E2F0" height="64.3125" rx="2.5" ry="2.5" style="stroke:#181818;stroke-width:0.5;" width="115" x="2322" y="74.6094"/><text fill="#000000" font-family="sans-serif" font-size="20" font-style="italic" lengthAdjust="spacing" textLength="88" x="2335.5" y="102.3711">«domain»</text><text fill="#000000" font-family="sans-serif" font-size="20" lengthAdjust="spacing" textLength="101" x="2329" y="127.5273">:Application</text><rect fill="#E2E2F0" height="64.3125" rx="2.5" ry="2.5" style="stroke:#181818;stroke-width:0.5;" width="115" x="2322" y="1235.9844"/><text fill="#000000" font-family="sans-serif" font-size="20" font-style="italic" lengthAdjust="spacing" textLength="88" x="2335.5" y="1263.7461">«domain»</text><text fill="#000000" font-family="sans-serif" font-size="20" lengthAdjust="spacing" textLength="101" x="2329" y="1288.9023">:Application</text><rect fill="#FFFFFF" height="1069.0625" style="stroke:#181818;stroke-width:1.0;" width="10" x="87.5" y="149.9219"/><rect fill="#FFFFFF" height="283.25" style="stroke:#181818;stroke-width:1.0;" width="10" x="560.5" y="181.0781"/><rect fill="#FFFFFF" height="724.5" style="stroke:#181818;stroke-width:1.0;" width="10" x="560.5" y="503.4844"/><rect fill="#FFFFFF" height="129.625" style="stroke:#181818;stroke-width:1.0;" width="10" x="994.5" y="295.5469"/><rect fill="#FFFFFF" height="637.1875" style="stroke:#181818;stroke-width:1.0;" width="10" x="994.5" y="542.6406"/><rect fill="#FFFFFF" height="396.4063" style="stroke:#181818;stroke-width:1.0;" width="10" x="999.5" y="737.2656"/><rect fill="#FFFFFF" height="30" style="stroke:#181818;stroke-width:1.0;" width="10" x="1470.5" y="581.7969"/><rect fill="#FFFFFF" height="39.1563" style="stroke:#181818;stroke-width:1.0;" width="10" x="1685" y="650.9531"/><rect fill="#FFFFFF" height="39.1563" style="stroke:#181818;stroke-width:1.0;" width="10" x="1902" y="781.4219"/><rect fill="#FFFFFF" height="30" style="stroke:#181818;stroke-width:1.0;" width="10" x="1902" y="1051.5156"/><rect fill="#FFFFFF" height="39.1563" style="stroke:#181818;stroke-width:1.0;" width="10" x="2160" y="904.0469"/><rect fill="#FFFFFF" height="30" style="stroke:#181818;stroke-width:1.0;" width="10" x="2374.5" y="982.3594"/><polygon fill="#181818" points="548.5,177.0781,558.5,181.0781,548.5,185.0781,552.5,181.0781" style="stroke:#181818;stroke-width:1.0;"/><line style="stroke:#181818;stroke-width:1.0;" x1="97.5" x2="554.5" y1="181.0781" y2="181.0781"/><text fill="#000000" font-family="sans-serif" font-size="20" font-weight="bold" lengthAdjust="spacing" textLength="11" x="104.5" y="174.6836">1</text><text fill="#000000" font-family="sans-serif" font-size="20" lengthAdjust="spacing" textLength="369" x="119.5" y="174.6836">asks to verify requirements of applications</text><polygon fill="#181818" points="854,216.2344,864,220.2344,854,224.2344,858,220.2344" style="stroke:#181818;stroke-width:1.0;"/><line style="stroke:#181818;stroke-width:1.0;" x1="570.5" x2="860" y1="220.2344" y2="220.2344"/><text fill="#000000" font-family="sans-serif" font-size="20" font-weight="bold" lengthAdjust="spacing" textLength="11" x="577.5" y="213.8398">2</text><text fill="#000000" font-family="sans-serif" font-size="20" lengthAdjust="spacing" textLength="56" x="592.5" y="213.8398">create</text><rect fill="#E2E2F0" height="64.3125" rx="2.5" ry="2.5" style="stroke:#181818;stroke-width:0.5;" width="267" x="866" y="189.0781"/><text fill="#000000" font-family="sans-serif" font-size="20" font-style="italic" lengthAdjust="spacing" textLength="118" x="940.5" y="216.8398">«application»</text><text fill="#000000" font-family="sans-serif" font-size="20" lengthAdjust="spacing" textLength="253" x="873" y="241.9961">:VerifyRequirementController</text><polygon fill="#181818" points="982.5,291.5469,992.5,295.5469,982.5,299.5469,986.5,295.5469" style="stroke:#181818;stroke-width:1.0;"/><line style="stroke:#181818;stroke-width:1.0;" x1="570.5" x2="988.5" y1="295.5469" y2="295.5469"/><text fill="#000000" font-family="sans-serif" font-size="20" font-weight="bold" lengthAdjust="spacing" textLength="11" x="577.5" y="289.1523">3</text><text fill="#000000" font-family="sans-serif" font-size="20" lengthAdjust="spacing" textLength="178" x="592.5" y="289.1523">getJobOpeningList()</text><rect fill="none" height="85.4688" style="stroke:#000000;stroke-width:1.5;" width="474" x="863" y="303.5469"/><path d="M863,303.5469 L934,303.5469 L934,320.5469 L924,330.5469 L863,330.5469 L863,303.5469 " fill="#EEEEEE" style="stroke:#000000;stroke-width:2.0;"/><text fill="#000000" font-family="sans-serif" font-size="20" font-weight="bold" lengthAdjust="spacing" textLength="26" x="876" y="326.3086">ref</text><text fill="#000000" font-family="sans-serif" font-size="20" font-weight="bold" lengthAdjust="spacing" textLength="58" x="867" y="355.3086">[ref1]:</text><text fill="#000000" font-family="sans-serif" font-size="20" lengthAdjust="spacing" textLength="55" x="931" y="355.3086">Check</text><text fill="#000000" font-family="sans-serif" font-size="20" font-weight="bold" lengthAdjust="spacing" textLength="341" x="992" y="355.3086">sequence-diagram-get-job-openings</text><text fill="#000000" font-family="sans-serif" font-size="20" lengthAdjust="spacing" textLength="103" x="974" y="380.4648">in the folder</text><text fill="#000000" font-family="sans-serif" font-size="20" font-weight="bold" lengthAdjust="spacing" textLength="143" x="1083" y="380.4648">team-decisions</text><polygon fill="#181818" points="581.5,421.1719,571.5,425.1719,581.5,429.1719,577.5,425.1719" style="stroke:#181818;stroke-width:1.0;"/><line style="stroke:#181818;stroke-width:1.0;stroke-dasharray:2.0,2.0;" x1="575.5" x2="998.5" y1="425.1719" y2="425.1719"/><text fill="#000000" font-family="sans-serif" font-size="20" font-weight="bold" lengthAdjust="spacing" textLength="11" x="587.5" y="418.7773">4</text><text fill="#000000" font-family="sans-serif" font-size="20" lengthAdjust="spacing" textLength="172" x="602.5" y="418.7773">jobOpeningListDTO</text><polygon fill="#181818" points="108.5,460.3281,98.5,464.3281,108.5,468.3281,104.5,464.3281" style="stroke:#181818;stroke-width:1.0;"/><line style="stroke:#181818;stroke-width:1.0;stroke-dasharray:2.0,2.0;" x1="102.5" x2="564.5" y1="464.3281" y2="464.3281"/><text fill="#000000" font-family="sans-serif" font-size="20" font-weight="bold" lengthAdjust="spacing" textLength="11" x="114.5" y="457.9336">5</text><text fill="#000000" font-family="sans-serif" font-size="20" lengthAdjust="spacing" textLength="424" x="129.5" y="457.9336">displays the job openings and asks to select one</text><polygon fill="#181818" points="548.5,499.4844,558.5,503.4844,548.5,507.4844,552.5,503.4844" style="stroke:#181818;stroke-width:1.0;"/><line style="stroke:#181818;stroke-width:1.0;" x1="97.5" x2="554.5" y1="503.4844" y2="503.4844"/><text fill="#000000" font-family="sans-serif" font-size="20" font-weight="bold" lengthAdjust="spacing" textLength="11" x="104.5" y="497.0898">6</text><text fill="#000000" font-family="sans-serif" font-size="20" lengthAdjust="spacing" textLength="168" x="119.5" y="497.0898">selects job opening</text><polygon fill="#181818" points="982.5,538.6406,992.5,542.6406,982.5,546.6406,986.5,542.6406" style="stroke:#181818;stroke-width:1.0;"/><line style="stroke:#181818;stroke-width:1.0;" x1="570.5" x2="988.5" y1="542.6406" y2="542.6406"/><text fill="#000000" font-family="sans-serif" font-size="20" font-weight="bold" lengthAdjust="spacing" textLength="11" x="577.5" y="536.2461">7</text><text fill="#000000" font-family="sans-serif" font-size="20" lengthAdjust="spacing" textLength="390" x="592.5" y="536.2461">verifyAvailableRequirements(jobOpeningDto)</text><polygon fill="#181818" points="1458.5,577.7969,1468.5,581.7969,1458.5,585.7969,1462.5,581.7969" style="stroke:#181818;stroke-width:1.0;"/><line style="stroke:#181818;stroke-width:1.0;" x1="1004.5" x2="1464.5" y1="581.7969" y2="581.7969"/><text fill="#000000" font-family="sans-serif" font-size="20" font-weight="bold" lengthAdjust="spacing" textLength="11" x="1011.5" y="575.4023">8</text><text fill="#000000" font-family="sans-serif" font-size="20" lengthAdjust="spacing" textLength="365" x="1026.5" y="575.4023">ensureAuthenticatedUserHasAnyOf(roles)</text><polygon fill="#181818" points="1673,646.9531,1683,650.9531,1673,654.9531,1677,650.9531" style="stroke:#181818;stroke-width:1.0;"/><line style="stroke:#181818;stroke-width:1.0;" x1="1004.5" x2="1679" y1="650.9531" y2="650.9531"/><text fill="#000000" font-family="sans-serif" font-size="20" font-weight="bold" lengthAdjust="spacing" textLength="11" x="1011.5" y="644.5586">9</text><text fill="#000000" font-family="sans-serif" font-size="20" lengthAdjust="spacing" textLength="212" x="1026.5" y="644.5586">ofIdentity(jobReference)</text><polygon fill="#181818" points="1015.5,686.1094,1005.5,690.1094,1015.5,694.1094,1011.5,690.1094" style="stroke:#181818;stroke-width:1.0;"/><line style="stroke:#181818;stroke-width:1.0;stroke-dasharray:2.0,2.0;" x1="1009.5" x2="1689" y1="690.1094" y2="690.1094"/><text fill="#000000" font-family="sans-serif" font-size="20" font-weight="bold" lengthAdjust="spacing" textLength="22" x="1021.5" y="683.7148">10</text><text fill="#000000" font-family="sans-serif" font-size="20" lengthAdjust="spacing" textLength="99" x="1047.5" y="683.7148">jobOpening</text><line style="stroke:#181818;stroke-width:1.0;" x1="1004.5" x2="1051.5" y1="724.2656" y2="724.2656"/><line style="stroke:#181818;stroke-width:1.0;" x1="1051.5" x2="1051.5" y1="724.2656" y2="737.2656"/><line style="stroke:#181818;stroke-width:1.0;" x1="1010.5" x2="1051.5" y1="737.2656" y2="737.2656"/><polygon fill="#181818" points="1020.5,733.2656,1010.5,737.2656,1020.5,741.2656,1016.5,737.2656" style="stroke:#181818;stroke-width:1.0;"/><text fill="#000000" font-family="sans-serif" font-size="20" font-weight="bold" lengthAdjust="spacing" textLength="22" x="1016.5" y="717.8711">11</text><text fill="#000000" font-family="sans-serif" font-size="20" lengthAdjust="spacing" textLength="426" x="1042.5" y="717.8711">verifyRequirementsOfApplications(jobReference)</text><polygon fill="#181818" points="1890,777.4219,1900,781.4219,1890,785.4219,1894,781.4219" style="stroke:#181818;stroke-width:1.0;"/><line style="stroke:#181818;stroke-width:1.0;" x1="1009.5" x2="1896" y1="781.4219" y2="781.4219"/><text fill="#000000" font-family="sans-serif" font-size="20" font-weight="bold" lengthAdjust="spacing" textLength="22" x="1016.5" y="775.0273">12</text><text fill="#000000" font-family="sans-serif" font-size="20" lengthAdjust="spacing" textLength="529" x="1042.5" y="775.0273">applicationsForJobOpeningWithRequirements(jobReference)</text><polygon fill="#181818" points="1020.5,816.5781,1010.5,820.5781,1020.5,824.5781,1016.5,820.5781" style="stroke:#181818;stroke-width:1.0;"/><line style="stroke:#181818;stroke-width:1.0;stroke-dasharray:2.0,2.0;" x1="1014.5" x2="1906" y1="820.5781" y2="820.5781"/><text fill="#000000" font-family="sans-serif" font-size="20" font-weight="bold" lengthAdjust="spacing" textLength="22" x="1026.5" y="814.1836">13</text><text fill="#000000" font-family="sans-serif" font-size="20" lengthAdjust="spacing" textLength="103" x="1052.5" y="814.1836">applications</text><path d="M856,835.5781 L942,835.5781 L942,852.7344 L932,862.7344 L856,862.7344 L856,835.5781 " fill="#EEEEEE" style="stroke:#000000;stroke-width:1.5;"/><rect fill="none" height="253.9375" style="stroke:#000000;stroke-width:1.5;" width="1591" x="856" y="835.5781"/><text fill="#000000" font-family="sans-serif" font-size="20" font-weight="bold" lengthAdjust="spacing" textLength="41" x="871" y="857.3398">loop</text><text fill="#000000" font-family="sans-serif" font-size="20" font-weight="bold" lengthAdjust="spacing" textLength="201" x="957" y="858.3398">[for each application]</text><polygon fill="#181818" points="2148,900.0469,2158,904.0469,2148,908.0469,2152,904.0469" style="stroke:#181818;stroke-width:1.0;"/><line style="stroke:#181818;stroke-width:1.0;" x1="1009.5" x2="2154" y1="904.0469" y2="904.0469"/><text fill="#000000" font-family="sans-serif" font-size="20" font-weight="bold" lengthAdjust="spacing" textLength="22" x="1016.5" y="897.6523">14</text><text fill="#000000" font-family="sans-serif" font-size="20" lengthAdjust="spacing" textLength="409" x="1042.5" y="897.6523">evaluateRequirementsFile(requirementAnswer)</text><polygon fill="#181818" points="1020.5,939.2031,1010.5,943.2031,1020.5,947.2031,1016.5,943.2031" style="stroke:#181818;stroke-width:1.0;"/><line style="stroke:#181818;stroke-width:1.0;stroke-dasharray:2.0,2.0;" x1="1014.5" x2="2164" y1="943.2031" y2="943.2031"/><text fill="#000000" font-family="sans-serif" font-size="20" font-weight="bold" lengthAdjust="spacing" textLength="22" x="1026.5" y="936.8086">15</text><text fill="#000000" font-family="sans-serif" font-size="20" lengthAdjust="spacing" textLength="48" x="1052.5" y="936.8086">result</text><polygon fill="#181818" points="2362.5,978.3594,2372.5,982.3594,2362.5,986.3594,2366.5,982.3594" style="stroke:#181818;stroke-width:1.0;"/><line style="stroke:#181818;stroke-width:1.0;" x1="1009.5" x2="2368.5" y1="982.3594" y2="982.3594"/><text fill="#000000" font-family="sans-serif" font-size="20" font-weight="bold" lengthAdjust="spacing" textLength="22" x="1016.5" y="975.9648">16</text><text fill="#000000" font-family="sans-serif" font-size="20" lengthAdjust="spacing" textLength="288" x="1042.5" y="975.9648">updateRequirementResult(result)</text><polygon fill="#181818" points="1890,1047.5156,1900,1051.5156,1890,1055.5156,1894,1051.5156" style="stroke:#181818;stroke-width:1.0;"/><line style="stroke:#181818;stroke-width:1.0;" x1="1009.5" x2="1896" y1="1051.5156" y2="1051.5156"/><text fill="#000000" font-family="sans-serif" font-size="20" font-weight="bold" lengthAdjust="spacing" textLength="22" x="1016.5" y="1045.1211">17</text><text fill="#000000" font-family="sans-serif" font-size="20" lengthAdjust="spacing" textLength="148" x="1042.5" y="1045.1211">save(application)</text><line style="stroke:#181818;stroke-width:1.0;stroke-dasharray:2.0,2.0;" x1="1009.5" x2="1051.5" y1="1132.6719" y2="1132.6719"/><line style="stroke:#181818;stroke-width:1.0;stroke-dasharray:2.0,2.0;" x1="1051.5" x2="1051.5" y1="1132.6719" y2="1145.6719"/><line style="stroke:#181818;stroke-width:1.0;stroke-dasharray:2.0,2.0;" x1="1004.5" x2="1051.5" y1="1145.6719" y2="1145.6719"/><polygon fill="#181818" points="1014.5,1141.6719,1004.5,1145.6719,1014.5,1149.6719,1010.5,1145.6719" style="stroke:#181818;stroke-width:1.0;"/><text fill="#000000" font-family="sans-serif" font-size="20" font-weight="bold" lengthAdjust="spacing" textLength="22" x="1016.5" y="1126.2773">18</text><text fill="#000000" font-family="sans-serif" font-size="20" lengthAdjust="spacing" textLength="6" x="1042.5" y="1126.2773"> </text><polygon fill="#181818" points="581.5,1175.8281,571.5,1179.8281,581.5,1183.8281,577.5,1179.8281" style="stroke:#181818;stroke-width:1.0;"/><line style="stroke:#181818;stroke-width:1.0;stroke-dasharray:2.0,2.0;" x1="575.5" x2="998.5" y1="1179.8281" y2="1179.8281"/><text fill="#000000" font-family="sans-serif" font-size="20" font-weight="bold" lengthAdjust="spacing" textLength="22" x="587.5" y="1173.4336">19</text><text fill="#000000" font-family="sans-serif" font-size="20" lengthAdjust="spacing" textLength="71" x="613.5" y="1173.4336">success</text><polygon fill="#181818" points="103.5,1214.9844,93.5,1218.9844,103.5,1222.9844,99.5,1218.9844" style="stroke:#181818;stroke-width:1.0;"/><line style="stroke:#181818;stroke-width:1.0;stroke-dasharray:2.0,2.0;" x1="97.5" x2="559.5" y1="1218.9844" y2="1218.9844"/><text fill="#000000" font-family="sans-serif" font-size="20" font-weight="bold" lengthAdjust="spacing" textLength="22" x="109.5" y="1212.5898">20</text><text fill="#000000" font-family="sans-serif" font-size="20" lengthAdjust="spacing" textLength="148" x="135.5" y="1212.5898">displays success</text><!--SRC=[XLNlQzim4Ftkl-BebwM6hErWNqm9cBIbAHqfJhF1nXYAVKxKE98doHdfNx-JVyIIrtJv45BfxjrxxtHNlUMYP8hj2fbkCOCCSrOLvauAi-2l29ykWmyROqeTNLoK1HEcsXKVKxcxqFYxGf7YEEDiJVb1OBWf49QBgykhpp26HHi0Drq0gumKrMw5YdwdHYeucrRQo1qg-C84MwCw0wO9uZO9Y9JXAI-f99n5Nr7n_90G95UuGs6MioPq1jVNfK9DHynmAIQJ_sLEIPgIHT4McpudZuJ1ohBWwTiGSMKsKl7N-dQ1QizJh7FZvVFzTqhMpHabPiom5TD8MGzoDIzHSB5Ei9IQazv3dVKm_vNSFiqfJnql_DIu9pF8ZTzCzUawMXSbfZnlePwAQir53PCidWY32uCgPpNnWUAUG5EMeZEvOzoQKpUFxvd1fbE1_ORnn3OZekYj1YDXN_iEgYUZGURW-AmTd1cXp2o6RKSOHf0gf0ltbB3NQ7fN7xase_CUmyO4WS8S9DLk_Wp37tHmzJCAGvXkCDr260uVxfXGnozoDPODhWx3W0im6uHS5Xb1XQ51Yil8IsrvKm2AZAJbGL0p6zVY8tZnoDqypuCC1_oi7XjjBOiWuvg6wg3hQfGD7GTWLA2pKcE1gG4fqCMpdldMDt7Q1V8j1lhqXaPjZ-8zumLR5UWy73tgjTmOULwd3gJOeqR-f9c42025hXJQWI4GssVCbZGTzqp7uZ3FHpHug0TeTMvzvAXh3hqQxTn4z8nccOKt1yiomHoLRUW0jWrlCBgP6n-rz_g6fRt4hdZx0lV3RQBdkJCi-Zr2lMkUSwqeTp3kfEhV-JTkDiFE34huTZRik_DuADoRm2xATTvHRp-5b2LDWW8AsRZPnmXF3wsM273FYeh0NDvtlC2HimvYeV-WElTHZYm89l2lxCxgLT3AftzJVeGZuj_qezyHL6NcSqjgi563UOfHVB9OVAfKsrhDzZXoZ3jPmU_SYSPqDtO5sTwuxxIpP_YacwVdxIfTfIbg_Uw6SXPK5-vje7hx_mK0]--></g></svg>