<?xml version="1.0" encoding="UTF-8" standalone="no"?><svg xmlns="http://www.w3.org/2000/svg" xmlns:xlink="http://www.w3.org/1999/xlink" contentStyleType="text/css" height="2252px" preserveAspectRatio="none" style="width:3278px;height:2252px;background:#FFFFFF;" version="1.1" viewBox="0 0 3278 2252" width="3278px" zoomAndPan="magnify"><defs/><g><text fill="#000000" font-family="sans-serif" font-size="14" font-weight="bold" lengthAdjust="spacing" textLength="241" x="1517.5" y="29.5332">[US1002 - Sequence Diagram Split]</text><rect fill="#FFFFFF" height="1972.7188" style="stroke:#181818;stroke-width:1.0;" width="10" x="109" y="149.9219"/><rect fill="#FFFFFF" height="30" style="stroke:#181818;stroke-width:1.0;" width="10" x="641" y="181.0781"/><rect fill="#FFFFFF" height="373.25" style="stroke:#181818;stroke-width:1.0;" width="10" x="641" y="250.2344"/><rect fill="#FFFFFF" height="225.7813" style="stroke:#181818;stroke-width:1.0;" width="10" x="641" y="714.7969"/><rect fill="#FFFFFF" height="379.25" style="stroke:#181818;stroke-width:1.0;" width="10" x="641" y="1031.8906"/><rect fill="#FFFFFF" height="569.875" style="stroke:#181818;stroke-width:1.0;" width="10" x="641" y="1552.7656"/><rect fill="#FFFFFF" height="39.1563" style="stroke:#181818;stroke-width:1.0;" width="10" x="1231" y="289.3906"/><rect fill="#FFFFFF" height="69.1563" style="stroke:#181818;stroke-width:1.0;" width="10" x="1427" y="328.5469"/><rect fill="#FFFFFF" height="69.1563" style="stroke:#181818;stroke-width:1.0;" width="10" x="1427" y="1071.0469"/><rect fill="#FFFFFF" height="84.7344" style="stroke:#181818;stroke-width:1.0;" width="10" x="1427" y="1194.9375"/><rect fill="#FFFFFF" height="30" style="stroke:#181818;stroke-width:1.0;" width="10" x="1634" y="367.7031"/><rect fill="#FFFFFF" height="30" style="stroke:#181818;stroke-width:1.0;" width="10" x="1634" y="436.8594"/><rect fill="#FFFFFF" height="30" style="stroke:#181818;stroke-width:1.0;" width="10" x="1634" y="753.9531"/><rect fill="#FFFFFF" height="30" style="stroke:#181818;stroke-width:1.0;" width="10" x="1634" y="1607.5"/><rect fill="#FFFFFF" height="30" style="stroke:#181818;stroke-width:1.0;" width="10" x="1634" y="2078.6406"/><rect fill="#FFFFFF" height="30" style="stroke:#181818;stroke-width:1.0;" width="10" x="1846" y="1110.2031"/><rect fill="#FFFFFF" height="30" style="stroke:#181818;stroke-width:1.0;" width="10" x="2126.5" y="1249.6719"/><rect fill="#FFFFFF" height="94.3125" style="stroke:#181818;stroke-width:1.0;" width="10" x="2391" y="1761.3906"/><rect fill="#FFFFFF" height="30" style="stroke:#181818;stroke-width:1.0;" width="10" x="2633" y="1825.7031"/><rect fill="#FFFFFF" height="30" style="stroke:#181818;stroke-width:1.0;" width="10" x="2788.5" y="1692.2344"/><rect fill="#FFFFFF" height="144.625" style="stroke:#181818;stroke-width:1.0;" width="10" x="2788.5" y="1894.8594"/><rect fill="#FFFFFF" height="30" style="stroke:#181818;stroke-width:1.0;" width="10" x="3204.5" y="2009.4844"/><line style="stroke:#181818;stroke-width:0.5;stroke-dasharray:5.0,5.0;" x1="114" x2="114" y1="139.9219" y2="2140.6406"/><line style="stroke:#181818;stroke-width:0.5;stroke-dasharray:5.0,5.0;" x1="646" x2="646" y1="139.9219" y2="2140.6406"/><line style="stroke:#181818;stroke-width:0.5;stroke-dasharray:5.0,5.0;" x1="1236" x2="1236" y1="139.9219" y2="2140.6406"/><line style="stroke:#181818;stroke-width:0.5;stroke-dasharray:5.0,5.0;" x1="1432" x2="1432" y1="139.9219" y2="2140.6406"/><line style="stroke:#181818;stroke-width:0.5;stroke-dasharray:5.0,5.0;" x1="1639" x2="1639" y1="139.9219" y2="2140.6406"/><line style="stroke:#181818;stroke-width:0.5;stroke-dasharray:5.0,5.0;" x1="1851" x2="1851" y1="139.9219" y2="2140.6406"/><line style="stroke:#181818;stroke-width:0.5;stroke-dasharray:5.0,5.0;" x1="2131" x2="2131" y1="139.9219" y2="2140.6406"/><line style="stroke:#181818;stroke-width:0.5;stroke-dasharray:5.0,5.0;" x1="2396" x2="2396" y1="139.9219" y2="2140.6406"/><line style="stroke:#181818;stroke-width:0.5;stroke-dasharray:5.0,5.0;" x1="2637.5" x2="2637.5" y1="139.9219" y2="2140.6406"/><line style="stroke:#181818;stroke-width:0.5;stroke-dasharray:5.0,5.0;" x1="2793.5" x2="2793.5" y1="139.9219" y2="2140.6406"/><line style="stroke:#181818;stroke-width:0.5;stroke-dasharray:5.0,5.0;" x1="3209" x2="3209" y1="139.9219" y2="2140.6406"/><rect fill="#E2E2F0" height="64.3125" rx="2.5" ry="2.5" style="stroke:#181818;stroke-width:0.5;" width="218" x="5" y="74.6094"/><text fill="#000000" font-family="sans-serif" font-size="20" lengthAdjust="spacing" textLength="130" x="49" y="102.3711">«presentation»</text><text fill="#000000" font-family="sans-serif" font-size="20" lengthAdjust="spacing" textLength="204" x="12" y="127.5273">:RegisterJobOpeningUI</text><rect fill="#E2E2F0" height="64.3125" rx="2.5" ry="2.5" style="stroke:#181818;stroke-width:0.5;" width="218" x="5" y="2139.6406"/><text fill="#000000" font-family="sans-serif" font-size="20" lengthAdjust="spacing" textLength="130" x="49" y="2167.4023">«presentation»</text><text fill="#000000" font-family="sans-serif" font-size="20" lengthAdjust="spacing" textLength="204" x="12" y="2192.5586">:RegisterJobOpeningUI</text><text fill="#000000" font-family="sans-serif" font-size="20" lengthAdjust="spacing" textLength="115" x="585.5" y="110.3711">«application»</text><text fill="#000000" font-family="sans-serif" font-size="20" lengthAdjust="spacing" textLength="270" x="508" y="135.5273">:RegisterJobOpeningController</text><ellipse cx="646" cy="73.6094" fill="#E2E2F0" rx="12" ry="12" style="stroke:#181818;stroke-width:0.5;"/><polygon fill="#181818" points="642,61.6094,648,56.6094,646,61.6094,648,66.6094,642,61.6094" style="stroke:#181818;stroke-width:1.0;"/><text fill="#000000" font-family="sans-serif" font-size="20" lengthAdjust="spacing" textLength="115" x="585.5" y="2160.4023">«application»</text><text fill="#000000" font-family="sans-serif" font-size="20" lengthAdjust="spacing" textLength="270" x="508" y="2185.5586">:RegisterJobOpeningController</text><ellipse cx="646" cy="2205.9531" fill="#E2E2F0" rx="12" ry="12" style="stroke:#181818;stroke-width:0.5;"/><polygon fill="#181818" points="642,2193.9531,648,2188.9531,646,2193.9531,648,2198.9531,642,2193.9531" style="stroke:#181818;stroke-width:1.0;"/><rect fill="#E2E2F0" height="64.3125" rx="2.5" ry="2.5" style="stroke:#181818;stroke-width:0.5;" width="190" x="1141" y="74.6094"/><text fill="#000000" font-family="sans-serif" font-size="20" lengthAdjust="spacing" textLength="123" x="1174.5" y="102.3711">«persistence»</text><text fill="#000000" font-family="sans-serif" font-size="20" lengthAdjust="spacing" textLength="176" x="1148" y="127.5273">:PersistenceContext</text><rect fill="#E2E2F0" height="64.3125" rx="2.5" ry="2.5" style="stroke:#181818;stroke-width:0.5;" width="190" x="1141" y="2139.6406"/><text fill="#000000" font-family="sans-serif" font-size="20" lengthAdjust="spacing" textLength="123" x="1174.5" y="2167.4023">«persistence»</text><text fill="#000000" font-family="sans-serif" font-size="20" lengthAdjust="spacing" textLength="176" x="1148" y="2192.5586">:PersistenceContext</text><rect fill="#E2E2F0" height="64.3125" rx="2.5" ry="2.5" style="stroke:#181818;stroke-width:0.5;" width="182" x="1341" y="74.6094"/><text fill="#000000" font-family="sans-serif" font-size="20" lengthAdjust="spacing" textLength="83" x="1390.5" y="102.3711">«factory»</text><text fill="#000000" font-family="sans-serif" font-size="20" lengthAdjust="spacing" textLength="168" x="1348" y="127.5273">:RepositoryFactory</text><rect fill="#E2E2F0" height="64.3125" rx="2.5" ry="2.5" style="stroke:#181818;stroke-width:0.5;" width="182" x="1341" y="2139.6406"/><text fill="#000000" font-family="sans-serif" font-size="20" lengthAdjust="spacing" textLength="83" x="1390.5" y="2167.4023">«factory»</text><text fill="#000000" font-family="sans-serif" font-size="20" lengthAdjust="spacing" textLength="168" x="1348" y="2192.5586">:RepositoryFactory</text><text fill="#000000" font-family="sans-serif" font-size="20" lengthAdjust="spacing" textLength="110" x="1581" y="110.3711">«repository»</text><text fill="#000000" font-family="sans-serif" font-size="20" lengthAdjust="spacing" textLength="206" x="1533" y="135.5273">:JobOpeningRepository</text><path d="M1621,53.6094 C1621,43.6094 1639,43.6094 1639,43.6094 C1639,43.6094 1657,43.6094 1657,53.6094 L1657,79.6094 C1657,89.6094 1639,89.6094 1639,89.6094 C1639,89.6094 1621,89.6094 1621,79.6094 L1621,53.6094 " fill="#E2E2F0" style="stroke:#181818;stroke-width:1.5;"/><path d="M1621,53.6094 C1621,63.6094 1639,63.6094 1639,63.6094 C1639,63.6094 1657,63.6094 1657,53.6094 " fill="none" style="stroke:#181818;stroke-width:1.5;"/><text fill="#000000" font-family="sans-serif" font-size="20" lengthAdjust="spacing" textLength="110" x="1581" y="2160.4023">«repository»</text><text fill="#000000" font-family="sans-serif" font-size="20" lengthAdjust="spacing" textLength="206" x="1533" y="2185.5586">:JobOpeningRepository</text><path d="M1621,2199.9531 C1621,2189.9531 1639,2189.9531 1639,2189.9531 C1639,2189.9531 1657,2189.9531 1657,2199.9531 L1657,2225.9531 C1657,2235.9531 1639,2235.9531 1639,2235.9531 C1639,2235.9531 1621,2235.9531 1621,2225.9531 L1621,2199.9531 " fill="#E2E2F0" style="stroke:#181818;stroke-width:1.5;"/><path d="M1621,2199.9531 C1621,2209.9531 1639,2209.9531 1639,2209.9531 C1639,2209.9531 1657,2209.9531 1657,2199.9531 " fill="none" style="stroke:#181818;stroke-width:1.5;"/><text fill="#000000" font-family="sans-serif" font-size="20" lengthAdjust="spacing" textLength="110" x="1793" y="110.3711">«repository»</text><text fill="#000000" font-family="sans-serif" font-size="20" lengthAdjust="spacing" textLength="186" x="1755" y="135.5273">:CostumerRepository</text><path d="M1833,53.6094 C1833,43.6094 1851,43.6094 1851,43.6094 C1851,43.6094 1869,43.6094 1869,53.6094 L1869,79.6094 C1869,89.6094 1851,89.6094 1851,89.6094 C1851,89.6094 1833,89.6094 1833,79.6094 L1833,53.6094 " fill="#E2E2F0" style="stroke:#181818;stroke-width:1.5;"/><path d="M1833,53.6094 C1833,63.6094 1851,63.6094 1851,63.6094 C1851,63.6094 1869,63.6094 1869,53.6094 " fill="none" style="stroke:#181818;stroke-width:1.5;"/><text fill="#000000" font-family="sans-serif" font-size="20" lengthAdjust="spacing" textLength="110" x="1793" y="2160.4023">«repository»</text><text fill="#000000" font-family="sans-serif" font-size="20" lengthAdjust="spacing" textLength="186" x="1755" y="2185.5586">:CostumerRepository</text><path d="M1833,2199.9531 C1833,2189.9531 1851,2189.9531 1851,2189.9531 C1851,2189.9531 1869,2189.9531 1869,2199.9531 L1869,2225.9531 C1869,2235.9531 1851,2235.9531 1851,2235.9531 C1851,2235.9531 1833,2235.9531 1833,2225.9531 L1833,2199.9531 " fill="#E2E2F0" style="stroke:#181818;stroke-width:1.5;"/><path d="M1833,2199.9531 C1833,2209.9531 1851,2209.9531 1851,2209.9531 C1851,2209.9531 1869,2209.9531 1869,2199.9531 " fill="none" style="stroke:#181818;stroke-width:1.5;"/><text fill="#000000" font-family="sans-serif" font-size="20" lengthAdjust="spacing" textLength="110" x="2073.5" y="110.3711">«repository»</text><text fill="#000000" font-family="sans-serif" font-size="20" lengthAdjust="spacing" textLength="343" x="1957" y="135.5273">:RequirementsSpecificationsRepository</text><path d="M2113.5,53.6094 C2113.5,43.6094 2131.5,43.6094 2131.5,43.6094 C2131.5,43.6094 2149.5,43.6094 2149.5,53.6094 L2149.5,79.6094 C2149.5,89.6094 2131.5,89.6094 2131.5,89.6094 C2131.5,89.6094 2113.5,89.6094 2113.5,79.6094 L2113.5,53.6094 " fill="#E2E2F0" style="stroke:#181818;stroke-width:1.5;"/><path d="M2113.5,53.6094 C2113.5,63.6094 2131.5,63.6094 2131.5,63.6094 C2131.5,63.6094 2149.5,63.6094 2149.5,53.6094 " fill="none" style="stroke:#181818;stroke-width:1.5;"/><text fill="#000000" font-family="sans-serif" font-size="20" lengthAdjust="spacing" textLength="110" x="2073.5" y="2160.4023">«repository»</text><text fill="#000000" font-family="sans-serif" font-size="20" lengthAdjust="spacing" textLength="343" x="1957" y="2185.5586">:RequirementsSpecificationsRepository</text><path d="M2113.5,2199.9531 C2113.5,2189.9531 2131.5,2189.9531 2131.5,2189.9531 C2131.5,2189.9531 2149.5,2189.9531 2149.5,2199.9531 L2149.5,2225.9531 C2149.5,2235.9531 2131.5,2235.9531 2131.5,2235.9531 C2131.5,2235.9531 2113.5,2235.9531 2113.5,2225.9531 L2113.5,2199.9531 " fill="#E2E2F0" style="stroke:#181818;stroke-width:1.5;"/><path d="M2113.5,2199.9531 C2113.5,2209.9531 2131.5,2209.9531 2131.5,2209.9531 C2131.5,2209.9531 2149.5,2209.9531 2149.5,2199.9531 " fill="none" style="stroke:#181818;stroke-width:1.5;"/><rect fill="#E2E2F0" height="64.3125" rx="2.5" ry="2.5" style="stroke:#181818;stroke-width:0.5;" width="160" x="2316" y="74.6094"/><text fill="#000000" font-family="sans-serif" font-size="20" lengthAdjust="spacing" textLength="83" x="2354.5" y="102.3711">«factory»</text><text fill="#000000" font-family="sans-serif" font-size="20" lengthAdjust="spacing" textLength="146" x="2323" y="127.5273">:AddressFactory</text><rect fill="#E2E2F0" height="64.3125" rx="2.5" ry="2.5" style="stroke:#181818;stroke-width:0.5;" width="160" x="2316" y="2139.6406"/><text fill="#000000" font-family="sans-serif" font-size="20" lengthAdjust="spacing" textLength="83" x="2354.5" y="2167.4023">«factory»</text><text fill="#000000" font-family="sans-serif" font-size="20" lengthAdjust="spacing" textLength="146" x="2323" y="2192.5586">:AddressFactory</text><rect fill="#E2E2F0" height="64.3125" rx="2.5" ry="2.5" style="stroke:#181818;stroke-width:0.5;" width="99" x="2588.5" y="74.6094"/><text fill="#000000" font-family="sans-serif" font-size="20" lengthAdjust="spacing" textLength="85" x="2595.5" y="102.3711">«domain»</text><text fill="#000000" font-family="sans-serif" font-size="20" lengthAdjust="spacing" textLength="79" x="2598.5" y="127.5273">:Address</text><rect fill="#E2E2F0" height="64.3125" rx="2.5" ry="2.5" style="stroke:#181818;stroke-width:0.5;" width="99" x="2588.5" y="2139.6406"/><text fill="#000000" font-family="sans-serif" font-size="20" lengthAdjust="spacing" textLength="85" x="2595.5" y="2167.4023">«domain»</text><text fill="#000000" font-family="sans-serif" font-size="20" lengthAdjust="spacing" textLength="79" x="2598.5" y="2192.5586">:Address</text><rect fill="#E2E2F0" height="64.3125" rx="2.5" ry="2.5" style="stroke:#181818;stroke-width:0.5;" width="192" x="2697.5" y="74.6094"/><text fill="#000000" font-family="sans-serif" font-size="20" lengthAdjust="spacing" textLength="83" x="2752" y="102.3711">«factory»</text><text fill="#000000" font-family="sans-serif" font-size="20" lengthAdjust="spacing" textLength="178" x="2704.5" y="127.5273">:JobOpeningFactory</text><rect fill="#E2E2F0" height="64.3125" rx="2.5" ry="2.5" style="stroke:#181818;stroke-width:0.5;" width="192" x="2697.5" y="2139.6406"/><text fill="#000000" font-family="sans-serif" font-size="20" lengthAdjust="spacing" textLength="83" x="2752" y="2167.4023">«factory»</text><text fill="#000000" font-family="sans-serif" font-size="20" lengthAdjust="spacing" textLength="178" x="2704.5" y="2192.5586">:JobOpeningFactory</text><rect fill="#E2E2F0" height="89.4688" rx="2.5" ry="2.5" style="stroke:#181818;stroke-width:0.5;" width="125" x="3147" y="49.4531"/><text fill="#000000" font-family="sans-serif" font-size="20" lengthAdjust="spacing" textLength="85" x="3167" y="77.2148">«domain»</text><text fill="#000000" font-family="sans-serif" font-size="20" lengthAdjust="spacing" textLength="71" x="3174" y="102.3711">«Entity»</text><text fill="#000000" font-family="sans-serif" font-size="20" lengthAdjust="spacing" textLength="111" x="3154" y="127.5273">:JobOpening</text><rect fill="#E2E2F0" height="89.4688" rx="2.5" ry="2.5" style="stroke:#181818;stroke-width:0.5;" width="125" x="3147" y="2139.6406"/><text fill="#000000" font-family="sans-serif" font-size="20" lengthAdjust="spacing" textLength="85" x="3167" y="2167.4023">«domain»</text><text fill="#000000" font-family="sans-serif" font-size="20" lengthAdjust="spacing" textLength="71" x="3174" y="2192.5586">«Entity»</text><text fill="#000000" font-family="sans-serif" font-size="20" lengthAdjust="spacing" textLength="111" x="3154" y="2217.7148">:JobOpening</text><rect fill="#FFFFFF" height="1972.7188" style="stroke:#181818;stroke-width:1.0;" width="10" x="109" y="149.9219"/><rect fill="#FFFFFF" height="30" style="stroke:#181818;stroke-width:1.0;" width="10" x="641" y="181.0781"/><rect fill="#FFFFFF" height="373.25" style="stroke:#181818;stroke-width:1.0;" width="10" x="641" y="250.2344"/><rect fill="#FFFFFF" height="225.7813" style="stroke:#181818;stroke-width:1.0;" width="10" x="641" y="714.7969"/><rect fill="#FFFFFF" height="379.25" style="stroke:#181818;stroke-width:1.0;" width="10" x="641" y="1031.8906"/><rect fill="#FFFFFF" height="569.875" style="stroke:#181818;stroke-width:1.0;" width="10" x="641" y="1552.7656"/><rect fill="#FFFFFF" height="39.1563" style="stroke:#181818;stroke-width:1.0;" width="10" x="1231" y="289.3906"/><rect fill="#FFFFFF" height="69.1563" style="stroke:#181818;stroke-width:1.0;" width="10" x="1427" y="328.5469"/><rect fill="#FFFFFF" height="69.1563" style="stroke:#181818;stroke-width:1.0;" width="10" x="1427" y="1071.0469"/><rect fill="#FFFFFF" height="84.7344" style="stroke:#181818;stroke-width:1.0;" width="10" x="1427" y="1194.9375"/><rect fill="#FFFFFF" height="30" style="stroke:#181818;stroke-width:1.0;" width="10" x="1634" y="367.7031"/><rect fill="#FFFFFF" height="30" style="stroke:#181818;stroke-width:1.0;" width="10" x="1634" y="436.8594"/><rect fill="#FFFFFF" height="30" style="stroke:#181818;stroke-width:1.0;" width="10" x="1634" y="753.9531"/><rect fill="#FFFFFF" height="30" style="stroke:#181818;stroke-width:1.0;" width="10" x="1634" y="1607.5"/><rect fill="#FFFFFF" height="30" style="stroke:#181818;stroke-width:1.0;" width="10" x="1634" y="2078.6406"/><rect fill="#FFFFFF" height="30" style="stroke:#181818;stroke-width:1.0;" width="10" x="1846" y="1110.2031"/><rect fill="#FFFFFF" height="30" style="stroke:#181818;stroke-width:1.0;" width="10" x="2126.5" y="1249.6719"/><rect fill="#FFFFFF" height="94.3125" style="stroke:#181818;stroke-width:1.0;" width="10" x="2391" y="1761.3906"/><rect fill="#FFFFFF" height="30" style="stroke:#181818;stroke-width:1.0;" width="10" x="2633" y="1825.7031"/><rect fill="#FFFFFF" height="30" style="stroke:#181818;stroke-width:1.0;" width="10" x="2788.5" y="1692.2344"/><rect fill="#FFFFFF" height="144.625" style="stroke:#181818;stroke-width:1.0;" width="10" x="2788.5" y="1894.8594"/><rect fill="#FFFFFF" height="30" style="stroke:#181818;stroke-width:1.0;" width="10" x="3204.5" y="2009.4844"/><polygon fill="#181818" points="629,177.0781,639,181.0781,629,185.0781,633,181.0781" style="stroke:#181818;stroke-width:1.0;"/><line style="stroke:#181818;stroke-width:1.0;" x1="119" x2="635" y1="181.0781" y2="181.0781"/><text fill="#000000" font-family="sans-serif" font-size="20" lengthAdjust="spacing" textLength="70" x="126" y="174.6836">create()</text><polygon fill="#181818" points="629,246.2344,639,250.2344,629,254.2344,633,250.2344" style="stroke:#181818;stroke-width:1.0;"/><line style="stroke:#181818;stroke-width:1.0;" x1="119" x2="635" y1="250.2344" y2="250.2344"/><text fill="#000000" font-family="sans-serif" font-size="20" lengthAdjust="spacing" textLength="307" x="126" y="243.8398">getJobOpeningContractTypesList()</text><polygon fill="#181818" points="1219,285.3906,1229,289.3906,1219,293.3906,1223,289.3906" style="stroke:#181818;stroke-width:1.0;"/><line style="stroke:#181818;stroke-width:1.0;" x1="651" x2="1225" y1="289.3906" y2="289.3906"/><text fill="#000000" font-family="sans-serif" font-size="20" lengthAdjust="spacing" textLength="70" x="658" y="282.9961">create()</text><polygon fill="#181818" points="1415,324.5469,1425,328.5469,1415,332.5469,1419,328.5469" style="stroke:#181818;stroke-width:1.0;"/><line style="stroke:#181818;stroke-width:1.0;stroke-dasharray:2.0,2.0;" x1="1236" x2="1421" y1="328.5469" y2="328.5469"/><text fill="#000000" font-family="sans-serif" font-size="20" lengthAdjust="spacing" textLength="70" x="1243" y="322.1523">create()</text><polygon fill="#181818" points="1622,363.7031,1632,367.7031,1622,371.7031,1626,367.7031" style="stroke:#181818;stroke-width:1.0;"/><line style="stroke:#181818;stroke-width:1.0;" x1="1437" x2="1628" y1="367.7031" y2="367.7031"/><text fill="#000000" font-family="sans-serif" font-size="20" lengthAdjust="spacing" textLength="70" x="1444" y="361.3086">create()</text><polygon fill="#181818" points="1622,432.8594,1632,436.8594,1622,440.8594,1626,436.8594" style="stroke:#181818;stroke-width:1.0;"/><line style="stroke:#181818;stroke-width:1.0;" x1="651" x2="1628" y1="436.8594" y2="436.8594"/><text fill="#000000" font-family="sans-serif" font-size="20" lengthAdjust="spacing" textLength="171" x="658" y="430.4648">getContractTypes()</text><line style="stroke:#181818;stroke-width:1.0;" x1="651" x2="693" y1="506.0156" y2="506.0156"/><line style="stroke:#181818;stroke-width:1.0;" x1="693" x2="693" y1="506.0156" y2="519.0156"/><line style="stroke:#181818;stroke-width:1.0;" x1="652" x2="693" y1="519.0156" y2="519.0156"/><polygon fill="#181818" points="662,515.0156,652,519.0156,662,523.0156,658,519.0156" style="stroke:#181818;stroke-width:1.0;"/><text fill="#000000" font-family="sans-serif" font-size="20" lengthAdjust="spacing" textLength="327" x="658" y="499.6211">toDTO(className, contractTypeList)</text><rect fill="none" height="60.3125" style="stroke:#000000;stroke-width:1.5;" width="287" x="505" y="527.0156"/><path d="M505,527.0156 L576,527.0156 L576,544.0156 L566,554.0156 L505,554.0156 L505,527.0156 " fill="#EEEEEE" style="stroke:#000000;stroke-width:2.0;"/><text fill="#000000" font-family="sans-serif" font-size="20" font-weight="bold" lengthAdjust="spacing" textLength="26" x="518" y="549.7773">ref</text><text fill="#000000" font-family="sans-serif" font-size="20" lengthAdjust="spacing" textLength="279" x="509" y="578.7773">job opening attribute list to DTO</text><polygon fill="#181818" points="130,619.4844,120,623.4844,130,627.4844,126,623.4844" style="stroke:#181818;stroke-width:1.0;"/><line style="stroke:#181818;stroke-width:1.0;stroke-dasharray:2.0,2.0;" x1="124" x2="645" y1="623.4844" y2="623.4844"/><text fill="#000000" font-family="sans-serif" font-size="20" lengthAdjust="spacing" textLength="188" x="136" y="617.0898">contractTypeListDTO</text><line style="stroke:#181818;stroke-width:1.0;" x1="119" x2="161" y1="662.6406" y2="662.6406"/><line style="stroke:#181818;stroke-width:1.0;" x1="161" x2="161" y1="662.6406" y2="675.6406"/><line style="stroke:#181818;stroke-width:1.0;" x1="120" x2="161" y1="675.6406" y2="675.6406"/><polygon fill="#181818" points="130,671.6406,120,675.6406,130,679.6406,126,675.6406" style="stroke:#181818;stroke-width:1.0;"/><text fill="#000000" font-family="sans-serif" font-size="20" lengthAdjust="spacing" textLength="85" x="126" y="656.2461">doShow()</text><polygon fill="#181818" points="629,710.7969,639,714.7969,629,718.7969,633,714.7969" style="stroke:#181818;stroke-width:1.0;"/><line style="stroke:#181818;stroke-width:1.0;" x1="119" x2="635" y1="714.7969" y2="714.7969"/><text fill="#000000" font-family="sans-serif" font-size="20" lengthAdjust="spacing" textLength="285" x="126" y="708.4023">getJobOpeningWorkModesList()</text><polygon fill="#181818" points="1622,749.9531,1632,753.9531,1622,757.9531,1626,753.9531" style="stroke:#181818;stroke-width:1.0;"/><line style="stroke:#181818;stroke-width:1.0;" x1="651" x2="1628" y1="753.9531" y2="753.9531"/><text fill="#000000" font-family="sans-serif" font-size="20" lengthAdjust="spacing" textLength="149" x="658" y="747.5586">getWorkModes()</text><line style="stroke:#181818;stroke-width:1.0;" x1="651" x2="693" y1="823.1094" y2="823.1094"/><line style="stroke:#181818;stroke-width:1.0;" x1="693" x2="693" y1="823.1094" y2="836.1094"/><line style="stroke:#181818;stroke-width:1.0;" x1="652" x2="693" y1="836.1094" y2="836.1094"/><polygon fill="#181818" points="662,832.1094,652,836.1094,662,840.1094,658,836.1094" style="stroke:#181818;stroke-width:1.0;"/><text fill="#000000" font-family="sans-serif" font-size="20" lengthAdjust="spacing" textLength="305" x="658" y="816.7148">toDTO(className, workModeList)</text><rect fill="none" height="60.3125" style="stroke:#000000;stroke-width:1.5;" width="287" x="505" y="844.1094"/><path d="M505,844.1094 L576,844.1094 L576,861.1094 L566,871.1094 L505,871.1094 L505,844.1094 " fill="#EEEEEE" style="stroke:#000000;stroke-width:2.0;"/><text fill="#000000" font-family="sans-serif" font-size="20" font-weight="bold" lengthAdjust="spacing" textLength="26" x="518" y="866.8711">ref</text><text fill="#000000" font-family="sans-serif" font-size="20" lengthAdjust="spacing" textLength="279" x="509" y="895.8711">job opening attribute list to DTO</text><polygon fill="#181818" points="130,936.5781,120,940.5781,130,944.5781,126,940.5781" style="stroke:#181818;stroke-width:1.0;"/><line style="stroke:#181818;stroke-width:1.0;stroke-dasharray:2.0,2.0;" x1="124" x2="645" y1="940.5781" y2="940.5781"/><text fill="#000000" font-family="sans-serif" font-size="20" lengthAdjust="spacing" textLength="166" x="136" y="934.1836">workModeListDTO</text><line style="stroke:#181818;stroke-width:1.0;" x1="119" x2="161" y1="979.7344" y2="979.7344"/><line style="stroke:#181818;stroke-width:1.0;" x1="161" x2="161" y1="979.7344" y2="992.7344"/><line style="stroke:#181818;stroke-width:1.0;" x1="120" x2="161" y1="992.7344" y2="992.7344"/><polygon fill="#181818" points="130,988.7344,120,992.7344,130,996.7344,126,992.7344" style="stroke:#181818;stroke-width:1.0;"/><text fill="#000000" font-family="sans-serif" font-size="20" lengthAdjust="spacing" textLength="85" x="126" y="973.3398">doShow()</text><polygon fill="#181818" points="629,1027.8906,639,1031.8906,629,1035.8906,633,1031.8906" style="stroke:#181818;stroke-width:1.0;"/><line style="stroke:#181818;stroke-width:1.0;" x1="119" x2="635" y1="1031.8906" y2="1031.8906"/><text fill="#000000" font-family="sans-serif" font-size="20" lengthAdjust="spacing" textLength="420" x="126" y="1025.4961">getJobOpeningRequirementsSpecificationsList()</text><polygon fill="#181818" points="1415,1067.0469,1425,1071.0469,1415,1075.0469,1419,1071.0469" style="stroke:#181818;stroke-width:1.0;"/><line style="stroke:#181818;stroke-width:1.0;" x1="651" x2="1421" y1="1071.0469" y2="1071.0469"/><text fill="#000000" font-family="sans-serif" font-size="20" lengthAdjust="spacing" textLength="461" x="658" y="1064.6523">getCostumerCodeByCompanyName(companyName)</text><polygon fill="#181818" points="1834,1106.2031,1844,1110.2031,1834,1114.2031,1838,1110.2031" style="stroke:#181818;stroke-width:1.0;"/><line style="stroke:#181818;stroke-width:1.0;" x1="1437" x2="1840" y1="1110.2031" y2="1110.2031"/><text fill="#000000" font-family="sans-serif" font-size="20" lengthAdjust="spacing" textLength="70" x="1444" y="1103.8086">create()</text><polygon fill="#181818" points="1415,1190.9375,1425,1194.9375,1415,1198.9375,1419,1194.9375" style="stroke:#181818;stroke-width:1.0;"/><line style="stroke:#181818;stroke-width:1.0;" x1="651" x2="1421" y1="1194.9375" y2="1194.9375"/><text fill="#000000" font-family="sans-serif" font-size="20" lengthAdjust="spacing" textLength="559" x="658" y="1188.543">getCostumerRequirementsSpecificationsFileList(costumerCode)</text><path d="M1442,1153.2031 L1442,1213.2031 L2167,1213.2031 L2167,1163.2031 L2157,1153.2031 L1442,1153.2031 " fill="#FEFFDD" style="stroke:#181818;stroke-width:0.5;"/><path d="M2157,1153.2031 L2157,1163.2031 L2167,1163.2031 L2157,1153.2031 " fill="#FEFFDD" style="stroke:#181818;stroke-width:0.5;"/><text fill="#000000" font-family="sans-serif" font-size="20" lengthAdjust="spacing" textLength="704" x="1448" y="1178.9648">The process of selecting the requirements specifications is not a responsibility of</text><text fill="#000000" font-family="sans-serif" font-size="20" lengthAdjust="spacing" textLength="642" x="1454" y="1204.1211">US1002, rather from US1009, which will be integrated in this functionality.</text><polygon fill="#181818" points="2114.5,1245.6719,2124.5,1249.6719,2114.5,1253.6719,2118.5,1249.6719" style="stroke:#181818;stroke-width:1.0;"/><line style="stroke:#181818;stroke-width:1.0;" x1="1437" x2="2120.5" y1="1249.6719" y2="1249.6719"/><text fill="#000000" font-family="sans-serif" font-size="20" lengthAdjust="spacing" textLength="70" x="1444" y="1243.2773">create()</text><line style="stroke:#181818;stroke-width:1.0;" x1="651" x2="693" y1="1318.8281" y2="1318.8281"/><line style="stroke:#181818;stroke-width:1.0;" x1="693" x2="693" y1="1318.8281" y2="1331.8281"/><line style="stroke:#181818;stroke-width:1.0;" x1="652" x2="693" y1="1331.8281" y2="1331.8281"/><polygon fill="#181818" points="662,1327.8281,652,1331.8281,662,1335.8281,658,1331.8281" style="stroke:#181818;stroke-width:1.0;"/><text fill="#000000" font-family="sans-serif" font-size="20" lengthAdjust="spacing" textLength="566" x="658" y="1312.4336">toDTO(className, costumerRequirementsSpecificationsFileList)</text><rect fill="none" height="60.3125" style="stroke:#000000;stroke-width:1.5;" width="287" x="505" y="1339.8281"/><path d="M505,1339.8281 L576,1339.8281 L576,1356.8281 L566,1366.8281 L505,1366.8281 L505,1339.8281 " fill="#EEEEEE" style="stroke:#000000;stroke-width:2.0;"/><text fill="#000000" font-family="sans-serif" font-size="20" font-weight="bold" lengthAdjust="spacing" textLength="26" x="518" y="1362.5898">ref</text><text fill="#000000" font-family="sans-serif" font-size="20" lengthAdjust="spacing" textLength="279" x="509" y="1391.5898">job opening attribute list to DTO</text><polygon fill="#181818" points="130,1407.1406,120,1411.1406,130,1415.1406,126,1411.1406" style="stroke:#181818;stroke-width:1.0;"/><line style="stroke:#181818;stroke-width:1.0;stroke-dasharray:2.0,2.0;" x1="124" x2="645" y1="1411.1406" y2="1411.1406"/><line style="stroke:#181818;stroke-width:1.0;" x1="119" x2="161" y1="1450.2969" y2="1450.2969"/><line style="stroke:#181818;stroke-width:1.0;" x1="161" x2="161" y1="1450.2969" y2="1463.2969"/><line style="stroke:#181818;stroke-width:1.0;" x1="120" x2="161" y1="1463.2969" y2="1463.2969"/><polygon fill="#181818" points="130,1459.2969,120,1463.2969,130,1467.2969,126,1463.2969" style="stroke:#181818;stroke-width:1.0;"/><text fill="#000000" font-family="sans-serif" font-size="20" lengthAdjust="spacing" textLength="85" x="126" y="1443.9023">doShow()</text><polygon fill="#181818" points="629,1548.7656,639,1552.7656,629,1556.7656,633,1552.7656" style="stroke:#181818;stroke-width:1.0;"/><line style="stroke:#181818;stroke-width:1.0;" x1="119" x2="635" y1="1552.7656" y2="1552.7656"/><text fill="#000000" font-family="sans-serif" font-size="20" lengthAdjust="spacing" textLength="484" x="126" y="1496.0586">registerJobOpening(function, contractType, workMode,</text><text fill="#000000" font-family="sans-serif" font-size="20" lengthAdjust="spacing" textLength="497" x="132" y="1521.2148">streetName, city, district, state, zipcode, companyName,</text><text fill="#000000" font-family="sans-serif" font-size="20" lengthAdjust="spacing" textLength="448" x="132" y="1546.3711">numVacancies, description, requirementsFileName)</text><polygon fill="#181818" points="1622,1603.5,1632,1607.5,1622,1611.5,1626,1607.5" style="stroke:#181818;stroke-width:1.0;"/><line style="stroke:#181818;stroke-width:1.0;" x1="651" x2="1628" y1="1607.5" y2="1607.5"/><text fill="#000000" font-family="sans-serif" font-size="20" lengthAdjust="spacing" textLength="416" x="658" y="1601.1055">getCostumerLastJobReference(costumerCode)</text><path d="M1649,1565.7656 L1649,1625.7656 L2288,1625.7656 L2288,1575.7656 L2278,1565.7656 L1649,1565.7656 " fill="#FEFFDD" style="stroke:#181818;stroke-width:0.5;"/><path d="M2278,1565.7656 L2278,1575.7656 L2288,1575.7656 L2278,1565.7656 " fill="#FEFFDD" style="stroke:#181818;stroke-width:0.5;"/><text fill="#000000" font-family="sans-serif" font-size="20" lengthAdjust="spacing" textLength="610" x="1655" y="1591.5273">JobOpeningFactory does not have access to the previous job opening</text><text fill="#000000" font-family="sans-serif" font-size="20" lengthAdjust="spacing" textLength="612" x="1661" y="1616.6836">reference if it was made in another session, so this step is necessary.</text><polygon fill="#181818" points="2776.5,1688.2344,2786.5,1692.2344,2776.5,1696.2344,2780.5,1692.2344" style="stroke:#181818;stroke-width:1.0;"/><line style="stroke:#181818;stroke-width:1.0;" x1="651" x2="2782.5" y1="1692.2344" y2="1692.2344"/><text fill="#000000" font-family="sans-serif" font-size="20" lengthAdjust="spacing" textLength="319" x="658" y="1685.8398">getJobReference(lastJobReference)</text><polygon fill="#181818" points="2379,1757.3906,2389,1761.3906,2379,1765.3906,2383,1761.3906" style="stroke:#181818;stroke-width:1.0;"/><line style="stroke:#181818;stroke-width:1.0;" x1="651" x2="2385" y1="1761.3906" y2="1761.3906"/><text fill="#000000" font-family="sans-serif" font-size="20" lengthAdjust="spacing" textLength="419" x="658" y="1754.9961">create(streetName, city, district, state, zipcode)</text><polygon fill="#181818" points="2621,1821.7031,2631,1825.7031,2621,1829.7031,2625,1825.7031" style="stroke:#181818;stroke-width:1.0;"/><line style="stroke:#181818;stroke-width:1.0;" x1="2401" x2="2627" y1="1825.7031" y2="1825.7031"/><text fill="#000000" font-family="sans-serif" font-size="20" lengthAdjust="spacing" textLength="213" x="2408" y="1794.1523">create(streetName, city,</text><text fill="#000000" font-family="sans-serif" font-size="20" lengthAdjust="spacing" textLength="200" x="2414" y="1819.3086">district, state, zipcode)</text><polygon fill="#181818" points="2776.5,1890.8594,2786.5,1894.8594,2776.5,1898.8594,2780.5,1894.8594" style="stroke:#181818;stroke-width:1.0;"/><line style="stroke:#181818;stroke-width:1.0;" x1="651" x2="2782.5" y1="1894.8594" y2="1894.8594"/><text fill="#000000" font-family="sans-serif" font-size="20" lengthAdjust="spacing" textLength="1338" x="658" y="1888.4648">create(function, contractType, workMode, companyAddress, costumerCode, companyName, numVacancies, description, requirementsSpecificationsFile)</text><polygon fill="#181818" points="3192.5,2005.4844,3202.5,2009.4844,3192.5,2013.4844,3196.5,2009.4844" style="stroke:#181818;stroke-width:1.0;"/><line style="stroke:#181818;stroke-width:1.0;" x1="2798.5" x2="3198.5" y1="2009.4844" y2="2009.4844"/><text fill="#000000" font-family="sans-serif" font-size="20" lengthAdjust="spacing" textLength="368" x="2805.5" y="1927.6211">create(function, contractType, workMode,</text><text fill="#000000" font-family="sans-serif" font-size="20" lengthAdjust="spacing" textLength="298" x="2811.5" y="1952.7773">companyAddress, costumerCode,</text><text fill="#000000" font-family="sans-serif" font-size="20" lengthAdjust="spacing" textLength="381" x="2811.5" y="1977.9336">companyName, numVacancies, description,</text><text fill="#000000" font-family="sans-serif" font-size="20" lengthAdjust="spacing" textLength="273" x="2811.5" y="2003.0898">requirementsSpecificationsFile)</text><polygon fill="#181818" points="1622,2074.6406,1632,2078.6406,1622,2082.6406,1626,2078.6406" style="stroke:#181818;stroke-width:1.0;"/><line style="stroke:#181818;stroke-width:1.0;" x1="651" x2="1628" y1="2078.6406" y2="2078.6406"/><text fill="#000000" font-family="sans-serif" font-size="20" lengthAdjust="spacing" textLength="154" x="658" y="2072.2461">save(jobOpening)</text><polygon fill="#181818" points="125,2118.6406,115,2122.6406,125,2126.6406,121,2122.6406" style="stroke:#181818;stroke-width:1.0;"/><line style="stroke:#181818;stroke-width:1.0;stroke-dasharray:2.0,2.0;" x1="119" x2="645" y1="2122.6406" y2="2122.6406"/><!--SRC=[lLV1RkCs4BthAmPxMGTmYdHl3O80hRCfKgJT8axQGxS7cXhPtCYaIj9nlL_V8ILPb2Z92jeqfvYSUMyuysP8cMSX2wRPDbVy6LD8CMExtDugQPVYAyA7YoInmkO8Vpmjlxsu-03diCI_TYWvmerWQtA5PP4B-sUI490LN1HCMdXtTLLeD2WjiqB9w-lFyl81ry9Or3-frQS2fP3hfxjtm0mytIMS6BNAdHyh28-FkIrAunorTryyFjn7vAYDyw8uFSYlpM_dZNzRxneiTn4ongtIXog4GXdXVjwMgzuvMarIPjcA6NJ- -hZh8Phe6pUFqhSn1hHGnkwsg3imyV8Oo0FLK6ZSKdtCia0kiYhZfWCxnN0iSz-dASd0X6bhBtMTKxLbGeQ-eTCOLPF8a2rQ7IQykleeIUnTj0vCaYG495wOHIVSvEaEpg-z1k4Ik4PQdvq5DbwTARP_jxtMQ3lY9kl7Gu7cdiJfqDx_YDRI9jWD8LGMu4mwH0dGduSb-43ThTYSpT4jR06_4tgT4qeayn3BEGI7Yy2EEt6p-7tt5nCGQrzRT8bR1BrzL5i58VRQTSyn46sTs87Wg8wjwbLXdWvnKdWrUIKQgsuUFyrupepvXMrn3ZoWThgf2gqn0_M2kjH7dP0lQWMgv05chHQh7P7dv4R0GCZU4cNg_4D-2e2qUncnEPSXcNk7L2qtQX-9-NUbd-5dbU98IpWRPt9iXn7D3vVcYFB_bcLVqPObUSEAX4IlgCP8teU7VpINwki7xcx6gjCtItpNbDuB2l-7mq9jQJWVNFfclFd_xDyDbFY271qdFVTfpp3fiPeuIbfDe8D4Wsbb6hOiHSYKhjVfbSOhrjUaThYMjoBtcfdne0fbHgIY0sYntjXBUAGu2wqutSAWCZ2O8vzq064S3Z0oCWKjY9MWz-A1G3vBA5-LSz2CO3HaMctBjU-eSpQ2Rs0lyXnM289URVJSj7H-8OcKOBETv8w3ERnlfbqulTgOyihfgYKWcl14YaGnmUULbzBmlJ1L0V_XUEhEfwdJg3MCTFJodzKbRrztpPITawQCrOYsEZmfOmufmMZ1xPpsA80vV1K5TzOGp1VdAdVRtnXdaWiqv8Q6Qr6KVA74NSBAaPIyhpzFIE0Iz-wYWFgbs3C8gUqbEXLxOvTKIXTg_zYQ6VzbPGNBpoO_DyhQtZFZvlP3ZNMYbwD7CLK0opRTi1SaRVisfy9Qt_Nu8jJEX1gWN3M1Ymo4XJshXXMr9oCery-6O7psZ2fRbZ9L-8c0Ze5fQjitk8lZyzKtMvEXl9EomKT1tMo3KRJdUlMb0XybPuNPvRx5Mj6rFu2QkJ9TjzqtVEUJoczsM1hU4KAgwZ1b7sCtAVNom7exKq6hZ6IhhvPL_2U7GTtU5Nqp2nTHyqzj_NXoTein88pu7At3lU9KLANHSpNxfqxcktZyR0D76-w6P6AZd1XkXkRGxCjnxmsUx4FtKh10-_y0]--></g></svg>