<?xml version="1.0" encoding="UTF-8" standalone="no"?><svg xmlns="http://www.w3.org/2000/svg" xmlns:xlink="http://www.w3.org/1999/xlink" contentStyleType="text/css" height="2515px" preserveAspectRatio="none" style="width:2319px;height:2515px;background:#FFFFFF;" version="1.1" viewBox="0 0 2319 2515" width="2319px" zoomAndPan="magnify"><defs/><g><rect fill="#FFFFFF" height="2315.2188" style="stroke:#181818;stroke-width:1.0;" width="10" x="72.5" y="100.1563"/><rect fill="#FFFFFF" height="2258.9063" style="stroke:#181818;stroke-width:1.0;" width="10" x="543.5" y="156.4688"/><rect fill="#FFFFFF" height="436.7188" style="stroke:#181818;stroke-width:1.0;" width="10" x="980.5" y="311.25"/><rect fill="#FFFFFF" height="567.0313" style="stroke:#181818;stroke-width:1.0;" width="10" x="980.5" y="823.4375"/><rect fill="#FFFFFF" height="567.0313" style="stroke:#181818;stroke-width:1.0;" width="10" x="980.5" y="1527.0938"/><rect fill="#FFFFFF" height="78.3125" style="stroke:#181818;stroke-width:1.0;" width="10" x="980.5" y="2152.4375"/><rect fill="#FFFFFF" height="39.1563" style="stroke:#181818;stroke-width:1.0;" width="10" x="1478.5" y="551.1875"/><rect fill="#FFFFFF" height="298.7813" style="stroke:#181818;stroke-width:1.0;" width="10" x="1478.5" y="862.5938"/><rect fill="#FFFFFF" height="298.7813" style="stroke:#181818;stroke-width:1.0;" width="10" x="1478.5" y="1566.25"/><rect fill="#FFFFFF" height="30" style="stroke:#181818;stroke-width:1.0;" width="10" x="1900.5" y="953.9063"/><rect fill="#FFFFFF" height="30" style="stroke:#181818;stroke-width:1.0;" width="10" x="1900.5" y="1023.0625"/><rect fill="#FFFFFF" height="30" style="stroke:#181818;stroke-width:1.0;" width="10" x="1900.5" y="1092.2188"/><rect fill="#FFFFFF" height="30" style="stroke:#181818;stroke-width:1.0;" width="10" x="1900.5" y="1657.5625"/><rect fill="#FFFFFF" height="30" style="stroke:#181818;stroke-width:1.0;" width="10" x="1900.5" y="1726.7188"/><rect fill="#FFFFFF" height="30" style="stroke:#181818;stroke-width:1.0;" width="10" x="1900.5" y="1795.875"/><rect fill="#FFFFFF" height="1805.0313" style="stroke:#181818;stroke-width:1.0;" width="10" x="2155" y="425.7188"/><rect fill="none" height="248.0938" style="stroke:#000000;stroke-width:1.5;" width="2303.5" x="10" y="492.875"/><rect fill="none" height="76.4688" style="stroke:#000000;stroke-width:1.5;" width="2283.5" x="20" y="605.3438"/><rect fill="none" height="1653.4063" style="stroke:#000000;stroke-width:1.5;" width="2293.5" x="10" y="754.9688"/><rect fill="none" height="167.9375" style="stroke:#000000;stroke-width:1.5;" width="671" x="20" y="1215.5313"/><rect fill="none" height="167.9375" style="stroke:#000000;stroke-width:1.5;" width="671" x="20" y="1919.1875"/><line style="stroke:#181818;stroke-width:0.5;stroke-dasharray:5.0,5.0;" x1="77" x2="77" y1="90.1563" y2="2425.375"/><line style="stroke:#181818;stroke-width:0.5;stroke-dasharray:5.0,5.0;" x1="548" x2="548" y1="90.1563" y2="2425.375"/><line style="stroke:#181818;stroke-width:0.5;stroke-dasharray:5.0,5.0;" x1="985" x2="985" y1="90.1563" y2="2425.375"/><line style="stroke:#181818;stroke-width:0.5;stroke-dasharray:5.0,5.0;" x1="1483" x2="1483" y1="90.1563" y2="2425.375"/><line style="stroke:#181818;stroke-width:0.5;stroke-dasharray:5.0,5.0;" x1="1905.5" x2="1905.5" y1="90.1563" y2="2425.375"/><line style="stroke:#181818;stroke-width:0.5;stroke-dasharray:5.0,5.0;" x1="2159.5" x2="2159.5" y1="366.9063" y2="2425.375"/><text fill="#000000" font-family="sans-serif" font-size="20" lengthAdjust="spacing" textLength="89" x="30" y="85.7617">Candidate</text><ellipse cx="77.5" cy="13.5" fill="#E2E2F0" rx="8" ry="8" style="stroke:#181818;stroke-width:0.5;"/><path d="M77.5,21.5 L77.5,48.5 M64.5,29.5 L90.5,29.5 M77.5,48.5 L64.5,63.5 M77.5,48.5 L90.5,63.5 " fill="none" style="stroke:#181818;stroke-width:0.5;"/><text fill="#000000" font-family="sans-serif" font-size="20" lengthAdjust="spacing" textLength="89" x="30" y="2445.1367">Candidate</text><ellipse cx="77.5" cy="2458.0313" fill="#E2E2F0" rx="8" ry="8" style="stroke:#181818;stroke-width:0.5;"/><path d="M77.5,2466.0313 L77.5,2493.0313 M64.5,2474.0313 L90.5,2474.0313 M77.5,2493.0313 L64.5,2508.0313 M77.5,2493.0313 L90.5,2508.0313 " fill="none" style="stroke:#181818;stroke-width:0.5;"/><rect fill="#E2E2F0" height="64.3125" rx="2.5" ry="2.5" style="stroke:#181818;stroke-width:0.5;" width="265" x="416" y="24.8438"/><text fill="#000000" font-family="sans-serif" font-size="20" lengthAdjust="spacing" textLength="132" x="482.5" y="52.6055">«Presentation»</text><text fill="#000000" font-family="sans-serif" font-size="20" lengthAdjust="spacing" textLength="251" x="423" y="77.7617">NotificationInboxCandidateUI</text><rect fill="#E2E2F0" height="64.3125" rx="2.5" ry="2.5" style="stroke:#181818;stroke-width:0.5;" width="265" x="416" y="2424.375"/><text fill="#000000" font-family="sans-serif" font-size="20" lengthAdjust="spacing" textLength="132" x="482.5" y="2452.1367">«Presentation»</text><text fill="#000000" font-family="sans-serif" font-size="20" lengthAdjust="spacing" textLength="251" x="423" y="2477.293">NotificationInboxCandidateUI</text><rect fill="#E2E2F0" height="64.3125" rx="2.5" ry="2.5" style="stroke:#181818;stroke-width:0.5;" width="331" x="820" y="24.8438"/><text fill="#000000" font-family="sans-serif" font-size="20" lengthAdjust="spacing" textLength="117" x="927" y="52.6055">«Application»</text><text fill="#000000" font-family="sans-serif" font-size="20" lengthAdjust="spacing" textLength="317" x="827" y="77.7617">NotificationInboxCandidateController</text><rect fill="#E2E2F0" height="64.3125" rx="2.5" ry="2.5" style="stroke:#181818;stroke-width:0.5;" width="331" x="820" y="2424.375"/><text fill="#000000" font-family="sans-serif" font-size="20" lengthAdjust="spacing" textLength="117" x="927" y="2452.1367">«Application»</text><text fill="#000000" font-family="sans-serif" font-size="20" lengthAdjust="spacing" textLength="317" x="827" y="2477.293">NotificationInboxCandidateController</text><rect fill="#E2E2F0" height="64.3125" rx="2.5" ry="2.5" style="stroke:#181818;stroke-width:0.5;" width="257" x="1355" y="24.8438"/><text fill="#000000" font-family="sans-serif" font-size="20" lengthAdjust="spacing" textLength="87" x="1440" y="52.6055">«Service»</text><text fill="#000000" font-family="sans-serif" font-size="20" lengthAdjust="spacing" textLength="243" x="1362" y="77.7617">FollowUpConnectionService</text><rect fill="#E2E2F0" height="64.3125" rx="2.5" ry="2.5" style="stroke:#181818;stroke-width:0.5;" width="257" x="1355" y="2424.375"/><text fill="#000000" font-family="sans-serif" font-size="20" lengthAdjust="spacing" textLength="87" x="1440" y="2452.1367">«Service»</text><text fill="#000000" font-family="sans-serif" font-size="20" lengthAdjust="spacing" textLength="243" x="1362" y="2477.293">FollowUpConnectionService</text><rect fill="#E2E2F0" height="64.3125" rx="2.5" ry="2.5" style="stroke:#181818;stroke-width:0.5;" width="222" x="1794.5" y="24.8438"/><text fill="#000000" font-family="sans-serif" font-size="20" lengthAdjust="spacing" textLength="84" x="1863.5" y="52.6055">«Thread»</text><text fill="#000000" font-family="sans-serif" font-size="20" lengthAdjust="spacing" textLength="208" x="1801.5" y="77.7617">ClientConnectionThread</text><rect fill="#E2E2F0" height="64.3125" rx="2.5" ry="2.5" style="stroke:#181818;stroke-width:0.5;" width="222" x="1794.5" y="2424.375"/><text fill="#000000" font-family="sans-serif" font-size="20" lengthAdjust="spacing" textLength="84" x="1863.5" y="2452.1367">«Thread»</text><text fill="#000000" font-family="sans-serif" font-size="20" lengthAdjust="spacing" textLength="208" x="1801.5" y="2477.293">ClientConnectionThread</text><rect fill="#E2E2F0" height="64.3125" rx="2.5" ry="2.5" style="stroke:#181818;stroke-width:0.5;" width="267" x="2026.5" y="2424.375"/><text fill="#000000" font-family="sans-serif" font-size="20" lengthAdjust="spacing" textLength="84" x="2118" y="2452.1367">«Thread»</text><text fill="#000000" font-family="sans-serif" font-size="20" lengthAdjust="spacing" textLength="253" x="2033.5" y="2477.293">CheckForNotificationsThread</text><rect fill="#FFFFFF" height="2315.2188" style="stroke:#181818;stroke-width:1.0;" width="10" x="72.5" y="100.1563"/><rect fill="#FFFFFF" height="2258.9063" style="stroke:#181818;stroke-width:1.0;" width="10" x="543.5" y="156.4688"/><rect fill="#FFFFFF" height="436.7188" style="stroke:#181818;stroke-width:1.0;" width="10" x="980.5" y="311.25"/><rect fill="#FFFFFF" height="567.0313" style="stroke:#181818;stroke-width:1.0;" width="10" x="980.5" y="823.4375"/><rect fill="#FFFFFF" height="567.0313" style="stroke:#181818;stroke-width:1.0;" width="10" x="980.5" y="1527.0938"/><rect fill="#FFFFFF" height="78.3125" style="stroke:#181818;stroke-width:1.0;" width="10" x="980.5" y="2152.4375"/><rect fill="#FFFFFF" height="39.1563" style="stroke:#181818;stroke-width:1.0;" width="10" x="1478.5" y="551.1875"/><rect fill="#FFFFFF" height="298.7813" style="stroke:#181818;stroke-width:1.0;" width="10" x="1478.5" y="862.5938"/><rect fill="#FFFFFF" height="298.7813" style="stroke:#181818;stroke-width:1.0;" width="10" x="1478.5" y="1566.25"/><rect fill="#FFFFFF" height="30" style="stroke:#181818;stroke-width:1.0;" width="10" x="1900.5" y="953.9063"/><rect fill="#FFFFFF" height="30" style="stroke:#181818;stroke-width:1.0;" width="10" x="1900.5" y="1023.0625"/><rect fill="#FFFFFF" height="30" style="stroke:#181818;stroke-width:1.0;" width="10" x="1900.5" y="1092.2188"/><rect fill="#FFFFFF" height="30" style="stroke:#181818;stroke-width:1.0;" width="10" x="1900.5" y="1657.5625"/><rect fill="#FFFFFF" height="30" style="stroke:#181818;stroke-width:1.0;" width="10" x="1900.5" y="1726.7188"/><rect fill="#FFFFFF" height="30" style="stroke:#181818;stroke-width:1.0;" width="10" x="1900.5" y="1795.875"/><rect fill="#FFFFFF" height="1805.0313" style="stroke:#181818;stroke-width:1.0;" width="10" x="2155" y="425.7188"/><polygon fill="#181818" points="531.5,152.4688,541.5,156.4688,531.5,160.4688,535.5,156.4688" style="stroke:#181818;stroke-width:1.0;"/><line style="stroke:#181818;stroke-width:1.0;" x1="82.5" x2="537.5" y1="156.4688" y2="156.4688"/><text fill="#000000" font-family="sans-serif" font-size="20" font-weight="bold" lengthAdjust="spacing" textLength="11" x="89.5" y="137.4961">1</text><text fill="#000000" font-family="sans-serif" font-size="20" lengthAdjust="spacing" textLength="135" x="104.5" y="124.918">asks to see the</text><text fill="#000000" font-family="sans-serif" font-size="20" lengthAdjust="spacing" textLength="144" x="110.5" y="150.0742">notification inbox</text><rect fill="none" height="110.625" style="stroke:#000000;stroke-width:1.5;" width="1606.5" x="413" y="164.4688"/><path d="M413,164.4688 L484,164.4688 L484,181.4688 L474,191.4688 L413,191.4688 L413,164.4688 " fill="#EEEEEE" style="stroke:#000000;stroke-width:2.0;"/><text fill="#000000" font-family="sans-serif" font-size="20" font-weight="bold" lengthAdjust="spacing" textLength="26" x="426" y="187.2305">ref</text><text fill="#000000" font-family="sans-serif" font-size="20" lengthAdjust="spacing" textLength="230" x="1101.25" y="216.2305">connection to the server in</text><text fill="#000000" font-family="sans-serif" font-size="20" lengthAdjust="spacing" textLength="343" x="1044.75" y="241.3867">sequence-diagram-tcp-connection.puml</text><text fill="#000000" font-family="sans-serif" font-size="20" lengthAdjust="spacing" textLength="235" x="1098.75" y="266.543">in team-decisions directory</text><polygon fill="#181818" points="968.5,307.25,978.5,311.25,968.5,315.25,972.5,311.25" style="stroke:#181818;stroke-width:1.0;"/><line style="stroke:#181818;stroke-width:1.0;" x1="553.5" x2="974.5" y1="311.25" y2="311.25"/><text fill="#000000" font-family="sans-serif" font-size="20" font-weight="bold" lengthAdjust="spacing" textLength="11" x="560.5" y="304.8555">2</text><text fill="#000000" font-family="sans-serif" font-size="20" lengthAdjust="spacing" textLength="393" x="575.5" y="304.8555">startCheckForNotificationsThread(username)</text><polygon fill="#181818" points="2014.5,346.4063,2024.5,350.4063,2014.5,354.4063,2018.5,350.4063" style="stroke:#181818;stroke-width:1.0;"/><line style="stroke:#181818;stroke-width:1.0;" x1="990.5" x2="2020.5" y1="350.4063" y2="350.4063"/><text fill="#000000" font-family="sans-serif" font-size="20" font-weight="bold" lengthAdjust="spacing" textLength="11" x="997.5" y="344.0117">3</text><text fill="#000000" font-family="sans-serif" font-size="20" lengthAdjust="spacing" textLength="156" x="1012.5" y="344.0117">create(username)</text><rect fill="#E2E2F0" height="64.3125" rx="2.5" ry="2.5" style="stroke:#181818;stroke-width:0.5;" width="267" x="2026.5" y="319.25"/><text fill="#000000" font-family="sans-serif" font-size="20" lengthAdjust="spacing" textLength="84" x="2118" y="347.0117">«Thread»</text><text fill="#000000" font-family="sans-serif" font-size="20" lengthAdjust="spacing" textLength="253" x="2033.5" y="372.168">CheckForNotificationsThread</text><polygon fill="#181818" points="2143,421.7188,2153,425.7188,2143,429.7188,2147,425.7188" style="stroke:#181818;stroke-width:1.0;"/><line style="stroke:#181818;stroke-width:1.0;" x1="990.5" x2="2149" y1="425.7188" y2="425.7188"/><text fill="#000000" font-family="sans-serif" font-size="20" font-weight="bold" lengthAdjust="spacing" textLength="11" x="997.5" y="419.3242">4</text><text fill="#000000" font-family="sans-serif" font-size="20" lengthAdjust="spacing" textLength="54" x="1012.5" y="419.3242">start()</text><line style="stroke:#181818;stroke-width:1.0;" x1="2165" x2="2207" y1="464.875" y2="464.875"/><line style="stroke:#181818;stroke-width:1.0;" x1="2207" x2="2207" y1="464.875" y2="477.875"/><line style="stroke:#181818;stroke-width:1.0;" x1="2166" x2="2207" y1="477.875" y2="477.875"/><polygon fill="#181818" points="2176,473.875,2166,477.875,2176,481.875,2172,477.875" style="stroke:#181818;stroke-width:1.0;"/><text fill="#000000" font-family="sans-serif" font-size="20" font-weight="bold" lengthAdjust="spacing" textLength="11" x="2172" y="458.4805">5</text><text fill="#000000" font-family="sans-serif" font-size="20" lengthAdjust="spacing" textLength="41" x="2187" y="458.4805">run()</text><path d="M10,492.875 L96,492.875 L96,510.0313 L86,520.0313 L10,520.0313 L10,492.875 " fill="#EEEEEE" style="stroke:#000000;stroke-width:1.5;"/><rect fill="none" height="248.0938" style="stroke:#000000;stroke-width:1.5;" width="2303.5" x="10" y="492.875"/><text fill="#000000" font-family="sans-serif" font-size="20" font-weight="bold" lengthAdjust="spacing" textLength="41" x="25" y="514.6367">loop</text><polygon fill="#181818" points="1499.5,547.1875,1489.5,551.1875,1499.5,555.1875,1495.5,551.1875" style="stroke:#181818;stroke-width:1.0;"/><line style="stroke:#181818;stroke-width:1.0;" x1="1493.5" x2="2154" y1="551.1875" y2="551.1875"/><text fill="#000000" font-family="sans-serif" font-size="20" font-weight="bold" lengthAdjust="spacing" textLength="11" x="1505.5" y="544.793">6</text><text fill="#000000" font-family="sans-serif" font-size="20" lengthAdjust="spacing" textLength="287" x="1520.5" y="544.793">checkForNotifications(username)</text><polygon fill="#181818" points="2143,586.3438,2153,590.3438,2143,594.3438,2147,590.3438" style="stroke:#181818;stroke-width:1.0;"/><line style="stroke:#181818;stroke-width:1.0;stroke-dasharray:2.0,2.0;" x1="1483.5" x2="2149" y1="590.3438" y2="590.3438"/><text fill="#000000" font-family="sans-serif" font-size="20" font-weight="bold" lengthAdjust="spacing" textLength="11" x="1490.5" y="583.9492">7</text><text fill="#000000" font-family="sans-serif" font-size="20" lengthAdjust="spacing" textLength="64" x="1505.5" y="583.9492">answer</text><path d="M20,605.3438 L88,605.3438 L88,622.5 L78,632.5 L20,632.5 L20,605.3438 " fill="#EEEEEE" style="stroke:#000000;stroke-width:1.5;"/><rect fill="none" height="76.4688" style="stroke:#000000;stroke-width:1.5;" width="2283.5" x="20" y="605.3438"/><text fill="#000000" font-family="sans-serif" font-size="20" font-weight="bold" lengthAdjust="spacing" textLength="23" x="35" y="627.1055">alt</text><text fill="#000000" font-family="sans-serif" font-size="20" font-weight="bold" lengthAdjust="spacing" textLength="166" x="103" y="628.1055">[if answer is true]</text><polygon fill="#181818" points="93.5,669.8125,83.5,673.8125,93.5,677.8125,89.5,673.8125" style="stroke:#181818;stroke-width:1.0;"/><line style="stroke:#181818;stroke-width:1.0;stroke-dasharray:2.0,2.0;" x1="87.5" x2="2154" y1="673.8125" y2="673.8125"/><text fill="#000000" font-family="sans-serif" font-size="20" font-weight="bold" lengthAdjust="spacing" textLength="11" x="99.5" y="667.418">8</text><text fill="#000000" font-family="sans-serif" font-size="20" lengthAdjust="spacing" textLength="423" x="114.5" y="667.418">show message indicating it has new notifications</text><line style="stroke:#181818;stroke-width:1.0;stroke-dasharray:2.0,2.0;" x1="2165" x2="2207" y1="719.9688" y2="719.9688"/><line style="stroke:#181818;stroke-width:1.0;stroke-dasharray:2.0,2.0;" x1="2207" x2="2207" y1="719.9688" y2="732.9688"/><line style="stroke:#181818;stroke-width:1.0;stroke-dasharray:2.0,2.0;" x1="2166" x2="2207" y1="732.9688" y2="732.9688"/><polygon fill="#181818" points="2176,728.9688,2166,732.9688,2176,736.9688,2172,732.9688" style="stroke:#181818;stroke-width:1.0;"/><text fill="#000000" font-family="sans-serif" font-size="20" font-weight="bold" lengthAdjust="spacing" textLength="11" x="2172" y="713.5742">9</text><text fill="#000000" font-family="sans-serif" font-size="20" lengthAdjust="spacing" textLength="105" x="2187" y="713.5742">wait(30000)</text><path d="M10,754.9688 L86,754.9688 L86,772.125 L76,782.125 L10,782.125 L10,754.9688 " fill="#EEEEEE" style="stroke:#000000;stroke-width:1.5;"/><rect fill="none" height="1653.4063" style="stroke:#000000;stroke-width:1.5;" width="2293.5" x="10" y="754.9688"/><text fill="#000000" font-family="sans-serif" font-size="20" font-weight="bold" lengthAdjust="spacing" textLength="31" x="25" y="776.7305">opt</text><text fill="#000000" font-family="sans-serif" font-size="20" font-weight="bold" lengthAdjust="spacing" textLength="339" x="101" y="777.7305">[Option 1 (Notifications to be seen)]</text><polygon fill="#181818" points="968.5,819.4375,978.5,823.4375,968.5,827.4375,972.5,823.4375" style="stroke:#181818;stroke-width:1.0;"/><line style="stroke:#181818;stroke-width:1.0;" x1="553.5" x2="974.5" y1="823.4375" y2="823.4375"/><text fill="#000000" font-family="sans-serif" font-size="20" font-weight="bold" lengthAdjust="spacing" textLength="22" x="560.5" y="817.043">10</text><text fill="#000000" font-family="sans-serif" font-size="20" lengthAdjust="spacing" textLength="320" x="586.5" y="817.043">getAllUnseenNotifications(username)</text><polygon fill="#181818" points="1466.5,858.5938,1476.5,862.5938,1466.5,866.5938,1470.5,862.5938" style="stroke:#181818;stroke-width:1.0;"/><line style="stroke:#181818;stroke-width:1.0;" x1="990.5" x2="1472.5" y1="862.5938" y2="862.5938"/><text fill="#000000" font-family="sans-serif" font-size="20" font-weight="bold" lengthAdjust="spacing" textLength="22" x="997.5" y="856.1992">11</text><text fill="#000000" font-family="sans-serif" font-size="20" lengthAdjust="spacing" textLength="443" x="1023.5" y="856.1992">receiveUnseenNotificationList(username.toString())</text><line style="stroke:#181818;stroke-width:1.0;" x1="1488.5" x2="1530.5" y1="901.75" y2="901.75"/><line style="stroke:#181818;stroke-width:1.0;" x1="1530.5" x2="1530.5" y1="901.75" y2="914.75"/><line style="stroke:#181818;stroke-width:1.0;" x1="1489.5" x2="1530.5" y1="914.75" y2="914.75"/><polygon fill="#181818" points="1499.5,910.75,1489.5,914.75,1499.5,918.75,1495.5,914.75" style="stroke:#181818;stroke-width:1.0;"/><text fill="#000000" font-family="sans-serif" font-size="20" font-weight="bold" lengthAdjust="spacing" textLength="22" x="1495.5" y="895.3555">12</text><text fill="#000000" font-family="sans-serif" font-size="20" lengthAdjust="spacing" textLength="372" x="1521.5" y="895.3555">byte[] message = dataDTO.toByteArray();</text><polygon fill="#181818" points="1888.5,949.9063,1898.5,953.9063,1888.5,957.9063,1892.5,953.9063" style="stroke:#181818;stroke-width:1.0;"/><line style="stroke:#181818;stroke-width:1.0;" x1="1488.5" x2="1894.5" y1="953.9063" y2="953.9063"/><text fill="#000000" font-family="sans-serif" font-size="20" font-weight="bold" lengthAdjust="spacing" textLength="22" x="1495.5" y="947.5117">13</text><text fill="#000000" font-family="sans-serif" font-size="20" lengthAdjust="spacing" textLength="265" x="1521.5" y="947.5117">sOut.writeInt(message.length)</text><polygon fill="#181818" points="1888.5,1019.0625,1898.5,1023.0625,1888.5,1027.0625,1892.5,1023.0625" style="stroke:#181818;stroke-width:1.0;"/><line style="stroke:#181818;stroke-width:1.0;" x1="1488.5" x2="1894.5" y1="1023.0625" y2="1023.0625"/><text fill="#000000" font-family="sans-serif" font-size="20" font-weight="bold" lengthAdjust="spacing" textLength="22" x="1495.5" y="1016.668">14</text><text fill="#000000" font-family="sans-serif" font-size="20" lengthAdjust="spacing" textLength="185" x="1521.5" y="1016.668">sOut.write(message)</text><polygon fill="#181818" points="1888.5,1088.2188,1898.5,1092.2188,1888.5,1096.2188,1892.5,1092.2188" style="stroke:#181818;stroke-width:1.0;"/><line style="stroke:#181818;stroke-width:1.0;" x1="1488.5" x2="1894.5" y1="1092.2188" y2="1092.2188"/><text fill="#000000" font-family="sans-serif" font-size="20" font-weight="bold" lengthAdjust="spacing" textLength="22" x="1495.5" y="1085.8242">15</text><text fill="#000000" font-family="sans-serif" font-size="20" lengthAdjust="spacing" textLength="102" x="1521.5" y="1085.8242">sOut.flush()</text><polygon fill="#181818" points="1001.5,1157.375,991.5,1161.375,1001.5,1165.375,997.5,1161.375" style="stroke:#181818;stroke-width:1.0;"/><line style="stroke:#181818;stroke-width:1.0;stroke-dasharray:2.0,2.0;" x1="995.5" x2="1482.5" y1="1161.375" y2="1161.375"/><text fill="#000000" font-family="sans-serif" font-size="20" font-weight="bold" lengthAdjust="spacing" textLength="22" x="1007.5" y="1154.9805">16</text><text fill="#000000" font-family="sans-serif" font-size="20" lengthAdjust="spacing" textLength="189" x="1033.5" y="1154.9805">unseenNotificationList</text><polygon fill="#181818" points="564.5,1196.5313,554.5,1200.5313,564.5,1204.5313,560.5,1200.5313" style="stroke:#181818;stroke-width:1.0;"/><line style="stroke:#181818;stroke-width:1.0;stroke-dasharray:2.0,2.0;" x1="558.5" x2="979.5" y1="1200.5313" y2="1200.5313"/><text fill="#000000" font-family="sans-serif" font-size="20" font-weight="bold" lengthAdjust="spacing" textLength="22" x="570.5" y="1194.1367">17</text><text fill="#000000" font-family="sans-serif" font-size="20" lengthAdjust="spacing" textLength="189" x="596.5" y="1194.1367">unseenNotificationList</text><path d="M20,1215.5313 L88,1215.5313 L88,1232.6875 L78,1242.6875 L20,1242.6875 L20,1215.5313 " fill="#EEEEEE" style="stroke:#000000;stroke-width:1.5;"/><rect fill="none" height="167.9375" style="stroke:#000000;stroke-width:1.5;" width="671" x="20" y="1215.5313"/><text fill="#000000" font-family="sans-serif" font-size="20" font-weight="bold" lengthAdjust="spacing" textLength="23" x="35" y="1237.293">alt</text><text fill="#000000" font-family="sans-serif" font-size="20" font-weight="bold" lengthAdjust="spacing" textLength="290" x="103" y="1238.293">[empty unseenNotificationList]</text><polygon fill="#181818" points="93.5,1305.1563,83.5,1309.1563,93.5,1313.1563,89.5,1309.1563" style="stroke:#181818;stroke-width:1.0;"/><line style="stroke:#181818;stroke-width:1.0;stroke-dasharray:2.0,2.0;" x1="87.5" x2="542.5" y1="1309.1563" y2="1309.1563"/><text fill="#000000" font-family="sans-serif" font-size="20" font-weight="bold" lengthAdjust="spacing" textLength="22" x="99.5" y="1290.1836">18</text><text fill="#000000" font-family="sans-serif" font-size="20" lengthAdjust="spacing" textLength="99" x="125.5" y="1277.6055">show it has</text><text fill="#000000" font-family="sans-serif" font-size="20" lengthAdjust="spacing" textLength="172" x="125.5" y="1302.7617">no new notifications</text><line style="stroke:#000000;stroke-width:1.0;stroke-dasharray:2.0,2.0;" x1="20" x2="691" y1="1318.1563" y2="1318.1563"/><text fill="#000000" font-family="sans-serif" font-size="20" font-weight="bold" lengthAdjust="spacing" textLength="327" x="25" y="1338.918">[not empty unseenNotificationList]</text><polygon fill="#181818" points="93.5,1371.4688,83.5,1375.4688,93.5,1379.4688,89.5,1375.4688" style="stroke:#181818;stroke-width:1.0;"/><line style="stroke:#181818;stroke-width:1.0;stroke-dasharray:2.0,2.0;" x1="87.5" x2="542.5" y1="1375.4688" y2="1375.4688"/><text fill="#000000" font-family="sans-serif" font-size="20" font-weight="bold" lengthAdjust="spacing" textLength="22" x="99.5" y="1369.0742">19</text><text fill="#000000" font-family="sans-serif" font-size="20" lengthAdjust="spacing" textLength="190" x="125.5" y="1369.0742">shows all notifications</text><line style="stroke:#000000;stroke-width:1.0;stroke-dasharray:2.0,2.0;" x1="10" x2="2303.5" y1="1391.4688" y2="1391.4688"/><text fill="#000000" font-family="sans-serif" font-size="20" font-weight="bold" lengthAdjust="spacing" textLength="360" x="15" y="1412.2305">[Option 2 (Notifications already seen)]</text><polygon fill="#181818" points="93.5,1444.7813,83.5,1448.7813,93.5,1452.7813,89.5,1448.7813" style="stroke:#181818;stroke-width:1.0;"/><line style="stroke:#181818;stroke-width:1.0;stroke-dasharray:2.0,2.0;" x1="87.5" x2="542.5" y1="1448.7813" y2="1448.7813"/><text fill="#000000" font-family="sans-serif" font-size="20" font-weight="bold" lengthAdjust="spacing" textLength="22" x="99.5" y="1442.3867">20</text><text fill="#000000" font-family="sans-serif" font-size="20" lengthAdjust="spacing" textLength="411" x="125.5" y="1442.3867">asks from when should it show the notifications</text><polygon fill="#181818" points="531.5,1483.9375,541.5,1487.9375,531.5,1491.9375,535.5,1487.9375" style="stroke:#181818;stroke-width:1.0;"/><line style="stroke:#181818;stroke-width:1.0;" x1="82.5" x2="537.5" y1="1487.9375" y2="1487.9375"/><text fill="#000000" font-family="sans-serif" font-size="20" font-weight="bold" lengthAdjust="spacing" textLength="22" x="89.5" y="1481.543">21</text><text fill="#000000" font-family="sans-serif" font-size="20" lengthAdjust="spacing" textLength="39" x="115.5" y="1481.543">date</text><polygon fill="#181818" points="968.5,1523.0938,978.5,1527.0938,968.5,1531.0938,972.5,1527.0938" style="stroke:#181818;stroke-width:1.0;"/><line style="stroke:#181818;stroke-width:1.0;" x1="553.5" x2="974.5" y1="1527.0938" y2="1527.0938"/><text fill="#000000" font-family="sans-serif" font-size="20" font-weight="bold" lengthAdjust="spacing" textLength="22" x="560.5" y="1520.6992">22</text><text fill="#000000" font-family="sans-serif" font-size="20" lengthAdjust="spacing" textLength="351" x="586.5" y="1520.6992">getAllSeenNotifications(username, date)</text><polygon fill="#181818" points="1466.5,1562.25,1476.5,1566.25,1466.5,1570.25,1470.5,1566.25" style="stroke:#181818;stroke-width:1.0;"/><line style="stroke:#181818;stroke-width:1.0;" x1="990.5" x2="1472.5" y1="1566.25" y2="1566.25"/><text fill="#000000" font-family="sans-serif" font-size="20" font-weight="bold" lengthAdjust="spacing" textLength="22" x="997.5" y="1559.8555">23</text><text fill="#000000" font-family="sans-serif" font-size="20" lengthAdjust="spacing" textLength="423" x="1023.5" y="1559.8555">receiveSeenNotificationList(username.toString())</text><line style="stroke:#181818;stroke-width:1.0;" x1="1488.5" x2="1530.5" y1="1605.4063" y2="1605.4063"/><line style="stroke:#181818;stroke-width:1.0;" x1="1530.5" x2="1530.5" y1="1605.4063" y2="1618.4063"/><line style="stroke:#181818;stroke-width:1.0;" x1="1489.5" x2="1530.5" y1="1618.4063" y2="1618.4063"/><polygon fill="#181818" points="1499.5,1614.4063,1489.5,1618.4063,1499.5,1622.4063,1495.5,1618.4063" style="stroke:#181818;stroke-width:1.0;"/><text fill="#000000" font-family="sans-serif" font-size="20" font-weight="bold" lengthAdjust="spacing" textLength="22" x="1495.5" y="1599.0117">24</text><text fill="#000000" font-family="sans-serif" font-size="20" lengthAdjust="spacing" textLength="372" x="1521.5" y="1599.0117">byte[] message = dataDTO.toByteArray();</text><polygon fill="#181818" points="1888.5,1653.5625,1898.5,1657.5625,1888.5,1661.5625,1892.5,1657.5625" style="stroke:#181818;stroke-width:1.0;"/><line style="stroke:#181818;stroke-width:1.0;" x1="1488.5" x2="1894.5" y1="1657.5625" y2="1657.5625"/><text fill="#000000" font-family="sans-serif" font-size="20" font-weight="bold" lengthAdjust="spacing" textLength="22" x="1495.5" y="1651.168">25</text><text fill="#000000" font-family="sans-serif" font-size="20" lengthAdjust="spacing" textLength="265" x="1521.5" y="1651.168">sOut.writeInt(message.length)</text><polygon fill="#181818" points="1888.5,1722.7188,1898.5,1726.7188,1888.5,1730.7188,1892.5,1726.7188" style="stroke:#181818;stroke-width:1.0;"/><line style="stroke:#181818;stroke-width:1.0;" x1="1488.5" x2="1894.5" y1="1726.7188" y2="1726.7188"/><text fill="#000000" font-family="sans-serif" font-size="20" font-weight="bold" lengthAdjust="spacing" textLength="22" x="1495.5" y="1720.3242">26</text><text fill="#000000" font-family="sans-serif" font-size="20" lengthAdjust="spacing" textLength="185" x="1521.5" y="1720.3242">sOut.write(message)</text><polygon fill="#181818" points="1888.5,1791.875,1898.5,1795.875,1888.5,1799.875,1892.5,1795.875" style="stroke:#181818;stroke-width:1.0;"/><line style="stroke:#181818;stroke-width:1.0;" x1="1488.5" x2="1894.5" y1="1795.875" y2="1795.875"/><text fill="#000000" font-family="sans-serif" font-size="20" font-weight="bold" lengthAdjust="spacing" textLength="22" x="1495.5" y="1789.4805">27</text><text fill="#000000" font-family="sans-serif" font-size="20" lengthAdjust="spacing" textLength="102" x="1521.5" y="1789.4805">sOut.flush()</text><polygon fill="#181818" points="1001.5,1861.0313,991.5,1865.0313,1001.5,1869.0313,997.5,1865.0313" style="stroke:#181818;stroke-width:1.0;"/><line style="stroke:#181818;stroke-width:1.0;stroke-dasharray:2.0,2.0;" x1="995.5" x2="1482.5" y1="1865.0313" y2="1865.0313"/><text fill="#000000" font-family="sans-serif" font-size="20" font-weight="bold" lengthAdjust="spacing" textLength="22" x="1007.5" y="1858.6367">28</text><text fill="#000000" font-family="sans-serif" font-size="20" lengthAdjust="spacing" textLength="169" x="1033.5" y="1858.6367">seenNotificationList</text><polygon fill="#181818" points="564.5,1900.1875,554.5,1904.1875,564.5,1908.1875,560.5,1904.1875" style="stroke:#181818;stroke-width:1.0;"/><line style="stroke:#181818;stroke-width:1.0;stroke-dasharray:2.0,2.0;" x1="558.5" x2="979.5" y1="1904.1875" y2="1904.1875"/><text fill="#000000" font-family="sans-serif" font-size="20" font-weight="bold" lengthAdjust="spacing" textLength="22" x="570.5" y="1897.793">29</text><text fill="#000000" font-family="sans-serif" font-size="20" lengthAdjust="spacing" textLength="169" x="596.5" y="1897.793">seenNotificationList</text><path d="M20,1919.1875 L88,1919.1875 L88,1936.3438 L78,1946.3438 L20,1946.3438 L20,1919.1875 " fill="#EEEEEE" style="stroke:#000000;stroke-width:1.5;"/><rect fill="none" height="167.9375" style="stroke:#000000;stroke-width:1.5;" width="671" x="20" y="1919.1875"/><text fill="#000000" font-family="sans-serif" font-size="20" font-weight="bold" lengthAdjust="spacing" textLength="23" x="35" y="1940.9492">alt</text><text fill="#000000" font-family="sans-serif" font-size="20" font-weight="bold" lengthAdjust="spacing" textLength="266" x="103" y="1941.9492">[empty seenNotificationList]</text><polygon fill="#181818" points="93.5,2008.8125,83.5,2012.8125,93.5,2016.8125,89.5,2012.8125" style="stroke:#181818;stroke-width:1.0;"/><line style="stroke:#181818;stroke-width:1.0;stroke-dasharray:2.0,2.0;" x1="87.5" x2="542.5" y1="2012.8125" y2="2012.8125"/><text fill="#000000" font-family="sans-serif" font-size="20" font-weight="bold" lengthAdjust="spacing" textLength="22" x="99.5" y="1993.8398">30</text><text fill="#000000" font-family="sans-serif" font-size="20" lengthAdjust="spacing" textLength="99" x="125.5" y="1981.2617">show it has</text><text fill="#000000" font-family="sans-serif" font-size="20" lengthAdjust="spacing" textLength="172" x="125.5" y="2006.418">no new notifications</text><line style="stroke:#000000;stroke-width:1.0;stroke-dasharray:2.0,2.0;" x1="20" x2="691" y1="2021.8125" y2="2021.8125"/><text fill="#000000" font-family="sans-serif" font-size="20" font-weight="bold" lengthAdjust="spacing" textLength="303" x="25" y="2042.5742">[not empty seenNotificationList]</text><polygon fill="#181818" points="93.5,2075.125,83.5,2079.125,93.5,2083.125,89.5,2079.125" style="stroke:#181818;stroke-width:1.0;"/><line style="stroke:#181818;stroke-width:1.0;stroke-dasharray:2.0,2.0;" x1="87.5" x2="542.5" y1="2079.125" y2="2079.125"/><text fill="#000000" font-family="sans-serif" font-size="20" font-weight="bold" lengthAdjust="spacing" textLength="22" x="99.5" y="2072.7305">31</text><text fill="#000000" font-family="sans-serif" font-size="20" lengthAdjust="spacing" textLength="190" x="125.5" y="2072.7305">shows all notifications</text><line style="stroke:#000000;stroke-width:1.0;stroke-dasharray:2.0,2.0;" x1="10" x2="2303.5" y1="2095.125" y2="2095.125"/><text fill="#000000" font-family="sans-serif" font-size="20" font-weight="bold" lengthAdjust="spacing" textLength="151" x="15" y="2115.8867">[Option 3 (Exit)]</text><polygon fill="#181818" points="968.5,2148.4375,978.5,2152.4375,968.5,2156.4375,972.5,2152.4375" style="stroke:#181818;stroke-width:1.0;"/><line style="stroke:#181818;stroke-width:1.0;" x1="553.5" x2="974.5" y1="2152.4375" y2="2152.4375"/><text fill="#000000" font-family="sans-serif" font-size="20" font-weight="bold" lengthAdjust="spacing" textLength="22" x="560.5" y="2146.043">32</text><text fill="#000000" font-family="sans-serif" font-size="20" lengthAdjust="spacing" textLength="283" x="586.5" y="2146.043">closeCheckNotificationsThread()</text><polygon fill="#181818" points="2143,2187.5938,2153,2191.5938,2143,2195.5938,2147,2191.5938" style="stroke:#181818;stroke-width:1.0;"/><line style="stroke:#181818;stroke-width:1.0;" x1="990.5" x2="2149" y1="2191.5938" y2="2191.5938"/><text fill="#000000" font-family="sans-serif" font-size="20" font-weight="bold" lengthAdjust="spacing" textLength="22" x="997.5" y="2185.1992">33</text><text fill="#000000" font-family="sans-serif" font-size="20" lengthAdjust="spacing" textLength="86" x="1023.5" y="2185.1992">interrupt()</text><polygon fill="#181818" points="2148,2226.75,2158,2230.75,2148,2234.75,2152,2230.75" style="stroke:#181818;stroke-width:1.0;"/><line style="stroke:#181818;stroke-width:1.0;" x1="985.5" x2="2154" y1="2230.75" y2="2230.75"/><text fill="#000000" font-family="sans-serif" font-size="20" font-weight="bold" lengthAdjust="spacing" textLength="22" x="992.5" y="2224.3555">34</text><text fill="#000000" font-family="sans-serif" font-size="20" lengthAdjust="spacing" textLength="43" x="1018.5" y="2224.3555">join()</text><polygon fill="#181818" points="973.5,2265.9063,983.5,2269.9063,973.5,2273.9063,977.5,2269.9063" style="stroke:#181818;stroke-width:1.0;"/><line style="stroke:#181818;stroke-width:1.0;" x1="553.5" x2="979.5" y1="2269.9063" y2="2269.9063"/><text fill="#000000" font-family="sans-serif" font-size="20" font-weight="bold" lengthAdjust="spacing" textLength="22" x="560.5" y="2263.5117">35</text><text fill="#000000" font-family="sans-serif" font-size="20" lengthAdjust="spacing" textLength="157" x="586.5" y="2263.5117">closeConnection()</text><polygon fill="#181818" points="564.5,2305.0625,554.5,2309.0625,564.5,2313.0625,560.5,2309.0625" style="stroke:#181818;stroke-width:1.0;"/><line style="stroke:#181818;stroke-width:1.0;stroke-dasharray:2.0,2.0;" x1="558.5" x2="984.5" y1="2309.0625" y2="2309.0625"/><text fill="#000000" font-family="sans-serif" font-size="20" font-weight="bold" lengthAdjust="spacing" textLength="22" x="570.5" y="2302.668">36</text><text fill="#000000" font-family="sans-serif" font-size="20" lengthAdjust="spacing" textLength="81" x="596.5" y="2302.668">response</text><line style="stroke:#181818;stroke-width:1.0;" x1="553.5" x2="595.5" y1="2348.2188" y2="2348.2188"/><line style="stroke:#181818;stroke-width:1.0;" x1="595.5" x2="595.5" y1="2348.2188" y2="2361.2188"/><line style="stroke:#181818;stroke-width:1.0;" x1="554.5" x2="595.5" y1="2361.2188" y2="2361.2188"/><polygon fill="#181818" points="564.5,2357.2188,554.5,2361.2188,564.5,2365.2188,560.5,2361.2188" style="stroke:#181818;stroke-width:1.0;"/><text fill="#000000" font-family="sans-serif" font-size="20" font-weight="bold" lengthAdjust="spacing" textLength="22" x="560.5" y="2341.8242">37</text><text fill="#000000" font-family="sans-serif" font-size="20" lengthAdjust="spacing" textLength="85" x="586.5" y="2341.8242">doShow()</text><polygon fill="#181818" points="93.5,2396.375,83.5,2400.375,93.5,2404.375,89.5,2400.375" style="stroke:#181818;stroke-width:1.0;"/><line style="stroke:#181818;stroke-width:1.0;stroke-dasharray:2.0,2.0;" x1="87.5" x2="542.5" y1="2400.375" y2="2400.375"/><text fill="#000000" font-family="sans-serif" font-size="20" font-weight="bold" lengthAdjust="spacing" textLength="22" x="99.5" y="2393.9805">38</text><text fill="#000000" font-family="sans-serif" font-size="20" lengthAdjust="spacing" textLength="81" x="125.5" y="2393.9805">response</text><!--SRC=[pLXDSzis4BthLs1y2Ps9v3IvvSCpYc9FDUEfEvRSIzq3JAv4n1300aihwg_FWY8XYW9fsgCsnSacTz- -NUm-WB8FGcNSy9NKyGCaB845poLUQeKpyG-mTsy7hrB4p7uuEyiaLvYlv2ZMgpCBV-UWOXWcWY_9Vp3WEMgLh-x137YCsh2J2LU9I3Z22UEMZIVpwvi11KCHYuoWsCcdJxyRiA2Gez3g_FnE_QPHB4HS_3zLz_gxnxYT5YYtqoR4ECjawT6DCA6aZ9OIJ84qcTzSDR5cO1v530xdaYpr-ZOZBmMnGojV5iwpYvi_ffEBflyyDS0JvpwHWlBQEM_VR0DVJUU_tboCltPufn0_N6fJJyRM84f_LsZnIAcLnHqmMiMVR7XEfM8VoFZ1CjJC0Z1CuKunLSDambLew-UngCJ50xSCB9X-14CFtzI8LwzZdv-BGVWKnpXpeRnDirE666V3dUCeevRoneA0W6mIY8LrIRD4673jjF4se98TGKgIKdLxISbQf89sr2xAYPxYApZT0VYqYtxmZzqgK0bzc_JhrnGX9XY44CwXGqKeQbZvYDKkiiOgtUj09bTD6BUarjdXqtsCibKT-L1bsd8vO5krVD3AhIhGi4wSAxicHGWw9T0Fd4jaOb52CK7zR79evr6bJZIsiq3xaEerMu6rV0dKOqcHl5eoWIobSLAmtXiB6yJUwxkMW3xlDHSOlNzBAr3NFQHQ5VPRK6V8hhDYk7vXqTwckMcxTyC6gW6_DmzBmB6KjyhPzThqZc6ez_UkfMWsGJp2OOWhOT576Q6UeQ62HwU1QlHg0jzSzUZt6uG___8R-vcHpFElyskAzuLUZOtXc-ZqurE0NjTSfrpdE5eRWJ1L69N88mbgYMbuGdOry_8uw6xsRiCdYLMiVZwTXSnj6lt7F7RjdGUxxj2xZyviMxiwDViYEsM2LOQRtXxLZ3R5gLIYEwLqG8uE5KHQS3R7YMuf4VbaoARyjGfNGQvKhdTDvUBIdSIRDksgCIkkBWkZLsoTWd94SvcuGXK5SvUD3iRxjo1t_NjI9sUjAlcc0EZKIjQnMcLpzdBHx1HGrhsEhgN_Ygw-G4nU92n7rDx_6-KkVVwfN6jNzjwwzTnROrZPdnzlf_7FzpsIsdSe_z4uzJe3Ubs7UvyDxrbqyLtWQRimnr9RA3xeGbzpBxky-X4H2i6OFCFGX1nOVzCY-0bMopGq1Qs5QCdLVnT7mM_BgeqDs8mA4JpKjYUUdj6cHjqdx26AtzGQR_TxGEtVxKyDFm00]--></g></svg>