<?xml version="1.0" encoding="us-ascii" standalone="no"?><svg xmlns="http://www.w3.org/2000/svg" xmlns:xlink="http://www.w3.org/1999/xlink" contentStyleType="text/css" height="540.6px" preserveAspectRatio="none" style="width:1039px;height:540px;background:#FFFFFF;" version="1.1" viewBox="0 0 1039 540" width="1039.8px" zoomAndPan="magnify"><defs/><g><rect fill="#FFFFFF" height="406.9371" style="stroke:#181818;stroke-width:0.6;" width="6" x="108.6" y="40.3453"/><rect fill="#FFFFFF" height="46.7473" style="stroke:#181818;stroke-width:0.6;" width="6" x="255.6" y="56.1199"/><rect fill="#FFFFFF" height="40.3746" style="stroke:#181818;stroke-width:0.6;" width="6" x="255.6" y="447.2824"/><rect fill="#FFFFFF" height="398.5898" style="stroke:#181818;stroke-width:0.6;" width="6" x="419.1" y="102.8672"/><rect fill="#FFFFFF" height="364.0406" style="stroke:#181818;stroke-width:0.6;" width="6" x="546.3" y="137.4164"/><rect fill="#FFFFFF" height="18" style="stroke:#181818;stroke-width:0.6;" width="6" x="685.5" y="283.6348"/><rect fill="#FFFFFF" height="18" style="stroke:#181818;stroke-width:0.6;" width="6" x="756.9" y="246.8602"/><rect fill="#FFFFFF" height="18.7746" style="stroke:#181818;stroke-width:0.6;" width="6" x="833.1" y="156.191"/><rect fill="#FFFFFF" height="18" style="stroke:#181818;stroke-width:0.6;" width="6" x="833.1" y="346.984"/><rect fill="none" height="299.666" style="stroke:#000000;stroke-width:0.8999999999999999;" width="844.8" x="48.6" y="111.8672"/><rect fill="none" height="148.473" style="stroke:#000000;stroke-width:0.8999999999999999;" width="407.7" x="479.7" y="221.3109"/><rect fill="none" height="76.7238" style="stroke:#000000;stroke-width:0.8999999999999999;" width="338.4" x="14.4" y="419.9332"/><line style="stroke:#181818;stroke-width:0.3;stroke-dasharray:5.0,5.0;" x1="111.6" x2="111.6" y1="34.3453" y2="506.857"/><line style="stroke:#181818;stroke-width:0.3;stroke-dasharray:5.0,5.0;" x1="258.6" x2="258.6" y1="34.3453" y2="506.857"/><line style="stroke:#181818;stroke-width:0.3;stroke-dasharray:5.0,5.0;" x1="421.8" x2="421.8" y1="81.8062" y2="506.857"/><line style="stroke:#181818;stroke-width:0.3;stroke-dasharray:5.0,5.0;" x1="549.3" x2="549.3" y1="34.3453" y2="506.857"/><line style="stroke:#181818;stroke-width:0.3;stroke-dasharray:5.0,5.0;" x1="688.2" x2="688.2" y1="204.4383" y2="506.857"/><line style="stroke:#181818;stroke-width:0.3;stroke-dasharray:5.0,5.0;" x1="759.6" x2="759.6" y1="34.3453" y2="506.857"/><line style="stroke:#181818;stroke-width:0.3;stroke-dasharray:5.0,5.0;" x1="835.8" x2="835.8" y1="34.3453" y2="506.857"/><rect fill="#E2E2F0" height="30.7453" rx="1.5" ry="1.5" style="stroke:#181818;stroke-width:0.3;" width="114" x="54.6" y="3"/><text fill="#000000" font-family="sans-serif" font-size="8.4" lengthAdjust="spacing" textLength="37.8" x="92.7" y="16.2645">&#171;Service&#187;</text><text fill="#000000" font-family="sans-serif" font-size="8.4" lengthAdjust="spacing" textLength="105.6" x="58.8" y="27.4371">FollowUpConnectionService</text><rect fill="#E2E2F0" height="30.7453" rx="1.5" ry="1.5" style="stroke:#181818;stroke-width:0.3;" width="114" x="54.6" y="506.257"/><text fill="#000000" font-family="sans-serif" font-size="8.4" lengthAdjust="spacing" textLength="37.8" x="92.7" y="519.5215">&#171;Service&#187;</text><text fill="#000000" font-family="sans-serif" font-size="8.4" lengthAdjust="spacing" textLength="105.6" x="58.8" y="530.6941">FollowUpConnectionService</text><rect fill="#E2E2F0" height="19.5727" rx="1.5" ry="1.5" style="stroke:#181818;stroke-width:0.3;" width="103.2" x="207" y="14.1727"/><text fill="#000000" font-family="sans-serif" font-size="8.4" lengthAdjust="spacing" textLength="94.8" x="211.2" y="27.4371">:ClientConnectionThread</text><rect fill="#E2E2F0" height="19.5727" rx="1.5" ry="1.5" style="stroke:#181818;stroke-width:0.3;" width="103.2" x="207" y="506.257"/><text fill="#000000" font-family="sans-serif" font-size="8.4" lengthAdjust="spacing" textLength="94.8" x="211.2" y="519.5215">:ClientConnectionThread</text><rect fill="#E2E2F0" height="19.5727" rx="1.5" ry="1.5" style="stroke:#181818;stroke-width:0.3;" width="79.8" x="382.2" y="506.257"/><text fill="#000000" font-family="sans-serif" font-size="8.4" lengthAdjust="spacing" textLength="71.4" x="386.4" y="519.5215">:NotificationThread</text><rect fill="#E2E2F0" height="30.7453" rx="1.5" ry="1.5" style="stroke:#181818;stroke-width:0.3;" width="127.2" x="485.7" y="3"/><text fill="#000000" font-family="sans-serif" font-size="8.4" lengthAdjust="spacing" textLength="37.8" x="530.4" y="16.2645">&#171;Service&#187;</text><text fill="#000000" font-family="sans-serif" font-size="8.4" lengthAdjust="spacing" textLength="118.8" x="489.9" y="27.4371">NotificationManagementService</text><rect fill="#E2E2F0" height="30.7453" rx="1.5" ry="1.5" style="stroke:#181818;stroke-width:0.3;" width="127.2" x="485.7" y="506.257"/><text fill="#000000" font-family="sans-serif" font-size="8.4" lengthAdjust="spacing" textLength="37.8" x="530.4" y="519.5215">&#171;Service&#187;</text><text fill="#000000" font-family="sans-serif" font-size="8.4" lengthAdjust="spacing" textLength="118.8" x="489.9" y="530.6941">NotificationManagementService</text><rect fill="#E2E2F0" height="30.7453" rx="1.5" ry="1.5" style="stroke:#181818;stroke-width:0.3;" width="81" x="648" y="506.257"/><text fill="#000000" font-family="sans-serif" font-size="8.4" lengthAdjust="spacing" textLength="43.2" x="666.9" y="519.5215">&#171;ArrayList&#187;</text><text fill="#000000" font-family="sans-serif" font-size="8.4" lengthAdjust="spacing" textLength="72.6" x="652.2" y="530.6941">NotificationListDTO</text><rect fill="#E2E2F0" height="30.7453" rx="1.5" ry="1.5" style="stroke:#181818;stroke-width:0.3;" width="49.8" x="735" y="3"/><text fill="#000000" font-family="sans-serif" font-size="8.4" lengthAdjust="spacing" textLength="38.4" x="740.7" y="16.2645">&#171;Domain&#187;</text><text fill="#000000" font-family="sans-serif" font-size="8.4" lengthAdjust="spacing" textLength="41.4" x="739.2" y="27.4371">Notification</text><rect fill="#E2E2F0" height="30.7453" rx="1.5" ry="1.5" style="stroke:#181818;stroke-width:0.3;" width="49.8" x="735" y="506.257"/><text fill="#000000" font-family="sans-serif" font-size="8.4" lengthAdjust="spacing" textLength="38.4" x="740.7" y="519.5215">&#171;Domain&#187;</text><text fill="#000000" font-family="sans-serif" font-size="8.4" lengthAdjust="spacing" textLength="41.4" x="739.2" y="530.6941">Notification</text><rect fill="#E2E2F0" height="30.7453" rx="1.5" ry="1.5" style="stroke:#181818;stroke-width:0.3;" width="90.6" x="790.8" y="3"/><text fill="#000000" font-family="sans-serif" font-size="8.4" lengthAdjust="spacing" textLength="37.8" x="817.2" y="16.2645">&#171;Service&#187;</text><text fill="#000000" font-family="sans-serif" font-size="8.4" lengthAdjust="spacing" textLength="82.2" x="795" y="27.4371">NotificationRepository</text><rect fill="#E2E2F0" height="30.7453" rx="1.5" ry="1.5" style="stroke:#181818;stroke-width:0.3;" width="90.6" x="790.8" y="506.257"/><text fill="#000000" font-family="sans-serif" font-size="8.4" lengthAdjust="spacing" textLength="37.8" x="817.2" y="519.5215">&#171;Service&#187;</text><text fill="#000000" font-family="sans-serif" font-size="8.4" lengthAdjust="spacing" textLength="82.2" x="795" y="530.6941">NotificationRepository</text><rect fill="#FFFFFF" height="406.9371" style="stroke:#181818;stroke-width:0.6;" width="6" x="108.6" y="40.3453"/><rect fill="#FFFFFF" height="46.7473" style="stroke:#181818;stroke-width:0.6;" width="6" x="255.6" y="56.1199"/><rect fill="#FFFFFF" height="40.3746" style="stroke:#181818;stroke-width:0.6;" width="6" x="255.6" y="447.2824"/><rect fill="#FFFFFF" height="398.5898" style="stroke:#181818;stroke-width:0.6;" width="6" x="419.1" y="102.8672"/><rect fill="#FFFFFF" height="364.0406" style="stroke:#181818;stroke-width:0.6;" width="6" x="546.3" y="137.4164"/><rect fill="#FFFFFF" height="18" style="stroke:#181818;stroke-width:0.6;" width="6" x="685.5" y="283.6348"/><rect fill="#FFFFFF" height="18" style="stroke:#181818;stroke-width:0.6;" width="6" x="756.9" y="246.8602"/><rect fill="#FFFFFF" height="18.7746" style="stroke:#181818;stroke-width:0.6;" width="6" x="833.1" y="156.191"/><rect fill="#FFFFFF" height="18" style="stroke:#181818;stroke-width:0.6;" width="6" x="833.1" y="346.984"/><polygon fill="#181818" points="248.4,53.7199,254.4,56.1199,248.4,58.5199,250.8,56.1199" style="stroke:#181818;stroke-width:0.6;"/><line style="stroke:#181818;stroke-width:0.6;" x1="114.6" x2="252" y1="56.1199" y2="56.1199"/><text fill="#000000" font-family="sans-serif" font-size="7.8" font-weight="bold" lengthAdjust="spacing" textLength="4.2" x="118.8" y="52.9623">1</text><text fill="#000000" font-family="sans-serif" font-size="7.8" lengthAdjust="spacing" textLength="123" x="125.4" y="52.9623">getAllNotifications(username, code)</text><path d="M3,43.3453 L3,59.5453 L105.6,59.5453 L105.6,49.3453 L99.6,43.3453 L3,43.3453 " fill="#FEFFDD" style="stroke:#181818;stroke-width:0.3;"/><path d="M99.6,43.3453 L99.6,49.3453 L105.6,49.3453 L99.6,43.3453 " fill="#FEFFDD" style="stroke:#181818;stroke-width:0.3;"/><text fill="#000000" font-family="sans-serif" font-size="7.8" lengthAdjust="spacing" textLength="90" x="6.6" y="54.7623">code = 6 (NOTIFICATION)</text><polygon fill="#181818" points="375,74.2945,381,76.6945,375,79.0945,377.4,76.6945" style="stroke:#181818;stroke-width:0.6;"/><line style="stroke:#181818;stroke-width:0.6;" x1="261.6" x2="378.6" y1="76.6945" y2="76.6945"/><text fill="#000000" font-family="sans-serif" font-size="7.8" font-weight="bold" lengthAdjust="spacing" textLength="4.2" x="265.8" y="73.5369">2</text><text fill="#000000" font-family="sans-serif" font-size="7.8" lengthAdjust="spacing" textLength="99.6" x="272.4" y="73.5369">createNotifThread(username)</text><rect fill="#E2E2F0" height="19.5727" rx="1.5" ry="1.5" style="stroke:#181818;stroke-width:0.3;" width="79.8" x="382.2" y="62.7199"/><text fill="#000000" font-family="sans-serif" font-size="8.4" lengthAdjust="spacing" textLength="71.4" x="386.4" y="75.9844">:NotificationThread</text><polygon fill="#181818" points="411.9,100.4672,417.9,102.8672,411.9,105.2672,414.3,102.8672" style="stroke:#181818;stroke-width:0.6;"/><line style="stroke:#181818;stroke-width:0.6;" x1="258.6" x2="415.5" y1="102.8672" y2="102.8672"/><text fill="#000000" font-family="sans-serif" font-size="7.8" font-weight="bold" lengthAdjust="spacing" textLength="4.2" x="262.8" y="99.7096">3</text><text fill="#000000" font-family="sans-serif" font-size="7.8" lengthAdjust="spacing" textLength="20.4" x="269.4" y="99.7096">start()</text><path d="M48.6,111.8672 L92.4,111.8672 L92.4,117.4418 L86.4,123.4418 L48.6,123.4418 L48.6,111.8672 " fill="#EEEEEE" style="stroke:#000000;stroke-width:0.8999999999999999;"/><rect fill="none" height="299.666" style="stroke:#000000;stroke-width:0.8999999999999999;" width="844.8" x="48.6" y="111.8672"/><text fill="#000000" font-family="sans-serif" font-size="7.8" font-weight="bold" lengthAdjust="spacing" textLength="16.8" x="57.6" y="120.8842">loop</text><text fill="#000000" font-family="sans-serif" font-size="6.6" font-weight="bold" lengthAdjust="spacing" textLength="48" x="101.4" y="120.1893">[Every minute]</text><path d="M896.4,114.8672 L896.4,141.2672 L1035.6,141.2672 L1035.6,120.8672 L1029.6,114.8672 L896.4,114.8672 " fill="#FEFFDD" style="stroke:#181818;stroke-width:0.3;"/><path d="M1029.6,114.8672 L1029.6,120.8672 L1035.6,120.8672 L1029.6,114.8672 " fill="#FEFFDD" style="stroke:#181818;stroke-width:0.3;"/><text fill="#000000" font-family="sans-serif" font-size="7.8" lengthAdjust="spacing" textLength="118.8" x="900" y="126.2842">sOut an ObjectOutputStream from</text><text fill="#000000" font-family="sans-serif" font-size="7.8" lengthAdjust="spacing" textLength="126.6" x="900" y="136.6588">the connection's sock OutputStream</text><polygon fill="#181818" points="539.1,135.0164,545.1,137.4164,539.1,139.8164,541.5,137.4164" style="stroke:#181818;stroke-width:0.6;"/><line style="stroke:#181818;stroke-width:0.6;" x1="425.1" x2="542.7" y1="137.4164" y2="137.4164"/><text fill="#000000" font-family="sans-serif" font-size="7.8" font-weight="bold" lengthAdjust="spacing" textLength="4.2" x="429.3" y="134.2588">4</text><text fill="#000000" font-family="sans-serif" font-size="7.8" lengthAdjust="spacing" textLength="103.2" x="435.9" y="134.2588">getAllNotifProcess(username)</text><polygon fill="#181818" points="825.9,153.791,831.9,156.191,825.9,158.591,828.3,156.191" style="stroke:#181818;stroke-width:0.6;"/><line style="stroke:#181818;stroke-width:0.6;" x1="552.3" x2="829.5" y1="156.191" y2="156.191"/><text fill="#000000" font-family="sans-serif" font-size="7.8" font-weight="bold" lengthAdjust="spacing" textLength="4.2" x="556.5" y="153.0334">5</text><text fill="#000000" font-family="sans-serif" font-size="7.8" lengthAdjust="spacing" textLength="175.2" x="563.1" y="153.0334">getAllUnseenNotificationWithUsername(username)</text><polygon fill="#181818" points="558.9,172.5656,552.9,174.9656,558.9,177.3656,556.5,174.9656" style="stroke:#181818;stroke-width:0.6;"/><line style="stroke:#181818;stroke-width:0.6;stroke-dasharray:2.0,2.0;" x1="555.3" x2="835.5" y1="174.9656" y2="174.9656"/><text fill="#000000" font-family="sans-serif" font-size="7.8" font-weight="bold" lengthAdjust="spacing" textLength="4.2" x="562.5" y="171.808">6</text><text fill="#000000" font-family="sans-serif" font-size="7.8" lengthAdjust="spacing" textLength="49.8" x="569.1" y="171.808">notificationList</text><polygon fill="#181818" points="640.8,191.3402,646.8,193.7402,640.8,196.1402,643.2,193.7402" style="stroke:#181818;stroke-width:0.6;"/><line style="stroke:#181818;stroke-width:0.6;" x1="552.3" x2="644.4" y1="193.7402" y2="193.7402"/><text fill="#000000" font-family="sans-serif" font-size="7.8" font-weight="bold" lengthAdjust="spacing" textLength="4.2" x="556.5" y="190.5826">7</text><text fill="#000000" font-family="sans-serif" font-size="7.8" lengthAdjust="spacing" textLength="52.2" x="563.1" y="190.5826">new ArrayList()</text><rect fill="#E2E2F0" height="30.7453" rx="1.5" ry="1.5" style="stroke:#181818;stroke-width:0.3;" width="81" x="648" y="179.7656"/><text fill="#000000" font-family="sans-serif" font-size="8.4" lengthAdjust="spacing" textLength="43.2" x="666.9" y="193.0301">&#171;ArrayList&#187;</text><text fill="#000000" font-family="sans-serif" font-size="8.4" lengthAdjust="spacing" textLength="72.6" x="652.2" y="204.2027">NotificationListDTO</text><path d="M479.7,221.3109 L523.5,221.3109 L523.5,226.8855 L517.5,232.8855 L479.7,232.8855 L479.7,221.3109 " fill="#EEEEEE" style="stroke:#000000;stroke-width:0.8999999999999999;"/><rect fill="none" height="148.473" style="stroke:#000000;stroke-width:0.8999999999999999;" width="407.7" x="479.7" y="221.3109"/><text fill="#000000" font-family="sans-serif" font-size="7.8" font-weight="bold" lengthAdjust="spacing" textLength="16.8" x="488.7" y="230.3279">loop</text><text fill="#000000" font-family="sans-serif" font-size="6.6" font-weight="bold" lengthAdjust="spacing" textLength="136.8" x="532.5" y="229.633">[for every notification in the list returned]</text><polygon fill="#181818" points="749.7,244.4602,755.7,246.8602,749.7,249.2602,752.1,246.8602" style="stroke:#181818;stroke-width:0.6;"/><line style="stroke:#181818;stroke-width:0.6;" x1="552.3" x2="753.3" y1="246.8602" y2="246.8602"/><text fill="#000000" font-family="sans-serif" font-size="7.8" font-weight="bold" lengthAdjust="spacing" textLength="4.2" x="556.5" y="243.7025">8</text><text fill="#000000" font-family="sans-serif" font-size="7.8" lengthAdjust="spacing" textLength="27" x="563.1" y="243.7025">toDTO()</text><polygon fill="#181818" points="678.3,281.2348,684.3,283.6348,678.3,286.0348,680.7,283.6348" style="stroke:#181818;stroke-width:0.6;"/><line style="stroke:#181818;stroke-width:0.6;" x1="552.3" x2="681.9" y1="283.6348" y2="283.6348"/><text fill="#000000" font-family="sans-serif" font-size="7.8" font-weight="bold" lengthAdjust="spacing" textLength="4.2" x="556.5" y="280.4771">9</text><text fill="#000000" font-family="sans-serif" font-size="7.8" lengthAdjust="spacing" textLength="87" x="563.1" y="280.4771">add(notificationList.get(i))</text><line style="stroke:#181818;stroke-width:0.6;" x1="552.3" x2="577.5" y1="320.4094" y2="320.4094"/><line style="stroke:#181818;stroke-width:0.6;" x1="577.5" x2="577.5" y1="320.4094" y2="328.2094"/><line style="stroke:#181818;stroke-width:0.6;" x1="552.9" x2="577.5" y1="328.2094" y2="328.2094"/><polygon fill="#181818" points="558.9,325.8094,552.9,328.2094,558.9,330.6094,556.5,328.2094" style="stroke:#181818;stroke-width:0.6;"/><text fill="#000000" font-family="sans-serif" font-size="7.8" font-weight="bold" lengthAdjust="spacing" textLength="8.4" x="556.5" y="317.2518">10</text><text fill="#000000" font-family="sans-serif" font-size="7.8" lengthAdjust="spacing" textLength="114" x="567.3" y="317.2518">notificationList.get(i).setToSeen()</text><polygon fill="#181818" points="825.9,344.584,831.9,346.984,825.9,349.384,828.3,346.984" style="stroke:#181818;stroke-width:0.6;"/><line style="stroke:#181818;stroke-width:0.6;" x1="552.3" x2="829.5" y1="346.984" y2="346.984"/><text fill="#000000" font-family="sans-serif" font-size="7.8" font-weight="bold" lengthAdjust="spacing" textLength="8.4" x="556.5" y="343.8264">11</text><text fill="#000000" font-family="sans-serif" font-size="7.8" lengthAdjust="spacing" textLength="90" x="567.3" y="343.8264">save(notificationList.get(i))</text><polygon fill="#181818" points="431.7,385.5586,425.7,387.9586,431.7,390.3586,429.3,387.9586" style="stroke:#181818;stroke-width:0.6;"/><line style="stroke:#181818;stroke-width:0.6;stroke-dasharray:2.0,2.0;" x1="428.1" x2="545.7" y1="387.9586" y2="387.9586"/><text fill="#000000" font-family="sans-serif" font-size="7.8" font-weight="bold" lengthAdjust="spacing" textLength="8.4" x="435.3" y="384.801">12</text><text fill="#000000" font-family="sans-serif" font-size="7.8" lengthAdjust="spacing" textLength="65.4" x="446.1" y="384.801">notificationListDTO</text><polygon fill="#181818" points="121.2,404.3332,115.2,406.7332,121.2,409.1332,118.8,406.7332" style="stroke:#181818;stroke-width:0.6;"/><line style="stroke:#181818;stroke-width:0.6;stroke-dasharray:2.0,2.0;" x1="117.6" x2="418.5" y1="406.7332" y2="406.7332"/><text fill="#000000" font-family="sans-serif" font-size="7.8" font-weight="bold" lengthAdjust="spacing" textLength="8.4" x="124.8" y="403.5756">13</text><text fill="#000000" font-family="sans-serif" font-size="7.8" lengthAdjust="spacing" textLength="128.4" x="135.6" y="403.5756">sOut.writeObject(notificationListDTO)</text><path d="M14.4,419.9332 L53.4,419.9332 L53.4,425.5078 L47.4,431.5078 L14.4,431.5078 L14.4,419.9332 " fill="#EEEEEE" style="stroke:#000000;stroke-width:0.8999999999999999;"/><rect fill="none" height="76.7238" style="stroke:#000000;stroke-width:0.8999999999999999;" width="338.4" x="14.4" y="419.9332"/><text fill="#000000" font-family="sans-serif" font-size="7.8" font-weight="bold" lengthAdjust="spacing" textLength="12" x="23.4" y="428.9502">opt</text><text fill="#000000" font-family="sans-serif" font-size="6.6" font-weight="bold" lengthAdjust="spacing" textLength="31.8" x="62.4" y="428.2553">["0 - Exit"]</text><polygon fill="#181818" points="248.4,444.8824,254.4,447.2824,248.4,449.6824,250.8,447.2824" style="stroke:#181818;stroke-width:0.6;"/><line style="stroke:#181818;stroke-width:0.6;" x1="111.6" x2="252" y1="447.2824" y2="447.2824"/><text fill="#000000" font-family="sans-serif" font-size="7.8" font-weight="bold" lengthAdjust="spacing" textLength="8.4" x="115.8" y="444.1248">14</text><text fill="#000000" font-family="sans-serif" font-size="7.8" lengthAdjust="spacing" textLength="79.2" x="126.6" y="444.1248">closeConnection(code)</text><path d="M20.4,434.5078 L20.4,450.7078 L105.6,450.7078 L105.6,440.5078 L99.6,434.5078 L20.4,434.5078 " fill="#FEFFDD" style="stroke:#181818;stroke-width:0.3;"/><path d="M99.6,434.5078 L99.6,440.5078 L105.6,440.5078 L99.6,434.5078 " fill="#FEFFDD" style="stroke:#181818;stroke-width:0.3;"/><text fill="#000000" font-family="sans-serif" font-size="7.8" lengthAdjust="spacing" textLength="72.6" x="24" y="445.9248">code = 1 (DISCONN)</text><line style="stroke:#181818;stroke-width:0.6;stroke-dasharray:2.0,2.0;" x1="261.6" x2="286.8" y1="467.857" y2="467.857"/><line style="stroke:#181818;stroke-width:0.6;stroke-dasharray:2.0,2.0;" x1="286.8" x2="286.8" y1="467.857" y2="475.657"/><line style="stroke:#181818;stroke-width:0.6;stroke-dasharray:2.0,2.0;" x1="262.2" x2="286.8" y1="475.657" y2="475.657"/><polygon fill="#181818" points="268.2,473.257,262.2,475.657,268.2,478.057,265.8,475.657" style="stroke:#181818;stroke-width:0.6;"/><text fill="#000000" font-family="sans-serif" font-size="7.8" font-weight="bold" lengthAdjust="spacing" textLength="8.4" x="265.8" y="464.6994">15</text><text fill="#000000" font-family="sans-serif" font-size="7.8" lengthAdjust="spacing" textLength="69" x="276.6" y="464.6994">clientSocket.close()</text><line style="stroke:#FFFFFF;stroke-width:0.6;" x1="261.6" x2="286.8" y1="487.057" y2="487.057"/><line style="stroke:#FFFFFF;stroke-width:0.6;" x1="286.8" x2="286.8" y1="487.057" y2="494.857"/><line style="stroke:#FFFFFF;stroke-width:0.6;" x1="258.6" x2="286.8" y1="494.857" y2="494.857"/><polygon fill="#FFFFFF" points="264.6,492.457,258.6,494.857,264.6,497.257,262.2,494.857" style="stroke:#FFFFFF;stroke-width:0.6;"/><!--SRC=[hLPDSzem4BtxLsZIGmnJI7lf8PComm2PCfFY37QcXxO7nLv0hIsvaWpDly_A9lx27xI9Jc3jU_kqkrhjvKxhM5rVNSKXvJg9mh4leYi5VnBWFem2HhUIHfP54oru4Zs2jAoOIiry5YE0NDpSk23tp8V9v0U_5M4e3W_nJ70ElcQ27pSl25N4NQohsEjPo83hmjhRIQ11QZoxMtfVrelfl0PP2SqspASryoRRYhGoxYlbT0iHkYxBMxbr-5HA-dJ7bAuJc6zppqbXTqlNgmFd8gACrr6PbpCrhY4MYcaXdpBOUd7lO1emJ7kg8OsbHKeBFv3Hf0WRkIPRqDCmB9CgEr4WEOtWFV5508Cg1nV87C96LxuQG_APV2Bsol6MjylPr5iwgq751dYGegjykTeYcPLzimh1g3xxDHoYU1zJgo4LdwKvbpuuYmGfbCP8spNp0FfKvVjjaaCXOhBOWtmY4UD9_THc5MfMRZKJzrBue5JNQN81M94dcsOXfs4s9P6JFt05KAcWRqpl7evUkjnLNMPrHbfMvdFqSYvUknFDm5B8C_ecerQNnO7DJHiEqIiSI7urxO7L2KsJjH6IG9gmicB2ED4xh7Ya8H9q8Za4dMITcwNCO6Yqm0PX3teHlGP5x5xFLSx4wzcAhE1vQH3OzN8OOsdQRF2MGKYxxLl68IKyDwzDDNyyv5Y1zeIBTx2l8azliA9xQ0_UFrH8z-LjlO-T26pj7Vt0JPj1tdBvwIFP3dvfaaXWNY-CWvFeyK4o3SxZBvm8x0QwzcAo_ki4wPidsNQdMqsCB48voKJXdpZHhiOtAI8RAQ9MdEajVZxRN2gYXF-RbF5Tae_lQQjo4UFuy86CoE8lqnUjPWrpWHyA1SNGPMUJG7-nc9cZhmIBDxKhtYSpnkcuyP7OywKxSrQhLcdDGqVpM70I0ZDukfWFqECq7XstjfXzSQGGyHdUlhyxxB2AVqxwuz4yZvmXHO9AelQpc-1WYLZMCm00]--></g></svg>