<?xml version="1.0" encoding="us-ascii" standalone="no"?><svg xmlns="http://www.w3.org/2000/svg" xmlns:xlink="http://www.w3.org/1999/xlink" contentStyleType="text/css" height="468.3px" preserveAspectRatio="none" style="width:941px;height:468px;background:#FFFFFF;" version="1.1" viewBox="0 0 941 468" width="941.5px" zoomAndPan="magnify"><defs/><g><rect fill="#FFFFFF" height="376.183" style="stroke:#181818;stroke-width:0.6999999999999998;" width="7" x="126.7" y="47.0695"/><rect fill="#FFFFFF" height="24.0037" style="stroke:#181818;stroke-width:0.6999999999999998;" width="7" x="298.2" y="65.4732"/><rect fill="#FFFFFF" height="52.0037" style="stroke:#181818;stroke-width:0.6999999999999998;" width="7" x="298.2" y="360.0488"/><rect fill="#FFFFFF" height="326.7756" style="stroke:#181818;stroke-width:0.6999999999999998;" width="7" x="493.15" y="96.477"/><rect fill="#FFFFFF" height="303.2408" style="stroke:#181818;stroke-width:0.6999999999999998;" width="7" x="641.55" y="120.0117"/><rect fill="#FFFFFF" height="21" style="stroke:#181818;stroke-width:0.6999999999999998;" width="7" x="873.95" y="141.9154"/><rect fill="none" height="66.4111" style="stroke:#000000;stroke-width:1.0499999999999998;" width="373.45" x="563.85" y="251.9303"/><rect fill="none" height="70.6111" style="stroke:#000000;stroke-width:1.0499999999999998;" width="394.8" x="16.8" y="328.1414"/><line style="stroke:#181818;stroke-width:0.3499999999999999;stroke-dasharray:5.0,5.0;" x1="130.2" x2="130.2" y1="40.0695" y2="429.5525"/><line style="stroke:#181818;stroke-width:0.3499999999999999;stroke-dasharray:5.0,5.0;" x1="301.7" x2="301.7" y1="40.0695" y2="429.5525"/><line style="stroke:#181818;stroke-width:0.3499999999999999;stroke-dasharray:5.0,5.0;" x1="496.3" x2="496.3" y1="95.4406" y2="429.5525"/><line style="stroke:#181818;stroke-width:0.3499999999999999;stroke-dasharray:5.0,5.0;" x1="645.05" x2="645.05" y1="40.0695" y2="429.5525"/><line style="stroke:#181818;stroke-width:0.3499999999999999;stroke-dasharray:5.0,5.0;" x1="877.1" x2="877.1" y1="40.0695" y2="429.5525"/><rect fill="#E2E2F0" height="35.8695" rx="1.75" ry="1.75" style="stroke:#181818;stroke-width:0.3499999999999999;" width="133" x="63.7" y="3.5"/><text fill="#000000" font-family="sans-serif" font-size="9.8" lengthAdjust="spacing" textLength="44.1" x="108.15" y="18.9752">&#171;Service&#187;</text><text fill="#000000" font-family="sans-serif" font-size="9.8" lengthAdjust="spacing" textLength="123.2" x="68.6" y="32.01">FollowUpConnectionService</text><rect fill="#E2E2F0" height="35.8695" rx="1.75" ry="1.75" style="stroke:#181818;stroke-width:0.3499999999999999;" width="133" x="63.7" y="428.8525"/><text fill="#000000" font-family="sans-serif" font-size="9.8" lengthAdjust="spacing" textLength="44.1" x="108.15" y="444.3277">&#171;Service&#187;</text><text fill="#000000" font-family="sans-serif" font-size="9.8" lengthAdjust="spacing" textLength="123.2" x="68.6" y="457.3625">FollowUpConnectionService</text><rect fill="#E2E2F0" height="22.8348" rx="1.75" ry="1.75" style="stroke:#181818;stroke-width:0.3499999999999999;" width="120.4" x="241.5" y="16.5348"/><text fill="#000000" font-family="sans-serif" font-size="9.8" lengthAdjust="spacing" textLength="110.6" x="246.4" y="32.01">:ClientConnectionThread</text><rect fill="#E2E2F0" height="22.8348" rx="1.75" ry="1.75" style="stroke:#181818;stroke-width:0.3499999999999999;" width="120.4" x="241.5" y="428.8525"/><text fill="#000000" font-family="sans-serif" font-size="9.8" lengthAdjust="spacing" textLength="110.6" x="246.4" y="444.3277">:ClientConnectionThread</text><rect fill="#E2E2F0" height="22.8348" rx="1.75" ry="1.75" style="stroke:#181818;stroke-width:0.3499999999999999;" width="93.1" x="450.1" y="428.8525"/><text fill="#000000" font-family="sans-serif" font-size="9.8" lengthAdjust="spacing" textLength="83.3" x="455" y="444.3277">:NotificationThread</text><rect fill="#E2E2F0" height="35.8695" rx="1.75" ry="1.75" style="stroke:#181818;stroke-width:0.3499999999999999;" width="148.4" x="570.85" y="3.5"/><text fill="#000000" font-family="sans-serif" font-size="9.8" lengthAdjust="spacing" textLength="44.1" x="623" y="18.9752">&#171;Service&#187;</text><text fill="#000000" font-family="sans-serif" font-size="9.8" lengthAdjust="spacing" textLength="138.6" x="575.75" y="32.01">NotificationManagementService</text><rect fill="#E2E2F0" height="35.8695" rx="1.75" ry="1.75" style="stroke:#181818;stroke-width:0.3499999999999999;" width="148.4" x="570.85" y="428.8525"/><text fill="#000000" font-family="sans-serif" font-size="9.8" lengthAdjust="spacing" textLength="44.1" x="623" y="444.3277">&#171;Service&#187;</text><text fill="#000000" font-family="sans-serif" font-size="9.8" lengthAdjust="spacing" textLength="138.6" x="575.75" y="457.3625">NotificationManagementService</text><rect fill="#E2E2F0" height="35.8695" rx="1.75" ry="1.75" style="stroke:#181818;stroke-width:0.3499999999999999;" width="105.7" x="824.6" y="3.5"/><text fill="#000000" font-family="sans-serif" font-size="9.8" lengthAdjust="spacing" textLength="44.1" x="855.4" y="18.9752">&#171;Service&#187;</text><text fill="#000000" font-family="sans-serif" font-size="9.8" lengthAdjust="spacing" textLength="95.9" x="829.5" y="32.01">NotificationRepository</text><rect fill="#E2E2F0" height="35.8695" rx="1.75" ry="1.75" style="stroke:#181818;stroke-width:0.3499999999999999;" width="105.7" x="824.6" y="428.8525"/><text fill="#000000" font-family="sans-serif" font-size="9.8" lengthAdjust="spacing" textLength="44.1" x="855.4" y="444.3277">&#171;Service&#187;</text><text fill="#000000" font-family="sans-serif" font-size="9.8" lengthAdjust="spacing" textLength="95.9" x="829.5" y="457.3625">NotificationRepository</text><rect fill="#FFFFFF" height="376.183" style="stroke:#181818;stroke-width:0.6999999999999998;" width="7" x="126.7" y="47.0695"/><rect fill="#FFFFFF" height="24.0037" style="stroke:#181818;stroke-width:0.6999999999999998;" width="7" x="298.2" y="65.4732"/><rect fill="#FFFFFF" height="52.0037" style="stroke:#181818;stroke-width:0.6999999999999998;" width="7" x="298.2" y="360.0488"/><rect fill="#FFFFFF" height="326.7756" style="stroke:#181818;stroke-width:0.6999999999999998;" width="7" x="493.15" y="96.477"/><rect fill="#FFFFFF" height="303.2408" style="stroke:#181818;stroke-width:0.6999999999999998;" width="7" x="641.55" y="120.0117"/><rect fill="#FFFFFF" height="21" style="stroke:#181818;stroke-width:0.6999999999999998;" width="7" x="873.95" y="141.9154"/><polygon fill="#181818" points="289.8,62.6732,296.8,65.4732,289.8,68.2732,292.6,65.4732" style="stroke:#181818;stroke-width:0.6999999999999998;"/><line style="stroke:#181818;stroke-width:0.6999999999999998;" x1="133.7" x2="294" y1="65.4732" y2="65.4732"/><text fill="#000000" font-family="sans-serif" font-size="9.1" font-weight="bold" lengthAdjust="spacing" textLength="4.9" x="138.6" y="61.7894">1</text><text fill="#000000" font-family="sans-serif" font-size="9.1" lengthAdjust="spacing" textLength="143.5" x="146.3" y="61.7894">getAllNotifications(username, code)</text><path d="M3.5,50.5695 L3.5,69.4695 L123.2,69.4695 L123.2,57.5695 L116.2,50.5695 L3.5,50.5695 " fill="#FEFFDD" style="stroke:#181818;stroke-width:0.3499999999999999;"/><path d="M116.2,50.5695 L116.2,57.5695 L123.2,57.5695 L116.2,50.5695 " fill="#FEFFDD" style="stroke:#181818;stroke-width:0.3499999999999999;"/><text fill="#000000" font-family="sans-serif" font-size="9.1" lengthAdjust="spacing" textLength="105" x="7.7" y="63.8894">code = 6 (NOTIFICATION)</text><polygon fill="#181818" points="441.7,86.677,448.7,89.477,441.7,92.277,444.5,89.477" style="stroke:#181818;stroke-width:0.6999999999999998;"/><line style="stroke:#181818;stroke-width:0.6999999999999998;" x1="301.7" x2="445.9" y1="89.477" y2="89.477"/><text fill="#000000" font-family="sans-serif" font-size="9.1" font-weight="bold" lengthAdjust="spacing" textLength="4.9" x="306.6" y="85.7931">2</text><text fill="#000000" font-family="sans-serif" font-size="9.1" lengthAdjust="spacing" textLength="120.4" x="314.3" y="85.7931">getAllNotifProcess(username)</text><rect fill="#E2E2F0" height="22.8348" rx="1.75" ry="1.75" style="stroke:#181818;stroke-width:0.3499999999999999;" width="93.1" x="450.1" y="73.1732"/><text fill="#000000" font-family="sans-serif" font-size="9.8" lengthAdjust="spacing" textLength="83.3" x="455" y="88.6484">:NotificationThread</text><polygon fill="#181818" points="633.15,117.2117,640.15,120.0117,633.15,122.8117,635.95,120.0117" style="stroke:#181818;stroke-width:0.6999999999999998;"/><line style="stroke:#181818;stroke-width:0.6999999999999998;" x1="500.15" x2="637.35" y1="120.0117" y2="120.0117"/><text fill="#000000" font-family="sans-serif" font-size="9.1" font-weight="bold" lengthAdjust="spacing" textLength="4.9" x="505.05" y="116.3278">3</text><text fill="#000000" font-family="sans-serif" font-size="9.1" lengthAdjust="spacing" textLength="120.4" x="512.75" y="116.3278">getAllNotifProcess(username)</text><polygon fill="#181818" points="865.55,139.1154,872.55,141.9154,865.55,144.7154,868.35,141.9154" style="stroke:#181818;stroke-width:0.6999999999999998;"/><line style="stroke:#181818;stroke-width:0.6999999999999998;" x1="648.55" x2="869.75" y1="141.9154" y2="141.9154"/><text fill="#000000" font-family="sans-serif" font-size="9.1" font-weight="bold" lengthAdjust="spacing" textLength="4.9" x="653.45" y="138.2315">4</text><text fill="#000000" font-family="sans-serif" font-size="9.1" lengthAdjust="spacing" textLength="204.4" x="661.15" y="138.2315">getAllUnseenNotificationWithUsername(username)</text><polygon fill="#181818" points="507.85,200.4229,500.85,203.2229,507.85,206.0229,505.05,203.2229" style="stroke:#181818;stroke-width:0.6999999999999998;"/><line style="stroke:#181818;stroke-width:0.6999999999999998;stroke-dasharray:2.0,2.0;" x1="503.65" x2="640.85" y1="203.2229" y2="203.2229"/><text fill="#000000" font-family="sans-serif" font-size="9.1" font-weight="bold" lengthAdjust="spacing" textLength="4.9" x="512.05" y="199.539">5</text><text fill="#000000" font-family="sans-serif" font-size="9.1" lengthAdjust="spacing" textLength="39.2" x="519.75" y="199.539">notifList[i]</text><polygon fill="#181818" points="141.4,230.4784,134.4,233.2784,141.4,236.0784,138.6,233.2784" style="stroke:#181818;stroke-width:0.6999999999999998;"/><line style="stroke:#181818;stroke-width:0.6999999999999998;stroke-dasharray:2.0,2.0;" x1="137.2" x2="492.45" y1="233.2784" y2="233.2784"/><text fill="#000000" font-family="sans-serif" font-size="9.1" font-weight="bold" lengthAdjust="spacing" textLength="4.9" x="145.6" y="229.5945">6</text><text fill="#000000" font-family="sans-serif" font-size="9.1" lengthAdjust="spacing" textLength="130.9" x="153.3" y="229.5945">sOut.writeObject(notifList[i]DTO)</text><path d="M503.3,212.3229 L503.3,243.1229 L665.7,243.1229 L665.7,219.3229 L658.7,212.3229 L503.3,212.3229 " fill="#FEFFDD" style="stroke:#181818;stroke-width:0.3499999999999999;"/><path d="M658.7,212.3229 L658.7,219.3229 L665.7,219.3229 L658.7,212.3229 " fill="#FEFFDD" style="stroke:#181818;stroke-width:0.3499999999999999;"/><text fill="#000000" font-family="sans-serif" font-size="9.1" lengthAdjust="spacing" textLength="138.6" x="507.5" y="225.6427">sOut an ObjectOutputStream from</text><text fill="#000000" font-family="sans-serif" font-size="9.1" lengthAdjust="spacing" textLength="147.7" x="507.5" y="237.7464">the connection's sock OutputStream</text><path d="M563.85,251.9303 L606.55,251.9303 L606.55,258.434 L599.55,265.434 L563.85,265.434 L563.85,251.9303 " fill="#EEEEEE" style="stroke:#000000;stroke-width:1.0499999999999998;"/><rect fill="none" height="66.4111" style="stroke:#000000;stroke-width:1.0499999999999998;" width="373.45" x="563.85" y="251.9303"/><text fill="#000000" font-family="sans-serif" font-size="9.1" font-weight="bold" lengthAdjust="spacing" textLength="11.2" x="574.35" y="262.4501">alt</text><text fill="#000000" font-family="sans-serif" font-size="7.7" font-weight="bold" lengthAdjust="spacing" textLength="171.5" x="617.05" y="261.6394">[only if no problem occurred while showing]</text><line style="stroke:#181818;stroke-width:0.6999999999999998;" x1="648.55" x2="677.95" y1="281.7377" y2="281.7377"/><line style="stroke:#181818;stroke-width:0.6999999999999998;" x1="677.95" x2="677.95" y1="281.7377" y2="290.8377"/><line style="stroke:#181818;stroke-width:0.6999999999999998;" x1="649.25" x2="677.95" y1="290.8377" y2="290.8377"/><polygon fill="#181818" points="656.25,288.0377,649.25,290.8377,656.25,293.6377,653.45,290.8377" style="stroke:#181818;stroke-width:0.6999999999999998;"/><text fill="#000000" font-family="sans-serif" font-size="9.1" font-weight="bold" lengthAdjust="spacing" textLength="4.9" x="653.45" y="278.0538">7</text><text fill="#000000" font-family="sans-serif" font-size="9.1" lengthAdjust="spacing" textLength="91" x="661.15" y="278.0538">notifList[i].setToSeen()</text><polygon fill="#181818" points="869.05,309.9414,876.05,312.7414,869.05,315.5414,871.85,312.7414" style="stroke:#181818;stroke-width:0.6999999999999998;"/><line style="stroke:#181818;stroke-width:0.6999999999999998;" x1="648.55" x2="873.25" y1="312.7414" y2="312.7414"/><text fill="#000000" font-family="sans-serif" font-size="9.1" font-weight="bold" lengthAdjust="spacing" textLength="4.9" x="653.45" y="309.0575">8</text><text fill="#000000" font-family="sans-serif" font-size="9.1" lengthAdjust="spacing" textLength="63" x="661.15" y="309.0575">save(notifList[i])</text><path d="M16.8,328.1414 L62.3,328.1414 L62.3,334.6451 L55.3,341.6451 L16.8,341.6451 L16.8,328.1414 " fill="#EEEEEE" style="stroke:#000000;stroke-width:1.0499999999999998;"/><rect fill="none" height="70.6111" style="stroke:#000000;stroke-width:1.0499999999999998;" width="394.8" x="16.8" y="328.1414"/><text fill="#000000" font-family="sans-serif" font-size="9.1" font-weight="bold" lengthAdjust="spacing" textLength="14" x="27.3" y="338.6612">opt</text><text fill="#000000" font-family="sans-serif" font-size="7.7" font-weight="bold" lengthAdjust="spacing" textLength="37.1" x="72.8" y="337.8505">["0 - Exit"]</text><polygon fill="#181818" points="289.8,357.2488,296.8,360.0488,289.8,362.8488,292.6,360.0488" style="stroke:#181818;stroke-width:0.6999999999999998;"/><line style="stroke:#181818;stroke-width:0.6999999999999998;" x1="133.7" x2="294" y1="360.0488" y2="360.0488"/><text fill="#000000" font-family="sans-serif" font-size="9.1" font-weight="bold" lengthAdjust="spacing" textLength="4.9" x="138.6" y="356.3649">9</text><text fill="#000000" font-family="sans-serif" font-size="9.1" lengthAdjust="spacing" textLength="92.4" x="146.3" y="356.3649">closeConnection(code)</text><path d="M23.8,345.1451 L23.8,364.0451 L123.2,364.0451 L123.2,352.1451 L116.2,345.1451 L23.8,345.1451 " fill="#FEFFDD" style="stroke:#181818;stroke-width:0.3499999999999999;"/><path d="M116.2,345.1451 L116.2,352.1451 L123.2,352.1451 L116.2,345.1451 " fill="#FEFFDD" style="stroke:#181818;stroke-width:0.3499999999999999;"/><text fill="#000000" font-family="sans-serif" font-size="9.1" lengthAdjust="spacing" textLength="84.7" x="28" y="358.4649">code = 1 (DISCONN)</text><line style="stroke:#181818;stroke-width:0.6999999999999998;stroke-dasharray:2.0,2.0;" x1="305.2" x2="334.6" y1="384.0525" y2="384.0525"/><line style="stroke:#181818;stroke-width:0.6999999999999998;stroke-dasharray:2.0,2.0;" x1="334.6" x2="334.6" y1="384.0525" y2="393.1525"/><line style="stroke:#181818;stroke-width:0.6999999999999998;stroke-dasharray:2.0,2.0;" x1="305.9" x2="334.6" y1="393.1525" y2="393.1525"/><polygon fill="#181818" points="312.9,390.3525,305.9,393.1525,312.9,395.9525,310.1,393.1525" style="stroke:#181818;stroke-width:0.6999999999999998;"/><text fill="#000000" font-family="sans-serif" font-size="9.1" font-weight="bold" lengthAdjust="spacing" textLength="9.8" x="310.1" y="380.3687">10</text><text fill="#000000" font-family="sans-serif" font-size="9.1" lengthAdjust="spacing" textLength="80.5" x="322.7" y="380.3687">clientSocket.close()</text><line style="stroke:#FFFFFF;stroke-width:0.6999999999999998;" x1="305.2" x2="334.6" y1="411.3525" y2="411.3525"/><line style="stroke:#FFFFFF;stroke-width:0.6999999999999998;" x1="334.6" x2="334.6" y1="411.3525" y2="420.4525"/><line style="stroke:#FFFFFF;stroke-width:0.6999999999999998;" x1="301.7" x2="334.6" y1="420.4525" y2="420.4525"/><polygon fill="#FFFFFF" points="308.7,417.6525,301.7,420.4525,308.7,423.2525,305.9,420.4525" style="stroke:#FFFFFF;stroke-width:0.6999999999999998;"/><!--SRC=[dLN1Rjf04Btp5QFq41CrfBtqW5AaY10LAOK84_MGvh0n0zvslUFkZaFpznr3WcrY4wTx0k-yjs_sFO-FO-RKzy_EKgCiPudfHPISUVoJeOtmTA7Logcaqr4PaysI1tITJgeSwqYd0e2Zy_CGtQEES33uQQ_865hVfaEo5YFMP9ytZq1v24UpAhO_D1ej5zNpsA5QR8g7r-Fvjzdeud8FCY7MInsflVAwsegqCkwxicg5YHnTbZS9My9dc9BNJEvfYvkDRgPoGzB1esBSjDc1qf87S3eeEe8-h90lZ2cJ-Y3pwAnAy2D4jC1kbSEIC1jSSkLfNWXVuGi4a-byV3KUNip7qqctKeDsiK5N-NPgYtkkxEUh42pgjxzEJghYRnn5w0ljUweN-DOvk_qc4OM2IVYkioliukshpNm9PywSExWZlxKUiMBu3ytnxVCfXuwh7hcDHLrDwLeEL1cY59RaGAhZt4Az16s1Omc2zWnAZ5t7sY3aac11wEqnIqZK8zOpldIyirDwtl1U2z-Tlcz6lRWWo3pDVV3JZ7jhfncd3x_avGtAF9VpQRUPQnDbfrSnDvRaxD8VRBdbJvfnoFAo9x1qb3JYyhk9TjFas8Edw3UKyOtG-jUaugnX86kUG7om1AcZ1uC9K1Hbpk6B5pwcjRQhPffIxCAz- -zvv3c5ahwWsuhWERTU7AyOS00jVHveiKKismSuNvJA9Fq4fp3wg_cekQvcHaQ6F1RVXg1cAhunqGucyDKmhHcido6u78V3wMHlfhulEAKv-gh5_FiNIaYHUvj-W_-sRlU11i-KjX5pzq4YotW_Q75bzPEyZHg7Fakmymy0]--></g></svg>