<?xml version="1.0" encoding="us-ascii" standalone="no"?><svg xmlns="http://www.w3.org/2000/svg" xmlns:xlink="http://www.w3.org/1999/xlink" contentStyleType="text/css" height="745.6px" preserveAspectRatio="none" style="width:1386px;height:745px;background:#FFFFFF;" version="1.1" viewBox="0 0 1386 745" width="1386.4px" zoomAndPan="magnify"><defs/><g><rect fill="#FFFFFF" height="567.6156" style="stroke:#181818;stroke-width:0.8000000000000002;" width="8" x="144.8" y="53.7938"/><rect fill="#FFFFFF" height="62.3297" style="stroke:#181818;stroke-width:0.8000000000000002;" width="8" x="340.8" y="74.8266"/><rect fill="#FFFFFF" height="53.8328" style="stroke:#181818;stroke-width:0.8000000000000002;" width="8" x="340.8" y="621.4094"/><rect fill="#FFFFFF" height="556.4859" style="stroke:#181818;stroke-width:0.8000000000000002;" width="8" x="558.8" y="137.1563"/><rect fill="#FFFFFF" height="510.4203" style="stroke:#181818;stroke-width:0.8000000000000002;" width="8" x="728.4" y="183.2219"/><rect fill="#FFFFFF" height="24" style="stroke:#181818;stroke-width:0.8000000000000002;" width="8" x="914" y="403.2125"/><rect fill="#FFFFFF" height="24" style="stroke:#181818;stroke-width:0.8000000000000002;" width="8" x="1009.2" y="354.1797"/><rect fill="#FFFFFF" height="25.0328" style="stroke:#181818;stroke-width:0.8000000000000002;" width="8" x="1110.8" y="208.2547"/><rect fill="#FFFFFF" height="24" style="stroke:#181818;stroke-width:0.8000000000000002;" width="8" x="1110.8" y="487.6781"/><rect fill="none" height="424.5875" style="stroke:#000000;stroke-width:1.2000000000000002;" width="1126.4" x="64.8" y="149.1563"/><rect fill="none" height="222.9969" style="stroke:#000000;stroke-width:1.2000000000000002;" width="543.6" x="639.6" y="295.0813"/><rect fill="none" height="102.2984" style="stroke:#000000;stroke-width:1.2000000000000002;" width="451.2" x="19.2" y="584.9438"/><line style="stroke:#181818;stroke-width:0.4000000000000001;stroke-dasharray:5.0,5.0;" x1="148.8" x2="148.8" y1="45.7938" y2="700.8422"/><line style="stroke:#181818;stroke-width:0.4000000000000001;stroke-dasharray:5.0,5.0;" x1="344.8" x2="344.8" y1="45.7938" y2="700.8422"/><line style="stroke:#181818;stroke-width:0.4000000000000001;stroke-dasharray:5.0,5.0;" x1="562.4" x2="562.4" y1="109.075" y2="700.8422"/><line style="stroke:#181818;stroke-width:0.4000000000000001;stroke-dasharray:5.0,5.0;" x1="732.4" x2="732.4" y1="45.7938" y2="700.8422"/><line style="stroke:#181818;stroke-width:0.4000000000000001;stroke-dasharray:5.0,5.0;" x1="917.6" x2="917.6" y1="272.5844" y2="700.8422"/><line style="stroke:#181818;stroke-width:0.4000000000000001;stroke-dasharray:5.0,5.0;" x1="1012.8" x2="1012.8" y1="45.7938" y2="700.8422"/><line style="stroke:#181818;stroke-width:0.4000000000000001;stroke-dasharray:5.0,5.0;" x1="1114.4" x2="1114.4" y1="45.7938" y2="700.8422"/><rect fill="#E2E2F0" height="40.9938" rx="2" ry="2" style="stroke:#181818;stroke-width:0.4000000000000001;" width="152" x="72.8" y="4"/><text fill="#000000" font-family="sans-serif" font-size="11.2" lengthAdjust="spacing" textLength="50.4" x="123.6" y="21.6859">&#171;Service&#187;</text><text fill="#000000" font-family="sans-serif" font-size="11.2" lengthAdjust="spacing" textLength="140.8" x="78.4" y="36.5828">FollowUpConnectionService</text><rect fill="#E2E2F0" height="40.9938" rx="2" ry="2" style="stroke:#181818;stroke-width:0.4000000000000001;" width="152" x="72.8" y="700.0422"/><text fill="#000000" font-family="sans-serif" font-size="11.2" lengthAdjust="spacing" textLength="50.4" x="123.6" y="717.7281">&#171;Service&#187;</text><text fill="#000000" font-family="sans-serif" font-size="11.2" lengthAdjust="spacing" textLength="140.8" x="78.4" y="732.625">FollowUpConnectionService</text><rect fill="#E2E2F0" height="26.0969" rx="2" ry="2" style="stroke:#181818;stroke-width:0.4000000000000001;" width="137.6" x="276" y="18.8969"/><text fill="#000000" font-family="sans-serif" font-size="11.2" lengthAdjust="spacing" textLength="126.4" x="281.6" y="36.5828">:ClientConnectionThread</text><rect fill="#E2E2F0" height="26.0969" rx="2" ry="2" style="stroke:#181818;stroke-width:0.4000000000000001;" width="137.6" x="276" y="700.0422"/><text fill="#000000" font-family="sans-serif" font-size="11.2" lengthAdjust="spacing" textLength="126.4" x="281.6" y="717.7281">:ClientConnectionThread</text><rect fill="#E2E2F0" height="26.0969" rx="2" ry="2" style="stroke:#181818;stroke-width:0.4000000000000001;" width="106.4" x="509.6" y="700.0422"/><text fill="#000000" font-family="sans-serif" font-size="11.2" lengthAdjust="spacing" textLength="95.2" x="515.2" y="717.7281">:NotificationThread</text><rect fill="#E2E2F0" height="40.9938" rx="2" ry="2" style="stroke:#181818;stroke-width:0.4000000000000001;" width="169.6" x="647.6" y="4"/><text fill="#000000" font-family="sans-serif" font-size="11.2" lengthAdjust="spacing" textLength="50.4" x="707.2" y="21.6859">&#171;Service&#187;</text><text fill="#000000" font-family="sans-serif" font-size="11.2" lengthAdjust="spacing" textLength="158.4" x="653.2" y="36.5828">NotificationManagementService</text><rect fill="#E2E2F0" height="40.9938" rx="2" ry="2" style="stroke:#181818;stroke-width:0.4000000000000001;" width="169.6" x="647.6" y="700.0422"/><text fill="#000000" font-family="sans-serif" font-size="11.2" lengthAdjust="spacing" textLength="50.4" x="707.2" y="717.7281">&#171;Service&#187;</text><text fill="#000000" font-family="sans-serif" font-size="11.2" lengthAdjust="spacing" textLength="158.4" x="653.2" y="732.625">NotificationManagementService</text><rect fill="#E2E2F0" height="40.9938" rx="2" ry="2" style="stroke:#181818;stroke-width:0.4000000000000001;" width="108" x="864" y="700.0422"/><text fill="#000000" font-family="sans-serif" font-size="11.2" lengthAdjust="spacing" textLength="57.6" x="889.2" y="717.7281">&#171;ArrayList&#187;</text><text fill="#000000" font-family="sans-serif" font-size="11.2" lengthAdjust="spacing" textLength="96.8" x="869.6" y="732.625">NotificationListDTO</text><rect fill="#E2E2F0" height="40.9938" rx="2" ry="2" style="stroke:#181818;stroke-width:0.4000000000000001;" width="66.4" x="980" y="4"/><text fill="#000000" font-family="sans-serif" font-size="11.2" lengthAdjust="spacing" textLength="51.2" x="987.6" y="21.6859">&#171;Domain&#187;</text><text fill="#000000" font-family="sans-serif" font-size="11.2" lengthAdjust="spacing" textLength="55.2" x="985.6" y="36.5828">Notification</text><rect fill="#E2E2F0" height="40.9938" rx="2" ry="2" style="stroke:#181818;stroke-width:0.4000000000000001;" width="66.4" x="980" y="700.0422"/><text fill="#000000" font-family="sans-serif" font-size="11.2" lengthAdjust="spacing" textLength="51.2" x="987.6" y="717.7281">&#171;Domain&#187;</text><text fill="#000000" font-family="sans-serif" font-size="11.2" lengthAdjust="spacing" textLength="55.2" x="985.6" y="732.625">Notification</text><rect fill="#E2E2F0" height="40.9938" rx="2" ry="2" style="stroke:#181818;stroke-width:0.4000000000000001;" width="120.8" x="1054.4" y="4"/><text fill="#000000" font-family="sans-serif" font-size="11.2" lengthAdjust="spacing" textLength="50.4" x="1089.6" y="21.6859">&#171;Service&#187;</text><text fill="#000000" font-family="sans-serif" font-size="11.2" lengthAdjust="spacing" textLength="109.6" x="1060" y="36.5828">NotificationRepository</text><rect fill="#E2E2F0" height="40.9938" rx="2" ry="2" style="stroke:#181818;stroke-width:0.4000000000000001;" width="120.8" x="1054.4" y="700.0422"/><text fill="#000000" font-family="sans-serif" font-size="11.2" lengthAdjust="spacing" textLength="50.4" x="1089.6" y="717.7281">&#171;Service&#187;</text><text fill="#000000" font-family="sans-serif" font-size="11.2" lengthAdjust="spacing" textLength="109.6" x="1060" y="732.625">NotificationRepository</text><rect fill="#FFFFFF" height="567.6156" style="stroke:#181818;stroke-width:0.8000000000000002;" width="8" x="144.8" y="53.7938"/><rect fill="#FFFFFF" height="62.3297" style="stroke:#181818;stroke-width:0.8000000000000002;" width="8" x="340.8" y="74.8266"/><rect fill="#FFFFFF" height="53.8328" style="stroke:#181818;stroke-width:0.8000000000000002;" width="8" x="340.8" y="621.4094"/><rect fill="#FFFFFF" height="556.4859" style="stroke:#181818;stroke-width:0.8000000000000002;" width="8" x="558.8" y="137.1563"/><rect fill="#FFFFFF" height="510.4203" style="stroke:#181818;stroke-width:0.8000000000000002;" width="8" x="728.4" y="183.2219"/><rect fill="#FFFFFF" height="24" style="stroke:#181818;stroke-width:0.8000000000000002;" width="8" x="914" y="403.2125"/><rect fill="#FFFFFF" height="24" style="stroke:#181818;stroke-width:0.8000000000000002;" width="8" x="1009.2" y="354.1797"/><rect fill="#FFFFFF" height="25.0328" style="stroke:#181818;stroke-width:0.8000000000000002;" width="8" x="1110.8" y="208.2547"/><rect fill="#FFFFFF" height="24" style="stroke:#181818;stroke-width:0.8000000000000002;" width="8" x="1110.8" y="487.6781"/><polygon fill="#181818" points="331.2,71.6266,339.2,74.8266,331.2,78.0266,334.4,74.8266" style="stroke:#181818;stroke-width:0.8000000000000002;"/><line style="stroke:#181818;stroke-width:0.8000000000000002;" x1="152.8" x2="336" y1="74.8266" y2="74.8266"/><text fill="#000000" font-family="sans-serif" font-size="10.4" font-weight="bold" lengthAdjust="spacing" textLength="5.6" x="158.4" y="70.6164">1</text><text fill="#000000" font-family="sans-serif" font-size="10.4" lengthAdjust="spacing" textLength="164" x="167.2" y="70.6164">getAllNotifications(username, code)</text><path d="M4,57.7938 L4,79.3938 L140.8,79.3938 L140.8,65.7938 L132.8,57.7938 L4,57.7938 " fill="#FEFFDD" style="stroke:#181818;stroke-width:0.4000000000000001;"/><path d="M132.8,57.7938 L132.8,65.7938 L140.8,65.7938 L132.8,57.7938 " fill="#FEFFDD" style="stroke:#181818;stroke-width:0.4000000000000001;"/><text fill="#000000" font-family="sans-serif" font-size="10.4" lengthAdjust="spacing" textLength="120" x="8.8" y="73.0164">code = 6 (NOTIFICATION)</text><polygon fill="#181818" points="500,99.0594,508,102.2594,500,105.4594,503.2,102.2594" style="stroke:#181818;stroke-width:0.8000000000000002;"/><line style="stroke:#181818;stroke-width:0.8000000000000002;" x1="348.8" x2="504.8" y1="102.2594" y2="102.2594"/><text fill="#000000" font-family="sans-serif" font-size="10.4" font-weight="bold" lengthAdjust="spacing" textLength="5.6" x="354.4" y="98.0492">2</text><text fill="#000000" font-family="sans-serif" font-size="10.4" lengthAdjust="spacing" textLength="132.8" x="363.2" y="98.0492">createNotifThread(username)</text><rect fill="#E2E2F0" height="26.0969" rx="2" ry="2" style="stroke:#181818;stroke-width:0.4000000000000001;" width="106.4" x="509.6" y="83.6266"/><text fill="#000000" font-family="sans-serif" font-size="11.2" lengthAdjust="spacing" textLength="95.2" x="515.2" y="101.3125">:NotificationThread</text><polygon fill="#181818" points="549.2,133.9563,557.2,137.1563,549.2,140.3563,552.4,137.1563" style="stroke:#181818;stroke-width:0.8000000000000002;"/><line style="stroke:#181818;stroke-width:0.8000000000000002;" x1="344.8" x2="554" y1="137.1563" y2="137.1563"/><text fill="#000000" font-family="sans-serif" font-size="10.4" font-weight="bold" lengthAdjust="spacing" textLength="5.6" x="350.4" y="132.9461">3</text><text fill="#000000" font-family="sans-serif" font-size="10.4" lengthAdjust="spacing" textLength="27.2" x="359.2" y="132.9461">start()</text><path d="M64.8,149.1563 L123.2,149.1563 L123.2,156.5891 L115.2,164.5891 L64.8,164.5891 L64.8,149.1563 " fill="#EEEEEE" style="stroke:#000000;stroke-width:1.2000000000000002;"/><rect fill="none" height="424.5875" style="stroke:#000000;stroke-width:1.2000000000000002;" width="1126.4" x="64.8" y="149.1563"/><text fill="#000000" font-family="sans-serif" font-size="10.4" font-weight="bold" lengthAdjust="spacing" textLength="22.4" x="76.8" y="161.1789">loop</text><text fill="#000000" font-family="sans-serif" font-size="8.8" font-weight="bold" lengthAdjust="spacing" textLength="64" x="135.2" y="160.2523">[Every minute]</text><path d="M1195.2,153.1563 L1195.2,188.3563 L1380.8,188.3563 L1380.8,161.1563 L1372.8,153.1563 L1195.2,153.1563 " fill="#FEFFDD" style="stroke:#181818;stroke-width:0.4000000000000001;"/><path d="M1372.8,153.1563 L1372.8,161.1563 L1380.8,161.1563 L1372.8,153.1563 " fill="#FEFFDD" style="stroke:#181818;stroke-width:0.4000000000000001;"/><text fill="#000000" font-family="sans-serif" font-size="10.4" lengthAdjust="spacing" textLength="158.4" x="1200" y="168.3789">sOut an ObjectOutputStream from</text><text fill="#000000" font-family="sans-serif" font-size="10.4" lengthAdjust="spacing" textLength="168.8" x="1200" y="182.2117">the connection's sock OutputStream</text><polygon fill="#181818" points="718.8,180.0219,726.8,183.2219,718.8,186.4219,722,183.2219" style="stroke:#181818;stroke-width:0.8000000000000002;"/><line style="stroke:#181818;stroke-width:0.8000000000000002;" x1="566.8" x2="723.6" y1="183.2219" y2="183.2219"/><text fill="#000000" font-family="sans-serif" font-size="10.4" font-weight="bold" lengthAdjust="spacing" textLength="5.6" x="572.4" y="179.0117">4</text><text fill="#000000" font-family="sans-serif" font-size="10.4" lengthAdjust="spacing" textLength="137.6" x="581.2" y="179.0117">getAllNotifProcess(username)</text><polygon fill="#181818" points="1101.2,205.0547,1109.2,208.2547,1101.2,211.4547,1104.4,208.2547" style="stroke:#181818;stroke-width:0.8000000000000002;"/><line style="stroke:#181818;stroke-width:0.8000000000000002;" x1="736.4" x2="1106" y1="208.2547" y2="208.2547"/><text fill="#000000" font-family="sans-serif" font-size="10.4" font-weight="bold" lengthAdjust="spacing" textLength="5.6" x="742" y="204.0445">5</text><text fill="#000000" font-family="sans-serif" font-size="10.4" lengthAdjust="spacing" textLength="233.6" x="750.8" y="204.0445">getAllUnseenNotificationWithUsername(username)</text><polygon fill="#181818" points="745.2,230.0875,737.2,233.2875,745.2,236.4875,742,233.2875" style="stroke:#181818;stroke-width:0.8000000000000002;"/><line style="stroke:#181818;stroke-width:0.8000000000000002;stroke-dasharray:2.0,2.0;" x1="740.4" x2="1114" y1="233.2875" y2="233.2875"/><text fill="#000000" font-family="sans-serif" font-size="10.4" font-weight="bold" lengthAdjust="spacing" textLength="5.6" x="750" y="229.0773">6</text><text fill="#000000" font-family="sans-serif" font-size="10.4" lengthAdjust="spacing" textLength="66.4" x="758.8" y="229.0773">notificationList</text><polygon fill="#181818" points="854.4,255.1203,862.4,258.3203,854.4,261.5203,857.6,258.3203" style="stroke:#181818;stroke-width:0.8000000000000002;"/><line style="stroke:#181818;stroke-width:0.8000000000000002;" x1="736.4" x2="859.2" y1="258.3203" y2="258.3203"/><text fill="#000000" font-family="sans-serif" font-size="10.4" font-weight="bold" lengthAdjust="spacing" textLength="5.6" x="742" y="254.1102">7</text><text fill="#000000" font-family="sans-serif" font-size="10.4" lengthAdjust="spacing" textLength="69.6" x="750.8" y="254.1102">new ArrayList()</text><rect fill="#E2E2F0" height="40.9938" rx="2" ry="2" style="stroke:#181818;stroke-width:0.4000000000000001;" width="108" x="864" y="239.6875"/><text fill="#000000" font-family="sans-serif" font-size="11.2" lengthAdjust="spacing" textLength="57.6" x="889.2" y="257.3734">&#171;ArrayList&#187;</text><text fill="#000000" font-family="sans-serif" font-size="11.2" lengthAdjust="spacing" textLength="96.8" x="869.6" y="272.2703">NotificationListDTO</text><path d="M639.6,295.0813 L698,295.0813 L698,302.5141 L690,310.5141 L639.6,310.5141 L639.6,295.0813 " fill="#EEEEEE" style="stroke:#000000;stroke-width:1.2000000000000002;"/><rect fill="none" height="222.9969" style="stroke:#000000;stroke-width:1.2000000000000002;" width="543.6" x="639.6" y="295.0813"/><text fill="#000000" font-family="sans-serif" font-size="10.4" font-weight="bold" lengthAdjust="spacing" textLength="22.4" x="651.6" y="307.1039">loop</text><text fill="#000000" font-family="sans-serif" font-size="8.8" font-weight="bold" lengthAdjust="spacing" textLength="182.4" x="710" y="306.1773">[for every notification in the list returned]</text><polygon fill="#181818" points="1003.6,325.9469,1011.6,329.1469,1003.6,332.3469,1006.8,329.1469" style="stroke:#181818;stroke-width:0.8000000000000002;"/><line style="stroke:#181818;stroke-width:0.8000000000000002;" x1="736.4" x2="1008.4" y1="329.1469" y2="329.1469"/><text fill="#000000" font-family="sans-serif" font-size="10.4" font-weight="bold" lengthAdjust="spacing" textLength="5.6" x="742" y="324.9367">8</text><text fill="#000000" font-family="sans-serif" font-size="10.4" lengthAdjust="spacing" textLength="36" x="750.8" y="324.9367">toDTO()</text><polygon fill="#181818" points="745.2,350.9797,737.2,354.1797,745.2,357.3797,742,354.1797" style="stroke:#181818;stroke-width:0.8000000000000002;"/><line style="stroke:#181818;stroke-width:0.8000000000000002;stroke-dasharray:2.0,2.0;" x1="740.4" x2="1008.4" y1="354.1797" y2="354.1797"/><text fill="#000000" font-family="sans-serif" font-size="10.4" font-weight="bold" lengthAdjust="spacing" textLength="5.6" x="750" y="349.9695">9</text><text fill="#000000" font-family="sans-serif" font-size="10.4" lengthAdjust="spacing" textLength="70.4" x="758.8" y="349.9695">notificationDTO</text><polygon fill="#181818" points="904.4,400.0125,912.4,403.2125,904.4,406.4125,907.6,403.2125" style="stroke:#181818;stroke-width:0.8000000000000002;"/><line style="stroke:#181818;stroke-width:0.8000000000000002;" x1="736.4" x2="909.2" y1="403.2125" y2="403.2125"/><text fill="#000000" font-family="sans-serif" font-size="10.4" font-weight="bold" lengthAdjust="spacing" textLength="11.2" x="742" y="399.0023">10</text><text fill="#000000" font-family="sans-serif" font-size="10.4" lengthAdjust="spacing" textLength="93.6" x="756.4" y="399.0023">add(notificationDTO)</text><line style="stroke:#181818;stroke-width:0.8000000000000002;" x1="736.4" x2="770" y1="452.2453" y2="452.2453"/><line style="stroke:#181818;stroke-width:0.8000000000000002;" x1="770" x2="770" y1="452.2453" y2="462.6453"/><line style="stroke:#181818;stroke-width:0.8000000000000002;" x1="737.2" x2="770" y1="462.6453" y2="462.6453"/><polygon fill="#181818" points="745.2,459.4453,737.2,462.6453,745.2,465.8453,742,462.6453" style="stroke:#181818;stroke-width:0.8000000000000002;"/><text fill="#000000" font-family="sans-serif" font-size="10.4" font-weight="bold" lengthAdjust="spacing" textLength="11.2" x="742" y="448.0352">11</text><text fill="#000000" font-family="sans-serif" font-size="10.4" lengthAdjust="spacing" textLength="152" x="756.4" y="448.0352">notificationList.get(i).setToSeen()</text><polygon fill="#181818" points="1101.2,484.4781,1109.2,487.6781,1101.2,490.8781,1104.4,487.6781" style="stroke:#181818;stroke-width:0.8000000000000002;"/><line style="stroke:#181818;stroke-width:0.8000000000000002;" x1="736.4" x2="1106" y1="487.6781" y2="487.6781"/><text fill="#000000" font-family="sans-serif" font-size="10.4" font-weight="bold" lengthAdjust="spacing" textLength="11.2" x="742" y="483.468">12</text><text fill="#000000" font-family="sans-serif" font-size="10.4" lengthAdjust="spacing" textLength="120" x="756.4" y="483.468">save(notificationList.get(i))</text><polygon fill="#181818" points="575.6,539.1109,567.6,542.3109,575.6,545.5109,572.4,542.3109" style="stroke:#181818;stroke-width:0.8000000000000002;"/><line style="stroke:#181818;stroke-width:0.8000000000000002;stroke-dasharray:2.0,2.0;" x1="570.8" x2="727.6" y1="542.3109" y2="542.3109"/><text fill="#000000" font-family="sans-serif" font-size="10.4" font-weight="bold" lengthAdjust="spacing" textLength="11.2" x="580.4" y="538.1008">13</text><text fill="#000000" font-family="sans-serif" font-size="10.4" lengthAdjust="spacing" textLength="87.2" x="594.8" y="538.1008">notificationListDTO</text><polygon fill="#181818" points="161.6,564.1438,153.6,567.3438,161.6,570.5438,158.4,567.3438" style="stroke:#181818;stroke-width:0.8000000000000002;"/><line style="stroke:#181818;stroke-width:0.8000000000000002;stroke-dasharray:2.0,2.0;" x1="156.8" x2="558" y1="567.3438" y2="567.3438"/><text fill="#000000" font-family="sans-serif" font-size="10.4" font-weight="bold" lengthAdjust="spacing" textLength="11.2" x="166.4" y="563.1336">14</text><text fill="#000000" font-family="sans-serif" font-size="10.4" lengthAdjust="spacing" textLength="171.2" x="180.8" y="563.1336">sOut.writeObject(notificationListDTO)</text><path d="M19.2,584.9438 L71.2,584.9438 L71.2,592.3766 L63.2,600.3766 L19.2,600.3766 L19.2,584.9438 " fill="#EEEEEE" style="stroke:#000000;stroke-width:1.2000000000000002;"/><rect fill="none" height="102.2984" style="stroke:#000000;stroke-width:1.2000000000000002;" width="451.2" x="19.2" y="584.9438"/><text fill="#000000" font-family="sans-serif" font-size="10.4" font-weight="bold" lengthAdjust="spacing" textLength="16" x="31.2" y="596.9664">opt</text><text fill="#000000" font-family="sans-serif" font-size="8.8" font-weight="bold" lengthAdjust="spacing" textLength="42.4" x="83.2" y="596.0398">["0 - Exit"]</text><polygon fill="#181818" points="331.2,618.2094,339.2,621.4094,331.2,624.6094,334.4,621.4094" style="stroke:#181818;stroke-width:0.8000000000000002;"/><line style="stroke:#181818;stroke-width:0.8000000000000002;" x1="148.8" x2="336" y1="621.4094" y2="621.4094"/><text fill="#000000" font-family="sans-serif" font-size="10.4" font-weight="bold" lengthAdjust="spacing" textLength="11.2" x="154.4" y="617.1992">15</text><text fill="#000000" font-family="sans-serif" font-size="10.4" lengthAdjust="spacing" textLength="105.6" x="168.8" y="617.1992">closeConnection(code)</text><path d="M27.2,604.3766 L27.2,625.9766 L140.8,625.9766 L140.8,612.3766 L132.8,604.3766 L27.2,604.3766 " fill="#FEFFDD" style="stroke:#181818;stroke-width:0.4000000000000001;"/><path d="M132.8,604.3766 L132.8,612.3766 L140.8,612.3766 L132.8,604.3766 " fill="#FEFFDD" style="stroke:#181818;stroke-width:0.4000000000000001;"/><text fill="#000000" font-family="sans-serif" font-size="10.4" lengthAdjust="spacing" textLength="96.8" x="32" y="619.5992">code = 1 (DISCONN)</text><line style="stroke:#181818;stroke-width:0.8000000000000002;stroke-dasharray:2.0,2.0;" x1="348.8" x2="382.4" y1="648.8422" y2="648.8422"/><line style="stroke:#181818;stroke-width:0.8000000000000002;stroke-dasharray:2.0,2.0;" x1="382.4" x2="382.4" y1="648.8422" y2="659.2422"/><line style="stroke:#181818;stroke-width:0.8000000000000002;stroke-dasharray:2.0,2.0;" x1="349.6" x2="382.4" y1="659.2422" y2="659.2422"/><polygon fill="#181818" points="357.6,656.0422,349.6,659.2422,357.6,662.4422,354.4,659.2422" style="stroke:#181818;stroke-width:0.8000000000000002;"/><text fill="#000000" font-family="sans-serif" font-size="10.4" font-weight="bold" lengthAdjust="spacing" textLength="11.2" x="354.4" y="644.632">16</text><text fill="#000000" font-family="sans-serif" font-size="10.4" lengthAdjust="spacing" textLength="92" x="368.8" y="644.632">clientSocket.close()</text><line style="stroke:#FFFFFF;stroke-width:0.8000000000000002;" x1="348.8" x2="382.4" y1="674.4422" y2="674.4422"/><line style="stroke:#FFFFFF;stroke-width:0.8000000000000002;" x1="382.4" x2="382.4" y1="674.4422" y2="684.8422"/><line style="stroke:#FFFFFF;stroke-width:0.8000000000000002;" x1="344.8" x2="382.4" y1="684.8422" y2="684.8422"/><polygon fill="#FFFFFF" points="352.8,681.6422,344.8,684.8422,352.8,688.0422,349.6,684.8422" style="stroke:#FFFFFF;stroke-width:0.8000000000000002;"/><!--SRC=[bLPBZzem4BxpAwpjOHDKsFRImsgBX81LaRP9HLZrqFRWJGPmczYfxK3tttUSi7cH5pv1FDytd-VXyUr1wrZTtzt58UKwYSAfBw8x1NyJu3vC0aRtaaQZ4Ksqu4dq0d8qYgdKp6Sn0iZDmuC7yiXycCr-yaSHXkBq72y4v-1h9lXvyuPGHRpLfegzNuGCk2wijmS9D4YD5q_hxPVDQhwiGHoXsOxvj6RUP5kHLiPzfPpk8KBNPNcELuVFfQIlJqpfEe7vjjowAUnfxMthmAM8AEDrLEPbeCODn48nBUHh1jkilhcO1WpJaMf8OpaYfOKVo6HMX8tSapteUHYMIPMLA92SHl2U-280kyh11JA7iDELhyQGV2QVYEMus_NZUZ7Vhbt7hjW03r9qbIzNMoIpiczM8HZLPx_6OnJlOserfEApDEVIxK4aIA4qHjggcGVGfohVRvCS2X6JrH7aAuaOJ-gdDgjGutZLJ7oJmWUbkawJ2y2AlDWq2paDioc9dFoPAu1A1Nrd-l1yzjBbhkeogpFIiZAVaxTpyLfFD0DB8U-XBmvdkceyHWzm8daRMdOtD4tCJaW2QNBAwWZZH1-mkf66ID29v11qivKYZKVL0XlUidiH_PJDuKFsVZb57Fjjor4VUb0JTTH5Wy2gQREl49VUYDVe6mOuvwAfxgRO0nQpfmhqLdZO1vOzcE_SHOeUmMhXlURm0ohy-fx0wxMZ9xsqel9hZryEgdRmsqM516Q2O1pSH4zFacbmNtxZLBOQw3hYqQaqdI-IxG-wrSIu9vIJp3d-YHFjQRp_8xAJ8ch5cTxsytV4hI9A-7z86Tyb-JoxMfMB64Vr1p8XgtzCtxIQDSnWFnGAYWUEbKtT_g8myxslr8hvrHNlYtb-ETe_4ckvzXQkuxHAQnxmpIFu8WJcaUTXFa1FqtXqT6VnpiJnBU81tdwyEnsmMd_D-kFHFFi7I96WagZzx2OuM2AZqNy0]--></g></svg>