<?xml version="1.0" encoding="UTF-8" standalone="no"?><svg xmlns="http://www.w3.org/2000/svg" xmlns:xlink="http://www.w3.org/1999/xlink" contentStyleType="text/css" height="538px" preserveAspectRatio="none" style="width:571px;height:538px;background:#FFFFFF;" version="1.1" viewBox="0 0 571 538" width="571px" zoomAndPan="magnify"><defs/><g><rect fill="#FFFFFF" height="330.4063" style="stroke:#181818;stroke-width:1.0;" width="10" x="87.5" y="100.1563"/><rect fill="#FFFFFF" height="39.1563" style="stroke:#181818;stroke-width:1.0;" width="10" x="520.5" y="156.4688"/><rect fill="#FFFFFF" height="39.1563" style="stroke:#181818;stroke-width:1.0;" width="10" x="520.5" y="234.7813"/><rect fill="#FFFFFF" height="39.1563" style="stroke:#181818;stroke-width:1.0;" width="10" x="520.5" y="313.0938"/><rect fill="#FFFFFF" height="39.1563" style="stroke:#181818;stroke-width:1.0;" width="10" x="520.5" y="391.4063"/><line style="stroke:#181818;stroke-width:0.5;stroke-dasharray:5.0,5.0;" x1="92" x2="92" y1="90.1563" y2="448.5625"/><line style="stroke:#181818;stroke-width:0.5;stroke-dasharray:5.0,5.0;" x1="525.5" x2="525.5" y1="90.1563" y2="448.5625"/><text fill="#000000" font-family="sans-serif" font-size="20" lengthAdjust="spacing" textLength="169" x="5" y="85.7617">Customer Manager</text><ellipse cx="92.5" cy="13.5" fill="#E2E2F0" rx="8" ry="8" style="stroke:#181818;stroke-width:0.5;"/><path d="M92.5,21.5 L92.5,48.5 M79.5,29.5 L105.5,29.5 M92.5,48.5 L79.5,63.5 M92.5,48.5 L105.5,63.5 " fill="none" style="stroke:#181818;stroke-width:0.5;"/><text fill="#000000" font-family="sans-serif" font-size="20" lengthAdjust="spacing" textLength="169" x="5" y="468.3242">Customer Manager</text><ellipse cx="92.5" cy="481.2188" fill="#E2E2F0" rx="8" ry="8" style="stroke:#181818;stroke-width:0.5;"/><path d="M92.5,489.2188 L92.5,516.2188 M79.5,497.2188 L105.5,497.2188 M92.5,516.2188 L79.5,531.2188 M92.5,516.2188 L105.5,531.2188 " fill="none" style="stroke:#181818;stroke-width:0.5;"/><rect fill="#E2E2F0" height="39.1563" rx="2.5" ry="2.5" style="stroke:#181818;stroke-width:0.5;" width="80" x="485.5" y="50"/><text fill="#000000" font-family="sans-serif" font-size="20" lengthAdjust="spacing" textLength="66" x="492.5" y="77.7617">System</text><rect fill="#E2E2F0" height="39.1563" rx="2.5" ry="2.5" style="stroke:#181818;stroke-width:0.5;" width="80" x="485.5" y="447.5625"/><text fill="#000000" font-family="sans-serif" font-size="20" lengthAdjust="spacing" textLength="66" x="492.5" y="475.3242">System</text><rect fill="#FFFFFF" height="330.4063" style="stroke:#181818;stroke-width:1.0;" width="10" x="87.5" y="100.1563"/><rect fill="#FFFFFF" height="39.1563" style="stroke:#181818;stroke-width:1.0;" width="10" x="520.5" y="156.4688"/><rect fill="#FFFFFF" height="39.1563" style="stroke:#181818;stroke-width:1.0;" width="10" x="520.5" y="234.7813"/><rect fill="#FFFFFF" height="39.1563" style="stroke:#181818;stroke-width:1.0;" width="10" x="520.5" y="313.0938"/><rect fill="#FFFFFF" height="39.1563" style="stroke:#181818;stroke-width:1.0;" width="10" x="520.5" y="391.4063"/><polygon fill="#181818" points="508.5,152.4688,518.5,156.4688,508.5,160.4688,512.5,156.4688" style="stroke:#181818;stroke-width:1.0;"/><line style="stroke:#181818;stroke-width:1.0;" x1="97.5" x2="514.5" y1="156.4688" y2="156.4688"/><text fill="#000000" font-family="sans-serif" font-size="20" font-weight="bold" lengthAdjust="spacing" textLength="11" x="104.5" y="137.4961">1</text><text fill="#000000" font-family="sans-serif" font-size="20" lengthAdjust="spacing" textLength="389" x="119.5" y="124.918">asks to upload a text file with the candidates</text><text fill="#000000" font-family="sans-serif" font-size="20" lengthAdjust="spacing" textLength="231" x="125.5" y="150.0742">responses for an interview</text><polygon fill="#181818" points="108.5,191.625,98.5,195.625,108.5,199.625,104.5,195.625" style="stroke:#181818;stroke-width:1.0;"/><line style="stroke:#181818;stroke-width:1.0;stroke-dasharray:2.0,2.0;" x1="102.5" x2="524.5" y1="195.625" y2="195.625"/><text fill="#000000" font-family="sans-serif" font-size="20" font-weight="bold" lengthAdjust="spacing" textLength="11" x="114.5" y="189.2305">2</text><text fill="#000000" font-family="sans-serif" font-size="20" lengthAdjust="spacing" textLength="245" x="129.5" y="189.2305">asks to select a job opening</text><polygon fill="#181818" points="508.5,230.7813,518.5,234.7813,508.5,238.7813,512.5,234.7813" style="stroke:#181818;stroke-width:1.0;"/><line style="stroke:#181818;stroke-width:1.0;" x1="97.5" x2="514.5" y1="234.7813" y2="234.7813"/><text fill="#000000" font-family="sans-serif" font-size="20" font-weight="bold" lengthAdjust="spacing" textLength="11" x="104.5" y="228.3867">3</text><text fill="#000000" font-family="sans-serif" font-size="20" lengthAdjust="spacing" textLength="185" x="119.5" y="228.3867">selects a job opening</text><polygon fill="#181818" points="108.5,269.9375,98.5,273.9375,108.5,277.9375,104.5,273.9375" style="stroke:#181818;stroke-width:1.0;"/><line style="stroke:#181818;stroke-width:1.0;stroke-dasharray:2.0,2.0;" x1="102.5" x2="524.5" y1="273.9375" y2="273.9375"/><text fill="#000000" font-family="sans-serif" font-size="20" font-weight="bold" lengthAdjust="spacing" textLength="11" x="114.5" y="267.543">4</text><text fill="#000000" font-family="sans-serif" font-size="20" lengthAdjust="spacing" textLength="343" x="129.5" y="267.543">asks to select a candidate's application</text><polygon fill="#181818" points="508.5,309.0938,518.5,313.0938,508.5,317.0938,512.5,313.0938" style="stroke:#181818;stroke-width:1.0;"/><line style="stroke:#181818;stroke-width:1.0;" x1="97.5" x2="514.5" y1="313.0938" y2="313.0938"/><text fill="#000000" font-family="sans-serif" font-size="20" font-weight="bold" lengthAdjust="spacing" textLength="11" x="104.5" y="306.6992">5</text><text fill="#000000" font-family="sans-serif" font-size="20" lengthAdjust="spacing" textLength="283" x="119.5" y="306.6992">selects a candidate's application</text><polygon fill="#181818" points="108.5,348.25,98.5,352.25,108.5,356.25,104.5,352.25" style="stroke:#181818;stroke-width:1.0;"/><line style="stroke:#181818;stroke-width:1.0;stroke-dasharray:2.0,2.0;" x1="102.5" x2="524.5" y1="352.25" y2="352.25"/><text fill="#000000" font-family="sans-serif" font-size="20" font-weight="bold" lengthAdjust="spacing" textLength="11" x="114.5" y="345.8555">6</text><text fill="#000000" font-family="sans-serif" font-size="20" lengthAdjust="spacing" textLength="236" x="129.5" y="345.8555">asks to provide the filepath</text><polygon fill="#181818" points="508.5,387.4063,518.5,391.4063,508.5,395.4063,512.5,391.4063" style="stroke:#181818;stroke-width:1.0;"/><line style="stroke:#181818;stroke-width:1.0;" x1="97.5" x2="514.5" y1="391.4063" y2="391.4063"/><text fill="#000000" font-family="sans-serif" font-size="20" font-weight="bold" lengthAdjust="spacing" textLength="11" x="104.5" y="385.0117">7</text><text fill="#000000" font-family="sans-serif" font-size="20" lengthAdjust="spacing" textLength="147" x="119.5" y="385.0117">gives the filepath</text><polygon fill="#181818" points="103.5,426.5625,93.5,430.5625,103.5,434.5625,99.5,430.5625" style="stroke:#181818;stroke-width:1.0;"/><line style="stroke:#181818;stroke-width:1.0;stroke-dasharray:2.0,2.0;" x1="97.5" x2="524.5" y1="430.5625" y2="430.5625"/><text fill="#000000" font-family="sans-serif" font-size="20" font-weight="bold" lengthAdjust="spacing" textLength="11" x="109.5" y="424.168">8</text><text fill="#000000" font-family="sans-serif" font-size="20" lengthAdjust="spacing" textLength="221" x="124.5" y="424.168">shows operation success</text><!--SRC=[ZP8nJmCn38Nt_0ghIwTAY9611S76mea1YSLDt9vfBebYvmxuzUHIYN8WA4iM-xttvILou90mu-2ZFP03HpiiNkzYq8xV2Iul31QDeGnRoiQWrPXXTLD4uq0PxZ7Wdl8AKE2nktqmrKlPSiAWiEhUH6bem-wfQseUKUcuQkOJDjVp3Axgqa508vJa8pf0K7fLsB4dc5Xxq9x0Od3igeCy1yWaAGOXWLrbmW0SbFB8D9s2MkpQnvYW16NVN8fKygaIYZ5pzgOoD9OJX90dgnNY9MuX9WeSziRHqdV9VvJ8Dyr2SIxiythhQfEIPulACVmx-3VzVo1IZYCxQWNDfIVK_apmdiTQ_aBmLvBqSPAvcDoeG8gr9F8ZP4t1mVnavkkeVPaF]--></g></svg>