<?xml version="1.0" encoding="UTF-8" standalone="no"?><svg xmlns="http://www.w3.org/2000/svg" xmlns:xlink="http://www.w3.org/1999/xlink" contentStyleType="text/css" height="496px" preserveAspectRatio="none" style="width:669px;height:496px;background:#FFFFFF;" version="1.1" viewBox="0 0 669 496" width="669px" zoomAndPan="magnify"><defs/><g><text fill="#000000" font-family="sans-serif" font-size="14" font-weight="bold" lengthAdjust="spacing" textLength="241" x="215.75" y="29.5332">US1021 System Sequence Diagram</text><rect fill="#FFFFFF" height="258.25" style="stroke:#181818;stroke-width:1.0;" width="10" x="102.5" y="138.7656"/><rect fill="#FFFFFF" height="64.3125" style="stroke:#181818;stroke-width:1.0;" width="10" x="608.5" y="169.9219"/><rect fill="#FFFFFF" height="64.3125" style="stroke:#181818;stroke-width:1.0;" width="10" x="608.5" y="317.7031"/><rect fill="none" height="140.7813" style="stroke:#000000;stroke-width:1.5;" width="653.5" x="10" y="249.2344"/><line style="stroke:#181818;stroke-width:0.5;stroke-dasharray:5.0,5.0;" x1="107" x2="107" y1="128.7656" y2="407.0156"/><line style="stroke:#181818;stroke-width:0.5;stroke-dasharray:5.0,5.0;" x1="613.5" x2="613.5" y1="128.7656" y2="407.0156"/><text fill="#000000" font-family="sans-serif" font-size="20" lengthAdjust="spacing" textLength="169" x="20" y="124.3711">Customer Manager</text><ellipse cx="107.5" cy="52.1094" fill="#E2E2F0" rx="8" ry="8" style="stroke:#181818;stroke-width:0.5;"/><path d="M107.5,60.1094 L107.5,87.1094 M94.5,68.1094 L120.5,68.1094 M107.5,87.1094 L94.5,102.1094 M107.5,87.1094 L120.5,102.1094 " fill="none" style="stroke:#181818;stroke-width:0.5;"/><text fill="#000000" font-family="sans-serif" font-size="20" lengthAdjust="spacing" textLength="169" x="20" y="426.7773">Customer Manager</text><ellipse cx="107.5" cy="439.6719" fill="#E2E2F0" rx="8" ry="8" style="stroke:#181818;stroke-width:0.5;"/><path d="M107.5,447.6719 L107.5,474.6719 M94.5,455.6719 L120.5,455.6719 M107.5,474.6719 L94.5,489.6719 M107.5,474.6719 L120.5,489.6719 " fill="none" style="stroke:#181818;stroke-width:0.5;"/><rect fill="#E2E2F0" height="39.1563" rx="2.5" ry="2.5" style="stroke:#181818;stroke-width:0.5;" width="80" x="573.5" y="88.6094"/><text fill="#000000" font-family="sans-serif" font-size="20" lengthAdjust="spacing" textLength="66" x="580.5" y="116.3711">System</text><rect fill="#E2E2F0" height="39.1563" rx="2.5" ry="2.5" style="stroke:#181818;stroke-width:0.5;" width="80" x="573.5" y="406.0156"/><text fill="#000000" font-family="sans-serif" font-size="20" lengthAdjust="spacing" textLength="66" x="580.5" y="433.7773">System</text><rect fill="#FFFFFF" height="258.25" style="stroke:#181818;stroke-width:1.0;" width="10" x="102.5" y="138.7656"/><rect fill="#FFFFFF" height="64.3125" style="stroke:#181818;stroke-width:1.0;" width="10" x="608.5" y="169.9219"/><rect fill="#FFFFFF" height="64.3125" style="stroke:#181818;stroke-width:1.0;" width="10" x="608.5" y="317.7031"/><polygon fill="#181818" points="596.5,165.9219,606.5,169.9219,596.5,173.9219,600.5,169.9219" style="stroke:#181818;stroke-width:1.0;"/><line style="stroke:#181818;stroke-width:1.0;" x1="112.5" x2="602.5" y1="169.9219" y2="169.9219"/><text fill="#000000" font-family="sans-serif" font-size="20" font-weight="bold" lengthAdjust="spacing" textLength="11" x="119.5" y="163.5273">1</text><text fill="#000000" font-family="sans-serif" font-size="20" lengthAdjust="spacing" textLength="383" x="134.5" y="163.5273">asks to display all the data of an application</text><polygon fill="#181818" points="123.5,230.2344,113.5,234.2344,123.5,238.2344,119.5,234.2344" style="stroke:#181818;stroke-width:1.0;"/><line style="stroke:#181818;stroke-width:1.0;stroke-dasharray:2.0,2.0;" x1="117.5" x2="612.5" y1="234.2344" y2="234.2344"/><text fill="#000000" font-family="sans-serif" font-size="20" font-weight="bold" lengthAdjust="spacing" textLength="11" x="129.5" y="215.2617">2</text><text fill="#000000" font-family="sans-serif" font-size="20" lengthAdjust="spacing" textLength="456" x="144.5" y="202.6836">displays the applications and asks the user to select</text><text fill="#000000" font-family="sans-serif" font-size="20" lengthAdjust="spacing" textLength="131" x="150.5" y="227.8398">one application</text><path d="M10,249.2344 L96,249.2344 L96,266.3906 L86,276.3906 L10,276.3906 L10,249.2344 " fill="#EEEEEE" style="stroke:#000000;stroke-width:1.5;"/><rect fill="none" height="140.7813" style="stroke:#000000;stroke-width:1.5;" width="653.5" x="10" y="249.2344"/><text fill="#000000" font-family="sans-serif" font-size="20" font-weight="bold" lengthAdjust="spacing" textLength="41" x="25" y="270.9961">loop</text><text fill="#000000" font-family="sans-serif" font-size="20" font-weight="bold" lengthAdjust="spacing" textLength="201" x="111" y="271.9961">[until the user wants]</text><polygon fill="#181818" points="596.5,313.7031,606.5,317.7031,596.5,321.7031,600.5,317.7031" style="stroke:#181818;stroke-width:1.0;"/><line style="stroke:#181818;stroke-width:1.0;" x1="112.5" x2="602.5" y1="317.7031" y2="317.7031"/><text fill="#000000" font-family="sans-serif" font-size="20" font-weight="bold" lengthAdjust="spacing" textLength="11" x="119.5" y="311.3086">3</text><text fill="#000000" font-family="sans-serif" font-size="20" lengthAdjust="spacing" textLength="194" x="134.5" y="311.3086">selects the application</text><polygon fill="#181818" points="123.5,378.0156,113.5,382.0156,123.5,386.0156,119.5,382.0156" style="stroke:#181818;stroke-width:1.0;"/><line style="stroke:#181818;stroke-width:1.0;stroke-dasharray:2.0,2.0;" x1="117.5" x2="612.5" y1="382.0156" y2="382.0156"/><text fill="#000000" font-family="sans-serif" font-size="20" font-weight="bold" lengthAdjust="spacing" textLength="11" x="129.5" y="363.043">4</text><text fill="#000000" font-family="sans-serif" font-size="20" lengthAdjust="spacing" textLength="457" x="144.5" y="350.4648">shows all the information of the application, including</text><text fill="#000000" font-family="sans-serif" font-size="20" lengthAdjust="spacing" textLength="311" x="150.5" y="375.6211">interviews and requirement process</text><!--SRC=[VP4xRyCm38Ht_GeYSmCa6JDqwMFh4gD3WIwip2H4P4aLgGJfhozjjyqBw288EDvtF51s73CMx4BoEsgXfJNMeCyfQiDV18kPSyeQ25wR-MmnX-OeIXqqz5afUe97netPdSEgATRkWuhzlQO2auSgcZegy88HDrGcW6ASfvMpI6NF6QF2P4GEOlFM36xUez8uwleNflUz1aiRsWbeWfOb1pm2XW2w9MXH4T8QC0Bc7DYZSeedLa_k2LCZ3SJbBq86_vb93DB-19bInHfOeb0Wh-yHKhmOTorTfBYGKeOQbSF9Vx2cSbLb1Dx4_xkpRDD1_afpNAVI3Qw- -nNepdGVQijnOrjpL2fxfiDOhzW1kL17Te5SaYUHco9aStqPTwuCH_a6]--></g></svg>