<?xml version="1.0" encoding="UTF-8" standalone="no"?><svg xmlns="http://www.w3.org/2000/svg" xmlns:xlink="http://www.w3.org/1999/xlink" contentStyleType="text/css" height="1573px" preserveAspectRatio="none" style="width:3329px;height:1573px;background:#FFFFFF;" version="1.1" viewBox="0 0 3329 1573" width="3329px" zoomAndPan="magnify"><defs/><g><text fill="#000000" font-family="sans-serif" font-size="14" font-weight="bold" lengthAdjust="spacing" textLength="154" x="1580.5" y="24.5332">US1019 Class Diagram</text><!--cluster Authentication and Users--><g id="cluster_Authentication and Users"><path d="M8.5,893.1094 L248.5,893.1094 A3.75,3.75 0 0 1 251,895.6094 L258,924.2656 L458.5,924.2656 A2.5,2.5 0 0 1 461,926.7656 L461,1479.6094 A2.5,2.5 0 0 1 458.5,1482.1094 L8.5,1482.1094 A2.5,2.5 0 0 1 6,1479.6094 L6,895.6094 A2.5,2.5 0 0 1 8.5,893.1094 " fill="none" style="stroke:#000000;stroke-width:1.5;"/><line style="stroke:#000000;stroke-width:1.5;" x1="6" x2="258" y1="924.2656" y2="924.2656"/><text fill="#000000" font-family="sans-serif" font-size="20" font-weight="bold" lengthAdjust="spacing" textLength="239" x="10" y="915.8711">Authentication and Users</text></g><!--class AuthenticationService--><g id="elem_AuthenticationService"><rect codeLine="47" fill="#F1F1F1" height="101.4688" id="AuthenticationService" rx="2.5" ry="2.5" style="stroke:#181818;stroke-width:0.5;" width="221" x="22.5" y="937.1094"/><ellipse cx="38.5" cy="979.8438" fill="#ADD1B2" rx="12" ry="12" style="stroke:#181818;stroke-width:1.0;"/><path d="M40.6406,974.7656 Q40.8281,974.5156 41.0469,974.3906 Q41.2656,974.25 41.5156,974.25 Q41.9531,974.25 42.2344,974.5625 Q42.5156,974.8594 42.5156,975.5781 L42.5156,977.2813 Q42.5156,978 42.2344,978.3125 Q41.9531,978.625 41.5156,978.625 Q41.125,978.625 40.875,978.3906 Q40.625,978.1719 40.5156,977.5625 Q40.4531,977.1406 40.2344,976.9219 Q39.8438,976.4844 39.125,976.2188 Q38.4063,975.9531 37.6875,975.9531 Q36.7813,975.9531 36.0313,976.3438 Q35.2813,976.7344 34.7031,977.625 Q34.125,978.5 34.125,979.7031 L34.125,981 Q34.125,982.4531 35.1719,983.4219 Q36.2344,984.3906 38.0938,984.3906 Q39.2031,984.3906 39.9844,984.0781 Q40.4219,983.9063 40.9375,983.3906 Q41.25,983.0781 41.4219,982.9844 Q41.5938,982.8906 41.8281,982.8906 Q42.2188,982.8906 42.5156,983.2031 Q42.8281,983.5 42.8281,983.9063 Q42.8281,984.3125 42.4219,984.7813 Q41.8281,985.4688 40.8906,985.8594 Q39.625,986.3906 38.1094,986.3906 Q36.3281,986.3906 34.9063,985.6563 Q33.75,985.0625 32.9375,983.7969 Q32.125,982.5313 32.125,981.0469 L32.125,979.6875 Q32.125,978.125 32.8438,976.7813 Q33.5781,975.4219 34.8594,974.6875 Q36.1563,973.9531 37.6094,973.9531 Q38.4688,973.9531 39.2188,974.1563 Q39.9844,974.3594 40.6406,974.7656 Z " fill="#000000"/><text fill="#000000" font-family="sans-serif" font-size="20" font-style="italic" lengthAdjust="spacing" textLength="120" x="87" y="962.8711">«Application»</text><text fill="#000000" font-family="sans-serif" font-size="20" font-style="italic" lengthAdjust="spacing" textLength="89" x="102.5" y="988.0273">«Service»</text><text fill="#000000" font-family="sans-serif" font-size="20" lengthAdjust="spacing" textLength="187" x="53.5" y="1013.1836">AuthenticationService</text><line style="stroke:#181818;stroke-width:0.5;" x1="23.5" x2="242.5" y1="1022.5781" y2="1022.5781"/><line style="stroke:#181818;stroke-width:0.5;" x1="23.5" x2="242.5" y1="1030.5781" y2="1030.5781"/></g><!--class Session--><g id="elem_Session"><rect codeLine="49" fill="#F1F1F1" height="101.4688" id="Session" rx="2.5" ry="2.5" style="stroke:#181818;stroke-width:0.5;" width="166" x="279" y="937.1094"/><ellipse cx="295" cy="979.8438" fill="#ADD1B2" rx="12" ry="12" style="stroke:#181818;stroke-width:1.0;"/><path d="M297.1406,974.7656 Q297.3281,974.5156 297.5469,974.3906 Q297.7656,974.25 298.0156,974.25 Q298.4531,974.25 298.7344,974.5625 Q299.0156,974.8594 299.0156,975.5781 L299.0156,977.2813 Q299.0156,978 298.7344,978.3125 Q298.4531,978.625 298.0156,978.625 Q297.625,978.625 297.375,978.3906 Q297.125,978.1719 297.0156,977.5625 Q296.9531,977.1406 296.7344,976.9219 Q296.3438,976.4844 295.625,976.2188 Q294.9063,975.9531 294.1875,975.9531 Q293.2813,975.9531 292.5313,976.3438 Q291.7813,976.7344 291.2031,977.625 Q290.625,978.5 290.625,979.7031 L290.625,981 Q290.625,982.4531 291.6719,983.4219 Q292.7344,984.3906 294.5938,984.3906 Q295.7031,984.3906 296.4844,984.0781 Q296.9219,983.9063 297.4375,983.3906 Q297.75,983.0781 297.9219,982.9844 Q298.0938,982.8906 298.3281,982.8906 Q298.7188,982.8906 299.0156,983.2031 Q299.3281,983.5 299.3281,983.9063 Q299.3281,984.3125 298.9219,984.7813 Q298.3281,985.4688 297.3906,985.8594 Q296.125,986.3906 294.6094,986.3906 Q292.8281,986.3906 291.4063,985.6563 Q290.25,985.0625 289.4375,983.7969 Q288.625,982.5313 288.625,981.0469 L288.625,979.6875 Q288.625,978.125 289.3438,976.7813 Q290.0781,975.4219 291.3594,974.6875 Q292.6563,973.9531 294.1094,973.9531 Q294.9688,973.9531 295.7188,974.1563 Q296.4844,974.3594 297.1406,974.7656 Z " fill="#000000"/><text fill="#000000" font-family="sans-serif" font-size="20" font-style="italic" lengthAdjust="spacing" textLength="91" x="330.5" y="962.8711">«Domain»</text><text fill="#000000" font-family="sans-serif" font-size="20" font-style="italic" lengthAdjust="spacing" textLength="136" x="308" y="988.0273">«Value Object»</text><text fill="#000000" font-family="sans-serif" font-size="20" lengthAdjust="spacing" textLength="69" x="341.5" y="1013.1836">Session</text><line style="stroke:#181818;stroke-width:0.5;" x1="280" x2="444" y1="1022.5781" y2="1022.5781"/><line style="stroke:#181818;stroke-width:0.5;" x1="280" x2="444" y1="1030.5781" y2="1030.5781"/></g><!--class SystemUser--><g id="elem_SystemUser"><rect codeLine="51" fill="#F1F1F1" height="101.4688" id="SystemUser" rx="2.5" ry="2.5" style="stroke:#181818;stroke-width:0.5;" width="190" x="255" y="1339.6094"/><ellipse cx="271" cy="1382.3438" fill="#ADD1B2" rx="12" ry="12" style="stroke:#181818;stroke-width:1.0;"/><path d="M273.1406,1377.2656 Q273.3281,1377.0156 273.5469,1376.8906 Q273.7656,1376.75 274.0156,1376.75 Q274.4531,1376.75 274.7344,1377.0625 Q275.0156,1377.3594 275.0156,1378.0781 L275.0156,1379.7813 Q275.0156,1380.5 274.7344,1380.8125 Q274.4531,1381.125 274.0156,1381.125 Q273.625,1381.125 273.375,1380.8906 Q273.125,1380.6719 273.0156,1380.0625 Q272.9531,1379.6406 272.7344,1379.4219 Q272.3438,1378.9844 271.625,1378.7188 Q270.9063,1378.4531 270.1875,1378.4531 Q269.2813,1378.4531 268.5313,1378.8438 Q267.7813,1379.2344 267.2031,1380.125 Q266.625,1381 266.625,1382.2031 L266.625,1383.5 Q266.625,1384.9531 267.6719,1385.9219 Q268.7344,1386.8906 270.5938,1386.8906 Q271.7031,1386.8906 272.4844,1386.5781 Q272.9219,1386.4063 273.4375,1385.8906 Q273.75,1385.5781 273.9219,1385.4844 Q274.0938,1385.3906 274.3281,1385.3906 Q274.7188,1385.3906 275.0156,1385.7031 Q275.3281,1386 275.3281,1386.4063 Q275.3281,1386.8125 274.9219,1387.2813 Q274.3281,1387.9688 273.3906,1388.3594 Q272.125,1388.8906 270.6094,1388.8906 Q268.8281,1388.8906 267.4063,1388.1563 Q266.25,1387.5625 265.4375,1386.2969 Q264.625,1385.0313 264.625,1383.5469 L264.625,1382.1875 Q264.625,1380.625 265.3438,1379.2813 Q266.0781,1377.9219 267.3594,1377.1875 Q268.6563,1376.4531 270.1094,1376.4531 Q270.9688,1376.4531 271.7188,1376.6563 Q272.4844,1376.8594 273.1406,1377.2656 Z " fill="#000000"/><text fill="#000000" font-family="sans-serif" font-size="20" font-style="italic" lengthAdjust="spacing" textLength="91" x="318.5" y="1365.3711">«Domain»</text><text fill="#000000" font-family="sans-serif" font-size="20" font-style="italic" lengthAdjust="spacing" textLength="160" x="284" y="1390.5273">«Aggregate Root»</text><text fill="#000000" font-family="sans-serif" font-size="20" lengthAdjust="spacing" textLength="107" x="310.5" y="1415.6836">SystemUser</text><line style="stroke:#181818;stroke-width:0.5;" x1="256" x2="444" y1="1425.0781" y2="1425.0781"/><line style="stroke:#181818;stroke-width:0.5;" x1="256" x2="444" y1="1433.0781" y2="1433.0781"/></g><!--class Username--><g id="elem_Username"><rect codeLine="53" fill="#F1F1F1" height="151.7813" id="Username" rx="2.5" ry="2.5" style="stroke:#181818;stroke-width:0.5;" width="166" x="52" y="1314.1094"/><ellipse cx="68" cy="1369.4219" fill="#ADD1B2" rx="12" ry="12" style="stroke:#181818;stroke-width:1.0;"/><path d="M70.1406,1364.3438 Q70.3281,1364.0938 70.5469,1363.9688 Q70.7656,1363.8281 71.0156,1363.8281 Q71.4531,1363.8281 71.7344,1364.1406 Q72.0156,1364.4375 72.0156,1365.1563 L72.0156,1366.8594 Q72.0156,1367.5781 71.7344,1367.8906 Q71.4531,1368.2031 71.0156,1368.2031 Q70.625,1368.2031 70.375,1367.9688 Q70.125,1367.75 70.0156,1367.1406 Q69.9531,1366.7188 69.7344,1366.5 Q69.3438,1366.0625 68.625,1365.7969 Q67.9063,1365.5313 67.1875,1365.5313 Q66.2813,1365.5313 65.5313,1365.9219 Q64.7813,1366.3125 64.2031,1367.2031 Q63.625,1368.0781 63.625,1369.2813 L63.625,1370.5781 Q63.625,1372.0313 64.6719,1373 Q65.7344,1373.9688 67.5938,1373.9688 Q68.7031,1373.9688 69.4844,1373.6563 Q69.9219,1373.4844 70.4375,1372.9688 Q70.75,1372.6563 70.9219,1372.5625 Q71.0938,1372.4688 71.3281,1372.4688 Q71.7188,1372.4688 72.0156,1372.7813 Q72.3281,1373.0781 72.3281,1373.4844 Q72.3281,1373.8906 71.9219,1374.3594 Q71.3281,1375.0469 70.3906,1375.4375 Q69.125,1375.9688 67.6094,1375.9688 Q65.8281,1375.9688 64.4063,1375.2344 Q63.25,1374.6406 62.4375,1373.375 Q61.625,1372.1094 61.625,1370.625 L61.625,1369.2656 Q61.625,1367.7031 62.3438,1366.3594 Q63.0781,1365 64.3594,1364.2656 Q65.6563,1363.5313 67.1094,1363.5313 Q67.9688,1363.5313 68.7188,1363.7344 Q69.4844,1363.9375 70.1406,1364.3438 Z " fill="#000000"/><text fill="#000000" font-family="sans-serif" font-size="20" font-style="italic" lengthAdjust="spacing" textLength="91" x="103.5" y="1339.8711">«Domain»</text><text fill="#000000" font-family="sans-serif" font-size="20" font-style="italic" lengthAdjust="spacing" textLength="136" x="81" y="1365.0273">«Value Object»</text><text fill="#000000" font-family="sans-serif" font-size="20" font-style="italic" lengthAdjust="spacing" textLength="41" x="128.5" y="1390.1836">«ID»</text><text fill="#000000" font-family="sans-serif" font-size="20" lengthAdjust="spacing" textLength="89" x="104.5" y="1415.3398">Username</text><line style="stroke:#181818;stroke-width:0.5;" x1="53" x2="217" y1="1424.7344" y2="1424.7344"/><rect fill="none" height="6" style="stroke:#C82930;stroke-width:1.0;" width="6" x="60" y="1439.8125"/><text fill="#000000" font-family="sans-serif" font-size="20" lengthAdjust="spacing" textLength="114" x="73" y="1449.4961">value : String</text><line style="stroke:#181818;stroke-width:0.5;" x1="53" x2="217" y1="1457.8906" y2="1457.8906"/></g><!--class ListCandidatesUI--><g id="elem_ListCandidatesUI"><rect codeLine="4" fill="#F1F1F1" height="76.3125" id="ListCandidatesUI" rx="2.5" ry="2.5" style="stroke:#181818;stroke-width:0.5;" width="183" x="1579.5" y="45.6094"/><ellipse cx="1595.5" cy="75.7656" fill="#ADD1B2" rx="12" ry="12" style="stroke:#181818;stroke-width:1.0;"/><path d="M1597.6406,70.6875 Q1597.8281,70.4375 1598.0469,70.3125 Q1598.2656,70.1719 1598.5156,70.1719 Q1598.9531,70.1719 1599.2344,70.4844 Q1599.5156,70.7813 1599.5156,71.5 L1599.5156,73.2031 Q1599.5156,73.9219 1599.2344,74.2344 Q1598.9531,74.5469 1598.5156,74.5469 Q1598.125,74.5469 1597.875,74.3125 Q1597.625,74.0938 1597.5156,73.4844 Q1597.4531,73.0625 1597.2344,72.8438 Q1596.8438,72.4063 1596.125,72.1406 Q1595.4063,71.875 1594.6875,71.875 Q1593.7813,71.875 1593.0313,72.2656 Q1592.2813,72.6563 1591.7031,73.5469 Q1591.125,74.4219 1591.125,75.625 L1591.125,76.9219 Q1591.125,78.375 1592.1719,79.3438 Q1593.2344,80.3125 1595.0938,80.3125 Q1596.2031,80.3125 1596.9844,80 Q1597.4219,79.8281 1597.9375,79.3125 Q1598.25,79 1598.4219,78.9063 Q1598.5938,78.8125 1598.8281,78.8125 Q1599.2188,78.8125 1599.5156,79.125 Q1599.8281,79.4219 1599.8281,79.8281 Q1599.8281,80.2344 1599.4219,80.7031 Q1598.8281,81.3906 1597.8906,81.7813 Q1596.625,82.3125 1595.1094,82.3125 Q1593.3281,82.3125 1591.9063,81.5781 Q1590.75,80.9844 1589.9375,79.7188 Q1589.125,78.4531 1589.125,76.9688 L1589.125,75.6094 Q1589.125,74.0469 1589.8438,72.7031 Q1590.5781,71.3438 1591.8594,70.6094 Q1593.1563,69.875 1594.6094,69.875 Q1595.4688,69.875 1596.2188,70.0781 Q1596.9844,70.2813 1597.6406,70.6875 Z " fill="#000000"/><text fill="#000000" font-family="sans-serif" font-size="20" font-style="italic" lengthAdjust="spacing" textLength="133" x="1618.5" y="71.3711">«Presentation»</text><text fill="#000000" font-family="sans-serif" font-size="20" lengthAdjust="spacing" textLength="149" x="1610.5" y="96.5273">ListCandidatesUI</text><line style="stroke:#181818;stroke-width:0.5;" x1="1580.5" x2="1761.5" y1="105.9219" y2="105.9219"/><line style="stroke:#181818;stroke-width:0.5;" x1="1580.5" x2="1761.5" y1="113.9219" y2="113.9219"/></g><!--class ListCandidatesController--><g id="elem_ListCandidatesController"><rect codeLine="9" fill="#F1F1F1" height="126.625" id="ListCandidatesController" rx="2.5" ry="2.5" style="stroke:#181818;stroke-width:0.5;" width="330" x="1506" y="182.6094"/><ellipse cx="1559" cy="212.7656" fill="#ADD1B2" rx="12" ry="12" style="stroke:#181818;stroke-width:1.0;"/><path d="M1561.1406,207.6875 Q1561.3281,207.4375 1561.5469,207.3125 Q1561.7656,207.1719 1562.0156,207.1719 Q1562.4531,207.1719 1562.7344,207.4844 Q1563.0156,207.7813 1563.0156,208.5 L1563.0156,210.2031 Q1563.0156,210.9219 1562.7344,211.2344 Q1562.4531,211.5469 1562.0156,211.5469 Q1561.625,211.5469 1561.375,211.3125 Q1561.125,211.0938 1561.0156,210.4844 Q1560.9531,210.0625 1560.7344,209.8438 Q1560.3438,209.4063 1559.625,209.1406 Q1558.9063,208.875 1558.1875,208.875 Q1557.2813,208.875 1556.5313,209.2656 Q1555.7813,209.6563 1555.2031,210.5469 Q1554.625,211.4219 1554.625,212.625 L1554.625,213.9219 Q1554.625,215.375 1555.6719,216.3438 Q1556.7344,217.3125 1558.5938,217.3125 Q1559.7031,217.3125 1560.4844,217 Q1560.9219,216.8281 1561.4375,216.3125 Q1561.75,216 1561.9219,215.9063 Q1562.0938,215.8125 1562.3281,215.8125 Q1562.7188,215.8125 1563.0156,216.125 Q1563.3281,216.4219 1563.3281,216.8281 Q1563.3281,217.2344 1562.9219,217.7031 Q1562.3281,218.3906 1561.3906,218.7813 Q1560.125,219.3125 1558.6094,219.3125 Q1556.8281,219.3125 1555.4063,218.5781 Q1554.25,217.9844 1553.4375,216.7188 Q1552.625,215.4531 1552.625,213.9688 L1552.625,212.6094 Q1552.625,211.0469 1553.3438,209.7031 Q1554.0781,208.3438 1555.3594,207.6094 Q1556.6563,206.875 1558.1094,206.875 Q1558.9688,206.875 1559.7188,207.0781 Q1560.4844,207.2813 1561.1406,207.6875 Z " fill="#000000"/><text fill="#000000" font-family="sans-serif" font-size="20" font-style="italic" lengthAdjust="spacing" textLength="120" x="1628.5" y="208.3711">«Application»</text><text fill="#000000" font-family="sans-serif" font-size="20" lengthAdjust="spacing" textLength="215" x="1581" y="233.5273">ListCandidatesController</text><line style="stroke:#181818;stroke-width:0.5;" x1="1507" x2="1835" y1="242.9219" y2="242.9219"/><line style="stroke:#181818;stroke-width:0.5;" x1="1507" x2="1835" y1="250.9219" y2="250.9219"/><ellipse cx="1517" cy="269" fill="#84BE84" rx="3" ry="3" style="stroke:#038048;stroke-width:1.0;"/><text fill="#000000" font-family="sans-serif" font-size="20" lengthAdjust="spacing" textLength="178" x="1527" y="275.6836">getJobOpeningList()</text><ellipse cx="1517" cy="294.1563" fill="#84BE84" rx="3" ry="3" style="stroke:#038048;stroke-width:1.0;"/><text fill="#000000" font-family="sans-serif" font-size="20" lengthAdjust="spacing" textLength="303" x="1527" y="300.8398">getCandidateList(jobOpeningDTO)</text></g><!--class JobOpeningManagementService--><g id="elem_JobOpeningManagementService"><rect codeLine="15" fill="#F1F1F1" height="151.7813" id="JobOpeningManagementService" rx="2.5" ry="2.5" style="stroke:#181818;stroke-width:0.5;" width="623" x="1884.5" y="370.6094"/><ellipse cx="2049.5" cy="400.7656" fill="#ADD1B2" rx="12" ry="12" style="stroke:#181818;stroke-width:1.0;"/><path d="M2051.6406,395.6875 Q2051.8281,395.4375 2052.0469,395.3125 Q2052.2656,395.1719 2052.5156,395.1719 Q2052.9531,395.1719 2053.2344,395.4844 Q2053.5156,395.7813 2053.5156,396.5 L2053.5156,398.2031 Q2053.5156,398.9219 2053.2344,399.2344 Q2052.9531,399.5469 2052.5156,399.5469 Q2052.125,399.5469 2051.875,399.3125 Q2051.625,399.0938 2051.5156,398.4844 Q2051.4531,398.0625 2051.2344,397.8438 Q2050.8438,397.4063 2050.125,397.1406 Q2049.4063,396.875 2048.6875,396.875 Q2047.7813,396.875 2047.0313,397.2656 Q2046.2813,397.6563 2045.7031,398.5469 Q2045.125,399.4219 2045.125,400.625 L2045.125,401.9219 Q2045.125,403.375 2046.1719,404.3438 Q2047.2344,405.3125 2049.0938,405.3125 Q2050.2031,405.3125 2050.9844,405 Q2051.4219,404.8281 2051.9375,404.3125 Q2052.25,404 2052.4219,403.9063 Q2052.5938,403.8125 2052.8281,403.8125 Q2053.2188,403.8125 2053.5156,404.125 Q2053.8281,404.4219 2053.8281,404.8281 Q2053.8281,405.2344 2053.4219,405.7031 Q2052.8281,406.3906 2051.8906,406.7813 Q2050.625,407.3125 2049.1094,407.3125 Q2047.3281,407.3125 2045.9063,406.5781 Q2044.75,405.9844 2043.9375,404.7188 Q2043.125,403.4531 2043.125,401.9688 L2043.125,400.6094 Q2043.125,399.0469 2043.8438,397.7031 Q2044.5781,396.3438 2045.8594,395.6094 Q2047.1563,394.875 2048.6094,394.875 Q2049.4688,394.875 2050.2188,395.0781 Q2050.9844,395.2813 2051.6406,395.6875 Z " fill="#000000"/><text fill="#000000" font-family="sans-serif" font-size="20" font-style="italic" lengthAdjust="spacing" textLength="89" x="2169" y="396.3711">«Service»</text><text fill="#000000" font-family="sans-serif" font-size="20" lengthAdjust="spacing" textLength="284" x="2071.5" y="421.5273">JobOpeningManagementService</text><line style="stroke:#181818;stroke-width:0.5;" x1="1885.5" x2="2506.5" y1="430.9219" y2="430.9219"/><line style="stroke:#181818;stroke-width:0.5;" x1="1885.5" x2="2506.5" y1="438.9219" y2="438.9219"/><ellipse cx="1895.5" cy="457" fill="#84BE84" rx="3" ry="3" style="stroke:#038048;stroke-width:1.0;"/><text fill="#000000" font-family="sans-serif" font-size="20" lengthAdjust="spacing" textLength="428" x="1905.5" y="463.6836">getJobOpeningsOfCustomerManager(username)</text><ellipse cx="1895.5" cy="482.1563" fill="#84BE84" rx="3" ry="3" style="stroke:#038048;stroke-width:1.0;"/><text fill="#000000" font-family="sans-serif" font-size="20" lengthAdjust="spacing" textLength="596" x="1905.5" y="488.8398">getJobOpeningsFromCustomerCodes(assignedCustomerCodesList)</text><ellipse cx="1895.5" cy="507.3125" fill="#84BE84" rx="3" ry="3" style="stroke:#038048;stroke-width:1.0;"/><text fill="#000000" font-family="sans-serif" font-size="20" lengthAdjust="spacing" textLength="288" x="1905.5" y="513.9961">getJobOpening(jobOpeningDTO)</text></g><!--class CustomerManagementService--><g id="elem_CustomerManagementService"><rect codeLine="21" fill="#F1F1F1" height="101.4688" id="CustomerManagementService" rx="2.5" ry="2.5" style="stroke:#181818;stroke-width:0.5;" width="408" x="328" y="396.1094"/><ellipse cx="395.5" cy="426.2656" fill="#ADD1B2" rx="12" ry="12" style="stroke:#181818;stroke-width:1.0;"/><path d="M397.6406,421.1875 Q397.8281,420.9375 398.0469,420.8125 Q398.2656,420.6719 398.5156,420.6719 Q398.9531,420.6719 399.2344,420.9844 Q399.5156,421.2813 399.5156,422 L399.5156,423.7031 Q399.5156,424.4219 399.2344,424.7344 Q398.9531,425.0469 398.5156,425.0469 Q398.125,425.0469 397.875,424.8125 Q397.625,424.5938 397.5156,423.9844 Q397.4531,423.5625 397.2344,423.3438 Q396.8438,422.9063 396.125,422.6406 Q395.4063,422.375 394.6875,422.375 Q393.7813,422.375 393.0313,422.7656 Q392.2813,423.1563 391.7031,424.0469 Q391.125,424.9219 391.125,426.125 L391.125,427.4219 Q391.125,428.875 392.1719,429.8438 Q393.2344,430.8125 395.0938,430.8125 Q396.2031,430.8125 396.9844,430.5 Q397.4219,430.3281 397.9375,429.8125 Q398.25,429.5 398.4219,429.4063 Q398.5938,429.3125 398.8281,429.3125 Q399.2188,429.3125 399.5156,429.625 Q399.8281,429.9219 399.8281,430.3281 Q399.8281,430.7344 399.4219,431.2031 Q398.8281,431.8906 397.8906,432.2813 Q396.625,432.8125 395.1094,432.8125 Q393.3281,432.8125 391.9063,432.0781 Q390.75,431.4844 389.9375,430.2188 Q389.125,428.9531 389.125,427.4688 L389.125,426.1094 Q389.125,424.5469 389.8438,423.2031 Q390.5781,421.8438 391.8594,421.1094 Q393.1563,420.375 394.6094,420.375 Q395.4688,420.375 396.2188,420.5781 Q396.9844,420.7813 397.6406,421.1875 Z " fill="#000000"/><text fill="#000000" font-family="sans-serif" font-size="20" font-style="italic" lengthAdjust="spacing" textLength="89" x="505" y="421.8711">«Service»</text><text fill="#000000" font-family="sans-serif" font-size="20" lengthAdjust="spacing" textLength="264" x="417.5" y="447.0273">CustomerManagementService</text><line style="stroke:#181818;stroke-width:0.5;" x1="329" x2="735" y1="456.4219" y2="456.4219"/><line style="stroke:#181818;stroke-width:0.5;" x1="329" x2="735" y1="464.4219" y2="464.4219"/><ellipse cx="339" cy="482.5" fill="#84BE84" rx="3" ry="3" style="stroke:#038048;stroke-width:1.0;"/><text fill="#000000" font-family="sans-serif" font-size="20" lengthAdjust="spacing" textLength="381" x="349" y="489.1836">getAssignedCustomerCodesList(username)</text></g><!--class JobOpeningDTOService--><g id="elem_JobOpeningDTOService"><rect codeLine="25" fill="#F1F1F1" height="101.4688" id="JobOpeningDTOService" rx="2.5" ry="2.5" style="stroke:#181818;stroke-width:0.5;" width="300" x="2263" y="635.1094"/><ellipse cx="2303.3" cy="665.2656" fill="#ADD1B2" rx="12" ry="12" style="stroke:#181818;stroke-width:1.0;"/><path d="M2305.4406,660.1875 Q2305.6281,659.9375 2305.8469,659.8125 Q2306.0656,659.6719 2306.3156,659.6719 Q2306.7531,659.6719 2307.0344,659.9844 Q2307.3156,660.2813 2307.3156,661 L2307.3156,662.7031 Q2307.3156,663.4219 2307.0344,663.7344 Q2306.7531,664.0469 2306.3156,664.0469 Q2305.925,664.0469 2305.675,663.8125 Q2305.425,663.5938 2305.3156,662.9844 Q2305.2531,662.5625 2305.0344,662.3438 Q2304.6438,661.9063 2303.925,661.6406 Q2303.2063,661.375 2302.4875,661.375 Q2301.5813,661.375 2300.8313,661.7656 Q2300.0813,662.1563 2299.5031,663.0469 Q2298.925,663.9219 2298.925,665.125 L2298.925,666.4219 Q2298.925,667.875 2299.9719,668.8438 Q2301.0344,669.8125 2302.8938,669.8125 Q2304.0031,669.8125 2304.7844,669.5 Q2305.2219,669.3281 2305.7375,668.8125 Q2306.05,668.5 2306.2219,668.4063 Q2306.3938,668.3125 2306.6281,668.3125 Q2307.0188,668.3125 2307.3156,668.625 Q2307.6281,668.9219 2307.6281,669.3281 Q2307.6281,669.7344 2307.2219,670.2031 Q2306.6281,670.8906 2305.6906,671.2813 Q2304.425,671.8125 2302.9094,671.8125 Q2301.1281,671.8125 2299.7063,671.0781 Q2298.55,670.4844 2297.7375,669.2188 Q2296.925,667.9531 2296.925,666.4688 L2296.925,665.1094 Q2296.925,663.5469 2297.6438,662.2031 Q2298.3781,660.8438 2299.6594,660.1094 Q2300.9563,659.375 2302.4094,659.375 Q2303.2688,659.375 2304.0188,659.5781 Q2304.7844,659.7813 2305.4406,660.1875 Z " fill="#000000"/><text fill="#000000" font-family="sans-serif" font-size="20" font-style="italic" lengthAdjust="spacing" textLength="89" x="2385.2" y="660.8711">«Service»</text><text fill="#000000" font-family="sans-serif" font-size="20" lengthAdjust="spacing" textLength="212" x="2323.7" y="686.0273">JobOpeningDTOService</text><line style="stroke:#181818;stroke-width:0.5;" x1="2264" x2="2562" y1="695.4219" y2="695.4219"/><line style="stroke:#181818;stroke-width:0.5;" x1="2264" x2="2562" y1="703.4219" y2="703.4219"/><ellipse cx="2274" cy="721.5" fill="#84BE84" rx="3" ry="3" style="stroke:#038048;stroke-width:1.0;"/><text fill="#000000" font-family="sans-serif" font-size="20" lengthAdjust="spacing" textLength="273" x="2284" y="728.1836">convertToDTO(jobOpeningList)</text></g><!--class ApplicationManagementService--><g id="elem_ApplicationManagementService"><rect codeLine="29" fill="#F1F1F1" height="101.4688" id="ApplicationManagementService" rx="2.5" ry="2.5" style="stroke:#181818;stroke-width:0.5;" width="308" x="2685" y="396.1094"/><ellipse cx="2701" cy="426.2656" fill="#ADD1B2" rx="12" ry="12" style="stroke:#181818;stroke-width:1.0;"/><path d="M2703.1406,421.1875 Q2703.3281,420.9375 2703.5469,420.8125 Q2703.7656,420.6719 2704.0156,420.6719 Q2704.4531,420.6719 2704.7344,420.9844 Q2705.0156,421.2813 2705.0156,422 L2705.0156,423.7031 Q2705.0156,424.4219 2704.7344,424.7344 Q2704.4531,425.0469 2704.0156,425.0469 Q2703.625,425.0469 2703.375,424.8125 Q2703.125,424.5938 2703.0156,423.9844 Q2702.9531,423.5625 2702.7344,423.3438 Q2702.3438,422.9063 2701.625,422.6406 Q2700.9063,422.375 2700.1875,422.375 Q2699.2813,422.375 2698.5313,422.7656 Q2697.7813,423.1563 2697.2031,424.0469 Q2696.625,424.9219 2696.625,426.125 L2696.625,427.4219 Q2696.625,428.875 2697.6719,429.8438 Q2698.7344,430.8125 2700.5938,430.8125 Q2701.7031,430.8125 2702.4844,430.5 Q2702.9219,430.3281 2703.4375,429.8125 Q2703.75,429.5 2703.9219,429.4063 Q2704.0938,429.3125 2704.3281,429.3125 Q2704.7188,429.3125 2705.0156,429.625 Q2705.3281,429.9219 2705.3281,430.3281 Q2705.3281,430.7344 2704.9219,431.2031 Q2704.3281,431.8906 2703.3906,432.2813 Q2702.125,432.8125 2700.6094,432.8125 Q2698.8281,432.8125 2697.4063,432.0781 Q2696.25,431.4844 2695.4375,430.2188 Q2694.625,428.9531 2694.625,427.4688 L2694.625,426.1094 Q2694.625,424.5469 2695.3438,423.2031 Q2696.0781,421.8438 2697.3594,421.1094 Q2698.6563,420.375 2700.1094,420.375 Q2700.9688,420.375 2701.7188,420.5781 Q2702.4844,420.7813 2703.1406,421.1875 Z " fill="#000000"/><text fill="#000000" font-family="sans-serif" font-size="20" font-style="italic" lengthAdjust="spacing" textLength="89" x="2808.5" y="421.8711">«Service»</text><text fill="#000000" font-family="sans-serif" font-size="20" lengthAdjust="spacing" textLength="274" x="2716" y="447.0273">ApplicationManagementService</text><line style="stroke:#181818;stroke-width:0.5;" x1="2686" x2="2992" y1="456.4219" y2="456.4219"/><line style="stroke:#181818;stroke-width:0.5;" x1="2686" x2="2992" y1="464.4219" y2="464.4219"/><ellipse cx="2696" cy="482.5" fill="#84BE84" rx="3" ry="3" style="stroke:#038048;stroke-width:1.0;"/><text fill="#000000" font-family="sans-serif" font-size="20" lengthAdjust="spacing" textLength="277" x="2706" y="489.1836">getApplicationsList(jobOpening)</text></g><!--class ApplicationDTOService--><g id="elem_ApplicationDTOService"><rect codeLine="33" fill="#F1F1F1" height="101.4688" id="ApplicationDTOService" rx="2.5" ry="2.5" style="stroke:#181818;stroke-width:0.5;" width="294" x="3028" y="396.1094"/><ellipse cx="3070.1" cy="426.2656" fill="#ADD1B2" rx="12" ry="12" style="stroke:#181818;stroke-width:1.0;"/><path d="M3072.2406,421.1875 Q3072.4281,420.9375 3072.6469,420.8125 Q3072.8656,420.6719 3073.1156,420.6719 Q3073.5531,420.6719 3073.8344,420.9844 Q3074.1156,421.2813 3074.1156,422 L3074.1156,423.7031 Q3074.1156,424.4219 3073.8344,424.7344 Q3073.5531,425.0469 3073.1156,425.0469 Q3072.725,425.0469 3072.475,424.8125 Q3072.225,424.5938 3072.1156,423.9844 Q3072.0531,423.5625 3071.8344,423.3438 Q3071.4438,422.9063 3070.725,422.6406 Q3070.0063,422.375 3069.2875,422.375 Q3068.3813,422.375 3067.6313,422.7656 Q3066.8813,423.1563 3066.3031,424.0469 Q3065.725,424.9219 3065.725,426.125 L3065.725,427.4219 Q3065.725,428.875 3066.7719,429.8438 Q3067.8344,430.8125 3069.6938,430.8125 Q3070.8031,430.8125 3071.5844,430.5 Q3072.0219,430.3281 3072.5375,429.8125 Q3072.85,429.5 3073.0219,429.4063 Q3073.1938,429.3125 3073.4281,429.3125 Q3073.8188,429.3125 3074.1156,429.625 Q3074.4281,429.9219 3074.4281,430.3281 Q3074.4281,430.7344 3074.0219,431.2031 Q3073.4281,431.8906 3072.4906,432.2813 Q3071.225,432.8125 3069.7094,432.8125 Q3067.9281,432.8125 3066.5063,432.0781 Q3065.35,431.4844 3064.5375,430.2188 Q3063.725,428.9531 3063.725,427.4688 L3063.725,426.1094 Q3063.725,424.5469 3064.4438,423.2031 Q3065.1781,421.8438 3066.4594,421.1094 Q3067.7563,420.375 3069.2094,420.375 Q3070.0688,420.375 3070.8188,420.5781 Q3071.5844,420.7813 3072.2406,421.1875 Z " fill="#000000"/><text fill="#000000" font-family="sans-serif" font-size="20" font-style="italic" lengthAdjust="spacing" textLength="89" x="3147.4" y="421.8711">«Service»</text><text fill="#000000" font-family="sans-serif" font-size="20" lengthAdjust="spacing" textLength="202" x="3090.9" y="447.0273">ApplicationDTOService</text><line style="stroke:#181818;stroke-width:0.5;" x1="3029" x2="3321" y1="456.4219" y2="456.4219"/><line style="stroke:#181818;stroke-width:0.5;" x1="3029" x2="3321" y1="464.4219" y2="464.4219"/><ellipse cx="3039" cy="482.5" fill="#84BE84" rx="3" ry="3" style="stroke:#038048;stroke-width:1.0;"/><text fill="#000000" font-family="sans-serif" font-size="20" lengthAdjust="spacing" textLength="267" x="3049" y="489.1836">convertToDTO(applicationList)</text></g><!--class CandidateManagementService--><g id="elem_CandidateManagementService"><rect codeLine="37" fill="#F1F1F1" height="101.4688" id="CandidateManagementService" rx="2.5" ry="2.5" style="stroke:#181818;stroke-width:0.5;" width="365" x="1092.5" y="396.1094"/><ellipse cx="1136.85" cy="426.2656" fill="#ADD1B2" rx="12" ry="12" style="stroke:#181818;stroke-width:1.0;"/><path d="M1138.9906,421.1875 Q1139.1781,420.9375 1139.3969,420.8125 Q1139.6156,420.6719 1139.8656,420.6719 Q1140.3031,420.6719 1140.5844,420.9844 Q1140.8656,421.2813 1140.8656,422 L1140.8656,423.7031 Q1140.8656,424.4219 1140.5844,424.7344 Q1140.3031,425.0469 1139.8656,425.0469 Q1139.475,425.0469 1139.225,424.8125 Q1138.975,424.5938 1138.8656,423.9844 Q1138.8031,423.5625 1138.5844,423.3438 Q1138.1938,422.9063 1137.475,422.6406 Q1136.7563,422.375 1136.0375,422.375 Q1135.1313,422.375 1134.3813,422.7656 Q1133.6313,423.1563 1133.0531,424.0469 Q1132.475,424.9219 1132.475,426.125 L1132.475,427.4219 Q1132.475,428.875 1133.5219,429.8438 Q1134.5844,430.8125 1136.4438,430.8125 Q1137.5531,430.8125 1138.3344,430.5 Q1138.7719,430.3281 1139.2875,429.8125 Q1139.6,429.5 1139.7719,429.4063 Q1139.9438,429.3125 1140.1781,429.3125 Q1140.5688,429.3125 1140.8656,429.625 Q1141.1781,429.9219 1141.1781,430.3281 Q1141.1781,430.7344 1140.7719,431.2031 Q1140.1781,431.8906 1139.2406,432.2813 Q1137.975,432.8125 1136.4594,432.8125 Q1134.6781,432.8125 1133.2563,432.0781 Q1132.1,431.4844 1131.2875,430.2188 Q1130.475,428.9531 1130.475,427.4688 L1130.475,426.1094 Q1130.475,424.5469 1131.1938,423.2031 Q1131.9281,421.8438 1133.2094,421.1094 Q1134.5063,420.375 1135.9594,420.375 Q1136.8188,420.375 1137.5688,420.5781 Q1138.3344,420.7813 1138.9906,421.1875 Z " fill="#000000"/><text fill="#000000" font-family="sans-serif" font-size="20" font-style="italic" lengthAdjust="spacing" textLength="89" x="1247.65" y="421.8711">«Service»</text><text fill="#000000" font-family="sans-serif" font-size="20" lengthAdjust="spacing" textLength="268" x="1158.15" y="447.0273">CandidateManagementService</text><line style="stroke:#181818;stroke-width:0.5;" x1="1093.5" x2="1456.5" y1="456.4219" y2="456.4219"/><line style="stroke:#181818;stroke-width:0.5;" x1="1093.5" x2="1456.5" y1="464.4219" y2="464.4219"/><ellipse cx="1103.5" cy="482.5" fill="#84BE84" rx="3" ry="3" style="stroke:#038048;stroke-width:1.0;"/><text fill="#000000" font-family="sans-serif" font-size="20" lengthAdjust="spacing" textLength="338" x="1113.5" y="489.1836">getCandidateList(applicationsListDTO)</text></g><!--class CandidateDTOService--><g id="elem_CandidateDTOService"><rect codeLine="41" fill="#F1F1F1" height="101.4688" id="CandidateDTOService" rx="2.5" ry="2.5" style="stroke:#181818;stroke-width:0.5;" width="286" x="771" y="396.1094"/><ellipse cx="812.2" cy="426.2656" fill="#ADD1B2" rx="12" ry="12" style="stroke:#181818;stroke-width:1.0;"/><path d="M814.3406,421.1875 Q814.5281,420.9375 814.7469,420.8125 Q814.9656,420.6719 815.2156,420.6719 Q815.6531,420.6719 815.9344,420.9844 Q816.2156,421.2813 816.2156,422 L816.2156,423.7031 Q816.2156,424.4219 815.9344,424.7344 Q815.6531,425.0469 815.2156,425.0469 Q814.825,425.0469 814.575,424.8125 Q814.325,424.5938 814.2156,423.9844 Q814.1531,423.5625 813.9344,423.3438 Q813.5438,422.9063 812.825,422.6406 Q812.1063,422.375 811.3875,422.375 Q810.4813,422.375 809.7313,422.7656 Q808.9813,423.1563 808.4031,424.0469 Q807.825,424.9219 807.825,426.125 L807.825,427.4219 Q807.825,428.875 808.8719,429.8438 Q809.9344,430.8125 811.7938,430.8125 Q812.9031,430.8125 813.6844,430.5 Q814.1219,430.3281 814.6375,429.8125 Q814.95,429.5 815.1219,429.4063 Q815.2938,429.3125 815.5281,429.3125 Q815.9188,429.3125 816.2156,429.625 Q816.5281,429.9219 816.5281,430.3281 Q816.5281,430.7344 816.1219,431.2031 Q815.5281,431.8906 814.5906,432.2813 Q813.325,432.8125 811.8094,432.8125 Q810.0281,432.8125 808.6063,432.0781 Q807.45,431.4844 806.6375,430.2188 Q805.825,428.9531 805.825,427.4688 L805.825,426.1094 Q805.825,424.5469 806.5438,423.2031 Q807.2781,421.8438 808.5594,421.1094 Q809.8563,420.375 811.3094,420.375 Q812.1688,420.375 812.9188,420.5781 Q813.6844,420.7813 814.3406,421.1875 Z " fill="#000000"/><text fill="#000000" font-family="sans-serif" font-size="20" font-style="italic" lengthAdjust="spacing" textLength="89" x="886.3" y="421.8711">«Service»</text><text fill="#000000" font-family="sans-serif" font-size="20" lengthAdjust="spacing" textLength="196" x="832.8" y="447.0273">CandidateDTOService</text><line style="stroke:#181818;stroke-width:0.5;" x1="772" x2="1056" y1="456.4219" y2="456.4219"/><line style="stroke:#181818;stroke-width:0.5;" x1="772" x2="1056" y1="464.4219" y2="464.4219"/><ellipse cx="782" cy="482.5" fill="#84BE84" rx="3" ry="3" style="stroke:#038048;stroke-width:1.0;"/><text fill="#000000" font-family="sans-serif" font-size="20" lengthAdjust="spacing" textLength="259" x="792" y="489.1836">convertToDTO(candidateList)</text></g><!--class CustomerManager--><g id="elem_CustomerManager"><rect codeLine="58" fill="#F1F1F1" height="126.625" id="CustomerManager" rx="2.5" ry="2.5" style="stroke:#181818;stroke-width:0.5;" width="197" x="480.5" y="924.1094"/><ellipse cx="496.5" cy="966.8438" fill="#ADD1B2" rx="12" ry="12" style="stroke:#181818;stroke-width:1.0;"/><path d="M498.6406,961.7656 Q498.8281,961.5156 499.0469,961.3906 Q499.2656,961.25 499.5156,961.25 Q499.9531,961.25 500.2344,961.5625 Q500.5156,961.8594 500.5156,962.5781 L500.5156,964.2813 Q500.5156,965 500.2344,965.3125 Q499.9531,965.625 499.5156,965.625 Q499.125,965.625 498.875,965.3906 Q498.625,965.1719 498.5156,964.5625 Q498.4531,964.1406 498.2344,963.9219 Q497.8438,963.4844 497.125,963.2188 Q496.4063,962.9531 495.6875,962.9531 Q494.7813,962.9531 494.0313,963.3438 Q493.2813,963.7344 492.7031,964.625 Q492.125,965.5 492.125,966.7031 L492.125,968 Q492.125,969.4531 493.1719,970.4219 Q494.2344,971.3906 496.0938,971.3906 Q497.2031,971.3906 497.9844,971.0781 Q498.4219,970.9063 498.9375,970.3906 Q499.25,970.0781 499.4219,969.9844 Q499.5938,969.8906 499.8281,969.8906 Q500.2188,969.8906 500.5156,970.2031 Q500.8281,970.5 500.8281,970.9063 Q500.8281,971.3125 500.4219,971.7813 Q499.8281,972.4688 498.8906,972.8594 Q497.625,973.3906 496.1094,973.3906 Q494.3281,973.3906 492.9063,972.6563 Q491.75,972.0625 490.9375,970.7969 Q490.125,969.5313 490.125,968.0469 L490.125,966.6875 Q490.125,965.125 490.8438,963.7813 Q491.5781,962.4219 492.8594,961.6875 Q494.1563,960.9531 495.6094,960.9531 Q496.4688,960.9531 497.2188,961.1563 Q497.9844,961.3594 498.6406,961.7656 Z " fill="#000000"/><text fill="#000000" font-family="sans-serif" font-size="20" font-style="italic" lengthAdjust="spacing" textLength="91" x="547.5" y="949.8711">«Domain»</text><text fill="#000000" font-family="sans-serif" font-size="20" font-style="italic" lengthAdjust="spacing" textLength="160" x="513" y="975.0273">«Aggregate Root»</text><text fill="#000000" font-family="sans-serif" font-size="20" lengthAdjust="spacing" textLength="163" x="511.5" y="1000.1836">CustomerManager</text><line style="stroke:#181818;stroke-width:0.5;" x1="481.5" x2="676.5" y1="1009.5781" y2="1009.5781"/><line style="stroke:#181818;stroke-width:0.5;" x1="481.5" x2="676.5" y1="1017.5781" y2="1017.5781"/><ellipse cx="491.5" cy="1035.6563" fill="#84BE84" rx="3" ry="3" style="stroke:#038048;stroke-width:1.0;"/><text fill="#000000" font-family="sans-serif" font-size="20" lengthAdjust="spacing" textLength="142" x="501.5" y="1042.3398">customerCode()</text></g><!--class Candidate--><g id="elem_Candidate"><rect codeLine="62" fill="#F1F1F1" height="176.9375" id="Candidate" rx="2.5" ry="2.5" style="stroke:#181818;stroke-width:0.5;" width="289" x="845.5" y="899.1094"/><ellipse cx="907.5" cy="941.8438" fill="#ADD1B2" rx="12" ry="12" style="stroke:#181818;stroke-width:1.0;"/><path d="M909.6406,936.7656 Q909.8281,936.5156 910.0469,936.3906 Q910.2656,936.25 910.5156,936.25 Q910.9531,936.25 911.2344,936.5625 Q911.5156,936.8594 911.5156,937.5781 L911.5156,939.2813 Q911.5156,940 911.2344,940.3125 Q910.9531,940.625 910.5156,940.625 Q910.125,940.625 909.875,940.3906 Q909.625,940.1719 909.5156,939.5625 Q909.4531,939.1406 909.2344,938.9219 Q908.8438,938.4844 908.125,938.2188 Q907.4063,937.9531 906.6875,937.9531 Q905.7813,937.9531 905.0313,938.3438 Q904.2813,938.7344 903.7031,939.625 Q903.125,940.5 903.125,941.7031 L903.125,943 Q903.125,944.4531 904.1719,945.4219 Q905.2344,946.3906 907.0938,946.3906 Q908.2031,946.3906 908.9844,946.0781 Q909.4219,945.9063 909.9375,945.3906 Q910.25,945.0781 910.4219,944.9844 Q910.5938,944.8906 910.8281,944.8906 Q911.2188,944.8906 911.5156,945.2031 Q911.8281,945.5 911.8281,945.9063 Q911.8281,946.3125 911.4219,946.7813 Q910.8281,947.4688 909.8906,947.8594 Q908.625,948.3906 907.1094,948.3906 Q905.3281,948.3906 903.9063,947.6563 Q902.75,947.0625 901.9375,945.7969 Q901.125,944.5313 901.125,943.0469 L901.125,941.6875 Q901.125,940.125 901.8438,938.7813 Q902.5781,937.4219 903.8594,936.6875 Q905.1563,935.9531 906.6094,935.9531 Q907.4688,935.9531 908.2188,936.1563 Q908.9844,936.3594 909.6406,936.7656 Z " fill="#000000"/><text fill="#000000" font-family="sans-serif" font-size="20" font-style="italic" lengthAdjust="spacing" textLength="91" x="962" y="924.8711">«Domain»</text><text fill="#000000" font-family="sans-serif" font-size="20" font-style="italic" lengthAdjust="spacing" textLength="160" x="927.5" y="950.0273">«Aggregate Root»</text><text fill="#000000" font-family="sans-serif" font-size="20" lengthAdjust="spacing" textLength="89" x="963" y="975.1836">Candidate</text><line style="stroke:#181818;stroke-width:0.5;" x1="846.5" x2="1133.5" y1="984.5781" y2="984.5781"/><rect fill="none" height="6" style="stroke:#C82930;stroke-width:1.0;" width="6" x="853.5" y="999.6563"/><text fill="#000000" font-family="sans-serif" font-size="20" lengthAdjust="spacing" textLength="262" x="866.5" y="1009.3398">phoneNumber : PhoneNumber</text><rect fill="none" height="6" style="stroke:#C82930;stroke-width:1.0;" width="6" x="853.5" y="1024.8125"/><text fill="#000000" font-family="sans-serif" font-size="20" lengthAdjust="spacing" textLength="229" x="866.5" y="1034.4961">systemUser : SystemUser</text><line style="stroke:#181818;stroke-width:0.5;" x1="846.5" x2="1133.5" y1="1042.8906" y2="1042.8906"/><ellipse cx="856.5" cy="1060.9688" fill="#84BE84" rx="3" ry="3" style="stroke:#038048;stroke-width:1.0;"/><text fill="#000000" font-family="sans-serif" font-size="20" lengthAdjust="spacing" textLength="73" x="866.5" y="1067.6523">toDTO()</text></g><!--class JobOpening--><g id="elem_JobOpening"><rect codeLine="68" fill="#F1F1F1" height="353.0313" id="JobOpening" rx="2.5" ry="2.5" style="stroke:#181818;stroke-width:0.5;" width="342" x="1821" y="1213.6094"/><ellipse cx="1909.5" cy="1256.3438" fill="#ADD1B2" rx="12" ry="12" style="stroke:#181818;stroke-width:1.0;"/><path d="M1911.6406,1251.2656 Q1911.8281,1251.0156 1912.0469,1250.8906 Q1912.2656,1250.75 1912.5156,1250.75 Q1912.9531,1250.75 1913.2344,1251.0625 Q1913.5156,1251.3594 1913.5156,1252.0781 L1913.5156,1253.7813 Q1913.5156,1254.5 1913.2344,1254.8125 Q1912.9531,1255.125 1912.5156,1255.125 Q1912.125,1255.125 1911.875,1254.8906 Q1911.625,1254.6719 1911.5156,1254.0625 Q1911.4531,1253.6406 1911.2344,1253.4219 Q1910.8438,1252.9844 1910.125,1252.7188 Q1909.4063,1252.4531 1908.6875,1252.4531 Q1907.7813,1252.4531 1907.0313,1252.8438 Q1906.2813,1253.2344 1905.7031,1254.125 Q1905.125,1255 1905.125,1256.2031 L1905.125,1257.5 Q1905.125,1258.9531 1906.1719,1259.9219 Q1907.2344,1260.8906 1909.0938,1260.8906 Q1910.2031,1260.8906 1910.9844,1260.5781 Q1911.4219,1260.4063 1911.9375,1259.8906 Q1912.25,1259.5781 1912.4219,1259.4844 Q1912.5938,1259.3906 1912.8281,1259.3906 Q1913.2188,1259.3906 1913.5156,1259.7031 Q1913.8281,1260 1913.8281,1260.4063 Q1913.8281,1260.8125 1913.4219,1261.2813 Q1912.8281,1261.9688 1911.8906,1262.3594 Q1910.625,1262.8906 1909.1094,1262.8906 Q1907.3281,1262.8906 1905.9063,1262.1563 Q1904.75,1261.5625 1903.9375,1260.2969 Q1903.125,1259.0313 1903.125,1257.5469 L1903.125,1256.1875 Q1903.125,1254.625 1903.8438,1253.2813 Q1904.5781,1251.9219 1905.8594,1251.1875 Q1907.1563,1250.4531 1908.6094,1250.4531 Q1909.4688,1250.4531 1910.2188,1250.6563 Q1910.9844,1250.8594 1911.6406,1251.2656 Z " fill="#000000"/><text fill="#000000" font-family="sans-serif" font-size="20" font-style="italic" lengthAdjust="spacing" textLength="91" x="1964" y="1239.3711">«Domain»</text><text fill="#000000" font-family="sans-serif" font-size="20" font-style="italic" lengthAdjust="spacing" textLength="160" x="1929.5" y="1264.5273">«Aggregate Root»</text><text fill="#000000" font-family="sans-serif" font-size="20" lengthAdjust="spacing" textLength="105" x="1957" y="1289.6836">JobOpening</text><line style="stroke:#181818;stroke-width:0.5;" x1="1822" x2="2162" y1="1299.0781" y2="1299.0781"/><rect fill="none" height="6" style="stroke:#C82930;stroke-width:1.0;" width="6" x="1829" y="1314.1563"/><text fill="#000000" font-family="sans-serif" font-size="20" lengthAdjust="spacing" textLength="136" x="1842" y="1323.8398">function : String</text><rect fill="none" height="6" style="stroke:#C82930;stroke-width:1.0;" width="6" x="1829" y="1339.3125"/><text fill="#000000" font-family="sans-serif" font-size="20" lengthAdjust="spacing" textLength="252" x="1842" y="1348.9961">contractType : ContractType</text><rect fill="none" height="6" style="stroke:#C82930;stroke-width:1.0;" width="6" x="1829" y="1364.4688"/><text fill="#000000" font-family="sans-serif" font-size="20" lengthAdjust="spacing" textLength="208" x="1842" y="1374.1523">workMode : WorkMode</text><rect fill="none" height="6" style="stroke:#C82930;stroke-width:1.0;" width="6" x="1829" y="1389.625"/><text fill="#000000" font-family="sans-serif" font-size="20" lengthAdjust="spacing" textLength="243" x="1842" y="1399.3086">companyAddress : Address</text><rect fill="none" height="6" style="stroke:#C82930;stroke-width:1.0;" width="6" x="1829" y="1414.7813"/><text fill="#000000" font-family="sans-serif" font-size="20" lengthAdjust="spacing" textLength="197" x="1842" y="1424.4648">costumerCode : String</text><rect fill="none" height="6" style="stroke:#C82930;stroke-width:1.0;" width="6" x="1829" y="1439.9375"/><text fill="#000000" font-family="sans-serif" font-size="20" lengthAdjust="spacing" textLength="199" x="1842" y="1449.6211">companyName : String</text><rect fill="none" height="6" style="stroke:#C82930;stroke-width:1.0;" width="6" x="1829" y="1465.0938"/><text fill="#000000" font-family="sans-serif" font-size="20" lengthAdjust="spacing" textLength="206" x="1842" y="1474.7773">numVacancies : Integer</text><rect fill="none" height="6" style="stroke:#C82930;stroke-width:1.0;" width="6" x="1829" y="1490.25"/><text fill="#000000" font-family="sans-serif" font-size="20" lengthAdjust="spacing" textLength="164" x="1842" y="1499.9336">description : String</text><rect fill="none" height="6" style="stroke:#C82930;stroke-width:1.0;" width="6" x="1829" y="1515.4063"/><text fill="#000000" font-family="sans-serif" font-size="20" lengthAdjust="spacing" textLength="315" x="1842" y="1525.0898">requirementsSpecificationsFile : File</text><line style="stroke:#181818;stroke-width:0.5;" x1="1822" x2="2162" y1="1533.4844" y2="1533.4844"/><ellipse cx="1832" cy="1551.5625" fill="#84BE84" rx="3" ry="3" style="stroke:#038048;stroke-width:1.0;"/><text fill="#000000" font-family="sans-serif" font-size="20" lengthAdjust="spacing" textLength="73" x="1842" y="1558.2461">toDTO()</text></g><!--class WorkMode--><g id="elem_WorkMode"><rect codeLine="81" fill="#F1F1F1" height="176.9375" id="WorkMode" rx="2.5" ry="2.5" style="stroke:#181818;stroke-width:0.5;" width="301" x="1491.5" y="899.1094"/><ellipse cx="1571.5" cy="941.8438" fill="#ADD1B2" rx="12" ry="12" style="stroke:#181818;stroke-width:1.0;"/><path d="M1573.6406,936.7656 Q1573.8281,936.5156 1574.0469,936.3906 Q1574.2656,936.25 1574.5156,936.25 Q1574.9531,936.25 1575.2344,936.5625 Q1575.5156,936.8594 1575.5156,937.5781 L1575.5156,939.2813 Q1575.5156,940 1575.2344,940.3125 Q1574.9531,940.625 1574.5156,940.625 Q1574.125,940.625 1573.875,940.3906 Q1573.625,940.1719 1573.5156,939.5625 Q1573.4531,939.1406 1573.2344,938.9219 Q1572.8438,938.4844 1572.125,938.2188 Q1571.4063,937.9531 1570.6875,937.9531 Q1569.7813,937.9531 1569.0313,938.3438 Q1568.2813,938.7344 1567.7031,939.625 Q1567.125,940.5 1567.125,941.7031 L1567.125,943 Q1567.125,944.4531 1568.1719,945.4219 Q1569.2344,946.3906 1571.0938,946.3906 Q1572.2031,946.3906 1572.9844,946.0781 Q1573.4219,945.9063 1573.9375,945.3906 Q1574.25,945.0781 1574.4219,944.9844 Q1574.5938,944.8906 1574.8281,944.8906 Q1575.2188,944.8906 1575.5156,945.2031 Q1575.8281,945.5 1575.8281,945.9063 Q1575.8281,946.3125 1575.4219,946.7813 Q1574.8281,947.4688 1573.8906,947.8594 Q1572.625,948.3906 1571.1094,948.3906 Q1569.3281,948.3906 1567.9063,947.6563 Q1566.75,947.0625 1565.9375,945.7969 Q1565.125,944.5313 1565.125,943.0469 L1565.125,941.6875 Q1565.125,940.125 1565.8438,938.7813 Q1566.5781,937.4219 1567.8594,936.6875 Q1569.1563,935.9531 1570.6094,935.9531 Q1571.4688,935.9531 1572.2188,936.1563 Q1572.9844,936.3594 1573.6406,936.7656 Z " fill="#000000"/><text fill="#000000" font-family="sans-serif" font-size="20" font-style="italic" lengthAdjust="spacing" textLength="91" x="1614" y="924.8711">«Domain»</text><text fill="#000000" font-family="sans-serif" font-size="20" font-style="italic" lengthAdjust="spacing" textLength="136" x="1591.5" y="950.0273">«Value Object»</text><text fill="#000000" font-family="sans-serif" font-size="20" lengthAdjust="spacing" textLength="97" x="1611" y="975.1836">WorkMode</text><line style="stroke:#181818;stroke-width:0.5;" x1="1492.5" x2="1791.5" y1="984.5781" y2="984.5781"/><rect fill="none" height="6" style="stroke:#C82930;stroke-width:1.0;" width="6" x="1499.5" y="999.6563"/><text fill="#000000" font-family="sans-serif" font-size="20" lengthAdjust="spacing" textLength="274" x="1512.5" y="1009.3398">workModeDenomination: String</text><line style="stroke:#181818;stroke-width:0.5;" x1="1492.5" x2="1791.5" y1="1017.7344" y2="1017.7344"/><ellipse cx="1502.5" cy="1035.8125" fill="#84BE84" rx="3" ry="3" style="stroke:#038048;stroke-width:1.0;"/><text fill="#000000" font-family="sans-serif" font-size="20" lengthAdjust="spacing" textLength="81" x="1512.5" y="1042.4961">valueOf()</text><ellipse cx="1502.5" cy="1060.9688" fill="#84BE84" rx="3" ry="3" style="stroke:#038048;stroke-width:1.0;"/><text fill="#000000" font-family="sans-serif" font-size="20" lengthAdjust="spacing" textLength="63" x="1512.5" y="1067.6523">mode()</text></g><!--class ContractType--><g id="elem_ContractType"><rect codeLine="87" fill="#F1F1F1" height="176.9375" id="ContractType" rx="2.5" ry="2.5" style="stroke:#181818;stroke-width:0.5;" width="329" x="1827.5" y="899.1094"/><ellipse cx="1921.5" cy="941.8438" fill="#ADD1B2" rx="12" ry="12" style="stroke:#181818;stroke-width:1.0;"/><path d="M1923.6406,936.7656 Q1923.8281,936.5156 1924.0469,936.3906 Q1924.2656,936.25 1924.5156,936.25 Q1924.9531,936.25 1925.2344,936.5625 Q1925.5156,936.8594 1925.5156,937.5781 L1925.5156,939.2813 Q1925.5156,940 1925.2344,940.3125 Q1924.9531,940.625 1924.5156,940.625 Q1924.125,940.625 1923.875,940.3906 Q1923.625,940.1719 1923.5156,939.5625 Q1923.4531,939.1406 1923.2344,938.9219 Q1922.8438,938.4844 1922.125,938.2188 Q1921.4063,937.9531 1920.6875,937.9531 Q1919.7813,937.9531 1919.0313,938.3438 Q1918.2813,938.7344 1917.7031,939.625 Q1917.125,940.5 1917.125,941.7031 L1917.125,943 Q1917.125,944.4531 1918.1719,945.4219 Q1919.2344,946.3906 1921.0938,946.3906 Q1922.2031,946.3906 1922.9844,946.0781 Q1923.4219,945.9063 1923.9375,945.3906 Q1924.25,945.0781 1924.4219,944.9844 Q1924.5938,944.8906 1924.8281,944.8906 Q1925.2188,944.8906 1925.5156,945.2031 Q1925.8281,945.5 1925.8281,945.9063 Q1925.8281,946.3125 1925.4219,946.7813 Q1924.8281,947.4688 1923.8906,947.8594 Q1922.625,948.3906 1921.1094,948.3906 Q1919.3281,948.3906 1917.9063,947.6563 Q1916.75,947.0625 1915.9375,945.7969 Q1915.125,944.5313 1915.125,943.0469 L1915.125,941.6875 Q1915.125,940.125 1915.8438,938.7813 Q1916.5781,937.4219 1917.8594,936.6875 Q1919.1563,935.9531 1920.6094,935.9531 Q1921.4688,935.9531 1922.2188,936.1563 Q1922.9844,936.3594 1923.6406,936.7656 Z " fill="#000000"/><text fill="#000000" font-family="sans-serif" font-size="20" font-style="italic" lengthAdjust="spacing" textLength="91" x="1964" y="924.8711">«Domain»</text><text fill="#000000" font-family="sans-serif" font-size="20" font-style="italic" lengthAdjust="spacing" textLength="136" x="1941.5" y="950.0273">«Value Object»</text><text fill="#000000" font-family="sans-serif" font-size="20" lengthAdjust="spacing" textLength="119" x="1950" y="975.1836">ContractType</text><line style="stroke:#181818;stroke-width:0.5;" x1="1828.5" x2="2155.5" y1="984.5781" y2="984.5781"/><rect fill="none" height="6" style="stroke:#C82930;stroke-width:1.0;" width="6" x="1835.5" y="999.6563"/><text fill="#000000" font-family="sans-serif" font-size="20" lengthAdjust="spacing" textLength="302" x="1848.5" y="1009.3398">contractTypeDenomination : String</text><line style="stroke:#181818;stroke-width:0.5;" x1="1828.5" x2="2155.5" y1="1017.7344" y2="1017.7344"/><ellipse cx="1838.5" cy="1035.8125" fill="#84BE84" rx="3" ry="3" style="stroke:#038048;stroke-width:1.0;"/><text fill="#000000" font-family="sans-serif" font-size="20" lengthAdjust="spacing" textLength="81" x="1848.5" y="1042.4961">valueOf()</text><ellipse cx="1838.5" cy="1060.9688" fill="#84BE84" rx="3" ry="3" style="stroke:#038048;stroke-width:1.0;"/><text fill="#000000" font-family="sans-serif" font-size="20" lengthAdjust="spacing" textLength="52" x="1848.5" y="1067.6523">type()</text></g><!--class Application--><g id="elem_Application"><rect codeLine="93" fill="#F1F1F1" height="353.0313" id="Application" rx="2.5" ry="2.5" style="stroke:#181818;stroke-width:0.5;" width="266" x="2858" y="1213.6094"/><ellipse cx="2908.5" cy="1256.3438" fill="#ADD1B2" rx="12" ry="12" style="stroke:#181818;stroke-width:1.0;"/><path d="M2910.6406,1251.2656 Q2910.8281,1251.0156 2911.0469,1250.8906 Q2911.2656,1250.75 2911.5156,1250.75 Q2911.9531,1250.75 2912.2344,1251.0625 Q2912.5156,1251.3594 2912.5156,1252.0781 L2912.5156,1253.7813 Q2912.5156,1254.5 2912.2344,1254.8125 Q2911.9531,1255.125 2911.5156,1255.125 Q2911.125,1255.125 2910.875,1254.8906 Q2910.625,1254.6719 2910.5156,1254.0625 Q2910.4531,1253.6406 2910.2344,1253.4219 Q2909.8438,1252.9844 2909.125,1252.7188 Q2908.4063,1252.4531 2907.6875,1252.4531 Q2906.7813,1252.4531 2906.0313,1252.8438 Q2905.2813,1253.2344 2904.7031,1254.125 Q2904.125,1255 2904.125,1256.2031 L2904.125,1257.5 Q2904.125,1258.9531 2905.1719,1259.9219 Q2906.2344,1260.8906 2908.0938,1260.8906 Q2909.2031,1260.8906 2909.9844,1260.5781 Q2910.4219,1260.4063 2910.9375,1259.8906 Q2911.25,1259.5781 2911.4219,1259.4844 Q2911.5938,1259.3906 2911.8281,1259.3906 Q2912.2188,1259.3906 2912.5156,1259.7031 Q2912.8281,1260 2912.8281,1260.4063 Q2912.8281,1260.8125 2912.4219,1261.2813 Q2911.8281,1261.9688 2910.8906,1262.3594 Q2909.625,1262.8906 2908.1094,1262.8906 Q2906.3281,1262.8906 2904.9063,1262.1563 Q2903.75,1261.5625 2902.9375,1260.2969 Q2902.125,1259.0313 2902.125,1257.5469 L2902.125,1256.1875 Q2902.125,1254.625 2902.8438,1253.2813 Q2903.5781,1251.9219 2904.8594,1251.1875 Q2906.1563,1250.4531 2907.6094,1250.4531 Q2908.4688,1250.4531 2909.2188,1250.6563 Q2909.9844,1250.8594 2910.6406,1251.2656 Z " fill="#000000"/><text fill="#000000" font-family="sans-serif" font-size="20" font-style="italic" lengthAdjust="spacing" textLength="91" x="2963" y="1239.3711">«Domain»</text><text fill="#000000" font-family="sans-serif" font-size="20" font-style="italic" lengthAdjust="spacing" textLength="160" x="2928.5" y="1264.5273">«Aggregate Root»</text><text fill="#000000" font-family="sans-serif" font-size="20" lengthAdjust="spacing" textLength="95" x="2961" y="1289.6836">Application</text><line style="stroke:#181818;stroke-width:0.5;" x1="2859" x2="3123" y1="1299.0781" y2="1299.0781"/><rect fill="none" height="6" style="stroke:#C82930;stroke-width:1.0;" width="6" x="2866" y="1314.1563"/><text fill="#000000" font-family="sans-serif" font-size="20" lengthAdjust="spacing" textLength="239" x="2879" y="1323.8398">requirementAnswer : String</text><rect fill="none" height="6" style="stroke:#C82930;stroke-width:1.0;" width="6" x="2866" y="1339.3125"/><text fill="#000000" font-family="sans-serif" font-size="20" lengthAdjust="spacing" textLength="239" x="2879" y="1348.9961">requirementResult : Integer</text><rect fill="none" height="6" style="stroke:#C82930;stroke-width:1.0;" width="6" x="2866" y="1364.4688"/><text fill="#000000" font-family="sans-serif" font-size="20" lengthAdjust="spacing" textLength="74" x="2879" y="1374.1523">file : File</text><rect fill="none" height="6" style="stroke:#C82930;stroke-width:1.0;" width="6" x="2866" y="1389.625"/><text fill="#000000" font-family="sans-serif" font-size="20" lengthAdjust="spacing" textLength="115" x="2879" y="1399.3086">email : String</text><rect fill="none" height="6" style="stroke:#C82930;stroke-width:1.0;" width="6" x="2866" y="1414.7813"/><text fill="#000000" font-family="sans-serif" font-size="20" lengthAdjust="spacing" textLength="195" x="2879" y="1424.4648">applicationDate : Date</text><rect fill="none" height="6" style="stroke:#C82930;stroke-width:1.0;" width="6" x="2866" y="1439.9375"/><text fill="#000000" font-family="sans-serif" font-size="20" lengthAdjust="spacing" textLength="238" x="2879" y="1449.6211">applicationStatus : Boolean</text><rect fill="none" height="6" style="stroke:#C82930;stroke-width:1.0;" width="6" x="2866" y="1465.0938"/><text fill="#000000" font-family="sans-serif" font-size="20" lengthAdjust="spacing" textLength="205" x="2879" y="1474.7773">candidateName : String</text><rect fill="none" height="6" style="stroke:#C82930;stroke-width:1.0;" width="6" x="2866" y="1490.25"/><text fill="#000000" font-family="sans-serif" font-size="20" lengthAdjust="spacing" textLength="201" x="2879" y="1499.9336">phoneNumber : Integer</text><rect fill="none" height="6" style="stroke:#C82930;stroke-width:1.0;" width="6" x="2866" y="1515.4063"/><text fill="#000000" font-family="sans-serif" font-size="20" lengthAdjust="spacing" textLength="174" x="2879" y="1525.0898">interview : Interview</text><line style="stroke:#181818;stroke-width:0.5;" x1="2859" x2="3123" y1="1533.4844" y2="1533.4844"/><ellipse cx="2869" cy="1551.5625" fill="#84BE84" rx="3" ry="3" style="stroke:#038048;stroke-width:1.0;"/><text fill="#000000" font-family="sans-serif" font-size="20" lengthAdjust="spacing" textLength="73" x="2879" y="1558.2461">toDTO()</text></g><!--class Interview--><g id="elem_Interview"><rect codeLine="106" fill="#F1F1F1" height="277.5625" id="Interview" rx="2.5" ry="2.5" style="stroke:#181818;stroke-width:0.5;" width="335" x="2674.5" y="848.6094"/><ellipse cx="2771.5" cy="891.3438" fill="#ADD1B2" rx="12" ry="12" style="stroke:#181818;stroke-width:1.0;"/><path d="M2773.6406,886.2656 Q2773.8281,886.0156 2774.0469,885.8906 Q2774.2656,885.75 2774.5156,885.75 Q2774.9531,885.75 2775.2344,886.0625 Q2775.5156,886.3594 2775.5156,887.0781 L2775.5156,888.7813 Q2775.5156,889.5 2775.2344,889.8125 Q2774.9531,890.125 2774.5156,890.125 Q2774.125,890.125 2773.875,889.8906 Q2773.625,889.6719 2773.5156,889.0625 Q2773.4531,888.6406 2773.2344,888.4219 Q2772.8438,887.9844 2772.125,887.7188 Q2771.4063,887.4531 2770.6875,887.4531 Q2769.7813,887.4531 2769.0313,887.8438 Q2768.2813,888.2344 2767.7031,889.125 Q2767.125,890 2767.125,891.2031 L2767.125,892.5 Q2767.125,893.9531 2768.1719,894.9219 Q2769.2344,895.8906 2771.0938,895.8906 Q2772.2031,895.8906 2772.9844,895.5781 Q2773.4219,895.4063 2773.9375,894.8906 Q2774.25,894.5781 2774.4219,894.4844 Q2774.5938,894.3906 2774.8281,894.3906 Q2775.2188,894.3906 2775.5156,894.7031 Q2775.8281,895 2775.8281,895.4063 Q2775.8281,895.8125 2775.4219,896.2813 Q2774.8281,896.9688 2773.8906,897.3594 Q2772.625,897.8906 2771.1094,897.8906 Q2769.3281,897.8906 2767.9063,897.1563 Q2766.75,896.5625 2765.9375,895.2969 Q2765.125,894.0313 2765.125,892.5469 L2765.125,891.1875 Q2765.125,889.625 2765.8438,888.2813 Q2766.5781,886.9219 2767.8594,886.1875 Q2769.1563,885.4531 2770.6094,885.4531 Q2771.4688,885.4531 2772.2188,885.6563 Q2772.9844,885.8594 2773.6406,886.2656 Z " fill="#000000"/><text fill="#000000" font-family="sans-serif" font-size="20" font-style="italic" lengthAdjust="spacing" textLength="91" x="2814" y="874.3711">«Domain»</text><text fill="#000000" font-family="sans-serif" font-size="20" font-style="italic" lengthAdjust="spacing" textLength="136" x="2791.5" y="899.5273">«Value Object»</text><text fill="#000000" font-family="sans-serif" font-size="20" lengthAdjust="spacing" textLength="79" x="2820" y="924.6836">Interview</text><line style="stroke:#181818;stroke-width:0.5;" x1="2675.5" x2="3008.5" y1="934.0781" y2="934.0781"/><rect fill="none" height="6" style="stroke:#C82930;stroke-width:1.0;" width="6" x="2682.5" y="949.1563"/><text fill="#000000" font-family="sans-serif" font-size="20" lengthAdjust="spacing" textLength="308" x="2695.5" y="958.8398">interviewTypeDenomination : String</text><rect fill="none" height="6" style="stroke:#C82930;stroke-width:1.0;" width="6" x="2682.5" y="974.3125"/><text fill="#000000" font-family="sans-serif" font-size="20" lengthAdjust="spacing" textLength="137" x="2695.5" y="983.9961">schedule : Date</text><rect fill="none" height="6" style="stroke:#C82930;stroke-width:1.0;" width="6" x="2682.5" y="999.4688"/><text fill="#000000" font-family="sans-serif" font-size="20" lengthAdjust="spacing" textLength="201" x="2695.5" y="1009.1523">interviewResult : String</text><rect fill="none" height="6" style="stroke:#C82930;stroke-width:1.0;" width="6" x="2682.5" y="1024.625"/><text fill="#000000" font-family="sans-serif" font-size="20" lengthAdjust="spacing" textLength="213" x="2695.5" y="1034.3086">interviewGrade : Integer</text><rect fill="none" height="6" style="stroke:#C82930;stroke-width:1.0;" width="6" x="2682.5" y="1049.7813"/><text fill="#000000" font-family="sans-serif" font-size="20" lengthAdjust="spacing" textLength="165" x="2695.5" y="1059.4648">justification : String</text><rect fill="none" height="6" style="stroke:#C82930;stroke-width:1.0;" width="6" x="2682.5" y="1074.9375"/><text fill="#000000" font-family="sans-serif" font-size="20" lengthAdjust="spacing" textLength="218" x="2695.5" y="1084.6211">interviewAnswer :  String</text><line style="stroke:#181818;stroke-width:0.5;" x1="2675.5" x2="3008.5" y1="1093.0156" y2="1093.0156"/><ellipse cx="2685.5" cy="1111.0938" fill="#84BE84" rx="3" ry="3" style="stroke:#038048;stroke-width:1.0;"/><text fill="#000000" font-family="sans-serif" font-size="20" lengthAdjust="spacing" textLength="81" x="2695.5" y="1117.7773">valueOf()</text></g><!--class JobOpeningRepository--><g id="elem_JobOpeningRepository"><rect codeLine="118" fill="#F1F1F1" height="151.7813" id="JobOpeningRepository" rx="2.5" ry="2.5" style="stroke:#181818;stroke-width:0.5;" width="544" x="1560" y="609.6094"/><ellipse cx="1727.5" cy="652.3438" fill="#ADD1B2" rx="12" ry="12" style="stroke:#181818;stroke-width:1.0;"/><path d="M1729.6406,647.2656 Q1729.8281,647.0156 1730.0469,646.8906 Q1730.2656,646.75 1730.5156,646.75 Q1730.9531,646.75 1731.2344,647.0625 Q1731.5156,647.3594 1731.5156,648.0781 L1731.5156,649.7813 Q1731.5156,650.5 1731.2344,650.8125 Q1730.9531,651.125 1730.5156,651.125 Q1730.125,651.125 1729.875,650.8906 Q1729.625,650.6719 1729.5156,650.0625 Q1729.4531,649.6406 1729.2344,649.4219 Q1728.8438,648.9844 1728.125,648.7188 Q1727.4063,648.4531 1726.6875,648.4531 Q1725.7813,648.4531 1725.0313,648.8438 Q1724.2813,649.2344 1723.7031,650.125 Q1723.125,651 1723.125,652.2031 L1723.125,653.5 Q1723.125,654.9531 1724.1719,655.9219 Q1725.2344,656.8906 1727.0938,656.8906 Q1728.2031,656.8906 1728.9844,656.5781 Q1729.4219,656.4063 1729.9375,655.8906 Q1730.25,655.5781 1730.4219,655.4844 Q1730.5938,655.3906 1730.8281,655.3906 Q1731.2188,655.3906 1731.5156,655.7031 Q1731.8281,656 1731.8281,656.4063 Q1731.8281,656.8125 1731.4219,657.2813 Q1730.8281,657.9688 1729.8906,658.3594 Q1728.625,658.8906 1727.1094,658.8906 Q1725.3281,658.8906 1723.9063,658.1563 Q1722.75,657.5625 1721.9375,656.2969 Q1721.125,655.0313 1721.125,653.5469 L1721.125,652.1875 Q1721.125,650.625 1721.8438,649.2813 Q1722.5781,647.9219 1723.8594,647.1875 Q1725.1563,646.4531 1726.6094,646.4531 Q1727.4688,646.4531 1728.2188,646.6563 Q1728.9844,646.8594 1729.6406,647.2656 Z " fill="#000000"/><text fill="#000000" font-family="sans-serif" font-size="20" font-style="italic" lengthAdjust="spacing" textLength="126" x="1786.5" y="635.3711">«Persistence»</text><text fill="#000000" font-family="sans-serif" font-size="20" font-style="italic" lengthAdjust="spacing" textLength="117" x="1791" y="660.5273">«Repository»</text><text fill="#000000" font-family="sans-serif" font-size="20" lengthAdjust="spacing" textLength="200" x="1749.5" y="685.6836">JobOpeningRepository</text><line style="stroke:#181818;stroke-width:0.5;" x1="1561" x2="2103" y1="695.0781" y2="695.0781"/><line style="stroke:#181818;stroke-width:0.5;" x1="1561" x2="2103" y1="703.0781" y2="703.0781"/><ellipse cx="1571" cy="721.1563" fill="#84BE84" rx="3" ry="3" style="stroke:#038048;stroke-width:1.0;"/><text fill="#000000" font-family="sans-serif" font-size="20" lengthAdjust="spacing" textLength="517" x="1581" y="727.8398">getJobOpeningListMatchingCustomerCode(customerCode)</text><ellipse cx="1571" cy="746.3125" fill="#84BE84" rx="3" ry="3" style="stroke:#038048;stroke-width:1.0;"/><text fill="#000000" font-family="sans-serif" font-size="20" lengthAdjust="spacing" textLength="294" x="1581" y="752.9961">getJobOpening(JobOpeningDTO)</text></g><!--class CustomerRepository--><g id="elem_CustomerRepository"><rect codeLine="123" fill="#F1F1F1" height="126.625" id="CustomerRepository" rx="2.5" ry="2.5" style="stroke:#181818;stroke-width:0.5;" width="362" x="281" y="622.1094"/><ellipse cx="367.5" cy="664.8438" fill="#ADD1B2" rx="12" ry="12" style="stroke:#181818;stroke-width:1.0;"/><path d="M369.6406,659.7656 Q369.8281,659.5156 370.0469,659.3906 Q370.2656,659.25 370.5156,659.25 Q370.9531,659.25 371.2344,659.5625 Q371.5156,659.8594 371.5156,660.5781 L371.5156,662.2813 Q371.5156,663 371.2344,663.3125 Q370.9531,663.625 370.5156,663.625 Q370.125,663.625 369.875,663.3906 Q369.625,663.1719 369.5156,662.5625 Q369.4531,662.1406 369.2344,661.9219 Q368.8438,661.4844 368.125,661.2188 Q367.4063,660.9531 366.6875,660.9531 Q365.7813,660.9531 365.0313,661.3438 Q364.2813,661.7344 363.7031,662.625 Q363.125,663.5 363.125,664.7031 L363.125,666 Q363.125,667.4531 364.1719,668.4219 Q365.2344,669.3906 367.0938,669.3906 Q368.2031,669.3906 368.9844,669.0781 Q369.4219,668.9063 369.9375,668.3906 Q370.25,668.0781 370.4219,667.9844 Q370.5938,667.8906 370.8281,667.8906 Q371.2188,667.8906 371.5156,668.2031 Q371.8281,668.5 371.8281,668.9063 Q371.8281,669.3125 371.4219,669.7813 Q370.8281,670.4688 369.8906,670.8594 Q368.625,671.3906 367.1094,671.3906 Q365.3281,671.3906 363.9063,670.6563 Q362.75,670.0625 361.9375,668.7969 Q361.125,667.5313 361.125,666.0469 L361.125,664.6875 Q361.125,663.125 361.8438,661.7813 Q362.5781,660.4219 363.8594,659.6875 Q365.1563,658.9531 366.6094,658.9531 Q367.4688,658.9531 368.2188,659.1563 Q368.9844,659.3594 369.6406,659.7656 Z " fill="#000000"/><text fill="#000000" font-family="sans-serif" font-size="20" font-style="italic" lengthAdjust="spacing" textLength="126" x="416.5" y="647.8711">«Persistence»</text><text fill="#000000" font-family="sans-serif" font-size="20" font-style="italic" lengthAdjust="spacing" textLength="117" x="421" y="673.0273">«Repository»</text><text fill="#000000" font-family="sans-serif" font-size="20" lengthAdjust="spacing" textLength="180" x="389.5" y="698.1836">CustomerRepository</text><line style="stroke:#181818;stroke-width:0.5;" x1="282" x2="642" y1="707.5781" y2="707.5781"/><line style="stroke:#181818;stroke-width:0.5;" x1="282" x2="642" y1="715.5781" y2="715.5781"/><ellipse cx="292" cy="733.6563" fill="#84BE84" rx="3" ry="3" style="stroke:#038048;stroke-width:1.0;"/><text fill="#000000" font-family="sans-serif" font-size="20" lengthAdjust="spacing" textLength="335" x="302" y="740.3398">getCustomersByUsername(username)</text></g><!--class ApplicationRepository--><g id="elem_ApplicationRepository"><rect codeLine="127" fill="#F1F1F1" height="126.625" id="ApplicationRepository" rx="2.5" ry="2.5" style="stroke:#181818;stroke-width:0.5;" width="378" x="2598" y="622.1094"/><ellipse cx="2687.5" cy="664.8438" fill="#ADD1B2" rx="12" ry="12" style="stroke:#181818;stroke-width:1.0;"/><path d="M2689.6406,659.7656 Q2689.8281,659.5156 2690.0469,659.3906 Q2690.2656,659.25 2690.5156,659.25 Q2690.9531,659.25 2691.2344,659.5625 Q2691.5156,659.8594 2691.5156,660.5781 L2691.5156,662.2813 Q2691.5156,663 2691.2344,663.3125 Q2690.9531,663.625 2690.5156,663.625 Q2690.125,663.625 2689.875,663.3906 Q2689.625,663.1719 2689.5156,662.5625 Q2689.4531,662.1406 2689.2344,661.9219 Q2688.8438,661.4844 2688.125,661.2188 Q2687.4063,660.9531 2686.6875,660.9531 Q2685.7813,660.9531 2685.0313,661.3438 Q2684.2813,661.7344 2683.7031,662.625 Q2683.125,663.5 2683.125,664.7031 L2683.125,666 Q2683.125,667.4531 2684.1719,668.4219 Q2685.2344,669.3906 2687.0938,669.3906 Q2688.2031,669.3906 2688.9844,669.0781 Q2689.4219,668.9063 2689.9375,668.3906 Q2690.25,668.0781 2690.4219,667.9844 Q2690.5938,667.8906 2690.8281,667.8906 Q2691.2188,667.8906 2691.5156,668.2031 Q2691.8281,668.5 2691.8281,668.9063 Q2691.8281,669.3125 2691.4219,669.7813 Q2690.8281,670.4688 2689.8906,670.8594 Q2688.625,671.3906 2687.1094,671.3906 Q2685.3281,671.3906 2683.9063,670.6563 Q2682.75,670.0625 2681.9375,668.7969 Q2681.125,667.5313 2681.125,666.0469 L2681.125,664.6875 Q2681.125,663.125 2681.8438,661.7813 Q2682.5781,660.4219 2683.8594,659.6875 Q2685.1563,658.9531 2686.6094,658.9531 Q2687.4688,658.9531 2688.2188,659.1563 Q2688.9844,659.3594 2689.6406,659.7656 Z " fill="#000000"/><text fill="#000000" font-family="sans-serif" font-size="20" font-style="italic" lengthAdjust="spacing" textLength="126" x="2741.5" y="647.8711">«Persistence»</text><text fill="#000000" font-family="sans-serif" font-size="20" font-style="italic" lengthAdjust="spacing" textLength="117" x="2746" y="673.0273">«Repository»</text><text fill="#000000" font-family="sans-serif" font-size="20" lengthAdjust="spacing" textLength="190" x="2709.5" y="698.1836">ApplicationRepository</text><line style="stroke:#181818;stroke-width:0.5;" x1="2599" x2="2975" y1="707.5781" y2="707.5781"/><line style="stroke:#181818;stroke-width:0.5;" x1="2599" x2="2975" y1="715.5781" y2="715.5781"/><ellipse cx="2609" cy="733.6563" fill="#84BE84" rx="3" ry="3" style="stroke:#038048;stroke-width:1.0;"/><text fill="#000000" font-family="sans-serif" font-size="20" lengthAdjust="spacing" textLength="351" x="2619" y="740.3398">getApplicationsListWithInterviewResult()</text></g><!--class CandidateRepository--><g id="elem_CandidateRepository"><rect codeLine="131" fill="#F1F1F1" height="126.625" id="CandidateRepository" rx="2.5" ry="2.5" style="stroke:#181818;stroke-width:0.5;" width="365" x="1120.5" y="622.1094"/><ellipse cx="1206.5" cy="664.8438" fill="#ADD1B2" rx="12" ry="12" style="stroke:#181818;stroke-width:1.0;"/><path d="M1208.6406,659.7656 Q1208.8281,659.5156 1209.0469,659.3906 Q1209.2656,659.25 1209.5156,659.25 Q1209.9531,659.25 1210.2344,659.5625 Q1210.5156,659.8594 1210.5156,660.5781 L1210.5156,662.2813 Q1210.5156,663 1210.2344,663.3125 Q1209.9531,663.625 1209.5156,663.625 Q1209.125,663.625 1208.875,663.3906 Q1208.625,663.1719 1208.5156,662.5625 Q1208.4531,662.1406 1208.2344,661.9219 Q1207.8438,661.4844 1207.125,661.2188 Q1206.4063,660.9531 1205.6875,660.9531 Q1204.7813,660.9531 1204.0313,661.3438 Q1203.2813,661.7344 1202.7031,662.625 Q1202.125,663.5 1202.125,664.7031 L1202.125,666 Q1202.125,667.4531 1203.1719,668.4219 Q1204.2344,669.3906 1206.0938,669.3906 Q1207.2031,669.3906 1207.9844,669.0781 Q1208.4219,668.9063 1208.9375,668.3906 Q1209.25,668.0781 1209.4219,667.9844 Q1209.5938,667.8906 1209.8281,667.8906 Q1210.2188,667.8906 1210.5156,668.2031 Q1210.8281,668.5 1210.8281,668.9063 Q1210.8281,669.3125 1210.4219,669.7813 Q1209.8281,670.4688 1208.8906,670.8594 Q1207.625,671.3906 1206.1094,671.3906 Q1204.3281,671.3906 1202.9063,670.6563 Q1201.75,670.0625 1200.9375,668.7969 Q1200.125,667.5313 1200.125,666.0469 L1200.125,664.6875 Q1200.125,663.125 1200.8438,661.7813 Q1201.5781,660.4219 1202.8594,659.6875 Q1204.1563,658.9531 1205.6094,658.9531 Q1206.4688,658.9531 1207.2188,659.1563 Q1207.9844,659.3594 1208.6406,659.7656 Z " fill="#000000"/><text fill="#000000" font-family="sans-serif" font-size="20" font-style="italic" lengthAdjust="spacing" textLength="126" x="1257.5" y="647.8711">«Persistence»</text><text fill="#000000" font-family="sans-serif" font-size="20" font-style="italic" lengthAdjust="spacing" textLength="117" x="1262" y="673.0273">«Repository»</text><text fill="#000000" font-family="sans-serif" font-size="20" lengthAdjust="spacing" textLength="184" x="1228.5" y="698.1836">CandidateRepository</text><line style="stroke:#181818;stroke-width:0.5;" x1="1121.5" x2="1484.5" y1="707.5781" y2="707.5781"/><line style="stroke:#181818;stroke-width:0.5;" x1="1121.5" x2="1484.5" y1="715.5781" y2="715.5781"/><ellipse cx="1131.5" cy="733.6563" fill="#84BE84" rx="3" ry="3" style="stroke:#038048;stroke-width:1.0;"/><text fill="#000000" font-family="sans-serif" font-size="20" lengthAdjust="spacing" textLength="338" x="1141.5" y="740.3398">getCandidateList(applicationsListDTO)</text></g><!--class RepositoryDatabase--><g id="elem_RepositoryDatabase"><rect codeLine="135" fill="#F1F1F1" height="76.3125" id="RepositoryDatabase" rx="2.5" ry="2.5" style="stroke:#181818;stroke-width:0.5;" width="213" x="1564.5" y="408.6094"/><ellipse cx="1580.5" cy="438.7656" fill="#B4A7E5" rx="12" ry="12" style="stroke:#181818;stroke-width:1.0;"/><path d="M1581.5,434.9375 L1581.5,442.7656 L1583.5313,442.7656 Q1584.25,442.7656 1584.5469,443.0469 Q1584.8594,443.3125 1584.8594,443.7656 Q1584.8594,444.2031 1584.5469,444.4844 Q1584.25,444.7656 1583.5313,444.7656 L1577.4844,444.7656 Q1576.75,444.7656 1576.4375,444.4844 Q1576.1406,444.2031 1576.1406,443.7656 Q1576.1406,443.3125 1576.4375,443.0469 Q1576.75,442.7656 1577.4844,442.7656 L1579.5,442.7656 L1579.5,434.9375 L1577.4844,434.9375 Q1576.75,434.9375 1576.4375,434.6563 Q1576.1406,434.375 1576.1406,433.9219 Q1576.1406,433.4688 1576.4375,433.2031 Q1576.75,432.9219 1577.4844,432.9219 L1583.5313,432.9219 Q1584.25,432.9219 1584.5469,433.2031 Q1584.8594,433.4688 1584.8594,433.9219 Q1584.8594,434.375 1584.5469,434.6563 Q1584.25,434.9375 1583.5313,434.9375 L1581.5,434.9375 Z " fill="#000000"/><text fill="#000000" font-family="sans-serif" font-size="20" font-style="italic" lengthAdjust="spacing" textLength="126" x="1622" y="434.3711">«Persistence»</text><text fill="#000000" font-family="sans-serif" font-size="20" font-style="italic" lengthAdjust="spacing" textLength="179" x="1595.5" y="459.5273">RepositoryDatabase</text><line style="stroke:#181818;stroke-width:0.5;" x1="1565.5" x2="1776.5" y1="468.9219" y2="468.9219"/><line style="stroke:#181818;stroke-width:0.5;" x1="1565.5" x2="1776.5" y1="476.9219" y2="476.9219"/></g><!--link CustomerManager to ListCandidatesController--><g id="link_CustomerManager_ListCandidatesController"><path codeLine="140" d="M535.33,924.0494 C514.99,898.2094 489.07,869.4994 461,848.6094 C384.21,791.4794 316.25,841.7994 264,761.6094 C169.09,615.9394 171.77,509.7594 276,370.6094 C348.21,274.2094 1144.42,253.0494 1500.56,248.4094 " fill="none" id="CustomerManager-to-ListCandidatesController" style="stroke:#181818;stroke-width:1.0;stroke-dasharray:7.0,7.0;"/><polygon fill="#181818" points="1505.77,248.3394,1496.7138,244.4683,1500.7705,248.4108,1496.8281,252.4675,1505.77,248.3394" style="stroke:#181818;stroke-width:1.0;"/></g><!--link ListCandidatesUI to ListCandidatesController--><g id="link_ListCandidatesUI_ListCandidatesController"><path codeLine="141" d="M1671,121.8394 C1671,138.2594 1671,158.0894 1671,176.9994 " fill="none" id="ListCandidatesUI-to-ListCandidatesController" style="stroke:#181818;stroke-width:1.0;stroke-dasharray:7.0,7.0;"/><polygon fill="#181818" points="1671,182.3094,1675,173.3094,1671,177.3094,1667,173.3094,1671,182.3094" style="stroke:#181818;stroke-width:1.0;"/></g><!--link ListCandidatesController to JobOpeningRepository--><g id="link_ListCandidatesController_JobOpeningRepository"><path codeLine="142" d="M1742.48,309.9294 C1760.99,328.3294 1779.93,349.2694 1795,370.6094 C1838.12,431.6694 1818.73,465.5294 1867,522.6094 C1882.05,540.3994 1899.22,531.9494 1910,552.6094 C1918.89,569.6494 1916.56,587.5794 1908.63,604.5394 " fill="none" id="ListCandidatesController-to-JobOpeningRepository" style="stroke:#181818;stroke-width:1.0;stroke-dasharray:7.0,7.0;"/><polygon fill="#181818" points="1906.25,609.2994,1913.8446,603.0287,1908.4803,604.8244,1906.6846,599.4601,1906.25,609.2994" style="stroke:#181818;stroke-width:1.0;"/></g><!--link ListCandidatesController to ApplicationRepository--><g id="link_ListCandidatesController_ApplicationRepository"><path codeLine="143" d="M1836.02,250.6194 C2062.14,258.6094 2452.85,284.7994 2563,370.6094 C2627.77,421.0694 2620.36,455.7394 2668,522.6094 C2690.39,554.0294 2715.63,588.5294 2737.09,617.5894 " fill="none" id="ListCandidatesController-to-ApplicationRepository" style="stroke:#181818;stroke-width:1.0;stroke-dasharray:7.0,7.0;"/><polygon fill="#181818" points="2740.23,621.8294,2738.1068,612.2121,2737.2621,617.8055,2731.6686,616.9608,2740.23,621.8294" style="stroke:#181818;stroke-width:1.0;"/></g><!--link ListCandidatesController to CandidateRepository--><g id="link_ListCandidatesController_CandidateRepository"><path codeLine="144" d="M1599.52,309.9294 C1581.01,328.3294 1562.07,349.2694 1547,370.6094 C1503.88,431.6694 1533.07,475.5394 1475,522.6094 C1430.28,558.8594 1391.72,514.0194 1349,552.6094 C1330.59,569.2394 1319.55,593.6394 1312.92,616.9494 " fill="none" id="ListCandidatesController-to-CandidateRepository" style="stroke:#181818;stroke-width:1.0;stroke-dasharray:7.0,7.0;"/><polygon fill="#181818" points="1311.58,621.8994,1317.8033,614.2659,1312.8932,617.0749,1310.0841,612.1648,1311.58,621.8994" style="stroke:#181818;stroke-width:1.0;"/></g><!--link ListCandidatesController to CustomerRepository--><g id="link_ListCandidatesController_CustomerRepository"><path codeLine="145" d="M1505.72,249.8994 C1160.91,257.4494 390.17,283.9294 311,370.6094 C265.44,420.4894 286.25,459.7494 311,522.6094 C325.29,558.8994 351.97,591.8694 378.97,618.4494 " fill="none" id="ListCandidatesController-to-CustomerRepository" style="stroke:#181818;stroke-width:1.0;stroke-dasharray:7.0,7.0;"/><polygon fill="#181818" points="382.61,621.9894,378.9448,612.8479,379.0248,618.5042,373.3685,618.5842,382.61,621.9894" style="stroke:#181818;stroke-width:1.0;"/></g><!--link ListCandidatesController to ApplicationManagementService--><g id="link_ListCandidatesController_ApplicationManagementService"><path codeLine="146" d="M1836.34,253.9294 C2076.54,265.3194 2509.54,291.7894 2658,339.6094 C2695.98,351.8394 2734.61,373.0294 2766.38,393.2594 " fill="none" id="ListCandidatesController-to-ApplicationManagementService" style="stroke:#181818;stroke-width:1.0;stroke-dasharray:7.0,7.0;"/><polygon fill="#181818" points="2770.61,395.9694,2765.1897,387.7462,2766.3999,393.2721,2760.8741,394.4823,2770.61,395.9694" style="stroke:#181818;stroke-width:1.0;"/></g><!--link ListCandidatesController to JobOpeningManagementService--><g id="link_ListCandidatesController_JobOpeningManagementService"><path codeLine="147" d="M1836.03,309.5094 C1885.79,328.3194 1940.99,349.1894 1992.92,368.8294 " fill="none" id="ListCandidatesController-to-JobOpeningManagementService" style="stroke:#181818;stroke-width:1.0;stroke-dasharray:7.0,7.0;"/><polygon fill="#181818" points="1997.61,370.5994,1990.613,363.6681,1992.9348,368.8265,1987.7765,371.1484,1997.61,370.5994" style="stroke:#181818;stroke-width:1.0;"/></g><!--link ListCandidatesController to JobOpeningDTOService--><g id="link_ListCandidatesController_JobOpeningDTOService"><path codeLine="148" d="M1836.04,259.4594 C2071.53,278.7894 2480.6,319.3294 2525,370.6094 C2590.56,446.3294 2516.3,563.1594 2461.3,630.9294 " fill="none" id="ListCandidatesController-to-JobOpeningDTOService" style="stroke:#181818;stroke-width:1.0;stroke-dasharray:7.0,7.0;"/><polygon fill="#181818" points="2458.04,634.9194,2466.8278,630.4726,2461.2,631.0445,2460.628,625.4166,2458.04,634.9194" style="stroke:#181818;stroke-width:1.0;"/></g><!--link ListCandidatesController to ApplicationDTOService--><g id="link_ListCandidatesController_ApplicationDTOService"><path codeLine="149" d="M1836.15,255.3294 C2143.88,271.8094 2793.51,312.3494 3011,370.6094 C3032.65,376.4094 3055.01,384.8294 3076,393.9494 " fill="none" id="ListCandidatesController-to-ApplicationDTOService" style="stroke:#181818;stroke-width:1.0;stroke-dasharray:7.0,7.0;"/><polygon fill="#181818" points="3080.74,396.0294,3074.1169,388.74,3076.1645,394.0133,3070.8912,396.0608,3080.74,396.0294" style="stroke:#181818;stroke-width:1.0;"/></g><!--link ListCandidatesController to CandidateManagementService--><g id="link_ListCandidatesController_CandidateManagementService"><path codeLine="150" d="M1544.88,309.6994 C1524.84,319.6894 1504.35,329.9194 1485,339.6094 C1449.97,357.1594 1411.7,376.4494 1377.54,393.6994 " fill="none" id="ListCandidatesController-to-CandidateManagementService" style="stroke:#181818;stroke-width:1.0;stroke-dasharray:7.0,7.0;"/><polygon fill="#181818" points="1372.96,396.0094,1382.7969,395.5245,1377.4235,393.7562,1379.1919,388.3828,1372.96,396.0094" style="stroke:#181818;stroke-width:1.0;"/></g><!--link ListCandidatesController to CandidateDTOService--><g id="link_ListCandidatesController_CandidateDTOService"><path codeLine="151" d="M1505.79,270.7794 C1384.64,290.6694 1217.18,323.4694 1075,370.6094 C1055.44,377.0994 1035.12,385.3094 1015.77,393.8994 " fill="none" id="ListCandidatesController-to-CandidateDTOService" style="stroke:#181818;stroke-width:1.0;stroke-dasharray:7.0,7.0;"/><polygon fill="#181818" points="1010.87,396.0894,1020.7188,396.0694,1015.4349,394.0494,1017.4549,388.7655,1010.87,396.0894" style="stroke:#181818;stroke-width:1.0;"/></g><!--link WorkMode to JobOpening--><g id="link_WorkMode_JobOpening"><path codeLine="154" d="M1718.81,1076.4994 C1753.06,1115.6994 1794.73,1163.3794 1835.11,1209.5794 " fill="none" id="WorkMode-to-JobOpening" style="stroke:#181818;stroke-width:1.0;"/><polygon fill="#181818" points="1838.51,1213.4694,1835.5761,1204.0677,1835.2104,1209.7127,1829.5654,1209.347,1838.51,1213.4694" style="stroke:#181818;stroke-width:1.0;"/><text fill="#000000" font-family="sans-serif" font-size="20" lengthAdjust="spacing" textLength="117" x="1807" y="1178.3711">characterizes</text><text fill="#000000" font-family="sans-serif" font-size="20" lengthAdjust="spacing" textLength="11" x="1713.0468" y="1104.715">1</text><text fill="#000000" font-family="sans-serif" font-size="20" lengthAdjust="spacing" textLength="8" x="1823.8659" y="1201.2544">*</text></g><!--link ContractType to JobOpening--><g id="link_ContractType_JobOpening"><path codeLine="155" d="M1992,1076.4994 C1992,1115.3794 1992,1162.6094 1992,1208.4594 " fill="none" id="ContractType-to-JobOpening" style="stroke:#181818;stroke-width:1.0;"/><polygon fill="#181818" points="1992,1213.4694,1996,1204.4694,1992,1208.4694,1988,1204.4694,1992,1213.4694" style="stroke:#181818;stroke-width:1.0;"/><text fill="#000000" font-family="sans-serif" font-size="20" lengthAdjust="spacing" textLength="117" x="1993" y="1178.3711">characterizes</text><text fill="#000000" font-family="sans-serif" font-size="20" lengthAdjust="spacing" textLength="11" x="1980.5961" y="1104.715">1</text><text fill="#000000" font-family="sans-serif" font-size="20" lengthAdjust="spacing" textLength="8" x="1983.8313" y="1201.2544">*</text></g><!--link Interview to Application--><g id="link_Interview_Application"><path codeLine="156" d="M2893.38,1126.7194 C2903.21,1153.1294 2913.63,1181.1294 2923.86,1208.6394 " fill="none" id="Interview-to-Application" style="stroke:#181818;stroke-width:1.0;"/><polygon fill="#181818" points="2925.63,1213.3994,2926.2415,1203.5695,2923.8869,1208.713,2918.7434,1206.3585,2925.63,1213.3994" style="stroke:#181818;stroke-width:1.0;"/><text fill="#000000" font-family="sans-serif" font-size="20" lengthAdjust="spacing" textLength="117" x="2913" y="1178.3711">characterizes</text><text fill="#000000" font-family="sans-serif" font-size="20" lengthAdjust="spacing" textLength="34" x="2861.0453" y="1154.8391">0..1</text><text fill="#000000" font-family="sans-serif" font-size="20" lengthAdjust="spacing" textLength="8" x="2914.7035" y="1201.1814">*</text></g><!--link JobOpeningManagementService to JobOpeningRepository--><g id="link_JobOpeningManagementService_JobOpeningRepository"><path codeLine="157" d="M2080.58,522.7594 C2039.41,549.5694 1992.97,579.7994 1951.47,606.8194 " fill="none" id="JobOpeningManagementService-to-JobOpeningRepository" style="stroke:#181818;stroke-width:1.0;"/><polygon fill="#181818" points="1947.21,609.5994,1956.9363,608.0506,1951.4029,606.8754,1952.578,601.342,1947.21,609.5994" style="stroke:#181818;stroke-width:1.0;"/></g><!--link JobOpeningManagementService to JobOpening--><g id="link_JobOpeningManagementService_JobOpening"><path codeLine="158" d="M2207.09,522.8494 C2223.01,650.7094 2243.33,916.9194 2174,1126.6094 C2164.7,1154.7294 2151.36,1182.5394 2136.07,1208.9494 " fill="none" id="JobOpeningManagementService-to-JobOpening" style="stroke:#181818;stroke-width:1.0;"/><polygon fill="#181818" points="2133.4,1213.5194,2141.4018,1207.7773,2135.9282,1209.2057,2134.4999,1203.7321,2133.4,1213.5194" style="stroke:#181818;stroke-width:1.0;"/></g><!--link ApplicationManagementService to Application--><g id="link_ApplicationManagementService_Application"><path codeLine="159" d="M2902.98,497.3894 C2935.67,526.4694 2972.91,565.9794 2994,609.6094 C3085.11,798.0894 3065.01,1043.4194 3034.84,1208.0694 " fill="none" id="ApplicationManagementService-to-Application" style="stroke:#181818;stroke-width:1.0;"/><polygon fill="#181818" points="3033.85,1213.3994,3039.4059,1205.2672,3034.7507,1208.4812,3031.5367,1203.826,3033.85,1213.3994" style="stroke:#181818;stroke-width:1.0;"/></g><!--link ApplicationManagementService to ApplicationRepository--><g id="link_ApplicationManagementService_ApplicationRepository"><path codeLine="160" d="M2828.1,497.2894 C2820.49,531.9794 2810.24,578.6994 2801.88,616.7994 " fill="none" id="ApplicationManagementService-to-ApplicationRepository" style="stroke:#181818;stroke-width:1.0;"/><polygon fill="#181818" points="2800.76,621.8794,2806.5999,613.9487,2801.834,616.9961,2798.7866,612.2302,2800.76,621.8794" style="stroke:#181818;stroke-width:1.0;"/></g><!--link ApplicationDTOService to Application--><g id="link_ApplicationDTOService_Application"><path codeLine="161" d="M3172.62,497.3194 C3165.81,617.5494 3141.68,932.6394 3067,1183.6094 C3064.6,1191.6894 3062.04,1199.8994 3059.37,1208.1794 " fill="none" id="ApplicationDTOService-to-Application" style="stroke:#181818;stroke-width:1.0;"/><polygon fill="#181818" points="3057.7,1213.3394,3064.2814,1206.0124,3059.2425,1208.5833,3056.6717,1203.5444,3057.7,1213.3394" style="stroke:#181818;stroke-width:1.0;"/></g><!--link JobOpeningDTOService to JobOpening--><g id="link_JobOpeningDTOService_JobOpening"><path codeLine="162" d="M2404.28,736.4394 C2385.94,830.7194 2336.5,1038.7394 2236,1183.6094 C2216.59,1211.5894 2192.44,1237.9794 2166.93,1261.9294 " fill="none" id="JobOpeningDTOService-to-JobOpening" style="stroke:#181818;stroke-width:1.0;"/><polygon fill="#181818" points="2163.16,1265.4394,2172.4683,1262.2214,2166.8148,1262.0273,2167.009,1256.3738,2163.16,1265.4394" style="stroke:#181818;stroke-width:1.0;"/></g><!--link CandidateManagementService to CandidateRepository--><g id="link_CandidateManagementService_CandidateRepository"><path codeLine="163" d="M1280.87,497.2894 C1284.97,531.9794 1290.49,578.6994 1294.99,616.7994 " fill="none" id="CandidateManagementService-to-CandidateRepository" style="stroke:#181818;stroke-width:1.0;"/><polygon fill="#181818" points="1295.59,621.8794,1298.5095,612.4732,1295.005,616.9137,1290.5644,613.4092,1295.59,621.8794" style="stroke:#181818;stroke-width:1.0;"/></g><!--link CandidateManagementService to Candidate--><g id="link_CandidateManagementService_Candidate"><path codeLine="164" d="M1207.14,497.1894 C1171.58,526.3394 1129.94,565.9794 1103,609.6094 C1048.54,697.7794 1018.95,813.8094 1003.87,893.7294 " fill="none" id="CandidateManagementService-to-Candidate" style="stroke:#181818;stroke-width:1.0;"/><polygon fill="#181818" points="1002.9,898.9494,1008.4787,890.8328,1003.8145,894.0337,1000.6137,889.3696,1002.9,898.9494" style="stroke:#181818;stroke-width:1.0;"/></g><!--link CandidateDTOService to Candidate--><g id="link_CandidateDTOService_Candidate"><path codeLine="165" d="M921.01,497.3494 C933.72,587.4894 960.74,779.0994 976.94,893.9594 " fill="none" id="CandidateDTOService-to-Candidate" style="stroke:#181818;stroke-width:1.0;"/><polygon fill="#181818" points="977.65,899.0394,980.3523,889.5685,976.9509,894.0885,972.4309,890.6871,977.65,899.0394" style="stroke:#181818;stroke-width:1.0;"/></g><!--link CustomerManagementService to CustomerRepository--><g id="link_CustomerManagementService_CustomerRepository"><path codeLine="166" d="M517.33,497.2894 C507.08,531.9794 493.28,578.6994 482.03,616.7994 " fill="none" id="CustomerManagementService-to-CustomerRepository" style="stroke:#181818;stroke-width:1.0;"/><polygon fill="#181818" points="480.53,621.8794,486.9167,614.382,481.947,617.0844,479.2447,612.1148,480.53,621.8794" style="stroke:#181818;stroke-width:1.0;"/></g><!--link CustomerManagementService to CustomerManager--><g id="link_CustomerManagementService_CustomerManager"><path codeLine="167" d="M586.45,497.4294 C614.57,526.9294 646.05,566.8494 661,609.6094 C697.84,714.9994 651.94,842.9694 615.43,919.4394 " fill="none" id="CustomerManagementService-to-CustomerManager" style="stroke:#181818;stroke-width:1.0;"/><polygon fill="#181818" points="613.26,923.9494,620.7574,917.5627,615.4213,919.4406,613.5434,914.1046,613.26,923.9494" style="stroke:#181818;stroke-width:1.0;"/></g><!--link JobOpeningRepository to ContractType--><g id="link_JobOpeningRepository_ContractType"><path codeLine="170" d="M1872.17,761.9294 C1893.6,802.1194 1920.16,851.9094 1942.82,894.3994 " fill="none" id="JobOpeningRepository-to-ContractType" style="stroke:#181818;stroke-width:1.0;"/><polygon fill="#181818" points="1945.28,899.0194,1944.5692,889.1962,1942.9248,894.6088,1937.5122,892.9645,1945.28,899.0194" style="stroke:#181818;stroke-width:1.0;"/><text fill="#000000" font-family="sans-serif" font-size="20" lengthAdjust="spacing" textLength="68" x="1898" y="813.3711">rebuilds</text><text fill="#000000" font-family="sans-serif" font-size="20" lengthAdjust="spacing" textLength="11" x="1864.0411" y="790.062">1</text><text fill="#000000" font-family="sans-serif" font-size="20" lengthAdjust="spacing" textLength="8" x="1933.2382" y="886.7342">*</text></g><!--link JobOpeningRepository to WorkMode--><g id="link_JobOpeningRepository_WorkMode"><path codeLine="171" d="M1784.3,761.9294 C1758.79,802.1994 1727.18,852.1094 1700.23,894.6594 " fill="none" id="JobOpeningRepository-to-WorkMode" style="stroke:#181818;stroke-width:1.0;"/><polygon fill="#181818" points="1697.47,899.0194,1705.6586,893.547,1700.1405,894.7923,1698.8952,889.2742,1697.47,899.0194" style="stroke:#181818;stroke-width:1.0;"/><text fill="#000000" font-family="sans-serif" font-size="20" lengthAdjust="spacing" textLength="68" x="1766" y="813.3711">rebuilds</text><text fill="#000000" font-family="sans-serif" font-size="20" lengthAdjust="spacing" textLength="11" x="1768.8944" y="790.062">1</text><text fill="#000000" font-family="sans-serif" font-size="20" lengthAdjust="spacing" textLength="8" x="1693.5715" y="886.7342">*</text></g><!--reverse link JobOpeningRepository to JobOpening--><g id="link_JobOpeningRepository_JobOpening"><path codeLine="172" d="M1554.85,753.3094 C1468.62,780.0294 1389.39,812.9494 1364,848.6094 C1292.33,949.2594 1295.52,1023.7694 1364,1126.6094 C1464.94,1278.2094 1671.97,1342.4094 1820.75,1369.5094 " fill="none" id="JobOpeningRepository-backto-JobOpening" style="stroke:#181818;stroke-width:1.0;stroke-dasharray:7.0,7.0;"/><polygon fill="#181818" points="1559.75,751.7994,1549.9719,750.621,1554.9708,753.2688,1552.323,758.2677,1559.75,751.7994" style="stroke:#181818;stroke-width:1.0;"/><text fill="#000000" font-family="sans-serif" font-size="20" lengthAdjust="spacing" textLength="108" x="1365" y="995.8711">persisted by</text></g><!--reverse link ApplicationRepository to Application--><g id="link_ApplicationRepository_Application"><path codeLine="174" d="M2642.03,752.1494 C2604.27,776.7094 2568.25,808.6194 2547,848.6094 C2489.01,957.7094 2485.78,1019.2894 2547,1126.6094 C2613.11,1242.4994 2752.68,1312.4094 2857.79,1350.6094 " fill="none" id="ApplicationRepository-backto-Application" style="stroke:#181818;stroke-width:1.0;stroke-dasharray:7.0,7.0;"/><polygon fill="#181818" points="2646.64,749.1994,2636.9041,750.6865,2642.4299,751.8967,2641.2197,757.4226,2646.64,749.1994" style="stroke:#181818;stroke-width:1.0;"/><text fill="#000000" font-family="sans-serif" font-size="20" lengthAdjust="spacing" textLength="108" x="2548" y="995.8711">persisted by</text></g><!--link ApplicationRepository to Interview--><g id="link_ApplicationRepository_Interview"><path codeLine="175" d="M2798.46,749.1294 C2803.5,776.5994 2809.64,810.0794 2815.7,843.1394 " fill="none" id="ApplicationRepository-to-Interview" style="stroke:#181818;stroke-width:1.0;"/><polygon fill="#181818" points="2816.67,848.4394,2818.9563,838.8596,2815.7555,843.5237,2811.0913,840.3228,2816.67,848.4394" style="stroke:#181818;stroke-width:1.0;"/><text fill="#000000" font-family="sans-serif" font-size="20" lengthAdjust="spacing" textLength="68" x="2810" y="813.3711">rebuilds</text><text fill="#000000" font-family="sans-serif" font-size="20" lengthAdjust="spacing" textLength="11" x="2788.0467" y="777.4005">1</text><text fill="#000000" font-family="sans-serif" font-size="20" lengthAdjust="spacing" textLength="8" x="2807.1577" y="836.3959">*</text></g><!--reverse link CandidateRepository to Candidate--><g id="link_CandidateRepository_Candidate"><path codeLine="177" d="M1234.02,752.7194 C1189.21,795.6794 1130.28,852.1594 1081.56,898.8494 " fill="none" id="CandidateRepository-backto-Candidate" style="stroke:#181818;stroke-width:1.0;stroke-dasharray:7.0,7.0;"/><polygon fill="#181818" points="1237.77,749.1294,1228.5013,752.4598,1234.1568,752.5855,1234.0311,758.2409,1237.77,749.1294" style="stroke:#181818;stroke-width:1.0;"/><text fill="#000000" font-family="sans-serif" font-size="20" lengthAdjust="spacing" textLength="108" x="1193" y="813.3711">persisted by</text></g><!--reverse link CustomerRepository to CustomerManager--><g id="link_CustomerRepository_CustomerManager"><path codeLine="179" d="M488.28,753.9994 C508.13,804.8894 535.16,874.1994 554.55,923.9094 " fill="none" id="CustomerRepository-backto-CustomerManager" style="stroke:#181818;stroke-width:1.0;stroke-dasharray:7.0,7.0;"/><polygon fill="#181818" points="486.38,749.1294,485.9198,758.9675,488.195,753.7883,493.3741,756.0635,486.38,749.1294" style="stroke:#181818;stroke-width:1.0;"/><text fill="#000000" font-family="sans-serif" font-size="20" lengthAdjust="spacing" textLength="108" x="511" y="813.3711">persisted by</text></g><!--reverse link RepositoryDatabase to JobOpeningRepository--><g id="link_RepositoryDatabase_JobOpeningRepository"><path codeLine="182" d="M1655.01,504.6194 C1651.32,529.0794 1651.55,557.1394 1664,579.6094 C1670,590.4394 1677.64,600.2994 1686.33,609.2494 " fill="none" id="RepositoryDatabase-backto-JobOpeningRepository" style="stroke:#181818;stroke-width:1.0;stroke-dasharray:7.0,7.0;"/><polygon fill="none" points="1648.21,502.9594,1658.95,484.6994,1661.94,505.6794,1648.21,502.9594" style="stroke:#181818;stroke-width:1.0;"/><text fill="#000000" font-family="sans-serif" font-size="20" lengthAdjust="spacing" textLength="99" x="1665" y="574.3711">implements</text></g><!--reverse link RepositoryDatabase to ApplicationRepository--><g id="link_RepositoryDatabase_ApplicationRepository"><path codeLine="183" d="M1773.47,492.2194 C1803.17,503.6694 1835.96,514.8994 1867,522.6094 C2177.26,599.6394 2270.12,535.1094 2581,609.6094 C2595.81,613.1594 2611.01,617.4294 2626.14,622.1094 " fill="none" id="RepositoryDatabase-backto-ApplicationRepository" style="stroke:#181818;stroke-width:1.0;stroke-dasharray:7.0,7.0;"/><polygon fill="none" points="1770.48,498.5694,1754.45,484.7094,1775.62,485.5494,1770.48,498.5694" style="stroke:#181818;stroke-width:1.0;"/><text fill="#000000" font-family="sans-serif" font-size="20" lengthAdjust="spacing" textLength="99" x="2418" y="574.3711">implements</text></g><!--reverse link RepositoryDatabase to CandidateRepository--><g id="link_RepositoryDatabase_CandidateRepository"><path codeLine="184" d="M1605.74,496.9394 C1571.07,522.4994 1527.38,553.6994 1487,579.6094 C1464.71,593.9094 1440.41,608.4694 1416.98,622.0194 " fill="none" id="RepositoryDatabase-backto-CandidateRepository" style="stroke:#181818;stroke-width:1.0;stroke-dasharray:7.0,7.0;"/><polygon fill="none" points="1601.75,491.1794,1621.99,484.8894,1610.09,502.4294,1601.75,491.1794" style="stroke:#181818;stroke-width:1.0;"/><text fill="#000000" font-family="sans-serif" font-size="20" lengthAdjust="spacing" textLength="99" x="1524" y="574.3711">implements</text></g><!--reverse link RepositoryDatabase to CustomerRepository--><g id="link_RepositoryDatabase_CustomerRepository"><path codeLine="185" d="M1566.67,492.1194 C1537.41,503.3294 1505.31,514.4794 1475,522.6094 C1189.23,599.2494 847.76,644.6394 643.23,667.0694 " fill="none" id="RepositoryDatabase-backto-CustomerRepository" style="stroke:#181818;stroke-width:1.0;stroke-dasharray:7.0,7.0;"/><polygon fill="none" points="1564.26,485.5394,1585.44,484.7694,1569.37,498.5794,1564.26,485.5394" style="stroke:#181818;stroke-width:1.0;"/><text fill="#000000" font-family="sans-serif" font-size="20" lengthAdjust="spacing" textLength="99" x="1340" y="574.3711">implements</text></g><!--link Session to SystemUser--><g id="link_Session_SystemUser"><path codeLine="188" d="M360.52,1038.1194 C358.26,1113.3794 353.99,1256.0694 351.64,1334.3394 " fill="none" id="Session-to-SystemUser" style="stroke:#181818;stroke-width:1.0;"/><polygon fill="#181818" points="351.49,1339.3994,355.7454,1330.5173,351.6328,1334.4014,347.7487,1330.2888,351.49,1339.3994" style="stroke:#181818;stroke-width:1.0;"/></g><!--link SystemUser to Username--><g id="link_SystemUser_Username"><path codeLine="189" d="M254.97,1390.1094 C244.42,1390.1094 233.87,1390.1094 223.32,1390.1094 " fill="none" id="SystemUser-to-Username" style="stroke:#181818;stroke-width:1.0;"/><polygon fill="#181818" points="218.14,1390.1094,227.14,1394.1094,223.14,1390.1094,227.14,1386.1094,218.14,1390.1094" style="stroke:#181818;stroke-width:1.0;"/></g><!--link AuthenticationService to Username--><g id="link_AuthenticationService_Username"><path codeLine="190" d="M133.25,1038.1194 C133.58,1105.6994 134.19,1227.6494 134.6,1308.4994 " fill="none" id="AuthenticationService-to-Username" style="stroke:#181818;stroke-width:1.0;stroke-dasharray:7.0,7.0;"/><polygon fill="#181818" points="134.62,1313.7694,138.5685,1304.7467,134.5914,1308.7695,130.5686,1304.7924,134.62,1313.7694" style="stroke:#181818;stroke-width:1.0;"/></g><!--link AuthenticationService to Session--><g id="link_AuthenticationService_Session"><path codeLine="191" d="M243.92,987.6094 C253.87,987.6094 263.82,987.6094 273.77,987.6094 " fill="none" id="AuthenticationService-to-Session" style="stroke:#181818;stroke-width:1.0;stroke-dasharray:7.0,7.0;"/><polygon fill="#181818" points="278.98,987.6094,269.98,983.6094,273.98,987.6094,269.98,991.6094,278.98,987.6094" style="stroke:#181818;stroke-width:1.0;"/></g><!--link AuthenticationService to ListCandidatesController--><g id="link_AuthenticationService_ListCandidatesController"><path codeLine="192" d="M120.62,936.9994 C95.13,821.9394 50.33,534.2894 192,370.6094 C276.24,273.2894 1130.05,252.6494 1500.74,248.2794 " fill="none" id="AuthenticationService-to-ListCandidatesController" style="stroke:#181818;stroke-width:1.0;stroke-dasharray:7.0,7.0;"/><polygon fill="#181818" points="1505.89,248.2194,1496.8449,244.3225,1500.8903,248.2765,1496.9363,252.322,1505.89,248.2194" style="stroke:#181818;stroke-width:1.0;"/></g><!--link CustomerManager to SystemUser--><g id="link_CustomerManager_SystemUser"><path codeLine="193" d="M543.22,1051.1894 C501.15,1124.7594 431.6,1246.3894 388.42,1321.9094 " fill="none" id="CustomerManager-to-SystemUser" style="stroke:#181818;stroke-width:1.0;"/><polygon fill="none" points="394.31,1325.7094,378.31,1339.5994,382.16,1318.7594,394.31,1325.7094" style="stroke:#181818;stroke-width:1.0;"/></g><!--link Candidate to SystemUser--><g id="link_Candidate_SystemUser"><path codeLine="194" d="M849.94,1076.2494 C727.8,1152.6894 553.84,1261.5494 446.62,1328.6394 " fill="none" id="Candidate-to-SystemUser" style="stroke:#181818;stroke-width:1.0;"/><polygon fill="none" points="450.03,1334.7694,429.36,1339.4494,442.6,1322.8994,450.03,1334.7694" style="stroke:#181818;stroke-width:1.0;"/></g><!--SRC=[dLXDRziu4BthLn2-nDd2HhAtDOm0gOqiKZHDK2VDcPPecub4QaagWRljV-zGaYMIecGwlbWsvyqypWTdAFbAMOu5pb8Ulv849MI3YrJTSAPMz2T1Vrz4YggKeAVLvSNbFsYHOYdHak8jOABeBCVnAzuID7eGH1AciAASZT3_4O9FN0f_fL8jC4jeWXMHJxTeFZU5hwvgwT_HsMzJutMUfpG-gd01L0LFKo90iO5fzEhF9xGbwWjVt-U4KRRL6iRdzcgZiLnyQMINZ_Vd1h-AGglg3ZDWcy5kLaIyqPW0Y_gfOU1Ob_URHI4LpuYeq69SI28OpiYvL_v6yEo0MF24o35me5j64kjVJTohmDrDimsRHi0chlli6ZlmE0ci3YcEENiZGZroa3EuLljfr1cn3UVROgGJLx_cKvZY5kPGRN8fcAYTVTYXxKJj87iAsTWqK2fhAst9CqoR8ciBi50xO5uJGQ00FK6KvSWehDg1bcJBoIx7BiUgh6nTAm8v1kRcyufM2Vo1quAW-_KBYTKmUYyLoJHDMy7rTYl85hQFldC-hEAfpkH11lFvxTBIeZyJz5PApT1A2KWnnmJulBNYd031R26iHksDppsQ3v4ErZb1-Oupygt8ri1aXXxQNuQCR5qxC_niC5DbfdaejIV12Pms1OlBnEkuSw9JMmaSgyTzhjszC7uQKkzSlDw1bq3YkNwqT6GvPllh985k946cVh94f2fgL_jfb2g-wMpnBBCY-u6Xy69AjFvRfiZMSYaSdh6WUTyk1VcleA8yFkGg9p7T70w56vfgY_ehnF-7tGSMLUkv9M4yewmqsY7ugKht-utLIhE-j3H35ih3ZBF91GMIKO3paJ4EfXCoqeZ7DPFlLI4C1EqxaJ1BUIE_yGHmWWZmI7rAZOQmrEHcI7_v1LOmLnKwtpvpdXBCJ7SUZeQ-ZBNFWIvj2l_04KxUwzNoEIG36-7Wq3UcZiSUpgPuHv8YzJYcKTC4emDkHFuLkAppxhvVuCnjgczGHvCOnnBK7NSVeBD2QoOi9lQusnwUtqdE9LLSxFKCtSgNhcmNZqs-TrZ5EtWsXxYnsLNE-z3ZBxwnsDFLFipqe41-tX_wi3CSzzNnXqswC-8pLRjREsi6s-p7ztfyvZEibXcsmJ1NjJeXr_4QIz8nRDse44pjFAQLwiWTFARJgzuRLTIvkvqWRLpCDCgNniC8Rt278PwW705q4ZQOKsUs3zt_IK0BsGxymIn38VrNba2SOGXIhZhZqLUyXxnene_HvGXD9bTezDV8d0bdADvXtUQ9e3y9fAWvAlHWEg2smumkfbC3PFPw5pHqZzTuRzA6WwB1EwkMDGHE4ZRe-6-lhdBlPTnXEt1jrPA-uWg5HBvBgoFH-pAYbEiMQXYWFkTqKXfdP9sPtjvgPjp2lcW8iYveciZZmEVsxZ4Cca-dTYtaDSi4hVTHrDFX06JdjONoWqnwjyOWr_2Bl3qDJBLNIfUUh-5hWDDaNDXPHQ1iPpJBqp9wLQBwkjiloqU6hLcBbhr8lpU2e3w7X06xVh5mkYjRBqsYmtiF7I7ZTcsyq825mqmK-T-uJ4CaQaDz0aCDtWthPFBB8jlcYRlo1m00]--></g></svg>