<?xml version="1.0" encoding="us-ascii" standalone="no"?><svg xmlns="http://www.w3.org/2000/svg" xmlns:xlink="http://www.w3.org/1999/xlink" contentStyleType="text/css" height="439.2px" preserveAspectRatio="none" style="width:810px;height:439px;background:#FFFFFF;" version="1.1" viewBox="0 0 810 439" width="810.4px" zoomAndPan="magnify"><defs/><g><rect fill="#FFFFFF" height="347.0148" style="stroke:#181818;stroke-width:0.4000000000000001;" width="4" x="30.6" y="48.6133"/><rect fill="#FFFFFF" height="347.0148" style="stroke:#181818;stroke-width:0.4000000000000001;" width="4" x="204.2" y="48.6133"/><rect fill="#FFFFFF" height="53.118" style="stroke:#181818;stroke-width:0.4000000000000001;" width="4" x="360.2" y="86.0266"/><rect fill="#FFFFFF" height="111.6148" style="stroke:#181818;stroke-width:0.4000000000000001;" width="4" x="360.2" y="179.4938"/><rect fill="#FFFFFF" height="86.582" style="stroke:#181818;stroke-width:0.4000000000000001;" width="4" x="516.2" y="192.0102"/><rect fill="#FFFFFF" height="37.0328" style="stroke:#181818;stroke-width:0.4000000000000001;" width="4" x="617.8" y="229.043"/><rect fill="#FFFFFF" height="12" style="stroke:#181818;stroke-width:0.4000000000000001;" width="4" x="705.6" y="204.5266"/><rect fill="#FFFFFF" height="12" style="stroke:#181818;stroke-width:0.4000000000000001;" width="4" x="778" y="241.5594"/><rect fill="none" height="52.9703" style="stroke:#000000;stroke-width:0.6000000000000001;" width="237.4" x="4" y="339.8578"/><line style="stroke:#181818;stroke-width:0.20000000000000004;stroke-dasharray:5.0,5.0;" x1="32.4" x2="32.4" y1="35.2969" y2="399.6281"/><line style="stroke:#181818;stroke-width:0.20000000000000004;stroke-dasharray:5.0,5.0;" x1="206.2" x2="206.2" y1="35.2969" y2="399.6281"/><line style="stroke:#181818;stroke-width:0.20000000000000004;stroke-dasharray:5.0,5.0;" x1="362.2" x2="362.2" y1="68.2617" y2="399.6281"/><line style="stroke:#181818;stroke-width:0.20000000000000004;stroke-dasharray:5.0,5.0;" x1="518.2" x2="518.2" y1="35.2969" y2="399.6281"/><line style="stroke:#181818;stroke-width:0.20000000000000004;stroke-dasharray:5.0,5.0;" x1="619.8" x2="619.8" y1="35.2969" y2="399.6281"/><line style="stroke:#181818;stroke-width:0.20000000000000004;stroke-dasharray:5.0,5.0;" x1="707.4" x2="707.4" y1="35.2969" y2="399.6281"/><line style="stroke:#181818;stroke-width:0.20000000000000004;stroke-dasharray:5.0,5.0;" x1="779.8" x2="779.8" y1="35.2969" y2="399.6281"/><text fill="#000000" font-family="sans-serif" font-size="5.6" lengthAdjust="spacing" textLength="46.8" x="8" y="33.8914">CustomerManager</text><ellipse cx="32.6" cy="7.2484" fill="#E2E2F0" rx="3.2" ry="3.2" style="stroke:#181818;stroke-width:0.20000000000000004;"/><path d="M32.6,10.4484 L32.6,21.2484 M27.4,13.6484 L37.8,13.6484 M32.6,21.2484 L27.4,27.2484 M32.6,21.2484 L37.8,27.2484 " fill="none" style="stroke:#181818;stroke-width:0.20000000000000004;"/><text fill="#000000" font-family="sans-serif" font-size="5.6" lengthAdjust="spacing" textLength="46.8" x="8" y="405.2711">CustomerManager</text><ellipse cx="32.6" cy="410.0766" fill="#E2E2F0" rx="3.2" ry="3.2" style="stroke:#181818;stroke-width:0.20000000000000004;"/><path d="M32.6,413.2766 L32.6,424.0766 M27.4,416.4766 L37.8,416.4766 M32.6,424.0766 L27.4,430.0766 M32.6,424.0766 L37.8,430.0766 " fill="none" style="stroke:#181818;stroke-width:0.20000000000000004;"/><rect fill="#E2E2F0" height="20.4969" rx="1" ry="1" style="stroke:#181818;stroke-width:0.20000000000000004;" width="62.4" x="175" y="14.4"/><text fill="#000000" font-family="sans-serif" font-size="5.6" lengthAdjust="spacing" textLength="38.4" x="187" y="23.243">&#171;Presentation&#187;</text><text fill="#000000" font-family="sans-serif" font-size="5.6" lengthAdjust="spacing" textLength="56.8" x="177.8" y="30.6914">ChangePhaseStatesUI</text><rect fill="#E2E2F0" height="20.4969" rx="1" ry="1" style="stroke:#181818;stroke-width:0.20000000000000004;" width="62.4" x="175" y="399.2281"/><text fill="#000000" font-family="sans-serif" font-size="5.6" lengthAdjust="spacing" textLength="38.4" x="187" y="408.0711">&#171;Presentation&#187;</text><text fill="#000000" font-family="sans-serif" font-size="5.6" lengthAdjust="spacing" textLength="56.8" x="177.8" y="415.5195">ChangePhaseStatesUI</text><rect fill="#E2E2F0" height="20.4969" rx="1" ry="1" style="stroke:#181818;stroke-width:0.20000000000000004;" width="82.4" x="321" y="399.2281"/><text fill="#000000" font-family="sans-serif" font-size="5.6" lengthAdjust="spacing" textLength="34" x="345.2" y="408.0711">&#171;Application&#187;</text><text fill="#000000" font-family="sans-serif" font-size="5.6" lengthAdjust="spacing" textLength="76.8" x="323.8" y="415.5195">ChangePhaseStatesController</text><rect fill="#E2E2F0" height="20.4969" rx="1" ry="1" style="stroke:#181818;stroke-width:0.20000000000000004;" width="108" x="464.2" y="14.4"/><text fill="#000000" font-family="sans-serif" font-size="5.6" lengthAdjust="spacing" textLength="25.2" x="505.6" y="23.243">&#171;Service&#187;</text><text fill="#000000" font-family="sans-serif" font-size="5.6" lengthAdjust="spacing" textLength="102.4" x="467" y="30.6914">RecruitmentProcessManagementService</text><rect fill="#E2E2F0" height="20.4969" rx="1" ry="1" style="stroke:#181818;stroke-width:0.20000000000000004;" width="108" x="464.2" y="399.2281"/><text fill="#000000" font-family="sans-serif" font-size="5.6" lengthAdjust="spacing" textLength="25.2" x="505.6" y="408.0711">&#171;Service&#187;</text><text fill="#000000" font-family="sans-serif" font-size="5.6" lengthAdjust="spacing" textLength="102.4" x="467" y="415.5195">RecruitmentProcessManagementService</text><rect fill="#E2E2F0" height="20.4969" rx="1" ry="1" style="stroke:#181818;stroke-width:0.20000000000000004;" width="87.2" x="576.2" y="14.4"/><text fill="#000000" font-family="sans-serif" font-size="5.6" lengthAdjust="spacing" textLength="25.2" x="607.2" y="23.243">&#171;Service&#187;</text><text fill="#000000" font-family="sans-serif" font-size="5.6" lengthAdjust="spacing" textLength="81.6" x="579" y="30.6914">RecruitmentProcessDTOService</text><rect fill="#E2E2F0" height="20.4969" rx="1" ry="1" style="stroke:#181818;stroke-width:0.20000000000000004;" width="87.2" x="576.2" y="399.2281"/><text fill="#000000" font-family="sans-serif" font-size="5.6" lengthAdjust="spacing" textLength="25.2" x="607.2" y="408.0711">&#171;Service&#187;</text><text fill="#000000" font-family="sans-serif" font-size="5.6" lengthAdjust="spacing" textLength="81.6" x="579" y="415.5195">RecruitmentProcessDTOService</text><text fill="#000000" font-family="sans-serif" font-size="5.6" lengthAdjust="spacing" textLength="33.6" x="689.6" y="26.443">&#171;Repository&#187;</text><text fill="#000000" font-family="sans-serif" font-size="5.6" lengthAdjust="spacing" textLength="78" x="667.4" y="33.8914">RecruitmentProcessRepository</text><path d="M700.4,6 C700.4,2 707.6,2 707.6,2 C707.6,2 714.8,2 714.8,6 L714.8,16.4 C714.8,20.4 707.6,20.4 707.6,20.4 C707.6,20.4 700.4,20.4 700.4,16.4 L700.4,6 " fill="#E2E2F0" style="stroke:#181818;stroke-width:0.6000000000000001;"/><path d="M700.4,6 C700.4,10 707.6,10 707.6,10 C707.6,10 714.8,10 714.8,6 " fill="none" style="stroke:#181818;stroke-width:0.6000000000000001;"/><text fill="#000000" font-family="sans-serif" font-size="5.6" lengthAdjust="spacing" textLength="33.6" x="689.6" y="405.2711">&#171;Repository&#187;</text><text fill="#000000" font-family="sans-serif" font-size="5.6" lengthAdjust="spacing" textLength="78" x="667.4" y="412.7195">RecruitmentProcessRepository</text><path d="M700.4,418.125 C700.4,414.125 707.6,414.125 707.6,414.125 C707.6,414.125 714.8,414.125 714.8,418.125 L714.8,428.525 C714.8,432.525 707.6,432.525 707.6,432.525 C707.6,432.525 700.4,432.525 700.4,428.525 L700.4,418.125 " fill="#E2E2F0" style="stroke:#181818;stroke-width:0.6000000000000001;"/><path d="M700.4,418.125 C700.4,422.125 707.6,422.125 707.6,422.125 C707.6,422.125 714.8,422.125 714.8,418.125 " fill="none" style="stroke:#181818;stroke-width:0.6000000000000001;"/><rect fill="#E2E2F0" height="20.4969" rx="1" ry="1" style="stroke:#181818;stroke-width:0.20000000000000004;" width="56.4" x="751.8" y="14.4"/><text fill="#000000" font-family="sans-serif" font-size="5.6" lengthAdjust="spacing" textLength="25.6" x="767.2" y="23.243">&#171;Domain&#187;</text><text fill="#000000" font-family="sans-serif" font-size="5.6" lengthAdjust="spacing" textLength="50.8" x="754.6" y="30.6914">RecruitmentProcess</text><rect fill="#E2E2F0" height="20.4969" rx="1" ry="1" style="stroke:#181818;stroke-width:0.20000000000000004;" width="56.4" x="751.8" y="399.2281"/><text fill="#000000" font-family="sans-serif" font-size="5.6" lengthAdjust="spacing" textLength="25.6" x="767.2" y="408.0711">&#171;Domain&#187;</text><text fill="#000000" font-family="sans-serif" font-size="5.6" lengthAdjust="spacing" textLength="50.8" x="754.6" y="415.5195">RecruitmentProcess</text><rect fill="#FFFFFF" height="347.0148" style="stroke:#181818;stroke-width:0.4000000000000001;" width="4" x="30.6" y="48.6133"/><rect fill="#FFFFFF" height="347.0148" style="stroke:#181818;stroke-width:0.4000000000000001;" width="4" x="204.2" y="48.6133"/><rect fill="#FFFFFF" height="53.118" style="stroke:#181818;stroke-width:0.4000000000000001;" width="4" x="360.2" y="86.0266"/><rect fill="#FFFFFF" height="111.6148" style="stroke:#181818;stroke-width:0.4000000000000001;" width="4" x="360.2" y="179.4938"/><rect fill="#FFFFFF" height="86.582" style="stroke:#181818;stroke-width:0.4000000000000001;" width="4" x="516.2" y="192.0102"/><rect fill="#FFFFFF" height="37.0328" style="stroke:#181818;stroke-width:0.4000000000000001;" width="4" x="617.8" y="229.043"/><rect fill="#FFFFFF" height="12" style="stroke:#181818;stroke-width:0.4000000000000001;" width="4" x="705.6" y="204.5266"/><rect fill="#FFFFFF" height="12" style="stroke:#181818;stroke-width:0.4000000000000001;" width="4" x="778" y="241.5594"/><polygon fill="#181818" points="199.4,47.0133,203.4,48.6133,199.4,50.2133,201,48.6133" style="stroke:#181818;stroke-width:0.4000000000000001;"/><line style="stroke:#181818;stroke-width:0.4000000000000001;" x1="34.6" x2="201.8" y1="48.6133" y2="48.6133"/><text fill="#000000" font-family="sans-serif" font-size="5.2" font-weight="bold" lengthAdjust="spacing" textLength="2.8" x="37.4" y="46.5082">1</text><text fill="#000000" font-family="sans-serif" font-size="5.2" lengthAdjust="spacing" textLength="84.8" x="41.8" y="46.5082">Asks to change the state of a Phase</text><polygon fill="#181818" points="316.2,59.5297,320.2,61.1297,316.2,62.7297,317.8,61.1297" style="stroke:#181818;stroke-width:0.4000000000000001;"/><line style="stroke:#181818;stroke-width:0.4000000000000001;" x1="208.2" x2="318.6" y1="61.1297" y2="61.1297"/><text fill="#000000" font-family="sans-serif" font-size="5.2" font-weight="bold" lengthAdjust="spacing" textLength="2.8" x="211" y="59.0246">2</text><text fill="#000000" font-family="sans-serif" font-size="5.2" lengthAdjust="spacing" textLength="14.4" x="215.4" y="59.0246">create</text><rect fill="#E2E2F0" height="20.4969" rx="1" ry="1" style="stroke:#181818;stroke-width:0.20000000000000004;" width="82.4" x="321" y="51.8133"/><text fill="#000000" font-family="sans-serif" font-size="5.6" lengthAdjust="spacing" textLength="34" x="345.2" y="60.6563">&#171;Application&#187;</text><text fill="#000000" font-family="sans-serif" font-size="5.6" lengthAdjust="spacing" textLength="76.8" x="323.8" y="68.1047">ChangePhaseStatesController</text><polygon fill="#181818" points="355.4,84.4266,359.4,86.0266,355.4,87.6266,357,86.0266" style="stroke:#181818;stroke-width:0.4000000000000001;"/><line style="stroke:#181818;stroke-width:0.4000000000000001;" x1="208.2" x2="357.8" y1="86.0266" y2="86.0266"/><text fill="#000000" font-family="sans-serif" font-size="5.2" font-weight="bold" lengthAdjust="spacing" textLength="2.8" x="211" y="83.9215">3</text><text fill="#000000" font-family="sans-serif" font-size="5.2" lengthAdjust="spacing" textLength="46.4" x="215.4" y="83.9215">getAllJobOpenings()</text><rect fill="none" height="23.6852" style="stroke:#000000;stroke-width:0.6000000000000001;" width="119.6" x="319.8" y="89.2266"/><path d="M319.8,89.2266 L344.6,89.2266 L344.6,92.8266 L340.6,96.8266 L319.8,96.8266 L319.8,89.2266 " fill="#EEEEEE" style="stroke:#000000;stroke-width:0.8000000000000002;"/><text fill="#000000" font-family="sans-serif" font-size="5.2" font-weight="bold" lengthAdjust="spacing" textLength="6.8" x="325" y="95.6379">ref</text><text fill="#000000" font-family="sans-serif" font-size="4.8" lengthAdjust="spacing" textLength="81.2" x="338.4" y="103.6063">sequence-diagram-get-job-openings</text><text fill="#000000" font-family="sans-serif" font-size="4.8" lengthAdjust="spacing" textLength="115.2" x="322.6" y="109.9906">(in docs/team-decisions/shared-sequence-diagram)</text><polygon fill="#181818" points="212.6,122.6281,208.6,124.2281,212.6,125.8281,211,124.2281" style="stroke:#181818;stroke-width:0.4000000000000001;"/><line style="stroke:#181818;stroke-width:0.4000000000000001;stroke-dasharray:2.0,2.0;" x1="210.2" x2="359.8" y1="124.2281" y2="124.2281"/><text fill="#000000" font-family="sans-serif" font-size="5.2" font-weight="bold" lengthAdjust="spacing" textLength="2.8" x="215" y="122.123">4</text><text fill="#000000" font-family="sans-serif" font-size="5.2" lengthAdjust="spacing" textLength="44.8" x="219.4" y="122.123">jobOpeningDTOList</text><line style="stroke:#181818;stroke-width:0.4000000000000001;" x1="208.2" x2="225" y1="138.7445" y2="138.7445"/><line style="stroke:#181818;stroke-width:0.4000000000000001;" x1="225" x2="225" y1="138.7445" y2="143.9445"/><line style="stroke:#181818;stroke-width:0.4000000000000001;" x1="206.2" x2="225" y1="143.9445" y2="143.9445"/><polygon fill="#181818" points="210.2,142.3445,206.2,143.9445,210.2,145.5445,208.6,143.9445" style="stroke:#181818;stroke-width:0.4000000000000001;"/><text fill="#000000" font-family="sans-serif" font-size="5.2" font-weight="bold" lengthAdjust="spacing" textLength="2.8" x="211" y="136.6395">5</text><text fill="#000000" font-family="sans-serif" font-size="5.2" lengthAdjust="spacing" textLength="21.6" x="215.4" y="136.6395">doShow()</text><polygon fill="#181818" points="39,152.8609,35,154.4609,39,156.0609,37.4,154.4609" style="stroke:#181818;stroke-width:0.4000000000000001;"/><line style="stroke:#181818;stroke-width:0.4000000000000001;stroke-dasharray:2.0,2.0;" x1="36.6" x2="203.8" y1="154.4609" y2="154.4609"/><text fill="#000000" font-family="sans-serif" font-size="5.2" font-weight="bold" lengthAdjust="spacing" textLength="2.8" x="41.4" y="152.3559">6</text><text fill="#000000" font-family="sans-serif" font-size="5.2" lengthAdjust="spacing" textLength="86.4" x="45.8" y="152.3559">Shows job openings and asks for one</text><polygon fill="#181818" points="199.4,165.3773,203.4,166.9773,199.4,168.5773,201,166.9773" style="stroke:#181818;stroke-width:0.4000000000000001;"/><line style="stroke:#181818;stroke-width:0.4000000000000001;" x1="34.6" x2="201.8" y1="166.9773" y2="166.9773"/><text fill="#000000" font-family="sans-serif" font-size="5.2" font-weight="bold" lengthAdjust="spacing" textLength="2.8" x="37.4" y="164.8723">7</text><text fill="#000000" font-family="sans-serif" font-size="5.2" lengthAdjust="spacing" textLength="32.8" x="41.8" y="164.8723">Job Reference</text><polygon fill="#181818" points="355.4,177.8938,359.4,179.4938,355.4,181.0938,357,179.4938" style="stroke:#181818;stroke-width:0.4000000000000001;"/><line style="stroke:#181818;stroke-width:0.4000000000000001;" x1="208.2" x2="357.8" y1="179.4938" y2="179.4938"/><text fill="#000000" font-family="sans-serif" font-size="5.2" font-weight="bold" lengthAdjust="spacing" textLength="2.8" x="211" y="177.3887">8</text><text fill="#000000" font-family="sans-serif" font-size="5.2" lengthAdjust="spacing" textLength="140" x="215.4" y="177.3887">getRecruitmentProcessDTOWithJobReference(jobReference)</text><polygon fill="#181818" points="511.4,190.4102,515.4,192.0102,511.4,193.6102,513,192.0102" style="stroke:#181818;stroke-width:0.4000000000000001;"/><line style="stroke:#181818;stroke-width:0.4000000000000001;" x1="364.2" x2="513.8" y1="192.0102" y2="192.0102"/><text fill="#000000" font-family="sans-serif" font-size="5.2" font-weight="bold" lengthAdjust="spacing" textLength="2.8" x="367" y="189.9051">9</text><text fill="#000000" font-family="sans-serif" font-size="5.2" lengthAdjust="spacing" textLength="140" x="371.4" y="189.9051">getRecruitmentProcessDTOWithJobReference(jobReference)</text><polygon fill="#181818" points="700.8,202.9266,704.8,204.5266,700.8,206.1266,702.4,204.5266" style="stroke:#181818;stroke-width:0.4000000000000001;"/><line style="stroke:#181818;stroke-width:0.4000000000000001;" x1="520.2" x2="703.2" y1="204.5266" y2="204.5266"/><text fill="#000000" font-family="sans-serif" font-size="5.2" font-weight="bold" lengthAdjust="spacing" textLength="5.6" x="523" y="202.4215">10</text><text fill="#000000" font-family="sans-serif" font-size="5.2" lengthAdjust="spacing" textLength="140" x="530.2" y="202.4215">getRecruitmentProcessDTOWithJobReference(jobReference)</text><polygon fill="#181818" points="613,227.443,617,229.043,613,230.643,614.6,229.043" style="stroke:#181818;stroke-width:0.4000000000000001;"/><line style="stroke:#181818;stroke-width:0.4000000000000001;" x1="520.2" x2="615.4" y1="229.043" y2="229.043"/><text fill="#000000" font-family="sans-serif" font-size="5.2" font-weight="bold" lengthAdjust="spacing" textLength="5.6" x="523" y="226.9379">11</text><text fill="#000000" font-family="sans-serif" font-size="5.2" lengthAdjust="spacing" textLength="80.8" x="530.2" y="226.9379">convertToDTO(recruitmentProcess)</text><polygon fill="#181818" points="773.2,239.9594,777.2,241.5594,773.2,243.1594,774.8,241.5594" style="stroke:#181818;stroke-width:0.4000000000000001;"/><line style="stroke:#181818;stroke-width:0.4000000000000001;" x1="621.8" x2="775.6" y1="241.5594" y2="241.5594"/><text fill="#000000" font-family="sans-serif" font-size="5.2" font-weight="bold" lengthAdjust="spacing" textLength="5.6" x="624.6" y="239.4543">12</text><text fill="#000000" font-family="sans-serif" font-size="5.2" lengthAdjust="spacing" textLength="18" x="631.8" y="239.4543">toDTO()</text><polygon fill="#181818" points="524.6,264.4758,520.6,266.0758,524.6,267.6758,523,266.0758" style="stroke:#181818;stroke-width:0.4000000000000001;"/><line style="stroke:#181818;stroke-width:0.4000000000000001;stroke-dasharray:2.0,2.0;" x1="522.2" x2="619.4" y1="266.0758" y2="266.0758"/><text fill="#000000" font-family="sans-serif" font-size="5.2" font-weight="bold" lengthAdjust="spacing" textLength="5.6" x="527" y="263.9707">13</text><text fill="#000000" font-family="sans-serif" font-size="5.2" lengthAdjust="spacing" textLength="55.6" x="534.2" y="263.9707">recruitmentProcessDTO</text><polygon fill="#181818" points="368.6,276.9922,364.6,278.5922,368.6,280.1922,367,278.5922" style="stroke:#181818;stroke-width:0.4000000000000001;"/><line style="stroke:#181818;stroke-width:0.4000000000000001;stroke-dasharray:2.0,2.0;" x1="366.2" x2="517.8" y1="278.5922" y2="278.5922"/><text fill="#000000" font-family="sans-serif" font-size="5.2" font-weight="bold" lengthAdjust="spacing" textLength="5.6" x="371" y="276.4871">14</text><text fill="#000000" font-family="sans-serif" font-size="5.2" lengthAdjust="spacing" textLength="55.6" x="378.2" y="276.4871">recruitmentProcessDTO</text><polygon fill="#181818" points="212.6,289.5086,208.6,291.1086,212.6,292.7086,211,291.1086" style="stroke:#181818;stroke-width:0.4000000000000001;"/><line style="stroke:#181818;stroke-width:0.4000000000000001;stroke-dasharray:2.0,2.0;" x1="210.2" x2="361.8" y1="291.1086" y2="291.1086"/><text fill="#000000" font-family="sans-serif" font-size="5.2" font-weight="bold" lengthAdjust="spacing" textLength="5.6" x="215" y="289.0035">15</text><text fill="#000000" font-family="sans-serif" font-size="5.2" lengthAdjust="spacing" textLength="55.6" x="222.2" y="289.0035">recruitmentProcessDTO</text><line style="stroke:#181818;stroke-width:0.4000000000000001;" x1="208.2" x2="225" y1="303.625" y2="303.625"/><line style="stroke:#181818;stroke-width:0.4000000000000001;" x1="225" x2="225" y1="303.625" y2="308.825"/><line style="stroke:#181818;stroke-width:0.4000000000000001;" x1="208.6" x2="225" y1="308.825" y2="308.825"/><polygon fill="#181818" points="212.6,307.225,208.6,308.825,212.6,310.425,211,308.825" style="stroke:#181818;stroke-width:0.4000000000000001;"/><text fill="#000000" font-family="sans-serif" font-size="5.2" font-weight="bold" lengthAdjust="spacing" textLength="5.6" x="211" y="301.5199">16</text><text fill="#000000" font-family="sans-serif" font-size="5.2" lengthAdjust="spacing" textLength="21.6" x="218.2" y="301.5199">doShow()</text><polygon fill="#181818" points="39,319.7414,35,321.3414,39,322.9414,37.4,321.3414" style="stroke:#181818;stroke-width:0.4000000000000001;"/><line style="stroke:#181818;stroke-width:0.4000000000000001;stroke-dasharray:2.0,2.0;" x1="36.6" x2="203.8" y1="321.3414" y2="321.3414"/><text fill="#000000" font-family="sans-serif" font-size="5.2" font-weight="bold" lengthAdjust="spacing" textLength="5.6" x="41.4" y="319.2363">17</text><text fill="#000000" font-family="sans-serif" font-size="5.2" lengthAdjust="spacing" textLength="152.8" x="48.6" y="319.2363">Shows all the Phases of the Recruitment Process and their states</text><polygon fill="#181818" points="39,332.2578,35,333.8578,39,335.4578,37.4,333.8578" style="stroke:#181818;stroke-width:0.4000000000000001;"/><line style="stroke:#181818;stroke-width:0.4000000000000001;stroke-dasharray:2.0,2.0;" x1="36.6" x2="203.8" y1="333.8578" y2="333.8578"/><text fill="#000000" font-family="sans-serif" font-size="5.2" font-weight="bold" lengthAdjust="spacing" textLength="5.6" x="41.4" y="331.7527">18</text><text fill="#000000" font-family="sans-serif" font-size="5.2" lengthAdjust="spacing" textLength="99.6" x="48.6" y="331.7527">Asks if it wants to start a phase or go back</text><path d="M4,339.8578 L28.4,339.8578 L28.4,343.5742 L24.4,347.5742 L4,347.5742 L4,339.8578 " fill="#EEEEEE" style="stroke:#000000;stroke-width:0.6000000000000001;"/><rect fill="none" height="52.9703" style="stroke:#000000;stroke-width:0.6000000000000001;" width="237.4" x="4" y="339.8578"/><text fill="#000000" font-family="sans-serif" font-size="5.2" font-weight="bold" lengthAdjust="spacing" textLength="6.4" x="10" y="345.8691">alt</text><text fill="#000000" font-family="sans-serif" font-size="4.4" font-weight="bold" lengthAdjust="spacing" textLength="20.8" x="34.4" y="345.4059">[Go back]</text><rect fill="none" height="17.3008" style="stroke:#000000;stroke-width:0.6000000000000001;" width="231.8" x="6.8" y="347.5742"/><path d="M6.8,347.5742 L31.6,347.5742 L31.6,351.1742 L27.6,355.1742 L6.8,355.1742 L6.8,347.5742 " fill="#EEEEEE" style="stroke:#000000;stroke-width:0.8000000000000002;"/><text fill="#000000" font-family="sans-serif" font-size="5.2" font-weight="bold" lengthAdjust="spacing" textLength="6.8" x="12" y="353.9855">ref</text><text fill="#000000" font-family="sans-serif" font-size="4.8" lengthAdjust="spacing" textLength="42.4" x="101.5" y="361.9539">Go_Back_Scenario</text><line style="stroke:#000000;stroke-width:0.4000000000000001;stroke-dasharray:2.0,2.0;" x1="4" x2="241.4" y1="367.275" y2="367.275"/><text fill="#000000" font-family="sans-serif" font-size="4.4" font-weight="bold" lengthAdjust="spacing" textLength="27.6" x="6" y="372.023">[Next Phase]</text><rect fill="none" height="17.3008" style="stroke:#000000;stroke-width:0.6000000000000001;" width="231.8" x="6.8" y="373.5273"/><path d="M6.8,373.5273 L31.6,373.5273 L31.6,377.1273 L27.6,381.1273 L6.8,381.1273 L6.8,373.5273 " fill="#EEEEEE" style="stroke:#000000;stroke-width:0.8000000000000002;"/><text fill="#000000" font-family="sans-serif" font-size="5.2" font-weight="bold" lengthAdjust="spacing" textLength="6.8" x="12" y="379.9387">ref</text><text fill="#000000" font-family="sans-serif" font-size="4.8" lengthAdjust="spacing" textLength="49.6" x="97.9" y="387.907">Start_Phase_Scenario</text><!--SRC=[hLJRRjim37ttLn1zMLBCotjH1CYIeUZGh47SOYy52aLcOgMsv4bAk_tzI3aNtz9XsFGcyV2GEhnyoBmltTLeLEP2-rsHVvAc63dyiKCjCKwLs5XHH97OUQDtnGfj54saDnOkfZldJO5sBhJOeBq0uM0wZnR2UYLLINHmSNsziEXGU-6LqUFnavvcGczmaGc72RsYUxmDde-tRSz9MUPAddUS6ksjoVD3w8VbNPiYGVkg9BBx4gNTALzGBWjh93fNvSqFUrYWMIwIlsAPFTmttVaXcWalLfGfko-nD4wHPB_w6KxsFSFoo-A-dSFC54BfVeAzMnHDvn2FIKcuWebxSU0DoA0Q-0p1iMfWrY0Wg1WAgLxvaSfskb0b8g13FCJ6ibvU4gEqIDQsYGmRz9Cy_sfMzoLgfJTkCAnG9tekJNZYOt4DvXNjmR_TR34HnbkpYisU3vuq39I6r4WtyaY85ALor1Tkv39XCOtR7CDJk10bFkYoFQP9TRfJpf-0rQS2AZL9PjuE_vYXwFw4qQp1dE0CTamDnvI5JgagL8CrZOhHUzrg1IAzO8bhj9nslwgzpVPT-OnyZww3RUtoll2L4cDkyNyCq0Z24tDyvSFy8Gmtyd-8r8eMngDXh1MeptpCXqUJEzbeQZ__OEW-i9tCpaSEezqmLlI1DqGWTXzeXrrSZQXhR7pXV8nZzMoVeE-eqaqzg7BgjpyGDiYISzFr3idP8UeTkUvqYJmFMooiBiThZ6-rle9zn31wP5EssdYkonYMerg3yl16-pKiIi9QJwknP7wWeTqOM0dvKdcBtCDD_Q6voEOVgq_ScEVF17bE96fXbQcmc1FZD_pf3tltF472MJm7M9j4fr5K5t7UkDBI_Wq0]--></g></svg>