<?xml version="1.0" encoding="us-ascii" standalone="no"?><svg xmlns="http://www.w3.org/2000/svg" xmlns:xlink="http://www.w3.org/1999/xlink" contentStyleType="text/css" height="1030.4px" preserveAspectRatio="none" style="width:1163px;height:1030px;background:#FFFFFF;" version="1.1" viewBox="0 0 1163 1030" width="1163.4px" zoomAndPan="magnify"><defs/><g><rect fill="#FFFFFF" height="886.3982" style="stroke:#181818;stroke-width:0.6999999999999998;" width="7" x="60.55" y="68.7695"/><rect fill="#FFFFFF" height="886.3982" style="stroke:#181818;stroke-width:0.6999999999999998;" width="7" x="226.45" y="68.7695"/><rect fill="#FFFFFF" height="175.726" style="stroke:#181818;stroke-width:0.6999999999999998;" width="7" x="438.55" y="137.4844"/><rect fill="#FFFFFF" height="237.326" style="stroke:#181818;stroke-width:0.6999999999999998;" width="7" x="438.55" y="387.0631"/><rect fill="#FFFFFF" height="237.326" style="stroke:#181818;stroke-width:0.6999999999999998;" width="7" x="438.55" y="684.7381"/><rect fill="#FFFFFF" height="119.8148" style="stroke:#181818;stroke-width:0.6999999999999998;" width="7" x="650.65" y="171.4918"/><rect fill="#FFFFFF" height="193.5186" style="stroke:#181818;stroke-width:0.6999999999999998;" width="7" x="650.65" y="408.9668"/><rect fill="#FFFFFF" height="193.5186" style="stroke:#181818;stroke-width:0.6999999999999998;" width="7" x="650.65" y="706.6418"/><rect fill="#FFFFFF" height="21" style="stroke:#181818;stroke-width:0.6999999999999998;" width="7" x="870.45" y="193.3955"/><rect fill="#FFFFFF" height="21" style="stroke:#181818;stroke-width:0.6999999999999998;" width="7" x="961.45" y="248.4029"/><rect fill="#FFFFFF" height="21" style="stroke:#181818;stroke-width:0.6999999999999998;" width="7" x="1027.25" y="430.8705"/><rect fill="#FFFFFF" height="21" style="stroke:#181818;stroke-width:0.6999999999999998;" width="7" x="1027.25" y="516.6779"/><rect fill="#FFFFFF" height="21" style="stroke:#181818;stroke-width:0.6999999999999998;" width="7" x="1027.25" y="728.5455"/><rect fill="#FFFFFF" height="21" style="stroke:#181818;stroke-width:0.6999999999999998;" width="7" x="1027.25" y="814.3529"/><rect fill="#FFFFFF" height="21" style="stroke:#181818;stroke-width:0.6999999999999998;" width="7" x="1101.45" y="473.7742"/><rect fill="#FFFFFF" height="21" style="stroke:#181818;stroke-width:0.6999999999999998;" width="7" x="1101.45" y="559.5816"/><rect fill="#FFFFFF" height="21" style="stroke:#181818;stroke-width:0.6999999999999998;" width="7" x="1101.45" y="771.4492"/><rect fill="#FFFFFF" height="21" style="stroke:#181818;stroke-width:0.6999999999999998;" width="7" x="1101.45" y="857.2566"/><rect fill="none" height="853.9945" style="stroke:#000000;stroke-width:1.0499999999999998;" width="1151.85" x="7" y="95.5732"/><rect fill="none" height="328.1824" style="stroke:#000000;stroke-width:1.0499999999999998;" width="1137.85" x="14" y="323.7104"/><line style="stroke:#181818;stroke-width:0.3499999999999999;stroke-dasharray:5.0,5.0;" x1="63.7" x2="63.7" y1="61.7695" y2="961.4678"/><line style="stroke:#181818;stroke-width:0.3499999999999999;stroke-dasharray:5.0,5.0;" x1="229.95" x2="229.95" y1="61.7695" y2="961.4678"/><line style="stroke:#181818;stroke-width:0.3499999999999999;stroke-dasharray:5.0,5.0;" x1="442.05" x2="442.05" y1="61.7695" y2="961.4678"/><line style="stroke:#181818;stroke-width:0.3499999999999999;stroke-dasharray:5.0,5.0;" x1="653.8" x2="653.8" y1="61.7695" y2="961.4678"/><line style="stroke:#181818;stroke-width:0.3499999999999999;stroke-dasharray:5.0,5.0;" x1="873.95" x2="873.95" y1="61.7695" y2="961.4678"/><line style="stroke:#181818;stroke-width:0.3499999999999999;stroke-dasharray:5.0,5.0;" x1="964.95" x2="964.95" y1="61.7695" y2="961.4678"/><line style="stroke:#181818;stroke-width:0.3499999999999999;stroke-dasharray:5.0,5.0;" x1="1030.75" x2="1030.75" y1="61.7695" y2="961.4678"/><line style="stroke:#181818;stroke-width:0.3499999999999999;stroke-dasharray:5.0,5.0;" x1="1104.95" x2="1104.95" y1="61.7695" y2="961.4678"/><text fill="#000000" font-family="sans-serif" font-size="9.8" lengthAdjust="spacing" textLength="81.9" x="21" y="59.31">CustomerManager</text><ellipse cx="64.05" cy="12.6848" fill="#E2E2F0" rx="5.6" ry="5.6" style="stroke:#181818;stroke-width:0.3499999999999999;"/><path d="M64.05,18.2848 L64.05,37.1848 M54.95,23.8848 L73.15,23.8848 M64.05,37.1848 L54.95,47.6848 M64.05,37.1848 L73.15,47.6848 " fill="none" style="stroke:#181818;stroke-width:0.3499999999999999;"/><text fill="#000000" font-family="sans-serif" font-size="9.8" lengthAdjust="spacing" textLength="81.9" x="21" y="971.343">CustomerManager</text><ellipse cx="64.05" cy="979.7525" fill="#E2E2F0" rx="5.6" ry="5.6" style="stroke:#181818;stroke-width:0.3499999999999999;"/><path d="M64.05,985.3525 L64.05,1004.2525 M54.95,990.9525 L73.15,990.9525 M64.05,1004.2525 L54.95,1014.7525 M64.05,1004.2525 L73.15,1014.7525 " fill="none" style="stroke:#181818;stroke-width:0.3499999999999999;"/><rect fill="#E2E2F0" height="35.8695" rx="1.75" ry="1.75" style="stroke:#181818;stroke-width:0.3499999999999999;" width="109.2" x="175.35" y="25.2"/><text fill="#000000" font-family="sans-serif" font-size="9.8" lengthAdjust="spacing" textLength="67.2" x="196.35" y="40.6752">&#171;Presentation&#187;</text><text fill="#000000" font-family="sans-serif" font-size="9.8" lengthAdjust="spacing" textLength="99.4" x="180.25" y="53.71">ChangePhaseStatesUI</text><rect fill="#E2E2F0" height="35.8695" rx="1.75" ry="1.75" style="stroke:#181818;stroke-width:0.3499999999999999;" width="109.2" x="175.35" y="960.7678"/><text fill="#000000" font-family="sans-serif" font-size="9.8" lengthAdjust="spacing" textLength="67.2" x="196.35" y="976.243">&#171;Presentation&#187;</text><text fill="#000000" font-family="sans-serif" font-size="9.8" lengthAdjust="spacing" textLength="99.4" x="180.25" y="989.2777">ChangePhaseStatesUI</text><rect fill="#E2E2F0" height="35.8695" rx="1.75" ry="1.75" style="stroke:#181818;stroke-width:0.3499999999999999;" width="144.2" x="369.95" y="25.2"/><text fill="#000000" font-family="sans-serif" font-size="9.8" lengthAdjust="spacing" textLength="59.5" x="412.3" y="40.6752">&#171;Application&#187;</text><text fill="#000000" font-family="sans-serif" font-size="9.8" lengthAdjust="spacing" textLength="134.4" x="374.85" y="53.71">ChangePhaseStatesController</text><rect fill="#E2E2F0" height="35.8695" rx="1.75" ry="1.75" style="stroke:#181818;stroke-width:0.3499999999999999;" width="144.2" x="369.95" y="960.7678"/><text fill="#000000" font-family="sans-serif" font-size="9.8" lengthAdjust="spacing" textLength="59.5" x="412.3" y="976.243">&#171;Application&#187;</text><text fill="#000000" font-family="sans-serif" font-size="9.8" lengthAdjust="spacing" textLength="134.4" x="374.85" y="989.2777">ChangePhaseStatesController</text><rect fill="#E2E2F0" height="35.8695" rx="1.75" ry="1.75" style="stroke:#181818;stroke-width:0.3499999999999999;" width="153.3" x="577.5" y="25.2"/><text fill="#000000" font-family="sans-serif" font-size="9.8" lengthAdjust="spacing" textLength="44.1" x="632.1" y="40.6752">&#171;Service&#187;</text><text fill="#000000" font-family="sans-serif" font-size="9.8" lengthAdjust="spacing" textLength="143.5" x="582.4" y="53.71">JobOpeningManagementService</text><rect fill="#E2E2F0" height="35.8695" rx="1.75" ry="1.75" style="stroke:#181818;stroke-width:0.3499999999999999;" width="153.3" x="577.5" y="960.7678"/><text fill="#000000" font-family="sans-serif" font-size="9.8" lengthAdjust="spacing" textLength="44.1" x="632.1" y="976.243">&#171;Service&#187;</text><text fill="#000000" font-family="sans-serif" font-size="9.8" lengthAdjust="spacing" textLength="143.5" x="582.4" y="989.2777">JobOpeningManagementService</text><text fill="#000000" font-family="sans-serif" font-size="9.8" lengthAdjust="spacing" textLength="58.8" x="842.45" y="46.2752">&#171;Repository&#187;</text><text fill="#000000" font-family="sans-serif" font-size="9.8" lengthAdjust="spacing" textLength="100.8" x="821.45" y="59.31">JobOpeningRepository</text><path d="M861.35,10.5 C861.35,3.5 873.95,3.5 873.95,3.5 C873.95,3.5 886.55,3.5 886.55,10.5 L886.55,28.7 C886.55,35.7 873.95,35.7 873.95,35.7 C873.95,35.7 861.35,35.7 861.35,28.7 L861.35,10.5 " fill="#E2E2F0" style="stroke:#181818;stroke-width:1.0499999999999998;"/><path d="M861.35,10.5 C861.35,17.5 873.95,17.5 873.95,17.5 C873.95,17.5 886.55,17.5 886.55,10.5 " fill="none" style="stroke:#181818;stroke-width:1.0499999999999998;"/><text fill="#000000" font-family="sans-serif" font-size="9.8" lengthAdjust="spacing" textLength="58.8" x="842.45" y="971.343">&#171;Repository&#187;</text><text fill="#000000" font-family="sans-serif" font-size="9.8" lengthAdjust="spacing" textLength="100.8" x="821.45" y="984.3777">JobOpeningRepository</text><path d="M861.35,993.8373 C861.35,986.8373 873.95,986.8373 873.95,986.8373 C873.95,986.8373 886.55,986.8373 886.55,993.8373 L886.55,1012.0373 C886.55,1019.0373 873.95,1019.0373 873.95,1019.0373 C873.95,1019.0373 861.35,1019.0373 861.35,1012.0373 L861.35,993.8373 " fill="#E2E2F0" style="stroke:#181818;stroke-width:1.0499999999999998;"/><path d="M861.35,993.8373 C861.35,1000.8373 873.95,1000.8373 873.95,1000.8373 C873.95,1000.8373 886.55,1000.8373 886.55,993.8373 " fill="none" style="stroke:#181818;stroke-width:1.0499999999999998;"/><rect fill="#E2E2F0" height="35.8695" rx="1.75" ry="1.75" style="stroke:#181818;stroke-width:0.3499999999999999;" width="63" x="933.45" y="25.2"/><text fill="#000000" font-family="sans-serif" font-size="9.8" lengthAdjust="spacing" textLength="44.8" x="942.55" y="40.6752">&#171;Domain&#187;</text><text fill="#000000" font-family="sans-serif" font-size="9.8" lengthAdjust="spacing" textLength="53.2" x="938.35" y="53.71">JobOpening</text><rect fill="#E2E2F0" height="35.8695" rx="1.75" ry="1.75" style="stroke:#181818;stroke-width:0.3499999999999999;" width="63" x="933.45" y="960.7678"/><text fill="#000000" font-family="sans-serif" font-size="9.8" lengthAdjust="spacing" textLength="44.8" x="942.55" y="976.243">&#171;Domain&#187;</text><text fill="#000000" font-family="sans-serif" font-size="9.8" lengthAdjust="spacing" textLength="53.2" x="938.35" y="989.2777">JobOpening</text><rect fill="#E2E2F0" height="35.8695" rx="1.75" ry="1.75" style="stroke:#181818;stroke-width:0.3499999999999999;" width="54.6" x="1003.45" y="25.2"/><text fill="#000000" font-family="sans-serif" font-size="9.8" lengthAdjust="spacing" textLength="44.8" x="1008.35" y="40.6752">&#171;Domain&#187;</text><text fill="#000000" font-family="sans-serif" font-size="9.8" lengthAdjust="spacing" textLength="28" x="1016.75" y="53.71">Phase</text><rect fill="#E2E2F0" height="35.8695" rx="1.75" ry="1.75" style="stroke:#181818;stroke-width:0.3499999999999999;" width="54.6" x="1003.45" y="960.7678"/><text fill="#000000" font-family="sans-serif" font-size="9.8" lengthAdjust="spacing" textLength="44.8" x="1008.35" y="976.243">&#171;Domain&#187;</text><text fill="#000000" font-family="sans-serif" font-size="9.8" lengthAdjust="spacing" textLength="28" x="1016.75" y="989.2777">Phase</text><text fill="#000000" font-family="sans-serif" font-size="9.8" lengthAdjust="spacing" textLength="58.8" x="1073.45" y="46.2752">&#171;Repository&#187;</text><text fill="#000000" font-family="sans-serif" font-size="9.8" lengthAdjust="spacing" textLength="75.6" x="1065.05" y="59.31">PhaseRepository</text><path d="M1092.35,10.5 C1092.35,3.5 1104.95,3.5 1104.95,3.5 C1104.95,3.5 1117.55,3.5 1117.55,10.5 L1117.55,28.7 C1117.55,35.7 1104.95,35.7 1104.95,35.7 C1104.95,35.7 1092.35,35.7 1092.35,28.7 L1092.35,10.5 " fill="#E2E2F0" style="stroke:#181818;stroke-width:1.0499999999999998;"/><path d="M1092.35,10.5 C1092.35,17.5 1104.95,17.5 1104.95,17.5 C1104.95,17.5 1117.55,17.5 1117.55,10.5 " fill="none" style="stroke:#181818;stroke-width:1.0499999999999998;"/><text fill="#000000" font-family="sans-serif" font-size="9.8" lengthAdjust="spacing" textLength="58.8" x="1073.45" y="971.343">&#171;Repository&#187;</text><text fill="#000000" font-family="sans-serif" font-size="9.8" lengthAdjust="spacing" textLength="75.6" x="1065.05" y="984.3777">PhaseRepository</text><path d="M1092.35,993.8373 C1092.35,986.8373 1104.95,986.8373 1104.95,986.8373 C1104.95,986.8373 1117.55,986.8373 1117.55,993.8373 L1117.55,1012.0373 C1117.55,1019.0373 1104.95,1019.0373 1104.95,1019.0373 C1104.95,1019.0373 1092.35,1019.0373 1092.35,1012.0373 L1092.35,993.8373 " fill="#E2E2F0" style="stroke:#181818;stroke-width:1.0499999999999998;"/><path d="M1092.35,993.8373 C1092.35,1000.8373 1104.95,1000.8373 1104.95,1000.8373 C1104.95,1000.8373 1117.55,1000.8373 1117.55,993.8373 " fill="none" style="stroke:#181818;stroke-width:1.0499999999999998;"/><rect fill="#FFFFFF" height="886.3982" style="stroke:#181818;stroke-width:0.6999999999999998;" width="7" x="60.55" y="68.7695"/><rect fill="#FFFFFF" height="886.3982" style="stroke:#181818;stroke-width:0.6999999999999998;" width="7" x="226.45" y="68.7695"/><rect fill="#FFFFFF" height="175.726" style="stroke:#181818;stroke-width:0.6999999999999998;" width="7" x="438.55" y="137.4844"/><rect fill="#FFFFFF" height="237.326" style="stroke:#181818;stroke-width:0.6999999999999998;" width="7" x="438.55" y="387.0631"/><rect fill="#FFFFFF" height="237.326" style="stroke:#181818;stroke-width:0.6999999999999998;" width="7" x="438.55" y="684.7381"/><rect fill="#FFFFFF" height="119.8148" style="stroke:#181818;stroke-width:0.6999999999999998;" width="7" x="650.65" y="171.4918"/><rect fill="#FFFFFF" height="193.5186" style="stroke:#181818;stroke-width:0.6999999999999998;" width="7" x="650.65" y="408.9668"/><rect fill="#FFFFFF" height="193.5186" style="stroke:#181818;stroke-width:0.6999999999999998;" width="7" x="650.65" y="706.6418"/><rect fill="#FFFFFF" height="21" style="stroke:#181818;stroke-width:0.6999999999999998;" width="7" x="870.45" y="193.3955"/><rect fill="#FFFFFF" height="21" style="stroke:#181818;stroke-width:0.6999999999999998;" width="7" x="961.45" y="248.4029"/><rect fill="#FFFFFF" height="21" style="stroke:#181818;stroke-width:0.6999999999999998;" width="7" x="1027.25" y="430.8705"/><rect fill="#FFFFFF" height="21" style="stroke:#181818;stroke-width:0.6999999999999998;" width="7" x="1027.25" y="516.6779"/><rect fill="#FFFFFF" height="21" style="stroke:#181818;stroke-width:0.6999999999999998;" width="7" x="1027.25" y="728.5455"/><rect fill="#FFFFFF" height="21" style="stroke:#181818;stroke-width:0.6999999999999998;" width="7" x="1027.25" y="814.3529"/><rect fill="#FFFFFF" height="21" style="stroke:#181818;stroke-width:0.6999999999999998;" width="7" x="1101.45" y="473.7742"/><rect fill="#FFFFFF" height="21" style="stroke:#181818;stroke-width:0.6999999999999998;" width="7" x="1101.45" y="559.5816"/><rect fill="#FFFFFF" height="21" style="stroke:#181818;stroke-width:0.6999999999999998;" width="7" x="1101.45" y="771.4492"/><rect fill="#FFFFFF" height="21" style="stroke:#181818;stroke-width:0.6999999999999998;" width="7" x="1101.45" y="857.2566"/><polygon fill="#181818" points="218.05,82.2732,225.05,85.0732,218.05,87.8732,220.85,85.0732" style="stroke:#181818;stroke-width:0.6999999999999998;"/><line style="stroke:#181818;stroke-width:0.6999999999999998;" x1="67.55" x2="222.25" y1="85.0732" y2="85.0732"/><text fill="#000000" font-family="sans-serif" font-size="9.1" font-weight="bold" lengthAdjust="spacing" textLength="4.9" x="72.45" y="81.3894">1</text><text fill="#000000" font-family="sans-serif" font-size="9.1" lengthAdjust="spacing" textLength="56" x="80.15" y="81.3894">Start a Phase</text><path d="M7,95.5732 L49.7,95.5732 L49.7,102.077 L42.7,109.077 L7,109.077 L7,95.5732 " fill="#EEEEEE" style="stroke:#000000;stroke-width:1.0499999999999998;"/><rect fill="none" height="853.9945" style="stroke:#000000;stroke-width:1.0499999999999998;" width="1151.85" x="7" y="95.5732"/><text fill="#000000" font-family="sans-serif" font-size="9.1" font-weight="bold" lengthAdjust="spacing" textLength="11.2" x="17.5" y="106.0931">alt</text><text fill="#000000" font-family="sans-serif" font-size="7.7" font-weight="bold" lengthAdjust="spacing" textLength="179.9" x="60.2" y="105.2823">[Current Phase is "Screening" or "Interviews"]</text><polygon fill="#181818" points="430.15,134.6844,437.15,137.4844,430.15,140.2844,432.95,137.4844" style="stroke:#181818;stroke-width:0.6999999999999998;"/><line style="stroke:#181818;stroke-width:0.6999999999999998;" x1="233.45" x2="434.35" y1="137.4844" y2="137.4844"/><text fill="#000000" font-family="sans-serif" font-size="9.1" font-weight="bold" lengthAdjust="spacing" textLength="4.9" x="238.35" y="127.7486">2</text><text fill="#000000" font-family="sans-serif" font-size="9.1" lengthAdjust="spacing" textLength="181.3" x="246.05" y="121.6968">hasRequirementSpecification(jobReference) /</text><text fill="#000000" font-family="sans-serif" font-size="9.1" lengthAdjust="spacing" textLength="131.6" x="246.05" y="133.8005">hasInterviewModel(jobReference)</text><polygon fill="#181818" points="642.25,168.6918,649.25,171.4918,642.25,174.2918,645.05,171.4918" style="stroke:#181818;stroke-width:0.6999999999999998;"/><line style="stroke:#181818;stroke-width:0.6999999999999998;" x1="445.55" x2="646.45" y1="171.4918" y2="171.4918"/><text fill="#000000" font-family="sans-serif" font-size="9.1" font-weight="bold" lengthAdjust="spacing" textLength="4.9" x="450.45" y="161.7561">3</text><text fill="#000000" font-family="sans-serif" font-size="9.1" lengthAdjust="spacing" textLength="181.3" x="458.15" y="155.7042">hasRequirementSpecification(jobReference) /</text><text fill="#000000" font-family="sans-serif" font-size="9.1" lengthAdjust="spacing" textLength="131.6" x="458.15" y="167.8079">hasInterviewModel(jobReference)</text><polygon fill="#181818" points="862.05,190.5955,869.05,193.3955,862.05,196.1955,864.85,193.3955" style="stroke:#181818;stroke-width:0.6999999999999998;"/><line style="stroke:#181818;stroke-width:0.6999999999999998;" x1="657.65" x2="866.25" y1="193.3955" y2="193.3955"/><text fill="#000000" font-family="sans-serif" font-size="9.1" font-weight="bold" lengthAdjust="spacing" textLength="4.9" x="662.55" y="189.7116">4</text><text fill="#000000" font-family="sans-serif" font-size="9.1" lengthAdjust="spacing" textLength="191.8" x="670.25" y="189.7116">getJobOpeningWithJobReference(jobReference)</text><polygon fill="#181818" points="953.05,245.6029,960.05,248.4029,953.05,251.2029,955.85,248.4029" style="stroke:#181818;stroke-width:0.6999999999999998;"/><line style="stroke:#181818;stroke-width:0.6999999999999998;" x1="657.65" x2="957.25" y1="248.4029" y2="248.4029"/><text fill="#000000" font-family="sans-serif" font-size="9.1" font-weight="bold" lengthAdjust="spacing" textLength="4.9" x="662.55" y="238.6672">5</text><text fill="#000000" font-family="sans-serif" font-size="9.1" lengthAdjust="spacing" textLength="128.8" x="670.25" y="232.6153">hasRequirementSpecification() /</text><text fill="#000000" font-family="sans-serif" font-size="9.1" lengthAdjust="spacing" textLength="79.1" x="670.25" y="244.719">hasInterviewModel()</text><polygon fill="#181818" points="453.25,288.5066,446.25,291.3066,453.25,294.1066,450.45,291.3066" style="stroke:#181818;stroke-width:0.6999999999999998;"/><line style="stroke:#181818;stroke-width:0.6999999999999998;stroke-dasharray:2.0,2.0;" x1="449.05" x2="653.45" y1="291.3066" y2="291.3066"/><text fill="#000000" font-family="sans-serif" font-size="9.1" font-weight="bold" lengthAdjust="spacing" textLength="4.9" x="457.45" y="287.6228">6</text><text fill="#000000" font-family="sans-serif" font-size="9.1" lengthAdjust="spacing" textLength="22.4" x="465.15" y="287.6228">result</text><polygon fill="#181818" points="241.15,310.4104,234.15,313.2104,241.15,316.0104,238.35,313.2104" style="stroke:#181818;stroke-width:0.6999999999999998;"/><line style="stroke:#181818;stroke-width:0.6999999999999998;stroke-dasharray:2.0,2.0;" x1="236.95" x2="441.35" y1="313.2104" y2="313.2104"/><text fill="#000000" font-family="sans-serif" font-size="9.1" font-weight="bold" lengthAdjust="spacing" textLength="4.9" x="245.35" y="309.5265">7</text><text fill="#000000" font-family="sans-serif" font-size="9.1" lengthAdjust="spacing" textLength="22.4" x="253.05" y="309.5265">result</text><path d="M14,323.7104 L56.7,323.7104 L56.7,330.2141 L49.7,337.2141 L14,337.2141 L14,323.7104 " fill="#EEEEEE" style="stroke:#000000;stroke-width:1.0499999999999998;"/><rect fill="none" height="328.1824" style="stroke:#000000;stroke-width:1.0499999999999998;" width="1137.85" x="14" y="323.7104"/><text fill="#000000" font-family="sans-serif" font-size="9.1" font-weight="bold" lengthAdjust="spacing" textLength="11.2" x="24.5" y="334.2302">alt</text><text fill="#000000" font-family="sans-serif" font-size="7.7" font-weight="bold" lengthAdjust="spacing" textLength="62.3" x="67.2" y="333.4194">[It doesn't have]</text><polygon fill="#181818" points="75.25,350.7178,68.25,353.5178,75.25,356.3178,72.45,353.5178" style="stroke:#181818;stroke-width:0.6999999999999998;"/><line style="stroke:#181818;stroke-width:0.6999999999999998;stroke-dasharray:2.0,2.0;" x1="71.05" x2="225.75" y1="353.5178" y2="353.5178"/><text fill="#000000" font-family="sans-serif" font-size="9.1" font-weight="bold" lengthAdjust="spacing" textLength="4.9" x="79.45" y="349.8339">8</text><text fill="#000000" font-family="sans-serif" font-size="9.1" lengthAdjust="spacing" textLength="134.4" x="87.15" y="349.8339">Failure message with justification</text><line style="stroke:#000000;stroke-width:0.6999999999999998;stroke-dasharray:2.0,2.0;" x1="14" x2="1151.85" y1="359.8178" y2="359.8178"/><text fill="#000000" font-family="sans-serif" font-size="7.7" font-weight="bold" lengthAdjust="spacing" textLength="52.5" x="17.5" y="368.1269">[It does have]</text><polygon fill="#181818" points="430.15,384.2631,437.15,387.0631,430.15,389.8631,432.95,387.0631" style="stroke:#181818;stroke-width:0.6999999999999998;"/><line style="stroke:#181818;stroke-width:0.6999999999999998;" x1="233.45" x2="434.35" y1="387.0631" y2="387.0631"/><text fill="#000000" font-family="sans-serif" font-size="9.1" font-weight="bold" lengthAdjust="spacing" textLength="4.9" x="238.35" y="383.3792">9</text><text fill="#000000" font-family="sans-serif" font-size="9.1" lengthAdjust="spacing" textLength="108.5" x="246.05" y="383.3792">startAPhase(jobReference)</text><polygon fill="#181818" points="642.25,406.1668,649.25,408.9668,642.25,411.7668,645.05,408.9668" style="stroke:#181818;stroke-width:0.6999999999999998;"/><line style="stroke:#181818;stroke-width:0.6999999999999998;" x1="445.55" x2="646.45" y1="408.9668" y2="408.9668"/><text fill="#000000" font-family="sans-serif" font-size="9.1" font-weight="bold" lengthAdjust="spacing" textLength="9.8" x="450.45" y="405.2829">10</text><text fill="#000000" font-family="sans-serif" font-size="9.1" lengthAdjust="spacing" textLength="108.5" x="463.05" y="405.2829">startAPhase(jobReference)</text><polygon fill="#181818" points="1018.85,428.0705,1025.85,430.8705,1018.85,433.6705,1021.65,430.8705" style="stroke:#181818;stroke-width:0.6999999999999998;"/><line style="stroke:#181818;stroke-width:0.6999999999999998;" x1="657.65" x2="1023.05" y1="430.8705" y2="430.8705"/><text fill="#000000" font-family="sans-serif" font-size="9.1" font-weight="bold" lengthAdjust="spacing" textLength="9.8" x="662.55" y="427.1866">11</text><text fill="#000000" font-family="sans-serif" font-size="9.1" lengthAdjust="spacing" textLength="214.2" x="675.15" y="427.1866">currentPhase.setStatusDescriptionAsCONCLUDED()</text><polygon fill="#181818" points="1093.05,470.9742,1100.05,473.7742,1093.05,476.5742,1095.85,473.7742" style="stroke:#181818;stroke-width:0.6999999999999998;"/><line style="stroke:#181818;stroke-width:0.6999999999999998;" x1="657.65" x2="1097.25" y1="473.7742" y2="473.7742"/><text fill="#000000" font-family="sans-serif" font-size="9.1" font-weight="bold" lengthAdjust="spacing" textLength="9.8" x="662.55" y="470.0903">12</text><text fill="#000000" font-family="sans-serif" font-size="9.1" lengthAdjust="spacing" textLength="77.7" x="675.15" y="470.0903">save(currentPhase)</text><polygon fill="#181818" points="1018.85,513.8779,1025.85,516.6779,1018.85,519.4779,1021.65,516.6779" style="stroke:#181818;stroke-width:0.6999999999999998;"/><line style="stroke:#181818;stroke-width:0.6999999999999998;" x1="657.65" x2="1023.05" y1="516.6779" y2="516.6779"/><text fill="#000000" font-family="sans-serif" font-size="9.1" font-weight="bold" lengthAdjust="spacing" textLength="9.8" x="662.55" y="512.994">13</text><text fill="#000000" font-family="sans-serif" font-size="9.1" lengthAdjust="spacing" textLength="210.7" x="675.15" y="512.994">previousPhase.setStatusDescriptionAsON_GOING()</text><polygon fill="#181818" points="1093.05,556.7816,1100.05,559.5816,1093.05,562.3816,1095.85,559.5816" style="stroke:#181818;stroke-width:0.6999999999999998;"/><line style="stroke:#181818;stroke-width:0.6999999999999998;" x1="657.65" x2="1097.25" y1="559.5816" y2="559.5816"/><text fill="#000000" font-family="sans-serif" font-size="9.1" font-weight="bold" lengthAdjust="spacing" textLength="9.8" x="662.55" y="555.8978">14</text><text fill="#000000" font-family="sans-serif" font-size="9.1" lengthAdjust="spacing" textLength="82.6" x="675.15" y="555.8978">save(previousPhase)</text><polygon fill="#181818" points="453.25,599.6854,446.25,602.4854,453.25,605.2854,450.45,602.4854" style="stroke:#181818;stroke-width:0.6999999999999998;"/><line style="stroke:#181818;stroke-width:0.6999999999999998;stroke-dasharray:2.0,2.0;" x1="449.05" x2="653.45" y1="602.4854" y2="602.4854"/><text fill="#000000" font-family="sans-serif" font-size="9.1" font-weight="bold" lengthAdjust="spacing" textLength="9.8" x="457.45" y="598.8015">15</text><text fill="#000000" font-family="sans-serif" font-size="9.1" lengthAdjust="spacing" textLength="75.6" x="470.05" y="598.8015">Success message</text><polygon fill="#181818" points="241.15,621.5891,234.15,624.3891,241.15,627.1891,238.35,624.3891" style="stroke:#181818;stroke-width:0.6999999999999998;"/><line style="stroke:#181818;stroke-width:0.6999999999999998;stroke-dasharray:2.0,2.0;" x1="236.95" x2="441.35" y1="624.3891" y2="624.3891"/><text fill="#000000" font-family="sans-serif" font-size="9.1" font-weight="bold" lengthAdjust="spacing" textLength="9.8" x="245.35" y="620.7052">16</text><text fill="#000000" font-family="sans-serif" font-size="9.1" lengthAdjust="spacing" textLength="75.6" x="257.95" y="620.7052">Success message</text><polygon fill="#181818" points="75.25,643.4928,68.25,646.2928,75.25,649.0928,72.45,646.2928" style="stroke:#181818;stroke-width:0.6999999999999998;"/><line style="stroke:#181818;stroke-width:0.6999999999999998;stroke-dasharray:2.0,2.0;" x1="71.05" x2="225.75" y1="646.2928" y2="646.2928"/><text fill="#000000" font-family="sans-serif" font-size="9.1" font-weight="bold" lengthAdjust="spacing" textLength="9.8" x="79.45" y="642.6089">17</text><text fill="#000000" font-family="sans-serif" font-size="9.1" lengthAdjust="spacing" textLength="75.6" x="92.05" y="642.6089">Success message</text><line style="stroke:#000000;stroke-width:0.6999999999999998;stroke-dasharray:2.0,2.0;" x1="7" x2="1158.85" y1="657.4928" y2="657.4928"/><text fill="#000000" font-family="sans-serif" font-size="7.7" font-weight="bold" lengthAdjust="spacing" textLength="72.8" x="10.5" y="665.8019">[Rest of the cases]</text><polygon fill="#181818" points="430.15,681.9381,437.15,684.7381,430.15,687.5381,432.95,684.7381" style="stroke:#181818;stroke-width:0.6999999999999998;"/><line style="stroke:#181818;stroke-width:0.6999999999999998;" x1="233.45" x2="434.35" y1="684.7381" y2="684.7381"/><text fill="#000000" font-family="sans-serif" font-size="9.1" font-weight="bold" lengthAdjust="spacing" textLength="9.8" x="238.35" y="681.0542">18</text><text fill="#000000" font-family="sans-serif" font-size="9.1" lengthAdjust="spacing" textLength="108.5" x="250.95" y="681.0542">startAPhase(jobReference)</text><polygon fill="#181818" points="642.25,703.8418,649.25,706.6418,642.25,709.4418,645.05,706.6418" style="stroke:#181818;stroke-width:0.6999999999999998;"/><line style="stroke:#181818;stroke-width:0.6999999999999998;" x1="445.55" x2="646.45" y1="706.6418" y2="706.6418"/><text fill="#000000" font-family="sans-serif" font-size="9.1" font-weight="bold" lengthAdjust="spacing" textLength="9.8" x="450.45" y="702.9579">19</text><text fill="#000000" font-family="sans-serif" font-size="9.1" lengthAdjust="spacing" textLength="108.5" x="463.05" y="702.9579">startAPhase(jobReference)</text><polygon fill="#181818" points="1018.85,725.7455,1025.85,728.5455,1018.85,731.3455,1021.65,728.5455" style="stroke:#181818;stroke-width:0.6999999999999998;"/><line style="stroke:#181818;stroke-width:0.6999999999999998;" x1="657.65" x2="1023.05" y1="728.5455" y2="728.5455"/><text fill="#000000" font-family="sans-serif" font-size="9.1" font-weight="bold" lengthAdjust="spacing" textLength="9.8" x="662.55" y="724.8616">20</text><text fill="#000000" font-family="sans-serif" font-size="9.1" lengthAdjust="spacing" textLength="214.2" x="675.15" y="724.8616">currentPhase.setStatusDescriptionAsCONCLUDED()</text><polygon fill="#181818" points="1093.05,768.6492,1100.05,771.4492,1093.05,774.2492,1095.85,771.4492" style="stroke:#181818;stroke-width:0.6999999999999998;"/><line style="stroke:#181818;stroke-width:0.6999999999999998;" x1="657.65" x2="1097.25" y1="771.4492" y2="771.4492"/><text fill="#000000" font-family="sans-serif" font-size="9.1" font-weight="bold" lengthAdjust="spacing" textLength="9.8" x="662.55" y="767.7653">21</text><text fill="#000000" font-family="sans-serif" font-size="9.1" lengthAdjust="spacing" textLength="77.7" x="675.15" y="767.7653">save(currentPhase)</text><polygon fill="#181818" points="1018.85,811.5529,1025.85,814.3529,1018.85,817.1529,1021.65,814.3529" style="stroke:#181818;stroke-width:0.6999999999999998;"/><line style="stroke:#181818;stroke-width:0.6999999999999998;" x1="657.65" x2="1023.05" y1="814.3529" y2="814.3529"/><text fill="#000000" font-family="sans-serif" font-size="9.1" font-weight="bold" lengthAdjust="spacing" textLength="9.8" x="662.55" y="810.669">22</text><text fill="#000000" font-family="sans-serif" font-size="9.1" lengthAdjust="spacing" textLength="210.7" x="675.15" y="810.669">previousPhase.setStatusDescriptionAsON_GOING()</text><polygon fill="#181818" points="1093.05,854.4566,1100.05,857.2566,1093.05,860.0566,1095.85,857.2566" style="stroke:#181818;stroke-width:0.6999999999999998;"/><line style="stroke:#181818;stroke-width:0.6999999999999998;" x1="657.65" x2="1097.25" y1="857.2566" y2="857.2566"/><text fill="#000000" font-family="sans-serif" font-size="9.1" font-weight="bold" lengthAdjust="spacing" textLength="9.8" x="662.55" y="853.5728">23</text><text fill="#000000" font-family="sans-serif" font-size="9.1" lengthAdjust="spacing" textLength="82.6" x="675.15" y="853.5728">save(previousPhase)</text><polygon fill="#181818" points="453.25,897.3604,446.25,900.1604,453.25,902.9604,450.45,900.1604" style="stroke:#181818;stroke-width:0.6999999999999998;"/><line style="stroke:#181818;stroke-width:0.6999999999999998;stroke-dasharray:2.0,2.0;" x1="449.05" x2="653.45" y1="900.1604" y2="900.1604"/><text fill="#000000" font-family="sans-serif" font-size="9.1" font-weight="bold" lengthAdjust="spacing" textLength="9.8" x="457.45" y="896.4765">24</text><text fill="#000000" font-family="sans-serif" font-size="9.1" lengthAdjust="spacing" textLength="75.6" x="470.05" y="896.4765">Success message</text><polygon fill="#181818" points="241.15,919.2641,234.15,922.0641,241.15,924.8641,238.35,922.0641" style="stroke:#181818;stroke-width:0.6999999999999998;"/><line style="stroke:#181818;stroke-width:0.6999999999999998;stroke-dasharray:2.0,2.0;" x1="236.95" x2="441.35" y1="922.0641" y2="922.0641"/><text fill="#000000" font-family="sans-serif" font-size="9.1" font-weight="bold" lengthAdjust="spacing" textLength="9.8" x="245.35" y="918.3802">25</text><text fill="#000000" font-family="sans-serif" font-size="9.1" lengthAdjust="spacing" textLength="75.6" x="257.95" y="918.3802">Success message</text><polygon fill="#181818" points="75.25,941.1678,68.25,943.9678,75.25,946.7678,72.45,943.9678" style="stroke:#181818;stroke-width:0.6999999999999998;"/><line style="stroke:#181818;stroke-width:0.6999999999999998;stroke-dasharray:2.0,2.0;" x1="71.05" x2="225.75" y1="943.9678" y2="943.9678"/><text fill="#000000" font-family="sans-serif" font-size="9.1" font-weight="bold" lengthAdjust="spacing" textLength="9.8" x="79.45" y="940.2839">26</text><text fill="#000000" font-family="sans-serif" font-size="9.1" lengthAdjust="spacing" textLength="75.6" x="92.05" y="940.2839">Success message</text><!--SRC=[rLLDJ-Cm4BtdLrYzm1wWTuIGgfH5HPH6oQAz827N7LgZnCxQJj7- -nqdeVbedIP5kojoIpppvldDpClPnfXKNut7QKo5oPBuaibahE5N1eB1nOhJjQA9vz7CI94bIr2UDs56AZBoCsra0cfE1Ls36X6gYJ_t0geCPpn5E3AwlWuKQ1266Yx5pSspy3TKh27OK0qHVWNzDCipdsRjp4cQnfov4tqfZ99n_57wH_ZGXeX0RJa3ctulbuiK11VhWc-2fChZF3qC8czA3LqYlaqD8PMQuqL_DxEhxsLQU1iisdMdCg5SD1FBS7TeVhKyAkXWaaUrI1GSR5_u5fMnNQXUK5YFuEFFoSKDlf4hWlefGoZ9iOfJ-z3O43zJ2fKfZWZNP1Gn1UK5RDTdmbZLu5sFgapx83BYsovW1SmESOQuAdHEWV7NifVdRt8PmYieEs3Vo9Wy2upUmSxb2k9cJBDETKlRyCPHVarB08bWF_ykZmONEprxf_QnD78sjaL8Q0sc6ecVt6pkQnMEbMkLBBf-A6WAj4_OZjmHfLpg7AVOWru7jMgUq4IosEo7Df0YrpHypFqXb1h2_a3PZPWPifAWnPb1ZRQmNyCElcKwnmhVAOyp1IG1hT5ao3jscBoXKUx4REP3Z5jMLkY0t-cWxUPEykNiFPk7zsH_LmPWzvlzseZP2ME5jUG5BZKOw-APde9cYgTMceds5u_-mzFqTkeQhKRXm1rJwsfmd5ovcnhrFw-px4N2lLvj8jsHDQLI1LikCzqbrUBnvMunUxpxVqerMFvxgQgbY3B6SDy-bgw7vqHT-x3xInw3xRIEjZDqee5OLHzoJmX16o9VYTa0OQYlxlZPkXUtdk9KSzyiUgSDCP51e0rp6PJvETCPNAgsOeDp6wjtyYNTvlM9o-JxzwaBdOPmkWb-ySwrpFIhjivjoeFmMcPzWX-vJBmtLDlSdOczJDuQ_1y0]--></g></svg>