<?xml version="1.0" encoding="us-ascii" standalone="no"?><svg xmlns="http://www.w3.org/2000/svg" xmlns:xlink="http://www.w3.org/1999/xlink" contentStyleType="text/css" height="795.2px" preserveAspectRatio="none" style="width:1351px;height:795px;background:#FFFFFF;" version="1.1" viewBox="0 0 1351 795" width="1351.2px" zoomAndPan="magnify"><defs/><g><rect fill="#FFFFFF" height="630.0625" style="stroke:#181818;stroke-width:0.8000000000000002;" width="8" x="61.2" y="78.5938"/><rect fill="#FFFFFF" height="611.4297" style="stroke:#181818;stroke-width:0.8000000000000002;" width="8" x="189.2" y="97.2266"/><rect fill="#FFFFFF" height="442.5609" style="stroke:#181818;stroke-width:0.8000000000000002;" width="8" x="530.8" y="266.0953"/><rect fill="#FFFFFF" height="24" style="stroke:#181818;stroke-width:0.8000000000000002;" width="8" x="689.6" y="122.2594"/><rect fill="#FFFFFF" height="319.2297" style="stroke:#181818;stroke-width:0.8000000000000002;" width="8" x="874" y="291.1281"/><rect fill="#FFFFFF" height="24" style="stroke:#181818;stroke-width:0.8000000000000002;" width="8" x="1218" y="316.1609"/><rect fill="#FFFFFF" height="24" style="stroke:#181818;stroke-width:0.8000000000000002;" width="8" x="1218" y="414.2266"/><rect fill="#FFFFFF" height="24" style="stroke:#181818;stroke-width:0.8000000000000002;" width="8" x="1218" y="463.2594"/><rect fill="#FFFFFF" height="24" style="stroke:#181818;stroke-width:0.8000000000000002;" width="8" x="1218" y="561.325"/><rect fill="#FFFFFF" height="24" style="stroke:#181818;stroke-width:0.8000000000000002;" width="8" x="1302.8" y="365.1938"/><rect fill="#FFFFFF" height="24" style="stroke:#181818;stroke-width:0.8000000000000002;" width="8" x="1302.8" y="512.2922"/><rect fill="none" height="508.5641" style="stroke:#000000;stroke-width:1.2000000000000002;" width="1338" x="8" y="193.6922"/><line style="stroke:#181818;stroke-width:0.4000000000000001;stroke-dasharray:5.0,5.0;" x1="64.8" x2="64.8" y1="70.5938" y2="715.8563"/><line style="stroke:#181818;stroke-width:0.4000000000000001;stroke-dasharray:5.0,5.0;" x1="193.2" x2="193.2" y1="70.5938" y2="715.8563"/><line style="stroke:#181818;stroke-width:0.4000000000000001;stroke-dasharray:5.0,5.0;" x1="534.8" x2="534.8" y1="70.5938" y2="715.8563"/><line style="stroke:#181818;stroke-width:0.4000000000000001;stroke-dasharray:5.0,5.0;" x1="693.2" x2="693.2" y1="70.5938" y2="715.8563"/><line style="stroke:#181818;stroke-width:0.4000000000000001;stroke-dasharray:5.0,5.0;" x1="878" x2="878" y1="70.5938" y2="715.8563"/><line style="stroke:#181818;stroke-width:0.4000000000000001;stroke-dasharray:5.0,5.0;" x1="1081.2" x2="1081.2" y1="70.5938" y2="715.8563"/><line style="stroke:#181818;stroke-width:0.4000000000000001;stroke-dasharray:5.0,5.0;" x1="1222" x2="1222" y1="70.5938" y2="715.8563"/><line style="stroke:#181818;stroke-width:0.4000000000000001;stroke-dasharray:5.0,5.0;" x1="1306.8" x2="1306.8" y1="70.5938" y2="715.8563"/><text fill="#000000" font-family="sans-serif" font-size="11.2" lengthAdjust="spacing" textLength="93.6" x="16" y="67.7828">CustomerManager</text><ellipse cx="65.2" cy="14.4969" fill="#E2E2F0" rx="6.4" ry="6.4" style="stroke:#181818;stroke-width:0.4000000000000001;"/><path d="M65.2,20.8969 L65.2,42.4969 M54.8,27.2969 L75.6,27.2969 M65.2,42.4969 L54.8,54.4969 M65.2,42.4969 L75.6,54.4969 " fill="none" style="stroke:#181818;stroke-width:0.4000000000000001;"/><text fill="#000000" font-family="sans-serif" font-size="11.2" lengthAdjust="spacing" textLength="93.6" x="16" y="727.1422">CustomerManager</text><ellipse cx="65.2" cy="736.7531" fill="#E2E2F0" rx="6.4" ry="6.4" style="stroke:#181818;stroke-width:0.4000000000000001;"/><path d="M65.2,743.1531 L65.2,764.7531 M54.8,749.5531 L75.6,749.5531 M65.2,764.7531 L54.8,776.7531 M65.2,764.7531 L75.6,776.7531 " fill="none" style="stroke:#181818;stroke-width:0.4000000000000001;"/><rect fill="#E2E2F0" height="40.9938" rx="2" ry="2" style="stroke:#181818;stroke-width:0.4000000000000001;" width="124.8" x="130.8" y="28.8"/><text fill="#000000" font-family="sans-serif" font-size="11.2" lengthAdjust="spacing" textLength="76.8" x="154.8" y="46.4859">&#171;Presentation&#187;</text><text fill="#000000" font-family="sans-serif" font-size="11.2" lengthAdjust="spacing" textLength="113.6" x="136.4" y="61.3828">ChangePhaseStatesUI</text><rect fill="#E2E2F0" height="40.9938" rx="2" ry="2" style="stroke:#181818;stroke-width:0.4000000000000001;" width="124.8" x="130.8" y="715.0563"/><text fill="#000000" font-family="sans-serif" font-size="11.2" lengthAdjust="spacing" textLength="76.8" x="154.8" y="732.7422">&#171;Presentation&#187;</text><text fill="#000000" font-family="sans-serif" font-size="11.2" lengthAdjust="spacing" textLength="113.6" x="136.4" y="747.6391">ChangePhaseStatesUI</text><rect fill="#E2E2F0" height="40.9938" rx="2" ry="2" style="stroke:#181818;stroke-width:0.4000000000000001;" width="164.8" x="452.4" y="28.8"/><text fill="#000000" font-family="sans-serif" font-size="11.2" lengthAdjust="spacing" textLength="68" x="500.8" y="46.4859">&#171;Application&#187;</text><text fill="#000000" font-family="sans-serif" font-size="11.2" lengthAdjust="spacing" textLength="153.6" x="458" y="61.3828">ChangePhaseStatesController</text><rect fill="#E2E2F0" height="40.9938" rx="2" ry="2" style="stroke:#181818;stroke-width:0.4000000000000001;" width="164.8" x="452.4" y="715.0563"/><text fill="#000000" font-family="sans-serif" font-size="11.2" lengthAdjust="spacing" textLength="68" x="500.8" y="732.7422">&#171;Application&#187;</text><text fill="#000000" font-family="sans-serif" font-size="11.2" lengthAdjust="spacing" textLength="153.6" x="458" y="747.6391">ChangePhaseStatesController</text><rect fill="#E2E2F0" height="40.9938" rx="2" ry="2" style="stroke:#181818;stroke-width:0.4000000000000001;" width="136.8" x="625.2" y="28.8"/><text fill="#000000" font-family="sans-serif" font-size="11.2" lengthAdjust="spacing" textLength="36.8" x="675.2" y="46.4859">&#171;DTO&#187;</text><text fill="#000000" font-family="sans-serif" font-size="11.2" lengthAdjust="spacing" textLength="125.6" x="630.8" y="61.3828">RecruitmentProcessDTO</text><rect fill="#E2E2F0" height="40.9938" rx="2" ry="2" style="stroke:#181818;stroke-width:0.4000000000000001;" width="136.8" x="625.2" y="715.0563"/><text fill="#000000" font-family="sans-serif" font-size="11.2" lengthAdjust="spacing" textLength="36.8" x="675.2" y="732.7422">&#171;DTO&#187;</text><text fill="#000000" font-family="sans-serif" font-size="11.2" lengthAdjust="spacing" textLength="125.6" x="630.8" y="747.6391">RecruitmentProcessDTO</text><rect fill="#E2E2F0" height="40.9938" rx="2" ry="2" style="stroke:#181818;stroke-width:0.4000000000000001;" width="216" x="770" y="28.8"/><text fill="#000000" font-family="sans-serif" font-size="11.2" lengthAdjust="spacing" textLength="50.4" x="852.8" y="46.4859">&#171;Service&#187;</text><text fill="#000000" font-family="sans-serif" font-size="11.2" lengthAdjust="spacing" textLength="204.8" x="775.6" y="61.3828">RecruitmentProcessManagementService</text><rect fill="#E2E2F0" height="40.9938" rx="2" ry="2" style="stroke:#181818;stroke-width:0.4000000000000001;" width="216" x="770" y="715.0563"/><text fill="#000000" font-family="sans-serif" font-size="11.2" lengthAdjust="spacing" textLength="50.4" x="852.8" y="732.7422">&#171;Service&#187;</text><text fill="#000000" font-family="sans-serif" font-size="11.2" lengthAdjust="spacing" textLength="204.8" x="775.6" y="747.6391">RecruitmentProcessManagementService</text><rect fill="#E2E2F0" height="40.9938" rx="2" ry="2" style="stroke:#181818;stroke-width:0.4000000000000001;" width="174.4" x="994" y="28.8"/><text fill="#000000" font-family="sans-serif" font-size="11.2" lengthAdjust="spacing" textLength="50.4" x="1056" y="46.4859">&#171;Service&#187;</text><text fill="#000000" font-family="sans-serif" font-size="11.2" lengthAdjust="spacing" textLength="163.2" x="999.6" y="61.3828">RecruitmentProcessDTOService</text><rect fill="#E2E2F0" height="40.9938" rx="2" ry="2" style="stroke:#181818;stroke-width:0.4000000000000001;" width="174.4" x="994" y="715.0563"/><text fill="#000000" font-family="sans-serif" font-size="11.2" lengthAdjust="spacing" textLength="50.4" x="1056" y="732.7422">&#171;Service&#187;</text><text fill="#000000" font-family="sans-serif" font-size="11.2" lengthAdjust="spacing" textLength="163.2" x="999.6" y="747.6391">RecruitmentProcessDTOService</text><text fill="#000000" font-family="sans-serif" font-size="11.2" lengthAdjust="spacing" textLength="67.2" x="1186" y="52.8859">&#171;Repository&#187;</text><text fill="#000000" font-family="sans-serif" font-size="11.2" lengthAdjust="spacing" textLength="86.4" x="1176.4" y="67.7828">PhaseRepository</text><path d="M1207.6,12 C1207.6,4 1222,4 1222,4 C1222,4 1236.4,4 1236.4,12 L1236.4,32.8 C1236.4,40.8 1222,40.8 1222,40.8 C1222,40.8 1207.6,40.8 1207.6,32.8 L1207.6,12 " fill="#E2E2F0" style="stroke:#181818;stroke-width:1.2000000000000002;"/><path d="M1207.6,12 C1207.6,20 1222,20 1222,20 C1222,20 1236.4,20 1236.4,12 " fill="none" style="stroke:#181818;stroke-width:1.2000000000000002;"/><text fill="#000000" font-family="sans-serif" font-size="11.2" lengthAdjust="spacing" textLength="67.2" x="1186" y="727.1422">&#171;Repository&#187;</text><text fill="#000000" font-family="sans-serif" font-size="11.2" lengthAdjust="spacing" textLength="86.4" x="1176.4" y="742.0391">PhaseRepository</text><path d="M1207.6,752.85 C1207.6,744.85 1222,744.85 1222,744.85 C1222,744.85 1236.4,744.85 1236.4,752.85 L1236.4,773.65 C1236.4,781.65 1222,781.65 1222,781.65 C1222,781.65 1207.6,781.65 1207.6,773.65 L1207.6,752.85 " fill="#E2E2F0" style="stroke:#181818;stroke-width:1.2000000000000002;"/><path d="M1207.6,752.85 C1207.6,760.85 1222,760.85 1222,760.85 C1222,760.85 1236.4,760.85 1236.4,752.85 " fill="none" style="stroke:#181818;stroke-width:1.2000000000000002;"/><rect fill="#E2E2F0" height="40.9938" rx="2" ry="2" style="stroke:#181818;stroke-width:0.4000000000000001;" width="62.4" x="1275.6" y="28.8"/><text fill="#000000" font-family="sans-serif" font-size="11.2" lengthAdjust="spacing" textLength="51.2" x="1281.2" y="46.4859">&#171;Domain&#187;</text><text fill="#000000" font-family="sans-serif" font-size="11.2" lengthAdjust="spacing" textLength="32" x="1290.8" y="61.3828">Phase</text><rect fill="#E2E2F0" height="40.9938" rx="2" ry="2" style="stroke:#181818;stroke-width:0.4000000000000001;" width="62.4" x="1275.6" y="715.0563"/><text fill="#000000" font-family="sans-serif" font-size="11.2" lengthAdjust="spacing" textLength="51.2" x="1281.2" y="732.7422">&#171;Domain&#187;</text><text fill="#000000" font-family="sans-serif" font-size="11.2" lengthAdjust="spacing" textLength="32" x="1290.8" y="747.6391">Phase</text><rect fill="#FFFFFF" height="630.0625" style="stroke:#181818;stroke-width:0.8000000000000002;" width="8" x="61.2" y="78.5938"/><rect fill="#FFFFFF" height="611.4297" style="stroke:#181818;stroke-width:0.8000000000000002;" width="8" x="189.2" y="97.2266"/><rect fill="#FFFFFF" height="442.5609" style="stroke:#181818;stroke-width:0.8000000000000002;" width="8" x="530.8" y="266.0953"/><rect fill="#FFFFFF" height="24" style="stroke:#181818;stroke-width:0.8000000000000002;" width="8" x="689.6" y="122.2594"/><rect fill="#FFFFFF" height="319.2297" style="stroke:#181818;stroke-width:0.8000000000000002;" width="8" x="874" y="291.1281"/><rect fill="#FFFFFF" height="24" style="stroke:#181818;stroke-width:0.8000000000000002;" width="8" x="1218" y="316.1609"/><rect fill="#FFFFFF" height="24" style="stroke:#181818;stroke-width:0.8000000000000002;" width="8" x="1218" y="414.2266"/><rect fill="#FFFFFF" height="24" style="stroke:#181818;stroke-width:0.8000000000000002;" width="8" x="1218" y="463.2594"/><rect fill="#FFFFFF" height="24" style="stroke:#181818;stroke-width:0.8000000000000002;" width="8" x="1218" y="561.325"/><rect fill="#FFFFFF" height="24" style="stroke:#181818;stroke-width:0.8000000000000002;" width="8" x="1302.8" y="365.1938"/><rect fill="#FFFFFF" height="24" style="stroke:#181818;stroke-width:0.8000000000000002;" width="8" x="1302.8" y="512.2922"/><polygon fill="#181818" points="179.6,94.0266,187.6,97.2266,179.6,100.4266,182.8,97.2266" style="stroke:#181818;stroke-width:0.8000000000000002;"/><line style="stroke:#181818;stroke-width:0.8000000000000002;" x1="69.2" x2="184.4" y1="97.2266" y2="97.2266"/><text fill="#000000" font-family="sans-serif" font-size="10.4" font-weight="bold" lengthAdjust="spacing" textLength="5.6" x="74.8" y="93.0164">1</text><text fill="#000000" font-family="sans-serif" font-size="10.4" lengthAdjust="spacing" textLength="39.2" x="83.6" y="93.0164">Go back</text><polygon fill="#181818" points="680,119.0594,688,122.2594,680,125.4594,683.2,122.2594" style="stroke:#181818;stroke-width:0.8000000000000002;"/><line style="stroke:#181818;stroke-width:0.8000000000000002;" x1="197.2" x2="684.8" y1="122.2594" y2="122.2594"/><text fill="#000000" font-family="sans-serif" font-size="10.4" font-weight="bold" lengthAdjust="spacing" textLength="5.6" x="202.8" y="118.0492">2</text><text fill="#000000" font-family="sans-serif" font-size="10.4" lengthAdjust="spacing" textLength="56" x="211.6" y="118.0492">getPhases()</text><line style="stroke:#181818;stroke-width:0.8000000000000002;" x1="197.2" x2="230.8" y1="171.2922" y2="171.2922"/><line style="stroke:#181818;stroke-width:0.8000000000000002;" x1="230.8" x2="230.8" y1="171.2922" y2="181.6922"/><line style="stroke:#181818;stroke-width:0.8000000000000002;" x1="198" x2="230.8" y1="181.6922" y2="181.6922"/><polygon fill="#181818" points="206,178.4922,198,181.6922,206,184.8922,202.8,181.6922" style="stroke:#181818;stroke-width:0.8000000000000002;"/><text fill="#000000" font-family="sans-serif" font-size="10.4" font-weight="bold" lengthAdjust="spacing" textLength="5.6" x="202.8" y="167.082">3</text><text fill="#000000" font-family="sans-serif" font-size="10.4" lengthAdjust="spacing" textLength="112" x="211.6" y="167.082">Checks if it can go back</text><path d="M8,193.6922 L56.8,193.6922 L56.8,201.125 L48.8,209.125 L8,209.125 L8,193.6922 " fill="#EEEEEE" style="stroke:#000000;stroke-width:1.2000000000000002;"/><rect fill="none" height="508.5641" style="stroke:#000000;stroke-width:1.2000000000000002;" width="1338" x="8" y="193.6922"/><text fill="#000000" font-family="sans-serif" font-size="10.4" font-weight="bold" lengthAdjust="spacing" textLength="12.8" x="20" y="205.7148">alt</text><text fill="#000000" font-family="sans-serif" font-size="8.8" font-weight="bold" lengthAdjust="spacing" textLength="269.6" x="68.8" y="204.7883">[No previous Phase or work on this Phase already happened]</text><polygon fill="#181818" points="78,224.5578,70,227.7578,78,230.9578,74.8,227.7578" style="stroke:#181818;stroke-width:0.8000000000000002;"/><line style="stroke:#181818;stroke-width:0.8000000000000002;stroke-dasharray:2.0,2.0;" x1="73.2" x2="188.4" y1="227.7578" y2="227.7578"/><text fill="#000000" font-family="sans-serif" font-size="10.4" font-weight="bold" lengthAdjust="spacing" textLength="5.6" x="82.8" y="223.5477">4</text><text fill="#000000" font-family="sans-serif" font-size="10.4" lengthAdjust="spacing" textLength="76.8" x="91.6" y="223.5477">Failure message</text><line style="stroke:#000000;stroke-width:0.8000000000000002;stroke-dasharray:2.0,2.0;" x1="8" x2="1346" y1="234.9578" y2="234.9578"/><text fill="#000000" font-family="sans-serif" font-size="8.8" font-weight="bold" lengthAdjust="spacing" textLength="60" x="12" y="244.4539">[Can go back]</text><polygon fill="#181818" points="521.2,262.8953,529.2,266.0953,521.2,269.2953,524.4,266.0953" style="stroke:#181818;stroke-width:0.8000000000000002;"/><line style="stroke:#181818;stroke-width:0.8000000000000002;" x1="197.2" x2="526" y1="266.0953" y2="266.0953"/><text fill="#000000" font-family="sans-serif" font-size="10.4" font-weight="bold" lengthAdjust="spacing" textLength="5.6" x="202.8" y="261.8852">5</text><text fill="#000000" font-family="sans-serif" font-size="10.4" lengthAdjust="spacing" textLength="309.6" x="211.6" y="261.8852">goBackAPhase(phaseIdOfCurrentPhase, phaseIdOfPreviousPhase)</text><polygon fill="#181818" points="864.4,287.9281,872.4,291.1281,864.4,294.3281,867.6,291.1281" style="stroke:#181818;stroke-width:0.8000000000000002;"/><line style="stroke:#181818;stroke-width:0.8000000000000002;" x1="538.8" x2="869.2" y1="291.1281" y2="291.1281"/><text fill="#000000" font-family="sans-serif" font-size="10.4" font-weight="bold" lengthAdjust="spacing" textLength="5.6" x="544.4" y="286.918">6</text><text fill="#000000" font-family="sans-serif" font-size="10.4" lengthAdjust="spacing" textLength="309.6" x="553.2" y="286.918">goBackAPhase(phaseIdOfCurrentPhase, phaseIdOfPreviousPhase)</text><polygon fill="#181818" points="1208.4,312.9609,1216.4,316.1609,1208.4,319.3609,1211.6,316.1609" style="stroke:#181818;stroke-width:0.8000000000000002;"/><line style="stroke:#181818;stroke-width:0.8000000000000002;" x1="882" x2="1213.2" y1="316.1609" y2="316.1609"/><text fill="#000000" font-family="sans-serif" font-size="10.4" font-weight="bold" lengthAdjust="spacing" textLength="5.6" x="887.6" y="311.9508">7</text><text fill="#000000" font-family="sans-serif" font-size="10.4" lengthAdjust="spacing" textLength="220.8" x="896.4" y="311.9508">getPhaseWithPhaseID(phaseIdOfCurrentPhase)</text><polygon fill="#181818" points="1293.2,361.9938,1301.2,365.1938,1293.2,368.3938,1296.4,365.1938" style="stroke:#181818;stroke-width:0.8000000000000002;"/><line style="stroke:#181818;stroke-width:0.8000000000000002;" x1="882" x2="1298" y1="365.1938" y2="365.1938"/><text fill="#000000" font-family="sans-serif" font-size="10.4" font-weight="bold" lengthAdjust="spacing" textLength="5.6" x="887.6" y="360.9836">8</text><text fill="#000000" font-family="sans-serif" font-size="10.4" lengthAdjust="spacing" textLength="244.8" x="896.4" y="360.9836">currentPhase.setStatusDescriptionAsCONCLUDED()</text><polygon fill="#181818" points="1208.4,411.0266,1216.4,414.2266,1208.4,417.4266,1211.6,414.2266" style="stroke:#181818;stroke-width:0.8000000000000002;"/><line style="stroke:#181818;stroke-width:0.8000000000000002;" x1="882" x2="1213.2" y1="414.2266" y2="414.2266"/><text fill="#000000" font-family="sans-serif" font-size="10.4" font-weight="bold" lengthAdjust="spacing" textLength="5.6" x="887.6" y="410.0164">9</text><text fill="#000000" font-family="sans-serif" font-size="10.4" lengthAdjust="spacing" textLength="88.8" x="896.4" y="410.0164">save(currentPhase)</text><polygon fill="#181818" points="1208.4,460.0594,1216.4,463.2594,1208.4,466.4594,1211.6,463.2594" style="stroke:#181818;stroke-width:0.8000000000000002;"/><line style="stroke:#181818;stroke-width:0.8000000000000002;" x1="882" x2="1213.2" y1="463.2594" y2="463.2594"/><text fill="#000000" font-family="sans-serif" font-size="10.4" font-weight="bold" lengthAdjust="spacing" textLength="11.2" x="887.6" y="459.0492">10</text><text fill="#000000" font-family="sans-serif" font-size="10.4" lengthAdjust="spacing" textLength="226.4" x="902" y="459.0492">getPhaseWithPhaseID(phaseIdOfPreviousPhase)</text><polygon fill="#181818" points="1293.2,509.0922,1301.2,512.2922,1293.2,515.4922,1296.4,512.2922" style="stroke:#181818;stroke-width:0.8000000000000002;"/><line style="stroke:#181818;stroke-width:0.8000000000000002;" x1="882" x2="1298" y1="512.2922" y2="512.2922"/><text fill="#000000" font-family="sans-serif" font-size="10.4" font-weight="bold" lengthAdjust="spacing" textLength="11.2" x="887.6" y="508.082">11</text><text fill="#000000" font-family="sans-serif" font-size="10.4" lengthAdjust="spacing" textLength="240.8" x="902" y="508.082">previousPhase.setStatusDescriptionAsON_GOING()</text><polygon fill="#181818" points="1208.4,558.125,1216.4,561.325,1208.4,564.525,1211.6,561.325" style="stroke:#181818;stroke-width:0.8000000000000002;"/><line style="stroke:#181818;stroke-width:0.8000000000000002;" x1="882" x2="1213.2" y1="561.325" y2="561.325"/><text fill="#000000" font-family="sans-serif" font-size="10.4" font-weight="bold" lengthAdjust="spacing" textLength="11.2" x="887.6" y="557.1148">12</text><text fill="#000000" font-family="sans-serif" font-size="10.4" lengthAdjust="spacing" textLength="94.4" x="902" y="557.1148">save(previousPhase)</text><polygon fill="#181818" points="547.6,607.1578,539.6,610.3578,547.6,613.5578,544.4,610.3578" style="stroke:#181818;stroke-width:0.8000000000000002;"/><line style="stroke:#181818;stroke-width:0.8000000000000002;stroke-dasharray:2.0,2.0;" x1="542.8" x2="877.2" y1="610.3578" y2="610.3578"/><text fill="#000000" font-family="sans-serif" font-size="10.4" font-weight="bold" lengthAdjust="spacing" textLength="11.2" x="552.4" y="606.1477">13</text><text fill="#000000" font-family="sans-serif" font-size="10.4" lengthAdjust="spacing" textLength="86.4" x="566.8" y="606.1477">Success message</text><polygon fill="#181818" points="206,632.1906,198,635.3906,206,638.5906,202.8,635.3906" style="stroke:#181818;stroke-width:0.8000000000000002;"/><line style="stroke:#181818;stroke-width:0.8000000000000002;stroke-dasharray:2.0,2.0;" x1="201.2" x2="530" y1="635.3906" y2="635.3906"/><text fill="#000000" font-family="sans-serif" font-size="10.4" font-weight="bold" lengthAdjust="spacing" textLength="11.2" x="210.8" y="631.1805">14</text><text fill="#000000" font-family="sans-serif" font-size="10.4" lengthAdjust="spacing" textLength="86.4" x="225.2" y="631.1805">Success message</text><line style="stroke:#181818;stroke-width:0.8000000000000002;" x1="197.2" x2="230.8" y1="660.4234" y2="660.4234"/><line style="stroke:#181818;stroke-width:0.8000000000000002;" x1="230.8" x2="230.8" y1="660.4234" y2="670.8234"/><line style="stroke:#181818;stroke-width:0.8000000000000002;" x1="198" x2="230.8" y1="670.8234" y2="670.8234"/><polygon fill="#181818" points="206,667.6234,198,670.8234,206,674.0234,202.8,670.8234" style="stroke:#181818;stroke-width:0.8000000000000002;"/><text fill="#000000" font-family="sans-serif" font-size="10.4" font-weight="bold" lengthAdjust="spacing" textLength="11.2" x="202.8" y="656.2133">15</text><text fill="#000000" font-family="sans-serif" font-size="10.4" lengthAdjust="spacing" textLength="43.2" x="217.2" y="656.2133">doShow()</text><polygon fill="#181818" points="78,692.6563,70,695.8563,78,699.0563,74.8,695.8563" style="stroke:#181818;stroke-width:0.8000000000000002;"/><line style="stroke:#181818;stroke-width:0.8000000000000002;stroke-dasharray:2.0,2.0;" x1="73.2" x2="188.4" y1="695.8563" y2="695.8563"/><text fill="#000000" font-family="sans-serif" font-size="10.4" font-weight="bold" lengthAdjust="spacing" textLength="11.2" x="82.8" y="691.6461">16</text><text fill="#000000" font-family="sans-serif" font-size="10.4" lengthAdjust="spacing" textLength="86.4" x="97.2" y="691.6461">Success message</text><!--SRC=[rLPTRzem57tFhx3wCf3Myeug99Pq2Ab0H8hsCcaopYsnI6pFTgZwxtVjy17Ij334DiqFA5pVSyxz8fTFcRNAz7izbLDXooA_OxBe6VXPWc1mctAwqhG80bfQASfY2Je8XinAJMx2qbXPW9vGGLUWRmWr99m4CTMMCwwGZjpStySQ30XBBPTYCFWkmeoA5SGPDP2W5SnYx96BSHCvL2hdx7rWA8NLCiztqa_pnoP5z3Hpq3amNN9RO1onbWoCmGiFciVur4Gbe3USGJkoojOPjcvRdkItM53r6EuCGKGjNM9-3Zu79Gt7Ghyw1f_smUH1yVmXVXDx90lAnHvIEVgMyGqMpJKe22VaTe059tqoacH9sRhcW7q821wyHYSV6Fgjm7e-q-bMrtl_geBU5W5jiLP4NYtCWAqDuS-4MyAe8AkTl7EakILJIPI63PSbXkq42KxQYzHh8WMn6TzPQQw1fgyaeqg1WBHYsCcX7kRO9ryfpqiDfC2AOzCg9yWH7pR53v6wEN8PoozuEVHo7UK-n-diEIorTbrqtp-JlJdUnkpjtGFZKQNyW1vTkUFbVAMJQwesUfIylNN7YQAsdwHQbxznc_c7STGUHBULhTMu3w8QrxDnjM6ga1ycWC6pMdnt1gnxIPGc0iCqL-ubCZJXR1e-BgA7g7DH0gtN5oLqldgZGuPkeCDETkAQtRcyOvSc-U4ODeR-Vyd-rFIgUbhlZEzi-cCq6qz7dQkbVJRFFvXoTLcZ_tJp_zRFuR29afAvlmpxBNQIusWF9wVzgnMqMz9DkSPwz3wfJ3BvKfl3rlNRoWGY3Nu1]--></g></svg>