<?xml version="1.0" encoding="us-ascii" standalone="no"?><svg xmlns="http://www.w3.org/2000/svg" xmlns:xlink="http://www.w3.org/1999/xlink" contentStyleType="text/css" height="924px" preserveAspectRatio="none" style="width:1595px;height:924px;background:#FFFFFF;" version="1.1" viewBox="0 0 1595 924" width="1595.2px" zoomAndPan="magnify"><defs/><g><text fill="#000000" font-family="sans-serif" font-size="11.2" font-weight="bold" lengthAdjust="spacing" textLength="164.8" x="714.4" y="24.0859">[US2002 - Sequence Diagram]</text><rect fill="#FFFFFF" height="720.2203" style="stroke:#181818;stroke-width:0.8000000000000002;" width="8" x="25.2" y="110.2906"/><rect fill="#FFFFFF" height="74.0656" style="stroke:#181818;stroke-width:0.8000000000000002;" width="8" x="375.6" y="128.9234"/><rect fill="#FFFFFF" height="602.4891" style="stroke:#181818;stroke-width:0.8000000000000002;" width="8" x="375.6" y="228.0219"/><rect fill="#FFFFFF" height="24" style="stroke:#181818;stroke-width:0.8000000000000002;" width="8" x="559.6" y="153.9563"/><rect fill="#FFFFFF" height="552.4234" style="stroke:#181818;stroke-width:0.8000000000000002;" width="8" x="559.6" y="253.0547"/><rect fill="#FFFFFF" height="33.8328" style="stroke:#181818;stroke-width:0.8000000000000002;" width="8" x="563.6" y="284.4875"/><rect fill="#FFFFFF" height="119.8984" style="stroke:#181818;stroke-width:0.8000000000000002;" width="8" x="765.2" y="348.9531"/><rect fill="#FFFFFF" height="33.8328" style="stroke:#181818;stroke-width:0.8000000000000002;" width="8" x="769.2" y="380.3859"/><rect fill="#FFFFFF" height="24" style="stroke:#181818;stroke-width:0.8000000000000002;" width="8" x="765.2" y="524.2336"/><rect fill="#FFFFFF" height="24" style="stroke:#181818;stroke-width:0.8000000000000002;" width="8" x="863.6" y="444.8516"/><rect fill="#FFFFFF" height="186.6625" style="stroke:#181818;stroke-width:0.8000000000000002;" width="8" x="1051.6" y="651.0484"/><rect fill="#FFFFFF" height="24" style="stroke:#181818;stroke-width:0.8000000000000002;" width="8" x="1204.8" y="781.4781"/><rect fill="#FFFFFF" height="24" style="stroke:#181818;stroke-width:0.8000000000000002;" width="8" x="1306.4" y="588.1828"/><rect fill="#FFFFFF" height="120.1313" style="stroke:#181818;stroke-width:0.8000000000000002;" width="8" x="1306.4" y="717.5797"/><rect fill="#FFFFFF" height="81.2656" style="stroke:#181818;stroke-width:0.8000000000000002;" width="8" x="1556" y="756.4453"/><rect fill="none" height="83.0984" style="stroke:#000000;stroke-width:1.2000000000000002;" width="615.2" x="474.8" y="480.8516"/><line style="stroke:#181818;stroke-width:0.4000000000000001;stroke-dasharray:5.0,5.0;" x1="28.8" x2="28.8" y1="102.2906" y2="844.9109"/><line style="stroke:#181818;stroke-width:0.4000000000000001;stroke-dasharray:5.0,5.0;" x1="379.6" x2="379.6" y1="102.2906" y2="844.9109"/><line style="stroke:#181818;stroke-width:0.4000000000000001;stroke-dasharray:5.0,5.0;" x1="563.6" x2="563.6" y1="102.2906" y2="844.9109"/><line style="stroke:#181818;stroke-width:0.4000000000000001;stroke-dasharray:5.0,5.0;" x1="768.8" x2="768.8" y1="102.2906" y2="844.9109"/><line style="stroke:#181818;stroke-width:0.4000000000000001;stroke-dasharray:5.0,5.0;" x1="867.2" x2="867.2" y1="102.2906" y2="844.9109"/><line style="stroke:#181818;stroke-width:0.4000000000000001;stroke-dasharray:5.0,5.0;" x1="1055.6" x2="1055.6" y1="102.2906" y2="844.9109"/><line style="stroke:#181818;stroke-width:0.4000000000000001;stroke-dasharray:5.0,5.0;" x1="1208.4" x2="1208.4" y1="102.2906" y2="844.9109"/><line style="stroke:#181818;stroke-width:0.4000000000000001;stroke-dasharray:5.0,5.0;" x1="1310" x2="1310" y1="102.2906" y2="844.9109"/><line style="stroke:#181818;stroke-width:0.4000000000000001;stroke-dasharray:5.0,5.0;" x1="1560" x2="1560" y1="102.2906" y2="844.9109"/><text fill="#000000" font-family="sans-serif" font-size="11.2" lengthAdjust="spacing" textLength="45.6" x="4" y="99.4797">Operator</text><ellipse cx="29.2" cy="46.1938" fill="#E3E3E3" rx="6.4" ry="6.4" style="stroke:#181818;stroke-width:0.4000000000000001;"/><path d="M29.2,52.5938 L29.2,74.1938 M18.8,58.9938 L39.6,58.9938 M29.2,74.1938 L18.8,86.1938 M29.2,74.1938 L39.6,86.1938 " fill="none" style="stroke:#181818;stroke-width:0.4000000000000001;"/><text fill="#000000" font-family="sans-serif" font-size="11.2" lengthAdjust="spacing" textLength="45.6" x="4" y="856.1969">Operator</text><ellipse cx="29.2" cy="865.8078" fill="#E3E3E3" rx="6.4" ry="6.4" style="stroke:#181818;stroke-width:0.4000000000000001;"/><path d="M29.2,872.2078 L29.2,893.8078 M18.8,878.6078 L39.6,878.6078 M29.2,893.8078 L18.8,905.8078 M29.2,893.8078 L39.6,905.8078 " fill="none" style="stroke:#181818;stroke-width:0.4000000000000001;"/><rect fill="#E3E3E3" height="40.9938" rx="2" ry="2" style="stroke:#181818;stroke-width:0.4000000000000001;" width="121.6" x="318.8" y="60.4969"/><text fill="#000000" font-family="sans-serif" font-size="11.2" lengthAdjust="spacing" textLength="76" x="341.6" y="78.1828">&#171;presentation&#187;</text><text fill="#000000" font-family="sans-serif" font-size="11.2" lengthAdjust="spacing" textLength="110.4" x="324.4" y="93.0797">:RegisterApplicationUI</text><rect fill="#E3E3E3" height="40.9938" rx="2" ry="2" style="stroke:#181818;stroke-width:0.4000000000000001;" width="121.6" x="318.8" y="844.1109"/><text fill="#000000" font-family="sans-serif" font-size="11.2" lengthAdjust="spacing" textLength="76" x="341.6" y="861.7969">&#171;presentation&#187;</text><text fill="#000000" font-family="sans-serif" font-size="11.2" lengthAdjust="spacing" textLength="110.4" x="324.4" y="876.6938">:RegisterApplicationUI</text><rect fill="#E3E3E3" height="40.9938" rx="2" ry="2" style="stroke:#181818;stroke-width:0.4000000000000001;" width="161.6" x="482.8" y="60.4969"/><text fill="#000000" font-family="sans-serif" font-size="11.2" lengthAdjust="spacing" textLength="67.2" x="530" y="78.1828">&#171;application&#187;</text><text fill="#000000" font-family="sans-serif" font-size="11.2" lengthAdjust="spacing" textLength="150.4" x="488.4" y="93.0797">:RegisterApplicationController</text><rect fill="#E3E3E3" height="40.9938" rx="2" ry="2" style="stroke:#181818;stroke-width:0.4000000000000001;" width="161.6" x="482.8" y="844.1109"/><text fill="#000000" font-family="sans-serif" font-size="11.2" lengthAdjust="spacing" textLength="67.2" x="530" y="861.7969">&#171;application&#187;</text><text fill="#000000" font-family="sans-serif" font-size="11.2" lengthAdjust="spacing" textLength="150.4" x="488.4" y="876.6938">:RegisterApplicationController</text><rect fill="#E3E3E3" height="40.9938" rx="2" ry="2" style="stroke:#181818;stroke-width:0.4000000000000001;" width="66.4" x="736" y="60.4969"/><text fill="#000000" font-family="sans-serif" font-size="11.2" lengthAdjust="spacing" textLength="49.6" x="744.4" y="78.1828">&#171;domain&#187;</text><text fill="#000000" font-family="sans-serif" font-size="11.2" lengthAdjust="spacing" textLength="55.2" x="741.6" y="93.0797">:Candidate</text><rect fill="#E3E3E3" height="40.9938" rx="2" ry="2" style="stroke:#181818;stroke-width:0.4000000000000001;" width="66.4" x="736" y="844.1109"/><text fill="#000000" font-family="sans-serif" font-size="11.2" lengthAdjust="spacing" textLength="49.6" x="744.4" y="861.7969">&#171;domain&#187;</text><text fill="#000000" font-family="sans-serif" font-size="11.2" lengthAdjust="spacing" textLength="55.2" x="741.6" y="876.6938">:Candidate</text><text fill="#000000" font-family="sans-serif" font-size="11.2" lengthAdjust="spacing" textLength="63.2" x="833.6" y="84.5828">&#171;repository&#187;</text><text fill="#000000" font-family="sans-serif" font-size="11.2" lengthAdjust="spacing" textLength="109.6" x="810.4" y="99.4797">:CandidateRepository</text><path d="M853.2,43.6969 C853.2,35.6969 867.6,35.6969 867.6,35.6969 C867.6,35.6969 882,35.6969 882,43.6969 L882,64.4969 C882,72.4969 867.6,72.4969 867.6,72.4969 C867.6,72.4969 853.2,72.4969 853.2,64.4969 L853.2,43.6969 " fill="#E3E3E3" style="stroke:#181818;stroke-width:1.2000000000000002;"/><path d="M853.2,43.6969 C853.2,51.6969 867.6,51.6969 867.6,51.6969 C867.6,51.6969 882,51.6969 882,43.6969 " fill="none" style="stroke:#181818;stroke-width:1.2000000000000002;"/><text fill="#000000" font-family="sans-serif" font-size="11.2" lengthAdjust="spacing" textLength="63.2" x="833.6" y="856.1969">&#171;repository&#187;</text><text fill="#000000" font-family="sans-serif" font-size="11.2" lengthAdjust="spacing" textLength="109.6" x="810.4" y="871.0938">:CandidateRepository</text><path d="M853.2,881.9047 C853.2,873.9047 867.6,873.9047 867.6,873.9047 C867.6,873.9047 882,873.9047 882,881.9047 L882,902.7047 C882,910.7047 867.6,910.7047 867.6,910.7047 C867.6,910.7047 853.2,910.7047 853.2,902.7047 L853.2,881.9047 " fill="#E3E3E3" style="stroke:#181818;stroke-width:1.2000000000000002;"/><path d="M853.2,881.9047 C853.2,889.9047 867.6,889.9047 867.6,889.9047 C867.6,889.9047 882,889.9047 882,881.9047 " fill="none" style="stroke:#181818;stroke-width:1.2000000000000002;"/><rect fill="#E3E3E3" height="40.9938" rx="2" ry="2" style="stroke:#181818;stroke-width:0.4000000000000001;" width="172.8" x="969.2" y="60.4969"/><text fill="#000000" font-family="sans-serif" font-size="11.2" lengthAdjust="spacing" textLength="48.8" x="1031.2" y="78.1828">&#171;service&#187;</text><text fill="#000000" font-family="sans-serif" font-size="11.2" lengthAdjust="spacing" textLength="161.6" x="974.8" y="93.0797">:ApplicationManagementService</text><rect fill="#E3E3E3" height="40.9938" rx="2" ry="2" style="stroke:#181818;stroke-width:0.4000000000000001;" width="172.8" x="969.2" y="844.1109"/><text fill="#000000" font-family="sans-serif" font-size="11.2" lengthAdjust="spacing" textLength="48.8" x="1031.2" y="861.7969">&#171;service&#187;</text><text fill="#000000" font-family="sans-serif" font-size="11.2" lengthAdjust="spacing" textLength="161.6" x="974.8" y="876.6938">:ApplicationManagementService</text><text fill="#000000" font-family="sans-serif" font-size="11.2" lengthAdjust="spacing" textLength="63.2" x="1174.8" y="84.5828">&#171;repository&#187;</text><text fill="#000000" font-family="sans-serif" font-size="11.2" lengthAdjust="spacing" textLength="112.8" x="1150" y="99.4797">:ApplicationRepository</text><path d="M1194.4,43.6969 C1194.4,35.6969 1208.8,35.6969 1208.8,35.6969 C1208.8,35.6969 1223.2,35.6969 1223.2,43.6969 L1223.2,64.4969 C1223.2,72.4969 1208.8,72.4969 1208.8,72.4969 C1208.8,72.4969 1194.4,72.4969 1194.4,64.4969 L1194.4,43.6969 " fill="#E3E3E3" style="stroke:#181818;stroke-width:1.2000000000000002;"/><path d="M1194.4,43.6969 C1194.4,51.6969 1208.8,51.6969 1208.8,51.6969 C1208.8,51.6969 1223.2,51.6969 1223.2,43.6969 " fill="none" style="stroke:#181818;stroke-width:1.2000000000000002;"/><text fill="#000000" font-family="sans-serif" font-size="11.2" lengthAdjust="spacing" textLength="63.2" x="1174.8" y="856.1969">&#171;repository&#187;</text><text fill="#000000" font-family="sans-serif" font-size="11.2" lengthAdjust="spacing" textLength="112.8" x="1150" y="871.0938">:ApplicationRepository</text><path d="M1194.4,881.9047 C1194.4,873.9047 1208.8,873.9047 1208.8,873.9047 C1208.8,873.9047 1223.2,873.9047 1223.2,881.9047 L1223.2,902.7047 C1223.2,910.7047 1208.8,910.7047 1208.8,910.7047 C1208.8,910.7047 1194.4,910.7047 1194.4,902.7047 L1194.4,881.9047 " fill="#E3E3E3" style="stroke:#181818;stroke-width:1.2000000000000002;"/><path d="M1194.4,881.9047 C1194.4,889.9047 1208.8,889.9047 1208.8,889.9047 C1208.8,889.9047 1223.2,889.9047 1223.2,881.9047 " fill="none" style="stroke:#181818;stroke-width:1.2000000000000002;"/><rect fill="#E3E3E3" height="40.9938" rx="2" ry="2" style="stroke:#181818;stroke-width:0.4000000000000001;" width="69.6" x="1275.6" y="60.4969"/><text fill="#000000" font-family="sans-serif" font-size="11.2" lengthAdjust="spacing" textLength="49.6" x="1285.6" y="78.1828">&#171;domain&#187;</text><text fill="#000000" font-family="sans-serif" font-size="11.2" lengthAdjust="spacing" textLength="58.4" x="1281.2" y="93.0797">:Application</text><rect fill="#E3E3E3" height="40.9938" rx="2" ry="2" style="stroke:#181818;stroke-width:0.4000000000000001;" width="69.6" x="1275.6" y="844.1109"/><text fill="#000000" font-family="sans-serif" font-size="11.2" lengthAdjust="spacing" textLength="49.6" x="1285.6" y="861.7969">&#171;domain&#187;</text><text fill="#000000" font-family="sans-serif" font-size="11.2" lengthAdjust="spacing" textLength="58.4" x="1281.2" y="876.6938">:Application</text><rect fill="#E3E3E3" height="40.9938" rx="2" ry="2" style="stroke:#181818;stroke-width:0.4000000000000001;" width="60.8" x="1529.6" y="60.4969"/><text fill="#000000" font-family="sans-serif" font-size="11.2" lengthAdjust="spacing" textLength="49.6" x="1535.2" y="78.1828">&#171;domain&#187;</text><text fill="#000000" font-family="sans-serif" font-size="11.2" lengthAdjust="spacing" textLength="47.2" x="1536.4" y="93.0797">:Interview</text><rect fill="#E3E3E3" height="40.9938" rx="2" ry="2" style="stroke:#181818;stroke-width:0.4000000000000001;" width="60.8" x="1529.6" y="844.1109"/><text fill="#000000" font-family="sans-serif" font-size="11.2" lengthAdjust="spacing" textLength="49.6" x="1535.2" y="861.7969">&#171;domain&#187;</text><text fill="#000000" font-family="sans-serif" font-size="11.2" lengthAdjust="spacing" textLength="47.2" x="1536.4" y="876.6938">:Interview</text><rect fill="#FFFFFF" height="720.2203" style="stroke:#181818;stroke-width:0.8000000000000002;" width="8" x="25.2" y="110.2906"/><rect fill="#FFFFFF" height="74.0656" style="stroke:#181818;stroke-width:0.8000000000000002;" width="8" x="375.6" y="128.9234"/><rect fill="#FFFFFF" height="602.4891" style="stroke:#181818;stroke-width:0.8000000000000002;" width="8" x="375.6" y="228.0219"/><rect fill="#FFFFFF" height="24" style="stroke:#181818;stroke-width:0.8000000000000002;" width="8" x="559.6" y="153.9563"/><rect fill="#FFFFFF" height="552.4234" style="stroke:#181818;stroke-width:0.8000000000000002;" width="8" x="559.6" y="253.0547"/><rect fill="#FFFFFF" height="33.8328" style="stroke:#181818;stroke-width:0.8000000000000002;" width="8" x="563.6" y="284.4875"/><rect fill="#FFFFFF" height="119.8984" style="stroke:#181818;stroke-width:0.8000000000000002;" width="8" x="765.2" y="348.9531"/><rect fill="#FFFFFF" height="33.8328" style="stroke:#181818;stroke-width:0.8000000000000002;" width="8" x="769.2" y="380.3859"/><rect fill="#FFFFFF" height="24" style="stroke:#181818;stroke-width:0.8000000000000002;" width="8" x="765.2" y="524.2336"/><rect fill="#FFFFFF" height="24" style="stroke:#181818;stroke-width:0.8000000000000002;" width="8" x="863.6" y="444.8516"/><rect fill="#FFFFFF" height="186.6625" style="stroke:#181818;stroke-width:0.8000000000000002;" width="8" x="1051.6" y="651.0484"/><rect fill="#FFFFFF" height="24" style="stroke:#181818;stroke-width:0.8000000000000002;" width="8" x="1204.8" y="781.4781"/><rect fill="#FFFFFF" height="24" style="stroke:#181818;stroke-width:0.8000000000000002;" width="8" x="1306.4" y="588.1828"/><rect fill="#FFFFFF" height="120.1313" style="stroke:#181818;stroke-width:0.8000000000000002;" width="8" x="1306.4" y="717.5797"/><rect fill="#FFFFFF" height="81.2656" style="stroke:#181818;stroke-width:0.8000000000000002;" width="8" x="1556" y="756.4453"/><polygon fill="#181818" points="366,125.7234,374,128.9234,366,132.1234,369.2,128.9234" style="stroke:#181818;stroke-width:0.8000000000000002;"/><line style="stroke:#181818;stroke-width:0.8000000000000002;" x1="33.2" x2="370.8" y1="128.9234" y2="128.9234"/><text fill="#000000" font-family="sans-serif" font-size="10.4" font-weight="bold" lengthAdjust="spacing" textLength="5.6" x="38.8" y="124.7133">1</text><text fill="#000000" font-family="sans-serif" font-size="10.4" lengthAdjust="spacing" textLength="139.2" x="47.6" y="124.7133">asks to register an application</text><polygon fill="#181818" points="550,150.7563,558,153.9563,550,157.1563,553.2,153.9563" style="stroke:#181818;stroke-width:0.8000000000000002;"/><line style="stroke:#181818;stroke-width:0.8000000000000002;" x1="383.6" x2="554.8" y1="153.9563" y2="153.9563"/><text fill="#000000" font-family="sans-serif" font-size="10.4" font-weight="bold" lengthAdjust="spacing" textLength="5.6" x="389.2" y="149.7461">2</text><text fill="#000000" font-family="sans-serif" font-size="10.4" lengthAdjust="spacing" textLength="35.2" x="398" y="149.7461">create()</text><polygon fill="#181818" points="42,199.7891,34,202.9891,42,206.1891,38.8,202.9891" style="stroke:#181818;stroke-width:0.8000000000000002;"/><line style="stroke:#181818;stroke-width:0.8000000000000002;stroke-dasharray:2.0,2.0;" x1="37.2" x2="378.8" y1="202.9891" y2="202.9891"/><text fill="#000000" font-family="sans-serif" font-size="10.4" font-weight="bold" lengthAdjust="spacing" textLength="5.6" x="46.8" y="198.7789">3</text><text fill="#000000" font-family="sans-serif" font-size="10.4" lengthAdjust="spacing" textLength="314.4" x="55.6" y="198.7789">asks for the shared folder where the files used for the application are</text><polygon fill="#181818" points="366,224.8219,374,228.0219,366,231.2219,369.2,228.0219" style="stroke:#181818;stroke-width:0.8000000000000002;"/><line style="stroke:#181818;stroke-width:0.8000000000000002;" x1="33.2" x2="370.8" y1="228.0219" y2="228.0219"/><text fill="#000000" font-family="sans-serif" font-size="10.4" font-weight="bold" lengthAdjust="spacing" textLength="5.6" x="38.8" y="223.8117">4</text><text fill="#000000" font-family="sans-serif" font-size="10.4" lengthAdjust="spacing" textLength="113.6" x="47.6" y="223.8117">selects the shared folder</text><polygon fill="#181818" points="550,249.8547,558,253.0547,550,256.2547,553.2,253.0547" style="stroke:#181818;stroke-width:0.8000000000000002;"/><line style="stroke:#181818;stroke-width:0.8000000000000002;" x1="383.6" x2="554.8" y1="253.0547" y2="253.0547"/><text fill="#000000" font-family="sans-serif" font-size="10.4" font-weight="bold" lengthAdjust="spacing" textLength="5.6" x="389.2" y="248.8445">5</text><text fill="#000000" font-family="sans-serif" font-size="10.4" lengthAdjust="spacing" textLength="152" x="398" y="248.8445">registerApplication(sharedFolder)</text><line style="stroke:#181818;stroke-width:0.8000000000000002;" x1="567.6" x2="605.2" y1="274.0875" y2="274.0875"/><line style="stroke:#181818;stroke-width:0.8000000000000002;" x1="605.2" x2="605.2" y1="274.0875" y2="284.4875"/><line style="stroke:#181818;stroke-width:0.8000000000000002;" x1="572.4" x2="605.2" y1="284.4875" y2="284.4875"/><polygon fill="#181818" points="580.4,281.2875,572.4,284.4875,580.4,287.6875,577.2,284.4875" style="stroke:#181818;stroke-width:0.8000000000000002;"/><text fill="#000000" font-family="sans-serif" font-size="10.4" font-weight="bold" lengthAdjust="spacing" textLength="5.6" x="577.2" y="269.8773">6</text><text fill="#000000" font-family="sans-serif" font-size="10.4" lengthAdjust="spacing" textLength="97.6" x="586" y="269.8773">getFiles(shareFolder)</text><line style="stroke:#181818;stroke-width:0.8000000000000002;stroke-dasharray:2.0,2.0;" x1="571.6" x2="605.2" y1="317.5203" y2="317.5203"/><line style="stroke:#181818;stroke-width:0.8000000000000002;stroke-dasharray:2.0,2.0;" x1="605.2" x2="605.2" y1="317.5203" y2="327.9203"/><line style="stroke:#181818;stroke-width:0.8000000000000002;stroke-dasharray:2.0,2.0;" x1="567.6" x2="605.2" y1="327.9203" y2="327.9203"/><polygon fill="#181818" points="575.6,324.7203,567.6,327.9203,575.6,331.1203,572.4,327.9203" style="stroke:#181818;stroke-width:0.8000000000000002;"/><text fill="#000000" font-family="sans-serif" font-size="10.4" font-weight="bold" lengthAdjust="spacing" textLength="5.6" x="577.2" y="313.3102">7</text><text fill="#000000" font-family="sans-serif" font-size="10.4" lengthAdjust="spacing" textLength="18.4" x="586" y="313.3102">files</text><polygon fill="#181818" points="755.6,345.7531,763.6,348.9531,755.6,352.1531,758.8,348.9531" style="stroke:#181818;stroke-width:0.8000000000000002;"/><line style="stroke:#181818;stroke-width:0.8000000000000002;" x1="567.6" x2="760.4" y1="348.9531" y2="348.9531"/><text fill="#000000" font-family="sans-serif" font-size="10.4" font-weight="bold" lengthAdjust="spacing" textLength="5.6" x="573.2" y="344.743">8</text><text fill="#000000" font-family="sans-serif" font-size="10.4" lengthAdjust="spacing" textLength="140" x="582" y="344.743">checkCandidateExistence(file)</text><line style="stroke:#181818;stroke-width:0.8000000000000002;" x1="773.2" x2="810.8" y1="369.9859" y2="369.9859"/><line style="stroke:#181818;stroke-width:0.8000000000000002;" x1="810.8" x2="810.8" y1="369.9859" y2="380.3859"/><line style="stroke:#181818;stroke-width:0.8000000000000002;" x1="778" x2="810.8" y1="380.3859" y2="380.3859"/><polygon fill="#181818" points="786,377.1859,778,380.3859,786,383.5859,782.8,380.3859" style="stroke:#181818;stroke-width:0.8000000000000002;"/><text fill="#000000" font-family="sans-serif" font-size="10.4" font-weight="bold" lengthAdjust="spacing" textLength="5.6" x="782.8" y="365.7758">9</text><text fill="#000000" font-family="sans-serif" font-size="10.4" lengthAdjust="spacing" textLength="60" x="791.6" y="365.7758">getEmail(file)</text><line style="stroke:#181818;stroke-width:0.8000000000000002;stroke-dasharray:2.0,2.0;" x1="777.2" x2="810.8" y1="413.4188" y2="413.4188"/><line style="stroke:#181818;stroke-width:0.8000000000000002;stroke-dasharray:2.0,2.0;" x1="810.8" x2="810.8" y1="413.4188" y2="423.8188"/><line style="stroke:#181818;stroke-width:0.8000000000000002;stroke-dasharray:2.0,2.0;" x1="773.2" x2="810.8" y1="423.8188" y2="423.8188"/><polygon fill="#181818" points="781.2,420.6188,773.2,423.8188,781.2,427.0188,778,423.8188" style="stroke:#181818;stroke-width:0.8000000000000002;"/><text fill="#000000" font-family="sans-serif" font-size="10.4" font-weight="bold" lengthAdjust="spacing" textLength="11.2" x="782.8" y="409.2086">10</text><text fill="#000000" font-family="sans-serif" font-size="10.4" lengthAdjust="spacing" textLength="24.8" x="797.2" y="409.2086">email</text><polygon fill="#181818" points="854,441.6516,862,444.8516,854,448.0516,857.2,444.8516" style="stroke:#181818;stroke-width:0.8000000000000002;"/><line style="stroke:#181818;stroke-width:0.8000000000000002;" x1="773.2" x2="858.8" y1="444.8516" y2="444.8516"/><text fill="#000000" font-family="sans-serif" font-size="10.4" font-weight="bold" lengthAdjust="spacing" textLength="11.2" x="778.8" y="440.6414">11</text><text fill="#000000" font-family="sans-serif" font-size="10.4" lengthAdjust="spacing" textLength="47.2" x="793.2" y="440.6414">find(email)</text><path d="M474.8,480.8516 L523.6,480.8516 L523.6,488.2844 L515.6,496.2844 L474.8,496.2844 L474.8,480.8516 " fill="#EEEEEE" style="stroke:#000000;stroke-width:1.2000000000000002;"/><rect fill="none" height="83.0984" style="stroke:#000000;stroke-width:1.2000000000000002;" width="615.2" x="474.8" y="480.8516"/><text fill="#000000" font-family="sans-serif" font-size="10.4" font-weight="bold" lengthAdjust="spacing" textLength="12.8" x="486.8" y="492.8742">alt</text><text fill="#000000" font-family="sans-serif" font-size="8.8" font-weight="bold" lengthAdjust="spacing" textLength="84.8" x="535.6" y="491.9477">[candidate == false]</text><polygon fill="#181818" points="755.6,521.0336,763.6,524.2336,755.6,527.4336,758.8,524.2336" style="stroke:#181818;stroke-width:0.8000000000000002;"/><line style="stroke:#181818;stroke-width:0.8000000000000002;" x1="567.6" x2="760.4" y1="524.2336" y2="524.2336"/><text fill="#000000" font-family="sans-serif" font-size="10.4" font-weight="bold" lengthAdjust="spacing" textLength="11.2" x="573.2" y="520.0234">12</text><text fill="#000000" font-family="sans-serif" font-size="10.4" lengthAdjust="spacing" textLength="168" x="587.6" y="520.0234">register(name, email, phoneNumber)</text><path d="M776.8,500.2844 L776.8,535.4844 L1081.6,535.4844 L1081.6,508.2844 L1073.6,500.2844 L776.8,500.2844 " fill="#FAFAFA" style="stroke:#181818;stroke-width:0.4000000000000001;"/><path d="M1073.6,500.2844 L1073.6,508.2844 L1081.6,508.2844 L1073.6,500.2844 " fill="#FAFAFA" style="stroke:#181818;stroke-width:0.4000000000000001;"/><text fill="#000000" font-family="sans-serif" font-size="10.4" lengthAdjust="spacing" textLength="288" x="781.6" y="515.507">The controller of the US2000a will be called, since the process</text><text fill="#000000" font-family="sans-serif" font-size="10.4" lengthAdjust="spacing" textLength="168.8" x="784.8" y="529.3398">of register the candidate is the same</text><polygon fill="#181818" points="1296.8,584.9828,1304.8,588.1828,1296.8,591.3828,1300,588.1828" style="stroke:#181818;stroke-width:0.8000000000000002;"/><line style="stroke:#181818;stroke-width:0.8000000000000002;" x1="567.6" x2="1301.6" y1="588.1828" y2="588.1828"/><text fill="#000000" font-family="sans-serif" font-size="10.4" font-weight="bold" lengthAdjust="spacing" textLength="11.2" x="573.2" y="583.9727">13</text><text fill="#000000" font-family="sans-serif" font-size="10.4" lengthAdjust="spacing" textLength="124.8" x="587.6" y="583.9727">getInformationFromFile(file)</text><polygon fill="#181818" points="1042,647.8484,1050,651.0484,1042,654.2484,1045.2,651.0484" style="stroke:#181818;stroke-width:0.8000000000000002;"/><line style="stroke:#181818;stroke-width:0.8000000000000002;" x1="567.6" x2="1046.8" y1="651.0484" y2="651.0484"/><text fill="#000000" font-family="sans-serif" font-size="10.4" font-weight="bold" lengthAdjust="spacing" textLength="11.2" x="573.2" y="639.9219">14</text><text fill="#000000" font-family="sans-serif" font-size="10.4" lengthAdjust="spacing" textLength="454.4" x="587.6" y="633.0055">registerApplication(applicationDate, applicationStatus, requirementAnswer, requirementResult, file,</text><text fill="#000000" font-family="sans-serif" font-size="10.4" lengthAdjust="spacing" textLength="377.6" x="590.8" y="646.8383">interview, schedule, interviewResult, interviewGrade, interviewAnswer, justification)</text><polygon fill="#181818" points="1296.8,714.3797,1304.8,717.5797,1296.8,720.7797,1300,717.5797" style="stroke:#181818;stroke-width:0.8000000000000002;"/><line style="stroke:#181818;stroke-width:0.8000000000000002;" x1="1059.6" x2="1301.6" y1="717.5797" y2="717.5797"/><text fill="#000000" font-family="sans-serif" font-size="10.4" font-weight="bold" lengthAdjust="spacing" textLength="11.2" x="1065.2" y="692.6203">15</text><text fill="#000000" font-family="sans-serif" font-size="10.4" lengthAdjust="spacing" textLength="192.8" x="1079.6" y="671.8711">create(applicationDate, applicationStatus,</text><text fill="#000000" font-family="sans-serif" font-size="10.4" lengthAdjust="spacing" textLength="201.6" x="1082.8" y="685.7039">requirementAnswer, requirementResult, file,</text><text fill="#000000" font-family="sans-serif" font-size="10.4" lengthAdjust="spacing" textLength="165.6" x="1082.8" y="699.5367">interview, schedule, interviewResult,</text><text fill="#000000" font-family="sans-serif" font-size="10.4" lengthAdjust="spacing" textLength="208.8" x="1082.8" y="713.3695">interviewGrade, interviewAnswer, justification)</text><polygon fill="#181818" points="1546.4,753.2453,1554.4,756.4453,1546.4,759.6453,1549.6,756.4453" style="stroke:#181818;stroke-width:0.8000000000000002;"/><line style="stroke:#181818;stroke-width:0.8000000000000002;" x1="1314.4" x2="1551.2" y1="756.4453" y2="756.4453"/><text fill="#000000" font-family="sans-serif" font-size="10.4" font-weight="bold" lengthAdjust="spacing" textLength="11.2" x="1320" y="745.3188">16</text><text fill="#000000" font-family="sans-serif" font-size="10.4" lengthAdjust="spacing" textLength="152" x="1334.4" y="738.4023">create(schedule, interviewResult,</text><text fill="#000000" font-family="sans-serif" font-size="10.4" lengthAdjust="spacing" textLength="208.8" x="1337.6" y="752.2352">interviewGrade, interviewAnswer, justification)</text><polygon fill="#181818" points="1195.2,778.2781,1203.2,781.4781,1195.2,784.6781,1198.4,781.4781" style="stroke:#181818;stroke-width:0.8000000000000002;"/><line style="stroke:#181818;stroke-width:0.8000000000000002;" x1="1059.6" x2="1200" y1="781.4781" y2="781.4781"/><text fill="#000000" font-family="sans-serif" font-size="10.4" font-weight="bold" lengthAdjust="spacing" textLength="11.2" x="1065.2" y="777.268">17</text><text fill="#000000" font-family="sans-serif" font-size="10.4" lengthAdjust="spacing" textLength="76.8" x="1079.6" y="777.268">save(application)</text><polygon fill="#181818" points="38,827.3109,30,830.5109,38,833.7109,34.8,830.5109" style="stroke:#181818;stroke-width:0.8000000000000002;"/><line style="stroke:#181818;stroke-width:0.8000000000000002;stroke-dasharray:2.0,2.0;" x1="33.2" x2="378.8" y1="830.5109" y2="830.5109"/><text fill="#000000" font-family="sans-serif" font-size="10.4" font-weight="bold" lengthAdjust="spacing" textLength="11.2" x="42.8" y="826.3008">18</text><text fill="#000000" font-family="sans-serif" font-size="10.4" lengthAdjust="spacing" textLength="117.6" x="57.2" y="826.3008">shows operation success</text><!--SRC=[rLPBJ-Cm4BxxLrXSMgGW8Ou8a12FLQNT1RLmMZYOP9fuczZ1TkZoxtViDB7pQ40hSTXBrKpccvbldj4RBagcM44BAMISALa0DQe2ejit9OitB8MLUS-1AeWD4saUAkYC9NBBHKhNBDT02AkC55Nn0eeGmmt2VZskJewFJ-WHNS5h1I86UirPYkXdL8-DLFJWhWJ5yDy1PPhUtHCqRdZCIoOCFJWxAnLe48OPBiN5nPCuNKBAjG5rMPOvZvtySU70Zui-c7cTVTWhAOoIUGvr05SFo-zzAuai6AyDN36Hy8GPg9MR9u8_x8LfiEeAIgavCdhlGfQjl0lsyhvZ3UgDn-3C127_O08BKs1MLhM2iuSA_iLKG86bNaYZRoQo4UZtyHEeXJ0sRDWwJFla6eA_OK9i5v2xUtfqWIMbfwYrqTH8RCAwUfG96bJMux01228GPyk8o5W1okU7WMrNu0Iwpmw5C7IwSxV6rZGPs2PNaE1Zdg3ZRGOAd7pDSz2qqkvThHg4H14KEh611OGqv3XFUkXWWeeQjkwynjuww66F8d4uZq_1tDgOQz0aneCSos6sMjDD2zjKPn1lMi7D7niipllScWZzj2D3PXxUixNc8fa3Dan-I6PZqBr8P7bZSHDk0smFx3nss7xaqKz9B-gXYM2W0kQ1WNuqiLyky5bp4qPcuxp6fImt7ahFpviDFrhvfZFdWXKGrLcCQ9b90J_TDHYjmxZZcMiZd3DcxCINbQ5kvEoCjUDlnyP7Xt-S16SHxuwGA58ypSmfVR1wxNgdSktqt4awPdJByvo-M4luDecevlOyMOrIoHYqVX8MiiShtqqlKiQq0CQ0EIE3fjwjeO-gqAGr6EwwcHS2cHTES8j7savmlxN3fTkfP-T5uC5VYJrh9LXarsWe2ZVR2YznfIF4lLPSEIkNGcz1TKHBq5Lk8hS_8imZRvOyfXahd5Gezi96knLyKom95HeFlojj-7eNIJS5mUaZNOw3jEwEmYTOOkHVm3FK-mUclgOXBMJPNbBFyMk224xsLAexor6pjqxAnpa5MssyaJjhhyT_d-l_iDwpZxYJuL7kVCFeJ6urbUxJsgP7Lx5TQVrlal3PVdIHlm00]--></g></svg>