<?xml version="1.0" encoding="us-ascii" standalone="no"?><svg xmlns="http://www.w3.org/2000/svg" xmlns:xlink="http://www.w3.org/1999/xlink" contentStyleType="text/css" height="1356px" preserveAspectRatio="none" style="width:2342px;height:1356px;background:#FFFFFF;" version="1.1" viewBox="0 0 2342 1356" width="2342px" zoomAndPan="magnify"><defs/><g><text fill="#000000" font-family="sans-serif" font-size="14" font-weight="bold" lengthAdjust="spacing" textLength="206" x="1067.25" y="30.1074">[US2002 - Sequence Diagram]</text><rect fill="#FFFFFF" height="1101.7305" style="stroke:#181818;stroke-width:1.0;" width="10" x="31.5" y="137.8633"/><rect fill="#FFFFFF" height="92.582" style="stroke:#181818;stroke-width:1.0;" width="10" x="469.5" y="161.1543"/><rect fill="#FFFFFF" height="31.291" style="stroke:#181818;stroke-width:1.0;" width="10" x="469.5" y="285.0273"/><rect fill="#FFFFFF" height="891.9844" style="stroke:#181818;stroke-width:1.0;" width="10" x="469.5" y="347.6094"/><rect fill="#FFFFFF" height="30" style="stroke:#181818;stroke-width:1.0;" width="10" x="772.5" y="192.4453"/><rect fill="#FFFFFF" height="829.4023" style="stroke:#181818;stroke-width:1.0;" width="10" x="772.5" y="378.9004"/><rect fill="#FFFFFF" height="42.291" style="stroke:#181818;stroke-width:1.0;" width="10" x="777.5" y="418.1914"/><rect fill="#FFFFFF" height="104.873" style="stroke:#181818;stroke-width:1.0;" width="10" x="777.5" y="506.7734"/><rect fill="#FFFFFF" height="30" style="stroke:#181818;stroke-width:1.0;" width="10" x="1191.5" y="1135.3662"/><rect fill="#FFFFFF" height="31.291" style="stroke:#181818;stroke-width:1.0;" width="10" x="1494" y="1061.1387"/><rect fill="#FFFFFF" height="30" style="stroke:#181818;stroke-width:1.0;" width="10" x="1657" y="687.874"/><rect fill="#FFFFFF" height="31.291" style="stroke:#181818;stroke-width:1.0;" width="10" x="1780" y="543.0645"/><rect fill="#FFFFFF" height="31.291" style="stroke:#181818;stroke-width:1.0;" width="10" x="1780" y="812.1016"/><rect fill="#FFFFFF" height="155.1641" style="stroke:#181818;stroke-width:1.0;" width="10" x="1969.5" y="874.6836"/><rect fill="#FFFFFF" height="31.291" style="stroke:#181818;stroke-width:1.0;" width="10" x="2161" y="967.2656"/><rect fill="#FFFFFF" height="30" style="stroke:#181818;stroke-width:1.0;" width="10" x="2288" y="905.9746"/><rect fill="none" height="103.873" style="stroke:#000000;stroke-width:1.5;" width="1429.5" x="628.5" y="633.6465"/><line style="stroke:#181818;stroke-width:0.5;stroke-dasharray:5.0,5.0;" x1="36" x2="36" y1="127.8633" y2="1257.5938"/><line style="stroke:#181818;stroke-width:0.5;stroke-dasharray:5.0,5.0;" x1="474.5" x2="474.5" y1="127.8633" y2="1257.5938"/><line style="stroke:#181818;stroke-width:0.5;stroke-dasharray:5.0,5.0;" x1="777.5" x2="777.5" y1="127.8633" y2="1257.5938"/><line style="stroke:#181818;stroke-width:0.5;stroke-dasharray:5.0,5.0;" x1="1196.5" x2="1196.5" y1="127.8633" y2="1257.5938"/><line style="stroke:#181818;stroke-width:0.5;stroke-dasharray:5.0,5.0;" x1="1330.5" x2="1330.5" y1="127.8633" y2="1257.5938"/><line style="stroke:#181818;stroke-width:0.5;stroke-dasharray:5.0,5.0;" x1="1498.5" x2="1498.5" y1="127.8633" y2="1257.5938"/><line style="stroke:#181818;stroke-width:0.5;stroke-dasharray:5.0,5.0;" x1="1661.5" x2="1661.5" y1="127.8633" y2="1257.5938"/><line style="stroke:#181818;stroke-width:0.5;stroke-dasharray:5.0,5.0;" x1="1784.5" x2="1784.5" y1="127.8633" y2="1257.5938"/><line style="stroke:#181818;stroke-width:0.5;stroke-dasharray:5.0,5.0;" x1="1974.5" x2="1974.5" y1="127.8633" y2="1257.5938"/><line style="stroke:#181818;stroke-width:0.5;stroke-dasharray:5.0,5.0;" x1="2165.5" x2="2165.5" y1="127.8633" y2="1257.5938"/><line style="stroke:#181818;stroke-width:0.5;stroke-dasharray:5.0,5.0;" x1="2292.5" x2="2292.5" y1="127.8633" y2="1257.5938"/><text fill="#000000" font-family="sans-serif" font-size="14" lengthAdjust="spacing" textLength="57" x="5" y="124.3496">Operator</text><ellipse cx="36.5" cy="57.7422" fill="#E3E3E3" rx="8" ry="8" style="stroke:#181818;stroke-width:0.5;"/><path d="M36.5,65.7422 L36.5,92.7422 M23.5,73.7422 L49.5,73.7422 M36.5,92.7422 L23.5,107.7422 M36.5,92.7422 L49.5,107.7422 " fill="none" style="stroke:#181818;stroke-width:0.5;"/><text fill="#000000" font-family="sans-serif" font-size="14" lengthAdjust="spacing" textLength="57" x="5" y="1271.7012">Operator</text><ellipse cx="36.5" cy="1283.7148" fill="#E3E3E3" rx="8" ry="8" style="stroke:#181818;stroke-width:0.5;"/><path d="M36.5,1291.7148 L36.5,1318.7148 M23.5,1299.7148 L49.5,1299.7148 M36.5,1318.7148 L23.5,1333.7148 M36.5,1318.7148 L49.5,1333.7148 " fill="none" style="stroke:#181818;stroke-width:0.5;"/><rect fill="#E3E3E3" height="51.2422" rx="2.5" ry="2.5" style="stroke:#181818;stroke-width:0.5;" width="228" x="360.5" y="75.6211"/><text fill="#000000" font-family="sans-serif" font-size="14" lengthAdjust="spacing" textLength="95" x="427" y="97.7285">&#171;presentation&#187;</text><text fill="#000000" font-family="sans-serif" font-size="14" lengthAdjust="spacing" textLength="214" x="367.5" y="116.3496">:RegisterJobOpeningApplicationUI</text><rect fill="#E3E3E3" height="51.2422" rx="2.5" ry="2.5" style="stroke:#181818;stroke-width:0.5;" width="228" x="360.5" y="1256.5938"/><text fill="#000000" font-family="sans-serif" font-size="14" lengthAdjust="spacing" textLength="95" x="427" y="1278.7012">&#171;presentation&#187;</text><text fill="#000000" font-family="sans-serif" font-size="14" lengthAdjust="spacing" textLength="214" x="367.5" y="1297.3223">:RegisterJobOpeningApplicationUI</text><rect fill="#E3E3E3" height="51.2422" rx="2.5" ry="2.5" style="stroke:#181818;stroke-width:0.5;" width="278" x="638.5" y="75.6211"/><text fill="#000000" font-family="sans-serif" font-size="14" lengthAdjust="spacing" textLength="84" x="735.5" y="97.7285">&#171;application&#187;</text><text fill="#000000" font-family="sans-serif" font-size="14" lengthAdjust="spacing" textLength="264" x="645.5" y="116.3496">:RegisterJobOpeningApplicationController</text><rect fill="#E3E3E3" height="51.2422" rx="2.5" ry="2.5" style="stroke:#181818;stroke-width:0.5;" width="278" x="638.5" y="1256.5938"/><text fill="#000000" font-family="sans-serif" font-size="14" lengthAdjust="spacing" textLength="84" x="735.5" y="1278.7012">&#171;application&#187;</text><text fill="#000000" font-family="sans-serif" font-size="14" lengthAdjust="spacing" textLength="264" x="645.5" y="1297.3223">:RegisterJobOpeningApplicationController</text><text fill="#000000" font-family="sans-serif" font-size="14" lengthAdjust="spacing" textLength="79" x="1154" y="105.7285">&#171;repository&#187;</text><text fill="#000000" font-family="sans-serif" font-size="14" lengthAdjust="spacing" textLength="148" x="1119.5" y="124.3496">:JobOpeningRepository</text><path d="M1178.5,54.6211 C1178.5,44.6211 1196.5,44.6211 1196.5,44.6211 C1196.5,44.6211 1214.5,44.6211 1214.5,54.6211 L1214.5,80.6211 C1214.5,90.6211 1196.5,90.6211 1196.5,90.6211 C1196.5,90.6211 1178.5,90.6211 1178.5,80.6211 L1178.5,54.6211 " fill="#E3E3E3" style="stroke:#181818;stroke-width:1.5;"/><path d="M1178.5,54.6211 C1178.5,64.6211 1196.5,64.6211 1196.5,64.6211 C1196.5,64.6211 1214.5,64.6211 1214.5,54.6211 " fill="none" style="stroke:#181818;stroke-width:1.5;"/><text fill="#000000" font-family="sans-serif" font-size="14" lengthAdjust="spacing" textLength="79" x="1154" y="1271.7012">&#171;repository&#187;</text><text fill="#000000" font-family="sans-serif" font-size="14" lengthAdjust="spacing" textLength="148" x="1119.5" y="1290.3223">:JobOpeningRepository</text><path d="M1178.5,1303.8359 C1178.5,1293.8359 1196.5,1293.8359 1196.5,1293.8359 C1196.5,1293.8359 1214.5,1293.8359 1214.5,1303.8359 L1214.5,1329.8359 C1214.5,1339.8359 1196.5,1339.8359 1196.5,1339.8359 C1196.5,1339.8359 1178.5,1339.8359 1178.5,1329.8359 L1178.5,1303.8359 " fill="#E3E3E3" style="stroke:#181818;stroke-width:1.5;"/><path d="M1178.5,1303.8359 C1178.5,1313.8359 1196.5,1313.8359 1196.5,1313.8359 C1196.5,1313.8359 1214.5,1313.8359 1214.5,1303.8359 " fill="none" style="stroke:#181818;stroke-width:1.5;"/><rect fill="#E3E3E3" height="51.2422" rx="2.5" ry="2.5" style="stroke:#181818;stroke-width:0.5;" width="94" x="1283.5" y="75.6211"/><text fill="#000000" font-family="sans-serif" font-size="14" lengthAdjust="spacing" textLength="62" x="1299.5" y="97.7285">&#171;domain&#187;</text><text fill="#000000" font-family="sans-serif" font-size="14" lengthAdjust="spacing" textLength="80" x="1290.5" y="116.3496">:JobOpening</text><rect fill="#E3E3E3" height="51.2422" rx="2.5" ry="2.5" style="stroke:#181818;stroke-width:0.5;" width="94" x="1283.5" y="1256.5938"/><text fill="#000000" font-family="sans-serif" font-size="14" lengthAdjust="spacing" textLength="62" x="1299.5" y="1278.7012">&#171;domain&#187;</text><text fill="#000000" font-family="sans-serif" font-size="14" lengthAdjust="spacing" textLength="80" x="1290.5" y="1297.3223">:JobOpening</text><rect fill="#E3E3E3" height="51.2422" rx="2.5" ry="2.5" style="stroke:#181818;stroke-width:0.5;" width="223" x="1387.5" y="75.6211"/><text fill="#000000" font-family="sans-serif" font-size="14" lengthAdjust="spacing" textLength="61" x="1468.5" y="97.7285">&#171;service&#187;</text><text fill="#000000" font-family="sans-serif" font-size="14" lengthAdjust="spacing" textLength="209" x="1394.5" y="116.3496">:JobOpeningManagementService</text><rect fill="#E3E3E3" height="51.2422" rx="2.5" ry="2.5" style="stroke:#181818;stroke-width:0.5;" width="223" x="1387.5" y="1256.5938"/><text fill="#000000" font-family="sans-serif" font-size="14" lengthAdjust="spacing" textLength="61" x="1468.5" y="1278.7012">&#171;service&#187;</text><text fill="#000000" font-family="sans-serif" font-size="14" lengthAdjust="spacing" textLength="209" x="1394.5" y="1297.3223">:JobOpeningManagementService</text><rect fill="#E3E3E3" height="51.2422" rx="2.5" ry="2.5" style="stroke:#181818;stroke-width:0.5;" width="83" x="1620.5" y="75.6211"/><text fill="#000000" font-family="sans-serif" font-size="14" lengthAdjust="spacing" textLength="62" x="1631" y="97.7285">&#171;domain&#187;</text><text fill="#000000" font-family="sans-serif" font-size="14" lengthAdjust="spacing" textLength="69" x="1627.5" y="116.3496">:Candidate</text><rect fill="#E3E3E3" height="51.2422" rx="2.5" ry="2.5" style="stroke:#181818;stroke-width:0.5;" width="83" x="1620.5" y="1256.5938"/><text fill="#000000" font-family="sans-serif" font-size="14" lengthAdjust="spacing" textLength="62" x="1631" y="1278.7012">&#171;domain&#187;</text><text fill="#000000" font-family="sans-serif" font-size="14" lengthAdjust="spacing" textLength="69" x="1627.5" y="1297.3223">:Candidate</text><text fill="#000000" font-family="sans-serif" font-size="14" lengthAdjust="spacing" textLength="79" x="1742.5" y="105.7285">&#171;repository&#187;</text><text fill="#000000" font-family="sans-serif" font-size="14" lengthAdjust="spacing" textLength="137" x="1713.5" y="124.3496">:CandidateRepository</text><path d="M1767,54.6211 C1767,44.6211 1785,44.6211 1785,44.6211 C1785,44.6211 1803,44.6211 1803,54.6211 L1803,80.6211 C1803,90.6211 1785,90.6211 1785,90.6211 C1785,90.6211 1767,90.6211 1767,80.6211 L1767,54.6211 " fill="#E3E3E3" style="stroke:#181818;stroke-width:1.5;"/><path d="M1767,54.6211 C1767,64.6211 1785,64.6211 1785,64.6211 C1785,64.6211 1803,64.6211 1803,54.6211 " fill="none" style="stroke:#181818;stroke-width:1.5;"/><text fill="#000000" font-family="sans-serif" font-size="14" lengthAdjust="spacing" textLength="79" x="1742.5" y="1271.7012">&#171;repository&#187;</text><text fill="#000000" font-family="sans-serif" font-size="14" lengthAdjust="spacing" textLength="137" x="1713.5" y="1290.3223">:CandidateRepository</text><path d="M1767,1303.8359 C1767,1293.8359 1785,1293.8359 1785,1293.8359 C1785,1293.8359 1803,1293.8359 1803,1303.8359 L1803,1329.8359 C1803,1339.8359 1785,1339.8359 1785,1339.8359 C1785,1339.8359 1767,1339.8359 1767,1329.8359 L1767,1303.8359 " fill="#E3E3E3" style="stroke:#181818;stroke-width:1.5;"/><path d="M1767,1303.8359 C1767,1313.8359 1785,1313.8359 1785,1313.8359 C1785,1313.8359 1803,1313.8359 1803,1303.8359 " fill="none" style="stroke:#181818;stroke-width:1.5;"/><rect fill="#E3E3E3" height="51.2422" rx="2.5" ry="2.5" style="stroke:#181818;stroke-width:0.5;" width="216" x="1866.5" y="75.6211"/><text fill="#000000" font-family="sans-serif" font-size="14" lengthAdjust="spacing" textLength="61" x="1944" y="97.7285">&#171;service&#187;</text><text fill="#000000" font-family="sans-serif" font-size="14" lengthAdjust="spacing" textLength="202" x="1873.5" y="116.3496">:ApplicationManagementService</text><rect fill="#E3E3E3" height="51.2422" rx="2.5" ry="2.5" style="stroke:#181818;stroke-width:0.5;" width="216" x="1866.5" y="1256.5938"/><text fill="#000000" font-family="sans-serif" font-size="14" lengthAdjust="spacing" textLength="61" x="1944" y="1278.7012">&#171;service&#187;</text><text fill="#000000" font-family="sans-serif" font-size="14" lengthAdjust="spacing" textLength="202" x="1873.5" y="1297.3223">:ApplicationManagementService</text><text fill="#000000" font-family="sans-serif" font-size="14" lengthAdjust="spacing" textLength="79" x="2123.5" y="105.7285">&#171;repository&#187;</text><text fill="#000000" font-family="sans-serif" font-size="14" lengthAdjust="spacing" textLength="141" x="2092.5" y="124.3496">:ApplicationRepository</text><path d="M2148,54.6211 C2148,44.6211 2166,44.6211 2166,44.6211 C2166,44.6211 2184,44.6211 2184,54.6211 L2184,80.6211 C2184,90.6211 2166,90.6211 2166,90.6211 C2166,90.6211 2148,90.6211 2148,80.6211 L2148,54.6211 " fill="#E3E3E3" style="stroke:#181818;stroke-width:1.5;"/><path d="M2148,54.6211 C2148,64.6211 2166,64.6211 2166,64.6211 C2166,64.6211 2184,64.6211 2184,54.6211 " fill="none" style="stroke:#181818;stroke-width:1.5;"/><text fill="#000000" font-family="sans-serif" font-size="14" lengthAdjust="spacing" textLength="79" x="2123.5" y="1271.7012">&#171;repository&#187;</text><text fill="#000000" font-family="sans-serif" font-size="14" lengthAdjust="spacing" textLength="141" x="2092.5" y="1290.3223">:ApplicationRepository</text><path d="M2148,1303.8359 C2148,1293.8359 2166,1293.8359 2166,1293.8359 C2166,1293.8359 2184,1293.8359 2184,1303.8359 L2184,1329.8359 C2184,1339.8359 2166,1339.8359 2166,1339.8359 C2166,1339.8359 2148,1339.8359 2148,1329.8359 L2148,1303.8359 " fill="#E3E3E3" style="stroke:#181818;stroke-width:1.5;"/><path d="M2148,1303.8359 C2148,1313.8359 2166,1313.8359 2166,1313.8359 C2166,1313.8359 2184,1313.8359 2184,1303.8359 " fill="none" style="stroke:#181818;stroke-width:1.5;"/><rect fill="#E3E3E3" height="51.2422" rx="2.5" ry="2.5" style="stroke:#181818;stroke-width:0.5;" width="87" x="2249.5" y="75.6211"/><text fill="#000000" font-family="sans-serif" font-size="14" lengthAdjust="spacing" textLength="62" x="2262" y="97.7285">&#171;domain&#187;</text><text fill="#000000" font-family="sans-serif" font-size="14" lengthAdjust="spacing" textLength="73" x="2256.5" y="116.3496">:Application</text><rect fill="#E3E3E3" height="51.2422" rx="2.5" ry="2.5" style="stroke:#181818;stroke-width:0.5;" width="87" x="2249.5" y="1256.5938"/><text fill="#000000" font-family="sans-serif" font-size="14" lengthAdjust="spacing" textLength="62" x="2262" y="1278.7012">&#171;domain&#187;</text><text fill="#000000" font-family="sans-serif" font-size="14" lengthAdjust="spacing" textLength="73" x="2256.5" y="1297.3223">:Application</text><rect fill="#FFFFFF" height="1101.7305" style="stroke:#181818;stroke-width:1.0;" width="10" x="31.5" y="137.8633"/><rect fill="#FFFFFF" height="92.582" style="stroke:#181818;stroke-width:1.0;" width="10" x="469.5" y="161.1543"/><rect fill="#FFFFFF" height="31.291" style="stroke:#181818;stroke-width:1.0;" width="10" x="469.5" y="285.0273"/><rect fill="#FFFFFF" height="891.9844" style="stroke:#181818;stroke-width:1.0;" width="10" x="469.5" y="347.6094"/><rect fill="#FFFFFF" height="30" style="stroke:#181818;stroke-width:1.0;" width="10" x="772.5" y="192.4453"/><rect fill="#FFFFFF" height="829.4023" style="stroke:#181818;stroke-width:1.0;" width="10" x="772.5" y="378.9004"/><rect fill="#FFFFFF" height="42.291" style="stroke:#181818;stroke-width:1.0;" width="10" x="777.5" y="418.1914"/><rect fill="#FFFFFF" height="104.873" style="stroke:#181818;stroke-width:1.0;" width="10" x="777.5" y="506.7734"/><rect fill="#FFFFFF" height="30" style="stroke:#181818;stroke-width:1.0;" width="10" x="1191.5" y="1135.3662"/><rect fill="#FFFFFF" height="31.291" style="stroke:#181818;stroke-width:1.0;" width="10" x="1494" y="1061.1387"/><rect fill="#FFFFFF" height="30" style="stroke:#181818;stroke-width:1.0;" width="10" x="1657" y="687.874"/><rect fill="#FFFFFF" height="31.291" style="stroke:#181818;stroke-width:1.0;" width="10" x="1780" y="543.0645"/><rect fill="#FFFFFF" height="31.291" style="stroke:#181818;stroke-width:1.0;" width="10" x="1780" y="812.1016"/><rect fill="#FFFFFF" height="155.1641" style="stroke:#181818;stroke-width:1.0;" width="10" x="1969.5" y="874.6836"/><rect fill="#FFFFFF" height="31.291" style="stroke:#181818;stroke-width:1.0;" width="10" x="2161" y="967.2656"/><rect fill="#FFFFFF" height="30" style="stroke:#181818;stroke-width:1.0;" width="10" x="2288" y="905.9746"/><polygon fill="#181818" points="457.5,157.1543,467.5,161.1543,457.5,165.1543,461.5,161.1543" style="stroke:#181818;stroke-width:1.0;"/><line style="stroke:#181818;stroke-width:1.0;" x1="41.5" x2="463.5" y1="161.1543" y2="161.1543"/><text fill="#000000" font-family="sans-serif" font-size="13" font-weight="bold" lengthAdjust="spacing" textLength="7" x="48.5" y="155.8916">1</text><text fill="#000000" font-family="sans-serif" font-size="13" lengthAdjust="spacing" textLength="174" x="59.5" y="155.8916">asks to register an application</text><polygon fill="#181818" points="760.5,188.4453,770.5,192.4453,760.5,196.4453,764.5,192.4453" style="stroke:#181818;stroke-width:1.0;"/><line style="stroke:#181818;stroke-width:1.0;" x1="479.5" x2="766.5" y1="192.4453" y2="192.4453"/><text fill="#000000" font-family="sans-serif" font-size="13" font-weight="bold" lengthAdjust="spacing" textLength="7" x="486.5" y="187.1826">2</text><text fill="#000000" font-family="sans-serif" font-size="13" lengthAdjust="spacing" textLength="44" x="497.5" y="187.1826">create()</text><polygon fill="#181818" points="52.5,249.7363,42.5,253.7363,52.5,257.7363,48.5,253.7363" style="stroke:#181818;stroke-width:1.0;"/><line style="stroke:#181818;stroke-width:1.0;stroke-dasharray:2.0,2.0;" x1="46.5" x2="473.5" y1="253.7363" y2="253.7363"/><text fill="#000000" font-family="sans-serif" font-size="13" font-weight="bold" lengthAdjust="spacing" textLength="7" x="58.5" y="248.4736">3</text><text fill="#000000" font-family="sans-serif" font-size="13" lengthAdjust="spacing" textLength="393" x="69.5" y="248.4736">asks for the shared folder where the files used for the application are</text><polygon fill="#181818" points="457.5,281.0273,467.5,285.0273,457.5,289.0273,461.5,285.0273" style="stroke:#181818;stroke-width:1.0;"/><line style="stroke:#181818;stroke-width:1.0;" x1="41.5" x2="463.5" y1="285.0273" y2="285.0273"/><text fill="#000000" font-family="sans-serif" font-size="13" font-weight="bold" lengthAdjust="spacing" textLength="7" x="48.5" y="279.7646">4</text><text fill="#000000" font-family="sans-serif" font-size="13" lengthAdjust="spacing" textLength="142" x="59.5" y="279.7646">selects the shared folder</text><polygon fill="#181818" points="52.5,312.3184,42.5,316.3184,52.5,320.3184,48.5,316.3184" style="stroke:#181818;stroke-width:1.0;"/><line style="stroke:#181818;stroke-width:1.0;stroke-dasharray:2.0,2.0;" x1="46.5" x2="473.5" y1="316.3184" y2="316.3184"/><text fill="#000000" font-family="sans-serif" font-size="13" font-weight="bold" lengthAdjust="spacing" textLength="7" x="58.5" y="311.0557">5</text><text fill="#000000" font-family="sans-serif" font-size="13" lengthAdjust="spacing" textLength="272" x="69.5" y="311.0557">shows the job openings and asks to select one</text><polygon fill="#181818" points="457.5,343.6094,467.5,347.6094,457.5,351.6094,461.5,347.6094" style="stroke:#181818;stroke-width:1.0;"/><line style="stroke:#181818;stroke-width:1.0;" x1="41.5" x2="463.5" y1="347.6094" y2="347.6094"/><text fill="#000000" font-family="sans-serif" font-size="13" font-weight="bold" lengthAdjust="spacing" textLength="7" x="48.5" y="342.3467">6</text><text fill="#000000" font-family="sans-serif" font-size="13" lengthAdjust="spacing" textLength="133" x="59.5" y="342.3467">selects the jobOpening</text><polygon fill="#181818" points="760.5,374.9004,770.5,378.9004,760.5,382.9004,764.5,378.9004" style="stroke:#181818;stroke-width:1.0;"/><line style="stroke:#181818;stroke-width:1.0;" x1="479.5" x2="766.5" y1="378.9004" y2="378.9004"/><text fill="#000000" font-family="sans-serif" font-size="13" font-weight="bold" lengthAdjust="spacing" textLength="7" x="486.5" y="373.6377">7</text><text fill="#000000" font-family="sans-serif" font-size="13" lengthAdjust="spacing" textLength="263" x="497.5" y="373.6377">registerApplication(sharedFolder, jobOpening)</text><line style="stroke:#181818;stroke-width:1.0;" x1="782.5" x2="829.5" y1="405.1914" y2="405.1914"/><line style="stroke:#181818;stroke-width:1.0;" x1="829.5" x2="829.5" y1="405.1914" y2="418.1914"/><line style="stroke:#181818;stroke-width:1.0;" x1="788.5" x2="829.5" y1="418.1914" y2="418.1914"/><polygon fill="#181818" points="798.5,414.1914,788.5,418.1914,798.5,422.1914,794.5,418.1914" style="stroke:#181818;stroke-width:1.0;"/><text fill="#000000" font-family="sans-serif" font-size="13" font-weight="bold" lengthAdjust="spacing" textLength="7" x="794.5" y="399.9287">8</text><text fill="#000000" font-family="sans-serif" font-size="13" lengthAdjust="spacing" textLength="122" x="805.5" y="399.9287">getFiles(shareFolder)</text><line style="stroke:#181818;stroke-width:1.0;stroke-dasharray:2.0,2.0;" x1="787.5" x2="829.5" y1="459.4824" y2="459.4824"/><line style="stroke:#181818;stroke-width:1.0;stroke-dasharray:2.0,2.0;" x1="829.5" x2="829.5" y1="459.4824" y2="472.4824"/><line style="stroke:#181818;stroke-width:1.0;stroke-dasharray:2.0,2.0;" x1="782.5" x2="829.5" y1="472.4824" y2="472.4824"/><polygon fill="#181818" points="792.5,468.4824,782.5,472.4824,792.5,476.4824,788.5,472.4824" style="stroke:#181818;stroke-width:1.0;"/><text fill="#000000" font-family="sans-serif" font-size="13" font-weight="bold" lengthAdjust="spacing" textLength="7" x="794.5" y="454.2197">9</text><text fill="#000000" font-family="sans-serif" font-size="13" lengthAdjust="spacing" textLength="23" x="805.5" y="454.2197">files</text><line style="stroke:#181818;stroke-width:1.0;" x1="782.5" x2="829.5" y1="493.7734" y2="493.7734"/><line style="stroke:#181818;stroke-width:1.0;" x1="829.5" x2="829.5" y1="493.7734" y2="506.7734"/><line style="stroke:#181818;stroke-width:1.0;" x1="788.5" x2="829.5" y1="506.7734" y2="506.7734"/><polygon fill="#181818" points="798.5,502.7734,788.5,506.7734,798.5,510.7734,794.5,506.7734" style="stroke:#181818;stroke-width:1.0;"/><text fill="#000000" font-family="sans-serif" font-size="13" font-weight="bold" lengthAdjust="spacing" textLength="14" x="794.5" y="488.5107">10</text><text fill="#000000" font-family="sans-serif" font-size="13" lengthAdjust="spacing" textLength="127" x="812.5" y="488.5107">getCandidate(number)</text><polygon fill="#181818" points="1768,539.0645,1778,543.0645,1768,547.0645,1772,543.0645" style="stroke:#181818;stroke-width:1.0;"/><line style="stroke:#181818;stroke-width:1.0;" x1="787.5" x2="1774" y1="543.0645" y2="543.0645"/><text fill="#000000" font-family="sans-serif" font-size="13" font-weight="bold" lengthAdjust="spacing" textLength="14" x="794.5" y="537.8018">11</text><text fill="#000000" font-family="sans-serif" font-size="13" lengthAdjust="spacing" textLength="169" x="812.5" y="537.8018">findByPhoneNumber(number)</text><polygon fill="#181818" points="798.5,570.3555,788.5,574.3555,798.5,578.3555,794.5,574.3555" style="stroke:#181818;stroke-width:1.0;"/><line style="stroke:#181818;stroke-width:1.0;stroke-dasharray:2.0,2.0;" x1="792.5" x2="1784" y1="574.3555" y2="574.3555"/><text fill="#000000" font-family="sans-serif" font-size="13" font-weight="bold" lengthAdjust="spacing" textLength="14" x="804.5" y="569.0928">12</text><text fill="#000000" font-family="sans-serif" font-size="13" lengthAdjust="spacing" textLength="56" x="822.5" y="569.0928">candidate</text><line style="stroke:#181818;stroke-width:1.0;stroke-dasharray:2.0,2.0;" x1="787.5" x2="829.5" y1="610.6465" y2="610.6465"/><line style="stroke:#181818;stroke-width:1.0;stroke-dasharray:2.0,2.0;" x1="829.5" x2="829.5" y1="610.6465" y2="623.6465"/><line style="stroke:#181818;stroke-width:1.0;stroke-dasharray:2.0,2.0;" x1="782.5" x2="829.5" y1="623.6465" y2="623.6465"/><polygon fill="#181818" points="792.5,619.6465,782.5,623.6465,792.5,627.6465,788.5,623.6465" style="stroke:#181818;stroke-width:1.0;"/><text fill="#000000" font-family="sans-serif" font-size="13" font-weight="bold" lengthAdjust="spacing" textLength="14" x="794.5" y="605.3838">13</text><text fill="#000000" font-family="sans-serif" font-size="13" lengthAdjust="spacing" textLength="4" x="812.5" y="605.3838">&#160;</text><path d="M628.5,633.6465 L689.5,633.6465 L689.5,642.9375 L679.5,652.9375 L628.5,652.9375 L628.5,633.6465 " fill="#EEEEEE" style="stroke:#000000;stroke-width:1.5;"/><rect fill="none" height="103.873" style="stroke:#000000;stroke-width:1.5;" width="1429.5" x="628.5" y="633.6465"/><text fill="#000000" font-family="sans-serif" font-size="13" font-weight="bold" lengthAdjust="spacing" textLength="16" x="643.5" y="648.6748">alt</text><text fill="#000000" font-family="sans-serif" font-size="11" font-weight="bold" lengthAdjust="spacing" textLength="106" x="704.5" y="647.5166">[candidate == false]</text><polygon fill="#181818" points="1645,683.874,1655,687.874,1645,691.874,1649,687.874" style="stroke:#181818;stroke-width:1.0;"/><line style="stroke:#181818;stroke-width:1.0;" x1="782.5" x2="1651" y1="687.874" y2="687.874"/><text fill="#000000" font-family="sans-serif" font-size="13" font-weight="bold" lengthAdjust="spacing" textLength="14" x="789.5" y="682.6113">14</text><text fill="#000000" font-family="sans-serif" font-size="13" lengthAdjust="spacing" textLength="210" x="807.5" y="682.6113">register(name, email, phoneNumber)</text><path d="M1672,657.9375 L1672,701.9375 L2053,701.9375 L2053,667.9375 L2043,657.9375 L1672,657.9375 " fill="#FAFAFA" style="stroke:#181818;stroke-width:0.5;"/><path d="M2043,657.9375 L2043,667.9375 L2053,667.9375 L2043,657.9375 " fill="#FAFAFA" style="stroke:#181818;stroke-width:0.5;"/><text fill="#000000" font-family="sans-serif" font-size="13" lengthAdjust="spacing" textLength="360" x="1678" y="676.9658">The controller of the US2000a will be called, since the process</text><text fill="#000000" font-family="sans-serif" font-size="13" lengthAdjust="spacing" textLength="211" x="1682" y="694.2568">of register the candidate is the same</text><line style="stroke:#181818;stroke-width:1.0;" x1="782.5" x2="824.5" y1="767.8105" y2="767.8105"/><line style="stroke:#181818;stroke-width:1.0;" x1="824.5" x2="824.5" y1="767.8105" y2="780.8105"/><line style="stroke:#181818;stroke-width:1.0;" x1="783.5" x2="824.5" y1="780.8105" y2="780.8105"/><polygon fill="#181818" points="793.5,776.8105,783.5,780.8105,793.5,784.8105,789.5,780.8105" style="stroke:#181818;stroke-width:1.0;"/><text fill="#000000" font-family="sans-serif" font-size="13" font-weight="bold" lengthAdjust="spacing" textLength="14" x="789.5" y="762.5479">15</text><text fill="#000000" font-family="sans-serif" font-size="13" lengthAdjust="spacing" textLength="377" x="807.5" y="762.5479">registerApplication(files, applicationDate, phone, jobOpeningDTO)</text><polygon fill="#181818" points="1768,808.1016,1778,812.1016,1768,816.1016,1772,812.1016" style="stroke:#181818;stroke-width:1.0;"/><line style="stroke:#181818;stroke-width:1.0;" x1="782.5" x2="1774" y1="812.1016" y2="812.1016"/><text fill="#000000" font-family="sans-serif" font-size="13" font-weight="bold" lengthAdjust="spacing" textLength="14" x="789.5" y="806.8389">16</text><text fill="#000000" font-family="sans-serif" font-size="13" lengthAdjust="spacing" textLength="169" x="807.5" y="806.8389">findByPhoneNumber(number)</text><polygon fill="#181818" points="793.5,839.3926,783.5,843.3926,793.5,847.3926,789.5,843.3926" style="stroke:#181818;stroke-width:1.0;"/><line style="stroke:#181818;stroke-width:1.0;stroke-dasharray:2.0,2.0;" x1="787.5" x2="1784" y1="843.3926" y2="843.3926"/><text fill="#000000" font-family="sans-serif" font-size="13" font-weight="bold" lengthAdjust="spacing" textLength="14" x="799.5" y="838.1299">17</text><text fill="#000000" font-family="sans-serif" font-size="13" lengthAdjust="spacing" textLength="56" x="817.5" y="838.1299">candidate</text><polygon fill="#181818" points="1957.5,870.6836,1967.5,874.6836,1957.5,878.6836,1961.5,874.6836" style="stroke:#181818;stroke-width:1.0;"/><line style="stroke:#181818;stroke-width:1.0;" x1="782.5" x2="1963.5" y1="874.6836" y2="874.6836"/><text fill="#000000" font-family="sans-serif" font-size="13" font-weight="bold" lengthAdjust="spacing" textLength="14" x="789.5" y="869.4209">18</text><text fill="#000000" font-family="sans-serif" font-size="13" lengthAdjust="spacing" textLength="299" x="807.5" y="869.4209">registerApplication(files, applicationDate, candidate)</text><polygon fill="#181818" points="2276,901.9746,2286,905.9746,2276,909.9746,2280,905.9746" style="stroke:#181818;stroke-width:1.0;"/><line style="stroke:#181818;stroke-width:1.0;" x1="1979.5" x2="2282" y1="905.9746" y2="905.9746"/><text fill="#000000" font-family="sans-serif" font-size="13" font-weight="bold" lengthAdjust="spacing" textLength="14" x="1986.5" y="900.7119">19</text><text fill="#000000" font-family="sans-serif" font-size="13" lengthAdjust="spacing" textLength="228" x="2004.5" y="900.7119">create(files, applicationDate, candidate)</text><polygon fill="#181818" points="2149,963.2656,2159,967.2656,2149,971.2656,2153,967.2656" style="stroke:#181818;stroke-width:1.0;"/><line style="stroke:#181818;stroke-width:1.0;" x1="1979.5" x2="2155" y1="967.2656" y2="967.2656"/><text fill="#000000" font-family="sans-serif" font-size="13" font-weight="bold" lengthAdjust="spacing" textLength="14" x="1986.5" y="962.0029">20</text><text fill="#000000" font-family="sans-serif" font-size="13" lengthAdjust="spacing" textLength="96" x="2004.5" y="962.0029">save(application)</text><polygon fill="#181818" points="1990.5,994.5566,1980.5,998.5566,1990.5,1002.5566,1986.5,998.5566" style="stroke:#181818;stroke-width:1.0;"/><line style="stroke:#181818;stroke-width:1.0;stroke-dasharray:2.0,2.0;" x1="1984.5" x2="2165" y1="998.5566" y2="998.5566"/><text fill="#000000" font-family="sans-serif" font-size="13" font-weight="bold" lengthAdjust="spacing" textLength="14" x="1996.5" y="993.2939">21</text><text fill="#000000" font-family="sans-serif" font-size="13" lengthAdjust="spacing" textLength="62" x="2014.5" y="993.2939">application</text><polygon fill="#181818" points="793.5,1025.8477,783.5,1029.8477,793.5,1033.8477,789.5,1029.8477" style="stroke:#181818;stroke-width:1.0;"/><line style="stroke:#181818;stroke-width:1.0;stroke-dasharray:2.0,2.0;" x1="787.5" x2="1973.5" y1="1029.8477" y2="1029.8477"/><text fill="#000000" font-family="sans-serif" font-size="13" font-weight="bold" lengthAdjust="spacing" textLength="14" x="799.5" y="1024.585">22</text><text fill="#000000" font-family="sans-serif" font-size="13" lengthAdjust="spacing" textLength="62" x="817.5" y="1024.585">application</text><polygon fill="#181818" points="1482,1057.1387,1492,1061.1387,1482,1065.1387,1486,1061.1387" style="stroke:#181818;stroke-width:1.0;"/><line style="stroke:#181818;stroke-width:1.0;" x1="782.5" x2="1488" y1="1061.1387" y2="1061.1387"/><text fill="#000000" font-family="sans-serif" font-size="13" font-weight="bold" lengthAdjust="spacing" textLength="14" x="789.5" y="1055.876">23</text><text fill="#000000" font-family="sans-serif" font-size="13" lengthAdjust="spacing" textLength="185" x="807.5" y="1055.876">getJobOpening(jobOpeningDTO)</text><polygon fill="#181818" points="793.5,1088.4297,783.5,1092.4297,793.5,1096.4297,789.5,1092.4297" style="stroke:#181818;stroke-width:1.0;"/><line style="stroke:#181818;stroke-width:1.0;stroke-dasharray:2.0,2.0;" x1="787.5" x2="1498" y1="1092.4297" y2="1092.4297"/><text fill="#000000" font-family="sans-serif" font-size="13" font-weight="bold" lengthAdjust="spacing" textLength="14" x="799.5" y="1087.167">24</text><text fill="#000000" font-family="sans-serif" font-size="13" lengthAdjust="spacing" textLength="65" x="817.5" y="1087.167">jobOpening</text><polygon fill="#181818" points="1179.5,1131.3662,1189.5,1135.3662,1179.5,1139.3662,1183.5,1135.3662" style="stroke:#181818;stroke-width:1.0;"/><line style="stroke:#181818;stroke-width:1.0;" x1="782.5" x2="1185.5" y1="1135.3662" y2="1135.3662"/><text fill="#000000" font-family="sans-serif" font-size="13" font-weight="bold" lengthAdjust="spacing" textLength="14" x="789.5" y="1130.1035">25</text><text fill="#000000" font-family="sans-serif" font-size="13" lengthAdjust="spacing" textLength="99" x="807.5" y="1130.1035">save(jobOpening)</text><path d="M1206,1105.4297 L1206,1149.4297 L1384,1149.4297 L1384,1115.4297 L1374,1105.4297 L1206,1105.4297 " fill="#FAFAFA" style="stroke:#181818;stroke-width:0.5;"/><path d="M1374,1105.4297 L1374,1115.4297 L1384,1115.4297 L1374,1105.4297 " fill="#FAFAFA" style="stroke:#181818;stroke-width:0.5;"/><text fill="#000000" font-family="sans-serif" font-size="13" lengthAdjust="spacing" textLength="157" x="1212" y="1124.458">It will saved the jobOpening</text><text fill="#000000" font-family="sans-serif" font-size="13" lengthAdjust="spacing" textLength="138" x="1216" y="1141.749">with the new application</text><polygon fill="#181818" points="490.5,1204.3027,480.5,1208.3027,490.5,1212.3027,486.5,1208.3027" style="stroke:#181818;stroke-width:1.0;"/><line style="stroke:#181818;stroke-width:1.0;stroke-dasharray:2.0,2.0;" x1="484.5" x2="776.5" y1="1208.3027" y2="1208.3027"/><text fill="#000000" font-family="sans-serif" font-size="13" font-weight="bold" lengthAdjust="spacing" textLength="14" x="496.5" y="1203.04">26</text><text fill="#000000" font-family="sans-serif" font-size="13" lengthAdjust="spacing" textLength="62" x="514.5" y="1203.04">application</text><polygon fill="#181818" points="47.5,1235.5938,37.5,1239.5938,47.5,1243.5938,43.5,1239.5938" style="stroke:#181818;stroke-width:1.0;"/><line style="stroke:#181818;stroke-width:1.0;stroke-dasharray:2.0,2.0;" x1="41.5" x2="473.5" y1="1239.5938" y2="1239.5938"/><text fill="#000000" font-family="sans-serif" font-size="13" font-weight="bold" lengthAdjust="spacing" textLength="14" x="53.5" y="1234.3311">27</text><text fill="#000000" font-family="sans-serif" font-size="13" lengthAdjust="spacing" textLength="147" x="71.5" y="1234.3311">shows operation success</text><!--SRC=[rLTBJnin4BxxLrXS25AG44S4I1H4HTKsA85JwS7PdMHDDlRMzhBYttTi9xjUhvE0r4jlMNlccuU_UKIlkAYOOckwba9cXP9he4RLG7HxKx5inPOmC-ybK0MPOM9PXWAwOBbik5ZI1Iir4C9g8qMzdeCYn723Qh-UP-TdP-VqbCxWJmqY0th7sHArVwDuPgIYHvCA5CDVHvHfEdaa26vunYic33swlAmKQ1266Ix5zVMBk9Z2aci3wfkSewf0-pTLLVBCIJm_E9ZdXnY6TJA7KMwbC4gM9NYdRf-ctsCy3UgDP-2mEemVJ63ArkZlpDyxVRplBaZE39ip3HP5GIKrn-3V8w1fUx5565p47kLopRY8S2BjVnV5RkEtJEGSW_HQxTU-k5kXAEp4-Ru8WXTCXu027tk802boANcp9nk1VAplAe2_ONYMzcJoI4-laRdq0kLMcXg9LUT9IfcW0O4xFUGvGGtKinn5pKm1dezE0cp7tXpwtquBrT3enjm2Qz4KOAjQGOwVPOw6cm8KkFC5Bq7JMhixBnguH54fD68T2mBIK683qKC3mr2sJkb2DbxXLSwfzCpKc8cyJOz7fL9yrFHhLmWzyNuEjraFdchadRvtFey3d9CepyHXT5XBCFSsSHx0w-_GwPHSgeTFDeHkwsFas-vkRuQ5vEo8_ClxOu49_Edq4p292YGfjC3zh2jvE03K3tmOCc6bwV3erTLsr0mZ2nvk9DWQnXIm2CinhRhuKe4bdIJaE2iWMo7_cR5Kgsf3NIbOxhTbQJdLUMUfQK-mHd002eb7YYyBSq6Vh5mxKwXSE3at6yyORNXPqhb5mjjyJ3MtSz9AL4fceFMBi2exhF9DLM78c1QmvL4Q_1M4rUiv4OjIP7Vy6uVbVOSmcqo6xBzxcfoG_uHbr_tk_ydGMsk1r_rfGlhmtbxR7jlE_4a3xRljUivzLdlFeDaRZ0ApQJjXtj98fubCieEEHhYXozsJxeO9yxnzpju-uljXjyAC8fAsOFqjXlH10b-2KH6u4cc7lWpsistEayCYkT3r3Gtl-qtbmVZEOOtaqNZ3Zj5mKxXJ0Kqliq7RzSj6EkkR1eoTCEJn7e9j23vWTd0mmpM-rcFqJk7V0QvS6c-4RknG3OwceElIZDqWjD9S6Bl5GOFD4VjoNkDnTxYH3kM-AfQ78biRhxKsVD5MmF4Xgf94HePBYdJ_O6nwT9tPXXsl8-6tNVN8Nm00]--></g></svg>