<?xml version="1.0" encoding="UTF-8" standalone="no"?><svg xmlns="http://www.w3.org/2000/svg" xmlns:xlink="http://www.w3.org/1999/xlink" contentStyleType="text/css" height="1720px" preserveAspectRatio="none" style="width:2936px;height:1720px;background:#FFFFFF;" version="1.1" viewBox="0 0 2936 1720" width="2936px" zoomAndPan="magnify"><defs/><g><text fill="#000000" font-family="sans-serif" font-size="14" font-weight="bold" lengthAdjust="spacing" textLength="154" x="1384" y="24.5332">US1021 Class Diagram</text><!--cluster Authentication and Users--><g id="cluster_Authentication and Users"><path d="M8.5,45.5039 L248.5,45.5039 A3.75,3.75 0 0 1 251,48.0039 L258,76.6602 L458.5,76.6602 A2.5,2.5 0 0 1 461,79.1602 L461,417.0039 A2.5,2.5 0 0 1 458.5,419.5039 L8.5,419.5039 A2.5,2.5 0 0 1 6,417.0039 L6,48.0039 A2.5,2.5 0 0 1 8.5,45.5039 " fill="none" style="stroke:#000000;stroke-width:1.5;"/><line style="stroke:#000000;stroke-width:1.5;" x1="6" x2="258" y1="76.6602" y2="76.6602"/><text fill="#000000" font-family="sans-serif" font-size="20" font-weight="bold" lengthAdjust="spacing" textLength="239" x="10" y="68.2656">Authentication and Users</text></g><!--class AuthenticationService--><g id="elem_AuthenticationService"><rect codeLine="44" fill="#F1F1F1" height="101.4688" id="AuthenticationService" rx="2.5" ry="2.5" style="stroke:#181818;stroke-width:0.5;" width="221" x="223.5" y="89.5039"/><ellipse cx="239.5" cy="132.2383" fill="#ADD1B2" rx="12" ry="12" style="stroke:#181818;stroke-width:1.0;"/><path d="M241.6406,127.1602 Q241.8281,126.9102 242.0469,126.7852 Q242.2656,126.6445 242.5156,126.6445 Q242.9531,126.6445 243.2344,126.957 Q243.5156,127.2539 243.5156,127.9727 L243.5156,129.6758 Q243.5156,130.3945 243.2344,130.707 Q242.9531,131.0195 242.5156,131.0195 Q242.125,131.0195 241.875,130.7852 Q241.625,130.5664 241.5156,129.957 Q241.4531,129.5352 241.2344,129.3164 Q240.8438,128.8789 240.125,128.6133 Q239.4063,128.3477 238.6875,128.3477 Q237.7813,128.3477 237.0313,128.7383 Q236.2813,129.1289 235.7031,130.0195 Q235.125,130.8945 235.125,132.0977 L235.125,133.3945 Q235.125,134.8477 236.1719,135.8164 Q237.2344,136.7852 239.0938,136.7852 Q240.2031,136.7852 240.9844,136.4727 Q241.4219,136.3008 241.9375,135.7852 Q242.25,135.4727 242.4219,135.3789 Q242.5938,135.2852 242.8281,135.2852 Q243.2188,135.2852 243.5156,135.5977 Q243.8281,135.8945 243.8281,136.3008 Q243.8281,136.707 243.4219,137.1758 Q242.8281,137.8633 241.8906,138.2539 Q240.625,138.7852 239.1094,138.7852 Q237.3281,138.7852 235.9063,138.0508 Q234.75,137.457 233.9375,136.1914 Q233.125,134.9258 233.125,133.4414 L233.125,132.082 Q233.125,130.5195 233.8438,129.1758 Q234.5781,127.8164 235.8594,127.082 Q237.1563,126.3477 238.6094,126.3477 Q239.4688,126.3477 240.2188,126.5508 Q240.9844,126.7539 241.6406,127.1602 Z " fill="#000000"/><text fill="#000000" font-family="sans-serif" font-size="20" font-style="italic" lengthAdjust="spacing" textLength="120" x="288" y="115.2656">«Application»</text><text fill="#000000" font-family="sans-serif" font-size="20" font-style="italic" lengthAdjust="spacing" textLength="89" x="303.5" y="140.4219">«Service»</text><text fill="#000000" font-family="sans-serif" font-size="20" lengthAdjust="spacing" textLength="187" x="254.5" y="165.5781">AuthenticationService</text><line style="stroke:#181818;stroke-width:0.5;" x1="224.5" x2="443.5" y1="174.9727" y2="174.9727"/><line style="stroke:#181818;stroke-width:0.5;" x1="224.5" x2="443.5" y1="182.9727" y2="182.9727"/></g><!--class Session--><g id="elem_Session"><rect codeLine="46" fill="#F1F1F1" height="101.4688" id="Session" rx="2.5" ry="2.5" style="stroke:#181818;stroke-width:0.5;" width="166" x="22" y="89.5039"/><ellipse cx="38" cy="132.2383" fill="#ADD1B2" rx="12" ry="12" style="stroke:#181818;stroke-width:1.0;"/><path d="M40.1406,127.1602 Q40.3281,126.9102 40.5469,126.7852 Q40.7656,126.6445 41.0156,126.6445 Q41.4531,126.6445 41.7344,126.957 Q42.0156,127.2539 42.0156,127.9727 L42.0156,129.6758 Q42.0156,130.3945 41.7344,130.707 Q41.4531,131.0195 41.0156,131.0195 Q40.625,131.0195 40.375,130.7852 Q40.125,130.5664 40.0156,129.957 Q39.9531,129.5352 39.7344,129.3164 Q39.3438,128.8789 38.625,128.6133 Q37.9063,128.3477 37.1875,128.3477 Q36.2813,128.3477 35.5313,128.7383 Q34.7813,129.1289 34.2031,130.0195 Q33.625,130.8945 33.625,132.0977 L33.625,133.3945 Q33.625,134.8477 34.6719,135.8164 Q35.7344,136.7852 37.5938,136.7852 Q38.7031,136.7852 39.4844,136.4727 Q39.9219,136.3008 40.4375,135.7852 Q40.75,135.4727 40.9219,135.3789 Q41.0938,135.2852 41.3281,135.2852 Q41.7188,135.2852 42.0156,135.5977 Q42.3281,135.8945 42.3281,136.3008 Q42.3281,136.707 41.9219,137.1758 Q41.3281,137.8633 40.3906,138.2539 Q39.125,138.7852 37.6094,138.7852 Q35.8281,138.7852 34.4063,138.0508 Q33.25,137.457 32.4375,136.1914 Q31.625,134.9258 31.625,133.4414 L31.625,132.082 Q31.625,130.5195 32.3438,129.1758 Q33.0781,127.8164 34.3594,127.082 Q35.6563,126.3477 37.1094,126.3477 Q37.9688,126.3477 38.7188,126.5508 Q39.4844,126.7539 40.1406,127.1602 Z " fill="#000000"/><text fill="#000000" font-family="sans-serif" font-size="20" font-style="italic" lengthAdjust="spacing" textLength="91" x="73.5" y="115.2656">«Domain»</text><text fill="#000000" font-family="sans-serif" font-size="20" font-style="italic" lengthAdjust="spacing" textLength="136" x="51" y="140.4219">«Value Object»</text><text fill="#000000" font-family="sans-serif" font-size="20" lengthAdjust="spacing" textLength="69" x="84.5" y="165.5781">Session</text><line style="stroke:#181818;stroke-width:0.5;" x1="23" x2="187" y1="174.9727" y2="174.9727"/><line style="stroke:#181818;stroke-width:0.5;" x1="23" x2="187" y1="182.9727" y2="182.9727"/></g><!--class SystemUser--><g id="elem_SystemUser"><rect codeLine="48" fill="#F1F1F1" height="101.4688" id="SystemUser" rx="2.5" ry="2.5" style="stroke:#181818;stroke-width:0.5;" width="190" x="26" y="277.0039"/><ellipse cx="42" cy="319.7383" fill="#ADD1B2" rx="12" ry="12" style="stroke:#181818;stroke-width:1.0;"/><path d="M44.1406,314.6602 Q44.3281,314.4102 44.5469,314.2852 Q44.7656,314.1445 45.0156,314.1445 Q45.4531,314.1445 45.7344,314.457 Q46.0156,314.7539 46.0156,315.4727 L46.0156,317.1758 Q46.0156,317.8945 45.7344,318.207 Q45.4531,318.5195 45.0156,318.5195 Q44.625,318.5195 44.375,318.2852 Q44.125,318.0664 44.0156,317.457 Q43.9531,317.0352 43.7344,316.8164 Q43.3438,316.3789 42.625,316.1133 Q41.9063,315.8477 41.1875,315.8477 Q40.2813,315.8477 39.5313,316.2383 Q38.7813,316.6289 38.2031,317.5195 Q37.625,318.3945 37.625,319.5977 L37.625,320.8945 Q37.625,322.3477 38.6719,323.3164 Q39.7344,324.2852 41.5938,324.2852 Q42.7031,324.2852 43.4844,323.9727 Q43.9219,323.8008 44.4375,323.2852 Q44.75,322.9727 44.9219,322.8789 Q45.0938,322.7852 45.3281,322.7852 Q45.7188,322.7852 46.0156,323.0977 Q46.3281,323.3945 46.3281,323.8008 Q46.3281,324.207 45.9219,324.6758 Q45.3281,325.3633 44.3906,325.7539 Q43.125,326.2852 41.6094,326.2852 Q39.8281,326.2852 38.4063,325.5508 Q37.25,324.957 36.4375,323.6914 Q35.625,322.4258 35.625,320.9414 L35.625,319.582 Q35.625,318.0195 36.3438,316.6758 Q37.0781,315.3164 38.3594,314.582 Q39.6563,313.8477 41.1094,313.8477 Q41.9688,313.8477 42.7188,314.0508 Q43.4844,314.2539 44.1406,314.6602 Z " fill="#000000"/><text fill="#000000" font-family="sans-serif" font-size="20" font-style="italic" lengthAdjust="spacing" textLength="91" x="89.5" y="302.7656">«Domain»</text><text fill="#000000" font-family="sans-serif" font-size="20" font-style="italic" lengthAdjust="spacing" textLength="160" x="55" y="327.9219">«Aggregate Root»</text><text fill="#000000" font-family="sans-serif" font-size="20" lengthAdjust="spacing" textLength="107" x="81.5" y="353.0781">SystemUser</text><line style="stroke:#181818;stroke-width:0.5;" x1="27" x2="215" y1="362.4727" y2="362.4727"/><line style="stroke:#181818;stroke-width:0.5;" x1="27" x2="215" y1="370.4727" y2="370.4727"/></g><!--class Username--><g id="elem_Username"><rect codeLine="50" fill="#F1F1F1" height="151.7813" id="Username" rx="2.5" ry="2.5" style="stroke:#181818;stroke-width:0.5;" width="166" x="251" y="251.5039"/><ellipse cx="267" cy="306.8164" fill="#ADD1B2" rx="12" ry="12" style="stroke:#181818;stroke-width:1.0;"/><path d="M269.1406,301.7383 Q269.3281,301.4883 269.5469,301.3633 Q269.7656,301.2227 270.0156,301.2227 Q270.4531,301.2227 270.7344,301.5352 Q271.0156,301.832 271.0156,302.5508 L271.0156,304.2539 Q271.0156,304.9727 270.7344,305.2852 Q270.4531,305.5977 270.0156,305.5977 Q269.625,305.5977 269.375,305.3633 Q269.125,305.1445 269.0156,304.5352 Q268.9531,304.1133 268.7344,303.8945 Q268.3438,303.457 267.625,303.1914 Q266.9063,302.9258 266.1875,302.9258 Q265.2813,302.9258 264.5313,303.3164 Q263.7813,303.707 263.2031,304.5977 Q262.625,305.4727 262.625,306.6758 L262.625,307.9727 Q262.625,309.4258 263.6719,310.3945 Q264.7344,311.3633 266.5938,311.3633 Q267.7031,311.3633 268.4844,311.0508 Q268.9219,310.8789 269.4375,310.3633 Q269.75,310.0508 269.9219,309.957 Q270.0938,309.8633 270.3281,309.8633 Q270.7188,309.8633 271.0156,310.1758 Q271.3281,310.4727 271.3281,310.8789 Q271.3281,311.2852 270.9219,311.7539 Q270.3281,312.4414 269.3906,312.832 Q268.125,313.3633 266.6094,313.3633 Q264.8281,313.3633 263.4063,312.6289 Q262.25,312.0352 261.4375,310.7695 Q260.625,309.5039 260.625,308.0195 L260.625,306.6602 Q260.625,305.0977 261.3438,303.7539 Q262.0781,302.3945 263.3594,301.6602 Q264.6563,300.9258 266.1094,300.9258 Q266.9688,300.9258 267.7188,301.1289 Q268.4844,301.332 269.1406,301.7383 Z " fill="#000000"/><text fill="#000000" font-family="sans-serif" font-size="20" font-style="italic" lengthAdjust="spacing" textLength="91" x="302.5" y="277.2656">«Domain»</text><text fill="#000000" font-family="sans-serif" font-size="20" font-style="italic" lengthAdjust="spacing" textLength="136" x="280" y="302.4219">«Value Object»</text><text fill="#000000" font-family="sans-serif" font-size="20" font-style="italic" lengthAdjust="spacing" textLength="41" x="327.5" y="327.5781">«ID»</text><text fill="#000000" font-family="sans-serif" font-size="20" lengthAdjust="spacing" textLength="89" x="303.5" y="352.7344">Username</text><line style="stroke:#181818;stroke-width:0.5;" x1="252" x2="416" y1="362.1289" y2="362.1289"/><rect fill="none" height="6" style="stroke:#C82930;stroke-width:1.0;" width="6" x="259" y="377.207"/><text fill="#000000" font-family="sans-serif" font-size="20" lengthAdjust="spacing" textLength="114" x="272" y="386.8906">value : String</text><line style="stroke:#181818;stroke-width:0.5;" x1="252" x2="416" y1="395.2852" y2="395.2852"/></g><!--class DisplayAllApplicationDataUI--><g id="elem_DisplayAllApplicationDataUI"><rect codeLine="4" fill="#F1F1F1" height="76.3125" id="DisplayAllApplicationDataUI" rx="2.5" ry="2.5" style="stroke:#181818;stroke-width:0.5;" width="275" x="1384.5" y="102.0039"/><ellipse cx="1400.5" cy="132.1602" fill="#ADD1B2" rx="12" ry="12" style="stroke:#181818;stroke-width:1.0;"/><path d="M1402.6406,127.082 Q1402.8281,126.832 1403.0469,126.707 Q1403.2656,126.5664 1403.5156,126.5664 Q1403.9531,126.5664 1404.2344,126.8789 Q1404.5156,127.1758 1404.5156,127.8945 L1404.5156,129.5977 Q1404.5156,130.3164 1404.2344,130.6289 Q1403.9531,130.9414 1403.5156,130.9414 Q1403.125,130.9414 1402.875,130.707 Q1402.625,130.4883 1402.5156,129.8789 Q1402.4531,129.457 1402.2344,129.2383 Q1401.8438,128.8008 1401.125,128.5352 Q1400.4063,128.2695 1399.6875,128.2695 Q1398.7813,128.2695 1398.0313,128.6602 Q1397.2813,129.0508 1396.7031,129.9414 Q1396.125,130.8164 1396.125,132.0195 L1396.125,133.3164 Q1396.125,134.7695 1397.1719,135.7383 Q1398.2344,136.707 1400.0938,136.707 Q1401.2031,136.707 1401.9844,136.3945 Q1402.4219,136.2227 1402.9375,135.707 Q1403.25,135.3945 1403.4219,135.3008 Q1403.5938,135.207 1403.8281,135.207 Q1404.2188,135.207 1404.5156,135.5195 Q1404.8281,135.8164 1404.8281,136.2227 Q1404.8281,136.6289 1404.4219,137.0977 Q1403.8281,137.7852 1402.8906,138.1758 Q1401.625,138.707 1400.1094,138.707 Q1398.3281,138.707 1396.9063,137.9727 Q1395.75,137.3789 1394.9375,136.1133 Q1394.125,134.8477 1394.125,133.3633 L1394.125,132.0039 Q1394.125,130.4414 1394.8438,129.0977 Q1395.5781,127.7383 1396.8594,127.0039 Q1398.1563,126.2695 1399.6094,126.2695 Q1400.4688,126.2695 1401.2188,126.4727 Q1401.9844,126.6758 1402.6406,127.082 Z " fill="#000000"/><text fill="#000000" font-family="sans-serif" font-size="20" font-style="italic" lengthAdjust="spacing" textLength="133" x="1469.5" y="127.7656">«Presentation»</text><text fill="#000000" font-family="sans-serif" font-size="20" lengthAdjust="spacing" textLength="241" x="1415.5" y="152.9219">DisplayAllApplicationDataUI</text><line style="stroke:#181818;stroke-width:0.5;" x1="1385.5" x2="1658.5" y1="162.3164" y2="162.3164"/><line style="stroke:#181818;stroke-width:0.5;" x1="1385.5" x2="1658.5" y1="170.3164" y2="170.3164"/></g><!--class DisplayAllApplicationDataController--><g id="elem_DisplayAllApplicationDataController"><rect codeLine="9" fill="#F1F1F1" height="151.7813" id="DisplayAllApplicationDataController" rx="2.5" ry="2.5" style="stroke:#181818;stroke-width:0.5;" width="418" x="1313" y="251.5039"/><ellipse cx="1364" cy="281.6602" fill="#ADD1B2" rx="12" ry="12" style="stroke:#181818;stroke-width:1.0;"/><path d="M1366.1406,276.582 Q1366.3281,276.332 1366.5469,276.207 Q1366.7656,276.0664 1367.0156,276.0664 Q1367.4531,276.0664 1367.7344,276.3789 Q1368.0156,276.6758 1368.0156,277.3945 L1368.0156,279.0977 Q1368.0156,279.8164 1367.7344,280.1289 Q1367.4531,280.4414 1367.0156,280.4414 Q1366.625,280.4414 1366.375,280.207 Q1366.125,279.9883 1366.0156,279.3789 Q1365.9531,278.957 1365.7344,278.7383 Q1365.3438,278.3008 1364.625,278.0352 Q1363.9063,277.7695 1363.1875,277.7695 Q1362.2813,277.7695 1361.5313,278.1602 Q1360.7813,278.5508 1360.2031,279.4414 Q1359.625,280.3164 1359.625,281.5195 L1359.625,282.8164 Q1359.625,284.2695 1360.6719,285.2383 Q1361.7344,286.207 1363.5938,286.207 Q1364.7031,286.207 1365.4844,285.8945 Q1365.9219,285.7227 1366.4375,285.207 Q1366.75,284.8945 1366.9219,284.8008 Q1367.0938,284.707 1367.3281,284.707 Q1367.7188,284.707 1368.0156,285.0195 Q1368.3281,285.3164 1368.3281,285.7227 Q1368.3281,286.1289 1367.9219,286.5977 Q1367.3281,287.2852 1366.3906,287.6758 Q1365.125,288.207 1363.6094,288.207 Q1361.8281,288.207 1360.4063,287.4727 Q1359.25,286.8789 1358.4375,285.6133 Q1357.625,284.3477 1357.625,282.8633 L1357.625,281.5039 Q1357.625,279.9414 1358.3438,278.5977 Q1359.0781,277.2383 1360.3594,276.5039 Q1361.6563,275.7695 1363.1094,275.7695 Q1363.9688,275.7695 1364.7188,275.9727 Q1365.4844,276.1758 1366.1406,276.582 Z " fill="#000000"/><text fill="#000000" font-family="sans-serif" font-size="20" font-style="italic" lengthAdjust="spacing" textLength="120" x="1479.5" y="277.2656">«Application»</text><text fill="#000000" font-family="sans-serif" font-size="20" lengthAdjust="spacing" textLength="307" x="1386" y="302.4219">DisplayAllApplicationDataController</text><line style="stroke:#181818;stroke-width:0.5;" x1="1314" x2="1730" y1="311.8164" y2="311.8164"/><line style="stroke:#181818;stroke-width:0.5;" x1="1314" x2="1730" y1="319.8164" y2="319.8164"/><ellipse cx="1324" cy="337.8945" fill="#84BE84" rx="3" ry="3" style="stroke:#038048;stroke-width:1.0;"/><text fill="#000000" font-family="sans-serif" font-size="20" lengthAdjust="spacing" textLength="168" x="1334" y="344.5781">getApplicationList()</text><ellipse cx="1324" cy="363.0508" fill="#84BE84" rx="3" ry="3" style="stroke:#038048;stroke-width:1.0;"/><text fill="#000000" font-family="sans-serif" font-size="20" lengthAdjust="spacing" textLength="178" x="1334" y="369.7344">getJobOpeningList()</text><ellipse cx="1324" cy="388.207" fill="#84BE84" rx="3" ry="3" style="stroke:#038048;stroke-width:1.0;"/><text fill="#000000" font-family="sans-serif" font-size="20" lengthAdjust="spacing" textLength="391" x="1334" y="394.8906">getAllApplicationInformation(applicationDTO)</text></g><!--class JobOpeningManagementService--><g id="elem_JobOpeningManagementService"><rect codeLine="16" fill="#F1F1F1" height="176.9375" id="JobOpeningManagementService" rx="2.5" ry="2.5" style="stroke:#181818;stroke-width:0.5;" width="623" x="1210.5" y="492.5039"/><ellipse cx="1375.5" cy="522.6602" fill="#ADD1B2" rx="12" ry="12" style="stroke:#181818;stroke-width:1.0;"/><path d="M1377.6406,517.582 Q1377.8281,517.332 1378.0469,517.207 Q1378.2656,517.0664 1378.5156,517.0664 Q1378.9531,517.0664 1379.2344,517.3789 Q1379.5156,517.6758 1379.5156,518.3945 L1379.5156,520.0977 Q1379.5156,520.8164 1379.2344,521.1289 Q1378.9531,521.4414 1378.5156,521.4414 Q1378.125,521.4414 1377.875,521.207 Q1377.625,520.9883 1377.5156,520.3789 Q1377.4531,519.957 1377.2344,519.7383 Q1376.8438,519.3008 1376.125,519.0352 Q1375.4063,518.7695 1374.6875,518.7695 Q1373.7813,518.7695 1373.0313,519.1602 Q1372.2813,519.5508 1371.7031,520.4414 Q1371.125,521.3164 1371.125,522.5195 L1371.125,523.8164 Q1371.125,525.2695 1372.1719,526.2383 Q1373.2344,527.207 1375.0938,527.207 Q1376.2031,527.207 1376.9844,526.8945 Q1377.4219,526.7227 1377.9375,526.207 Q1378.25,525.8945 1378.4219,525.8008 Q1378.5938,525.707 1378.8281,525.707 Q1379.2188,525.707 1379.5156,526.0195 Q1379.8281,526.3164 1379.8281,526.7227 Q1379.8281,527.1289 1379.4219,527.5977 Q1378.8281,528.2852 1377.8906,528.6758 Q1376.625,529.207 1375.1094,529.207 Q1373.3281,529.207 1371.9063,528.4727 Q1370.75,527.8789 1369.9375,526.6133 Q1369.125,525.3477 1369.125,523.8633 L1369.125,522.5039 Q1369.125,520.9414 1369.8438,519.5977 Q1370.5781,518.2383 1371.8594,517.5039 Q1373.1563,516.7695 1374.6094,516.7695 Q1375.4688,516.7695 1376.2188,516.9727 Q1376.9844,517.1758 1377.6406,517.582 Z " fill="#000000"/><text fill="#000000" font-family="sans-serif" font-size="20" font-style="italic" lengthAdjust="spacing" textLength="89" x="1495" y="518.2656">«Service»</text><text fill="#000000" font-family="sans-serif" font-size="20" lengthAdjust="spacing" textLength="284" x="1397.5" y="543.4219">JobOpeningManagementService</text><line style="stroke:#181818;stroke-width:0.5;" x1="1211.5" x2="1832.5" y1="552.8164" y2="552.8164"/><line style="stroke:#181818;stroke-width:0.5;" x1="1211.5" x2="1832.5" y1="560.8164" y2="560.8164"/><ellipse cx="1221.5" cy="578.8945" fill="#84BE84" rx="3" ry="3" style="stroke:#038048;stroke-width:1.0;"/><text fill="#000000" font-family="sans-serif" font-size="20" lengthAdjust="spacing" textLength="428" x="1231.5" y="585.5781">getJobOpeningsOfCustomerManager(username)</text><ellipse cx="1221.5" cy="604.0508" fill="#84BE84" rx="3" ry="3" style="stroke:#038048;stroke-width:1.0;"/><text fill="#000000" font-family="sans-serif" font-size="20" lengthAdjust="spacing" textLength="596" x="1231.5" y="610.7344">getJobOpeningsFromCustomerCodes(assignedCustomerCodesList)</text><ellipse cx="1221.5" cy="629.207" fill="#84BE84" rx="3" ry="3" style="stroke:#038048;stroke-width:1.0;"/><text fill="#000000" font-family="sans-serif" font-size="20" lengthAdjust="spacing" textLength="340" x="1231.5" y="635.8906">getApplicationList(jobOpeningDTOList)</text><ellipse cx="1221.5" cy="654.3633" fill="#84BE84" rx="3" ry="3" style="stroke:#038048;stroke-width:1.0;"/><text fill="#000000" font-family="sans-serif" font-size="20" lengthAdjust="spacing" textLength="213" x="1231.5" y="661.0469">add(applicationListDTO)</text></g><!--class CustomerManagementService--><g id="elem_CustomerManagementService"><rect codeLine="23" fill="#F1F1F1" height="101.4688" id="CustomerManagementService" rx="2.5" ry="2.5" style="stroke:#181818;stroke-width:0.5;" width="408" x="477" y="277.0039"/><ellipse cx="544.5" cy="307.1602" fill="#ADD1B2" rx="12" ry="12" style="stroke:#181818;stroke-width:1.0;"/><path d="M546.6406,302.082 Q546.8281,301.832 547.0469,301.707 Q547.2656,301.5664 547.5156,301.5664 Q547.9531,301.5664 548.2344,301.8789 Q548.5156,302.1758 548.5156,302.8945 L548.5156,304.5977 Q548.5156,305.3164 548.2344,305.6289 Q547.9531,305.9414 547.5156,305.9414 Q547.125,305.9414 546.875,305.707 Q546.625,305.4883 546.5156,304.8789 Q546.4531,304.457 546.2344,304.2383 Q545.8438,303.8008 545.125,303.5352 Q544.4063,303.2695 543.6875,303.2695 Q542.7813,303.2695 542.0313,303.6602 Q541.2813,304.0508 540.7031,304.9414 Q540.125,305.8164 540.125,307.0195 L540.125,308.3164 Q540.125,309.7695 541.1719,310.7383 Q542.2344,311.707 544.0938,311.707 Q545.2031,311.707 545.9844,311.3945 Q546.4219,311.2227 546.9375,310.707 Q547.25,310.3945 547.4219,310.3008 Q547.5938,310.207 547.8281,310.207 Q548.2188,310.207 548.5156,310.5195 Q548.8281,310.8164 548.8281,311.2227 Q548.8281,311.6289 548.4219,312.0977 Q547.8281,312.7852 546.8906,313.1758 Q545.625,313.707 544.1094,313.707 Q542.3281,313.707 540.9063,312.9727 Q539.75,312.3789 538.9375,311.1133 Q538.125,309.8477 538.125,308.3633 L538.125,307.0039 Q538.125,305.4414 538.8438,304.0977 Q539.5781,302.7383 540.8594,302.0039 Q542.1563,301.2695 543.6094,301.2695 Q544.4688,301.2695 545.2188,301.4727 Q545.9844,301.6758 546.6406,302.082 Z " fill="#000000"/><text fill="#000000" font-family="sans-serif" font-size="20" font-style="italic" lengthAdjust="spacing" textLength="89" x="654" y="302.7656">«Service»</text><text fill="#000000" font-family="sans-serif" font-size="20" lengthAdjust="spacing" textLength="264" x="566.5" y="327.9219">CustomerManagementService</text><line style="stroke:#181818;stroke-width:0.5;" x1="478" x2="884" y1="337.3164" y2="337.3164"/><line style="stroke:#181818;stroke-width:0.5;" x1="478" x2="884" y1="345.3164" y2="345.3164"/><ellipse cx="488" cy="363.3945" fill="#84BE84" rx="3" ry="3" style="stroke:#038048;stroke-width:1.0;"/><text fill="#000000" font-family="sans-serif" font-size="20" lengthAdjust="spacing" textLength="381" x="498" y="370.0781">getAssignedCustomerCodesList(username)</text></g><!--class JobOpeningDTOService--><g id="elem_JobOpeningDTOService"><rect codeLine="27" fill="#F1F1F1" height="101.4688" id="JobOpeningDTOService" rx="2.5" ry="2.5" style="stroke:#181818;stroke-width:0.5;" width="300" x="1627" y="782.0039"/><ellipse cx="1667.3" cy="812.1602" fill="#ADD1B2" rx="12" ry="12" style="stroke:#181818;stroke-width:1.0;"/><path d="M1669.4406,807.082 Q1669.6281,806.832 1669.8469,806.707 Q1670.0656,806.5664 1670.3156,806.5664 Q1670.7531,806.5664 1671.0344,806.8789 Q1671.3156,807.1758 1671.3156,807.8945 L1671.3156,809.5977 Q1671.3156,810.3164 1671.0344,810.6289 Q1670.7531,810.9414 1670.3156,810.9414 Q1669.925,810.9414 1669.675,810.707 Q1669.425,810.4883 1669.3156,809.8789 Q1669.2531,809.457 1669.0344,809.2383 Q1668.6438,808.8008 1667.925,808.5352 Q1667.2063,808.2695 1666.4875,808.2695 Q1665.5813,808.2695 1664.8313,808.6602 Q1664.0813,809.0508 1663.5031,809.9414 Q1662.925,810.8164 1662.925,812.0195 L1662.925,813.3164 Q1662.925,814.7695 1663.9719,815.7383 Q1665.0344,816.707 1666.8938,816.707 Q1668.0031,816.707 1668.7844,816.3945 Q1669.2219,816.2227 1669.7375,815.707 Q1670.05,815.3945 1670.2219,815.3008 Q1670.3938,815.207 1670.6281,815.207 Q1671.0188,815.207 1671.3156,815.5195 Q1671.6281,815.8164 1671.6281,816.2227 Q1671.6281,816.6289 1671.2219,817.0977 Q1670.6281,817.7852 1669.6906,818.1758 Q1668.425,818.707 1666.9094,818.707 Q1665.1281,818.707 1663.7063,817.9727 Q1662.55,817.3789 1661.7375,816.1133 Q1660.925,814.8477 1660.925,813.3633 L1660.925,812.0039 Q1660.925,810.4414 1661.6438,809.0977 Q1662.3781,807.7383 1663.6594,807.0039 Q1664.9563,806.2695 1666.4094,806.2695 Q1667.2688,806.2695 1668.0188,806.4727 Q1668.7844,806.6758 1669.4406,807.082 Z " fill="#000000"/><text fill="#000000" font-family="sans-serif" font-size="20" font-style="italic" lengthAdjust="spacing" textLength="89" x="1749.2" y="807.7656">«Service»</text><text fill="#000000" font-family="sans-serif" font-size="20" lengthAdjust="spacing" textLength="212" x="1687.7" y="832.9219">JobOpeningDTOService</text><line style="stroke:#181818;stroke-width:0.5;" x1="1628" x2="1926" y1="842.3164" y2="842.3164"/><line style="stroke:#181818;stroke-width:0.5;" x1="1628" x2="1926" y1="850.3164" y2="850.3164"/><ellipse cx="1638" cy="868.3945" fill="#84BE84" rx="3" ry="3" style="stroke:#038048;stroke-width:1.0;"/><text fill="#000000" font-family="sans-serif" font-size="20" lengthAdjust="spacing" textLength="273" x="1648" y="875.0781">convertToDTO(jobOpeningList)</text></g><!--class ApplicationManagementService--><g id="elem_ApplicationManagementService"><rect codeLine="31" fill="#F1F1F1" height="126.625" id="ApplicationManagementService" rx="2.5" ry="2.5" style="stroke:#181818;stroke-width:0.5;" width="418" x="2182" y="517.5039"/><ellipse cx="2249.5" cy="547.6602" fill="#ADD1B2" rx="12" ry="12" style="stroke:#181818;stroke-width:1.0;"/><path d="M2251.6406,542.582 Q2251.8281,542.332 2252.0469,542.207 Q2252.2656,542.0664 2252.5156,542.0664 Q2252.9531,542.0664 2253.2344,542.3789 Q2253.5156,542.6758 2253.5156,543.3945 L2253.5156,545.0977 Q2253.5156,545.8164 2253.2344,546.1289 Q2252.9531,546.4414 2252.5156,546.4414 Q2252.125,546.4414 2251.875,546.207 Q2251.625,545.9883 2251.5156,545.3789 Q2251.4531,544.957 2251.2344,544.7383 Q2250.8438,544.3008 2250.125,544.0352 Q2249.4063,543.7695 2248.6875,543.7695 Q2247.7813,543.7695 2247.0313,544.1602 Q2246.2813,544.5508 2245.7031,545.4414 Q2245.125,546.3164 2245.125,547.5195 L2245.125,548.8164 Q2245.125,550.2695 2246.1719,551.2383 Q2247.2344,552.207 2249.0938,552.207 Q2250.2031,552.207 2250.9844,551.8945 Q2251.4219,551.7227 2251.9375,551.207 Q2252.25,550.8945 2252.4219,550.8008 Q2252.5938,550.707 2252.8281,550.707 Q2253.2188,550.707 2253.5156,551.0195 Q2253.8281,551.3164 2253.8281,551.7227 Q2253.8281,552.1289 2253.4219,552.5977 Q2252.8281,553.2852 2251.8906,553.6758 Q2250.625,554.207 2249.1094,554.207 Q2247.3281,554.207 2245.9063,553.4727 Q2244.75,552.8789 2243.9375,551.6133 Q2243.125,550.3477 2243.125,548.8633 L2243.125,547.5039 Q2243.125,545.9414 2243.8438,544.5977 Q2244.5781,543.2383 2245.8594,542.5039 Q2247.1563,541.7695 2248.6094,541.7695 Q2249.4688,541.7695 2250.2188,541.9727 Q2250.9844,542.1758 2251.6406,542.582 Z " fill="#000000"/><text fill="#000000" font-family="sans-serif" font-size="20" font-style="italic" lengthAdjust="spacing" textLength="89" x="2364" y="543.2656">«Service»</text><text fill="#000000" font-family="sans-serif" font-size="20" lengthAdjust="spacing" textLength="274" x="2271.5" y="568.4219">ApplicationManagementService</text><line style="stroke:#181818;stroke-width:0.5;" x1="2183" x2="2599" y1="577.8164" y2="577.8164"/><line style="stroke:#181818;stroke-width:0.5;" x1="2183" x2="2599" y1="585.8164" y2="585.8164"/><ellipse cx="2193" cy="603.8945" fill="#84BE84" rx="3" ry="3" style="stroke:#038048;stroke-width:1.0;"/><text fill="#000000" font-family="sans-serif" font-size="20" lengthAdjust="spacing" textLength="277" x="2203" y="610.5781">getApplicationsList(jobOpening)</text><ellipse cx="2193" cy="629.0508" fill="#84BE84" rx="3" ry="3" style="stroke:#038048;stroke-width:1.0;"/><text fill="#000000" font-family="sans-serif" font-size="20" lengthAdjust="spacing" textLength="391" x="2203" y="635.7344">getAllApplicationInformation(applicationDTO)</text></g><!--class ApplicationDTOService--><g id="elem_ApplicationDTOService"><rect codeLine="36" fill="#F1F1F1" height="126.625" id="ApplicationDTOService" rx="2.5" ry="2.5" style="stroke:#181818;stroke-width:0.5;" width="294" x="2635" y="517.5039"/><ellipse cx="2677.1" cy="547.6602" fill="#ADD1B2" rx="12" ry="12" style="stroke:#181818;stroke-width:1.0;"/><path d="M2679.2406,542.582 Q2679.4281,542.332 2679.6469,542.207 Q2679.8656,542.0664 2680.1156,542.0664 Q2680.5531,542.0664 2680.8344,542.3789 Q2681.1156,542.6758 2681.1156,543.3945 L2681.1156,545.0977 Q2681.1156,545.8164 2680.8344,546.1289 Q2680.5531,546.4414 2680.1156,546.4414 Q2679.725,546.4414 2679.475,546.207 Q2679.225,545.9883 2679.1156,545.3789 Q2679.0531,544.957 2678.8344,544.7383 Q2678.4438,544.3008 2677.725,544.0352 Q2677.0063,543.7695 2676.2875,543.7695 Q2675.3813,543.7695 2674.6313,544.1602 Q2673.8813,544.5508 2673.3031,545.4414 Q2672.725,546.3164 2672.725,547.5195 L2672.725,548.8164 Q2672.725,550.2695 2673.7719,551.2383 Q2674.8344,552.207 2676.6938,552.207 Q2677.8031,552.207 2678.5844,551.8945 Q2679.0219,551.7227 2679.5375,551.207 Q2679.85,550.8945 2680.0219,550.8008 Q2680.1938,550.707 2680.4281,550.707 Q2680.8188,550.707 2681.1156,551.0195 Q2681.4281,551.3164 2681.4281,551.7227 Q2681.4281,552.1289 2681.0219,552.5977 Q2680.4281,553.2852 2679.4906,553.6758 Q2678.225,554.207 2676.7094,554.207 Q2674.9281,554.207 2673.5063,553.4727 Q2672.35,552.8789 2671.5375,551.6133 Q2670.725,550.3477 2670.725,548.8633 L2670.725,547.5039 Q2670.725,545.9414 2671.4438,544.5977 Q2672.1781,543.2383 2673.4594,542.5039 Q2674.7563,541.7695 2676.2094,541.7695 Q2677.0688,541.7695 2677.8188,541.9727 Q2678.5844,542.1758 2679.2406,542.582 Z " fill="#000000"/><text fill="#000000" font-family="sans-serif" font-size="20" font-style="italic" lengthAdjust="spacing" textLength="89" x="2754.4" y="543.2656">«Service»</text><text fill="#000000" font-family="sans-serif" font-size="20" lengthAdjust="spacing" textLength="202" x="2697.9" y="568.4219">ApplicationDTOService</text><line style="stroke:#181818;stroke-width:0.5;" x1="2636" x2="2928" y1="577.8164" y2="577.8164"/><line style="stroke:#181818;stroke-width:0.5;" x1="2636" x2="2928" y1="585.8164" y2="585.8164"/><ellipse cx="2646" cy="603.8945" fill="#84BE84" rx="3" ry="3" style="stroke:#038048;stroke-width:1.0;"/><text fill="#000000" font-family="sans-serif" font-size="20" lengthAdjust="spacing" textLength="267" x="2656" y="610.5781">convertToDTO(applicationList)</text><ellipse cx="2646" cy="629.0508" fill="#84BE84" rx="3" ry="3" style="stroke:#038048;stroke-width:1.0;"/><text fill="#000000" font-family="sans-serif" font-size="20" lengthAdjust="spacing" textLength="236" x="2656" y="635.7344">convertToDTO(application)</text></g><!--class CustomerManager--><g id="elem_CustomerManager"><rect codeLine="55" fill="#F1F1F1" height="126.625" id="CustomerManager" rx="2.5" ry="2.5" style="stroke:#181818;stroke-width:0.5;" width="197" x="553.5" y="769.0039"/><ellipse cx="569.5" cy="811.7383" fill="#ADD1B2" rx="12" ry="12" style="stroke:#181818;stroke-width:1.0;"/><path d="M571.6406,806.6602 Q571.8281,806.4102 572.0469,806.2852 Q572.2656,806.1445 572.5156,806.1445 Q572.9531,806.1445 573.2344,806.457 Q573.5156,806.7539 573.5156,807.4727 L573.5156,809.1758 Q573.5156,809.8945 573.2344,810.207 Q572.9531,810.5195 572.5156,810.5195 Q572.125,810.5195 571.875,810.2852 Q571.625,810.0664 571.5156,809.457 Q571.4531,809.0352 571.2344,808.8164 Q570.8438,808.3789 570.125,808.1133 Q569.4063,807.8477 568.6875,807.8477 Q567.7813,807.8477 567.0313,808.2383 Q566.2813,808.6289 565.7031,809.5195 Q565.125,810.3945 565.125,811.5977 L565.125,812.8945 Q565.125,814.3477 566.1719,815.3164 Q567.2344,816.2852 569.0938,816.2852 Q570.2031,816.2852 570.9844,815.9727 Q571.4219,815.8008 571.9375,815.2852 Q572.25,814.9727 572.4219,814.8789 Q572.5938,814.7852 572.8281,814.7852 Q573.2188,814.7852 573.5156,815.0977 Q573.8281,815.3945 573.8281,815.8008 Q573.8281,816.207 573.4219,816.6758 Q572.8281,817.3633 571.8906,817.7539 Q570.625,818.2852 569.1094,818.2852 Q567.3281,818.2852 565.9063,817.5508 Q564.75,816.957 563.9375,815.6914 Q563.125,814.4258 563.125,812.9414 L563.125,811.582 Q563.125,810.0195 563.8438,808.6758 Q564.5781,807.3164 565.8594,806.582 Q567.1563,805.8477 568.6094,805.8477 Q569.4688,805.8477 570.2188,806.0508 Q570.9844,806.2539 571.6406,806.6602 Z " fill="#000000"/><text fill="#000000" font-family="sans-serif" font-size="20" font-style="italic" lengthAdjust="spacing" textLength="91" x="620.5" y="794.7656">«Domain»</text><text fill="#000000" font-family="sans-serif" font-size="20" font-style="italic" lengthAdjust="spacing" textLength="160" x="586" y="819.9219">«Aggregate Root»</text><text fill="#000000" font-family="sans-serif" font-size="20" lengthAdjust="spacing" textLength="163" x="584.5" y="845.0781">CustomerManager</text><line style="stroke:#181818;stroke-width:0.5;" x1="554.5" x2="749.5" y1="854.4727" y2="854.4727"/><line style="stroke:#181818;stroke-width:0.5;" x1="554.5" x2="749.5" y1="862.4727" y2="862.4727"/><ellipse cx="564.5" cy="880.5508" fill="#84BE84" rx="3" ry="3" style="stroke:#038048;stroke-width:1.0;"/><text fill="#000000" font-family="sans-serif" font-size="20" lengthAdjust="spacing" textLength="142" x="574.5" y="887.2344">customerCode()</text></g><!--class JobOpening--><g id="elem_JobOpening"><rect codeLine="59" fill="#F1F1F1" height="353.0313" id="JobOpening" rx="2.5" ry="2.5" style="stroke:#181818;stroke-width:0.5;" width="342" x="1199" y="1360.5039"/><ellipse cx="1287.5" cy="1403.2383" fill="#ADD1B2" rx="12" ry="12" style="stroke:#181818;stroke-width:1.0;"/><path d="M1289.6406,1398.1602 Q1289.8281,1397.9102 1290.0469,1397.7852 Q1290.2656,1397.6445 1290.5156,1397.6445 Q1290.9531,1397.6445 1291.2344,1397.957 Q1291.5156,1398.2539 1291.5156,1398.9727 L1291.5156,1400.6758 Q1291.5156,1401.3945 1291.2344,1401.707 Q1290.9531,1402.0195 1290.5156,1402.0195 Q1290.125,1402.0195 1289.875,1401.7852 Q1289.625,1401.5664 1289.5156,1400.957 Q1289.4531,1400.5352 1289.2344,1400.3164 Q1288.8438,1399.8789 1288.125,1399.6133 Q1287.4063,1399.3477 1286.6875,1399.3477 Q1285.7813,1399.3477 1285.0313,1399.7383 Q1284.2813,1400.1289 1283.7031,1401.0195 Q1283.125,1401.8945 1283.125,1403.0977 L1283.125,1404.3945 Q1283.125,1405.8477 1284.1719,1406.8164 Q1285.2344,1407.7852 1287.0938,1407.7852 Q1288.2031,1407.7852 1288.9844,1407.4727 Q1289.4219,1407.3008 1289.9375,1406.7852 Q1290.25,1406.4727 1290.4219,1406.3789 Q1290.5938,1406.2852 1290.8281,1406.2852 Q1291.2188,1406.2852 1291.5156,1406.5977 Q1291.8281,1406.8945 1291.8281,1407.3008 Q1291.8281,1407.707 1291.4219,1408.1758 Q1290.8281,1408.8633 1289.8906,1409.2539 Q1288.625,1409.7852 1287.1094,1409.7852 Q1285.3281,1409.7852 1283.9063,1409.0508 Q1282.75,1408.457 1281.9375,1407.1914 Q1281.125,1405.9258 1281.125,1404.4414 L1281.125,1403.082 Q1281.125,1401.5195 1281.8438,1400.1758 Q1282.5781,1398.8164 1283.8594,1398.082 Q1285.1563,1397.3477 1286.6094,1397.3477 Q1287.4688,1397.3477 1288.2188,1397.5508 Q1288.9844,1397.7539 1289.6406,1398.1602 Z " fill="#000000"/><text fill="#000000" font-family="sans-serif" font-size="20" font-style="italic" lengthAdjust="spacing" textLength="91" x="1342" y="1386.2656">«Domain»</text><text fill="#000000" font-family="sans-serif" font-size="20" font-style="italic" lengthAdjust="spacing" textLength="160" x="1307.5" y="1411.4219">«Aggregate Root»</text><text fill="#000000" font-family="sans-serif" font-size="20" lengthAdjust="spacing" textLength="105" x="1335" y="1436.5781">JobOpening</text><line style="stroke:#181818;stroke-width:0.5;" x1="1200" x2="1540" y1="1445.9727" y2="1445.9727"/><rect fill="none" height="6" style="stroke:#C82930;stroke-width:1.0;" width="6" x="1207" y="1461.0508"/><text fill="#000000" font-family="sans-serif" font-size="20" lengthAdjust="spacing" textLength="136" x="1220" y="1470.7344">function : String</text><rect fill="none" height="6" style="stroke:#C82930;stroke-width:1.0;" width="6" x="1207" y="1486.207"/><text fill="#000000" font-family="sans-serif" font-size="20" lengthAdjust="spacing" textLength="252" x="1220" y="1495.8906">contractType : ContractType</text><rect fill="none" height="6" style="stroke:#C82930;stroke-width:1.0;" width="6" x="1207" y="1511.3633"/><text fill="#000000" font-family="sans-serif" font-size="20" lengthAdjust="spacing" textLength="208" x="1220" y="1521.0469">workMode : WorkMode</text><rect fill="none" height="6" style="stroke:#C82930;stroke-width:1.0;" width="6" x="1207" y="1536.5195"/><text fill="#000000" font-family="sans-serif" font-size="20" lengthAdjust="spacing" textLength="243" x="1220" y="1546.2031">companyAddress : Address</text><rect fill="none" height="6" style="stroke:#C82930;stroke-width:1.0;" width="6" x="1207" y="1561.6758"/><text fill="#000000" font-family="sans-serif" font-size="20" lengthAdjust="spacing" textLength="197" x="1220" y="1571.3594">costumerCode : String</text><rect fill="none" height="6" style="stroke:#C82930;stroke-width:1.0;" width="6" x="1207" y="1586.832"/><text fill="#000000" font-family="sans-serif" font-size="20" lengthAdjust="spacing" textLength="199" x="1220" y="1596.5156">companyName : String</text><rect fill="none" height="6" style="stroke:#C82930;stroke-width:1.0;" width="6" x="1207" y="1611.9883"/><text fill="#000000" font-family="sans-serif" font-size="20" lengthAdjust="spacing" textLength="206" x="1220" y="1621.6719">numVacancies : Integer</text><rect fill="none" height="6" style="stroke:#C82930;stroke-width:1.0;" width="6" x="1207" y="1637.1445"/><text fill="#000000" font-family="sans-serif" font-size="20" lengthAdjust="spacing" textLength="164" x="1220" y="1646.8281">description : String</text><rect fill="none" height="6" style="stroke:#C82930;stroke-width:1.0;" width="6" x="1207" y="1662.3008"/><text fill="#000000" font-family="sans-serif" font-size="20" lengthAdjust="spacing" textLength="315" x="1220" y="1671.9844">requirementsSpecificationsFile : File</text><line style="stroke:#181818;stroke-width:0.5;" x1="1200" x2="1540" y1="1680.3789" y2="1680.3789"/><ellipse cx="1210" cy="1698.457" fill="#84BE84" rx="3" ry="3" style="stroke:#038048;stroke-width:1.0;"/><text fill="#000000" font-family="sans-serif" font-size="20" lengthAdjust="spacing" textLength="73" x="1220" y="1705.1406">toDTO()</text></g><!--class WorkMode--><g id="elem_WorkMode"><rect codeLine="72" fill="#F1F1F1" height="176.9375" id="WorkMode" rx="2.5" ry="2.5" style="stroke:#181818;stroke-width:0.5;" width="301" x="1219.5" y="1046.0039"/><ellipse cx="1299.5" cy="1088.7383" fill="#ADD1B2" rx="12" ry="12" style="stroke:#181818;stroke-width:1.0;"/><path d="M1301.6406,1083.6602 Q1301.8281,1083.4102 1302.0469,1083.2852 Q1302.2656,1083.1445 1302.5156,1083.1445 Q1302.9531,1083.1445 1303.2344,1083.457 Q1303.5156,1083.7539 1303.5156,1084.4727 L1303.5156,1086.1758 Q1303.5156,1086.8945 1303.2344,1087.207 Q1302.9531,1087.5195 1302.5156,1087.5195 Q1302.125,1087.5195 1301.875,1087.2852 Q1301.625,1087.0664 1301.5156,1086.457 Q1301.4531,1086.0352 1301.2344,1085.8164 Q1300.8438,1085.3789 1300.125,1085.1133 Q1299.4063,1084.8477 1298.6875,1084.8477 Q1297.7813,1084.8477 1297.0313,1085.2383 Q1296.2813,1085.6289 1295.7031,1086.5195 Q1295.125,1087.3945 1295.125,1088.5977 L1295.125,1089.8945 Q1295.125,1091.3477 1296.1719,1092.3164 Q1297.2344,1093.2852 1299.0938,1093.2852 Q1300.2031,1093.2852 1300.9844,1092.9727 Q1301.4219,1092.8008 1301.9375,1092.2852 Q1302.25,1091.9727 1302.4219,1091.8789 Q1302.5938,1091.7852 1302.8281,1091.7852 Q1303.2188,1091.7852 1303.5156,1092.0977 Q1303.8281,1092.3945 1303.8281,1092.8008 Q1303.8281,1093.207 1303.4219,1093.6758 Q1302.8281,1094.3633 1301.8906,1094.7539 Q1300.625,1095.2852 1299.1094,1095.2852 Q1297.3281,1095.2852 1295.9063,1094.5508 Q1294.75,1093.957 1293.9375,1092.6914 Q1293.125,1091.4258 1293.125,1089.9414 L1293.125,1088.582 Q1293.125,1087.0195 1293.8438,1085.6758 Q1294.5781,1084.3164 1295.8594,1083.582 Q1297.1563,1082.8477 1298.6094,1082.8477 Q1299.4688,1082.8477 1300.2188,1083.0508 Q1300.9844,1083.2539 1301.6406,1083.6602 Z " fill="#000000"/><text fill="#000000" font-family="sans-serif" font-size="20" font-style="italic" lengthAdjust="spacing" textLength="91" x="1342" y="1071.7656">«Domain»</text><text fill="#000000" font-family="sans-serif" font-size="20" font-style="italic" lengthAdjust="spacing" textLength="136" x="1319.5" y="1096.9219">«Value Object»</text><text fill="#000000" font-family="sans-serif" font-size="20" lengthAdjust="spacing" textLength="97" x="1339" y="1122.0781">WorkMode</text><line style="stroke:#181818;stroke-width:0.5;" x1="1220.5" x2="1519.5" y1="1131.4727" y2="1131.4727"/><rect fill="none" height="6" style="stroke:#C82930;stroke-width:1.0;" width="6" x="1227.5" y="1146.5508"/><text fill="#000000" font-family="sans-serif" font-size="20" lengthAdjust="spacing" textLength="274" x="1240.5" y="1156.2344">workModeDenomination: String</text><line style="stroke:#181818;stroke-width:0.5;" x1="1220.5" x2="1519.5" y1="1164.6289" y2="1164.6289"/><ellipse cx="1230.5" cy="1182.707" fill="#84BE84" rx="3" ry="3" style="stroke:#038048;stroke-width:1.0;"/><text fill="#000000" font-family="sans-serif" font-size="20" lengthAdjust="spacing" textLength="81" x="1240.5" y="1189.3906">valueOf()</text><ellipse cx="1230.5" cy="1207.8633" fill="#84BE84" rx="3" ry="3" style="stroke:#038048;stroke-width:1.0;"/><text fill="#000000" font-family="sans-serif" font-size="20" lengthAdjust="spacing" textLength="63" x="1240.5" y="1214.5469">mode()</text></g><!--class ContractType--><g id="elem_ContractType"><rect codeLine="78" fill="#F1F1F1" height="176.9375" id="ContractType" rx="2.5" ry="2.5" style="stroke:#181818;stroke-width:0.5;" width="329" x="674.5" y="1046.0039"/><ellipse cx="768.5" cy="1088.7383" fill="#ADD1B2" rx="12" ry="12" style="stroke:#181818;stroke-width:1.0;"/><path d="M770.6406,1083.6602 Q770.8281,1083.4102 771.0469,1083.2852 Q771.2656,1083.1445 771.5156,1083.1445 Q771.9531,1083.1445 772.2344,1083.457 Q772.5156,1083.7539 772.5156,1084.4727 L772.5156,1086.1758 Q772.5156,1086.8945 772.2344,1087.207 Q771.9531,1087.5195 771.5156,1087.5195 Q771.125,1087.5195 770.875,1087.2852 Q770.625,1087.0664 770.5156,1086.457 Q770.4531,1086.0352 770.2344,1085.8164 Q769.8438,1085.3789 769.125,1085.1133 Q768.4063,1084.8477 767.6875,1084.8477 Q766.7813,1084.8477 766.0313,1085.2383 Q765.2813,1085.6289 764.7031,1086.5195 Q764.125,1087.3945 764.125,1088.5977 L764.125,1089.8945 Q764.125,1091.3477 765.1719,1092.3164 Q766.2344,1093.2852 768.0938,1093.2852 Q769.2031,1093.2852 769.9844,1092.9727 Q770.4219,1092.8008 770.9375,1092.2852 Q771.25,1091.9727 771.4219,1091.8789 Q771.5938,1091.7852 771.8281,1091.7852 Q772.2188,1091.7852 772.5156,1092.0977 Q772.8281,1092.3945 772.8281,1092.8008 Q772.8281,1093.207 772.4219,1093.6758 Q771.8281,1094.3633 770.8906,1094.7539 Q769.625,1095.2852 768.1094,1095.2852 Q766.3281,1095.2852 764.9063,1094.5508 Q763.75,1093.957 762.9375,1092.6914 Q762.125,1091.4258 762.125,1089.9414 L762.125,1088.582 Q762.125,1087.0195 762.8438,1085.6758 Q763.5781,1084.3164 764.8594,1083.582 Q766.1563,1082.8477 767.6094,1082.8477 Q768.4688,1082.8477 769.2188,1083.0508 Q769.9844,1083.2539 770.6406,1083.6602 Z " fill="#000000"/><text fill="#000000" font-family="sans-serif" font-size="20" font-style="italic" lengthAdjust="spacing" textLength="91" x="811" y="1071.7656">«Domain»</text><text fill="#000000" font-family="sans-serif" font-size="20" font-style="italic" lengthAdjust="spacing" textLength="136" x="788.5" y="1096.9219">«Value Object»</text><text fill="#000000" font-family="sans-serif" font-size="20" lengthAdjust="spacing" textLength="119" x="797" y="1122.0781">ContractType</text><line style="stroke:#181818;stroke-width:0.5;" x1="675.5" x2="1002.5" y1="1131.4727" y2="1131.4727"/><rect fill="none" height="6" style="stroke:#C82930;stroke-width:1.0;" width="6" x="682.5" y="1146.5508"/><text fill="#000000" font-family="sans-serif" font-size="20" lengthAdjust="spacing" textLength="302" x="695.5" y="1156.2344">contractTypeDenomination : String</text><line style="stroke:#181818;stroke-width:0.5;" x1="675.5" x2="1002.5" y1="1164.6289" y2="1164.6289"/><ellipse cx="685.5" cy="1182.707" fill="#84BE84" rx="3" ry="3" style="stroke:#038048;stroke-width:1.0;"/><text fill="#000000" font-family="sans-serif" font-size="20" lengthAdjust="spacing" textLength="81" x="695.5" y="1189.3906">valueOf()</text><ellipse cx="685.5" cy="1207.8633" fill="#84BE84" rx="3" ry="3" style="stroke:#038048;stroke-width:1.0;"/><text fill="#000000" font-family="sans-serif" font-size="20" lengthAdjust="spacing" textLength="52" x="695.5" y="1214.5469">type()</text></g><!--class Application--><g id="elem_Application"><rect codeLine="84" fill="#F1F1F1" height="353.0313" id="Application" rx="2.5" ry="2.5" style="stroke:#181818;stroke-width:0.5;" width="266" x="2181" y="1360.5039"/><ellipse cx="2231.5" cy="1403.2383" fill="#ADD1B2" rx="12" ry="12" style="stroke:#181818;stroke-width:1.0;"/><path d="M2233.6406,1398.1602 Q2233.8281,1397.9102 2234.0469,1397.7852 Q2234.2656,1397.6445 2234.5156,1397.6445 Q2234.9531,1397.6445 2235.2344,1397.957 Q2235.5156,1398.2539 2235.5156,1398.9727 L2235.5156,1400.6758 Q2235.5156,1401.3945 2235.2344,1401.707 Q2234.9531,1402.0195 2234.5156,1402.0195 Q2234.125,1402.0195 2233.875,1401.7852 Q2233.625,1401.5664 2233.5156,1400.957 Q2233.4531,1400.5352 2233.2344,1400.3164 Q2232.8438,1399.8789 2232.125,1399.6133 Q2231.4063,1399.3477 2230.6875,1399.3477 Q2229.7813,1399.3477 2229.0313,1399.7383 Q2228.2813,1400.1289 2227.7031,1401.0195 Q2227.125,1401.8945 2227.125,1403.0977 L2227.125,1404.3945 Q2227.125,1405.8477 2228.1719,1406.8164 Q2229.2344,1407.7852 2231.0938,1407.7852 Q2232.2031,1407.7852 2232.9844,1407.4727 Q2233.4219,1407.3008 2233.9375,1406.7852 Q2234.25,1406.4727 2234.4219,1406.3789 Q2234.5938,1406.2852 2234.8281,1406.2852 Q2235.2188,1406.2852 2235.5156,1406.5977 Q2235.8281,1406.8945 2235.8281,1407.3008 Q2235.8281,1407.707 2235.4219,1408.1758 Q2234.8281,1408.8633 2233.8906,1409.2539 Q2232.625,1409.7852 2231.1094,1409.7852 Q2229.3281,1409.7852 2227.9063,1409.0508 Q2226.75,1408.457 2225.9375,1407.1914 Q2225.125,1405.9258 2225.125,1404.4414 L2225.125,1403.082 Q2225.125,1401.5195 2225.8438,1400.1758 Q2226.5781,1398.8164 2227.8594,1398.082 Q2229.1563,1397.3477 2230.6094,1397.3477 Q2231.4688,1397.3477 2232.2188,1397.5508 Q2232.9844,1397.7539 2233.6406,1398.1602 Z " fill="#000000"/><text fill="#000000" font-family="sans-serif" font-size="20" font-style="italic" lengthAdjust="spacing" textLength="91" x="2286" y="1386.2656">«Domain»</text><text fill="#000000" font-family="sans-serif" font-size="20" font-style="italic" lengthAdjust="spacing" textLength="160" x="2251.5" y="1411.4219">«Aggregate Root»</text><text fill="#000000" font-family="sans-serif" font-size="20" lengthAdjust="spacing" textLength="95" x="2284" y="1436.5781">Application</text><line style="stroke:#181818;stroke-width:0.5;" x1="2182" x2="2446" y1="1445.9727" y2="1445.9727"/><rect fill="none" height="6" style="stroke:#C82930;stroke-width:1.0;" width="6" x="2189" y="1461.0508"/><text fill="#000000" font-family="sans-serif" font-size="20" lengthAdjust="spacing" textLength="239" x="2202" y="1470.7344">requirementAnswer : String</text><rect fill="none" height="6" style="stroke:#C82930;stroke-width:1.0;" width="6" x="2189" y="1486.207"/><text fill="#000000" font-family="sans-serif" font-size="20" lengthAdjust="spacing" textLength="239" x="2202" y="1495.8906">requirementResult : Integer</text><rect fill="none" height="6" style="stroke:#C82930;stroke-width:1.0;" width="6" x="2189" y="1511.3633"/><text fill="#000000" font-family="sans-serif" font-size="20" lengthAdjust="spacing" textLength="74" x="2202" y="1521.0469">file : File</text><rect fill="none" height="6" style="stroke:#C82930;stroke-width:1.0;" width="6" x="2189" y="1536.5195"/><text fill="#000000" font-family="sans-serif" font-size="20" lengthAdjust="spacing" textLength="115" x="2202" y="1546.2031">email : String</text><rect fill="none" height="6" style="stroke:#C82930;stroke-width:1.0;" width="6" x="2189" y="1561.6758"/><text fill="#000000" font-family="sans-serif" font-size="20" lengthAdjust="spacing" textLength="195" x="2202" y="1571.3594">applicationDate : Date</text><rect fill="none" height="6" style="stroke:#C82930;stroke-width:1.0;" width="6" x="2189" y="1586.832"/><text fill="#000000" font-family="sans-serif" font-size="20" lengthAdjust="spacing" textLength="238" x="2202" y="1596.5156">applicationStatus : Boolean</text><rect fill="none" height="6" style="stroke:#C82930;stroke-width:1.0;" width="6" x="2189" y="1611.9883"/><text fill="#000000" font-family="sans-serif" font-size="20" lengthAdjust="spacing" textLength="205" x="2202" y="1621.6719">candidateName : String</text><rect fill="none" height="6" style="stroke:#C82930;stroke-width:1.0;" width="6" x="2189" y="1637.1445"/><text fill="#000000" font-family="sans-serif" font-size="20" lengthAdjust="spacing" textLength="201" x="2202" y="1646.8281">phoneNumber : Integer</text><rect fill="none" height="6" style="stroke:#C82930;stroke-width:1.0;" width="6" x="2189" y="1662.3008"/><text fill="#000000" font-family="sans-serif" font-size="20" lengthAdjust="spacing" textLength="174" x="2202" y="1671.9844">interview : Interview</text><line style="stroke:#181818;stroke-width:0.5;" x1="2182" x2="2446" y1="1680.3789" y2="1680.3789"/><ellipse cx="2192" cy="1698.457" fill="#84BE84" rx="3" ry="3" style="stroke:#038048;stroke-width:1.0;"/><text fill="#000000" font-family="sans-serif" font-size="20" lengthAdjust="spacing" textLength="73" x="2202" y="1705.1406">toDTO()</text></g><!--class Interview--><g id="elem_Interview"><rect codeLine="97" fill="#F1F1F1" height="277.5625" id="Interview" rx="2.5" ry="2.5" style="stroke:#181818;stroke-width:0.5;" width="335" x="1827.5" y="995.5039"/><ellipse cx="1924.5" cy="1038.2383" fill="#ADD1B2" rx="12" ry="12" style="stroke:#181818;stroke-width:1.0;"/><path d="M1926.6406,1033.1602 Q1926.8281,1032.9102 1927.0469,1032.7852 Q1927.2656,1032.6445 1927.5156,1032.6445 Q1927.9531,1032.6445 1928.2344,1032.957 Q1928.5156,1033.2539 1928.5156,1033.9727 L1928.5156,1035.6758 Q1928.5156,1036.3945 1928.2344,1036.707 Q1927.9531,1037.0195 1927.5156,1037.0195 Q1927.125,1037.0195 1926.875,1036.7852 Q1926.625,1036.5664 1926.5156,1035.957 Q1926.4531,1035.5352 1926.2344,1035.3164 Q1925.8438,1034.8789 1925.125,1034.6133 Q1924.4063,1034.3477 1923.6875,1034.3477 Q1922.7813,1034.3477 1922.0313,1034.7383 Q1921.2813,1035.1289 1920.7031,1036.0195 Q1920.125,1036.8945 1920.125,1038.0977 L1920.125,1039.3945 Q1920.125,1040.8477 1921.1719,1041.8164 Q1922.2344,1042.7852 1924.0938,1042.7852 Q1925.2031,1042.7852 1925.9844,1042.4727 Q1926.4219,1042.3008 1926.9375,1041.7852 Q1927.25,1041.4727 1927.4219,1041.3789 Q1927.5938,1041.2852 1927.8281,1041.2852 Q1928.2188,1041.2852 1928.5156,1041.5977 Q1928.8281,1041.8945 1928.8281,1042.3008 Q1928.8281,1042.707 1928.4219,1043.1758 Q1927.8281,1043.8633 1926.8906,1044.2539 Q1925.625,1044.7852 1924.1094,1044.7852 Q1922.3281,1044.7852 1920.9063,1044.0508 Q1919.75,1043.457 1918.9375,1042.1914 Q1918.125,1040.9258 1918.125,1039.4414 L1918.125,1038.082 Q1918.125,1036.5195 1918.8438,1035.1758 Q1919.5781,1033.8164 1920.8594,1033.082 Q1922.1563,1032.3477 1923.6094,1032.3477 Q1924.4688,1032.3477 1925.2188,1032.5508 Q1925.9844,1032.7539 1926.6406,1033.1602 Z " fill="#000000"/><text fill="#000000" font-family="sans-serif" font-size="20" font-style="italic" lengthAdjust="spacing" textLength="91" x="1967" y="1021.2656">«Domain»</text><text fill="#000000" font-family="sans-serif" font-size="20" font-style="italic" lengthAdjust="spacing" textLength="136" x="1944.5" y="1046.4219">«Value Object»</text><text fill="#000000" font-family="sans-serif" font-size="20" lengthAdjust="spacing" textLength="79" x="1973" y="1071.5781">Interview</text><line style="stroke:#181818;stroke-width:0.5;" x1="1828.5" x2="2161.5" y1="1080.9727" y2="1080.9727"/><rect fill="none" height="6" style="stroke:#C82930;stroke-width:1.0;" width="6" x="1835.5" y="1096.0508"/><text fill="#000000" font-family="sans-serif" font-size="20" lengthAdjust="spacing" textLength="308" x="1848.5" y="1105.7344">interviewTypeDenomination : String</text><rect fill="none" height="6" style="stroke:#C82930;stroke-width:1.0;" width="6" x="1835.5" y="1121.207"/><text fill="#000000" font-family="sans-serif" font-size="20" lengthAdjust="spacing" textLength="137" x="1848.5" y="1130.8906">schedule : Date</text><rect fill="none" height="6" style="stroke:#C82930;stroke-width:1.0;" width="6" x="1835.5" y="1146.3633"/><text fill="#000000" font-family="sans-serif" font-size="20" lengthAdjust="spacing" textLength="201" x="1848.5" y="1156.0469">interviewResult : String</text><rect fill="none" height="6" style="stroke:#C82930;stroke-width:1.0;" width="6" x="1835.5" y="1171.5195"/><text fill="#000000" font-family="sans-serif" font-size="20" lengthAdjust="spacing" textLength="213" x="1848.5" y="1181.2031">interviewGrade : Integer</text><rect fill="none" height="6" style="stroke:#C82930;stroke-width:1.0;" width="6" x="1835.5" y="1196.6758"/><text fill="#000000" font-family="sans-serif" font-size="20" lengthAdjust="spacing" textLength="165" x="1848.5" y="1206.3594">justification : String</text><rect fill="none" height="6" style="stroke:#C82930;stroke-width:1.0;" width="6" x="1835.5" y="1221.832"/><text fill="#000000" font-family="sans-serif" font-size="20" lengthAdjust="spacing" textLength="218" x="1848.5" y="1231.5156">interviewAnswer :  String</text><line style="stroke:#181818;stroke-width:0.5;" x1="1828.5" x2="2161.5" y1="1239.9102" y2="1239.9102"/><ellipse cx="1838.5" cy="1257.9883" fill="#84BE84" rx="3" ry="3" style="stroke:#038048;stroke-width:1.0;"/><text fill="#000000" font-family="sans-serif" font-size="20" lengthAdjust="spacing" textLength="81" x="1848.5" y="1264.6719">valueOf()</text></g><!--class JobOpeningRepository--><g id="elem_JobOpeningRepository"><rect codeLine="109" fill="#F1F1F1" height="151.7813" id="JobOpeningRepository" rx="2.5" ry="2.5" style="stroke:#181818;stroke-width:0.5;" width="544" x="807" y="756.5039"/><ellipse cx="974.5" cy="799.2383" fill="#ADD1B2" rx="12" ry="12" style="stroke:#181818;stroke-width:1.0;"/><path d="M976.6406,794.1602 Q976.8281,793.9102 977.0469,793.7852 Q977.2656,793.6445 977.5156,793.6445 Q977.9531,793.6445 978.2344,793.957 Q978.5156,794.2539 978.5156,794.9727 L978.5156,796.6758 Q978.5156,797.3945 978.2344,797.707 Q977.9531,798.0195 977.5156,798.0195 Q977.125,798.0195 976.875,797.7852 Q976.625,797.5664 976.5156,796.957 Q976.4531,796.5352 976.2344,796.3164 Q975.8438,795.8789 975.125,795.6133 Q974.4063,795.3477 973.6875,795.3477 Q972.7813,795.3477 972.0313,795.7383 Q971.2813,796.1289 970.7031,797.0195 Q970.125,797.8945 970.125,799.0977 L970.125,800.3945 Q970.125,801.8477 971.1719,802.8164 Q972.2344,803.7852 974.0938,803.7852 Q975.2031,803.7852 975.9844,803.4727 Q976.4219,803.3008 976.9375,802.7852 Q977.25,802.4727 977.4219,802.3789 Q977.5938,802.2852 977.8281,802.2852 Q978.2188,802.2852 978.5156,802.5977 Q978.8281,802.8945 978.8281,803.3008 Q978.8281,803.707 978.4219,804.1758 Q977.8281,804.8633 976.8906,805.2539 Q975.625,805.7852 974.1094,805.7852 Q972.3281,805.7852 970.9063,805.0508 Q969.75,804.457 968.9375,803.1914 Q968.125,801.9258 968.125,800.4414 L968.125,799.082 Q968.125,797.5195 968.8438,796.1758 Q969.5781,794.8164 970.8594,794.082 Q972.1563,793.3477 973.6094,793.3477 Q974.4688,793.3477 975.2188,793.5508 Q975.9844,793.7539 976.6406,794.1602 Z " fill="#000000"/><text fill="#000000" font-family="sans-serif" font-size="20" font-style="italic" lengthAdjust="spacing" textLength="126" x="1033.5" y="782.2656">«Persistence»</text><text fill="#000000" font-family="sans-serif" font-size="20" font-style="italic" lengthAdjust="spacing" textLength="117" x="1038" y="807.4219">«Repository»</text><text fill="#000000" font-family="sans-serif" font-size="20" lengthAdjust="spacing" textLength="200" x="996.5" y="832.5781">JobOpeningRepository</text><line style="stroke:#181818;stroke-width:0.5;" x1="808" x2="1350" y1="841.9727" y2="841.9727"/><line style="stroke:#181818;stroke-width:0.5;" x1="808" x2="1350" y1="849.9727" y2="849.9727"/><ellipse cx="818" cy="868.0508" fill="#84BE84" rx="3" ry="3" style="stroke:#038048;stroke-width:1.0;"/><text fill="#000000" font-family="sans-serif" font-size="20" lengthAdjust="spacing" textLength="517" x="828" y="874.7344">getJobOpeningListMatchingCustomerCode(customerCode)</text><ellipse cx="818" cy="893.207" fill="#84BE84" rx="3" ry="3" style="stroke:#038048;stroke-width:1.0;"/><text fill="#000000" font-family="sans-serif" font-size="20" lengthAdjust="spacing" textLength="294" x="828" y="899.8906">getJobOpening(JobOpeningDTO)</text></g><!--class CustomerRepository--><g id="elem_CustomerRepository"><rect codeLine="114" fill="#F1F1F1" height="126.625" id="CustomerRepository" rx="2.5" ry="2.5" style="stroke:#181818;stroke-width:0.5;" width="362" x="500" y="517.5039"/><ellipse cx="586.5" cy="560.2383" fill="#ADD1B2" rx="12" ry="12" style="stroke:#181818;stroke-width:1.0;"/><path d="M588.6406,555.1602 Q588.8281,554.9102 589.0469,554.7852 Q589.2656,554.6445 589.5156,554.6445 Q589.9531,554.6445 590.2344,554.957 Q590.5156,555.2539 590.5156,555.9727 L590.5156,557.6758 Q590.5156,558.3945 590.2344,558.707 Q589.9531,559.0195 589.5156,559.0195 Q589.125,559.0195 588.875,558.7852 Q588.625,558.5664 588.5156,557.957 Q588.4531,557.5352 588.2344,557.3164 Q587.8438,556.8789 587.125,556.6133 Q586.4063,556.3477 585.6875,556.3477 Q584.7813,556.3477 584.0313,556.7383 Q583.2813,557.1289 582.7031,558.0195 Q582.125,558.8945 582.125,560.0977 L582.125,561.3945 Q582.125,562.8477 583.1719,563.8164 Q584.2344,564.7852 586.0938,564.7852 Q587.2031,564.7852 587.9844,564.4727 Q588.4219,564.3008 588.9375,563.7852 Q589.25,563.4727 589.4219,563.3789 Q589.5938,563.2852 589.8281,563.2852 Q590.2188,563.2852 590.5156,563.5977 Q590.8281,563.8945 590.8281,564.3008 Q590.8281,564.707 590.4219,565.1758 Q589.8281,565.8633 588.8906,566.2539 Q587.625,566.7852 586.1094,566.7852 Q584.3281,566.7852 582.9063,566.0508 Q581.75,565.457 580.9375,564.1914 Q580.125,562.9258 580.125,561.4414 L580.125,560.082 Q580.125,558.5195 580.8438,557.1758 Q581.5781,555.8164 582.8594,555.082 Q584.1563,554.3477 585.6094,554.3477 Q586.4688,554.3477 587.2188,554.5508 Q587.9844,554.7539 588.6406,555.1602 Z " fill="#000000"/><text fill="#000000" font-family="sans-serif" font-size="20" font-style="italic" lengthAdjust="spacing" textLength="126" x="635.5" y="543.2656">«Persistence»</text><text fill="#000000" font-family="sans-serif" font-size="20" font-style="italic" lengthAdjust="spacing" textLength="117" x="640" y="568.4219">«Repository»</text><text fill="#000000" font-family="sans-serif" font-size="20" lengthAdjust="spacing" textLength="180" x="608.5" y="593.5781">CustomerRepository</text><line style="stroke:#181818;stroke-width:0.5;" x1="501" x2="861" y1="602.9727" y2="602.9727"/><line style="stroke:#181818;stroke-width:0.5;" x1="501" x2="861" y1="610.9727" y2="610.9727"/><ellipse cx="511" cy="629.0508" fill="#84BE84" rx="3" ry="3" style="stroke:#038048;stroke-width:1.0;"/><text fill="#000000" font-family="sans-serif" font-size="20" lengthAdjust="spacing" textLength="335" x="521" y="635.7344">getCustomersByUsername(username)</text></g><!--class ApplicationRepository--><g id="elem_ApplicationRepository"><rect codeLine="118" fill="#F1F1F1" height="126.625" id="ApplicationRepository" rx="2.5" ry="2.5" style="stroke:#181818;stroke-width:0.5;" width="378" x="1962" y="769.0039"/><ellipse cx="2051.5" cy="811.7383" fill="#ADD1B2" rx="12" ry="12" style="stroke:#181818;stroke-width:1.0;"/><path d="M2053.6406,806.6602 Q2053.8281,806.4102 2054.0469,806.2852 Q2054.2656,806.1445 2054.5156,806.1445 Q2054.9531,806.1445 2055.2344,806.457 Q2055.5156,806.7539 2055.5156,807.4727 L2055.5156,809.1758 Q2055.5156,809.8945 2055.2344,810.207 Q2054.9531,810.5195 2054.5156,810.5195 Q2054.125,810.5195 2053.875,810.2852 Q2053.625,810.0664 2053.5156,809.457 Q2053.4531,809.0352 2053.2344,808.8164 Q2052.8438,808.3789 2052.125,808.1133 Q2051.4063,807.8477 2050.6875,807.8477 Q2049.7813,807.8477 2049.0313,808.2383 Q2048.2813,808.6289 2047.7031,809.5195 Q2047.125,810.3945 2047.125,811.5977 L2047.125,812.8945 Q2047.125,814.3477 2048.1719,815.3164 Q2049.2344,816.2852 2051.0938,816.2852 Q2052.2031,816.2852 2052.9844,815.9727 Q2053.4219,815.8008 2053.9375,815.2852 Q2054.25,814.9727 2054.4219,814.8789 Q2054.5938,814.7852 2054.8281,814.7852 Q2055.2188,814.7852 2055.5156,815.0977 Q2055.8281,815.3945 2055.8281,815.8008 Q2055.8281,816.207 2055.4219,816.6758 Q2054.8281,817.3633 2053.8906,817.7539 Q2052.625,818.2852 2051.1094,818.2852 Q2049.3281,818.2852 2047.9063,817.5508 Q2046.75,816.957 2045.9375,815.6914 Q2045.125,814.4258 2045.125,812.9414 L2045.125,811.582 Q2045.125,810.0195 2045.8438,808.6758 Q2046.5781,807.3164 2047.8594,806.582 Q2049.1563,805.8477 2050.6094,805.8477 Q2051.4688,805.8477 2052.2188,806.0508 Q2052.9844,806.2539 2053.6406,806.6602 Z " fill="#000000"/><text fill="#000000" font-family="sans-serif" font-size="20" font-style="italic" lengthAdjust="spacing" textLength="126" x="2105.5" y="794.7656">«Persistence»</text><text fill="#000000" font-family="sans-serif" font-size="20" font-style="italic" lengthAdjust="spacing" textLength="117" x="2110" y="819.9219">«Repository»</text><text fill="#000000" font-family="sans-serif" font-size="20" lengthAdjust="spacing" textLength="190" x="2073.5" y="845.0781">ApplicationRepository</text><line style="stroke:#181818;stroke-width:0.5;" x1="1963" x2="2339" y1="854.4727" y2="854.4727"/><line style="stroke:#181818;stroke-width:0.5;" x1="1963" x2="2339" y1="862.4727" y2="862.4727"/><ellipse cx="1973" cy="880.5508" fill="#84BE84" rx="3" ry="3" style="stroke:#038048;stroke-width:1.0;"/><text fill="#000000" font-family="sans-serif" font-size="20" lengthAdjust="spacing" textLength="351" x="1983" y="887.2344">getApplicationsListWithInterviewResult()</text></g><!--class RepositoryDatabase--><g id="elem_RepositoryDatabase"><rect codeLine="122" fill="#F1F1F1" height="76.3125" id="RepositoryDatabase" rx="2.5" ry="2.5" style="stroke:#181818;stroke-width:0.5;" width="213" x="920.5" y="289.5039"/><ellipse cx="936.5" cy="319.6602" fill="#B4A7E5" rx="12" ry="12" style="stroke:#181818;stroke-width:1.0;"/><path d="M937.5,315.832 L937.5,323.6602 L939.5313,323.6602 Q940.25,323.6602 940.5469,323.9414 Q940.8594,324.207 940.8594,324.6602 Q940.8594,325.0977 940.5469,325.3789 Q940.25,325.6602 939.5313,325.6602 L933.4844,325.6602 Q932.75,325.6602 932.4375,325.3789 Q932.1406,325.0977 932.1406,324.6602 Q932.1406,324.207 932.4375,323.9414 Q932.75,323.6602 933.4844,323.6602 L935.5,323.6602 L935.5,315.832 L933.4844,315.832 Q932.75,315.832 932.4375,315.5508 Q932.1406,315.2695 932.1406,314.8164 Q932.1406,314.3633 932.4375,314.0977 Q932.75,313.8164 933.4844,313.8164 L939.5313,313.8164 Q940.25,313.8164 940.5469,314.0977 Q940.8594,314.3633 940.8594,314.8164 Q940.8594,315.2695 940.5469,315.5508 Q940.25,315.832 939.5313,315.832 L937.5,315.832 Z " fill="#000000"/><text fill="#000000" font-family="sans-serif" font-size="20" font-style="italic" lengthAdjust="spacing" textLength="126" x="978" y="315.2656">«Persistence»</text><text fill="#000000" font-family="sans-serif" font-size="20" font-style="italic" lengthAdjust="spacing" textLength="179" x="951.5" y="340.4219">RepositoryDatabase</text><line style="stroke:#181818;stroke-width:0.5;" x1="921.5" x2="1132.5" y1="349.8164" y2="349.8164"/><line style="stroke:#181818;stroke-width:0.5;" x1="921.5" x2="1132.5" y1="357.8164" y2="357.8164"/></g><!--link CustomerManager to DisplayAllApplicationDataController--><g id="link_CustomerManager_DisplayAllApplicationDataController"><path codeLine="127" d="M750.76,774.9239 C763.77,768.3339 777.08,762.0039 790,756.5039 C907.55,706.4339 973.01,759.2039 1064,669.5039 C1123.05,611.2939 1071.42,557.4339 1123,492.5039 C1153.16,454.5439 1172.2,456.2939 1216,435.5039 C1245.08,421.7039 1276.44,408.7339 1307.6,396.9039 " fill="none" id="CustomerManager-to-DisplayAllApplicationDataController" style="stroke:#181818;stroke-width:1.0;stroke-dasharray:7.0,7.0;"/><polygon fill="#181818" points="1312.6,395.0139,1302.768,394.4386,1307.9201,396.7742,1305.5845,401.9264,1312.6,395.0139" style="stroke:#181818;stroke-width:1.0;"/></g><!--link DisplayAllApplicationDataUI to DisplayAllApplicationDataController--><g id="link_DisplayAllApplicationDataUI_DisplayAllApplicationDataController"><path codeLine="128" d="M1522,178.0939 C1522,197.6439 1522,222.4139 1522,246.1039 " fill="none" id="DisplayAllApplicationDataUI-to-DisplayAllApplicationDataController" style="stroke:#181818;stroke-width:1.0;stroke-dasharray:7.0,7.0;"/><polygon fill="#181818" points="1522,251.1339,1526,242.1339,1522,246.1339,1518,242.1339,1522,251.1339" style="stroke:#181818;stroke-width:1.0;"/></g><!--link DisplayAllApplicationDataController to JobOpeningRepository--><g id="link_DisplayAllApplicationDataController_JobOpeningRepository"><path codeLine="129" d="M1313,401.8839 C1268.72,425.2639 1225.58,455.0839 1193,492.5039 C1184.17,502.6539 1135.04,654.4539 1104.23,751.4439 " fill="none" id="DisplayAllApplicationDataController-to-JobOpeningRepository" style="stroke:#181818;stroke-width:1.0;stroke-dasharray:7.0,7.0;"/><polygon fill="#181818" points="1102.68,756.3039,1109.2214,748.9412,1104.1966,751.5395,1101.5983,746.5146,1102.68,756.3039" style="stroke:#181818;stroke-width:1.0;"/></g><!--link DisplayAllApplicationDataController to ApplicationRepository--><g id="link_DisplayAllApplicationDataController_ApplicationRepository"><path codeLine="130" d="M1731.01,354.0139 C1813.92,369.8039 1908.1,395.1239 1987,435.5039 C2106.25,496.5339 2138.88,667.5639 2147.75,763.7039 " fill="none" id="DisplayAllApplicationDataController-to-ApplicationRepository" style="stroke:#181818;stroke-width:1.0;stroke-dasharray:7.0,7.0;"/><polygon fill="#181818" points="2148.2,768.7939,2151.3857,759.4745,2147.7564,763.8136,2143.4172,760.1843,2148.2,768.7939" style="stroke:#181818;stroke-width:1.0;"/></g><!--link DisplayAllApplicationDataController to CustomerRepository--><g id="link_DisplayAllApplicationDataController_CustomerRepository"><path codeLine="131" d="M1312.99,391.0439 C1260.5,404.8739 1204.02,418.1739 1151,427.5039 C1111.01,434.5439 1099.75,427.2539 1060,435.5039 C981.56,451.7939 963.98,464.2839 889,492.5039 C869.99,499.6639 850.14,507.5039 830.58,515.4739 " fill="none" id="DisplayAllApplicationDataController-to-CustomerRepository" style="stroke:#181818;stroke-width:1.0;stroke-dasharray:7.0,7.0;"/><polygon fill="#181818" points="825.62,517.4939,835.4645,517.7872,830.2475,515.6002,832.4345,510.3832,825.62,517.4939" style="stroke:#181818;stroke-width:1.0;"/></g><!--link DisplayAllApplicationDataController to ApplicationManagementService--><g id="link_DisplayAllApplicationDataController_ApplicationManagementService"><path codeLine="132" d="M1731.03,343.6539 C1856.96,357.6739 2018.79,384.4839 2155,435.5039 C2206.76,454.8939 2259.66,486.0439 2302.22,514.4639 " fill="none" id="DisplayAllApplicationDataController-to-ApplicationManagementService" style="stroke:#181818;stroke-width:1.0;stroke-dasharray:7.0,7.0;"/><polygon fill="#181818" points="2306.57,517.3739,2301.3201,509.0409,2302.4163,514.5905,2296.8667,515.6868,2306.57,517.3739" style="stroke:#181818;stroke-width:1.0;"/></g><!--link DisplayAllApplicationDataController to JobOpeningManagementService--><g id="link_DisplayAllApplicationDataController_JobOpeningManagementService"><path codeLine="133" d="M1522,403.6239 C1522,429.9239 1522,459.7639 1522,487.3239 " fill="none" id="DisplayAllApplicationDataController-to-JobOpeningManagementService" style="stroke:#181818;stroke-width:1.0;stroke-dasharray:7.0,7.0;"/><polygon fill="#181818" points="1522,492.4439,1526,483.4439,1522,487.4439,1518,483.4439,1522,492.4439" style="stroke:#181818;stroke-width:1.0;"/></g><!--link DisplayAllApplicationDataController to JobOpeningDTOService--><g id="link_DisplayAllApplicationDataController_JobOpeningDTOService"><path codeLine="134" d="M1731.14,368.4339 C1851.74,396.7839 1984.95,439.2239 2013,492.5039 C2049.64,562.1139 2049.65,599.8939 2013,669.5039 C1987.99,717.0139 1942.05,753.2739 1897.31,779.3239 " fill="none" id="DisplayAllApplicationDataController-to-JobOpeningDTOService" style="stroke:#181818;stroke-width:1.0;stroke-dasharray:7.0,7.0;"/><polygon fill="#181818" points="1892.71,781.9739,1902.5066,780.9608,1897.0459,779.484,1898.5227,774.0233,1892.71,781.9739" style="stroke:#181818;stroke-width:1.0;"/></g><!--link DisplayAllApplicationDataController to ApplicationDTOService--><g id="link_DisplayAllApplicationDataController_ApplicationDTOService"><path codeLine="135" d="M1731.15,338.6039 C1955.39,354.2739 2319.45,393.7939 2618,492.5039 C2636.22,498.5239 2654.82,506.4739 2672.65,515.1239 " fill="none" id="DisplayAllApplicationDataController-to-ApplicationDTOService" style="stroke:#181818;stroke-width:1.0;stroke-dasharray:7.0,7.0;"/><polygon fill="#181818" points="2677.16,517.3339,2670.8409,509.7795,2672.6708,515.1322,2667.3182,516.9622,2677.16,517.3339" style="stroke:#181818;stroke-width:1.0;"/></g><!--link WorkMode to JobOpening--><g id="link_WorkMode_JobOpening"><path codeLine="138" d="M1370,1223.3939 C1370,1262.2739 1370,1309.5039 1370,1355.3539 " fill="none" id="WorkMode-to-JobOpening" style="stroke:#181818;stroke-width:1.0;"/><polygon fill="#181818" points="1370,1360.3639,1374,1351.3639,1370,1355.3639,1366,1351.3639,1370,1360.3639" style="stroke:#181818;stroke-width:1.0;"/><text fill="#000000" font-family="sans-serif" font-size="20" lengthAdjust="spacing" textLength="117" x="1371" y="1325.2656">characterizes</text><text fill="#000000" font-family="sans-serif" font-size="20" lengthAdjust="spacing" textLength="11" x="1358.5961" y="1251.6095">1</text><text fill="#000000" font-family="sans-serif" font-size="20" lengthAdjust="spacing" textLength="8" x="1361.8313" y="1348.1489">*</text></g><!--link ContractType to JobOpening--><g id="link_ContractType_JobOpening"><path codeLine="139" d="M864.42,1223.1139 C878.61,1259.8939 899.53,1300.9239 929,1330.5039 C1001.85,1403.6139 1105.62,1453.7539 1194.2,1486.1839 " fill="none" id="ContractType-to-JobOpening" style="stroke:#181818;stroke-width:1.0;"/><polygon fill="#181818" points="1198.94,1487.9139,1191.8372,1481.0912,1194.2381,1486.2132,1189.1161,1488.6142,1198.94,1487.9139" style="stroke:#181818;stroke-width:1.0;"/><text fill="#000000" font-family="sans-serif" font-size="20" lengthAdjust="spacing" textLength="117" x="930" y="1325.2656">characterizes</text><text fill="#000000" font-family="sans-serif" font-size="20" lengthAdjust="spacing" textLength="11" x="854.9451" y="1251.6252">1</text><text fill="#000000" font-family="sans-serif" font-size="20" lengthAdjust="spacing" textLength="8" x="1183.0076" y="1480.8877">*</text></g><!--link Interview to Application--><g id="link_Interview_Application"><path codeLine="140" d="M2052.56,1273.6739 C2063.16,1293.4839 2075.03,1313.0439 2088,1330.5039 C2113.45,1364.7639 2145.24,1397.7939 2176.86,1426.9739 " fill="none" id="Interview-to-Application" style="stroke:#181818;stroke-width:1.0;"/><polygon fill="#181818" points="2180.71,1430.5139,2176.788,1421.4796,2177.0278,1427.1314,2171.376,1427.3712,2180.71,1430.5139" style="stroke:#181818;stroke-width:1.0;"/><text fill="#000000" font-family="sans-serif" font-size="20" lengthAdjust="spacing" textLength="117" x="2089" y="1325.2656">characterizes</text><text fill="#000000" font-family="sans-serif" font-size="20" lengthAdjust="spacing" textLength="34" x="2020.5246" y="1301.7965">0..1</text><text fill="#000000" font-family="sans-serif" font-size="20" lengthAdjust="spacing" textLength="8" x="2165.202" y="1419.7718">*</text></g><!--link JobOpeningManagementService to JobOpeningRepository--><g id="link_JobOpeningManagementService_JobOpeningRepository"><path codeLine="141" d="M1366.44,669.6139 C1317.77,697.0239 1264.43,727.0639 1217.06,753.7439 " fill="none" id="JobOpeningManagementService-to-JobOpeningRepository" style="stroke:#181818;stroke-width:1.0;"/><polygon fill="#181818" points="1212.49,756.3239,1222.2942,755.3872,1216.8452,753.8679,1218.3645,748.4189,1212.49,756.3239" style="stroke:#181818;stroke-width:1.0;"/></g><!--link JobOpeningManagementService to JobOpening--><g id="link_JobOpeningManagementService_JobOpening"><path codeLine="142" d="M1540.67,669.6339 C1565.44,803.0939 1599.33,1063.8939 1538,1273.5039 C1529.81,1301.4839 1517.63,1329.3139 1503.49,1355.8239 " fill="none" id="JobOpeningManagementService-to-JobOpening" style="stroke:#181818;stroke-width:1.0;"/><polygon fill="#181818" points="1501.02,1360.4039,1508.803,1354.3685,1503.3862,1355.9993,1501.7555,1350.5826,1501.02,1360.4039" style="stroke:#181818;stroke-width:1.0;"/></g><!--link ApplicationManagementService to Application--><g id="link_ApplicationManagementService_Application"><path codeLine="143" d="M2392.66,644.7339 C2395.07,766.4639 2396.6,1043.0339 2369,1273.5039 C2365.82,1300.0539 2361.3,1327.9039 2356.2,1355.1239 " fill="none" id="ApplicationManagementService-to-Application" style="stroke:#181818;stroke-width:1.0;"/><polygon fill="#181818" points="2355.24,1360.2039,2360.8415,1352.1031,2356.1683,1355.2908,2352.9806,1350.6177,2355.24,1360.2039" style="stroke:#181818;stroke-width:1.0;"/></g><!--link ApplicationManagementService to ApplicationRepository--><g id="link_ApplicationManagementService_ApplicationRepository"><path codeLine="144" d="M2330.75,644.6439 C2295.51,681.2739 2251.05,727.4939 2215.17,764.8039 " fill="none" id="ApplicationManagementService-to-ApplicationRepository" style="stroke:#181818;stroke-width:1.0;"/><polygon fill="#181818" points="2211.28,768.8439,2220.4066,765.1418,2214.7507,765.2447,2214.6478,759.5888,2211.28,768.8439" style="stroke:#181818;stroke-width:1.0;"/></g><!--link ApplicationDTOService to Application--><g id="link_ApplicationDTOService_Application"><path codeLine="145" d="M2751.29,644.5939 C2681.5,786.8739 2508.77,1138.9639 2402.48,1355.6439 " fill="none" id="ApplicationDTOService-to-Application" style="stroke:#181818;stroke-width:1.0;"/><polygon fill="#181818" points="2400.14,1360.4139,2407.7105,1354.1142,2402.3532,1355.9304,2400.5369,1350.5731,2400.14,1360.4139" style="stroke:#181818;stroke-width:1.0;"/></g><!--link JobOpeningDTOService to JobOpening--><g id="link_JobOpeningDTOService_JobOpening"><path codeLine="146" d="M1767.89,883.0639 C1748.88,976.8939 1698.37,1184.1739 1600,1330.5039 C1584.19,1354.0239 1565.08,1376.6139 1544.71,1397.6339 " fill="none" id="JobOpeningDTOService-to-JobOpening" style="stroke:#181818;stroke-width:1.0;"/><polygon fill="#181818" points="1541.16,1401.2739,1550.3015,1397.6087,1544.6452,1397.6887,1544.5652,1392.0324,1541.16,1401.2739" style="stroke:#181818;stroke-width:1.0;"/></g><!--link CustomerManagementService to CustomerRepository--><g id="link_CustomerManagementService_CustomerRepository"><path codeLine="147" d="M681,378.1939 C681,416.5739 681,470.0939 681,512.3739 " fill="none" id="CustomerManagementService-to-CustomerRepository" style="stroke:#181818;stroke-width:1.0;"/><polygon fill="#181818" points="681,517.4739,685,508.4739,681,512.4739,677,508.4739,681,517.4739" style="stroke:#181818;stroke-width:1.0;"/></g><!--link CustomerManagementService to CustomerManager--><g id="link_CustomerManagementService_CustomerManager"><path codeLine="148" d="M590.03,378.0939 C548.95,405.8239 504.63,444.5239 482,492.5039 C448.44,563.6539 451.02,597.1939 482,669.5039 C497.9,706.6239 526.95,739.2739 556.59,765.3539 " fill="none" id="CustomerManagementService-to-CustomerManager" style="stroke:#181818;stroke-width:1.0;"/><polygon fill="#181818" points="560.58,768.8239,556.4216,759.896,556.81,765.5395,551.1665,765.9279,560.58,768.8239" style="stroke:#181818;stroke-width:1.0;"/></g><!--link JobOpeningRepository to ContractType--><g id="link_JobOpeningRepository_ContractType"><path codeLine="151" d="M1004.27,908.5639 C995.2,918.4339 986.24,928.5739 978,938.5039 C951.2,970.8039 923.91,1007.9639 900.7,1041.1139 " fill="none" id="JobOpeningRepository-to-ContractType" style="stroke:#181818;stroke-width:1.0;"/><polygon fill="#181818" points="897.6,1045.5539,906.0393,1040.4766,900.4683,1041.4584,899.4865,1035.8874,897.6,1045.5539" style="stroke:#181818;stroke-width:1.0;"/><text fill="#000000" font-family="sans-serif" font-size="20" lengthAdjust="spacing" textLength="68" x="979" y="960.2656">rebuilds</text><text fill="#000000" font-family="sans-serif" font-size="20" lengthAdjust="spacing" textLength="11" x="986.3752" y="936.9524">1</text><text fill="#000000" font-family="sans-serif" font-size="20" lengthAdjust="spacing" textLength="8" x="893.7803" y="1033.5567">*</text></g><!--link JobOpeningRepository to WorkMode--><g id="link_JobOpeningRepository_WorkMode"><path codeLine="152" d="M1152.06,908.8239 C1191.28,949.2539 1239.93,999.4139 1281.31,1042.0739 " fill="none" id="JobOpeningRepository-to-WorkMode" style="stroke:#181818;stroke-width:1.0;"/><polygon fill="#181818" points="1285.04,1045.9139,1281.6348,1036.6724,1281.5548,1042.3287,1275.8985,1042.2487,1285.04,1045.9139" style="stroke:#181818;stroke-width:1.0;"/><text fill="#000000" font-family="sans-serif" font-size="20" lengthAdjust="spacing" textLength="68" x="1199" y="960.2656">rebuilds</text><text fill="#000000" font-family="sans-serif" font-size="20" lengthAdjust="spacing" textLength="11" x="1146.6548" y="936.9566">1</text><text fill="#000000" font-family="sans-serif" font-size="20" lengthAdjust="spacing" textLength="8" x="1269.951" y="1033.6287">*</text></g><!--reverse link JobOpeningRepository to JobOpening--><g id="link_JobOpeningRepository_JobOpening"><path codeLine="153" d="M1063.7,913.6939 C1050.15,1005.1339 1039.72,1157.0039 1092,1273.5039 C1115.92,1326.7939 1156.24,1374.4739 1198.86,1414.0939 " fill="none" id="JobOpeningRepository-backto-JobOpening" style="stroke:#181818;stroke-width:1.0;stroke-dasharray:7.0,7.0;"/><polygon fill="#181818" points="1064.47,908.5739,1059.1768,916.8795,1063.7269,913.5184,1067.088,918.0684,1064.47,908.5739" style="stroke:#181818;stroke-width:1.0;"/><text fill="#000000" font-family="sans-serif" font-size="20" lengthAdjust="spacing" textLength="108" x="1093" y="1142.7656">persisted by</text></g><!--reverse link ApplicationRepository to Application--><g id="link_ApplicationRepository_Application"><path codeLine="155" d="M2166.68,901.0739 C2191.03,1006.0239 2238.72,1211.5739 2273.26,1360.4339 " fill="none" id="ApplicationRepository-backto-Application" style="stroke:#181818;stroke-width:1.0;stroke-dasharray:7.0,7.0;"/><polygon fill="#181818" points="2165.54,896.1539,2163.6745,905.8245,2166.6685,901.0249,2171.468,904.0189,2165.54,896.1539" style="stroke:#181818;stroke-width:1.0;"/><text fill="#000000" font-family="sans-serif" font-size="20" lengthAdjust="spacing" textLength="108" x="2252" y="1142.7656">persisted by</text></g><!--link ApplicationRepository to Interview--><g id="link_ApplicationRepository_Interview"><path codeLine="156" d="M2118.49,896.0239 C2104.09,923.7239 2086.51,957.5239 2069.18,990.8439 " fill="none" id="ApplicationRepository-to-Interview" style="stroke:#181818;stroke-width:1.0;"/><polygon fill="#181818" points="2066.85,995.3339,2074.5554,989.1998,2069.1599,990.8995,2067.4603,985.504,2066.85,995.3339" style="stroke:#181818;stroke-width:1.0;"/><text fill="#000000" font-family="sans-serif" font-size="20" lengthAdjust="spacing" textLength="68" x="2097" y="960.2656">rebuilds</text><text fill="#000000" font-family="sans-serif" font-size="20" lengthAdjust="spacing" textLength="11" x="2103.7484" y="924.295">1</text><text fill="#000000" font-family="sans-serif" font-size="20" lengthAdjust="spacing" textLength="8" x="2062.3485" y="983.2904">*</text></g><!--reverse link CustomerRepository to CustomerManager--><g id="link_CustomerRepository_CustomerManager"><path codeLine="159" d="M673.09,650.0439 C668.78,687.1039 663.49,732.6539 659.28,768.8439 " fill="none" id="CustomerRepository-backto-CustomerManager" style="stroke:#181818;stroke-width:1.0;stroke-dasharray:7.0,7.0;"/><polygon fill="#181818" points="673.72,644.6439,668.6944,653.1141,673.135,649.6096,676.6395,654.0501,673.72,644.6439" style="stroke:#181818;stroke-width:1.0;"/><text fill="#000000" font-family="sans-serif" font-size="20" lengthAdjust="spacing" textLength="108" x="667" y="721.2656">persisted by</text></g><!--reverse link RepositoryDatabase to JobOpeningRepository--><g id="link_RepositoryDatabase_JobOpeningRepository"><path codeLine="162" d="M1022.56,385.9339 C1018.43,454.0239 1014.95,570.7439 1030,669.5039 C1034.41,698.4039 1042.79,729.3139 1051.39,756.3039 " fill="none" id="RepositoryDatabase-backto-JobOpeningRepository" style="stroke:#181818;stroke-width:1.0;stroke-dasharray:7.0,7.0;"/><polygon fill="none" points="1015.6,385.1139,1023.9,365.6139,1029.57,386.0339,1015.6,385.1139" style="stroke:#181818;stroke-width:1.0;"/><text fill="#000000" font-family="sans-serif" font-size="20" lengthAdjust="spacing" textLength="99" x="1031" y="589.2656">implements</text></g><!--reverse link RepositoryDatabase to ApplicationRepository--><g id="link_RepositoryDatabase_ApplicationRepository"><path codeLine="163" d="M1130.39,373.0639 C1179.69,392.6139 1240.01,414.1239 1296,427.5039 C1416.77,456.3739 1747.88,423.3239 1851,492.5039 C1925.67,542.5939 1891.05,600.7439 1949,669.5039 C1980.29,706.6339 2021.13,741.2639 2057.89,768.9039 " fill="none" id="RepositoryDatabase-backto-ApplicationRepository" style="stroke:#181818;stroke-width:1.0;stroke-dasharray:7.0,7.0;"/><polygon fill="none" points="1127.66,379.5139,1111.72,365.5439,1132.89,366.5239,1127.66,379.5139" style="stroke:#181818;stroke-width:1.0;"/><text fill="#000000" font-family="sans-serif" font-size="20" lengthAdjust="spacing" textLength="99" x="1950" y="589.2656">implements</text></g><!--reverse link RepositoryDatabase to CustomerRepository--><g id="link_RepositoryDatabase_CustomerRepository"><path codeLine="164" d="M978.05,379.2439 C956.87,397.8739 930.62,416.9739 903,427.5039 C872.64,439.0839 784.34,417.9539 757,435.5039 C728.14,454.0339 709.58,487.3239 698.03,517.2939 " fill="none" id="RepositoryDatabase-backto-CustomerRepository" style="stroke:#181818;stroke-width:1.0;stroke-dasharray:7.0,7.0;"/><polygon fill="none" points="973.42,373.9939,992.86,365.5639,982.92,384.2839,973.42,373.9939" style="stroke:#181818;stroke-width:1.0;"/><text fill="#000000" font-family="sans-serif" font-size="20" lengthAdjust="spacing" textLength="99" x="758" y="457.2656">implements</text></g><!--link Session to SystemUser--><g id="link_Session_SystemUser"><path codeLine="167" d="M109.29,190.7139 C111.45,215.7639 114.07,246.2039 116.29,271.9039 " fill="none" id="Session-to-SystemUser" style="stroke:#181818;stroke-width:1.0;"/><polygon fill="#181818" points="116.73,276.9739,119.9445,267.6644,116.3018,271.9923,111.9739,268.3496,116.73,276.9739" style="stroke:#181818;stroke-width:1.0;"/></g><!--link SystemUser to Username--><g id="link_SystemUser_Username"><path codeLine="168" d="M216.27,327.5039 C226.06,327.5039 235.85,327.5039 245.64,327.5039 " fill="none" id="SystemUser-to-Username" style="stroke:#181818;stroke-width:1.0;"/><polygon fill="#181818" points="250.76,327.5039,241.76,323.5039,245.76,327.5039,241.76,331.5039,250.76,327.5039" style="stroke:#181818;stroke-width:1.0;"/></g><!--link AuthenticationService to Username--><g id="link_AuthenticationService_Username"><path codeLine="169" d="M334,190.7139 C334,207.6839 334,227.1239 334,245.8939 " fill="none" id="AuthenticationService-to-Username" style="stroke:#181818;stroke-width:1.0;stroke-dasharray:7.0,7.0;"/><polygon fill="#181818" points="334,251.1639,338,242.1639,334,246.1639,330,242.1639,334,251.1639" style="stroke:#181818;stroke-width:1.0;"/></g><!--link AuthenticationService to Session--><g id="link_AuthenticationService_Session"><path codeLine="170" d="M223.22,140.0039 C213.28,140.0039 203.33,140.0039 193.39,140.0039 " fill="none" id="AuthenticationService-to-Session" style="stroke:#181818;stroke-width:1.0;stroke-dasharray:7.0,7.0;"/><polygon fill="#181818" points="188.19,140.0039,197.19,144.0039,193.19,140.0039,197.19,136.0039,188.19,140.0039" style="stroke:#181818;stroke-width:1.0;"/></g><!--link AuthenticationService to DisplayAllApplicationDataController--><g id="link_AuthenticationService_DisplayAllApplicationDataController"><path codeLine="171" d="M444.69,153.6539 C602.09,172.1739 899.42,209.1039 1151,251.5039 C1202,260.1039 1256.72,270.5039 1308.04,280.7839 " fill="none" id="AuthenticationService-to-DisplayAllApplicationDataController" style="stroke:#181818;stroke-width:1.0;stroke-dasharray:7.0,7.0;"/><polygon fill="#181818" points="1312.99,281.7739,1304.9556,276.0775,1308.0882,280.7878,1303.3779,283.9204,1312.99,281.7739" style="stroke:#181818;stroke-width:1.0;"/></g><!--link CustomerManager to SystemUser--><g id="link_CustomerManager_SystemUser"><path codeLine="172" d="M553.27,773.0839 C531.69,758.8139 509.5,742.8939 490,726.5039 C365.25,621.6139 240.63,476.7739 172.9,393.8439 " fill="none" id="CustomerManager-to-SystemUser" style="stroke:#181818;stroke-width:1.0;"/><polygon fill="none" points="167.31,398.0639,160.14,378.1239,178.18,389.2339,167.31,398.0639" style="stroke:#181818;stroke-width:1.0;"/></g><!--SRC=[fLTHRziu37xthn3oqkI61EqUYw10bg13XdKPcdPzLcmbKMjBFabkaRljln_bE3PbowwRwqlTYX_vKIH5KhzmaL95arY6BomY4TlIB3QtKfWr_uUHpvU1uIPcv75zTVdvYinZgZLPSBe3J11Sf3HyeJj61ZyLqqmOQhWK0_9lGE0dB8Hr6jF3B8vdQHhpC1TPK4CVbsGwnRYRcmBu9xZuWvKZO4_TSt10oJXc2coWizA4_Vb4TioWm-zSc-78FVucDwkK2IvslbFNy59ifKhopo55V1vM8-JMaNcbzuuAS3A1IrWpzSf31eoBhv9jZOfURUUPDZ9XweXMmqmp9MZ2HbxvMoMJ4s8k8wQ7m87l18kS_reNaOBwrJoN2i4bB4kZ23jiZtAdIszTjZrydRNHGuvwxXAiTYaEfNXboZn8a4FU75qfrI6t-_EjCBfsL_X2UwUBZyn7dAj5O_IEJ6uG5Tn29fINjLRLOMRsS1S5Y50HaKS8XnwWeYfeEv8LRRSKcsuSoyJLjMQG361kEZtIoe6_Q9mnijeyiz1qem_QiCJIT1NCTZl5TjGmSYzbjuh78kKw6KodouMZnVwCoMikTKtMHa4kr4p0fLTMQXNTcor45HN9SDJKNDL7RwLZiir4c4UvmNriqyWe6fg7GsfzcwC_aTIRL2ztG0aadefFHqUIKd6OHH5q00qonPSZearM-EMdaQluOKFZEHPPyek6L8ISMVrBOHZSAnA09oLKF6tpKh6_CwxowjVhb8LyUwhmMnvRY_ON2eF9gyfp_oVlUsPmTNCB9cJ2HMwqGV3JCRTMMwSf9IqvW6FKcmUEC-P2Uf8nWFEHGQ_01p8InMCcz1kKI7VGxfc6KSOR-QqdW6F2W4ViKqgTuS8YxI-_m1fccSpcsnSfOqO5lavuC7a4oBQCJVTIi1zPiibzQzBcy1zuBzbRSPf_zyd0KhXtw4jJxyT-J7IuPr4MUowcL5C6em4kHRugcjTvq-zdUE3AwklKKIR6UmbQ7p5_GXk3Hib4oDmHiteyxragDJTI7UpSMiddLraTDaTCTuQyeoRSmpSURORu2M-TG8VEe3DgRo5dCpqfq5yEfwPNcopRwlXia_N9wOcR_TBD6ZUZyrXlAOmJbLexyc-ePWtRpZv1OAgK8J_Q2khzTZAvwRDF15txpF_MWVOMgykNVBt1tkZqHZTpwHp3ZG7w3DVFrU4egORdSzn0Q4YZumjAljC3XB9ixeEh0HcFRyZWhm6UkAv9kAUsYJ852pMa7Mx4BPW6g7g_1vUJ2GBXJbe7TQsO5kzDhlwWe7DFih98u4F2Y8v__Qahzow0DRRjAwWLz6HxFq3nUjYqG2zFaHlUte5ZFdS7QSKs6OyZ_JxmgPgjkq7JoSJDnhHW6P7D8GXQNd00kPdbeFmWJ6-91fMINn3u-XEOgh_4TP8NHttvcy-JDCw3SOoyhmNyTbn6jguhj6v5-fth1VMuv-1i1tBsuk2qsjfxgnRL0EsiS73gn85_gPxqaIWCjGdqR5lrG8t7lntU_m40]--></g></svg>