<?xml version="1.0" encoding="UTF-8" standalone="no"?><svg xmlns="http://www.w3.org/2000/svg" xmlns:xlink="http://www.w3.org/1999/xlink" contentStyleType="text/css" height="1773px" preserveAspectRatio="none" style="width:1994px;height:1773px;background:#FFFFFF;" version="1.1" viewBox="0 0 1994 1773" width="1994px" zoomAndPan="magnify"><defs/><g><text fill="#000000" font-family="sans-serif" font-size="14" font-weight="bold" lengthAdjust="spacing" textLength="154" x="913.105" y="24.5332">US1021 Class Diagram</text><!--class DisplayAllApplicationDataUI--><g id="elem_DisplayAllApplicationDataUI"><rect codeLine="4" fill="#F1F1F1" height="76.3125" id="DisplayAllApplicationDataUI" rx="2.5" ry="2.5" style="stroke:#181818;stroke-width:0.5;" width="275" x="267.5" y="71.1094"/><ellipse cx="283.5" cy="101.2656" fill="#ADD1B2" rx="12" ry="12" style="stroke:#181818;stroke-width:1.0;"/><path d="M285.6406,96.1875 Q285.8281,95.9375 286.0469,95.8125 Q286.2656,95.6719 286.5156,95.6719 Q286.9531,95.6719 287.2344,95.9844 Q287.5156,96.2813 287.5156,97 L287.5156,98.7031 Q287.5156,99.4219 287.2344,99.7344 Q286.9531,100.0469 286.5156,100.0469 Q286.125,100.0469 285.875,99.8125 Q285.625,99.5938 285.5156,98.9844 Q285.4531,98.5625 285.2344,98.3438 Q284.8438,97.9063 284.125,97.6406 Q283.4063,97.375 282.6875,97.375 Q281.7813,97.375 281.0313,97.7656 Q280.2813,98.1563 279.7031,99.0469 Q279.125,99.9219 279.125,101.125 L279.125,102.4219 Q279.125,103.875 280.1719,104.8438 Q281.2344,105.8125 283.0938,105.8125 Q284.2031,105.8125 284.9844,105.5 Q285.4219,105.3281 285.9375,104.8125 Q286.25,104.5 286.4219,104.4063 Q286.5938,104.3125 286.8281,104.3125 Q287.2188,104.3125 287.5156,104.625 Q287.8281,104.9219 287.8281,105.3281 Q287.8281,105.7344 287.4219,106.2031 Q286.8281,106.8906 285.8906,107.2813 Q284.625,107.8125 283.1094,107.8125 Q281.3281,107.8125 279.9063,107.0781 Q278.75,106.4844 277.9375,105.2188 Q277.125,103.9531 277.125,102.4688 L277.125,101.1094 Q277.125,99.5469 277.8438,98.2031 Q278.5781,96.8438 279.8594,96.1094 Q281.1563,95.375 282.6094,95.375 Q283.4688,95.375 284.2188,95.5781 Q284.9844,95.7813 285.6406,96.1875 Z " fill="#000000"/><text fill="#000000" font-family="sans-serif" font-size="20" font-style="italic" lengthAdjust="spacing" textLength="133" x="352.5" y="96.8711">«Presentation»</text><text fill="#000000" font-family="sans-serif" font-size="20" lengthAdjust="spacing" textLength="241" x="298.5" y="122.0273">DisplayAllApplicationDataUI</text><line style="stroke:#181818;stroke-width:0.5;" x1="268.5" x2="541.5" y1="131.4219" y2="131.4219"/><line style="stroke:#181818;stroke-width:0.5;" x1="268.5" x2="541.5" y1="139.4219" y2="139.4219"/></g><!--class DisplayAllApplicationDataController--><g id="elem_DisplayAllApplicationDataController"><rect codeLine="9" fill="#F1F1F1" height="126.625" id="DisplayAllApplicationDataController" rx="2.5" ry="2.5" style="stroke:#181818;stroke-width:0.5;" width="341" x="713.5" y="233.6094"/><ellipse cx="729.5" cy="263.7656" fill="#ADD1B2" rx="12" ry="12" style="stroke:#181818;stroke-width:1.0;"/><path d="M731.6406,258.6875 Q731.8281,258.4375 732.0469,258.3125 Q732.2656,258.1719 732.5156,258.1719 Q732.9531,258.1719 733.2344,258.4844 Q733.5156,258.7813 733.5156,259.5 L733.5156,261.2031 Q733.5156,261.9219 733.2344,262.2344 Q732.9531,262.5469 732.5156,262.5469 Q732.125,262.5469 731.875,262.3125 Q731.625,262.0938 731.5156,261.4844 Q731.4531,261.0625 731.2344,260.8438 Q730.8438,260.4063 730.125,260.1406 Q729.4063,259.875 728.6875,259.875 Q727.7813,259.875 727.0313,260.2656 Q726.2813,260.6563 725.7031,261.5469 Q725.125,262.4219 725.125,263.625 L725.125,264.9219 Q725.125,266.375 726.1719,267.3438 Q727.2344,268.3125 729.0938,268.3125 Q730.2031,268.3125 730.9844,268 Q731.4219,267.8281 731.9375,267.3125 Q732.25,267 732.4219,266.9063 Q732.5938,266.8125 732.8281,266.8125 Q733.2188,266.8125 733.5156,267.125 Q733.8281,267.4219 733.8281,267.8281 Q733.8281,268.2344 733.4219,268.7031 Q732.8281,269.3906 731.8906,269.7813 Q730.625,270.3125 729.1094,270.3125 Q727.3281,270.3125 725.9063,269.5781 Q724.75,268.9844 723.9375,267.7188 Q723.125,266.4531 723.125,264.9688 L723.125,263.6094 Q723.125,262.0469 723.8438,260.7031 Q724.5781,259.3438 725.8594,258.6094 Q727.1563,257.875 728.6094,257.875 Q729.4688,257.875 730.2188,258.0781 Q730.9844,258.2813 731.6406,258.6875 Z " fill="#000000"/><text fill="#000000" font-family="sans-serif" font-size="20" font-style="italic" lengthAdjust="spacing" textLength="120" x="838" y="259.3711">«Application»</text><text fill="#000000" font-family="sans-serif" font-size="20" lengthAdjust="spacing" textLength="307" x="744.5" y="284.5273">DisplayAllApplicationDataController</text><line style="stroke:#181818;stroke-width:0.5;" x1="714.5" x2="1053.5" y1="293.9219" y2="293.9219"/><line style="stroke:#181818;stroke-width:0.5;" x1="714.5" x2="1053.5" y1="301.9219" y2="301.9219"/><ellipse cx="724.5" cy="320" fill="#84BE84" rx="3" ry="3" style="stroke:#038048;stroke-width:1.0;"/><text fill="#000000" font-family="sans-serif" font-size="20" lengthAdjust="spacing" textLength="168" x="734.5" y="326.6836">getApplicationList()</text><ellipse cx="724.5" cy="345.1563" fill="#84BE84" rx="3" ry="3" style="stroke:#038048;stroke-width:1.0;"/><text fill="#000000" font-family="sans-serif" font-size="20" lengthAdjust="spacing" textLength="178" x="734.5" y="351.8398">getJobOpeningList()</text></g><!--class JobOpeningManagementService--><g id="elem_JobOpeningManagementService"><rect codeLine="15" fill="#F1F1F1" height="151.7813" id="JobOpeningManagementService" rx="2.5" ry="2.5" style="stroke:#181818;stroke-width:0.5;" width="421" x="349.5" y="421.6094"/><ellipse cx="413.5" cy="451.7656" fill="#ADD1B2" rx="12" ry="12" style="stroke:#181818;stroke-width:1.0;"/><path d="M415.6406,446.6875 Q415.8281,446.4375 416.0469,446.3125 Q416.2656,446.1719 416.5156,446.1719 Q416.9531,446.1719 417.2344,446.4844 Q417.5156,446.7813 417.5156,447.5 L417.5156,449.2031 Q417.5156,449.9219 417.2344,450.2344 Q416.9531,450.5469 416.5156,450.5469 Q416.125,450.5469 415.875,450.3125 Q415.625,450.0938 415.5156,449.4844 Q415.4531,449.0625 415.2344,448.8438 Q414.8438,448.4063 414.125,448.1406 Q413.4063,447.875 412.6875,447.875 Q411.7813,447.875 411.0313,448.2656 Q410.2813,448.6563 409.7031,449.5469 Q409.125,450.4219 409.125,451.625 L409.125,452.9219 Q409.125,454.375 410.1719,455.3438 Q411.2344,456.3125 413.0938,456.3125 Q414.2031,456.3125 414.9844,456 Q415.4219,455.8281 415.9375,455.3125 Q416.25,455 416.4219,454.9063 Q416.5938,454.8125 416.8281,454.8125 Q417.2188,454.8125 417.5156,455.125 Q417.8281,455.4219 417.8281,455.8281 Q417.8281,456.2344 417.4219,456.7031 Q416.8281,457.3906 415.8906,457.7813 Q414.625,458.3125 413.1094,458.3125 Q411.3281,458.3125 409.9063,457.5781 Q408.75,456.9844 407.9375,455.7188 Q407.125,454.4531 407.125,452.9688 L407.125,451.6094 Q407.125,450.0469 407.8438,448.7031 Q408.5781,447.3438 409.8594,446.6094 Q411.1563,445.875 412.6094,445.875 Q413.4688,445.875 414.2188,446.0781 Q414.9844,446.2813 415.6406,446.6875 Z " fill="#000000"/><text fill="#000000" font-family="sans-serif" font-size="20" font-style="italic" lengthAdjust="spacing" textLength="89" x="533" y="447.3711">«Service»</text><text fill="#000000" font-family="sans-serif" font-size="20" lengthAdjust="spacing" textLength="284" x="435.5" y="472.5273">JobOpeningManagementService</text><line style="stroke:#181818;stroke-width:0.5;" x1="350.5" x2="769.5" y1="481.9219" y2="481.9219"/><line style="stroke:#181818;stroke-width:0.5;" x1="350.5" x2="769.5" y1="489.9219" y2="489.9219"/><ellipse cx="360.5" cy="508" fill="#84BE84" rx="3" ry="3" style="stroke:#038048;stroke-width:1.0;"/><text fill="#000000" font-family="sans-serif" font-size="20" lengthAdjust="spacing" textLength="394" x="370.5" y="514.6836">jobOpeningsOfCustomerManager(username)</text><ellipse cx="360.5" cy="533.1563" fill="#84BE84" rx="3" ry="3" style="stroke:#038048;stroke-width:1.0;"/><text fill="#000000" font-family="sans-serif" font-size="20" lengthAdjust="spacing" textLength="340" x="370.5" y="539.8398">getApplicationList(jobOpeningDTOList)</text><ellipse cx="360.5" cy="558.3125" fill="#84BE84" rx="3" ry="3" style="stroke:#038048;stroke-width:1.0;"/><text fill="#000000" font-family="sans-serif" font-size="20" lengthAdjust="spacing" textLength="213" x="370.5" y="564.9961">add(applicationListDTO)</text></g><!--class JobOpeningDTOService--><g id="elem_JobOpeningDTOService"><rect codeLine="21" fill="#F1F1F1" height="101.4688" id="JobOpeningDTOService" rx="2.5" ry="2.5" style="stroke:#181818;stroke-width:0.5;" width="300" x="7" y="760.1094"/><ellipse cx="47.3" cy="790.2656" fill="#ADD1B2" rx="12" ry="12" style="stroke:#181818;stroke-width:1.0;"/><path d="M49.4406,785.1875 Q49.6281,784.9375 49.8469,784.8125 Q50.0656,784.6719 50.3156,784.6719 Q50.7531,784.6719 51.0344,784.9844 Q51.3156,785.2813 51.3156,786 L51.3156,787.7031 Q51.3156,788.4219 51.0344,788.7344 Q50.7531,789.0469 50.3156,789.0469 Q49.925,789.0469 49.675,788.8125 Q49.425,788.5938 49.3156,787.9844 Q49.2531,787.5625 49.0344,787.3438 Q48.6438,786.9063 47.925,786.6406 Q47.2063,786.375 46.4875,786.375 Q45.5813,786.375 44.8313,786.7656 Q44.0813,787.1563 43.5031,788.0469 Q42.925,788.9219 42.925,790.125 L42.925,791.4219 Q42.925,792.875 43.9719,793.8438 Q45.0344,794.8125 46.8938,794.8125 Q48.0031,794.8125 48.7844,794.5 Q49.2219,794.3281 49.7375,793.8125 Q50.05,793.5 50.2219,793.4063 Q50.3938,793.3125 50.6281,793.3125 Q51.0188,793.3125 51.3156,793.625 Q51.6281,793.9219 51.6281,794.3281 Q51.6281,794.7344 51.2219,795.2031 Q50.6281,795.8906 49.6906,796.2813 Q48.425,796.8125 46.9094,796.8125 Q45.1281,796.8125 43.7063,796.0781 Q42.55,795.4844 41.7375,794.2188 Q40.925,792.9531 40.925,791.4688 L40.925,790.1094 Q40.925,788.5469 41.6438,787.2031 Q42.3781,785.8438 43.6594,785.1094 Q44.9563,784.375 46.4094,784.375 Q47.2688,784.375 48.0188,784.5781 Q48.7844,784.7813 49.4406,785.1875 Z " fill="#000000"/><text fill="#000000" font-family="sans-serif" font-size="20" font-style="italic" lengthAdjust="spacing" textLength="89" x="129.2" y="785.8711">«Service»</text><text fill="#000000" font-family="sans-serif" font-size="20" lengthAdjust="spacing" textLength="212" x="67.7" y="811.0273">JobOpeningDTOService</text><line style="stroke:#181818;stroke-width:0.5;" x1="8" x2="306" y1="820.4219" y2="820.4219"/><line style="stroke:#181818;stroke-width:0.5;" x1="8" x2="306" y1="828.4219" y2="828.4219"/><ellipse cx="18" cy="846.5" fill="#84BE84" rx="3" ry="3" style="stroke:#038048;stroke-width:1.0;"/><text fill="#000000" font-family="sans-serif" font-size="20" lengthAdjust="spacing" textLength="273" x="28" y="853.1836">convertToDTO(jobOpeningList)</text></g><!--class ApplicationManagementService--><g id="elem_ApplicationManagementService"><rect codeLine="25" fill="#F1F1F1" height="101.4688" id="ApplicationManagementService" rx="2.5" ry="2.5" style="stroke:#181818;stroke-width:0.5;" width="308" x="1640" y="447.1094"/><ellipse cx="1656" cy="477.2656" fill="#ADD1B2" rx="12" ry="12" style="stroke:#181818;stroke-width:1.0;"/><path d="M1658.1406,472.1875 Q1658.3281,471.9375 1658.5469,471.8125 Q1658.7656,471.6719 1659.0156,471.6719 Q1659.4531,471.6719 1659.7344,471.9844 Q1660.0156,472.2813 1660.0156,473 L1660.0156,474.7031 Q1660.0156,475.4219 1659.7344,475.7344 Q1659.4531,476.0469 1659.0156,476.0469 Q1658.625,476.0469 1658.375,475.8125 Q1658.125,475.5938 1658.0156,474.9844 Q1657.9531,474.5625 1657.7344,474.3438 Q1657.3438,473.9063 1656.625,473.6406 Q1655.9063,473.375 1655.1875,473.375 Q1654.2813,473.375 1653.5313,473.7656 Q1652.7813,474.1563 1652.2031,475.0469 Q1651.625,475.9219 1651.625,477.125 L1651.625,478.4219 Q1651.625,479.875 1652.6719,480.8438 Q1653.7344,481.8125 1655.5938,481.8125 Q1656.7031,481.8125 1657.4844,481.5 Q1657.9219,481.3281 1658.4375,480.8125 Q1658.75,480.5 1658.9219,480.4063 Q1659.0938,480.3125 1659.3281,480.3125 Q1659.7188,480.3125 1660.0156,480.625 Q1660.3281,480.9219 1660.3281,481.3281 Q1660.3281,481.7344 1659.9219,482.2031 Q1659.3281,482.8906 1658.3906,483.2813 Q1657.125,483.8125 1655.6094,483.8125 Q1653.8281,483.8125 1652.4063,483.0781 Q1651.25,482.4844 1650.4375,481.2188 Q1649.625,479.9531 1649.625,478.4688 L1649.625,477.1094 Q1649.625,475.5469 1650.3438,474.2031 Q1651.0781,472.8438 1652.3594,472.1094 Q1653.6563,471.375 1655.1094,471.375 Q1655.9688,471.375 1656.7188,471.5781 Q1657.4844,471.7813 1658.1406,472.1875 Z " fill="#000000"/><text fill="#000000" font-family="sans-serif" font-size="20" font-style="italic" lengthAdjust="spacing" textLength="89" x="1763.5" y="472.8711">«Service»</text><text fill="#000000" font-family="sans-serif" font-size="20" lengthAdjust="spacing" textLength="274" x="1671" y="498.0273">ApplicationManagementService</text><line style="stroke:#181818;stroke-width:0.5;" x1="1641" x2="1947" y1="507.4219" y2="507.4219"/><line style="stroke:#181818;stroke-width:0.5;" x1="1641" x2="1947" y1="515.4219" y2="515.4219"/><ellipse cx="1651" cy="533.5" fill="#84BE84" rx="3" ry="3" style="stroke:#038048;stroke-width:1.0;"/><text fill="#000000" font-family="sans-serif" font-size="20" lengthAdjust="spacing" textLength="277" x="1661" y="540.1836">getApplicationsList(jobOpening)</text></g><!--class ApplicationDTOService--><g id="elem_ApplicationDTOService"><rect codeLine="29" fill="#F1F1F1" height="101.4688" id="ApplicationDTOService" rx="2.5" ry="2.5" style="stroke:#181818;stroke-width:0.5;" width="294" x="847" y="603.6094"/><ellipse cx="889.1" cy="633.7656" fill="#ADD1B2" rx="12" ry="12" style="stroke:#181818;stroke-width:1.0;"/><path d="M891.2406,628.6875 Q891.4281,628.4375 891.6469,628.3125 Q891.8656,628.1719 892.1156,628.1719 Q892.5531,628.1719 892.8344,628.4844 Q893.1156,628.7813 893.1156,629.5 L893.1156,631.2031 Q893.1156,631.9219 892.8344,632.2344 Q892.5531,632.5469 892.1156,632.5469 Q891.725,632.5469 891.475,632.3125 Q891.225,632.0938 891.1156,631.4844 Q891.0531,631.0625 890.8344,630.8438 Q890.4438,630.4063 889.725,630.1406 Q889.0063,629.875 888.2875,629.875 Q887.3813,629.875 886.6313,630.2656 Q885.8813,630.6563 885.3031,631.5469 Q884.725,632.4219 884.725,633.625 L884.725,634.9219 Q884.725,636.375 885.7719,637.3438 Q886.8344,638.3125 888.6938,638.3125 Q889.8031,638.3125 890.5844,638 Q891.0219,637.8281 891.5375,637.3125 Q891.85,637 892.0219,636.9063 Q892.1938,636.8125 892.4281,636.8125 Q892.8188,636.8125 893.1156,637.125 Q893.4281,637.4219 893.4281,637.8281 Q893.4281,638.2344 893.0219,638.7031 Q892.4281,639.3906 891.4906,639.7813 Q890.225,640.3125 888.7094,640.3125 Q886.9281,640.3125 885.5063,639.5781 Q884.35,638.9844 883.5375,637.7188 Q882.725,636.4531 882.725,634.9688 L882.725,633.6094 Q882.725,632.0469 883.4438,630.7031 Q884.1781,629.3438 885.4594,628.6094 Q886.7563,627.875 888.2094,627.875 Q889.0688,627.875 889.8188,628.0781 Q890.5844,628.2813 891.2406,628.6875 Z " fill="#000000"/><text fill="#000000" font-family="sans-serif" font-size="20" font-style="italic" lengthAdjust="spacing" textLength="89" x="966.4" y="629.3711">«Service»</text><text fill="#000000" font-family="sans-serif" font-size="20" lengthAdjust="spacing" textLength="202" x="909.9" y="654.5273">ApplicationDTOService</text><line style="stroke:#181818;stroke-width:0.5;" x1="848" x2="1140" y1="663.9219" y2="663.9219"/><line style="stroke:#181818;stroke-width:0.5;" x1="848" x2="1140" y1="671.9219" y2="671.9219"/><ellipse cx="858" cy="690" fill="#84BE84" rx="3" ry="3" style="stroke:#038048;stroke-width:1.0;"/><text fill="#000000" font-family="sans-serif" font-size="20" lengthAdjust="spacing" textLength="267" x="868" y="696.6836">convertToDTO(applicationList)</text></g><!--class AuthenticationService--><g id="elem_AuthenticationService"><rect codeLine="34" fill="#F1F1F1" height="126.625" id="AuthenticationService" rx="2.5" ry="2.5" style="stroke:#181818;stroke-width:0.5;" width="613" x="577.5" y="45.6094"/><ellipse cx="786" cy="88.3438" fill="#ADD1B2" rx="12" ry="12" style="stroke:#181818;stroke-width:1.0;"/><path d="M788.1406,83.2656 Q788.3281,83.0156 788.5469,82.8906 Q788.7656,82.75 789.0156,82.75 Q789.4531,82.75 789.7344,83.0625 Q790.0156,83.3594 790.0156,84.0781 L790.0156,85.7813 Q790.0156,86.5 789.7344,86.8125 Q789.4531,87.125 789.0156,87.125 Q788.625,87.125 788.375,86.8906 Q788.125,86.6719 788.0156,86.0625 Q787.9531,85.6406 787.7344,85.4219 Q787.3438,84.9844 786.625,84.7188 Q785.9063,84.4531 785.1875,84.4531 Q784.2813,84.4531 783.5313,84.8438 Q782.7813,85.2344 782.2031,86.125 Q781.625,87 781.625,88.2031 L781.625,89.5 Q781.625,90.9531 782.6719,91.9219 Q783.7344,92.8906 785.5938,92.8906 Q786.7031,92.8906 787.4844,92.5781 Q787.9219,92.4063 788.4375,91.8906 Q788.75,91.5781 788.9219,91.4844 Q789.0938,91.3906 789.3281,91.3906 Q789.7188,91.3906 790.0156,91.7031 Q790.3281,92 790.3281,92.4063 Q790.3281,92.8125 789.9219,93.2813 Q789.3281,93.9688 788.3906,94.3594 Q787.125,94.8906 785.6094,94.8906 Q783.8281,94.8906 782.4063,94.1563 Q781.25,93.5625 780.4375,92.2969 Q779.625,91.0313 779.625,89.5469 L779.625,88.1875 Q779.625,86.625 780.3438,85.2813 Q781.0781,83.9219 782.3594,83.1875 Q783.6563,82.4531 785.1094,82.4531 Q785.9688,82.4531 786.7188,82.6563 Q787.4844,82.8594 788.1406,83.2656 Z " fill="#000000"/><text fill="#000000" font-family="sans-serif" font-size="20" font-style="italic" lengthAdjust="spacing" textLength="120" x="841.5" y="71.3711">«Application»</text><text fill="#000000" font-family="sans-serif" font-size="20" font-style="italic" lengthAdjust="spacing" textLength="89" x="857" y="96.5273">«Service»</text><text fill="#000000" font-family="sans-serif" font-size="20" lengthAdjust="spacing" textLength="187" x="808" y="121.6836">AuthenticationService</text><line style="stroke:#181818;stroke-width:0.5;" x1="578.5" x2="1189.5" y1="131.0781" y2="131.0781"/><line style="stroke:#181818;stroke-width:0.5;" x1="578.5" x2="1189.5" y1="139.0781" y2="139.0781"/><ellipse cx="588.5" cy="157.1563" fill="#84BE84" rx="3" ry="3" style="stroke:#038048;stroke-width:1.0;"/><text fill="#000000" font-family="sans-serif" font-size="20" lengthAdjust="spacing" textLength="586" x="598.5" y="163.8398">loggedinUserWithPermissions(BaseRole.CUSTOMER_MANAGER)</text></g><!--class CustomerManager--><g id="elem_CustomerManager"><rect codeLine="38" fill="#F1F1F1" height="126.625" id="CustomerManager" rx="2.5" ry="2.5" style="stroke:#181818;stroke-width:0.5;" width="197" x="1225.5" y="45.6094"/><ellipse cx="1241.5" cy="88.3438" fill="#ADD1B2" rx="12" ry="12" style="stroke:#181818;stroke-width:1.0;"/><path d="M1243.6406,83.2656 Q1243.8281,83.0156 1244.0469,82.8906 Q1244.2656,82.75 1244.5156,82.75 Q1244.9531,82.75 1245.2344,83.0625 Q1245.5156,83.3594 1245.5156,84.0781 L1245.5156,85.7813 Q1245.5156,86.5 1245.2344,86.8125 Q1244.9531,87.125 1244.5156,87.125 Q1244.125,87.125 1243.875,86.8906 Q1243.625,86.6719 1243.5156,86.0625 Q1243.4531,85.6406 1243.2344,85.4219 Q1242.8438,84.9844 1242.125,84.7188 Q1241.4063,84.4531 1240.6875,84.4531 Q1239.7813,84.4531 1239.0313,84.8438 Q1238.2813,85.2344 1237.7031,86.125 Q1237.125,87 1237.125,88.2031 L1237.125,89.5 Q1237.125,90.9531 1238.1719,91.9219 Q1239.2344,92.8906 1241.0938,92.8906 Q1242.2031,92.8906 1242.9844,92.5781 Q1243.4219,92.4063 1243.9375,91.8906 Q1244.25,91.5781 1244.4219,91.4844 Q1244.5938,91.3906 1244.8281,91.3906 Q1245.2188,91.3906 1245.5156,91.7031 Q1245.8281,92 1245.8281,92.4063 Q1245.8281,92.8125 1245.4219,93.2813 Q1244.8281,93.9688 1243.8906,94.3594 Q1242.625,94.8906 1241.1094,94.8906 Q1239.3281,94.8906 1237.9063,94.1563 Q1236.75,93.5625 1235.9375,92.2969 Q1235.125,91.0313 1235.125,89.5469 L1235.125,88.1875 Q1235.125,86.625 1235.8438,85.2813 Q1236.5781,83.9219 1237.8594,83.1875 Q1239.1563,82.4531 1240.6094,82.4531 Q1241.4688,82.4531 1242.2188,82.6563 Q1242.9844,82.8594 1243.6406,83.2656 Z " fill="#000000"/><text fill="#000000" font-family="sans-serif" font-size="20" font-style="italic" lengthAdjust="spacing" textLength="91" x="1292.5" y="71.3711">«Domain»</text><text fill="#000000" font-family="sans-serif" font-size="20" font-style="italic" lengthAdjust="spacing" textLength="160" x="1258" y="96.5273">«Aggregate Root»</text><text fill="#000000" font-family="sans-serif" font-size="20" lengthAdjust="spacing" textLength="163" x="1256.5" y="121.6836">CustomerManager</text><line style="stroke:#181818;stroke-width:0.5;" x1="1226.5" x2="1421.5" y1="131.0781" y2="131.0781"/><line style="stroke:#181818;stroke-width:0.5;" x1="1226.5" x2="1421.5" y1="139.0781" y2="139.0781"/><ellipse cx="1236.5" cy="157.1563" fill="#84BE84" rx="3" ry="3" style="stroke:#038048;stroke-width:1.0;"/><text fill="#000000" font-family="sans-serif" font-size="20" lengthAdjust="spacing" textLength="142" x="1246.5" y="163.8398">customerCode()</text></g><!--class JobOpening--><g id="elem_JobOpening"><rect codeLine="42" fill="#F1F1F1" height="353.0313" id="JobOpening" rx="2.5" ry="2.5" style="stroke:#181818;stroke-width:0.5;" width="342" x="189" y="973.6094"/><ellipse cx="277.5" cy="1016.3438" fill="#ADD1B2" rx="12" ry="12" style="stroke:#181818;stroke-width:1.0;"/><path d="M279.6406,1011.2656 Q279.8281,1011.0156 280.0469,1010.8906 Q280.2656,1010.75 280.5156,1010.75 Q280.9531,1010.75 281.2344,1011.0625 Q281.5156,1011.3594 281.5156,1012.0781 L281.5156,1013.7813 Q281.5156,1014.5 281.2344,1014.8125 Q280.9531,1015.125 280.5156,1015.125 Q280.125,1015.125 279.875,1014.8906 Q279.625,1014.6719 279.5156,1014.0625 Q279.4531,1013.6406 279.2344,1013.4219 Q278.8438,1012.9844 278.125,1012.7188 Q277.4063,1012.4531 276.6875,1012.4531 Q275.7813,1012.4531 275.0313,1012.8438 Q274.2813,1013.2344 273.7031,1014.125 Q273.125,1015 273.125,1016.2031 L273.125,1017.5 Q273.125,1018.9531 274.1719,1019.9219 Q275.2344,1020.8906 277.0938,1020.8906 Q278.2031,1020.8906 278.9844,1020.5781 Q279.4219,1020.4063 279.9375,1019.8906 Q280.25,1019.5781 280.4219,1019.4844 Q280.5938,1019.3906 280.8281,1019.3906 Q281.2188,1019.3906 281.5156,1019.7031 Q281.8281,1020 281.8281,1020.4063 Q281.8281,1020.8125 281.4219,1021.2813 Q280.8281,1021.9688 279.8906,1022.3594 Q278.625,1022.8906 277.1094,1022.8906 Q275.3281,1022.8906 273.9063,1022.1563 Q272.75,1021.5625 271.9375,1020.2969 Q271.125,1019.0313 271.125,1017.5469 L271.125,1016.1875 Q271.125,1014.625 271.8438,1013.2813 Q272.5781,1011.9219 273.8594,1011.1875 Q275.1563,1010.4531 276.6094,1010.4531 Q277.4688,1010.4531 278.2188,1010.6563 Q278.9844,1010.8594 279.6406,1011.2656 Z " fill="#000000"/><text fill="#000000" font-family="sans-serif" font-size="20" font-style="italic" lengthAdjust="spacing" textLength="91" x="332" y="999.3711">«Domain»</text><text fill="#000000" font-family="sans-serif" font-size="20" font-style="italic" lengthAdjust="spacing" textLength="160" x="297.5" y="1024.5273">«Aggregate Root»</text><text fill="#000000" font-family="sans-serif" font-size="20" lengthAdjust="spacing" textLength="105" x="325" y="1049.6836">JobOpening</text><line style="stroke:#181818;stroke-width:0.5;" x1="190" x2="530" y1="1059.0781" y2="1059.0781"/><rect fill="none" height="6" style="stroke:#C82930;stroke-width:1.0;" width="6" x="197" y="1074.1563"/><text fill="#000000" font-family="sans-serif" font-size="20" lengthAdjust="spacing" textLength="136" x="210" y="1083.8398">function : String</text><rect fill="none" height="6" style="stroke:#C82930;stroke-width:1.0;" width="6" x="197" y="1099.3125"/><text fill="#000000" font-family="sans-serif" font-size="20" lengthAdjust="spacing" textLength="252" x="210" y="1108.9961">contractType : ContractType</text><rect fill="none" height="6" style="stroke:#C82930;stroke-width:1.0;" width="6" x="197" y="1124.4688"/><text fill="#000000" font-family="sans-serif" font-size="20" lengthAdjust="spacing" textLength="208" x="210" y="1134.1523">workMode : WorkMode</text><rect fill="none" height="6" style="stroke:#C82930;stroke-width:1.0;" width="6" x="197" y="1149.625"/><text fill="#000000" font-family="sans-serif" font-size="20" lengthAdjust="spacing" textLength="243" x="210" y="1159.3086">companyAddress : Address</text><rect fill="none" height="6" style="stroke:#C82930;stroke-width:1.0;" width="6" x="197" y="1174.7813"/><text fill="#000000" font-family="sans-serif" font-size="20" lengthAdjust="spacing" textLength="197" x="210" y="1184.4648">costumerCode : String</text><rect fill="none" height="6" style="stroke:#C82930;stroke-width:1.0;" width="6" x="197" y="1199.9375"/><text fill="#000000" font-family="sans-serif" font-size="20" lengthAdjust="spacing" textLength="199" x="210" y="1209.6211">companyName : String</text><rect fill="none" height="6" style="stroke:#C82930;stroke-width:1.0;" width="6" x="197" y="1225.0938"/><text fill="#000000" font-family="sans-serif" font-size="20" lengthAdjust="spacing" textLength="206" x="210" y="1234.7773">numVacancies : Integer</text><rect fill="none" height="6" style="stroke:#C82930;stroke-width:1.0;" width="6" x="197" y="1250.25"/><text fill="#000000" font-family="sans-serif" font-size="20" lengthAdjust="spacing" textLength="164" x="210" y="1259.9336">description : String</text><rect fill="none" height="6" style="stroke:#C82930;stroke-width:1.0;" width="6" x="197" y="1275.4063"/><text fill="#000000" font-family="sans-serif" font-size="20" lengthAdjust="spacing" textLength="315" x="210" y="1285.0898">requirementsSpecificationsFile : File</text><line style="stroke:#181818;stroke-width:0.5;" x1="190" x2="530" y1="1293.4844" y2="1293.4844"/><ellipse cx="200" cy="1311.5625" fill="#84BE84" rx="3" ry="3" style="stroke:#038048;stroke-width:1.0;"/><text fill="#000000" font-family="sans-serif" font-size="20" lengthAdjust="spacing" textLength="73" x="210" y="1318.2461">toDTO()</text></g><!--class Application--><g id="elem_Application"><rect codeLine="55" fill="#F1F1F1" height="353.0313" id="Application" rx="2.5" ry="2.5" style="stroke:#181818;stroke-width:0.5;" width="266" x="1378" y="1413.6094"/><ellipse cx="1428.5" cy="1456.3438" fill="#ADD1B2" rx="12" ry="12" style="stroke:#181818;stroke-width:1.0;"/><path d="M1430.6406,1451.2656 Q1430.8281,1451.0156 1431.0469,1450.8906 Q1431.2656,1450.75 1431.5156,1450.75 Q1431.9531,1450.75 1432.2344,1451.0625 Q1432.5156,1451.3594 1432.5156,1452.0781 L1432.5156,1453.7813 Q1432.5156,1454.5 1432.2344,1454.8125 Q1431.9531,1455.125 1431.5156,1455.125 Q1431.125,1455.125 1430.875,1454.8906 Q1430.625,1454.6719 1430.5156,1454.0625 Q1430.4531,1453.6406 1430.2344,1453.4219 Q1429.8438,1452.9844 1429.125,1452.7188 Q1428.4063,1452.4531 1427.6875,1452.4531 Q1426.7813,1452.4531 1426.0313,1452.8438 Q1425.2813,1453.2344 1424.7031,1454.125 Q1424.125,1455 1424.125,1456.2031 L1424.125,1457.5 Q1424.125,1458.9531 1425.1719,1459.9219 Q1426.2344,1460.8906 1428.0938,1460.8906 Q1429.2031,1460.8906 1429.9844,1460.5781 Q1430.4219,1460.4063 1430.9375,1459.8906 Q1431.25,1459.5781 1431.4219,1459.4844 Q1431.5938,1459.3906 1431.8281,1459.3906 Q1432.2188,1459.3906 1432.5156,1459.7031 Q1432.8281,1460 1432.8281,1460.4063 Q1432.8281,1460.8125 1432.4219,1461.2813 Q1431.8281,1461.9688 1430.8906,1462.3594 Q1429.625,1462.8906 1428.1094,1462.8906 Q1426.3281,1462.8906 1424.9063,1462.1563 Q1423.75,1461.5625 1422.9375,1460.2969 Q1422.125,1459.0313 1422.125,1457.5469 L1422.125,1456.1875 Q1422.125,1454.625 1422.8438,1453.2813 Q1423.5781,1451.9219 1424.8594,1451.1875 Q1426.1563,1450.4531 1427.6094,1450.4531 Q1428.4688,1450.4531 1429.2188,1450.6563 Q1429.9844,1450.8594 1430.6406,1451.2656 Z " fill="#000000"/><text fill="#000000" font-family="sans-serif" font-size="20" font-style="italic" lengthAdjust="spacing" textLength="91" x="1483" y="1439.3711">«Domain»</text><text fill="#000000" font-family="sans-serif" font-size="20" font-style="italic" lengthAdjust="spacing" textLength="160" x="1448.5" y="1464.5273">«Aggregate Root»</text><text fill="#000000" font-family="sans-serif" font-size="20" lengthAdjust="spacing" textLength="95" x="1481" y="1489.6836">Application</text><line style="stroke:#181818;stroke-width:0.5;" x1="1379" x2="1643" y1="1499.0781" y2="1499.0781"/><rect fill="none" height="6" style="stroke:#C82930;stroke-width:1.0;" width="6" x="1386" y="1514.1563"/><text fill="#000000" font-family="sans-serif" font-size="20" lengthAdjust="spacing" textLength="239" x="1399" y="1523.8398">requirementAnswer : String</text><rect fill="none" height="6" style="stroke:#C82930;stroke-width:1.0;" width="6" x="1386" y="1539.3125"/><text fill="#000000" font-family="sans-serif" font-size="20" lengthAdjust="spacing" textLength="239" x="1399" y="1548.9961">requirementResult : Integer</text><rect fill="none" height="6" style="stroke:#C82930;stroke-width:1.0;" width="6" x="1386" y="1564.4688"/><text fill="#000000" font-family="sans-serif" font-size="20" lengthAdjust="spacing" textLength="74" x="1399" y="1574.1523">file : File</text><rect fill="none" height="6" style="stroke:#C82930;stroke-width:1.0;" width="6" x="1386" y="1589.625"/><text fill="#000000" font-family="sans-serif" font-size="20" lengthAdjust="spacing" textLength="115" x="1399" y="1599.3086">email : String</text><rect fill="none" height="6" style="stroke:#C82930;stroke-width:1.0;" width="6" x="1386" y="1614.7813"/><text fill="#000000" font-family="sans-serif" font-size="20" lengthAdjust="spacing" textLength="195" x="1399" y="1624.4648">applicationDate : Date</text><rect fill="none" height="6" style="stroke:#C82930;stroke-width:1.0;" width="6" x="1386" y="1639.9375"/><text fill="#000000" font-family="sans-serif" font-size="20" lengthAdjust="spacing" textLength="238" x="1399" y="1649.6211">applicationStatus : Boolean</text><rect fill="none" height="6" style="stroke:#C82930;stroke-width:1.0;" width="6" x="1386" y="1665.0938"/><text fill="#000000" font-family="sans-serif" font-size="20" lengthAdjust="spacing" textLength="205" x="1399" y="1674.7773">candidateName : String</text><rect fill="none" height="6" style="stroke:#C82930;stroke-width:1.0;" width="6" x="1386" y="1690.25"/><text fill="#000000" font-family="sans-serif" font-size="20" lengthAdjust="spacing" textLength="201" x="1399" y="1699.9336">phoneNumber : Integer</text><rect fill="none" height="6" style="stroke:#C82930;stroke-width:1.0;" width="6" x="1386" y="1715.4063"/><text fill="#000000" font-family="sans-serif" font-size="20" lengthAdjust="spacing" textLength="174" x="1399" y="1725.0898">interview : Interview</text><line style="stroke:#181818;stroke-width:0.5;" x1="1379" x2="1643" y1="1733.4844" y2="1733.4844"/><ellipse cx="1389" cy="1751.5625" fill="#84BE84" rx="3" ry="3" style="stroke:#038048;stroke-width:1.0;"/><text fill="#000000" font-family="sans-serif" font-size="20" lengthAdjust="spacing" textLength="73" x="1399" y="1758.2461">toDTO()</text></g><!--class Interview--><g id="elem_Interview"><rect codeLine="68" fill="#F1F1F1" height="277.5625" id="Interview" rx="2.5" ry="2.5" style="stroke:#181818;stroke-width:0.5;" width="335" x="1500.5" y="1011.1094"/><ellipse cx="1597.5" cy="1053.8438" fill="#ADD1B2" rx="12" ry="12" style="stroke:#181818;stroke-width:1.0;"/><path d="M1599.6406,1048.7656 Q1599.8281,1048.5156 1600.0469,1048.3906 Q1600.2656,1048.25 1600.5156,1048.25 Q1600.9531,1048.25 1601.2344,1048.5625 Q1601.5156,1048.8594 1601.5156,1049.5781 L1601.5156,1051.2813 Q1601.5156,1052 1601.2344,1052.3125 Q1600.9531,1052.625 1600.5156,1052.625 Q1600.125,1052.625 1599.875,1052.3906 Q1599.625,1052.1719 1599.5156,1051.5625 Q1599.4531,1051.1406 1599.2344,1050.9219 Q1598.8438,1050.4844 1598.125,1050.2188 Q1597.4063,1049.9531 1596.6875,1049.9531 Q1595.7813,1049.9531 1595.0313,1050.3438 Q1594.2813,1050.7344 1593.7031,1051.625 Q1593.125,1052.5 1593.125,1053.7031 L1593.125,1055 Q1593.125,1056.4531 1594.1719,1057.4219 Q1595.2344,1058.3906 1597.0938,1058.3906 Q1598.2031,1058.3906 1598.9844,1058.0781 Q1599.4219,1057.9063 1599.9375,1057.3906 Q1600.25,1057.0781 1600.4219,1056.9844 Q1600.5938,1056.8906 1600.8281,1056.8906 Q1601.2188,1056.8906 1601.5156,1057.2031 Q1601.8281,1057.5 1601.8281,1057.9063 Q1601.8281,1058.3125 1601.4219,1058.7813 Q1600.8281,1059.4688 1599.8906,1059.8594 Q1598.625,1060.3906 1597.1094,1060.3906 Q1595.3281,1060.3906 1593.9063,1059.6563 Q1592.75,1059.0625 1591.9375,1057.7969 Q1591.125,1056.5313 1591.125,1055.0469 L1591.125,1053.6875 Q1591.125,1052.125 1591.8438,1050.7813 Q1592.5781,1049.4219 1593.8594,1048.6875 Q1595.1563,1047.9531 1596.6094,1047.9531 Q1597.4688,1047.9531 1598.2188,1048.1563 Q1598.9844,1048.3594 1599.6406,1048.7656 Z " fill="#000000"/><text fill="#000000" font-family="sans-serif" font-size="20" font-style="italic" lengthAdjust="spacing" textLength="91" x="1640" y="1036.8711">«Domain»</text><text fill="#000000" font-family="sans-serif" font-size="20" font-style="italic" lengthAdjust="spacing" textLength="136" x="1617.5" y="1062.0273">«Value Object»</text><text fill="#000000" font-family="sans-serif" font-size="20" lengthAdjust="spacing" textLength="79" x="1646" y="1087.1836">Interview</text><line style="stroke:#181818;stroke-width:0.5;" x1="1501.5" x2="1834.5" y1="1096.5781" y2="1096.5781"/><rect fill="none" height="6" style="stroke:#C82930;stroke-width:1.0;" width="6" x="1508.5" y="1111.6563"/><text fill="#000000" font-family="sans-serif" font-size="20" lengthAdjust="spacing" textLength="308" x="1521.5" y="1121.3398">interviewTypeDenomination : String</text><rect fill="none" height="6" style="stroke:#C82930;stroke-width:1.0;" width="6" x="1508.5" y="1136.8125"/><text fill="#000000" font-family="sans-serif" font-size="20" lengthAdjust="spacing" textLength="137" x="1521.5" y="1146.4961">schedule : Date</text><rect fill="none" height="6" style="stroke:#C82930;stroke-width:1.0;" width="6" x="1508.5" y="1161.9688"/><text fill="#000000" font-family="sans-serif" font-size="20" lengthAdjust="spacing" textLength="201" x="1521.5" y="1171.6523">interviewResult : String</text><rect fill="none" height="6" style="stroke:#C82930;stroke-width:1.0;" width="6" x="1508.5" y="1187.125"/><text fill="#000000" font-family="sans-serif" font-size="20" lengthAdjust="spacing" textLength="213" x="1521.5" y="1196.8086">interviewGrade : Integer</text><rect fill="none" height="6" style="stroke:#C82930;stroke-width:1.0;" width="6" x="1508.5" y="1212.2813"/><text fill="#000000" font-family="sans-serif" font-size="20" lengthAdjust="spacing" textLength="165" x="1521.5" y="1221.9648">justification : String</text><rect fill="none" height="6" style="stroke:#C82930;stroke-width:1.0;" width="6" x="1508.5" y="1237.4375"/><text fill="#000000" font-family="sans-serif" font-size="20" lengthAdjust="spacing" textLength="218" x="1521.5" y="1247.1211">interviewAnswer :  String</text><line style="stroke:#181818;stroke-width:0.5;" x1="1501.5" x2="1834.5" y1="1255.5156" y2="1255.5156"/><ellipse cx="1511.5" cy="1273.5938" fill="#84BE84" rx="3" ry="3" style="stroke:#038048;stroke-width:1.0;"/><text fill="#000000" font-family="sans-serif" font-size="20" lengthAdjust="spacing" textLength="81" x="1521.5" y="1280.2773">valueOf()</text></g><!--class JobOpeningRepository--><g id="elem_JobOpeningRepository"><rect codeLine="80" fill="#F1F1F1" height="151.7813" id="JobOpeningRepository" rx="2.5" ry="2.5" style="stroke:#181818;stroke-width:0.5;" width="695" x="413.5" y="734.6094"/><ellipse cx="656.5" cy="777.3438" fill="#ADD1B2" rx="12" ry="12" style="stroke:#181818;stroke-width:1.0;"/><path d="M658.6406,772.2656 Q658.8281,772.0156 659.0469,771.8906 Q659.2656,771.75 659.5156,771.75 Q659.9531,771.75 660.2344,772.0625 Q660.5156,772.3594 660.5156,773.0781 L660.5156,774.7813 Q660.5156,775.5 660.2344,775.8125 Q659.9531,776.125 659.5156,776.125 Q659.125,776.125 658.875,775.8906 Q658.625,775.6719 658.5156,775.0625 Q658.4531,774.6406 658.2344,774.4219 Q657.8438,773.9844 657.125,773.7188 Q656.4063,773.4531 655.6875,773.4531 Q654.7813,773.4531 654.0313,773.8438 Q653.2813,774.2344 652.7031,775.125 Q652.125,776 652.125,777.2031 L652.125,778.5 Q652.125,779.9531 653.1719,780.9219 Q654.2344,781.8906 656.0938,781.8906 Q657.2031,781.8906 657.9844,781.5781 Q658.4219,781.4063 658.9375,780.8906 Q659.25,780.5781 659.4219,780.4844 Q659.5938,780.3906 659.8281,780.3906 Q660.2188,780.3906 660.5156,780.7031 Q660.8281,781 660.8281,781.4063 Q660.8281,781.8125 660.4219,782.2813 Q659.8281,782.9688 658.8906,783.3594 Q657.625,783.8906 656.1094,783.8906 Q654.3281,783.8906 652.9063,783.1563 Q651.75,782.5625 650.9375,781.2969 Q650.125,780.0313 650.125,778.5469 L650.125,777.1875 Q650.125,775.625 650.8438,774.2813 Q651.5781,772.9219 652.8594,772.1875 Q654.1563,771.4531 655.6094,771.4531 Q656.4688,771.4531 657.2188,771.6563 Q657.9844,771.8594 658.6406,772.2656 Z " fill="#000000"/><text fill="#000000" font-family="sans-serif" font-size="20" font-style="italic" lengthAdjust="spacing" textLength="126" x="715.5" y="760.3711">«Persistence»</text><text fill="#000000" font-family="sans-serif" font-size="20" font-style="italic" lengthAdjust="spacing" textLength="117" x="720" y="785.5273">«Repository»</text><text fill="#000000" font-family="sans-serif" font-size="20" lengthAdjust="spacing" textLength="200" x="678.5" y="810.6836">JobOpeningRepository</text><line style="stroke:#181818;stroke-width:0.5;" x1="414.5" x2="1107.5" y1="820.0781" y2="820.0781"/><line style="stroke:#181818;stroke-width:0.5;" x1="414.5" x2="1107.5" y1="828.0781" y2="828.0781"/><ellipse cx="424.5" cy="846.1563" fill="#84BE84" rx="3" ry="3" style="stroke:#038048;stroke-width:1.0;"/><text fill="#000000" font-family="sans-serif" font-size="20" lengthAdjust="spacing" textLength="668" x="434.5" y="852.8398">getJobOpeningListMatchingCustomerManager(customerManagerUsername)</text><ellipse cx="424.5" cy="871.3125" fill="#84BE84" rx="3" ry="3" style="stroke:#038048;stroke-width:1.0;"/><text fill="#000000" font-family="sans-serif" font-size="20" lengthAdjust="spacing" textLength="294" x="434.5" y="877.9961">getJobOpening(JobOpeningDTO)</text></g><!--class ApplicationRepository--><g id="elem_ApplicationRepository"><rect codeLine="85" fill="#F1F1F1" height="126.625" id="ApplicationRepository" rx="2.5" ry="2.5" style="stroke:#181818;stroke-width:0.5;" width="378" x="1464" y="747.1094"/><ellipse cx="1553.5" cy="789.8438" fill="#ADD1B2" rx="12" ry="12" style="stroke:#181818;stroke-width:1.0;"/><path d="M1555.6406,784.7656 Q1555.8281,784.5156 1556.0469,784.3906 Q1556.2656,784.25 1556.5156,784.25 Q1556.9531,784.25 1557.2344,784.5625 Q1557.5156,784.8594 1557.5156,785.5781 L1557.5156,787.2813 Q1557.5156,788 1557.2344,788.3125 Q1556.9531,788.625 1556.5156,788.625 Q1556.125,788.625 1555.875,788.3906 Q1555.625,788.1719 1555.5156,787.5625 Q1555.4531,787.1406 1555.2344,786.9219 Q1554.8438,786.4844 1554.125,786.2188 Q1553.4063,785.9531 1552.6875,785.9531 Q1551.7813,785.9531 1551.0313,786.3438 Q1550.2813,786.7344 1549.7031,787.625 Q1549.125,788.5 1549.125,789.7031 L1549.125,791 Q1549.125,792.4531 1550.1719,793.4219 Q1551.2344,794.3906 1553.0938,794.3906 Q1554.2031,794.3906 1554.9844,794.0781 Q1555.4219,793.9063 1555.9375,793.3906 Q1556.25,793.0781 1556.4219,792.9844 Q1556.5938,792.8906 1556.8281,792.8906 Q1557.2188,792.8906 1557.5156,793.2031 Q1557.8281,793.5 1557.8281,793.9063 Q1557.8281,794.3125 1557.4219,794.7813 Q1556.8281,795.4688 1555.8906,795.8594 Q1554.625,796.3906 1553.1094,796.3906 Q1551.3281,796.3906 1549.9063,795.6563 Q1548.75,795.0625 1547.9375,793.7969 Q1547.125,792.5313 1547.125,791.0469 L1547.125,789.6875 Q1547.125,788.125 1547.8438,786.7813 Q1548.5781,785.4219 1549.8594,784.6875 Q1551.1563,783.9531 1552.6094,783.9531 Q1553.4688,783.9531 1554.2188,784.1563 Q1554.9844,784.3594 1555.6406,784.7656 Z " fill="#000000"/><text fill="#000000" font-family="sans-serif" font-size="20" font-style="italic" lengthAdjust="spacing" textLength="126" x="1607.5" y="772.8711">«Persistence»</text><text fill="#000000" font-family="sans-serif" font-size="20" font-style="italic" lengthAdjust="spacing" textLength="117" x="1612" y="798.0273">«Repository»</text><text fill="#000000" font-family="sans-serif" font-size="20" lengthAdjust="spacing" textLength="190" x="1575.5" y="823.1836">ApplicationRepository</text><line style="stroke:#181818;stroke-width:0.5;" x1="1465" x2="1841" y1="832.5781" y2="832.5781"/><line style="stroke:#181818;stroke-width:0.5;" x1="1465" x2="1841" y1="840.5781" y2="840.5781"/><ellipse cx="1475" cy="858.6563" fill="#84BE84" rx="3" ry="3" style="stroke:#038048;stroke-width:1.0;"/><text fill="#000000" font-family="sans-serif" font-size="20" lengthAdjust="spacing" textLength="351" x="1485" y="865.3398">getApplicationsListWithInterviewResult()</text></g><!--class RepositoryDatabase--><g id="elem_RepositoryDatabase"><rect fill="#F1F1F1" height="51.1563" id="RepositoryDatabase" rx="2.5" ry="2.5" style="stroke:#181818;stroke-width:0.5;" width="214" x="1215" y="472.1094"/><ellipse cx="1231" cy="489.6875" fill="#ADD1B2" rx="12" ry="12" style="stroke:#181818;stroke-width:1.0;"/><path d="M1233.1406,484.6094 Q1233.3281,484.3594 1233.5469,484.2344 Q1233.7656,484.0938 1234.0156,484.0938 Q1234.4531,484.0938 1234.7344,484.4063 Q1235.0156,484.7031 1235.0156,485.4219 L1235.0156,487.125 Q1235.0156,487.8438 1234.7344,488.1563 Q1234.4531,488.4688 1234.0156,488.4688 Q1233.625,488.4688 1233.375,488.2344 Q1233.125,488.0156 1233.0156,487.4063 Q1232.9531,486.9844 1232.7344,486.7656 Q1232.3438,486.3281 1231.625,486.0625 Q1230.9063,485.7969 1230.1875,485.7969 Q1229.2813,485.7969 1228.5313,486.1875 Q1227.7813,486.5781 1227.2031,487.4688 Q1226.625,488.3438 1226.625,489.5469 L1226.625,490.8438 Q1226.625,492.2969 1227.6719,493.2656 Q1228.7344,494.2344 1230.5938,494.2344 Q1231.7031,494.2344 1232.4844,493.9219 Q1232.9219,493.75 1233.4375,493.2344 Q1233.75,492.9219 1233.9219,492.8281 Q1234.0938,492.7344 1234.3281,492.7344 Q1234.7188,492.7344 1235.0156,493.0469 Q1235.3281,493.3438 1235.3281,493.75 Q1235.3281,494.1563 1234.9219,494.625 Q1234.3281,495.3125 1233.3906,495.7031 Q1232.125,496.2344 1230.6094,496.2344 Q1228.8281,496.2344 1227.4063,495.5 Q1226.25,494.9063 1225.4375,493.6406 Q1224.625,492.375 1224.625,490.8906 L1224.625,489.5313 Q1224.625,487.9688 1225.3438,486.625 Q1226.0781,485.2656 1227.3594,484.5313 Q1228.6563,483.7969 1230.1094,483.7969 Q1230.9688,483.7969 1231.7188,484 Q1232.4844,484.2031 1233.1406,484.6094 Z " fill="#000000"/><text fill="#000000" font-family="sans-serif" font-size="20" lengthAdjust="spacing" textLength="180" x="1246" y="497.8711">RepositoryDatabase</text><line style="stroke:#181818;stroke-width:0.5;" x1="1216" x2="1428" y1="507.2656" y2="507.2656"/><line style="stroke:#181818;stroke-width:0.5;" x1="1216" x2="1428" y1="515.2656" y2="515.2656"/></g><!--class CustomerRepository--><g id="elem_CustomerRepository"><rect fill="#F1F1F1" height="51.1563" id="CustomerRepository" rx="2.5" ry="2.5" style="stroke:#181818;stroke-width:0.5;" width="214" x="1215" y="785.1094"/><ellipse cx="1231" cy="802.6875" fill="#ADD1B2" rx="12" ry="12" style="stroke:#181818;stroke-width:1.0;"/><path d="M1233.1406,797.6094 Q1233.3281,797.3594 1233.5469,797.2344 Q1233.7656,797.0938 1234.0156,797.0938 Q1234.4531,797.0938 1234.7344,797.4063 Q1235.0156,797.7031 1235.0156,798.4219 L1235.0156,800.125 Q1235.0156,800.8438 1234.7344,801.1563 Q1234.4531,801.4688 1234.0156,801.4688 Q1233.625,801.4688 1233.375,801.2344 Q1233.125,801.0156 1233.0156,800.4063 Q1232.9531,799.9844 1232.7344,799.7656 Q1232.3438,799.3281 1231.625,799.0625 Q1230.9063,798.7969 1230.1875,798.7969 Q1229.2813,798.7969 1228.5313,799.1875 Q1227.7813,799.5781 1227.2031,800.4688 Q1226.625,801.3438 1226.625,802.5469 L1226.625,803.8438 Q1226.625,805.2969 1227.6719,806.2656 Q1228.7344,807.2344 1230.5938,807.2344 Q1231.7031,807.2344 1232.4844,806.9219 Q1232.9219,806.75 1233.4375,806.2344 Q1233.75,805.9219 1233.9219,805.8281 Q1234.0938,805.7344 1234.3281,805.7344 Q1234.7188,805.7344 1235.0156,806.0469 Q1235.3281,806.3438 1235.3281,806.75 Q1235.3281,807.1563 1234.9219,807.625 Q1234.3281,808.3125 1233.3906,808.7031 Q1232.125,809.2344 1230.6094,809.2344 Q1228.8281,809.2344 1227.4063,808.5 Q1226.25,807.9063 1225.4375,806.6406 Q1224.625,805.375 1224.625,803.8906 L1224.625,802.5313 Q1224.625,800.9688 1225.3438,799.625 Q1226.0781,798.2656 1227.3594,797.5313 Q1228.6563,796.7969 1230.1094,796.7969 Q1230.9688,796.7969 1231.7188,797 Q1232.4844,797.2031 1233.1406,797.6094 Z " fill="#000000"/><text fill="#000000" font-family="sans-serif" font-size="20" lengthAdjust="spacing" textLength="180" x="1246" y="810.8711">CustomerRepository</text><line style="stroke:#181818;stroke-width:0.5;" x1="1216" x2="1428" y1="820.2656" y2="820.2656"/><line style="stroke:#181818;stroke-width:0.5;" x1="1216" x2="1428" y1="828.2656" y2="828.2656"/></g><!--link CustomerManager to DisplayAllApplicationDataController--><g id="link_CustomerManager_DisplayAllApplicationDataController"><path codeLine="92" d="M1225.4,164.3394 C1219.55,167.2194 1213.72,169.9894 1208,172.6094 C1160.54,194.3294 1108.06,215.4994 1059.41,234.0094 " fill="none" id="CustomerManager-to-DisplayAllApplicationDataController" style="stroke:#181818;stroke-width:1.0;stroke-dasharray:7.0,7.0;"/><polygon fill="#181818" points="1054.72,235.7894,1064.5535,236.3384,1059.3952,234.0165,1061.717,228.8581,1054.72,235.7894" style="stroke:#181818;stroke-width:1.0;"/></g><!--link DisplayAllApplicationDataUI to DisplayAllApplicationDataController--><g id="link_DisplayAllApplicationDataUI_DisplayAllApplicationDataController"><path codeLine="93" d="M496.27,147.2494 C517.18,155.6594 539.34,164.5094 560,172.6094 C609.68,192.0894 663.8,212.8894 713.33,231.7494 " fill="none" id="DisplayAllApplicationDataUI-to-DisplayAllApplicationDataController" style="stroke:#181818;stroke-width:1.0;stroke-dasharray:7.0,7.0;"/><polygon fill="#181818" points="718.11,233.5694,711.1315,226.6195,713.4396,231.7841,708.275,234.0921,718.11,233.5694" style="stroke:#181818;stroke-width:1.0;"/></g><!--link DisplayAllApplicationDataController to JobOpeningRepository--><g id="link_DisplayAllApplicationDataController_JobOpeningRepository"><path codeLine="94" d="M868.92,360.8294 C846.62,453.5694 804.85,627.2594 780.33,729.2194 " fill="none" id="DisplayAllApplicationDataController-to-JobOpeningRepository" style="stroke:#181818;stroke-width:1.0;stroke-dasharray:7.0,7.0;"/><polygon fill="#181818" points="779.1,734.3294,785.0986,726.518,780.2723,729.4687,777.3216,724.6424,779.1,734.3294" style="stroke:#181818;stroke-width:1.0;"/></g><!--link DisplayAllApplicationDataController to ApplicationRepository--><g id="link_DisplayAllApplicationDataController_ApplicationRepository"><path codeLine="95" d="M1054.56,320.9894 C1196.19,342.5994 1384.22,378.1294 1447,421.6094 C1557.3,498.0094 1613.28,652.6294 1637.52,741.8994 " fill="none" id="DisplayAllApplicationDataController-to-ApplicationRepository" style="stroke:#181818;stroke-width:1.0;stroke-dasharray:7.0,7.0;"/><polygon fill="#181818" points="1638.86,746.8894,1640.3827,737.1589,1637.5601,742.0613,1632.6578,739.2387,1638.86,746.8894" style="stroke:#181818;stroke-width:1.0;"/></g><!--link DisplayAllApplicationDataController to ApplicationManagementService--><g id="link_DisplayAllApplicationDataController_ApplicationManagementService"><path codeLine="96" d="M1054.81,300.5094 C1205.38,307.1094 1428.82,327.9294 1613,390.6094 C1650.45,403.3494 1688.7,424.3694 1720.34,444.3394 " fill="none" id="DisplayAllApplicationDataController-to-ApplicationManagementService" style="stroke:#181818;stroke-width:1.0;stroke-dasharray:7.0,7.0;"/><polygon fill="#181818" points="1724.56,447.0194,1719.1199,438.8093,1720.3435,444.3322,1714.8205,445.5557,1724.56,447.0194" style="stroke:#181818;stroke-width:1.0;"/></g><!--link DisplayAllApplicationDataController to JobOpeningManagementService--><g id="link_DisplayAllApplicationDataController_JobOpeningManagementService"><path codeLine="97" d="M781.93,360.6394 C751.87,379.0594 718.62,399.4294 687.19,418.6894 " fill="none" id="DisplayAllApplicationDataController-to-JobOpeningManagementService" style="stroke:#181818;stroke-width:1.0;stroke-dasharray:7.0,7.0;"/><polygon fill="#181818" points="682.57,421.5194,692.3345,420.2328,686.8346,418.9092,688.1583,413.4094,682.57,421.5194" style="stroke:#181818;stroke-width:1.0;"/></g><!--link DisplayAllApplicationDataController to JobOpeningDTOService--><g id="link_DisplayAllApplicationDataController_JobOpeningDTOService"><path codeLine="98" d="M713.36,319.3594 C573.62,339.7694 389.86,374.4694 332,421.6094 C226.68,507.4094 182.38,670.0694 165.77,754.9494 " fill="none" id="DisplayAllApplicationDataController-to-JobOpeningDTOService" style="stroke:#181818;stroke-width:1.0;stroke-dasharray:7.0,7.0;"/><polygon fill="#181818" points="164.81,759.9294,170.4385,751.8473,165.7548,755.0194,162.5826,750.3357,164.81,759.9294" style="stroke:#181818;stroke-width:1.0;"/></g><!--link DisplayAllApplicationDataController to ApplicationDTOService--><g id="link_DisplayAllApplicationDataController_ApplicationDTOService"><path codeLine="99" d="M903.41,360.7594 C924.3,428.1694 957.19,534.3194 977.07,598.4594 " fill="none" id="DisplayAllApplicationDataController-to-ApplicationDTOService" style="stroke:#181818;stroke-width:1.0;stroke-dasharray:7.0,7.0;"/><polygon fill="#181818" points="978.59,603.3894,979.7335,593.6071,977.1035,598.6155,972.0952,595.9855,978.59,603.3894" style="stroke:#181818;stroke-width:1.0;"/></g><!--link Interview to Application--><g id="link_Interview_Application"><path codeLine="102" d="M1618.43,1289.3994 C1604.88,1327.2194 1589.98,1368.7694 1575.71,1408.5794 " fill="none" id="Interview-to-Application" style="stroke:#181818;stroke-width:1.0;"/><polygon fill="#181818" points="1573.98,1413.4194,1580.7958,1406.3099,1575.6761,1408.7158,1573.2702,1403.5961,1573.98,1413.4194" style="stroke:#181818;stroke-width:1.0;"/><text fill="#000000" font-family="sans-serif" font-size="20" lengthAdjust="spacing" textLength="117" x="1595" y="1378.3711">characterizes</text><text fill="#000000" font-family="sans-serif" font-size="20" lengthAdjust="spacing" textLength="34" x="1581.2055" y="1317.5278">0..1</text><text fill="#000000" font-family="sans-serif" font-size="20" lengthAdjust="spacing" textLength="8" x="1568.4682" y="1401.2023">*</text></g><!--link JobOpeningManagementService to JobOpeningRepository--><g id="link_JobOpeningManagementService_JobOpeningRepository"><path codeLine="103" d="M608.66,573.8894 C639.22,621.1794 678.59,682.0994 709.65,730.1594 " fill="none" id="JobOpeningManagementService-to-JobOpeningRepository" style="stroke:#181818;stroke-width:1.0;"/><polygon fill="#181818" points="712.44,734.4794,710.9145,724.7494,709.7261,730.28,704.1955,729.0916,712.44,734.4794" style="stroke:#181818;stroke-width:1.0;"/></g><!--link JobOpeningManagementService to JobOpening--><g id="link_JobOpeningManagementService_JobOpening"><path codeLine="104" d="M492.62,573.6394 C457.44,617.3994 417.38,675.4894 396,734.6094 C369.37,808.2394 358.84,893.8394 355.55,968.0594 " fill="none" id="JobOpeningManagementService-to-JobOpening" style="stroke:#181818;stroke-width:1.0;"/><polygon fill="#181818" points="355.32,973.3794,359.7028,964.5594,355.5347,968.384,351.7102,964.2159,355.32,973.3794" style="stroke:#181818;stroke-width:1.0;"/></g><!--link ApplicationManagementService to Application--><g id="link_ApplicationManagementService_Application"><path codeLine="105" d="M1814.2,548.2194 C1865.45,682.3094 1987.21,1059.7794 1853,1326.6094 C1809.72,1412.6594 1723.53,1478.5294 1648.51,1522.7594 " fill="none" id="ApplicationManagementService-to-Application" style="stroke:#181818;stroke-width:1.0;"/><polygon fill="#181818" points="1644.04,1525.3794,1653.8273,1524.2795,1648.3537,1522.8511,1649.7821,1517.3776,1644.04,1525.3794" style="stroke:#181818;stroke-width:1.0;"/></g><!--link ApplicationManagementService to ApplicationRepository--><g id="link_ApplicationManagementService_ApplicationRepository"><path codeLine="106" d="M1771.5,548.2294 C1747.72,600.6894 1710.05,683.7694 1683.58,742.1494 " fill="none" id="ApplicationManagementService-to-ApplicationRepository" style="stroke:#181818;stroke-width:1.0;"/><polygon fill="#181818" points="1681.38,747.0094,1688.7287,740.4522,1683.4372,742.4522,1681.4371,737.1607,1681.38,747.0094" style="stroke:#181818;stroke-width:1.0;"/></g><!--link ApplicationDTOService to Application--><g id="link_ApplicationDTOService_Application"><path codeLine="107" d="M1094.29,704.6994 C1106.06,713.4794 1117.04,723.4494 1126,734.6094 C1212.89,842.8294 1262.1,1202.8894 1325,1326.6094 C1339.48,1355.0794 1356.77,1383.9394 1374.89,1411.5794 " fill="none" id="ApplicationDTOService-to-Application" style="stroke:#181818;stroke-width:1.0;"/><polygon fill="#181818" points="1377.81,1415.9994,1376.2076,1406.2818,1375.063,1411.8216,1369.5231,1410.677,1377.81,1415.9994" style="stroke:#181818;stroke-width:1.0;"/></g><!--link JobOpeningDTOService to JobOpening--><g id="link_JobOpeningDTOService_JobOpening"><path codeLine="108" d="M186.95,861.4094 C204.51,890.5994 227.88,929.4494 251.75,969.1394 " fill="none" id="JobOpeningDTOService-to-JobOpening" style="stroke:#181818;stroke-width:1.0;"/><polygon fill="#181818" points="254.36,973.4794,253.1356,963.7069,251.777,969.1982,246.2857,967.8397,254.36,973.4794" style="stroke:#181818;stroke-width:1.0;"/></g><!--reverse link JobOpeningRepository to JobOpening--><g id="link_JobOpeningRepository_JobOpening"><path codeLine="111" d="M667.6,890.2194 C626.91,924.4694 577.89,965.7194 531.07,1005.1294 " fill="none" id="JobOpeningRepository-backto-JobOpening" style="stroke:#181818;stroke-width:1.0;stroke-dasharray:7.0,7.0;"/><polygon fill="#181818" points="671.51,886.9294,662.0511,889.6735,667.6877,890.1527,667.2084,895.7892,671.51,886.9294" style="stroke:#181818;stroke-width:1.0;"/><text fill="#000000" font-family="sans-serif" font-size="20" lengthAdjust="spacing" textLength="108" x="633" y="938.3711">persisted by</text></g><!--reverse link ApplicationRepository to Application--><g id="link_ApplicationRepository_Application"><path codeLine="113" d="M1476.54,876.8194 C1435.42,900.7594 1396.76,932.4194 1373,973.6094 C1294.97,1108.9094 1346.72,1284.4994 1407.86,1413.4894 " fill="none" id="ApplicationRepository-backto-Application" style="stroke:#181818;stroke-width:1.0;stroke-dasharray:7.0,7.0;"/><polygon fill="#181818" points="1481.05,874.2394,1471.2534,875.2525,1476.7141,876.7293,1475.2373,882.19,1481.05,874.2394" style="stroke:#181818;stroke-width:1.0;"/><text fill="#000000" font-family="sans-serif" font-size="20" lengthAdjust="spacing" textLength="108" x="1374" y="1158.3711">persisted by</text></g><!--link ApplicationRepository to Interview--><g id="link_ApplicationRepository_Interview"><path codeLine="114" d="M1655.79,874.2994 C1657.43,911.3594 1659.59,959.8994 1661.63,1005.8594 " fill="none" id="ApplicationRepository-to-Interview" style="stroke:#181818;stroke-width:1.0;"/><polygon fill="#181818" points="1661.86,1010.8694,1665.4698,1001.7059,1661.6453,1005.874,1657.4772,1002.0494,1661.86,1010.8694" style="stroke:#181818;stroke-width:1.0;"/><text fill="#000000" font-family="sans-serif" font-size="20" lengthAdjust="spacing" textLength="68" x="1659" y="938.3711">rebuilds</text><text fill="#000000" font-family="sans-serif" font-size="20" lengthAdjust="spacing" textLength="11" x="1644.5232" y="902.5872">1</text><text fill="#000000" font-family="sans-serif" font-size="20" lengthAdjust="spacing" textLength="8" x="1653.3372" y="998.8223">*</text></g><!--reverse link RepositoryDatabase to JobOpeningRepository--><g id="link_RepositoryDatabase_JobOpeningRepository"><path codeLine="118" d="M1276.56,536.3894 C1254.93,555.4494 1229.4,579.5794 1209,603.6094 C1174.14,644.6694 1185.62,672.9994 1142,704.6094 C1126.72,715.6794 1110.33,725.5794 1093.24,734.4394 " fill="none" id="RepositoryDatabase-backto-JobOpeningRepository" style="stroke:#181818;stroke-width:1.0;stroke-dasharray:7.0,7.0;"/><polygon fill="none" points="1272.13,530.9594,1291.84,523.1794,1281.29,541.5594,1272.13,530.9594" style="stroke:#181818;stroke-width:1.0;"/><text fill="#000000" font-family="sans-serif" font-size="20" lengthAdjust="spacing" textLength="99" x="1210" y="662.3711">implements</text></g><!--reverse link RepositoryDatabase to ApplicationRepository--><g id="link_RepositoryDatabase_ApplicationRepository"><path codeLine="119" d="M1367.4,537.1694 C1386.94,555.6494 1408.74,579.0894 1424,603.6094 C1449.18,644.0694 1429.03,668.3894 1460,704.6094 C1473.76,720.6994 1490.62,734.7494 1508.6,746.8794 " fill="none" id="RepositoryDatabase-backto-ApplicationRepository" style="stroke:#181818;stroke-width:1.0;stroke-dasharray:7.0,7.0;"/><polygon fill="none" points="1362.45,542.1194,1352.38,523.4794,1371.88,531.7794,1362.45,542.1194" style="stroke:#181818;stroke-width:1.0;"/><text fill="#000000" font-family="sans-serif" font-size="20" lengthAdjust="spacing" textLength="99" x="1461" y="662.3711">implements</text></g><!--reverse link RepositoryDatabase to CustomerRepository--><g id="link_RepositoryDatabase_CustomerRepository"><path codeLine="120" d="M1320.44,543.2894 C1319.86,561.9394 1319.28,583.8194 1319,603.6094 C1318.36,648.4894 1318.36,659.7294 1319,704.6094 C1319.39,732.1394 1320.37,763.7294 1321.1,784.9994 " fill="none" id="RepositoryDatabase-backto-CustomerRepository" style="stroke:#181818;stroke-width:1.0;stroke-dasharray:7.0,7.0;"/><polygon fill="none" points="1313.45,542.9794,1321.1,523.2194,1327.44,543.4294,1313.45,542.9794" style="stroke:#181818;stroke-width:1.0;"/><text fill="#000000" font-family="sans-serif" font-size="20" lengthAdjust="spacing" textLength="99" x="1320" y="662.3711">implements</text></g><!--link AuthenticationService to DisplayAllApplicationDataController--><g id="link_AuthenticationService_DisplayAllApplicationDataController"><path codeLine="123" d="M884,172.8194 C884,190.6594 884,210.1594 884,228.2794 " fill="none" id="AuthenticationService-to-DisplayAllApplicationDataController" style="stroke:#181818;stroke-width:1.0;stroke-dasharray:7.0,7.0;"/><polygon fill="#181818" points="884,233.3494,888,224.3494,884,228.3494,880,224.3494,884,233.3494" style="stroke:#181818;stroke-width:1.0;"/></g><!--SRC=[fLRBRjiw4DthAmXlwZI8aNGP105KkoroKSU57RVB2veQoqmaKYMf1ExZt-zGKYHIfWt7rnjBufoPCm_EZ7xYeg2AvfbaJv2G1DQqpCndASo2_mBouJ8ot6H0bekhomzNP9nHhSc4qnGnKVIkeEo9fa06tnHe48OQBiM0_8u8_bWZh8kCRkCiYuiYuwmIcL13btVaviR5tTusmB_Hkx-kSWTufEunEg1abe526yvPQyB-paaAnZdyohKPdld7_yZLh031HUgSrlng2ft0b0facwCt2r3Fd06QRfvQi-VaiPNNi_Mur4Rce6ge6fOQbA0vd4Lx-NNuoSFCVdcLfKaofBumIfn50QRu_H159iKpAFCWKSwnLnjhrJd4ZlFSTqRtl0bhVWlJdlELGgTMuj9ia64ZqMdrgsFNIcqfasaA2HTBpD0FRZRVGELSQ-l8y2FLC9SPZCRBnSDi-cd-xpI-ZxzychzMYyEYbt6qDv4vvRNfE4qLfDG0cKjfUWnOWnpB18O1pLrwZrPwGTQbODPpSaqMHY7MEMFs3b5c7hO5uFdOUNMaNgHwcY8bbFZHF7ewyeAARPmaUCyroZHFdeWsPUDNc4QbuXwlHUXObFbtogXW7Ap-Es40u-e89A2PuiK-BnNyBBcgYbSl2c1y_LgWdtbcBTe_9mscghL0_9qwUaC27FEnq2zO4OSvpa5ZVmuwkWxmlI20FBAGKkfrJ8kqVs611JReqeRteyGwfy9D3nK9Jn2vBq75HWguB_DLvTikROvVyCR1ItDQFHyJy5RO3_TtcfL0Pgj7OFrWjwPi3Kz0o9mBkgymDDj0KcQ1mBHgscJiW5kHBufMPRthzoFUvxRO3kfe2wClSqwUhREpjJUNdA4CIcCd1C70dvjThvX38JKtKctjCExagr1sXxjpqn-CKshO1f_x0utvxqjllWLq3RqXTVYMdKozFuLiFx_pSzhLMnLH4cij6QyXKR-7ZqQtnsmYqQ5Dw7_hS3OUgokKuQF1mI2VWjvP34xWVweEJqctHvpYXeF6MgXx3VbAjvYFhWaDBaUZgm6vkBWbW_S3RnnS4xQXTdQ2mgLQHuTsHeiF9kzuK7HmDREoZi2RX1qwuIMjhpouS_ROOaYTszl4DToXHYDtpRacHODBo6eRHNjw0uByP7YeC6ZWPFBE6L0ALYNF4XrPrjN1cY9ddXTP5RVQwqwHhQiLheVave_7tJ5rtQ7rNcIOvL7Grswr3sUxcxSQH-5D-TWE5Vq7]--></g></svg>