<?xml version="1.0" encoding="UTF-8" standalone="no"?><svg xmlns="http://www.w3.org/2000/svg" xmlns:xlink="http://www.w3.org/1999/xlink" contentStyleType="text/css" height="625px" preserveAspectRatio="none" style="width:1076px;height:625px;background:#FFFFFF;" version="1.1" viewBox="0 0 1076 625" width="1076px" zoomAndPan="magnify"><defs/><g><!--class RegisterUserUI--><g id="elem_RegisterUserUI"><rect codeLine="5" fill="#F1F1F1" height="151.7813" id="RegisterUserUI" rx="2.5" ry="2.5" style="stroke:#181818;stroke-width:0.5;" width="168" x="393" y="7"/><ellipse cx="409" cy="37.1563" fill="#ADD1B2" rx="12" ry="12" style="stroke:#181818;stroke-width:1.0;"/><path d="M411.1406,32.0781 Q411.3281,31.8281 411.5469,31.7031 Q411.7656,31.5625 412.0156,31.5625 Q412.4531,31.5625 412.7344,31.875 Q413.0156,32.1719 413.0156,32.8906 L413.0156,34.5938 Q413.0156,35.3125 412.7344,35.625 Q412.4531,35.9375 412.0156,35.9375 Q411.625,35.9375 411.375,35.7031 Q411.125,35.4844 411.0156,34.875 Q410.9531,34.4531 410.7344,34.2344 Q410.3438,33.7969 409.625,33.5313 Q408.9063,33.2656 408.1875,33.2656 Q407.2813,33.2656 406.5313,33.6563 Q405.7813,34.0469 405.2031,34.9375 Q404.625,35.8125 404.625,37.0156 L404.625,38.3125 Q404.625,39.7656 405.6719,40.7344 Q406.7344,41.7031 408.5938,41.7031 Q409.7031,41.7031 410.4844,41.3906 Q410.9219,41.2188 411.4375,40.7031 Q411.75,40.3906 411.9219,40.2969 Q412.0938,40.2031 412.3281,40.2031 Q412.7188,40.2031 413.0156,40.5156 Q413.3281,40.8125 413.3281,41.2188 Q413.3281,41.625 412.9219,42.0938 Q412.3281,42.7813 411.3906,43.1719 Q410.125,43.7031 408.6094,43.7031 Q406.8281,43.7031 405.4063,42.9688 Q404.25,42.375 403.4375,41.1094 Q402.625,39.8438 402.625,38.3594 L402.625,37 Q402.625,35.4375 403.3438,34.0938 Q404.0781,32.7344 405.3594,32 Q406.6563,31.2656 408.1094,31.2656 Q408.9688,31.2656 409.7188,31.4688 Q410.4844,31.6719 411.1406,32.0781 Z " fill="#000000"/><text fill="#000000" font-family="sans-serif" font-size="20" font-style="italic" lengthAdjust="spacing" textLength="88" x="447" y="32.7617">«domain»</text><text fill="#000000" font-family="sans-serif" font-size="20" lengthAdjust="spacing" textLength="134" x="424" y="57.918">RegisterUserUI</text><line style="stroke:#181818;stroke-width:0.5;" x1="394" x2="560" y1="67.3125" y2="67.3125"/><line style="stroke:#181818;stroke-width:0.5;" x1="394" x2="560" y1="75.3125" y2="75.3125"/><polygon fill="#FFFF44" points="404,88.3906,408,92.3906,404,96.3906,400,92.3906" style="stroke:#B38D22;stroke-width:1.0;"/><text fill="#000000" font-family="sans-serif" font-size="20" lengthAdjust="spacing" textLength="85" x="414" y="100.0742">doShow()</text><rect fill="#F24D5C" height="6" style="stroke:#C82930;stroke-width:1.0;" width="6" x="401" y="115.5469"/><text fill="#000000" font-family="sans-serif" font-size="20" lengthAdjust="spacing" textLength="110" x="414" y="125.2305">showRoles()</text><rect fill="#F24D5C" height="6" style="stroke:#C82930;stroke-width:1.0;" width="6" x="401" y="140.7031"/><text fill="#000000" font-family="sans-serif" font-size="20" lengthAdjust="spacing" textLength="104" x="414" y="150.3867">buildRoles()</text></g><!--class AddUserController--><g id="elem_AddUserController"><rect codeLine="11" fill="#F1F1F1" height="176.9375" id="AddUserController" rx="2.5" ry="2.5" style="stroke:#181818;stroke-width:0.5;" width="358" x="298" y="280"/><ellipse cx="392" cy="310.1563" fill="#ADD1B2" rx="12" ry="12" style="stroke:#181818;stroke-width:1.0;"/><path d="M394.1406,305.0781 Q394.3281,304.8281 394.5469,304.7031 Q394.7656,304.5625 395.0156,304.5625 Q395.4531,304.5625 395.7344,304.875 Q396.0156,305.1719 396.0156,305.8906 L396.0156,307.5938 Q396.0156,308.3125 395.7344,308.625 Q395.4531,308.9375 395.0156,308.9375 Q394.625,308.9375 394.375,308.7031 Q394.125,308.4844 394.0156,307.875 Q393.9531,307.4531 393.7344,307.2344 Q393.3438,306.7969 392.625,306.5313 Q391.9063,306.2656 391.1875,306.2656 Q390.2813,306.2656 389.5313,306.6563 Q388.7813,307.0469 388.2031,307.9375 Q387.625,308.8125 387.625,310.0156 L387.625,311.3125 Q387.625,312.7656 388.6719,313.7344 Q389.7344,314.7031 391.5938,314.7031 Q392.7031,314.7031 393.4844,314.3906 Q393.9219,314.2188 394.4375,313.7031 Q394.75,313.3906 394.9219,313.2969 Q395.0938,313.2031 395.3281,313.2031 Q395.7188,313.2031 396.0156,313.5156 Q396.3281,313.8125 396.3281,314.2188 Q396.3281,314.625 395.9219,315.0938 Q395.3281,315.7813 394.3906,316.1719 Q393.125,316.7031 391.6094,316.7031 Q389.8281,316.7031 388.4063,315.9688 Q387.25,315.375 386.4375,314.1094 Q385.625,312.8438 385.625,311.3594 L385.625,310 Q385.625,308.4375 386.3438,307.0938 Q387.0781,305.7344 388.3594,305 Q389.6563,304.2656 391.1094,304.2656 Q391.9688,304.2656 392.7188,304.4688 Q393.4844,304.6719 394.1406,305.0781 Z " fill="#000000"/><text fill="#000000" font-family="sans-serif" font-size="20" font-style="italic" lengthAdjust="spacing" textLength="88" x="450.5" y="305.7617">«domain»</text><text fill="#000000" font-family="sans-serif" font-size="20" lengthAdjust="spacing" textLength="161" x="414" y="330.918">AddUserController</text><line style="stroke:#181818;stroke-width:0.5;" x1="299" x2="655" y1="340.3125" y2="340.3125"/><line style="stroke:#181818;stroke-width:0.5;" x1="299" x2="655" y1="348.3125" y2="348.3125"/><rect fill="#F24D5C" height="6" style="stroke:#C82930;stroke-width:1.0;" width="6" x="306" y="363.3906"/><text fill="#000000" font-family="sans-serif" font-size="20" lengthAdjust="spacing" textLength="331" x="319" y="373.0742">addUser(email,name, role, password)</text><ellipse cx="309" cy="391.5469" fill="#84BE84" rx="3" ry="3" style="stroke:#038048;stroke-width:1.0;"/><text fill="#000000" font-family="sans-serif" font-size="20" lengthAdjust="spacing" textLength="228" x="319" y="398.2305">getBackofficeRoleTypes()</text><ellipse cx="309" cy="416.7031" fill="#84BE84" rx="3" ry="3" style="stroke:#038048;stroke-width:1.0;"/><text fill="#000000" font-family="sans-serif" font-size="20" lengthAdjust="spacing" textLength="331" x="319" y="423.3867">addUser(email,name, role, password)</text><ellipse cx="309" cy="441.8594" fill="#84BE84" rx="3" ry="3" style="stroke:#038048;stroke-width:1.0;"/><text fill="#000000" font-family="sans-serif" font-size="20" lengthAdjust="spacing" textLength="233" x="319" y="448.543">addUser(email,name, role)</text></g><!--class AuthorizationService--><g id="elem_AuthorizationService"><rect codeLine="18" fill="#F1F1F1" height="101.4688" id="AuthorizationService" rx="2.5" ry="2.5" style="stroke:#181818;stroke-width:0.5;" width="392" x="7" y="517"/><ellipse cx="110" cy="547.1563" fill="#ADD1B2" rx="12" ry="12" style="stroke:#181818;stroke-width:1.0;"/><path d="M112.1406,542.0781 Q112.3281,541.8281 112.5469,541.7031 Q112.7656,541.5625 113.0156,541.5625 Q113.4531,541.5625 113.7344,541.875 Q114.0156,542.1719 114.0156,542.8906 L114.0156,544.5938 Q114.0156,545.3125 113.7344,545.625 Q113.4531,545.9375 113.0156,545.9375 Q112.625,545.9375 112.375,545.7031 Q112.125,545.4844 112.0156,544.875 Q111.9531,544.4531 111.7344,544.2344 Q111.3438,543.7969 110.625,543.5313 Q109.9063,543.2656 109.1875,543.2656 Q108.2813,543.2656 107.5313,543.6563 Q106.7813,544.0469 106.2031,544.9375 Q105.625,545.8125 105.625,547.0156 L105.625,548.3125 Q105.625,549.7656 106.6719,550.7344 Q107.7344,551.7031 109.5938,551.7031 Q110.7031,551.7031 111.4844,551.3906 Q111.9219,551.2188 112.4375,550.7031 Q112.75,550.3906 112.9219,550.2969 Q113.0938,550.2031 113.3281,550.2031 Q113.7188,550.2031 114.0156,550.5156 Q114.3281,550.8125 114.3281,551.2188 Q114.3281,551.625 113.9219,552.0938 Q113.3281,552.7813 112.3906,553.1719 Q111.125,553.7031 109.6094,553.7031 Q107.8281,553.7031 106.4063,552.9688 Q105.25,552.375 104.4375,551.1094 Q103.625,549.8438 103.625,548.3594 L103.625,547 Q103.625,545.4375 104.3438,544.0938 Q105.0781,542.7344 106.3594,542 Q107.6563,541.2656 109.1094,541.2656 Q109.9688,541.2656 110.7188,541.4688 Q111.4844,541.6719 112.1406,542.0781 Z " fill="#000000"/><text fill="#000000" font-family="sans-serif" font-size="20" font-style="italic" lengthAdjust="spacing" textLength="86" x="177.5" y="542.7617">«service»</text><text fill="#000000" font-family="sans-serif" font-size="20" lengthAdjust="spacing" textLength="177" x="132" y="567.918">AuthorizationService</text><line style="stroke:#181818;stroke-width:0.5;" x1="8" x2="398" y1="577.3125" y2="577.3125"/><line style="stroke:#181818;stroke-width:0.5;" x1="8" x2="398" y1="585.3125" y2="585.3125"/><ellipse cx="18" cy="603.3906" fill="#84BE84" rx="3" ry="3" style="stroke:#038048;stroke-width:1.0;"/><text fill="#000000" font-family="sans-serif" font-size="20" lengthAdjust="spacing" textLength="365" x="28" y="610.0742">ensureAuthenticatedUserHasAnyOf(roles)</text></g><!--class UserManagementService--><g id="elem_UserManagementService"><rect codeLine="22" fill="#F1F1F1" height="101.4688" id="UserManagementService" rx="2.5" ry="2.5" style="stroke:#181818;stroke-width:0.5;" width="635" x="434.5" y="517"/><ellipse cx="637.5" cy="547.1563" fill="#ADD1B2" rx="12" ry="12" style="stroke:#181818;stroke-width:1.0;"/><path d="M639.6406,542.0781 Q639.8281,541.8281 640.0469,541.7031 Q640.2656,541.5625 640.5156,541.5625 Q640.9531,541.5625 641.2344,541.875 Q641.5156,542.1719 641.5156,542.8906 L641.5156,544.5938 Q641.5156,545.3125 641.2344,545.625 Q640.9531,545.9375 640.5156,545.9375 Q640.125,545.9375 639.875,545.7031 Q639.625,545.4844 639.5156,544.875 Q639.4531,544.4531 639.2344,544.2344 Q638.8438,543.7969 638.125,543.5313 Q637.4063,543.2656 636.6875,543.2656 Q635.7813,543.2656 635.0313,543.6563 Q634.2813,544.0469 633.7031,544.9375 Q633.125,545.8125 633.125,547.0156 L633.125,548.3125 Q633.125,549.7656 634.1719,550.7344 Q635.2344,551.7031 637.0938,551.7031 Q638.2031,551.7031 638.9844,551.3906 Q639.4219,551.2188 639.9375,550.7031 Q640.25,550.3906 640.4219,550.2969 Q640.5938,550.2031 640.8281,550.2031 Q641.2188,550.2031 641.5156,550.5156 Q641.8281,550.8125 641.8281,551.2188 Q641.8281,551.625 641.4219,552.0938 Q640.8281,552.7813 639.8906,553.1719 Q638.625,553.7031 637.1094,553.7031 Q635.3281,553.7031 633.9063,552.9688 Q632.75,552.375 631.9375,551.1094 Q631.125,549.8438 631.125,548.3594 L631.125,547 Q631.125,545.4375 631.8438,544.0938 Q632.5781,542.7344 633.8594,542 Q635.1563,541.2656 636.6094,541.2656 Q637.4688,541.2656 638.2188,541.4688 Q638.9844,541.6719 639.6406,542.0781 Z " fill="#000000"/><text fill="#000000" font-family="sans-serif" font-size="20" font-style="italic" lengthAdjust="spacing" textLength="86" x="726.5" y="542.7617">«service»</text><text fill="#000000" font-family="sans-serif" font-size="20" lengthAdjust="spacing" textLength="220" x="659.5" y="567.918">UserManagementService</text><line style="stroke:#181818;stroke-width:0.5;" x1="435.5" x2="1068.5" y1="577.3125" y2="577.3125"/><line style="stroke:#181818;stroke-width:0.5;" x1="435.5" x2="1068.5" y1="585.3125" y2="585.3125"/><ellipse cx="445.5" cy="603.3906" fill="#84BE84" rx="3" ry="3" style="stroke:#038048;stroke-width:1.0;"/><text fill="#000000" font-family="sans-serif" font-size="20" lengthAdjust="spacing" textLength="608" x="455.5" y="610.0742">registerNewUser(email, password, firstName, lastName, email, roles)</text></g><!--class RandomPassword--><g id="elem_RandomPassword"><rect codeLine="26" fill="#F1F1F1" height="151.7813" id="RandomPassword" rx="2.5" ry="2.5" style="stroke:#181818;stroke-width:0.5;" width="222" x="691" y="292.5"/><ellipse cx="719.15" cy="322.6563" fill="#ADD1B2" rx="12" ry="12" style="stroke:#181818;stroke-width:1.0;"/><path d="M721.2906,317.5781 Q721.4781,317.3281 721.6969,317.2031 Q721.9156,317.0625 722.1656,317.0625 Q722.6031,317.0625 722.8844,317.375 Q723.1656,317.6719 723.1656,318.3906 L723.1656,320.0938 Q723.1656,320.8125 722.8844,321.125 Q722.6031,321.4375 722.1656,321.4375 Q721.775,321.4375 721.525,321.2031 Q721.275,320.9844 721.1656,320.375 Q721.1031,319.9531 720.8844,319.7344 Q720.4938,319.2969 719.775,319.0313 Q719.0563,318.7656 718.3375,318.7656 Q717.4313,318.7656 716.6813,319.1563 Q715.9313,319.5469 715.3531,320.4375 Q714.775,321.3125 714.775,322.5156 L714.775,323.8125 Q714.775,325.2656 715.8219,326.2344 Q716.8844,327.2031 718.7438,327.2031 Q719.8531,327.2031 720.6344,326.8906 Q721.0719,326.7188 721.5875,326.2031 Q721.9,325.8906 722.0719,325.7969 Q722.2438,325.7031 722.4781,325.7031 Q722.8688,325.7031 723.1656,326.0156 Q723.4781,326.3125 723.4781,326.7188 Q723.4781,327.125 723.0719,327.5938 Q722.4781,328.2813 721.5406,328.6719 Q720.275,329.2031 718.7594,329.2031 Q716.9781,329.2031 715.5563,328.4688 Q714.4,327.875 713.5875,326.6094 Q712.775,325.3438 712.775,323.8594 L712.775,322.5 Q712.775,320.9375 713.4938,319.5938 Q714.2281,318.2344 715.5094,317.5 Q716.8063,316.7656 718.2594,316.7656 Q719.1188,316.7656 719.8688,316.9688 Q720.6344,317.1719 721.2906,317.5781 Z " fill="#000000"/><text fill="#000000" font-family="sans-serif" font-size="20" font-style="italic" lengthAdjust="spacing" textLength="88" x="773.35" y="318.2617">«domain»</text><text fill="#000000" font-family="sans-serif" font-size="20" lengthAdjust="spacing" textLength="161" x="736.85" y="343.418">RandomPassword</text><line style="stroke:#181818;stroke-width:0.5;" x1="692" x2="912" y1="352.8125" y2="352.8125"/><rect fill="none" height="6" style="stroke:#C82930;stroke-width:1.0;" width="6" x="699" y="367.8906"/><text fill="#000000" font-family="sans-serif" font-size="20" lengthAdjust="spacing" textLength="121" x="712" y="377.5742">rawPassword</text><line style="stroke:#181818;stroke-width:0.5;" x1="692" x2="912" y1="385.9688" y2="385.9688"/><ellipse cx="702" cy="404.0469" fill="#84BE84" rx="3" ry="3" style="stroke:#038048;stroke-width:1.0;"/><text fill="#000000" font-family="sans-serif" font-size="20" lengthAdjust="spacing" textLength="175" x="712" y="410.7305">RandomPassword()</text><rect fill="#F24D5C" height="6" style="stroke:#C82930;stroke-width:1.0;" width="6" x="699" y="426.2031"/><text fill="#000000" font-family="sans-serif" font-size="20" lengthAdjust="spacing" textLength="195" x="712" y="435.8867">RandomPassword(int)</text></g><!--link RegisterUserUI to AddUserController--><g id="link_RegisterUserUI_AddUserController"><path codeLine="32" d="M477,159.23 C477,194.71 477,237.38 477,274.83 " fill="none" id="RegisterUserUI-to-AddUserController" style="stroke:#181818;stroke-width:1.0;stroke-dasharray:7.0,7.0;"/><polygon fill="#181818" points="477,279.85,481,270.85,477,274.85,473,270.85,477,279.85" style="stroke:#181818;stroke-width:1.0;"/></g><!--link AddUserController to AuthorizationService--><g id="link_AddUserController_AuthorizationService"><path codeLine="33" d="M355.22,457.05 C328.34,476.39 300.66,496.29 276.4,513.73 " fill="none" id="AddUserController-to-AuthorizationService" style="stroke:#181818;stroke-width:1.0;"/><polygon fill="#181818" points="272.22,516.73,281.8633,514.7281,276.2809,513.813,277.1961,508.2307,272.22,516.73" style="stroke:#181818;stroke-width:1.0;"/></g><!--link AddUserController to UserManagementService--><g id="link_AddUserController_UserManagementService"><path codeLine="34" d="M599.22,457.05 C626.21,476.39 653.99,496.29 678.33,513.73 " fill="none" id="AddUserController-to-UserManagementService" style="stroke:#181818;stroke-width:1.0;"/><polygon fill="#181818" points="682.52,516.73,677.5439,508.2307,678.4591,513.813,672.8767,514.7281,682.52,516.73" style="stroke:#181818;stroke-width:1.0;"/></g><!--link AddUserController to RandomPassword--><g id="link_AddUserController_RandomPassword"><path codeLine="35" d="M656,368.5 C665.88,368.5 675.75,368.5 685.63,368.5 " fill="none" id="AddUserController-to-RandomPassword" style="stroke:#181818;stroke-width:1.0;"/><polygon fill="#181818" points="690.79,368.5,681.79,364.5,685.79,368.5,681.79,372.5,690.79,368.5" style="stroke:#181818;stroke-width:1.0;"/></g><!--SRC=[ZL91JiCm4Bpx5Ijne5KRX3XNaGeIWWC5jV209TwqLXmxiXsY5l5tDcwAshIHECHQsxCpardxGfaA7PRQPWL9a9HZhSEZDM6bTWHtjqA8QrYH-r8PUI4oZTx3ajRA1t8VdhzdcCsaBL6PD8LlSGNIhZQs6Or50fwBfTNau-wpLbeUjZy7ihcKBSy3QpghDRbJlWHm3nWHd-cfmPAcm4XUA-vlh9DZCO4rXNlC2fldxBGLUTzMKMZoJu8XrB7LEcoiKpiCofek57RhzrMqEm4oldRKGia4bM6WoFk4Vcwsh_cevVH7fEtb2nfSKyaDGwokYtn1pP7Bln-OGgwS3ulecccxgaFr9PTeEE6thhUVjyFcSCN2fzWunzwHCY5ozrx5JPAavyCLv-EEk0l93a0lvdK9c_QCybF-1G00]--></g></svg>