<?xml version="1.0" encoding="UTF-8" standalone="no"?><svg xmlns="http://www.w3.org/2000/svg" xmlns:xlink="http://www.w3.org/1999/xlink" contentStyleType="text/css" height="1679px" preserveAspectRatio="none" style="width:2331px;height:1679px;background:#FFFFFF;" version="1.1" viewBox="0 0 2331 1679" width="2331px" zoomAndPan="magnify"><defs/><g><rect fill="#FFFFFF" height="1471.7813" style="stroke:#181818;stroke-width:1.0;" width="10" x="45" y="100.1563"/><rect fill="#FFFFFF" height="1329" style="stroke:#181818;stroke-width:1.0;" width="10" x="512" y="251.9375"/><rect fill="#FFFFFF" height="117.4688" style="stroke:#181818;stroke-width:1.0;" width="10" x="893" y="366.4063"/><rect fill="#FFFFFF" height="290.9375" style="stroke:#181818;stroke-width:1.0;" width="10" x="893" y="645.6563"/><rect fill="#FFFFFF" height="197.625" style="stroke:#181818;stroke-width:1.0;" width="10" x="898" y="692.8125"/><rect fill="#FFFFFF" height="483.7188" style="stroke:#181818;stroke-width:1.0;" width="10" x="893" y="1042.0625"/><rect fill="#FFFFFF" height="197.625" style="stroke:#181818;stroke-width:1.0;" width="10" x="898" y="1282"/><rect fill="#FFFFFF" height="153.625" style="stroke:#181818;stroke-width:1.0;" width="10" x="1385" y="1081.2188"/><rect fill="#FFFFFF" height="39.1563" style="stroke:#181818;stroke-width:1.0;" width="10" x="1666" y="806.125"/><rect fill="#FFFFFF" height="39.1563" style="stroke:#181818;stroke-width:1.0;" width="10" x="1666" y="1395.3125"/><rect fill="#FFFFFF" height="30" style="stroke:#181818;stroke-width:1.0;" width="10" x="1894.5" y="736.9688"/><rect fill="#FFFFFF" height="30" style="stroke:#181818;stroke-width:1.0;" width="10" x="1894.5" y="1326.1563"/><rect fill="#FFFFFF" height="39.1563" style="stroke:#181818;stroke-width:1.0;" width="10" x="2060.5" y="405.5625"/><rect fill="#FFFFFF" height="65.3125" style="stroke:#181818;stroke-width:1.0;" width="10" x="2218.5" y="1130.375"/><rect fill="none" height="995.75" style="stroke:#000000;stroke-width:1.5;" width="2314" x="10" y="538.0313"/><line style="stroke:#181818;stroke-width:0.5;stroke-dasharray:5.0,5.0;" x1="50" x2="50" y1="90.1563" y2="1589.9375"/><line style="stroke:#181818;stroke-width:0.5;stroke-dasharray:5.0,5.0;" x1="516.5" x2="516.5" y1="90.1563" y2="1589.9375"/><line style="stroke:#181818;stroke-width:0.5;stroke-dasharray:5.0,5.0;" x1="897.5" x2="897.5" y1="307.5938" y2="1589.9375"/><line style="stroke:#181818;stroke-width:0.5;stroke-dasharray:5.0,5.0;" x1="1390" x2="1390" y1="90.1563" y2="1589.9375"/><line style="stroke:#181818;stroke-width:0.5;stroke-dasharray:5.0,5.0;" x1="1671" x2="1671" y1="90.1563" y2="1589.9375"/><line style="stroke:#181818;stroke-width:0.5;stroke-dasharray:5.0,5.0;" x1="1899" x2="1899" y1="90.1563" y2="1589.9375"/><line style="stroke:#181818;stroke-width:0.5;stroke-dasharray:5.0,5.0;" x1="2065" x2="2065" y1="90.1563" y2="1589.9375"/><line style="stroke:#181818;stroke-width:0.5;stroke-dasharray:5.0,5.0;" x1="2223" x2="2223" y1="1136.875" y2="1589.9375"/><text fill="#000000" font-family="sans-serif" font-size="20" lengthAdjust="spacing" textLength="54" x="20" y="85.7617">Admin</text><ellipse cx="50" cy="13.5" fill="#E2E2F0" rx="8" ry="8" style="stroke:#181818;stroke-width:0.5;"/><path d="M50,21.5 L50,48.5 M37,29.5 L63,29.5 M50,48.5 L37,63.5 M50,48.5 L63,63.5 " fill="none" style="stroke:#181818;stroke-width:0.5;"/><text fill="#000000" font-family="sans-serif" font-size="20" lengthAdjust="spacing" textLength="54" x="20" y="1609.6992">Admin</text><ellipse cx="50" cy="1622.5938" fill="#E2E2F0" rx="8" ry="8" style="stroke:#181818;stroke-width:0.5;"/><path d="M50,1630.5938 L50,1657.5938 M37,1638.5938 L63,1638.5938 M50,1657.5938 L37,1672.5938 M50,1657.5938 L63,1672.5938 " fill="none" style="stroke:#181818;stroke-width:0.5;"/><rect fill="#E2E2F0" height="64.3125" rx="2.5" ry="2.5" style="stroke:#181818;stroke-width:0.5;" width="145" x="444.5" y="24.8438"/><text fill="#000000" font-family="sans-serif" font-size="20" font-style="italic" lengthAdjust="spacing" textLength="131" x="451.5" y="52.6055">«presentation»</text><text fill="#000000" font-family="sans-serif" font-size="20" lengthAdjust="spacing" textLength="101" x="466.5" y="77.7617">:AddUserUI</text><rect fill="#E2E2F0" height="64.3125" rx="2.5" ry="2.5" style="stroke:#181818;stroke-width:0.5;" width="145" x="444.5" y="1588.9375"/><text fill="#000000" font-family="sans-serif" font-size="20" font-style="italic" lengthAdjust="spacing" textLength="131" x="451.5" y="1616.6992">«presentation»</text><text fill="#000000" font-family="sans-serif" font-size="20" lengthAdjust="spacing" textLength="101" x="466.5" y="1641.8555">:AddUserUI</text><rect fill="#E2E2F0" height="64.3125" rx="2.5" ry="2.5" style="stroke:#181818;stroke-width:0.5;" width="181" x="807.5" y="1588.9375"/><text fill="#000000" font-family="sans-serif" font-size="20" font-style="italic" lengthAdjust="spacing" textLength="118" x="839" y="1616.6992">«application»</text><text fill="#000000" font-family="sans-serif" font-size="20" lengthAdjust="spacing" textLength="167" x="814.5" y="1641.8555">:AddUserController</text><rect fill="#E2E2F0" height="64.3125" rx="2.5" ry="2.5" style="stroke:#181818;stroke-width:0.5;" width="256" x="1262" y="24.8438"/><text fill="#000000" font-family="sans-serif" font-size="20" font-style="italic" lengthAdjust="spacing" textLength="86" x="1347" y="52.6055">«service»</text><text fill="#000000" font-family="sans-serif" font-size="20" lengthAdjust="spacing" textLength="242" x="1269" y="77.7617">:GeneratePasswordService</text><rect fill="#E2E2F0" height="64.3125" rx="2.5" ry="2.5" style="stroke:#181818;stroke-width:0.5;" width="256" x="1262" y="1588.9375"/><text fill="#000000" font-family="sans-serif" font-size="20" font-style="italic" lengthAdjust="spacing" textLength="86" x="1347" y="1616.6992">«service»</text><text fill="#000000" font-family="sans-serif" font-size="20" lengthAdjust="spacing" textLength="242" x="1269" y="1641.8555">:GeneratePasswordService</text><rect fill="#E2E2F0" height="64.3125" rx="2.5" ry="2.5" style="stroke:#181818;stroke-width:0.5;" width="240" x="1551" y="24.8438"/><text fill="#000000" font-family="sans-serif" font-size="20" font-style="italic" lengthAdjust="spacing" textLength="86" x="1628" y="52.6055">«service»</text><text fill="#000000" font-family="sans-serif" font-size="20" lengthAdjust="spacing" textLength="226" x="1558" y="77.7617">:UserManagementService</text><rect fill="#E2E2F0" height="64.3125" rx="2.5" ry="2.5" style="stroke:#181818;stroke-width:0.5;" width="240" x="1551" y="1588.9375"/><text fill="#000000" font-family="sans-serif" font-size="20" font-style="italic" lengthAdjust="spacing" textLength="86" x="1628" y="1616.6992">«service»</text><text fill="#000000" font-family="sans-serif" font-size="20" lengthAdjust="spacing" textLength="226" x="1558" y="1641.8555">:UserManagementService</text><rect fill="#E2E2F0" height="64.3125" rx="2.5" ry="2.5" style="stroke:#181818;stroke-width:0.5;" width="197" x="1801" y="24.8438"/><text fill="#000000" font-family="sans-serif" font-size="20" font-style="italic" lengthAdjust="spacing" textLength="86" x="1856.5" y="52.6055">«service»</text><text fill="#000000" font-family="sans-serif" font-size="20" lengthAdjust="spacing" textLength="183" x="1808" y="77.7617">:AuthorizationService</text><rect fill="#E2E2F0" height="64.3125" rx="2.5" ry="2.5" style="stroke:#181818;stroke-width:0.5;" width="197" x="1801" y="1588.9375"/><text fill="#000000" font-family="sans-serif" font-size="20" font-style="italic" lengthAdjust="spacing" textLength="86" x="1856.5" y="1616.6992">«service»</text><text fill="#000000" font-family="sans-serif" font-size="20" lengthAdjust="spacing" textLength="183" x="1808" y="1641.8555">:AuthorizationService</text><rect fill="#E2E2F0" height="64.3125" rx="2.5" ry="2.5" style="stroke:#181818;stroke-width:0.5;" width="115" x="2008" y="24.8438"/><text fill="#000000" font-family="sans-serif" font-size="20" font-style="italic" lengthAdjust="spacing" textLength="88" x="2021.5" y="52.6055">«domain»</text><text fill="#000000" font-family="sans-serif" font-size="20" lengthAdjust="spacing" textLength="101" x="2015" y="77.7617">:BaseRoles</text><rect fill="#E2E2F0" height="64.3125" rx="2.5" ry="2.5" style="stroke:#181818;stroke-width:0.5;" width="115" x="2008" y="1588.9375"/><text fill="#000000" font-family="sans-serif" font-size="20" font-style="italic" lengthAdjust="spacing" textLength="88" x="2021.5" y="1616.6992">«domain»</text><text fill="#000000" font-family="sans-serif" font-size="20" lengthAdjust="spacing" textLength="101" x="2015" y="1641.8555">:BaseRoles</text><rect fill="#E2E2F0" height="64.3125" rx="2.5" ry="2.5" style="stroke:#181818;stroke-width:0.5;" width="181" x="2133" y="1588.9375"/><text fill="#000000" font-family="sans-serif" font-size="20" font-style="italic" lengthAdjust="spacing" textLength="88" x="2179.5" y="1616.6992">«domain»</text><text fill="#000000" font-family="sans-serif" font-size="20" lengthAdjust="spacing" textLength="167" x="2140" y="1641.8555">:RandomPassword</text><rect fill="#FFFFFF" height="1471.7813" style="stroke:#181818;stroke-width:1.0;" width="10" x="45" y="100.1563"/><rect fill="#FFFFFF" height="1329" style="stroke:#181818;stroke-width:1.0;" width="10" x="512" y="251.9375"/><rect fill="#FFFFFF" height="117.4688" style="stroke:#181818;stroke-width:1.0;" width="10" x="893" y="366.4063"/><rect fill="#FFFFFF" height="290.9375" style="stroke:#181818;stroke-width:1.0;" width="10" x="893" y="645.6563"/><rect fill="#FFFFFF" height="197.625" style="stroke:#181818;stroke-width:1.0;" width="10" x="898" y="692.8125"/><rect fill="#FFFFFF" height="483.7188" style="stroke:#181818;stroke-width:1.0;" width="10" x="893" y="1042.0625"/><rect fill="#FFFFFF" height="197.625" style="stroke:#181818;stroke-width:1.0;" width="10" x="898" y="1282"/><rect fill="#FFFFFF" height="153.625" style="stroke:#181818;stroke-width:1.0;" width="10" x="1385" y="1081.2188"/><rect fill="#FFFFFF" height="39.1563" style="stroke:#181818;stroke-width:1.0;" width="10" x="1666" y="806.125"/><rect fill="#FFFFFF" height="39.1563" style="stroke:#181818;stroke-width:1.0;" width="10" x="1666" y="1395.3125"/><rect fill="#FFFFFF" height="30" style="stroke:#181818;stroke-width:1.0;" width="10" x="1894.5" y="736.9688"/><rect fill="#FFFFFF" height="30" style="stroke:#181818;stroke-width:1.0;" width="10" x="1894.5" y="1326.1563"/><rect fill="#FFFFFF" height="39.1563" style="stroke:#181818;stroke-width:1.0;" width="10" x="2060.5" y="405.5625"/><rect fill="#FFFFFF" height="65.3125" style="stroke:#181818;stroke-width:1.0;" width="10" x="2218.5" y="1130.375"/><path d="M1904,105.1563 L1904,215.1563 L2254,215.1563 L2254,115.1563 L2244,105.1563 L1904,105.1563 " fill="#FEFFDD" style="stroke:#181818;stroke-width:0.5;"/><path d="M2244,105.1563 L2244,115.1563 L2254,115.1563 L2244,105.1563 " fill="#FEFFDD" style="stroke:#181818;stroke-width:0.5;"/><text fill="#000000" font-family="sans-serif" font-size="20" lengthAdjust="spacing" textLength="297" x="1910" y="130.918">The UserManagementService and</text><text fill="#000000" font-family="sans-serif" font-size="20" lengthAdjust="spacing" textLength="329" x="1910" y="156.0742">AuthorizationService are implemented</text><text fill="#000000" font-family="sans-serif" font-size="20" lengthAdjust="spacing" textLength="265" x="1910" y="181.2305">in the eapli framework and will</text><text fill="#000000" font-family="sans-serif" font-size="20" lengthAdjust="spacing" textLength="240" x="1910" y="206.3867">be used in this functionality.</text><polygon fill="#181818" points="500,247.9375,510,251.9375,500,255.9375,504,251.9375" style="stroke:#181818;stroke-width:1.0;"/><line style="stroke:#181818;stroke-width:1.0;" x1="55" x2="506" y1="251.9375" y2="251.9375"/><text fill="#000000" font-family="sans-serif" font-size="20" font-weight="bold" lengthAdjust="spacing" textLength="11" x="62" y="245.543">1</text><text fill="#000000" font-family="sans-serif" font-size="20" lengthAdjust="spacing" textLength="234" x="77" y="245.543">wants to register new user</text><polygon fill="#181818" points="795.5,287.0938,805.5,291.0938,795.5,295.0938,799.5,291.0938" style="stroke:#181818;stroke-width:1.0;"/><line style="stroke:#181818;stroke-width:1.0;" x1="522" x2="801.5" y1="291.0938" y2="291.0938"/><text fill="#000000" font-family="sans-serif" font-size="20" font-weight="bold" lengthAdjust="spacing" textLength="11" x="529" y="284.6992">2</text><text fill="#000000" font-family="sans-serif" font-size="20" lengthAdjust="spacing" textLength="56" x="544" y="284.6992">create</text><rect fill="#E2E2F0" height="64.3125" rx="2.5" ry="2.5" style="stroke:#181818;stroke-width:0.5;" width="181" x="807.5" y="259.9375"/><text fill="#000000" font-family="sans-serif" font-size="20" font-style="italic" lengthAdjust="spacing" textLength="118" x="839" y="287.6992">«application»</text><text fill="#000000" font-family="sans-serif" font-size="20" lengthAdjust="spacing" textLength="167" x="814.5" y="312.8555">:AddUserController</text><polygon fill="#181818" points="881,362.4063,891,366.4063,881,370.4063,885,366.4063" style="stroke:#181818;stroke-width:1.0;"/><line style="stroke:#181818;stroke-width:1.0;" x1="522" x2="887" y1="366.4063" y2="366.4063"/><text fill="#000000" font-family="sans-serif" font-size="20" font-weight="bold" lengthAdjust="spacing" textLength="11" x="529" y="360.0117">3</text><text fill="#000000" font-family="sans-serif" font-size="20" lengthAdjust="spacing" textLength="228" x="544" y="360.0117">getBackofficeRoleTypes()</text><polygon fill="#181818" points="2048.5,401.5625,2058.5,405.5625,2048.5,409.5625,2052.5,405.5625" style="stroke:#181818;stroke-width:1.0;"/><line style="stroke:#181818;stroke-width:1.0;" x1="903" x2="2054.5" y1="405.5625" y2="405.5625"/><text fill="#000000" font-family="sans-serif" font-size="20" font-weight="bold" lengthAdjust="spacing" textLength="11" x="910" y="399.168">4</text><text fill="#000000" font-family="sans-serif" font-size="20" lengthAdjust="spacing" textLength="228" x="925" y="399.168">getBackofficeRoleTypes()</text><polygon fill="#181818" points="914,440.7188,904,444.7188,914,448.7188,910,444.7188" style="stroke:#181818;stroke-width:1.0;"/><line style="stroke:#181818;stroke-width:1.0;stroke-dasharray:2.0,2.0;" x1="908" x2="2064.5" y1="444.7188" y2="444.7188"/><text fill="#000000" font-family="sans-serif" font-size="20" font-weight="bold" lengthAdjust="spacing" textLength="11" x="920" y="438.3242">5</text><text fill="#000000" font-family="sans-serif" font-size="20" lengthAdjust="spacing" textLength="43" x="935" y="438.3242">roles</text><polygon fill="#181818" points="533,479.875,523,483.875,533,487.875,529,483.875" style="stroke:#181818;stroke-width:1.0;"/><line style="stroke:#181818;stroke-width:1.0;stroke-dasharray:2.0,2.0;" x1="527" x2="897" y1="483.875" y2="483.875"/><text fill="#000000" font-family="sans-serif" font-size="20" font-weight="bold" lengthAdjust="spacing" textLength="11" x="539" y="477.4805">6</text><text fill="#000000" font-family="sans-serif" font-size="20" lengthAdjust="spacing" textLength="43" x="554" y="477.4805">roles</text><polygon fill="#181818" points="66,519.0313,56,523.0313,66,527.0313,62,523.0313" style="stroke:#181818;stroke-width:1.0;"/><line style="stroke:#181818;stroke-width:1.0;stroke-dasharray:2.0,2.0;" x1="60" x2="511" y1="523.0313" y2="523.0313"/><text fill="#000000" font-family="sans-serif" font-size="20" font-weight="bold" lengthAdjust="spacing" textLength="11" x="72" y="516.6367">7</text><text fill="#000000" font-family="sans-serif" font-size="20" lengthAdjust="spacing" textLength="418" x="87" y="516.6367">asks for necessary information and shows roles</text><path d="M10,538.0313 L78,538.0313 L78,555.1875 L68,565.1875 L10,565.1875 L10,538.0313 " fill="#EEEEEE" style="stroke:#000000;stroke-width:1.5;"/><rect fill="none" height="995.75" style="stroke:#000000;stroke-width:1.5;" width="2314" x="10" y="538.0313"/><text fill="#000000" font-family="sans-serif" font-size="20" font-weight="bold" lengthAdjust="spacing" textLength="23" x="25" y="559.793">alt</text><text fill="#000000" font-family="sans-serif" font-size="20" font-weight="bold" lengthAdjust="spacing" textLength="180" x="93" y="560.793">[manual password]</text><polygon fill="#181818" points="500,602.5,510,606.5,500,610.5,504,606.5" style="stroke:#181818;stroke-width:1.0;"/><line style="stroke:#181818;stroke-width:1.0;" x1="55" x2="506" y1="606.5" y2="606.5"/><text fill="#000000" font-family="sans-serif" font-size="20" font-weight="bold" lengthAdjust="spacing" textLength="11" x="62" y="600.1055">8</text><text fill="#000000" font-family="sans-serif" font-size="20" lengthAdjust="spacing" textLength="249" x="77" y="600.1055">email, name, role, password</text><polygon fill="#181818" points="881,641.6563,891,645.6563,881,649.6563,885,645.6563" style="stroke:#181818;stroke-width:1.0;"/><line style="stroke:#181818;stroke-width:1.0;" x1="522" x2="887" y1="645.6563" y2="645.6563"/><text fill="#000000" font-family="sans-serif" font-size="20" font-weight="bold" lengthAdjust="spacing" textLength="11" x="529" y="639.2617">9</text><text fill="#000000" font-family="sans-serif" font-size="20" lengthAdjust="spacing" textLength="337" x="544" y="639.2617">addUser(email, name, role, password)</text><line style="stroke:#181818;stroke-width:1.0;" x1="903" x2="950" y1="679.8125" y2="679.8125"/><line style="stroke:#181818;stroke-width:1.0;" x1="950" x2="950" y1="679.8125" y2="692.8125"/><line style="stroke:#181818;stroke-width:1.0;" x1="909" x2="950" y1="692.8125" y2="692.8125"/><polygon fill="#181818" points="919,688.8125,909,692.8125,919,696.8125,915,692.8125" style="stroke:#181818;stroke-width:1.0;"/><text fill="#000000" font-family="sans-serif" font-size="20" font-weight="bold" lengthAdjust="spacing" textLength="22" x="915" y="673.418">10</text><text fill="#000000" font-family="sans-serif" font-size="20" lengthAdjust="spacing" textLength="442" x="941" y="673.418">addUser(email, name, role, password, createdOn)</text><polygon fill="#181818" points="1882.5,732.9688,1892.5,736.9688,1882.5,740.9688,1886.5,736.9688" style="stroke:#181818;stroke-width:1.0;"/><line style="stroke:#181818;stroke-width:1.0;" x1="908" x2="1888.5" y1="736.9688" y2="736.9688"/><text fill="#000000" font-family="sans-serif" font-size="20" font-weight="bold" lengthAdjust="spacing" textLength="22" x="915" y="730.5742">11</text><text fill="#000000" font-family="sans-serif" font-size="20" lengthAdjust="spacing" textLength="365" x="941" y="730.5742">ensureAuthenticatedUserHasAnyOf(roles)</text><polygon fill="#181818" points="1654,802.125,1664,806.125,1654,810.125,1658,806.125" style="stroke:#181818;stroke-width:1.0;"/><line style="stroke:#181818;stroke-width:1.0;" x1="908" x2="1660" y1="806.125" y2="806.125"/><text fill="#000000" font-family="sans-serif" font-size="20" font-weight="bold" lengthAdjust="spacing" textLength="22" x="915" y="799.7305">12</text><text fill="#000000" font-family="sans-serif" font-size="20" lengthAdjust="spacing" textLength="713" x="941" y="799.7305">registerNewUser(email, password, firstName, lastName, email, roles, createdOn)</text><polygon fill="#181818" points="919,841.2813,909,845.2813,919,849.2813,915,845.2813" style="stroke:#181818;stroke-width:1.0;"/><line style="stroke:#181818;stroke-width:1.0;stroke-dasharray:2.0,2.0;" x1="913" x2="1670" y1="845.2813" y2="845.2813"/><text fill="#000000" font-family="sans-serif" font-size="20" font-weight="bold" lengthAdjust="spacing" textLength="22" x="925" y="838.8867">13</text><text fill="#000000" font-family="sans-serif" font-size="20" lengthAdjust="spacing" textLength="38" x="951" y="838.8867">user</text><line style="stroke:#181818;stroke-width:1.0;stroke-dasharray:2.0,2.0;" x1="908" x2="950" y1="889.4375" y2="889.4375"/><line style="stroke:#181818;stroke-width:1.0;stroke-dasharray:2.0,2.0;" x1="950" x2="950" y1="889.4375" y2="902.4375"/><line style="stroke:#181818;stroke-width:1.0;stroke-dasharray:2.0,2.0;" x1="903" x2="950" y1="902.4375" y2="902.4375"/><polygon fill="#181818" points="913,898.4375,903,902.4375,913,906.4375,909,902.4375" style="stroke:#181818;stroke-width:1.0;"/><text fill="#000000" font-family="sans-serif" font-size="20" font-weight="bold" lengthAdjust="spacing" textLength="22" x="915" y="883.043">14</text><text fill="#000000" font-family="sans-serif" font-size="20" lengthAdjust="spacing" textLength="38" x="941" y="883.043">user</text><polygon fill="#181818" points="533,932.5938,523,936.5938,533,940.5938,529,936.5938" style="stroke:#181818;stroke-width:1.0;"/><line style="stroke:#181818;stroke-width:1.0;stroke-dasharray:2.0,2.0;" x1="527" x2="897" y1="936.5938" y2="936.5938"/><text fill="#000000" font-family="sans-serif" font-size="20" font-weight="bold" lengthAdjust="spacing" textLength="22" x="539" y="930.1992">15</text><text fill="#000000" font-family="sans-serif" font-size="20" lengthAdjust="spacing" textLength="38" x="565" y="930.1992">user</text><line style="stroke:#000000;stroke-width:1.0;stroke-dasharray:2.0,2.0;" x1="10" x2="2324" y1="945.5938" y2="945.5938"/><text fill="#000000" font-family="sans-serif" font-size="20" font-weight="bold" lengthAdjust="spacing" textLength="205" x="15" y="966.3555">[automatic password]</text><polygon fill="#181818" points="500,998.9063,510,1002.9063,500,1006.9063,504,1002.9063" style="stroke:#181818;stroke-width:1.0;"/><line style="stroke:#181818;stroke-width:1.0;" x1="55" x2="506" y1="1002.9063" y2="1002.9063"/><text fill="#000000" font-family="sans-serif" font-size="20" font-weight="bold" lengthAdjust="spacing" textLength="22" x="62" y="996.5117">16</text><text fill="#000000" font-family="sans-serif" font-size="20" lengthAdjust="spacing" textLength="151" x="88" y="996.5117">email, name, role</text><polygon fill="#181818" points="881,1038.0625,891,1042.0625,881,1046.0625,885,1042.0625" style="stroke:#181818;stroke-width:1.0;"/><line style="stroke:#181818;stroke-width:1.0;" x1="522" x2="887" y1="1042.0625" y2="1042.0625"/><text fill="#000000" font-family="sans-serif" font-size="20" font-weight="bold" lengthAdjust="spacing" textLength="22" x="529" y="1035.668">17</text><text fill="#000000" font-family="sans-serif" font-size="20" lengthAdjust="spacing" textLength="239" x="555" y="1035.668">addUser(email, name, role)</text><polygon fill="#181818" points="1373,1077.2188,1383,1081.2188,1373,1085.2188,1377,1081.2188" style="stroke:#181818;stroke-width:1.0;"/><line style="stroke:#181818;stroke-width:1.0;" x1="903" x2="1379" y1="1081.2188" y2="1081.2188"/><text fill="#000000" font-family="sans-serif" font-size="20" font-weight="bold" lengthAdjust="spacing" textLength="22" x="910" y="1074.8242">18</text><text fill="#000000" font-family="sans-serif" font-size="20" lengthAdjust="spacing" textLength="180" x="936" y="1074.8242">generatePassword()</text><polygon fill="#181818" points="2121,1116.375,2131,1120.375,2121,1124.375,2125,1120.375" style="stroke:#181818;stroke-width:1.0;"/><line style="stroke:#181818;stroke-width:1.0;" x1="1395" x2="2127" y1="1120.375" y2="1120.375"/><text fill="#000000" font-family="sans-serif" font-size="20" font-weight="bold" lengthAdjust="spacing" textLength="22" x="1402" y="1113.9805">19</text><text fill="#000000" font-family="sans-serif" font-size="20" lengthAdjust="spacing" textLength="70" x="1428" y="1113.9805">create()</text><rect fill="#E2E2F0" height="64.3125" rx="2.5" ry="2.5" style="stroke:#181818;stroke-width:0.5;" width="181" x="2133" y="1089.2188"/><text fill="#000000" font-family="sans-serif" font-size="20" font-style="italic" lengthAdjust="spacing" textLength="88" x="2179.5" y="1116.9805">«domain»</text><text fill="#000000" font-family="sans-serif" font-size="20" lengthAdjust="spacing" textLength="167" x="2140" y="1142.1367">:RandomPassword</text><polygon fill="#181818" points="1406,1191.6875,1396,1195.6875,1406,1199.6875,1402,1195.6875" style="stroke:#181818;stroke-width:1.0;"/><line style="stroke:#181818;stroke-width:1.0;stroke-dasharray:2.0,2.0;" x1="1400" x2="2222.5" y1="1195.6875" y2="1195.6875"/><text fill="#000000" font-family="sans-serif" font-size="20" font-weight="bold" lengthAdjust="spacing" textLength="22" x="1412" y="1189.293">20</text><text fill="#000000" font-family="sans-serif" font-size="20" lengthAdjust="spacing" textLength="86" x="1438" y="1189.293">password</text><polygon fill="#181818" points="914,1230.8438,904,1234.8438,914,1238.8438,910,1234.8438" style="stroke:#181818;stroke-width:1.0;"/><line style="stroke:#181818;stroke-width:1.0;stroke-dasharray:2.0,2.0;" x1="908" x2="1389" y1="1234.8438" y2="1234.8438"/><text fill="#000000" font-family="sans-serif" font-size="20" font-weight="bold" lengthAdjust="spacing" textLength="22" x="920" y="1228.4492">21</text><text fill="#000000" font-family="sans-serif" font-size="20" lengthAdjust="spacing" textLength="86" x="946" y="1228.4492">password</text><line style="stroke:#181818;stroke-width:1.0;" x1="903" x2="950" y1="1269" y2="1269"/><line style="stroke:#181818;stroke-width:1.0;" x1="950" x2="950" y1="1269" y2="1282"/><line style="stroke:#181818;stroke-width:1.0;" x1="909" x2="950" y1="1282" y2="1282"/><polygon fill="#181818" points="919,1278,909,1282,919,1286,915,1282" style="stroke:#181818;stroke-width:1.0;"/><text fill="#000000" font-family="sans-serif" font-size="20" font-weight="bold" lengthAdjust="spacing" textLength="22" x="915" y="1262.6055">22</text><text fill="#000000" font-family="sans-serif" font-size="20" lengthAdjust="spacing" textLength="442" x="941" y="1262.6055">addUser(email, name, role, password, createdOn)</text><polygon fill="#181818" points="1882.5,1322.1563,1892.5,1326.1563,1882.5,1330.1563,1886.5,1326.1563" style="stroke:#181818;stroke-width:1.0;"/><line style="stroke:#181818;stroke-width:1.0;" x1="908" x2="1888.5" y1="1326.1563" y2="1326.1563"/><text fill="#000000" font-family="sans-serif" font-size="20" font-weight="bold" lengthAdjust="spacing" textLength="22" x="915" y="1319.7617">23</text><text fill="#000000" font-family="sans-serif" font-size="20" lengthAdjust="spacing" textLength="365" x="941" y="1319.7617">ensureAuthenticatedUserHasAnyOf(roles)</text><polygon fill="#181818" points="1654,1391.3125,1664,1395.3125,1654,1399.3125,1658,1395.3125" style="stroke:#181818;stroke-width:1.0;"/><line style="stroke:#181818;stroke-width:1.0;" x1="908" x2="1660" y1="1395.3125" y2="1395.3125"/><text fill="#000000" font-family="sans-serif" font-size="20" font-weight="bold" lengthAdjust="spacing" textLength="22" x="915" y="1388.918">24</text><text fill="#000000" font-family="sans-serif" font-size="20" lengthAdjust="spacing" textLength="713" x="941" y="1388.918">registerNewUser(email, password, firstName, lastName, email, roles, createdOn)</text><polygon fill="#181818" points="919,1430.4688,909,1434.4688,919,1438.4688,915,1434.4688" style="stroke:#181818;stroke-width:1.0;"/><line style="stroke:#181818;stroke-width:1.0;stroke-dasharray:2.0,2.0;" x1="913" x2="1670" y1="1434.4688" y2="1434.4688"/><text fill="#000000" font-family="sans-serif" font-size="20" font-weight="bold" lengthAdjust="spacing" textLength="22" x="925" y="1428.0742">25</text><text fill="#000000" font-family="sans-serif" font-size="20" lengthAdjust="spacing" textLength="38" x="951" y="1428.0742">user</text><line style="stroke:#181818;stroke-width:1.0;stroke-dasharray:2.0,2.0;" x1="908" x2="950" y1="1478.625" y2="1478.625"/><line style="stroke:#181818;stroke-width:1.0;stroke-dasharray:2.0,2.0;" x1="950" x2="950" y1="1478.625" y2="1491.625"/><line style="stroke:#181818;stroke-width:1.0;stroke-dasharray:2.0,2.0;" x1="903" x2="950" y1="1491.625" y2="1491.625"/><polygon fill="#181818" points="913,1487.625,903,1491.625,913,1495.625,909,1491.625" style="stroke:#181818;stroke-width:1.0;"/><text fill="#000000" font-family="sans-serif" font-size="20" font-weight="bold" lengthAdjust="spacing" textLength="22" x="915" y="1472.2305">26</text><text fill="#000000" font-family="sans-serif" font-size="20" lengthAdjust="spacing" textLength="38" x="941" y="1472.2305">user</text><polygon fill="#181818" points="533,1521.7813,523,1525.7813,533,1529.7813,529,1525.7813" style="stroke:#181818;stroke-width:1.0;"/><line style="stroke:#181818;stroke-width:1.0;stroke-dasharray:2.0,2.0;" x1="527" x2="897" y1="1525.7813" y2="1525.7813"/><text fill="#000000" font-family="sans-serif" font-size="20" font-weight="bold" lengthAdjust="spacing" textLength="22" x="539" y="1519.3867">27</text><text fill="#000000" font-family="sans-serif" font-size="20" lengthAdjust="spacing" textLength="38" x="565" y="1519.3867">user</text><polygon fill="#181818" points="61,1567.9375,51,1571.9375,61,1575.9375,57,1571.9375" style="stroke:#181818;stroke-width:1.0;"/><line style="stroke:#181818;stroke-width:1.0;stroke-dasharray:2.0,2.0;" x1="55" x2="511" y1="1571.9375" y2="1571.9375"/><text fill="#000000" font-family="sans-serif" font-size="20" font-weight="bold" lengthAdjust="spacing" textLength="22" x="67" y="1565.543">28</text><text fill="#000000" font-family="sans-serif" font-size="20" lengthAdjust="spacing" textLength="71" x="93" y="1565.543">success</text><!--SRC=[xLLDRzf04BtlhnZbH2EegXwjA989AiaX2OBuqjl47iEAzQwrkmuYlxwpovTTJCIfft82-xqtNsy6jvQwHekLClcQ2YYen4RvNqRxXVma-Fb3OEEDRgftia88pBsnS9CMbTGtW0xIYH0iu6KkQzGURfAqA397DdkAx-TPzWHtTxKbHzgZbqRVt_Sp7ZYeDKgHtIbd3qp4kbOox-TDIPD5JpDqRcDiiI3x8NEAxEbimMotUtB63E6UKUEIAiwgpSkUl-AbZLyPApzZFcrQchqz_lw2E4P7SwF8HVHupj32L2ZFYvgZvZU7aY9yDct3-QED9x1okVAxmE9jHT1R4x2QwCiQq1B8gbOHJOMG6Zoh47A_eMH74CTV1pvif5BYdQ1nx928amxAHkT13vNqs- -261VIYXQH7poLQ8rq0gFxQ884DboW0s_0qb8wJnOqROAeFN42KeXe6kQn1Mvl4yWjOL1kFOPaINwC-TgK9LSJMlkshSaDlhNYPm-S06EPmXs_WZ6U2y78qIv60ZPCJ1JK0KJ5Or5da1XrbscGcIGymJMtouHoSt8ExPQRoB-hE8_OORSo6xVN4gWyLAWRL53lRT3f8x4Hr10qZsWOESCJhjKY3hpRgy4NX0ljkfO-tC-cUDKNbTYV2G1frrWAJcIxXOMcAFw8BjNRrt8GQ-ze15zt6nkVx7LvJvEZaLveqyxqb5qfhVClCN65XszxL8pONm2BXpKBj-3eXUZJLZeHS_12B-BKXkFeUY6a7AyZNzbWYFpAcLyvwGjJuUkOmFAlyzdU10O84MueWsVJqnAsCREf47oQHWUzO-Aj0WCcoXmoxGF5OF-jTxBLlp8U_pTqJvLhyd2YkiLFn1y0]--></g></svg>