<?xml version="1.0" encoding="UTF-8" standalone="no"?><svg xmlns="http://www.w3.org/2000/svg" xmlns:xlink="http://www.w3.org/1999/xlink" contentStyleType="text/css" height="459px" preserveAspectRatio="none" style="width:919px;height:459px;background:#FFFFFF;" version="1.1" viewBox="0 0 919 459" width="919px" zoomAndPan="magnify"><defs/><g><text fill="#000000" font-family="sans-serif" font-size="14" font-weight="bold" lengthAdjust="spacing" textLength="241" x="338" y="29.5332">US3000 System Sequence Diagram</text><rect fill="#FFFFFF" height="221.9375" style="stroke:#181818;stroke-width:1.0;" width="10" x="47.5" y="138.7656"/><rect fill="#FFFFFF" height="181.7813" style="stroke:#181818;stroke-width:1.0;" width="10" x="487.5" y="169.9219"/><rect fill="#FFFFFF" height="103.4688" style="stroke:#181818;stroke-width:1.0;" width="10" x="825.5" y="209.0781"/><line style="stroke:#181818;stroke-width:0.5;stroke-dasharray:5.0,5.0;" x1="52" x2="52" y1="128.7656" y2="369.7031"/><line style="stroke:#181818;stroke-width:0.5;stroke-dasharray:5.0,5.0;" x1="492.5" x2="492.5" y1="128.7656" y2="369.7031"/><line style="stroke:#181818;stroke-width:0.5;stroke-dasharray:5.0,5.0;" x1="830" x2="830" y1="128.7656" y2="369.7031"/><text fill="#000000" font-family="sans-serif" font-size="20" lengthAdjust="spacing" textLength="89" x="5" y="124.3711">Candidate</text><ellipse cx="52.5" cy="52.1094" fill="#E2E2F0" rx="8" ry="8" style="stroke:#181818;stroke-width:0.5;"/><path d="M52.5,60.1094 L52.5,87.1094 M39.5,68.1094 L65.5,68.1094 M52.5,87.1094 L39.5,102.1094 M52.5,87.1094 L65.5,102.1094 " fill="none" style="stroke:#181818;stroke-width:0.5;"/><text fill="#000000" font-family="sans-serif" font-size="20" lengthAdjust="spacing" textLength="89" x="5" y="389.4648">Candidate</text><ellipse cx="52.5" cy="402.3594" fill="#E2E2F0" rx="8" ry="8" style="stroke:#181818;stroke-width:0.5;"/><path d="M52.5,410.3594 L52.5,437.3594 M39.5,418.3594 L65.5,418.3594 M52.5,437.3594 L39.5,452.3594 M52.5,437.3594 L65.5,452.3594 " fill="none" style="stroke:#181818;stroke-width:0.5;"/><rect fill="#E2E2F0" height="64.3125" rx="2.5" ry="2.5" style="stroke:#181818;stroke-width:0.5;" width="158" x="413.5" y="63.4531"/><text fill="#000000" font-family="sans-serif" font-size="20" lengthAdjust="spacing" textLength="66" x="459.5" y="91.2148">System</text><text fill="#000000" font-family="sans-serif" font-size="20" lengthAdjust="spacing" textLength="144" x="420.5" y="116.3711">(Candidate App)</text><rect fill="#E2E2F0" height="64.3125" rx="2.5" ry="2.5" style="stroke:#181818;stroke-width:0.5;" width="158" x="413.5" y="368.7031"/><text fill="#000000" font-family="sans-serif" font-size="20" lengthAdjust="spacing" textLength="66" x="459.5" y="396.4648">System</text><text fill="#000000" font-family="sans-serif" font-size="20" lengthAdjust="spacing" textLength="144" x="420.5" y="421.6211">(Candidate App)</text><rect fill="#E2E2F0" height="39.1563" rx="2.5" ry="2.5" style="stroke:#181818;stroke-width:0.5;" width="165" x="748" y="88.6094"/><text fill="#000000" font-family="sans-serif" font-size="20" lengthAdjust="spacing" textLength="151" x="755" y="116.3711">Follow Up Server</text><rect fill="#E2E2F0" height="39.1563" rx="2.5" ry="2.5" style="stroke:#181818;stroke-width:0.5;" width="165" x="748" y="368.7031"/><text fill="#000000" font-family="sans-serif" font-size="20" lengthAdjust="spacing" textLength="151" x="755" y="396.4648">Follow Up Server</text><rect fill="#FFFFFF" height="221.9375" style="stroke:#181818;stroke-width:1.0;" width="10" x="47.5" y="138.7656"/><rect fill="#FFFFFF" height="181.7813" style="stroke:#181818;stroke-width:1.0;" width="10" x="487.5" y="169.9219"/><rect fill="#FFFFFF" height="103.4688" style="stroke:#181818;stroke-width:1.0;" width="10" x="825.5" y="209.0781"/><polygon fill="#181818" points="475.5,165.9219,485.5,169.9219,475.5,173.9219,479.5,169.9219" style="stroke:#181818;stroke-width:1.0;"/><line style="stroke:#181818;stroke-width:1.0;" x1="57.5" x2="481.5" y1="169.9219" y2="169.9219"/><text fill="#000000" font-family="sans-serif" font-size="20" font-weight="bold" lengthAdjust="spacing" textLength="11" x="64.5" y="163.5273">1</text><text fill="#000000" font-family="sans-serif" font-size="20" lengthAdjust="spacing" textLength="396" x="79.5" y="163.5273">asks to list all its applications and their states</text><polygon fill="#181818" points="813.5,205.0781,823.5,209.0781,813.5,213.0781,817.5,209.0781" style="stroke:#181818;stroke-width:1.0;"/><line style="stroke:#181818;stroke-width:1.0;" x1="497.5" x2="819.5" y1="209.0781" y2="209.0781"/><text fill="#000000" font-family="sans-serif" font-size="20" font-weight="bold" lengthAdjust="spacing" textLength="11" x="504.5" y="202.6836">2</text><text fill="#000000" font-family="sans-serif" font-size="20" lengthAdjust="spacing" textLength="242" x="519.5" y="202.6836">establishes TCP connection</text><polygon fill="#181818" points="813.5,269.3906,823.5,273.3906,813.5,277.3906,817.5,273.3906" style="stroke:#181818;stroke-width:1.0;"/><line style="stroke:#181818;stroke-width:1.0;" x1="497.5" x2="819.5" y1="273.3906" y2="273.3906"/><text fill="#000000" font-family="sans-serif" font-size="20" font-weight="bold" lengthAdjust="spacing" textLength="11" x="504.5" y="254.418">3</text><text fill="#000000" font-family="sans-serif" font-size="20" lengthAdjust="spacing" textLength="289" x="519.5" y="241.8398">requests all applications from the</text><text fill="#000000" font-family="sans-serif" font-size="20" lengthAdjust="spacing" textLength="265" x="525.5" y="266.9961">candidate, including their state</text><polygon fill="#181818" points="508.5,308.5469,498.5,312.5469,508.5,316.5469,504.5,312.5469" style="stroke:#181818;stroke-width:1.0;"/><line style="stroke:#181818;stroke-width:1.0;stroke-dasharray:2.0,2.0;" x1="502.5" x2="829.5" y1="312.5469" y2="312.5469"/><text fill="#000000" font-family="sans-serif" font-size="20" font-weight="bold" lengthAdjust="spacing" textLength="11" x="514.5" y="306.1523">4</text><text fill="#000000" font-family="sans-serif" font-size="20" lengthAdjust="spacing" textLength="123" x="529.5" y="306.1523">application list</text><polygon fill="#181818" points="68.5,347.7031,58.5,351.7031,68.5,355.7031,64.5,351.7031" style="stroke:#181818;stroke-width:1.0;"/><line style="stroke:#181818;stroke-width:1.0;stroke-dasharray:2.0,2.0;" x1="62.5" x2="491.5" y1="351.7031" y2="351.7031"/><text fill="#000000" font-family="sans-serif" font-size="20" font-weight="bold" lengthAdjust="spacing" textLength="11" x="74.5" y="345.3086">5</text><text fill="#000000" font-family="sans-serif" font-size="20" lengthAdjust="spacing" textLength="185" x="89.5" y="345.3086">shows application list</text><!--SRC=[VP1FImCn4CNl-HH3JmeM5htr84XjpwLh1Q6ND3jjXsOdCPbjqK_lP1VjduENC87tVk_Dv0DnjCcsFhW3Dj3WrdPUve6bfc-4nyeO8V48g_gfgYgelx9W2pL-TiWEuPNiJkt6s4u2T-q6ayvEGeBHr793ZHKSWSqAc2sDPWavYfO5HWDhpNT_GdY9yRvNrn_rjNWUl0ydM4NDJaTCWsgsV5Tg2QHZyVSXfhmmVYuGcAZka442UCe2rdiWoM1ZzEIiK63zS0EoHqgGHIdvp2irJC4KMX-cG5JLHcbxpF0sNO0BpEWAwi8uDBkrfdAtNFArnrM7RGfjAR5cSB_dU01Yvxk6U7VPJniDlF5vnpEgtzCqU5jbwAAE_ZeJoFjmolyRo_8_]--></g></svg>