<?xml version="1.0" encoding="us-ascii" standalone="no"?><svg xmlns="http://www.w3.org/2000/svg" xmlns:xlink="http://www.w3.org/1999/xlink" contentStyleType="text/css" height="545.71px" preserveAspectRatio="none" style="width:1278px;height:545px;background:#FFFFFF;" version="1.1" viewBox="0 0 1278 545" width="1278.38px" zoomAndPan="magnify"><defs/><g><text fill="#000000" font-family="sans-serif" font-size="5.74" font-weight="bold" lengthAdjust="spacing" textLength="63.55" x="604.545" y="10.294">US1014 Domain Model</text><!--cluster <<aggregate>> Job Opening--><g id="cluster_&lt;&lt;aggregate&gt;&gt; Job Opening"><path d="M315.085,159.7503 L390.115,159.7503 A1.5375,1.5375 0 0 1 391.14,160.7753 L394.01,169.8449 L723.035,169.8449 A1.025,1.025 0 0 1 724.06,170.8699 L724.06,339.5353 A1.025,1.025 0 0 1 723.035,340.5603 L315.085,340.5603 A1.025,1.025 0 0 1 314.06,339.5353 L314.06,160.7753 A1.025,1.025 0 0 1 315.085,159.7503 " fill="none" style="stroke:#000000;stroke-width:0.615;"/><line style="stroke:#000000;stroke-width:0.615;" x1="314.06" x2="394.01" y1="169.8449" y2="169.8449"/><text fill="#000000" font-family="sans-serif" font-size="5.74" font-weight="bold" lengthAdjust="spacing" textLength="74.62" x="315.7" y="166.7643">&#171;aggregate&#187; Job Opening</text></g><!--cluster <<aggregate>> Customer Manager--><g id="cluster_&lt;&lt;aggregate&gt;&gt; Customer Manager"><path d="M674.655,18.7103 L767.725,18.7103 A1.5375,1.5375 0 0 1 768.75,19.7353 L771.62,28.8049 L771.825,28.8049 A1.025,1.025 0 0 1 772.85,29.8299 L772.85,67.7053 A1.025,1.025 0 0 1 771.825,68.7303 L674.655,68.7303 A1.025,1.025 0 0 1 673.63,67.7053 L673.63,19.7353 A1.025,1.025 0 0 1 674.655,18.7103 " fill="none" style="stroke:#000000;stroke-width:0.615;"/><line style="stroke:#000000;stroke-width:0.615;" x1="673.63" x2="771.62" y1="28.8049" y2="28.8049"/><text fill="#000000" font-family="sans-serif" font-size="5.74" font-weight="bold" lengthAdjust="spacing" textLength="92.66" x="675.27" y="25.7243">&#171;aggregate&#187; Customer Manager</text></g><!--cluster <<aggregate>> Candidate--><g id="cluster_&lt;&lt;aggregate&gt;&gt; Candidate"><path d="M1112.535,89.6403 L1179.775,89.6403 A1.5375,1.5375 0 0 1 1180.8,90.6653 L1183.67,99.7349 L1274.485,99.7349 A1.025,1.025 0 0 1 1275.51,100.7599 L1275.51,275.5753 A1.025,1.025 0 0 1 1274.485,276.6003 L1112.535,276.6003 A1.025,1.025 0 0 1 1111.51,275.5753 L1111.51,90.6653 A1.025,1.025 0 0 1 1112.535,89.6403 " fill="none" style="stroke:#000000;stroke-width:0.615;"/><line style="stroke:#000000;stroke-width:0.615;" x1="1111.51" x2="1183.67" y1="99.7349" y2="99.7349"/><text fill="#000000" font-family="sans-serif" font-size="5.74" font-weight="bold" lengthAdjust="spacing" textLength="66.83" x="1113.15" y="96.6543">&#171;aggregate&#187; Candidate</text></g><!--cluster <<aggregate>> Application--><g id="cluster_&lt;&lt;aggregate&gt;&gt; Application"><path d="M734.925,229.8603 L805.035,229.8603 A1.5375,1.5375 0 0 1 806.06,230.8853 L808.93,239.9549 L1100.645,239.9549 A1.025,1.025 0 0 1 1101.67,240.9799 L1101.67,542.0753 A1.025,1.025 0 0 1 1100.645,543.1003 L734.925,543.1003 A1.025,1.025 0 0 1 733.9,542.0753 L733.9,230.8853 A1.025,1.025 0 0 1 734.925,229.8603 " fill="none" style="stroke:#000000;stroke-width:0.615;"/><line style="stroke:#000000;stroke-width:0.615;" x1="733.9" x2="808.93" y1="239.9549" y2="239.9549"/><text fill="#000000" font-family="sans-serif" font-size="5.74" font-weight="bold" lengthAdjust="spacing" textLength="69.7" x="735.54" y="236.8743">&#171;aggregate&#187; Application</text></g><!--cluster <<aggregate>> Recruitment Process--><g id="cluster_&lt;&lt;aggregate&gt;&gt; Recruitment Process"><path d="M3.485,229.8603 L101.885,229.8603 A1.5375,1.5375 0 0 1 102.91,230.8853 L105.78,239.9549 L253.585,239.9549 A1.025,1.025 0 0 1 254.61,240.9799 L254.61,336.2553 A1.025,1.025 0 0 1 253.585,337.2803 L3.485,337.2803 A1.025,1.025 0 0 1 2.46,336.2553 L2.46,230.8853 A1.025,1.025 0 0 1 3.485,229.8603 " fill="none" style="stroke:#000000;stroke-width:0.615;"/><line style="stroke:#000000;stroke-width:0.615;" x1="2.46" x2="105.78" y1="239.9549" y2="239.9549"/><text fill="#000000" font-family="sans-serif" font-size="5.74" font-weight="bold" lengthAdjust="spacing" textLength="97.99" x="4.1" y="236.8743">&#171;aggregate&#187; Recruitment Process</text></g><!--class JobOpening--><g id="elem_JobOpening"><rect codeLine="19" fill="#F5F5DC" height="28.1026" id="JobOpening" rx="1.025" ry="1.025" style="stroke:#181818;stroke-width:0.205;" width="44.28" x="515.78" y="174.9203"/><ellipse cx="521.93" cy="187.3316" fill="#ADD1B2" rx="4.51" ry="4.51" style="stroke:#181818;stroke-width:0.41;"/><path d="M521.4623,187.6583 L521.4623,188.6833 L523.2369,188.6833 L523.2369,188.3053 Q523.2369,188.0555 523.333,187.9466 Q523.4355,187.8377 523.5892,187.8377 Q523.743,187.8377 523.8391,187.9466 Q523.9352,188.0555 523.9352,188.3053 L523.9352,189.3816 L520.6552,189.3816 Q520.3989,189.3816 520.29,189.2855 Q520.1875,189.1894 520.1875,189.0292 Q520.1875,188.8755 520.2964,188.7794 Q520.4053,188.6833 520.6552,188.6833 L520.7641,188.6833 L520.7641,185.9542 L520.6552,185.9542 Q520.3989,185.9542 520.29,185.8581 Q520.1875,185.762 520.1875,185.6019 Q520.1875,185.4481 520.29,185.352 Q520.3989,185.2559 520.6552,185.2559 L523.7814,185.2559 L523.7814,186.3194 Q523.7814,186.5692 523.6853,186.6781 Q523.5956,186.7806 523.4355,186.7806 Q523.2817,186.7806 523.1856,186.6781 Q523.0895,186.5692 523.0895,186.3194 L523.0895,185.9542 L521.4623,185.9542 L521.4623,186.96 L522.0709,186.96 Q522.0709,186.6909 522.1222,186.6141 Q522.2311,186.4475 522.4233,186.4475 Q522.577,186.4475 522.6731,186.5564 Q522.7692,186.6589 522.7692,186.9088 L522.7692,187.7159 Q522.7692,187.9402 522.718,188.017 Q522.6091,188.1772 522.4233,188.1772 Q522.2311,188.1772 522.1222,188.0106 Q522.0709,187.9337 522.0709,187.6583 L521.4623,187.6583 Z " fill="#000000"/><text fill="#000000" font-family="sans-serif" font-size="4.92" font-style="italic" lengthAdjust="spacing" textLength="17.63" x="534.435" y="182.2794">&#171;entity&#187;</text><text fill="#000000" font-family="sans-serif" font-size="4.92" font-style="italic" lengthAdjust="spacing" textLength="14.35" x="536.075" y="188.8234">&#171;root&#187;</text><text fill="#000000" font-family="sans-serif" font-size="5.74" lengthAdjust="spacing" textLength="31.16" x="527.67" y="196.2523">JobOpening</text><line style="stroke:#181818;stroke-width:0.205;" x1="516.19" x2="559.65" y1="199.7429" y2="199.7429"/></g><!--class JobFunction--><g id="elem_JobFunction"><rect codeLine="20" fill="#F5F5DC" height="21.5586" id="JobFunction" rx="1.025" ry="1.025" style="stroke:#181818;stroke-width:0.205;" width="44.69" x="597.575" y="248.3103"/><ellipse cx="603.725" cy="257.4496" fill="#FF8B40" rx="4.51" ry="4.51" style="stroke:#181818;stroke-width:0.41;"/><path d="M603.9684,258.7885 L604.9806,256.3797 L604.8205,256.3797 Q604.5706,256.3797 604.4617,256.2836 Q604.3528,256.1875 604.3528,256.0274 Q604.3528,255.8736 604.4617,255.7775 Q604.5706,255.6814 604.8205,255.6814 L605.7558,255.6814 Q606.0056,255.6814 606.1145,255.7775 Q606.2234,255.8736 606.2234,256.0274 Q606.2234,256.2196 606.0569,256.3285 Q605.98,256.3797 605.7366,256.3797 L604.308,259.8071 L603.6353,259.8071 L602.2067,256.3797 Q601.9633,256.3797 601.8864,256.3285 Q601.7198,256.2196 601.7198,256.0274 Q601.7198,255.8736 601.8288,255.7775 Q601.9377,255.6814 602.1875,255.6814 L603.1292,255.6814 Q603.3791,255.6814 603.4816,255.7775 Q603.5905,255.8736 603.5905,256.0274 Q603.5905,256.1875 603.4816,256.2836 Q603.3791,256.3797 603.1292,256.3797 L602.9627,256.3797 L603.9684,258.7885 Z " fill="#000000"/><text fill="#000000" font-family="sans-serif" font-size="4.92" font-style="italic" lengthAdjust="spacing" textLength="33.21" x="608.645" y="255.6694">&#171;value object&#187;</text><text fill="#000000" font-family="sans-serif" font-size="5.74" lengthAdjust="spacing" textLength="31.57" x="609.465" y="263.0983">JobFunction</text><line style="stroke:#181818;stroke-width:0.205;" x1="597.985" x2="641.855" y1="266.5889" y2="266.5889"/></g><!--class JobOpeningStatus--><g id="elem_JobOpeningStatus"><rect codeLine="21" fill="#F5F5DC" height="21.5586" id="JobOpeningStatus" rx="1.025" ry="1.025" style="stroke:#181818;stroke-width:0.205;" width="60.68" x="656.82" y="248.3103"/><ellipse cx="662.97" cy="257.4496" fill="#FF8B40" rx="4.51" ry="4.51" style="stroke:#181818;stroke-width:0.41;"/><path d="M663.2134,258.7885 L664.2256,256.3797 L664.0655,256.3797 Q663.8156,256.3797 663.7067,256.2836 Q663.5978,256.1875 663.5978,256.0274 Q663.5978,255.8736 663.7067,255.7775 Q663.8156,255.6814 664.0655,255.6814 L665.0008,255.6814 Q665.2506,255.6814 665.3595,255.7775 Q665.4684,255.8736 665.4684,256.0274 Q665.4684,256.2196 665.3019,256.3285 Q665.225,256.3797 664.9816,256.3797 L663.553,259.8071 L662.8803,259.8071 L661.4517,256.3797 Q661.2083,256.3797 661.1314,256.3285 Q660.9648,256.2196 660.9648,256.0274 Q660.9648,255.8736 661.0737,255.7775 Q661.1827,255.6814 661.4325,255.6814 L662.3742,255.6814 Q662.6241,255.6814 662.7266,255.7775 Q662.8355,255.8736 662.8355,256.0274 Q662.8355,256.1875 662.7266,256.2836 Q662.6241,256.3797 662.3742,256.3797 L662.2077,256.3797 L663.2134,258.7885 Z " fill="#000000"/><text fill="#000000" font-family="sans-serif" font-size="4.92" font-style="italic" lengthAdjust="spacing" textLength="33.21" x="675.885" y="255.6694">&#171;value object&#187;</text><text fill="#000000" font-family="sans-serif" font-size="5.74" lengthAdjust="spacing" textLength="47.56" x="668.71" y="263.0983">JobOpeningStatus</text><line style="stroke:#181818;stroke-width:0.205;" x1="657.23" x2="717.09" y1="266.5889" y2="266.5889"/></g><!--class ContractType--><g id="elem_ContractType"><rect codeLine="22" fill="#F5F5DC" height="21.5586" id="ContractType" rx="1.025" ry="1.025" style="stroke:#181818;stroke-width:0.205;" width="48.38" x="321.85" y="308.9903"/><ellipse cx="328" cy="318.1296" fill="#FF8B40" rx="4.51" ry="4.51" style="stroke:#181818;stroke-width:0.41;"/><path d="M328.2434,319.4685 L329.2556,317.0597 L329.0955,317.0597 Q328.8456,317.0597 328.7367,316.9636 Q328.6278,316.8675 328.6278,316.7074 Q328.6278,316.5536 328.7367,316.4575 Q328.8456,316.3614 329.0955,316.3614 L330.0308,316.3614 Q330.2806,316.3614 330.3895,316.4575 Q330.4984,316.5536 330.4984,316.7074 Q330.4984,316.8996 330.3319,317.0085 Q330.255,317.0597 330.0116,317.0597 L328.583,320.4871 L327.9103,320.4871 L326.4817,317.0597 Q326.2383,317.0597 326.1614,317.0085 Q325.9948,316.8996 325.9948,316.7074 Q325.9948,316.5536 326.1038,316.4575 Q326.2127,316.3614 326.4625,316.3614 L327.4042,316.3614 Q327.6541,316.3614 327.7566,316.4575 Q327.8655,316.5536 327.8655,316.7074 Q327.8655,316.8675 327.7566,316.9636 Q327.6541,317.0597 327.4042,317.0597 L327.2377,317.0597 L328.2434,319.4685 Z " fill="#000000"/><text fill="#000000" font-family="sans-serif" font-size="4.92" font-style="italic" lengthAdjust="spacing" textLength="33.21" x="334.765" y="316.3494">&#171;value object&#187;</text><text fill="#000000" font-family="sans-serif" font-size="5.74" lengthAdjust="spacing" textLength="35.26" x="333.74" y="323.7783">ContractType</text><line style="stroke:#181818;stroke-width:0.205;" x1="322.26" x2="369.82" y1="327.2689" y2="327.2689"/></g><!--class Mode--><g id="elem_Mode"><rect codeLine="23" fill="#F5F5DC" height="21.5586" id="Mode" rx="1.025" ry="1.025" style="stroke:#181818;stroke-width:0.205;" width="44.69" x="370.025" y="248.3103"/><ellipse cx="376.175" cy="257.4496" fill="#FF8B40" rx="4.51" ry="4.51" style="stroke:#181818;stroke-width:0.41;"/><path d="M376.4184,258.7885 L377.4306,256.3797 L377.2705,256.3797 Q377.0206,256.3797 376.9117,256.2836 Q376.8028,256.1875 376.8028,256.0274 Q376.8028,255.8736 376.9117,255.7775 Q377.0206,255.6814 377.2705,255.6814 L378.2058,255.6814 Q378.4556,255.6814 378.5645,255.7775 Q378.6734,255.8736 378.6734,256.0274 Q378.6734,256.2196 378.5069,256.3285 Q378.43,256.3797 378.1866,256.3797 L376.758,259.8071 L376.0853,259.8071 L374.6567,256.3797 Q374.4133,256.3797 374.3364,256.3285 Q374.1698,256.2196 374.1698,256.0274 Q374.1698,255.8736 374.2788,255.7775 Q374.3877,255.6814 374.6375,255.6814 L375.5792,255.6814 Q375.8291,255.6814 375.9316,255.7775 Q376.0405,255.8736 376.0405,256.0274 Q376.0405,256.1875 375.9316,256.2836 Q375.8291,256.3797 375.5792,256.3797 L375.4127,256.3797 L376.4184,258.7885 Z " fill="#000000"/><text fill="#000000" font-family="sans-serif" font-size="4.92" font-style="italic" lengthAdjust="spacing" textLength="33.21" x="381.095" y="255.6694">&#171;value object&#187;</text><text fill="#000000" font-family="sans-serif" font-size="5.74" lengthAdjust="spacing" textLength="14.35" x="390.525" y="263.0983">Mode</text><line style="stroke:#181818;stroke-width:0.205;" x1="370.435" x2="414.305" y1="266.5889" y2="266.5889"/></g><!--class NumberVacancy--><g id="elem_NumberVacancy"><rect codeLine="24" fill="#F5F5DC" height="21.5586" id="NumberVacancy" rx="1.025" ry="1.025" style="stroke:#181818;stroke-width:0.205;" width="55.35" x="429.065" y="248.3103"/><ellipse cx="435.215" cy="257.4496" fill="#FF8B40" rx="4.51" ry="4.51" style="stroke:#181818;stroke-width:0.41;"/><path d="M435.4584,258.7885 L436.4706,256.3797 L436.3105,256.3797 Q436.0606,256.3797 435.9517,256.2836 Q435.8428,256.1875 435.8428,256.0274 Q435.8428,255.8736 435.9517,255.7775 Q436.0606,255.6814 436.3105,255.6814 L437.2458,255.6814 Q437.4956,255.6814 437.6045,255.7775 Q437.7134,255.8736 437.7134,256.0274 Q437.7134,256.2196 437.5469,256.3285 Q437.47,256.3797 437.2266,256.3797 L435.798,259.8071 L435.1253,259.8071 L433.6967,256.3797 Q433.4533,256.3797 433.3764,256.3285 Q433.2098,256.2196 433.2098,256.0274 Q433.2098,255.8736 433.3187,255.7775 Q433.4277,255.6814 433.6775,255.6814 L434.6192,255.6814 Q434.8691,255.6814 434.9716,255.7775 Q435.0805,255.8736 435.0805,256.0274 Q435.0805,256.1875 434.9716,256.2836 Q434.8691,256.3797 434.6192,256.3797 L434.4527,256.3797 L435.4584,258.7885 Z " fill="#000000"/><text fill="#000000" font-family="sans-serif" font-size="4.92" font-style="italic" lengthAdjust="spacing" textLength="33.21" x="445.465" y="255.6694">&#171;value object&#187;</text><text fill="#000000" font-family="sans-serif" font-size="5.74" lengthAdjust="spacing" textLength="42.23" x="440.955" y="263.0983">NumberVacancy</text><line style="stroke:#181818;stroke-width:0.205;" x1="429.475" x2="484.005" y1="266.5889" y2="266.5889"/></g><!--class Description--><g id="elem_Description"><rect codeLine="25" fill="#F5F5DC" height="21.5586" id="Description" rx="1.025" ry="1.025" style="stroke:#181818;stroke-width:0.205;" width="44.69" x="484.825" y="308.9903"/><ellipse cx="490.975" cy="318.1296" fill="#FF8B40" rx="4.51" ry="4.51" style="stroke:#181818;stroke-width:0.41;"/><path d="M491.2184,319.4685 L492.2306,317.0597 L492.0705,317.0597 Q491.8206,317.0597 491.7117,316.9636 Q491.6028,316.8675 491.6028,316.7074 Q491.6028,316.5536 491.7117,316.4575 Q491.8206,316.3614 492.0705,316.3614 L493.0058,316.3614 Q493.2556,316.3614 493.3645,316.4575 Q493.4734,316.5536 493.4734,316.7074 Q493.4734,316.8996 493.3069,317.0085 Q493.23,317.0597 492.9866,317.0597 L491.558,320.4871 L490.8853,320.4871 L489.4567,317.0597 Q489.2133,317.0597 489.1364,317.0085 Q488.9698,316.8996 488.9698,316.7074 Q488.9698,316.5536 489.0787,316.4575 Q489.1877,316.3614 489.4375,316.3614 L490.3792,316.3614 Q490.6291,316.3614 490.7316,316.4575 Q490.8405,316.5536 490.8405,316.7074 Q490.8405,316.8675 490.7316,316.9636 Q490.6291,317.0597 490.3792,317.0597 L490.2127,317.0597 L491.2184,319.4685 Z " fill="#000000"/><text fill="#000000" font-family="sans-serif" font-size="4.92" font-style="italic" lengthAdjust="spacing" textLength="33.21" x="495.895" y="316.3494">&#171;value object&#187;</text><text fill="#000000" font-family="sans-serif" font-size="5.74" lengthAdjust="spacing" textLength="29.11" x="497.945" y="323.7783">Description</text><line style="stroke:#181818;stroke-width:0.205;" x1="485.235" x2="529.105" y1="327.2689" y2="327.2689"/></g><!--class JobReference--><g id="elem_JobReference"><rect codeLine="26" fill="#F5F5DC" height="28.1026" id="JobReference" rx="1.025" ry="1.025" style="stroke:#181818;stroke-width:0.205;" width="49.2" x="544.07" y="305.7103"/><ellipse cx="550.22" cy="318.1216" fill="#FF8B40" rx="4.51" ry="4.51" style="stroke:#181818;stroke-width:0.41;"/><path d="M550.4634,319.4605 L551.4756,317.0517 L551.3155,317.0517 Q551.0656,317.0517 550.9567,316.9556 Q550.8478,316.8595 550.8478,316.6994 Q550.8478,316.5456 550.9567,316.4495 Q551.0656,316.3534 551.3155,316.3534 L552.2508,316.3534 Q552.5006,316.3534 552.6095,316.4495 Q552.7184,316.5456 552.7184,316.6994 Q552.7184,316.8916 552.5519,317.0005 Q552.475,317.0517 552.2316,317.0517 L550.803,320.4791 L550.1303,320.4791 L548.7017,317.0517 Q548.4583,317.0517 548.3814,317.0005 Q548.2148,316.8916 548.2148,316.6994 Q548.2148,316.5456 548.3238,316.4495 Q548.4327,316.3534 548.6825,316.3534 L549.6242,316.3534 Q549.8741,316.3534 549.9766,316.4495 Q550.0855,316.5456 550.0855,316.6994 Q550.0855,316.8595 549.9766,316.9556 Q549.8741,317.0517 549.6242,317.0517 L549.4577,317.0517 L550.4634,319.4605 Z " fill="#000000"/><text fill="#000000" font-family="sans-serif" font-size="4.92" font-style="italic" lengthAdjust="spacing" textLength="33.21" x="557.395" y="313.0694">&#171;value object&#187;</text><text fill="#000000" font-family="sans-serif" font-size="4.92" font-style="italic" lengthAdjust="spacing" textLength="25.01" x="561.495" y="319.6134">&#171;identifier&#187;</text><text fill="#000000" font-family="sans-serif" font-size="5.74" lengthAdjust="spacing" textLength="36.08" x="555.96" y="327.0423">JobReference</text><line style="stroke:#181818;stroke-width:0.205;" x1="544.48" x2="592.86" y1="330.5329" y2="330.5329"/></g><!--class CustomerManager--><g id="elem_CustomerManager"><rect codeLine="35" fill="#F5F5DC" height="28.1026" id="CustomerManager" rx="1.025" ry="1.025" style="stroke:#181818;stroke-width:0.205;" width="61.09" x="692.695" y="33.8803"/><ellipse cx="698.845" cy="46.2916" fill="#ADD1B2" rx="4.51" ry="4.51" style="stroke:#181818;stroke-width:0.41;"/><path d="M698.3773,46.6183 L698.3773,47.6433 L700.1519,47.6433 L700.1519,47.2653 Q700.1519,47.0155 700.248,46.9066 Q700.3505,46.7977 700.5042,46.7977 Q700.658,46.7977 700.7541,46.9066 Q700.8502,47.0155 700.8502,47.2653 L700.8502,48.3416 L697.5702,48.3416 Q697.3139,48.3416 697.205,48.2455 Q697.1025,48.1494 697.1025,47.9892 Q697.1025,47.8355 697.2114,47.7394 Q697.3203,47.6433 697.5702,47.6433 L697.6791,47.6433 L697.6791,44.9142 L697.5702,44.9142 Q697.3139,44.9142 697.205,44.8181 Q697.1025,44.722 697.1025,44.5619 Q697.1025,44.4081 697.205,44.312 Q697.3139,44.2159 697.5702,44.2159 L700.6964,44.2159 L700.6964,45.2794 Q700.6964,45.5292 700.6003,45.6381 Q700.5106,45.7406 700.3505,45.7406 Q700.1967,45.7406 700.1006,45.6381 Q700.0045,45.5292 700.0045,45.2794 L700.0045,44.9142 L698.3773,44.9142 L698.3773,45.92 L698.9859,45.92 Q698.9859,45.6509 699.0372,45.5741 Q699.1461,45.4075 699.3383,45.4075 Q699.492,45.4075 699.5881,45.5164 Q699.6842,45.6189 699.6842,45.8688 L699.6842,46.6759 Q699.6842,46.9002 699.633,46.977 Q699.5241,47.1372 699.3383,47.1372 Q699.1461,47.1372 699.0372,46.9706 Q698.9859,46.8938 698.9859,46.6183 L698.3773,46.6183 Z " fill="#000000"/><text fill="#000000" font-family="sans-serif" font-size="4.92" font-style="italic" lengthAdjust="spacing" textLength="17.63" x="719.755" y="41.2394">&#171;entity&#187;</text><text fill="#000000" font-family="sans-serif" font-size="4.92" font-style="italic" lengthAdjust="spacing" textLength="14.35" x="721.395" y="47.7834">&#171;root&#187;</text><text fill="#000000" font-family="sans-serif" font-size="5.74" lengthAdjust="spacing" textLength="47.97" x="704.585" y="55.2123">CustomerManager</text><line style="stroke:#181818;stroke-width:0.205;" x1="693.105" x2="753.375" y1="58.7029" y2="58.7029"/></g><!--class Candidate--><g id="elem_Candidate"><rect codeLine="41" fill="#F5F5DC" height="28.1026" id="Candidate" rx="1.025" ry="1.025" style="stroke:#181818;stroke-width:0.205;" width="39.77" x="1118.275" y="104.8103"/><ellipse cx="1124.425" cy="117.2216" fill="#ADD1B2" rx="4.51" ry="4.51" style="stroke:#181818;stroke-width:0.41;"/><path d="M1123.9573,117.5483 L1123.9573,118.5733 L1125.7319,118.5733 L1125.7319,118.1953 Q1125.7319,117.9455 1125.828,117.8366 Q1125.9305,117.7277 1126.0842,117.7277 Q1126.238,117.7277 1126.3341,117.8366 Q1126.4302,117.9455 1126.4302,118.1953 L1126.4302,119.2716 L1123.1502,119.2716 Q1122.8939,119.2716 1122.785,119.1755 Q1122.6825,119.0794 1122.6825,118.9192 Q1122.6825,118.7655 1122.7914,118.6694 Q1122.9003,118.5733 1123.1502,118.5733 L1123.2591,118.5733 L1123.2591,115.8442 L1123.1502,115.8442 Q1122.8939,115.8442 1122.785,115.7481 Q1122.6825,115.652 1122.6825,115.4919 Q1122.6825,115.3381 1122.785,115.242 Q1122.8939,115.1459 1123.1502,115.1459 L1126.2764,115.1459 L1126.2764,116.2094 Q1126.2764,116.4592 1126.1803,116.5681 Q1126.0906,116.6706 1125.9305,116.6706 Q1125.7767,116.6706 1125.6806,116.5681 Q1125.5845,116.4592 1125.5845,116.2094 L1125.5845,115.8442 L1123.9573,115.8442 L1123.9573,116.85 L1124.5659,116.85 Q1124.5659,116.5809 1124.6172,116.5041 Q1124.7261,116.3375 1124.9183,116.3375 Q1125.072,116.3375 1125.1681,116.4464 Q1125.2642,116.5489 1125.2642,116.7988 L1125.2642,117.6059 Q1125.2642,117.8302 1125.213,117.907 Q1125.1041,118.0672 1124.9183,118.0672 Q1124.7261,118.0672 1124.6172,117.9006 Q1124.5659,117.8237 1124.5659,117.5483 L1123.9573,117.5483 Z " fill="#000000"/><text fill="#000000" font-family="sans-serif" font-size="4.92" font-style="italic" lengthAdjust="spacing" textLength="17.63" x="1134.675" y="112.1694">&#171;entity&#187;</text><text fill="#000000" font-family="sans-serif" font-size="4.92" font-style="italic" lengthAdjust="spacing" textLength="14.35" x="1136.315" y="118.7134">&#171;root&#187;</text><text fill="#000000" font-family="sans-serif" font-size="5.74" lengthAdjust="spacing" textLength="26.65" x="1130.165" y="126.1423">Candidate</text><line style="stroke:#181818;stroke-width:0.205;" x1="1118.685" x2="1157.635" y1="129.6329" y2="129.6329"/></g><!--class CandidateName--><g id="elem_CandidateName"><rect codeLine="42" fill="#F5F5DC" height="21.5586" id="CandidateName" rx="1.025" ry="1.025" style="stroke:#181818;stroke-width:0.205;" width="54.53" x="1214.215" y="178.2003"/><ellipse cx="1220.365" cy="187.3396" fill="#FF8B40" rx="4.51" ry="4.51" style="stroke:#181818;stroke-width:0.41;"/><path d="M1220.6084,188.6785 L1221.6206,186.2697 L1221.4605,186.2697 Q1221.2106,186.2697 1221.1017,186.1736 Q1220.9928,186.0775 1220.9928,185.9174 Q1220.9928,185.7636 1221.1017,185.6675 Q1221.2106,185.5714 1221.4605,185.5714 L1222.3958,185.5714 Q1222.6456,185.5714 1222.7545,185.6675 Q1222.8634,185.7636 1222.8634,185.9174 Q1222.8634,186.1096 1222.6969,186.2185 Q1222.62,186.2697 1222.3766,186.2697 L1220.948,189.6971 L1220.2753,189.6971 L1218.8467,186.2697 Q1218.6033,186.2697 1218.5264,186.2185 Q1218.3598,186.1096 1218.3598,185.9174 Q1218.3598,185.7636 1218.4688,185.6675 Q1218.5777,185.5714 1218.8275,185.5714 L1219.7692,185.5714 Q1220.0191,185.5714 1220.1216,185.6675 Q1220.2305,185.7636 1220.2305,185.9174 Q1220.2305,186.0775 1220.1216,186.1736 Q1220.0191,186.2697 1219.7692,186.2697 L1219.6027,186.2697 L1220.6084,188.6785 Z " fill="#000000"/><text fill="#000000" font-family="sans-serif" font-size="4.92" font-style="italic" lengthAdjust="spacing" textLength="33.21" x="1230.205" y="185.5594">&#171;value object&#187;</text><text fill="#000000" font-family="sans-serif" font-size="5.74" lengthAdjust="spacing" textLength="41.41" x="1226.105" y="192.9883">CandidateName</text><line style="stroke:#181818;stroke-width:0.205;" x1="1214.625" x2="1268.335" y1="196.4789" y2="196.4789"/></g><!--class PhoneNumber--><g id="elem_PhoneNumber"><rect codeLine="43" fill="#F5F5DC" height="21.5586" id="PhoneNumber" rx="1.025" ry="1.025" style="stroke:#181818;stroke-width:0.205;" width="50.02" x="1118.07" y="248.3103"/><ellipse cx="1124.22" cy="257.4496" fill="#FF8B40" rx="4.51" ry="4.51" style="stroke:#181818;stroke-width:0.41;"/><path d="M1124.4634,258.7885 L1125.4756,256.3797 L1125.3155,256.3797 Q1125.0656,256.3797 1124.9567,256.2836 Q1124.8478,256.1875 1124.8478,256.0274 Q1124.8478,255.8736 1124.9567,255.7775 Q1125.0656,255.6814 1125.3155,255.6814 L1126.2508,255.6814 Q1126.5006,255.6814 1126.6095,255.7775 Q1126.7184,255.8736 1126.7184,256.0274 Q1126.7184,256.2196 1126.5519,256.3285 Q1126.475,256.3797 1126.2316,256.3797 L1124.803,259.8071 L1124.1303,259.8071 L1122.7017,256.3797 Q1122.4583,256.3797 1122.3814,256.3285 Q1122.2148,256.2196 1122.2148,256.0274 Q1122.2148,255.8736 1122.3238,255.7775 Q1122.4327,255.6814 1122.6825,255.6814 L1123.6242,255.6814 Q1123.8741,255.6814 1123.9766,255.7775 Q1124.0855,255.8736 1124.0855,256.0274 Q1124.0855,256.1875 1123.9766,256.2836 Q1123.8741,256.3797 1123.6242,256.3797 L1123.4577,256.3797 L1124.4634,258.7885 Z " fill="#000000"/><text fill="#000000" font-family="sans-serif" font-size="4.92" font-style="italic" lengthAdjust="spacing" textLength="33.21" x="1131.805" y="255.6694">&#171;value object&#187;</text><text fill="#000000" font-family="sans-serif" font-size="5.74" lengthAdjust="spacing" textLength="36.9" x="1129.96" y="263.0983">PhoneNumber</text><line style="stroke:#181818;stroke-width:0.205;" x1="1118.48" x2="1167.68" y1="266.5889" y2="266.5889"/></g><!--class Email--><g id="elem_Email"><rect codeLine="44" fill="#F5F5DC" height="21.5586" id="Email" rx="1.025" ry="1.025" style="stroke:#181818;stroke-width:0.205;" width="44.69" x="1182.645" y="248.3103"/><ellipse cx="1188.795" cy="257.4496" fill="#FF8B40" rx="4.51" ry="4.51" style="stroke:#181818;stroke-width:0.41;"/><path d="M1189.0384,258.7885 L1190.0506,256.3797 L1189.8905,256.3797 Q1189.6406,256.3797 1189.5317,256.2836 Q1189.4228,256.1875 1189.4228,256.0274 Q1189.4228,255.8736 1189.5317,255.7775 Q1189.6406,255.6814 1189.8905,255.6814 L1190.8258,255.6814 Q1191.0756,255.6814 1191.1845,255.7775 Q1191.2934,255.8736 1191.2934,256.0274 Q1191.2934,256.2196 1191.1269,256.3285 Q1191.05,256.3797 1190.8066,256.3797 L1189.378,259.8071 L1188.7053,259.8071 L1187.2767,256.3797 Q1187.0333,256.3797 1186.9564,256.3285 Q1186.7898,256.2196 1186.7898,256.0274 Q1186.7898,255.8736 1186.8987,255.7775 Q1187.0077,255.6814 1187.2575,255.6814 L1188.1992,255.6814 Q1188.4491,255.6814 1188.5516,255.7775 Q1188.6605,255.8736 1188.6605,256.0274 Q1188.6605,256.1875 1188.5516,256.2836 Q1188.4491,256.3797 1188.1992,256.3797 L1188.0327,256.3797 L1189.0384,258.7885 Z " fill="#000000"/><text fill="#000000" font-family="sans-serif" font-size="4.92" font-style="italic" lengthAdjust="spacing" textLength="33.21" x="1193.715" y="255.6694">&#171;value object&#187;</text><text fill="#000000" font-family="sans-serif" font-size="5.74" lengthAdjust="spacing" textLength="13.94" x="1203.35" y="263.0983">Email</text><line style="stroke:#181818;stroke-width:0.205;" x1="1183.055" x2="1226.925" y1="266.5889" y2="266.5889"/></g><!--class Application--><g id="elem_Application"><rect codeLine="49" fill="#F5F5DC" height="28.1026" id="Application" rx="1.025" ry="1.025" style="stroke:#181818;stroke-width:0.205;" width="41.41" x="841.115" y="245.0303"/><ellipse cx="847.265" cy="257.4416" fill="#ADD1B2" rx="4.51" ry="4.51" style="stroke:#181818;stroke-width:0.41;"/><path d="M846.7973,257.7683 L846.7973,258.7933 L848.5719,258.7933 L848.5719,258.4153 Q848.5719,258.1655 848.668,258.0566 Q848.7705,257.9477 848.9242,257.9477 Q849.078,257.9477 849.1741,258.0566 Q849.2702,258.1655 849.2702,258.4153 L849.2702,259.4916 L845.9902,259.4916 Q845.7339,259.4916 845.625,259.3955 Q845.5225,259.2994 845.5225,259.1392 Q845.5225,258.9855 845.6314,258.8894 Q845.7403,258.7933 845.9902,258.7933 L846.0991,258.7933 L846.0991,256.0642 L845.9902,256.0642 Q845.7339,256.0642 845.625,255.9681 Q845.5225,255.872 845.5225,255.7119 Q845.5225,255.5581 845.625,255.462 Q845.7339,255.3659 845.9902,255.3659 L849.1164,255.3659 L849.1164,256.4294 Q849.1164,256.6792 849.0203,256.7881 Q848.9306,256.8906 848.7705,256.8906 Q848.6167,256.8906 848.5206,256.7881 Q848.4245,256.6792 848.4245,256.4294 L848.4245,256.0642 L846.7973,256.0642 L846.7973,257.07 L847.4059,257.07 Q847.4059,256.8009 847.4572,256.7241 Q847.5661,256.5575 847.7583,256.5575 Q847.912,256.5575 848.0081,256.6664 Q848.1042,256.7689 848.1042,257.0188 L848.1042,257.8259 Q848.1042,258.0502 848.053,258.127 Q847.9441,258.2872 847.7583,258.2872 Q847.5661,258.2872 847.4572,258.1206 Q847.4059,258.0438 847.4059,257.7683 L846.7973,257.7683 Z " fill="#000000"/><text fill="#000000" font-family="sans-serif" font-size="4.92" font-style="italic" lengthAdjust="spacing" textLength="17.63" x="858.335" y="252.3894">&#171;entity&#187;</text><text fill="#000000" font-family="sans-serif" font-size="4.92" font-style="italic" lengthAdjust="spacing" textLength="14.35" x="859.975" y="258.9334">&#171;root&#187;</text><text fill="#000000" font-family="sans-serif" font-size="5.74" lengthAdjust="spacing" textLength="28.29" x="853.005" y="266.3623">Application</text><line style="stroke:#181818;stroke-width:0.205;" x1="841.525" x2="882.115" y1="269.8529" y2="269.8529"/></g><!--class ApplicationDate--><g id="elem_ApplicationDate"><rect codeLine="50" fill="#F5F5DC" height="21.5586" id="ApplicationDate" rx="1.025" ry="1.025" style="stroke:#181818;stroke-width:0.205;" width="53.71" x="876.785" y="359.8303"/><ellipse cx="882.935" cy="368.9696" fill="#FF8B40" rx="4.51" ry="4.51" style="stroke:#181818;stroke-width:0.41;"/><path d="M883.1784,370.3085 L884.1906,367.8997 L884.0305,367.8997 Q883.7806,367.8997 883.6717,367.8036 Q883.5628,367.7075 883.5628,367.5474 Q883.5628,367.3936 883.6717,367.2975 Q883.7806,367.2014 884.0305,367.2014 L884.9658,367.2014 Q885.2156,367.2014 885.3245,367.2975 Q885.4334,367.3936 885.4334,367.5474 Q885.4334,367.7396 885.2669,367.8485 Q885.19,367.8997 884.9466,367.8997 L883.518,371.3271 L882.8453,371.3271 L881.4167,367.8997 Q881.1733,367.8997 881.0964,367.8485 Q880.9298,367.7396 880.9298,367.5474 Q880.9298,367.3936 881.0387,367.2975 Q881.1477,367.2014 881.3975,367.2014 L882.3392,367.2014 Q882.5891,367.2014 882.6916,367.2975 Q882.8005,367.3936 882.8005,367.5474 Q882.8005,367.7075 882.6916,367.8036 Q882.5891,367.8997 882.3392,367.8997 L882.1727,367.8997 L883.1784,370.3085 Z " fill="#000000"/><text fill="#000000" font-family="sans-serif" font-size="4.92" font-style="italic" lengthAdjust="spacing" textLength="33.21" x="892.365" y="367.1894">&#171;value object&#187;</text><text fill="#000000" font-family="sans-serif" font-size="5.74" lengthAdjust="spacing" textLength="40.59" x="888.675" y="374.6183">ApplicationDate</text><line style="stroke:#181818;stroke-width:0.205;" x1="877.195" x2="930.085" y1="378.1089" y2="378.1089"/></g><!--class ApplicationStatus--><g id="elem_ApplicationStatus"><rect codeLine="51" fill="#F5F5DC" height="21.5586" id="ApplicationStatus" rx="1.025" ry="1.025" style="stroke:#181818;stroke-width:0.205;" width="57.81" x="907.945" y="308.9903"/><ellipse cx="914.095" cy="318.1296" fill="#FF8B40" rx="4.51" ry="4.51" style="stroke:#181818;stroke-width:0.41;"/><path d="M914.3384,319.4685 L915.3506,317.0597 L915.1905,317.0597 Q914.9406,317.0597 914.8317,316.9636 Q914.7228,316.8675 914.7228,316.7074 Q914.7228,316.5536 914.8317,316.4575 Q914.9406,316.3614 915.1905,316.3614 L916.1258,316.3614 Q916.3756,316.3614 916.4845,316.4575 Q916.5934,316.5536 916.5934,316.7074 Q916.5934,316.8996 916.4269,317.0085 Q916.35,317.0597 916.1066,317.0597 L914.678,320.4871 L914.0053,320.4871 L912.5767,317.0597 Q912.3333,317.0597 912.2564,317.0085 Q912.0898,316.8996 912.0898,316.7074 Q912.0898,316.5536 912.1987,316.4575 Q912.3077,316.3614 912.5575,316.3614 L913.4992,316.3614 Q913.7491,316.3614 913.8516,316.4575 Q913.9605,316.5536 913.9605,316.7074 Q913.9605,316.8675 913.8516,316.9636 Q913.7491,317.0597 913.4992,317.0597 L913.3327,317.0597 L914.3384,319.4685 Z " fill="#000000"/><text fill="#000000" font-family="sans-serif" font-size="4.92" font-style="italic" lengthAdjust="spacing" textLength="33.21" x="925.575" y="316.3494">&#171;value object&#187;</text><text fill="#000000" font-family="sans-serif" font-size="5.74" lengthAdjust="spacing" textLength="44.69" x="919.835" y="323.7783">ApplicationStatus</text><line style="stroke:#181818;stroke-width:0.205;" x1="908.355" x2="965.345" y1="327.2689" y2="327.2689"/></g><!--class Interview--><g id="elem_Interview"><rect codeLine="52" fill="#F5F5DC" height="21.5586" id="Interview" rx="1.025" ry="1.025" style="stroke:#181818;stroke-width:0.205;" width="44.69" x="972.315" y="359.8303"/><ellipse cx="978.465" cy="368.9696" fill="#FF8B40" rx="4.51" ry="4.51" style="stroke:#181818;stroke-width:0.41;"/><path d="M978.7084,370.3085 L979.7206,367.8997 L979.5605,367.8997 Q979.3106,367.8997 979.2017,367.8036 Q979.0928,367.7075 979.0928,367.5474 Q979.0928,367.3936 979.2017,367.2975 Q979.3106,367.2014 979.5605,367.2014 L980.4958,367.2014 Q980.7456,367.2014 980.8545,367.2975 Q980.9634,367.3936 980.9634,367.5474 Q980.9634,367.7396 980.7969,367.8485 Q980.72,367.8997 980.4766,367.8997 L979.048,371.3271 L978.3753,371.3271 L976.9467,367.8997 Q976.7033,367.8997 976.6264,367.8485 Q976.4598,367.7396 976.4598,367.5474 Q976.4598,367.3936 976.5687,367.2975 Q976.6777,367.2014 976.9275,367.2014 L977.8692,367.2014 Q978.1191,367.2014 978.2216,367.2975 Q978.3305,367.3936 978.3305,367.5474 Q978.3305,367.7075 978.2216,367.8036 Q978.1191,367.8997 977.8692,367.8997 L977.7027,367.8997 L978.7084,370.3085 Z " fill="#000000"/><text fill="#000000" font-family="sans-serif" font-size="4.92" font-style="italic" lengthAdjust="spacing" textLength="33.21" x="983.385" y="367.1894">&#171;value object&#187;</text><text fill="#000000" font-family="sans-serif" font-size="5.74" lengthAdjust="spacing" textLength="22.55" x="988.715" y="374.6183">Interview</text><line style="stroke:#181818;stroke-width:0.205;" x1="972.725" x2="1016.595" y1="378.1089" y2="378.1089"/></g><!--class InterviewAnswer--><g id="elem_InterviewAnswer"><rect codeLine="59" fill="#F5F5DC" height="21.5586" id="InterviewAnswer" rx="1.025" ry="1.025" style="stroke:#181818;stroke-width:0.205;" width="54.53" x="1003.885" y="460.6903"/><ellipse cx="1010.035" cy="469.8296" fill="#FF8B40" rx="4.51" ry="4.51" style="stroke:#181818;stroke-width:0.41;"/><path d="M1010.2784,471.1685 L1011.2906,468.7597 L1011.1305,468.7597 Q1010.8806,468.7597 1010.7717,468.6636 Q1010.6628,468.5675 1010.6628,468.4074 Q1010.6628,468.2536 1010.7717,468.1575 Q1010.8806,468.0614 1011.1305,468.0614 L1012.0658,468.0614 Q1012.3156,468.0614 1012.4245,468.1575 Q1012.5334,468.2536 1012.5334,468.4074 Q1012.5334,468.5996 1012.3669,468.7085 Q1012.29,468.7597 1012.0466,468.7597 L1010.618,472.1871 L1009.9453,472.1871 L1008.5167,468.7597 Q1008.2733,468.7597 1008.1964,468.7085 Q1008.0298,468.5996 1008.0298,468.4074 Q1008.0298,468.2536 1008.1388,468.1575 Q1008.2477,468.0614 1008.4975,468.0614 L1009.4392,468.0614 Q1009.6891,468.0614 1009.7916,468.1575 Q1009.9005,468.2536 1009.9005,468.4074 Q1009.9005,468.5675 1009.7916,468.6636 Q1009.6891,468.7597 1009.4392,468.7597 L1009.2727,468.7597 L1010.2784,471.1685 Z " fill="#000000"/><text fill="#000000" font-family="sans-serif" font-size="4.92" font-style="italic" lengthAdjust="spacing" textLength="33.21" x="1019.875" y="468.0494">&#171;value object&#187;</text><text fill="#000000" font-family="sans-serif" font-size="5.74" lengthAdjust="spacing" textLength="41.41" x="1015.775" y="475.4783">InterviewAnswer</text><line style="stroke:#181818;stroke-width:0.205;" x1="1004.295" x2="1058.005" y1="478.9689" y2="478.9689"/></g><!--class InterviewResult--><g id="elem_InterviewResult"><rect codeLine="54" fill="#F5F5DC" height="21.5586" id="InterviewResult" rx="1.025" ry="1.025" style="stroke:#181818;stroke-width:0.205;" width="52.07" x="848.905" y="460.6903"/><ellipse cx="855.055" cy="469.8296" fill="#FF8B40" rx="4.51" ry="4.51" style="stroke:#181818;stroke-width:0.41;"/><path d="M855.2984,471.1685 L856.3106,468.7597 L856.1505,468.7597 Q855.9006,468.7597 855.7917,468.6636 Q855.6828,468.5675 855.6828,468.4074 Q855.6828,468.2536 855.7917,468.1575 Q855.9006,468.0614 856.1505,468.0614 L857.0858,468.0614 Q857.3356,468.0614 857.4445,468.1575 Q857.5534,468.2536 857.5534,468.4074 Q857.5534,468.5996 857.3869,468.7085 Q857.31,468.7597 857.0666,468.7597 L855.638,472.1871 L854.9653,472.1871 L853.5367,468.7597 Q853.2933,468.7597 853.2164,468.7085 Q853.0498,468.5996 853.0498,468.4074 Q853.0498,468.2536 853.1587,468.1575 Q853.2677,468.0614 853.5175,468.0614 L854.4592,468.0614 Q854.7091,468.0614 854.8116,468.1575 Q854.9205,468.2536 854.9205,468.4074 Q854.9205,468.5675 854.8116,468.6636 Q854.7091,468.7597 854.4592,468.7597 L854.2927,468.7597 L855.2984,471.1685 Z " fill="#000000"/><text fill="#000000" font-family="sans-serif" font-size="4.92" font-style="italic" lengthAdjust="spacing" textLength="33.21" x="863.665" y="468.0494">&#171;value object&#187;</text><text fill="#000000" font-family="sans-serif" font-size="5.74" lengthAdjust="spacing" textLength="38.95" x="860.795" y="475.4783">InterviewResult</text><line style="stroke:#181818;stroke-width:0.205;" x1="849.315" x2="900.565" y1="478.9689" y2="478.9689"/></g><!--class Justification--><g id="elem_Justification"><rect codeLine="55" fill="#F5F5DC" height="21.5586" id="Justification" rx="1.025" ry="1.025" style="stroke:#181818;stroke-width:0.205;" width="44.69" x="852.595" y="514.8103"/><ellipse cx="858.745" cy="523.9496" fill="#FF8B40" rx="4.51" ry="4.51" style="stroke:#181818;stroke-width:0.41;"/><path d="M858.9884,525.2885 L860.0006,522.8797 L859.8405,522.8797 Q859.5906,522.8797 859.4817,522.7836 Q859.3728,522.6875 859.3728,522.5274 Q859.3728,522.3736 859.4817,522.2775 Q859.5906,522.1814 859.8405,522.1814 L860.7758,522.1814 Q861.0256,522.1814 861.1345,522.2775 Q861.2434,522.3736 861.2434,522.5274 Q861.2434,522.7196 861.0769,522.8285 Q861,522.8797 860.7566,522.8797 L859.328,526.3071 L858.6553,526.3071 L857.2267,522.8797 Q856.9833,522.8797 856.9064,522.8285 Q856.7398,522.7196 856.7398,522.5274 Q856.7398,522.3736 856.8488,522.2775 Q856.9577,522.1814 857.2075,522.1814 L858.1492,522.1814 Q858.3991,522.1814 858.5016,522.2775 Q858.6105,522.3736 858.6105,522.5274 Q858.6105,522.6875 858.5016,522.7836 Q858.3991,522.8797 858.1492,522.8797 L857.9827,522.8797 L858.9884,525.2885 Z " fill="#000000"/><text fill="#000000" font-family="sans-serif" font-size="4.92" font-style="italic" lengthAdjust="spacing" textLength="33.21" x="863.665" y="522.1694">&#171;value object&#187;</text><text fill="#000000" font-family="sans-serif" font-size="5.74" lengthAdjust="spacing" textLength="29.93" x="865.305" y="529.5983">Justification</text><line style="stroke:#181818;stroke-width:0.205;" x1="853.005" x2="896.875" y1="533.0889" y2="533.0889"/></g><!--class InterviewGrade--><g id="elem_InterviewGrade"><rect codeLine="56" fill="#F5F5DC" height="21.5586" id="InterviewGrade" rx="1.025" ry="1.025" style="stroke:#181818;stroke-width:0.205;" width="52.07" x="937.465" y="460.6903"/><ellipse cx="943.615" cy="469.8296" fill="#FF8B40" rx="4.51" ry="4.51" style="stroke:#181818;stroke-width:0.41;"/><path d="M943.8584,471.1685 L944.8706,468.7597 L944.7105,468.7597 Q944.4606,468.7597 944.3517,468.6636 Q944.2428,468.5675 944.2428,468.4074 Q944.2428,468.2536 944.3517,468.1575 Q944.4606,468.0614 944.7105,468.0614 L945.6458,468.0614 Q945.8956,468.0614 946.0045,468.1575 Q946.1134,468.2536 946.1134,468.4074 Q946.1134,468.5996 945.9469,468.7085 Q945.87,468.7597 945.6266,468.7597 L944.198,472.1871 L943.5253,472.1871 L942.0967,468.7597 Q941.8533,468.7597 941.7764,468.7085 Q941.6098,468.5996 941.6098,468.4074 Q941.6098,468.2536 941.7188,468.1575 Q941.8277,468.0614 942.0775,468.0614 L943.0192,468.0614 Q943.2691,468.0614 943.3716,468.1575 Q943.4805,468.2536 943.4805,468.4074 Q943.4805,468.5675 943.3716,468.6636 Q943.2691,468.7597 943.0192,468.7597 L942.8527,468.7597 L943.8584,471.1685 Z " fill="#000000"/><text fill="#000000" font-family="sans-serif" font-size="4.92" font-style="italic" lengthAdjust="spacing" textLength="33.21" x="952.225" y="468.0494">&#171;value object&#187;</text><text fill="#000000" font-family="sans-serif" font-size="5.74" lengthAdjust="spacing" textLength="38.95" x="949.355" y="475.4783">InterviewGrade</text><line style="stroke:#181818;stroke-width:0.205;" x1="937.875" x2="989.125" y1="478.9689" y2="478.9689"/></g><!--class RequirementAnswer--><g id="elem_RequirementAnswer"><rect codeLine="57" fill="#F5F5DC" height="21.5586" id="RequirementAnswer" rx="1.025" ry="1.025" style="stroke:#181818;stroke-width:0.205;" width="65.19" x="1029.715" y="308.9903"/><ellipse cx="1035.865" cy="318.1296" fill="#FF8B40" rx="4.51" ry="4.51" style="stroke:#181818;stroke-width:0.41;"/><path d="M1036.1084,319.4685 L1037.1206,317.0597 L1036.9605,317.0597 Q1036.7106,317.0597 1036.6017,316.9636 Q1036.4928,316.8675 1036.4928,316.7074 Q1036.4928,316.5536 1036.6017,316.4575 Q1036.7106,316.3614 1036.9605,316.3614 L1037.8958,316.3614 Q1038.1456,316.3614 1038.2545,316.4575 Q1038.3634,316.5536 1038.3634,316.7074 Q1038.3634,316.8996 1038.1969,317.0085 Q1038.12,317.0597 1037.8766,317.0597 L1036.448,320.4871 L1035.7753,320.4871 L1034.3467,317.0597 Q1034.1033,317.0597 1034.0264,317.0085 Q1033.8598,316.8996 1033.8598,316.7074 Q1033.8598,316.5536 1033.9688,316.4575 Q1034.0777,316.3614 1034.3275,316.3614 L1035.2692,316.3614 Q1035.5191,316.3614 1035.6216,316.4575 Q1035.7305,316.5536 1035.7305,316.7074 Q1035.7305,316.8675 1035.6216,316.9636 Q1035.5191,317.0597 1035.2692,317.0597 L1035.1027,317.0597 L1036.1084,319.4685 Z " fill="#000000"/><text fill="#000000" font-family="sans-serif" font-size="4.92" font-style="italic" lengthAdjust="spacing" textLength="33.21" x="1051.035" y="316.3494">&#171;value object&#187;</text><text fill="#000000" font-family="sans-serif" font-size="5.74" lengthAdjust="spacing" textLength="52.07" x="1041.605" y="323.7783">RequirementAnswer</text><line style="stroke:#181818;stroke-width:0.205;" x1="1030.125" x2="1094.495" y1="327.2689" y2="327.2689"/></g><!--class RequirementResult--><g id="elem_RequirementResult"><rect codeLine="58" fill="#F5F5DC" height="21.5586" id="RequirementResult" rx="1.025" ry="1.025" style="stroke:#181818;stroke-width:0.205;" width="62.73" x="740.665" y="359.8303"/><ellipse cx="746.815" cy="368.9696" fill="#FF8B40" rx="4.51" ry="4.51" style="stroke:#181818;stroke-width:0.41;"/><path d="M747.0584,370.3085 L748.0706,367.8997 L747.9105,367.8997 Q747.6606,367.8997 747.5517,367.8036 Q747.4428,367.7075 747.4428,367.5474 Q747.4428,367.3936 747.5517,367.2975 Q747.6606,367.2014 747.9105,367.2014 L748.8458,367.2014 Q749.0956,367.2014 749.2045,367.2975 Q749.3134,367.3936 749.3134,367.5474 Q749.3134,367.7396 749.1469,367.8485 Q749.07,367.8997 748.8266,367.8997 L747.398,371.3271 L746.7253,371.3271 L745.2967,367.8997 Q745.0533,367.8997 744.9764,367.8485 Q744.8098,367.7396 744.8098,367.5474 Q744.8098,367.3936 744.9187,367.2975 Q745.0277,367.2014 745.2775,367.2014 L746.2192,367.2014 Q746.4691,367.2014 746.5716,367.2975 Q746.6805,367.3936 746.6805,367.5474 Q746.6805,367.7075 746.5716,367.8036 Q746.4691,367.8997 746.2192,367.8997 L746.0527,367.8997 L747.0584,370.3085 Z " fill="#000000"/><text fill="#000000" font-family="sans-serif" font-size="4.92" font-style="italic" lengthAdjust="spacing" textLength="33.21" x="760.755" y="367.1894">&#171;value object&#187;</text><text fill="#000000" font-family="sans-serif" font-size="5.74" lengthAdjust="spacing" textLength="49.61" x="752.555" y="374.6183">RequirementResult</text><line style="stroke:#181818;stroke-width:0.205;" x1="741.075" x2="802.985" y1="378.1089" y2="378.1089"/></g><!--class Schedule--><g id="elem_Schedule"><rect codeLine="60" fill="#F5F5DC" height="21.5586" id="Schedule" rx="1.025" ry="1.025" style="stroke:#181818;stroke-width:0.205;" width="44.69" x="1038.735" y="413.9503"/><ellipse cx="1044.885" cy="423.0896" fill="#FF8B40" rx="4.51" ry="4.51" style="stroke:#181818;stroke-width:0.41;"/><path d="M1045.1284,424.4285 L1046.1406,422.0197 L1045.9805,422.0197 Q1045.7306,422.0197 1045.6217,421.9236 Q1045.5128,421.8275 1045.5128,421.6674 Q1045.5128,421.5136 1045.6217,421.4175 Q1045.7306,421.3214 1045.9805,421.3214 L1046.9158,421.3214 Q1047.1656,421.3214 1047.2745,421.4175 Q1047.3834,421.5136 1047.3834,421.6674 Q1047.3834,421.8596 1047.2169,421.9685 Q1047.14,422.0197 1046.8966,422.0197 L1045.468,425.4471 L1044.7953,425.4471 L1043.3667,422.0197 Q1043.1233,422.0197 1043.0464,421.9685 Q1042.8798,421.8596 1042.8798,421.6674 Q1042.8798,421.5136 1042.9888,421.4175 Q1043.0977,421.3214 1043.3475,421.3214 L1044.2892,421.3214 Q1044.5391,421.3214 1044.6416,421.4175 Q1044.7505,421.5136 1044.7505,421.6674 Q1044.7505,421.8275 1044.6416,421.9236 Q1044.5391,422.0197 1044.2892,422.0197 L1044.1227,422.0197 L1045.1284,424.4285 Z " fill="#000000"/><text fill="#000000" font-family="sans-serif" font-size="4.92" font-style="italic" lengthAdjust="spacing" textLength="33.21" x="1049.805" y="421.3094">&#171;value object&#187;</text><text fill="#000000" font-family="sans-serif" font-size="5.74" lengthAdjust="spacing" textLength="24.19" x="1054.315" y="428.7383">Schedule</text><line style="stroke:#181818;stroke-width:0.205;" x1="1039.145" x2="1083.015" y1="432.2289" y2="432.2289"/></g><!--class File--><g id="elem_File"><rect codeLine="61" fill="#F5F5DC" height="21.5586" id="File" rx="1.025" ry="1.025" style="stroke:#181818;stroke-width:0.205;" width="44.69" x="817.745" y="359.8303"/><ellipse cx="823.895" cy="368.9696" fill="#FF8B40" rx="4.51" ry="4.51" style="stroke:#181818;stroke-width:0.41;"/><path d="M824.1384,370.3085 L825.1506,367.8997 L824.9905,367.8997 Q824.7406,367.8997 824.6317,367.8036 Q824.5228,367.7075 824.5228,367.5474 Q824.5228,367.3936 824.6317,367.2975 Q824.7406,367.2014 824.9905,367.2014 L825.9258,367.2014 Q826.1756,367.2014 826.2845,367.2975 Q826.3934,367.3936 826.3934,367.5474 Q826.3934,367.7396 826.2269,367.8485 Q826.15,367.8997 825.9066,367.8997 L824.478,371.3271 L823.8053,371.3271 L822.3767,367.8997 Q822.1333,367.8997 822.0564,367.8485 Q821.8898,367.7396 821.8898,367.5474 Q821.8898,367.3936 821.9988,367.2975 Q822.1077,367.2014 822.3575,367.2014 L823.2992,367.2014 Q823.5491,367.2014 823.6516,367.2975 Q823.7605,367.3936 823.7605,367.5474 Q823.7605,367.7075 823.6516,367.8036 Q823.5491,367.8997 823.2992,367.8997 L823.1327,367.8997 L824.1384,370.3085 Z " fill="#000000"/><text fill="#000000" font-family="sans-serif" font-size="4.92" font-style="italic" lengthAdjust="spacing" textLength="33.21" x="828.815" y="367.1894">&#171;value object&#187;</text><text fill="#000000" font-family="sans-serif" font-size="5.74" lengthAdjust="spacing" textLength="9.43" x="840.705" y="374.6183">File</text><line style="stroke:#181818;stroke-width:0.205;" x1="818.155" x2="862.025" y1="378.1089" y2="378.1089"/></g><!--class RecruitmentProcess--><g id="elem_RecruitmentProcess"><rect codeLine="65" fill="#F5F5DC" height="28.1026" id="RecruitmentProcess" rx="1.025" ry="1.025" style="stroke:#181818;stroke-width:0.205;" width="65.19" x="182.655" y="245.0303"/><ellipse cx="188.805" cy="257.4416" fill="#ADD1B2" rx="4.51" ry="4.51" style="stroke:#181818;stroke-width:0.41;"/><path d="M188.3373,257.7683 L188.3373,258.7933 L190.1119,258.7933 L190.1119,258.4153 Q190.1119,258.1655 190.208,258.0566 Q190.3105,257.9477 190.4642,257.9477 Q190.618,257.9477 190.7141,258.0566 Q190.8102,258.1655 190.8102,258.4153 L190.8102,259.4916 L187.5302,259.4916 Q187.2739,259.4916 187.165,259.3955 Q187.0625,259.2994 187.0625,259.1392 Q187.0625,258.9855 187.1714,258.8894 Q187.2803,258.7933 187.5302,258.7933 L187.6391,258.7933 L187.6391,256.0642 L187.5302,256.0642 Q187.2739,256.0642 187.165,255.9681 Q187.0625,255.872 187.0625,255.7119 Q187.0625,255.5581 187.165,255.462 Q187.2739,255.3659 187.5302,255.3659 L190.6564,255.3659 L190.6564,256.4294 Q190.6564,256.6792 190.5603,256.7881 Q190.4706,256.8906 190.3105,256.8906 Q190.1567,256.8906 190.0606,256.7881 Q189.9645,256.6792 189.9645,256.4294 L189.9645,256.0642 L188.3373,256.0642 L188.3373,257.07 L188.9459,257.07 Q188.9459,256.8009 188.9972,256.7241 Q189.1061,256.5575 189.2983,256.5575 Q189.452,256.5575 189.5481,256.6664 Q189.6442,256.7689 189.6442,257.0188 L189.6442,257.8259 Q189.6442,258.0502 189.593,258.127 Q189.4841,258.2872 189.2983,258.2872 Q189.1061,258.2872 188.9972,258.1206 Q188.9459,258.0438 188.9459,257.7683 L188.3373,257.7683 Z " fill="#000000"/><text fill="#000000" font-family="sans-serif" font-size="4.92" font-style="italic" lengthAdjust="spacing" textLength="17.63" x="211.765" y="252.3894">&#171;entity&#187;</text><text fill="#000000" font-family="sans-serif" font-size="4.92" font-style="italic" lengthAdjust="spacing" textLength="14.35" x="213.405" y="258.9334">&#171;root&#187;</text><text fill="#000000" font-family="sans-serif" font-size="5.74" lengthAdjust="spacing" textLength="52.07" x="194.545" y="266.3623">RecruitmentProcess</text><line style="stroke:#181818;stroke-width:0.205;" x1="183.065" x2="247.435" y1="269.8529" y2="269.8529"/></g><!--class RecruitmentPeriod--><g id="elem_RecruitmentPeriod"><rect codeLine="66" fill="#F5F5DC" height="21.5586" id="RecruitmentPeriod" rx="1.025" ry="1.025" style="stroke:#181818;stroke-width:0.205;" width="61.09" x="107.215" y="248.3103"/><ellipse cx="113.365" cy="257.4496" fill="#FF8B40" rx="4.51" ry="4.51" style="stroke:#181818;stroke-width:0.41;"/><path d="M113.6084,258.7885 L114.6206,256.3797 L114.4605,256.3797 Q114.2106,256.3797 114.1017,256.2836 Q113.9928,256.1875 113.9928,256.0274 Q113.9928,255.8736 114.1017,255.7775 Q114.2106,255.6814 114.4605,255.6814 L115.3958,255.6814 Q115.6456,255.6814 115.7545,255.7775 Q115.8634,255.8736 115.8634,256.0274 Q115.8634,256.2196 115.6969,256.3285 Q115.62,256.3797 115.3766,256.3797 L113.948,259.8071 L113.2753,259.8071 L111.8467,256.3797 Q111.6033,256.3797 111.5264,256.3285 Q111.3598,256.2196 111.3598,256.0274 Q111.3598,255.8736 111.4688,255.7775 Q111.5777,255.6814 111.8275,255.6814 L112.7692,255.6814 Q113.0191,255.6814 113.1216,255.7775 Q113.2305,255.8736 113.2305,256.0274 Q113.2305,256.1875 113.1216,256.2836 Q113.0191,256.3797 112.7692,256.3797 L112.6027,256.3797 L113.6084,258.7885 Z " fill="#000000"/><text fill="#000000" font-family="sans-serif" font-size="4.92" font-style="italic" lengthAdjust="spacing" textLength="33.21" x="126.485" y="255.6694">&#171;value object&#187;</text><text fill="#000000" font-family="sans-serif" font-size="5.74" lengthAdjust="spacing" textLength="47.97" x="119.105" y="263.0983">RecruitmentPeriod</text><line style="stroke:#181818;stroke-width:0.205;" x1="107.625" x2="167.895" y1="266.5889" y2="266.5889"/></g><!--class Phase--><g id="elem_Phase"><rect codeLine="67" fill="#F5F5DC" height="21.5586" id="Phase" rx="1.025" ry="1.025" style="stroke:#181818;stroke-width:0.205;" width="29.52" x="63.14" y="248.3103"/><ellipse cx="69.29" cy="257.4496" fill="#ADD1B2" rx="4.51" ry="4.51" style="stroke:#181818;stroke-width:0.41;"/><path d="M68.8223,257.7763 L68.8223,258.8013 L70.5969,258.8013 L70.5969,258.4233 Q70.5969,258.1735 70.693,258.0646 Q70.7955,257.9557 70.9492,257.9557 Q71.103,257.9557 71.1991,258.0646 Q71.2952,258.1735 71.2952,258.4233 L71.2952,259.4996 L68.0152,259.4996 Q67.7589,259.4996 67.65,259.4035 Q67.5475,259.3074 67.5475,259.1472 Q67.5475,258.9935 67.6564,258.8974 Q67.7653,258.8013 68.0152,258.8013 L68.1241,258.8013 L68.1241,256.0722 L68.0152,256.0722 Q67.7589,256.0722 67.65,255.9761 Q67.5475,255.88 67.5475,255.7199 Q67.5475,255.5661 67.65,255.47 Q67.7589,255.3739 68.0152,255.3739 L71.1414,255.3739 L71.1414,256.4374 Q71.1414,256.6872 71.0453,256.7961 Q70.9556,256.8986 70.7955,256.8986 Q70.6417,256.8986 70.5456,256.7961 Q70.4495,256.6872 70.4495,256.4374 L70.4495,256.0722 L68.8223,256.0722 L68.8223,257.078 L69.4309,257.078 Q69.4309,256.8089 69.4822,256.7321 Q69.5911,256.5655 69.7833,256.5655 Q69.937,256.5655 70.0331,256.6744 Q70.1292,256.7769 70.1292,257.0268 L70.1292,257.8339 Q70.1292,258.0582 70.078,258.135 Q69.9691,258.2952 69.7833,258.2952 Q69.5911,258.2952 69.4822,258.1286 Q69.4309,258.0518 69.4309,257.7763 L68.8223,257.7763 Z " fill="#000000"/><text fill="#000000" font-family="sans-serif" font-size="4.92" font-style="italic" lengthAdjust="spacing" textLength="17.63" x="74.415" y="255.6694">&#171;entity&#187;</text><text fill="#000000" font-family="sans-serif" font-size="5.74" lengthAdjust="spacing" textLength="16.4" x="75.03" y="263.0983">Phase</text><line style="stroke:#181818;stroke-width:0.205;" x1="63.55" x2="92.25" y1="266.5889" y2="266.5889"/></g><!--class PhasePeriod--><g id="elem_PhasePeriod"><rect codeLine="68" fill="#F5F5DC" height="21.5586" id="PhasePeriod" rx="1.025" ry="1.025" style="stroke:#181818;stroke-width:0.205;" width="46.33" x="9.225" y="308.9903"/><ellipse cx="15.375" cy="318.1296" fill="#FF8B40" rx="4.51" ry="4.51" style="stroke:#181818;stroke-width:0.41;"/><path d="M15.6184,319.4685 L16.6306,317.0597 L16.4705,317.0597 Q16.2206,317.0597 16.1117,316.9636 Q16.0028,316.8675 16.0028,316.7074 Q16.0028,316.5536 16.1117,316.4575 Q16.2206,316.3614 16.4705,316.3614 L17.4058,316.3614 Q17.6556,316.3614 17.7645,316.4575 Q17.8734,316.5536 17.8734,316.7074 Q17.8734,316.8996 17.7069,317.0085 Q17.63,317.0597 17.3866,317.0597 L15.958,320.4871 L15.2853,320.4871 L13.8567,317.0597 Q13.6133,317.0597 13.5364,317.0085 Q13.3698,316.8996 13.3698,316.7074 Q13.3698,316.5536 13.4788,316.4575 Q13.5877,316.3614 13.8375,316.3614 L14.7792,316.3614 Q15.0291,316.3614 15.1316,316.4575 Q15.2405,316.5536 15.2405,316.7074 Q15.2405,316.8675 15.1316,316.9636 Q15.0291,317.0597 14.7792,317.0597 L14.6127,317.0597 L15.6184,319.4685 Z " fill="#000000"/><text fill="#000000" font-family="sans-serif" font-size="4.92" font-style="italic" lengthAdjust="spacing" textLength="33.21" x="21.115" y="316.3494">&#171;value object&#187;</text><text fill="#000000" font-family="sans-serif" font-size="5.74" lengthAdjust="spacing" textLength="33.21" x="21.115" y="323.7783">PhasePeriod</text><line style="stroke:#181818;stroke-width:0.205;" x1="9.635" x2="55.145" y1="327.2689" y2="327.2689"/></g><!--class PhaseDescription--><g id="elem_PhaseDescription"><rect codeLine="69" fill="#F5F5DC" height="21.5586" id="PhaseDescription" rx="1.025" ry="1.025" style="stroke:#181818;stroke-width:0.205;" width="58.63" x="69.905" y="308.9903"/><ellipse cx="76.055" cy="318.1296" fill="#FF8B40" rx="4.51" ry="4.51" style="stroke:#181818;stroke-width:0.41;"/><path d="M76.2984,319.4685 L77.3106,317.0597 L77.1505,317.0597 Q76.9006,317.0597 76.7917,316.9636 Q76.6828,316.8675 76.6828,316.7074 Q76.6828,316.5536 76.7917,316.4575 Q76.9006,316.3614 77.1505,316.3614 L78.0858,316.3614 Q78.3356,316.3614 78.4445,316.4575 Q78.5534,316.5536 78.5534,316.7074 Q78.5534,316.8996 78.3869,317.0085 Q78.31,317.0597 78.0666,317.0597 L76.638,320.4871 L75.9653,320.4871 L74.5367,317.0597 Q74.2933,317.0597 74.2164,317.0085 Q74.0498,316.8996 74.0498,316.7074 Q74.0498,316.5536 74.1588,316.4575 Q74.2677,316.3614 74.5175,316.3614 L75.4592,316.3614 Q75.7091,316.3614 75.8116,316.4575 Q75.9205,316.5536 75.9205,316.7074 Q75.9205,316.8675 75.8116,316.9636 Q75.7091,317.0597 75.4592,317.0597 L75.2927,317.0597 L76.2984,319.4685 Z " fill="#000000"/><text fill="#000000" font-family="sans-serif" font-size="4.92" font-style="italic" lengthAdjust="spacing" textLength="33.21" x="87.945" y="316.3494">&#171;value object&#187;</text><text fill="#000000" font-family="sans-serif" font-size="5.74" lengthAdjust="spacing" textLength="45.51" x="81.795" y="323.7783">PhaseDescription</text><line style="stroke:#181818;stroke-width:0.205;" x1="70.315" x2="128.125" y1="327.2689" y2="327.2689"/></g><!--class PhaseType--><g id="elem_PhaseType"><rect codeLine="70" fill="#F5F5DC" height="21.5586" id="PhaseType" rx="1.025" ry="1.025" style="stroke:#181818;stroke-width:0.205;" width="44.69" x="142.885" y="308.9903"/><ellipse cx="149.035" cy="318.1296" fill="#FF8B40" rx="4.51" ry="4.51" style="stroke:#181818;stroke-width:0.41;"/><path d="M149.2784,319.4685 L150.2906,317.0597 L150.1305,317.0597 Q149.8806,317.0597 149.7717,316.9636 Q149.6628,316.8675 149.6628,316.7074 Q149.6628,316.5536 149.7717,316.4575 Q149.8806,316.3614 150.1305,316.3614 L151.0658,316.3614 Q151.3156,316.3614 151.4245,316.4575 Q151.5334,316.5536 151.5334,316.7074 Q151.5334,316.8996 151.3669,317.0085 Q151.29,317.0597 151.0466,317.0597 L149.618,320.4871 L148.9453,320.4871 L147.5167,317.0597 Q147.2733,317.0597 147.1964,317.0085 Q147.0298,316.8996 147.0298,316.7074 Q147.0298,316.5536 147.1388,316.4575 Q147.2477,316.3614 147.4975,316.3614 L148.4392,316.3614 Q148.6891,316.3614 148.7916,316.4575 Q148.9005,316.5536 148.9005,316.7074 Q148.9005,316.8675 148.7916,316.9636 Q148.6891,317.0597 148.4392,317.0597 L148.2727,317.0597 L149.2784,319.4685 Z " fill="#000000"/><text fill="#000000" font-family="sans-serif" font-size="4.92" font-style="italic" lengthAdjust="spacing" textLength="33.21" x="153.955" y="316.3494">&#171;value object&#187;</text><text fill="#000000" font-family="sans-serif" font-size="5.74" lengthAdjust="spacing" textLength="29.52" x="155.8" y="323.7783">PhaseType</text><line style="stroke:#181818;stroke-width:0.205;" x1="143.295" x2="187.165" y1="327.2689" y2="327.2689"/></g><!--class PhaseStatus--><g id="elem_PhaseStatus"><rect codeLine="71" fill="#F5F5DC" height="21.5586" id="PhaseStatus" rx="1.025" ry="1.025" style="stroke:#181818;stroke-width:0.205;" width="45.92" x="202.13" y="308.9903"/><ellipse cx="208.28" cy="318.1296" fill="#FF8B40" rx="4.51" ry="4.51" style="stroke:#181818;stroke-width:0.41;"/><path d="M208.5234,319.4685 L209.5356,317.0597 L209.3755,317.0597 Q209.1256,317.0597 209.0167,316.9636 Q208.9078,316.8675 208.9078,316.7074 Q208.9078,316.5536 209.0167,316.4575 Q209.1256,316.3614 209.3755,316.3614 L210.3108,316.3614 Q210.5606,316.3614 210.6695,316.4575 Q210.7784,316.5536 210.7784,316.7074 Q210.7784,316.8996 210.6119,317.0085 Q210.535,317.0597 210.2916,317.0597 L208.863,320.4871 L208.1903,320.4871 L206.7617,317.0597 Q206.5183,317.0597 206.4414,317.0085 Q206.2748,316.8996 206.2748,316.7074 Q206.2748,316.5536 206.3838,316.4575 Q206.4927,316.3614 206.7425,316.3614 L207.6842,316.3614 Q207.9341,316.3614 208.0366,316.4575 Q208.1455,316.5536 208.1455,316.7074 Q208.1455,316.8675 208.0366,316.9636 Q207.9341,317.0597 207.6842,317.0597 L207.5177,317.0597 L208.5234,319.4685 Z " fill="#000000"/><text fill="#000000" font-family="sans-serif" font-size="4.92" font-style="italic" lengthAdjust="spacing" textLength="33.21" x="213.815" y="316.3494">&#171;value object&#187;</text><text fill="#000000" font-family="sans-serif" font-size="5.74" lengthAdjust="spacing" textLength="32.8" x="214.02" y="323.7783">PhaseStatus</text><line style="stroke:#181818;stroke-width:0.205;" x1="202.54" x2="247.64" y1="327.2689" y2="327.2689"/></g><!--class Address--><g id="elem_Address"><rect codeLine="13" fill="#F5F5DC" height="21.5586" id="Address" rx="1.025" ry="1.025" style="stroke:#181818;stroke-width:0.205;" width="44.69" x="262.605" y="308.9903"/><ellipse cx="268.755" cy="318.1296" fill="#FF8B40" rx="4.51" ry="4.51" style="stroke:#181818;stroke-width:0.41;"/><path d="M268.9984,319.4685 L270.0106,317.0597 L269.8505,317.0597 Q269.6006,317.0597 269.4917,316.9636 Q269.3828,316.8675 269.3828,316.7074 Q269.3828,316.5536 269.4917,316.4575 Q269.6006,316.3614 269.8505,316.3614 L270.7858,316.3614 Q271.0356,316.3614 271.1445,316.4575 Q271.2534,316.5536 271.2534,316.7074 Q271.2534,316.8996 271.0869,317.0085 Q271.01,317.0597 270.7666,317.0597 L269.338,320.4871 L268.6653,320.4871 L267.2367,317.0597 Q266.9933,317.0597 266.9164,317.0085 Q266.7498,316.8996 266.7498,316.7074 Q266.7498,316.5536 266.8588,316.4575 Q266.9677,316.3614 267.2175,316.3614 L268.1592,316.3614 Q268.4091,316.3614 268.5116,316.4575 Q268.6205,316.5536 268.6205,316.7074 Q268.6205,316.8675 268.5116,316.9636 Q268.4091,317.0597 268.1592,317.0597 L267.9927,317.0597 L268.9984,319.4685 Z " fill="#000000"/><text fill="#000000" font-family="sans-serif" font-size="4.92" font-style="italic" lengthAdjust="spacing" textLength="33.21" x="273.675" y="316.3494">&#171;value object&#187;</text><text fill="#000000" font-family="sans-serif" font-size="5.74" lengthAdjust="spacing" textLength="21.32" x="279.62" y="323.7783">Address</text><line style="stroke:#181818;stroke-width:0.205;" x1="263.015" x2="306.885" y1="327.2689" y2="327.2689"/></g><!--link CustomerManager to JobOpening--><g id="link_CustomerManager_JobOpening"><path codeLine="77" d="M704.9622,62.2646 C669.489,89.1073 593.6327,146.4989 558.1595,173.3416 " fill="none" id="CustomerManager-to-JobOpening" style="stroke:#222222;stroke-width:0.41;"/><polygon fill="#222222" points="556.1978,174.826,560.1299,173.9071,557.8325,173.589,558.1507,171.2916,556.1978,174.826" style="stroke:#222222;stroke-width:0.41;"/><text fill="#000000" font-family="sans-serif" font-size="5.33" lengthAdjust="spacing" textLength="20.5" x="673.22" y="121.2219">registers</text><text fill="#000000" font-family="sans-serif" font-size="5.33" lengthAdjust="spacing" textLength="8.2" x="550.7004" y="170.2581">1..*</text></g><!--link CustomerManager to Application--><g id="link_CustomerManager_Application"><path codeLine="78" d="M732.3338,62.2359 C757.4422,100.3454 826.1906,204.6902 851.34,242.8612 " fill="none" id="CustomerManager-to-Application" style="stroke:#222222;stroke-width:0.41;"/><polygon fill="#222222" points="852.6934,244.9155,852.0327,240.9318,851.5655,243.2036,849.2938,242.7364,852.6934,244.9155" style="stroke:#222222;stroke-width:0.41;"/><text fill="#000000" font-family="sans-serif" font-size="5.33" lengthAdjust="spacing" textLength="20.91" x="791.3" y="151.5619">overseas</text><text fill="#000000" font-family="sans-serif" font-size="5.33" lengthAdjust="spacing" textLength="8.2" x="842.0547" y="240.4536">0..*</text></g><!--link CustomerManager to RecruitmentProcess--><g id="link_CustomerManager_RecruitmentProcess"><path codeLine="79" d="M692.5679,52.1089 C622.3226,61.4405 445.7192,90.1815 314.06,156.4703 C276.5409,175.359 267.6439,183.6615 240.26,215.5103 C232.6258,224.3909 227.1881,233.7329 222.715,242.6627 " fill="none" id="CustomerManager-to-RecruitmentProcess" style="stroke:#222222;stroke-width:0.41;"/><polygon fill="#222222" points="221.6132,244.8622,224.7322,242.2974,222.5313,243.0293,221.7995,240.8284,221.6132,244.8622" style="stroke:#222222;stroke-width:0.41;"/><text fill="#000000" font-family="sans-serif" font-size="5.33" lengthAdjust="spacing" textLength="17.63" x="334.56" y="151.5619">sets up</text><text fill="#000000" font-family="sans-serif" font-size="5.33" lengthAdjust="spacing" textLength="8.2" x="213.8305" y="240.3905">1..*</text></g><!--link CustomerManager to Candidate--><g id="link_CustomerManager_Candidate"><path codeLine="80" d="M753.9203,53.6177 C834.6288,67.2584 1048.839,103.4533 1115.7592,114.7611 " fill="none" id="CustomerManager-to-Candidate" style="stroke:#222222;stroke-width:0.41;"/><polygon fill="#222222" points="1118.1848,115.171,1114.8196,112.9391,1116.1635,114.8294,1114.2731,116.1732,1118.1848,115.171" style="stroke:#222222;stroke-width:0.41;"/><text fill="#000000" font-family="sans-serif" font-size="5.33" lengthAdjust="spacing" textLength="21.73" x="918.4" y="81.4519">manages</text><text fill="#000000" font-family="sans-serif" font-size="5.33" lengthAdjust="spacing" textLength="8.2" x="1106.7497" y="112.9964">1..*</text></g><!--link Candidate to Application--><g id="link_Candidate_Application"><path codeLine="83" d="M1118.1766,129.4472 C1067.4678,155.0271 936.3813,221.1508 884.8115,247.1694 " fill="none" id="Candidate-to-Application" style="stroke:#222222;stroke-width:0.41;"/><polygon fill="#222222" points="882.6152,248.2775,886.6484,248.0795,884.4454,247.354,885.1709,245.1511,882.6152,248.2775" style="stroke:#222222;stroke-width:0.41;"/><text fill="#000000" font-family="sans-serif" font-size="5.33" lengthAdjust="spacing" textLength="18.86" x="1062.72" y="191.3319">submits</text><text fill="#000000" font-family="sans-serif" font-size="5.33" lengthAdjust="spacing" textLength="8.2" x="885.8049" y="245.2359">1..*</text></g><!--link Candidate to JobOpening--><g id="link_Candidate_JobOpening"><path codeLine="84" d="M1118.1397,119.8286 C1073.0766,121.1857 960.425,126.3722 868.38,145.4003 C857.3182,147.6881 855.2272,150.8 844.19,153.1903 C739.3038,175.9207 613.2989,184.6668 562.5286,187.4466 " fill="none" id="Candidate-to-JobOpening" style="stroke:#222222;stroke-width:0.41;"/><polygon fill="#222222" points="560.0723,187.5811,563.8464,189.0169,562.1192,187.469,563.6671,185.7418,560.0723,187.5811" style="stroke:#222222;stroke-width:0.41;"/><text fill="#000000" font-family="sans-serif" font-size="5.33" lengthAdjust="spacing" textLength="24.19" x="868.79" y="151.5619">applies for</text><text fill="#000000" font-family="sans-serif" font-size="5.33" lengthAdjust="spacing" textLength="8.2" x="563.2718" y="185.7757">1..*</text></g><!--link Candidate to Email--><g id="link_Candidate_Email"><path codeLine="85" d="M1144.6626,133.1823 C1152.5018,149.8201 1166.0974,178.598 1177.93,203.2103 C1185.4822,218.9215 1193.2679,234.8632 1198.7373,246.0234 " fill="none" id="Candidate-to-Email" style="stroke:#222222;stroke-width:0.41;"/><polygon fill="#222222" points="1199.8199,248.2324,1199.6687,244.1972,1198.9177,246.3915,1196.7234,245.6406,1199.8199,248.2324" style="stroke:#222222;stroke-width:0.41;"/><text fill="#000000" font-family="sans-serif" font-size="5.33" lengthAdjust="spacing" textLength="28.29" x="1178.34" y="191.3319">identified by</text><text fill="#000000" font-family="sans-serif" font-size="5.33" lengthAdjust="spacing" textLength="2.87" x="1195.4225" y="243.7111">1</text></g><!--link Candidate to CandidateName--><g id="link_Candidate_CandidateName"><path codeLine="86" d="M1158.127,129.6194 C1171.2224,136.6304 1188.5244,146.4376 1202.94,156.4703 C1212.4561,163.0918 1220.645,169.8929 1228.0865,176.4652 " fill="none" id="Candidate-to-CandidateName" style="stroke:#222222;stroke-width:0.41;"/><polygon fill="#222222" points="1229.9303,178.0937,1228.2502,174.4217,1228.3938,176.7366,1226.0789,176.8802,1229.9303,178.0937" style="stroke:#222222;stroke-width:0.41;"/><text fill="#000000" font-family="sans-serif" font-size="5.33" lengthAdjust="spacing" textLength="8.61" x="1198.02" y="151.5619">has</text><text fill="#000000" font-family="sans-serif" font-size="5.33" lengthAdjust="spacing" textLength="2.87" x="1224.0576" y="173.5658">1</text></g><!--link Candidate to PhoneNumber--><g id="link_Candidate_PhoneNumber"><path codeLine="87" d="M1138.6438,133.1126 C1139.6278,160.9311 1141.7428,220.9033 1142.6202,245.7821 " fill="none" id="Candidate-to-PhoneNumber" style="stroke:#222222;stroke-width:0.41;"/><polygon fill="#222222" points="1142.7069,248.2406,1144.2158,244.495,1142.6346,246.1918,1140.9379,244.6106,1142.7069,248.2406" style="stroke:#222222;stroke-width:0.41;"/><text fill="#000000" font-family="sans-serif" font-size="5.33" lengthAdjust="spacing" textLength="8.61" x="1141.44" y="191.3319">has</text><text fill="#000000" font-family="sans-serif" font-size="5.33" lengthAdjust="spacing" textLength="2.87" x="1139.4188" y="243.7212">1</text></g><!--link JobOpening to JobReference--><g id="link_JobOpening_JobReference"><path codeLine="90" d="M541.1836,203.2595 C547.0876,228.2162 558.9156,278.2161 564.8278,303.2097 " fill="none" id="JobOpening-to-JobReference" style="stroke:#222222;stroke-width:0.41;"/><polygon fill="#222222" points="565.3941,305.6037,566.1406,301.6352,564.9222,303.6087,562.9487,302.3903,565.3941,305.6037" style="stroke:#222222;stroke-width:0.41;"/><text fill="#000000" font-family="sans-serif" font-size="5.33" lengthAdjust="spacing" textLength="19.68" x="560.06" y="261.4419">includes</text><text fill="#000000" font-family="sans-serif" font-size="5.33" lengthAdjust="spacing" textLength="2.87" x="561.6555" y="301.1434">1</text></g><!--link JobOpening to Mode--><g id="link_JobOpening_Mode"><path codeLine="91" d="M515.7267,193.0382 C491.2333,197.7368 451.3772,207.7203 421.89,226.5803 C413.0135,232.2588 406.5692,239.3065 401.1654,246.3503 " fill="none" id="JobOpening-to-Mode" style="stroke:#222222;stroke-width:0.41;"/><polygon fill="#222222" points="399.668,248.3021,403.2152,246.3726,400.9158,246.6756,400.6128,244.3761,399.668,248.3021" style="stroke:#222222;stroke-width:0.41;"/><text fill="#000000" font-family="sans-serif" font-size="5.33" lengthAdjust="spacing" textLength="19.68" x="442.8" y="221.6719">includes</text><text fill="#000000" font-family="sans-serif" font-size="5.33" lengthAdjust="spacing" textLength="2.87" x="398.2271" y="243.6193">1</text></g><!--link JobOpening to NumberVacancy--><g id="link_JobOpening_NumberVacancy"><path codeLine="92" d="M515.7431,198.7495 C506.9117,203.0709 496.9979,208.7576 489.13,215.5103 C478.0928,224.9772 469.8358,236.7432 464.022,246.206 " fill="none" id="JobOpening-to-NumberVacancy" style="stroke:#222222;stroke-width:0.41;"/><polygon fill="#222222" points="462.7342,248.3021,466.0632,246.0165,463.8073,246.5554,463.2685,244.2995,462.7342,248.3021" style="stroke:#222222;stroke-width:0.41;"/><text fill="#000000" font-family="sans-serif" font-size="5.33" lengthAdjust="spacing" textLength="19.68" x="489.54" y="221.6719">includes</text><text fill="#000000" font-family="sans-serif" font-size="5.33" lengthAdjust="spacing" textLength="2.87" x="460.9755" y="243.6193">1</text></g><!--link JobOpening to Address--><g id="link_JobOpening_Address"><path codeLine="93" d="M515.6447,189.7377 C463.5091,190.8529 335.8597,196.6462 307.91,226.5803 C286.3194,249.7043 284.1072,287.3795 284.4106,306.3994 " fill="none" id="JobOpening-to-Address" style="stroke:#222222;stroke-width:0.41;"/><polygon fill="#222222" points="284.4498,308.8591,286.0307,305.1434,284.4171,306.8093,282.7512,305.1957,284.4498,308.8591" style="stroke:#222222;stroke-width:0.41;"/><text fill="#000000" font-family="sans-serif" font-size="5.33" lengthAdjust="spacing" textLength="19.68" x="308.32" y="261.4419">includes</text><text fill="#000000" font-family="sans-serif" font-size="5.33" lengthAdjust="spacing" textLength="2.87" x="281.1323" y="304.3255">1</text></g><!--link JobOpening to JobFunction--><g id="link_JobOpening_JobFunction"><path codeLine="94" d="M556.9071,203.2841 C565.9845,210.0737 576.8987,218.5197 586.3,226.5803 C594.336,233.4724 601.2013,240.0079 607.6998,246.4367 " fill="none" id="JobOpening-to-JobFunction" style="stroke:#222222;stroke-width:0.41;"/><polygon fill="#222222" points="609.4486,248.1668,607.9787,244.4057,607.9912,246.725,605.672,246.7375,609.4486,248.1668" style="stroke:#222222;stroke-width:0.41;"/><text fill="#000000" font-family="sans-serif" font-size="5.33" lengthAdjust="spacing" textLength="19.68" x="581.79" y="221.6719">includes</text><text fill="#000000" font-family="sans-serif" font-size="5.33" lengthAdjust="spacing" textLength="2.87" x="603.8252" y="243.6304">1</text></g><!--link JobOpening to Description--><g id="link_JobOpening_Description"><path codeLine="95" d="M531.6101,203.3333 C528.6868,210.209 525.3781,218.7042 523.16,226.5803 C514.9108,255.8707 510.4834,289.174 508.5277,306.5375 " fill="none" id="JobOpening-to-Description" style="stroke:#222222;stroke-width:0.41;"/><polygon fill="#222222" points="508.2524,308.9821,510.2951,305.4988,508.4818,306.9449,507.0357,305.1317,508.2524,308.9821" style="stroke:#222222;stroke-width:0.41;"/><text fill="#000000" font-family="sans-serif" font-size="5.33" lengthAdjust="spacing" textLength="19.68" x="523.57" y="261.4419">includes</text><text fill="#000000" font-family="sans-serif" font-size="5.33" lengthAdjust="spacing" textLength="2.87" x="505.2965" y="304.2993">1</text></g><!--link JobOpening to ContractType--><g id="link_JobOpening_ContractType"><path codeLine="96" d="M515.7144,190.2666 C469.2286,192.4437 364.1702,200.2296 342.35,226.5803 C322.7438,250.2537 333.4828,287.8209 340.707,306.6686 " fill="none" id="JobOpening-to-ContractType" style="stroke:#222222;stroke-width:0.41;"/><polygon fill="#222222" points="341.5874,308.9657,341.7981,304.9331,340.8537,307.0514,338.7354,306.107,341.5874,308.9657" style="stroke:#222222;stroke-width:0.41;"/><text fill="#000000" font-family="sans-serif" font-size="5.33" lengthAdjust="spacing" textLength="19.68" x="342.76" y="261.4419">includes</text><text fill="#000000" font-family="sans-serif" font-size="5.33" lengthAdjust="spacing" textLength="2.87" x="337.3559" y="304.4567">1</text></g><!--link JobOpening to JobOpeningStatus--><g id="link_JobOpening_JobOpeningStatus"><path codeLine="97" d="M560.1256,194.1862 C583.4136,199.7253 620.5637,210.2828 649.44,226.5803 C659.7843,232.4187 668.1764,239.6006 675.335,246.5624 " fill="none" id="JobOpening-to-JobOpeningStatus" style="stroke:#222222;stroke-width:0.41;"/><polygon fill="#222222" points="677.0986,248.2775,675.5966,244.5291,675.629,246.8482,673.3099,246.8805,677.0986,248.2775" style="stroke:#222222;stroke-width:0.41;"/><text fill="#000000" font-family="sans-serif" font-size="5.33" lengthAdjust="spacing" textLength="29.52" x="641.65" y="221.6719">classified by</text><text fill="#000000" font-family="sans-serif" font-size="5.33" lengthAdjust="spacing" textLength="2.87" x="671.5701" y="243.7667">1</text></g><!--link JobOpening to RecruitmentProcess--><g id="link_JobOpening_RecruitmentProcess"><path codeLine="98" d="M515.7062,189.4343 C457.0844,189.6475 299.5665,192.4191 253.79,215.5103 C240.8135,222.0539 231.5842,232.9552 224.8069,242.9838 " fill="none" id="JobOpening-to-RecruitmentProcess" style="stroke:#222222;stroke-width:0.41;"/><polygon fill="#222222" points="223.4295,245.0221,226.8544,242.883,224.5773,243.3235,224.1368,241.0465,223.4295,245.0221" style="stroke:#222222;stroke-width:0.41;"/><text fill="#000000" font-family="sans-serif" font-size="5.33" lengthAdjust="spacing" textLength="19.68" x="254.2" y="221.6719">includes</text><text fill="#000000" font-family="sans-serif" font-size="5.33" lengthAdjust="spacing" textLength="2.87" x="225.3224" y="240.3613">1</text></g><!--link JobOpening to Application--><g id="link_JobOpening_Application"><path codeLine="99" d="M560.142,193.4646 C587.2676,198.3887 634.5201,207.1381 674.86,215.5103 C735.4539,228.085 804.1544,244.5968 838.6108,253.0346 " fill="none" id="JobOpening-to-Application" style="stroke:#222222;stroke-width:0.41;"/><polygon fill="#222222" points="841.0002,253.6198,837.8062,251.1491,839.009,253.1322,837.026,254.335,841.0002,253.6198" style="stroke:#222222;stroke-width:0.41;"/><polygon fill="#000000" points="710.9854,219.0361,714.3597,220.9901,714.8639,218.6335,710.9854,219.0361" style="stroke:#000000;stroke-width:0.41;"/><text fill="#000000" font-family="sans-serif" font-size="5.33" lengthAdjust="spacing" textLength="31.98" x="716.68" y="221.6719">associated to</text><text fill="#000000" font-family="sans-serif" font-size="5.33" lengthAdjust="spacing" textLength="2.87" x="835.0006" y="251.1516">1</text></g><!--link Phase to PhasePeriod--><g id="link_Phase_PhasePeriod"><path codeLine="104" d="M69.2367,270.1346 C65.4278,274.8332 60.9342,280.4625 56.99,285.6203 C51.0819,293.3488 46.0478,300.2534 41.2303,306.9856 " fill="none" id="Phase-to-PhasePeriod" style="stroke:#222222;stroke-width:0.41;"/><polygon fill="#222222" points="39.7987,308.9862,43.2798,306.9397,40.9917,307.319,40.6124,305.0309,39.7987,308.9862" style="stroke:#222222;stroke-width:0.41;"/><text fill="#000000" font-family="sans-serif" font-size="5.33" lengthAdjust="spacing" textLength="26.24" x="57.4" y="291.7819">goes on for</text><text fill="#000000" font-family="sans-serif" font-size="5.33" lengthAdjust="spacing" textLength="2.87" x="38.3848" y="304.3044">1</text></g><!--link Phase to PhaseType--><g id="link_Phase_PhaseType"><path codeLine="105" d="M87.3259,270.1428 C90.9831,273.6893 95.407,277.3752 100.04,279.8803 C109.1379,284.8003 113.324,281.0283 122.59,285.6203 C134.6153,291.5776 144.6122,299.6622 152.7384,307.1693 " fill="none" id="Phase-to-PhaseType" style="stroke:#222222;stroke-width:0.41;"/><polygon fill="#222222" points="154.5454,308.8386,152.9478,305.13,153.0396,307.4475,150.7221,307.5393,154.5454,308.8386" style="stroke:#222222;stroke-width:0.41;"/><polygon fill="#000000" points="135.976,288.5651,138.6097,291.4405,139.7969,289.3433,135.976,288.5651" style="stroke:#000000;stroke-width:0.41;"/><text fill="#000000" font-family="sans-serif" font-size="5.33" lengthAdjust="spacing" textLength="27.47" x="141.45" y="291.7819">categorizes</text><text fill="#000000" font-family="sans-serif" font-size="5.33" lengthAdjust="spacing" textLength="2.87" x="148.8727" y="304.3003">1</text></g><!--link Phase to PhaseStatus--><g id="link_Phase_PhaseStatus"><path codeLine="106" d="M86.5756,270.0526 C90.3066,273.8164 94.9724,277.6745 100.04,279.8803 C129.7076,292.7912 141.9584,275.2678 172.61,285.6203 C187.657,290.7002 200.7317,299.5259 210.8218,307.443 " fill="none" id="Phase-to-PhaseStatus" style="stroke:#222222;stroke-width:0.41;"/><polygon fill="#222222" points="212.7572,308.9616,210.8665,305.3935,211.1444,307.6961,208.8418,307.974,212.7572,308.9616" style="stroke:#222222;stroke-width:0.41;"/><polygon fill="#000000" points="189.917,288.9842,193.1209,291.2067,193.8154,288.899,189.917,288.9842" style="stroke:#000000;stroke-width:0.41;"/><text fill="#000000" font-family="sans-serif" font-size="5.33" lengthAdjust="spacing" textLength="27.47" x="195.57" y="291.7819">categorizes</text><text fill="#000000" font-family="sans-serif" font-size="5.33" lengthAdjust="spacing" textLength="2.87" x="206.7034" y="304.4517">1</text></g><!--link Phase to PhaseDescription--><g id="link_Phase_PhaseDescription"><path codeLine="107" d="M81.6638,270.151 C85.5588,281.0898 90.7851,295.7668 94.6678,306.6687 " fill="none" id="Phase-to-PhaseDescription" style="stroke:#222222;stroke-width:0.41;"/><polygon fill="#222222" points="95.4931,308.9862,95.8,304.9598,94.8053,307.055,92.7101,306.0603,95.4931,308.9862" style="stroke:#222222;stroke-width:0.41;"/><polygon fill="#000000" points="91.5623,287.6437,91.6712,291.5415,93.9415,290.7331,91.5623,287.6437" style="stroke:#000000;stroke-width:0.41;"/><text fill="#000000" font-family="sans-serif" font-size="5.33" lengthAdjust="spacing" textLength="22.96" x="95.94" y="291.7819">describes</text><text fill="#000000" font-family="sans-serif" font-size="5.33" lengthAdjust="spacing" textLength="2.87" x="91.3649" y="304.3044">1</text></g><!--link Application to Interview--><g id="link_Application_Interview"><path codeLine="109" d="M882.5414,262.1109 C908.0065,266.379 950.585,277.5146 972.93,305.7103 C985.7507,321.8889 990.804,343.5833 992.9688,357.306 " fill="none" id="Application-to-Interview" style="stroke:#222222;stroke-width:0.41;"/><polygon fill="#222222" points="993.3521,359.736,994.3971,355.8355,993.0327,357.711,991.1571,356.3466,993.3521,359.736" style="stroke:#222222;stroke-width:0.41;"/><text fill="#000000" font-family="sans-serif" font-size="5.33" lengthAdjust="spacing" textLength="19.68" x="990.15" y="322.1219">includes</text><text fill="#000000" font-family="sans-serif" font-size="5.33" lengthAdjust="spacing" textLength="9.02" x="982.9867" y="355.2109">0..1</text></g><!--link Application to RequirementAnswer--><g id="link_Application_RequirementAnswer"><path codeLine="110" d="M882.5578,261.5943 C909.7572,264.6693 958.6743,271.7008 998.35,285.6203 C1015.2994,291.5653 1031.1608,300.1593 1043.7232,307.7033 " fill="none" id="Application-to-RequirementAnswer" style="stroke:#222222;stroke-width:0.41;"/><polygon fill="#222222" points="1045.8321,308.9698,1043.513,305.6641,1044.0746,307.9144,1041.8244,308.476,1045.8321,308.9698" style="stroke:#222222;stroke-width:0.41;"/><text fill="#000000" font-family="sans-serif" font-size="5.33" lengthAdjust="spacing" textLength="19.68" x="1016.8" y="291.7819">includes</text><text fill="#000000" font-family="sans-serif" font-size="5.33" lengthAdjust="spacing" textLength="2.87" x="1038.5958" y="304.284">1</text></g><!--link Application to RequirementResult--><g id="link_Application_RequirementResult"><path codeLine="111" d="M841.0986,266.8874 C823.7884,274.0706 799.8403,286.7437 786.38,305.7103 C774.7811,322.0529 772.3994,343.6609 772.0099,357.3303 " fill="none" id="Application-to-RequirementResult" style="stroke:#222222;stroke-width:0.41;"/><polygon fill="#222222" points="771.9398,359.7893,773.6842,356.1475,771.9982,357.7401,770.4056,356.054,771.9398,359.7893" style="stroke:#222222;stroke-width:0.41;"/><text fill="#000000" font-family="sans-serif" font-size="5.33" lengthAdjust="spacing" textLength="19.68" x="786.79" y="322.1219">includes</text><text fill="#000000" font-family="sans-serif" font-size="5.33" lengthAdjust="spacing" textLength="2.87" x="768.7171" y="355.2766">1</text></g><!--link Application to File--><g id="link_Application_File"><path codeLine="112" d="M841.7054,273.3244 C831.6686,281.4383 820.533,292.6682 815.08,305.7103 C808.5446,321.3436 808.8152,328.0963 815.08,343.8403 C817.4867,349.8878 820.2321,353.6434 824.7749,358.014 " fill="none" id="Application-to-File" style="stroke:#222222;stroke-width:0.41;"/><polygon fill="#222222" points="826.5477,359.7196,825.0256,355.9794,825.0704,358.2983,822.7515,358.3431,826.5477,359.7196" style="stroke:#222222;stroke-width:0.41;"/><polygon fill="#000000" points="817.5319,317.9047,815.6233,321.305,817.9865,321.7774,817.5319,317.9047" style="stroke:#000000;stroke-width:0.41;"/><text fill="#000000" font-family="sans-serif" font-size="5.33" lengthAdjust="spacing" textLength="22.96" x="820.82" y="322.1219">describes</text><text fill="#000000" font-family="sans-serif" font-size="5.33" lengthAdjust="spacing" textLength="8.2" x="814.2679" y="355.1907">1..*</text></g><!--link Application to ApplicationDate--><g id="link_Application_ApplicationDate"><path codeLine="113" d="M859.7905,273.39 C857.9086,290.9216 856.9861,321.5691 869.2,343.8403 C872.7178,350.2527 876.5089,354.1697 882.3555,358.3435 " fill="none" id="Application-to-ApplicationDate" style="stroke:#222222;stroke-width:0.41;"/><polygon fill="#222222" points="884.3577,359.7729,882.3073,356.2941,882.6892,358.5818,880.4016,358.9637,884.3577,359.7729" style="stroke:#222222;stroke-width:0.41;"/><text fill="#000000" font-family="sans-serif" font-size="5.33" lengthAdjust="spacing" textLength="30.75" x="869.61" y="322.1219">registered by</text><text fill="#000000" font-family="sans-serif" font-size="5.33" lengthAdjust="spacing" textLength="2.87" x="876.6968" y="355.2564">1</text></g><!--link Application to ApplicationStatus--><g id="link_Application_ApplicationStatus"><path codeLine="114" d="M879.2204,273.4679 C892.7709,284.2796 909.3676,297.5218 921.7168,307.3741 " fill="none" id="Application-to-ApplicationStatus" style="stroke:#222222;stroke-width:0.41;"/><polygon fill="#222222" points="923.6398,308.9083,921.7781,305.325,922.0373,307.6298,919.7325,307.889,923.6398,308.9083" style="stroke:#222222;stroke-width:0.41;"/><polygon fill="#000000" points="904.0875,288.2964,906.2349,291.5512,907.7379,289.6674,904.0875,288.2964" style="stroke:#000000;stroke-width:0.41;"/><text fill="#000000" font-family="sans-serif" font-size="5.33" lengthAdjust="spacing" textLength="27.47" x="909.38" y="291.7819">categorizes</text><text fill="#000000" font-family="sans-serif" font-size="5.33" lengthAdjust="spacing" textLength="2.87" x="917.3831" y="304.3861">1</text></g><!--link Interview to InterviewAnswer--><g id="link_Interview_InterviewAnswer"><path codeLine="119" d="M994.0778,381.6259 C993.7416,394.8033 994.4714,417.8084 1002.04,435.6803 C1006.0457,445.1431 1011.6954,452.3042 1018.0135,458.8396 " fill="none" id="Interview-to-InterviewAnswer" style="stroke:#222222;stroke-width:0.41;"/><polygon fill="#222222" points="1019.7233,460.6083,1018.3376,456.8154,1018.2984,459.1344,1015.9795,459.0952,1019.7233,460.6083" style="stroke:#222222;stroke-width:0.41;"/><text fill="#000000" font-family="sans-serif" font-size="5.33" lengthAdjust="spacing" textLength="28.7" x="1002.45" y="427.0819">described in</text><text fill="#000000" font-family="sans-serif" font-size="5.33" lengthAdjust="spacing" textLength="2.87" x="1013.879" y="456.0861">1</text></g><!--link Interview to InterviewResult--><g id="link_Interview_InterviewResult"><path codeLine="120" d="M982.073,381.6218 C959.0802,400.8344 912.4239,439.8223 889.4229,459.0431 " fill="none" id="Interview-to-InterviewResult" style="stroke:#222222;stroke-width:0.41;"/><polygon fill="#222222" points="887.5352,460.6206,891.4183,459.5129,889.1083,459.306,889.3151,456.996,887.5352,460.6206" style="stroke:#222222;stroke-width:0.41;"/><polygon fill="#000000" points="946.2131,423.5604,942.5947,425.0137,944.14,426.863,946.2131,423.5604" style="stroke:#000000;stroke-width:0.41;"/><text fill="#000000" font-family="sans-serif" font-size="5.33" lengthAdjust="spacing" textLength="22.14" x="948.33" y="427.0819">classifies</text><text fill="#000000" font-family="sans-serif" font-size="5.33" lengthAdjust="spacing" textLength="2.87" x="887.246" y="456.1012">1</text></g><!--link InterviewResult to InterviewGrade--><g id="link_InterviewResult_InterviewGrade"><path codeLine="121" d="M901.0324,471.5553 C912.5124,471.5553 923.5045,471.5553 934.9804,471.5553 " fill="none" id="InterviewResult-to-InterviewGrade" style="stroke:#222222;stroke-width:0.41;"/><polygon fill="#222222" points="937.4404,471.5553,933.7504,469.9153,935.3904,471.5553,933.7504,473.1953,937.4404,471.5553" style="stroke:#222222;stroke-width:0.41;"/><polygon fill="#000000" points="908.15,466.4899,911.8585,467.6949,911.8585,465.285,908.15,466.4899" style="stroke:#000000;stroke-width:0.41;"/><text fill="#000000" font-family="sans-serif" font-size="5.33" lengthAdjust="spacing" textLength="15.99" x="913.89" y="468.6969">grades</text><text fill="#000000" font-family="sans-serif" font-size="5.33" lengthAdjust="spacing" textLength="2.87" x="931.3913" y="469.9507">1</text></g><!--link InterviewResult to Justification--><g id="link_InterviewResult_Justification"><path codeLine="122" d="M874.94,482.4941 C874.94,491.838 874.94,502.9572 874.94,512.297 " fill="none" id="InterviewResult-to-Justification" style="stroke:#222222;stroke-width:0.41;"/><polygon fill="#222222" points="874.94,514.757,876.58,511.067,874.94,512.707,873.3,511.067,874.94,514.757" style="stroke:#222222;stroke-width:0.41;"/><polygon fill="#000000" points="876.99,496.6249,875.785,500.3334,878.195,500.3334,876.99,496.6249" style="stroke:#000000;stroke-width:0.41;"/><text fill="#000000" font-family="sans-serif" font-size="5.33" lengthAdjust="spacing" textLength="18.04" x="880.68" y="500.8819">justifies</text><text fill="#000000" font-family="sans-serif" font-size="5.33" lengthAdjust="spacing" textLength="2.87" x="871.7382" y="510.2414">1</text></g><!--link Interview to Schedule--><g id="link_Interview_Schedule"><path codeLine="123" d="M1007.7841,381.6341 C1019.4281,390.978 1034.4304,403.0173 1046.0662,412.3571 " fill="none" id="Interview-to-Schedule" style="stroke:#222222;stroke-width:0.41;"/><polygon fill="#222222" points="1047.9846,413.897,1046.1335,410.3082,1046.3859,412.6137,1044.0804,412.8661,1047.9846,413.897" style="stroke:#222222;stroke-width:0.41;"/><text fill="#000000" font-family="sans-serif" font-size="5.33" lengthAdjust="spacing" textLength="20.5" x="1031.97" y="400.0219">follows a</text><text fill="#000000" font-family="sans-serif" font-size="5.33" lengthAdjust="spacing" textLength="2.87" x="1041.7544" y="409.3814">1</text></g><!--SRC=[fLVRRjiu47tNLmpSX-mkwbmMVLW8GW0bSR89UWdiDAy5BKrajXAfabG2j-Y_TtInHCcoPQL60bkUS-RAuOoFLiQasZqvIMCcJ9R4nu5CJeAOQJqDEOiKInn7V-CYPVGH2e5lZEBBpE1j8CM2_q0uTLOyHC0aDMjW6x7k4YzOy2rICXFXfOobWYNo22sGhvHyAKLl_YrUZcEuYH4-ByvEpzx1bKmO5_11XXWxZdEq-D-VpwxWqN__UGQVBkvc3ml70NeLvi0FGuNqxdb_FRvzSttztyMxqx_XcSKPWbn-nS2SdyFFNxcYsVpnzd96x2F_vcO-k_4Vw24bVrc4CF4y5aKA8sQG67To2PzI55n44_XPs4D1VgvpIIKWc-LtXFSy9MLbgd6EiDUP20oNOj315gkoi33CP7e4zL8AerXW7jOfZg3boHu1_vWbIrIFB60YM1_4gwbNg0F5quCpqgHaZa-eK0G3ZdeUdLAgoXD7LLMU_lBNZafVPjh811LyO8B4gbFkZRYIzjOyjr8OoNcxp30Hyf0-T_LllhSrrwhRnTr0Fx9aJBdkLr9WMRCHh1crOJpSLhzs9jPFqvW7B2zr9sPBOaNTIgVLu0tugapJeH5OpD6DT2iCgcUEB_ivi8Fb2_qobErTt3dgB3QZk7TqIEd4robzXTKRnORkW0vrZjyphZ2X-hqYN8lzYe3_9D6BO8LX5kEO- -UQ7u3VtGfp35J6JHuit2iPqC3gj8I5g033qyNceE8oF2YYok3zYkdMdTEvCaWwGgd56dl3MzIHKwlW7DZPvGpeNkRJwJbCpewF_vbOGzS5gXlNTC1q3o5dd1OC-nPpGJuJ7fdUPwEdo2veD1goT1-lcH4k98LOqn8pdJgDm4At_TBPCk56zqEjNSO5blDGmvDKBNG1dvJpm8LwkeQmN6zfdRI7b0ihflkKMIEfnEJHvF-MHpMuFVt91H74MKWvQ84hRB7A363Q-yiky0QzsJ07bDgxtf1AkqU6iAsLRhyFMukZMtPANQu-ltiFvTv8smUCzCk0KtL3C18yv-ZB5wSkPtdBD5LlRXKN899qsaX7Vk1wW5N0P0WZgUWd27Lv7ww9TGZPJdjOF2qBSEwh7LRTvqHjLW4hBsrmQMDx8EuaR3Eg8RYVKJHjCOlQxlSgxovEpRrM7eQ-4BPNfcvQyqoLzMtoKfliZEN6oP32saiemxVEQswhkn9rISNEuaAKl_NYDtrXhqSkV2qVsvGQNAy7BXtCE9Ol6fZp6m00]--></g></svg>