<?xml version="1.0" encoding="UTF-8" standalone="no"?><svg xmlns="http://www.w3.org/2000/svg" xmlns:xlink="http://www.w3.org/1999/xlink" contentStyleType="text/css" height="1331px" preserveAspectRatio="none" style="width:3644px;height:1331px;background:#FFFFFF;" version="1.1" viewBox="0 0 3644 1331" width="3644px" zoomAndPan="magnify"><defs/><g><text fill="#000000" font-family="sans-serif" font-size="14" font-weight="bold" lengthAdjust="spacing" textLength="206" x="1716.25" y="29.5332">[US2003 - Sequence Diagram]</text><rect fill="#ADD8E6" height="1274.2188" style="stroke:#181818;stroke-width:0.5;" width="3058" x="1" y="44.6094"/><text fill="#000000" font-family="sans-serif" font-size="20" font-weight="bold" lengthAdjust="spacing" textLength="70" x="1492" y="65.3711">System</text><rect fill="#FFB6C1" height="1274.2188" style="stroke:#181818;stroke-width:0.5;" width="577.5" x="3061" y="44.6094"/><text fill="#000000" font-family="sans-serif" font-size="20" font-weight="bold" lengthAdjust="spacing" textLength="59" x="3317.25" y="65.3711">Plugin</text><rect fill="#FFFFFF" height="1021.4375" style="stroke:#181818;stroke-width:1.0;" width="10" x="178" y="180.0781"/><rect fill="#FFFFFF" height="30" style="stroke:#181818;stroke-width:1.0;" width="10" x="659" y="211.2344"/><rect fill="#FFFFFF" height="376.25" style="stroke:#181818;stroke-width:1.0;" width="10" x="659" y="280.3906"/><rect fill="#FFFFFF" height="505.7188" style="stroke:#181818;stroke-width:1.0;" width="10" x="659" y="695.7969"/><rect fill="#FFFFFF" height="30" style="stroke:#181818;stroke-width:1.0;" width="10" x="1163" y="319.5469"/><rect fill="#FFFFFF" height="69.1563" style="stroke:#181818;stroke-width:1.0;" width="10" x="1423.5" y="388.7031"/><rect fill="#FFFFFF" height="128.4688" style="stroke:#181818;stroke-width:1.0;" width="10" x="1717" y="497.0156"/><rect fill="#FFFFFF" height="30" style="stroke:#181818;stroke-width:1.0;" width="10" x="1964.5" y="427.8594"/><rect fill="#FFFFFF" height="30" style="stroke:#181818;stroke-width:1.0;" width="10" x="2143" y="580.4844"/><rect fill="#FFFFFF" height="39.1563" style="stroke:#181818;stroke-width:1.0;" width="10" x="2398.5" y="734.9531"/><rect fill="#FFFFFF" height="322.0938" style="stroke:#181818;stroke-width:1.0;" width="10" x="2398.5" y="840.2656"/><rect fill="#FFFFFF" height="20" style="stroke:#181818;stroke-width:1.0;" width="10" x="2885.5" y="774.1094"/><rect fill="#FFFFFF" height="243.7813" style="stroke:#181818;stroke-width:1.0;" width="10" x="3197.5" y="879.4219"/><rect fill="#FFFFFF" height="30" style="stroke:#181818;stroke-width:1.0;" width="10" x="3488.5" y="986.3125"/><rect fill="none" height="106.4688" style="stroke:#000000;stroke-width:1.5;" width="640" x="1580.5" y="512.0156"/><line style="stroke:#181818;stroke-width:0.5;stroke-dasharray:5.0,5.0;" x1="183" x2="183" y1="170.0781" y2="1219.5156"/><line style="stroke:#181818;stroke-width:0.5;stroke-dasharray:5.0,5.0;" x1="664" x2="664" y1="170.0781" y2="1219.5156"/><line style="stroke:#181818;stroke-width:0.5;stroke-dasharray:5.0,5.0;" x1="1167.5" x2="1167.5" y1="170.0781" y2="1219.5156"/><line style="stroke:#181818;stroke-width:0.5;stroke-dasharray:5.0,5.0;" x1="1428.5" x2="1428.5" y1="170.0781" y2="1219.5156"/><line style="stroke:#181818;stroke-width:0.5;stroke-dasharray:5.0,5.0;" x1="1721.5" x2="1721.5" y1="170.0781" y2="1219.5156"/><line style="stroke:#181818;stroke-width:0.5;stroke-dasharray:5.0,5.0;" x1="1969.5" x2="1969.5" y1="170.0781" y2="1219.5156"/><line style="stroke:#181818;stroke-width:0.5;stroke-dasharray:5.0,5.0;" x1="2147.5" x2="2147.5" y1="170.0781" y2="1219.5156"/><line style="stroke:#181818;stroke-width:0.5;stroke-dasharray:5.0,5.0;" x1="2403.5" x2="2403.5" y1="170.0781" y2="1219.5156"/><line style="stroke:#181818;stroke-width:0.5;stroke-dasharray:5.0,5.0;" x1="2890" x2="2890" y1="170.0781" y2="1219.5156"/><line style="stroke:#181818;stroke-width:0.5;stroke-dasharray:5.0,5.0;" x1="3202" x2="3202" y1="170.0781" y2="1219.5156"/><line style="stroke:#181818;stroke-width:0.5;stroke-dasharray:5.0,5.0;" x1="3493.5" x2="3493.5" y1="170.0781" y2="1219.5156"/><rect fill="#E2E2F0" height="64.3125" rx="2.5" ry="2.5" style="stroke:#181818;stroke-width:0.5;" width="356" x="5" y="104.7656"/><text fill="#000000" font-family="sans-serif" font-size="20" lengthAdjust="spacing" textLength="130" x="118" y="132.5273">«presentation»</text><text fill="#000000" font-family="sans-serif" font-size="20" lengthAdjust="spacing" textLength="342" x="12" y="157.6836">:GenerateRequirementsTemplateFileUI</text><rect fill="#E2E2F0" height="64.3125" rx="2.5" ry="2.5" style="stroke:#181818;stroke-width:0.5;" width="356" x="5" y="1218.5156"/><text fill="#000000" font-family="sans-serif" font-size="20" lengthAdjust="spacing" textLength="130" x="118" y="1246.2773">«presentation»</text><text fill="#000000" font-family="sans-serif" font-size="20" lengthAdjust="spacing" textLength="342" x="12" y="1271.4336">:GenerateRequirementsTemplateFileUI</text><text fill="#000000" font-family="sans-serif" font-size="20" lengthAdjust="spacing" textLength="115" x="603.5" y="140.5273">«application»</text><text fill="#000000" font-family="sans-serif" font-size="20" lengthAdjust="spacing" textLength="408" x="457" y="165.6836">:GenerateRequirementsTemplateFileController</text><ellipse cx="664" cy="103.7656" fill="#E2E2F0" rx="12" ry="12" style="stroke:#181818;stroke-width:0.5;"/><polygon fill="#181818" points="660,91.7656,666,86.7656,664,91.7656,666,96.7656,660,91.7656" style="stroke:#181818;stroke-width:1.0;"/><text fill="#000000" font-family="sans-serif" font-size="20" lengthAdjust="spacing" textLength="115" x="603.5" y="1239.2773">«application»</text><text fill="#000000" font-family="sans-serif" font-size="20" lengthAdjust="spacing" textLength="408" x="457" y="1264.4336">:GenerateRequirementsTemplateFileController</text><ellipse cx="664" cy="1284.8281" fill="#E2E2F0" rx="12" ry="12" style="stroke:#181818;stroke-width:0.5;"/><polygon fill="#181818" points="660,1272.8281,666,1267.8281,664,1272.8281,666,1277.8281,660,1272.8281" style="stroke:#181818;stroke-width:1.0;"/><rect fill="#E2E2F0" height="64.3125" rx="2.5" ry="2.5" style="stroke:#181818;stroke-width:0.5;" width="197" x="1069.5" y="104.7656"/><text fill="#000000" font-family="sans-serif" font-size="20" lengthAdjust="spacing" textLength="84" x="1126" y="132.5273">«service»</text><text fill="#000000" font-family="sans-serif" font-size="20" lengthAdjust="spacing" textLength="183" x="1076.5" y="157.6836">:AuthorizationService</text><rect fill="#E2E2F0" height="64.3125" rx="2.5" ry="2.5" style="stroke:#181818;stroke-width:0.5;" width="197" x="1069.5" y="1218.5156"/><text fill="#000000" font-family="sans-serif" font-size="20" lengthAdjust="spacing" textLength="84" x="1126" y="1246.2773">«service»</text><text fill="#000000" font-family="sans-serif" font-size="20" lengthAdjust="spacing" textLength="183" x="1076.5" y="1271.4336">:AuthorizationService</text><rect fill="#E2E2F0" height="64.3125" rx="2.5" ry="2.5" style="stroke:#181818;stroke-width:0.5;" width="304" x="1276.5" y="104.7656"/><text fill="#000000" font-family="sans-serif" font-size="20" lengthAdjust="spacing" textLength="84" x="1386.5" y="132.5273">«service»</text><text fill="#000000" font-family="sans-serif" font-size="20" lengthAdjust="spacing" textLength="290" x="1283.5" y="157.6836">:JobOpeningManagementService</text><rect fill="#E2E2F0" height="64.3125" rx="2.5" ry="2.5" style="stroke:#181818;stroke-width:0.5;" width="304" x="1276.5" y="1218.5156"/><text fill="#000000" font-family="sans-serif" font-size="20" lengthAdjust="spacing" textLength="84" x="1386.5" y="1246.2773">«service»</text><text fill="#000000" font-family="sans-serif" font-size="20" lengthAdjust="spacing" textLength="290" x="1283.5" y="1271.4336">:JobOpeningManagementService</text><rect fill="#E2E2F0" height="64.3125" rx="2.5" ry="2.5" style="stroke:#181818;stroke-width:0.5;" width="263" x="1590.5" y="104.7656"/><text fill="#000000" font-family="sans-serif" font-size="20" lengthAdjust="spacing" textLength="84" x="1680" y="132.5273">«service»</text><text fill="#000000" font-family="sans-serif" font-size="20" lengthAdjust="spacing" textLength="249" x="1597.5" y="157.6836">:JobOpeningListDTOService</text><rect fill="#E2E2F0" height="64.3125" rx="2.5" ry="2.5" style="stroke:#181818;stroke-width:0.5;" width="263" x="1590.5" y="1218.5156"/><text fill="#000000" font-family="sans-serif" font-size="20" lengthAdjust="spacing" textLength="84" x="1680" y="1246.2773">«service»</text><text fill="#000000" font-family="sans-serif" font-size="20" lengthAdjust="spacing" textLength="249" x="1597.5" y="1271.4336">:JobOpeningListDTOService</text><text fill="#000000" font-family="sans-serif" font-size="20" lengthAdjust="spacing" textLength="110" x="1911.5" y="140.5273">«repository»</text><text fill="#000000" font-family="sans-serif" font-size="20" lengthAdjust="spacing" textLength="206" x="1863.5" y="165.6836">:JobOpeningRepository</text><path d="M1951.5,83.7656 C1951.5,73.7656 1969.5,73.7656 1969.5,73.7656 C1969.5,73.7656 1987.5,73.7656 1987.5,83.7656 L1987.5,109.7656 C1987.5,119.7656 1969.5,119.7656 1969.5,119.7656 C1969.5,119.7656 1951.5,119.7656 1951.5,109.7656 L1951.5,83.7656 " fill="#E2E2F0" style="stroke:#181818;stroke-width:1.5;"/><path d="M1951.5,83.7656 C1951.5,93.7656 1969.5,93.7656 1969.5,93.7656 C1969.5,93.7656 1987.5,93.7656 1987.5,83.7656 " fill="none" style="stroke:#181818;stroke-width:1.5;"/><text fill="#000000" font-family="sans-serif" font-size="20" lengthAdjust="spacing" textLength="110" x="1911.5" y="1239.2773">«repository»</text><text fill="#000000" font-family="sans-serif" font-size="20" lengthAdjust="spacing" textLength="206" x="1863.5" y="1264.4336">:JobOpeningRepository</text><path d="M1951.5,1278.8281 C1951.5,1268.8281 1969.5,1268.8281 1969.5,1268.8281 C1969.5,1268.8281 1987.5,1268.8281 1987.5,1278.8281 L1987.5,1304.8281 C1987.5,1314.8281 1969.5,1314.8281 1969.5,1314.8281 C1969.5,1314.8281 1951.5,1314.8281 1951.5,1304.8281 L1951.5,1278.8281 " fill="#E2E2F0" style="stroke:#181818;stroke-width:1.5;"/><path d="M1951.5,1278.8281 C1951.5,1288.8281 1969.5,1288.8281 1969.5,1288.8281 C1969.5,1288.8281 1987.5,1288.8281 1987.5,1278.8281 " fill="none" style="stroke:#181818;stroke-width:1.5;"/><rect fill="#E2E2F0" height="64.3125" rx="2.5" ry="2.5" style="stroke:#181818;stroke-width:0.5;" width="125" x="2085.5" y="104.7656"/><text fill="#000000" font-family="sans-serif" font-size="20" lengthAdjust="spacing" textLength="85" x="2105.5" y="132.5273">«domain»</text><text fill="#000000" font-family="sans-serif" font-size="20" lengthAdjust="spacing" textLength="111" x="2092.5" y="157.6836">:JobOpening</text><rect fill="#E2E2F0" height="64.3125" rx="2.5" ry="2.5" style="stroke:#181818;stroke-width:0.5;" width="125" x="2085.5" y="1218.5156"/><text fill="#000000" font-family="sans-serif" font-size="20" lengthAdjust="spacing" textLength="85" x="2105.5" y="1246.2773">«domain»</text><text fill="#000000" font-family="sans-serif" font-size="20" lengthAdjust="spacing" textLength="111" x="2092.5" y="1271.4336">:JobOpening</text><rect fill="#E2E2F0" height="64.3125" rx="2.5" ry="2.5" style="stroke:#181818;stroke-width:0.5;" width="366" x="2220.5" y="104.7656"/><text fill="#000000" font-family="sans-serif" font-size="20" lengthAdjust="spacing" textLength="84" x="2361.5" y="132.5273">«service»</text><text fill="#000000" font-family="sans-serif" font-size="20" lengthAdjust="spacing" textLength="352" x="2227.5" y="157.6836">:RequirementsTemplateManagerService</text><rect fill="#E2E2F0" height="64.3125" rx="2.5" ry="2.5" style="stroke:#181818;stroke-width:0.5;" width="366" x="2220.5" y="1218.5156"/><text fill="#000000" font-family="sans-serif" font-size="20" lengthAdjust="spacing" textLength="84" x="2361.5" y="1246.2773">«service»</text><text fill="#000000" font-family="sans-serif" font-size="20" lengthAdjust="spacing" textLength="352" x="2227.5" y="1271.4336">:RequirementsTemplateManagerService</text><text fill="#000000" font-family="sans-serif" font-size="20" lengthAdjust="spacing" textLength="110" x="2832.5" y="140.5273">«repository»</text><text fill="#000000" font-family="sans-serif" font-size="20" lengthAdjust="spacing" textLength="323" x="2726" y="165.6836">:RequirementSpecificationRepository</text><path d="M2872.5,83.7656 C2872.5,73.7656 2890.5,73.7656 2890.5,73.7656 C2890.5,73.7656 2908.5,73.7656 2908.5,83.7656 L2908.5,109.7656 C2908.5,119.7656 2890.5,119.7656 2890.5,119.7656 C2890.5,119.7656 2872.5,119.7656 2872.5,109.7656 L2872.5,83.7656 " fill="#E2E2F0" style="stroke:#181818;stroke-width:1.5;"/><path d="M2872.5,83.7656 C2872.5,93.7656 2890.5,93.7656 2890.5,93.7656 C2890.5,93.7656 2908.5,93.7656 2908.5,83.7656 " fill="none" style="stroke:#181818;stroke-width:1.5;"/><text fill="#000000" font-family="sans-serif" font-size="20" lengthAdjust="spacing" textLength="110" x="2832.5" y="1239.2773">«repository»</text><text fill="#000000" font-family="sans-serif" font-size="20" lengthAdjust="spacing" textLength="323" x="2726" y="1264.4336">:RequirementSpecificationRepository</text><path d="M2872.5,1278.8281 C2872.5,1268.8281 2890.5,1268.8281 2890.5,1268.8281 C2890.5,1268.8281 2908.5,1268.8281 2908.5,1278.8281 L2908.5,1304.8281 C2908.5,1314.8281 2890.5,1314.8281 2890.5,1314.8281 C2890.5,1314.8281 2872.5,1314.8281 2872.5,1304.8281 L2872.5,1278.8281 " fill="#E2E2F0" style="stroke:#181818;stroke-width:1.5;"/><path d="M2872.5,1278.8281 C2872.5,1288.8281 2890.5,1288.8281 2890.5,1288.8281 C2890.5,1288.8281 2908.5,1288.8281 2908.5,1278.8281 " fill="none" style="stroke:#181818;stroke-width:1.5;"/><rect fill="#E2E2F0" height="64.3125" rx="2.5" ry="2.5" style="stroke:#181818;stroke-width:0.5;" width="275" x="3065" y="104.7656"/><text fill="#000000" font-family="sans-serif" font-size="20" lengthAdjust="spacing" textLength="74" x="3165.5" y="132.5273">«Plugin»</text><text fill="#000000" font-family="sans-serif" font-size="20" lengthAdjust="spacing" textLength="261" x="3072" y="157.6836">:RequirementsTemplatePlugin</text><rect fill="#E2E2F0" height="64.3125" rx="2.5" ry="2.5" style="stroke:#181818;stroke-width:0.5;" width="275" x="3065" y="1218.5156"/><text fill="#000000" font-family="sans-serif" font-size="20" lengthAdjust="spacing" textLength="74" x="3165.5" y="1246.2773">«Plugin»</text><text fill="#000000" font-family="sans-serif" font-size="20" lengthAdjust="spacing" textLength="261" x="3072" y="1271.4336">:RequirementsTemplatePlugin</text><rect fill="#E2E2F0" height="64.3125" rx="2.5" ry="2.5" style="stroke:#181818;stroke-width:0.5;" width="282" x="3352.5" y="104.7656"/><text fill="#000000" font-family="sans-serif" font-size="20" lengthAdjust="spacing" textLength="180" x="3403.5" y="132.5273">«Parser/Interpreter»</text><text fill="#000000" font-family="sans-serif" font-size="20" lengthAdjust="spacing" textLength="268" x="3359.5" y="157.6836">:RequirementsTemplateParser</text><rect fill="#E2E2F0" height="64.3125" rx="2.5" ry="2.5" style="stroke:#181818;stroke-width:0.5;" width="282" x="3352.5" y="1218.5156"/><text fill="#000000" font-family="sans-serif" font-size="20" lengthAdjust="spacing" textLength="180" x="3403.5" y="1246.2773">«Parser/Interpreter»</text><text fill="#000000" font-family="sans-serif" font-size="20" lengthAdjust="spacing" textLength="268" x="3359.5" y="1271.4336">:RequirementsTemplateParser</text><rect fill="#FFFFFF" height="1021.4375" style="stroke:#181818;stroke-width:1.0;" width="10" x="178" y="180.0781"/><rect fill="#FFFFFF" height="30" style="stroke:#181818;stroke-width:1.0;" width="10" x="659" y="211.2344"/><rect fill="#FFFFFF" height="376.25" style="stroke:#181818;stroke-width:1.0;" width="10" x="659" y="280.3906"/><rect fill="#FFFFFF" height="505.7188" style="stroke:#181818;stroke-width:1.0;" width="10" x="659" y="695.7969"/><rect fill="#FFFFFF" height="30" style="stroke:#181818;stroke-width:1.0;" width="10" x="1163" y="319.5469"/><rect fill="#FFFFFF" height="69.1563" style="stroke:#181818;stroke-width:1.0;" width="10" x="1423.5" y="388.7031"/><rect fill="#FFFFFF" height="128.4688" style="stroke:#181818;stroke-width:1.0;" width="10" x="1717" y="497.0156"/><rect fill="#FFFFFF" height="30" style="stroke:#181818;stroke-width:1.0;" width="10" x="1964.5" y="427.8594"/><rect fill="#FFFFFF" height="30" style="stroke:#181818;stroke-width:1.0;" width="10" x="2143" y="580.4844"/><rect fill="#FFFFFF" height="39.1563" style="stroke:#181818;stroke-width:1.0;" width="10" x="2398.5" y="734.9531"/><rect fill="#FFFFFF" height="322.0938" style="stroke:#181818;stroke-width:1.0;" width="10" x="2398.5" y="840.2656"/><rect fill="#FFFFFF" height="20" style="stroke:#181818;stroke-width:1.0;" width="10" x="2885.5" y="774.1094"/><rect fill="#FFFFFF" height="243.7813" style="stroke:#181818;stroke-width:1.0;" width="10" x="3197.5" y="879.4219"/><rect fill="#FFFFFF" height="30" style="stroke:#181818;stroke-width:1.0;" width="10" x="3488.5" y="986.3125"/><polygon fill="#181818" points="647,207.2344,657,211.2344,647,215.2344,651,211.2344" style="stroke:#181818;stroke-width:1.0;"/><line style="stroke:#181818;stroke-width:1.0;" x1="188" x2="653" y1="211.2344" y2="211.2344"/><text fill="#000000" font-family="sans-serif" font-size="20" lengthAdjust="spacing" textLength="70" x="195" y="204.8398">create()</text><polygon fill="#181818" points="647,276.3906,657,280.3906,647,284.3906,651,280.3906" style="stroke:#181818;stroke-width:1.0;"/><line style="stroke:#181818;stroke-width:1.0;" x1="188" x2="653" y1="280.3906" y2="280.3906"/><text fill="#000000" font-family="sans-serif" font-size="20" lengthAdjust="spacing" textLength="178" x="195" y="273.9961">getJobOpeningList()</text><polygon fill="#181818" points="1151,315.5469,1161,319.5469,1151,323.5469,1155,319.5469" style="stroke:#181818;stroke-width:1.0;"/><line style="stroke:#181818;stroke-width:1.0;" x1="669" x2="1157" y1="319.5469" y2="319.5469"/><text fill="#000000" font-family="sans-serif" font-size="20" lengthAdjust="spacing" textLength="475" x="676" y="313.1523">loggedinUserWithPermissions(BaseRole.OPERATOR)</text><polygon fill="#181818" points="1411.5,384.7031,1421.5,388.7031,1411.5,392.7031,1415.5,388.7031" style="stroke:#181818;stroke-width:1.0;"/><line style="stroke:#181818;stroke-width:1.0;" x1="669" x2="1417.5" y1="388.7031" y2="388.7031"/><text fill="#000000" font-family="sans-serif" font-size="20" lengthAdjust="spacing" textLength="273" x="676" y="382.3086">getUNFINISHEDJobOpenings()</text><polygon fill="#181818" points="1952.5,423.8594,1962.5,427.8594,1952.5,431.8594,1956.5,427.8594" style="stroke:#181818;stroke-width:1.0;"/><line style="stroke:#181818;stroke-width:1.0;" x1="1433.5" x2="1958.5" y1="427.8594" y2="427.8594"/><text fill="#000000" font-family="sans-serif" font-size="20" lengthAdjust="spacing" textLength="294" x="1440.5" y="421.4648">getUNFINISHEDJobOpeningList()</text><polygon fill="#181818" points="1705,493.0156,1715,497.0156,1705,501.0156,1709,497.0156" style="stroke:#181818;stroke-width:1.0;"/><line style="stroke:#181818;stroke-width:1.0;" x1="669" x2="1711" y1="497.0156" y2="497.0156"/><text fill="#000000" font-family="sans-serif" font-size="20" lengthAdjust="spacing" textLength="273" x="676" y="490.6211">convertToDTO(jobOpeningList)</text><path d="M1580.5,512.0156 L1666.5,512.0156 L1666.5,529.1719 L1656.5,539.1719 L1580.5,539.1719 L1580.5,512.0156 " fill="#EEEEEE" style="stroke:#000000;stroke-width:1.5;"/><rect fill="none" height="106.4688" style="stroke:#000000;stroke-width:1.5;" width="640" x="1580.5" y="512.0156"/><text fill="#000000" font-family="sans-serif" font-size="20" font-weight="bold" lengthAdjust="spacing" textLength="41" x="1595.5" y="533.7773">loop</text><text fill="#000000" font-family="sans-serif" font-size="20" font-weight="bold" lengthAdjust="spacing" textLength="213" x="1681.5" y="534.7773">[for each JobOpening]</text><polygon fill="#181818" points="2131,576.4844,2141,580.4844,2131,584.4844,2135,580.4844" style="stroke:#181818;stroke-width:1.0;"/><line style="stroke:#181818;stroke-width:1.0;" x1="1727" x2="2137" y1="580.4844" y2="580.4844"/><text fill="#000000" font-family="sans-serif" font-size="20" lengthAdjust="spacing" textLength="73" x="1734" y="574.0898">toDTO()</text><polygon fill="#181818" points="199,652.6406,189,656.6406,199,660.6406,195,656.6406" style="stroke:#181818;stroke-width:1.0;"/><line style="stroke:#181818;stroke-width:1.0;stroke-dasharray:2.0,2.0;" x1="193" x2="663" y1="656.6406" y2="656.6406"/><text fill="#000000" font-family="sans-serif" font-size="20" lengthAdjust="spacing" textLength="172" x="205" y="650.2461">jobOpeningListDTO</text><polygon fill="#181818" points="647,691.7969,657,695.7969,647,699.7969,651,695.7969" style="stroke:#181818;stroke-width:1.0;"/><line style="stroke:#181818;stroke-width:1.0;" x1="188" x2="653" y1="695.7969" y2="695.7969"/><text fill="#000000" font-family="sans-serif" font-size="20" lengthAdjust="spacing" textLength="452" x="195" y="689.4023">exportTemplateFile(jobOpeningDTO, directoryPath)</text><polygon fill="#181818" points="2386.5,730.9531,2396.5,734.9531,2386.5,738.9531,2390.5,734.9531" style="stroke:#181818;stroke-width:1.0;"/><line style="stroke:#181818;stroke-width:1.0;" x1="669" x2="2392.5" y1="734.9531" y2="734.9531"/><text fill="#000000" font-family="sans-serif" font-size="20" lengthAdjust="spacing" textLength="445" x="676" y="728.5586">getRequirementFromJobOpening(jobOpeningDTO)</text><polygon fill="#181818" points="2873.5,770.1094,2883.5,774.1094,2873.5,778.1094,2877.5,774.1094" style="stroke:#181818;stroke-width:1.0;"/><line style="stroke:#181818;stroke-width:1.0;" x1="2403.5" x2="2879.5" y1="774.1094" y2="774.1094"/><text fill="#000000" font-family="sans-serif" font-size="20" lengthAdjust="spacing" textLength="458" x="2410.5" y="767.7148">requirementSpecificationFromDTO(jobOpeningDTO)</text><line style="stroke:#ADD8E6;stroke-width:1.0;" x1="2895.5" x2="2937.5" y1="793.1094" y2="793.1094"/><line style="stroke:#ADD8E6;stroke-width:1.0;" x1="2937.5" x2="2937.5" y1="793.1094" y2="806.1094"/><line style="stroke:#ADD8E6;stroke-width:1.0;" x1="2890.5" x2="2937.5" y1="806.1094" y2="806.1094"/><polygon fill="#ADD8E6" points="2900.5,802.1094,2890.5,806.1094,2900.5,810.1094,2896.5,806.1094" style="stroke:#ADD8E6;stroke-width:1.0;"/><polygon fill="#181818" points="2386.5,836.2656,2396.5,840.2656,2386.5,844.2656,2390.5,840.2656" style="stroke:#181818;stroke-width:1.0;"/><line style="stroke:#181818;stroke-width:1.0;" x1="669" x2="2392.5" y1="840.2656" y2="840.2656"/><text fill="#000000" font-family="sans-serif" font-size="20" lengthAdjust="spacing" textLength="526" x="676" y="833.8711">exportTemplateFile(requirementSpecification, directoryPath)</text><polygon fill="#181818" points="3185.5,875.4219,3195.5,879.4219,3185.5,883.4219,3189.5,879.4219" style="stroke:#181818;stroke-width:1.0;"/><line style="stroke:#181818;stroke-width:1.0;" x1="2408.5" x2="3191.5" y1="879.4219" y2="879.4219"/><text fill="#000000" font-family="sans-serif" font-size="20" lengthAdjust="spacing" textLength="557" x="2415.5" y="873.0273">generateNewTemplate(requirementSpecification, directoryPath)</text><line style="stroke:#181818;stroke-width:1.0;" x1="3207.5" x2="3249.5" y1="918.5781" y2="918.5781"/><line style="stroke:#181818;stroke-width:1.0;" x1="3249.5" x2="3249.5" y1="918.5781" y2="931.5781"/><line style="stroke:#181818;stroke-width:1.0;" x1="3208.5" x2="3249.5" y1="931.5781" y2="931.5781"/><polygon fill="#181818" points="3218.5,927.5781,3208.5,931.5781,3218.5,935.5781,3214.5,931.5781" style="stroke:#181818;stroke-width:1.0;"/><text fill="#000000" font-family="sans-serif" font-size="20" lengthAdjust="spacing" textLength="123" x="3214.5" y="912.1836">generateFile()</text><polygon fill="#181818" points="3476.5,982.3125,3486.5,986.3125,3476.5,990.3125,3480.5,986.3125" style="stroke:#181818;stroke-width:1.0;"/><line style="stroke:#181818;stroke-width:1.0;" x1="3207.5" x2="3482.5" y1="986.3125" y2="986.3125"/><text fill="#000000" font-family="sans-serif" font-size="20" lengthAdjust="spacing" textLength="262" x="3214.5" y="979.918">checkFileSyntax(templateFile)</text><path d="M2928,944.5781 L2928,1004.5781 L3192,1004.5781 L3192,954.5781 L3182,944.5781 L2928,944.5781 " fill="#FEFFDD" style="stroke:#181818;stroke-width:0.5;"/><path d="M3182,944.5781 L3182,954.5781 L3192,954.5781 L3182,944.5781 " fill="#FEFFDD" style="stroke:#181818;stroke-width:0.5;"/><text fill="#000000" font-family="sans-serif" font-size="20" lengthAdjust="spacing" textLength="243" x="2934" y="970.3398">Along with the requirements</text><text fill="#000000" font-family="sans-serif" font-size="20" lengthAdjust="spacing" textLength="167" x="2940" y="995.4961">template grammar.</text><line style="stroke:#181818;stroke-width:1.0;" x1="3207.5" x2="3249.5" y1="1071.0469" y2="1071.0469"/><line style="stroke:#181818;stroke-width:1.0;" x1="3249.5" x2="3249.5" y1="1071.0469" y2="1084.0469"/><line style="stroke:#181818;stroke-width:1.0;" x1="3208.5" x2="3249.5" y1="1084.0469" y2="1084.0469"/><polygon fill="#181818" points="3218.5,1080.0469,3208.5,1084.0469,3218.5,1088.0469,3214.5,1084.0469" style="stroke:#181818;stroke-width:1.0;"/><text fill="#000000" font-family="sans-serif" font-size="20" lengthAdjust="spacing" textLength="69" x="3214.5" y="1064.6523">export()</text><polygon fill="#181818" points="2419.5,1119.2031,2409.5,1123.2031,2419.5,1127.2031,2415.5,1123.2031" style="stroke:#181818;stroke-width:1.0;"/><line style="stroke:#181818;stroke-width:1.0;stroke-dasharray:2.0,2.0;" x1="2413.5" x2="3201.5" y1="1123.2031" y2="1123.2031"/><text fill="#000000" font-family="sans-serif" font-size="20" lengthAdjust="spacing" textLength="106" x="2425.5" y="1116.8086">confirmation</text><polygon fill="#181818" points="680,1158.3594,670,1162.3594,680,1166.3594,676,1162.3594" style="stroke:#181818;stroke-width:1.0;"/><line style="stroke:#181818;stroke-width:1.0;stroke-dasharray:2.0,2.0;" x1="674" x2="2402.5" y1="1162.3594" y2="1162.3594"/><text fill="#000000" font-family="sans-serif" font-size="20" lengthAdjust="spacing" textLength="106" x="686" y="1155.9648">confirmation</text><polygon fill="#181818" points="194,1197.5156,184,1201.5156,194,1205.5156,190,1201.5156" style="stroke:#181818;stroke-width:1.0;"/><line style="stroke:#181818;stroke-width:1.0;stroke-dasharray:2.0,2.0;" x1="188" x2="663" y1="1201.5156" y2="1201.5156"/><text fill="#000000" font-family="sans-serif" font-size="20" lengthAdjust="spacing" textLength="106" x="200" y="1195.1211">confirmation</text><!--SRC=[dLPBR-8m4BxxLrZjOK7QFjIzeQfIN-oowXP4G7jeUp3945mIE-iOjksltx6J43k1gDeS4F7CVFFynidNN6HCiJIHuHeY6i6IRH8zb487_0FenJaXcki4wDCyk3W__qPFQ01_DY12e7USnMZwGiX2lj7WFTUGqkC77g_qJR81Wi2QXpnZGjEZoyjCGGv2CysbkBfw5eFl840n3LC4v0fI5EOpIBC4puOyWVdeYBASpaSan7YKJ0mAoxA4Xvy7kIrC4r0Mx7OsVMW6beFQyX0itFL6hwJY7zP1K0YieH44sx3BzgTSZ3CGNCI_c62nZSM5G7aj-1pG0y_rtMpSGF6596AQBLWE1aP19dEkfNfl84rtWWPABMY65CcKST70QLXtfR6l9KK1b9jGUTILXeCKP13oPJa1ZQHG3Ky8Y8ZYH1PZEKasCHVbM4wuM3SZBXGE1bo8BNpnjsNF52PzDX8Q58uu_Xx6ige5blrRXqfOgFaMTSoua_c8dbpPMQK36Yh0yrw_Lh53787_xXl5eFr1QTaJYe_LHgjokj4maN4C4HTp3Eytrwi9g9JdEHOxxzrWTwOoWTFnv7vwFHjF-nPaXrjnn1mwuLN7daUF34N0yyVXw74K_BY_gqFFUmqVFecip3m-N87V6l33RieALMYkjpPDAYqdnRrwfAtaXkvKmYUqwRaKMr1w9l6rz-efE7rihmBhCf4oeqkfABfUkLnrYjNmw8M1_hLrt5cGxZ9OgPbk4mpPgxABkIW4Xe0JFA2lxVtMEUdmbacibBFodOAX-LSQ8Gz3qv49qwi-8Lzm28mRQZjb9liiizJEcnIfMbIkg69-76OFbKphX7o_Jf-g3KSg78GiTXKYgWExpM3xtRUWJZ4gsDr1kVz8YNtoT9oOhRV0o_YbykW2LFeUCUjSzrJsKB2j8dj3iyk_6Xcd3kL-DfKjBl97-5kv_4ztvPxUUIjTx7Dca-hlLRKBsb1n1U7Qw0Nl-F7orjDEFMg228cE4rZg0RrE97BeB-vEgbVWzZT_5hGof-RJAMNgbBH9LbuEUmXMIhfIAxfMSxTIyLgB-sN9LMgBsLnJRlbsZNAkemvJhz4-hJsp5gET0xp__W40]--></g></svg>