<?xml version="1.0" encoding="UTF-8" standalone="no"?><svg xmlns="http://www.w3.org/2000/svg" xmlns:xlink="http://www.w3.org/1999/xlink" contentStyleType="text/css" height="1643px" preserveAspectRatio="none" style="width:4401px;height:1643px;background:#FFFFFF;" version="1.1" viewBox="0 0 4401 1643" width="4401px" zoomAndPan="magnify"><defs/><g><text fill="#000000" font-family="sans-serif" font-size="14" font-weight="bold" lengthAdjust="spacing" textLength="206" x="2094.75" y="29.5332">[US2003 - Sequence Diagram]</text><rect fill="#ADD8E6" height="1585.4688" style="stroke:#181818;stroke-width:0.5;" width="3815" x="1" y="44.6094"/><text fill="#000000" font-family="sans-serif" font-size="20" font-weight="bold" lengthAdjust="spacing" textLength="70" x="1870.5" y="65.3711">System</text><rect fill="#FFB6C1" height="1585.4688" style="stroke:#181818;stroke-width:0.5;" width="577.5" x="3818" y="44.6094"/><text fill="#000000" font-family="sans-serif" font-size="20" font-weight="bold" lengthAdjust="spacing" textLength="59" x="4074.25" y="65.3711">Plugin</text><rect fill="#FFFFFF" height="1332.6875" style="stroke:#181818;stroke-width:1.0;" width="10" x="178" y="180.0781"/><rect fill="#FFFFFF" height="30" style="stroke:#181818;stroke-width:1.0;" width="10" x="573" y="211.2344"/><rect fill="#FFFFFF" height="687.5" style="stroke:#181818;stroke-width:1.0;" width="10" x="573" y="280.3906"/><rect fill="#FFFFFF" height="505.7188" style="stroke:#181818;stroke-width:1.0;" width="10" x="573" y="1007.0469"/><rect fill="#FFFFFF" height="30" style="stroke:#181818;stroke-width:1.0;" width="10" x="1188" y="319.5469"/><rect fill="#FFFFFF" height="228.7813" style="stroke:#181818;stroke-width:1.0;" width="10" x="1438.5" y="388.7031"/><rect fill="#FFFFFF" height="30" style="stroke:#181818;stroke-width:1.0;" width="10" x="1802.5" y="443.4375"/><rect fill="#FFFFFF" height="30" style="stroke:#181818;stroke-width:1.0;" width="10" x="1961" y="572.4844"/><rect fill="#FFFFFF" height="128.4688" style="stroke:#181818;stroke-width:1.0;" width="10" x="2175.5" y="648.6406"/><rect fill="#FFFFFF" height="128.4688" style="stroke:#181818;stroke-width:1.0;" width="10" x="2469" y="808.2656"/><rect fill="#FFFFFF" height="30" style="stroke:#181818;stroke-width:1.0;" width="10" x="2721.5" y="732.1094"/><rect fill="#FFFFFF" height="30" style="stroke:#181818;stroke-width:1.0;" width="10" x="2900" y="891.7344"/><rect fill="#FFFFFF" height="39.1563" style="stroke:#181818;stroke-width:1.0;" width="10" x="3155.5" y="1046.2031"/><rect fill="#FFFFFF" height="322.0938" style="stroke:#181818;stroke-width:1.0;" width="10" x="3155.5" y="1151.5156"/><rect fill="#FFFFFF" height="20" style="stroke:#181818;stroke-width:1.0;" width="10" x="3642.5" y="1085.3594"/><rect fill="#FFFFFF" height="243.7813" style="stroke:#181818;stroke-width:1.0;" width="10" x="3954.5" y="1190.6719"/><rect fill="#FFFFFF" height="30" style="stroke:#181818;stroke-width:1.0;" width="10" x="4245.5" y="1297.5625"/><rect fill="none" height="106.4688" style="stroke:#000000;stroke-width:1.5;" width="737" x="1291.5" y="504.0156"/><rect fill="none" height="106.4688" style="stroke:#000000;stroke-width:1.5;" width="824" x="2018.5" y="663.6406"/><rect fill="none" height="106.4688" style="stroke:#000000;stroke-width:1.5;" width="645" x="2332.5" y="823.2656"/><line style="stroke:#181818;stroke-width:0.5;stroke-dasharray:5.0,5.0;" x1="183" x2="183" y1="170.0781" y2="1530.7656"/><line style="stroke:#181818;stroke-width:0.5;stroke-dasharray:5.0,5.0;" x1="578" x2="578" y1="170.0781" y2="1530.7656"/><line style="stroke:#181818;stroke-width:0.5;stroke-dasharray:5.0,5.0;" x1="1192.5" x2="1192.5" y1="170.0781" y2="1530.7656"/><line style="stroke:#181818;stroke-width:0.5;stroke-dasharray:5.0,5.0;" x1="1443.5" x2="1443.5" y1="170.0781" y2="1530.7656"/><line style="stroke:#181818;stroke-width:0.5;stroke-dasharray:5.0,5.0;" x1="1807.5" x2="1807.5" y1="170.0781" y2="1530.7656"/><line style="stroke:#181818;stroke-width:0.5;stroke-dasharray:5.0,5.0;" x1="1965.5" x2="1965.5" y1="170.0781" y2="1530.7656"/><line style="stroke:#181818;stroke-width:0.5;stroke-dasharray:5.0,5.0;" x1="2180.5" x2="2180.5" y1="170.0781" y2="1530.7656"/><line style="stroke:#181818;stroke-width:0.5;stroke-dasharray:5.0,5.0;" x1="2473.5" x2="2473.5" y1="170.0781" y2="1530.7656"/><line style="stroke:#181818;stroke-width:0.5;stroke-dasharray:5.0,5.0;" x1="2726.5" x2="2726.5" y1="170.0781" y2="1530.7656"/><line style="stroke:#181818;stroke-width:0.5;stroke-dasharray:5.0,5.0;" x1="2904.5" x2="2904.5" y1="170.0781" y2="1530.7656"/><line style="stroke:#181818;stroke-width:0.5;stroke-dasharray:5.0,5.0;" x1="3160.5" x2="3160.5" y1="170.0781" y2="1530.7656"/><line style="stroke:#181818;stroke-width:0.5;stroke-dasharray:5.0,5.0;" x1="3647" x2="3647" y1="170.0781" y2="1530.7656"/><line style="stroke:#181818;stroke-width:0.5;stroke-dasharray:5.0,5.0;" x1="3959" x2="3959" y1="170.0781" y2="1530.7656"/><line style="stroke:#181818;stroke-width:0.5;stroke-dasharray:5.0,5.0;" x1="4250.5" x2="4250.5" y1="170.0781" y2="1530.7656"/><rect fill="#E2E2F0" height="64.3125" rx="2.5" ry="2.5" style="stroke:#181818;stroke-width:0.5;" width="356" x="5" y="104.7656"/><text fill="#000000" font-family="sans-serif" font-size="20" lengthAdjust="spacing" textLength="130" x="118" y="132.5273">«presentation»</text><text fill="#000000" font-family="sans-serif" font-size="20" lengthAdjust="spacing" textLength="342" x="12" y="157.6836">:GenerateRequirementsTemplateFileUI</text><rect fill="#E2E2F0" height="64.3125" rx="2.5" ry="2.5" style="stroke:#181818;stroke-width:0.5;" width="356" x="5" y="1529.7656"/><text fill="#000000" font-family="sans-serif" font-size="20" lengthAdjust="spacing" textLength="130" x="118" y="1557.5273">«presentation»</text><text fill="#000000" font-family="sans-serif" font-size="20" lengthAdjust="spacing" textLength="342" x="12" y="1582.6836">:GenerateRequirementsTemplateFileUI</text><text fill="#000000" font-family="sans-serif" font-size="20" lengthAdjust="spacing" textLength="115" x="517.5" y="140.5273">«application»</text><text fill="#000000" font-family="sans-serif" font-size="20" lengthAdjust="spacing" textLength="408" x="371" y="165.6836">:GenerateRequirementsTemplateFileController</text><ellipse cx="578" cy="103.7656" fill="#E2E2F0" rx="12" ry="12" style="stroke:#181818;stroke-width:0.5;"/><polygon fill="#181818" points="574,91.7656,580,86.7656,578,91.7656,580,96.7656,574,91.7656" style="stroke:#181818;stroke-width:1.0;"/><text fill="#000000" font-family="sans-serif" font-size="20" lengthAdjust="spacing" textLength="115" x="517.5" y="1550.5273">«application»</text><text fill="#000000" font-family="sans-serif" font-size="20" lengthAdjust="spacing" textLength="408" x="371" y="1575.6836">:GenerateRequirementsTemplateFileController</text><ellipse cx="578" cy="1596.0781" fill="#E2E2F0" rx="12" ry="12" style="stroke:#181818;stroke-width:0.5;"/><polygon fill="#181818" points="574,1584.0781,580,1579.0781,578,1584.0781,580,1589.0781,574,1584.0781" style="stroke:#181818;stroke-width:1.0;"/><rect fill="#E2E2F0" height="64.3125" rx="2.5" ry="2.5" style="stroke:#181818;stroke-width:0.5;" width="197" x="1094.5" y="104.7656"/><text fill="#000000" font-family="sans-serif" font-size="20" lengthAdjust="spacing" textLength="84" x="1151" y="132.5273">«service»</text><text fill="#000000" font-family="sans-serif" font-size="20" lengthAdjust="spacing" textLength="183" x="1101.5" y="157.6836">:AuthorizationService</text><rect fill="#E2E2F0" height="64.3125" rx="2.5" ry="2.5" style="stroke:#181818;stroke-width:0.5;" width="197" x="1094.5" y="1529.7656"/><text fill="#000000" font-family="sans-serif" font-size="20" lengthAdjust="spacing" textLength="84" x="1151" y="1557.5273">«service»</text><text fill="#000000" font-family="sans-serif" font-size="20" lengthAdjust="spacing" textLength="183" x="1101.5" y="1582.6836">:AuthorizationService</text><rect fill="#E2E2F0" height="64.3125" rx="2.5" ry="2.5" style="stroke:#181818;stroke-width:0.5;" width="284" x="1301.5" y="104.7656"/><text fill="#000000" font-family="sans-serif" font-size="20" lengthAdjust="spacing" textLength="84" x="1401.5" y="132.5273">«service»</text><text fill="#000000" font-family="sans-serif" font-size="20" lengthAdjust="spacing" textLength="270" x="1308.5" y="157.6836">:CustomerManagementService</text><rect fill="#E2E2F0" height="64.3125" rx="2.5" ry="2.5" style="stroke:#181818;stroke-width:0.5;" width="284" x="1301.5" y="1529.7656"/><text fill="#000000" font-family="sans-serif" font-size="20" lengthAdjust="spacing" textLength="84" x="1401.5" y="1557.5273">«service»</text><text fill="#000000" font-family="sans-serif" font-size="20" lengthAdjust="spacing" textLength="270" x="1308.5" y="1582.6836">:CustomerManagementService</text><text fill="#000000" font-family="sans-serif" font-size="20" lengthAdjust="spacing" textLength="110" x="1749.5" y="140.5273">«repository»</text><text fill="#000000" font-family="sans-serif" font-size="20" lengthAdjust="spacing" textLength="186" x="1711.5" y="165.6836">:CustomerRepository</text><path d="M1789.5,83.7656 C1789.5,73.7656 1807.5,73.7656 1807.5,73.7656 C1807.5,73.7656 1825.5,73.7656 1825.5,83.7656 L1825.5,109.7656 C1825.5,119.7656 1807.5,119.7656 1807.5,119.7656 C1807.5,119.7656 1789.5,119.7656 1789.5,109.7656 L1789.5,83.7656 " fill="#E2E2F0" style="stroke:#181818;stroke-width:1.5;"/><path d="M1789.5,83.7656 C1789.5,93.7656 1807.5,93.7656 1807.5,93.7656 C1807.5,93.7656 1825.5,93.7656 1825.5,83.7656 " fill="none" style="stroke:#181818;stroke-width:1.5;"/><text fill="#000000" font-family="sans-serif" font-size="20" lengthAdjust="spacing" textLength="110" x="1749.5" y="1550.5273">«repository»</text><text fill="#000000" font-family="sans-serif" font-size="20" lengthAdjust="spacing" textLength="186" x="1711.5" y="1575.6836">:CustomerRepository</text><path d="M1789.5,1590.0781 C1789.5,1580.0781 1807.5,1580.0781 1807.5,1580.0781 C1807.5,1580.0781 1825.5,1580.0781 1825.5,1590.0781 L1825.5,1616.0781 C1825.5,1626.0781 1807.5,1626.0781 1807.5,1626.0781 C1807.5,1626.0781 1789.5,1626.0781 1789.5,1616.0781 L1789.5,1590.0781 " fill="#E2E2F0" style="stroke:#181818;stroke-width:1.5;"/><path d="M1789.5,1590.0781 C1789.5,1600.0781 1807.5,1600.0781 1807.5,1600.0781 C1807.5,1600.0781 1825.5,1600.0781 1825.5,1590.0781 " fill="none" style="stroke:#181818;stroke-width:1.5;"/><rect fill="#E2E2F0" height="64.3125" rx="2.5" ry="2.5" style="stroke:#181818;stroke-width:0.5;" width="105" x="1913.5" y="104.7656"/><text fill="#000000" font-family="sans-serif" font-size="20" lengthAdjust="spacing" textLength="85" x="1923.5" y="132.5273">«domain»</text><text fill="#000000" font-family="sans-serif" font-size="20" lengthAdjust="spacing" textLength="91" x="1920.5" y="157.6836">:Customer</text><rect fill="#E2E2F0" height="64.3125" rx="2.5" ry="2.5" style="stroke:#181818;stroke-width:0.5;" width="105" x="1913.5" y="1529.7656"/><text fill="#000000" font-family="sans-serif" font-size="20" lengthAdjust="spacing" textLength="85" x="1923.5" y="1557.5273">«domain»</text><text fill="#000000" font-family="sans-serif" font-size="20" lengthAdjust="spacing" textLength="91" x="1920.5" y="1582.6836">:Customer</text><rect fill="#E2E2F0" height="64.3125" rx="2.5" ry="2.5" style="stroke:#181818;stroke-width:0.5;" width="304" x="2028.5" y="104.7656"/><text fill="#000000" font-family="sans-serif" font-size="20" lengthAdjust="spacing" textLength="84" x="2138.5" y="132.5273">«service»</text><text fill="#000000" font-family="sans-serif" font-size="20" lengthAdjust="spacing" textLength="290" x="2035.5" y="157.6836">:JobOpeningManagementService</text><rect fill="#E2E2F0" height="64.3125" rx="2.5" ry="2.5" style="stroke:#181818;stroke-width:0.5;" width="304" x="2028.5" y="1529.7656"/><text fill="#000000" font-family="sans-serif" font-size="20" lengthAdjust="spacing" textLength="84" x="2138.5" y="1557.5273">«service»</text><text fill="#000000" font-family="sans-serif" font-size="20" lengthAdjust="spacing" textLength="290" x="2035.5" y="1582.6836">:JobOpeningManagementService</text><rect fill="#E2E2F0" height="64.3125" rx="2.5" ry="2.5" style="stroke:#181818;stroke-width:0.5;" width="263" x="2342.5" y="104.7656"/><text fill="#000000" font-family="sans-serif" font-size="20" lengthAdjust="spacing" textLength="84" x="2432" y="132.5273">«service»</text><text fill="#000000" font-family="sans-serif" font-size="20" lengthAdjust="spacing" textLength="249" x="2349.5" y="157.6836">:JobOpeningListDTOService</text><rect fill="#E2E2F0" height="64.3125" rx="2.5" ry="2.5" style="stroke:#181818;stroke-width:0.5;" width="263" x="2342.5" y="1529.7656"/><text fill="#000000" font-family="sans-serif" font-size="20" lengthAdjust="spacing" textLength="84" x="2432" y="1557.5273">«service»</text><text fill="#000000" font-family="sans-serif" font-size="20" lengthAdjust="spacing" textLength="249" x="2349.5" y="1582.6836">:JobOpeningListDTOService</text><text fill="#000000" font-family="sans-serif" font-size="20" lengthAdjust="spacing" textLength="110" x="2668.5" y="140.5273">«repository»</text><text fill="#000000" font-family="sans-serif" font-size="20" lengthAdjust="spacing" textLength="206" x="2620.5" y="165.6836">:JobOpeningRepository</text><path d="M2708.5,83.7656 C2708.5,73.7656 2726.5,73.7656 2726.5,73.7656 C2726.5,73.7656 2744.5,73.7656 2744.5,83.7656 L2744.5,109.7656 C2744.5,119.7656 2726.5,119.7656 2726.5,119.7656 C2726.5,119.7656 2708.5,119.7656 2708.5,109.7656 L2708.5,83.7656 " fill="#E2E2F0" style="stroke:#181818;stroke-width:1.5;"/><path d="M2708.5,83.7656 C2708.5,93.7656 2726.5,93.7656 2726.5,93.7656 C2726.5,93.7656 2744.5,93.7656 2744.5,83.7656 " fill="none" style="stroke:#181818;stroke-width:1.5;"/><text fill="#000000" font-family="sans-serif" font-size="20" lengthAdjust="spacing" textLength="110" x="2668.5" y="1550.5273">«repository»</text><text fill="#000000" font-family="sans-serif" font-size="20" lengthAdjust="spacing" textLength="206" x="2620.5" y="1575.6836">:JobOpeningRepository</text><path d="M2708.5,1590.0781 C2708.5,1580.0781 2726.5,1580.0781 2726.5,1580.0781 C2726.5,1580.0781 2744.5,1580.0781 2744.5,1590.0781 L2744.5,1616.0781 C2744.5,1626.0781 2726.5,1626.0781 2726.5,1626.0781 C2726.5,1626.0781 2708.5,1626.0781 2708.5,1616.0781 L2708.5,1590.0781 " fill="#E2E2F0" style="stroke:#181818;stroke-width:1.5;"/><path d="M2708.5,1590.0781 C2708.5,1600.0781 2726.5,1600.0781 2726.5,1600.0781 C2726.5,1600.0781 2744.5,1600.0781 2744.5,1590.0781 " fill="none" style="stroke:#181818;stroke-width:1.5;"/><rect fill="#E2E2F0" height="64.3125" rx="2.5" ry="2.5" style="stroke:#181818;stroke-width:0.5;" width="125" x="2842.5" y="104.7656"/><text fill="#000000" font-family="sans-serif" font-size="20" lengthAdjust="spacing" textLength="85" x="2862.5" y="132.5273">«domain»</text><text fill="#000000" font-family="sans-serif" font-size="20" lengthAdjust="spacing" textLength="111" x="2849.5" y="157.6836">:JobOpening</text><rect fill="#E2E2F0" height="64.3125" rx="2.5" ry="2.5" style="stroke:#181818;stroke-width:0.5;" width="125" x="2842.5" y="1529.7656"/><text fill="#000000" font-family="sans-serif" font-size="20" lengthAdjust="spacing" textLength="85" x="2862.5" y="1557.5273">«domain»</text><text fill="#000000" font-family="sans-serif" font-size="20" lengthAdjust="spacing" textLength="111" x="2849.5" y="1582.6836">:JobOpening</text><rect fill="#E2E2F0" height="64.3125" rx="2.5" ry="2.5" style="stroke:#181818;stroke-width:0.5;" width="366" x="2977.5" y="104.7656"/><text fill="#000000" font-family="sans-serif" font-size="20" lengthAdjust="spacing" textLength="84" x="3118.5" y="132.5273">«service»</text><text fill="#000000" font-family="sans-serif" font-size="20" lengthAdjust="spacing" textLength="352" x="2984.5" y="157.6836">:RequirementsTemplateManagerService</text><rect fill="#E2E2F0" height="64.3125" rx="2.5" ry="2.5" style="stroke:#181818;stroke-width:0.5;" width="366" x="2977.5" y="1529.7656"/><text fill="#000000" font-family="sans-serif" font-size="20" lengthAdjust="spacing" textLength="84" x="3118.5" y="1557.5273">«service»</text><text fill="#000000" font-family="sans-serif" font-size="20" lengthAdjust="spacing" textLength="352" x="2984.5" y="1582.6836">:RequirementsTemplateManagerService</text><text fill="#000000" font-family="sans-serif" font-size="20" lengthAdjust="spacing" textLength="110" x="3589.5" y="140.5273">«repository»</text><text fill="#000000" font-family="sans-serif" font-size="20" lengthAdjust="spacing" textLength="323" x="3483" y="165.6836">:RequirementSpecificationRepository</text><path d="M3629.5,83.7656 C3629.5,73.7656 3647.5,73.7656 3647.5,73.7656 C3647.5,73.7656 3665.5,73.7656 3665.5,83.7656 L3665.5,109.7656 C3665.5,119.7656 3647.5,119.7656 3647.5,119.7656 C3647.5,119.7656 3629.5,119.7656 3629.5,109.7656 L3629.5,83.7656 " fill="#E2E2F0" style="stroke:#181818;stroke-width:1.5;"/><path d="M3629.5,83.7656 C3629.5,93.7656 3647.5,93.7656 3647.5,93.7656 C3647.5,93.7656 3665.5,93.7656 3665.5,83.7656 " fill="none" style="stroke:#181818;stroke-width:1.5;"/><text fill="#000000" font-family="sans-serif" font-size="20" lengthAdjust="spacing" textLength="110" x="3589.5" y="1550.5273">«repository»</text><text fill="#000000" font-family="sans-serif" font-size="20" lengthAdjust="spacing" textLength="323" x="3483" y="1575.6836">:RequirementSpecificationRepository</text><path d="M3629.5,1590.0781 C3629.5,1580.0781 3647.5,1580.0781 3647.5,1580.0781 C3647.5,1580.0781 3665.5,1580.0781 3665.5,1590.0781 L3665.5,1616.0781 C3665.5,1626.0781 3647.5,1626.0781 3647.5,1626.0781 C3647.5,1626.0781 3629.5,1626.0781 3629.5,1616.0781 L3629.5,1590.0781 " fill="#E2E2F0" style="stroke:#181818;stroke-width:1.5;"/><path d="M3629.5,1590.0781 C3629.5,1600.0781 3647.5,1600.0781 3647.5,1600.0781 C3647.5,1600.0781 3665.5,1600.0781 3665.5,1590.0781 " fill="none" style="stroke:#181818;stroke-width:1.5;"/><rect fill="#E2E2F0" height="64.3125" rx="2.5" ry="2.5" style="stroke:#181818;stroke-width:0.5;" width="275" x="3822" y="104.7656"/><text fill="#000000" font-family="sans-serif" font-size="20" lengthAdjust="spacing" textLength="74" x="3922.5" y="132.5273">«Plugin»</text><text fill="#000000" font-family="sans-serif" font-size="20" lengthAdjust="spacing" textLength="261" x="3829" y="157.6836">:RequirementsTemplatePlugin</text><rect fill="#E2E2F0" height="64.3125" rx="2.5" ry="2.5" style="stroke:#181818;stroke-width:0.5;" width="275" x="3822" y="1529.7656"/><text fill="#000000" font-family="sans-serif" font-size="20" lengthAdjust="spacing" textLength="74" x="3922.5" y="1557.5273">«Plugin»</text><text fill="#000000" font-family="sans-serif" font-size="20" lengthAdjust="spacing" textLength="261" x="3829" y="1582.6836">:RequirementsTemplatePlugin</text><rect fill="#E2E2F0" height="64.3125" rx="2.5" ry="2.5" style="stroke:#181818;stroke-width:0.5;" width="282" x="4109.5" y="104.7656"/><text fill="#000000" font-family="sans-serif" font-size="20" lengthAdjust="spacing" textLength="180" x="4160.5" y="132.5273">«Parser/Interpreter»</text><text fill="#000000" font-family="sans-serif" font-size="20" lengthAdjust="spacing" textLength="268" x="4116.5" y="157.6836">:RequirementsTemplateParser</text><rect fill="#E2E2F0" height="64.3125" rx="2.5" ry="2.5" style="stroke:#181818;stroke-width:0.5;" width="282" x="4109.5" y="1529.7656"/><text fill="#000000" font-family="sans-serif" font-size="20" lengthAdjust="spacing" textLength="180" x="4160.5" y="1557.5273">«Parser/Interpreter»</text><text fill="#000000" font-family="sans-serif" font-size="20" lengthAdjust="spacing" textLength="268" x="4116.5" y="1582.6836">:RequirementsTemplateParser</text><rect fill="#FFFFFF" height="1332.6875" style="stroke:#181818;stroke-width:1.0;" width="10" x="178" y="180.0781"/><rect fill="#FFFFFF" height="30" style="stroke:#181818;stroke-width:1.0;" width="10" x="573" y="211.2344"/><rect fill="#FFFFFF" height="687.5" style="stroke:#181818;stroke-width:1.0;" width="10" x="573" y="280.3906"/><rect fill="#FFFFFF" height="505.7188" style="stroke:#181818;stroke-width:1.0;" width="10" x="573" y="1007.0469"/><rect fill="#FFFFFF" height="30" style="stroke:#181818;stroke-width:1.0;" width="10" x="1188" y="319.5469"/><rect fill="#FFFFFF" height="228.7813" style="stroke:#181818;stroke-width:1.0;" width="10" x="1438.5" y="388.7031"/><rect fill="#FFFFFF" height="30" style="stroke:#181818;stroke-width:1.0;" width="10" x="1802.5" y="443.4375"/><rect fill="#FFFFFF" height="30" style="stroke:#181818;stroke-width:1.0;" width="10" x="1961" y="572.4844"/><rect fill="#FFFFFF" height="128.4688" style="stroke:#181818;stroke-width:1.0;" width="10" x="2175.5" y="648.6406"/><rect fill="#FFFFFF" height="128.4688" style="stroke:#181818;stroke-width:1.0;" width="10" x="2469" y="808.2656"/><rect fill="#FFFFFF" height="30" style="stroke:#181818;stroke-width:1.0;" width="10" x="2721.5" y="732.1094"/><rect fill="#FFFFFF" height="30" style="stroke:#181818;stroke-width:1.0;" width="10" x="2900" y="891.7344"/><rect fill="#FFFFFF" height="39.1563" style="stroke:#181818;stroke-width:1.0;" width="10" x="3155.5" y="1046.2031"/><rect fill="#FFFFFF" height="322.0938" style="stroke:#181818;stroke-width:1.0;" width="10" x="3155.5" y="1151.5156"/><rect fill="#FFFFFF" height="20" style="stroke:#181818;stroke-width:1.0;" width="10" x="3642.5" y="1085.3594"/><rect fill="#FFFFFF" height="243.7813" style="stroke:#181818;stroke-width:1.0;" width="10" x="3954.5" y="1190.6719"/><rect fill="#FFFFFF" height="30" style="stroke:#181818;stroke-width:1.0;" width="10" x="4245.5" y="1297.5625"/><polygon fill="#181818" points="561,207.2344,571,211.2344,561,215.2344,565,211.2344" style="stroke:#181818;stroke-width:1.0;"/><line style="stroke:#181818;stroke-width:1.0;" x1="188" x2="567" y1="211.2344" y2="211.2344"/><text fill="#000000" font-family="sans-serif" font-size="20" lengthAdjust="spacing" textLength="70" x="195" y="204.8398">create()</text><polygon fill="#181818" points="561,276.3906,571,280.3906,561,284.3906,565,280.3906" style="stroke:#181818;stroke-width:1.0;"/><line style="stroke:#181818;stroke-width:1.0;" x1="188" x2="567" y1="280.3906" y2="280.3906"/><text fill="#000000" font-family="sans-serif" font-size="20" lengthAdjust="spacing" textLength="178" x="195" y="273.9961">getJobOpeningList()</text><polygon fill="#181818" points="1176,315.5469,1186,319.5469,1176,323.5469,1180,319.5469" style="stroke:#181818;stroke-width:1.0;"/><line style="stroke:#181818;stroke-width:1.0;" x1="583" x2="1182" y1="319.5469" y2="319.5469"/><text fill="#000000" font-family="sans-serif" font-size="20" lengthAdjust="spacing" textLength="586" x="590" y="313.1523">loggedinUserWithPermissions(BaseRole.CUSTOMER_MANAGER)</text><polygon fill="#181818" points="1426.5,384.7031,1436.5,388.7031,1426.5,392.7031,1430.5,388.7031" style="stroke:#181818;stroke-width:1.0;"/><line style="stroke:#181818;stroke-width:1.0;" x1="583" x2="1432.5" y1="388.7031" y2="388.7031"/><text fill="#000000" font-family="sans-serif" font-size="20" lengthAdjust="spacing" textLength="381" x="590" y="382.3086">getAssignedCustomerCodesList(username)</text><polygon fill="#181818" points="1790.5,439.4375,1800.5,443.4375,1790.5,447.4375,1794.5,443.4375" style="stroke:#181818;stroke-width:1.0;"/><line style="stroke:#181818;stroke-width:1.0;" x1="1448.5" x2="1796.5" y1="443.4375" y2="443.4375"/><text fill="#000000" font-family="sans-serif" font-size="20" lengthAdjust="spacing" textLength="335" x="1455.5" y="437.043">getCustomersByUsername(username)</text><path d="M1817,401.7031 L1817,461.7031 L2071,461.7031 L2071,411.7031 L2061,401.7031 L1817,401.7031 " fill="#FEFFDD" style="stroke:#181818;stroke-width:0.5;"/><path d="M2061,401.7031 L2061,411.7031 L2071,411.7031 L2061,401.7031 " fill="#FEFFDD" style="stroke:#181818;stroke-width:0.5;"/><text fill="#000000" font-family="sans-serif" font-size="20" lengthAdjust="spacing" textLength="233" x="1823" y="427.4648">Username is the Customer</text><text fill="#000000" font-family="sans-serif" font-size="20" lengthAdjust="spacing" textLength="144" x="1829" y="452.6211">Manager's email</text><path d="M1291.5,504.0156 L1377.5,504.0156 L1377.5,521.1719 L1367.5,531.1719 L1291.5,531.1719 L1291.5,504.0156 " fill="#EEEEEE" style="stroke:#000000;stroke-width:1.5;"/><rect fill="none" height="106.4688" style="stroke:#000000;stroke-width:1.5;" width="737" x="1291.5" y="504.0156"/><text fill="#000000" font-family="sans-serif" font-size="20" font-weight="bold" lengthAdjust="spacing" textLength="41" x="1306.5" y="525.7773">loop</text><text fill="#000000" font-family="sans-serif" font-size="20" font-weight="bold" lengthAdjust="spacing" textLength="131" x="1392.5" y="526.7773">[for all codes]</text><polygon fill="#181818" points="1949,568.4844,1959,572.4844,1949,576.4844,1953,572.4844" style="stroke:#181818;stroke-width:1.0;"/><line style="stroke:#181818;stroke-width:1.0;" x1="1448.5" x2="1955" y1="572.4844" y2="572.4844"/><text fill="#000000" font-family="sans-serif" font-size="20" lengthAdjust="spacing" textLength="142" x="1455.5" y="566.0898">customerCode()</text><polygon fill="#181818" points="2163.5,644.6406,2173.5,648.6406,2163.5,652.6406,2167.5,648.6406" style="stroke:#181818;stroke-width:1.0;"/><line style="stroke:#181818;stroke-width:1.0;" x1="583" x2="2169.5" y1="648.6406" y2="648.6406"/><text fill="#000000" font-family="sans-serif" font-size="20" lengthAdjust="spacing" textLength="596" x="590" y="642.2461">getJobOpeningsFromCustomerCodes(assignedCustomerCodesList)</text><path d="M2018.5,663.6406 L2104.5,663.6406 L2104.5,680.7969 L2094.5,690.7969 L2018.5,690.7969 L2018.5,663.6406 " fill="#EEEEEE" style="stroke:#000000;stroke-width:1.5;"/><rect fill="none" height="106.4688" style="stroke:#000000;stroke-width:1.5;" width="824" x="2018.5" y="663.6406"/><text fill="#000000" font-family="sans-serif" font-size="20" font-weight="bold" lengthAdjust="spacing" textLength="41" x="2033.5" y="685.4023">loop</text><text fill="#000000" font-family="sans-serif" font-size="20" font-weight="bold" lengthAdjust="spacing" textLength="144" x="2119.5" y="686.4023">[for each code]</text><polygon fill="#181818" points="2709.5,728.1094,2719.5,732.1094,2709.5,736.1094,2713.5,732.1094" style="stroke:#181818;stroke-width:1.0;"/><line style="stroke:#181818;stroke-width:1.0;" x1="2185.5" x2="2715.5" y1="732.1094" y2="732.1094"/><text fill="#000000" font-family="sans-serif" font-size="20" lengthAdjust="spacing" textLength="517" x="2192.5" y="725.7148">getJobOpeningListMatchingCustomerCode(customerCode)</text><polygon fill="#181818" points="2457,804.2656,2467,808.2656,2457,812.2656,2461,808.2656" style="stroke:#181818;stroke-width:1.0;"/><line style="stroke:#181818;stroke-width:1.0;" x1="583" x2="2463" y1="808.2656" y2="808.2656"/><text fill="#000000" font-family="sans-serif" font-size="20" lengthAdjust="spacing" textLength="273" x="590" y="801.8711">convertToDTO(jobOpeningList)</text><path d="M2332.5,823.2656 L2418.5,823.2656 L2418.5,840.4219 L2408.5,850.4219 L2332.5,850.4219 L2332.5,823.2656 " fill="#EEEEEE" style="stroke:#000000;stroke-width:1.5;"/><rect fill="none" height="106.4688" style="stroke:#000000;stroke-width:1.5;" width="645" x="2332.5" y="823.2656"/><text fill="#000000" font-family="sans-serif" font-size="20" font-weight="bold" lengthAdjust="spacing" textLength="41" x="2347.5" y="845.0273">loop</text><text fill="#000000" font-family="sans-serif" font-size="20" font-weight="bold" lengthAdjust="spacing" textLength="213" x="2433.5" y="846.0273">[for each JobOpening]</text><polygon fill="#181818" points="2888,887.7344,2898,891.7344,2888,895.7344,2892,891.7344" style="stroke:#181818;stroke-width:1.0;"/><line style="stroke:#181818;stroke-width:1.0;" x1="2479" x2="2894" y1="891.7344" y2="891.7344"/><text fill="#000000" font-family="sans-serif" font-size="20" lengthAdjust="spacing" textLength="73" x="2486" y="885.3398">toDTO()</text><polygon fill="#181818" points="199,963.8906,189,967.8906,199,971.8906,195,967.8906" style="stroke:#181818;stroke-width:1.0;"/><line style="stroke:#181818;stroke-width:1.0;stroke-dasharray:2.0,2.0;" x1="193" x2="577" y1="967.8906" y2="967.8906"/><text fill="#000000" font-family="sans-serif" font-size="20" lengthAdjust="spacing" textLength="172" x="205" y="961.4961">jobOpeningListDTO</text><polygon fill="#181818" points="561,1003.0469,571,1007.0469,561,1011.0469,565,1007.0469" style="stroke:#181818;stroke-width:1.0;"/><line style="stroke:#181818;stroke-width:1.0;" x1="188" x2="567" y1="1007.0469" y2="1007.0469"/><text fill="#000000" font-family="sans-serif" font-size="20" lengthAdjust="spacing" textLength="323" x="195" y="1000.6523">exportTemplateFile(jobOpeningDTO)</text><polygon fill="#181818" points="3143.5,1042.2031,3153.5,1046.2031,3143.5,1050.2031,3147.5,1046.2031" style="stroke:#181818;stroke-width:1.0;"/><line style="stroke:#181818;stroke-width:1.0;" x1="583" x2="3149.5" y1="1046.2031" y2="1046.2031"/><text fill="#000000" font-family="sans-serif" font-size="20" lengthAdjust="spacing" textLength="445" x="590" y="1039.8086">getRequirementFromJobOpening(jobOpeningDTO)</text><polygon fill="#181818" points="3630.5,1081.3594,3640.5,1085.3594,3630.5,1089.3594,3634.5,1085.3594" style="stroke:#181818;stroke-width:1.0;"/><line style="stroke:#181818;stroke-width:1.0;" x1="3160.5" x2="3636.5" y1="1085.3594" y2="1085.3594"/><text fill="#000000" font-family="sans-serif" font-size="20" lengthAdjust="spacing" textLength="458" x="3167.5" y="1078.9648">requirementSpecificationFromDTO(jobOpeningDTO)</text><line style="stroke:#ADD8E6;stroke-width:1.0;" x1="3652.5" x2="3694.5" y1="1104.3594" y2="1104.3594"/><line style="stroke:#ADD8E6;stroke-width:1.0;" x1="3694.5" x2="3694.5" y1="1104.3594" y2="1117.3594"/><line style="stroke:#ADD8E6;stroke-width:1.0;" x1="3647.5" x2="3694.5" y1="1117.3594" y2="1117.3594"/><polygon fill="#ADD8E6" points="3657.5,1113.3594,3647.5,1117.3594,3657.5,1121.3594,3653.5,1117.3594" style="stroke:#ADD8E6;stroke-width:1.0;"/><polygon fill="#181818" points="3143.5,1147.5156,3153.5,1151.5156,3143.5,1155.5156,3147.5,1151.5156" style="stroke:#181818;stroke-width:1.0;"/><line style="stroke:#181818;stroke-width:1.0;" x1="583" x2="3149.5" y1="1151.5156" y2="1151.5156"/><text fill="#000000" font-family="sans-serif" font-size="20" lengthAdjust="spacing" textLength="428" x="590" y="1145.1211">generateNewTemplate(requirementSpecification)</text><polygon fill="#181818" points="3942.5,1186.6719,3952.5,1190.6719,3942.5,1194.6719,3946.5,1190.6719" style="stroke:#181818;stroke-width:1.0;"/><line style="stroke:#181818;stroke-width:1.0;" x1="3165.5" x2="3948.5" y1="1190.6719" y2="1190.6719"/><text fill="#000000" font-family="sans-serif" font-size="20" lengthAdjust="spacing" textLength="374" x="3172.5" y="1184.2773">newRequirementsSpecificationsTemplate()</text><line style="stroke:#181818;stroke-width:1.0;" x1="3964.5" x2="4006.5" y1="1229.8281" y2="1229.8281"/><line style="stroke:#181818;stroke-width:1.0;" x1="4006.5" x2="4006.5" y1="1229.8281" y2="1242.8281"/><line style="stroke:#181818;stroke-width:1.0;" x1="3965.5" x2="4006.5" y1="1242.8281" y2="1242.8281"/><polygon fill="#181818" points="3975.5,1238.8281,3965.5,1242.8281,3975.5,1246.8281,3971.5,1242.8281" style="stroke:#181818;stroke-width:1.0;"/><text fill="#000000" font-family="sans-serif" font-size="20" lengthAdjust="spacing" textLength="123" x="3971.5" y="1223.4336">generateFile()</text><polygon fill="#181818" points="4233.5,1293.5625,4243.5,1297.5625,4233.5,1301.5625,4237.5,1297.5625" style="stroke:#181818;stroke-width:1.0;"/><line style="stroke:#181818;stroke-width:1.0;" x1="3964.5" x2="4239.5" y1="1297.5625" y2="1297.5625"/><text fill="#000000" font-family="sans-serif" font-size="20" lengthAdjust="spacing" textLength="262" x="3971.5" y="1291.168">checkFileSyntax(templateFile)</text><path d="M3685,1255.8281 L3685,1315.8281 L3949,1315.8281 L3949,1265.8281 L3939,1255.8281 L3685,1255.8281 " fill="#FEFFDD" style="stroke:#181818;stroke-width:0.5;"/><path d="M3939,1255.8281 L3939,1265.8281 L3949,1265.8281 L3939,1255.8281 " fill="#FEFFDD" style="stroke:#181818;stroke-width:0.5;"/><text fill="#000000" font-family="sans-serif" font-size="20" lengthAdjust="spacing" textLength="243" x="3691" y="1281.5898">Along with the requirements</text><text fill="#000000" font-family="sans-serif" font-size="20" lengthAdjust="spacing" textLength="167" x="3697" y="1306.7461">template grammar.</text><line style="stroke:#181818;stroke-width:1.0;" x1="3964.5" x2="4006.5" y1="1382.2969" y2="1382.2969"/><line style="stroke:#181818;stroke-width:1.0;" x1="4006.5" x2="4006.5" y1="1382.2969" y2="1395.2969"/><line style="stroke:#181818;stroke-width:1.0;" x1="3965.5" x2="4006.5" y1="1395.2969" y2="1395.2969"/><polygon fill="#181818" points="3975.5,1391.2969,3965.5,1395.2969,3975.5,1399.2969,3971.5,1395.2969" style="stroke:#181818;stroke-width:1.0;"/><text fill="#000000" font-family="sans-serif" font-size="20" lengthAdjust="spacing" textLength="69" x="3971.5" y="1375.9023">export()</text><polygon fill="#181818" points="3176.5,1430.4531,3166.5,1434.4531,3176.5,1438.4531,3172.5,1434.4531" style="stroke:#181818;stroke-width:1.0;"/><line style="stroke:#181818;stroke-width:1.0;stroke-dasharray:2.0,2.0;" x1="3170.5" x2="3958.5" y1="1434.4531" y2="1434.4531"/><text fill="#000000" font-family="sans-serif" font-size="20" lengthAdjust="spacing" textLength="106" x="3182.5" y="1428.0586">confirmation</text><polygon fill="#181818" points="594,1469.6094,584,1473.6094,594,1477.6094,590,1473.6094" style="stroke:#181818;stroke-width:1.0;"/><line style="stroke:#181818;stroke-width:1.0;stroke-dasharray:2.0,2.0;" x1="588" x2="3159.5" y1="1473.6094" y2="1473.6094"/><text fill="#000000" font-family="sans-serif" font-size="20" lengthAdjust="spacing" textLength="106" x="600" y="1467.2148">confirmation</text><polygon fill="#181818" points="194,1508.7656,184,1512.7656,194,1516.7656,190,1512.7656" style="stroke:#181818;stroke-width:1.0;"/><line style="stroke:#181818;stroke-width:1.0;stroke-dasharray:2.0,2.0;" x1="188" x2="577" y1="1512.7656" y2="1512.7656"/><text fill="#000000" font-family="sans-serif" font-size="20" lengthAdjust="spacing" textLength="106" x="200" y="1506.3711">confirmation</text><!--SRC=[ZLTBRnCn4BxxLrXm83aKAhX5g58QA2fgQPM7E012xcQIc7hjnNRwuDSpzgutjdUpa4ELU6Q-cVay3zVSSranpKgXYdjOqpLis5xO2oNjWly1-lQK4Ckj0FfjjNXxUlgEdj05_Dw3B81-u6oBfZy8kLDFTF5iB9JqvHNVxkovs0D1OCiBNZ5fwOltxoiD1gHbbYjvTlPTJZw11Cqip16GQoXHQ9PGLWBFBhY0rUKBoWnTNP82uz5AE1HMLO8N_myogqq5Q0ysMywlyi0Cw0TUW8URxkrEQVx7ErZK0c_e18k7OiXsjZTMbQ2lcMHR7qaCq9MIDRFiZXbmG1egPRXL-Zd1chV72SZXE0zehKh6POAHM0uby5dTtLGWkTpsfu3oAFh_0hhYndvOtcGegN28XuDonaIVO82BWtfcFPH6NqtL1EWueUPeA8q8QL51mJTD2MT9eHgU491hYYrLzzMjs6-vRFhgbilxFE9QuMZ0jTZ3rryxzanZqcykfGMDFOf_ZsDvrHhBVps4IbXX-GFgk7ubgqjwSkQRZKveeG7FH-E3Yk_2DQI_KwCjsBHGElQ4uiTherNJdcWer7OBQovN6DvNRdUte4jk399jHkTuEtCbuFLijLZUN7-S_xoUVfb- -ZWVUx0MFpIxEup23CU9vsvVrz5FqUTMmZh8PseDnYUonyWaAo5psZCWl89trdKIkJvKKUqwd9lpvrNZAtFgFbAXK-sgQaA36kM6sjqXbkyoLFShGm6xIRJcdRYZFWmwyHLtjLereLH5DqfJ9WGj74-jwD_9kmABA1wD4zkE_qJQ4ryhTvNj0YFaY6P-Jw4WaYcPLxAvqAfCIcB4ZXLALX_fzErmXm7kF7cjA0saZgmpC_jQxPhPOeVVuuX6CSdZRXNqpkCUdWVrMiwxHZ7R4TFf9d6reEG3QBjK-7FqAr681aXt1v4kcT6IY2ZDF2PXe7_h7GyID4mBIOZeLMbZhed0471qJkYlxcBDHsmwO-6fKaXLz5gA64FxCI6li3WSCFLtvORecyfl4PDFut0fpRoewofQ8gxm3odaZbgmi4n9m478UYqYeZwoHXrsUjyUD4e_mBO7pQeb3VR9jvV2ZS8xVBZ-21vZWA2Vj7gSQ_qC_GAFWS_HiMYplcup3cKHPTui_mcLy1Wlv0IlNS-Z3BdPzormWnRZXhZzvOzxLVsYTvsrW-BUwIsUyHN_DB9HtMHRHS06byfKA6o9Hzp1VgT4T1ZSAy6SklyXIgPVasxFD8-Cddvf94EfrTLzQCMWajmRZeiDrwNdCPywCNtjdKJFcW7Jv4xJBatCEWqQ7U0xwYy0]--></g></svg>