<?xml version="1.0" encoding="UTF-8" standalone="no"?><svg xmlns="http://www.w3.org/2000/svg" xmlns:xlink="http://www.w3.org/1999/xlink" contentStyleType="text/css" height="1633px" preserveAspectRatio="none" style="width:3961px;height:1633px;background:#FFFFFF;" version="1.1" viewBox="0 0 3961 1633" width="3961px" zoomAndPan="magnify"><defs/><g><!--cluster <<aggregate>> Requirement Specification--><g id="cluster_&lt;&lt;aggregate&gt;&gt; Requirement Specification"><path d="M183.5,850.8945 L555.5,850.8945 A3.75,3.75 0 0 1 558,853.3945 L565,882.0508 L884.5,882.0508 A2.5,2.5 0 0 1 887,884.5508 L887,1183.3945 A2.5,2.5 0 0 1 884.5,1185.8945 L183.5,1185.8945 A2.5,2.5 0 0 1 181,1183.3945 L181,853.3945 A2.5,2.5 0 0 1 183.5,850.8945 " fill="none" style="stroke:#000000;stroke-width:1.5;"/><line style="stroke:#000000;stroke-width:1.5;" x1="181" x2="565" y1="882.0508" y2="882.0508"/><text fill="#000000" font-family="sans-serif" font-size="20" font-weight="bold" lengthAdjust="spacing" textLength="371" x="185" y="873.6563">«aggregate» Requirement Specification</text></g><!--cluster <<aggregate>> Job Opening--><g id="cluster_&lt;&lt;aggregate&gt;&gt; Job Opening"><path d="M913.5,428.8945 L1158.5,428.8945 A3.75,3.75 0 0 1 1161,431.3945 L1168,460.0508 L2303.5,460.0508 A2.5,2.5 0 0 1 2306,462.5508 L2306,1001.3945 A2.5,2.5 0 0 1 2303.5,1003.8945 L913.5,1003.8945 A2.5,2.5 0 0 1 911,1001.3945 L911,431.3945 A2.5,2.5 0 0 1 913.5,428.8945 " fill="none" style="stroke:#000000;stroke-width:1.5;"/><line style="stroke:#000000;stroke-width:1.5;" x1="911" x2="1168" y1="460.0508" y2="460.0508"/><text fill="#000000" font-family="sans-serif" font-size="20" font-weight="bold" lengthAdjust="spacing" textLength="244" x="915" y="451.6563">«aggregate» Job Opening</text></g><!--cluster <<aggregate>> Customer Manager--><g id="cluster_&lt;&lt;aggregate&gt;&gt; Customer Manager"><path d="M2269.5,6.8945 L2573.5,6.8945 A3.75,3.75 0 0 1 2576,9.3945 L2583,38.0508 L2583.5,38.0508 A2.5,2.5 0 0 1 2586,40.5508 L2586,157.3945 A2.5,2.5 0 0 1 2583.5,159.8945 L2269.5,159.8945 A2.5,2.5 0 0 1 2267,157.3945 L2267,9.3945 A2.5,2.5 0 0 1 2269.5,6.8945 " fill="none" style="stroke:#000000;stroke-width:1.5;"/><line style="stroke:#000000;stroke-width:1.5;" x1="2267" x2="2583" y1="38.0508" y2="38.0508"/><text fill="#000000" font-family="sans-serif" font-size="20" font-weight="bold" lengthAdjust="spacing" textLength="303" x="2271" y="29.6563">«aggregate» Customer Manager</text></g><!--cluster <<aggregate>> Customer--><g id="cluster_&lt;&lt;aggregate&gt;&gt; Customer"><path d="M110.5,218.8945 L326.5,218.8945 A3.75,3.75 0 0 1 329,221.3945 L336,250.0508 L506.5,250.0508 A2.5,2.5 0 0 1 509,252.5508 L509,579.3945 A2.5,2.5 0 0 1 506.5,581.8945 L110.5,581.8945 A2.5,2.5 0 0 1 108,579.3945 L108,221.3945 A2.5,2.5 0 0 1 110.5,218.8945 " fill="none" style="stroke:#000000;stroke-width:1.5;"/><line style="stroke:#000000;stroke-width:1.5;" x1="108" x2="336" y1="250.0508" y2="250.0508"/><text fill="#000000" font-family="sans-serif" font-size="20" font-weight="bold" lengthAdjust="spacing" textLength="215" x="112" y="241.6563">«aggregate» Customer</text></g><!--cluster <<aggregate>> Application--><g id="cluster_&lt;&lt;aggregate&gt;&gt; Application"><path d="M2332.5,640.8945 L2561.5,640.8945 A3.75,3.75 0 0 1 2564,643.3945 L2571,672.0508 L3441.5,672.0508 A2.5,2.5 0 0 1 3444,674.5508 L3444,1624.3945 A2.5,2.5 0 0 1 3441.5,1626.8945 L2332.5,1626.8945 A2.5,2.5 0 0 1 2330,1624.3945 L2330,643.3945 A2.5,2.5 0 0 1 2332.5,640.8945 " fill="none" style="stroke:#000000;stroke-width:1.5;"/><line style="stroke:#000000;stroke-width:1.5;" x1="2330" x2="2571" y1="672.0508" y2="672.0508"/><text fill="#000000" font-family="sans-serif" font-size="20" font-weight="bold" lengthAdjust="spacing" textLength="228" x="2334" y="663.6563">«aggregate» Application</text></g><!--cluster <<aggregate>> Candidate--><g id="cluster_&lt;&lt;aggregate&gt;&gt; Candidate"><path d="M3470.5,218.8945 L3689.5,218.8945 A3.75,3.75 0 0 1 3692,221.3945 L3699,250.0508 L3951.5,250.0508 A2.5,2.5 0 0 1 3954,252.5508 L3954,778.8945 A2.5,2.5 0 0 1 3951.5,781.3945 L3470.5,781.3945 A2.5,2.5 0 0 1 3468,778.8945 L3468,221.3945 A2.5,2.5 0 0 1 3470.5,218.8945 " fill="none" style="stroke:#000000;stroke-width:1.5;"/><line style="stroke:#000000;stroke-width:1.5;" x1="3468" x2="3699" y1="250.0508" y2="250.0508"/><text fill="#000000" font-family="sans-serif" font-size="20" font-weight="bold" lengthAdjust="spacing" textLength="218" x="3472" y="241.6563">«aggregate» Candidate</text></g><!--class RequirementSpecification--><g id="elem_RequirementSpecification"><rect codeLine="16" fill="#F5F5DC" height="93.4688" id="RequirementSpecification" rx="2.5" ry="2.5" style="stroke:#181818;stroke-width:0.5;" width="256" x="493" y="894.8945"/><ellipse cx="509" cy="937.6289" fill="#ADD1B2" rx="12" ry="12" style="stroke:#181818;stroke-width:1.0;"/><path d="M506.9531,938.6914 L506.9531,941.6289 L512.0469,941.6289 L512.0469,940.5352 Q512.0469,939.8164 512.3281,939.5195 Q512.6094,939.207 513.0625,939.207 Q513.5,939.207 513.7813,939.5195 Q514.0625,939.8164 514.0625,940.5352 L514.0625,943.6289 L504.625,943.6289 Q503.9063,943.6289 503.5938,943.3477 Q503.2969,943.0664 503.2969,942.6289 Q503.2969,942.1758 503.6094,941.9102 Q503.9219,941.6289 504.625,941.6289 L504.9375,941.6289 L504.9375,933.8008 L504.625,933.8008 Q503.9063,933.8008 503.5938,933.5195 Q503.2969,933.2383 503.2969,932.7852 Q503.2969,932.332 503.5938,932.0664 Q503.9063,931.7852 504.625,931.7852 L513.6094,931.7852 L513.6094,934.832 Q513.6094,935.5508 513.3281,935.8633 Q513.0625,936.1602 512.625,936.1602 Q512.1719,936.1602 511.8906,935.8633 Q511.6094,935.5664 511.6094,934.832 L511.6094,933.8008 L506.9531,933.8008 L506.9531,936.6914 L508.7031,936.6914 Q508.7031,935.9102 508.8438,935.6758 Q509.1563,935.207 509.7031,935.207 Q510.1563,935.207 510.4219,935.5195 Q510.7031,935.8164 510.7031,936.5352 L510.7031,938.8477 Q510.7031,939.5039 510.5469,939.7227 Q510.2344,940.1758 509.7031,940.1758 Q509.1563,940.1758 508.8438,939.707 Q508.7031,939.4727 508.7031,938.6914 L506.9531,938.6914 Z " fill="#000000"/><text fill="#000000" font-family="sans-serif" font-size="20" font-style="italic" lengthAdjust="spacing" textLength="69" x="600.5" y="920.6563">«entity»</text><text fill="#000000" font-family="sans-serif" font-size="20" font-style="italic" lengthAdjust="spacing" textLength="56" x="607" y="945.8125">«root»</text><text fill="#000000" font-family="sans-serif" font-size="20" lengthAdjust="spacing" textLength="222" x="524" y="970.9688">RequirementSpecification</text><line style="stroke:#181818;stroke-width:0.5;" x1="494" x2="748" y1="980.3633" y2="980.3633"/></g><!--class RequirementName--><g id="elem_RequirementName"><rect codeLine="17" fill="#F5F5DC" height="93.4688" id="RequirementName" rx="2.5" ry="2.5" style="stroke:#181818;stroke-width:0.5;" width="196" x="396" y="1076.8945"/><ellipse cx="412" cy="1119.6289" fill="#FF8B40" rx="12" ry="12" style="stroke:#181818;stroke-width:1.0;"/><path d="M412.5,1123.707 L415.3906,1116.8008 L414.9375,1116.8008 Q414.2188,1116.8008 413.9063,1116.5195 Q413.5938,1116.2383 413.5938,1115.7852 Q413.5938,1115.332 413.9063,1115.0664 Q414.2188,1114.7852 414.9375,1114.7852 L417.625,1114.7852 Q418.3438,1114.7852 418.6563,1115.0664 Q418.9688,1115.332 418.9688,1115.7852 Q418.9688,1116.332 418.5,1116.6445 Q418.2656,1116.8008 417.5781,1116.8008 L413.4688,1126.6289 L411.5469,1126.6289 L407.4375,1116.8008 Q406.7344,1116.8008 406.5156,1116.6445 Q406.0469,1116.332 406.0469,1115.7852 Q406.0469,1115.332 406.3594,1115.0664 Q406.6563,1114.7852 407.375,1114.7852 L410.0781,1114.7852 Q410.7969,1114.7852 411.0938,1115.0664 Q411.4063,1115.332 411.4063,1115.7852 Q411.4063,1116.2383 411.1094,1116.5195 Q410.8125,1116.8008 410.0781,1116.8008 L409.6094,1116.8008 L412.5,1123.707 Z " fill="#000000"/><text fill="#000000" font-family="sans-serif" font-size="20" font-style="italic" lengthAdjust="spacing" textLength="128" x="444" y="1102.6563">«value object»</text><text fill="#000000" font-family="sans-serif" font-size="20" font-style="italic" lengthAdjust="spacing" textLength="99" x="458.5" y="1127.8125">«identifier»</text><text fill="#000000" font-family="sans-serif" font-size="20" lengthAdjust="spacing" textLength="162" x="427" y="1152.9688">RequirementName</text><line style="stroke:#181818;stroke-width:0.5;" x1="397" x2="591" y1="1162.3633" y2="1162.3633"/></g><!--class RequirementDescription--><g id="elem_RequirementDescription"><rect codeLine="18" fill="#F5F5DC" height="68.3125" id="RequirementDescription" rx="2.5" ry="2.5" style="stroke:#181818;stroke-width:0.5;" width="243" x="627.5" y="1089.3945"/><ellipse cx="643.5" cy="1119.5508" fill="#FF8B40" rx="12" ry="12" style="stroke:#181818;stroke-width:1.0;"/><path d="M644,1123.6289 L646.8906,1116.7227 L646.4375,1116.7227 Q645.7188,1116.7227 645.4063,1116.4414 Q645.0938,1116.1602 645.0938,1115.707 Q645.0938,1115.2539 645.4063,1114.9883 Q645.7188,1114.707 646.4375,1114.707 L649.125,1114.707 Q649.8438,1114.707 650.1563,1114.9883 Q650.4688,1115.2539 650.4688,1115.707 Q650.4688,1116.2539 650,1116.5664 Q649.7656,1116.7227 649.0781,1116.7227 L644.9688,1126.5508 L643.0469,1126.5508 L638.9375,1116.7227 Q638.2344,1116.7227 638.0156,1116.5664 Q637.5469,1116.2539 637.5469,1115.707 Q637.5469,1115.2539 637.8594,1114.9883 Q638.1563,1114.707 638.875,1114.707 L641.5781,1114.707 Q642.2969,1114.707 642.5938,1114.9883 Q642.9063,1115.2539 642.9063,1115.707 Q642.9063,1116.1602 642.6094,1116.4414 Q642.3125,1116.7227 641.5781,1116.7227 L641.1094,1116.7227 L644,1123.6289 Z " fill="#000000"/><text fill="#000000" font-family="sans-serif" font-size="20" font-style="italic" lengthAdjust="spacing" textLength="128" x="699" y="1115.1563">«value object»</text><text fill="#000000" font-family="sans-serif" font-size="20" lengthAdjust="spacing" textLength="209" x="658.5" y="1140.3125">RequirementDescription</text><line style="stroke:#181818;stroke-width:0.5;" x1="628.5" x2="869.5" y1="1149.707" y2="1149.707"/></g><!--class FullClassName--><g id="elem_FullClassName"><rect codeLine="19" fill="#F5F5DC" height="68.3125" id="FullClassName" rx="2.5" ry="2.5" style="stroke:#181818;stroke-width:0.5;" width="164" x="197" y="1089.3945"/><ellipse cx="213" cy="1119.5508" fill="#FF8B40" rx="12" ry="12" style="stroke:#181818;stroke-width:1.0;"/><path d="M213.5,1123.6289 L216.3906,1116.7227 L215.9375,1116.7227 Q215.2188,1116.7227 214.9063,1116.4414 Q214.5938,1116.1602 214.5938,1115.707 Q214.5938,1115.2539 214.9063,1114.9883 Q215.2188,1114.707 215.9375,1114.707 L218.625,1114.707 Q219.3438,1114.707 219.6563,1114.9883 Q219.9688,1115.2539 219.9688,1115.707 Q219.9688,1116.2539 219.5,1116.5664 Q219.2656,1116.7227 218.5781,1116.7227 L214.4688,1126.5508 L212.5469,1126.5508 L208.4375,1116.7227 Q207.7344,1116.7227 207.5156,1116.5664 Q207.0469,1116.2539 207.0469,1115.707 Q207.0469,1115.2539 207.3594,1114.9883 Q207.6563,1114.707 208.375,1114.707 L211.0781,1114.707 Q211.7969,1114.707 212.0938,1114.9883 Q212.4063,1115.2539 212.4063,1115.707 Q212.4063,1116.1602 212.1094,1116.4414 Q211.8125,1116.7227 211.0781,1116.7227 L210.6094,1116.7227 L213.5,1123.6289 Z " fill="#000000"/><text fill="#000000" font-family="sans-serif" font-size="20" font-style="italic" lengthAdjust="spacing" textLength="128" x="229" y="1115.1563">«value object»</text><text fill="#000000" font-family="sans-serif" font-size="20" lengthAdjust="spacing" textLength="130" x="228" y="1140.3125">FullClassName</text><line style="stroke:#181818;stroke-width:0.5;" x1="198" x2="360" y1="1149.707" y2="1149.707"/></g><!--class JobOpening--><g id="elem_JobOpening"><rect codeLine="23" fill="#F5F5DC" height="93.4688" id="JobOpening" rx="2.5" ry="2.5" style="stroke:#181818;stroke-width:0.5;" width="139" x="1593.5" y="472.8945"/><ellipse cx="1609.5" cy="515.6289" fill="#ADD1B2" rx="12" ry="12" style="stroke:#181818;stroke-width:1.0;"/><path d="M1607.4531,516.6914 L1607.4531,519.6289 L1612.5469,519.6289 L1612.5469,518.5352 Q1612.5469,517.8164 1612.8281,517.5195 Q1613.1094,517.207 1613.5625,517.207 Q1614,517.207 1614.2813,517.5195 Q1614.5625,517.8164 1614.5625,518.5352 L1614.5625,521.6289 L1605.125,521.6289 Q1604.4063,521.6289 1604.0938,521.3477 Q1603.7969,521.0664 1603.7969,520.6289 Q1603.7969,520.1758 1604.1094,519.9102 Q1604.4219,519.6289 1605.125,519.6289 L1605.4375,519.6289 L1605.4375,511.8008 L1605.125,511.8008 Q1604.4063,511.8008 1604.0938,511.5195 Q1603.7969,511.2383 1603.7969,510.7852 Q1603.7969,510.332 1604.0938,510.0664 Q1604.4063,509.7852 1605.125,509.7852 L1614.1094,509.7852 L1614.1094,512.832 Q1614.1094,513.5508 1613.8281,513.8633 Q1613.5625,514.1602 1613.125,514.1602 Q1612.6719,514.1602 1612.3906,513.8633 Q1612.1094,513.5664 1612.1094,512.832 L1612.1094,511.8008 L1607.4531,511.8008 L1607.4531,514.6914 L1609.2031,514.6914 Q1609.2031,513.9102 1609.3438,513.6758 Q1609.6563,513.207 1610.2031,513.207 Q1610.6563,513.207 1610.9219,513.5195 Q1611.2031,513.8164 1611.2031,514.5352 L1611.2031,516.8477 Q1611.2031,517.5039 1611.0469,517.7227 Q1610.7344,518.1758 1610.2031,518.1758 Q1609.6563,518.1758 1609.3438,517.707 Q1609.2031,517.4727 1609.2031,516.6914 L1607.4531,516.6914 Z " fill="#000000"/><text fill="#000000" font-family="sans-serif" font-size="20" font-style="italic" lengthAdjust="spacing" textLength="69" x="1642.5" y="498.6563">«entity»</text><text fill="#000000" font-family="sans-serif" font-size="20" font-style="italic" lengthAdjust="spacing" textLength="56" x="1649" y="523.8125">«root»</text><text fill="#000000" font-family="sans-serif" font-size="20" lengthAdjust="spacing" textLength="105" x="1624.5" y="548.9688">JobOpening</text><line style="stroke:#181818;stroke-width:0.5;" x1="1594.5" x2="1731.5" y1="558.3633" y2="558.3633"/></g><!--class JobFunction--><g id="elem_JobFunction"><rect codeLine="24" fill="#F5F5DC" height="68.3125" id="JobFunction" rx="2.5" ry="2.5" style="stroke:#181818;stroke-width:0.5;" width="158" x="927" y="697.3945"/><ellipse cx="943" cy="727.5508" fill="#FF8B40" rx="12" ry="12" style="stroke:#181818;stroke-width:1.0;"/><path d="M943.5,731.6289 L946.3906,724.7227 L945.9375,724.7227 Q945.2188,724.7227 944.9063,724.4414 Q944.5938,724.1602 944.5938,723.707 Q944.5938,723.2539 944.9063,722.9883 Q945.2188,722.707 945.9375,722.707 L948.625,722.707 Q949.3438,722.707 949.6563,722.9883 Q949.9688,723.2539 949.9688,723.707 Q949.9688,724.2539 949.5,724.5664 Q949.2656,724.7227 948.5781,724.7227 L944.4688,734.5508 L942.5469,734.5508 L938.4375,724.7227 Q937.7344,724.7227 937.5156,724.5664 Q937.0469,724.2539 937.0469,723.707 Q937.0469,723.2539 937.3594,722.9883 Q937.6563,722.707 938.375,722.707 L941.0781,722.707 Q941.7969,722.707 942.0938,722.9883 Q942.4063,723.2539 942.4063,723.707 Q942.4063,724.1602 942.1094,724.4414 Q941.8125,724.7227 941.0781,724.7227 L940.6094,724.7227 L943.5,731.6289 Z " fill="#000000"/><text fill="#000000" font-family="sans-serif" font-size="20" font-style="italic" lengthAdjust="spacing" textLength="128" x="956" y="723.1563">«value object»</text><text fill="#000000" font-family="sans-serif" font-size="20" lengthAdjust="spacing" textLength="105" x="967.5" y="748.3125">JobFunction</text><line style="stroke:#181818;stroke-width:0.5;" x1="928" x2="1084" y1="757.707" y2="757.707"/></g><!--class JobOpeningStatus--><g id="elem_JobOpeningStatus"><rect codeLine="25" fill="#F5F5DC" height="68.3125" id="JobOpeningStatus" rx="2.5" ry="2.5" style="stroke:#181818;stroke-width:0.5;" width="195" x="1120.5" y="697.3945"/><ellipse cx="1136.5" cy="727.5508" fill="#FF8B40" rx="12" ry="12" style="stroke:#181818;stroke-width:1.0;"/><path d="M1137,731.6289 L1139.8906,724.7227 L1139.4375,724.7227 Q1138.7188,724.7227 1138.4063,724.4414 Q1138.0938,724.1602 1138.0938,723.707 Q1138.0938,723.2539 1138.4063,722.9883 Q1138.7188,722.707 1139.4375,722.707 L1142.125,722.707 Q1142.8438,722.707 1143.1563,722.9883 Q1143.4688,723.2539 1143.4688,723.707 Q1143.4688,724.2539 1143,724.5664 Q1142.7656,724.7227 1142.0781,724.7227 L1137.9688,734.5508 L1136.0469,734.5508 L1131.9375,724.7227 Q1131.2344,724.7227 1131.0156,724.5664 Q1130.5469,724.2539 1130.5469,723.707 Q1130.5469,723.2539 1130.8594,722.9883 Q1131.1563,722.707 1131.875,722.707 L1134.5781,722.707 Q1135.2969,722.707 1135.5938,722.9883 Q1135.9063,723.2539 1135.9063,723.707 Q1135.9063,724.1602 1135.6094,724.4414 Q1135.3125,724.7227 1134.5781,724.7227 L1134.1094,724.7227 L1137,731.6289 Z " fill="#000000"/><text fill="#000000" font-family="sans-serif" font-size="20" font-style="italic" lengthAdjust="spacing" textLength="128" x="1168" y="723.1563">«value object»</text><text fill="#000000" font-family="sans-serif" font-size="20" lengthAdjust="spacing" textLength="161" x="1151.5" y="748.3125">JobOpeningStatus</text><line style="stroke:#181818;stroke-width:0.5;" x1="1121.5" x2="1314.5" y1="757.707" y2="757.707"/></g><!--class ContractType--><g id="elem_ContractType"><rect codeLine="26" fill="#F5F5DC" height="68.3125" id="ContractType" rx="2.5" ry="2.5" style="stroke:#181818;stroke-width:0.5;" width="158" x="1307" y="907.3945"/><ellipse cx="1323" cy="937.5508" fill="#FF8B40" rx="12" ry="12" style="stroke:#181818;stroke-width:1.0;"/><path d="M1323.5,941.6289 L1326.3906,934.7227 L1325.9375,934.7227 Q1325.2188,934.7227 1324.9063,934.4414 Q1324.5938,934.1602 1324.5938,933.707 Q1324.5938,933.2539 1324.9063,932.9883 Q1325.2188,932.707 1325.9375,932.707 L1328.625,932.707 Q1329.3438,932.707 1329.6563,932.9883 Q1329.9688,933.2539 1329.9688,933.707 Q1329.9688,934.2539 1329.5,934.5664 Q1329.2656,934.7227 1328.5781,934.7227 L1324.4688,944.5508 L1322.5469,944.5508 L1318.4375,934.7227 Q1317.7344,934.7227 1317.5156,934.5664 Q1317.0469,934.2539 1317.0469,933.707 Q1317.0469,933.2539 1317.3594,932.9883 Q1317.6563,932.707 1318.375,932.707 L1321.0781,932.707 Q1321.7969,932.707 1322.0938,932.9883 Q1322.4063,933.2539 1322.4063,933.707 Q1322.4063,934.1602 1322.1094,934.4414 Q1321.8125,934.7227 1321.0781,934.7227 L1320.6094,934.7227 L1323.5,941.6289 Z " fill="#000000"/><text fill="#000000" font-family="sans-serif" font-size="20" font-style="italic" lengthAdjust="spacing" textLength="128" x="1336" y="933.1563">«value object»</text><text fill="#000000" font-family="sans-serif" font-size="20" lengthAdjust="spacing" textLength="119" x="1340.5" y="958.3125">ContractType</text><line style="stroke:#181818;stroke-width:0.5;" x1="1308" x2="1464" y1="967.707" y2="967.707"/></g><!--class Mode--><g id="elem_Mode"><rect codeLine="27" fill="#F5F5DC" height="68.3125" id="Mode" rx="2.5" ry="2.5" style="stroke:#181818;stroke-width:0.5;" width="158" x="1493" y="697.3945"/><ellipse cx="1509" cy="727.5508" fill="#FF8B40" rx="12" ry="12" style="stroke:#181818;stroke-width:1.0;"/><path d="M1509.5,731.6289 L1512.3906,724.7227 L1511.9375,724.7227 Q1511.2188,724.7227 1510.9063,724.4414 Q1510.5938,724.1602 1510.5938,723.707 Q1510.5938,723.2539 1510.9063,722.9883 Q1511.2188,722.707 1511.9375,722.707 L1514.625,722.707 Q1515.3438,722.707 1515.6563,722.9883 Q1515.9688,723.2539 1515.9688,723.707 Q1515.9688,724.2539 1515.5,724.5664 Q1515.2656,724.7227 1514.5781,724.7227 L1510.4688,734.5508 L1508.5469,734.5508 L1504.4375,724.7227 Q1503.7344,724.7227 1503.5156,724.5664 Q1503.0469,724.2539 1503.0469,723.707 Q1503.0469,723.2539 1503.3594,722.9883 Q1503.6563,722.707 1504.375,722.707 L1507.0781,722.707 Q1507.7969,722.707 1508.0938,722.9883 Q1508.4063,723.2539 1508.4063,723.707 Q1508.4063,724.1602 1508.1094,724.4414 Q1507.8125,724.7227 1507.0781,724.7227 L1506.6094,724.7227 L1509.5,731.6289 Z " fill="#000000"/><text fill="#000000" font-family="sans-serif" font-size="20" font-style="italic" lengthAdjust="spacing" textLength="128" x="1522" y="723.1563">«value object»</text><text fill="#000000" font-family="sans-serif" font-size="20" lengthAdjust="spacing" textLength="50" x="1561" y="748.3125">Mode</text><line style="stroke:#181818;stroke-width:0.5;" x1="1494" x2="1650" y1="757.707" y2="757.707"/></g><!--class NumberVacancy--><g id="elem_NumberVacancy"><rect codeLine="28" fill="#F5F5DC" height="68.3125" id="NumberVacancy" rx="2.5" ry="2.5" style="stroke:#181818;stroke-width:0.5;" width="177" x="1686.5" y="697.3945"/><ellipse cx="1702.5" cy="727.5508" fill="#FF8B40" rx="12" ry="12" style="stroke:#181818;stroke-width:1.0;"/><path d="M1703,731.6289 L1705.8906,724.7227 L1705.4375,724.7227 Q1704.7188,724.7227 1704.4063,724.4414 Q1704.0938,724.1602 1704.0938,723.707 Q1704.0938,723.2539 1704.4063,722.9883 Q1704.7188,722.707 1705.4375,722.707 L1708.125,722.707 Q1708.8438,722.707 1709.1563,722.9883 Q1709.4688,723.2539 1709.4688,723.707 Q1709.4688,724.2539 1709,724.5664 Q1708.7656,724.7227 1708.0781,724.7227 L1703.9688,734.5508 L1702.0469,734.5508 L1697.9375,724.7227 Q1697.2344,724.7227 1697.0156,724.5664 Q1696.5469,724.2539 1696.5469,723.707 Q1696.5469,723.2539 1696.8594,722.9883 Q1697.1563,722.707 1697.875,722.707 L1700.5781,722.707 Q1701.2969,722.707 1701.5938,722.9883 Q1701.9063,723.2539 1701.9063,723.707 Q1701.9063,724.1602 1701.6094,724.4414 Q1701.3125,724.7227 1700.5781,724.7227 L1700.1094,724.7227 L1703,731.6289 Z " fill="#000000"/><text fill="#000000" font-family="sans-serif" font-size="20" font-style="italic" lengthAdjust="spacing" textLength="128" x="1725" y="723.1563">«value object»</text><text fill="#000000" font-family="sans-serif" font-size="20" lengthAdjust="spacing" textLength="143" x="1717.5" y="748.3125">NumberVacancy</text><line style="stroke:#181818;stroke-width:0.5;" x1="1687.5" x2="1862.5" y1="757.707" y2="757.707"/></g><!--class Description--><g id="elem_Description"><rect codeLine="29" fill="#F5F5DC" height="68.3125" id="Description" rx="2.5" ry="2.5" style="stroke:#181818;stroke-width:0.5;" width="158" x="1746" y="907.3945"/><ellipse cx="1762" cy="937.5508" fill="#FF8B40" rx="12" ry="12" style="stroke:#181818;stroke-width:1.0;"/><path d="M1762.5,941.6289 L1765.3906,934.7227 L1764.9375,934.7227 Q1764.2188,934.7227 1763.9063,934.4414 Q1763.5938,934.1602 1763.5938,933.707 Q1763.5938,933.2539 1763.9063,932.9883 Q1764.2188,932.707 1764.9375,932.707 L1767.625,932.707 Q1768.3438,932.707 1768.6563,932.9883 Q1768.9688,933.2539 1768.9688,933.707 Q1768.9688,934.2539 1768.5,934.5664 Q1768.2656,934.7227 1767.5781,934.7227 L1763.4688,944.5508 L1761.5469,944.5508 L1757.4375,934.7227 Q1756.7344,934.7227 1756.5156,934.5664 Q1756.0469,934.2539 1756.0469,933.707 Q1756.0469,933.2539 1756.3594,932.9883 Q1756.6563,932.707 1757.375,932.707 L1760.0781,932.707 Q1760.7969,932.707 1761.0938,932.9883 Q1761.4063,933.2539 1761.4063,933.707 Q1761.4063,934.1602 1761.1094,934.4414 Q1760.8125,934.7227 1760.0781,934.7227 L1759.6094,934.7227 L1762.5,941.6289 Z " fill="#000000"/><text fill="#000000" font-family="sans-serif" font-size="20" font-style="italic" lengthAdjust="spacing" textLength="128" x="1775" y="933.1563">«value object»</text><text fill="#000000" font-family="sans-serif" font-size="20" lengthAdjust="spacing" textLength="98" x="1790" y="958.3125">Description</text><line style="stroke:#181818;stroke-width:0.5;" x1="1747" x2="1903" y1="967.707" y2="967.707"/></g><!--class JobReference--><g id="elem_JobReference"><rect codeLine="30" fill="#F5F5DC" height="93.4688" id="JobReference" rx="2.5" ry="2.5" style="stroke:#181818;stroke-width:0.5;" width="158" x="1939" y="894.8945"/><ellipse cx="1955" cy="937.6289" fill="#FF8B40" rx="12" ry="12" style="stroke:#181818;stroke-width:1.0;"/><path d="M1955.5,941.707 L1958.3906,934.8008 L1957.9375,934.8008 Q1957.2188,934.8008 1956.9063,934.5195 Q1956.5938,934.2383 1956.5938,933.7852 Q1956.5938,933.332 1956.9063,933.0664 Q1957.2188,932.7852 1957.9375,932.7852 L1960.625,932.7852 Q1961.3438,932.7852 1961.6563,933.0664 Q1961.9688,933.332 1961.9688,933.7852 Q1961.9688,934.332 1961.5,934.6445 Q1961.2656,934.8008 1960.5781,934.8008 L1956.4688,944.6289 L1954.5469,944.6289 L1950.4375,934.8008 Q1949.7344,934.8008 1949.5156,934.6445 Q1949.0469,934.332 1949.0469,933.7852 Q1949.0469,933.332 1949.3594,933.0664 Q1949.6563,932.7852 1950.375,932.7852 L1953.0781,932.7852 Q1953.7969,932.7852 1954.0938,933.0664 Q1954.4063,933.332 1954.4063,933.7852 Q1954.4063,934.2383 1954.1094,934.5195 Q1953.8125,934.8008 1953.0781,934.8008 L1952.6094,934.8008 L1955.5,941.707 Z " fill="#000000"/><text fill="#000000" font-family="sans-serif" font-size="20" font-style="italic" lengthAdjust="spacing" textLength="128" x="1968" y="920.6563">«value object»</text><text fill="#000000" font-family="sans-serif" font-size="20" font-style="italic" lengthAdjust="spacing" textLength="99" x="1982.5" y="945.8125">«identifier»</text><text fill="#000000" font-family="sans-serif" font-size="20" lengthAdjust="spacing" textLength="123" x="1970.5" y="970.9688">JobReference</text><line style="stroke:#181818;stroke-width:0.5;" x1="1940" x2="2096" y1="980.3633" y2="980.3633"/></g><!--class Rank--><g id="elem_Rank"><rect codeLine="31" fill="#F5F5DC" height="68.3125" id="Rank" rx="2.5" ry="2.5" style="stroke:#181818;stroke-width:0.5;" width="158" x="2132" y="907.3945"/><ellipse cx="2148" cy="937.5508" fill="#FF8B40" rx="12" ry="12" style="stroke:#181818;stroke-width:1.0;"/><path d="M2148.5,941.6289 L2151.3906,934.7227 L2150.9375,934.7227 Q2150.2188,934.7227 2149.9063,934.4414 Q2149.5938,934.1602 2149.5938,933.707 Q2149.5938,933.2539 2149.9063,932.9883 Q2150.2188,932.707 2150.9375,932.707 L2153.625,932.707 Q2154.3438,932.707 2154.6563,932.9883 Q2154.9688,933.2539 2154.9688,933.707 Q2154.9688,934.2539 2154.5,934.5664 Q2154.2656,934.7227 2153.5781,934.7227 L2149.4688,944.5508 L2147.5469,944.5508 L2143.4375,934.7227 Q2142.7344,934.7227 2142.5156,934.5664 Q2142.0469,934.2539 2142.0469,933.707 Q2142.0469,933.2539 2142.3594,932.9883 Q2142.6563,932.707 2143.375,932.707 L2146.0781,932.707 Q2146.7969,932.707 2147.0938,932.9883 Q2147.4063,933.2539 2147.4063,933.707 Q2147.4063,934.1602 2147.1094,934.4414 Q2146.8125,934.7227 2146.0781,934.7227 L2145.6094,934.7227 L2148.5,941.6289 Z " fill="#000000"/><text fill="#000000" font-family="sans-serif" font-size="20" font-style="italic" lengthAdjust="spacing" textLength="128" x="2161" y="933.1563">«value object»</text><text fill="#000000" font-family="sans-serif" font-size="20" lengthAdjust="spacing" textLength="45" x="2202.5" y="958.3125">Rank</text><line style="stroke:#181818;stroke-width:0.5;" x1="2133" x2="2289" y1="967.707" y2="967.707"/></g><!--class CustomerManager--><g id="elem_CustomerManager"><rect codeLine="35" fill="#F5F5DC" height="93.4688" id="CustomerManager" rx="2.5" ry="2.5" style="stroke:#181818;stroke-width:0.5;" width="197" x="2327.5" y="50.8945"/><ellipse cx="2343.5" cy="93.6289" fill="#ADD1B2" rx="12" ry="12" style="stroke:#181818;stroke-width:1.0;"/><path d="M2341.4531,94.6914 L2341.4531,97.6289 L2346.5469,97.6289 L2346.5469,96.5352 Q2346.5469,95.8164 2346.8281,95.5195 Q2347.1094,95.207 2347.5625,95.207 Q2348,95.207 2348.2813,95.5195 Q2348.5625,95.8164 2348.5625,96.5352 L2348.5625,99.6289 L2339.125,99.6289 Q2338.4063,99.6289 2338.0938,99.3477 Q2337.7969,99.0664 2337.7969,98.6289 Q2337.7969,98.1758 2338.1094,97.9102 Q2338.4219,97.6289 2339.125,97.6289 L2339.4375,97.6289 L2339.4375,89.8008 L2339.125,89.8008 Q2338.4063,89.8008 2338.0938,89.5195 Q2337.7969,89.2383 2337.7969,88.7852 Q2337.7969,88.332 2338.0938,88.0664 Q2338.4063,87.7852 2339.125,87.7852 L2348.1094,87.7852 L2348.1094,90.832 Q2348.1094,91.5508 2347.8281,91.8633 Q2347.5625,92.1602 2347.125,92.1602 Q2346.6719,92.1602 2346.3906,91.8633 Q2346.1094,91.5664 2346.1094,90.832 L2346.1094,89.8008 L2341.4531,89.8008 L2341.4531,92.6914 L2343.2031,92.6914 Q2343.2031,91.9102 2343.3438,91.6758 Q2343.6563,91.207 2344.2031,91.207 Q2344.6563,91.207 2344.9219,91.5195 Q2345.2031,91.8164 2345.2031,92.5352 L2345.2031,94.8477 Q2345.2031,95.5039 2345.0469,95.7227 Q2344.7344,96.1758 2344.2031,96.1758 Q2343.6563,96.1758 2343.3438,95.707 Q2343.2031,95.4727 2343.2031,94.6914 L2341.4531,94.6914 Z " fill="#000000"/><text fill="#000000" font-family="sans-serif" font-size="20" font-style="italic" lengthAdjust="spacing" textLength="69" x="2405.5" y="76.6563">«entity»</text><text fill="#000000" font-family="sans-serif" font-size="20" font-style="italic" lengthAdjust="spacing" textLength="56" x="2412" y="101.8125">«root»</text><text fill="#000000" font-family="sans-serif" font-size="20" lengthAdjust="spacing" textLength="163" x="2358.5" y="126.9688">CustomerManager</text><line style="stroke:#181818;stroke-width:0.5;" x1="2328.5" x2="2523.5" y1="136.3633" y2="136.3633"/></g><!--class Customer--><g id="elem_Customer"><rect codeLine="38" fill="#F5F5DC" height="93.4688" id="Customer" rx="2.5" ry="2.5" style="stroke:#181818;stroke-width:0.5;" width="119" x="373.5" y="262.8945"/><ellipse cx="389.5" cy="305.6289" fill="#ADD1B2" rx="12" ry="12" style="stroke:#181818;stroke-width:1.0;"/><path d="M387.4531,306.6914 L387.4531,309.6289 L392.5469,309.6289 L392.5469,308.5352 Q392.5469,307.8164 392.8281,307.5195 Q393.1094,307.207 393.5625,307.207 Q394,307.207 394.2813,307.5195 Q394.5625,307.8164 394.5625,308.5352 L394.5625,311.6289 L385.125,311.6289 Q384.4063,311.6289 384.0938,311.3477 Q383.7969,311.0664 383.7969,310.6289 Q383.7969,310.1758 384.1094,309.9102 Q384.4219,309.6289 385.125,309.6289 L385.4375,309.6289 L385.4375,301.8008 L385.125,301.8008 Q384.4063,301.8008 384.0938,301.5195 Q383.7969,301.2383 383.7969,300.7852 Q383.7969,300.332 384.0938,300.0664 Q384.4063,299.7852 385.125,299.7852 L394.1094,299.7852 L394.1094,302.832 Q394.1094,303.5508 393.8281,303.8633 Q393.5625,304.1602 393.125,304.1602 Q392.6719,304.1602 392.3906,303.8633 Q392.1094,303.5664 392.1094,302.832 L392.1094,301.8008 L387.4531,301.8008 L387.4531,304.6914 L389.2031,304.6914 Q389.2031,303.9102 389.3438,303.6758 Q389.6563,303.207 390.2031,303.207 Q390.6563,303.207 390.9219,303.5195 Q391.2031,303.8164 391.2031,304.5352 L391.2031,306.8477 Q391.2031,307.5039 391.0469,307.7227 Q390.7344,308.1758 390.2031,308.1758 Q389.6563,308.1758 389.3438,307.707 Q389.2031,307.4727 389.2031,306.6914 L387.4531,306.6914 Z " fill="#000000"/><text fill="#000000" font-family="sans-serif" font-size="20" font-style="italic" lengthAdjust="spacing" textLength="69" x="412.5" y="288.6563">«entity»</text><text fill="#000000" font-family="sans-serif" font-size="20" font-style="italic" lengthAdjust="spacing" textLength="56" x="419" y="313.8125">«root»</text><text fill="#000000" font-family="sans-serif" font-size="20" lengthAdjust="spacing" textLength="85" x="404.5" y="338.9688">Customer</text><line style="stroke:#181818;stroke-width:0.5;" x1="374.5" x2="491.5" y1="348.3633" y2="348.3633"/></g><!--class CustomerCode--><g id="elem_CustomerCode"><rect codeLine="39" fill="#F5F5DC" height="93.4688" id="CustomerCode" rx="2.5" ry="2.5" style="stroke:#181818;stroke-width:0.5;" width="166" x="124" y="472.8945"/><ellipse cx="140" cy="515.6289" fill="#FF8B40" rx="12" ry="12" style="stroke:#181818;stroke-width:1.0;"/><path d="M140.5,519.707 L143.3906,512.8008 L142.9375,512.8008 Q142.2188,512.8008 141.9063,512.5195 Q141.5938,512.2383 141.5938,511.7852 Q141.5938,511.332 141.9063,511.0664 Q142.2188,510.7852 142.9375,510.7852 L145.625,510.7852 Q146.3438,510.7852 146.6563,511.0664 Q146.9688,511.332 146.9688,511.7852 Q146.9688,512.332 146.5,512.6445 Q146.2656,512.8008 145.5781,512.8008 L141.4688,522.6289 L139.5469,522.6289 L135.4375,512.8008 Q134.7344,512.8008 134.5156,512.6445 Q134.0469,512.332 134.0469,511.7852 Q134.0469,511.332 134.3594,511.0664 Q134.6563,510.7852 135.375,510.7852 L138.0781,510.7852 Q138.7969,510.7852 139.0938,511.0664 Q139.4063,511.332 139.4063,511.7852 Q139.4063,512.2383 139.1094,512.5195 Q138.8125,512.8008 138.0781,512.8008 L137.6094,512.8008 L140.5,519.707 Z " fill="#000000"/><text fill="#000000" font-family="sans-serif" font-size="20" font-style="italic" lengthAdjust="spacing" textLength="128" x="157" y="498.6563">«value object»</text><text fill="#000000" font-family="sans-serif" font-size="20" font-style="italic" lengthAdjust="spacing" textLength="99" x="171.5" y="523.8125">«identifier»</text><text fill="#000000" font-family="sans-serif" font-size="20" lengthAdjust="spacing" textLength="132" x="155" y="548.9688">CustomerCode</text><line style="stroke:#181818;stroke-width:0.5;" x1="125" x2="289" y1="558.3633" y2="558.3633"/></g><!--class CompanyName--><g id="elem_CompanyName"><rect codeLine="40" fill="#F5F5DC" height="68.3125" id="CompanyName" rx="2.5" ry="2.5" style="stroke:#181818;stroke-width:0.5;" width="168" x="325" y="485.3945"/><ellipse cx="341" cy="515.5508" fill="#FF8B40" rx="12" ry="12" style="stroke:#181818;stroke-width:1.0;"/><path d="M341.5,519.6289 L344.3906,512.7227 L343.9375,512.7227 Q343.2188,512.7227 342.9063,512.4414 Q342.5938,512.1602 342.5938,511.707 Q342.5938,511.2539 342.9063,510.9883 Q343.2188,510.707 343.9375,510.707 L346.625,510.707 Q347.3438,510.707 347.6563,510.9883 Q347.9688,511.2539 347.9688,511.707 Q347.9688,512.2539 347.5,512.5664 Q347.2656,512.7227 346.5781,512.7227 L342.4688,522.5508 L340.5469,522.5508 L336.4375,512.7227 Q335.7344,512.7227 335.5156,512.5664 Q335.0469,512.2539 335.0469,511.707 Q335.0469,511.2539 335.3594,510.9883 Q335.6563,510.707 336.375,510.707 L339.0781,510.707 Q339.7969,510.707 340.0938,510.9883 Q340.4063,511.2539 340.4063,511.707 Q340.4063,512.1602 340.1094,512.4414 Q339.8125,512.7227 339.0781,512.7227 L338.6094,512.7227 L341.5,519.6289 Z " fill="#000000"/><text fill="#000000" font-family="sans-serif" font-size="20" font-style="italic" lengthAdjust="spacing" textLength="128" x="359" y="511.1563">«value object»</text><text fill="#000000" font-family="sans-serif" font-size="20" lengthAdjust="spacing" textLength="134" x="356" y="536.3125">CompanyName</text><line style="stroke:#181818;stroke-width:0.5;" x1="326" x2="492" y1="545.707" y2="545.707"/></g><!--class Application--><g id="elem_Application"><rect codeLine="45" fill="#F5F5DC" height="93.4688" id="Application" rx="2.5" ry="2.5" style="stroke:#181818;stroke-width:0.5;" width="129" x="2705.5" y="684.8945"/><ellipse cx="2721.5" cy="727.6289" fill="#ADD1B2" rx="12" ry="12" style="stroke:#181818;stroke-width:1.0;"/><path d="M2719.4531,728.6914 L2719.4531,731.6289 L2724.5469,731.6289 L2724.5469,730.5352 Q2724.5469,729.8164 2724.8281,729.5195 Q2725.1094,729.207 2725.5625,729.207 Q2726,729.207 2726.2813,729.5195 Q2726.5625,729.8164 2726.5625,730.5352 L2726.5625,733.6289 L2717.125,733.6289 Q2716.4063,733.6289 2716.0938,733.3477 Q2715.7969,733.0664 2715.7969,732.6289 Q2715.7969,732.1758 2716.1094,731.9102 Q2716.4219,731.6289 2717.125,731.6289 L2717.4375,731.6289 L2717.4375,723.8008 L2717.125,723.8008 Q2716.4063,723.8008 2716.0938,723.5195 Q2715.7969,723.2383 2715.7969,722.7852 Q2715.7969,722.332 2716.0938,722.0664 Q2716.4063,721.7852 2717.125,721.7852 L2726.1094,721.7852 L2726.1094,724.832 Q2726.1094,725.5508 2725.8281,725.8633 Q2725.5625,726.1602 2725.125,726.1602 Q2724.6719,726.1602 2724.3906,725.8633 Q2724.1094,725.5664 2724.1094,724.832 L2724.1094,723.8008 L2719.4531,723.8008 L2719.4531,726.6914 L2721.2031,726.6914 Q2721.2031,725.9102 2721.3438,725.6758 Q2721.6563,725.207 2722.2031,725.207 Q2722.6563,725.207 2722.9219,725.5195 Q2723.2031,725.8164 2723.2031,726.5352 L2723.2031,728.8477 Q2723.2031,729.5039 2723.0469,729.7227 Q2722.7344,730.1758 2722.2031,730.1758 Q2721.6563,730.1758 2721.3438,729.707 Q2721.2031,729.4727 2721.2031,728.6914 L2719.4531,728.6914 Z " fill="#000000"/><text fill="#000000" font-family="sans-serif" font-size="20" font-style="italic" lengthAdjust="spacing" textLength="69" x="2749.5" y="710.6563">«entity»</text><text fill="#000000" font-family="sans-serif" font-size="20" font-style="italic" lengthAdjust="spacing" textLength="56" x="2756" y="735.8125">«root»</text><text fill="#000000" font-family="sans-serif" font-size="20" lengthAdjust="spacing" textLength="95" x="2736.5" y="760.9688">Application</text><line style="stroke:#181818;stroke-width:0.5;" x1="2706.5" x2="2833.5" y1="770.3633" y2="770.3633"/></g><!--class ApplicationDate--><g id="elem_ApplicationDate"><rect codeLine="46" fill="#F5F5DC" height="68.3125" id="ApplicationDate" rx="2.5" ry="2.5" style="stroke:#181818;stroke-width:0.5;" width="171" x="3026.5" y="1089.3945"/><ellipse cx="3042.5" cy="1119.5508" fill="#FF8B40" rx="12" ry="12" style="stroke:#181818;stroke-width:1.0;"/><path d="M3043,1123.6289 L3045.8906,1116.7227 L3045.4375,1116.7227 Q3044.7188,1116.7227 3044.4063,1116.4414 Q3044.0938,1116.1602 3044.0938,1115.707 Q3044.0938,1115.2539 3044.4063,1114.9883 Q3044.7188,1114.707 3045.4375,1114.707 L3048.125,1114.707 Q3048.8438,1114.707 3049.1563,1114.9883 Q3049.4688,1115.2539 3049.4688,1115.707 Q3049.4688,1116.2539 3049,1116.5664 Q3048.7656,1116.7227 3048.0781,1116.7227 L3043.9688,1126.5508 L3042.0469,1126.5508 L3037.9375,1116.7227 Q3037.2344,1116.7227 3037.0156,1116.5664 Q3036.5469,1116.2539 3036.5469,1115.707 Q3036.5469,1115.2539 3036.8594,1114.9883 Q3037.1563,1114.707 3037.875,1114.707 L3040.5781,1114.707 Q3041.2969,1114.707 3041.5938,1114.9883 Q3041.9063,1115.2539 3041.9063,1115.707 Q3041.9063,1116.1602 3041.6094,1116.4414 Q3041.3125,1116.7227 3040.5781,1116.7227 L3040.1094,1116.7227 L3043,1123.6289 Z " fill="#000000"/><text fill="#000000" font-family="sans-serif" font-size="20" font-style="italic" lengthAdjust="spacing" textLength="128" x="3062" y="1115.1563">«value object»</text><text fill="#000000" font-family="sans-serif" font-size="20" lengthAdjust="spacing" textLength="137" x="3057.5" y="1140.3125">ApplicationDate</text><line style="stroke:#181818;stroke-width:0.5;" x1="3027.5" x2="3196.5" y1="1149.707" y2="1149.707"/></g><!--class ApplicationStatus--><g id="elem_ApplicationStatus"><rect codeLine="47" fill="#F5F5DC" height="68.3125" id="ApplicationStatus" rx="2.5" ry="2.5" style="stroke:#181818;stroke-width:0.5;" width="185" x="3242.5" y="907.3945"/><ellipse cx="3258.5" cy="937.5508" fill="#FF8B40" rx="12" ry="12" style="stroke:#181818;stroke-width:1.0;"/><path d="M3259,941.6289 L3261.8906,934.7227 L3261.4375,934.7227 Q3260.7188,934.7227 3260.4063,934.4414 Q3260.0938,934.1602 3260.0938,933.707 Q3260.0938,933.2539 3260.4063,932.9883 Q3260.7188,932.707 3261.4375,932.707 L3264.125,932.707 Q3264.8438,932.707 3265.1563,932.9883 Q3265.4688,933.2539 3265.4688,933.707 Q3265.4688,934.2539 3265,934.5664 Q3264.7656,934.7227 3264.0781,934.7227 L3259.9688,944.5508 L3258.0469,944.5508 L3253.9375,934.7227 Q3253.2344,934.7227 3253.0156,934.5664 Q3252.5469,934.2539 3252.5469,933.707 Q3252.5469,933.2539 3252.8594,932.9883 Q3253.1563,932.707 3253.875,932.707 L3256.5781,932.707 Q3257.2969,932.707 3257.5938,932.9883 Q3257.9063,933.2539 3257.9063,933.707 Q3257.9063,934.1602 3257.6094,934.4414 Q3257.3125,934.7227 3256.5781,934.7227 L3256.1094,934.7227 L3259,941.6289 Z " fill="#000000"/><text fill="#000000" font-family="sans-serif" font-size="20" font-style="italic" lengthAdjust="spacing" textLength="128" x="3285" y="933.1563">«value object»</text><text fill="#000000" font-family="sans-serif" font-size="20" lengthAdjust="spacing" textLength="151" x="3273.5" y="958.3125">ApplicationStatus</text><line style="stroke:#181818;stroke-width:0.5;" x1="3243.5" x2="3426.5" y1="967.707" y2="967.707"/></g><!--class Interview--><g id="elem_Interview"><rect codeLine="48" fill="#F5F5DC" height="68.3125" id="Interview" rx="2.5" ry="2.5" style="stroke:#181818;stroke-width:0.5;" width="158" x="2378" y="1089.3945"/><ellipse cx="2394" cy="1119.5508" fill="#FF8B40" rx="12" ry="12" style="stroke:#181818;stroke-width:1.0;"/><path d="M2394.5,1123.6289 L2397.3906,1116.7227 L2396.9375,1116.7227 Q2396.2188,1116.7227 2395.9063,1116.4414 Q2395.5938,1116.1602 2395.5938,1115.707 Q2395.5938,1115.2539 2395.9063,1114.9883 Q2396.2188,1114.707 2396.9375,1114.707 L2399.625,1114.707 Q2400.3438,1114.707 2400.6563,1114.9883 Q2400.9688,1115.2539 2400.9688,1115.707 Q2400.9688,1116.2539 2400.5,1116.5664 Q2400.2656,1116.7227 2399.5781,1116.7227 L2395.4688,1126.5508 L2393.5469,1126.5508 L2389.4375,1116.7227 Q2388.7344,1116.7227 2388.5156,1116.5664 Q2388.0469,1116.2539 2388.0469,1115.707 Q2388.0469,1115.2539 2388.3594,1114.9883 Q2388.6563,1114.707 2389.375,1114.707 L2392.0781,1114.707 Q2392.7969,1114.707 2393.0938,1114.9883 Q2393.4063,1115.2539 2393.4063,1115.707 Q2393.4063,1116.1602 2393.1094,1116.4414 Q2392.8125,1116.7227 2392.0781,1116.7227 L2391.6094,1116.7227 L2394.5,1123.6289 Z " fill="#000000"/><text fill="#000000" font-family="sans-serif" font-size="20" font-style="italic" lengthAdjust="spacing" textLength="128" x="2407" y="1115.1563">«value object»</text><text fill="#000000" font-family="sans-serif" font-size="20" lengthAdjust="spacing" textLength="79" x="2431.5" y="1140.3125">Interview</text><line style="stroke:#181818;stroke-width:0.5;" x1="2379" x2="2535" y1="1149.707" y2="1149.707"/></g><!--class InterviewAnswer--><g id="elem_InterviewAnswer"><rect codeLine="55" fill="#F5F5DC" height="68.3125" id="InterviewAnswer" rx="2.5" ry="2.5" style="stroke:#181818;stroke-width:0.5;" width="179" x="2835.5" y="1387.8945"/><ellipse cx="2851.5" cy="1418.0508" fill="#FF8B40" rx="12" ry="12" style="stroke:#181818;stroke-width:1.0;"/><path d="M2852,1422.1289 L2854.8906,1415.2227 L2854.4375,1415.2227 Q2853.7188,1415.2227 2853.4063,1414.9414 Q2853.0938,1414.6602 2853.0938,1414.207 Q2853.0938,1413.7539 2853.4063,1413.4883 Q2853.7188,1413.207 2854.4375,1413.207 L2857.125,1413.207 Q2857.8438,1413.207 2858.1563,1413.4883 Q2858.4688,1413.7539 2858.4688,1414.207 Q2858.4688,1414.7539 2858,1415.0664 Q2857.7656,1415.2227 2857.0781,1415.2227 L2852.9688,1425.0508 L2851.0469,1425.0508 L2846.9375,1415.2227 Q2846.2344,1415.2227 2846.0156,1415.0664 Q2845.5469,1414.7539 2845.5469,1414.207 Q2845.5469,1413.7539 2845.8594,1413.4883 Q2846.1563,1413.207 2846.875,1413.207 L2849.5781,1413.207 Q2850.2969,1413.207 2850.5938,1413.4883 Q2850.9063,1413.7539 2850.9063,1414.207 Q2850.9063,1414.6602 2850.6094,1414.9414 Q2850.3125,1415.2227 2849.5781,1415.2227 L2849.1094,1415.2227 L2852,1422.1289 Z " fill="#000000"/><text fill="#000000" font-family="sans-serif" font-size="20" font-style="italic" lengthAdjust="spacing" textLength="128" x="2875" y="1413.6563">«value object»</text><text fill="#000000" font-family="sans-serif" font-size="20" lengthAdjust="spacing" textLength="145" x="2866.5" y="1438.8125">InterviewAnswer</text><line style="stroke:#181818;stroke-width:0.5;" x1="2836.5" x2="3013.5" y1="1448.207" y2="1448.207"/></g><!--class InterviewResult--><g id="elem_InterviewResult"><rect codeLine="50" fill="#F5F5DC" height="68.3125" id="InterviewResult" rx="2.5" ry="2.5" style="stroke:#181818;stroke-width:0.5;" width="168" x="2346" y="1387.8945"/><ellipse cx="2362" cy="1418.0508" fill="#FF8B40" rx="12" ry="12" style="stroke:#181818;stroke-width:1.0;"/><path d="M2362.5,1422.1289 L2365.3906,1415.2227 L2364.9375,1415.2227 Q2364.2188,1415.2227 2363.9063,1414.9414 Q2363.5938,1414.6602 2363.5938,1414.207 Q2363.5938,1413.7539 2363.9063,1413.4883 Q2364.2188,1413.207 2364.9375,1413.207 L2367.625,1413.207 Q2368.3438,1413.207 2368.6563,1413.4883 Q2368.9688,1413.7539 2368.9688,1414.207 Q2368.9688,1414.7539 2368.5,1415.0664 Q2368.2656,1415.2227 2367.5781,1415.2227 L2363.4688,1425.0508 L2361.5469,1425.0508 L2357.4375,1415.2227 Q2356.7344,1415.2227 2356.5156,1415.0664 Q2356.0469,1414.7539 2356.0469,1414.207 Q2356.0469,1413.7539 2356.3594,1413.4883 Q2356.6563,1413.207 2357.375,1413.207 L2360.0781,1413.207 Q2360.7969,1413.207 2361.0938,1413.4883 Q2361.4063,1413.7539 2361.4063,1414.207 Q2361.4063,1414.6602 2361.1094,1414.9414 Q2360.8125,1415.2227 2360.0781,1415.2227 L2359.6094,1415.2227 L2362.5,1422.1289 Z " fill="#000000"/><text fill="#000000" font-family="sans-serif" font-size="20" font-style="italic" lengthAdjust="spacing" textLength="128" x="2380" y="1413.6563">«value object»</text><text fill="#000000" font-family="sans-serif" font-size="20" lengthAdjust="spacing" textLength="134" x="2377" y="1438.8125">InterviewResult</text><line style="stroke:#181818;stroke-width:0.5;" x1="2347" x2="2513" y1="1448.207" y2="1448.207"/></g><!--class Justification--><g id="elem_Justification"><rect codeLine="51" fill="#F5F5DC" height="68.3125" id="Justification" rx="2.5" ry="2.5" style="stroke:#181818;stroke-width:0.5;" width="158" x="2351" y="1542.8945"/><ellipse cx="2367" cy="1573.0508" fill="#FF8B40" rx="12" ry="12" style="stroke:#181818;stroke-width:1.0;"/><path d="M2367.5,1577.1289 L2370.3906,1570.2227 L2369.9375,1570.2227 Q2369.2188,1570.2227 2368.9063,1569.9414 Q2368.5938,1569.6602 2368.5938,1569.207 Q2368.5938,1568.7539 2368.9063,1568.4883 Q2369.2188,1568.207 2369.9375,1568.207 L2372.625,1568.207 Q2373.3438,1568.207 2373.6563,1568.4883 Q2373.9688,1568.7539 2373.9688,1569.207 Q2373.9688,1569.7539 2373.5,1570.0664 Q2373.2656,1570.2227 2372.5781,1570.2227 L2368.4688,1580.0508 L2366.5469,1580.0508 L2362.4375,1570.2227 Q2361.7344,1570.2227 2361.5156,1570.0664 Q2361.0469,1569.7539 2361.0469,1569.207 Q2361.0469,1568.7539 2361.3594,1568.4883 Q2361.6563,1568.207 2362.375,1568.207 L2365.0781,1568.207 Q2365.7969,1568.207 2366.0938,1568.4883 Q2366.4063,1568.7539 2366.4063,1569.207 Q2366.4063,1569.6602 2366.1094,1569.9414 Q2365.8125,1570.2227 2365.0781,1570.2227 L2364.6094,1570.2227 L2367.5,1577.1289 Z " fill="#000000"/><text fill="#000000" font-family="sans-serif" font-size="20" font-style="italic" lengthAdjust="spacing" textLength="128" x="2380" y="1568.6563">«value object»</text><text fill="#000000" font-family="sans-serif" font-size="20" lengthAdjust="spacing" textLength="102" x="2393" y="1593.8125">Justification</text><line style="stroke:#181818;stroke-width:0.5;" x1="2352" x2="2508" y1="1603.207" y2="1603.207"/></g><!--class InterviewGrade--><g id="elem_InterviewGrade"><rect codeLine="52" fill="#F5F5DC" height="68.3125" id="InterviewGrade" rx="2.5" ry="2.5" style="stroke:#181818;stroke-width:0.5;" width="169" x="2631.5" y="1387.8945"/><ellipse cx="2647.5" cy="1418.0508" fill="#FF8B40" rx="12" ry="12" style="stroke:#181818;stroke-width:1.0;"/><path d="M2648,1422.1289 L2650.8906,1415.2227 L2650.4375,1415.2227 Q2649.7188,1415.2227 2649.4063,1414.9414 Q2649.0938,1414.6602 2649.0938,1414.207 Q2649.0938,1413.7539 2649.4063,1413.4883 Q2649.7188,1413.207 2650.4375,1413.207 L2653.125,1413.207 Q2653.8438,1413.207 2654.1563,1413.4883 Q2654.4688,1413.7539 2654.4688,1414.207 Q2654.4688,1414.7539 2654,1415.0664 Q2653.7656,1415.2227 2653.0781,1415.2227 L2648.9688,1425.0508 L2647.0469,1425.0508 L2642.9375,1415.2227 Q2642.2344,1415.2227 2642.0156,1415.0664 Q2641.5469,1414.7539 2641.5469,1414.207 Q2641.5469,1413.7539 2641.8594,1413.4883 Q2642.1563,1413.207 2642.875,1413.207 L2645.5781,1413.207 Q2646.2969,1413.207 2646.5938,1413.4883 Q2646.9063,1413.7539 2646.9063,1414.207 Q2646.9063,1414.6602 2646.6094,1414.9414 Q2646.3125,1415.2227 2645.5781,1415.2227 L2645.1094,1415.2227 L2648,1422.1289 Z " fill="#000000"/><text fill="#000000" font-family="sans-serif" font-size="20" font-style="italic" lengthAdjust="spacing" textLength="128" x="2666" y="1413.6563">«value object»</text><text fill="#000000" font-family="sans-serif" font-size="20" lengthAdjust="spacing" textLength="135" x="2662.5" y="1438.8125">InterviewGrade</text><line style="stroke:#181818;stroke-width:0.5;" x1="2632.5" x2="2799.5" y1="1448.207" y2="1448.207"/></g><!--class RequirementAnswer--><g id="elem_RequirementAnswer"><rect codeLine="53" fill="#F5F5DC" height="68.3125" id="RequirementAnswer" rx="2.5" ry="2.5" style="stroke:#181818;stroke-width:0.5;" width="211" x="2488.5" y="907.3945"/><ellipse cx="2504.5" cy="937.5508" fill="#FF8B40" rx="12" ry="12" style="stroke:#181818;stroke-width:1.0;"/><path d="M2505,941.6289 L2507.8906,934.7227 L2507.4375,934.7227 Q2506.7188,934.7227 2506.4063,934.4414 Q2506.0938,934.1602 2506.0938,933.707 Q2506.0938,933.2539 2506.4063,932.9883 Q2506.7188,932.707 2507.4375,932.707 L2510.125,932.707 Q2510.8438,932.707 2511.1563,932.9883 Q2511.4688,933.2539 2511.4688,933.707 Q2511.4688,934.2539 2511,934.5664 Q2510.7656,934.7227 2510.0781,934.7227 L2505.9688,944.5508 L2504.0469,944.5508 L2499.9375,934.7227 Q2499.2344,934.7227 2499.0156,934.5664 Q2498.5469,934.2539 2498.5469,933.707 Q2498.5469,933.2539 2498.8594,932.9883 Q2499.1563,932.707 2499.875,932.707 L2502.5781,932.707 Q2503.2969,932.707 2503.5938,932.9883 Q2503.9063,933.2539 2503.9063,933.707 Q2503.9063,934.1602 2503.6094,934.4414 Q2503.3125,934.7227 2502.5781,934.7227 L2502.1094,934.7227 L2505,941.6289 Z " fill="#000000"/><text fill="#000000" font-family="sans-serif" font-size="20" font-style="italic" lengthAdjust="spacing" textLength="128" x="2544" y="933.1563">«value object»</text><text fill="#000000" font-family="sans-serif" font-size="20" lengthAdjust="spacing" textLength="177" x="2519.5" y="958.3125">RequirementAnswer</text><line style="stroke:#181818;stroke-width:0.5;" x1="2489.5" x2="2698.5" y1="967.707" y2="967.707"/></g><!--class RequirementResult--><g id="elem_RequirementResult"><rect codeLine="54" fill="#F5F5DC" height="68.3125" id="RequirementResult" rx="2.5" ry="2.5" style="stroke:#181818;stroke-width:0.5;" width="200" x="2598" y="1089.3945"/><ellipse cx="2614" cy="1119.5508" fill="#FF8B40" rx="12" ry="12" style="stroke:#181818;stroke-width:1.0;"/><path d="M2614.5,1123.6289 L2617.3906,1116.7227 L2616.9375,1116.7227 Q2616.2188,1116.7227 2615.9063,1116.4414 Q2615.5938,1116.1602 2615.5938,1115.707 Q2615.5938,1115.2539 2615.9063,1114.9883 Q2616.2188,1114.707 2616.9375,1114.707 L2619.625,1114.707 Q2620.3438,1114.707 2620.6563,1114.9883 Q2620.9688,1115.2539 2620.9688,1115.707 Q2620.9688,1116.2539 2620.5,1116.5664 Q2620.2656,1116.7227 2619.5781,1116.7227 L2615.4688,1126.5508 L2613.5469,1126.5508 L2609.4375,1116.7227 Q2608.7344,1116.7227 2608.5156,1116.5664 Q2608.0469,1116.2539 2608.0469,1115.707 Q2608.0469,1115.2539 2608.3594,1114.9883 Q2608.6563,1114.707 2609.375,1114.707 L2612.0781,1114.707 Q2612.7969,1114.707 2613.0938,1114.9883 Q2613.4063,1115.2539 2613.4063,1115.707 Q2613.4063,1116.1602 2613.1094,1116.4414 Q2612.8125,1116.7227 2612.0781,1116.7227 L2611.6094,1116.7227 L2614.5,1123.6289 Z " fill="#000000"/><text fill="#000000" font-family="sans-serif" font-size="20" font-style="italic" lengthAdjust="spacing" textLength="128" x="2648" y="1115.1563">«value object»</text><text fill="#000000" font-family="sans-serif" font-size="20" lengthAdjust="spacing" textLength="166" x="2629" y="1140.3125">RequirementResult</text><line style="stroke:#181818;stroke-width:0.5;" x1="2599" x2="2797" y1="1149.707" y2="1149.707"/></g><!--class Schedule--><g id="elem_Schedule"><rect codeLine="56" fill="#F5F5DC" height="68.3125" id="Schedule" rx="2.5" ry="2.5" style="stroke:#181818;stroke-width:0.5;" width="158" x="2745" y="1258.8945"/><ellipse cx="2761" cy="1289.0508" fill="#FF8B40" rx="12" ry="12" style="stroke:#181818;stroke-width:1.0;"/><path d="M2761.5,1293.1289 L2764.3906,1286.2227 L2763.9375,1286.2227 Q2763.2188,1286.2227 2762.9063,1285.9414 Q2762.5938,1285.6602 2762.5938,1285.207 Q2762.5938,1284.7539 2762.9063,1284.4883 Q2763.2188,1284.207 2763.9375,1284.207 L2766.625,1284.207 Q2767.3438,1284.207 2767.6563,1284.4883 Q2767.9688,1284.7539 2767.9688,1285.207 Q2767.9688,1285.7539 2767.5,1286.0664 Q2767.2656,1286.2227 2766.5781,1286.2227 L2762.4688,1296.0508 L2760.5469,1296.0508 L2756.4375,1286.2227 Q2755.7344,1286.2227 2755.5156,1286.0664 Q2755.0469,1285.7539 2755.0469,1285.207 Q2755.0469,1284.7539 2755.3594,1284.4883 Q2755.6563,1284.207 2756.375,1284.207 L2759.0781,1284.207 Q2759.7969,1284.207 2760.0938,1284.4883 Q2760.4063,1284.7539 2760.4063,1285.207 Q2760.4063,1285.6602 2760.1094,1285.9414 Q2759.8125,1286.2227 2759.0781,1286.2227 L2758.6094,1286.2227 L2761.5,1293.1289 Z " fill="#000000"/><text fill="#000000" font-family="sans-serif" font-size="20" font-style="italic" lengthAdjust="spacing" textLength="128" x="2774" y="1284.6563">«value object»</text><text fill="#000000" font-family="sans-serif" font-size="20" lengthAdjust="spacing" textLength="80" x="2798" y="1309.8125">Schedule</text><line style="stroke:#181818;stroke-width:0.5;" x1="2746" x2="2902" y1="1319.207" y2="1319.207"/></g><!--class File--><g id="elem_File"><rect codeLine="57" fill="#F5F5DC" height="68.3125" id="File" rx="2.5" ry="2.5" style="stroke:#181818;stroke-width:0.5;" width="158" x="2833" y="1089.3945"/><ellipse cx="2849" cy="1119.5508" fill="#FF8B40" rx="12" ry="12" style="stroke:#181818;stroke-width:1.0;"/><path d="M2849.5,1123.6289 L2852.3906,1116.7227 L2851.9375,1116.7227 Q2851.2188,1116.7227 2850.9063,1116.4414 Q2850.5938,1116.1602 2850.5938,1115.707 Q2850.5938,1115.2539 2850.9063,1114.9883 Q2851.2188,1114.707 2851.9375,1114.707 L2854.625,1114.707 Q2855.3438,1114.707 2855.6563,1114.9883 Q2855.9688,1115.2539 2855.9688,1115.707 Q2855.9688,1116.2539 2855.5,1116.5664 Q2855.2656,1116.7227 2854.5781,1116.7227 L2850.4688,1126.5508 L2848.5469,1126.5508 L2844.4375,1116.7227 Q2843.7344,1116.7227 2843.5156,1116.5664 Q2843.0469,1116.2539 2843.0469,1115.707 Q2843.0469,1115.2539 2843.3594,1114.9883 Q2843.6563,1114.707 2844.375,1114.707 L2847.0781,1114.707 Q2847.7969,1114.707 2848.0938,1114.9883 Q2848.4063,1115.2539 2848.4063,1115.707 Q2848.4063,1116.1602 2848.1094,1116.4414 Q2847.8125,1116.7227 2847.0781,1116.7227 L2846.6094,1116.7227 L2849.5,1123.6289 Z " fill="#000000"/><text fill="#000000" font-family="sans-serif" font-size="20" font-style="italic" lengthAdjust="spacing" textLength="128" x="2862" y="1115.1563">«value object»</text><text fill="#000000" font-family="sans-serif" font-size="20" lengthAdjust="spacing" textLength="31" x="2910.5" y="1140.3125">File</text><line style="stroke:#181818;stroke-width:0.5;" x1="2834" x2="2990" y1="1149.707" y2="1149.707"/></g><!--class Candidate--><g id="elem_Candidate"><rect codeLine="61" fill="#F5F5DC" height="93.4688" id="Candidate" rx="2.5" ry="2.5" style="stroke:#181818;stroke-width:0.5;" width="123" x="3484.5" y="262.8945"/><ellipse cx="3500.5" cy="305.6289" fill="#ADD1B2" rx="12" ry="12" style="stroke:#181818;stroke-width:1.0;"/><path d="M3498.4531,306.6914 L3498.4531,309.6289 L3503.5469,309.6289 L3503.5469,308.5352 Q3503.5469,307.8164 3503.8281,307.5195 Q3504.1094,307.207 3504.5625,307.207 Q3505,307.207 3505.2813,307.5195 Q3505.5625,307.8164 3505.5625,308.5352 L3505.5625,311.6289 L3496.125,311.6289 Q3495.4063,311.6289 3495.0938,311.3477 Q3494.7969,311.0664 3494.7969,310.6289 Q3494.7969,310.1758 3495.1094,309.9102 Q3495.4219,309.6289 3496.125,309.6289 L3496.4375,309.6289 L3496.4375,301.8008 L3496.125,301.8008 Q3495.4063,301.8008 3495.0938,301.5195 Q3494.7969,301.2383 3494.7969,300.7852 Q3494.7969,300.332 3495.0938,300.0664 Q3495.4063,299.7852 3496.125,299.7852 L3505.1094,299.7852 L3505.1094,302.832 Q3505.1094,303.5508 3504.8281,303.8633 Q3504.5625,304.1602 3504.125,304.1602 Q3503.6719,304.1602 3503.3906,303.8633 Q3503.1094,303.5664 3503.1094,302.832 L3503.1094,301.8008 L3498.4531,301.8008 L3498.4531,304.6914 L3500.2031,304.6914 Q3500.2031,303.9102 3500.3438,303.6758 Q3500.6563,303.207 3501.2031,303.207 Q3501.6563,303.207 3501.9219,303.5195 Q3502.2031,303.8164 3502.2031,304.5352 L3502.2031,306.8477 Q3502.2031,307.5039 3502.0469,307.7227 Q3501.7344,308.1758 3501.2031,308.1758 Q3500.6563,308.1758 3500.3438,307.707 Q3500.2031,307.4727 3500.2031,306.6914 L3498.4531,306.6914 Z " fill="#000000"/><text fill="#000000" font-family="sans-serif" font-size="20" font-style="italic" lengthAdjust="spacing" textLength="69" x="3525.5" y="288.6563">«entity»</text><text fill="#000000" font-family="sans-serif" font-size="20" font-style="italic" lengthAdjust="spacing" textLength="56" x="3532" y="313.8125">«root»</text><text fill="#000000" font-family="sans-serif" font-size="20" lengthAdjust="spacing" textLength="89" x="3515.5" y="338.9688">Candidate</text><line style="stroke:#181818;stroke-width:0.5;" x1="3485.5" x2="3606.5" y1="348.3633" y2="348.3633"/></g><!--class CandidateName--><g id="elem_CandidateName"><rect codeLine="62" fill="#F5F5DC" height="68.3125" id="CandidateName" rx="2.5" ry="2.5" style="stroke:#181818;stroke-width:0.5;" width="174" x="3764" y="485.3945"/><ellipse cx="3780" cy="515.5508" fill="#FF8B40" rx="12" ry="12" style="stroke:#181818;stroke-width:1.0;"/><path d="M3780.5,519.6289 L3783.3906,512.7227 L3782.9375,512.7227 Q3782.2188,512.7227 3781.9063,512.4414 Q3781.5938,512.1602 3781.5938,511.707 Q3781.5938,511.2539 3781.9063,510.9883 Q3782.2188,510.707 3782.9375,510.707 L3785.625,510.707 Q3786.3438,510.707 3786.6563,510.9883 Q3786.9688,511.2539 3786.9688,511.707 Q3786.9688,512.2539 3786.5,512.5664 Q3786.2656,512.7227 3785.5781,512.7227 L3781.4688,522.5508 L3779.5469,522.5508 L3775.4375,512.7227 Q3774.7344,512.7227 3774.5156,512.5664 Q3774.0469,512.2539 3774.0469,511.707 Q3774.0469,511.2539 3774.3594,510.9883 Q3774.6563,510.707 3775.375,510.707 L3778.0781,510.707 Q3778.7969,510.707 3779.0938,510.9883 Q3779.4063,511.2539 3779.4063,511.707 Q3779.4063,512.1602 3779.1094,512.4414 Q3778.8125,512.7227 3778.0781,512.7227 L3777.6094,512.7227 L3780.5,519.6289 Z " fill="#000000"/><text fill="#000000" font-family="sans-serif" font-size="20" font-style="italic" lengthAdjust="spacing" textLength="128" x="3801" y="511.1563">«value object»</text><text fill="#000000" font-family="sans-serif" font-size="20" lengthAdjust="spacing" textLength="140" x="3795" y="536.3125">CandidateName</text><line style="stroke:#181818;stroke-width:0.5;" x1="3765" x2="3937" y1="545.707" y2="545.707"/></g><!--class PhoneNumber--><g id="elem_PhoneNumber"><rect codeLine="63" fill="#F5F5DC" height="68.3125" id="PhoneNumber" rx="2.5" ry="2.5" style="stroke:#181818;stroke-width:0.5;" width="158" x="3484" y="697.3945"/><ellipse cx="3500" cy="727.5508" fill="#FF8B40" rx="12" ry="12" style="stroke:#181818;stroke-width:1.0;"/><path d="M3500.5,731.6289 L3503.3906,724.7227 L3502.9375,724.7227 Q3502.2188,724.7227 3501.9063,724.4414 Q3501.5938,724.1602 3501.5938,723.707 Q3501.5938,723.2539 3501.9063,722.9883 Q3502.2188,722.707 3502.9375,722.707 L3505.625,722.707 Q3506.3438,722.707 3506.6563,722.9883 Q3506.9688,723.2539 3506.9688,723.707 Q3506.9688,724.2539 3506.5,724.5664 Q3506.2656,724.7227 3505.5781,724.7227 L3501.4688,734.5508 L3499.5469,734.5508 L3495.4375,724.7227 Q3494.7344,724.7227 3494.5156,724.5664 Q3494.0469,724.2539 3494.0469,723.707 Q3494.0469,723.2539 3494.3594,722.9883 Q3494.6563,722.707 3495.375,722.707 L3498.0781,722.707 Q3498.7969,722.707 3499.0938,722.9883 Q3499.4063,723.2539 3499.4063,723.707 Q3499.4063,724.1602 3499.1094,724.4414 Q3498.8125,724.7227 3498.0781,724.7227 L3497.6094,724.7227 L3500.5,731.6289 Z " fill="#000000"/><text fill="#000000" font-family="sans-serif" font-size="20" font-style="italic" lengthAdjust="spacing" textLength="128" x="3513" y="723.1563">«value object»</text><text fill="#000000" font-family="sans-serif" font-size="20" lengthAdjust="spacing" textLength="123" x="3515.5" y="748.3125">PhoneNumber</text><line style="stroke:#181818;stroke-width:0.5;" x1="3485" x2="3641" y1="757.707" y2="757.707"/></g><!--class Email--><g id="elem_Email"><rect codeLine="64" fill="#F5F5DC" height="68.3125" id="Email" rx="2.5" ry="2.5" style="stroke:#181818;stroke-width:0.5;" width="158" x="3677" y="697.3945"/><ellipse cx="3693" cy="727.5508" fill="#FF8B40" rx="12" ry="12" style="stroke:#181818;stroke-width:1.0;"/><path d="M3693.5,731.6289 L3696.3906,724.7227 L3695.9375,724.7227 Q3695.2188,724.7227 3694.9063,724.4414 Q3694.5938,724.1602 3694.5938,723.707 Q3694.5938,723.2539 3694.9063,722.9883 Q3695.2188,722.707 3695.9375,722.707 L3698.625,722.707 Q3699.3438,722.707 3699.6563,722.9883 Q3699.9688,723.2539 3699.9688,723.707 Q3699.9688,724.2539 3699.5,724.5664 Q3699.2656,724.7227 3698.5781,724.7227 L3694.4688,734.5508 L3692.5469,734.5508 L3688.4375,724.7227 Q3687.7344,724.7227 3687.5156,724.5664 Q3687.0469,724.2539 3687.0469,723.707 Q3687.0469,723.2539 3687.3594,722.9883 Q3687.6563,722.707 3688.375,722.707 L3691.0781,722.707 Q3691.7969,722.707 3692.0938,722.9883 Q3692.4063,723.2539 3692.4063,723.707 Q3692.4063,724.1602 3692.1094,724.4414 Q3691.8125,724.7227 3691.0781,724.7227 L3690.6094,724.7227 L3693.5,731.6289 Z " fill="#000000"/><text fill="#000000" font-family="sans-serif" font-size="20" font-style="italic" lengthAdjust="spacing" textLength="128" x="3706" y="723.1563">«value object»</text><text fill="#000000" font-family="sans-serif" font-size="20" lengthAdjust="spacing" textLength="48" x="3746" y="748.3125">Email</text><line style="stroke:#181818;stroke-width:0.5;" x1="3678" x2="3834" y1="757.707" y2="757.707"/></g><!--class Address--><g id="elem_Address"><rect codeLine="10" fill="#F5F5DC" height="68.3125" id="Address" rx="2.5" ry="2.5" style="stroke:#181818;stroke-width:0.5;" width="158" x="7" y="907.3945"/><ellipse cx="23" cy="937.5508" fill="#FF8B40" rx="12" ry="12" style="stroke:#181818;stroke-width:1.0;"/><path d="M23.5,941.6289 L26.3906,934.7227 L25.9375,934.7227 Q25.2188,934.7227 24.9063,934.4414 Q24.5938,934.1602 24.5938,933.707 Q24.5938,933.2539 24.9063,932.9883 Q25.2188,932.707 25.9375,932.707 L28.625,932.707 Q29.3438,932.707 29.6563,932.9883 Q29.9688,933.2539 29.9688,933.707 Q29.9688,934.2539 29.5,934.5664 Q29.2656,934.7227 28.5781,934.7227 L24.4688,944.5508 L22.5469,944.5508 L18.4375,934.7227 Q17.7344,934.7227 17.5156,934.5664 Q17.0469,934.2539 17.0469,933.707 Q17.0469,933.2539 17.3594,932.9883 Q17.6563,932.707 18.375,932.707 L21.0781,932.707 Q21.7969,932.707 22.0938,932.9883 Q22.4063,933.2539 22.4063,933.707 Q22.4063,934.1602 22.1094,934.4414 Q21.8125,934.7227 21.0781,934.7227 L20.6094,934.7227 L23.5,941.6289 Z " fill="#000000"/><text fill="#000000" font-family="sans-serif" font-size="20" font-style="italic" lengthAdjust="spacing" textLength="128" x="36" y="933.1563">«value object»</text><text fill="#000000" font-family="sans-serif" font-size="20" lengthAdjust="spacing" textLength="73" x="63.5" y="958.3125">Address</text><line style="stroke:#181818;stroke-width:0.5;" x1="8" x2="164" y1="967.707" y2="967.707"/></g><!--link Customer to JobOpening--><g id="link_Customer_JobOpening"><path codeLine="71" d="M492.74,320.4945 C696.33,354.9245 1362.79,467.6245 1587.93,505.6945 " fill="none" id="Customer-to-JobOpening" style="stroke:#222222;stroke-width:1.0;"/><polygon fill="#222222" points="1593.16,506.5845,1584.9477,501.1478,1588.2292,505.7556,1583.6214,509.0371,1593.16,506.5845" style="stroke:#222222;stroke-width:1.0;"/><text fill="#000000" font-family="sans-serif" font-size="20" lengthAdjust="spacing" textLength="52" x="1012" y="407.6563">sends</text><text fill="#000000" font-family="sans-serif" font-size="20" lengthAdjust="spacing" textLength="31" x="1554.5594" y="500.0782">1..*</text></g><!--link Customer to CompanyName--><g id="link_Customer_CompanyName"><path codeLine="72" d="M398.37,355.9245 C392.86,365.3745 387.99,375.6045 385,385.8945 C375.9,417.1645 383.81,453.6445 392.92,480.4045 " fill="none" id="Customer-to-CompanyName" style="stroke:#222222;stroke-width:1.0;"/><polygon fill="#222222" points="394.63,485.2845,395.4283,475.4681,392.9763,480.5659,387.8785,478.1139,394.63,485.2845" style="stroke:#222222;stroke-width:1.0;"/><text fill="#000000" font-family="sans-serif" font-size="20" lengthAdjust="spacing" textLength="133" x="386" y="407.6563">is described by</text><text fill="#000000" font-family="sans-serif" font-size="20" lengthAdjust="spacing" textLength="11" x="380.2148" y="473.0217">1</text></g><!--link Customer to Address--><g id="link_Customer_Address"><path codeLine="73" d="M492.52,346.9045 C505.22,357.7545 516.93,370.8445 524,385.8945 C544.67,429.8945 628.64,371.9745 511,589.8945 C423.21,752.5245 319.18,720.1745 181,842.8945 C159.63,861.8745 137.25,884.6845 119.58,903.4645 " fill="none" id="Customer-to-Address" style="stroke:#222222;stroke-width:1.0;"/><polygon fill="#222222" points="116.11,907.1645,125.1911,903.3522,119.5368,903.5235,119.3655,897.8693,116.11,907.1645" style="stroke:#222222;stroke-width:1.0;"/><text fill="#000000" font-family="sans-serif" font-size="20" lengthAdjust="spacing" textLength="107" x="505" y="619.6563">is located at</text><text fill="#000000" font-family="sans-serif" font-size="20" lengthAdjust="spacing" textLength="11" x="122.2305" y="894.8811">1</text></g><!--link Customer to CustomerCode--><g id="link_Customer_CustomerCode"><path codeLine="74" d="M373.33,320.3845 C332.15,330.2745 279.05,349.4545 246,385.8945 C225.75,408.2145 215.99,440.5545 211.29,467.6945 " fill="none" id="Customer-to-CustomerCode" style="stroke:#222222;stroke-width:1.0;"/><polygon fill="#222222" points="210.47,472.7045,215.8566,464.4592,211.2689,467.7688,207.9593,463.1811,210.47,472.7045" style="stroke:#222222;stroke-width:1.0;"/><text fill="#000000" font-family="sans-serif" font-size="20" lengthAdjust="spacing" textLength="125" x="247" y="407.6563">is identified by</text><text fill="#000000" font-family="sans-serif" font-size="20" lengthAdjust="spacing" textLength="11" x="199.1972" y="460.4916">1</text></g><!--reverse link CustomerManager to Customer--><g id="link_CustomerManager_Customer"><path codeLine="76" d="M2322.19,109.3345 C1962.03,147.2845 773.07,272.5645 492.64,302.1145 " fill="none" id="CustomerManager-backto-Customer" style="stroke:#222222;stroke-width:1.0;"/><polygon fill="#222222" points="2327.17,108.8045,2317.7975,105.7785,2322.198,109.3332,2318.6433,113.7336,2327.17,108.8045" style="stroke:#222222;stroke-width:1.0;"/><polygon fill="#000000" points="1666.044,190.311,1680.9293,193.4708,1679.9438,184.118,1666.044,190.311" style="stroke:#000000;stroke-width:1.0;"/><text fill="#000000" font-family="sans-serif" font-size="20" lengthAdjust="spacing" textLength="80" x="1687" y="197.6563">manages</text><text fill="#000000" font-family="sans-serif" font-size="20" lengthAdjust="spacing" textLength="11" x="2308.5083" y="104.4747">1</text></g><!--link CustomerManager to JobOpening--><g id="link_CustomerManager_JobOpening"><path codeLine="77" d="M2343.26,143.9445 C2193.65,226.2945 1880.44,398.7045 1737.27,477.5145 " fill="none" id="CustomerManager-to-JobOpening" style="stroke:#222222;stroke-width:1.0;"/><polygon fill="#222222" points="1732.66,480.0445,1742.4721,479.1949,1737.0368,477.6273,1738.6045,472.192,1732.66,480.0445" style="stroke:#222222;stroke-width:1.0;"/><text fill="#000000" font-family="sans-serif" font-size="20" lengthAdjust="spacing" textLength="77" x="2217" y="317.6563">registers</text><text fill="#000000" font-family="sans-serif" font-size="20" lengthAdjust="spacing" textLength="31" x="1740.5107" y="471.0119">1..*</text></g><!--link CustomerManager to Application--><g id="link_CustomerManager_Application"><path codeLine="78" d="M2450.88,144.1045 C2513.5,259.1545 2677.31,560.1045 2742.58,680.0245 " fill="none" id="CustomerManager-to-Application" style="stroke:#222222;stroke-width:1.0;"/><polygon fill="#222222" points="2745.05,684.5545,2744.2519,674.7381,2742.6557,680.1651,2737.2287,678.5689,2745.05,684.5545" style="stroke:#222222;stroke-width:1.0;"/><text fill="#000000" font-family="sans-serif" font-size="20" lengthAdjust="spacing" textLength="80" x="2595" y="407.6563">overseas</text><text fill="#000000" font-family="sans-serif" font-size="20" lengthAdjust="spacing" textLength="31" x="2708.6145" y="672.3214">0..*</text></g><!--link CustomerManager to Candidate--><g id="link_CustomerManager_Candidate"><path codeLine="79" d="M2524.9,116.9345 C2748.91,158.9445 3290.2,260.4345 3479.39,295.9045 " fill="none" id="CustomerManager-to-Candidate" style="stroke:#222222;stroke-width:1.0;"/><polygon fill="#222222" points="3484.34,296.8345,3476.2235,291.2558,3479.4243,295.92,3474.7602,299.1209,3484.34,296.8345" style="stroke:#222222;stroke-width:1.0;"/><text fill="#000000" font-family="sans-serif" font-size="20" lengthAdjust="spacing" textLength="80" x="2953" y="197.6563">manages</text><text fill="#000000" font-family="sans-serif" font-size="20" lengthAdjust="spacing" textLength="31" x="3445.3829" y="289.9958">1..*</text></g><!--link Candidate to Application--><g id="link_Candidate_Application"><path codeLine="82" d="M3484.46,343.7045 C3341.81,420.9045 2989.33,611.6845 2839.35,692.8645 " fill="none" id="Candidate-to-Application" style="stroke:#222222;stroke-width:1.0;"/><polygon fill="#222222" points="2834.53,695.4645,2844.3504,694.7157,2838.9314,693.0923,2840.5548,687.6734,2834.53,695.4645" style="stroke:#222222;stroke-width:1.0;"/><text fill="#000000" font-family="sans-serif" font-size="20" lengthAdjust="spacing" textLength="67" x="3334" y="527.6563">submits</text><text fill="#000000" font-family="sans-serif" font-size="20" lengthAdjust="spacing" textLength="31" x="2842.408" y="686.4435">1..*</text></g><!--link Candidate to JobOpening--><g id="link_Candidate_JobOpening"><path codeLine="83" d="M3484.32,310.9845 C3354.2,313.4345 3042.78,325.6845 2790,385.8945 C2757.56,393.6245 2752.44,405.1645 2720,412.8945 C2358.93,498.8845 1912.27,514.8745 1737.78,517.7845 " fill="none" id="Candidate-to-JobOpening" style="stroke:#222222;stroke-width:1.0;"/><polygon fill="#222222" points="1732.7,517.8645,1741.7562,521.7356,1737.6995,517.7931,1741.6419,513.7364,1732.7,517.8645" style="stroke:#222222;stroke-width:1.0;"/><text fill="#000000" font-family="sans-serif" font-size="20" lengthAdjust="spacing" textLength="92" x="2791" y="407.6563">applies for</text><text fill="#000000" font-family="sans-serif" font-size="20" lengthAdjust="spacing" textLength="31" x="1740.5544" y="512.3185">1..*</text></g><!--link Candidate to Email--><g id="link_Candidate_Email"><path codeLine="84" d="M3561.27,355.9745 C3587.7,434.8445 3639.26,588.5645 3640,589.8945 C3661.38,628.3645 3693.8,666.5345 3718.93,693.3545 " fill="none" id="Candidate-to-Email" style="stroke:#222222;stroke-width:1.0;"/><polygon fill="#222222" points="3722.58,697.2245,3719.3063,687.9357,3719.146,693.5903,3713.4915,693.43,3722.58,697.2245" style="stroke:#222222;stroke-width:1.0;"/><text fill="#000000" font-family="sans-serif" font-size="20" lengthAdjust="spacing" textLength="105" x="3641" y="527.6563">identified by</text><text fill="#000000" font-family="sans-serif" font-size="20" lengthAdjust="spacing" textLength="11" x="3704.8906" y="684.9514">1</text></g><!--link Candidate to CandidateName--><g id="link_Candidate_CandidateName"><path codeLine="85" d="M3607.54,342.2545 C3645.86,362.9945 3695.57,391.5645 3737,420.8945 C3763.11,439.3845 3790.42,462.5745 3811.76,481.7045 " fill="none" id="Candidate-to-CandidateName" style="stroke:#222222;stroke-width:1.0;"/><polygon fill="#222222" points="3815.67,485.2345,3811.6562,476.2407,3811.9535,481.8897,3806.3045,482.187,3815.67,485.2345" style="stroke:#222222;stroke-width:1.0;"/><text fill="#000000" font-family="sans-serif" font-size="20" lengthAdjust="spacing" textLength="31" x="3723" y="407.6563">has</text><text fill="#000000" font-family="sans-serif" font-size="20" lengthAdjust="spacing" textLength="11" x="3797.6523" y="472.9631">1</text></g><!--link Candidate to PhoneNumber--><g id="link_Candidate_PhoneNumber"><path codeLine="86" d="M3544.32,355.9545 C3542.67,411.3145 3541.04,507.5545 3546,589.8945 C3548.09,624.6445 3553.08,663.9645 3557.11,692.1545 " fill="none" id="Candidate-to-PhoneNumber" style="stroke:#222222;stroke-width:1.0;"/><polygon fill="#222222" points="3557.85,697.2845,3560.5255,687.8061,3557.1369,692.3356,3552.6073,688.947,3557.85,697.2845" style="stroke:#222222;stroke-width:1.0;"/><text fill="#000000" font-family="sans-serif" font-size="20" lengthAdjust="spacing" textLength="31" x="3547" y="527.6563">has</text><text fill="#000000" font-family="sans-serif" font-size="20" lengthAdjust="spacing" textLength="11" x="3545.0195" y="685.0217">1</text></g><!--link JobOpening to JobReference--><g id="link_JobOpening_JobReference"><path codeLine="88" d="M1732.6,524.1345 C1807,532.1445 1922.43,556.9145 1983,632.8945 C2041.59,706.3945 2036.45,823.0345 2027.32,889.5345 " fill="none" id="JobOpening-to-JobReference" style="stroke:#222222;stroke-width:1.0;"/><polygon fill="#222222" points="2026.6,894.6345,2031.8225,886.2843,2027.3011,889.6839,2023.9015,885.1626,2026.6,894.6345" style="stroke:#222222;stroke-width:1.0;"/><text fill="#000000" font-family="sans-serif" font-size="20" lengthAdjust="spacing" textLength="70" x="2033" y="739.6563">includes</text><text fill="#000000" font-family="sans-serif" font-size="20" lengthAdjust="spacing" textLength="11" x="2016.0166" y="882.4122">1</text></g><!--link JobOpening to Mode--><g id="link_JobOpening_Mode"><path codeLine="89" d="M1632.18,566.1045 C1626.02,576.3145 1619.93,587.2645 1615,597.8945 C1600.78,628.5645 1589.27,665.2545 1581.74,692.2345 " fill="none" id="JobOpening-to-Mode" style="stroke:#222222;stroke-width:1.0;"/><polygon fill="#222222" points="1580.39,697.1645,1586.6401,689.5529,1581.7201,692.3447,1578.9283,687.4247,1580.39,697.1645" style="stroke:#222222;stroke-width:1.0;"/><text fill="#000000" font-family="sans-serif" font-size="20" lengthAdjust="spacing" textLength="70" x="1616" y="619.6563">includes</text><text fill="#000000" font-family="sans-serif" font-size="20" lengthAdjust="spacing" textLength="11" x="1569.8867" y="684.8811">1</text></g><!--link JobOpening to NumberVacancy--><g id="link_JobOpening_NumberVacancy"><path codeLine="90" d="M1687.3,565.9645 C1707.5,603.8245 1735.89,657.0745 1754.84,692.6045 " fill="none" id="JobOpening-to-NumberVacancy" style="stroke:#222222;stroke-width:1.0;"/><polygon fill="#222222" points="1757.34,697.2745,1756.6292,687.4514,1754.9848,692.864,1749.5722,691.2196,1757.34,697.2745" style="stroke:#222222;stroke-width:1.0;"/><text fill="#000000" font-family="sans-serif" font-size="20" lengthAdjust="spacing" textLength="70" x="1716" y="619.6563">includes</text><text fill="#000000" font-family="sans-serif" font-size="20" lengthAdjust="spacing" textLength="11" x="1742.3594" y="685.01">1</text></g><!--link JobOpening to Address--><g id="link_JobOpening_Address"><path codeLine="91" d="M1593.28,524.3945 C1451.8,533.0845 1121.06,556.3245 846,597.8945 C770.59,609.2945 738.88,586.9545 678,632.8945 C597.07,693.9645 658.22,781.5545 572,834.8945 C553.52,846.3245 200.93,834.2445 181,842.8945 C152.22,855.3845 127.75,881.1345 110.85,903.0345 " fill="none" id="JobOpening-to-Address" style="stroke:#222222;stroke-width:1.0;"/><polygon fill="#222222" points="107.78,907.0745,116.41,902.3286,110.8051,903.0934,110.0402,897.4885,107.78,907.0745" style="stroke:#222222;stroke-width:1.0;"/><text fill="#000000" font-family="sans-serif" font-size="20" lengthAdjust="spacing" textLength="70" x="679" y="739.6563">includes</text><text fill="#000000" font-family="sans-serif" font-size="20" lengthAdjust="spacing" textLength="11" x="99.4764" y="895.0687">1</text></g><!--link JobOpening to JobFunction--><g id="link_JobOpening_JobFunction"><path codeLine="92" d="M1593.45,523.3645 C1495.42,529.2945 1312.13,546.8145 1165,597.8945 C1112.32,616.1845 1065.08,660.9945 1036.04,693.4445 " fill="none" id="JobOpening-to-JobFunction" style="stroke:#222222;stroke-width:1.0;"/><polygon fill="#222222" points="1032.59,697.3345,1041.5512,693.2483,1035.9047,693.5912,1035.5618,687.9447,1032.59,697.3345" style="stroke:#222222;stroke-width:1.0;"/><text fill="#000000" font-family="sans-serif" font-size="20" lengthAdjust="spacing" textLength="70" x="1166" y="619.6563">includes</text><text fill="#000000" font-family="sans-serif" font-size="20" lengthAdjust="spacing" textLength="11" x="1025.2148" y="685.0803">1</text></g><!--link JobOpening to Description--><g id="link_JobOpening_Description"><path codeLine="93" d="M1732.55,535.8345 C1783.43,551.1645 1848.92,580.2445 1881,632.8945 C1933.28,718.7045 1880.63,841.2645 1847.49,902.5145 " fill="none" id="JobOpening-to-Description" style="stroke:#222222;stroke-width:1.0;"/><polygon fill="#222222" points="1844.94,907.1745,1852.7694,901.1996,1847.3403,902.7883,1845.7515,897.3592,1844.94,907.1745" style="stroke:#222222;stroke-width:1.0;"/><text fill="#000000" font-family="sans-serif" font-size="20" lengthAdjust="spacing" textLength="70" x="1904" y="739.6563">includes</text><text fill="#000000" font-family="sans-serif" font-size="20" lengthAdjust="spacing" textLength="11" x="1836.4219" y="894.8928">1</text></g><!--link JobOpening to ContractType--><g id="link_JobOpening_ContractType"><path codeLine="94" d="M1593.3,530.2045 C1532.45,542.7745 1447.3,570.9045 1404,632.8945 C1347.11,714.3345 1363.31,839.5145 1376.48,902.0645 " fill="none" id="JobOpening-to-ContractType" style="stroke:#222222;stroke-width:1.0;"/><polygon fill="#222222" points="1377.58,907.1845,1379.5862,897.5422,1376.5226,902.2976,1371.7671,899.234,1377.58,907.1845" style="stroke:#222222;stroke-width:1.0;"/><text fill="#000000" font-family="sans-serif" font-size="20" lengthAdjust="spacing" textLength="70" x="1405" y="739.6563">includes</text><text fill="#000000" font-family="sans-serif" font-size="20" lengthAdjust="spacing" textLength="11" x="1364.1875" y="894.9045">1</text></g><!--link JobOpening to JobOpeningStatus--><g id="link_JobOpening_JobOpeningStatus"><path codeLine="95" d="M1593.38,525.8745 C1493.25,535.0845 1315.29,556.8145 1267,597.8945 C1239.36,621.4045 1227.31,661.9945 1222.05,692.0645 " fill="none" id="JobOpening-to-JobOpeningStatus" style="stroke:#222222;stroke-width:1.0;"/><polygon fill="#222222" points="1221.2,697.1745,1226.6329,688.9597,1222.0266,692.2433,1218.743,687.6371,1221.2,697.1745" style="stroke:#222222;stroke-width:1.0;"/><text fill="#000000" font-family="sans-serif" font-size="20" lengthAdjust="spacing" textLength="108" x="1268" y="619.6563">classified by</text><text fill="#000000" font-family="sans-serif" font-size="20" lengthAdjust="spacing" textLength="11" x="1209.8047" y="684.8928">1</text></g><!--link JobOpening to RequirementSpecification--><g id="link_JobOpening_RequirementSpecification"><path codeLine="96" d="M1593.5,521.7745 C1417.41,526.5045 959.15,546.9745 838,632.8945 C774.28,678.0845 802.41,725.1345 758,789.3945 C732.77,825.9045 699.4,862.8645 671.9,891.0845 " fill="none" id="JobOpening-to-RequirementSpecification" style="stroke:#222222;stroke-width:1.0;"/><polygon fill="#222222" points="668.24,894.8345,677.3962,891.2063,671.7396,891.2635,671.6825,885.6069,668.24,894.8345" style="stroke:#222222;stroke-width:1.0;"/><text fill="#000000" font-family="sans-serif" font-size="20" lengthAdjust="spacing" textLength="70" x="839" y="739.6563">includes</text><text fill="#000000" font-family="sans-serif" font-size="20" lengthAdjust="spacing" textLength="11" x="662.8488" y="882.6391">1</text></g><!--link JobOpening to Rank--><g id="link_JobOpening_Rank"><path codeLine="98" d="M1732.66,529.5045 C1844.57,545.4745 2057.37,581.7545 2112,632.8945 C2188.86,704.8445 2206.23,836.6245 2210.03,901.7945 " fill="none" id="JobOpening-to-Rank" style="stroke:#222222;stroke-width:1.0;"/><polygon fill="#222222" points="2210.32,907.1345,2213.8263,897.9309,2210.049,902.1419,2205.838,898.3646,2210.32,907.1345" style="stroke:#222222;stroke-width:1.0;"/><text fill="#000000" font-family="sans-serif" font-size="20" lengthAdjust="spacing" textLength="70" x="2194" y="739.6563">includes</text><text fill="#000000" font-family="sans-serif" font-size="20" lengthAdjust="spacing" textLength="8" x="2201.5449" y="895.1387">*</text></g><!--link JobOpening to Application--><g id="link_JobOpening_Application"><path codeLine="99" d="M1732.84,527.6545 C1839.77,539.2945 2050.28,564.2845 2227,597.8945 C2398.72,630.5545 2597.64,682.8545 2700.45,710.9845 " fill="none" id="JobOpening-to-Application" style="stroke:#222222;stroke-width:1.0;"/><polygon fill="#222222" points="2705.28,712.3145,2697.6684,706.0645,2700.4602,710.9844,2695.5402,713.7762,2705.28,712.3145" style="stroke:#222222;stroke-width:1.0;"/><polygon fill="#000000" points="2346.1398,609.9834,2359.4837,617.2976,2361.2344,608.0574,2346.1398,609.9834" style="stroke:#000000;stroke-width:1.0;"/><text fill="#000000" font-family="sans-serif" font-size="20" lengthAdjust="spacing" textLength="118" x="2367" y="619.6563">associated to</text><text fill="#000000" font-family="sans-serif" font-size="20" lengthAdjust="spacing" textLength="11" x="2686.5997" y="704.6051">1</text></g><!--link Application to Interview--><g id="link_Application_Interview"><path codeLine="101" d="M2705.27,742.2645 C2609.07,758.4045 2435.71,793.6645 2399,842.8945 C2344.87,915.4945 2397.57,1026.8645 2432.17,1084.6645 " fill="none" id="Application-to-Interview" style="stroke:#222222;stroke-width:1.0;"/><polygon fill="#222222" points="2434.83,1089.0745,2433.5911,1079.3039,2432.2407,1084.7972,2426.7474,1083.4468,2434.83,1089.0745" style="stroke:#222222;stroke-width:1.0;"/><text fill="#000000" font-family="sans-serif" font-size="20" lengthAdjust="spacing" textLength="70" x="2400" y="949.6563">includes</text><text fill="#000000" font-family="sans-serif" font-size="20" lengthAdjust="spacing" textLength="34" x="2394.3425" y="1077.0687">0..1</text></g><!--link Application to RequirementAnswer--><g id="link_Application_RequirementAnswer"><path codeLine="102" d="M2717.93,778.0445 C2707.97,787.5645 2697.89,797.7845 2689,807.8945 C2662.48,838.0545 2636.17,875.4945 2617.98,902.8745 " fill="none" id="Application-to-RequirementAnswer" style="stroke:#222222;stroke-width:1.0;"/><polygon fill="#222222" points="2615.14,907.1745,2623.4396,901.872,2617.897,903.0033,2616.7656,897.4608,2615.14,907.1745" style="stroke:#222222;stroke-width:1.0;"/><text fill="#000000" font-family="sans-serif" font-size="20" lengthAdjust="spacing" textLength="70" x="2690" y="829.6563">includes</text><text fill="#000000" font-family="sans-serif" font-size="20" lengthAdjust="spacing" textLength="11" x="2606.8281" y="894.8928">1</text></g><!--link Application to RequirementResult--><g id="link_Application_RequirementResult"><path codeLine="103" d="M2769.54,777.9745 C2768.9,795.7945 2767.59,816.3645 2765,834.8945 C2752.33,925.5545 2724.73,1029.6545 2709.19,1084.3145 " fill="none" id="Application-to-RequirementResult" style="stroke:#222222;stroke-width:1.0;"/><polygon fill="#222222" points="2707.82,1089.1245,2714.1327,1081.5647,2709.1898,1084.3158,2706.4387,1079.373,2707.82,1089.1245" style="stroke:#222222;stroke-width:1.0;"/><text fill="#000000" font-family="sans-serif" font-size="20" lengthAdjust="spacing" textLength="70" x="2764" y="949.6563">includes</text><text fill="#000000" font-family="sans-serif" font-size="20" lengthAdjust="spacing" textLength="11" x="2697.5355" y="1077.127">1</text></g><!--link Application to File--><g id="link_Application_File"><path codeLine="104" d="M2805.18,777.9545 C2818.62,797.1445 2833.08,820.2545 2843,842.8945 C2878.95,924.9445 2898.38,1029.0945 2906.8,1084.1945 " fill="none" id="Application-to-File" style="stroke:#222222;stroke-width:1.0;"/><polygon fill="#222222" points="2907.58,1089.3645,2910.198,1079.87,2906.8369,1084.4201,2902.2868,1081.059,2907.58,1089.3645" style="stroke:#222222;stroke-width:1.0;"/><polygon fill="#000000" points="2898.4804,933.8798,2898.5754,949.0964,2907.5013,946.1345,2898.4804,933.8798" style="stroke:#000000;stroke-width:1.0;"/><text fill="#000000" font-family="sans-serif" font-size="20" lengthAdjust="spacing" textLength="85" x="2914" y="949.6563">describes</text><text fill="#000000" font-family="sans-serif" font-size="20" lengthAdjust="spacing" textLength="31" x="2873.1563" y="1077.1155">1..*</text></g><!--link Application to ApplicationDate--><g id="link_Application_ApplicationDate"><path codeLine="105" d="M2834.76,747.7345 C2887.87,763.4045 2961.61,792.7145 3008,842.8945 C3072.31,912.4545 3097.82,1025.3745 3107.14,1084.1245 " fill="none" id="Application-to-ApplicationDate" style="stroke:#222222;stroke-width:1.0;"/><polygon fill="#222222" points="3107.94,1089.2945,3110.5001,1079.7842,3107.1668,1084.3547,3102.5964,1081.0213,3107.94,1089.2945" style="stroke:#222222;stroke-width:1.0;"/><text fill="#000000" font-family="sans-serif" font-size="20" lengthAdjust="spacing" textLength="116" x="3092" y="949.6563">registered by</text><text fill="#000000" font-family="sans-serif" font-size="20" lengthAdjust="spacing" textLength="11" x="3095.2969" y="1077.0334">1</text></g><!--link Application to ApplicationStatus--><g id="link_Application_ApplicationStatus"><path codeLine="106" d="M2834.63,738.5545 C2924.47,749.2545 3090.1,776.8345 3215,842.8945 C3245.39,858.9745 3275.41,883.3645 3297.83,903.7345 " fill="none" id="Application-to-ApplicationStatus" style="stroke:#222222;stroke-width:1.0;"/><polygon fill="#222222" points="3301.64,907.2245,3297.6816,898.2062,3297.9442,903.8569,3292.2934,904.1195,3301.64,907.2245" style="stroke:#222222;stroke-width:1.0;"/><polygon fill="#000000" points="3192.4648,818.7856,3204.5167,828.0757,3207.6756,819.2175,3192.4648,818.7856" style="stroke:#000000;stroke-width:1.0;"/><text fill="#000000" font-family="sans-serif" font-size="20" lengthAdjust="spacing" textLength="101" x="3213" y="829.6563">categorizes</text><text fill="#000000" font-family="sans-serif" font-size="20" lengthAdjust="spacing" textLength="11" x="3283.9609" y="894.9514">1</text></g><!--link Interview to InterviewAnswer--><g id="link_Interview_InterviewAnswer"><path codeLine="110" d="M2479.98,1157.4945 C2516.09,1208.6645 2585.54,1303.5245 2620,1326.8945 C2696.21,1378.5845 2730,1360.7745 2818,1387.8945 C2822.07,1389.1545 2826.23,1390.4345 2830.43,1391.7245 " fill="none" id="Interview-to-InterviewAnswer" style="stroke:#222222;stroke-width:1.0;"/><polygon fill="#222222" points="2835.38,1393.2545,2827.953,1386.7862,2830.6008,1391.7851,2825.6019,1394.4329,2835.38,1393.2545" style="stroke:#222222;stroke-width:1.0;"/><text fill="#000000" font-family="sans-serif" font-size="20" lengthAdjust="spacing" textLength="106" x="2621" y="1301.1563">described in</text><text fill="#000000" font-family="sans-serif" font-size="20" lengthAdjust="spacing" textLength="11" x="2816.5029" y="1385.6029">1</text></g><!--link Interview to InterviewResult--><g id="link_Interview_InterviewResult"><path codeLine="111" d="M2453.98,1157.5445 C2448.95,1212.8445 2438.86,1323.6345 2433.51,1382.3345 " fill="none" id="Interview-to-InterviewResult" style="stroke:#222222;stroke-width:1.0;"/><polygon fill="#222222" points="2433.04,1387.5045,2437.8451,1378.9074,2433.4965,1382.5254,2429.8785,1378.1769,2433.04,1387.5045" style="stroke:#222222;stroke-width:1.0;"/><polygon fill="#000000" points="2452.7255,1285.0056,2446.7302,1298.9917,2456.096,1299.8446,2452.7255,1285.0056" style="stroke:#000000;stroke-width:1.0;"/><text fill="#000000" font-family="sans-serif" font-size="20" lengthAdjust="spacing" textLength="80" x="2465" y="1301.1563">classifies</text><text fill="#000000" font-family="sans-serif" font-size="20" lengthAdjust="spacing" textLength="11" x="2421.6326" y="1375.4872">1</text></g><!--link InterviewResult to InterviewGrade--><g id="link_InterviewResult_InterviewGrade"><path codeLine="112" d="M2514.26,1421.8945 C2549.44,1421.8945 2590.36,1421.8945 2626.11,1421.8945 " fill="none" id="InterviewResult-to-InterviewGrade" style="stroke:#222222;stroke-width:1.0;"/><polygon fill="#222222" points="2631.35,1421.8945,2622.35,1417.8945,2626.35,1421.8945,2622.35,1425.8945,2631.35,1421.8945" style="stroke:#222222;stroke-width:1.0;"/><polygon fill="#000000" points="2531.25,1405.4727,2545.7221,1410.1749,2545.7221,1400.7704,2531.25,1405.4727" style="stroke:#000000;stroke-width:1.0;"/><text fill="#000000" font-family="sans-serif" font-size="20" lengthAdjust="spacing" textLength="61" x="2552.25" y="1413.6563">grades</text><text fill="#000000" font-family="sans-serif" font-size="20" lengthAdjust="spacing" textLength="11" x="2612.6027" y="1416.5753">1</text></g><!--link InterviewResult to Justification--><g id="link_InterviewResult_Justification"><path codeLine="113" d="M2430,1456.0945 C2430,1480.0545 2430,1512.4645 2430,1537.5245 " fill="none" id="InterviewResult-to-Justification" style="stroke:#222222;stroke-width:1.0;"/><polygon fill="#222222" points="2430,1542.7645,2434,1533.7645,2430,1537.7645,2426,1533.7645,2430,1542.7645" style="stroke:#222222;stroke-width:1.0;"/><polygon fill="#000000" points="2438,1491.4727,2433.2977,1505.9448,2442.7023,1505.9448,2438,1491.4727" style="stroke:#000000;stroke-width:1.0;"/><text fill="#000000" font-family="sans-serif" font-size="20" lengthAdjust="spacing" textLength="65" x="2451" y="1507.6563">justifies</text><text fill="#000000" font-family="sans-serif" font-size="20" lengthAdjust="spacing" textLength="11" x="2418.0547" y="1530.4983">1</text></g><!--link Interview to Schedule--><g id="link_Interview_Schedule"><path codeLine="114" d="M2509.26,1157.5245 C2530.86,1170.1845 2556.53,1183.9645 2581,1193.8945 C2593.79,1199.0845 2597.95,1197.4245 2611,1201.8945 C2657.16,1217.7145 2707.51,1238.8045 2747.66,1256.5945 " fill="none" id="Interview-to-Schedule" style="stroke:#222222;stroke-width:1.0;"/><polygon fill="#222222" points="2752.51,1258.7445,2745.906,1251.4379,2747.9398,1256.7165,2742.6611,1258.7502,2752.51,1258.7445" style="stroke:#222222;stroke-width:1.0;"/><text fill="#000000" font-family="sans-serif" font-size="20" lengthAdjust="spacing" textLength="78" x="2683" y="1223.6563">follows a</text><text fill="#000000" font-family="sans-serif" font-size="20" lengthAdjust="spacing" textLength="11" x="2728.2773" y="1246.4749">1</text></g><!--link RequirementSpecification to RequirementName--><g id="link_RequirementSpecification_RequirementName"><path codeLine="115" d="M588.62,988.2845 C570.49,1013.9845 547.85,1046.0745 529.26,1072.4145 " fill="none" id="RequirementSpecification-to-RequirementName" style="stroke:#222222;stroke-width:1.0;"/><polygon fill="#222222" points="526.32,1076.5945,534.7794,1071.5509,529.2045,1072.5105,528.2449,1066.9356,526.32,1076.5945" style="stroke:#222222;stroke-width:1.0;"/><polygon fill="#000000" points="577.6121,1026.936,565.4265,1036.05,573.1109,1041.4719,577.6121,1026.936" style="stroke:#000000;stroke-width:1.0;"/><text fill="#000000" font-family="sans-serif" font-size="20" lengthAdjust="spacing" textLength="77" x="586" y="1041.6563">identifies</text><text fill="#000000" font-family="sans-serif" font-size="20" lengthAdjust="spacing" textLength="11" x="518.9239" y="1064.3668">1</text></g><!--link RequirementSpecification to RequirementDescription--><g id="link_RequirementSpecification_RequirementDescription"><path codeLine="116" d="M653.63,988.2845 C674.93,1018.2345 702.4,1056.8645 722.38,1084.9545 " fill="none" id="RequirementSpecification-to-RequirementDescription" style="stroke:#222222;stroke-width:1.0;"/><polygon fill="#222222" points="725.52,1089.3745,723.5726,1079.7201,722.626,1085.2972,717.0489,1084.3506,725.52,1089.3745" style="stroke:#222222;stroke-width:1.0;"/><polygon fill="#000000" points="695.3635,1026.9532,699.919,1041.4722,707.583,1036.0217,695.3635,1026.9532" style="stroke:#000000;stroke-width:1.0;"/><text fill="#000000" font-family="sans-serif" font-size="20" lengthAdjust="spacing" textLength="85" x="713" y="1041.6563">describes</text><text fill="#000000" font-family="sans-serif" font-size="20" lengthAdjust="spacing" textLength="11" x="709.5391" y="1077.1272">1</text></g><!--link RequirementSpecification to FullClassName--><g id="link_RequirementSpecification_FullClassName"><path codeLine="117" d="M496.8,987.9445 C473.85,997.6445 450.39,1008.4445 429,1019.8945 C392.96,1039.1945 354.96,1065.2245 326.22,1086.2245 " fill="none" id="RequirementSpecification-to-FullClassName" style="stroke:#222222;stroke-width:1.0;"/><polygon fill="#222222" points="322.05,1089.2845,331.6721,1087.1834,326.0807,1086.3259,326.9382,1080.7344,322.05,1089.2845" style="stroke:#222222;stroke-width:1.0;"/><polygon fill="#000000" points="443.9318,1029.4789,429.0446,1032.6293,433.7395,1040.7781,443.9318,1029.4789" style="stroke:#000000;stroke-width:1.0;"/><text fill="#000000" font-family="sans-serif" font-size="20" lengthAdjust="spacing" textLength="90" x="450" y="1041.6563">configures</text><text fill="#000000" font-family="sans-serif" font-size="20" lengthAdjust="spacing" textLength="11" x="317.5039" y="1077.0217">1</text></g><!--SRC=[fLVBRjiw4DthAmXtaRQuJjAYYmj12E2wST02QOkuw9wMnZ8RYTGbgGHkaN_lYB8aKjR3yjN6ZpbdXlFaI3qodb59qqI4Zn2H2BOqJ_HASBrclu6yl_OkTbfdoh-woXBATPucbw58hyA4AZMF68sHx7cgqaECOA6rP9jSm-TGSAFesjkn20YacTuJMebLc_YHXe-n53cFbY8Haco0nM215bAAvrBqwhrvF7m8FePE5b4a0J-3uFNFVrwjLlz-_73zXZpH90SYDhyWr3StvCzBGV8oj4LZ8BCWe74i8QOQKFe0_-LCGWfSatK68Tkoa6ec-8pyCPPGmD092-V0q7Q9G5r188KeJ1OscrDQrAyqXU7J1W463XLk6SZoy9sAFe4A9SiE9nZslb6mofDaMNmRFmVoNhoBnTtTm-tTuiVjkYz-NyI6VCk0Cnwt8eQIWw0pHix14BlAUJZHdSR2MbETgmdK9PQyfA7-iSzW0krUH5FWN_Dq0_8d3IaFzoVnQkhK13SXUO0jIE3XMOLMbnhbZuDyKnzzHR7CbHOfI79FEOfbgp8gyK7Qsq8lO_fxz9xGanLqEPhGeOPSYZIZV7zYD_M6Qv5bIVVKiIIMKpq-MU1Fg7X2dLhCoPtqcMkGJmoUXpcaXxNWwjbax0pk0oYylIPnls3UxTbzXjKxISTgfly2ECDTYts6m_ydqEjm1r6Um9G1j6B9IRs0XBxcfZnY4NvlTtVrlztUTN-xVLb1J-hCXlTz9pYKGti2wpQbB1dVGSmQSZ6VU_MOcizloEpTvUNRcNrP-aG1ZrGRDdEcZK-OmlMjk2CskCXjziVmQZaoK5puC1mHxc8TUkrPQD3rn3EQxJDN8xlW1VCvgSa-IOr8aPiZSAUVFi6CCuNLgJe81UFQCEmHw1FnX7YWQiX6KoZreGw1hmKMsjMlyatAjEg6EacY1G_TtGhfe0z1DKNXjoBPrZfpAzKdEwgwb5brMM8ARwpJr43t_aVpF4noB1CNVC3U7_8zX74tc3vmXRPARaYflUsDgRJte36iizGDd-5eTVJBPgvJrMcWzoN0CdRCV5imYtrg92nk9U9XHCXCqsf10i-pnNM38A-vW2tzBhWqS7mDzHAE6OUhPvXXkiJS07uzd72Nw5RUNbUQWL1ceCk5uqK5yuRaM4XyxInCbPtUnAGsrxe8VMjwCZv8A5st2gImqrv2sYIp9VWaBZuwyLKXsWk9JtwLFrrA3QulP1_7JfA8PqMerrkK7Laifqmzb0ehK-XMCxe97bNYl7bYA0NViZYNXlmN]--></g></svg>