<?xml version="1.0" encoding="UTF-8" standalone="no"?><svg xmlns="http://www.w3.org/2000/svg" xmlns:xlink="http://www.w3.org/1999/xlink" contentStyleType="text/css" height="1083px" preserveAspectRatio="none" style="width:1826px;height:1083px;background:#FFFFFF;" version="1.1" viewBox="0 0 1826 1083" width="1826px" zoomAndPan="magnify"><defs/><g><text fill="#000000" font-family="sans-serif" font-size="14" font-weight="bold" lengthAdjust="spacing" textLength="154" x="829.25" y="24.5332">US1015 Class Diagram</text><!--class AbstractUI--><g id="elem_AbstractUI"><rect codeLine="7" fill="#F1F1F1" height="126.625" id="AbstractUI" rx="2.5" ry="2.5" style="stroke:#181818;stroke-width:0.5;" width="126" x="982" y="45.6094"/><ellipse cx="998.45" cy="63.1875" fill="#A9DCDF" rx="12" ry="12" style="stroke:#181818;stroke-width:1.0;"/><path d="M1000.9031,65.2188 L996.0281,65.2188 L995.5438,66.4375 L996.0281,66.4375 Q996.7625,66.4375 997.0594,66.7188 Q997.3719,66.9844 997.3719,67.4375 Q997.3719,67.875 997.0594,68.1563 Q996.7625,68.4375 996.0281,68.4375 L993.3406,68.4375 Q992.6219,68.4375 992.3094,68.1563 Q991.9969,67.875 991.9969,67.4375 Q991.9969,66.9844 992.325,66.7031 Q992.6531,66.4219 993.3875,66.4375 L996.5281,58.6094 L995.2313,58.6094 Q994.4969,58.6094 994.1844,58.3281 Q993.8875,58.0469 993.8875,57.5938 Q993.8875,57.1406 994.1844,56.875 Q994.4969,56.5938 995.2313,56.5938 L999.5438,56.5938 L1003.5281,66.4375 Q1004.2313,66.4375 1004.4656,66.5938 Q1004.9188,66.9063 1004.9188,67.4375 Q1004.9188,67.875 1004.6063,68.1563 Q1004.3094,68.4375 1003.5906,68.4375 L1000.8875,68.4375 Q1000.1688,68.4375 999.8563,68.1563 Q999.5438,67.875 999.5438,67.4375 Q999.5438,66.9844 999.8563,66.7188 Q1000.1688,66.4375 1000.8875,66.4375 L1001.3719,66.4375 L1000.9031,65.2188 Z M1000.075,63.2188 L998.45,59.25 L996.8406,63.2188 L1000.075,63.2188 Z " fill="#000000"/><text fill="#000000" font-family="sans-serif" font-size="20" font-style="italic" lengthAdjust="spacing" textLength="91" x="1013.55" y="71.3711">AbstractUI</text><line style="stroke:#181818;stroke-width:0.5;" x1="983" x2="1107" y1="80.7656" y2="80.7656"/><line style="stroke:#181818;stroke-width:0.5;" x1="983" x2="1107" y1="88.7656" y2="88.7656"/><polygon fill="#FFFF44" points="993,101.8438,997,105.8438,993,109.8438,989,105.8438" style="stroke:#B38D22;stroke-width:1.0;"/><text fill="#000000" font-family="sans-serif" font-size="20" lengthAdjust="spacing" textLength="85" x="1003" y="113.5273">doShow()</text><polygon fill="#FFFF44" points="993,127,997,131,993,135,989,131" style="stroke:#B38D22;stroke-width:1.0;"/><text fill="#000000" font-family="sans-serif" font-size="20" lengthAdjust="spacing" textLength="60" x="1003" y="138.6836">show()</text><polygon fill="#FFFF44" points="993,152.1563,997,156.1563,993,160.1563,989,156.1563" style="stroke:#B38D22;stroke-width:1.0;"/><text fill="#000000" font-family="sans-serif" font-size="20" lengthAdjust="spacing" textLength="99" x="1003" y="163.8398">mainLoop()</text></g><!--class VerifyRequirementUI--><g id="elem_VerifyRequirementUI"><rect codeLine="14" fill="#F1F1F1" height="76.3125" id="VerifyRequirementUI" rx="2.5" ry="2.5" style="stroke:#181818;stroke-width:0.5;" width="215" x="937.5" y="232.6094"/><ellipse cx="953.5" cy="250.1875" fill="#ADD1B2" rx="12" ry="12" style="stroke:#181818;stroke-width:1.0;"/><path d="M955.6406,245.1094 Q955.8281,244.8594 956.0469,244.7344 Q956.2656,244.5938 956.5156,244.5938 Q956.9531,244.5938 957.2344,244.9063 Q957.5156,245.2031 957.5156,245.9219 L957.5156,247.625 Q957.5156,248.3438 957.2344,248.6563 Q956.9531,248.9688 956.5156,248.9688 Q956.125,248.9688 955.875,248.7344 Q955.625,248.5156 955.5156,247.9063 Q955.4531,247.4844 955.2344,247.2656 Q954.8438,246.8281 954.125,246.5625 Q953.4063,246.2969 952.6875,246.2969 Q951.7813,246.2969 951.0313,246.6875 Q950.2813,247.0781 949.7031,247.9688 Q949.125,248.8438 949.125,250.0469 L949.125,251.3438 Q949.125,252.7969 950.1719,253.7656 Q951.2344,254.7344 953.0938,254.7344 Q954.2031,254.7344 954.9844,254.4219 Q955.4219,254.25 955.9375,253.7344 Q956.25,253.4219 956.4219,253.3281 Q956.5938,253.2344 956.8281,253.2344 Q957.2188,253.2344 957.5156,253.5469 Q957.8281,253.8438 957.8281,254.25 Q957.8281,254.6563 957.4219,255.125 Q956.8281,255.8125 955.8906,256.2031 Q954.625,256.7344 953.1094,256.7344 Q951.3281,256.7344 949.9063,256 Q948.75,255.4063 947.9375,254.1406 Q947.125,252.875 947.125,251.3906 L947.125,250.0313 Q947.125,248.4688 947.8438,247.125 Q948.5781,245.7656 949.8594,245.0313 Q951.1563,244.2969 952.6094,244.2969 Q953.4688,244.2969 954.2188,244.5 Q954.9844,244.7031 955.6406,245.1094 Z " fill="#000000"/><text fill="#000000" font-family="sans-serif" font-size="20" lengthAdjust="spacing" textLength="181" x="968.5" y="258.3711">VerifyRequirementUI</text><line style="stroke:#181818;stroke-width:0.5;" x1="938.5" x2="1151.5" y1="267.7656" y2="267.7656"/><line style="stroke:#181818;stroke-width:0.5;" x1="938.5" x2="1151.5" y1="275.7656" y2="275.7656"/><ellipse cx="948.5" cy="293.8438" fill="#84BE84" rx="3" ry="3" style="stroke:#038048;stroke-width:1.0;"/><text fill="#000000" font-family="sans-serif" font-size="20" lengthAdjust="spacing" textLength="85" x="958.5" y="300.5273">doShow()</text></g><!--class VerifyRequirementsController--><g id="elem_VerifyRequirementsController"><rect codeLine="18" fill="#F1F1F1" height="126.625" id="VerifyRequirementsController" rx="2.5" ry="2.5" style="stroke:#181818;stroke-width:0.5;" width="453" x="818.5" y="429.6094"/><ellipse cx="912" cy="447.1875" fill="#ADD1B2" rx="12" ry="12" style="stroke:#181818;stroke-width:1.0;"/><path d="M914.1406,442.1094 Q914.3281,441.8594 914.5469,441.7344 Q914.7656,441.5938 915.0156,441.5938 Q915.4531,441.5938 915.7344,441.9063 Q916.0156,442.2031 916.0156,442.9219 L916.0156,444.625 Q916.0156,445.3438 915.7344,445.6563 Q915.4531,445.9688 915.0156,445.9688 Q914.625,445.9688 914.375,445.7344 Q914.125,445.5156 914.0156,444.9063 Q913.9531,444.4844 913.7344,444.2656 Q913.3438,443.8281 912.625,443.5625 Q911.9063,443.2969 911.1875,443.2969 Q910.2813,443.2969 909.5313,443.6875 Q908.7813,444.0781 908.2031,444.9688 Q907.625,445.8438 907.625,447.0469 L907.625,448.3438 Q907.625,449.7969 908.6719,450.7656 Q909.7344,451.7344 911.5938,451.7344 Q912.7031,451.7344 913.4844,451.4219 Q913.9219,451.25 914.4375,450.7344 Q914.75,450.4219 914.9219,450.3281 Q915.0938,450.2344 915.3281,450.2344 Q915.7188,450.2344 916.0156,450.5469 Q916.3281,450.8438 916.3281,451.25 Q916.3281,451.6563 915.9219,452.125 Q915.3281,452.8125 914.3906,453.2031 Q913.125,453.7344 911.6094,453.7344 Q909.8281,453.7344 908.4063,453 Q907.25,452.4063 906.4375,451.1406 Q905.625,449.875 905.625,448.3906 L905.625,447.0313 Q905.625,445.4688 906.3438,444.125 Q907.0781,442.7656 908.3594,442.0313 Q909.6563,441.2969 911.1094,441.2969 Q911.9688,441.2969 912.7188,441.5 Q913.4844,441.7031 914.1406,442.1094 Z " fill="#000000"/><text fill="#000000" font-family="sans-serif" font-size="20" lengthAdjust="spacing" textLength="257" x="934" y="455.3711">VerifyRequirementsController</text><line style="stroke:#181818;stroke-width:0.5;" x1="819.5" x2="1270.5" y1="464.7656" y2="464.7656"/><line style="stroke:#181818;stroke-width:0.5;" x1="819.5" x2="1270.5" y1="472.7656" y2="472.7656"/><ellipse cx="829.5" cy="490.8438" fill="#84BE84" rx="3" ry="3" style="stroke:#038048;stroke-width:1.0;"/><text fill="#000000" font-family="sans-serif" font-size="20" lengthAdjust="spacing" textLength="357" x="839.5" y="497.5273">getJobOpeningList() : jobOpeningListDto</text><ellipse cx="829.5" cy="516" fill="#84BE84" rx="3" ry="3" style="stroke:#038048;stroke-width:1.0;"/><text fill="#000000" font-family="sans-serif" font-size="20" lengthAdjust="spacing" textLength="390" x="839.5" y="522.6836">verifyAvailableRequirements(jobOpeningDto)</text><rect fill="#F24D5C" height="6" style="stroke:#C82930;stroke-width:1.0;" width="6" x="826.5" y="538.1563"/><text fill="#000000" font-family="sans-serif" font-size="20" lengthAdjust="spacing" textLength="426" x="839.5" y="547.8398">verifyRequirementsOfApplications(jobReference)</text></g><!--class RequirementSpecificationPlugin--><g id="elem_RequirementSpecificationPlugin"><rect codeLine="25" fill="#F1F1F1" height="76.3125" id="RequirementSpecificationPlugin" rx="2.5" ry="2.5" style="stroke:#181818;stroke-width:0.5;" width="318" x="7" y="616.6094"/><ellipse cx="23" cy="634.1875" fill="#B4A7E5" rx="12" ry="12" style="stroke:#181818;stroke-width:1.0;"/><path d="M24,630.3594 L24,638.1875 L26.0313,638.1875 Q26.75,638.1875 27.0469,638.4688 Q27.3594,638.7344 27.3594,639.1875 Q27.3594,639.625 27.0469,639.9063 Q26.75,640.1875 26.0313,640.1875 L19.9844,640.1875 Q19.25,640.1875 18.9375,639.9063 Q18.6406,639.625 18.6406,639.1875 Q18.6406,638.7344 18.9375,638.4688 Q19.25,638.1875 19.9844,638.1875 L22,638.1875 L22,630.3594 L19.9844,630.3594 Q19.25,630.3594 18.9375,630.0781 Q18.6406,629.7969 18.6406,629.3438 Q18.6406,628.8906 18.9375,628.625 Q19.25,628.3438 19.9844,628.3438 L26.0313,628.3438 Q26.75,628.3438 27.0469,628.625 Q27.3594,628.8906 27.3594,629.3438 Q27.3594,629.7969 27.0469,630.0781 Q26.75,630.3594 26.0313,630.3594 L24,630.3594 Z " fill="#000000"/><text fill="#000000" font-family="sans-serif" font-size="20" font-style="italic" lengthAdjust="spacing" textLength="284" x="38" y="642.3711">RequirementSpecificationPlugin</text><line style="stroke:#181818;stroke-width:0.5;" x1="8" x2="324" y1="651.7656" y2="651.7656"/><line style="stroke:#181818;stroke-width:0.5;" x1="8" x2="324" y1="659.7656" y2="659.7656"/><ellipse cx="18" cy="677.8438" fill="#84BE84" rx="3" ry="3" style="stroke:#038048;stroke-width:1.0;"/><text fill="#000000" font-family="sans-serif" font-size="20" lengthAdjust="spacing" textLength="223" x="28" y="684.5273">evaluateFile(file) : Integer</text></g><!--class ApplicationRepository--><g id="elem_ApplicationRepository"><rect codeLine="29" fill="#F1F1F1" height="76.3125" id="ApplicationRepository" rx="2.5" ry="2.5" style="stroke:#181818;stroke-width:0.5;" width="760" x="360" y="616.6094"/><ellipse cx="639" cy="634.1875" fill="#B4A7E5" rx="12" ry="12" style="stroke:#181818;stroke-width:1.0;"/><path d="M640,630.3594 L640,638.1875 L642.0313,638.1875 Q642.75,638.1875 643.0469,638.4688 Q643.3594,638.7344 643.3594,639.1875 Q643.3594,639.625 643.0469,639.9063 Q642.75,640.1875 642.0313,640.1875 L635.9844,640.1875 Q635.25,640.1875 634.9375,639.9063 Q634.6406,639.625 634.6406,639.1875 Q634.6406,638.7344 634.9375,638.4688 Q635.25,638.1875 635.9844,638.1875 L638,638.1875 L638,630.3594 L635.9844,630.3594 Q635.25,630.3594 634.9375,630.0781 Q634.6406,629.7969 634.6406,629.3438 Q634.6406,628.8906 634.9375,628.625 Q635.25,628.3438 635.9844,628.3438 L642.0313,628.3438 Q642.75,628.3438 643.0469,628.625 Q643.3594,628.8906 643.3594,629.3438 Q643.3594,629.7969 643.0469,630.0781 Q642.75,630.3594 642.0313,630.3594 L640,630.3594 Z " fill="#000000"/><text fill="#000000" font-family="sans-serif" font-size="20" font-style="italic" lengthAdjust="spacing" textLength="193" x="661" y="642.3711">ApplicationRepository</text><line style="stroke:#181818;stroke-width:0.5;" x1="361" x2="1119" y1="651.7656" y2="651.7656"/><line style="stroke:#181818;stroke-width:0.5;" x1="361" x2="1119" y1="659.7656" y2="659.7656"/><ellipse cx="371" cy="677.8438" fill="#84BE84" rx="3" ry="3" style="stroke:#038048;stroke-width:1.0;"/><text fill="#000000" font-family="sans-serif" font-size="20" lengthAdjust="spacing" textLength="733" x="381" y="684.5273">applicationsForJobOpeningWithRequirements(jobReference) : Iterable&lt;Application&gt;</text></g><!--class Application--><g id="elem_Application"><rect codeLine="33" fill="#F1F1F1" height="76.3125" id="Application" rx="2.5" ry="2.5" style="stroke:#181818;stroke-width:0.5;" width="315" x="582.5" y="826.1094"/><ellipse cx="688" cy="843.6875" fill="#ADD1B2" rx="12" ry="12" style="stroke:#181818;stroke-width:1.0;"/><path d="M690.1406,838.6094 Q690.3281,838.3594 690.5469,838.2344 Q690.7656,838.0938 691.0156,838.0938 Q691.4531,838.0938 691.7344,838.4063 Q692.0156,838.7031 692.0156,839.4219 L692.0156,841.125 Q692.0156,841.8438 691.7344,842.1563 Q691.4531,842.4688 691.0156,842.4688 Q690.625,842.4688 690.375,842.2344 Q690.125,842.0156 690.0156,841.4063 Q689.9531,840.9844 689.7344,840.7656 Q689.3438,840.3281 688.625,840.0625 Q687.9063,839.7969 687.1875,839.7969 Q686.2813,839.7969 685.5313,840.1875 Q684.7813,840.5781 684.2031,841.4688 Q683.625,842.3438 683.625,843.5469 L683.625,844.8438 Q683.625,846.2969 684.6719,847.2656 Q685.7344,848.2344 687.5938,848.2344 Q688.7031,848.2344 689.4844,847.9219 Q689.9219,847.75 690.4375,847.2344 Q690.75,846.9219 690.9219,846.8281 Q691.0938,846.7344 691.3281,846.7344 Q691.7188,846.7344 692.0156,847.0469 Q692.3281,847.3438 692.3281,847.75 Q692.3281,848.1563 691.9219,848.625 Q691.3281,849.3125 690.3906,849.7031 Q689.125,850.2344 687.6094,850.2344 Q685.8281,850.2344 684.4063,849.5 Q683.25,848.9063 682.4375,847.6406 Q681.625,846.375 681.625,844.8906 L681.625,843.5313 Q681.625,841.9688 682.3438,840.625 Q683.0781,839.2656 684.3594,838.5313 Q685.6563,837.7969 687.1094,837.7969 Q687.9688,837.7969 688.7188,838 Q689.4844,838.2031 690.1406,838.6094 Z " fill="#000000"/><text fill="#000000" font-family="sans-serif" font-size="20" lengthAdjust="spacing" textLength="95" x="710" y="851.8711">Application</text><line style="stroke:#181818;stroke-width:0.5;" x1="583.5" x2="896.5" y1="861.2656" y2="861.2656"/><line style="stroke:#181818;stroke-width:0.5;" x1="583.5" x2="896.5" y1="869.2656" y2="869.2656"/><ellipse cx="593.5" cy="887.3438" fill="#84BE84" rx="3" ry="3" style="stroke:#038048;stroke-width:1.0;"/><text fill="#000000" font-family="sans-serif" font-size="20" lengthAdjust="spacing" textLength="288" x="603.5" y="894.0273">updateRequirementResult(result)</text></g><!--class AuthorizationService--><g id="elem_AuthorizationService"><rect codeLine="38" fill="#F1F1F1" height="76.3125" id="AuthorizationService" rx="2.5" ry="2.5" style="stroke:#181818;stroke-width:0.5;" width="392" x="1155" y="616.6094"/><ellipse cx="1258" cy="634.1875" fill="#ADD1B2" rx="12" ry="12" style="stroke:#181818;stroke-width:1.0;"/><path d="M1260.1406,629.1094 Q1260.3281,628.8594 1260.5469,628.7344 Q1260.7656,628.5938 1261.0156,628.5938 Q1261.4531,628.5938 1261.7344,628.9063 Q1262.0156,629.2031 1262.0156,629.9219 L1262.0156,631.625 Q1262.0156,632.3438 1261.7344,632.6563 Q1261.4531,632.9688 1261.0156,632.9688 Q1260.625,632.9688 1260.375,632.7344 Q1260.125,632.5156 1260.0156,631.9063 Q1259.9531,631.4844 1259.7344,631.2656 Q1259.3438,630.8281 1258.625,630.5625 Q1257.9063,630.2969 1257.1875,630.2969 Q1256.2813,630.2969 1255.5313,630.6875 Q1254.7813,631.0781 1254.2031,631.9688 Q1253.625,632.8438 1253.625,634.0469 L1253.625,635.3438 Q1253.625,636.7969 1254.6719,637.7656 Q1255.7344,638.7344 1257.5938,638.7344 Q1258.7031,638.7344 1259.4844,638.4219 Q1259.9219,638.25 1260.4375,637.7344 Q1260.75,637.4219 1260.9219,637.3281 Q1261.0938,637.2344 1261.3281,637.2344 Q1261.7188,637.2344 1262.0156,637.5469 Q1262.3281,637.8438 1262.3281,638.25 Q1262.3281,638.6563 1261.9219,639.125 Q1261.3281,639.8125 1260.3906,640.2031 Q1259.125,640.7344 1257.6094,640.7344 Q1255.8281,640.7344 1254.4063,640 Q1253.25,639.4063 1252.4375,638.1406 Q1251.625,636.875 1251.625,635.3906 L1251.625,634.0313 Q1251.625,632.4688 1252.3438,631.125 Q1253.0781,629.7656 1254.3594,629.0313 Q1255.6563,628.2969 1257.1094,628.2969 Q1257.9688,628.2969 1258.7188,628.5 Q1259.4844,628.7031 1260.1406,629.1094 Z " fill="#000000"/><text fill="#000000" font-family="sans-serif" font-size="20" lengthAdjust="spacing" textLength="177" x="1280" y="642.3711">AuthorizationService</text><line style="stroke:#181818;stroke-width:0.5;" x1="1156" x2="1546" y1="651.7656" y2="651.7656"/><line style="stroke:#181818;stroke-width:0.5;" x1="1156" x2="1546" y1="659.7656" y2="659.7656"/><ellipse cx="1166" cy="677.8438" fill="#84BE84" rx="3" ry="3" style="stroke:#038048;stroke-width:1.0;"/><text fill="#000000" font-family="sans-serif" font-size="20" lengthAdjust="spacing" textLength="365" x="1176" y="684.5273">ensureAuthenticatedUserHasAnyOf(roles)</text></g><!--class RequirementSpecificationAnswer--><g id="elem_RequirementSpecificationAnswer"><rect codeLine="43" fill="#F1F1F1" height="101.4688" id="RequirementSpecificationAnswer" rx="2.5" ry="2.5" style="stroke:#181818;stroke-width:0.5;" width="322" x="403" y="974.6094"/><ellipse cx="419" cy="1004.7656" fill="#FF8B40" rx="12" ry="12" style="stroke:#181818;stroke-width:1.0;"/><path d="M419.5,1008.8438 L422.3906,1001.9375 L421.9375,1001.9375 Q421.2188,1001.9375 420.9063,1001.6563 Q420.5938,1001.375 420.5938,1000.9219 Q420.5938,1000.4688 420.9063,1000.2031 Q421.2188,999.9219 421.9375,999.9219 L424.625,999.9219 Q425.3438,999.9219 425.6563,1000.2031 Q425.9688,1000.4688 425.9688,1000.9219 Q425.9688,1001.4688 425.5,1001.7813 Q425.2656,1001.9375 424.5781,1001.9375 L420.4688,1011.7656 L418.5469,1011.7656 L414.4375,1001.9375 Q413.7344,1001.9375 413.5156,1001.7813 Q413.0469,1001.4688 413.0469,1000.9219 Q413.0469,1000.4688 413.3594,1000.2031 Q413.6563,999.9219 414.375,999.9219 L417.0781,999.9219 Q417.7969,999.9219 418.0938,1000.2031 Q418.4063,1000.4688 418.4063,1000.9219 Q418.4063,1001.375 418.1094,1001.6563 Q417.8125,1001.9375 417.0781,1001.9375 L416.6094,1001.9375 L419.5,1008.8438 Z " fill="#000000"/><text fill="#000000" font-family="sans-serif" font-size="20" font-style="italic" lengthAdjust="spacing" textLength="128" x="514" y="1000.3711">«value object»</text><text fill="#000000" font-family="sans-serif" font-size="20" lengthAdjust="spacing" textLength="288" x="434" y="1025.5273">RequirementSpecificationAnswer</text><line style="stroke:#181818;stroke-width:0.5;" x1="404" x2="724" y1="1034.9219" y2="1034.9219"/><rect fill="none" height="6" style="stroke:#C82930;stroke-width:1.0;" width="6" x="411" y="1050"/><text fill="#000000" font-family="sans-serif" font-size="20" lengthAdjust="spacing" textLength="94" x="424" y="1059.6836">file : String</text><line style="stroke:#181818;stroke-width:0.5;" x1="404" x2="724" y1="1068.0781" y2="1068.0781"/></g><!--class RequirementSpecificationResult--><g id="elem_RequirementSpecificationResult"><rect codeLine="47" fill="#F1F1F1" height="101.4688" id="RequirementSpecificationResult" rx="2.5" ry="2.5" style="stroke:#181818;stroke-width:0.5;" width="311" x="760.5" y="974.6094"/><ellipse cx="776.5" cy="1004.7656" fill="#FF8B40" rx="12" ry="12" style="stroke:#181818;stroke-width:1.0;"/><path d="M777,1008.8438 L779.8906,1001.9375 L779.4375,1001.9375 Q778.7188,1001.9375 778.4063,1001.6563 Q778.0938,1001.375 778.0938,1000.9219 Q778.0938,1000.4688 778.4063,1000.2031 Q778.7188,999.9219 779.4375,999.9219 L782.125,999.9219 Q782.8438,999.9219 783.1563,1000.2031 Q783.4688,1000.4688 783.4688,1000.9219 Q783.4688,1001.4688 783,1001.7813 Q782.7656,1001.9375 782.0781,1001.9375 L777.9688,1011.7656 L776.0469,1011.7656 L771.9375,1001.9375 Q771.2344,1001.9375 771.0156,1001.7813 Q770.5469,1001.4688 770.5469,1000.9219 Q770.5469,1000.4688 770.8594,1000.2031 Q771.1563,999.9219 771.875,999.9219 L774.5781,999.9219 Q775.2969,999.9219 775.5938,1000.2031 Q775.9063,1000.4688 775.9063,1000.9219 Q775.9063,1001.375 775.6094,1001.6563 Q775.3125,1001.9375 774.5781,1001.9375 L774.1094,1001.9375 L777,1008.8438 Z " fill="#000000"/><text fill="#000000" font-family="sans-serif" font-size="20" font-style="italic" lengthAdjust="spacing" textLength="128" x="866" y="1000.3711">«value object»</text><text fill="#000000" font-family="sans-serif" font-size="20" lengthAdjust="spacing" textLength="277" x="791.5" y="1025.5273">RequirementSpecificationResult</text><line style="stroke:#181818;stroke-width:0.5;" x1="761.5" x2="1070.5" y1="1034.9219" y2="1034.9219"/><rect fill="none" height="6" style="stroke:#C82930;stroke-width:1.0;" width="6" x="768.5" y="1050"/><text fill="#000000" font-family="sans-serif" font-size="20" lengthAdjust="spacing" textLength="137" x="781.5" y="1059.6836">result : Boolean</text><line style="stroke:#181818;stroke-width:0.5;" x1="761.5" x2="1070.5" y1="1068.0781" y2="1068.0781"/></g><!--class JobOpeningRepository--><g id="elem_JobOpeningRepository"><rect codeLine="51" fill="#F1F1F1" height="51.1563" id="JobOpeningRepository" rx="2.5" ry="2.5" style="stroke:#181818;stroke-width:0.5;" width="237" x="1582.5" y="629.1094"/><ellipse cx="1598.5" cy="646.6875" fill="#B4A7E5" rx="12" ry="12" style="stroke:#181818;stroke-width:1.0;"/><path d="M1599.5,642.8594 L1599.5,650.6875 L1601.5313,650.6875 Q1602.25,650.6875 1602.5469,650.9688 Q1602.8594,651.2344 1602.8594,651.6875 Q1602.8594,652.125 1602.5469,652.4063 Q1602.25,652.6875 1601.5313,652.6875 L1595.4844,652.6875 Q1594.75,652.6875 1594.4375,652.4063 Q1594.1406,652.125 1594.1406,651.6875 Q1594.1406,651.2344 1594.4375,650.9688 Q1594.75,650.6875 1595.4844,650.6875 L1597.5,650.6875 L1597.5,642.8594 L1595.4844,642.8594 Q1594.75,642.8594 1594.4375,642.5781 Q1594.1406,642.2969 1594.1406,641.8438 Q1594.1406,641.3906 1594.4375,641.125 Q1594.75,640.8438 1595.4844,640.8438 L1601.5313,640.8438 Q1602.25,640.8438 1602.5469,641.125 Q1602.8594,641.3906 1602.8594,641.8438 Q1602.8594,642.2969 1602.5469,642.5781 Q1602.25,642.8594 1601.5313,642.8594 L1599.5,642.8594 Z " fill="#000000"/><text fill="#000000" font-family="sans-serif" font-size="20" font-style="italic" lengthAdjust="spacing" textLength="203" x="1613.5" y="654.8711">JobOpeningRepository</text><line style="stroke:#181818;stroke-width:0.5;" x1="1583.5" x2="1818.5" y1="664.2656" y2="664.2656"/><line style="stroke:#181818;stroke-width:0.5;" x1="1583.5" x2="1818.5" y1="672.2656" y2="672.2656"/></g><!--class DomainRepository--><g id="elem_DomainRepository"><rect codeLine="56" fill="#F1F1F1" height="101.4688" id="DomainRepository" rx="2.5" ry="2.5" style="stroke:#181818;stroke-width:0.5;" width="198" x="1267" y="813.6094"/><ellipse cx="1283" cy="831.1875" fill="#B4A7E5" rx="12" ry="12" style="stroke:#181818;stroke-width:1.0;"/><path d="M1284,827.3594 L1284,835.1875 L1286.0313,835.1875 Q1286.75,835.1875 1287.0469,835.4688 Q1287.3594,835.7344 1287.3594,836.1875 Q1287.3594,836.625 1287.0469,836.9063 Q1286.75,837.1875 1286.0313,837.1875 L1279.9844,837.1875 Q1279.25,837.1875 1278.9375,836.9063 Q1278.6406,836.625 1278.6406,836.1875 Q1278.6406,835.7344 1278.9375,835.4688 Q1279.25,835.1875 1279.9844,835.1875 L1282,835.1875 L1282,827.3594 L1279.9844,827.3594 Q1279.25,827.3594 1278.9375,827.0781 Q1278.6406,826.7969 1278.6406,826.3438 Q1278.6406,825.8906 1278.9375,825.625 Q1279.25,825.3438 1279.9844,825.3438 L1286.0313,825.3438 Q1286.75,825.3438 1287.0469,825.625 Q1287.3594,825.8906 1287.3594,826.3438 Q1287.3594,826.7969 1287.0469,827.0781 Q1286.75,827.3594 1286.0313,827.3594 L1284,827.3594 Z " fill="#000000"/><text fill="#000000" font-family="sans-serif" font-size="20" font-style="italic" lengthAdjust="spacing" textLength="164" x="1298" y="839.3711">DomainRepository</text><line style="stroke:#181818;stroke-width:0.5;" x1="1268" x2="1464" y1="848.7656" y2="848.7656"/><line style="stroke:#181818;stroke-width:0.5;" x1="1268" x2="1464" y1="856.7656" y2="856.7656"/><ellipse cx="1278" cy="874.8438" fill="#84BE84" rx="3" ry="3" style="stroke:#038048;stroke-width:1.0;"/><text fill="#000000" font-family="sans-serif" font-size="20" lengthAdjust="spacing" textLength="95" x="1288" y="881.5273">ofIdentity()</text><ellipse cx="1278" cy="900" fill="#84BE84" rx="3" ry="3" style="stroke:#038048;stroke-width:1.0;"/><text fill="#000000" font-family="sans-serif" font-size="20" lengthAdjust="spacing" textLength="55" x="1288" y="906.6836">save()</text></g><!--reverse link AbstractUI to VerifyRequirementUI--><g id="link_AbstractUI_VerifyRequirementUI"><path codeLine="61" d="M1045,192.9294 C1045,206.8094 1045,220.5694 1045,232.5194 " fill="none" id="AbstractUI-backto-VerifyRequirementUI" style="stroke:#181818;stroke-width:1.0;"/><polygon fill="none" points="1038,192.6894,1045,172.6894,1052,192.6894,1038,192.6894" style="stroke:#181818;stroke-width:1.0;"/></g><!--link VerifyRequirementUI to VerifyRequirementsController--><g id="link_VerifyRequirementUI_VerifyRequirementsController"><path codeLine="63" d="M1045,309.0094 C1045,340.5294 1045,386.4194 1045,424.3694 " fill="none" id="VerifyRequirementUI-to-VerifyRequirementsController" style="stroke:#181818;stroke-width:1.0;stroke-dasharray:7.0,7.0;"/><polygon fill="#181818" points="1045,429.4294,1049,420.4294,1045,424.4294,1041,420.4294,1045,429.4294" style="stroke:#181818;stroke-width:1.0;"/></g><!--link VerifyRequirementsController to AuthorizationService--><g id="link_VerifyRequirementsController_AuthorizationService"><path codeLine="65" d="M1165.06,556.6894 C1202.24,576.0694 1242.14,596.8694 1275.41,614.2094 " fill="none" id="VerifyRequirementsController-to-AuthorizationService" style="stroke:#181818;stroke-width:1.0;"/><polygon fill="#181818" points="1279.85,616.5194,1273.7261,608.8059,1275.4186,614.2036,1270.0209,615.8961,1279.85,616.5194" style="stroke:#181818;stroke-width:1.0;"/></g><!--link VerifyRequirementsController to JobOpeningRepository--><g id="link_VerifyRequirementsController_JobOpeningRepository"><path codeLine="66" d="M1271.61,545.7194 C1362.93,566.9794 1469.14,592.2894 1565,616.6094 C1578.85,620.1194 1593.46,623.9594 1607.76,627.7894 " fill="none" id="VerifyRequirementsController-to-JobOpeningRepository" style="stroke:#181818;stroke-width:1.0;"/><polygon fill="#181818" points="1612.6,629.0894,1604.9494,622.8872,1607.7719,627.7895,1602.8696,630.6121,1612.6,629.0894" style="stroke:#181818;stroke-width:1.0;"/></g><!--link VerifyRequirementsController to ApplicationRepository--><g id="link_VerifyRequirementsController_ApplicationRepository"><path codeLine="67" d="M925.33,556.6894 C888.43,575.9894 848.83,596.6994 815.75,613.9994 " fill="none" id="VerifyRequirementsController-to-ApplicationRepository" style="stroke:#181818;stroke-width:1.0;"/><polygon fill="#181818" points="810.92,616.5194,820.7499,615.9091,815.3544,614.2095,817.0541,608.814,810.92,616.5194" style="stroke:#181818;stroke-width:1.0;"/></g><!--link VerifyRequirementsController to RequirementSpecificationPlugin--><g id="link_VerifyRequirementsController_RequirementSpecificationPlugin"><path codeLine="68" d="M818.27,531.5694 C680.35,554.8594 500.77,586.0994 342,616.6094 C338.12,617.3594 334.19,618.1194 330.23,618.8894 " fill="none" id="VerifyRequirementsController-to-RequirementSpecificationPlugin" style="stroke:#181818;stroke-width:1.0;"/><polygon fill="#181818" points="325.2,619.8794,334.7987,622.085,330.1078,618.9235,333.2693,614.2326,325.2,619.8794" style="stroke:#181818;stroke-width:1.0;"/></g><!--link ApplicationRepository to Application--><g id="link_ApplicationRepository_Application"><path codeLine="70" d="M740,692.7094 C740,728.5894 740,782.9294 740,820.5594 " fill="none" id="ApplicationRepository-to-Application" style="stroke:#181818;stroke-width:1.0;stroke-dasharray:7.0,7.0;"/><polygon fill="#181818" points="740,825.9894,744,816.9894,740,820.9894,736,816.9894,740,825.9894" style="stroke:#181818;stroke-width:1.0;"/></g><!--link Application to RequirementSpecificationResult--><g id="link_Application_RequirementSpecificationResult"><path codeLine="71" d="M781.26,902.3894 C803.83,922.7794 832.18,948.3794 857.04,970.8394 " fill="none" id="Application-to-RequirementSpecificationResult" style="stroke:#181818;stroke-width:1.0;"/><polygon fill="#181818" points="861,974.4194,857.0053,965.417,857.2906,971.0667,851.641,971.352,861,974.4194" style="stroke:#181818;stroke-width:1.0;"/><text fill="#000000" font-family="sans-serif" font-size="20" lengthAdjust="spacing" textLength="11" x="842.2484" y="962.0649">1</text></g><!--link Application to RequirementSpecificationAnswer--><g id="link_Application_RequirementSpecificationAnswer"><path codeLine="72" d="M698.74,902.3894 C676.17,922.7794 647.82,948.3794 622.96,970.8394 " fill="none" id="Application-to-RequirementSpecificationAnswer" style="stroke:#181818;stroke-width:1.0;"/><polygon fill="#181818" points="619,974.4194,628.359,971.352,622.7094,971.0667,622.9947,965.417,619,974.4194" style="stroke:#181818;stroke-width:1.0;"/><text fill="#000000" font-family="sans-serif" font-size="20" lengthAdjust="spacing" textLength="11" x="614.3422" y="962.0649">1</text></g><!--link ApplicationRepository to DomainRepository--><g id="link_ApplicationRepository_DomainRepository"><path codeLine="75" d="M851.92,692.7094 C968.18,731.2394 1148.62,791.0594 1261.9,828.5994 " fill="none" id="ApplicationRepository-to-DomainRepository" style="stroke:#181818;stroke-width:1.0;stroke-dasharray:7.0,7.0;"/><polygon fill="#181818" points="1266.91,830.2594,1259.6248,823.6318,1262.1637,828.6868,1257.1087,831.2258,1266.91,830.2594" style="stroke:#181818;stroke-width:1.0;"/></g><!--link JobOpeningRepository to DomainRepository--><g id="link_JobOpeningRepository_DomainRepository"><path codeLine="76" d="M1661.26,680.2294 C1609.61,712.2094 1518.09,768.9094 1450.58,810.7194 " fill="none" id="JobOpeningRepository-to-DomainRepository" style="stroke:#181818;stroke-width:1.0;stroke-dasharray:7.0,7.0;"/><polygon fill="#181818" points="1446.17,813.4494,1455.9293,812.1245,1450.4244,810.8225,1451.7264,805.3175,1446.17,813.4494" style="stroke:#181818;stroke-width:1.0;"/></g><!--SRC=[bLFlRzem4Ftkly9gFpIe2p-cJPegX9GMeJ5LOYAY-soI2xWrTcOxL7Jh_xwpmnI30cny2B9zxzszktlcXSkIQROHAdk1dEPGi4hOYP8svMz0F_R9pThQqjprUgLWqbORqStKffS9PaoSSxP2C26MMm5qaGxwWy_qmRtHyTytGjZIMCqoIpsA9llZOaf_4Og_QvghTArUeyx-QCB3Xd7vg5I95-z8LdCyWUR5RWu_AwvX0x8ckss8taz6cWTKfvKGeAd7hC1-KyjP2PBBrICtDkhGE_fyS3Ms2YEtdYlPCYxOKa186ZNn6DiXyJuuZ9aLILaAdZ7BbVI8EHIWGMRW2xu9WmcN5dJ1Cg31TLf2neiznNTHhRZq6c3BHCKiJBY0gC2Fap15XXLeHzsG1INCeLI6MwLtdeC5nKsKRdhoWzlriTQcSfS8oLr3XW7vg1b1SEiJLMMEfGQCSp2uTP7sV-6OaygkbUPl7fk2td9KuFLAKsbmpmXtt90l3EYlp2HoDoiYd2-OaEbK3nDfNd4HXiFewSFrPFBb_bE_GrqpWQhbCsHsDCA4CNKzHQMfrTYGHjefsbhHPTfQCXBVAwoOoSDPDICu69LJ5KIDbRF8qJ1LCSrTQ-mEpN1B3Tj2xOh0VSFVSTpc94BQxDMDuz5PDxN0GgyvUDiyBwFQsl0FkTeM_JBilDcmVwt-wHvb3CCyxTNWwiAo_1UaNbjojfpZlI2jwzGUIiWV]--></g></svg>