<?xml version="1.0" encoding="us-ascii" standalone="no"?><svg xmlns="http://www.w3.org/2000/svg" xmlns:xlink="http://www.w3.org/1999/xlink" contentStyleType="text/css" height="505.8px" preserveAspectRatio="none" style="width:880px;height:505px;background:#FFFFFF;" version="1.1" viewBox="0 0 880 505" width="880.8px" zoomAndPan="magnify"><defs/><g><!--class AbstractUI--><g id="elem_AbstractUI"><rect codeLine="5" fill="#F1F1F1" height="62.318" id="AbstractUI" rx="1.5" ry="1.5" style="stroke:#181818;stroke-width:0.3;" width="58.8" x="325.2" y="4.2"/><ellipse cx="334.2" cy="13.8" fill="#A9DCDF" rx="6.6" ry="6.6" style="stroke:#181818;stroke-width:0.6;"/><path d="M335.5125,14.8594 L333.0281,14.8594 L332.775,15.4781 L333.0281,15.4781 Q333.3938,15.4781 333.5531,15.6187 Q333.7125,15.7594 333.7125,15.9937 Q333.7125,16.2188 333.5531,16.3594 Q333.3938,16.5 333.0281,16.5 L331.65,16.5 Q331.2844,16.5 331.1344,16.3594 Q330.975,16.2188 330.975,15.9844 Q330.975,15.7594 331.1438,15.6187 Q331.3031,15.4688 331.6781,15.4781 L333.2813,11.4844 L332.6156,11.4844 Q332.25,11.4844 332.0906,11.3438 Q331.9313,11.2031 331.9313,10.9688 Q331.9313,10.7438 332.0906,10.6031 Q332.25,10.4625 332.6156,10.4625 L334.8187,10.4625 L336.8531,15.4781 Q337.2094,15.4781 337.3219,15.5625 Q337.5563,15.7219 337.5563,15.9937 Q337.5563,16.2188 337.3969,16.3594 Q337.2469,16.5 336.8812,16.5 L335.5031,16.5 Q335.1375,16.5 334.9781,16.3594 Q334.8187,16.2188 334.8187,15.9844 Q334.8187,15.7594 334.9781,15.6187 Q335.1375,15.4781 335.5031,15.4781 L335.7562,15.4781 L335.5125,14.8594 Z M335.0813,13.8375 L334.2656,11.8125 L333.4406,13.8375 L335.0813,13.8375 Z " fill="#000000"/><text fill="#000000" font-family="sans-serif" font-size="8.4" font-style="italic" lengthAdjust="spacing" textLength="39.6" x="342.6" y="17.2781">AbstractUI</text><line style="stroke:#181818;stroke-width:0.3;" x1="325.8" x2="383.4" y1="23.4" y2="23.4"/><line style="stroke:#181818;stroke-width:0.3;" x1="325.8" x2="383.4" y1="28.2" y2="28.2"/><polygon fill="#FFFF44" points="331.8,34.0863,334.2,36.4863,331.8,38.8863,329.4,36.4863" style="stroke:#B38D22;stroke-width:0.6;"/><text fill="#000000" font-family="sans-serif" font-size="8.4" lengthAdjust="spacing" textLength="36" x="337.2" y="39.6645">doShow()</text><polygon fill="#FFFF44" points="331.8,45.259,334.2,47.659,331.8,50.059,329.4,47.659" style="stroke:#B38D22;stroke-width:0.6;"/><text fill="#000000" font-family="sans-serif" font-size="8.4" lengthAdjust="spacing" textLength="25.2" x="337.2" y="50.8371">show()</text><polygon fill="#FFFF44" points="331.8,56.4316,334.2,58.8316,331.8,61.2316,329.4,58.8316" style="stroke:#B38D22;stroke-width:0.6;"/><text fill="#000000" font-family="sans-serif" font-size="8.4" lengthAdjust="spacing" textLength="43.2" x="337.2" y="62.0098">mainLoop()</text></g><!--class AbstractListUI--><g id="elem_AbstractListUI"><rect codeLine="10" fill="#F1F1F1" height="51.1453" id="AbstractListUI" rx="1.5" ry="1.5" style="stroke:#181818;stroke-width:0.3;" width="79.2" x="315" y="102.6"/><ellipse cx="327.24" cy="112.2" fill="#A9DCDF" rx="6.6" ry="6.6" style="stroke:#181818;stroke-width:0.6;"/><path d="M328.5525,113.2594 L326.0681,113.2594 L325.815,113.8781 L326.0681,113.8781 Q326.4338,113.8781 326.5931,114.0188 Q326.7525,114.1594 326.7525,114.3938 Q326.7525,114.6187 326.5931,114.7594 Q326.4338,114.9 326.0681,114.9 L324.69,114.9 Q324.3244,114.9 324.1744,114.7594 Q324.015,114.6187 324.015,114.3844 Q324.015,114.1594 324.1838,114.0188 Q324.3431,113.8687 324.7181,113.8781 L326.3212,109.8844 L325.6556,109.8844 Q325.29,109.8844 325.1306,109.7437 Q324.9713,109.6031 324.9713,109.3687 Q324.9713,109.1438 325.1306,109.0031 Q325.29,108.8625 325.6556,108.8625 L327.8588,108.8625 L329.8931,113.8781 Q330.2494,113.8781 330.3619,113.9625 Q330.5963,114.1219 330.5963,114.3938 Q330.5963,114.6187 330.4369,114.7594 Q330.2869,114.9 329.9213,114.9 L328.5431,114.9 Q328.1775,114.9 328.0181,114.7594 Q327.8588,114.6187 327.8588,114.3844 Q327.8588,114.1594 328.0181,114.0188 Q328.1775,113.8781 328.5431,113.8781 L328.7963,113.8781 L328.5525,113.2594 Z M328.1213,112.2375 L327.3056,110.2125 L326.4806,112.2375 L328.1213,112.2375 Z " fill="#000000"/><text fill="#000000" font-family="sans-serif" font-size="8.4" font-style="italic" lengthAdjust="spacing" textLength="52.8" x="336.36" y="115.6781">AbstractListUI</text><line style="stroke:#181818;stroke-width:0.3;" x1="315.6" x2="393.6" y1="121.8" y2="121.8"/><line style="stroke:#181818;stroke-width:0.3;" x1="315.6" x2="393.6" y1="126.6" y2="126.6"/><polygon fill="#FFFF44" points="321.6,132.4863,324,134.8863,321.6,137.2863,319.2,134.8863" style="stroke:#B38D22;stroke-width:0.6;"/><text fill="#000000" font-family="sans-serif" font-size="8.4" lengthAdjust="spacing" textLength="40.2" x="327" y="138.0645">elements()</text><polygon fill="#FFFF44" points="321.6,143.659,324,146.059,321.6,148.459,319.2,146.059" style="stroke:#B38D22;stroke-width:0.6;"/><text fill="#000000" font-family="sans-serif" font-size="8.4" lengthAdjust="spacing" textLength="63.6" x="327" y="149.2371">elementPrinter();</text></g><!--class SendNotificationEmailUI--><g id="elem_SendNotificationEmailUI"><rect codeLine="14" fill="#F1F1F1" height="28.8" id="SendNotificationEmailUI" rx="1.5" ry="1.5" style="stroke:#181818;stroke-width:0.3;" width="108" x="405" y="21"/><ellipse cx="414" cy="30.6" fill="#ADD1B2" rx="6.6" ry="6.6" style="stroke:#181818;stroke-width:0.6;"/><path d="M415.6594,28.125 Q415.7531,27.9938 415.8656,27.9281 Q415.9781,27.8625 416.1094,27.8625 Q416.3344,27.8625 416.475,28.0219 Q416.6156,28.1719 416.6156,28.5375 L416.6156,29.4094 Q416.6156,29.775 416.475,29.9344 Q416.3344,30.0938 416.1094,30.0938 Q415.9031,30.0938 415.7813,29.9719 Q415.6594,29.8594 415.5938,29.55 Q415.5656,29.3344 415.4531,29.2219 Q415.2562,28.9969 414.8906,28.8656 Q414.525,28.7344 414.15,28.7344 Q413.6906,28.7344 413.3063,28.9313 Q412.9313,29.1281 412.6312,29.5781 Q412.3406,30.0281 412.3406,30.6469 L412.3406,31.3031 Q412.3406,32.0437 412.875,32.5406 Q413.4094,33.0281 414.3656,33.0281 Q414.9281,33.0281 415.3219,32.8781 Q415.5563,32.7844 415.8094,32.5219 Q415.9688,32.3625 416.0531,32.3156 Q416.1469,32.2688 416.2688,32.2688 Q416.4656,32.2688 416.6156,32.4281 Q416.775,32.5781 416.775,32.7844 Q416.775,32.9906 416.5687,33.2344 Q416.2688,33.5813 415.7906,33.7781 Q415.1438,34.05 414.3656,34.05 Q413.4563,34.05 412.7344,33.675 Q412.1438,33.375 411.7313,32.7375 Q411.3187,32.0906 411.3187,31.3219 L411.3187,30.6281 Q411.3187,29.8312 411.6844,29.1469 Q412.0594,28.4531 412.7156,28.0875 Q413.3719,27.7125 414.1125,27.7125 Q414.5531,27.7125 414.9375,27.8156 Q415.3313,27.9094 415.6594,28.125 Z " fill="#000000"/><text fill="#000000" font-family="sans-serif" font-size="8.4" lengthAdjust="spacing" textLength="88.8" x="422.4" y="34.0781">SendNotificationEmailUI</text><line style="stroke:#181818;stroke-width:0.3;" x1="405.6" x2="512.4" y1="40.2" y2="40.2"/><line style="stroke:#181818;stroke-width:0.3;" x1="405.6" x2="512.4" y1="45" y2="45"/></g><!--class AuthorizationService--><g id="elem_AuthorizationService"><rect codeLine="17" fill="#F1F1F1" height="39.9727" id="AuthorizationService" rx="1.5" ry="1.5" style="stroke:#181818;stroke-width:0.3;" width="174" x="4.2" y="282"/><ellipse cx="49.95" cy="291.6" fill="#ADD1B2" rx="6.6" ry="6.6" style="stroke:#181818;stroke-width:0.6;"/><path d="M51.6094,289.125 Q51.7031,288.9938 51.8156,288.9281 Q51.9281,288.8625 52.0594,288.8625 Q52.2844,288.8625 52.425,289.0219 Q52.5656,289.1719 52.5656,289.5375 L52.5656,290.4094 Q52.5656,290.775 52.425,290.9344 Q52.2844,291.0938 52.0594,291.0938 Q51.8531,291.0938 51.7312,290.9719 Q51.6094,290.8594 51.5437,290.55 Q51.5156,290.3344 51.4031,290.2219 Q51.2063,289.9969 50.8406,289.8656 Q50.475,289.7344 50.1,289.7344 Q49.6406,289.7344 49.2563,289.9313 Q48.8813,290.1281 48.5813,290.5781 Q48.2906,291.0281 48.2906,291.6469 L48.2906,292.3031 Q48.2906,293.0438 48.825,293.5406 Q49.3594,294.0281 50.3156,294.0281 Q50.8781,294.0281 51.2719,293.8781 Q51.5063,293.7844 51.7594,293.5219 Q51.9187,293.3625 52.0031,293.3156 Q52.0969,293.2688 52.2188,293.2688 Q52.4156,293.2688 52.5656,293.4281 Q52.725,293.5781 52.725,293.7844 Q52.725,293.9906 52.5188,294.2344 Q52.2188,294.5813 51.7406,294.7781 Q51.0938,295.05 50.3156,295.05 Q49.4063,295.05 48.6844,294.675 Q48.0938,294.375 47.6813,293.7375 Q47.2688,293.0906 47.2688,292.3219 L47.2688,291.6281 Q47.2688,290.8313 47.6344,290.1469 Q48.0094,289.4531 48.6656,289.0875 Q49.3219,288.7125 50.0625,288.7125 Q50.5031,288.7125 50.8875,288.8156 Q51.2813,288.9094 51.6094,289.125 Z " fill="#000000"/><text fill="#000000" font-family="sans-serif" font-size="8.4" lengthAdjust="spacing" textLength="77.4" x="62.25" y="295.0781">AuthorizationService</text><line style="stroke:#181818;stroke-width:0.3;" x1="4.8" x2="177.6" y1="301.2" y2="301.2"/><line style="stroke:#181818;stroke-width:0.3;" x1="4.8" x2="177.6" y1="306" y2="306"/><ellipse cx="10.8" cy="314.8863" fill="#84BE84" rx="1.8" ry="1.8" style="stroke:#038048;stroke-width:0.6;"/><text fill="#000000" font-family="sans-serif" font-size="8.4" lengthAdjust="spacing" textLength="158.4" x="16.2" y="317.4645">ensureAuthenticatedUserHasAnyOf(roles)</text></g><!--class FollowUpConnectionService--><g id="elem_FollowUpConnectionService"><rect codeLine="21" fill="#F1F1F1" height="51.1453" id="FollowUpConnectionService" rx="1.5" ry="1.5" style="stroke:#181818;stroke-width:0.3;" width="278.4" x="199.2" y="276.6"/><ellipse cx="283.05" cy="286.2" fill="#ADD1B2" rx="6.6" ry="6.6" style="stroke:#181818;stroke-width:0.6;"/><path d="M284.7094,283.725 Q284.8031,283.5938 284.9156,283.5281 Q285.0281,283.4625 285.1594,283.4625 Q285.3844,283.4625 285.525,283.6219 Q285.6656,283.7719 285.6656,284.1375 L285.6656,285.0094 Q285.6656,285.375 285.525,285.5344 Q285.3844,285.6937 285.1594,285.6937 Q284.9531,285.6937 284.8313,285.5719 Q284.7094,285.4594 284.6438,285.15 Q284.6156,284.9344 284.5031,284.8219 Q284.3063,284.5969 283.9406,284.4656 Q283.575,284.3344 283.2,284.3344 Q282.7406,284.3344 282.3563,284.5313 Q281.9813,284.7281 281.6813,285.1781 Q281.3906,285.6281 281.3906,286.2469 L281.3906,286.9031 Q281.3906,287.6438 281.925,288.1406 Q282.4594,288.6281 283.4156,288.6281 Q283.9781,288.6281 284.3719,288.4781 Q284.6063,288.3844 284.8594,288.1219 Q285.0188,287.9625 285.1031,287.9156 Q285.1969,287.8688 285.3187,287.8688 Q285.5156,287.8688 285.6656,288.0281 Q285.825,288.1781 285.825,288.3844 Q285.825,288.5906 285.6188,288.8344 Q285.3187,289.1813 284.8406,289.3781 Q284.1937,289.65 283.4156,289.65 Q282.5062,289.65 281.7844,289.275 Q281.1937,288.975 280.7813,288.3375 Q280.3688,287.6906 280.3688,286.9219 L280.3688,286.2281 Q280.3688,285.4313 280.7344,284.7469 Q281.1094,284.0531 281.7656,283.6875 Q282.4219,283.3125 283.1625,283.3125 Q283.6031,283.3125 283.9875,283.4156 Q284.3812,283.5094 284.7094,283.725 Z " fill="#000000"/><text fill="#000000" font-family="sans-serif" font-size="8.4" lengthAdjust="spacing" textLength="105.6" x="295.35" y="289.6781">FollowUpConnectionService</text><line style="stroke:#181818;stroke-width:0.3;" x1="199.8" x2="477" y1="295.8" y2="295.8"/><line style="stroke:#181818;stroke-width:0.3;" x1="199.8" x2="477" y1="300.6" y2="300.6"/><ellipse cx="205.8" cy="309.4863" fill="#84BE84" rx="1.8" ry="1.8" style="stroke:#038048;stroke-width:0.6;"/><text fill="#000000" font-family="sans-serif" font-size="8.4" lengthAdjust="spacing" textLength="71.4" x="211.2" y="312.0645">connectToServer()</text><ellipse cx="205.8" cy="320.659" fill="#84BE84" rx="1.8" ry="1.8" style="stroke:#038048;stroke-width:0.6;"/><text fill="#000000" font-family="sans-serif" font-size="8.4" lengthAdjust="spacing" textLength="262.8" x="211.2" y="323.2371">sendEmail(customerManagerEmail, candidateEmail, topic, emailBody)</text></g><!--class JobOpeningManagementService--><g id="elem_JobOpeningManagementService"><rect codeLine="26" fill="#F1F1F1" height="51.1453" id="JobOpeningManagementService" rx="1.5" ry="1.5" style="stroke:#181818;stroke-width:0.3;" width="162.6" x="498.9" y="276.6"/><ellipse cx="517.08" cy="286.2" fill="#ADD1B2" rx="6.6" ry="6.6" style="stroke:#181818;stroke-width:0.6;"/><path d="M518.7394,283.725 Q518.8331,283.5938 518.9456,283.5281 Q519.0581,283.4625 519.1894,283.4625 Q519.4144,283.4625 519.555,283.6219 Q519.6956,283.7719 519.6956,284.1375 L519.6956,285.0094 Q519.6956,285.375 519.555,285.5344 Q519.4144,285.6937 519.1894,285.6937 Q518.9831,285.6937 518.8612,285.5719 Q518.7394,285.4594 518.6737,285.15 Q518.6456,284.9344 518.5331,284.8219 Q518.3363,284.5969 517.9706,284.4656 Q517.605,284.3344 517.23,284.3344 Q516.7706,284.3344 516.3862,284.5313 Q516.0112,284.7281 515.7113,285.1781 Q515.4206,285.6281 515.4206,286.2469 L515.4206,286.9031 Q515.4206,287.6438 515.955,288.1406 Q516.4894,288.6281 517.4456,288.6281 Q518.0081,288.6281 518.4019,288.4781 Q518.6362,288.3844 518.8894,288.1219 Q519.0487,287.9625 519.1331,287.9156 Q519.2269,287.8688 519.3488,287.8688 Q519.5456,287.8688 519.6956,288.0281 Q519.855,288.1781 519.855,288.3844 Q519.855,288.5906 519.6488,288.8344 Q519.3488,289.1813 518.8706,289.3781 Q518.2238,289.65 517.4456,289.65 Q516.5363,289.65 515.8144,289.275 Q515.2238,288.975 514.8113,288.3375 Q514.3988,287.6906 514.3988,286.9219 L514.3988,286.2281 Q514.3988,285.4313 514.7644,284.7469 Q515.1394,284.0531 515.7956,283.6875 Q516.4519,283.3125 517.1925,283.3125 Q517.6331,283.3125 518.0175,283.4156 Q518.4113,283.5094 518.7394,283.725 Z " fill="#000000"/><text fill="#000000" font-family="sans-serif" font-size="8.4" lengthAdjust="spacing" textLength="123" x="527.52" y="289.6781">JobOpeningManagementService</text><line style="stroke:#181818;stroke-width:0.3;" x1="499.5" x2="660.9" y1="295.8" y2="295.8"/><line style="stroke:#181818;stroke-width:0.3;" x1="499.5" x2="660.9" y1="300.6" y2="300.6"/><ellipse cx="505.5" cy="309.4863" fill="#84BE84" rx="1.8" ry="1.8" style="stroke:#038048;stroke-width:0.6;"/><text fill="#000000" font-family="sans-serif" font-size="8.4" lengthAdjust="spacing" textLength="147" x="510.9" y="312.0645">getJobOpeningListWithoutNotification()</text><ellipse cx="505.5" cy="320.659" fill="#84BE84" rx="1.8" ry="1.8" style="stroke:#038048;stroke-width:0.6;"/><text fill="#000000" font-family="sans-serif" font-size="8.4" lengthAdjust="spacing" textLength="135" x="510.9" y="323.2371">updateApplicationNotificationState()</text></g><!--class JobOpeningDtoService--><g id="elem_JobOpeningDtoService"><rect codeLine="30" fill="#F1F1F1" height="39.9727" id="JobOpeningDtoService" rx="1.5" ry="1.5" style="stroke:#181818;stroke-width:0.3;" width="106.2" x="399.3" y="369"/><ellipse cx="408.3" cy="378.6" fill="#ADD1B2" rx="6.6" ry="6.6" style="stroke:#181818;stroke-width:0.6;"/><path d="M409.9594,376.125 Q410.0531,375.9938 410.1656,375.9281 Q410.2781,375.8625 410.4094,375.8625 Q410.6344,375.8625 410.775,376.0219 Q410.9156,376.1719 410.9156,376.5375 L410.9156,377.4094 Q410.9156,377.775 410.775,377.9344 Q410.6344,378.0938 410.4094,378.0938 Q410.2031,378.0938 410.0813,377.9719 Q409.9594,377.8594 409.8938,377.55 Q409.8656,377.3344 409.7531,377.2219 Q409.5563,376.9969 409.1906,376.8656 Q408.825,376.7344 408.45,376.7344 Q407.9906,376.7344 407.6063,376.9313 Q407.2313,377.1281 406.9313,377.5781 Q406.6406,378.0281 406.6406,378.6469 L406.6406,379.3031 Q406.6406,380.0438 407.175,380.5406 Q407.7094,381.0281 408.6656,381.0281 Q409.2281,381.0281 409.6219,380.8781 Q409.8563,380.7844 410.1094,380.5219 Q410.2688,380.3625 410.3531,380.3156 Q410.4469,380.2688 410.5687,380.2688 Q410.7656,380.2688 410.9156,380.4281 Q411.075,380.5781 411.075,380.7844 Q411.075,380.9906 410.8688,381.2344 Q410.5687,381.5813 410.0906,381.7781 Q409.4437,382.05 408.6656,382.05 Q407.7562,382.05 407.0344,381.675 Q406.4437,381.375 406.0313,380.7375 Q405.6188,380.0906 405.6188,379.3219 L405.6188,378.6281 Q405.6188,377.8313 405.9844,377.1469 Q406.3594,376.4531 407.0156,376.0875 Q407.6719,375.7125 408.4125,375.7125 Q408.8531,375.7125 409.2375,375.8156 Q409.6312,375.9094 409.9594,376.125 Z " fill="#000000"/><text fill="#000000" font-family="sans-serif" font-size="8.4" lengthAdjust="spacing" textLength="87" x="416.7" y="382.0781">JobOpeningDtoService</text><line style="stroke:#181818;stroke-width:0.3;" x1="399.9" x2="504.9" y1="388.2" y2="388.2"/><line style="stroke:#181818;stroke-width:0.3;" x1="399.9" x2="504.9" y1="393" y2="393"/><ellipse cx="405.9" cy="401.8863" fill="#84BE84" rx="1.8" ry="1.8" style="stroke:#038048;stroke-width:0.6;"/><text fill="#000000" font-family="sans-serif" font-size="8.4" lengthAdjust="spacing" textLength="57.6" x="411.3" y="404.4645">convertToDto()</text></g><!--class JobOpeningRepository--><g id="elem_JobOpeningRepository"><rect codeLine="34" fill="#F1F1F1" height="51.1453" id="JobOpeningRepository" rx="1.5" ry="1.5" style="stroke:#181818;stroke-width:0.3;" width="105.6" x="569.4" y="363.6"/><ellipse cx="578.4" cy="373.2" fill="#ADD1B2" rx="6.6" ry="6.6" style="stroke:#181818;stroke-width:0.6;"/><path d="M580.0594,370.725 Q580.1531,370.5938 580.2656,370.5281 Q580.3781,370.4625 580.5094,370.4625 Q580.7344,370.4625 580.875,370.6219 Q581.0156,370.7719 581.0156,371.1375 L581.0156,372.0094 Q581.0156,372.375 580.875,372.5344 Q580.7344,372.6937 580.5094,372.6937 Q580.3031,372.6937 580.1813,372.5719 Q580.0594,372.4594 579.9938,372.15 Q579.9656,371.9344 579.8531,371.8219 Q579.6563,371.5969 579.2906,371.4656 Q578.925,371.3344 578.55,371.3344 Q578.0906,371.3344 577.7063,371.5313 Q577.3313,371.7281 577.0313,372.1781 Q576.7406,372.6281 576.7406,373.2469 L576.7406,373.9031 Q576.7406,374.6438 577.275,375.1406 Q577.8094,375.6281 578.7656,375.6281 Q579.3281,375.6281 579.7219,375.4781 Q579.9563,375.3844 580.2094,375.1219 Q580.3688,374.9625 580.4531,374.9156 Q580.5469,374.8688 580.6687,374.8688 Q580.8656,374.8688 581.0156,375.0281 Q581.175,375.1781 581.175,375.3844 Q581.175,375.5906 580.9688,375.8344 Q580.6687,376.1813 580.1906,376.3781 Q579.5437,376.65 578.7656,376.65 Q577.8562,376.65 577.1344,376.275 Q576.5437,375.975 576.1313,375.3375 Q575.7188,374.6906 575.7188,373.9219 L575.7188,373.2281 Q575.7188,372.4313 576.0844,371.7469 Q576.4594,371.0531 577.1156,370.6875 Q577.7719,370.3125 578.5125,370.3125 Q578.9531,370.3125 579.3375,370.4156 Q579.7312,370.5094 580.0594,370.725 Z " fill="#000000"/><text fill="#000000" font-family="sans-serif" font-size="8.4" lengthAdjust="spacing" textLength="86.4" x="586.8" y="376.6781">JobOpeningRepository</text><line style="stroke:#181818;stroke-width:0.3;" x1="570" x2="674.4" y1="382.8" y2="382.8"/><line style="stroke:#181818;stroke-width:0.3;" x1="570" x2="674.4" y1="387.6" y2="387.6"/><ellipse cx="576" cy="396.4863" fill="#84BE84" rx="1.8" ry="1.8" style="stroke:#038048;stroke-width:0.6;"/><text fill="#000000" font-family="sans-serif" font-size="8.4" lengthAdjust="spacing" textLength="76.8" x="581.4" y="399.0645">getJobOpeningList()</text><ellipse cx="576" cy="407.659" fill="#84BE84" rx="1.8" ry="1.8" style="stroke:#038048;stroke-width:0.6;"/><text fill="#000000" font-family="sans-serif" font-size="8.4" lengthAdjust="spacing" textLength="24" x="581.4" y="410.2371">save()</text></g><!--class ApplicationRepository--><g id="elem_ApplicationRepository"><rect codeLine="39" fill="#F1F1F1" height="51.1453" id="ApplicationRepository" rx="1.5" ry="1.5" style="stroke:#181818;stroke-width:0.3;" width="180.6" x="696.3" y="363.6"/><ellipse cx="742.95" cy="373.2" fill="#ADD1B2" rx="6.6" ry="6.6" style="stroke:#181818;stroke-width:0.6;"/><path d="M744.6094,370.725 Q744.7031,370.5938 744.8156,370.5281 Q744.9281,370.4625 745.0594,370.4625 Q745.2844,370.4625 745.425,370.6219 Q745.5656,370.7719 745.5656,371.1375 L745.5656,372.0094 Q745.5656,372.375 745.425,372.5344 Q745.2844,372.6937 745.0594,372.6937 Q744.8531,372.6937 744.7312,372.5719 Q744.6094,372.4594 744.5437,372.15 Q744.5156,371.9344 744.4031,371.8219 Q744.2063,371.5969 743.8406,371.4656 Q743.475,371.3344 743.1,371.3344 Q742.6406,371.3344 742.2563,371.5313 Q741.8813,371.7281 741.5813,372.1781 Q741.2906,372.6281 741.2906,373.2469 L741.2906,373.9031 Q741.2906,374.6438 741.825,375.1406 Q742.3594,375.6281 743.3156,375.6281 Q743.8781,375.6281 744.2719,375.4781 Q744.5063,375.3844 744.7594,375.1219 Q744.9187,374.9625 745.0031,374.9156 Q745.0969,374.8688 745.2188,374.8688 Q745.4156,374.8688 745.5656,375.0281 Q745.725,375.1781 745.725,375.3844 Q745.725,375.5906 745.5188,375.8344 Q745.2188,376.1813 744.7406,376.3781 Q744.0938,376.65 743.3156,376.65 Q742.4063,376.65 741.6844,376.275 Q741.0938,375.975 740.6813,375.3375 Q740.2688,374.6906 740.2688,373.9219 L740.2688,373.2281 Q740.2688,372.4313 740.6344,371.7469 Q741.0094,371.0531 741.6656,370.6875 Q742.3219,370.3125 743.0625,370.3125 Q743.5031,370.3125 743.8875,370.4156 Q744.2813,370.5094 744.6094,370.725 Z " fill="#000000"/><text fill="#000000" font-family="sans-serif" font-size="8.4" lengthAdjust="spacing" textLength="82.2" x="755.25" y="376.6781">ApplicationRepository</text><line style="stroke:#181818;stroke-width:0.3;" x1="696.9" x2="876.3" y1="382.8" y2="382.8"/><line style="stroke:#181818;stroke-width:0.3;" x1="696.9" x2="876.3" y1="387.6" y2="387.6"/><ellipse cx="702.9" cy="396.4863" fill="#84BE84" rx="1.8" ry="1.8" style="stroke:#038048;stroke-width:0.6;"/><text fill="#000000" font-family="sans-serif" font-size="8.4" lengthAdjust="spacing" textLength="165" x="708.3" y="399.0645">applicationsForJobOpenings(jobReference)</text><ellipse cx="702.9" cy="407.659" fill="#84BE84" rx="1.8" ry="1.8" style="stroke:#038048;stroke-width:0.6;"/><text fill="#000000" font-family="sans-serif" font-size="8.4" lengthAdjust="spacing" textLength="24" x="708.3" y="410.2371">save()</text></g><!--class SendNotificationEmailController--><g id="elem_SendNotificationEmailController"><rect codeLine="44" fill="#F1F1F1" height="51.1453" id="SendNotificationEmailController" rx="1.5" ry="1.5" style="stroke:#181818;stroke-width:0.3;" width="138" x="390" y="189.6"/><ellipse cx="399" cy="199.2" fill="#ADD1B2" rx="6.6" ry="6.6" style="stroke:#181818;stroke-width:0.6;"/><path d="M400.6594,196.725 Q400.7531,196.5938 400.8656,196.5281 Q400.9781,196.4625 401.1094,196.4625 Q401.3344,196.4625 401.475,196.6219 Q401.6156,196.7719 401.6156,197.1375 L401.6156,198.0094 Q401.6156,198.375 401.475,198.5344 Q401.3344,198.6938 401.1094,198.6938 Q400.9031,198.6938 400.7813,198.5719 Q400.6594,198.4594 400.5938,198.15 Q400.5656,197.9344 400.4531,197.8219 Q400.2562,197.5969 399.8906,197.4656 Q399.525,197.3344 399.15,197.3344 Q398.6906,197.3344 398.3063,197.5313 Q397.9313,197.7281 397.6312,198.1781 Q397.3406,198.6281 397.3406,199.2469 L397.3406,199.9031 Q397.3406,200.6437 397.875,201.1406 Q398.4094,201.6281 399.3656,201.6281 Q399.9281,201.6281 400.3219,201.4781 Q400.5563,201.3844 400.8094,201.1219 Q400.9688,200.9625 401.0531,200.9156 Q401.1469,200.8688 401.2688,200.8688 Q401.4656,200.8688 401.6156,201.0281 Q401.775,201.1781 401.775,201.3844 Q401.775,201.5906 401.5687,201.8344 Q401.2688,202.1813 400.7906,202.3781 Q400.1438,202.65 399.3656,202.65 Q398.4563,202.65 397.7344,202.275 Q397.1438,201.975 396.7313,201.3375 Q396.3187,200.6906 396.3187,199.9219 L396.3187,199.2281 Q396.3187,198.4313 396.6844,197.7469 Q397.0594,197.0531 397.7156,196.6875 Q398.3719,196.3125 399.1125,196.3125 Q399.5531,196.3125 399.9375,196.4156 Q400.3313,196.5094 400.6594,196.725 Z " fill="#000000"/><text fill="#000000" font-family="sans-serif" font-size="8.4" lengthAdjust="spacing" textLength="118.8" x="407.4" y="202.6781">SendNotificationEmailController</text><line style="stroke:#181818;stroke-width:0.3;" x1="390.6" x2="527.4" y1="208.8" y2="208.8"/><line style="stroke:#181818;stroke-width:0.3;" x1="390.6" x2="527.4" y1="213.6" y2="213.6"/><ellipse cx="396.6" cy="222.4863" fill="#84BE84" rx="1.8" ry="1.8" style="stroke:#038048;stroke-width:0.6;"/><text fill="#000000" font-family="sans-serif" font-size="8.4" lengthAdjust="spacing" textLength="72.6" x="402" y="225.0645">getApplicationList()</text><ellipse cx="396.6" cy="233.659" fill="#84BE84" rx="1.8" ry="1.8" style="stroke:#038048;stroke-width:0.6;"/><text fill="#000000" font-family="sans-serif" font-size="8.4" lengthAdjust="spacing" textLength="45" x="402" y="236.2371">sendEmail()</text></g><!--class JobOpening--><g id="elem_JobOpening"><rect codeLine="49" fill="#F1F1F1" height="39.9727" id="JobOpening" rx="1.5" ry="1.5" style="stroke:#181818;stroke-width:0.3;" width="64.8" x="480.6" y="456"/><ellipse cx="489.6" cy="465.6" fill="#ADD1B2" rx="6.6" ry="6.6" style="stroke:#181818;stroke-width:0.6;"/><path d="M491.2594,463.125 Q491.3531,462.9938 491.4656,462.9281 Q491.5781,462.8625 491.7094,462.8625 Q491.9344,462.8625 492.075,463.0219 Q492.2156,463.1719 492.2156,463.5375 L492.2156,464.4094 Q492.2156,464.775 492.075,464.9344 Q491.9344,465.0938 491.7094,465.0938 Q491.5031,465.0938 491.3812,464.9719 Q491.2594,464.8594 491.1937,464.55 Q491.1656,464.3344 491.0531,464.2219 Q490.8563,463.9969 490.4906,463.8656 Q490.125,463.7344 489.75,463.7344 Q489.2906,463.7344 488.9063,463.9313 Q488.5313,464.1281 488.2313,464.5781 Q487.9406,465.0281 487.9406,465.6469 L487.9406,466.3031 Q487.9406,467.0438 488.475,467.5406 Q489.0094,468.0281 489.9656,468.0281 Q490.5281,468.0281 490.9219,467.8781 Q491.1563,467.7844 491.4094,467.5219 Q491.5687,467.3625 491.6531,467.3156 Q491.7469,467.2687 491.8688,467.2687 Q492.0656,467.2687 492.2156,467.4281 Q492.375,467.5781 492.375,467.7844 Q492.375,467.9906 492.1688,468.2344 Q491.8688,468.5812 491.3906,468.7781 Q490.7438,469.05 489.9656,469.05 Q489.0563,469.05 488.3344,468.675 Q487.7438,468.375 487.3312,467.7375 Q486.9188,467.0906 486.9188,466.3219 L486.9188,465.6281 Q486.9188,464.8312 487.2844,464.1469 Q487.6594,463.4531 488.3156,463.0875 Q488.9719,462.7125 489.7125,462.7125 Q490.1531,462.7125 490.5375,462.8156 Q490.9313,462.9094 491.2594,463.125 Z " fill="#000000"/><text fill="#000000" font-family="sans-serif" font-size="8.4" lengthAdjust="spacing" textLength="45.6" x="498" y="469.0781">JobOpening</text><line style="stroke:#181818;stroke-width:0.3;" x1="481.2" x2="544.8" y1="475.2" y2="475.2"/><line style="stroke:#181818;stroke-width:0.3;" x1="481.2" x2="544.8" y1="480" y2="480"/><ellipse cx="487.2" cy="488.8863" fill="#84BE84" rx="1.8" ry="1.8" style="stroke:#038048;stroke-width:0.6;"/><text fill="#000000" font-family="sans-serif" font-size="8.4" lengthAdjust="spacing" textLength="26.4" x="492.6" y="491.4645">toDto()</text></g><!--class DomainRepository--><g id="elem_DomainRepository"><rect codeLine="52" fill="#F1F1F1" height="51.1453" id="DomainRepository" rx="1.5" ry="1.5" style="stroke:#181818;stroke-width:0.3;" width="88.8" x="602.4" y="450.6"/><ellipse cx="611.4" cy="460.2" fill="#B4A7E5" rx="6.6" ry="6.6" style="stroke:#181818;stroke-width:0.6;"/><path d="M611.9719,458.1844 L611.9719,462.1781 L613.0031,462.1781 Q613.3688,462.1781 613.5281,462.3187 Q613.6875,462.4594 613.6875,462.6937 Q613.6875,462.9188 613.5281,463.0594 Q613.3688,463.2 613.0031,463.2 L609.9187,463.2 Q609.5531,463.2 609.3938,463.0594 Q609.2344,462.9188 609.2344,462.6844 Q609.2344,462.4594 609.3938,462.3187 Q609.5531,462.1781 609.9187,462.1781 L610.95,462.1781 L610.95,458.1844 L609.9187,458.1844 Q609.5531,458.1844 609.3938,458.0438 Q609.2344,457.9031 609.2344,457.6688 Q609.2344,457.4437 609.3938,457.3031 Q609.5531,457.1625 609.9187,457.1625 L613.0031,457.1625 Q613.3688,457.1625 613.5281,457.3031 Q613.6875,457.4437 613.6875,457.6688 Q613.6875,457.9031 613.5281,458.0438 Q613.3688,458.1844 613.0031,458.1844 L611.9719,458.1844 Z " fill="#000000"/><text fill="#000000" font-family="sans-serif" font-size="8.4" font-style="italic" lengthAdjust="spacing" textLength="69.6" x="619.8" y="463.6781">DomainRepository</text><line style="stroke:#181818;stroke-width:0.3;" x1="603" x2="690.6" y1="469.8" y2="469.8"/><line style="stroke:#181818;stroke-width:0.3;" x1="603" x2="690.6" y1="474.6" y2="474.6"/><ellipse cx="609" cy="483.4863" fill="#84BE84" rx="1.8" ry="1.8" style="stroke:#038048;stroke-width:0.6;"/><text fill="#000000" font-family="sans-serif" font-size="8.4" lengthAdjust="spacing" textLength="24" x="614.4" y="486.0645">save()</text><ellipse cx="609" cy="494.659" fill="#84BE84" rx="1.8" ry="1.8" style="stroke:#038048;stroke-width:0.6;"/><text fill="#000000" font-family="sans-serif" font-size="8.4" lengthAdjust="spacing" textLength="40.2" x="614.4" y="497.2371">ofIdentify()</text></g><!--reverse link AbstractUI to AbstractListUI--><g id="link_AbstractUI_AbstractListUI"><path codeLine="57" d="M354.6,77.52 C354.6,89.154 354.6,91.44 354.6,102.48 " fill="none" id="AbstractUI-backto-AbstractListUI" style="stroke:#181818;stroke-width:0.6;"/><polygon fill="none" points="354.6,66.72,351,77.52,358.2,77.52,354.6,66.72" style="stroke:#181818;stroke-width:0.6;"/></g><!--reverse link AbstractUI to SendNotificationEmailUI--><g id="link_AbstractUI_SendNotificationEmailUI"><path codeLine="58" d="M394.968,35.4 C401.886,35.4 398.004,35.4 404.922,35.4 " fill="none" id="AbstractUI-backto-SendNotificationEmailUI" style="stroke:#181818;stroke-width:0.6;"/><polygon fill="none" points="384.168,35.4,394.968,39,394.968,31.8,384.168,35.4" style="stroke:#181818;stroke-width:0.6;"/></g><!--link SendNotificationEmailUI to SendNotificationEmailController--><g id="link_SendNotificationEmailUI_SendNotificationEmailController"><path codeLine="61" d="M459,50.004 C459,80.13 459,147.81 459,185.898 " fill="none" id="SendNotificationEmailUI-to-SendNotificationEmailController" style="stroke:#181818;stroke-width:0.6;stroke-dasharray:7.0,7.0;"/><polygon fill="#181818" points="459,189.498,461.4,184.098,459,186.498,456.6,184.098,459,189.498" style="stroke:#181818;stroke-width:0.6;"/></g><!--link SendNotificationEmailController to AuthorizationService--><g id="link_SendNotificationEmailController_AuthorizationService"><path codeLine="62" d="M389.916,230.664 C335.16,242.658 256.758,260.154 188.4,276.6 C181.284,278.31 177.3852,279.2635 169.9932,281.1055 " fill="none" id="SendNotificationEmailController-to-AuthorizationService" style="stroke:#181818;stroke-width:0.6;"/><polygon fill="#181818" points="166.5,281.976,172.3201,282.9991,169.411,281.2506,171.1595,278.3415,166.5,281.976" style="stroke:#181818;stroke-width:0.6;"/></g><!--link SendNotificationEmailController to JobOpeningManagementService--><g id="link_SendNotificationEmailController_JobOpeningManagementService"><path codeLine="63" d="M494.22,240.63 C510.156,251.916 526.0094,263.1384 541.9574,274.4244 " fill="none" id="SendNotificationEmailController-to-JobOpeningManagementService" style="stroke:#181818;stroke-width:0.6;"/><polygon fill="#181818" points="544.896,276.504,541.8745,271.4256,542.4472,274.771,539.1017,275.3437,544.896,276.504" style="stroke:#181818;stroke-width:0.6;"/></g><!--link SendNotificationEmailController to FollowUpConnectionService--><g id="link_SendNotificationEmailController_FollowUpConnectionService"><path codeLine="64" d="M423.954,240.63 C408.102,251.916 392.3338,263.1316 376.4638,274.4176 " fill="none" id="SendNotificationEmailController-to-FollowUpConnectionService" style="stroke:#181818;stroke-width:0.6;"/><polygon fill="#181818" points="373.53,276.504,379.3216,275.3303,375.9748,274.7654,376.5398,271.4186,373.53,276.504" style="stroke:#181818;stroke-width:0.6;"/></g><!--link SendNotificationEmailController to ApplicationRepository--><g id="link_SendNotificationEmailController_ApplicationRepository"><path codeLine="65" d="M528.138,226.482 C571.578,235.368 627.594,250.824 672,276.6 C710.958,299.214 744.2203,335.2374 765.0703,360.6834 " fill="none" id="SendNotificationEmailController-to-ApplicationRepository" style="stroke:#181818;stroke-width:0.6;"/><polygon fill="#181818" points="767.352,363.468,765.7859,357.77,765.4506,361.1475,762.0731,360.8122,767.352,363.468" style="stroke:#181818;stroke-width:0.6;"/></g><!--link JobOpeningManagementService to JobOpeningDtoService--><g id="link_JobOpeningManagementService_JobOpeningDtoService"><path codeLine="67" d="M543.066,327.63 C523.458,340.794 502.7406,354.6989 484.4886,366.9569 " fill="none" id="JobOpeningManagementService-to-JobOpeningDtoService" style="stroke:#181818;stroke-width:0.6;"/><polygon fill="#181818" points="481.5,368.964,487.3209,367.9457,483.9905,367.2914,484.6448,363.961,481.5,368.964" style="stroke:#181818;stroke-width:0.6;"/></g><!--link JobOpeningManagementService to JobOpening--><g id="link_JobOpeningManagementService_JobOpening"><path codeLine="68" d="M570.498,327.642 C557.016,362.316 534.1889,421.0188 521.9189,452.5668 " fill="none" id="JobOpeningManagementService-to-JobOpening" style="stroke:#181818;stroke-width:0.6;stroke-dasharray:7.0,7.0;"/><polygon fill="#181818" points="520.614,455.922,524.8082,451.7592,521.7014,453.126,520.3346,450.0193,520.614,455.922" style="stroke:#181818;stroke-width:0.6;"/></g><!--link JobOpeningManagementService to JobOpeningRepository--><g id="link_JobOpeningManagementService_JobOpeningRepository"><path codeLine="69" d="M592.464,327.75 C597.984,339.024 602.899,349.0747 608.413,360.3367 " fill="none" id="JobOpeningManagementService-to-JobOpeningRepository" style="stroke:#181818;stroke-width:0.6;"/><polygon fill="#181818" points="609.996,363.57,609.7769,357.6647,608.6768,360.8756,605.4659,359.7755,609.996,363.57" style="stroke:#181818;stroke-width:0.6;"/></g><!--link JobOpeningDtoService to JobOpening--><g id="link_JobOpeningDtoService_JobOpening"><path codeLine="71" d="M466.302,409.386 C476.154,423.336 487.2471,439.0375 497.0871,452.9695 " fill="none" id="JobOpeningDtoService-to-JobOpening" style="stroke:#181818;stroke-width:0.6;stroke-dasharray:7.0,7.0;"/><polygon fill="#181818" points="499.164,455.91,498.0091,450.1146,497.4333,453.4596,494.0884,452.8838,499.164,455.91" style="stroke:#181818;stroke-width:0.6;"/></g><!--link JobOpeningRepository to DomainRepository--><g id="link_JobOpeningRepository_DomainRepository"><path codeLine="73" d="M629.382,414.75 C632.616,426.024 635.4264,435.8478 638.6604,447.1098 " fill="none" id="JobOpeningRepository-to-DomainRepository" style="stroke:#181818;stroke-width:0.6;stroke-dasharray:7.0,7.0;"/><polygon fill="#181818" points="639.654,450.57,640.4703,444.7173,638.826,447.6865,635.8568,446.0422,639.654,450.57" style="stroke:#181818;stroke-width:0.6;"/></g><!--link ApplicationRepository to DomainRepository--><g id="link_ApplicationRepository_DomainRepository"><path codeLine="75" d="M745.974,414.63 C727.596,425.916 708.9863,437.335 690.5963,448.621 " fill="none" id="ApplicationRepository-to-DomainRepository" style="stroke:#181818;stroke-width:0.6;"/><polygon fill="#181818" points="687.528,450.504,693.3857,449.725,690.0849,448.9348,690.8751,445.634,687.528,450.504" style="stroke:#181818;stroke-width:0.6;"/></g><!--SRC=[bPDjJ-Cm3CVVvrD4uWL5i7s1GoUD9zrEt75YJBpEKdVarCLLaeB6mtV7QSCQkdICldDi__spQn_o6PX79S4o9XRM6I4TbwMmba-2EP_o5yRfE-0vpXxmAJiAfesDbL3w6h6YXxSXgMjbIUv33KfOWNPs8n4U_Xcb7PZiw0SfjG8pqFbVTAfGKZY5-fAgbGtO9cHIkmSqwhdnXwO2-347RMi3FeJqlGRaSmlcbx0JlRufCeCbM0yUnAwmBF5fNfsZrY1JYhBrtA5tUDZmRecqeSjaRHskmFmHMYp1D8ydN0gTgvm0WksmKlA4WxVEC5z74BznSLE1LdhPIlZPz36MuBemFzvxHMEeNJoi3LjT-SAJgYg39uwQEV8rFwzV_S9XedjgchedNvP4leKAhN9ereEetSp48yGg4U6sZEYSzWfD9scp_xYuXG8CQ0b3sibDej_iQ0LAC9nQR50ZXi0Q_zjaon-4RZELgT_ZGj3WBj3VntOt0Qyri9ZcVZ-BTLiWki3Jrz6eTqOzzz2DCCQ6hcSy6ltyQY3igu5vZTJjxPMuOyNtoX-yq_smKtl6sAwx-mpTNSREfF4uJlg6VfegkiUUCakbDa7z_QFbIZNVrD-EVGS0]--></g></svg>