<?xml version="1.0" encoding="us-ascii" standalone="no"?><svg xmlns="http://www.w3.org/2000/svg" xmlns:xlink="http://www.w3.org/1999/xlink" contentStyleType="text/css" height="658px" preserveAspectRatio="none" style="width:905px;height:658px;background:#FFFFFF;" version="1.1" viewBox="0 0 905 658" width="905px" zoomAndPan="magnify"><defs/><g><rect fill="none" height="454.4141" style="stroke:#000000;stroke-width:1.5;" width="889.5" x="10" y="86.9121"/><rect fill="none" height="293.959" style="stroke:#000000;stroke-width:1.5;" width="869.5" x="20" y="144.4941"/><rect fill="none" height="50.582" style="stroke:#000000;stroke-width:1.5;" width="598.5" x="20" y="483.7441"/><line style="stroke:#181818;stroke-width:0.5;stroke-dasharray:5.0,5.0;" x1="95" x2="95" y1="38.6211" y2="620.9082"/><line style="stroke:#181818;stroke-width:0.5;stroke-dasharray:5.0,5.0;" x1="578.5" x2="578.5" y1="38.6211" y2="620.9082"/><rect fill="#E2E2F0" height="32.6211" rx="2.5" ry="2.5" style="stroke:#181818;stroke-width:0.5;" width="131" x="30" y="5"/><text fill="#000000" font-family="sans-serif" font-size="14" lengthAdjust="spacing" textLength="117" x="37" y="27.1074">CustomerManager</text><rect fill="#E2E2F0" height="32.6211" rx="2.5" ry="2.5" style="stroke:#181818;stroke-width:0.5;" width="131" x="30" y="619.9082"/><text fill="#000000" font-family="sans-serif" font-size="14" lengthAdjust="spacing" textLength="117" x="37" y="642.0156">CustomerManager</text><rect fill="#E2E2F0" height="32.6211" rx="2.5" ry="2.5" style="stroke:#181818;stroke-width:0.5;" width="60" x="548.5" y="5"/><text fill="#000000" font-family="sans-serif" font-size="14" lengthAdjust="spacing" textLength="46" x="555.5" y="27.1074">System</text><rect fill="#E2E2F0" height="32.6211" rx="2.5" ry="2.5" style="stroke:#181818;stroke-width:0.5;" width="60" x="548.5" y="619.9082"/><text fill="#000000" font-family="sans-serif" font-size="14" lengthAdjust="spacing" textLength="46" x="555.5" y="642.0156">System</text><polygon fill="#181818" points="566.5,67.9121,576.5,71.9121,566.5,75.9121,570.5,71.9121" style="stroke:#181818;stroke-width:1.0;"/><line style="stroke:#181818;stroke-width:1.0;" x1="95.5" x2="572.5" y1="71.9121" y2="71.9121"/><text fill="#000000" font-family="sans-serif" font-size="13" font-weight="bold" lengthAdjust="spacing" textLength="7" x="211.5" y="66.6494">1</text><text fill="#000000" font-family="sans-serif" font-size="13" lengthAdjust="spacing" textLength="240" x="222.5" y="66.6494">Asks to list the information of a candidate</text><path d="M10,86.9121 L83,86.9121 L83,96.2031 L73,106.2031 L10,106.2031 L10,86.9121 " fill="#EEEEEE" style="stroke:#000000;stroke-width:1.5;"/><rect fill="none" height="454.4141" style="stroke:#000000;stroke-width:1.5;" width="889.5" x="10" y="86.9121"/><text fill="#000000" font-family="sans-serif" font-size="13" font-weight="bold" lengthAdjust="spacing" textLength="28" x="25" y="101.9404">loop</text><polygon fill="#181818" points="106.5,125.4941,96.5,129.4941,106.5,133.4941,102.5,129.4941" style="stroke:#181818;stroke-width:1.0;"/><line style="stroke:#181818;stroke-width:1.0;stroke-dasharray:2.0,2.0;" x1="100.5" x2="577.5" y1="129.4941" y2="129.4941"/><text fill="#000000" font-family="sans-serif" font-size="13" font-weight="bold" lengthAdjust="spacing" textLength="7" x="162.5" y="124.2314">2</text><text fill="#000000" font-family="sans-serif" font-size="13" lengthAdjust="spacing" textLength="338" x="173.5" y="124.2314">Shows list of candidates and asks which one (using email)</text><path d="M20,144.4941 L81,144.4941 L81,153.7852 L71,163.7852 L20,163.7852 L20,144.4941 " fill="#EEEEEE" style="stroke:#000000;stroke-width:1.5;"/><rect fill="none" height="293.959" style="stroke:#000000;stroke-width:1.5;" width="869.5" x="20" y="144.4941"/><text fill="#000000" font-family="sans-serif" font-size="13" font-weight="bold" lengthAdjust="spacing" textLength="16" x="35" y="159.5225">alt</text><text fill="#000000" font-family="sans-serif" font-size="11" font-weight="bold" lengthAdjust="spacing" textLength="125" x="96" y="158.3643">[Invalid email address]</text><polygon fill="#181818" points="566.5,183.0762,576.5,187.0762,566.5,191.0762,570.5,187.0762" style="stroke:#181818;stroke-width:1.0;"/><line style="stroke:#181818;stroke-width:1.0;" x1="95.5" x2="572.5" y1="187.0762" y2="187.0762"/><text fill="#000000" font-family="sans-serif" font-size="13" font-weight="bold" lengthAdjust="spacing" textLength="7" x="246.5" y="181.8135">3</text><text fill="#000000" font-family="sans-serif" font-size="13" lengthAdjust="spacing" textLength="170" x="257.5" y="181.8135">Inputs a invalid email address</text><line style="stroke:#181818;stroke-width:1.0;stroke-dasharray:2.0,2.0;" x1="578.5" x2="620.5" y1="218.3672" y2="218.3672"/><line style="stroke:#181818;stroke-width:1.0;stroke-dasharray:2.0,2.0;" x1="620.5" x2="620.5" y1="218.3672" y2="231.3672"/><line style="stroke:#181818;stroke-width:1.0;stroke-dasharray:2.0,2.0;" x1="579.5" x2="620.5" y1="231.3672" y2="231.3672"/><polygon fill="#181818" points="589.5,227.3672,579.5,231.3672,589.5,235.3672,585.5,231.3672" style="stroke:#181818;stroke-width:1.0;"/><text fill="#000000" font-family="sans-serif" font-size="13" font-weight="bold" lengthAdjust="spacing" textLength="7" x="585.5" y="213.1045">4</text><text fill="#000000" font-family="sans-serif" font-size="13" lengthAdjust="spacing" textLength="243" x="596.5" y="213.1045">Searches for the candidate with that email</text><polygon fill="#181818" points="106.5,258.6582,96.5,262.6582,106.5,266.6582,102.5,262.6582" style="stroke:#181818;stroke-width:1.0;"/><line style="stroke:#181818;stroke-width:1.0;stroke-dasharray:2.0,2.0;" x1="100.5" x2="577.5" y1="262.6582" y2="262.6582"/><text fill="#000000" font-family="sans-serif" font-size="13" font-weight="bold" lengthAdjust="spacing" textLength="7" x="192" y="257.3955">5</text><text fill="#000000" font-family="sans-serif" font-size="13" lengthAdjust="spacing" textLength="279" x="203" y="257.3955">Notifies the user it's invalid and asks to try again</text><line style="stroke:#000000;stroke-width:1.0;stroke-dasharray:2.0,2.0;" x1="20" x2="889.5" y1="271.6582" y2="271.6582"/><text fill="#000000" font-family="sans-serif" font-size="11" font-weight="bold" lengthAdjust="spacing" textLength="117" x="25" y="283.5283">[Valid email address]</text><polygon fill="#181818" points="566.5,306.5801,576.5,310.5801,566.5,314.5801,570.5,310.5801" style="stroke:#181818;stroke-width:1.0;"/><line style="stroke:#181818;stroke-width:1.0;" x1="95.5" x2="572.5" y1="310.5801" y2="310.5801"/><text fill="#000000" font-family="sans-serif" font-size="13" font-weight="bold" lengthAdjust="spacing" textLength="7" x="251.5" y="305.3174">6</text><text fill="#000000" font-family="sans-serif" font-size="13" lengthAdjust="spacing" textLength="160" x="262.5" y="305.3174">Inputs a valid email address</text><line style="stroke:#181818;stroke-width:1.0;stroke-dasharray:2.0,2.0;" x1="578.5" x2="620.5" y1="341.8711" y2="341.8711"/><line style="stroke:#181818;stroke-width:1.0;stroke-dasharray:2.0,2.0;" x1="620.5" x2="620.5" y1="341.8711" y2="354.8711"/><line style="stroke:#181818;stroke-width:1.0;stroke-dasharray:2.0,2.0;" x1="579.5" x2="620.5" y1="354.8711" y2="354.8711"/><polygon fill="#181818" points="589.5,350.8711,579.5,354.8711,589.5,358.8711,585.5,354.8711" style="stroke:#181818;stroke-width:1.0;"/><text fill="#000000" font-family="sans-serif" font-size="13" font-weight="bold" lengthAdjust="spacing" textLength="7" x="585.5" y="336.6084">7</text><text fill="#000000" font-family="sans-serif" font-size="13" lengthAdjust="spacing" textLength="243" x="596.5" y="336.6084">Searches for the candidate with that email</text><line style="stroke:#181818;stroke-width:1.0;stroke-dasharray:2.0,2.0;" x1="578.5" x2="620.5" y1="386.1621" y2="386.1621"/><line style="stroke:#181818;stroke-width:1.0;stroke-dasharray:2.0,2.0;" x1="620.5" x2="620.5" y1="386.1621" y2="399.1621"/><line style="stroke:#181818;stroke-width:1.0;stroke-dasharray:2.0,2.0;" x1="579.5" x2="620.5" y1="399.1621" y2="399.1621"/><polygon fill="#181818" points="589.5,395.1621,579.5,399.1621,589.5,403.1621,585.5,399.1621" style="stroke:#181818;stroke-width:1.0;"/><text fill="#000000" font-family="sans-serif" font-size="13" font-weight="bold" lengthAdjust="spacing" textLength="7" x="585.5" y="380.8994">8</text><text fill="#000000" font-family="sans-serif" font-size="13" lengthAdjust="spacing" textLength="281" x="596.5" y="380.8994">Searches for all the applications of the candidate</text><polygon fill="#181818" points="106.5,426.4531,96.5,430.4531,106.5,434.4531,102.5,430.4531" style="stroke:#181818;stroke-width:1.0;"/><line style="stroke:#181818;stroke-width:1.0;stroke-dasharray:2.0,2.0;" x1="100.5" x2="577.5" y1="430.4531" y2="430.4531"/><text fill="#000000" font-family="sans-serif" font-size="13" font-weight="bold" lengthAdjust="spacing" textLength="7" x="107.5" y="425.1904">9</text><text fill="#000000" font-family="sans-serif" font-size="13" lengthAdjust="spacing" textLength="448" x="118.5" y="425.1904">Shows the candidates personal details and the applications made by the user</text><polygon fill="#181818" points="106.5,464.7441,96.5,468.7441,106.5,472.7441,102.5,468.7441" style="stroke:#181818;stroke-width:1.0;"/><line style="stroke:#181818;stroke-width:1.0;stroke-dasharray:2.0,2.0;" x1="100.5" x2="577.5" y1="468.7441" y2="468.7441"/><text fill="#000000" font-family="sans-serif" font-size="13" font-weight="bold" lengthAdjust="spacing" textLength="14" x="166.5" y="463.4814">10</text><text fill="#000000" font-family="sans-serif" font-size="13" lengthAdjust="spacing" textLength="323" x="184.5" y="463.4814">Asks the user if it wants to search for another candidate</text><path d="M20,483.7441 L81,483.7441 L81,493.0352 L71,503.0352 L20,503.0352 L20,483.7441 " fill="#EEEEEE" style="stroke:#000000;stroke-width:1.5;"/><rect fill="none" height="50.582" style="stroke:#000000;stroke-width:1.5;" width="598.5" x="20" y="483.7441"/><text fill="#000000" font-family="sans-serif" font-size="13" font-weight="bold" lengthAdjust="spacing" textLength="16" x="35" y="498.7725">alt</text><text fill="#000000" font-family="sans-serif" font-size="11" font-weight="bold" lengthAdjust="spacing" textLength="158" x="96" y="497.6143">[User wants to search again]</text><polygon fill="#181818" points="566.5,522.3262,576.5,526.3262,566.5,530.3262,570.5,526.3262" style="stroke:#181818;stroke-width:1.0;"/><line style="stroke:#181818;stroke-width:1.0;" x1="95.5" x2="572.5" y1="526.3262" y2="526.3262"/><text fill="#000000" font-family="sans-serif" font-size="13" font-weight="bold" lengthAdjust="spacing" textLength="14" x="304" y="521.0635">11</text><text fill="#000000" font-family="sans-serif" font-size="13" lengthAdjust="spacing" textLength="48" x="322" y="521.0635">Accepts</text><polygon fill="#181818" points="566.5,567.6172,576.5,571.6172,566.5,575.6172,570.5,571.6172" style="stroke:#181818;stroke-width:1.0;"/><line style="stroke:#181818;stroke-width:1.0;" x1="95.5" x2="572.5" y1="571.6172" y2="571.6172"/><text fill="#000000" font-family="sans-serif" font-size="13" font-weight="bold" lengthAdjust="spacing" textLength="14" x="290.5" y="566.3545">12</text><text fill="#000000" font-family="sans-serif" font-size="13" lengthAdjust="spacing" textLength="75" x="308.5" y="566.3545">Writes "Exit"</text><polygon fill="#181818" points="106.5,598.9082,96.5,602.9082,106.5,606.9082,102.5,602.9082" style="stroke:#181818;stroke-width:1.0;"/><line style="stroke:#181818;stroke-width:1.0;stroke-dasharray:2.0,2.0;" x1="100.5" x2="577.5" y1="602.9082" y2="602.9082"/><text fill="#000000" font-family="sans-serif" font-size="13" font-weight="bold" lengthAdjust="spacing" textLength="14" x="226.5" y="597.6455">13</text><text fill="#000000" font-family="sans-serif" font-size="13" lengthAdjust="spacing" textLength="203" x="244.5" y="597.6455">Sends user back to the main menu</text><!--SRC=[lPCnRnin38Lt_GeYIzh1zUwXW55qo90iHjkPrj5tWYLA5Nbr_U_BEpM7n0cS00MgwN0IF_6zHzqEgaKswtM9o3gc-Cddj1RwEH9xMdK1-uh9EHmryvZsL9qS0nUql_1ux9v4iATj33s39rOxvRwCeZbHlKUslGghpx0xYrBQm5QE0feX1b7GWI3m8TU46Z93FW22H-v2XqhEnPoBSs2hbSFAI1Vm3Uo6V986DC1IBc1VWDDzfo7u0J8JV1WbS0-KCCIFhh4nAjpnBuoXQnk0NLTDLzkUrXL1Trn6jRjCo5N44mMFfJl2wWThr1oOlLXwXrFGmNwXDjohc1T6F6GDXs2yYJMAzHdqLfR65ZlCVgrdm1u3Dp958VZ-hmxyP_slOZ366OMbnE3diP9fB9xXtsTdcwjdXGA5gcJ621sfDTQ6xCM52Jk2_Na9efdCtTl3tDx7aj_18eIJFSyvDPcLDfsSxLIzr3JDyhUfyhBcITXlnBdrdeh-JMxkUMdyIjMF6YPxRhx-3dhpZZThJ6aQz-YFyqYQQCkQ8H6FxWy0]--></g></svg>