<?xml version="1.0" encoding="us-ascii" standalone="no"?><svg xmlns="http://www.w3.org/2000/svg" xmlns:xlink="http://www.w3.org/1999/xlink" contentStyleType="text/css" height="923px" preserveAspectRatio="none" style="width:920px;height:923px;background:#FFFFFF;" version="1.1" viewBox="0 0 920 923" width="920px" zoomAndPan="magnify"><defs/><g><!--class AbstractUI--><g id="elem_AbstractUI"><rect codeLine="5" fill="#F1F1F1" height="103.8633" id="AbstractUI" rx="2.5" ry="2.5" style="stroke:#181818;stroke-width:0.5;" width="98" x="239" y="7"/><ellipse cx="254" cy="23" fill="#A9DCDF" rx="11" ry="11" style="stroke:#181818;stroke-width:1.0;"/><path d="M256.1875,24.7656 L252.0469,24.7656 L251.625,25.7969 L252.0469,25.7969 Q252.6563,25.7969 252.9219,26.0313 Q253.1875,26.2656 253.1875,26.6563 Q253.1875,27.0313 252.9219,27.2656 Q252.6563,27.5 252.0469,27.5 L249.75,27.5 Q249.1406,27.5 248.8906,27.2656 Q248.625,27.0313 248.625,26.6406 Q248.625,26.2656 248.9063,26.0313 Q249.1719,25.7813 249.7969,25.7969 L252.4688,19.1406 L251.3594,19.1406 Q250.75,19.1406 250.4844,18.9063 Q250.2188,18.6719 250.2188,18.2813 Q250.2188,17.9063 250.4844,17.6719 Q250.75,17.4375 251.3594,17.4375 L255.0313,17.4375 L258.4219,25.7969 Q259.0156,25.7969 259.2031,25.9375 Q259.5938,26.2031 259.5938,26.6563 Q259.5938,27.0313 259.3281,27.2656 Q259.0781,27.5 258.4688,27.5 L256.1719,27.5 Q255.5625,27.5 255.2969,27.2656 Q255.0313,27.0313 255.0313,26.6406 Q255.0313,26.2656 255.2969,26.0313 Q255.5625,25.7969 256.1719,25.7969 L256.5938,25.7969 L256.1875,24.7656 Z M255.4688,23.0625 L254.1094,19.6875 L252.7344,23.0625 L255.4688,23.0625 Z " fill="#000000"/><text fill="#000000" font-family="sans-serif" font-size="14" font-style="italic" lengthAdjust="spacing" textLength="66" x="268" y="28.7969">AbstractUI</text><line style="stroke:#181818;stroke-width:0.5;" x1="240" x2="336" y1="39" y2="39"/><line style="stroke:#181818;stroke-width:0.5;" x1="240" x2="336" y1="47" y2="47"/><polygon fill="#FFFF44" points="250,56.8105,254,60.8105,250,64.8105,246,60.8105" style="stroke:#B38D22;stroke-width:1.0;"/><text fill="#000000" font-family="sans-serif" font-size="14" lengthAdjust="spacing" textLength="60" x="259" y="66.1074">doShow()</text><polygon fill="#FFFF44" points="250,75.4316,254,79.4316,250,83.4316,246,79.4316" style="stroke:#B38D22;stroke-width:1.0;"/><text fill="#000000" font-family="sans-serif" font-size="14" lengthAdjust="spacing" textLength="42" x="259" y="84.7285">show()</text><polygon fill="#FFFF44" points="250,94.0527,254,98.0527,250,102.0527,246,98.0527" style="stroke:#B38D22;stroke-width:1.0;"/><text fill="#000000" font-family="sans-serif" font-size="14" lengthAdjust="spacing" textLength="72" x="259" y="103.3496">mainLoop()</text></g><!--class AbstractListUI--><g id="elem_AbstractListUI"><rect codeLine="10" fill="#F1F1F1" height="85.2422" id="AbstractListUI" rx="2.5" ry="2.5" style="stroke:#181818;stroke-width:0.5;" width="132" x="222" y="171"/><ellipse cx="242.4" cy="187" fill="#A9DCDF" rx="11" ry="11" style="stroke:#181818;stroke-width:1.0;"/><path d="M244.5875,188.7656 L240.4469,188.7656 L240.025,189.7969 L240.4469,189.7969 Q241.0563,189.7969 241.3219,190.0313 Q241.5875,190.2656 241.5875,190.6563 Q241.5875,191.0313 241.3219,191.2656 Q241.0563,191.5 240.4469,191.5 L238.15,191.5 Q237.5406,191.5 237.2906,191.2656 Q237.025,191.0313 237.025,190.6406 Q237.025,190.2656 237.3063,190.0313 Q237.5719,189.7813 238.1969,189.7969 L240.8688,183.1406 L239.7594,183.1406 Q239.15,183.1406 238.8844,182.9063 Q238.6188,182.6719 238.6188,182.2813 Q238.6188,181.9063 238.8844,181.6719 Q239.15,181.4375 239.7594,181.4375 L243.4313,181.4375 L246.8219,189.7969 Q247.4156,189.7969 247.6031,189.9375 Q247.9938,190.2031 247.9938,190.6563 Q247.9938,191.0313 247.7281,191.2656 Q247.4781,191.5 246.8688,191.5 L244.5719,191.5 Q243.9625,191.5 243.6969,191.2656 Q243.4313,191.0313 243.4313,190.6406 Q243.4313,190.2656 243.6969,190.0313 Q243.9625,189.7969 244.5719,189.7969 L244.9938,189.7969 L244.5875,188.7656 Z M243.8688,187.0625 L242.5094,183.6875 L241.1344,187.0625 L243.8688,187.0625 Z " fill="#000000"/><text fill="#000000" font-family="sans-serif" font-size="14" font-style="italic" lengthAdjust="spacing" textLength="88" x="257.6" y="192.7969">AbstractListUI</text><line style="stroke:#181818;stroke-width:0.5;" x1="223" x2="353" y1="203" y2="203"/><line style="stroke:#181818;stroke-width:0.5;" x1="223" x2="353" y1="211" y2="211"/><polygon fill="#FFFF44" points="233,220.8105,237,224.8105,233,228.8105,229,224.8105" style="stroke:#B38D22;stroke-width:1.0;"/><text fill="#000000" font-family="sans-serif" font-size="14" lengthAdjust="spacing" textLength="67" x="242" y="230.1074">elements()</text><polygon fill="#FFFF44" points="233,239.4316,237,243.4316,233,247.4316,229,243.4316" style="stroke:#B38D22;stroke-width:1.0;"/><text fill="#000000" font-family="sans-serif" font-size="14" lengthAdjust="spacing" textLength="106" x="242" y="248.7285">elementPrinter();</text></g><!--class ScheduleInterviewUI--><g id="elem_ScheduleInterviewUI"><rect codeLine="14" fill="#F1F1F1" height="48" id="ScheduleInterviewUI" rx="2.5" ry="2.5" style="stroke:#181818;stroke-width:0.5;" width="158" x="372" y="35"/><ellipse cx="387" cy="51" fill="#ADD1B2" rx="11" ry="11" style="stroke:#181818;stroke-width:1.0;"/><path d="M389.7656,46.875 Q389.9219,46.6563 390.1094,46.5469 Q390.2969,46.4375 390.5156,46.4375 Q390.8906,46.4375 391.125,46.7031 Q391.3594,46.9531 391.3594,47.5625 L391.3594,49.0156 Q391.3594,49.625 391.125,49.8906 Q390.8906,50.1563 390.5156,50.1563 Q390.1719,50.1563 389.9688,49.9531 Q389.7656,49.7656 389.6563,49.25 Q389.6094,48.8906 389.4219,48.7031 Q389.0938,48.3281 388.4844,48.1094 Q387.875,47.8906 387.25,47.8906 Q386.4844,47.8906 385.8438,48.2188 Q385.2188,48.5469 384.7188,49.2969 Q384.2344,50.0469 384.2344,51.0781 L384.2344,52.1719 Q384.2344,53.4063 385.125,54.2344 Q386.0156,55.0469 387.6094,55.0469 Q388.5469,55.0469 389.2031,54.7969 Q389.5938,54.6406 390.0156,54.2031 Q390.2813,53.9375 390.4219,53.8594 Q390.5781,53.7813 390.7813,53.7813 Q391.1094,53.7813 391.3594,54.0469 Q391.625,54.2969 391.625,54.6406 Q391.625,54.9844 391.2813,55.3906 Q390.7813,55.9688 389.9844,56.2969 Q388.9063,56.75 387.6094,56.75 Q386.0938,56.75 384.8906,56.125 Q383.9063,55.625 383.2188,54.5625 Q382.5313,53.4844 382.5313,52.2031 L382.5313,51.0469 Q382.5313,49.7188 383.1406,48.5781 Q383.7656,47.4219 384.8594,46.8125 Q385.9531,46.1875 387.1875,46.1875 Q387.9219,46.1875 388.5625,46.3594 Q389.2188,46.5156 389.7656,46.875 Z " fill="#000000"/><text fill="#000000" font-family="sans-serif" font-size="14" lengthAdjust="spacing" textLength="126" x="401" y="56.7969">ScheduleInterviewUI</text><line style="stroke:#181818;stroke-width:0.5;" x1="373" x2="529" y1="67" y2="67"/><line style="stroke:#181818;stroke-width:0.5;" x1="373" x2="529" y1="75" y2="75"/></g><!--class AuthorizationService--><g id="elem_AuthorizationService"><rect codeLine="17" fill="#F1F1F1" height="66.6211" id="AuthorizationService" rx="2.5" ry="2.5" style="stroke:#181818;stroke-width:0.5;" width="290" x="7" y="550"/><ellipse cx="83.25" cy="566" fill="#ADD1B2" rx="11" ry="11" style="stroke:#181818;stroke-width:1.0;"/><path d="M86.0156,561.875 Q86.1719,561.6563 86.3594,561.5469 Q86.5469,561.4375 86.7656,561.4375 Q87.1406,561.4375 87.375,561.7031 Q87.6094,561.9531 87.6094,562.5625 L87.6094,564.0156 Q87.6094,564.625 87.375,564.8906 Q87.1406,565.1563 86.7656,565.1563 Q86.4219,565.1563 86.2188,564.9531 Q86.0156,564.7656 85.9063,564.25 Q85.8594,563.8906 85.6719,563.7031 Q85.3438,563.3281 84.7344,563.1094 Q84.125,562.8906 83.5,562.8906 Q82.7344,562.8906 82.0938,563.2188 Q81.4688,563.5469 80.9688,564.2969 Q80.4844,565.0469 80.4844,566.0781 L80.4844,567.1719 Q80.4844,568.4063 81.375,569.2344 Q82.2656,570.0469 83.8594,570.0469 Q84.7969,570.0469 85.4531,569.7969 Q85.8438,569.6406 86.2656,569.2031 Q86.5313,568.9375 86.6719,568.8594 Q86.8281,568.7813 87.0313,568.7813 Q87.3594,568.7813 87.6094,569.0469 Q87.875,569.2969 87.875,569.6406 Q87.875,569.9844 87.5313,570.3906 Q87.0313,570.9688 86.2344,571.2969 Q85.1563,571.75 83.8594,571.75 Q82.3438,571.75 81.1406,571.125 Q80.1563,570.625 79.4688,569.5625 Q78.7813,568.4844 78.7813,567.2031 L78.7813,566.0469 Q78.7813,564.7188 79.3906,563.5781 Q80.0156,562.4219 81.1094,561.8125 Q82.2031,561.1875 83.4375,561.1875 Q84.1719,561.1875 84.8125,561.3594 Q85.4688,561.5156 86.0156,561.875 Z " fill="#000000"/><text fill="#000000" font-family="sans-serif" font-size="14" lengthAdjust="spacing" textLength="129" x="103.75" y="571.7969">AuthorizationService</text><line style="stroke:#181818;stroke-width:0.5;" x1="8" x2="296" y1="582" y2="582"/><line style="stroke:#181818;stroke-width:0.5;" x1="8" x2="296" y1="590" y2="590"/><ellipse cx="18" cy="604.8105" fill="#84BE84" rx="3" ry="3" style="stroke:#038048;stroke-width:1.0;"/><text fill="#000000" font-family="sans-serif" font-size="14" lengthAdjust="spacing" textLength="264" x="27" y="609.1074">ensureAuthenticatedUserHasAnyOf(roles)</text></g><!--class JobOpeningManagementService--><g id="elem_JobOpeningManagementService"><rect codeLine="21" fill="#F1F1F1" height="66.6211" id="JobOpeningManagementService" rx="2.5" ry="2.5" style="stroke:#181818;stroke-width:0.5;" width="237" x="332.5" y="550"/><ellipse cx="347.5" cy="566" fill="#ADD1B2" rx="11" ry="11" style="stroke:#181818;stroke-width:1.0;"/><path d="M350.2656,561.875 Q350.4219,561.6563 350.6094,561.5469 Q350.7969,561.4375 351.0156,561.4375 Q351.3906,561.4375 351.625,561.7031 Q351.8594,561.9531 351.8594,562.5625 L351.8594,564.0156 Q351.8594,564.625 351.625,564.8906 Q351.3906,565.1563 351.0156,565.1563 Q350.6719,565.1563 350.4688,564.9531 Q350.2656,564.7656 350.1563,564.25 Q350.1094,563.8906 349.9219,563.7031 Q349.5938,563.3281 348.9844,563.1094 Q348.375,562.8906 347.75,562.8906 Q346.9844,562.8906 346.3438,563.2188 Q345.7188,563.5469 345.2188,564.2969 Q344.7344,565.0469 344.7344,566.0781 L344.7344,567.1719 Q344.7344,568.4063 345.625,569.2344 Q346.5156,570.0469 348.1094,570.0469 Q349.0469,570.0469 349.7031,569.7969 Q350.0938,569.6406 350.5156,569.2031 Q350.7813,568.9375 350.9219,568.8594 Q351.0781,568.7813 351.2813,568.7813 Q351.6094,568.7813 351.8594,569.0469 Q352.125,569.2969 352.125,569.6406 Q352.125,569.9844 351.7813,570.3906 Q351.2813,570.9688 350.4844,571.2969 Q349.4063,571.75 348.1094,571.75 Q346.5938,571.75 345.3906,571.125 Q344.4063,570.625 343.7188,569.5625 Q343.0313,568.4844 343.0313,567.2031 L343.0313,566.0469 Q343.0313,564.7188 343.6406,563.5781 Q344.2656,562.4219 345.3594,561.8125 Q346.4531,561.1875 347.6875,561.1875 Q348.4219,561.1875 349.0625,561.3594 Q349.7188,561.5156 350.2656,561.875 Z " fill="#000000"/><text fill="#000000" font-family="sans-serif" font-size="14" lengthAdjust="spacing" textLength="205" x="361.5" y="571.7969">JobOpeningManagementService</text><line style="stroke:#181818;stroke-width:0.5;" x1="333.5" x2="568.5" y1="582" y2="582"/><line style="stroke:#181818;stroke-width:0.5;" x1="333.5" x2="568.5" y1="590" y2="590"/><ellipse cx="343.5" cy="604.8105" fill="#84BE84" rx="3" ry="3" style="stroke:#038048;stroke-width:1.0;"/><text fill="#000000" font-family="sans-serif" font-size="14" lengthAdjust="spacing" textLength="128" x="352.5" y="609.1074">getJobOpeningList()</text></g><!--class JobOpeningDTOService--><g id="elem_JobOpeningDTOService"><rect codeLine="24" fill="#F1F1F1" height="66.6211" id="JobOpeningDTOService" rx="2.5" ry="2.5" style="stroke:#181818;stroke-width:0.5;" width="185" x="248.5" y="840"/><ellipse cx="263.5" cy="856" fill="#ADD1B2" rx="11" ry="11" style="stroke:#181818;stroke-width:1.0;"/><path d="M266.2656,851.875 Q266.4219,851.6563 266.6094,851.5469 Q266.7969,851.4375 267.0156,851.4375 Q267.3906,851.4375 267.625,851.7031 Q267.8594,851.9531 267.8594,852.5625 L267.8594,854.0156 Q267.8594,854.625 267.625,854.8906 Q267.3906,855.1563 267.0156,855.1563 Q266.6719,855.1563 266.4688,854.9531 Q266.2656,854.7656 266.1563,854.25 Q266.1094,853.8906 265.9219,853.7031 Q265.5938,853.3281 264.9844,853.1094 Q264.375,852.8906 263.75,852.8906 Q262.9844,852.8906 262.3438,853.2188 Q261.7188,853.5469 261.2188,854.2969 Q260.7344,855.0469 260.7344,856.0781 L260.7344,857.1719 Q260.7344,858.4063 261.625,859.2344 Q262.5156,860.0469 264.1094,860.0469 Q265.0469,860.0469 265.7031,859.7969 Q266.0938,859.6406 266.5156,859.2031 Q266.7813,858.9375 266.9219,858.8594 Q267.0781,858.7813 267.2813,858.7813 Q267.6094,858.7813 267.8594,859.0469 Q268.125,859.2969 268.125,859.6406 Q268.125,859.9844 267.7813,860.3906 Q267.2813,860.9688 266.4844,861.2969 Q265.4063,861.75 264.1094,861.75 Q262.5938,861.75 261.3906,861.125 Q260.4063,860.625 259.7188,859.5625 Q259.0313,858.4844 259.0313,857.2031 L259.0313,856.0469 Q259.0313,854.7188 259.6406,853.5781 Q260.2656,852.4219 261.3594,851.8125 Q262.4531,851.1875 263.6875,851.1875 Q264.4219,851.1875 265.0625,851.3594 Q265.7188,851.5156 266.2656,851.875 Z " fill="#000000"/><text fill="#000000" font-family="sans-serif" font-size="14" lengthAdjust="spacing" textLength="153" x="277.5" y="861.7969">JobOpeningDTOService</text><line style="stroke:#181818;stroke-width:0.5;" x1="249.5" x2="432.5" y1="872" y2="872"/><line style="stroke:#181818;stroke-width:0.5;" x1="249.5" x2="432.5" y1="880" y2="880"/><ellipse cx="259.5" cy="894.8105" fill="#84BE84" rx="3" ry="3" style="stroke:#038048;stroke-width:1.0;"/><text fill="#000000" font-family="sans-serif" font-size="14" lengthAdjust="spacing" textLength="96" x="268.5" y="899.1074">convertToDto()</text></g><!--class ApplicationManagementService--><g id="elem_ApplicationManagementService"><rect codeLine="27" fill="#F1F1F1" height="85.2422" id="ApplicationManagementService" rx="2.5" ry="2.5" style="stroke:#181818;stroke-width:0.5;" width="230" x="605" y="541"/><ellipse cx="620" cy="557" fill="#ADD1B2" rx="11" ry="11" style="stroke:#181818;stroke-width:1.0;"/><path d="M622.7656,552.875 Q622.9219,552.6563 623.1094,552.5469 Q623.2969,552.4375 623.5156,552.4375 Q623.8906,552.4375 624.125,552.7031 Q624.3594,552.9531 624.3594,553.5625 L624.3594,555.0156 Q624.3594,555.625 624.125,555.8906 Q623.8906,556.1563 623.5156,556.1563 Q623.1719,556.1563 622.9688,555.9531 Q622.7656,555.7656 622.6563,555.25 Q622.6094,554.8906 622.4219,554.7031 Q622.0938,554.3281 621.4844,554.1094 Q620.875,553.8906 620.25,553.8906 Q619.4844,553.8906 618.8438,554.2188 Q618.2188,554.5469 617.7188,555.2969 Q617.2344,556.0469 617.2344,557.0781 L617.2344,558.1719 Q617.2344,559.4063 618.125,560.2344 Q619.0156,561.0469 620.6094,561.0469 Q621.5469,561.0469 622.2031,560.7969 Q622.5938,560.6406 623.0156,560.2031 Q623.2813,559.9375 623.4219,559.8594 Q623.5781,559.7813 623.7813,559.7813 Q624.1094,559.7813 624.3594,560.0469 Q624.625,560.2969 624.625,560.6406 Q624.625,560.9844 624.2813,561.3906 Q623.7813,561.9688 622.9844,562.2969 Q621.9063,562.75 620.6094,562.75 Q619.0938,562.75 617.8906,562.125 Q616.9063,561.625 616.2188,560.5625 Q615.5313,559.4844 615.5313,558.2031 L615.5313,557.0469 Q615.5313,555.7188 616.1406,554.5781 Q616.7656,553.4219 617.8594,552.8125 Q618.9531,552.1875 620.1875,552.1875 Q620.9219,552.1875 621.5625,552.3594 Q622.2188,552.5156 622.7656,552.875 Z " fill="#000000"/><text fill="#000000" font-family="sans-serif" font-size="14" lengthAdjust="spacing" textLength="198" x="634" y="562.7969">ApplicationManagementService</text><line style="stroke:#181818;stroke-width:0.5;" x1="606" x2="834" y1="573" y2="573"/><line style="stroke:#181818;stroke-width:0.5;" x1="606" x2="834" y1="581" y2="581"/><ellipse cx="616" cy="595.8105" fill="#84BE84" rx="3" ry="3" style="stroke:#038048;stroke-width:1.0;"/><text fill="#000000" font-family="sans-serif" font-size="14" lengthAdjust="spacing" textLength="121" x="625" y="600.1074">getApplicationList()</text><ellipse cx="616" cy="614.4316" fill="#84BE84" rx="3" ry="3" style="stroke:#038048;stroke-width:1.0;"/><text fill="#000000" font-family="sans-serif" font-size="14" lengthAdjust="spacing" textLength="123" x="625" y="618.7285">updateApplication()</text></g><!--class ApplicationDtoService--><g id="elem_ApplicationDtoService"><rect codeLine="31" fill="#F1F1F1" height="66.6211" id="ApplicationDtoService" rx="2.5" ry="2.5" style="stroke:#181818;stroke-width:0.5;" width="170" x="743" y="840"/><ellipse cx="758" cy="856" fill="#ADD1B2" rx="11" ry="11" style="stroke:#181818;stroke-width:1.0;"/><path d="M760.7656,851.875 Q760.9219,851.6563 761.1094,851.5469 Q761.2969,851.4375 761.5156,851.4375 Q761.8906,851.4375 762.125,851.7031 Q762.3594,851.9531 762.3594,852.5625 L762.3594,854.0156 Q762.3594,854.625 762.125,854.8906 Q761.8906,855.1563 761.5156,855.1563 Q761.1719,855.1563 760.9688,854.9531 Q760.7656,854.7656 760.6563,854.25 Q760.6094,853.8906 760.4219,853.7031 Q760.0938,853.3281 759.4844,853.1094 Q758.875,852.8906 758.25,852.8906 Q757.4844,852.8906 756.8438,853.2188 Q756.2188,853.5469 755.7188,854.2969 Q755.2344,855.0469 755.2344,856.0781 L755.2344,857.1719 Q755.2344,858.4063 756.125,859.2344 Q757.0156,860.0469 758.6094,860.0469 Q759.5469,860.0469 760.2031,859.7969 Q760.5938,859.6406 761.0156,859.2031 Q761.2813,858.9375 761.4219,858.8594 Q761.5781,858.7813 761.7813,858.7813 Q762.1094,858.7813 762.3594,859.0469 Q762.625,859.2969 762.625,859.6406 Q762.625,859.9844 762.2813,860.3906 Q761.7813,860.9688 760.9844,861.2969 Q759.9063,861.75 758.6094,861.75 Q757.0938,861.75 755.8906,861.125 Q754.9063,860.625 754.2188,859.5625 Q753.5313,858.4844 753.5313,857.2031 L753.5313,856.0469 Q753.5313,854.7188 754.1406,853.5781 Q754.7656,852.4219 755.8594,851.8125 Q756.9531,851.1875 758.1875,851.1875 Q758.9219,851.1875 759.5625,851.3594 Q760.2188,851.5156 760.7656,851.875 Z " fill="#000000"/><text fill="#000000" font-family="sans-serif" font-size="14" lengthAdjust="spacing" textLength="138" x="772" y="861.7969">ApplicationDtoService</text><line style="stroke:#181818;stroke-width:0.5;" x1="744" x2="912" y1="872" y2="872"/><line style="stroke:#181818;stroke-width:0.5;" x1="744" x2="912" y1="880" y2="880"/><ellipse cx="754" cy="894.8105" fill="#84BE84" rx="3" ry="3" style="stroke:#038048;stroke-width:1.0;"/><text fill="#000000" font-family="sans-serif" font-size="14" lengthAdjust="spacing" textLength="96" x="763" y="899.1074">convertToDto()</text></g><!--class ScheduleInterviewController--><g id="elem_ScheduleInterviewController"><rect codeLine="35" fill="#F1F1F1" height="103.8633" id="ScheduleInterviewController" rx="2.5" ry="2.5" style="stroke:#181818;stroke-width:0.5;" width="208" x="347" y="316"/><ellipse cx="362" cy="332" fill="#ADD1B2" rx="11" ry="11" style="stroke:#181818;stroke-width:1.0;"/><path d="M364.7656,327.875 Q364.9219,327.6563 365.1094,327.5469 Q365.2969,327.4375 365.5156,327.4375 Q365.8906,327.4375 366.125,327.7031 Q366.3594,327.9531 366.3594,328.5625 L366.3594,330.0156 Q366.3594,330.625 366.125,330.8906 Q365.8906,331.1563 365.5156,331.1563 Q365.1719,331.1563 364.9688,330.9531 Q364.7656,330.7656 364.6563,330.25 Q364.6094,329.8906 364.4219,329.7031 Q364.0938,329.3281 363.4844,329.1094 Q362.875,328.8906 362.25,328.8906 Q361.4844,328.8906 360.8438,329.2188 Q360.2188,329.5469 359.7188,330.2969 Q359.2344,331.0469 359.2344,332.0781 L359.2344,333.1719 Q359.2344,334.4063 360.125,335.2344 Q361.0156,336.0469 362.6094,336.0469 Q363.5469,336.0469 364.2031,335.7969 Q364.5938,335.6406 365.0156,335.2031 Q365.2813,334.9375 365.4219,334.8594 Q365.5781,334.7813 365.7813,334.7813 Q366.1094,334.7813 366.3594,335.0469 Q366.625,335.2969 366.625,335.6406 Q366.625,335.9844 366.2813,336.3906 Q365.7813,336.9688 364.9844,337.2969 Q363.9063,337.75 362.6094,337.75 Q361.0938,337.75 359.8906,337.125 Q358.9063,336.625 358.2188,335.5625 Q357.5313,334.4844 357.5313,333.2031 L357.5313,332.0469 Q357.5313,330.7188 358.1406,329.5781 Q358.7656,328.4219 359.8594,327.8125 Q360.9531,327.1875 362.1875,327.1875 Q362.9219,327.1875 363.5625,327.3594 Q364.2188,327.5156 364.7656,327.875 Z " fill="#000000"/><text fill="#000000" font-family="sans-serif" font-size="14" lengthAdjust="spacing" textLength="176" x="376" y="337.7969">ScheduleInterviewController</text><line style="stroke:#181818;stroke-width:0.5;" x1="348" x2="554" y1="348" y2="348"/><line style="stroke:#181818;stroke-width:0.5;" x1="348" x2="554" y1="356" y2="356"/><ellipse cx="358" cy="370.8105" fill="#84BE84" rx="3" ry="3" style="stroke:#038048;stroke-width:1.0;"/><text fill="#000000" font-family="sans-serif" font-size="14" lengthAdjust="spacing" textLength="128" x="367" y="375.1074">getJobOpeningList()</text><ellipse cx="358" cy="389.4316" fill="#84BE84" rx="3" ry="3" style="stroke:#038048;stroke-width:1.0;"/><text fill="#000000" font-family="sans-serif" font-size="14" lengthAdjust="spacing" textLength="121" x="367" y="393.7285">getApplicationList()</text><ellipse cx="358" cy="408.0527" fill="#84BE84" rx="3" ry="3" style="stroke:#038048;stroke-width:1.0;"/><text fill="#000000" font-family="sans-serif" font-size="14" lengthAdjust="spacing" textLength="181" x="367" y="412.3496">updateApplication(date,time)</text></g><!--class JobOpeningRepository--><g id="elem_JobOpeningRepository"><rect codeLine="40" fill="#F1F1F1" height="66.6211" id="JobOpeningRepository" rx="2.5" ry="2.5" style="stroke:#181818;stroke-width:0.5;" width="176" x="394" y="695"/><ellipse cx="409" cy="711" fill="#ADD1B2" rx="11" ry="11" style="stroke:#181818;stroke-width:1.0;"/><path d="M411.7656,706.875 Q411.9219,706.6563 412.1094,706.5469 Q412.2969,706.4375 412.5156,706.4375 Q412.8906,706.4375 413.125,706.7031 Q413.3594,706.9531 413.3594,707.5625 L413.3594,709.0156 Q413.3594,709.625 413.125,709.8906 Q412.8906,710.1563 412.5156,710.1563 Q412.1719,710.1563 411.9688,709.9531 Q411.7656,709.7656 411.6563,709.25 Q411.6094,708.8906 411.4219,708.7031 Q411.0938,708.3281 410.4844,708.1094 Q409.875,707.8906 409.25,707.8906 Q408.4844,707.8906 407.8438,708.2188 Q407.2188,708.5469 406.7188,709.2969 Q406.2344,710.0469 406.2344,711.0781 L406.2344,712.1719 Q406.2344,713.4063 407.125,714.2344 Q408.0156,715.0469 409.6094,715.0469 Q410.5469,715.0469 411.2031,714.7969 Q411.5938,714.6406 412.0156,714.2031 Q412.2813,713.9375 412.4219,713.8594 Q412.5781,713.7813 412.7813,713.7813 Q413.1094,713.7813 413.3594,714.0469 Q413.625,714.2969 413.625,714.6406 Q413.625,714.9844 413.2813,715.3906 Q412.7813,715.9688 411.9844,716.2969 Q410.9063,716.75 409.6094,716.75 Q408.0938,716.75 406.8906,716.125 Q405.9063,715.625 405.2188,714.5625 Q404.5313,713.4844 404.5313,712.2031 L404.5313,711.0469 Q404.5313,709.7188 405.1406,708.5781 Q405.7656,707.4219 406.8594,706.8125 Q407.9531,706.1875 409.1875,706.1875 Q409.9219,706.1875 410.5625,706.3594 Q411.2188,706.5156 411.7656,706.875 Z " fill="#000000"/><text fill="#000000" font-family="sans-serif" font-size="14" lengthAdjust="spacing" textLength="144" x="423" y="716.7969">JobOpeningRepository</text><line style="stroke:#181818;stroke-width:0.5;" x1="395" x2="569" y1="727" y2="727"/><line style="stroke:#181818;stroke-width:0.5;" x1="395" x2="569" y1="735" y2="735"/><ellipse cx="405" cy="749.8105" fill="#84BE84" rx="3" ry="3" style="stroke:#038048;stroke-width:1.0;"/><text fill="#000000" font-family="sans-serif" font-size="14" lengthAdjust="spacing" textLength="128" x="414" y="754.1074">getJobOpeningList()</text></g><!--class ApplicationRepository--><g id="elem_ApplicationRepository"><rect codeLine="45" fill="#F1F1F1" height="85.2422" id="ApplicationRepository" rx="2.5" ry="2.5" style="stroke:#181818;stroke-width:0.5;" width="169" x="605.5" y="686"/><ellipse cx="620.5" cy="702" fill="#ADD1B2" rx="11" ry="11" style="stroke:#181818;stroke-width:1.0;"/><path d="M623.2656,697.875 Q623.4219,697.6563 623.6094,697.5469 Q623.7969,697.4375 624.0156,697.4375 Q624.3906,697.4375 624.625,697.7031 Q624.8594,697.9531 624.8594,698.5625 L624.8594,700.0156 Q624.8594,700.625 624.625,700.8906 Q624.3906,701.1563 624.0156,701.1563 Q623.6719,701.1563 623.4688,700.9531 Q623.2656,700.7656 623.1563,700.25 Q623.1094,699.8906 622.9219,699.7031 Q622.5938,699.3281 621.9844,699.1094 Q621.375,698.8906 620.75,698.8906 Q619.9844,698.8906 619.3438,699.2188 Q618.7188,699.5469 618.2188,700.2969 Q617.7344,701.0469 617.7344,702.0781 L617.7344,703.1719 Q617.7344,704.4063 618.625,705.2344 Q619.5156,706.0469 621.1094,706.0469 Q622.0469,706.0469 622.7031,705.7969 Q623.0938,705.6406 623.5156,705.2031 Q623.7813,704.9375 623.9219,704.8594 Q624.0781,704.7813 624.2813,704.7813 Q624.6094,704.7813 624.8594,705.0469 Q625.125,705.2969 625.125,705.6406 Q625.125,705.9844 624.7813,706.3906 Q624.2813,706.9688 623.4844,707.2969 Q622.4063,707.75 621.1094,707.75 Q619.5938,707.75 618.3906,707.125 Q617.4063,706.625 616.7188,705.5625 Q616.0313,704.4844 616.0313,703.2031 L616.0313,702.0469 Q616.0313,700.7188 616.6406,699.5781 Q617.2656,698.4219 618.3594,697.8125 Q619.4531,697.1875 620.6875,697.1875 Q621.4219,697.1875 622.0625,697.3594 Q622.7188,697.5156 623.2656,697.875 Z " fill="#000000"/><text fill="#000000" font-family="sans-serif" font-size="14" lengthAdjust="spacing" textLength="137" x="634.5" y="707.7969">ApplicationRepository</text><line style="stroke:#181818;stroke-width:0.5;" x1="606.5" x2="773.5" y1="718" y2="718"/><line style="stroke:#181818;stroke-width:0.5;" x1="606.5" x2="773.5" y1="726" y2="726"/><ellipse cx="616.5" cy="740.8105" fill="#84BE84" rx="3" ry="3" style="stroke:#038048;stroke-width:1.0;"/><text fill="#000000" font-family="sans-serif" font-size="14" lengthAdjust="spacing" textLength="128" x="625.5" y="745.1074">getApplicationsList()</text><ellipse cx="616.5" cy="759.4316" fill="#84BE84" rx="3" ry="3" style="stroke:#038048;stroke-width:1.0;"/><text fill="#000000" font-family="sans-serif" font-size="14" lengthAdjust="spacing" textLength="40" x="625.5" y="763.7285">save()</text></g><!--class DomainRepository--><g id="elem_DomainRepository"><rect codeLine="50" fill="#F1F1F1" height="85.2422" id="DomainRepository" rx="2.5" ry="2.5" style="stroke:#181818;stroke-width:0.5;" width="148" x="515" y="831"/><ellipse cx="530" cy="847" fill="#B4A7E5" rx="11" ry="11" style="stroke:#181818;stroke-width:1.0;"/><path d="M530.9531,843.6406 L530.9531,850.2969 L532.6719,850.2969 Q533.2813,850.2969 533.5469,850.5313 Q533.8125,850.7656 533.8125,851.1563 Q533.8125,851.5313 533.5469,851.7656 Q533.2813,852 532.6719,852 L527.5313,852 Q526.9219,852 526.6563,851.7656 Q526.3906,851.5313 526.3906,851.1406 Q526.3906,850.7656 526.6563,850.5313 Q526.9219,850.2969 527.5313,850.2969 L529.25,850.2969 L529.25,843.6406 L527.5313,843.6406 Q526.9219,843.6406 526.6563,843.4063 Q526.3906,843.1719 526.3906,842.7813 Q526.3906,842.4063 526.6563,842.1719 Q526.9219,841.9375 527.5313,841.9375 L532.6719,841.9375 Q533.2813,841.9375 533.5469,842.1719 Q533.8125,842.4063 533.8125,842.7813 Q533.8125,843.1719 533.5469,843.4063 Q533.2813,843.6406 532.6719,843.6406 L530.9531,843.6406 Z " fill="#000000"/><text fill="#000000" font-family="sans-serif" font-size="14" font-style="italic" lengthAdjust="spacing" textLength="116" x="544" y="852.7969">DomainRepository</text><line style="stroke:#181818;stroke-width:0.5;" x1="516" x2="662" y1="863" y2="863"/><line style="stroke:#181818;stroke-width:0.5;" x1="516" x2="662" y1="871" y2="871"/><ellipse cx="526" cy="885.8105" fill="#84BE84" rx="3" ry="3" style="stroke:#038048;stroke-width:1.0;"/><text fill="#000000" font-family="sans-serif" font-size="14" lengthAdjust="spacing" textLength="40" x="535" y="890.1074">save()</text><ellipse cx="526" cy="904.4316" fill="#84BE84" rx="3" ry="3" style="stroke:#038048;stroke-width:1.0;"/><text fill="#000000" font-family="sans-serif" font-size="14" lengthAdjust="spacing" textLength="67" x="535" y="908.7285">ofIdentify()</text></g><!--reverse link AbstractUI to AbstractListUI--><g id="link_AbstractUI_AbstractListUI"><path codeLine="55" d="M288,129.2 C288,148.59 288,152.4 288,170.8 " fill="none" id="AbstractUI-backto-AbstractListUI" style="stroke:#181818;stroke-width:1.0;"/><polygon fill="none" points="288,111.2,282,129.2,294,129.2,288,111.2" style="stroke:#181818;stroke-width:1.0;"/></g><!--reverse link AbstractUI to ScheduleInterviewUI--><g id="link_AbstractUI_ScheduleInterviewUI"><path codeLine="56" d="M355.03,59 C366.6,59 360.18,59 371.75,59 " fill="none" id="AbstractUI-backto-ScheduleInterviewUI" style="stroke:#181818;stroke-width:1.0;"/><polygon fill="none" points="337.03,59,355.03,65,355.03,53,337.03,59" style="stroke:#181818;stroke-width:1.0;"/></g><!--link ScheduleInterviewUI to ScheduleInterviewController--><g id="link_ScheduleInterviewUI_ScheduleInterviewController"><path codeLine="59" d="M451,83.07 C451,132.23 451,242.28 451,309.82 " fill="none" id="ScheduleInterviewUI-to-ScheduleInterviewController" style="stroke:#181818;stroke-width:1.0;stroke-dasharray:7.0,7.0;"/><polygon fill="#181818" points="451,315.82,455,306.82,451,310.82,447,306.82,451,315.82" style="stroke:#181818;stroke-width:1.0;"/></g><!--link ScheduleInterviewController to AuthorizationService--><g id="link_ScheduleInterviewController_AuthorizationService"><path codeLine="60" d="M379.38,420.14 C323.06,460.36 251.163,511.6934 202.803,546.2234 " fill="none" id="ScheduleInterviewController-to-AuthorizationService" style="stroke:#181818;stroke-width:1.0;stroke-dasharray:7.0,7.0;"/><polygon fill="#181818" points="197.92,549.71,207.5689,547.7355,201.9892,546.8045,202.9201,541.2248,197.92,549.71" style="stroke:#181818;stroke-width:1.0;"/></g><!--link ScheduleInterviewController to ApplicationManagementService--><g id="link_ScheduleInterviewController_ApplicationManagementService"><path codeLine="61" d="M515.43,420.14 C561.91,457.02 619.1706,502.4696 662.6706,536.9996 " fill="none" id="ScheduleInterviewController-to-ApplicationManagementService" style="stroke:#181818;stroke-width:1.0;stroke-dasharray:7.0,7.0;"/><polygon fill="#181818" points="667.37,540.73,662.8078,532.0015,663.4538,537.6214,657.834,538.2674,667.37,540.73" style="stroke:#181818;stroke-width:1.0;"/></g><!--link ScheduleInterviewController to JobOpeningManagementService--><g id="link_ScheduleInterviewController_JobOpeningManagementService"><path codeLine="62" d="M451,420.14 C451,460.36 451,509.18 451,543.71 " fill="none" id="ScheduleInterviewController-to-JobOpeningManagementService" style="stroke:#181818;stroke-width:1.0;stroke-dasharray:7.0,7.0;"/><polygon fill="#181818" points="451,549.71,455,540.71,451,544.71,447,540.71,451,549.71" style="stroke:#181818;stroke-width:1.0;"/></g><!--link ApplicationManagementService to ApplicationDtoService--><g id="link_ApplicationManagementService_ApplicationDtoService"><path codeLine="64" d="M755.55,626.02 C768.85,643.52 782.92,664.74 792,686 C813.83,737.1 821.9898,795.7535 825.3798,833.9635 " fill="none" id="ApplicationManagementService-to-ApplicationDtoService" style="stroke:#181818;stroke-width:1.0;stroke-dasharray:7.0,7.0;"/><polygon fill="#181818" points="825.91,839.94,829.099,830.6217,825.4681,834.9596,821.1303,831.3287,825.91,839.94" style="stroke:#181818;stroke-width:1.0;"/></g><!--link ApplicationManagementService to ApplicationRepository--><g id="link_ApplicationManagementService_ApplicationRepository"><path codeLine="65" d="M711.24,626.25 C707.3,645.04 703.8926,661.308 699.9526,680.078 " fill="none" id="ApplicationManagementService-to-ApplicationRepository" style="stroke:#181818;stroke-width:1.0;"/><polygon fill="#181818" points="698.72,685.95,704.4836,677.9637,699.7472,681.0566,696.6542,676.3202,698.72,685.95" style="stroke:#181818;stroke-width:1.0;"/></g><!--link JobOpeningManagementService to JobOpeningDTOService--><g id="link_JobOpeningManagementService_JobOpeningDTOService"><path codeLine="66" d="M420.78,617.31 C405.08,636.1 386.94,660.89 376,686 C353.83,736.89 346.1456,795.5981 343.1656,833.8881 " fill="none" id="JobOpeningManagementService-to-JobOpeningDTOService" style="stroke:#181818;stroke-width:1.0;stroke-dasharray:7.0,7.0;"/><polygon fill="#181818" points="342.7,839.87,347.3863,831.2075,343.088,834.8851,339.4104,830.5868,342.7,839.87" style="stroke:#181818;stroke-width:1.0;"/></g><!--link JobOpeningManagementService to JobOpeningRepository--><g id="link_JobOpeningManagementService_JobOpeningRepository"><path codeLine="67" d="M458.11,617.31 C463.15,640.56 468.6197,665.766 473.6497,688.986 " fill="none" id="JobOpeningManagementService-to-JobOpeningRepository" style="stroke:#181818;stroke-width:1.0;"/><polygon fill="#181818" points="474.92,694.85,476.9239,685.2072,473.8614,689.9633,469.1053,686.9009,474.92,694.85" style="stroke:#181818;stroke-width:1.0;"/></g><!--link JobOpeningRepository to DomainRepository--><g id="link_JobOpeningRepository_DomainRepository"><path codeLine="69" d="M506.55,762.31 C521.79,782.67 537.9146,804.2366 554.2546,826.0666 " fill="none" id="JobOpeningRepository-to-DomainRepository" style="stroke:#181818;stroke-width:1.0;stroke-dasharray:7.0,7.0;"/><polygon fill="#181818" points="557.85,830.87,555.6592,821.2679,554.8538,826.8671,549.2546,826.0618,557.85,830.87" style="stroke:#181818;stroke-width:1.0;"/></g><!--link ApplicationRepository to DomainRepository--><g id="link_ApplicationRepository_DomainRepository"><path codeLine="71" d="M660.52,771.25 C647.24,790.04 635.0719,807.2795 621.8119,826.0495 " fill="none" id="ApplicationRepository-to-DomainRepository" style="stroke:#181818;stroke-width:1.0;"/><polygon fill="#181818" points="618.35,830.95,626.8099,825.9072,621.235,826.8662,620.2759,821.2913,618.35,830.95" style="stroke:#181818;stroke-width:1.0;"/></g><!--SRC=[ZLFRRi8m37tFLqJQmq1R-O5DI6WyZ8c9QS07XDQ5I2MkahI8NVvzITkj8OImlhdsEJu-iM_f4cJDKr24i8tIagMQfWLJYawwS3sZduIQxuPckDpXOJ3iGkK6UyR57B4qFxulKSsvCdI_R5307eHMVnJTZpV9XGOv63uOffPWcUuWgmgOsKJDuT28-ajFAhr3oJ-OvYYwWJhHTnI4gYJO4iFDKwOXMokGpqnDn76H3oGMeApeZkm5DuiI11VRLoROjf7aSsv1zsLsgcPg7pzTBNnWYg86gLSurUXW9cLPM6b6VhIfKzTrRLDLcPcvd6oOspIzAkYIuqyejB6g04aDE6p11OqXVJQ-rtmF8UFUeKJ5DSfZpF1Uh4CSX3fvTUAROZMqKpTpvimuCqMxokSyNMqRO3xBx3hbnnRk7ClZLv9u6- -bG-jC20aj-IX9nh6t8B5tQi2Xs_W7AhAGrz6H4p9MnNRTRzvlR1pdmVhN8x5pziJsznf5dOASLYJqbuv6uxETEd71gRNKPxK_]--></g></svg>