<?xml version="1.0" encoding="us-ascii" standalone="no"?><svg xmlns="http://www.w3.org/2000/svg" xmlns:xlink="http://www.w3.org/1999/xlink" contentStyleType="text/css" height="478px" preserveAspectRatio="none" style="width:577px;height:478px;background:#FFFFFF;" version="1.1" viewBox="0 0 577 478" width="577px" zoomAndPan="magnify"><defs/><g><text fill="#000000" font-family="sans-serif" font-size="14" font-weight="bold" lengthAdjust="spacing" textLength="241" x="169.5" y="30.1074">US3001 System Sequence Diagram</text><rect fill="#FFFFFF" height="244.3281" style="stroke:#181818;stroke-width:1.0;" width="10" x="33.5" y="133.2422"/><rect fill="#FFFFFF" height="244.3281" style="stroke:#181818;stroke-width:1.0;" width="10" x="197.5" y="133.2422"/><rect fill="#FFFFFF" height="135.1641" style="stroke:#181818;stroke-width:1.0;" width="10" x="495.5" y="187.8242"/><rect fill="none" height="81.873" style="stroke:#000000;stroke-width:1.5;" width="435.5" x="135.5" y="234.1152"/><line style="stroke:#181818;stroke-width:0.5;stroke-dasharray:5.0,5.0;" x1="38" x2="38" y1="123.2422" y2="395.5703"/><line style="stroke:#181818;stroke-width:0.5;stroke-dasharray:5.0,5.0;" x1="202.5" x2="202.5" y1="123.2422" y2="395.5703"/><line style="stroke:#181818;stroke-width:0.5;stroke-dasharray:5.0,5.0;" x1="500" x2="500" y1="123.2422" y2="395.5703"/><text fill="#000000" font-family="sans-serif" font-size="14" lengthAdjust="spacing" textLength="61" x="5" y="119.7285">Customer</text><ellipse cx="38.5" cy="53.1211" fill="#E2E2F0" rx="8" ry="8" style="stroke:#181818;stroke-width:0.5;"/><path d="M38.5,61.1211 L38.5,88.1211 M25.5,69.1211 L51.5,69.1211 M38.5,88.1211 L25.5,103.1211 M38.5,88.1211 L51.5,103.1211 " fill="none" style="stroke:#181818;stroke-width:0.5;"/><text fill="#000000" font-family="sans-serif" font-size="14" lengthAdjust="spacing" textLength="61" x="5" y="409.6777">Customer</text><ellipse cx="38.5" cy="421.6914" fill="#E2E2F0" rx="8" ry="8" style="stroke:#181818;stroke-width:0.5;"/><path d="M38.5,429.6914 L38.5,456.6914 M25.5,437.6914 L51.5,437.6914 M38.5,456.6914 L25.5,471.6914 M38.5,456.6914 L51.5,471.6914 " fill="none" style="stroke:#181818;stroke-width:0.5;"/><rect fill="#E2E2F0" height="51.2422" rx="2.5" ry="2.5" style="stroke:#181818;stroke-width:0.5;" width="114" x="145.5" y="71"/><text fill="#000000" font-family="sans-serif" font-size="14" lengthAdjust="spacing" textLength="46" x="179.5" y="93.1074">System</text><text fill="#000000" font-family="sans-serif" font-size="14" lengthAdjust="spacing" textLength="100" x="152.5" y="111.7285">(Customer App)</text><rect fill="#E2E2F0" height="51.2422" rx="2.5" ry="2.5" style="stroke:#181818;stroke-width:0.5;" width="114" x="145.5" y="394.5703"/><text fill="#000000" font-family="sans-serif" font-size="14" lengthAdjust="spacing" textLength="46" x="179.5" y="416.6777">System</text><text fill="#000000" font-family="sans-serif" font-size="14" lengthAdjust="spacing" textLength="100" x="152.5" y="435.2988">(Customer App)</text><rect fill="#E2E2F0" height="32.6211" rx="2.5" ry="2.5" style="stroke:#181818;stroke-width:0.5;" width="121" x="440" y="89.6211"/><text fill="#000000" font-family="sans-serif" font-size="14" lengthAdjust="spacing" textLength="107" x="447" y="111.7285">Follow Up Server</text><rect fill="#E2E2F0" height="32.6211" rx="2.5" ry="2.5" style="stroke:#181818;stroke-width:0.5;" width="121" x="440" y="394.5703"/><text fill="#000000" font-family="sans-serif" font-size="14" lengthAdjust="spacing" textLength="107" x="447" y="416.6777">Follow Up Server</text><rect fill="#FFFFFF" height="244.3281" style="stroke:#181818;stroke-width:1.0;" width="10" x="33.5" y="133.2422"/><rect fill="#FFFFFF" height="244.3281" style="stroke:#181818;stroke-width:1.0;" width="10" x="197.5" y="133.2422"/><rect fill="#FFFFFF" height="135.1641" style="stroke:#181818;stroke-width:1.0;" width="10" x="495.5" y="187.8242"/><polygon fill="#181818" points="185.5,152.5332,195.5,156.5332,185.5,160.5332,189.5,156.5332" style="stroke:#181818;stroke-width:1.0;"/><line style="stroke:#181818;stroke-width:1.0;" x1="43.5" x2="191.5" y1="156.5332" y2="156.5332"/><text fill="#000000" font-family="sans-serif" font-size="13" font-weight="bold" lengthAdjust="spacing" textLength="7" x="50.5" y="151.2705">1</text><text fill="#000000" font-family="sans-serif" font-size="13" lengthAdjust="spacing" textLength="78" x="61.5" y="151.2705">authenticates</text><polygon fill="#181818" points="483.5,183.8242,493.5,187.8242,483.5,191.8242,487.5,187.8242" style="stroke:#181818;stroke-width:1.0;"/><line style="stroke:#181818;stroke-width:1.0;" x1="207.5" x2="489.5" y1="187.8242" y2="187.8242"/><text fill="#000000" font-family="sans-serif" font-size="13" font-weight="bold" lengthAdjust="spacing" textLength="7" x="214.5" y="182.5615">2</text><text fill="#000000" font-family="sans-serif" font-size="13" lengthAdjust="spacing" textLength="162" x="225.5" y="182.5615">establishes TCP connection</text><polygon fill="#181818" points="483.5,215.1152,493.5,219.1152,483.5,223.1152,487.5,219.1152" style="stroke:#181818;stroke-width:1.0;"/><line style="stroke:#181818;stroke-width:1.0;" x1="207.5" x2="489.5" y1="219.1152" y2="219.1152"/><text fill="#000000" font-family="sans-serif" font-size="13" font-weight="bold" lengthAdjust="spacing" textLength="7" x="214.5" y="213.8525">3</text><text fill="#000000" font-family="sans-serif" font-size="13" lengthAdjust="spacing" textLength="100" x="225.5" y="213.8525">authenticate user</text><path d="M135.5,234.1152 L208.5,234.1152 L208.5,243.4063 L198.5,253.4063 L135.5,253.4063 L135.5,234.1152 " fill="#EEEEEE" style="stroke:#000000;stroke-width:1.5;"/><rect fill="none" height="81.873" style="stroke:#000000;stroke-width:1.5;" width="435.5" x="135.5" y="234.1152"/><text fill="#000000" font-family="sans-serif" font-size="13" font-weight="bold" lengthAdjust="spacing" textLength="28" x="150.5" y="249.1436">loop</text><text fill="#000000" font-family="sans-serif" font-size="11" font-weight="bold" lengthAdjust="spacing" textLength="80" x="223.5" y="247.9854">[Every minute]</text><polygon fill="#181818" points="483.5,272.6973,493.5,276.6973,483.5,280.6973,487.5,276.6973" style="stroke:#181818;stroke-width:1.0;"/><line style="stroke:#181818;stroke-width:1.0;" x1="207.5" x2="489.5" y1="276.6973" y2="276.6973"/><text fill="#000000" font-family="sans-serif" font-size="13" font-weight="bold" lengthAdjust="spacing" textLength="7" x="214.5" y="271.4346">4</text><text fill="#000000" font-family="sans-serif" font-size="13" lengthAdjust="spacing" textLength="253" x="225.5" y="271.4346">requests all unseen customer's notifications</text><polygon fill="#181818" points="218.5,303.9883,208.5,307.9883,218.5,311.9883,214.5,307.9883" style="stroke:#181818;stroke-width:1.0;"/><line style="stroke:#181818;stroke-width:1.0;stroke-dasharray:2.0,2.0;" x1="212.5" x2="494.5" y1="307.9883" y2="307.9883"/><text fill="#000000" font-family="sans-serif" font-size="13" font-weight="bold" lengthAdjust="spacing" textLength="7" x="224.5" y="302.7256">5</text><text fill="#000000" font-family="sans-serif" font-size="13" lengthAdjust="spacing" textLength="136" x="235.5" y="302.7256">customer's notifications</text><polygon fill="#181818" points="185.5,342.2793,195.5,346.2793,185.5,350.2793,189.5,346.2793" style="stroke:#181818;stroke-width:1.0;"/><line style="stroke:#181818;stroke-width:1.0;" x1="43.5" x2="191.5" y1="346.2793" y2="346.2793"/><text fill="#000000" font-family="sans-serif" font-size="13" font-weight="bold" lengthAdjust="spacing" textLength="7" x="50.5" y="341.0166">6</text><text fill="#000000" font-family="sans-serif" font-size="13" lengthAdjust="spacing" textLength="119" x="61.5" y="341.0166">asks for notifications</text><polygon fill="#181818" points="49.5,373.5703,39.5,377.5703,49.5,381.5703,45.5,377.5703" style="stroke:#181818;stroke-width:1.0;"/><line style="stroke:#181818;stroke-width:1.0;stroke-dasharray:2.0,2.0;" x1="43.5" x2="201.5" y1="377.5703" y2="377.5703"/><text fill="#000000" font-family="sans-serif" font-size="13" font-weight="bold" lengthAdjust="spacing" textLength="7" x="55.5" y="372.3076">7</text><text fill="#000000" font-family="sans-serif" font-size="13" lengthAdjust="spacing" textLength="110" x="66.5" y="372.3076">shows notifications</text><!--SRC=[ZLB1JW8n4BtlLxnmKGya66ySJCY2HsDOCJ7nKfP16hljsfb2-7lRWknY875ExVJDUszcAbeCOL4zZ4RtgFOirA2Yxq2s9aor-lIgAGeLnDdGBCd7SotEOr065jUG7q0noidpj6YL5rthLbd1u43rOMz_SPYqxLq6L-_LEVR96UDsMBHHsM-FbDLi_ZQRPpczLKAvh42CKoQhvbIATCFmCU4mHdIy8Hir8f0xK7fCc4mUOSIYbaRpXXYlvGjgPor5VcUxcix1qT8rihuc0gTXeHV6kHQpsDyUZRP1wFpv4gDFcs1XA6CGB1DPrCU1tZ2i4xrESj4lNs0xq0nFG_bVATbLbrZHrVR_39o_6EluCwumvzOYEbUDmHktk-YYBvWsthldVVy0]--></g></svg>