<?xml version="1.0" encoding="UTF-8" standalone="no"?><svg xmlns="http://www.w3.org/2000/svg" xmlns:xlink="http://www.w3.org/1999/xlink" contentStyleType="text/css" height="997px" preserveAspectRatio="none" style="width:3468px;height:997px;background:#FFFFFF;" version="1.1" viewBox="0 0 3468 997" width="3468px" zoomAndPan="magnify"><defs/><g><text fill="#000000" font-family="sans-serif" font-size="14" font-weight="bold" lengthAdjust="spacing" textLength="154" x="1650" y="24.5332">US2004 Class Diagram</text><!--cluster Plugin--><g id="cluster_Plugin"><path d="M3125.5,570.6094 L3185.5,570.6094 A3.75,3.75 0 0 1 3188,573.1094 L3195,601.7656 L3458.5,601.7656 A2.5,2.5 0 0 1 3461,604.2656 L3461,704.1094 A2.5,2.5 0 0 1 3458.5,706.6094 L3125.5,706.6094 A2.5,2.5 0 0 1 3123,704.1094 L3123,573.1094 A2.5,2.5 0 0 1 3125.5,570.6094 " fill="none" style="stroke:#000000;stroke-width:1.5;"/><line style="stroke:#000000;stroke-width:1.5;" x1="3123" x2="3195" y1="601.7656" y2="601.7656"/><text fill="#000000" font-family="sans-serif" font-size="20" font-weight="bold" lengthAdjust="spacing" textLength="59" x="3127" y="593.3711">Plugin</text></g><!--class Main--><g id="elem_Main"><rect codeLine="89" fill="#F1F1F1" height="76.3125" id="Main" rx="2.5" ry="2.5" style="stroke:#181818;stroke-width:0.5;" width="306" x="3139" y="614.6094"/><ellipse cx="3266.5" cy="632.1875" fill="#ADD1B2" rx="12" ry="12" style="stroke:#181818;stroke-width:1.0;"/><path d="M3268.6406,627.1094 Q3268.8281,626.8594 3269.0469,626.7344 Q3269.2656,626.5938 3269.5156,626.5938 Q3269.9531,626.5938 3270.2344,626.9063 Q3270.5156,627.2031 3270.5156,627.9219 L3270.5156,629.625 Q3270.5156,630.3438 3270.2344,630.6563 Q3269.9531,630.9688 3269.5156,630.9688 Q3269.125,630.9688 3268.875,630.7344 Q3268.625,630.5156 3268.5156,629.9063 Q3268.4531,629.4844 3268.2344,629.2656 Q3267.8438,628.8281 3267.125,628.5625 Q3266.4063,628.2969 3265.6875,628.2969 Q3264.7813,628.2969 3264.0313,628.6875 Q3263.2813,629.0781 3262.7031,629.9688 Q3262.125,630.8438 3262.125,632.0469 L3262.125,633.3438 Q3262.125,634.7969 3263.1719,635.7656 Q3264.2344,636.7344 3266.0938,636.7344 Q3267.2031,636.7344 3267.9844,636.4219 Q3268.4219,636.25 3268.9375,635.7344 Q3269.25,635.4219 3269.4219,635.3281 Q3269.5938,635.2344 3269.8281,635.2344 Q3270.2188,635.2344 3270.5156,635.5469 Q3270.8281,635.8438 3270.8281,636.25 Q3270.8281,636.6563 3270.4219,637.125 Q3269.8281,637.8125 3268.8906,638.2031 Q3267.625,638.7344 3266.1094,638.7344 Q3264.3281,638.7344 3262.9063,638 Q3261.75,637.4063 3260.9375,636.1406 Q3260.125,634.875 3260.125,633.3906 L3260.125,632.0313 Q3260.125,630.4688 3260.8438,629.125 Q3261.5781,627.7656 3262.8594,627.0313 Q3264.1563,626.2969 3265.6094,626.2969 Q3266.4688,626.2969 3267.2188,626.5 Q3267.9844,626.7031 3268.6406,627.1094 Z " fill="#000000"/><text fill="#000000" font-family="sans-serif" font-size="20" lengthAdjust="spacing" textLength="42" x="3288.5" y="640.3711">Main</text><line style="stroke:#181818;stroke-width:0.5;" x1="3140" x2="3444" y1="649.7656" y2="649.7656"/><line style="stroke:#181818;stroke-width:0.5;" x1="3140" x2="3444" y1="657.7656" y2="657.7656"/><ellipse cx="3150" cy="675.8438" fill="#84BE84" rx="3" ry="3" style="stroke:#038048;stroke-width:1.0;"/><text fill="#000000" font-family="sans-serif" font-size="20" lengthAdjust="spacing" textLength="279" x="3160" y="682.5273">checkFileFormat(String filepath)</text></g><!--class AbstractUI--><g id="elem_AbstractUI"><rect codeLine="5" fill="#F1F1F1" height="76.3125" id="AbstractUI" rx="2.5" ry="2.5" style="stroke:#181818;stroke-width:0.5;" width="125" x="2539.5" y="71.1094"/><ellipse cx="2555.5" cy="88.6875" fill="#A9DCDF" rx="12" ry="12" style="stroke:#181818;stroke-width:1.0;"/><path d="M2557.9531,90.7188 L2553.0781,90.7188 L2552.5938,91.9375 L2553.0781,91.9375 Q2553.8125,91.9375 2554.1094,92.2188 Q2554.4219,92.4844 2554.4219,92.9375 Q2554.4219,93.375 2554.1094,93.6563 Q2553.8125,93.9375 2553.0781,93.9375 L2550.3906,93.9375 Q2549.6719,93.9375 2549.3594,93.6563 Q2549.0469,93.375 2549.0469,92.9375 Q2549.0469,92.4844 2549.375,92.2031 Q2549.7031,91.9219 2550.4375,91.9375 L2553.5781,84.1094 L2552.2813,84.1094 Q2551.5469,84.1094 2551.2344,83.8281 Q2550.9375,83.5469 2550.9375,83.0938 Q2550.9375,82.6406 2551.2344,82.375 Q2551.5469,82.0938 2552.2813,82.0938 L2556.5938,82.0938 L2560.5781,91.9375 Q2561.2813,91.9375 2561.5156,92.0938 Q2561.9688,92.4063 2561.9688,92.9375 Q2561.9688,93.375 2561.6563,93.6563 Q2561.3594,93.9375 2560.6406,93.9375 L2557.9375,93.9375 Q2557.2188,93.9375 2556.9063,93.6563 Q2556.5938,93.375 2556.5938,92.9375 Q2556.5938,92.4844 2556.9063,92.2188 Q2557.2188,91.9375 2557.9375,91.9375 L2558.4219,91.9375 L2557.9531,90.7188 Z M2557.125,88.7188 L2555.5,84.75 L2553.8906,88.7188 L2557.125,88.7188 Z " fill="#000000"/><text fill="#000000" font-family="sans-serif" font-size="20" font-style="italic" lengthAdjust="spacing" textLength="91" x="2570.5" y="96.8711">AbstractUI</text><line style="stroke:#181818;stroke-width:0.5;" x1="2540.5" x2="2663.5" y1="106.2656" y2="106.2656"/><line style="stroke:#181818;stroke-width:0.5;" x1="2540.5" x2="2663.5" y1="114.2656" y2="114.2656"/><ellipse cx="2550.5" cy="132.3438" fill="#84BE84" rx="3" ry="3" style="stroke:#038048;stroke-width:1.0;"/><text fill="#000000" font-family="sans-serif" font-size="20" lengthAdjust="spacing" textLength="60" x="2560.5" y="139.0273">show()</text></g><!--class DTOable--><g id="elem_DTOable"><rect codeLine="9" fill="#F1F1F1" height="76.3125" id="DTOable" rx="2.5" ry="2.5" style="stroke:#181818;stroke-width:0.5;" width="114" x="1193" y="396.1094"/><ellipse cx="1209" cy="413.6875" fill="#B4A7E5" rx="12" ry="12" style="stroke:#181818;stroke-width:1.0;"/><path d="M1210,409.8594 L1210,417.6875 L1212.0313,417.6875 Q1212.75,417.6875 1213.0469,417.9688 Q1213.3594,418.2344 1213.3594,418.6875 Q1213.3594,419.125 1213.0469,419.4063 Q1212.75,419.6875 1212.0313,419.6875 L1205.9844,419.6875 Q1205.25,419.6875 1204.9375,419.4063 Q1204.6406,419.125 1204.6406,418.6875 Q1204.6406,418.2344 1204.9375,417.9688 Q1205.25,417.6875 1205.9844,417.6875 L1208,417.6875 L1208,409.8594 L1205.9844,409.8594 Q1205.25,409.8594 1204.9375,409.5781 Q1204.6406,409.2969 1204.6406,408.8438 Q1204.6406,408.3906 1204.9375,408.125 Q1205.25,407.8438 1205.9844,407.8438 L1212.0313,407.8438 Q1212.75,407.8438 1213.0469,408.125 Q1213.3594,408.3906 1213.3594,408.8438 Q1213.3594,409.2969 1213.0469,409.5781 Q1212.75,409.8594 1212.0313,409.8594 L1210,409.8594 Z " fill="#000000"/><text fill="#000000" font-family="sans-serif" font-size="20" font-style="italic" lengthAdjust="spacing" textLength="80" x="1224" y="421.8711">DTOable</text><line style="stroke:#181818;stroke-width:0.5;" x1="1194" x2="1306" y1="431.2656" y2="431.2656"/><line style="stroke:#181818;stroke-width:0.5;" x1="1194" x2="1306" y1="439.2656" y2="439.2656"/><ellipse cx="1204" cy="457.3438" fill="#84BE84" rx="3" ry="3" style="stroke:#038048;stroke-width:1.0;"/><text fill="#000000" font-family="sans-serif" font-size="20" lengthAdjust="spacing" textLength="73" x="1214" y="464.0273">toDTO()</text></g><!--class UploadRequirementAnswersUI--><g id="elem_UploadRequirementAnswersUI"><rect codeLine="13" fill="#F1F1F1" height="76.3125" id="UploadRequirementAnswersUI" rx="2.5" ry="2.5" style="stroke:#181818;stroke-width:0.5;" width="301" x="2102.5" y="71.1094"/><ellipse cx="2118.5" cy="88.6875" fill="#ADD1B2" rx="12" ry="12" style="stroke:#181818;stroke-width:1.0;"/><path d="M2120.6406,83.6094 Q2120.8281,83.3594 2121.0469,83.2344 Q2121.2656,83.0938 2121.5156,83.0938 Q2121.9531,83.0938 2122.2344,83.4063 Q2122.5156,83.7031 2122.5156,84.4219 L2122.5156,86.125 Q2122.5156,86.8438 2122.2344,87.1563 Q2121.9531,87.4688 2121.5156,87.4688 Q2121.125,87.4688 2120.875,87.2344 Q2120.625,87.0156 2120.5156,86.4063 Q2120.4531,85.9844 2120.2344,85.7656 Q2119.8438,85.3281 2119.125,85.0625 Q2118.4063,84.7969 2117.6875,84.7969 Q2116.7813,84.7969 2116.0313,85.1875 Q2115.2813,85.5781 2114.7031,86.4688 Q2114.125,87.3438 2114.125,88.5469 L2114.125,89.8438 Q2114.125,91.2969 2115.1719,92.2656 Q2116.2344,93.2344 2118.0938,93.2344 Q2119.2031,93.2344 2119.9844,92.9219 Q2120.4219,92.75 2120.9375,92.2344 Q2121.25,91.9219 2121.4219,91.8281 Q2121.5938,91.7344 2121.8281,91.7344 Q2122.2188,91.7344 2122.5156,92.0469 Q2122.8281,92.3438 2122.8281,92.75 Q2122.8281,93.1563 2122.4219,93.625 Q2121.8281,94.3125 2120.8906,94.7031 Q2119.625,95.2344 2118.1094,95.2344 Q2116.3281,95.2344 2114.9063,94.5 Q2113.75,93.9063 2112.9375,92.6406 Q2112.125,91.375 2112.125,89.8906 L2112.125,88.5313 Q2112.125,86.9688 2112.8438,85.625 Q2113.5781,84.2656 2114.8594,83.5313 Q2116.1563,82.7969 2117.6094,82.7969 Q2118.4688,82.7969 2119.2188,83 Q2119.9844,83.2031 2120.6406,83.6094 Z " fill="#000000"/><text fill="#000000" font-family="sans-serif" font-size="20" lengthAdjust="spacing" textLength="267" x="2133.5" y="96.8711">UploadRequirementAnswersUI</text><line style="stroke:#181818;stroke-width:0.5;" x1="2103.5" x2="2402.5" y1="106.2656" y2="106.2656"/><line style="stroke:#181818;stroke-width:0.5;" x1="2103.5" x2="2402.5" y1="114.2656" y2="114.2656"/><ellipse cx="2113.5" cy="132.3438" fill="#84BE84" rx="3" ry="3" style="stroke:#038048;stroke-width:1.0;"/><text fill="#000000" font-family="sans-serif" font-size="20" lengthAdjust="spacing" textLength="60" x="2123.5" y="139.0273">show()</text></g><!--class UploadRequirementAnswersController--><g id="elem_UploadRequirementAnswersController"><rect codeLine="17" fill="#F1F1F1" height="126.625" id="UploadRequirementAnswersController" rx="2.5" ry="2.5" style="stroke:#181818;stroke-width:0.5;" width="764" x="1303" y="45.6094"/><ellipse cx="1514" cy="63.1875" fill="#ADD1B2" rx="12" ry="12" style="stroke:#181818;stroke-width:1.0;"/><path d="M1516.1406,58.1094 Q1516.3281,57.8594 1516.5469,57.7344 Q1516.7656,57.5938 1517.0156,57.5938 Q1517.4531,57.5938 1517.7344,57.9063 Q1518.0156,58.2031 1518.0156,58.9219 L1518.0156,60.625 Q1518.0156,61.3438 1517.7344,61.6563 Q1517.4531,61.9688 1517.0156,61.9688 Q1516.625,61.9688 1516.375,61.7344 Q1516.125,61.5156 1516.0156,60.9063 Q1515.9531,60.4844 1515.7344,60.2656 Q1515.3438,59.8281 1514.625,59.5625 Q1513.9063,59.2969 1513.1875,59.2969 Q1512.2813,59.2969 1511.5313,59.6875 Q1510.7813,60.0781 1510.2031,60.9688 Q1509.625,61.8438 1509.625,63.0469 L1509.625,64.3438 Q1509.625,65.7969 1510.6719,66.7656 Q1511.7344,67.7344 1513.5938,67.7344 Q1514.7031,67.7344 1515.4844,67.4219 Q1515.9219,67.25 1516.4375,66.7344 Q1516.75,66.4219 1516.9219,66.3281 Q1517.0938,66.2344 1517.3281,66.2344 Q1517.7188,66.2344 1518.0156,66.5469 Q1518.3281,66.8438 1518.3281,67.25 Q1518.3281,67.6563 1517.9219,68.125 Q1517.3281,68.8125 1516.3906,69.2031 Q1515.125,69.7344 1513.6094,69.7344 Q1511.8281,69.7344 1510.4063,69 Q1509.25,68.4063 1508.4375,67.1406 Q1507.625,65.875 1507.625,64.3906 L1507.625,63.0313 Q1507.625,61.4688 1508.3438,60.125 Q1509.0781,58.7656 1510.3594,58.0313 Q1511.6563,57.2969 1513.1094,57.2969 Q1513.9688,57.2969 1514.7188,57.5 Q1515.4844,57.7031 1516.1406,58.1094 Z " fill="#000000"/><text fill="#000000" font-family="sans-serif" font-size="20" lengthAdjust="spacing" textLength="333" x="1536" y="71.3711">UploadRequirementAnswersController</text><line style="stroke:#181818;stroke-width:0.5;" x1="1304" x2="2066" y1="80.7656" y2="80.7656"/><line style="stroke:#181818;stroke-width:0.5;" x1="1304" x2="2066" y1="88.7656" y2="88.7656"/><ellipse cx="1314" cy="106.8438" fill="#84BE84" rx="3" ry="3" style="stroke:#038048;stroke-width:1.0;"/><text fill="#000000" font-family="sans-serif" font-size="20" lengthAdjust="spacing" textLength="157" x="1324" y="113.5273">getJobOpenings()</text><ellipse cx="1314" cy="132" fill="#84BE84" rx="3" ry="3" style="stroke:#038048;stroke-width:1.0;"/><text fill="#000000" font-family="sans-serif" font-size="20" lengthAdjust="spacing" textLength="321" x="1324" y="138.6836">getApplications(String jobReference)</text><ellipse cx="1314" cy="157.1563" fill="#84BE84" rx="3" ry="3" style="stroke:#038048;stroke-width:1.0;"/><text fill="#000000" font-family="sans-serif" font-size="20" lengthAdjust="spacing" textLength="737" x="1324" y="163.8398">uploadFile(ApplicationDTO applicationDTO, String requirementName, String filepath)</text></g><!--class JobOpeningManagementService--><g id="elem_JobOpeningManagementService"><rect codeLine="23" fill="#F1F1F1" height="76.3125" id="JobOpeningManagementService" rx="2.5" ry="2.5" style="stroke:#181818;stroke-width:0.5;" width="420" x="692" y="233.6094"/><ellipse cx="755.5" cy="251.1875" fill="#ADD1B2" rx="12" ry="12" style="stroke:#181818;stroke-width:1.0;"/><path d="M757.6406,246.1094 Q757.8281,245.8594 758.0469,245.7344 Q758.2656,245.5938 758.5156,245.5938 Q758.9531,245.5938 759.2344,245.9063 Q759.5156,246.2031 759.5156,246.9219 L759.5156,248.625 Q759.5156,249.3438 759.2344,249.6563 Q758.9531,249.9688 758.5156,249.9688 Q758.125,249.9688 757.875,249.7344 Q757.625,249.5156 757.5156,248.9063 Q757.4531,248.4844 757.2344,248.2656 Q756.8438,247.8281 756.125,247.5625 Q755.4063,247.2969 754.6875,247.2969 Q753.7813,247.2969 753.0313,247.6875 Q752.2813,248.0781 751.7031,248.9688 Q751.125,249.8438 751.125,251.0469 L751.125,252.3438 Q751.125,253.7969 752.1719,254.7656 Q753.2344,255.7344 755.0938,255.7344 Q756.2031,255.7344 756.9844,255.4219 Q757.4219,255.25 757.9375,254.7344 Q758.25,254.4219 758.4219,254.3281 Q758.5938,254.2344 758.8281,254.2344 Q759.2188,254.2344 759.5156,254.5469 Q759.8281,254.8438 759.8281,255.25 Q759.8281,255.6563 759.4219,256.125 Q758.8281,256.8125 757.8906,257.2031 Q756.625,257.7344 755.1094,257.7344 Q753.3281,257.7344 751.9063,257 Q750.75,256.4063 749.9375,255.1406 Q749.125,253.875 749.125,252.3906 L749.125,251.0313 Q749.125,249.4688 749.8438,248.125 Q750.5781,246.7656 751.8594,246.0313 Q753.1563,245.2969 754.6094,245.2969 Q755.4688,245.2969 756.2188,245.5 Q756.9844,245.7031 757.6406,246.1094 Z " fill="#000000"/><text fill="#000000" font-family="sans-serif" font-size="20" lengthAdjust="spacing" textLength="284" x="777.5" y="259.3711">JobOpeningManagementService</text><line style="stroke:#181818;stroke-width:0.5;" x1="693" x2="1111" y1="268.7656" y2="268.7656"/><line style="stroke:#181818;stroke-width:0.5;" x1="693" x2="1111" y1="276.7656" y2="276.7656"/><ellipse cx="703" cy="294.8438" fill="#84BE84" rx="3" ry="3" style="stroke:#038048;stroke-width:1.0;"/><text fill="#000000" font-family="sans-serif" font-size="20" lengthAdjust="spacing" textLength="393" x="713" y="301.5273">getOnGoingJobOpeningsInScreeningPhase()</text></g><!--class RecruitmentProcessManagementService--><g id="elem_RecruitmentProcessManagementService"><rect codeLine="27" fill="#F1F1F1" height="76.3125" id="RecruitmentProcessManagementService" rx="2.5" ry="2.5" style="stroke:#181818;stroke-width:0.5;" width="629" x="173.5" y="614.6094"/><ellipse cx="305.5" cy="632.1875" fill="#ADD1B2" rx="12" ry="12" style="stroke:#181818;stroke-width:1.0;"/><path d="M307.6406,627.1094 Q307.8281,626.8594 308.0469,626.7344 Q308.2656,626.5938 308.5156,626.5938 Q308.9531,626.5938 309.2344,626.9063 Q309.5156,627.2031 309.5156,627.9219 L309.5156,629.625 Q309.5156,630.3438 309.2344,630.6563 Q308.9531,630.9688 308.5156,630.9688 Q308.125,630.9688 307.875,630.7344 Q307.625,630.5156 307.5156,629.9063 Q307.4531,629.4844 307.2344,629.2656 Q306.8438,628.8281 306.125,628.5625 Q305.4063,628.2969 304.6875,628.2969 Q303.7813,628.2969 303.0313,628.6875 Q302.2813,629.0781 301.7031,629.9688 Q301.125,630.8438 301.125,632.0469 L301.125,633.3438 Q301.125,634.7969 302.1719,635.7656 Q303.2344,636.7344 305.0938,636.7344 Q306.2031,636.7344 306.9844,636.4219 Q307.4219,636.25 307.9375,635.7344 Q308.25,635.4219 308.4219,635.3281 Q308.5938,635.2344 308.8281,635.2344 Q309.2188,635.2344 309.5156,635.5469 Q309.8281,635.8438 309.8281,636.25 Q309.8281,636.6563 309.4219,637.125 Q308.8281,637.8125 307.8906,638.2031 Q306.625,638.7344 305.1094,638.7344 Q303.3281,638.7344 301.9063,638 Q300.75,637.4063 299.9375,636.1406 Q299.125,634.875 299.125,633.3906 L299.125,632.0313 Q299.125,630.4688 299.8438,629.125 Q300.5781,627.7656 301.8594,627.0313 Q303.1563,626.2969 304.6094,626.2969 Q305.4688,626.2969 306.2188,626.5 Q306.9844,626.7031 307.6406,627.1094 Z " fill="#000000"/><text fill="#000000" font-family="sans-serif" font-size="20" lengthAdjust="spacing" textLength="356" x="327.5" y="640.3711">RecruitmentProcessManagementService</text><line style="stroke:#181818;stroke-width:0.5;" x1="174.5" x2="801.5" y1="649.7656" y2="649.7656"/><line style="stroke:#181818;stroke-width:0.5;" x1="174.5" x2="801.5" y1="657.7656" y2="657.7656"/><ellipse cx="184.5" cy="675.8438" fill="#84BE84" rx="3" ry="3" style="stroke:#038048;stroke-width:1.0;"/><text fill="#000000" font-family="sans-serif" font-size="20" lengthAdjust="spacing" textLength="602" x="194.5" y="682.5273">checkIfRecruitmentProcessIsInScreeningPhase(String jobReference)</text></g><!--class RecruitmentProcessRepository--><g id="elem_RecruitmentProcessRepository"><rect codeLine="31" fill="#F1F1F1" height="76.3125" id="RecruitmentProcessRepository" rx="2.5" ry="2.5" style="stroke:#181818;stroke-width:0.5;" width="566" x="7" y="777.1094"/><ellipse cx="149.5" cy="794.6875" fill="#ADD1B2" rx="12" ry="12" style="stroke:#181818;stroke-width:1.0;"/><path d="M151.6406,789.6094 Q151.8281,789.3594 152.0469,789.2344 Q152.2656,789.0938 152.5156,789.0938 Q152.9531,789.0938 153.2344,789.4063 Q153.5156,789.7031 153.5156,790.4219 L153.5156,792.125 Q153.5156,792.8438 153.2344,793.1563 Q152.9531,793.4688 152.5156,793.4688 Q152.125,793.4688 151.875,793.2344 Q151.625,793.0156 151.5156,792.4063 Q151.4531,791.9844 151.2344,791.7656 Q150.8438,791.3281 150.125,791.0625 Q149.4063,790.7969 148.6875,790.7969 Q147.7813,790.7969 147.0313,791.1875 Q146.2813,791.5781 145.7031,792.4688 Q145.125,793.3438 145.125,794.5469 L145.125,795.8438 Q145.125,797.2969 146.1719,798.2656 Q147.2344,799.2344 149.0938,799.2344 Q150.2031,799.2344 150.9844,798.9219 Q151.4219,798.75 151.9375,798.2344 Q152.25,797.9219 152.4219,797.8281 Q152.5938,797.7344 152.8281,797.7344 Q153.2188,797.7344 153.5156,798.0469 Q153.8281,798.3438 153.8281,798.75 Q153.8281,799.1563 153.4219,799.625 Q152.8281,800.3125 151.8906,800.7031 Q150.625,801.2344 149.1094,801.2344 Q147.3281,801.2344 145.9063,800.5 Q144.75,799.9063 143.9375,798.6406 Q143.125,797.375 143.125,795.8906 L143.125,794.5313 Q143.125,792.9688 143.8438,791.625 Q144.5781,790.2656 145.8594,789.5313 Q147.1563,788.7969 148.6094,788.7969 Q149.4688,788.7969 150.2188,789 Q150.9844,789.2031 151.6406,789.6094 Z " fill="#000000"/><text fill="#000000" font-family="sans-serif" font-size="20" lengthAdjust="spacing" textLength="272" x="171.5" y="802.8711">RecruitmentProcessRepository</text><line style="stroke:#181818;stroke-width:0.5;" x1="8" x2="572" y1="812.2656" y2="812.2656"/><line style="stroke:#181818;stroke-width:0.5;" x1="8" x2="572" y1="820.2656" y2="820.2656"/><ellipse cx="18" cy="838.3438" fill="#84BE84" rx="3" ry="3" style="stroke:#038048;stroke-width:1.0;"/><text fill="#000000" font-family="sans-serif" font-size="20" lengthAdjust="spacing" textLength="539" x="28" y="845.0273">getRecruitmentProcessByJobReference(String jobReference)</text></g><!--class RecruitmentProcess--><g id="elem_RecruitmentProcess"><rect codeLine="35" fill="#F1F1F1" height="76.3125" id="RecruitmentProcess" rx="2.5" ry="2.5" style="stroke:#181818;stroke-width:0.5;" width="211" x="352.5" y="914.1094"/><ellipse cx="368.5" cy="931.6875" fill="#ADD1B2" rx="12" ry="12" style="stroke:#181818;stroke-width:1.0;"/><path d="M370.6406,926.6094 Q370.8281,926.3594 371.0469,926.2344 Q371.2656,926.0938 371.5156,926.0938 Q371.9531,926.0938 372.2344,926.4063 Q372.5156,926.7031 372.5156,927.4219 L372.5156,929.125 Q372.5156,929.8438 372.2344,930.1563 Q371.9531,930.4688 371.5156,930.4688 Q371.125,930.4688 370.875,930.2344 Q370.625,930.0156 370.5156,929.4063 Q370.4531,928.9844 370.2344,928.7656 Q369.8438,928.3281 369.125,928.0625 Q368.4063,927.7969 367.6875,927.7969 Q366.7813,927.7969 366.0313,928.1875 Q365.2813,928.5781 364.7031,929.4688 Q364.125,930.3438 364.125,931.5469 L364.125,932.8438 Q364.125,934.2969 365.1719,935.2656 Q366.2344,936.2344 368.0938,936.2344 Q369.2031,936.2344 369.9844,935.9219 Q370.4219,935.75 370.9375,935.2344 Q371.25,934.9219 371.4219,934.8281 Q371.5938,934.7344 371.8281,934.7344 Q372.2188,934.7344 372.5156,935.0469 Q372.8281,935.3438 372.8281,935.75 Q372.8281,936.1563 372.4219,936.625 Q371.8281,937.3125 370.8906,937.7031 Q369.625,938.2344 368.1094,938.2344 Q366.3281,938.2344 364.9063,937.5 Q363.75,936.9063 362.9375,935.6406 Q362.125,934.375 362.125,932.8906 L362.125,931.5313 Q362.125,929.9688 362.8438,928.625 Q363.5781,927.2656 364.8594,926.5313 Q366.1563,925.7969 367.6094,925.7969 Q368.4688,925.7969 369.2188,926 Q369.9844,926.2031 370.6406,926.6094 Z " fill="#000000"/><text fill="#000000" font-family="sans-serif" font-size="20" lengthAdjust="spacing" textLength="177" x="383.5" y="939.8711">RecruitmentProcess</text><line style="stroke:#181818;stroke-width:0.5;" x1="353.5" x2="562.5" y1="949.2656" y2="949.2656"/><line style="stroke:#181818;stroke-width:0.5;" x1="353.5" x2="562.5" y1="957.2656" y2="957.2656"/><ellipse cx="363.5" cy="975.3438" fill="#84BE84" rx="3" ry="3" style="stroke:#038048;stroke-width:1.0;"/><text fill="#000000" font-family="sans-serif" font-size="20" lengthAdjust="spacing" textLength="183" x="373.5" y="982.0273">currentActivePhase()</text></g><!--class JobOpening--><g id="elem_JobOpening"><rect codeLine="40" fill="#F1F1F1" height="76.3125" id="JobOpening" rx="2.5" ry="2.5" style="stroke:#181818;stroke-width:0.5;" width="139" x="837.5" y="614.6094"/><ellipse cx="853.5" cy="632.1875" fill="#ADD1B2" rx="12" ry="12" style="stroke:#181818;stroke-width:1.0;"/><path d="M855.6406,627.1094 Q855.8281,626.8594 856.0469,626.7344 Q856.2656,626.5938 856.5156,626.5938 Q856.9531,626.5938 857.2344,626.9063 Q857.5156,627.2031 857.5156,627.9219 L857.5156,629.625 Q857.5156,630.3438 857.2344,630.6563 Q856.9531,630.9688 856.5156,630.9688 Q856.125,630.9688 855.875,630.7344 Q855.625,630.5156 855.5156,629.9063 Q855.4531,629.4844 855.2344,629.2656 Q854.8438,628.8281 854.125,628.5625 Q853.4063,628.2969 852.6875,628.2969 Q851.7813,628.2969 851.0313,628.6875 Q850.2813,629.0781 849.7031,629.9688 Q849.125,630.8438 849.125,632.0469 L849.125,633.3438 Q849.125,634.7969 850.1719,635.7656 Q851.2344,636.7344 853.0938,636.7344 Q854.2031,636.7344 854.9844,636.4219 Q855.4219,636.25 855.9375,635.7344 Q856.25,635.4219 856.4219,635.3281 Q856.5938,635.2344 856.8281,635.2344 Q857.2188,635.2344 857.5156,635.5469 Q857.8281,635.8438 857.8281,636.25 Q857.8281,636.6563 857.4219,637.125 Q856.8281,637.8125 855.8906,638.2031 Q854.625,638.7344 853.1094,638.7344 Q851.3281,638.7344 849.9063,638 Q848.75,637.4063 847.9375,636.1406 Q847.125,634.875 847.125,633.3906 L847.125,632.0313 Q847.125,630.4688 847.8438,629.125 Q848.5781,627.7656 849.8594,627.0313 Q851.1563,626.2969 852.6094,626.2969 Q853.4688,626.2969 854.2188,626.5 Q854.9844,626.7031 855.6406,627.1094 Z " fill="#000000"/><text fill="#000000" font-family="sans-serif" font-size="20" lengthAdjust="spacing" textLength="105" x="868.5" y="640.3711">JobOpening</text><line style="stroke:#181818;stroke-width:0.5;" x1="838.5" x2="975.5" y1="649.7656" y2="649.7656"/><line style="stroke:#181818;stroke-width:0.5;" x1="838.5" x2="975.5" y1="657.7656" y2="657.7656"/><ellipse cx="848.5" cy="675.8438" fill="#84BE84" rx="3" ry="3" style="stroke:#038048;stroke-width:1.0;"/><text fill="#000000" font-family="sans-serif" font-size="20" lengthAdjust="spacing" textLength="62" x="858.5" y="682.5273">toDto()</text></g><!--class :JobOpeningDTOService--><g id="elem_:JobOpeningDTOService"><rect codeLine="44" fill="#F1F1F1" height="76.3125" id=":JobOpeningDTOService" rx="2.5" ry="2.5" style="stroke:#181818;stroke-width:0.5;" width="360" x="2700" y="71.1094"/><ellipse cx="2766.5" cy="88.6875" fill="#ADD1B2" rx="12" ry="12" style="stroke:#181818;stroke-width:1.0;"/><path d="M2768.6406,83.6094 Q2768.8281,83.3594 2769.0469,83.2344 Q2769.2656,83.0938 2769.5156,83.0938 Q2769.9531,83.0938 2770.2344,83.4063 Q2770.5156,83.7031 2770.5156,84.4219 L2770.5156,86.125 Q2770.5156,86.8438 2770.2344,87.1563 Q2769.9531,87.4688 2769.5156,87.4688 Q2769.125,87.4688 2768.875,87.2344 Q2768.625,87.0156 2768.5156,86.4063 Q2768.4531,85.9844 2768.2344,85.7656 Q2767.8438,85.3281 2767.125,85.0625 Q2766.4063,84.7969 2765.6875,84.7969 Q2764.7813,84.7969 2764.0313,85.1875 Q2763.2813,85.5781 2762.7031,86.4688 Q2762.125,87.3438 2762.125,88.5469 L2762.125,89.8438 Q2762.125,91.2969 2763.1719,92.2656 Q2764.2344,93.2344 2766.0938,93.2344 Q2767.2031,93.2344 2767.9844,92.9219 Q2768.4219,92.75 2768.9375,92.2344 Q2769.25,91.9219 2769.4219,91.8281 Q2769.5938,91.7344 2769.8281,91.7344 Q2770.2188,91.7344 2770.5156,92.0469 Q2770.8281,92.3438 2770.8281,92.75 Q2770.8281,93.1563 2770.4219,93.625 Q2769.8281,94.3125 2768.8906,94.7031 Q2767.625,95.2344 2766.1094,95.2344 Q2764.3281,95.2344 2762.9063,94.5 Q2761.75,93.9063 2760.9375,92.6406 Q2760.125,91.375 2760.125,89.8906 L2760.125,88.5313 Q2760.125,86.9688 2760.8438,85.625 Q2761.5781,84.2656 2762.8594,83.5313 Q2764.1563,82.7969 2765.6094,82.7969 Q2766.4688,82.7969 2767.2188,83 Q2767.9844,83.2031 2768.6406,83.6094 Z " fill="#000000"/><text fill="#000000" font-family="sans-serif" font-size="20" lengthAdjust="spacing" textLength="218" x="2788.5" y="96.8711">:JobOpeningDTOService</text><line style="stroke:#181818;stroke-width:0.5;" x1="2701" x2="3059" y1="106.2656" y2="106.2656"/><line style="stroke:#181818;stroke-width:0.5;" x1="2701" x2="3059" y1="114.2656" y2="114.2656"/><ellipse cx="2711" cy="132.3438" fill="#84BE84" rx="3" ry="3" style="stroke:#038048;stroke-width:1.0;"/><text fill="#000000" font-family="sans-serif" font-size="20" lengthAdjust="spacing" textLength="333" x="2721" y="139.0273">convertToDTO(List&lt;JobOpening&gt; list)</text></g><!--class JobOpeningDTO--><g id="elem_JobOpeningDTO"><rect codeLine="48" fill="#F1F1F1" height="51.1563" id="JobOpeningDTO" rx="2.5" ry="2.5" style="stroke:#181818;stroke-width:0.5;" width="181" x="816.5" y="789.6094"/><ellipse cx="832.5" cy="807.1875" fill="#ADD1B2" rx="12" ry="12" style="stroke:#181818;stroke-width:1.0;"/><path d="M834.6406,802.1094 Q834.8281,801.8594 835.0469,801.7344 Q835.2656,801.5938 835.5156,801.5938 Q835.9531,801.5938 836.2344,801.9063 Q836.5156,802.2031 836.5156,802.9219 L836.5156,804.625 Q836.5156,805.3438 836.2344,805.6563 Q835.9531,805.9688 835.5156,805.9688 Q835.125,805.9688 834.875,805.7344 Q834.625,805.5156 834.5156,804.9063 Q834.4531,804.4844 834.2344,804.2656 Q833.8438,803.8281 833.125,803.5625 Q832.4063,803.2969 831.6875,803.2969 Q830.7813,803.2969 830.0313,803.6875 Q829.2813,804.0781 828.7031,804.9688 Q828.125,805.8438 828.125,807.0469 L828.125,808.3438 Q828.125,809.7969 829.1719,810.7656 Q830.2344,811.7344 832.0938,811.7344 Q833.2031,811.7344 833.9844,811.4219 Q834.4219,811.25 834.9375,810.7344 Q835.25,810.4219 835.4219,810.3281 Q835.5938,810.2344 835.8281,810.2344 Q836.2188,810.2344 836.5156,810.5469 Q836.8281,810.8438 836.8281,811.25 Q836.8281,811.6563 836.4219,812.125 Q835.8281,812.8125 834.8906,813.2031 Q833.625,813.7344 832.1094,813.7344 Q830.3281,813.7344 828.9063,813 Q827.75,812.4063 826.9375,811.1406 Q826.125,809.875 826.125,808.3906 L826.125,807.0313 Q826.125,805.4688 826.8438,804.125 Q827.5781,802.7656 828.8594,802.0313 Q830.1563,801.2969 831.6094,801.2969 Q832.4688,801.2969 833.2188,801.5 Q833.9844,801.7031 834.6406,802.1094 Z " fill="#000000"/><text fill="#000000" font-family="sans-serif" font-size="20" lengthAdjust="spacing" textLength="147" x="847.5" y="815.3711">JobOpeningDTO</text><line style="stroke:#181818;stroke-width:0.5;" x1="817.5" x2="996.5" y1="824.7656" y2="824.7656"/><line style="stroke:#181818;stroke-width:0.5;" x1="817.5" x2="996.5" y1="832.7656" y2="832.7656"/></g><!--class JobOpeningRepository--><g id="elem_JobOpeningRepository"><rect codeLine="50" fill="#F1F1F1" height="76.3125" id="JobOpeningRepository" rx="2.5" ry="2.5" style="stroke:#181818;stroke-width:0.5;" width="370" x="717" y="396.1094"/><ellipse cx="797.5" cy="413.6875" fill="#ADD1B2" rx="12" ry="12" style="stroke:#181818;stroke-width:1.0;"/><path d="M799.6406,408.6094 Q799.8281,408.3594 800.0469,408.2344 Q800.2656,408.0938 800.5156,408.0938 Q800.9531,408.0938 801.2344,408.4063 Q801.5156,408.7031 801.5156,409.4219 L801.5156,411.125 Q801.5156,411.8438 801.2344,412.1563 Q800.9531,412.4688 800.5156,412.4688 Q800.125,412.4688 799.875,412.2344 Q799.625,412.0156 799.5156,411.4063 Q799.4531,410.9844 799.2344,410.7656 Q798.8438,410.3281 798.125,410.0625 Q797.4063,409.7969 796.6875,409.7969 Q795.7813,409.7969 795.0313,410.1875 Q794.2813,410.5781 793.7031,411.4688 Q793.125,412.3438 793.125,413.5469 L793.125,414.8438 Q793.125,416.2969 794.1719,417.2656 Q795.2344,418.2344 797.0938,418.2344 Q798.2031,418.2344 798.9844,417.9219 Q799.4219,417.75 799.9375,417.2344 Q800.25,416.9219 800.4219,416.8281 Q800.5938,416.7344 800.8281,416.7344 Q801.2188,416.7344 801.5156,417.0469 Q801.8281,417.3438 801.8281,417.75 Q801.8281,418.1563 801.4219,418.625 Q800.8281,419.3125 799.8906,419.7031 Q798.625,420.2344 797.1094,420.2344 Q795.3281,420.2344 793.9063,419.5 Q792.75,418.9063 791.9375,417.6406 Q791.125,416.375 791.125,414.8906 L791.125,413.5313 Q791.125,411.9688 791.8438,410.625 Q792.5781,409.2656 793.8594,408.5313 Q795.1563,407.7969 796.6094,407.7969 Q797.4688,407.7969 798.2188,408 Q798.9844,408.2031 799.6406,408.6094 Z " fill="#000000"/><text fill="#000000" font-family="sans-serif" font-size="20" lengthAdjust="spacing" textLength="200" x="819.5" y="421.8711">JobOpeningRepository</text><line style="stroke:#181818;stroke-width:0.5;" x1="718" x2="1086" y1="431.2656" y2="431.2656"/><line style="stroke:#181818;stroke-width:0.5;" x1="718" x2="1086" y1="439.2656" y2="439.2656"/><ellipse cx="728" cy="457.3438" fill="#84BE84" rx="3" ry="3" style="stroke:#038048;stroke-width:1.0;"/><text fill="#000000" font-family="sans-serif" font-size="20" lengthAdjust="spacing" textLength="343" x="738" y="464.0273">getJobOpeningsWithSTARTEDStatus()</text></g><!--class ApplicationManagementService--><g id="elem_ApplicationManagementService"><rect codeLine="54" fill="#F1F1F1" height="76.3125" id="ApplicationManagementService" rx="2.5" ry="2.5" style="stroke:#181818;stroke-width:0.5;" width="517" x="1426.5" y="233.6094"/><ellipse cx="1543.5" cy="251.1875" fill="#ADD1B2" rx="12" ry="12" style="stroke:#181818;stroke-width:1.0;"/><path d="M1545.6406,246.1094 Q1545.8281,245.8594 1546.0469,245.7344 Q1546.2656,245.5938 1546.5156,245.5938 Q1546.9531,245.5938 1547.2344,245.9063 Q1547.5156,246.2031 1547.5156,246.9219 L1547.5156,248.625 Q1547.5156,249.3438 1547.2344,249.6563 Q1546.9531,249.9688 1546.5156,249.9688 Q1546.125,249.9688 1545.875,249.7344 Q1545.625,249.5156 1545.5156,248.9063 Q1545.4531,248.4844 1545.2344,248.2656 Q1544.8438,247.8281 1544.125,247.5625 Q1543.4063,247.2969 1542.6875,247.2969 Q1541.7813,247.2969 1541.0313,247.6875 Q1540.2813,248.0781 1539.7031,248.9688 Q1539.125,249.8438 1539.125,251.0469 L1539.125,252.3438 Q1539.125,253.7969 1540.1719,254.7656 Q1541.2344,255.7344 1543.0938,255.7344 Q1544.2031,255.7344 1544.9844,255.4219 Q1545.4219,255.25 1545.9375,254.7344 Q1546.25,254.4219 1546.4219,254.3281 Q1546.5938,254.2344 1546.8281,254.2344 Q1547.2188,254.2344 1547.5156,254.5469 Q1547.8281,254.8438 1547.8281,255.25 Q1547.8281,255.6563 1547.4219,256.125 Q1546.8281,256.8125 1545.8906,257.2031 Q1544.625,257.7344 1543.1094,257.7344 Q1541.3281,257.7344 1539.9063,257 Q1538.75,256.4063 1537.9375,255.1406 Q1537.125,253.875 1537.125,252.3906 L1537.125,251.0313 Q1537.125,249.4688 1537.8438,248.125 Q1538.5781,246.7656 1539.8594,246.0313 Q1541.1563,245.2969 1542.6094,245.2969 Q1543.4688,245.2969 1544.2188,245.5 Q1544.9844,245.7031 1545.6406,246.1094 Z " fill="#000000"/><text fill="#000000" font-family="sans-serif" font-size="20" lengthAdjust="spacing" textLength="274" x="1565.5" y="259.3711">ApplicationManagementService</text><line style="stroke:#181818;stroke-width:0.5;" x1="1427.5" x2="1942.5" y1="268.7656" y2="268.7656"/><line style="stroke:#181818;stroke-width:0.5;" x1="1427.5" x2="1942.5" y1="276.7656" y2="276.7656"/><ellipse cx="1437.5" cy="294.8438" fill="#84BE84" rx="3" ry="3" style="stroke:#038048;stroke-width:1.0;"/><text fill="#000000" font-family="sans-serif" font-size="20" lengthAdjust="spacing" textLength="490" x="1447.5" y="301.5273">getApplicationsFromJobReference(String jobReference)</text></g><!--class Application--><g id="elem_Application"><rect codeLine="58" fill="#F1F1F1" height="126.625" id="Application" rx="2.5" ry="2.5" style="stroke:#181818;stroke-width:0.5;" width="455" x="1377.5" y="589.1094"/><ellipse cx="1553" cy="606.6875" fill="#ADD1B2" rx="12" ry="12" style="stroke:#181818;stroke-width:1.0;"/><path d="M1555.1406,601.6094 Q1555.3281,601.3594 1555.5469,601.2344 Q1555.7656,601.0938 1556.0156,601.0938 Q1556.4531,601.0938 1556.7344,601.4063 Q1557.0156,601.7031 1557.0156,602.4219 L1557.0156,604.125 Q1557.0156,604.8438 1556.7344,605.1563 Q1556.4531,605.4688 1556.0156,605.4688 Q1555.625,605.4688 1555.375,605.2344 Q1555.125,605.0156 1555.0156,604.4063 Q1554.9531,603.9844 1554.7344,603.7656 Q1554.3438,603.3281 1553.625,603.0625 Q1552.9063,602.7969 1552.1875,602.7969 Q1551.2813,602.7969 1550.5313,603.1875 Q1549.7813,603.5781 1549.2031,604.4688 Q1548.625,605.3438 1548.625,606.5469 L1548.625,607.8438 Q1548.625,609.2969 1549.6719,610.2656 Q1550.7344,611.2344 1552.5938,611.2344 Q1553.7031,611.2344 1554.4844,610.9219 Q1554.9219,610.75 1555.4375,610.2344 Q1555.75,609.9219 1555.9219,609.8281 Q1556.0938,609.7344 1556.3281,609.7344 Q1556.7188,609.7344 1557.0156,610.0469 Q1557.3281,610.3438 1557.3281,610.75 Q1557.3281,611.1563 1556.9219,611.625 Q1556.3281,612.3125 1555.3906,612.7031 Q1554.125,613.2344 1552.6094,613.2344 Q1550.8281,613.2344 1549.4063,612.5 Q1548.25,611.9063 1547.4375,610.6406 Q1546.625,609.375 1546.625,607.8906 L1546.625,606.5313 Q1546.625,604.9688 1547.3438,603.625 Q1548.0781,602.2656 1549.3594,601.5313 Q1550.6563,600.7969 1552.1094,600.7969 Q1552.9688,600.7969 1553.7188,601 Q1554.4844,601.2031 1555.1406,601.6094 Z " fill="#000000"/><text fill="#000000" font-family="sans-serif" font-size="20" lengthAdjust="spacing" textLength="95" x="1575" y="614.8711">Application</text><line style="stroke:#181818;stroke-width:0.5;" x1="1378.5" x2="1831.5" y1="624.2656" y2="624.2656"/><line style="stroke:#181818;stroke-width:0.5;" x1="1378.5" x2="1831.5" y1="632.2656" y2="632.2656"/><ellipse cx="1388.5" cy="650.3438" fill="#84BE84" rx="3" ry="3" style="stroke:#038048;stroke-width:1.0;"/><text fill="#000000" font-family="sans-serif" font-size="20" lengthAdjust="spacing" textLength="361" x="1398.5" y="657.0273">requirementAnswer(File fileWithAnswers)</text><ellipse cx="1388.5" cy="675.5" fill="#84BE84" rx="3" ry="3" style="stroke:#038048;stroke-width:1.0;"/><text fill="#000000" font-family="sans-serif" font-size="20" lengthAdjust="spacing" textLength="428" x="1398.5" y="682.1836">updateRequirementAnswer(File fileWithAnswers)</text><ellipse cx="1388.5" cy="700.6563" fill="#84BE84" rx="3" ry="3" style="stroke:#038048;stroke-width:1.0;"/><text fill="#000000" font-family="sans-serif" font-size="20" lengthAdjust="spacing" textLength="62" x="1398.5" y="707.3398">toDto()</text></g><!--class ApplicationDTO--><g id="elem_ApplicationDTO"><rect codeLine="64" fill="#F1F1F1" height="51.1563" id="ApplicationDTO" rx="2.5" ry="2.5" style="stroke:#181818;stroke-width:0.5;" width="171" x="2049.5" y="789.6094"/><ellipse cx="2065.5" cy="807.1875" fill="#ADD1B2" rx="12" ry="12" style="stroke:#181818;stroke-width:1.0;"/><path d="M2067.6406,802.1094 Q2067.8281,801.8594 2068.0469,801.7344 Q2068.2656,801.5938 2068.5156,801.5938 Q2068.9531,801.5938 2069.2344,801.9063 Q2069.5156,802.2031 2069.5156,802.9219 L2069.5156,804.625 Q2069.5156,805.3438 2069.2344,805.6563 Q2068.9531,805.9688 2068.5156,805.9688 Q2068.125,805.9688 2067.875,805.7344 Q2067.625,805.5156 2067.5156,804.9063 Q2067.4531,804.4844 2067.2344,804.2656 Q2066.8438,803.8281 2066.125,803.5625 Q2065.4063,803.2969 2064.6875,803.2969 Q2063.7813,803.2969 2063.0313,803.6875 Q2062.2813,804.0781 2061.7031,804.9688 Q2061.125,805.8438 2061.125,807.0469 L2061.125,808.3438 Q2061.125,809.7969 2062.1719,810.7656 Q2063.2344,811.7344 2065.0938,811.7344 Q2066.2031,811.7344 2066.9844,811.4219 Q2067.4219,811.25 2067.9375,810.7344 Q2068.25,810.4219 2068.4219,810.3281 Q2068.5938,810.2344 2068.8281,810.2344 Q2069.2188,810.2344 2069.5156,810.5469 Q2069.8281,810.8438 2069.8281,811.25 Q2069.8281,811.6563 2069.4219,812.125 Q2068.8281,812.8125 2067.8906,813.2031 Q2066.625,813.7344 2065.1094,813.7344 Q2063.3281,813.7344 2061.9063,813 Q2060.75,812.4063 2059.9375,811.1406 Q2059.125,809.875 2059.125,808.3906 L2059.125,807.0313 Q2059.125,805.4688 2059.8438,804.125 Q2060.5781,802.7656 2061.8594,802.0313 Q2063.1563,801.2969 2064.6094,801.2969 Q2065.4688,801.2969 2066.2188,801.5 Q2066.9844,801.7031 2067.6406,802.1094 Z " fill="#000000"/><text fill="#000000" font-family="sans-serif" font-size="20" lengthAdjust="spacing" textLength="137" x="2080.5" y="815.3711">ApplicationDTO</text><line style="stroke:#181818;stroke-width:0.5;" x1="2050.5" x2="2219.5" y1="824.7656" y2="824.7656"/><line style="stroke:#181818;stroke-width:0.5;" x1="2050.5" x2="2219.5" y1="832.7656" y2="832.7656"/></g><!--class ApplicationListDTOService--><g id="elem_ApplicationListDTOService"><rect codeLine="66" fill="#F1F1F1" height="76.3125" id="ApplicationListDTOService" rx="2.5" ry="2.5" style="stroke:#181818;stroke-width:0.5;" width="565" x="1985.5" y="396.1094"/><ellipse cx="2147" cy="413.6875" fill="#ADD1B2" rx="12" ry="12" style="stroke:#181818;stroke-width:1.0;"/><path d="M2149.1406,408.6094 Q2149.3281,408.3594 2149.5469,408.2344 Q2149.7656,408.0938 2150.0156,408.0938 Q2150.4531,408.0938 2150.7344,408.4063 Q2151.0156,408.7031 2151.0156,409.4219 L2151.0156,411.125 Q2151.0156,411.8438 2150.7344,412.1563 Q2150.4531,412.4688 2150.0156,412.4688 Q2149.625,412.4688 2149.375,412.2344 Q2149.125,412.0156 2149.0156,411.4063 Q2148.9531,410.9844 2148.7344,410.7656 Q2148.3438,410.3281 2147.625,410.0625 Q2146.9063,409.7969 2146.1875,409.7969 Q2145.2813,409.7969 2144.5313,410.1875 Q2143.7813,410.5781 2143.2031,411.4688 Q2142.625,412.3438 2142.625,413.5469 L2142.625,414.8438 Q2142.625,416.2969 2143.6719,417.2656 Q2144.7344,418.2344 2146.5938,418.2344 Q2147.7031,418.2344 2148.4844,417.9219 Q2148.9219,417.75 2149.4375,417.2344 Q2149.75,416.9219 2149.9219,416.8281 Q2150.0938,416.7344 2150.3281,416.7344 Q2150.7188,416.7344 2151.0156,417.0469 Q2151.3281,417.3438 2151.3281,417.75 Q2151.3281,418.1563 2150.9219,418.625 Q2150.3281,419.3125 2149.3906,419.7031 Q2148.125,420.2344 2146.6094,420.2344 Q2144.8281,420.2344 2143.4063,419.5 Q2142.25,418.9063 2141.4375,417.6406 Q2140.625,416.375 2140.625,414.8906 L2140.625,413.5313 Q2140.625,411.9688 2141.3438,410.625 Q2142.0781,409.2656 2143.3594,408.5313 Q2144.6563,407.7969 2146.1094,407.7969 Q2146.9688,407.7969 2147.7188,408 Q2148.4844,408.2031 2149.1406,408.6094 Z " fill="#000000"/><text fill="#000000" font-family="sans-serif" font-size="20" lengthAdjust="spacing" textLength="233" x="2169" y="421.8711">ApplicationListDTOService</text><line style="stroke:#181818;stroke-width:0.5;" x1="1986.5" x2="2549.5" y1="431.2656" y2="431.2656"/><line style="stroke:#181818;stroke-width:0.5;" x1="1986.5" x2="2549.5" y1="439.2656" y2="439.2656"/><ellipse cx="1996.5" cy="457.3438" fill="#84BE84" rx="3" ry="3" style="stroke:#038048;stroke-width:1.0;"/><text fill="#000000" font-family="sans-serif" font-size="20" lengthAdjust="spacing" textLength="538" x="2006.5" y="464.0273">convertApplicationsToDTO(List&lt;Application&gt; applicationsList)</text></g><!--class RequirementAnswer--><g id="elem_RequirementAnswer"><rect codeLine="70" fill="#F1F1F1" height="76.3125" id="RequirementAnswer" rx="2.5" ry="2.5" style="stroke:#181818;stroke-width:0.5;" width="395" x="1407.5" y="777.1094"/><ellipse cx="1512" cy="794.6875" fill="#ADD1B2" rx="12" ry="12" style="stroke:#181818;stroke-width:1.0;"/><path d="M1514.1406,789.6094 Q1514.3281,789.3594 1514.5469,789.2344 Q1514.7656,789.0938 1515.0156,789.0938 Q1515.4531,789.0938 1515.7344,789.4063 Q1516.0156,789.7031 1516.0156,790.4219 L1516.0156,792.125 Q1516.0156,792.8438 1515.7344,793.1563 Q1515.4531,793.4688 1515.0156,793.4688 Q1514.625,793.4688 1514.375,793.2344 Q1514.125,793.0156 1514.0156,792.4063 Q1513.9531,791.9844 1513.7344,791.7656 Q1513.3438,791.3281 1512.625,791.0625 Q1511.9063,790.7969 1511.1875,790.7969 Q1510.2813,790.7969 1509.5313,791.1875 Q1508.7813,791.5781 1508.2031,792.4688 Q1507.625,793.3438 1507.625,794.5469 L1507.625,795.8438 Q1507.625,797.2969 1508.6719,798.2656 Q1509.7344,799.2344 1511.5938,799.2344 Q1512.7031,799.2344 1513.4844,798.9219 Q1513.9219,798.75 1514.4375,798.2344 Q1514.75,797.9219 1514.9219,797.8281 Q1515.0938,797.7344 1515.3281,797.7344 Q1515.7188,797.7344 1516.0156,798.0469 Q1516.3281,798.3438 1516.3281,798.75 Q1516.3281,799.1563 1515.9219,799.625 Q1515.3281,800.3125 1514.3906,800.7031 Q1513.125,801.2344 1511.6094,801.2344 Q1509.8281,801.2344 1508.4063,800.5 Q1507.25,799.9063 1506.4375,798.6406 Q1505.625,797.375 1505.625,795.8906 L1505.625,794.5313 Q1505.625,792.9688 1506.3438,791.625 Q1507.0781,790.2656 1508.3594,789.5313 Q1509.6563,788.7969 1511.1094,788.7969 Q1511.9688,788.7969 1512.7188,789 Q1513.4844,789.2031 1514.1406,789.6094 Z " fill="#000000"/><text fill="#000000" font-family="sans-serif" font-size="20" lengthAdjust="spacing" textLength="177" x="1534" y="802.8711">RequirementAnswer</text><line style="stroke:#181818;stroke-width:0.5;" x1="1408.5" x2="1801.5" y1="812.2656" y2="812.2656"/><line style="stroke:#181818;stroke-width:0.5;" x1="1408.5" x2="1801.5" y1="820.2656" y2="820.2656"/><ellipse cx="1418.5" cy="838.3438" fill="#84BE84" rx="3" ry="3" style="stroke:#038048;stroke-width:1.0;"/><text fill="#000000" font-family="sans-serif" font-size="20" lengthAdjust="spacing" textLength="368" x="1428.5" y="845.0273">RequirementAnswer(File fileWithAnswers)</text></g><!--class ApplicationRepository--><g id="elem_ApplicationRepository"><rect codeLine="74" fill="#F1F1F1" height="126.625" id="ApplicationRepository" rx="2.5" ry="2.5" style="stroke:#181818;stroke-width:0.5;" width="530" x="1420" y="370.6094"/><ellipse cx="1585.5" cy="388.1875" fill="#ADD1B2" rx="12" ry="12" style="stroke:#181818;stroke-width:1.0;"/><path d="M1587.6406,383.1094 Q1587.8281,382.8594 1588.0469,382.7344 Q1588.2656,382.5938 1588.5156,382.5938 Q1588.9531,382.5938 1589.2344,382.9063 Q1589.5156,383.2031 1589.5156,383.9219 L1589.5156,385.625 Q1589.5156,386.3438 1589.2344,386.6563 Q1588.9531,386.9688 1588.5156,386.9688 Q1588.125,386.9688 1587.875,386.7344 Q1587.625,386.5156 1587.5156,385.9063 Q1587.4531,385.4844 1587.2344,385.2656 Q1586.8438,384.8281 1586.125,384.5625 Q1585.4063,384.2969 1584.6875,384.2969 Q1583.7813,384.2969 1583.0313,384.6875 Q1582.2813,385.0781 1581.7031,385.9688 Q1581.125,386.8438 1581.125,388.0469 L1581.125,389.3438 Q1581.125,390.7969 1582.1719,391.7656 Q1583.2344,392.7344 1585.0938,392.7344 Q1586.2031,392.7344 1586.9844,392.4219 Q1587.4219,392.25 1587.9375,391.7344 Q1588.25,391.4219 1588.4219,391.3281 Q1588.5938,391.2344 1588.8281,391.2344 Q1589.2188,391.2344 1589.5156,391.5469 Q1589.8281,391.8438 1589.8281,392.25 Q1589.8281,392.6563 1589.4219,393.125 Q1588.8281,393.8125 1587.8906,394.2031 Q1586.625,394.7344 1585.1094,394.7344 Q1583.3281,394.7344 1581.9063,394 Q1580.75,393.4063 1579.9375,392.1406 Q1579.125,390.875 1579.125,389.3906 L1579.125,388.0313 Q1579.125,386.4688 1579.8438,385.125 Q1580.5781,383.7656 1581.8594,383.0313 Q1583.1563,382.2969 1584.6094,382.2969 Q1585.4688,382.2969 1586.2188,382.5 Q1586.9844,382.7031 1587.6406,383.1094 Z " fill="#000000"/><text fill="#000000" font-family="sans-serif" font-size="20" lengthAdjust="spacing" textLength="190" x="1607.5" y="396.3711">ApplicationRepository</text><line style="stroke:#181818;stroke-width:0.5;" x1="1421" x2="1949" y1="405.7656" y2="405.7656"/><line style="stroke:#181818;stroke-width:0.5;" x1="1421" x2="1949" y1="413.7656" y2="413.7656"/><ellipse cx="1431" cy="431.8438" fill="#84BE84" rx="3" ry="3" style="stroke:#038048;stroke-width:1.0;"/><text fill="#000000" font-family="sans-serif" font-size="20" lengthAdjust="spacing" textLength="490" x="1441" y="438.5273">getApplicationsFromJobReference(String jobReference)</text><ellipse cx="1431" cy="457" fill="#84BE84" rx="3" ry="3" style="stroke:#038048;stroke-width:1.0;"/><text fill="#000000" font-family="sans-serif" font-size="20" lengthAdjust="spacing" textLength="503" x="1441" y="463.6836">getApplicationFromDTO(ApplicationDTO applicationDTO)</text><ellipse cx="1431" cy="482.1563" fill="#84BE84" rx="3" ry="3" style="stroke:#038048;stroke-width:1.0;"/><text fill="#000000" font-family="sans-serif" font-size="20" lengthAdjust="spacing" textLength="249" x="1441" y="488.8398">save(Application application)</text></g><!--class RequirementSpecificationManagementService--><g id="elem_RequirementSpecificationManagementService"><rect codeLine="80" fill="#F1F1F1" height="76.3125" id="RequirementSpecificationManagementService" rx="2.5" ry="2.5" style="stroke:#181818;stroke-width:0.5;" width="602" x="2611" y="233.6094"/><ellipse cx="2707" cy="251.1875" fill="#ADD1B2" rx="12" ry="12" style="stroke:#181818;stroke-width:1.0;"/><path d="M2709.1406,246.1094 Q2709.3281,245.8594 2709.5469,245.7344 Q2709.7656,245.5938 2710.0156,245.5938 Q2710.4531,245.5938 2710.7344,245.9063 Q2711.0156,246.2031 2711.0156,246.9219 L2711.0156,248.625 Q2711.0156,249.3438 2710.7344,249.6563 Q2710.4531,249.9688 2710.0156,249.9688 Q2709.625,249.9688 2709.375,249.7344 Q2709.125,249.5156 2709.0156,248.9063 Q2708.9531,248.4844 2708.7344,248.2656 Q2708.3438,247.8281 2707.625,247.5625 Q2706.9063,247.2969 2706.1875,247.2969 Q2705.2813,247.2969 2704.5313,247.6875 Q2703.7813,248.0781 2703.2031,248.9688 Q2702.625,249.8438 2702.625,251.0469 L2702.625,252.3438 Q2702.625,253.7969 2703.6719,254.7656 Q2704.7344,255.7344 2706.5938,255.7344 Q2707.7031,255.7344 2708.4844,255.4219 Q2708.9219,255.25 2709.4375,254.7344 Q2709.75,254.4219 2709.9219,254.3281 Q2710.0938,254.2344 2710.3281,254.2344 Q2710.7188,254.2344 2711.0156,254.5469 Q2711.3281,254.8438 2711.3281,255.25 Q2711.3281,255.6563 2710.9219,256.125 Q2710.3281,256.8125 2709.3906,257.2031 Q2708.125,257.7344 2706.6094,257.7344 Q2704.8281,257.7344 2703.4063,257 Q2702.25,256.4063 2701.4375,255.1406 Q2700.625,253.875 2700.625,252.3906 L2700.625,251.0313 Q2700.625,249.4688 2701.3438,248.125 Q2702.0781,246.7656 2703.3594,246.0313 Q2704.6563,245.2969 2706.1094,245.2969 Q2706.9688,245.2969 2707.7188,245.5 Q2708.4844,245.7031 2709.1406,246.1094 Z " fill="#000000"/><text fill="#000000" font-family="sans-serif" font-size="20" lengthAdjust="spacing" textLength="401" x="2729" y="259.3711">RequirementSpecificationManagementService</text><line style="stroke:#181818;stroke-width:0.5;" x1="2612" x2="3212" y1="268.7656" y2="268.7656"/><line style="stroke:#181818;stroke-width:0.5;" x1="2612" x2="3212" y1="276.7656" y2="276.7656"/><ellipse cx="2622" cy="294.8438" fill="#84BE84" rx="3" ry="3" style="stroke:#038048;stroke-width:1.0;"/><text fill="#000000" font-family="sans-serif" font-size="20" lengthAdjust="spacing" textLength="575" x="2632" y="301.5273">checkAnswersFileIsValid(String requirementName, String filepath)</text></g><!--class RequirementSpecificationRepository--><g id="elem_RequirementSpecificationRepository"><rect codeLine="84" fill="#F1F1F1" height="76.3125" id="RequirementSpecificationRepository" rx="2.5" ry="2.5" style="stroke:#181818;stroke-width:0.5;" width="653" x="2585.5" y="396.1094"/><ellipse cx="2749" cy="413.6875" fill="#ADD1B2" rx="12" ry="12" style="stroke:#181818;stroke-width:1.0;"/><path d="M2751.1406,408.6094 Q2751.3281,408.3594 2751.5469,408.2344 Q2751.7656,408.0938 2752.0156,408.0938 Q2752.4531,408.0938 2752.7344,408.4063 Q2753.0156,408.7031 2753.0156,409.4219 L2753.0156,411.125 Q2753.0156,411.8438 2752.7344,412.1563 Q2752.4531,412.4688 2752.0156,412.4688 Q2751.625,412.4688 2751.375,412.2344 Q2751.125,412.0156 2751.0156,411.4063 Q2750.9531,410.9844 2750.7344,410.7656 Q2750.3438,410.3281 2749.625,410.0625 Q2748.9063,409.7969 2748.1875,409.7969 Q2747.2813,409.7969 2746.5313,410.1875 Q2745.7813,410.5781 2745.2031,411.4688 Q2744.625,412.3438 2744.625,413.5469 L2744.625,414.8438 Q2744.625,416.2969 2745.6719,417.2656 Q2746.7344,418.2344 2748.5938,418.2344 Q2749.7031,418.2344 2750.4844,417.9219 Q2750.9219,417.75 2751.4375,417.2344 Q2751.75,416.9219 2751.9219,416.8281 Q2752.0938,416.7344 2752.3281,416.7344 Q2752.7188,416.7344 2753.0156,417.0469 Q2753.3281,417.3438 2753.3281,417.75 Q2753.3281,418.1563 2752.9219,418.625 Q2752.3281,419.3125 2751.3906,419.7031 Q2750.125,420.2344 2748.6094,420.2344 Q2746.8281,420.2344 2745.4063,419.5 Q2744.25,418.9063 2743.4375,417.6406 Q2742.625,416.375 2742.625,414.8906 L2742.625,413.5313 Q2742.625,411.9688 2743.3438,410.625 Q2744.0781,409.2656 2745.3594,408.5313 Q2746.6563,407.7969 2748.1094,407.7969 Q2748.9688,407.7969 2749.7188,408 Q2750.4844,408.2031 2751.1406,408.6094 Z " fill="#000000"/><text fill="#000000" font-family="sans-serif" font-size="20" lengthAdjust="spacing" textLength="317" x="2771" y="421.8711">RequirementSpecificationRepository</text><line style="stroke:#181818;stroke-width:0.5;" x1="2586.5" x2="3237.5" y1="431.2656" y2="431.2656"/><line style="stroke:#181818;stroke-width:0.5;" x1="2586.5" x2="3237.5" y1="439.2656" y2="439.2656"/><ellipse cx="2596.5" cy="457.3438" fill="#84BE84" rx="3" ry="3" style="stroke:#038048;stroke-width:1.0;"/><text fill="#000000" font-family="sans-serif" font-size="20" lengthAdjust="spacing" textLength="626" x="2606.5" y="464.0273">requirementSpecificationByRequirementName(String requirementName)</text></g><!--class JobOpeningDTOService--><g id="elem_JobOpeningDTOService"><rect fill="#F1F1F1" height="51.1563" id="JobOpeningDTOService" rx="2.5" ry="2.5" style="stroke:#181818;stroke-width:0.5;" width="246" x="1017" y="627.1094"/><ellipse cx="1033" cy="644.6875" fill="#ADD1B2" rx="12" ry="12" style="stroke:#181818;stroke-width:1.0;"/><path d="M1035.1406,639.6094 Q1035.3281,639.3594 1035.5469,639.2344 Q1035.7656,639.0938 1036.0156,639.0938 Q1036.4531,639.0938 1036.7344,639.4063 Q1037.0156,639.7031 1037.0156,640.4219 L1037.0156,642.125 Q1037.0156,642.8438 1036.7344,643.1563 Q1036.4531,643.4688 1036.0156,643.4688 Q1035.625,643.4688 1035.375,643.2344 Q1035.125,643.0156 1035.0156,642.4063 Q1034.9531,641.9844 1034.7344,641.7656 Q1034.3438,641.3281 1033.625,641.0625 Q1032.9063,640.7969 1032.1875,640.7969 Q1031.2813,640.7969 1030.5313,641.1875 Q1029.7813,641.5781 1029.2031,642.4688 Q1028.625,643.3438 1028.625,644.5469 L1028.625,645.8438 Q1028.625,647.2969 1029.6719,648.2656 Q1030.7344,649.2344 1032.5938,649.2344 Q1033.7031,649.2344 1034.4844,648.9219 Q1034.9219,648.75 1035.4375,648.2344 Q1035.75,647.9219 1035.9219,647.8281 Q1036.0938,647.7344 1036.3281,647.7344 Q1036.7188,647.7344 1037.0156,648.0469 Q1037.3281,648.3438 1037.3281,648.75 Q1037.3281,649.1563 1036.9219,649.625 Q1036.3281,650.3125 1035.3906,650.7031 Q1034.125,651.2344 1032.6094,651.2344 Q1030.8281,651.2344 1029.4063,650.5 Q1028.25,649.9063 1027.4375,648.6406 Q1026.625,647.375 1026.625,645.8906 L1026.625,644.5313 Q1026.625,642.9688 1027.3438,641.625 Q1028.0781,640.2656 1029.3594,639.5313 Q1030.6563,638.7969 1032.1094,638.7969 Q1032.9688,638.7969 1033.7188,639 Q1034.4844,639.2031 1035.1406,639.6094 Z " fill="#000000"/><text fill="#000000" font-family="sans-serif" font-size="20" lengthAdjust="spacing" textLength="212" x="1048" y="652.8711">JobOpeningDTOService</text><line style="stroke:#181818;stroke-width:0.5;" x1="1018" x2="1262" y1="662.2656" y2="662.2656"/><line style="stroke:#181818;stroke-width:0.5;" x1="1018" x2="1262" y1="670.2656" y2="670.2656"/></g><!--link UploadRequirementAnswersUI to AbstractUI--><g id="link_UploadRequirementAnswersUI_AbstractUI"><path codeLine="97" d="M2403.54,109.1094 C2443.14,109.1094 2484.42,109.1094 2519.01,109.1094 " fill="none" id="UploadRequirementAnswersUI-to-AbstractUI" style="stroke:#181818;stroke-width:1.0;stroke-dasharray:7.0,7.0;"/><polygon fill="none" points="2519.08,102.1094,2539.07,109.1094,2519.07,116.1094,2519.08,102.1094" style="stroke:#181818;stroke-width:1.0;"/><text fill="#000000" font-family="sans-serif" font-size="20" lengthAdjust="spacing" textLength="99" x="2422" y="100.8711">implements</text></g><!--reverse link DTOable to JobOpening--><g id="link_DTOable_JobOpening"><path codeLine="98" d="M1174.39,466.3494 C1122.75,489.3694 1053.99,523.3994 999,562.6094 C978.01,577.5794 957.15,597.2494 940.62,614.2994 " fill="none" id="DTOable-backto-JobOpening" style="stroke:#181818;stroke-width:1.0;stroke-dasharray:7.0,7.0;"/><polygon fill="none" points="1171.81,459.8394,1192.93,458.2294,1177.42,472.6694,1171.81,459.8394" style="stroke:#181818;stroke-width:1.0;"/><text fill="#000000" font-family="sans-serif" font-size="20" lengthAdjust="spacing" textLength="99" x="1052" y="549.3711">implements</text></g><!--reverse link DTOable to Application--><g id="link_DTOable_Application"><path codeLine="99" d="M1229.43,491.9094 C1225.31,513.6694 1225.87,537.3794 1240,554.6094 C1251.49,568.6294 1262.36,558.4394 1280,562.6094 C1314.02,570.6594 1349.86,579.7994 1384.82,589.0794 " fill="none" id="DTOable-backto-Application" style="stroke:#181818;stroke-width:1.0;stroke-dasharray:7.0,7.0;"/><polygon fill="none" points="1222.7,489.9794,1234.41,472.3194,1236.27,493.4294,1222.7,489.9794" style="stroke:#181818;stroke-width:1.0;"/><text fill="#000000" font-family="sans-serif" font-size="20" lengthAdjust="spacing" textLength="99" x="1241" y="549.3711">implements</text></g><!--reverse link UploadRequirementAnswersController to UploadRequirementAnswersUI--><g id="link_UploadRequirementAnswersController_UploadRequirementAnswersUI"><path codeLine="101" d="M2072.41,109.1094 C2082.4,109.1094 2092.39,109.1094 2102.38,109.1094 " fill="none" id="UploadRequirementAnswersController-backto-UploadRequirementAnswersUI" style="stroke:#181818;stroke-width:1.0;stroke-dasharray:7.0,7.0;"/><polygon fill="#181818" points="2067.18,109.1094,2076.18,113.1094,2072.18,109.1094,2076.18,105.1094,2067.18,109.1094" style="stroke:#181818;stroke-width:1.0;"/></g><!--link UploadRequirementAnswersController to JobOpeningManagementService--><g id="link_UploadRequirementAnswersController_JobOpeningManagementService"><path codeLine="103" d="M1380.03,172.6194 C1281.31,192.8594 1174.86,214.6794 1087.53,232.5794 " fill="none" id="UploadRequirementAnswersController-to-JobOpeningManagementService" style="stroke:#181818;stroke-width:1.0;stroke-dasharray:7.0,7.0;"/><polygon fill="#181818" points="1082.6,233.5894,1092.224,235.682,1087.4962,232.5759,1090.6024,227.8481,1082.6,233.5894" style="stroke:#181818;stroke-width:1.0;"/></g><!--link UploadRequirementAnswersController to ApplicationManagementService--><g id="link_UploadRequirementAnswersController_ApplicationManagementService"><path codeLine="104" d="M1685,172.6194 C1685,191.2894 1685,211.2994 1685,228.3394 " fill="none" id="UploadRequirementAnswersController-to-ApplicationManagementService" style="stroke:#181818;stroke-width:1.0;stroke-dasharray:7.0,7.0;"/><polygon fill="#181818" points="1685,233.5294,1689,224.5294,1685,228.5294,1681,224.5294,1685,233.5294" style="stroke:#181818;stroke-width:1.0;"/></g><!--link UploadRequirementAnswersController to RequirementSpecificationManagementService--><g id="link_UploadRequirementAnswersController_RequirementSpecificationManagementService"><path codeLine="105" d="M2067.11,170.1294 C2073.11,170.9694 2079.08,171.7994 2085,172.6094 C2256.99,196.2294 2449.57,219.2494 2605.59,237.0394 " fill="none" id="UploadRequirementAnswersController-to-RequirementSpecificationManagementService" style="stroke:#181818;stroke-width:1.0;stroke-dasharray:7.0,7.0;"/><polygon fill="#181818" points="2610.66,237.6194,2602.1615,232.6419,2605.6911,237.0625,2601.2705,240.5921,2610.66,237.6194" style="stroke:#181818;stroke-width:1.0;"/></g><!--link JobOpeningManagementService to JobOpeningRepository--><g id="link_JobOpeningManagementService_JobOpeningRepository"><path codeLine="108" d="M902,309.8394 C902,334.0394 902,365.6694 902,390.8194 " fill="none" id="JobOpeningManagementService-to-JobOpeningRepository" style="stroke:#181818;stroke-width:1.0;stroke-dasharray:7.0,7.0;"/><polygon fill="#181818" points="902,396.0894,906,387.0894,902,391.0894,898,387.0894,902,396.0894" style="stroke:#181818;stroke-width:1.0;"/></g><!--link JobOpeningManagementService to JobOpening--><g id="link_JobOpeningManagementService_JobOpening"><path codeLine="109" d="M771,309.6094 C742.53,323.9694 715.9,343.6794 699,370.6094 C668.99,418.4194 670.03,449.1694 699,497.6094 C730.33,549.9994 771.21,525.9194 820,562.6094 C838.47,576.4994 856.69,594.3094 871.64,610.3494 " fill="none" id="JobOpeningManagementService-to-JobOpening" style="stroke:#181818;stroke-width:1.0;"/><polygon fill="#181818" points="875.37,614.3894,872.2092,605.0615,871.9804,610.7137,866.3282,610.4849,875.37,614.3894" style="stroke:#181818;stroke-width:1.0;"/></g><!--link JobOpeningRepository to JobOpening--><g id="link_JobOpeningRepository_JobOpening"><path codeLine="110" d="M902.86,472.3294 C903.74,510.3894 905.1,569.4394 906.02,609.2694 " fill="none" id="JobOpeningRepository-to-JobOpening" style="stroke:#181818;stroke-width:1.0;"/><polygon fill="#181818" points="906.14,614.5194,909.9333,605.4303,906.0257,609.5207,901.9354,605.6131,906.14,614.5194" style="stroke:#181818;stroke-width:1.0;"/></g><!--link JobOpening to JobOpeningDTO--><g id="link_JobOpening_JobOpeningDTO"><path codeLine="111" d="M907,690.8394 C907,719.3094 907,758.0494 907,784.4494 " fill="none" id="JobOpening-to-JobOpeningDTO" style="stroke:#181818;stroke-width:1.0;"/><polygon fill="#181818" points="907,789.5594,911,780.5594,907,784.5594,903,780.5594,907,789.5594" style="stroke:#181818;stroke-width:1.0;"/></g><!--link JobOpeningManagementService to RecruitmentProcessManagementService--><g id="link_JobOpeningManagementService_RecruitmentProcessManagementService"><path codeLine="112" d="M765.2,309.6594 C730.51,324.1994 695.59,343.9894 669,370.6094 C596.01,443.6894 537.02,550.9894 507.84,609.5994 " fill="none" id="JobOpeningManagementService-to-RecruitmentProcessManagementService" style="stroke:#181818;stroke-width:1.0;stroke-dasharray:7.0,7.0;"/><polygon fill="#181818" points="505.45,614.4194,513.0366,608.139,507.6747,609.9415,505.8721,604.5796,505.45,614.4194" style="stroke:#181818;stroke-width:1.0;"/></g><!--link JobOpeningManagementService to JobOpeningDTOService--><g id="link_JobOpeningManagementService_JobOpeningDTOService"><path codeLine="113" d="M1026.62,309.6194 C1056.23,324.0994 1084.78,343.8694 1104,370.6094 C1159.06,447.2094 1151.82,566.7794 1144.73,621.9194 " fill="none" id="JobOpeningManagementService-to-JobOpeningDTOService" style="stroke:#181818;stroke-width:1.0;stroke-dasharray:7.0,7.0;"/><polygon fill="#181818" points="1144.05,627.0494,1149.2218,618.6677,1144.7211,622.0946,1141.2942,617.5939,1144.05,627.0494" style="stroke:#181818;stroke-width:1.0;"/></g><!--link ApplicationManagementService to ApplicationRepository--><g id="link_ApplicationManagementService_ApplicationRepository"><path codeLine="115" d="M1685,309.8394 C1685,326.2594 1685,346.0894 1685,364.9994 " fill="none" id="ApplicationManagementService-to-ApplicationRepository" style="stroke:#181818;stroke-width:1.0;stroke-dasharray:7.0,7.0;"/><polygon fill="#181818" points="1685,370.3094,1689,361.3094,1685,365.3094,1681,361.3094,1685,370.3094" style="stroke:#181818;stroke-width:1.0;"/></g><!--link ApplicationManagementService to Application--><g id="link_ApplicationManagementService_Application"><path codeLine="116" d="M1478.43,309.7194 C1448.42,323.9794 1421.22,343.6094 1402,370.6094 C1369.26,416.5894 1376.9,447.0594 1402,497.6094 C1419.61,533.0594 1449.71,562.5494 1481.41,585.8994 " fill="none" id="ApplicationManagementService-to-Application" style="stroke:#181818;stroke-width:1.0;"/><polygon fill="#181818" points="1485.69,589.0094,1480.7676,580.4788,1481.6476,586.0668,1476.0596,586.9467,1485.69,589.0094" style="stroke:#181818;stroke-width:1.0;"/></g><!--link ApplicationRepository to Application--><g id="link_ApplicationRepository_Application"><path codeLine="117" d="M1661.86,497.7294 C1651.87,524.7694 1640.16,556.4494 1629.98,584.0094 " fill="none" id="ApplicationRepository-to-Application" style="stroke:#181818;stroke-width:1.0;"/><polygon fill="#181818" points="1628.23,588.7594,1635.0977,581.7,1629.9605,584.0684,1627.5921,578.9312,1628.23,588.7594" style="stroke:#181818;stroke-width:1.0;"/></g><!--link Application to RequirementAnswer--><g id="link_Application_RequirementAnswer"><path codeLine="118" d="M1605,716.1194 C1605,734.7894 1605,754.7994 1605,771.8394 " fill="none" id="Application-to-RequirementAnswer" style="stroke:#181818;stroke-width:1.0;"/><polygon fill="#181818" points="1605,777.0294,1609,768.0294,1605,772.0294,1601,768.0294,1605,777.0294" style="stroke:#181818;stroke-width:1.0;"/></g><!--link ApplicationManagementService to ApplicationListDTOService--><g id="link_ApplicationManagementService_ApplicationListDTOService"><path codeLine="119" d="M1819.48,309.6294 C1912.07,335.1194 2034.78,368.8994 2128.44,394.6894 " fill="none" id="ApplicationManagementService-to-ApplicationListDTOService" style="stroke:#181818;stroke-width:1.0;"/><polygon fill="#181818" points="2133.44,396.0594,2125.8284,389.8093,2128.6202,394.7293,2123.7002,397.5211,2133.44,396.0594" style="stroke:#181818;stroke-width:1.0;"/></g><!--link ApplicationListDTOService to ApplicationDTO--><g id="link_ApplicationListDTOService_ApplicationDTO"><path codeLine="120" d="M2255.01,472.1394 C2228.64,547.2594 2169.35,716.2294 2145.36,784.5794 " fill="none" id="ApplicationListDTOService-to-ApplicationDTO" style="stroke:#181818;stroke-width:1.0;"/><polygon fill="#181818" points="2143.7,789.3294,2150.4583,782.1652,2145.3581,784.6123,2142.911,779.5122,2143.7,789.3294" style="stroke:#181818;stroke-width:1.0;"/></g><!--link Application to ApplicationDTO--><g id="link_Application_ApplicationDTO"><path codeLine="121" d="M1811.43,716.1194 C1894,741.1294 1984.57,768.5494 2048.83,788.0094 " fill="none" id="Application-to-ApplicationDTO" style="stroke:#181818;stroke-width:1.0;"/><polygon fill="#181818" points="2053.79,789.5194,2046.3453,783.0713,2049.0068,788.063,2044.0151,790.7245,2053.79,789.5194" style="stroke:#181818;stroke-width:1.0;"/></g><!--link RecruitmentProcessManagementService to RecruitmentProcessRepository--><g id="link_RecruitmentProcessManagementService_RecruitmentProcessRepository"><path codeLine="123" d="M442.08,690.8394 C411.46,715.6494 371.24,748.2594 339.85,773.6994 " fill="none" id="RecruitmentProcessManagementService-to-RecruitmentProcessRepository" style="stroke:#181818;stroke-width:1.0;stroke-dasharray:7.0,7.0;"/><polygon fill="#181818" points="335.67,777.0894,345.1831,774.5396,339.5576,773.945,340.1521,768.3195,335.67,777.0894" style="stroke:#181818;stroke-width:1.0;"/></g><!--link RecruitmentProcessRepository to RecruitmentProcess--><g id="link_RecruitmentProcessRepository_RecruitmentProcess"><path codeLine="124" d="M336.35,853.3594 C358.48,871.1394 385,892.4494 407.62,910.6294 " fill="none" id="RecruitmentProcessRepository-to-RecruitmentProcess" style="stroke:#181818;stroke-width:1.0;stroke-dasharray:7.0,7.0;"/><polygon fill="#181818" points="411.8,913.9794,407.2827,905.2276,407.8998,910.8507,402.2768,911.4678,411.8,913.9794" style="stroke:#181818;stroke-width:1.0;"/></g><!--link RecruitmentProcessManagementService to RecruitmentProcess--><g id="link_RecruitmentProcessManagementService_RecruitmentProcess"><path codeLine="125" d="M529.52,690.6694 C569.05,730.6694 618.58,796.2894 590,853.1094 C578.16,876.6594 557.68,895.9694 536.34,911.0294 " fill="none" id="RecruitmentProcessManagementService-to-RecruitmentProcess" style="stroke:#181818;stroke-width:1.0;stroke-dasharray:7.0,7.0;"/><polygon fill="#181818" points="532.07,913.9894,541.7482,912.164,536.1835,911.147,537.2005,905.5823,532.07,913.9894" style="stroke:#181818;stroke-width:1.0;"/></g><!--link RequirementSpecificationManagementService to RequirementSpecificationRepository--><g id="link_RequirementSpecificationManagementService_RequirementSpecificationRepository"><path codeLine="127" d="M2912,309.8394 C2912,334.0394 2912,365.6694 2912,390.8194 " fill="none" id="RequirementSpecificationManagementService-to-RequirementSpecificationRepository" style="stroke:#181818;stroke-width:1.0;stroke-dasharray:7.0,7.0;"/><polygon fill="#181818" points="2912,396.0894,2916,387.0894,2912,391.0894,2908,387.0894,2912,396.0894" style="stroke:#181818;stroke-width:1.0;"/></g><!--link RequirementSpecificationManagementService to Main--><g id="link_RequirementSpecificationManagementService_Main"><path codeLine="128" d="M3110.94,309.6894 C3175.1,325.6594 3235.09,346.3094 3256,370.6094 C3313.56,437.5194 3308.11,548.7094 3299.71,609.2094 " fill="none" id="RequirementSpecificationManagementService-to-Main" style="stroke:#181818;stroke-width:1.0;stroke-dasharray:7.0,7.0;"/><polygon fill="#181818" points="3298.99,614.1894,3304.2125,605.8392,3299.6911,609.2388,3296.2915,604.7174,3298.99,614.1894" style="stroke:#181818;stroke-width:1.0;"/></g><!--SRC=[fLPDJnin4BtxLrXSIDKI4Ee98QGb8TKY86WteMV7cIHklFRMzWPHslzUUvCqtaysAYVMVlFcpOTdejTCf4IHX4kwXZcUmu9at8oaC37x1VZo0fskZ4drrVbvoeamMSBxL2Rdb1Ejp-QCBAqnGeOP3dWQNrvSVCK3TuU7-pioqqOHQd1kWuFTvpHyHv-nNidNtYVq1o4c3AW5eO27ap6PMJftRwJzsWAsvjEKIpAFu6V652GWJ23qAoWz3N6Hhnq-i14goJcet6m9vbxEnYa89fRQ4kH7GPfoHebXKkXUR9Izmp_aB885A10K72pB7OmOXvu7jw8nANn-mJi2TT3oH1BuTxwm52anAq_yGT8Z4MIPsyIWDep2NlLOV9FstXCVYfWgoFz_NX4DVZOYe2fZnl4yAqb1wtfYkWAw3XTLU5YbhyrBYyS8KgcPaUfj7qCLS_jsxz4TxM8RGwQKgpSrR0DU9YgvtVUPaNwghWu0Mxr2SgJOW3AJl3CVc3RN1-WDvlQWjeIk9Tvhpglvy8hvdPbLF0cYoTqmDiHasfVezLjZV_WjF58oEIAldcdEfigFgEUwFkzR9tFtiBPlOauCH9tnbUINNj9xtONBV7rb_9YzAdd7D_xZr0_5abLqvznTewcJMYtnyMKfcpah5rhhq75cccmAeyc7r4STfq3PehMpyW6nYzdb8TGlXBDvx_WPr-Itb3FL0BjzYug-6YJa7bD2rpOOVFBCioKJ9vOPsx-ja4V2nEvW5vyBR2HLGaolej_1BAER9wT178y7OJ09nqynEgmtVFsxps5X-cqxwmgp9ENveKRxnMSD-_w0QWRvTIsWK8lFhQgR3hkncSRRdtrBrRAfkbAqJREk79sRs5OjlejUmi5TZ8Ed8HwE7uFm2RKjt6AOX_PiDJexyurGxTHln9HkRE4_49XduCCD_p59tUf3g7NTb2hefQVLp4Ne0L3zq6n1vNULlZZAQN6HeEOLKx9pzIWhALsZBZ-uwilcPR3rDrIzzNyuTgAxheAsDrS8e3kXPNIJ6A6_]--></g></svg>