<?xml version="1.0" encoding="us-ascii" standalone="no"?><svg xmlns="http://www.w3.org/2000/svg" xmlns:xlink="http://www.w3.org/1999/xlink" contentStyleType="text/css" height="1046px" preserveAspectRatio="none" style="width:2016px;height:1046px;background:#FFFFFF;" version="1.1" viewBox="0 0 2016 1046" width="2016px" zoomAndPan="magnify"><defs/><g><text fill="#000000" font-family="sans-serif" font-size="14" font-weight="bold" lengthAdjust="spacing" textLength="187" x="913" y="30.1074">US1016 Sequence Diagram</text><rect fill="#FFFFFF" height="811.9355" style="stroke:#181818;stroke-width:1.0;" width="10" x="63.5" y="133.2422"/><rect fill="#FFFFFF" height="716.7715" style="stroke:#181818;stroke-width:1.0;" width="10" x="495.5" y="228.4063"/><rect fill="#FFFFFF" height="280.3281" style="stroke:#181818;stroke-width:1.0;" width="10" x="696.5" y="321.9395"/><rect fill="#FFFFFF" height="217.7461" style="stroke:#181818;stroke-width:1.0;" width="10" x="696.5" y="696.1406"/><rect fill="#FFFFFF" height="31.291" style="stroke:#181818;stroke-width:1.0;" width="10" x="1147.5" y="727.4316"/><rect fill="#FFFFFF" height="31.291" style="stroke:#181818;stroke-width:1.0;" width="10" x="1147.5" y="790.0137"/><rect fill="#FFFFFF" height="156.4551" style="stroke:#181818;stroke-width:1.0;" width="10" x="1362.5" y="414.5215"/><rect fill="#FFFFFF" height="61.291" style="stroke:#181818;stroke-width:1.0;" width="10" x="1362.5" y="852.5957"/><rect fill="#FFFFFF" height="31.291" style="stroke:#181818;stroke-width:1.0;" width="10" x="1577.5" y="508.3945"/><rect fill="#FFFFFF" height="30" style="stroke:#181818;stroke-width:1.0;" width="10" x="1743" y="353.2305"/><rect fill="#FFFFFF" height="31.291" style="stroke:#181818;stroke-width:1.0;" width="10" x="1904" y="445.8125"/><rect fill="#FFFFFF" height="30" style="stroke:#181818;stroke-width:1.0;" width="10" x="1904" y="883.8867"/><line style="stroke:#181818;stroke-width:0.5;stroke-dasharray:5.0,5.0;" x1="68" x2="68" y1="123.2422" y2="963.1777"/><line style="stroke:#181818;stroke-width:0.5;stroke-dasharray:5.0,5.0;" x1="500.5" x2="500.5" y1="123.2422" y2="963.1777"/><line style="stroke:#181818;stroke-width:0.5;stroke-dasharray:5.0,5.0;" x1="701.5" x2="701.5" y1="277.5273" y2="963.1777"/><line style="stroke:#181818;stroke-width:0.5;stroke-dasharray:5.0,5.0;" x1="1152.5" x2="1152.5" y1="123.2422" y2="963.1777"/><line style="stroke:#181818;stroke-width:0.5;stroke-dasharray:5.0,5.0;" x1="1367.5" x2="1367.5" y1="123.2422" y2="963.1777"/><line style="stroke:#181818;stroke-width:0.5;stroke-dasharray:5.0,5.0;" x1="1582.5" x2="1582.5" y1="123.2422" y2="963.1777"/><line style="stroke:#181818;stroke-width:0.5;stroke-dasharray:5.0,5.0;" x1="1747.5" x2="1747.5" y1="123.2422" y2="963.1777"/><line style="stroke:#181818;stroke-width:0.5;stroke-dasharray:5.0,5.0;" x1="1908.5" x2="1908.5" y1="123.2422" y2="963.1777"/><text fill="#000000" font-family="sans-serif" font-size="14" lengthAdjust="spacing" textLength="121" x="5" y="119.7285">Customer Manager</text><ellipse cx="68.5" cy="53.1211" fill="#E2E2F0" rx="8" ry="8" style="stroke:#181818;stroke-width:0.5;"/><path d="M68.5,61.1211 L68.5,88.1211 M55.5,69.1211 L81.5,69.1211 M68.5,88.1211 L55.5,103.1211 M68.5,88.1211 L81.5,103.1211 " fill="none" style="stroke:#181818;stroke-width:0.5;"/><text fill="#000000" font-family="sans-serif" font-size="14" lengthAdjust="spacing" textLength="121" x="5" y="977.2852">Customer Manager</text><ellipse cx="68.5" cy="989.2988" fill="#E2E2F0" rx="8" ry="8" style="stroke:#181818;stroke-width:0.5;"/><path d="M68.5,997.2988 L68.5,1024.2988 M55.5,1005.2988 L81.5,1005.2988 M68.5,1024.2988 L55.5,1039.2988 M68.5,1024.2988 L81.5,1039.2988 " fill="none" style="stroke:#181818;stroke-width:0.5;"/><rect fill="#E2E2F0" height="51.2422" rx="2.5" ry="2.5" style="stroke:#181818;stroke-width:0.5;" width="166" x="417.5" y="71"/><text fill="#000000" font-family="sans-serif" font-size="14" font-style="italic" lengthAdjust="spacing" textLength="95" x="453" y="93.1074">&#171;presentation&#187;</text><text fill="#000000" font-family="sans-serif" font-size="14" lengthAdjust="spacing" textLength="152" x="424.5" y="111.7285">:SendNotificationEmailUI</text><rect fill="#E2E2F0" height="51.2422" rx="2.5" ry="2.5" style="stroke:#181818;stroke-width:0.5;" width="166" x="417.5" y="962.1777"/><text fill="#000000" font-family="sans-serif" font-size="14" font-style="italic" lengthAdjust="spacing" textLength="95" x="453" y="984.2852">&#171;presentation&#187;</text><text fill="#000000" font-family="sans-serif" font-size="14" lengthAdjust="spacing" textLength="152" x="424.5" y="1002.9063">:SendNotificationEmailUI</text><rect fill="#E2E2F0" height="51.2422" rx="2.5" ry="2.5" style="stroke:#181818;stroke-width:0.5;" width="216" x="593.5" y="962.1777"/><text fill="#000000" font-family="sans-serif" font-size="14" font-style="italic" lengthAdjust="spacing" textLength="84" x="659.5" y="984.2852">&#171;application&#187;</text><text fill="#000000" font-family="sans-serif" font-size="14" lengthAdjust="spacing" textLength="202" x="600.5" y="1002.9063">:SendNotificationEmailController</text><rect fill="#E2E2F0" height="51.2422" rx="2.5" ry="2.5" style="stroke:#181818;stroke-width:0.5;" width="194" x="1055.5" y="71"/><text fill="#000000" font-family="sans-serif" font-size="14" font-style="italic" lengthAdjust="spacing" textLength="60" x="1122.5" y="93.1074">&#171;service&#187;</text><text fill="#000000" font-family="sans-serif" font-size="14" lengthAdjust="spacing" textLength="180" x="1062.5" y="111.7285">:FollowUpConnectionService</text><rect fill="#E2E2F0" height="51.2422" rx="2.5" ry="2.5" style="stroke:#181818;stroke-width:0.5;" width="194" x="1055.5" y="962.1777"/><text fill="#000000" font-family="sans-serif" font-size="14" font-style="italic" lengthAdjust="spacing" textLength="60" x="1122.5" y="984.2852">&#171;service&#187;</text><text fill="#000000" font-family="sans-serif" font-size="14" lengthAdjust="spacing" textLength="180" x="1062.5" y="1002.9063">:FollowUpConnectionService</text><rect fill="#E2E2F0" height="51.2422" rx="2.5" ry="2.5" style="stroke:#181818;stroke-width:0.5;" width="216" x="1259.5" y="71"/><text fill="#000000" font-family="sans-serif" font-size="14" font-style="italic" lengthAdjust="spacing" textLength="62" x="1336.5" y="93.1074">&#171;Service&#187;</text><text fill="#000000" font-family="sans-serif" font-size="14" lengthAdjust="spacing" textLength="202" x="1266.5" y="111.7285">:ApplicationManagementService</text><rect fill="#E2E2F0" height="51.2422" rx="2.5" ry="2.5" style="stroke:#181818;stroke-width:0.5;" width="216" x="1259.5" y="962.1777"/><text fill="#000000" font-family="sans-serif" font-size="14" font-style="italic" lengthAdjust="spacing" textLength="62" x="1336.5" y="984.2852">&#171;Service&#187;</text><text fill="#000000" font-family="sans-serif" font-size="14" lengthAdjust="spacing" textLength="202" x="1266.5" y="1002.9063">:ApplicationManagementService</text><rect fill="#E2E2F0" height="51.2422" rx="2.5" ry="2.5" style="stroke:#181818;stroke-width:0.5;" width="164" x="1500.5" y="71"/><text fill="#000000" font-family="sans-serif" font-size="14" font-style="italic" lengthAdjust="spacing" textLength="62" x="1551.5" y="93.1074">&#171;Service&#187;</text><text fill="#000000" font-family="sans-serif" font-size="14" lengthAdjust="spacing" textLength="150" x="1507.5" y="111.7285">:ApplicationDTOService</text><rect fill="#E2E2F0" height="51.2422" rx="2.5" ry="2.5" style="stroke:#181818;stroke-width:0.5;" width="164" x="1500.5" y="962.1777"/><text fill="#000000" font-family="sans-serif" font-size="14" font-style="italic" lengthAdjust="spacing" textLength="62" x="1551.5" y="984.2852">&#171;Service&#187;</text><text fill="#000000" font-family="sans-serif" font-size="14" lengthAdjust="spacing" textLength="150" x="1507.5" y="1002.9063">:ApplicationDTOService</text><rect fill="#E2E2F0" height="51.2422" rx="2.5" ry="2.5" style="stroke:#181818;stroke-width:0.5;" width="147" x="1674.5" y="71"/><text fill="#000000" font-family="sans-serif" font-size="14" font-style="italic" lengthAdjust="spacing" textLength="60" x="1718" y="93.1074">&#171;service&#187;</text><text fill="#000000" font-family="sans-serif" font-size="14" lengthAdjust="spacing" textLength="133" x="1681.5" y="111.7285">:AuthorizationService</text><rect fill="#E2E2F0" height="51.2422" rx="2.5" ry="2.5" style="stroke:#181818;stroke-width:0.5;" width="147" x="1674.5" y="962.1777"/><text fill="#000000" font-family="sans-serif" font-size="14" font-style="italic" lengthAdjust="spacing" textLength="60" x="1718" y="984.2852">&#171;service&#187;</text><text fill="#000000" font-family="sans-serif" font-size="14" lengthAdjust="spacing" textLength="133" x="1681.5" y="1002.9063">:AuthorizationService</text><rect fill="#E2E2F0" height="51.2422" rx="2.5" ry="2.5" style="stroke:#181818;stroke-width:0.5;" width="155" x="1831.5" y="71"/><text fill="#000000" font-family="sans-serif" font-size="14" font-style="italic" lengthAdjust="spacing" textLength="79" x="1869.5" y="93.1074">&#171;repository&#187;</text><text fill="#000000" font-family="sans-serif" font-size="14" lengthAdjust="spacing" textLength="141" x="1838.5" y="111.7285">:ApplicationRepository</text><rect fill="#E2E2F0" height="51.2422" rx="2.5" ry="2.5" style="stroke:#181818;stroke-width:0.5;" width="155" x="1831.5" y="962.1777"/><text fill="#000000" font-family="sans-serif" font-size="14" font-style="italic" lengthAdjust="spacing" textLength="79" x="1869.5" y="984.2852">&#171;repository&#187;</text><text fill="#000000" font-family="sans-serif" font-size="14" lengthAdjust="spacing" textLength="141" x="1838.5" y="1002.9063">:ApplicationRepository</text><rect fill="#FFFFFF" height="811.9355" style="stroke:#181818;stroke-width:1.0;" width="10" x="63.5" y="133.2422"/><rect fill="#FFFFFF" height="716.7715" style="stroke:#181818;stroke-width:1.0;" width="10" x="495.5" y="228.4063"/><rect fill="#FFFFFF" height="280.3281" style="stroke:#181818;stroke-width:1.0;" width="10" x="696.5" y="321.9395"/><rect fill="#FFFFFF" height="217.7461" style="stroke:#181818;stroke-width:1.0;" width="10" x="696.5" y="696.1406"/><rect fill="#FFFFFF" height="31.291" style="stroke:#181818;stroke-width:1.0;" width="10" x="1147.5" y="727.4316"/><rect fill="#FFFFFF" height="31.291" style="stroke:#181818;stroke-width:1.0;" width="10" x="1147.5" y="790.0137"/><rect fill="#FFFFFF" height="156.4551" style="stroke:#181818;stroke-width:1.0;" width="10" x="1362.5" y="414.5215"/><rect fill="#FFFFFF" height="61.291" style="stroke:#181818;stroke-width:1.0;" width="10" x="1362.5" y="852.5957"/><rect fill="#FFFFFF" height="31.291" style="stroke:#181818;stroke-width:1.0;" width="10" x="1577.5" y="508.3945"/><rect fill="#FFFFFF" height="30" style="stroke:#181818;stroke-width:1.0;" width="10" x="1743" y="353.2305"/><rect fill="#FFFFFF" height="31.291" style="stroke:#181818;stroke-width:1.0;" width="10" x="1904" y="445.8125"/><rect fill="#FFFFFF" height="30" style="stroke:#181818;stroke-width:1.0;" width="10" x="1904" y="883.8867"/><path d="M1753,138.2422 L1753,199.2422 L2009,199.2422 L2009,148.2422 L1999,138.2422 L1753,138.2422 " fill="#FEFFDD" style="stroke:#181818;stroke-width:0.5;"/><path d="M1999,138.2422 L1999,148.2422 L2009,148.2422 L1999,138.2422 " fill="#FEFFDD" style="stroke:#181818;stroke-width:0.5;"/><text fill="#000000" font-family="sans-serif" font-size="13" lengthAdjust="spacing" textLength="235" x="1759" y="157.2705">The AuthorizationService is implemented</text><text fill="#000000" font-family="sans-serif" font-size="13" lengthAdjust="spacing" textLength="173" x="1759" y="174.5615">in the eapli framework and will</text><text fill="#000000" font-family="sans-serif" font-size="13" lengthAdjust="spacing" textLength="162" x="1759" y="191.8525">be used in this functionality.</text><polygon fill="#181818" points="483.5,224.4063,493.5,228.4063,483.5,232.4063,487.5,228.4063" style="stroke:#181818;stroke-width:1.0;"/><line style="stroke:#181818;stroke-width:1.0;" x1="73.5" x2="489.5" y1="228.4063" y2="228.4063"/><text fill="#000000" font-family="sans-serif" font-size="13" font-weight="bold" lengthAdjust="spacing" textLength="7" x="80.5" y="223.1436">1</text><text fill="#000000" font-family="sans-serif" font-size="13" lengthAdjust="spacing" textLength="392" x="91.5" y="223.1436">wants to record the time and date for an interview with the candidate</text><polygon fill="#181818" points="581.5,255.6973,591.5,259.6973,581.5,263.6973,585.5,259.6973" style="stroke:#181818;stroke-width:1.0;"/><line style="stroke:#181818;stroke-width:1.0;" x1="505.5" x2="587.5" y1="259.6973" y2="259.6973"/><text fill="#000000" font-family="sans-serif" font-size="13" font-weight="bold" lengthAdjust="spacing" textLength="7" x="512.5" y="254.4346">2</text><text fill="#000000" font-family="sans-serif" font-size="13" lengthAdjust="spacing" textLength="36" x="523.5" y="254.4346">create</text><rect fill="#E2E2F0" height="51.2422" rx="2.5" ry="2.5" style="stroke:#181818;stroke-width:0.5;" width="216" x="593.5" y="236.4063"/><text fill="#000000" font-family="sans-serif" font-size="14" font-style="italic" lengthAdjust="spacing" textLength="84" x="659.5" y="258.5137">&#171;application&#187;</text><text fill="#000000" font-family="sans-serif" font-size="14" lengthAdjust="spacing" textLength="202" x="600.5" y="277.1348">:SendNotificationEmailController</text><polygon fill="#181818" points="684.5,317.9395,694.5,321.9395,684.5,325.9395,688.5,321.9395" style="stroke:#181818;stroke-width:1.0;"/><line style="stroke:#181818;stroke-width:1.0;" x1="505.5" x2="690.5" y1="321.9395" y2="321.9395"/><text fill="#000000" font-family="sans-serif" font-size="13" font-weight="bold" lengthAdjust="spacing" textLength="7" x="512.5" y="316.6768">3</text><text fill="#000000" font-family="sans-serif" font-size="13" lengthAdjust="spacing" textLength="118" x="523.5" y="316.6768">getApplicationsList()</text><polygon fill="#181818" points="1731,349.2305,1741,353.2305,1731,357.2305,1735,353.2305" style="stroke:#181818;stroke-width:1.0;"/><line style="stroke:#181818;stroke-width:1.0;" x1="706.5" x2="1737" y1="353.2305" y2="353.2305"/><text fill="#000000" font-family="sans-serif" font-size="13" font-weight="bold" lengthAdjust="spacing" textLength="7" x="713.5" y="347.9678">4</text><text fill="#000000" font-family="sans-serif" font-size="13" lengthAdjust="spacing" textLength="241" x="724.5" y="347.9678">ensureAuthenticatedUserHasAnyOf(roles)</text><polygon fill="#181818" points="1350.5,410.5215,1360.5,414.5215,1350.5,418.5215,1354.5,414.5215" style="stroke:#181818;stroke-width:1.0;"/><line style="stroke:#181818;stroke-width:1.0;" x1="706.5" x2="1356.5" y1="414.5215" y2="414.5215"/><text fill="#000000" font-family="sans-serif" font-size="13" font-weight="bold" lengthAdjust="spacing" textLength="7" x="713.5" y="409.2588">5</text><text fill="#000000" font-family="sans-serif" font-size="13" lengthAdjust="spacing" textLength="227" x="724.5" y="409.2588">getApplicationsListWithoutNotification()</text><polygon fill="#181818" points="1892,441.8125,1902,445.8125,1892,449.8125,1896,445.8125" style="stroke:#181818;stroke-width:1.0;"/><line style="stroke:#181818;stroke-width:1.0;" x1="1372.5" x2="1898" y1="445.8125" y2="445.8125"/><text fill="#000000" font-family="sans-serif" font-size="13" font-weight="bold" lengthAdjust="spacing" textLength="7" x="1379.5" y="440.5498">6</text><text fill="#000000" font-family="sans-serif" font-size="13" lengthAdjust="spacing" textLength="118" x="1390.5" y="440.5498">getApplicationsList()</text><polygon fill="#181818" points="1383.5,473.1035,1373.5,477.1035,1383.5,481.1035,1379.5,477.1035" style="stroke:#181818;stroke-width:1.0;"/><line style="stroke:#181818;stroke-width:1.0;" x1="1377.5" x2="1908" y1="477.1035" y2="477.1035"/><text fill="#000000" font-family="sans-serif" font-size="13" font-weight="bold" lengthAdjust="spacing" textLength="7" x="1389.5" y="471.8408">7</text><text fill="#000000" font-family="sans-serif" font-size="13" lengthAdjust="spacing" textLength="92" x="1400.5" y="471.8408">ApplicationsList</text><polygon fill="#181818" points="1565.5,504.3945,1575.5,508.3945,1565.5,512.3945,1569.5,508.3945" style="stroke:#181818;stroke-width:1.0;"/><line style="stroke:#181818;stroke-width:1.0;" x1="1372.5" x2="1571.5" y1="508.3945" y2="508.3945"/><text fill="#000000" font-family="sans-serif" font-size="13" font-weight="bold" lengthAdjust="spacing" textLength="7" x="1379.5" y="503.1318">8</text><text fill="#000000" font-family="sans-serif" font-size="13" lengthAdjust="spacing" textLength="175" x="1390.5" y="503.1318">convertToDto(ApplicationsList)</text><polygon fill="#181818" points="1383.5,535.6855,1373.5,539.6855,1383.5,543.6855,1379.5,539.6855" style="stroke:#181818;stroke-width:1.0;"/><line style="stroke:#181818;stroke-width:1.0;" x1="1377.5" x2="1581.5" y1="539.6855" y2="539.6855"/><text fill="#000000" font-family="sans-serif" font-size="13" font-weight="bold" lengthAdjust="spacing" textLength="7" x="1389.5" y="534.4229">9</text><text fill="#000000" font-family="sans-serif" font-size="13" lengthAdjust="spacing" textLength="112" x="1400.5" y="534.4229">ApplicationsDtoList</text><polygon fill="#181818" points="717.5,566.9766,707.5,570.9766,717.5,574.9766,713.5,570.9766" style="stroke:#181818;stroke-width:1.0;"/><line style="stroke:#181818;stroke-width:1.0;" x1="711.5" x2="1366.5" y1="570.9766" y2="570.9766"/><text fill="#000000" font-family="sans-serif" font-size="13" font-weight="bold" lengthAdjust="spacing" textLength="14" x="723.5" y="565.7139">10</text><text fill="#000000" font-family="sans-serif" font-size="13" lengthAdjust="spacing" textLength="112" x="741.5" y="565.7139">ApplicationsDtoList</text><polygon fill="#181818" points="516.5,598.2676,506.5,602.2676,516.5,606.2676,512.5,602.2676" style="stroke:#181818;stroke-width:1.0;"/><line style="stroke:#181818;stroke-width:1.0;" x1="510.5" x2="700.5" y1="602.2676" y2="602.2676"/><text fill="#000000" font-family="sans-serif" font-size="13" font-weight="bold" lengthAdjust="spacing" textLength="14" x="522.5" y="597.0049">11</text><text fill="#000000" font-family="sans-serif" font-size="13" lengthAdjust="spacing" textLength="112" x="540.5" y="597.0049">ApplicationsDtoList</text><polygon fill="#181818" points="84.5,629.5586,74.5,633.5586,84.5,637.5586,80.5,633.5586" style="stroke:#181818;stroke-width:1.0;"/><line style="stroke:#181818;stroke-width:1.0;stroke-dasharray:2.0,2.0;" x1="78.5" x2="494.5" y1="633.5586" y2="633.5586"/><text fill="#000000" font-family="sans-serif" font-size="13" font-weight="bold" lengthAdjust="spacing" textLength="14" x="90.5" y="628.2959">12</text><text fill="#000000" font-family="sans-serif" font-size="13" lengthAdjust="spacing" textLength="148" x="108.5" y="628.2959">Shows the application list</text><polygon fill="#181818" points="483.5,660.8496,493.5,664.8496,483.5,668.8496,487.5,664.8496" style="stroke:#181818;stroke-width:1.0;"/><line style="stroke:#181818;stroke-width:1.0;" x1="73.5" x2="489.5" y1="664.8496" y2="664.8496"/><text fill="#000000" font-family="sans-serif" font-size="13" font-weight="bold" lengthAdjust="spacing" textLength="14" x="80.5" y="659.5869">13</text><text fill="#000000" font-family="sans-serif" font-size="13" lengthAdjust="spacing" textLength="128" x="98.5" y="659.5869">Selects an application</text><polygon fill="#181818" points="684.5,692.1406,694.5,696.1406,684.5,700.1406,688.5,696.1406" style="stroke:#181818;stroke-width:1.0;"/><line style="stroke:#181818;stroke-width:1.0;" x1="505.5" x2="690.5" y1="696.1406" y2="696.1406"/><text fill="#000000" font-family="sans-serif" font-size="13" font-weight="bold" lengthAdjust="spacing" textLength="14" x="512.5" y="690.8779">14</text><text fill="#000000" font-family="sans-serif" font-size="13" lengthAdjust="spacing" textLength="69" x="530.5" y="690.8779">sendEmail()</text><polygon fill="#181818" points="1135.5,723.4316,1145.5,727.4316,1135.5,731.4316,1139.5,727.4316" style="stroke:#181818;stroke-width:1.0;"/><line style="stroke:#181818;stroke-width:1.0;" x1="706.5" x2="1141.5" y1="727.4316" y2="727.4316"/><text fill="#000000" font-family="sans-serif" font-size="13" font-weight="bold" lengthAdjust="spacing" textLength="14" x="713.5" y="722.1689">15</text><text fill="#000000" font-family="sans-serif" font-size="13" lengthAdjust="spacing" textLength="104" x="731.5" y="722.1689">connectToServer()</text><polygon fill="#181818" points="717.5,754.7227,707.5,758.7227,717.5,762.7227,713.5,758.7227" style="stroke:#181818;stroke-width:1.0;"/><line style="stroke:#181818;stroke-width:1.0;stroke-dasharray:2.0,2.0;" x1="711.5" x2="1151.5" y1="758.7227" y2="758.7227"/><text fill="#000000" font-family="sans-serif" font-size="13" font-weight="bold" lengthAdjust="spacing" textLength="14" x="723.5" y="753.46">16</text><text fill="#000000" font-family="sans-serif" font-size="13" lengthAdjust="spacing" textLength="49" x="741.5" y="753.46">success</text><polygon fill="#181818" points="1135.5,786.0137,1145.5,790.0137,1135.5,794.0137,1139.5,790.0137" style="stroke:#181818;stroke-width:1.0;"/><line style="stroke:#181818;stroke-width:1.0;" x1="706.5" x2="1141.5" y1="790.0137" y2="790.0137"/><text fill="#000000" font-family="sans-serif" font-size="13" font-weight="bold" lengthAdjust="spacing" textLength="14" x="713.5" y="784.751">17</text><text fill="#000000" font-family="sans-serif" font-size="13" lengthAdjust="spacing" textLength="404" x="731.5" y="784.751">sendEmail(customerManagerEmail,candidateEmail, topic, emailBody)</text><polygon fill="#181818" points="717.5,817.3047,707.5,821.3047,717.5,825.3047,713.5,821.3047" style="stroke:#181818;stroke-width:1.0;"/><line style="stroke:#181818;stroke-width:1.0;stroke-dasharray:2.0,2.0;" x1="711.5" x2="1151.5" y1="821.3047" y2="821.3047"/><text fill="#000000" font-family="sans-serif" font-size="13" font-weight="bold" lengthAdjust="spacing" textLength="14" x="723.5" y="816.042">18</text><text fill="#000000" font-family="sans-serif" font-size="13" lengthAdjust="spacing" textLength="49" x="741.5" y="816.042">success</text><polygon fill="#181818" points="1350.5,848.5957,1360.5,852.5957,1350.5,856.5957,1354.5,852.5957" style="stroke:#181818;stroke-width:1.0;"/><line style="stroke:#181818;stroke-width:1.0;" x1="706.5" x2="1356.5" y1="852.5957" y2="852.5957"/><text fill="#000000" font-family="sans-serif" font-size="13" font-weight="bold" lengthAdjust="spacing" textLength="14" x="713.5" y="847.333">19</text><text fill="#000000" font-family="sans-serif" font-size="13" lengthAdjust="spacing" textLength="206" x="731.5" y="847.333">updateApplicationNotificationState()</text><polygon fill="#181818" points="1892,879.8867,1902,883.8867,1892,887.8867,1896,883.8867" style="stroke:#181818;stroke-width:1.0;"/><line style="stroke:#181818;stroke-width:1.0;" x1="1372.5" x2="1898" y1="883.8867" y2="883.8867"/><text fill="#000000" font-family="sans-serif" font-size="13" font-weight="bold" lengthAdjust="spacing" textLength="14" x="1379.5" y="878.624">20</text><text fill="#000000" font-family="sans-serif" font-size="13" lengthAdjust="spacing" textLength="93" x="1397.5" y="878.624">save(applcation)</text><polygon fill="#181818" points="79.5,941.1777,69.5,945.1777,79.5,949.1777,75.5,945.1777" style="stroke:#181818;stroke-width:1.0;"/><line style="stroke:#181818;stroke-width:1.0;stroke-dasharray:2.0,2.0;" x1="73.5" x2="499.5" y1="945.1777" y2="945.1777"/><text fill="#000000" font-family="sans-serif" font-size="13" font-weight="bold" lengthAdjust="spacing" textLength="14" x="85.5" y="939.915">21</text><text fill="#000000" font-family="sans-serif" font-size="13" lengthAdjust="spacing" textLength="49" x="103.5" y="939.915">success</text><!--SRC=[jLPDRzim3BthLn0zfKKxh9STWY90rsneW6u5wXW5TbDb9X5cIvuaDyX-_IWviUMFjCrXEIKIzTuZzIY6LqwhgdX1mvYJBaT8a-lFrryWmJyLAe4mbtnjUC4O5quREBkhhDC56lZ15L-ZEGDkuR2uNsEivCP98Kkk79nD4rJPJ-taIWhkf5RV2YxpT16EfWkukIaDMbGkRCvc7pbzfvKpEiyF0fPF3uJ3opBVHmrWlbEqtgObdLGeV4Y2vbKA303-Evhz2Y7P-ji0vRPbg9CjI7SC50MqQCdxQFFbun6OTkSjfCfjj95_UJ-nstHv_-jZ2JrXgQsaMzxr9RGxX6IQ7mJ6b7O8HguthgPYomt2c1gG5cHHvg5Yc36fm54eScA15LaCjzhy1guosCeyPoy8bSKCGXoTNLKgt1hFfTjzOcGAyDp1cFALaug12tiBS3NpTfl2bbAtu3GO5DfaGOUJ1GRop4EjoEfS4RVpud5Bajmcn0cAaJwcvKqNZ14keNiRNbnCGHZq4T7g5DReeehQ1sdTv3mIJq4is9XEX4fE0L3Pog2l9jNCdyGifOkyv_PMxHvN4-e0j158VGCPzXRsi4DhZgfwfbHrvUAM8w50dnPsW1Js_MV4_pwXCIyTgqc3DSRN7c_2UhIHMRlCJT9zpWOfhjmevHjfThdQfYKtQ4LlYrlgkTEJFlVvczcsCCUoZLw7yMnZGXBmWNn7ICTljJRsCO9ny1ZvOFTqCOuI8OJse7wwyhJTjfv2ij5R6xep6W2GUuXUx9uimPn6WFKj7fq8-BCwAHf7MHWqWnwDX7U6HhXdFrcMkbxlDqqdkgbiT_1SDLMrbH1eRR-IGv134NjYsWH4jmHXyR9vnkgVz1YMKbm2-bzVTROxNVk9qXljHtgqAhswQ2T-ZnBwgu3_wr6o_1KdtXRrrlcfpz6xZyZxpT4tlfyZOyO_L3gAfs4Kd-wDn7y0]--></g></svg>