<?xml version="1.0" encoding="UTF-8" standalone="no"?><svg xmlns="http://www.w3.org/2000/svg" xmlns:xlink="http://www.w3.org/1999/xlink" contentStyleType="text/css" height="794px" preserveAspectRatio="none" style="width:1074px;height:794px;background:#FFFFFF;" version="1.1" viewBox="0 0 1074 794" width="1074px" zoomAndPan="magnify"><defs/><g><text fill="#000000" font-family="sans-serif" font-size="14" font-weight="bold" lengthAdjust="spacing" textLength="241" x="418.5" y="29.5332">US2003 System Sequence Diagram</text><rect fill="#FFFFFF" height="548.3438" style="stroke:#181818;stroke-width:1.0;" width="10" x="43" y="138.7656"/><rect fill="#FFFFFF" height="39.1563" style="stroke:#181818;stroke-width:1.0;" width="10" x="414" y="195.0781"/><rect fill="#FFFFFF" height="413.7188" style="stroke:#181818;stroke-width:1.0;" width="10" x="414" y="273.3906"/><rect fill="#FFFFFF" height="245.9375" style="stroke:#181818;stroke-width:1.0;" width="10" x="748" y="376.8594"/><line style="stroke:#181818;stroke-width:0.5;stroke-dasharray:5.0,5.0;" x1="48" x2="48" y1="128.7656" y2="705.1094"/><line style="stroke:#181818;stroke-width:0.5;stroke-dasharray:5.0,5.0;" x1="419" x2="419" y1="128.7656" y2="705.1094"/><line style="stroke:#181818;stroke-width:0.5;stroke-dasharray:5.0,5.0;" x1="753" x2="753" y1="128.7656" y2="705.1094"/><text fill="#000000" font-family="sans-serif" font-size="20" lengthAdjust="spacing" textLength="80" x="5" y="124.3711">Operator</text><ellipse cx="48" cy="52.1094" fill="#E2E2F0" rx="8" ry="8" style="stroke:#181818;stroke-width:0.5;"/><path d="M48,60.1094 L48,87.1094 M35,68.1094 L61,68.1094 M48,87.1094 L35,102.1094 M48,87.1094 L61,102.1094 " fill="none" style="stroke:#181818;stroke-width:0.5;"/><text fill="#000000" font-family="sans-serif" font-size="20" lengthAdjust="spacing" textLength="80" x="5" y="724.8711">Operator</text><ellipse cx="48" cy="737.7656" fill="#E2E2F0" rx="8" ry="8" style="stroke:#181818;stroke-width:0.5;"/><path d="M48,745.7656 L48,772.7656 M35,753.7656 L61,753.7656 M48,772.7656 L35,787.7656 M48,772.7656 L61,787.7656 " fill="none" style="stroke:#181818;stroke-width:0.5;"/><rect fill="#E2E2F0" height="39.1563" rx="2.5" ry="2.5" style="stroke:#181818;stroke-width:0.5;" width="80" x="379" y="88.6094"/><text fill="#000000" font-family="sans-serif" font-size="20" lengthAdjust="spacing" textLength="66" x="386" y="116.3711">System</text><rect fill="#E2E2F0" height="39.1563" rx="2.5" ry="2.5" style="stroke:#181818;stroke-width:0.5;" width="80" x="379" y="704.1094"/><text fill="#000000" font-family="sans-serif" font-size="20" lengthAdjust="spacing" textLength="66" x="386" y="731.8711">System</text><rect fill="#E2E2F0" height="39.1563" rx="2.5" ry="2.5" style="stroke:#181818;stroke-width:0.5;" width="66" x="720" y="88.6094"/><text fill="#000000" font-family="sans-serif" font-size="20" lengthAdjust="spacing" textLength="52" x="727" y="116.3711">Plugin</text><rect fill="#E2E2F0" height="39.1563" rx="2.5" ry="2.5" style="stroke:#181818;stroke-width:0.5;" width="66" x="720" y="704.1094"/><text fill="#000000" font-family="sans-serif" font-size="20" lengthAdjust="spacing" textLength="52" x="727" y="731.8711">Plugin</text><rect fill="#FFFFFF" height="548.3438" style="stroke:#181818;stroke-width:1.0;" width="10" x="43" y="138.7656"/><rect fill="#FFFFFF" height="39.1563" style="stroke:#181818;stroke-width:1.0;" width="10" x="414" y="195.0781"/><rect fill="#FFFFFF" height="413.7188" style="stroke:#181818;stroke-width:1.0;" width="10" x="414" y="273.3906"/><rect fill="#FFFFFF" height="245.9375" style="stroke:#181818;stroke-width:1.0;" width="10" x="748" y="376.8594"/><polygon fill="#181818" points="402,191.0781,412,195.0781,402,199.0781,406,195.0781" style="stroke:#181818;stroke-width:1.0;"/><line style="stroke:#181818;stroke-width:1.0;" x1="53" x2="408" y1="195.0781" y2="195.0781"/><text fill="#000000" font-family="sans-serif" font-size="20" font-weight="bold" lengthAdjust="spacing" textLength="11" x="60" y="176.1055">1</text><text fill="#000000" font-family="sans-serif" font-size="20" lengthAdjust="spacing" textLength="327" x="75" y="163.5273">asks to generate a new requirements</text><text fill="#000000" font-family="sans-serif" font-size="20" lengthAdjust="spacing" textLength="139" x="81" y="188.6836">specification file</text><polygon fill="#181818" points="64,230.2344,54,234.2344,64,238.2344,60,234.2344" style="stroke:#181818;stroke-width:1.0;"/><line style="stroke:#181818;stroke-width:1.0;stroke-dasharray:2.0,2.0;" x1="58" x2="418" y1="234.2344" y2="234.2344"/><text fill="#000000" font-family="sans-serif" font-size="20" font-weight="bold" lengthAdjust="spacing" textLength="11" x="70" y="227.8398">2</text><text fill="#000000" font-family="sans-serif" font-size="20" lengthAdjust="spacing" textLength="253" x="85" y="227.8398">shows job openings to select</text><polygon fill="#181818" points="402,269.3906,412,273.3906,402,277.3906,406,273.3906" style="stroke:#181818;stroke-width:1.0;"/><line style="stroke:#181818;stroke-width:1.0;" x1="53" x2="408" y1="273.3906" y2="273.3906"/><text fill="#000000" font-family="sans-serif" font-size="20" font-weight="bold" lengthAdjust="spacing" textLength="11" x="60" y="266.9961">3</text><text fill="#000000" font-family="sans-serif" font-size="20" lengthAdjust="spacing" textLength="190" x="75" y="266.9961">selects a job Opening</text><polygon fill="#181818" points="64,333.7031,54,337.7031,64,341.7031,60,337.7031" style="stroke:#181818;stroke-width:1.0;"/><line style="stroke:#181818;stroke-width:1.0;stroke-dasharray:2.0,2.0;" x1="58" x2="413" y1="337.7031" y2="337.7031"/><text fill="#000000" font-family="sans-serif" font-size="20" font-weight="bold" lengthAdjust="spacing" textLength="11" x="70" y="318.7305">4</text><text fill="#000000" font-family="sans-serif" font-size="20" lengthAdjust="spacing" textLength="280" x="85" y="306.1523">shows requirement specification</text><text fill="#000000" font-family="sans-serif" font-size="20" lengthAdjust="spacing" textLength="275" x="91" y="331.3086">associated with the job opening</text><polygon fill="#181818" points="736,372.8594,746,376.8594,736,380.8594,740,376.8594" style="stroke:#181818;stroke-width:1.0;"/><line style="stroke:#181818;stroke-width:1.0;" x1="424" x2="742" y1="376.8594" y2="376.8594"/><text fill="#000000" font-family="sans-serif" font-size="20" font-weight="bold" lengthAdjust="spacing" textLength="11" x="431" y="370.4648">5</text><text fill="#000000" font-family="sans-serif" font-size="20" lengthAdjust="spacing" textLength="290" x="446" y="370.4648">generate and export template file</text><line style="stroke:#181818;stroke-width:1.0;" x1="758" x2="800" y1="416.0156" y2="416.0156"/><line style="stroke:#181818;stroke-width:1.0;" x1="800" x2="800" y1="416.0156" y2="429.0156"/><line style="stroke:#181818;stroke-width:1.0;" x1="759" x2="800" y1="429.0156" y2="429.0156"/><polygon fill="#181818" points="769,425.0156,759,429.0156,769,433.0156,765,429.0156" style="stroke:#181818;stroke-width:1.0;"/><text fill="#000000" font-family="sans-serif" font-size="20" font-weight="bold" lengthAdjust="spacing" textLength="11" x="765" y="409.6211">6</text><text fill="#000000" font-family="sans-serif" font-size="20" lengthAdjust="spacing" textLength="119" x="780" y="409.6211">generates file</text><line style="stroke:#181818;stroke-width:1.0;" x1="758" x2="800" y1="493.3281" y2="493.3281"/><line style="stroke:#181818;stroke-width:1.0;" x1="800" x2="800" y1="493.3281" y2="506.3281"/><line style="stroke:#181818;stroke-width:1.0;" x1="759" x2="800" y1="506.3281" y2="506.3281"/><polygon fill="#181818" points="769,502.3281,759,506.3281,769,510.3281,765,506.3281" style="stroke:#181818;stroke-width:1.0;"/><text fill="#000000" font-family="sans-serif" font-size="20" font-weight="bold" lengthAdjust="spacing" textLength="11" x="765" y="474.3555">7</text><text fill="#000000" font-family="sans-serif" font-size="20" lengthAdjust="spacing" textLength="287" x="780" y="461.7773">validates the generated template</text><text fill="#000000" font-family="sans-serif" font-size="20" lengthAdjust="spacing" textLength="240" x="786" y="486.9336">file with a specific grammar</text><line style="stroke:#181818;stroke-width:1.0;" x1="758" x2="800" y1="570.6406" y2="570.6406"/><line style="stroke:#181818;stroke-width:1.0;" x1="800" x2="800" y1="570.6406" y2="583.6406"/><line style="stroke:#181818;stroke-width:1.0;" x1="759" x2="800" y1="583.6406" y2="583.6406"/><polygon fill="#181818" points="769,579.6406,759,583.6406,769,587.6406,765,583.6406" style="stroke:#181818;stroke-width:1.0;"/><text fill="#000000" font-family="sans-serif" font-size="20" font-weight="bold" lengthAdjust="spacing" textLength="11" x="765" y="551.668">8</text><text fill="#000000" font-family="sans-serif" font-size="20" lengthAdjust="spacing" textLength="218" x="780" y="539.0898">exports the requirements</text><text fill="#000000" font-family="sans-serif" font-size="20" lengthAdjust="spacing" textLength="139" x="786" y="564.2461">specification file</text><polygon fill="#181818" points="435,618.7969,425,622.7969,435,626.7969,431,622.7969" style="stroke:#181818;stroke-width:1.0;"/><line style="stroke:#181818;stroke-width:1.0;stroke-dasharray:2.0,2.0;" x1="429" x2="752" y1="622.7969" y2="622.7969"/><text fill="#000000" font-family="sans-serif" font-size="20" font-weight="bold" lengthAdjust="spacing" textLength="11" x="441" y="616.4023">9</text><text fill="#000000" font-family="sans-serif" font-size="20" lengthAdjust="spacing" textLength="177" x="456" y="616.4023">confirms exportation</text><polygon fill="#181818" points="59,683.1094,49,687.1094,59,691.1094,55,687.1094" style="stroke:#181818;stroke-width:1.0;"/><line style="stroke:#181818;stroke-width:1.0;stroke-dasharray:2.0,2.0;" x1="53" x2="418" y1="687.1094" y2="687.1094"/><text fill="#000000" font-family="sans-serif" font-size="20" font-weight="bold" lengthAdjust="spacing" textLength="22" x="65" y="668.1367">10</text><text fill="#000000" font-family="sans-serif" font-size="20" lengthAdjust="spacing" textLength="204" x="91" y="655.5586">confirms the successful</text><text fill="#000000" font-family="sans-serif" font-size="20" lengthAdjust="spacing" textLength="184" x="97" y="680.7148">exportation of the file</text><!--SRC=[ZP8nJyCm48Lt_ufJzqfLsJfqGan8gHHrGEhYEfVqg6C7twK5VZssKq9I6CWK-Vo-z_niFfFhTD2jzUQC5LHOwzxAatTIqYV2UgLqBzxrxH63Ka9Y4VRbUhLwWFA31LieyQr7Pn0UIJUHf9GsuWCiYWw3ZdyBq0p5JaKV8KETTWABGPn7vKivd-ritv3BiztpFlFeeWKJH1KxM6wJ1ZPnmvb1F3JeaXM21eTN234H1MpH2HySS8U6QZ9Qo3keoU84cSmLn2yHbv4S-HlWaxyolFeZ-0uTkIRRC5eqeYgSgwU9XYqSWoHnCOZltFvmcYIUnutnDRCt5DKLN4bE82US9hlnjgcgoFkfmbM0xvqF0h7epgQrVFOnJEusgNw9-TRIR7ZHbgeyJ0c-jrOZ_J1qEuJKup4WlObMXplQ46rW_UE-idPisNXNKsZvHiaRfzUIJpQhULGaF-wDGUQwjz5jWW1VvtcslB_bwK9yXry0]--></g></svg>