<?xml version="1.0" encoding="UTF-8"?>
<!DOCTYPE svg PUBLIC "-//W3C//DTD SVG 1.1//EN" "http://www.w3.org/Graphics/SVG/1.1/DTD/svg11.dtd">
<svg xmlns="http://www.w3.org/2000/svg" version="1.1" width="1949px" height="703px" style="shape-rendering:geometricPrecision; text-rendering:geometricPrecision; image-rendering:optimizeQuality; fill-rule:evenodd; clip-rule:evenodd" xmlns:xlink="http://www.w3.org/1999/xlink">
<g><path style="opacity:1" fill="#fefefe" d="M -0.5,-0.5 C 649.167,-0.5 1298.83,-0.5 1948.5,-0.5C 1948.5,233.833 1948.5,468.167 1948.5,702.5C 1298.83,702.5 649.167,702.5 -0.5,702.5C -0.5,468.167 -0.5,233.833 -0.5,-0.5 Z"/></g>
<g><path style="opacity:1" fill="#921b26" d="M 238.5,22.5 C 242.833,22.5 247.167,22.5 251.5,22.5C 251.5,23.5 251.5,24.5 251.5,25.5C 250.167,25.5 248.833,25.5 247.5,25.5C 247.5,30.5 247.5,35.5 247.5,40.5C 246.167,40.5 244.833,40.5 243.5,40.5C 243.5,35.5 243.5,30.5 243.5,25.5C 241.833,25.5 240.167,25.5 238.5,25.5C 238.5,24.5 238.5,23.5 238.5,22.5 Z"/></g>
<g><path style="opacity:1" fill="#a13840" d="M 263.5,21.5 C 264.833,21.5 266.167,21.5 267.5,21.5C 267.5,22.8333 267.5,24.1667 267.5,25.5C 266.167,25.5 264.833,25.5 263.5,25.5C 263.5,24.1667 263.5,22.8333 263.5,21.5 Z"/></g>
<g><path style="opacity:1" fill="#a13840" d="M 323.5,21.5 C 324.833,21.5 326.167,21.5 327.5,21.5C 327.5,22.8333 327.5,24.1667 327.5,25.5C 326.167,25.5 324.833,25.5 323.5,25.5C 323.5,24.1667 323.5,22.8333 323.5,21.5 Z"/></g>
<g><path style="opacity:1" fill="#972831" d="M 252.5,26.5 C 255.127,27.0916 257.794,27.4249 260.5,27.5C 260.5,28.5 260.5,29.5 260.5,30.5C 259.178,30.33 258.011,30.6634 257,31.5C 256.502,34.4816 256.335,37.4816 256.5,40.5C 255.167,40.5 253.833,40.5 252.5,40.5C 252.5,35.8333 252.5,31.1667 252.5,26.5 Z"/></g>
<g><path style="opacity:1" fill="#9f373d" d="M 263.5,26.5 C 264.822,26.33 265.989,26.6634 267,27.5C 267.499,31.8206 267.666,36.1539 267.5,40.5C 266.167,40.5 264.833,40.5 263.5,40.5C 263.5,35.8333 263.5,31.1667 263.5,26.5 Z"/></g>
<g><path style="opacity:1" fill="#931c28" d="M 299.5,27.5 C 302.187,27.3359 304.854,27.5026 307.5,28C 309.229,29.7889 309.896,31.9556 309.5,34.5C 306.428,34.1826 303.428,34.5159 300.5,35.5C 301.171,36.9458 302.338,37.6125 304,37.5C 305.825,37.0566 307.658,36.7233 309.5,36.5C 309.64,38.1238 308.973,39.2904 307.5,40C 297.495,40.8028 294.829,36.6362 299.5,27.5 Z"/></g>
<g><path style="opacity:1" fill="#982931" d="M 312.5,26.5 C 315.455,27.1587 318.455,27.4921 321.5,27.5C 321.5,28.5 321.5,29.5 321.5,30.5C 319.856,30.2865 318.356,30.6198 317,31.5C 316.502,34.4816 316.335,37.4816 316.5,40.5C 315.167,40.5 313.833,40.5 312.5,40.5C 312.5,35.8333 312.5,31.1667 312.5,26.5 Z"/></g>
<g><path style="opacity:1" fill="#9f373d" d="M 323.5,26.5 C 324.822,26.33 325.989,26.6634 327,27.5C 327.499,31.8206 327.666,36.1539 327.5,40.5C 326.167,40.5 324.833,40.5 323.5,40.5C 323.5,35.8333 323.5,31.1667 323.5,26.5 Z"/></g>
<g><path style="opacity:1" fill="#95222b" d="M 330.5,27.5 C 334.263,27.5321 338.096,27.8655 342,28.5C 342.499,32.4862 342.666,36.4862 342.5,40.5C 341.167,40.5 339.833,40.5 338.5,40.5C 338.5,37.1667 338.5,33.8333 338.5,30.5C 337.167,30.5 335.833,30.5 334.5,30.5C 334.5,33.8333 334.5,37.1667 334.5,40.5C 333.167,40.5 331.833,40.5 330.5,40.5C 330.5,36.1667 330.5,31.8333 330.5,27.5 Z"/></g>
<g><path style="opacity:1" fill="#96232d" d="M 286.5,26.5 C 289.5,26.5 292.5,26.5 295.5,26.5C 296.161,32.5045 293.495,35.8378 287.5,36.5C 289.766,37.3142 292.1,37.8142 294.5,38C 295.576,39.7261 295.743,41.5594 295,43.5C 291.704,45.3042 288.204,45.8042 284.5,45C 283.919,44.1074 283.585,43.1074 283.5,42C 284.18,37.523 284.68,33.023 285,28.5C 285.717,27.9558 286.217,27.2891 286.5,26.5 Z"/></g>
<g><path style="opacity:1" fill="#ecd6d9" d="M 287.5,29.5 C 289.346,29.2222 290.68,29.8888 291.5,31.5C 290.68,33.1112 289.346,33.7778 287.5,33.5C 287.5,32.1667 287.5,30.8333 287.5,29.5 Z"/></g>
<g><path style="opacity:1" fill="#f3e5e7" d="M 301.5,30.5 C 303.429,30.2308 305.095,30.7308 306.5,32C 305.667,32.1667 304.833,32.3333 304,32.5C 302.624,32.3158 301.791,31.6491 301.5,30.5 Z"/></g>
<g><path style="opacity:1" fill="#bee93d" d="M 934.5,30.5 C 937.91,30.3838 939.244,32.0504 938.5,35.5C 936.833,35.5 935.167,35.5 933.5,35.5C 933.366,33.7085 933.699,32.0418 934.5,30.5 Z"/></g>
<g><path style="opacity:1" fill="#bce839" d="M 888.5,31.5 C 890.792,31.2436 892.959,31.5769 895,32.5C 898.663,39.8174 901.163,47.4841 902.5,55.5C 900.833,55.5 899.167,55.5 897.5,55.5C 897.167,53.5 896.833,51.5 896.5,49.5C 893.482,49.3354 890.482,49.502 887.5,50C 886.74,51.4411 886.074,52.9411 885.5,54.5C 884.311,55.4287 882.978,55.762 881.5,55.5C 883.248,47.3357 885.581,39.3357 888.5,31.5 Z"/></g>
<g><path style="opacity:1" fill="#bbe836" d="M 921.5,33.5 C 923.167,33.5 924.833,33.5 926.5,33.5C 926.5,34.8333 926.5,36.1667 926.5,37.5C 930.5,37.5 934.5,37.5 938.5,37.5C 938.5,43.5 938.5,49.5 938.5,55.5C 936.833,55.5 935.167,55.5 933.5,55.5C 933.5,50.8333 933.5,46.1667 933.5,41.5C 931.167,41.5 928.833,41.5 926.5,41.5C 926.335,44.8499 926.502,48.1832 927,51.5C 928.011,52.3366 929.178,52.67 930.5,52.5C 930.923,55.2431 929.756,56.5765 927,56.5C 924.849,56.3569 923.182,55.3569 922,53.5C 921.839,48.8657 921.006,44.3657 919.5,40C 920.618,37.941 921.285,35.7743 921.5,33.5 Z"/></g>
<g><path style="opacity:1" fill="#982932" d="M 272.5,26.5 C 275.5,26.5 278.5,26.5 281.5,26.5C 281.991,33.0076 278.991,36.341 272.5,36.5C 275.107,37.3184 277.774,37.8184 280.5,38C 282.555,43.4619 280.555,45.9619 274.5,45.5C 271.416,46.1143 269.749,44.9476 269.5,42C 269.57,38.5611 269.57,35.0611 269.5,31.5C 270.092,29.5775 271.092,27.9108 272.5,26.5 Z"/></g>
<g><path style="opacity:1" fill="#edd7da" d="M 273.5,29.5 C 275.346,29.2222 276.68,29.8888 277.5,31.5C 276.68,33.1112 275.346,33.7778 273.5,33.5C 273.5,32.1667 273.5,30.8333 273.5,29.5 Z"/></g>
<g><path style="opacity:1" fill="#95232d" d="M 348.5,26.5 C 351.5,26.5 354.5,26.5 357.5,26.5C 357.991,33.0076 354.991,36.341 348.5,36.5C 350.766,37.3142 353.1,37.8142 355.5,38C 357.211,39.1332 357.711,40.6332 357,42.5C 354.005,45.2648 350.505,46.0981 346.5,45C 345.426,44.2613 344.759,43.2613 344.5,42C 345.239,37.8726 345.739,33.706 346,29.5C 347.045,28.6266 347.878,27.6266 348.5,26.5 Z"/></g>
<g><path style="opacity:1" fill="#eed9dc" d="M 349.5,29.5 C 350.5,29.5 351.5,29.5 352.5,29.5C 352.5,30.8333 352.5,32.1667 352.5,33.5C 349.046,33.7332 348.046,32.3999 349.5,29.5 Z"/></g>
<g><path style="opacity:1" fill="#bde83b" d="M 908.5,37.5 C 911.448,37.2229 914.281,37.5562 917,38.5C 917.781,39.9437 917.614,41.277 916.5,42.5C 911.881,40.2589 909.548,41.5922 909.5,46.5C 909.58,52.1997 912.246,53.8664 917.5,51.5C 917.773,53.451 917.107,54.951 915.5,56C 911.726,57.1825 908.559,56.3492 906,53.5C 903.362,47.4822 904.195,42.1489 908.5,37.5 Z"/></g>
<g><path style="opacity:1" fill="#bde83b" d="M 945.5,37.5 C 956.155,35.6569 960.655,39.9902 959,50.5C 953.753,58.0116 948.086,58.3449 942,51.5C 940.608,46.0931 941.774,41.4265 945.5,37.5 Z"/></g>
<g><path style="opacity:1" fill="#bde83b" d="M 963.5,37.5 C 966.487,38.825 969.487,38.825 972.5,37.5C 974.481,37.4371 976.148,38.1038 977.5,39.5C 978.495,44.7921 978.828,50.1254 978.5,55.5C 976.833,55.5 975.167,55.5 973.5,55.5C 973.666,51.1539 973.499,46.8206 973,42.5C 971.542,41.2532 970.042,41.2532 968.5,42.5C 967.508,46.7828 967.174,51.1161 967.5,55.5C 965.833,55.5 964.167,55.5 962.5,55.5C 962.211,49.4093 962.545,43.4093 963.5,37.5 Z"/></g>
<g><path style="opacity:1" fill="#bee940" d="M 984.5,37.5 C 987.5,37.5 990.5,37.5 993.5,37.5C 993.5,38.8333 993.5,40.1667 993.5,41.5C 991.076,41.1924 988.743,41.5258 986.5,42.5C 988.792,44.437 991.292,46.1037 994,47.5C 994.659,55.1153 991.159,57.9486 983.5,56C 981.845,54.5557 981.178,52.7224 981.5,50.5C 984.208,51.4492 986.874,51.4492 989.5,50.5C 986.567,49.07 984.067,47.07 982,44.5C 981.333,43.1667 981.333,41.8333 982,40.5C 983.045,39.6266 983.878,38.6266 984.5,37.5 Z"/></g>
<g><path style="opacity:1" fill="#e7cccf" d="M 272.5,40.5 C 274.288,40.2148 275.955,40.5481 277.5,41.5C 276.667,41.8333 275.833,42.1667 275,42.5C 273.624,42.3158 272.791,41.6491 272.5,40.5 Z"/></g>
<g><path style="opacity:1" fill="#e7cbcf" d="M 286.5,40.5 C 288.288,40.2148 289.955,40.5481 291.5,41.5C 290.667,41.8333 289.833,42.1667 289,42.5C 287.624,42.3158 286.791,41.6491 286.5,40.5 Z"/></g>
<g><path style="opacity:1" fill="#f8fce8" d="M 890.5,37.5 C 892.42,39.7464 893.753,42.4131 894.5,45.5C 892.833,45.5 891.167,45.5 889.5,45.5C 889.575,42.7938 889.908,40.1272 890.5,37.5 Z"/></g>
<g><path style="opacity:1" fill="#e7ccd0" d="M 348.5,40.5 C 350.288,40.2148 351.955,40.5481 353.5,41.5C 352.667,41.8333 351.833,42.1667 351,42.5C 349.624,42.3158 348.791,41.6491 348.5,40.5 Z"/></g>
<g><path style="opacity:1" fill="#f9fdee" d="M 948.5,41.5 C 954.156,41.8674 955.989,44.8674 954,50.5C 951.16,53.3707 948.826,53.0374 947,49.5C 946.109,46.5024 946.609,43.8357 948.5,41.5 Z"/></g>
<g><path style="opacity:1" fill="#9b2f35" d="M 266.5,57.5 C 270.167,57.5 273.833,57.5 277.5,57.5C 277.5,58.8333 277.5,60.1667 277.5,61.5C 275.167,61.5 272.833,61.5 270.5,61.5C 270.5,62.5 270.5,63.5 270.5,64.5C 272.5,64.5 274.5,64.5 276.5,64.5C 276.5,65.8333 276.5,67.1667 276.5,68.5C 274.5,68.5 272.5,68.5 270.5,68.5C 270.5,69.8333 270.5,71.1667 270.5,72.5C 272.833,72.5 275.167,72.5 277.5,72.5C 277.5,73.8333 277.5,75.1667 277.5,76.5C 273.833,76.5 270.167,76.5 266.5,76.5C 266.5,70.1667 266.5,63.8333 266.5,57.5 Z"/></g>
<g><path style="opacity:1" fill="#992b32" d="M 323.5,59.5 C 324.833,59.5 326.167,59.5 327.5,59.5C 327.5,60.5 327.5,61.5 327.5,62.5C 328.5,62.5 329.5,62.5 330.5,62.5C 330.5,63.5 330.5,64.5 330.5,65.5C 329.5,65.5 328.5,65.5 327.5,65.5C 327.5,67.8333 327.5,70.1667 327.5,72.5C 328.833,72.5 330.167,72.5 331.5,72.5C 330.925,76.4735 328.758,77.4735 325,75.5C 324.195,71.558 323.028,67.7246 321.5,64C 322.707,62.6998 323.374,61.1998 323.5,59.5 Z"/></g>
<g><path style="opacity:1" fill="#992b33" d="M 278.5,62.5 C 279.822,62.33 280.989,62.6634 282,63.5C 283,65.8333 284,68.1667 285,70.5C 285.986,68.2222 286.82,65.8889 287.5,63.5C 288.689,62.5713 290.022,62.238 291.5,62.5C 289.594,66.9859 288.26,71.6526 287.5,76.5C 285.712,76.7852 284.045,76.4519 282.5,75.5C 280.391,71.3964 279.058,67.0631 278.5,62.5 Z"/></g>
<g><path style="opacity:1" fill="#982831" d="M 295.5,62.5 C 302.181,61.3102 305.181,63.9769 304.5,70.5C 293.833,71.1667 293.833,71.8333 304.5,72.5C 304.126,75.6202 302.293,76.9535 299,76.5C 292.846,75.382 290.846,71.7153 293,65.5C 294.045,64.6266 294.878,63.6266 295.5,62.5 Z"/></g>
<g><path style="opacity:1" fill="#95232c" d="M 308.5,75.5 C 308.176,71.4454 308.509,67.4454 309.5,63.5C 310.687,64.6527 311.687,64.6527 312.5,63.5C 315.17,62.1201 317.67,62.4535 320,64.5C 320.499,68.4862 320.666,72.4862 320.5,76.5C 319.167,76.5 317.833,76.5 316.5,76.5C 316.665,73.1501 316.498,69.8168 316,66.5C 314.413,65.273 313.079,65.6063 312,67.5C 311.502,70.4816 311.335,73.4816 311.5,76.5C 310.209,76.7373 309.209,76.404 308.5,75.5 Z"/></g>
<g><path style="opacity:1" fill="#be747f" d="M 312.5,63.5 C 311.687,64.6527 310.687,64.6527 309.5,63.5C 308.509,67.4454 308.176,71.4454 308.5,75.5C 307.515,71.3656 307.182,67.0323 307.5,62.5C 309.292,62.366 310.958,62.6993 312.5,63.5 Z"/></g>
<g><path style="opacity:1" fill="#dcb3b9" d="M 297.5,65.5 C 299.346,65.2222 300.68,65.8888 301.5,67.5C 299.833,68.8333 298.167,68.8333 296.5,67.5C 296.863,66.8165 297.196,66.1499 297.5,65.5 Z"/></g>
<g><path style="opacity:1" fill="#b4e61c" d="M 489.5,77.5 C 799.473,78.3312 1109.47,78.8312 1419.5,79C 1420.66,97.7599 1420.83,116.593 1420,135.5C 1418.67,136.833 1417.33,136.833 1416,135.5C 1415.5,118.17 1415.33,100.837 1415.5,83.5C 1205.83,83.5 996.167,83.5 786.5,83.5C 786.667,100.837 786.5,118.17 786,135.5C 784.667,136.833 783.333,136.833 782,135.5C 781.5,118.17 781.333,100.837 781.5,83.5C 685.5,83.5 589.5,83.5 493.5,83.5C 493.667,101.17 493.5,118.836 493,136.5C 491.667,137.833 490.333,137.833 489,136.5C 488.5,118.836 488.333,101.17 488.5,83.5C 484.324,84.1693 482.991,82.6693 484.5,79C 486.382,78.8019 488.048,78.3019 489.5,77.5 Z"/></g>
<g><path style="opacity:1" fill="#870014" d="M 295.5,100.5 C 296.822,100.33 297.989,100.663 299,101.5C 299.667,137.833 299.667,174.167 299,210.5C 297.667,211.833 296.333,211.833 295,210.5C 294.174,173.762 294.34,137.095 295.5,100.5 Z"/></g>
<g><path style="opacity:1" fill="#3f47cc" d="M 622.5,299.5 C 620.833,299.5 619.167,299.5 617.5,299.5C 617.5,249.833 617.5,200.167 617.5,150.5C 527.167,150.5 436.833,150.5 346.5,150.5C 346.5,181.833 346.5,213.167 346.5,244.5C 344.833,244.5 343.167,244.5 341.5,244.5C 341.5,211.5 341.5,178.5 341.5,145.5C 435.167,145.5 528.833,145.5 622.5,145.5C 622.5,196.833 622.5,248.167 622.5,299.5 Z"/></g>
<g><path style="opacity:1" fill="#fe7f26" d="M 926.5,300.5 C 924.833,300.5 923.167,300.5 921.5,300.5C 921.5,251.167 921.5,201.833 921.5,152.5C 834.167,152.5 746.833,152.5 659.5,152.5C 659.5,201.833 659.5,251.167 659.5,300.5C 657.883,299.962 656.216,299.629 654.5,299.5C 654.5,248.833 654.5,198.167 654.5,147.5C 745.167,147.5 835.833,147.5 926.5,147.5C 926.5,198.5 926.5,249.5 926.5,300.5 Z"/></g>
<g><path style="opacity:1" fill="#a249a4" d="M 955.5,305.5 C 957.167,305.5 958.833,305.5 960.5,305.5C 960.5,362.167 960.5,418.833 960.5,475.5C 1255.5,475.5 1550.5,475.5 1845.5,475.5C 1845.5,367.833 1845.5,260.167 1845.5,152.5C 1550.5,152.5 1255.5,152.5 960.5,152.5C 960.5,202.167 960.5,251.833 960.5,301.5C 958.833,301.5 957.167,301.5 955.5,301.5C 955.5,250.167 955.5,198.833 955.5,147.5C 1253.83,147.5 1552.17,147.5 1850.5,147.5C 1850.5,258.5 1850.5,369.5 1850.5,480.5C 1552.17,480.5 1253.83,480.5 955.5,480.5C 955.5,422.167 955.5,363.833 955.5,305.5 Z"/></g>
<g><path style="opacity:1" fill="#6d7dcb" d="M 617.5,299.5 C 603.833,299.5 590.167,299.5 576.5,299.5C 576.5,288.833 576.5,278.167 576.5,267.5C 511.5,267.5 446.5,267.5 381.5,267.5C 381.666,277.172 381.5,286.839 381,296.5C 375.908,293.873 371.741,290.206 368.5,285.5C 365.869,283.092 363.369,283.092 361,285.5C 360.333,286.167 360.333,286.833 361,287.5C 365.149,290.319 368.983,293.486 372.5,297C 363.811,297.673 355.144,297.507 346.5,296.5C 346.5,294.5 346.5,292.5 346.5,290.5C 347.87,290.144 348.87,289.31 349.5,288C 348.876,285.915 347.876,284.082 346.5,282.5C 346.5,272.5 346.5,262.5 346.5,252.5C 347.876,250.918 348.876,249.085 349.5,247C 348.87,245.69 347.87,244.856 346.5,244.5C 346.5,213.167 346.5,181.833 346.5,150.5C 436.833,150.5 527.167,150.5 617.5,150.5C 617.5,200.167 617.5,249.833 617.5,299.5 Z"/></g>
<g><path style="opacity:1" fill="#ffc86a" d="M 921.5,300.5 C 908.5,301.167 895.5,301.833 882.5,302.5C 882.5,290.833 882.5,279.167 882.5,267.5C 818.5,267.5 754.5,267.5 690.5,267.5C 690.832,279.518 690.499,291.518 689.5,303.5C 686.011,299.845 682.345,296.345 678.5,293C 677.552,292.517 676.552,292.351 675.5,292.5C 675.343,293.873 675.51,295.207 676,296.5C 678.46,297.958 680.627,299.791 682.5,302C 674.811,302.082 667.145,301.582 659.5,300.5C 659.5,251.167 659.5,201.833 659.5,152.5C 746.833,152.5 834.167,152.5 921.5,152.5C 921.5,201.833 921.5,251.167 921.5,300.5 Z"/></g>
<g><path style="opacity:1" fill="#fb7cf9" d="M 960.5,305.5 C 970.506,305.334 980.506,305.5 990.5,306C 987.445,308.076 986.445,310.742 987.5,314C 988.448,314.483 989.448,314.649 990.5,314.5C 991.727,311.418 993.227,308.418 995,305.5C 995.5,317.495 995.667,329.495 995.5,341.5C 1057.83,341.5 1120.17,341.5 1182.5,341.5C 1182.5,329.833 1182.5,318.167 1182.5,306.5C 1210.81,302.98 1239.15,302.813 1267.5,306C 1265.32,308.016 1263.32,310.183 1261.5,312.5C 1261.89,313.72 1262.72,314.387 1264,314.5C 1266.42,311.663 1269.25,309.33 1272.5,307.5C 1273.5,319.815 1273.83,332.149 1273.5,344.5C 1324.83,344.5 1376.17,344.5 1427.5,344.5C 1427.77,351.102 1426.6,357.436 1424,363.5C 1419.36,365.652 1415.03,368.319 1411,371.5C 1410.84,366.98 1412.01,362.813 1414.5,359C 1410.88,356.894 1408.72,358.061 1408,362.5C 1407.5,365.5 1407,368.5 1406.5,371.5C 1406.39,373.374 1407.06,374.874 1408.5,376C 1414.82,376.765 1421.15,377.265 1427.5,377.5C 1427.72,376.325 1427.39,375.325 1426.5,374.5C 1423.1,373.896 1419.77,373.063 1416.5,372C 1425.34,369.49 1430.18,363.657 1431,354.5C 1431.5,351.183 1431.67,347.85 1431.5,344.5C 1447.83,344.5 1464.17,344.5 1480.5,344.5C 1480.17,332.149 1480.5,319.815 1481.5,307.5C 1484.44,306.756 1487.44,306.256 1490.5,306C 1519.83,305.333 1549.17,305.333 1578.5,306C 1584.88,306.242 1591.22,306.908 1597.5,308C 1594.37,310.963 1591.37,314.129 1588.5,317.5C 1589.35,319.283 1590.68,319.783 1592.5,319C 1594.67,315.5 1597.5,312.667 1601,310.5C 1601.5,321.828 1601.67,333.162 1601.5,344.5C 1628.17,344.5 1654.83,344.5 1681.5,344.5C 1679.91,357.576 1679.24,370.91 1679.5,384.5C 1675.15,384.334 1670.82,384.501 1666.5,385C 1665.83,385.667 1665.17,386.333 1664.5,387C 1669.32,388.279 1674.32,388.946 1679.5,389C 1681.52,389.45 1683.35,390.283 1685,391.5C 1688.28,387.522 1690.78,383.022 1692.5,378C 1691.99,376.831 1691.16,375.998 1690,375.5C 1688.08,378.415 1686.24,381.415 1684.5,384.5C 1683.36,372.159 1683.53,359.826 1685,347.5C 1685.23,346.263 1685.73,345.263 1686.5,344.5C 1729.5,344.5 1772.5,344.5 1815.5,344.5C 1815.5,317.833 1815.5,291.167 1815.5,264.5C 1744.17,264.5 1672.83,264.5 1601.5,264.5C 1601.67,276.838 1601.5,289.171 1601,301.5C 1598.99,298.328 1596.49,295.662 1593.5,293.5C 1592.26,292.754 1590.93,292.421 1589.5,292.5C 1589.35,293.552 1589.52,294.552 1590,295.5C 1592.64,297.895 1595.14,300.395 1597.5,303C 1561.55,301.476 1525.55,301.143 1489.5,302C 1486.57,302.218 1483.74,302.718 1481,303.5C 1480.5,291.171 1480.33,278.838 1480.5,266.5C 1411.67,265.501 1342.67,265.167 1273.5,265.5C 1273.5,277.5 1273.5,289.5 1273.5,301.5C 1269.3,298.142 1264.8,295.142 1260,292.5C 1258.05,292.763 1257.39,293.763 1258,295.5C 1259.96,298.135 1262.46,299.969 1265.5,301C 1238.12,298.804 1210.79,299.304 1183.5,302.5C 1182.5,289.851 1182.17,277.184 1182.5,264.5C 1120.17,264.5 1057.83,264.5 995.5,264.5C 995.667,275.838 995.5,287.172 995,298.5C 992.316,295.748 989.65,293.081 987,290.5C 986.167,291.333 985.333,292.167 984.5,293C 987.167,295.667 989.833,298.333 992.5,301C 981.839,301.5 971.172,301.667 960.5,301.5C 960.5,251.833 960.5,202.167 960.5,152.5C 1255.5,152.5 1550.5,152.5 1845.5,152.5C 1845.5,260.167 1845.5,367.833 1845.5,475.5C 1550.5,475.5 1255.5,475.5 960.5,475.5C 960.5,418.833 960.5,362.167 960.5,305.5 Z"/></g>
<g><path style="opacity:1" fill="#414acc" d="M 426.5,181.5 C 427.833,181.5 429.167,181.5 430.5,181.5C 430.5,184.5 430.5,187.5 430.5,190.5C 432.488,190.173 434.488,189.84 436.5,189.5C 438.374,189.39 439.874,190.056 441,191.5C 441.499,196.489 441.666,201.489 441.5,206.5C 440.167,206.5 438.833,206.5 437.5,206.5C 437.666,202.486 437.499,198.486 437,194.5C 434.733,193.065 432.733,193.398 431,195.5C 430.501,199.486 430.334,203.486 430.5,207.5C 429.167,207.5 427.833,207.5 426.5,207.5C 426.5,198.833 426.5,190.167 426.5,181.5 Z"/></g>
<g><path style="opacity:1" fill="#454ecb" d="M 480.5,181.5 C 482.144,181.286 483.644,181.62 485,182.5C 485.333,186.833 485.667,191.167 486,195.5C 487.141,193.391 488.641,191.558 490.5,190C 492.259,189.202 493.926,189.369 495.5,190.5C 493.628,192.535 491.961,194.702 490.5,197C 492.593,200.351 494.26,203.851 495.5,207.5C 493.712,207.785 492.045,207.452 490.5,206.5C 489.167,204.5 487.833,202.5 486.5,200.5C 485.692,202.423 485.192,204.423 485,206.5C 483.644,207.38 482.144,207.714 480.5,207.5C 480.5,198.833 480.5,190.167 480.5,181.5 Z"/></g>
<g><path style="opacity:1" fill="#444dcc" d="M 537.5,185.5 C 539.5,185.5 541.5,185.5 543.5,185.5C 543.5,186.833 543.5,188.167 543.5,189.5C 544.833,189.5 546.167,189.5 547.5,189.5C 547.5,190.833 547.5,192.167 547.5,193.5C 545.833,193.5 544.167,193.5 542.5,193.5C 542.335,196.85 542.502,200.183 543,203.5C 544.011,204.337 545.178,204.67 546.5,204.5C 546.5,205.5 546.5,206.5 546.5,207.5C 544.143,207.663 541.81,207.497 539.5,207C 538.874,206.25 538.374,205.416 538,204.5C 537.895,200.007 537.062,195.674 535.5,191.5C 536.754,189.666 537.421,187.666 537.5,185.5 Z"/></g>
<g><path style="opacity:1" fill="#ff862d" d="M 741.5,185.5 C 743.167,185.5 744.833,185.5 746.5,185.5C 746.5,187.167 746.5,188.833 746.5,190.5C 747.833,190.5 749.167,190.5 750.5,190.5C 750.5,191.5 750.5,192.5 750.5,193.5C 749.167,193.5 747.833,193.5 746.5,193.5C 746.335,196.85 746.502,200.183 747,203.5C 748.011,204.337 749.178,204.67 750.5,204.5C 750.5,205.833 750.5,207.167 750.5,208.5C 747.03,209.125 744.196,208.125 742,205.5C 741.839,200.866 741.006,196.366 739.5,192C 740.618,189.941 741.285,187.774 741.5,185.5 Z"/></g>
<g><path style="opacity:1" fill="#aa4daa" d="M 1349.5,187.5 C 1350.83,187.5 1352.17,187.5 1353.5,187.5C 1353.5,195.833 1353.5,204.167 1353.5,212.5C 1352.07,212.579 1350.74,212.246 1349.5,211.5C 1343.94,215.048 1340.11,213.715 1338,207.5C 1337.16,203.705 1337.5,200.039 1339,196.5C 1341.9,194.255 1345.06,193.922 1348.5,195.5C 1349.48,192.914 1349.81,190.247 1349.5,187.5 Z"/></g>
<g><path style="opacity:1" fill="#ab4dac" d="M 1416.5,186.5 C 1418.17,186.5 1419.83,186.5 1421.5,186.5C 1421.18,189.572 1421.52,192.572 1422.5,195.5C 1426.22,193.757 1429.39,194.424 1432,197.5C 1432.5,202.489 1432.67,207.489 1432.5,212.5C 1430.83,212.5 1429.17,212.5 1427.5,212.5C 1427.5,207.833 1427.5,203.167 1427.5,198.5C 1425.53,198.261 1423.7,198.594 1422,199.5C 1421.5,203.821 1421.33,208.154 1421.5,212.5C 1419.83,212.5 1418.17,212.5 1416.5,212.5C 1416.5,203.833 1416.5,195.167 1416.5,186.5 Z"/></g>
<g><path style="opacity:1" fill="#b553b5" d="M 1328.5,187.5 C 1330.5,187.5 1332.5,187.5 1334.5,187.5C 1334.5,195.833 1334.5,204.167 1334.5,212.5C 1332.53,212.739 1330.7,212.406 1329,211.5C 1328.5,203.507 1328.33,195.507 1328.5,187.5 Z"/></g>
<g><path style="opacity:1" fill="#454ecc" d="M 413.5,189.5 C 416.187,189.336 418.854,189.503 421.5,190C 423.107,191.049 423.773,192.549 423.5,194.5C 415.163,191.503 412.497,194.17 415.5,202.5C 418.126,203.449 420.792,203.449 423.5,202.5C 423.424,206.641 421.257,208.308 417,207.5C 409.888,206.032 407.554,201.699 410,194.5C 410.997,192.677 412.164,191.01 413.5,189.5 Z"/></g>
<g><path style="opacity:1" fill="#4851cc" d="M 449.5,189.5 C 453.839,188.846 457.673,189.846 461,192.5C 461.769,195.099 461.602,197.599 460.5,200C 457.183,200.498 453.85,200.665 450.5,200.5C 450.5,201.5 450.5,202.5 450.5,203.5C 453.833,203.5 457.167,203.5 460.5,203.5C 460.5,204.833 460.5,206.167 460.5,207.5C 448.236,210.402 443.403,205.736 446,193.5C 446.69,191.65 447.856,190.316 449.5,189.5 Z"/></g>
<g><path style="opacity:1" fill="#444dcc" d="M 467.5,189.5 C 470.579,189.26 473.579,189.593 476.5,190.5C 477.833,191.833 477.833,193.167 476.5,194.5C 469.152,192.485 466.818,195.152 469.5,202.5C 471.828,203.724 474.161,203.724 476.5,202.5C 477.747,204.006 477.747,205.506 476.5,207C 468.58,209.573 464.247,206.74 463.5,198.5C 463.686,194.923 465.02,191.923 467.5,189.5 Z"/></g>
<g><path style="opacity:1" fill="#434ccc" d="M 500.5,189.5 C 511.387,187.551 515.553,191.885 513,202.5C 510.459,207.069 506.625,208.569 501.5,207C 499.714,206.215 498.214,205.049 497,203.5C 495.496,198.01 496.663,193.343 500.5,189.5 Z"/></g>
<g><path style="opacity:1" fill="#b654b7" d="M 1279.5,188.5 C 1284.3,188.121 1288.96,188.621 1293.5,190C 1296.06,192.925 1296.06,195.925 1293.5,199C 1297.7,203.632 1297.36,207.965 1292.5,212C 1288.18,212.499 1283.85,212.666 1279.5,212.5C 1279.5,204.5 1279.5,196.5 1279.5,188.5 Z"/></g>
<g><path style="opacity:1" fill="#ab4eac" d="M 1446.5,188.5 C 1448.83,188.5 1451.17,188.5 1453.5,188.5C 1455.21,193.591 1457.21,198.591 1459.5,203.5C 1461.48,198.874 1463.48,194.207 1465.5,189.5C 1468.03,188.223 1470.53,188.223 1473,189.5C 1473.5,197.159 1473.67,204.826 1473.5,212.5C 1471.83,212.5 1470.17,212.5 1468.5,212.5C 1468.67,206.491 1468.5,200.491 1468,194.5C 1465.54,200.049 1463.37,205.716 1461.5,211.5C 1459.95,212.452 1458.29,212.785 1456.5,212.5C 1455.16,206.642 1453.32,200.976 1451,195.5C 1450.5,201.157 1450.33,206.824 1450.5,212.5C 1448.83,212.5 1447.17,212.5 1445.5,212.5C 1445.2,204.414 1445.53,196.414 1446.5,188.5 Z"/></g>
<g><path style="opacity:1" fill="#444dcc" d="M 517.5,189.5 C 518.833,189.5 520.167,189.5 521.5,189.5C 521.334,193.846 521.501,198.179 522,202.5C 524.267,203.935 526.267,203.602 528,201.5C 528.499,197.514 528.666,193.514 528.5,189.5C 530.144,189.286 531.644,189.62 533,190.5C 533.499,195.823 533.666,201.156 533.5,206.5C 531.738,206.643 530.071,206.309 528.5,205.5C 519.588,209.617 515.588,206.617 516.5,196.5C 516.56,194.079 516.893,191.746 517.5,189.5 Z"/></g>
<g><path style="opacity:1" fill="#ff862e" d="M 709.5,189.5 C 712.187,189.336 714.854,189.503 717.5,190C 718.337,191.011 718.67,192.178 718.5,193.5C 716.076,193.192 713.743,193.526 711.5,194.5C 713.411,196.702 715.745,198.369 718.5,199.5C 719.952,202.282 719.619,204.782 717.5,207C 714.634,208.457 711.634,208.79 708.5,208C 706.44,206.507 706.107,204.674 707.5,202.5C 709.51,204.171 711.843,204.838 714.5,204.5C 714.719,203.325 714.386,202.325 713.5,201.5C 707.169,199.228 705.836,195.228 709.5,189.5 Z"/></g>
<g><path style="opacity:1" fill="#ff8b32" d="M 726.5,189.5 C 735.221,188.221 738.887,191.887 737.5,200.5C 733.833,200.5 730.167,200.5 726.5,200.5C 726.36,202.124 727.027,203.29 728.5,204C 731.507,204.301 734.507,204.135 737.5,203.5C 737.714,205.144 737.38,206.644 736.5,208C 724.84,210.671 720.007,206.171 722,194.5C 723.025,192.313 724.525,190.646 726.5,189.5 Z"/></g>
<g><path style="opacity:1" fill="#ff822a" d="M 754.5,190.5 C 755.833,190.5 757.167,190.5 758.5,190.5C 758.334,194.514 758.501,198.514 759,202.5C 761,205.167 763,205.167 765,202.5C 765.499,198.514 765.666,194.514 765.5,190.5C 766.833,190.5 768.167,190.5 769.5,190.5C 769.5,196.167 769.5,201.833 769.5,207.5C 767.856,207.714 766.356,207.38 765,206.5C 761.304,209.425 757.971,209.092 755,205.5C 754.501,200.511 754.334,195.511 754.5,190.5 Z"/></g>
<g><path style="opacity:1" fill="#ff832b" d="M 780.5,189.5 C 787.697,188.409 791.03,191.409 790.5,198.5C 791.26,204.065 788.926,207.398 783.5,208.5C 781.956,208.21 780.623,207.544 779.5,206.5C 778.52,209.086 778.187,211.753 778.5,214.5C 777.167,214.5 775.833,214.5 774.5,214.5C 774.5,206.5 774.5,198.5 774.5,190.5C 775.93,190.421 777.264,190.754 778.5,191.5C 779.522,191.145 780.189,190.478 780.5,189.5 Z"/></g>
<g><path style="opacity:1" fill="#ff8b32" d="M 816.5,189.5 C 819.518,189.335 822.518,189.502 825.5,190C 826.931,190.465 828.097,191.299 829,192.5C 829.499,197.489 829.666,202.489 829.5,207.5C 827.738,207.643 826.071,207.309 824.5,206.5C 816.711,210.549 813.544,208.215 815,199.5C 817.64,197.127 820.807,195.793 824.5,195.5C 822.201,193.231 819.534,192.898 816.5,194.5C 815.334,192.833 815.334,191.166 816.5,189.5 Z"/></g>
<g><path style="opacity:1" fill="#ff8b32" d="M 851.5,189.5 C 854.85,189.335 858.183,189.502 861.5,190C 862.333,190.833 863.167,191.667 864,192.5C 864.499,197.489 864.666,202.489 864.5,207.5C 862.738,207.643 861.071,207.309 859.5,206.5C 852.045,210.169 848.878,207.836 850,199.5C 852.546,196.814 855.713,195.814 859.5,196.5C 859.5,195.5 859.5,194.5 859.5,193.5C 856.751,193.274 854.084,193.607 851.5,194.5C 850.334,192.833 850.334,191.166 851.5,189.5 Z"/></g>
<g><path style="opacity:1" fill="#ff822a" d="M 806.5,190.5 C 807.833,190.5 809.167,190.5 810.5,190.5C 810.666,197.841 810.5,205.174 810,212.5C 807.865,214.278 805.365,214.945 802.5,214.5C 802.5,213.167 802.5,211.833 802.5,210.5C 803.833,210.5 805.167,210.5 806.5,210.5C 806.5,203.833 806.5,197.167 806.5,190.5 Z"/></g>
<g><path style="opacity:1" fill="#ff862d" d="M 831.5,190.5 C 833.288,190.215 834.955,190.548 836.5,191.5C 837.668,194.839 838.834,198.172 840,201.5C 841,198.167 842,194.833 843,191.5C 844.814,190.24 846.647,190.24 848.5,191.5C 846.025,196.592 844.358,201.925 843.5,207.5C 841.167,207.5 838.833,207.5 836.5,207.5C 834.678,201.879 833.011,196.212 831.5,190.5 Z"/></g>
<g><path style="opacity:1" fill="#a94caa" d="M 1404.5,190.5 C 1406.17,190.5 1407.83,190.5 1409.5,190.5C 1409.5,192.167 1409.5,193.833 1409.5,195.5C 1410.83,195.5 1412.17,195.5 1413.5,195.5C 1413.5,196.5 1413.5,197.5 1413.5,198.5C 1412.17,198.5 1410.83,198.5 1409.5,198.5C 1409.5,202.167 1409.5,205.833 1409.5,209.5C 1410.83,209.5 1412.17,209.5 1413.5,209.5C 1413.5,210.5 1413.5,211.5 1413.5,212.5C 1410.31,212.98 1407.48,212.314 1405,210.5C 1404.84,205.866 1404.01,201.366 1402.5,197C 1403.62,194.941 1404.28,192.774 1404.5,190.5 Z"/></g>
<g><path style="opacity:1" fill="#6b7acc" d="M 503.5,192.5 C 505.39,192.297 506.89,192.963 508,194.5C 508.777,197.429 508.61,200.263 507.5,203C 505.559,203.743 503.726,203.576 502,202.5C 501.037,198.851 501.537,195.518 503.5,192.5 Z"/></g>
<g><path style="opacity:1" fill="#ffc164" d="M 780.5,193.5 C 782.144,193.286 783.644,193.62 785,194.5C 785.667,197.167 785.667,199.833 785,202.5C 780.907,205.448 778.74,204.281 778.5,199C 778.395,196.822 779.061,194.988 780.5,193.5 Z"/></g>
<g><path style="opacity:1" fill="#ac4ead" d="M 1300.5,194.5 C 1301.83,194.5 1303.17,194.5 1304.5,194.5C 1304.34,199.547 1304.67,204.547 1305.5,209.5C 1307.39,209.703 1308.89,209.037 1310,207.5C 1310.33,203.5 1310.67,199.5 1311,195.5C 1312.36,194.62 1313.86,194.286 1315.5,194.5C 1315.5,200.5 1315.5,206.5 1315.5,212.5C 1311.19,212.456 1306.86,212.456 1302.5,212.5C 1299.34,206.824 1298.68,200.824 1300.5,194.5 Z"/></g>
<g><path style="opacity:1" fill="#a54aa6" d="M 1320.5,195.5 C 1321.83,195.5 1323.17,195.5 1324.5,195.5C 1324.5,201.167 1324.5,206.833 1324.5,212.5C 1323.17,212.5 1321.83,212.5 1320.5,212.5C 1320.5,206.833 1320.5,201.167 1320.5,195.5 Z"/></g>
<g><path style="opacity:1" fill="#ac4eac" d="M 1365.5,194.5 C 1367.14,194.286 1368.64,194.62 1370,195.5C 1372.13,207.463 1373.97,207.463 1375.5,195.5C 1377.5,195.5 1379.5,195.5 1381.5,195.5C 1383.26,208.739 1384.93,208.739 1386.5,195.5C 1388.17,195.5 1389.83,195.5 1391.5,195.5C 1390.3,200.855 1388.96,206.188 1387.5,211.5C 1385.5,212.833 1383.5,212.833 1381.5,211.5C 1378.87,199.651 1377.21,199.985 1376.5,212.5C 1374.17,212.5 1371.83,212.5 1369.5,212.5C 1368.17,206.506 1366.84,200.506 1365.5,194.5 Z"/></g>
<g><path style="opacity:1" fill="#b151b1" d="M 1478.5,194.5 C 1482.91,194.021 1487.08,194.688 1491,196.5C 1491.5,201.823 1491.67,207.156 1491.5,212.5C 1490.07,212.579 1488.74,212.246 1487.5,211.5C 1479.86,215.362 1476.36,213.028 1477,204.5C 1479.72,202.206 1482.89,201.206 1486.5,201.5C 1486.5,200.5 1486.5,199.5 1486.5,198.5C 1483.46,198.508 1480.46,198.841 1477.5,199.5C 1477.37,197.708 1477.7,196.042 1478.5,194.5 Z"/></g>
<g><path style="opacity:1" fill="#ab4dac" d="M 1506.5,194.5 C 1507.83,194.5 1509.17,194.5 1510.5,194.5C 1509.09,200.569 1507.42,206.569 1505.5,212.5C 1503.17,212.5 1500.83,212.5 1498.5,212.5C 1496.87,206.907 1495.54,201.24 1494.5,195.5C 1495.98,195.238 1497.31,195.571 1498.5,196.5C 1500.03,199.759 1501.36,203.093 1502.5,206.5C 1503.64,202.409 1504.97,198.409 1506.5,194.5 Z"/></g>
<g><path style="opacity:1" fill="#b251b2" d="M 1515.5,194.5 C 1522.6,192.557 1526.93,195.057 1528.5,202C 1528.41,203.107 1528.08,204.107 1527.5,205C 1524.18,205.498 1520.85,205.665 1517.5,205.5C 1517.33,206.822 1517.66,207.989 1518.5,209C 1521.51,209.301 1524.51,209.135 1527.5,208.5C 1527.95,212.894 1525.95,214.56 1521.5,213.5C 1517.72,214.173 1514.89,212.839 1513,209.5C 1511.78,204.043 1512.61,199.043 1515.5,194.5 Z"/></g>
<g><path style="opacity:1" fill="#ab4eac" d="M 1531.5,194.5 C 1534.84,195.618 1538.18,195.618 1541.5,194.5C 1543.48,194.437 1545.15,195.104 1546.5,196.5C 1547.49,201.792 1547.83,207.125 1547.5,212.5C 1545.83,212.5 1544.17,212.5 1542.5,212.5C 1542.5,207.833 1542.5,203.167 1542.5,198.5C 1540.53,198.261 1538.7,198.594 1537,199.5C 1536.5,203.821 1536.33,208.154 1536.5,212.5C 1534.83,212.5 1533.17,212.5 1531.5,212.5C 1531.5,206.5 1531.5,200.5 1531.5,194.5 Z"/></g>
<g><path style="opacity:1" fill="#ad4ead" d="M 1394.5,195.5 C 1396.17,195.5 1397.83,195.5 1399.5,195.5C 1399.5,201.167 1399.5,206.833 1399.5,212.5C 1397.83,212.5 1396.17,212.5 1394.5,212.5C 1394.5,206.833 1394.5,201.167 1394.5,195.5 Z"/></g>
<g><path style="opacity:1" fill="#ff832b" d="M 793.5,196.5 C 796.5,196.5 799.5,196.5 802.5,196.5C 802.5,197.833 802.5,199.167 802.5,200.5C 799.5,200.5 796.5,200.5 793.5,200.5C 793.5,199.167 793.5,197.833 793.5,196.5 Z"/></g>
<g><path style="opacity:1" fill="#f378f1" d="M 1343.5,198.5 C 1348.99,198.504 1350.82,201.171 1349,206.5C 1347.4,209.925 1345.4,210.258 1343,207.5C 1342.26,204.408 1342.43,201.408 1343.5,198.5 Z"/></g>
<g><path style="opacity:1" fill="#ed4c53" d="M 341.5,244.5 C 343.167,244.5 344.833,244.5 346.5,244.5C 347.87,244.856 348.87,245.69 349.5,247C 348.876,249.085 347.876,250.918 346.5,252.5C 344.478,254.531 342.811,256.865 341.5,259.5C 339.171,261.841 337.171,264.508 335.5,267.5C 337.171,270.492 339.171,273.159 341.5,275.5C 342.811,278.135 344.478,280.469 346.5,282.5C 347.876,284.082 348.876,285.915 349.5,288C 348.87,289.31 347.87,290.144 346.5,290.5C 344.833,290.5 343.167,290.5 341.5,290.5C 333.493,290.334 325.493,290.5 317.5,291C 315.946,293.287 314.279,295.454 312.5,297.5C 310.738,298.262 309.738,299.596 309.5,301.5C 306.328,304.53 303.161,307.53 300,310.5C 296.839,307.53 293.672,304.53 290.5,301.5C 290.262,299.596 289.262,298.262 287.5,297.5C 286.206,295.093 284.539,292.926 282.5,291C 272.12,290.81 261.787,290.31 251.5,289.5C 250.432,287.813 250.599,286.146 252,284.5C 256.36,278.974 260.526,273.307 264.5,267.5C 259.704,260.737 255.037,253.903 250.5,247C 250.833,246.5 251.167,246 251.5,245.5C 261.787,244.69 272.12,244.19 282.5,244C 287.771,236.928 293.605,230.428 300,224.5C 306.395,230.428 312.229,236.928 317.5,244C 325.493,244.5 333.493,244.666 341.5,244.5 Z"/></g>
<g><path style="opacity:1" fill="#890015" d="M 329.5,266.5 C 329.833,264.5 330.167,262.5 330.5,260.5C 329.167,260.5 327.833,260.5 326.5,260.5C 326.326,262.861 325.993,265.194 325.5,267.5C 323.833,267.5 322.167,267.5 320.5,267.5C 320.5,265.167 320.5,262.833 320.5,260.5C 319.167,260.5 317.833,260.5 316.5,260.5C 315.994,266.188 315.328,271.855 314.5,277.5C 315.822,277.67 316.989,277.337 318,276.5C 318.495,274.527 318.662,272.527 318.5,270.5C 320.5,270.5 322.5,270.5 324.5,270.5C 324.5,272.833 324.5,275.167 324.5,277.5C 325.5,277.5 326.5,277.5 327.5,277.5C 327.549,273.922 328.215,270.589 329.5,267.5C 333.235,273.284 337.235,278.95 341.5,284.5C 332.852,285.332 324.186,285.832 315.5,286C 309.957,291.874 304.79,298.041 300,304.5C 295.21,298.041 290.043,291.874 284.5,286C 275.814,285.832 267.148,285.332 258.5,284.5C 262.759,278.969 266.759,273.302 270.5,267.5C 266.759,261.698 262.759,256.031 258.5,250.5C 267.148,249.668 275.814,249.168 284.5,249C 290.043,243.126 295.21,236.959 300,230.5C 304.79,236.959 309.957,243.126 315.5,249C 324.186,249.168 332.852,249.668 341.5,250.5C 337.479,255.901 333.479,261.235 329.5,266.5 Z"/></g>
<g><path style="opacity:1" fill="#3f47cc" d="M 346.5,252.5 C 346.5,262.5 346.5,272.5 346.5,282.5C 344.478,280.469 342.811,278.135 341.5,275.5C 341.5,270.167 341.5,264.833 341.5,259.5C 342.811,256.865 344.478,254.531 346.5,252.5 Z"/></g>
<g><path style="opacity:1" fill="#fefffe" d="M 341.5,259.5 C 341.5,264.833 341.5,270.167 341.5,275.5C 339.171,273.159 337.171,270.492 335.5,267.5C 337.171,264.508 339.171,261.841 341.5,259.5 Z"/></g>
<g><path style="opacity:1" fill="#d21420" d="M 273.5,260.5 C 277.257,260.071 280.757,260.737 284,262.5C 284.38,268.95 281.214,271.95 274.5,271.5C 275.401,275.241 274.068,277.241 270.5,277.5C 271.03,271.721 272.03,266.054 273.5,260.5 Z"/></g>
<g><path style="opacity:1" fill="#dd1721" d="M 287.5,260.5 C 288.5,260.5 289.5,260.5 290.5,260.5C 290.002,265.152 289.669,269.819 289.5,274.5C 291.262,274.643 292.929,274.309 294.5,273.5C 295.932,269.987 296.765,266.32 297,262.5C 297.71,261.027 298.876,260.36 300.5,260.5C 300.376,265.289 299.542,269.955 298,274.5C 294.193,277.952 290.193,278.285 286,275.5C 285.43,270.393 285.93,265.393 287.5,260.5 Z"/></g>
<g><path style="opacity:1" fill="#dd1721" d="M 329.5,266.5 C 329.5,266.833 329.5,267.167 329.5,267.5C 328.215,270.589 327.549,273.922 327.5,277.5C 326.5,277.5 325.5,277.5 324.5,277.5C 324.5,275.167 324.5,272.833 324.5,270.5C 322.5,270.5 320.5,270.5 318.5,270.5C 318.662,272.527 318.495,274.527 318,276.5C 316.989,277.337 315.822,277.67 314.5,277.5C 315.328,271.855 315.994,266.188 316.5,260.5C 317.833,260.5 319.167,260.5 320.5,260.5C 320.5,262.833 320.5,265.167 320.5,267.5C 322.167,267.5 323.833,267.5 325.5,267.5C 325.993,265.194 326.326,262.861 326.5,260.5C 327.833,260.5 329.167,260.5 330.5,260.5C 330.167,262.5 329.833,264.5 329.5,266.5 Z"/></g>
<g><path style="opacity:1" fill="#dd1721" d="M 306.5,260.5 C 308.527,260.338 310.527,260.505 312.5,261C 312.957,261.414 313.291,261.914 313.5,262.5C 311.604,263.466 309.604,263.799 307.5,263.5C 307.351,264.552 307.517,265.552 308,266.5C 313.739,269.829 313.906,273.329 308.5,277C 306.19,277.497 303.857,277.663 301.5,277.5C 301.238,276.022 301.571,274.689 302.5,273.5C 304.409,274.348 306.409,274.682 308.5,274.5C 307.123,271.26 305.456,268.094 303.5,265C 303.557,262.791 304.557,261.291 306.5,260.5 Z"/></g>
<g><path style="opacity:1" fill="#030103" d="M 1273.5,301.5 C 1274.5,291.219 1274.84,279.553 1274.5,266.5C 1343.17,266.5 1411.83,266.5 1480.5,266.5C 1480.33,278.838 1480.5,291.171 1481,303.5C 1483.74,302.718 1486.57,302.218 1489.5,302C 1525.55,301.143 1561.55,301.476 1597.5,303C 1595.14,300.395 1592.64,297.895 1590,295.5C 1589.52,294.552 1589.35,293.552 1589.5,292.5C 1590.93,292.421 1592.26,292.754 1593.5,293.5C 1596.49,295.662 1598.99,298.328 1601,301.5C 1601.5,289.171 1601.67,276.838 1601.5,264.5C 1672.83,264.5 1744.17,264.5 1815.5,264.5C 1815.5,291.167 1815.5,317.833 1815.5,344.5C 1772.5,344.5 1729.5,344.5 1686.5,344.5C 1686.12,342.302 1686.79,340.635 1688.5,339.5C 1729.17,339.5 1769.83,339.5 1810.5,339.5C 1810.5,316.167 1810.5,292.833 1810.5,269.5C 1742.5,269.5 1674.5,269.5 1606.5,269.5C 1606.5,292.833 1606.5,316.167 1606.5,339.5C 1631.83,339.5 1657.17,339.5 1682.5,339.5C 1682.78,341.415 1682.45,343.081 1681.5,344.5C 1654.83,344.5 1628.17,344.5 1601.5,344.5C 1601.67,333.162 1601.5,321.828 1601,310.5C 1597.5,312.667 1594.67,315.5 1592.5,319C 1590.68,319.783 1589.35,319.283 1588.5,317.5C 1591.37,314.129 1594.37,310.963 1597.5,308C 1591.22,306.908 1584.88,306.242 1578.5,306C 1549.17,305.333 1519.83,305.333 1490.5,306C 1487.44,306.256 1484.44,306.756 1481.5,307.5C 1480.5,319.815 1480.17,332.149 1480.5,344.5C 1464.17,344.5 1447.83,344.5 1431.5,344.5C 1431.5,342.5 1431.5,340.5 1431.5,338.5C 1445.83,338.5 1460.17,338.5 1474.5,338.5C 1475.5,316.34 1475.83,294.006 1475.5,271.5C 1410,271.168 1344.66,271.501 1279.5,272.5C 1279.5,294.5 1279.5,316.5 1279.5,338.5C 1328.83,338.5 1378.17,338.5 1427.5,338.5C 1427.5,340.5 1427.5,342.5 1427.5,344.5C 1376.17,344.5 1324.83,344.5 1273.5,344.5C 1273.83,332.149 1273.5,319.815 1272.5,307.5C 1269.25,309.33 1266.42,311.663 1264,314.5C 1262.72,314.387 1261.89,313.72 1261.5,312.5C 1263.32,310.183 1265.32,308.016 1267.5,306C 1239.15,302.813 1210.81,302.98 1182.5,306.5C 1182.5,318.167 1182.5,329.833 1182.5,341.5C 1120.17,341.5 1057.83,341.5 995.5,341.5C 995.667,329.495 995.5,317.495 995,305.5C 993.227,308.418 991.727,311.418 990.5,314.5C 989.448,314.649 988.448,314.483 987.5,314C 986.445,310.742 987.445,308.076 990.5,306C 980.506,305.5 970.506,305.334 960.5,305.5C 958.833,305.5 957.167,305.5 955.5,305.5C 945.801,305.725 936.134,305.392 926.5,304.5C 924.833,304.5 923.167,304.5 921.5,304.5C 908.495,305.084 895.495,305.751 882.5,306.5C 882.5,317.167 882.5,327.833 882.5,338.5C 818.5,338.5 754.5,338.5 690.5,338.5C 690.832,328.478 690.499,318.478 689.5,308.5C 685.729,311.143 682.229,314.143 679,317.5C 677.054,317.237 676.388,316.237 677,314.5C 679.5,312 682,309.5 684.5,307C 676.151,306.248 667.818,305.415 659.5,304.5C 657.784,304.371 656.117,304.038 654.5,303.5C 643.833,303.5 633.167,303.5 622.5,303.5C 620.833,303.5 619.167,303.5 617.5,303.5C 603.833,303.5 590.167,303.5 576.5,303.5C 576.5,314.5 576.5,325.5 576.5,336.5C 511.5,336.5 446.5,336.5 381.5,336.5C 381.667,325.828 381.5,315.161 381,304.5C 379.075,305.88 377.241,307.38 375.5,309C 368.471,311.347 361.804,314.514 355.5,318.5C 354,318.547 353,317.881 352.5,316.5C 357.716,312.056 363.716,308.89 370.5,307C 373.034,305.151 375.7,303.485 378.5,302C 367.813,301.709 357.146,301.209 346.5,300.5C 344.833,300.5 343.167,300.5 341.5,300.5C 330.841,301.043 320.175,301.377 309.5,301.5C 309.738,299.596 310.738,298.262 312.5,297.5C 322.169,297.211 331.835,296.878 341.5,296.5C 343.167,296.5 344.833,296.5 346.5,296.5C 355.144,297.507 363.811,297.673 372.5,297C 368.983,293.486 365.149,290.319 361,287.5C 360.333,286.833 360.333,286.167 361,285.5C 363.369,283.092 365.869,283.092 368.5,285.5C 371.741,290.206 375.908,293.873 381,296.5C 381.5,286.839 381.666,277.172 381.5,267.5C 446.5,267.5 511.5,267.5 576.5,267.5C 576.5,278.167 576.5,288.833 576.5,299.5C 590.167,299.5 603.833,299.5 617.5,299.5C 619.167,299.5 620.833,299.5 622.5,299.5C 633.167,299.5 643.833,299.5 654.5,299.5C 656.216,299.629 657.883,299.962 659.5,300.5C 667.145,301.582 674.811,302.082 682.5,302C 680.627,299.791 678.46,297.958 676,296.5C 675.51,295.207 675.343,293.873 675.5,292.5C 676.552,292.351 677.552,292.517 678.5,293C 682.345,296.345 686.011,299.845 689.5,303.5C 690.499,291.518 690.832,279.518 690.5,267.5C 754.5,267.5 818.5,267.5 882.5,267.5C 882.5,279.167 882.5,290.833 882.5,302.5C 895.5,301.833 908.5,301.167 921.5,300.5C 923.167,300.5 924.833,300.5 926.5,300.5C 936.134,301.392 945.801,301.725 955.5,301.5C 957.167,301.5 958.833,301.5 960.5,301.5C 971.172,301.667 981.839,301.5 992.5,301C 989.833,298.333 987.167,295.667 984.5,293C 985.333,292.167 986.167,291.333 987,290.5C 989.65,293.081 992.316,295.748 995,298.5C 995.5,287.172 995.667,275.838 995.5,264.5C 1057.83,264.5 1120.17,264.5 1182.5,264.5C 1182.17,277.184 1182.5,289.851 1183.5,302.5C 1210.79,299.304 1238.12,298.804 1265.5,301C 1262.46,299.969 1259.96,298.135 1258,295.5C 1257.39,293.763 1258.05,292.763 1260,292.5C 1264.8,295.142 1269.3,298.142 1273.5,301.5 Z"/></g>
<g><path style="opacity:1" fill="#8e468d" d="M 1480.5,266.5 C 1411.83,266.5 1343.17,266.5 1274.5,266.5C 1274.84,279.553 1274.5,291.219 1273.5,301.5C 1273.5,289.5 1273.5,277.5 1273.5,265.5C 1342.67,265.167 1411.67,265.501 1480.5,266.5 Z"/></g>
<g><path style="opacity:1" fill="#000000" d="M 287.5,297.5 C 289.262,298.262 290.262,299.596 290.5,301.5C 272.138,301.578 253.805,302.244 235.5,303.5C 235.5,314.833 235.5,326.167 235.5,337.5C 167.5,337.5 99.5,337.5 31.5,337.5C 31.5,314.167 31.5,290.833 31.5,267.5C 99.5,267.5 167.5,267.5 235.5,267.5C 235.5,278.167 235.5,288.833 235.5,299.5C 252.808,298.318 270.141,297.651 287.5,297.5 Z"/></g>
<g><path style="opacity:1" fill="#fcfcfc" d="M 1000.5,269.5 C 1059.5,269.5 1118.5,269.5 1177.5,269.5C 1177.5,291.833 1177.5,314.167 1177.5,336.5C 1118.5,336.5 1059.5,336.5 1000.5,336.5C 1000.5,314.167 1000.5,291.833 1000.5,269.5 Z"/></g>
<g><path style="opacity:1" fill="#9a4c99" d="M 1688.5,339.5 C 1688.5,338.833 1688.83,338.5 1689.5,338.5C 1729.5,338.5 1769.5,338.5 1809.5,338.5C 1809.5,315.833 1809.5,293.167 1809.5,270.5C 1742.17,270.5 1674.83,270.5 1607.5,270.5C 1607.5,293.167 1607.5,315.833 1607.5,338.5C 1632.83,338.5 1658.17,338.5 1683.5,338.5C 1683.5,339.167 1683.17,339.5 1682.5,339.5C 1657.17,339.5 1631.83,339.5 1606.5,339.5C 1606.5,316.167 1606.5,292.833 1606.5,269.5C 1674.5,269.5 1742.5,269.5 1810.5,269.5C 1810.5,292.833 1810.5,316.167 1810.5,339.5C 1769.83,339.5 1729.17,339.5 1688.5,339.5 Z"/></g>
<g><path style="opacity:1" fill="#fdfdfd" d="M 1689.5,338.5 C 1689.5,337.167 1689.5,335.833 1689.5,334.5C 1686.68,334.657 1684.68,335.991 1683.5,338.5C 1658.17,338.5 1632.83,338.5 1607.5,338.5C 1607.5,315.833 1607.5,293.167 1607.5,270.5C 1674.83,270.5 1742.17,270.5 1809.5,270.5C 1809.5,293.167 1809.5,315.833 1809.5,338.5C 1769.5,338.5 1729.5,338.5 1689.5,338.5 Z"/></g>
<g><path style="opacity:1" fill="#fdfdfd" d="M 36.5,272.5 C 101.167,272.5 165.833,272.5 230.5,272.5C 230.5,292.5 230.5,312.5 230.5,332.5C 165.833,332.5 101.167,332.5 36.5,332.5C 36.5,312.5 36.5,292.5 36.5,272.5 Z"/></g>
<g><path style="opacity:1" fill="#fcfcfc" d="M 386.5,272.5 C 448.167,272.5 509.833,272.5 571.5,272.5C 570.167,292.167 570.167,311.833 571.5,331.5C 509.833,331.5 448.167,331.5 386.5,331.5C 386.5,311.833 386.5,292.167 386.5,272.5 Z"/></g>
<g><path style="opacity:1" fill="#fcfcfc" d="M 695.5,272.5 C 756.167,272.5 816.833,272.5 877.5,272.5C 876.846,292.972 876.846,313.305 877.5,333.5C 816.833,333.5 756.167,333.5 695.5,333.5C 695.5,313.167 695.5,292.833 695.5,272.5 Z"/></g>
<g><path style="opacity:1" fill="#fefefe" d="M 1279.5,272.5 C 1344.5,272.5 1409.5,272.5 1474.5,272.5C 1474.5,294.5 1474.5,316.5 1474.5,338.5C 1460.17,338.5 1445.83,338.5 1431.5,338.5C 1431.03,335.703 1429.37,334.369 1426.5,334.5C 1426.43,335.959 1426.77,337.292 1427.5,338.5C 1378.17,338.5 1328.83,338.5 1279.5,338.5C 1279.5,316.5 1279.5,294.5 1279.5,272.5 Z"/></g>
<g><path style="opacity:1" fill="#944993" d="M 1279.5,272.5 C 1344.66,271.501 1410,271.168 1475.5,271.5C 1475.83,294.006 1475.5,316.34 1474.5,338.5C 1474.5,316.5 1474.5,294.5 1474.5,272.5C 1409.5,272.5 1344.5,272.5 1279.5,272.5 Z"/></g>
<g><path style="opacity:1" fill="#fefefe" d="M 341.5,290.5 C 341.5,292.5 341.5,294.5 341.5,296.5C 331.835,296.878 322.169,297.211 312.5,297.5C 314.279,295.454 315.946,293.287 317.5,291C 325.493,290.5 333.493,290.334 341.5,290.5 Z"/></g>
<g><path style="opacity:1" fill="#3f47cc" d="M 341.5,290.5 C 343.167,290.5 344.833,290.5 346.5,290.5C 346.5,292.5 346.5,294.5 346.5,296.5C 344.833,296.5 343.167,296.5 341.5,296.5C 341.5,294.5 341.5,292.5 341.5,290.5 Z"/></g>
<g><path style="opacity:1" fill="#1b1b1b" d="M 419.5,293.5 C 423.257,293.071 426.757,293.737 430,295.5C 430.839,298.14 430.339,300.473 428.5,302.5C 429.305,304.915 430.305,307.249 431.5,309.5C 430.635,310.583 429.635,310.749 428.5,310C 427.671,308.184 426.837,306.351 426,304.5C 424.989,303.663 423.822,303.33 422.5,303.5C 422.5,305.833 422.5,308.167 422.5,310.5C 421.5,310.5 420.5,310.5 419.5,310.5C 419.5,304.833 419.5,299.167 419.5,293.5 Z"/></g>
<g><path style="opacity:1" fill="#424242" d="M 153.5,295.5 C 154.833,295.5 156.167,295.5 157.5,295.5C 157.5,296.5 157.5,297.5 157.5,298.5C 156.167,298.5 154.833,298.5 153.5,298.5C 153.5,297.5 153.5,296.5 153.5,295.5 Z"/></g>
<g><path style="opacity:1" fill="#2e2e2e" d="M 486.5,293.5 C 487.5,293.5 488.5,293.5 489.5,293.5C 489.5,294.5 489.5,295.5 489.5,296.5C 488.5,296.5 487.5,296.5 486.5,296.5C 486.5,295.5 486.5,294.5 486.5,293.5 Z"/></g>
<g><path style="opacity:1" fill="#1b1b1b" d="M 809.5,294.5 C 810.5,294.5 811.5,294.5 812.5,294.5C 812.666,299.511 812.499,304.511 812,309.5C 810.186,310.76 808.353,310.76 806.5,309.5C 807.325,308.614 808.325,308.281 809.5,308.5C 809.5,303.833 809.5,299.167 809.5,294.5 Z"/></g>
<g><path style="opacity:1" fill="#232323" d="M 816.5,294.5 C 821.849,293.461 826.349,294.795 830,298.5C 831.154,308.504 826.654,312.504 816.5,310.5C 816.5,305.167 816.5,299.833 816.5,294.5 Z"/></g>
<g><path style="opacity:1" fill="#1c1c1c" d="M 1105.5,294.5 C 1106.5,294.5 1107.5,294.5 1108.5,294.5C 1108.5,295.5 1108.5,296.5 1108.5,297.5C 1107.5,297.5 1106.5,297.5 1105.5,297.5C 1105.5,296.5 1105.5,295.5 1105.5,294.5 Z"/></g>
<g><path style="opacity:1" fill="#191919" d="M 1112.5,293.5 C 1113.5,293.5 1114.5,293.5 1115.5,293.5C 1115.5,299.167 1115.5,304.833 1115.5,310.5C 1114.5,310.5 1113.5,310.5 1112.5,310.5C 1112.5,304.833 1112.5,299.167 1112.5,293.5 Z"/></g>
<g><path style="opacity:1" fill="#d8d8d8" d="M 422.5,295.5 C 426.676,294.831 428.009,296.331 426.5,300C 425.207,300.49 423.873,300.657 422.5,300.5C 422.5,298.833 422.5,297.167 422.5,295.5 Z"/></g>
<g><path style="opacity:1" fill="#1e1e1e" d="M 493.5,295.5 C 494.5,295.5 495.5,295.5 496.5,295.5C 496.5,296.5 496.5,297.5 496.5,298.5C 500.5,299.167 500.5,299.833 496.5,300.5C 496.5,302.833 496.5,305.167 496.5,307.5C 497.5,307.5 498.5,307.5 499.5,307.5C 499.5,308.5 499.5,309.5 499.5,310.5C 497.533,310.739 495.699,310.406 494,309.5C 493.963,305.911 493.13,302.578 491.5,299.5C 492.853,298.476 493.52,297.143 493.5,295.5 Z"/></g>
<g><path style="opacity:1" fill="#1e1e1e" d="M 733.5,294.5 C 735.924,294.192 738.257,294.526 740.5,295.5C 738.955,296.452 737.288,296.785 735.5,296.5C 735.238,297.978 735.571,299.311 736.5,300.5C 740.81,301.633 742.31,304.3 741,308.5C 737.683,311.045 734.516,311.045 731.5,308.5C 733.655,308.162 735.989,308.162 738.5,308.5C 738.762,307.022 738.429,305.689 737.5,304.5C 731.677,302.739 730.343,299.406 733.5,294.5 Z"/></g>
<g><path style="opacity:1" fill="#212121" d="M 758.5,295.5 C 759.5,295.5 760.5,295.5 761.5,295.5C 761.5,296.833 761.5,298.167 761.5,299.5C 765.5,300.167 765.5,300.833 761.5,301.5C 761.5,303.833 761.5,306.167 761.5,308.5C 764.988,308.899 765.154,309.566 762,310.5C 760.893,310.415 759.893,310.081 759,309.5C 758.866,306.128 758.032,302.961 756.5,300C 757.707,298.7 758.374,297.2 758.5,295.5 Z"/></g>
<g><path style="opacity:1" fill="#ebebeb" d="M 820.5,296.5 C 828.103,297.956 829.436,301.789 824.5,308C 823.207,308.49 821.873,308.657 820.5,308.5C 820.5,304.5 820.5,300.5 820.5,296.5 Z"/></g>
<g><path style="opacity:1" fill="#161616" d="M 1667.5,296.5 C 1671.26,296.071 1674.76,296.737 1678,298.5C 1679.37,304.632 1676.87,307.632 1670.5,307.5C 1670.5,309.5 1670.5,311.5 1670.5,313.5C 1669.5,313.5 1668.5,313.5 1667.5,313.5C 1667.5,307.833 1667.5,302.167 1667.5,296.5 Z"/></g>
<g><path style="opacity:1" fill="#1b1b1b" d="M 160.5,297.5 C 161.5,297.5 162.5,297.5 163.5,297.5C 163.5,298.5 163.5,299.5 163.5,300.5C 167.5,301.167 167.5,301.833 163.5,302.5C 162.772,306.219 163.772,309.219 166.5,311.5C 164.389,312.848 162.555,312.515 161,310.5C 160.064,306.089 159.898,301.755 160.5,297.5 Z"/></g>
<g><path style="opacity:1" fill="#1c1c1c" d="M 1044.5,294.5 C 1047.48,294.104 1050.15,294.771 1052.5,296.5C 1045.21,295.664 1042.71,298.997 1045,306.5C 1046.86,308.673 1049.03,309.007 1051.5,307.5C 1052.71,308.274 1052.71,309.107 1051.5,310C 1043.36,311.191 1039.86,307.691 1041,299.5C 1042,297.677 1043.16,296.01 1044.5,294.5 Z"/></g>
<g><path style="opacity:1" fill="#282828" d="M 85.5,295.5 C 87.5273,295.338 89.5273,295.505 91.5,296C 93.158,296.725 93.658,297.892 93,299.5C 87.9321,297.116 85.4321,298.616 85.5,304C 85.1941,309.329 87.5274,310.829 92.5,308.5C 93.731,309.651 93.731,310.817 92.5,312C 83.3934,312.879 79.8934,308.712 82,299.5C 83.3756,298.295 84.5423,296.962 85.5,295.5 Z"/></g>
<g><path style="opacity:1" fill="#131313" d="M 516.5,298.5 C 518.785,299.546 521.118,299.546 523.5,298.5C 523.5,299.5 523.5,300.5 523.5,301.5C 522.178,301.33 521.011,301.663 520,302.5C 519.503,305.146 519.336,307.813 519.5,310.5C 518.5,310.5 517.5,310.5 516.5,310.5C 516.5,306.5 516.5,302.5 516.5,298.5 Z"/></g>
<g><path style="opacity:1" fill="#cacaca" d="M 1670.5,298.5 C 1675.33,298.385 1676.66,300.552 1674.5,305C 1673.21,305.49 1671.87,305.657 1670.5,305.5C 1670.5,303.167 1670.5,300.833 1670.5,298.5 Z"/></g>
<g><path style="opacity:1" fill="#3f47cc" d="M 341.5,300.5 C 343.167,300.5 344.833,300.5 346.5,300.5C 346.5,357.5 346.5,414.5 346.5,471.5C 436.833,471.5 527.167,471.5 617.5,471.5C 617.5,415.5 617.5,359.5 617.5,303.5C 619.167,303.5 620.833,303.5 622.5,303.5C 622.5,361.167 622.5,418.833 622.5,476.5C 528.833,476.5 435.167,476.5 341.5,476.5C 341.5,417.833 341.5,359.167 341.5,300.5 Z"/></g>
<g><path style="opacity:1" fill="#6d7dcb" d="M 346.5,300.5 C 357.146,301.209 367.813,301.709 378.5,302C 375.7,303.485 373.034,305.151 370.5,307C 363.716,308.89 357.716,312.056 352.5,316.5C 353,317.881 354,318.547 355.5,318.5C 361.804,314.514 368.471,311.347 375.5,309C 377.241,307.38 379.075,305.88 381,304.5C 381.5,315.161 381.667,325.828 381.5,336.5C 446.5,336.5 511.5,336.5 576.5,336.5C 576.5,325.5 576.5,314.5 576.5,303.5C 590.167,303.5 603.833,303.5 617.5,303.5C 617.5,359.5 617.5,415.5 617.5,471.5C 527.167,471.5 436.833,471.5 346.5,471.5C 346.5,414.5 346.5,357.5 346.5,300.5 Z"/></g>
<g><path style="opacity:1" fill="#1f1f1f" d="M 435.5,298.5 C 440.749,297.445 443.749,299.445 444.5,304.5C 441.833,304.5 439.167,304.5 436.5,304.5C 436.5,305.5 436.5,306.5 436.5,307.5C 438.924,307.192 441.257,307.526 443.5,308.5C 435.19,312.369 432.023,309.702 434,300.5C 434.717,299.956 435.217,299.289 435.5,298.5 Z"/></g>
<g><path style="opacity:1" fill="#a5a5a5" d="M 436.5,300.5 C 438.429,300.231 440.095,300.731 441.5,302C 440.667,302.167 439.833,302.333 439,302.5C 437.624,302.316 436.791,301.649 436.5,300.5 Z"/></g>
<g><path style="opacity:1" fill="#252525" d="M 446.5,298.5 C 449.009,299.675 451.509,299.675 454,298.5C 458.206,299.528 459.539,302.195 458,306.5C 456.741,310.223 454.408,311.223 451,309.5C 450.505,311.473 450.338,313.473 450.5,315.5C 449.178,315.67 448.011,315.337 447,314.5C 446.501,309.177 446.334,303.844 446.5,298.5 Z"/></g>
<g><path style="opacity:1" fill="#1e1e1e" d="M 463.5,298.5 C 472.556,297.904 474.889,301.571 470.5,309.5C 462.527,311.692 459.694,308.692 462,300.5C 462.717,299.956 463.217,299.289 463.5,298.5 Z"/></g>
<g><path style="opacity:1" fill="#1a1a1a" d="M 486.5,298.5 C 487.5,298.5 488.5,298.5 489.5,298.5C 489.5,302.5 489.5,306.5 489.5,310.5C 488.5,310.5 487.5,310.5 486.5,310.5C 486.5,306.5 486.5,302.5 486.5,298.5 Z"/></g>
<g><path style="opacity:1" fill="#1c1c1c" d="M 833.5,294.5 C 834.5,294.5 835.5,294.5 836.5,294.5C 836.201,296.604 836.534,298.604 837.5,300.5C 839.027,298.807 840.36,296.973 841.5,295C 842.635,294.251 843.635,294.417 844.5,295.5C 843.349,297.809 842.016,299.976 840.5,302C 842.285,304.397 843.951,306.897 845.5,309.5C 844.167,310.833 842.833,310.833 841.5,309.5C 837.476,301.421 835.81,301.754 836.5,310.5C 835.5,310.5 834.5,310.5 833.5,310.5C 833.5,305.167 833.5,299.833 833.5,294.5 Z"/></g>
<g><path style="opacity:1" fill="#1e1e1e" d="M 1069.5,298.5 C 1075.16,299.894 1080.83,300.394 1086.5,300C 1087.46,303.394 1087.79,306.894 1087.5,310.5C 1086.5,310.5 1085.5,310.5 1084.5,310.5C 1084.5,307.5 1084.5,304.5 1084.5,301.5C 1083.18,301.33 1082.01,301.663 1081,302.5C 1080.5,305.482 1080.34,308.482 1080.5,311.5C 1079.5,311.5 1078.5,311.5 1077.5,311.5C 1077.66,308.482 1077.5,305.482 1077,302.5C 1075.67,301.167 1074.33,301.167 1073,302.5C 1072.5,305.146 1072.34,307.813 1072.5,310.5C 1071.5,310.5 1070.5,310.5 1069.5,310.5C 1069.5,306.5 1069.5,302.5 1069.5,298.5 Z"/></g>
<g><path style="opacity:1" fill="#171717" d="M 1091.5,299.5 C 1095.01,299.764 1098.51,300.098 1102,300.5C 1104.5,307.814 1102,311.147 1094.5,310.5C 1094.5,312.167 1094.5,313.833 1094.5,315.5C 1093.5,315.5 1092.5,315.5 1091.5,315.5C 1091.5,310.167 1091.5,304.833 1091.5,299.5 Z"/></g>
<g><path style="opacity:1" fill="#121212" d="M 1105.5,299.5 C 1106.5,299.5 1107.5,299.5 1108.5,299.5C 1108.5,303.167 1108.5,306.833 1108.5,310.5C 1107.5,310.5 1106.5,310.5 1105.5,310.5C 1105.5,306.833 1105.5,303.167 1105.5,299.5 Z"/></g>
<g><path style="opacity:1" fill="#232323" d="M 1120.5,299.5 C 1122.86,299.337 1125.19,299.503 1127.5,300C 1129.16,301.444 1129.82,303.278 1129.5,305.5C 1119.24,305.447 1118.9,306.78 1128.5,309.5C 1118.78,311.78 1116.11,308.447 1120.5,299.5 Z"/></g>
<g><path style="opacity:1" fill="#1a1a1a" d="M 1359.5,316.5 C 1359.5,311.5 1359.5,306.5 1359.5,301.5C 1357.83,301.5 1356.17,301.5 1354.5,301.5C 1356.22,300.2 1358.39,299.533 1361,299.5C 1363.17,299.833 1365.33,300.167 1367.5,300.5C 1365.95,301.452 1364.29,301.785 1362.5,301.5C 1362.5,306.5 1362.5,311.5 1362.5,316.5C 1361.5,316.5 1360.5,316.5 1359.5,316.5 Z"/></g>
<g><path style="opacity:1" fill="#161616" d="M 121.5,304.5 C 120.835,306.698 120.168,309.031 119.5,311.5C 118.832,308.694 118.166,306.028 117.5,303.5C 116.458,302.209 115.292,302.209 114,303.5C 113.502,306.482 113.335,309.482 113.5,312.5C 112.5,312.5 111.5,312.5 110.5,312.5C 110.176,308.445 110.509,304.445 111.5,300.5C 116.469,300.82 121.469,300.987 126.5,301C 127,301.5 127.5,302 128,302.5C 128.498,305.817 128.665,309.15 128.5,312.5C 127.5,312.5 126.5,312.5 125.5,312.5C 125.665,309.482 125.498,306.482 125,303.5C 123.421,302.2 122.255,302.534 121.5,304.5 Z"/></g>
<g><path style="opacity:1" fill="#171717" d="M 143.5,303.5 C 142.834,306.028 142.168,308.694 141.5,311.5C 140.832,308.694 140.166,306.028 139.5,303.5C 138.458,302.209 137.292,302.209 136,303.5C 135.502,306.482 135.335,309.482 135.5,312.5C 134.5,312.5 133.5,312.5 132.5,312.5C 132.176,308.445 132.509,304.445 133.5,300.5C 138.465,300.855 143.465,301.021 148.5,301C 149,301.5 149.5,302 150,302.5C 150.498,305.817 150.665,309.15 150.5,312.5C 149.5,312.5 148.5,312.5 147.5,312.5C 147.665,309.482 147.498,306.482 147,303.5C 145.855,302.316 144.688,302.316 143.5,303.5 Z"/></g>
<g><path style="opacity:1" fill="#171717" d="M 153.5,300.5 C 154.5,300.5 155.5,300.5 156.5,300.5C 156.5,304.5 156.5,308.5 156.5,312.5C 155.5,312.5 154.5,312.5 153.5,312.5C 153.5,308.5 153.5,304.5 153.5,300.5 Z"/></g>
<g><path style="opacity:1" fill="#dadada" d="M 451.5,300.5 C 455.252,301.306 456.252,303.472 454.5,307C 453.207,307.49 451.873,307.657 450.5,307.5C 450.298,305.05 450.631,302.717 451.5,300.5 Z"/></g>
<g><path style="opacity:1" fill="#e6e6e6" d="M 465.5,300.5 C 466.822,300.33 467.989,300.663 469,301.5C 469.495,303.473 469.662,305.473 469.5,307.5C 467.833,307.5 466.167,307.5 464.5,307.5C 464.298,305.05 464.631,302.717 465.5,300.5 Z"/></g>
<g><path style="opacity:1" fill="#161616" d="M 787.5,299.5 C 789.626,300.705 791.793,300.705 794,299.5C 795.711,299.439 797.044,300.106 798,301.5C 800.003,308.327 797.503,311.327 790.5,310.5C 790.5,312.167 790.5,313.833 790.5,315.5C 789.5,315.5 788.5,315.5 787.5,315.5C 787.5,310.167 787.5,304.833 787.5,299.5 Z"/></g>
<g><path style="opacity:1" fill="#1d1d1d" d="M 97.5,300.5 C 107.055,299.195 109.722,302.695 105.5,311C 101.845,313.335 98.6786,312.835 96,309.5C 95.2119,306.228 95.7119,303.228 97.5,300.5 Z"/></g>
<g><path style="opacity:1" fill="#202020" d="M 746.5,299.5 C 748.857,299.337 751.19,299.503 753.5,300C 755.155,301.444 755.822,303.278 755.5,305.5C 745.235,305.447 744.902,306.78 754.5,309.5C 744.779,311.78 742.113,308.447 746.5,299.5 Z"/></g>
<g><path style="opacity:1" fill="#dedede" d="M 791.5,301.5 C 795.473,302.075 796.473,304.242 794.5,308C 793.216,308.684 792.049,308.517 791,307.5C 790.322,305.402 790.489,303.402 791.5,301.5 Z"/></g>
<g><path style="opacity:1" fill="#e0e0e0" d="M 1095.5,301.5 C 1099.47,302.075 1100.47,304.242 1098.5,308C 1097.22,308.684 1096.05,308.517 1095,307.5C 1094.32,305.402 1094.49,303.402 1095.5,301.5 Z"/></g>
<g><path style="opacity:1" fill="#949494" d="M 1354.5,301.5 C 1356.17,301.5 1357.83,301.5 1359.5,301.5C 1359.5,306.5 1359.5,311.5 1359.5,316.5C 1358.51,312.03 1358.18,307.363 1358.5,302.5C 1356.9,302.768 1355.57,302.434 1354.5,301.5 Z"/></g>
<g><path style="opacity:1" fill="#202020" d="M 1390.5,301.5 C 1391.83,301.5 1393.17,301.5 1394.5,301.5C 1394.48,303.143 1395.15,304.476 1396.5,305.5C 1393.83,308.833 1393.83,312.167 1396.5,315.5C 1394.99,316.747 1393.49,316.747 1392,315.5C 1391.96,311.911 1391.13,308.578 1389.5,305.5C 1390.25,304.264 1390.58,302.93 1390.5,301.5 Z"/></g>
<g><path style="opacity:1" fill="#212121" d="M 1695.5,301.5 C 1697.92,301.192 1700.26,301.526 1702.5,302.5C 1696.93,302.551 1695.27,305.051 1697.5,310C 1699.26,310.202 1700.92,310.702 1702.5,311.5C 1698.81,314.536 1695.98,313.87 1694,309.5C 1693.28,306.593 1693.78,303.926 1695.5,301.5 Z"/></g>
<g><path style="opacity:1" fill="#222222" d="M 1718.5,301.5 C 1721.69,301.02 1724.52,301.686 1727,303.5C 1727.5,306.817 1727.67,310.15 1727.5,313.5C 1724.4,313.33 1721.23,312.996 1718,312.5C 1717.33,310.833 1717.33,309.167 1718,307.5C 1720.15,306.887 1722.31,306.221 1724.5,305.5C 1723.1,303.209 1721.27,302.875 1719,304.5C 1717.32,303.824 1717.15,302.824 1718.5,301.5 Z"/></g>
<g><path style="opacity:1" fill="#dcdcdc" d="M 99.5,302.5 C 104.328,302.385 105.661,304.552 103.5,309C 101.888,309.72 100.388,309.554 99,308.5C 98.5099,306.455 98.6765,304.455 99.5,302.5 Z"/></g>
<g><path style="opacity:1" fill="#fe7f26" d="M 654.5,303.5 C 656.117,304.038 657.784,304.371 659.5,304.5C 659.5,360.833 659.5,417.167 659.5,473.5C 746.833,473.5 834.167,473.5 921.5,473.5C 921.5,417.167 921.5,360.833 921.5,304.5C 923.167,304.5 924.833,304.5 926.5,304.5C 926.5,362.5 926.5,420.5 926.5,478.5C 835.833,478.5 745.167,478.5 654.5,478.5C 654.5,420.167 654.5,361.833 654.5,303.5 Z"/></g>
<g><path style="opacity:1" fill="#181818" d="M 1690.5,303.5 C 1690.5,306.5 1690.5,309.5 1690.5,312.5C 1687.83,312.5 1685.17,312.5 1682.5,312.5C 1680.62,311.341 1680.12,309.674 1681,307.5C 1683.04,306.577 1685.21,306.244 1687.5,306.5C 1687.5,305.5 1687.5,304.5 1687.5,303.5C 1685.4,303.799 1683.4,303.466 1681.5,302.5C 1684.11,301.348 1686.77,301.182 1689.5,302C 1690.06,302.383 1690.39,302.883 1690.5,303.5 Z"/></g>
<g><path style="opacity:1" fill="#1f1f1f" d="M 1744.5,301.5 C 1746.86,301.337 1749.19,301.503 1751.5,302C 1753.16,303.444 1753.82,305.278 1753.5,307.5C 1750.75,307.187 1748.09,307.52 1745.5,308.5C 1745.71,309.086 1746.04,309.586 1746.5,310C 1748.47,310.495 1750.47,310.662 1752.5,310.5C 1752.5,311.5 1752.5,312.5 1752.5,313.5C 1743,314.006 1740.34,310.006 1744.5,301.5 Z"/></g>
<g><path style="opacity:1" fill="#fec96a" d="M 659.5,304.5 C 667.818,305.415 676.151,306.248 684.5,307C 682,309.5 679.5,312 677,314.5C 676.388,316.237 677.054,317.237 679,317.5C 682.229,314.143 685.729,311.143 689.5,308.5C 690.499,318.478 690.832,328.478 690.5,338.5C 754.5,338.5 818.5,338.5 882.5,338.5C 882.5,327.833 882.5,317.167 882.5,306.5C 895.495,305.751 908.495,305.084 921.5,304.5C 921.5,360.833 921.5,417.167 921.5,473.5C 834.167,473.5 746.833,473.5 659.5,473.5C 659.5,417.167 659.5,360.833 659.5,304.5 Z"/></g>
<g><path style="opacity:1" fill="#1c1c1c" d="M 1705.5,295.5 C 1706.5,295.5 1707.5,295.5 1708.5,295.5C 1708.33,298.85 1708.5,302.183 1709,305.5C 1709.96,304.421 1710.79,303.255 1711.5,302C 1712.64,301.251 1713.64,301.417 1714.5,302.5C 1713.39,303.611 1712.72,304.945 1712.5,306.5C 1713.46,308.477 1714.46,310.477 1715.5,312.5C 1714.5,313.833 1713.5,313.833 1712.5,312.5C 1709.24,305.565 1707.91,305.898 1708.5,313.5C 1707.5,313.5 1706.5,313.5 1705.5,313.5C 1705.5,307.5 1705.5,301.5 1705.5,295.5 Z"/></g>
<g><path style="opacity:1" fill="#a3a3a3" d="M 1746.5,303.5 C 1747.98,303.238 1749.31,303.571 1750.5,304.5C 1748.93,305.631 1747.26,305.798 1745.5,305C 1746.06,304.617 1746.39,304.117 1746.5,303.5 Z"/></g>
<g><path style="opacity:1" fill="#6f6f6f" d="M 117.5,303.5 C 118.166,306.028 118.832,308.694 119.5,311.5C 120.168,309.031 120.835,306.698 121.5,304.5C 121.5,307.167 121.5,309.833 121.5,312.5C 120.167,312.5 118.833,312.5 117.5,312.5C 117.5,309.5 117.5,306.5 117.5,303.5 Z"/></g>
<g><path style="opacity:1" fill="#7d7d7d" d="M 139.5,303.5 C 140.166,306.028 140.832,308.694 141.5,311.5C 142.168,308.694 142.834,306.028 143.5,303.5C 143.5,306.5 143.5,309.5 143.5,312.5C 142.167,312.5 140.833,312.5 139.5,312.5C 139.5,309.5 139.5,306.5 139.5,303.5 Z"/></g>
<g><path style="opacity:1" fill="#252525" d="M 476.5,298.5 C 478.5,298.5 480.5,298.5 482.5,298.5C 482.649,299.552 482.483,300.552 482,301.5C 480.989,300.663 479.822,300.33 478.5,300.5C 478.5,301.5 478.5,302.5 478.5,303.5C 482.332,303.19 483.832,304.857 483,308.5C 480.085,311.134 477.252,311.134 474.5,308.5C 476.167,307.833 477.833,307.167 479.5,306.5C 475.743,304.78 474.743,302.113 476.5,298.5 Z"/></g>
<g><path style="opacity:1" fill="#282828" d="M 1380.5,304.5 C 1382.92,304.192 1385.26,304.526 1387.5,305.5C 1385.83,306.167 1384.17,306.833 1382.5,307.5C 1384.22,308.92 1386.05,310.253 1388,311.5C 1388.36,314.872 1386.69,316.539 1383,316.5C 1381.34,316.612 1380.17,315.946 1379.5,314.5C 1381.17,313.833 1382.83,313.167 1384.5,312.5C 1379.95,311.311 1378.61,308.645 1380.5,304.5 Z"/></g>
<g><path style="opacity:1" fill="#1e1e1e" d="M 524.5,298.5 C 525.552,298.351 526.552,298.517 527.5,299C 528.542,300.918 529.708,302.751 531,304.5C 531.833,302.833 532.667,301.167 533.5,299.5C 534.5,298.167 535.5,298.167 536.5,299.5C 533.975,304.242 532.141,309.242 531,314.5C 529.817,315.731 528.651,315.731 527.5,314.5C 528.544,312.232 528.711,309.899 528,307.5C 526.336,304.673 525.17,301.673 524.5,298.5 Z"/></g>
<g><path style="opacity:1" fill="#202020" d="M 1368.5,304.5 C 1373.75,303.445 1376.75,305.445 1377.5,310.5C 1374.83,310.5 1372.17,310.5 1369.5,310.5C 1369.5,311.5 1369.5,312.5 1369.5,313.5C 1371.92,313.192 1374.26,313.526 1376.5,314.5C 1374.07,316.571 1371.4,316.904 1368.5,315.5C 1365.84,311.801 1365.84,308.134 1368.5,304.5 Z"/></g>
<g><path style="opacity:1" fill="#a4a4a4" d="M 1369.5,306.5 C 1371.43,306.231 1373.1,306.731 1374.5,308C 1373.67,308.167 1372.83,308.333 1372,308.5C 1370.62,308.316 1369.79,307.649 1369.5,306.5 Z"/></g>
<g><path style="opacity:1" fill="#1b1b1b" d="M 503.5,298.5 C 506.883,298.257 510.049,298.924 513,300.5C 514.526,308.474 511.359,311.474 503.5,309.5C 500.842,305.801 500.842,302.134 503.5,298.5 Z"/></g>
<g><path style="opacity:1" fill="#dcdcdc" d="M 505.5,300.5 C 509.976,300.8 511.31,302.967 509.5,307C 504.57,307.427 503.237,305.26 505.5,300.5 Z"/></g>
<g><path style="opacity:1" fill="#242424" d="M 780.5,298.5 C 781.833,298.5 783.167,298.5 784.5,298.5C 784.5,302.5 784.5,306.5 784.5,310.5C 781.242,309.932 777.909,309.766 774.5,310C 773.544,306.606 773.211,303.106 773.5,299.5C 774.5,299.5 775.5,299.5 776.5,299.5C 776.5,302.5 776.5,305.5 776.5,308.5C 777.822,308.67 778.989,308.337 780,307.5C 780.498,304.518 780.665,301.518 780.5,298.5 Z"/></g>
<g><path style="opacity:1" fill="#1b1b1b" d="M 1057.5,299.5 C 1066.49,298.665 1068.82,302.165 1064.5,310C 1056.33,312.5 1053.5,309.667 1056,301.5C 1056.72,300.956 1057.22,300.289 1057.5,299.5 Z"/></g>
<g><path style="opacity:1" fill="#ececec" d="M 1059.5,301.5 C 1063.47,302.075 1064.47,304.242 1062.5,308C 1061.22,308.684 1060.05,308.517 1059,307.5C 1058.32,305.402 1058.49,303.402 1059.5,301.5 Z"/></g>
<g><path style="opacity:1" fill="#c2c2c2" d="M 1683.5,308.5 C 1684.98,308.238 1686.31,308.571 1687.5,309.5C 1686.83,309.833 1686.17,310.167 1685.5,310.5C 1684.29,310.253 1683.62,309.586 1683.5,308.5 Z"/></g>
<g><path style="opacity:1" fill="#262626" d="M 1733.5,301.5 C 1736.25,301.187 1738.91,301.52 1741.5,302.5C 1740.59,306.907 1737.93,309.407 1733.5,310C 1736.93,310.036 1739.27,311.536 1740.5,314.5C 1740.18,315.647 1739.52,316.481 1738.5,317C 1735.57,317.777 1732.74,317.61 1730,316.5C 1730.31,311.893 1730.48,307.227 1730.5,302.5C 1731.79,302.737 1732.79,302.404 1733.5,301.5 Z"/></g>
<g><path style="opacity:1" fill="#cbcbcb" d="M 1733.5,303.5 C 1734.5,303.5 1735.5,303.5 1736.5,303.5C 1736.5,304.5 1736.5,305.5 1736.5,306.5C 1735.5,306.5 1734.5,306.5 1733.5,306.5C 1733.5,305.5 1733.5,304.5 1733.5,303.5 Z"/></g>
<g><path style="opacity:1" fill="#c5c5c5" d="M 1720.5,308.5 C 1721.98,308.238 1723.31,308.571 1724.5,309.5C 1723.83,309.833 1723.17,310.167 1722.5,310.5C 1721.29,310.253 1720.62,309.586 1720.5,308.5 Z"/></g>
<g><path style="opacity:1" fill="#808080" d="M 1690.5,303.5 C 1691.48,306.625 1691.81,309.958 1691.5,313.5C 1688.29,313.81 1685.29,313.477 1682.5,312.5C 1685.17,312.5 1687.83,312.5 1690.5,312.5C 1690.5,309.5 1690.5,306.5 1690.5,303.5 Z"/></g>
<g><path style="opacity:1" fill="#cecece" d="M 1732.5,313.5 C 1734.29,313.215 1735.95,313.548 1737.5,314.5C 1736.67,314.833 1735.83,315.167 1735,315.5C 1733.62,315.316 1732.79,314.649 1732.5,313.5 Z"/></g>
<g><path style="opacity:1" fill="#22b14b" d="M 1431.5,338.5 C 1431.5,340.5 1431.5,342.5 1431.5,344.5C 1431.67,347.85 1431.5,351.183 1431,354.5C 1430.18,363.657 1425.34,369.49 1416.5,372C 1419.77,373.063 1423.1,373.896 1426.5,374.5C 1427.39,375.325 1427.72,376.325 1427.5,377.5C 1421.15,377.265 1414.82,376.765 1408.5,376C 1407.06,374.874 1406.39,373.374 1406.5,371.5C 1407,368.5 1407.5,365.5 1408,362.5C 1408.72,358.061 1410.88,356.894 1414.5,359C 1412.01,362.813 1410.84,366.98 1411,371.5C 1415.03,368.319 1419.36,365.652 1424,363.5C 1426.6,357.436 1427.77,351.102 1427.5,344.5C 1427.5,342.5 1427.5,340.5 1427.5,338.5C 1426.77,337.292 1426.43,335.959 1426.5,334.5C 1429.37,334.369 1431.03,335.703 1431.5,338.5 Z"/></g>
<g><path style="opacity:1" fill="#3f47cc" d="M 1689.5,338.5 C 1688.83,338.5 1688.5,338.833 1688.5,339.5C 1686.79,340.635 1686.12,342.302 1686.5,344.5C 1685.73,345.263 1685.23,346.263 1685,347.5C 1683.53,359.826 1683.36,372.159 1684.5,384.5C 1686.24,381.415 1688.08,378.415 1690,375.5C 1691.16,375.998 1691.99,376.831 1692.5,378C 1690.78,383.022 1688.28,387.522 1685,391.5C 1683.35,390.283 1681.52,389.45 1679.5,389C 1674.32,388.946 1669.32,388.279 1664.5,387C 1665.17,386.333 1665.83,385.667 1666.5,385C 1670.82,384.501 1675.15,384.334 1679.5,384.5C 1679.24,370.91 1679.91,357.576 1681.5,344.5C 1682.45,343.081 1682.78,341.415 1682.5,339.5C 1683.17,339.5 1683.5,339.167 1683.5,338.5C 1684.68,335.991 1686.68,334.657 1689.5,334.5C 1689.5,335.833 1689.5,337.167 1689.5,338.5 Z"/></g>
<g><path style="opacity:1" fill="#5ea477" d="M 1353.5,397.5 C 1354.83,397.5 1356.17,397.5 1357.5,397.5C 1357.5,398.5 1357.5,399.5 1357.5,400.5C 1356.17,400.5 1354.83,400.5 1353.5,400.5C 1353.5,399.5 1353.5,398.5 1353.5,397.5 Z"/></g>
<g><path style="opacity:1" fill="#3bac5c" d="M 1315.5,397.5 C 1316.5,397.5 1317.5,397.5 1318.5,397.5C 1318.67,402.511 1318.5,407.511 1318,412.5C 1315.74,415.119 1313.58,415.119 1311.5,412.5C 1312.69,411.571 1314.02,411.238 1315.5,411.5C 1315.5,406.833 1315.5,402.167 1315.5,397.5 Z"/></g>
<g><path style="opacity:1" fill="#36ad58" d="M 1322.5,397.5 C 1323.5,397.5 1324.5,397.5 1325.5,397.5C 1325.33,401.514 1325.5,405.514 1326,409.5C 1327.67,411.698 1329.67,412.032 1332,410.5C 1332.5,406.179 1332.67,401.846 1332.5,397.5C 1333.5,397.5 1334.5,397.5 1335.5,397.5C 1335.67,402.179 1335.5,406.845 1335,411.5C 1330.92,415.41 1326.92,415.41 1323,411.5C 1322.5,406.845 1322.33,402.179 1322.5,397.5 Z"/></g>
<g><path style="opacity:1" fill="#4ca966" d="M 1361.5,399.5 C 1362.5,399.5 1363.5,399.5 1364.5,399.5C 1364.5,400.5 1364.5,401.5 1364.5,402.5C 1368.5,403.167 1368.5,403.833 1364.5,404.5C 1364.5,406.833 1364.5,409.167 1364.5,411.5C 1365.5,411.5 1366.5,411.5 1367.5,411.5C 1367.5,412.5 1367.5,413.5 1367.5,414.5C 1364.96,414.896 1362.79,414.229 1361,412.5C 1360.74,409.443 1360.24,406.443 1359.5,403.5C 1360.85,402.476 1361.52,401.143 1361.5,399.5 Z"/></g>
<g><path style="opacity:1" fill="#3fab5e" d="M 1376.5,399.5 C 1377.5,399.5 1378.5,399.5 1379.5,399.5C 1379.5,400.5 1379.5,401.5 1379.5,402.5C 1383.5,403.167 1383.5,403.833 1379.5,404.5C 1379.5,406.833 1379.5,409.167 1379.5,411.5C 1380.5,411.5 1381.5,411.5 1382.5,411.5C 1382.5,412.5 1382.5,413.5 1382.5,414.5C 1380.53,414.739 1378.7,414.406 1377,413.5C 1376.96,409.911 1376.13,406.578 1374.5,403.5C 1375.85,402.476 1376.52,401.143 1376.5,399.5 Z"/></g>
<g><path style="opacity:1" fill="#41ac5e" d="M 1414.5,402.5 C 1414.18,404.048 1413.18,404.715 1411.5,404.5C 1411.2,407.059 1411.53,409.393 1412.5,411.5C 1413.5,411.5 1414.5,411.5 1415.5,411.5C 1415.5,412.5 1415.5,413.5 1415.5,414.5C 1412.96,414.896 1410.79,414.229 1409,412.5C 1408.06,408.089 1407.9,403.755 1408.5,399.5C 1409.5,399.5 1410.5,399.5 1411.5,399.5C 1411.5,400.5 1411.5,401.5 1411.5,402.5C 1412.5,402.5 1413.5,402.5 1414.5,402.5 Z"/></g>
<g><path style="opacity:1" fill="#38ad5a" d="M 1339.5,402.5 C 1349.34,400.677 1353.01,404.677 1350.5,414.5C 1349.5,414.5 1348.5,414.5 1347.5,414.5C 1347.66,411.482 1347.5,408.482 1347,405.5C 1345.89,404.289 1344.72,404.289 1343.5,405.5C 1342.52,408.428 1342.18,411.428 1342.5,414.5C 1341.5,414.5 1340.5,414.5 1339.5,414.5C 1339.5,410.5 1339.5,406.5 1339.5,402.5 Z"/></g>
<g><path style="opacity:1" fill="#67a082" d="M 1354.5,402.5 C 1355.17,417.167 1355.83,417.167 1356.5,402.5C 1357.48,406.298 1357.82,410.298 1357.5,414.5C 1356.17,414.5 1354.83,414.5 1353.5,414.5C 1353.18,410.298 1353.52,406.298 1354.5,402.5 Z"/></g>
<g><path style="opacity:1" fill="#26b04e" d="M 1354.5,402.5 C 1355.17,402.5 1355.83,402.5 1356.5,402.5C 1355.83,417.167 1355.17,417.167 1354.5,402.5 Z"/></g>
<g><path style="opacity:1" fill="#5a4ed1" d="M 1752.5,402.5 C 1753.83,402.5 1755.17,402.5 1756.5,402.5C 1756.5,408.5 1756.5,414.5 1756.5,420.5C 1755.17,420.5 1753.83,420.5 1752.5,420.5C 1752.5,414.5 1752.5,408.5 1752.5,402.5 Z"/></g>
<g><path style="opacity:1" fill="#3dac5c" d="M 1386.5,402.5 C 1389.32,402.248 1391.99,402.748 1394.5,404C 1395.38,405.356 1395.71,406.856 1395.5,408.5C 1392.83,408.5 1390.17,408.5 1387.5,408.5C 1387.5,409.5 1387.5,410.5 1387.5,411.5C 1389.92,411.192 1392.26,411.526 1394.5,412.5C 1386.29,416.473 1383.12,413.806 1385,404.5C 1385.72,403.956 1386.22,403.289 1386.5,402.5 Z"/></g>
<g><path style="opacity:1" fill="#ba8fc3" d="M 1414.5,402.5 C 1415.61,402.557 1416.61,402.89 1417.5,403.5C 1417.5,404.833 1417.5,406.167 1417.5,407.5C 1416.22,406.032 1414.55,405.365 1412.5,405.5C 1412.5,407.5 1412.5,409.5 1412.5,411.5C 1411.53,409.393 1411.2,407.059 1411.5,404.5C 1413.18,404.715 1414.18,404.048 1414.5,402.5 Z"/></g>
<g><path style="opacity:1" fill="#5d4fd2" d="M 1690.5,403.5 C 1691.83,403.5 1693.17,403.5 1694.5,403.5C 1694.83,408.544 1694.49,413.544 1693.5,418.5C 1690.76,421.303 1688.43,421.136 1686.5,418C 1687.14,416.287 1688.14,416.121 1689.5,417.5C 1690.49,412.88 1690.83,408.214 1690.5,403.5 Z"/></g>
<g><path style="opacity:1" fill="#6852d5" d="M 1700.5,403.5 C 1702.29,403.215 1703.95,403.548 1705.5,404.5C 1708.33,409.491 1710,414.825 1710.5,420.5C 1709.17,420.5 1707.83,420.5 1706.5,420.5C 1706.5,419.167 1706.5,417.833 1706.5,416.5C 1704.17,416.5 1701.83,416.5 1699.5,416.5C 1699.83,419.5 1698.5,420.833 1695.5,420.5C 1696.7,414.704 1698.37,409.037 1700.5,403.5 Z"/></g>
<g><path style="opacity:1" fill="#554dd0" d="M 1713.5,403.5 C 1716.52,403.335 1719.52,403.502 1722.5,404C 1725.11,406.795 1725.11,409.629 1722.5,412.5C 1724.62,414.745 1725.62,417.412 1725.5,420.5C 1724.17,420.5 1722.83,420.5 1721.5,420.5C 1721.98,416.423 1720.32,414.09 1716.5,413.5C 1716.5,415.833 1716.5,418.167 1716.5,420.5C 1715.5,420.5 1714.5,420.5 1713.5,420.5C 1713.5,414.833 1713.5,409.167 1713.5,403.5 Z"/></g>
<g><path style="opacity:1" fill="#6551d4" d="M 1733.5,403.5 C 1736.9,403.18 1740.23,403.513 1743.5,404.5C 1741.6,405.466 1739.6,405.799 1737.5,405.5C 1737.5,407.167 1737.5,408.833 1737.5,410.5C 1739.5,410.5 1741.5,410.5 1743.5,410.5C 1743.5,411.5 1743.5,412.5 1743.5,413.5C 1741.5,413.5 1739.5,413.5 1737.5,413.5C 1737.5,415.833 1737.5,418.167 1737.5,420.5C 1736.17,420.5 1734.83,420.5 1733.5,420.5C 1733.5,414.833 1733.5,409.167 1733.5,403.5 Z"/></g>
<g><path style="opacity:1" fill="#bd8cc7" d="M 1388.5,404.5 C 1389.68,404.281 1390.68,404.614 1391.5,405.5C 1390.28,406.614 1388.94,406.781 1387.5,406C 1388.06,405.617 1388.39,405.117 1388.5,404.5 Z"/></g>
<g><path style="opacity:1" fill="#d973f1" d="M 1716.5,405.5 C 1720.34,405.191 1721.68,406.691 1720.5,410C 1719.21,410.49 1717.87,410.657 1716.5,410.5C 1716.5,408.833 1716.5,407.167 1716.5,405.5 Z"/></g>
<g><path style="opacity:1" fill="#45aa62" d="M 1398.5,402.5 C 1400.83,402.5 1403.17,402.5 1405.5,402.5C 1405.72,403.675 1405.39,404.675 1404.5,405.5C 1403.11,404.355 1401.78,404.355 1400.5,405.5C 1402.22,406.92 1404.05,408.253 1406,409.5C 1406.67,410.5 1406.67,411.5 1406,412.5C 1403.44,414.179 1400.6,414.846 1397.5,414.5C 1397.5,413.5 1397.5,412.5 1397.5,411.5C 1399.29,411.785 1400.95,411.452 1402.5,410.5C 1397.95,409.311 1396.61,406.645 1398.5,402.5 Z"/></g>
<g><path style="opacity:1" fill="#45aa62" d="M 1417.5,407.5 C 1417.5,406.167 1417.5,404.833 1417.5,403.5C 1419.72,402.631 1422.05,402.298 1424.5,402.5C 1424.65,403.552 1424.48,404.552 1424,405.5C 1422.82,404.269 1421.65,404.269 1420.5,405.5C 1421.66,406.95 1423.16,407.95 1425,408.5C 1425.21,414.288 1422.55,415.954 1417,413.5C 1416.83,413.167 1416.67,412.833 1416.5,412.5C 1418.42,411.692 1420.42,411.192 1422.5,411C 1420.77,409.811 1419.1,408.644 1417.5,407.5 Z"/></g>
<g><path style="opacity:1" fill="#6c53d6" d="M 1745.5,408.5 C 1746.83,408.5 1748.17,408.5 1749.5,408.5C 1749.5,412.5 1749.5,416.5 1749.5,420.5C 1748.17,420.5 1746.83,420.5 1745.5,420.5C 1745.5,416.5 1745.5,412.5 1745.5,408.5 Z"/></g>
<g><path style="opacity:1" fill="#5f4fd3" d="M 1760.5,408.5 C 1763.19,408.336 1765.85,408.503 1768.5,409C 1769.41,410.699 1769.74,412.533 1769.5,414.5C 1767.17,414.5 1764.83,414.5 1762.5,414.5C 1762.5,415.5 1762.5,416.5 1762.5,417.5C 1764.92,417.192 1767.26,417.526 1769.5,418.5C 1765.8,421.332 1762.3,420.999 1759,417.5C 1758.21,414.259 1758.71,411.259 1760.5,408.5 Z"/></g>
<g><path style="opacity:1" fill="#22b14b" d="M 1892.5,506.5 C 1893.82,506.33 1894.99,506.663 1896,507.5C 1896.5,526.497 1896.67,545.497 1896.5,564.5C 1274.5,564.5 652.5,564.5 30.5,564.5C 31.1044,546.613 31.7711,528.779 32.5,511C 33.7839,510.316 34.9505,510.483 36,511.5C 36.4999,527.497 36.6666,543.497 36.5,559.5C 654.833,559.5 1273.17,559.5 1891.5,559.5C 1891.18,541.757 1891.51,524.09 1892.5,506.5 Z"/></g>
<g><path style="opacity:1" fill="#39b75a" d="M 845.5,601.5 C 861.143,600.654 867.31,607.987 864,623.5C 859.178,633.154 851.678,635.987 841.5,632C 835.511,625.516 834.011,618.016 837,609.5C 839.074,605.923 841.907,603.256 845.5,601.5 Z"/></g>
<g><path style="opacity:1" fill="#38b759" d="M 972.5,601.5 C 988.143,600.654 994.31,607.987 991,623.5C 986.069,632.814 978.569,635.647 968.5,632C 962.511,625.516 961.011,618.016 964,609.5C 966.074,605.923 968.907,603.256 972.5,601.5 Z"/></g>
<g><path style="opacity:1" fill="#38b75a" d="M 792.5,602.5 C 794.5,602.5 796.5,602.5 798.5,602.5C 800.471,610.134 802.305,617.8 804,625.5C 805.791,618.212 807.458,610.879 809,603.5C 811.667,602.167 814.333,602.167 817,603.5C 818.463,610.886 820.129,618.219 822,625.5C 824.261,617.932 826.094,610.266 827.5,602.5C 829.5,602.5 831.5,602.5 833.5,602.5C 831.241,611.45 829.075,620.45 827,629.5C 826.057,631.954 824.224,632.954 821.5,632.5C 819.9,632.449 818.4,632.116 817,631.5C 816.208,625.297 814.708,619.297 812.5,613.5C 810.377,619.326 808.877,625.326 808,631.5C 805,632.833 802,632.833 799,631.5C 796.533,621.881 794.367,612.214 792.5,602.5 Z"/></g>
<g><path style="opacity:1" fill="#33b557" d="M 869.5,602.5 C 874.511,602.334 879.511,602.501 884.5,603C 889.945,605.057 891.778,608.891 890,614.5C 889.027,616.64 887.527,618.307 885.5,619.5C 889.383,622.935 891.383,627.268 891.5,632.5C 889.473,632.662 887.473,632.495 885.5,632C 884.68,628.526 883.18,625.359 881,622.5C 879.301,621.594 877.467,621.261 875.5,621.5C 875.5,625.167 875.5,628.833 875.5,632.5C 873.5,632.5 871.5,632.5 869.5,632.5C 869.5,622.5 869.5,612.5 869.5,602.5 Z"/></g>
<g><path style="opacity:1" fill="#37b659" d="M 896.5,602.5 C 898.5,602.5 900.5,602.5 902.5,602.5C 902.176,606.555 902.509,610.555 903.5,614.5C 906.411,611.01 909.078,607.344 911.5,603.5C 913.743,602.526 916.076,602.192 918.5,602.5C 918.649,603.552 918.483,604.552 918,605.5C 914.551,608.906 911.718,612.739 909.5,617C 913.166,621.84 916.166,627.007 918.5,632.5C 916.076,632.808 913.743,632.474 911.5,631.5C 908.863,627.032 906.03,622.698 903,618.5C 902.501,623.155 902.334,627.821 902.5,632.5C 900.5,632.5 898.5,632.5 896.5,632.5C 896.5,622.5 896.5,612.5 896.5,602.5 Z"/></g>
<g><path style="opacity:1" fill="#37b658" d="M 929.5,607.5 C 928.523,610.287 928.19,613.287 928.5,616.5C 931.833,616.5 935.167,616.5 938.5,616.5C 939.801,617.884 939.801,619.384 938.5,621C 935.518,621.498 932.518,621.665 929.5,621.5C 929.5,625.167 929.5,628.833 929.5,632.5C 927.167,632.5 924.833,632.5 922.5,632.5C 922.334,622.828 922.5,613.161 923,603.5C 928.407,602.527 933.907,602.193 939.5,602.5C 939.5,604.167 939.5,605.833 939.5,607.5C 936.167,607.5 932.833,607.5 929.5,607.5 Z"/></g>
<g><path style="opacity:1" fill="#39b75a" d="M 944.5,602.5 C 946.792,602.244 948.959,602.577 951,603.5C 951.5,611.827 951.666,620.16 951.5,628.5C 954.833,628.5 958.167,628.5 961.5,628.5C 961.5,629.833 961.5,631.167 961.5,632.5C 955.833,632.5 950.167,632.5 944.5,632.5C 944.5,622.5 944.5,612.5 944.5,602.5 Z"/></g>
<g><path style="opacity:1" fill="#3ab75b" d="M 993.5,602.5 C 995.792,602.244 997.959,602.577 1000,603.5C 1002.16,610.127 1003.99,616.793 1005.5,623.5C 1007.27,616.576 1009.27,609.743 1011.5,603C 1013.77,602.242 1015.94,602.409 1018,603.5C 1019.6,610.297 1021.6,616.964 1024,623.5C 1025.67,616.833 1027.33,610.167 1029,603.5C 1030.7,602.594 1032.53,602.261 1034.5,602.5C 1032.66,612.186 1030.49,621.853 1028,631.5C 1025,632.833 1022,632.833 1019,631.5C 1018.08,625.558 1016.42,619.891 1014,614.5C 1012.18,620.435 1010.68,626.435 1009.5,632.5C 1006.55,632.777 1003.72,632.444 1001,631.5C 997.716,622.029 995.216,612.362 993.5,602.5 Z"/></g>
<g><path style="opacity:1" fill="#f6fcf7" d="M 846.5,606.5 C 850.803,605.796 854.303,607.13 857,610.5C 857.667,614.833 857.667,619.167 857,623.5C 854.519,628.389 850.686,629.722 845.5,627.5C 841.198,620.19 841.531,613.19 846.5,606.5 Z"/></g>
<g><path style="opacity:1" fill="#f6fbf7" d="M 973.5,606.5 C 977.909,605.618 981.409,606.952 984,610.5C 984.667,614.833 984.667,619.167 984,623.5C 981.519,628.389 977.686,629.722 972.5,627.5C 968.264,620.22 968.597,613.22 973.5,606.5 Z"/></g>
<g><path style="opacity:1" fill="#e5f6e9" d="M 875.5,607.5 C 883.524,606.265 885.524,609.098 881.5,616C 879.527,616.495 877.527,616.662 875.5,616.5C 875.5,613.5 875.5,610.5 875.5,607.5 Z"/></g>
<g><path style="opacity:1" fill="#9bdbad" d="M 929.5,607.5 C 929.5,610.167 929.5,612.833 929.5,615.5C 932.713,615.19 935.713,615.523 938.5,616.5C 935.167,616.5 931.833,616.5 928.5,616.5C 928.19,613.287 928.523,610.287 929.5,607.5 Z"/></g>
</svg>
