<?xml version="1.0" encoding="us-ascii" standalone="no"?><svg xmlns="http://www.w3.org/2000/svg" xmlns:xlink="http://www.w3.org/1999/xlink" contentStyleType="text/css" height="937px" preserveAspectRatio="none" style="width:1994px;height:937px;background:#FFFFFF;" version="1.1" viewBox="0 0 1994 937" width="1994px" zoomAndPan="magnify"><defs/><g><rect fill="#FFFFFF" height="742.6445" style="stroke:#181818;stroke-width:1.0;" width="10" x="63.5" y="93.6211"/><rect fill="#FFFFFF" height="343.8613" style="stroke:#181818;stroke-width:1.0;" width="10" x="480.5" y="116.9121"/><rect fill="#FFFFFF" height="344.2012" style="stroke:#181818;stroke-width:1.0;" width="10" x="480.5" y="492.0645"/><rect fill="#FFFFFF" height="219.0371" style="stroke:#181818;stroke-width:1.0;" width="10" x="736.5" y="210.4453"/><rect fill="#FFFFFF" height="281.6191" style="stroke:#181818;stroke-width:1.0;" width="10" x="736.5" y="523.3555"/><rect fill="#FFFFFF" height="156.4551" style="stroke:#181818;stroke-width:1.0;" width="10" x="1231" y="241.7363"/><rect fill="#FFFFFF" height="93.873" style="stroke:#181818;stroke-width:1.0;" width="10" x="1231" y="554.6465"/><rect fill="#FFFFFF" height="31.291" style="stroke:#181818;stroke-width:1.0;" width="10" x="1463" y="273.0273"/><rect fill="#FFFFFF" height="31.291" style="stroke:#181818;stroke-width:1.0;" width="10" x="1463" y="585.9375"/><rect fill="#FFFFFF" height="31.291" style="stroke:#181818;stroke-width:1.0;" width="10" x="1597" y="335.6094"/><rect fill="#FFFFFF" height="93.873" style="stroke:#181818;stroke-width:1.0;" width="10" x="1760" y="679.8105"/><rect fill="#FFFFFF" height="31.291" style="stroke:#181818;stroke-width:1.0;" width="10" x="1942" y="711.1016"/><line style="stroke:#181818;stroke-width:0.5;stroke-dasharray:5.0,5.0;" x1="68" x2="68" y1="83.6211" y2="854.2656"/><line style="stroke:#181818;stroke-width:0.5;stroke-dasharray:5.0,5.0;" x1="485.5" x2="485.5" y1="83.6211" y2="854.2656"/><line style="stroke:#181818;stroke-width:0.5;stroke-dasharray:5.0,5.0;" x1="741.5" x2="741.5" y1="166.0332" y2="854.2656"/><line style="stroke:#181818;stroke-width:0.5;stroke-dasharray:5.0,5.0;" x1="906.5" x2="906.5" y1="83.6211" y2="854.2656"/><line style="stroke:#181818;stroke-width:0.5;stroke-dasharray:5.0,5.0;" x1="1049.5" x2="1049.5" y1="83.6211" y2="854.2656"/><line style="stroke:#181818;stroke-width:0.5;stroke-dasharray:5.0,5.0;" x1="1235.5" x2="1235.5" y1="83.6211" y2="854.2656"/><line style="stroke:#181818;stroke-width:0.5;stroke-dasharray:5.0,5.0;" x1="1468" x2="1468" y1="83.6211" y2="854.2656"/><line style="stroke:#181818;stroke-width:0.5;stroke-dasharray:5.0,5.0;" x1="1602" x2="1602" y1="83.6211" y2="854.2656"/><line style="stroke:#181818;stroke-width:0.5;stroke-dasharray:5.0,5.0;" x1="1765" x2="1765" y1="83.6211" y2="854.2656"/><line style="stroke:#181818;stroke-width:0.5;stroke-dasharray:5.0,5.0;" x1="1946.5" x2="1946.5" y1="83.6211" y2="854.2656"/><text fill="#000000" font-family="sans-serif" font-size="14" lengthAdjust="spacing" textLength="121" x="5" y="80.1074">Customer Manager</text><ellipse cx="68.5" cy="13.5" fill="#E3E3E3" rx="8" ry="8" style="stroke:#181818;stroke-width:0.5;"/><path d="M68.5,21.5 L68.5,48.5 M55.5,29.5 L81.5,29.5 M68.5,48.5 L55.5,63.5 M68.5,48.5 L81.5,63.5 " fill="none" style="stroke:#181818;stroke-width:0.5;"/><text fill="#000000" font-family="sans-serif" font-size="14" lengthAdjust="spacing" textLength="121" x="5" y="868.373">Customer Manager</text><ellipse cx="68.5" cy="880.3867" fill="#E3E3E3" rx="8" ry="8" style="stroke:#181818;stroke-width:0.5;"/><path d="M68.5,888.3867 L68.5,915.3867 M55.5,896.3867 L81.5,896.3867 M68.5,915.3867 L55.5,930.3867 M68.5,915.3867 L81.5,930.3867 " fill="none" style="stroke:#181818;stroke-width:0.5;"/><rect fill="#E3E3E3" height="51.2422" rx="2.5" ry="2.5" style="stroke:#181818;stroke-width:0.5;" width="124" x="423.5" y="31.3789"/><text fill="#000000" font-family="sans-serif" font-size="14" lengthAdjust="spacing" textLength="95" x="438" y="53.4863">&#171;presentation&#187;</text><text fill="#000000" font-family="sans-serif" font-size="14" lengthAdjust="spacing" textLength="110" x="430.5" y="72.1074">ListJobOpeningUI</text><rect fill="#E3E3E3" height="51.2422" rx="2.5" ry="2.5" style="stroke:#181818;stroke-width:0.5;" width="124" x="423.5" y="853.2656"/><text fill="#000000" font-family="sans-serif" font-size="14" lengthAdjust="spacing" textLength="95" x="438" y="875.373">&#171;presentation&#187;</text><text fill="#000000" font-family="sans-serif" font-size="14" lengthAdjust="spacing" textLength="110" x="430.5" y="893.9941">ListJobOpeningUI</text><rect fill="#E3E3E3" height="51.2422" rx="2.5" ry="2.5" style="stroke:#181818;stroke-width:0.5;" width="174" x="654.5" y="853.2656"/><text fill="#000000" font-family="sans-serif" font-size="14" lengthAdjust="spacing" textLength="84" x="699.5" y="875.373">&#171;application&#187;</text><text fill="#000000" font-family="sans-serif" font-size="14" lengthAdjust="spacing" textLength="160" x="661.5" y="893.9941">ListJobOpeningController</text><rect fill="#E3E3E3" height="51.2422" rx="2.5" ry="2.5" style="stroke:#181818;stroke-width:0.5;" width="136" x="838.5" y="31.3789"/><text fill="#000000" font-family="sans-serif" font-size="14" lengthAdjust="spacing" textLength="89" x="862" y="53.4863">&#171;persistence&#187;</text><text fill="#000000" font-family="sans-serif" font-size="14" lengthAdjust="spacing" textLength="122" x="845.5" y="72.1074">PersistenceContext</text><rect fill="#E3E3E3" height="51.2422" rx="2.5" ry="2.5" style="stroke:#181818;stroke-width:0.5;" width="136" x="838.5" y="853.2656"/><text fill="#000000" font-family="sans-serif" font-size="14" lengthAdjust="spacing" textLength="89" x="862" y="875.373">&#171;persistence&#187;</text><text fill="#000000" font-family="sans-serif" font-size="14" lengthAdjust="spacing" textLength="122" x="845.5" y="893.9941">PersistenceContext</text><rect fill="#E3E3E3" height="51.2422" rx="2.5" ry="2.5" style="stroke:#181818;stroke-width:0.5;" width="130" x="984.5" y="31.3789"/><text fill="#000000" font-family="sans-serif" font-size="14" lengthAdjust="spacing" textLength="59" x="1020" y="53.4863">&#171;factory&#187;</text><text fill="#000000" font-family="sans-serif" font-size="14" lengthAdjust="spacing" textLength="116" x="991.5" y="72.1074">RepositoryFactory</text><rect fill="#E3E3E3" height="51.2422" rx="2.5" ry="2.5" style="stroke:#181818;stroke-width:0.5;" width="130" x="984.5" y="853.2656"/><text fill="#000000" font-family="sans-serif" font-size="14" lengthAdjust="spacing" textLength="59" x="1020" y="875.373">&#171;factory&#187;</text><text fill="#000000" font-family="sans-serif" font-size="14" lengthAdjust="spacing" textLength="116" x="991.5" y="893.9941">RepositoryFactory</text><rect fill="#E3E3E3" height="51.2422" rx="2.5" ry="2.5" style="stroke:#181818;stroke-width:0.5;" width="223" x="1124.5" y="31.3789"/><text fill="#000000" font-family="sans-serif" font-size="14" lengthAdjust="spacing" textLength="61" x="1205.5" y="53.4863">&#171;service&#187;</text><text fill="#000000" font-family="sans-serif" font-size="14" lengthAdjust="spacing" textLength="209" x="1131.5" y="72.1074">:JobOpeningManagementService</text><rect fill="#E3E3E3" height="51.2422" rx="2.5" ry="2.5" style="stroke:#181818;stroke-width:0.5;" width="223" x="1124.5" y="853.2656"/><text fill="#000000" font-family="sans-serif" font-size="14" lengthAdjust="spacing" textLength="61" x="1205.5" y="875.373">&#171;service&#187;</text><text fill="#000000" font-family="sans-serif" font-size="14" lengthAdjust="spacing" textLength="209" x="1131.5" y="893.9941">:JobOpeningManagementService</text><rect fill="#E3E3E3" height="51.2422" rx="2.5" ry="2.5" style="stroke:#181818;stroke-width:0.5;" width="158" x="1389" y="31.3789"/><text fill="#000000" font-family="sans-serif" font-size="14" lengthAdjust="spacing" textLength="79" x="1428.5" y="53.4863">&#171;repository&#187;</text><text fill="#000000" font-family="sans-serif" font-size="14" lengthAdjust="spacing" textLength="144" x="1396" y="72.1074">JobOpeningRepository</text><rect fill="#E3E3E3" height="51.2422" rx="2.5" ry="2.5" style="stroke:#181818;stroke-width:0.5;" width="158" x="1389" y="853.2656"/><text fill="#000000" font-family="sans-serif" font-size="14" lengthAdjust="spacing" textLength="79" x="1428.5" y="875.373">&#171;repository&#187;</text><text fill="#000000" font-family="sans-serif" font-size="14" lengthAdjust="spacing" textLength="144" x="1396" y="893.9941">JobOpeningRepository</text><rect fill="#E3E3E3" height="51.2422" rx="2.5" ry="2.5" style="stroke:#181818;stroke-width:0.5;" width="90" x="1557" y="31.3789"/><text fill="#000000" font-family="sans-serif" font-size="14" lengthAdjust="spacing" textLength="62" x="1571" y="53.4863">&#171;domain&#187;</text><text fill="#000000" font-family="sans-serif" font-size="14" lengthAdjust="spacing" textLength="76" x="1564" y="72.1074">JobOpening</text><rect fill="#E3E3E3" height="51.2422" rx="2.5" ry="2.5" style="stroke:#181818;stroke-width:0.5;" width="90" x="1557" y="853.2656"/><text fill="#000000" font-family="sans-serif" font-size="14" lengthAdjust="spacing" textLength="62" x="1571" y="875.373">&#171;domain&#187;</text><text fill="#000000" font-family="sans-serif" font-size="14" lengthAdjust="spacing" textLength="76" x="1564" y="893.9941">JobOpening</text><rect fill="#E3E3E3" height="51.2422" rx="2.5" ry="2.5" style="stroke:#181818;stroke-width:0.5;" width="216" x="1657" y="31.3789"/><text fill="#000000" font-family="sans-serif" font-size="14" lengthAdjust="spacing" textLength="61" x="1734.5" y="53.4863">&#171;service&#187;</text><text fill="#000000" font-family="sans-serif" font-size="14" lengthAdjust="spacing" textLength="202" x="1664" y="72.1074">:ApplicationManagementService</text><rect fill="#E3E3E3" height="51.2422" rx="2.5" ry="2.5" style="stroke:#181818;stroke-width:0.5;" width="216" x="1657" y="853.2656"/><text fill="#000000" font-family="sans-serif" font-size="14" lengthAdjust="spacing" textLength="61" x="1734.5" y="875.373">&#171;service&#187;</text><text fill="#000000" font-family="sans-serif" font-size="14" lengthAdjust="spacing" textLength="202" x="1664" y="893.9941">:ApplicationManagementService</text><rect fill="#E3E3E3" height="51.2422" rx="2.5" ry="2.5" style="stroke:#181818;stroke-width:0.5;" width="83" x="1905.5" y="31.3789"/><text fill="#000000" font-family="sans-serif" font-size="14" lengthAdjust="spacing" textLength="62" x="1916" y="53.4863">&#171;domain&#187;</text><text fill="#000000" font-family="sans-serif" font-size="14" lengthAdjust="spacing" textLength="69" x="1912.5" y="72.1074">Application</text><rect fill="#E3E3E3" height="51.2422" rx="2.5" ry="2.5" style="stroke:#181818;stroke-width:0.5;" width="83" x="1905.5" y="853.2656"/><text fill="#000000" font-family="sans-serif" font-size="14" lengthAdjust="spacing" textLength="62" x="1916" y="875.373">&#171;domain&#187;</text><text fill="#000000" font-family="sans-serif" font-size="14" lengthAdjust="spacing" textLength="69" x="1912.5" y="893.9941">Application</text><rect fill="#FFFFFF" height="742.6445" style="stroke:#181818;stroke-width:1.0;" width="10" x="63.5" y="93.6211"/><rect fill="#FFFFFF" height="343.8613" style="stroke:#181818;stroke-width:1.0;" width="10" x="480.5" y="116.9121"/><rect fill="#FFFFFF" height="344.2012" style="stroke:#181818;stroke-width:1.0;" width="10" x="480.5" y="492.0645"/><rect fill="#FFFFFF" height="219.0371" style="stroke:#181818;stroke-width:1.0;" width="10" x="736.5" y="210.4453"/><rect fill="#FFFFFF" height="281.6191" style="stroke:#181818;stroke-width:1.0;" width="10" x="736.5" y="523.3555"/><rect fill="#FFFFFF" height="156.4551" style="stroke:#181818;stroke-width:1.0;" width="10" x="1231" y="241.7363"/><rect fill="#FFFFFF" height="93.873" style="stroke:#181818;stroke-width:1.0;" width="10" x="1231" y="554.6465"/><rect fill="#FFFFFF" height="31.291" style="stroke:#181818;stroke-width:1.0;" width="10" x="1463" y="273.0273"/><rect fill="#FFFFFF" height="31.291" style="stroke:#181818;stroke-width:1.0;" width="10" x="1463" y="585.9375"/><rect fill="#FFFFFF" height="31.291" style="stroke:#181818;stroke-width:1.0;" width="10" x="1597" y="335.6094"/><rect fill="#FFFFFF" height="93.873" style="stroke:#181818;stroke-width:1.0;" width="10" x="1760" y="679.8105"/><rect fill="#FFFFFF" height="31.291" style="stroke:#181818;stroke-width:1.0;" width="10" x="1942" y="711.1016"/><polygon fill="#181818" points="468.5,112.9121,478.5,116.9121,468.5,120.9121,472.5,116.9121" style="stroke:#181818;stroke-width:1.0;"/><line style="stroke:#181818;stroke-width:1.0;" x1="73.5" x2="474.5" y1="116.9121" y2="116.9121"/><text fill="#000000" font-family="sans-serif" font-size="13" font-weight="bold" lengthAdjust="spacing" textLength="7" x="80.5" y="111.6494">1</text><text fill="#000000" font-family="sans-serif" font-size="13" lengthAdjust="spacing" textLength="264" x="91.5" y="111.6494">asks to list all the applications for job opening</text><polygon fill="#181818" points="642.5,144.2031,652.5,148.2031,642.5,152.2031,646.5,148.2031" style="stroke:#181818;stroke-width:1.0;"/><line style="stroke:#181818;stroke-width:1.0;" x1="490.5" x2="648.5" y1="148.2031" y2="148.2031"/><text fill="#000000" font-family="sans-serif" font-size="13" font-weight="bold" lengthAdjust="spacing" textLength="7" x="497.5" y="142.9404">2</text><text fill="#000000" font-family="sans-serif" font-size="13" lengthAdjust="spacing" textLength="44" x="508.5" y="142.9404">create()</text><rect fill="#E3E3E3" height="51.2422" rx="2.5" ry="2.5" style="stroke:#181818;stroke-width:0.5;" width="174" x="654.5" y="124.9121"/><text fill="#000000" font-family="sans-serif" font-size="14" lengthAdjust="spacing" textLength="84" x="699.5" y="147.0195">&#171;application&#187;</text><text fill="#000000" font-family="sans-serif" font-size="14" lengthAdjust="spacing" textLength="160" x="661.5" y="165.6406">ListJobOpeningController</text><polygon fill="#181818" points="724.5,206.4453,734.5,210.4453,724.5,214.4453,728.5,210.4453" style="stroke:#181818;stroke-width:1.0;"/><line style="stroke:#181818;stroke-width:1.0;" x1="490.5" x2="730.5" y1="210.4453" y2="210.4453"/><text fill="#000000" font-family="sans-serif" font-size="13" font-weight="bold" lengthAdjust="spacing" textLength="7" x="497.5" y="205.1826">3</text><text fill="#000000" font-family="sans-serif" font-size="13" lengthAdjust="spacing" textLength="115" x="508.5" y="205.1826">getJobOpeningList()</text><polygon fill="#181818" points="1219,237.7363,1229,241.7363,1219,245.7363,1223,241.7363" style="stroke:#181818;stroke-width:1.0;"/><line style="stroke:#181818;stroke-width:1.0;" x1="746.5" x2="1225" y1="241.7363" y2="241.7363"/><text fill="#000000" font-family="sans-serif" font-size="13" font-weight="bold" lengthAdjust="spacing" textLength="7" x="753.5" y="236.4736">4</text><text fill="#000000" font-family="sans-serif" font-size="13" lengthAdjust="spacing" textLength="115" x="764.5" y="236.4736">getJobOpeningList()</text><polygon fill="#181818" points="1451,269.0273,1461,273.0273,1451,277.0273,1455,273.0273" style="stroke:#181818;stroke-width:1.0;"/><line style="stroke:#181818;stroke-width:1.0;" x1="1241" x2="1457" y1="273.0273" y2="273.0273"/><text fill="#000000" font-family="sans-serif" font-size="13" font-weight="bold" lengthAdjust="spacing" textLength="7" x="1248" y="267.7646">5</text><text fill="#000000" font-family="sans-serif" font-size="13" lengthAdjust="spacing" textLength="115" x="1259" y="267.7646">getJobOpeningList()</text><polygon fill="#181818" points="1252,300.3184,1242,304.3184,1252,308.3184,1248,304.3184" style="stroke:#181818;stroke-width:1.0;"/><line style="stroke:#181818;stroke-width:1.0;stroke-dasharray:2.0,2.0;" x1="1246" x2="1467" y1="304.3184" y2="304.3184"/><text fill="#000000" font-family="sans-serif" font-size="13" font-weight="bold" lengthAdjust="spacing" textLength="7" x="1258" y="299.0557">6</text><text fill="#000000" font-family="sans-serif" font-size="13" lengthAdjust="spacing" textLength="86" x="1269" y="299.0557">jobOpeningList</text><polygon fill="#181818" points="1585,331.6094,1595,335.6094,1585,339.6094,1589,335.6094" style="stroke:#181818;stroke-width:1.0;"/><line style="stroke:#181818;stroke-width:1.0;" x1="1241" x2="1591" y1="335.6094" y2="335.6094"/><text fill="#000000" font-family="sans-serif" font-size="13" font-weight="bold" lengthAdjust="spacing" textLength="7" x="1248" y="330.3467">7</text><text fill="#000000" font-family="sans-serif" font-size="13" lengthAdjust="spacing" textLength="131" x="1259" y="330.3467">toDTO(jobOpeningList)</text><polygon fill="#181818" points="1252,362.9004,1242,366.9004,1252,370.9004,1248,366.9004" style="stroke:#181818;stroke-width:1.0;"/><line style="stroke:#181818;stroke-width:1.0;stroke-dasharray:2.0,2.0;" x1="1246" x2="1601" y1="366.9004" y2="366.9004"/><text fill="#000000" font-family="sans-serif" font-size="13" font-weight="bold" lengthAdjust="spacing" textLength="7" x="1258" y="361.6377">8</text><text fill="#000000" font-family="sans-serif" font-size="13" lengthAdjust="spacing" textLength="112" x="1269" y="361.6377">jobOpeningListDTO</text><polygon fill="#181818" points="757.5,394.1914,747.5,398.1914,757.5,402.1914,753.5,398.1914" style="stroke:#181818;stroke-width:1.0;"/><line style="stroke:#181818;stroke-width:1.0;stroke-dasharray:2.0,2.0;" x1="751.5" x2="1235" y1="398.1914" y2="398.1914"/><text fill="#000000" font-family="sans-serif" font-size="13" font-weight="bold" lengthAdjust="spacing" textLength="7" x="763.5" y="392.9287">9</text><text fill="#000000" font-family="sans-serif" font-size="13" lengthAdjust="spacing" textLength="112" x="774.5" y="392.9287">jobOpeningListDTO</text><polygon fill="#181818" points="501.5,425.4824,491.5,429.4824,501.5,433.4824,497.5,429.4824" style="stroke:#181818;stroke-width:1.0;"/><line style="stroke:#181818;stroke-width:1.0;stroke-dasharray:2.0,2.0;" x1="495.5" x2="740.5" y1="429.4824" y2="429.4824"/><text fill="#000000" font-family="sans-serif" font-size="13" font-weight="bold" lengthAdjust="spacing" textLength="14" x="507.5" y="424.2197">10</text><text fill="#000000" font-family="sans-serif" font-size="13" lengthAdjust="spacing" textLength="112" x="525.5" y="424.2197">jobOpeningListDTO</text><polygon fill="#181818" points="84.5,456.7734,74.5,460.7734,84.5,464.7734,80.5,460.7734" style="stroke:#181818;stroke-width:1.0;"/><line style="stroke:#181818;stroke-width:1.0;stroke-dasharray:2.0,2.0;" x1="78.5" x2="484.5" y1="460.7734" y2="460.7734"/><text fill="#000000" font-family="sans-serif" font-size="13" font-weight="bold" lengthAdjust="spacing" textLength="14" x="90.5" y="455.5107">11</text><text fill="#000000" font-family="sans-serif" font-size="13" lengthAdjust="spacing" textLength="365" x="108.5" y="455.5107">shows the job opening with applications and asks to select one</text><polygon fill="#181818" points="468.5,488.0645,478.5,492.0645,468.5,496.0645,472.5,492.0645" style="stroke:#181818;stroke-width:1.0;"/><line style="stroke:#181818;stroke-width:1.0;" x1="73.5" x2="474.5" y1="492.0645" y2="492.0645"/><text fill="#000000" font-family="sans-serif" font-size="13" font-weight="bold" lengthAdjust="spacing" textLength="14" x="80.5" y="486.8018">12</text><text fill="#000000" font-family="sans-serif" font-size="13" lengthAdjust="spacing" textLength="134" x="98.5" y="486.8018">selects the job opening</text><polygon fill="#181818" points="724.5,519.3555,734.5,523.3555,724.5,527.3555,728.5,523.3555" style="stroke:#181818;stroke-width:1.0;"/><line style="stroke:#181818;stroke-width:1.0;" x1="490.5" x2="730.5" y1="523.3555" y2="523.3555"/><text fill="#000000" font-family="sans-serif" font-size="13" font-weight="bold" lengthAdjust="spacing" textLength="14" x="497.5" y="518.0928">13</text><text fill="#000000" font-family="sans-serif" font-size="13" lengthAdjust="spacing" textLength="209" x="515.5" y="518.0928">getApplicationsList(jobOpeningDTO)</text><polygon fill="#181818" points="1219,550.6465,1229,554.6465,1219,558.6465,1223,554.6465" style="stroke:#181818;stroke-width:1.0;"/><line style="stroke:#181818;stroke-width:1.0;" x1="746.5" x2="1225" y1="554.6465" y2="554.6465"/><text fill="#000000" font-family="sans-serif" font-size="13" font-weight="bold" lengthAdjust="spacing" textLength="14" x="753.5" y="549.3838">14</text><text fill="#000000" font-family="sans-serif" font-size="13" lengthAdjust="spacing" textLength="185" x="771.5" y="549.3838">getJobOpening(jobOpeningDTO)</text><polygon fill="#181818" points="1451,581.9375,1461,585.9375,1451,589.9375,1455,585.9375" style="stroke:#181818;stroke-width:1.0;"/><line style="stroke:#181818;stroke-width:1.0;" x1="1241" x2="1457" y1="585.9375" y2="585.9375"/><text fill="#000000" font-family="sans-serif" font-size="13" font-weight="bold" lengthAdjust="spacing" textLength="14" x="1248" y="580.6748">15</text><text fill="#000000" font-family="sans-serif" font-size="13" lengthAdjust="spacing" textLength="185" x="1266" y="580.6748">getJobOpening(jobOpeningDTO)</text><polygon fill="#181818" points="1252,613.2285,1242,617.2285,1252,621.2285,1248,617.2285" style="stroke:#181818;stroke-width:1.0;"/><line style="stroke:#181818;stroke-width:1.0;stroke-dasharray:2.0,2.0;" x1="1246" x2="1467" y1="617.2285" y2="617.2285"/><text fill="#000000" font-family="sans-serif" font-size="13" font-weight="bold" lengthAdjust="spacing" textLength="14" x="1258" y="611.9658">16</text><text fill="#000000" font-family="sans-serif" font-size="13" lengthAdjust="spacing" textLength="65" x="1276" y="611.9658">jobOpening</text><polygon fill="#181818" points="757.5,644.5195,747.5,648.5195,757.5,652.5195,753.5,648.5195" style="stroke:#181818;stroke-width:1.0;"/><line style="stroke:#181818;stroke-width:1.0;stroke-dasharray:2.0,2.0;" x1="751.5" x2="1235" y1="648.5195" y2="648.5195"/><text fill="#000000" font-family="sans-serif" font-size="13" font-weight="bold" lengthAdjust="spacing" textLength="14" x="763.5" y="643.2568">17</text><text fill="#000000" font-family="sans-serif" font-size="13" lengthAdjust="spacing" textLength="65" x="781.5" y="643.2568">jobOpening</text><polygon fill="#181818" points="1748,675.8105,1758,679.8105,1748,683.8105,1752,679.8105" style="stroke:#181818;stroke-width:1.0;"/><line style="stroke:#181818;stroke-width:1.0;" x1="746.5" x2="1754" y1="679.8105" y2="679.8105"/><text fill="#000000" font-family="sans-serif" font-size="13" font-weight="bold" lengthAdjust="spacing" textLength="14" x="753.5" y="674.5479">18</text><text fill="#000000" font-family="sans-serif" font-size="13" lengthAdjust="spacing" textLength="183" x="771.5" y="674.5479">getApplicationsList(jobOpening)</text><polygon fill="#181818" points="1930,707.1016,1940,711.1016,1930,715.1016,1934,711.1016" style="stroke:#181818;stroke-width:1.0;"/><line style="stroke:#181818;stroke-width:1.0;" x1="1770" x2="1936" y1="711.1016" y2="711.1016"/><text fill="#000000" font-family="sans-serif" font-size="13" font-weight="bold" lengthAdjust="spacing" textLength="14" x="1777" y="705.8389">19</text><text fill="#000000" font-family="sans-serif" font-size="13" lengthAdjust="spacing" textLength="135" x="1795" y="705.8389">toDTO(applicationsList)</text><polygon fill="#181818" points="1781,738.3926,1771,742.3926,1781,746.3926,1777,742.3926" style="stroke:#181818;stroke-width:1.0;"/><line style="stroke:#181818;stroke-width:1.0;stroke-dasharray:2.0,2.0;" x1="1775" x2="1946" y1="742.3926" y2="742.3926"/><text fill="#000000" font-family="sans-serif" font-size="13" font-weight="bold" lengthAdjust="spacing" textLength="14" x="1787" y="737.1299">20</text><text fill="#000000" font-family="sans-serif" font-size="13" lengthAdjust="spacing" textLength="116" x="1805" y="737.1299">applicationsListDTO</text><polygon fill="#181818" points="757.5,769.6836,747.5,773.6836,757.5,777.6836,753.5,773.6836" style="stroke:#181818;stroke-width:1.0;"/><line style="stroke:#181818;stroke-width:1.0;stroke-dasharray:2.0,2.0;" x1="751.5" x2="1764" y1="773.6836" y2="773.6836"/><text fill="#000000" font-family="sans-serif" font-size="13" font-weight="bold" lengthAdjust="spacing" textLength="14" x="763.5" y="768.4209">21</text><text fill="#000000" font-family="sans-serif" font-size="13" lengthAdjust="spacing" textLength="116" x="781.5" y="768.4209">applicationsListDTO</text><polygon fill="#181818" points="501.5,800.9746,491.5,804.9746,501.5,808.9746,497.5,804.9746" style="stroke:#181818;stroke-width:1.0;"/><line style="stroke:#181818;stroke-width:1.0;stroke-dasharray:2.0,2.0;" x1="495.5" x2="740.5" y1="804.9746" y2="804.9746"/><text fill="#000000" font-family="sans-serif" font-size="13" font-weight="bold" lengthAdjust="spacing" textLength="14" x="507.5" y="799.7119">22</text><text fill="#000000" font-family="sans-serif" font-size="13" lengthAdjust="spacing" textLength="116" x="525.5" y="799.7119">applicationsListDTO</text><polygon fill="#181818" points="79.5,832.2656,69.5,836.2656,79.5,840.2656,75.5,836.2656" style="stroke:#181818;stroke-width:1.0;"/><line style="stroke:#181818;stroke-width:1.0;stroke-dasharray:2.0,2.0;" x1="73.5" x2="484.5" y1="836.2656" y2="836.2656"/><text fill="#000000" font-family="sans-serif" font-size="13" font-weight="bold" lengthAdjust="spacing" textLength="14" x="85.5" y="831.0029">23</text><text fill="#000000" font-family="sans-serif" font-size="13" lengthAdjust="spacing" textLength="153" x="103.5" y="831.0029">shows the applications list</text><!--SRC=[jPNFRk8m4CRlUOeHfsubNW1LI1MhbRegQbNQsrvC6C0biIFRbEtRxzWXyPya9KBTd9AClz_CsDya-i15nHGhePH2vdibImIZZfZfDbAn_C1sk3AV1OB2t32nAy85UiysyiJ53hQiq9Xbx6YaE9PhL7IV6wbWiZXgGsm5IoO8fYR0D2oM6H4Cptd5X879tLsbKACmp70fvlC_uf5hyrkkdoeKn7zxSBAtXrJ6gghW-O1g8OLHiYYQfAylZvsqg3HfKEHezS_-qOhnht7Au7KAsBesFwtu1IkfkNtwLRzqMlzsnUtsqGQb3DKkiHXVlvSwKbyWHMraoRY8COaubMXK7xnkV-PNrQTLqf6iwdX3yO6lsvXzKn-pgngvzxxexuGM37VYimUSHjOyEuVp3sRGsZbRB64w9uV2ZDOTD1W91Na6M560sIC4JjMmfSbubskGvqvQ4Zay8mQHh5jlRucMAwJ8pOymC8CT1aQtjgS5lXxhz0peidTM51qSzClj-XOHdxIBnOmQsZd8aUok0PeKNUAqf_xtA87JRd1SWg4UY6hapzUdcvWzM7jQyOWwYJvSQc-1v_CUIKfFp3kWiMQNac9gxrYhsTnBqkYzF6dduS2oSE9c7vkQYKrhVOq5_Iz02im2jdLtC2VreWvwQ1gSiu81rCvRlYFgvlePI3d_PHWk9Vc-gRXw8leCTy5fqIP7trMuT6J95iGVPHUBUNM2XjPEB4ioTB7-ets6jenfJz4fhsVQ-fZz-pWEblOTZ-q8HkttWS6DvjJ-bjAf347qCyl-0G00]--></g></svg>