<?xml version="1.0" encoding="us-ascii" standalone="no"?><svg xmlns="http://www.w3.org/2000/svg" xmlns:xlink="http://www.w3.org/1999/xlink" contentStyleType="text/css" height="1005px" preserveAspectRatio="none" style="width:864px;height:1005px;background:#FFFFFF;" version="1.1" viewBox="0 0 864 1005" width="864px" zoomAndPan="magnify"><defs/><g><text fill="#000000" font-family="sans-serif" font-size="14" font-weight="bold" lengthAdjust="spacing" textLength="376" x="245.5" y="30.1074">[US1005 - Partial SD] Convert Job Opening List to DTO</text><rect fill="#FFFFFF" height="801.3652" style="stroke:#181818;stroke-width:1.0;" width="10" x="150" y="130.1543"/><rect fill="#FFFFFF" height="738.7832" style="stroke:#181818;stroke-width:1.0;" width="10" x="358" y="161.4453"/><rect fill="#FFFFFF" height="30" style="stroke:#181818;stroke-width:1.0;" width="10" x="498" y="280.3184"/><rect fill="#FFFFFF" height="30" style="stroke:#181818;stroke-width:1.0;" width="10" x="498" y="341.6094"/><rect fill="#FFFFFF" height="30" style="stroke:#181818;stroke-width:1.0;" width="10" x="498" y="402.9004"/><rect fill="#FFFFFF" height="30" style="stroke:#181818;stroke-width:1.0;" width="10" x="498" y="464.1914"/><rect fill="#FFFFFF" height="30" style="stroke:#181818;stroke-width:1.0;" width="10" x="498" y="525.4824"/><rect fill="#FFFFFF" height="30" style="stroke:#181818;stroke-width:1.0;" width="10" x="498" y="586.7734"/><rect fill="#FFFFFF" height="30" style="stroke:#181818;stroke-width:1.0;" width="10" x="498" y="648.0645"/><rect fill="#FFFFFF" height="30" style="stroke:#181818;stroke-width:1.0;" width="10" x="498" y="709.3555"/><rect fill="#FFFFFF" height="30" style="stroke:#181818;stroke-width:1.0;" width="10" x="634" y="192.7363"/><rect fill="#FFFFFF" height="30" style="stroke:#181818;stroke-width:1.0;" width="10" x="634" y="849.2285"/><rect fill="#FFFFFF" height="30" style="stroke:#181818;stroke-width:1.0;" width="10" x="783" y="787.9375"/><rect fill="none" height="649.4922" style="stroke:#000000;stroke-width:1.5;" width="576" x="282" y="237.7363"/><line style="stroke:#181818;stroke-width:0.5;stroke-dasharray:5.0,5.0;" x1="155" x2="155" y1="96.8633" y2="949.5195"/><line style="stroke:#181818;stroke-width:0.5;stroke-dasharray:5.0,5.0;" x1="363" x2="363" y1="96.8633" y2="949.5195"/><line style="stroke:#181818;stroke-width:0.5;stroke-dasharray:5.0,5.0;" x1="503" x2="503" y1="96.8633" y2="949.5195"/><line style="stroke:#181818;stroke-width:0.5;stroke-dasharray:5.0,5.0;" x1="639" x2="639" y1="96.8633" y2="949.5195"/><line style="stroke:#181818;stroke-width:0.5;stroke-dasharray:5.0,5.0;" x1="788" x2="788" y1="96.8633" y2="949.5195"/><rect fill="#E2E2F0" height="51.2422" rx="2.5" ry="2.5" style="stroke:#181818;stroke-width:0.5;" width="254" x="28" y="44.6211"/><text fill="#000000" font-family="sans-serif" font-size="14" lengthAdjust="spacing" textLength="84" x="113" y="66.7285">&#171;application&#187;</text><text fill="#000000" font-family="sans-serif" font-size="14" lengthAdjust="spacing" textLength="240" x="35" y="85.3496">:ListJobOpeningApplicationsController</text><rect fill="#E2E2F0" height="51.2422" rx="2.5" ry="2.5" style="stroke:#181818;stroke-width:0.5;" width="254" x="28" y="948.5195"/><text fill="#000000" font-family="sans-serif" font-size="14" lengthAdjust="spacing" textLength="84" x="113" y="970.627">&#171;application&#187;</text><text fill="#000000" font-family="sans-serif" font-size="14" lengthAdjust="spacing" textLength="240" x="35" y="989.248">:ListJobOpeningApplicationsController</text><rect fill="#E2E2F0" height="51.2422" rx="2.5" ry="2.5" style="stroke:#181818;stroke-width:0.5;" width="142" x="292" y="44.6211"/><text fill="#000000" font-family="sans-serif" font-size="14" lengthAdjust="spacing" textLength="61" x="332.5" y="66.7285">&#171;service&#187;</text><text fill="#000000" font-family="sans-serif" font-size="14" lengthAdjust="spacing" textLength="128" x="299" y="85.3496">:JobOpeningMapper</text><rect fill="#E2E2F0" height="51.2422" rx="2.5" ry="2.5" style="stroke:#181818;stroke-width:0.5;" width="142" x="292" y="948.5195"/><text fill="#000000" font-family="sans-serif" font-size="14" lengthAdjust="spacing" textLength="61" x="332.5" y="970.627">&#171;service&#187;</text><text fill="#000000" font-family="sans-serif" font-size="14" lengthAdjust="spacing" textLength="128" x="299" y="989.248">:JobOpeningMapper</text><rect fill="#E2E2F0" height="51.2422" rx="2.5" ry="2.5" style="stroke:#181818;stroke-width:0.5;" width="94" x="456" y="44.6211"/><text fill="#000000" font-family="sans-serif" font-size="14" lengthAdjust="spacing" textLength="62" x="472" y="66.7285">&#171;domain&#187;</text><text fill="#000000" font-family="sans-serif" font-size="14" lengthAdjust="spacing" textLength="80" x="463" y="85.3496">:JobOpening</text><rect fill="#E2E2F0" height="51.2422" rx="2.5" ry="2.5" style="stroke:#181818;stroke-width:0.5;" width="94" x="456" y="948.5195"/><text fill="#000000" font-family="sans-serif" font-size="14" lengthAdjust="spacing" textLength="62" x="472" y="970.627">&#171;domain&#187;</text><text fill="#000000" font-family="sans-serif" font-size="14" lengthAdjust="spacing" textLength="80" x="463" y="989.248">:JobOpening</text><rect fill="#E2E2F0" height="51.2422" rx="2.5" ry="2.5" style="stroke:#181818;stroke-width:0.5;" width="158" x="560" y="44.6211"/><text fill="#000000" font-family="sans-serif" font-size="14" lengthAdjust="spacing" textLength="84" x="597" y="66.7285">&#171;application&#187;</text><text fill="#000000" font-family="sans-serif" font-size="14" lengthAdjust="spacing" textLength="144" x="567" y="85.3496">List&lt;JobOpeningDTO&gt;</text><rect fill="#E2E2F0" height="51.2422" rx="2.5" ry="2.5" style="stroke:#181818;stroke-width:0.5;" width="158" x="560" y="948.5195"/><text fill="#000000" font-family="sans-serif" font-size="14" lengthAdjust="spacing" textLength="84" x="597" y="970.627">&#171;application&#187;</text><text fill="#000000" font-family="sans-serif" font-size="14" lengthAdjust="spacing" textLength="144" x="567" y="989.248">List&lt;JobOpeningDTO&gt;</text><rect fill="#E2E2F0" height="51.2422" rx="2.5" ry="2.5" style="stroke:#181818;stroke-width:0.5;" width="120" x="728" y="44.6211"/><text fill="#000000" font-family="sans-serif" font-size="14" lengthAdjust="spacing" textLength="84" x="746" y="66.7285">&#171;application&#187;</text><text fill="#000000" font-family="sans-serif" font-size="14" lengthAdjust="spacing" textLength="106" x="735" y="85.3496">JobOpeningDTO</text><rect fill="#E2E2F0" height="51.2422" rx="2.5" ry="2.5" style="stroke:#181818;stroke-width:0.5;" width="120" x="728" y="948.5195"/><text fill="#000000" font-family="sans-serif" font-size="14" lengthAdjust="spacing" textLength="84" x="746" y="970.627">&#171;application&#187;</text><text fill="#000000" font-family="sans-serif" font-size="14" lengthAdjust="spacing" textLength="106" x="735" y="989.248">JobOpeningDTO</text><rect fill="#FFFFFF" height="801.3652" style="stroke:#181818;stroke-width:1.0;" width="10" x="150" y="130.1543"/><rect fill="#FFFFFF" height="738.7832" style="stroke:#181818;stroke-width:1.0;" width="10" x="358" y="161.4453"/><rect fill="#FFFFFF" height="30" style="stroke:#181818;stroke-width:1.0;" width="10" x="498" y="280.3184"/><rect fill="#FFFFFF" height="30" style="stroke:#181818;stroke-width:1.0;" width="10" x="498" y="341.6094"/><rect fill="#FFFFFF" height="30" style="stroke:#181818;stroke-width:1.0;" width="10" x="498" y="402.9004"/><rect fill="#FFFFFF" height="30" style="stroke:#181818;stroke-width:1.0;" width="10" x="498" y="464.1914"/><rect fill="#FFFFFF" height="30" style="stroke:#181818;stroke-width:1.0;" width="10" x="498" y="525.4824"/><rect fill="#FFFFFF" height="30" style="stroke:#181818;stroke-width:1.0;" width="10" x="498" y="586.7734"/><rect fill="#FFFFFF" height="30" style="stroke:#181818;stroke-width:1.0;" width="10" x="498" y="648.0645"/><rect fill="#FFFFFF" height="30" style="stroke:#181818;stroke-width:1.0;" width="10" x="498" y="709.3555"/><rect fill="#FFFFFF" height="30" style="stroke:#181818;stroke-width:1.0;" width="10" x="634" y="192.7363"/><rect fill="#FFFFFF" height="30" style="stroke:#181818;stroke-width:1.0;" width="10" x="634" y="849.2285"/><rect fill="#FFFFFF" height="30" style="stroke:#181818;stroke-width:1.0;" width="10" x="783" y="787.9375"/><polygon fill="#181818" points="138,126.1543,148,130.1543,138,134.1543,142,130.1543" style="stroke:#181818;stroke-width:1.0;"/><line style="stroke:#181818;stroke-width:1.0;" x1="0" x2="144" y1="130.1543" y2="130.1543"/><text fill="#000000" font-family="sans-serif" font-size="13" lengthAdjust="spacing" textLength="131" x="7" y="124.8916">toDTO(jobOpeningList)</text><polygon fill="#181818" points="346,157.4453,356,161.4453,346,165.4453,350,161.4453" style="stroke:#181818;stroke-width:1.0;"/><line style="stroke:#181818;stroke-width:1.0;" x1="160" x2="352" y1="161.4453" y2="161.4453"/><text fill="#000000" font-family="sans-serif" font-size="13" lengthAdjust="spacing" textLength="175" x="167" y="156.1826">convertToDTO(jobOpeningList)</text><polygon fill="#181818" points="622,188.7363,632,192.7363,622,196.7363,626,192.7363" style="stroke:#181818;stroke-width:1.0;"/><line style="stroke:#181818;stroke-width:1.0;" x1="368" x2="628" y1="192.7363" y2="192.7363"/><text fill="#000000" font-family="sans-serif" font-size="13" lengthAdjust="spacing" textLength="44" x="375" y="187.4736">create()</text><path d="M282,237.7363 L355,237.7363 L355,247.0273 L345,257.0273 L282,257.0273 L282,237.7363 " fill="#EEEEEE" style="stroke:#000000;stroke-width:1.5;"/><rect fill="none" height="649.4922" style="stroke:#000000;stroke-width:1.5;" width="576" x="282" y="237.7363"/><text fill="#000000" font-family="sans-serif" font-size="13" font-weight="bold" lengthAdjust="spacing" textLength="28" x="297" y="252.7646">loop</text><text fill="#000000" font-family="sans-serif" font-size="11" font-weight="bold" lengthAdjust="spacing" textLength="191" x="370" y="251.6064">[For all the job openings in the list]</text><polygon fill="#181818" points="486,276.3184,496,280.3184,486,284.3184,490,280.3184" style="stroke:#181818;stroke-width:1.0;"/><line style="stroke:#181818;stroke-width:1.0;" x1="368" x2="492" y1="280.3184" y2="280.3184"/><text fill="#000000" font-family="sans-serif" font-size="13" lengthAdjust="spacing" textLength="75" x="375" y="275.0557">jobFunction()</text><polygon fill="#181818" points="486,337.6094,496,341.6094,486,345.6094,490,341.6094" style="stroke:#181818;stroke-width:1.0;"/><line style="stroke:#181818;stroke-width:1.0;" x1="368" x2="492" y1="341.6094" y2="341.6094"/><text fill="#000000" font-family="sans-serif" font-size="13" lengthAdjust="spacing" textLength="111" x="375" y="336.3467">jobOpeningStatus()</text><polygon fill="#181818" points="486,398.9004,496,402.9004,486,406.9004,490,402.9004" style="stroke:#181818;stroke-width:1.0;"/><line style="stroke:#181818;stroke-width:1.0;" x1="368" x2="492" y1="402.9004" y2="402.9004"/><text fill="#000000" font-family="sans-serif" font-size="13" lengthAdjust="spacing" textLength="83" x="375" y="397.6377">contractType()</text><polygon fill="#181818" points="486,460.1914,496,464.1914,486,468.1914,490,464.1914" style="stroke:#181818;stroke-width:1.0;"/><line style="stroke:#181818;stroke-width:1.0;" x1="368" x2="492" y1="464.1914" y2="464.1914"/><text fill="#000000" font-family="sans-serif" font-size="13" lengthAdjust="spacing" textLength="40" x="375" y="458.9287">mode()</text><polygon fill="#181818" points="486,521.4824,496,525.4824,486,529.4824,490,525.4824" style="stroke:#181818;stroke-width:1.0;"/><line style="stroke:#181818;stroke-width:1.0;" x1="368" x2="492" y1="525.4824" y2="525.4824"/><text fill="#000000" font-family="sans-serif" font-size="13" lengthAdjust="spacing" textLength="102" x="375" y="520.2197">numberVacancy()</text><polygon fill="#181818" points="486,582.7734,496,586.7734,486,590.7734,490,586.7734" style="stroke:#181818;stroke-width:1.0;"/><line style="stroke:#181818;stroke-width:1.0;" x1="368" x2="492" y1="586.7734" y2="586.7734"/><text fill="#000000" font-family="sans-serif" font-size="13" lengthAdjust="spacing" textLength="71" x="375" y="581.5107">description()</text><polygon fill="#181818" points="486,644.0645,496,648.0645,486,652.0645,490,648.0645" style="stroke:#181818;stroke-width:1.0;"/><line style="stroke:#181818;stroke-width:1.0;" x1="368" x2="492" y1="648.0645" y2="648.0645"/><text fill="#000000" font-family="sans-serif" font-size="13" lengthAdjust="spacing" textLength="83" x="375" y="642.8018">jobReference()</text><polygon fill="#181818" points="486,705.3555,496,709.3555,486,713.3555,490,709.3555" style="stroke:#181818;stroke-width:1.0;"/><line style="stroke:#181818;stroke-width:1.0;" x1="368" x2="492" y1="709.3555" y2="709.3555"/><text fill="#000000" font-family="sans-serif" font-size="13" lengthAdjust="spacing" textLength="33" x="375" y="704.0928">rank()</text><polygon fill="#181818" points="771,783.9375,781,787.9375,771,791.9375,775,787.9375" style="stroke:#181818;stroke-width:1.0;"/><line style="stroke:#181818;stroke-width:1.0;" x1="368" x2="777" y1="787.9375" y2="787.9375"/><text fill="#000000" font-family="sans-serif" font-size="13" lengthAdjust="spacing" textLength="345" x="375" y="765.3838">create(jobFunction, jobOpeningStatus, contractType, mode,</text><text fill="#000000" font-family="sans-serif" font-size="13" lengthAdjust="spacing" textLength="285" x="379" y="782.6748">numberVacancy, description, jobReference, rank)</text><polygon fill="#181818" points="622,845.2285,632,849.2285,622,853.2285,626,849.2285" style="stroke:#181818;stroke-width:1.0;"/><line style="stroke:#181818;stroke-width:1.0;" x1="368" x2="628" y1="849.2285" y2="849.2285"/><text fill="#000000" font-family="sans-serif" font-size="13" lengthAdjust="spacing" textLength="120" x="375" y="843.9658">add(jobOpeningDTO)</text><polygon fill="#181818" points="171,896.2285,161,900.2285,171,904.2285,167,900.2285" style="stroke:#181818;stroke-width:1.0;"/><line style="stroke:#181818;stroke-width:1.0;stroke-dasharray:2.0,2.0;" x1="165" x2="362" y1="900.2285" y2="900.2285"/><polygon fill="#181818" points="11,927.5195,1,931.5195,11,935.5195,7,931.5195" style="stroke:#181818;stroke-width:1.0;"/><line style="stroke:#181818;stroke-width:1.0;stroke-dasharray:2.0,2.0;" x1="5" x2="154" y1="931.5195" y2="931.5195"/><text fill="#000000" font-family="sans-serif" font-size="13" lengthAdjust="spacing" textLength="43" x="17" y="926.2568">listDTO</text><!--SRC=[lLHDRnCn4BtxLunwePLsIJbmYQ98g5KFgAYe2Lme1zSxj0QlRMnlfFvxnjulRz8GBejFkvvvR-QDxVVcEGJhbuk5LLo7fbPlXQaN7dytg0MMbUHFZjUC1HaKmhSlctUNb- -XXC_S1SaLRAw_mvNHEtG1Fff7kBEefNw2M-a310FNspl6R4mMqb85E5kjkBLA2XwaqUlrWrx6NC9sq0zZr1DpS4OfT6V0FLnjxs_toJowdHIOY4QIJrIZ0wNDzdyVMvcQIxq77K4d-evjhqOSALqdB7t4q0dq1DZZ66FbEic49KsFTiv_3dcHz88nBeBSyO3jD1ZGIW02Pb89BzfZsRvA4s43KpwY58ah9oFkJbNaTKYWyuiXS-3fbVU12Wz2GqmPO-76EE1AGNX6e0x1j2rwa3hjgGdabQxIB_L4u9j6YpZShB53aPDGrbuR_CTAtI0tWOV6prnEn1T0kEsBnPbBrQQQkuHkwaTqNxdWMhpCNAj2Bvoq_-TAtECFTD4nPoxbkFurKmbweUFZpjvJSN3bYycjBDB5AHxqz7IB_02AoOoA9EE8YkY2HpGaW_oxWiwYU5LbZaVxnujD3EkKQQ6kad4TSSdEkzle_l1xVrsLPU_mqTwIg2mt4Vm1]--></g></svg>