<?xml version="1.0" encoding="us-ascii" standalone="no"?><svg xmlns="http://www.w3.org/2000/svg" xmlns:xlink="http://www.w3.org/1999/xlink" contentStyleType="text/css" height="1229px" preserveAspectRatio="none" style="width:1467px;height:1229px;background:#FFFFFF;" version="1.1" viewBox="0 0 1467 1229" width="1467px" zoomAndPan="magnify"><defs/><g><text fill="#000000" font-family="sans-serif" font-size="14" font-weight="bold" lengthAdjust="spacing" textLength="241" x="614.75" y="30.1074">[US1005 - Sequence Diagram Split]</text><rect fill="#FFFFFF" height="974.1973" style="stroke:#181818;stroke-width:1.0;" width="10" x="63.5" y="137.8633"/><rect fill="#FFFFFF" height="521.7441" style="stroke:#181818;stroke-width:1.0;" width="10" x="480.5" y="161.1543"/><rect fill="#FFFFFF" height="397.8711" style="stroke:#181818;stroke-width:1.0;" width="10" x="480.5" y="714.1895"/><rect fill="#FFFFFF" height="30" style="stroke:#181818;stroke-width:1.0;" width="10" x="719.5" y="192.4453"/><rect fill="#FFFFFF" height="397.8711" style="stroke:#181818;stroke-width:1.0;" width="10" x="719.5" y="253.7363"/><rect fill="#FFFFFF" height="335.2891" style="stroke:#181818;stroke-width:1.0;" width="10" x="719.5" y="745.4805"/><rect fill="#FFFFFF" height="31.291" style="stroke:#181818;stroke-width:1.0;" width="10" x="926.5" y="285.0273"/><rect fill="#FFFFFF" height="92.582" style="stroke:#181818;stroke-width:1.0;" width="10" x="1073.5" y="347.6094"/><rect fill="#FFFFFF" height="92.582" style="stroke:#181818;stroke-width:1.0;" width="10" x="1073.5" y="776.7715"/><rect fill="#FFFFFF" height="30" style="stroke:#181818;stroke-width:1.0;" width="10" x="1227.5" y="378.9004"/><rect fill="#FFFFFF" height="31.291" style="stroke:#181818;stroke-width:1.0;" width="10" x="1227.5" y="471.4824"/><rect fill="#FFFFFF" height="30" style="stroke:#181818;stroke-width:1.0;" width="10" x="1388" y="808.0625"/><rect fill="#FFFFFF" height="31.291" style="stroke:#181818;stroke-width:1.0;" width="10" x="1388" y="900.6445"/><line style="stroke:#181818;stroke-width:0.5;stroke-dasharray:5.0,5.0;" x1="68" x2="68" y1="127.8633" y2="1130.0605"/><line style="stroke:#181818;stroke-width:0.5;stroke-dasharray:5.0,5.0;" x1="485.5" x2="485.5" y1="127.8633" y2="1130.0605"/><line style="stroke:#181818;stroke-width:0.5;stroke-dasharray:5.0,5.0;" x1="724.5" x2="724.5" y1="127.8633" y2="1130.0605"/><line style="stroke:#181818;stroke-width:0.5;stroke-dasharray:5.0,5.0;" x1="931.5" x2="931.5" y1="127.8633" y2="1130.0605"/><line style="stroke:#181818;stroke-width:0.5;stroke-dasharray:5.0,5.0;" x1="1078.5" x2="1078.5" y1="127.8633" y2="1130.0605"/><line style="stroke:#181818;stroke-width:0.5;stroke-dasharray:5.0,5.0;" x1="1232.5" x2="1232.5" y1="127.8633" y2="1130.0605"/><line style="stroke:#181818;stroke-width:0.5;stroke-dasharray:5.0,5.0;" x1="1392.5" x2="1392.5" y1="127.8633" y2="1130.0605"/><text fill="#000000" font-family="sans-serif" font-size="14" lengthAdjust="spacing" textLength="121" x="5" y="124.3496">Customer Manager</text><ellipse cx="68.5" cy="57.7422" fill="#E3E3E3" rx="8" ry="8" style="stroke:#181818;stroke-width:0.5;"/><path d="M68.5,65.7422 L68.5,92.7422 M55.5,73.7422 L81.5,73.7422 M68.5,92.7422 L55.5,107.7422 M68.5,92.7422 L81.5,107.7422 " fill="none" style="stroke:#181818;stroke-width:0.5;"/><text fill="#000000" font-family="sans-serif" font-size="14" lengthAdjust="spacing" textLength="121" x="5" y="1144.168">Customer Manager</text><ellipse cx="68.5" cy="1156.1816" fill="#E3E3E3" rx="8" ry="8" style="stroke:#181818;stroke-width:0.5;"/><path d="M68.5,1164.1816 L68.5,1191.1816 M55.5,1172.1816 L81.5,1172.1816 M68.5,1191.1816 L55.5,1206.1816 M68.5,1191.1816 L81.5,1206.1816 " fill="none" style="stroke:#181818;stroke-width:0.5;"/><rect fill="#E3E3E3" height="51.2422" rx="2.5" ry="2.5" style="stroke:#181818;stroke-width:0.5;" width="204" x="383.5" y="75.6211"/><text fill="#000000" font-family="sans-serif" font-size="14" lengthAdjust="spacing" textLength="95" x="438" y="97.7285">&#171;presentation&#187;</text><text fill="#000000" font-family="sans-serif" font-size="14" lengthAdjust="spacing" textLength="190" x="390.5" y="116.3496">:ListJobOpeningApplicationsUI</text><rect fill="#E3E3E3" height="51.2422" rx="2.5" ry="2.5" style="stroke:#181818;stroke-width:0.5;" width="204" x="383.5" y="1129.0605"/><text fill="#000000" font-family="sans-serif" font-size="14" lengthAdjust="spacing" textLength="95" x="438" y="1151.168">&#171;presentation&#187;</text><text fill="#000000" font-family="sans-serif" font-size="14" lengthAdjust="spacing" textLength="190" x="390.5" y="1169.7891">:ListJobOpeningApplicationsUI</text><rect fill="#E3E3E3" height="51.2422" rx="2.5" ry="2.5" style="stroke:#181818;stroke-width:0.5;" width="254" x="597.5" y="75.6211"/><text fill="#000000" font-family="sans-serif" font-size="14" lengthAdjust="spacing" textLength="84" x="682.5" y="97.7285">&#171;application&#187;</text><text fill="#000000" font-family="sans-serif" font-size="14" lengthAdjust="spacing" textLength="240" x="604.5" y="116.3496">:ListJobOpeningApplicationsController</text><rect fill="#E3E3E3" height="51.2422" rx="2.5" ry="2.5" style="stroke:#181818;stroke-width:0.5;" width="254" x="597.5" y="1129.0605"/><text fill="#000000" font-family="sans-serif" font-size="14" lengthAdjust="spacing" textLength="84" x="682.5" y="1151.168">&#171;application&#187;</text><text fill="#000000" font-family="sans-serif" font-size="14" lengthAdjust="spacing" textLength="240" x="604.5" y="1169.7891">:ListJobOpeningApplicationsController</text><rect fill="#E3E3E3" height="51.2422" rx="2.5" ry="2.5" style="stroke:#181818;stroke-width:0.5;" width="140" x="861.5" y="75.6211"/><text fill="#000000" font-family="sans-serif" font-size="14" lengthAdjust="spacing" textLength="89" x="887" y="97.7285">&#171;persistence&#187;</text><text fill="#000000" font-family="sans-serif" font-size="14" lengthAdjust="spacing" textLength="126" x="868.5" y="116.3496">:PersistenceContext</text><rect fill="#E3E3E3" height="51.2422" rx="2.5" ry="2.5" style="stroke:#181818;stroke-width:0.5;" width="140" x="861.5" y="1129.0605"/><text fill="#000000" font-family="sans-serif" font-size="14" lengthAdjust="spacing" textLength="89" x="887" y="1151.168">&#171;persistence&#187;</text><text fill="#000000" font-family="sans-serif" font-size="14" lengthAdjust="spacing" textLength="126" x="868.5" y="1169.7891">:PersistenceContext</text><rect fill="#E3E3E3" height="51.2422" rx="2.5" ry="2.5" style="stroke:#181818;stroke-width:0.5;" width="134" x="1011.5" y="75.6211"/><text fill="#000000" font-family="sans-serif" font-size="14" lengthAdjust="spacing" textLength="59" x="1049" y="97.7285">&#171;factory&#187;</text><text fill="#000000" font-family="sans-serif" font-size="14" lengthAdjust="spacing" textLength="120" x="1018.5" y="116.3496">:RepositoryFactory</text><rect fill="#E3E3E3" height="51.2422" rx="2.5" ry="2.5" style="stroke:#181818;stroke-width:0.5;" width="134" x="1011.5" y="1129.0605"/><text fill="#000000" font-family="sans-serif" font-size="14" lengthAdjust="spacing" textLength="59" x="1049" y="1151.168">&#171;factory&#187;</text><text fill="#000000" font-family="sans-serif" font-size="14" lengthAdjust="spacing" textLength="120" x="1018.5" y="1169.7891">:RepositoryFactory</text><text fill="#000000" font-family="sans-serif" font-size="14" lengthAdjust="spacing" textLength="79" x="1190" y="105.7285">&#171;repository&#187;</text><text fill="#000000" font-family="sans-serif" font-size="14" lengthAdjust="spacing" textLength="148" x="1155.5" y="124.3496">:JobOpeningRepository</text><path d="M1214.5,54.6211 C1214.5,44.6211 1232.5,44.6211 1232.5,44.6211 C1232.5,44.6211 1250.5,44.6211 1250.5,54.6211 L1250.5,80.6211 C1250.5,90.6211 1232.5,90.6211 1232.5,90.6211 C1232.5,90.6211 1214.5,90.6211 1214.5,80.6211 L1214.5,54.6211 " fill="#E3E3E3" style="stroke:#181818;stroke-width:1.5;"/><path d="M1214.5,54.6211 C1214.5,64.6211 1232.5,64.6211 1232.5,64.6211 C1232.5,64.6211 1250.5,64.6211 1250.5,54.6211 " fill="none" style="stroke:#181818;stroke-width:1.5;"/><text fill="#000000" font-family="sans-serif" font-size="14" lengthAdjust="spacing" textLength="79" x="1190" y="1144.168">&#171;repository&#187;</text><text fill="#000000" font-family="sans-serif" font-size="14" lengthAdjust="spacing" textLength="148" x="1155.5" y="1162.7891">:JobOpeningRepository</text><path d="M1214.5,1176.3027 C1214.5,1166.3027 1232.5,1166.3027 1232.5,1166.3027 C1232.5,1166.3027 1250.5,1166.3027 1250.5,1176.3027 L1250.5,1202.3027 C1250.5,1212.3027 1232.5,1212.3027 1232.5,1212.3027 C1232.5,1212.3027 1214.5,1212.3027 1214.5,1202.3027 L1214.5,1176.3027 " fill="#E3E3E3" style="stroke:#181818;stroke-width:1.5;"/><path d="M1214.5,1176.3027 C1214.5,1186.3027 1232.5,1186.3027 1232.5,1186.3027 C1232.5,1186.3027 1250.5,1186.3027 1250.5,1176.3027 " fill="none" style="stroke:#181818;stroke-width:1.5;"/><text fill="#000000" font-family="sans-serif" font-size="14" lengthAdjust="spacing" textLength="79" x="1350.5" y="105.7285">&#171;repository&#187;</text><text fill="#000000" font-family="sans-serif" font-size="14" lengthAdjust="spacing" textLength="141" x="1319.5" y="124.3496">:ApplicationRepository</text><path d="M1375,54.6211 C1375,44.6211 1393,44.6211 1393,44.6211 C1393,44.6211 1411,44.6211 1411,54.6211 L1411,80.6211 C1411,90.6211 1393,90.6211 1393,90.6211 C1393,90.6211 1375,90.6211 1375,80.6211 L1375,54.6211 " fill="#E3E3E3" style="stroke:#181818;stroke-width:1.5;"/><path d="M1375,54.6211 C1375,64.6211 1393,64.6211 1393,64.6211 C1393,64.6211 1411,64.6211 1411,54.6211 " fill="none" style="stroke:#181818;stroke-width:1.5;"/><text fill="#000000" font-family="sans-serif" font-size="14" lengthAdjust="spacing" textLength="79" x="1350.5" y="1144.168">&#171;repository&#187;</text><text fill="#000000" font-family="sans-serif" font-size="14" lengthAdjust="spacing" textLength="141" x="1319.5" y="1162.7891">:ApplicationRepository</text><path d="M1375,1176.3027 C1375,1166.3027 1393,1166.3027 1393,1166.3027 C1393,1166.3027 1411,1166.3027 1411,1176.3027 L1411,1202.3027 C1411,1212.3027 1393,1212.3027 1393,1212.3027 C1393,1212.3027 1375,1212.3027 1375,1202.3027 L1375,1176.3027 " fill="#E3E3E3" style="stroke:#181818;stroke-width:1.5;"/><path d="M1375,1176.3027 C1375,1186.3027 1393,1186.3027 1393,1186.3027 C1393,1186.3027 1411,1186.3027 1411,1176.3027 " fill="none" style="stroke:#181818;stroke-width:1.5;"/><rect fill="#FFFFFF" height="974.1973" style="stroke:#181818;stroke-width:1.0;" width="10" x="63.5" y="137.8633"/><rect fill="#FFFFFF" height="521.7441" style="stroke:#181818;stroke-width:1.0;" width="10" x="480.5" y="161.1543"/><rect fill="#FFFFFF" height="397.8711" style="stroke:#181818;stroke-width:1.0;" width="10" x="480.5" y="714.1895"/><rect fill="#FFFFFF" height="30" style="stroke:#181818;stroke-width:1.0;" width="10" x="719.5" y="192.4453"/><rect fill="#FFFFFF" height="397.8711" style="stroke:#181818;stroke-width:1.0;" width="10" x="719.5" y="253.7363"/><rect fill="#FFFFFF" height="335.2891" style="stroke:#181818;stroke-width:1.0;" width="10" x="719.5" y="745.4805"/><rect fill="#FFFFFF" height="31.291" style="stroke:#181818;stroke-width:1.0;" width="10" x="926.5" y="285.0273"/><rect fill="#FFFFFF" height="92.582" style="stroke:#181818;stroke-width:1.0;" width="10" x="1073.5" y="347.6094"/><rect fill="#FFFFFF" height="92.582" style="stroke:#181818;stroke-width:1.0;" width="10" x="1073.5" y="776.7715"/><rect fill="#FFFFFF" height="30" style="stroke:#181818;stroke-width:1.0;" width="10" x="1227.5" y="378.9004"/><rect fill="#FFFFFF" height="31.291" style="stroke:#181818;stroke-width:1.0;" width="10" x="1227.5" y="471.4824"/><rect fill="#FFFFFF" height="30" style="stroke:#181818;stroke-width:1.0;" width="10" x="1388" y="808.0625"/><rect fill="#FFFFFF" height="31.291" style="stroke:#181818;stroke-width:1.0;" width="10" x="1388" y="900.6445"/><polygon fill="#181818" points="468.5,157.1543,478.5,161.1543,468.5,165.1543,472.5,161.1543" style="stroke:#181818;stroke-width:1.0;"/><line style="stroke:#181818;stroke-width:1.0;" x1="73.5" x2="474.5" y1="161.1543" y2="161.1543"/><text fill="#000000" font-family="sans-serif" font-size="13" font-weight="bold" lengthAdjust="spacing" textLength="7" x="80.5" y="155.8916">1</text><text fill="#000000" font-family="sans-serif" font-size="13" lengthAdjust="spacing" textLength="264" x="91.5" y="155.8916">asks to list all the applications for job opening</text><polygon fill="#181818" points="707.5,188.4453,717.5,192.4453,707.5,196.4453,711.5,192.4453" style="stroke:#181818;stroke-width:1.0;"/><line style="stroke:#181818;stroke-width:1.0;" x1="490.5" x2="713.5" y1="192.4453" y2="192.4453"/><text fill="#000000" font-family="sans-serif" font-size="13" font-weight="bold" lengthAdjust="spacing" textLength="7" x="497.5" y="187.1826">2</text><text fill="#000000" font-family="sans-serif" font-size="13" lengthAdjust="spacing" textLength="44" x="508.5" y="187.1826">create()</text><polygon fill="#181818" points="707.5,249.7363,717.5,253.7363,707.5,257.7363,711.5,253.7363" style="stroke:#181818;stroke-width:1.0;"/><line style="stroke:#181818;stroke-width:1.0;" x1="490.5" x2="713.5" y1="253.7363" y2="253.7363"/><text fill="#000000" font-family="sans-serif" font-size="13" font-weight="bold" lengthAdjust="spacing" textLength="7" x="497.5" y="248.4736">3</text><text fill="#000000" font-family="sans-serif" font-size="13" lengthAdjust="spacing" textLength="115" x="508.5" y="248.4736">getJobOpeningList()</text><polygon fill="#181818" points="914.5,281.0273,924.5,285.0273,914.5,289.0273,918.5,285.0273" style="stroke:#181818;stroke-width:1.0;"/><line style="stroke:#181818;stroke-width:1.0;" x1="729.5" x2="920.5" y1="285.0273" y2="285.0273"/><text fill="#000000" font-family="sans-serif" font-size="13" font-weight="bold" lengthAdjust="spacing" textLength="7" x="736.5" y="279.7646">4</text><text fill="#000000" font-family="sans-serif" font-size="13" lengthAdjust="spacing" textLength="75" x="747.5" y="279.7646">getInstance()</text><polygon fill="#181818" points="740.5,312.3184,730.5,316.3184,740.5,320.3184,736.5,316.3184" style="stroke:#181818;stroke-width:1.0;"/><line style="stroke:#181818;stroke-width:1.0;stroke-dasharray:2.0,2.0;" x1="734.5" x2="930.5" y1="316.3184" y2="316.3184"/><text fill="#000000" font-family="sans-serif" font-size="13" font-weight="bold" lengthAdjust="spacing" textLength="7" x="746.5" y="311.0557">5</text><text fill="#000000" font-family="sans-serif" font-size="13" lengthAdjust="spacing" textLength="67" x="757.5" y="311.0557">repositories</text><polygon fill="#181818" points="1061.5,343.6094,1071.5,347.6094,1061.5,351.6094,1065.5,347.6094" style="stroke:#181818;stroke-width:1.0;"/><line style="stroke:#181818;stroke-width:1.0;" x1="729.5" x2="1067.5" y1="347.6094" y2="347.6094"/><text fill="#000000" font-family="sans-serif" font-size="13" font-weight="bold" lengthAdjust="spacing" textLength="7" x="736.5" y="342.3467">6</text><text fill="#000000" font-family="sans-serif" font-size="13" lengthAdjust="spacing" textLength="156" x="747.5" y="342.3467">getJobOpeningRepository()</text><polygon fill="#181818" points="1215.5,374.9004,1225.5,378.9004,1215.5,382.9004,1219.5,378.9004" style="stroke:#181818;stroke-width:1.0;"/><line style="stroke:#181818;stroke-width:1.0;" x1="1083.5" x2="1221.5" y1="378.9004" y2="378.9004"/><text fill="#000000" font-family="sans-serif" font-size="13" font-weight="bold" lengthAdjust="spacing" textLength="7" x="1090.5" y="373.6377">7</text><text fill="#000000" font-family="sans-serif" font-size="13" lengthAdjust="spacing" textLength="44" x="1101.5" y="373.6377">create()</text><polygon fill="#181818" points="740.5,436.1914,730.5,440.1914,740.5,444.1914,736.5,440.1914" style="stroke:#181818;stroke-width:1.0;"/><line style="stroke:#181818;stroke-width:1.0;stroke-dasharray:2.0,2.0;" x1="734.5" x2="1077.5" y1="440.1914" y2="440.1914"/><text fill="#000000" font-family="sans-serif" font-size="13" font-weight="bold" lengthAdjust="spacing" textLength="7" x="746.5" y="434.9287">8</text><text fill="#000000" font-family="sans-serif" font-size="13" lengthAdjust="spacing" textLength="130" x="757.5" y="434.9287">JobOpeningRepository</text><polygon fill="#181818" points="1215.5,467.4824,1225.5,471.4824,1215.5,475.4824,1219.5,471.4824" style="stroke:#181818;stroke-width:1.0;"/><line style="stroke:#181818;stroke-width:1.0;" x1="729.5" x2="1221.5" y1="471.4824" y2="471.4824"/><text fill="#000000" font-family="sans-serif" font-size="13" font-weight="bold" lengthAdjust="spacing" textLength="7" x="736.5" y="466.2197">9</text><text fill="#000000" font-family="sans-serif" font-size="13" lengthAdjust="spacing" textLength="115" x="747.5" y="466.2197">getJobOpeningList()</text><polygon fill="#181818" points="740.5,498.7734,730.5,502.7734,740.5,506.7734,736.5,502.7734" style="stroke:#181818;stroke-width:1.0;"/><line style="stroke:#181818;stroke-width:1.0;stroke-dasharray:2.0,2.0;" x1="734.5" x2="1231.5" y1="502.7734" y2="502.7734"/><text fill="#000000" font-family="sans-serif" font-size="13" font-weight="bold" lengthAdjust="spacing" textLength="14" x="746.5" y="497.5107">10</text><text fill="#000000" font-family="sans-serif" font-size="13" lengthAdjust="spacing" textLength="86" x="764.5" y="497.5107">jobOpeningList</text><line style="stroke:#181818;stroke-width:1.0;" x1="729.5" x2="771.5" y1="559.0645" y2="559.0645"/><line style="stroke:#181818;stroke-width:1.0;" x1="771.5" x2="771.5" y1="559.0645" y2="572.0645"/><line style="stroke:#181818;stroke-width:1.0;" x1="730.5" x2="771.5" y1="572.0645" y2="572.0645"/><polygon fill="#181818" points="740.5,568.0645,730.5,572.0645,740.5,576.0645,736.5,572.0645" style="stroke:#181818;stroke-width:1.0;"/><text fill="#000000" font-family="sans-serif" font-size="13" font-weight="bold" lengthAdjust="spacing" textLength="14" x="736.5" y="553.8018">11</text><text fill="#000000" font-family="sans-serif" font-size="13" lengthAdjust="spacing" textLength="131" x="754.5" y="553.8018">toDTO(jobOpeningList)</text><rect fill="none" height="43.252" style="stroke:#000000;stroke-width:1.5;" width="260" x="594.5" y="580.0645"/><path d="M594.5,580.0645 L656.5,580.0645 L656.5,589.0645 L646.5,599.0645 L594.5,599.0645 L594.5,580.0645 " fill="#EEEEEE" style="stroke:#000000;stroke-width:2.0;"/><text fill="#000000" font-family="sans-serif" font-size="13" font-weight="bold" lengthAdjust="spacing" textLength="17" x="607.5" y="596.0928">ref</text><text fill="#000000" font-family="sans-serif" font-size="12" lengthAdjust="spacing" textLength="176" x="636.5" y="616.0137">Convert job Opening List to DTO</text><polygon fill="#181818" points="501.5,647.6074,491.5,651.6074,501.5,655.6074,497.5,651.6074" style="stroke:#181818;stroke-width:1.0;"/><line style="stroke:#181818;stroke-width:1.0;stroke-dasharray:2.0,2.0;" x1="495.5" x2="723.5" y1="651.6074" y2="651.6074"/><text fill="#000000" font-family="sans-serif" font-size="13" font-weight="bold" lengthAdjust="spacing" textLength="14" x="507.5" y="646.3447">12</text><text fill="#000000" font-family="sans-serif" font-size="13" lengthAdjust="spacing" textLength="112" x="525.5" y="646.3447">jobOpeningListDTO</text><polygon fill="#181818" points="84.5,678.8984,74.5,682.8984,84.5,686.8984,80.5,682.8984" style="stroke:#181818;stroke-width:1.0;"/><line style="stroke:#181818;stroke-width:1.0;stroke-dasharray:2.0,2.0;" x1="78.5" x2="484.5" y1="682.8984" y2="682.8984"/><text fill="#000000" font-family="sans-serif" font-size="13" font-weight="bold" lengthAdjust="spacing" textLength="14" x="90.5" y="677.6357">13</text><text fill="#000000" font-family="sans-serif" font-size="13" lengthAdjust="spacing" textLength="365" x="108.5" y="677.6357">shows the job opening with applications and asks to select one</text><polygon fill="#181818" points="468.5,710.1895,478.5,714.1895,468.5,718.1895,472.5,714.1895" style="stroke:#181818;stroke-width:1.0;"/><line style="stroke:#181818;stroke-width:1.0;" x1="73.5" x2="474.5" y1="714.1895" y2="714.1895"/><text fill="#000000" font-family="sans-serif" font-size="13" font-weight="bold" lengthAdjust="spacing" textLength="14" x="80.5" y="708.9268">14</text><text fill="#000000" font-family="sans-serif" font-size="13" lengthAdjust="spacing" textLength="134" x="98.5" y="708.9268">selects the job opening</text><polygon fill="#181818" points="707.5,741.4805,717.5,745.4805,707.5,749.4805,711.5,745.4805" style="stroke:#181818;stroke-width:1.0;"/><line style="stroke:#181818;stroke-width:1.0;" x1="490.5" x2="713.5" y1="745.4805" y2="745.4805"/><text fill="#000000" font-family="sans-serif" font-size="13" font-weight="bold" lengthAdjust="spacing" textLength="14" x="497.5" y="740.2178">15</text><text fill="#000000" font-family="sans-serif" font-size="13" lengthAdjust="spacing" textLength="118" x="515.5" y="740.2178">getApplicationsList()</text><polygon fill="#181818" points="1061.5,772.7715,1071.5,776.7715,1061.5,780.7715,1065.5,776.7715" style="stroke:#181818;stroke-width:1.0;"/><line style="stroke:#181818;stroke-width:1.0;" x1="729.5" x2="1067.5" y1="776.7715" y2="776.7715"/><text fill="#000000" font-family="sans-serif" font-size="13" font-weight="bold" lengthAdjust="spacing" textLength="14" x="736.5" y="771.5088">16</text><text fill="#000000" font-family="sans-serif" font-size="13" lengthAdjust="spacing" textLength="159" x="754.5" y="771.5088">getApplicationsRepository()</text><polygon fill="#181818" points="1376,804.0625,1386,808.0625,1376,812.0625,1380,808.0625" style="stroke:#181818;stroke-width:1.0;"/><line style="stroke:#181818;stroke-width:1.0;" x1="1083.5" x2="1382" y1="808.0625" y2="808.0625"/><text fill="#000000" font-family="sans-serif" font-size="13" font-weight="bold" lengthAdjust="spacing" textLength="14" x="1090.5" y="802.7998">17</text><text fill="#000000" font-family="sans-serif" font-size="13" lengthAdjust="spacing" textLength="44" x="1108.5" y="802.7998">create()</text><polygon fill="#181818" points="740.5,865.3535,730.5,869.3535,740.5,873.3535,736.5,869.3535" style="stroke:#181818;stroke-width:1.0;"/><line style="stroke:#181818;stroke-width:1.0;stroke-dasharray:2.0,2.0;" x1="734.5" x2="1077.5" y1="869.3535" y2="869.3535"/><text fill="#000000" font-family="sans-serif" font-size="13" font-weight="bold" lengthAdjust="spacing" textLength="14" x="746.5" y="864.0908">18</text><text fill="#000000" font-family="sans-serif" font-size="13" lengthAdjust="spacing" textLength="126" x="764.5" y="864.0908">ApplicationRepository</text><polygon fill="#181818" points="1376,896.6445,1386,900.6445,1376,904.6445,1380,900.6445" style="stroke:#181818;stroke-width:1.0;"/><line style="stroke:#181818;stroke-width:1.0;" x1="729.5" x2="1382" y1="900.6445" y2="900.6445"/><text fill="#000000" font-family="sans-serif" font-size="13" font-weight="bold" lengthAdjust="spacing" textLength="14" x="736.5" y="895.3818">19</text><text fill="#000000" font-family="sans-serif" font-size="13" lengthAdjust="spacing" textLength="183" x="754.5" y="895.3818">getApplicationsList(jobOpening)</text><polygon fill="#181818" points="740.5,927.9355,730.5,931.9355,740.5,935.9355,736.5,931.9355" style="stroke:#181818;stroke-width:1.0;"/><line style="stroke:#181818;stroke-width:1.0;stroke-dasharray:2.0,2.0;" x1="734.5" x2="1392" y1="931.9355" y2="931.9355"/><text fill="#000000" font-family="sans-serif" font-size="13" font-weight="bold" lengthAdjust="spacing" textLength="14" x="746.5" y="926.6729">20</text><text fill="#000000" font-family="sans-serif" font-size="13" lengthAdjust="spacing" textLength="90" x="764.5" y="926.6729">applicationsList</text><line style="stroke:#181818;stroke-width:1.0;" x1="729.5" x2="771.5" y1="988.2266" y2="988.2266"/><line style="stroke:#181818;stroke-width:1.0;" x1="771.5" x2="771.5" y1="988.2266" y2="1001.2266"/><line style="stroke:#181818;stroke-width:1.0;" x1="730.5" x2="771.5" y1="1001.2266" y2="1001.2266"/><polygon fill="#181818" points="740.5,997.2266,730.5,1001.2266,740.5,1005.2266,736.5,1001.2266" style="stroke:#181818;stroke-width:1.0;"/><text fill="#000000" font-family="sans-serif" font-size="13" font-weight="bold" lengthAdjust="spacing" textLength="14" x="736.5" y="982.9639">21</text><text fill="#000000" font-family="sans-serif" font-size="13" lengthAdjust="spacing" textLength="135" x="754.5" y="982.9639">toDTO(applicationsList)</text><rect fill="none" height="43.252" style="stroke:#000000;stroke-width:1.5;" width="260" x="594.5" y="1009.2266"/><path d="M594.5,1009.2266 L656.5,1009.2266 L656.5,1018.2266 L646.5,1028.2266 L594.5,1028.2266 L594.5,1009.2266 " fill="#EEEEEE" style="stroke:#000000;stroke-width:2.0;"/><text fill="#000000" font-family="sans-serif" font-size="13" font-weight="bold" lengthAdjust="spacing" textLength="17" x="607.5" y="1025.2549">ref</text><text fill="#000000" font-family="sans-serif" font-size="12" lengthAdjust="spacing" textLength="176" x="636.5" y="1045.1758">Convert applications List to DTO</text><polygon fill="#181818" points="501.5,1076.7695,491.5,1080.7695,501.5,1084.7695,497.5,1080.7695" style="stroke:#181818;stroke-width:1.0;"/><line style="stroke:#181818;stroke-width:1.0;stroke-dasharray:2.0,2.0;" x1="495.5" x2="723.5" y1="1080.7695" y2="1080.7695"/><text fill="#000000" font-family="sans-serif" font-size="13" font-weight="bold" lengthAdjust="spacing" textLength="14" x="507.5" y="1075.5068">22</text><text fill="#000000" font-family="sans-serif" font-size="13" lengthAdjust="spacing" textLength="116" x="525.5" y="1075.5068">applicationsListDTO</text><polygon fill="#181818" points="79.5,1108.0605,69.5,1112.0605,79.5,1116.0605,75.5,1112.0605" style="stroke:#181818;stroke-width:1.0;"/><line style="stroke:#181818;stroke-width:1.0;stroke-dasharray:2.0,2.0;" x1="73.5" x2="484.5" y1="1112.0605" y2="1112.0605"/><text fill="#000000" font-family="sans-serif" font-size="13" font-weight="bold" lengthAdjust="spacing" textLength="14" x="85.5" y="1106.7979">23</text><text fill="#000000" font-family="sans-serif" font-size="13" lengthAdjust="spacing" textLength="153" x="103.5" y="1106.7979">shows the applications list</text><!--SRC=[hLR1RXen4BtlLuoua1oGqaClKOHK4KLA5PGgX5FRWra6SBBOMziaZPIFxzZ0xgpN2pJANj3QyzxCsE_DOf-bAeKHQrXhfVELqMi4PpQOsMgd5FcpMEB4lHK81dCdrBBW0NObvlfLgYKiH64noyJ6QRLPpz1acPEEO3-daoyN5rzX01Fyiq6L8rnBiVJeILb8zvj0kTC6UgEDTLI4WR5GbDNqG5WOZJDAvMGkIw4SzAwkIeCMbHDEQZKS_bANTzAwxtfsNwAYIhwLn9g7NJkz3HpJsvX3r457A4PQEQEBOb_EuyDTgo0qbl2-jK3setxtQFph0fGjnmoBS09l0Vs0fRRIlzviLmEuNfr8VmTqojbSE34J5Zs3gVO3ITrB3GmygOsiVw2S6i3BQQssEEPwBQIAA2BieGxO7KGj97SEzi0Gl8dsyg4kM7IC3WgMByAXbsis6iDWIAA3Iufxjk0q57Jn88e2t0g1YS_2WfJ_f6UWTqTICP5eC-8W9gyvuieDqlhPES_crJZ7vZk7NS8IcR2zp8aWYWTwGWu2CP520DygIwxFVLuVLq6vciCEHmwgzDMjIhGXZ5NRejWNaH0xH9tK8N5XAQU4Y1Gh9KjnyjDka2Vj4xMLZEcke3ggKxWxcziVNKStAHKSRoo491a7jIoV6hod7yRx-tluvTNlA9s-Vhm_QnAVLy7zX7ptZy45w1VwX8GjY1wQnhJdWjzsrE2vlKCfOoCUrToprVJzRP5TZNDylsN9PgFxwT1cY8zlY_P-zdd7XB4h_Mh3665J0rwbMpNdYg3wzzF7Oa7VRj0A-R3m0uQDgcrGYxfh80LDyG_byTdIQMjEytd6Jdud6dEqGP_-h4JtaGuwmTmdiHzrTrTBgQkenNL-IgCX9itFD2-YBFznFaVz7dD_fkCRrlYuvUCIFsBw54VQzXs-R_JY_rZ4fkP4z7Sa-mS0]--></g></svg>