<?xml version="1.0" encoding="UTF-8" standalone="no"?><svg xmlns="http://www.w3.org/2000/svg" xmlns:xlink="http://www.w3.org/1999/xlink" contentStyleType="text/css" height="563px" preserveAspectRatio="none" style="width:812px;height:563px;background:#FFFFFF;" version="1.1" viewBox="0 0 812 563" width="812px" zoomAndPan="magnify"><defs/><g><text fill="#000000" font-family="sans-serif" font-size="14" font-weight="bold" lengthAdjust="spacing" textLength="241" x="287" y="29.5332">US3001 System Sequence Diagram</text><rect fill="#FFFFFF" height="317.4063" style="stroke:#181818;stroke-width:1.0;" width="10" x="47.5" y="138.7656"/><rect fill="#FFFFFF" height="317.4063" style="stroke:#181818;stroke-width:1.0;" width="10" x="276.5" y="138.7656"/><rect fill="#FFFFFF" height="176.7813" style="stroke:#181818;stroke-width:1.0;" width="10" x="708.5" y="209.0781"/><rect fill="none" height="115.625" style="stroke:#000000;stroke-width:1.5;" width="613.5" x="192.5" y="263.2344"/><line style="stroke:#181818;stroke-width:0.5;stroke-dasharray:5.0,5.0;" x1="52" x2="52" y1="128.7656" y2="474.1719"/><line style="stroke:#181818;stroke-width:0.5;stroke-dasharray:5.0,5.0;" x1="281.5" x2="281.5" y1="128.7656" y2="474.1719"/><line style="stroke:#181818;stroke-width:0.5;stroke-dasharray:5.0,5.0;" x1="713" x2="713" y1="128.7656" y2="474.1719"/><text fill="#000000" font-family="sans-serif" font-size="20" lengthAdjust="spacing" textLength="89" x="5" y="124.3711">Candidate</text><ellipse cx="52.5" cy="52.1094" fill="#E2E2F0" rx="8" ry="8" style="stroke:#181818;stroke-width:0.5;"/><path d="M52.5,60.1094 L52.5,87.1094 M39.5,68.1094 L65.5,68.1094 M52.5,87.1094 L39.5,102.1094 M52.5,87.1094 L65.5,102.1094 " fill="none" style="stroke:#181818;stroke-width:0.5;"/><text fill="#000000" font-family="sans-serif" font-size="20" lengthAdjust="spacing" textLength="89" x="5" y="493.9336">Candidate</text><ellipse cx="52.5" cy="506.8281" fill="#E2E2F0" rx="8" ry="8" style="stroke:#181818;stroke-width:0.5;"/><path d="M52.5,514.8281 L52.5,541.8281 M39.5,522.8281 L65.5,522.8281 M52.5,541.8281 L39.5,556.8281 M52.5,541.8281 L65.5,556.8281 " fill="none" style="stroke:#181818;stroke-width:0.5;"/><rect fill="#E2E2F0" height="64.3125" rx="2.5" ry="2.5" style="stroke:#181818;stroke-width:0.5;" width="158" x="202.5" y="63.4531"/><text fill="#000000" font-family="sans-serif" font-size="20" lengthAdjust="spacing" textLength="66" x="248.5" y="91.2148">System</text><text fill="#000000" font-family="sans-serif" font-size="20" lengthAdjust="spacing" textLength="144" x="209.5" y="116.3711">(Candidate App)</text><rect fill="#E2E2F0" height="64.3125" rx="2.5" ry="2.5" style="stroke:#181818;stroke-width:0.5;" width="158" x="202.5" y="473.1719"/><text fill="#000000" font-family="sans-serif" font-size="20" lengthAdjust="spacing" textLength="66" x="248.5" y="500.9336">System</text><text fill="#000000" font-family="sans-serif" font-size="20" lengthAdjust="spacing" textLength="144" x="209.5" y="526.0898">(Candidate App)</text><rect fill="#E2E2F0" height="39.1563" rx="2.5" ry="2.5" style="stroke:#181818;stroke-width:0.5;" width="165" x="631" y="88.6094"/><text fill="#000000" font-family="sans-serif" font-size="20" lengthAdjust="spacing" textLength="151" x="638" y="116.3711">Follow Up Server</text><rect fill="#E2E2F0" height="39.1563" rx="2.5" ry="2.5" style="stroke:#181818;stroke-width:0.5;" width="165" x="631" y="473.1719"/><text fill="#000000" font-family="sans-serif" font-size="20" lengthAdjust="spacing" textLength="151" x="638" y="500.9336">Follow Up Server</text><rect fill="#FFFFFF" height="317.4063" style="stroke:#181818;stroke-width:1.0;" width="10" x="47.5" y="138.7656"/><rect fill="#FFFFFF" height="317.4063" style="stroke:#181818;stroke-width:1.0;" width="10" x="276.5" y="138.7656"/><rect fill="#FFFFFF" height="176.7813" style="stroke:#181818;stroke-width:1.0;" width="10" x="708.5" y="209.0781"/><polygon fill="#181818" points="264.5,165.9219,274.5,169.9219,264.5,173.9219,268.5,169.9219" style="stroke:#181818;stroke-width:1.0;"/><line style="stroke:#181818;stroke-width:1.0;" x1="57.5" x2="270.5" y1="169.9219" y2="169.9219"/><text fill="#000000" font-family="sans-serif" font-size="20" font-weight="bold" lengthAdjust="spacing" textLength="11" x="64.5" y="163.5273">1</text><text fill="#000000" font-family="sans-serif" font-size="20" lengthAdjust="spacing" textLength="116" x="79.5" y="163.5273">authenticates</text><polygon fill="#181818" points="696.5,205.0781,706.5,209.0781,696.5,213.0781,700.5,209.0781" style="stroke:#181818;stroke-width:1.0;"/><line style="stroke:#181818;stroke-width:1.0;" x1="286.5" x2="702.5" y1="209.0781" y2="209.0781"/><text fill="#000000" font-family="sans-serif" font-size="20" font-weight="bold" lengthAdjust="spacing" textLength="11" x="293.5" y="202.6836">2</text><text fill="#000000" font-family="sans-serif" font-size="20" lengthAdjust="spacing" textLength="242" x="308.5" y="202.6836">establishes TCP connection</text><polygon fill="#181818" points="696.5,244.2344,706.5,248.2344,696.5,252.2344,700.5,248.2344" style="stroke:#181818;stroke-width:1.0;"/><line style="stroke:#181818;stroke-width:1.0;" x1="286.5" x2="702.5" y1="248.2344" y2="248.2344"/><text fill="#000000" font-family="sans-serif" font-size="20" font-weight="bold" lengthAdjust="spacing" textLength="11" x="293.5" y="241.8398">3</text><text fill="#000000" font-family="sans-serif" font-size="20" lengthAdjust="spacing" textLength="150" x="308.5" y="241.8398">authenticate user</text><path d="M192.5,263.2344 L278.5,263.2344 L278.5,280.3906 L268.5,290.3906 L192.5,290.3906 L192.5,263.2344 " fill="#EEEEEE" style="stroke:#000000;stroke-width:1.5;"/><rect fill="none" height="115.625" style="stroke:#000000;stroke-width:1.5;" width="613.5" x="192.5" y="263.2344"/><text fill="#000000" font-family="sans-serif" font-size="20" font-weight="bold" lengthAdjust="spacing" textLength="41" x="207.5" y="284.9961">loop</text><text fill="#000000" font-family="sans-serif" font-size="20" font-weight="bold" lengthAdjust="spacing" textLength="138" x="293.5" y="285.9961">[Every minute]</text><polygon fill="#181818" points="696.5,327.7031,706.5,331.7031,696.5,335.7031,700.5,331.7031" style="stroke:#181818;stroke-width:1.0;"/><line style="stroke:#181818;stroke-width:1.0;" x1="286.5" x2="702.5" y1="331.7031" y2="331.7031"/><text fill="#000000" font-family="sans-serif" font-size="20" font-weight="bold" lengthAdjust="spacing" textLength="11" x="293.5" y="325.3086">4</text><text fill="#000000" font-family="sans-serif" font-size="20" lengthAdjust="spacing" textLength="383" x="308.5" y="325.3086">requests all unseen candidate's notifications</text><polygon fill="#181818" points="297.5,366.8594,287.5,370.8594,297.5,374.8594,293.5,370.8594" style="stroke:#181818;stroke-width:1.0;"/><line style="stroke:#181818;stroke-width:1.0;stroke-dasharray:2.0,2.0;" x1="291.5" x2="707.5" y1="370.8594" y2="370.8594"/><text fill="#000000" font-family="sans-serif" font-size="20" font-weight="bold" lengthAdjust="spacing" textLength="11" x="303.5" y="364.4648">5</text><text fill="#000000" font-family="sans-serif" font-size="20" lengthAdjust="spacing" textLength="208" x="318.5" y="364.4648">candidate's notifications</text><polygon fill="#181818" points="264.5,413.0156,274.5,417.0156,264.5,421.0156,268.5,417.0156" style="stroke:#181818;stroke-width:1.0;"/><line style="stroke:#181818;stroke-width:1.0;" x1="57.5" x2="270.5" y1="417.0156" y2="417.0156"/><text fill="#000000" font-family="sans-serif" font-size="20" font-weight="bold" lengthAdjust="spacing" textLength="11" x="64.5" y="410.6211">6</text><text fill="#000000" font-family="sans-serif" font-size="20" lengthAdjust="spacing" textLength="180" x="79.5" y="410.6211">asks for notifications</text><polygon fill="#181818" points="63.5,452.1719,53.5,456.1719,63.5,460.1719,59.5,456.1719" style="stroke:#181818;stroke-width:1.0;"/><line style="stroke:#181818;stroke-width:1.0;stroke-dasharray:2.0,2.0;" x1="57.5" x2="280.5" y1="456.1719" y2="456.1719"/><text fill="#000000" font-family="sans-serif" font-size="20" font-weight="bold" lengthAdjust="spacing" textLength="11" x="69.5" y="449.7773">7</text><text fill="#000000" font-family="sans-serif" font-size="20" lengthAdjust="spacing" textLength="165" x="84.5" y="449.7773">shows notifications</text><!--SRC=[ZL9BRy8m3BxtLrXSjXsGs7RZC0dnE4uJ7PCcxH9QCo9IfwiT4FlrSy96omGIFZNEzufTtbYgJMCgvuiDbb3YoWGdCq-Iss-4Xq6MYHM7iCWV1uDxoFSiM46ENm6fG9XOywdqB3D1F8LgYOr-5-8Rw8qDbROqWZqm3EFHyoHJBx65hGq9z0vQ7tHx1CAehkyIEd_FJy4pxvpVmQ9MxsQBpG4rdRzDvydGRYC_qZBGEdQIRMh5YYVeFqKS344phv7KGu7SWk9bn2HnXI6BMJhBQsHu7Rz0uObGzJsrd3R1RwHBObrF21p71ProtjSmrVVjeR8K14-lpoasSHSi3COv2CI81CNVH6yOo8jTHJyDp6Va3ZhzurIkv2ALRQF4YmFuDtBUCApqxxYWd1wdwCGQ0g_zxcoAhc7SUUUSDlu3]--></g></svg>