<?xml version="1.0" encoding="UTF-8" standalone="no"?><svg xmlns="http://www.w3.org/2000/svg" xmlns:xlink="http://www.w3.org/1999/xlink" contentStyleType="text/css" height="534px" preserveAspectRatio="none" style="width:906px;height:534px;background:#FFFFFF;" version="1.1" viewBox="0 0 906 534" width="906px" zoomAndPan="magnify"><defs/><g><text fill="#000000" font-family="sans-serif" font-size="14" font-weight="bold" lengthAdjust="spacing" textLength="241" x="328.75" y="29.5332">US3001 System Sequence Diagram</text><rect fill="#FFFFFF" height="241.3594" style="stroke:#181818;stroke-width:1.0;" width="10" x="47.5" y="185.5"/><rect fill="#FFFFFF" height="241.3594" style="stroke:#181818;stroke-width:1.0;" width="10" x="307.5" y="185.5"/><rect fill="#FFFFFF" height="30" style="stroke:#181818;stroke-width:1.0;" width="10" x="646.5" y="185.5"/><rect fill="#FFFFFF" height="78.3125" style="stroke:#181818;stroke-width:1.0;" width="10" x="646.5" y="309.3906"/><line style="stroke:#181818;stroke-width:0.5;stroke-dasharray:5.0,5.0;" x1="52" x2="52" y1="128.7656" y2="444.8594"/><line style="stroke:#181818;stroke-width:0.5;stroke-dasharray:5.0,5.0;" x1="312.5" x2="312.5" y1="128.7656" y2="444.8594"/><line style="stroke:#181818;stroke-width:0.5;stroke-dasharray:5.0,5.0;" x1="651" x2="651" y1="128.7656" y2="444.8594"/><text fill="#000000" font-family="sans-serif" font-size="20" lengthAdjust="spacing" textLength="89" x="5" y="124.3711">Candidate</text><ellipse cx="52.5" cy="52.1094" fill="#E2E2F0" rx="8" ry="8" style="stroke:#181818;stroke-width:0.5;"/><path d="M52.5,60.1094 L52.5,87.1094 M39.5,68.1094 L65.5,68.1094 M52.5,87.1094 L39.5,102.1094 M52.5,87.1094 L65.5,102.1094 " fill="none" style="stroke:#181818;stroke-width:0.5;"/><text fill="#000000" font-family="sans-serif" font-size="20" lengthAdjust="spacing" textLength="89" x="5" y="464.6211">Candidate</text><ellipse cx="52.5" cy="477.5156" fill="#E2E2F0" rx="8" ry="8" style="stroke:#181818;stroke-width:0.5;"/><path d="M52.5,485.5156 L52.5,512.5156 M39.5,493.5156 L65.5,493.5156 M52.5,512.5156 L39.5,527.5156 M52.5,512.5156 L65.5,527.5156 " fill="none" style="stroke:#181818;stroke-width:0.5;"/><rect fill="#E2E2F0" height="64.3125" rx="2.5" ry="2.5" style="stroke:#181818;stroke-width:0.5;" width="158" x="233.5" y="63.4531"/><text fill="#000000" font-family="sans-serif" font-size="20" lengthAdjust="spacing" textLength="66" x="279.5" y="91.2148">System</text><text fill="#000000" font-family="sans-serif" font-size="20" lengthAdjust="spacing" textLength="144" x="240.5" y="116.3711">(Candidate App)</text><rect fill="#E2E2F0" height="64.3125" rx="2.5" ry="2.5" style="stroke:#181818;stroke-width:0.5;" width="158" x="233.5" y="443.8594"/><text fill="#000000" font-family="sans-serif" font-size="20" lengthAdjust="spacing" textLength="66" x="279.5" y="471.6211">System</text><text fill="#000000" font-family="sans-serif" font-size="20" lengthAdjust="spacing" textLength="144" x="240.5" y="496.7773">(Candidate App)</text><rect fill="#E2E2F0" height="39.1563" rx="2.5" ry="2.5" style="stroke:#181818;stroke-width:0.5;" width="165" x="569" y="88.6094"/><text fill="#000000" font-family="sans-serif" font-size="20" lengthAdjust="spacing" textLength="151" x="576" y="116.3711">Follow Up Server</text><rect fill="#E2E2F0" height="39.1563" rx="2.5" ry="2.5" style="stroke:#181818;stroke-width:0.5;" width="165" x="569" y="443.8594"/><text fill="#000000" font-family="sans-serif" font-size="20" lengthAdjust="spacing" textLength="151" x="576" y="471.6211">Follow Up Server</text><rect fill="#FFFFFF" height="241.3594" style="stroke:#181818;stroke-width:1.0;" width="10" x="47.5" y="185.5"/><rect fill="#FFFFFF" height="241.3594" style="stroke:#181818;stroke-width:1.0;" width="10" x="307.5" y="185.5"/><rect fill="#FFFFFF" height="30" style="stroke:#181818;stroke-width:1.0;" width="10" x="646.5" y="185.5"/><rect fill="#FFFFFF" height="78.3125" style="stroke:#181818;stroke-width:1.0;" width="10" x="646.5" y="309.3906"/><polygon fill="#181818" points="328.5,181.5,318.5,185.5,328.5,189.5,324.5,185.5" style="stroke:#181818;stroke-width:1.0;"/><line style="stroke:#181818;stroke-width:1.0;stroke-dasharray:2.0,2.0;" x1="322.5" x2="645.5" y1="185.5" y2="185.5"/><text fill="#000000" font-family="sans-serif" font-size="20" font-weight="bold" lengthAdjust="spacing" textLength="11" x="334.5" y="179.1055">1</text><text fill="#000000" font-family="sans-serif" font-size="20" lengthAdjust="spacing" textLength="151" x="349.5" y="179.1055">sends notification</text><path d="M661,143.7656 L661,203.7656 L899,203.7656 L899,153.7656 L889,143.7656 L661,143.7656 " fill="#FEFFDD" style="stroke:#181818;stroke-width:0.5;"/><path d="M889,143.7656 L889,153.7656 L899,153.7656 L889,143.7656 " fill="#FEFFDD" style="stroke:#181818;stroke-width:0.5;"/><text fill="#000000" font-family="sans-serif" font-size="20" lengthAdjust="spacing" textLength="217" x="667" y="169.5273">every time an application</text><text fill="#000000" font-family="sans-serif" font-size="20" lengthAdjust="spacing" textLength="123" x="667" y="194.6836">changes state</text><polygon fill="#181818" points="295.5,266.2344,305.5,270.2344,295.5,274.2344,299.5,270.2344" style="stroke:#181818;stroke-width:1.0;"/><line style="stroke:#181818;stroke-width:1.0;" x1="57.5" x2="301.5" y1="270.2344" y2="270.2344"/><text fill="#000000" font-family="sans-serif" font-size="20" font-weight="bold" lengthAdjust="spacing" textLength="11" x="64.5" y="263.8398">2</text><text fill="#000000" font-family="sans-serif" font-size="20" lengthAdjust="spacing" textLength="211" x="79.5" y="263.8398">asks to see notifications</text><polygon fill="#181818" points="634.5,305.3906,644.5,309.3906,634.5,313.3906,638.5,309.3906" style="stroke:#181818;stroke-width:1.0;"/><line style="stroke:#181818;stroke-width:1.0;" x1="317.5" x2="640.5" y1="309.3906" y2="309.3906"/><text fill="#000000" font-family="sans-serif" font-size="20" font-weight="bold" lengthAdjust="spacing" textLength="11" x="324.5" y="302.9961">3</text><text fill="#000000" font-family="sans-serif" font-size="20" lengthAdjust="spacing" textLength="242" x="339.5" y="302.9961">establishes TCP connection</text><polygon fill="#181818" points="634.5,344.5469,644.5,348.5469,634.5,352.5469,638.5,348.5469" style="stroke:#181818;stroke-width:1.0;"/><line style="stroke:#181818;stroke-width:1.0;" x1="317.5" x2="640.5" y1="348.5469" y2="348.5469"/><text fill="#000000" font-family="sans-serif" font-size="20" font-weight="bold" lengthAdjust="spacing" textLength="11" x="324.5" y="342.1523">4</text><text fill="#000000" font-family="sans-serif" font-size="20" lengthAdjust="spacing" textLength="290" x="339.5" y="342.1523">requests candidate's notifications</text><polygon fill="#181818" points="328.5,383.7031,318.5,387.7031,328.5,391.7031,324.5,387.7031" style="stroke:#181818;stroke-width:1.0;"/><line style="stroke:#181818;stroke-width:1.0;stroke-dasharray:2.0,2.0;" x1="322.5" x2="650.5" y1="387.7031" y2="387.7031"/><text fill="#000000" font-family="sans-serif" font-size="20" font-weight="bold" lengthAdjust="spacing" textLength="11" x="334.5" y="381.3086">5</text><text fill="#000000" font-family="sans-serif" font-size="20" lengthAdjust="spacing" textLength="208" x="349.5" y="381.3086">candidate's notifications</text><polygon fill="#181818" points="63.5,422.8594,53.5,426.8594,63.5,430.8594,59.5,426.8594" style="stroke:#181818;stroke-width:1.0;"/><line style="stroke:#181818;stroke-width:1.0;stroke-dasharray:2.0,2.0;" x1="57.5" x2="311.5" y1="426.8594" y2="426.8594"/><text fill="#000000" font-family="sans-serif" font-size="20" font-weight="bold" lengthAdjust="spacing" textLength="11" x="69.5" y="420.4648">6</text><text fill="#000000" font-family="sans-serif" font-size="20" lengthAdjust="spacing" textLength="165" x="84.5" y="420.4648">shows notifications</text><!--SRC=[VL5BJm8n4BxtLqoug0SIr1i74yBZQ0mh9YPUIdTW6xfjxSn2yDSxtHKKH2_RJVgzInlheqwwTi5ii8GILxfnF0kU2_k1S3TGYYqxX4LnFnZSGh4dnXeAV6_G6uI9rMkXAwKR3hwfbvZatt18q1jhNzfIC_P04un7ZnCbNcoDZTepz3gjDtzz1C8enfiMNRmMf-1PS2xiO175EsqnTQZf_6KwLwexeTz_o4GO0g4l2NnWkx96imq-XxBRxF55aak4PDSLAnIzFR2j4RG77QCxa4ob_He9Y8MfH3HheleX9ZbBFDV-lczRvmySisdQ472GZ7YIaAI703AkgpC45D-birH9XEVn4vZWFPgBTSwfARyGCO4vZ7j5l-pEP_iRUw5ZwoZKjfrCNeNTVwpJeTfTFW40]--></g></svg>