<?xml version="1.0" encoding="us-ascii" standalone="no"?><svg xmlns="http://www.w3.org/2000/svg" xmlns:xlink="http://www.w3.org/1999/xlink" contentStyleType="text/css" height="535px" preserveAspectRatio="none" style="width:585px;height:535px;background:#FFFFFF;" version="1.1" viewBox="0 0 585 535" width="585.5px" zoomAndPan="magnify"><defs/><g><!--class UI--><g id="elem_UI"><rect codeLine="5" fill="#F1F1F1" height="40.9316" id="UI" rx="1.25" ry="1.25" style="stroke:#181818;stroke-width:0.25;" width="68" x="242.5" y="3.5"/><ellipse cx="250" cy="15.3105" fill="#ADD1B2" rx="5.5" ry="5.5" style="stroke:#181818;stroke-width:0.5;"/><path d="M251.3828,13.248 Q251.4609,13.1387 251.5547,13.084 Q251.6484,13.0293 251.7578,13.0293 Q251.9453,13.0293 252.0625,13.1621 Q252.1797,13.2871 252.1797,13.5918 L252.1797,14.3184 Q252.1797,14.623 252.0625,14.7559 Q251.9453,14.8887 251.7578,14.8887 Q251.5859,14.8887 251.4844,14.7871 Q251.3828,14.6934 251.3281,14.4355 Q251.3047,14.2559 251.2109,14.1621 Q251.0469,13.9746 250.7422,13.8652 Q250.4375,13.7559 250.125,13.7559 Q249.7422,13.7559 249.4219,13.9199 Q249.1094,14.084 248.8594,14.459 Q248.6172,14.834 248.6172,15.3496 L248.6172,15.8965 Q248.6172,16.5137 249.0625,16.9277 Q249.5078,17.334 250.3047,17.334 Q250.7734,17.334 251.1016,17.209 Q251.2969,17.1309 251.5078,16.9121 Q251.6406,16.7793 251.7109,16.7402 Q251.7891,16.7012 251.8906,16.7012 Q252.0547,16.7012 252.1797,16.834 Q252.3125,16.959 252.3125,17.1309 Q252.3125,17.3027 252.1406,17.5059 Q251.8906,17.7949 251.4922,17.959 Q250.9531,18.1855 250.3047,18.1855 Q249.5469,18.1855 248.9453,17.873 Q248.4531,17.623 248.1094,17.0918 Q247.7656,16.5527 247.7656,15.9121 L247.7656,15.334 Q247.7656,14.6699 248.0703,14.0996 Q248.3828,13.5215 248.9297,13.2168 Q249.4766,12.9043 250.0938,12.9043 Q250.4609,12.9043 250.7813,12.9902 Q251.1094,13.0684 251.3828,13.248 Z " fill="#000000"/><text fill="#000000" font-family="sans-serif" font-size="7" lengthAdjust="spacing" textLength="48" x="259" y="13.5537">&#171;Presentation&#187;</text><text fill="#000000" font-family="sans-serif" font-size="7" lengthAdjust="spacing" textLength="52" x="257" y="22.8643">RegisterPluginUI</text><line style="stroke:#181818;stroke-width:0.25;" x1="243" x2="310" y1="27.1211" y2="27.1211"/><line style="stroke:#181818;stroke-width:0.5;stroke-dasharray:1.0,2.0;" x1="243" x2="310" y1="31.1211" y2="31.1211"/><ellipse cx="248" cy="38.5264" fill="#84BE84" rx="1.5" ry="1.5" style="stroke:#038048;stroke-width:0.5;"/><text fill="#000000" font-family="sans-serif" font-size="7" lengthAdjust="spacing" textLength="30" x="252.5" y="40.6748">doShow()</text></g><!--class CTRL--><g id="elem_CTRL"><rect codeLine="9" fill="#F1F1F1" height="40.9316" id="CTRL" rx="1.25" ry="1.25" style="stroke:#181818;stroke-width:0.25;" width="258" x="147.5" y="75"/><ellipse cx="235.875" cy="86.8105" fill="#ADD1B2" rx="5.5" ry="5.5" style="stroke:#181818;stroke-width:0.5;"/><path d="M237.2578,84.748 Q237.3359,84.6387 237.4297,84.584 Q237.5234,84.5293 237.6328,84.5293 Q237.8203,84.5293 237.9375,84.6621 Q238.0547,84.7871 238.0547,85.0918 L238.0547,85.8184 Q238.0547,86.123 237.9375,86.2559 Q237.8203,86.3887 237.6328,86.3887 Q237.4609,86.3887 237.3594,86.2871 Q237.2578,86.1934 237.2031,85.9355 Q237.1797,85.7559 237.0859,85.6621 Q236.9219,85.4746 236.6172,85.3652 Q236.3125,85.2559 236,85.2559 Q235.6172,85.2559 235.2969,85.4199 Q234.9844,85.584 234.7344,85.959 Q234.4922,86.334 234.4922,86.8496 L234.4922,87.3965 Q234.4922,88.0137 234.9375,88.4277 Q235.3828,88.834 236.1797,88.834 Q236.6484,88.834 236.9766,88.709 Q237.1719,88.6309 237.3828,88.4121 Q237.5156,88.2793 237.5859,88.2402 Q237.6641,88.2012 237.7656,88.2012 Q237.9297,88.2012 238.0547,88.334 Q238.1875,88.459 238.1875,88.6309 Q238.1875,88.8027 238.0156,89.0059 Q237.7656,89.2949 237.3672,89.459 Q236.8281,89.6855 236.1797,89.6855 Q235.4219,89.6855 234.8203,89.373 Q234.3281,89.123 233.9844,88.5918 Q233.6406,88.0527 233.6406,87.4121 L233.6406,86.834 Q233.6406,86.1699 233.9453,85.5996 Q234.2578,85.0215 234.8047,84.7168 Q235.3516,84.4043 235.9688,84.4043 Q236.3359,84.4043 236.6563,84.4902 Q236.9844,84.5684 237.2578,84.748 Z " fill="#000000"/><text fill="#000000" font-family="sans-serif" font-size="7" lengthAdjust="spacing" textLength="42.5" x="263.375" y="85.0537">&#171;Application&#187;</text><text fill="#000000" font-family="sans-serif" font-size="7" lengthAdjust="spacing" textLength="77" x="246.125" y="94.3643">RegisterPluginController</text><line style="stroke:#181818;stroke-width:0.25;" x1="148" x2="405" y1="98.6211" y2="98.6211"/><line style="stroke:#181818;stroke-width:0.5;stroke-dasharray:1.0,2.0;" x1="148" x2="405" y1="102.6211" y2="102.6211"/><ellipse cx="153" cy="110.0264" fill="#84BE84" rx="1.5" ry="1.5" style="stroke:#038048;stroke-width:0.5;"/><text fill="#000000" font-family="sans-serif" font-size="7" lengthAdjust="spacing" textLength="245" x="157.5" y="112.1748">registerInterviewPlugin(String: nameInterview, String: description, String: path)</text></g><!--class SERVICEIM--><g id="elem_SERVICEIM"><rect codeLine="13" fill="#F1F1F1" height="50.2422" id="SERVICEIM" rx="1.25" ry="1.25" style="stroke:#181818;stroke-width:0.25;" width="258" x="3.5" y="146.5"/><ellipse cx="74.875" cy="158.3105" fill="#ADD1B2" rx="5.5" ry="5.5" style="stroke:#181818;stroke-width:0.5;"/><path d="M76.2578,156.248 Q76.3359,156.1387 76.4297,156.084 Q76.5234,156.0293 76.6328,156.0293 Q76.8203,156.0293 76.9375,156.1621 Q77.0547,156.2871 77.0547,156.5918 L77.0547,157.3184 Q77.0547,157.623 76.9375,157.7559 Q76.8203,157.8887 76.6328,157.8887 Q76.4609,157.8887 76.3594,157.7871 Q76.2578,157.6934 76.2031,157.4355 Q76.1797,157.2559 76.0859,157.1621 Q75.9219,156.9746 75.6172,156.8652 Q75.3125,156.7559 75,156.7559 Q74.6172,156.7559 74.2969,156.9199 Q73.9844,157.084 73.7344,157.459 Q73.4922,157.834 73.4922,158.3496 L73.4922,158.8965 Q73.4922,159.5137 73.9375,159.9277 Q74.3828,160.334 75.1797,160.334 Q75.6484,160.334 75.9766,160.209 Q76.1719,160.1309 76.3828,159.9121 Q76.5156,159.7793 76.5859,159.7402 Q76.6641,159.7012 76.7656,159.7012 Q76.9297,159.7012 77.0547,159.834 Q77.1875,159.959 77.1875,160.1309 Q77.1875,160.3027 77.0156,160.5059 Q76.7656,160.7949 76.3672,160.959 Q75.8281,161.1855 75.1797,161.1855 Q74.4219,161.1855 73.8203,160.873 Q73.3281,160.623 72.9844,160.0918 Q72.6406,159.5527 72.6406,158.9121 L72.6406,158.334 Q72.6406,157.6699 72.9453,157.0996 Q73.2578,156.5215 73.8047,156.2168 Q74.3516,155.9043 74.9688,155.9043 Q75.3359,155.9043 75.6563,155.9902 Q75.9844,156.0684 76.2578,156.248 Z " fill="#000000"/><text fill="#000000" font-family="sans-serif" font-size="7" lengthAdjust="spacing" textLength="50" x="115.625" y="156.5537">&#171;Infrastructure&#187;</text><text fill="#000000" font-family="sans-serif" font-size="7" lengthAdjust="spacing" textLength="111" x="85.125" y="165.8643">InterviewModelManagementService</text><line style="stroke:#181818;stroke-width:0.25;" x1="4" x2="261" y1="170.1211" y2="170.1211"/><line style="stroke:#181818;stroke-width:0.5;stroke-dasharray:1.0,2.0;" x1="4" x2="261" y1="174.1211" y2="174.1211"/><ellipse cx="9" cy="181.5264" fill="#84BE84" rx="1.5" ry="1.5" style="stroke:#038048;stroke-width:0.5;"/><text fill="#000000" font-family="sans-serif" font-size="7" lengthAdjust="spacing" textLength="245" x="13.5" y="183.6748">registerInterviewPlugin(String: nameInterview, String: description, String: path)</text><ellipse cx="9" cy="190.8369" fill="#84BE84" rx="1.5" ry="1.5" style="stroke:#038048;stroke-width:0.5;"/><text fill="#000000" font-family="sans-serif" font-size="7" lengthAdjust="spacing" textLength="25" x="13.5" y="192.9854">create()</text></g><!--class IM--><g id="elem_IM"><rect codeLine="18" fill="#F1F1F1" height="106.1055" id="IM" rx="1.25" ry="1.25" style="stroke:#181818;stroke-width:0.25;" width="133.5" x="100.75" y="335.5"/><ellipse cx="142.125" cy="351.9658" fill="#ADD1B2" rx="5.5" ry="5.5" style="stroke:#181818;stroke-width:0.5;"/><path d="M143.5078,349.9033 Q143.5859,349.7939 143.6797,349.7393 Q143.7734,349.6846 143.8828,349.6846 Q144.0703,349.6846 144.1875,349.8174 Q144.3047,349.9424 144.3047,350.2471 L144.3047,350.9736 Q144.3047,351.2783 144.1875,351.4111 Q144.0703,351.5439 143.8828,351.5439 Q143.7109,351.5439 143.6094,351.4424 Q143.5078,351.3486 143.4531,351.0908 Q143.4297,350.9111 143.3359,350.8174 Q143.1719,350.6299 142.8672,350.5205 Q142.5625,350.4111 142.25,350.4111 Q141.8672,350.4111 141.5469,350.5752 Q141.2344,350.7393 140.9844,351.1143 Q140.7422,351.4893 140.7422,352.0049 L140.7422,352.5518 Q140.7422,353.1689 141.1875,353.583 Q141.6328,353.9893 142.4297,353.9893 Q142.8984,353.9893 143.2266,353.8643 Q143.4219,353.7861 143.6328,353.5674 Q143.7656,353.4346 143.8359,353.3955 Q143.9141,353.3564 144.0156,353.3564 Q144.1797,353.3564 144.3047,353.4893 Q144.4375,353.6143 144.4375,353.7861 Q144.4375,353.958 144.2656,354.1611 Q144.0156,354.4502 143.6172,354.6143 Q143.0781,354.8408 142.4297,354.8408 Q141.6719,354.8408 141.0703,354.5283 Q140.5781,354.2783 140.2344,353.7471 Q139.8906,353.208 139.8906,352.5674 L139.8906,351.9893 Q139.8906,351.3252 140.1953,350.7549 Q140.5078,350.1768 141.0547,349.8721 Q141.6016,349.5596 142.2188,349.5596 Q142.5859,349.5596 142.9063,349.6455 Q143.2344,349.7236 143.5078,349.9033 Z " fill="#000000"/><text fill="#000000" font-family="sans-serif" font-size="7" lengthAdjust="spacing" textLength="32" x="159.625" y="345.5537">&#171;Domain&#187;</text><text fill="#000000" font-family="sans-serif" font-size="7" lengthAdjust="spacing" textLength="42.5" x="154.375" y="354.8643">&#171;Root Entity&#187;</text><text fill="#000000" font-family="sans-serif" font-size="7" lengthAdjust="spacing" textLength="46.5" x="152.375" y="364.1748">InterviewModel</text><line style="stroke:#181818;stroke-width:0.25;" x1="101.25" x2="233.75" y1="368.4316" y2="368.4316"/><rect fill="none" height="3" style="stroke:#C82930;stroke-width:0.5;" width="3" x="104.75" y="374.3369"/><text fill="#000000" font-family="sans-serif" font-size="7" lengthAdjust="spacing" textLength="86" x="110.75" y="377.9854">InterviewModelName: name</text><rect fill="none" height="3" style="stroke:#C82930;stroke-width:0.5;" width="3" x="104.75" y="383.6475"/><text fill="#000000" font-family="sans-serif" font-size="7" lengthAdjust="spacing" textLength="120.5" x="110.75" y="387.2959">InterviewModelDescription: description</text><rect fill="none" height="3" style="stroke:#C82930;stroke-width:0.5;" width="3" x="104.75" y="392.958"/><text fill="#000000" font-family="sans-serif" font-size="7" lengthAdjust="spacing" textLength="64" x="110.75" y="396.6064">PluginJarFile: jarFile</text><line style="stroke:#181818;stroke-width:0.5;stroke-dasharray:1.0,2.0;" x1="101.25" x2="233.75" y1="400.3633" y2="400.3633"/><ellipse cx="106.25" cy="407.7686" fill="#84BE84" rx="1.5" ry="1.5" style="stroke:#038048;stroke-width:0.5;"/><text fill="#000000" font-family="sans-serif" font-size="7" lengthAdjust="spacing" textLength="94" x="110.75" y="409.917">valueOfInterviewModelName()</text><ellipse cx="106.25" cy="417.0791" fill="#84BE84" rx="1.5" ry="1.5" style="stroke:#038048;stroke-width:0.5;"/><text fill="#000000" font-family="sans-serif" font-size="7" lengthAdjust="spacing" textLength="111.5" x="110.75" y="419.2275">valueOfInterviewModelDescription()</text><ellipse cx="106.25" cy="426.3896" fill="#84BE84" rx="1.5" ry="1.5" style="stroke:#038048;stroke-width:0.5;"/><text fill="#000000" font-family="sans-serif" font-size="7" lengthAdjust="spacing" textLength="70" x="110.75" y="428.5381">valueOfPluginJarFile()</text><ellipse cx="106.25" cy="435.7002" fill="#84BE84" rx="1.5" ry="1.5" style="stroke:#038048;stroke-width:0.5;"/><text fill="#000000" font-family="sans-serif" font-size="7" lengthAdjust="spacing" textLength="29.5" x="110.75" y="437.8486">toString()</text></g><!--class IMNAME--><g id="elem_IMNAME"><rect codeLine="28" fill="#F1F1F1" height="59.5527" id="IMNAME" rx="1.25" ry="1.25" style="stroke:#181818;stroke-width:0.25;" width="82.5" x="23.75" y="472"/><ellipse cx="32.15" cy="488.4658" fill="#ADD1B2" rx="5.5" ry="5.5" style="stroke:#181818;stroke-width:0.5;"/><path d="M33.5328,486.4033 Q33.6109,486.2939 33.7047,486.2393 Q33.7984,486.1846 33.9078,486.1846 Q34.0953,486.1846 34.2125,486.3174 Q34.3297,486.4424 34.3297,486.7471 L34.3297,487.4736 Q34.3297,487.7783 34.2125,487.9111 Q34.0953,488.0439 33.9078,488.0439 Q33.7359,488.0439 33.6344,487.9424 Q33.5328,487.8486 33.4781,487.5908 Q33.4547,487.4111 33.3609,487.3174 Q33.1969,487.1299 32.8922,487.0205 Q32.5875,486.9111 32.275,486.9111 Q31.8922,486.9111 31.5719,487.0752 Q31.2594,487.2393 31.0094,487.6143 Q30.7672,487.9893 30.7672,488.5049 L30.7672,489.0518 Q30.7672,489.6689 31.2125,490.083 Q31.6578,490.4893 32.4547,490.4893 Q32.9234,490.4893 33.2516,490.3643 Q33.4469,490.2861 33.6578,490.0674 Q33.7906,489.9346 33.8609,489.8955 Q33.9391,489.8564 34.0406,489.8564 Q34.2047,489.8564 34.3297,489.9893 Q34.4625,490.1143 34.4625,490.2861 Q34.4625,490.458 34.2906,490.6611 Q34.0406,490.9502 33.6422,491.1143 Q33.1031,491.3408 32.4547,491.3408 Q31.6969,491.3408 31.0953,491.0283 Q30.6031,490.7783 30.2594,490.2471 Q29.9156,489.708 29.9156,489.0674 L29.9156,488.4893 Q29.9156,487.8252 30.2203,487.2549 Q30.5328,486.6768 31.0797,486.3721 Q31.6266,486.0596 32.2438,486.0596 Q32.6109,486.0596 32.9313,486.1455 Q33.2594,486.2236 33.5328,486.4033 Z " fill="#000000"/><text fill="#000000" font-family="sans-serif" font-size="7" lengthAdjust="spacing" textLength="32" x="55.6" y="482.0537">&#171;Domain&#187;</text><text fill="#000000" font-family="sans-serif" font-size="7" lengthAdjust="spacing" textLength="48.5" x="47.35" y="491.3643">&#171;Value Object&#187;</text><text fill="#000000" font-family="sans-serif" font-size="7" lengthAdjust="spacing" textLength="64.5" x="39.35" y="500.6748">InterviewModelName</text><line style="stroke:#181818;stroke-width:0.25;" x1="24.25" x2="105.75" y1="504.9316" y2="504.9316"/><rect fill="none" height="3" style="stroke:#C82930;stroke-width:0.5;" width="3" x="27.75" y="510.8369"/><text fill="#000000" font-family="sans-serif" font-size="7" lengthAdjust="spacing" textLength="40" x="33.75" y="514.4854">String: name</text><line style="stroke:#181818;stroke-width:0.25;" x1="24.25" x2="105.75" y1="518.2422" y2="518.2422"/><ellipse cx="29.25" cy="525.6475" fill="#84BE84" rx="1.5" ry="1.5" style="stroke:#038048;stroke-width:0.5;"/><text fill="#000000" font-family="sans-serif" font-size="7" lengthAdjust="spacing" textLength="69.5" x="33.75" y="527.7959">valueOf(String: name)</text></g><!--class IMDESC--><g id="elem_IMDESC"><rect codeLine="32" fill="#F1F1F1" height="59.5527" id="IMDESC" rx="1.25" ry="1.25" style="stroke:#181818;stroke-width:0.25;" width="99.5" x="123.75" y="472"/><ellipse cx="131.925" cy="488.4658" fill="#ADD1B2" rx="5.5" ry="5.5" style="stroke:#181818;stroke-width:0.5;"/><path d="M133.3078,486.4033 Q133.3859,486.2939 133.4797,486.2393 Q133.5734,486.1846 133.6828,486.1846 Q133.8703,486.1846 133.9875,486.3174 Q134.1047,486.4424 134.1047,486.7471 L134.1047,487.4736 Q134.1047,487.7783 133.9875,487.9111 Q133.8703,488.0439 133.6828,488.0439 Q133.5109,488.0439 133.4094,487.9424 Q133.3078,487.8486 133.2531,487.5908 Q133.2297,487.4111 133.1359,487.3174 Q132.9719,487.1299 132.6672,487.0205 Q132.3625,486.9111 132.05,486.9111 Q131.6672,486.9111 131.3469,487.0752 Q131.0344,487.2393 130.7844,487.6143 Q130.5422,487.9893 130.5422,488.5049 L130.5422,489.0518 Q130.5422,489.6689 130.9875,490.083 Q131.4328,490.4893 132.2297,490.4893 Q132.6984,490.4893 133.0266,490.3643 Q133.2219,490.2861 133.4328,490.0674 Q133.5656,489.9346 133.6359,489.8955 Q133.7141,489.8564 133.8156,489.8564 Q133.9797,489.8564 134.1047,489.9893 Q134.2375,490.1143 134.2375,490.2861 Q134.2375,490.458 134.0656,490.6611 Q133.8156,490.9502 133.4172,491.1143 Q132.8781,491.3408 132.2297,491.3408 Q131.4719,491.3408 130.8703,491.0283 Q130.3781,490.7783 130.0344,490.2471 Q129.6906,489.708 129.6906,489.0674 L129.6906,488.4893 Q129.6906,487.8252 129.9953,487.2549 Q130.3078,486.6768 130.8547,486.3721 Q131.4016,486.0596 132.0188,486.0596 Q132.3859,486.0596 132.7063,486.1455 Q133.0344,486.2236 133.3078,486.4033 Z " fill="#000000"/><text fill="#000000" font-family="sans-serif" font-size="7" lengthAdjust="spacing" textLength="32" x="164.075" y="482.0537">&#171;Domain&#187;</text><text fill="#000000" font-family="sans-serif" font-size="7" lengthAdjust="spacing" textLength="48.5" x="155.825" y="491.3643">&#171;Value Object&#187;</text><text fill="#000000" font-family="sans-serif" font-size="7" lengthAdjust="spacing" textLength="82" x="139.075" y="500.6748">InterviewModelDescription</text><line style="stroke:#181818;stroke-width:0.25;" x1="124.25" x2="222.75" y1="504.9316" y2="504.9316"/><rect fill="none" height="3" style="stroke:#C82930;stroke-width:0.5;" width="3" x="127.75" y="510.8369"/><text fill="#000000" font-family="sans-serif" font-size="7" lengthAdjust="spacing" textLength="57" x="133.75" y="514.4854">String: description</text><line style="stroke:#181818;stroke-width:0.25;" x1="124.25" x2="222.75" y1="518.2422" y2="518.2422"/><ellipse cx="129.25" cy="525.6475" fill="#84BE84" rx="1.5" ry="1.5" style="stroke:#038048;stroke-width:0.5;"/><text fill="#000000" font-family="sans-serif" font-size="7" lengthAdjust="spacing" textLength="86.5" x="133.75" y="527.7959">valueOf(String: description)</text></g><!--class PLUGIN--><g id="elem_PLUGIN"><rect codeLine="36" fill="#F1F1F1" height="59.5527" id="PLUGIN" rx="1.25" ry="1.25" style="stroke:#181818;stroke-width:0.25;" width="88.5" x="264.75" y="472"/><ellipse cx="283.05" cy="488.4658" fill="#ADD1B2" rx="5.5" ry="5.5" style="stroke:#181818;stroke-width:0.5;"/><path d="M284.4328,486.4033 Q284.5109,486.2939 284.6047,486.2393 Q284.6984,486.1846 284.8078,486.1846 Q284.9953,486.1846 285.1125,486.3174 Q285.2297,486.4424 285.2297,486.7471 L285.2297,487.4736 Q285.2297,487.7783 285.1125,487.9111 Q284.9953,488.0439 284.8078,488.0439 Q284.6359,488.0439 284.5344,487.9424 Q284.4328,487.8486 284.3781,487.5908 Q284.3547,487.4111 284.2609,487.3174 Q284.0969,487.1299 283.7922,487.0205 Q283.4875,486.9111 283.175,486.9111 Q282.7922,486.9111 282.4719,487.0752 Q282.1594,487.2393 281.9094,487.6143 Q281.6672,487.9893 281.6672,488.5049 L281.6672,489.0518 Q281.6672,489.6689 282.1125,490.083 Q282.5578,490.4893 283.3547,490.4893 Q283.8234,490.4893 284.1516,490.3643 Q284.3469,490.2861 284.5578,490.0674 Q284.6906,489.9346 284.7609,489.8955 Q284.8391,489.8564 284.9406,489.8564 Q285.1047,489.8564 285.2297,489.9893 Q285.3625,490.1143 285.3625,490.2861 Q285.3625,490.458 285.1906,490.6611 Q284.9406,490.9502 284.5422,491.1143 Q284.0031,491.3408 283.3547,491.3408 Q282.5969,491.3408 281.9953,491.0283 Q281.5031,490.7783 281.1594,490.2471 Q280.8156,489.708 280.8156,489.0674 L280.8156,488.4893 Q280.8156,487.8252 281.1203,487.2549 Q281.4328,486.6768 281.9797,486.3721 Q282.5266,486.0596 283.1438,486.0596 Q283.5109,486.0596 283.8313,486.1455 Q284.1594,486.2236 284.4328,486.4033 Z " fill="#000000"/><text fill="#000000" font-family="sans-serif" font-size="7" lengthAdjust="spacing" textLength="32" x="300.7" y="482.0537">&#171;Domain&#187;</text><text fill="#000000" font-family="sans-serif" font-size="7" lengthAdjust="spacing" textLength="48.5" x="292.45" y="491.3643">&#171;Value Object&#187;</text><text fill="#000000" font-family="sans-serif" font-size="7" lengthAdjust="spacing" textLength="40.5" x="296.45" y="500.6748">PluginJarFile</text><line style="stroke:#181818;stroke-width:0.25;" x1="265.25" x2="352.75" y1="504.9316" y2="504.9316"/><rect fill="none" height="3" style="stroke:#C82930;stroke-width:0.5;" width="3" x="268.75" y="510.8369"/><text fill="#000000" font-family="sans-serif" font-size="7" lengthAdjust="spacing" textLength="46" x="274.75" y="514.4854">String: filePath</text><line style="stroke:#181818;stroke-width:0.25;" x1="265.25" x2="352.75" y1="518.2422" y2="518.2422"/><ellipse cx="270.25" cy="525.6475" fill="#84BE84" rx="1.5" ry="1.5" style="stroke:#038048;stroke-width:0.5;"/><text fill="#000000" font-family="sans-serif" font-size="7" lengthAdjust="spacing" textLength="75.5" x="274.75" y="527.7959">valueOf(String: filePath)</text></g><!--class IMREPO--><g id="elem_IMREPO"><rect codeLine="40" fill="#F1F1F1" height="68.8633" id="IMREPO" rx="1.25" ry="1.25" style="stroke:#181818;stroke-width:0.25;" width="168" x="115" y="227"/><ellipse cx="156.625" cy="238.8105" fill="#ADD1B2" rx="5.5" ry="5.5" style="stroke:#181818;stroke-width:0.5;"/><path d="M158.0078,236.748 Q158.0859,236.6387 158.1797,236.584 Q158.2734,236.5293 158.3828,236.5293 Q158.5703,236.5293 158.6875,236.6621 Q158.8047,236.7871 158.8047,237.0918 L158.8047,237.8184 Q158.8047,238.123 158.6875,238.2559 Q158.5703,238.3887 158.3828,238.3887 Q158.2109,238.3887 158.1094,238.2871 Q158.0078,238.1934 157.9531,237.9355 Q157.9297,237.7559 157.8359,237.6621 Q157.6719,237.4746 157.3672,237.3652 Q157.0625,237.2559 156.75,237.2559 Q156.3672,237.2559 156.0469,237.4199 Q155.7344,237.584 155.4844,237.959 Q155.2422,238.334 155.2422,238.8496 L155.2422,239.3965 Q155.2422,240.0137 155.6875,240.4277 Q156.1328,240.834 156.9297,240.834 Q157.3984,240.834 157.7266,240.709 Q157.9219,240.6309 158.1328,240.4121 Q158.2656,240.2793 158.3359,240.2402 Q158.4141,240.2012 158.5156,240.2012 Q158.6797,240.2012 158.8047,240.334 Q158.9375,240.459 158.9375,240.6309 Q158.9375,240.8027 158.7656,241.0059 Q158.5156,241.2949 158.1172,241.459 Q157.5781,241.6855 156.9297,241.6855 Q156.1719,241.6855 155.5703,241.373 Q155.0781,241.123 154.7344,240.5918 Q154.3906,240.0527 154.3906,239.4121 L154.3906,238.834 Q154.3906,238.1699 154.6953,237.5996 Q155.0078,237.0215 155.5547,236.7168 Q156.1016,236.4043 156.7188,236.4043 Q157.0859,236.4043 157.4063,236.4902 Q157.7344,236.5684 158.0078,236.748 Z " fill="#000000"/><text fill="#000000" font-family="sans-serif" font-size="7" lengthAdjust="spacing" textLength="50" x="182.125" y="237.0537">&#171;Infrastructure&#187;</text><text fill="#000000" font-family="sans-serif" font-size="7" lengthAdjust="spacing" textLength="80.5" x="166.875" y="246.3643">InterviewModelRepository</text><line style="stroke:#181818;stroke-width:0.25;" x1="115.5" x2="282.5" y1="250.6211" y2="250.6211"/><line style="stroke:#181818;stroke-width:0.5;stroke-dasharray:1.0,2.0;" x1="115.5" x2="282.5" y1="254.6211" y2="254.6211"/><ellipse cx="120.5" cy="262.0264" fill="#84BE84" rx="1.5" ry="1.5" style="stroke:#038048;stroke-width:0.5;"/><text fill="#000000" font-family="sans-serif" font-size="7" lengthAdjust="spacing" textLength="24" x="125" y="264.1748">findAll()</text><ellipse cx="120.5" cy="271.3369" fill="#84BE84" rx="1.5" ry="1.5" style="stroke:#038048;stroke-width:0.5;"/><text fill="#000000" font-family="sans-serif" font-size="7" lengthAdjust="spacing" textLength="155" x="125" y="273.4854">findAllById(Iterable&lt;InterviewModelName&gt;: name)</text><ellipse cx="120.5" cy="280.6475" fill="#84BE84" rx="1.5" ry="1.5" style="stroke:#038048;stroke-width:0.5;"/><text fill="#000000" font-family="sans-serif" font-size="7" lengthAdjust="spacing" textLength="116" x="125" y="282.7959">findById(InterviewModelName: name)</text><ellipse cx="120.5" cy="289.958" fill="#84BE84" rx="1.5" ry="1.5" style="stroke:#038048;stroke-width:0.5;"/><text fill="#000000" font-family="sans-serif" font-size="7" lengthAdjust="spacing" textLength="117" x="125" y="292.1064">save(InterviewModel: interviewModel)</text></g><!--class ABUI--><g id="elem_ABUI"><rect codeLine="47" fill="#F1F1F1" height="40.9316" id="ABUI" rx="1.25" ry="1.25" style="stroke:#181818;stroke-width:0.25;" width="64" x="362.5" y="3.5"/><ellipse cx="370" cy="15.3105" fill="#B4A7E5" rx="5.5" ry="5.5" style="stroke:#181818;stroke-width:0.5;"/><path d="M370.4766,13.6309 L370.4766,16.959 L371.3359,16.959 Q371.6406,16.959 371.7734,17.0762 Q371.9063,17.1934 371.9063,17.3887 Q371.9063,17.5762 371.7734,17.6934 Q371.6406,17.8105 371.3359,17.8105 L368.7656,17.8105 Q368.4609,17.8105 368.3281,17.6934 Q368.1953,17.5762 368.1953,17.3809 Q368.1953,17.1934 368.3281,17.0762 Q368.4609,16.959 368.7656,16.959 L369.625,16.959 L369.625,13.6309 L368.7656,13.6309 Q368.4609,13.6309 368.3281,13.5137 Q368.1953,13.3965 368.1953,13.2012 Q368.1953,13.0137 368.3281,12.8965 Q368.4609,12.7793 368.7656,12.7793 L371.3359,12.7793 Q371.6406,12.7793 371.7734,12.8965 Q371.9063,13.0137 371.9063,13.2012 Q371.9063,13.3965 371.7734,13.5137 Q371.6406,13.6309 371.3359,13.6309 L370.4766,13.6309 Z " fill="#000000"/><text fill="#000000" font-family="sans-serif" font-size="7" font-style="italic" lengthAdjust="spacing" textLength="48" x="377" y="13.5537">&#171;Presentation&#187;</text><text fill="#000000" font-family="sans-serif" font-size="7" font-style="italic" lengthAdjust="spacing" textLength="33" x="384.5" y="22.8643">AbstractUI</text><line style="stroke:#181818;stroke-width:0.25;" x1="363" x2="426" y1="27.1211" y2="27.1211"/><line style="stroke:#181818;stroke-width:0.5;stroke-dasharray:1.0,2.0;" x1="363" x2="426" y1="31.1211" y2="31.1211"/><rect fill="#F24D5C" height="3" style="stroke:#C82930;stroke-width:0.5;" width="3" x="366.5" y="37.0264"/><text fill="#000000" font-family="sans-serif" font-size="7" lengthAdjust="spacing" textLength="30" x="372.5" y="40.6748">doShow()</text></g><!--class DREPO--><g id="elem_DREPO"><rect codeLine="51" fill="#F1F1F1" height="68.8633" id="DREPO" rx="1.25" ry="1.25" style="stroke:#181818;stroke-width:0.25;" width="97" x="252" y="354"/><ellipse cx="269.85" cy="365.8105" fill="#B4A7E5" rx="5.5" ry="5.5" style="stroke:#181818;stroke-width:0.5;"/><path d="M270.3266,364.1309 L270.3266,367.459 L271.1859,367.459 Q271.4906,367.459 271.6234,367.5762 Q271.7563,367.6934 271.7563,367.8887 Q271.7563,368.0762 271.6234,368.1934 Q271.4906,368.3105 271.1859,368.3105 L268.6156,368.3105 Q268.3109,368.3105 268.1781,368.1934 Q268.0453,368.0762 268.0453,367.8809 Q268.0453,367.6934 268.1781,367.5762 Q268.3109,367.459 268.6156,367.459 L269.475,367.459 L269.475,364.1309 L268.6156,364.1309 Q268.3109,364.1309 268.1781,364.0137 Q268.0453,363.8965 268.0453,363.7012 Q268.0453,363.5137 268.1781,363.3965 Q268.3109,363.2793 268.6156,363.2793 L271.1859,363.2793 Q271.4906,363.2793 271.6234,363.3965 Q271.7563,363.5137 271.7563,363.7012 Q271.7563,363.8965 271.6234,364.0137 Q271.4906,364.1309 271.1859,364.1309 L270.3266,364.1309 Z " fill="#000000"/><text fill="#000000" font-family="sans-serif" font-size="7" font-style="italic" lengthAdjust="spacing" textLength="55" x="280.65" y="364.0537">&#171;Persistentence&#187;</text><text fill="#000000" font-family="sans-serif" font-size="7" font-style="italic" lengthAdjust="spacing" textLength="58" x="279.15" y="373.3643">DomainRepository</text><line style="stroke:#181818;stroke-width:0.25;" x1="252.5" x2="348.5" y1="377.6211" y2="377.6211"/><line style="stroke:#181818;stroke-width:0.5;stroke-dasharray:1.0,2.0;" x1="252.5" x2="348.5" y1="381.6211" y2="381.6211"/><rect fill="#F24D5C" height="3" style="stroke:#C82930;stroke-width:0.5;" width="3" x="256" y="387.5264"/><text fill="#000000" font-family="sans-serif" font-size="7" lengthAdjust="spacing" textLength="24" x="262" y="391.1748">findAll()</text><rect fill="#F24D5C" height="3" style="stroke:#C82930;stroke-width:0.5;" width="3" x="256" y="396.8369"/><text fill="#000000" font-family="sans-serif" font-size="7" lengthAdjust="spacing" textLength="84" x="262" y="400.4854">findAllById(Iterable&lt;Id&gt;: id)</text><rect fill="#F24D5C" height="3" style="stroke:#C82930;stroke-width:0.5;" width="3" x="256" y="406.1475"/><text fill="#000000" font-family="sans-serif" font-size="7" lengthAdjust="spacing" textLength="45" x="262" y="409.7959">findById(Id: id)</text><rect fill="#F24D5C" height="3" style="stroke:#C82930;stroke-width:0.5;" width="3" x="256" y="415.458"/><text fill="#000000" font-family="sans-serif" font-size="7" lengthAdjust="spacing" textLength="59" x="262" y="419.1064">save(Entity: Entity)</text></g><!--class SERVICERS--><g id="elem_SERVICERS"><rect codeLine="58" fill="#F1F1F1" height="50.2422" id="SERVICERS" rx="1.25" ry="1.25" style="stroke:#181818;stroke-width:0.25;" width="284" x="279" y="146.5"/><ellipse cx="346.375" cy="158.3105" fill="#ADD1B2" rx="5.5" ry="5.5" style="stroke:#181818;stroke-width:0.5;"/><path d="M347.7578,156.248 Q347.8359,156.1387 347.9297,156.084 Q348.0234,156.0293 348.1328,156.0293 Q348.3203,156.0293 348.4375,156.1621 Q348.5547,156.2871 348.5547,156.5918 L348.5547,157.3184 Q348.5547,157.623 348.4375,157.7559 Q348.3203,157.8887 348.1328,157.8887 Q347.9609,157.8887 347.8594,157.7871 Q347.7578,157.6934 347.7031,157.4355 Q347.6797,157.2559 347.5859,157.1621 Q347.4219,156.9746 347.1172,156.8652 Q346.8125,156.7559 346.5,156.7559 Q346.1172,156.7559 345.7969,156.9199 Q345.4844,157.084 345.2344,157.459 Q344.9922,157.834 344.9922,158.3496 L344.9922,158.8965 Q344.9922,159.5137 345.4375,159.9277 Q345.8828,160.334 346.6797,160.334 Q347.1484,160.334 347.4766,160.209 Q347.6719,160.1309 347.8828,159.9121 Q348.0156,159.7793 348.0859,159.7402 Q348.1641,159.7012 348.2656,159.7012 Q348.4297,159.7012 348.5547,159.834 Q348.6875,159.959 348.6875,160.1309 Q348.6875,160.3027 348.5156,160.5059 Q348.2656,160.7949 347.8672,160.959 Q347.3281,161.1855 346.6797,161.1855 Q345.9219,161.1855 345.3203,160.873 Q344.8281,160.623 344.4844,160.0918 Q344.1406,159.5527 344.1406,158.9121 L344.1406,158.334 Q344.1406,157.6699 344.4453,157.0996 Q344.7578,156.5215 345.3047,156.2168 Q345.8516,155.9043 346.4688,155.9043 Q346.8359,155.9043 347.1563,155.9902 Q347.4844,156.0684 347.7578,156.248 Z " fill="#000000"/><text fill="#000000" font-family="sans-serif" font-size="7" lengthAdjust="spacing" textLength="50" x="404.125" y="156.5537">&#171;Infrastructure&#187;</text><text fill="#000000" font-family="sans-serif" font-size="7" lengthAdjust="spacing" textLength="145" x="356.625" y="165.8643">RequirementSpecificationManagementService</text><line style="stroke:#181818;stroke-width:0.25;" x1="279.5" x2="562.5" y1="170.1211" y2="170.1211"/><line style="stroke:#181818;stroke-width:0.5;stroke-dasharray:1.0,2.0;" x1="279.5" x2="562.5" y1="174.1211" y2="174.1211"/><ellipse cx="284.5" cy="181.5264" fill="#84BE84" rx="1.5" ry="1.5" style="stroke:#038048;stroke-width:0.5;"/><text fill="#000000" font-family="sans-serif" font-size="7" lengthAdjust="spacing" textLength="271" x="289" y="183.6748">registerRequirementPlugin(String: nameRequirement, String: description, String: path)</text><ellipse cx="284.5" cy="190.8369" fill="#84BE84" rx="1.5" ry="1.5" style="stroke:#038048;stroke-width:0.5;"/><text fill="#000000" font-family="sans-serif" font-size="7" lengthAdjust="spacing" textLength="25" x="289" y="192.9854">create()</text></g><!--class RS--><g id="elem_RS"><rect codeLine="63" fill="#F1F1F1" height="106.1055" id="RS" rx="1.25" ry="1.25" style="stroke:#181818;stroke-width:0.25;" width="127.5" x="366.75" y="335.5"/><ellipse cx="388.2" cy="351.9658" fill="#ADD1B2" rx="5.5" ry="5.5" style="stroke:#181818;stroke-width:0.5;"/><path d="M389.5828,349.9033 Q389.6609,349.7939 389.7547,349.7393 Q389.8484,349.6846 389.9578,349.6846 Q390.1453,349.6846 390.2625,349.8174 Q390.3797,349.9424 390.3797,350.2471 L390.3797,350.9736 Q390.3797,351.2783 390.2625,351.4111 Q390.1453,351.5439 389.9578,351.5439 Q389.7859,351.5439 389.6844,351.4424 Q389.5828,351.3486 389.5281,351.0908 Q389.5047,350.9111 389.4109,350.8174 Q389.2469,350.6299 388.9422,350.5205 Q388.6375,350.4111 388.325,350.4111 Q387.9422,350.4111 387.6219,350.5752 Q387.3094,350.7393 387.0594,351.1143 Q386.8172,351.4893 386.8172,352.0049 L386.8172,352.5518 Q386.8172,353.1689 387.2625,353.583 Q387.7078,353.9893 388.5047,353.9893 Q388.9734,353.9893 389.3016,353.8643 Q389.4969,353.7861 389.7078,353.5674 Q389.8406,353.4346 389.9109,353.3955 Q389.9891,353.3564 390.0906,353.3564 Q390.2547,353.3564 390.3797,353.4893 Q390.5125,353.6143 390.5125,353.7861 Q390.5125,353.958 390.3406,354.1611 Q390.0906,354.4502 389.6922,354.6143 Q389.1531,354.8408 388.5047,354.8408 Q387.7469,354.8408 387.1453,354.5283 Q386.6531,354.2783 386.3094,353.7471 Q385.9656,353.208 385.9656,352.5674 L385.9656,351.9893 Q385.9656,351.3252 386.2703,350.7549 Q386.5828,350.1768 387.1297,349.8721 Q387.6766,349.5596 388.2938,349.5596 Q388.6609,349.5596 388.9813,349.6455 Q389.3094,349.7236 389.5828,349.9033 Z " fill="#000000"/><text fill="#000000" font-family="sans-serif" font-size="7" lengthAdjust="spacing" textLength="32" x="422.55" y="345.5537">&#171;Domain&#187;</text><text fill="#000000" font-family="sans-serif" font-size="7" lengthAdjust="spacing" textLength="42.5" x="417.3" y="354.8643">&#171;Root Entity&#187;</text><text fill="#000000" font-family="sans-serif" font-size="7" lengthAdjust="spacing" textLength="80.5" x="398.3" y="364.1748">RequirementSpecification</text><line style="stroke:#181818;stroke-width:0.25;" x1="367.25" x2="493.75" y1="368.4316" y2="368.4316"/><rect fill="none" height="3" style="stroke:#C82930;stroke-width:0.5;" width="3" x="370.75" y="374.3369"/><text fill="#000000" font-family="sans-serif" font-size="7" lengthAdjust="spacing" textLength="80" x="376.75" y="377.9854">RequirementName: name</text><rect fill="none" height="3" style="stroke:#C82930;stroke-width:0.5;" width="3" x="370.75" y="383.6475"/><text fill="#000000" font-family="sans-serif" font-size="7" lengthAdjust="spacing" textLength="114.5" x="376.75" y="387.2959">RequirementDescription: description</text><rect fill="none" height="3" style="stroke:#C82930;stroke-width:0.5;" width="3" x="370.75" y="392.958"/><text fill="#000000" font-family="sans-serif" font-size="7" lengthAdjust="spacing" textLength="64" x="376.75" y="396.6064">PluginJarFile: jarFile</text><line style="stroke:#181818;stroke-width:0.5;stroke-dasharray:1.0,2.0;" x1="367.25" x2="493.75" y1="400.3633" y2="400.3633"/><ellipse cx="372.25" cy="407.7686" fill="#84BE84" rx="1.5" ry="1.5" style="stroke:#038048;stroke-width:0.5;"/><text fill="#000000" font-family="sans-serif" font-size="7" lengthAdjust="spacing" textLength="88" x="376.75" y="409.917">valueOfRequirementName()</text><ellipse cx="372.25" cy="417.0791" fill="#84BE84" rx="1.5" ry="1.5" style="stroke:#038048;stroke-width:0.5;"/><text fill="#000000" font-family="sans-serif" font-size="7" lengthAdjust="spacing" textLength="105.5" x="376.75" y="419.2275">valueOfRequirementDescription()</text><ellipse cx="372.25" cy="426.3896" fill="#84BE84" rx="1.5" ry="1.5" style="stroke:#038048;stroke-width:0.5;"/><text fill="#000000" font-family="sans-serif" font-size="7" lengthAdjust="spacing" textLength="70" x="376.75" y="428.5381">valueOfPluginJarFile()</text><ellipse cx="372.25" cy="435.7002" fill="#84BE84" rx="1.5" ry="1.5" style="stroke:#038048;stroke-width:0.5;"/><text fill="#000000" font-family="sans-serif" font-size="7" lengthAdjust="spacing" textLength="29.5" x="376.75" y="437.8486">toString()</text></g><!--class RSNAME--><g id="elem_RSNAME"><rect codeLine="73" fill="#F1F1F1" height="59.5527" id="RSNAME" rx="1.25" ry="1.25" style="stroke:#181818;stroke-width:0.25;" width="82.5" x="382.75" y="472"/><ellipse cx="393.85" cy="488.4658" fill="#ADD1B2" rx="5.5" ry="5.5" style="stroke:#181818;stroke-width:0.5;"/><path d="M395.2328,486.4033 Q395.3109,486.2939 395.4047,486.2393 Q395.4984,486.1846 395.6078,486.1846 Q395.7953,486.1846 395.9125,486.3174 Q396.0297,486.4424 396.0297,486.7471 L396.0297,487.4736 Q396.0297,487.7783 395.9125,487.9111 Q395.7953,488.0439 395.6078,488.0439 Q395.4359,488.0439 395.3344,487.9424 Q395.2328,487.8486 395.1781,487.5908 Q395.1547,487.4111 395.0609,487.3174 Q394.8969,487.1299 394.5922,487.0205 Q394.2875,486.9111 393.975,486.9111 Q393.5922,486.9111 393.2719,487.0752 Q392.9594,487.2393 392.7094,487.6143 Q392.4672,487.9893 392.4672,488.5049 L392.4672,489.0518 Q392.4672,489.6689 392.9125,490.083 Q393.3578,490.4893 394.1547,490.4893 Q394.6234,490.4893 394.9516,490.3643 Q395.1469,490.2861 395.3578,490.0674 Q395.4906,489.9346 395.5609,489.8955 Q395.6391,489.8564 395.7406,489.8564 Q395.9047,489.8564 396.0297,489.9893 Q396.1625,490.1143 396.1625,490.2861 Q396.1625,490.458 395.9906,490.6611 Q395.7406,490.9502 395.3422,491.1143 Q394.8031,491.3408 394.1547,491.3408 Q393.3969,491.3408 392.7953,491.0283 Q392.3031,490.7783 391.9594,490.2471 Q391.6156,489.708 391.6156,489.0674 L391.6156,488.4893 Q391.6156,487.8252 391.9203,487.2549 Q392.2328,486.6768 392.7797,486.3721 Q393.3266,486.0596 393.9438,486.0596 Q394.3109,486.0596 394.6313,486.1455 Q394.9594,486.2236 395.2328,486.4033 Z " fill="#000000"/><text fill="#000000" font-family="sans-serif" font-size="7" lengthAdjust="spacing" textLength="32" x="414.9" y="482.0537">&#171;Domain&#187;</text><text fill="#000000" font-family="sans-serif" font-size="7" lengthAdjust="spacing" textLength="48.5" x="406.65" y="491.3643">&#171;Value Object&#187;</text><text fill="#000000" font-family="sans-serif" font-size="7" lengthAdjust="spacing" textLength="58.5" x="401.65" y="500.6748">RequirementName</text><line style="stroke:#181818;stroke-width:0.25;" x1="383.25" x2="464.75" y1="504.9316" y2="504.9316"/><rect fill="none" height="3" style="stroke:#C82930;stroke-width:0.5;" width="3" x="386.75" y="510.8369"/><text fill="#000000" font-family="sans-serif" font-size="7" lengthAdjust="spacing" textLength="40" x="392.75" y="514.4854">String: name</text><line style="stroke:#181818;stroke-width:0.25;" x1="383.25" x2="464.75" y1="518.2422" y2="518.2422"/><ellipse cx="388.25" cy="525.6475" fill="#84BE84" rx="1.5" ry="1.5" style="stroke:#038048;stroke-width:0.5;"/><text fill="#000000" font-family="sans-serif" font-size="7" lengthAdjust="spacing" textLength="69.5" x="392.75" y="527.7959">valueOf(String: name)</text></g><!--class RSDESC--><g id="elem_RSDESC"><rect codeLine="77" fill="#F1F1F1" height="59.5527" id="RSDESC" rx="1.25" ry="1.25" style="stroke:#181818;stroke-width:0.25;" width="99.5" x="482.75" y="472"/><ellipse cx="493.625" cy="488.4658" fill="#ADD1B2" rx="5.5" ry="5.5" style="stroke:#181818;stroke-width:0.5;"/><path d="M495.0078,486.4033 Q495.0859,486.2939 495.1797,486.2393 Q495.2734,486.1846 495.3828,486.1846 Q495.5703,486.1846 495.6875,486.3174 Q495.8047,486.4424 495.8047,486.7471 L495.8047,487.4736 Q495.8047,487.7783 495.6875,487.9111 Q495.5703,488.0439 495.3828,488.0439 Q495.2109,488.0439 495.1094,487.9424 Q495.0078,487.8486 494.9531,487.5908 Q494.9297,487.4111 494.8359,487.3174 Q494.6719,487.1299 494.3672,487.0205 Q494.0625,486.9111 493.75,486.9111 Q493.3672,486.9111 493.0469,487.0752 Q492.7344,487.2393 492.4844,487.6143 Q492.2422,487.9893 492.2422,488.5049 L492.2422,489.0518 Q492.2422,489.6689 492.6875,490.083 Q493.1328,490.4893 493.9297,490.4893 Q494.3984,490.4893 494.7266,490.3643 Q494.9219,490.2861 495.1328,490.0674 Q495.2656,489.9346 495.3359,489.8955 Q495.4141,489.8564 495.5156,489.8564 Q495.6797,489.8564 495.8047,489.9893 Q495.9375,490.1143 495.9375,490.2861 Q495.9375,490.458 495.7656,490.6611 Q495.5156,490.9502 495.1172,491.1143 Q494.5781,491.3408 493.9297,491.3408 Q493.1719,491.3408 492.5703,491.0283 Q492.0781,490.7783 491.7344,490.2471 Q491.3906,489.708 491.3906,489.0674 L491.3906,488.4893 Q491.3906,487.8252 491.6953,487.2549 Q492.0078,486.6768 492.5547,486.3721 Q493.1016,486.0596 493.7188,486.0596 Q494.0859,486.0596 494.4063,486.1455 Q494.7344,486.2236 495.0078,486.4033 Z " fill="#000000"/><text fill="#000000" font-family="sans-serif" font-size="7" lengthAdjust="spacing" textLength="32" x="523.375" y="482.0537">&#171;Domain&#187;</text><text fill="#000000" font-family="sans-serif" font-size="7" lengthAdjust="spacing" textLength="48.5" x="515.125" y="491.3643">&#171;Value Object&#187;</text><text fill="#000000" font-family="sans-serif" font-size="7" lengthAdjust="spacing" textLength="76" x="501.375" y="500.6748">RequirementDescription</text><line style="stroke:#181818;stroke-width:0.25;" x1="483.25" x2="581.75" y1="504.9316" y2="504.9316"/><rect fill="none" height="3" style="stroke:#C82930;stroke-width:0.5;" width="3" x="486.75" y="510.8369"/><text fill="#000000" font-family="sans-serif" font-size="7" lengthAdjust="spacing" textLength="57" x="492.75" y="514.4854">String: description</text><line style="stroke:#181818;stroke-width:0.25;" x1="483.25" x2="581.75" y1="518.2422" y2="518.2422"/><ellipse cx="488.25" cy="525.6475" fill="#84BE84" rx="1.5" ry="1.5" style="stroke:#038048;stroke-width:0.5;"/><text fill="#000000" font-family="sans-serif" font-size="7" lengthAdjust="spacing" textLength="86.5" x="492.75" y="527.7959">valueOf(String: description)</text></g><!--class RSREPO--><g id="elem_RSREPO"><rect codeLine="81" fill="#F1F1F1" height="68.8633" id="RSREPO" rx="1.25" ry="1.25" style="stroke:#181818;stroke-width:0.25;" width="195.5" x="300.75" y="227"/><ellipse cx="339.125" cy="238.8105" fill="#ADD1B2" rx="5.5" ry="5.5" style="stroke:#181818;stroke-width:0.5;"/><path d="M340.5078,236.748 Q340.5859,236.6387 340.6797,236.584 Q340.7734,236.5293 340.8828,236.5293 Q341.0703,236.5293 341.1875,236.6621 Q341.3047,236.7871 341.3047,237.0918 L341.3047,237.8184 Q341.3047,238.123 341.1875,238.2559 Q341.0703,238.3887 340.8828,238.3887 Q340.7109,238.3887 340.6094,238.2871 Q340.5078,238.1934 340.4531,237.9355 Q340.4297,237.7559 340.3359,237.6621 Q340.1719,237.4746 339.8672,237.3652 Q339.5625,237.2559 339.25,237.2559 Q338.8672,237.2559 338.5469,237.4199 Q338.2344,237.584 337.9844,237.959 Q337.7422,238.334 337.7422,238.8496 L337.7422,239.3965 Q337.7422,240.0137 338.1875,240.4277 Q338.6328,240.834 339.4297,240.834 Q339.8984,240.834 340.2266,240.709 Q340.4219,240.6309 340.6328,240.4121 Q340.7656,240.2793 340.8359,240.2402 Q340.9141,240.2012 341.0156,240.2012 Q341.1797,240.2012 341.3047,240.334 Q341.4375,240.459 341.4375,240.6309 Q341.4375,240.8027 341.2656,241.0059 Q341.0156,241.2949 340.6172,241.459 Q340.0781,241.6855 339.4297,241.6855 Q338.6719,241.6855 338.0703,241.373 Q337.5781,241.123 337.2344,240.5918 Q336.8906,240.0527 336.8906,239.4121 L336.8906,238.834 Q336.8906,238.1699 337.1953,237.5996 Q337.5078,237.0215 338.0547,236.7168 Q338.6016,236.4043 339.2188,236.4043 Q339.5859,236.4043 339.9063,236.4902 Q340.2344,236.5684 340.5078,236.748 Z " fill="#000000"/><text fill="#000000" font-family="sans-serif" font-size="7" lengthAdjust="spacing" textLength="50" x="381.625" y="237.0537">&#171;Infrastructure&#187;</text><text fill="#000000" font-family="sans-serif" font-size="7" lengthAdjust="spacing" textLength="114.5" x="349.375" y="246.3643">RequirementSpecificationRepository</text><line style="stroke:#181818;stroke-width:0.25;" x1="301.25" x2="495.75" y1="250.6211" y2="250.6211"/><line style="stroke:#181818;stroke-width:0.5;stroke-dasharray:1.0,2.0;" x1="301.25" x2="495.75" y1="254.6211" y2="254.6211"/><ellipse cx="306.25" cy="262.0264" fill="#84BE84" rx="1.5" ry="1.5" style="stroke:#038048;stroke-width:0.5;"/><text fill="#000000" font-family="sans-serif" font-size="7" lengthAdjust="spacing" textLength="24" x="310.75" y="264.1748">findAll()</text><ellipse cx="306.25" cy="271.3369" fill="#84BE84" rx="1.5" ry="1.5" style="stroke:#038048;stroke-width:0.5;"/><text fill="#000000" font-family="sans-serif" font-size="7" lengthAdjust="spacing" textLength="149" x="310.75" y="273.4854">findAllById(Iterable&lt;RequirementName&gt;: name)</text><ellipse cx="306.25" cy="280.6475" fill="#84BE84" rx="1.5" ry="1.5" style="stroke:#038048;stroke-width:0.5;"/><text fill="#000000" font-family="sans-serif" font-size="7" lengthAdjust="spacing" textLength="110" x="310.75" y="282.7959">findById(RequirementName: name)</text><ellipse cx="306.25" cy="289.958" fill="#84BE84" rx="1.5" ry="1.5" style="stroke:#038048;stroke-width:0.5;"/><text fill="#000000" font-family="sans-serif" font-size="7" lengthAdjust="spacing" textLength="182.5" x="310.75" y="292.1064">save(RequirementSpecification: requirementSpecification)</text></g><!--link UI to CTRL--><g id="link_UI_CTRL"><path codeLine="89" d="M276.5,44.515 C276.5,54.04 276.5,62.405 276.5,71.935 " fill="none" id="UI-to-CTRL" style="stroke:#181818;stroke-width:0.5;stroke-dasharray:7.0,7.0;"/><polygon fill="#181818" points="276.5,74.935,278.5,70.435,276.5,72.435,274.5,70.435,276.5,74.935" style="stroke:#181818;stroke-width:0.5;"/></g><!--link UI to ABUI--><g id="link_UI_ABUI"><path codeLine="90" d="M310.63,24 C326.965,24 337.415,24 353.47,24 " fill="none" id="UI-to-ABUI" style="stroke:#181818;stroke-width:0.5;"/><polygon fill="none" points="362.47,24,353.47,21,353.47,27,362.47,24" style="stroke:#181818;stroke-width:0.5;"/><text fill="#000000" font-family="sans-serif" font-size="6.5" lengthAdjust="spacing" textLength="33.5" x="319.75" y="20.5142">implements</text></g><!--link CTRL to SERVICEIM--><g id="link_CTRL_SERVICEIM"><path codeLine="92" d="M238.1,116 C220.145,125.35 201.2559,135.1894 182.3209,145.0494 " fill="none" id="CTRL-to-SERVICEIM" style="stroke:#181818;stroke-width:0.5;stroke-dasharray:7.0,7.0;"/><polygon fill="#181818" points="179.66,146.435,184.575,146.1305,181.8774,145.2803,182.7276,142.5827,179.66,146.435" style="stroke:#181818;stroke-width:0.5;"/></g><!--link CTRL to SERVICERS--><g id="link_CTRL_SERVICERS"><path codeLine="93" d="M315.035,116 C333.05,125.35 352.0122,135.1931 371.0122,145.0531 " fill="none" id="CTRL-to-SERVICERS" style="stroke:#181818;stroke-width:0.5;stroke-dasharray:7.0,7.0;"/><polygon fill="#181818" points="373.675,146.435,370.602,142.587,371.456,145.2835,368.7596,146.1374,373.675,146.435" style="stroke:#181818;stroke-width:0.5;"/></g><!--link SERVICERS to RS--><g id="link_SERVICERS_RS"><path codeLine="95" d="M475.68,196.555 C487.41,204.51 498.285,214.58 505,227 C519.58,253.98 515.235,267.09 505,296 C500.06,309.95 493.8058,320.9306 484.7808,332.9556 " fill="none" id="SERVICERS-to-RS" style="stroke:#181818;stroke-width:0.5;stroke-dasharray:7.0,7.0;"/><polygon fill="#181818" points="482.98,335.355,487.2808,332.9564,484.4807,333.3555,484.0816,330.5554,482.98,335.355" style="stroke:#181818;stroke-width:0.5;"/></g><!--link SERVICERS to RSREPO--><g id="link_SERVICERS_RSREPO"><path codeLine="96" d="M414.79,196.555 C412.425,205.92 410.4147,213.8614 407.8647,223.9564 " fill="none" id="SERVICERS-to-RSREPO" style="stroke:#181818;stroke-width:0.5;stroke-dasharray:7.0,7.0;"/><polygon fill="#181818" points="407.13,226.865,410.1712,222.9919,407.7423,224.4411,406.293,222.0122,407.13,226.865" style="stroke:#181818;stroke-width:0.5;"/></g><!--link SERVICEIM to IM--><g id="link_SERVICEIM_IM"><path codeLine="98" d="M117.74,196.595 C113.01,205.8 108.385,216.565 106,227 C99.175,256.895 97.095,266.655 106,296 C110.155,309.695 115.4974,320.6789 123.2574,332.9589 " fill="none" id="SERVICEIM-to-IM" style="stroke:#181818;stroke-width:0.5;stroke-dasharray:7.0,7.0;"/><polygon fill="#181818" points="124.86,335.495,124.1468,330.6225,123.5245,333.3816,120.7654,332.7593,124.86,335.495" style="stroke:#181818;stroke-width:0.5;"/></g><!--link SERVICEIM to IMREPO--><g id="link_SERVICEIM_IMREPO"><path codeLine="99" d="M150.845,196.555 C157.845,205.92 164.154,214.367 171.699,224.462 " fill="none" id="SERVICEIM-to-IMREPO" style="stroke:#181818;stroke-width:0.5;stroke-dasharray:7.0,7.0;"/><polygon fill="#181818" points="173.495,226.865,172.403,222.0632,171.9983,224.8625,169.199,224.4578,173.495,226.865" style="stroke:#181818;stroke-width:0.5;"/></g><!--reverse link IM to IMNAME--><g id="link_IM_IMNAME"><path codeLine="101" d="M115.5037,445.9403 C105.9687,456.3803 100.33,462.56 91.815,471.885 " fill="none" id="IM-backto-IMNAME" style="stroke:#181818;stroke-width:0.5;"/><polygon fill="none" points="119.55,441.51,116.0501,442.3764,115.5037,445.9403,119.0036,445.0739,119.55,441.51" style="stroke:#181818;stroke-width:0.5;"/></g><!--reverse link IM to IMDESC--><g id="link_IM_IMDESC"><path codeLine="102" d="M170.6264,447.5014 C171.1864,457.9414 171.43,462.56 171.93,471.885 " fill="none" id="IM-backto-IMDESC" style="stroke:#181818;stroke-width:0.5;"/><polygon fill="none" points="170.305,441.51,168.4686,444.6128,170.6264,447.5014,172.4628,444.3986,170.305,441.51" style="stroke:#181818;stroke-width:0.5;"/></g><!--reverse link IM to PLUGIN--><g id="link_IM_PLUGIN"><path codeLine="103" d="M238.3955,445.239 C251.5555,455.679 260.23,462.56 271.98,471.885 " fill="none" id="IM-backto-PLUGIN" style="stroke:#181818;stroke-width:0.5;"/><polygon fill="none" points="233.695,441.51,234.8023,444.9413,238.3955,445.239,237.2882,441.8077,233.695,441.51" style="stroke:#181818;stroke-width:0.5;"/></g><!--reverse link RS to RSNAME--><g id="link_RS_RSNAME"><path codeLine="105" d="M427.1129,447.5 C426.5079,457.94 426.24,462.56 425.7,471.885 " fill="none" id="RS-backto-RSNAME" style="stroke:#181818;stroke-width:0.5;"/><polygon fill="none" points="427.46,441.51,425.2898,444.3893,427.1129,447.5,429.2831,444.6207,427.46,441.51" style="stroke:#181818;stroke-width:0.5;"/></g><!--reverse link RS to RSDESC--><g id="link_RS_RSDESC"><path codeLine="106" d="M482.2508,445.9498 C491.7408,456.3898 497.345,462.56 505.815,471.885 " fill="none" id="RS-backto-RSDESC" style="stroke:#181818;stroke-width:0.5;"/><polygon fill="none" points="478.215,441.51,478.753,445.0752,482.2508,445.9498,481.7129,442.3846,478.215,441.51" style="stroke:#181818;stroke-width:0.5;"/></g><!--reverse link RS to PLUGIN--><g id="link_RS_PLUGIN"><path codeLine="107" d="M369.2571,445.5807 C357.9521,456.0207 350.875,462.56 340.785,471.885 " fill="none" id="RS-backto-PLUGIN" style="stroke:#181818;stroke-width:0.5;"/><polygon fill="none" points="373.665,441.51,370.1042,442.076,369.2571,445.5807,372.8179,445.0146,373.665,441.51" style="stroke:#181818;stroke-width:0.5;"/></g><!--link RSREPO to RS--><g id="link_RSREPO_RS"><path codeLine="109" d="M407.16,296.095 C410.23,308.195 413.0261,319.2024 416.4011,332.4824 " fill="none" id="RSREPO-to-RS" style="stroke:#181818;stroke-width:0.5;stroke-dasharray:7.0,7.0;"/><polygon fill="#181818" points="417.14,335.39,417.97,330.536,416.5242,332.967,414.0932,331.5213,417.14,335.39" style="stroke:#181818;stroke-width:0.5;"/></g><!--link RSREPO to DREPO--><g id="link_RSREPO_DREPO"><path codeLine="110" d="M371.98,296.095 C358.035,314.025 346.5156,328.8359 332.5656,346.7709 " fill="none" id="RSREPO-to-DREPO" style="stroke:#181818;stroke-width:0.5;"/><polygon fill="none" points="327.04,353.875,334.9336,348.6128,330.1976,344.9291,327.04,353.875" style="stroke:#181818;stroke-width:0.5;"/><text fill="#000000" font-family="sans-serif" font-size="6.5" lengthAdjust="spacing" textLength="33.5" x="359" y="318.5142">implements</text></g><!--link IMREPO to IM--><g id="link_IMREPO_IM"><path codeLine="112" d="M190.475,296.095 C187.45,308.195 184.7036,319.1998 181.3786,332.4798 " fill="none" id="IMREPO-to-IM" style="stroke:#181818;stroke-width:0.5;stroke-dasharray:7.0,7.0;"/><polygon fill="#181818" points="180.65,335.39,183.6831,331.5105,181.2572,332.9649,179.8028,330.539,180.65,335.39" style="stroke:#181818;stroke-width:0.5;"/></g><!--link IMREPO to DREPO--><g id="link_IMREPO_DREPO"><path codeLine="113" d="M226.465,296.095 C240.91,314.025 252.9197,328.9307 267.3647,346.8657 " fill="none" id="IMREPO-to-DREPO" style="stroke:#181818;stroke-width:0.5;"/><polygon fill="none" points="273.01,353.875,269.7011,344.9839,265.0282,348.7475,273.01,353.875" style="stroke:#181818;stroke-width:0.5;"/><text fill="#000000" font-family="sans-serif" font-size="6.5" lengthAdjust="spacing" textLength="33.5" x="244.5" y="318.5142">implements</text></g><!--SRC=[jLPTJzim57tFhx1uMT6Myh2tggfKscxAHA5AA4zxCOdRcZbsvZWWjEs_przDOYTX354UIkw7xptts3x9XuCGHJcvk2W8fABAoJXb-KLAO5c66OPx3lCWA7zWMa3v2FQSLKL43uXZ0McAmESWMAXaS3QTRZWg4HLGO4Pdi-yqHdjS2iGtfDfZketE02p1DWA_0Y3_ncFzxoF8M79WJwFpu4zJQbuK1AS3bHQC2iu8GLnNNDp6LtvDRXT4LFuyOlHaLeuImJ7TJm25EQfZdy3HdQ4ovRXGRHjd0SN10HVH7OUbu5KgAeuKlhhKccM8h265UvHBAXBbJP66cQpYksYnYjQdnshgfXn1WLnUboo7M5CwdSQC2R2Y0eldxWmQSeqr16xqMa8om7h3omQQWzCcc_c-GVu54rdcmJouf3n2Kg6RNRVjwFobZ5PdFz7fMWS5CzGDqtIdbeER-mUKYYvF2fBbwdg-NjLyjJVFnU7iwnkxjiQqpPUhPD5fxbFVnT3AU3KKXqZTVdEr_HfTTzhlP7mZ3-H0xsFul-vMZ0fMOi7uinqyNcrk_1krmpIR4r9lihKldwDi5Cbgy9wWQNSVPySzQLQP9GDd_vXOmaVa9Kq0TcmreyxOGIcQFLevlvT3mrHObPnV-ZePjdNIBOLugGH4-gGYgs9czpogbbscGe-fS82fJ3A3itQEISZQRis2aPE9bPL_x6oCVbQO6w4iK8ftLl5VrCyu6TBFLhaU1Mr5JwUXGnFf0Mha8MZbTQIq5Ni_7VKQ-jhOt_DK2kg1iUISL3xx1xITtraxNt_GlHiQ9syMCu_I8INhFNUEZ0r1dSXhrXzHimTIhSRZcVuKKy_XxvcMCAaFUK7qcb9-AAeFDPLMVmfrN74I1Cr5Lm7fyHsAfJfDVgCehwpbEqoQD5aOsjTpOwazFrhczHK4ie4opL5iB9rghIPLRvK5QArGZQrbrftRlgGiJ6iD9Fy5]--></g></svg>