<?xml version="1.0" encoding="UTF-8" standalone="no"?><svg xmlns="http://www.w3.org/2000/svg" xmlns:xlink="http://www.w3.org/1999/xlink" contentStyleType="text/css" height="2114px" preserveAspectRatio="none" style="width:5067px;height:2114px;background:#FFFFFF;" version="1.1" viewBox="0 0 5067 2114" width="5067px" zoomAndPan="magnify"><defs/><g><text fill="#000000" font-family="sans-serif" font-size="14" font-weight="bold" lengthAdjust="spacing" textLength="187" x="2437" y="29.5332">US2004 Sequence Diagram</text><rect fill="#ADD8E6" height="2057.3438" style="stroke:#181818;stroke-width:0.5;" width="4987" x="1" y="44.6094"/><text fill="#000000" font-family="sans-serif" font-size="20" font-weight="bold" lengthAdjust="spacing" textLength="70" x="2456.5" y="65.3711">System</text><rect fill="#FFB6C1" height="2057.3438" style="stroke:#181818;stroke-width:0.5;" width="71" x="4990" y="44.6094"/><text fill="#000000" font-family="sans-serif" font-size="20" font-weight="bold" lengthAdjust="spacing" textLength="59" x="4993" y="65.3711">Plugin</text><rect fill="#FFFFFF" height="1782.4063" style="stroke:#181818;stroke-width:1.0;" width="10" x="143.5" y="211.2344"/><rect fill="#FFFFFF" height="307.0938" style="stroke:#181818;stroke-width:1.0;" width="10" x="678.5" y="211.2344"/><rect fill="#FFFFFF" height="586.0313" style="stroke:#181818;stroke-width:1.0;" width="10" x="678.5" y="637.7969"/><rect fill="#FFFFFF" height="641.3438" style="stroke:#181818;stroke-width:1.0;" width="10" x="678.5" y="1343.2969"/><rect fill="#FFFFFF" height="245.9375" style="stroke:#181818;stroke-width:1.0;" width="10" x="1267.5" y="705.1094"/><rect fill="#FFFFFF" height="39.1563" style="stroke:#181818;stroke-width:1.0;" width="10" x="1564" y="813.4219"/><rect fill="#FFFFFF" height="30" style="stroke:#181818;stroke-width:1.0;" width="10" x="1814.5" y="744.2656"/><rect fill="#FFFFFF" height="228.7813" style="stroke:#181818;stroke-width:1.0;" width="10" x="2118.5" y="250.3906"/><rect fill="#FFFFFF" height="30" style="stroke:#181818;stroke-width:1.0;" width="10" x="2343" y="403.0156"/><rect fill="#FFFFFF" height="30" style="stroke:#181818;stroke-width:1.0;" width="10" x="2521.5" y="289.5469"/><rect fill="#FFFFFF" height="177.4688" style="stroke:#181818;stroke-width:1.0;" width="10" x="2784.5" y="1007.2031"/><rect fill="#FFFFFF" height="309.0938" style="stroke:#181818;stroke-width:1.0;" width="10" x="2784.5" y="1636.3906"/><rect fill="#FFFFFF" height="67.3125" style="stroke:#181818;stroke-width:1.0;" width="10" x="3230.5" y="1772.8594"/><rect fill="#FFFFFF" height="30" style="stroke:#181818;stroke-width:1.0;" width="10" x="3399" y="1046.3594"/><rect fill="#FFFFFF" height="30" style="stroke:#181818;stroke-width:1.0;" width="10" x="3399" y="1675.5469"/><rect fill="#FFFFFF" height="30" style="stroke:#181818;stroke-width:1.0;" width="10" x="3399" y="1915.4844"/><rect fill="#FFFFFF" height="30" style="stroke:#181818;stroke-width:1.0;" width="10" x="3636.5" y="1115.5156"/><rect fill="#FFFFFF" height="186.625" style="stroke:#181818;stroke-width:1.0;" width="10" x="4190.5" y="1410.6094"/><rect fill="#FFFFFF" height="30" style="stroke:#181818;stroke-width:1.0;" width="10" x="4814.5" y="1449.7656"/><rect fill="#FFFFFF" height="39.1563" style="stroke:#181818;stroke-width:1.0;" width="10" x="5020.5" y="1518.9219"/><rect fill="none" height="106.4688" style="stroke:#000000;stroke-width:1.5;" width="459" x="1961.5" y="334.5469"/><rect fill="none" height="76.4688" style="stroke:#000000;stroke-width:1.5;" width="973.5" x="497" y="867.5781"/><line style="stroke:#181818;stroke-width:0.5;stroke-dasharray:5.0,5.0;" x1="148" x2="148" y1="170.0781" y2="2002.6406"/><line style="stroke:#181818;stroke-width:0.5;stroke-dasharray:5.0,5.0;" x1="683" x2="683" y1="170.0781" y2="2002.6406"/><line style="stroke:#181818;stroke-width:0.5;stroke-dasharray:5.0,5.0;" x1="1272.5" x2="1272.5" y1="170.0781" y2="2002.6406"/><line style="stroke:#181818;stroke-width:0.5;stroke-dasharray:5.0,5.0;" x1="1568.5" x2="1568.5" y1="170.0781" y2="2002.6406"/><line style="stroke:#181818;stroke-width:0.5;stroke-dasharray:5.0,5.0;" x1="1819.5" x2="1819.5" y1="170.0781" y2="2002.6406"/><line style="stroke:#181818;stroke-width:0.5;stroke-dasharray:5.0,5.0;" x1="2123.5" x2="2123.5" y1="170.0781" y2="2002.6406"/><line style="stroke:#181818;stroke-width:0.5;stroke-dasharray:5.0,5.0;" x1="2347.5" x2="2347.5" y1="170.0781" y2="2002.6406"/><line style="stroke:#181818;stroke-width:0.5;stroke-dasharray:5.0,5.0;" x1="2526.5" x2="2526.5" y1="170.0781" y2="2002.6406"/><line style="stroke:#181818;stroke-width:0.5;stroke-dasharray:5.0,5.0;" x1="2789.5" x2="2789.5" y1="170.0781" y2="2002.6406"/><line style="stroke:#181818;stroke-width:0.5;stroke-dasharray:5.0,5.0;" x1="3235" x2="3235" y1="170.0781" y2="2002.6406"/><line style="stroke:#181818;stroke-width:0.5;stroke-dasharray:5.0,5.0;" x1="3404" x2="3404" y1="170.0781" y2="2002.6406"/><line style="stroke:#181818;stroke-width:0.5;stroke-dasharray:5.0,5.0;" x1="3641" x2="3641" y1="170.0781" y2="2002.6406"/><line style="stroke:#181818;stroke-width:0.5;stroke-dasharray:5.0,5.0;" x1="3876" x2="3876" y1="1856.6719" y2="2002.6406"/><line style="stroke:#181818;stroke-width:0.5;stroke-dasharray:5.0,5.0;" x1="4195" x2="4195" y1="170.0781" y2="2002.6406"/><line style="stroke:#181818;stroke-width:0.5;stroke-dasharray:5.0,5.0;" x1="4819" x2="4819" y1="170.0781" y2="2002.6406"/><line style="stroke:#181818;stroke-width:0.5;stroke-dasharray:5.0,5.0;" x1="5025.5" x2="5025.5" y1="170.0781" y2="2002.6406"/><rect fill="#E2E2F0" height="64.3125" rx="2.5" ry="2.5" style="stroke:#181818;stroke-width:0.5;" width="287" x="5" y="104.7656"/><text fill="#000000" font-family="sans-serif" font-size="20" lengthAdjust="spacing" textLength="130" x="83.5" y="132.5273">«presentation»</text><text fill="#000000" font-family="sans-serif" font-size="20" lengthAdjust="spacing" textLength="273" x="12" y="157.6836">:UploadRequirementAnswersUI</text><rect fill="#E2E2F0" height="64.3125" rx="2.5" ry="2.5" style="stroke:#181818;stroke-width:0.5;" width="287" x="5" y="2001.6406"/><text fill="#000000" font-family="sans-serif" font-size="20" lengthAdjust="spacing" textLength="130" x="83.5" y="2029.4023">«presentation»</text><text fill="#000000" font-family="sans-serif" font-size="20" lengthAdjust="spacing" textLength="273" x="12" y="2054.5586">:UploadRequirementAnswersUI</text><rect fill="#E2E2F0" height="64.3125" rx="2.5" ry="2.5" style="stroke:#181818;stroke-width:0.5;" width="353" x="507" y="104.7656"/><text fill="#000000" font-family="sans-serif" font-size="20" lengthAdjust="spacing" textLength="115" x="626" y="132.5273">«application»</text><text fill="#000000" font-family="sans-serif" font-size="20" lengthAdjust="spacing" textLength="339" x="514" y="157.6836">:UploadRequirementAnswersController</text><rect fill="#E2E2F0" height="64.3125" rx="2.5" ry="2.5" style="stroke:#181818;stroke-width:0.5;" width="353" x="507" y="2001.6406"/><text fill="#000000" font-family="sans-serif" font-size="20" lengthAdjust="spacing" textLength="115" x="626" y="2029.4023">«application»</text><text fill="#000000" font-family="sans-serif" font-size="20" lengthAdjust="spacing" textLength="339" x="514" y="2054.5586">:UploadRequirementAnswersController</text><rect fill="#E2E2F0" height="64.3125" rx="2.5" ry="2.5" style="stroke:#181818;stroke-width:0.5;" width="376" x="1084.5" y="104.7656"/><text fill="#000000" font-family="sans-serif" font-size="20" lengthAdjust="spacing" textLength="84" x="1230.5" y="132.5273">«service»</text><text fill="#000000" font-family="sans-serif" font-size="20" lengthAdjust="spacing" textLength="362" x="1091.5" y="157.6836">:RecruitmentProcessManagementService</text><rect fill="#E2E2F0" height="64.3125" rx="2.5" ry="2.5" style="stroke:#181818;stroke-width:0.5;" width="376" x="1084.5" y="2001.6406"/><text fill="#000000" font-family="sans-serif" font-size="20" lengthAdjust="spacing" textLength="84" x="1230.5" y="2029.4023">«service»</text><text fill="#000000" font-family="sans-serif" font-size="20" lengthAdjust="spacing" textLength="362" x="1091.5" y="2054.5586">:RecruitmentProcessManagementService</text><rect fill="#E2E2F0" height="64.3125" rx="2.5" ry="2.5" style="stroke:#181818;stroke-width:0.5;" width="197" x="1470.5" y="104.7656"/><text fill="#000000" font-family="sans-serif" font-size="20" lengthAdjust="spacing" textLength="85" x="1526.5" y="132.5273">«domain»</text><text fill="#000000" font-family="sans-serif" font-size="20" lengthAdjust="spacing" textLength="183" x="1477.5" y="157.6836">:RecruitmentProcess</text><rect fill="#E2E2F0" height="64.3125" rx="2.5" ry="2.5" style="stroke:#181818;stroke-width:0.5;" width="197" x="1470.5" y="2001.6406"/><text fill="#000000" font-family="sans-serif" font-size="20" lengthAdjust="spacing" textLength="85" x="1526.5" y="2029.4023">«domain»</text><text fill="#000000" font-family="sans-serif" font-size="20" lengthAdjust="spacing" textLength="183" x="1477.5" y="2054.5586">:RecruitmentProcess</text><text fill="#000000" font-family="sans-serif" font-size="20" lengthAdjust="spacing" textLength="110" x="1761.5" y="140.5273">«repository»</text><text fill="#000000" font-family="sans-serif" font-size="20" lengthAdjust="spacing" textLength="278" x="1677.5" y="165.6836">:RecruitmentProcessRepository</text><path d="M1801.5,83.7656 C1801.5,73.7656 1819.5,73.7656 1819.5,73.7656 C1819.5,73.7656 1837.5,73.7656 1837.5,83.7656 L1837.5,109.7656 C1837.5,119.7656 1819.5,119.7656 1819.5,119.7656 C1819.5,119.7656 1801.5,119.7656 1801.5,109.7656 L1801.5,83.7656 " fill="#E2E2F0" style="stroke:#181818;stroke-width:1.5;"/><path d="M1801.5,83.7656 C1801.5,93.7656 1819.5,93.7656 1819.5,93.7656 C1819.5,93.7656 1837.5,93.7656 1837.5,83.7656 " fill="none" style="stroke:#181818;stroke-width:1.5;"/><text fill="#000000" font-family="sans-serif" font-size="20" lengthAdjust="spacing" textLength="110" x="1761.5" y="2022.4023">«repository»</text><text fill="#000000" font-family="sans-serif" font-size="20" lengthAdjust="spacing" textLength="278" x="1677.5" y="2047.5586">:RecruitmentProcessRepository</text><path d="M1801.5,2061.9531 C1801.5,2051.9531 1819.5,2051.9531 1819.5,2051.9531 C1819.5,2051.9531 1837.5,2051.9531 1837.5,2061.9531 L1837.5,2087.9531 C1837.5,2097.9531 1819.5,2097.9531 1819.5,2097.9531 C1819.5,2097.9531 1801.5,2097.9531 1801.5,2087.9531 L1801.5,2061.9531 " fill="#E2E2F0" style="stroke:#181818;stroke-width:1.5;"/><path d="M1801.5,2061.9531 C1801.5,2071.9531 1819.5,2071.9531 1819.5,2071.9531 C1819.5,2071.9531 1837.5,2071.9531 1837.5,2061.9531 " fill="none" style="stroke:#181818;stroke-width:1.5;"/><rect fill="#E2E2F0" height="64.3125" rx="2.5" ry="2.5" style="stroke:#181818;stroke-width:0.5;" width="304" x="1971.5" y="104.7656"/><text fill="#000000" font-family="sans-serif" font-size="20" lengthAdjust="spacing" textLength="84" x="2081.5" y="132.5273">«service»</text><text fill="#000000" font-family="sans-serif" font-size="20" lengthAdjust="spacing" textLength="290" x="1978.5" y="157.6836">:JobOpeningManagementService</text><rect fill="#E2E2F0" height="64.3125" rx="2.5" ry="2.5" style="stroke:#181818;stroke-width:0.5;" width="304" x="1971.5" y="2001.6406"/><text fill="#000000" font-family="sans-serif" font-size="20" lengthAdjust="spacing" textLength="84" x="2081.5" y="2029.4023">«service»</text><text fill="#000000" font-family="sans-serif" font-size="20" lengthAdjust="spacing" textLength="290" x="1978.5" y="2054.5586">:JobOpeningManagementService</text><rect fill="#E2E2F0" height="64.3125" rx="2.5" ry="2.5" style="stroke:#181818;stroke-width:0.5;" width="125" x="2285.5" y="104.7656"/><text fill="#000000" font-family="sans-serif" font-size="20" lengthAdjust="spacing" textLength="85" x="2305.5" y="132.5273">«domain»</text><text fill="#000000" font-family="sans-serif" font-size="20" lengthAdjust="spacing" textLength="111" x="2292.5" y="157.6836">:JobOpening</text><rect fill="#E2E2F0" height="64.3125" rx="2.5" ry="2.5" style="stroke:#181818;stroke-width:0.5;" width="125" x="2285.5" y="2001.6406"/><text fill="#000000" font-family="sans-serif" font-size="20" lengthAdjust="spacing" textLength="85" x="2305.5" y="2029.4023">«domain»</text><text fill="#000000" font-family="sans-serif" font-size="20" lengthAdjust="spacing" textLength="111" x="2292.5" y="2054.5586">:JobOpening</text><text fill="#000000" font-family="sans-serif" font-size="20" lengthAdjust="spacing" textLength="110" x="2468.5" y="140.5273">«repository»</text><text fill="#000000" font-family="sans-serif" font-size="20" lengthAdjust="spacing" textLength="206" x="2420.5" y="165.6836">:JobOpeningRepository</text><path d="M2508.5,83.7656 C2508.5,73.7656 2526.5,73.7656 2526.5,73.7656 C2526.5,73.7656 2544.5,73.7656 2544.5,83.7656 L2544.5,109.7656 C2544.5,119.7656 2526.5,119.7656 2526.5,119.7656 C2526.5,119.7656 2508.5,119.7656 2508.5,109.7656 L2508.5,83.7656 " fill="#E2E2F0" style="stroke:#181818;stroke-width:1.5;"/><path d="M2508.5,83.7656 C2508.5,93.7656 2526.5,93.7656 2526.5,93.7656 C2526.5,93.7656 2544.5,93.7656 2544.5,83.7656 " fill="none" style="stroke:#181818;stroke-width:1.5;"/><text fill="#000000" font-family="sans-serif" font-size="20" lengthAdjust="spacing" textLength="110" x="2468.5" y="2022.4023">«repository»</text><text fill="#000000" font-family="sans-serif" font-size="20" lengthAdjust="spacing" textLength="206" x="2420.5" y="2047.5586">:JobOpeningRepository</text><path d="M2508.5,2061.9531 C2508.5,2051.9531 2526.5,2051.9531 2526.5,2051.9531 C2526.5,2051.9531 2544.5,2051.9531 2544.5,2061.9531 L2544.5,2087.9531 C2544.5,2097.9531 2526.5,2097.9531 2526.5,2097.9531 C2526.5,2097.9531 2508.5,2097.9531 2508.5,2087.9531 L2508.5,2061.9531 " fill="#E2E2F0" style="stroke:#181818;stroke-width:1.5;"/><path d="M2508.5,2061.9531 C2508.5,2071.9531 2526.5,2071.9531 2526.5,2071.9531 C2526.5,2071.9531 2544.5,2071.9531 2544.5,2061.9531 " fill="none" style="stroke:#181818;stroke-width:1.5;"/><rect fill="#E2E2F0" height="64.3125" rx="2.5" ry="2.5" style="stroke:#181818;stroke-width:0.5;" width="294" x="2642.5" y="104.7656"/><text fill="#000000" font-family="sans-serif" font-size="20" lengthAdjust="spacing" textLength="84" x="2747.5" y="132.5273">«service»</text><text fill="#000000" font-family="sans-serif" font-size="20" lengthAdjust="spacing" textLength="280" x="2649.5" y="157.6836">:ApplicationManagementService</text><rect fill="#E2E2F0" height="64.3125" rx="2.5" ry="2.5" style="stroke:#181818;stroke-width:0.5;" width="294" x="2642.5" y="2001.6406"/><text fill="#000000" font-family="sans-serif" font-size="20" lengthAdjust="spacing" textLength="84" x="2747.5" y="2029.4023">«service»</text><text fill="#000000" font-family="sans-serif" font-size="20" lengthAdjust="spacing" textLength="280" x="2649.5" y="2054.5586">:ApplicationManagementService</text><rect fill="#E2E2F0" height="64.3125" rx="2.5" ry="2.5" style="stroke:#181818;stroke-width:0.5;" width="115" x="3178" y="104.7656"/><text fill="#000000" font-family="sans-serif" font-size="20" lengthAdjust="spacing" textLength="85" x="3193" y="132.5273">«domain»</text><text fill="#000000" font-family="sans-serif" font-size="20" lengthAdjust="spacing" textLength="101" x="3185" y="157.6836">:Application</text><rect fill="#E2E2F0" height="64.3125" rx="2.5" ry="2.5" style="stroke:#181818;stroke-width:0.5;" width="115" x="3178" y="2001.6406"/><text fill="#000000" font-family="sans-serif" font-size="20" lengthAdjust="spacing" textLength="85" x="3193" y="2029.4023">«domain»</text><text fill="#000000" font-family="sans-serif" font-size="20" lengthAdjust="spacing" textLength="101" x="3185" y="2054.5586">:Application</text><text fill="#000000" font-family="sans-serif" font-size="20" lengthAdjust="spacing" textLength="110" x="3346" y="140.5273">«repository»</text><text fill="#000000" font-family="sans-serif" font-size="20" lengthAdjust="spacing" textLength="196" x="3303" y="165.6836">:ApplicationRepository</text><path d="M3386,83.7656 C3386,73.7656 3404,73.7656 3404,73.7656 C3404,73.7656 3422,73.7656 3422,83.7656 L3422,109.7656 C3422,119.7656 3404,119.7656 3404,119.7656 C3404,119.7656 3386,119.7656 3386,109.7656 L3386,83.7656 " fill="#E2E2F0" style="stroke:#181818;stroke-width:1.5;"/><path d="M3386,83.7656 C3386,93.7656 3404,93.7656 3404,93.7656 C3404,93.7656 3422,93.7656 3422,83.7656 " fill="none" style="stroke:#181818;stroke-width:1.5;"/><text fill="#000000" font-family="sans-serif" font-size="20" lengthAdjust="spacing" textLength="110" x="3346" y="2022.4023">«repository»</text><text fill="#000000" font-family="sans-serif" font-size="20" lengthAdjust="spacing" textLength="196" x="3303" y="2047.5586">:ApplicationRepository</text><path d="M3386,2061.9531 C3386,2051.9531 3404,2051.9531 3404,2051.9531 C3404,2051.9531 3422,2051.9531 3422,2061.9531 L3422,2087.9531 C3422,2097.9531 3404,2097.9531 3404,2097.9531 C3404,2097.9531 3386,2097.9531 3386,2087.9531 L3386,2061.9531 " fill="#E2E2F0" style="stroke:#181818;stroke-width:1.5;"/><path d="M3386,2061.9531 C3386,2071.9531 3404,2071.9531 3404,2071.9531 C3404,2071.9531 3422,2071.9531 3422,2061.9531 " fill="none" style="stroke:#181818;stroke-width:1.5;"/><rect fill="#E2E2F0" height="64.3125" rx="2.5" ry="2.5" style="stroke:#181818;stroke-width:0.5;" width="253" x="3515" y="104.7656"/><text fill="#000000" font-family="sans-serif" font-size="20" lengthAdjust="spacing" textLength="84" x="3599.5" y="132.5273">«service»</text><text fill="#000000" font-family="sans-serif" font-size="20" lengthAdjust="spacing" textLength="239" x="3522" y="157.6836">:ApplicationListDTOService</text><rect fill="#E2E2F0" height="64.3125" rx="2.5" ry="2.5" style="stroke:#181818;stroke-width:0.5;" width="253" x="3515" y="2001.6406"/><text fill="#000000" font-family="sans-serif" font-size="20" lengthAdjust="spacing" textLength="84" x="3599.5" y="2029.4023">«service»</text><text fill="#000000" font-family="sans-serif" font-size="20" lengthAdjust="spacing" textLength="239" x="3522" y="2054.5586">:ApplicationListDTOService</text><rect fill="#E2E2F0" height="64.3125" rx="2.5" ry="2.5" style="stroke:#181818;stroke-width:0.5;" width="197" x="3778" y="2001.6406"/><text fill="#000000" font-family="sans-serif" font-size="20" lengthAdjust="spacing" textLength="85" x="3834" y="2029.4023">«domain»</text><text fill="#000000" font-family="sans-serif" font-size="20" lengthAdjust="spacing" textLength="183" x="3785" y="2054.5586">:RequirementAnswer</text><rect fill="#E2E2F0" height="64.3125" rx="2.5" ry="2.5" style="stroke:#181818;stroke-width:0.5;" width="421" x="3985" y="104.7656"/><text fill="#000000" font-family="sans-serif" font-size="20" lengthAdjust="spacing" textLength="84" x="4153.5" y="132.5273">«service»</text><text fill="#000000" font-family="sans-serif" font-size="20" lengthAdjust="spacing" textLength="407" x="3992" y="157.6836">:RequirementSpecificationManagementService</text><rect fill="#E2E2F0" height="64.3125" rx="2.5" ry="2.5" style="stroke:#181818;stroke-width:0.5;" width="421" x="3985" y="2001.6406"/><text fill="#000000" font-family="sans-serif" font-size="20" lengthAdjust="spacing" textLength="84" x="4153.5" y="2029.4023">«service»</text><text fill="#000000" font-family="sans-serif" font-size="20" lengthAdjust="spacing" textLength="407" x="3992" y="2054.5586">:RequirementSpecificationManagementService</text><text fill="#000000" font-family="sans-serif" font-size="20" lengthAdjust="spacing" textLength="110" x="4761.5" y="140.5273">«repository»</text><text fill="#000000" font-family="sans-serif" font-size="20" lengthAdjust="spacing" textLength="323" x="4655" y="165.6836">:RequirementSpecificationRepository</text><path d="M4801.5,83.7656 C4801.5,73.7656 4819.5,73.7656 4819.5,73.7656 C4819.5,73.7656 4837.5,73.7656 4837.5,83.7656 L4837.5,109.7656 C4837.5,119.7656 4819.5,119.7656 4819.5,119.7656 C4819.5,119.7656 4801.5,119.7656 4801.5,109.7656 L4801.5,83.7656 " fill="#E2E2F0" style="stroke:#181818;stroke-width:1.5;"/><path d="M4801.5,83.7656 C4801.5,93.7656 4819.5,93.7656 4819.5,93.7656 C4819.5,93.7656 4837.5,93.7656 4837.5,83.7656 " fill="none" style="stroke:#181818;stroke-width:1.5;"/><text fill="#000000" font-family="sans-serif" font-size="20" lengthAdjust="spacing" textLength="110" x="4761.5" y="2022.4023">«repository»</text><text fill="#000000" font-family="sans-serif" font-size="20" lengthAdjust="spacing" textLength="323" x="4655" y="2047.5586">:RequirementSpecificationRepository</text><path d="M4801.5,2061.9531 C4801.5,2051.9531 4819.5,2051.9531 4819.5,2051.9531 C4819.5,2051.9531 4837.5,2051.9531 4837.5,2061.9531 L4837.5,2087.9531 C4837.5,2097.9531 4819.5,2097.9531 4819.5,2097.9531 C4819.5,2097.9531 4801.5,2097.9531 4801.5,2087.9531 L4801.5,2061.9531 " fill="#E2E2F0" style="stroke:#181818;stroke-width:1.5;"/><path d="M4801.5,2061.9531 C4801.5,2071.9531 4819.5,2071.9531 4819.5,2071.9531 C4819.5,2071.9531 4837.5,2071.9531 4837.5,2061.9531 " fill="none" style="stroke:#181818;stroke-width:1.5;"/><rect fill="#E2E2F0" height="39.1563" rx="2.5" ry="2.5" style="stroke:#181818;stroke-width:0.5;" width="56" x="4997.5" y="129.9219"/><text fill="#000000" font-family="sans-serif" font-size="20" lengthAdjust="spacing" textLength="42" x="5004.5" y="157.6836">Main</text><rect fill="#E2E2F0" height="39.1563" rx="2.5" ry="2.5" style="stroke:#181818;stroke-width:0.5;" width="56" x="4997.5" y="2001.6406"/><text fill="#000000" font-family="sans-serif" font-size="20" lengthAdjust="spacing" textLength="42" x="5004.5" y="2029.4023">Main</text><rect fill="#FFFFFF" height="1782.4063" style="stroke:#181818;stroke-width:1.0;" width="10" x="143.5" y="211.2344"/><rect fill="#FFFFFF" height="307.0938" style="stroke:#181818;stroke-width:1.0;" width="10" x="678.5" y="211.2344"/><rect fill="#FFFFFF" height="586.0313" style="stroke:#181818;stroke-width:1.0;" width="10" x="678.5" y="637.7969"/><rect fill="#FFFFFF" height="641.3438" style="stroke:#181818;stroke-width:1.0;" width="10" x="678.5" y="1343.2969"/><rect fill="#FFFFFF" height="245.9375" style="stroke:#181818;stroke-width:1.0;" width="10" x="1267.5" y="705.1094"/><rect fill="#FFFFFF" height="39.1563" style="stroke:#181818;stroke-width:1.0;" width="10" x="1564" y="813.4219"/><rect fill="#FFFFFF" height="30" style="stroke:#181818;stroke-width:1.0;" width="10" x="1814.5" y="744.2656"/><rect fill="#FFFFFF" height="228.7813" style="stroke:#181818;stroke-width:1.0;" width="10" x="2118.5" y="250.3906"/><rect fill="#FFFFFF" height="30" style="stroke:#181818;stroke-width:1.0;" width="10" x="2343" y="403.0156"/><rect fill="#FFFFFF" height="30" style="stroke:#181818;stroke-width:1.0;" width="10" x="2521.5" y="289.5469"/><rect fill="#FFFFFF" height="177.4688" style="stroke:#181818;stroke-width:1.0;" width="10" x="2784.5" y="1007.2031"/><rect fill="#FFFFFF" height="309.0938" style="stroke:#181818;stroke-width:1.0;" width="10" x="2784.5" y="1636.3906"/><rect fill="#FFFFFF" height="67.3125" style="stroke:#181818;stroke-width:1.0;" width="10" x="3230.5" y="1772.8594"/><rect fill="#FFFFFF" height="30" style="stroke:#181818;stroke-width:1.0;" width="10" x="3399" y="1046.3594"/><rect fill="#FFFFFF" height="30" style="stroke:#181818;stroke-width:1.0;" width="10" x="3399" y="1675.5469"/><rect fill="#FFFFFF" height="30" style="stroke:#181818;stroke-width:1.0;" width="10" x="3399" y="1915.4844"/><rect fill="#FFFFFF" height="30" style="stroke:#181818;stroke-width:1.0;" width="10" x="3636.5" y="1115.5156"/><rect fill="#FFFFFF" height="186.625" style="stroke:#181818;stroke-width:1.0;" width="10" x="4190.5" y="1410.6094"/><rect fill="#FFFFFF" height="30" style="stroke:#181818;stroke-width:1.0;" width="10" x="4814.5" y="1449.7656"/><rect fill="#FFFFFF" height="39.1563" style="stroke:#181818;stroke-width:1.0;" width="10" x="5020.5" y="1518.9219"/><polygon fill="#181818" points="666.5,207.2344,676.5,211.2344,666.5,215.2344,670.5,211.2344" style="stroke:#181818;stroke-width:1.0;"/><line style="stroke:#181818;stroke-width:1.0;" x1="153.5" x2="672.5" y1="211.2344" y2="211.2344"/><text fill="#000000" font-family="sans-serif" font-size="20" font-weight="bold" lengthAdjust="spacing" textLength="11" x="160.5" y="204.8398">1</text><text fill="#000000" font-family="sans-serif" font-size="20" lengthAdjust="spacing" textLength="157" x="175.5" y="204.8398">getJobOpenings()</text><polygon fill="#181818" points="2106.5,246.3906,2116.5,250.3906,2106.5,254.3906,2110.5,250.3906" style="stroke:#181818;stroke-width:1.0;"/><line style="stroke:#181818;stroke-width:1.0;" x1="688.5" x2="2112.5" y1="250.3906" y2="250.3906"/><text fill="#000000" font-family="sans-serif" font-size="20" font-weight="bold" lengthAdjust="spacing" textLength="11" x="695.5" y="243.9961">2</text><text fill="#000000" font-family="sans-serif" font-size="20" lengthAdjust="spacing" textLength="235" x="710.5" y="243.9961">getOnGoingJobOpenings()</text><polygon fill="#181818" points="2509.5,285.5469,2519.5,289.5469,2509.5,293.5469,2513.5,289.5469" style="stroke:#181818;stroke-width:1.0;"/><line style="stroke:#181818;stroke-width:1.0;" x1="2128.5" x2="2515.5" y1="289.5469" y2="289.5469"/><text fill="#000000" font-family="sans-serif" font-size="20" font-weight="bold" lengthAdjust="spacing" textLength="11" x="2135.5" y="283.1523">3</text><text fill="#000000" font-family="sans-serif" font-size="20" lengthAdjust="spacing" textLength="343" x="2150.5" y="283.1523">getJobOpeningsWithSTARTEDStatus()</text><path d="M1961.5,334.5469 L2047.5,334.5469 L2047.5,351.7031 L2037.5,361.7031 L1961.5,361.7031 L1961.5,334.5469 " fill="#EEEEEE" style="stroke:#000000;stroke-width:1.5;"/><rect fill="none" height="106.4688" style="stroke:#000000;stroke-width:1.5;" width="459" x="1961.5" y="334.5469"/><text fill="#000000" font-family="sans-serif" font-size="20" font-weight="bold" lengthAdjust="spacing" textLength="41" x="1976.5" y="356.3086">loop</text><text fill="#000000" font-family="sans-serif" font-size="20" font-weight="bold" lengthAdjust="spacing" textLength="287" x="2062.5" y="357.3086">[for all jobOpenings in the list]</text><polygon fill="#181818" points="2331,399.0156,2341,403.0156,2331,407.0156,2335,403.0156" style="stroke:#181818;stroke-width:1.0;"/><line style="stroke:#181818;stroke-width:1.0;" x1="2128.5" x2="2337" y1="403.0156" y2="403.0156"/><text fill="#000000" font-family="sans-serif" font-size="20" font-weight="bold" lengthAdjust="spacing" textLength="11" x="2135.5" y="396.6211">4</text><text fill="#000000" font-family="sans-serif" font-size="20" lengthAdjust="spacing" textLength="62" x="2150.5" y="396.6211">toDto()</text><polygon fill="#181818" points="699.5,475.1719,689.5,479.1719,699.5,483.1719,695.5,479.1719" style="stroke:#181818;stroke-width:1.0;"/><line style="stroke:#181818;stroke-width:1.0;stroke-dasharray:2.0,2.0;" x1="693.5" x2="2122.5" y1="479.1719" y2="479.1719"/><text fill="#000000" font-family="sans-serif" font-size="20" font-weight="bold" lengthAdjust="spacing" textLength="11" x="705.5" y="472.7773">5</text><text fill="#000000" font-family="sans-serif" font-size="20" lengthAdjust="spacing" textLength="182" x="720.5" y="472.7773">jobOpeningsListDTO</text><polygon fill="#181818" points="164.5,514.3281,154.5,518.3281,164.5,522.3281,160.5,518.3281" style="stroke:#181818;stroke-width:1.0;"/><line style="stroke:#181818;stroke-width:1.0;stroke-dasharray:2.0,2.0;" x1="158.5" x2="682.5" y1="518.3281" y2="518.3281"/><text fill="#000000" font-family="sans-serif" font-size="20" font-weight="bold" lengthAdjust="spacing" textLength="11" x="170.5" y="511.9336">6</text><text fill="#000000" font-family="sans-serif" font-size="20" lengthAdjust="spacing" textLength="6" x="185.5" y="511.9336"> </text><line style="stroke:#181818;stroke-width:1.0;" x1="153.5" x2="195.5" y1="557.4844" y2="557.4844"/><line style="stroke:#181818;stroke-width:1.0;" x1="195.5" x2="195.5" y1="557.4844" y2="570.4844"/><line style="stroke:#181818;stroke-width:1.0;" x1="154.5" x2="195.5" y1="570.4844" y2="570.4844"/><polygon fill="#181818" points="164.5,566.4844,154.5,570.4844,164.5,574.4844,160.5,570.4844" style="stroke:#181818;stroke-width:1.0;"/><text fill="#000000" font-family="sans-serif" font-size="20" font-weight="bold" lengthAdjust="spacing" textLength="11" x="160.5" y="551.0898">7</text><text fill="#000000" font-family="sans-serif" font-size="20" lengthAdjust="spacing" textLength="60" x="175.5" y="551.0898">show()</text><polygon fill="#181818" points="666.5,633.7969,676.5,637.7969,666.5,641.7969,670.5,637.7969" style="stroke:#181818;stroke-width:1.0;"/><line style="stroke:#181818;stroke-width:1.0;" x1="153.5" x2="672.5" y1="637.7969" y2="637.7969"/><text fill="#000000" font-family="sans-serif" font-size="20" font-weight="bold" lengthAdjust="spacing" textLength="11" x="160.5" y="631.4023">8</text><text fill="#000000" font-family="sans-serif" font-size="20" lengthAdjust="spacing" textLength="264" x="175.5" y="631.4023">getApplications(jobReference)</text><path d="M693,583.4844 L693,668.4844 L874,668.4844 L874,593.4844 L864,583.4844 L693,583.4844 " fill="#FEFFDD" style="stroke:#181818;stroke-width:0.5;"/><path d="M864,583.4844 L864,593.4844 L874,593.4844 L864,583.4844 " fill="#FEFFDD" style="stroke:#181818;stroke-width:0.5;"/><text fill="#000000" font-family="sans-serif" font-size="20" lengthAdjust="spacing" textLength="160" x="699" y="609.2461">JobReference is a</text><text fill="#000000" font-family="sans-serif" font-size="20" lengthAdjust="spacing" textLength="136" x="699" y="634.4023">string within the</text><text fill="#000000" font-family="sans-serif" font-size="20" lengthAdjust="spacing" textLength="147" x="699" y="659.5586">JobOpeningDTO</text><polygon fill="#181818" points="1255.5,701.1094,1265.5,705.1094,1255.5,709.1094,1259.5,705.1094" style="stroke:#181818;stroke-width:1.0;"/><line style="stroke:#181818;stroke-width:1.0;" x1="688.5" x2="1261.5" y1="705.1094" y2="705.1094"/><text fill="#000000" font-family="sans-serif" font-size="20" font-weight="bold" lengthAdjust="spacing" textLength="11" x="695.5" y="698.7148">9</text><text fill="#000000" font-family="sans-serif" font-size="20" lengthAdjust="spacing" textLength="545" x="710.5" y="698.7148">checkIfRecruitmentProcessIsInScreeningPhase(jobReference)</text><polygon fill="#181818" points="1802.5,740.2656,1812.5,744.2656,1802.5,748.2656,1806.5,744.2656" style="stroke:#181818;stroke-width:1.0;"/><line style="stroke:#181818;stroke-width:1.0;" x1="1277.5" x2="1808.5" y1="744.2656" y2="744.2656"/><text fill="#000000" font-family="sans-serif" font-size="20" font-weight="bold" lengthAdjust="spacing" textLength="22" x="1284.5" y="737.8711">10</text><text fill="#000000" font-family="sans-serif" font-size="20" lengthAdjust="spacing" textLength="482" x="1310.5" y="737.8711">getRecruitmentProcessByJobReference(jobReference)</text><polygon fill="#181818" points="1552,809.4219,1562,813.4219,1552,817.4219,1556,813.4219" style="stroke:#181818;stroke-width:1.0;"/><line style="stroke:#181818;stroke-width:1.0;" x1="1277.5" x2="1558" y1="813.4219" y2="813.4219"/><text fill="#000000" font-family="sans-serif" font-size="20" font-weight="bold" lengthAdjust="spacing" textLength="22" x="1284.5" y="807.0273">11</text><text fill="#000000" font-family="sans-serif" font-size="20" lengthAdjust="spacing" textLength="183" x="1310.5" y="807.0273">currentActivePhase()</text><polygon fill="#181818" points="1288.5,848.5781,1278.5,852.5781,1288.5,856.5781,1284.5,852.5781" style="stroke:#181818;stroke-width:1.0;"/><line style="stroke:#181818;stroke-width:1.0;stroke-dasharray:2.0,2.0;" x1="1282.5" x2="1568" y1="852.5781" y2="852.5781"/><text fill="#000000" font-family="sans-serif" font-size="20" font-weight="bold" lengthAdjust="spacing" textLength="22" x="1294.5" y="846.1836">12</text><text fill="#000000" font-family="sans-serif" font-size="20" lengthAdjust="spacing" textLength="171" x="1320.5" y="846.1836">phaseDenomination</text><path d="M497,867.5781 L565,867.5781 L565,884.7344 L555,894.7344 L497,894.7344 L497,867.5781 " fill="#EEEEEE" style="stroke:#000000;stroke-width:1.5;"/><rect fill="none" height="76.4688" style="stroke:#000000;stroke-width:1.5;" width="973.5" x="497" y="867.5781"/><text fill="#000000" font-family="sans-serif" font-size="20" font-weight="bold" lengthAdjust="spacing" textLength="23" x="512" y="889.3398">alt</text><text fill="#000000" font-family="sans-serif" font-size="20" font-weight="bold" lengthAdjust="spacing" textLength="353" x="580" y="890.3398">[phaseDenomination == SCREENING]</text><polygon fill="#181818" points="699.5,932.0469,689.5,936.0469,699.5,940.0469,695.5,936.0469" style="stroke:#181818;stroke-width:1.0;"/><line style="stroke:#181818;stroke-width:1.0;stroke-dasharray:2.0,2.0;" x1="693.5" x2="1266.5" y1="936.0469" y2="936.0469"/><text fill="#000000" font-family="sans-serif" font-size="20" font-weight="bold" lengthAdjust="spacing" textLength="22" x="705.5" y="929.6523">13</text><text fill="#000000" font-family="sans-serif" font-size="20" lengthAdjust="spacing" textLength="34" x="731.5" y="929.6523">true</text><polygon fill="#181818" points="2772.5,1003.2031,2782.5,1007.2031,2772.5,1011.2031,2776.5,1007.2031" style="stroke:#181818;stroke-width:1.0;"/><line style="stroke:#181818;stroke-width:1.0;" x1="688.5" x2="2778.5" y1="1007.2031" y2="1007.2031"/><text fill="#000000" font-family="sans-serif" font-size="20" font-weight="bold" lengthAdjust="spacing" textLength="22" x="695.5" y="1000.8086">14</text><text fill="#000000" font-family="sans-serif" font-size="20" lengthAdjust="spacing" textLength="433" x="721.5" y="1000.8086">getApplicationsFromJobReference(jobReference)</text><polygon fill="#181818" points="3387,1042.3594,3397,1046.3594,3387,1050.3594,3391,1046.3594" style="stroke:#181818;stroke-width:1.0;"/><line style="stroke:#181818;stroke-width:1.0;" x1="2794.5" x2="3393" y1="1046.3594" y2="1046.3594"/><text fill="#000000" font-family="sans-serif" font-size="20" font-weight="bold" lengthAdjust="spacing" textLength="22" x="2801.5" y="1039.9648">15</text><text fill="#000000" font-family="sans-serif" font-size="20" lengthAdjust="spacing" textLength="433" x="2827.5" y="1039.9648">getApplicationsFromJobReference(jobReference)</text><polygon fill="#181818" points="3624.5,1111.5156,3634.5,1115.5156,3624.5,1119.5156,3628.5,1115.5156" style="stroke:#181818;stroke-width:1.0;"/><line style="stroke:#181818;stroke-width:1.0;stroke-dasharray:2.0,2.0;" x1="2794.5" x2="3630.5" y1="1115.5156" y2="1115.5156"/><text fill="#000000" font-family="sans-serif" font-size="20" font-weight="bold" lengthAdjust="spacing" textLength="22" x="2801.5" y="1109.1211">16</text><text fill="#000000" font-family="sans-serif" font-size="20" lengthAdjust="spacing" textLength="382" x="2827.5" y="1109.1211">convertApplicationsToDTO(applicationsList)</text><polygon fill="#181818" points="699.5,1180.6719,689.5,1184.6719,699.5,1188.6719,695.5,1184.6719" style="stroke:#181818;stroke-width:1.0;"/><line style="stroke:#181818;stroke-width:1.0;stroke-dasharray:2.0,2.0;" x1="693.5" x2="2788.5" y1="1184.6719" y2="1184.6719"/><text fill="#000000" font-family="sans-serif" font-size="20" font-weight="bold" lengthAdjust="spacing" textLength="22" x="705.5" y="1178.2773">17</text><text fill="#000000" font-family="sans-serif" font-size="20" lengthAdjust="spacing" textLength="176" x="731.5" y="1178.2773">applicationsListDTO</text><polygon fill="#181818" points="164.5,1219.8281,154.5,1223.8281,164.5,1227.8281,160.5,1223.8281" style="stroke:#181818;stroke-width:1.0;"/><line style="stroke:#181818;stroke-width:1.0;stroke-dasharray:2.0,2.0;" x1="158.5" x2="682.5" y1="1223.8281" y2="1223.8281"/><text fill="#000000" font-family="sans-serif" font-size="20" font-weight="bold" lengthAdjust="spacing" textLength="22" x="170.5" y="1217.4336">18</text><text fill="#000000" font-family="sans-serif" font-size="20" lengthAdjust="spacing" textLength="6" x="196.5" y="1217.4336"> </text><line style="stroke:#181818;stroke-width:1.0;" x1="153.5" x2="195.5" y1="1262.9844" y2="1262.9844"/><line style="stroke:#181818;stroke-width:1.0;" x1="195.5" x2="195.5" y1="1262.9844" y2="1275.9844"/><line style="stroke:#181818;stroke-width:1.0;" x1="154.5" x2="195.5" y1="1275.9844" y2="1275.9844"/><polygon fill="#181818" points="164.5,1271.9844,154.5,1275.9844,164.5,1279.9844,160.5,1275.9844" style="stroke:#181818;stroke-width:1.0;"/><text fill="#000000" font-family="sans-serif" font-size="20" font-weight="bold" lengthAdjust="spacing" textLength="22" x="160.5" y="1256.5898">19</text><text fill="#000000" font-family="sans-serif" font-size="20" lengthAdjust="spacing" textLength="60" x="186.5" y="1256.5898">show()</text><polygon fill="#181818" points="666.5,1339.2969,676.5,1343.2969,666.5,1347.2969,670.5,1343.2969" style="stroke:#181818;stroke-width:1.0;"/><line style="stroke:#181818;stroke-width:1.0;" x1="153.5" x2="672.5" y1="1343.2969" y2="1343.2969"/><text fill="#000000" font-family="sans-serif" font-size="20" font-weight="bold" lengthAdjust="spacing" textLength="22" x="160.5" y="1336.9023">20</text><text fill="#000000" font-family="sans-serif" font-size="20" lengthAdjust="spacing" textLength="480" x="186.5" y="1336.9023">uploadFile(applicationDTO, requirementName, filepath)</text><path d="M693,1288.9844 L693,1373.9844 L889,1373.9844 L889,1298.9844 L879,1288.9844 L693,1288.9844 " fill="#FEFFDD" style="stroke:#181818;stroke-width:0.5;"/><path d="M879,1288.9844 L879,1298.9844 L889,1298.9844 L879,1288.9844 " fill="#FEFFDD" style="stroke:#181818;stroke-width:0.5;"/><text fill="#000000" font-family="sans-serif" font-size="20" lengthAdjust="spacing" textLength="175" x="699" y="1314.7461">requirementName is</text><text fill="#000000" font-family="sans-serif" font-size="20" lengthAdjust="spacing" textLength="153" x="699" y="1339.9023">a string within the</text><text fill="#000000" font-family="sans-serif" font-size="20" lengthAdjust="spacing" textLength="147" x="699" y="1365.0586">JobOpeningDTO</text><polygon fill="#181818" points="4178.5,1406.6094,4188.5,1410.6094,4178.5,1414.6094,4182.5,1410.6094" style="stroke:#181818;stroke-width:1.0;"/><line style="stroke:#181818;stroke-width:1.0;" x1="688.5" x2="4184.5" y1="1410.6094" y2="1410.6094"/><text fill="#000000" font-family="sans-serif" font-size="20" font-weight="bold" lengthAdjust="spacing" textLength="22" x="695.5" y="1404.2148">21</text><text fill="#000000" font-family="sans-serif" font-size="20" lengthAdjust="spacing" textLength="461" x="721.5" y="1404.2148">checkAnswersFileIsValid(requirementName, filepath)</text><polygon fill="#181818" points="4802.5,1445.7656,4812.5,1449.7656,4802.5,1453.7656,4806.5,1449.7656" style="stroke:#181818;stroke-width:1.0;"/><line style="stroke:#181818;stroke-width:1.0;" x1="4200.5" x2="4808.5" y1="1449.7656" y2="1449.7656"/><text fill="#000000" font-family="sans-serif" font-size="20" font-weight="bold" lengthAdjust="spacing" textLength="22" x="4207.5" y="1443.3711">22</text><text fill="#000000" font-family="sans-serif" font-size="20" lengthAdjust="spacing" textLength="569" x="4233.5" y="1443.3711">requirementSpecificationByRequirementName(requirementName)</text><polygon fill="#181818" points="5008.5,1514.9219,5018.5,1518.9219,5008.5,1522.9219,5012.5,1518.9219" style="stroke:#181818;stroke-width:1.0;"/><line style="stroke:#181818;stroke-width:1.0;" x1="4200.5" x2="5014.5" y1="1518.9219" y2="1518.9219"/><text fill="#000000" font-family="sans-serif" font-size="20" font-weight="bold" lengthAdjust="spacing" textLength="22" x="4207.5" y="1512.5273">23</text><text fill="#000000" font-family="sans-serif" font-size="20" lengthAdjust="spacing" textLength="222" x="4233.5" y="1512.5273">checkFileFormat(filepath)</text><polygon fill="#181818" points="4211.5,1554.0781,4201.5,1558.0781,4211.5,1562.0781,4207.5,1558.0781" style="stroke:#181818;stroke-width:1.0;"/><line style="stroke:#181818;stroke-width:1.0;stroke-dasharray:2.0,2.0;" x1="4205.5" x2="5024.5" y1="1558.0781" y2="1558.0781"/><text fill="#000000" font-family="sans-serif" font-size="20" font-weight="bold" lengthAdjust="spacing" textLength="22" x="4217.5" y="1551.6836">24</text><text fill="#000000" font-family="sans-serif" font-size="20" lengthAdjust="spacing" textLength="34" x="4243.5" y="1551.6836">true</text><polygon fill="#181818" points="699.5,1593.2344,689.5,1597.2344,699.5,1601.2344,695.5,1597.2344" style="stroke:#181818;stroke-width:1.0;"/><line style="stroke:#181818;stroke-width:1.0;stroke-dasharray:2.0,2.0;" x1="693.5" x2="4194.5" y1="1597.2344" y2="1597.2344"/><text fill="#000000" font-family="sans-serif" font-size="20" font-weight="bold" lengthAdjust="spacing" textLength="22" x="705.5" y="1590.8398">25</text><text fill="#000000" font-family="sans-serif" font-size="20" lengthAdjust="spacing" textLength="34" x="731.5" y="1590.8398">true</text><polygon fill="#181818" points="2772.5,1632.3906,2782.5,1636.3906,2772.5,1640.3906,2776.5,1636.3906" style="stroke:#181818;stroke-width:1.0;"/><line style="stroke:#181818;stroke-width:1.0;" x1="688.5" x2="2778.5" y1="1636.3906" y2="1636.3906"/><text fill="#000000" font-family="sans-serif" font-size="20" font-weight="bold" lengthAdjust="spacing" textLength="22" x="695.5" y="1629.9961">26</text><text fill="#000000" font-family="sans-serif" font-size="20" lengthAdjust="spacing" textLength="389" x="721.5" y="1629.9961">uploadAnswersFile(applicationDTO, filepath)</text><polygon fill="#181818" points="3387,1671.5469,3397,1675.5469,3387,1679.5469,3391,1675.5469" style="stroke:#181818;stroke-width:1.0;"/><line style="stroke:#181818;stroke-width:1.0;" x1="2794.5" x2="3393" y1="1675.5469" y2="1675.5469"/><text fill="#000000" font-family="sans-serif" font-size="20" font-weight="bold" lengthAdjust="spacing" textLength="22" x="2801.5" y="1669.1523">27</text><text fill="#000000" font-family="sans-serif" font-size="20" lengthAdjust="spacing" textLength="360" x="2827.5" y="1669.1523">getApplicationFromDTO(applicationDTO)</text><polygon fill="#181818" points="3218.5,1768.8594,3228.5,1772.8594,3218.5,1776.8594,3222.5,1772.8594" style="stroke:#181818;stroke-width:1.0;"/><line style="stroke:#181818;stroke-width:1.0;" x1="2794.5" x2="3224.5" y1="1772.8594" y2="1772.8594"/><text fill="#000000" font-family="sans-serif" font-size="20" font-weight="bold" lengthAdjust="spacing" textLength="22" x="2801.5" y="1766.4648">28</text><text fill="#000000" font-family="sans-serif" font-size="20" lengthAdjust="spacing" textLength="391" x="2827.5" y="1766.4648">updateRequirementAnswer(fileWithAnswers)</text><path d="M3245,1718.5469 L3245,1803.5469 L3460,1803.5469 L3460,1728.5469 L3450,1718.5469 L3245,1718.5469 " fill="#FEFFDD" style="stroke:#181818;stroke-width:0.5;"/><path d="M3450,1718.5469 L3450,1728.5469 L3460,1728.5469 L3450,1718.5469 " fill="#FEFFDD" style="stroke:#181818;stroke-width:0.5;"/><text fill="#000000" font-family="sans-serif" font-size="20" lengthAdjust="spacing" textLength="151" x="3251" y="1744.3086">Conversion of file</text><text fill="#000000" font-family="sans-serif" font-size="20" lengthAdjust="spacing" textLength="194" x="3251" y="1769.4648">content to a in-system</text><text fill="#000000" font-family="sans-serif" font-size="20" lengthAdjust="spacing" textLength="157" x="3257" y="1794.6211">File already made</text><polygon fill="#181818" points="3766,1836.1719,3776,1840.1719,3766,1844.1719,3770,1840.1719" style="stroke:#181818;stroke-width:1.0;"/><line style="stroke:#181818;stroke-width:1.0;" x1="3235.5" x2="3772" y1="1840.1719" y2="1840.1719"/><text fill="#000000" font-family="sans-serif" font-size="20" font-weight="bold" lengthAdjust="spacing" textLength="22" x="3242.5" y="1833.7773">29</text><text fill="#000000" font-family="sans-serif" font-size="20" lengthAdjust="spacing" textLength="331" x="3268.5" y="1833.7773">RequirementAnswer(fileWithAnswers)</text><rect fill="#E2E2F0" height="64.3125" rx="2.5" ry="2.5" style="stroke:#181818;stroke-width:0.5;" width="197" x="3778" y="1809.0156"/><text fill="#000000" font-family="sans-serif" font-size="20" lengthAdjust="spacing" textLength="85" x="3834" y="1836.7773">«domain»</text><text fill="#000000" font-family="sans-serif" font-size="20" lengthAdjust="spacing" textLength="183" x="3785" y="1861.9336">:RequirementAnswer</text><polygon fill="#181818" points="3387,1911.4844,3397,1915.4844,3387,1919.4844,3391,1915.4844" style="stroke:#181818;stroke-width:1.0;"/><line style="stroke:#181818;stroke-width:1.0;" x1="2794.5" x2="3393" y1="1915.4844" y2="1915.4844"/><text fill="#000000" font-family="sans-serif" font-size="20" font-weight="bold" lengthAdjust="spacing" textLength="22" x="2801.5" y="1909.0898">30</text><text fill="#000000" font-family="sans-serif" font-size="20" lengthAdjust="spacing" textLength="148" x="2827.5" y="1909.0898">save(application)</text><polygon fill="#181818" points="164.5,1980.6406,154.5,1984.6406,164.5,1988.6406,160.5,1984.6406" style="stroke:#181818;stroke-width:1.0;"/><line style="stroke:#181818;stroke-width:1.0;stroke-dasharray:2.0,2.0;" x1="158.5" x2="682.5" y1="1984.6406" y2="1984.6406"/><text fill="#000000" font-family="sans-serif" font-size="20" font-weight="bold" lengthAdjust="spacing" textLength="22" x="170.5" y="1978.2461">31</text><text fill="#000000" font-family="sans-serif" font-size="20" lengthAdjust="spacing" textLength="157" x="196.5" y="1978.2461">success importing</text><!--SRC=[dLTDR-Cs4BtpLn3RGxsB3H0iUWgs0H8x2Lnauy2osqilZ3oskP58XQISfiYFx_135lLXowaFGKpEl7apV3EazJCN1LCipsJw32kwWZKhCtChXKdulq2_dHDYkCc0BfDlv-U_qGHUIX0fq0bd6_GZX9L6YZ9_0aN8a_o79c_QG4v_kUURhRdEIY0KFnZ4y9GNJ1ZwwVltGe46OPZXKbnU_YqkbaKcsMgEw5n1ZbjNGh-2qilf9yeqNKxxK5XHP3mT1XbZEafc6IW7DbxCx_lWDAWTJy51pI5L9JSMv5795BJ-mGJREDJ4spciO9UeNH_YIkQCYmE0iN-qx71MpB0dfi62A2YavaQgjmD0yxt10SZQO2ZjF-JJh031nQO_NTmVJhK6gNncnL1MjKyh6zomAsI8-LMjXNxgQ31CFKAfd8QOHoujwhZZg9_E_9vhCrdCMhJj2Z8V55XBza4CB_uR6LRytZyf8ENhezL4wwgQHxNQZzbHx8ih58WLnH52_21vpCeD5s6GF7BntCtW1oRl4Bnj1F3hx-53xy1O4T4WBqsh7RASqhDBDmte1Ts0gJMeHvy9ImtVCGDszkp_TwE3E1TqzTtWdMVYJgBd0OpGDoHuU5-RSoVoNzniayNLV74pIN0-bcqOLwWLT9P89cL1rr9HbcNqPmr8iOPc2pH3RRaADZZC2cHWvCH8Z6DtO-2gRQ6rQCjimzNvr7MC8WSrjzYwElWAeXSMDzhsvVNdWdylgDxALoJMFi-ePOwSPsmr-cdhj0PbBw_FhGCL4lzJLcPLWVQcb6lAtAes2fEYhtW-lgALRKZNPceBOy58hP7wWa1IwHRIv-cwEw6dUYgIL853UjnYDnqY75qu9CAk8_NEVL-GhiNrMvpiGCp-6oKwlgDsWsnjVKgbxFooWE3BS9J67ZI6EMjNlR104n0ovyAfuJXdVD9afkk4EgF9U7vpyp1zk6iaKulEA7pkM14WGayGTsZlx- -rElobr9NhhPBvAISJBZKIS3nYFLV-9sHxnbHB-p0-Zh-NxB59iGFLYBQGk3kA7cXk6ZJ3X7kj6QYwxA9GeRXjiDPegKhnqT5IJvQnxKuwNTDRdhd6_vDbV7LWlfJkhMajuooHqrUgwbllWUNmbQxHgc1cEp1tMdx8m4_a3uwUUlAyH5CdF8KjuQbsYOrEuHdkUHB0F6mGc3fmkr-_pPl8xKXD_BRQggKePdWAX5Hi3hTIvSoCUXY7fm09FcTn9Ln_Hg4gsofIgvERf5mTQhNu7nlkQdLwsSkaqzjUAj41T1JJaqQGyt1ZsxvkzHf-_M13EtX75Lzpq7bAkZhRbqb8eedUrl7OZGDjPwPSkzpSCau9WuZusa19St6ctGz5j-Kho385RFL6SxQ2IC-McJz47_tB5oHw0iLcllqpKhDTupHEAzlngMDXozHTHJml93vNnQOpYVu3]--></g></svg>