<?xml version="1.0" encoding="UTF-8" standalone="no"?><svg xmlns="http://www.w3.org/2000/svg" xmlns:xlink="http://www.w3.org/1999/xlink" contentStyleType="text/css" height="1989px" preserveAspectRatio="none" style="width:5058px;height:1989px;background:#FFFFFF;" version="1.1" viewBox="0 0 5058 1989" width="5058px" zoomAndPan="magnify"><defs/><g><text fill="#000000" font-family="sans-serif" font-size="14" font-weight="bold" lengthAdjust="spacing" textLength="187" x="2432.5" y="29.5332">US2004 Sequence Diagram</text><rect fill="#ADD8E6" height="1931.7188" style="stroke:#181818;stroke-width:0.5;" width="4978" x="1" y="44.6094"/><text fill="#000000" font-family="sans-serif" font-size="20" font-weight="bold" lengthAdjust="spacing" textLength="70" x="2452" y="65.3711">System</text><rect fill="#FFB6C1" height="1931.7188" style="stroke:#181818;stroke-width:0.5;" width="71" x="4981" y="44.6094"/><text fill="#000000" font-family="sans-serif" font-size="20" font-weight="bold" lengthAdjust="spacing" textLength="59" x="4984" y="65.3711">Plugin</text><rect fill="#FFFFFF" height="1656.7813" style="stroke:#181818;stroke-width:1.0;" width="10" x="143.5" y="211.2344"/><rect fill="#FFFFFF" height="483.5625" style="stroke:#181818;stroke-width:1.0;" width="10" x="678.5" y="211.2344"/><rect fill="#FFFFFF" height="283.9375" style="stroke:#181818;stroke-width:1.0;" width="10" x="678.5" y="814.2656"/><rect fill="#FFFFFF" height="641.3438" style="stroke:#181818;stroke-width:1.0;" width="10" x="678.5" y="1217.6719"/><rect fill="#FFFFFF" height="405.25" style="stroke:#181818;stroke-width:1.0;" width="10" x="1115.5" y="250.3906"/><rect fill="#FFFFFF" height="30" style="stroke:#181818;stroke-width:1.0;" width="10" x="1393.5" y="586.4844"/><rect fill="#FFFFFF" height="30" style="stroke:#181818;stroke-width:1.0;" width="10" x="1625.5" y="289.5469"/><rect fill="#FFFFFF" height="147.4688" style="stroke:#181818;stroke-width:1.0;" width="10" x="1929.5" y="392.8594"/><rect fill="#FFFFFF" height="39.1563" style="stroke:#181818;stroke-width:1.0;" width="10" x="2226" y="501.1719"/><rect fill="#FFFFFF" height="30" style="stroke:#181818;stroke-width:1.0;" width="10" x="2476.5" y="432.0156"/><rect fill="#FFFFFF" height="177.4688" style="stroke:#181818;stroke-width:1.0;" width="10" x="2775.5" y="881.5781"/><rect fill="#FFFFFF" height="309.0938" style="stroke:#181818;stroke-width:1.0;" width="10" x="2775.5" y="1510.7656"/><rect fill="#FFFFFF" height="67.3125" style="stroke:#181818;stroke-width:1.0;" width="10" x="3221.5" y="1647.2344"/><rect fill="#FFFFFF" height="30" style="stroke:#181818;stroke-width:1.0;" width="10" x="3390" y="920.7344"/><rect fill="#FFFFFF" height="30" style="stroke:#181818;stroke-width:1.0;" width="10" x="3390" y="1549.9219"/><rect fill="#FFFFFF" height="30" style="stroke:#181818;stroke-width:1.0;" width="10" x="3390" y="1789.8594"/><rect fill="#FFFFFF" height="30" style="stroke:#181818;stroke-width:1.0;" width="10" x="3627.5" y="989.8906"/><rect fill="#FFFFFF" height="186.625" style="stroke:#181818;stroke-width:1.0;" width="10" x="4181.5" y="1284.9844"/><rect fill="#FFFFFF" height="30" style="stroke:#181818;stroke-width:1.0;" width="10" x="4805.5" y="1324.1406"/><rect fill="#FFFFFF" height="39.1563" style="stroke:#181818;stroke-width:1.0;" width="10" x="5011.5" y="1393.2969"/><rect fill="none" height="213.7813" style="stroke:#000000;stroke-width:1.5;" width="1675" x="958.5" y="334.5469"/><line style="stroke:#181818;stroke-width:0.5;stroke-dasharray:5.0,5.0;" x1="148" x2="148" y1="170.0781" y2="1877.0156"/><line style="stroke:#181818;stroke-width:0.5;stroke-dasharray:5.0,5.0;" x1="683" x2="683" y1="170.0781" y2="1877.0156"/><line style="stroke:#181818;stroke-width:0.5;stroke-dasharray:5.0,5.0;" x1="1120.5" x2="1120.5" y1="170.0781" y2="1877.0156"/><line style="stroke:#181818;stroke-width:0.5;stroke-dasharray:5.0,5.0;" x1="1398.5" x2="1398.5" y1="170.0781" y2="1877.0156"/><line style="stroke:#181818;stroke-width:0.5;stroke-dasharray:5.0,5.0;" x1="1630.5" x2="1630.5" y1="170.0781" y2="1877.0156"/><line style="stroke:#181818;stroke-width:0.5;stroke-dasharray:5.0,5.0;" x1="1934.5" x2="1934.5" y1="170.0781" y2="1877.0156"/><line style="stroke:#181818;stroke-width:0.5;stroke-dasharray:5.0,5.0;" x1="2230.5" x2="2230.5" y1="170.0781" y2="1877.0156"/><line style="stroke:#181818;stroke-width:0.5;stroke-dasharray:5.0,5.0;" x1="2481.5" x2="2481.5" y1="170.0781" y2="1877.0156"/><line style="stroke:#181818;stroke-width:0.5;stroke-dasharray:5.0,5.0;" x1="2780.5" x2="2780.5" y1="170.0781" y2="1877.0156"/><line style="stroke:#181818;stroke-width:0.5;stroke-dasharray:5.0,5.0;" x1="3226" x2="3226" y1="170.0781" y2="1877.0156"/><line style="stroke:#181818;stroke-width:0.5;stroke-dasharray:5.0,5.0;" x1="3395" x2="3395" y1="170.0781" y2="1877.0156"/><line style="stroke:#181818;stroke-width:0.5;stroke-dasharray:5.0,5.0;" x1="3632" x2="3632" y1="170.0781" y2="1877.0156"/><line style="stroke:#181818;stroke-width:0.5;stroke-dasharray:5.0,5.0;" x1="3867" x2="3867" y1="1731.0469" y2="1877.0156"/><line style="stroke:#181818;stroke-width:0.5;stroke-dasharray:5.0,5.0;" x1="4186" x2="4186" y1="170.0781" y2="1877.0156"/><line style="stroke:#181818;stroke-width:0.5;stroke-dasharray:5.0,5.0;" x1="4810" x2="4810" y1="170.0781" y2="1877.0156"/><line style="stroke:#181818;stroke-width:0.5;stroke-dasharray:5.0,5.0;" x1="5016.5" x2="5016.5" y1="170.0781" y2="1877.0156"/><rect fill="#E2E2F0" height="64.3125" rx="2.5" ry="2.5" style="stroke:#181818;stroke-width:0.5;" width="287" x="5" y="104.7656"/><text fill="#000000" font-family="sans-serif" font-size="20" lengthAdjust="spacing" textLength="130" x="83.5" y="132.5273">«presentation»</text><text fill="#000000" font-family="sans-serif" font-size="20" lengthAdjust="spacing" textLength="273" x="12" y="157.6836">:UploadRequirementAnswersUI</text><rect fill="#E2E2F0" height="64.3125" rx="2.5" ry="2.5" style="stroke:#181818;stroke-width:0.5;" width="287" x="5" y="1876.0156"/><text fill="#000000" font-family="sans-serif" font-size="20" lengthAdjust="spacing" textLength="130" x="83.5" y="1903.7773">«presentation»</text><text fill="#000000" font-family="sans-serif" font-size="20" lengthAdjust="spacing" textLength="273" x="12" y="1928.9336">:UploadRequirementAnswersUI</text><rect fill="#E2E2F0" height="64.3125" rx="2.5" ry="2.5" style="stroke:#181818;stroke-width:0.5;" width="353" x="507" y="104.7656"/><text fill="#000000" font-family="sans-serif" font-size="20" lengthAdjust="spacing" textLength="115" x="626" y="132.5273">«application»</text><text fill="#000000" font-family="sans-serif" font-size="20" lengthAdjust="spacing" textLength="339" x="514" y="157.6836">:UploadRequirementAnswersController</text><rect fill="#E2E2F0" height="64.3125" rx="2.5" ry="2.5" style="stroke:#181818;stroke-width:0.5;" width="353" x="507" y="1876.0156"/><text fill="#000000" font-family="sans-serif" font-size="20" lengthAdjust="spacing" textLength="115" x="626" y="1903.7773">«application»</text><text fill="#000000" font-family="sans-serif" font-size="20" lengthAdjust="spacing" textLength="339" x="514" y="1928.9336">:UploadRequirementAnswersController</text><rect fill="#E2E2F0" height="64.3125" rx="2.5" ry="2.5" style="stroke:#181818;stroke-width:0.5;" width="304" x="968.5" y="104.7656"/><text fill="#000000" font-family="sans-serif" font-size="20" lengthAdjust="spacing" textLength="84" x="1078.5" y="132.5273">«service»</text><text fill="#000000" font-family="sans-serif" font-size="20" lengthAdjust="spacing" textLength="290" x="975.5" y="157.6836">:JobOpeningManagementService</text><rect fill="#E2E2F0" height="64.3125" rx="2.5" ry="2.5" style="stroke:#181818;stroke-width:0.5;" width="304" x="968.5" y="1876.0156"/><text fill="#000000" font-family="sans-serif" font-size="20" lengthAdjust="spacing" textLength="84" x="1078.5" y="1903.7773">«service»</text><text fill="#000000" font-family="sans-serif" font-size="20" lengthAdjust="spacing" textLength="290" x="975.5" y="1928.9336">:JobOpeningManagementService</text><rect fill="#E2E2F0" height="64.3125" rx="2.5" ry="2.5" style="stroke:#181818;stroke-width:0.5;" width="232" x="1282.5" y="104.7656"/><text fill="#000000" font-family="sans-serif" font-size="20" lengthAdjust="spacing" textLength="84" x="1356.5" y="132.5273">«service»</text><text fill="#000000" font-family="sans-serif" font-size="20" lengthAdjust="spacing" textLength="218" x="1289.5" y="157.6836">:JobOpeningDTOService</text><rect fill="#E2E2F0" height="64.3125" rx="2.5" ry="2.5" style="stroke:#181818;stroke-width:0.5;" width="232" x="1282.5" y="1876.0156"/><text fill="#000000" font-family="sans-serif" font-size="20" lengthAdjust="spacing" textLength="84" x="1356.5" y="1903.7773">«service»</text><text fill="#000000" font-family="sans-serif" font-size="20" lengthAdjust="spacing" textLength="218" x="1289.5" y="1928.9336">:JobOpeningDTOService</text><text fill="#000000" font-family="sans-serif" font-size="20" lengthAdjust="spacing" textLength="110" x="1572.5" y="140.5273">«repository»</text><text fill="#000000" font-family="sans-serif" font-size="20" lengthAdjust="spacing" textLength="206" x="1524.5" y="165.6836">:JobOpeningRepository</text><path d="M1612.5,83.7656 C1612.5,73.7656 1630.5,73.7656 1630.5,73.7656 C1630.5,73.7656 1648.5,73.7656 1648.5,83.7656 L1648.5,109.7656 C1648.5,119.7656 1630.5,119.7656 1630.5,119.7656 C1630.5,119.7656 1612.5,119.7656 1612.5,109.7656 L1612.5,83.7656 " fill="#E2E2F0" style="stroke:#181818;stroke-width:1.5;"/><path d="M1612.5,83.7656 C1612.5,93.7656 1630.5,93.7656 1630.5,93.7656 C1630.5,93.7656 1648.5,93.7656 1648.5,83.7656 " fill="none" style="stroke:#181818;stroke-width:1.5;"/><text fill="#000000" font-family="sans-serif" font-size="20" lengthAdjust="spacing" textLength="110" x="1572.5" y="1896.7773">«repository»</text><text fill="#000000" font-family="sans-serif" font-size="20" lengthAdjust="spacing" textLength="206" x="1524.5" y="1921.9336">:JobOpeningRepository</text><path d="M1612.5,1936.3281 C1612.5,1926.3281 1630.5,1926.3281 1630.5,1926.3281 C1630.5,1926.3281 1648.5,1926.3281 1648.5,1936.3281 L1648.5,1962.3281 C1648.5,1972.3281 1630.5,1972.3281 1630.5,1972.3281 C1630.5,1972.3281 1612.5,1972.3281 1612.5,1962.3281 L1612.5,1936.3281 " fill="#E2E2F0" style="stroke:#181818;stroke-width:1.5;"/><path d="M1612.5,1936.3281 C1612.5,1946.3281 1630.5,1946.3281 1630.5,1946.3281 C1630.5,1946.3281 1648.5,1946.3281 1648.5,1936.3281 " fill="none" style="stroke:#181818;stroke-width:1.5;"/><rect fill="#E2E2F0" height="64.3125" rx="2.5" ry="2.5" style="stroke:#181818;stroke-width:0.5;" width="376" x="1746.5" y="104.7656"/><text fill="#000000" font-family="sans-serif" font-size="20" lengthAdjust="spacing" textLength="84" x="1892.5" y="132.5273">«service»</text><text fill="#000000" font-family="sans-serif" font-size="20" lengthAdjust="spacing" textLength="362" x="1753.5" y="157.6836">:RecruitmentProcessManagementService</text><rect fill="#E2E2F0" height="64.3125" rx="2.5" ry="2.5" style="stroke:#181818;stroke-width:0.5;" width="376" x="1746.5" y="1876.0156"/><text fill="#000000" font-family="sans-serif" font-size="20" lengthAdjust="spacing" textLength="84" x="1892.5" y="1903.7773">«service»</text><text fill="#000000" font-family="sans-serif" font-size="20" lengthAdjust="spacing" textLength="362" x="1753.5" y="1928.9336">:RecruitmentProcessManagementService</text><rect fill="#E2E2F0" height="64.3125" rx="2.5" ry="2.5" style="stroke:#181818;stroke-width:0.5;" width="197" x="2132.5" y="104.7656"/><text fill="#000000" font-family="sans-serif" font-size="20" lengthAdjust="spacing" textLength="85" x="2188.5" y="132.5273">«domain»</text><text fill="#000000" font-family="sans-serif" font-size="20" lengthAdjust="spacing" textLength="183" x="2139.5" y="157.6836">:RecruitmentProcess</text><rect fill="#E2E2F0" height="64.3125" rx="2.5" ry="2.5" style="stroke:#181818;stroke-width:0.5;" width="197" x="2132.5" y="1876.0156"/><text fill="#000000" font-family="sans-serif" font-size="20" lengthAdjust="spacing" textLength="85" x="2188.5" y="1903.7773">«domain»</text><text fill="#000000" font-family="sans-serif" font-size="20" lengthAdjust="spacing" textLength="183" x="2139.5" y="1928.9336">:RecruitmentProcess</text><text fill="#000000" font-family="sans-serif" font-size="20" lengthAdjust="spacing" textLength="110" x="2423.5" y="140.5273">«repository»</text><text fill="#000000" font-family="sans-serif" font-size="20" lengthAdjust="spacing" textLength="278" x="2339.5" y="165.6836">:RecruitmentProcessRepository</text><path d="M2463.5,83.7656 C2463.5,73.7656 2481.5,73.7656 2481.5,73.7656 C2481.5,73.7656 2499.5,73.7656 2499.5,83.7656 L2499.5,109.7656 C2499.5,119.7656 2481.5,119.7656 2481.5,119.7656 C2481.5,119.7656 2463.5,119.7656 2463.5,109.7656 L2463.5,83.7656 " fill="#E2E2F0" style="stroke:#181818;stroke-width:1.5;"/><path d="M2463.5,83.7656 C2463.5,93.7656 2481.5,93.7656 2481.5,93.7656 C2481.5,93.7656 2499.5,93.7656 2499.5,83.7656 " fill="none" style="stroke:#181818;stroke-width:1.5;"/><text fill="#000000" font-family="sans-serif" font-size="20" lengthAdjust="spacing" textLength="110" x="2423.5" y="1896.7773">«repository»</text><text fill="#000000" font-family="sans-serif" font-size="20" lengthAdjust="spacing" textLength="278" x="2339.5" y="1921.9336">:RecruitmentProcessRepository</text><path d="M2463.5,1936.3281 C2463.5,1926.3281 2481.5,1926.3281 2481.5,1926.3281 C2481.5,1926.3281 2499.5,1926.3281 2499.5,1936.3281 L2499.5,1962.3281 C2499.5,1972.3281 2481.5,1972.3281 2481.5,1972.3281 C2481.5,1972.3281 2463.5,1972.3281 2463.5,1962.3281 L2463.5,1936.3281 " fill="#E2E2F0" style="stroke:#181818;stroke-width:1.5;"/><path d="M2463.5,1936.3281 C2463.5,1946.3281 2481.5,1946.3281 2481.5,1946.3281 C2481.5,1946.3281 2499.5,1946.3281 2499.5,1936.3281 " fill="none" style="stroke:#181818;stroke-width:1.5;"/><rect fill="#E2E2F0" height="64.3125" rx="2.5" ry="2.5" style="stroke:#181818;stroke-width:0.5;" width="294" x="2633.5" y="104.7656"/><text fill="#000000" font-family="sans-serif" font-size="20" lengthAdjust="spacing" textLength="84" x="2738.5" y="132.5273">«service»</text><text fill="#000000" font-family="sans-serif" font-size="20" lengthAdjust="spacing" textLength="280" x="2640.5" y="157.6836">:ApplicationManagementService</text><rect fill="#E2E2F0" height="64.3125" rx="2.5" ry="2.5" style="stroke:#181818;stroke-width:0.5;" width="294" x="2633.5" y="1876.0156"/><text fill="#000000" font-family="sans-serif" font-size="20" lengthAdjust="spacing" textLength="84" x="2738.5" y="1903.7773">«service»</text><text fill="#000000" font-family="sans-serif" font-size="20" lengthAdjust="spacing" textLength="280" x="2640.5" y="1928.9336">:ApplicationManagementService</text><rect fill="#E2E2F0" height="64.3125" rx="2.5" ry="2.5" style="stroke:#181818;stroke-width:0.5;" width="115" x="3169" y="104.7656"/><text fill="#000000" font-family="sans-serif" font-size="20" lengthAdjust="spacing" textLength="85" x="3184" y="132.5273">«domain»</text><text fill="#000000" font-family="sans-serif" font-size="20" lengthAdjust="spacing" textLength="101" x="3176" y="157.6836">:Application</text><rect fill="#E2E2F0" height="64.3125" rx="2.5" ry="2.5" style="stroke:#181818;stroke-width:0.5;" width="115" x="3169" y="1876.0156"/><text fill="#000000" font-family="sans-serif" font-size="20" lengthAdjust="spacing" textLength="85" x="3184" y="1903.7773">«domain»</text><text fill="#000000" font-family="sans-serif" font-size="20" lengthAdjust="spacing" textLength="101" x="3176" y="1928.9336">:Application</text><text fill="#000000" font-family="sans-serif" font-size="20" lengthAdjust="spacing" textLength="110" x="3337" y="140.5273">«repository»</text><text fill="#000000" font-family="sans-serif" font-size="20" lengthAdjust="spacing" textLength="196" x="3294" y="165.6836">:ApplicationRepository</text><path d="M3377,83.7656 C3377,73.7656 3395,73.7656 3395,73.7656 C3395,73.7656 3413,73.7656 3413,83.7656 L3413,109.7656 C3413,119.7656 3395,119.7656 3395,119.7656 C3395,119.7656 3377,119.7656 3377,109.7656 L3377,83.7656 " fill="#E2E2F0" style="stroke:#181818;stroke-width:1.5;"/><path d="M3377,83.7656 C3377,93.7656 3395,93.7656 3395,93.7656 C3395,93.7656 3413,93.7656 3413,83.7656 " fill="none" style="stroke:#181818;stroke-width:1.5;"/><text fill="#000000" font-family="sans-serif" font-size="20" lengthAdjust="spacing" textLength="110" x="3337" y="1896.7773">«repository»</text><text fill="#000000" font-family="sans-serif" font-size="20" lengthAdjust="spacing" textLength="196" x="3294" y="1921.9336">:ApplicationRepository</text><path d="M3377,1936.3281 C3377,1926.3281 3395,1926.3281 3395,1926.3281 C3395,1926.3281 3413,1926.3281 3413,1936.3281 L3413,1962.3281 C3413,1972.3281 3395,1972.3281 3395,1972.3281 C3395,1972.3281 3377,1972.3281 3377,1962.3281 L3377,1936.3281 " fill="#E2E2F0" style="stroke:#181818;stroke-width:1.5;"/><path d="M3377,1936.3281 C3377,1946.3281 3395,1946.3281 3395,1946.3281 C3395,1946.3281 3413,1946.3281 3413,1936.3281 " fill="none" style="stroke:#181818;stroke-width:1.5;"/><rect fill="#E2E2F0" height="64.3125" rx="2.5" ry="2.5" style="stroke:#181818;stroke-width:0.5;" width="253" x="3506" y="104.7656"/><text fill="#000000" font-family="sans-serif" font-size="20" lengthAdjust="spacing" textLength="84" x="3590.5" y="132.5273">«service»</text><text fill="#000000" font-family="sans-serif" font-size="20" lengthAdjust="spacing" textLength="239" x="3513" y="157.6836">:ApplicationListDTOService</text><rect fill="#E2E2F0" height="64.3125" rx="2.5" ry="2.5" style="stroke:#181818;stroke-width:0.5;" width="253" x="3506" y="1876.0156"/><text fill="#000000" font-family="sans-serif" font-size="20" lengthAdjust="spacing" textLength="84" x="3590.5" y="1903.7773">«service»</text><text fill="#000000" font-family="sans-serif" font-size="20" lengthAdjust="spacing" textLength="239" x="3513" y="1928.9336">:ApplicationListDTOService</text><rect fill="#E2E2F0" height="64.3125" rx="2.5" ry="2.5" style="stroke:#181818;stroke-width:0.5;" width="197" x="3769" y="1876.0156"/><text fill="#000000" font-family="sans-serif" font-size="20" lengthAdjust="spacing" textLength="85" x="3825" y="1903.7773">«domain»</text><text fill="#000000" font-family="sans-serif" font-size="20" lengthAdjust="spacing" textLength="183" x="3776" y="1928.9336">:RequirementAnswer</text><rect fill="#E2E2F0" height="64.3125" rx="2.5" ry="2.5" style="stroke:#181818;stroke-width:0.5;" width="421" x="3976" y="104.7656"/><text fill="#000000" font-family="sans-serif" font-size="20" lengthAdjust="spacing" textLength="84" x="4144.5" y="132.5273">«service»</text><text fill="#000000" font-family="sans-serif" font-size="20" lengthAdjust="spacing" textLength="407" x="3983" y="157.6836">:RequirementSpecificationManagementService</text><rect fill="#E2E2F0" height="64.3125" rx="2.5" ry="2.5" style="stroke:#181818;stroke-width:0.5;" width="421" x="3976" y="1876.0156"/><text fill="#000000" font-family="sans-serif" font-size="20" lengthAdjust="spacing" textLength="84" x="4144.5" y="1903.7773">«service»</text><text fill="#000000" font-family="sans-serif" font-size="20" lengthAdjust="spacing" textLength="407" x="3983" y="1928.9336">:RequirementSpecificationManagementService</text><text fill="#000000" font-family="sans-serif" font-size="20" lengthAdjust="spacing" textLength="110" x="4752.5" y="140.5273">«repository»</text><text fill="#000000" font-family="sans-serif" font-size="20" lengthAdjust="spacing" textLength="323" x="4646" y="165.6836">:RequirementSpecificationRepository</text><path d="M4792.5,83.7656 C4792.5,73.7656 4810.5,73.7656 4810.5,73.7656 C4810.5,73.7656 4828.5,73.7656 4828.5,83.7656 L4828.5,109.7656 C4828.5,119.7656 4810.5,119.7656 4810.5,119.7656 C4810.5,119.7656 4792.5,119.7656 4792.5,109.7656 L4792.5,83.7656 " fill="#E2E2F0" style="stroke:#181818;stroke-width:1.5;"/><path d="M4792.5,83.7656 C4792.5,93.7656 4810.5,93.7656 4810.5,93.7656 C4810.5,93.7656 4828.5,93.7656 4828.5,83.7656 " fill="none" style="stroke:#181818;stroke-width:1.5;"/><text fill="#000000" font-family="sans-serif" font-size="20" lengthAdjust="spacing" textLength="110" x="4752.5" y="1896.7773">«repository»</text><text fill="#000000" font-family="sans-serif" font-size="20" lengthAdjust="spacing" textLength="323" x="4646" y="1921.9336">:RequirementSpecificationRepository</text><path d="M4792.5,1936.3281 C4792.5,1926.3281 4810.5,1926.3281 4810.5,1926.3281 C4810.5,1926.3281 4828.5,1926.3281 4828.5,1936.3281 L4828.5,1962.3281 C4828.5,1972.3281 4810.5,1972.3281 4810.5,1972.3281 C4810.5,1972.3281 4792.5,1972.3281 4792.5,1962.3281 L4792.5,1936.3281 " fill="#E2E2F0" style="stroke:#181818;stroke-width:1.5;"/><path d="M4792.5,1936.3281 C4792.5,1946.3281 4810.5,1946.3281 4810.5,1946.3281 C4810.5,1946.3281 4828.5,1946.3281 4828.5,1936.3281 " fill="none" style="stroke:#181818;stroke-width:1.5;"/><rect fill="#E2E2F0" height="39.1563" rx="2.5" ry="2.5" style="stroke:#181818;stroke-width:0.5;" width="56" x="4988.5" y="129.9219"/><text fill="#000000" font-family="sans-serif" font-size="20" lengthAdjust="spacing" textLength="42" x="4995.5" y="157.6836">Main</text><rect fill="#E2E2F0" height="39.1563" rx="2.5" ry="2.5" style="stroke:#181818;stroke-width:0.5;" width="56" x="4988.5" y="1876.0156"/><text fill="#000000" font-family="sans-serif" font-size="20" lengthAdjust="spacing" textLength="42" x="4995.5" y="1903.7773">Main</text><rect fill="#FFFFFF" height="1656.7813" style="stroke:#181818;stroke-width:1.0;" width="10" x="143.5" y="211.2344"/><rect fill="#FFFFFF" height="483.5625" style="stroke:#181818;stroke-width:1.0;" width="10" x="678.5" y="211.2344"/><rect fill="#FFFFFF" height="283.9375" style="stroke:#181818;stroke-width:1.0;" width="10" x="678.5" y="814.2656"/><rect fill="#FFFFFF" height="641.3438" style="stroke:#181818;stroke-width:1.0;" width="10" x="678.5" y="1217.6719"/><rect fill="#FFFFFF" height="405.25" style="stroke:#181818;stroke-width:1.0;" width="10" x="1115.5" y="250.3906"/><rect fill="#FFFFFF" height="30" style="stroke:#181818;stroke-width:1.0;" width="10" x="1393.5" y="586.4844"/><rect fill="#FFFFFF" height="30" style="stroke:#181818;stroke-width:1.0;" width="10" x="1625.5" y="289.5469"/><rect fill="#FFFFFF" height="147.4688" style="stroke:#181818;stroke-width:1.0;" width="10" x="1929.5" y="392.8594"/><rect fill="#FFFFFF" height="39.1563" style="stroke:#181818;stroke-width:1.0;" width="10" x="2226" y="501.1719"/><rect fill="#FFFFFF" height="30" style="stroke:#181818;stroke-width:1.0;" width="10" x="2476.5" y="432.0156"/><rect fill="#FFFFFF" height="177.4688" style="stroke:#181818;stroke-width:1.0;" width="10" x="2775.5" y="881.5781"/><rect fill="#FFFFFF" height="309.0938" style="stroke:#181818;stroke-width:1.0;" width="10" x="2775.5" y="1510.7656"/><rect fill="#FFFFFF" height="67.3125" style="stroke:#181818;stroke-width:1.0;" width="10" x="3221.5" y="1647.2344"/><rect fill="#FFFFFF" height="30" style="stroke:#181818;stroke-width:1.0;" width="10" x="3390" y="920.7344"/><rect fill="#FFFFFF" height="30" style="stroke:#181818;stroke-width:1.0;" width="10" x="3390" y="1549.9219"/><rect fill="#FFFFFF" height="30" style="stroke:#181818;stroke-width:1.0;" width="10" x="3390" y="1789.8594"/><rect fill="#FFFFFF" height="30" style="stroke:#181818;stroke-width:1.0;" width="10" x="3627.5" y="989.8906"/><rect fill="#FFFFFF" height="186.625" style="stroke:#181818;stroke-width:1.0;" width="10" x="4181.5" y="1284.9844"/><rect fill="#FFFFFF" height="30" style="stroke:#181818;stroke-width:1.0;" width="10" x="4805.5" y="1324.1406"/><rect fill="#FFFFFF" height="39.1563" style="stroke:#181818;stroke-width:1.0;" width="10" x="5011.5" y="1393.2969"/><polygon fill="#181818" points="666.5,207.2344,676.5,211.2344,666.5,215.2344,670.5,211.2344" style="stroke:#181818;stroke-width:1.0;"/><line style="stroke:#181818;stroke-width:1.0;" x1="153.5" x2="672.5" y1="211.2344" y2="211.2344"/><text fill="#000000" font-family="sans-serif" font-size="20" font-weight="bold" lengthAdjust="spacing" textLength="11" x="160.5" y="204.8398">1</text><text fill="#000000" font-family="sans-serif" font-size="20" lengthAdjust="spacing" textLength="157" x="175.5" y="204.8398">getJobOpenings()</text><polygon fill="#181818" points="1103.5,246.3906,1113.5,250.3906,1103.5,254.3906,1107.5,250.3906" style="stroke:#181818;stroke-width:1.0;"/><line style="stroke:#181818;stroke-width:1.0;" x1="688.5" x2="1109.5" y1="250.3906" y2="250.3906"/><text fill="#000000" font-family="sans-serif" font-size="20" font-weight="bold" lengthAdjust="spacing" textLength="11" x="695.5" y="243.9961">2</text><text fill="#000000" font-family="sans-serif" font-size="20" lengthAdjust="spacing" textLength="393" x="710.5" y="243.9961">getOnGoingJobOpeningsInScreeningPhase()</text><polygon fill="#181818" points="1613.5,285.5469,1623.5,289.5469,1613.5,293.5469,1617.5,289.5469" style="stroke:#181818;stroke-width:1.0;"/><line style="stroke:#181818;stroke-width:1.0;" x1="1125.5" x2="1619.5" y1="289.5469" y2="289.5469"/><text fill="#000000" font-family="sans-serif" font-size="20" font-weight="bold" lengthAdjust="spacing" textLength="11" x="1132.5" y="283.1523">3</text><text fill="#000000" font-family="sans-serif" font-size="20" lengthAdjust="spacing" textLength="343" x="1147.5" y="283.1523">getJobOpeningsWithSTARTEDStatus()</text><path d="M958.5,334.5469 L1044.5,334.5469 L1044.5,351.7031 L1034.5,361.7031 L958.5,361.7031 L958.5,334.5469 " fill="#EEEEEE" style="stroke:#000000;stroke-width:1.5;"/><rect fill="none" height="213.7813" style="stroke:#000000;stroke-width:1.5;" width="1675" x="958.5" y="334.5469"/><text fill="#000000" font-family="sans-serif" font-size="20" font-weight="bold" lengthAdjust="spacing" textLength="41" x="973.5" y="356.3086">loop</text><polygon fill="#181818" points="1917.5,388.8594,1927.5,392.8594,1917.5,396.8594,1921.5,392.8594" style="stroke:#181818;stroke-width:1.0;"/><line style="stroke:#181818;stroke-width:1.0;" x1="1125.5" x2="1923.5" y1="392.8594" y2="392.8594"/><text fill="#000000" font-family="sans-serif" font-size="20" font-weight="bold" lengthAdjust="spacing" textLength="11" x="1132.5" y="386.4648">4</text><text fill="#000000" font-family="sans-serif" font-size="20" lengthAdjust="spacing" textLength="545" x="1147.5" y="386.4648">checkIfRecruitmentProcessIsInScreeningPhase(jobReference)</text><polygon fill="#181818" points="2464.5,428.0156,2474.5,432.0156,2464.5,436.0156,2468.5,432.0156" style="stroke:#181818;stroke-width:1.0;"/><line style="stroke:#181818;stroke-width:1.0;" x1="1939.5" x2="2470.5" y1="432.0156" y2="432.0156"/><text fill="#000000" font-family="sans-serif" font-size="20" font-weight="bold" lengthAdjust="spacing" textLength="11" x="1946.5" y="425.6211">5</text><text fill="#000000" font-family="sans-serif" font-size="20" lengthAdjust="spacing" textLength="489" x="1961.5" y="425.6211">getRecruitmentProcessByJobReference((jobReference)</text><polygon fill="#181818" points="2214,497.1719,2224,501.1719,2214,505.1719,2218,501.1719" style="stroke:#181818;stroke-width:1.0;"/><line style="stroke:#181818;stroke-width:1.0;" x1="1939.5" x2="2220" y1="501.1719" y2="501.1719"/><text fill="#000000" font-family="sans-serif" font-size="20" font-weight="bold" lengthAdjust="spacing" textLength="11" x="1946.5" y="494.7773">6</text><text fill="#000000" font-family="sans-serif" font-size="20" lengthAdjust="spacing" textLength="183" x="1961.5" y="494.7773">currentActivePhase()</text><polygon fill="#181818" points="1945.5,536.3281,1935.5,540.3281,1945.5,544.3281,1941.5,540.3281" style="stroke:#181818;stroke-width:1.0;"/><line style="stroke:#181818;stroke-width:1.0;stroke-dasharray:2.0,2.0;" x1="1939.5" x2="2230" y1="540.3281" y2="540.3281"/><text fill="#000000" font-family="sans-serif" font-size="20" font-weight="bold" lengthAdjust="spacing" textLength="11" x="1951.5" y="533.9336">7</text><text fill="#000000" font-family="sans-serif" font-size="20" lengthAdjust="spacing" textLength="160" x="1966.5" y="533.9336">"Screening phase"</text><polygon fill="#181818" points="1381.5,582.4844,1391.5,586.4844,1381.5,590.4844,1385.5,586.4844" style="stroke:#181818;stroke-width:1.0;"/><line style="stroke:#181818;stroke-width:1.0;" x1="1125.5" x2="1387.5" y1="586.4844" y2="586.4844"/><text fill="#000000" font-family="sans-serif" font-size="20" font-weight="bold" lengthAdjust="spacing" textLength="11" x="1132.5" y="580.0898">8</text><text fill="#000000" font-family="sans-serif" font-size="20" lengthAdjust="spacing" textLength="167" x="1147.5" y="580.0898">convertToDTO(list)</text><polygon fill="#181818" points="699.5,651.6406,689.5,655.6406,699.5,659.6406,695.5,655.6406" style="stroke:#181818;stroke-width:1.0;"/><line style="stroke:#181818;stroke-width:1.0;stroke-dasharray:2.0,2.0;" x1="693.5" x2="1119.5" y1="655.6406" y2="655.6406"/><text fill="#000000" font-family="sans-serif" font-size="20" font-weight="bold" lengthAdjust="spacing" textLength="11" x="705.5" y="649.2461">9</text><text fill="#000000" font-family="sans-serif" font-size="20" lengthAdjust="spacing" textLength="182" x="720.5" y="649.2461">jobOpeningsListDTO</text><polygon fill="#181818" points="164.5,690.7969,154.5,694.7969,164.5,698.7969,160.5,694.7969" style="stroke:#181818;stroke-width:1.0;"/><line style="stroke:#181818;stroke-width:1.0;stroke-dasharray:2.0,2.0;" x1="158.5" x2="682.5" y1="694.7969" y2="694.7969"/><text fill="#000000" font-family="sans-serif" font-size="20" font-weight="bold" lengthAdjust="spacing" textLength="22" x="170.5" y="688.4023">10</text><text fill="#000000" font-family="sans-serif" font-size="20" lengthAdjust="spacing" textLength="6" x="196.5" y="688.4023"> </text><line style="stroke:#181818;stroke-width:1.0;" x1="153.5" x2="195.5" y1="733.9531" y2="733.9531"/><line style="stroke:#181818;stroke-width:1.0;" x1="195.5" x2="195.5" y1="733.9531" y2="746.9531"/><line style="stroke:#181818;stroke-width:1.0;" x1="154.5" x2="195.5" y1="746.9531" y2="746.9531"/><polygon fill="#181818" points="164.5,742.9531,154.5,746.9531,164.5,750.9531,160.5,746.9531" style="stroke:#181818;stroke-width:1.0;"/><text fill="#000000" font-family="sans-serif" font-size="20" font-weight="bold" lengthAdjust="spacing" textLength="22" x="160.5" y="727.5586">11</text><text fill="#000000" font-family="sans-serif" font-size="20" lengthAdjust="spacing" textLength="60" x="186.5" y="727.5586">show()</text><polygon fill="#181818" points="666.5,810.2656,676.5,814.2656,666.5,818.2656,670.5,814.2656" style="stroke:#181818;stroke-width:1.0;"/><line style="stroke:#181818;stroke-width:1.0;" x1="153.5" x2="672.5" y1="814.2656" y2="814.2656"/><text fill="#000000" font-family="sans-serif" font-size="20" font-weight="bold" lengthAdjust="spacing" textLength="22" x="160.5" y="807.8711">12</text><text fill="#000000" font-family="sans-serif" font-size="20" lengthAdjust="spacing" textLength="264" x="186.5" y="807.8711">getApplications(jobReference)</text><path d="M693,759.9531 L693,844.9531 L874,844.9531 L874,769.9531 L864,759.9531 L693,759.9531 " fill="#FEFFDD" style="stroke:#181818;stroke-width:0.5;"/><path d="M864,759.9531 L864,769.9531 L874,769.9531 L864,759.9531 " fill="#FEFFDD" style="stroke:#181818;stroke-width:0.5;"/><text fill="#000000" font-family="sans-serif" font-size="20" lengthAdjust="spacing" textLength="160" x="699" y="785.7148">JobReference is a</text><text fill="#000000" font-family="sans-serif" font-size="20" lengthAdjust="spacing" textLength="136" x="699" y="810.8711">string within the</text><text fill="#000000" font-family="sans-serif" font-size="20" lengthAdjust="spacing" textLength="147" x="699" y="836.0273">JobOpeningDTO</text><polygon fill="#181818" points="2763.5,877.5781,2773.5,881.5781,2763.5,885.5781,2767.5,881.5781" style="stroke:#181818;stroke-width:1.0;"/><line style="stroke:#181818;stroke-width:1.0;" x1="688.5" x2="2769.5" y1="881.5781" y2="881.5781"/><text fill="#000000" font-family="sans-serif" font-size="20" font-weight="bold" lengthAdjust="spacing" textLength="22" x="695.5" y="875.1836">13</text><text fill="#000000" font-family="sans-serif" font-size="20" lengthAdjust="spacing" textLength="433" x="721.5" y="875.1836">getApplicationsFromJobReference(jobReference)</text><polygon fill="#181818" points="3378,916.7344,3388,920.7344,3378,924.7344,3382,920.7344" style="stroke:#181818;stroke-width:1.0;"/><line style="stroke:#181818;stroke-width:1.0;" x1="2785.5" x2="3384" y1="920.7344" y2="920.7344"/><text fill="#000000" font-family="sans-serif" font-size="20" font-weight="bold" lengthAdjust="spacing" textLength="22" x="2792.5" y="914.3398">14</text><text fill="#000000" font-family="sans-serif" font-size="20" lengthAdjust="spacing" textLength="433" x="2818.5" y="914.3398">getApplicationsFromJobReference(jobReference)</text><polygon fill="#181818" points="3615.5,985.8906,3625.5,989.8906,3615.5,993.8906,3619.5,989.8906" style="stroke:#181818;stroke-width:1.0;"/><line style="stroke:#181818;stroke-width:1.0;stroke-dasharray:2.0,2.0;" x1="2785.5" x2="3621.5" y1="989.8906" y2="989.8906"/><text fill="#000000" font-family="sans-serif" font-size="20" font-weight="bold" lengthAdjust="spacing" textLength="22" x="2792.5" y="983.4961">15</text><text fill="#000000" font-family="sans-serif" font-size="20" lengthAdjust="spacing" textLength="382" x="2818.5" y="983.4961">convertApplicationsToDTO(applicationsList)</text><polygon fill="#181818" points="699.5,1055.0469,689.5,1059.0469,699.5,1063.0469,695.5,1059.0469" style="stroke:#181818;stroke-width:1.0;"/><line style="stroke:#181818;stroke-width:1.0;stroke-dasharray:2.0,2.0;" x1="693.5" x2="2779.5" y1="1059.0469" y2="1059.0469"/><text fill="#000000" font-family="sans-serif" font-size="20" font-weight="bold" lengthAdjust="spacing" textLength="22" x="705.5" y="1052.6523">16</text><text fill="#000000" font-family="sans-serif" font-size="20" lengthAdjust="spacing" textLength="176" x="731.5" y="1052.6523">applicationsListDTO</text><polygon fill="#181818" points="164.5,1094.2031,154.5,1098.2031,164.5,1102.2031,160.5,1098.2031" style="stroke:#181818;stroke-width:1.0;"/><line style="stroke:#181818;stroke-width:1.0;stroke-dasharray:2.0,2.0;" x1="158.5" x2="682.5" y1="1098.2031" y2="1098.2031"/><text fill="#000000" font-family="sans-serif" font-size="20" font-weight="bold" lengthAdjust="spacing" textLength="22" x="170.5" y="1091.8086">17</text><text fill="#000000" font-family="sans-serif" font-size="20" lengthAdjust="spacing" textLength="6" x="196.5" y="1091.8086"> </text><line style="stroke:#181818;stroke-width:1.0;" x1="153.5" x2="195.5" y1="1137.3594" y2="1137.3594"/><line style="stroke:#181818;stroke-width:1.0;" x1="195.5" x2="195.5" y1="1137.3594" y2="1150.3594"/><line style="stroke:#181818;stroke-width:1.0;" x1="154.5" x2="195.5" y1="1150.3594" y2="1150.3594"/><polygon fill="#181818" points="164.5,1146.3594,154.5,1150.3594,164.5,1154.3594,160.5,1150.3594" style="stroke:#181818;stroke-width:1.0;"/><text fill="#000000" font-family="sans-serif" font-size="20" font-weight="bold" lengthAdjust="spacing" textLength="22" x="160.5" y="1130.9648">18</text><text fill="#000000" font-family="sans-serif" font-size="20" lengthAdjust="spacing" textLength="60" x="186.5" y="1130.9648">show()</text><polygon fill="#181818" points="666.5,1213.6719,676.5,1217.6719,666.5,1221.6719,670.5,1217.6719" style="stroke:#181818;stroke-width:1.0;"/><line style="stroke:#181818;stroke-width:1.0;" x1="153.5" x2="672.5" y1="1217.6719" y2="1217.6719"/><text fill="#000000" font-family="sans-serif" font-size="20" font-weight="bold" lengthAdjust="spacing" textLength="22" x="160.5" y="1211.2773">19</text><text fill="#000000" font-family="sans-serif" font-size="20" lengthAdjust="spacing" textLength="480" x="186.5" y="1211.2773">uploadFile(applicationDTO, requirementName, filepath)</text><path d="M693,1163.3594 L693,1248.3594 L889,1248.3594 L889,1173.3594 L879,1163.3594 L693,1163.3594 " fill="#FEFFDD" style="stroke:#181818;stroke-width:0.5;"/><path d="M879,1163.3594 L879,1173.3594 L889,1173.3594 L879,1163.3594 " fill="#FEFFDD" style="stroke:#181818;stroke-width:0.5;"/><text fill="#000000" font-family="sans-serif" font-size="20" lengthAdjust="spacing" textLength="175" x="699" y="1189.1211">requirementName is</text><text fill="#000000" font-family="sans-serif" font-size="20" lengthAdjust="spacing" textLength="153" x="699" y="1214.2773">a string within the</text><text fill="#000000" font-family="sans-serif" font-size="20" lengthAdjust="spacing" textLength="147" x="699" y="1239.4336">JobOpeningDTO</text><polygon fill="#181818" points="4169.5,1280.9844,4179.5,1284.9844,4169.5,1288.9844,4173.5,1284.9844" style="stroke:#181818;stroke-width:1.0;"/><line style="stroke:#181818;stroke-width:1.0;" x1="688.5" x2="4175.5" y1="1284.9844" y2="1284.9844"/><text fill="#000000" font-family="sans-serif" font-size="20" font-weight="bold" lengthAdjust="spacing" textLength="22" x="695.5" y="1278.5898">20</text><text fill="#000000" font-family="sans-serif" font-size="20" lengthAdjust="spacing" textLength="461" x="721.5" y="1278.5898">checkAnswersFileIsValid(requirementName, filepath)</text><polygon fill="#181818" points="4793.5,1320.1406,4803.5,1324.1406,4793.5,1328.1406,4797.5,1324.1406" style="stroke:#181818;stroke-width:1.0;"/><line style="stroke:#181818;stroke-width:1.0;" x1="4191.5" x2="4799.5" y1="1324.1406" y2="1324.1406"/><text fill="#000000" font-family="sans-serif" font-size="20" font-weight="bold" lengthAdjust="spacing" textLength="22" x="4198.5" y="1317.7461">21</text><text fill="#000000" font-family="sans-serif" font-size="20" lengthAdjust="spacing" textLength="569" x="4224.5" y="1317.7461">requirementSpecificationByRequirementName(requirementName)</text><polygon fill="#181818" points="4999.5,1389.2969,5009.5,1393.2969,4999.5,1397.2969,5003.5,1393.2969" style="stroke:#181818;stroke-width:1.0;"/><line style="stroke:#181818;stroke-width:1.0;" x1="4191.5" x2="5005.5" y1="1393.2969" y2="1393.2969"/><text fill="#000000" font-family="sans-serif" font-size="20" font-weight="bold" lengthAdjust="spacing" textLength="22" x="4198.5" y="1386.9023">22</text><text fill="#000000" font-family="sans-serif" font-size="20" lengthAdjust="spacing" textLength="222" x="4224.5" y="1386.9023">checkFileFormat(filepath)</text><polygon fill="#181818" points="4202.5,1428.4531,4192.5,1432.4531,4202.5,1436.4531,4198.5,1432.4531" style="stroke:#181818;stroke-width:1.0;"/><line style="stroke:#181818;stroke-width:1.0;stroke-dasharray:2.0,2.0;" x1="4196.5" x2="5015.5" y1="1432.4531" y2="1432.4531"/><text fill="#000000" font-family="sans-serif" font-size="20" font-weight="bold" lengthAdjust="spacing" textLength="22" x="4208.5" y="1426.0586">23</text><text fill="#000000" font-family="sans-serif" font-size="20" lengthAdjust="spacing" textLength="34" x="4234.5" y="1426.0586">true</text><polygon fill="#181818" points="699.5,1467.6094,689.5,1471.6094,699.5,1475.6094,695.5,1471.6094" style="stroke:#181818;stroke-width:1.0;"/><line style="stroke:#181818;stroke-width:1.0;stroke-dasharray:2.0,2.0;" x1="693.5" x2="4185.5" y1="1471.6094" y2="1471.6094"/><text fill="#000000" font-family="sans-serif" font-size="20" font-weight="bold" lengthAdjust="spacing" textLength="22" x="705.5" y="1465.2148">24</text><text fill="#000000" font-family="sans-serif" font-size="20" lengthAdjust="spacing" textLength="34" x="731.5" y="1465.2148">true</text><polygon fill="#181818" points="2763.5,1506.7656,2773.5,1510.7656,2763.5,1514.7656,2767.5,1510.7656" style="stroke:#181818;stroke-width:1.0;"/><line style="stroke:#181818;stroke-width:1.0;" x1="688.5" x2="2769.5" y1="1510.7656" y2="1510.7656"/><text fill="#000000" font-family="sans-serif" font-size="20" font-weight="bold" lengthAdjust="spacing" textLength="22" x="695.5" y="1504.3711">25</text><text fill="#000000" font-family="sans-serif" font-size="20" lengthAdjust="spacing" textLength="389" x="721.5" y="1504.3711">uploadAnswersFile(applicationDTO, filepath)</text><polygon fill="#181818" points="3378,1545.9219,3388,1549.9219,3378,1553.9219,3382,1549.9219" style="stroke:#181818;stroke-width:1.0;"/><line style="stroke:#181818;stroke-width:1.0;" x1="2785.5" x2="3384" y1="1549.9219" y2="1549.9219"/><text fill="#000000" font-family="sans-serif" font-size="20" font-weight="bold" lengthAdjust="spacing" textLength="22" x="2792.5" y="1543.5273">26</text><text fill="#000000" font-family="sans-serif" font-size="20" lengthAdjust="spacing" textLength="360" x="2818.5" y="1543.5273">getApplicationFromDTO(applicationDTO)</text><polygon fill="#181818" points="3209.5,1643.2344,3219.5,1647.2344,3209.5,1651.2344,3213.5,1647.2344" style="stroke:#181818;stroke-width:1.0;"/><line style="stroke:#181818;stroke-width:1.0;" x1="2785.5" x2="3215.5" y1="1647.2344" y2="1647.2344"/><text fill="#000000" font-family="sans-serif" font-size="20" font-weight="bold" lengthAdjust="spacing" textLength="22" x="2792.5" y="1640.8398">27</text><text fill="#000000" font-family="sans-serif" font-size="20" lengthAdjust="spacing" textLength="391" x="2818.5" y="1640.8398">updateRequirementAnswer(fileWithAnswers)</text><path d="M3236,1592.9219 L3236,1677.9219 L3451,1677.9219 L3451,1602.9219 L3441,1592.9219 L3236,1592.9219 " fill="#FEFFDD" style="stroke:#181818;stroke-width:0.5;"/><path d="M3441,1592.9219 L3441,1602.9219 L3451,1602.9219 L3441,1592.9219 " fill="#FEFFDD" style="stroke:#181818;stroke-width:0.5;"/><text fill="#000000" font-family="sans-serif" font-size="20" lengthAdjust="spacing" textLength="151" x="3242" y="1618.6836">Conversion of file</text><text fill="#000000" font-family="sans-serif" font-size="20" lengthAdjust="spacing" textLength="194" x="3242" y="1643.8398">content to a in-system</text><text fill="#000000" font-family="sans-serif" font-size="20" lengthAdjust="spacing" textLength="157" x="3248" y="1668.9961">File already made</text><polygon fill="#181818" points="3757,1710.5469,3767,1714.5469,3757,1718.5469,3761,1714.5469" style="stroke:#181818;stroke-width:1.0;"/><line style="stroke:#181818;stroke-width:1.0;" x1="3226.5" x2="3763" y1="1714.5469" y2="1714.5469"/><text fill="#000000" font-family="sans-serif" font-size="20" font-weight="bold" lengthAdjust="spacing" textLength="22" x="3233.5" y="1708.1523">28</text><text fill="#000000" font-family="sans-serif" font-size="20" lengthAdjust="spacing" textLength="331" x="3259.5" y="1708.1523">RequirementAnswer(fileWithAnswers)</text><rect fill="#E2E2F0" height="64.3125" rx="2.5" ry="2.5" style="stroke:#181818;stroke-width:0.5;" width="197" x="3769" y="1683.3906"/><text fill="#000000" font-family="sans-serif" font-size="20" lengthAdjust="spacing" textLength="85" x="3825" y="1711.1523">«domain»</text><text fill="#000000" font-family="sans-serif" font-size="20" lengthAdjust="spacing" textLength="183" x="3776" y="1736.3086">:RequirementAnswer</text><polygon fill="#181818" points="3378,1785.8594,3388,1789.8594,3378,1793.8594,3382,1789.8594" style="stroke:#181818;stroke-width:1.0;"/><line style="stroke:#181818;stroke-width:1.0;" x1="2785.5" x2="3384" y1="1789.8594" y2="1789.8594"/><text fill="#000000" font-family="sans-serif" font-size="20" font-weight="bold" lengthAdjust="spacing" textLength="22" x="2792.5" y="1783.4648">29</text><text fill="#000000" font-family="sans-serif" font-size="20" lengthAdjust="spacing" textLength="148" x="2818.5" y="1783.4648">save(application)</text><polygon fill="#181818" points="164.5,1855.0156,154.5,1859.0156,164.5,1863.0156,160.5,1859.0156" style="stroke:#181818;stroke-width:1.0;"/><line style="stroke:#181818;stroke-width:1.0;stroke-dasharray:2.0,2.0;" x1="158.5" x2="682.5" y1="1859.0156" y2="1859.0156"/><text fill="#000000" font-family="sans-serif" font-size="20" font-weight="bold" lengthAdjust="spacing" textLength="22" x="170.5" y="1852.6211">30</text><text fill="#000000" font-family="sans-serif" font-size="20" lengthAdjust="spacing" textLength="157" x="196.5" y="1852.6211">success importing</text><!--SRC=[dLTBRziu4BxhLn3fOTsW0O9YJq4tG1wRmaMw2Inxzz8B8urj9XAfa9HJzzVly26B4cNBZG-6H7A-UNqpGwaNnYigQLc8x0LoaiEIreM-4rodx1UGp-T9efakW2pIp-VdVv8KNclW6P1RHbSeboIqreBNvHF897aIFqcwLHfAyk6UhTRwkgWX8VX39PfbhA9SavClNoe92hYccWb-UVc3NoogGj1yXkXCGebRLrozWLIBwGcXYYocGoYqgWgMZOFSe3jI50L82tOpdzqdGtWAv8PbOB6-YQU72ZZZg- -KqvM5Izs-1S7zL6wEHxcTFyJYk6WHSghf4rLWn2LKGZ4jvBQ7CDjjD0XcPTIH6MIoPjhO_oX51aeDE-JFxN4g5oLbV0zWA1yiZxaMI_HSF7HWrE-hbXp33kE1SMS3b4PepAr0fESFxjYK7M_vFLEwnnpSDIje-MYUUdNWO_hgteuWpau-hI1ZouFHnDDDD0-cV1WpIloh3HJmd61FILndUIpg5UE-ipmo_X9xy1sTjmZkR03mnr_-Hxw2DiL3V5afqkmaYoavkxJjWLoG5UYszjJaOq8ppJPKWsb6ksVNIwm8YhggTi8F_Aj0oG1ZojDCWdr-N6DyGapVJXAFuB1C329B_cDwdSwlPlE_RrDieBNgmTZ0vH0j9OKGLO3VrZkgoDQGlKoNSS5DOwkV3U0If1a3WUgWVoG1Tgjfi8oTU_69w-stGCraHEbmXmY2SBYJZ9bh0bHBQGh904AKlO7Ubmp0dFN3Vh8BBQaCvibXcv76yRu9kA6vJM-NFsx26Ei5tu3KSu6lam9xIiGyCucwfF6BBMHR6iyj6ts3YcMRea0fh9TWsrMCApNylo1gBTumcFqI3RhWWH8DJ-qZYTN81Jv9qpbirmZPHPWYrAugBKqkth34iD7eDJHdso5kOst0sgftWoIsvqwAiiFYFVRvGPHu78VOrlux8Vjze5dQgN5wt2nfEH9gStm9RbastLqrVXPr5JK3Ab3bKzO7wt6d2SNlSgUbpetfP6Iw97Uii9dzbnOitqEWsbuOpSdGIxJf4v7jfFg7bl29BF5KHVLwX5WzERJ0BjDtSikDrQP3-_kiCNYgh6EJO-pqipdnO0xM4qpkcSZNsraNkQ-fYzzdMxCKwFJZsxjYVBWJigHwCc2n7z-9bpaB8w4bVbC4gfgpZQOslVsJJHnQjhWl1fCDnvSTJQBQTbG94X0nPi0DJ-VnmZPrtQirVFtDWhRmrbIyWK5q_RDnDhS7xqGNlS_Z6ziE51f2nDBwPfUnIsX495eWfHa_K_Phpswv2D920istfAGv17msbhaaEksdfsZe4IPs_HtkaOfkEjaO2DjGt0wt7ODRPtPiix8IUCVagwWL_Gy0]--></g></svg>