<?xml version="1.0" encoding="UTF-8" standalone="no"?><svg xmlns="http://www.w3.org/2000/svg" xmlns:xlink="http://www.w3.org/1999/xlink" contentStyleType="text/css" height="2114px" preserveAspectRatio="none" style="width:5052px;height:2114px;background:#FFFFFF;" version="1.1" viewBox="0 0 5052 2114" width="5052px" zoomAndPan="magnify"><defs/><g><text fill="#000000" font-family="sans-serif" font-size="14" font-weight="bold" lengthAdjust="spacing" textLength="187" x="2429.5" y="29.5332">US2004 Sequence Diagram</text><rect fill="#ADD8E6" height="2057.3438" style="stroke:#181818;stroke-width:0.5;" width="4972" x="1" y="44.6094"/><text fill="#000000" font-family="sans-serif" font-size="20" font-weight="bold" lengthAdjust="spacing" textLength="70" x="2449" y="65.3711">System</text><rect fill="#FFB6C1" height="2057.3438" style="stroke:#181818;stroke-width:0.5;" width="71" x="4975" y="44.6094"/><text fill="#000000" font-family="sans-serif" font-size="20" font-weight="bold" lengthAdjust="spacing" textLength="59" x="4978" y="65.3711">Plugin</text><rect fill="#FFFFFF" height="1782.4063" style="stroke:#181818;stroke-width:1.0;" width="10" x="143.5" y="211.2344"/><rect fill="#FFFFFF" height="307.0938" style="stroke:#181818;stroke-width:1.0;" width="10" x="678.5" y="211.2344"/><rect fill="#FFFFFF" height="586.0313" style="stroke:#181818;stroke-width:1.0;" width="10" x="678.5" y="637.7969"/><rect fill="#FFFFFF" height="641.3438" style="stroke:#181818;stroke-width:1.0;" width="10" x="678.5" y="1343.2969"/><rect fill="#FFFFFF" height="245.9375" style="stroke:#181818;stroke-width:1.0;" width="10" x="1252.5" y="705.1094"/><rect fill="#FFFFFF" height="39.1563" style="stroke:#181818;stroke-width:1.0;" width="10" x="1549" y="813.4219"/><rect fill="#FFFFFF" height="30" style="stroke:#181818;stroke-width:1.0;" width="10" x="1799.5" y="744.2656"/><rect fill="#FFFFFF" height="228.7813" style="stroke:#181818;stroke-width:1.0;" width="10" x="2103.5" y="250.3906"/><rect fill="#FFFFFF" height="30" style="stroke:#181818;stroke-width:1.0;" width="10" x="2328" y="403.0156"/><rect fill="#FFFFFF" height="30" style="stroke:#181818;stroke-width:1.0;" width="10" x="2506.5" y="289.5469"/><rect fill="#FFFFFF" height="177.4688" style="stroke:#181818;stroke-width:1.0;" width="10" x="2769.5" y="1007.2031"/><rect fill="#FFFFFF" height="309.0938" style="stroke:#181818;stroke-width:1.0;" width="10" x="2769.5" y="1636.3906"/><rect fill="#FFFFFF" height="67.3125" style="stroke:#181818;stroke-width:1.0;" width="10" x="3215.5" y="1772.8594"/><rect fill="#FFFFFF" height="30" style="stroke:#181818;stroke-width:1.0;" width="10" x="3384" y="1046.3594"/><rect fill="#FFFFFF" height="30" style="stroke:#181818;stroke-width:1.0;" width="10" x="3384" y="1675.5469"/><rect fill="#FFFFFF" height="30" style="stroke:#181818;stroke-width:1.0;" width="10" x="3384" y="1915.4844"/><rect fill="#FFFFFF" height="30" style="stroke:#181818;stroke-width:1.0;" width="10" x="3621.5" y="1115.5156"/><rect fill="#FFFFFF" height="186.625" style="stroke:#181818;stroke-width:1.0;" width="10" x="4175.5" y="1410.6094"/><rect fill="#FFFFFF" height="30" style="stroke:#181818;stroke-width:1.0;" width="10" x="4799.5" y="1449.7656"/><rect fill="#FFFFFF" height="39.1563" style="stroke:#181818;stroke-width:1.0;" width="10" x="5005.5" y="1518.9219"/><rect fill="none" height="106.4688" style="stroke:#000000;stroke-width:1.5;" width="459" x="1946.5" y="334.5469"/><rect fill="none" height="76.4688" style="stroke:#000000;stroke-width:1.5;" width="958.5" x="497" y="867.5781"/><line style="stroke:#181818;stroke-width:0.5;stroke-dasharray:5.0,5.0;" x1="148" x2="148" y1="170.0781" y2="2002.6406"/><line style="stroke:#181818;stroke-width:0.5;stroke-dasharray:5.0,5.0;" x1="683" x2="683" y1="170.0781" y2="2002.6406"/><line style="stroke:#181818;stroke-width:0.5;stroke-dasharray:5.0,5.0;" x1="1257.5" x2="1257.5" y1="170.0781" y2="2002.6406"/><line style="stroke:#181818;stroke-width:0.5;stroke-dasharray:5.0,5.0;" x1="1553.5" x2="1553.5" y1="170.0781" y2="2002.6406"/><line style="stroke:#181818;stroke-width:0.5;stroke-dasharray:5.0,5.0;" x1="1804.5" x2="1804.5" y1="170.0781" y2="2002.6406"/><line style="stroke:#181818;stroke-width:0.5;stroke-dasharray:5.0,5.0;" x1="2108.5" x2="2108.5" y1="170.0781" y2="2002.6406"/><line style="stroke:#181818;stroke-width:0.5;stroke-dasharray:5.0,5.0;" x1="2332.5" x2="2332.5" y1="170.0781" y2="2002.6406"/><line style="stroke:#181818;stroke-width:0.5;stroke-dasharray:5.0,5.0;" x1="2511.5" x2="2511.5" y1="170.0781" y2="2002.6406"/><line style="stroke:#181818;stroke-width:0.5;stroke-dasharray:5.0,5.0;" x1="2774.5" x2="2774.5" y1="170.0781" y2="2002.6406"/><line style="stroke:#181818;stroke-width:0.5;stroke-dasharray:5.0,5.0;" x1="3220" x2="3220" y1="170.0781" y2="2002.6406"/><line style="stroke:#181818;stroke-width:0.5;stroke-dasharray:5.0,5.0;" x1="3389" x2="3389" y1="170.0781" y2="2002.6406"/><line style="stroke:#181818;stroke-width:0.5;stroke-dasharray:5.0,5.0;" x1="3626" x2="3626" y1="170.0781" y2="2002.6406"/><line style="stroke:#181818;stroke-width:0.5;stroke-dasharray:5.0,5.0;" x1="3861" x2="3861" y1="1856.6719" y2="2002.6406"/><line style="stroke:#181818;stroke-width:0.5;stroke-dasharray:5.0,5.0;" x1="4180" x2="4180" y1="170.0781" y2="2002.6406"/><line style="stroke:#181818;stroke-width:0.5;stroke-dasharray:5.0,5.0;" x1="4804" x2="4804" y1="170.0781" y2="2002.6406"/><line style="stroke:#181818;stroke-width:0.5;stroke-dasharray:5.0,5.0;" x1="5010.5" x2="5010.5" y1="170.0781" y2="2002.6406"/><rect fill="#E2E2F0" height="64.3125" rx="2.5" ry="2.5" style="stroke:#181818;stroke-width:0.5;" width="287" x="5" y="104.7656"/><text fill="#000000" font-family="sans-serif" font-size="20" lengthAdjust="spacing" textLength="130" x="83.5" y="132.5273">«presentation»</text><text fill="#000000" font-family="sans-serif" font-size="20" lengthAdjust="spacing" textLength="273" x="12" y="157.6836">:UploadRequirementAnswersUI</text><rect fill="#E2E2F0" height="64.3125" rx="2.5" ry="2.5" style="stroke:#181818;stroke-width:0.5;" width="287" x="5" y="2001.6406"/><text fill="#000000" font-family="sans-serif" font-size="20" lengthAdjust="spacing" textLength="130" x="83.5" y="2029.4023">«presentation»</text><text fill="#000000" font-family="sans-serif" font-size="20" lengthAdjust="spacing" textLength="273" x="12" y="2054.5586">:UploadRequirementAnswersUI</text><rect fill="#E2E2F0" height="64.3125" rx="2.5" ry="2.5" style="stroke:#181818;stroke-width:0.5;" width="353" x="507" y="104.7656"/><text fill="#000000" font-family="sans-serif" font-size="20" lengthAdjust="spacing" textLength="115" x="626" y="132.5273">«application»</text><text fill="#000000" font-family="sans-serif" font-size="20" lengthAdjust="spacing" textLength="339" x="514" y="157.6836">:UploadRequirementAnswersController</text><rect fill="#E2E2F0" height="64.3125" rx="2.5" ry="2.5" style="stroke:#181818;stroke-width:0.5;" width="353" x="507" y="2001.6406"/><text fill="#000000" font-family="sans-serif" font-size="20" lengthAdjust="spacing" textLength="115" x="626" y="2029.4023">«application»</text><text fill="#000000" font-family="sans-serif" font-size="20" lengthAdjust="spacing" textLength="339" x="514" y="2054.5586">:UploadRequirementAnswersController</text><rect fill="#E2E2F0" height="64.3125" rx="2.5" ry="2.5" style="stroke:#181818;stroke-width:0.5;" width="376" x="1069.5" y="104.7656"/><text fill="#000000" font-family="sans-serif" font-size="20" lengthAdjust="spacing" textLength="84" x="1215.5" y="132.5273">«service»</text><text fill="#000000" font-family="sans-serif" font-size="20" lengthAdjust="spacing" textLength="362" x="1076.5" y="157.6836">:RecruitmentProcessManagementService</text><rect fill="#E2E2F0" height="64.3125" rx="2.5" ry="2.5" style="stroke:#181818;stroke-width:0.5;" width="376" x="1069.5" y="2001.6406"/><text fill="#000000" font-family="sans-serif" font-size="20" lengthAdjust="spacing" textLength="84" x="1215.5" y="2029.4023">«service»</text><text fill="#000000" font-family="sans-serif" font-size="20" lengthAdjust="spacing" textLength="362" x="1076.5" y="2054.5586">:RecruitmentProcessManagementService</text><rect fill="#E2E2F0" height="64.3125" rx="2.5" ry="2.5" style="stroke:#181818;stroke-width:0.5;" width="197" x="1455.5" y="104.7656"/><text fill="#000000" font-family="sans-serif" font-size="20" lengthAdjust="spacing" textLength="85" x="1511.5" y="132.5273">«domain»</text><text fill="#000000" font-family="sans-serif" font-size="20" lengthAdjust="spacing" textLength="183" x="1462.5" y="157.6836">:RecruitmentProcess</text><rect fill="#E2E2F0" height="64.3125" rx="2.5" ry="2.5" style="stroke:#181818;stroke-width:0.5;" width="197" x="1455.5" y="2001.6406"/><text fill="#000000" font-family="sans-serif" font-size="20" lengthAdjust="spacing" textLength="85" x="1511.5" y="2029.4023">«domain»</text><text fill="#000000" font-family="sans-serif" font-size="20" lengthAdjust="spacing" textLength="183" x="1462.5" y="2054.5586">:RecruitmentProcess</text><text fill="#000000" font-family="sans-serif" font-size="20" lengthAdjust="spacing" textLength="110" x="1746.5" y="140.5273">«repository»</text><text fill="#000000" font-family="sans-serif" font-size="20" lengthAdjust="spacing" textLength="278" x="1662.5" y="165.6836">:RecruitmentProcessRepository</text><path d="M1786.5,83.7656 C1786.5,73.7656 1804.5,73.7656 1804.5,73.7656 C1804.5,73.7656 1822.5,73.7656 1822.5,83.7656 L1822.5,109.7656 C1822.5,119.7656 1804.5,119.7656 1804.5,119.7656 C1804.5,119.7656 1786.5,119.7656 1786.5,109.7656 L1786.5,83.7656 " fill="#E2E2F0" style="stroke:#181818;stroke-width:1.5;"/><path d="M1786.5,83.7656 C1786.5,93.7656 1804.5,93.7656 1804.5,93.7656 C1804.5,93.7656 1822.5,93.7656 1822.5,83.7656 " fill="none" style="stroke:#181818;stroke-width:1.5;"/><text fill="#000000" font-family="sans-serif" font-size="20" lengthAdjust="spacing" textLength="110" x="1746.5" y="2022.4023">«repository»</text><text fill="#000000" font-family="sans-serif" font-size="20" lengthAdjust="spacing" textLength="278" x="1662.5" y="2047.5586">:RecruitmentProcessRepository</text><path d="M1786.5,2061.9531 C1786.5,2051.9531 1804.5,2051.9531 1804.5,2051.9531 C1804.5,2051.9531 1822.5,2051.9531 1822.5,2061.9531 L1822.5,2087.9531 C1822.5,2097.9531 1804.5,2097.9531 1804.5,2097.9531 C1804.5,2097.9531 1786.5,2097.9531 1786.5,2087.9531 L1786.5,2061.9531 " fill="#E2E2F0" style="stroke:#181818;stroke-width:1.5;"/><path d="M1786.5,2061.9531 C1786.5,2071.9531 1804.5,2071.9531 1804.5,2071.9531 C1804.5,2071.9531 1822.5,2071.9531 1822.5,2061.9531 " fill="none" style="stroke:#181818;stroke-width:1.5;"/><rect fill="#E2E2F0" height="64.3125" rx="2.5" ry="2.5" style="stroke:#181818;stroke-width:0.5;" width="304" x="1956.5" y="104.7656"/><text fill="#000000" font-family="sans-serif" font-size="20" lengthAdjust="spacing" textLength="84" x="2066.5" y="132.5273">«service»</text><text fill="#000000" font-family="sans-serif" font-size="20" lengthAdjust="spacing" textLength="290" x="1963.5" y="157.6836">:JobOpeningManagementService</text><rect fill="#E2E2F0" height="64.3125" rx="2.5" ry="2.5" style="stroke:#181818;stroke-width:0.5;" width="304" x="1956.5" y="2001.6406"/><text fill="#000000" font-family="sans-serif" font-size="20" lengthAdjust="spacing" textLength="84" x="2066.5" y="2029.4023">«service»</text><text fill="#000000" font-family="sans-serif" font-size="20" lengthAdjust="spacing" textLength="290" x="1963.5" y="2054.5586">:JobOpeningManagementService</text><rect fill="#E2E2F0" height="64.3125" rx="2.5" ry="2.5" style="stroke:#181818;stroke-width:0.5;" width="125" x="2270.5" y="104.7656"/><text fill="#000000" font-family="sans-serif" font-size="20" lengthAdjust="spacing" textLength="85" x="2290.5" y="132.5273">«domain»</text><text fill="#000000" font-family="sans-serif" font-size="20" lengthAdjust="spacing" textLength="111" x="2277.5" y="157.6836">:JobOpening</text><rect fill="#E2E2F0" height="64.3125" rx="2.5" ry="2.5" style="stroke:#181818;stroke-width:0.5;" width="125" x="2270.5" y="2001.6406"/><text fill="#000000" font-family="sans-serif" font-size="20" lengthAdjust="spacing" textLength="85" x="2290.5" y="2029.4023">«domain»</text><text fill="#000000" font-family="sans-serif" font-size="20" lengthAdjust="spacing" textLength="111" x="2277.5" y="2054.5586">:JobOpening</text><text fill="#000000" font-family="sans-serif" font-size="20" lengthAdjust="spacing" textLength="110" x="2453.5" y="140.5273">«repository»</text><text fill="#000000" font-family="sans-serif" font-size="20" lengthAdjust="spacing" textLength="206" x="2405.5" y="165.6836">:JobOpeningRepository</text><path d="M2493.5,83.7656 C2493.5,73.7656 2511.5,73.7656 2511.5,73.7656 C2511.5,73.7656 2529.5,73.7656 2529.5,83.7656 L2529.5,109.7656 C2529.5,119.7656 2511.5,119.7656 2511.5,119.7656 C2511.5,119.7656 2493.5,119.7656 2493.5,109.7656 L2493.5,83.7656 " fill="#E2E2F0" style="stroke:#181818;stroke-width:1.5;"/><path d="M2493.5,83.7656 C2493.5,93.7656 2511.5,93.7656 2511.5,93.7656 C2511.5,93.7656 2529.5,93.7656 2529.5,83.7656 " fill="none" style="stroke:#181818;stroke-width:1.5;"/><text fill="#000000" font-family="sans-serif" font-size="20" lengthAdjust="spacing" textLength="110" x="2453.5" y="2022.4023">«repository»</text><text fill="#000000" font-family="sans-serif" font-size="20" lengthAdjust="spacing" textLength="206" x="2405.5" y="2047.5586">:JobOpeningRepository</text><path d="M2493.5,2061.9531 C2493.5,2051.9531 2511.5,2051.9531 2511.5,2051.9531 C2511.5,2051.9531 2529.5,2051.9531 2529.5,2061.9531 L2529.5,2087.9531 C2529.5,2097.9531 2511.5,2097.9531 2511.5,2097.9531 C2511.5,2097.9531 2493.5,2097.9531 2493.5,2087.9531 L2493.5,2061.9531 " fill="#E2E2F0" style="stroke:#181818;stroke-width:1.5;"/><path d="M2493.5,2061.9531 C2493.5,2071.9531 2511.5,2071.9531 2511.5,2071.9531 C2511.5,2071.9531 2529.5,2071.9531 2529.5,2061.9531 " fill="none" style="stroke:#181818;stroke-width:1.5;"/><rect fill="#E2E2F0" height="64.3125" rx="2.5" ry="2.5" style="stroke:#181818;stroke-width:0.5;" width="294" x="2627.5" y="104.7656"/><text fill="#000000" font-family="sans-serif" font-size="20" lengthAdjust="spacing" textLength="84" x="2732.5" y="132.5273">«service»</text><text fill="#000000" font-family="sans-serif" font-size="20" lengthAdjust="spacing" textLength="280" x="2634.5" y="157.6836">:ApplicationManagementService</text><rect fill="#E2E2F0" height="64.3125" rx="2.5" ry="2.5" style="stroke:#181818;stroke-width:0.5;" width="294" x="2627.5" y="2001.6406"/><text fill="#000000" font-family="sans-serif" font-size="20" lengthAdjust="spacing" textLength="84" x="2732.5" y="2029.4023">«service»</text><text fill="#000000" font-family="sans-serif" font-size="20" lengthAdjust="spacing" textLength="280" x="2634.5" y="2054.5586">:ApplicationManagementService</text><rect fill="#E2E2F0" height="64.3125" rx="2.5" ry="2.5" style="stroke:#181818;stroke-width:0.5;" width="115" x="3163" y="104.7656"/><text fill="#000000" font-family="sans-serif" font-size="20" lengthAdjust="spacing" textLength="85" x="3178" y="132.5273">«domain»</text><text fill="#000000" font-family="sans-serif" font-size="20" lengthAdjust="spacing" textLength="101" x="3170" y="157.6836">:Application</text><rect fill="#E2E2F0" height="64.3125" rx="2.5" ry="2.5" style="stroke:#181818;stroke-width:0.5;" width="115" x="3163" y="2001.6406"/><text fill="#000000" font-family="sans-serif" font-size="20" lengthAdjust="spacing" textLength="85" x="3178" y="2029.4023">«domain»</text><text fill="#000000" font-family="sans-serif" font-size="20" lengthAdjust="spacing" textLength="101" x="3170" y="2054.5586">:Application</text><text fill="#000000" font-family="sans-serif" font-size="20" lengthAdjust="spacing" textLength="110" x="3331" y="140.5273">«repository»</text><text fill="#000000" font-family="sans-serif" font-size="20" lengthAdjust="spacing" textLength="196" x="3288" y="165.6836">:ApplicationRepository</text><path d="M3371,83.7656 C3371,73.7656 3389,73.7656 3389,73.7656 C3389,73.7656 3407,73.7656 3407,83.7656 L3407,109.7656 C3407,119.7656 3389,119.7656 3389,119.7656 C3389,119.7656 3371,119.7656 3371,109.7656 L3371,83.7656 " fill="#E2E2F0" style="stroke:#181818;stroke-width:1.5;"/><path d="M3371,83.7656 C3371,93.7656 3389,93.7656 3389,93.7656 C3389,93.7656 3407,93.7656 3407,83.7656 " fill="none" style="stroke:#181818;stroke-width:1.5;"/><text fill="#000000" font-family="sans-serif" font-size="20" lengthAdjust="spacing" textLength="110" x="3331" y="2022.4023">«repository»</text><text fill="#000000" font-family="sans-serif" font-size="20" lengthAdjust="spacing" textLength="196" x="3288" y="2047.5586">:ApplicationRepository</text><path d="M3371,2061.9531 C3371,2051.9531 3389,2051.9531 3389,2051.9531 C3389,2051.9531 3407,2051.9531 3407,2061.9531 L3407,2087.9531 C3407,2097.9531 3389,2097.9531 3389,2097.9531 C3389,2097.9531 3371,2097.9531 3371,2087.9531 L3371,2061.9531 " fill="#E2E2F0" style="stroke:#181818;stroke-width:1.5;"/><path d="M3371,2061.9531 C3371,2071.9531 3389,2071.9531 3389,2071.9531 C3389,2071.9531 3407,2071.9531 3407,2061.9531 " fill="none" style="stroke:#181818;stroke-width:1.5;"/><rect fill="#E2E2F0" height="64.3125" rx="2.5" ry="2.5" style="stroke:#181818;stroke-width:0.5;" width="253" x="3500" y="104.7656"/><text fill="#000000" font-family="sans-serif" font-size="20" lengthAdjust="spacing" textLength="84" x="3584.5" y="132.5273">«service»</text><text fill="#000000" font-family="sans-serif" font-size="20" lengthAdjust="spacing" textLength="239" x="3507" y="157.6836">:ApplicationListDTOService</text><rect fill="#E2E2F0" height="64.3125" rx="2.5" ry="2.5" style="stroke:#181818;stroke-width:0.5;" width="253" x="3500" y="2001.6406"/><text fill="#000000" font-family="sans-serif" font-size="20" lengthAdjust="spacing" textLength="84" x="3584.5" y="2029.4023">«service»</text><text fill="#000000" font-family="sans-serif" font-size="20" lengthAdjust="spacing" textLength="239" x="3507" y="2054.5586">:ApplicationListDTOService</text><rect fill="#E2E2F0" height="64.3125" rx="2.5" ry="2.5" style="stroke:#181818;stroke-width:0.5;" width="197" x="3763" y="2001.6406"/><text fill="#000000" font-family="sans-serif" font-size="20" lengthAdjust="spacing" textLength="85" x="3819" y="2029.4023">«domain»</text><text fill="#000000" font-family="sans-serif" font-size="20" lengthAdjust="spacing" textLength="183" x="3770" y="2054.5586">:RequirementAnswer</text><rect fill="#E2E2F0" height="64.3125" rx="2.5" ry="2.5" style="stroke:#181818;stroke-width:0.5;" width="421" x="3970" y="104.7656"/><text fill="#000000" font-family="sans-serif" font-size="20" lengthAdjust="spacing" textLength="84" x="4138.5" y="132.5273">«service»</text><text fill="#000000" font-family="sans-serif" font-size="20" lengthAdjust="spacing" textLength="407" x="3977" y="157.6836">:RequirementSpecificationManagementService</text><rect fill="#E2E2F0" height="64.3125" rx="2.5" ry="2.5" style="stroke:#181818;stroke-width:0.5;" width="421" x="3970" y="2001.6406"/><text fill="#000000" font-family="sans-serif" font-size="20" lengthAdjust="spacing" textLength="84" x="4138.5" y="2029.4023">«service»</text><text fill="#000000" font-family="sans-serif" font-size="20" lengthAdjust="spacing" textLength="407" x="3977" y="2054.5586">:RequirementSpecificationManagementService</text><text fill="#000000" font-family="sans-serif" font-size="20" lengthAdjust="spacing" textLength="110" x="4746.5" y="140.5273">«repository»</text><text fill="#000000" font-family="sans-serif" font-size="20" lengthAdjust="spacing" textLength="323" x="4640" y="165.6836">:RequirementSpecificationRepository</text><path d="M4786.5,83.7656 C4786.5,73.7656 4804.5,73.7656 4804.5,73.7656 C4804.5,73.7656 4822.5,73.7656 4822.5,83.7656 L4822.5,109.7656 C4822.5,119.7656 4804.5,119.7656 4804.5,119.7656 C4804.5,119.7656 4786.5,119.7656 4786.5,109.7656 L4786.5,83.7656 " fill="#E2E2F0" style="stroke:#181818;stroke-width:1.5;"/><path d="M4786.5,83.7656 C4786.5,93.7656 4804.5,93.7656 4804.5,93.7656 C4804.5,93.7656 4822.5,93.7656 4822.5,83.7656 " fill="none" style="stroke:#181818;stroke-width:1.5;"/><text fill="#000000" font-family="sans-serif" font-size="20" lengthAdjust="spacing" textLength="110" x="4746.5" y="2022.4023">«repository»</text><text fill="#000000" font-family="sans-serif" font-size="20" lengthAdjust="spacing" textLength="323" x="4640" y="2047.5586">:RequirementSpecificationRepository</text><path d="M4786.5,2061.9531 C4786.5,2051.9531 4804.5,2051.9531 4804.5,2051.9531 C4804.5,2051.9531 4822.5,2051.9531 4822.5,2061.9531 L4822.5,2087.9531 C4822.5,2097.9531 4804.5,2097.9531 4804.5,2097.9531 C4804.5,2097.9531 4786.5,2097.9531 4786.5,2087.9531 L4786.5,2061.9531 " fill="#E2E2F0" style="stroke:#181818;stroke-width:1.5;"/><path d="M4786.5,2061.9531 C4786.5,2071.9531 4804.5,2071.9531 4804.5,2071.9531 C4804.5,2071.9531 4822.5,2071.9531 4822.5,2061.9531 " fill="none" style="stroke:#181818;stroke-width:1.5;"/><rect fill="#E2E2F0" height="39.1563" rx="2.5" ry="2.5" style="stroke:#181818;stroke-width:0.5;" width="56" x="4982.5" y="129.9219"/><text fill="#000000" font-family="sans-serif" font-size="20" lengthAdjust="spacing" textLength="42" x="4989.5" y="157.6836">Main</text><rect fill="#E2E2F0" height="39.1563" rx="2.5" ry="2.5" style="stroke:#181818;stroke-width:0.5;" width="56" x="4982.5" y="2001.6406"/><text fill="#000000" font-family="sans-serif" font-size="20" lengthAdjust="spacing" textLength="42" x="4989.5" y="2029.4023">Main</text><rect fill="#FFFFFF" height="1782.4063" style="stroke:#181818;stroke-width:1.0;" width="10" x="143.5" y="211.2344"/><rect fill="#FFFFFF" height="307.0938" style="stroke:#181818;stroke-width:1.0;" width="10" x="678.5" y="211.2344"/><rect fill="#FFFFFF" height="586.0313" style="stroke:#181818;stroke-width:1.0;" width="10" x="678.5" y="637.7969"/><rect fill="#FFFFFF" height="641.3438" style="stroke:#181818;stroke-width:1.0;" width="10" x="678.5" y="1343.2969"/><rect fill="#FFFFFF" height="245.9375" style="stroke:#181818;stroke-width:1.0;" width="10" x="1252.5" y="705.1094"/><rect fill="#FFFFFF" height="39.1563" style="stroke:#181818;stroke-width:1.0;" width="10" x="1549" y="813.4219"/><rect fill="#FFFFFF" height="30" style="stroke:#181818;stroke-width:1.0;" width="10" x="1799.5" y="744.2656"/><rect fill="#FFFFFF" height="228.7813" style="stroke:#181818;stroke-width:1.0;" width="10" x="2103.5" y="250.3906"/><rect fill="#FFFFFF" height="30" style="stroke:#181818;stroke-width:1.0;" width="10" x="2328" y="403.0156"/><rect fill="#FFFFFF" height="30" style="stroke:#181818;stroke-width:1.0;" width="10" x="2506.5" y="289.5469"/><rect fill="#FFFFFF" height="177.4688" style="stroke:#181818;stroke-width:1.0;" width="10" x="2769.5" y="1007.2031"/><rect fill="#FFFFFF" height="309.0938" style="stroke:#181818;stroke-width:1.0;" width="10" x="2769.5" y="1636.3906"/><rect fill="#FFFFFF" height="67.3125" style="stroke:#181818;stroke-width:1.0;" width="10" x="3215.5" y="1772.8594"/><rect fill="#FFFFFF" height="30" style="stroke:#181818;stroke-width:1.0;" width="10" x="3384" y="1046.3594"/><rect fill="#FFFFFF" height="30" style="stroke:#181818;stroke-width:1.0;" width="10" x="3384" y="1675.5469"/><rect fill="#FFFFFF" height="30" style="stroke:#181818;stroke-width:1.0;" width="10" x="3384" y="1915.4844"/><rect fill="#FFFFFF" height="30" style="stroke:#181818;stroke-width:1.0;" width="10" x="3621.5" y="1115.5156"/><rect fill="#FFFFFF" height="186.625" style="stroke:#181818;stroke-width:1.0;" width="10" x="4175.5" y="1410.6094"/><rect fill="#FFFFFF" height="30" style="stroke:#181818;stroke-width:1.0;" width="10" x="4799.5" y="1449.7656"/><rect fill="#FFFFFF" height="39.1563" style="stroke:#181818;stroke-width:1.0;" width="10" x="5005.5" y="1518.9219"/><polygon fill="#181818" points="666.5,207.2344,676.5,211.2344,666.5,215.2344,670.5,211.2344" style="stroke:#181818;stroke-width:1.0;"/><line style="stroke:#181818;stroke-width:1.0;" x1="153.5" x2="672.5" y1="211.2344" y2="211.2344"/><text fill="#000000" font-family="sans-serif" font-size="20" font-weight="bold" lengthAdjust="spacing" textLength="11" x="160.5" y="204.8398">1</text><text fill="#000000" font-family="sans-serif" font-size="20" lengthAdjust="spacing" textLength="157" x="175.5" y="204.8398">getJobOpenings()</text><polygon fill="#181818" points="2091.5,246.3906,2101.5,250.3906,2091.5,254.3906,2095.5,250.3906" style="stroke:#181818;stroke-width:1.0;"/><line style="stroke:#181818;stroke-width:1.0;" x1="688.5" x2="2097.5" y1="250.3906" y2="250.3906"/><text fill="#000000" font-family="sans-serif" font-size="20" font-weight="bold" lengthAdjust="spacing" textLength="11" x="695.5" y="243.9961">2</text><text fill="#000000" font-family="sans-serif" font-size="20" lengthAdjust="spacing" textLength="235" x="710.5" y="243.9961">getOnGoingJobOpenings()</text><polygon fill="#181818" points="2494.5,285.5469,2504.5,289.5469,2494.5,293.5469,2498.5,289.5469" style="stroke:#181818;stroke-width:1.0;"/><line style="stroke:#181818;stroke-width:1.0;" x1="2113.5" x2="2500.5" y1="289.5469" y2="289.5469"/><text fill="#000000" font-family="sans-serif" font-size="20" font-weight="bold" lengthAdjust="spacing" textLength="11" x="2120.5" y="283.1523">3</text><text fill="#000000" font-family="sans-serif" font-size="20" lengthAdjust="spacing" textLength="343" x="2135.5" y="283.1523">getJobOpeningsWithSTARTEDStatus()</text><path d="M1946.5,334.5469 L2032.5,334.5469 L2032.5,351.7031 L2022.5,361.7031 L1946.5,361.7031 L1946.5,334.5469 " fill="#EEEEEE" style="stroke:#000000;stroke-width:1.5;"/><rect fill="none" height="106.4688" style="stroke:#000000;stroke-width:1.5;" width="459" x="1946.5" y="334.5469"/><text fill="#000000" font-family="sans-serif" font-size="20" font-weight="bold" lengthAdjust="spacing" textLength="41" x="1961.5" y="356.3086">loop</text><text fill="#000000" font-family="sans-serif" font-size="20" font-weight="bold" lengthAdjust="spacing" textLength="287" x="2047.5" y="357.3086">[for all jobOpenings in the list]</text><polygon fill="#181818" points="2316,399.0156,2326,403.0156,2316,407.0156,2320,403.0156" style="stroke:#181818;stroke-width:1.0;"/><line style="stroke:#181818;stroke-width:1.0;" x1="2113.5" x2="2322" y1="403.0156" y2="403.0156"/><text fill="#000000" font-family="sans-serif" font-size="20" font-weight="bold" lengthAdjust="spacing" textLength="11" x="2120.5" y="396.6211">4</text><text fill="#000000" font-family="sans-serif" font-size="20" lengthAdjust="spacing" textLength="62" x="2135.5" y="396.6211">toDto()</text><polygon fill="#181818" points="699.5,475.1719,689.5,479.1719,699.5,483.1719,695.5,479.1719" style="stroke:#181818;stroke-width:1.0;"/><line style="stroke:#181818;stroke-width:1.0;stroke-dasharray:2.0,2.0;" x1="693.5" x2="2107.5" y1="479.1719" y2="479.1719"/><text fill="#000000" font-family="sans-serif" font-size="20" font-weight="bold" lengthAdjust="spacing" textLength="11" x="705.5" y="472.7773">5</text><text fill="#000000" font-family="sans-serif" font-size="20" lengthAdjust="spacing" textLength="182" x="720.5" y="472.7773">jobOpeningsListDTO</text><polygon fill="#181818" points="164.5,514.3281,154.5,518.3281,164.5,522.3281,160.5,518.3281" style="stroke:#181818;stroke-width:1.0;"/><line style="stroke:#181818;stroke-width:1.0;stroke-dasharray:2.0,2.0;" x1="158.5" x2="682.5" y1="518.3281" y2="518.3281"/><text fill="#000000" font-family="sans-serif" font-size="20" font-weight="bold" lengthAdjust="spacing" textLength="11" x="170.5" y="511.9336">6</text><text fill="#000000" font-family="sans-serif" font-size="20" lengthAdjust="spacing" textLength="6" x="185.5" y="511.9336"> </text><line style="stroke:#181818;stroke-width:1.0;" x1="153.5" x2="195.5" y1="557.4844" y2="557.4844"/><line style="stroke:#181818;stroke-width:1.0;" x1="195.5" x2="195.5" y1="557.4844" y2="570.4844"/><line style="stroke:#181818;stroke-width:1.0;" x1="154.5" x2="195.5" y1="570.4844" y2="570.4844"/><polygon fill="#181818" points="164.5,566.4844,154.5,570.4844,164.5,574.4844,160.5,570.4844" style="stroke:#181818;stroke-width:1.0;"/><text fill="#000000" font-family="sans-serif" font-size="20" font-weight="bold" lengthAdjust="spacing" textLength="11" x="160.5" y="551.0898">7</text><text fill="#000000" font-family="sans-serif" font-size="20" lengthAdjust="spacing" textLength="60" x="175.5" y="551.0898">show()</text><polygon fill="#181818" points="666.5,633.7969,676.5,637.7969,666.5,641.7969,670.5,637.7969" style="stroke:#181818;stroke-width:1.0;"/><line style="stroke:#181818;stroke-width:1.0;" x1="153.5" x2="672.5" y1="637.7969" y2="637.7969"/><text fill="#000000" font-family="sans-serif" font-size="20" font-weight="bold" lengthAdjust="spacing" textLength="11" x="160.5" y="631.4023">8</text><text fill="#000000" font-family="sans-serif" font-size="20" lengthAdjust="spacing" textLength="264" x="175.5" y="631.4023">getApplications(jobReference)</text><path d="M693,583.4844 L693,668.4844 L874,668.4844 L874,593.4844 L864,583.4844 L693,583.4844 " fill="#FEFFDD" style="stroke:#181818;stroke-width:0.5;"/><path d="M864,583.4844 L864,593.4844 L874,593.4844 L864,583.4844 " fill="#FEFFDD" style="stroke:#181818;stroke-width:0.5;"/><text fill="#000000" font-family="sans-serif" font-size="20" lengthAdjust="spacing" textLength="160" x="699" y="609.2461">JobReference is a</text><text fill="#000000" font-family="sans-serif" font-size="20" lengthAdjust="spacing" textLength="136" x="699" y="634.4023">string within the</text><text fill="#000000" font-family="sans-serif" font-size="20" lengthAdjust="spacing" textLength="147" x="699" y="659.5586">JobOpeningDTO</text><polygon fill="#181818" points="1240.5,701.1094,1250.5,705.1094,1240.5,709.1094,1244.5,705.1094" style="stroke:#181818;stroke-width:1.0;"/><line style="stroke:#181818;stroke-width:1.0;" x1="688.5" x2="1246.5" y1="705.1094" y2="705.1094"/><text fill="#000000" font-family="sans-serif" font-size="20" font-weight="bold" lengthAdjust="spacing" textLength="11" x="695.5" y="698.7148">9</text><text fill="#000000" font-family="sans-serif" font-size="20" lengthAdjust="spacing" textLength="530" x="710.5" y="698.7148">checkIfRecruitmentProcessIsInAnalysisPhase(jobReference)</text><polygon fill="#181818" points="1787.5,740.2656,1797.5,744.2656,1787.5,748.2656,1791.5,744.2656" style="stroke:#181818;stroke-width:1.0;"/><line style="stroke:#181818;stroke-width:1.0;" x1="1262.5" x2="1793.5" y1="744.2656" y2="744.2656"/><text fill="#000000" font-family="sans-serif" font-size="20" font-weight="bold" lengthAdjust="spacing" textLength="22" x="1269.5" y="737.8711">10</text><text fill="#000000" font-family="sans-serif" font-size="20" lengthAdjust="spacing" textLength="482" x="1295.5" y="737.8711">getRecruitmentProcessByJobReference(jobReference)</text><polygon fill="#181818" points="1537,809.4219,1547,813.4219,1537,817.4219,1541,813.4219" style="stroke:#181818;stroke-width:1.0;"/><line style="stroke:#181818;stroke-width:1.0;" x1="1262.5" x2="1543" y1="813.4219" y2="813.4219"/><text fill="#000000" font-family="sans-serif" font-size="20" font-weight="bold" lengthAdjust="spacing" textLength="22" x="1269.5" y="807.0273">11</text><text fill="#000000" font-family="sans-serif" font-size="20" lengthAdjust="spacing" textLength="183" x="1295.5" y="807.0273">currentActivePhase()</text><polygon fill="#181818" points="1273.5,848.5781,1263.5,852.5781,1273.5,856.5781,1269.5,852.5781" style="stroke:#181818;stroke-width:1.0;"/><line style="stroke:#181818;stroke-width:1.0;stroke-dasharray:2.0,2.0;" x1="1267.5" x2="1553" y1="852.5781" y2="852.5781"/><text fill="#000000" font-family="sans-serif" font-size="20" font-weight="bold" lengthAdjust="spacing" textLength="22" x="1279.5" y="846.1836">12</text><text fill="#000000" font-family="sans-serif" font-size="20" lengthAdjust="spacing" textLength="171" x="1305.5" y="846.1836">phaseDenomination</text><path d="M497,867.5781 L565,867.5781 L565,884.7344 L555,894.7344 L497,894.7344 L497,867.5781 " fill="#EEEEEE" style="stroke:#000000;stroke-width:1.5;"/><rect fill="none" height="76.4688" style="stroke:#000000;stroke-width:1.5;" width="958.5" x="497" y="867.5781"/><text fill="#000000" font-family="sans-serif" font-size="20" font-weight="bold" lengthAdjust="spacing" textLength="23" x="512" y="889.3398">alt</text><text fill="#000000" font-family="sans-serif" font-size="20" font-weight="bold" lengthAdjust="spacing" textLength="731" x="580" y="890.3398">[phaseDenomination == APPLICATION || phaseDenomination == SCREENING]</text><polygon fill="#181818" points="699.5,932.0469,689.5,936.0469,699.5,940.0469,695.5,936.0469" style="stroke:#181818;stroke-width:1.0;"/><line style="stroke:#181818;stroke-width:1.0;stroke-dasharray:2.0,2.0;" x1="693.5" x2="1251.5" y1="936.0469" y2="936.0469"/><text fill="#000000" font-family="sans-serif" font-size="20" font-weight="bold" lengthAdjust="spacing" textLength="22" x="705.5" y="929.6523">13</text><text fill="#000000" font-family="sans-serif" font-size="20" lengthAdjust="spacing" textLength="34" x="731.5" y="929.6523">true</text><polygon fill="#181818" points="2757.5,1003.2031,2767.5,1007.2031,2757.5,1011.2031,2761.5,1007.2031" style="stroke:#181818;stroke-width:1.0;"/><line style="stroke:#181818;stroke-width:1.0;" x1="688.5" x2="2763.5" y1="1007.2031" y2="1007.2031"/><text fill="#000000" font-family="sans-serif" font-size="20" font-weight="bold" lengthAdjust="spacing" textLength="22" x="695.5" y="1000.8086">14</text><text fill="#000000" font-family="sans-serif" font-size="20" lengthAdjust="spacing" textLength="433" x="721.5" y="1000.8086">getApplicationsFromJobReference(jobReference)</text><polygon fill="#181818" points="3372,1042.3594,3382,1046.3594,3372,1050.3594,3376,1046.3594" style="stroke:#181818;stroke-width:1.0;"/><line style="stroke:#181818;stroke-width:1.0;" x1="2779.5" x2="3378" y1="1046.3594" y2="1046.3594"/><text fill="#000000" font-family="sans-serif" font-size="20" font-weight="bold" lengthAdjust="spacing" textLength="22" x="2786.5" y="1039.9648">15</text><text fill="#000000" font-family="sans-serif" font-size="20" lengthAdjust="spacing" textLength="433" x="2812.5" y="1039.9648">getApplicationsFromJobReference(jobReference)</text><polygon fill="#181818" points="3609.5,1111.5156,3619.5,1115.5156,3609.5,1119.5156,3613.5,1115.5156" style="stroke:#181818;stroke-width:1.0;"/><line style="stroke:#181818;stroke-width:1.0;stroke-dasharray:2.0,2.0;" x1="2779.5" x2="3615.5" y1="1115.5156" y2="1115.5156"/><text fill="#000000" font-family="sans-serif" font-size="20" font-weight="bold" lengthAdjust="spacing" textLength="22" x="2786.5" y="1109.1211">16</text><text fill="#000000" font-family="sans-serif" font-size="20" lengthAdjust="spacing" textLength="382" x="2812.5" y="1109.1211">convertApplicationsToDTO(applicationsList)</text><polygon fill="#181818" points="699.5,1180.6719,689.5,1184.6719,699.5,1188.6719,695.5,1184.6719" style="stroke:#181818;stroke-width:1.0;"/><line style="stroke:#181818;stroke-width:1.0;stroke-dasharray:2.0,2.0;" x1="693.5" x2="2773.5" y1="1184.6719" y2="1184.6719"/><text fill="#000000" font-family="sans-serif" font-size="20" font-weight="bold" lengthAdjust="spacing" textLength="22" x="705.5" y="1178.2773">17</text><text fill="#000000" font-family="sans-serif" font-size="20" lengthAdjust="spacing" textLength="176" x="731.5" y="1178.2773">applicationsListDTO</text><polygon fill="#181818" points="164.5,1219.8281,154.5,1223.8281,164.5,1227.8281,160.5,1223.8281" style="stroke:#181818;stroke-width:1.0;"/><line style="stroke:#181818;stroke-width:1.0;stroke-dasharray:2.0,2.0;" x1="158.5" x2="682.5" y1="1223.8281" y2="1223.8281"/><text fill="#000000" font-family="sans-serif" font-size="20" font-weight="bold" lengthAdjust="spacing" textLength="22" x="170.5" y="1217.4336">18</text><text fill="#000000" font-family="sans-serif" font-size="20" lengthAdjust="spacing" textLength="6" x="196.5" y="1217.4336"> </text><line style="stroke:#181818;stroke-width:1.0;" x1="153.5" x2="195.5" y1="1262.9844" y2="1262.9844"/><line style="stroke:#181818;stroke-width:1.0;" x1="195.5" x2="195.5" y1="1262.9844" y2="1275.9844"/><line style="stroke:#181818;stroke-width:1.0;" x1="154.5" x2="195.5" y1="1275.9844" y2="1275.9844"/><polygon fill="#181818" points="164.5,1271.9844,154.5,1275.9844,164.5,1279.9844,160.5,1275.9844" style="stroke:#181818;stroke-width:1.0;"/><text fill="#000000" font-family="sans-serif" font-size="20" font-weight="bold" lengthAdjust="spacing" textLength="22" x="160.5" y="1256.5898">19</text><text fill="#000000" font-family="sans-serif" font-size="20" lengthAdjust="spacing" textLength="60" x="186.5" y="1256.5898">show()</text><polygon fill="#181818" points="666.5,1339.2969,676.5,1343.2969,666.5,1347.2969,670.5,1343.2969" style="stroke:#181818;stroke-width:1.0;"/><line style="stroke:#181818;stroke-width:1.0;" x1="153.5" x2="672.5" y1="1343.2969" y2="1343.2969"/><text fill="#000000" font-family="sans-serif" font-size="20" font-weight="bold" lengthAdjust="spacing" textLength="22" x="160.5" y="1336.9023">20</text><text fill="#000000" font-family="sans-serif" font-size="20" lengthAdjust="spacing" textLength="480" x="186.5" y="1336.9023">uploadFile(applicationDTO, requirementName, filepath)</text><path d="M693,1288.9844 L693,1373.9844 L889,1373.9844 L889,1298.9844 L879,1288.9844 L693,1288.9844 " fill="#FEFFDD" style="stroke:#181818;stroke-width:0.5;"/><path d="M879,1288.9844 L879,1298.9844 L889,1298.9844 L879,1288.9844 " fill="#FEFFDD" style="stroke:#181818;stroke-width:0.5;"/><text fill="#000000" font-family="sans-serif" font-size="20" lengthAdjust="spacing" textLength="175" x="699" y="1314.7461">requirementName is</text><text fill="#000000" font-family="sans-serif" font-size="20" lengthAdjust="spacing" textLength="153" x="699" y="1339.9023">a string within the</text><text fill="#000000" font-family="sans-serif" font-size="20" lengthAdjust="spacing" textLength="147" x="699" y="1365.0586">JobOpeningDTO</text><polygon fill="#181818" points="4163.5,1406.6094,4173.5,1410.6094,4163.5,1414.6094,4167.5,1410.6094" style="stroke:#181818;stroke-width:1.0;"/><line style="stroke:#181818;stroke-width:1.0;" x1="688.5" x2="4169.5" y1="1410.6094" y2="1410.6094"/><text fill="#000000" font-family="sans-serif" font-size="20" font-weight="bold" lengthAdjust="spacing" textLength="22" x="695.5" y="1404.2148">21</text><text fill="#000000" font-family="sans-serif" font-size="20" lengthAdjust="spacing" textLength="461" x="721.5" y="1404.2148">checkAnswersFileIsValid(requirementName, filepath)</text><polygon fill="#181818" points="4787.5,1445.7656,4797.5,1449.7656,4787.5,1453.7656,4791.5,1449.7656" style="stroke:#181818;stroke-width:1.0;"/><line style="stroke:#181818;stroke-width:1.0;" x1="4185.5" x2="4793.5" y1="1449.7656" y2="1449.7656"/><text fill="#000000" font-family="sans-serif" font-size="20" font-weight="bold" lengthAdjust="spacing" textLength="22" x="4192.5" y="1443.3711">22</text><text fill="#000000" font-family="sans-serif" font-size="20" lengthAdjust="spacing" textLength="569" x="4218.5" y="1443.3711">requirementSpecificationByRequirementName(requirementName)</text><polygon fill="#181818" points="4993.5,1514.9219,5003.5,1518.9219,4993.5,1522.9219,4997.5,1518.9219" style="stroke:#181818;stroke-width:1.0;"/><line style="stroke:#181818;stroke-width:1.0;" x1="4185.5" x2="4999.5" y1="1518.9219" y2="1518.9219"/><text fill="#000000" font-family="sans-serif" font-size="20" font-weight="bold" lengthAdjust="spacing" textLength="22" x="4192.5" y="1512.5273">23</text><text fill="#000000" font-family="sans-serif" font-size="20" lengthAdjust="spacing" textLength="222" x="4218.5" y="1512.5273">checkFileFormat(filepath)</text><polygon fill="#181818" points="4196.5,1554.0781,4186.5,1558.0781,4196.5,1562.0781,4192.5,1558.0781" style="stroke:#181818;stroke-width:1.0;"/><line style="stroke:#181818;stroke-width:1.0;stroke-dasharray:2.0,2.0;" x1="4190.5" x2="5009.5" y1="1558.0781" y2="1558.0781"/><text fill="#000000" font-family="sans-serif" font-size="20" font-weight="bold" lengthAdjust="spacing" textLength="22" x="4202.5" y="1551.6836">24</text><text fill="#000000" font-family="sans-serif" font-size="20" lengthAdjust="spacing" textLength="34" x="4228.5" y="1551.6836">true</text><polygon fill="#181818" points="699.5,1593.2344,689.5,1597.2344,699.5,1601.2344,695.5,1597.2344" style="stroke:#181818;stroke-width:1.0;"/><line style="stroke:#181818;stroke-width:1.0;stroke-dasharray:2.0,2.0;" x1="693.5" x2="4179.5" y1="1597.2344" y2="1597.2344"/><text fill="#000000" font-family="sans-serif" font-size="20" font-weight="bold" lengthAdjust="spacing" textLength="22" x="705.5" y="1590.8398">25</text><text fill="#000000" font-family="sans-serif" font-size="20" lengthAdjust="spacing" textLength="34" x="731.5" y="1590.8398">true</text><polygon fill="#181818" points="2757.5,1632.3906,2767.5,1636.3906,2757.5,1640.3906,2761.5,1636.3906" style="stroke:#181818;stroke-width:1.0;"/><line style="stroke:#181818;stroke-width:1.0;" x1="688.5" x2="2763.5" y1="1636.3906" y2="1636.3906"/><text fill="#000000" font-family="sans-serif" font-size="20" font-weight="bold" lengthAdjust="spacing" textLength="22" x="695.5" y="1629.9961">26</text><text fill="#000000" font-family="sans-serif" font-size="20" lengthAdjust="spacing" textLength="389" x="721.5" y="1629.9961">uploadAnswersFile(applicationDTO, filepath)</text><polygon fill="#181818" points="3372,1671.5469,3382,1675.5469,3372,1679.5469,3376,1675.5469" style="stroke:#181818;stroke-width:1.0;"/><line style="stroke:#181818;stroke-width:1.0;" x1="2779.5" x2="3378" y1="1675.5469" y2="1675.5469"/><text fill="#000000" font-family="sans-serif" font-size="20" font-weight="bold" lengthAdjust="spacing" textLength="22" x="2786.5" y="1669.1523">27</text><text fill="#000000" font-family="sans-serif" font-size="20" lengthAdjust="spacing" textLength="360" x="2812.5" y="1669.1523">getApplicationFromDTO(applicationDTO)</text><polygon fill="#181818" points="3203.5,1768.8594,3213.5,1772.8594,3203.5,1776.8594,3207.5,1772.8594" style="stroke:#181818;stroke-width:1.0;"/><line style="stroke:#181818;stroke-width:1.0;" x1="2779.5" x2="3209.5" y1="1772.8594" y2="1772.8594"/><text fill="#000000" font-family="sans-serif" font-size="20" font-weight="bold" lengthAdjust="spacing" textLength="22" x="2786.5" y="1766.4648">28</text><text fill="#000000" font-family="sans-serif" font-size="20" lengthAdjust="spacing" textLength="391" x="2812.5" y="1766.4648">updateRequirementAnswer(fileWithAnswers)</text><path d="M3230,1718.5469 L3230,1803.5469 L3445,1803.5469 L3445,1728.5469 L3435,1718.5469 L3230,1718.5469 " fill="#FEFFDD" style="stroke:#181818;stroke-width:0.5;"/><path d="M3435,1718.5469 L3435,1728.5469 L3445,1728.5469 L3435,1718.5469 " fill="#FEFFDD" style="stroke:#181818;stroke-width:0.5;"/><text fill="#000000" font-family="sans-serif" font-size="20" lengthAdjust="spacing" textLength="151" x="3236" y="1744.3086">Conversion of file</text><text fill="#000000" font-family="sans-serif" font-size="20" lengthAdjust="spacing" textLength="194" x="3236" y="1769.4648">content to a in-system</text><text fill="#000000" font-family="sans-serif" font-size="20" lengthAdjust="spacing" textLength="157" x="3242" y="1794.6211">File already made</text><polygon fill="#181818" points="3751,1836.1719,3761,1840.1719,3751,1844.1719,3755,1840.1719" style="stroke:#181818;stroke-width:1.0;"/><line style="stroke:#181818;stroke-width:1.0;" x1="3220.5" x2="3757" y1="1840.1719" y2="1840.1719"/><text fill="#000000" font-family="sans-serif" font-size="20" font-weight="bold" lengthAdjust="spacing" textLength="22" x="3227.5" y="1833.7773">29</text><text fill="#000000" font-family="sans-serif" font-size="20" lengthAdjust="spacing" textLength="331" x="3253.5" y="1833.7773">RequirementAnswer(fileWithAnswers)</text><rect fill="#E2E2F0" height="64.3125" rx="2.5" ry="2.5" style="stroke:#181818;stroke-width:0.5;" width="197" x="3763" y="1809.0156"/><text fill="#000000" font-family="sans-serif" font-size="20" lengthAdjust="spacing" textLength="85" x="3819" y="1836.7773">«domain»</text><text fill="#000000" font-family="sans-serif" font-size="20" lengthAdjust="spacing" textLength="183" x="3770" y="1861.9336">:RequirementAnswer</text><polygon fill="#181818" points="3372,1911.4844,3382,1915.4844,3372,1919.4844,3376,1915.4844" style="stroke:#181818;stroke-width:1.0;"/><line style="stroke:#181818;stroke-width:1.0;" x1="2779.5" x2="3378" y1="1915.4844" y2="1915.4844"/><text fill="#000000" font-family="sans-serif" font-size="20" font-weight="bold" lengthAdjust="spacing" textLength="22" x="2786.5" y="1909.0898">30</text><text fill="#000000" font-family="sans-serif" font-size="20" lengthAdjust="spacing" textLength="148" x="2812.5" y="1909.0898">save(application)</text><polygon fill="#181818" points="164.5,1980.6406,154.5,1984.6406,164.5,1988.6406,160.5,1984.6406" style="stroke:#181818;stroke-width:1.0;"/><line style="stroke:#181818;stroke-width:1.0;stroke-dasharray:2.0,2.0;" x1="158.5" x2="682.5" y1="1984.6406" y2="1984.6406"/><text fill="#000000" font-family="sans-serif" font-size="20" font-weight="bold" lengthAdjust="spacing" textLength="22" x="170.5" y="1978.2461">31</text><text fill="#000000" font-family="sans-serif" font-size="20" lengthAdjust="spacing" textLength="157" x="196.5" y="1978.2461">success importing</text><!--SRC=[dLTDR-Cs4BtpLn3RGxsB3H0iUWgs0Hmx2LHaOyEosqilZ4JRt4YaGb9ENVZ7T_WXY_gmvTI782PdthmPFWx7wfNnWaYIPo9vfIbEwPgKcNuGNCViNug_NIEacSueNiNVhgz_mp5zAobFA9uoiW4_X4Yf1I_p5oeHUX7_u7YlDCtnBqziizLtMKaHXWy4qInX1U4QV_h-lP1KKQw9PeBVtlxDRrP59aYw07GcQGvROwxUgLIhw1Cc2g-YFXHI51bBXa4ca8uKMKQb1Pii5qzzS8hA7KkeXLhGH9PC6v2v50bLwWVXP6DHOsTdiRnTB7TzYAd82UCd04F_ODdYf4IJ5wAe0P6q48ff8VSdW1P7WnEGjS5Gsd-8brb1EUER_dHXVpZL6gJocHL3MTK-hMnWmwoW8URZMWlzrC5Wc7g0KZaDCGzSMjHXnrA_dFaJKtgwdBLecnLWFYYmbkoz6DxSDpIi-AD_ND24hSzM4wohQfxLQZzcHx5ljb2KfnXQ27ADP9wL6yPz8vap_jhDu0SaRn6SRG3mw-_-Wn-fDYB2NbuALpje5U6hMziDy0tUK5rhK8q-8v9ejYEQcjvp_D-s3cHTmDNT1kSyuuy2F4zW-7k3l8VpDJbt8l_5z3PUZXVB-saC_R5imzX2fRIpX38X2hmM4fCimpzhG0mrr5kACz2MhM23mwm01bfCjO0uPZS4hgujRIsQCfjmTJvr7OF8NiqjjhOEheBW1SKDjbrvtRd0tnkijk8TYBNFCxWoPyupj1hzD7LQKsaUhy-j0-K2_fD6PbM1ZgQOAKpigj8IaiBlS3wkefMjJzTaQWfZm52jaVg105B9bYQlqRhReICLyJ4dsLunDT_2PJh5DtXlK01T1-fj-wuUNOkxVPZhGCp-1oKulRDsWsnDUKefJVioWDILuIoD8sW8SzKkUc60ffIBd74hXlESOQB9TDS9P8R7y_bJD1alezapFXpwRUB9ulx-ENf-R2HSwr9Bc8YCJY1A3n5xi8V3eHQGUxUwYdwG8h_azFoxXpoEGwnRp_-4RBUXQkaOniLnJvSvMi5tL3QYBGNiZe8PpZQCPXZ_z3K3LUzX4CeNjmtMwZvLAJxQVUhcCp4N64Th_C0osnl-91bBJxIWqewZnZBC4ZXznR9-69z9Jh_YDLWLH6y7MbFB3nYuflt1xbGtfxUWCVbfsH2Eb4riT0bFFmeW3-PWlS3aYG7WRhze8hSZDV7RQgkMWfX-Ml2fc1mUXCo97lKmzjC2yZvNOINi_Gn2LRPLfDPDRfAoTQZLudwFsDVNwkKeayxTTb893g2Zc9uql9o7BxQvrwsx1by_UA4jlAKA0n_jJ9kspcPuyKaqqTiwdjXse4pF56kRcrs6Bg414GOIa3JZLyh-bhHRhe8aavIaUvoJb0PwDipS8RheNxu0qGieDlFjxv6Ax1gdSLdPpdST0riczhbYUI5WekMRJYVw3m00]--></g></svg>