<?xml version="1.0" encoding="us-ascii" standalone="no"?><svg xmlns="http://www.w3.org/2000/svg" xmlns:xlink="http://www.w3.org/1999/xlink" contentStyleType="text/css" height="666.5px" preserveAspectRatio="none" style="width:1066px;height:666px;background:#FFFFFF;" version="1.1" viewBox="0 0 1066 666" width="1066px" zoomAndPan="magnify"><defs/><g><text fill="#000000" font-family="sans-serif" font-size="7" font-weight="bold" lengthAdjust="spacing" textLength="81.5" x="488.75" y="12.5537">US2000a Domain Model</text><!--cluster <<aggregate>> Job Opening--><g id="cluster_&lt;&lt;aggregate&gt;&gt; Job Opening"><path d="M4.25,195.8174 L95.75,195.8174 A1.875,1.875 0 0 1 97,197.0674 L100.5,208.1279 L470.25,208.1279 A1.25,1.25 0 0 1 471.5,209.3779 L471.5,415.0674 A1.25,1.25 0 0 1 470.25,416.3174 L4.25,416.3174 A1.25,1.25 0 0 1 3,415.0674 L3,197.0674 A1.25,1.25 0 0 1 4.25,195.8174 " fill="none" style="stroke:#000000;stroke-width:0.75;"/><line style="stroke:#000000;stroke-width:0.75;" x1="3" x2="100.5" y1="208.1279" y2="208.1279"/><text fill="#000000" font-family="sans-serif" font-size="7" font-weight="bold" lengthAdjust="spacing" textLength="91" x="5" y="204.3711">&#171;aggregate&#187; Job Opening</text></g><!--cluster <<aggregate>> Operator--><g id="cluster_&lt;&lt;aggregate&gt;&gt; Operator"><path d="M653.75,22.8174 L731.75,22.8174 A1.875,1.875 0 0 1 733,24.0674 L736.5,35.1279 L736.75,35.1279 A1.25,1.25 0 0 1 738,36.3779 L738,82.5674 A1.25,1.25 0 0 1 736.75,83.8174 L653.75,83.8174 A1.25,1.25 0 0 1 652.5,82.5674 L652.5,24.0674 A1.25,1.25 0 0 1 653.75,22.8174 " fill="none" style="stroke:#000000;stroke-width:0.75;"/><line style="stroke:#000000;stroke-width:0.75;" x1="652.5" x2="736.5" y1="35.1279" y2="35.1279"/><text fill="#000000" font-family="sans-serif" font-size="7" font-weight="bold" lengthAdjust="spacing" textLength="77.5" x="654.5" y="31.3711">&#171;aggregate&#187; Operator</text></g><!--cluster <<aggregate>> Candidate--><g id="cluster_&lt;&lt;aggregate&gt;&gt; Candidate"><path d="M611.25,109.3174 L693.25,109.3174 A1.875,1.875 0 0 1 694.5,110.5674 L698,121.6279 L698.25,121.6279 A1.25,1.25 0 0 1 699.5,122.8779 L699.5,169.0674 A1.25,1.25 0 0 1 698.25,170.3174 L611.25,170.3174 A1.25,1.25 0 0 1 610,169.0674 L610,110.5674 A1.25,1.25 0 0 1 611.25,109.3174 " fill="none" style="stroke:#000000;stroke-width:0.75;"/><line style="stroke:#000000;stroke-width:0.75;" x1="610" x2="698" y1="121.6279" y2="121.6279"/><text fill="#000000" font-family="sans-serif" font-size="7" font-weight="bold" lengthAdjust="spacing" textLength="81.5" x="612" y="117.8711">&#171;aggregate&#187; Candidate</text></g><!--cluster <<aggregate>> Application--><g id="cluster_&lt;&lt;aggregate&gt;&gt; Application"><path d="M484.75,281.3174 L570.25,281.3174 A1.875,1.875 0 0 1 571.5,282.5674 L575,293.6279 L1061.25,293.6279 A1.25,1.25 0 0 1 1062.5,294.8779 L1062.5,662.0674 A1.25,1.25 0 0 1 1061.25,663.3174 L484.75,663.3174 A1.25,1.25 0 0 1 483.5,662.0674 L483.5,282.5674 A1.25,1.25 0 0 1 484.75,281.3174 " fill="none" style="stroke:#000000;stroke-width:0.75;"/><line style="stroke:#000000;stroke-width:0.75;" x1="483.5" x2="575" y1="293.6279" y2="293.6279"/><text fill="#000000" font-family="sans-serif" font-size="7" font-weight="bold" lengthAdjust="spacing" textLength="85" x="485.5" y="289.8711">&#171;aggregate&#187; Application</text></g><!--class JobOpening--><g id="elem_JobOpening"><rect codeLine="11" fill="#F5F5DC" height="34.2715" id="JobOpening" rx="1.25" ry="1.25" style="stroke:#181818;stroke-width:0.25;" width="54" x="291.5" y="214.3174"/><ellipse cx="299" cy="229.4531" fill="#ADD1B2" rx="5.5" ry="5.5" style="stroke:#181818;stroke-width:0.5;"/><path d="M298.4297,229.8516 L298.4297,231.1016 L300.5938,231.1016 L300.5938,230.6406 Q300.5938,230.3359 300.7109,230.2031 Q300.8359,230.0703 301.0234,230.0703 Q301.2109,230.0703 301.3281,230.2031 Q301.4453,230.3359 301.4453,230.6406 L301.4453,231.9531 L297.4453,231.9531 Q297.1328,231.9531 297,231.8359 Q296.875,231.7188 296.875,231.5234 Q296.875,231.3359 297.0078,231.2188 Q297.1406,231.1016 297.4453,231.1016 L297.5781,231.1016 L297.5781,227.7734 L297.4453,227.7734 Q297.1328,227.7734 297,227.6563 Q296.875,227.5391 296.875,227.3438 Q296.875,227.1563 297,227.0391 Q297.1328,226.9219 297.4453,226.9219 L301.2578,226.9219 L301.2578,228.2188 Q301.2578,228.5234 301.1406,228.6563 Q301.0313,228.7813 300.8359,228.7813 Q300.6484,228.7813 300.5313,228.6563 Q300.4141,228.5234 300.4141,228.2188 L300.4141,227.7734 L298.4297,227.7734 L298.4297,229 L299.1719,229 Q299.1719,228.6719 299.2344,228.5781 Q299.3672,228.375 299.6016,228.375 Q299.7891,228.375 299.9063,228.5078 Q300.0234,228.6328 300.0234,228.9375 L300.0234,229.9219 Q300.0234,230.1953 299.9609,230.2891 Q299.8281,230.4844 299.6016,230.4844 Q299.3672,230.4844 299.2344,230.2813 Q299.1719,230.1875 299.1719,229.8516 L298.4297,229.8516 Z " fill="#000000"/><text fill="#000000" font-family="sans-serif" font-size="6" font-style="italic" lengthAdjust="spacing" textLength="21.5" x="314.25" y="223.292">&#171;entity&#187;</text><text fill="#000000" font-family="sans-serif" font-size="6" font-style="italic" lengthAdjust="spacing" textLength="17.5" x="316.25" y="231.2725">&#171;root&#187;</text><text fill="#000000" font-family="sans-serif" font-size="7" lengthAdjust="spacing" textLength="38" x="306" y="240.332">JobOpening</text><line style="stroke:#181818;stroke-width:0.25;" x1="292" x2="345" y1="244.5889" y2="244.5889"/></g><!--class JobFunction--><g id="elem_JobFunction"><rect codeLine="12" fill="#F5F5DC" height="26.291" id="JobFunction" rx="1.25" ry="1.25" style="stroke:#181818;stroke-width:0.25;" width="54.5" x="11.25" y="303.8174"/><ellipse cx="18.75" cy="314.9629" fill="#FF8B40" rx="5.5" ry="5.5" style="stroke:#181818;stroke-width:0.5;"/><path d="M19.0469,316.5957 L20.2813,313.6582 L20.0859,313.6582 Q19.7813,313.6582 19.6484,313.541 Q19.5156,313.4238 19.5156,313.2285 Q19.5156,313.041 19.6484,312.9238 Q19.7813,312.8066 20.0859,312.8066 L21.2266,312.8066 Q21.5313,312.8066 21.6641,312.9238 Q21.7969,313.041 21.7969,313.2285 Q21.7969,313.4629 21.5938,313.5957 Q21.5,313.6582 21.2031,313.6582 L19.4609,317.8379 L18.6406,317.8379 L16.8984,313.6582 Q16.6016,313.6582 16.5078,313.5957 Q16.3047,313.4629 16.3047,313.2285 Q16.3047,313.041 16.4375,312.9238 Q16.5703,312.8066 16.875,312.8066 L18.0234,312.8066 Q18.3281,312.8066 18.4531,312.9238 Q18.5859,313.041 18.5859,313.2285 Q18.5859,313.4238 18.4531,313.541 Q18.3281,313.6582 18.0234,313.6582 L17.8203,313.6582 L19.0469,316.5957 Z " fill="#000000"/><text fill="#000000" font-family="sans-serif" font-size="6" font-style="italic" lengthAdjust="spacing" textLength="40.5" x="24.75" y="312.792">&#171;value object&#187;</text><text fill="#000000" font-family="sans-serif" font-size="7" lengthAdjust="spacing" textLength="38.5" x="25.75" y="321.8516">JobFunction</text><line style="stroke:#181818;stroke-width:0.25;" x1="11.75" x2="65.25" y1="326.1084" y2="326.1084"/></g><!--class ContractType--><g id="elem_ContractType"><rect codeLine="13" fill="#F5F5DC" height="26.291" id="ContractType" rx="1.25" ry="1.25" style="stroke:#181818;stroke-width:0.25;" width="59" x="71.5" y="377.8174"/><ellipse cx="79" cy="388.9629" fill="#FF8B40" rx="5.5" ry="5.5" style="stroke:#181818;stroke-width:0.5;"/><path d="M79.2969,390.5957 L80.5313,387.6582 L80.3359,387.6582 Q80.0313,387.6582 79.8984,387.541 Q79.7656,387.4238 79.7656,387.2285 Q79.7656,387.041 79.8984,386.9238 Q80.0313,386.8066 80.3359,386.8066 L81.4766,386.8066 Q81.7813,386.8066 81.9141,386.9238 Q82.0469,387.041 82.0469,387.2285 Q82.0469,387.4629 81.8438,387.5957 Q81.75,387.6582 81.4531,387.6582 L79.7109,391.8379 L78.8906,391.8379 L77.1484,387.6582 Q76.8516,387.6582 76.7578,387.5957 Q76.5547,387.4629 76.5547,387.2285 Q76.5547,387.041 76.6875,386.9238 Q76.8203,386.8066 77.125,386.8066 L78.2734,386.8066 Q78.5781,386.8066 78.7031,386.9238 Q78.8359,387.041 78.8359,387.2285 Q78.8359,387.4238 78.7031,387.541 Q78.5781,387.6582 78.2734,387.6582 L78.0703,387.6582 L79.2969,390.5957 Z " fill="#000000"/><text fill="#000000" font-family="sans-serif" font-size="6" font-style="italic" lengthAdjust="spacing" textLength="40.5" x="87.25" y="386.792">&#171;value object&#187;</text><text fill="#000000" font-family="sans-serif" font-size="7" lengthAdjust="spacing" textLength="43" x="86" y="395.8516">ContractType</text><line style="stroke:#181818;stroke-width:0.25;" x1="72" x2="130" y1="400.1084" y2="400.1084"/></g><!--class Mode--><g id="elem_Mode"><rect codeLine="14" fill="#F5F5DC" height="26.291" id="Mode" rx="1.25" ry="1.25" style="stroke:#181818;stroke-width:0.25;" width="54.5" x="143.75" y="303.8174"/><ellipse cx="151.25" cy="314.9629" fill="#FF8B40" rx="5.5" ry="5.5" style="stroke:#181818;stroke-width:0.5;"/><path d="M151.5469,316.5957 L152.7813,313.6582 L152.5859,313.6582 Q152.2813,313.6582 152.1484,313.541 Q152.0156,313.4238 152.0156,313.2285 Q152.0156,313.041 152.1484,312.9238 Q152.2813,312.8066 152.5859,312.8066 L153.7266,312.8066 Q154.0313,312.8066 154.1641,312.9238 Q154.2969,313.041 154.2969,313.2285 Q154.2969,313.4629 154.0938,313.5957 Q154,313.6582 153.7031,313.6582 L151.9609,317.8379 L151.1406,317.8379 L149.3984,313.6582 Q149.1016,313.6582 149.0078,313.5957 Q148.8047,313.4629 148.8047,313.2285 Q148.8047,313.041 148.9375,312.9238 Q149.0703,312.8066 149.375,312.8066 L150.5234,312.8066 Q150.8281,312.8066 150.9531,312.9238 Q151.0859,313.041 151.0859,313.2285 Q151.0859,313.4238 150.9531,313.541 Q150.8281,313.6582 150.5234,313.6582 L150.3203,313.6582 L151.5469,316.5957 Z " fill="#000000"/><text fill="#000000" font-family="sans-serif" font-size="6" font-style="italic" lengthAdjust="spacing" textLength="40.5" x="157.25" y="312.792">&#171;value object&#187;</text><text fill="#000000" font-family="sans-serif" font-size="7" lengthAdjust="spacing" textLength="17.5" x="168.75" y="321.8516">Mode</text><line style="stroke:#181818;stroke-width:0.25;" x1="144.25" x2="197.75" y1="326.1084" y2="326.1084"/></g><!--class NumberVacancy--><g id="elem_NumberVacancy"><rect codeLine="15" fill="#F5F5DC" height="26.291" id="NumberVacancy" rx="1.25" ry="1.25" style="stroke:#181818;stroke-width:0.25;" width="67.5" x="215.75" y="303.8174"/><ellipse cx="223.25" cy="314.9629" fill="#FF8B40" rx="5.5" ry="5.5" style="stroke:#181818;stroke-width:0.5;"/><path d="M223.5469,316.5957 L224.7813,313.6582 L224.5859,313.6582 Q224.2813,313.6582 224.1484,313.541 Q224.0156,313.4238 224.0156,313.2285 Q224.0156,313.041 224.1484,312.9238 Q224.2813,312.8066 224.5859,312.8066 L225.7266,312.8066 Q226.0313,312.8066 226.1641,312.9238 Q226.2969,313.041 226.2969,313.2285 Q226.2969,313.4629 226.0938,313.5957 Q226,313.6582 225.7031,313.6582 L223.9609,317.8379 L223.1406,317.8379 L221.3984,313.6582 Q221.1016,313.6582 221.0078,313.5957 Q220.8047,313.4629 220.8047,313.2285 Q220.8047,313.041 220.9375,312.9238 Q221.0703,312.8066 221.375,312.8066 L222.5234,312.8066 Q222.8281,312.8066 222.9531,312.9238 Q223.0859,313.041 223.0859,313.2285 Q223.0859,313.4238 222.9531,313.541 Q222.8281,313.6582 222.5234,313.6582 L222.3203,313.6582 L223.5469,316.5957 Z " fill="#000000"/><text fill="#000000" font-family="sans-serif" font-size="6" font-style="italic" lengthAdjust="spacing" textLength="40.5" x="235.75" y="312.792">&#171;value object&#187;</text><text fill="#000000" font-family="sans-serif" font-size="7" lengthAdjust="spacing" textLength="51.5" x="230.25" y="321.8516">NumberVacancy</text><line style="stroke:#181818;stroke-width:0.25;" x1="216.25" x2="282.75" y1="326.1084" y2="326.1084"/></g><!--class Description--><g id="elem_Description"><rect codeLine="16" fill="#F5F5DC" height="26.291" id="Description" rx="1.25" ry="1.25" style="stroke:#181818;stroke-width:0.25;" width="54.5" x="258.75" y="377.8174"/><ellipse cx="266.25" cy="388.9629" fill="#FF8B40" rx="5.5" ry="5.5" style="stroke:#181818;stroke-width:0.5;"/><path d="M266.5469,390.5957 L267.7813,387.6582 L267.5859,387.6582 Q267.2813,387.6582 267.1484,387.541 Q267.0156,387.4238 267.0156,387.2285 Q267.0156,387.041 267.1484,386.9238 Q267.2813,386.8066 267.5859,386.8066 L268.7266,386.8066 Q269.0313,386.8066 269.1641,386.9238 Q269.2969,387.041 269.2969,387.2285 Q269.2969,387.4629 269.0938,387.5957 Q269,387.6582 268.7031,387.6582 L266.9609,391.8379 L266.1406,391.8379 L264.3984,387.6582 Q264.1016,387.6582 264.0078,387.5957 Q263.8047,387.4629 263.8047,387.2285 Q263.8047,387.041 263.9375,386.9238 Q264.0703,386.8066 264.375,386.8066 L265.5234,386.8066 Q265.8281,386.8066 265.9531,386.9238 Q266.0859,387.041 266.0859,387.2285 Q266.0859,387.4238 265.9531,387.541 Q265.8281,387.6582 265.5234,387.6582 L265.3203,387.6582 L266.5469,390.5957 Z " fill="#000000"/><text fill="#000000" font-family="sans-serif" font-size="6" font-style="italic" lengthAdjust="spacing" textLength="40.5" x="272.25" y="386.792">&#171;value object&#187;</text><text fill="#000000" font-family="sans-serif" font-size="7" lengthAdjust="spacing" textLength="35.5" x="274.75" y="395.8516">Description</text><line style="stroke:#181818;stroke-width:0.25;" x1="259.25" x2="312.75" y1="400.1084" y2="400.1084"/></g><!--class JobReference--><g id="elem_JobReference"><rect codeLine="17" fill="#F5F5DC" height="34.2715" id="JobReference" rx="1.25" ry="1.25" style="stroke:#181818;stroke-width:0.25;" width="60" x="331" y="373.8174"/><ellipse cx="338.5" cy="388.9531" fill="#FF8B40" rx="5.5" ry="5.5" style="stroke:#181818;stroke-width:0.5;"/><path d="M338.7969,390.5859 L340.0313,387.6484 L339.8359,387.6484 Q339.5313,387.6484 339.3984,387.5313 Q339.2656,387.4141 339.2656,387.2188 Q339.2656,387.0313 339.3984,386.9141 Q339.5313,386.7969 339.8359,386.7969 L340.9766,386.7969 Q341.2813,386.7969 341.4141,386.9141 Q341.5469,387.0313 341.5469,387.2188 Q341.5469,387.4531 341.3438,387.5859 Q341.25,387.6484 340.9531,387.6484 L339.2109,391.8281 L338.3906,391.8281 L336.6484,387.6484 Q336.3516,387.6484 336.2578,387.5859 Q336.0547,387.4531 336.0547,387.2188 Q336.0547,387.0313 336.1875,386.9141 Q336.3203,386.7969 336.625,386.7969 L337.7734,386.7969 Q338.0781,386.7969 338.2031,386.9141 Q338.3359,387.0313 338.3359,387.2188 Q338.3359,387.4141 338.2031,387.5313 Q338.0781,387.6484 337.7734,387.6484 L337.5703,387.6484 L338.7969,390.5859 Z " fill="#000000"/><text fill="#000000" font-family="sans-serif" font-size="6" font-style="italic" lengthAdjust="spacing" textLength="40.5" x="347.25" y="382.792">&#171;value object&#187;</text><text fill="#000000" font-family="sans-serif" font-size="6" font-style="italic" lengthAdjust="spacing" textLength="30.5" x="352.25" y="390.7725">&#171;identifier&#187;</text><text fill="#000000" font-family="sans-serif" font-size="7" lengthAdjust="spacing" textLength="44" x="345.5" y="399.832">JobReference</text><line style="stroke:#181818;stroke-width:0.25;" x1="331.5" x2="390.5" y1="404.0889" y2="404.0889"/></g><!--class Rank--><g id="elem_Rank"><rect codeLine="18" fill="#F5F5DC" height="26.291" id="Rank" rx="1.25" ry="1.25" style="stroke:#181818;stroke-width:0.25;" width="54.5" x="408.75" y="377.8174"/><ellipse cx="416.25" cy="388.9629" fill="#FF8B40" rx="5.5" ry="5.5" style="stroke:#181818;stroke-width:0.5;"/><path d="M416.5469,390.5957 L417.7813,387.6582 L417.5859,387.6582 Q417.2813,387.6582 417.1484,387.541 Q417.0156,387.4238 417.0156,387.2285 Q417.0156,387.041 417.1484,386.9238 Q417.2813,386.8066 417.5859,386.8066 L418.7266,386.8066 Q419.0313,386.8066 419.1641,386.9238 Q419.2969,387.041 419.2969,387.2285 Q419.2969,387.4629 419.0938,387.5957 Q419,387.6582 418.7031,387.6582 L416.9609,391.8379 L416.1406,391.8379 L414.3984,387.6582 Q414.1016,387.6582 414.0078,387.5957 Q413.8047,387.4629 413.8047,387.2285 Q413.8047,387.041 413.9375,386.9238 Q414.0703,386.8066 414.375,386.8066 L415.5234,386.8066 Q415.8281,386.8066 415.9531,386.9238 Q416.0859,387.041 416.0859,387.2285 Q416.0859,387.4238 415.9531,387.541 Q415.8281,387.6582 415.5234,387.6582 L415.3203,387.6582 L416.5469,390.5957 Z " fill="#000000"/><text fill="#000000" font-family="sans-serif" font-size="6" font-style="italic" lengthAdjust="spacing" textLength="40.5" x="422.25" y="386.792">&#171;value object&#187;</text><text fill="#000000" font-family="sans-serif" font-size="7" lengthAdjust="spacing" textLength="16.5" x="434.25" y="395.8516">Rank</text><line style="stroke:#181818;stroke-width:0.25;" x1="409.25" x2="462.75" y1="400.1084" y2="400.1084"/></g><!--class Operator--><g id="elem_Operator"><rect codeLine="22" fill="#F5F5DC" height="34.2715" id="Operator" rx="1.25" ry="1.25" style="stroke:#181818;stroke-width:0.25;" width="44.5" x="672.75" y="41.3174"/><ellipse cx="680.25" cy="56.4531" fill="#ADD1B2" rx="5.5" ry="5.5" style="stroke:#181818;stroke-width:0.5;"/><path d="M679.6797,56.8516 L679.6797,58.1016 L681.8438,58.1016 L681.8438,57.6406 Q681.8438,57.3359 681.9609,57.2031 Q682.0859,57.0703 682.2734,57.0703 Q682.4609,57.0703 682.5781,57.2031 Q682.6953,57.3359 682.6953,57.6406 L682.6953,58.9531 L678.6953,58.9531 Q678.3828,58.9531 678.25,58.8359 Q678.125,58.7188 678.125,58.5234 Q678.125,58.3359 678.2578,58.2188 Q678.3906,58.1016 678.6953,58.1016 L678.8281,58.1016 L678.8281,54.7734 L678.6953,54.7734 Q678.3828,54.7734 678.25,54.6563 Q678.125,54.5391 678.125,54.3438 Q678.125,54.1563 678.25,54.0391 Q678.3828,53.9219 678.6953,53.9219 L682.5078,53.9219 L682.5078,55.2188 Q682.5078,55.5234 682.3906,55.6563 Q682.2813,55.7813 682.0859,55.7813 Q681.8984,55.7813 681.7813,55.6563 Q681.6641,55.5234 681.6641,55.2188 L681.6641,54.7734 L679.6797,54.7734 L679.6797,56 L680.4219,56 Q680.4219,55.6719 680.4844,55.5781 Q680.6172,55.375 680.8516,55.375 Q681.0391,55.375 681.1563,55.5078 Q681.2734,55.6328 681.2734,55.9375 L681.2734,56.9219 Q681.2734,57.1953 681.2109,57.2891 Q681.0781,57.4844 680.8516,57.4844 Q680.6172,57.4844 680.4844,57.2813 Q680.4219,57.1875 680.4219,56.8516 L679.6797,56.8516 Z " fill="#000000"/><text fill="#000000" font-family="sans-serif" font-size="6" font-style="italic" lengthAdjust="spacing" textLength="21.5" x="690.75" y="50.292">&#171;entity&#187;</text><text fill="#000000" font-family="sans-serif" font-size="6" font-style="italic" lengthAdjust="spacing" textLength="17.5" x="692.75" y="58.2725">&#171;root&#187;</text><text fill="#000000" font-family="sans-serif" font-size="7" lengthAdjust="spacing" textLength="28.5" x="687.25" y="67.332">Operator</text><line style="stroke:#181818;stroke-width:0.25;" x1="673.25" x2="716.75" y1="71.5889" y2="71.5889"/></g><!--class Candidate--><g id="elem_Candidate"><rect codeLine="26" fill="#F5F5DC" height="34.2715" id="Candidate" rx="1.25" ry="1.25" style="stroke:#181818;stroke-width:0.25;" width="48.5" x="641.75" y="127.8174"/><ellipse cx="649.25" cy="142.9531" fill="#ADD1B2" rx="5.5" ry="5.5" style="stroke:#181818;stroke-width:0.5;"/><path d="M648.6797,143.3516 L648.6797,144.6016 L650.8438,144.6016 L650.8438,144.1406 Q650.8438,143.8359 650.9609,143.7031 Q651.0859,143.5703 651.2734,143.5703 Q651.4609,143.5703 651.5781,143.7031 Q651.6953,143.8359 651.6953,144.1406 L651.6953,145.4531 L647.6953,145.4531 Q647.3828,145.4531 647.25,145.3359 Q647.125,145.2188 647.125,145.0234 Q647.125,144.8359 647.2578,144.7188 Q647.3906,144.6016 647.6953,144.6016 L647.8281,144.6016 L647.8281,141.2734 L647.6953,141.2734 Q647.3828,141.2734 647.25,141.1563 Q647.125,141.0391 647.125,140.8438 Q647.125,140.6563 647.25,140.5391 Q647.3828,140.4219 647.6953,140.4219 L651.5078,140.4219 L651.5078,141.7188 Q651.5078,142.0234 651.3906,142.1563 Q651.2813,142.2813 651.0859,142.2813 Q650.8984,142.2813 650.7813,142.1563 Q650.6641,142.0234 650.6641,141.7188 L650.6641,141.2734 L648.6797,141.2734 L648.6797,142.5 L649.4219,142.5 Q649.4219,142.1719 649.4844,142.0781 Q649.6172,141.875 649.8516,141.875 Q650.0391,141.875 650.1563,142.0078 Q650.2734,142.1328 650.2734,142.4375 L650.2734,143.4219 Q650.2734,143.6953 650.2109,143.7891 Q650.0781,143.9844 649.8516,143.9844 Q649.6172,143.9844 649.4844,143.7813 Q649.4219,143.6875 649.4219,143.3516 L648.6797,143.3516 Z " fill="#000000"/><text fill="#000000" font-family="sans-serif" font-size="6" font-style="italic" lengthAdjust="spacing" textLength="21.5" x="661.75" y="136.792">&#171;entity&#187;</text><text fill="#000000" font-family="sans-serif" font-size="6" font-style="italic" lengthAdjust="spacing" textLength="17.5" x="663.75" y="144.7725">&#171;root&#187;</text><text fill="#000000" font-family="sans-serif" font-size="7" lengthAdjust="spacing" textLength="32.5" x="656.25" y="153.832">Candidate</text><line style="stroke:#181818;stroke-width:0.25;" x1="642.25" x2="689.75" y1="158.0889" y2="158.0889"/></g><!--class Application--><g id="elem_Application"><rect codeLine="30" fill="#F5F5DC" height="34.2715" id="Application" rx="1.25" ry="1.25" style="stroke:#181818;stroke-width:0.25;" width="50.5" x="691.75" y="299.8174"/><ellipse cx="699.25" cy="314.9531" fill="#ADD1B2" rx="5.5" ry="5.5" style="stroke:#181818;stroke-width:0.5;"/><path d="M698.6797,315.3516 L698.6797,316.6016 L700.8438,316.6016 L700.8438,316.1406 Q700.8438,315.8359 700.9609,315.7031 Q701.0859,315.5703 701.2734,315.5703 Q701.4609,315.5703 701.5781,315.7031 Q701.6953,315.8359 701.6953,316.1406 L701.6953,317.4531 L697.6953,317.4531 Q697.3828,317.4531 697.25,317.3359 Q697.125,317.2188 697.125,317.0234 Q697.125,316.8359 697.2578,316.7188 Q697.3906,316.6016 697.6953,316.6016 L697.8281,316.6016 L697.8281,313.2734 L697.6953,313.2734 Q697.3828,313.2734 697.25,313.1563 Q697.125,313.0391 697.125,312.8438 Q697.125,312.6563 697.25,312.5391 Q697.3828,312.4219 697.6953,312.4219 L701.5078,312.4219 L701.5078,313.7188 Q701.5078,314.0234 701.3906,314.1563 Q701.2813,314.2813 701.0859,314.2813 Q700.8984,314.2813 700.7813,314.1563 Q700.6641,314.0234 700.6641,313.7188 L700.6641,313.2734 L698.6797,313.2734 L698.6797,314.5 L699.4219,314.5 Q699.4219,314.1719 699.4844,314.0781 Q699.6172,313.875 699.8516,313.875 Q700.0391,313.875 700.1563,314.0078 Q700.2734,314.1328 700.2734,314.4375 L700.2734,315.4219 Q700.2734,315.6953 700.2109,315.7891 Q700.0781,315.9844 699.8516,315.9844 Q699.6172,315.9844 699.4844,315.7813 Q699.4219,315.6875 699.4219,315.3516 L698.6797,315.3516 Z " fill="#000000"/><text fill="#000000" font-family="sans-serif" font-size="6" font-style="italic" lengthAdjust="spacing" textLength="21.5" x="712.75" y="308.792">&#171;entity&#187;</text><text fill="#000000" font-family="sans-serif" font-size="6" font-style="italic" lengthAdjust="spacing" textLength="17.5" x="714.75" y="316.7725">&#171;root&#187;</text><text fill="#000000" font-family="sans-serif" font-size="7" lengthAdjust="spacing" textLength="34.5" x="706.25" y="325.832">Application</text><line style="stroke:#181818;stroke-width:0.25;" x1="692.25" x2="741.75" y1="330.0889" y2="330.0889"/></g><!--class Email--><g id="elem_Email"><rect codeLine="31" fill="#F5F5DC" height="26.291" id="Email" rx="1.25" ry="1.25" style="stroke:#181818;stroke-width:0.25;" width="54.5" x="491.75" y="439.8174"/><ellipse cx="499.25" cy="450.9629" fill="#FF8B40" rx="5.5" ry="5.5" style="stroke:#181818;stroke-width:0.5;"/><path d="M499.5469,452.5957 L500.7813,449.6582 L500.5859,449.6582 Q500.2813,449.6582 500.1484,449.541 Q500.0156,449.4238 500.0156,449.2285 Q500.0156,449.041 500.1484,448.9238 Q500.2813,448.8066 500.5859,448.8066 L501.7266,448.8066 Q502.0313,448.8066 502.1641,448.9238 Q502.2969,449.041 502.2969,449.2285 Q502.2969,449.4629 502.0938,449.5957 Q502,449.6582 501.7031,449.6582 L499.9609,453.8379 L499.1406,453.8379 L497.3984,449.6582 Q497.1016,449.6582 497.0078,449.5957 Q496.8047,449.4629 496.8047,449.2285 Q496.8047,449.041 496.9375,448.9238 Q497.0703,448.8066 497.375,448.8066 L498.5234,448.8066 Q498.8281,448.8066 498.9531,448.9238 Q499.0859,449.041 499.0859,449.2285 Q499.0859,449.4238 498.9531,449.541 Q498.8281,449.6582 498.5234,449.6582 L498.3203,449.6582 L499.5469,452.5957 Z " fill="#000000"/><text fill="#000000" font-family="sans-serif" font-size="6" font-style="italic" lengthAdjust="spacing" textLength="40.5" x="505.25" y="448.792">&#171;value object&#187;</text><text fill="#000000" font-family="sans-serif" font-size="7" lengthAdjust="spacing" textLength="17" x="517" y="457.8516">Email</text><line style="stroke:#181818;stroke-width:0.25;" x1="492.25" x2="545.75" y1="462.1084" y2="462.1084"/></g><!--class ApplicationStatus--><g id="elem_ApplicationStatus"><rect codeLine="32" fill="#F5F5DC" height="26.291" id="ApplicationStatus" rx="1.25" ry="1.25" style="stroke:#181818;stroke-width:0.25;" width="70.5" x="551.75" y="377.8174"/><ellipse cx="559.25" cy="388.9629" fill="#FF8B40" rx="5.5" ry="5.5" style="stroke:#181818;stroke-width:0.5;"/><path d="M559.5469,390.5957 L560.7813,387.6582 L560.5859,387.6582 Q560.2813,387.6582 560.1484,387.541 Q560.0156,387.4238 560.0156,387.2285 Q560.0156,387.041 560.1484,386.9238 Q560.2813,386.8066 560.5859,386.8066 L561.7266,386.8066 Q562.0313,386.8066 562.1641,386.9238 Q562.2969,387.041 562.2969,387.2285 Q562.2969,387.4629 562.0938,387.5957 Q562,387.6582 561.7031,387.6582 L559.9609,391.8379 L559.1406,391.8379 L557.3984,387.6582 Q557.1016,387.6582 557.0078,387.5957 Q556.8047,387.4629 556.8047,387.2285 Q556.8047,387.041 556.9375,386.9238 Q557.0703,386.8066 557.375,386.8066 L558.5234,386.8066 Q558.8281,386.8066 558.9531,386.9238 Q559.0859,387.041 559.0859,387.2285 Q559.0859,387.4238 558.9531,387.541 Q558.8281,387.6582 558.5234,387.6582 L558.3203,387.6582 L559.5469,390.5957 Z " fill="#000000"/><text fill="#000000" font-family="sans-serif" font-size="6" font-style="italic" lengthAdjust="spacing" textLength="40.5" x="573.25" y="386.792">&#171;value object&#187;</text><text fill="#000000" font-family="sans-serif" font-size="7" lengthAdjust="spacing" textLength="54.5" x="566.25" y="395.8516">ApplicationStatus</text><line style="stroke:#181818;stroke-width:0.25;" x1="552.25" x2="621.75" y1="400.1084" y2="400.1084"/></g><!--class CandidateName--><g id="elem_CandidateName"><rect codeLine="33" fill="#F5F5DC" height="26.291" id="CandidateName" rx="1.25" ry="1.25" style="stroke:#181818;stroke-width:0.25;" width="66.5" x="639.75" y="377.8174"/><ellipse cx="647.25" cy="388.9629" fill="#FF8B40" rx="5.5" ry="5.5" style="stroke:#181818;stroke-width:0.5;"/><path d="M647.5469,390.5957 L648.7813,387.6582 L648.5859,387.6582 Q648.2813,387.6582 648.1484,387.541 Q648.0156,387.4238 648.0156,387.2285 Q648.0156,387.041 648.1484,386.9238 Q648.2813,386.8066 648.5859,386.8066 L649.7266,386.8066 Q650.0313,386.8066 650.1641,386.9238 Q650.2969,387.041 650.2969,387.2285 Q650.2969,387.4629 650.0938,387.5957 Q650,387.6582 649.7031,387.6582 L647.9609,391.8379 L647.1406,391.8379 L645.3984,387.6582 Q645.1016,387.6582 645.0078,387.5957 Q644.8047,387.4629 644.8047,387.2285 Q644.8047,387.041 644.9375,386.9238 Q645.0703,386.8066 645.375,386.8066 L646.5234,386.8066 Q646.8281,386.8066 646.9531,386.9238 Q647.0859,387.041 647.0859,387.2285 Q647.0859,387.4238 646.9531,387.541 Q646.8281,387.6582 646.5234,387.6582 L646.3203,387.6582 L647.5469,390.5957 Z " fill="#000000"/><text fill="#000000" font-family="sans-serif" font-size="6" font-style="italic" lengthAdjust="spacing" textLength="40.5" x="659.25" y="386.792">&#171;value object&#187;</text><text fill="#000000" font-family="sans-serif" font-size="7" lengthAdjust="spacing" textLength="50.5" x="654.25" y="395.8516">CandidateName</text><line style="stroke:#181818;stroke-width:0.25;" x1="640.25" x2="705.75" y1="400.1084" y2="400.1084"/></g><!--class PhoneNumber--><g id="elem_PhoneNumber"><rect codeLine="34" fill="#F5F5DC" height="26.291" id="PhoneNumber" rx="1.25" ry="1.25" style="stroke:#181818;stroke-width:0.25;" width="61" x="703" y="439.8174"/><ellipse cx="710.5" cy="450.9629" fill="#FF8B40" rx="5.5" ry="5.5" style="stroke:#181818;stroke-width:0.5;"/><path d="M710.7969,452.5957 L712.0313,449.6582 L711.8359,449.6582 Q711.5313,449.6582 711.3984,449.541 Q711.2656,449.4238 711.2656,449.2285 Q711.2656,449.041 711.3984,448.9238 Q711.5313,448.8066 711.8359,448.8066 L712.9766,448.8066 Q713.2813,448.8066 713.4141,448.9238 Q713.5469,449.041 713.5469,449.2285 Q713.5469,449.4629 713.3438,449.5957 Q713.25,449.6582 712.9531,449.6582 L711.2109,453.8379 L710.3906,453.8379 L708.6484,449.6582 Q708.3516,449.6582 708.2578,449.5957 Q708.0547,449.4629 708.0547,449.2285 Q708.0547,449.041 708.1875,448.9238 Q708.3203,448.8066 708.625,448.8066 L709.7734,448.8066 Q710.0781,448.8066 710.2031,448.9238 Q710.3359,449.041 710.3359,449.2285 Q710.3359,449.4238 710.2031,449.541 Q710.0781,449.6582 709.7734,449.6582 L709.5703,449.6582 L710.7969,452.5957 Z " fill="#000000"/><text fill="#000000" font-family="sans-serif" font-size="6" font-style="italic" lengthAdjust="spacing" textLength="40.5" x="719.75" y="448.792">&#171;value object&#187;</text><text fill="#000000" font-family="sans-serif" font-size="7" lengthAdjust="spacing" textLength="45" x="717.5" y="457.8516">PhoneNumber</text><line style="stroke:#181818;stroke-width:0.25;" x1="703.5" x2="763.5" y1="462.1084" y2="462.1084"/></g><!--class Interview--><g id="elem_Interview"><rect codeLine="35" fill="#F5F5DC" height="26.291" id="Interview" rx="1.25" ry="1.25" style="stroke:#181818;stroke-width:0.25;" width="54.5" x="781.75" y="439.8174"/><ellipse cx="789.25" cy="450.9629" fill="#FF8B40" rx="5.5" ry="5.5" style="stroke:#181818;stroke-width:0.5;"/><path d="M789.5469,452.5957 L790.7813,449.6582 L790.5859,449.6582 Q790.2813,449.6582 790.1484,449.541 Q790.0156,449.4238 790.0156,449.2285 Q790.0156,449.041 790.1484,448.9238 Q790.2813,448.8066 790.5859,448.8066 L791.7266,448.8066 Q792.0313,448.8066 792.1641,448.9238 Q792.2969,449.041 792.2969,449.2285 Q792.2969,449.4629 792.0938,449.5957 Q792,449.6582 791.7031,449.6582 L789.9609,453.8379 L789.1406,453.8379 L787.3984,449.6582 Q787.1016,449.6582 787.0078,449.5957 Q786.8047,449.4629 786.8047,449.2285 Q786.8047,449.041 786.9375,448.9238 Q787.0703,448.8066 787.375,448.8066 L788.5234,448.8066 Q788.8281,448.8066 788.9531,448.9238 Q789.0859,449.041 789.0859,449.2285 Q789.0859,449.4238 788.9531,449.541 Q788.8281,449.6582 788.5234,449.6582 L788.3203,449.6582 L789.5469,452.5957 Z " fill="#000000"/><text fill="#000000" font-family="sans-serif" font-size="6" font-style="italic" lengthAdjust="spacing" textLength="40.5" x="795.25" y="448.792">&#171;value object&#187;</text><text fill="#000000" font-family="sans-serif" font-size="7" lengthAdjust="spacing" textLength="27.5" x="801.75" y="457.8516">Interview</text><line style="stroke:#181818;stroke-width:0.25;" x1="782.25" x2="835.75" y1="462.1084" y2="462.1084"/></g><!--class InterviewAnswer--><g id="elem_InterviewAnswer"><rect codeLine="42" fill="#F5F5DC" height="26.291" id="InterviewAnswer" rx="1.25" ry="1.25" style="stroke:#181818;stroke-width:0.25;" width="66.5" x="836.25" y="562.8174"/><ellipse cx="843.75" cy="573.9629" fill="#FF8B40" rx="5.5" ry="5.5" style="stroke:#181818;stroke-width:0.5;"/><path d="M844.0469,575.5957 L845.2813,572.6582 L845.0859,572.6582 Q844.7813,572.6582 844.6484,572.541 Q844.5156,572.4238 844.5156,572.2285 Q844.5156,572.041 844.6484,571.9238 Q844.7813,571.8066 845.0859,571.8066 L846.2266,571.8066 Q846.5313,571.8066 846.6641,571.9238 Q846.7969,572.041 846.7969,572.2285 Q846.7969,572.4629 846.5938,572.5957 Q846.5,572.6582 846.2031,572.6582 L844.4609,576.8379 L843.6406,576.8379 L841.8984,572.6582 Q841.6016,572.6582 841.5078,572.5957 Q841.3047,572.4629 841.3047,572.2285 Q841.3047,572.041 841.4375,571.9238 Q841.5703,571.8066 841.875,571.8066 L843.0234,571.8066 Q843.3281,571.8066 843.4531,571.9238 Q843.5859,572.041 843.5859,572.2285 Q843.5859,572.4238 843.4531,572.541 Q843.3281,572.6582 843.0234,572.6582 L842.8203,572.6582 L844.0469,575.5957 Z " fill="#000000"/><text fill="#000000" font-family="sans-serif" font-size="6" font-style="italic" lengthAdjust="spacing" textLength="40.5" x="855.75" y="571.792">&#171;value object&#187;</text><text fill="#000000" font-family="sans-serif" font-size="7" lengthAdjust="spacing" textLength="50.5" x="850.75" y="580.8516">InterviewAnswer</text><line style="stroke:#181818;stroke-width:0.25;" x1="836.75" x2="902.25" y1="585.1084" y2="585.1084"/></g><!--class InterviewResult--><g id="elem_InterviewResult"><rect codeLine="37" fill="#F5F5DC" height="26.291" id="InterviewResult" rx="1.25" ry="1.25" style="stroke:#181818;stroke-width:0.25;" width="63.5" x="647.25" y="562.8174"/><ellipse cx="654.75" cy="573.9629" fill="#FF8B40" rx="5.5" ry="5.5" style="stroke:#181818;stroke-width:0.5;"/><path d="M655.0469,575.5957 L656.2813,572.6582 L656.0859,572.6582 Q655.7813,572.6582 655.6484,572.541 Q655.5156,572.4238 655.5156,572.2285 Q655.5156,572.041 655.6484,571.9238 Q655.7813,571.8066 656.0859,571.8066 L657.2266,571.8066 Q657.5313,571.8066 657.6641,571.9238 Q657.7969,572.041 657.7969,572.2285 Q657.7969,572.4629 657.5938,572.5957 Q657.5,572.6582 657.2031,572.6582 L655.4609,576.8379 L654.6406,576.8379 L652.8984,572.6582 Q652.6016,572.6582 652.5078,572.5957 Q652.3047,572.4629 652.3047,572.2285 Q652.3047,572.041 652.4375,571.9238 Q652.5703,571.8066 652.875,571.8066 L654.0234,571.8066 Q654.3281,571.8066 654.4531,571.9238 Q654.5859,572.041 654.5859,572.2285 Q654.5859,572.4238 654.4531,572.541 Q654.3281,572.6582 654.0234,572.6582 L653.8203,572.6582 L655.0469,575.5957 Z " fill="#000000"/><text fill="#000000" font-family="sans-serif" font-size="6" font-style="italic" lengthAdjust="spacing" textLength="40.5" x="665.25" y="571.792">&#171;value object&#187;</text><text fill="#000000" font-family="sans-serif" font-size="7" lengthAdjust="spacing" textLength="47.5" x="661.75" y="580.8516">InterviewResult</text><line style="stroke:#181818;stroke-width:0.25;" x1="647.75" x2="710.25" y1="585.1084" y2="585.1084"/></g><!--class Justification--><g id="elem_Justification"><rect codeLine="38" fill="#F5F5DC" height="26.291" id="Justification" rx="1.25" ry="1.25" style="stroke:#181818;stroke-width:0.25;" width="54.5" x="651.75" y="628.8174"/><ellipse cx="659.25" cy="639.9629" fill="#FF8B40" rx="5.5" ry="5.5" style="stroke:#181818;stroke-width:0.5;"/><path d="M659.5469,641.5957 L660.7813,638.6582 L660.5859,638.6582 Q660.2813,638.6582 660.1484,638.541 Q660.0156,638.4238 660.0156,638.2285 Q660.0156,638.041 660.1484,637.9238 Q660.2813,637.8066 660.5859,637.8066 L661.7266,637.8066 Q662.0313,637.8066 662.1641,637.9238 Q662.2969,638.041 662.2969,638.2285 Q662.2969,638.4629 662.0938,638.5957 Q662,638.6582 661.7031,638.6582 L659.9609,642.8379 L659.1406,642.8379 L657.3984,638.6582 Q657.1016,638.6582 657.0078,638.5957 Q656.8047,638.4629 656.8047,638.2285 Q656.8047,638.041 656.9375,637.9238 Q657.0703,637.8066 657.375,637.8066 L658.5234,637.8066 Q658.8281,637.8066 658.9531,637.9238 Q659.0859,638.041 659.0859,638.2285 Q659.0859,638.4238 658.9531,638.541 Q658.8281,638.6582 658.5234,638.6582 L658.3203,638.6582 L659.5469,641.5957 Z " fill="#000000"/><text fill="#000000" font-family="sans-serif" font-size="6" font-style="italic" lengthAdjust="spacing" textLength="40.5" x="665.25" y="637.792">&#171;value object&#187;</text><text fill="#000000" font-family="sans-serif" font-size="7" lengthAdjust="spacing" textLength="36.5" x="667.25" y="646.8516">Justification</text><line style="stroke:#181818;stroke-width:0.25;" x1="652.25" x2="705.75" y1="651.1084" y2="651.1084"/></g><!--class InterviewGrade--><g id="elem_InterviewGrade"><rect codeLine="39" fill="#F5F5DC" height="26.291" id="InterviewGrade" rx="1.25" ry="1.25" style="stroke:#181818;stroke-width:0.25;" width="63.5" x="755.25" y="562.8174"/><ellipse cx="762.75" cy="573.9629" fill="#FF8B40" rx="5.5" ry="5.5" style="stroke:#181818;stroke-width:0.5;"/><path d="M763.0469,575.5957 L764.2813,572.6582 L764.0859,572.6582 Q763.7813,572.6582 763.6484,572.541 Q763.5156,572.4238 763.5156,572.2285 Q763.5156,572.041 763.6484,571.9238 Q763.7813,571.8066 764.0859,571.8066 L765.2266,571.8066 Q765.5313,571.8066 765.6641,571.9238 Q765.7969,572.041 765.7969,572.2285 Q765.7969,572.4629 765.5938,572.5957 Q765.5,572.6582 765.2031,572.6582 L763.4609,576.8379 L762.6406,576.8379 L760.8984,572.6582 Q760.6016,572.6582 760.5078,572.5957 Q760.3047,572.4629 760.3047,572.2285 Q760.3047,572.041 760.4375,571.9238 Q760.5703,571.8066 760.875,571.8066 L762.0234,571.8066 Q762.3281,571.8066 762.4531,571.9238 Q762.5859,572.041 762.5859,572.2285 Q762.5859,572.4238 762.4531,572.541 Q762.3281,572.6582 762.0234,572.6582 L761.8203,572.6582 L763.0469,575.5957 Z " fill="#000000"/><text fill="#000000" font-family="sans-serif" font-size="6" font-style="italic" lengthAdjust="spacing" textLength="40.5" x="773.25" y="571.792">&#171;value object&#187;</text><text fill="#000000" font-family="sans-serif" font-size="7" lengthAdjust="spacing" textLength="47.5" x="769.75" y="580.8516">InterviewGrade</text><line style="stroke:#181818;stroke-width:0.25;" x1="755.75" x2="818.25" y1="585.1084" y2="585.1084"/></g><!--class RequirementAnswer--><g id="elem_RequirementAnswer"><rect codeLine="40" fill="#F5F5DC" height="26.291" id="RequirementAnswer" rx="1.25" ry="1.25" style="stroke:#181818;stroke-width:0.25;" width="79.5" x="844.25" y="377.8174"/><ellipse cx="851.75" cy="388.9629" fill="#FF8B40" rx="5.5" ry="5.5" style="stroke:#181818;stroke-width:0.5;"/><path d="M852.0469,390.5957 L853.2813,387.6582 L853.0859,387.6582 Q852.7813,387.6582 852.6484,387.541 Q852.5156,387.4238 852.5156,387.2285 Q852.5156,387.041 852.6484,386.9238 Q852.7813,386.8066 853.0859,386.8066 L854.2266,386.8066 Q854.5313,386.8066 854.6641,386.9238 Q854.7969,387.041 854.7969,387.2285 Q854.7969,387.4629 854.5938,387.5957 Q854.5,387.6582 854.2031,387.6582 L852.4609,391.8379 L851.6406,391.8379 L849.8984,387.6582 Q849.6016,387.6582 849.5078,387.5957 Q849.3047,387.4629 849.3047,387.2285 Q849.3047,387.041 849.4375,386.9238 Q849.5703,386.8066 849.875,386.8066 L851.0234,386.8066 Q851.3281,386.8066 851.4531,386.9238 Q851.5859,387.041 851.5859,387.2285 Q851.5859,387.4238 851.4531,387.541 Q851.3281,387.6582 851.0234,387.6582 L850.8203,387.6582 L852.0469,390.5957 Z " fill="#000000"/><text fill="#000000" font-family="sans-serif" font-size="6" font-style="italic" lengthAdjust="spacing" textLength="40.5" x="870.25" y="386.792">&#171;value object&#187;</text><text fill="#000000" font-family="sans-serif" font-size="7" lengthAdjust="spacing" textLength="63.5" x="858.75" y="395.8516">RequirementAnswer</text><line style="stroke:#181818;stroke-width:0.25;" x1="844.75" x2="923.25" y1="400.1084" y2="400.1084"/></g><!--class RequirementResult--><g id="elem_RequirementResult"><rect codeLine="41" fill="#F5F5DC" height="26.291" id="RequirementResult" rx="1.25" ry="1.25" style="stroke:#181818;stroke-width:0.25;" width="76.5" x="901.75" y="439.8174"/><ellipse cx="909.25" cy="450.9629" fill="#FF8B40" rx="5.5" ry="5.5" style="stroke:#181818;stroke-width:0.5;"/><path d="M909.5469,452.5957 L910.7813,449.6582 L910.5859,449.6582 Q910.2813,449.6582 910.1484,449.541 Q910.0156,449.4238 910.0156,449.2285 Q910.0156,449.041 910.1484,448.9238 Q910.2813,448.8066 910.5859,448.8066 L911.7266,448.8066 Q912.0313,448.8066 912.1641,448.9238 Q912.2969,449.041 912.2969,449.2285 Q912.2969,449.4629 912.0938,449.5957 Q912,449.6582 911.7031,449.6582 L909.9609,453.8379 L909.1406,453.8379 L907.3984,449.6582 Q907.1016,449.6582 907.0078,449.5957 Q906.8047,449.4629 906.8047,449.2285 Q906.8047,449.041 906.9375,448.9238 Q907.0703,448.8066 907.375,448.8066 L908.5234,448.8066 Q908.8281,448.8066 908.9531,448.9238 Q909.0859,449.041 909.0859,449.2285 Q909.0859,449.4238 908.9531,449.541 Q908.8281,449.6582 908.5234,449.6582 L908.3203,449.6582 L909.5469,452.5957 Z " fill="#000000"/><text fill="#000000" font-family="sans-serif" font-size="6" font-style="italic" lengthAdjust="spacing" textLength="40.5" x="926.25" y="448.792">&#171;value object&#187;</text><text fill="#000000" font-family="sans-serif" font-size="7" lengthAdjust="spacing" textLength="60.5" x="916.25" y="457.8516">RequirementResult</text><line style="stroke:#181818;stroke-width:0.25;" x1="902.25" x2="977.75" y1="462.1084" y2="462.1084"/></g><!--class Schedule--><g id="elem_Schedule"><rect codeLine="43" fill="#F5F5DC" height="26.291" id="Schedule" rx="1.25" ry="1.25" style="stroke:#181818;stroke-width:0.25;" width="54.5" x="862.75" y="505.8174"/><ellipse cx="870.25" cy="516.9629" fill="#FF8B40" rx="5.5" ry="5.5" style="stroke:#181818;stroke-width:0.5;"/><path d="M870.5469,518.5957 L871.7813,515.6582 L871.5859,515.6582 Q871.2813,515.6582 871.1484,515.541 Q871.0156,515.4238 871.0156,515.2285 Q871.0156,515.041 871.1484,514.9238 Q871.2813,514.8066 871.5859,514.8066 L872.7266,514.8066 Q873.0313,514.8066 873.1641,514.9238 Q873.2969,515.041 873.2969,515.2285 Q873.2969,515.4629 873.0938,515.5957 Q873,515.6582 872.7031,515.6582 L870.9609,519.8379 L870.1406,519.8379 L868.3984,515.6582 Q868.1016,515.6582 868.0078,515.5957 Q867.8047,515.4629 867.8047,515.2285 Q867.8047,515.041 867.9375,514.9238 Q868.0703,514.8066 868.375,514.8066 L869.5234,514.8066 Q869.8281,514.8066 869.9531,514.9238 Q870.0859,515.041 870.0859,515.2285 Q870.0859,515.4238 869.9531,515.541 Q869.8281,515.6582 869.5234,515.6582 L869.3203,515.6582 L870.5469,518.5957 Z " fill="#000000"/><text fill="#000000" font-family="sans-serif" font-size="6" font-style="italic" lengthAdjust="spacing" textLength="40.5" x="876.25" y="514.792">&#171;value object&#187;</text><text fill="#000000" font-family="sans-serif" font-size="7" lengthAdjust="spacing" textLength="29.5" x="881.75" y="523.8516">Schedule</text><line style="stroke:#181818;stroke-width:0.25;" x1="863.25" x2="916.75" y1="528.1084" y2="528.1084"/></g><!--class File--><g id="elem_File"><rect codeLine="44" fill="#F5F5DC" height="26.291" id="File" rx="1.25" ry="1.25" style="stroke:#181818;stroke-width:0.25;" width="54.5" x="995.75" y="439.8174"/><ellipse cx="1003.25" cy="450.9629" fill="#FF8B40" rx="5.5" ry="5.5" style="stroke:#181818;stroke-width:0.5;"/><path d="M1003.5469,452.5957 L1004.7813,449.6582 L1004.5859,449.6582 Q1004.2813,449.6582 1004.1484,449.541 Q1004.0156,449.4238 1004.0156,449.2285 Q1004.0156,449.041 1004.1484,448.9238 Q1004.2813,448.8066 1004.5859,448.8066 L1005.7266,448.8066 Q1006.0313,448.8066 1006.1641,448.9238 Q1006.2969,449.041 1006.2969,449.2285 Q1006.2969,449.4629 1006.0938,449.5957 Q1006,449.6582 1005.7031,449.6582 L1003.9609,453.8379 L1003.1406,453.8379 L1001.3984,449.6582 Q1001.1016,449.6582 1001.0078,449.5957 Q1000.8047,449.4629 1000.8047,449.2285 Q1000.8047,449.041 1000.9375,448.9238 Q1001.0703,448.8066 1001.375,448.8066 L1002.5234,448.8066 Q1002.8281,448.8066 1002.9531,448.9238 Q1003.0859,449.041 1003.0859,449.2285 Q1003.0859,449.4238 1002.9531,449.541 Q1002.8281,449.6582 1002.5234,449.6582 L1002.3203,449.6582 L1003.5469,452.5957 Z " fill="#000000"/><text fill="#000000" font-family="sans-serif" font-size="6" font-style="italic" lengthAdjust="spacing" textLength="40.5" x="1009.25" y="448.792">&#171;value object&#187;</text><text fill="#000000" font-family="sans-serif" font-size="7" lengthAdjust="spacing" textLength="11.5" x="1023.75" y="457.8516">File</text><line style="stroke:#181818;stroke-width:0.25;" x1="996.25" x2="1049.75" y1="462.1084" y2="462.1084"/></g><!--link Operator to Candidate--><g id="link_Operator_Candidate"><path codeLine="47" d="M685.24,75.8624 C682.615,80.8724 679.96,86.4624 678,91.8174 C673.735,103.4574 671.2252,114.1683 669.2652,124.6733 " fill="none" id="Operator-to-Candidate" style="stroke:#222222;stroke-width:0.5;"/><polygon fill="#222222" points="668.715,127.6224,671.5064,123.5655,669.1735,125.1648,667.5743,122.8319,668.715,127.6224" style="stroke:#222222;stroke-width:0.5;"/><text fill="#000000" font-family="sans-serif" font-size="6.5" lengthAdjust="spacing" textLength="25" x="678.5" y="99.3315">registers</text><text fill="#000000" font-family="sans-serif" font-size="6.5" lengthAdjust="spacing" textLength="10" x="658.2937" y="122.171">0..*</text></g><!--link Operator to Application--><g id="link_Operator_Application"><path codeLine="48" d="M701.615,75.8274 C703.345,80.8924 705,86.5124 706,91.8174 C720.45,168.4024 719.1652,259.1142 717.8452,296.7492 " fill="none" id="Operator-to-Application" style="stroke:#222222;stroke-width:0.5;"/><polygon fill="#222222" points="717.74,299.7474,719.8965,295.3203,717.8276,297.2489,715.899,295.18,717.74,299.7474" style="stroke:#222222;stroke-width:0.5;"/><text fill="#000000" font-family="sans-serif" font-size="6.5" lengthAdjust="spacing" textLength="25" x="717" y="185.8315">registers</text><text fill="#000000" font-family="sans-serif" font-size="6.5" lengthAdjust="spacing" textLength="10" x="706.9279" y="294.1854">0..*</text></g><!--link Candidate to Application--><g id="link_Candidate_Application"><path codeLine="50" d="M666.415,162.4374 C667.345,183.2324 670.35,219.4274 680,248.8174 C686.065,267.2824 695.5162,284.0334 703.9712,297.2834 " fill="none" id="Candidate-to-Application" style="stroke:#222222;stroke-width:0.5;"/><polygon fill="#222222" points="705.585,299.8124,704.8503,294.9431,704.2402,297.7049,701.4784,297.0948,705.585,299.8124" style="stroke:#222222;stroke-width:0.5;"/><text fill="#000000" font-family="sans-serif" font-size="6.5" lengthAdjust="spacing" textLength="23" x="680.5" y="234.3315">submits</text><text fill="#000000" font-family="sans-serif" font-size="6.5" lengthAdjust="spacing" textLength="10" x="692.3533" y="294.1296">1..*</text></g><!--link Candidate to JobOpening--><g id="link_Candidate_JobOpening"><path codeLine="51" d="M641.705,151.5474 C578.865,167.0074 414.2332,207.5158 348.4532,223.6958 " fill="none" id="Candidate-to-JobOpening" style="stroke:#222222;stroke-width:0.5;"/><polygon fill="#222222" points="345.54,224.4124,350.3875,225.2797,347.9676,223.8153,349.432,221.3954,345.54,224.4124" style="stroke:#222222;stroke-width:0.5;"/><text fill="#000000" font-family="sans-serif" font-size="6.5" lengthAdjust="spacing" textLength="29.5" x="523.5" y="185.8315">applies for</text><text fill="#000000" font-family="sans-serif" font-size="6.5" lengthAdjust="spacing" textLength="10" x="349.4449" y="221.5594">1..*</text></g><!--link JobOpening to JobReference--><g id="link_JobOpening_JobReference"><path codeLine="53" d="M330.24,248.9524 C335.405,257.1624 341.065,267.3874 344.5,277.3174 C355.9,310.2724 359.28,348.2709 360.37,370.7959 " fill="none" id="JobOpening-to-JobReference" style="stroke:#222222;stroke-width:0.5;"/><polygon fill="#222222" points="360.515,373.7924,362.2952,369.201,360.3942,371.2953,358.2998,369.3943,360.515,373.7924" style="stroke:#222222;stroke-width:0.5;"/><text fill="#000000" font-family="sans-serif" font-size="6.5" lengthAdjust="spacing" textLength="24" x="357.5" y="319.8315">includes</text><text fill="#000000" font-family="sans-serif" font-size="6.5" lengthAdjust="spacing" textLength="3.5" x="356.589" y="368.239">1</text></g><!--link JobOpening to Mode--><g id="link_JobOpening_Mode"><path codeLine="54" d="M291.39,239.3624 C267.725,246.5674 233.165,259.1424 207,277.3174 C196.595,284.5424 188.8759,292.9243 182.2209,301.3393 " fill="none" id="JobOpening-to-Mode" style="stroke:#222222;stroke-width:0.5;"/><polygon fill="#222222" points="180.36,303.6924,184.7201,301.4034,181.9108,301.7315,181.5827,298.9222,180.36,303.6924" style="stroke:#222222;stroke-width:0.5;"/><text fill="#000000" font-family="sans-serif" font-size="6.5" lengthAdjust="spacing" textLength="24" x="230.5" y="271.3315">includes</text><text fill="#000000" font-family="sans-serif" font-size="6.5" lengthAdjust="spacing" textLength="3.5" x="178.6198" y="298.1717">1</text></g><!--link JobOpening to NumberVacancy--><g id="link_JobOpening_NumberVacancy"><path codeLine="55" d="M302.235,248.9024 C297.835,253.6374 293.145,258.8524 289,263.8174 C278,276.9924 268.0766,290.3982 260.2966,301.2632 " fill="none" id="JobOpening-to-NumberVacancy" style="stroke:#222222;stroke-width:0.5;"/><polygon fill="#222222" points="258.55,303.7024,262.796,301.208,260.0055,301.6698,259.5438,298.8793,258.55,303.7024" style="stroke:#222222;stroke-width:0.5;"/><text fill="#000000" font-family="sans-serif" font-size="6.5" lengthAdjust="spacing" textLength="24" x="289.5" y="271.3315">includes</text><text fill="#000000" font-family="sans-serif" font-size="6.5" lengthAdjust="spacing" textLength="3.5" x="256.7381" y="298.1841">1</text></g><!--link JobOpening to JobFunction--><g id="link_JobOpening_JobFunction"><path codeLine="56" d="M291.33,232.6774 C234.94,234.3924 107.45,240.7874 71.5,263.8174 C56.945,273.1424 48.7969,288.6271 43.9019,301.0221 " fill="none" id="JobOpening-to-JobFunction" style="stroke:#222222;stroke-width:0.5;"/><polygon fill="#222222" points="42.8,303.8124,46.3131,300.3616,43.7183,301.4871,42.5927,298.8923,42.8,303.8124" style="stroke:#222222;stroke-width:0.5;"/><text fill="#000000" font-family="sans-serif" font-size="6.5" lengthAdjust="spacing" textLength="24" x="72" y="271.3315">includes</text><text fill="#000000" font-family="sans-serif" font-size="6.5" lengthAdjust="spacing" textLength="3.5" x="39.9216" y="298.1029">1</text></g><!--link JobOpening to Description--><g id="link_JobOpening_Description"><path codeLine="57" d="M318.2,249.0024 C317.88,256.4924 317.245,265.3774 316,273.3174 C309.945,311.9274 297.7528,353.4649 291.0428,374.8599 " fill="none" id="JobOpening-to-Description" style="stroke:#222222;stroke-width:0.5;"/><polygon fill="#222222" points="290.145,377.7224,293.4,374.0271,290.8931,375.3369,289.5833,372.8301,290.145,377.7224" style="stroke:#222222;stroke-width:0.5;"/><text fill="#000000" font-family="sans-serif" font-size="6.5" lengthAdjust="spacing" textLength="24" x="316" y="319.8315">includes</text><text fill="#000000" font-family="sans-serif" font-size="6.5" lengthAdjust="spacing" textLength="3.5" x="287.1988" y="372.2087">1</text></g><!--link JobOpening to ContractType--><g id="link_JobOpening_ContractType"><path codeLine="58" d="M291.305,234.0324 C240.36,238.3224 133.55,250.3674 110,277.3174 C85.275,305.6074 91.7026,351.5814 96.9476,374.7514 " fill="none" id="JobOpening-to-ContractType" style="stroke:#222222;stroke-width:0.5;"/><polygon fill="#222222" points="97.61,377.6774,98.5671,372.8469,97.058,375.2391,94.6658,373.73,97.61,377.6774" style="stroke:#222222;stroke-width:0.5;"/><text fill="#000000" font-family="sans-serif" font-size="6.5" lengthAdjust="spacing" textLength="24" x="110.5" y="319.8315">includes</text><text fill="#000000" font-family="sans-serif" font-size="6.5" lengthAdjust="spacing" textLength="3.5" x="92.9214" y="372.1533">1</text></g><!--link JobOpening to Rank--><g id="link_JobOpening_Rank"><path codeLine="59" d="M345.53,245.4424 C359.09,253.2374 374.94,264.1324 386,277.3174 C412.105,308.4374 426.1485,352.4383 432.1135,374.8533 " fill="none" id="JobOpening-to-Rank" style="stroke:#222222;stroke-width:0.5;"/><polygon fill="#222222" points="432.885,377.7524,433.6605,372.8894,432.2421,375.3365,429.795,373.9181,432.885,377.7524" style="stroke:#222222;stroke-width:0.5;"/><text fill="#000000" font-family="sans-serif" font-size="6.5" lengthAdjust="spacing" textLength="24" x="419" y="319.8315">includes</text><text fill="#000000" font-family="sans-serif" font-size="6.5" lengthAdjust="spacing" textLength="2.5" x="429.3756" y="372.2456">*</text></g><!--link JobOpening to Application--><g id="link_JobOpening_Application"><path codeLine="60" d="M345.575,237.8074 C418.89,253.3524 617.5702,295.4851 688.7652,310.5801 " fill="none" id="JobOpening-to-Application" style="stroke:#222222;stroke-width:0.5;"/><polygon fill="#222222" points="691.7,311.2024,687.7127,308.3125,689.2544,310.6839,686.883,312.2255,691.7,311.2024" style="stroke:#222222;stroke-width:0.5;"/><polygon fill="#000000" points="506.0544,268.1215,510.1737,270.4972,510.7834,267.6222,506.0544,268.1215" style="stroke:#000000;stroke-width:0.5;"/><text fill="#000000" font-family="sans-serif" font-size="6.5" lengthAdjust="spacing" textLength="39" x="513" y="271.3315">associated to</text><text fill="#000000" font-family="sans-serif" font-size="6.5" lengthAdjust="spacing" textLength="3.5" x="684.227" y="308.2584">1</text></g><!--link Application to Interview--><g id="link_Application_Interview"><path codeLine="62" d="M731.41,334.3324 C740.565,345.2824 752.45,360.0474 762,373.8174 C777.515,396.1874 791.8262,421.1854 800.5812,437.0604 " fill="none" id="Application-to-Interview" style="stroke:#222222;stroke-width:0.5;"/><polygon fill="#222222" points="802.03,439.6874,801.6082,434.7811,800.8227,437.4982,798.1055,436.7128,802.03,439.6874" style="stroke:#222222;stroke-width:0.5;"/><text fill="#000000" font-family="sans-serif" font-size="6.5" lengthAdjust="spacing" textLength="24" x="791" y="393.8315">includes</text><text fill="#000000" font-family="sans-serif" font-size="6.5" lengthAdjust="spacing" textLength="11" x="788.1463" y="434.1656">0..1</text></g><!--link Application to RequirementAnswer--><g id="link_Application_RequirementAnswer"><path codeLine="63" d="M742.31,325.5174 C760.33,331.4374 784.98,340.0674 806,349.3174 C825.35,357.8324 843.8883,367.6851 859.2783,376.3151 " fill="none" id="Application-to-RequirementAnswer" style="stroke:#222222;stroke-width:0.5;"/><polygon fill="#222222" points="861.895,377.7824,858.9482,373.837,859.7144,376.5596,856.9918,377.3259,861.895,377.7824" style="stroke:#222222;stroke-width:0.5;"/><text fill="#000000" font-family="sans-serif" font-size="6.5" lengthAdjust="spacing" textLength="24" x="826" y="356.8315">includes</text><text fill="#000000" font-family="sans-serif" font-size="6.5" lengthAdjust="spacing" textLength="3.5" x="852.8785" y="372.2826">1</text></g><!--link Application to RequirementResult--><g id="link_Application_RequirementResult"><path codeLine="64" d="M742.44,320.4624 C794.13,326.9074 908.56,344.2574 932.5,373.8174 C947.71,392.6024 946.0426,419.8181 943.2076,436.8481 " fill="none" id="Application-to-RequirementResult" style="stroke:#222222;stroke-width:0.5;"/><polygon fill="#222222" points="942.715,439.8074,945.4268,435.6969,943.1255,437.3413,941.4811,435.04,942.715,439.8074" style="stroke:#222222;stroke-width:0.5;"/><text fill="#000000" font-family="sans-serif" font-size="6.5" lengthAdjust="spacing" textLength="24" x="945" y="393.8315">includes</text><text fill="#000000" font-family="sans-serif" font-size="6.5" lengthAdjust="spacing" textLength="3.5" x="939.4502" y="434.0967">1</text></g><!--link Application to Email--><g id="link_Application_Email"><path codeLine="65" d="M691.71,320.9274 C642.995,327.9674 539.065,345.9724 518,373.8174 C503.525,392.9524 508.4984,419.9903 513.6034,436.9103 " fill="none" id="Application-to-Email" style="stroke:#222222;stroke-width:0.5;"/><polygon fill="#222222" points="514.47,439.7824,515.0849,434.8965,513.7479,437.3889,511.2554,436.0519,514.47,439.7824" style="stroke:#222222;stroke-width:0.5;"/><text fill="#000000" font-family="sans-serif" font-size="6.5" lengthAdjust="spacing" textLength="24" x="518.5" y="393.8315">includes</text><text fill="#000000" font-family="sans-serif" font-size="6.5" lengthAdjust="spacing" textLength="3.5" x="509.5178" y="434.2826">1</text></g><!--link Application to CandidateName--><g id="link_Application_CandidateName"><path codeLine="66" d="M706.795,334.4974 C698.875,347.6374 689.6091,363.0183 682.3641,375.0333 " fill="none" id="Application-to-CandidateName" style="stroke:#222222;stroke-width:0.5;"/><polygon fill="#222222" points="680.815,377.6024,684.8514,374.7815,682.106,375.4615,681.426,372.716,680.815,377.6024" style="stroke:#222222;stroke-width:0.5;"/><text fill="#000000" font-family="sans-serif" font-size="6.5" lengthAdjust="spacing" textLength="24" x="698" y="356.8315">includes</text><text fill="#000000" font-family="sans-serif" font-size="6.5" lengthAdjust="spacing" textLength="3.5" x="678.6417" y="372.2802">1</text></g><!--link Application to PhoneNumber--><g id="link_Application_PhoneNumber"><path codeLine="67" d="M722.79,334.3674 C724.225,339.1474 725.61,344.3924 726.5,349.3174 C732.33,381.4924 733.3894,417.1025 733.5244,436.7375 " fill="none" id="Application-to-PhoneNumber" style="stroke:#222222;stroke-width:0.5;"/><polygon fill="#222222" points="733.545,439.7374,735.514,435.2237,733.5278,437.2374,731.5141,435.2512,733.545,439.7374" style="stroke:#222222;stroke-width:0.5;"/><text fill="#000000" font-family="sans-serif" font-size="6.5" lengthAdjust="spacing" textLength="24" x="733.5" y="393.8315">includes</text><text fill="#000000" font-family="sans-serif" font-size="6.5" lengthAdjust="spacing" textLength="3.5" x="729.6507" y="434.2272">1</text></g><!--link Application to File--><g id="link_Application_File"><path codeLine="68" d="M742.265,320.2474 C799.67,326.7874 937.695,345.1374 973.5,373.8174 C995.805,391.6874 1009.7765,419.723 1016.9865,437.033 " fill="none" id="Application-to-File" style="stroke:#222222;stroke-width:0.5;"/><polygon fill="#222222" points="1018.14,439.8024,1018.256,434.8793,1017.1787,437.4946,1014.5635,436.4173,1018.14,439.8024" style="stroke:#222222;stroke-width:0.5;"/><polygon fill="#000000" points="1008.6993,390.1621,1012.2865,393.2837,1013.4362,390.5791,1008.6993,390.1621" style="stroke:#000000;stroke-width:0.5;"/><text fill="#000000" font-family="sans-serif" font-size="6.5" lengthAdjust="spacing" textLength="28" x="1015.5" y="393.8315">describes</text><text fill="#000000" font-family="sans-serif" font-size="6.5" lengthAdjust="spacing" textLength="10" x="1005.7366" y="434.0905">1..*</text></g><!--link Application to ApplicationStatus--><g id="link_Application_ApplicationStatus"><path codeLine="69" d="M691.69,327.7674 C678.145,333.5374 661.35,341.2124 647,349.3174 C631.865,357.8624 618.1001,367.3545 606.3601,375.9545 " fill="none" id="Application-to-ApplicationStatus" style="stroke:#222222;stroke-width:0.5;"/><polygon fill="#222222" points="603.94,377.7274,608.7521,376.6815,605.9568,376.25,606.3883,373.4547,603.94,377.7274" style="stroke:#222222;stroke-width:0.5;"/><polygon fill="#000000" points="651.6769,352.9108,647.0163,353.8551,648.4614,356.4142,651.6769,352.9108" style="stroke:#000000;stroke-width:0.5;"/><text fill="#000000" font-family="sans-serif" font-size="6.5" lengthAdjust="spacing" textLength="33.5" x="654" y="356.8315">categorizes</text><text fill="#000000" font-family="sans-serif" font-size="6.5" lengthAdjust="spacing" textLength="3.5" x="603.9527" y="372.2148">1</text></g><!--link Interview to InterviewAnswer--><g id="link_Interview_InterviewAnswer"><path codeLine="71" d="M807.67,466.4224 C806.585,482.7574 806.735,511.3474 818,532.3174 C824.74,544.8674 834.2922,553.5643 845.0172,561.0243 " fill="none" id="Interview-to-InterviewAnswer" style="stroke:#222222;stroke-width:0.5;"/><polygon fill="#222222" points="847.48,562.7374,844.9278,558.5259,845.4277,561.3098,842.6437,561.8097,847.48,562.7374" style="stroke:#222222;stroke-width:0.5;"/><text fill="#000000" font-family="sans-serif" font-size="6.5" lengthAdjust="spacing" textLength="35" x="818.5" y="521.8315">described in</text><text fill="#000000" font-family="sans-serif" font-size="6.5" lengthAdjust="spacing" textLength="3.5" x="838.4832" y="557.2272">1</text></g><!--link Interview to InterviewResult--><g id="link_Interview_InterviewResult"><path codeLine="72" d="M795.335,466.3924 C770.365,489.8224 719.8425,537.2394 694.8675,560.6794 " fill="none" id="Interview-to-InterviewResult" style="stroke:#222222;stroke-width:0.5;"/><polygon fill="#222222" points="692.68,562.7324,697.3299,561.1112,694.5029,561.0215,694.5925,558.1945,692.68,562.7324" style="stroke:#222222;stroke-width:0.5;"/><polygon fill="#000000" points="756.8229,517.4293,752.5196,519.4527,754.5308,521.5957,756.8229,517.4293" style="stroke:#000000;stroke-width:0.5;"/><text fill="#000000" font-family="sans-serif" font-size="6.5" lengthAdjust="spacing" textLength="27" x="759.5" y="521.8315">classifies</text><text fill="#000000" font-family="sans-serif" font-size="6.5" lengthAdjust="spacing" textLength="3.5" x="691.9388" y="557.221">1</text></g><!--link InterviewResult to InterviewGrade--><g id="link_InterviewResult_InterviewGrade"><path codeLine="73" d="M710.82,576.0674 C724.82,576.0674 738.225,576.0674 752.22,576.0674 " fill="none" id="InterviewResult-to-InterviewGrade" style="stroke:#222222;stroke-width:0.5;"/><polygon fill="#222222" points="755.22,576.0674,750.72,574.0674,752.72,576.0674,750.72,578.0674,755.22,576.0674" style="stroke:#222222;stroke-width:0.5;"/><polygon fill="#000000" points="719.5,569.8901,724.0225,571.3596,724.0225,568.4207,719.5,569.8901" style="stroke:#000000;stroke-width:0.5;"/><text fill="#000000" font-family="sans-serif" font-size="6.5" lengthAdjust="spacing" textLength="19.5" x="726.5" y="572.5815">grades</text><text fill="#000000" font-family="sans-serif" font-size="6.5" lengthAdjust="spacing" textLength="3.5" x="747.8431" y="574.1106">1</text></g><!--link InterviewResult to Justification--><g id="link_InterviewResult_Justification"><path codeLine="74" d="M679,589.4074 C679,600.8024 679,614.3624 679,625.7524 " fill="none" id="InterviewResult-to-Justification" style="stroke:#222222;stroke-width:0.5;"/><polygon fill="#222222" points="679,628.7524,681,624.2524,679,626.2524,677,624.2524,679,628.7524" style="stroke:#222222;stroke-width:0.5;"/><polygon fill="#000000" points="681.5,606.6401,680.0305,611.1627,682.9695,611.1627,681.5,606.6401" style="stroke:#000000;stroke-width:0.5;"/><text fill="#000000" font-family="sans-serif" font-size="6.5" lengthAdjust="spacing" textLength="22" x="686" y="611.8315">justifies</text><text fill="#000000" font-family="sans-serif" font-size="6.5" lengthAdjust="spacing" textLength="3.5" x="675.0953" y="623.2456">1</text></g><!--link Interview to Schedule--><g id="link_Interview_Schedule"><path codeLine="75" d="M825.005,466.4074 C839.205,477.8024 857.5005,492.4845 871.6905,503.8745 " fill="none" id="Interview-to-Schedule" style="stroke:#222222;stroke-width:0.5;"/><polygon fill="#222222" points="874.03,505.7524,871.7726,501.3758,872.0804,504.1875,869.2687,504.4952,874.03,505.7524" style="stroke:#222222;stroke-width:0.5;"/><text fill="#000000" font-family="sans-serif" font-size="6.5" lengthAdjust="spacing" textLength="25" x="854.5" y="488.8315">follows a</text><text fill="#000000" font-family="sans-serif" font-size="6.5" lengthAdjust="spacing" textLength="3.5" x="866.4323" y="500.2456">1</text></g><!--SRC=[fLPTJzim57tthxWg3_lG2XtQmnH5I0NM2QJ1r6wykyubDJXsPZjK7UA_pqdQr4cRXh2-DCqzv_ZwVlRTmjhK12SdgQ3IPeauPYevOO8QCumuZJLD236FNARKFK9X65kh-JopUCMKdF6_22Eou1429gbT0TsOJPDuJjbZh5Kcemibb8OvyXWzq5XhjInDHwV5Xn3BhK3uFJiTZKOKBbL2kOGVAa91IEhqQ8mm24CQnnfZQl7i3AxL76vJb5p60tWcu3uedSugjwmD48RbEuSFGwsKTG_FBmMuy3N7JZB9B5VI8TxVVJgQJBwUVnbzW2SgCWGrVq2smxfGqchAxAzLYZre-OLwm6-oP8xwZZ8gsUfLl8fwYOPfdhxwMjjeJF4UDKhMuMWOkb9meRtdgFtpIvqfbOy7-Gx_qffPbpnDhTADj6vUjoMrNV22oeX7xhcXMBtt9IlDWvBZD1MSqJp03L7FuibMZjPJ_CqLkkXH4fxup5ARcJv5kxdj3KtwbE7FXP9Orc8FrfMqg9yuBWzpe8KrbcRPTLuRTuec4xONzpepUIrNQNl3gTyrxUhk1dMAVpAkCN4ryeRhUkmtNFX_0ZrZ2umoqQU69lmLSDTjLOyFXsSm61qVVnnuNHg0wpzkdETcBz9lFHzBjX85-lCUjCdc2RTcFzJRA07Gd8S6xfKcnBCCIy80wcCq02wPo2AtA6lWDRRO2HsO-YBe0FiRhGswmVfheWjRstc7m2vUvGBeSBGUVrSbYd4NzmYiWf0GtppS9DdnjeF5qw-3omDsswkLiCjOjrGNevZV7NxKvcwNe3Ti3qEBkYpQAe2eIEFSrMIuruFThH60-ucnqkv_NSuYswXMhZH6nFQOo3bsa506BoXxF_-Ba1_H7CzDKZ4_0uZphxtuDQ4sgWDuA7_MAHMu6bM1QrSXrD80_GS0]--></g></svg>