<?xml version="1.0" encoding="us-ascii" standalone="no"?><svg xmlns="http://www.w3.org/2000/svg" xmlns:xlink="http://www.w3.org/1999/xlink" contentStyleType="text/css" height="1330.2px" preserveAspectRatio="none" style="width:1458px;height:1330px;background:#FFFFFF;" version="1.1" viewBox="0 0 1458 1330" width="1458px" zoomAndPan="magnify"><defs/><g><!--class SERVICE--><g id="elem_SERVICE"><rect codeLine="5" fill="#F1F1F1" height="107.1949" id="SERVICE" rx="2.25" ry="2.25" style="stroke:#181818;stroke-width:0.45;" width="203.4" x="576.45" y="335.7"/><ellipse cx="589.95" cy="365.3385" fill="#ADD1B2" rx="9.9" ry="9.9" style="stroke:#181818;stroke-width:0.9;"/><path d="M592.4391,361.626 Q592.5797,361.4291 592.7484,361.3307 Q592.9172,361.2322 593.1141,361.2322 Q593.4516,361.2322 593.6625,361.4713 Q593.8734,361.6963 593.8734,362.2447 L593.8734,363.5525 Q593.8734,364.101 593.6625,364.34 Q593.4516,364.5791 593.1141,364.5791 Q592.8047,364.5791 592.6219,364.3963 Q592.4391,364.2275 592.3406,363.7635 Q592.2984,363.44 592.1297,363.2713 Q591.8344,362.9338 591.2859,362.7369 Q590.7375,362.54 590.175,362.54 Q589.4859,362.54 588.9094,362.8354 Q588.3469,363.1307 587.8969,363.8057 Q587.4609,364.4807 587.4609,365.4088 L587.4609,366.3932 Q587.4609,367.5041 588.2625,368.2494 Q589.0641,368.9807 590.4984,368.9807 Q591.3422,368.9807 591.9328,368.7557 Q592.2844,368.615 592.6641,368.2213 Q592.9031,367.9822 593.0297,367.9119 Q593.1703,367.8416 593.3531,367.8416 Q593.6484,367.8416 593.8734,368.0807 Q594.1125,368.3057 594.1125,368.615 Q594.1125,368.9244 593.8031,369.29 Q593.3531,369.8104 592.6359,370.1057 Q591.6656,370.5135 590.4984,370.5135 Q589.1344,370.5135 588.0516,369.951 Q587.1656,369.501 586.5469,368.5447 Q585.9281,367.5744 585.9281,366.4213 L585.9281,365.3807 Q585.9281,364.1854 586.4766,363.1588 Q587.0391,362.1182 588.0234,361.5697 Q589.0078,361.0072 590.1188,361.0072 Q590.7797,361.0072 591.3563,361.1619 Q591.9469,361.3025 592.4391,361.626 Z " fill="#000000"/><text fill="#000000" font-family="sans-serif" font-size="12.6" lengthAdjust="spacing" textLength="81" x="649.35" y="353.7967">&#171;Persistence&#187;</text><text fill="#000000" font-family="sans-serif" font-size="12.6" lengthAdjust="spacing" textLength="56.7" x="661.5" y="370.5557">&#171;Service&#187;</text><text fill="#000000" font-family="sans-serif" font-size="12.6" lengthAdjust="spacing" textLength="174.6" x="602.55" y="387.3146">ListCandidateDataDTOService</text><line style="stroke:#181818;stroke-width:0.45;" x1="577.35" x2="778.95" y1="394.977" y2="394.977"/><line style="stroke:#181818;stroke-width:0.45;" x1="577.35" x2="778.95" y1="402.177" y2="402.177"/><ellipse cx="586.35" cy="415.5064" fill="#84BE84" rx="2.7" ry="2.7" style="stroke:#038048;stroke-width:0.9;"/><text fill="#000000" font-family="sans-serif" font-size="12.6" lengthAdjust="spacing" textLength="177.3" x="594.45" y="419.3736">listCandidateData(Email: email)</text><ellipse cx="586.35" cy="432.2654" fill="#84BE84" rx="2.7" ry="2.7" style="stroke:#038048;stroke-width:0.9;"/><text fill="#000000" font-family="sans-serif" font-size="12.6" lengthAdjust="spacing" textLength="112.5" x="594.45" y="436.1326">toDTO(Entity entity)</text></g><!--class DTO--><g id="elem_DTO"><rect codeLine="9" fill="#F1F1F1" height="157.4719" id="DTO" rx="2.25" ry="2.25" style="stroke:#181818;stroke-width:0.45;" width="214.2" x="163.35" y="514.35"/><ellipse cx="210.375" cy="543.9885" fill="#ADD1B2" rx="9.9" ry="9.9" style="stroke:#181818;stroke-width:0.9;"/><path d="M212.8641,540.276 Q213.0047,540.0791 213.1734,539.9807 Q213.3422,539.8822 213.5391,539.8822 Q213.8766,539.8822 214.0875,540.1213 Q214.2984,540.3463 214.2984,540.8947 L214.2984,542.2025 Q214.2984,542.751 214.0875,542.99 Q213.8766,543.2291 213.5391,543.2291 Q213.2297,543.2291 213.0469,543.0463 Q212.8641,542.8775 212.7656,542.4135 Q212.7234,542.09 212.5547,541.9213 Q212.2594,541.5838 211.7109,541.3869 Q211.1625,541.19 210.6,541.19 Q209.9109,541.19 209.3344,541.4854 Q208.7719,541.7807 208.3219,542.4557 Q207.8859,543.1307 207.8859,544.0588 L207.8859,545.0432 Q207.8859,546.1541 208.6875,546.8994 Q209.4891,547.6307 210.9234,547.6307 Q211.7672,547.6307 212.3578,547.4057 Q212.7094,547.265 213.0891,546.8713 Q213.3281,546.6322 213.4547,546.5619 Q213.5953,546.4916 213.7781,546.4916 Q214.0734,546.4916 214.2984,546.7307 Q214.5375,546.9557 214.5375,547.265 Q214.5375,547.5744 214.2281,547.94 Q213.7781,548.4604 213.0609,548.7557 Q212.0906,549.1635 210.9234,549.1635 Q209.5594,549.1635 208.4766,548.601 Q207.5906,548.151 206.9719,547.1947 Q206.3531,546.2244 206.3531,545.0713 L206.3531,544.0307 Q206.3531,542.8354 206.9016,541.8088 Q207.4641,540.7682 208.4484,540.2197 Q209.4328,539.6572 210.5438,539.6572 Q211.2047,539.6572 211.7813,539.8119 Q212.3719,539.9525 212.8641,540.276 Z " fill="#000000"/><text fill="#000000" font-family="sans-serif" font-size="12.6" lengthAdjust="spacing" textLength="57.6" x="256.275" y="532.4467">&#171;Domain&#187;</text><text fill="#000000" font-family="sans-serif" font-size="12.6" lengthAdjust="spacing" textLength="41.4" x="264.375" y="549.2057">&#171;DTO&#187;</text><text fill="#000000" font-family="sans-serif" font-size="12.6" lengthAdjust="spacing" textLength="112.5" x="228.825" y="565.9646">CandidateDataDTO</text><line style="stroke:#181818;stroke-width:0.45;" x1="164.25" x2="376.65" y1="573.627" y2="573.627"/><rect fill="none" height="5.4" style="stroke:#C82930;stroke-width:0.9;" width="5.4" x="170.55" y="584.2564"/><text fill="#000000" font-family="sans-serif" font-size="12.6" lengthAdjust="spacing" textLength="121.5" x="181.35" y="590.8236">Candidate: candidate</text><rect fill="none" height="5.4" style="stroke:#C82930;stroke-width:0.9;" width="5.4" x="170.55" y="601.0154"/><text fill="#000000" font-family="sans-serif" font-size="12.6" lengthAdjust="spacing" textLength="190.8" x="181.35" y="607.5826">List&lt;Applications&gt;: allApplications</text><line style="stroke:#181818;stroke-width:0.9;stroke-dasharray:1.0,2.0;" x1="164.25" x2="376.65" y1="614.3449" y2="614.3449"/><ellipse cx="173.25" cy="627.6744" fill="#84BE84" rx="2.7" ry="2.7" style="stroke:#038048;stroke-width:0.9;"/><text fill="#000000" font-family="sans-serif" font-size="12.6" lengthAdjust="spacing" textLength="64.8" x="181.35" y="631.5416">candidate()</text><ellipse cx="173.25" cy="644.4334" fill="#84BE84" rx="2.7" ry="2.7" style="stroke:#038048;stroke-width:0.9;"/><text fill="#000000" font-family="sans-serif" font-size="12.6" lengthAdjust="spacing" textLength="148.5" x="181.35" y="648.3006">applicationsOfCandidate()</text><ellipse cx="173.25" cy="661.1924" fill="#84BE84" rx="2.7" ry="2.7" style="stroke:#038048;stroke-width:0.9;"/><text fill="#000000" font-family="sans-serif" font-size="12.6" lengthAdjust="spacing" textLength="53.1" x="181.35" y="665.0596">toString()</text></g><!--class A--><g id="elem_A"><rect codeLine="17" fill="#F1F1F1" height="190.9898" id="A" rx="2.25" ry="2.25" style="stroke:#181818;stroke-width:0.45;" width="234" x="314.55" y="759.6"/><ellipse cx="389.475" cy="789.2385" fill="#ADD1B2" rx="9.9" ry="9.9" style="stroke:#181818;stroke-width:0.9;"/><path d="M391.9641,785.526 Q392.1047,785.3291 392.2734,785.2307 Q392.4422,785.1322 392.6391,785.1322 Q392.9766,785.1322 393.1875,785.3713 Q393.3984,785.5963 393.3984,786.1447 L393.3984,787.4525 Q393.3984,788.001 393.1875,788.24 Q392.9766,788.4791 392.6391,788.4791 Q392.3297,788.4791 392.1469,788.2963 Q391.9641,788.1275 391.8656,787.6635 Q391.8234,787.34 391.6547,787.1713 Q391.3594,786.8338 390.8109,786.6369 Q390.2625,786.44 389.7,786.44 Q389.0109,786.44 388.4344,786.7354 Q387.8719,787.0307 387.4219,787.7057 Q386.9859,788.3807 386.9859,789.3088 L386.9859,790.2932 Q386.9859,791.4041 387.7875,792.1494 Q388.5891,792.8807 390.0234,792.8807 Q390.8672,792.8807 391.4578,792.6557 Q391.8094,792.515 392.1891,792.1213 Q392.4281,791.8822 392.5547,791.8119 Q392.6953,791.7416 392.8781,791.7416 Q393.1734,791.7416 393.3984,791.9807 Q393.6375,792.2057 393.6375,792.515 Q393.6375,792.8244 393.3281,793.19 Q392.8781,793.7104 392.1609,794.0057 Q391.1906,794.4135 390.0234,794.4135 Q388.6594,794.4135 387.5766,793.851 Q386.6906,793.401 386.0719,792.4447 Q385.4531,791.4744 385.4531,790.3213 L385.4531,789.2807 Q385.4531,788.0854 386.0016,787.0588 Q386.5641,786.0182 387.5484,785.4697 Q388.5328,784.9072 389.6438,784.9072 Q390.3047,784.9072 390.8813,785.0619 Q391.4719,785.2025 391.9641,785.526 Z " fill="#000000"/><text fill="#000000" font-family="sans-serif" font-size="12.6" lengthAdjust="spacing" textLength="57.6" x="417.375" y="777.6967">&#171;Domain&#187;</text><text fill="#000000" font-family="sans-serif" font-size="12.6" lengthAdjust="spacing" textLength="76.5" x="407.925" y="794.4557">&#171;Root Entity&#187;</text><text fill="#000000" font-family="sans-serif" font-size="12.6" lengthAdjust="spacing" textLength="62.1" x="415.125" y="811.2146">Application</text><line style="stroke:#181818;stroke-width:0.45;" x1="315.45" x2="547.65" y1="818.877" y2="818.877"/><rect fill="none" height="5.4" style="stroke:#C82930;stroke-width:0.9;" width="5.4" x="321.75" y="829.5064"/><text fill="#000000" font-family="sans-serif" font-size="12.6" lengthAdjust="spacing" textLength="203.4" x="332.55" y="836.0736">ApplicationDate: dateOfRegistration</text><rect fill="none" height="5.4" style="stroke:#C82930;stroke-width:0.9;" width="5.4" x="321.75" y="846.2654"/><text fill="#000000" font-family="sans-serif" font-size="12.6" lengthAdjust="spacing" textLength="139.5" x="332.55" y="852.8326">ApplicationStatus: status</text><rect fill="none" height="5.4" style="stroke:#C82930;stroke-width:0.9;" width="5.4" x="321.75" y="863.0244"/><text fill="#000000" font-family="sans-serif" font-size="12.6" lengthAdjust="spacing" textLength="185.4" x="332.55" y="869.5916">JobOpening: jobOpeningRelated</text><line style="stroke:#181818;stroke-width:0.9;stroke-dasharray:1.0,2.0;" x1="315.45" x2="547.65" y1="876.3539" y2="876.3539"/><ellipse cx="324.45" cy="889.6834" fill="#84BE84" rx="2.7" ry="2.7" style="stroke:#038048;stroke-width:0.9;"/><text fill="#000000" font-family="sans-serif" font-size="12.6" lengthAdjust="spacing" textLength="210.6" x="332.55" y="893.5506">valueOfApplicationRegistrationDate()</text><ellipse cx="324.45" cy="906.4424" fill="#84BE84" rx="2.7" ry="2.7" style="stroke:#038048;stroke-width:0.9;"/><text fill="#000000" font-family="sans-serif" font-size="12.6" lengthAdjust="spacing" textLength="151.2" x="332.55" y="910.3096">valueOfApplicationStatus()</text><ellipse cx="324.45" cy="923.2014" fill="#84BE84" rx="2.7" ry="2.7" style="stroke:#038048;stroke-width:0.9;"/><text fill="#000000" font-family="sans-serif" font-size="12.6" lengthAdjust="spacing" textLength="180.9" x="332.55" y="927.0686">valueOfJobOpeningReference()</text><ellipse cx="324.45" cy="939.9604" fill="#84BE84" rx="2.7" ry="2.7" style="stroke:#038048;stroke-width:0.9;"/><text fill="#000000" font-family="sans-serif" font-size="12.6" lengthAdjust="spacing" textLength="53.1" x="332.55" y="943.8275">toString()</text></g><!--class J--><g id="elem_J"><rect codeLine="27" fill="#F1F1F1" height="123.9539" id="J" rx="2.25" ry="2.25" style="stroke:#181818;stroke-width:0.45;" width="125.1" x="6.3" y="531"/><ellipse cx="28.71" cy="560.6385" fill="#ADD1B2" rx="9.9" ry="9.9" style="stroke:#181818;stroke-width:0.9;"/><path d="M31.1991,556.926 Q31.3397,556.7291 31.5084,556.6307 Q31.6772,556.5322 31.8741,556.5322 Q32.2116,556.5322 32.4225,556.7713 Q32.6334,556.9963 32.6334,557.5447 L32.6334,558.8525 Q32.6334,559.401 32.4225,559.64 Q32.2116,559.8791 31.8741,559.8791 Q31.5647,559.8791 31.3819,559.6963 Q31.1991,559.5275 31.1006,559.0635 Q31.0584,558.74 30.8897,558.5713 Q30.5944,558.2338 30.0459,558.0369 Q29.4975,557.84 28.935,557.84 Q28.2459,557.84 27.6694,558.1354 Q27.1069,558.4307 26.6569,559.1057 Q26.2209,559.7807 26.2209,560.7088 L26.2209,561.6932 Q26.2209,562.8041 27.0225,563.5494 Q27.8241,564.2807 29.2584,564.2807 Q30.1022,564.2807 30.6928,564.0557 Q31.0444,563.915 31.4241,563.5213 Q31.6631,563.2822 31.7897,563.2119 Q31.9303,563.1416 32.1131,563.1416 Q32.4084,563.1416 32.6334,563.3807 Q32.8725,563.6057 32.8725,563.915 Q32.8725,564.2244 32.5631,564.59 Q32.1131,565.1104 31.3959,565.4057 Q30.4256,565.8135 29.2584,565.8135 Q27.8944,565.8135 26.8116,565.251 Q25.9256,564.801 25.3069,563.8447 Q24.6881,562.8744 24.6881,561.7213 L24.6881,560.6807 Q24.6881,559.4854 25.2366,558.4588 Q25.7991,557.4182 26.7834,556.8697 Q27.7678,556.3072 28.8788,556.3072 Q29.5397,556.3072 30.1163,556.4619 Q30.7069,556.6025 31.1991,556.926 Z " fill="#000000"/><text fill="#000000" font-family="sans-serif" font-size="12.6" lengthAdjust="spacing" textLength="57.6" x="52.74" y="549.0967">&#171;Domain&#187;</text><text fill="#000000" font-family="sans-serif" font-size="12.6" lengthAdjust="spacing" textLength="76.5" x="43.29" y="565.8557">&#171;Root Entity&#187;</text><text fill="#000000" font-family="sans-serif" font-size="12.6" lengthAdjust="spacing" textLength="68.4" x="47.34" y="582.6146">JobOpening</text><line style="stroke:#181818;stroke-width:0.45;" x1="7.2" x2="130.5" y1="590.277" y2="590.277"/><rect fill="none" height="5.4" style="stroke:#C82930;stroke-width:0.9;" width="5.4" x="13.5" y="600.9064"/><text fill="#000000" font-family="sans-serif" font-size="12.6" lengthAdjust="spacing" textLength="101.7" x="24.3" y="607.4736">JobReference: ref</text><line style="stroke:#181818;stroke-width:0.9;stroke-dasharray:1.0,2.0;" x1="7.2" x2="130.5" y1="614.2359" y2="614.2359"/><ellipse cx="16.2" cy="627.5654" fill="#84BE84" rx="2.7" ry="2.7" style="stroke:#038048;stroke-width:0.9;"/><text fill="#000000" font-family="sans-serif" font-size="12.6" lengthAdjust="spacing" textLength="92.7" x="24.3" y="631.4326">valueOfJobRef()</text><ellipse cx="16.2" cy="644.3244" fill="#84BE84" rx="2.7" ry="2.7" style="stroke:#038048;stroke-width:0.9;"/><text fill="#000000" font-family="sans-serif" font-size="12.6" lengthAdjust="spacing" textLength="53.1" x="24.3" y="648.1916">toString()</text></g><!--class ADATE--><g id="elem_ADATE"><rect codeLine="33" fill="#F1F1F1" height="123.9539" id="ADATE" rx="2.25" ry="2.25" style="stroke:#181818;stroke-width:0.45;" width="195.3" x="324" y="1021.5"/><ellipse cx="373.275" cy="1051.1385" fill="#ADD1B2" rx="9.9" ry="9.9" style="stroke:#181818;stroke-width:0.9;"/><path d="M375.7641,1047.426 Q375.9047,1047.2291 376.0734,1047.1307 Q376.2422,1047.0322 376.4391,1047.0322 Q376.7766,1047.0322 376.9875,1047.2713 Q377.1984,1047.4963 377.1984,1048.0447 L377.1984,1049.3525 Q377.1984,1049.901 376.9875,1050.14 Q376.7766,1050.3791 376.4391,1050.3791 Q376.1297,1050.3791 375.9469,1050.1963 Q375.7641,1050.0275 375.6656,1049.5635 Q375.6234,1049.24 375.4547,1049.0713 Q375.1594,1048.7338 374.6109,1048.5369 Q374.0625,1048.34 373.5,1048.34 Q372.8109,1048.34 372.2344,1048.6354 Q371.6719,1048.9307 371.2219,1049.6057 Q370.7859,1050.2807 370.7859,1051.2088 L370.7859,1052.1932 Q370.7859,1053.3041 371.5875,1054.0494 Q372.3891,1054.7807 373.8234,1054.7807 Q374.6672,1054.7807 375.2578,1054.5557 Q375.6094,1054.415 375.9891,1054.0213 Q376.2281,1053.7822 376.3547,1053.7119 Q376.4953,1053.6416 376.6781,1053.6416 Q376.9734,1053.6416 377.1984,1053.8807 Q377.4375,1054.1057 377.4375,1054.415 Q377.4375,1054.7244 377.1281,1055.09 Q376.6781,1055.6104 375.9609,1055.9057 Q374.9906,1056.3135 373.8234,1056.3135 Q372.4594,1056.3135 371.3766,1055.751 Q370.4906,1055.301 369.8719,1054.3447 Q369.2531,1053.3744 369.2531,1052.2213 L369.2531,1051.1807 Q369.2531,1049.9854 369.8016,1048.9588 Q370.3641,1047.9182 371.3484,1047.3697 Q372.3328,1046.8072 373.4438,1046.8072 Q374.1047,1046.8072 374.6813,1046.9619 Q375.2719,1047.1025 375.7641,1047.426 Z " fill="#000000"/><text fill="#000000" font-family="sans-serif" font-size="12.6" lengthAdjust="spacing" textLength="57.6" x="407.475" y="1039.5967">&#171;Domain&#187;</text><text fill="#000000" font-family="sans-serif" font-size="12.6" lengthAdjust="spacing" textLength="87.3" x="392.625" y="1056.3557">&#171;Value Object&#187;</text><text fill="#000000" font-family="sans-serif" font-size="12.6" lengthAdjust="spacing" textLength="89.1" x="391.725" y="1073.1146">ApplicationDate</text><line style="stroke:#181818;stroke-width:0.45;" x1="324.9" x2="518.4" y1="1080.777" y2="1080.777"/><rect fill="none" height="5.4" style="stroke:#C82930;stroke-width:0.9;" width="5.4" x="331.2" y="1091.4064"/><text fill="#000000" font-family="sans-serif" font-size="12.6" lengthAdjust="spacing" textLength="171.9" x="342" y="1097.9736">LocalDate: dateOfRegistration</text><line style="stroke:#181818;stroke-width:0.9;stroke-dasharray:1.0,2.0;" x1="324.9" x2="518.4" y1="1104.7359" y2="1104.7359"/><ellipse cx="333.9" cy="1118.0654" fill="#84BE84" rx="2.7" ry="2.7" style="stroke:#038048;stroke-width:0.9;"/><text fill="#000000" font-family="sans-serif" font-size="12.6" lengthAdjust="spacing" textLength="116.1" x="342" y="1121.9326">dateOfRegistration()</text><ellipse cx="333.9" cy="1134.8244" fill="#84BE84" rx="2.7" ry="2.7" style="stroke:#038048;stroke-width:0.9;"/><text fill="#000000" font-family="sans-serif" font-size="12.6" lengthAdjust="spacing" textLength="53.1" x="342" y="1138.6916">toString()</text></g><!--class ASTATUS--><g id="elem_ASTATUS"><rect codeLine="39" fill="#F1F1F1" height="123.9539" id="ASTATUS" rx="2.25" ry="2.25" style="stroke:#181818;stroke-width:0.45;" width="142.2" x="551.25" y="1021.5"/><ellipse cx="571.635" cy="1051.1385" fill="#ADD1B2" rx="9.9" ry="9.9" style="stroke:#181818;stroke-width:0.9;"/><path d="M574.1241,1047.426 Q574.2647,1047.2291 574.4334,1047.1307 Q574.6022,1047.0322 574.7991,1047.0322 Q575.1366,1047.0322 575.3475,1047.2713 Q575.5584,1047.4963 575.5584,1048.0447 L575.5584,1049.3525 Q575.5584,1049.901 575.3475,1050.14 Q575.1366,1050.3791 574.7991,1050.3791 Q574.4897,1050.3791 574.3069,1050.1963 Q574.1241,1050.0275 574.0256,1049.5635 Q573.9834,1049.24 573.8147,1049.0713 Q573.5194,1048.7338 572.9709,1048.5369 Q572.4225,1048.34 571.86,1048.34 Q571.1709,1048.34 570.5944,1048.6354 Q570.0319,1048.9307 569.5819,1049.6057 Q569.1459,1050.2807 569.1459,1051.2088 L569.1459,1052.1932 Q569.1459,1053.3041 569.9475,1054.0494 Q570.7491,1054.7807 572.1834,1054.7807 Q573.0272,1054.7807 573.6178,1054.5557 Q573.9694,1054.415 574.3491,1054.0213 Q574.5881,1053.7822 574.7147,1053.7119 Q574.8553,1053.6416 575.0381,1053.6416 Q575.3334,1053.6416 575.5584,1053.8807 Q575.7975,1054.1057 575.7975,1054.415 Q575.7975,1054.7244 575.4881,1055.09 Q575.0381,1055.6104 574.3209,1055.9057 Q573.3506,1056.3135 572.1834,1056.3135 Q570.8194,1056.3135 569.7366,1055.751 Q568.8506,1055.301 568.2319,1054.3447 Q567.6131,1053.3744 567.6131,1052.2213 L567.6131,1051.1807 Q567.6131,1049.9854 568.1616,1048.9588 Q568.7241,1047.9182 569.7084,1047.3697 Q570.6928,1046.8072 571.8038,1046.8072 Q572.4647,1046.8072 573.0413,1046.9619 Q573.6319,1047.1025 574.1241,1047.426 Z " fill="#000000"/><text fill="#000000" font-family="sans-serif" font-size="12.6" lengthAdjust="spacing" textLength="57.6" x="606.015" y="1039.5967">&#171;Domain&#187;</text><text fill="#000000" font-family="sans-serif" font-size="12.6" lengthAdjust="spacing" textLength="87.3" x="591.165" y="1056.3557">&#171;Value Object&#187;</text><text fill="#000000" font-family="sans-serif" font-size="12.6" lengthAdjust="spacing" textLength="98.1" x="585.765" y="1073.1146">ApplicationStatus</text><line style="stroke:#181818;stroke-width:0.45;" x1="552.15" x2="692.55" y1="1080.777" y2="1080.777"/><rect fill="none" height="5.4" style="stroke:#C82930;stroke-width:0.9;" width="5.4" x="558.45" y="1091.4064"/><text fill="#000000" font-family="sans-serif" font-size="12.6" lengthAdjust="spacing" textLength="74.7" x="569.25" y="1097.9736">String: status</text><line style="stroke:#181818;stroke-width:0.9;stroke-dasharray:1.0,2.0;" x1="552.15" x2="692.55" y1="1104.7359" y2="1104.7359"/><ellipse cx="561.15" cy="1118.0654" fill="#84BE84" rx="2.7" ry="2.7" style="stroke:#038048;stroke-width:0.9;"/><text fill="#000000" font-family="sans-serif" font-size="12.6" lengthAdjust="spacing" textLength="118.8" x="569.25" y="1121.9326">statusOfApplication()</text><ellipse cx="561.15" cy="1134.8244" fill="#84BE84" rx="2.7" ry="2.7" style="stroke:#038048;stroke-width:0.9;"/><text fill="#000000" font-family="sans-serif" font-size="12.6" lengthAdjust="spacing" textLength="53.1" x="569.25" y="1138.6916">toString()</text></g><!--class JREF--><g id="elem_JREF"><rect codeLine="45" fill="#F1F1F1" height="123.9539" id="JREF" rx="2.25" ry="2.25" style="stroke:#181818;stroke-width:0.45;" width="125.1" x="6.3" y="792.9"/><ellipse cx="23.85" cy="822.5385" fill="#ADD1B2" rx="9.9" ry="9.9" style="stroke:#181818;stroke-width:0.9;"/><path d="M26.3391,818.826 Q26.4797,818.6291 26.6484,818.5307 Q26.8172,818.4322 27.0141,818.4322 Q27.3516,818.4322 27.5625,818.6713 Q27.7734,818.8963 27.7734,819.4447 L27.7734,820.7525 Q27.7734,821.301 27.5625,821.54 Q27.3516,821.7791 27.0141,821.7791 Q26.7047,821.7791 26.5219,821.5963 Q26.3391,821.4275 26.2406,820.9635 Q26.1984,820.64 26.0297,820.4713 Q25.7344,820.1338 25.1859,819.9369 Q24.6375,819.74 24.075,819.74 Q23.3859,819.74 22.8094,820.0354 Q22.2469,820.3307 21.7969,821.0057 Q21.3609,821.6807 21.3609,822.6088 L21.3609,823.5932 Q21.3609,824.7041 22.1625,825.4494 Q22.9641,826.1807 24.3984,826.1807 Q25.2422,826.1807 25.8328,825.9557 Q26.1844,825.815 26.5641,825.4213 Q26.8031,825.1822 26.9297,825.1119 Q27.0703,825.0416 27.2531,825.0416 Q27.5484,825.0416 27.7734,825.2807 Q28.0125,825.5057 28.0125,825.815 Q28.0125,826.1244 27.7031,826.49 Q27.2531,827.0104 26.5359,827.3057 Q25.5656,827.7135 24.3984,827.7135 Q23.0344,827.7135 21.9516,827.151 Q21.0656,826.701 20.4469,825.7447 Q19.8281,824.7744 19.8281,823.6213 L19.8281,822.5807 Q19.8281,821.3854 20.3766,820.3588 Q20.9391,819.3182 21.9234,818.7697 Q22.9078,818.2072 24.0188,818.2072 Q24.6797,818.2072 25.2563,818.3619 Q25.8469,818.5025 26.3391,818.826 Z " fill="#000000"/><text fill="#000000" font-family="sans-serif" font-size="12.6" lengthAdjust="spacing" textLength="57.6" x="52.2" y="810.9967">&#171;Domain&#187;</text><text fill="#000000" font-family="sans-serif" font-size="12.6" lengthAdjust="spacing" textLength="87.3" x="37.35" y="827.7557">&#171;Value Object&#187;</text><text fill="#000000" font-family="sans-serif" font-size="12.6" lengthAdjust="spacing" textLength="79.2" x="41.4" y="844.5146">JobReference</text><line style="stroke:#181818;stroke-width:0.45;" x1="7.2" x2="130.5" y1="852.177" y2="852.177"/><rect fill="none" height="5.4" style="stroke:#C82930;stroke-width:0.9;" width="5.4" x="13.5" y="862.8064"/><text fill="#000000" font-family="sans-serif" font-size="12.6" lengthAdjust="spacing" textLength="101.7" x="24.3" y="869.3736">Integer: reference</text><line style="stroke:#181818;stroke-width:0.9;stroke-dasharray:1.0,2.0;" x1="7.2" x2="130.5" y1="876.1359" y2="876.1359"/><ellipse cx="16.2" cy="889.4654" fill="#84BE84" rx="2.7" ry="2.7" style="stroke:#038048;stroke-width:0.9;"/><text fill="#000000" font-family="sans-serif" font-size="12.6" lengthAdjust="spacing" textLength="94.5" x="24.3" y="893.3326">jobOpeningRef()</text><ellipse cx="16.2" cy="906.2244" fill="#84BE84" rx="2.7" ry="2.7" style="stroke:#038048;stroke-width:0.9;"/><text fill="#000000" font-family="sans-serif" font-size="12.6" lengthAdjust="spacing" textLength="53.1" x="24.3" y="910.0916">toString()</text></g><!--class AREPO--><g id="elem_AREPO"><rect codeLine="51" fill="#F1F1F1" height="140.7129" id="AREPO" rx="2.25" ry="2.25" style="stroke:#181818;stroke-width:0.45;" width="221.4" x="409.05" y="522.9"/><ellipse cx="454.275" cy="552.5385" fill="#ADD1B2" rx="9.9" ry="9.9" style="stroke:#181818;stroke-width:0.9;"/><path d="M456.7641,548.826 Q456.9047,548.6291 457.0734,548.5307 Q457.2422,548.4322 457.4391,548.4322 Q457.7766,548.4322 457.9875,548.6713 Q458.1984,548.8963 458.1984,549.4447 L458.1984,550.7525 Q458.1984,551.301 457.9875,551.54 Q457.7766,551.7791 457.4391,551.7791 Q457.1297,551.7791 456.9469,551.5963 Q456.7641,551.4275 456.6656,550.9635 Q456.6234,550.64 456.4547,550.4713 Q456.1594,550.1338 455.6109,549.9369 Q455.0625,549.74 454.5,549.74 Q453.8109,549.74 453.2344,550.0354 Q452.6719,550.3307 452.2219,551.0057 Q451.7859,551.6807 451.7859,552.6088 L451.7859,553.5932 Q451.7859,554.7041 452.5875,555.4494 Q453.3891,556.1807 454.8234,556.1807 Q455.6672,556.1807 456.2578,555.9557 Q456.6094,555.815 456.9891,555.4213 Q457.2281,555.1822 457.3547,555.1119 Q457.4953,555.0416 457.6781,555.0416 Q457.9734,555.0416 458.1984,555.2807 Q458.4375,555.5057 458.4375,555.815 Q458.4375,556.1244 458.1281,556.49 Q457.6781,557.0104 456.9609,557.3057 Q455.9906,557.7135 454.8234,557.7135 Q453.4594,557.7135 452.3766,557.151 Q451.4906,556.701 450.8719,555.7447 Q450.2531,554.7744 450.2531,553.6213 L450.2531,552.5807 Q450.2531,551.3854 450.8016,550.3588 Q451.3641,549.3182 452.3484,548.7697 Q453.3328,548.2072 454.4438,548.2072 Q455.1047,548.2072 455.6813,548.3619 Q456.2719,548.5025 456.7641,548.826 Z " fill="#000000"/><text fill="#000000" font-family="sans-serif" font-size="12.6" lengthAdjust="spacing" textLength="81" x="493.875" y="540.9967">&#171;Persistence&#187;</text><text fill="#000000" font-family="sans-serif" font-size="12.6" lengthAdjust="spacing" textLength="75.6" x="496.575" y="557.7557">&#171;Repository&#187;</text><text fill="#000000" font-family="sans-serif" font-size="12.6" lengthAdjust="spacing" textLength="123.3" x="472.725" y="574.5146">ApplicationRepository</text><line style="stroke:#181818;stroke-width:0.45;" x1="409.95" x2="629.55" y1="582.177" y2="582.177"/><line style="stroke:#181818;stroke-width:0.45;" x1="409.95" x2="629.55" y1="589.377" y2="589.377"/><ellipse cx="418.95" cy="602.7064" fill="#84BE84" rx="2.7" ry="2.7" style="stroke:#038048;stroke-width:0.9;"/><text fill="#000000" font-family="sans-serif" font-size="12.6" lengthAdjust="spacing" textLength="43.2" x="427.05" y="606.5736">findAll()</text><ellipse cx="418.95" cy="619.4654" fill="#84BE84" rx="2.7" ry="2.7" style="stroke:#038048;stroke-width:0.9;"/><text fill="#000000" font-family="sans-serif" font-size="12.6" lengthAdjust="spacing" textLength="198" x="427.05" y="623.3326">findAllById(Iterable&lt;Email&gt;: emails)</text><ellipse cx="418.95" cy="636.2244" fill="#84BE84" rx="2.7" ry="2.7" style="stroke:#038048;stroke-width:0.9;"/><text fill="#000000" font-family="sans-serif" font-size="12.6" lengthAdjust="spacing" textLength="121.5" x="427.05" y="640.0916">findById(Email: email)</text><ellipse cx="418.95" cy="652.9834" fill="#84BE84" rx="2.7" ry="2.7" style="stroke:#038048;stroke-width:0.9;"/><text fill="#000000" font-family="sans-serif" font-size="12.6" lengthAdjust="spacing" textLength="106.2" x="427.05" y="656.8506">save(Entity: Entity)</text></g><!--class UI--><g id="elem_UI"><rect codeLine="57" fill="#F1F1F1" height="73.677" id="UI" rx="2.25" ry="2.25" style="stroke:#181818;stroke-width:0.45;" width="144.9" x="605.7" y="6.3"/><ellipse cx="619.2" cy="27.559" fill="#ADD1B2" rx="9.9" ry="9.9" style="stroke:#181818;stroke-width:0.9;"/><path d="M621.6891,23.8465 Q621.8297,23.6496 621.9984,23.5512 Q622.1672,23.4527 622.3641,23.4527 Q622.7016,23.4527 622.9125,23.6918 Q623.1234,23.9168 623.1234,24.4652 L623.1234,25.773 Q623.1234,26.3215 622.9125,26.5605 Q622.7016,26.7996 622.3641,26.7996 Q622.0547,26.7996 621.8719,26.6168 Q621.6891,26.448 621.5906,25.984 Q621.5484,25.6605 621.3797,25.4918 Q621.0844,25.1543 620.5359,24.9574 Q619.9875,24.7605 619.425,24.7605 Q618.7359,24.7605 618.1594,25.0559 Q617.5969,25.3512 617.1469,26.0262 Q616.7109,26.7012 616.7109,27.6293 L616.7109,28.6137 Q616.7109,29.7246 617.5125,30.4699 Q618.3141,31.2012 619.7484,31.2012 Q620.5922,31.2012 621.1828,30.9762 Q621.5344,30.8355 621.9141,30.4418 Q622.1531,30.2027 622.2797,30.1324 Q622.4203,30.0621 622.6031,30.0621 Q622.8984,30.0621 623.1234,30.3012 Q623.3625,30.5262 623.3625,30.8355 Q623.3625,31.1449 623.0531,31.5105 Q622.6031,32.0309 621.8859,32.3262 Q620.9156,32.734 619.7484,32.734 Q618.3844,32.734 617.3016,32.1715 Q616.4156,31.7215 615.7969,30.7652 Q615.1781,29.7949 615.1781,28.6418 L615.1781,27.6012 Q615.1781,26.4059 615.7266,25.3793 Q616.2891,24.3387 617.2734,23.7902 Q618.2578,23.2277 619.3688,23.2277 Q620.0297,23.2277 620.6063,23.3824 Q621.1969,23.523 621.6891,23.8465 Z " fill="#000000"/><text fill="#000000" font-family="sans-serif" font-size="12.6" lengthAdjust="spacing" textLength="86.4" x="646.65" y="24.3967">&#171;Presentation&#187;</text><text fill="#000000" font-family="sans-serif" font-size="12.6" lengthAdjust="spacing" textLength="116.1" x="631.8" y="41.1557">ListCandidateDataUI</text><line style="stroke:#181818;stroke-width:0.45;" x1="606.6" x2="749.7" y1="48.818" y2="48.818"/><line style="stroke:#181818;stroke-width:0.9;stroke-dasharray:1.0,2.0;" x1="606.6" x2="749.7" y1="56.018" y2="56.018"/><ellipse cx="615.6" cy="69.3475" fill="#84BE84" rx="2.7" ry="2.7" style="stroke:#038048;stroke-width:0.9;"/><text fill="#000000" font-family="sans-serif" font-size="12.6" lengthAdjust="spacing" textLength="54" x="623.7" y="73.2146">doShow()</text></g><!--class CTRL--><g id="elem_CTRL"><rect codeLine="61" fill="#F1F1F1" height="73.677" id="CTRL" rx="2.25" ry="2.25" style="stroke:#181818;stroke-width:0.45;" width="189.9" x="583.2" y="207"/><ellipse cx="596.7" cy="228.259" fill="#ADD1B2" rx="9.9" ry="9.9" style="stroke:#181818;stroke-width:0.9;"/><path d="M599.1891,224.5465 Q599.3297,224.3496 599.4984,224.2512 Q599.6672,224.1527 599.8641,224.1527 Q600.2016,224.1527 600.4125,224.3918 Q600.6234,224.6168 600.6234,225.1652 L600.6234,226.473 Q600.6234,227.0215 600.4125,227.2605 Q600.2016,227.4996 599.8641,227.4996 Q599.5547,227.4996 599.3719,227.3168 Q599.1891,227.148 599.0906,226.684 Q599.0484,226.3605 598.8797,226.1918 Q598.5844,225.8543 598.0359,225.6574 Q597.4875,225.4605 596.925,225.4605 Q596.2359,225.4605 595.6594,225.7559 Q595.0969,226.0512 594.6469,226.7262 Q594.2109,227.4012 594.2109,228.3293 L594.2109,229.3137 Q594.2109,230.4246 595.0125,231.1699 Q595.8141,231.9012 597.2484,231.9012 Q598.0922,231.9012 598.6828,231.6762 Q599.0344,231.5355 599.4141,231.1418 Q599.6531,230.9027 599.7797,230.8324 Q599.9203,230.7621 600.1031,230.7621 Q600.3984,230.7621 600.6234,231.0012 Q600.8625,231.2262 600.8625,231.5355 Q600.8625,231.8449 600.5531,232.2105 Q600.1031,232.7309 599.3859,233.0262 Q598.4156,233.434 597.2484,233.434 Q595.8844,233.434 594.8016,232.8715 Q593.9156,232.4215 593.2969,231.4652 Q592.6781,230.4949 592.6781,229.3418 L592.6781,228.3012 Q592.6781,227.1059 593.2266,226.0793 Q593.7891,225.0387 594.7734,224.4902 Q595.7578,223.9277 596.8688,223.9277 Q597.5297,223.9277 598.1063,224.0824 Q598.6969,224.223 599.1891,224.5465 Z " fill="#000000"/><text fill="#000000" font-family="sans-serif" font-size="12.6" lengthAdjust="spacing" textLength="76.5" x="651.6" y="225.0967">&#171;Application&#187;</text><text fill="#000000" font-family="sans-serif" font-size="12.6" lengthAdjust="spacing" textLength="161.1" x="609.3" y="241.8557">ListCandidateDataController</text><line style="stroke:#181818;stroke-width:0.45;" x1="584.1" x2="772.2" y1="249.518" y2="249.518"/><line style="stroke:#181818;stroke-width:0.9;stroke-dasharray:1.0,2.0;" x1="584.1" x2="772.2" y1="256.718" y2="256.718"/><ellipse cx="593.1" cy="270.0475" fill="#84BE84" rx="2.7" ry="2.7" style="stroke:#038048;stroke-width:0.9;"/><text fill="#000000" font-family="sans-serif" font-size="12.6" lengthAdjust="spacing" textLength="89.1" x="601.2" y="273.9146">listCandidates()</text></g><!--class DREPO--><g id="elem_DREPO"><rect codeLine="65" fill="#F1F1F1" height="123.9539" id="DREPO" rx="2.25" ry="2.25" style="stroke:#181818;stroke-width:0.45;" width="174.6" x="419.85" y="1200.6"/><ellipse cx="451.98" cy="1221.859" fill="#B4A7E5" rx="9.9" ry="9.9" style="stroke:#181818;stroke-width:0.9;"/><path d="M452.8378,1218.8355 L452.8378,1224.8262 L454.3847,1224.8262 Q454.9331,1224.8262 455.1722,1225.0371 Q455.4113,1225.248 455.4113,1225.5996 Q455.4113,1225.9371 455.1722,1226.148 Q454.9331,1226.359 454.3847,1226.359 L449.7581,1226.359 Q449.2097,1226.359 448.9706,1226.148 Q448.7316,1225.9371 448.7316,1225.5855 Q448.7316,1225.248 448.9706,1225.0371 Q449.2097,1224.8262 449.7581,1224.8262 L451.305,1224.8262 L451.305,1218.8355 L449.7581,1218.8355 Q449.2097,1218.8355 448.9706,1218.6246 Q448.7316,1218.4137 448.7316,1218.0621 Q448.7316,1217.7246 448.9706,1217.5137 Q449.2097,1217.3027 449.7581,1217.3027 L454.3847,1217.3027 Q454.9331,1217.3027 455.1722,1217.5137 Q455.4113,1217.7246 455.4113,1218.0621 Q455.4113,1218.4137 455.1722,1218.6246 Q454.9331,1218.8355 454.3847,1218.8355 L452.8378,1218.8355 Z " fill="#000000"/><text fill="#000000" font-family="sans-serif" font-size="12.6" font-style="italic" lengthAdjust="spacing" textLength="99" x="471.42" y="1218.6967">&#171;Persistentence&#187;</text><text fill="#000000" font-family="sans-serif" font-size="12.6" font-style="italic" lengthAdjust="spacing" textLength="104.4" x="468.72" y="1235.4557">DomainRepository</text><line style="stroke:#181818;stroke-width:0.45;" x1="420.75" x2="593.55" y1="1243.118" y2="1243.118"/><line style="stroke:#181818;stroke-width:0.9;stroke-dasharray:1.0,2.0;" x1="420.75" x2="593.55" y1="1250.318" y2="1250.318"/><rect fill="#F24D5C" height="5.4" style="stroke:#C82930;stroke-width:0.9;" width="5.4" x="427.05" y="1260.9475"/><text fill="#000000" font-family="sans-serif" font-size="12.6" lengthAdjust="spacing" textLength="43.2" x="437.85" y="1267.5146">findAll()</text><rect fill="#F24D5C" height="5.4" style="stroke:#C82930;stroke-width:0.9;" width="5.4" x="427.05" y="1277.7064"/><text fill="#000000" font-family="sans-serif" font-size="12.6" lengthAdjust="spacing" textLength="151.2" x="437.85" y="1284.2736">findAllById(Iterable&lt;Id&gt;: id)</text><rect fill="#F24D5C" height="5.4" style="stroke:#C82930;stroke-width:0.9;" width="5.4" x="427.05" y="1294.4654"/><text fill="#000000" font-family="sans-serif" font-size="12.6" lengthAdjust="spacing" textLength="81" x="437.85" y="1301.0326">findById(Id: id)</text><rect fill="#F24D5C" height="5.4" style="stroke:#C82930;stroke-width:0.9;" width="5.4" x="427.05" y="1311.2244"/><text fill="#000000" font-family="sans-serif" font-size="12.6" lengthAdjust="spacing" textLength="106.2" x="437.85" y="1317.7916">save(Entity: Entity)</text></g><!--class ABUI--><g id="elem_ABUI"><rect codeLine="72" fill="#F1F1F1" height="73.677" id="ABUI" rx="2.25" ry="2.25" style="stroke:#181818;stroke-width:0.45;" width="115.2" x="805.05" y="207"/><ellipse cx="818.55" cy="228.259" fill="#B4A7E5" rx="9.9" ry="9.9" style="stroke:#181818;stroke-width:0.9;"/><path d="M819.4078,225.2355 L819.4078,231.2262 L820.9547,231.2262 Q821.5031,231.2262 821.7422,231.4371 Q821.9813,231.648 821.9813,231.9996 Q821.9813,232.3371 821.7422,232.548 Q821.5031,232.759 820.9547,232.759 L816.3281,232.759 Q815.7797,232.759 815.5406,232.548 Q815.3016,232.3371 815.3016,231.9855 Q815.3016,231.648 815.5406,231.4371 Q815.7797,231.2262 816.3281,231.2262 L817.875,231.2262 L817.875,225.2355 L816.3281,225.2355 Q815.7797,225.2355 815.5406,225.0246 Q815.3016,224.8137 815.3016,224.4621 Q815.3016,224.1246 815.5406,223.9137 Q815.7797,223.7027 816.3281,223.7027 L820.9547,223.7027 Q821.5031,223.7027 821.7422,223.9137 Q821.9813,224.1246 821.9813,224.4621 Q821.9813,224.8137 821.7422,225.0246 Q821.5031,225.2355 820.9547,225.2355 L819.4078,225.2355 Z " fill="#000000"/><text fill="#000000" font-family="sans-serif" font-size="12.6" font-style="italic" lengthAdjust="spacing" textLength="86.4" x="831.15" y="225.0967">&#171;Presentation&#187;</text><text fill="#000000" font-family="sans-serif" font-size="12.6" font-style="italic" lengthAdjust="spacing" textLength="59.4" x="844.65" y="241.8557">AbstractUI</text><line style="stroke:#181818;stroke-width:0.45;" x1="805.95" x2="919.35" y1="249.518" y2="249.518"/><line style="stroke:#181818;stroke-width:0.9;stroke-dasharray:1.0,2.0;" x1="805.95" x2="919.35" y1="256.718" y2="256.718"/><rect fill="#F24D5C" height="5.4" style="stroke:#C82930;stroke-width:0.9;" width="5.4" x="812.25" y="267.3475"/><text fill="#000000" font-family="sans-serif" font-size="12.6" lengthAdjust="spacing" textLength="54" x="823.05" y="273.9146">doShow()</text></g><!--class CREPO--><g id="elem_CREPO"><rect codeLine="76" fill="#F1F1F1" height="140.7129" id="CREPO" rx="2.25" ry="2.25" style="stroke:#181818;stroke-width:0.45;" width="221.4" x="1230.75" y="784.8"/><ellipse cx="1277.775" cy="814.4385" fill="#ADD1B2" rx="9.9" ry="9.9" style="stroke:#181818;stroke-width:0.9;"/><path d="M1280.2641,810.726 Q1280.4047,810.5291 1280.5734,810.4307 Q1280.7422,810.3322 1280.9391,810.3322 Q1281.2766,810.3322 1281.4875,810.5713 Q1281.6984,810.7963 1281.6984,811.3447 L1281.6984,812.6525 Q1281.6984,813.201 1281.4875,813.44 Q1281.2766,813.6791 1280.9391,813.6791 Q1280.6297,813.6791 1280.4469,813.4963 Q1280.2641,813.3275 1280.1656,812.8635 Q1280.1234,812.54 1279.9547,812.3713 Q1279.6594,812.0338 1279.1109,811.8369 Q1278.5625,811.64 1278,811.64 Q1277.3109,811.64 1276.7344,811.9354 Q1276.1719,812.2307 1275.7219,812.9057 Q1275.2859,813.5807 1275.2859,814.5088 L1275.2859,815.4932 Q1275.2859,816.6041 1276.0875,817.3494 Q1276.8891,818.0807 1278.3234,818.0807 Q1279.1672,818.0807 1279.7578,817.8557 Q1280.1094,817.715 1280.4891,817.3213 Q1280.7281,817.0822 1280.8547,817.0119 Q1280.9953,816.9416 1281.1781,816.9416 Q1281.4734,816.9416 1281.6984,817.1807 Q1281.9375,817.4057 1281.9375,817.715 Q1281.9375,818.0244 1281.6281,818.39 Q1281.1781,818.9104 1280.4609,819.2057 Q1279.4906,819.6135 1278.3234,819.6135 Q1276.9594,819.6135 1275.8766,819.051 Q1274.9906,818.601 1274.3719,817.6447 Q1273.7531,816.6744 1273.7531,815.5213 L1273.7531,814.4807 Q1273.7531,813.2854 1274.3016,812.2588 Q1274.8641,811.2182 1275.8484,810.6697 Q1276.8328,810.1072 1277.9438,810.1072 Q1278.6047,810.1072 1279.1813,810.2619 Q1279.7719,810.4025 1280.2641,810.726 Z " fill="#000000"/><text fill="#000000" font-family="sans-serif" font-size="12.6" lengthAdjust="spacing" textLength="81" x="1315.575" y="802.8967">&#171;Persistence&#187;</text><text fill="#000000" font-family="sans-serif" font-size="12.6" lengthAdjust="spacing" textLength="75.6" x="1318.275" y="819.6557">&#171;Repository&#187;</text><text fill="#000000" font-family="sans-serif" font-size="12.6" lengthAdjust="spacing" textLength="119.7" x="1296.225" y="836.4146">CandidateRepository</text><line style="stroke:#181818;stroke-width:0.45;" x1="1231.65" x2="1451.25" y1="844.077" y2="844.077"/><line style="stroke:#181818;stroke-width:0.9;stroke-dasharray:1.0,2.0;" x1="1231.65" x2="1451.25" y1="851.277" y2="851.277"/><ellipse cx="1240.65" cy="864.6064" fill="#84BE84" rx="2.7" ry="2.7" style="stroke:#038048;stroke-width:0.9;"/><text fill="#000000" font-family="sans-serif" font-size="12.6" lengthAdjust="spacing" textLength="43.2" x="1248.75" y="868.4736">findAll()</text><ellipse cx="1240.65" cy="881.3654" fill="#84BE84" rx="2.7" ry="2.7" style="stroke:#038048;stroke-width:0.9;"/><text fill="#000000" font-family="sans-serif" font-size="12.6" lengthAdjust="spacing" textLength="198" x="1248.75" y="885.2326">findAllById(Iterable&lt;Email&gt;: emails)</text><ellipse cx="1240.65" cy="898.1244" fill="#84BE84" rx="2.7" ry="2.7" style="stroke:#038048;stroke-width:0.9;"/><text fill="#000000" font-family="sans-serif" font-size="12.6" lengthAdjust="spacing" textLength="121.5" x="1248.75" y="901.9916">findById(Email: email)</text><ellipse cx="1240.65" cy="914.8834" fill="#84BE84" rx="2.7" ry="2.7" style="stroke:#038048;stroke-width:0.9;"/><text fill="#000000" font-family="sans-serif" font-size="12.6" lengthAdjust="spacing" textLength="106.2" x="1248.75" y="918.7506">save(Entity: Entity)</text></g><!--class C--><g id="elem_C"><rect codeLine="83" fill="#F1F1F1" height="190.9898" id="C" rx="2.25" ry="2.25" style="stroke:#181818;stroke-width:0.45;" width="167.4" x="823.95" y="497.7"/><ellipse cx="865.575" cy="527.3385" fill="#ADD1B2" rx="9.9" ry="9.9" style="stroke:#181818;stroke-width:0.9;"/><path d="M868.0641,523.626 Q868.2047,523.4291 868.3734,523.3307 Q868.5422,523.2322 868.7391,523.2322 Q869.0766,523.2322 869.2875,523.4713 Q869.4984,523.6963 869.4984,524.2447 L869.4984,525.5525 Q869.4984,526.101 869.2875,526.34 Q869.0766,526.5791 868.7391,526.5791 Q868.4297,526.5791 868.2469,526.3963 Q868.0641,526.2275 867.9656,525.7635 Q867.9234,525.44 867.7547,525.2713 Q867.4594,524.9338 866.9109,524.7369 Q866.3625,524.54 865.8,524.54 Q865.1109,524.54 864.5344,524.8354 Q863.9719,525.1307 863.5219,525.8057 Q863.0859,526.4807 863.0859,527.4088 L863.0859,528.3932 Q863.0859,529.5041 863.8875,530.2494 Q864.6891,530.9807 866.1234,530.9807 Q866.9672,530.9807 867.5578,530.7557 Q867.9094,530.615 868.2891,530.2213 Q868.5281,529.9822 868.6547,529.9119 Q868.7953,529.8416 868.9781,529.8416 Q869.2734,529.8416 869.4984,530.0807 Q869.7375,530.3057 869.7375,530.615 Q869.7375,530.9244 869.4281,531.29 Q868.9781,531.8104 868.2609,532.1057 Q867.2906,532.5135 866.1234,532.5135 Q864.7594,532.5135 863.6766,531.951 Q862.7906,531.501 862.1719,530.5447 Q861.5531,529.5744 861.5531,528.4213 L861.5531,527.3807 Q861.5531,526.1854 862.1016,525.1588 Q862.6641,524.1182 863.6484,523.5697 Q864.6328,523.0072 865.7438,523.0072 Q866.4047,523.0072 866.9813,523.1619 Q867.5719,523.3025 868.0641,523.626 Z " fill="#000000"/><text fill="#000000" font-family="sans-serif" font-size="12.6" lengthAdjust="spacing" textLength="57.6" x="893.475" y="515.7967">&#171;Domain&#187;</text><text fill="#000000" font-family="sans-serif" font-size="12.6" lengthAdjust="spacing" textLength="76.5" x="884.025" y="532.5557">&#171;Root Entity&#187;</text><text fill="#000000" font-family="sans-serif" font-size="12.6" lengthAdjust="spacing" textLength="58.5" x="893.025" y="549.3146">Candidate</text><line style="stroke:#181818;stroke-width:0.45;" x1="824.85" x2="990.45" y1="556.977" y2="556.977"/><rect fill="none" height="5.4" style="stroke:#C82930;stroke-width:0.9;" width="5.4" x="831.15" y="567.6064"/><text fill="#000000" font-family="sans-serif" font-size="12.6" lengthAdjust="spacing" textLength="129.6" x="841.95" y="574.1736">CandidateName: name</text><rect fill="none" height="5.4" style="stroke:#C82930;stroke-width:0.9;" width="5.4" x="831.15" y="584.3654"/><text fill="#000000" font-family="sans-serif" font-size="12.6" lengthAdjust="spacing" textLength="67.5" x="841.95" y="590.9326">Email: email</text><rect fill="none" height="5.4" style="stroke:#C82930;stroke-width:0.9;" width="5.4" x="831.15" y="601.1244"/><text fill="#000000" font-family="sans-serif" font-size="12.6" lengthAdjust="spacing" textLength="131.4" x="841.95" y="607.6916">PhoneNumber: number</text><line style="stroke:#181818;stroke-width:0.9;stroke-dasharray:1.0,2.0;" x1="824.85" x2="990.45" y1="614.4539" y2="614.4539"/><ellipse cx="833.85" cy="627.7834" fill="#84BE84" rx="2.7" ry="2.7" style="stroke:#038048;stroke-width:0.9;"/><text fill="#000000" font-family="sans-serif" font-size="12.6" lengthAdjust="spacing" textLength="144" x="841.95" y="631.6506">valueOfCandidateName()</text><ellipse cx="833.85" cy="644.5424" fill="#84BE84" rx="2.7" ry="2.7" style="stroke:#038048;stroke-width:0.9;"/><text fill="#000000" font-family="sans-serif" font-size="12.6" lengthAdjust="spacing" textLength="83.7" x="841.95" y="648.4096">valueOfEmail()</text><ellipse cx="833.85" cy="661.3014" fill="#84BE84" rx="2.7" ry="2.7" style="stroke:#038048;stroke-width:0.9;"/><text fill="#000000" font-family="sans-serif" font-size="12.6" lengthAdjust="spacing" textLength="134.1" x="841.95" y="665.1686">valueOfPhoneNumber()</text><ellipse cx="833.85" cy="678.0604" fill="#84BE84" rx="2.7" ry="2.7" style="stroke:#038048;stroke-width:0.9;"/><text fill="#000000" font-family="sans-serif" font-size="12.6" lengthAdjust="spacing" textLength="53.1" x="841.95" y="681.9275">toString()</text></g><!--class CNAME--><g id="elem_CNAME"><rect codeLine="93" fill="#F1F1F1" height="123.9539" id="CNAME" rx="2.25" ry="2.25" style="stroke:#181818;stroke-width:0.45;" width="167.4" x="834.75" y="792.9"/><ellipse cx="869.715" cy="822.5385" fill="#ADD1B2" rx="9.9" ry="9.9" style="stroke:#181818;stroke-width:0.9;"/><path d="M872.2041,818.826 Q872.3447,818.6291 872.5134,818.5307 Q872.6822,818.4322 872.8791,818.4322 Q873.2166,818.4322 873.4275,818.6713 Q873.6384,818.8963 873.6384,819.4447 L873.6384,820.7525 Q873.6384,821.301 873.4275,821.54 Q873.2166,821.7791 872.8791,821.7791 Q872.5697,821.7791 872.3869,821.5963 Q872.2041,821.4275 872.1056,820.9635 Q872.0634,820.64 871.8947,820.4713 Q871.5994,820.1338 871.0509,819.9369 Q870.5025,819.74 869.94,819.74 Q869.2509,819.74 868.6744,820.0354 Q868.1119,820.3307 867.6619,821.0057 Q867.2259,821.6807 867.2259,822.6088 L867.2259,823.5932 Q867.2259,824.7041 868.0275,825.4494 Q868.8291,826.1807 870.2634,826.1807 Q871.1072,826.1807 871.6978,825.9557 Q872.0494,825.815 872.4291,825.4213 Q872.6681,825.1822 872.7947,825.1119 Q872.9353,825.0416 873.1181,825.0416 Q873.4134,825.0416 873.6384,825.2807 Q873.8775,825.5057 873.8775,825.815 Q873.8775,826.1244 873.5681,826.49 Q873.1181,827.0104 872.4009,827.3057 Q871.4306,827.7135 870.2634,827.7135 Q868.8994,827.7135 867.8166,827.151 Q866.9306,826.701 866.3119,825.7447 Q865.6931,824.7744 865.6931,823.6213 L865.6931,822.5807 Q865.6931,821.3854 866.2416,820.3588 Q866.8041,819.3182 867.7884,818.7697 Q868.7728,818.2072 869.8838,818.2072 Q870.5447,818.2072 871.1213,818.3619 Q871.7119,818.5025 872.2041,818.826 Z " fill="#000000"/><text fill="#000000" font-family="sans-serif" font-size="12.6" lengthAdjust="spacing" textLength="57.6" x="903.735" y="810.9967">&#171;Domain&#187;</text><text fill="#000000" font-family="sans-serif" font-size="12.6" lengthAdjust="spacing" textLength="87.3" x="888.885" y="827.7557">&#171;Value Object&#187;</text><text fill="#000000" font-family="sans-serif" font-size="12.6" lengthAdjust="spacing" textLength="90.9" x="887.085" y="844.5146">CandidateName</text><line style="stroke:#181818;stroke-width:0.45;" x1="835.65" x2="1001.25" y1="852.177" y2="852.177"/><rect fill="none" height="5.4" style="stroke:#C82930;stroke-width:0.9;" width="5.4" x="841.95" y="862.8064"/><text fill="#000000" font-family="sans-serif" font-size="12.6" lengthAdjust="spacing" textLength="144" x="852.75" y="869.3736">String: nameOfCandidate</text><line style="stroke:#181818;stroke-width:0.9;stroke-dasharray:1.0,2.0;" x1="835.65" x2="1001.25" y1="876.1359" y2="876.1359"/><ellipse cx="844.65" cy="889.4654" fill="#84BE84" rx="2.7" ry="2.7" style="stroke:#038048;stroke-width:0.9;"/><text fill="#000000" font-family="sans-serif" font-size="12.6" lengthAdjust="spacing" textLength="144" x="852.75" y="893.3326">valueOfCandidateName()</text><ellipse cx="844.65" cy="906.2244" fill="#84BE84" rx="2.7" ry="2.7" style="stroke:#038048;stroke-width:0.9;"/><text fill="#000000" font-family="sans-serif" font-size="12.6" lengthAdjust="spacing" textLength="53.1" x="852.75" y="910.0916">toString()</text></g><!--class CEMAIL--><g id="elem_CEMAIL"><rect codeLine="99" fill="#F1F1F1" height="123.9539" id="CEMAIL" rx="2.25" ry="2.25" style="stroke:#181818;stroke-width:0.45;" width="165.6" x="1033.65" y="792.9"/><ellipse cx="1069.425" cy="822.5385" fill="#ADD1B2" rx="9.9" ry="9.9" style="stroke:#181818;stroke-width:0.9;"/><path d="M1071.9141,818.826 Q1072.0547,818.6291 1072.2234,818.5307 Q1072.3922,818.4322 1072.5891,818.4322 Q1072.9266,818.4322 1073.1375,818.6713 Q1073.3484,818.8963 1073.3484,819.4447 L1073.3484,820.7525 Q1073.3484,821.301 1073.1375,821.54 Q1072.9266,821.7791 1072.5891,821.7791 Q1072.2797,821.7791 1072.0969,821.5963 Q1071.9141,821.4275 1071.8156,820.9635 Q1071.7734,820.64 1071.6047,820.4713 Q1071.3094,820.1338 1070.7609,819.9369 Q1070.2125,819.74 1069.65,819.74 Q1068.9609,819.74 1068.3844,820.0354 Q1067.8219,820.3307 1067.3719,821.0057 Q1066.9359,821.6807 1066.9359,822.6088 L1066.9359,823.5932 Q1066.9359,824.7041 1067.7375,825.4494 Q1068.5391,826.1807 1069.9734,826.1807 Q1070.8172,826.1807 1071.4078,825.9557 Q1071.7594,825.815 1072.1391,825.4213 Q1072.3781,825.1822 1072.5047,825.1119 Q1072.6453,825.0416 1072.8281,825.0416 Q1073.1234,825.0416 1073.3484,825.2807 Q1073.5875,825.5057 1073.5875,825.815 Q1073.5875,826.1244 1073.2781,826.49 Q1072.8281,827.0104 1072.1109,827.3057 Q1071.1406,827.7135 1069.9734,827.7135 Q1068.6094,827.7135 1067.5266,827.151 Q1066.6406,826.701 1066.0219,825.7447 Q1065.4031,824.7744 1065.4031,823.6213 L1065.4031,822.5807 Q1065.4031,821.3854 1065.9516,820.3588 Q1066.5141,819.3182 1067.4984,818.7697 Q1068.4828,818.2072 1069.5938,818.2072 Q1070.2547,818.2072 1070.8313,818.3619 Q1071.4219,818.5025 1071.9141,818.826 Z " fill="#000000"/><text fill="#000000" font-family="sans-serif" font-size="12.6" lengthAdjust="spacing" textLength="57.6" x="1101.825" y="810.9967">&#171;Domain&#187;</text><text fill="#000000" font-family="sans-serif" font-size="12.6" lengthAdjust="spacing" textLength="87.3" x="1086.975" y="827.7557">&#171;Value Object&#187;</text><text fill="#000000" font-family="sans-serif" font-size="12.6" lengthAdjust="spacing" textLength="30.6" x="1115.325" y="844.5146">Email</text><line style="stroke:#181818;stroke-width:0.45;" x1="1034.55" x2="1198.35" y1="852.177" y2="852.177"/><rect fill="none" height="5.4" style="stroke:#C82930;stroke-width:0.9;" width="5.4" x="1040.85" y="862.8064"/><text fill="#000000" font-family="sans-serif" font-size="12.6" lengthAdjust="spacing" textLength="142.2" x="1051.65" y="869.3736">String: emailOfCandidate</text><line style="stroke:#181818;stroke-width:0.9;stroke-dasharray:1.0,2.0;" x1="1034.55" x2="1198.35" y1="876.1359" y2="876.1359"/><ellipse cx="1043.55" cy="889.4654" fill="#84BE84" rx="2.7" ry="2.7" style="stroke:#038048;stroke-width:0.9;"/><text fill="#000000" font-family="sans-serif" font-size="12.6" lengthAdjust="spacing" textLength="142.2" x="1051.65" y="893.3326">valueOfCandidateEmail()</text><ellipse cx="1043.55" cy="906.2244" fill="#84BE84" rx="2.7" ry="2.7" style="stroke:#038048;stroke-width:0.9;"/><text fill="#000000" font-family="sans-serif" font-size="12.6" lengthAdjust="spacing" textLength="53.1" x="1051.65" y="910.0916">toString()</text></g><!--class CPHONE--><g id="elem_CPHONE"><rect codeLine="105" fill="#F1F1F1" height="123.9539" id="CPHONE" rx="2.25" ry="2.25" style="stroke:#181818;stroke-width:0.45;" width="222.3" x="580.5" y="792.9"/><ellipse cx="644.175" cy="822.5385" fill="#ADD1B2" rx="9.9" ry="9.9" style="stroke:#181818;stroke-width:0.9;"/><path d="M646.6641,818.826 Q646.8047,818.6291 646.9734,818.5307 Q647.1422,818.4322 647.3391,818.4322 Q647.6766,818.4322 647.8875,818.6713 Q648.0984,818.8963 648.0984,819.4447 L648.0984,820.7525 Q648.0984,821.301 647.8875,821.54 Q647.6766,821.7791 647.3391,821.7791 Q647.0297,821.7791 646.8469,821.5963 Q646.6641,821.4275 646.5656,820.9635 Q646.5234,820.64 646.3547,820.4713 Q646.0594,820.1338 645.5109,819.9369 Q644.9625,819.74 644.4,819.74 Q643.7109,819.74 643.1344,820.0354 Q642.5719,820.3307 642.1219,821.0057 Q641.6859,821.6807 641.6859,822.6088 L641.6859,823.5932 Q641.6859,824.7041 642.4875,825.4494 Q643.2891,826.1807 644.7234,826.1807 Q645.5672,826.1807 646.1578,825.9557 Q646.5094,825.815 646.8891,825.4213 Q647.1281,825.1822 647.2547,825.1119 Q647.3953,825.0416 647.5781,825.0416 Q647.8734,825.0416 648.0984,825.2807 Q648.3375,825.5057 648.3375,825.815 Q648.3375,826.1244 648.0281,826.49 Q647.5781,827.0104 646.8609,827.3057 Q645.8906,827.7135 644.7234,827.7135 Q643.3594,827.7135 642.2766,827.151 Q641.3906,826.701 640.7719,825.7447 Q640.1531,824.7744 640.1531,823.6213 L640.1531,822.5807 Q640.1531,821.3854 640.7016,820.3588 Q641.2641,819.3182 642.2484,818.7697 Q643.2328,818.2072 644.3438,818.2072 Q645.0047,818.2072 645.5813,818.3619 Q646.1719,818.5025 646.6641,818.826 Z " fill="#000000"/><text fill="#000000" font-family="sans-serif" font-size="12.6" lengthAdjust="spacing" textLength="57.6" x="677.475" y="810.9967">&#171;Domain&#187;</text><text fill="#000000" font-family="sans-serif" font-size="12.6" lengthAdjust="spacing" textLength="87.3" x="662.625" y="827.7557">&#171;Value Object&#187;</text><text fill="#000000" font-family="sans-serif" font-size="12.6" lengthAdjust="spacing" textLength="81" x="665.775" y="844.5146">PhoneNumber</text><line style="stroke:#181818;stroke-width:0.45;" x1="581.4" x2="801.9" y1="852.177" y2="852.177"/><rect fill="none" height="5.4" style="stroke:#C82930;stroke-width:0.9;" width="5.4" x="587.7" y="862.8064"/><text fill="#000000" font-family="sans-serif" font-size="12.6" lengthAdjust="spacing" textLength="198.9" x="598.5" y="869.3736">Integer: phoneNumberOfCandidate</text><line style="stroke:#181818;stroke-width:0.9;stroke-dasharray:1.0,2.0;" x1="581.4" x2="801.9" y1="876.1359" y2="876.1359"/><ellipse cx="590.4" cy="889.4654" fill="#84BE84" rx="2.7" ry="2.7" style="stroke:#038048;stroke-width:0.9;"/><text fill="#000000" font-family="sans-serif" font-size="12.6" lengthAdjust="spacing" textLength="192.6" x="598.5" y="893.3326">valueOfCandidatePhoneNumber()</text><ellipse cx="590.4" cy="906.2244" fill="#84BE84" rx="2.7" ry="2.7" style="stroke:#038048;stroke-width:0.9;"/><text fill="#000000" font-family="sans-serif" font-size="12.6" lengthAdjust="spacing" textLength="53.1" x="598.5" y="910.0916">toString()</text></g><!--reverse link C to CPHONE--><g id="link_C_CPHONE"><path codeLine="112" d="M822.162,696.9434 C793.326,731.6654 768.375,761.715 742.599,792.747 " fill="none" id="C-backto-CPHONE" style="stroke:#181818;stroke-width:0.9;"/><polygon fill="none" points="829.062,688.635,822.8425,690.4892,822.162,696.9434,828.3815,695.0892,829.062,688.635" style="stroke:#181818;stroke-width:0.9;"/></g><!--reverse link C to CNAME--><g id="link_C_CNAME"><path codeLine="113" d="M912.0305,699.4257 C913.4705,734.1477 914.616,761.715 915.903,792.747 " fill="none" id="C-backto-CNAME" style="stroke:#181818;stroke-width:0.9;"/><polygon fill="none" points="911.583,688.635,908.2098,694.1795,912.0305,699.4257,915.4037,693.8812,911.583,688.635" style="stroke:#181818;stroke-width:0.9;"/></g><!--reverse link C to CEMAIL--><g id="link_C_CEMAIL"><path codeLine="114" d="M990.3798,697.0571 C1018.2528,731.7791 1042.281,761.715 1067.202,792.747 " fill="none" id="C-backto-CEMAIL" style="stroke:#181818;stroke-width:0.9;"/><polygon fill="none" points="983.619,688.635,984.192,695.0996,990.3798,697.0571,989.8068,690.5924,983.619,688.635" style="stroke:#181818;stroke-width:0.9;"/></g><!--link CREPO to DREPO--><g id="link_CREPO_DREPO"><path codeLine="116" d="M1254.06,925.398 C1241.415,934.281 1228.32,942.885 1215.45,950.4 C1002.78,1074.681 746.5694,1175.1195 609.6794,1225.2675 " fill="none" id="CREPO-to-DREPO" style="stroke:#181818;stroke-width:0.9;stroke-dasharray:7.0,7.0;"/><polygon fill="none" points="594.468,1230.84,611.5369,1230.338,607.8219,1220.197,594.468,1230.84" style="stroke:#181818;stroke-width:0.9;"/><text fill="#000000" font-family="sans-serif" font-size="11.7" lengthAdjust="spacing" textLength="60.3" x="1081.35" y="1088.5755">implements</text></g><!--link AREPO to DREPO--><g id="link_AREPO_DREPO"><path codeLine="118" d="M435.96,663.372 C422.109,672.75 407.484,681.534 392.85,688.5 C348.885,709.443 316.548,677.052 286.65,715.5 C169.137,866.628 208.62,982.224 308.25,1145.7 C333.27,1186.758 363.8698,1208.2799 404.9818,1226.5409 " fill="none" id="AREPO-to-DREPO" style="stroke:#181818;stroke-width:0.9;stroke-dasharray:7.0,7.0;"/><polygon fill="none" points="419.787,1233.117,407.1738,1221.6058,402.7897,1231.4759,419.787,1233.117" style="stroke:#181818;stroke-width:0.9;"/><text fill="#000000" font-family="sans-serif" font-size="11.7" lengthAdjust="spacing" textLength="60.3" x="232.65" y="990.9255">implements</text></g><!--reverse link AREPO to A--><g id="link_AREPO_A"><path codeLine="119" d="M494.4978,668.4766 C484.4898,697.9696 474.408,727.722 463.617,759.519 " fill="none" id="AREPO-backto-A" style="stroke:#181818;stroke-width:0.9;stroke-dasharray:7.0,7.0;"/><polygon fill="#181818" points="496.233,663.363,490.2211,669.8766,494.787,667.6243,497.0392,672.1902,496.233,663.363" style="stroke:#181818;stroke-width:0.9;"/><text fill="#000000" font-family="sans-serif" font-size="11.7" lengthAdjust="spacing" textLength="45" x="479.25" y="729.0255">stored in</text></g><!--link UI to ABUI--><g id="link_UI_ABUI"><path codeLine="121" d="M711.558,80.118 C744.894,116.055 784.7969,159.0798 818.1599,195.0348 " fill="none" id="UI-to-ABUI" style="stroke:#181818;stroke-width:0.9;stroke-dasharray:7.0,7.0;"/><polygon fill="none" points="829.179,206.91,822.1183,191.3618,814.2015,198.7079,829.179,206.91" style="stroke:#181818;stroke-width:0.9;"/><text fill="#000000" font-family="sans-serif" font-size="11.7" lengthAdjust="spacing" textLength="60.3" x="778.05" y="148.5255">implements</text></g><!--link UI to CTRL--><g id="link_UI_CTRL"><path codeLine="122" d="M678.15,80.118 C678.15,116.055 678.15,165.555 678.15,201.51 " fill="none" id="UI-to-CTRL" style="stroke:#181818;stroke-width:0.9;stroke-dasharray:7.0,7.0;"/><polygon fill="#181818" points="678.15,206.91,681.75,198.81,678.15,202.41,674.55,198.81,678.15,206.91" style="stroke:#181818;stroke-width:0.9;"/></g><!--link UI to DTO--><g id="link_UI_DTO"><path codeLine="123" d="M605.448,55.188 C523.044,69.849 400.05,99.045 400.05,142.65 C400.05,142.65 400.05,142.65 400.05,390.15 C400.05,435.78 379.6489,475.0854 352.5139,509.9964 " fill="none" id="UI-to-DTO" style="stroke:#181818;stroke-width:0.9;stroke-dasharray:7.0,7.0;"/><polygon fill="#181818" points="349.2,514.26,357.0132,510.0739,351.9616,510.707,351.3285,505.6554,349.2,514.26" style="stroke:#181818;stroke-width:0.9;"/></g><!--link CTRL to CREPO--><g id="link_CTRL_CREPO"><path codeLine="125" d="M773.163,280.215 C872.667,320.922 1029.087,395.505 1136.25,497.7 C1222.542,579.987 1281.5229,701.5845 1313.5269,779.6595 " fill="none" id="CTRL-to-CREPO" style="stroke:#181818;stroke-width:0.9;stroke-dasharray:7.0,7.0;"/><polygon fill="#181818" points="1315.575,784.656,1315.8338,775.7958,1313.8682,780.4922,1309.1718,778.5267,1315.575,784.656" style="stroke:#181818;stroke-width:0.9;"/></g><!--link CTRL to SERVICE--><g id="link_CTRL_SERVICE"><path codeLine="126" d="M678.15,281.025 C678.15,297.549 678.15,312.048 678.15,330.192 " fill="none" id="CTRL-to-SERVICE" style="stroke:#181818;stroke-width:0.9;stroke-dasharray:7.0,7.0;"/><polygon fill="#181818" points="678.15,335.592,681.75,327.492,678.15,331.092,674.55,327.492,678.15,335.592" style="stroke:#181818;stroke-width:0.9;"/></g><!--link SERVICE to CREPO--><g id="link_SERVICE_CREPO"><path codeLine="128" d="M780.147,410.031 C848.16,426.411 937.584,454.149 1007.55,497.7 C1129.023,573.309 1232.2547,699.7292 1290.6827,780.0992 " fill="none" id="SERVICE-to-CREPO" style="stroke:#181818;stroke-width:0.9;"/><polygon fill="#181818" points="1293.858,784.467,1292.0069,775.7985,1291.2119,780.8272,1286.1832,780.0322,1293.858,784.467" style="stroke:#181818;stroke-width:0.9;"/></g><!--link SERVICE to C--><g id="link_SERVICE_C"><path codeLine="129" d="M738.153,442.971 C764.316,466.011 791.3852,489.8385 819.7802,514.8405 " fill="none" id="SERVICE-to-C" style="stroke:#181818;stroke-width:0.9;"/><polygon fill="#181818" points="823.833,518.409,820.1328,510.3543,820.4556,515.4352,815.3747,515.7581,823.833,518.409" style="stroke:#181818;stroke-width:0.9;"/></g><!--link SERVICE to A--><g id="link_SERVICE_A"><path codeLine="130" d="M684.333,442.926 C689.112,505.638 688.896,611.442 645.75,688.5 C639.135,700.317 599.3917,731.83 552.9247,766.462 " fill="none" id="SERVICE-to-A" style="stroke:#181818;stroke-width:0.9;"/><polygon fill="#181818" points="548.595,769.689,557.2409,767.735,552.2031,766.9999,552.9383,761.9621,548.595,769.689" style="stroke:#181818;stroke-width:0.9;"/></g><!--link SERVICE to AREPO--><g id="link_SERVICE_AREPO"><path codeLine="131" d="M636.741,442.971 C617.67,467.289 598.1246,492.236 577.6676,518.318 " fill="none" id="SERVICE-to-AREPO" style="stroke:#181818;stroke-width:0.9;"/><polygon fill="#181818" points="574.335,522.567,582.1666,518.4153,577.1122,519.0262,576.5013,513.9718,574.335,522.567" style="stroke:#181818;stroke-width:0.9;"/></g><!--link SERVICE to DTO--><g id="link_SERVICE_DTO"><path codeLine="132" d="M576.207,420.372 C520.281,438.957 450.747,465.39 392.85,497.7 C383.94,502.668 379.4717,505.2431 370.6697,511.1381 " fill="none" id="SERVICE-to-DTO" style="stroke:#181818;stroke-width:0.9;stroke-dasharray:7.0,7.0;"/><polygon fill="#181818" points="366.183,514.143,374.9163,512.6268,369.9219,511.6389,370.9098,506.6445,366.183,514.143" style="stroke:#181818;stroke-width:0.9;"/></g><!--link C to CREPO--><g id="link_C_CREPO"><path codeLine="134" d="M991.548,634.842 C1054.548,666.522 1142.199,712.8 1215.45,759.6 C1227.663,767.403 1235.8289,772.8793 1248.0599,781.6453 " fill="none" id="C-to-CREPO" style="stroke:#181818;stroke-width:0.9;stroke-dasharray:7.0,7.0;"/><polygon fill="#181818" points="1252.449,784.791,1247.9624,777.1463,1248.7914,782.1696,1243.7682,782.9985,1252.449,784.791" style="stroke:#181818;stroke-width:0.9;"/><text fill="#000000" font-family="sans-serif" font-size="11.7" lengthAdjust="spacing" textLength="45" x="1166.85" y="729.0255">stored in</text></g><!--link C to A--><g id="link_C_A"><path codeLine="135" d="M823.905,659.097 C786.366,685.44 740.439,713.97 695.25,732.6 C640.494,755.181 619.056,735.966 564.75,759.6 C559.422,761.922 558.8926,762.0013 553.5916,764.7373 " fill="none" id="C-to-A" style="stroke:#181818;stroke-width:0.9;"/><polygon fill="#181818" points="548.793,767.214,557.6419,766.698,552.7918,765.1501,554.3397,760.3,548.793,767.214" style="stroke:#181818;stroke-width:0.9;"/><text fill="#000000" font-family="sans-serif" font-size="11.7" lengthAdjust="spacing" textLength="41.4" x="727.65" y="729.0255">submits</text></g><!--reverse link A to ASTATUS--><g id="link_A_ASTATUS"><path codeLine="137" d="M518.036,958.7091 C538.178,982.6491 552.339,999.486 570.699,1021.302 " fill="none" id="A-backto-ASTATUS" style="stroke:#181818;stroke-width:0.9;"/><polygon fill="none" points="511.083,950.445,511.8048,956.8947,518.036,958.7091,517.3142,952.2594,511.083,950.445" style="stroke:#181818;stroke-width:0.9;"/></g><!--reverse link A to ADATE--><g id="link_A_ADATE"><path codeLine="138" d="M426.9485,961.2347 C425.9045,985.1747 425.286,999.486 424.332,1021.302 " fill="none" id="A-backto-ADATE" style="stroke:#181818;stroke-width:0.9;"/><polygon fill="none" points="427.419,950.445,423.5872,955.683,426.9485,961.2347,430.7803,955.9967,427.419,950.445" style="stroke:#181818;stroke-width:0.9;"/></g><!--link J to A--><g id="link_J_A"><path codeLine="140" d="M114.345,655.398 C124.452,667.098 135.612,678.717 147.15,688.5 C197.604,731.259 255.8038,766.6699 309.6598,795.4069 " fill="none" id="J-to-A" style="stroke:#181818;stroke-width:0.9;"/><polygon fill="#181818" points="314.424,797.949,308.9725,790.9597,310.4538,795.8306,305.583,797.3119,314.424,797.949" style="stroke:#181818;stroke-width:0.9;"/><text fill="#000000" font-family="sans-serif" font-size="11.7" lengthAdjust="spacing" textLength="18.9" x="205.65" y="729.0255">has</text></g><!--reverse link J to JREF--><g id="link_J_JREF"><path codeLine="141" d="M68.85,666.108 C68.85,707.562 68.85,751.293 68.85,792.747 " fill="none" id="J-backto-JREF" style="stroke:#181818;stroke-width:0.9;"/><polygon fill="none" points="68.85,655.308,65.25,660.708,68.85,666.108,72.45,660.708,68.85,655.308" style="stroke:#181818;stroke-width:0.9;"/></g><!--SRC=[nLPDZvim4BtpAwozDAiAzj0RYYAnXAf4sIHAidlgnG4dOMjiP3jRhTh-z_eBC93zI5kfEGJRyvXvyyOUy-4eHCN3cviAGo9E9GuoMjva67BkvmKyC5Xw7lzMa0hA8JWmUgfISaIi491a27pol5Y1mTLul4AC5rmWkJwPV2NZyGQnfy9Cvj8GGv8NEHHe2WMSRfVMV0KW1vja_P362VZX0Vdx270VFqfAME0G8FMujYX1fPjHGaGXdW7IZsllLyjeIYMQ638IgGPz4ZgwVDh8FcW08SZgeJMf9CPHLU4YWwAWX4z2035sLpGo22o_ni6ePWmTx78V3-o2RWGho67qOXvhIWKmAQi59xXE9MeISInJdOuAjDolqK6cmVJw4BaHK9nu2BX-MlkCxfOL8f9M21wRyHfXwJ3lPlm4yKa6SJowyQPkgaEe2Tu7p9o8UyJKzlfpkLfdMgrPevOqDEv3mD3-R5u6TK7u1_KUMEuUKIPwvL9Yc99DestI49dJ3E9N2zQG6jh_3JDJ1yDjiusszvk6dV7QsHyD7RFMgUXVy74BOcgrJZutF58Yq04nNIc3wN9nj-bRzHhqhJMgA2y4PVqJrXgCEEjajMnQrhuWUOHn4ypERv_JV9GAnE0Eex7kOXFRnhWBrRXpJOx39sHxN6XtSfS-GrpsFatmRAkzJpNR-zHIRVSFtHpfzwuOJhPddSMK24OnHamxZRVhUTzjftTpxLwLY-sXl31SlHl9pJxegJjrrBM-_Px8_dcHqrmgNEGknW1oT_a5NRjKUzf6EtNICc4bZMxxelfdHNrZXpLYzHI8XmhylstsIbDj-1lMmwjq0KlPpeZyjnQNW5rQ7Ib1YrEvKwUQwEVP5jnnshyhjD_-ekFvB_fH9wv9T17T9OFEgB9qM5wGm-MSTBg6It8NfVC16ItmkzbqrRkSZYEq8RNwibmamvvTjRXtStkpY5uCgE_RcFL4LQWUQuKaJ1-g80X-JaoBaJsXh30gvJdddXUzQZRMSH20IDs1bA4S5CJpP1imhwYEq7d3M2QwKPh9H7rkIXwgSsgByjbExPUmvzMVnBvVOpehdLdKdNNGRSGsd4i-Dk_8fTEkBBG6MZ1xzTSpzP7YURCQV8HSJfH5tSk_0G00]--></g></svg>