<?xml version="1.0" encoding="us-ascii" standalone="no"?><svg xmlns="http://www.w3.org/2000/svg" xmlns:xlink="http://www.w3.org/1999/xlink" contentStyleType="text/css" height="1511px" preserveAspectRatio="none" style="width:1895px;height:1511px;background:#FFFFFF;" version="1.1" viewBox="0 0 1895 1511" width="1895px" zoomAndPan="magnify"><defs/><g><rect fill="#FFFFFF" height="1377.7383" style="stroke:#181818;stroke-width:1.0;" width="10" x="99" y="67.2422"/><rect fill="#FFFFFF" height="1301.1563" style="stroke:#181818;stroke-width:1.0;" width="10" x="626" y="144.8242"/><rect fill="#FFFFFF" height="312.3281" style="stroke:#181818;stroke-width:1.0;" width="10" x="1179" y="267.6484"/><rect fill="#FFFFFF" height="156.4551" style="stroke:#181818;stroke-width:1.0;" width="10" x="1179" y="760.7715"/><rect fill="#FFFFFF" height="93.873" style="stroke:#181818;stroke-width:1.0;" width="10" x="1179" y="1053.7305"/><rect fill="#FFFFFF" height="31.291" style="stroke:#181818;stroke-width:1.0;" width="10" x="1535" y="298.9395"/><rect fill="#FFFFFF" height="30" style="stroke:#181818;stroke-width:1.0;" width="10" x="1535" y="449.1035"/><rect fill="#FFFFFF" height="31.291" style="stroke:#181818;stroke-width:1.0;" width="10" x="1535" y="792.0625"/><rect fill="#FFFFFF" height="31.291" style="stroke:#181818;stroke-width:1.0;" width="10" x="1535" y="1085.0215"/><rect fill="#FFFFFF" height="30" style="stroke:#181818;stroke-width:1.0;" width="10" x="1662" y="387.8125"/><rect fill="#FFFFFF" height="31.291" style="stroke:#181818;stroke-width:1.0;" width="10" x="1793.5" y="517.3945"/><rect fill="#FFFFFF" height="31.291" style="stroke:#181818;stroke-width:1.0;" width="10" x="1793.5" y="854.6445"/><rect fill="none" height="1257.2051" style="stroke:#000000;stroke-width:1.5;" width="1878.5" x="10" y="180.7754"/><rect fill="none" height="141.873" style="stroke:#000000;stroke-width:1.5;" width="650.5" x="1068" y="345.2305"/><line style="stroke:#181818;stroke-width:0.5;stroke-dasharray:5.0,5.0;" x1="104" x2="104" y1="57.2422" y2="1454.9805"/><line style="stroke:#181818;stroke-width:0.5;stroke-dasharray:5.0,5.0;" x1="631" x2="631" y1="152.6543" y2="1454.9805"/><line style="stroke:#181818;stroke-width:0.5;stroke-dasharray:5.0,5.0;" x1="1184" x2="1184" y1="57.2422" y2="1454.9805"/><line style="stroke:#181818;stroke-width:0.5;stroke-dasharray:5.0,5.0;" x1="1539.5" x2="1539.5" y1="57.2422" y2="1454.9805"/><line style="stroke:#181818;stroke-width:0.5;stroke-dasharray:5.0,5.0;" x1="1666.5" x2="1666.5" y1="57.2422" y2="1454.9805"/><line style="stroke:#181818;stroke-width:0.5;stroke-dasharray:5.0,5.0;" x1="1798.5" x2="1798.5" y1="57.2422" y2="1454.9805"/><rect fill="#E2E2F0" height="51.2422" rx="2.5" ry="2.5" style="stroke:#181818;stroke-width:0.5;" width="168" x="20" y="5"/><text fill="#000000" font-family="sans-serif" font-size="14" lengthAdjust="spacing" textLength="62" x="73" y="27.1074">&#171;Thread&#187;</text><text fill="#000000" font-family="sans-serif" font-size="14" lengthAdjust="spacing" textLength="154" x="27" y="45.7285">ClientConnectionThread</text><rect fill="#E2E2F0" height="51.2422" rx="2.5" ry="2.5" style="stroke:#181818;stroke-width:0.5;" width="168" x="20" y="1453.9805"/><text fill="#000000" font-family="sans-serif" font-size="14" lengthAdjust="spacing" textLength="62" x="73" y="1476.0879">&#171;Thread&#187;</text><text fill="#000000" font-family="sans-serif" font-size="14" lengthAdjust="spacing" textLength="154" x="27" y="1494.709">ClientConnectionThread</text><rect fill="#E2E2F0" height="51.2422" rx="2.5" ry="2.5" style="stroke:#181818;stroke-width:0.5;" width="182" x="540" y="1453.9805"/><text fill="#000000" font-family="sans-serif" font-size="14" lengthAdjust="spacing" textLength="62" x="600" y="1476.0879">&#171;Thread&#187;</text><text fill="#000000" font-family="sans-serif" font-size="14" lengthAdjust="spacing" textLength="168" x="547" y="1494.709">NotificationRequestThread</text><rect fill="#E2E2F0" height="51.2422" rx="2.5" ry="2.5" style="stroke:#181818;stroke-width:0.5;" width="212" x="1078" y="5"/><text fill="#000000" font-family="sans-serif" font-size="14" lengthAdjust="spacing" textLength="63" x="1152.5" y="27.1074">&#171;Service&#187;</text><text fill="#000000" font-family="sans-serif" font-size="14" lengthAdjust="spacing" textLength="198" x="1085" y="45.7285">NotificationManagementService</text><rect fill="#E2E2F0" height="51.2422" rx="2.5" ry="2.5" style="stroke:#181818;stroke-width:0.5;" width="212" x="1078" y="1453.9805"/><text fill="#000000" font-family="sans-serif" font-size="14" lengthAdjust="spacing" textLength="63" x="1152.5" y="1476.0879">&#171;Service&#187;</text><text fill="#000000" font-family="sans-serif" font-size="14" lengthAdjust="spacing" textLength="198" x="1085" y="1494.709">NotificationManagementService</text><rect fill="#E2E2F0" height="51.2422" rx="2.5" ry="2.5" style="stroke:#181818;stroke-width:0.5;" width="151" x="1464.5" y="5"/><text fill="#000000" font-family="sans-serif" font-size="14" lengthAdjust="spacing" textLength="100" x="1490" y="27.1074">&#171;Infrastructure&#187;</text><text fill="#000000" font-family="sans-serif" font-size="14" lengthAdjust="spacing" textLength="137" x="1471.5" y="45.7285">NotificationRepository</text><rect fill="#E2E2F0" height="51.2422" rx="2.5" ry="2.5" style="stroke:#181818;stroke-width:0.5;" width="151" x="1464.5" y="1453.9805"/><text fill="#000000" font-family="sans-serif" font-size="14" lengthAdjust="spacing" textLength="100" x="1490" y="1476.0879">&#171;Infrastructure&#187;</text><text fill="#000000" font-family="sans-serif" font-size="14" lengthAdjust="spacing" textLength="137" x="1471.5" y="1494.709">NotificationRepository</text><rect fill="#E2E2F0" height="51.2422" rx="2.5" ry="2.5" style="stroke:#181818;stroke-width:0.5;" width="83" x="1625.5" y="5"/><text fill="#000000" font-family="sans-serif" font-size="14" lengthAdjust="spacing" textLength="64" x="1635" y="27.1074">&#171;Domain&#187;</text><text fill="#000000" font-family="sans-serif" font-size="14" lengthAdjust="spacing" textLength="69" x="1632.5" y="45.7285">Notification</text><rect fill="#E2E2F0" height="51.2422" rx="2.5" ry="2.5" style="stroke:#181818;stroke-width:0.5;" width="83" x="1625.5" y="1453.9805"/><text fill="#000000" font-family="sans-serif" font-size="14" lengthAdjust="spacing" textLength="64" x="1635" y="1476.0879">&#171;Domain&#187;</text><text fill="#000000" font-family="sans-serif" font-size="14" lengthAdjust="spacing" textLength="69" x="1632.5" y="1494.709">Notification</text><rect fill="#E2E2F0" height="51.2422" rx="2.5" ry="2.5" style="stroke:#181818;stroke-width:0.5;" width="160" x="1718.5" y="5"/><text fill="#000000" font-family="sans-serif" font-size="14" lengthAdjust="spacing" textLength="46" x="1775.5" y="27.1074">&#171;DTO&#187;</text><text fill="#000000" font-family="sans-serif" font-size="14" lengthAdjust="spacing" textLength="146" x="1725.5" y="45.7285">NotificationDTOService</text><rect fill="#E2E2F0" height="51.2422" rx="2.5" ry="2.5" style="stroke:#181818;stroke-width:0.5;" width="160" x="1718.5" y="1453.9805"/><text fill="#000000" font-family="sans-serif" font-size="14" lengthAdjust="spacing" textLength="46" x="1775.5" y="1476.0879">&#171;DTO&#187;</text><text fill="#000000" font-family="sans-serif" font-size="14" lengthAdjust="spacing" textLength="146" x="1725.5" y="1494.709">NotificationDTOService</text><rect fill="#FFFFFF" height="1377.7383" style="stroke:#181818;stroke-width:1.0;" width="10" x="99" y="67.2422"/><rect fill="#FFFFFF" height="1301.1563" style="stroke:#181818;stroke-width:1.0;" width="10" x="626" y="144.8242"/><rect fill="#FFFFFF" height="312.3281" style="stroke:#181818;stroke-width:1.0;" width="10" x="1179" y="267.6484"/><rect fill="#FFFFFF" height="156.4551" style="stroke:#181818;stroke-width:1.0;" width="10" x="1179" y="760.7715"/><rect fill="#FFFFFF" height="93.873" style="stroke:#181818;stroke-width:1.0;" width="10" x="1179" y="1053.7305"/><rect fill="#FFFFFF" height="31.291" style="stroke:#181818;stroke-width:1.0;" width="10" x="1535" y="298.9395"/><rect fill="#FFFFFF" height="30" style="stroke:#181818;stroke-width:1.0;" width="10" x="1535" y="449.1035"/><rect fill="#FFFFFF" height="31.291" style="stroke:#181818;stroke-width:1.0;" width="10" x="1535" y="792.0625"/><rect fill="#FFFFFF" height="31.291" style="stroke:#181818;stroke-width:1.0;" width="10" x="1535" y="1085.0215"/><rect fill="#FFFFFF" height="30" style="stroke:#181818;stroke-width:1.0;" width="10" x="1662" y="387.8125"/><rect fill="#FFFFFF" height="31.291" style="stroke:#181818;stroke-width:1.0;" width="10" x="1793.5" y="517.3945"/><rect fill="#FFFFFF" height="31.291" style="stroke:#181818;stroke-width:1.0;" width="10" x="1793.5" y="854.6445"/><line style="stroke:#181818;stroke-width:1.0;" x1="109" x2="151" y1="90.5332" y2="90.5332"/><line style="stroke:#181818;stroke-width:1.0;" x1="151" x2="151" y1="90.5332" y2="103.5332"/><line style="stroke:#181818;stroke-width:1.0;" x1="110" x2="151" y1="103.5332" y2="103.5332"/><polygon fill="#181818" points="120,99.5332,110,103.5332,120,107.5332,116,103.5332" style="stroke:#181818;stroke-width:1.0;"/><text fill="#000000" font-family="sans-serif" font-size="13" font-weight="bold" lengthAdjust="spacing" textLength="7" x="116" y="85.2705">1</text><text fill="#000000" font-family="sans-serif" font-size="13" lengthAdjust="spacing" textLength="163" x="127" y="85.2705">dataDTO = receiveRequest()</text><polygon fill="#181818" points="528,130.8242,538,134.8242,528,138.8242,532,134.8242" style="stroke:#181818;stroke-width:1.0;"/><line style="stroke:#181818;stroke-width:1.0;" x1="109" x2="534" y1="134.8242" y2="134.8242"/><text fill="#000000" font-family="sans-serif" font-size="13" font-weight="bold" lengthAdjust="spacing" textLength="7" x="116" y="129.5615">2</text><text fill="#000000" font-family="sans-serif" font-size="13" lengthAdjust="spacing" textLength="396" x="127" y="129.5615">create(dataDTO, new DataOutputStream(socket.getOutputStream()))</text><rect fill="#E2E2F0" height="51.2422" rx="2.5" ry="2.5" style="stroke:#181818;stroke-width:0.5;" width="182" x="540" y="111.5332"/><text fill="#000000" font-family="sans-serif" font-size="14" lengthAdjust="spacing" textLength="62" x="600" y="133.6406">&#171;Thread&#187;</text><text fill="#000000" font-family="sans-serif" font-size="14" lengthAdjust="spacing" textLength="168" x="547" y="152.2617">NotificationRequestThread</text><path d="M10,180.7754 L75,180.7754 L75,190.0664 L65,200.0664 L10,200.0664 L10,180.7754 " fill="#EEEEEE" style="stroke:#000000;stroke-width:1.5;"/><rect fill="none" height="1257.2051" style="stroke:#000000;stroke-width:1.5;" width="1878.5" x="10" y="180.7754"/><text fill="#000000" font-family="sans-serif" font-size="13" font-weight="bold" lengthAdjust="spacing" textLength="20" x="25" y="195.8037">opt</text><text fill="#000000" font-family="sans-serif" font-size="11" font-weight="bold" lengthAdjust="spacing" textLength="423" x="90" y="194.6455">[Option 1 (data.code == FollowUpRequestCodes.UNSEENNOTIFLIST.getCode())]</text><line style="stroke:#181818;stroke-width:1.0;" x1="636" x2="678" y1="223.3574" y2="223.3574"/><line style="stroke:#181818;stroke-width:1.0;" x1="678" x2="678" y1="223.3574" y2="236.3574"/><line style="stroke:#181818;stroke-width:1.0;" x1="637" x2="678" y1="236.3574" y2="236.3574"/><polygon fill="#181818" points="647,232.3574,637,236.3574,647,240.3574,643,236.3574" style="stroke:#181818;stroke-width:1.0;"/><text fill="#000000" font-family="sans-serif" font-size="13" font-weight="bold" lengthAdjust="spacing" textLength="7" x="643" y="218.0947">3</text><text fill="#000000" font-family="sans-serif" font-size="13" lengthAdjust="spacing" textLength="511" x="654" y="218.0947">String username = (String) SerializationUtil.deserialize(data.dataBlockList().get(0).data())</text><polygon fill="#181818" points="1167,263.6484,1177,267.6484,1167,271.6484,1171,267.6484" style="stroke:#181818;stroke-width:1.0;"/><line style="stroke:#181818;stroke-width:1.0;" x1="636" x2="1173" y1="267.6484" y2="267.6484"/><text fill="#000000" font-family="sans-serif" font-size="13" font-weight="bold" lengthAdjust="spacing" textLength="7" x="643" y="262.3857">4</text><text fill="#000000" font-family="sans-serif" font-size="13" lengthAdjust="spacing" textLength="273" x="654" y="262.3857">getUnseenNotificationsByUsername(username)</text><polygon fill="#181818" points="1523,294.9395,1533,298.9395,1523,302.9395,1527,298.9395" style="stroke:#181818;stroke-width:1.0;"/><line style="stroke:#181818;stroke-width:1.0;" x1="1189" x2="1529" y1="298.9395" y2="298.9395"/><text fill="#000000" font-family="sans-serif" font-size="13" font-weight="bold" lengthAdjust="spacing" textLength="7" x="1196" y="293.6768">5</text><text fill="#000000" font-family="sans-serif" font-size="13" lengthAdjust="spacing" textLength="273" x="1207" y="293.6768">getUnseenNotificationsByUsername(username)</text><polygon fill="#181818" points="1200,326.2305,1190,330.2305,1200,334.2305,1196,330.2305" style="stroke:#181818;stroke-width:1.0;"/><line style="stroke:#181818;stroke-width:1.0;stroke-dasharray:2.0,2.0;" x1="1194" x2="1539" y1="330.2305" y2="330.2305"/><text fill="#000000" font-family="sans-serif" font-size="13" font-weight="bold" lengthAdjust="spacing" textLength="7" x="1206" y="324.9678">6</text><text fill="#000000" font-family="sans-serif" font-size="13" lengthAdjust="spacing" textLength="69" x="1217" y="324.9678">notifications</text><path d="M1068,345.2305 L1141,345.2305 L1141,354.5215 L1131,364.5215 L1068,364.5215 L1068,345.2305 " fill="#EEEEEE" style="stroke:#000000;stroke-width:1.5;"/><rect fill="none" height="141.873" style="stroke:#000000;stroke-width:1.5;" width="650.5" x="1068" y="345.2305"/><text fill="#000000" font-family="sans-serif" font-size="13" font-weight="bold" lengthAdjust="spacing" textLength="28" x="1083" y="360.2588">loop</text><text fill="#000000" font-family="sans-serif" font-size="11" font-weight="bold" lengthAdjust="spacing" textLength="201" x="1156" y="359.1006">[for each notification in notifications]</text><polygon fill="#181818" points="1650,383.8125,1660,387.8125,1650,391.8125,1654,387.8125" style="stroke:#181818;stroke-width:1.0;"/><line style="stroke:#181818;stroke-width:1.0;" x1="1189" x2="1656" y1="387.8125" y2="387.8125"/><text fill="#000000" font-family="sans-serif" font-size="13" font-weight="bold" lengthAdjust="spacing" textLength="7" x="1196" y="382.5498">7</text><text fill="#000000" font-family="sans-serif" font-size="13" lengthAdjust="spacing" textLength="127" x="1207" y="382.5498">notificationWasSeen()</text><polygon fill="#181818" points="1523,445.1035,1533,449.1035,1523,453.1035,1527,449.1035" style="stroke:#181818;stroke-width:1.0;"/><line style="stroke:#181818;stroke-width:1.0;" x1="1189" x2="1529" y1="449.1035" y2="449.1035"/><text fill="#000000" font-family="sans-serif" font-size="13" font-weight="bold" lengthAdjust="spacing" textLength="7" x="1196" y="443.8408">8</text><text fill="#000000" font-family="sans-serif" font-size="13" lengthAdjust="spacing" textLength="96" x="1207" y="443.8408">save(notification)</text><polygon fill="#181818" points="1781.5,513.3945,1791.5,517.3945,1781.5,521.3945,1785.5,517.3945" style="stroke:#181818;stroke-width:1.0;"/><line style="stroke:#181818;stroke-width:1.0;" x1="1189" x2="1787.5" y1="517.3945" y2="517.3945"/><text fill="#000000" font-family="sans-serif" font-size="13" font-weight="bold" lengthAdjust="spacing" textLength="7" x="1196" y="512.1318">9</text><text fill="#000000" font-family="sans-serif" font-size="13" lengthAdjust="spacing" textLength="158" x="1207" y="512.1318">convertToDTO(notifications)</text><polygon fill="#181818" points="1200,544.6855,1190,548.6855,1200,552.6855,1196,548.6855" style="stroke:#181818;stroke-width:1.0;"/><line style="stroke:#181818;stroke-width:1.0;stroke-dasharray:2.0,2.0;" x1="1194" x2="1797.5" y1="548.6855" y2="548.6855"/><text fill="#000000" font-family="sans-serif" font-size="13" font-weight="bold" lengthAdjust="spacing" textLength="14" x="1206" y="543.4229">10</text><text fill="#000000" font-family="sans-serif" font-size="13" lengthAdjust="spacing" textLength="95" x="1224" y="543.4229">notificationsDTO</text><polygon fill="#181818" points="647,575.9766,637,579.9766,647,583.9766,643,579.9766" style="stroke:#181818;stroke-width:1.0;"/><line style="stroke:#181818;stroke-width:1.0;stroke-dasharray:2.0,2.0;" x1="641" x2="1183" y1="579.9766" y2="579.9766"/><text fill="#000000" font-family="sans-serif" font-size="13" font-weight="bold" lengthAdjust="spacing" textLength="14" x="653" y="574.7139">11</text><text fill="#000000" font-family="sans-serif" font-size="13" lengthAdjust="spacing" textLength="95" x="671" y="574.7139">notificationsDTO</text><line style="stroke:#181818;stroke-width:1.0;" x1="636" x2="678" y1="611.2676" y2="611.2676"/><line style="stroke:#181818;stroke-width:1.0;" x1="678" x2="678" y1="611.2676" y2="624.2676"/><line style="stroke:#181818;stroke-width:1.0;" x1="637" x2="678" y1="624.2676" y2="624.2676"/><polygon fill="#181818" points="647,620.2676,637,624.2676,647,628.2676,643,624.2676" style="stroke:#181818;stroke-width:1.0;"/><text fill="#000000" font-family="sans-serif" font-size="13" font-weight="bold" lengthAdjust="spacing" textLength="14" x="643" y="606.0049">12</text><text fill="#000000" font-family="sans-serif" font-size="13" lengthAdjust="spacing" textLength="417" x="661" y="606.0049">dataDTO = DataDTO.turnListIntoDataDTO(data.code(), notificationsDTO)</text><line style="stroke:#000000;stroke-width:1.0;stroke-dasharray:2.0,2.0;" x1="10" x2="1888.5" y1="633.2676" y2="633.2676"/><text fill="#000000" font-family="sans-serif" font-size="11" font-weight="bold" lengthAdjust="spacing" textLength="409" x="15" y="645.1377">[Option 2 (data.code == FollowUpRequestCodes.SEENNOTIFLIST.getCode())]</text><line style="stroke:#181818;stroke-width:1.0;" x1="636" x2="678" y1="672.1895" y2="672.1895"/><line style="stroke:#181818;stroke-width:1.0;" x1="678" x2="678" y1="672.1895" y2="685.1895"/><line style="stroke:#181818;stroke-width:1.0;" x1="637" x2="678" y1="685.1895" y2="685.1895"/><polygon fill="#181818" points="647,681.1895,637,685.1895,647,689.1895,643,685.1895" style="stroke:#181818;stroke-width:1.0;"/><text fill="#000000" font-family="sans-serif" font-size="13" font-weight="bold" lengthAdjust="spacing" textLength="14" x="643" y="666.9268">13</text><text fill="#000000" font-family="sans-serif" font-size="13" lengthAdjust="spacing" textLength="511" x="661" y="666.9268">String username = (String) SerializationUtil.deserialize(data.dataBlockList().get(0).data())</text><line style="stroke:#181818;stroke-width:1.0;" x1="636" x2="678" y1="716.4805" y2="716.4805"/><line style="stroke:#181818;stroke-width:1.0;" x1="678" x2="678" y1="716.4805" y2="729.4805"/><line style="stroke:#181818;stroke-width:1.0;" x1="637" x2="678" y1="729.4805" y2="729.4805"/><polygon fill="#181818" points="647,725.4805,637,729.4805,647,733.4805,643,729.4805" style="stroke:#181818;stroke-width:1.0;"/><text fill="#000000" font-family="sans-serif" font-size="13" font-weight="bold" lengthAdjust="spacing" textLength="14" x="643" y="711.2178">14</text><text fill="#000000" font-family="sans-serif" font-size="13" lengthAdjust="spacing" textLength="479" x="661" y="711.2178">String date = (String) SerializationUtil.deserialize(data.dataBlockList().get(1).data())</text><polygon fill="#181818" points="1167,756.7715,1177,760.7715,1167,764.7715,1171,760.7715" style="stroke:#181818;stroke-width:1.0;"/><line style="stroke:#181818;stroke-width:1.0;" x1="636" x2="1173" y1="760.7715" y2="760.7715"/><text fill="#000000" font-family="sans-serif" font-size="13" font-weight="bold" lengthAdjust="spacing" textLength="14" x="643" y="755.5088">15</text><text fill="#000000" font-family="sans-serif" font-size="13" lengthAdjust="spacing" textLength="342" x="661" y="755.5088">getSeenNotificationsByUsernameAndDate(username, date)</text><polygon fill="#181818" points="1523,788.0625,1533,792.0625,1523,796.0625,1527,792.0625" style="stroke:#181818;stroke-width:1.0;"/><line style="stroke:#181818;stroke-width:1.0;" x1="1189" x2="1529" y1="792.0625" y2="792.0625"/><text fill="#000000" font-family="sans-serif" font-size="13" font-weight="bold" lengthAdjust="spacing" textLength="14" x="1196" y="786.7998">16</text><text fill="#000000" font-family="sans-serif" font-size="13" lengthAdjust="spacing" textLength="273" x="1214" y="786.7998">getUnseenNotificationsByUsername(username)</text><polygon fill="#181818" points="1200,819.3535,1190,823.3535,1200,827.3535,1196,823.3535" style="stroke:#181818;stroke-width:1.0;"/><line style="stroke:#181818;stroke-width:1.0;stroke-dasharray:2.0,2.0;" x1="1194" x2="1539" y1="823.3535" y2="823.3535"/><text fill="#000000" font-family="sans-serif" font-size="13" font-weight="bold" lengthAdjust="spacing" textLength="14" x="1206" y="818.0908">17</text><text fill="#000000" font-family="sans-serif" font-size="13" lengthAdjust="spacing" textLength="69" x="1224" y="818.0908">notifications</text><polygon fill="#181818" points="1781.5,850.6445,1791.5,854.6445,1781.5,858.6445,1785.5,854.6445" style="stroke:#181818;stroke-width:1.0;"/><line style="stroke:#181818;stroke-width:1.0;" x1="1189" x2="1787.5" y1="854.6445" y2="854.6445"/><text fill="#000000" font-family="sans-serif" font-size="13" font-weight="bold" lengthAdjust="spacing" textLength="14" x="1196" y="849.3818">18</text><text fill="#000000" font-family="sans-serif" font-size="13" lengthAdjust="spacing" textLength="158" x="1214" y="849.3818">convertToDTO(notifications)</text><polygon fill="#181818" points="1200,881.9355,1190,885.9355,1200,889.9355,1196,885.9355" style="stroke:#181818;stroke-width:1.0;"/><line style="stroke:#181818;stroke-width:1.0;stroke-dasharray:2.0,2.0;" x1="1194" x2="1797.5" y1="885.9355" y2="885.9355"/><text fill="#000000" font-family="sans-serif" font-size="13" font-weight="bold" lengthAdjust="spacing" textLength="14" x="1206" y="880.6729">19</text><text fill="#000000" font-family="sans-serif" font-size="13" lengthAdjust="spacing" textLength="95" x="1224" y="880.6729">notificationsDTO</text><polygon fill="#181818" points="647,913.2266,637,917.2266,647,921.2266,643,917.2266" style="stroke:#181818;stroke-width:1.0;"/><line style="stroke:#181818;stroke-width:1.0;stroke-dasharray:2.0,2.0;" x1="641" x2="1183" y1="917.2266" y2="917.2266"/><text fill="#000000" font-family="sans-serif" font-size="13" font-weight="bold" lengthAdjust="spacing" textLength="14" x="653" y="911.9639">20</text><text fill="#000000" font-family="sans-serif" font-size="13" lengthAdjust="spacing" textLength="95" x="671" y="911.9639">notificationsDTO</text><line style="stroke:#181818;stroke-width:1.0;" x1="636" x2="678" y1="948.5176" y2="948.5176"/><line style="stroke:#181818;stroke-width:1.0;" x1="678" x2="678" y1="948.5176" y2="961.5176"/><line style="stroke:#181818;stroke-width:1.0;" x1="637" x2="678" y1="961.5176" y2="961.5176"/><polygon fill="#181818" points="647,957.5176,637,961.5176,647,965.5176,643,961.5176" style="stroke:#181818;stroke-width:1.0;"/><text fill="#000000" font-family="sans-serif" font-size="13" font-weight="bold" lengthAdjust="spacing" textLength="14" x="643" y="943.2549">21</text><text fill="#000000" font-family="sans-serif" font-size="13" lengthAdjust="spacing" textLength="417" x="661" y="943.2549">dataDTO = DataDTO.turnListIntoDataDTO(data.code(), notificationsDTO)</text><line style="stroke:#000000;stroke-width:1.0;stroke-dasharray:2.0,2.0;" x1="10" x2="1888.5" y1="970.5176" y2="970.5176"/><text fill="#000000" font-family="sans-serif" font-size="11" font-weight="bold" lengthAdjust="spacing" textLength="339" x="15" y="982.3877">[data.code == FollowUpRequestCodes.CHECKNOTIF.getCode()]</text><line style="stroke:#181818;stroke-width:1.0;" x1="636" x2="678" y1="1009.4395" y2="1009.4395"/><line style="stroke:#181818;stroke-width:1.0;" x1="678" x2="678" y1="1009.4395" y2="1022.4395"/><line style="stroke:#181818;stroke-width:1.0;" x1="637" x2="678" y1="1022.4395" y2="1022.4395"/><polygon fill="#181818" points="647,1018.4395,637,1022.4395,647,1026.4395,643,1022.4395" style="stroke:#181818;stroke-width:1.0;"/><text fill="#000000" font-family="sans-serif" font-size="13" font-weight="bold" lengthAdjust="spacing" textLength="14" x="643" y="1004.1768">22</text><text fill="#000000" font-family="sans-serif" font-size="13" lengthAdjust="spacing" textLength="511" x="661" y="1004.1768">String username = (String) SerializationUtil.deserialize(data.dataBlockList().get(0).data())</text><polygon fill="#181818" points="1167,1049.7305,1177,1053.7305,1167,1057.7305,1171,1053.7305" style="stroke:#181818;stroke-width:1.0;"/><line style="stroke:#181818;stroke-width:1.0;" x1="636" x2="1173" y1="1053.7305" y2="1053.7305"/><text fill="#000000" font-family="sans-serif" font-size="13" font-weight="bold" lengthAdjust="spacing" textLength="14" x="643" y="1048.4678">23</text><text fill="#000000" font-family="sans-serif" font-size="13" lengthAdjust="spacing" textLength="309" x="661" y="1048.4678">checkForUnseenNotificationsByUsername(username)</text><polygon fill="#181818" points="1523,1081.0215,1533,1085.0215,1523,1089.0215,1527,1085.0215" style="stroke:#181818;stroke-width:1.0;"/><line style="stroke:#181818;stroke-width:1.0;" x1="1189" x2="1529" y1="1085.0215" y2="1085.0215"/><text fill="#000000" font-family="sans-serif" font-size="13" font-weight="bold" lengthAdjust="spacing" textLength="14" x="1196" y="1079.7588">24</text><text fill="#000000" font-family="sans-serif" font-size="13" lengthAdjust="spacing" textLength="309" x="1214" y="1079.7588">checkForUnseenNotificationsByUsername(username)</text><polygon fill="#181818" points="1200,1112.3125,1190,1116.3125,1200,1120.3125,1196,1116.3125" style="stroke:#181818;stroke-width:1.0;"/><line style="stroke:#181818;stroke-width:1.0;stroke-dasharray:2.0,2.0;" x1="1194" x2="1539" y1="1116.3125" y2="1116.3125"/><text fill="#000000" font-family="sans-serif" font-size="13" font-weight="bold" lengthAdjust="spacing" textLength="14" x="1206" y="1111.0498">25</text><text fill="#000000" font-family="sans-serif" font-size="13" lengthAdjust="spacing" textLength="41" x="1224" y="1111.0498">answer</text><polygon fill="#181818" points="647,1143.6035,637,1147.6035,647,1151.6035,643,1147.6035" style="stroke:#181818;stroke-width:1.0;"/><line style="stroke:#181818;stroke-width:1.0;stroke-dasharray:2.0,2.0;" x1="641" x2="1183" y1="1147.6035" y2="1147.6035"/><text fill="#000000" font-family="sans-serif" font-size="13" font-weight="bold" lengthAdjust="spacing" textLength="14" x="653" y="1142.3408">26</text><text fill="#000000" font-family="sans-serif" font-size="13" lengthAdjust="spacing" textLength="41" x="671" y="1142.3408">answer</text><line style="stroke:#181818;stroke-width:1.0;" x1="636" x2="678" y1="1178.8945" y2="1178.8945"/><line style="stroke:#181818;stroke-width:1.0;" x1="678" x2="678" y1="1178.8945" y2="1191.8945"/><line style="stroke:#181818;stroke-width:1.0;" x1="637" x2="678" y1="1191.8945" y2="1191.8945"/><polygon fill="#181818" points="647,1187.8945,637,1191.8945,647,1195.8945,643,1191.8945" style="stroke:#181818;stroke-width:1.0;"/><text fill="#000000" font-family="sans-serif" font-size="13" font-weight="bold" lengthAdjust="spacing" textLength="14" x="643" y="1173.6318">27</text><text fill="#000000" font-family="sans-serif" font-size="13" lengthAdjust="spacing" textLength="417" x="661" y="1173.6318">dataDTO = DataDTO.turnListIntoDataDTO(data.code(), notificationsDTO)</text><line style="stroke:#181818;stroke-width:1.0;" x1="636" x2="678" y1="1223.1855" y2="1223.1855"/><line style="stroke:#181818;stroke-width:1.0;" x1="678" x2="678" y1="1223.1855" y2="1236.1855"/><line style="stroke:#181818;stroke-width:1.0;" x1="637" x2="678" y1="1236.1855" y2="1236.1855"/><polygon fill="#181818" points="647,1232.1855,637,1236.1855,647,1240.1855,643,1236.1855" style="stroke:#181818;stroke-width:1.0;"/><text fill="#000000" font-family="sans-serif" font-size="13" font-weight="bold" lengthAdjust="spacing" textLength="14" x="643" y="1217.9229">28</text><text fill="#000000" font-family="sans-serif" font-size="13" lengthAdjust="spacing" textLength="220" x="661" y="1217.9229">dataDTO = new DataDTO(data.code())</text><line style="stroke:#181818;stroke-width:1.0;" x1="636" x2="678" y1="1267.4766" y2="1267.4766"/><line style="stroke:#181818;stroke-width:1.0;" x1="678" x2="678" y1="1267.4766" y2="1280.4766"/><line style="stroke:#181818;stroke-width:1.0;" x1="637" x2="678" y1="1280.4766" y2="1280.4766"/><polygon fill="#181818" points="647,1276.4766,637,1280.4766,647,1284.4766,643,1280.4766" style="stroke:#181818;stroke-width:1.0;"/><text fill="#000000" font-family="sans-serif" font-size="13" font-weight="bold" lengthAdjust="spacing" textLength="14" x="643" y="1262.2139">29</text><text fill="#000000" font-family="sans-serif" font-size="13" lengthAdjust="spacing" textLength="398" x="661" y="1262.2139">byte[] stringBytes = SerializationUtil.serialize(String.valueOf(answer))</text><line style="stroke:#181818;stroke-width:1.0;" x1="636" x2="678" y1="1311.7676" y2="1311.7676"/><line style="stroke:#181818;stroke-width:1.0;" x1="678" x2="678" y1="1311.7676" y2="1324.7676"/><line style="stroke:#181818;stroke-width:1.0;" x1="637" x2="678" y1="1324.7676" y2="1324.7676"/><polygon fill="#181818" points="647,1320.7676,637,1324.7676,647,1328.7676,643,1324.7676" style="stroke:#181818;stroke-width:1.0;"/><text fill="#000000" font-family="sans-serif" font-size="13" font-weight="bold" lengthAdjust="spacing" textLength="14" x="643" y="1306.5049">30</text><text fill="#000000" font-family="sans-serif" font-size="13" lengthAdjust="spacing" textLength="323" x="661" y="1306.5049">dataDTO.addDataBlock(stringBytes.length, stringBytes)</text><line style="stroke:#000000;stroke-width:1.0;stroke-dasharray:2.0,2.0;" x1="10" x2="1888.5" y1="1333.7676" y2="1333.7676"/><text fill="#000000" font-family="sans-serif" font-size="11" font-weight="bold" lengthAdjust="spacing" textLength="375" x="15" y="1345.6377">[Option 3 (data.code == FollowUpRequestCodes.DISCONN.getCode())]</text><line style="stroke:#181818;stroke-width:1.0;" x1="109" x2="151" y1="1372.6895" y2="1372.6895"/><line style="stroke:#181818;stroke-width:1.0;" x1="151" x2="151" y1="1372.6895" y2="1385.6895"/><line style="stroke:#181818;stroke-width:1.0;" x1="110" x2="151" y1="1385.6895" y2="1385.6895"/><polygon fill="#181818" points="120,1381.6895,110,1385.6895,120,1389.6895,116,1385.6895" style="stroke:#181818;stroke-width:1.0;"/><text fill="#000000" font-family="sans-serif" font-size="13" font-weight="bold" lengthAdjust="spacing" textLength="14" x="116" y="1367.4268">31</text><text fill="#000000" font-family="sans-serif" font-size="13" lengthAdjust="spacing" textLength="301" x="134" y="1367.4268">sendEmptyResponse(FollowUpRequestCodes.ACK)</text><line style="stroke:#181818;stroke-width:1.0;" x1="109" x2="151" y1="1416.9805" y2="1416.9805"/><line style="stroke:#181818;stroke-width:1.0;" x1="151" x2="151" y1="1416.9805" y2="1429.9805"/><line style="stroke:#181818;stroke-width:1.0;" x1="110" x2="151" y1="1429.9805" y2="1429.9805"/><polygon fill="#181818" points="120,1425.9805,110,1429.9805,120,1433.9805,116,1429.9805" style="stroke:#181818;stroke-width:1.0;"/><text fill="#000000" font-family="sans-serif" font-size="13" font-weight="bold" lengthAdjust="spacing" textLength="14" x="116" y="1411.7178">32</text><text fill="#000000" font-family="sans-serif" font-size="13" lengthAdjust="spacing" textLength="104" x="134" y="1411.7178">closeConnection()</text><!--SRC=[vLTBJzj04BxdLwour4R1bFQ600cS82AeKyM9UcXxMEmXMM7lkjvrKFhhE-j7_8YJ6AAghUf3b7tCDz_Cpdnhlrie5SdpqzCee5mbOM1v8ZoLy2C1xi69p-Wyfc6lHnCbU18-GjphHJHMp6CH6f2ZYulf8WRgNrrzutR0W2jRS0wUOe9dAqU4Ic8_ZAPta-7rOBkr8nHxOXxLbXDDGAeAGBkr2_6IUT0q_qGvdKE8PF8DAOJZDir7_2ccKiM9fv8ODab4GZ8bubLcFXb-7ZSH1YAaZ3Sji_qRUwVZvaQSgZ7KOqmsPcz95LIorYFuh8VavAeoE2S-LHHDoIM9mGEsX3n_XjbYcFqxFaOx3zEhmCZD-uJ32ndWO9oeA56kmkNGaC9x1cNDGTMcJJC75v4YuqX7Gyv8YeKrv0Evl2It8WZ4oopAwTWuBQsPumw7ZZEUZcuVHkvK0-i5ey3Jppe3rV2BfnaA1eAS69-JH4BCQOY-YP5DcGJposZ0VgRvdYaMM4WYdyj2j_JFJO1XFZ2TCyt8U6-cqpLMTUUEYuvnwunBWDgfoflLB6TY59GQCEi0iIXh2_f1P8slw-q05tKtQV5khAVUKZydHKIywcNJmeTzc84G4NaICS6TYneSONmVV2Ny1fSlLBgO1CDiDofPjQzNUUzqcsTTqYKOLVzx_MxFyFwS0VUtbe7M1DshWYyXLbE1unenkVFSCqLfZJS5RZztNDfzzEsmJeQtRilTc5My5h2MDYzrRf3zir2tkUxQ4LSYdoibo33x6nGmMQad22GKilMXYspj5ws_I9kQpdsTvCCTdtKMHNUxNbrpVw1ldI8X_PJT_wEF1xJrMzhyuBP_lGpyex9Gwi9-DR3lXlPzAWUb59HS_vWAD1hHMu3tV2lYL_V7rXEejzwRyRlqNgFlA9Sl-kkZUxCroww9iAFGVbkHTNPIl8etGFT3FAuKVFrEP5fSDpYGYBPPOcM1PMLeBMcGmFZ9oB9aTkPgKL_hULQUHiMj5G2VgqM_IgNUPldr-x7BzJiOkVROSLeltgtVHHBVguPXf5OJa16U0HYjsDVsVHSqBn0Iog_Rek7JTxTABPKVRRy0]--></g></svg>