<?xml version="1.0" encoding="UTF-8" standalone="no"?><svg xmlns="http://www.w3.org/2000/svg" xmlns:xlink="http://www.w3.org/1999/xlink" contentStyleType="text/css" height="1978px" preserveAspectRatio="none" style="width:3317px;height:1978px;background:#FFFFFF;" version="1.1" viewBox="0 0 3317 1978" width="3317px" zoomAndPan="magnify"><defs/><g><text fill="#000000" font-family="sans-serif" font-size="14" font-weight="bold" lengthAdjust="spacing" textLength="154" x="1574.5" y="24.5332">US1002 Class Diagram</text><!--cluster <<Authentication_and_Users>>--><g id="cluster_&lt;&lt;Authentication_and_Users&gt;&gt;"><path d="M1738,45.5039 L2010,45.5039 A3.75,3.75 0 0 1 2012.5,48.0039 L2019.5,76.6602 L2156,76.6602 A2.5,2.5 0 0 1 2158.5,79.1602 L2158.5,629.0039 A2.5,2.5 0 0 1 2156,631.5039 L1738,631.5039 A2.5,2.5 0 0 1 1735.5,629.0039 L1735.5,48.0039 A2.5,2.5 0 0 1 1738,45.5039 " fill="none" style="stroke:#000000;stroke-width:1.5;"/><line style="stroke:#000000;stroke-width:1.5;" x1="1735.5" x2="2019.5" y1="76.6602" y2="76.6602"/><text fill="#000000" font-family="sans-serif" font-size="20" font-weight="bold" lengthAdjust="spacing" textLength="271" x="1739.5" y="68.2656">«Authentication_and_Users»</text></g><!--class AuthenticationService--><g id="elem_AuthenticationService"><rect codeLine="50" fill="#F1F1F1" height="101.4688" id="AuthenticationService" rx="2.5" ry="2.5" style="stroke:#181818;stroke-width:0.5;" width="221" x="1752" y="89.5039"/><ellipse cx="1768" cy="132.2383" fill="#ADD1B2" rx="12" ry="12" style="stroke:#181818;stroke-width:1.0;"/><path d="M1770.1406,127.1602 Q1770.3281,126.9102 1770.5469,126.7852 Q1770.7656,126.6445 1771.0156,126.6445 Q1771.4531,126.6445 1771.7344,126.957 Q1772.0156,127.2539 1772.0156,127.9727 L1772.0156,129.6758 Q1772.0156,130.3945 1771.7344,130.707 Q1771.4531,131.0195 1771.0156,131.0195 Q1770.625,131.0195 1770.375,130.7852 Q1770.125,130.5664 1770.0156,129.957 Q1769.9531,129.5352 1769.7344,129.3164 Q1769.3438,128.8789 1768.625,128.6133 Q1767.9063,128.3477 1767.1875,128.3477 Q1766.2813,128.3477 1765.5313,128.7383 Q1764.7813,129.1289 1764.2031,130.0195 Q1763.625,130.8945 1763.625,132.0977 L1763.625,133.3945 Q1763.625,134.8477 1764.6719,135.8164 Q1765.7344,136.7852 1767.5938,136.7852 Q1768.7031,136.7852 1769.4844,136.4727 Q1769.9219,136.3008 1770.4375,135.7852 Q1770.75,135.4727 1770.9219,135.3789 Q1771.0938,135.2852 1771.3281,135.2852 Q1771.7188,135.2852 1772.0156,135.5977 Q1772.3281,135.8945 1772.3281,136.3008 Q1772.3281,136.707 1771.9219,137.1758 Q1771.3281,137.8633 1770.3906,138.2539 Q1769.125,138.7852 1767.6094,138.7852 Q1765.8281,138.7852 1764.4063,138.0508 Q1763.25,137.457 1762.4375,136.1914 Q1761.625,134.9258 1761.625,133.4414 L1761.625,132.082 Q1761.625,130.5195 1762.3438,129.1758 Q1763.0781,127.8164 1764.3594,127.082 Q1765.6563,126.3477 1767.1094,126.3477 Q1767.9688,126.3477 1768.7188,126.5508 Q1769.4844,126.7539 1770.1406,127.1602 Z " fill="#000000"/><text fill="#000000" font-family="sans-serif" font-size="20" font-style="italic" lengthAdjust="spacing" textLength="120" x="1816.5" y="115.2656">«Application»</text><text fill="#000000" font-family="sans-serif" font-size="20" font-style="italic" lengthAdjust="spacing" textLength="89" x="1832" y="140.4219">«Service»</text><text fill="#000000" font-family="sans-serif" font-size="20" lengthAdjust="spacing" textLength="187" x="1783" y="165.5781">AuthenticationService</text><line style="stroke:#181818;stroke-width:0.5;" x1="1753" x2="1972" y1="174.9727" y2="174.9727"/><line style="stroke:#181818;stroke-width:0.5;" x1="1753" x2="1972" y1="182.9727" y2="182.9727"/></g><!--class Session--><g id="elem_Session"><rect codeLine="52" fill="#F1F1F1" height="101.4688" id="Session" rx="2.5" ry="2.5" style="stroke:#181818;stroke-width:0.5;" width="166" x="1775.5" y="251.5039"/><ellipse cx="1791.5" cy="294.2383" fill="#ADD1B2" rx="12" ry="12" style="stroke:#181818;stroke-width:1.0;"/><path d="M1793.6406,289.1602 Q1793.8281,288.9102 1794.0469,288.7852 Q1794.2656,288.6445 1794.5156,288.6445 Q1794.9531,288.6445 1795.2344,288.957 Q1795.5156,289.2539 1795.5156,289.9727 L1795.5156,291.6758 Q1795.5156,292.3945 1795.2344,292.707 Q1794.9531,293.0195 1794.5156,293.0195 Q1794.125,293.0195 1793.875,292.7852 Q1793.625,292.5664 1793.5156,291.957 Q1793.4531,291.5352 1793.2344,291.3164 Q1792.8438,290.8789 1792.125,290.6133 Q1791.4063,290.3477 1790.6875,290.3477 Q1789.7813,290.3477 1789.0313,290.7383 Q1788.2813,291.1289 1787.7031,292.0195 Q1787.125,292.8945 1787.125,294.0977 L1787.125,295.3945 Q1787.125,296.8477 1788.1719,297.8164 Q1789.2344,298.7852 1791.0938,298.7852 Q1792.2031,298.7852 1792.9844,298.4727 Q1793.4219,298.3008 1793.9375,297.7852 Q1794.25,297.4727 1794.4219,297.3789 Q1794.5938,297.2852 1794.8281,297.2852 Q1795.2188,297.2852 1795.5156,297.5977 Q1795.8281,297.8945 1795.8281,298.3008 Q1795.8281,298.707 1795.4219,299.1758 Q1794.8281,299.8633 1793.8906,300.2539 Q1792.625,300.7852 1791.1094,300.7852 Q1789.3281,300.7852 1787.9063,300.0508 Q1786.75,299.457 1785.9375,298.1914 Q1785.125,296.9258 1785.125,295.4414 L1785.125,294.082 Q1785.125,292.5195 1785.8438,291.1758 Q1786.5781,289.8164 1787.8594,289.082 Q1789.1563,288.3477 1790.6094,288.3477 Q1791.4688,288.3477 1792.2188,288.5508 Q1792.9844,288.7539 1793.6406,289.1602 Z " fill="#000000"/><text fill="#000000" font-family="sans-serif" font-size="20" font-style="italic" lengthAdjust="spacing" textLength="91" x="1827" y="277.2656">«Domain»</text><text fill="#000000" font-family="sans-serif" font-size="20" font-style="italic" lengthAdjust="spacing" textLength="136" x="1804.5" y="302.4219">«Value Object»</text><text fill="#000000" font-family="sans-serif" font-size="20" lengthAdjust="spacing" textLength="69" x="1838" y="327.5781">Session</text><line style="stroke:#181818;stroke-width:0.5;" x1="1776.5" x2="1940.5" y1="336.9727" y2="336.9727"/><line style="stroke:#181818;stroke-width:0.5;" x1="1776.5" x2="1940.5" y1="344.9727" y2="344.9727"/></g><!--class SystemUser--><g id="elem_SystemUser"><rect codeLine="53" fill="#F1F1F1" height="101.4688" id="SystemUser" rx="2.5" ry="2.5" style="stroke:#181818;stroke-width:0.5;" width="190" x="1751.5" y="489.0039"/><ellipse cx="1767.5" cy="531.7383" fill="#ADD1B2" rx="12" ry="12" style="stroke:#181818;stroke-width:1.0;"/><path d="M1769.6406,526.6602 Q1769.8281,526.4102 1770.0469,526.2852 Q1770.2656,526.1445 1770.5156,526.1445 Q1770.9531,526.1445 1771.2344,526.457 Q1771.5156,526.7539 1771.5156,527.4727 L1771.5156,529.1758 Q1771.5156,529.8945 1771.2344,530.207 Q1770.9531,530.5195 1770.5156,530.5195 Q1770.125,530.5195 1769.875,530.2852 Q1769.625,530.0664 1769.5156,529.457 Q1769.4531,529.0352 1769.2344,528.8164 Q1768.8438,528.3789 1768.125,528.1133 Q1767.4063,527.8477 1766.6875,527.8477 Q1765.7813,527.8477 1765.0313,528.2383 Q1764.2813,528.6289 1763.7031,529.5195 Q1763.125,530.3945 1763.125,531.5977 L1763.125,532.8945 Q1763.125,534.3477 1764.1719,535.3164 Q1765.2344,536.2852 1767.0938,536.2852 Q1768.2031,536.2852 1768.9844,535.9727 Q1769.4219,535.8008 1769.9375,535.2852 Q1770.25,534.9727 1770.4219,534.8789 Q1770.5938,534.7852 1770.8281,534.7852 Q1771.2188,534.7852 1771.5156,535.0977 Q1771.8281,535.3945 1771.8281,535.8008 Q1771.8281,536.207 1771.4219,536.6758 Q1770.8281,537.3633 1769.8906,537.7539 Q1768.625,538.2852 1767.1094,538.2852 Q1765.3281,538.2852 1763.9063,537.5508 Q1762.75,536.957 1761.9375,535.6914 Q1761.125,534.4258 1761.125,532.9414 L1761.125,531.582 Q1761.125,530.0195 1761.8438,528.6758 Q1762.5781,527.3164 1763.8594,526.582 Q1765.1563,525.8477 1766.6094,525.8477 Q1767.4688,525.8477 1768.2188,526.0508 Q1768.9844,526.2539 1769.6406,526.6602 Z " fill="#000000"/><text fill="#000000" font-family="sans-serif" font-size="20" font-style="italic" lengthAdjust="spacing" textLength="91" x="1815" y="514.7656">«Domain»</text><text fill="#000000" font-family="sans-serif" font-size="20" font-style="italic" lengthAdjust="spacing" textLength="160" x="1780.5" y="539.9219">«Aggregate Root»</text><text fill="#000000" font-family="sans-serif" font-size="20" lengthAdjust="spacing" textLength="107" x="1807" y="565.0781">SystemUser</text><line style="stroke:#181818;stroke-width:0.5;" x1="1752.5" x2="1940.5" y1="574.4727" y2="574.4727"/><line style="stroke:#181818;stroke-width:0.5;" x1="1752.5" x2="1940.5" y1="582.4727" y2="582.4727"/></g><!--class Username--><g id="elem_Username"><rect codeLine="54" fill="#F1F1F1" height="151.7813" id="Username" rx="2.5" ry="2.5" style="stroke:#181818;stroke-width:0.5;" width="166" x="1976.5" y="463.5039"/><ellipse cx="1992.5" cy="518.8164" fill="#ADD1B2" rx="12" ry="12" style="stroke:#181818;stroke-width:1.0;"/><path d="M1994.6406,513.7383 Q1994.8281,513.4883 1995.0469,513.3633 Q1995.2656,513.2227 1995.5156,513.2227 Q1995.9531,513.2227 1996.2344,513.5352 Q1996.5156,513.832 1996.5156,514.5508 L1996.5156,516.2539 Q1996.5156,516.9727 1996.2344,517.2852 Q1995.9531,517.5977 1995.5156,517.5977 Q1995.125,517.5977 1994.875,517.3633 Q1994.625,517.1445 1994.5156,516.5352 Q1994.4531,516.1133 1994.2344,515.8945 Q1993.8438,515.457 1993.125,515.1914 Q1992.4063,514.9258 1991.6875,514.9258 Q1990.7813,514.9258 1990.0313,515.3164 Q1989.2813,515.707 1988.7031,516.5977 Q1988.125,517.4727 1988.125,518.6758 L1988.125,519.9727 Q1988.125,521.4258 1989.1719,522.3945 Q1990.2344,523.3633 1992.0938,523.3633 Q1993.2031,523.3633 1993.9844,523.0508 Q1994.4219,522.8789 1994.9375,522.3633 Q1995.25,522.0508 1995.4219,521.957 Q1995.5938,521.8633 1995.8281,521.8633 Q1996.2188,521.8633 1996.5156,522.1758 Q1996.8281,522.4727 1996.8281,522.8789 Q1996.8281,523.2852 1996.4219,523.7539 Q1995.8281,524.4414 1994.8906,524.832 Q1993.625,525.3633 1992.1094,525.3633 Q1990.3281,525.3633 1988.9063,524.6289 Q1987.75,524.0352 1986.9375,522.7695 Q1986.125,521.5039 1986.125,520.0195 L1986.125,518.6602 Q1986.125,517.0977 1986.8438,515.7539 Q1987.5781,514.3945 1988.8594,513.6602 Q1990.1563,512.9258 1991.6094,512.9258 Q1992.4688,512.9258 1993.2188,513.1289 Q1993.9844,513.332 1994.6406,513.7383 Z " fill="#000000"/><text fill="#000000" font-family="sans-serif" font-size="20" font-style="italic" lengthAdjust="spacing" textLength="91" x="2028" y="489.2656">«Domain»</text><text fill="#000000" font-family="sans-serif" font-size="20" font-style="italic" lengthAdjust="spacing" textLength="136" x="2005.5" y="514.4219">«Value Object»</text><text fill="#000000" font-family="sans-serif" font-size="20" font-style="italic" lengthAdjust="spacing" textLength="41" x="2053" y="539.5781">«ID»</text><text fill="#000000" font-family="sans-serif" font-size="20" lengthAdjust="spacing" textLength="89" x="2029" y="564.7344">Username</text><line style="stroke:#181818;stroke-width:0.5;" x1="1977.5" x2="2141.5" y1="574.1289" y2="574.1289"/><rect fill="none" height="6" style="stroke:#C82930;stroke-width:1.0;" width="6" x="1984.5" y="589.207"/><text fill="#000000" font-family="sans-serif" font-size="20" lengthAdjust="spacing" textLength="114" x="1997.5" y="598.8906">value : String</text><line style="stroke:#181818;stroke-width:0.5;" x1="1977.5" x2="2141.5" y1="607.2852" y2="607.2852"/></g><!--class JobOpeningMapper--><g id="elem_JobOpeningMapper"><rect codeLine="7" fill="#F1F1F1" height="76.3125" id="JobOpeningMapper" rx="2.5" ry="2.5" style="stroke:#181818;stroke-width:0.5;" width="302" x="72.5" y="1103.5039"/><ellipse cx="132.5" cy="1121.082" fill="#ADD1B2" rx="12" ry="12" style="stroke:#181818;stroke-width:1.0;"/><path d="M134.6406,1116.0039 Q134.8281,1115.7539 135.0469,1115.6289 Q135.2656,1115.4883 135.5156,1115.4883 Q135.9531,1115.4883 136.2344,1115.8008 Q136.5156,1116.0977 136.5156,1116.8164 L136.5156,1118.5195 Q136.5156,1119.2383 136.2344,1119.5508 Q135.9531,1119.8633 135.5156,1119.8633 Q135.125,1119.8633 134.875,1119.6289 Q134.625,1119.4102 134.5156,1118.8008 Q134.4531,1118.3789 134.2344,1118.1602 Q133.8438,1117.7227 133.125,1117.457 Q132.4063,1117.1914 131.6875,1117.1914 Q130.7813,1117.1914 130.0313,1117.582 Q129.2813,1117.9727 128.7031,1118.8633 Q128.125,1119.7383 128.125,1120.9414 L128.125,1122.2383 Q128.125,1123.6914 129.1719,1124.6602 Q130.2344,1125.6289 132.0938,1125.6289 Q133.2031,1125.6289 133.9844,1125.3164 Q134.4219,1125.1445 134.9375,1124.6289 Q135.25,1124.3164 135.4219,1124.2227 Q135.5938,1124.1289 135.8281,1124.1289 Q136.2188,1124.1289 136.5156,1124.4414 Q136.8281,1124.7383 136.8281,1125.1445 Q136.8281,1125.5508 136.4219,1126.0195 Q135.8281,1126.707 134.8906,1127.0977 Q133.625,1127.6289 132.1094,1127.6289 Q130.3281,1127.6289 128.9063,1126.8945 Q127.75,1126.3008 126.9375,1125.0352 Q126.125,1123.7695 126.125,1122.2852 L126.125,1120.9258 Q126.125,1119.3633 126.8438,1118.0195 Q127.5781,1116.6602 128.8594,1115.9258 Q130.1563,1115.1914 131.6094,1115.1914 Q132.4688,1115.1914 133.2188,1115.3945 Q133.9844,1115.5977 134.6406,1116.0039 Z " fill="#000000"/><text fill="#000000" font-family="sans-serif" font-size="20" lengthAdjust="spacing" textLength="173" x="154.5" y="1129.2656">JobOpeningMapper</text><line style="stroke:#181818;stroke-width:0.5;" x1="73.5" x2="373.5" y1="1138.6602" y2="1138.6602"/><line style="stroke:#181818;stroke-width:0.5;" x1="73.5" x2="373.5" y1="1146.6602" y2="1146.6602"/><ellipse cx="83.5" cy="1164.7383" fill="#84BE84" rx="3" ry="3" style="stroke:#038048;stroke-width:1.0;"/><text fill="#000000" font-family="sans-serif" font-size="20" lengthAdjust="spacing" textLength="275" x="93.5" y="1171.4219">convertToDTO(className, list)</text></g><!--class JobOpeningDTO--><g id="elem_JobOpeningDTO"><rect codeLine="11" fill="#F1F1F1" height="76.3125" id="JobOpeningDTO" rx="2.5" ry="2.5" style="stroke:#181818;stroke-width:0.5;" width="189" x="7" y="1405.0039"/><ellipse cx="26.6" cy="1422.582" fill="#ADD1B2" rx="12" ry="12" style="stroke:#181818;stroke-width:1.0;"/><path d="M28.7406,1417.5039 Q28.9281,1417.2539 29.1469,1417.1289 Q29.3656,1416.9883 29.6156,1416.9883 Q30.0531,1416.9883 30.3344,1417.3008 Q30.6156,1417.5977 30.6156,1418.3164 L30.6156,1420.0195 Q30.6156,1420.7383 30.3344,1421.0508 Q30.0531,1421.3633 29.6156,1421.3633 Q29.225,1421.3633 28.975,1421.1289 Q28.725,1420.9102 28.6156,1420.3008 Q28.5531,1419.8789 28.3344,1419.6602 Q27.9438,1419.2227 27.225,1418.957 Q26.5063,1418.6914 25.7875,1418.6914 Q24.8813,1418.6914 24.1313,1419.082 Q23.3813,1419.4727 22.8031,1420.3633 Q22.225,1421.2383 22.225,1422.4414 L22.225,1423.7383 Q22.225,1425.1914 23.2719,1426.1602 Q24.3344,1427.1289 26.1938,1427.1289 Q27.3031,1427.1289 28.0844,1426.8164 Q28.5219,1426.6445 29.0375,1426.1289 Q29.35,1425.8164 29.5219,1425.7227 Q29.6938,1425.6289 29.9281,1425.6289 Q30.3188,1425.6289 30.6156,1425.9414 Q30.9281,1426.2383 30.9281,1426.6445 Q30.9281,1427.0508 30.5219,1427.5195 Q29.9281,1428.207 28.9906,1428.5977 Q27.725,1429.1289 26.2094,1429.1289 Q24.4281,1429.1289 23.0063,1428.3945 Q21.85,1427.8008 21.0375,1426.5352 Q20.225,1425.2695 20.225,1423.7852 L20.225,1422.4258 Q20.225,1420.8633 20.9438,1419.5195 Q21.6781,1418.1602 22.9594,1417.4258 Q24.2563,1416.6914 25.7094,1416.6914 Q26.5688,1416.6914 27.3188,1416.8945 Q28.0844,1417.0977 28.7406,1417.5039 Z " fill="#000000"/><text fill="#000000" font-family="sans-serif" font-size="20" lengthAdjust="spacing" textLength="147" x="42.4" y="1430.7656">JobOpeningDTO</text><line style="stroke:#181818;stroke-width:0.5;" x1="8" x2="195" y1="1440.1602" y2="1440.1602"/><line style="stroke:#181818;stroke-width:0.5;" x1="8" x2="195" y1="1448.1602" y2="1448.1602"/><ellipse cx="18" cy="1466.2383" fill="#84BE84" rx="3" ry="3" style="stroke:#038048;stroke-width:1.0;"/><text fill="#000000" font-family="sans-serif" font-size="20" lengthAdjust="spacing" textLength="162" x="28" y="1472.9219">create(e: element)</text></g><!--class EntityMapper--><g id="elem_EntityMapper"><rect codeLine="15" fill="#F1F1F1" height="76.3125" id="EntityMapper" rx="2.5" ry="2.5" style="stroke:#181818;stroke-width:0.5;" width="194" x="624.5" y="789.5039"/><ellipse cx="659.85" cy="807.082" fill="#ADD1B2" rx="12" ry="12" style="stroke:#181818;stroke-width:1.0;"/><path d="M661.9906,802.0039 Q662.1781,801.7539 662.3969,801.6289 Q662.6156,801.4883 662.8656,801.4883 Q663.3031,801.4883 663.5844,801.8008 Q663.8656,802.0977 663.8656,802.8164 L663.8656,804.5195 Q663.8656,805.2383 663.5844,805.5508 Q663.3031,805.8633 662.8656,805.8633 Q662.475,805.8633 662.225,805.6289 Q661.975,805.4102 661.8656,804.8008 Q661.8031,804.3789 661.5844,804.1602 Q661.1938,803.7227 660.475,803.457 Q659.7563,803.1914 659.0375,803.1914 Q658.1313,803.1914 657.3813,803.582 Q656.6313,803.9727 656.0531,804.8633 Q655.475,805.7383 655.475,806.9414 L655.475,808.2383 Q655.475,809.6914 656.5219,810.6602 Q657.5844,811.6289 659.4438,811.6289 Q660.5531,811.6289 661.3344,811.3164 Q661.7719,811.1445 662.2875,810.6289 Q662.6,810.3164 662.7719,810.2227 Q662.9438,810.1289 663.1781,810.1289 Q663.5688,810.1289 663.8656,810.4414 Q664.1781,810.7383 664.1781,811.1445 Q664.1781,811.5508 663.7719,812.0195 Q663.1781,812.707 662.2406,813.0977 Q660.975,813.6289 659.4594,813.6289 Q657.6781,813.6289 656.2563,812.8945 Q655.1,812.3008 654.2875,811.0352 Q653.475,809.7695 653.475,808.2852 L653.475,806.9258 Q653.475,805.3633 654.1938,804.0195 Q654.9281,802.6602 656.2094,801.9258 Q657.5063,801.1914 658.9594,801.1914 Q659.8188,801.1914 660.5688,801.3945 Q661.3344,801.5977 661.9906,802.0039 Z " fill="#000000"/><text fill="#000000" font-family="sans-serif" font-size="20" lengthAdjust="spacing" textLength="117" x="679.15" y="815.2656">EntityMapper</text><line style="stroke:#181818;stroke-width:0.5;" x1="625.5" x2="817.5" y1="824.6602" y2="824.6602"/><line style="stroke:#181818;stroke-width:0.5;" x1="625.5" x2="817.5" y1="832.6602" y2="832.6602"/><ellipse cx="635.5" cy="850.7383" fill="#84BE84" rx="3" ry="3" style="stroke:#038048;stroke-width:1.0;"/><text fill="#000000" font-family="sans-serif" font-size="20" lengthAdjust="spacing" textLength="167" x="645.5" y="857.4219">convertToDTO(list)</text></g><!--class EntityDTO--><g id="elem_EntityDTO"><rect codeLine="19" fill="#F1F1F1" height="76.3125" id="EntityDTO" rx="2.5" ry="2.5" style="stroke:#181818;stroke-width:0.5;" width="164" x="409.5" y="1103.5039"/><ellipse cx="443.05" cy="1121.082" fill="#ADD1B2" rx="12" ry="12" style="stroke:#181818;stroke-width:1.0;"/><path d="M445.1906,1116.0039 Q445.3781,1115.7539 445.5969,1115.6289 Q445.8156,1115.4883 446.0656,1115.4883 Q446.5031,1115.4883 446.7844,1115.8008 Q447.0656,1116.0977 447.0656,1116.8164 L447.0656,1118.5195 Q447.0656,1119.2383 446.7844,1119.5508 Q446.5031,1119.8633 446.0656,1119.8633 Q445.675,1119.8633 445.425,1119.6289 Q445.175,1119.4102 445.0656,1118.8008 Q445.0031,1118.3789 444.7844,1118.1602 Q444.3938,1117.7227 443.675,1117.457 Q442.9563,1117.1914 442.2375,1117.1914 Q441.3313,1117.1914 440.5813,1117.582 Q439.8313,1117.9727 439.2531,1118.8633 Q438.675,1119.7383 438.675,1120.9414 L438.675,1122.2383 Q438.675,1123.6914 439.7219,1124.6602 Q440.7844,1125.6289 442.6438,1125.6289 Q443.7531,1125.6289 444.5344,1125.3164 Q444.9719,1125.1445 445.4875,1124.6289 Q445.8,1124.3164 445.9719,1124.2227 Q446.1438,1124.1289 446.3781,1124.1289 Q446.7688,1124.1289 447.0656,1124.4414 Q447.3781,1124.7383 447.3781,1125.1445 Q447.3781,1125.5508 446.9719,1126.0195 Q446.3781,1126.707 445.4406,1127.0977 Q444.175,1127.6289 442.6594,1127.6289 Q440.8781,1127.6289 439.4563,1126.8945 Q438.3,1126.3008 437.4875,1125.0352 Q436.675,1123.7695 436.675,1122.2852 L436.675,1120.9258 Q436.675,1119.3633 437.3938,1118.0195 Q438.1281,1116.6602 439.4094,1115.9258 Q440.7063,1115.1914 442.1594,1115.1914 Q443.0188,1115.1914 443.7688,1115.3945 Q444.5344,1115.5977 445.1906,1116.0039 Z " fill="#000000"/><text fill="#000000" font-family="sans-serif" font-size="20" lengthAdjust="spacing" textLength="91" x="461.95" y="1129.2656">EntityDTO</text><line style="stroke:#181818;stroke-width:0.5;" x1="410.5" x2="572.5" y1="1138.6602" y2="1138.6602"/><line style="stroke:#181818;stroke-width:0.5;" x1="410.5" x2="572.5" y1="1146.6602" y2="1146.6602"/><ellipse cx="420.5" cy="1164.7383" fill="#84BE84" rx="3" ry="3" style="stroke:#038048;stroke-width:1.0;"/><text fill="#000000" font-family="sans-serif" font-size="20" lengthAdjust="spacing" textLength="137" x="430.5" y="1171.4219">create() : Entity</text></g><!--class RegisterJobOpeningUI--><g id="elem_RegisterJobOpeningUI"><rect codeLine="26" fill="#F1F1F1" height="101.4688" id="RegisterJobOpeningUI" rx="2.5" ry="2.5" style="stroke:#181818;stroke-width:0.5;" width="232" x="375.5" y="251.5039"/><ellipse cx="391.5" cy="281.6602" fill="#ADD1B2" rx="12" ry="12" style="stroke:#181818;stroke-width:1.0;"/><path d="M393.6406,276.582 Q393.8281,276.332 394.0469,276.207 Q394.2656,276.0664 394.5156,276.0664 Q394.9531,276.0664 395.2344,276.3789 Q395.5156,276.6758 395.5156,277.3945 L395.5156,279.0977 Q395.5156,279.8164 395.2344,280.1289 Q394.9531,280.4414 394.5156,280.4414 Q394.125,280.4414 393.875,280.207 Q393.625,279.9883 393.5156,279.3789 Q393.4531,278.957 393.2344,278.7383 Q392.8438,278.3008 392.125,278.0352 Q391.4063,277.7695 390.6875,277.7695 Q389.7813,277.7695 389.0313,278.1602 Q388.2813,278.5508 387.7031,279.4414 Q387.125,280.3164 387.125,281.5195 L387.125,282.8164 Q387.125,284.2695 388.1719,285.2383 Q389.2344,286.207 391.0938,286.207 Q392.2031,286.207 392.9844,285.8945 Q393.4219,285.7227 393.9375,285.207 Q394.25,284.8945 394.4219,284.8008 Q394.5938,284.707 394.8281,284.707 Q395.2188,284.707 395.5156,285.0195 Q395.8281,285.3164 395.8281,285.7227 Q395.8281,286.1289 395.4219,286.5977 Q394.8281,287.2852 393.8906,287.6758 Q392.625,288.207 391.1094,288.207 Q389.3281,288.207 387.9063,287.4727 Q386.75,286.8789 385.9375,285.6133 Q385.125,284.3477 385.125,282.8633 L385.125,281.5039 Q385.125,279.9414 385.8438,278.5977 Q386.5781,277.2383 387.8594,276.5039 Q389.1563,275.7695 390.6094,275.7695 Q391.4688,275.7695 392.2188,275.9727 Q392.9844,276.1758 393.6406,276.582 Z " fill="#000000"/><text fill="#000000" font-family="sans-serif" font-size="20" font-style="italic" lengthAdjust="spacing" textLength="133" x="439" y="277.2656">«Presentation»</text><text fill="#000000" font-family="sans-serif" font-size="20" lengthAdjust="spacing" textLength="198" x="406.5" y="302.4219">RegisterJobOpeningUI</text><line style="stroke:#181818;stroke-width:0.5;" x1="376.5" x2="606.5" y1="311.8164" y2="311.8164"/><line style="stroke:#181818;stroke-width:0.5;" x1="376.5" x2="606.5" y1="319.8164" y2="319.8164"/><ellipse cx="386.5" cy="337.8945" fill="#84BE84" rx="3" ry="3" style="stroke:#038048;stroke-width:1.0;"/><text fill="#000000" font-family="sans-serif" font-size="20" lengthAdjust="spacing" textLength="85" x="396.5" y="344.5781">doShow()</text></g><!--class RegisterJobOpeningController--><g id="elem_RegisterJobOpeningController"><rect codeLine="32" fill="#F1F1F1" height="252.4063" id="RegisterJobOpeningController" rx="2.5" ry="2.5" style="stroke:#181818;stroke-width:0.5;" width="524" x="1192.5" y="413.5039"/><ellipse cx="1318" cy="443.6602" fill="#ADD1B2" rx="12" ry="12" style="stroke:#181818;stroke-width:1.0;"/><path d="M1320.1406,438.582 Q1320.3281,438.332 1320.5469,438.207 Q1320.7656,438.0664 1321.0156,438.0664 Q1321.4531,438.0664 1321.7344,438.3789 Q1322.0156,438.6758 1322.0156,439.3945 L1322.0156,441.0977 Q1322.0156,441.8164 1321.7344,442.1289 Q1321.4531,442.4414 1321.0156,442.4414 Q1320.625,442.4414 1320.375,442.207 Q1320.125,441.9883 1320.0156,441.3789 Q1319.9531,440.957 1319.7344,440.7383 Q1319.3438,440.3008 1318.625,440.0352 Q1317.9063,439.7695 1317.1875,439.7695 Q1316.2813,439.7695 1315.5313,440.1602 Q1314.7813,440.5508 1314.2031,441.4414 Q1313.625,442.3164 1313.625,443.5195 L1313.625,444.8164 Q1313.625,446.2695 1314.6719,447.2383 Q1315.7344,448.207 1317.5938,448.207 Q1318.7031,448.207 1319.4844,447.8945 Q1319.9219,447.7227 1320.4375,447.207 Q1320.75,446.8945 1320.9219,446.8008 Q1321.0938,446.707 1321.3281,446.707 Q1321.7188,446.707 1322.0156,447.0195 Q1322.3281,447.3164 1322.3281,447.7227 Q1322.3281,448.1289 1321.9219,448.5977 Q1321.3281,449.2852 1320.3906,449.6758 Q1319.125,450.207 1317.6094,450.207 Q1315.8281,450.207 1314.4063,449.4727 Q1313.25,448.8789 1312.4375,447.6133 Q1311.625,446.3477 1311.625,444.8633 L1311.625,443.5039 Q1311.625,441.9414 1312.3438,440.5977 Q1313.0781,439.2383 1314.3594,438.5039 Q1315.6563,437.7695 1317.1094,437.7695 Q1317.9688,437.7695 1318.7188,437.9727 Q1319.4844,438.1758 1320.1406,438.582 Z " fill="#000000"/><text fill="#000000" font-family="sans-serif" font-size="20" font-style="italic" lengthAdjust="spacing" textLength="120" x="1412" y="439.2656">«Application»</text><text fill="#000000" font-family="sans-serif" font-size="20" lengthAdjust="spacing" textLength="264" x="1340" y="464.4219">RegisterJobOpeningController</text><line style="stroke:#181818;stroke-width:0.5;" x1="1193.5" x2="1715.5" y1="473.8164" y2="473.8164"/><line style="stroke:#181818;stroke-width:0.5;" x1="1193.5" x2="1715.5" y1="481.8164" y2="481.8164"/><ellipse cx="1203.5" cy="499.8945" fill="#84BE84" rx="3" ry="3" style="stroke:#038048;stroke-width:1.0;"/><text fill="#000000" font-family="sans-serif" font-size="20" lengthAdjust="spacing" textLength="307" x="1213.5" y="506.5781">getJobOpeningContractTypesList()</text><ellipse cx="1203.5" cy="525.0508" fill="#84BE84" rx="3" ry="3" style="stroke:#038048;stroke-width:1.0;"/><text fill="#000000" font-family="sans-serif" font-size="20" lengthAdjust="spacing" textLength="285" x="1213.5" y="531.7344">getJobOpeningWorkModesList()</text><ellipse cx="1203.5" cy="550.207" fill="#84BE84" rx="3" ry="3" style="stroke:#038048;stroke-width:1.0;"/><text fill="#000000" font-family="sans-serif" font-size="20" lengthAdjust="spacing" textLength="420" x="1213.5" y="556.8906">getJobOpeningRequirementsSpecificationsList()</text><ellipse cx="1203.5" cy="600.5195" fill="#84BE84" rx="3" ry="3" style="stroke:#038048;stroke-width:1.0;"/><text fill="#000000" font-family="sans-serif" font-size="20" lengthAdjust="spacing" textLength="484" x="1213.5" y="582.0469">registerJobOpening(function, contractType, workMode,</text><text fill="#000000" font-family="sans-serif" font-size="20" lengthAdjust="spacing" textLength="497" x="1213.5" y="607.2031">streetName, city, district, state, zipcode, companyName,</text><text fill="#000000" font-family="sans-serif" font-size="20" lengthAdjust="spacing" textLength="448" x="1213.5" y="632.3594">numVacancies, description, requirementsFileName)</text><ellipse cx="1203.5" cy="650.832" fill="#84BE84" rx="3" ry="3" style="stroke:#038048;stroke-width:1.0;"/><text fill="#000000" font-family="sans-serif" font-size="20" lengthAdjust="spacing" textLength="292" x="1213.5" y="657.5156">toDTO(className, listToDisplay)</text></g><!--class RequirementSpecification--><g id="elem_RequirementSpecification"><rect codeLine="44" fill="#F1F1F1" height="151.7813" id="RequirementSpecification" rx="2.5" ry="2.5" style="stroke:#181818;stroke-width:0.5;" width="256" x="1034.5" y="1367.0039"/><ellipse cx="1050.5" cy="1409.7383" fill="#ADD1B2" rx="12" ry="12" style="stroke:#181818;stroke-width:1.0;"/><path d="M1052.6406,1404.6602 Q1052.8281,1404.4102 1053.0469,1404.2852 Q1053.2656,1404.1445 1053.5156,1404.1445 Q1053.9531,1404.1445 1054.2344,1404.457 Q1054.5156,1404.7539 1054.5156,1405.4727 L1054.5156,1407.1758 Q1054.5156,1407.8945 1054.2344,1408.207 Q1053.9531,1408.5195 1053.5156,1408.5195 Q1053.125,1408.5195 1052.875,1408.2852 Q1052.625,1408.0664 1052.5156,1407.457 Q1052.4531,1407.0352 1052.2344,1406.8164 Q1051.8438,1406.3789 1051.125,1406.1133 Q1050.4063,1405.8477 1049.6875,1405.8477 Q1048.7813,1405.8477 1048.0313,1406.2383 Q1047.2813,1406.6289 1046.7031,1407.5195 Q1046.125,1408.3945 1046.125,1409.5977 L1046.125,1410.8945 Q1046.125,1412.3477 1047.1719,1413.3164 Q1048.2344,1414.2852 1050.0938,1414.2852 Q1051.2031,1414.2852 1051.9844,1413.9727 Q1052.4219,1413.8008 1052.9375,1413.2852 Q1053.25,1412.9727 1053.4219,1412.8789 Q1053.5938,1412.7852 1053.8281,1412.7852 Q1054.2188,1412.7852 1054.5156,1413.0977 Q1054.8281,1413.3945 1054.8281,1413.8008 Q1054.8281,1414.207 1054.4219,1414.6758 Q1053.8281,1415.3633 1052.8906,1415.7539 Q1051.625,1416.2852 1050.1094,1416.2852 Q1048.3281,1416.2852 1046.9063,1415.5508 Q1045.75,1414.957 1044.9375,1413.6914 Q1044.125,1412.4258 1044.125,1410.9414 L1044.125,1409.582 Q1044.125,1408.0195 1044.8438,1406.6758 Q1045.5781,1405.3164 1046.8594,1404.582 Q1048.1563,1403.8477 1049.6094,1403.8477 Q1050.4688,1403.8477 1051.2188,1404.0508 Q1051.9844,1404.2539 1052.6406,1404.6602 Z " fill="#000000"/><text fill="#000000" font-family="sans-serif" font-size="20" font-style="italic" lengthAdjust="spacing" textLength="91" x="1131" y="1392.7656">«Domain»</text><text fill="#000000" font-family="sans-serif" font-size="20" font-style="italic" lengthAdjust="spacing" textLength="160" x="1096.5" y="1417.9219">«Aggregate Root»</text><text fill="#000000" font-family="sans-serif" font-size="20" lengthAdjust="spacing" textLength="222" x="1065.5" y="1443.0781">RequirementSpecification</text><line style="stroke:#181818;stroke-width:0.5;" x1="1035.5" x2="1289.5" y1="1452.4727" y2="1452.4727"/><rect fill="none" height="6" style="stroke:#C82930;stroke-width:1.0;" width="6" x="1042.5" y="1467.5508"/><text fill="#000000" font-family="sans-serif" font-size="20" lengthAdjust="spacing" textLength="145" x="1055.5" y="1477.2344">fileName : String</text><line style="stroke:#181818;stroke-width:0.5;" x1="1035.5" x2="1289.5" y1="1485.6289" y2="1485.6289"/><ellipse cx="1045.5" cy="1503.707" fill="#84BE84" rx="3" ry="3" style="stroke:#038048;stroke-width:1.0;"/><text fill="#000000" font-family="sans-serif" font-size="20" lengthAdjust="spacing" textLength="210" x="1055.5" y="1510.3906">requirementsFileName()</text></g><!--class CostumerManager--><g id="elem_CostumerManager"><rect codeLine="59" fill="#F1F1F1" height="101.4688" id="CostumerManager" rx="2.5" ry="2.5" style="stroke:#181818;stroke-width:0.5;" width="197" x="1518" y="251.5039"/><ellipse cx="1534" cy="294.2383" fill="#ADD1B2" rx="12" ry="12" style="stroke:#181818;stroke-width:1.0;"/><path d="M1536.1406,289.1602 Q1536.3281,288.9102 1536.5469,288.7852 Q1536.7656,288.6445 1537.0156,288.6445 Q1537.4531,288.6445 1537.7344,288.957 Q1538.0156,289.2539 1538.0156,289.9727 L1538.0156,291.6758 Q1538.0156,292.3945 1537.7344,292.707 Q1537.4531,293.0195 1537.0156,293.0195 Q1536.625,293.0195 1536.375,292.7852 Q1536.125,292.5664 1536.0156,291.957 Q1535.9531,291.5352 1535.7344,291.3164 Q1535.3438,290.8789 1534.625,290.6133 Q1533.9063,290.3477 1533.1875,290.3477 Q1532.2813,290.3477 1531.5313,290.7383 Q1530.7813,291.1289 1530.2031,292.0195 Q1529.625,292.8945 1529.625,294.0977 L1529.625,295.3945 Q1529.625,296.8477 1530.6719,297.8164 Q1531.7344,298.7852 1533.5938,298.7852 Q1534.7031,298.7852 1535.4844,298.4727 Q1535.9219,298.3008 1536.4375,297.7852 Q1536.75,297.4727 1536.9219,297.3789 Q1537.0938,297.2852 1537.3281,297.2852 Q1537.7188,297.2852 1538.0156,297.5977 Q1538.3281,297.8945 1538.3281,298.3008 Q1538.3281,298.707 1537.9219,299.1758 Q1537.3281,299.8633 1536.3906,300.2539 Q1535.125,300.7852 1533.6094,300.7852 Q1531.8281,300.7852 1530.4063,300.0508 Q1529.25,299.457 1528.4375,298.1914 Q1527.625,296.9258 1527.625,295.4414 L1527.625,294.082 Q1527.625,292.5195 1528.3438,291.1758 Q1529.0781,289.8164 1530.3594,289.082 Q1531.6563,288.3477 1533.1094,288.3477 Q1533.9688,288.3477 1534.7188,288.5508 Q1535.4844,288.7539 1536.1406,289.1602 Z " fill="#000000"/><text fill="#000000" font-family="sans-serif" font-size="20" font-style="italic" lengthAdjust="spacing" textLength="91" x="1585" y="277.2656">«Domain»</text><text fill="#000000" font-family="sans-serif" font-size="20" font-style="italic" lengthAdjust="spacing" textLength="160" x="1550.5" y="302.4219">«Aggregate Root»</text><text fill="#000000" font-family="sans-serif" font-size="20" lengthAdjust="spacing" textLength="163" x="1549" y="327.5781">CostumerManager</text><line style="stroke:#181818;stroke-width:0.5;" x1="1519" x2="1714" y1="336.9727" y2="336.9727"/><line style="stroke:#181818;stroke-width:0.5;" x1="1519" x2="1714" y1="344.9727" y2="344.9727"/></g><!--class AddressFactory--><g id="elem_AddressFactory"><rect codeLine="63" fill="#F1F1F1" height="126.625" id="AddressFactory" rx="2.5" ry="2.5" style="stroke:#181818;stroke-width:0.5;" width="522" x="2193.5" y="764.0039"/><ellipse cx="2380" cy="806.7383" fill="#ADD1B2" rx="12" ry="12" style="stroke:#181818;stroke-width:1.0;"/><path d="M2382.1406,801.6602 Q2382.3281,801.4102 2382.5469,801.2852 Q2382.7656,801.1445 2383.0156,801.1445 Q2383.4531,801.1445 2383.7344,801.457 Q2384.0156,801.7539 2384.0156,802.4727 L2384.0156,804.1758 Q2384.0156,804.8945 2383.7344,805.207 Q2383.4531,805.5195 2383.0156,805.5195 Q2382.625,805.5195 2382.375,805.2852 Q2382.125,805.0664 2382.0156,804.457 Q2381.9531,804.0352 2381.7344,803.8164 Q2381.3438,803.3789 2380.625,803.1133 Q2379.9063,802.8477 2379.1875,802.8477 Q2378.2813,802.8477 2377.5313,803.2383 Q2376.7813,803.6289 2376.2031,804.5195 Q2375.625,805.3945 2375.625,806.5977 L2375.625,807.8945 Q2375.625,809.3477 2376.6719,810.3164 Q2377.7344,811.2852 2379.5938,811.2852 Q2380.7031,811.2852 2381.4844,810.9727 Q2381.9219,810.8008 2382.4375,810.2852 Q2382.75,809.9727 2382.9219,809.8789 Q2383.0938,809.7852 2383.3281,809.7852 Q2383.7188,809.7852 2384.0156,810.0977 Q2384.3281,810.3945 2384.3281,810.8008 Q2384.3281,811.207 2383.9219,811.6758 Q2383.3281,812.3633 2382.3906,812.7539 Q2381.125,813.2852 2379.6094,813.2852 Q2377.8281,813.2852 2376.4063,812.5508 Q2375.25,811.957 2374.4375,810.6914 Q2373.625,809.4258 2373.625,807.9414 L2373.625,806.582 Q2373.625,805.0195 2374.3438,803.6758 Q2375.0781,802.3164 2376.3594,801.582 Q2377.6563,800.8477 2379.1094,800.8477 Q2379.9688,800.8477 2380.7188,801.0508 Q2381.4844,801.2539 2382.1406,801.6602 Z " fill="#000000"/><text fill="#000000" font-family="sans-serif" font-size="20" font-style="italic" lengthAdjust="spacing" textLength="91" x="2426.5" y="789.7656">«Domain»</text><text fill="#000000" font-family="sans-serif" font-size="20" font-style="italic" lengthAdjust="spacing" textLength="88" x="2428" y="814.9219">«Factory»</text><text fill="#000000" font-family="sans-serif" font-size="20" lengthAdjust="spacing" textLength="140" x="2402" y="840.0781">AddressFactory</text><line style="stroke:#181818;stroke-width:0.5;" x1="2194.5" x2="2714.5" y1="849.4727" y2="849.4727"/><line style="stroke:#181818;stroke-width:0.5;" x1="2194.5" x2="2714.5" y1="857.4727" y2="857.4727"/><text fill="#000000" font-family="sans-serif" font-size="20" lengthAdjust="spacing" textLength="510" x="2199.5" y="882.2344">create(streetName, city, district, state, zipcode) : Address</text></g><!--class Address--><g id="elem_Address"><rect codeLine="66" fill="#F1F1F1" height="252.4063" id="Address" rx="2.5" ry="2.5" style="stroke:#181818;stroke-width:0.5;" width="186" x="2791.5" y="1015.5039"/><ellipse cx="2816.5" cy="1058.2383" fill="#ADD1B2" rx="12" ry="12" style="stroke:#181818;stroke-width:1.0;"/><path d="M2818.6406,1053.1602 Q2818.8281,1052.9102 2819.0469,1052.7852 Q2819.2656,1052.6445 2819.5156,1052.6445 Q2819.9531,1052.6445 2820.2344,1052.957 Q2820.5156,1053.2539 2820.5156,1053.9727 L2820.5156,1055.6758 Q2820.5156,1056.3945 2820.2344,1056.707 Q2819.9531,1057.0195 2819.5156,1057.0195 Q2819.125,1057.0195 2818.875,1056.7852 Q2818.625,1056.5664 2818.5156,1055.957 Q2818.4531,1055.5352 2818.2344,1055.3164 Q2817.8438,1054.8789 2817.125,1054.6133 Q2816.4063,1054.3477 2815.6875,1054.3477 Q2814.7813,1054.3477 2814.0313,1054.7383 Q2813.2813,1055.1289 2812.7031,1056.0195 Q2812.125,1056.8945 2812.125,1058.0977 L2812.125,1059.3945 Q2812.125,1060.8477 2813.1719,1061.8164 Q2814.2344,1062.7852 2816.0938,1062.7852 Q2817.2031,1062.7852 2817.9844,1062.4727 Q2818.4219,1062.3008 2818.9375,1061.7852 Q2819.25,1061.4727 2819.4219,1061.3789 Q2819.5938,1061.2852 2819.8281,1061.2852 Q2820.2188,1061.2852 2820.5156,1061.5977 Q2820.8281,1061.8945 2820.8281,1062.3008 Q2820.8281,1062.707 2820.4219,1063.1758 Q2819.8281,1063.8633 2818.8906,1064.2539 Q2817.625,1064.7852 2816.1094,1064.7852 Q2814.3281,1064.7852 2812.9063,1064.0508 Q2811.75,1063.457 2810.9375,1062.1914 Q2810.125,1060.9258 2810.125,1059.4414 L2810.125,1058.082 Q2810.125,1056.5195 2810.8438,1055.1758 Q2811.5781,1053.8164 2812.8594,1053.082 Q2814.1563,1052.3477 2815.6094,1052.3477 Q2816.4688,1052.3477 2817.2188,1052.5508 Q2817.9844,1052.7539 2818.6406,1053.1602 Z " fill="#000000"/><text fill="#000000" font-family="sans-serif" font-size="20" font-style="italic" lengthAdjust="spacing" textLength="91" x="2854" y="1041.2656">«Domain»</text><text fill="#000000" font-family="sans-serif" font-size="20" font-style="italic" lengthAdjust="spacing" textLength="136" x="2831.5" y="1066.4219">«Value Object»</text><text fill="#000000" font-family="sans-serif" font-size="20" lengthAdjust="spacing" textLength="73" x="2863" y="1091.5781">Address</text><line style="stroke:#181818;stroke-width:0.5;" x1="2792.5" x2="2976.5" y1="1100.9727" y2="1100.9727"/><rect fill="none" height="6" style="stroke:#C82930;stroke-width:1.0;" width="6" x="2799.5" y="1116.0508"/><text fill="#000000" font-family="sans-serif" font-size="20" lengthAdjust="spacing" textLength="159" x="2812.5" y="1125.7344">String streetName</text><rect fill="none" height="6" style="stroke:#C82930;stroke-width:1.0;" width="6" x="2799.5" y="1141.207"/><text fill="#000000" font-family="sans-serif" font-size="20" lengthAdjust="spacing" textLength="87" x="2812.5" y="1150.8906">String city</text><rect fill="none" height="6" style="stroke:#C82930;stroke-width:1.0;" width="6" x="2799.5" y="1166.3633"/><text fill="#000000" font-family="sans-serif" font-size="20" lengthAdjust="spacing" textLength="115" x="2812.5" y="1176.0469">String district</text><rect fill="none" height="6" style="stroke:#C82930;stroke-width:1.0;" width="6" x="2799.5" y="1191.5195"/><text fill="#000000" font-family="sans-serif" font-size="20" lengthAdjust="spacing" textLength="101" x="2812.5" y="1201.2031">String state</text><rect fill="none" height="6" style="stroke:#C82930;stroke-width:1.0;" width="6" x="2799.5" y="1216.6758"/><text fill="#000000" font-family="sans-serif" font-size="20" lengthAdjust="spacing" textLength="124" x="2812.5" y="1226.3594">String zipcode</text><line style="stroke:#181818;stroke-width:0.5;" x1="2792.5" x2="2976.5" y1="1234.7539" y2="1234.7539"/><ellipse cx="2802.5" cy="1252.832" fill="#84BE84" rx="3" ry="3" style="stroke:#038048;stroke-width:1.0;"/><text fill="#000000" font-family="sans-serif" font-size="20" lengthAdjust="spacing" textLength="81" x="2812.5" y="1259.5156">valueOf()</text></g><!--class JobOpeningFactory--><g id="elem_JobOpeningFactory"><rect codeLine="76" fill="#F1F1F1" height="202.0938" id="JobOpeningFactory" rx="2.5" ry="2.5" style="stroke:#181818;stroke-width:0.5;" width="559" x="2751" y="726.5039"/><ellipse cx="2940" cy="769.2383" fill="#ADD1B2" rx="12" ry="12" style="stroke:#181818;stroke-width:1.0;"/><path d="M2942.1406,764.1602 Q2942.3281,763.9102 2942.5469,763.7852 Q2942.7656,763.6445 2943.0156,763.6445 Q2943.4531,763.6445 2943.7344,763.957 Q2944.0156,764.2539 2944.0156,764.9727 L2944.0156,766.6758 Q2944.0156,767.3945 2943.7344,767.707 Q2943.4531,768.0195 2943.0156,768.0195 Q2942.625,768.0195 2942.375,767.7852 Q2942.125,767.5664 2942.0156,766.957 Q2941.9531,766.5352 2941.7344,766.3164 Q2941.3438,765.8789 2940.625,765.6133 Q2939.9063,765.3477 2939.1875,765.3477 Q2938.2813,765.3477 2937.5313,765.7383 Q2936.7813,766.1289 2936.2031,767.0195 Q2935.625,767.8945 2935.625,769.0977 L2935.625,770.3945 Q2935.625,771.8477 2936.6719,772.8164 Q2937.7344,773.7852 2939.5938,773.7852 Q2940.7031,773.7852 2941.4844,773.4727 Q2941.9219,773.3008 2942.4375,772.7852 Q2942.75,772.4727 2942.9219,772.3789 Q2943.0938,772.2852 2943.3281,772.2852 Q2943.7188,772.2852 2944.0156,772.5977 Q2944.3281,772.8945 2944.3281,773.3008 Q2944.3281,773.707 2943.9219,774.1758 Q2943.3281,774.8633 2942.3906,775.2539 Q2941.125,775.7852 2939.6094,775.7852 Q2937.8281,775.7852 2936.4063,775.0508 Q2935.25,774.457 2934.4375,773.1914 Q2933.625,771.9258 2933.625,770.4414 L2933.625,769.082 Q2933.625,767.5195 2934.3438,766.1758 Q2935.0781,764.8164 2936.3594,764.082 Q2937.6563,763.3477 2939.1094,763.3477 Q2939.9688,763.3477 2940.7188,763.5508 Q2941.4844,763.7539 2942.1406,764.1602 Z " fill="#000000"/><text fill="#000000" font-family="sans-serif" font-size="20" font-style="italic" lengthAdjust="spacing" textLength="91" x="3002.5" y="752.2656">«Domain»</text><text fill="#000000" font-family="sans-serif" font-size="20" font-style="italic" lengthAdjust="spacing" textLength="88" x="3004" y="777.4219">«Factory»</text><text fill="#000000" font-family="sans-serif" font-size="20" lengthAdjust="spacing" textLength="172" x="2962" y="802.5781">JobOpeningFactory</text><line style="stroke:#181818;stroke-width:0.5;" x1="2752" x2="3309" y1="811.9727" y2="811.9727"/><line style="stroke:#181818;stroke-width:0.5;" x1="2752" x2="3309" y1="819.9727" y2="819.9727"/><ellipse cx="2762" cy="863.207" fill="#84BE84" rx="3" ry="3" style="stroke:#038048;stroke-width:1.0;"/><text fill="#000000" font-family="sans-serif" font-size="20" lengthAdjust="spacing" textLength="532" x="2772" y="844.7344">create(function, contractType, workMode, companyAddress,</text><text fill="#000000" font-family="sans-serif" font-size="20" lengthAdjust="spacing" textLength="521" x="2772" y="869.8906">costumerCode, companyName, numVacancies, description,</text><text fill="#000000" font-family="sans-serif" font-size="20" lengthAdjust="spacing" textLength="396" x="2772" y="895.0469">requirementsSpecificationsFile) : JobOpening</text><ellipse cx="2762" cy="913.5195" fill="#84BE84" rx="3" ry="3" style="stroke:#038048;stroke-width:1.0;"/><text fill="#000000" font-family="sans-serif" font-size="20" lengthAdjust="spacing" textLength="319" x="2772" y="920.2031">getJobReference(lastJobReference)</text></g><!--class JobOpening--><g id="elem_JobOpening"><rect codeLine="80" fill="#F1F1F1" height="353.0313" id="JobOpening" rx="2.5" ry="2.5" style="stroke:#181818;stroke-width:0.5;" width="342" x="2128.5" y="1618.5039"/><ellipse cx="2217" cy="1661.2383" fill="#ADD1B2" rx="12" ry="12" style="stroke:#181818;stroke-width:1.0;"/><path d="M2219.1406,1656.1602 Q2219.3281,1655.9102 2219.5469,1655.7852 Q2219.7656,1655.6445 2220.0156,1655.6445 Q2220.4531,1655.6445 2220.7344,1655.957 Q2221.0156,1656.2539 2221.0156,1656.9727 L2221.0156,1658.6758 Q2221.0156,1659.3945 2220.7344,1659.707 Q2220.4531,1660.0195 2220.0156,1660.0195 Q2219.625,1660.0195 2219.375,1659.7852 Q2219.125,1659.5664 2219.0156,1658.957 Q2218.9531,1658.5352 2218.7344,1658.3164 Q2218.3438,1657.8789 2217.625,1657.6133 Q2216.9063,1657.3477 2216.1875,1657.3477 Q2215.2813,1657.3477 2214.5313,1657.7383 Q2213.7813,1658.1289 2213.2031,1659.0195 Q2212.625,1659.8945 2212.625,1661.0977 L2212.625,1662.3945 Q2212.625,1663.8477 2213.6719,1664.8164 Q2214.7344,1665.7852 2216.5938,1665.7852 Q2217.7031,1665.7852 2218.4844,1665.4727 Q2218.9219,1665.3008 2219.4375,1664.7852 Q2219.75,1664.4727 2219.9219,1664.3789 Q2220.0938,1664.2852 2220.3281,1664.2852 Q2220.7188,1664.2852 2221.0156,1664.5977 Q2221.3281,1664.8945 2221.3281,1665.3008 Q2221.3281,1665.707 2220.9219,1666.1758 Q2220.3281,1666.8633 2219.3906,1667.2539 Q2218.125,1667.7852 2216.6094,1667.7852 Q2214.8281,1667.7852 2213.4063,1667.0508 Q2212.25,1666.457 2211.4375,1665.1914 Q2210.625,1663.9258 2210.625,1662.4414 L2210.625,1661.082 Q2210.625,1659.5195 2211.3438,1658.1758 Q2212.0781,1656.8164 2213.3594,1656.082 Q2214.6563,1655.3477 2216.1094,1655.3477 Q2216.9688,1655.3477 2217.7188,1655.5508 Q2218.4844,1655.7539 2219.1406,1656.1602 Z " fill="#000000"/><text fill="#000000" font-family="sans-serif" font-size="20" font-style="italic" lengthAdjust="spacing" textLength="91" x="2271.5" y="1644.2656">«Domain»</text><text fill="#000000" font-family="sans-serif" font-size="20" font-style="italic" lengthAdjust="spacing" textLength="160" x="2237" y="1669.4219">«Aggregate Root»</text><text fill="#000000" font-family="sans-serif" font-size="20" lengthAdjust="spacing" textLength="105" x="2264.5" y="1694.5781">JobOpening</text><line style="stroke:#181818;stroke-width:0.5;" x1="2129.5" x2="2469.5" y1="1703.9727" y2="1703.9727"/><rect fill="none" height="6" style="stroke:#C82930;stroke-width:1.0;" width="6" x="2136.5" y="1719.0508"/><text fill="#000000" font-family="sans-serif" font-size="20" lengthAdjust="spacing" textLength="136" x="2149.5" y="1728.7344">function : String</text><rect fill="none" height="6" style="stroke:#C82930;stroke-width:1.0;" width="6" x="2136.5" y="1744.207"/><text fill="#000000" font-family="sans-serif" font-size="20" lengthAdjust="spacing" textLength="252" x="2149.5" y="1753.8906">contractType : ContractType</text><rect fill="none" height="6" style="stroke:#C82930;stroke-width:1.0;" width="6" x="2136.5" y="1769.3633"/><text fill="#000000" font-family="sans-serif" font-size="20" lengthAdjust="spacing" textLength="208" x="2149.5" y="1779.0469">workMode : WorkMode</text><rect fill="none" height="6" style="stroke:#C82930;stroke-width:1.0;" width="6" x="2136.5" y="1794.5195"/><text fill="#000000" font-family="sans-serif" font-size="20" lengthAdjust="spacing" textLength="243" x="2149.5" y="1804.2031">companyAddress : Address</text><rect fill="none" height="6" style="stroke:#C82930;stroke-width:1.0;" width="6" x="2136.5" y="1819.6758"/><text fill="#000000" font-family="sans-serif" font-size="20" lengthAdjust="spacing" textLength="197" x="2149.5" y="1829.3594">costumerCode : String</text><rect fill="none" height="6" style="stroke:#C82930;stroke-width:1.0;" width="6" x="2136.5" y="1844.832"/><text fill="#000000" font-family="sans-serif" font-size="20" lengthAdjust="spacing" textLength="199" x="2149.5" y="1854.5156">companyName : String</text><rect fill="none" height="6" style="stroke:#C82930;stroke-width:1.0;" width="6" x="2136.5" y="1869.9883"/><text fill="#000000" font-family="sans-serif" font-size="20" lengthAdjust="spacing" textLength="206" x="2149.5" y="1879.6719">numVacancies : Integer</text><rect fill="none" height="6" style="stroke:#C82930;stroke-width:1.0;" width="6" x="2136.5" y="1895.1445"/><text fill="#000000" font-family="sans-serif" font-size="20" lengthAdjust="spacing" textLength="164" x="2149.5" y="1904.8281">description : String</text><rect fill="none" height="6" style="stroke:#C82930;stroke-width:1.0;" width="6" x="2136.5" y="1920.3008"/><text fill="#000000" font-family="sans-serif" font-size="20" lengthAdjust="spacing" textLength="315" x="2149.5" y="1929.9844">requirementsSpecificationsFile : File</text><line style="stroke:#181818;stroke-width:0.5;" x1="2129.5" x2="2469.5" y1="1938.3789" y2="1938.3789"/><ellipse cx="2139.5" cy="1956.457" fill="#84BE84" rx="3" ry="3" style="stroke:#038048;stroke-width:1.0;"/><text fill="#000000" font-family="sans-serif" font-size="20" lengthAdjust="spacing" textLength="70" x="2149.5" y="1963.1406">create()</text></g><!--class WorkMode--><g id="elem_WorkMode"><rect codeLine="93" fill="#F1F1F1" height="176.9375" id="WorkMode" rx="2.5" ry="2.5" style="stroke:#181818;stroke-width:0.5;" width="301" x="1674" y="1354.5039"/><ellipse cx="1754" cy="1397.2383" fill="#ADD1B2" rx="12" ry="12" style="stroke:#181818;stroke-width:1.0;"/><path d="M1756.1406,1392.1602 Q1756.3281,1391.9102 1756.5469,1391.7852 Q1756.7656,1391.6445 1757.0156,1391.6445 Q1757.4531,1391.6445 1757.7344,1391.957 Q1758.0156,1392.2539 1758.0156,1392.9727 L1758.0156,1394.6758 Q1758.0156,1395.3945 1757.7344,1395.707 Q1757.4531,1396.0195 1757.0156,1396.0195 Q1756.625,1396.0195 1756.375,1395.7852 Q1756.125,1395.5664 1756.0156,1394.957 Q1755.9531,1394.5352 1755.7344,1394.3164 Q1755.3438,1393.8789 1754.625,1393.6133 Q1753.9063,1393.3477 1753.1875,1393.3477 Q1752.2813,1393.3477 1751.5313,1393.7383 Q1750.7813,1394.1289 1750.2031,1395.0195 Q1749.625,1395.8945 1749.625,1397.0977 L1749.625,1398.3945 Q1749.625,1399.8477 1750.6719,1400.8164 Q1751.7344,1401.7852 1753.5938,1401.7852 Q1754.7031,1401.7852 1755.4844,1401.4727 Q1755.9219,1401.3008 1756.4375,1400.7852 Q1756.75,1400.4727 1756.9219,1400.3789 Q1757.0938,1400.2852 1757.3281,1400.2852 Q1757.7188,1400.2852 1758.0156,1400.5977 Q1758.3281,1400.8945 1758.3281,1401.3008 Q1758.3281,1401.707 1757.9219,1402.1758 Q1757.3281,1402.8633 1756.3906,1403.2539 Q1755.125,1403.7852 1753.6094,1403.7852 Q1751.8281,1403.7852 1750.4063,1403.0508 Q1749.25,1402.457 1748.4375,1401.1914 Q1747.625,1399.9258 1747.625,1398.4414 L1747.625,1397.082 Q1747.625,1395.5195 1748.3438,1394.1758 Q1749.0781,1392.8164 1750.3594,1392.082 Q1751.6563,1391.3477 1753.1094,1391.3477 Q1753.9688,1391.3477 1754.7188,1391.5508 Q1755.4844,1391.7539 1756.1406,1392.1602 Z " fill="#000000"/><text fill="#000000" font-family="sans-serif" font-size="20" font-style="italic" lengthAdjust="spacing" textLength="91" x="1796.5" y="1380.2656">«Domain»</text><text fill="#000000" font-family="sans-serif" font-size="20" font-style="italic" lengthAdjust="spacing" textLength="136" x="1774" y="1405.4219">«Value Object»</text><text fill="#000000" font-family="sans-serif" font-size="20" lengthAdjust="spacing" textLength="97" x="1793.5" y="1430.5781">WorkMode</text><line style="stroke:#181818;stroke-width:0.5;" x1="1675" x2="1974" y1="1439.9727" y2="1439.9727"/><rect fill="none" height="6" style="stroke:#C82930;stroke-width:1.0;" width="6" x="1682" y="1455.0508"/><text fill="#000000" font-family="sans-serif" font-size="20" lengthAdjust="spacing" textLength="274" x="1695" y="1464.7344">workModeDenomination: String</text><line style="stroke:#181818;stroke-width:0.5;" x1="1675" x2="1974" y1="1473.1289" y2="1473.1289"/><ellipse cx="1685" cy="1491.207" fill="#84BE84" rx="3" ry="3" style="stroke:#038048;stroke-width:1.0;"/><text fill="#000000" font-family="sans-serif" font-size="20" lengthAdjust="spacing" textLength="81" x="1695" y="1497.8906">valueOf()</text><ellipse cx="1685" cy="1516.3633" fill="#84BE84" rx="3" ry="3" style="stroke:#038048;stroke-width:1.0;"/><text fill="#000000" font-family="sans-serif" font-size="20" lengthAdjust="spacing" textLength="63" x="1695" y="1523.0469">mode()</text></g><!--class ContractType--><g id="elem_ContractType"><rect codeLine="99" fill="#F1F1F1" height="176.9375" id="ContractType" rx="2.5" ry="2.5" style="stroke:#181818;stroke-width:0.5;" width="329" x="2135" y="1354.5039"/><ellipse cx="2229" cy="1397.2383" fill="#ADD1B2" rx="12" ry="12" style="stroke:#181818;stroke-width:1.0;"/><path d="M2231.1406,1392.1602 Q2231.3281,1391.9102 2231.5469,1391.7852 Q2231.7656,1391.6445 2232.0156,1391.6445 Q2232.4531,1391.6445 2232.7344,1391.957 Q2233.0156,1392.2539 2233.0156,1392.9727 L2233.0156,1394.6758 Q2233.0156,1395.3945 2232.7344,1395.707 Q2232.4531,1396.0195 2232.0156,1396.0195 Q2231.625,1396.0195 2231.375,1395.7852 Q2231.125,1395.5664 2231.0156,1394.957 Q2230.9531,1394.5352 2230.7344,1394.3164 Q2230.3438,1393.8789 2229.625,1393.6133 Q2228.9063,1393.3477 2228.1875,1393.3477 Q2227.2813,1393.3477 2226.5313,1393.7383 Q2225.7813,1394.1289 2225.2031,1395.0195 Q2224.625,1395.8945 2224.625,1397.0977 L2224.625,1398.3945 Q2224.625,1399.8477 2225.6719,1400.8164 Q2226.7344,1401.7852 2228.5938,1401.7852 Q2229.7031,1401.7852 2230.4844,1401.4727 Q2230.9219,1401.3008 2231.4375,1400.7852 Q2231.75,1400.4727 2231.9219,1400.3789 Q2232.0938,1400.2852 2232.3281,1400.2852 Q2232.7188,1400.2852 2233.0156,1400.5977 Q2233.3281,1400.8945 2233.3281,1401.3008 Q2233.3281,1401.707 2232.9219,1402.1758 Q2232.3281,1402.8633 2231.3906,1403.2539 Q2230.125,1403.7852 2228.6094,1403.7852 Q2226.8281,1403.7852 2225.4063,1403.0508 Q2224.25,1402.457 2223.4375,1401.1914 Q2222.625,1399.9258 2222.625,1398.4414 L2222.625,1397.082 Q2222.625,1395.5195 2223.3438,1394.1758 Q2224.0781,1392.8164 2225.3594,1392.082 Q2226.6563,1391.3477 2228.1094,1391.3477 Q2228.9688,1391.3477 2229.7188,1391.5508 Q2230.4844,1391.7539 2231.1406,1392.1602 Z " fill="#000000"/><text fill="#000000" font-family="sans-serif" font-size="20" font-style="italic" lengthAdjust="spacing" textLength="91" x="2271.5" y="1380.2656">«Domain»</text><text fill="#000000" font-family="sans-serif" font-size="20" font-style="italic" lengthAdjust="spacing" textLength="136" x="2249" y="1405.4219">«Value Object»</text><text fill="#000000" font-family="sans-serif" font-size="20" lengthAdjust="spacing" textLength="119" x="2257.5" y="1430.5781">ContractType</text><line style="stroke:#181818;stroke-width:0.5;" x1="2136" x2="2463" y1="1439.9727" y2="1439.9727"/><rect fill="none" height="6" style="stroke:#C82930;stroke-width:1.0;" width="6" x="2143" y="1455.0508"/><text fill="#000000" font-family="sans-serif" font-size="20" lengthAdjust="spacing" textLength="302" x="2156" y="1464.7344">contractTypeDenomination : String</text><line style="stroke:#181818;stroke-width:0.5;" x1="2136" x2="2463" y1="1473.1289" y2="1473.1289"/><ellipse cx="2146" cy="1491.207" fill="#84BE84" rx="3" ry="3" style="stroke:#038048;stroke-width:1.0;"/><text fill="#000000" font-family="sans-serif" font-size="20" lengthAdjust="spacing" textLength="81" x="2156" y="1497.8906">valueOf()</text><ellipse cx="2146" cy="1516.3633" fill="#84BE84" rx="3" ry="3" style="stroke:#038048;stroke-width:1.0;"/><text fill="#000000" font-family="sans-serif" font-size="20" lengthAdjust="spacing" textLength="52" x="2156" y="1523.0469">type()</text></g><!--class Entity--><g id="elem_Entity"><rect codeLine="105" fill="#F1F1F1" height="202.0938" id="Entity" rx="2.5" ry="2.5" style="stroke:#181818;stroke-width:0.5;" width="226" x="608.5" y="1040.5039"/><ellipse cx="640.7" cy="1083.2383" fill="#ADD1B2" rx="12" ry="12" style="stroke:#181818;stroke-width:1.0;"/><path d="M642.8406,1078.1602 Q643.0281,1077.9102 643.2469,1077.7852 Q643.4656,1077.6445 643.7156,1077.6445 Q644.1531,1077.6445 644.4344,1077.957 Q644.7156,1078.2539 644.7156,1078.9727 L644.7156,1080.6758 Q644.7156,1081.3945 644.4344,1081.707 Q644.1531,1082.0195 643.7156,1082.0195 Q643.325,1082.0195 643.075,1081.7852 Q642.825,1081.5664 642.7156,1080.957 Q642.6531,1080.5352 642.4344,1080.3164 Q642.0438,1079.8789 641.325,1079.6133 Q640.6063,1079.3477 639.8875,1079.3477 Q638.9813,1079.3477 638.2313,1079.7383 Q637.4813,1080.1289 636.9031,1081.0195 Q636.325,1081.8945 636.325,1083.0977 L636.325,1084.3945 Q636.325,1085.8477 637.3719,1086.8164 Q638.4344,1087.7852 640.2938,1087.7852 Q641.4031,1087.7852 642.1844,1087.4727 Q642.6219,1087.3008 643.1375,1086.7852 Q643.45,1086.4727 643.6219,1086.3789 Q643.7938,1086.2852 644.0281,1086.2852 Q644.4188,1086.2852 644.7156,1086.5977 Q645.0281,1086.8945 645.0281,1087.3008 Q645.0281,1087.707 644.6219,1088.1758 Q644.0281,1088.8633 643.0906,1089.2539 Q641.825,1089.7852 640.3094,1089.7852 Q638.5281,1089.7852 637.1063,1089.0508 Q635.95,1088.457 635.1375,1087.1914 Q634.325,1085.9258 634.325,1084.4414 L634.325,1083.082 Q634.325,1081.5195 635.0438,1080.1758 Q635.7781,1078.8164 637.0594,1078.082 Q638.3563,1077.3477 639.8094,1077.3477 Q640.6688,1077.3477 641.4188,1077.5508 Q642.1844,1077.7539 642.8406,1078.1602 Z " fill="#000000"/><text fill="#000000" font-family="sans-serif" font-size="20" font-style="italic" lengthAdjust="spacing" textLength="160" x="657.3" y="1066.2656">«Aggregate Root»</text><text fill="#000000" font-family="sans-serif" font-size="20" font-style="italic" lengthAdjust="spacing" textLength="71" x="701.8" y="1091.4219">«Entity»</text><text fill="#000000" font-family="sans-serif" font-size="20" lengthAdjust="spacing" textLength="49" x="712.8" y="1116.5781">Entity</text><line style="stroke:#181818;stroke-width:0.5;" x1="609.5" x2="833.5" y1="1125.9727" y2="1125.9727"/><rect fill="none" height="6" style="stroke:#C82930;stroke-width:1.0;" width="6" x="616.5" y="1141.0508"/><text fill="#000000" font-family="sans-serif" font-size="20" lengthAdjust="spacing" textLength="199" x="629.5" y="1150.7344">companyName : String</text><rect fill="none" height="6" style="stroke:#C82930;stroke-width:1.0;" width="6" x="616.5" y="1166.207"/><text fill="#000000" font-family="sans-serif" font-size="20" lengthAdjust="spacing" textLength="197" x="629.5" y="1175.8906">costumerCode : String</text><line style="stroke:#181818;stroke-width:0.5;" x1="609.5" x2="833.5" y1="1184.2852" y2="1184.2852"/><ellipse cx="619.5" cy="1202.3633" fill="#84BE84" rx="3" ry="3" style="stroke:#038048;stroke-width:1.0;"/><text fill="#000000" font-family="sans-serif" font-size="20" lengthAdjust="spacing" textLength="144" x="629.5" y="1209.0469">companyName()</text><ellipse cx="619.5" cy="1227.5195" fill="#84BE84" rx="3" ry="3" style="stroke:#038048;stroke-width:1.0;"/><text fill="#000000" font-family="sans-serif" font-size="20" lengthAdjust="spacing" textLength="142" x="629.5" y="1234.2031">costumerCode()</text></g><!--class JobOpeningRepository--><g id="elem_JobOpeningRepository"><rect codeLine="114" fill="#F1F1F1" height="202.0938" id="JobOpeningRepository" rx="2.5" ry="2.5" style="stroke:#181818;stroke-width:0.5;" width="443" x="2313" y="1040.5039"/><ellipse cx="2430" cy="1083.2383" fill="#ADD1B2" rx="12" ry="12" style="stroke:#181818;stroke-width:1.0;"/><path d="M2432.1406,1078.1602 Q2432.3281,1077.9102 2432.5469,1077.7852 Q2432.7656,1077.6445 2433.0156,1077.6445 Q2433.4531,1077.6445 2433.7344,1077.957 Q2434.0156,1078.2539 2434.0156,1078.9727 L2434.0156,1080.6758 Q2434.0156,1081.3945 2433.7344,1081.707 Q2433.4531,1082.0195 2433.0156,1082.0195 Q2432.625,1082.0195 2432.375,1081.7852 Q2432.125,1081.5664 2432.0156,1080.957 Q2431.9531,1080.5352 2431.7344,1080.3164 Q2431.3438,1079.8789 2430.625,1079.6133 Q2429.9063,1079.3477 2429.1875,1079.3477 Q2428.2813,1079.3477 2427.5313,1079.7383 Q2426.7813,1080.1289 2426.2031,1081.0195 Q2425.625,1081.8945 2425.625,1083.0977 L2425.625,1084.3945 Q2425.625,1085.8477 2426.6719,1086.8164 Q2427.7344,1087.7852 2429.5938,1087.7852 Q2430.7031,1087.7852 2431.4844,1087.4727 Q2431.9219,1087.3008 2432.4375,1086.7852 Q2432.75,1086.4727 2432.9219,1086.3789 Q2433.0938,1086.2852 2433.3281,1086.2852 Q2433.7188,1086.2852 2434.0156,1086.5977 Q2434.3281,1086.8945 2434.3281,1087.3008 Q2434.3281,1087.707 2433.9219,1088.1758 Q2433.3281,1088.8633 2432.3906,1089.2539 Q2431.125,1089.7852 2429.6094,1089.7852 Q2427.8281,1089.7852 2426.4063,1089.0508 Q2425.25,1088.457 2424.4375,1087.1914 Q2423.625,1085.9258 2423.625,1084.4414 L2423.625,1083.082 Q2423.625,1081.5195 2424.3438,1080.1758 Q2425.0781,1078.8164 2426.3594,1078.082 Q2427.6563,1077.3477 2429.1094,1077.3477 Q2429.9688,1077.3477 2430.7188,1077.5508 Q2431.4844,1077.7539 2432.1406,1078.1602 Z " fill="#000000"/><text fill="#000000" font-family="sans-serif" font-size="20" font-style="italic" lengthAdjust="spacing" textLength="126" x="2489" y="1066.2656">«Persistence»</text><text fill="#000000" font-family="sans-serif" font-size="20" font-style="italic" lengthAdjust="spacing" textLength="117" x="2493.5" y="1091.4219">«Repository»</text><text fill="#000000" font-family="sans-serif" font-size="20" lengthAdjust="spacing" textLength="200" x="2452" y="1116.5781">JobOpeningRepository</text><line style="stroke:#181818;stroke-width:0.5;" x1="2314" x2="2755" y1="1125.9727" y2="1125.9727"/><line style="stroke:#181818;stroke-width:0.5;" x1="2314" x2="2755" y1="1133.9727" y2="1133.9727"/><ellipse cx="2324" cy="1152.0508" fill="#84BE84" rx="3" ry="3" style="stroke:#038048;stroke-width:1.0;"/><text fill="#000000" font-family="sans-serif" font-size="20" lengthAdjust="spacing" textLength="219" x="2334" y="1158.7344">save(JobOpening: entity)</text><ellipse cx="2324" cy="1177.207" fill="#84BE84" rx="3" ry="3" style="stroke:#038048;stroke-width:1.0;"/><text fill="#000000" font-family="sans-serif" font-size="20" lengthAdjust="spacing" textLength="171" x="2334" y="1183.8906">getContractTypes()</text><ellipse cx="2324" cy="1202.3633" fill="#84BE84" rx="3" ry="3" style="stroke:#038048;stroke-width:1.0;"/><text fill="#000000" font-family="sans-serif" font-size="20" lengthAdjust="spacing" textLength="149" x="2334" y="1209.0469">getWorkModes()</text><ellipse cx="2324" cy="1227.5195" fill="#84BE84" rx="3" ry="3" style="stroke:#038048;stroke-width:1.0;"/><text fill="#000000" font-family="sans-serif" font-size="20" lengthAdjust="spacing" textLength="416" x="2334" y="1234.2031">getCostumerLastJobReference(costumerCode)</text></g><!--class CostumerRepository--><g id="elem_CostumerRepository"><rect codeLine="122" fill="#F1F1F1" height="151.7813" id="CostumerRepository" rx="2.5" ry="2.5" style="stroke:#181818;stroke-width:0.5;" width="351" x="1491" y="1065.5039"/><ellipse cx="1572" cy="1108.2383" fill="#ADD1B2" rx="12" ry="12" style="stroke:#181818;stroke-width:1.0;"/><path d="M1574.1406,1103.1602 Q1574.3281,1102.9102 1574.5469,1102.7852 Q1574.7656,1102.6445 1575.0156,1102.6445 Q1575.4531,1102.6445 1575.7344,1102.957 Q1576.0156,1103.2539 1576.0156,1103.9727 L1576.0156,1105.6758 Q1576.0156,1106.3945 1575.7344,1106.707 Q1575.4531,1107.0195 1575.0156,1107.0195 Q1574.625,1107.0195 1574.375,1106.7852 Q1574.125,1106.5664 1574.0156,1105.957 Q1573.9531,1105.5352 1573.7344,1105.3164 Q1573.3438,1104.8789 1572.625,1104.6133 Q1571.9063,1104.3477 1571.1875,1104.3477 Q1570.2813,1104.3477 1569.5313,1104.7383 Q1568.7813,1105.1289 1568.2031,1106.0195 Q1567.625,1106.8945 1567.625,1108.0977 L1567.625,1109.3945 Q1567.625,1110.8477 1568.6719,1111.8164 Q1569.7344,1112.7852 1571.5938,1112.7852 Q1572.7031,1112.7852 1573.4844,1112.4727 Q1573.9219,1112.3008 1574.4375,1111.7852 Q1574.75,1111.4727 1574.9219,1111.3789 Q1575.0938,1111.2852 1575.3281,1111.2852 Q1575.7188,1111.2852 1576.0156,1111.5977 Q1576.3281,1111.8945 1576.3281,1112.3008 Q1576.3281,1112.707 1575.9219,1113.1758 Q1575.3281,1113.8633 1574.3906,1114.2539 Q1573.125,1114.7852 1571.6094,1114.7852 Q1569.8281,1114.7852 1568.4063,1114.0508 Q1567.25,1113.457 1566.4375,1112.1914 Q1565.625,1110.9258 1565.625,1109.4414 L1565.625,1108.082 Q1565.625,1106.5195 1566.3438,1105.1758 Q1567.0781,1103.8164 1568.3594,1103.082 Q1569.6563,1102.3477 1571.1094,1102.3477 Q1571.9688,1102.3477 1572.7188,1102.5508 Q1573.4844,1102.7539 1574.1406,1103.1602 Z " fill="#000000"/><text fill="#000000" font-family="sans-serif" font-size="20" font-style="italic" lengthAdjust="spacing" textLength="126" x="1621" y="1091.2656">«Persistence»</text><text fill="#000000" font-family="sans-serif" font-size="20" font-style="italic" lengthAdjust="spacing" textLength="117" x="1625.5" y="1116.4219">«Repository»</text><text fill="#000000" font-family="sans-serif" font-size="20" lengthAdjust="spacing" textLength="180" x="1594" y="1141.5781">CostumerRepository</text><line style="stroke:#181818;stroke-width:0.5;" x1="1492" x2="1841" y1="1150.9727" y2="1150.9727"/><line style="stroke:#181818;stroke-width:0.5;" x1="1492" x2="1841" y1="1158.9727" y2="1158.9727"/><ellipse cx="1502" cy="1177.0508" fill="#84BE84" rx="3" ry="3" style="stroke:#038048;stroke-width:1.0;"/><text fill="#000000" font-family="sans-serif" font-size="20" lengthAdjust="spacing" textLength="199" x="1512" y="1183.7344">save(Costumer: entity)</text><ellipse cx="1502" cy="1202.207" fill="#84BE84" rx="3" ry="3" style="stroke:#038048;stroke-width:1.0;"/><text fill="#000000" font-family="sans-serif" font-size="20" lengthAdjust="spacing" textLength="324" x="1512" y="1208.8906">getAssignedCostumerList(username)</text></g><!--class RequirementsSpecificationsRepository--><g id="elem_RequirementsSpecificationsRepository"><rect codeLine="127" fill="#F1F1F1" height="151.7813" id="RequirementsSpecificationsRepository" rx="2.5" ry="2.5" style="stroke:#181818;stroke-width:0.5;" width="586" x="869.5" y="1065.5039"/><ellipse cx="989.5" cy="1108.2383" fill="#ADD1B2" rx="12" ry="12" style="stroke:#181818;stroke-width:1.0;"/><path d="M991.6406,1103.1602 Q991.8281,1102.9102 992.0469,1102.7852 Q992.2656,1102.6445 992.5156,1102.6445 Q992.9531,1102.6445 993.2344,1102.957 Q993.5156,1103.2539 993.5156,1103.9727 L993.5156,1105.6758 Q993.5156,1106.3945 993.2344,1106.707 Q992.9531,1107.0195 992.5156,1107.0195 Q992.125,1107.0195 991.875,1106.7852 Q991.625,1106.5664 991.5156,1105.957 Q991.4531,1105.5352 991.2344,1105.3164 Q990.8438,1104.8789 990.125,1104.6133 Q989.4063,1104.3477 988.6875,1104.3477 Q987.7813,1104.3477 987.0313,1104.7383 Q986.2813,1105.1289 985.7031,1106.0195 Q985.125,1106.8945 985.125,1108.0977 L985.125,1109.3945 Q985.125,1110.8477 986.1719,1111.8164 Q987.2344,1112.7852 989.0938,1112.7852 Q990.2031,1112.7852 990.9844,1112.4727 Q991.4219,1112.3008 991.9375,1111.7852 Q992.25,1111.4727 992.4219,1111.3789 Q992.5938,1111.2852 992.8281,1111.2852 Q993.2188,1111.2852 993.5156,1111.5977 Q993.8281,1111.8945 993.8281,1112.3008 Q993.8281,1112.707 993.4219,1113.1758 Q992.8281,1113.8633 991.8906,1114.2539 Q990.625,1114.7852 989.1094,1114.7852 Q987.3281,1114.7852 985.9063,1114.0508 Q984.75,1113.457 983.9375,1112.1914 Q983.125,1110.9258 983.125,1109.4414 L983.125,1108.082 Q983.125,1106.5195 983.8438,1105.1758 Q984.5781,1103.8164 985.8594,1103.082 Q987.1563,1102.3477 988.6094,1102.3477 Q989.4688,1102.3477 990.2188,1102.5508 Q990.9844,1102.7539 991.6406,1103.1602 Z " fill="#000000"/><text fill="#000000" font-family="sans-serif" font-size="20" font-style="italic" lengthAdjust="spacing" textLength="126" x="1117" y="1091.2656">«Persistence»</text><text fill="#000000" font-family="sans-serif" font-size="20" font-style="italic" lengthAdjust="spacing" textLength="117" x="1121.5" y="1116.4219">«Repository»</text><text fill="#000000" font-family="sans-serif" font-size="20" lengthAdjust="spacing" textLength="337" x="1011.5" y="1141.5781">RequirementsSpecificationsRepository</text><line style="stroke:#181818;stroke-width:0.5;" x1="870.5" x2="1454.5" y1="1150.9727" y2="1150.9727"/><line style="stroke:#181818;stroke-width:0.5;" x1="870.5" x2="1454.5" y1="1158.9727" y2="1158.9727"/><ellipse cx="880.5" cy="1177.0508" fill="#84BE84" rx="3" ry="3" style="stroke:#038048;stroke-width:1.0;"/><text fill="#000000" font-family="sans-serif" font-size="20" lengthAdjust="spacing" textLength="225" x="890.5" y="1183.7344">save(Requirement: entity)</text><ellipse cx="880.5" cy="1202.207" fill="#84BE84" rx="3" ry="3" style="stroke:#038048;stroke-width:1.0;"/><text fill="#000000" font-family="sans-serif" font-size="20" lengthAdjust="spacing" textLength="559" x="890.5" y="1208.8906">getCostumerRequirementsSpecificationsFileList(costumerCode)</text></g><!--class EntityRepository--><g id="elem_EntityRepository"><rect codeLine="132" fill="#F1F1F1" height="151.7813" id="EntityRepository" rx="2.5" ry="2.5" style="stroke:#181818;stroke-width:0.5;" width="401" x="1877" y="1065.5039"/><ellipse cx="2001" cy="1108.2383" fill="#ADD1B2" rx="12" ry="12" style="stroke:#181818;stroke-width:1.0;"/><path d="M2003.1406,1103.1602 Q2003.3281,1102.9102 2003.5469,1102.7852 Q2003.7656,1102.6445 2004.0156,1102.6445 Q2004.4531,1102.6445 2004.7344,1102.957 Q2005.0156,1103.2539 2005.0156,1103.9727 L2005.0156,1105.6758 Q2005.0156,1106.3945 2004.7344,1106.707 Q2004.4531,1107.0195 2004.0156,1107.0195 Q2003.625,1107.0195 2003.375,1106.7852 Q2003.125,1106.5664 2003.0156,1105.957 Q2002.9531,1105.5352 2002.7344,1105.3164 Q2002.3438,1104.8789 2001.625,1104.6133 Q2000.9063,1104.3477 2000.1875,1104.3477 Q1999.2813,1104.3477 1998.5313,1104.7383 Q1997.7813,1105.1289 1997.2031,1106.0195 Q1996.625,1106.8945 1996.625,1108.0977 L1996.625,1109.3945 Q1996.625,1110.8477 1997.6719,1111.8164 Q1998.7344,1112.7852 2000.5938,1112.7852 Q2001.7031,1112.7852 2002.4844,1112.4727 Q2002.9219,1112.3008 2003.4375,1111.7852 Q2003.75,1111.4727 2003.9219,1111.3789 Q2004.0938,1111.2852 2004.3281,1111.2852 Q2004.7188,1111.2852 2005.0156,1111.5977 Q2005.3281,1111.8945 2005.3281,1112.3008 Q2005.3281,1112.707 2004.9219,1113.1758 Q2004.3281,1113.8633 2003.3906,1114.2539 Q2002.125,1114.7852 2000.6094,1114.7852 Q1998.8281,1114.7852 1997.4063,1114.0508 Q1996.25,1113.457 1995.4375,1112.1914 Q1994.625,1110.9258 1994.625,1109.4414 L1994.625,1108.082 Q1994.625,1106.5195 1995.3438,1105.1758 Q1996.0781,1103.8164 1997.3594,1103.082 Q1998.6563,1102.3477 2000.1094,1102.3477 Q2000.9688,1102.3477 2001.7188,1102.5508 Q2002.4844,1102.7539 2003.1406,1103.1602 Z " fill="#000000"/><text fill="#000000" font-family="sans-serif" font-size="20" font-style="italic" lengthAdjust="spacing" textLength="126" x="2032" y="1091.2656">«Persistence»</text><text fill="#000000" font-family="sans-serif" font-size="20" font-style="italic" lengthAdjust="spacing" textLength="117" x="2036.5" y="1116.4219">«Repository»</text><text fill="#000000" font-family="sans-serif" font-size="20" lengthAdjust="spacing" textLength="144" x="2023" y="1141.5781">EntityRepository</text><line style="stroke:#181818;stroke-width:0.5;" x1="1878" x2="2277" y1="1150.9727" y2="1150.9727"/><line style="stroke:#181818;stroke-width:0.5;" x1="1878" x2="2277" y1="1158.9727" y2="1158.9727"/><ellipse cx="1888" cy="1177.0508" fill="#84BE84" rx="3" ry="3" style="stroke:#038048;stroke-width:1.0;"/><text fill="#000000" font-family="sans-serif" font-size="20" lengthAdjust="spacing" textLength="127" x="1898" y="1183.7344">save(e: Entity)</text><ellipse cx="1888" cy="1202.207" fill="#84BE84" rx="3" ry="3" style="stroke:#038048;stroke-width:1.0;"/><text fill="#000000" font-family="sans-serif" font-size="20" lengthAdjust="spacing" textLength="374" x="1898" y="1208.8906">getEntityByCostumerCode(costumerCode)</text></g><!--class RepositoryDatabase--><g id="elem_RepositoryDatabase"><rect codeLine="137" fill="#F1F1F1" height="101.4688" id="RepositoryDatabase" rx="2.5" ry="2.5" style="stroke:#181818;stroke-width:0.5;" width="213" x="1745" y="777.0039"/><ellipse cx="1761" cy="807.1602" fill="#B4A7E5" rx="12" ry="12" style="stroke:#181818;stroke-width:1.0;"/><path d="M1762,803.332 L1762,811.1602 L1764.0313,811.1602 Q1764.75,811.1602 1765.0469,811.4414 Q1765.3594,811.707 1765.3594,812.1602 Q1765.3594,812.5977 1765.0469,812.8789 Q1764.75,813.1602 1764.0313,813.1602 L1757.9844,813.1602 Q1757.25,813.1602 1756.9375,812.8789 Q1756.6406,812.5977 1756.6406,812.1602 Q1756.6406,811.707 1756.9375,811.4414 Q1757.25,811.1602 1757.9844,811.1602 L1760,811.1602 L1760,803.332 L1757.9844,803.332 Q1757.25,803.332 1756.9375,803.0508 Q1756.6406,802.7695 1756.6406,802.3164 Q1756.6406,801.8633 1756.9375,801.5977 Q1757.25,801.3164 1757.9844,801.3164 L1764.0313,801.3164 Q1764.75,801.3164 1765.0469,801.5977 Q1765.3594,801.8633 1765.3594,802.3164 Q1765.3594,802.7695 1765.0469,803.0508 Q1764.75,803.332 1764.0313,803.332 L1762,803.332 Z " fill="#000000"/><text fill="#000000" font-family="sans-serif" font-size="20" font-style="italic" lengthAdjust="spacing" textLength="126" x="1802.5" y="802.7656">«Persistence»</text><text fill="#000000" font-family="sans-serif" font-size="20" font-style="italic" lengthAdjust="spacing" textLength="179" x="1776" y="827.9219">RepositoryDatabase</text><line style="stroke:#181818;stroke-width:0.5;" x1="1746" x2="1957" y1="837.3164" y2="837.3164"/><line style="stroke:#181818;stroke-width:0.5;" x1="1746" x2="1957" y1="845.3164" y2="845.3164"/><ellipse cx="1756" cy="863.3945" fill="#84BE84" rx="3" ry="3" style="stroke:#038048;stroke-width:1.0;"/><text fill="#000000" font-family="sans-serif" font-size="20" lengthAdjust="spacing" textLength="165" x="1766" y="870.0781">save(Entity: Entity)</text></g><!--link CostumerManager to RegisterJobOpeningController--><g id="link_CostumerManager_RegisterJobOpeningController"><path codeLine="144" d="M1582.34,352.6639 C1570.82,369.4139 1557.36,388.9739 1543.59,408.9939 " fill="none" id="CostumerManager-to-RegisterJobOpeningController" style="stroke:#181818;stroke-width:1.0;stroke-dasharray:7.0,7.0;"/><polygon fill="#181818" points="1540.65,413.2739,1549.057,408.1434,1543.4923,409.1604,1542.4754,403.5957,1540.65,413.2739" style="stroke:#181818;stroke-width:1.0;"/></g><!--link RegisterJobOpeningUI to RegisterJobOpeningController--><g id="link_RegisterJobOpeningUI_RegisterJobOpeningController"><path codeLine="145" d="M607.66,331.4139 C750.34,366.3039 996.86,426.5839 1187.24,473.1439 " fill="none" id="RegisterJobOpeningUI-to-RegisterJobOpeningController" style="stroke:#181818;stroke-width:1.0;stroke-dasharray:7.0,7.0;"/><polygon fill="#181818" points="1192.29,474.3839,1184.4954,468.3636,1187.4326,473.1981,1182.5981,476.1354,1192.29,474.3839" style="stroke:#181818;stroke-width:1.0;"/></g><!--link RegisterJobOpeningController to RequirementsSpecificationsRepository--><g id="link_RegisterJobOpeningController_RequirementsSpecificationsRepository"><path codeLine="146" d="M1393.64,665.5539 C1335.81,784.3839 1250.58,959.5139 1201.4,1060.5839 " fill="none" id="RegisterJobOpeningController-to-RequirementsSpecificationsRepository" style="stroke:#181818;stroke-width:1.0;stroke-dasharray:7.0,7.0;"/><polygon fill="#181818" points="1199.08,1065.3339,1206.6181,1058.9954,1201.2701,1060.8391,1199.4264,1055.4911,1199.08,1065.3339" style="stroke:#181818;stroke-width:1.0;"/></g><!--link RegisterJobOpeningController to CostumerRepository--><g id="link_RegisterJobOpeningController_CostumerRepository"><path codeLine="147" d="M1498.68,665.5539 C1540.67,784.3839 1602.55,959.5139 1638.26,1060.5839 " fill="none" id="RegisterJobOpeningController-to-CostumerRepository" style="stroke:#181818;stroke-width:1.0;stroke-dasharray:7.0,7.0;"/><polygon fill="#181818" points="1639.94,1065.3339,1640.729,1055.5167,1638.2819,1060.6168,1633.1817,1058.1697,1639.94,1065.3339" style="stroke:#181818;stroke-width:1.0;"/></g><!--link RegisterJobOpeningController to JobOpeningRepository--><g id="link_RegisterJobOpeningController_JobOpeningRepository"><path codeLine="148" d="M1716.82,658.8439 C1723.09,661.1339 1729.32,663.3639 1735.5,665.5039 C1839.49,701.5539 1879.9,671.9739 1975.5,726.5039 C2085.51,789.2539 2076.54,850.7239 2176.5,928.5039 C2227.1,967.8739 2285.64,1005.4239 2340.54,1037.6939 " fill="none" id="RegisterJobOpeningController-to-JobOpeningRepository" style="stroke:#181818;stroke-width:1.0;stroke-dasharray:7.0,7.0;"/><polygon fill="#181818" points="2345.16,1040.4039,2339.4179,1032.4021,2340.8463,1037.8757,2335.3727,1039.3041,2345.16,1040.4039" style="stroke:#181818;stroke-width:1.0;"/></g><!--link RegisterJobOpeningController to JobOpeningFactory--><g id="link_RegisterJobOpeningController_JobOpeningFactory"><path codeLine="149" d="M1716.74,660.5539 C1723.02,662.3239 1729.28,663.9839 1735.5,665.5039 C1789.46,678.6939 2678.98,715.8539 2733.5,726.5039 C2737.63,727.3139 2741.77,728.1539 2745.94,729.0439 " fill="none" id="RegisterJobOpeningController-to-JobOpeningFactory" style="stroke:#181818;stroke-width:1.0;stroke-dasharray:7.0,7.0;"/><polygon fill="#181818" points="2750.83,730.1039,2742.8957,724.2689,2745.9461,729.0329,2741.1821,732.0832,2750.83,730.1039" style="stroke:#181818;stroke-width:1.0;"/></g><!--link RegisterJobOpeningController to AddressFactory--><g id="link_RegisterJobOpeningController_AddressFactory"><path codeLine="150" d="M1716.76,660.4839 C1723.03,662.2739 1729.28,663.9539 1735.5,665.5039 C1921.83,711.8939 1980.36,648.3339 2166.5,695.5039 C2225.03,710.3339 2286.41,736.5839 2337.38,761.7139 " fill="none" id="RegisterJobOpeningController-to-AddressFactory" style="stroke:#181818;stroke-width:1.0;stroke-dasharray:7.0,7.0;"/><polygon fill="#181818" points="2341.97,763.9839,2335.6993,756.3893,2337.495,761.7536,2332.1307,763.5493,2341.97,763.9839" style="stroke:#181818;stroke-width:1.0;"/></g><!--link JobOpeningFactory to JobOpening--><g id="link_JobOpeningFactory_JobOpening"><path codeLine="153" d="M3035.11,928.5639 C3036.36,1019.1539 3030.88,1155.2039 2995.5,1267.5039 C2954.61,1397.2739 2940.44,1439.1739 2840.5,1531.5039 C2736.03,1628.0139 2589.54,1696.1439 2475.33,1738.7739 " fill="none" id="JobOpeningFactory-to-JobOpening" style="stroke:#181818;stroke-width:1.0;"/><polygon fill="#181818" points="2470.6,1740.5339,2480.4292,1741.1552,2475.2881,1738.7955,2477.6478,1733.6543,2470.6,1740.5339" style="stroke:#181818;stroke-width:1.0;"/><text fill="#000000" font-family="sans-serif" font-size="20" lengthAdjust="spacing" textLength="66" x="2986.5" y="1319.2656">creates</text><text fill="#000000" font-family="sans-serif" font-size="20" lengthAdjust="spacing" textLength="11" x="3024.0474" y="957.3125">1</text><text fill="#000000" font-family="sans-serif" font-size="20" lengthAdjust="spacing" textLength="8" x="2478.5342" y="1733.2639">*</text></g><!--link AddressFactory to Address--><g id="link_AddressFactory_Address"><path codeLine="154" d="M2581.61,891.0339 C2642.6,923.9539 2714.95,967.4339 2773.5,1015.5039 C2778.23,1019.3839 2782.94,1023.4839 2787.59,1027.7239 " fill="none" id="AddressFactory-to-Address" style="stroke:#181818;stroke-width:1.0;"/><polygon fill="#181818" points="2791.48,1031.3139,2787.5945,1022.2639,2787.8115,1027.9166,2782.1588,1028.1336,2791.48,1031.3139" style="stroke:#181818;stroke-width:1.0;"/><text fill="#000000" font-family="sans-serif" font-size="20" lengthAdjust="spacing" textLength="81" x="2734.5" y="980.2656">produces</text><text fill="#000000" font-family="sans-serif" font-size="20" lengthAdjust="spacing" textLength="11" x="2582.581" y="919.306">1</text><text fill="#000000" font-family="sans-serif" font-size="20" lengthAdjust="spacing" textLength="8" x="2775.4455" y="1016.905">*</text></g><!--link Address to JobOpening--><g id="link_Address_JobOpening"><path codeLine="155" d="M2821,1267.6739 C2776.77,1348.0239 2712.87,1451.8439 2640.5,1531.5039 C2591.93,1584.9639 2531.41,1635.4839 2474.9,1677.6639 " fill="none" id="Address-to-JobOpening" style="stroke:#181818;stroke-width:1.0;"/><polygon fill="#181818" points="2470.83,1680.6839,2480.4387,1678.5223,2474.842,1677.6999,2475.6643,1672.1032,2470.83,1680.6839" style="stroke:#181818;stroke-width:1.0;"/><text fill="#000000" font-family="sans-serif" font-size="20" lengthAdjust="spacing" textLength="63" x="2768.5" y="1451.2656">locates</text><text fill="#000000" font-family="sans-serif" font-size="20" lengthAdjust="spacing" textLength="11" x="2805.7953" y="1296.8782">1</text><text fill="#000000" font-family="sans-serif" font-size="20" lengthAdjust="spacing" textLength="8" x="2478.2267" y="1671.098">*</text></g><!--link WorkMode to JobOpening--><g id="link_WorkMode_JobOpening"><path codeLine="156" d="M1859.63,1531.5939 C1870.6,1551.9339 1884.2,1572.3439 1900.5,1588.5039 C1962.9,1650.3739 2047.75,1697.6139 2123.17,1731.1039 " fill="none" id="WorkMode-to-JobOpening" style="stroke:#181818;stroke-width:1.0;"/><polygon fill="#181818" points="2128.12,1733.2939,2121.4969,1726.0045,2123.5445,1731.2778,2118.2712,1733.3254,2128.12,1733.2939" style="stroke:#181818;stroke-width:1.0;"/><text fill="#000000" font-family="sans-serif" font-size="20" lengthAdjust="spacing" textLength="117" x="1901.5" y="1583.2656">characterizes</text><text fill="#000000" font-family="sans-serif" font-size="20" lengthAdjust="spacing" textLength="11" x="1850.8985" y="1560.1037">1</text><text fill="#000000" font-family="sans-serif" font-size="20" lengthAdjust="spacing" textLength="8" x="2112.7212" y="1725.9275">*</text></g><!--link ContractType to JobOpening--><g id="link_ContractType_JobOpening"><path codeLine="157" d="M2299.5,1531.8739 C2299.5,1556.7539 2299.5,1584.7839 2299.5,1613.0139 " fill="none" id="ContractType-to-JobOpening" style="stroke:#181818;stroke-width:1.0;"/><polygon fill="#181818" points="2299.5,1618.2939,2303.5,1609.2939,2299.5,1613.2939,2295.5,1609.2939,2299.5,1618.2939" style="stroke:#181818;stroke-width:1.0;"/><text fill="#000000" font-family="sans-serif" font-size="20" lengthAdjust="spacing" textLength="117" x="2300.5" y="1583.2656">characterizes</text><text fill="#000000" font-family="sans-serif" font-size="20" lengthAdjust="spacing" textLength="11" x="2288.0961" y="1560.088">1</text><text fill="#000000" font-family="sans-serif" font-size="20" lengthAdjust="spacing" textLength="8" x="2291.3313" y="1606.076">*</text></g><!--link RequirementSpecification to JobOpening--><g id="link_RequirementSpecification_JobOpening"><path codeLine="158" d="M1290.72,1483.4739 C1494.52,1546.2039 1892.82,1668.8139 2123.28,1739.7539 " fill="none" id="RequirementSpecification-to-JobOpening" style="stroke:#181818;stroke-width:1.0;"/><polygon fill="#181818" points="2128.35,1741.3239,2120.923,1734.8556,2123.5708,1739.8545,2118.5719,1742.5023,2128.35,1741.3239" style="stroke:#181818;stroke-width:1.0;"/><text fill="#000000" font-family="sans-serif" font-size="20" lengthAdjust="spacing" textLength="77" x="1630.5" y="1583.2656">specifies</text><text fill="#000000" font-family="sans-serif" font-size="20" lengthAdjust="spacing" textLength="8" x="1298.364" y="1480.8635">*</text><text fill="#000000" font-family="sans-serif" font-size="20" lengthAdjust="spacing" textLength="11" x="2109.3455" y="1760.2225">1</text></g><!--link Entity to JobOpening--><g id="link_Entity_JobOpening"><path codeLine="159" d="M809.73,1242.7539 C822.74,1252.6839 836.77,1261.3539 851.5,1267.5039 C911.6,1292.6139 1974.26,1254.8739 2023.5,1297.5039 C2103.27,1366.5639 2017.53,1436.5339 2063.5,1531.5039 C2079.66,1564.8939 2101.38,1597.1739 2125.11,1626.9939 " fill="none" id="Entity-to-JobOpening" style="stroke:#181818;stroke-width:1.0;"/><polygon fill="#181818" points="2128.32,1630.9939,2125.8085,1621.4707,2125.1913,1627.0937,2119.5682,1626.4766,2128.32,1630.9939" style="stroke:#181818;stroke-width:1.0;"/><text fill="#000000" font-family="sans-serif" font-size="20" lengthAdjust="spacing" textLength="52" x="2064.5" y="1451.2656">sends</text><text fill="#000000" font-family="sans-serif" font-size="20" lengthAdjust="spacing" textLength="31" x="2089.4444" y="1619.3117">1..*</text></g><!--link JobOpeningRepository to ContractType--><g id="link_JobOpeningRepository_ContractType"><path codeLine="162" d="M2455.92,1242.6539 C2428.74,1277.2939 2398.42,1315.9239 2371.77,1349.8939 " fill="none" id="JobOpeningRepository-to-ContractType" style="stroke:#181818;stroke-width:1.0;"/><polygon fill="#181818" points="2368.54,1354.0139,2377.2449,1349.4069,2371.6285,1350.0818,2370.9536,1344.4654,2368.54,1354.0139" style="stroke:#181818;stroke-width:1.0;"/><text fill="#000000" font-family="sans-serif" font-size="20" lengthAdjust="spacing" textLength="68" x="2410.5" y="1319.2656">rebuilds</text><text fill="#000000" font-family="sans-serif" font-size="20" lengthAdjust="spacing" textLength="11" x="2439.0081" y="1271.4088">1</text><text fill="#000000" font-family="sans-serif" font-size="20" lengthAdjust="spacing" textLength="8" x="2365.5196" y="1342.0137">*</text></g><!--link JobOpeningRepository to WorkMode--><g id="link_JobOpeningRepository_WorkMode"><path codeLine="163" d="M2351.89,1242.5539 C2333.07,1251.4839 2314.05,1259.9839 2295.5,1267.5039 C2169.62,1318.5539 2129.01,1305.0339 2002.5,1354.5039 C1995.06,1357.4139 1987.51,1360.5139 1979.93,1363.7439 " fill="none" id="JobOpeningRepository-to-WorkMode" style="stroke:#181818;stroke-width:1.0;"/><polygon fill="#181818" points="1975.21,1365.7739,1985.0581,1365.8941,1979.8035,1363.7991,1981.8985,1358.5445,1975.21,1365.7739" style="stroke:#181818;stroke-width:1.0;"/><text fill="#000000" font-family="sans-serif" font-size="20" lengthAdjust="spacing" textLength="68" x="2206.5" y="1319.2656">rebuilds</text><text fill="#000000" font-family="sans-serif" font-size="20" lengthAdjust="spacing" textLength="11" x="2327.6635" y="1271.3018">1</text><text fill="#000000" font-family="sans-serif" font-size="20" lengthAdjust="spacing" textLength="8" x="1983.1872" y="1356.9146">*</text></g><!--reverse link JobOpeningRepository to JobOpening--><g id="link_JobOpeningRepository_JobOpening"><path codeLine="164" d="M2533.37,1248.0539 C2529.41,1328.2439 2517.09,1439.9739 2481.5,1531.5039 C2470.05,1560.9639 2454.67,1590.3239 2437.68,1618.1539 " fill="none" id="JobOpeningRepository-backto-JobOpening" style="stroke:#181818;stroke-width:1.0;stroke-dasharray:7.0,7.0;"/><polygon fill="#181818" points="2533.62,1242.8139,2529.1869,1251.6086,2533.3767,1247.808,2537.1774,1251.9979,2533.62,1242.8139" style="stroke:#181818;stroke-width:1.0;"/><text fill="#000000" font-family="sans-serif" font-size="20" lengthAdjust="spacing" textLength="108" x="2523.5" y="1451.2656">persisted by</text></g><!--link RequirementsSpecificationsRepository to RequirementSpecification--><g id="link_RequirementsSpecificationsRepository_RequirementSpecification"><path codeLine="165" d="M1162.5,1217.6939 C1162.5,1261.5739 1162.5,1316.9239 1162.5,1361.6639 " fill="none" id="RequirementsSpecificationsRepository-to-RequirementSpecification" style="stroke:#181818;stroke-width:1.0;"/><polygon fill="#181818" points="1162.5,1366.7839,1166.5,1357.7839,1162.5,1361.7839,1158.5,1357.7839,1162.5,1366.7839" style="stroke:#181818;stroke-width:1.0;"/><text fill="#000000" font-family="sans-serif" font-size="20" lengthAdjust="spacing" textLength="100" x="1163.5" y="1319.2656">aggregates</text><text fill="#000000" font-family="sans-serif" font-size="20" lengthAdjust="spacing" textLength="11" x="1151.0273" y="1246.0935">1</text><text fill="#000000" font-family="sans-serif" font-size="20" lengthAdjust="spacing" textLength="8" x="1154.1438" y="1354.6607">*</text></g><!--reverse link RepositoryDatabase to JobOpeningRepository--><g id="link_RepositoryDatabase_JobOpeningRepository"><path codeLine="168" d="M1913.76,892.6939 C1954.01,933.4839 2001.11,979.7039 2013.5,985.5039 C2127.65,1038.9439 2174.87,978.9839 2295.5,1015.5039 C2317.35,1022.1139 2339.54,1030.7439 2361.16,1040.3839 " fill="none" id="RepositoryDatabase-backto-JobOpeningRepository" style="stroke:#181818;stroke-width:1.0;stroke-dasharray:7.0,7.0;"/><polygon fill="none" points="1908.63,897.4439,1899.6,878.2739,1918.61,887.6339,1908.63,897.4439" style="stroke:#181818;stroke-width:1.0;"/><text fill="#000000" font-family="sans-serif" font-size="20" lengthAdjust="spacing" textLength="99" x="2014.5" y="980.2656">implements</text></g><!--reverse link RepositoryDatabase to CostumerRepository--><g id="link_RepositoryDatabase_CostumerRepository"><path codeLine="169" d="M1782.65,892.8039 C1764.24,912.5639 1745.57,935.2639 1731.5,958.5039 C1711.61,991.3739 1696.51,1031.2439 1685.89,1065.2839 " fill="none" id="RepositoryDatabase-backto-CostumerRepository" style="stroke:#181818;stroke-width:1.0;stroke-dasharray:7.0,7.0;"/><polygon fill="none" points="1777.69,887.8639,1796.61,878.3039,1787.78,897.5639,1777.69,887.8639" style="stroke:#181818;stroke-width:1.0;"/><text fill="#000000" font-family="sans-serif" font-size="20" lengthAdjust="spacing" textLength="99" x="1732.5" y="980.2656">implements</text></g><!--reverse link RepositoryDatabase to RequirementsSpecificationsRepository--><g id="link_RepositoryDatabase_RequirementsSpecificationsRepository"><path codeLine="170" d="M1726.51,885.1039 C1614.96,935.6139 1450.8,1009.9539 1328.31,1065.4239 " fill="none" id="RepositoryDatabase-backto-RequirementsSpecificationsRepository" style="stroke:#181818;stroke-width:1.0;stroke-dasharray:7.0,7.0;"/><polygon fill="none" points="1723.87,878.6139,1744.98,876.7439,1729.65,891.3639,1723.87,878.6139" style="stroke:#181818;stroke-width:1.0;"/><text fill="#000000" font-family="sans-serif" font-size="20" lengthAdjust="spacing" textLength="99" x="1549.5" y="980.2656">implements</text></g><!--reverse link RepositoryDatabase to EntityRepository--><g id="link_RepositoryDatabase_EntityRepository"><path codeLine="171" d="M1849.35,898.4039 C1851.3,927.0539 1857.33,959.5139 1872.5,985.5039 C1890.55,1016.4339 1917.42,1043.2039 1945.82,1065.3739 " fill="none" id="RepositoryDatabase-backto-EntityRepository" style="stroke:#181818;stroke-width:1.0;stroke-dasharray:7.0,7.0;"/><polygon fill="none" points="1842.36,898.6139,1848.59,878.3639,1856.35,898.0839,1842.36,898.6139" style="stroke:#181818;stroke-width:1.0;"/><text fill="#000000" font-family="sans-serif" font-size="20" lengthAdjust="spacing" textLength="99" x="1873.5" y="980.2656">implements</text></g><!--link JobOpeningMapper to JobOpeningDTO--><g id="link_JobOpeningMapper_JobOpeningDTO"><path codeLine="174" d="M208.42,1179.5239 C185.66,1235.3939 142.66,1340.9439 118.71,1399.7439 " fill="none" id="JobOpeningMapper-to-JobOpeningDTO" style="stroke:#181818;stroke-width:1.0;stroke-dasharray:7.0,7.0;"/><polygon fill="#181818" points="116.74,1404.5939,123.8327,1397.7606,118.6215,1399.9614,116.4207,1394.7502,116.74,1404.5939" style="stroke:#181818;stroke-width:1.0;"/></g><!--link EntityMapper to EntityDTO--><g id="link_EntityMapper_EntityDTO"><path codeLine="175" d="M694.21,865.5239 C651.1,924.0039 567.5,1037.4139 522.3,1098.7239 " fill="none" id="EntityMapper-to-EntityDTO" style="stroke:#181818;stroke-width:1.0;stroke-dasharray:7.0,7.0;"/><polygon fill="#181818" points="519.11,1103.0539,527.6796,1098.1999,522.0848,1099.0351,521.2495,1093.4403,519.11,1103.0539" style="stroke:#181818;stroke-width:1.0;"/></g><!--link EntityMapper to Entity--><g id="link_EntityMapper_Entity"><path codeLine="176" d="M721.5,865.5239 C721.5,907.1239 721.5,976.5139 721.5,1035.1839 " fill="none" id="EntityMapper-to-Entity" style="stroke:#181818;stroke-width:1.0;stroke-dasharray:7.0,7.0;"/><polygon fill="#181818" points="721.5,1040.4639,725.5,1031.4639,721.5,1035.4639,717.5,1031.4639,721.5,1040.4639" style="stroke:#181818;stroke-width:1.0;"/></g><!--link RegisterJobOpeningController to EntityMapper--><g id="link_RegisterJobOpeningController_EntityMapper"><path codeLine="177" d="M1192.46,642.7439 C1063.74,692.9739 916.26,750.5139 821.14,787.6239 " fill="none" id="RegisterJobOpeningController-to-EntityMapper" style="stroke:#181818;stroke-width:1.0;stroke-dasharray:7.0,7.0;"/><polygon fill="#181818" points="816.37,789.4839,826.2081,789.9441,821.0289,787.6689,823.3041,782.4898,816.37,789.4839" style="stroke:#181818;stroke-width:1.0;"/></g><!--link RegisterJobOpeningController to JobOpeningMapper--><g id="link_RegisterJobOpeningController_JobOpeningMapper"><path codeLine="178" d="M1192.26,557.0739 C1016.79,577.6639 786.01,623.6939 606.5,726.5039 C439.76,821.9939 303.6,1014.3539 249.11,1098.9639 " fill="none" id="RegisterJobOpeningController-to-JobOpeningMapper" style="stroke:#181818;stroke-width:1.0;stroke-dasharray:7.0,7.0;"/><polygon fill="#181818" points="246.26,1103.4039,254.4832,1097.9836,248.9573,1099.1938,247.7471,1093.668,246.26,1103.4039" style="stroke:#181818;stroke-width:1.0;"/></g><!--link JobOpeningMapper to ContractType--><g id="link_JobOpeningMapper_ContractType"><path codeLine="179" d="M259.25,1179.5239 C290.85,1209.4639 339.83,1249.5039 391.5,1267.5039 C494.06,1303.2339 1260.05,1291.6639 1368.5,1297.5039 C1697.44,1315.2339 1788.51,1272.2739 2107.5,1354.5039 C2114.85,1356.3939 2122.27,1358.5639 2129.69,1360.9339 " fill="none" id="JobOpeningMapper-to-ContractType" style="stroke:#181818;stroke-width:1.0;stroke-dasharray:7.0,7.0;"/><polygon fill="#181818" points="2134.83,1362.6039,2127.503,1356.0225,2130.0739,1361.0614,2125.035,1363.6323,2134.83,1362.6039" style="stroke:#181818;stroke-width:1.0;"/></g><!--link JobOpeningMapper to WorkMode--><g id="link_JobOpeningMapper_WorkMode"><path codeLine="180" d="M259.59,1179.7739 C291.2,1209.6639 340.03,1249.4839 391.5,1267.5039 C483.94,1299.8739 1175.58,1283.3439 1272.5,1297.5039 C1408.57,1317.3739 1559.37,1358.1839 1668.92,1391.3839 " fill="none" id="JobOpeningMapper-to-WorkMode" style="stroke:#181818;stroke-width:1.0;stroke-dasharray:7.0,7.0;"/><polygon fill="#181818" points="1673.78,1392.8539,1666.3353,1386.4059,1668.9968,1391.3975,1664.0051,1394.059,1673.78,1392.8539" style="stroke:#181818;stroke-width:1.0;"/></g><!--link JobOpeningMapper to RequirementSpecification--><g id="link_JobOpeningMapper_RequirementSpecification"><path codeLine="181" d="M263.19,1179.6239 C295.42,1207.7839 343.28,1245.3239 391.5,1267.5039 C602.41,1364.5239 871.24,1409.5139 1029.35,1428.8839 " fill="none" id="JobOpeningMapper-to-RequirementSpecification" style="stroke:#181818;stroke-width:1.0;stroke-dasharray:7.0,7.0;"/><polygon fill="#181818" points="1034.46,1429.5039,1026.0059,1424.4514,1029.4962,1428.9031,1025.0446,1432.3935,1034.46,1429.5039" style="stroke:#181818;stroke-width:1.0;"/></g><!--link RegisterJobOpeningUI to JobOpeningDTO--><g id="link_RegisterJobOpeningUI_JobOpeningDTO"><path codeLine="182" d="M375.43,311.1839 C235.68,328.0739 19.5,379.8439 19.5,538.5039 C19.5,538.5039 19.5,538.5039 19.5,1142.5039 C19.5,1237.1539 58.07,1342.8439 82.3,1399.9139 " fill="none" id="RegisterJobOpeningUI-to-JobOpeningDTO" style="stroke:#181818;stroke-width:1.0;stroke-dasharray:7.0,7.0;"/><polygon fill="#181818" points="84.31,1404.6139,84.4413,1394.7659,82.3404,1400.0182,77.0881,1397.9173,84.31,1404.6139" style="stroke:#181818;stroke-width:1.0;"/></g><!--link RegisterJobOpeningUI to EntityDTO--><g id="link_RegisterJobOpeningUI_EntityDTO"><path codeLine="183" d="M491.5,352.5739 C491.5,503.6639 491.5,956.6639 491.5,1097.9439 " fill="none" id="RegisterJobOpeningUI-to-EntityDTO" style="stroke:#181818;stroke-width:1.0;stroke-dasharray:7.0,7.0;"/><polygon fill="#181818" points="491.5,1103.2339,495.5,1094.2339,491.5,1098.2339,487.5,1094.2339,491.5,1103.2339" style="stroke:#181818;stroke-width:1.0;"/></g><!--link Session to SystemUser--><g id="link_Session_SystemUser"><path codeLine="186" d="M1855.97,352.6639 C1854.02,391.0139 1851.31,444.0639 1849.29,483.6639 " fill="none" id="Session-to-SystemUser" style="stroke:#181818;stroke-width:1.0;"/><polygon fill="#181818" points="1849.03,488.9139,1853.487,480.1312,1849.2868,483.9205,1845.4975,479.7203,1849.03,488.9139" style="stroke:#181818;stroke-width:1.0;"/></g><!--link SystemUser to Username--><g id="link_SystemUser_Username"><path codeLine="187" d="M1941.77,539.5039 C1951.56,539.5039 1961.35,539.5039 1971.14,539.5039 " fill="none" id="SystemUser-to-Username" style="stroke:#181818;stroke-width:1.0;"/><polygon fill="#181818" points="1976.26,539.5039,1967.26,535.5039,1971.26,539.5039,1967.26,543.5039,1976.26,539.5039" style="stroke:#181818;stroke-width:1.0;"/></g><!--link AuthenticationService to Username--><g id="link_AuthenticationService_Username"><path codeLine="188" d="M1913.34,190.6239 C1929.73,208.6339 1946.9,229.8939 1959.5,251.5039 C1997.56,316.7939 2024.34,398.8539 2040.54,458.4939 " fill="none" id="AuthenticationService-to-Username" style="stroke:#181818;stroke-width:1.0;stroke-dasharray:7.0,7.0;"/><polygon fill="#181818" points="2041.88,463.4639,2043.4027,453.7335,2040.5801,458.6358,2035.6778,455.8133,2041.88,463.4639" style="stroke:#181818;stroke-width:1.0;"/></g><!--link AuthenticationService to Session--><g id="link_AuthenticationService_Session"><path codeLine="189" d="M1861.26,190.7539 C1860.82,208.3639 1860.32,228.2639 1859.87,246.2639 " fill="none" id="AuthenticationService-to-Session" style="stroke:#181818;stroke-width:1.0;stroke-dasharray:7.0,7.0;"/><polygon fill="#181818" points="1859.74,251.2839,1863.97,242.3897,1859.8685,246.2856,1855.9727,242.1841,1859.74,251.2839" style="stroke:#181818;stroke-width:1.0;"/></g><!--link AuthenticationService to RegisterJobOpeningController--><g id="link_AuthenticationService_RegisterJobOpeningController"><path codeLine="190" d="M1751.8,144.8839 C1670.17,153.9339 1562.88,179.9139 1500.5,251.5039 C1463.49,293.9839 1450.01,353.9939 1446.58,408.1739 " fill="none" id="AuthenticationService-to-RegisterJobOpeningController" style="stroke:#181818;stroke-width:1.0;stroke-dasharray:7.0,7.0;"/><polygon fill="#181818" points="1446.28,413.3939,1450.7884,404.6375,1446.5661,408.4021,1442.8015,404.1798,1446.28,413.3939" style="stroke:#181818;stroke-width:1.0;"/></g><!--link CostumerManager to SystemUser--><g id="link_CostumerManager_SystemUser"><path codeLine="191" d="M1671.5,352.6439 C1691.68,371.3439 1714.48,393.0439 1734.5,413.5039 C1753.24,432.6639 1772.98,454.1939 1790.57,473.9139 " fill="none" id="CostumerManager-to-SystemUser" style="stroke:#181818;stroke-width:1.0;"/><polygon fill="none" points="1795.84,469.3039,1803.85,488.9239,1785.36,478.5839,1795.84,469.3039" style="stroke:#181818;stroke-width:1.0;"/></g><!--SRC=[dLXRJ-Cu57xFhx1uQRkq1UQngYenxIAnWcL4OUO5QMISq-8biRDsogWpmt_VuyI9dLlJvQcA_PtRvtEngr-vIAYYSIJPAuGaX0tTHUcL5EcQ_mJowJmOlAHfecTdPqb4HRgBeocJyHcBgDQJaDCj2WT1ojC8oEFwulpy4rcQFR8gzWQhXxjWa53sIhT0vdFyN2p8ho1JGVwIptS922wsjpH9GE76AM5Il85A7oHYXndkRnh3c4HSfwFWFMZ88YuNL41J6CACG0Gn21_zfq0lzrrMQgfpS4tjYCpi1W87YFN3-g90eq6QSYcy-EvXYvf1ELyVhzlGfoIKwnVvOpYokZtLbqaISTQlUOd7fcGKONnDeLEoXRI6fInzs2UWRr0H6gv1ladrUYl3hkrx-7V7LSQoNYV0-CQQStZLS76usGbcG6D3V-d1cFomniPFGgSA8CrFd27POnAY5iLPEYOQASFbdpnX1enAueIAVGP-4c8NVwMC2iP1enHefdYIMrEUjrSy0YDXN4pRSWnJWclCz_sevQ1NCgOyvtJWSr0UIxbKOSMNnDFPRf4SZ8NSIvbcoYPaO_t2D5jZl6ARKTZqEykHmCkFNVg2-zRGToh2xuyQbFQIfGfPWthZh9bQyxdToIJVhUmQj6u4y9L6Eo1tp_y0ozmlmNiyyDYOxmkua31OOQ8-f7y-lrvPbjwodPAYTrUqIwcnGO6wfGA9ES81FDVBCCHIB0xFVbrXMagrhogmYpcfUKCuFbDDwoXClLUD7UOL0yu39SwOMpD6tLTXt9T19zodTGRJAYFnRfDdqW3hazW2RRJMNYxAzjXRsaMrsi2nO9aziMMZc4btBJy9rTbwJ8aOhft_PTkwXmqe40o6665bOLGUYHCxfbnjl2uN9vN8STtlihXRC84xHNFDP7nMl4GnMuwVgfcIAN_PvmpNhqKAM0UuuT7dum_pY4Zpuyq_Lsg5-xt9MuIy0Y5ZBZBjNdjpUNXAOeJvDdpoUktunFksI8Un5773ni1lE-hvFDyh3RLIttvIfpuyi-lZscRz5-pRPcOAsuJhUNaFYTJSLcGLF9-xJLkPchx1q0dZjIWBnSxooXsW6F3br1-MgDpZcrhL3FrGHa6p3N_0rKAqvkWb3g2jWB1qnLmmTdPkU8VOVINvW2-UiWPlHO27oYTpiifHBTiyf_gyScv1SGUrpkGVd_TBFx4QPZcs0hMXEFETsXLDwJFLRLbdRUMwdK6RhNWSal4yqc3mcMhEo5KaVmJr0JoTBWvUKuFMs_47fBoRxpGNxq-47ZMBbZpkixneBTJ_8sK7Qxz8zQPYNbbPUoGtT8yCDSVtoSK9cKmMvEIF4t_ApMnlrq7jwkFZtMHAb0ntpA6xrUA3CbDR3efk1rweQKAWyC6fWqhJxv1f27NUkOrWfk2YPbJdC9IrZJz7JQTrx_2L5cgarwkG1iTU7ViUBwjt0GNFEnwXibx1R-wQS5XeFfrMlKsibo5vtWT7TSFCRcwsayKPeSLGD5HSbxs4nqd-pCvmGLjh-LrnqJCySzAwKx9bb1mbTrJeHsbgTEgALFxdHkC_Z6fD6qZbpmUpNVx1qBNLtm9ymIDwOjtBThShDzPMH7bpRTtjIgBkLbybgXFc2CC1L7dD1iK3rTIFUty6tbCKDufdPj3-53OcZe1OKmSG1oTNVK1E9hyhBly7]--></g></svg>