<?xml version="1.0" encoding="us-ascii" standalone="no"?><svg xmlns="http://www.w3.org/2000/svg" xmlns:xlink="http://www.w3.org/1999/xlink" contentStyleType="text/css" height="345px" preserveAspectRatio="none" style="width:538px;height:345px;background:#FFFFFF;" version="1.1" viewBox="0 0 538 345" width="538px" zoomAndPan="magnify"><defs/><g><rect fill="none" height="160.0859" style="stroke:#000000;stroke-width:1.5;" width="521.5" x="10" y="131.2031"/><line style="stroke:#181818;stroke-width:0.5;stroke-dasharray:5.0,5.0;" x1="85" x2="85" y1="38.6211" y2="308.2891"/><line style="stroke:#181818;stroke-width:0.5;stroke-dasharray:5.0,5.0;" x1="228.5" x2="228.5" y1="38.6211" y2="308.2891"/><rect fill="#E2E2F0" height="32.6211" rx="2.5" ry="2.5" style="stroke:#181818;stroke-width:0.5;" width="131" x="20" y="5"/><text fill="#000000" font-family="sans-serif" font-size="14" lengthAdjust="spacing" textLength="117" x="27" y="27.1074">CustomerManager</text><rect fill="#E2E2F0" height="32.6211" rx="2.5" ry="2.5" style="stroke:#181818;stroke-width:0.5;" width="131" x="20" y="307.2891"/><text fill="#000000" font-family="sans-serif" font-size="14" lengthAdjust="spacing" textLength="117" x="27" y="329.3965">CustomerManager</text><rect fill="#E2E2F0" height="32.6211" rx="2.5" ry="2.5" style="stroke:#181818;stroke-width:0.5;" width="60" x="198.5" y="5"/><text fill="#000000" font-family="sans-serif" font-size="14" lengthAdjust="spacing" textLength="46" x="205.5" y="27.1074">System</text><rect fill="#E2E2F0" height="32.6211" rx="2.5" ry="2.5" style="stroke:#181818;stroke-width:0.5;" width="60" x="198.5" y="307.2891"/><text fill="#000000" font-family="sans-serif" font-size="14" lengthAdjust="spacing" textLength="46" x="205.5" y="329.3965">System</text><polygon fill="#181818" points="216.5,67.9121,226.5,71.9121,216.5,75.9121,220.5,71.9121" style="stroke:#181818;stroke-width:1.0;"/><line style="stroke:#181818;stroke-width:1.0;" x1="85.5" x2="222.5" y1="71.9121" y2="71.9121"/><text fill="#000000" font-family="sans-serif" font-size="13" font-weight="bold" lengthAdjust="spacing" textLength="7" x="92.5" y="66.6494">1</text><text fill="#000000" font-family="sans-serif" font-size="13" lengthAdjust="spacing" textLength="49" x="103.5" y="66.6494">Go back</text><line style="stroke:#181818;stroke-width:1.0;" x1="228.5" x2="270.5" y1="103.2031" y2="103.2031"/><line style="stroke:#181818;stroke-width:1.0;" x1="270.5" x2="270.5" y1="103.2031" y2="116.2031"/><line style="stroke:#181818;stroke-width:1.0;" x1="229.5" x2="270.5" y1="116.2031" y2="116.2031"/><polygon fill="#181818" points="239.5,112.2031,229.5,116.2031,239.5,120.2031,235.5,116.2031" style="stroke:#181818;stroke-width:1.0;"/><text fill="#000000" font-family="sans-serif" font-size="13" font-weight="bold" lengthAdjust="spacing" textLength="7" x="235.5" y="97.9404">2</text><text fill="#000000" font-family="sans-serif" font-size="13" lengthAdjust="spacing" textLength="140" x="246.5" y="97.9404">Checks if it can go back</text><path d="M10,131.2031 L71,131.2031 L71,140.4941 L61,150.4941 L10,150.4941 L10,131.2031 " fill="#EEEEEE" style="stroke:#000000;stroke-width:1.5;"/><rect fill="none" height="160.0859" style="stroke:#000000;stroke-width:1.5;" width="521.5" x="10" y="131.2031"/><text fill="#000000" font-family="sans-serif" font-size="13" font-weight="bold" lengthAdjust="spacing" textLength="16" x="25" y="146.2314">alt</text><text fill="#000000" font-family="sans-serif" font-size="11" font-weight="bold" lengthAdjust="spacing" textLength="337" x="86" y="145.0732">[No previous Phase or work on this Phase already happened]</text><polygon fill="#181818" points="96.5,169.7852,86.5,173.7852,96.5,177.7852,92.5,173.7852" style="stroke:#181818;stroke-width:1.0;"/><line style="stroke:#181818;stroke-width:1.0;stroke-dasharray:2.0,2.0;" x1="90.5" x2="227.5" y1="173.7852" y2="173.7852"/><text fill="#000000" font-family="sans-serif" font-size="13" font-weight="bold" lengthAdjust="spacing" textLength="7" x="102.5" y="168.5225">3</text><text fill="#000000" font-family="sans-serif" font-size="13" lengthAdjust="spacing" textLength="96" x="113.5" y="168.5225">Failure message</text><line style="stroke:#000000;stroke-width:1.0;stroke-dasharray:2.0,2.0;" x1="10" x2="531.5" y1="182.7852" y2="182.7852"/><text fill="#000000" font-family="sans-serif" font-size="11" font-weight="bold" lengthAdjust="spacing" textLength="75" x="15" y="194.6553">[Can go back]</text><line style="stroke:#181818;stroke-width:1.0;" x1="228.5" x2="270.5" y1="238.998" y2="238.998"/><line style="stroke:#181818;stroke-width:1.0;" x1="270.5" x2="270.5" y1="238.998" y2="251.998"/><line style="stroke:#181818;stroke-width:1.0;" x1="229.5" x2="270.5" y1="251.998" y2="251.998"/><polygon fill="#181818" points="239.5,247.998,229.5,251.998,239.5,255.998,235.5,251.998" style="stroke:#181818;stroke-width:1.0;"/><text fill="#000000" font-family="sans-serif" font-size="13" font-weight="bold" lengthAdjust="spacing" textLength="7" x="235.5" y="225.0898">4</text><text fill="#000000" font-family="sans-serif" font-size="13" lengthAdjust="spacing" textLength="273" x="246.5" y="216.4443">Changes state of current Phase to "PLANNED"</text><text fill="#000000" font-family="sans-serif" font-size="13" lengthAdjust="spacing" textLength="210" x="250.5" y="233.7354">and previous Phase to "ON_GOING"</text><polygon fill="#181818" points="96.5,279.2891,86.5,283.2891,96.5,287.2891,92.5,283.2891" style="stroke:#181818;stroke-width:1.0;"/><line style="stroke:#181818;stroke-width:1.0;stroke-dasharray:2.0,2.0;" x1="90.5" x2="227.5" y1="283.2891" y2="283.2891"/><text fill="#000000" font-family="sans-serif" font-size="13" font-weight="bold" lengthAdjust="spacing" textLength="7" x="102.5" y="278.0264">5</text><text fill="#000000" font-family="sans-serif" font-size="13" lengthAdjust="spacing" textLength="108" x="113.5" y="278.0264">Success message</text><!--SRC=[ZO-zJiD048JxUugH6whWtWKICc0XWHCfBHBQd3VsoVTZxlP0UNiS9PQ2AwQStPtvzcuGcL9LbfCbBzdPUnrScVWhizUywGpraPnIb2Nux0uSbQfpak0ulfEddYCs3zYVah13XIRWG7fKwkhSpkg1zPXWZZ02JHxzienPP0Ljm1JvsuISi1ieCKB4JuWZWeSCPd79HgRkX86cYJrtbuIpbjgvTurPuOMCpP7XEANPkbondGFhDSrjrfyNoFUSa8HaXZj2vnZPovLB0ehTssFRFZyL7nxak_K_vurj-zbiNzkc-2VsFciz4w-mVQT-0G00]--></g></svg>