<?xml version="1.0" encoding="us-ascii" standalone="no"?><svg xmlns="http://www.w3.org/2000/svg" xmlns:xlink="http://www.w3.org/1999/xlink" contentStyleType="text/css" height="553px" preserveAspectRatio="none" style="width:751px;height:553px;background:#FFFFFF;" version="1.1" viewBox="0 0 751 553" width="751px" zoomAndPan="magnify"><defs/><g><rect fill="none" height="412.3848" style="stroke:#000000;stroke-width:1.5;" width="734.5" x="10" y="86.9121"/><rect fill="none" height="160.0859" style="stroke:#000000;stroke-width:1.5;" width="714.5" x="20" y="222.707"/><line style="stroke:#181818;stroke-width:0.5;stroke-dasharray:5.0,5.0;" x1="95" x2="95" y1="38.6211" y2="516.2969"/><line style="stroke:#181818;stroke-width:0.5;stroke-dasharray:5.0,5.0;" x1="412.5" x2="412.5" y1="38.6211" y2="516.2969"/><rect fill="#E2E2F0" height="32.6211" rx="2.5" ry="2.5" style="stroke:#181818;stroke-width:0.5;" width="131" x="30" y="5"/><text fill="#000000" font-family="sans-serif" font-size="14" lengthAdjust="spacing" textLength="117" x="37" y="27.1074">CustomerManager</text><rect fill="#E2E2F0" height="32.6211" rx="2.5" ry="2.5" style="stroke:#181818;stroke-width:0.5;" width="131" x="30" y="515.2969"/><text fill="#000000" font-family="sans-serif" font-size="14" lengthAdjust="spacing" textLength="117" x="37" y="537.4043">CustomerManager</text><rect fill="#E2E2F0" height="32.6211" rx="2.5" ry="2.5" style="stroke:#181818;stroke-width:0.5;" width="60" x="382.5" y="5"/><text fill="#000000" font-family="sans-serif" font-size="14" lengthAdjust="spacing" textLength="46" x="389.5" y="27.1074">System</text><rect fill="#E2E2F0" height="32.6211" rx="2.5" ry="2.5" style="stroke:#181818;stroke-width:0.5;" width="60" x="382.5" y="515.2969"/><text fill="#000000" font-family="sans-serif" font-size="14" lengthAdjust="spacing" textLength="46" x="389.5" y="537.4043">System</text><polygon fill="#181818" points="400.5,67.9121,410.5,71.9121,400.5,75.9121,404.5,71.9121" style="stroke:#181818;stroke-width:1.0;"/><line style="stroke:#181818;stroke-width:1.0;" x1="95.5" x2="406.5" y1="71.9121" y2="71.9121"/><text fill="#000000" font-family="sans-serif" font-size="13" font-weight="bold" lengthAdjust="spacing" textLength="7" x="102.5" y="66.6494">1</text><text fill="#000000" font-family="sans-serif" font-size="13" lengthAdjust="spacing" textLength="80" x="113.5" y="66.6494">Start a Phase</text><path d="M10,86.9121 L71,86.9121 L71,96.2031 L61,106.2031 L10,106.2031 L10,86.9121 " fill="#EEEEEE" style="stroke:#000000;stroke-width:1.5;"/><rect fill="none" height="412.3848" style="stroke:#000000;stroke-width:1.5;" width="734.5" x="10" y="86.9121"/><text fill="#000000" font-family="sans-serif" font-size="13" font-weight="bold" lengthAdjust="spacing" textLength="16" x="25" y="101.9404">alt</text><text fill="#000000" font-family="sans-serif" font-size="11" font-weight="bold" lengthAdjust="spacing" textLength="183" x="86" y="100.7822">[All Phases are in PLANNED state]</text><polygon fill="#181818" points="106.5,125.4941,96.5,129.4941,106.5,133.4941,102.5,129.4941" style="stroke:#181818;stroke-width:1.0;"/><line style="stroke:#181818;stroke-width:1.0;stroke-dasharray:2.0,2.0;" x1="100.5" x2="411.5" y1="129.4941" y2="129.4941"/><text fill="#000000" font-family="sans-serif" font-size="13" font-weight="bold" lengthAdjust="spacing" textLength="7" x="112.5" y="124.2314">2</text><text fill="#000000" font-family="sans-serif" font-size="13" lengthAdjust="spacing" textLength="282" x="123.5" y="124.2314">Asks if it wants to start the Recruitment Process</text><line style="stroke:#000000;stroke-width:1.0;stroke-dasharray:2.0,2.0;" x1="10" x2="744.5" y1="138.4941" y2="138.4941"/><text fill="#000000" font-family="sans-serif" font-size="11" font-weight="bold" lengthAdjust="spacing" textLength="257" x="15" y="150.3643">[Current Phase is "Screening" or "Interviews"]</text><line style="stroke:#181818;stroke-width:1.0;" x1="412.5" x2="454.5" y1="194.707" y2="194.707"/><line style="stroke:#181818;stroke-width:1.0;" x1="454.5" x2="454.5" y1="194.707" y2="207.707"/><line style="stroke:#181818;stroke-width:1.0;" x1="413.5" x2="454.5" y1="207.707" y2="207.707"/><polygon fill="#181818" points="423.5,203.707,413.5,207.707,423.5,211.707,419.5,207.707" style="stroke:#181818;stroke-width:1.0;"/><text fill="#000000" font-family="sans-serif" font-size="13" font-weight="bold" lengthAdjust="spacing" textLength="7" x="419.5" y="180.7988">3</text><text fill="#000000" font-family="sans-serif" font-size="13" lengthAdjust="spacing" textLength="112" x="430.5" y="172.1533">Checks if it has the</text><text fill="#000000" font-family="sans-serif" font-size="13" lengthAdjust="spacing" textLength="280" x="430.5" y="189.4443">interview or requirement depending on the Phase</text><path d="M20,222.707 L81,222.707 L81,231.998 L71,241.998 L20,241.998 L20,222.707 " fill="#EEEEEE" style="stroke:#000000;stroke-width:1.5;"/><rect fill="none" height="160.0859" style="stroke:#000000;stroke-width:1.5;" width="714.5" x="20" y="222.707"/><text fill="#000000" font-family="sans-serif" font-size="13" font-weight="bold" lengthAdjust="spacing" textLength="16" x="35" y="237.7354">alt</text><text fill="#000000" font-family="sans-serif" font-size="11" font-weight="bold" lengthAdjust="spacing" textLength="89" x="96" y="236.5771">[It doesn't have]</text><polygon fill="#181818" points="106.5,261.2891,96.5,265.2891,106.5,269.2891,102.5,265.2891" style="stroke:#181818;stroke-width:1.0;"/><line style="stroke:#181818;stroke-width:1.0;stroke-dasharray:2.0,2.0;" x1="100.5" x2="411.5" y1="265.2891" y2="265.2891"/><text fill="#000000" font-family="sans-serif" font-size="13" font-weight="bold" lengthAdjust="spacing" textLength="7" x="112.5" y="260.0264">4</text><text fill="#000000" font-family="sans-serif" font-size="13" lengthAdjust="spacing" textLength="96" x="123.5" y="260.0264">Failure message</text><line style="stroke:#000000;stroke-width:1.0;stroke-dasharray:2.0,2.0;" x1="20" x2="734.5" y1="274.2891" y2="274.2891"/><text fill="#000000" font-family="sans-serif" font-size="11" font-weight="bold" lengthAdjust="spacing" textLength="75" x="25" y="286.1592">[It does have]</text><line style="stroke:#181818;stroke-width:1.0;" x1="412.5" x2="454.5" y1="330.502" y2="330.502"/><line style="stroke:#181818;stroke-width:1.0;" x1="454.5" x2="454.5" y1="330.502" y2="343.502"/><line style="stroke:#181818;stroke-width:1.0;" x1="413.5" x2="454.5" y1="343.502" y2="343.502"/><polygon fill="#181818" points="423.5,339.502,413.5,343.502,423.5,347.502,419.5,343.502" style="stroke:#181818;stroke-width:1.0;"/><text fill="#000000" font-family="sans-serif" font-size="13" font-weight="bold" lengthAdjust="spacing" textLength="7" x="419.5" y="316.5938">5</text><text fill="#000000" font-family="sans-serif" font-size="13" lengthAdjust="spacing" textLength="292" x="430.5" y="307.9482">Changes state of current Phase to "CONCLUDED"</text><text fill="#000000" font-family="sans-serif" font-size="13" lengthAdjust="spacing" textLength="188" x="434.5" y="325.2393">and next Phase to "ON_GOING"</text><polygon fill="#181818" points="106.5,370.793,96.5,374.793,106.5,378.793,102.5,374.793" style="stroke:#181818;stroke-width:1.0;"/><line style="stroke:#181818;stroke-width:1.0;stroke-dasharray:2.0,2.0;" x1="100.5" x2="411.5" y1="374.793" y2="374.793"/><text fill="#000000" font-family="sans-serif" font-size="13" font-weight="bold" lengthAdjust="spacing" textLength="7" x="112.5" y="369.5303">6</text><text fill="#000000" font-family="sans-serif" font-size="13" lengthAdjust="spacing" textLength="108" x="123.5" y="369.5303">Success message</text><line style="stroke:#000000;stroke-width:1.0;stroke-dasharray:2.0,2.0;" x1="10" x2="744.5" y1="390.793" y2="390.793"/><text fill="#000000" font-family="sans-serif" font-size="11" font-weight="bold" lengthAdjust="spacing" textLength="104" x="15" y="402.6631">[Rest of the cases]</text><line style="stroke:#181818;stroke-width:1.0;" x1="412.5" x2="454.5" y1="447.0059" y2="447.0059"/><line style="stroke:#181818;stroke-width:1.0;" x1="454.5" x2="454.5" y1="447.0059" y2="460.0059"/><line style="stroke:#181818;stroke-width:1.0;" x1="413.5" x2="454.5" y1="460.0059" y2="460.0059"/><polygon fill="#181818" points="423.5,456.0059,413.5,460.0059,423.5,464.0059,419.5,460.0059" style="stroke:#181818;stroke-width:1.0;"/><text fill="#000000" font-family="sans-serif" font-size="13" font-weight="bold" lengthAdjust="spacing" textLength="7" x="419.5" y="433.0977">7</text><text fill="#000000" font-family="sans-serif" font-size="13" lengthAdjust="spacing" textLength="292" x="430.5" y="424.4521">Changes state of current Phase to "CONCLUDED"</text><text fill="#000000" font-family="sans-serif" font-size="13" lengthAdjust="spacing" textLength="188" x="434.5" y="441.7432">and next Phase to "ON_GOING"</text><polygon fill="#181818" points="106.5,487.2969,96.5,491.2969,106.5,495.2969,102.5,491.2969" style="stroke:#181818;stroke-width:1.0;"/><line style="stroke:#181818;stroke-width:1.0;stroke-dasharray:2.0,2.0;" x1="100.5" x2="411.5" y1="491.2969" y2="491.2969"/><text fill="#000000" font-family="sans-serif" font-size="13" font-weight="bold" lengthAdjust="spacing" textLength="7" x="112.5" y="486.0342">8</text><text fill="#000000" font-family="sans-serif" font-size="13" lengthAdjust="spacing" textLength="108" x="123.5" y="486.0342">Success message</text><!--SRC=[jP91Jy9048Nl_HMJNZWXTmucf20XmK9el96OTJkq6zjPt9c2_djtQrLeDAY9UzoT-UQzDpieHVOy7etsbI9fwkfAsth4-DGWQHpcHXLErL6a6h7Kr0_eegHXiJMwMqMgG0V3QyXUMB26CMIYd822TQaOemYweog1ILMzNJCeXs08rij9ciwcmABaf3YS3ZZqxFwuCKpuaS7im0WSlMW6iO7X1qk9i47j6YCrai3QMOtCdsoi63tHkVOrg07346VQ8PAX8WRh85wGe3iOF7ByjQmJnqc9-aEE1xOQjfxL8GBG-JYDmrPIZdkat8y2IsrjBwhtk1Q-r2BJ850FlOAB4TqeKpK-vTgxzrVdtMq87Vy2_Coeei8tjDi2kmDz5gFVGPoiqcHvDvrDuos1eXm8dq_VL-dzVBL8v_4ltMID3clynWtblVrka2K83EdgyE5-iCJ_ylOtNy7JAm00]--></g></svg>