<?xml version="1.0" encoding="us-ascii" standalone="no"?><svg xmlns="http://www.w3.org/2000/svg" xmlns:xlink="http://www.w3.org/1999/xlink" contentStyleType="text/css" height="791px" preserveAspectRatio="none" style="width:1512px;height:791px;background:#FFFFFF;" version="1.1" viewBox="0 0 1512 791" width="1512.5px" zoomAndPan="magnify"><defs/><g><text fill="#000000" font-family="sans-serif" font-size="7" font-weight="bold" lengthAdjust="spacing" textLength="77" x="714.375" y="12.5537">US1010 Class Diagram</text><!--class Phase--><g id="elem_Phase"><rect codeLine="5" fill="#F1F1F1" height="114.0859" id="Phase" rx="1.25" ry="1.25" style="stroke:#181818;stroke-width:0.25;" width="139" x="3.5" y="651.0605"/><ellipse cx="57.375" cy="662.2061" fill="#ADD1B2" rx="5.5" ry="5.5" style="stroke:#181818;stroke-width:0.5;"/><path d="M58.7578,660.1436 Q58.8359,660.0342 58.9297,659.9795 Q59.0234,659.9248 59.1328,659.9248 Q59.3203,659.9248 59.4375,660.0576 Q59.5547,660.1826 59.5547,660.4873 L59.5547,661.2139 Q59.5547,661.5186 59.4375,661.6514 Q59.3203,661.7842 59.1328,661.7842 Q58.9609,661.7842 58.8594,661.6826 Q58.7578,661.5889 58.7031,661.3311 Q58.6797,661.1514 58.5859,661.0576 Q58.4219,660.8701 58.1172,660.7607 Q57.8125,660.6514 57.5,660.6514 Q57.1172,660.6514 56.7969,660.8154 Q56.4844,660.9795 56.2344,661.3545 Q55.9922,661.7295 55.9922,662.2451 L55.9922,662.792 Q55.9922,663.4092 56.4375,663.8232 Q56.8828,664.2295 57.6797,664.2295 Q58.1484,664.2295 58.4766,664.1045 Q58.6719,664.0264 58.8828,663.8076 Q59.0156,663.6748 59.0859,663.6357 Q59.1641,663.5967 59.2656,663.5967 Q59.4297,663.5967 59.5547,663.7295 Q59.6875,663.8545 59.6875,664.0264 Q59.6875,664.1982 59.5156,664.4014 Q59.2656,664.6904 58.8672,664.8545 Q58.3281,665.0811 57.6797,665.0811 Q56.9219,665.0811 56.3203,664.7686 Q55.8281,664.5186 55.4844,663.9873 Q55.1406,663.4482 55.1406,662.8076 L55.1406,662.2295 Q55.1406,661.5654 55.4453,660.9951 Q55.7578,660.417 56.3047,660.1123 Q56.8516,659.7998 57.4688,659.7998 Q57.8359,659.7998 58.1563,659.8857 Q58.4844,659.9639 58.7578,660.1436 Z " fill="#000000"/><text fill="#000000" font-family="sans-serif" font-size="6" font-style="italic" lengthAdjust="spacing" textLength="29" x="66.625" y="660.0352">&#171;Domain&#187;</text><text fill="#000000" font-family="sans-serif" font-size="7" lengthAdjust="spacing" textLength="20" x="71.125" y="669.0947">Phase</text><line style="stroke:#181818;stroke-width:0.25;" x1="4" x2="142" y1="673.3516" y2="673.3516"/><rect fill="none" height="3" style="stroke:#C82930;stroke-width:0.5;" width="3" x="7.5" y="679.2568"/><text fill="#000000" font-family="sans-serif" font-size="7" lengthAdjust="spacing" textLength="43" x="13.5" y="682.9053">Long phaseId</text><rect fill="none" height="3" style="stroke:#C82930;stroke-width:0.5;" width="3" x="7.5" y="688.5674"/><text fill="#000000" font-family="sans-serif" font-size="7" lengthAdjust="spacing" textLength="73.5" x="13.5" y="692.2158">PhaseType phaseType</text><rect fill="none" height="3" style="stroke:#C82930;stroke-width:0.5;" width="3" x="7.5" y="697.8779"/><text fill="#000000" font-family="sans-serif" font-size="7" lengthAdjust="spacing" textLength="92" x="13.5" y="701.5264">PhaseDescription description</text><rect fill="none" height="3" style="stroke:#C82930;stroke-width:0.5;" width="3" x="7.5" y="707.1885"/><text fill="#000000" font-family="sans-serif" font-size="7" lengthAdjust="spacing" textLength="61" x="13.5" y="710.8369">PhaseStatus status</text><rect fill="none" height="3" style="stroke:#C82930;stroke-width:0.5;" width="3" x="7.5" y="716.499"/><text fill="#000000" font-family="sans-serif" font-size="7" lengthAdjust="spacing" textLength="62.5" x="13.5" y="720.1475">PhasePeriod period</text><rect fill="none" height="3" style="stroke:#C82930;stroke-width:0.5;" width="3" x="7.5" y="725.8096"/><text fill="#000000" font-family="sans-serif" font-size="7" lengthAdjust="spacing" textLength="126" x="13.5" y="729.458">RecruitmentProcess recruitmentprocess</text><line style="stroke:#181818;stroke-width:0.5;" x1="4" x2="142" y1="733.2148" y2="733.2148"/><ellipse cx="9" cy="740.6201" fill="#84BE84" rx="1.5" ry="1.5" style="stroke:#038048;stroke-width:0.5;"/><text fill="#000000" font-family="sans-serif" font-size="7" lengthAdjust="spacing" textLength="109.5" x="13.5" y="742.7686">setStatusDescriptionAsPLANNED()</text><ellipse cx="9" cy="749.9307" fill="#84BE84" rx="1.5" ry="1.5" style="stroke:#038048;stroke-width:0.5;"/><text fill="#000000" font-family="sans-serif" font-size="7" lengthAdjust="spacing" textLength="114.5" x="13.5" y="752.0791">setStatusDescriptionAsON_GOING()</text><ellipse cx="9" cy="759.2412" fill="#84BE84" rx="1.5" ry="1.5" style="stroke:#038048;stroke-width:0.5;"/><text fill="#000000" font-family="sans-serif" font-size="7" lengthAdjust="spacing" textLength="121" x="13.5" y="761.3896">setStatusDescriptionAsCONCLUDED()</text></g><!--class PhaseRepository--><g id="elem_PhaseRepository"><rect codeLine="18" fill="#F1F1F1" height="58.2227" id="PhaseRepository" rx="1.25" ry="1.25" style="stroke:#181818;stroke-width:0.25;" width="80.5" x="99.75" y="526.3105"/><ellipse cx="111.975" cy="537.4561" fill="#ADD1B2" rx="5.5" ry="5.5" style="stroke:#181818;stroke-width:0.5;"/><path d="M113.3578,535.3936 Q113.4359,535.2842 113.5297,535.2295 Q113.6234,535.1748 113.7328,535.1748 Q113.9203,535.1748 114.0375,535.3076 Q114.1547,535.4326 114.1547,535.7373 L114.1547,536.4639 Q114.1547,536.7686 114.0375,536.9014 Q113.9203,537.0342 113.7328,537.0342 Q113.5609,537.0342 113.4594,536.9326 Q113.3578,536.8389 113.3031,536.5811 Q113.2797,536.4014 113.1859,536.3076 Q113.0219,536.1201 112.7172,536.0107 Q112.4125,535.9014 112.1,535.9014 Q111.7172,535.9014 111.3969,536.0654 Q111.0844,536.2295 110.8344,536.6045 Q110.5922,536.9795 110.5922,537.4951 L110.5922,538.042 Q110.5922,538.6592 111.0375,539.0732 Q111.4828,539.4795 112.2797,539.4795 Q112.7484,539.4795 113.0766,539.3545 Q113.2719,539.2764 113.4828,539.0576 Q113.6156,538.9248 113.6859,538.8857 Q113.7641,538.8467 113.8656,538.8467 Q114.0297,538.8467 114.1547,538.9795 Q114.2875,539.1045 114.2875,539.2764 Q114.2875,539.4482 114.1156,539.6514 Q113.8656,539.9404 113.4672,540.1045 Q112.9281,540.3311 112.2797,540.3311 Q111.5219,540.3311 110.9203,540.0186 Q110.4281,539.7686 110.0844,539.2373 Q109.7406,538.6982 109.7406,538.0576 L109.7406,537.4795 Q109.7406,536.8154 110.0453,536.2451 Q110.3578,535.667 110.9047,535.3623 Q111.4516,535.0498 112.0688,535.0498 Q112.4359,535.0498 112.7563,535.1357 Q113.0844,535.2139 113.3578,535.3936 Z " fill="#000000"/><text fill="#000000" font-family="sans-serif" font-size="6" font-style="italic" lengthAdjust="spacing" textLength="36.5" x="128.775" y="535.2852">&#171;Repository&#187;</text><text fill="#000000" font-family="sans-serif" font-size="7" lengthAdjust="spacing" textLength="54" x="120.025" y="544.3447">PhaseRepository</text><line style="stroke:#181818;stroke-width:0.25;" x1="100.25" x2="179.75" y1="548.6016" y2="548.6016"/><line style="stroke:#181818;stroke-width:0.25;" x1="100.25" x2="179.75" y1="552.6016" y2="552.6016"/><ellipse cx="105.25" cy="560.0068" fill="#84BE84" rx="1.5" ry="1.5" style="stroke:#038048;stroke-width:0.5;"/><text fill="#000000" font-family="sans-serif" font-size="7" lengthAdjust="spacing" textLength="67.5" x="109.75" y="562.1553">rebuild(Phase: entity)</text><ellipse cx="105.25" cy="569.3174" fill="#84BE84" rx="1.5" ry="1.5" style="stroke:#038048;stroke-width:0.5;"/><text fill="#000000" font-family="sans-serif" font-size="7" lengthAdjust="spacing" textLength="38.5" x="109.75" y="571.4658">getPhases()</text><ellipse cx="105.25" cy="578.6279" fill="#84BE84" rx="1.5" ry="1.5" style="stroke:#038048;stroke-width:0.5;"/><text fill="#000000" font-family="sans-serif" font-size="7" lengthAdjust="spacing" textLength="61" x="109.75" y="580.7764">save(Phase: entity)</text></g><!--class RecruitmentProcessManagementService--><g id="elem_RecruitmentProcessManagementService"><rect codeLine="24" fill="#F1F1F1" height="58.2227" id="RecruitmentProcessManagementService" rx="1.25" ry="1.25" style="stroke:#181818;stroke-width:0.25;" width="253" x="142" y="385.3105"/><ellipse cx="202.375" cy="396.4561" fill="#ADD1B2" rx="5.5" ry="5.5" style="stroke:#181818;stroke-width:0.5;"/><path d="M203.7578,394.3936 Q203.8359,394.2842 203.9297,394.2295 Q204.0234,394.1748 204.1328,394.1748 Q204.3203,394.1748 204.4375,394.3076 Q204.5547,394.4326 204.5547,394.7373 L204.5547,395.4639 Q204.5547,395.7686 204.4375,395.9014 Q204.3203,396.0342 204.1328,396.0342 Q203.9609,396.0342 203.8594,395.9326 Q203.7578,395.8389 203.7031,395.5811 Q203.6797,395.4014 203.5859,395.3076 Q203.4219,395.1201 203.1172,395.0107 Q202.8125,394.9014 202.5,394.9014 Q202.1172,394.9014 201.7969,395.0654 Q201.4844,395.2295 201.2344,395.6045 Q200.9922,395.9795 200.9922,396.4951 L200.9922,397.042 Q200.9922,397.6592 201.4375,398.0732 Q201.8828,398.4795 202.6797,398.4795 Q203.1484,398.4795 203.4766,398.3545 Q203.6719,398.2764 203.8828,398.0576 Q204.0156,397.9248 204.0859,397.8857 Q204.1641,397.8467 204.2656,397.8467 Q204.4297,397.8467 204.5547,397.9795 Q204.6875,398.1045 204.6875,398.2764 Q204.6875,398.4482 204.5156,398.6514 Q204.2656,398.9404 203.8672,399.1045 Q203.3281,399.3311 202.6797,399.3311 Q201.9219,399.3311 201.3203,399.0186 Q200.8281,398.7686 200.4844,398.2373 Q200.1406,397.6982 200.1406,397.0576 L200.1406,396.4795 Q200.1406,395.8154 200.4453,395.2451 Q200.7578,394.667 201.3047,394.3623 Q201.8516,394.0498 202.4688,394.0498 Q202.8359,394.0498 203.1563,394.1357 Q203.4844,394.2139 203.7578,394.3936 Z " fill="#000000"/><text fill="#000000" font-family="sans-serif" font-size="6" font-style="italic" lengthAdjust="spacing" textLength="27.5" x="262.875" y="394.2852">&#171;Service&#187;</text><text fill="#000000" font-family="sans-serif" font-size="7" lengthAdjust="spacing" textLength="128" x="212.625" y="403.3447">RecruitmentProcessManagementService</text><line style="stroke:#181818;stroke-width:0.25;" x1="142.5" x2="394.5" y1="407.6016" y2="407.6016"/><line style="stroke:#181818;stroke-width:0.25;" x1="142.5" x2="394.5" y1="411.6016" y2="411.6016"/><ellipse cx="147.5" cy="419.0068" fill="#84BE84" rx="1.5" ry="1.5" style="stroke:#038048;stroke-width:0.5;"/><text fill="#000000" font-family="sans-serif" font-size="7" lengthAdjust="spacing" textLength="240" x="152" y="421.1553">getRecruitmentProcessDTOWithJobReference(JobReference jobReference)</text><ellipse cx="147.5" cy="428.3174" fill="#84BE84" rx="1.5" ry="1.5" style="stroke:#038048;stroke-width:0.5;"/><text fill="#000000" font-family="sans-serif" font-size="7" lengthAdjust="spacing" textLength="225" x="152" y="430.4658">getRecruitmentProcessWithJobReference(JobReference jobReference)</text><ellipse cx="147.5" cy="437.6279" fill="#84BE84" rx="1.5" ry="1.5" style="stroke:#038048;stroke-width:0.5;"/><text fill="#000000" font-family="sans-serif" font-size="7" lengthAdjust="spacing" textLength="179.5" x="152" y="439.7764">goBackAPhase(RecruitmentProcess recruitmentProcess)</text></g><!--class RecruitmentProcessDTOService--><g id="elem_RecruitmentProcessDTOService"><rect codeLine="30" fill="#F1F1F1" height="39.6016" id="RecruitmentProcessDTOService" rx="1.25" ry="1.25" style="stroke:#181818;stroke-width:0.25;" width="191.5" x="233.75" y="535.5605"/><ellipse cx="276.375" cy="546.7061" fill="#ADD1B2" rx="5.5" ry="5.5" style="stroke:#181818;stroke-width:0.5;"/><path d="M277.7578,544.6436 Q277.8359,544.5342 277.9297,544.4795 Q278.0234,544.4248 278.1328,544.4248 Q278.3203,544.4248 278.4375,544.5576 Q278.5547,544.6826 278.5547,544.9873 L278.5547,545.7139 Q278.5547,546.0186 278.4375,546.1514 Q278.3203,546.2842 278.1328,546.2842 Q277.9609,546.2842 277.8594,546.1826 Q277.7578,546.0889 277.7031,545.8311 Q277.6797,545.6514 277.5859,545.5576 Q277.4219,545.3701 277.1172,545.2607 Q276.8125,545.1514 276.5,545.1514 Q276.1172,545.1514 275.7969,545.3154 Q275.4844,545.4795 275.2344,545.8545 Q274.9922,546.2295 274.9922,546.7451 L274.9922,547.292 Q274.9922,547.9092 275.4375,548.3232 Q275.8828,548.7295 276.6797,548.7295 Q277.1484,548.7295 277.4766,548.6045 Q277.6719,548.5264 277.8828,548.3076 Q278.0156,548.1748 278.0859,548.1357 Q278.1641,548.0967 278.2656,548.0967 Q278.4297,548.0967 278.5547,548.2295 Q278.6875,548.3545 278.6875,548.5264 Q278.6875,548.6982 278.5156,548.9014 Q278.2656,549.1904 277.8672,549.3545 Q277.3281,549.5811 276.6797,549.5811 Q275.9219,549.5811 275.3203,549.2686 Q274.8281,549.0186 274.4844,548.4873 Q274.1406,547.9482 274.1406,547.3076 L274.1406,546.7295 Q274.1406,546.0654 274.4453,545.4951 Q274.7578,544.917 275.3047,544.6123 Q275.8516,544.2998 276.4688,544.2998 Q276.8359,544.2998 277.1563,544.3857 Q277.4844,544.4639 277.7578,544.6436 Z " fill="#000000"/><text fill="#000000" font-family="sans-serif" font-size="6" font-style="italic" lengthAdjust="spacing" textLength="27.5" x="323.875" y="544.5352">&#171;Service&#187;</text><text fill="#000000" font-family="sans-serif" font-size="7" lengthAdjust="spacing" textLength="102" x="286.625" y="553.5947">RecruitmentProcessDTOService</text><line style="stroke:#181818;stroke-width:0.25;" x1="234.25" x2="424.75" y1="557.8516" y2="557.8516"/><line style="stroke:#181818;stroke-width:0.25;" x1="234.25" x2="424.75" y1="561.8516" y2="561.8516"/><ellipse cx="239.25" cy="569.2568" fill="#84BE84" rx="1.5" ry="1.5" style="stroke:#038048;stroke-width:0.5;"/><text fill="#000000" font-family="sans-serif" font-size="7" lengthAdjust="spacing" textLength="178.5" x="243.75" y="571.4053">convertToDTO(RecruitmentProcess recruitmentProcess)</text></g><!--class RecruitmentProcessRepository--><g id="elem_RecruitmentProcessRepository"><rect codeLine="34" fill="#F1F1F1" height="39.6016" id="RecruitmentProcessRepository" rx="1.25" ry="1.25" style="stroke:#181818;stroke-width:0.25;" width="238" x="443" y="535.5605"/><ellipse cx="511.125" cy="546.7061" fill="#ADD1B2" rx="5.5" ry="5.5" style="stroke:#181818;stroke-width:0.5;"/><path d="M512.5078,544.6436 Q512.5859,544.5342 512.6797,544.4795 Q512.7734,544.4248 512.8828,544.4248 Q513.0703,544.4248 513.1875,544.5576 Q513.3047,544.6826 513.3047,544.9873 L513.3047,545.7139 Q513.3047,546.0186 513.1875,546.1514 Q513.0703,546.2842 512.8828,546.2842 Q512.7109,546.2842 512.6094,546.1826 Q512.5078,546.0889 512.4531,545.8311 Q512.4297,545.6514 512.3359,545.5576 Q512.1719,545.3701 511.8672,545.2607 Q511.5625,545.1514 511.25,545.1514 Q510.8672,545.1514 510.5469,545.3154 Q510.2344,545.4795 509.9844,545.8545 Q509.7422,546.2295 509.7422,546.7451 L509.7422,547.292 Q509.7422,547.9092 510.1875,548.3232 Q510.6328,548.7295 511.4297,548.7295 Q511.8984,548.7295 512.2266,548.6045 Q512.4219,548.5264 512.6328,548.3076 Q512.7656,548.1748 512.8359,548.1357 Q512.9141,548.0967 513.0156,548.0967 Q513.1797,548.0967 513.3047,548.2295 Q513.4375,548.3545 513.4375,548.5264 Q513.4375,548.6982 513.2656,548.9014 Q513.0156,549.1904 512.6172,549.3545 Q512.0781,549.5811 511.4297,549.5811 Q510.6719,549.5811 510.0703,549.2686 Q509.5781,549.0186 509.2344,548.4873 Q508.8906,547.9482 508.8906,547.3076 L508.8906,546.7295 Q508.8906,546.0654 509.1953,545.4951 Q509.5078,544.917 510.0547,544.6123 Q510.6016,544.2998 511.2188,544.2998 Q511.5859,544.2998 511.9063,544.3857 Q512.2344,544.4639 512.5078,544.6436 Z " fill="#000000"/><text fill="#000000" font-family="sans-serif" font-size="6" font-style="italic" lengthAdjust="spacing" textLength="36.5" x="551.875" y="544.5352">&#171;Repository&#187;</text><text fill="#000000" font-family="sans-serif" font-size="7" lengthAdjust="spacing" textLength="97.5" x="521.375" y="553.5947">RecruitmentProcessRepository</text><line style="stroke:#181818;stroke-width:0.25;" x1="443.5" x2="680.5" y1="557.8516" y2="557.8516"/><line style="stroke:#181818;stroke-width:0.25;" x1="443.5" x2="680.5" y1="561.8516" y2="561.8516"/><ellipse cx="448.5" cy="569.2568" fill="#84BE84" rx="1.5" ry="1.5" style="stroke:#038048;stroke-width:0.5;"/><text fill="#000000" font-family="sans-serif" font-size="7" lengthAdjust="spacing" textLength="225" x="453" y="571.4053">getRecruitmentProcessWithJobReference(JobReference jobReference)</text></g><!--class RecruitmentProcess--><g id="elem_RecruitmentProcess"><rect codeLine="38" fill="#F1F1F1" height="58.2227" id="RecruitmentProcess" rx="1.25" ry="1.25" style="stroke:#181818;stroke-width:0.25;" width="129.5" x="497.25" y="679.0605"/><ellipse cx="528.125" cy="690.2061" fill="#ADD1B2" rx="5.5" ry="5.5" style="stroke:#181818;stroke-width:0.5;"/><path d="M529.5078,688.1436 Q529.5859,688.0342 529.6797,687.9795 Q529.7734,687.9248 529.8828,687.9248 Q530.0703,687.9248 530.1875,688.0576 Q530.3047,688.1826 530.3047,688.4873 L530.3047,689.2139 Q530.3047,689.5186 530.1875,689.6514 Q530.0703,689.7842 529.8828,689.7842 Q529.7109,689.7842 529.6094,689.6826 Q529.5078,689.5889 529.4531,689.3311 Q529.4297,689.1514 529.3359,689.0576 Q529.1719,688.8701 528.8672,688.7607 Q528.5625,688.6514 528.25,688.6514 Q527.8672,688.6514 527.5469,688.8154 Q527.2344,688.9795 526.9844,689.3545 Q526.7422,689.7295 526.7422,690.2451 L526.7422,690.792 Q526.7422,691.4092 527.1875,691.8232 Q527.6328,692.2295 528.4297,692.2295 Q528.8984,692.2295 529.2266,692.1045 Q529.4219,692.0264 529.6328,691.8076 Q529.7656,691.6748 529.8359,691.6357 Q529.9141,691.5967 530.0156,691.5967 Q530.1797,691.5967 530.3047,691.7295 Q530.4375,691.8545 530.4375,692.0264 Q530.4375,692.1982 530.2656,692.4014 Q530.0156,692.6904 529.6172,692.8545 Q529.0781,693.0811 528.4297,693.0811 Q527.6719,693.0811 527.0703,692.7686 Q526.5781,692.5186 526.2344,691.9873 Q525.8906,691.4482 525.8906,690.8076 L525.8906,690.2295 Q525.8906,689.5654 526.1953,688.9951 Q526.5078,688.417 527.0547,688.1123 Q527.6016,687.7998 528.2188,687.7998 Q528.5859,687.7998 528.9063,687.8857 Q529.2344,687.9639 529.5078,688.1436 Z " fill="#000000"/><text fill="#000000" font-family="sans-serif" font-size="6" font-style="italic" lengthAdjust="spacing" textLength="29" x="555.625" y="688.0352">&#171;Domain&#187;</text><text fill="#000000" font-family="sans-serif" font-size="7" lengthAdjust="spacing" textLength="63.5" x="538.375" y="697.0947">RecruitmentProcess</text><line style="stroke:#181818;stroke-width:0.25;" x1="497.75" x2="626.25" y1="701.3516" y2="701.3516"/><rect fill="none" height="3" style="stroke:#C82930;stroke-width:0.5;" width="3" x="501.25" y="707.2568"/><text fill="#000000" font-family="sans-serif" font-size="7" lengthAdjust="spacing" textLength="116.5" x="507.25" y="710.9053">RecruitmentPeriod recruitmentPeriod</text><rect fill="none" height="3" style="stroke:#C82930;stroke-width:0.5;" width="3" x="501.25" y="716.5674"/><text fill="#000000" font-family="sans-serif" font-size="7" lengthAdjust="spacing" textLength="64" x="507.25" y="720.2158">List&lt;Phase&gt; phases</text><rect fill="none" height="3" style="stroke:#C82930;stroke-width:0.5;" width="3" x="501.25" y="725.8779"/><text fill="#000000" font-family="sans-serif" font-size="7" lengthAdjust="spacing" textLength="76.5" x="507.25" y="729.5264">JobOpening jobOpening</text><line style="stroke:#181818;stroke-width:0.25;" x1="497.75" x2="626.25" y1="733.2832" y2="733.2832"/></g><!--class AbstractListUI--><g id="elem_AbstractListUI"><rect codeLine="44" fill="#F1F1F1" height="79.8633" id="AbstractListUI" rx="1.25" ry="1.25" style="stroke:#181818;stroke-width:0.25;" width="65.5" x="710.75" y="23.3105"/><ellipse cx="720.725" cy="31.3105" fill="#B4A7E5" rx="5.5" ry="5.5" style="stroke:#181818;stroke-width:0.5;"/><path d="M721.2016,29.6309 L721.2016,32.959 L722.0609,32.959 Q722.3656,32.959 722.4984,33.0762 Q722.6313,33.1934 722.6313,33.3887 Q722.6313,33.5762 722.4984,33.6934 Q722.3656,33.8105 722.0609,33.8105 L719.4906,33.8105 Q719.1859,33.8105 719.0531,33.6934 Q718.9203,33.5762 718.9203,33.3809 Q718.9203,33.1934 719.0531,33.0762 Q719.1859,32.959 719.4906,32.959 L720.35,32.959 L720.35,29.6309 L719.4906,29.6309 Q719.1859,29.6309 719.0531,29.5137 Q718.9203,29.3965 718.9203,29.2012 Q718.9203,29.0137 719.0531,28.8965 Q719.1859,28.7793 719.4906,28.7793 L722.0609,28.7793 Q722.3656,28.7793 722.4984,28.8965 Q722.6313,29.0137 722.6313,29.2012 Q722.6313,29.3965 722.4984,29.5137 Q722.3656,29.6309 722.0609,29.6309 L721.2016,29.6309 Z " fill="#000000"/><text fill="#000000" font-family="sans-serif" font-size="7" font-style="italic" lengthAdjust="spacing" textLength="44" x="728.275" y="34.209">AbstractListUI</text><line style="stroke:#181818;stroke-width:0.25;" x1="711.25" x2="775.75" y1="39.3105" y2="39.3105"/><line style="stroke:#181818;stroke-width:0.25;" x1="711.25" x2="775.75" y1="43.3105" y2="43.3105"/><polygon fill="#FFFF44" points="716.25,48.2158,718.25,50.2158,716.25,52.2158,714.25,50.2158" style="stroke:#B38D22;stroke-width:0.5;"/><text fill="#000000" font-family="sans-serif" font-size="7" lengthAdjust="spacing" textLength="33.5" x="720.75" y="52.8643">elements()</text><polygon fill="#FFFF44" points="716.25,57.5264,718.25,59.5264,716.25,61.5264,714.25,59.5264" style="stroke:#B38D22;stroke-width:0.5;"/><text fill="#000000" font-family="sans-serif" font-size="7" lengthAdjust="spacing" textLength="51" x="720.75" y="62.1748">elementPrinter()</text><polygon fill="#FFFF44" points="716.25,66.8369,718.25,68.8369,716.25,70.8369,714.25,68.8369" style="stroke:#B38D22;stroke-width:0.5;"/><text fill="#000000" font-family="sans-serif" font-size="7" lengthAdjust="spacing" textLength="52.5" x="720.75" y="71.4854">emptyMessage()</text><polygon fill="#FFFF44" points="716.25,76.1475,718.25,78.1475,716.25,80.1475,714.25,78.1475" style="stroke:#B38D22;stroke-width:0.5;"/><text fill="#000000" font-family="sans-serif" font-size="7" lengthAdjust="spacing" textLength="36.5" x="720.75" y="80.7959">listHeader()</text><polygon fill="#FFFF44" points="716.25,85.458,718.25,87.458,716.25,89.458,714.25,87.458" style="stroke:#B38D22;stroke-width:0.5;"/><text fill="#000000" font-family="sans-serif" font-size="7" lengthAdjust="spacing" textLength="45.5" x="720.75" y="90.1064">elementName(</text><polygon fill="#FFFF44" points="716.25,94.7686,718.25,96.7686,716.25,98.7686,714.25,96.7686" style="stroke:#B38D22;stroke-width:0.5;"/><text fill="#000000" font-family="sans-serif" font-size="7" lengthAdjust="spacing" textLength="30" x="720.75" y="99.417">doShow()</text></g><!--class CustomerManagementService--><g id="elem_CustomerManagementService"><rect codeLine="53" fill="#F1F1F1" height="39.6016" id="CustomerManagementService" rx="1.25" ry="1.25" style="stroke:#181818;stroke-width:0.25;" width="195.5" x="734.25" y="394.5605"/><ellipse cx="782.375" cy="405.7061" fill="#ADD1B2" rx="5.5" ry="5.5" style="stroke:#181818;stroke-width:0.5;"/><path d="M783.7578,403.6436 Q783.8359,403.5342 783.9297,403.4795 Q784.0234,403.4248 784.1328,403.4248 Q784.3203,403.4248 784.4375,403.5576 Q784.5547,403.6826 784.5547,403.9873 L784.5547,404.7139 Q784.5547,405.0186 784.4375,405.1514 Q784.3203,405.2842 784.1328,405.2842 Q783.9609,405.2842 783.8594,405.1826 Q783.7578,405.0889 783.7031,404.8311 Q783.6797,404.6514 783.5859,404.5576 Q783.4219,404.3701 783.1172,404.2607 Q782.8125,404.1514 782.5,404.1514 Q782.1172,404.1514 781.7969,404.3154 Q781.4844,404.4795 781.2344,404.8545 Q780.9922,405.2295 780.9922,405.7451 L780.9922,406.292 Q780.9922,406.9092 781.4375,407.3232 Q781.8828,407.7295 782.6797,407.7295 Q783.1484,407.7295 783.4766,407.6045 Q783.6719,407.5264 783.8828,407.3076 Q784.0156,407.1748 784.0859,407.1357 Q784.1641,407.0967 784.2656,407.0967 Q784.4297,407.0967 784.5547,407.2295 Q784.6875,407.3545 784.6875,407.5264 Q784.6875,407.6982 784.5156,407.9014 Q784.2656,408.1904 783.8672,408.3545 Q783.3281,408.5811 782.6797,408.5811 Q781.9219,408.5811 781.3203,408.2686 Q780.8281,408.0186 780.4844,407.4873 Q780.1406,406.9482 780.1406,406.3076 L780.1406,405.7295 Q780.1406,405.0654 780.4453,404.4951 Q780.7578,403.917 781.3047,403.6123 Q781.8516,403.2998 782.4688,403.2998 Q782.8359,403.2998 783.1563,403.3857 Q783.4844,403.4639 783.7578,403.6436 Z " fill="#000000"/><text fill="#000000" font-family="sans-serif" font-size="6" font-style="italic" lengthAdjust="spacing" textLength="27.5" x="826.375" y="403.5352">&#171;Service&#187;</text><text fill="#000000" font-family="sans-serif" font-size="7" lengthAdjust="spacing" textLength="95" x="792.625" y="412.5947">CustomerManagementService</text><line style="stroke:#181818;stroke-width:0.25;" x1="734.75" x2="929.25" y1="416.8516" y2="416.8516"/><line style="stroke:#181818;stroke-width:0.25;" x1="734.75" x2="929.25" y1="420.8516" y2="420.8516"/><ellipse cx="739.75" cy="428.2568" fill="#84BE84" rx="1.5" ry="1.5" style="stroke:#038048;stroke-width:0.5;"/><text fill="#000000" font-family="sans-serif" font-size="7" lengthAdjust="spacing" textLength="182.5" x="744.25" y="430.4053">getAssignedCostumerCodesList(EmailAddress username)</text></g><!--class Customer--><g id="elem_Customer"><rect codeLine="57" fill="#F1F1F1" height="84.8242" id="Customer" rx="1.25" ry="1.25" style="stroke:#181818;stroke-width:0.25;" width="132" x="734" y="512.8105"/><ellipse cx="773.875" cy="527.9463" fill="#ADD1B2" rx="5.5" ry="5.5" style="stroke:#181818;stroke-width:0.5;"/><path d="M775.2578,525.8838 Q775.3359,525.7744 775.4297,525.7197 Q775.5234,525.665 775.6328,525.665 Q775.8203,525.665 775.9375,525.7979 Q776.0547,525.9229 776.0547,526.2275 L776.0547,526.9541 Q776.0547,527.2588 775.9375,527.3916 Q775.8203,527.5244 775.6328,527.5244 Q775.4609,527.5244 775.3594,527.4229 Q775.2578,527.3291 775.2031,527.0713 Q775.1797,526.8916 775.0859,526.7979 Q774.9219,526.6104 774.6172,526.501 Q774.3125,526.3916 774,526.3916 Q773.6172,526.3916 773.2969,526.5557 Q772.9844,526.7197 772.7344,527.0947 Q772.4922,527.4697 772.4922,527.9854 L772.4922,528.5322 Q772.4922,529.1494 772.9375,529.5635 Q773.3828,529.9697 774.1797,529.9697 Q774.6484,529.9697 774.9766,529.8447 Q775.1719,529.7666 775.3828,529.5479 Q775.5156,529.415 775.5859,529.376 Q775.6641,529.3369 775.7656,529.3369 Q775.9297,529.3369 776.0547,529.4697 Q776.1875,529.5947 776.1875,529.7666 Q776.1875,529.9385 776.0156,530.1416 Q775.7656,530.4307 775.3672,530.5947 Q774.8281,530.8213 774.1797,530.8213 Q773.4219,530.8213 772.8203,530.5088 Q772.3281,530.2588 771.9844,529.7275 Q771.6406,529.1885 771.6406,528.5479 L771.6406,527.9697 Q771.6406,527.3057 771.9453,526.7354 Q772.2578,526.1572 772.8047,525.8525 Q773.3516,525.54 773.9688,525.54 Q774.3359,525.54 774.6563,525.626 Q774.9844,525.7041 775.2578,525.8838 Z " fill="#000000"/><text fill="#000000" font-family="sans-serif" font-size="6" font-style="italic" lengthAdjust="spacing" textLength="29" x="793.625" y="521.7852">&#171;Domain&#187;</text><text fill="#000000" font-family="sans-serif" font-size="6" font-style="italic" lengthAdjust="spacing" textLength="50" x="783.125" y="529.7656">&#171;Aggregate Root&#187;</text><text fill="#000000" font-family="sans-serif" font-size="7" lengthAdjust="spacing" textLength="30.5" x="792.875" y="538.8252">Customer</text><line style="stroke:#181818;stroke-width:0.25;" x1="734.5" x2="865.5" y1="543.082" y2="543.082"/><rect fill="none" height="3" style="stroke:#C82930;stroke-width:0.5;" width="3" x="738" y="548.9873"/><text fill="#000000" font-family="sans-serif" font-size="7" lengthAdjust="spacing" textLength="95.5" x="744" y="552.6357">CustomerCode customerCode</text><rect fill="none" height="3" style="stroke:#C82930;stroke-width:0.5;" width="3" x="738" y="558.2979"/><text fill="#000000" font-family="sans-serif" font-size="7" lengthAdjust="spacing" textLength="96.5" x="744" y="561.9463">CompanyName companyName</text><rect fill="none" height="3" style="stroke:#C82930;stroke-width:0.5;" width="3" x="738" y="567.6084"/><text fill="#000000" font-family="sans-serif" font-size="7" lengthAdjust="spacing" textLength="119" x="744" y="571.2568">EmailAddress costumerManagerEmail</text><line style="stroke:#181818;stroke-width:0.25;" x1="734.5" x2="865.5" y1="575.0137" y2="575.0137"/><ellipse cx="739.5" cy="582.4189" fill="#84BE84" rx="1.5" ry="1.5" style="stroke:#038048;stroke-width:0.5;"/><text fill="#000000" font-family="sans-serif" font-size="7" lengthAdjust="spacing" textLength="51" x="744" y="584.5674">customerCode()</text><ellipse cx="739.5" cy="591.7295" fill="#84BE84" rx="1.5" ry="1.5" style="stroke:#038048;stroke-width:0.5;"/><text fill="#000000" font-family="sans-serif" font-size="7" lengthAdjust="spacing" textLength="51.5" x="744" y="593.8779">companyName()</text></g><!--class JobOpeningManagementService--><g id="elem_JobOpeningManagementService"><rect codeLine="65" fill="#F1F1F1" height="48.9121" id="JobOpeningManagementService" rx="1.25" ry="1.25" style="stroke:#181818;stroke-width:0.25;" width="296" x="1063" y="389.8105"/><ellipse cx="1157.625" cy="400.9561" fill="#ADD1B2" rx="5.5" ry="5.5" style="stroke:#181818;stroke-width:0.5;"/><path d="M1159.0078,398.8936 Q1159.0859,398.7842 1159.1797,398.7295 Q1159.2734,398.6748 1159.3828,398.6748 Q1159.5703,398.6748 1159.6875,398.8076 Q1159.8047,398.9326 1159.8047,399.2373 L1159.8047,399.9639 Q1159.8047,400.2686 1159.6875,400.4014 Q1159.5703,400.5342 1159.3828,400.5342 Q1159.2109,400.5342 1159.1094,400.4326 Q1159.0078,400.3389 1158.9531,400.0811 Q1158.9297,399.9014 1158.8359,399.8076 Q1158.6719,399.6201 1158.3672,399.5107 Q1158.0625,399.4014 1157.75,399.4014 Q1157.3672,399.4014 1157.0469,399.5654 Q1156.7344,399.7295 1156.4844,400.1045 Q1156.2422,400.4795 1156.2422,400.9951 L1156.2422,401.542 Q1156.2422,402.1592 1156.6875,402.5732 Q1157.1328,402.9795 1157.9297,402.9795 Q1158.3984,402.9795 1158.7266,402.8545 Q1158.9219,402.7764 1159.1328,402.5576 Q1159.2656,402.4248 1159.3359,402.3857 Q1159.4141,402.3467 1159.5156,402.3467 Q1159.6797,402.3467 1159.8047,402.4795 Q1159.9375,402.6045 1159.9375,402.7764 Q1159.9375,402.9482 1159.7656,403.1514 Q1159.5156,403.4404 1159.1172,403.6045 Q1158.5781,403.8311 1157.9297,403.8311 Q1157.1719,403.8311 1156.5703,403.5186 Q1156.0781,403.2686 1155.7344,402.7373 Q1155.3906,402.1982 1155.3906,401.5576 L1155.3906,400.9795 Q1155.3906,400.3154 1155.6953,399.7451 Q1156.0078,399.167 1156.5547,398.8623 Q1157.1016,398.5498 1157.7188,398.5498 Q1158.0859,398.5498 1158.4063,398.6357 Q1158.7344,398.7139 1159.0078,398.8936 Z " fill="#000000"/><text fill="#000000" font-family="sans-serif" font-size="6" font-style="italic" lengthAdjust="spacing" textLength="27.5" x="1205.375" y="398.7852">&#171;Service&#187;</text><text fill="#000000" font-family="sans-serif" font-size="7" lengthAdjust="spacing" textLength="102.5" x="1167.875" y="407.8447">JobOpeningManagementService</text><line style="stroke:#181818;stroke-width:0.25;" x1="1063.5" x2="1358.5" y1="412.1016" y2="412.1016"/><line style="stroke:#181818;stroke-width:0.25;" x1="1063.5" x2="1358.5" y1="416.1016" y2="416.1016"/><ellipse cx="1068.5" cy="423.5068" fill="#84BE84" rx="1.5" ry="1.5" style="stroke:#038048;stroke-width:0.5;"/><text fill="#000000" font-family="sans-serif" font-size="7" lengthAdjust="spacing" textLength="283" x="1073" y="425.6553">getJobOpeningsFromCostumerCodes(List&lt;CustomerCode&gt; assignedCostumerCodesList)</text><ellipse cx="1068.5" cy="432.8174" fill="#84BE84" rx="1.5" ry="1.5" style="stroke:#038048;stroke-width:0.5;"/><text fill="#000000" font-family="sans-serif" font-size="7" lengthAdjust="spacing" textLength="144" x="1073" y="434.9658">filterJobOpeningList(List&lt;Criteria&gt; criteriaList)</text></g><!--class JobOpeningListDTOService--><g id="elem_JobOpeningListDTOService"><rect codeLine="70" fill="#F1F1F1" height="39.6016" id="JobOpeningListDTOService" rx="1.25" ry="1.25" style="stroke:#181818;stroke-width:0.25;" width="171.5" x="1337.75" y="458.3105"/><ellipse cx="1377.625" cy="469.4561" fill="#ADD1B2" rx="5.5" ry="5.5" style="stroke:#181818;stroke-width:0.5;"/><path d="M1379.0078,467.3936 Q1379.0859,467.2842 1379.1797,467.2295 Q1379.2734,467.1748 1379.3828,467.1748 Q1379.5703,467.1748 1379.6875,467.3076 Q1379.8047,467.4326 1379.8047,467.7373 L1379.8047,468.4639 Q1379.8047,468.7686 1379.6875,468.9014 Q1379.5703,469.0342 1379.3828,469.0342 Q1379.2109,469.0342 1379.1094,468.9326 Q1379.0078,468.8389 1378.9531,468.5811 Q1378.9297,468.4014 1378.8359,468.3076 Q1378.6719,468.1201 1378.3672,468.0107 Q1378.0625,467.9014 1377.75,467.9014 Q1377.3672,467.9014 1377.0469,468.0654 Q1376.7344,468.2295 1376.4844,468.6045 Q1376.2422,468.9795 1376.2422,469.4951 L1376.2422,470.042 Q1376.2422,470.6592 1376.6875,471.0732 Q1377.1328,471.4795 1377.9297,471.4795 Q1378.3984,471.4795 1378.7266,471.3545 Q1378.9219,471.2764 1379.1328,471.0576 Q1379.2656,470.9248 1379.3359,470.8857 Q1379.4141,470.8467 1379.5156,470.8467 Q1379.6797,470.8467 1379.8047,470.9795 Q1379.9375,471.1045 1379.9375,471.2764 Q1379.9375,471.4482 1379.7656,471.6514 Q1379.5156,471.9404 1379.1172,472.1045 Q1378.5781,472.3311 1377.9297,472.3311 Q1377.1719,472.3311 1376.5703,472.0186 Q1376.0781,471.7686 1375.7344,471.2373 Q1375.3906,470.6982 1375.3906,470.0576 L1375.3906,469.4795 Q1375.3906,468.8154 1375.6953,468.2451 Q1376.0078,467.667 1376.5547,467.3623 Q1377.1016,467.0498 1377.7188,467.0498 Q1378.0859,467.0498 1378.4063,467.1357 Q1378.7344,467.2139 1379.0078,467.3936 Z " fill="#000000"/><text fill="#000000" font-family="sans-serif" font-size="6" font-style="italic" lengthAdjust="spacing" textLength="27.5" x="1417.875" y="467.2852">&#171;Service&#187;</text><text fill="#000000" font-family="sans-serif" font-size="7" lengthAdjust="spacing" textLength="87.5" x="1387.875" y="476.3447">JobOpeningListDTOService</text><line style="stroke:#181818;stroke-width:0.25;" x1="1338.25" x2="1508.75" y1="480.6016" y2="480.6016"/><line style="stroke:#181818;stroke-width:0.25;" x1="1338.25" x2="1508.75" y1="484.6016" y2="484.6016"/><ellipse cx="1343.25" cy="492.0068" fill="#84BE84" rx="1.5" ry="1.5" style="stroke:#038048;stroke-width:0.5;"/><text fill="#000000" font-family="sans-serif" font-size="7" lengthAdjust="spacing" textLength="158.5" x="1347.75" y="494.1553">convertToDTO(List&lt;JobOpening&gt; jobOpeningList)</text></g><!--class ChangePhaseStatesUI--><g id="elem_ChangePhaseStatesUI"><rect codeLine="74" fill="#F1F1F1" height="86.1543" id="ChangePhaseStatesUI" rx="1.25" ry="1.25" style="stroke:#181818;stroke-width:0.25;" width="87" x="700" y="142.8105"/><ellipse cx="707.5" cy="153.9561" fill="#ADD1B2" rx="5.5" ry="5.5" style="stroke:#181818;stroke-width:0.5;"/><path d="M708.8828,151.8936 Q708.9609,151.7842 709.0547,151.7295 Q709.1484,151.6748 709.2578,151.6748 Q709.4453,151.6748 709.5625,151.8076 Q709.6797,151.9326 709.6797,152.2373 L709.6797,152.9639 Q709.6797,153.2686 709.5625,153.4014 Q709.4453,153.5342 709.2578,153.5342 Q709.0859,153.5342 708.9844,153.4326 Q708.8828,153.3389 708.8281,153.0811 Q708.8047,152.9014 708.7109,152.8076 Q708.5469,152.6201 708.2422,152.5107 Q707.9375,152.4014 707.625,152.4014 Q707.2422,152.4014 706.9219,152.5654 Q706.6094,152.7295 706.3594,153.1045 Q706.1172,153.4795 706.1172,153.9951 L706.1172,154.542 Q706.1172,155.1592 706.5625,155.5732 Q707.0078,155.9795 707.8047,155.9795 Q708.2734,155.9795 708.6016,155.8545 Q708.7969,155.7764 709.0078,155.5576 Q709.1406,155.4248 709.2109,155.3857 Q709.2891,155.3467 709.3906,155.3467 Q709.5547,155.3467 709.6797,155.4795 Q709.8125,155.6045 709.8125,155.7764 Q709.8125,155.9482 709.6406,156.1514 Q709.3906,156.4404 708.9922,156.6045 Q708.4531,156.8311 707.8047,156.8311 Q707.0469,156.8311 706.4453,156.5186 Q705.9531,156.2686 705.6094,155.7373 Q705.2656,155.1982 705.2656,154.5576 L705.2656,153.9795 Q705.2656,153.3154 705.5703,152.7451 Q705.8828,152.167 706.4297,151.8623 Q706.9766,151.5498 707.5938,151.5498 Q707.9609,151.5498 708.2813,151.6357 Q708.6094,151.7139 708.8828,151.8936 Z " fill="#000000"/><text fill="#000000" font-family="sans-serif" font-size="6" font-style="italic" lengthAdjust="spacing" textLength="41.5" x="729.25" y="151.7852">&#171;Presentation&#187;</text><text fill="#000000" font-family="sans-serif" font-size="7" lengthAdjust="spacing" textLength="71" x="714.5" y="160.8447">ChangePhaseStatesUI</text><line style="stroke:#181818;stroke-width:0.25;" x1="700.5" x2="786.5" y1="165.1016" y2="165.1016"/><line style="stroke:#181818;stroke-width:0.25;" x1="700.5" x2="786.5" y1="169.1016" y2="169.1016"/><ellipse cx="705.5" cy="176.5068" fill="#84BE84" rx="1.5" ry="1.5" style="stroke:#038048;stroke-width:0.5;"/><text fill="#000000" font-family="sans-serif" font-size="7" lengthAdjust="spacing" textLength="33.5" x="710" y="178.6553">elements()</text><ellipse cx="705.5" cy="185.8174" fill="#84BE84" rx="1.5" ry="1.5" style="stroke:#038048;stroke-width:0.5;"/><text fill="#000000" font-family="sans-serif" font-size="7" lengthAdjust="spacing" textLength="51" x="710" y="187.9658">elementPrinter()</text><ellipse cx="705.5" cy="195.1279" fill="#84BE84" rx="1.5" ry="1.5" style="stroke:#038048;stroke-width:0.5;"/><text fill="#000000" font-family="sans-serif" font-size="7" lengthAdjust="spacing" textLength="52.5" x="710" y="197.2764">emptyMessage()</text><ellipse cx="705.5" cy="204.4385" fill="#84BE84" rx="1.5" ry="1.5" style="stroke:#038048;stroke-width:0.5;"/><text fill="#000000" font-family="sans-serif" font-size="7" lengthAdjust="spacing" textLength="36.5" x="710" y="206.5869">listHeader()</text><ellipse cx="705.5" cy="213.749" fill="#84BE84" rx="1.5" ry="1.5" style="stroke:#038048;stroke-width:0.5;"/><text fill="#000000" font-family="sans-serif" font-size="7" lengthAdjust="spacing" textLength="45.5" x="710" y="215.8975">elementName(</text><ellipse cx="705.5" cy="223.0596" fill="#84BE84" rx="1.5" ry="1.5" style="stroke:#038048;stroke-width:0.5;"/><text fill="#000000" font-family="sans-serif" font-size="7" lengthAdjust="spacing" textLength="30" x="710" y="225.208">doShow()</text></g><!--class ChangePhaseStatesController--><g id="elem_ChangePhaseStatesController"><rect codeLine="83" fill="#F1F1F1" height="95.4648" id="ChangePhaseStatesController" rx="1.25" ry="1.25" style="stroke:#181818;stroke-width:0.25;" width="262.5" x="612.25" y="259.3105"/><ellipse cx="693.375" cy="270.4561" fill="#ADD1B2" rx="5.5" ry="5.5" style="stroke:#181818;stroke-width:0.5;"/><path d="M694.7578,268.3936 Q694.8359,268.2842 694.9297,268.2295 Q695.0234,268.1748 695.1328,268.1748 Q695.3203,268.1748 695.4375,268.3076 Q695.5547,268.4326 695.5547,268.7373 L695.5547,269.4639 Q695.5547,269.7686 695.4375,269.9014 Q695.3203,270.0342 695.1328,270.0342 Q694.9609,270.0342 694.8594,269.9326 Q694.7578,269.8389 694.7031,269.5811 Q694.6797,269.4014 694.5859,269.3076 Q694.4219,269.1201 694.1172,269.0107 Q693.8125,268.9014 693.5,268.9014 Q693.1172,268.9014 692.7969,269.0654 Q692.4844,269.2295 692.2344,269.6045 Q691.9922,269.9795 691.9922,270.4951 L691.9922,271.042 Q691.9922,271.6592 692.4375,272.0732 Q692.8828,272.4795 693.6797,272.4795 Q694.1484,272.4795 694.4766,272.3545 Q694.6719,272.2764 694.8828,272.0576 Q695.0156,271.9248 695.0859,271.8857 Q695.1641,271.8467 695.2656,271.8467 Q695.4297,271.8467 695.5547,271.9795 Q695.6875,272.1045 695.6875,272.2764 Q695.6875,272.4482 695.5156,272.6514 Q695.2656,272.9404 694.8672,273.1045 Q694.3281,273.3311 693.6797,273.3311 Q692.9219,273.3311 692.3203,273.0186 Q691.8281,272.7686 691.4844,272.2373 Q691.1406,271.6982 691.1406,271.0576 L691.1406,270.4795 Q691.1406,269.8154 691.4453,269.2451 Q691.7578,268.667 692.3047,268.3623 Q692.8516,268.0498 693.4688,268.0498 Q693.8359,268.0498 694.1563,268.1357 Q694.4844,268.2139 694.7578,268.3936 Z " fill="#000000"/><text fill="#000000" font-family="sans-serif" font-size="6" font-style="italic" lengthAdjust="spacing" textLength="37.5" x="732.875" y="268.2852">&#171;Application&#187;</text><text fill="#000000" font-family="sans-serif" font-size="7" lengthAdjust="spacing" textLength="96" x="703.625" y="277.3447">ChangePhaseStatesController</text><line style="stroke:#181818;stroke-width:0.25;" x1="612.75" x2="874.25" y1="281.6016" y2="281.6016"/><line style="stroke:#181818;stroke-width:0.25;" x1="612.75" x2="874.25" y1="285.6016" y2="285.6016"/><ellipse cx="617.75" cy="293.0068" fill="#84BE84" rx="1.5" ry="1.5" style="stroke:#038048;stroke-width:0.5;"/><text fill="#000000" font-family="sans-serif" font-size="7" lengthAdjust="spacing" textLength="64" x="622.25" y="295.1553">getAllJobOpenings()</text><ellipse cx="617.75" cy="302.3174" fill="#84BE84" rx="1.5" ry="1.5" style="stroke:#038048;stroke-width:0.5;"/><text fill="#000000" font-family="sans-serif" font-size="7" lengthAdjust="spacing" textLength="240" x="622.25" y="304.4658">getRecruitmentProcessDTOWithJobReference(JobReference jobReference)</text><ellipse cx="617.75" cy="311.6279" fill="#84BE84" rx="1.5" ry="1.5" style="stroke:#038048;stroke-width:0.5;"/><text fill="#000000" font-family="sans-serif" font-size="7" lengthAdjust="spacing" textLength="225" x="622.25" y="313.7764">getRecruitmentProcessWithJobReference(JobReference jobReference)</text><ellipse cx="617.75" cy="320.9385" fill="#84BE84" rx="1.5" ry="1.5" style="stroke:#038048;stroke-width:0.5;"/><text fill="#000000" font-family="sans-serif" font-size="7" lengthAdjust="spacing" textLength="185.5" x="622.25" y="323.0869">hasRequirementSpecification(JobReference jobReference)</text><ellipse cx="617.75" cy="330.249" fill="#84BE84" rx="1.5" ry="1.5" style="stroke:#038048;stroke-width:0.5;"/><text fill="#000000" font-family="sans-serif" font-size="7" lengthAdjust="spacing" textLength="151.5" x="622.25" y="332.3975">hasInterviewModel(JobReference jobReference)</text><ellipse cx="617.75" cy="339.5596" fill="#84BE84" rx="1.5" ry="1.5" style="stroke:#038048;stroke-width:0.5;"/><text fill="#000000" font-family="sans-serif" font-size="7" lengthAdjust="spacing" textLength="132" x="622.25" y="341.708">startAPhase(JobReference jobReference)</text><ellipse cx="617.75" cy="348.8701" fill="#84BE84" rx="1.5" ry="1.5" style="stroke:#038048;stroke-width:0.5;"/><text fill="#000000" font-family="sans-serif" font-size="7" lengthAdjust="spacing" textLength="249.5" x="622.25" y="351.0186">goBackAPhase(Long phaseIdOfCurrentPhase, Long phaseIdOfPreviousPhase)</text></g><!--class AuthorizationService--><g id="elem_AuthorizationService"><rect codeLine="93" fill="#F1F1F1" height="39.6016" id="AuthorizationService" rx="1.25" ry="1.25" style="stroke:#181818;stroke-width:0.25;" width="267" x="327.5" y="287.3105"/><ellipse cx="426.625" cy="298.4561" fill="#ADD1B2" rx="5.5" ry="5.5" style="stroke:#181818;stroke-width:0.5;"/><path d="M428.0078,296.3936 Q428.0859,296.2842 428.1797,296.2295 Q428.2734,296.1748 428.3828,296.1748 Q428.5703,296.1748 428.6875,296.3076 Q428.8047,296.4326 428.8047,296.7373 L428.8047,297.4639 Q428.8047,297.7686 428.6875,297.9014 Q428.5703,298.0342 428.3828,298.0342 Q428.2109,298.0342 428.1094,297.9326 Q428.0078,297.8389 427.9531,297.5811 Q427.9297,297.4014 427.8359,297.3076 Q427.6719,297.1201 427.3672,297.0107 Q427.0625,296.9014 426.75,296.9014 Q426.3672,296.9014 426.0469,297.0654 Q425.7344,297.2295 425.4844,297.6045 Q425.2422,297.9795 425.2422,298.4951 L425.2422,299.042 Q425.2422,299.6592 425.6875,300.0732 Q426.1328,300.4795 426.9297,300.4795 Q427.3984,300.4795 427.7266,300.3545 Q427.9219,300.2764 428.1328,300.0576 Q428.2656,299.9248 428.3359,299.8857 Q428.4141,299.8467 428.5156,299.8467 Q428.6797,299.8467 428.8047,299.9795 Q428.9375,300.1045 428.9375,300.2764 Q428.9375,300.4482 428.7656,300.6514 Q428.5156,300.9404 428.1172,301.1045 Q427.5781,301.3311 426.9297,301.3311 Q426.1719,301.3311 425.5703,301.0186 Q425.0781,300.7686 424.7344,300.2373 Q424.3906,299.6982 424.3906,299.0576 L424.3906,298.4795 Q424.3906,297.8154 424.6953,297.2451 Q425.0078,296.667 425.5547,296.3623 Q426.1016,296.0498 426.7188,296.0498 Q427.0859,296.0498 427.4063,296.1357 Q427.7344,296.2139 428.0078,296.3936 Z " fill="#000000"/><text fill="#000000" font-family="sans-serif" font-size="6" font-style="italic" lengthAdjust="spacing" textLength="27.5" x="455.375" y="296.2852">&#171;Service&#187;</text><text fill="#000000" font-family="sans-serif" font-size="7" lengthAdjust="spacing" textLength="64.5" x="436.875" y="305.3447">AuthorizationService</text><line style="stroke:#181818;stroke-width:0.25;" x1="328" x2="594" y1="309.6016" y2="309.6016"/><line style="stroke:#181818;stroke-width:0.25;" x1="328" x2="594" y1="313.6016" y2="313.6016"/><ellipse cx="333" cy="321.0068" fill="#84BE84" rx="1.5" ry="1.5" style="stroke:#038048;stroke-width:0.5;"/><text fill="#000000" font-family="sans-serif" font-size="7" lengthAdjust="spacing" textLength="254" x="337.5" y="323.1553">loggedinUserWithPermissions(Role ... Action BaseRole.CUSTOMER_MANAGER)</text></g><!--class JobOpening--><g id="elem_JobOpening"><rect codeLine="97" fill="#F1F1F1" height="159.3086" id="JobOpening" rx="1.25" ry="1.25" style="stroke:#181818;stroke-width:0.25;" width="177" x="1237.5" y="628.3105"/><ellipse cx="1299.875" cy="643.4463" fill="#ADD1B2" rx="5.5" ry="5.5" style="stroke:#181818;stroke-width:0.5;"/><path d="M1301.2578,641.3838 Q1301.3359,641.2744 1301.4297,641.2197 Q1301.5234,641.165 1301.6328,641.165 Q1301.8203,641.165 1301.9375,641.2979 Q1302.0547,641.4229 1302.0547,641.7275 L1302.0547,642.4541 Q1302.0547,642.7588 1301.9375,642.8916 Q1301.8203,643.0244 1301.6328,643.0244 Q1301.4609,643.0244 1301.3594,642.9229 Q1301.2578,642.8291 1301.2031,642.5713 Q1301.1797,642.3916 1301.0859,642.2979 Q1300.9219,642.1104 1300.6172,642.001 Q1300.3125,641.8916 1300,641.8916 Q1299.6172,641.8916 1299.2969,642.0557 Q1298.9844,642.2197 1298.7344,642.5947 Q1298.4922,642.9697 1298.4922,643.4854 L1298.4922,644.0322 Q1298.4922,644.6494 1298.9375,645.0635 Q1299.3828,645.4697 1300.1797,645.4697 Q1300.6484,645.4697 1300.9766,645.3447 Q1301.1719,645.2666 1301.3828,645.0479 Q1301.5156,644.915 1301.5859,644.876 Q1301.6641,644.8369 1301.7656,644.8369 Q1301.9297,644.8369 1302.0547,644.9697 Q1302.1875,645.0947 1302.1875,645.2666 Q1302.1875,645.4385 1302.0156,645.6416 Q1301.7656,645.9307 1301.3672,646.0947 Q1300.8281,646.3213 1300.1797,646.3213 Q1299.4219,646.3213 1298.8203,646.0088 Q1298.3281,645.7588 1297.9844,645.2275 Q1297.6406,644.6885 1297.6406,644.0479 L1297.6406,643.4697 Q1297.6406,642.8057 1297.9453,642.2354 Q1298.2578,641.6572 1298.8047,641.3525 Q1299.3516,641.04 1299.9688,641.04 Q1300.3359,641.04 1300.6563,641.126 Q1300.9844,641.2041 1301.2578,641.3838 Z " fill="#000000"/><text fill="#000000" font-family="sans-serif" font-size="6" font-style="italic" lengthAdjust="spacing" textLength="29" x="1319.625" y="637.2852">&#171;Domain&#187;</text><text fill="#000000" font-family="sans-serif" font-size="6" font-style="italic" lengthAdjust="spacing" textLength="50" x="1309.125" y="645.2656">&#171;Aggregate Root&#187;</text><text fill="#000000" font-family="sans-serif" font-size="7" lengthAdjust="spacing" textLength="38" x="1315.125" y="654.3252">JobOpening</text><line style="stroke:#181818;stroke-width:0.25;" x1="1238" x2="1414" y1="658.582" y2="658.582"/><rect fill="none" height="3" style="stroke:#C82930;stroke-width:0.5;" width="3" x="1241.5" y="664.4873"/><text fill="#000000" font-family="sans-serif" font-size="7" lengthAdjust="spacing" textLength="65.5" x="1247.5" y="668.1357">JobFunction function</text><rect fill="none" height="3" style="stroke:#C82930;stroke-width:0.5;" width="3" x="1241.5" y="673.7979"/><text fill="#000000" font-family="sans-serif" font-size="7" lengthAdjust="spacing" textLength="86.5" x="1247.5" y="677.4463">ContractType contractType</text><rect fill="none" height="3" style="stroke:#C82930;stroke-width:0.5;" width="3" x="1241.5" y="683.1084"/><text fill="#000000" font-family="sans-serif" font-size="7" lengthAdjust="spacing" textLength="68" x="1247.5" y="686.7568">WorkMode workMode</text><rect fill="none" height="3" style="stroke:#C82930;stroke-width:0.5;" width="3" x="1241.5" y="692.4189"/><text fill="#000000" font-family="sans-serif" font-size="7" lengthAdjust="spacing" textLength="90.5" x="1247.5" y="696.0674">Address jobOpeningAddress</text><rect fill="none" height="3" style="stroke:#C82930;stroke-width:0.5;" width="3" x="1241.5" y="701.7295"/><text fill="#000000" font-family="sans-serif" font-size="7" lengthAdjust="spacing" textLength="88.5" x="1247.5" y="705.3779">JobReference jobReference</text><rect fill="none" height="3" style="stroke:#C82930;stroke-width:0.5;" width="3" x="1241.5" y="711.04"/><text fill="#000000" font-family="sans-serif" font-size="7" lengthAdjust="spacing" textLength="99.5" x="1247.5" y="714.6885">NumberVacancy numVacancies</text><rect fill="none" height="3" style="stroke:#C82930;stroke-width:0.5;" width="3" x="1241.5" y="720.3506"/><text fill="#000000" font-family="sans-serif" font-size="7" lengthAdjust="spacing" textLength="83" x="1247.5" y="723.999">JobDescription description</text><rect fill="none" height="3" style="stroke:#C82930;stroke-width:0.5;" width="3" x="1241.5" y="729.6611"/><text fill="#000000" font-family="sans-serif" font-size="7" lengthAdjust="spacing" textLength="164" x="1247.5" y="733.3096">RequirementSpecification requirementsSpecification</text><rect fill="none" height="3" style="stroke:#C82930;stroke-width:0.5;" width="3" x="1241.5" y="738.9717"/><text fill="#000000" font-family="sans-serif" font-size="7" lengthAdjust="spacing" textLength="92.5" x="1247.5" y="742.6201">Set&lt;Application&gt; applications</text><rect fill="none" height="3" style="stroke:#C82930;stroke-width:0.5;" width="3" x="1241.5" y="748.2822"/><text fill="#000000" font-family="sans-serif" font-size="7" lengthAdjust="spacing" textLength="32.5" x="1247.5" y="751.9307">Rank rank</text><line style="stroke:#181818;stroke-width:0.5;" x1="1238" x2="1414" y1="755.6875" y2="755.6875"/><ellipse cx="1243" cy="763.0928" fill="#84BE84" rx="1.5" ry="1.5" style="stroke:#038048;stroke-width:0.5;"/><text fill="#000000" font-family="sans-serif" font-size="7" lengthAdjust="spacing" textLength="53" x="1247.5" y="765.2412">getApplications()</text><ellipse cx="1243" cy="772.4033" fill="#84BE84" rx="1.5" ry="1.5" style="stroke:#038048;stroke-width:0.5;"/><text fill="#000000" font-family="sans-serif" font-size="7" lengthAdjust="spacing" textLength="97" x="1247.5" y="774.5518">hasRequirementSpecification()</text><ellipse cx="1243" cy="781.7139" fill="#84BE84" rx="1.5" ry="1.5" style="stroke:#038048;stroke-width:0.5;"/><text fill="#000000" font-family="sans-serif" font-size="7" lengthAdjust="spacing" textLength="63" x="1247.5" y="783.8623">hasInterviewModel()</text></g><!--class JobOpeningRepository--><g id="elem_JobOpeningRepository"><rect codeLine="114" fill="#F1F1F1" height="56.8926" id="JobOpeningRepository" rx="1.25" ry="1.25" style="stroke:#181818;stroke-width:0.25;" width="219.5" x="1079.75" y="526.8105"/><ellipse cx="1151.375" cy="541.9463" fill="#ADD1B2" rx="5.5" ry="5.5" style="stroke:#181818;stroke-width:0.5;"/><path d="M1152.7578,539.8838 Q1152.8359,539.7744 1152.9297,539.7197 Q1153.0234,539.665 1153.1328,539.665 Q1153.3203,539.665 1153.4375,539.7979 Q1153.5547,539.9229 1153.5547,540.2275 L1153.5547,540.9541 Q1153.5547,541.2588 1153.4375,541.3916 Q1153.3203,541.5244 1153.1328,541.5244 Q1152.9609,541.5244 1152.8594,541.4229 Q1152.7578,541.3291 1152.7031,541.0713 Q1152.6797,540.8916 1152.5859,540.7979 Q1152.4219,540.6104 1152.1172,540.501 Q1151.8125,540.3916 1151.5,540.3916 Q1151.1172,540.3916 1150.7969,540.5557 Q1150.4844,540.7197 1150.2344,541.0947 Q1149.9922,541.4697 1149.9922,541.9854 L1149.9922,542.5322 Q1149.9922,543.1494 1150.4375,543.5635 Q1150.8828,543.9697 1151.6797,543.9697 Q1152.1484,543.9697 1152.4766,543.8447 Q1152.6719,543.7666 1152.8828,543.5479 Q1153.0156,543.415 1153.0859,543.376 Q1153.1641,543.3369 1153.2656,543.3369 Q1153.4297,543.3369 1153.5547,543.4697 Q1153.6875,543.5947 1153.6875,543.7666 Q1153.6875,543.9385 1153.5156,544.1416 Q1153.2656,544.4307 1152.8672,544.5947 Q1152.3281,544.8213 1151.6797,544.8213 Q1150.9219,544.8213 1150.3203,544.5088 Q1149.8281,544.2588 1149.4844,543.7275 Q1149.1406,543.1885 1149.1406,542.5479 L1149.1406,541.9697 Q1149.1406,541.3057 1149.4453,540.7354 Q1149.7578,540.1572 1150.3047,539.8525 Q1150.8516,539.54 1151.4688,539.54 Q1151.8359,539.54 1152.1563,539.626 Q1152.4844,539.7041 1152.7578,539.8838 Z " fill="#000000"/><text fill="#000000" font-family="sans-serif" font-size="6" font-style="italic" lengthAdjust="spacing" textLength="39" x="1178.125" y="535.7852">&#171;Persistence&#187;</text><text fill="#000000" font-family="sans-serif" font-size="6" font-style="italic" lengthAdjust="spacing" textLength="36.5" x="1179.375" y="543.7656">&#171;Repository&#187;</text><text fill="#000000" font-family="sans-serif" font-size="7" lengthAdjust="spacing" textLength="72" x="1161.625" y="552.8252">JobOpeningRepository</text><line style="stroke:#181818;stroke-width:0.25;" x1="1080.25" x2="1298.75" y1="557.082" y2="557.082"/><line style="stroke:#181818;stroke-width:0.25;" x1="1080.25" x2="1298.75" y1="561.082" y2="561.082"/><ellipse cx="1085.25" cy="568.4873" fill="#84BE84" rx="1.5" ry="1.5" style="stroke:#038048;stroke-width:0.5;"/><text fill="#000000" font-family="sans-serif" font-size="7" lengthAdjust="spacing" textLength="85.5" x="1089.75" y="570.6357">rebuild(JobOpening: entity)</text><ellipse cx="1085.25" cy="577.7979" fill="#84BE84" rx="1.5" ry="1.5" style="stroke:#038048;stroke-width:0.5;"/><text fill="#000000" font-family="sans-serif" font-size="7" lengthAdjust="spacing" textLength="206.5" x="1089.75" y="579.9463">getJobOpeningListMatchingCostumerCode(String costumerCode)</text></g><!--class CustomerRepository--><g id="elem_CustomerRepository"><rect codeLine="119" fill="#F1F1F1" height="56.8926" id="CustomerRepository" rx="1.25" ry="1.25" style="stroke:#181818;stroke-width:0.25;" width="178.5" x="883.75" y="526.8105"/><ellipse cx="938.625" cy="541.9463" fill="#ADD1B2" rx="5.5" ry="5.5" style="stroke:#181818;stroke-width:0.5;"/><path d="M940.0078,539.8838 Q940.0859,539.7744 940.1797,539.7197 Q940.2734,539.665 940.3828,539.665 Q940.5703,539.665 940.6875,539.7979 Q940.8047,539.9229 940.8047,540.2275 L940.8047,540.9541 Q940.8047,541.2588 940.6875,541.3916 Q940.5703,541.5244 940.3828,541.5244 Q940.2109,541.5244 940.1094,541.4229 Q940.0078,541.3291 939.9531,541.0713 Q939.9297,540.8916 939.8359,540.7979 Q939.6719,540.6104 939.3672,540.501 Q939.0625,540.3916 938.75,540.3916 Q938.3672,540.3916 938.0469,540.5557 Q937.7344,540.7197 937.4844,541.0947 Q937.2422,541.4697 937.2422,541.9854 L937.2422,542.5322 Q937.2422,543.1494 937.6875,543.5635 Q938.1328,543.9697 938.9297,543.9697 Q939.3984,543.9697 939.7266,543.8447 Q939.9219,543.7666 940.1328,543.5479 Q940.2656,543.415 940.3359,543.376 Q940.4141,543.3369 940.5156,543.3369 Q940.6797,543.3369 940.8047,543.4697 Q940.9375,543.5947 940.9375,543.7666 Q940.9375,543.9385 940.7656,544.1416 Q940.5156,544.4307 940.1172,544.5947 Q939.5781,544.8213 938.9297,544.8213 Q938.1719,544.8213 937.5703,544.5088 Q937.0781,544.2588 936.7344,543.7275 Q936.3906,543.1885 936.3906,542.5479 L936.3906,541.9697 Q936.3906,541.3057 936.6953,540.7354 Q937.0078,540.1572 937.5547,539.8525 Q938.1016,539.54 938.7188,539.54 Q939.0859,539.54 939.4063,539.626 Q939.7344,539.7041 940.0078,539.8838 Z " fill="#000000"/><text fill="#000000" font-family="sans-serif" font-size="6" font-style="italic" lengthAdjust="spacing" textLength="39" x="961.625" y="535.7852">&#171;Persistence&#187;</text><text fill="#000000" font-family="sans-serif" font-size="6" font-style="italic" lengthAdjust="spacing" textLength="36.5" x="962.875" y="543.7656">&#171;Repository&#187;</text><text fill="#000000" font-family="sans-serif" font-size="7" lengthAdjust="spacing" textLength="64.5" x="948.875" y="552.8252">CustomerRepository</text><line style="stroke:#181818;stroke-width:0.25;" x1="884.25" x2="1061.75" y1="557.082" y2="557.082"/><line style="stroke:#181818;stroke-width:0.25;" x1="884.25" x2="1061.75" y1="561.082" y2="561.082"/><ellipse cx="889.25" cy="568.4873" fill="#84BE84" rx="1.5" ry="1.5" style="stroke:#038048;stroke-width:0.5;"/><text fill="#000000" font-family="sans-serif" font-size="7" lengthAdjust="spacing" textLength="58.5" x="893.75" y="570.6357">save(e: Customer)</text><ellipse cx="889.25" cy="577.7979" fill="#84BE84" rx="1.5" ry="1.5" style="stroke:#038048;stroke-width:0.5;"/><text fill="#000000" font-family="sans-serif" font-size="7" lengthAdjust="spacing" textLength="165.5" x="893.75" y="579.9463">getCostumersByUsername(EmailAddress username)</text></g><!--class RepositoryDatabase--><g id="elem_RepositoryDatabase"><rect codeLine="124" fill="#F1F1F1" height="39.6016" id="RepositoryDatabase" rx="1.25" ry="1.25" style="stroke:#181818;stroke-width:0.25;" width="98" x="947.5" y="394.5605"/><ellipse cx="962.875" cy="405.7061" fill="#B4A7E5" rx="5.5" ry="5.5" style="stroke:#181818;stroke-width:0.5;"/><path d="M963.3516,404.0264 L963.3516,407.3545 L964.2109,407.3545 Q964.5156,407.3545 964.6484,407.4717 Q964.7813,407.5889 964.7813,407.7842 Q964.7813,407.9717 964.6484,408.0889 Q964.5156,408.2061 964.2109,408.2061 L961.6406,408.2061 Q961.3359,408.2061 961.2031,408.0889 Q961.0703,407.9717 961.0703,407.7764 Q961.0703,407.5889 961.2031,407.4717 Q961.3359,407.3545 961.6406,407.3545 L962.5,407.3545 L962.5,404.0264 L961.6406,404.0264 Q961.3359,404.0264 961.2031,403.9092 Q961.0703,403.792 961.0703,403.5967 Q961.0703,403.4092 961.2031,403.292 Q961.3359,403.1748 961.6406,403.1748 L964.2109,403.1748 Q964.5156,403.1748 964.6484,403.292 Q964.7813,403.4092 964.7813,403.5967 Q964.7813,403.792 964.6484,403.9092 Q964.5156,404.0264 964.2109,404.0264 L963.3516,404.0264 Z " fill="#000000"/><text fill="#000000" font-family="sans-serif" font-size="6" font-style="italic" lengthAdjust="spacing" textLength="39" x="984.375" y="403.5352">&#171;Persistence&#187;</text><text fill="#000000" font-family="sans-serif" font-size="7" font-style="italic" lengthAdjust="spacing" textLength="64.5" x="971.625" y="412.5947">RepositoryDatabase</text><line style="stroke:#181818;stroke-width:0.25;" x1="948" x2="1045" y1="416.8516" y2="416.8516"/><line style="stroke:#181818;stroke-width:0.25;" x1="948" x2="1045" y1="420.8516" y2="420.8516"/><ellipse cx="953" cy="428.2568" fill="#84BE84" rx="1.5" ry="1.5" style="stroke:#038048;stroke-width:0.5;"/><text fill="#000000" font-family="sans-serif" font-size="7" lengthAdjust="spacing" textLength="85" x="957.5" y="430.4053">save(Customer: Customer)</text></g><!--link ChangePhaseStatesUI to ChangePhaseStatesController--><g id="link_ChangePhaseStatesUI_ChangePhaseStatesController"><path codeLine="131" d="M743.5,228.8755 C743.5,238.6705 743.5,246.1505 743.5,256.1405 " fill="none" id="ChangePhaseStatesUI-to-ChangePhaseStatesController" style="stroke:#181818;stroke-width:0.5;stroke-dasharray:7.0,7.0;"/><polygon fill="#181818" points="743.5,259.1405,745.5,254.6405,743.5,256.6405,741.5,254.6405,743.5,259.1405" style="stroke:#181818;stroke-width:0.5;"/></g><!--link ChangePhaseStatesController to CustomerManagementService--><g id="link_ChangePhaseStatesController_CustomerManagementService"><path codeLine="132" d="M782.96,354.9355 C794.575,368.8805 804.7205,381.055 813.9705,392.165 " fill="none" id="ChangePhaseStatesController-to-CustomerManagementService" style="stroke:#181818;stroke-width:0.5;stroke-dasharray:7.0,7.0;"/><polygon fill="#181818" points="815.89,394.4705,814.5477,389.7326,814.2904,392.5493,811.4737,392.292,815.89,394.4705" style="stroke:#181818;stroke-width:0.5;"/></g><!--link ChangePhaseStatesController to JobOpeningManagementService--><g id="link_ChangePhaseStatesController_JobOpeningManagementService"><path codeLine="133" d="M874.815,337.4055 C947.67,353.9605 1034.1446,373.6157 1102.4396,389.1357 " fill="none" id="ChangePhaseStatesController-to-JobOpeningManagementService" style="stroke:#181818;stroke-width:0.5;stroke-dasharray:7.0,7.0;"/><polygon fill="#181818" points="1105.365,389.8005,1101.4201,386.8531,1102.9272,389.2465,1100.5337,390.7536,1105.365,389.8005" style="stroke:#181818;stroke-width:0.5;"/></g><!--link ChangePhaseStatesController to JobOpeningListDTOService--><g id="link_ChangePhaseStatesController_JobOpeningListDTOService"><path codeLine="134" d="M874.78,310.6055 C1033.47,316.5355 1289.085,334.0005 1368,385.3105 C1394.245,402.3755 1408.8993,433.7742 1416.5943,455.3992 " fill="none" id="ChangePhaseStatesController-to-JobOpeningListDTOService" style="stroke:#181818;stroke-width:0.5;stroke-dasharray:7.0,7.0;"/><polygon fill="#181818" points="1417.6,458.2255,1417.9757,453.3155,1416.7619,455.8702,1414.2071,454.6565,1417.6,458.2255" style="stroke:#181818;stroke-width:0.5;"/></g><!--link ChangePhaseStatesController to RecruitmentProcessManagementService--><g id="link_ChangePhaseStatesController_RecruitmentProcessManagementService"><path codeLine="135" d="M612.245,352.3805 C609.14,353.2205 606.055,354.0305 603,354.8105 C535.07,372.1205 461.063,385.6057 398.098,395.5907 " fill="none" id="ChangePhaseStatesController-to-RecruitmentProcessManagementService" style="stroke:#181818;stroke-width:0.5;stroke-dasharray:7.0,7.0;"/><polygon fill="#181818" points="395.135,396.0605,399.8927,397.3311,397.6041,395.669,399.2662,393.3804,395.135,396.0605" style="stroke:#181818;stroke-width:0.5;"/></g><!--link ChangePhaseStatesController to RecruitmentProcess--><g id="link_ChangePhaseStatesController_RecruitmentProcess"><path codeLine="136" d="M732.055,354.9555 C729.77,364.9555 727.475,375.4605 725.5,385.3105 C706.69,479.2355 736.59,514.3955 689.5,597.8105 C670.51,631.4455 639.5777,657.9073 611.7277,677.2823 " fill="none" id="ChangePhaseStatesController-to-RecruitmentProcess" style="stroke:#181818;stroke-width:0.5;stroke-dasharray:7.0,7.0;"/><polygon fill="#181818" points="609.265,678.9955,614.1012,678.0674,611.3172,677.5678,611.8168,674.7839,609.265,678.9955" style="stroke:#181818;stroke-width:0.5;"/></g><!--link ChangePhaseStatesController to Phase--><g id="link_ChangePhaseStatesController_Phase"><path codeLine="137" d="M612.155,352.8805 C609.085,353.5705 606.03,354.2155 603,354.8105 C500.31,375.0505 221.13,328.8505 133,385.3105 C47.825,439.8755 51.5988,571.0532 62.1088,647.9632 " fill="none" id="ChangePhaseStatesController-to-Phase" style="stroke:#181818;stroke-width:0.5;stroke-dasharray:7.0,7.0;"/><polygon fill="#181818" points="62.515,650.9355,63.8873,646.2062,62.1765,648.4586,59.9241,646.7478,62.515,650.9355" style="stroke:#181818;stroke-width:0.5;"/></g><!--link CustomerManagementService to CustomerRepository--><g id="link_CustomerManagementService_CustomerRepository"><path codeLine="140" d="M851.455,434.1305 C875.63,458.1355 914.936,497.1619 942.611,524.6369 " fill="none" id="CustomerManagementService-to-CustomerRepository" style="stroke:#181818;stroke-width:0.5;"/><polygon fill="#181818" points="944.74,526.7505,942.9556,522.1608,942.9658,524.9892,940.1374,524.9995,944.74,526.7505" style="stroke:#181818;stroke-width:0.5;"/></g><!--link CustomerManagementService to Customer--><g id="link_CustomerManagementService_Customer"><path codeLine="141" d="M827.585,434.1305 C822.97,454.3055 816.2583,483.6709 810.2933,509.7759 " fill="none" id="CustomerManagementService-to-Customer" style="stroke:#181818;stroke-width:0.5;"/><polygon fill="#181818" points="809.625,512.7005,812.5772,508.7591,810.1819,510.2634,808.6777,507.8681,809.625,512.7005" style="stroke:#181818;stroke-width:0.5;"/></g><!--link JobOpeningManagementService to JobOpeningRepository--><g id="link_JobOpeningManagementService_JobOpeningRepository"><path codeLine="142" d="M1207.305,438.8755 C1203.56,463.2705 1198.22,498.0203 1194.27,523.7603 " fill="none" id="JobOpeningManagementService-to-JobOpeningRepository" style="stroke:#181818;stroke-width:0.5;"/><polygon fill="#181818" points="1193.815,526.7255,1196.4744,522.581,1194.1942,524.2545,1192.5207,521.9743,1193.815,526.7255" style="stroke:#181818;stroke-width:0.5;"/></g><!--link JobOpeningManagementService to JobOpening--><g id="link_JobOpeningManagementService_JobOpening"><path codeLine="143" d="M1244.93,438.9955 C1266.945,456.7305 1294.04,482.8705 1308,512.8105 C1324.57,548.3555 1329.7836,588.4713 1330.5936,625.0863 " fill="none" id="JobOpeningManagementService-to-JobOpening" style="stroke:#181818;stroke-width:0.5;"/><polygon fill="#181818" points="1330.66,628.0855,1332.56,623.5424,1330.6047,625.5862,1328.561,623.6309,1330.66,628.0855" style="stroke:#181818;stroke-width:0.5;"/></g><!--link JobOpeningListDTOService to JobOpening--><g id="link_JobOpeningListDTOService_JobOpening"><path codeLine="144" d="M1415.27,497.8855 C1403.105,526.4605 1380.7952,578.8653 1360.9652,625.4403 " fill="none" id="JobOpeningListDTOService-to-JobOpening" style="stroke:#181818;stroke-width:0.5;"/><polygon fill="#181818" points="1359.79,628.2005,1363.393,624.8437,1360.7693,625.9004,1359.7127,623.2767,1359.79,628.2005" style="stroke:#181818;stroke-width:0.5;"/></g><!--link RecruitmentProcessManagementService to RecruitmentProcessDTOService--><g id="link_RecruitmentProcessManagementService_RecruitmentProcessDTOService"><path codeLine="145" d="M280.99,443.4805 C292.945,470.9205 309.4567,508.8103 319.8417,532.6453 " fill="none" id="RecruitmentProcessManagementService-to-RecruitmentProcessDTOService" style="stroke:#181818;stroke-width:0.5;"/><polygon fill="#181818" points="321.04,535.3955,321.0761,530.4712,320.0414,533.1036,317.409,532.069,321.04,535.3955" style="stroke:#181818;stroke-width:0.5;"/></g><!--link RecruitmentProcessManagementService to RecruitmentProcessRepository--><g id="link_RecruitmentProcessManagementService_RecruitmentProcessRepository"><path codeLine="146" d="M328.425,443.3955 C386.015,470.8655 468.7572,510.3341 518.7622,534.1841 " fill="none" id="RecruitmentProcessManagementService-to-RecruitmentProcessRepository" style="stroke:#181818;stroke-width:0.5;stroke-dasharray:7.0,7.0;"/><polygon fill="#181818" points="521.47,535.4755,518.2693,531.7331,519.2135,534.3993,516.5473,535.3435,521.47,535.4755" style="stroke:#181818;stroke-width:0.5;"/></g><!--link RecruitmentProcessManagementService to PhaseRepository--><g id="link_RecruitmentProcessManagementService_PhaseRepository"><path codeLine="147" d="M211.985,443.3355 C205.53,447.8555 199.35,452.8605 194,458.3105 C174.835,477.8305 161.4866,502.7761 152.3416,523.4911 " fill="none" id="RecruitmentProcessManagementService-to-PhaseRepository" style="stroke:#181818;stroke-width:0.5;stroke-dasharray:7.0,7.0;"/><polygon fill="#181818" points="151.13,526.2355,154.777,522.9266,152.1397,523.9485,151.1177,521.3111,151.13,526.2355" style="stroke:#181818;stroke-width:0.5;"/></g><!--link RecruitmentProcessManagementService to RecruitmentProcess--><g id="link_RecruitmentProcessManagementService_RecruitmentProcess"><path codeLine="148" d="M248.62,443.4655 C224.55,482.0505 191.185,551.2355 225,597.8105 C257.285,642.2805 405.6476,677.5403 494.1576,695.1453 " fill="none" id="RecruitmentProcessManagementService-to-RecruitmentProcess" style="stroke:#181818;stroke-width:0.5;stroke-dasharray:7.0,7.0;"/><polygon fill="#181818" points="497.1,695.7305,493.0766,692.8911,494.648,695.2428,492.2963,696.8142,497.1,695.7305" style="stroke:#181818;stroke-width:0.5;"/></g><!--link RecruitmentProcessManagementService to Phase--><g id="link_RecruitmentProcessManagementService_Phase"><path codeLine="149" d="M174.255,443.3105 C141.61,458.3605 108.77,480.6005 91,512.8105 C67.75,554.9555 64.5881,607.1389 66.5231,647.9989 " fill="none" id="RecruitmentProcessManagementService-to-Phase" style="stroke:#181818;stroke-width:0.5;stroke-dasharray:7.0,7.0;"/><polygon fill="#181818" points="66.665,650.9955,68.4499,646.406,66.5467,648.4983,64.4544,646.5952,66.665,650.9955" style="stroke:#181818;stroke-width:0.5;"/></g><!--link JobOpeningRepository to JobOpening--><g id="link_JobOpeningRepository_JobOpening"><path codeLine="152" d="M1214.695,583.8205 C1226.135,596.5405 1238.2938,610.055 1252.6438,626.01 " fill="none" id="JobOpeningRepository-to-JobOpening" style="stroke:#181818;stroke-width:0.5;"/><polygon fill="#181818" points="1254.65,628.2405,1253.1278,623.5573,1252.9782,626.3818,1250.1537,626.2322,1254.65,628.2405" style="stroke:#181818;stroke-width:0.5;"/></g><!--link PhaseRepository to Phase--><g id="link_PhaseRepository_Phase"><path codeLine="153" d="M127.4,584.3555 C119.115,603.1155 109.207,625.5563 99.177,648.2663 " fill="none" id="PhaseRepository-to-Phase" style="stroke:#181818;stroke-width:0.5;"/><polygon fill="#181818" points="97.965,651.0105,101.6125,647.7022,98.975,648.7237,97.9535,646.0861,97.965,651.0105" style="stroke:#181818;stroke-width:0.5;"/></g><!--link RecruitmentProcessRepository to RecruitmentProcess--><g id="link_RecruitmentProcessRepository_RecruitmentProcess"><path codeLine="154" d="M562,575.1855 C562,601.4705 562,645.6355 562,675.9905 " fill="none" id="RecruitmentProcessRepository-to-RecruitmentProcess" style="stroke:#181818;stroke-width:0.5;"/><polygon fill="#181818" points="562,678.9905,564,674.4905,562,676.4905,560,674.4905,562,678.9905" style="stroke:#181818;stroke-width:0.5;"/></g><!--reverse link RepositoryDatabase to JobOpeningRepository--><g id="link_RepositoryDatabase_JobOpeningRepository"><path codeLine="157" d="M1030.42,439.4154 C1063.51,463.4204 1112.94,499.2755 1150.82,526.7505 " fill="none" id="RepositoryDatabase-backto-JobOpeningRepository" style="stroke:#181818;stroke-width:0.5;stroke-dasharray:7.0,7.0;"/><polygon fill="none" points="1023.135,434.1305,1028.6583,441.8437,1032.1816,436.9871,1023.135,434.1305" style="stroke:#181818;stroke-width:0.5;"/><text fill="#000000" font-family="sans-serif" font-size="6.5" lengthAdjust="spacing" textLength="33.5" x="1110.5" y="480.8247">implements</text></g><!--reverse link RepositoryDatabase to CustomerRepository--><g id="link_RepositoryDatabase_CustomerRepository"><path codeLine="158" d="M991.7667,443.0066 C987.7417,467.0116 982.32,499.2755 977.71,526.7505 " fill="none" id="RepositoryDatabase-backto-CustomerRepository" style="stroke:#181818;stroke-width:0.5;stroke-dasharray:7.0,7.0;"/><polygon fill="none" points="993.255,434.1305,988.808,442.5105,994.7254,443.5027,993.255,434.1305" style="stroke:#181818;stroke-width:0.5;"/><text fill="#000000" font-family="sans-serif" font-size="6.5" lengthAdjust="spacing" textLength="33.5" x="989" y="480.8247">implements</text></g><!--reverse link AbstractListUI to ChangePhaseStatesUI--><g id="link_AbstractListUI_ChangePhaseStatesUI"><path codeLine="160" d="M743.5,112.4255 C743.5,124.9605 743.5,129.8655 743.5,142.6055 " fill="none" id="AbstractListUI-backto-ChangePhaseStatesUI" style="stroke:#181818;stroke-width:0.5;stroke-dasharray:7.0,7.0;"/><polygon fill="none" points="743.5,103.4255,740.5,112.4255,746.5,112.4255,743.5,103.4255" style="stroke:#181818;stroke-width:0.5;"/><text fill="#000000" font-family="sans-serif" font-size="6.5" lengthAdjust="spacing" textLength="33.5" x="744" y="125.8247">implements</text></g><!--link AuthorizationService to ChangePhaseStatesController--><g id="link_AuthorizationService_ChangePhaseStatesController"><path codeLine="163" d="M594.525,307.0605 C600.395,307.0605 603.26,307.0605 609.13,307.0605 " fill="none" id="AuthorizationService-to-ChangePhaseStatesController" style="stroke:#181818;stroke-width:0.5;stroke-dasharray:7.0,7.0;"/><polygon fill="#181818" points="612.13,307.0605,607.63,305.0605,609.63,307.0605,607.63,309.0605,612.13,307.0605" style="stroke:#181818;stroke-width:0.5;"/></g><!--SRC=[pHV9RkCszAwl8D135BXsPgv1O42nazH5lC2EEyS1Gz4o9nAfabG2TwR_taTAiYX5afrE3xtOvDlvTbtijKxLzTLL6cEkioGU4P5SaHWhDGmPZYHEF4yp7LEqtNp-zFaJcXWScfOuIufMUwmekhcPYWGpFXwZxzuGFGeUeTHWPY5SBStJ8QKvp9nAw9Gg8bcgcU0ehCubUgEnpXHIzgy4hgXa8aIf_GFWcXAPCPrGhbTI40fMoGgKvY1lE1nw0wIepcKwYWErUWmMYxkfVzb9iLnyVLZE5Wyz99FbOlAudLenVzVSiwQfK4mBUG17LHVhh07O-fonEFGjwJK2ava-63KHrHQcSgNubJPfZchUks2EEOwe0MoeV6N4nAWu5Nf1_7kswTFo2zFxtyNpckwef9nGtxsWRyxbialA1qM8MqnU0lislp-O1QZtvV24hYSJmL-fr4y2QFu3JVrn_MdFz6Xk5fnBaLU7R49CMJAbRwoRntabcf820vOfvGmgzjlnQ7GphgdSOJ0hU5PQOg8D_tRstVi5qTYcbidCusKbBKSEIb9zc8EXa8CM40FhRnI79JvdMU24-d0DnMOltjowcMHAYuJAiz8uK8f5d8OJeQ2HKJaHq4gCiVuT-2WEmb0QdsMAIWuQMzIu_hov2Q98qWXhYjP2wCB59QaHZeXpCJYHf9WVp7CWnuvdmDGC88Lz-QEanPciT8JPKdT4k3wf8dMMLofoTIz5KdEERrF1VT8OuIul6fDsB8ROLYAjTtCXaW66uJ4YnIddQJ7R8CwjJYkxOXqxoTcGFzbZ7j7ZkA1gEmFHA_0u-0URtbp8Tv9sy3vf1ysa7TIJTb1Fsa5RqZOjcGYkfOXZcs11ciQCk0QPr8rZ9qx-vV-fByCxrlJFZCayqr9AsAvum4d6cV7gAwDlSyYYk9ySfhlKHVi_Vr2uEyPoDycaDEyqzrzH7GUfyCf4fYpI2LUGwRsGx2_xegwaZ4KKqP3nBJGFupvefWc3IX5S-Mi1oz5eD481iGlChPdr01jDjfkdvVnk_NKUB8A7ktLhDPpHSu3uFkEvy5rniEs6stviLohYN03tHSWNutFqLXm0LlQVgeGAIAwYtU60MsJ9CvL_O88vEI2U9VcHbNEZUtdhoXiOIqU4gc60QKDrhKWGhYv6unhp5oJXnxEhdAaUXy0_bRBjcTaQcjfWXuWhQ0J69pPIdGjSnT_OukeTS8ursSFPxRF-HakJ4iI1jOmfnwvJXbdBxCu8-sB9NzXJQbQtXsqn4ticPRK7L0gcMEFdVF6lMt7KMgfqbOCmxmA6jI2i2Ee5b0mZw3uMRrvR7n-DndrTrUlhk9QtQuquoTapR3_0Mvzu9ndFMEF_XOoJBFat7CGcxqVe4H-CRpjNi64etlXmt9AMVKmEWzUtoXZ2jbBy09FNkNCqwCxvRZ8iVLyPPmbfZuppk7E5D3ueVqBvnrH2TZYLNgH8QyTikBZv1MpGHSBrVb6rkntCc1tx4KlIV2NB9qXRU_e1qxdLokkAMtLojlJT6fzN_p8gc5hwM9thmcmUPa8Kewzr4Hb95ktrYVxdUVy0]--></g></svg>