<?xml version="1.0" encoding="UTF-8" standalone="no"?><svg xmlns="http://www.w3.org/2000/svg" xmlns:xlink="http://www.w3.org/1999/xlink" contentStyleType="text/css" height="1866px" preserveAspectRatio="none" style="width:1981px;height:1866px;background:#FFFFFF;" version="1.1" viewBox="0 0 1981 1866" width="1981px" zoomAndPan="magnify"><defs/><g><text fill="#000000" font-family="sans-serif" font-size="14" font-weight="bold" lengthAdjust="spacing" textLength="154" x="906.75" y="24.5332">US1003 Class Diagram</text><!--cluster <<Authentication_and_Users>>--><g id="cluster_&lt;&lt;Authentication_and_Users&gt;&gt;"><path d="M519,45.5039 L791,45.5039 A3.75,3.75 0 0 1 793.5,48.0039 L800.5,76.6602 L937,76.6602 A2.5,2.5 0 0 1 939.5,79.1602 L939.5,605.0039 A2.5,2.5 0 0 1 937,607.5039 L519,607.5039 A2.5,2.5 0 0 1 516.5,605.0039 L516.5,48.0039 A2.5,2.5 0 0 1 519,45.5039 " fill="none" style="stroke:#000000;stroke-width:1.5;"/><line style="stroke:#000000;stroke-width:1.5;" x1="516.5" x2="800.5" y1="76.6602" y2="76.6602"/><text fill="#000000" font-family="sans-serif" font-size="20" font-weight="bold" lengthAdjust="spacing" textLength="271" x="520.5" y="68.2656">«Authentication_and_Users»</text></g><!--class AuthenticationService--><g id="elem_AuthenticationService"><rect codeLine="51" fill="#F1F1F1" height="101.4688" id="AuthenticationService" rx="2.5" ry="2.5" style="stroke:#181818;stroke-width:0.5;" width="221" x="533" y="89.5039"/><ellipse cx="549" cy="132.2383" fill="#ADD1B2" rx="12" ry="12" style="stroke:#181818;stroke-width:1.0;"/><path d="M551.1406,127.1602 Q551.3281,126.9102 551.5469,126.7852 Q551.7656,126.6445 552.0156,126.6445 Q552.4531,126.6445 552.7344,126.957 Q553.0156,127.2539 553.0156,127.9727 L553.0156,129.6758 Q553.0156,130.3945 552.7344,130.707 Q552.4531,131.0195 552.0156,131.0195 Q551.625,131.0195 551.375,130.7852 Q551.125,130.5664 551.0156,129.957 Q550.9531,129.5352 550.7344,129.3164 Q550.3438,128.8789 549.625,128.6133 Q548.9063,128.3477 548.1875,128.3477 Q547.2813,128.3477 546.5313,128.7383 Q545.7813,129.1289 545.2031,130.0195 Q544.625,130.8945 544.625,132.0977 L544.625,133.3945 Q544.625,134.8477 545.6719,135.8164 Q546.7344,136.7852 548.5938,136.7852 Q549.7031,136.7852 550.4844,136.4727 Q550.9219,136.3008 551.4375,135.7852 Q551.75,135.4727 551.9219,135.3789 Q552.0938,135.2852 552.3281,135.2852 Q552.7188,135.2852 553.0156,135.5977 Q553.3281,135.8945 553.3281,136.3008 Q553.3281,136.707 552.9219,137.1758 Q552.3281,137.8633 551.3906,138.2539 Q550.125,138.7852 548.6094,138.7852 Q546.8281,138.7852 545.4063,138.0508 Q544.25,137.457 543.4375,136.1914 Q542.625,134.9258 542.625,133.4414 L542.625,132.082 Q542.625,130.5195 543.3438,129.1758 Q544.0781,127.8164 545.3594,127.082 Q546.6563,126.3477 548.1094,126.3477 Q548.9688,126.3477 549.7188,126.5508 Q550.4844,126.7539 551.1406,127.1602 Z " fill="#000000"/><text fill="#000000" font-family="sans-serif" font-size="20" font-style="italic" lengthAdjust="spacing" textLength="120" x="597.5" y="115.2656">«Application»</text><text fill="#000000" font-family="sans-serif" font-size="20" font-style="italic" lengthAdjust="spacing" textLength="89" x="613" y="140.4219">«Service»</text><text fill="#000000" font-family="sans-serif" font-size="20" lengthAdjust="spacing" textLength="187" x="564" y="165.5781">AuthenticationService</text><line style="stroke:#181818;stroke-width:0.5;" x1="534" x2="753" y1="174.9727" y2="174.9727"/><line style="stroke:#181818;stroke-width:0.5;" x1="534" x2="753" y1="182.9727" y2="182.9727"/></g><!--class Session--><g id="elem_Session"><rect codeLine="53" fill="#F1F1F1" height="101.4688" id="Session" rx="2.5" ry="2.5" style="stroke:#181818;stroke-width:0.5;" width="166" x="556.5" y="251.5039"/><ellipse cx="572.5" cy="294.2383" fill="#ADD1B2" rx="12" ry="12" style="stroke:#181818;stroke-width:1.0;"/><path d="M574.6406,289.1602 Q574.8281,288.9102 575.0469,288.7852 Q575.2656,288.6445 575.5156,288.6445 Q575.9531,288.6445 576.2344,288.957 Q576.5156,289.2539 576.5156,289.9727 L576.5156,291.6758 Q576.5156,292.3945 576.2344,292.707 Q575.9531,293.0195 575.5156,293.0195 Q575.125,293.0195 574.875,292.7852 Q574.625,292.5664 574.5156,291.957 Q574.4531,291.5352 574.2344,291.3164 Q573.8438,290.8789 573.125,290.6133 Q572.4063,290.3477 571.6875,290.3477 Q570.7813,290.3477 570.0313,290.7383 Q569.2813,291.1289 568.7031,292.0195 Q568.125,292.8945 568.125,294.0977 L568.125,295.3945 Q568.125,296.8477 569.1719,297.8164 Q570.2344,298.7852 572.0938,298.7852 Q573.2031,298.7852 573.9844,298.4727 Q574.4219,298.3008 574.9375,297.7852 Q575.25,297.4727 575.4219,297.3789 Q575.5938,297.2852 575.8281,297.2852 Q576.2188,297.2852 576.5156,297.5977 Q576.8281,297.8945 576.8281,298.3008 Q576.8281,298.707 576.4219,299.1758 Q575.8281,299.8633 574.8906,300.2539 Q573.625,300.7852 572.1094,300.7852 Q570.3281,300.7852 568.9063,300.0508 Q567.75,299.457 566.9375,298.1914 Q566.125,296.9258 566.125,295.4414 L566.125,294.082 Q566.125,292.5195 566.8438,291.1758 Q567.5781,289.8164 568.8594,289.082 Q570.1563,288.3477 571.6094,288.3477 Q572.4688,288.3477 573.2188,288.5508 Q573.9844,288.7539 574.6406,289.1602 Z " fill="#000000"/><text fill="#000000" font-family="sans-serif" font-size="20" font-style="italic" lengthAdjust="spacing" textLength="91" x="608" y="277.2656">«Domain»</text><text fill="#000000" font-family="sans-serif" font-size="20" font-style="italic" lengthAdjust="spacing" textLength="136" x="585.5" y="302.4219">«Value Object»</text><text fill="#000000" font-family="sans-serif" font-size="20" lengthAdjust="spacing" textLength="69" x="619" y="327.5781">Session</text><line style="stroke:#181818;stroke-width:0.5;" x1="557.5" x2="721.5" y1="336.9727" y2="336.9727"/><line style="stroke:#181818;stroke-width:0.5;" x1="557.5" x2="721.5" y1="344.9727" y2="344.9727"/></g><!--class SystemUser--><g id="elem_SystemUser"><rect codeLine="54" fill="#F1F1F1" height="101.4688" id="SystemUser" rx="2.5" ry="2.5" style="stroke:#181818;stroke-width:0.5;" width="190" x="532.5" y="465.0039"/><ellipse cx="548.5" cy="507.7383" fill="#ADD1B2" rx="12" ry="12" style="stroke:#181818;stroke-width:1.0;"/><path d="M550.6406,502.6602 Q550.8281,502.4102 551.0469,502.2852 Q551.2656,502.1445 551.5156,502.1445 Q551.9531,502.1445 552.2344,502.457 Q552.5156,502.7539 552.5156,503.4727 L552.5156,505.1758 Q552.5156,505.8945 552.2344,506.207 Q551.9531,506.5195 551.5156,506.5195 Q551.125,506.5195 550.875,506.2852 Q550.625,506.0664 550.5156,505.457 Q550.4531,505.0352 550.2344,504.8164 Q549.8438,504.3789 549.125,504.1133 Q548.4063,503.8477 547.6875,503.8477 Q546.7813,503.8477 546.0313,504.2383 Q545.2813,504.6289 544.7031,505.5195 Q544.125,506.3945 544.125,507.5977 L544.125,508.8945 Q544.125,510.3477 545.1719,511.3164 Q546.2344,512.2852 548.0938,512.2852 Q549.2031,512.2852 549.9844,511.9727 Q550.4219,511.8008 550.9375,511.2852 Q551.25,510.9727 551.4219,510.8789 Q551.5938,510.7852 551.8281,510.7852 Q552.2188,510.7852 552.5156,511.0977 Q552.8281,511.3945 552.8281,511.8008 Q552.8281,512.207 552.4219,512.6758 Q551.8281,513.3633 550.8906,513.7539 Q549.625,514.2852 548.1094,514.2852 Q546.3281,514.2852 544.9063,513.5508 Q543.75,512.957 542.9375,511.6914 Q542.125,510.4258 542.125,508.9414 L542.125,507.582 Q542.125,506.0195 542.8438,504.6758 Q543.5781,503.3164 544.8594,502.582 Q546.1563,501.8477 547.6094,501.8477 Q548.4688,501.8477 549.2188,502.0508 Q549.9844,502.2539 550.6406,502.6602 Z " fill="#000000"/><text fill="#000000" font-family="sans-serif" font-size="20" font-style="italic" lengthAdjust="spacing" textLength="91" x="596" y="490.7656">«Domain»</text><text fill="#000000" font-family="sans-serif" font-size="20" font-style="italic" lengthAdjust="spacing" textLength="160" x="561.5" y="515.9219">«Aggregate Root»</text><text fill="#000000" font-family="sans-serif" font-size="20" lengthAdjust="spacing" textLength="107" x="588" y="541.0781">SystemUser</text><line style="stroke:#181818;stroke-width:0.5;" x1="533.5" x2="721.5" y1="550.4727" y2="550.4727"/><line style="stroke:#181818;stroke-width:0.5;" x1="533.5" x2="721.5" y1="558.4727" y2="558.4727"/></g><!--class Username--><g id="elem_Username"><rect codeLine="55" fill="#F1F1F1" height="151.7813" id="Username" rx="2.5" ry="2.5" style="stroke:#181818;stroke-width:0.5;" width="166" x="757.5" y="439.5039"/><ellipse cx="773.5" cy="494.8164" fill="#ADD1B2" rx="12" ry="12" style="stroke:#181818;stroke-width:1.0;"/><path d="M775.6406,489.7383 Q775.8281,489.4883 776.0469,489.3633 Q776.2656,489.2227 776.5156,489.2227 Q776.9531,489.2227 777.2344,489.5352 Q777.5156,489.832 777.5156,490.5508 L777.5156,492.2539 Q777.5156,492.9727 777.2344,493.2852 Q776.9531,493.5977 776.5156,493.5977 Q776.125,493.5977 775.875,493.3633 Q775.625,493.1445 775.5156,492.5352 Q775.4531,492.1133 775.2344,491.8945 Q774.8438,491.457 774.125,491.1914 Q773.4063,490.9258 772.6875,490.9258 Q771.7813,490.9258 771.0313,491.3164 Q770.2813,491.707 769.7031,492.5977 Q769.125,493.4727 769.125,494.6758 L769.125,495.9727 Q769.125,497.4258 770.1719,498.3945 Q771.2344,499.3633 773.0938,499.3633 Q774.2031,499.3633 774.9844,499.0508 Q775.4219,498.8789 775.9375,498.3633 Q776.25,498.0508 776.4219,497.957 Q776.5938,497.8633 776.8281,497.8633 Q777.2188,497.8633 777.5156,498.1758 Q777.8281,498.4727 777.8281,498.8789 Q777.8281,499.2852 777.4219,499.7539 Q776.8281,500.4414 775.8906,500.832 Q774.625,501.3633 773.1094,501.3633 Q771.3281,501.3633 769.9063,500.6289 Q768.75,500.0352 767.9375,498.7695 Q767.125,497.5039 767.125,496.0195 L767.125,494.6602 Q767.125,493.0977 767.8438,491.7539 Q768.5781,490.3945 769.8594,489.6602 Q771.1563,488.9258 772.6094,488.9258 Q773.4688,488.9258 774.2188,489.1289 Q774.9844,489.332 775.6406,489.7383 Z " fill="#000000"/><text fill="#000000" font-family="sans-serif" font-size="20" font-style="italic" lengthAdjust="spacing" textLength="91" x="809" y="465.2656">«Domain»</text><text fill="#000000" font-family="sans-serif" font-size="20" font-style="italic" lengthAdjust="spacing" textLength="136" x="786.5" y="490.4219">«Value Object»</text><text fill="#000000" font-family="sans-serif" font-size="20" font-style="italic" lengthAdjust="spacing" textLength="41" x="834" y="515.5781">«ID»</text><text fill="#000000" font-family="sans-serif" font-size="20" lengthAdjust="spacing" textLength="89" x="810" y="540.7344">Username</text><line style="stroke:#181818;stroke-width:0.5;" x1="758.5" x2="922.5" y1="550.1289" y2="550.1289"/><rect fill="none" height="6" style="stroke:#C82930;stroke-width:1.0;" width="6" x="765.5" y="565.207"/><text fill="#000000" font-family="sans-serif" font-size="20" lengthAdjust="spacing" textLength="114" x="778.5" y="574.8906">value : String</text><line style="stroke:#181818;stroke-width:0.5;" x1="758.5" x2="922.5" y1="583.2852" y2="583.2852"/></g><!--class JobOpeningMapper--><g id="elem_JobOpeningMapper"><rect codeLine="6" fill="#F1F1F1" height="76.3125" id="JobOpeningMapper" rx="2.5" ry="2.5" style="stroke:#181818;stroke-width:0.5;" width="334" x="405.5" y="1305.5039"/><ellipse cx="481.5" cy="1323.082" fill="#ADD1B2" rx="12" ry="12" style="stroke:#181818;stroke-width:1.0;"/><path d="M483.6406,1318.0039 Q483.8281,1317.7539 484.0469,1317.6289 Q484.2656,1317.4883 484.5156,1317.4883 Q484.9531,1317.4883 485.2344,1317.8008 Q485.5156,1318.0977 485.5156,1318.8164 L485.5156,1320.5195 Q485.5156,1321.2383 485.2344,1321.5508 Q484.9531,1321.8633 484.5156,1321.8633 Q484.125,1321.8633 483.875,1321.6289 Q483.625,1321.4102 483.5156,1320.8008 Q483.4531,1320.3789 483.2344,1320.1602 Q482.8438,1319.7227 482.125,1319.457 Q481.4063,1319.1914 480.6875,1319.1914 Q479.7813,1319.1914 479.0313,1319.582 Q478.2813,1319.9727 477.7031,1320.8633 Q477.125,1321.7383 477.125,1322.9414 L477.125,1324.2383 Q477.125,1325.6914 478.1719,1326.6602 Q479.2344,1327.6289 481.0938,1327.6289 Q482.2031,1327.6289 482.9844,1327.3164 Q483.4219,1327.1445 483.9375,1326.6289 Q484.25,1326.3164 484.4219,1326.2227 Q484.5938,1326.1289 484.8281,1326.1289 Q485.2188,1326.1289 485.5156,1326.4414 Q485.8281,1326.7383 485.8281,1327.1445 Q485.8281,1327.5508 485.4219,1328.0195 Q484.8281,1328.707 483.8906,1329.0977 Q482.625,1329.6289 481.1094,1329.6289 Q479.3281,1329.6289 477.9063,1328.8945 Q476.75,1328.3008 475.9375,1327.0352 Q475.125,1325.7695 475.125,1324.2852 L475.125,1322.9258 Q475.125,1321.3633 475.8438,1320.0195 Q476.5781,1318.6602 477.8594,1317.9258 Q479.1563,1317.1914 480.6094,1317.1914 Q481.4688,1317.1914 482.2188,1317.3945 Q482.9844,1317.5977 483.6406,1318.0039 Z " fill="#000000"/><text fill="#000000" font-family="sans-serif" font-size="20" lengthAdjust="spacing" textLength="173" x="503.5" y="1331.2656">JobOpeningMapper</text><line style="stroke:#181818;stroke-width:0.5;" x1="406.5" x2="738.5" y1="1340.6602" y2="1340.6602"/><line style="stroke:#181818;stroke-width:0.5;" x1="406.5" x2="738.5" y1="1348.6602" y2="1348.6602"/><ellipse cx="416.5" cy="1366.7383" fill="#84BE84" rx="3" ry="3" style="stroke:#038048;stroke-width:1.0;"/><text fill="#000000" font-family="sans-serif" font-size="20" lengthAdjust="spacing" textLength="307" x="426.5" y="1373.4219">convertToDTO(JobOpening: entity)</text></g><!--class JobOpeningDTO--><g id="elem_JobOpeningDTO"><rect codeLine="10" fill="#F1F1F1" height="76.3125" id="JobOpeningDTO" rx="2.5" ry="2.5" style="stroke:#181818;stroke-width:0.5;" width="189" x="182" y="1657.5039"/><ellipse cx="201.6" cy="1675.082" fill="#ADD1B2" rx="12" ry="12" style="stroke:#181818;stroke-width:1.0;"/><path d="M203.7406,1670.0039 Q203.9281,1669.7539 204.1469,1669.6289 Q204.3656,1669.4883 204.6156,1669.4883 Q205.0531,1669.4883 205.3344,1669.8008 Q205.6156,1670.0977 205.6156,1670.8164 L205.6156,1672.5195 Q205.6156,1673.2383 205.3344,1673.5508 Q205.0531,1673.8633 204.6156,1673.8633 Q204.225,1673.8633 203.975,1673.6289 Q203.725,1673.4102 203.6156,1672.8008 Q203.5531,1672.3789 203.3344,1672.1602 Q202.9438,1671.7227 202.225,1671.457 Q201.5063,1671.1914 200.7875,1671.1914 Q199.8813,1671.1914 199.1313,1671.582 Q198.3813,1671.9727 197.8031,1672.8633 Q197.225,1673.7383 197.225,1674.9414 L197.225,1676.2383 Q197.225,1677.6914 198.2719,1678.6602 Q199.3344,1679.6289 201.1938,1679.6289 Q202.3031,1679.6289 203.0844,1679.3164 Q203.5219,1679.1445 204.0375,1678.6289 Q204.35,1678.3164 204.5219,1678.2227 Q204.6938,1678.1289 204.9281,1678.1289 Q205.3188,1678.1289 205.6156,1678.4414 Q205.9281,1678.7383 205.9281,1679.1445 Q205.9281,1679.5508 205.5219,1680.0195 Q204.9281,1680.707 203.9906,1681.0977 Q202.725,1681.6289 201.2094,1681.6289 Q199.4281,1681.6289 198.0063,1680.8945 Q196.85,1680.3008 196.0375,1679.0352 Q195.225,1677.7695 195.225,1676.2852 L195.225,1674.9258 Q195.225,1673.3633 195.9438,1672.0195 Q196.6781,1670.6602 197.9594,1669.9258 Q199.2563,1669.1914 200.7094,1669.1914 Q201.5688,1669.1914 202.3188,1669.3945 Q203.0844,1669.5977 203.7406,1670.0039 Z " fill="#000000"/><text fill="#000000" font-family="sans-serif" font-size="20" lengthAdjust="spacing" textLength="147" x="217.4" y="1683.2656">JobOpeningDTO</text><line style="stroke:#181818;stroke-width:0.5;" x1="183" x2="370" y1="1692.6602" y2="1692.6602"/><line style="stroke:#181818;stroke-width:0.5;" x1="183" x2="370" y1="1700.6602" y2="1700.6602"/><ellipse cx="193" cy="1718.7383" fill="#84BE84" rx="3" ry="3" style="stroke:#038048;stroke-width:1.0;"/><text fill="#000000" font-family="sans-serif" font-size="20" lengthAdjust="spacing" textLength="162" x="203" y="1725.4219">create(e: element)</text></g><!--class CriteriaMapper--><g id="elem_CriteriaMapper"><rect codeLine="14" fill="#F1F1F1" height="76.3125" id="CriteriaMapper" rx="2.5" ry="2.5" style="stroke:#181818;stroke-width:0.5;" width="194" x="196.5" y="905.0039"/><ellipse cx="225.1" cy="922.582" fill="#ADD1B2" rx="12" ry="12" style="stroke:#181818;stroke-width:1.0;"/><path d="M227.2406,917.5039 Q227.4281,917.2539 227.6469,917.1289 Q227.8656,916.9883 228.1156,916.9883 Q228.5531,916.9883 228.8344,917.3008 Q229.1156,917.5977 229.1156,918.3164 L229.1156,920.0195 Q229.1156,920.7383 228.8344,921.0508 Q228.5531,921.3633 228.1156,921.3633 Q227.725,921.3633 227.475,921.1289 Q227.225,920.9102 227.1156,920.3008 Q227.0531,919.8789 226.8344,919.6602 Q226.4438,919.2227 225.725,918.957 Q225.0063,918.6914 224.2875,918.6914 Q223.3813,918.6914 222.6313,919.082 Q221.8813,919.4727 221.3031,920.3633 Q220.725,921.2383 220.725,922.4414 L220.725,923.7383 Q220.725,925.1914 221.7719,926.1602 Q222.8344,927.1289 224.6938,927.1289 Q225.8031,927.1289 226.5844,926.8164 Q227.0219,926.6445 227.5375,926.1289 Q227.85,925.8164 228.0219,925.7227 Q228.1938,925.6289 228.4281,925.6289 Q228.8188,925.6289 229.1156,925.9414 Q229.4281,926.2383 229.4281,926.6445 Q229.4281,927.0508 229.0219,927.5195 Q228.4281,928.207 227.4906,928.5977 Q226.225,929.1289 224.7094,929.1289 Q222.9281,929.1289 221.5063,928.3945 Q220.35,927.8008 219.5375,926.5352 Q218.725,925.2695 218.725,923.7852 L218.725,922.4258 Q218.725,920.8633 219.4438,919.5195 Q220.1781,918.1602 221.4594,917.4258 Q222.7563,916.6914 224.2094,916.6914 Q225.0688,916.6914 225.8188,916.8945 Q226.5844,917.0977 227.2406,917.5039 Z " fill="#000000"/><text fill="#000000" font-family="sans-serif" font-size="20" lengthAdjust="spacing" textLength="132" x="242.9" y="930.7656">CriteriaMapper</text><line style="stroke:#181818;stroke-width:0.5;" x1="197.5" x2="389.5" y1="940.1602" y2="940.1602"/><line style="stroke:#181818;stroke-width:0.5;" x1="197.5" x2="389.5" y1="948.1602" y2="948.1602"/><ellipse cx="207.5" cy="966.2383" fill="#84BE84" rx="3" ry="3" style="stroke:#038048;stroke-width:1.0;"/><text fill="#000000" font-family="sans-serif" font-size="20" lengthAdjust="spacing" textLength="167" x="217.5" y="972.9219">convertToDTO(list)</text></g><!--class CriteriaDTO--><g id="elem_CriteriaDTO"><rect codeLine="18" fill="#F1F1F1" height="76.3125" id="CriteriaDTO" rx="2.5" ry="2.5" style="stroke:#181818;stroke-width:0.5;" width="179" x="94" y="1080.0039"/><ellipse cx="127.55" cy="1097.582" fill="#ADD1B2" rx="12" ry="12" style="stroke:#181818;stroke-width:1.0;"/><path d="M129.6906,1092.5039 Q129.8781,1092.2539 130.0969,1092.1289 Q130.3156,1091.9883 130.5656,1091.9883 Q131.0031,1091.9883 131.2844,1092.3008 Q131.5656,1092.5977 131.5656,1093.3164 L131.5656,1095.0195 Q131.5656,1095.7383 131.2844,1096.0508 Q131.0031,1096.3633 130.5656,1096.3633 Q130.175,1096.3633 129.925,1096.1289 Q129.675,1095.9102 129.5656,1095.3008 Q129.5031,1094.8789 129.2844,1094.6602 Q128.8938,1094.2227 128.175,1093.957 Q127.4563,1093.6914 126.7375,1093.6914 Q125.8313,1093.6914 125.0813,1094.082 Q124.3313,1094.4727 123.7531,1095.3633 Q123.175,1096.2383 123.175,1097.4414 L123.175,1098.7383 Q123.175,1100.1914 124.2219,1101.1602 Q125.2844,1102.1289 127.1438,1102.1289 Q128.2531,1102.1289 129.0344,1101.8164 Q129.4719,1101.6445 129.9875,1101.1289 Q130.3,1100.8164 130.4719,1100.7227 Q130.6438,1100.6289 130.8781,1100.6289 Q131.2688,1100.6289 131.5656,1100.9414 Q131.8781,1101.2383 131.8781,1101.6445 Q131.8781,1102.0508 131.4719,1102.5195 Q130.8781,1103.207 129.9406,1103.5977 Q128.675,1104.1289 127.1594,1104.1289 Q125.3781,1104.1289 123.9563,1103.3945 Q122.8,1102.8008 121.9875,1101.5352 Q121.175,1100.2695 121.175,1098.7852 L121.175,1097.4258 Q121.175,1095.8633 121.8938,1094.5195 Q122.6281,1093.1602 123.9094,1092.4258 Q125.2063,1091.6914 126.6594,1091.6914 Q127.5188,1091.6914 128.2688,1091.8945 Q129.0344,1092.0977 129.6906,1092.5039 Z " fill="#000000"/><text fill="#000000" font-family="sans-serif" font-size="20" lengthAdjust="spacing" textLength="106" x="146.45" y="1105.7656">CriteriaDTO</text><line style="stroke:#181818;stroke-width:0.5;" x1="95" x2="272" y1="1115.1602" y2="1115.1602"/><line style="stroke:#181818;stroke-width:0.5;" x1="95" x2="272" y1="1123.1602" y2="1123.1602"/><ellipse cx="105" cy="1141.2383" fill="#84BE84" rx="3" ry="3" style="stroke:#038048;stroke-width:1.0;"/><text fill="#000000" font-family="sans-serif" font-size="20" lengthAdjust="spacing" textLength="152" x="115" y="1147.9219">create() : Criteria</text></g><!--class ListCriteriaDTOService--><g id="elem_ListCriteriaDTOService"><rect codeLine="22" fill="#F1F1F1" height="101.4688" id="ListCriteriaDTOService" rx="2.5" ry="2.5" style="stroke:#181818;stroke-width:0.5;" width="236" x="175.5" y="692.5039"/><ellipse cx="191.5" cy="722.6602" fill="#ADD1B2" rx="12" ry="12" style="stroke:#181818;stroke-width:1.0;"/><path d="M193.6406,717.582 Q193.8281,717.332 194.0469,717.207 Q194.2656,717.0664 194.5156,717.0664 Q194.9531,717.0664 195.2344,717.3789 Q195.5156,717.6758 195.5156,718.3945 L195.5156,720.0977 Q195.5156,720.8164 195.2344,721.1289 Q194.9531,721.4414 194.5156,721.4414 Q194.125,721.4414 193.875,721.207 Q193.625,720.9883 193.5156,720.3789 Q193.4531,719.957 193.2344,719.7383 Q192.8438,719.3008 192.125,719.0352 Q191.4063,718.7695 190.6875,718.7695 Q189.7813,718.7695 189.0313,719.1602 Q188.2813,719.5508 187.7031,720.4414 Q187.125,721.3164 187.125,722.5195 L187.125,723.8164 Q187.125,725.2695 188.1719,726.2383 Q189.2344,727.207 191.0938,727.207 Q192.2031,727.207 192.9844,726.8945 Q193.4219,726.7227 193.9375,726.207 Q194.25,725.8945 194.4219,725.8008 Q194.5938,725.707 194.8281,725.707 Q195.2188,725.707 195.5156,726.0195 Q195.8281,726.3164 195.8281,726.7227 Q195.8281,727.1289 195.4219,727.5977 Q194.8281,728.2852 193.8906,728.6758 Q192.625,729.207 191.1094,729.207 Q189.3281,729.207 187.9063,728.4727 Q186.75,727.8789 185.9375,726.6133 Q185.125,725.3477 185.125,723.8633 L185.125,722.5039 Q185.125,720.9414 185.8438,719.5977 Q186.5781,718.2383 187.8594,717.5039 Q189.1563,716.7695 190.6094,716.7695 Q191.4688,716.7695 192.2188,716.9727 Q192.9844,717.1758 193.6406,717.582 Z " fill="#000000"/><text fill="#000000" font-family="sans-serif" font-size="20" font-style="italic" lengthAdjust="spacing" textLength="89" x="263" y="718.2656">«Service»</text><text fill="#000000" font-family="sans-serif" font-size="20" lengthAdjust="spacing" textLength="202" x="206.5" y="743.4219">ListCriteriaDTOService</text><line style="stroke:#181818;stroke-width:0.5;" x1="176.5" x2="410.5" y1="752.8164" y2="752.8164"/><line style="stroke:#181818;stroke-width:0.5;" x1="176.5" x2="410.5" y1="760.8164" y2="760.8164"/><ellipse cx="186.5" cy="778.8945" fill="#84BE84" rx="3" ry="3" style="stroke:#038048;stroke-width:1.0;"/><text fill="#000000" font-family="sans-serif" font-size="20" lengthAdjust="spacing" textLength="164" x="196.5" y="785.5781">toDTO(criteriaList)</text></g><!--class ListJobOpeningDTOService--><g id="elem_ListJobOpeningDTOService"><rect codeLine="26" fill="#F1F1F1" height="101.4688" id="ListJobOpeningDTOService" rx="2.5" ry="2.5" style="stroke:#181818;stroke-width:0.5;" width="277" x="431" y="892.5039"/><ellipse cx="447" cy="922.6602" fill="#ADD1B2" rx="12" ry="12" style="stroke:#181818;stroke-width:1.0;"/><path d="M449.1406,917.582 Q449.3281,917.332 449.5469,917.207 Q449.7656,917.0664 450.0156,917.0664 Q450.4531,917.0664 450.7344,917.3789 Q451.0156,917.6758 451.0156,918.3945 L451.0156,920.0977 Q451.0156,920.8164 450.7344,921.1289 Q450.4531,921.4414 450.0156,921.4414 Q449.625,921.4414 449.375,921.207 Q449.125,920.9883 449.0156,920.3789 Q448.9531,919.957 448.7344,919.7383 Q448.3438,919.3008 447.625,919.0352 Q446.9063,918.7695 446.1875,918.7695 Q445.2813,918.7695 444.5313,919.1602 Q443.7813,919.5508 443.2031,920.4414 Q442.625,921.3164 442.625,922.5195 L442.625,923.8164 Q442.625,925.2695 443.6719,926.2383 Q444.7344,927.207 446.5938,927.207 Q447.7031,927.207 448.4844,926.8945 Q448.9219,926.7227 449.4375,926.207 Q449.75,925.8945 449.9219,925.8008 Q450.0938,925.707 450.3281,925.707 Q450.7188,925.707 451.0156,926.0195 Q451.3281,926.3164 451.3281,926.7227 Q451.3281,927.1289 450.9219,927.5977 Q450.3281,928.2852 449.3906,928.6758 Q448.125,929.207 446.6094,929.207 Q444.8281,929.207 443.4063,928.4727 Q442.25,927.8789 441.4375,926.6133 Q440.625,925.3477 440.625,923.8633 L440.625,922.5039 Q440.625,920.9414 441.3438,919.5977 Q442.0781,918.2383 443.3594,917.5039 Q444.6563,916.7695 446.1094,916.7695 Q446.9688,916.7695 447.7188,916.9727 Q448.4844,917.1758 449.1406,917.582 Z " fill="#000000"/><text fill="#000000" font-family="sans-serif" font-size="20" font-style="italic" lengthAdjust="spacing" textLength="89" x="539" y="918.2656">«Service»</text><text fill="#000000" font-family="sans-serif" font-size="20" lengthAdjust="spacing" textLength="243" x="462" y="943.4219">ListJobOpeningDTOService</text><line style="stroke:#181818;stroke-width:0.5;" x1="432" x2="707" y1="952.8164" y2="952.8164"/><line style="stroke:#181818;stroke-width:0.5;" x1="432" x2="707" y1="960.8164" y2="960.8164"/><ellipse cx="442" cy="978.8945" fill="#84BE84" rx="3" ry="3" style="stroke:#038048;stroke-width:1.0;"/><text fill="#000000" font-family="sans-serif" font-size="20" lengthAdjust="spacing" textLength="203" x="452" y="985.5781">toDTO(jobOpeningList)</text></g><!--class ListJobOpeningUI--><g id="elem_ListJobOpeningUI"><rect codeLine="32" fill="#F1F1F1" height="101.4688" id="ListJobOpeningUI" rx="2.5" ry="2.5" style="stroke:#181818;stroke-width:0.5;" width="189" x="7" y="251.5039"/><ellipse cx="23" cy="281.6602" fill="#ADD1B2" rx="12" ry="12" style="stroke:#181818;stroke-width:1.0;"/><path d="M25.1406,276.582 Q25.3281,276.332 25.5469,276.207 Q25.7656,276.0664 26.0156,276.0664 Q26.4531,276.0664 26.7344,276.3789 Q27.0156,276.6758 27.0156,277.3945 L27.0156,279.0977 Q27.0156,279.8164 26.7344,280.1289 Q26.4531,280.4414 26.0156,280.4414 Q25.625,280.4414 25.375,280.207 Q25.125,279.9883 25.0156,279.3789 Q24.9531,278.957 24.7344,278.7383 Q24.3438,278.3008 23.625,278.0352 Q22.9063,277.7695 22.1875,277.7695 Q21.2813,277.7695 20.5313,278.1602 Q19.7813,278.5508 19.2031,279.4414 Q18.625,280.3164 18.625,281.5195 L18.625,282.8164 Q18.625,284.2695 19.6719,285.2383 Q20.7344,286.207 22.5938,286.207 Q23.7031,286.207 24.4844,285.8945 Q24.9219,285.7227 25.4375,285.207 Q25.75,284.8945 25.9219,284.8008 Q26.0938,284.707 26.3281,284.707 Q26.7188,284.707 27.0156,285.0195 Q27.3281,285.3164 27.3281,285.7227 Q27.3281,286.1289 26.9219,286.5977 Q26.3281,287.2852 25.3906,287.6758 Q24.125,288.207 22.6094,288.207 Q20.8281,288.207 19.4063,287.4727 Q18.25,286.8789 17.4375,285.6133 Q16.625,284.3477 16.625,282.8633 L16.625,281.5039 Q16.625,279.9414 17.3438,278.5977 Q18.0781,277.2383 19.3594,276.5039 Q20.6563,275.7695 22.1094,275.7695 Q22.9688,275.7695 23.7188,275.9727 Q24.4844,276.1758 25.1406,276.582 Z " fill="#000000"/><text fill="#000000" font-family="sans-serif" font-size="20" font-style="italic" lengthAdjust="spacing" textLength="133" x="49" y="277.2656">«Presentation»</text><text fill="#000000" font-family="sans-serif" font-size="20" lengthAdjust="spacing" textLength="155" x="38" y="302.4219">ListJobOpeningUI</text><line style="stroke:#181818;stroke-width:0.5;" x1="8" x2="195" y1="311.8164" y2="311.8164"/><line style="stroke:#181818;stroke-width:0.5;" x1="8" x2="195" y1="319.8164" y2="319.8164"/><ellipse cx="18" cy="337.8945" fill="#84BE84" rx="3" ry="3" style="stroke:#038048;stroke-width:1.0;"/><text fill="#000000" font-family="sans-serif" font-size="20" lengthAdjust="spacing" textLength="85" x="28" y="344.5781">doShow()</text></g><!--class ListJobOpeningController--><g id="elem_ListJobOpeningController"><rect codeLine="37" fill="#F1F1F1" height="126.625" id="ListJobOpeningController" rx="2.5" ry="2.5" style="stroke:#181818;stroke-width:0.5;" width="255" x="242" y="452.0039"/><ellipse cx="258" cy="482.1602" fill="#ADD1B2" rx="12" ry="12" style="stroke:#181818;stroke-width:1.0;"/><path d="M260.1406,477.082 Q260.3281,476.832 260.5469,476.707 Q260.7656,476.5664 261.0156,476.5664 Q261.4531,476.5664 261.7344,476.8789 Q262.0156,477.1758 262.0156,477.8945 L262.0156,479.5977 Q262.0156,480.3164 261.7344,480.6289 Q261.4531,480.9414 261.0156,480.9414 Q260.625,480.9414 260.375,480.707 Q260.125,480.4883 260.0156,479.8789 Q259.9531,479.457 259.7344,479.2383 Q259.3438,478.8008 258.625,478.5352 Q257.9063,478.2695 257.1875,478.2695 Q256.2813,478.2695 255.5313,478.6602 Q254.7813,479.0508 254.2031,479.9414 Q253.625,480.8164 253.625,482.0195 L253.625,483.3164 Q253.625,484.7695 254.6719,485.7383 Q255.7344,486.707 257.5938,486.707 Q258.7031,486.707 259.4844,486.3945 Q259.9219,486.2227 260.4375,485.707 Q260.75,485.3945 260.9219,485.3008 Q261.0938,485.207 261.3281,485.207 Q261.7188,485.207 262.0156,485.5195 Q262.3281,485.8164 262.3281,486.2227 Q262.3281,486.6289 261.9219,487.0977 Q261.3281,487.7852 260.3906,488.1758 Q259.125,488.707 257.6094,488.707 Q255.8281,488.707 254.4063,487.9727 Q253.25,487.3789 252.4375,486.1133 Q251.625,484.8477 251.625,483.3633 L251.625,482.0039 Q251.625,480.4414 252.3438,479.0977 Q253.0781,477.7383 254.3594,477.0039 Q255.6563,476.2695 257.1094,476.2695 Q257.9688,476.2695 258.7188,476.4727 Q259.4844,476.6758 260.1406,477.082 Z " fill="#000000"/><text fill="#000000" font-family="sans-serif" font-size="20" font-style="italic" lengthAdjust="spacing" textLength="120" x="323.5" y="477.7656">«Application»</text><text fill="#000000" font-family="sans-serif" font-size="20" lengthAdjust="spacing" textLength="221" x="273" y="502.9219">ListJobOpeningController</text><line style="stroke:#181818;stroke-width:0.5;" x1="243" x2="496" y1="512.3164" y2="512.3164"/><line style="stroke:#181818;stroke-width:0.5;" x1="243" x2="496" y1="520.3164" y2="520.3164"/><ellipse cx="253" cy="538.3945" fill="#84BE84" rx="3" ry="3" style="stroke:#038048;stroke-width:1.0;"/><text fill="#000000" font-family="sans-serif" font-size="20" lengthAdjust="spacing" textLength="106" x="263" y="545.0781">getCriteria()</text><ellipse cx="253" cy="563.5508" fill="#84BE84" rx="3" ry="3" style="stroke:#038048;stroke-width:1.0;"/><text fill="#000000" font-family="sans-serif" font-size="20" lengthAdjust="spacing" textLength="178" x="263" y="570.2344">getJobOpeningList()</text></g><!--class Criteria--><g id="elem_Criteria"><rect codeLine="44" fill="#F1F1F1" height="126.625" id="Criteria" rx="2.5" ry="2.5" style="stroke:#181818;stroke-width:0.5;" width="211" x="308" y="1054.5039"/><ellipse cx="365.5" cy="1084.6602" fill="#ADD1B2" rx="12" ry="12" style="stroke:#181818;stroke-width:1.0;"/><path d="M367.6406,1079.582 Q367.8281,1079.332 368.0469,1079.207 Q368.2656,1079.0664 368.5156,1079.0664 Q368.9531,1079.0664 369.2344,1079.3789 Q369.5156,1079.6758 369.5156,1080.3945 L369.5156,1082.0977 Q369.5156,1082.8164 369.2344,1083.1289 Q368.9531,1083.4414 368.5156,1083.4414 Q368.125,1083.4414 367.875,1083.207 Q367.625,1082.9883 367.5156,1082.3789 Q367.4531,1081.957 367.2344,1081.7383 Q366.8438,1081.3008 366.125,1081.0352 Q365.4063,1080.7695 364.6875,1080.7695 Q363.7813,1080.7695 363.0313,1081.1602 Q362.2813,1081.5508 361.7031,1082.4414 Q361.125,1083.3164 361.125,1084.5195 L361.125,1085.8164 Q361.125,1087.2695 362.1719,1088.2383 Q363.2344,1089.207 365.0938,1089.207 Q366.2031,1089.207 366.9844,1088.8945 Q367.4219,1088.7227 367.9375,1088.207 Q368.25,1087.8945 368.4219,1087.8008 Q368.5938,1087.707 368.8281,1087.707 Q369.2188,1087.707 369.5156,1088.0195 Q369.8281,1088.3164 369.8281,1088.7227 Q369.8281,1089.1289 369.4219,1089.5977 Q368.8281,1090.2852 367.8906,1090.6758 Q366.625,1091.207 365.1094,1091.207 Q363.3281,1091.207 361.9063,1090.4727 Q360.75,1089.8789 359.9375,1088.6133 Q359.125,1087.3477 359.125,1085.8633 L359.125,1084.5039 Q359.125,1082.9414 359.8438,1081.5977 Q360.5781,1080.2383 361.8594,1079.5039 Q363.1563,1078.7695 364.6094,1078.7695 Q365.4688,1078.7695 366.2188,1078.9727 Q366.9844,1079.1758 367.6406,1079.582 Z " fill="#000000"/><text fill="#000000" font-family="sans-serif" font-size="20" font-style="italic" lengthAdjust="spacing" textLength="91" x="385.5" y="1080.2656">«Domain»</text><text fill="#000000" font-family="sans-serif" font-size="20" lengthAdjust="spacing" textLength="64" x="399" y="1105.4219">Criteria</text><line style="stroke:#181818;stroke-width:0.5;" x1="309" x2="518" y1="1114.8164" y2="1114.8164"/><rect fill="none" height="6" style="stroke:#C82930;stroke-width:1.0;" width="6" x="316" y="1129.8945"/><text fill="#000000" font-family="sans-serif" font-size="20" lengthAdjust="spacing" textLength="184" x="329" y="1139.5781">denomination : String</text><rect fill="none" height="6" style="stroke:#C82930;stroke-width:1.0;" width="6" x="316" y="1155.0508"/><text fill="#000000" font-family="sans-serif" font-size="20" lengthAdjust="spacing" textLength="134" x="329" y="1164.7344">value : Boolean</text><line style="stroke:#181818;stroke-width:0.5;" x1="309" x2="518" y1="1173.1289" y2="1173.1289"/></g><!--class CostumerManager--><g id="elem_CostumerManager"><rect codeLine="60" fill="#F1F1F1" height="101.4688" id="CostumerManager" rx="2.5" ry="2.5" style="stroke:#181818;stroke-width:0.5;" width="197" x="303" y="251.5039"/><ellipse cx="319" cy="294.2383" fill="#ADD1B2" rx="12" ry="12" style="stroke:#181818;stroke-width:1.0;"/><path d="M321.1406,289.1602 Q321.3281,288.9102 321.5469,288.7852 Q321.7656,288.6445 322.0156,288.6445 Q322.4531,288.6445 322.7344,288.957 Q323.0156,289.2539 323.0156,289.9727 L323.0156,291.6758 Q323.0156,292.3945 322.7344,292.707 Q322.4531,293.0195 322.0156,293.0195 Q321.625,293.0195 321.375,292.7852 Q321.125,292.5664 321.0156,291.957 Q320.9531,291.5352 320.7344,291.3164 Q320.3438,290.8789 319.625,290.6133 Q318.9063,290.3477 318.1875,290.3477 Q317.2813,290.3477 316.5313,290.7383 Q315.7813,291.1289 315.2031,292.0195 Q314.625,292.8945 314.625,294.0977 L314.625,295.3945 Q314.625,296.8477 315.6719,297.8164 Q316.7344,298.7852 318.5938,298.7852 Q319.7031,298.7852 320.4844,298.4727 Q320.9219,298.3008 321.4375,297.7852 Q321.75,297.4727 321.9219,297.3789 Q322.0938,297.2852 322.3281,297.2852 Q322.7188,297.2852 323.0156,297.5977 Q323.3281,297.8945 323.3281,298.3008 Q323.3281,298.707 322.9219,299.1758 Q322.3281,299.8633 321.3906,300.2539 Q320.125,300.7852 318.6094,300.7852 Q316.8281,300.7852 315.4063,300.0508 Q314.25,299.457 313.4375,298.1914 Q312.625,296.9258 312.625,295.4414 L312.625,294.082 Q312.625,292.5195 313.3438,291.1758 Q314.0781,289.8164 315.3594,289.082 Q316.6563,288.3477 318.1094,288.3477 Q318.9688,288.3477 319.7188,288.5508 Q320.4844,288.7539 321.1406,289.1602 Z " fill="#000000"/><text fill="#000000" font-family="sans-serif" font-size="20" font-style="italic" lengthAdjust="spacing" textLength="91" x="370" y="277.2656">«Domain»</text><text fill="#000000" font-family="sans-serif" font-size="20" font-style="italic" lengthAdjust="spacing" textLength="160" x="335.5" y="302.4219">«Aggregate Root»</text><text fill="#000000" font-family="sans-serif" font-size="20" lengthAdjust="spacing" textLength="163" x="334" y="327.5781">CostumerManager</text><line style="stroke:#181818;stroke-width:0.5;" x1="304" x2="499" y1="336.9727" y2="336.9727"/><line style="stroke:#181818;stroke-width:0.5;" x1="304" x2="499" y1="344.9727" y2="344.9727"/></g><!--class JobOpening--><g id="elem_JobOpening"><rect codeLine="62" fill="#F1F1F1" height="327.875" id="JobOpening" rx="2.5" ry="2.5" style="stroke:#181818;stroke-width:0.5;" width="342" x="631.5" y="1531.5039"/><ellipse cx="720" cy="1574.2383" fill="#ADD1B2" rx="12" ry="12" style="stroke:#181818;stroke-width:1.0;"/><path d="M722.1406,1569.1602 Q722.3281,1568.9102 722.5469,1568.7852 Q722.7656,1568.6445 723.0156,1568.6445 Q723.4531,1568.6445 723.7344,1568.957 Q724.0156,1569.2539 724.0156,1569.9727 L724.0156,1571.6758 Q724.0156,1572.3945 723.7344,1572.707 Q723.4531,1573.0195 723.0156,1573.0195 Q722.625,1573.0195 722.375,1572.7852 Q722.125,1572.5664 722.0156,1571.957 Q721.9531,1571.5352 721.7344,1571.3164 Q721.3438,1570.8789 720.625,1570.6133 Q719.9063,1570.3477 719.1875,1570.3477 Q718.2813,1570.3477 717.5313,1570.7383 Q716.7813,1571.1289 716.2031,1572.0195 Q715.625,1572.8945 715.625,1574.0977 L715.625,1575.3945 Q715.625,1576.8477 716.6719,1577.8164 Q717.7344,1578.7852 719.5938,1578.7852 Q720.7031,1578.7852 721.4844,1578.4727 Q721.9219,1578.3008 722.4375,1577.7852 Q722.75,1577.4727 722.9219,1577.3789 Q723.0938,1577.2852 723.3281,1577.2852 Q723.7188,1577.2852 724.0156,1577.5977 Q724.3281,1577.8945 724.3281,1578.3008 Q724.3281,1578.707 723.9219,1579.1758 Q723.3281,1579.8633 722.3906,1580.2539 Q721.125,1580.7852 719.6094,1580.7852 Q717.8281,1580.7852 716.4063,1580.0508 Q715.25,1579.457 714.4375,1578.1914 Q713.625,1576.9258 713.625,1575.4414 L713.625,1574.082 Q713.625,1572.5195 714.3438,1571.1758 Q715.0781,1569.8164 716.3594,1569.082 Q717.6563,1568.3477 719.1094,1568.3477 Q719.9688,1568.3477 720.7188,1568.5508 Q721.4844,1568.7539 722.1406,1569.1602 Z " fill="#000000"/><text fill="#000000" font-family="sans-serif" font-size="20" font-style="italic" lengthAdjust="spacing" textLength="91" x="774.5" y="1557.2656">«Domain»</text><text fill="#000000" font-family="sans-serif" font-size="20" font-style="italic" lengthAdjust="spacing" textLength="160" x="740" y="1582.4219">«Aggregate Root»</text><text fill="#000000" font-family="sans-serif" font-size="20" lengthAdjust="spacing" textLength="105" x="767.5" y="1607.5781">JobOpening</text><line style="stroke:#181818;stroke-width:0.5;" x1="632.5" x2="972.5" y1="1616.9727" y2="1616.9727"/><rect fill="none" height="6" style="stroke:#C82930;stroke-width:1.0;" width="6" x="639.5" y="1632.0508"/><text fill="#000000" font-family="sans-serif" font-size="20" lengthAdjust="spacing" textLength="136" x="652.5" y="1641.7344">function : String</text><rect fill="none" height="6" style="stroke:#C82930;stroke-width:1.0;" width="6" x="639.5" y="1657.207"/><text fill="#000000" font-family="sans-serif" font-size="20" lengthAdjust="spacing" textLength="252" x="652.5" y="1666.8906">contractType : ContractType</text><rect fill="none" height="6" style="stroke:#C82930;stroke-width:1.0;" width="6" x="639.5" y="1682.3633"/><text fill="#000000" font-family="sans-serif" font-size="20" lengthAdjust="spacing" textLength="208" x="652.5" y="1692.0469">workMode : WorkMode</text><rect fill="none" height="6" style="stroke:#C82930;stroke-width:1.0;" width="6" x="639.5" y="1707.5195"/><text fill="#000000" font-family="sans-serif" font-size="20" lengthAdjust="spacing" textLength="243" x="652.5" y="1717.2031">companyAddress : Address</text><rect fill="none" height="6" style="stroke:#C82930;stroke-width:1.0;" width="6" x="639.5" y="1732.6758"/><text fill="#000000" font-family="sans-serif" font-size="20" lengthAdjust="spacing" textLength="197" x="652.5" y="1742.3594">costumerCode : String</text><rect fill="none" height="6" style="stroke:#C82930;stroke-width:1.0;" width="6" x="639.5" y="1757.832"/><text fill="#000000" font-family="sans-serif" font-size="20" lengthAdjust="spacing" textLength="199" x="652.5" y="1767.5156">companyName : String</text><rect fill="none" height="6" style="stroke:#C82930;stroke-width:1.0;" width="6" x="639.5" y="1782.9883"/><text fill="#000000" font-family="sans-serif" font-size="20" lengthAdjust="spacing" textLength="206" x="652.5" y="1792.6719">numVacancies : Integer</text><rect fill="none" height="6" style="stroke:#C82930;stroke-width:1.0;" width="6" x="639.5" y="1808.1445"/><text fill="#000000" font-family="sans-serif" font-size="20" lengthAdjust="spacing" textLength="164" x="652.5" y="1817.8281">description : String</text><rect fill="none" height="6" style="stroke:#C82930;stroke-width:1.0;" width="6" x="639.5" y="1833.3008"/><text fill="#000000" font-family="sans-serif" font-size="20" lengthAdjust="spacing" textLength="315" x="652.5" y="1842.9844">requirementsSpecificationsFile : File</text><line style="stroke:#181818;stroke-width:0.5;" x1="632.5" x2="972.5" y1="1851.3789" y2="1851.3789"/></g><!--class Entity--><g id="elem_Entity"><rect codeLine="75" fill="#F1F1F1" height="202.0938" id="Entity" rx="2.5" ry="2.5" style="stroke:#181818;stroke-width:0.5;" width="226" x="855.5" y="1242.5039"/><ellipse cx="887.7" cy="1285.2383" fill="#ADD1B2" rx="12" ry="12" style="stroke:#181818;stroke-width:1.0;"/><path d="M889.8406,1280.1602 Q890.0281,1279.9102 890.2469,1279.7852 Q890.4656,1279.6445 890.7156,1279.6445 Q891.1531,1279.6445 891.4344,1279.957 Q891.7156,1280.2539 891.7156,1280.9727 L891.7156,1282.6758 Q891.7156,1283.3945 891.4344,1283.707 Q891.1531,1284.0195 890.7156,1284.0195 Q890.325,1284.0195 890.075,1283.7852 Q889.825,1283.5664 889.7156,1282.957 Q889.6531,1282.5352 889.4344,1282.3164 Q889.0438,1281.8789 888.325,1281.6133 Q887.6063,1281.3477 886.8875,1281.3477 Q885.9813,1281.3477 885.2313,1281.7383 Q884.4813,1282.1289 883.9031,1283.0195 Q883.325,1283.8945 883.325,1285.0977 L883.325,1286.3945 Q883.325,1287.8477 884.3719,1288.8164 Q885.4344,1289.7852 887.2938,1289.7852 Q888.4031,1289.7852 889.1844,1289.4727 Q889.6219,1289.3008 890.1375,1288.7852 Q890.45,1288.4727 890.6219,1288.3789 Q890.7938,1288.2852 891.0281,1288.2852 Q891.4188,1288.2852 891.7156,1288.5977 Q892.0281,1288.8945 892.0281,1289.3008 Q892.0281,1289.707 891.6219,1290.1758 Q891.0281,1290.8633 890.0906,1291.2539 Q888.825,1291.7852 887.3094,1291.7852 Q885.5281,1291.7852 884.1063,1291.0508 Q882.95,1290.457 882.1375,1289.1914 Q881.325,1287.9258 881.325,1286.4414 L881.325,1285.082 Q881.325,1283.5195 882.0438,1282.1758 Q882.7781,1280.8164 884.0594,1280.082 Q885.3563,1279.3477 886.8094,1279.3477 Q887.6688,1279.3477 888.4188,1279.5508 Q889.1844,1279.7539 889.8406,1280.1602 Z " fill="#000000"/><text fill="#000000" font-family="sans-serif" font-size="20" font-style="italic" lengthAdjust="spacing" textLength="160" x="904.3" y="1268.2656">«Aggregate Root»</text><text fill="#000000" font-family="sans-serif" font-size="20" font-style="italic" lengthAdjust="spacing" textLength="71" x="948.8" y="1293.4219">«Entity»</text><text fill="#000000" font-family="sans-serif" font-size="20" lengthAdjust="spacing" textLength="49" x="959.8" y="1318.5781">Entity</text><line style="stroke:#181818;stroke-width:0.5;" x1="856.5" x2="1080.5" y1="1327.9727" y2="1327.9727"/><rect fill="none" height="6" style="stroke:#C82930;stroke-width:1.0;" width="6" x="863.5" y="1343.0508"/><text fill="#000000" font-family="sans-serif" font-size="20" lengthAdjust="spacing" textLength="199" x="876.5" y="1352.7344">companyName : String</text><rect fill="none" height="6" style="stroke:#C82930;stroke-width:1.0;" width="6" x="863.5" y="1368.207"/><text fill="#000000" font-family="sans-serif" font-size="20" lengthAdjust="spacing" textLength="197" x="876.5" y="1377.8906">costumerCode : String</text><line style="stroke:#181818;stroke-width:0.5;" x1="856.5" x2="1080.5" y1="1386.2852" y2="1386.2852"/><ellipse cx="866.5" cy="1404.3633" fill="#84BE84" rx="3" ry="3" style="stroke:#038048;stroke-width:1.0;"/><text fill="#000000" font-family="sans-serif" font-size="20" lengthAdjust="spacing" textLength="144" x="876.5" y="1411.0469">companyName()</text><ellipse cx="866.5" cy="1429.5195" fill="#84BE84" rx="3" ry="3" style="stroke:#038048;stroke-width:1.0;"/><text fill="#000000" font-family="sans-serif" font-size="20" lengthAdjust="spacing" textLength="142" x="876.5" y="1436.2031">costumerCode()</text></g><!--class JobOpeningRepository--><g id="elem_JobOpeningRepository"><rect codeLine="83" fill="#F1F1F1" height="176.9375" id="JobOpeningRepository" rx="2.5" ry="2.5" style="stroke:#181818;stroke-width:0.5;" width="575" x="518" y="654.5039"/><ellipse cx="701" cy="697.2383" fill="#ADD1B2" rx="12" ry="12" style="stroke:#181818;stroke-width:1.0;"/><path d="M703.1406,692.1602 Q703.3281,691.9102 703.5469,691.7852 Q703.7656,691.6445 704.0156,691.6445 Q704.4531,691.6445 704.7344,691.957 Q705.0156,692.2539 705.0156,692.9727 L705.0156,694.6758 Q705.0156,695.3945 704.7344,695.707 Q704.4531,696.0195 704.0156,696.0195 Q703.625,696.0195 703.375,695.7852 Q703.125,695.5664 703.0156,694.957 Q702.9531,694.5352 702.7344,694.3164 Q702.3438,693.8789 701.625,693.6133 Q700.9063,693.3477 700.1875,693.3477 Q699.2813,693.3477 698.5313,693.7383 Q697.7813,694.1289 697.2031,695.0195 Q696.625,695.8945 696.625,697.0977 L696.625,698.3945 Q696.625,699.8477 697.6719,700.8164 Q698.7344,701.7852 700.5938,701.7852 Q701.7031,701.7852 702.4844,701.4727 Q702.9219,701.3008 703.4375,700.7852 Q703.75,700.4727 703.9219,700.3789 Q704.0938,700.2852 704.3281,700.2852 Q704.7188,700.2852 705.0156,700.5977 Q705.3281,700.8945 705.3281,701.3008 Q705.3281,701.707 704.9219,702.1758 Q704.3281,702.8633 703.3906,703.2539 Q702.125,703.7852 700.6094,703.7852 Q698.8281,703.7852 697.4063,703.0508 Q696.25,702.457 695.4375,701.1914 Q694.625,699.9258 694.625,698.4414 L694.625,697.082 Q694.625,695.5195 695.3438,694.1758 Q696.0781,692.8164 697.3594,692.082 Q698.6563,691.3477 700.1094,691.3477 Q700.9688,691.3477 701.7188,691.5508 Q702.4844,691.7539 703.1406,692.1602 Z " fill="#000000"/><text fill="#000000" font-family="sans-serif" font-size="20" font-style="italic" lengthAdjust="spacing" textLength="126" x="760" y="680.2656">«Persistence»</text><text fill="#000000" font-family="sans-serif" font-size="20" font-style="italic" lengthAdjust="spacing" textLength="117" x="764.5" y="705.4219">«Repository»</text><text fill="#000000" font-family="sans-serif" font-size="20" lengthAdjust="spacing" textLength="200" x="723" y="730.5781">JobOpeningRepository</text><line style="stroke:#181818;stroke-width:0.5;" x1="519" x2="1092" y1="739.9727" y2="739.9727"/><line style="stroke:#181818;stroke-width:0.5;" x1="519" x2="1092" y1="747.9727" y2="747.9727"/><ellipse cx="529" cy="766.0508" fill="#84BE84" rx="3" ry="3" style="stroke:#038048;stroke-width:1.0;"/><text fill="#000000" font-family="sans-serif" font-size="20" lengthAdjust="spacing" textLength="236" x="539" y="772.7344">rebuild(JobOpening: entity)</text><ellipse cx="529" cy="791.207" fill="#84BE84" rx="3" ry="3" style="stroke:#038048;stroke-width:1.0;"/><text fill="#000000" font-family="sans-serif" font-size="20" lengthAdjust="spacing" textLength="548" x="539" y="797.8906">getJobOpeningsFromCompaniesNames(companiesNamesList)</text><ellipse cx="529" cy="816.3633" fill="#84BE84" rx="3" ry="3" style="stroke:#038048;stroke-width:1.0;"/><text fill="#000000" font-family="sans-serif" font-size="20" lengthAdjust="spacing" textLength="248" x="539" y="823.0469">filterJobOpeningList(criteria)</text></g><!--class CostumerRepository--><g id="elem_CostumerRepository"><rect codeLine="89" fill="#F1F1F1" height="151.7813" id="CostumerRepository" rx="2.5" ry="2.5" style="stroke:#181818;stroke-width:0.5;" width="408" x="1566.5" y="439.5039"/><ellipse cx="1676" cy="482.2383" fill="#ADD1B2" rx="12" ry="12" style="stroke:#181818;stroke-width:1.0;"/><path d="M1678.1406,477.1602 Q1678.3281,476.9102 1678.5469,476.7852 Q1678.7656,476.6445 1679.0156,476.6445 Q1679.4531,476.6445 1679.7344,476.957 Q1680.0156,477.2539 1680.0156,477.9727 L1680.0156,479.6758 Q1680.0156,480.3945 1679.7344,480.707 Q1679.4531,481.0195 1679.0156,481.0195 Q1678.625,481.0195 1678.375,480.7852 Q1678.125,480.5664 1678.0156,479.957 Q1677.9531,479.5352 1677.7344,479.3164 Q1677.3438,478.8789 1676.625,478.6133 Q1675.9063,478.3477 1675.1875,478.3477 Q1674.2813,478.3477 1673.5313,478.7383 Q1672.7813,479.1289 1672.2031,480.0195 Q1671.625,480.8945 1671.625,482.0977 L1671.625,483.3945 Q1671.625,484.8477 1672.6719,485.8164 Q1673.7344,486.7852 1675.5938,486.7852 Q1676.7031,486.7852 1677.4844,486.4727 Q1677.9219,486.3008 1678.4375,485.7852 Q1678.75,485.4727 1678.9219,485.3789 Q1679.0938,485.2852 1679.3281,485.2852 Q1679.7188,485.2852 1680.0156,485.5977 Q1680.3281,485.8945 1680.3281,486.3008 Q1680.3281,486.707 1679.9219,487.1758 Q1679.3281,487.8633 1678.3906,488.2539 Q1677.125,488.7852 1675.6094,488.7852 Q1673.8281,488.7852 1672.4063,488.0508 Q1671.25,487.457 1670.4375,486.1914 Q1669.625,484.9258 1669.625,483.4414 L1669.625,482.082 Q1669.625,480.5195 1670.3438,479.1758 Q1671.0781,477.8164 1672.3594,477.082 Q1673.6563,476.3477 1675.1094,476.3477 Q1675.9688,476.3477 1676.7188,476.5508 Q1677.4844,476.7539 1678.1406,477.1602 Z " fill="#000000"/><text fill="#000000" font-family="sans-serif" font-size="20" font-style="italic" lengthAdjust="spacing" textLength="126" x="1725" y="465.2656">«Persistence»</text><text fill="#000000" font-family="sans-serif" font-size="20" font-style="italic" lengthAdjust="spacing" textLength="117" x="1729.5" y="490.4219">«Repository»</text><text fill="#000000" font-family="sans-serif" font-size="20" lengthAdjust="spacing" textLength="180" x="1698" y="515.5781">CostumerRepository</text><line style="stroke:#181818;stroke-width:0.5;" x1="1567.5" x2="1973.5" y1="524.9727" y2="524.9727"/><line style="stroke:#181818;stroke-width:0.5;" x1="1567.5" x2="1973.5" y1="532.9727" y2="532.9727"/><ellipse cx="1577.5" cy="551.0508" fill="#84BE84" rx="3" ry="3" style="stroke:#038048;stroke-width:1.0;"/><text fill="#000000" font-family="sans-serif" font-size="20" lengthAdjust="spacing" textLength="199" x="1587.5" y="557.7344">save(Costumer: entity)</text><ellipse cx="1577.5" cy="576.207" fill="#84BE84" rx="3" ry="3" style="stroke:#038048;stroke-width:1.0;"/><text fill="#000000" font-family="sans-serif" font-size="20" lengthAdjust="spacing" textLength="381" x="1587.5" y="582.8906">getAssignedCostumerCodesList(username)</text></g><!--class EntityRepository--><g id="elem_EntityRepository"><rect codeLine="94" fill="#F1F1F1" height="151.7813" id="EntityRepository" rx="2.5" ry="2.5" style="stroke:#181818;stroke-width:0.5;" width="401" x="959" y="439.5039"/><ellipse cx="1083" cy="482.2383" fill="#ADD1B2" rx="12" ry="12" style="stroke:#181818;stroke-width:1.0;"/><path d="M1085.1406,477.1602 Q1085.3281,476.9102 1085.5469,476.7852 Q1085.7656,476.6445 1086.0156,476.6445 Q1086.4531,476.6445 1086.7344,476.957 Q1087.0156,477.2539 1087.0156,477.9727 L1087.0156,479.6758 Q1087.0156,480.3945 1086.7344,480.707 Q1086.4531,481.0195 1086.0156,481.0195 Q1085.625,481.0195 1085.375,480.7852 Q1085.125,480.5664 1085.0156,479.957 Q1084.9531,479.5352 1084.7344,479.3164 Q1084.3438,478.8789 1083.625,478.6133 Q1082.9063,478.3477 1082.1875,478.3477 Q1081.2813,478.3477 1080.5313,478.7383 Q1079.7813,479.1289 1079.2031,480.0195 Q1078.625,480.8945 1078.625,482.0977 L1078.625,483.3945 Q1078.625,484.8477 1079.6719,485.8164 Q1080.7344,486.7852 1082.5938,486.7852 Q1083.7031,486.7852 1084.4844,486.4727 Q1084.9219,486.3008 1085.4375,485.7852 Q1085.75,485.4727 1085.9219,485.3789 Q1086.0938,485.2852 1086.3281,485.2852 Q1086.7188,485.2852 1087.0156,485.5977 Q1087.3281,485.8945 1087.3281,486.3008 Q1087.3281,486.707 1086.9219,487.1758 Q1086.3281,487.8633 1085.3906,488.2539 Q1084.125,488.7852 1082.6094,488.7852 Q1080.8281,488.7852 1079.4063,488.0508 Q1078.25,487.457 1077.4375,486.1914 Q1076.625,484.9258 1076.625,483.4414 L1076.625,482.082 Q1076.625,480.5195 1077.3438,479.1758 Q1078.0781,477.8164 1079.3594,477.082 Q1080.6563,476.3477 1082.1094,476.3477 Q1082.9688,476.3477 1083.7188,476.5508 Q1084.4844,476.7539 1085.1406,477.1602 Z " fill="#000000"/><text fill="#000000" font-family="sans-serif" font-size="20" font-style="italic" lengthAdjust="spacing" textLength="126" x="1114" y="465.2656">«Persistence»</text><text fill="#000000" font-family="sans-serif" font-size="20" font-style="italic" lengthAdjust="spacing" textLength="117" x="1118.5" y="490.4219">«Repository»</text><text fill="#000000" font-family="sans-serif" font-size="20" lengthAdjust="spacing" textLength="144" x="1105" y="515.5781">EntityRepository</text><line style="stroke:#181818;stroke-width:0.5;" x1="960" x2="1359" y1="524.9727" y2="524.9727"/><line style="stroke:#181818;stroke-width:0.5;" x1="960" x2="1359" y1="532.9727" y2="532.9727"/><ellipse cx="970" cy="551.0508" fill="#84BE84" rx="3" ry="3" style="stroke:#038048;stroke-width:1.0;"/><text fill="#000000" font-family="sans-serif" font-size="20" lengthAdjust="spacing" textLength="127" x="980" y="557.7344">save(e: Entity)</text><ellipse cx="970" cy="576.207" fill="#84BE84" rx="3" ry="3" style="stroke:#038048;stroke-width:1.0;"/><text fill="#000000" font-family="sans-serif" font-size="20" lengthAdjust="spacing" textLength="374" x="980" y="582.8906">getEntityByCostumerCode(costumerCode)</text></g><!--class RepositoryDatabase--><g id="elem_RepositoryDatabase"><rect codeLine="99" fill="#F1F1F1" height="101.4688" id="RepositoryDatabase" rx="2.5" ry="2.5" style="stroke:#181818;stroke-width:0.5;" width="213" x="1324" y="251.5039"/><ellipse cx="1340" cy="281.6602" fill="#B4A7E5" rx="12" ry="12" style="stroke:#181818;stroke-width:1.0;"/><path d="M1341,277.832 L1341,285.6602 L1343.0313,285.6602 Q1343.75,285.6602 1344.0469,285.9414 Q1344.3594,286.207 1344.3594,286.6602 Q1344.3594,287.0977 1344.0469,287.3789 Q1343.75,287.6602 1343.0313,287.6602 L1336.9844,287.6602 Q1336.25,287.6602 1335.9375,287.3789 Q1335.6406,287.0977 1335.6406,286.6602 Q1335.6406,286.207 1335.9375,285.9414 Q1336.25,285.6602 1336.9844,285.6602 L1339,285.6602 L1339,277.832 L1336.9844,277.832 Q1336.25,277.832 1335.9375,277.5508 Q1335.6406,277.2695 1335.6406,276.8164 Q1335.6406,276.3633 1335.9375,276.0977 Q1336.25,275.8164 1336.9844,275.8164 L1343.0313,275.8164 Q1343.75,275.8164 1344.0469,276.0977 Q1344.3594,276.3633 1344.3594,276.8164 Q1344.3594,277.2695 1344.0469,277.5508 Q1343.75,277.832 1343.0313,277.832 L1341,277.832 Z " fill="#000000"/><text fill="#000000" font-family="sans-serif" font-size="20" font-style="italic" lengthAdjust="spacing" textLength="126" x="1381.5" y="277.2656">«Persistence»</text><text fill="#000000" font-family="sans-serif" font-size="20" font-style="italic" lengthAdjust="spacing" textLength="179" x="1355" y="302.4219">RepositoryDatabase</text><line style="stroke:#181818;stroke-width:0.5;" x1="1325" x2="1536" y1="311.8164" y2="311.8164"/><line style="stroke:#181818;stroke-width:0.5;" x1="1325" x2="1536" y1="319.8164" y2="319.8164"/><ellipse cx="1335" cy="337.8945" fill="#84BE84" rx="3" ry="3" style="stroke:#038048;stroke-width:1.0;"/><text fill="#000000" font-family="sans-serif" font-size="20" lengthAdjust="spacing" textLength="165" x="1345" y="344.5781">save(Entity: Entity)</text></g><!--link CostumerManager to ListJobOpeningController--><g id="link_CostumerManager_ListJobOpeningController"><path codeLine="106" d="M394,352.5939 C389.75,380.6339 384.39,416.1139 379.76,446.6939 " fill="none" id="CostumerManager-to-ListJobOpeningController" style="stroke:#181818;stroke-width:1.0;stroke-dasharray:7.0,7.0;"/><polygon fill="#181818" points="378.96,451.9539,384.2532,443.6483,379.7031,447.0094,376.342,442.4594,378.96,451.9539" style="stroke:#181818;stroke-width:1.0;"/></g><!--link ListJobOpeningUI to ListJobOpeningController--><g id="link_ListJobOpeningUI_ListJobOpeningController"><path codeLine="107" d="M156.13,352.6439 C176.87,370.9539 200.92,391.5939 223.5,409.5039 C239.96,422.5639 257.86,436.0139 275.3,448.7439 " fill="none" id="ListJobOpeningUI-to-ListJobOpeningController" style="stroke:#181818;stroke-width:1.0;stroke-dasharray:7.0,7.0;"/><polygon fill="#181818" points="279.72,451.9639,274.7976,443.4333,275.6776,449.0213,270.0896,449.9013,279.72,451.9639" style="stroke:#181818;stroke-width:1.0;"/></g><!--link ListJobOpeningController to CostumerRepository--><g id="link_ListJobOpeningController_CostumerRepository"><path codeLine="108" d="M436.89,451.7739 C464.74,429.6139 498.75,407.4539 534,396.0039 C638.41,362.0839 1414.97,371.6039 1522,396.0039 C1560.3,404.7339 1599.59,420.1439 1635.28,437.0639 " fill="none" id="ListJobOpeningController-to-CostumerRepository" style="stroke:#181818;stroke-width:1.0;stroke-dasharray:7.0,7.0;"/><polygon fill="#181818" points="1640.07,439.3539,1633.6741,431.8644,1635.5586,437.1981,1630.2249,439.0827,1640.07,439.3539" style="stroke:#181818;stroke-width:1.0;"/></g><!--link ListJobOpeningController to EntityRepository--><g id="link_ListJobOpeningController_EntityRepository"><path codeLine="109" d="M436.89,451.7739 C464.74,429.6139 498.75,407.4539 534,396.0039 C698.01,342.7239 754.22,356.1739 922,396.0039 C958.86,404.7539 996.49,420.1739 1030.61,437.0839 " fill="none" id="ListJobOpeningController-to-EntityRepository" style="stroke:#181818;stroke-width:1.0;stroke-dasharray:7.0,7.0;"/><polygon fill="#181818" points="1035.19,439.3739,1028.9387,431.7633,1030.7207,437.1321,1025.3519,438.9141,1035.19,439.3739" style="stroke:#181818;stroke-width:1.0;"/></g><!--link ListJobOpeningController to JobOpeningRepository--><g id="link_ListJobOpeningController_JobOpeningRepository"><path codeLine="110" d="M456.89,579.0939 C476.13,591.8139 496.68,604.6139 516.5,615.5039 C539.54,628.1739 564.11,640.5339 588.81,652.2639 " fill="none" id="ListJobOpeningController-to-JobOpeningRepository" style="stroke:#181818;stroke-width:1.0;stroke-dasharray:7.0,7.0;"/><polygon fill="#181818" points="593.43,654.4539,587.0148,646.9809,588.9131,652.3098,583.5842,654.208,593.43,654.4539" style="stroke:#181818;stroke-width:1.0;"/></g><!--link Entity to JobOpening--><g id="link_Entity_JobOpening"><path codeLine="113" d="M920.93,1444.8039 C908.8,1470.3839 895.42,1498.5939 882.15,1526.5639 " fill="none" id="Entity-to-JobOpening" style="stroke:#181818;stroke-width:1.0;"/><polygon fill="#181818" points="879.85,1531.4239,887.323,1525.0087,881.9941,1526.907,880.0959,1521.5781,879.85,1531.4239" style="stroke:#181818;stroke-width:1.0;"/><text fill="#000000" font-family="sans-serif" font-size="20" lengthAdjust="spacing" textLength="52" x="905.5" y="1496.2656">sends</text><text fill="#000000" font-family="sans-serif" font-size="20" lengthAdjust="spacing" textLength="31" x="851.6526" y="1519.1907">1..*</text></g><!--link JobOpeningRepository to JobOpening--><g id="link_JobOpeningRepository_JobOpening"><path codeLine="116" d="M803.6,831.7239 C803,866.1139 802.5,905.9039 802.5,942.0039 C802.5,942.0039 802.5,942.0039 802.5,1344.5039 C802.5,1403.6339 802.5,1468.3839 802.5,1525.9439 " fill="none" id="JobOpeningRepository-to-JobOpening" style="stroke:#181818;stroke-width:1.0;stroke-dasharray:7.0,7.0;"/><polygon fill="#181818" points="802.5,1531.1339,806.5,1522.1339,802.5,1526.1339,798.5,1522.1339,802.5,1531.1339" style="stroke:#181818;stroke-width:1.0;"/><text fill="#000000" font-family="sans-serif" font-size="20" lengthAdjust="spacing" textLength="68" x="803.5" y="1126.2656">rebuilds</text></g><!--reverse link RepositoryDatabase to JobOpeningRepository--><g id="link_RepositoryDatabase_JobOpeningRepository"><path codeLine="119" d="M1439.2,372.7839 C1443.83,443.3939 1438.82,551.0539 1377.5,615.5039 C1336.62,658.4639 1214.27,688.5439 1093.17,708.5539 " fill="none" id="RepositoryDatabase-backto-JobOpeningRepository" style="stroke:#181818;stroke-width:1.0;stroke-dasharray:7.0,7.0;"/><polygon fill="none" points="1432.2,373.1039,1437.54,352.5939,1446.15,371.9539,1432.2,373.1039" style="stroke:#181818;stroke-width:1.0;"/><text fill="#000000" font-family="sans-serif" font-size="20" lengthAdjust="spacing" textLength="99" x="1440.5" y="523.7656">implements</text></g><!--reverse link RepositoryDatabase to CostumerRepository--><g id="link_RepositoryDatabase_CostumerRepository"><path codeLine="120" d="M1527.25,363.1939 C1565.35,386.8839 1609.51,414.3539 1649.66,439.3339 " fill="none" id="RepositoryDatabase-backto-CostumerRepository" style="stroke:#181818;stroke-width:1.0;stroke-dasharray:7.0,7.0;"/><polygon fill="none" points="1523.5,369.1039,1510.21,352.5939,1530.89,357.2139,1523.5,369.1039" style="stroke:#181818;stroke-width:1.0;"/><text fill="#000000" font-family="sans-serif" font-size="20" lengthAdjust="spacing" textLength="99" x="1601.5" y="404.2656">implements</text></g><!--reverse link RepositoryDatabase to EntityRepository--><g id="link_RepositoryDatabase_EntityRepository"><path codeLine="121" d="M1329.59,363.7739 C1320.62,369.8939 1311.8,376.1839 1303.5,382.5039 C1280.83,399.7539 1257.54,419.9039 1236.46,439.1839 " fill="none" id="RepositoryDatabase-backto-EntityRepository" style="stroke:#181818;stroke-width:1.0;stroke-dasharray:7.0,7.0;"/><polygon fill="none" points="1325.84,357.8639,1346.37,352.6239,1333.59,369.5239,1325.84,357.8639" style="stroke:#181818;stroke-width:1.0;"/><text fill="#000000" font-family="sans-serif" font-size="20" lengthAdjust="spacing" textLength="99" x="1304.5" y="404.2656">implements</text></g><!--link JobOpeningMapper to JobOpeningDTO--><g id="link_JobOpeningMapper_JobOpeningDTO"><path codeLine="124" d="M541.1,1381.6239 C485.3,1447.6039 369.28,1584.7939 311.2,1653.4739 " fill="none" id="JobOpeningMapper-to-JobOpeningDTO" style="stroke:#181818;stroke-width:1.0;stroke-dasharray:7.0,7.0;"/><polygon fill="#181818" points="307.8,1657.4939,316.6677,1653.2087,311.0304,1653.6775,310.5615,1648.0401,307.8,1657.4939" style="stroke:#181818;stroke-width:1.0;"/></g><!--link CriteriaMapper to CriteriaDTO--><g id="link_CriteriaMapper_CriteriaDTO"><path codeLine="125" d="M269.9,981.1139 C252.29,1008.8239 228.2,1046.6939 209.94,1075.4239 " fill="none" id="CriteriaMapper-to-CriteriaDTO" style="stroke:#181818;stroke-width:1.0;stroke-dasharray:7.0,7.0;"/><polygon fill="#181818" points="207.06,1079.9539,215.2618,1074.5013,209.7407,1075.7333,208.5087,1070.2122,207.06,1079.9539" style="stroke:#181818;stroke-width:1.0;"/></g><!--link CriteriaMapper to Criteria--><g id="link_CriteriaMapper_Criteria"><path codeLine="126" d="M319.24,981.1139 C333.18,1001.2139 350.83,1026.6539 367.08,1050.0739 " fill="none" id="CriteriaMapper-to-Criteria" style="stroke:#181818;stroke-width:1.0;stroke-dasharray:7.0,7.0;"/><polygon fill="#181818" points="370.09,1054.4239,368.2489,1044.7487,367.241,1050.315,361.6746,1049.3071,370.09,1054.4239" style="stroke:#181818;stroke-width:1.0;"/></g><!--link ListCriteriaDTOService to CriteriaMapper--><g id="link_ListCriteriaDTOService_CriteriaMapper"><path codeLine="127" d="M293.5,793.7139 C293.5,826.3039 293.5,868.4739 293.5,899.5039 " fill="none" id="ListCriteriaDTOService-to-CriteriaMapper" style="stroke:#181818;stroke-width:1.0;stroke-dasharray:7.0,7.0;"/><polygon fill="#181818" points="293.5,904.7739,297.5,895.7739,293.5,899.7739,289.5,895.7739,293.5,904.7739" style="stroke:#181818;stroke-width:1.0;"/></g><!--link ListJobOpeningController to ListCriteriaDTOService--><g id="link_ListJobOpeningController_ListCriteriaDTOService"><path codeLine="128" d="M348.43,579.0139 C336.96,613.0539 322.9,654.7739 311.87,687.4839 " fill="none" id="ListJobOpeningController-to-ListCriteriaDTOService" style="stroke:#181818;stroke-width:1.0;stroke-dasharray:7.0,7.0;"/><polygon fill="#181818" points="310.27,692.2439,316.937,684.9947,311.8683,687.5062,309.3567,682.4375,310.27,692.2439" style="stroke:#181818;stroke-width:1.0;"/></g><!--link ListJobOpeningController to ListJobOpeningDTOService--><g id="link_ListJobOpeningController_ListJobOpeningDTOService"><path codeLine="129" d="M396.61,579.2639 C406.71,602.8239 418.22,629.8539 428.5,654.5039 C461.19,732.8839 461.87,755.8739 500.5,831.5039 C510.17,850.4439 522.05,870.3739 533.21,888.0239 " fill="none" id="ListJobOpeningController-to-ListJobOpeningDTOService" style="stroke:#181818;stroke-width:1.0;stroke-dasharray:7.0,7.0;"/><polygon fill="#181818" points="536.03,892.4539,534.5664,882.7144,533.3428,888.2374,527.8199,887.0139,536.03,892.4539" style="stroke:#181818;stroke-width:1.0;"/></g><!--link ListJobOpeningDTOService to JobOpeningMapper--><g id="link_ListJobOpeningDTOService_JobOpeningMapper"><path codeLine="130" d="M569.87,993.6639 C570.47,1072.7239 571.62,1225.8139 572.18,1300.0739 " fill="none" id="ListJobOpeningDTOService-to-JobOpeningMapper" style="stroke:#181818;stroke-width:1.0;stroke-dasharray:7.0,7.0;"/><polygon fill="#181818" points="572.22,1305.2739,576.1427,1296.24,572.1771,1300.2741,568.143,1296.3085,572.22,1305.2739" style="stroke:#181818;stroke-width:1.0;"/></g><!--link JobOpeningMapper to JobOpening--><g id="link_JobOpeningMapper_JobOpening"><path codeLine="131" d="M596.9,1381.6239 C620.05,1416.8639 656.55,1472.4139 692.41,1526.9839 " fill="none" id="JobOpeningMapper-to-JobOpening" style="stroke:#181818;stroke-width:1.0;stroke-dasharray:7.0,7.0;"/><polygon fill="#181818" points="695.22,1531.2439,693.6176,1521.5263,692.473,1527.0661,686.9331,1525.9215,695.22,1531.2439" style="stroke:#181818;stroke-width:1.0;"/></g><!--link ListJobOpeningUI to JobOpeningDTO--><g id="link_ListJobOpeningUI_JobOpeningDTO"><path codeLine="132" d="M78.61,352.6939 C61.3,394.8339 40.5,457.3739 40.5,514.5039 C40.5,514.5039 40.5,514.5039 40.5,1344.5039 C40.5,1475.4639 155.48,1594.1239 224.93,1653.8539 " fill="none" id="ListJobOpeningUI-to-JobOpeningDTO" style="stroke:#181818;stroke-width:1.0;stroke-dasharray:7.0,7.0;"/><polygon fill="#181818" points="229.03,1657.3539,224.7806,1648.469,225.2267,1654.1082,219.5874,1654.5543,229.03,1657.3539" style="stroke:#181818;stroke-width:1.0;"/></g><!--link ListJobOpeningUI to CriteriaDTO--><g id="link_ListJobOpeningUI_CriteriaDTO"><path codeLine="133" d="M107.78,352.9139 C112.62,395.7139 118.5,459.0639 118.5,514.5039 C118.5,514.5039 118.5,514.5039 118.5,944.0039 C118.5,991.1339 139.9,1041.1439 158.15,1075.2039 " fill="none" id="ListJobOpeningUI-to-CriteriaDTO" style="stroke:#181818;stroke-width:1.0;stroke-dasharray:7.0,7.0;"/><polygon fill="#181818" points="160.58,1079.6939,159.8065,1069.8755,158.1967,1075.2984,152.7738,1073.6887,160.58,1079.6939" style="stroke:#181818;stroke-width:1.0;"/></g><!--link Session to SystemUser--><g id="link_Session_SystemUser"><path codeLine="136" d="M636.69,352.5939 C634.87,384.6939 632.49,426.5239 630.61,459.6239 " fill="none" id="Session-to-SystemUser" style="stroke:#181818;stroke-width:1.0;"/><polygon fill="#181818" points="630.32,464.8639,634.802,456.094,630.591,459.8713,626.8137,455.6603,630.32,464.8639" style="stroke:#181818;stroke-width:1.0;"/></g><!--link SystemUser to Username--><g id="link_SystemUser_Username"><path codeLine="137" d="M722.77,515.5039 C732.56,515.5039 742.35,515.5039 752.14,515.5039 " fill="none" id="SystemUser-to-Username" style="stroke:#181818;stroke-width:1.0;"/><polygon fill="#181818" points="757.26,515.5039,748.26,511.5039,752.26,515.5039,748.26,519.5039,757.26,515.5039" style="stroke:#181818;stroke-width:1.0;"/></g><!--link AuthenticationService to Username--><g id="link_AuthenticationService_Username"><path codeLine="138" d="M693.74,190.5539 C710.18,208.6339 727.53,229.9639 740.5,251.5039 C775.11,308.9839 801.36,380.4939 818.27,434.4339 " fill="none" id="AuthenticationService-to-Username" style="stroke:#181818;stroke-width:1.0;stroke-dasharray:7.0,7.0;"/><polygon fill="#181818" points="819.78,439.2739,820.9235,429.4917,818.2935,434.5,813.2852,431.87,819.78,439.2739" style="stroke:#181818;stroke-width:1.0;"/></g><!--link AuthenticationService to Session--><g id="link_AuthenticationService_Session"><path codeLine="139" d="M642.26,190.7539 C641.82,208.3639 641.32,228.2639 640.87,246.2639 " fill="none" id="AuthenticationService-to-Session" style="stroke:#181818;stroke-width:1.0;stroke-dasharray:7.0,7.0;"/><polygon fill="#181818" points="640.74,251.2839,644.97,242.3897,640.8685,246.2856,636.9727,242.1841,640.74,251.2839" style="stroke:#181818;stroke-width:1.0;"/></g><!--link AuthenticationService to ListJobOpeningController--><g id="link_AuthenticationService_ListJobOpeningController"><path codeLine="140" d="M532.91,160.3639 C439.15,179.2939 315.29,211.1339 285.5,251.5039 C242.51,309.7639 279.5,390.8439 317.06,447.5339 " fill="none" id="AuthenticationService-to-ListJobOpeningController" style="stroke:#181818;stroke-width:1.0;stroke-dasharray:7.0,7.0;"/><polygon fill="#181818" points="319.99,451.9139,318.2874,442.2133,317.2,447.7647,311.6487,446.6773,319.99,451.9139" style="stroke:#181818;stroke-width:1.0;"/></g><!--link CostumerManager to SystemUser--><g id="link_CostumerManager_SystemUser"><path codeLine="141" d="M454.49,352.5939 C485.83,381.9239 525.84,419.3639 559.49,450.8639 " fill="none" id="CostumerManager-to-SystemUser" style="stroke:#181818;stroke-width:1.0;"/><polygon fill="none" points="564.63,446.0839,574.45,464.8639,555.07,456.3039,564.63,446.0839" style="stroke:#181818;stroke-width:1.0;"/></g><!--SRC=[bLR1Rjiu4BthAuXUucnW9zsz6K80nsw05Cccg9FkiM2eiSE68hKabS3RvjztID4MASbEUhAaUU_DS3Wp7lF4PKKrBOLYJr2G0bQq5lPIIRla_m7vyomxUhIsCjFJqqfGQUjIJ9WgJvcWnemBJjT8pZBBhG1ol_nuTlONcJiRMMnjHukxsypZoMVrS5k1v79zGwiADFcPdH2cv3DeUwSGDseHKm8IPJV7sMlMeoEquMgW5aQ0O04b4YBqN7CBcjDzhWGtG_2Ez36Pxamj-1gv4M49-fap87aUdixFlORrZbW0NgSEtMjoeiCgFtRGdSwmqlqLAdpHO30Tr78bWqoXbe_gPTGmXuXpl7MjXC1avVcigWHdCNyDkoEZY7__dCGqIeBQOb5heKhA6vanbfXK9PTU6NExj1hf-FsPYXhmmuLI0gZqKXLbJtJjCZAhxQEhXoQYxrGMt-yDQED56uSff4rcUf8qkQ-1kmHZN3nHh7d-pKTq-_03c7Ne7NXZB9JEVOgVhTSQrbWqvAjI2SDX9ItXe7wUNor2ZhQv2CbvZQfK6Un1q3TKOcBU4K2lTTwYeFjLBLdtUfWh3ihitQPoaSsZLxI-AFrqemfd-ISyUavPKRcP5GLMeq5RUFAcvXppXXIvyPI_NRAYpx8klr569UFWTAwa1JozhoQ3xLLrezNmRysrdmXcMG7Zgr01vf8Bf-n-eaRuv4VDK3xolB65rEo9R_Wu9p7SzqoCIpgnlP-lK2d3hT8kd2zOujXP87szvdbh34sfuQ7ceXYScvqMDPTQbNCV46RHXMH6B7bj1ii9MN61hTjfxkqKE-uNu- -5REWpZBRKJhGpRCErX68UvSc7DQf32qNkcuk9dB_blNMFVnYVOh_DoyKczZkABykxvLXsUaLnghIo2shf0pNGyxtprMYt3jsb7-515UDDIMP75zHmHYw5Uicw3JwPdEyTqrblyFy6EfhsIEfVvK5uD_K7m8WUAcwt5_WnHAxf1eCB7JWUdvCF7oUJFpx48sjAyC-iCCY9SXo8WvsJUaL-w1CdSRMxHLvMpTRWxo4RkjHVaybmRqvRjjdB76YGT_5wbPsmcesgjqkbPtQGpWRa0D7ISiYSxLbmOan3EtppmpA7EBq2tajBmahE7Y9x8qF3tPDcS10Ivn0xELaxikqcuGgvNHIoQ6T0mtOVo8Pt5kVa7P3WwW1YxoZeJfdn-5SIxly0]--></g></svg>