<?xml version="1.0" encoding="UTF-8" standalone="no"?><svg xmlns="http://www.w3.org/2000/svg" xmlns:xlink="http://www.w3.org/1999/xlink" contentStyleType="text/css" height="1798px" preserveAspectRatio="none" style="width:2235px;height:1798px;background:#FFFFFF;" version="1.1" viewBox="0 0 2235 1798" width="2235px" zoomAndPan="magnify"><defs/><g><text fill="#000000" font-family="sans-serif" font-size="14" font-weight="bold" lengthAdjust="spacing" textLength="154" x="1033.75" y="24.5332">US1003 Class Diagram</text><!--class AbstractListUI--><g id="elem_AbstractListUI"><rect codeLine="5" fill="#F1F1F1" height="202.0938" id="AbstractListUI" rx="2.5" ry="2.5" style="stroke:#181818;stroke-width:0.5;" width="176" x="1312" y="45.6094"/><ellipse cx="1337" cy="63.1875" fill="#B4A7E5" rx="12" ry="12" style="stroke:#181818;stroke-width:1.0;"/><path d="M1338,59.3594 L1338,67.1875 L1340.0313,67.1875 Q1340.75,67.1875 1341.0469,67.4688 Q1341.3594,67.7344 1341.3594,68.1875 Q1341.3594,68.625 1341.0469,68.9063 Q1340.75,69.1875 1340.0313,69.1875 L1333.9844,69.1875 Q1333.25,69.1875 1332.9375,68.9063 Q1332.6406,68.625 1332.6406,68.1875 Q1332.6406,67.7344 1332.9375,67.4688 Q1333.25,67.1875 1333.9844,67.1875 L1336,67.1875 L1336,59.3594 L1333.9844,59.3594 Q1333.25,59.3594 1332.9375,59.0781 Q1332.6406,58.7969 1332.6406,58.3438 Q1332.6406,57.8906 1332.9375,57.625 Q1333.25,57.3438 1333.9844,57.3438 L1340.0313,57.3438 Q1340.75,57.3438 1341.0469,57.625 Q1341.3594,57.8906 1341.3594,58.3438 Q1341.3594,58.7969 1341.0469,59.0781 Q1340.75,59.3594 1340.0313,59.3594 L1338,59.3594 Z " fill="#000000"/><text fill="#000000" font-family="sans-serif" font-size="20" font-style="italic" lengthAdjust="spacing" textLength="122" x="1354" y="71.3711">AbstractListUI</text><line style="stroke:#181818;stroke-width:0.5;" x1="1313" x2="1487" y1="80.7656" y2="80.7656"/><line style="stroke:#181818;stroke-width:0.5;" x1="1313" x2="1487" y1="88.7656" y2="88.7656"/><polygon fill="#FFFF44" points="1323,101.8438,1327,105.8438,1323,109.8438,1319,105.8438" style="stroke:#B38D22;stroke-width:1.0;"/><text fill="#000000" font-family="sans-serif" font-size="20" lengthAdjust="spacing" textLength="93" x="1333" y="113.5273">elements()</text><polygon fill="#FFFF44" points="1323,127,1327,131,1323,135,1319,131" style="stroke:#B38D22;stroke-width:1.0;"/><text fill="#000000" font-family="sans-serif" font-size="20" lengthAdjust="spacing" textLength="141" x="1333" y="138.6836">elementPrinter()</text><polygon fill="#FFFF44" points="1323,152.1563,1327,156.1563,1323,160.1563,1319,156.1563" style="stroke:#B38D22;stroke-width:1.0;"/><text fill="#000000" font-family="sans-serif" font-size="20" lengthAdjust="spacing" textLength="149" x="1333" y="163.8398">emptyMessage()</text><polygon fill="#FFFF44" points="1323,177.3125,1327,181.3125,1323,185.3125,1319,181.3125" style="stroke:#B38D22;stroke-width:1.0;"/><text fill="#000000" font-family="sans-serif" font-size="20" lengthAdjust="spacing" textLength="102" x="1333" y="188.9961">listHeader()</text><polygon fill="#FFFF44" points="1323,202.4688,1327,206.4688,1323,210.4688,1319,206.4688" style="stroke:#B38D22;stroke-width:1.0;"/><text fill="#000000" font-family="sans-serif" font-size="20" lengthAdjust="spacing" textLength="127" x="1333" y="214.1523">elementName(</text><polygon fill="#FFFF44" points="1323,227.625,1327,231.625,1323,235.625,1319,231.625" style="stroke:#B38D22;stroke-width:1.0;"/><text fill="#000000" font-family="sans-serif" font-size="20" lengthAdjust="spacing" textLength="85" x="1333" y="239.3086">doShow()</text></g><!--class CustomerManagementService--><g id="elem_CustomerManagementService"><rect codeLine="14" fill="#F1F1F1" height="101.4688" id="CustomerManagementService" rx="2.5" ry="2.5" style="stroke:#181818;stroke-width:0.5;" width="535" x="1132.5" y="900.6094"/><ellipse cx="1263.5" cy="930.7656" fill="#ADD1B2" rx="12" ry="12" style="stroke:#181818;stroke-width:1.0;"/><path d="M1265.6406,925.6875 Q1265.8281,925.4375 1266.0469,925.3125 Q1266.2656,925.1719 1266.5156,925.1719 Q1266.9531,925.1719 1267.2344,925.4844 Q1267.5156,925.7813 1267.5156,926.5 L1267.5156,928.2031 Q1267.5156,928.9219 1267.2344,929.2344 Q1266.9531,929.5469 1266.5156,929.5469 Q1266.125,929.5469 1265.875,929.3125 Q1265.625,929.0938 1265.5156,928.4844 Q1265.4531,928.0625 1265.2344,927.8438 Q1264.8438,927.4063 1264.125,927.1406 Q1263.4063,926.875 1262.6875,926.875 Q1261.7813,926.875 1261.0313,927.2656 Q1260.2813,927.6563 1259.7031,928.5469 Q1259.125,929.4219 1259.125,930.625 L1259.125,931.9219 Q1259.125,933.375 1260.1719,934.3438 Q1261.2344,935.3125 1263.0938,935.3125 Q1264.2031,935.3125 1264.9844,935 Q1265.4219,934.8281 1265.9375,934.3125 Q1266.25,934 1266.4219,933.9063 Q1266.5938,933.8125 1266.8281,933.8125 Q1267.2188,933.8125 1267.5156,934.125 Q1267.8281,934.4219 1267.8281,934.8281 Q1267.8281,935.2344 1267.4219,935.7031 Q1266.8281,936.3906 1265.8906,936.7813 Q1264.625,937.3125 1263.1094,937.3125 Q1261.3281,937.3125 1259.9063,936.5781 Q1258.75,935.9844 1257.9375,934.7188 Q1257.125,933.4531 1257.125,931.9688 L1257.125,930.6094 Q1257.125,929.0469 1257.8438,927.7031 Q1258.5781,926.3438 1259.8594,925.6094 Q1261.1563,924.875 1262.6094,924.875 Q1263.4688,924.875 1264.2188,925.0781 Q1264.9844,925.2813 1265.6406,925.6875 Z " fill="#000000"/><text fill="#000000" font-family="sans-serif" font-size="20" font-style="italic" lengthAdjust="spacing" textLength="89" x="1373" y="926.3711">«Service»</text><text fill="#000000" font-family="sans-serif" font-size="20" lengthAdjust="spacing" textLength="264" x="1285.5" y="951.5273">CustomerManagementService</text><line style="stroke:#181818;stroke-width:0.5;" x1="1133.5" x2="1666.5" y1="960.9219" y2="960.9219"/><line style="stroke:#181818;stroke-width:0.5;" x1="1133.5" x2="1666.5" y1="968.9219" y2="968.9219"/><ellipse cx="1143.5" cy="987" fill="#84BE84" rx="3" ry="3" style="stroke:#038048;stroke-width:1.0;"/><text fill="#000000" font-family="sans-serif" font-size="20" lengthAdjust="spacing" textLength="508" x="1153.5" y="993.6836">getAssignedCostumerCodesList(EmailAddress username)</text></g><!--class Customer--><g id="elem_Customer"><rect codeLine="18" fill="#F1F1F1" height="227.25" id="Customer" rx="2.5" ry="2.5" style="stroke:#181818;stroke-width:0.5;" width="361" x="1219.5" y="1175.6094"/><ellipse cx="1317.5" cy="1218.3438" fill="#ADD1B2" rx="12" ry="12" style="stroke:#181818;stroke-width:1.0;"/><path d="M1319.6406,1213.2656 Q1319.8281,1213.0156 1320.0469,1212.8906 Q1320.2656,1212.75 1320.5156,1212.75 Q1320.9531,1212.75 1321.2344,1213.0625 Q1321.5156,1213.3594 1321.5156,1214.0781 L1321.5156,1215.7813 Q1321.5156,1216.5 1321.2344,1216.8125 Q1320.9531,1217.125 1320.5156,1217.125 Q1320.125,1217.125 1319.875,1216.8906 Q1319.625,1216.6719 1319.5156,1216.0625 Q1319.4531,1215.6406 1319.2344,1215.4219 Q1318.8438,1214.9844 1318.125,1214.7188 Q1317.4063,1214.4531 1316.6875,1214.4531 Q1315.7813,1214.4531 1315.0313,1214.8438 Q1314.2813,1215.2344 1313.7031,1216.125 Q1313.125,1217 1313.125,1218.2031 L1313.125,1219.5 Q1313.125,1220.9531 1314.1719,1221.9219 Q1315.2344,1222.8906 1317.0938,1222.8906 Q1318.2031,1222.8906 1318.9844,1222.5781 Q1319.4219,1222.4063 1319.9375,1221.8906 Q1320.25,1221.5781 1320.4219,1221.4844 Q1320.5938,1221.3906 1320.8281,1221.3906 Q1321.2188,1221.3906 1321.5156,1221.7031 Q1321.8281,1222 1321.8281,1222.4063 Q1321.8281,1222.8125 1321.4219,1223.2813 Q1320.8281,1223.9688 1319.8906,1224.3594 Q1318.625,1224.8906 1317.1094,1224.8906 Q1315.3281,1224.8906 1313.9063,1224.1563 Q1312.75,1223.5625 1311.9375,1222.2969 Q1311.125,1221.0313 1311.125,1219.5469 L1311.125,1218.1875 Q1311.125,1216.625 1311.8438,1215.2813 Q1312.5781,1213.9219 1313.8594,1213.1875 Q1315.1563,1212.4531 1316.6094,1212.4531 Q1317.4688,1212.4531 1318.2188,1212.6563 Q1318.9844,1212.8594 1319.6406,1213.2656 Z " fill="#000000"/><text fill="#000000" font-family="sans-serif" font-size="20" font-style="italic" lengthAdjust="spacing" textLength="91" x="1372" y="1201.3711">«Domain»</text><text fill="#000000" font-family="sans-serif" font-size="20" font-style="italic" lengthAdjust="spacing" textLength="160" x="1337.5" y="1226.5273">«Aggregate Root»</text><text fill="#000000" font-family="sans-serif" font-size="20" lengthAdjust="spacing" textLength="85" x="1375" y="1251.6836">Customer</text><line style="stroke:#181818;stroke-width:0.5;" x1="1220.5" x2="1579.5" y1="1261.0781" y2="1261.0781"/><rect fill="none" height="6" style="stroke:#C82930;stroke-width:1.0;" width="6" x="1227.5" y="1276.1563"/><text fill="#000000" font-family="sans-serif" font-size="20" lengthAdjust="spacing" textLength="266" x="1240.5" y="1285.8398">CustomerCode customerCode</text><rect fill="none" height="6" style="stroke:#C82930;stroke-width:1.0;" width="6" x="1227.5" y="1301.3125"/><text fill="#000000" font-family="sans-serif" font-size="20" lengthAdjust="spacing" textLength="270" x="1240.5" y="1310.9961">CompanyName companyName</text><rect fill="none" height="6" style="stroke:#C82930;stroke-width:1.0;" width="6" x="1227.5" y="1326.4688"/><text fill="#000000" font-family="sans-serif" font-size="20" lengthAdjust="spacing" textLength="334" x="1240.5" y="1336.1523">EmailAddress costumerManagerEmail</text><line style="stroke:#181818;stroke-width:0.5;" x1="1220.5" x2="1579.5" y1="1344.5469" y2="1344.5469"/><ellipse cx="1230.5" cy="1362.625" fill="#84BE84" rx="3" ry="3" style="stroke:#038048;stroke-width:1.0;"/><text fill="#000000" font-family="sans-serif" font-size="20" lengthAdjust="spacing" textLength="142" x="1240.5" y="1369.3086">customerCode()</text><ellipse cx="1230.5" cy="1387.7813" fill="#84BE84" rx="3" ry="3" style="stroke:#038048;stroke-width:1.0;"/><text fill="#000000" font-family="sans-serif" font-size="20" lengthAdjust="spacing" textLength="144" x="1240.5" y="1394.4648">companyName()</text></g><!--class JobOpeningManagementService--><g id="elem_JobOpeningManagementService"><rect codeLine="26" fill="#F1F1F1" height="126.625" id="JobOpeningManagementService" rx="2.5" ry="2.5" style="stroke:#181818;stroke-width:0.5;" width="816" x="281" y="887.6094"/><ellipse cx="542.5" cy="917.7656" fill="#ADD1B2" rx="12" ry="12" style="stroke:#181818;stroke-width:1.0;"/><path d="M544.6406,912.6875 Q544.8281,912.4375 545.0469,912.3125 Q545.2656,912.1719 545.5156,912.1719 Q545.9531,912.1719 546.2344,912.4844 Q546.5156,912.7813 546.5156,913.5 L546.5156,915.2031 Q546.5156,915.9219 546.2344,916.2344 Q545.9531,916.5469 545.5156,916.5469 Q545.125,916.5469 544.875,916.3125 Q544.625,916.0938 544.5156,915.4844 Q544.4531,915.0625 544.2344,914.8438 Q543.8438,914.4063 543.125,914.1406 Q542.4063,913.875 541.6875,913.875 Q540.7813,913.875 540.0313,914.2656 Q539.2813,914.6563 538.7031,915.5469 Q538.125,916.4219 538.125,917.625 L538.125,918.9219 Q538.125,920.375 539.1719,921.3438 Q540.2344,922.3125 542.0938,922.3125 Q543.2031,922.3125 543.9844,922 Q544.4219,921.8281 544.9375,921.3125 Q545.25,921 545.4219,920.9063 Q545.5938,920.8125 545.8281,920.8125 Q546.2188,920.8125 546.5156,921.125 Q546.8281,921.4219 546.8281,921.8281 Q546.8281,922.2344 546.4219,922.7031 Q545.8281,923.3906 544.8906,923.7813 Q543.625,924.3125 542.1094,924.3125 Q540.3281,924.3125 538.9063,923.5781 Q537.75,922.9844 536.9375,921.7188 Q536.125,920.4531 536.125,918.9688 L536.125,917.6094 Q536.125,916.0469 536.8438,914.7031 Q537.5781,913.3438 538.8594,912.6094 Q540.1563,911.875 541.6094,911.875 Q542.4688,911.875 543.2188,912.0781 Q543.9844,912.2813 544.6406,912.6875 Z " fill="#000000"/><text fill="#000000" font-family="sans-serif" font-size="20" font-style="italic" lengthAdjust="spacing" textLength="89" x="662" y="913.3711">«Service»</text><text fill="#000000" font-family="sans-serif" font-size="20" lengthAdjust="spacing" textLength="284" x="564.5" y="938.5273">JobOpeningManagementService</text><line style="stroke:#181818;stroke-width:0.5;" x1="282" x2="1096" y1="947.9219" y2="947.9219"/><line style="stroke:#181818;stroke-width:0.5;" x1="282" x2="1096" y1="955.9219" y2="955.9219"/><ellipse cx="292" cy="974" fill="#84BE84" rx="3" ry="3" style="stroke:#038048;stroke-width:1.0;"/><text fill="#000000" font-family="sans-serif" font-size="20" lengthAdjust="spacing" textLength="789" x="302" y="980.6836">getJobOpeningsFromCostumerCodes(List&lt;CustomerCode&gt; assignedCostumerCodesList)</text><ellipse cx="292" cy="999.1563" fill="#84BE84" rx="3" ry="3" style="stroke:#038048;stroke-width:1.0;"/><text fill="#000000" font-family="sans-serif" font-size="20" lengthAdjust="spacing" textLength="404" x="302" y="1005.8398">filterJobOpeningList(List&lt;Criteria&gt; criteriaList)</text></g><!--class JobOpeningListDTOService--><g id="elem_JobOpeningListDTOService"><rect codeLine="31" fill="#F1F1F1" height="101.4688" id="JobOpeningListDTOService" rx="2.5" ry="2.5" style="stroke:#181818;stroke-width:0.5;" width="466" x="7" y="1044.6094"/><ellipse cx="114" cy="1074.7656" fill="#ADD1B2" rx="12" ry="12" style="stroke:#181818;stroke-width:1.0;"/><path d="M116.1406,1069.6875 Q116.3281,1069.4375 116.5469,1069.3125 Q116.7656,1069.1719 117.0156,1069.1719 Q117.4531,1069.1719 117.7344,1069.4844 Q118.0156,1069.7813 118.0156,1070.5 L118.0156,1072.2031 Q118.0156,1072.9219 117.7344,1073.2344 Q117.4531,1073.5469 117.0156,1073.5469 Q116.625,1073.5469 116.375,1073.3125 Q116.125,1073.0938 116.0156,1072.4844 Q115.9531,1072.0625 115.7344,1071.8438 Q115.3438,1071.4063 114.625,1071.1406 Q113.9063,1070.875 113.1875,1070.875 Q112.2813,1070.875 111.5313,1071.2656 Q110.7813,1071.6563 110.2031,1072.5469 Q109.625,1073.4219 109.625,1074.625 L109.625,1075.9219 Q109.625,1077.375 110.6719,1078.3438 Q111.7344,1079.3125 113.5938,1079.3125 Q114.7031,1079.3125 115.4844,1079 Q115.9219,1078.8281 116.4375,1078.3125 Q116.75,1078 116.9219,1077.9063 Q117.0938,1077.8125 117.3281,1077.8125 Q117.7188,1077.8125 118.0156,1078.125 Q118.3281,1078.4219 118.3281,1078.8281 Q118.3281,1079.2344 117.9219,1079.7031 Q117.3281,1080.3906 116.3906,1080.7813 Q115.125,1081.3125 113.6094,1081.3125 Q111.8281,1081.3125 110.4063,1080.5781 Q109.25,1079.9844 108.4375,1078.7188 Q107.625,1077.4531 107.625,1075.9688 L107.625,1074.6094 Q107.625,1073.0469 108.3438,1071.7031 Q109.0781,1070.3438 110.3594,1069.6094 Q111.6563,1068.875 113.1094,1068.875 Q113.9688,1068.875 114.7188,1069.0781 Q115.4844,1069.2813 116.1406,1069.6875 Z " fill="#000000"/><text fill="#000000" font-family="sans-serif" font-size="20" font-style="italic" lengthAdjust="spacing" textLength="89" x="213" y="1070.3711">«Service»</text><text fill="#000000" font-family="sans-serif" font-size="20" lengthAdjust="spacing" textLength="243" x="136" y="1095.5273">JobOpeningListDTOService</text><line style="stroke:#181818;stroke-width:0.5;" x1="8" x2="472" y1="1104.9219" y2="1104.9219"/><line style="stroke:#181818;stroke-width:0.5;" x1="8" x2="472" y1="1112.9219" y2="1112.9219"/><ellipse cx="18" cy="1131" fill="#84BE84" rx="3" ry="3" style="stroke:#038048;stroke-width:1.0;"/><text fill="#000000" font-family="sans-serif" font-size="20" lengthAdjust="spacing" textLength="439" x="28" y="1137.6836">convertToDTO(List&lt;JobOpening&gt; jobOpeningList)</text></g><!--class ListJobOpeningUI--><g id="elem_ListJobOpeningUI"><rect codeLine="35" fill="#F1F1F1" height="227.25" id="ListJobOpeningUI" rx="2.5" ry="2.5" style="stroke:#181818;stroke-width:0.5;" width="189" x="1305.5" y="334.6094"/><ellipse cx="1321.5" cy="364.7656" fill="#ADD1B2" rx="12" ry="12" style="stroke:#181818;stroke-width:1.0;"/><path d="M1323.6406,359.6875 Q1323.8281,359.4375 1324.0469,359.3125 Q1324.2656,359.1719 1324.5156,359.1719 Q1324.9531,359.1719 1325.2344,359.4844 Q1325.5156,359.7813 1325.5156,360.5 L1325.5156,362.2031 Q1325.5156,362.9219 1325.2344,363.2344 Q1324.9531,363.5469 1324.5156,363.5469 Q1324.125,363.5469 1323.875,363.3125 Q1323.625,363.0938 1323.5156,362.4844 Q1323.4531,362.0625 1323.2344,361.8438 Q1322.8438,361.4063 1322.125,361.1406 Q1321.4063,360.875 1320.6875,360.875 Q1319.7813,360.875 1319.0313,361.2656 Q1318.2813,361.6563 1317.7031,362.5469 Q1317.125,363.4219 1317.125,364.625 L1317.125,365.9219 Q1317.125,367.375 1318.1719,368.3438 Q1319.2344,369.3125 1321.0938,369.3125 Q1322.2031,369.3125 1322.9844,369 Q1323.4219,368.8281 1323.9375,368.3125 Q1324.25,368 1324.4219,367.9063 Q1324.5938,367.8125 1324.8281,367.8125 Q1325.2188,367.8125 1325.5156,368.125 Q1325.8281,368.4219 1325.8281,368.8281 Q1325.8281,369.2344 1325.4219,369.7031 Q1324.8281,370.3906 1323.8906,370.7813 Q1322.625,371.3125 1321.1094,371.3125 Q1319.3281,371.3125 1317.9063,370.5781 Q1316.75,369.9844 1315.9375,368.7188 Q1315.125,367.4531 1315.125,365.9688 L1315.125,364.6094 Q1315.125,363.0469 1315.8438,361.7031 Q1316.5781,360.3438 1317.8594,359.6094 Q1319.1563,358.875 1320.6094,358.875 Q1321.4688,358.875 1322.2188,359.0781 Q1322.9844,359.2813 1323.6406,359.6875 Z " fill="#000000"/><text fill="#000000" font-family="sans-serif" font-size="20" font-style="italic" lengthAdjust="spacing" textLength="133" x="1347.5" y="360.3711">«Presentation»</text><text fill="#000000" font-family="sans-serif" font-size="20" lengthAdjust="spacing" textLength="155" x="1336.5" y="385.5273">ListJobOpeningUI</text><line style="stroke:#181818;stroke-width:0.5;" x1="1306.5" x2="1493.5" y1="394.9219" y2="394.9219"/><line style="stroke:#181818;stroke-width:0.5;" x1="1306.5" x2="1493.5" y1="402.9219" y2="402.9219"/><ellipse cx="1316.5" cy="421" fill="#84BE84" rx="3" ry="3" style="stroke:#038048;stroke-width:1.0;"/><text fill="#000000" font-family="sans-serif" font-size="20" lengthAdjust="spacing" textLength="93" x="1326.5" y="427.6836">elements()</text><ellipse cx="1316.5" cy="446.1563" fill="#84BE84" rx="3" ry="3" style="stroke:#038048;stroke-width:1.0;"/><text fill="#000000" font-family="sans-serif" font-size="20" lengthAdjust="spacing" textLength="141" x="1326.5" y="452.8398">elementPrinter()</text><ellipse cx="1316.5" cy="471.3125" fill="#84BE84" rx="3" ry="3" style="stroke:#038048;stroke-width:1.0;"/><text fill="#000000" font-family="sans-serif" font-size="20" lengthAdjust="spacing" textLength="149" x="1326.5" y="477.9961">emptyMessage()</text><ellipse cx="1316.5" cy="496.4688" fill="#84BE84" rx="3" ry="3" style="stroke:#038048;stroke-width:1.0;"/><text fill="#000000" font-family="sans-serif" font-size="20" lengthAdjust="spacing" textLength="102" x="1326.5" y="503.1523">listHeader()</text><ellipse cx="1316.5" cy="521.625" fill="#84BE84" rx="3" ry="3" style="stroke:#038048;stroke-width:1.0;"/><text fill="#000000" font-family="sans-serif" font-size="20" lengthAdjust="spacing" textLength="127" x="1326.5" y="528.3086">elementName(</text><ellipse cx="1316.5" cy="546.7813" fill="#84BE84" rx="3" ry="3" style="stroke:#038048;stroke-width:1.0;"/><text fill="#000000" font-family="sans-serif" font-size="20" lengthAdjust="spacing" textLength="85" x="1326.5" y="553.4648">doShow()</text></g><!--class ListJobOpeningController--><g id="elem_ListJobOpeningController"><rect codeLine="44" fill="#F1F1F1" height="126.625" id="ListJobOpeningController" rx="2.5" ry="2.5" style="stroke:#181818;stroke-width:0.5;" width="255" x="1272.5" y="661.1094"/><ellipse cx="1288.5" cy="691.2656" fill="#ADD1B2" rx="12" ry="12" style="stroke:#181818;stroke-width:1.0;"/><path d="M1290.6406,686.1875 Q1290.8281,685.9375 1291.0469,685.8125 Q1291.2656,685.6719 1291.5156,685.6719 Q1291.9531,685.6719 1292.2344,685.9844 Q1292.5156,686.2813 1292.5156,687 L1292.5156,688.7031 Q1292.5156,689.4219 1292.2344,689.7344 Q1291.9531,690.0469 1291.5156,690.0469 Q1291.125,690.0469 1290.875,689.8125 Q1290.625,689.5938 1290.5156,688.9844 Q1290.4531,688.5625 1290.2344,688.3438 Q1289.8438,687.9063 1289.125,687.6406 Q1288.4063,687.375 1287.6875,687.375 Q1286.7813,687.375 1286.0313,687.7656 Q1285.2813,688.1563 1284.7031,689.0469 Q1284.125,689.9219 1284.125,691.125 L1284.125,692.4219 Q1284.125,693.875 1285.1719,694.8438 Q1286.2344,695.8125 1288.0938,695.8125 Q1289.2031,695.8125 1289.9844,695.5 Q1290.4219,695.3281 1290.9375,694.8125 Q1291.25,694.5 1291.4219,694.4063 Q1291.5938,694.3125 1291.8281,694.3125 Q1292.2188,694.3125 1292.5156,694.625 Q1292.8281,694.9219 1292.8281,695.3281 Q1292.8281,695.7344 1292.4219,696.2031 Q1291.8281,696.8906 1290.8906,697.2813 Q1289.625,697.8125 1288.1094,697.8125 Q1286.3281,697.8125 1284.9063,697.0781 Q1283.75,696.4844 1282.9375,695.2188 Q1282.125,693.9531 1282.125,692.4688 L1282.125,691.1094 Q1282.125,689.5469 1282.8438,688.2031 Q1283.5781,686.8438 1284.8594,686.1094 Q1286.1563,685.375 1287.6094,685.375 Q1288.4688,685.375 1289.2188,685.5781 Q1289.9844,685.7813 1290.6406,686.1875 Z " fill="#000000"/><text fill="#000000" font-family="sans-serif" font-size="20" font-style="italic" lengthAdjust="spacing" textLength="120" x="1354" y="686.8711">«Application»</text><text fill="#000000" font-family="sans-serif" font-size="20" lengthAdjust="spacing" textLength="221" x="1303.5" y="712.0273">ListJobOpeningController</text><line style="stroke:#181818;stroke-width:0.5;" x1="1273.5" x2="1526.5" y1="721.4219" y2="721.4219"/><line style="stroke:#181818;stroke-width:0.5;" x1="1273.5" x2="1526.5" y1="729.4219" y2="729.4219"/><ellipse cx="1283.5" cy="747.5" fill="#84BE84" rx="3" ry="3" style="stroke:#038048;stroke-width:1.0;"/><text fill="#000000" font-family="sans-serif" font-size="20" lengthAdjust="spacing" textLength="106" x="1293.5" y="754.1836">getCriteria()</text><ellipse cx="1283.5" cy="772.6563" fill="#84BE84" rx="3" ry="3" style="stroke:#038048;stroke-width:1.0;"/><text fill="#000000" font-family="sans-serif" font-size="20" lengthAdjust="spacing" textLength="178" x="1293.5" y="779.3398">getJobOpeningList()</text></g><!--class Criteria--><g id="elem_Criteria"><rect codeLine="49" fill="#F1F1F1" height="126.625" id="Criteria" rx="2.5" ry="2.5" style="stroke:#181818;stroke-width:0.5;" width="211" x="1702.5" y="887.6094"/><ellipse cx="1760" cy="917.7656" fill="#ADD1B2" rx="12" ry="12" style="stroke:#181818;stroke-width:1.0;"/><path d="M1762.1406,912.6875 Q1762.3281,912.4375 1762.5469,912.3125 Q1762.7656,912.1719 1763.0156,912.1719 Q1763.4531,912.1719 1763.7344,912.4844 Q1764.0156,912.7813 1764.0156,913.5 L1764.0156,915.2031 Q1764.0156,915.9219 1763.7344,916.2344 Q1763.4531,916.5469 1763.0156,916.5469 Q1762.625,916.5469 1762.375,916.3125 Q1762.125,916.0938 1762.0156,915.4844 Q1761.9531,915.0625 1761.7344,914.8438 Q1761.3438,914.4063 1760.625,914.1406 Q1759.9063,913.875 1759.1875,913.875 Q1758.2813,913.875 1757.5313,914.2656 Q1756.7813,914.6563 1756.2031,915.5469 Q1755.625,916.4219 1755.625,917.625 L1755.625,918.9219 Q1755.625,920.375 1756.6719,921.3438 Q1757.7344,922.3125 1759.5938,922.3125 Q1760.7031,922.3125 1761.4844,922 Q1761.9219,921.8281 1762.4375,921.3125 Q1762.75,921 1762.9219,920.9063 Q1763.0938,920.8125 1763.3281,920.8125 Q1763.7188,920.8125 1764.0156,921.125 Q1764.3281,921.4219 1764.3281,921.8281 Q1764.3281,922.2344 1763.9219,922.7031 Q1763.3281,923.3906 1762.3906,923.7813 Q1761.125,924.3125 1759.6094,924.3125 Q1757.8281,924.3125 1756.4063,923.5781 Q1755.25,922.9844 1754.4375,921.7188 Q1753.625,920.4531 1753.625,918.9688 L1753.625,917.6094 Q1753.625,916.0469 1754.3438,914.7031 Q1755.0781,913.3438 1756.3594,912.6094 Q1757.6563,911.875 1759.1094,911.875 Q1759.9688,911.875 1760.7188,912.0781 Q1761.4844,912.2813 1762.1406,912.6875 Z " fill="#000000"/><text fill="#000000" font-family="sans-serif" font-size="20" font-style="italic" lengthAdjust="spacing" textLength="91" x="1780" y="913.3711">«Domain»</text><text fill="#000000" font-family="sans-serif" font-size="20" lengthAdjust="spacing" textLength="64" x="1793.5" y="938.5273">Criteria</text><line style="stroke:#181818;stroke-width:0.5;" x1="1703.5" x2="1912.5" y1="947.9219" y2="947.9219"/><rect fill="none" height="6" style="stroke:#C82930;stroke-width:1.0;" width="6" x="1710.5" y="963"/><text fill="#000000" font-family="sans-serif" font-size="20" lengthAdjust="spacing" textLength="184" x="1723.5" y="972.6836">denomination : String</text><line style="stroke:#181818;stroke-width:0.5;" x1="1703.5" x2="1912.5" y1="981.0781" y2="981.0781"/><ellipse cx="1713.5" cy="999.1563" fill="#84BE84" rx="3" ry="3" style="stroke:#038048;stroke-width:1.0;"/><text fill="#000000" font-family="sans-serif" font-size="20" lengthAdjust="spacing" textLength="73" x="1723.5" y="1005.8398">toDTO()</text></g><!--class AuthorizationService--><g id="elem_AuthorizationService"><rect codeLine="54" fill="#F1F1F1" height="101.4688" id="AuthorizationService" rx="2.5" ry="2.5" style="stroke:#181818;stroke-width:0.5;" width="743" x="494.5" y="674.1094"/><ellipse cx="773" cy="704.2656" fill="#ADD1B2" rx="12" ry="12" style="stroke:#181818;stroke-width:1.0;"/><path d="M775.1406,699.1875 Q775.3281,698.9375 775.5469,698.8125 Q775.7656,698.6719 776.0156,698.6719 Q776.4531,698.6719 776.7344,698.9844 Q777.0156,699.2813 777.0156,700 L777.0156,701.7031 Q777.0156,702.4219 776.7344,702.7344 Q776.4531,703.0469 776.0156,703.0469 Q775.625,703.0469 775.375,702.8125 Q775.125,702.5938 775.0156,701.9844 Q774.9531,701.5625 774.7344,701.3438 Q774.3438,700.9063 773.625,700.6406 Q772.9063,700.375 772.1875,700.375 Q771.2813,700.375 770.5313,700.7656 Q769.7813,701.1563 769.2031,702.0469 Q768.625,702.9219 768.625,704.125 L768.625,705.4219 Q768.625,706.875 769.6719,707.8438 Q770.7344,708.8125 772.5938,708.8125 Q773.7031,708.8125 774.4844,708.5 Q774.9219,708.3281 775.4375,707.8125 Q775.75,707.5 775.9219,707.4063 Q776.0938,707.3125 776.3281,707.3125 Q776.7188,707.3125 777.0156,707.625 Q777.3281,707.9219 777.3281,708.3281 Q777.3281,708.7344 776.9219,709.2031 Q776.3281,709.8906 775.3906,710.2813 Q774.125,710.8125 772.6094,710.8125 Q770.8281,710.8125 769.4063,710.0781 Q768.25,709.4844 767.4375,708.2188 Q766.625,706.9531 766.625,705.4688 L766.625,704.1094 Q766.625,702.5469 767.3438,701.2031 Q768.0781,699.8438 769.3594,699.1094 Q770.6563,698.375 772.1094,698.375 Q772.9688,698.375 773.7188,698.5781 Q774.4844,698.7813 775.1406,699.1875 Z " fill="#000000"/><text fill="#000000" font-family="sans-serif" font-size="20" font-style="italic" lengthAdjust="spacing" textLength="89" x="839" y="699.8711">«Service»</text><text fill="#000000" font-family="sans-serif" font-size="20" lengthAdjust="spacing" textLength="177" x="795" y="725.0273">AuthorizationService</text><line style="stroke:#181818;stroke-width:0.5;" x1="495.5" x2="1236.5" y1="734.4219" y2="734.4219"/><line style="stroke:#181818;stroke-width:0.5;" x1="495.5" x2="1236.5" y1="742.4219" y2="742.4219"/><ellipse cx="505.5" cy="760.5" fill="#84BE84" rx="3" ry="3" style="stroke:#038048;stroke-width:1.0;"/><text fill="#000000" font-family="sans-serif" font-size="20" lengthAdjust="spacing" textLength="716" x="515.5" y="767.1836">loggedinUserWithPermissions(Role ... Action BaseRole.CUSTOMER_MANAGER)</text></g><!--class JobOpening--><g id="elem_JobOpening"><rect codeLine="58" fill="#F1F1F1" height="327.875" id="JobOpening" rx="2.5" ry="2.5" style="stroke:#181818;stroke-width:0.5;" width="480" x="267" y="1463.6094"/><ellipse cx="424.5" cy="1506.3438" fill="#ADD1B2" rx="12" ry="12" style="stroke:#181818;stroke-width:1.0;"/><path d="M426.6406,1501.2656 Q426.8281,1501.0156 427.0469,1500.8906 Q427.2656,1500.75 427.5156,1500.75 Q427.9531,1500.75 428.2344,1501.0625 Q428.5156,1501.3594 428.5156,1502.0781 L428.5156,1503.7813 Q428.5156,1504.5 428.2344,1504.8125 Q427.9531,1505.125 427.5156,1505.125 Q427.125,1505.125 426.875,1504.8906 Q426.625,1504.6719 426.5156,1504.0625 Q426.4531,1503.6406 426.2344,1503.4219 Q425.8438,1502.9844 425.125,1502.7188 Q424.4063,1502.4531 423.6875,1502.4531 Q422.7813,1502.4531 422.0313,1502.8438 Q421.2813,1503.2344 420.7031,1504.125 Q420.125,1505 420.125,1506.2031 L420.125,1507.5 Q420.125,1508.9531 421.1719,1509.9219 Q422.2344,1510.8906 424.0938,1510.8906 Q425.2031,1510.8906 425.9844,1510.5781 Q426.4219,1510.4063 426.9375,1509.8906 Q427.25,1509.5781 427.4219,1509.4844 Q427.5938,1509.3906 427.8281,1509.3906 Q428.2188,1509.3906 428.5156,1509.7031 Q428.8281,1510 428.8281,1510.4063 Q428.8281,1510.8125 428.4219,1511.2813 Q427.8281,1511.9688 426.8906,1512.3594 Q425.625,1512.8906 424.1094,1512.8906 Q422.3281,1512.8906 420.9063,1512.1563 Q419.75,1511.5625 418.9375,1510.2969 Q418.125,1509.0313 418.125,1507.5469 L418.125,1506.1875 Q418.125,1504.625 418.8438,1503.2813 Q419.5781,1501.9219 420.8594,1501.1875 Q422.1563,1500.4531 423.6094,1500.4531 Q424.4688,1500.4531 425.2188,1500.6563 Q425.9844,1500.8594 426.6406,1501.2656 Z " fill="#000000"/><text fill="#000000" font-family="sans-serif" font-size="20" font-style="italic" lengthAdjust="spacing" textLength="91" x="479" y="1489.3711">«Domain»</text><text fill="#000000" font-family="sans-serif" font-size="20" font-style="italic" lengthAdjust="spacing" textLength="160" x="444.5" y="1514.5273">«Aggregate Root»</text><text fill="#000000" font-family="sans-serif" font-size="20" lengthAdjust="spacing" textLength="105" x="472" y="1539.6836">JobOpening</text><line style="stroke:#181818;stroke-width:0.5;" x1="268" x2="746" y1="1549.0781" y2="1549.0781"/><rect fill="none" height="6" style="stroke:#C82930;stroke-width:1.0;" width="6" x="275" y="1564.1563"/><text fill="#000000" font-family="sans-serif" font-size="20" lengthAdjust="spacing" textLength="178" x="288" y="1573.8398">JobFunction function</text><rect fill="none" height="6" style="stroke:#C82930;stroke-width:1.0;" width="6" x="275" y="1589.3125"/><text fill="#000000" font-family="sans-serif" font-size="20" lengthAdjust="spacing" textLength="240" x="288" y="1598.9961">ContractType contractType</text><rect fill="none" height="6" style="stroke:#C82930;stroke-width:1.0;" width="6" x="275" y="1614.4688"/><text fill="#000000" font-family="sans-serif" font-size="20" lengthAdjust="spacing" textLength="196" x="288" y="1624.1523">WorkMode workMode</text><rect fill="none" height="6" style="stroke:#C82930;stroke-width:1.0;" width="6" x="275" y="1639.625"/><text fill="#000000" font-family="sans-serif" font-size="20" lengthAdjust="spacing" textLength="251" x="288" y="1649.3086">Address jobOpeningAddress</text><rect fill="none" height="6" style="stroke:#C82930;stroke-width:1.0;" width="6" x="275" y="1664.7813"/><text fill="#000000" font-family="sans-serif" font-size="20" lengthAdjust="spacing" textLength="246" x="288" y="1674.4648">JobReference jobReference</text><rect fill="none" height="6" style="stroke:#C82930;stroke-width:1.0;" width="6" x="275" y="1689.9375"/><text fill="#000000" font-family="sans-serif" font-size="20" lengthAdjust="spacing" textLength="275" x="288" y="1699.6211">NumberVacancy numVacancies</text><rect fill="none" height="6" style="stroke:#C82930;stroke-width:1.0;" width="6" x="275" y="1715.0938"/><text fill="#000000" font-family="sans-serif" font-size="20" lengthAdjust="spacing" textLength="231" x="288" y="1724.7773">JobDescription description</text><rect fill="none" height="6" style="stroke:#C82930;stroke-width:1.0;" width="6" x="275" y="1740.25"/><text fill="#000000" font-family="sans-serif" font-size="20" lengthAdjust="spacing" textLength="453" x="288" y="1749.9336">RequirementSpecification requirementsSpecification</text><rect fill="none" height="6" style="stroke:#C82930;stroke-width:1.0;" width="6" x="275" y="1765.4063"/><text fill="#000000" font-family="sans-serif" font-size="20" lengthAdjust="spacing" textLength="89" x="288" y="1775.0898">Rank rank</text><line style="stroke:#181818;stroke-width:0.5;" x1="268" x2="746" y1="1783.4844" y2="1783.4844"/></g><!--class JobOpeningRepository--><g id="elem_JobOpeningRepository"><rect codeLine="70" fill="#F1F1F1" height="151.7813" id="JobOpeningRepository" rx="2.5" ry="2.5" style="stroke:#181818;stroke-width:0.5;" width="601" x="560.5" y="1213.1094"/><ellipse cx="756.5" cy="1255.8438" fill="#ADD1B2" rx="12" ry="12" style="stroke:#181818;stroke-width:1.0;"/><path d="M758.6406,1250.7656 Q758.8281,1250.5156 759.0469,1250.3906 Q759.2656,1250.25 759.5156,1250.25 Q759.9531,1250.25 760.2344,1250.5625 Q760.5156,1250.8594 760.5156,1251.5781 L760.5156,1253.2813 Q760.5156,1254 760.2344,1254.3125 Q759.9531,1254.625 759.5156,1254.625 Q759.125,1254.625 758.875,1254.3906 Q758.625,1254.1719 758.5156,1253.5625 Q758.4531,1253.1406 758.2344,1252.9219 Q757.8438,1252.4844 757.125,1252.2188 Q756.4063,1251.9531 755.6875,1251.9531 Q754.7813,1251.9531 754.0313,1252.3438 Q753.2813,1252.7344 752.7031,1253.625 Q752.125,1254.5 752.125,1255.7031 L752.125,1257 Q752.125,1258.4531 753.1719,1259.4219 Q754.2344,1260.3906 756.0938,1260.3906 Q757.2031,1260.3906 757.9844,1260.0781 Q758.4219,1259.9063 758.9375,1259.3906 Q759.25,1259.0781 759.4219,1258.9844 Q759.5938,1258.8906 759.8281,1258.8906 Q760.2188,1258.8906 760.5156,1259.2031 Q760.8281,1259.5 760.8281,1259.9063 Q760.8281,1260.3125 760.4219,1260.7813 Q759.8281,1261.4688 758.8906,1261.8594 Q757.625,1262.3906 756.1094,1262.3906 Q754.3281,1262.3906 752.9063,1261.6563 Q751.75,1261.0625 750.9375,1259.7969 Q750.125,1258.5313 750.125,1257.0469 L750.125,1255.6875 Q750.125,1254.125 750.8438,1252.7813 Q751.5781,1251.4219 752.8594,1250.6875 Q754.1563,1249.9531 755.6094,1249.9531 Q756.4688,1249.9531 757.2188,1250.1563 Q757.9844,1250.3594 758.6406,1250.7656 Z " fill="#000000"/><text fill="#000000" font-family="sans-serif" font-size="20" font-style="italic" lengthAdjust="spacing" textLength="126" x="815.5" y="1238.8711">«Persistence»</text><text fill="#000000" font-family="sans-serif" font-size="20" font-style="italic" lengthAdjust="spacing" textLength="117" x="820" y="1264.0273">«Repository»</text><text fill="#000000" font-family="sans-serif" font-size="20" lengthAdjust="spacing" textLength="200" x="778.5" y="1289.1836">JobOpeningRepository</text><line style="stroke:#181818;stroke-width:0.5;" x1="561.5" x2="1160.5" y1="1298.5781" y2="1298.5781"/><line style="stroke:#181818;stroke-width:0.5;" x1="561.5" x2="1160.5" y1="1306.5781" y2="1306.5781"/><ellipse cx="571.5" cy="1324.6563" fill="#84BE84" rx="3" ry="3" style="stroke:#038048;stroke-width:1.0;"/><text fill="#000000" font-family="sans-serif" font-size="20" lengthAdjust="spacing" textLength="236" x="581.5" y="1331.3398">rebuild(JobOpening: entity)</text><ellipse cx="571.5" cy="1349.8125" fill="#84BE84" rx="3" ry="3" style="stroke:#038048;stroke-width:1.0;"/><text fill="#000000" font-family="sans-serif" font-size="20" lengthAdjust="spacing" textLength="574" x="581.5" y="1356.4961">getJobOpeningListMatchingCostumerCode(String costumerCode)</text></g><!--class CriteriaRepository--><g id="elem_CriteriaRepository"><rect codeLine="75" fill="#F1F1F1" height="151.7813" id="CriteriaRepository" rx="2.5" ry="2.5" style="stroke:#181818;stroke-width:0.5;" width="205" x="1705.5" y="648.6094"/><ellipse cx="1726.9" cy="691.3438" fill="#ADD1B2" rx="12" ry="12" style="stroke:#181818;stroke-width:1.0;"/><path d="M1729.0406,686.2656 Q1729.2281,686.0156 1729.4469,685.8906 Q1729.6656,685.75 1729.9156,685.75 Q1730.3531,685.75 1730.6344,686.0625 Q1730.9156,686.3594 1730.9156,687.0781 L1730.9156,688.7813 Q1730.9156,689.5 1730.6344,689.8125 Q1730.3531,690.125 1729.9156,690.125 Q1729.525,690.125 1729.275,689.8906 Q1729.025,689.6719 1728.9156,689.0625 Q1728.8531,688.6406 1728.6344,688.4219 Q1728.2438,687.9844 1727.525,687.7188 Q1726.8063,687.4531 1726.0875,687.4531 Q1725.1813,687.4531 1724.4313,687.8438 Q1723.6813,688.2344 1723.1031,689.125 Q1722.525,690 1722.525,691.2031 L1722.525,692.5 Q1722.525,693.9531 1723.5719,694.9219 Q1724.6344,695.8906 1726.4938,695.8906 Q1727.6031,695.8906 1728.3844,695.5781 Q1728.8219,695.4063 1729.3375,694.8906 Q1729.65,694.5781 1729.8219,694.4844 Q1729.9938,694.3906 1730.2281,694.3906 Q1730.6188,694.3906 1730.9156,694.7031 Q1731.2281,695 1731.2281,695.4063 Q1731.2281,695.8125 1730.8219,696.2813 Q1730.2281,696.9688 1729.2906,697.3594 Q1728.025,697.8906 1726.5094,697.8906 Q1724.7281,697.8906 1723.3063,697.1563 Q1722.15,696.5625 1721.3375,695.2969 Q1720.525,694.0313 1720.525,692.5469 L1720.525,691.1875 Q1720.525,689.625 1721.2438,688.2813 Q1721.9781,686.9219 1723.2594,686.1875 Q1724.5563,685.4531 1726.0094,685.4531 Q1726.8688,685.4531 1727.6188,685.6563 Q1728.3844,685.8594 1729.0406,686.2656 Z " fill="#000000"/><text fill="#000000" font-family="sans-serif" font-size="20" font-style="italic" lengthAdjust="spacing" textLength="126" x="1759.6" y="674.3711">«Persistence»</text><text fill="#000000" font-family="sans-serif" font-size="20" font-style="italic" lengthAdjust="spacing" textLength="117" x="1764.1" y="699.5273">«Repository»</text><text fill="#000000" font-family="sans-serif" font-size="20" lengthAdjust="spacing" textLength="159" x="1743.1" y="724.6836">CriteriaRepository</text><line style="stroke:#181818;stroke-width:0.5;" x1="1706.5" x2="1909.5" y1="734.0781" y2="734.0781"/><line style="stroke:#181818;stroke-width:0.5;" x1="1706.5" x2="1909.5" y1="742.0781" y2="742.0781"/><ellipse cx="1716.5" cy="760.1563" fill="#84BE84" rx="3" ry="3" style="stroke:#038048;stroke-width:1.0;"/><text fill="#000000" font-family="sans-serif" font-size="20" lengthAdjust="spacing" textLength="178" x="1726.5" y="766.8398">save(Criteria: entity)</text><ellipse cx="1716.5" cy="785.3125" fill="#84BE84" rx="3" ry="3" style="stroke:#038048;stroke-width:1.0;"/><text fill="#000000" font-family="sans-serif" font-size="20" lengthAdjust="spacing" textLength="177" x="1726.5" y="791.9961">jobOpeningCriteria()</text></g><!--class CustomerRepository--><g id="elem_CustomerRepository"><rect codeLine="80" fill="#F1F1F1" height="151.7813" id="CustomerRepository" rx="2.5" ry="2.5" style="stroke:#181818;stroke-width:0.5;" width="489" x="1739.5" y="1213.1094"/><ellipse cx="1889.5" cy="1255.8438" fill="#ADD1B2" rx="12" ry="12" style="stroke:#181818;stroke-width:1.0;"/><path d="M1891.6406,1250.7656 Q1891.8281,1250.5156 1892.0469,1250.3906 Q1892.2656,1250.25 1892.5156,1250.25 Q1892.9531,1250.25 1893.2344,1250.5625 Q1893.5156,1250.8594 1893.5156,1251.5781 L1893.5156,1253.2813 Q1893.5156,1254 1893.2344,1254.3125 Q1892.9531,1254.625 1892.5156,1254.625 Q1892.125,1254.625 1891.875,1254.3906 Q1891.625,1254.1719 1891.5156,1253.5625 Q1891.4531,1253.1406 1891.2344,1252.9219 Q1890.8438,1252.4844 1890.125,1252.2188 Q1889.4063,1251.9531 1888.6875,1251.9531 Q1887.7813,1251.9531 1887.0313,1252.3438 Q1886.2813,1252.7344 1885.7031,1253.625 Q1885.125,1254.5 1885.125,1255.7031 L1885.125,1257 Q1885.125,1258.4531 1886.1719,1259.4219 Q1887.2344,1260.3906 1889.0938,1260.3906 Q1890.2031,1260.3906 1890.9844,1260.0781 Q1891.4219,1259.9063 1891.9375,1259.3906 Q1892.25,1259.0781 1892.4219,1258.9844 Q1892.5938,1258.8906 1892.8281,1258.8906 Q1893.2188,1258.8906 1893.5156,1259.2031 Q1893.8281,1259.5 1893.8281,1259.9063 Q1893.8281,1260.3125 1893.4219,1260.7813 Q1892.8281,1261.4688 1891.8906,1261.8594 Q1890.625,1262.3906 1889.1094,1262.3906 Q1887.3281,1262.3906 1885.9063,1261.6563 Q1884.75,1261.0625 1883.9375,1259.7969 Q1883.125,1258.5313 1883.125,1257.0469 L1883.125,1255.6875 Q1883.125,1254.125 1883.8438,1252.7813 Q1884.5781,1251.4219 1885.8594,1250.6875 Q1887.1563,1249.9531 1888.6094,1249.9531 Q1889.4688,1249.9531 1890.2188,1250.1563 Q1890.9844,1250.3594 1891.6406,1250.7656 Z " fill="#000000"/><text fill="#000000" font-family="sans-serif" font-size="20" font-style="italic" lengthAdjust="spacing" textLength="126" x="1938.5" y="1238.8711">«Persistence»</text><text fill="#000000" font-family="sans-serif" font-size="20" font-style="italic" lengthAdjust="spacing" textLength="117" x="1943" y="1264.0273">«Repository»</text><text fill="#000000" font-family="sans-serif" font-size="20" lengthAdjust="spacing" textLength="180" x="1911.5" y="1289.1836">CustomerRepository</text><line style="stroke:#181818;stroke-width:0.5;" x1="1740.5" x2="2227.5" y1="1298.5781" y2="1298.5781"/><line style="stroke:#181818;stroke-width:0.5;" x1="1740.5" x2="2227.5" y1="1306.5781" y2="1306.5781"/><ellipse cx="1750.5" cy="1324.6563" fill="#84BE84" rx="3" ry="3" style="stroke:#038048;stroke-width:1.0;"/><text fill="#000000" font-family="sans-serif" font-size="20" lengthAdjust="spacing" textLength="163" x="1760.5" y="1331.3398">save(e: Customer)</text><ellipse cx="1750.5" cy="1349.8125" fill="#84BE84" rx="3" ry="3" style="stroke:#038048;stroke-width:1.0;"/><text fill="#000000" font-family="sans-serif" font-size="20" lengthAdjust="spacing" textLength="462" x="1760.5" y="1356.4961">getCostumersByUsername(EmailAddress username)</text></g><!--class RepositoryDatabase--><g id="elem_RepositoryDatabase"><rect codeLine="85" fill="#F1F1F1" height="101.4688" id="RepositoryDatabase" rx="2.5" ry="2.5" style="stroke:#181818;stroke-width:0.5;" width="264" x="1835" y="397.6094"/><ellipse cx="1873.95" cy="427.7656" fill="#B4A7E5" rx="12" ry="12" style="stroke:#181818;stroke-width:1.0;"/><path d="M1874.95,423.9375 L1874.95,431.7656 L1876.9813,431.7656 Q1877.7,431.7656 1877.9969,432.0469 Q1878.3094,432.3125 1878.3094,432.7656 Q1878.3094,433.2031 1877.9969,433.4844 Q1877.7,433.7656 1876.9813,433.7656 L1870.9344,433.7656 Q1870.2,433.7656 1869.8875,433.4844 Q1869.5906,433.2031 1869.5906,432.7656 Q1869.5906,432.3125 1869.8875,432.0469 Q1870.2,431.7656 1870.9344,431.7656 L1872.95,431.7656 L1872.95,423.9375 L1870.9344,423.9375 Q1870.2,423.9375 1869.8875,423.6563 Q1869.5906,423.375 1869.5906,422.9219 Q1869.5906,422.4688 1869.8875,422.2031 Q1870.2,421.9219 1870.9344,421.9219 L1876.9813,421.9219 Q1877.7,421.9219 1877.9969,422.2031 Q1878.3094,422.4688 1878.3094,422.9219 Q1878.3094,423.375 1877.9969,423.6563 Q1877.7,423.9375 1876.9813,423.9375 L1874.95,423.9375 Z " fill="#000000"/><text fill="#000000" font-family="sans-serif" font-size="20" font-style="italic" lengthAdjust="spacing" textLength="126" x="1920.55" y="423.3711">«Persistence»</text><text fill="#000000" font-family="sans-serif" font-size="20" font-style="italic" lengthAdjust="spacing" textLength="179" x="1894.05" y="448.5273">RepositoryDatabase</text><line style="stroke:#181818;stroke-width:0.5;" x1="1836" x2="2098" y1="457.9219" y2="457.9219"/><line style="stroke:#181818;stroke-width:0.5;" x1="1836" x2="2098" y1="465.9219" y2="465.9219"/><ellipse cx="1846" cy="484" fill="#84BE84" rx="3" ry="3" style="stroke:#038048;stroke-width:1.0;"/><text fill="#000000" font-family="sans-serif" font-size="20" lengthAdjust="spacing" textLength="237" x="1856" y="490.6836">save(Customer: Customer)</text></g><!--link ListJobOpeningUI to ListJobOpeningController--><g id="link_ListJobOpeningUI_ListJobOpeningController"><path codeLine="92" d="M1400,561.9494 C1400,593.8294 1400,627.5194 1400,655.8494 " fill="none" id="ListJobOpeningUI-to-ListJobOpeningController" style="stroke:#181818;stroke-width:1.0;stroke-dasharray:7.0,7.0;"/><polygon fill="#181818" points="1400,661.0794,1404,652.0794,1400,656.0794,1396,652.0794,1400,661.0794" style="stroke:#181818;stroke-width:1.0;"/></g><!--link ListJobOpeningController to CriteriaRepository--><g id="link_ListJobOpeningController_CriteriaRepository"><path codeLine="93" d="M1527.9,724.6094 C1585.34,724.6094 1642.78,724.6094 1700.22,724.6094 " fill="none" id="ListJobOpeningController-to-CriteriaRepository" style="stroke:#181818;stroke-width:1.0;stroke-dasharray:7.0,7.0;"/><polygon fill="#181818" points="1705.42,724.6094,1696.42,720.6094,1700.42,724.6094,1696.42,728.6094,1705.42,724.6094" style="stroke:#181818;stroke-width:1.0;"/></g><!--link ListJobOpeningController to Criteria--><g id="link_ListJobOpeningController_Criteria"><path codeLine="94" d="M1513.65,788.1494 C1571.22,819.8194 1640.81,858.1094 1697.87,889.5094 " fill="none" id="ListJobOpeningController-to-Criteria" style="stroke:#181818;stroke-width:1.0;stroke-dasharray:7.0,7.0;"/><polygon fill="#181818" points="1702.31,891.9494,1696.3547,884.105,1697.9298,889.5381,1692.4967,891.1133,1702.31,891.9494" style="stroke:#181818;stroke-width:1.0;"/></g><!--link ListJobOpeningController to CustomerManagementService--><g id="link_ListJobOpeningController_CustomerManagementService"><path codeLine="95" d="M1400,788.1494 C1400,821.7694 1400,862.8394 1400,895.2194 " fill="none" id="ListJobOpeningController-to-CustomerManagementService" style="stroke:#181818;stroke-width:1.0;stroke-dasharray:7.0,7.0;"/><polygon fill="#181818" points="1400,900.3394,1404,891.3394,1400,895.3394,1396,891.3394,1400,900.3394" style="stroke:#181818;stroke-width:1.0;"/></g><!--link ListJobOpeningController to JobOpeningManagementService--><g id="link_ListJobOpeningController_JobOpeningManagementService"><path codeLine="96" d="M1284.29,788.2694 C1274.5,792.7094 1264.65,796.8894 1255,800.6094 C1167.51,834.3194 1069.57,863.1494 980.08,886.2394 " fill="none" id="ListJobOpeningController-to-JobOpeningManagementService" style="stroke:#181818;stroke-width:1.0;stroke-dasharray:7.0,7.0;"/><polygon fill="#181818" points="975.01,887.5394,984.7218,889.1766,979.8531,886.2965,982.7332,881.4277,975.01,887.5394" style="stroke:#181818;stroke-width:1.0;"/></g><!--link ListJobOpeningController to JobOpeningListDTOService--><g id="link_ListJobOpeningController_JobOpeningListDTOService"><path codeLine="97" d="M1289.39,788.2594 C1278.02,793.0494 1266.43,797.2894 1255,800.6094 C1042.48,862.2794 421.3,732.9794 263,887.6094 C223.54,926.1594 223.02,992.3394 228.99,1039.3894 " fill="none" id="ListJobOpeningController-to-JobOpeningListDTOService" style="stroke:#181818;stroke-width:1.0;stroke-dasharray:7.0,7.0;"/><polygon fill="#181818" points="229.67,1044.4494,232.4258,1034.9939,228.9989,1039.4946,224.4982,1036.0677,229.67,1044.4494" style="stroke:#181818;stroke-width:1.0;"/></g><!--link CustomerManagementService to CustomerRepository--><g id="link_CustomerManagementService_CustomerRepository"><path codeLine="100" d="M1486.17,1001.6894 C1581.7,1056.6494 1737.02,1146.0094 1848.79,1210.3194 " fill="none" id="CustomerManagementService-to-CustomerRepository" style="stroke:#181818;stroke-width:1.0;"/><polygon fill="#181818" points="1853.41,1212.9694,1847.6057,1205.0126,1849.0767,1210.4749,1843.6145,1211.9459,1853.41,1212.9694" style="stroke:#181818;stroke-width:1.0;"/></g><!--link CustomerManagementService to Customer--><g id="link_CustomerManagementService_Customer"><path codeLine="101" d="M1400,1001.6894 C1400,1045.8994 1400,1112.3694 1400,1170.1494 " fill="none" id="CustomerManagementService-to-Customer" style="stroke:#181818;stroke-width:1.0;"/><polygon fill="#181818" points="1400,1175.3594,1404,1166.3594,1400,1170.3594,1396,1166.3594,1400,1175.3594" style="stroke:#181818;stroke-width:1.0;"/></g><!--link JobOpeningManagementService to JobOpeningRepository--><g id="link_JobOpeningManagementService_JobOpeningRepository"><path codeLine="102" d="M721.15,1014.9094 C749.15,1069.6194 789.9,1149.2194 820.2,1208.3994 " fill="none" id="JobOpeningManagementService-to-JobOpeningRepository" style="stroke:#181818;stroke-width:1.0;"/><polygon fill="#181818" points="822.54,1212.9794,822.0046,1203.1451,820.2639,1208.5275,814.8816,1206.7868,822.54,1212.9794" style="stroke:#181818;stroke-width:1.0;"/></g><!--link JobOpeningManagementService to JobOpening--><g id="link_JobOpeningManagementService_JobOpening"><path codeLine="103" d="M635.54,1015.0194 C602.72,1057.4794 563.22,1116.3994 543,1175.6094 C512.19,1265.7994 502.5,1371.8094 500.83,1458.3794 " fill="none" id="JobOpeningManagementService-to-JobOpening" style="stroke:#181818;stroke-width:1.0;"/><polygon fill="#181818" points="500.74,1463.5294,504.8937,1454.5993,500.8257,1458.5301,496.8949,1454.4621,500.74,1463.5294" style="stroke:#181818;stroke-width:1.0;"/></g><!--link JobOpeningListDTOService to JobOpening--><g id="link_JobOpeningListDTOService_JobOpening"><path codeLine="104" d="M265.12,1146.0194 C300.84,1216.9994 368.04,1350.5094 422.56,1458.8294 " fill="none" id="JobOpeningListDTOService-to-JobOpening" style="stroke:#181818;stroke-width:1.0;"/><polygon fill="#181818" points="424.82,1463.3194,424.3476,1453.4819,422.5725,1458.853,417.2014,1457.0779,424.82,1463.3194" style="stroke:#181818;stroke-width:1.0;"/></g><!--link CriteriaRepository to Criteria--><g id="link_CriteriaRepository_Criteria"><path codeLine="108" d="M1808,800.6794 C1808,827.0894 1808,856.5894 1808,882.3594 " fill="none" id="CriteriaRepository-to-Criteria" style="stroke:#181818;stroke-width:1.0;"/><polygon fill="#181818" points="1808,887.4694,1812,878.4694,1808,882.4694,1804,878.4694,1808,887.4694" style="stroke:#181818;stroke-width:1.0;"/></g><!--link JobOpeningRepository to JobOpening--><g id="link_JobOpeningRepository_JobOpening"><path codeLine="109" d="M782,1365.2094 C752.41,1393.3394 717.48,1426.5294 682.63,1459.6694 " fill="none" id="JobOpeningRepository-to-JobOpening" style="stroke:#181818;stroke-width:1.0;"/><polygon fill="#181818" points="678.82,1463.2894,688.102,1459.9964,682.4471,1459.8479,682.5956,1454.193,678.82,1463.2894" style="stroke:#181818;stroke-width:1.0;"/></g><!--reverse link RepositoryDatabase to JobOpeningRepository--><g id="link_RepositoryDatabase_JobOpeningRepository"><path codeLine="112" d="M1967.17,518.7894 C1966.86,661.7094 1962.58,977.7594 1931,1014.6094 C1715.09,1266.5594 1521.96,1087.7394 1202,1175.6094 C1161.42,1186.7494 1118.54,1199.8394 1077.38,1213.0694 " fill="none" id="RepositoryDatabase-backto-JobOpeningRepository" style="stroke:#181818;stroke-width:1.0;stroke-dasharray:7.0,7.0;"/><polygon fill="none" points="1960.17,518.5994,1967.19,498.6094,1974.17,518.6194,1960.17,518.5994" style="stroke:#181818;stroke-width:1.0;"/><text fill="#000000" font-family="sans-serif" font-size="20" lengthAdjust="spacing" textLength="99" x="1960" y="852.3711">implements</text></g><!--reverse link RepositoryDatabase to CriteriaRepository--><g id="link_RepositoryDatabase_CriteriaRepository"><path codeLine="113" d="M1897.45,513.5594 C1876.29,536.3894 1854.76,563.4594 1840,591.6094 C1830.86,609.0494 1824.27,629.1494 1819.55,648.3294 " fill="none" id="RepositoryDatabase-backto-CriteriaRepository" style="stroke:#181818;stroke-width:1.0;stroke-dasharray:7.0,7.0;"/><polygon fill="none" points="1892.68,508.4094,1911.58,498.8294,1902.78,518.0994,1892.68,508.4094" style="stroke:#181818;stroke-width:1.0;"/><text fill="#000000" font-family="sans-serif" font-size="20" lengthAdjust="spacing" textLength="99" x="1841" y="613.3711">implements</text></g><!--reverse link RepositoryDatabase to CustomerRepository--><g id="link_RepositoryDatabase_CustomerRepository"><path codeLine="114" d="M1991.23,517.8794 C2016.47,593.4294 2054.33,718.9194 2069,830.6094 C2086.81,966.1794 2043.92,1122.4594 2012.8,1212.8094 " fill="none" id="RepositoryDatabase-backto-CustomerRepository" style="stroke:#181818;stroke-width:1.0;stroke-dasharray:7.0,7.0;"/><polygon fill="none" points="1984.58,520.0494,1984.79,498.8694,1997.84,515.5694,1984.58,520.0494" style="stroke:#181818;stroke-width:1.0;"/><text fill="#000000" font-family="sans-serif" font-size="20" lengthAdjust="spacing" textLength="99" x="2072" y="852.3711">implements</text></g><!--reverse link AbstractListUI to ListJobOpeningUI--><g id="link_AbstractListUI_ListJobOpeningUI"><path codeLine="116" d="M1400,268.0094 C1400,289.9294 1400,312.7194 1400,334.3994 " fill="none" id="AbstractListUI-backto-ListJobOpeningUI" style="stroke:#181818;stroke-width:1.0;stroke-dasharray:7.0,7.0;"/><polygon fill="none" points="1393,267.7594,1400,247.7594,1407,267.7594,1393,267.7594" style="stroke:#181818;stroke-width:1.0;"/><text fill="#000000" font-family="sans-serif" font-size="20" lengthAdjust="spacing" textLength="99" x="1401" y="299.3711">implements</text></g><!--link AuthorizationService to ListJobOpeningController--><g id="link_AuthorizationService_ListJobOpeningController"><path codeLine="119" d="M1237.56,724.6094 C1247.46,724.6094 1257.37,724.6094 1267.28,724.6094 " fill="none" id="AuthorizationService-to-ListJobOpeningController" style="stroke:#181818;stroke-width:1.0;stroke-dasharray:7.0,7.0;"/><polygon fill="#181818" points="1272.46,724.6094,1263.46,720.6094,1267.46,724.6094,1263.46,728.6094,1272.46,724.6094" style="stroke:#181818;stroke-width:1.0;"/></g><!--SRC=[bLRTRzem47_FNs5f3p2XqcvxGmWfWtRhDDeAolOu6US8NXCxivrMxED_tza9jLCInbwGuxlVVVbtT-W7BWggQ9v9zW09IM13oynSIM6M_2UGjnTHRsjCeKVdvqL6XIdpRCXaViuoglLPmccAu2Wot6H0Liit5nVloDJAo6mluyA0sb0695vheoWpdxasg-jVqIi26UGWZEw_zXztoY6ggxmmkpbeJLDm5nb2Fm9Dzl8ASaDpwEDd8fTR-OIIFr7a8YJJKXkPWvfJWIQixXBK8yTWnkFwD9cGNz60f61YhNag89bAZOc2cie4j0ssVvbJdiL9eZ0KKcfG0Zssk46hCucw0esEnt6QAaYf0RAGqZW_Py-grZXXmOULoRoWOcVJ8SoVKT88WDNnLKaf9yCCGcDOWq5e8gp99xc-BK1maPvK5Q-khvJC6yNfs-gCmvGcX7PLqOQquHc-hJVfgbiPKHmbd4u8gqyLfYLiAvZTttR5pAHu16Nk9UfKjZrqGhutp0JsxQTNN5sZtJiiDnQ76Yv5RJnWxE2GiOENZ1qq6JjeCdRGmjXc65FiH2Mpp54hBegCip0QV9vztPprndEvseOahJL3abf69Y1apeMpIqPaQJ2T58qPLy30G5oQhLJyfzFigducqnGIBbRO9L-vsTw1oZbIGWhTNqYS4iFXaCJCENjFDTYxuNIrlB-TNow-pUER-CFbelNPJsWkLBugHMLyKnzSNmatUEvtXMqi_u6ohr8zp6qlFjK7lDitckTAVLEvMC0650XC_dlmWRARCb-3-a8P5Mn7H9bNHmurS0OQoLsuy19_Hk42VfHSLQrO0EER-fs9yWBTa5WG5Gz4uKzRjHPGICsDL3jBP50QsM33TCNpmlhL5AnBdYLzZnyHTCdDhfLMSshOrj7JztY_8ixpTB9tBUpxlxWqVOJ-7Xg6v9ycQ823UHmu-vStxmv6p_Ww-NsQ-lrkLG__8ol1BpplO4ODNIFR3wBmITOkG-TeBEhXLfACkpVNKGzRXZDobScdw61W3OUJpl4HTSuL11s-pKdgHvIiLjVgFGuxifrE1JRt0vQm6XlaCzrX8Rh_4fmbyacSJLhOSmmK0A9ZgzKgjhNdVu2YpXtuGWzp3cYsJ_om0rtm-zTidHql3VUkdzdDyw9QPjKyQYFxRvprhMP77gqxaIq1duOxxFu6Bch-4Qr01ztKXFJiyhFZfvw-hRjmg7YwDSUwy2y0]--></g></svg>