<?xml version="1.0" encoding="UTF-8" standalone="no"?><svg xmlns="http://www.w3.org/2000/svg" xmlns:xlink="http://www.w3.org/1999/xlink" contentStyleType="text/css" height="2166px" preserveAspectRatio="none" style="width:5459px;height:2166px;background:#FFFFFF;" version="1.1" viewBox="0 0 5459 2166" width="5459px" zoomAndPan="magnify"><defs/><g><text fill="#000000" font-family="sans-serif" font-size="14" font-weight="bold" lengthAdjust="spacing" textLength="187" x="2637.75" y="29.5332">US3000 Sequence Diagram</text><rect fill="#FFFFFF" height="1895.0313" style="stroke:#181818;stroke-width:1.0;" width="10" x="87.5" y="149.9219"/><rect fill="#FFFFFF" height="1829.875" style="stroke:#181818;stroke-width:1.0;" width="10" x="512.5" y="206.0781"/><rect fill="#FFFFFF" height="30" style="stroke:#181818;stroke-width:1.0;" width="10" x="847.5" y="245.2344"/><rect fill="#FFFFFF" height="1285.8438" style="stroke:#181818;stroke-width:1.0;" width="10" x="847.5" y="404.8594"/><rect fill="#FFFFFF" height="39.1563" style="stroke:#181818;stroke-width:1.0;" width="10" x="847.5" y="1774.1719"/><rect fill="#FFFFFF" height="1207.5313" style="stroke:#181818;stroke-width:1.0;" width="10" x="1182.5" y="444.0156"/><rect fill="#FFFFFF" height="42.1563" style="stroke:#181818;stroke-width:1.0;" width="10" x="1182.5" y="1813.3281"/><rect fill="#FFFFFF" height="42.1563" style="stroke:#181818;stroke-width:1.0;" width="10" x="1746.5" y="486.1719"/><rect fill="#FFFFFF" height="75.1563" style="stroke:#181818;stroke-width:1.0;" width="10" x="1746.5" y="1855.4844"/><rect fill="#FFFFFF" height="1051.4844" style="stroke:#181818;stroke-width:1.0;" width="10" x="2271" y="538.3281"/><rect fill="#FFFFFF" height="28" style="stroke:#181818;stroke-width:1.0;" width="10" x="2276" y="1186.6719"/><rect fill="#FFFFFF" height="561.0313" style="stroke:#181818;stroke-width:1.0;" width="10" x="2635" y="578.4844"/><rect fill="#FFFFFF" height="28" style="stroke:#181818;stroke-width:1.0;" width="10" x="2640" y="1044.3594"/><rect fill="#FFFFFF" height="30" style="stroke:#181818;stroke-width:1.0;" width="10" x="3289" y="617.6406"/><rect fill="#FFFFFF" height="69.1563" style="stroke:#181818;stroke-width:1.0;" width="10" x="3558.5" y="928.0469"/><rect fill="#FFFFFF" height="30" style="stroke:#181818;stroke-width:1.0;" width="10" x="3737" y="967.2031"/><rect fill="#FFFFFF" height="69.1563" style="stroke:#181818;stroke-width:1.0;" width="10" x="3956.5" y="731.1094"/><rect fill="#FFFFFF" height="30" style="stroke:#181818;stroke-width:1.0;" width="10" x="4466.5" y="770.2656"/><rect fill="#FFFFFF" height="39.1563" style="stroke:#181818;stroke-width:1.0;" width="10" x="4769.5" y="1355.2969"/><rect fill="#FFFFFF" height="39.1563" style="stroke:#181818;stroke-width:1.0;" width="10" x="4769.5" y="1444.6094"/><rect fill="none" height="438.7188" style="stroke:#000000;stroke-width:1.5;" width="2124.5" x="2463" y="662.6406"/><rect fill="none" height="279.0938" style="stroke:#000000;stroke-width:1.5;" width="1346.5" x="2473" y="815.2656"/><rect fill="none" height="227.7813" style="stroke:#000000;stroke-width:1.5;" width="1326.5" x="2483" y="859.5781"/><rect fill="none" height="204.9375" style="stroke:#000000;stroke-width:1.5;" width="3293" x="2160.5" y="1286.8281"/><rect fill="none" height="107.625" style="stroke:#000000;stroke-width:1.5;" width="1592" x="1046" y="1505.7656"/><rect fill="none" height="292.0938" style="stroke:#000000;stroke-width:1.5;" width="1568" x="379.5" y="1705.7031"/><line style="stroke:#181818;stroke-width:0.5;stroke-dasharray:5.0,5.0;" x1="92" x2="92" y1="139.9219" y2="2053.9531"/><line style="stroke:#181818;stroke-width:0.5;stroke-dasharray:5.0,5.0;" x1="517.5" x2="517.5" y1="139.9219" y2="2053.9531"/><line style="stroke:#181818;stroke-width:0.5;stroke-dasharray:5.0,5.0;" x1="852.5" x2="852.5" y1="139.9219" y2="2053.9531"/><line style="stroke:#181818;stroke-width:0.5;stroke-dasharray:5.0,5.0;" x1="1187" x2="1187" y1="139.9219" y2="2053.9531"/><line style="stroke:#181818;stroke-width:0.5;stroke-dasharray:5.0,5.0;" x1="1751.5" x2="1751.5" y1="139.9219" y2="2053.9531"/><line style="stroke:#181818;stroke-width:0.5;stroke-dasharray:5.0,5.0;" x1="2275.5" x2="2275.5" y1="532.25" y2="2053.9531"/><line style="stroke:#181818;stroke-width:0.5;stroke-dasharray:5.0,5.0;" x1="2640" x2="2640" y1="139.9219" y2="2053.9531"/><line style="stroke:#181818;stroke-width:0.5;stroke-dasharray:5.0,5.0;" x1="3293.5" x2="3293.5" y1="139.9219" y2="2053.9531"/><line style="stroke:#181818;stroke-width:0.5;stroke-dasharray:5.0,5.0;" x1="3563.5" x2="3563.5" y1="139.9219" y2="2053.9531"/><line style="stroke:#181818;stroke-width:0.5;stroke-dasharray:5.0,5.0;" x1="3741.5" x2="3741.5" y1="139.9219" y2="2053.9531"/><line style="stroke:#181818;stroke-width:0.5;stroke-dasharray:5.0,5.0;" x1="3961.5" x2="3961.5" y1="139.9219" y2="2053.9531"/><line style="stroke:#181818;stroke-width:0.5;stroke-dasharray:5.0,5.0;" x1="4239.5" x2="4239.5" y1="139.9219" y2="2053.9531"/><line style="stroke:#181818;stroke-width:0.5;stroke-dasharray:5.0,5.0;" x1="4471.5" x2="4471.5" y1="139.9219" y2="2053.9531"/><line style="stroke:#181818;stroke-width:0.5;stroke-dasharray:5.0,5.0;" x1="4649.5" x2="4649.5" y1="139.9219" y2="2053.9531"/><line style="stroke:#181818;stroke-width:0.5;stroke-dasharray:5.0,5.0;" x1="4774.5" x2="4774.5" y1="1264.75" y2="2053.9531"/><line style="stroke:#181818;stroke-width:0.5;stroke-dasharray:5.0,5.0;" x1="5388.5" x2="5388.5" y1="1398.375" y2="2053.9531"/><text fill="#000000" font-family="sans-serif" font-size="20" lengthAdjust="spacing" textLength="169" x="5" y="135.5273">Customer Manager</text><ellipse cx="92.5" cy="63.2656" fill="#E2E2F0" rx="8" ry="8" style="stroke:#181818;stroke-width:0.5;"/><path d="M92.5,71.2656 L92.5,98.2656 M79.5,79.2656 L105.5,79.2656 M92.5,98.2656 L79.5,113.2656 M92.5,98.2656 L105.5,113.2656 " fill="none" style="stroke:#181818;stroke-width:0.5;"/><text fill="#000000" font-family="sans-serif" font-size="20" lengthAdjust="spacing" textLength="169" x="5" y="2073.7148">Customer Manager</text><ellipse cx="92.5" cy="2086.6094" fill="#E2E2F0" rx="8" ry="8" style="stroke:#181818;stroke-width:0.5;"/><path d="M92.5,2094.6094 L92.5,2121.6094 M79.5,2102.6094 L105.5,2102.6094 M92.5,2121.6094 L79.5,2136.6094 M92.5,2121.6094 L105.5,2136.6094 " fill="none" style="stroke:#181818;stroke-width:0.5;"/><rect fill="#E2E2F0" height="64.3125" rx="2.5" ry="2.5" style="stroke:#181818;stroke-width:0.5;" width="256" x="389.5" y="74.6094"/><text fill="#000000" font-family="sans-serif" font-size="20" lengthAdjust="spacing" textLength="130" x="452.5" y="102.3711">«presentation»</text><text fill="#000000" font-family="sans-serif" font-size="20" lengthAdjust="spacing" textLength="242" x="396.5" y="127.5273">:ListApplicationsAndStateUI</text><rect fill="#E2E2F0" height="64.3125" rx="2.5" ry="2.5" style="stroke:#181818;stroke-width:0.5;" width="256" x="389.5" y="2052.9531"/><text fill="#000000" font-family="sans-serif" font-size="20" lengthAdjust="spacing" textLength="130" x="452.5" y="2080.7148">«presentation»</text><text fill="#000000" font-family="sans-serif" font-size="20" lengthAdjust="spacing" textLength="242" x="396.5" y="2105.8711">:ListApplicationsAndStateUI</text><rect fill="#E2E2F0" height="64.3125" rx="2.5" ry="2.5" style="stroke:#181818;stroke-width:0.5;" width="322" x="691.5" y="74.6094"/><text fill="#000000" font-family="sans-serif" font-size="20" lengthAdjust="spacing" textLength="115" x="795" y="102.3711">«application»</text><text fill="#000000" font-family="sans-serif" font-size="20" lengthAdjust="spacing" textLength="308" x="698.5" y="127.5273">:ListApplicationsAndStateController</text><rect fill="#E2E2F0" height="64.3125" rx="2.5" ry="2.5" style="stroke:#181818;stroke-width:0.5;" width="322" x="691.5" y="2052.9531"/><text fill="#000000" font-family="sans-serif" font-size="20" lengthAdjust="spacing" textLength="115" x="795" y="2080.7148">«application»</text><text fill="#000000" font-family="sans-serif" font-size="20" lengthAdjust="spacing" textLength="308" x="698.5" y="2105.8711">:ListApplicationsAndStateController</text><rect fill="#E2E2F0" height="64.3125" rx="2.5" ry="2.5" style="stroke:#181818;stroke-width:0.5;" width="263" x="1056" y="74.6094"/><text fill="#000000" font-family="sans-serif" font-size="20" lengthAdjust="spacing" textLength="84" x="1145.5" y="102.3711">«service»</text><text fill="#000000" font-family="sans-serif" font-size="20" lengthAdjust="spacing" textLength="249" x="1063" y="127.5273">:FollowUpConnectionService</text><rect fill="#E2E2F0" height="64.3125" rx="2.5" ry="2.5" style="stroke:#181818;stroke-width:0.5;" width="263" x="1056" y="2052.9531"/><text fill="#000000" font-family="sans-serif" font-size="20" lengthAdjust="spacing" textLength="84" x="1145.5" y="2080.7148">«service»</text><text fill="#000000" font-family="sans-serif" font-size="20" lengthAdjust="spacing" textLength="249" x="1063" y="2105.8711">:FollowUpConnectionService</text><rect fill="#E2E2F0" height="39.1563" rx="2.5" ry="2.5" style="stroke:#181818;stroke-width:0.5;" width="228" x="1637.5" y="99.7656"/><text fill="#000000" font-family="sans-serif" font-size="20" lengthAdjust="spacing" textLength="214" x="1644.5" y="127.5273">:ClientConnectionThread</text><rect fill="#E2E2F0" height="39.1563" rx="2.5" ry="2.5" style="stroke:#181818;stroke-width:0.5;" width="228" x="1637.5" y="2052.9531"/><text fill="#000000" font-family="sans-serif" font-size="20" lengthAdjust="spacing" textLength="214" x="1644.5" y="2080.7148">:ClientConnectionThread</text><rect fill="#E2E2F0" height="39.1563" rx="2.5" ry="2.5" style="stroke:#181818;stroke-width:0.5;" width="211" x="2170.5" y="2052.9531"/><text fill="#000000" font-family="sans-serif" font-size="20" lengthAdjust="spacing" textLength="197" x="2177.5" y="2080.7148">:ListingRequestThread</text><rect fill="#E2E2F0" height="64.3125" rx="2.5" ry="2.5" style="stroke:#181818;stroke-width:0.5;" width="294" x="2493" y="74.6094"/><text fill="#000000" font-family="sans-serif" font-size="20" lengthAdjust="spacing" textLength="84" x="2598" y="102.3711">«service»</text><text fill="#000000" font-family="sans-serif" font-size="20" lengthAdjust="spacing" textLength="280" x="2500" y="127.5273">:ApplicationManagementService</text><rect fill="#E2E2F0" height="64.3125" rx="2.5" ry="2.5" style="stroke:#181818;stroke-width:0.5;" width="294" x="2493" y="2052.9531"/><text fill="#000000" font-family="sans-serif" font-size="20" lengthAdjust="spacing" textLength="84" x="2598" y="2080.7148">«service»</text><text fill="#000000" font-family="sans-serif" font-size="20" lengthAdjust="spacing" textLength="280" x="2500" y="2105.8711">:ApplicationManagementService</text><text fill="#000000" font-family="sans-serif" font-size="20" lengthAdjust="spacing" textLength="110" x="3236" y="110.3711">«repository»</text><text fill="#000000" font-family="sans-serif" font-size="20" lengthAdjust="spacing" textLength="291" x="3145.5" y="135.5273">:ApplicationRepositoryRepository</text><path d="M3276,53.6094 C3276,43.6094 3294,43.6094 3294,43.6094 C3294,43.6094 3312,43.6094 3312,53.6094 L3312,79.6094 C3312,89.6094 3294,89.6094 3294,89.6094 C3294,89.6094 3276,89.6094 3276,79.6094 L3276,53.6094 " fill="#E2E2F0" style="stroke:#181818;stroke-width:1.5;"/><path d="M3276,53.6094 C3276,63.6094 3294,63.6094 3294,63.6094 C3294,63.6094 3312,63.6094 3312,53.6094 " fill="none" style="stroke:#181818;stroke-width:1.5;"/><text fill="#000000" font-family="sans-serif" font-size="20" lengthAdjust="spacing" textLength="110" x="3236" y="2073.7148">«repository»</text><text fill="#000000" font-family="sans-serif" font-size="20" lengthAdjust="spacing" textLength="291" x="3145.5" y="2098.8711">:ApplicationRepositoryRepository</text><path d="M3276,2113.2656 C3276,2103.2656 3294,2103.2656 3294,2103.2656 C3294,2103.2656 3312,2103.2656 3312,2113.2656 L3312,2139.2656 C3312,2149.2656 3294,2149.2656 3294,2149.2656 C3294,2149.2656 3276,2149.2656 3276,2139.2656 L3276,2113.2656 " fill="#E2E2F0" style="stroke:#181818;stroke-width:1.5;"/><path d="M3276,2113.2656 C3276,2123.2656 3294,2123.2656 3294,2123.2656 C3294,2123.2656 3312,2123.2656 3312,2113.2656 " fill="none" style="stroke:#181818;stroke-width:1.5;"/><rect fill="#E2E2F0" height="64.3125" rx="2.5" ry="2.5" style="stroke:#181818;stroke-width:0.5;" width="222" x="3452.5" y="74.6094"/><text fill="#000000" font-family="sans-serif" font-size="20" lengthAdjust="spacing" textLength="84" x="3521.5" y="102.3711">«service»</text><text fill="#000000" font-family="sans-serif" font-size="20" lengthAdjust="spacing" textLength="208" x="3459.5" y="127.5273">:ApplicationDTOService</text><rect fill="#E2E2F0" height="64.3125" rx="2.5" ry="2.5" style="stroke:#181818;stroke-width:0.5;" width="222" x="3452.5" y="2052.9531"/><text fill="#000000" font-family="sans-serif" font-size="20" lengthAdjust="spacing" textLength="84" x="3521.5" y="2080.7148">«service»</text><text fill="#000000" font-family="sans-serif" font-size="20" lengthAdjust="spacing" textLength="208" x="3459.5" y="2105.8711">:ApplicationDTOService</text><rect fill="#E2E2F0" height="64.3125" rx="2.5" ry="2.5" style="stroke:#181818;stroke-width:0.5;" width="115" x="3684.5" y="74.6094"/><text fill="#000000" font-family="sans-serif" font-size="20" lengthAdjust="spacing" textLength="85" x="3699.5" y="102.3711">«domain»</text><text fill="#000000" font-family="sans-serif" font-size="20" lengthAdjust="spacing" textLength="101" x="3691.5" y="127.5273">:Application</text><rect fill="#E2E2F0" height="64.3125" rx="2.5" ry="2.5" style="stroke:#181818;stroke-width:0.5;" width="115" x="3684.5" y="2052.9531"/><text fill="#000000" font-family="sans-serif" font-size="20" lengthAdjust="spacing" textLength="85" x="3699.5" y="2080.7148">«domain»</text><text fill="#000000" font-family="sans-serif" font-size="20" lengthAdjust="spacing" textLength="101" x="3691.5" y="2105.8711">:Application</text><rect fill="#E2E2F0" height="64.3125" rx="2.5" ry="2.5" style="stroke:#181818;stroke-width:0.5;" width="304" x="3809.5" y="74.6094"/><text fill="#000000" font-family="sans-serif" font-size="20" lengthAdjust="spacing" textLength="84" x="3919.5" y="102.3711">«service»</text><text fill="#000000" font-family="sans-serif" font-size="20" lengthAdjust="spacing" textLength="290" x="3816.5" y="127.5273">:JobOpeningManagementService</text><rect fill="#E2E2F0" height="64.3125" rx="2.5" ry="2.5" style="stroke:#181818;stroke-width:0.5;" width="304" x="3809.5" y="2052.9531"/><text fill="#000000" font-family="sans-serif" font-size="20" lengthAdjust="spacing" textLength="84" x="3919.5" y="2080.7148">«service»</text><text fill="#000000" font-family="sans-serif" font-size="20" lengthAdjust="spacing" textLength="290" x="3816.5" y="2105.8711">:JobOpeningManagementService</text><rect fill="#E2E2F0" height="64.3125" rx="2.5" ry="2.5" style="stroke:#181818;stroke-width:0.5;" width="232" x="4123.5" y="74.6094"/><text fill="#000000" font-family="sans-serif" font-size="20" lengthAdjust="spacing" textLength="90" x="4194.5" y="102.3711">:«service»</text><text fill="#000000" font-family="sans-serif" font-size="20" lengthAdjust="spacing" textLength="218" x="4130.5" y="127.5273">:JobOpeningDTOService</text><rect fill="#E2E2F0" height="64.3125" rx="2.5" ry="2.5" style="stroke:#181818;stroke-width:0.5;" width="232" x="4123.5" y="2052.9531"/><text fill="#000000" font-family="sans-serif" font-size="20" lengthAdjust="spacing" textLength="90" x="4194.5" y="2080.7148">:«service»</text><text fill="#000000" font-family="sans-serif" font-size="20" lengthAdjust="spacing" textLength="218" x="4130.5" y="2105.8711">:JobOpeningDTOService</text><text fill="#000000" font-family="sans-serif" font-size="20" lengthAdjust="spacing" textLength="110" x="4413.5" y="110.3711">«repository»</text><text fill="#000000" font-family="sans-serif" font-size="20" lengthAdjust="spacing" textLength="206" x="4365.5" y="135.5273">:JobOpeningRepository</text><path d="M4453.5,53.6094 C4453.5,43.6094 4471.5,43.6094 4471.5,43.6094 C4471.5,43.6094 4489.5,43.6094 4489.5,53.6094 L4489.5,79.6094 C4489.5,89.6094 4471.5,89.6094 4471.5,89.6094 C4471.5,89.6094 4453.5,89.6094 4453.5,79.6094 L4453.5,53.6094 " fill="#E2E2F0" style="stroke:#181818;stroke-width:1.5;"/><path d="M4453.5,53.6094 C4453.5,63.6094 4471.5,63.6094 4471.5,63.6094 C4471.5,63.6094 4489.5,63.6094 4489.5,53.6094 " fill="none" style="stroke:#181818;stroke-width:1.5;"/><text fill="#000000" font-family="sans-serif" font-size="20" lengthAdjust="spacing" textLength="110" x="4413.5" y="2073.7148">«repository»</text><text fill="#000000" font-family="sans-serif" font-size="20" lengthAdjust="spacing" textLength="206" x="4365.5" y="2098.8711">:JobOpeningRepository</text><path d="M4453.5,2113.2656 C4453.5,2103.2656 4471.5,2103.2656 4471.5,2103.2656 C4471.5,2103.2656 4489.5,2103.2656 4489.5,2113.2656 L4489.5,2139.2656 C4489.5,2149.2656 4471.5,2149.2656 4471.5,2149.2656 C4471.5,2149.2656 4453.5,2149.2656 4453.5,2139.2656 L4453.5,2113.2656 " fill="#E2E2F0" style="stroke:#181818;stroke-width:1.5;"/><path d="M4453.5,2113.2656 C4453.5,2123.2656 4471.5,2123.2656 4471.5,2123.2656 C4471.5,2123.2656 4489.5,2123.2656 4489.5,2113.2656 " fill="none" style="stroke:#181818;stroke-width:1.5;"/><rect fill="#E2E2F0" height="64.3125" rx="2.5" ry="2.5" style="stroke:#181818;stroke-width:0.5;" width="125" x="4587.5" y="74.6094"/><text fill="#000000" font-family="sans-serif" font-size="20" lengthAdjust="spacing" textLength="85" x="4607.5" y="102.3711">«domain»</text><text fill="#000000" font-family="sans-serif" font-size="20" lengthAdjust="spacing" textLength="111" x="4594.5" y="127.5273">:JobOpening</text><rect fill="#E2E2F0" height="64.3125" rx="2.5" ry="2.5" style="stroke:#181818;stroke-width:0.5;" width="125" x="4587.5" y="2052.9531"/><text fill="#000000" font-family="sans-serif" font-size="20" lengthAdjust="spacing" textLength="85" x="4607.5" y="2080.7148">«domain»</text><text fill="#000000" font-family="sans-serif" font-size="20" lengthAdjust="spacing" textLength="111" x="4594.5" y="2105.8711">:JobOpening</text><rect fill="#E2E2F0" height="39.1563" rx="2.5" ry="2.5" style="stroke:#181818;stroke-width:0.5;" width="104" x="4722.5" y="2052.9531"/><text fill="#000000" font-family="sans-serif" font-size="20" lengthAdjust="spacing" textLength="90" x="4729.5" y="2080.7148">:DataDTO</text><rect fill="#E2E2F0" height="39.1563" rx="2.5" ry="2.5" style="stroke:#181818;stroke-width:0.5;" width="110" x="5333.5" y="2052.9531"/><text fill="#000000" font-family="sans-serif" font-size="20" lengthAdjust="spacing" textLength="96" x="5340.5" y="2080.7148">:DataBlock</text><rect fill="#FFFFFF" height="1895.0313" style="stroke:#181818;stroke-width:1.0;" width="10" x="87.5" y="149.9219"/><rect fill="#FFFFFF" height="1829.875" style="stroke:#181818;stroke-width:1.0;" width="10" x="512.5" y="206.0781"/><rect fill="#FFFFFF" height="30" style="stroke:#181818;stroke-width:1.0;" width="10" x="847.5" y="245.2344"/><rect fill="#FFFFFF" height="1285.8438" style="stroke:#181818;stroke-width:1.0;" width="10" x="847.5" y="404.8594"/><rect fill="#FFFFFF" height="39.1563" style="stroke:#181818;stroke-width:1.0;" width="10" x="847.5" y="1774.1719"/><rect fill="#FFFFFF" height="1207.5313" style="stroke:#181818;stroke-width:1.0;" width="10" x="1182.5" y="444.0156"/><rect fill="#FFFFFF" height="42.1563" style="stroke:#181818;stroke-width:1.0;" width="10" x="1182.5" y="1813.3281"/><rect fill="#FFFFFF" height="42.1563" style="stroke:#181818;stroke-width:1.0;" width="10" x="1746.5" y="486.1719"/><rect fill="#FFFFFF" height="75.1563" style="stroke:#181818;stroke-width:1.0;" width="10" x="1746.5" y="1855.4844"/><rect fill="#FFFFFF" height="1051.4844" style="stroke:#181818;stroke-width:1.0;" width="10" x="2271" y="538.3281"/><rect fill="#FFFFFF" height="28" style="stroke:#181818;stroke-width:1.0;" width="10" x="2276" y="1186.6719"/><rect fill="#FFFFFF" height="561.0313" style="stroke:#181818;stroke-width:1.0;" width="10" x="2635" y="578.4844"/><rect fill="#FFFFFF" height="28" style="stroke:#181818;stroke-width:1.0;" width="10" x="2640" y="1044.3594"/><rect fill="#FFFFFF" height="30" style="stroke:#181818;stroke-width:1.0;" width="10" x="3289" y="617.6406"/><rect fill="#FFFFFF" height="69.1563" style="stroke:#181818;stroke-width:1.0;" width="10" x="3558.5" y="928.0469"/><rect fill="#FFFFFF" height="30" style="stroke:#181818;stroke-width:1.0;" width="10" x="3737" y="967.2031"/><rect fill="#FFFFFF" height="69.1563" style="stroke:#181818;stroke-width:1.0;" width="10" x="3956.5" y="731.1094"/><rect fill="#FFFFFF" height="30" style="stroke:#181818;stroke-width:1.0;" width="10" x="4466.5" y="770.2656"/><rect fill="#FFFFFF" height="39.1563" style="stroke:#181818;stroke-width:1.0;" width="10" x="4769.5" y="1355.2969"/><rect fill="#FFFFFF" height="39.1563" style="stroke:#181818;stroke-width:1.0;" width="10" x="4769.5" y="1444.6094"/><polygon fill="#181818" points="500.5,202.0781,510.5,206.0781,500.5,210.0781,504.5,206.0781" style="stroke:#181818;stroke-width:1.0;"/><line style="stroke:#181818;stroke-width:1.0;" x1="97.5" x2="506.5" y1="206.0781" y2="206.0781"/><text fill="#000000" font-family="sans-serif" font-size="20" lengthAdjust="spacing" textLength="396" x="104.5" y="199.6836">asks to list all its applications and their states</text><polygon fill="#181818" points="835.5,241.2344,845.5,245.2344,835.5,249.2344,839.5,245.2344" style="stroke:#181818;stroke-width:1.0;"/><line style="stroke:#181818;stroke-width:1.0;" x1="522.5" x2="841.5" y1="245.2344" y2="245.2344"/><text fill="#000000" font-family="sans-serif" font-size="20" lengthAdjust="spacing" textLength="70" x="529.5" y="238.8398">create()</text><rect fill="none" height="85.4688" style="stroke:#000000;stroke-width:1.5;" width="304" x="386.5" y="283.2344"/><path d="M386.5,283.2344 L457.5,283.2344 L457.5,300.2344 L447.5,310.2344 L386.5,310.2344 L386.5,283.2344 " fill="#EEEEEE" style="stroke:#000000;stroke-width:2.0;"/><text fill="#000000" font-family="sans-serif" font-size="20" font-weight="bold" lengthAdjust="spacing" textLength="26" x="399.5" y="305.9961">ref</text><text fill="#000000" font-family="sans-serif" font-size="20" lengthAdjust="spacing" textLength="229" x="424" y="334.9961">shared-sequence-diagram</text><text fill="#000000" font-family="sans-serif" font-size="20" lengthAdjust="spacing" textLength="296" x="390.5" y="360.1523">sequence-diagram-tcp-connection</text><polygon fill="#181818" points="835.5,400.8594,845.5,404.8594,835.5,408.8594,839.5,404.8594" style="stroke:#181818;stroke-width:1.0;"/><line style="stroke:#181818;stroke-width:1.0;" x1="522.5" x2="841.5" y1="404.8594" y2="404.8594"/><text fill="#000000" font-family="sans-serif" font-size="20" lengthAdjust="spacing" textLength="264" x="529.5" y="398.4648">getApplicationsList(username)</text><polygon fill="#181818" points="1170.5,440.0156,1180.5,444.0156,1170.5,448.0156,1174.5,444.0156" style="stroke:#181818;stroke-width:1.0;"/><line style="stroke:#181818;stroke-width:1.0;" x1="857.5" x2="1176.5" y1="444.0156" y2="444.0156"/><text fill="#000000" font-family="sans-serif" font-size="20" lengthAdjust="spacing" textLength="264" x="864.5" y="437.6211">getApplicationsList(username)</text><polygon fill="#181818" points="1734.5,482.1719,1744.5,486.1719,1734.5,490.1719,1738.5,486.1719" style="stroke:#181818;stroke-width:1.0;"/><line style="stroke:#181818;stroke-width:1.0;" x1="1192.5" x2="1740.5" y1="486.1719" y2="486.1719"/><text fill="#000000" font-family="sans-serif" font-size="20" lengthAdjust="spacing" textLength="535" x="1199.5" y="479.7773">receiveCandidateApplicationAndNumberList(username, code)</text><path d="M977,457.0156 L977,492.0156 L1177,492.0156 L1177,467.0156 L1167,457.0156 L977,457.0156 " fill="#FEFFDD" style="stroke:#181818;stroke-width:0.5;"/><path d="M1167,457.0156 L1167,467.0156 L1177,467.0156 L1167,457.0156 " fill="#FEFFDD" style="stroke:#181818;stroke-width:0.5;"/><text fill="#000000" font-family="sans-serif" font-size="20" lengthAdjust="spacing" textLength="179" x="983" y="482.7773">code = 8 (APPLIST)</text><polygon fill="#181818" points="2158.5,524.3281,2168.5,528.3281,2158.5,532.3281,2162.5,528.3281" style="stroke:#181818;stroke-width:1.0;"/><line style="stroke:#181818;stroke-width:1.0;" x1="1751.5" x2="2164.5" y1="528.3281" y2="528.3281"/><text fill="#000000" font-family="sans-serif" font-size="20" lengthAdjust="spacing" textLength="390" x="1758.5" y="521.9336">getApplicationsAndNumber(code, username)</text><rect fill="#E2E2F0" height="39.1563" rx="2.5" ry="2.5" style="stroke:#181818;stroke-width:0.5;" width="211" x="2170.5" y="497.1719"/><text fill="#000000" font-family="sans-serif" font-size="20" lengthAdjust="spacing" textLength="197" x="2177.5" y="524.9336">:ListingRequestThread</text><polygon fill="#181818" points="2623,574.4844,2633,578.4844,2623,582.4844,2627,578.4844" style="stroke:#181818;stroke-width:1.0;"/><line style="stroke:#181818;stroke-width:1.0;" x1="2281" x2="2629" y1="578.4844" y2="578.4844"/><text fill="#000000" font-family="sans-serif" font-size="20" lengthAdjust="spacing" textLength="335" x="2288" y="572.0898">getApplicationsAndNumber(username)</text><polygon fill="#181818" points="3277,613.6406,3287,617.6406,3277,621.6406,3281,617.6406" style="stroke:#181818;stroke-width:1.0;"/><line style="stroke:#181818;stroke-width:1.0;" x1="2645" x2="3283" y1="617.6406" y2="617.6406"/><text fill="#000000" font-family="sans-serif" font-size="20" lengthAdjust="spacing" textLength="450" x="2652" y="611.2461">getApplicationFromCandidateUserName(username)</text><path d="M2463,662.6406 L2549,662.6406 L2549,679.7969 L2539,689.7969 L2463,689.7969 L2463,662.6406 " fill="#EEEEEE" style="stroke:#000000;stroke-width:1.5;"/><rect fill="none" height="438.7188" style="stroke:#000000;stroke-width:1.5;" width="2124.5" x="2463" y="662.6406"/><text fill="#000000" font-family="sans-serif" font-size="20" font-weight="bold" lengthAdjust="spacing" textLength="41" x="2478" y="684.4023">loop</text><text fill="#000000" font-family="sans-serif" font-size="20" font-weight="bold" lengthAdjust="spacing" textLength="201" x="2564" y="685.4023">[for each application]</text><polygon fill="#181818" points="3944.5,727.1094,3954.5,731.1094,3944.5,735.1094,3948.5,731.1094" style="stroke:#181818;stroke-width:1.0;"/><line style="stroke:#181818;stroke-width:1.0;" x1="2645" x2="3950.5" y1="731.1094" y2="731.1094"/><text fill="#000000" font-family="sans-serif" font-size="20" lengthAdjust="spacing" textLength="178" x="2652" y="724.7148">getJobOpeningList()</text><polygon fill="#181818" points="4454.5,766.2656,4464.5,770.2656,4454.5,774.2656,4458.5,770.2656" style="stroke:#181818;stroke-width:1.0;"/><line style="stroke:#181818;stroke-width:1.0;" x1="3966.5" x2="4460.5" y1="770.2656" y2="770.2656"/><text fill="#000000" font-family="sans-serif" font-size="20" lengthAdjust="spacing" textLength="178" x="3973.5" y="763.8711">getJobOpeningList()</text><path d="M2473,815.2656 L2559,815.2656 L2559,832.4219 L2549,842.4219 L2473,842.4219 L2473,815.2656 " fill="#EEEEEE" style="stroke:#000000;stroke-width:1.5;"/><rect fill="none" height="279.0938" style="stroke:#000000;stroke-width:1.5;" width="1346.5" x="2473" y="815.2656"/><text fill="#000000" font-family="sans-serif" font-size="20" font-weight="bold" lengthAdjust="spacing" textLength="41" x="2488" y="837.0273">loop</text><text fill="#000000" font-family="sans-serif" font-size="20" font-weight="bold" lengthAdjust="spacing" textLength="385" x="2574" y="838.0273">[for each application from a job opening]</text><path d="M2483,859.5781 L2559,859.5781 L2559,876.7344 L2549,886.7344 L2483,886.7344 L2483,859.5781 " fill="#EEEEEE" style="stroke:#000000;stroke-width:1.5;"/><rect fill="none" height="227.7813" style="stroke:#000000;stroke-width:1.5;" width="1326.5" x="2483" y="859.5781"/><text fill="#000000" font-family="sans-serif" font-size="20" font-weight="bold" lengthAdjust="spacing" textLength="31" x="2498" y="881.3398">opt</text><text fill="#000000" font-family="sans-serif" font-size="20" font-weight="bold" lengthAdjust="spacing" textLength="237" x="2574" y="882.3398">[when application match]</text><polygon fill="#181818" points="3546.5,924.0469,3556.5,928.0469,3546.5,932.0469,3550.5,928.0469" style="stroke:#181818;stroke-width:1.0;"/><line style="stroke:#181818;stroke-width:1.0;stroke-dasharray:2.0,2.0;" x1="2645" x2="3552.5" y1="928.0469" y2="928.0469"/><text fill="#000000" font-family="sans-serif" font-size="20" lengthAdjust="spacing" textLength="236" x="2652" y="921.6523">convertToDTO(application)</text><polygon fill="#181818" points="3725,963.2031,3735,967.2031,3725,971.2031,3729,967.2031" style="stroke:#181818;stroke-width:1.0;"/><line style="stroke:#181818;stroke-width:1.0;" x1="3568.5" x2="3731" y1="967.2031" y2="967.2031"/><text fill="#000000" font-family="sans-serif" font-size="20" lengthAdjust="spacing" textLength="73" x="3575.5" y="960.8086">toDTO()</text><line style="stroke:#181818;stroke-width:1.0;" x1="2650" x2="2692" y1="1036.3594" y2="1036.3594"/><line style="stroke:#181818;stroke-width:1.0;" x1="2692" x2="2692" y1="1036.3594" y2="1049.3594"/><line style="stroke:#181818;stroke-width:1.0;" x1="2651" x2="2692" y1="1049.3594" y2="1049.3594"/><polygon fill="#181818" points="2661,1045.3594,2651,1049.3594,2661,1053.3594,2657,1049.3594" style="stroke:#181818;stroke-width:1.0;"/><text fill="#000000" font-family="sans-serif" font-size="20" lengthAdjust="spacing" textLength="630" x="2657" y="1029.9648">applicationDTOMap.put(applicationDTO, jobOpeningApplicationNumber)</text><polygon fill="#181818" points="2292,1135.5156,2282,1139.5156,2292,1143.5156,2288,1139.5156" style="stroke:#181818;stroke-width:1.0;"/><line style="stroke:#181818;stroke-width:1.0;stroke-dasharray:2.0,2.0;" x1="2286" x2="2639" y1="1139.5156" y2="1139.5156"/><text fill="#000000" font-family="sans-serif" font-size="20" lengthAdjust="spacing" textLength="184" x="2298" y="1133.1211">applicationsDTOMap</text><line style="stroke:#181818;stroke-width:1.0;" x1="2286" x2="2328" y1="1178.6719" y2="1178.6719"/><line style="stroke:#181818;stroke-width:1.0;" x1="2328" x2="2328" y1="1178.6719" y2="1191.6719"/><line style="stroke:#181818;stroke-width:1.0;" x1="2287" x2="2328" y1="1191.6719" y2="1191.6719"/><polygon fill="#181818" points="2297,1187.6719,2287,1191.6719,2297,1195.6719,2293,1191.6719" style="stroke:#181818;stroke-width:1.0;"/><text fill="#000000" font-family="sans-serif" font-size="20" lengthAdjust="spacing" textLength="166" x="2293" y="1172.2773">applicationDTOList</text><polygon fill="#181818" points="4710.5,1256.8281,4720.5,1260.8281,4710.5,1264.8281,4714.5,1260.8281" style="stroke:#181818;stroke-width:1.0;"/><line style="stroke:#181818;stroke-width:1.0;" x1="2281" x2="4716.5" y1="1260.8281" y2="1260.8281"/><text fill="#000000" font-family="sans-serif" font-size="20" lengthAdjust="spacing" textLength="187" x="2288" y="1254.4336">create(version, code)</text><rect fill="#E2E2F0" height="39.1563" rx="2.5" ry="2.5" style="stroke:#181818;stroke-width:0.5;" width="104" x="4722.5" y="1229.6719"/><text fill="#000000" font-family="sans-serif" font-size="20" lengthAdjust="spacing" textLength="90" x="4729.5" y="1257.4336">:DataDTO</text><path d="M2160.5,1286.8281 L2246.5,1286.8281 L2246.5,1303.9844 L2236.5,1313.9844 L2160.5,1313.9844 L2160.5,1286.8281 " fill="#EEEEEE" style="stroke:#000000;stroke-width:1.5;"/><rect fill="none" height="204.9375" style="stroke:#000000;stroke-width:1.5;" width="3293" x="2160.5" y="1286.8281"/><text fill="#000000" font-family="sans-serif" font-size="20" font-weight="bold" lengthAdjust="spacing" textLength="41" x="2175.5" y="1308.5898">loop</text><text fill="#000000" font-family="sans-serif" font-size="20" font-weight="bold" lengthAdjust="spacing" textLength="181" x="2261.5" y="1309.5898">[for each list entry]</text><polygon fill="#181818" points="4757.5,1351.2969,4767.5,1355.2969,4757.5,1359.2969,4761.5,1355.2969" style="stroke:#181818;stroke-width:1.0;"/><line style="stroke:#181818;stroke-width:1.0;" x1="2281" x2="4763.5" y1="1355.2969" y2="1355.2969"/><text fill="#000000" font-family="sans-serif" font-size="20" lengthAdjust="spacing" textLength="597" x="2288" y="1348.9023">addDataBlock(DATA_LEN_L, DATA_LEN_M, applicationDTO.key())</text><polygon fill="#181818" points="5321.5,1390.4531,5331.5,1394.4531,5321.5,1398.4531,5325.5,1394.4531" style="stroke:#181818;stroke-width:1.0;"/><line style="stroke:#181818;stroke-width:1.0;" x1="4774.5" x2="5327.5" y1="1394.4531" y2="1394.4531"/><text fill="#000000" font-family="sans-serif" font-size="20" lengthAdjust="spacing" textLength="530" x="4781.5" y="1388.0586">create(DATA_LEN_L, DATA_LEN_M, applicationDTO.key())</text><rect fill="#E2E2F0" height="39.1563" rx="2.5" ry="2.5" style="stroke:#181818;stroke-width:0.5;" width="110" x="5333.5" y="1363.2969"/><text fill="#000000" font-family="sans-serif" font-size="20" lengthAdjust="spacing" textLength="96" x="5340.5" y="1391.0586">:DataBlock</text><polygon fill="#181818" points="4757.5,1440.6094,4767.5,1444.6094,4757.5,1448.6094,4761.5,1444.6094" style="stroke:#181818;stroke-width:1.0;"/><line style="stroke:#181818;stroke-width:1.0;" x1="2281" x2="4763.5" y1="1444.6094" y2="1444.6094"/><text fill="#000000" font-family="sans-serif" font-size="20" lengthAdjust="spacing" textLength="611" x="2288" y="1438.2148">addDataBlock(DATA_LEN_L, DATA_LEN_M, applicationDTO.value())</text><polygon fill="#181818" points="5376.5,1479.7656,5386.5,1483.7656,5376.5,1487.7656,5380.5,1483.7656" style="stroke:#181818;stroke-width:1.0;"/><line style="stroke:#181818;stroke-width:1.0;" x1="4774.5" x2="5382.5" y1="1483.7656" y2="1483.7656"/><text fill="#000000" font-family="sans-serif" font-size="20" lengthAdjust="spacing" textLength="544" x="4781.5" y="1477.3711">create(DATA_LEN_L, DATA_LEN_M, applicationDTO.value())</text><path d="M1046,1505.7656 L1132,1505.7656 L1132,1522.9219 L1122,1532.9219 L1046,1532.9219 L1046,1505.7656 " fill="#EEEEEE" style="stroke:#000000;stroke-width:1.5;"/><rect fill="none" height="107.625" style="stroke:#000000;stroke-width:1.5;" width="1592" x="1046" y="1505.7656"/><text fill="#000000" font-family="sans-serif" font-size="20" font-weight="bold" lengthAdjust="spacing" textLength="41" x="1061" y="1527.5273">loop</text><text fill="#000000" font-family="sans-serif" font-size="20" font-weight="bold" lengthAdjust="spacing" textLength="128" x="1147" y="1528.5273">[for all DTOs]</text><polygon fill="#181818" points="1203.5,1585.8125,1193.5,1589.8125,1203.5,1593.8125,1199.5,1589.8125" style="stroke:#181818;stroke-width:1.0;"/><line style="stroke:#181818;stroke-width:1.0;stroke-dasharray:2.0,2.0;" x1="1197.5" x2="2275" y1="1589.8125" y2="1589.8125"/><text fill="#000000" font-family="sans-serif" font-size="20" lengthAdjust="spacing" textLength="298" x="1209.5" y="1583.418">sOut.writeObject(applicationDTO)</text><path d="M2286,1548.0781 L2286,1608.0781 L2623,1608.0781 L2623,1558.0781 L2613,1548.0781 L2286,1548.0781 " fill="#FEFFDD" style="stroke:#181818;stroke-width:0.5;"/><path d="M2613,1548.0781 L2613,1558.0781 L2623,1558.0781 L2613,1548.0781 " fill="#FEFFDD" style="stroke:#181818;stroke-width:0.5;"/><text fill="#000000" font-family="sans-serif" font-size="20" lengthAdjust="spacing" textLength="302" x="2292" y="1573.8398">sOut an ObjectOutputStream from</text><text fill="#000000" font-family="sans-serif" font-size="20" lengthAdjust="spacing" textLength="316" x="2292" y="1598.9961">the connection's sock OutputStream</text><polygon fill="#181818" points="868.5,1647.5469,858.5,1651.5469,868.5,1655.5469,864.5,1651.5469" style="stroke:#181818;stroke-width:1.0;"/><line style="stroke:#181818;stroke-width:1.0;stroke-dasharray:2.0,2.0;" x1="862.5" x2="1186.5" y1="1651.5469" y2="1651.5469"/><text fill="#000000" font-family="sans-serif" font-size="20" lengthAdjust="spacing" textLength="176" x="874.5" y="1645.1523">applicationsListDTO</text><polygon fill="#181818" points="533.5,1686.7031,523.5,1690.7031,533.5,1694.7031,529.5,1690.7031" style="stroke:#181818;stroke-width:1.0;"/><line style="stroke:#181818;stroke-width:1.0;stroke-dasharray:2.0,2.0;" x1="527.5" x2="851.5" y1="1690.7031" y2="1690.7031"/><text fill="#000000" font-family="sans-serif" font-size="20" lengthAdjust="spacing" textLength="176" x="539.5" y="1684.3086">applicationsListDTO</text><path d="M379.5,1705.7031 L455.5,1705.7031 L455.5,1722.8594 L445.5,1732.8594 L379.5,1732.8594 L379.5,1705.7031 " fill="#EEEEEE" style="stroke:#000000;stroke-width:1.5;"/><rect fill="none" height="292.0938" style="stroke:#000000;stroke-width:1.5;" width="1568" x="379.5" y="1705.7031"/><text fill="#000000" font-family="sans-serif" font-size="20" font-weight="bold" lengthAdjust="spacing" textLength="31" x="394.5" y="1727.4648">opt</text><text fill="#000000" font-family="sans-serif" font-size="20" font-weight="bold" lengthAdjust="spacing" textLength="98" x="470.5" y="1728.4648">["0 - Exit"]</text><polygon fill="#181818" points="835.5,1770.1719,845.5,1774.1719,835.5,1778.1719,839.5,1774.1719" style="stroke:#181818;stroke-width:1.0;"/><line style="stroke:#181818;stroke-width:1.0;" x1="522.5" x2="841.5" y1="1774.1719" y2="1774.1719"/><text fill="#000000" font-family="sans-serif" font-size="20" lengthAdjust="spacing" textLength="306" x="529.5" y="1767.7773">closeConnection(PORT_NUMBER)</text><polygon fill="#181818" points="1170.5,1809.3281,1180.5,1813.3281,1170.5,1817.3281,1174.5,1813.3281" style="stroke:#181818;stroke-width:1.0;"/><line style="stroke:#181818;stroke-width:1.0;" x1="852.5" x2="1176.5" y1="1813.3281" y2="1813.3281"/><text fill="#000000" font-family="sans-serif" font-size="20" lengthAdjust="spacing" textLength="306" x="859.5" y="1806.9336">closeConnection(PORT_NUMBER)</text><polygon fill="#181818" points="1734.5,1851.4844,1744.5,1855.4844,1734.5,1859.4844,1738.5,1855.4844" style="stroke:#181818;stroke-width:1.0;"/><line style="stroke:#181818;stroke-width:1.0;" x1="1187.5" x2="1740.5" y1="1855.4844" y2="1855.4844"/><text fill="#000000" font-family="sans-serif" font-size="20" lengthAdjust="spacing" textLength="200" x="1194.5" y="1849.0898">closeConnection(code)</text><path d="M969,1826.3281 L969,1861.3281 L1177,1861.3281 L1177,1836.3281 L1167,1826.3281 L969,1826.3281 " fill="#FEFFDD" style="stroke:#181818;stroke-width:0.5;"/><path d="M1167,1826.3281 L1167,1836.3281 L1177,1836.3281 L1167,1826.3281 " fill="#FEFFDD" style="stroke:#181818;stroke-width:0.5;"/><text fill="#000000" font-family="sans-serif" font-size="20" lengthAdjust="spacing" textLength="187" x="975" y="1852.0898">code = 1 (DISCONN)</text><line style="stroke:#181818;stroke-width:1.0;stroke-dasharray:2.0,2.0;" x1="1756.5" x2="1798.5" y1="1897.6406" y2="1897.6406"/><line style="stroke:#181818;stroke-width:1.0;stroke-dasharray:2.0,2.0;" x1="1798.5" x2="1798.5" y1="1897.6406" y2="1910.6406"/><line style="stroke:#181818;stroke-width:1.0;stroke-dasharray:2.0,2.0;" x1="1757.5" x2="1798.5" y1="1910.6406" y2="1910.6406"/><polygon fill="#181818" points="1767.5,1906.6406,1757.5,1910.6406,1767.5,1914.6406,1763.5,1910.6406" style="stroke:#181818;stroke-width:1.0;"/><text fill="#000000" font-family="sans-serif" font-size="20" lengthAdjust="spacing" textLength="172" x="1763.5" y="1891.2461">clientSocket.close()</text><line style="stroke:#FFFFFF;stroke-width:1.0;" x1="1756.5" x2="1798.5" y1="1929.6406" y2="1929.6406"/><line style="stroke:#FFFFFF;stroke-width:1.0;" x1="1798.5" x2="1798.5" y1="1929.6406" y2="1942.6406"/><line style="stroke:#FFFFFF;stroke-width:1.0;" x1="1751.5" x2="1798.5" y1="1942.6406" y2="1942.6406"/><polygon fill="#FFFFFF" points="1761.5,1938.6406,1751.5,1942.6406,1761.5,1946.6406,1757.5,1942.6406" style="stroke:#FFFFFF;stroke-width:1.0;"/><line style="stroke:#181818;stroke-width:1.0;" x1="522.5" x2="564.5" y1="1976.7969" y2="1976.7969"/><line style="stroke:#181818;stroke-width:1.0;" x1="564.5" x2="564.5" y1="1976.7969" y2="1989.7969"/><line style="stroke:#181818;stroke-width:1.0;" x1="523.5" x2="564.5" y1="1989.7969" y2="1989.7969"/><polygon fill="#181818" points="533.5,1985.7969,523.5,1989.7969,533.5,1993.7969,529.5,1989.7969" style="stroke:#181818;stroke-width:1.0;"/><text fill="#000000" font-family="sans-serif" font-size="20" lengthAdjust="spacing" textLength="113" x="529.5" y="1970.4023">stock.close()</text><polygon fill="#181818" points="108.5,2031.9531,98.5,2035.9531,108.5,2039.9531,104.5,2035.9531" style="stroke:#181818;stroke-width:1.0;"/><line style="stroke:#181818;stroke-width:1.0;stroke-dasharray:2.0,2.0;" x1="102.5" x2="516.5" y1="2035.9531" y2="2035.9531"/><text fill="#000000" font-family="sans-serif" font-size="20" lengthAdjust="spacing" textLength="185" x="114.5" y="2029.5586">shows application list</text><!--SRC=[hLTRZ-8s57xthpXY7ygiO4JRbmhjZiG2er8nCEBor5OZanZm4k8qDh1RpO_liNEpdS3CIfs7KHAVyvtxvuCyy3YXAJr68ZYm44AsfQT8FOfOBVc_37xf4QAuYXYibx_sUZrOidzEB0uOZ3ZTeHuXD50YXTRm99KuiXIUQ4ntB6q1bQWqNf3NrrT2q8ZY0KzehA3rwLEICibYHHKNySF3Nt5_ogKQ94d40_DD3k9mYSTiFSc09Zu2hOHl0Wmnb5H4KUxHSBMO-b2IfMSUC0FpYABYiavGBMQ1HbfcfvasVbscPnUWFumunb9fhFOfes6cC9siVb-C1oDFHNlBuzr2PrCgIo6NlkMY5MMMwoDQjxr4WUg0X5JH3PLCmwGi4P9ZlRxxI8lof7egmEeoxtHlj9fxVkLVVFrG72cFVNNVFhcPbZ_4Pfwm6BFQd1KyjxBYbkCQaXS07XG1tCXgfUwbikdWHYOgSK_RIqD_XBwWNqOgVswG-A97l9GnRvXGFRxyZ7EIpIhH_w7xW0C7VPGzI5028knMe544N4cm1WzVuX3Kdl4Kf1usQS5D41nH44lF7A85sEIAjUyg6JEC8NFVISgs8Cx890WXzpHbOLVchDCDSzRnFtHLa7I3SW89GxyGnt6X3plcK8GUmlO9An_J8xiZuFbXtDQwsT33M_gLUiuIfD3K80KH84pA0iRFR8Z9uzX7pC94rfgTZXkMEjWT24I85cA1w17RAgBVuJFy1kt1y_DqibpTcP2rW5NIYdr8PH-ToPu-Vgo7LDflQmiTgAAporJ2bfyACvKDXuHk6Mf8e4jWn8NAiEkSLBFnc8fZcUCrMfcXbIlc6YZE2hXPW4H29B35omybz_PSDBZii4_cQZNGfjYMGovL4LSt0wiH2MA-2Lfd7ol8ndDFmFRgQlImnSG3XQzY0w9WB94ekEnPx0WUgGhsjMHb1Sw9LeU5Surqe5O2lxKjVHnPwy-kLi7IZe05wlOGsb06-pfWMLbReBb3o0sPqg-cbdRwWpgtw1DDxfEJQhjVEph5USqi1xAvkZfEhaTsHGs5OA6o1rrV-mdgPIePpRuJCdS9NBS3FXFLujMzQ_5npYusP9rmyflFi5f-rM3NI0GiwDDhMNEheKEwpMimsgKmB6_AzcYm6hnCnxENQGVAvwUEv_VzWNrltrcfBwvZKi3c5WoexUgFuLk9A2tyNo6SQNHYxm_YXqCeyPk2gDgjAfPUFF1GbX4wTxASdzJz9UMApJTVyVRtPiGnK_GH_fchDEMxlJAl6WMN6SWmy0MdRQamhgDXCoE3UmvKAyPF4gGEtvOrOjKzN0LJBWBLDaIzHKA7Rz-nvGvXjf1o8tj3oomkccjRFUZ2-1jNBNyBYuHarM-LzlDyiNgPhP- -Z1V-PjQm0TtKzXrvzqBaesRZsf2DXXMajXFz3EtHP3cSpsRsJcJjFpNZ-jVRKl_-LVV64xm778K_Frpss5z_MthDwr2HQbqg_3KS74gyabcrW9RGQpOsxrvSd8tQa98DZZlmVm00]--></g></svg>