<?xml version="1.0" encoding="us-ascii" standalone="no"?><svg xmlns="http://www.w3.org/2000/svg" xmlns:xlink="http://www.w3.org/1999/xlink" contentStyleType="text/css" height="642px" preserveAspectRatio="none" style="width:1363px;height:642px;background:#FFFFFF;" version="1.1" viewBox="0 0 1363 642" width="1363.8px" zoomAndPan="magnify"><defs/><g><rect fill="#FFFFFF" height="518.134" style="stroke:#181818;stroke-width:0.6;" width="6" x="35.4" y="58.9453"/><rect fill="#FFFFFF" height="466.8141" style="stroke:#181818;stroke-width:0.6;" width="6" x="331.2" y="110.2652"/><rect fill="#FFFFFF" height="359.9449" style="stroke:#181818;stroke-width:0.6;" width="6" x="627" y="166.3852"/><rect fill="#FFFFFF" height="385.9195" style="stroke:#181818;stroke-width:0.6;" width="6" x="899.7" y="191.1598"/><rect fill="#FFFFFF" height="18" style="stroke:#181818;stroke-width:0.6;" width="6" x="1025.7" y="282.1957"/><rect fill="#FFFFFF" height="18" style="stroke:#181818;stroke-width:0.6;" width="6" x="1128" y="367.4883"/><rect fill="#FFFFFF" height="18" style="stroke:#181818;stroke-width:0.6;" width="6" x="1220.7" y="452.7809"/><rect fill="#FFFFFF" height="18" style="stroke:#181818;stroke-width:0.6;" width="6" x="1310.1" y="489.5555"/><line style="stroke:#181818;stroke-width:0.3;stroke-dasharray:5.0,5.0;" x1="38.4" x2="38.4" y1="52.9453" y2="582.4793"/><line style="stroke:#181818;stroke-width:0.3;stroke-dasharray:5.0,5.0;" x1="334.2" x2="334.2" y1="83.618" y2="582.4793"/><line style="stroke:#181818;stroke-width:0.3;stroke-dasharray:5.0,5.0;" x1="630" x2="630" y1="139.7379" y2="582.4793"/><line style="stroke:#181818;stroke-width:0.3;stroke-dasharray:5.0,5.0;" x1="902.4" x2="902.4" y1="201.4441" y2="582.4793"/><line style="stroke:#181818;stroke-width:0.3;stroke-dasharray:5.0,5.0;" x1="1028.4" x2="1028.4" y1="249.9621" y2="582.4793"/><line style="stroke:#181818;stroke-width:0.3;stroke-dasharray:5.0,5.0;" x1="1131" x2="1131" y1="335.2547" y2="582.4793"/><line style="stroke:#181818;stroke-width:0.3;stroke-dasharray:5.0,5.0;" x1="1223.4" x2="1223.4" y1="420.5473" y2="582.4793"/><line style="stroke:#181818;stroke-width:0.3;stroke-dasharray:5.0,5.0;" x1="1312.8" x2="1312.8" y1="52.9453" y2="582.4793"/><rect fill="#E2E2F0" height="30.7453" rx="1.5" ry="1.5" style="stroke:#181818;stroke-width:0.3;" width="70.8" x="3" y="21.6"/><text fill="#000000" font-family="sans-serif" font-size="8.4" lengthAdjust="spacing" textLength="57.6" x="9.6" y="34.8645">&#171;Presentation&#187;</text><text fill="#000000" font-family="sans-serif" font-size="8.4" lengthAdjust="spacing" textLength="62.4" x="7.2" y="46.0371">RegisterPluginUI</text><rect fill="#E2E2F0" height="30.7453" rx="1.5" ry="1.5" style="stroke:#181818;stroke-width:0.3;" width="70.8" x="3" y="581.8793"/><text fill="#000000" font-family="sans-serif" font-size="8.4" lengthAdjust="spacing" textLength="57.6" x="9.6" y="595.1438">&#171;Presentation&#187;</text><text fill="#000000" font-family="sans-serif" font-size="8.4" lengthAdjust="spacing" textLength="62.4" x="7.2" y="606.3164">RegisterPluginUI</text><rect fill="#E2E2F0" height="30.7453" rx="1.5" ry="1.5" style="stroke:#181818;stroke-width:0.3;" width="100.8" x="283.8" y="581.8793"/><text fill="#000000" font-family="sans-serif" font-size="8.4" lengthAdjust="spacing" textLength="51" x="308.7" y="595.1438">&#171;Application&#187;</text><text fill="#000000" font-family="sans-serif" font-size="8.4" lengthAdjust="spacing" textLength="92.4" x="288" y="606.3164">RegisterPluginController</text><rect fill="#E2E2F0" height="30.7453" rx="1.5" ry="1.5" style="stroke:#181818;stroke-width:0.3;" width="141.6" x="559.2" y="581.8793"/><text fill="#000000" font-family="sans-serif" font-size="8.4" lengthAdjust="spacing" textLength="60" x="600" y="595.1438">&#171;Infrastructure&#187;</text><text fill="#000000" font-family="sans-serif" font-size="8.4" lengthAdjust="spacing" textLength="133.2" x="563.4" y="606.3164">InterviewModelManagementService</text><rect fill="#E2E2F0" height="41.918" rx="1.5" ry="1.5" style="stroke:#181818;stroke-width:0.3;" width="64.2" x="870.6" y="581.8793"/><text fill="#000000" font-family="sans-serif" font-size="8.4" lengthAdjust="spacing" textLength="38.4" x="883.5" y="595.1438">&#171;Domain&#187;</text><text fill="#000000" font-family="sans-serif" font-size="8.4" lengthAdjust="spacing" textLength="51" x="877.2" y="606.3164">&#171;Root Entity&#187;</text><text fill="#000000" font-family="sans-serif" font-size="8.4" lengthAdjust="spacing" textLength="55.8" x="874.8" y="617.4891">InterviewModel</text><rect fill="#E2E2F0" height="41.918" rx="1.5" ry="1.5" style="stroke:#181818;stroke-width:0.3;" width="85.8" x="985.8" y="581.8793"/><text fill="#000000" font-family="sans-serif" font-size="8.4" lengthAdjust="spacing" textLength="38.4" x="1009.5" y="595.1438">&#171;Domain&#187;</text><text fill="#000000" font-family="sans-serif" font-size="8.4" lengthAdjust="spacing" textLength="58.2" x="999.6" y="606.3164">&#171;Value Object&#187;</text><text fill="#000000" font-family="sans-serif" font-size="8.4" lengthAdjust="spacing" textLength="77.4" x="990" y="617.4891">InterviewModelName</text><rect fill="#E2E2F0" height="41.918" rx="1.5" ry="1.5" style="stroke:#181818;stroke-width:0.3;" width="106.8" x="1077.6" y="581.8793"/><text fill="#000000" font-family="sans-serif" font-size="8.4" lengthAdjust="spacing" textLength="38.4" x="1111.8" y="595.1438">&#171;Domain&#187;</text><text fill="#000000" font-family="sans-serif" font-size="8.4" lengthAdjust="spacing" textLength="58.2" x="1101.9" y="606.3164">&#171;Value Object&#187;</text><text fill="#000000" font-family="sans-serif" font-size="8.4" lengthAdjust="spacing" textLength="98.4" x="1081.8" y="617.4891">InterviewModelDescription</text><rect fill="#E2E2F0" height="41.918" rx="1.5" ry="1.5" style="stroke:#181818;stroke-width:0.3;" width="66.6" x="1190.4" y="581.8793"/><text fill="#000000" font-family="sans-serif" font-size="8.4" lengthAdjust="spacing" textLength="38.4" x="1204.5" y="595.1438">&#171;Domain&#187;</text><text fill="#000000" font-family="sans-serif" font-size="8.4" lengthAdjust="spacing" textLength="58.2" x="1194.6" y="606.3164">&#171;Value Object&#187;</text><text fill="#000000" font-family="sans-serif" font-size="8.4" lengthAdjust="spacing" textLength="56.4" x="1195.5" y="617.4891">FullClassName</text><text fill="#000000" font-family="sans-serif" font-size="8.4" lengthAdjust="spacing" textLength="60" x="1281.3" y="39.6645">&#171;Infrastructure&#187;</text><text fill="#000000" font-family="sans-serif" font-size="8.4" lengthAdjust="spacing" textLength="96.6" x="1263" y="50.8371">InterviewModelRepository</text><path d="M1302.3,9 C1302.3,3 1313.1,3 1313.1,3 C1313.1,3 1323.9,3 1323.9,9 L1323.9,24.6 C1323.9,30.6 1313.1,30.6 1313.1,30.6 C1313.1,30.6 1302.3,30.6 1302.3,24.6 L1302.3,9 " fill="#E2E2F0" style="stroke:#181818;stroke-width:0.8999999999999999;"/><path d="M1302.3,9 C1302.3,15 1313.1,15 1313.1,15 C1313.1,15 1323.9,15 1323.9,9 " fill="none" style="stroke:#181818;stroke-width:0.8999999999999999;"/><text fill="#000000" font-family="sans-serif" font-size="8.4" lengthAdjust="spacing" textLength="60" x="1281.3" y="590.9438">&#171;Infrastructure&#187;</text><text fill="#000000" font-family="sans-serif" font-size="8.4" lengthAdjust="spacing" textLength="96.6" x="1263" y="602.1164">InterviewModelRepository</text><path d="M1302.3,610.2246 C1302.3,604.2246 1313.1,604.2246 1313.1,604.2246 C1313.1,604.2246 1323.9,604.2246 1323.9,610.2246 L1323.9,625.8246 C1323.9,631.8246 1313.1,631.8246 1313.1,631.8246 C1313.1,631.8246 1302.3,631.8246 1302.3,625.8246 L1302.3,610.2246 " fill="#E2E2F0" style="stroke:#181818;stroke-width:0.8999999999999999;"/><path d="M1302.3,610.2246 C1302.3,616.2246 1313.1,616.2246 1313.1,616.2246 C1313.1,616.2246 1323.9,616.2246 1323.9,610.2246 " fill="none" style="stroke:#181818;stroke-width:0.8999999999999999;"/><rect fill="#FFFFFF" height="518.134" style="stroke:#181818;stroke-width:0.6;" width="6" x="35.4" y="58.9453"/><rect fill="#FFFFFF" height="466.8141" style="stroke:#181818;stroke-width:0.6;" width="6" x="331.2" y="110.2652"/><rect fill="#FFFFFF" height="359.9449" style="stroke:#181818;stroke-width:0.6;" width="6" x="627" y="166.3852"/><rect fill="#FFFFFF" height="385.9195" style="stroke:#181818;stroke-width:0.6;" width="6" x="899.7" y="191.1598"/><rect fill="#FFFFFF" height="18" style="stroke:#181818;stroke-width:0.6;" width="6" x="1025.7" y="282.1957"/><rect fill="#FFFFFF" height="18" style="stroke:#181818;stroke-width:0.6;" width="6" x="1128" y="367.4883"/><rect fill="#FFFFFF" height="18" style="stroke:#181818;stroke-width:0.6;" width="6" x="1220.7" y="452.7809"/><rect fill="#FFFFFF" height="18" style="stroke:#181818;stroke-width:0.6;" width="6" x="1310.1" y="489.5555"/><polygon fill="#181818" points="276.6,70.5199,282.6,72.9199,276.6,75.3199,279,72.9199" style="stroke:#181818;stroke-width:0.6;"/><line style="stroke:#181818;stroke-width:0.6;" x1="41.4" x2="280.2" y1="72.9199" y2="72.9199"/><text fill="#000000" font-family="sans-serif" font-size="7.8" font-weight="bold" lengthAdjust="spacing" textLength="4.2" x="45.6" y="69.7623">1</text><text fill="#000000" font-family="sans-serif" font-size="7.8" lengthAdjust="spacing" textLength="26.4" x="52.2" y="69.7623">create()</text><rect fill="#E2E2F0" height="30.7453" rx="1.5" ry="1.5" style="stroke:#181818;stroke-width:0.3;" width="100.8" x="283.8" y="58.9453"/><text fill="#000000" font-family="sans-serif" font-size="8.4" lengthAdjust="spacing" textLength="51" x="308.7" y="72.2098">&#171;Application&#187;</text><text fill="#000000" font-family="sans-serif" font-size="8.4" lengthAdjust="spacing" textLength="92.4" x="288" y="83.3824">RegisterPluginController</text><polygon fill="#181818" points="324,107.8652,330,110.2652,324,112.6652,326.4,110.2652" style="stroke:#181818;stroke-width:0.6;"/><line style="stroke:#181818;stroke-width:0.6;" x1="41.4" x2="327.6" y1="110.2652" y2="110.2652"/><text fill="#000000" font-family="sans-serif" font-size="7.8" font-weight="bold" lengthAdjust="spacing" textLength="4.2" x="45.6" y="107.1076">2</text><text fill="#000000" font-family="sans-serif" font-size="7.8" lengthAdjust="spacing" textLength="271.8" x="52.2" y="107.1076">registerInterviewPlugin(String: nameInterview, String: description, String: class)</text><polygon fill="#181818" points="552,126.6398,558,129.0398,552,131.4398,554.4,129.0398" style="stroke:#181818;stroke-width:0.6;"/><line style="stroke:#181818;stroke-width:0.6;" x1="337.2" x2="555.6" y1="129.0398" y2="129.0398"/><text fill="#000000" font-family="sans-serif" font-size="7.8" font-weight="bold" lengthAdjust="spacing" textLength="4.2" x="341.4" y="125.8822">3</text><text fill="#000000" font-family="sans-serif" font-size="7.8" lengthAdjust="spacing" textLength="26.4" x="348" y="125.8822">create()</text><rect fill="#E2E2F0" height="30.7453" rx="1.5" ry="1.5" style="stroke:#181818;stroke-width:0.3;" width="141.6" x="559.2" y="115.0652"/><text fill="#000000" font-family="sans-serif" font-size="8.4" lengthAdjust="spacing" textLength="60" x="600" y="128.3297">&#171;Infrastructure&#187;</text><text fill="#000000" font-family="sans-serif" font-size="8.4" lengthAdjust="spacing" textLength="133.2" x="563.4" y="139.5023">InterviewModelManagementService</text><polygon fill="#181818" points="619.8,163.9852,625.8,166.3852,619.8,168.7852,622.2,166.3852" style="stroke:#181818;stroke-width:0.6;"/><line style="stroke:#181818;stroke-width:0.6;" x1="337.2" x2="623.4" y1="166.3852" y2="166.3852"/><text fill="#000000" font-family="sans-serif" font-size="7.8" font-weight="bold" lengthAdjust="spacing" textLength="4.2" x="341.4" y="163.2275">4</text><text fill="#000000" font-family="sans-serif" font-size="7.8" lengthAdjust="spacing" textLength="271.8" x="348" y="163.2275">registerInterviewPlugin(String: nameInterview, String: description, String: class)</text><polygon fill="#181818" points="863.4,182.7598,869.4,185.1598,863.4,187.5598,865.8,185.1598" style="stroke:#181818;stroke-width:0.6;"/><line style="stroke:#181818;stroke-width:0.6;" x1="633" x2="867" y1="185.1598" y2="185.1598"/><text fill="#000000" font-family="sans-serif" font-size="7.8" font-weight="bold" lengthAdjust="spacing" textLength="4.2" x="637.2" y="182.0021">5</text><text fill="#000000" font-family="sans-serif" font-size="7.8" lengthAdjust="spacing" textLength="216.6" x="643.8" y="182.0021">create(String: nameInterview, String: description, String: class)</text><rect fill="#E2E2F0" height="41.918" rx="1.5" ry="1.5" style="stroke:#181818;stroke-width:0.3;" width="64.2" x="870.6" y="171.1852"/><text fill="#000000" font-family="sans-serif" font-size="8.4" lengthAdjust="spacing" textLength="38.4" x="883.5" y="184.4496">&#171;Domain&#187;</text><text fill="#000000" font-family="sans-serif" font-size="8.4" lengthAdjust="spacing" textLength="51" x="877.2" y="195.6223">&#171;Root Entity&#187;</text><text fill="#000000" font-family="sans-serif" font-size="8.4" lengthAdjust="spacing" textLength="55.8" x="874.8" y="206.7949">InterviewModel</text><polygon fill="#181818" points="978.6,231.2777,984.6,233.6777,978.6,236.0777,981,233.6777" style="stroke:#181818;stroke-width:0.6;"/><line style="stroke:#181818;stroke-width:0.6;" x1="905.7" x2="982.2" y1="233.6777" y2="233.6777"/><text fill="#000000" font-family="sans-serif" font-size="7.8" font-weight="bold" lengthAdjust="spacing" textLength="4.2" x="909.9" y="230.5201">6</text><text fill="#000000" font-family="sans-serif" font-size="7.8" lengthAdjust="spacing" textLength="26.4" x="916.5" y="230.5201">create()</text><rect fill="#E2E2F0" height="41.918" rx="1.5" ry="1.5" style="stroke:#181818;stroke-width:0.3;" width="85.8" x="985.8" y="219.7031"/><text fill="#000000" font-family="sans-serif" font-size="8.4" lengthAdjust="spacing" textLength="38.4" x="1009.5" y="232.9676">&#171;Domain&#187;</text><text fill="#000000" font-family="sans-serif" font-size="8.4" lengthAdjust="spacing" textLength="58.2" x="999.6" y="244.1402">&#171;Value Object&#187;</text><text fill="#000000" font-family="sans-serif" font-size="8.4" lengthAdjust="spacing" textLength="77.4" x="990" y="255.3129">InterviewModelName</text><polygon fill="#181818" points="1018.5,279.7957,1024.5,282.1957,1018.5,284.5957,1020.9,282.1957" style="stroke:#181818;stroke-width:0.6;"/><line style="stroke:#181818;stroke-width:0.6;" x1="905.7" x2="1022.1" y1="282.1957" y2="282.1957"/><text fill="#000000" font-family="sans-serif" font-size="7.8" font-weight="bold" lengthAdjust="spacing" textLength="4.2" x="909.9" y="279.0381">7</text><text fill="#000000" font-family="sans-serif" font-size="7.8" lengthAdjust="spacing" textLength="102" x="916.5" y="279.0381">nameOfPlugin(nameInterview)</text><polygon fill="#181818" points="1070.4,316.5703,1076.4,318.9703,1070.4,321.3703,1072.8,318.9703" style="stroke:#181818;stroke-width:0.6;"/><line style="stroke:#181818;stroke-width:0.6;" x1="905.7" x2="1074" y1="318.9703" y2="318.9703"/><text fill="#000000" font-family="sans-serif" font-size="7.8" font-weight="bold" lengthAdjust="spacing" textLength="4.2" x="909.9" y="315.8127">8</text><text fill="#000000" font-family="sans-serif" font-size="7.8" lengthAdjust="spacing" textLength="26.4" x="916.5" y="315.8127">create()</text><rect fill="#E2E2F0" height="41.918" rx="1.5" ry="1.5" style="stroke:#181818;stroke-width:0.3;" width="106.8" x="1077.6" y="304.9957"/><text fill="#000000" font-family="sans-serif" font-size="8.4" lengthAdjust="spacing" textLength="38.4" x="1111.8" y="318.2602">&#171;Domain&#187;</text><text fill="#000000" font-family="sans-serif" font-size="8.4" lengthAdjust="spacing" textLength="58.2" x="1101.9" y="329.4328">&#171;Value Object&#187;</text><text fill="#000000" font-family="sans-serif" font-size="8.4" lengthAdjust="spacing" textLength="98.4" x="1081.8" y="340.6055">InterviewModelDescription</text><polygon fill="#181818" points="1120.8,365.0883,1126.8,367.4883,1120.8,369.8883,1123.2,367.4883" style="stroke:#181818;stroke-width:0.6;"/><line style="stroke:#181818;stroke-width:0.6;" x1="905.7" x2="1124.4" y1="367.4883" y2="367.4883"/><text fill="#000000" font-family="sans-serif" font-size="7.8" font-weight="bold" lengthAdjust="spacing" textLength="4.2" x="909.9" y="364.3307">9</text><text fill="#000000" font-family="sans-serif" font-size="7.8" lengthAdjust="spacing" textLength="109.8" x="916.5" y="364.3307">descriptionOfPlugin(description)</text><polygon fill="#181818" points="1183.2,401.8629,1189.2,404.2629,1183.2,406.6629,1185.6,404.2629" style="stroke:#181818;stroke-width:0.6;"/><line style="stroke:#181818;stroke-width:0.6;" x1="905.7" x2="1186.8" y1="404.2629" y2="404.2629"/><text fill="#000000" font-family="sans-serif" font-size="7.8" font-weight="bold" lengthAdjust="spacing" textLength="8.4" x="909.9" y="401.1053">10</text><text fill="#000000" font-family="sans-serif" font-size="7.8" lengthAdjust="spacing" textLength="26.4" x="920.7" y="401.1053">create()</text><rect fill="#E2E2F0" height="41.918" rx="1.5" ry="1.5" style="stroke:#181818;stroke-width:0.3;" width="66.6" x="1190.4" y="390.2883"/><text fill="#000000" font-family="sans-serif" font-size="8.4" lengthAdjust="spacing" textLength="38.4" x="1204.5" y="403.5527">&#171;Domain&#187;</text><text fill="#000000" font-family="sans-serif" font-size="8.4" lengthAdjust="spacing" textLength="58.2" x="1194.6" y="414.7254">&#171;Value Object&#187;</text><text fill="#000000" font-family="sans-serif" font-size="8.4" lengthAdjust="spacing" textLength="56.4" x="1195.5" y="425.898">FullClassName</text><polygon fill="#181818" points="1213.5,450.3809,1219.5,452.7809,1213.5,455.1809,1215.9,452.7809" style="stroke:#181818;stroke-width:0.6;"/><line style="stroke:#181818;stroke-width:0.6;" x1="905.7" x2="1217.1" y1="452.7809" y2="452.7809"/><text fill="#000000" font-family="sans-serif" font-size="7.8" font-weight="bold" lengthAdjust="spacing" textLength="8.4" x="909.9" y="449.6232">11</text><text fill="#000000" font-family="sans-serif" font-size="7.8" lengthAdjust="spacing" textLength="93" x="920.7" y="449.6232">fullClassOfPlugin(fullClass)</text><polygon fill="#181818" points="1302.9,487.1555,1308.9,489.5555,1302.9,491.9555,1305.3,489.5555" style="stroke:#181818;stroke-width:0.6;"/><line style="stroke:#181818;stroke-width:0.6;" x1="633" x2="1306.5" y1="489.5555" y2="489.5555"/><text fill="#000000" font-family="sans-serif" font-size="7.8" font-weight="bold" lengthAdjust="spacing" textLength="8.4" x="637.2" y="486.3979">12</text><text fill="#000000" font-family="sans-serif" font-size="7.8" lengthAdjust="spacing" textLength="70.8" x="648" y="486.3979">save(interviewModel)</text><polygon fill="#181818" points="343.8,523.9301,337.8,526.3301,343.8,528.7301,341.4,526.3301" style="stroke:#181818;stroke-width:0.6;"/><line style="stroke:#181818;stroke-width:0.6;stroke-dasharray:2.0,2.0;" x1="340.2" x2="629.4" y1="526.3301" y2="526.3301"/><text fill="#000000" font-family="sans-serif" font-size="7.8" font-weight="bold" lengthAdjust="spacing" textLength="8.4" x="347.4" y="523.1725">13</text><text fill="#000000" font-family="sans-serif" font-size="7.8" lengthAdjust="spacing" textLength="76.8" x="358.2" y="523.1725">registerInterviewPlugin</text><polygon fill="#181818" points="48,542.7047,42,545.1047,48,547.5047,45.6,545.1047" style="stroke:#181818;stroke-width:0.6;"/><line style="stroke:#181818;stroke-width:0.6;stroke-dasharray:2.0,2.0;" x1="44.4" x2="330.6" y1="545.1047" y2="545.1047"/><text fill="#000000" font-family="sans-serif" font-size="7.8" font-weight="bold" lengthAdjust="spacing" textLength="8.4" x="51.6" y="541.9471">14</text><text fill="#000000" font-family="sans-serif" font-size="7.8" lengthAdjust="spacing" textLength="76.8" x="62.4" y="541.9471">registerInterviewPlugin</text><line style="stroke:#181818;stroke-width:0.6;" x1="41.4" x2="66.6" y1="563.8793" y2="563.8793"/><line style="stroke:#181818;stroke-width:0.6;" x1="66.6" x2="66.6" y1="563.8793" y2="571.6793"/><line style="stroke:#181818;stroke-width:0.6;" x1="42" x2="66.6" y1="571.6793" y2="571.6793"/><polygon fill="#181818" points="48,569.2793,42,571.6793,48,574.0793,45.6,571.6793" style="stroke:#181818;stroke-width:0.6;"/><text fill="#000000" font-family="sans-serif" font-size="7.8" font-weight="bold" lengthAdjust="spacing" textLength="8.4" x="45.6" y="560.7217">15</text><text fill="#000000" font-family="sans-serif" font-size="7.8" lengthAdjust="spacing" textLength="32.4" x="56.4" y="560.7217">doShow()</text><!--SRC=[lLFBRjim4BphAuXSwWPDVHUC08Qj5WBY1-GwfrpMz5fXIv4gkNAGlwz8FMoBTTCMHNsIPxapm-NiksUYqiRZSIb1KLN8ZrmNOulVArGSx_O2SWD55455MbN53aralmbLGesoxjW2hOKSfrBaYaayK1IjmP3Wegn9sSraiZPeKH6GqEh-_abbc0jBQDQooeNQfZSCBDkcmxPfMKh1htJDj2AZfKJZksTVieTXVweE1YoPYbDbq56agku_2dnPw3tA1QZQTr4xspYKesVQ9DbZEalInP1khWiGtibaacbDB54aw3NazJI_xdy4MI5RxRuYfv1W2GMs9Clf8lbxeZbQRaJf9jZopPFDx4_uFbLIpYHOU-Pf_R3zd2wZEH3imEBlZ3h3Kbj1shos75coNaNHb9Cu0g5x_8ZLlstAxkxzOzxUnemRh8kZzyDQp4oRXLwb2SLeGqQeF6QgTjlNFh0Etf_cSGAvkrwhqHloUVAG-tB2VIv2Py6H_s3m55EFzt-TZmkF_qona-eqN3J3MPnN6z7LeRtxXOEGtKVTWtE4dy4TjSlmTM5NlRXMht-6XUf-CKBr4zpnD-c_hj_KOtReDgVNxv5GlLsfKF-yC7XZjq8nit34aRXOjf2-sRQ0_0IVKR-rOm7F88dDCjGis_GDZcQXtR6ztZphbtgIFm00]--></g></svg>