<?xml version="1.0" encoding="us-ascii" standalone="no"?><svg xmlns="http://www.w3.org/2000/svg" xmlns:xlink="http://www.w3.org/1999/xlink" contentStyleType="text/css" height="1406px" preserveAspectRatio="none" style="width:1251px;height:1406px;background:#FFFFFF;" version="1.1" viewBox="0 0 1251 1406" width="1251px" zoomAndPan="magnify"><defs/><g><text fill="#000000" font-family="sans-serif" font-size="14" font-weight="bold" lengthAdjust="spacing" textLength="196" x="526" y="30.1074">US2000b Sequence Diagram</text><rect fill="#FFFFFF" height="1172.1855" style="stroke:#181818;stroke-width:1.0;" width="10" x="46.5" y="133.2422"/><rect fill="#FFFFFF" height="1086.0215" style="stroke:#181818;stroke-width:1.0;" width="10" x="334.5" y="228.4063"/><rect fill="#FFFFFF" height="155.1641" style="stroke:#181818;stroke-width:1.0;" width="10" x="561.5" y="410.8125"/><rect fill="#FFFFFF" height="155.1641" style="stroke:#181818;stroke-width:1.0;" width="10" x="561.5" y="659.8496"/><rect fill="#FFFFFF" height="155.1641" style="stroke:#181818;stroke-width:1.0;" width="10" x="561.5" y="862.9355"/><rect fill="#FFFFFF" height="155.1641" style="stroke:#181818;stroke-width:1.0;" width="10" x="561.5" y="1111.9727"/><rect fill="#FFFFFF" height="31.291" style="stroke:#181818;stroke-width:1.0;" width="10" x="788.5" y="503.3945"/><rect fill="#FFFFFF" height="31.291" style="stroke:#181818;stroke-width:1.0;" width="10" x="788.5" y="752.4316"/><rect fill="#FFFFFF" height="31.291" style="stroke:#181818;stroke-width:1.0;" width="10" x="788.5" y="955.5176"/><rect fill="#FFFFFF" height="31.291" style="stroke:#181818;stroke-width:1.0;" width="10" x="788.5" y="1204.5547"/><rect fill="#FFFFFF" height="30" style="stroke:#181818;stroke-width:1.0;" width="10" x="978" y="442.1035"/><rect fill="#FFFFFF" height="30" style="stroke:#181818;stroke-width:1.0;" width="10" x="978" y="691.1406"/><rect fill="#FFFFFF" height="30" style="stroke:#181818;stroke-width:1.0;" width="10" x="978" y="894.2266"/><rect fill="#FFFFFF" height="30" style="stroke:#181818;stroke-width:1.0;" width="10" x="978" y="1143.2637"/><rect fill="none" height="906.9063" style="stroke:#000000;stroke-width:1.5;" width="1056.5" x="10" y="368.2305"/><line style="stroke:#181818;stroke-width:0.5;stroke-dasharray:5.0,5.0;" x1="51" x2="51" y1="123.2422" y2="1323.4277"/><line style="stroke:#181818;stroke-width:0.5;stroke-dasharray:5.0,5.0;" x1="339.5" x2="339.5" y1="123.2422" y2="1323.4277"/><line style="stroke:#181818;stroke-width:0.5;stroke-dasharray:5.0,5.0;" x1="566" x2="566" y1="277.5273" y2="1323.4277"/><line style="stroke:#181818;stroke-width:0.5;stroke-dasharray:5.0,5.0;" x1="793.5" x2="793.5" y1="123.2422" y2="1323.4277"/><line style="stroke:#181818;stroke-width:0.5;stroke-dasharray:5.0,5.0;" x1="982.5" x2="982.5" y1="123.2422" y2="1323.4277"/><text fill="#000000" font-family="sans-serif" font-size="14" lengthAdjust="spacing" textLength="57" x="20" y="119.7285">Operator</text><ellipse cx="51.5" cy="53.1211" fill="#E2E2F0" rx="8" ry="8" style="stroke:#181818;stroke-width:0.5;"/><path d="M51.5,61.1211 L51.5,88.1211 M38.5,69.1211 L64.5,69.1211 M51.5,88.1211 L38.5,103.1211 M51.5,88.1211 L64.5,103.1211 " fill="none" style="stroke:#181818;stroke-width:0.5;"/><text fill="#000000" font-family="sans-serif" font-size="14" lengthAdjust="spacing" textLength="57" x="20" y="1337.5352">Operator</text><ellipse cx="51.5" cy="1349.5488" fill="#E2E2F0" rx="8" ry="8" style="stroke:#181818;stroke-width:0.5;"/><path d="M51.5,1357.5488 L51.5,1384.5488 M38.5,1365.5488 L64.5,1365.5488 M51.5,1384.5488 L38.5,1399.5488 M51.5,1384.5488 L64.5,1399.5488 " fill="none" style="stroke:#181818;stroke-width:0.5;"/><rect fill="#E2E2F0" height="51.2422" rx="2.5" ry="2.5" style="stroke:#181818;stroke-width:0.5;" width="186" x="246.5" y="71"/><text fill="#000000" font-family="sans-serif" font-size="14" font-style="italic" lengthAdjust="spacing" textLength="95" x="292" y="93.1074">&#171;presentation&#187;</text><text fill="#000000" font-family="sans-serif" font-size="14" lengthAdjust="spacing" textLength="172" x="253.5" y="111.7285">:EnableDisableCandidateUI</text><rect fill="#E2E2F0" height="51.2422" rx="2.5" ry="2.5" style="stroke:#181818;stroke-width:0.5;" width="186" x="246.5" y="1322.4277"/><text fill="#000000" font-family="sans-serif" font-size="14" font-style="italic" lengthAdjust="spacing" textLength="95" x="292" y="1344.5352">&#171;presentation&#187;</text><text fill="#000000" font-family="sans-serif" font-size="14" lengthAdjust="spacing" textLength="172" x="253.5" y="1363.1563">:EnableDisableCandidateUI</text><rect fill="#E2E2F0" height="51.2422" rx="2.5" ry="2.5" style="stroke:#181818;stroke-width:0.5;" width="171" x="481" y="1322.4277"/><text fill="#000000" font-family="sans-serif" font-size="14" font-style="italic" lengthAdjust="spacing" textLength="84" x="524.5" y="1344.5352">&#171;application&#187;</text><text fill="#000000" font-family="sans-serif" font-size="14" lengthAdjust="spacing" textLength="157" x="488" y="1363.1563">:EnableDisableController</text><rect fill="#E2E2F0" height="51.2422" rx="2.5" ry="2.5" style="stroke:#181818;stroke-width:0.5;" width="212" x="687.5" y="71"/><text fill="#000000" font-family="sans-serif" font-size="14" font-style="italic" lengthAdjust="spacing" textLength="60" x="763.5" y="93.1074">&#171;service&#187;</text><text fill="#000000" font-family="sans-serif" font-size="14" lengthAdjust="spacing" textLength="198" x="694.5" y="111.7285">:CandidateManagementService</text><rect fill="#E2E2F0" height="51.2422" rx="2.5" ry="2.5" style="stroke:#181818;stroke-width:0.5;" width="212" x="687.5" y="1322.4277"/><text fill="#000000" font-family="sans-serif" font-size="14" font-style="italic" lengthAdjust="spacing" textLength="60" x="763.5" y="1344.5352">&#171;service&#187;</text><text fill="#000000" font-family="sans-serif" font-size="14" lengthAdjust="spacing" textLength="198" x="694.5" y="1363.1563">:CandidateManagementService</text><rect fill="#E2E2F0" height="51.2422" rx="2.5" ry="2.5" style="stroke:#181818;stroke-width:0.5;" width="147" x="909.5" y="71"/><text fill="#000000" font-family="sans-serif" font-size="14" font-style="italic" lengthAdjust="spacing" textLength="60" x="953" y="93.1074">&#171;service&#187;</text><text fill="#000000" font-family="sans-serif" font-size="14" lengthAdjust="spacing" textLength="133" x="916.5" y="111.7285">:AuthorizationService</text><rect fill="#E2E2F0" height="51.2422" rx="2.5" ry="2.5" style="stroke:#181818;stroke-width:0.5;" width="147" x="909.5" y="1322.4277"/><text fill="#000000" font-family="sans-serif" font-size="14" font-style="italic" lengthAdjust="spacing" textLength="60" x="953" y="1344.5352">&#171;service&#187;</text><text fill="#000000" font-family="sans-serif" font-size="14" lengthAdjust="spacing" textLength="133" x="916.5" y="1363.1563">:AuthorizationService</text><rect fill="#FFFFFF" height="1172.1855" style="stroke:#181818;stroke-width:1.0;" width="10" x="46.5" y="133.2422"/><rect fill="#FFFFFF" height="1086.0215" style="stroke:#181818;stroke-width:1.0;" width="10" x="334.5" y="228.4063"/><rect fill="#FFFFFF" height="155.1641" style="stroke:#181818;stroke-width:1.0;" width="10" x="561.5" y="410.8125"/><rect fill="#FFFFFF" height="155.1641" style="stroke:#181818;stroke-width:1.0;" width="10" x="561.5" y="659.8496"/><rect fill="#FFFFFF" height="155.1641" style="stroke:#181818;stroke-width:1.0;" width="10" x="561.5" y="862.9355"/><rect fill="#FFFFFF" height="155.1641" style="stroke:#181818;stroke-width:1.0;" width="10" x="561.5" y="1111.9727"/><rect fill="#FFFFFF" height="31.291" style="stroke:#181818;stroke-width:1.0;" width="10" x="788.5" y="503.3945"/><rect fill="#FFFFFF" height="31.291" style="stroke:#181818;stroke-width:1.0;" width="10" x="788.5" y="752.4316"/><rect fill="#FFFFFF" height="31.291" style="stroke:#181818;stroke-width:1.0;" width="10" x="788.5" y="955.5176"/><rect fill="#FFFFFF" height="31.291" style="stroke:#181818;stroke-width:1.0;" width="10" x="788.5" y="1204.5547"/><rect fill="#FFFFFF" height="30" style="stroke:#181818;stroke-width:1.0;" width="10" x="978" y="442.1035"/><rect fill="#FFFFFF" height="30" style="stroke:#181818;stroke-width:1.0;" width="10" x="978" y="691.1406"/><rect fill="#FFFFFF" height="30" style="stroke:#181818;stroke-width:1.0;" width="10" x="978" y="894.2266"/><rect fill="#FFFFFF" height="30" style="stroke:#181818;stroke-width:1.0;" width="10" x="978" y="1143.2637"/><path d="M988,138.2422 L988,199.2422 L1244,199.2422 L1244,148.2422 L1234,138.2422 L988,138.2422 " fill="#FEFFDD" style="stroke:#181818;stroke-width:0.5;"/><path d="M1234,138.2422 L1234,148.2422 L1244,148.2422 L1234,138.2422 " fill="#FEFFDD" style="stroke:#181818;stroke-width:0.5;"/><text fill="#000000" font-family="sans-serif" font-size="13" lengthAdjust="spacing" textLength="235" x="994" y="157.2705">The AuthorizationService is implemented</text><text fill="#000000" font-family="sans-serif" font-size="13" lengthAdjust="spacing" textLength="173" x="994" y="174.5615">in the eapli framework and will</text><text fill="#000000" font-family="sans-serif" font-size="13" lengthAdjust="spacing" textLength="162" x="994" y="191.8525">be used in this functionality.</text><polygon fill="#181818" points="322.5,224.4063,332.5,228.4063,322.5,232.4063,326.5,228.4063" style="stroke:#181818;stroke-width:1.0;"/><line style="stroke:#181818;stroke-width:1.0;" x1="56.5" x2="328.5" y1="228.4063" y2="228.4063"/><text fill="#000000" font-family="sans-serif" font-size="13" font-weight="bold" lengthAdjust="spacing" textLength="7" x="63.5" y="223.1436">1</text><text fill="#000000" font-family="sans-serif" font-size="13" lengthAdjust="spacing" textLength="207" x="74.5" y="223.1436">wants to enable/disable a candidate</text><polygon fill="#181818" points="469,255.6973,479,259.6973,469,263.6973,473,259.6973" style="stroke:#181818;stroke-width:1.0;"/><line style="stroke:#181818;stroke-width:1.0;" x1="344.5" x2="475" y1="259.6973" y2="259.6973"/><text fill="#000000" font-family="sans-serif" font-size="13" font-weight="bold" lengthAdjust="spacing" textLength="7" x="351.5" y="254.4346">2</text><text fill="#000000" font-family="sans-serif" font-size="13" lengthAdjust="spacing" textLength="36" x="362.5" y="254.4346">create</text><rect fill="#E2E2F0" height="51.2422" rx="2.5" ry="2.5" style="stroke:#181818;stroke-width:0.5;" width="171" x="481" y="236.4063"/><text fill="#000000" font-family="sans-serif" font-size="14" font-style="italic" lengthAdjust="spacing" textLength="84" x="524.5" y="258.5137">&#171;application&#187;</text><text fill="#000000" font-family="sans-serif" font-size="14" lengthAdjust="spacing" textLength="157" x="488" y="277.1348">:EnableDisableController</text><polygon fill="#181818" points="67.5,317.9395,57.5,321.9395,67.5,325.9395,63.5,321.9395" style="stroke:#181818;stroke-width:1.0;"/><line style="stroke:#181818;stroke-width:1.0;stroke-dasharray:2.0,2.0;" x1="61.5" x2="333.5" y1="321.9395" y2="321.9395"/><text fill="#000000" font-family="sans-serif" font-size="13" font-weight="bold" lengthAdjust="spacing" textLength="7" x="73.5" y="316.6768">3</text><text fill="#000000" font-family="sans-serif" font-size="13" lengthAdjust="spacing" textLength="243" x="84.5" y="316.6768">asks whether it wants to enable or disable</text><polygon fill="#181818" points="322.5,349.2305,332.5,353.2305,322.5,357.2305,326.5,353.2305" style="stroke:#181818;stroke-width:1.0;"/><line style="stroke:#181818;stroke-width:1.0;" x1="56.5" x2="328.5" y1="353.2305" y2="353.2305"/><text fill="#000000" font-family="sans-serif" font-size="13" font-weight="bold" lengthAdjust="spacing" textLength="7" x="63.5" y="347.9678">4</text><text fill="#000000" font-family="sans-serif" font-size="13" lengthAdjust="spacing" textLength="110" x="74.5" y="347.9678">chooses the option</text><path d="M10,368.2305 L71,368.2305 L71,377.5215 L61,387.5215 L10,387.5215 L10,368.2305 " fill="#EEEEEE" style="stroke:#000000;stroke-width:1.5;"/><rect fill="none" height="906.9063" style="stroke:#000000;stroke-width:1.5;" width="1056.5" x="10" y="368.2305"/><text fill="#000000" font-family="sans-serif" font-size="13" font-weight="bold" lengthAdjust="spacing" textLength="16" x="25" y="383.2588">alt</text><text fill="#000000" font-family="sans-serif" font-size="11" font-weight="bold" lengthAdjust="spacing" textLength="45" x="86" y="382.1006">[enable]</text><polygon fill="#181818" points="549.5,406.8125,559.5,410.8125,549.5,414.8125,553.5,410.8125" style="stroke:#181818;stroke-width:1.0;"/><line style="stroke:#181818;stroke-width:1.0;" x1="344.5" x2="555.5" y1="410.8125" y2="410.8125"/><text fill="#000000" font-family="sans-serif" font-size="13" font-weight="bold" lengthAdjust="spacing" textLength="7" x="351.5" y="405.5498">5</text><text fill="#000000" font-family="sans-serif" font-size="13" lengthAdjust="spacing" textLength="138" x="362.5" y="405.5498">deactivatedCandidates()</text><polygon fill="#181818" points="966,438.1035,976,442.1035,966,446.1035,970,442.1035" style="stroke:#181818;stroke-width:1.0;"/><line style="stroke:#181818;stroke-width:1.0;" x1="571.5" x2="972" y1="442.1035" y2="442.1035"/><text fill="#000000" font-family="sans-serif" font-size="13" font-weight="bold" lengthAdjust="spacing" textLength="7" x="578.5" y="436.8408">6</text><text fill="#000000" font-family="sans-serif" font-size="13" lengthAdjust="spacing" textLength="241" x="589.5" y="436.8408">ensureAuthenticatedUserHasAnyOf(roles)</text><polygon fill="#181818" points="776.5,499.3945,786.5,503.3945,776.5,507.3945,780.5,503.3945" style="stroke:#181818;stroke-width:1.0;"/><line style="stroke:#181818;stroke-width:1.0;" x1="571.5" x2="782.5" y1="503.3945" y2="503.3945"/><text fill="#000000" font-family="sans-serif" font-size="13" font-weight="bold" lengthAdjust="spacing" textLength="7" x="578.5" y="498.1318">7</text><text fill="#000000" font-family="sans-serif" font-size="13" lengthAdjust="spacing" textLength="138" x="589.5" y="498.1318">deactivatedCandidates()</text><polygon fill="#181818" points="582.5,530.6855,572.5,534.6855,582.5,538.6855,578.5,534.6855" style="stroke:#181818;stroke-width:1.0;"/><line style="stroke:#181818;stroke-width:1.0;stroke-dasharray:2.0,2.0;" x1="576.5" x2="792.5" y1="534.6855" y2="534.6855"/><text fill="#000000" font-family="sans-serif" font-size="13" font-weight="bold" lengthAdjust="spacing" textLength="7" x="588.5" y="529.4229">8</text><text fill="#000000" font-family="sans-serif" font-size="13" lengthAdjust="spacing" textLength="63" x="599.5" y="529.4229">candidates</text><polygon fill="#181818" points="355.5,561.9766,345.5,565.9766,355.5,569.9766,351.5,565.9766" style="stroke:#181818;stroke-width:1.0;"/><line style="stroke:#181818;stroke-width:1.0;stroke-dasharray:2.0,2.0;" x1="349.5" x2="565.5" y1="565.9766" y2="565.9766"/><text fill="#000000" font-family="sans-serif" font-size="13" font-weight="bold" lengthAdjust="spacing" textLength="7" x="361.5" y="560.7139">9</text><text fill="#000000" font-family="sans-serif" font-size="13" lengthAdjust="spacing" textLength="63" x="372.5" y="560.7139">candidates</text><polygon fill="#181818" points="67.5,593.2676,57.5,597.2676,67.5,601.2676,63.5,597.2676" style="stroke:#181818;stroke-width:1.0;"/><line style="stroke:#181818;stroke-width:1.0;stroke-dasharray:2.0,2.0;" x1="61.5" x2="333.5" y1="597.2676" y2="597.2676"/><text fill="#000000" font-family="sans-serif" font-size="13" font-weight="bold" lengthAdjust="spacing" textLength="14" x="73.5" y="592.0049">10</text><text fill="#000000" font-family="sans-serif" font-size="13" lengthAdjust="spacing" textLength="104" x="91.5" y="592.0049">shows candidates</text><polygon fill="#181818" points="322.5,624.5586,332.5,628.5586,322.5,632.5586,326.5,628.5586" style="stroke:#181818;stroke-width:1.0;"/><line style="stroke:#181818;stroke-width:1.0;" x1="56.5" x2="328.5" y1="628.5586" y2="628.5586"/><text fill="#000000" font-family="sans-serif" font-size="13" font-weight="bold" lengthAdjust="spacing" textLength="14" x="63.5" y="623.2959">11</text><text fill="#000000" font-family="sans-serif" font-size="13" lengthAdjust="spacing" textLength="159" x="81.5" y="623.2959">selects candidate to enable</text><polygon fill="#181818" points="549.5,655.8496,559.5,659.8496,549.5,663.8496,553.5,659.8496" style="stroke:#181818;stroke-width:1.0;"/><line style="stroke:#181818;stroke-width:1.0;" x1="344.5" x2="555.5" y1="659.8496" y2="659.8496"/><text fill="#000000" font-family="sans-serif" font-size="13" font-weight="bold" lengthAdjust="spacing" textLength="14" x="351.5" y="654.5869">12</text><text fill="#000000" font-family="sans-serif" font-size="13" lengthAdjust="spacing" textLength="166" x="369.5" y="654.5869">activateCandidate(candidate)</text><polygon fill="#181818" points="966,687.1406,976,691.1406,966,695.1406,970,691.1406" style="stroke:#181818;stroke-width:1.0;"/><line style="stroke:#181818;stroke-width:1.0;" x1="571.5" x2="972" y1="691.1406" y2="691.1406"/><text fill="#000000" font-family="sans-serif" font-size="13" font-weight="bold" lengthAdjust="spacing" textLength="14" x="578.5" y="685.8779">13</text><text fill="#000000" font-family="sans-serif" font-size="13" lengthAdjust="spacing" textLength="241" x="596.5" y="685.8779">ensureAuthenticatedUserHasAnyOf(roles)</text><polygon fill="#181818" points="776.5,748.4316,786.5,752.4316,776.5,756.4316,780.5,752.4316" style="stroke:#181818;stroke-width:1.0;"/><line style="stroke:#181818;stroke-width:1.0;" x1="571.5" x2="782.5" y1="752.4316" y2="752.4316"/><text fill="#000000" font-family="sans-serif" font-size="13" font-weight="bold" lengthAdjust="spacing" textLength="14" x="578.5" y="747.1689">14</text><text fill="#000000" font-family="sans-serif" font-size="13" lengthAdjust="spacing" textLength="166" x="596.5" y="747.1689">activateCandidate(candidate)</text><polygon fill="#181818" points="582.5,779.7227,572.5,783.7227,582.5,787.7227,578.5,783.7227" style="stroke:#181818;stroke-width:1.0;"/><line style="stroke:#181818;stroke-width:1.0;stroke-dasharray:2.0,2.0;" x1="576.5" x2="792.5" y1="783.7227" y2="783.7227"/><text fill="#000000" font-family="sans-serif" font-size="13" font-weight="bold" lengthAdjust="spacing" textLength="14" x="588.5" y="778.46">15</text><text fill="#000000" font-family="sans-serif" font-size="13" lengthAdjust="spacing" textLength="56" x="606.5" y="778.46">candidate</text><polygon fill="#181818" points="355.5,811.0137,345.5,815.0137,355.5,819.0137,351.5,815.0137" style="stroke:#181818;stroke-width:1.0;"/><line style="stroke:#181818;stroke-width:1.0;stroke-dasharray:2.0,2.0;" x1="349.5" x2="565.5" y1="815.0137" y2="815.0137"/><text fill="#000000" font-family="sans-serif" font-size="13" font-weight="bold" lengthAdjust="spacing" textLength="14" x="361.5" y="809.751">16</text><text fill="#000000" font-family="sans-serif" font-size="13" lengthAdjust="spacing" textLength="56" x="379.5" y="809.751">candidate</text><line style="stroke:#000000;stroke-width:1.0;stroke-dasharray:2.0,2.0;" x1="10" x2="1066.5" y1="824.0137" y2="824.0137"/><text fill="#000000" font-family="sans-serif" font-size="11" font-weight="bold" lengthAdjust="spacing" textLength="48" x="15" y="835.8838">[disable]</text><polygon fill="#181818" points="549.5,858.9355,559.5,862.9355,549.5,866.9355,553.5,862.9355" style="stroke:#181818;stroke-width:1.0;"/><line style="stroke:#181818;stroke-width:1.0;" x1="344.5" x2="555.5" y1="862.9355" y2="862.9355"/><text fill="#000000" font-family="sans-serif" font-size="13" font-weight="bold" lengthAdjust="spacing" textLength="14" x="351.5" y="857.6729">17</text><text fill="#000000" font-family="sans-serif" font-size="13" lengthAdjust="spacing" textLength="106" x="369.5" y="857.6729">activeCandidates()</text><polygon fill="#181818" points="966,890.2266,976,894.2266,966,898.2266,970,894.2266" style="stroke:#181818;stroke-width:1.0;"/><line style="stroke:#181818;stroke-width:1.0;" x1="571.5" x2="972" y1="894.2266" y2="894.2266"/><text fill="#000000" font-family="sans-serif" font-size="13" font-weight="bold" lengthAdjust="spacing" textLength="14" x="578.5" y="888.9639">18</text><text fill="#000000" font-family="sans-serif" font-size="13" lengthAdjust="spacing" textLength="241" x="596.5" y="888.9639">ensureAuthenticatedUserHasAnyOf(roles)</text><polygon fill="#181818" points="776.5,951.5176,786.5,955.5176,776.5,959.5176,780.5,955.5176" style="stroke:#181818;stroke-width:1.0;"/><line style="stroke:#181818;stroke-width:1.0;" x1="571.5" x2="782.5" y1="955.5176" y2="955.5176"/><text fill="#000000" font-family="sans-serif" font-size="13" font-weight="bold" lengthAdjust="spacing" textLength="14" x="578.5" y="950.2549">19</text><text fill="#000000" font-family="sans-serif" font-size="13" lengthAdjust="spacing" textLength="106" x="596.5" y="950.2549">activeCandidates()</text><polygon fill="#181818" points="582.5,982.8086,572.5,986.8086,582.5,990.8086,578.5,986.8086" style="stroke:#181818;stroke-width:1.0;"/><line style="stroke:#181818;stroke-width:1.0;stroke-dasharray:2.0,2.0;" x1="576.5" x2="792.5" y1="986.8086" y2="986.8086"/><text fill="#000000" font-family="sans-serif" font-size="13" font-weight="bold" lengthAdjust="spacing" textLength="14" x="588.5" y="981.5459">20</text><text fill="#000000" font-family="sans-serif" font-size="13" lengthAdjust="spacing" textLength="63" x="606.5" y="981.5459">candidates</text><polygon fill="#181818" points="355.5,1014.0996,345.5,1018.0996,355.5,1022.0996,351.5,1018.0996" style="stroke:#181818;stroke-width:1.0;"/><line style="stroke:#181818;stroke-width:1.0;stroke-dasharray:2.0,2.0;" x1="349.5" x2="565.5" y1="1018.0996" y2="1018.0996"/><text fill="#000000" font-family="sans-serif" font-size="13" font-weight="bold" lengthAdjust="spacing" textLength="14" x="361.5" y="1012.8369">21</text><text fill="#000000" font-family="sans-serif" font-size="13" lengthAdjust="spacing" textLength="63" x="379.5" y="1012.8369">candidates</text><polygon fill="#181818" points="67.5,1045.3906,57.5,1049.3906,67.5,1053.3906,63.5,1049.3906" style="stroke:#181818;stroke-width:1.0;"/><line style="stroke:#181818;stroke-width:1.0;stroke-dasharray:2.0,2.0;" x1="61.5" x2="333.5" y1="1049.3906" y2="1049.3906"/><text fill="#000000" font-family="sans-serif" font-size="13" font-weight="bold" lengthAdjust="spacing" textLength="14" x="73.5" y="1044.1279">22</text><text fill="#000000" font-family="sans-serif" font-size="13" lengthAdjust="spacing" textLength="104" x="91.5" y="1044.1279">shows candidates</text><polygon fill="#181818" points="322.5,1076.6816,332.5,1080.6816,322.5,1084.6816,326.5,1080.6816" style="stroke:#181818;stroke-width:1.0;"/><line style="stroke:#181818;stroke-width:1.0;" x1="56.5" x2="328.5" y1="1080.6816" y2="1080.6816"/><text fill="#000000" font-family="sans-serif" font-size="13" font-weight="bold" lengthAdjust="spacing" textLength="14" x="63.5" y="1075.4189">23</text><text fill="#000000" font-family="sans-serif" font-size="13" lengthAdjust="spacing" textLength="162" x="81.5" y="1075.4189">selects candidate to disable</text><polygon fill="#181818" points="549.5,1107.9727,559.5,1111.9727,549.5,1115.9727,553.5,1111.9727" style="stroke:#181818;stroke-width:1.0;"/><line style="stroke:#181818;stroke-width:1.0;" x1="344.5" x2="555.5" y1="1111.9727" y2="1111.9727"/><text fill="#000000" font-family="sans-serif" font-size="13" font-weight="bold" lengthAdjust="spacing" textLength="14" x="351.5" y="1106.71">24</text><text fill="#000000" font-family="sans-serif" font-size="13" lengthAdjust="spacing" textLength="180" x="369.5" y="1106.71">deactivateCandidate(candidate)</text><polygon fill="#181818" points="966,1139.2637,976,1143.2637,966,1147.2637,970,1143.2637" style="stroke:#181818;stroke-width:1.0;"/><line style="stroke:#181818;stroke-width:1.0;" x1="571.5" x2="972" y1="1143.2637" y2="1143.2637"/><text fill="#000000" font-family="sans-serif" font-size="13" font-weight="bold" lengthAdjust="spacing" textLength="14" x="578.5" y="1138.001">25</text><text fill="#000000" font-family="sans-serif" font-size="13" lengthAdjust="spacing" textLength="241" x="596.5" y="1138.001">ensureAuthenticatedUserHasAnyOf(roles)</text><polygon fill="#181818" points="776.5,1200.5547,786.5,1204.5547,776.5,1208.5547,780.5,1204.5547" style="stroke:#181818;stroke-width:1.0;"/><line style="stroke:#181818;stroke-width:1.0;" x1="571.5" x2="782.5" y1="1204.5547" y2="1204.5547"/><text fill="#000000" font-family="sans-serif" font-size="13" font-weight="bold" lengthAdjust="spacing" textLength="14" x="578.5" y="1199.292">26</text><text fill="#000000" font-family="sans-serif" font-size="13" lengthAdjust="spacing" textLength="180" x="596.5" y="1199.292">deactivateCandidate(candidate)</text><polygon fill="#181818" points="582.5,1231.8457,572.5,1235.8457,582.5,1239.8457,578.5,1235.8457" style="stroke:#181818;stroke-width:1.0;"/><line style="stroke:#181818;stroke-width:1.0;stroke-dasharray:2.0,2.0;" x1="576.5" x2="792.5" y1="1235.8457" y2="1235.8457"/><text fill="#000000" font-family="sans-serif" font-size="13" font-weight="bold" lengthAdjust="spacing" textLength="14" x="588.5" y="1230.583">27</text><text fill="#000000" font-family="sans-serif" font-size="13" lengthAdjust="spacing" textLength="56" x="606.5" y="1230.583">candidate</text><polygon fill="#181818" points="355.5,1263.1367,345.5,1267.1367,355.5,1271.1367,351.5,1267.1367" style="stroke:#181818;stroke-width:1.0;"/><line style="stroke:#181818;stroke-width:1.0;stroke-dasharray:2.0,2.0;" x1="349.5" x2="565.5" y1="1267.1367" y2="1267.1367"/><text fill="#000000" font-family="sans-serif" font-size="13" font-weight="bold" lengthAdjust="spacing" textLength="14" x="361.5" y="1261.874">28</text><text fill="#000000" font-family="sans-serif" font-size="13" lengthAdjust="spacing" textLength="56" x="379.5" y="1261.874">candidate</text><polygon fill="#181818" points="62.5,1301.4277,52.5,1305.4277,62.5,1309.4277,58.5,1305.4277" style="stroke:#181818;stroke-width:1.0;"/><line style="stroke:#181818;stroke-width:1.0;stroke-dasharray:2.0,2.0;" x1="56.5" x2="333.5" y1="1305.4277" y2="1305.4277"/><text fill="#000000" font-family="sans-serif" font-size="13" font-weight="bold" lengthAdjust="spacing" textLength="14" x="68.5" y="1300.165">29</text><text fill="#000000" font-family="sans-serif" font-size="13" lengthAdjust="spacing" textLength="49" x="86.5" y="1300.165">success</text><!--SRC=[pLH1Rjim4Bpp5GkVt01fZHw5m82H58Y16W4gwz8RJQqj8ZIfabI4zFLTKh94EuxXIzkS954xixEp8_766ztiDsWPyz8hX2B_EflDDf3ZhmQrG7YGV6VvdZ4klB4mUQhHShgR07TW-WV6Qcwz5BBcsiCa-wRvHk63TE5optKfI-wnM4PGiOIxkzgYG-svbqRFvnVXHdjhbCAkvVtwntV2yxfMKfo73mrNNFCTxgbFZlP52kmOLZaHkExa3NZH-CfO-JjIfx15iNxyUGHasdW4AtULxzwoTOLmZW2a0xclLTI29PCQF9KYfo5WI_PYQ-mpa6vefL9iWz0uB27M4NRRQ17ek9B-zJD3gWkzurBa2qsQRE9m1xVpO7K6BGtcm1l0QEkNilCLE8Y3KIDFiMICK8GDHj_SP20iXefuIiS7-emyUNRGLaYJM93-j0-GXBxL6L6YCiQXYpQOEin6moZVOmyQ8Ah8eCI3m79Ohfj-6cM7CiPYDWWMbv41aRd6ObW8sHxIWcL1wtlaRg5VdxPJYXMwXALRujYiFnY9AJhNY5db1A6KtVOsPgFJBgNl2YDtzENTkZZTcmMuohGkXHoxJ0MeKFYaPDnEkcLQPTzfc6SwGFwPoOd7SBMYKwSXiV2Iq-_MnH5HEHopUnp5M8h_8uL78RmeuqFdxyJNqm_yuqJmQar_9uJXBt_Ez4O8T8wbWE7d_mS0]--></g></svg>