<?xml version="1.0" encoding="UTF-8" standalone="no"?><svg xmlns="http://www.w3.org/2000/svg" xmlns:xlink="http://www.w3.org/1999/xlink" contentStyleType="text/css" height="1313px" preserveAspectRatio="none" style="width:1637px;height:1313px;background:#FFFFFF;" version="1.1" viewBox="0 0 1637 1313" width="1637px" zoomAndPan="magnify"><defs/><g><!--cluster <<aggregate>> Customer Manager--><g id="cluster_&lt;&lt;aggregate&gt;&gt; Customer Manager"><path d="M417.5,6.8945 L721.5,6.8945 A3.75,3.75 0 0 1 724,9.3945 L731,38.0508 L731.5,38.0508 A2.5,2.5 0 0 1 734,40.5508 L734,157.3945 A2.5,2.5 0 0 1 731.5,159.8945 L417.5,159.8945 A2.5,2.5 0 0 1 415,157.3945 L415,9.3945 A2.5,2.5 0 0 1 417.5,6.8945 " fill="none" style="stroke:#000000;stroke-width:1.5;"/><line style="stroke:#000000;stroke-width:1.5;" x1="415" x2="731" y1="38.0508" y2="38.0508"/><text fill="#000000" font-family="sans-serif" font-size="20" font-weight="bold" lengthAdjust="spacing" textLength="303" x="419" y="29.6563">«aggregate» Customer Manager</text></g><!--cluster <<aggregate>> Candidate--><g id="cluster_&lt;&lt;aggregate&gt;&gt; Candidate"><path d="M8.5,218.8945 L227.5,218.8945 A3.75,3.75 0 0 1 230,221.3945 L237,250.0508 L489.5,250.0508 A2.5,2.5 0 0 1 492,252.5508 L492,734.3945 A2.5,2.5 0 0 1 489.5,736.8945 L8.5,736.8945 A2.5,2.5 0 0 1 6,734.3945 L6,221.3945 A2.5,2.5 0 0 1 8.5,218.8945 " fill="none" style="stroke:#000000;stroke-width:1.5;"/><line style="stroke:#000000;stroke-width:1.5;" x1="6" x2="237" y1="250.0508" y2="250.0508"/><text fill="#000000" font-family="sans-serif" font-size="20" font-weight="bold" lengthAdjust="spacing" textLength="218" x="10" y="241.6563">«aggregate» Candidate</text></g><!--cluster <<aggregate>> Application--><g id="cluster_&lt;&lt;aggregate&gt;&gt; Application"><path d="M518.5,428.8945 L747.5,428.8945 A3.75,3.75 0 0 1 750,431.3945 L757,460.0508 L1627.5,460.0508 A2.5,2.5 0 0 1 1630,462.5508 L1630,1304.3945 A2.5,2.5 0 0 1 1627.5,1306.8945 L518.5,1306.8945 A2.5,2.5 0 0 1 516,1304.3945 L516,431.3945 A2.5,2.5 0 0 1 518.5,428.8945 " fill="none" style="stroke:#000000;stroke-width:1.5;"/><line style="stroke:#000000;stroke-width:1.5;" x1="516" x2="757" y1="460.0508" y2="460.0508"/><text fill="#000000" font-family="sans-serif" font-size="20" font-weight="bold" lengthAdjust="spacing" textLength="228" x="520" y="451.6563">«aggregate» Application</text></g><!--class CustomerManager--><g id="elem_CustomerManager"><rect codeLine="12" fill="#F5F5DC" height="93.4688" id="CustomerManager" rx="2.5" ry="2.5" style="stroke:#181818;stroke-width:0.5;" width="197" x="475.5" y="50.8945"/><ellipse cx="491.5" cy="93.6289" fill="#ADD1B2" rx="12" ry="12" style="stroke:#181818;stroke-width:1.0;"/><path d="M489.4531,94.6914 L489.4531,97.6289 L494.5469,97.6289 L494.5469,96.5352 Q494.5469,95.8164 494.8281,95.5195 Q495.1094,95.207 495.5625,95.207 Q496,95.207 496.2813,95.5195 Q496.5625,95.8164 496.5625,96.5352 L496.5625,99.6289 L487.125,99.6289 Q486.4063,99.6289 486.0938,99.3477 Q485.7969,99.0664 485.7969,98.6289 Q485.7969,98.1758 486.1094,97.9102 Q486.4219,97.6289 487.125,97.6289 L487.4375,97.6289 L487.4375,89.8008 L487.125,89.8008 Q486.4063,89.8008 486.0938,89.5195 Q485.7969,89.2383 485.7969,88.7852 Q485.7969,88.332 486.0938,88.0664 Q486.4063,87.7852 487.125,87.7852 L496.1094,87.7852 L496.1094,90.832 Q496.1094,91.5508 495.8281,91.8633 Q495.5625,92.1602 495.125,92.1602 Q494.6719,92.1602 494.3906,91.8633 Q494.1094,91.5664 494.1094,90.832 L494.1094,89.8008 L489.4531,89.8008 L489.4531,92.6914 L491.2031,92.6914 Q491.2031,91.9102 491.3438,91.6758 Q491.6563,91.207 492.2031,91.207 Q492.6563,91.207 492.9219,91.5195 Q493.2031,91.8164 493.2031,92.5352 L493.2031,94.8477 Q493.2031,95.5039 493.0469,95.7227 Q492.7344,96.1758 492.2031,96.1758 Q491.6563,96.1758 491.3438,95.707 Q491.2031,95.4727 491.2031,94.6914 L489.4531,94.6914 Z " fill="#000000"/><text fill="#000000" font-family="sans-serif" font-size="20" font-style="italic" lengthAdjust="spacing" textLength="69" x="553.5" y="76.6563">«entity»</text><text fill="#000000" font-family="sans-serif" font-size="20" font-style="italic" lengthAdjust="spacing" textLength="56" x="560" y="101.8125">«root»</text><text fill="#000000" font-family="sans-serif" font-size="20" lengthAdjust="spacing" textLength="163" x="506.5" y="126.9688">CustomerManager</text><line style="stroke:#181818;stroke-width:0.5;" x1="476.5" x2="671.5" y1="136.3633" y2="136.3633"/></g><!--class Candidate--><g id="elem_Candidate"><rect codeLine="17" fill="#F5F5DC" height="93.4688" id="Candidate" rx="2.5" ry="2.5" style="stroke:#181818;stroke-width:0.5;" width="123" x="307.5" y="262.8945"/><ellipse cx="323.5" cy="305.6289" fill="#ADD1B2" rx="12" ry="12" style="stroke:#181818;stroke-width:1.0;"/><path d="M321.4531,306.6914 L321.4531,309.6289 L326.5469,309.6289 L326.5469,308.5352 Q326.5469,307.8164 326.8281,307.5195 Q327.1094,307.207 327.5625,307.207 Q328,307.207 328.2813,307.5195 Q328.5625,307.8164 328.5625,308.5352 L328.5625,311.6289 L319.125,311.6289 Q318.4063,311.6289 318.0938,311.3477 Q317.7969,311.0664 317.7969,310.6289 Q317.7969,310.1758 318.1094,309.9102 Q318.4219,309.6289 319.125,309.6289 L319.4375,309.6289 L319.4375,301.8008 L319.125,301.8008 Q318.4063,301.8008 318.0938,301.5195 Q317.7969,301.2383 317.7969,300.7852 Q317.7969,300.332 318.0938,300.0664 Q318.4063,299.7852 319.125,299.7852 L328.1094,299.7852 L328.1094,302.832 Q328.1094,303.5508 327.8281,303.8633 Q327.5625,304.1602 327.125,304.1602 Q326.6719,304.1602 326.3906,303.8633 Q326.1094,303.5664 326.1094,302.832 L326.1094,301.8008 L321.4531,301.8008 L321.4531,304.6914 L323.2031,304.6914 Q323.2031,303.9102 323.3438,303.6758 Q323.6563,303.207 324.2031,303.207 Q324.6563,303.207 324.9219,303.5195 Q325.2031,303.8164 325.2031,304.5352 L325.2031,306.8477 Q325.2031,307.5039 325.0469,307.7227 Q324.7344,308.1758 324.2031,308.1758 Q323.6563,308.1758 323.3438,307.707 Q323.2031,307.4727 323.2031,306.6914 L321.4531,306.6914 Z " fill="#000000"/><text fill="#000000" font-family="sans-serif" font-size="20" font-style="italic" lengthAdjust="spacing" textLength="69" x="348.5" y="288.6563">«entity»</text><text fill="#000000" font-family="sans-serif" font-size="20" font-style="italic" lengthAdjust="spacing" textLength="56" x="355" y="313.8125">«root»</text><text fill="#000000" font-family="sans-serif" font-size="20" lengthAdjust="spacing" textLength="89" x="338.5" y="338.9688">Candidate</text><line style="stroke:#181818;stroke-width:0.5;" x1="308.5" x2="429.5" y1="348.3633" y2="348.3633"/></g><!--class CandidateName--><g id="elem_CandidateName"><rect codeLine="18" fill="#F5F5DC" height="68.3125" id="CandidateName" rx="2.5" ry="2.5" style="stroke:#181818;stroke-width:0.5;" width="174" x="22" y="485.3945"/><ellipse cx="38" cy="515.5508" fill="#FF8B40" rx="12" ry="12" style="stroke:#181818;stroke-width:1.0;"/><path d="M38.5,519.6289 L41.3906,512.7227 L40.9375,512.7227 Q40.2188,512.7227 39.9063,512.4414 Q39.5938,512.1602 39.5938,511.707 Q39.5938,511.2539 39.9063,510.9883 Q40.2188,510.707 40.9375,510.707 L43.625,510.707 Q44.3438,510.707 44.6563,510.9883 Q44.9688,511.2539 44.9688,511.707 Q44.9688,512.2539 44.5,512.5664 Q44.2656,512.7227 43.5781,512.7227 L39.4688,522.5508 L37.5469,522.5508 L33.4375,512.7227 Q32.7344,512.7227 32.5156,512.5664 Q32.0469,512.2539 32.0469,511.707 Q32.0469,511.2539 32.3594,510.9883 Q32.6563,510.707 33.375,510.707 L36.0781,510.707 Q36.7969,510.707 37.0938,510.9883 Q37.4063,511.2539 37.4063,511.707 Q37.4063,512.1602 37.1094,512.4414 Q36.8125,512.7227 36.0781,512.7227 L35.6094,512.7227 L38.5,519.6289 Z " fill="#000000"/><text fill="#000000" font-family="sans-serif" font-size="20" font-style="italic" lengthAdjust="spacing" textLength="128" x="59" y="511.1563">«value object»</text><text fill="#000000" font-family="sans-serif" font-size="20" lengthAdjust="spacing" textLength="140" x="53" y="536.3125">CandidateName</text><line style="stroke:#181818;stroke-width:0.5;" x1="23" x2="195" y1="545.707" y2="545.707"/></g><!--class PhoneNumber--><g id="elem_PhoneNumber"><rect codeLine="19" fill="#F5F5DC" height="68.3125" id="PhoneNumber" rx="2.5" ry="2.5" style="stroke:#181818;stroke-width:0.5;" width="158" x="111" y="652.8945"/><ellipse cx="127" cy="683.0508" fill="#FF8B40" rx="12" ry="12" style="stroke:#181818;stroke-width:1.0;"/><path d="M127.5,687.1289 L130.3906,680.2227 L129.9375,680.2227 Q129.2188,680.2227 128.9063,679.9414 Q128.5938,679.6602 128.5938,679.207 Q128.5938,678.7539 128.9063,678.4883 Q129.2188,678.207 129.9375,678.207 L132.625,678.207 Q133.3438,678.207 133.6563,678.4883 Q133.9688,678.7539 133.9688,679.207 Q133.9688,679.7539 133.5,680.0664 Q133.2656,680.2227 132.5781,680.2227 L128.4688,690.0508 L126.5469,690.0508 L122.4375,680.2227 Q121.7344,680.2227 121.5156,680.0664 Q121.0469,679.7539 121.0469,679.207 Q121.0469,678.7539 121.3594,678.4883 Q121.6563,678.207 122.375,678.207 L125.0781,678.207 Q125.7969,678.207 126.0938,678.4883 Q126.4063,678.7539 126.4063,679.207 Q126.4063,679.6602 126.1094,679.9414 Q125.8125,680.2227 125.0781,680.2227 L124.6094,680.2227 L127.5,687.1289 Z " fill="#000000"/><text fill="#000000" font-family="sans-serif" font-size="20" font-style="italic" lengthAdjust="spacing" textLength="128" x="140" y="678.6563">«value object»</text><text fill="#000000" font-family="sans-serif" font-size="20" lengthAdjust="spacing" textLength="123" x="142.5" y="703.8125">PhoneNumber</text><line style="stroke:#181818;stroke-width:0.5;" x1="112" x2="268" y1="713.207" y2="713.207"/></g><!--class Email--><g id="elem_Email"><rect codeLine="20" fill="#F5F5DC" height="68.3125" id="Email" rx="2.5" ry="2.5" style="stroke:#181818;stroke-width:0.5;" width="158" x="304" y="652.8945"/><ellipse cx="320" cy="683.0508" fill="#FF8B40" rx="12" ry="12" style="stroke:#181818;stroke-width:1.0;"/><path d="M320.5,687.1289 L323.3906,680.2227 L322.9375,680.2227 Q322.2188,680.2227 321.9063,679.9414 Q321.5938,679.6602 321.5938,679.207 Q321.5938,678.7539 321.9063,678.4883 Q322.2188,678.207 322.9375,678.207 L325.625,678.207 Q326.3438,678.207 326.6563,678.4883 Q326.9688,678.7539 326.9688,679.207 Q326.9688,679.7539 326.5,680.0664 Q326.2656,680.2227 325.5781,680.2227 L321.4688,690.0508 L319.5469,690.0508 L315.4375,680.2227 Q314.7344,680.2227 314.5156,680.0664 Q314.0469,679.7539 314.0469,679.207 Q314.0469,678.7539 314.3594,678.4883 Q314.6563,678.207 315.375,678.207 L318.0781,678.207 Q318.7969,678.207 319.0938,678.4883 Q319.4063,678.7539 319.4063,679.207 Q319.4063,679.6602 319.1094,679.9414 Q318.8125,680.2227 318.0781,680.2227 L317.6094,680.2227 L320.5,687.1289 Z " fill="#000000"/><text fill="#000000" font-family="sans-serif" font-size="20" font-style="italic" lengthAdjust="spacing" textLength="128" x="333" y="678.6563">«value object»</text><text fill="#000000" font-family="sans-serif" font-size="20" lengthAdjust="spacing" textLength="48" x="373" y="703.8125">Email</text><line style="stroke:#181818;stroke-width:0.5;" x1="305" x2="461" y1="713.207" y2="713.207"/></g><!--class Application--><g id="elem_Application"><rect codeLine="25" fill="#F5F5DC" height="93.4688" id="Application" rx="2.5" ry="2.5" style="stroke:#181818;stroke-width:0.5;" width="129" x="846.5" y="472.8945"/><ellipse cx="862.5" cy="515.6289" fill="#ADD1B2" rx="12" ry="12" style="stroke:#181818;stroke-width:1.0;"/><path d="M860.4531,516.6914 L860.4531,519.6289 L865.5469,519.6289 L865.5469,518.5352 Q865.5469,517.8164 865.8281,517.5195 Q866.1094,517.207 866.5625,517.207 Q867,517.207 867.2813,517.5195 Q867.5625,517.8164 867.5625,518.5352 L867.5625,521.6289 L858.125,521.6289 Q857.4063,521.6289 857.0938,521.3477 Q856.7969,521.0664 856.7969,520.6289 Q856.7969,520.1758 857.1094,519.9102 Q857.4219,519.6289 858.125,519.6289 L858.4375,519.6289 L858.4375,511.8008 L858.125,511.8008 Q857.4063,511.8008 857.0938,511.5195 Q856.7969,511.2383 856.7969,510.7852 Q856.7969,510.332 857.0938,510.0664 Q857.4063,509.7852 858.125,509.7852 L867.1094,509.7852 L867.1094,512.832 Q867.1094,513.5508 866.8281,513.8633 Q866.5625,514.1602 866.125,514.1602 Q865.6719,514.1602 865.3906,513.8633 Q865.1094,513.5664 865.1094,512.832 L865.1094,511.8008 L860.4531,511.8008 L860.4531,514.6914 L862.2031,514.6914 Q862.2031,513.9102 862.3438,513.6758 Q862.6563,513.207 863.2031,513.207 Q863.6563,513.207 863.9219,513.5195 Q864.2031,513.8164 864.2031,514.5352 L864.2031,516.8477 Q864.2031,517.5039 864.0469,517.7227 Q863.7344,518.1758 863.2031,518.1758 Q862.6563,518.1758 862.3438,517.707 Q862.2031,517.4727 862.2031,516.6914 L860.4531,516.6914 Z " fill="#000000"/><text fill="#000000" font-family="sans-serif" font-size="20" font-style="italic" lengthAdjust="spacing" textLength="69" x="890.5" y="498.6563">«entity»</text><text fill="#000000" font-family="sans-serif" font-size="20" font-style="italic" lengthAdjust="spacing" textLength="56" x="897" y="523.8125">«root»</text><text fill="#000000" font-family="sans-serif" font-size="20" lengthAdjust="spacing" textLength="95" x="877.5" y="548.9688">Application</text><line style="stroke:#181818;stroke-width:0.5;" x1="847.5" x2="974.5" y1="558.3633" y2="558.3633"/></g><!--class ApplicationDate--><g id="elem_ApplicationDate"><rect codeLine="26" fill="#F5F5DC" height="68.3125" id="ApplicationDate" rx="2.5" ry="2.5" style="stroke:#181818;stroke-width:0.5;" width="171" x="532.5" y="783.8945"/><ellipse cx="548.5" cy="814.0508" fill="#FF8B40" rx="12" ry="12" style="stroke:#181818;stroke-width:1.0;"/><path d="M549,818.1289 L551.8906,811.2227 L551.4375,811.2227 Q550.7188,811.2227 550.4063,810.9414 Q550.0938,810.6602 550.0938,810.207 Q550.0938,809.7539 550.4063,809.4883 Q550.7188,809.207 551.4375,809.207 L554.125,809.207 Q554.8438,809.207 555.1563,809.4883 Q555.4688,809.7539 555.4688,810.207 Q555.4688,810.7539 555,811.0664 Q554.7656,811.2227 554.0781,811.2227 L549.9688,821.0508 L548.0469,821.0508 L543.9375,811.2227 Q543.2344,811.2227 543.0156,811.0664 Q542.5469,810.7539 542.5469,810.207 Q542.5469,809.7539 542.8594,809.4883 Q543.1563,809.207 543.875,809.207 L546.5781,809.207 Q547.2969,809.207 547.5938,809.4883 Q547.9063,809.7539 547.9063,810.207 Q547.9063,810.6602 547.6094,810.9414 Q547.3125,811.2227 546.5781,811.2227 L546.1094,811.2227 L549,818.1289 Z " fill="#000000"/><text fill="#000000" font-family="sans-serif" font-size="20" font-style="italic" lengthAdjust="spacing" textLength="128" x="568" y="809.6563">«value object»</text><text fill="#000000" font-family="sans-serif" font-size="20" lengthAdjust="spacing" textLength="137" x="563.5" y="834.8125">ApplicationDate</text><line style="stroke:#181818;stroke-width:0.5;" x1="533.5" x2="702.5" y1="844.207" y2="844.207"/></g><!--class ApplicationStatus--><g id="elem_ApplicationStatus"><rect codeLine="27" fill="#F5F5DC" height="68.3125" id="ApplicationStatus" rx="2.5" ry="2.5" style="stroke:#181818;stroke-width:0.5;" width="185" x="720.5" y="652.8945"/><ellipse cx="736.5" cy="683.0508" fill="#FF8B40" rx="12" ry="12" style="stroke:#181818;stroke-width:1.0;"/><path d="M737,687.1289 L739.8906,680.2227 L739.4375,680.2227 Q738.7188,680.2227 738.4063,679.9414 Q738.0938,679.6602 738.0938,679.207 Q738.0938,678.7539 738.4063,678.4883 Q738.7188,678.207 739.4375,678.207 L742.125,678.207 Q742.8438,678.207 743.1563,678.4883 Q743.4688,678.7539 743.4688,679.207 Q743.4688,679.7539 743,680.0664 Q742.7656,680.2227 742.0781,680.2227 L737.9688,690.0508 L736.0469,690.0508 L731.9375,680.2227 Q731.2344,680.2227 731.0156,680.0664 Q730.5469,679.7539 730.5469,679.207 Q730.5469,678.7539 730.8594,678.4883 Q731.1563,678.207 731.875,678.207 L734.5781,678.207 Q735.2969,678.207 735.5938,678.4883 Q735.9063,678.7539 735.9063,679.207 Q735.9063,679.6602 735.6094,679.9414 Q735.3125,680.2227 734.5781,680.2227 L734.1094,680.2227 L737,687.1289 Z " fill="#000000"/><text fill="#000000" font-family="sans-serif" font-size="20" font-style="italic" lengthAdjust="spacing" textLength="128" x="763" y="678.6563">«value object»</text><text fill="#000000" font-family="sans-serif" font-size="20" lengthAdjust="spacing" textLength="151" x="751.5" y="703.8125">ApplicationStatus</text><line style="stroke:#181818;stroke-width:0.5;" x1="721.5" x2="904.5" y1="713.207" y2="713.207"/></g><!--class Interview--><g id="elem_Interview"><rect codeLine="28" fill="#F5F5DC" height="68.3125" id="Interview" rx="2.5" ry="2.5" style="stroke:#181818;stroke-width:0.5;" width="158" x="897" y="783.8945"/><ellipse cx="913" cy="814.0508" fill="#FF8B40" rx="12" ry="12" style="stroke:#181818;stroke-width:1.0;"/><path d="M913.5,818.1289 L916.3906,811.2227 L915.9375,811.2227 Q915.2188,811.2227 914.9063,810.9414 Q914.5938,810.6602 914.5938,810.207 Q914.5938,809.7539 914.9063,809.4883 Q915.2188,809.207 915.9375,809.207 L918.625,809.207 Q919.3438,809.207 919.6563,809.4883 Q919.9688,809.7539 919.9688,810.207 Q919.9688,810.7539 919.5,811.0664 Q919.2656,811.2227 918.5781,811.2227 L914.4688,821.0508 L912.5469,821.0508 L908.4375,811.2227 Q907.7344,811.2227 907.5156,811.0664 Q907.0469,810.7539 907.0469,810.207 Q907.0469,809.7539 907.3594,809.4883 Q907.6563,809.207 908.375,809.207 L911.0781,809.207 Q911.7969,809.207 912.0938,809.4883 Q912.4063,809.7539 912.4063,810.207 Q912.4063,810.6602 912.1094,810.9414 Q911.8125,811.2227 911.0781,811.2227 L910.6094,811.2227 L913.5,818.1289 Z " fill="#000000"/><text fill="#000000" font-family="sans-serif" font-size="20" font-style="italic" lengthAdjust="spacing" textLength="128" x="926" y="809.6563">«value object»</text><text fill="#000000" font-family="sans-serif" font-size="20" lengthAdjust="spacing" textLength="79" x="950.5" y="834.8125">Interview</text><line style="stroke:#181818;stroke-width:0.5;" x1="898" x2="1054" y1="844.207" y2="844.207"/></g><!--class InterviewAnswer--><g id="elem_InterviewAnswer"><rect codeLine="35" fill="#F5F5DC" height="68.3125" id="InterviewAnswer" rx="2.5" ry="2.5" style="stroke:#181818;stroke-width:0.5;" width="179" x="1115.5" y="1067.8945"/><ellipse cx="1131.5" cy="1098.0508" fill="#FF8B40" rx="12" ry="12" style="stroke:#181818;stroke-width:1.0;"/><path d="M1132,1102.1289 L1134.8906,1095.2227 L1134.4375,1095.2227 Q1133.7188,1095.2227 1133.4063,1094.9414 Q1133.0938,1094.6602 1133.0938,1094.207 Q1133.0938,1093.7539 1133.4063,1093.4883 Q1133.7188,1093.207 1134.4375,1093.207 L1137.125,1093.207 Q1137.8438,1093.207 1138.1563,1093.4883 Q1138.4688,1093.7539 1138.4688,1094.207 Q1138.4688,1094.7539 1138,1095.0664 Q1137.7656,1095.2227 1137.0781,1095.2227 L1132.9688,1105.0508 L1131.0469,1105.0508 L1126.9375,1095.2227 Q1126.2344,1095.2227 1126.0156,1095.0664 Q1125.5469,1094.7539 1125.5469,1094.207 Q1125.5469,1093.7539 1125.8594,1093.4883 Q1126.1563,1093.207 1126.875,1093.207 L1129.5781,1093.207 Q1130.2969,1093.207 1130.5938,1093.4883 Q1130.9063,1093.7539 1130.9063,1094.207 Q1130.9063,1094.6602 1130.6094,1094.9414 Q1130.3125,1095.2227 1129.5781,1095.2227 L1129.1094,1095.2227 L1132,1102.1289 Z " fill="#000000"/><text fill="#000000" font-family="sans-serif" font-size="20" font-style="italic" lengthAdjust="spacing" textLength="128" x="1155" y="1093.6563">«value object»</text><text fill="#000000" font-family="sans-serif" font-size="20" lengthAdjust="spacing" textLength="145" x="1146.5" y="1118.8125">InterviewAnswer</text><line style="stroke:#181818;stroke-width:0.5;" x1="1116.5" x2="1293.5" y1="1128.207" y2="1128.207"/></g><!--class InterviewResult--><g id="elem_InterviewResult"><rect codeLine="30" fill="#F5F5DC" height="68.3125" id="InterviewResult" rx="2.5" ry="2.5" style="stroke:#181818;stroke-width:0.5;" width="168" x="626" y="1067.8945"/><ellipse cx="642" cy="1098.0508" fill="#FF8B40" rx="12" ry="12" style="stroke:#181818;stroke-width:1.0;"/><path d="M642.5,1102.1289 L645.3906,1095.2227 L644.9375,1095.2227 Q644.2188,1095.2227 643.9063,1094.9414 Q643.5938,1094.6602 643.5938,1094.207 Q643.5938,1093.7539 643.9063,1093.4883 Q644.2188,1093.207 644.9375,1093.207 L647.625,1093.207 Q648.3438,1093.207 648.6563,1093.4883 Q648.9688,1093.7539 648.9688,1094.207 Q648.9688,1094.7539 648.5,1095.0664 Q648.2656,1095.2227 647.5781,1095.2227 L643.4688,1105.0508 L641.5469,1105.0508 L637.4375,1095.2227 Q636.7344,1095.2227 636.5156,1095.0664 Q636.0469,1094.7539 636.0469,1094.207 Q636.0469,1093.7539 636.3594,1093.4883 Q636.6563,1093.207 637.375,1093.207 L640.0781,1093.207 Q640.7969,1093.207 641.0938,1093.4883 Q641.4063,1093.7539 641.4063,1094.207 Q641.4063,1094.6602 641.1094,1094.9414 Q640.8125,1095.2227 640.0781,1095.2227 L639.6094,1095.2227 L642.5,1102.1289 Z " fill="#000000"/><text fill="#000000" font-family="sans-serif" font-size="20" font-style="italic" lengthAdjust="spacing" textLength="128" x="660" y="1093.6563">«value object»</text><text fill="#000000" font-family="sans-serif" font-size="20" lengthAdjust="spacing" textLength="134" x="657" y="1118.8125">InterviewResult</text><line style="stroke:#181818;stroke-width:0.5;" x1="627" x2="793" y1="1128.207" y2="1128.207"/></g><!--class Justification--><g id="elem_Justification"><rect codeLine="31" fill="#F5F5DC" height="68.3125" id="Justification" rx="2.5" ry="2.5" style="stroke:#181818;stroke-width:0.5;" width="158" x="631" y="1222.8945"/><ellipse cx="647" cy="1253.0508" fill="#FF8B40" rx="12" ry="12" style="stroke:#181818;stroke-width:1.0;"/><path d="M647.5,1257.1289 L650.3906,1250.2227 L649.9375,1250.2227 Q649.2188,1250.2227 648.9063,1249.9414 Q648.5938,1249.6602 648.5938,1249.207 Q648.5938,1248.7539 648.9063,1248.4883 Q649.2188,1248.207 649.9375,1248.207 L652.625,1248.207 Q653.3438,1248.207 653.6563,1248.4883 Q653.9688,1248.7539 653.9688,1249.207 Q653.9688,1249.7539 653.5,1250.0664 Q653.2656,1250.2227 652.5781,1250.2227 L648.4688,1260.0508 L646.5469,1260.0508 L642.4375,1250.2227 Q641.7344,1250.2227 641.5156,1250.0664 Q641.0469,1249.7539 641.0469,1249.207 Q641.0469,1248.7539 641.3594,1248.4883 Q641.6563,1248.207 642.375,1248.207 L645.0781,1248.207 Q645.7969,1248.207 646.0938,1248.4883 Q646.4063,1248.7539 646.4063,1249.207 Q646.4063,1249.6602 646.1094,1249.9414 Q645.8125,1250.2227 645.0781,1250.2227 L644.6094,1250.2227 L647.5,1257.1289 Z " fill="#000000"/><text fill="#000000" font-family="sans-serif" font-size="20" font-style="italic" lengthAdjust="spacing" textLength="128" x="660" y="1248.6563">«value object»</text><text fill="#000000" font-family="sans-serif" font-size="20" lengthAdjust="spacing" textLength="102" x="673" y="1273.8125">Justification</text><line style="stroke:#181818;stroke-width:0.5;" x1="632" x2="788" y1="1283.207" y2="1283.207"/></g><!--class InterviewGrade--><g id="elem_InterviewGrade"><rect codeLine="32" fill="#F5F5DC" height="68.3125" id="InterviewGrade" rx="2.5" ry="2.5" style="stroke:#181818;stroke-width:0.5;" width="169" x="911.5" y="1067.8945"/><ellipse cx="927.5" cy="1098.0508" fill="#FF8B40" rx="12" ry="12" style="stroke:#181818;stroke-width:1.0;"/><path d="M928,1102.1289 L930.8906,1095.2227 L930.4375,1095.2227 Q929.7188,1095.2227 929.4063,1094.9414 Q929.0938,1094.6602 929.0938,1094.207 Q929.0938,1093.7539 929.4063,1093.4883 Q929.7188,1093.207 930.4375,1093.207 L933.125,1093.207 Q933.8438,1093.207 934.1563,1093.4883 Q934.4688,1093.7539 934.4688,1094.207 Q934.4688,1094.7539 934,1095.0664 Q933.7656,1095.2227 933.0781,1095.2227 L928.9688,1105.0508 L927.0469,1105.0508 L922.9375,1095.2227 Q922.2344,1095.2227 922.0156,1095.0664 Q921.5469,1094.7539 921.5469,1094.207 Q921.5469,1093.7539 921.8594,1093.4883 Q922.1563,1093.207 922.875,1093.207 L925.5781,1093.207 Q926.2969,1093.207 926.5938,1093.4883 Q926.9063,1093.7539 926.9063,1094.207 Q926.9063,1094.6602 926.6094,1094.9414 Q926.3125,1095.2227 925.5781,1095.2227 L925.1094,1095.2227 L928,1102.1289 Z " fill="#000000"/><text fill="#000000" font-family="sans-serif" font-size="20" font-style="italic" lengthAdjust="spacing" textLength="128" x="946" y="1093.6563">«value object»</text><text fill="#000000" font-family="sans-serif" font-size="20" lengthAdjust="spacing" textLength="135" x="942.5" y="1118.8125">InterviewGrade</text><line style="stroke:#181818;stroke-width:0.5;" x1="912.5" x2="1079.5" y1="1128.207" y2="1128.207"/></g><!--class RequirementAnswer--><g id="elem_RequirementAnswer"><rect codeLine="33" fill="#F5F5DC" height="68.3125" id="RequirementAnswer" rx="2.5" ry="2.5" style="stroke:#181818;stroke-width:0.5;" width="211" x="1083.5" y="652.8945"/><ellipse cx="1099.5" cy="683.0508" fill="#FF8B40" rx="12" ry="12" style="stroke:#181818;stroke-width:1.0;"/><path d="M1100,687.1289 L1102.8906,680.2227 L1102.4375,680.2227 Q1101.7188,680.2227 1101.4063,679.9414 Q1101.0938,679.6602 1101.0938,679.207 Q1101.0938,678.7539 1101.4063,678.4883 Q1101.7188,678.207 1102.4375,678.207 L1105.125,678.207 Q1105.8438,678.207 1106.1563,678.4883 Q1106.4688,678.7539 1106.4688,679.207 Q1106.4688,679.7539 1106,680.0664 Q1105.7656,680.2227 1105.0781,680.2227 L1100.9688,690.0508 L1099.0469,690.0508 L1094.9375,680.2227 Q1094.2344,680.2227 1094.0156,680.0664 Q1093.5469,679.7539 1093.5469,679.207 Q1093.5469,678.7539 1093.8594,678.4883 Q1094.1563,678.207 1094.875,678.207 L1097.5781,678.207 Q1098.2969,678.207 1098.5938,678.4883 Q1098.9063,678.7539 1098.9063,679.207 Q1098.9063,679.6602 1098.6094,679.9414 Q1098.3125,680.2227 1097.5781,680.2227 L1097.1094,680.2227 L1100,687.1289 Z " fill="#000000"/><text fill="#000000" font-family="sans-serif" font-size="20" font-style="italic" lengthAdjust="spacing" textLength="128" x="1139" y="678.6563">«value object»</text><text fill="#000000" font-family="sans-serif" font-size="20" lengthAdjust="spacing" textLength="177" x="1114.5" y="703.8125">RequirementAnswer</text><line style="stroke:#181818;stroke-width:0.5;" x1="1084.5" x2="1293.5" y1="713.207" y2="713.207"/></g><!--class RequirementResult--><g id="elem_RequirementResult"><rect codeLine="34" fill="#F5F5DC" height="68.3125" id="RequirementResult" rx="2.5" ry="2.5" style="stroke:#181818;stroke-width:0.5;" width="200" x="1207" y="783.8945"/><ellipse cx="1223" cy="814.0508" fill="#FF8B40" rx="12" ry="12" style="stroke:#181818;stroke-width:1.0;"/><path d="M1223.5,818.1289 L1226.3906,811.2227 L1225.9375,811.2227 Q1225.2188,811.2227 1224.9063,810.9414 Q1224.5938,810.6602 1224.5938,810.207 Q1224.5938,809.7539 1224.9063,809.4883 Q1225.2188,809.207 1225.9375,809.207 L1228.625,809.207 Q1229.3438,809.207 1229.6563,809.4883 Q1229.9688,809.7539 1229.9688,810.207 Q1229.9688,810.7539 1229.5,811.0664 Q1229.2656,811.2227 1228.5781,811.2227 L1224.4688,821.0508 L1222.5469,821.0508 L1218.4375,811.2227 Q1217.7344,811.2227 1217.5156,811.0664 Q1217.0469,810.7539 1217.0469,810.207 Q1217.0469,809.7539 1217.3594,809.4883 Q1217.6563,809.207 1218.375,809.207 L1221.0781,809.207 Q1221.7969,809.207 1222.0938,809.4883 Q1222.4063,809.7539 1222.4063,810.207 Q1222.4063,810.6602 1222.1094,810.9414 Q1221.8125,811.2227 1221.0781,811.2227 L1220.6094,811.2227 L1223.5,818.1289 Z " fill="#000000"/><text fill="#000000" font-family="sans-serif" font-size="20" font-style="italic" lengthAdjust="spacing" textLength="128" x="1257" y="809.6563">«value object»</text><text fill="#000000" font-family="sans-serif" font-size="20" lengthAdjust="spacing" textLength="166" x="1238" y="834.8125">RequirementResult</text><line style="stroke:#181818;stroke-width:0.5;" x1="1208" x2="1406" y1="844.207" y2="844.207"/></g><!--class Schedule--><g id="elem_Schedule"><rect codeLine="36" fill="#F5F5DC" height="68.3125" id="Schedule" rx="2.5" ry="2.5" style="stroke:#181818;stroke-width:0.5;" width="158" x="1119" y="938.8945"/><ellipse cx="1135" cy="969.0508" fill="#FF8B40" rx="12" ry="12" style="stroke:#181818;stroke-width:1.0;"/><path d="M1135.5,973.1289 L1138.3906,966.2227 L1137.9375,966.2227 Q1137.2188,966.2227 1136.9063,965.9414 Q1136.5938,965.6602 1136.5938,965.207 Q1136.5938,964.7539 1136.9063,964.4883 Q1137.2188,964.207 1137.9375,964.207 L1140.625,964.207 Q1141.3438,964.207 1141.6563,964.4883 Q1141.9688,964.7539 1141.9688,965.207 Q1141.9688,965.7539 1141.5,966.0664 Q1141.2656,966.2227 1140.5781,966.2227 L1136.4688,976.0508 L1134.5469,976.0508 L1130.4375,966.2227 Q1129.7344,966.2227 1129.5156,966.0664 Q1129.0469,965.7539 1129.0469,965.207 Q1129.0469,964.7539 1129.3594,964.4883 Q1129.6563,964.207 1130.375,964.207 L1133.0781,964.207 Q1133.7969,964.207 1134.0938,964.4883 Q1134.4063,964.7539 1134.4063,965.207 Q1134.4063,965.6602 1134.1094,965.9414 Q1133.8125,966.2227 1133.0781,966.2227 L1132.6094,966.2227 L1135.5,973.1289 Z " fill="#000000"/><text fill="#000000" font-family="sans-serif" font-size="20" font-style="italic" lengthAdjust="spacing" textLength="128" x="1148" y="964.6563">«value object»</text><text fill="#000000" font-family="sans-serif" font-size="20" lengthAdjust="spacing" textLength="80" x="1172" y="989.8125">Schedule</text><line style="stroke:#181818;stroke-width:0.5;" x1="1120" x2="1276" y1="999.207" y2="999.207"/></g><!--class File--><g id="elem_File"><rect codeLine="37" fill="#F5F5DC" height="68.3125" id="File" rx="2.5" ry="2.5" style="stroke:#181818;stroke-width:0.5;" width="158" x="1442" y="783.8945"/><ellipse cx="1458" cy="814.0508" fill="#FF8B40" rx="12" ry="12" style="stroke:#181818;stroke-width:1.0;"/><path d="M1458.5,818.1289 L1461.3906,811.2227 L1460.9375,811.2227 Q1460.2188,811.2227 1459.9063,810.9414 Q1459.5938,810.6602 1459.5938,810.207 Q1459.5938,809.7539 1459.9063,809.4883 Q1460.2188,809.207 1460.9375,809.207 L1463.625,809.207 Q1464.3438,809.207 1464.6563,809.4883 Q1464.9688,809.7539 1464.9688,810.207 Q1464.9688,810.7539 1464.5,811.0664 Q1464.2656,811.2227 1463.5781,811.2227 L1459.4688,821.0508 L1457.5469,821.0508 L1453.4375,811.2227 Q1452.7344,811.2227 1452.5156,811.0664 Q1452.0469,810.7539 1452.0469,810.207 Q1452.0469,809.7539 1452.3594,809.4883 Q1452.6563,809.207 1453.375,809.207 L1456.0781,809.207 Q1456.7969,809.207 1457.0938,809.4883 Q1457.4063,809.7539 1457.4063,810.207 Q1457.4063,810.6602 1457.1094,810.9414 Q1456.8125,811.2227 1456.0781,811.2227 L1455.6094,811.2227 L1458.5,818.1289 Z " fill="#000000"/><text fill="#000000" font-family="sans-serif" font-size="20" font-style="italic" lengthAdjust="spacing" textLength="128" x="1471" y="809.6563">«value object»</text><text fill="#000000" font-family="sans-serif" font-size="20" lengthAdjust="spacing" textLength="31" x="1519.5" y="834.8125">File</text><line style="stroke:#181818;stroke-width:0.5;" x1="1443" x2="1599" y1="844.207" y2="844.207"/></g><!--link CustomerManager to Application--><g id="link_CustomerManager_Application"><path codeLine="42" d="M610.71,144.1445 C674.39,223.5145 804.86,386.1045 870.86,468.3645 " fill="none" id="CustomerManager-to-Application" style="stroke:#222222;stroke-width:1.0;"/><polygon fill="#222222" points="874.34,472.7045,871.8285,463.1813,871.2113,468.8044,865.5882,468.1872,874.34,472.7045" style="stroke:#222222;stroke-width:1.0;"/><text fill="#000000" font-family="sans-serif" font-size="20" lengthAdjust="spacing" textLength="80" x="777" y="317.6563">overseas</text><text fill="#000000" font-family="sans-serif" font-size="20" lengthAdjust="spacing" textLength="31" x="836.331" y="460.4916">0..*</text></g><!--link CustomerManager to Candidate--><g id="link_CustomerManager_Candidate"><path codeLine="43" d="M529.52,143.9645 C496.46,177.8345 451.38,224.0045 417.42,258.7945 " fill="none" id="CustomerManager-to-Candidate" style="stroke:#222222;stroke-width:1.0;"/><polygon fill="#222222" points="413.75,262.5545,422.8988,258.9076,417.2423,258.9763,417.1736,253.3199,413.75,262.5545" style="stroke:#222222;stroke-width:1.0;"/><text fill="#000000" font-family="sans-serif" font-size="20" lengthAdjust="spacing" textLength="80" x="496" y="197.6563">manages</text><text fill="#000000" font-family="sans-serif" font-size="20" lengthAdjust="spacing" textLength="31" x="386.6805" y="250.3214">1..*</text></g><!--link Candidate to Application--><g id="link_Candidate_Application"><path codeLine="45" d="M430.74,342.7145 C472.97,364.1245 530.57,392.0145 583,412.8945 C670.34,447.6745 774.05,479.5045 841.13,498.9045 " fill="none" id="Candidate-to-Application" style="stroke:#222222;stroke-width:1.0;"/><polygon fill="#222222" points="846.29,500.4045,838.7526,494.0652,841.4862,499.0177,836.5337,501.7513,846.29,500.4045" style="stroke:#222222;stroke-width:1.0;"/><text fill="#000000" font-family="sans-serif" font-size="20" lengthAdjust="spacing" textLength="67" x="584" y="407.6563">submits</text><text fill="#000000" font-family="sans-serif" font-size="20" lengthAdjust="spacing" textLength="31" x="807.3943" y="493.0511">1..*</text></g><!--link Candidate to Email--><g id="link_Candidate_Email"><path codeLine="46" d="M370.7,356.0645 C373.49,430.7345 378.96,577.6145 381.56,647.3645 " fill="none" id="Candidate-to-Email" style="stroke:#222222;stroke-width:1.0;"/><polygon fill="#222222" points="381.76,652.6545,385.4222,643.5119,381.5739,647.658,377.4278,643.8097,381.76,652.6545" style="stroke:#222222;stroke-width:1.0;"/><text fill="#000000" font-family="sans-serif" font-size="20" lengthAdjust="spacing" textLength="105" x="379" y="527.6563">identified by</text><text fill="#000000" font-family="sans-serif" font-size="20" lengthAdjust="spacing" textLength="11" x="369.6016" y="640.3694">1</text></g><!--link Candidate to CandidateName--><g id="link_Candidate_CandidateName"><path codeLine="47" d="M307.38,336.1545 C280.38,348.9945 249.18,366.0245 224,385.8945 C189.13,413.4045 156.67,452.5745 135.19,481.1845 " fill="none" id="Candidate-to-CandidateName" style="stroke:#222222;stroke-width:1.0;"/><polygon fill="#222222" points="132.1,485.3245,140.689,480.5049,135.0908,481.3177,134.278,475.7195,132.1,485.3245" style="stroke:#222222;stroke-width:1.0;"/><text fill="#000000" font-family="sans-serif" font-size="20" lengthAdjust="spacing" textLength="31" x="225" y="407.6563">has</text><text fill="#000000" font-family="sans-serif" font-size="20" lengthAdjust="spacing" textLength="11" x="124.125" y="473.0686">1</text></g><!--link Candidate to PhoneNumber--><g id="link_Candidate_PhoneNumber"><path codeLine="48" d="M347.23,356.0645 C311.56,430.8845 241.34,578.2045 208.17,647.7845 " fill="none" id="Candidate-to-PhoneNumber" style="stroke:#222222;stroke-width:1.0;"/><polygon fill="#222222" points="205.84,652.6545,213.3208,646.2485,207.9897,648.1402,206.098,642.8091,205.84,652.6545" style="stroke:#222222;stroke-width:1.0;"/><text fill="#000000" font-family="sans-serif" font-size="20" lengthAdjust="spacing" textLength="31" x="315" y="527.6563">has</text><text fill="#000000" font-family="sans-serif" font-size="20" lengthAdjust="spacing" textLength="11" x="196.6172" y="640.3694">1</text></g><!--link Application to Interview--><g id="link_Application_Interview"><path codeLine="50" d="M954.88,566.2545 C961.43,575.4545 967.24,585.5045 971,595.8945 C993.06,656.8845 988.17,733.6545 982.31,778.7945 " fill="none" id="Application-to-Interview" style="stroke:#222222;stroke-width:1.0;"/><polygon fill="#222222" points="981.62,783.8645,986.768,775.4682,982.2771,778.9079,978.8374,774.4169,981.62,783.8645" style="stroke:#222222;stroke-width:1.0;"/><text fill="#000000" font-family="sans-serif" font-size="20" lengthAdjust="spacing" textLength="70" x="988" y="695.1563">includes</text><text fill="#000000" font-family="sans-serif" font-size="20" lengthAdjust="spacing" textLength="34" x="945.6641" y="771.6155">0..1</text></g><!--link Application to RequirementAnswer--><g id="link_Application_RequirementAnswer"><path codeLine="51" d="M975.83,558.9845 C1022.15,586.5645 1084,623.3845 1129.15,650.2645 " fill="none" id="Application-to-RequirementAnswer" style="stroke:#222222;stroke-width:1.0;"/><polygon fill="#222222" points="1133.47,652.8345,1127.779,644.7963,1129.1725,650.2789,1123.69,651.6723,1133.47,652.8345" style="stroke:#222222;stroke-width:1.0;"/><text fill="#000000" font-family="sans-serif" font-size="20" lengthAdjust="spacing" textLength="70" x="1084" y="617.6563">includes</text><text fill="#000000" font-family="sans-serif" font-size="20" lengthAdjust="spacing" textLength="11" x="1111.9805" y="640.5803">1</text></g><!--link Application to RequirementResult--><g id="link_Application_RequirementResult"><path codeLine="52" d="M975.88,532.0945 C1079.18,552.2245 1273.35,596.7245 1312,652.8945 C1337.32,689.6845 1329.75,742.9245 1320.08,778.6745 " fill="none" id="Application-to-RequirementResult" style="stroke:#222222;stroke-width:1.0;"/><polygon fill="#222222" points="1318.64,783.8145,1324.911,776.2202,1319.9834,778.9984,1317.2052,774.0708,1318.64,783.8145" style="stroke:#222222;stroke-width:1.0;"/><text fill="#000000" font-family="sans-serif" font-size="20" lengthAdjust="spacing" textLength="70" x="1330" y="695.1563">includes</text><text fill="#000000" font-family="sans-serif" font-size="20" lengthAdjust="spacing" textLength="11" x="1308.6953" y="771.5569">1</text></g><!--link Application to File--><g id="link_Application_File"><path codeLine="53" d="M975.79,521.9045 C1078.15,527.4545 1278.98,551.5645 1409,652.8945 C1452.33,686.6645 1485.12,741.9345 1503.69,778.8545 " fill="none" id="Application-to-File" style="stroke:#222222;stroke-width:1.0;"/><polygon fill="#222222" points="1506.11,783.7145,1505.6879,773.8747,1503.8853,779.2367,1498.5234,777.4342,1506.11,783.7145" style="stroke:#222222;stroke-width:1.0;"/><polygon fill="#000000" points="1484.8068,683.4715,1495.7614,694.0332,1499.8773,685.5772,1484.8068,683.4715" style="stroke:#000000;stroke-width:1.0;"/><text fill="#000000" font-family="sans-serif" font-size="20" lengthAdjust="spacing" textLength="85" x="1505" y="695.1563">describes</text><text fill="#000000" font-family="sans-serif" font-size="20" lengthAdjust="spacing" textLength="31" x="1469.8867" y="771.4397">1..*</text></g><!--link Application to ApplicationDate--><g id="link_Application_ApplicationDate"><path codeLine="54" d="M846.34,525.8545 C769.19,536.2245 643.33,566.2245 585,652.8945 C559.55,690.7145 577.71,743.8045 595.57,779.2245 " fill="none" id="Application-to-ApplicationDate" style="stroke:#222222;stroke-width:1.0;"/><polygon fill="#222222" points="597.97,783.8845,597.4096,774.0516,595.6826,779.4384,590.2958,777.7114,597.97,783.8845" style="stroke:#222222;stroke-width:1.0;"/><text fill="#000000" font-family="sans-serif" font-size="20" lengthAdjust="spacing" textLength="116" x="586" y="695.1563">registered by</text><text fill="#000000" font-family="sans-serif" font-size="20" lengthAdjust="spacing" textLength="11" x="582.582" y="771.6389">1</text></g><!--link Application to ApplicationStatus--><g id="link_Application_ApplicationStatus"><path codeLine="55" d="M865.4,566.0945 C857.56,575.4545 850.01,585.6045 844,595.8945 C834.71,611.8045 827.63,630.9145 822.6,647.4345 " fill="none" id="Application-to-ApplicationStatus" style="stroke:#222222;stroke-width:1.0;"/><polygon fill="#222222" points="821.1,652.4745,827.5011,644.9895,822.5263,647.6823,819.8335,642.7074,821.1,652.4745" style="stroke:#222222;stroke-width:1.0;"/><polygon fill="#000000" points="855.7253,602.3929,844.8248,613.0106,853.1476,617.3899,855.7253,602.3929" style="stroke:#000000;stroke-width:1.0;"/><text fill="#000000" font-family="sans-serif" font-size="20" lengthAdjust="spacing" textLength="101" x="865" y="617.6563">categorizes</text><text fill="#000000" font-family="sans-serif" font-size="20" lengthAdjust="spacing" textLength="11" x="810.5306" y="640.4522">1</text></g><!--link Interview to InterviewAnswer--><g id="link_Interview_InterviewAnswer"><path codeLine="57" d="M969.86,851.9045 C964.24,892.3845 961.16,961.2445 994,1006.8945 C1008.97,1027.7045 1061.63,1051.1845 1110.6,1069.4645 " fill="none" id="Interview-to-InterviewAnswer" style="stroke:#222222;stroke-width:1.0;"/><polygon fill="#222222" points="1115.32,1071.2245,1108.2606,1064.3568,1110.629,1069.494,1105.4918,1071.8624,1115.32,1071.2245" style="stroke:#222222;stroke-width:1.0;"/><text fill="#000000" font-family="sans-serif" font-size="20" lengthAdjust="spacing" textLength="106" x="995" y="981.1563">described in</text><text fill="#000000" font-family="sans-serif" font-size="20" lengthAdjust="spacing" textLength="11" x="1096.4379" y="1063.4048">1</text></g><!--link Interview to InterviewResult--><g id="link_Interview_InterviewResult"><path codeLine="58" d="M942.86,851.9345 C919.03,875.8645 886.24,909.1045 858,938.8945 C817.96,981.1345 772.99,1030.6645 743.25,1063.7345 " fill="none" id="Interview-to-InterviewResult" style="stroke:#222222;stroke-width:1.0;"/><polygon fill="#222222" points="739.7,1067.6745,748.6939,1063.6607,743.0448,1063.9581,742.7475,1058.309,739.7,1067.6745" style="stroke:#222222;stroke-width:1.0;"/><polygon fill="#000000" points="871.4868,967.1507,858.139,974.4576,864.9831,980.9078,871.4868,967.1507" style="stroke:#000000;stroke-width:1.0;"/><text fill="#000000" font-family="sans-serif" font-size="20" lengthAdjust="spacing" textLength="80" x="879" y="981.1563">classifies</text><text fill="#000000" font-family="sans-serif" font-size="20" lengthAdjust="spacing" textLength="11" x="732.8594" y="1055.3928">1</text></g><!--link InterviewResult to InterviewGrade--><g id="link_InterviewResult_InterviewGrade"><path codeLine="59" d="M794.26,1101.8945 C829.44,1101.8945 870.36,1101.8945 906.11,1101.8945 " fill="none" id="InterviewResult-to-InterviewGrade" style="stroke:#222222;stroke-width:1.0;"/><polygon fill="#222222" points="911.35,1101.8945,902.35,1097.8945,906.35,1101.8945,902.35,1105.8945,911.35,1101.8945" style="stroke:#222222;stroke-width:1.0;"/><polygon fill="#000000" points="811.25,1085.4727,825.7221,1090.1749,825.7221,1080.7704,811.25,1085.4727" style="stroke:#000000;stroke-width:1.0;"/><text fill="#000000" font-family="sans-serif" font-size="20" lengthAdjust="spacing" textLength="61" x="832.25" y="1093.6563">grades</text><text fill="#000000" font-family="sans-serif" font-size="20" lengthAdjust="spacing" textLength="11" x="892.6027" y="1096.5753">1</text></g><!--link InterviewResult to Justification--><g id="link_InterviewResult_Justification"><path codeLine="60" d="M710,1136.0945 C710,1160.0545 710,1192.4645 710,1217.5245 " fill="none" id="InterviewResult-to-Justification" style="stroke:#222222;stroke-width:1.0;"/><polygon fill="#222222" points="710,1222.7645,714,1213.7645,710,1217.7645,706,1213.7645,710,1222.7645" style="stroke:#222222;stroke-width:1.0;"/><polygon fill="#000000" points="718,1171.4727,713.2977,1185.9448,722.7023,1185.9448,718,1171.4727" style="stroke:#000000;stroke-width:1.0;"/><text fill="#000000" font-family="sans-serif" font-size="20" lengthAdjust="spacing" textLength="65" x="731" y="1187.6563">justifies</text><text fill="#000000" font-family="sans-serif" font-size="20" lengthAdjust="spacing" textLength="11" x="698.0547" y="1210.4983">1</text></g><!--link Interview to Schedule--><g id="link_Interview_Schedule"><path codeLine="61" d="M1023.9,851.9045 C1059.66,876.5545 1108.52,910.2245 1145.37,935.6245 " fill="none" id="Interview-to-Schedule" style="stroke:#222222;stroke-width:1.0;"/><polygon fill="#222222" points="1149.81,938.6845,1144.6597,930.2896,1145.6898,935.8519,1140.1275,936.8819,1149.81,938.6845" style="stroke:#222222;stroke-width:1.0;"/><text fill="#000000" font-family="sans-serif" font-size="20" lengthAdjust="spacing" textLength="78" x="1101" y="903.6563">follows a</text><text fill="#000000" font-family="sans-serif" font-size="20" lengthAdjust="spacing" textLength="11" x="1129.582" y="926.4045">1</text></g><!--SRC=[fLNBRjim4BppAnREmMrHnsxGGo4O0HGtDboWIH45lGQqj96PKAHAKZ7I8F_UbMHR3pyIkxheiJF3tTLoQ1-5IhdXYTJX8qOGuJtFf1jhvGBn5-5imBfpvrBhzVkfvCfbYJmDTT8F9RUs5maU4vankzA18k0xPyGiSpWDjIg41cmk8WHCKlSCV1MsRU853nzZepCLZRJK1cOeOgo1V6FqeWoTd1KNOwphJoOtbnF_zZ9WB2K57YDqXaCUnmPZxl3y74QPTJf10p-veh3fm0i3kb0vGHcjmiie38TbW9Z3eT7QqGEylB9Njdi5hY8HqNCklP9TVQiBhXL9hoYwWbtn98T- -FtvP3p-Tl5ry16UkCmGzEm1mpo9DUVNN2kyof9PaUrx69S95_9DR5xYZWhzD9KYv4verMfVBLAhjD6v75tcKGD_BrkpFwEjpC1nbza3k5Fbq3m9NEpdm0wMh-pYhKxlujwWfJrr4FS7pQEuhrfwnAeJmoCyY7g3Vp9XCA7_TqIvDVOH1VzFeuDmZb4ctpT9IyvOl0F_MfXB45oFflxjzFegO6sVwFLwvz0Pd9v-wZGsWGVw2Or5RhTGYF6bO5Jsu45IX2thzdgi-bu3D-LjDak4imreWUsK-zm3ibkLpn2v-knvGxBJD1qFvdohMCrcIaptxexLKrbtWC3L7gFbLIYpY0fgWalLpKdRITXaBAThFwDeMV6JFJhKR4Zd3P9TR1TlEv87v7d2KZ5byxQLiEb57j0hnjhGUPSlbNUgwiXwiTQaL-b5LD1UGbcuLqvm_cVpLTekqoOLDk11dD-sufU4XkDuy52-DYbhy7h7UN2lfTGB2_mV]--></g></svg>