<?xml version="1.0" encoding="us-ascii" standalone="no"?><svg xmlns="http://www.w3.org/2000/svg" xmlns:xlink="http://www.w3.org/1999/xlink" contentStyleType="text/css" height="614px" preserveAspectRatio="none" style="width:757px;height:614px;background:#FFFFFF;" version="1.1" viewBox="0 0 757 614" width="757px" zoomAndPan="magnify"><defs/><g><rect fill="none" height="410.123" style="stroke:#000000;stroke-width:1.5;" width="741.5" x="10" y="86.9121"/><rect fill="none" height="249.668" style="stroke:#000000;stroke-width:1.5;" width="721.5" x="20" y="144.4941"/><rect fill="none" height="50.582" style="stroke:#000000;stroke-width:1.5;" width="488.5" x="20" y="439.4531"/><line style="stroke:#181818;stroke-width:0.5;stroke-dasharray:5.0,5.0;" x1="95" x2="95" y1="38.6211" y2="576.6172"/><line style="stroke:#181818;stroke-width:0.5;stroke-dasharray:5.0,5.0;" x1="468.5" x2="468.5" y1="38.6211" y2="576.6172"/><rect fill="#E2E2F0" height="32.6211" rx="2.5" ry="2.5" style="stroke:#181818;stroke-width:0.5;" width="131" x="30" y="5"/><text fill="#000000" font-family="sans-serif" font-size="14" lengthAdjust="spacing" textLength="117" x="37" y="27.1074">CustomerManager</text><rect fill="#E2E2F0" height="32.6211" rx="2.5" ry="2.5" style="stroke:#181818;stroke-width:0.5;" width="131" x="30" y="575.6172"/><text fill="#000000" font-family="sans-serif" font-size="14" lengthAdjust="spacing" textLength="117" x="37" y="597.7246">CustomerManager</text><rect fill="#E2E2F0" height="32.6211" rx="2.5" ry="2.5" style="stroke:#181818;stroke-width:0.5;" width="60" x="438.5" y="5"/><text fill="#000000" font-family="sans-serif" font-size="14" lengthAdjust="spacing" textLength="46" x="445.5" y="27.1074">System</text><rect fill="#E2E2F0" height="32.6211" rx="2.5" ry="2.5" style="stroke:#181818;stroke-width:0.5;" width="60" x="438.5" y="575.6172"/><text fill="#000000" font-family="sans-serif" font-size="14" lengthAdjust="spacing" textLength="46" x="445.5" y="597.7246">System</text><polygon fill="#181818" points="456.5,67.9121,466.5,71.9121,456.5,75.9121,460.5,71.9121" style="stroke:#181818;stroke-width:1.0;"/><line style="stroke:#181818;stroke-width:1.0;" x1="95.5" x2="462.5" y1="71.9121" y2="71.9121"/><text fill="#000000" font-family="sans-serif" font-size="13" font-weight="bold" lengthAdjust="spacing" textLength="7" x="156.5" y="66.6494">1</text><text fill="#000000" font-family="sans-serif" font-size="13" lengthAdjust="spacing" textLength="240" x="167.5" y="66.6494">Asks to list the information of a candidate</text><path d="M10,86.9121 L83,86.9121 L83,96.2031 L73,106.2031 L10,106.2031 L10,86.9121 " fill="#EEEEEE" style="stroke:#000000;stroke-width:1.5;"/><rect fill="none" height="410.123" style="stroke:#000000;stroke-width:1.5;" width="741.5" x="10" y="86.9121"/><text fill="#000000" font-family="sans-serif" font-size="13" font-weight="bold" lengthAdjust="spacing" textLength="28" x="25" y="101.9404">loop</text><polygon fill="#181818" points="106.5,125.4941,96.5,129.4941,106.5,133.4941,102.5,129.4941" style="stroke:#181818;stroke-width:1.0;"/><line style="stroke:#181818;stroke-width:1.0;stroke-dasharray:2.0,2.0;" x1="100.5" x2="467.5" y1="129.4941" y2="129.4941"/><text fill="#000000" font-family="sans-serif" font-size="13" font-weight="bold" lengthAdjust="spacing" textLength="7" x="107.5" y="124.2314">2</text><text fill="#000000" font-family="sans-serif" font-size="13" lengthAdjust="spacing" textLength="338" x="118.5" y="124.2314">Shows list of candidates and asks which one (using email)</text><path d="M20,144.4941 L81,144.4941 L81,153.7852 L71,163.7852 L20,163.7852 L20,144.4941 " fill="#EEEEEE" style="stroke:#000000;stroke-width:1.5;"/><rect fill="none" height="249.668" style="stroke:#000000;stroke-width:1.5;" width="721.5" x="20" y="144.4941"/><text fill="#000000" font-family="sans-serif" font-size="13" font-weight="bold" lengthAdjust="spacing" textLength="16" x="35" y="159.5225">alt</text><text fill="#000000" font-family="sans-serif" font-size="11" font-weight="bold" lengthAdjust="spacing" textLength="125" x="96" y="158.3643">[Invalid email address]</text><polygon fill="#181818" points="456.5,183.0762,466.5,187.0762,456.5,191.0762,460.5,187.0762" style="stroke:#181818;stroke-width:1.0;"/><line style="stroke:#181818;stroke-width:1.0;" x1="95.5" x2="462.5" y1="187.0762" y2="187.0762"/><text fill="#000000" font-family="sans-serif" font-size="13" font-weight="bold" lengthAdjust="spacing" textLength="7" x="191.5" y="181.8135">3</text><text fill="#000000" font-family="sans-serif" font-size="13" lengthAdjust="spacing" textLength="170" x="202.5" y="181.8135">Inputs a invalid email address</text><line style="stroke:#181818;stroke-width:1.0;stroke-dasharray:2.0,2.0;" x1="468.5" x2="510.5" y1="218.3672" y2="218.3672"/><line style="stroke:#181818;stroke-width:1.0;stroke-dasharray:2.0,2.0;" x1="510.5" x2="510.5" y1="218.3672" y2="231.3672"/><line style="stroke:#181818;stroke-width:1.0;stroke-dasharray:2.0,2.0;" x1="469.5" x2="510.5" y1="231.3672" y2="231.3672"/><polygon fill="#181818" points="479.5,227.3672,469.5,231.3672,479.5,235.3672,475.5,231.3672" style="stroke:#181818;stroke-width:1.0;"/><text fill="#000000" font-family="sans-serif" font-size="13" font-weight="bold" lengthAdjust="spacing" textLength="7" x="475.5" y="213.1045">4</text><text fill="#000000" font-family="sans-serif" font-size="13" lengthAdjust="spacing" textLength="243" x="486.5" y="213.1045">Searches for the candidate with that email</text><polygon fill="#181818" points="106.5,258.6582,96.5,262.6582,106.5,266.6582,102.5,262.6582" style="stroke:#181818;stroke-width:1.0;"/><line style="stroke:#181818;stroke-width:1.0;stroke-dasharray:2.0,2.0;" x1="100.5" x2="467.5" y1="262.6582" y2="262.6582"/><text fill="#000000" font-family="sans-serif" font-size="13" font-weight="bold" lengthAdjust="spacing" textLength="7" x="137" y="257.3955">5</text><text fill="#000000" font-family="sans-serif" font-size="13" lengthAdjust="spacing" textLength="279" x="148" y="257.3955">Notifies the user it's invalid and asks to try again</text><line style="stroke:#000000;stroke-width:1.0;stroke-dasharray:2.0,2.0;" x1="20" x2="741.5" y1="271.6582" y2="271.6582"/><text fill="#000000" font-family="sans-serif" font-size="11" font-weight="bold" lengthAdjust="spacing" textLength="117" x="25" y="283.5283">[Valid email address]</text><polygon fill="#181818" points="456.5,306.5801,466.5,310.5801,456.5,314.5801,460.5,310.5801" style="stroke:#181818;stroke-width:1.0;"/><line style="stroke:#181818;stroke-width:1.0;" x1="95.5" x2="462.5" y1="310.5801" y2="310.5801"/><text fill="#000000" font-family="sans-serif" font-size="13" font-weight="bold" lengthAdjust="spacing" textLength="7" x="196.5" y="305.3174">6</text><text fill="#000000" font-family="sans-serif" font-size="13" lengthAdjust="spacing" textLength="160" x="207.5" y="305.3174">Inputs a valid email address</text><line style="stroke:#181818;stroke-width:1.0;stroke-dasharray:2.0,2.0;" x1="468.5" x2="510.5" y1="341.8711" y2="341.8711"/><line style="stroke:#181818;stroke-width:1.0;stroke-dasharray:2.0,2.0;" x1="510.5" x2="510.5" y1="341.8711" y2="354.8711"/><line style="stroke:#181818;stroke-width:1.0;stroke-dasharray:2.0,2.0;" x1="469.5" x2="510.5" y1="354.8711" y2="354.8711"/><polygon fill="#181818" points="479.5,350.8711,469.5,354.8711,479.5,358.8711,475.5,354.8711" style="stroke:#181818;stroke-width:1.0;"/><text fill="#000000" font-family="sans-serif" font-size="13" font-weight="bold" lengthAdjust="spacing" textLength="7" x="475.5" y="336.6084">7</text><text fill="#000000" font-family="sans-serif" font-size="13" lengthAdjust="spacing" textLength="243" x="486.5" y="336.6084">Searches for the candidate with that email</text><polygon fill="#181818" points="106.5,382.1621,96.5,386.1621,106.5,390.1621,102.5,386.1621" style="stroke:#181818;stroke-width:1.0;"/><line style="stroke:#181818;stroke-width:1.0;stroke-dasharray:2.0,2.0;" x1="100.5" x2="467.5" y1="386.1621" y2="386.1621"/><text fill="#000000" font-family="sans-serif" font-size="13" font-weight="bold" lengthAdjust="spacing" textLength="7" x="165" y="380.8994">8</text><text fill="#000000" font-family="sans-serif" font-size="13" lengthAdjust="spacing" textLength="223" x="176" y="380.8994">Shows the candidates personal details</text><polygon fill="#181818" points="106.5,420.4531,96.5,424.4531,106.5,428.4531,102.5,424.4531" style="stroke:#181818;stroke-width:1.0;"/><line style="stroke:#181818;stroke-width:1.0;stroke-dasharray:2.0,2.0;" x1="100.5" x2="467.5" y1="424.4531" y2="424.4531"/><text fill="#000000" font-family="sans-serif" font-size="13" font-weight="bold" lengthAdjust="spacing" textLength="7" x="115" y="419.1904">9</text><text fill="#000000" font-family="sans-serif" font-size="13" lengthAdjust="spacing" textLength="323" x="126" y="419.1904">Asks the user if it wants to search for another candidate</text><path d="M20,439.4531 L81,439.4531 L81,448.7441 L71,458.7441 L20,458.7441 L20,439.4531 " fill="#EEEEEE" style="stroke:#000000;stroke-width:1.5;"/><rect fill="none" height="50.582" style="stroke:#000000;stroke-width:1.5;" width="488.5" x="20" y="439.4531"/><text fill="#000000" font-family="sans-serif" font-size="13" font-weight="bold" lengthAdjust="spacing" textLength="16" x="35" y="454.4814">alt</text><text fill="#000000" font-family="sans-serif" font-size="11" font-weight="bold" lengthAdjust="spacing" textLength="158" x="96" y="453.3232">[User wants to search again]</text><polygon fill="#181818" points="456.5,478.0352,466.5,482.0352,456.5,486.0352,460.5,482.0352" style="stroke:#181818;stroke-width:1.0;"/><line style="stroke:#181818;stroke-width:1.0;" x1="95.5" x2="462.5" y1="482.0352" y2="482.0352"/><text fill="#000000" font-family="sans-serif" font-size="13" font-weight="bold" lengthAdjust="spacing" textLength="14" x="249" y="476.7725">10</text><text fill="#000000" font-family="sans-serif" font-size="13" lengthAdjust="spacing" textLength="48" x="267" y="476.7725">Accepts</text><polygon fill="#181818" points="456.5,523.3262,466.5,527.3262,456.5,531.3262,460.5,527.3262" style="stroke:#181818;stroke-width:1.0;"/><line style="stroke:#181818;stroke-width:1.0;" x1="95.5" x2="462.5" y1="527.3262" y2="527.3262"/><text fill="#000000" font-family="sans-serif" font-size="13" font-weight="bold" lengthAdjust="spacing" textLength="14" x="235.5" y="522.0635">11</text><text fill="#000000" font-family="sans-serif" font-size="13" lengthAdjust="spacing" textLength="75" x="253.5" y="522.0635">Writes "Exit"</text><polygon fill="#181818" points="106.5,554.6172,96.5,558.6172,106.5,562.6172,102.5,558.6172" style="stroke:#181818;stroke-width:1.0;"/><line style="stroke:#181818;stroke-width:1.0;stroke-dasharray:2.0,2.0;" x1="100.5" x2="467.5" y1="558.6172" y2="558.6172"/><text fill="#000000" font-family="sans-serif" font-size="13" font-weight="bold" lengthAdjust="spacing" textLength="14" x="171.5" y="553.3545">12</text><text fill="#000000" font-family="sans-serif" font-size="13" lengthAdjust="spacing" textLength="203" x="189.5" y="553.3545">Sends user back to the main menu</text><!--SRC=[nPCnRzmm38Lt_meYIzhXUliD1Gv5XmpfScWwCpRF9awYN97ADV- -j8LJqxIu31tgmJ0ayXFVq_FjP3RhRhkT0ugL63xqAMwLlXUIdZO3uvWnTXqMIrBY8-LEJomp-YfSokv95KVQ1nu5UXBpgkvJKKkHyZsAxsNOV8J3inh57Uprf6090gk1JGGinvGZ6YU1T0I47cNW0OswBgGqTntuKzjXuwHNy1qSfdJM2dH0QrVmBy3blFF4_GH92DuLPHc18d9uNz7h2uF1dJnXuA5k0Wv3TcsrPdckYBgJkPYVvsAk8bwekBGU27C_-R3kmkf7cn_ER9CleLNSNp5_cF4b6H_PUGkhgC_9Tgjji6Q9Nu7bPy0HMIgPWX8y_Ai3_rj_3SDl88MPiYR100EPaxJgbU7jRDMuDYkFxYQS_MzP3THrzdLobEHL-MLuBx7wkdI-xgc-j_YzuUw-xsasRQLj_hRGn5oXVCkyc77p-GVRpQ-phxhfNAtQ7x4_hQbnC_mw1299SS1F]--></g></svg>