<?xml version="1.0" encoding="UTF-8" standalone="no"?><svg xmlns="http://www.w3.org/2000/svg" xmlns:xlink="http://www.w3.org/1999/xlink" contentStyleType="text/css" height="1538px" preserveAspectRatio="none" style="width:3760px;height:1538px;background:#FFFFFF;" version="1.1" viewBox="0 0 3760 1538" width="3760px" zoomAndPan="magnify"><defs/><g><text fill="#000000" font-family="sans-serif" font-size="14" font-weight="bold" lengthAdjust="spacing" textLength="187" x="1788" y="29.5332">US1019 Sequence Diagram</text><rect fill="#FFFFFF" height="1292.1563" style="stroke:#181818;stroke-width:1.0;" width="10" x="87.5" y="138.7656"/><rect fill="#FFFFFF" height="308.4063" style="stroke:#181818;stroke-width:1.0;" width="10" x="551.5" y="169.9219"/><rect fill="#FFFFFF" height="913.4375" style="stroke:#181818;stroke-width:1.0;" width="10" x="551.5" y="517.4844"/><rect fill="#FFFFFF" height="129.625" style="stroke:#181818;stroke-width:1.0;" width="10" x="898.5" y="284.3906"/><rect fill="#FFFFFF" height="809.9688" style="stroke:#181818;stroke-width:1.0;" width="10" x="898.5" y="556.6406"/><rect fill="#FFFFFF" height="117.4688" style="stroke:#181818;stroke-width:1.0;" width="10" x="1230.5" y="595.7969"/><rect fill="#FFFFFF" height="39.1563" style="stroke:#181818;stroke-width:1.0;" width="10" x="1562.5" y="634.9531"/><rect fill="#FFFFFF" height="267.9375" style="stroke:#181818;stroke-width:1.0;" width="10" x="1829.5" y="752.4219"/><rect fill="#FFFFFF" height="30" style="stroke:#181818;stroke-width:1.0;" width="10" x="2235.5" y="791.5781"/><rect fill="#FFFFFF" height="128.4688" style="stroke:#181818;stroke-width:1.0;" width="10" x="2509" y="860.7344"/><rect fill="#FFFFFF" height="30" style="stroke:#181818;stroke-width:1.0;" width="10" x="2687.5" y="944.2031"/><rect fill="#FFFFFF" height="267.9375" style="stroke:#181818;stroke-width:1.0;" width="10" x="2899" y="1059.5156"/><rect fill="#FFFFFF" height="30" style="stroke:#181818;stroke-width:1.0;" width="10" x="3292" y="1098.6719"/><rect fill="#FFFFFF" height="128.4688" style="stroke:#181818;stroke-width:1.0;" width="10" x="3512" y="1167.8281"/><rect fill="#FFFFFF" height="30" style="stroke:#181818;stroke-width:1.0;" width="10" x="3684.5" y="1251.2969"/><rect fill="none" height="106.4688" style="stroke:#000000;stroke-width:1.5;" width="367" x="2393" y="875.7344"/><rect fill="none" height="106.4688" style="stroke:#000000;stroke-width:1.5;" width="355" x="3399" y="1182.8281"/><line style="stroke:#181818;stroke-width:0.5;stroke-dasharray:5.0,5.0;" x1="92" x2="92" y1="128.7656" y2="1448.9219"/><line style="stroke:#181818;stroke-width:0.5;stroke-dasharray:5.0,5.0;" x1="556" x2="556" y1="128.7656" y2="1448.9219"/><line style="stroke:#181818;stroke-width:0.5;stroke-dasharray:5.0,5.0;" x1="903" x2="903" y1="225.5781" y2="1448.9219"/><line style="stroke:#181818;stroke-width:0.5;stroke-dasharray:5.0,5.0;" x1="1235.5" x2="1235.5" y1="128.7656" y2="1448.9219"/><line style="stroke:#181818;stroke-width:0.5;stroke-dasharray:5.0,5.0;" x1="1567.5" x2="1567.5" y1="128.7656" y2="1448.9219"/><line style="stroke:#181818;stroke-width:0.5;stroke-dasharray:5.0,5.0;" x1="1834.5" x2="1834.5" y1="128.7656" y2="1448.9219"/><line style="stroke:#181818;stroke-width:0.5;stroke-dasharray:5.0,5.0;" x1="2240" x2="2240" y1="128.7656" y2="1448.9219"/><line style="stroke:#181818;stroke-width:0.5;stroke-dasharray:5.0,5.0;" x1="2514" x2="2514" y1="128.7656" y2="1448.9219"/><line style="stroke:#181818;stroke-width:0.5;stroke-dasharray:5.0,5.0;" x1="2692" x2="2692" y1="128.7656" y2="1448.9219"/><line style="stroke:#181818;stroke-width:0.5;stroke-dasharray:5.0,5.0;" x1="2904" x2="2904" y1="128.7656" y2="1448.9219"/><line style="stroke:#181818;stroke-width:0.5;stroke-dasharray:5.0,5.0;" x1="3297" x2="3297" y1="128.7656" y2="1448.9219"/><line style="stroke:#181818;stroke-width:0.5;stroke-dasharray:5.0,5.0;" x1="3517" x2="3517" y1="128.7656" y2="1448.9219"/><line style="stroke:#181818;stroke-width:0.5;stroke-dasharray:5.0,5.0;" x1="3689" x2="3689" y1="128.7656" y2="1448.9219"/><text fill="#000000" font-family="sans-serif" font-size="20" lengthAdjust="spacing" textLength="169" x="5" y="124.3711">Customer Manager</text><ellipse cx="92.5" cy="52.1094" fill="#E3E3E3" rx="8" ry="8" style="stroke:#181818;stroke-width:0.5;"/><path d="M92.5,60.1094 L92.5,87.1094 M79.5,68.1094 L105.5,68.1094 M92.5,87.1094 L79.5,102.1094 M92.5,87.1094 L105.5,102.1094 " fill="none" style="stroke:#181818;stroke-width:0.5;"/><text fill="#000000" font-family="sans-serif" font-size="20" lengthAdjust="spacing" textLength="169" x="5" y="1468.6836">Customer Manager</text><ellipse cx="92.5" cy="1481.5781" fill="#E3E3E3" rx="8" ry="8" style="stroke:#181818;stroke-width:0.5;"/><path d="M92.5,1489.5781 L92.5,1516.5781 M79.5,1497.5781 L105.5,1497.5781 M92.5,1516.5781 L79.5,1531.5781 M92.5,1516.5781 L105.5,1531.5781 " fill="none" style="stroke:#181818;stroke-width:0.5;"/><rect fill="#E3E3E3" height="64.3125" rx="2.5" ry="2.5" style="stroke:#181818;stroke-width:0.5;" width="169" x="472" y="63.4531"/><text fill="#000000" font-family="sans-serif" font-size="20" lengthAdjust="spacing" textLength="130" x="491.5" y="91.2148">«presentation»</text><text fill="#000000" font-family="sans-serif" font-size="20" lengthAdjust="spacing" textLength="155" x="479" y="116.3711">:ListCandidatesUI</text><rect fill="#E3E3E3" height="64.3125" rx="2.5" ry="2.5" style="stroke:#181818;stroke-width:0.5;" width="169" x="472" y="1447.9219"/><text fill="#000000" font-family="sans-serif" font-size="20" lengthAdjust="spacing" textLength="130" x="491.5" y="1475.6836">«presentation»</text><text fill="#000000" font-family="sans-serif" font-size="20" lengthAdjust="spacing" textLength="155" x="479" y="1500.8398">:ListCandidatesUI</text><rect fill="#E3E3E3" height="64.3125" rx="2.5" ry="2.5" style="stroke:#181818;stroke-width:0.5;" width="235" x="786" y="1447.9219"/><text fill="#000000" font-family="sans-serif" font-size="20" lengthAdjust="spacing" textLength="115" x="846" y="1475.6836">«application»</text><text fill="#000000" font-family="sans-serif" font-size="20" lengthAdjust="spacing" textLength="221" x="793" y="1500.8398">:ListCandidatesController</text><rect fill="#E3E3E3" height="64.3125" rx="2.5" ry="2.5" style="stroke:#181818;stroke-width:0.5;" width="304" x="1083.5" y="63.4531"/><text fill="#000000" font-family="sans-serif" font-size="20" lengthAdjust="spacing" textLength="84" x="1193.5" y="91.2148">«service»</text><text fill="#000000" font-family="sans-serif" font-size="20" lengthAdjust="spacing" textLength="290" x="1090.5" y="116.3711">:JobOpeningManagementService</text><rect fill="#E3E3E3" height="64.3125" rx="2.5" ry="2.5" style="stroke:#181818;stroke-width:0.5;" width="304" x="1083.5" y="1447.9219"/><text fill="#000000" font-family="sans-serif" font-size="20" lengthAdjust="spacing" textLength="84" x="1193.5" y="1475.6836">«service»</text><text fill="#000000" font-family="sans-serif" font-size="20" lengthAdjust="spacing" textLength="290" x="1090.5" y="1500.8398">:JobOpeningManagementService</text><rect fill="#E3E3E3" height="64.3125" rx="2.5" ry="2.5" style="stroke:#181818;stroke-width:0.5;" width="220" x="1457.5" y="63.4531"/><text fill="#000000" font-family="sans-serif" font-size="20" lengthAdjust="spacing" textLength="110" x="1512.5" y="91.2148">«repository»</text><text fill="#000000" font-family="sans-serif" font-size="20" lengthAdjust="spacing" textLength="206" x="1464.5" y="116.3711">:JobOpeningRepository</text><rect fill="#E3E3E3" height="64.3125" rx="2.5" ry="2.5" style="stroke:#181818;stroke-width:0.5;" width="220" x="1457.5" y="1447.9219"/><text fill="#000000" font-family="sans-serif" font-size="20" lengthAdjust="spacing" textLength="110" x="1512.5" y="1475.6836">«repository»</text><text fill="#000000" font-family="sans-serif" font-size="20" lengthAdjust="spacing" textLength="206" x="1464.5" y="1500.8398">:JobOpeningRepository</text><rect fill="#E3E3E3" height="64.3125" rx="2.5" ry="2.5" style="stroke:#181818;stroke-width:0.5;" width="294" x="1687.5" y="63.4531"/><text fill="#000000" font-family="sans-serif" font-size="20" lengthAdjust="spacing" textLength="84" x="1792.5" y="91.2148">«service»</text><text fill="#000000" font-family="sans-serif" font-size="20" lengthAdjust="spacing" textLength="280" x="1694.5" y="116.3711">:ApplicationManagementService</text><rect fill="#E3E3E3" height="64.3125" rx="2.5" ry="2.5" style="stroke:#181818;stroke-width:0.5;" width="294" x="1687.5" y="1447.9219"/><text fill="#000000" font-family="sans-serif" font-size="20" lengthAdjust="spacing" textLength="84" x="1792.5" y="1475.6836">«service»</text><text fill="#000000" font-family="sans-serif" font-size="20" lengthAdjust="spacing" textLength="280" x="1694.5" y="1500.8398">:ApplicationManagementService</text><rect fill="#E3E3E3" height="64.3125" rx="2.5" ry="2.5" style="stroke:#181818;stroke-width:0.5;" width="305" x="2088" y="63.4531"/><text fill="#000000" font-family="sans-serif" font-size="20" lengthAdjust="spacing" textLength="110" x="2185.5" y="91.2148">«repository»</text><text fill="#000000" font-family="sans-serif" font-size="20" lengthAdjust="spacing" textLength="291" x="2095" y="116.3711">:ApplicationRepositoryRepository</text><rect fill="#E3E3E3" height="64.3125" rx="2.5" ry="2.5" style="stroke:#181818;stroke-width:0.5;" width="305" x="2088" y="1447.9219"/><text fill="#000000" font-family="sans-serif" font-size="20" lengthAdjust="spacing" textLength="110" x="2185.5" y="1475.6836">«repository»</text><text fill="#000000" font-family="sans-serif" font-size="20" lengthAdjust="spacing" textLength="291" x="2095" y="1500.8398">:ApplicationRepositoryRepository</text><rect fill="#E3E3E3" height="64.3125" rx="2.5" ry="2.5" style="stroke:#181818;stroke-width:0.5;" width="222" x="2403" y="63.4531"/><text fill="#000000" font-family="sans-serif" font-size="20" lengthAdjust="spacing" textLength="84" x="2472" y="91.2148">«service»</text><text fill="#000000" font-family="sans-serif" font-size="20" lengthAdjust="spacing" textLength="208" x="2410" y="116.3711">:ApplicationDTOService</text><rect fill="#E3E3E3" height="64.3125" rx="2.5" ry="2.5" style="stroke:#181818;stroke-width:0.5;" width="222" x="2403" y="1447.9219"/><text fill="#000000" font-family="sans-serif" font-size="20" lengthAdjust="spacing" textLength="84" x="2472" y="1475.6836">«service»</text><text fill="#000000" font-family="sans-serif" font-size="20" lengthAdjust="spacing" textLength="208" x="2410" y="1500.8398">:ApplicationDTOService</text><rect fill="#E3E3E3" height="64.3125" rx="2.5" ry="2.5" style="stroke:#181818;stroke-width:0.5;" width="115" x="2635" y="63.4531"/><text fill="#000000" font-family="sans-serif" font-size="20" lengthAdjust="spacing" textLength="85" x="2650" y="91.2148">«domain»</text><text fill="#000000" font-family="sans-serif" font-size="20" lengthAdjust="spacing" textLength="101" x="2642" y="116.3711">:Application</text><rect fill="#E3E3E3" height="64.3125" rx="2.5" ry="2.5" style="stroke:#181818;stroke-width:0.5;" width="115" x="2635" y="1447.9219"/><text fill="#000000" font-family="sans-serif" font-size="20" lengthAdjust="spacing" textLength="85" x="2650" y="1475.6836">«domain»</text><text fill="#000000" font-family="sans-serif" font-size="20" lengthAdjust="spacing" textLength="101" x="2642" y="1500.8398">:Application</text><rect fill="#E3E3E3" height="64.3125" rx="2.5" ry="2.5" style="stroke:#181818;stroke-width:0.5;" width="288" x="2760" y="63.4531"/><text fill="#000000" font-family="sans-serif" font-size="20" lengthAdjust="spacing" textLength="84" x="2862" y="91.2148">«service»</text><text fill="#000000" font-family="sans-serif" font-size="20" lengthAdjust="spacing" textLength="274" x="2767" y="116.3711">:CandidateManagementService</text><rect fill="#E3E3E3" height="64.3125" rx="2.5" ry="2.5" style="stroke:#181818;stroke-width:0.5;" width="288" x="2760" y="1447.9219"/><text fill="#000000" font-family="sans-serif" font-size="20" lengthAdjust="spacing" textLength="84" x="2862" y="1475.6836">«service»</text><text fill="#000000" font-family="sans-serif" font-size="20" lengthAdjust="spacing" textLength="274" x="2767" y="1500.8398">:CandidateManagementService</text><rect fill="#E3E3E3" height="64.3125" rx="2.5" ry="2.5" style="stroke:#181818;stroke-width:0.5;" width="204" x="3195" y="63.4531"/><text fill="#000000" font-family="sans-serif" font-size="20" lengthAdjust="spacing" textLength="110" x="3242" y="91.2148">«repository»</text><text fill="#000000" font-family="sans-serif" font-size="20" lengthAdjust="spacing" textLength="190" x="3202" y="116.3711">:CandidateRepository</text><rect fill="#E3E3E3" height="64.3125" rx="2.5" ry="2.5" style="stroke:#181818;stroke-width:0.5;" width="204" x="3195" y="1447.9219"/><text fill="#000000" font-family="sans-serif" font-size="20" lengthAdjust="spacing" textLength="110" x="3242" y="1475.6836">«repository»</text><text fill="#000000" font-family="sans-serif" font-size="20" lengthAdjust="spacing" textLength="190" x="3202" y="1500.8398">:CandidateRepository</text><rect fill="#E3E3E3" height="64.3125" rx="2.5" ry="2.5" style="stroke:#181818;stroke-width:0.5;" width="216" x="3409" y="63.4531"/><text fill="#000000" font-family="sans-serif" font-size="20" lengthAdjust="spacing" textLength="84" x="3475" y="91.2148">«service»</text><text fill="#000000" font-family="sans-serif" font-size="20" lengthAdjust="spacing" textLength="202" x="3416" y="116.3711">:CandidateDTOService</text><rect fill="#E3E3E3" height="64.3125" rx="2.5" ry="2.5" style="stroke:#181818;stroke-width:0.5;" width="216" x="3409" y="1447.9219"/><text fill="#000000" font-family="sans-serif" font-size="20" lengthAdjust="spacing" textLength="84" x="3475" y="1475.6836">«service»</text><text fill="#000000" font-family="sans-serif" font-size="20" lengthAdjust="spacing" textLength="202" x="3416" y="1500.8398">:CandidateDTOService</text><rect fill="#E3E3E3" height="64.3125" rx="2.5" ry="2.5" style="stroke:#181818;stroke-width:0.5;" width="109" x="3635" y="63.4531"/><text fill="#000000" font-family="sans-serif" font-size="20" lengthAdjust="spacing" textLength="85" x="3647" y="91.2148">«domain»</text><text fill="#000000" font-family="sans-serif" font-size="20" lengthAdjust="spacing" textLength="95" x="3642" y="116.3711">:Candidate</text><rect fill="#E3E3E3" height="64.3125" rx="2.5" ry="2.5" style="stroke:#181818;stroke-width:0.5;" width="109" x="3635" y="1447.9219"/><text fill="#000000" font-family="sans-serif" font-size="20" lengthAdjust="spacing" textLength="85" x="3647" y="1475.6836">«domain»</text><text fill="#000000" font-family="sans-serif" font-size="20" lengthAdjust="spacing" textLength="95" x="3642" y="1500.8398">:Candidate</text><rect fill="#FFFFFF" height="1292.1563" style="stroke:#181818;stroke-width:1.0;" width="10" x="87.5" y="138.7656"/><rect fill="#FFFFFF" height="308.4063" style="stroke:#181818;stroke-width:1.0;" width="10" x="551.5" y="169.9219"/><rect fill="#FFFFFF" height="913.4375" style="stroke:#181818;stroke-width:1.0;" width="10" x="551.5" y="517.4844"/><rect fill="#FFFFFF" height="129.625" style="stroke:#181818;stroke-width:1.0;" width="10" x="898.5" y="284.3906"/><rect fill="#FFFFFF" height="809.9688" style="stroke:#181818;stroke-width:1.0;" width="10" x="898.5" y="556.6406"/><rect fill="#FFFFFF" height="117.4688" style="stroke:#181818;stroke-width:1.0;" width="10" x="1230.5" y="595.7969"/><rect fill="#FFFFFF" height="39.1563" style="stroke:#181818;stroke-width:1.0;" width="10" x="1562.5" y="634.9531"/><rect fill="#FFFFFF" height="267.9375" style="stroke:#181818;stroke-width:1.0;" width="10" x="1829.5" y="752.4219"/><rect fill="#FFFFFF" height="30" style="stroke:#181818;stroke-width:1.0;" width="10" x="2235.5" y="791.5781"/><rect fill="#FFFFFF" height="128.4688" style="stroke:#181818;stroke-width:1.0;" width="10" x="2509" y="860.7344"/><rect fill="#FFFFFF" height="30" style="stroke:#181818;stroke-width:1.0;" width="10" x="2687.5" y="944.2031"/><rect fill="#FFFFFF" height="267.9375" style="stroke:#181818;stroke-width:1.0;" width="10" x="2899" y="1059.5156"/><rect fill="#FFFFFF" height="30" style="stroke:#181818;stroke-width:1.0;" width="10" x="3292" y="1098.6719"/><rect fill="#FFFFFF" height="128.4688" style="stroke:#181818;stroke-width:1.0;" width="10" x="3512" y="1167.8281"/><rect fill="#FFFFFF" height="30" style="stroke:#181818;stroke-width:1.0;" width="10" x="3684.5" y="1251.2969"/><polygon fill="#181818" points="539.5,165.9219,549.5,169.9219,539.5,173.9219,543.5,169.9219" style="stroke:#181818;stroke-width:1.0;"/><line style="stroke:#181818;stroke-width:1.0;" x1="97.5" x2="545.5" y1="169.9219" y2="169.9219"/><text fill="#000000" font-family="sans-serif" font-size="20" font-weight="bold" lengthAdjust="spacing" textLength="11" x="104.5" y="163.5273">1</text><text fill="#000000" font-family="sans-serif" font-size="20" lengthAdjust="spacing" textLength="387" x="119.5" y="163.5273">asks to get an ordered list of the candidates</text><polygon fill="#181818" points="774,205.0781,784,209.0781,774,213.0781,778,209.0781" style="stroke:#181818;stroke-width:1.0;"/><line style="stroke:#181818;stroke-width:1.0;" x1="561.5" x2="780" y1="209.0781" y2="209.0781"/><text fill="#000000" font-family="sans-serif" font-size="20" font-weight="bold" lengthAdjust="spacing" textLength="11" x="568.5" y="202.6836">2</text><text fill="#000000" font-family="sans-serif" font-size="20" lengthAdjust="spacing" textLength="70" x="583.5" y="202.6836">create()</text><rect fill="#E3E3E3" height="64.3125" rx="2.5" ry="2.5" style="stroke:#181818;stroke-width:0.5;" width="235" x="786" y="177.9219"/><text fill="#000000" font-family="sans-serif" font-size="20" lengthAdjust="spacing" textLength="115" x="846" y="205.6836">«application»</text><text fill="#000000" font-family="sans-serif" font-size="20" lengthAdjust="spacing" textLength="221" x="793" y="230.8398">:ListCandidatesController</text><polygon fill="#181818" points="886.5,280.3906,896.5,284.3906,886.5,288.3906,890.5,284.3906" style="stroke:#181818;stroke-width:1.0;"/><line style="stroke:#181818;stroke-width:1.0;" x1="561.5" x2="892.5" y1="284.3906" y2="284.3906"/><text fill="#000000" font-family="sans-serif" font-size="20" font-weight="bold" lengthAdjust="spacing" textLength="11" x="568.5" y="277.9961">3</text><text fill="#000000" font-family="sans-serif" font-size="20" lengthAdjust="spacing" textLength="178" x="583.5" y="277.9961">getJobOpeningList()</text><rect fill="none" height="85.4688" style="stroke:#000000;stroke-width:1.5;" width="474" x="783" y="292.3906"/><path d="M783,292.3906 L854,292.3906 L854,309.3906 L844,319.3906 L783,319.3906 L783,292.3906 " fill="#EEEEEE" style="stroke:#000000;stroke-width:2.0;"/><text fill="#000000" font-family="sans-serif" font-size="20" font-weight="bold" lengthAdjust="spacing" textLength="26" x="796" y="315.1523">ref</text><text fill="#000000" font-family="sans-serif" font-size="20" font-weight="bold" lengthAdjust="spacing" textLength="58" x="787" y="344.1523">[ref1]:</text><text fill="#000000" font-family="sans-serif" font-size="20" lengthAdjust="spacing" textLength="55" x="851" y="344.1523">Check</text><text fill="#000000" font-family="sans-serif" font-size="20" font-weight="bold" lengthAdjust="spacing" textLength="341" x="912" y="344.1523">sequence-diagram-get-job-openings</text><text fill="#000000" font-family="sans-serif" font-size="20" lengthAdjust="spacing" textLength="103" x="894" y="369.3086">in the folder</text><text fill="#000000" font-family="sans-serif" font-size="20" font-weight="bold" lengthAdjust="spacing" textLength="143" x="1003" y="369.3086">team-decisions</text><polygon fill="#181818" points="572.5,410.0156,562.5,414.0156,572.5,418.0156,568.5,414.0156" style="stroke:#181818;stroke-width:1.0;"/><line style="stroke:#181818;stroke-width:1.0;stroke-dasharray:2.0,2.0;" x1="566.5" x2="902.5" y1="414.0156" y2="414.0156"/><text fill="#000000" font-family="sans-serif" font-size="20" font-weight="bold" lengthAdjust="spacing" textLength="11" x="578.5" y="407.6211">4</text><text fill="#000000" font-family="sans-serif" font-size="20" lengthAdjust="spacing" textLength="172" x="593.5" y="407.6211">jobOpeningListDTO</text><polygon fill="#181818" points="108.5,474.3281,98.5,478.3281,108.5,482.3281,104.5,478.3281" style="stroke:#181818;stroke-width:1.0;"/><line style="stroke:#181818;stroke-width:1.0;stroke-dasharray:2.0,2.0;" x1="102.5" x2="555.5" y1="478.3281" y2="478.3281"/><text fill="#000000" font-family="sans-serif" font-size="20" font-weight="bold" lengthAdjust="spacing" textLength="11" x="114.5" y="459.3555">5</text><text fill="#000000" font-family="sans-serif" font-size="20" lengthAdjust="spacing" textLength="382" x="129.5" y="446.7773">displays the job openings and asks the user</text><text fill="#000000" font-family="sans-serif" font-size="20" lengthAdjust="spacing" textLength="219" x="129.5" y="471.9336">to select one job opening</text><polygon fill="#181818" points="539.5,513.4844,549.5,517.4844,539.5,521.4844,543.5,517.4844" style="stroke:#181818;stroke-width:1.0;"/><line style="stroke:#181818;stroke-width:1.0;" x1="97.5" x2="545.5" y1="517.4844" y2="517.4844"/><text fill="#000000" font-family="sans-serif" font-size="20" font-weight="bold" lengthAdjust="spacing" textLength="11" x="104.5" y="511.0898">6</text><text fill="#000000" font-family="sans-serif" font-size="20" lengthAdjust="spacing" textLength="201" x="119.5" y="511.0898">selects the job opening</text><polygon fill="#181818" points="886.5,552.6406,896.5,556.6406,886.5,560.6406,890.5,556.6406" style="stroke:#181818;stroke-width:1.0;"/><line style="stroke:#181818;stroke-width:1.0;" x1="561.5" x2="892.5" y1="556.6406" y2="556.6406"/><text fill="#000000" font-family="sans-serif" font-size="20" font-weight="bold" lengthAdjust="spacing" textLength="11" x="568.5" y="550.2461">7</text><text fill="#000000" font-family="sans-serif" font-size="20" lengthAdjust="spacing" textLength="303" x="583.5" y="550.2461">getCandidateList(jobOpeningDTO)</text><polygon fill="#181818" points="1218.5,591.7969,1228.5,595.7969,1218.5,599.7969,1222.5,595.7969" style="stroke:#181818;stroke-width:1.0;"/><line style="stroke:#181818;stroke-width:1.0;" x1="908.5" x2="1224.5" y1="595.7969" y2="595.7969"/><text fill="#000000" font-family="sans-serif" font-size="20" font-weight="bold" lengthAdjust="spacing" textLength="11" x="915.5" y="589.4023">8</text><text fill="#000000" font-family="sans-serif" font-size="20" lengthAdjust="spacing" textLength="288" x="930.5" y="589.4023">getJobOpening(jobOpeningDTO)</text><polygon fill="#181818" points="1550.5,630.9531,1560.5,634.9531,1550.5,638.9531,1554.5,634.9531" style="stroke:#181818;stroke-width:1.0;"/><line style="stroke:#181818;stroke-width:1.0;" x1="1240.5" x2="1556.5" y1="634.9531" y2="634.9531"/><text fill="#000000" font-family="sans-serif" font-size="20" font-weight="bold" lengthAdjust="spacing" textLength="11" x="1247.5" y="628.5586">9</text><text fill="#000000" font-family="sans-serif" font-size="20" lengthAdjust="spacing" textLength="288" x="1262.5" y="628.5586">getJobOpening(jobOpeningDTO)</text><polygon fill="#181818" points="1251.5,670.1094,1241.5,674.1094,1251.5,678.1094,1247.5,674.1094" style="stroke:#181818;stroke-width:1.0;"/><line style="stroke:#181818;stroke-width:1.0;stroke-dasharray:2.0,2.0;" x1="1245.5" x2="1566.5" y1="674.1094" y2="674.1094"/><text fill="#000000" font-family="sans-serif" font-size="20" font-weight="bold" lengthAdjust="spacing" textLength="22" x="1257.5" y="667.7148">10</text><text fill="#000000" font-family="sans-serif" font-size="20" lengthAdjust="spacing" textLength="99" x="1283.5" y="667.7148">jobOpening</text><polygon fill="#181818" points="919.5,709.2656,909.5,713.2656,919.5,717.2656,915.5,713.2656" style="stroke:#181818;stroke-width:1.0;"/><line style="stroke:#181818;stroke-width:1.0;stroke-dasharray:2.0,2.0;" x1="913.5" x2="1234.5" y1="713.2656" y2="713.2656"/><text fill="#000000" font-family="sans-serif" font-size="20" font-weight="bold" lengthAdjust="spacing" textLength="22" x="925.5" y="706.8711">11</text><text fill="#000000" font-family="sans-serif" font-size="20" lengthAdjust="spacing" textLength="99" x="951.5" y="706.8711">jobOpening</text><polygon fill="#181818" points="1817.5,748.4219,1827.5,752.4219,1817.5,756.4219,1821.5,752.4219" style="stroke:#181818;stroke-width:1.0;"/><line style="stroke:#181818;stroke-width:1.0;" x1="908.5" x2="1823.5" y1="752.4219" y2="752.4219"/><text fill="#000000" font-family="sans-serif" font-size="20" font-weight="bold" lengthAdjust="spacing" textLength="22" x="915.5" y="746.0273">12</text><text fill="#000000" font-family="sans-serif" font-size="20" lengthAdjust="spacing" textLength="277" x="941.5" y="746.0273">getApplicationsList(jobOpening)</text><polygon fill="#181818" points="2223.5,787.5781,2233.5,791.5781,2223.5,795.5781,2227.5,791.5781" style="stroke:#181818;stroke-width:1.0;"/><line style="stroke:#181818;stroke-width:1.0;" x1="1839.5" x2="2229.5" y1="791.5781" y2="791.5781"/><text fill="#000000" font-family="sans-serif" font-size="20" font-weight="bold" lengthAdjust="spacing" textLength="22" x="1846.5" y="785.1836">13</text><text fill="#000000" font-family="sans-serif" font-size="20" lengthAdjust="spacing" textLength="351" x="1872.5" y="785.1836">getApplicationsListWithInterviewResult()</text><polygon fill="#181818" points="2497,856.7344,2507,860.7344,2497,864.7344,2501,860.7344" style="stroke:#181818;stroke-width:1.0;"/><line style="stroke:#181818;stroke-width:1.0;stroke-dasharray:2.0,2.0;" x1="1839.5" x2="2503" y1="860.7344" y2="860.7344"/><text fill="#000000" font-family="sans-serif" font-size="20" font-weight="bold" lengthAdjust="spacing" textLength="22" x="1846.5" y="854.3398">14</text><text fill="#000000" font-family="sans-serif" font-size="20" lengthAdjust="spacing" textLength="267" x="1872.5" y="854.3398">convertToDTO(applicationList)</text><path d="M2393,875.7344 L2479,875.7344 L2479,892.8906 L2469,902.8906 L2393,902.8906 L2393,875.7344 " fill="#EEEEEE" style="stroke:#000000;stroke-width:1.5;"/><rect fill="none" height="106.4688" style="stroke:#000000;stroke-width:1.5;" width="367" x="2393" y="875.7344"/><text fill="#000000" font-family="sans-serif" font-size="20" font-weight="bold" lengthAdjust="spacing" textLength="41" x="2408" y="897.4961">loop</text><text fill="#000000" font-family="sans-serif" font-size="20" font-weight="bold" lengthAdjust="spacing" textLength="201" x="2494" y="898.4961">[for each application]</text><polygon fill="#181818" points="2675.5,940.2031,2685.5,944.2031,2675.5,948.2031,2679.5,944.2031" style="stroke:#181818;stroke-width:1.0;"/><line style="stroke:#181818;stroke-width:1.0;" x1="2519" x2="2681.5" y1="944.2031" y2="944.2031"/><text fill="#000000" font-family="sans-serif" font-size="20" font-weight="bold" lengthAdjust="spacing" textLength="22" x="2526" y="937.8086">15</text><text fill="#000000" font-family="sans-serif" font-size="20" lengthAdjust="spacing" textLength="73" x="2552" y="937.8086">toDTO()</text><polygon fill="#181818" points="919.5,1016.3594,909.5,1020.3594,919.5,1024.3594,915.5,1020.3594" style="stroke:#181818;stroke-width:1.0;"/><line style="stroke:#181818;stroke-width:1.0;stroke-dasharray:2.0,2.0;" x1="913.5" x2="1833.5" y1="1020.3594" y2="1020.3594"/><text fill="#000000" font-family="sans-serif" font-size="20" font-weight="bold" lengthAdjust="spacing" textLength="22" x="925.5" y="1013.9648">16</text><text fill="#000000" font-family="sans-serif" font-size="20" lengthAdjust="spacing" textLength="176" x="951.5" y="1013.9648">applicationsListDTO</text><polygon fill="#181818" points="2887,1055.5156,2897,1059.5156,2887,1063.5156,2891,1059.5156" style="stroke:#181818;stroke-width:1.0;"/><line style="stroke:#181818;stroke-width:1.0;" x1="908.5" x2="2893" y1="1059.5156" y2="1059.5156"/><text fill="#000000" font-family="sans-serif" font-size="20" font-weight="bold" lengthAdjust="spacing" textLength="22" x="915.5" y="1053.1211">17</text><text fill="#000000" font-family="sans-serif" font-size="20" lengthAdjust="spacing" textLength="338" x="941.5" y="1053.1211">getCandidateList(applicationsListDTO)</text><polygon fill="#181818" points="3280,1094.6719,3290,1098.6719,3280,1102.6719,3284,1098.6719" style="stroke:#181818;stroke-width:1.0;"/><line style="stroke:#181818;stroke-width:1.0;" x1="2909" x2="3286" y1="1098.6719" y2="1098.6719"/><text fill="#000000" font-family="sans-serif" font-size="20" font-weight="bold" lengthAdjust="spacing" textLength="22" x="2916" y="1092.2773">18</text><text fill="#000000" font-family="sans-serif" font-size="20" lengthAdjust="spacing" textLength="338" x="2942" y="1092.2773">getCandidateList(applicationsListDTO)</text><polygon fill="#181818" points="3500,1163.8281,3510,1167.8281,3500,1171.8281,3504,1167.8281" style="stroke:#181818;stroke-width:1.0;"/><line style="stroke:#181818;stroke-width:1.0;stroke-dasharray:2.0,2.0;" x1="2909" x2="3506" y1="1167.8281" y2="1167.8281"/><text fill="#000000" font-family="sans-serif" font-size="20" font-weight="bold" lengthAdjust="spacing" textLength="22" x="2916" y="1161.4336">19</text><text fill="#000000" font-family="sans-serif" font-size="20" lengthAdjust="spacing" textLength="259" x="2942" y="1161.4336">convertToDTO(candidateList)</text><path d="M3399,1182.8281 L3485,1182.8281 L3485,1199.9844 L3475,1209.9844 L3399,1209.9844 L3399,1182.8281 " fill="#EEEEEE" style="stroke:#000000;stroke-width:1.5;"/><rect fill="none" height="106.4688" style="stroke:#000000;stroke-width:1.5;" width="355" x="3399" y="1182.8281"/><text fill="#000000" font-family="sans-serif" font-size="20" font-weight="bold" lengthAdjust="spacing" textLength="41" x="3414" y="1204.5898">loop</text><text fill="#000000" font-family="sans-serif" font-size="20" font-weight="bold" lengthAdjust="spacing" textLength="190" x="3500" y="1205.5898">[for each candidate]</text><polygon fill="#181818" points="3672.5,1247.2969,3682.5,1251.2969,3672.5,1255.2969,3676.5,1251.2969" style="stroke:#181818;stroke-width:1.0;"/><line style="stroke:#181818;stroke-width:1.0;" x1="3522" x2="3678.5" y1="1251.2969" y2="1251.2969"/><text fill="#000000" font-family="sans-serif" font-size="20" font-weight="bold" lengthAdjust="spacing" textLength="22" x="3529" y="1244.9023">20</text><text fill="#000000" font-family="sans-serif" font-size="20" lengthAdjust="spacing" textLength="73" x="3555" y="1244.9023">toDTO()</text><polygon fill="#181818" points="919.5,1323.4531,909.5,1327.4531,919.5,1331.4531,915.5,1327.4531" style="stroke:#181818;stroke-width:1.0;"/><line style="stroke:#181818;stroke-width:1.0;stroke-dasharray:2.0,2.0;" x1="913.5" x2="2903" y1="1327.4531" y2="1327.4531"/><text fill="#000000" font-family="sans-serif" font-size="20" font-weight="bold" lengthAdjust="spacing" textLength="22" x="925.5" y="1321.0586">21</text><text fill="#000000" font-family="sans-serif" font-size="20" lengthAdjust="spacing" textLength="158" x="951.5" y="1321.0586">candidateListDTO</text><polygon fill="#181818" points="572.5,1362.6094,562.5,1366.6094,572.5,1370.6094,568.5,1366.6094" style="stroke:#181818;stroke-width:1.0;"/><line style="stroke:#181818;stroke-width:1.0;stroke-dasharray:2.0,2.0;" x1="566.5" x2="902.5" y1="1366.6094" y2="1366.6094"/><text fill="#000000" font-family="sans-serif" font-size="20" font-weight="bold" lengthAdjust="spacing" textLength="22" x="578.5" y="1360.2148">22</text><text fill="#000000" font-family="sans-serif" font-size="20" lengthAdjust="spacing" textLength="158" x="604.5" y="1360.2148">candidateListDTO</text><polygon fill="#181818" points="103.5,1426.9219,93.5,1430.9219,103.5,1434.9219,99.5,1430.9219" style="stroke:#181818;stroke-width:1.0;"/><line style="stroke:#181818;stroke-width:1.0;stroke-dasharray:2.0,2.0;" x1="97.5" x2="555.5" y1="1430.9219" y2="1430.9219"/><text fill="#000000" font-family="sans-serif" font-size="20" font-weight="bold" lengthAdjust="spacing" textLength="22" x="109.5" y="1411.9492">23</text><text fill="#000000" font-family="sans-serif" font-size="20" lengthAdjust="spacing" textLength="404" x="135.5" y="1399.3711">shows the candidates list in descending order,</text><text fill="#000000" font-family="sans-serif" font-size="20" lengthAdjust="spacing" textLength="328" x="141.5" y="1424.5273">accordingly to the job interview points</text><!--SRC=[lLTDRnCn4BtlhnZrGec8r78ZGf6g5DH0ew8c5GVAmVLE4ZSRUx6TLkNNCrvdDskljoqSo6db-NXldiTZnso4B9bcsqBn3UQGuvBj2ljPIJiNln7UdsIPgNrWgwJYQwss25Rli6Kf6T-m5SxjKu6WaLicLqNRmQnPhXw5NC6I5GQpp0fBhZVpqvFJ3p37NpkK7E5Si1MvPndRMILtsplKzCsjqd0qsHbBq1fcJ1AMFW9cO3BB2C0ABaecBHnz_5XgD2WjiqB9yVXMZYw5iHCcSv4pY-PcMiNTJECuLfQ5u7rX4r94gwAeOHVNbt42ZQKoWgW-LV5VrDrLYP9AlcuCLMpA4ESog1y4noYHBtnBrSszlSvtCFmlKcS7jTAioE7Lh5h93kWHmQJFAncUBwuYQlkLE3vNMoPa71xZFuVQT4nQbOJv1MsQY4YFnFghU4LQqFhBMZJ18N9rCiK3VRbZc4rcC1pJmO8HUMqCM0KhjC0aA9sZfkbIq942jGIxHk3DqJfaeKEPKJnbSUThCA1CN2DPZj-s3IENzz2mxg2Imu6BEviPq4_Z4jG3JOngoQqC1ZzeyVJdY99FriWtj6BsmsUO- -4pfEp3UtKtL3w_6GogM24huajLK3KKPv5yS-J2K4_KJYXp1-ln7ImCQr7k0yQakdVACMBk2dMLpYWc5wOis9Efa2a1r9n8rdmlCrbsjDLmAqbnWmLDNr0oSCzQ84xarbRvW0v0twPKsZSTK4b_g8jgIkw3rs4SJYg8jZ7EumARNE6CgsnXCf-zCyB-5gGx0skiRkfXeg93-dXldqtUBcGlz4l9sd848WU3rzVVcbqcsh98Wd1gLxOmdmVeJk8qq7TXrrDftRp1nsiqzBGuxY8cvdfKRzefoSyJtCyqOWLSIHe1Tg5exRXroJj-NIxrCAmCXL8bdNSDn6GDhTWQk8O9LI5KMw7rb_fCWSqOSUXPmZ6WsAr-tpmisWetRxgvuir-CxduDFaAYulf7BwTNI_2rahSNf0O20deI8dKDUYH4WXjuBZX_XculzTIBltSFBc-TkDjUfvAJ2VOpMxJDHaQUmkkhKpKTEcg6rEgtiOODb_NlKEvLndVYe4ATH_siUYPQ_LrbSpLkKA3EzIirQE9tXp-AK8tUew6KxtkZqdrIdbtAqatJj-qL3ovHqnzCufwa46fwDl4bsgR1Js7iZy0]--></g></svg>