<?xml version="1.0" encoding="UTF-8" standalone="no"?><svg xmlns="http://www.w3.org/2000/svg" xmlns:xlink="http://www.w3.org/1999/xlink" contentStyleType="text/css" height="1586px" preserveAspectRatio="none" style="width:4036px;height:1586px;background:#FFFFFF;" version="1.1" viewBox="0 0 4036 1586" width="4036px" zoomAndPan="magnify"><defs/><g><text fill="#000000" font-family="sans-serif" font-size="14" font-weight="bold" lengthAdjust="spacing" textLength="187" x="1926.25" y="29.5332">US1019 Sequence Diagram</text><rect fill="#FFFFFF" height="1340" style="stroke:#181818;stroke-width:1.0;" width="10" x="87.5" y="138.7656"/><rect fill="#FFFFFF" height="594.1875" style="stroke:#181818;stroke-width:1.0;" width="10" x="551.5" y="169.9219"/><rect fill="#FFFFFF" height="675.5" style="stroke:#181818;stroke-width:1.0;" width="10" x="551.5" y="803.2656"/><rect fill="#FFFFFF" height="415.4063" style="stroke:#181818;stroke-width:1.0;" width="10" x="1125.5" y="284.3906"/><rect fill="#FFFFFF" height="572.0313" style="stroke:#181818;stroke-width:1.0;" width="10" x="1125.5" y="842.4219"/><rect fill="#FFFFFF" height="30" style="stroke:#181818;stroke-width:1.0;" width="10" x="1755.5" y="323.5469"/><rect fill="#FFFFFF" height="267.9375" style="stroke:#181818;stroke-width:1.0;" width="10" x="2016" y="392.7031"/><rect fill="#FFFFFF" height="117.4688" style="stroke:#181818;stroke-width:1.0;" width="10" x="2016" y="881.5781"/><rect fill="#FFFFFF" height="30" style="stroke:#181818;stroke-width:1.0;" width="10" x="2728" y="431.8594"/><rect fill="#FFFFFF" height="128.4688" style="stroke:#181818;stroke-width:1.0;" width="10" x="2728" y="501.0156"/><rect fill="#FFFFFF" height="39.1563" style="stroke:#181818;stroke-width:1.0;" width="10" x="2728" y="920.7344"/><rect fill="#FFFFFF" height="30" style="stroke:#181818;stroke-width:1.0;" width="10" x="2910.5" y="584.4844"/><rect fill="#FFFFFF" height="267.9375" style="stroke:#181818;stroke-width:1.0;" width="10" x="3130" y="1038.2031"/><rect fill="#FFFFFF" height="30" style="stroke:#181818;stroke-width:1.0;" width="10" x="3130" y="1345.2969"/><rect fill="#FFFFFF" height="30" style="stroke:#181818;stroke-width:1.0;" width="10" x="3506" y="1077.3594"/><rect fill="#FFFFFF" height="128.4688" style="stroke:#181818;stroke-width:1.0;" width="10" x="3779.5" y="1146.5156"/><rect fill="#FFFFFF" height="30" style="stroke:#181818;stroke-width:1.0;" width="10" x="3958" y="1229.9844"/><rect fill="none" height="106.4688" style="stroke:#000000;stroke-width:1.5;" width="375" x="2613" y="516.0156"/><rect fill="none" height="106.4688" style="stroke:#000000;stroke-width:1.5;" width="367" x="3663.5" y="1161.5156"/><line style="stroke:#181818;stroke-width:0.5;stroke-dasharray:5.0,5.0;" x1="92" x2="92" y1="128.7656" y2="1496.7656"/><line style="stroke:#181818;stroke-width:0.5;stroke-dasharray:5.0,5.0;" x1="556" x2="556" y1="128.7656" y2="1496.7656"/><line style="stroke:#181818;stroke-width:0.5;stroke-dasharray:5.0,5.0;" x1="1130" x2="1130" y1="225.5781" y2="1496.7656"/><line style="stroke:#181818;stroke-width:0.5;stroke-dasharray:5.0,5.0;" x1="1760" x2="1760" y1="128.7656" y2="1496.7656"/><line style="stroke:#181818;stroke-width:0.5;stroke-dasharray:5.0,5.0;" x1="2021" x2="2021" y1="128.7656" y2="1496.7656"/><line style="stroke:#181818;stroke-width:0.5;stroke-dasharray:5.0,5.0;" x1="2299" x2="2299" y1="128.7656" y2="1496.7656"/><line style="stroke:#181818;stroke-width:0.5;stroke-dasharray:5.0,5.0;" x1="2733" x2="2733" y1="128.7656" y2="1496.7656"/><line style="stroke:#181818;stroke-width:0.5;stroke-dasharray:5.0,5.0;" x1="2915" x2="2915" y1="128.7656" y2="1496.7656"/><line style="stroke:#181818;stroke-width:0.5;stroke-dasharray:5.0,5.0;" x1="3135" x2="3135" y1="128.7656" y2="1496.7656"/><line style="stroke:#181818;stroke-width:0.5;stroke-dasharray:5.0,5.0;" x1="3510.5" x2="3510.5" y1="128.7656" y2="1496.7656"/><line style="stroke:#181818;stroke-width:0.5;stroke-dasharray:5.0,5.0;" x1="3784.5" x2="3784.5" y1="128.7656" y2="1496.7656"/><line style="stroke:#181818;stroke-width:0.5;stroke-dasharray:5.0,5.0;" x1="3962.5" x2="3962.5" y1="128.7656" y2="1496.7656"/><text fill="#000000" font-family="sans-serif" font-size="20" lengthAdjust="spacing" textLength="169" x="5" y="124.3711">Customer Manager</text><ellipse cx="92.5" cy="52.1094" fill="#E3E3E3" rx="8" ry="8" style="stroke:#181818;stroke-width:0.5;"/><path d="M92.5,60.1094 L92.5,87.1094 M79.5,68.1094 L105.5,68.1094 M92.5,87.1094 L79.5,102.1094 M92.5,87.1094 L105.5,102.1094 " fill="none" style="stroke:#181818;stroke-width:0.5;"/><text fill="#000000" font-family="sans-serif" font-size="20" lengthAdjust="spacing" textLength="169" x="5" y="1516.5273">Customer Manager</text><ellipse cx="92.5" cy="1529.4219" fill="#E3E3E3" rx="8" ry="8" style="stroke:#181818;stroke-width:0.5;"/><path d="M92.5,1537.4219 L92.5,1564.4219 M79.5,1545.4219 L105.5,1545.4219 M92.5,1564.4219 L79.5,1579.4219 M92.5,1564.4219 L105.5,1579.4219 " fill="none" style="stroke:#181818;stroke-width:0.5;"/><rect fill="#E3E3E3" height="64.3125" rx="2.5" ry="2.5" style="stroke:#181818;stroke-width:0.5;" width="243" x="435" y="63.4531"/><text fill="#000000" font-family="sans-serif" font-size="20" lengthAdjust="spacing" textLength="130" x="491.5" y="91.2148">«presentation»</text><text fill="#000000" font-family="sans-serif" font-size="20" lengthAdjust="spacing" textLength="229" x="442" y="116.3711">:ListOrderedCandidatesUI</text><rect fill="#E3E3E3" height="64.3125" rx="2.5" ry="2.5" style="stroke:#181818;stroke-width:0.5;" width="243" x="435" y="1495.7656"/><text fill="#000000" font-family="sans-serif" font-size="20" lengthAdjust="spacing" textLength="130" x="491.5" y="1523.5273">«presentation»</text><text fill="#000000" font-family="sans-serif" font-size="20" lengthAdjust="spacing" textLength="229" x="442" y="1548.6836">:ListOrderedCandidatesUI</text><rect fill="#E3E3E3" height="64.3125" rx="2.5" ry="2.5" style="stroke:#181818;stroke-width:0.5;" width="309" x="976" y="1495.7656"/><text fill="#000000" font-family="sans-serif" font-size="20" lengthAdjust="spacing" textLength="115" x="1073" y="1523.5273">«application»</text><text fill="#000000" font-family="sans-serif" font-size="20" lengthAdjust="spacing" textLength="295" x="983" y="1548.6836">:ListOrderedCandidatesController</text><rect fill="#E3E3E3" height="64.3125" rx="2.5" ry="2.5" style="stroke:#181818;stroke-width:0.5;" width="197" x="1662" y="63.4531"/><text fill="#000000" font-family="sans-serif" font-size="20" font-style="italic" lengthAdjust="spacing" textLength="86" x="1717.5" y="91.2148">«service»</text><text fill="#000000" font-family="sans-serif" font-size="20" lengthAdjust="spacing" textLength="183" x="1669" y="116.3711">:AuthorizationService</text><rect fill="#E3E3E3" height="64.3125" rx="2.5" ry="2.5" style="stroke:#181818;stroke-width:0.5;" width="197" x="1662" y="1495.7656"/><text fill="#000000" font-family="sans-serif" font-size="20" font-style="italic" lengthAdjust="spacing" textLength="86" x="1717.5" y="1523.5273">«service»</text><text fill="#000000" font-family="sans-serif" font-size="20" lengthAdjust="spacing" textLength="183" x="1669" y="1548.6836">:AuthorizationService</text><rect fill="#E3E3E3" height="64.3125" rx="2.5" ry="2.5" style="stroke:#181818;stroke-width:0.5;" width="304" x="1869" y="63.4531"/><text fill="#000000" font-family="sans-serif" font-size="20" lengthAdjust="spacing" textLength="84" x="1979" y="91.2148">«service»</text><text fill="#000000" font-family="sans-serif" font-size="20" lengthAdjust="spacing" textLength="290" x="1876" y="116.3711">:JobOpeningManagementService</text><rect fill="#E3E3E3" height="64.3125" rx="2.5" ry="2.5" style="stroke:#181818;stroke-width:0.5;" width="304" x="1869" y="1495.7656"/><text fill="#000000" font-family="sans-serif" font-size="20" lengthAdjust="spacing" textLength="84" x="1979" y="1523.5273">«service»</text><text fill="#000000" font-family="sans-serif" font-size="20" lengthAdjust="spacing" textLength="290" x="1876" y="1548.6836">:JobOpeningManagementService</text><rect fill="#E3E3E3" height="64.3125" rx="2.5" ry="2.5" style="stroke:#181818;stroke-width:0.5;" width="232" x="2183" y="63.4531"/><text fill="#000000" font-family="sans-serif" font-size="20" lengthAdjust="spacing" textLength="84" x="2257" y="91.2148">«service»</text><text fill="#000000" font-family="sans-serif" font-size="20" lengthAdjust="spacing" textLength="218" x="2190" y="116.3711">:JobOpeningDTOService</text><rect fill="#E3E3E3" height="64.3125" rx="2.5" ry="2.5" style="stroke:#181818;stroke-width:0.5;" width="232" x="2183" y="1495.7656"/><text fill="#000000" font-family="sans-serif" font-size="20" lengthAdjust="spacing" textLength="84" x="2257" y="1523.5273">«service»</text><text fill="#000000" font-family="sans-serif" font-size="20" lengthAdjust="spacing" textLength="218" x="2190" y="1548.6836">:JobOpeningDTOService</text><rect fill="#E3E3E3" height="64.3125" rx="2.5" ry="2.5" style="stroke:#181818;stroke-width:0.5;" width="220" x="2623" y="63.4531"/><text fill="#000000" font-family="sans-serif" font-size="20" lengthAdjust="spacing" textLength="110" x="2678" y="91.2148">«repository»</text><text fill="#000000" font-family="sans-serif" font-size="20" lengthAdjust="spacing" textLength="206" x="2630" y="116.3711">:JobOpeningRepository</text><rect fill="#E3E3E3" height="64.3125" rx="2.5" ry="2.5" style="stroke:#181818;stroke-width:0.5;" width="220" x="2623" y="1495.7656"/><text fill="#000000" font-family="sans-serif" font-size="20" lengthAdjust="spacing" textLength="110" x="2678" y="1523.5273">«repository»</text><text fill="#000000" font-family="sans-serif" font-size="20" lengthAdjust="spacing" textLength="206" x="2630" y="1548.6836">:JobOpeningRepository</text><rect fill="#E3E3E3" height="64.3125" rx="2.5" ry="2.5" style="stroke:#181818;stroke-width:0.5;" width="125" x="2853" y="63.4531"/><text fill="#000000" font-family="sans-serif" font-size="20" lengthAdjust="spacing" textLength="85" x="2873" y="91.2148">«domain»</text><text fill="#000000" font-family="sans-serif" font-size="20" lengthAdjust="spacing" textLength="111" x="2860" y="116.3711">:JobOpening</text><rect fill="#E3E3E3" height="64.3125" rx="2.5" ry="2.5" style="stroke:#181818;stroke-width:0.5;" width="125" x="2853" y="1495.7656"/><text fill="#000000" font-family="sans-serif" font-size="20" lengthAdjust="spacing" textLength="85" x="2873" y="1523.5273">«domain»</text><text fill="#000000" font-family="sans-serif" font-size="20" lengthAdjust="spacing" textLength="111" x="2860" y="1548.6836">:JobOpening</text><rect fill="#E3E3E3" height="64.3125" rx="2.5" ry="2.5" style="stroke:#181818;stroke-width:0.5;" width="294" x="2988" y="63.4531"/><text fill="#000000" font-family="sans-serif" font-size="20" lengthAdjust="spacing" textLength="84" x="3093" y="91.2148">«service»</text><text fill="#000000" font-family="sans-serif" font-size="20" lengthAdjust="spacing" textLength="280" x="2995" y="116.3711">:ApplicationManagementService</text><rect fill="#E3E3E3" height="64.3125" rx="2.5" ry="2.5" style="stroke:#181818;stroke-width:0.5;" width="294" x="2988" y="1495.7656"/><text fill="#000000" font-family="sans-serif" font-size="20" lengthAdjust="spacing" textLength="84" x="3093" y="1523.5273">«service»</text><text fill="#000000" font-family="sans-serif" font-size="20" lengthAdjust="spacing" textLength="280" x="2995" y="1548.6836">:ApplicationManagementService</text><rect fill="#E3E3E3" height="64.3125" rx="2.5" ry="2.5" style="stroke:#181818;stroke-width:0.5;" width="305" x="3358.5" y="63.4531"/><text fill="#000000" font-family="sans-serif" font-size="20" lengthAdjust="spacing" textLength="110" x="3456" y="91.2148">«repository»</text><text fill="#000000" font-family="sans-serif" font-size="20" lengthAdjust="spacing" textLength="291" x="3365.5" y="116.3711">:ApplicationRepositoryRepository</text><rect fill="#E3E3E3" height="64.3125" rx="2.5" ry="2.5" style="stroke:#181818;stroke-width:0.5;" width="305" x="3358.5" y="1495.7656"/><text fill="#000000" font-family="sans-serif" font-size="20" lengthAdjust="spacing" textLength="110" x="3456" y="1523.5273">«repository»</text><text fill="#000000" font-family="sans-serif" font-size="20" lengthAdjust="spacing" textLength="291" x="3365.5" y="1548.6836">:ApplicationRepositoryRepository</text><rect fill="#E3E3E3" height="64.3125" rx="2.5" ry="2.5" style="stroke:#181818;stroke-width:0.5;" width="222" x="3673.5" y="63.4531"/><text fill="#000000" font-family="sans-serif" font-size="20" lengthAdjust="spacing" textLength="84" x="3742.5" y="91.2148">«service»</text><text fill="#000000" font-family="sans-serif" font-size="20" lengthAdjust="spacing" textLength="208" x="3680.5" y="116.3711">:ApplicationDTOService</text><rect fill="#E3E3E3" height="64.3125" rx="2.5" ry="2.5" style="stroke:#181818;stroke-width:0.5;" width="222" x="3673.5" y="1495.7656"/><text fill="#000000" font-family="sans-serif" font-size="20" lengthAdjust="spacing" textLength="84" x="3742.5" y="1523.5273">«service»</text><text fill="#000000" font-family="sans-serif" font-size="20" lengthAdjust="spacing" textLength="208" x="3680.5" y="1548.6836">:ApplicationDTOService</text><rect fill="#E3E3E3" height="64.3125" rx="2.5" ry="2.5" style="stroke:#181818;stroke-width:0.5;" width="115" x="3905.5" y="63.4531"/><text fill="#000000" font-family="sans-serif" font-size="20" lengthAdjust="spacing" textLength="85" x="3920.5" y="91.2148">«domain»</text><text fill="#000000" font-family="sans-serif" font-size="20" lengthAdjust="spacing" textLength="101" x="3912.5" y="116.3711">:Application</text><rect fill="#E3E3E3" height="64.3125" rx="2.5" ry="2.5" style="stroke:#181818;stroke-width:0.5;" width="115" x="3905.5" y="1495.7656"/><text fill="#000000" font-family="sans-serif" font-size="20" lengthAdjust="spacing" textLength="85" x="3920.5" y="1523.5273">«domain»</text><text fill="#000000" font-family="sans-serif" font-size="20" lengthAdjust="spacing" textLength="101" x="3912.5" y="1548.6836">:Application</text><rect fill="#FFFFFF" height="1340" style="stroke:#181818;stroke-width:1.0;" width="10" x="87.5" y="138.7656"/><rect fill="#FFFFFF" height="594.1875" style="stroke:#181818;stroke-width:1.0;" width="10" x="551.5" y="169.9219"/><rect fill="#FFFFFF" height="675.5" style="stroke:#181818;stroke-width:1.0;" width="10" x="551.5" y="803.2656"/><rect fill="#FFFFFF" height="415.4063" style="stroke:#181818;stroke-width:1.0;" width="10" x="1125.5" y="284.3906"/><rect fill="#FFFFFF" height="572.0313" style="stroke:#181818;stroke-width:1.0;" width="10" x="1125.5" y="842.4219"/><rect fill="#FFFFFF" height="30" style="stroke:#181818;stroke-width:1.0;" width="10" x="1755.5" y="323.5469"/><rect fill="#FFFFFF" height="267.9375" style="stroke:#181818;stroke-width:1.0;" width="10" x="2016" y="392.7031"/><rect fill="#FFFFFF" height="117.4688" style="stroke:#181818;stroke-width:1.0;" width="10" x="2016" y="881.5781"/><rect fill="#FFFFFF" height="30" style="stroke:#181818;stroke-width:1.0;" width="10" x="2728" y="431.8594"/><rect fill="#FFFFFF" height="128.4688" style="stroke:#181818;stroke-width:1.0;" width="10" x="2728" y="501.0156"/><rect fill="#FFFFFF" height="39.1563" style="stroke:#181818;stroke-width:1.0;" width="10" x="2728" y="920.7344"/><rect fill="#FFFFFF" height="30" style="stroke:#181818;stroke-width:1.0;" width="10" x="2910.5" y="584.4844"/><rect fill="#FFFFFF" height="267.9375" style="stroke:#181818;stroke-width:1.0;" width="10" x="3130" y="1038.2031"/><rect fill="#FFFFFF" height="30" style="stroke:#181818;stroke-width:1.0;" width="10" x="3130" y="1345.2969"/><rect fill="#FFFFFF" height="30" style="stroke:#181818;stroke-width:1.0;" width="10" x="3506" y="1077.3594"/><rect fill="#FFFFFF" height="128.4688" style="stroke:#181818;stroke-width:1.0;" width="10" x="3779.5" y="1146.5156"/><rect fill="#FFFFFF" height="30" style="stroke:#181818;stroke-width:1.0;" width="10" x="3958" y="1229.9844"/><polygon fill="#181818" points="539.5,165.9219,549.5,169.9219,539.5,173.9219,543.5,169.9219" style="stroke:#181818;stroke-width:1.0;"/><line style="stroke:#181818;stroke-width:1.0;" x1="97.5" x2="545.5" y1="169.9219" y2="169.9219"/><text fill="#000000" font-family="sans-serif" font-size="20" font-weight="bold" lengthAdjust="spacing" textLength="11" x="104.5" y="163.5273">1</text><text fill="#000000" font-family="sans-serif" font-size="20" lengthAdjust="spacing" textLength="387" x="119.5" y="163.5273">asks to get an ordered list of the candidates</text><polygon fill="#181818" points="964,205.0781,974,209.0781,964,213.0781,968,209.0781" style="stroke:#181818;stroke-width:1.0;"/><line style="stroke:#181818;stroke-width:1.0;" x1="561.5" x2="970" y1="209.0781" y2="209.0781"/><text fill="#000000" font-family="sans-serif" font-size="20" font-weight="bold" lengthAdjust="spacing" textLength="11" x="568.5" y="202.6836">2</text><text fill="#000000" font-family="sans-serif" font-size="20" lengthAdjust="spacing" textLength="70" x="583.5" y="202.6836">create()</text><rect fill="#E3E3E3" height="64.3125" rx="2.5" ry="2.5" style="stroke:#181818;stroke-width:0.5;" width="309" x="976" y="177.9219"/><text fill="#000000" font-family="sans-serif" font-size="20" lengthAdjust="spacing" textLength="115" x="1073" y="205.6836">«application»</text><text fill="#000000" font-family="sans-serif" font-size="20" lengthAdjust="spacing" textLength="295" x="983" y="230.8398">:ListOrderedCandidatesController</text><polygon fill="#181818" points="1113.5,280.3906,1123.5,284.3906,1113.5,288.3906,1117.5,284.3906" style="stroke:#181818;stroke-width:1.0;"/><line style="stroke:#181818;stroke-width:1.0;" x1="561.5" x2="1119.5" y1="284.3906" y2="284.3906"/><text fill="#000000" font-family="sans-serif" font-size="20" font-weight="bold" lengthAdjust="spacing" textLength="11" x="568.5" y="277.9961">3</text><text fill="#000000" font-family="sans-serif" font-size="20" lengthAdjust="spacing" textLength="178" x="583.5" y="277.9961">getJobOpeningList()</text><polygon fill="#181818" points="1743.5,319.5469,1753.5,323.5469,1743.5,327.5469,1747.5,323.5469" style="stroke:#181818;stroke-width:1.0;"/><line style="stroke:#181818;stroke-width:1.0;" x1="1135.5" x2="1749.5" y1="323.5469" y2="323.5469"/><text fill="#000000" font-family="sans-serif" font-size="20" font-weight="bold" lengthAdjust="spacing" textLength="11" x="1142.5" y="317.1523">4</text><text fill="#000000" font-family="sans-serif" font-size="20" lengthAdjust="spacing" textLength="586" x="1157.5" y="317.1523">loggedinUserWithPermissions(BaseRole.CUSTOMER_MANAGER)</text><polygon fill="#181818" points="2004,388.7031,2014,392.7031,2004,396.7031,2008,392.7031" style="stroke:#181818;stroke-width:1.0;"/><line style="stroke:#181818;stroke-width:1.0;" x1="1135.5" x2="2010" y1="392.7031" y2="392.7031"/><text fill="#000000" font-family="sans-serif" font-size="20" font-weight="bold" lengthAdjust="spacing" textLength="11" x="1142.5" y="386.3086">5</text><text fill="#000000" font-family="sans-serif" font-size="20" lengthAdjust="spacing" textLength="394" x="1157.5" y="386.3086">jobOpeningsOfCustomerManager(username)</text><polygon fill="#181818" points="2716,427.8594,2726,431.8594,2716,435.8594,2720,431.8594" style="stroke:#181818;stroke-width:1.0;"/><line style="stroke:#181818;stroke-width:1.0;" x1="2026" x2="2722" y1="431.8594" y2="431.8594"/><text fill="#000000" font-family="sans-serif" font-size="20" font-weight="bold" lengthAdjust="spacing" textLength="11" x="2033" y="425.4648">6</text><text fill="#000000" font-family="sans-serif" font-size="20" lengthAdjust="spacing" textLength="668" x="2048" y="425.4648">getJobOpeningListMatchingCustomerManager(customerManagerUsername)</text><polygon fill="#181818" points="2716,497.0156,2726,501.0156,2716,505.0156,2720,501.0156" style="stroke:#181818;stroke-width:1.0;"/><line style="stroke:#181818;stroke-width:1.0;" x1="2026" x2="2722" y1="501.0156" y2="501.0156"/><text fill="#000000" font-family="sans-serif" font-size="20" font-weight="bold" lengthAdjust="spacing" textLength="11" x="2033" y="494.6211">7</text><text fill="#000000" font-family="sans-serif" font-size="20" lengthAdjust="spacing" textLength="273" x="2048" y="494.6211">convertToDTO(jobOpeningList)</text><path d="M2613,516.0156 L2699,516.0156 L2699,533.1719 L2689,543.1719 L2613,543.1719 L2613,516.0156 " fill="#EEEEEE" style="stroke:#000000;stroke-width:1.5;"/><rect fill="none" height="106.4688" style="stroke:#000000;stroke-width:1.5;" width="375" x="2613" y="516.0156"/><text fill="#000000" font-family="sans-serif" font-size="20" font-weight="bold" lengthAdjust="spacing" textLength="41" x="2628" y="537.7773">loop</text><text fill="#000000" font-family="sans-serif" font-size="20" font-weight="bold" lengthAdjust="spacing" textLength="213" x="2714" y="538.7773">[for each JobOpening]</text><polygon fill="#181818" points="2898.5,580.4844,2908.5,584.4844,2898.5,588.4844,2902.5,584.4844" style="stroke:#181818;stroke-width:1.0;"/><line style="stroke:#181818;stroke-width:1.0;" x1="2738" x2="2904.5" y1="584.4844" y2="584.4844"/><text fill="#000000" font-family="sans-serif" font-size="20" font-weight="bold" lengthAdjust="spacing" textLength="11" x="2745" y="578.0898">8</text><text fill="#000000" font-family="sans-serif" font-size="20" lengthAdjust="spacing" textLength="73" x="2760" y="578.0898">toDTO()</text><polygon fill="#181818" points="1146.5,656.6406,1136.5,660.6406,1146.5,664.6406,1142.5,660.6406" style="stroke:#181818;stroke-width:1.0;"/><line style="stroke:#181818;stroke-width:1.0;stroke-dasharray:2.0,2.0;" x1="1140.5" x2="2020" y1="660.6406" y2="660.6406"/><text fill="#000000" font-family="sans-serif" font-size="20" font-weight="bold" lengthAdjust="spacing" textLength="11" x="1152.5" y="654.2461">9</text><text fill="#000000" font-family="sans-serif" font-size="20" lengthAdjust="spacing" textLength="172" x="1167.5" y="654.2461">jobOpeningListDTO</text><polygon fill="#181818" points="572.5,695.7969,562.5,699.7969,572.5,703.7969,568.5,699.7969" style="stroke:#181818;stroke-width:1.0;"/><line style="stroke:#181818;stroke-width:1.0;stroke-dasharray:2.0,2.0;" x1="566.5" x2="1129.5" y1="699.7969" y2="699.7969"/><text fill="#000000" font-family="sans-serif" font-size="20" font-weight="bold" lengthAdjust="spacing" textLength="22" x="578.5" y="693.4023">10</text><text fill="#000000" font-family="sans-serif" font-size="20" lengthAdjust="spacing" textLength="172" x="604.5" y="693.4023">jobOpeningListDTO</text><polygon fill="#181818" points="108.5,760.1094,98.5,764.1094,108.5,768.1094,104.5,764.1094" style="stroke:#181818;stroke-width:1.0;"/><line style="stroke:#181818;stroke-width:1.0;stroke-dasharray:2.0,2.0;" x1="102.5" x2="555.5" y1="764.1094" y2="764.1094"/><text fill="#000000" font-family="sans-serif" font-size="20" font-weight="bold" lengthAdjust="spacing" textLength="22" x="114.5" y="745.1367">11</text><text fill="#000000" font-family="sans-serif" font-size="20" lengthAdjust="spacing" textLength="382" x="140.5" y="732.5586">displays the job openings and asks the user</text><text fill="#000000" font-family="sans-serif" font-size="20" lengthAdjust="spacing" textLength="219" x="140.5" y="757.7148">to select one job opening</text><polygon fill="#181818" points="539.5,799.2656,549.5,803.2656,539.5,807.2656,543.5,803.2656" style="stroke:#181818;stroke-width:1.0;"/><line style="stroke:#181818;stroke-width:1.0;" x1="97.5" x2="545.5" y1="803.2656" y2="803.2656"/><text fill="#000000" font-family="sans-serif" font-size="20" font-weight="bold" lengthAdjust="spacing" textLength="22" x="104.5" y="796.8711">12</text><text fill="#000000" font-family="sans-serif" font-size="20" lengthAdjust="spacing" textLength="201" x="130.5" y="796.8711">selects the job opening</text><polygon fill="#181818" points="1113.5,838.4219,1123.5,842.4219,1113.5,846.4219,1117.5,842.4219" style="stroke:#181818;stroke-width:1.0;"/><line style="stroke:#181818;stroke-width:1.0;" x1="561.5" x2="1119.5" y1="842.4219" y2="842.4219"/><text fill="#000000" font-family="sans-serif" font-size="20" font-weight="bold" lengthAdjust="spacing" textLength="22" x="568.5" y="836.0273">13</text><text fill="#000000" font-family="sans-serif" font-size="20" lengthAdjust="spacing" textLength="519" x="594.5" y="836.0273">getApplicationsOrderedByInterviewResult(jobOpeningDTO)</text><polygon fill="#181818" points="2004,877.5781,2014,881.5781,2004,885.5781,2008,881.5781" style="stroke:#181818;stroke-width:1.0;"/><line style="stroke:#181818;stroke-width:1.0;" x1="1135.5" x2="2010" y1="881.5781" y2="881.5781"/><text fill="#000000" font-family="sans-serif" font-size="20" font-weight="bold" lengthAdjust="spacing" textLength="22" x="1142.5" y="875.1836">14</text><text fill="#000000" font-family="sans-serif" font-size="20" lengthAdjust="spacing" textLength="288" x="1168.5" y="875.1836">getJobOpening(jobOpeningDTO)</text><polygon fill="#181818" points="2716,916.7344,2726,920.7344,2716,924.7344,2720,920.7344" style="stroke:#181818;stroke-width:1.0;"/><line style="stroke:#181818;stroke-width:1.0;" x1="2026" x2="2722" y1="920.7344" y2="920.7344"/><text fill="#000000" font-family="sans-serif" font-size="20" font-weight="bold" lengthAdjust="spacing" textLength="22" x="2033" y="914.3398">15</text><text fill="#000000" font-family="sans-serif" font-size="20" lengthAdjust="spacing" textLength="288" x="2059" y="914.3398">getJobOpening(jobOpeningDTO)</text><polygon fill="#181818" points="2037,955.8906,2027,959.8906,2037,963.8906,2033,959.8906" style="stroke:#181818;stroke-width:1.0;"/><line style="stroke:#181818;stroke-width:1.0;stroke-dasharray:2.0,2.0;" x1="2031" x2="2732" y1="959.8906" y2="959.8906"/><text fill="#000000" font-family="sans-serif" font-size="20" font-weight="bold" lengthAdjust="spacing" textLength="22" x="2043" y="953.4961">16</text><text fill="#000000" font-family="sans-serif" font-size="20" lengthAdjust="spacing" textLength="99" x="2069" y="953.4961">jobOpening</text><polygon fill="#181818" points="1146.5,995.0469,1136.5,999.0469,1146.5,1003.0469,1142.5,999.0469" style="stroke:#181818;stroke-width:1.0;"/><line style="stroke:#181818;stroke-width:1.0;stroke-dasharray:2.0,2.0;" x1="1140.5" x2="2020" y1="999.0469" y2="999.0469"/><text fill="#000000" font-family="sans-serif" font-size="20" font-weight="bold" lengthAdjust="spacing" textLength="22" x="1152.5" y="992.6523">17</text><text fill="#000000" font-family="sans-serif" font-size="20" lengthAdjust="spacing" textLength="99" x="1178.5" y="992.6523">jobOpening</text><polygon fill="#181818" points="3118,1034.2031,3128,1038.2031,3118,1042.2031,3122,1038.2031" style="stroke:#181818;stroke-width:1.0;"/><line style="stroke:#181818;stroke-width:1.0;" x1="1135.5" x2="3124" y1="1038.2031" y2="1038.2031"/><text fill="#000000" font-family="sans-serif" font-size="20" font-weight="bold" lengthAdjust="spacing" textLength="22" x="1142.5" y="1031.8086">18</text><text fill="#000000" font-family="sans-serif" font-size="20" lengthAdjust="spacing" textLength="420" x="1168.5" y="1031.8086">getApplicationsWithInterviewGrade(jobOpening)</text><polygon fill="#181818" points="3494,1073.3594,3504,1077.3594,3494,1081.3594,3498,1077.3594" style="stroke:#181818;stroke-width:1.0;"/><line style="stroke:#181818;stroke-width:1.0;" x1="3140" x2="3500" y1="1077.3594" y2="1077.3594"/><text fill="#000000" font-family="sans-serif" font-size="20" font-weight="bold" lengthAdjust="spacing" textLength="22" x="3147" y="1070.9648">19</text><text fill="#000000" font-family="sans-serif" font-size="20" lengthAdjust="spacing" textLength="321" x="3173" y="1070.9648">getApplicationsWithInterviewGrade()</text><polygon fill="#181818" points="3767.5,1142.5156,3777.5,1146.5156,3767.5,1150.5156,3771.5,1146.5156" style="stroke:#181818;stroke-width:1.0;"/><line style="stroke:#181818;stroke-width:1.0;stroke-dasharray:2.0,2.0;" x1="3140" x2="3773.5" y1="1146.5156" y2="1146.5156"/><text fill="#000000" font-family="sans-serif" font-size="20" font-weight="bold" lengthAdjust="spacing" textLength="22" x="3147" y="1140.1211">20</text><text fill="#000000" font-family="sans-serif" font-size="20" lengthAdjust="spacing" textLength="267" x="3173" y="1140.1211">convertToDTO(applicationList)</text><path d="M3663.5,1161.5156 L3749.5,1161.5156 L3749.5,1178.6719 L3739.5,1188.6719 L3663.5,1188.6719 L3663.5,1161.5156 " fill="#EEEEEE" style="stroke:#000000;stroke-width:1.5;"/><rect fill="none" height="106.4688" style="stroke:#000000;stroke-width:1.5;" width="367" x="3663.5" y="1161.5156"/><text fill="#000000" font-family="sans-serif" font-size="20" font-weight="bold" lengthAdjust="spacing" textLength="41" x="3678.5" y="1183.2773">loop</text><text fill="#000000" font-family="sans-serif" font-size="20" font-weight="bold" lengthAdjust="spacing" textLength="201" x="3764.5" y="1184.2773">[for each application]</text><polygon fill="#181818" points="3946,1225.9844,3956,1229.9844,3946,1233.9844,3950,1229.9844" style="stroke:#181818;stroke-width:1.0;"/><line style="stroke:#181818;stroke-width:1.0;" x1="3789.5" x2="3952" y1="1229.9844" y2="1229.9844"/><text fill="#000000" font-family="sans-serif" font-size="20" font-weight="bold" lengthAdjust="spacing" textLength="22" x="3796.5" y="1223.5898">21</text><text fill="#000000" font-family="sans-serif" font-size="20" lengthAdjust="spacing" textLength="73" x="3822.5" y="1223.5898">toDTO()</text><polygon fill="#181818" points="1146.5,1302.1406,1136.5,1306.1406,1146.5,1310.1406,1142.5,1306.1406" style="stroke:#181818;stroke-width:1.0;"/><line style="stroke:#181818;stroke-width:1.0;stroke-dasharray:2.0,2.0;" x1="1140.5" x2="3134" y1="1306.1406" y2="1306.1406"/><text fill="#000000" font-family="sans-serif" font-size="20" font-weight="bold" lengthAdjust="spacing" textLength="22" x="1152.5" y="1299.7461">22</text><text fill="#000000" font-family="sans-serif" font-size="20" lengthAdjust="spacing" textLength="176" x="1178.5" y="1299.7461">applicationsListDTO</text><polygon fill="#181818" points="3118,1341.2969,3128,1345.2969,3118,1349.2969,3122,1345.2969" style="stroke:#181818;stroke-width:1.0;"/><line style="stroke:#181818;stroke-width:1.0;" x1="1135.5" x2="3124" y1="1345.2969" y2="1345.2969"/><text fill="#000000" font-family="sans-serif" font-size="20" font-weight="bold" lengthAdjust="spacing" textLength="22" x="1142.5" y="1338.9023">23</text><text fill="#000000" font-family="sans-serif" font-size="20" lengthAdjust="spacing" textLength="554" x="1168.5" y="1338.9023">getApplicationsOrderedByInterviewResult(applicationsListDTO)</text><polygon fill="#181818" points="572.5,1410.4531,562.5,1414.4531,572.5,1418.4531,568.5,1414.4531" style="stroke:#181818;stroke-width:1.0;"/><line style="stroke:#181818;stroke-width:1.0;stroke-dasharray:2.0,2.0;" x1="566.5" x2="1129.5" y1="1414.4531" y2="1414.4531"/><text fill="#000000" font-family="sans-serif" font-size="20" font-weight="bold" lengthAdjust="spacing" textLength="22" x="578.5" y="1408.0586">24</text><text fill="#000000" font-family="sans-serif" font-size="20" lengthAdjust="spacing" textLength="215" x="604.5" y="1408.0586">orderApplicationDTOList</text><polygon fill="#181818" points="103.5,1474.7656,93.5,1478.7656,103.5,1482.7656,99.5,1478.7656" style="stroke:#181818;stroke-width:1.0;"/><line style="stroke:#181818;stroke-width:1.0;stroke-dasharray:2.0,2.0;" x1="97.5" x2="555.5" y1="1478.7656" y2="1478.7656"/><text fill="#000000" font-family="sans-serif" font-size="20" font-weight="bold" lengthAdjust="spacing" textLength="22" x="109.5" y="1459.793">25</text><text fill="#000000" font-family="sans-serif" font-size="20" lengthAdjust="spacing" textLength="404" x="135.5" y="1447.2148">shows the candidates list in descending order,</text><text fill="#000000" font-family="sans-serif" font-size="20" lengthAdjust="spacing" textLength="328" x="141.5" y="1472.3711">accordingly to the job interview points</text><!--SRC=[jLPDJnin4BtlhnXn2gYjeBT6A588b5AHfig7AbL8oEnE4iF6tjeEAFpwZlSZiRrEe8VcW1QFPzwRyPknzHCN1LDibSlq2JF8SCxMkVagXPdmLuJFfqcYcpsmaaAcIoLN24QjqR4KB7rY2voOJOwWC3LCB79tWrwoJBvmiO0vopKcYU66jiucPwTdNs22VzOeKeHBpXQqFKdOsaYnNZsWek_KI0L7WxKs1ArWo0HXgIDW6WR3X00CJtd1X86Zy_D2eKPXcE5Iz7ftedlBjHcf31Lc0oOodZ63UdPJkizkGdTM53bFt_0UK7sKpFE6n7HywyVfzjTcAHL_BGDDK3tp5Ckz_TdqssyuFzVLMgyN4jWQ2FoxV1WLAAXiLSuhIimDHlQTuNs1BgSZBy9eSazBeQ_2GcfEPTy4xkEjeI7GCeInChbYN0Hn0kz3tFkx4ubNWJRihqAGYHDinpX8AhhddGo3yfAbNZbG5SSzn2_5pvz9SrRfoM087tiaMkZIlYSDHi823J01if8ev2HNa7CmIuHqgzTT519yGluKnOhsv8GYfGh9qZbs3LqRTtSyjWbemuwB5NnY_rg7Ij9ToELYWHaNCwhDBswMFr6jkDQKXkvSC8rZcUEdmMmo7GslnlV3_e_-zTNuE07wRIENiSgb38F5ShN1z9JVXSSjLJsQDuEYdXETDV4HR8K1bDyyfSrRgc5Q-eP8SORCf4lw3g5J___PNYRjBWfg4DsJl9TmAiKpAZELfCREeqVTETOuXYMIIrd0dAOm4LgwVGlrBuhhyI4MfeG_tZf5WBUsQEgb5KLMyad-jJgrji6LYws0dNz-h50NbUgQrcjxXuTLzOTj9uiv99-Cwo9d6rqs9WK0MSkLcZUhcvaiLgfm9wYlDUPqZO8KtdQNfsrbPo1K3Ys0VQrVYjYPDBg-v2usDyBO2OOlOzJq5d3aGgcsXi3UfWpR98ppNthnBP0zyewhDvBHeo_5DnKOIIIcmaWmjnnUaRtR3bh7Q0VlzWIl5SlGgKauRBsBixJvqIkuzcNuBjWsMEHM3ITzT5EKMiMjlbs9a3_Zd6TSDUH2Bisr71blZcy3tC3u1Gb6MYoB0mdwmoooqQFOphvMaSDMD_Ee7Ii-qTvKqzwX444zAAx3Z293jdpG-0yhYnEVjDwerKlveeC7KFKkue9STKerj_THYV3XJX3bbBvfAT_O5rKpG7cJCXIIldKuUrqMz3PB_W80]--></g></svg>