<?xml version="1.0" encoding="UTF-8" standalone="no"?><svg xmlns="http://www.w3.org/2000/svg" xmlns:xlink="http://www.w3.org/1999/xlink" contentStyleType="text/css" height="1538px" preserveAspectRatio="none" style="width:3786px;height:1538px;background:#FFFFFF;" version="1.1" viewBox="0 0 3786 1538" width="3786px" zoomAndPan="magnify"><defs/><g><text fill="#000000" font-family="sans-serif" font-size="14" font-weight="bold" lengthAdjust="spacing" textLength="187" x="1801" y="29.5332">US1019 Sequence Diagram</text><rect fill="#FFFFFF" height="1292.1563" style="stroke:#181818;stroke-width:1.0;" width="10" x="87.5" y="138.7656"/><rect fill="#FFFFFF" height="308.4063" style="stroke:#181818;stroke-width:1.0;" width="10" x="551.5" y="169.9219"/><rect fill="#FFFFFF" height="913.4375" style="stroke:#181818;stroke-width:1.0;" width="10" x="551.5" y="517.4844"/><rect fill="#FFFFFF" height="129.625" style="stroke:#181818;stroke-width:1.0;" width="10" x="914.5" y="284.3906"/><rect fill="#FFFFFF" height="809.9688" style="stroke:#181818;stroke-width:1.0;" width="10" x="914.5" y="556.6406"/><rect fill="#FFFFFF" height="117.4688" style="stroke:#181818;stroke-width:1.0;" width="10" x="1246.5" y="595.7969"/><rect fill="#FFFFFF" height="39.1563" style="stroke:#181818;stroke-width:1.0;" width="10" x="1578.5" y="634.9531"/><rect fill="#FFFFFF" height="267.9375" style="stroke:#181818;stroke-width:1.0;" width="10" x="1845.5" y="752.4219"/><rect fill="#FFFFFF" height="30" style="stroke:#181818;stroke-width:1.0;" width="10" x="2251.5" y="791.5781"/><rect fill="#FFFFFF" height="128.4688" style="stroke:#181818;stroke-width:1.0;" width="10" x="2525" y="860.7344"/><rect fill="#FFFFFF" height="30" style="stroke:#181818;stroke-width:1.0;" width="10" x="2703.5" y="944.2031"/><rect fill="#FFFFFF" height="267.9375" style="stroke:#181818;stroke-width:1.0;" width="10" x="2915" y="1059.5156"/><rect fill="#FFFFFF" height="30" style="stroke:#181818;stroke-width:1.0;" width="10" x="3318" y="1098.6719"/><rect fill="#FFFFFF" height="128.4688" style="stroke:#181818;stroke-width:1.0;" width="10" x="3538" y="1167.8281"/><rect fill="#FFFFFF" height="30" style="stroke:#181818;stroke-width:1.0;" width="10" x="3710.5" y="1251.2969"/><rect fill="none" height="106.4688" style="stroke:#000000;stroke-width:1.5;" width="367" x="2409" y="875.7344"/><rect fill="none" height="106.4688" style="stroke:#000000;stroke-width:1.5;" width="355" x="3425" y="1182.8281"/><line style="stroke:#181818;stroke-width:0.5;stroke-dasharray:5.0,5.0;" x1="92" x2="92" y1="128.7656" y2="1448.9219"/><line style="stroke:#181818;stroke-width:0.5;stroke-dasharray:5.0,5.0;" x1="556" x2="556" y1="128.7656" y2="1448.9219"/><line style="stroke:#181818;stroke-width:0.5;stroke-dasharray:5.0,5.0;" x1="919" x2="919" y1="225.5781" y2="1448.9219"/><line style="stroke:#181818;stroke-width:0.5;stroke-dasharray:5.0,5.0;" x1="1251.5" x2="1251.5" y1="128.7656" y2="1448.9219"/><line style="stroke:#181818;stroke-width:0.5;stroke-dasharray:5.0,5.0;" x1="1583.5" x2="1583.5" y1="128.7656" y2="1448.9219"/><line style="stroke:#181818;stroke-width:0.5;stroke-dasharray:5.0,5.0;" x1="1850.5" x2="1850.5" y1="128.7656" y2="1448.9219"/><line style="stroke:#181818;stroke-width:0.5;stroke-dasharray:5.0,5.0;" x1="2256" x2="2256" y1="128.7656" y2="1448.9219"/><line style="stroke:#181818;stroke-width:0.5;stroke-dasharray:5.0,5.0;" x1="2530" x2="2530" y1="128.7656" y2="1448.9219"/><line style="stroke:#181818;stroke-width:0.5;stroke-dasharray:5.0,5.0;" x1="2708" x2="2708" y1="128.7656" y2="1448.9219"/><line style="stroke:#181818;stroke-width:0.5;stroke-dasharray:5.0,5.0;" x1="2920" x2="2920" y1="128.7656" y2="1448.9219"/><line style="stroke:#181818;stroke-width:0.5;stroke-dasharray:5.0,5.0;" x1="3323" x2="3323" y1="128.7656" y2="1448.9219"/><line style="stroke:#181818;stroke-width:0.5;stroke-dasharray:5.0,5.0;" x1="3543" x2="3543" y1="128.7656" y2="1448.9219"/><line style="stroke:#181818;stroke-width:0.5;stroke-dasharray:5.0,5.0;" x1="3715" x2="3715" y1="128.7656" y2="1448.9219"/><text fill="#000000" font-family="sans-serif" font-size="20" lengthAdjust="spacing" textLength="169" x="5" y="124.3711">Customer Manager</text><ellipse cx="92.5" cy="52.1094" fill="#E3E3E3" rx="8" ry="8" style="stroke:#181818;stroke-width:0.5;"/><path d="M92.5,60.1094 L92.5,87.1094 M79.5,68.1094 L105.5,68.1094 M92.5,87.1094 L79.5,102.1094 M92.5,87.1094 L105.5,102.1094 " fill="none" style="stroke:#181818;stroke-width:0.5;"/><text fill="#000000" font-family="sans-serif" font-size="20" lengthAdjust="spacing" textLength="169" x="5" y="1468.6836">Customer Manager</text><ellipse cx="92.5" cy="1481.5781" fill="#E3E3E3" rx="8" ry="8" style="stroke:#181818;stroke-width:0.5;"/><path d="M92.5,1489.5781 L92.5,1516.5781 M79.5,1497.5781 L105.5,1497.5781 M92.5,1516.5781 L79.5,1531.5781 M92.5,1516.5781 L105.5,1531.5781 " fill="none" style="stroke:#181818;stroke-width:0.5;"/><rect fill="#E3E3E3" height="64.3125" rx="2.5" ry="2.5" style="stroke:#181818;stroke-width:0.5;" width="169" x="472" y="63.4531"/><text fill="#000000" font-family="sans-serif" font-size="20" lengthAdjust="spacing" textLength="130" x="491.5" y="91.2148">«presentation»</text><text fill="#000000" font-family="sans-serif" font-size="20" lengthAdjust="spacing" textLength="155" x="479" y="116.3711">:ListCandidatesUI</text><rect fill="#E3E3E3" height="64.3125" rx="2.5" ry="2.5" style="stroke:#181818;stroke-width:0.5;" width="169" x="472" y="1447.9219"/><text fill="#000000" font-family="sans-serif" font-size="20" lengthAdjust="spacing" textLength="130" x="491.5" y="1475.6836">«presentation»</text><text fill="#000000" font-family="sans-serif" font-size="20" lengthAdjust="spacing" textLength="155" x="479" y="1500.8398">:ListCandidatesUI</text><rect fill="#E3E3E3" height="64.3125" rx="2.5" ry="2.5" style="stroke:#181818;stroke-width:0.5;" width="235" x="802" y="1447.9219"/><text fill="#000000" font-family="sans-serif" font-size="20" lengthAdjust="spacing" textLength="115" x="862" y="1475.6836">«application»</text><text fill="#000000" font-family="sans-serif" font-size="20" lengthAdjust="spacing" textLength="221" x="809" y="1500.8398">:ListCandidatesController</text><rect fill="#E3E3E3" height="64.3125" rx="2.5" ry="2.5" style="stroke:#181818;stroke-width:0.5;" width="304" x="1099.5" y="63.4531"/><text fill="#000000" font-family="sans-serif" font-size="20" lengthAdjust="spacing" textLength="84" x="1209.5" y="91.2148">«service»</text><text fill="#000000" font-family="sans-serif" font-size="20" lengthAdjust="spacing" textLength="290" x="1106.5" y="116.3711">:JobOpeningManagementService</text><rect fill="#E3E3E3" height="64.3125" rx="2.5" ry="2.5" style="stroke:#181818;stroke-width:0.5;" width="304" x="1099.5" y="1447.9219"/><text fill="#000000" font-family="sans-serif" font-size="20" lengthAdjust="spacing" textLength="84" x="1209.5" y="1475.6836">«service»</text><text fill="#000000" font-family="sans-serif" font-size="20" lengthAdjust="spacing" textLength="290" x="1106.5" y="1500.8398">:JobOpeningManagementService</text><rect fill="#E3E3E3" height="64.3125" rx="2.5" ry="2.5" style="stroke:#181818;stroke-width:0.5;" width="220" x="1473.5" y="63.4531"/><text fill="#000000" font-family="sans-serif" font-size="20" lengthAdjust="spacing" textLength="110" x="1528.5" y="91.2148">«repository»</text><text fill="#000000" font-family="sans-serif" font-size="20" lengthAdjust="spacing" textLength="206" x="1480.5" y="116.3711">:JobOpeningRepository</text><rect fill="#E3E3E3" height="64.3125" rx="2.5" ry="2.5" style="stroke:#181818;stroke-width:0.5;" width="220" x="1473.5" y="1447.9219"/><text fill="#000000" font-family="sans-serif" font-size="20" lengthAdjust="spacing" textLength="110" x="1528.5" y="1475.6836">«repository»</text><text fill="#000000" font-family="sans-serif" font-size="20" lengthAdjust="spacing" textLength="206" x="1480.5" y="1500.8398">:JobOpeningRepository</text><rect fill="#E3E3E3" height="64.3125" rx="2.5" ry="2.5" style="stroke:#181818;stroke-width:0.5;" width="294" x="1703.5" y="63.4531"/><text fill="#000000" font-family="sans-serif" font-size="20" lengthAdjust="spacing" textLength="84" x="1808.5" y="91.2148">«service»</text><text fill="#000000" font-family="sans-serif" font-size="20" lengthAdjust="spacing" textLength="280" x="1710.5" y="116.3711">:ApplicationManagementService</text><rect fill="#E3E3E3" height="64.3125" rx="2.5" ry="2.5" style="stroke:#181818;stroke-width:0.5;" width="294" x="1703.5" y="1447.9219"/><text fill="#000000" font-family="sans-serif" font-size="20" lengthAdjust="spacing" textLength="84" x="1808.5" y="1475.6836">«service»</text><text fill="#000000" font-family="sans-serif" font-size="20" lengthAdjust="spacing" textLength="280" x="1710.5" y="1500.8398">:ApplicationManagementService</text><rect fill="#E3E3E3" height="64.3125" rx="2.5" ry="2.5" style="stroke:#181818;stroke-width:0.5;" width="305" x="2104" y="63.4531"/><text fill="#000000" font-family="sans-serif" font-size="20" lengthAdjust="spacing" textLength="110" x="2201.5" y="91.2148">«repository»</text><text fill="#000000" font-family="sans-serif" font-size="20" lengthAdjust="spacing" textLength="291" x="2111" y="116.3711">:ApplicationRepositoryRepository</text><rect fill="#E3E3E3" height="64.3125" rx="2.5" ry="2.5" style="stroke:#181818;stroke-width:0.5;" width="305" x="2104" y="1447.9219"/><text fill="#000000" font-family="sans-serif" font-size="20" lengthAdjust="spacing" textLength="110" x="2201.5" y="1475.6836">«repository»</text><text fill="#000000" font-family="sans-serif" font-size="20" lengthAdjust="spacing" textLength="291" x="2111" y="1500.8398">:ApplicationRepositoryRepository</text><rect fill="#E3E3E3" height="64.3125" rx="2.5" ry="2.5" style="stroke:#181818;stroke-width:0.5;" width="222" x="2419" y="63.4531"/><text fill="#000000" font-family="sans-serif" font-size="20" lengthAdjust="spacing" textLength="84" x="2488" y="91.2148">«service»</text><text fill="#000000" font-family="sans-serif" font-size="20" lengthAdjust="spacing" textLength="208" x="2426" y="116.3711">:ApplicationDTOService</text><rect fill="#E3E3E3" height="64.3125" rx="2.5" ry="2.5" style="stroke:#181818;stroke-width:0.5;" width="222" x="2419" y="1447.9219"/><text fill="#000000" font-family="sans-serif" font-size="20" lengthAdjust="spacing" textLength="84" x="2488" y="1475.6836">«service»</text><text fill="#000000" font-family="sans-serif" font-size="20" lengthAdjust="spacing" textLength="208" x="2426" y="1500.8398">:ApplicationDTOService</text><rect fill="#E3E3E3" height="64.3125" rx="2.5" ry="2.5" style="stroke:#181818;stroke-width:0.5;" width="115" x="2651" y="63.4531"/><text fill="#000000" font-family="sans-serif" font-size="20" lengthAdjust="spacing" textLength="85" x="2666" y="91.2148">«domain»</text><text fill="#000000" font-family="sans-serif" font-size="20" lengthAdjust="spacing" textLength="101" x="2658" y="116.3711">:Application</text><rect fill="#E3E3E3" height="64.3125" rx="2.5" ry="2.5" style="stroke:#181818;stroke-width:0.5;" width="115" x="2651" y="1447.9219"/><text fill="#000000" font-family="sans-serif" font-size="20" lengthAdjust="spacing" textLength="85" x="2666" y="1475.6836">«domain»</text><text fill="#000000" font-family="sans-serif" font-size="20" lengthAdjust="spacing" textLength="101" x="2658" y="1500.8398">:Application</text><rect fill="#E3E3E3" height="64.3125" rx="2.5" ry="2.5" style="stroke:#181818;stroke-width:0.5;" width="288" x="2776" y="63.4531"/><text fill="#000000" font-family="sans-serif" font-size="20" lengthAdjust="spacing" textLength="84" x="2878" y="91.2148">«service»</text><text fill="#000000" font-family="sans-serif" font-size="20" lengthAdjust="spacing" textLength="274" x="2783" y="116.3711">:CandidateManagementService</text><rect fill="#E3E3E3" height="64.3125" rx="2.5" ry="2.5" style="stroke:#181818;stroke-width:0.5;" width="288" x="2776" y="1447.9219"/><text fill="#000000" font-family="sans-serif" font-size="20" lengthAdjust="spacing" textLength="84" x="2878" y="1475.6836">«service»</text><text fill="#000000" font-family="sans-serif" font-size="20" lengthAdjust="spacing" textLength="274" x="2783" y="1500.8398">:CandidateManagementService</text><rect fill="#E3E3E3" height="64.3125" rx="2.5" ry="2.5" style="stroke:#181818;stroke-width:0.5;" width="204" x="3221" y="63.4531"/><text fill="#000000" font-family="sans-serif" font-size="20" lengthAdjust="spacing" textLength="110" x="3268" y="91.2148">«repository»</text><text fill="#000000" font-family="sans-serif" font-size="20" lengthAdjust="spacing" textLength="190" x="3228" y="116.3711">:CandidateRepository</text><rect fill="#E3E3E3" height="64.3125" rx="2.5" ry="2.5" style="stroke:#181818;stroke-width:0.5;" width="204" x="3221" y="1447.9219"/><text fill="#000000" font-family="sans-serif" font-size="20" lengthAdjust="spacing" textLength="110" x="3268" y="1475.6836">«repository»</text><text fill="#000000" font-family="sans-serif" font-size="20" lengthAdjust="spacing" textLength="190" x="3228" y="1500.8398">:CandidateRepository</text><rect fill="#E3E3E3" height="64.3125" rx="2.5" ry="2.5" style="stroke:#181818;stroke-width:0.5;" width="216" x="3435" y="63.4531"/><text fill="#000000" font-family="sans-serif" font-size="20" lengthAdjust="spacing" textLength="84" x="3501" y="91.2148">«service»</text><text fill="#000000" font-family="sans-serif" font-size="20" lengthAdjust="spacing" textLength="202" x="3442" y="116.3711">:CandidateDTOService</text><rect fill="#E3E3E3" height="64.3125" rx="2.5" ry="2.5" style="stroke:#181818;stroke-width:0.5;" width="216" x="3435" y="1447.9219"/><text fill="#000000" font-family="sans-serif" font-size="20" lengthAdjust="spacing" textLength="84" x="3501" y="1475.6836">«service»</text><text fill="#000000" font-family="sans-serif" font-size="20" lengthAdjust="spacing" textLength="202" x="3442" y="1500.8398">:CandidateDTOService</text><rect fill="#E3E3E3" height="64.3125" rx="2.5" ry="2.5" style="stroke:#181818;stroke-width:0.5;" width="109" x="3661" y="63.4531"/><text fill="#000000" font-family="sans-serif" font-size="20" lengthAdjust="spacing" textLength="85" x="3673" y="91.2148">«domain»</text><text fill="#000000" font-family="sans-serif" font-size="20" lengthAdjust="spacing" textLength="95" x="3668" y="116.3711">:Candidate</text><rect fill="#E3E3E3" height="64.3125" rx="2.5" ry="2.5" style="stroke:#181818;stroke-width:0.5;" width="109" x="3661" y="1447.9219"/><text fill="#000000" font-family="sans-serif" font-size="20" lengthAdjust="spacing" textLength="85" x="3673" y="1475.6836">«domain»</text><text fill="#000000" font-family="sans-serif" font-size="20" lengthAdjust="spacing" textLength="95" x="3668" y="1500.8398">:Candidate</text><rect fill="#FFFFFF" height="1292.1563" style="stroke:#181818;stroke-width:1.0;" width="10" x="87.5" y="138.7656"/><rect fill="#FFFFFF" height="308.4063" style="stroke:#181818;stroke-width:1.0;" width="10" x="551.5" y="169.9219"/><rect fill="#FFFFFF" height="913.4375" style="stroke:#181818;stroke-width:1.0;" width="10" x="551.5" y="517.4844"/><rect fill="#FFFFFF" height="129.625" style="stroke:#181818;stroke-width:1.0;" width="10" x="914.5" y="284.3906"/><rect fill="#FFFFFF" height="809.9688" style="stroke:#181818;stroke-width:1.0;" width="10" x="914.5" y="556.6406"/><rect fill="#FFFFFF" height="117.4688" style="stroke:#181818;stroke-width:1.0;" width="10" x="1246.5" y="595.7969"/><rect fill="#FFFFFF" height="39.1563" style="stroke:#181818;stroke-width:1.0;" width="10" x="1578.5" y="634.9531"/><rect fill="#FFFFFF" height="267.9375" style="stroke:#181818;stroke-width:1.0;" width="10" x="1845.5" y="752.4219"/><rect fill="#FFFFFF" height="30" style="stroke:#181818;stroke-width:1.0;" width="10" x="2251.5" y="791.5781"/><rect fill="#FFFFFF" height="128.4688" style="stroke:#181818;stroke-width:1.0;" width="10" x="2525" y="860.7344"/><rect fill="#FFFFFF" height="30" style="stroke:#181818;stroke-width:1.0;" width="10" x="2703.5" y="944.2031"/><rect fill="#FFFFFF" height="267.9375" style="stroke:#181818;stroke-width:1.0;" width="10" x="2915" y="1059.5156"/><rect fill="#FFFFFF" height="30" style="stroke:#181818;stroke-width:1.0;" width="10" x="3318" y="1098.6719"/><rect fill="#FFFFFF" height="128.4688" style="stroke:#181818;stroke-width:1.0;" width="10" x="3538" y="1167.8281"/><rect fill="#FFFFFF" height="30" style="stroke:#181818;stroke-width:1.0;" width="10" x="3710.5" y="1251.2969"/><polygon fill="#181818" points="539.5,165.9219,549.5,169.9219,539.5,173.9219,543.5,169.9219" style="stroke:#181818;stroke-width:1.0;"/><line style="stroke:#181818;stroke-width:1.0;" x1="97.5" x2="545.5" y1="169.9219" y2="169.9219"/><text fill="#000000" font-family="sans-serif" font-size="20" font-weight="bold" lengthAdjust="spacing" textLength="11" x="104.5" y="163.5273">1</text><text fill="#000000" font-family="sans-serif" font-size="20" lengthAdjust="spacing" textLength="387" x="119.5" y="163.5273">asks to get an ordered list of the candidates</text><polygon fill="#181818" points="790,205.0781,800,209.0781,790,213.0781,794,209.0781" style="stroke:#181818;stroke-width:1.0;"/><line style="stroke:#181818;stroke-width:1.0;" x1="561.5" x2="796" y1="209.0781" y2="209.0781"/><text fill="#000000" font-family="sans-serif" font-size="20" font-weight="bold" lengthAdjust="spacing" textLength="11" x="568.5" y="202.6836">2</text><text fill="#000000" font-family="sans-serif" font-size="20" lengthAdjust="spacing" textLength="70" x="583.5" y="202.6836">create()</text><rect fill="#E3E3E3" height="64.3125" rx="2.5" ry="2.5" style="stroke:#181818;stroke-width:0.5;" width="235" x="802" y="177.9219"/><text fill="#000000" font-family="sans-serif" font-size="20" lengthAdjust="spacing" textLength="115" x="862" y="205.6836">«application»</text><text fill="#000000" font-family="sans-serif" font-size="20" lengthAdjust="spacing" textLength="221" x="809" y="230.8398">:ListCandidatesController</text><polygon fill="#181818" points="902.5,280.3906,912.5,284.3906,902.5,288.3906,906.5,284.3906" style="stroke:#181818;stroke-width:1.0;"/><line style="stroke:#181818;stroke-width:1.0;" x1="561.5" x2="908.5" y1="284.3906" y2="284.3906"/><text fill="#000000" font-family="sans-serif" font-size="20" font-weight="bold" lengthAdjust="spacing" textLength="11" x="568.5" y="277.9961">3</text><text fill="#000000" font-family="sans-serif" font-size="20" lengthAdjust="spacing" textLength="178" x="583.5" y="277.9961">getJobOpeningList()</text><rect fill="none" height="85.4688" style="stroke:#000000;stroke-width:1.5;" width="474" x="799" y="292.3906"/><path d="M799,292.3906 L870,292.3906 L870,309.3906 L860,319.3906 L799,319.3906 L799,292.3906 " fill="#EEEEEE" style="stroke:#000000;stroke-width:2.0;"/><text fill="#000000" font-family="sans-serif" font-size="20" font-weight="bold" lengthAdjust="spacing" textLength="26" x="812" y="315.1523">ref</text><text fill="#000000" font-family="sans-serif" font-size="20" font-weight="bold" lengthAdjust="spacing" textLength="58" x="803" y="344.1523">[ref1]:</text><text fill="#000000" font-family="sans-serif" font-size="20" lengthAdjust="spacing" textLength="55" x="867" y="344.1523">Check</text><text fill="#000000" font-family="sans-serif" font-size="20" font-weight="bold" lengthAdjust="spacing" textLength="341" x="928" y="344.1523">sequence-diagram-get-job-openings</text><text fill="#000000" font-family="sans-serif" font-size="20" lengthAdjust="spacing" textLength="103" x="910" y="369.3086">in the folder</text><text fill="#000000" font-family="sans-serif" font-size="20" font-weight="bold" lengthAdjust="spacing" textLength="143" x="1019" y="369.3086">team-decisions</text><polygon fill="#181818" points="572.5,410.0156,562.5,414.0156,572.5,418.0156,568.5,414.0156" style="stroke:#181818;stroke-width:1.0;"/><line style="stroke:#181818;stroke-width:1.0;stroke-dasharray:2.0,2.0;" x1="566.5" x2="918.5" y1="414.0156" y2="414.0156"/><text fill="#000000" font-family="sans-serif" font-size="20" font-weight="bold" lengthAdjust="spacing" textLength="11" x="578.5" y="407.6211">4</text><text fill="#000000" font-family="sans-serif" font-size="20" lengthAdjust="spacing" textLength="172" x="593.5" y="407.6211">jobOpeningListDTO</text><polygon fill="#181818" points="108.5,474.3281,98.5,478.3281,108.5,482.3281,104.5,478.3281" style="stroke:#181818;stroke-width:1.0;"/><line style="stroke:#181818;stroke-width:1.0;stroke-dasharray:2.0,2.0;" x1="102.5" x2="555.5" y1="478.3281" y2="478.3281"/><text fill="#000000" font-family="sans-serif" font-size="20" font-weight="bold" lengthAdjust="spacing" textLength="11" x="114.5" y="459.3555">5</text><text fill="#000000" font-family="sans-serif" font-size="20" lengthAdjust="spacing" textLength="382" x="129.5" y="446.7773">displays the job openings and asks the user</text><text fill="#000000" font-family="sans-serif" font-size="20" lengthAdjust="spacing" textLength="219" x="129.5" y="471.9336">to select one job opening</text><polygon fill="#181818" points="539.5,513.4844,549.5,517.4844,539.5,521.4844,543.5,517.4844" style="stroke:#181818;stroke-width:1.0;"/><line style="stroke:#181818;stroke-width:1.0;" x1="97.5" x2="545.5" y1="517.4844" y2="517.4844"/><text fill="#000000" font-family="sans-serif" font-size="20" font-weight="bold" lengthAdjust="spacing" textLength="11" x="104.5" y="511.0898">6</text><text fill="#000000" font-family="sans-serif" font-size="20" lengthAdjust="spacing" textLength="201" x="119.5" y="511.0898">selects the job opening</text><polygon fill="#181818" points="902.5,552.6406,912.5,556.6406,902.5,560.6406,906.5,556.6406" style="stroke:#181818;stroke-width:1.0;"/><line style="stroke:#181818;stroke-width:1.0;" x1="561.5" x2="908.5" y1="556.6406" y2="556.6406"/><text fill="#000000" font-family="sans-serif" font-size="20" font-weight="bold" lengthAdjust="spacing" textLength="11" x="568.5" y="550.2461">7</text><text fill="#000000" font-family="sans-serif" font-size="20" lengthAdjust="spacing" textLength="319" x="583.5" y="550.2461">getApplicationsList(jobOpeningDTO)</text><polygon fill="#181818" points="1234.5,591.7969,1244.5,595.7969,1234.5,599.7969,1238.5,595.7969" style="stroke:#181818;stroke-width:1.0;"/><line style="stroke:#181818;stroke-width:1.0;" x1="924.5" x2="1240.5" y1="595.7969" y2="595.7969"/><text fill="#000000" font-family="sans-serif" font-size="20" font-weight="bold" lengthAdjust="spacing" textLength="11" x="931.5" y="589.4023">8</text><text fill="#000000" font-family="sans-serif" font-size="20" lengthAdjust="spacing" textLength="288" x="946.5" y="589.4023">getJobOpening(jobOpeningDTO)</text><polygon fill="#181818" points="1566.5,630.9531,1576.5,634.9531,1566.5,638.9531,1570.5,634.9531" style="stroke:#181818;stroke-width:1.0;"/><line style="stroke:#181818;stroke-width:1.0;" x1="1256.5" x2="1572.5" y1="634.9531" y2="634.9531"/><text fill="#000000" font-family="sans-serif" font-size="20" font-weight="bold" lengthAdjust="spacing" textLength="11" x="1263.5" y="628.5586">9</text><text fill="#000000" font-family="sans-serif" font-size="20" lengthAdjust="spacing" textLength="288" x="1278.5" y="628.5586">getJobOpening(jobOpeningDTO)</text><polygon fill="#181818" points="1267.5,670.1094,1257.5,674.1094,1267.5,678.1094,1263.5,674.1094" style="stroke:#181818;stroke-width:1.0;"/><line style="stroke:#181818;stroke-width:1.0;stroke-dasharray:2.0,2.0;" x1="1261.5" x2="1582.5" y1="674.1094" y2="674.1094"/><text fill="#000000" font-family="sans-serif" font-size="20" font-weight="bold" lengthAdjust="spacing" textLength="22" x="1273.5" y="667.7148">10</text><text fill="#000000" font-family="sans-serif" font-size="20" lengthAdjust="spacing" textLength="99" x="1299.5" y="667.7148">jobOpening</text><polygon fill="#181818" points="935.5,709.2656,925.5,713.2656,935.5,717.2656,931.5,713.2656" style="stroke:#181818;stroke-width:1.0;"/><line style="stroke:#181818;stroke-width:1.0;stroke-dasharray:2.0,2.0;" x1="929.5" x2="1250.5" y1="713.2656" y2="713.2656"/><text fill="#000000" font-family="sans-serif" font-size="20" font-weight="bold" lengthAdjust="spacing" textLength="22" x="941.5" y="706.8711">11</text><text fill="#000000" font-family="sans-serif" font-size="20" lengthAdjust="spacing" textLength="99" x="967.5" y="706.8711">jobOpening</text><polygon fill="#181818" points="1833.5,748.4219,1843.5,752.4219,1833.5,756.4219,1837.5,752.4219" style="stroke:#181818;stroke-width:1.0;"/><line style="stroke:#181818;stroke-width:1.0;" x1="924.5" x2="1839.5" y1="752.4219" y2="752.4219"/><text fill="#000000" font-family="sans-serif" font-size="20" font-weight="bold" lengthAdjust="spacing" textLength="22" x="931.5" y="746.0273">12</text><text fill="#000000" font-family="sans-serif" font-size="20" lengthAdjust="spacing" textLength="277" x="957.5" y="746.0273">getApplicationsList(jobOpening)</text><polygon fill="#181818" points="2239.5,787.5781,2249.5,791.5781,2239.5,795.5781,2243.5,791.5781" style="stroke:#181818;stroke-width:1.0;"/><line style="stroke:#181818;stroke-width:1.0;" x1="1855.5" x2="2245.5" y1="791.5781" y2="791.5781"/><text fill="#000000" font-family="sans-serif" font-size="20" font-weight="bold" lengthAdjust="spacing" textLength="22" x="1862.5" y="785.1836">13</text><text fill="#000000" font-family="sans-serif" font-size="20" lengthAdjust="spacing" textLength="351" x="1888.5" y="785.1836">getApplicationsListWithInterviewResult()</text><polygon fill="#181818" points="2513,856.7344,2523,860.7344,2513,864.7344,2517,860.7344" style="stroke:#181818;stroke-width:1.0;"/><line style="stroke:#181818;stroke-width:1.0;stroke-dasharray:2.0,2.0;" x1="1855.5" x2="2519" y1="860.7344" y2="860.7344"/><text fill="#000000" font-family="sans-serif" font-size="20" font-weight="bold" lengthAdjust="spacing" textLength="22" x="1862.5" y="854.3398">14</text><text fill="#000000" font-family="sans-serif" font-size="20" lengthAdjust="spacing" textLength="267" x="1888.5" y="854.3398">convertToDTO(applicationList)</text><path d="M2409,875.7344 L2495,875.7344 L2495,892.8906 L2485,902.8906 L2409,902.8906 L2409,875.7344 " fill="#EEEEEE" style="stroke:#000000;stroke-width:1.5;"/><rect fill="none" height="106.4688" style="stroke:#000000;stroke-width:1.5;" width="367" x="2409" y="875.7344"/><text fill="#000000" font-family="sans-serif" font-size="20" font-weight="bold" lengthAdjust="spacing" textLength="41" x="2424" y="897.4961">loop</text><text fill="#000000" font-family="sans-serif" font-size="20" font-weight="bold" lengthAdjust="spacing" textLength="201" x="2510" y="898.4961">[for each application]</text><polygon fill="#181818" points="2691.5,940.2031,2701.5,944.2031,2691.5,948.2031,2695.5,944.2031" style="stroke:#181818;stroke-width:1.0;"/><line style="stroke:#181818;stroke-width:1.0;" x1="2535" x2="2697.5" y1="944.2031" y2="944.2031"/><text fill="#000000" font-family="sans-serif" font-size="20" font-weight="bold" lengthAdjust="spacing" textLength="22" x="2542" y="937.8086">15</text><text fill="#000000" font-family="sans-serif" font-size="20" lengthAdjust="spacing" textLength="73" x="2568" y="937.8086">toDTO()</text><polygon fill="#181818" points="935.5,1016.3594,925.5,1020.3594,935.5,1024.3594,931.5,1020.3594" style="stroke:#181818;stroke-width:1.0;"/><line style="stroke:#181818;stroke-width:1.0;stroke-dasharray:2.0,2.0;" x1="929.5" x2="1849.5" y1="1020.3594" y2="1020.3594"/><text fill="#000000" font-family="sans-serif" font-size="20" font-weight="bold" lengthAdjust="spacing" textLength="22" x="941.5" y="1013.9648">16</text><text fill="#000000" font-family="sans-serif" font-size="20" lengthAdjust="spacing" textLength="176" x="967.5" y="1013.9648">applicationsListDTO</text><polygon fill="#181818" points="2903,1055.5156,2913,1059.5156,2903,1063.5156,2907,1059.5156" style="stroke:#181818;stroke-width:1.0;"/><line style="stroke:#181818;stroke-width:1.0;" x1="924.5" x2="2909" y1="1059.5156" y2="1059.5156"/><text fill="#000000" font-family="sans-serif" font-size="20" font-weight="bold" lengthAdjust="spacing" textLength="22" x="931.5" y="1053.1211">17</text><text fill="#000000" font-family="sans-serif" font-size="20" lengthAdjust="spacing" textLength="348" x="957.5" y="1053.1211">getCandidatesList(applicationsListDTO)</text><polygon fill="#181818" points="3306,1094.6719,3316,1098.6719,3306,1102.6719,3310,1098.6719" style="stroke:#181818;stroke-width:1.0;"/><line style="stroke:#181818;stroke-width:1.0;" x1="2925" x2="3312" y1="1098.6719" y2="1098.6719"/><text fill="#000000" font-family="sans-serif" font-size="20" font-weight="bold" lengthAdjust="spacing" textLength="22" x="2932" y="1092.2773">18</text><text fill="#000000" font-family="sans-serif" font-size="20" lengthAdjust="spacing" textLength="348" x="2958" y="1092.2773">getCandidatesList(applicationsListDTO)</text><polygon fill="#181818" points="3526,1163.8281,3536,1167.8281,3526,1171.8281,3530,1167.8281" style="stroke:#181818;stroke-width:1.0;"/><line style="stroke:#181818;stroke-width:1.0;stroke-dasharray:2.0,2.0;" x1="2925" x2="3532" y1="1167.8281" y2="1167.8281"/><text fill="#000000" font-family="sans-serif" font-size="20" font-weight="bold" lengthAdjust="spacing" textLength="22" x="2932" y="1161.4336">19</text><text fill="#000000" font-family="sans-serif" font-size="20" lengthAdjust="spacing" textLength="259" x="2958" y="1161.4336">convertToDTO(candidateList)</text><path d="M3425,1182.8281 L3511,1182.8281 L3511,1199.9844 L3501,1209.9844 L3425,1209.9844 L3425,1182.8281 " fill="#EEEEEE" style="stroke:#000000;stroke-width:1.5;"/><rect fill="none" height="106.4688" style="stroke:#000000;stroke-width:1.5;" width="355" x="3425" y="1182.8281"/><text fill="#000000" font-family="sans-serif" font-size="20" font-weight="bold" lengthAdjust="spacing" textLength="41" x="3440" y="1204.5898">loop</text><text fill="#000000" font-family="sans-serif" font-size="20" font-weight="bold" lengthAdjust="spacing" textLength="190" x="3526" y="1205.5898">[for each candidate]</text><polygon fill="#181818" points="3698.5,1247.2969,3708.5,1251.2969,3698.5,1255.2969,3702.5,1251.2969" style="stroke:#181818;stroke-width:1.0;"/><line style="stroke:#181818;stroke-width:1.0;" x1="3548" x2="3704.5" y1="1251.2969" y2="1251.2969"/><text fill="#000000" font-family="sans-serif" font-size="20" font-weight="bold" lengthAdjust="spacing" textLength="22" x="3555" y="1244.9023">20</text><text fill="#000000" font-family="sans-serif" font-size="20" lengthAdjust="spacing" textLength="73" x="3581" y="1244.9023">toDTO()</text><polygon fill="#181818" points="935.5,1323.4531,925.5,1327.4531,935.5,1331.4531,931.5,1327.4531" style="stroke:#181818;stroke-width:1.0;"/><line style="stroke:#181818;stroke-width:1.0;stroke-dasharray:2.0,2.0;" x1="929.5" x2="2919" y1="1327.4531" y2="1327.4531"/><text fill="#000000" font-family="sans-serif" font-size="20" font-weight="bold" lengthAdjust="spacing" textLength="22" x="941.5" y="1321.0586">21</text><text fill="#000000" font-family="sans-serif" font-size="20" lengthAdjust="spacing" textLength="168" x="967.5" y="1321.0586">candidatesListDTO</text><polygon fill="#181818" points="572.5,1362.6094,562.5,1366.6094,572.5,1370.6094,568.5,1366.6094" style="stroke:#181818;stroke-width:1.0;"/><line style="stroke:#181818;stroke-width:1.0;stroke-dasharray:2.0,2.0;" x1="566.5" x2="918.5" y1="1366.6094" y2="1366.6094"/><text fill="#000000" font-family="sans-serif" font-size="20" font-weight="bold" lengthAdjust="spacing" textLength="22" x="578.5" y="1360.2148">22</text><text fill="#000000" font-family="sans-serif" font-size="20" lengthAdjust="spacing" textLength="168" x="604.5" y="1360.2148">candidatesListDTO</text><polygon fill="#181818" points="103.5,1426.9219,93.5,1430.9219,103.5,1434.9219,99.5,1430.9219" style="stroke:#181818;stroke-width:1.0;"/><line style="stroke:#181818;stroke-width:1.0;stroke-dasharray:2.0,2.0;" x1="97.5" x2="555.5" y1="1430.9219" y2="1430.9219"/><text fill="#000000" font-family="sans-serif" font-size="20" font-weight="bold" lengthAdjust="spacing" textLength="22" x="109.5" y="1411.9492">23</text><text fill="#000000" font-family="sans-serif" font-size="20" lengthAdjust="spacing" textLength="404" x="135.5" y="1399.3711">shows the candidates list in descending order,</text><text fill="#000000" font-family="sans-serif" font-size="20" lengthAdjust="spacing" textLength="328" x="141.5" y="1424.5273">accordingly to the job interview points</text><!--SRC=[lLTDRnCn4BtlhnZrGec8r78ZGf6g5DH0ew8a5GVAmVLE4ZSRUx6TLkNNCzxDVjZhRGe7SbfvFjwRv_7OCLiXSwRPBbDyYocak6Bxp7vMqYx4RuJtPqbYAX_OAQduHgiTWjLxR5bonhTiZGlxd25ev9R9TTPsC1kMgYSXrx1YcS4aiSAIw-tY_Epy0opmrnubHxWKR4tkISBsLidzxXurVNEhD9nCziOIj8OPauIbJu0PcCmI0h22Yvn92oSVF-OQ3KhBh51oFBwJesjXx8J9LAJCehcT5d6tqp2EvNacU5_OX1JHAiigsENyEaoWCLT64DNd8lwBkh_9KLB9yzfGnCOCOIw3-b5m31ALXU-ekaLfh_8rXlz5wg9HAywA75xDgfMiGGy8HdrUoV1oUHDGEwo4yQdQCI73y13_9TIwO-AgHCn7jAaZ0ZqYww_Y5MX1wyUrg8DzvE9aYaVwSiSmcSnWEAQ31IFosXgm2jPeWKbGEaLDqoMZ8mLg1NQ3mEkZrMIXGvbGF6Lnvsime4nS8rbEtxOD8vUtQLXtKCcXuUBEPWBqqxW2zKWJerXoAuF13rey_pcYv9CDyYsjcCFm6QRby1bIzk63kX-gChyP38fO8GlYAvLHDHHdaNnJvC9GJrHEA5C7M-8xM1XMeZnuZ4drqYd5WBahr5KwevXKc3nZpwP0fWHGSI9PquFCPDdJLiET9CKDPZHzGKdFFMc1E95RMrK6T03wDgNGldKMJA5-KngL5TsAKegnFwmWsCamZmkiS_bZhh3voShidIdsjo3TCLXXTLCF8nKrwSFjVJ5vkv23riUIjUNmHFPcBnpRia02Vt0NDZzV2T0Tnd6Wxy9kfjAwaODFSpJqkZZj8aP6Ur1lt2dAhoHu66l42hYID0NiKj7QQUkUT_owNAfvM1WofN8wyXg8oGPQiHLm1UEhGgYsGEilzOK2wqdYq9E8eqUnM_sXULYm5MxaT7E5c_rcSlLfyXMMLzC5VBkOB_tMYbnWvRutJwMYlIBOWHIngx24Ya2qaSEE-tVa_cwBkVIJAzdrDLnzqpNj5jBnzhFRTdM6sjw2QqiJj5sywjeKgxSs-ktNTUzGxbMcR4RkxLBLYdqqUaPRTMd5atLkKkygDHlrP8AdH_aYeOizHSEfOlV_f7YilBkJf1odRrhAdjrRfheWHJNC85VqRSAxjSs2NaN97m00]--></g></svg>