<?xml version="1.0" encoding="us-ascii" standalone="no"?><svg xmlns="http://www.w3.org/2000/svg" xmlns:xlink="http://www.w3.org/1999/xlink" contentStyleType="text/css" height="712.8px" preserveAspectRatio="none" style="width:545px;height:712px;background:#FFFFFF;" version="1.1" viewBox="0 0 545 712" width="545.6px" zoomAndPan="magnify"><defs/><g><rect fill="#FFFFFF" height="557.4563" style="stroke:#181818;stroke-width:0.8000000000000002;" width="8" x="45.2" y="74.8969"/><rect fill="#FFFFFF" height="25.0328" style="stroke:#181818;stroke-width:0.8000000000000002;" width="8" x="364.4" y="93.5297"/><rect fill="#FFFFFF" height="66.0656" style="stroke:#181818;stroke-width:0.8000000000000002;" width="8" x="364.4" y="143.5953"/><rect fill="#FFFFFF" height="46.0656" style="stroke:#181818;stroke-width:0.8000000000000002;" width="8" x="364.4" y="234.6938"/><rect fill="#FFFFFF" height="79.8984" style="stroke:#181818;stroke-width:0.8000000000000002;" width="8" x="364.4" y="305.7922"/><rect fill="#FFFFFF" height="25.0328" style="stroke:#181818;stroke-width:0.8000000000000002;" width="8" x="364.4" y="410.7234"/><rect fill="#FFFFFF" height="25.0328" style="stroke:#181818;stroke-width:0.8000000000000002;" width="8" x="364.4" y="460.7891"/><rect fill="#FFFFFF" height="95.8984" style="stroke:#181818;stroke-width:0.8000000000000002;" width="8" x="364.4" y="536.4547"/><rect fill="none" height="356.6266" style="stroke:#000000;stroke-width:1.2000000000000002;" width="533.2" x="8" y="155.5953"/><rect fill="none" height="114.7641" style="stroke:#000000;stroke-width:1.2000000000000002;" width="517.2" x="16" y="246.6938"/><line style="stroke:#181818;stroke-width:0.4000000000000001;stroke-dasharray:5.0,5.0;" x1="48.8" x2="48.8" y1="66.8969" y2="646.7531"/><line style="stroke:#181818;stroke-width:0.4000000000000001;stroke-dasharray:5.0,5.0;" x1="368.4" x2="368.4" y1="66.8969" y2="646.7531"/><text fill="#000000" font-family="sans-serif" font-size="11.2" lengthAdjust="spacing" textLength="45.6" x="24" y="64.0859">Operator</text><ellipse cx="49.2" cy="10.8" fill="#E2E2F0" rx="6.4" ry="6.4" style="stroke:#181818;stroke-width:0.4000000000000001;"/><path d="M49.2,17.2 L49.2,38.8 M38.8,23.6 L59.6,23.6 M49.2,38.8 L38.8,50.8 M49.2,38.8 L59.6,50.8 " fill="none" style="stroke:#181818;stroke-width:0.4000000000000001;"/><text fill="#000000" font-family="sans-serif" font-size="11.2" lengthAdjust="spacing" textLength="45.6" x="24" y="658.0391">Operator</text><ellipse cx="49.2" cy="667.65" fill="#E2E2F0" rx="6.4" ry="6.4" style="stroke:#181818;stroke-width:0.4000000000000001;"/><path d="M49.2,674.05 L49.2,695.65 M38.8,680.45 L59.6,680.45 M49.2,695.65 L38.8,707.65 M49.2,695.65 L59.6,707.65 " fill="none" style="stroke:#181818;stroke-width:0.4000000000000001;"/><rect fill="#E2E2F0" height="26.0969" rx="2" ry="2" style="stroke:#181818;stroke-width:0.4000000000000001;" width="48" x="344.4" y="40"/><text fill="#000000" font-family="sans-serif" font-size="11.2" lengthAdjust="spacing" textLength="36.8" x="350" y="57.6859">System</text><rect fill="#E2E2F0" height="26.0969" rx="2" ry="2" style="stroke:#181818;stroke-width:0.4000000000000001;" width="48" x="344.4" y="645.9531"/><text fill="#000000" font-family="sans-serif" font-size="11.2" lengthAdjust="spacing" textLength="36.8" x="350" y="663.6391">System</text><rect fill="#FFFFFF" height="557.4563" style="stroke:#181818;stroke-width:0.8000000000000002;" width="8" x="45.2" y="74.8969"/><rect fill="#FFFFFF" height="25.0328" style="stroke:#181818;stroke-width:0.8000000000000002;" width="8" x="364.4" y="93.5297"/><rect fill="#FFFFFF" height="66.0656" style="stroke:#181818;stroke-width:0.8000000000000002;" width="8" x="364.4" y="143.5953"/><rect fill="#FFFFFF" height="46.0656" style="stroke:#181818;stroke-width:0.8000000000000002;" width="8" x="364.4" y="234.6938"/><rect fill="#FFFFFF" height="79.8984" style="stroke:#181818;stroke-width:0.8000000000000002;" width="8" x="364.4" y="305.7922"/><rect fill="#FFFFFF" height="25.0328" style="stroke:#181818;stroke-width:0.8000000000000002;" width="8" x="364.4" y="410.7234"/><rect fill="#FFFFFF" height="25.0328" style="stroke:#181818;stroke-width:0.8000000000000002;" width="8" x="364.4" y="460.7891"/><rect fill="#FFFFFF" height="95.8984" style="stroke:#181818;stroke-width:0.8000000000000002;" width="8" x="364.4" y="536.4547"/><polygon fill="#181818" points="354.8,90.3297,362.8,93.5297,354.8,96.7297,358,93.5297" style="stroke:#181818;stroke-width:0.8000000000000002;"/><line style="stroke:#181818;stroke-width:0.8000000000000002;" x1="53.2" x2="359.6" y1="93.5297" y2="93.5297"/><text fill="#000000" font-family="sans-serif" font-size="10.4" font-weight="bold" lengthAdjust="spacing" textLength="5.6" x="58.8" y="89.3195">1</text><text fill="#000000" font-family="sans-serif" font-size="10.4" lengthAdjust="spacing" textLength="197.6" x="67.6" y="89.3195">asks to generate a new interview model file</text><polygon fill="#181818" points="62,115.3625,54,118.5625,62,121.7625,58.8,118.5625" style="stroke:#181818;stroke-width:0.8000000000000002;"/><line style="stroke:#181818;stroke-width:0.8000000000000002;stroke-dasharray:2.0,2.0;" x1="57.2" x2="367.6" y1="118.5625" y2="118.5625"/><text fill="#000000" font-family="sans-serif" font-size="10.4" font-weight="bold" lengthAdjust="spacing" textLength="5.6" x="66.8" y="114.3523">2</text><text fill="#000000" font-family="sans-serif" font-size="10.4" lengthAdjust="spacing" textLength="124.8" x="75.6" y="114.3523">asks for template file name</text><polygon fill="#181818" points="354.8,140.3953,362.8,143.5953,354.8,146.7953,358,143.5953" style="stroke:#181818;stroke-width:0.8000000000000002;"/><line style="stroke:#181818;stroke-width:0.8000000000000002;" x1="53.2" x2="359.6" y1="143.5953" y2="143.5953"/><text fill="#000000" font-family="sans-serif" font-size="10.4" font-weight="bold" lengthAdjust="spacing" textLength="5.6" x="58.8" y="139.3852">3</text><text fill="#000000" font-family="sans-serif" font-size="10.4" lengthAdjust="spacing" textLength="89.6" x="67.6" y="139.3852">writes the file name</text><path d="M8,155.5953 L66.4,155.5953 L66.4,163.0281 L58.4,171.0281 L8,171.0281 L8,155.5953 " fill="#EEEEEE" style="stroke:#000000;stroke-width:1.2000000000000002;"/><rect fill="none" height="356.6266" style="stroke:#000000;stroke-width:1.2000000000000002;" width="533.2" x="8" y="155.5953"/><text fill="#000000" font-family="sans-serif" font-size="10.4" font-weight="bold" lengthAdjust="spacing" textLength="22.4" x="20" y="167.618">loop</text><text fill="#000000" font-family="sans-serif" font-size="8.8" font-weight="bold" lengthAdjust="spacing" textLength="95.2" x="78.4" y="166.6914">[Until the user wants]</text><polygon fill="#181818" points="62,206.4609,54,209.6609,62,212.8609,58.8,209.6609" style="stroke:#181818;stroke-width:0.8000000000000002;"/><line style="stroke:#181818;stroke-width:0.8000000000000002;stroke-dasharray:2.0,2.0;" x1="57.2" x2="367.6" y1="209.6609" y2="209.6609"/><text fill="#000000" font-family="sans-serif" font-size="10.4" font-weight="bold" lengthAdjust="spacing" textLength="5.6" x="66.8" y="205.4508">4</text><text fill="#000000" font-family="sans-serif" font-size="10.4" lengthAdjust="spacing" textLength="280" x="75.6" y="205.4508">presents the questions type list and asks to select an option</text><polygon fill="#181818" points="354.8,231.4938,362.8,234.6938,354.8,237.8938,358,234.6938" style="stroke:#181818;stroke-width:0.8000000000000002;"/><line style="stroke:#181818;stroke-width:0.8000000000000002;" x1="53.2" x2="359.6" y1="234.6938" y2="234.6938"/><text fill="#000000" font-family="sans-serif" font-size="10.4" font-weight="bold" lengthAdjust="spacing" textLength="5.6" x="58.8" y="230.4836">5</text><text fill="#000000" font-family="sans-serif" font-size="10.4" lengthAdjust="spacing" textLength="116.8" x="67.6" y="230.4836">selects the question type</text><path d="M16,246.6938 L64.8,246.6938 L64.8,254.1266 L56.8,262.1266 L16,262.1266 L16,246.6938 " fill="#EEEEEE" style="stroke:#000000;stroke-width:1.2000000000000002;"/><rect fill="none" height="114.7641" style="stroke:#000000;stroke-width:1.2000000000000002;" width="517.2" x="16" y="246.6938"/><text fill="#000000" font-family="sans-serif" font-size="10.4" font-weight="bold" lengthAdjust="spacing" textLength="12.8" x="28" y="258.7164">alt</text><text fill="#000000" font-family="sans-serif" font-size="8.8" font-weight="bold" lengthAdjust="spacing" textLength="88.8" x="76.8" y="257.7898">[New question type]</text><polygon fill="#181818" points="62,277.5594,54,280.7594,62,283.9594,58.8,280.7594" style="stroke:#181818;stroke-width:0.8000000000000002;"/><line style="stroke:#181818;stroke-width:0.8000000000000002;stroke-dasharray:2.0,2.0;" x1="57.2" x2="367.6" y1="280.7594" y2="280.7594"/><text fill="#000000" font-family="sans-serif" font-size="10.4" font-weight="bold" lengthAdjust="spacing" textLength="5.6" x="66.8" y="276.5492">6</text><text fill="#000000" font-family="sans-serif" font-size="10.4" lengthAdjust="spacing" textLength="184.8" x="75.6" y="276.5492">asks to introduce the new question type</text><polygon fill="#181818" points="354.8,302.5922,362.8,305.7922,354.8,308.9922,358,305.7922" style="stroke:#181818;stroke-width:0.8000000000000002;"/><line style="stroke:#181818;stroke-width:0.8000000000000002;" x1="53.2" x2="359.6" y1="305.7922" y2="305.7922"/><text fill="#000000" font-family="sans-serif" font-size="10.4" font-weight="bold" lengthAdjust="spacing" textLength="5.6" x="58.8" y="301.582">7</text><text fill="#000000" font-family="sans-serif" font-size="10.4" lengthAdjust="spacing" textLength="116" x="67.6" y="301.582">defines the question type</text><line style="stroke:#181818;stroke-width:0.8000000000000002;stroke-dasharray:2.0,2.0;" x1="372.4" x2="406" y1="344.6578" y2="344.6578"/><line style="stroke:#181818;stroke-width:0.8000000000000002;stroke-dasharray:2.0,2.0;" x1="406" x2="406" y1="344.6578" y2="355.0578"/><line style="stroke:#181818;stroke-width:0.8000000000000002;stroke-dasharray:2.0,2.0;" x1="373.2" x2="406" y1="355.0578" y2="355.0578"/><polygon fill="#181818" points="381.2,351.8578,373.2,355.0578,381.2,358.2578,378,355.0578" style="stroke:#181818;stroke-width:0.8000000000000002;"/><text fill="#000000" font-family="sans-serif" font-size="10.4" font-weight="bold" lengthAdjust="spacing" textLength="5.6" x="378" y="333.5313">8</text><text fill="#000000" font-family="sans-serif" font-size="10.4" lengthAdjust="spacing" textLength="121.6" x="386.8" y="326.6148">registers the new question</text><text fill="#000000" font-family="sans-serif" font-size="10.4" lengthAdjust="spacing" textLength="136.8" x="386.8" y="340.4477">type in the questions type list</text><polygon fill="#181818" points="62,382.4906,54,385.6906,62,388.8906,58.8,385.6906" style="stroke:#181818;stroke-width:0.8000000000000002;"/><line style="stroke:#181818;stroke-width:0.8000000000000002;stroke-dasharray:2.0,2.0;" x1="57.2" x2="367.6" y1="385.6906" y2="385.6906"/><text fill="#000000" font-family="sans-serif" font-size="10.4" font-weight="bold" lengthAdjust="spacing" textLength="5.6" x="66.8" y="381.4805">9</text><text fill="#000000" font-family="sans-serif" font-size="10.4" lengthAdjust="spacing" textLength="124.8" x="75.6" y="381.4805">asks to define the question</text><polygon fill="#181818" points="354.8,407.5234,362.8,410.7234,354.8,413.9234,358,410.7234" style="stroke:#181818;stroke-width:0.8000000000000002;"/><line style="stroke:#181818;stroke-width:0.8000000000000002;" x1="53.2" x2="359.6" y1="410.7234" y2="410.7234"/><text fill="#000000" font-family="sans-serif" font-size="10.4" font-weight="bold" lengthAdjust="spacing" textLength="11.2" x="58.8" y="406.5133">10</text><text fill="#000000" font-family="sans-serif" font-size="10.4" lengthAdjust="spacing" textLength="92.8" x="73.2" y="406.5133">defines the question</text><polygon fill="#181818" points="62,432.5563,54,435.7563,62,438.9563,58.8,435.7563" style="stroke:#181818;stroke-width:0.8000000000000002;"/><line style="stroke:#181818;stroke-width:0.8000000000000002;stroke-dasharray:2.0,2.0;" x1="57.2" x2="367.6" y1="435.7563" y2="435.7563"/><text fill="#000000" font-family="sans-serif" font-size="10.4" font-weight="bold" lengthAdjust="spacing" textLength="11.2" x="66.8" y="431.5461">11</text><text fill="#000000" font-family="sans-serif" font-size="10.4" lengthAdjust="spacing" textLength="160.8" x="81.2" y="431.5461">asks to define the question answer</text><polygon fill="#181818" points="354.8,457.5891,362.8,460.7891,354.8,463.9891,358,460.7891" style="stroke:#181818;stroke-width:0.8000000000000002;"/><line style="stroke:#181818;stroke-width:0.8000000000000002;" x1="53.2" x2="359.6" y1="460.7891" y2="460.7891"/><text fill="#000000" font-family="sans-serif" font-size="10.4" font-weight="bold" lengthAdjust="spacing" textLength="11.2" x="58.8" y="456.5789">12</text><text fill="#000000" font-family="sans-serif" font-size="10.4" lengthAdjust="spacing" textLength="86.4" x="73.2" y="456.5789">defines the answer</text><polygon fill="#181818" points="62,482.6219,54,485.8219,62,489.0219,58.8,485.8219" style="stroke:#181818;stroke-width:0.8000000000000002;"/><line style="stroke:#181818;stroke-width:0.8000000000000002;stroke-dasharray:2.0,2.0;" x1="57.2" x2="367.6" y1="485.8219" y2="485.8219"/><text fill="#000000" font-family="sans-serif" font-size="10.4" font-weight="bold" lengthAdjust="spacing" textLength="11.2" x="66.8" y="481.6117">13</text><text fill="#000000" font-family="sans-serif" font-size="10.4" lengthAdjust="spacing" textLength="277.6" x="81.2" y="481.6117">confirm that the question was successfully set within the file</text><polygon fill="#181818" points="354.8,533.2547,362.8,536.4547,354.8,539.6547,358,536.4547" style="stroke:#181818;stroke-width:0.8000000000000002;"/><line style="stroke:#181818;stroke-width:0.8000000000000002;" x1="53.2" x2="359.6" y1="536.4547" y2="536.4547"/><text fill="#000000" font-family="sans-serif" font-size="10.4" font-weight="bold" lengthAdjust="spacing" textLength="11.2" x="58.8" y="532.2445">14</text><text fill="#000000" font-family="sans-serif" font-size="10.4" lengthAdjust="spacing" textLength="100" x="73.2" y="532.2445">asks to export the file</text><line style="stroke:#181818;stroke-width:0.8000000000000002;stroke-dasharray:2.0,2.0;" x1="372.4" x2="406" y1="561.4875" y2="561.4875"/><line style="stroke:#181818;stroke-width:0.8000000000000002;stroke-dasharray:2.0,2.0;" x1="406" x2="406" y1="561.4875" y2="571.8875"/><line style="stroke:#181818;stroke-width:0.8000000000000002;stroke-dasharray:2.0,2.0;" x1="373.2" x2="406" y1="571.8875" y2="571.8875"/><polygon fill="#181818" points="381.2,568.6875,373.2,571.8875,381.2,575.0875,378,571.8875" style="stroke:#181818;stroke-width:0.8000000000000002;"/><text fill="#000000" font-family="sans-serif" font-size="10.4" font-weight="bold" lengthAdjust="spacing" textLength="11.2" x="378" y="557.2773">15</text><text fill="#000000" font-family="sans-serif" font-size="10.4" lengthAdjust="spacing" textLength="121.6" x="392.4" y="557.2773">validates file with grammar</text><line style="stroke:#181818;stroke-width:0.8000000000000002;stroke-dasharray:2.0,2.0;" x1="372.4" x2="406" y1="596.9203" y2="596.9203"/><line style="stroke:#181818;stroke-width:0.8000000000000002;stroke-dasharray:2.0,2.0;" x1="406" x2="406" y1="596.9203" y2="607.3203"/><line style="stroke:#181818;stroke-width:0.8000000000000002;stroke-dasharray:2.0,2.0;" x1="373.2" x2="406" y1="607.3203" y2="607.3203"/><polygon fill="#181818" points="381.2,604.1203,373.2,607.3203,381.2,610.5203,378,607.3203" style="stroke:#181818;stroke-width:0.8000000000000002;"/><text fill="#000000" font-family="sans-serif" font-size="10.4" font-weight="bold" lengthAdjust="spacing" textLength="11.2" x="378" y="592.7102">16</text><text fill="#000000" font-family="sans-serif" font-size="10.4" lengthAdjust="spacing" textLength="141.6" x="392.4" y="592.7102">exports the interview model file</text><polygon fill="#181818" points="58,629.1531,50,632.3531,58,635.5531,54.8,632.3531" style="stroke:#181818;stroke-width:0.8000000000000002;"/><line style="stroke:#181818;stroke-width:0.8000000000000002;stroke-dasharray:2.0,2.0;" x1="53.2" x2="367.6" y1="632.3531" y2="632.3531"/><text fill="#000000" font-family="sans-serif" font-size="10.4" font-weight="bold" lengthAdjust="spacing" textLength="11.2" x="62.8" y="628.143">17</text><text fill="#000000" font-family="sans-serif" font-size="10.4" lengthAdjust="spacing" textLength="227.2" x="77.2" y="628.143">confirms the success of the exportation of the file</text><!--SRC=[dLJ1JiCm3BtdAwpT-G4EV093cZWWSJ6jEoBI92JkogHzF4vI8DrQRSAdD7b-VhPhuy3E3lqR1QMmOHTWi_KKK4uRm0ZR9-Kni6wqHykmsHqZKv-VTY-xxACFo9I0Qli4Tm_f7ku5y1617Up99Ze214iZQCiK3bfElMl9GASDLIoPCn7S2P7GJJoTw9AmtYHCSW6BFQcMvevr_35e9b7mNZlCuSeuv-7PiZOPDqGAC4gQKPrE9wL0RAR51ueapndzEL1axQny7Js1qP41RVkRU2H3JRe2vnCkqvqhJdUrwk8q3v3v2nGDmwFKRlu4arrIrtPPLH4fxGYk7HhA4UqgzOyjwQ-jpgMbJbjQpQMssvGNsa1xAJM5U2dvrUPMQBlMeC9DgKk6_m8jbgR8dp6fQsMublwLLjsgGtwgECh4_bVEcViDOXfdEnrwyKQUInbb4yIXQIZ6RZ3cABymmwZvVUf27l0LeMdAKZFI72vl3_hoBl0VqSgcA4u7DBh5DFLvufC8s0ViUmpdqC9Rgh6yafRIB_WfMt1T_YnKc8inNMM6ywRK5x8ilm40]--></g></svg>