<?xml version="1.0" encoding="us-ascii" standalone="no"?><svg xmlns="http://www.w3.org/2000/svg" xmlns:xlink="http://www.w3.org/1999/xlink" contentStyleType="text/css" height="700px" preserveAspectRatio="none" style="width:875px;height:700px;background:#FFFFFF;" version="1.1" viewBox="0 0 875 700" width="875.2px" zoomAndPan="magnify"><defs/><g><text fill="#000000" font-family="sans-serif" font-size="11.2" font-weight="bold" lengthAdjust="spacing" textLength="108" x="378" y="20.0859">1012 Class Diagram</text><!--class GenerateInterviewTemplateFileUI--><g id="elem_GenerateInterviewTemplateFileUI"><rect codeLine="5" fill="#F1F1F1" height="78.2594" id="GenerateInterviewTemplateFileUI" rx="2" ry="2" style="stroke:#181818;stroke-width:0.4000000000000001;" width="192.8" x="389.2" y="37.2969"/><ellipse cx="401.2" cy="55.1297" fill="#ADD1B2" rx="8.8" ry="8.8" style="stroke:#181818;stroke-width:0.8000000000000002;"/><path d="M403.4125,51.8297 Q403.5375,51.6547 403.6875,51.5672 Q403.8375,51.4797 404.0125,51.4797 Q404.3125,51.4797 404.5,51.6922 Q404.6875,51.8922 404.6875,52.3797 L404.6875,53.5422 Q404.6875,54.0297 404.5,54.2422 Q404.3125,54.4547 404.0125,54.4547 Q403.7375,54.4547 403.575,54.2922 Q403.4125,54.1422 403.325,53.7297 Q403.2875,53.4422 403.1375,53.2922 Q402.875,52.9922 402.3875,52.8172 Q401.9,52.6422 401.4,52.6422 Q400.7875,52.6422 400.275,52.9047 Q399.775,53.1672 399.375,53.7672 Q398.9875,54.3672 398.9875,55.1922 L398.9875,56.0672 Q398.9875,57.0547 399.7,57.7172 Q400.4125,58.3672 401.6875,58.3672 Q402.4375,58.3672 402.9625,58.1672 Q403.275,58.0422 403.6125,57.6922 Q403.825,57.4797 403.9375,57.4172 Q404.0625,57.3547 404.225,57.3547 Q404.4875,57.3547 404.6875,57.5672 Q404.9,57.7672 404.9,58.0422 Q404.9,58.3172 404.625,58.6422 Q404.225,59.1047 403.5875,59.3672 Q402.725,59.7297 401.6875,59.7297 Q400.475,59.7297 399.5125,59.2297 Q398.725,58.8297 398.175,57.9797 Q397.625,57.1172 397.625,56.0922 L397.625,55.1672 Q397.625,54.1047 398.1125,53.1922 Q398.6125,52.2672 399.4875,51.7797 Q400.3625,51.2797 401.35,51.2797 Q401.9375,51.2797 402.45,51.4172 Q402.975,51.5422 403.4125,51.8297 Z " fill="#000000"/><text fill="#000000" font-family="sans-serif" font-size="9.6" font-style="italic" lengthAdjust="spacing" textLength="65.6" x="463.2" y="51.6563">&#171;presentation&#187;</text><text fill="#000000" font-family="sans-serif" font-size="11.2" lengthAdjust="spacing" textLength="167.2" x="412.4" y="66.1516">GenerateInterviewTemplateFileUI</text><line style="stroke:#181818;stroke-width:0.4000000000000001;" x1="390" x2="581.2" y1="72.9625" y2="72.9625"/><line style="stroke:#181818;stroke-width:0.4000000000000001;" x1="390" x2="581.2" y1="79.3625" y2="79.3625"/><ellipse cx="398" cy="91.2109" fill="#84BE84" rx="2.4" ry="2.4" style="stroke:#038048;stroke-width:0.8000000000000002;"/><text fill="#000000" font-family="sans-serif" font-size="11.2" lengthAdjust="spacing" textLength="48" x="405.2" y="94.6484">doShow()</text><ellipse cx="398" cy="106.1078" fill="#84BE84" rx="2.4" ry="2.4" style="stroke:#038048;stroke-width:0.8000000000000002;"/><text fill="#000000" font-family="sans-serif" font-size="11.2" lengthAdjust="spacing" textLength="83.2" x="405.2" y="109.5453">newOptionText()</text></g><!--class GenerateInterviewTemplateFileController--><g id="elem_GenerateInterviewTemplateFileController"><rect codeLine="10" fill="#F1F1F1" height="137.8469" id="GenerateInterviewTemplateFileController" rx="2" ry="2" style="stroke:#181818;stroke-width:0.4000000000000001;" width="276.8" x="347.2" y="163.6969"/><ellipse cx="379" cy="181.5297" fill="#ADD1B2" rx="8.8" ry="8.8" style="stroke:#181818;stroke-width:0.8000000000000002;"/><path d="M381.2125,178.2297 Q381.3375,178.0547 381.4875,177.9672 Q381.6375,177.8797 381.8125,177.8797 Q382.1125,177.8797 382.3,178.0922 Q382.4875,178.2922 382.4875,178.7797 L382.4875,179.9422 Q382.4875,180.4297 382.3,180.6422 Q382.1125,180.8547 381.8125,180.8547 Q381.5375,180.8547 381.375,180.6922 Q381.2125,180.5422 381.125,180.1297 Q381.0875,179.8422 380.9375,179.6922 Q380.675,179.3922 380.1875,179.2172 Q379.7,179.0422 379.2,179.0422 Q378.5875,179.0422 378.075,179.3047 Q377.575,179.5672 377.175,180.1672 Q376.7875,180.7672 376.7875,181.5922 L376.7875,182.4672 Q376.7875,183.4547 377.5,184.1172 Q378.2125,184.7672 379.4875,184.7672 Q380.2375,184.7672 380.7625,184.5672 Q381.075,184.4422 381.4125,184.0922 Q381.625,183.8797 381.7375,183.8172 Q381.8625,183.7547 382.025,183.7547 Q382.2875,183.7547 382.4875,183.9672 Q382.7,184.1672 382.7,184.4422 Q382.7,184.7172 382.425,185.0422 Q382.025,185.5047 381.3875,185.7672 Q380.525,186.1297 379.4875,186.1297 Q378.275,186.1297 377.3125,185.6297 Q376.525,185.2297 375.975,184.3797 Q375.425,183.5172 375.425,182.4922 L375.425,181.5672 Q375.425,180.5047 375.9125,179.5922 Q376.4125,178.6672 377.2875,178.1797 Q378.1625,177.6797 379.15,177.6797 Q379.7375,177.6797 380.25,177.8172 Q380.775,177.9422 381.2125,178.2297 Z " fill="#000000"/><text fill="#000000" font-family="sans-serif" font-size="9.6" font-style="italic" lengthAdjust="spacing" textLength="59.2" x="468.6" y="178.0563">&#171;application&#187;</text><text fill="#000000" font-family="sans-serif" font-size="11.2" lengthAdjust="spacing" textLength="207.2" x="394.6" y="192.5516">GenerateInterviewTemplateFileController</text><line style="stroke:#181818;stroke-width:0.4000000000000001;" x1="348" x2="623.2" y1="199.3625" y2="199.3625"/><line style="stroke:#181818;stroke-width:0.4000000000000001;" x1="348" x2="623.2" y1="205.7625" y2="205.7625"/><ellipse cx="356" cy="217.6109" fill="#84BE84" rx="2.4" ry="2.4" style="stroke:#038048;stroke-width:0.8000000000000002;"/><text fill="#000000" font-family="sans-serif" font-size="11.2" lengthAdjust="spacing" textLength="40" x="363.2" y="221.0484">create()</text><ellipse cx="356" cy="232.5078" fill="#84BE84" rx="2.4" ry="2.4" style="stroke:#038048;stroke-width:0.8000000000000002;"/><text fill="#000000" font-family="sans-serif" font-size="11.2" lengthAdjust="spacing" textLength="176" x="363.2" y="235.9453">defineTemplateFileName(filename)</text><ellipse cx="356" cy="247.4047" fill="#84BE84" rx="2.4" ry="2.4" style="stroke:#038048;stroke-width:0.8000000000000002;"/><text fill="#000000" font-family="sans-serif" font-size="11.2" lengthAdjust="spacing" textLength="256" x="363.2" y="250.8422">registerQuestionType(questionTypeDenomination)</text><ellipse cx="356" cy="269.75" fill="#84BE84" rx="2.4" ry="2.4" style="stroke:#038048;stroke-width:0.8000000000000002;"/><text fill="#000000" font-family="sans-serif" font-size="11.2" lengthAdjust="spacing" textLength="231.2" x="363.2" y="265.7391">addNewQuestion(questionTypeDenomination,</text><text fill="#000000" font-family="sans-serif" font-size="11.2" lengthAdjust="spacing" textLength="164.8" x="366.4" y="280.6359">questionDescription, optionsList)</text><ellipse cx="356" cy="292.0953" fill="#84BE84" rx="2.4" ry="2.4" style="stroke:#038048;stroke-width:0.8000000000000002;"/><text fill="#000000" font-family="sans-serif" font-size="11.2" lengthAdjust="spacing" textLength="104.8" x="363.2" y="295.5328">exportTemplateFile()</text></g><!--class InterviewTemplateManagerService--><g id="elem_InterviewTemplateManagerService"><rect codeLine="19" fill="#F1F1F1" height="108.0531" id="InterviewTemplateManagerService" rx="2" ry="2" style="stroke:#181818;stroke-width:0.4000000000000001;" width="244" x="363.6" y="349.2969"/><ellipse cx="395.76" cy="367.1297" fill="#ADD1B2" rx="8.8" ry="8.8" style="stroke:#181818;stroke-width:0.8000000000000002;"/><path d="M397.9725,363.8297 Q398.0975,363.6547 398.2475,363.5672 Q398.3975,363.4797 398.5725,363.4797 Q398.8725,363.4797 399.06,363.6922 Q399.2475,363.8922 399.2475,364.3797 L399.2475,365.5422 Q399.2475,366.0297 399.06,366.2422 Q398.8725,366.4547 398.5725,366.4547 Q398.2975,366.4547 398.135,366.2922 Q397.9725,366.1422 397.885,365.7297 Q397.8475,365.4422 397.6975,365.2922 Q397.435,364.9922 396.9475,364.8172 Q396.46,364.6422 395.96,364.6422 Q395.3475,364.6422 394.835,364.9047 Q394.335,365.1672 393.935,365.7672 Q393.5475,366.3672 393.5475,367.1922 L393.5475,368.0672 Q393.5475,369.0547 394.26,369.7172 Q394.9725,370.3672 396.2475,370.3672 Q396.9975,370.3672 397.5225,370.1672 Q397.835,370.0422 398.1725,369.6922 Q398.385,369.4797 398.4975,369.4172 Q398.6225,369.3547 398.785,369.3547 Q399.0475,369.3547 399.2475,369.5672 Q399.46,369.7672 399.46,370.0422 Q399.46,370.3172 399.185,370.6422 Q398.785,371.1047 398.1475,371.3672 Q397.285,371.7297 396.2475,371.7297 Q395.035,371.7297 394.0725,371.2297 Q393.285,370.8297 392.735,369.9797 Q392.185,369.1172 392.185,368.0922 L392.185,367.1672 Q392.185,366.1047 392.6725,365.1922 Q393.1725,364.2672 394.0475,363.7797 Q394.9225,363.2797 395.91,363.2797 Q396.4975,363.2797 397.01,363.4172 Q397.535,363.5422 397.9725,363.8297 Z " fill="#000000"/><text fill="#000000" font-family="sans-serif" font-size="9.6" font-style="italic" lengthAdjust="spacing" textLength="42.4" x="477.04" y="363.6563">&#171;service&#187;</text><text fill="#000000" font-family="sans-serif" font-size="11.2" lengthAdjust="spacing" textLength="173.6" x="411.44" y="378.1516">InterviewTemplateManagerService</text><line style="stroke:#181818;stroke-width:0.4000000000000001;" x1="364.4" x2="606.8" y1="384.9625" y2="384.9625"/><line style="stroke:#181818;stroke-width:0.4000000000000001;" x1="364.4" x2="606.8" y1="391.3625" y2="391.3625"/><ellipse cx="372.4" cy="403.2109" fill="#84BE84" rx="2.4" ry="2.4" style="stroke:#038048;stroke-width:0.8000000000000002;"/><text fill="#000000" font-family="sans-serif" font-size="11.2" lengthAdjust="spacing" textLength="82.4" x="379.6" y="406.6484">questionTypes()</text><ellipse cx="372.4" cy="425.5563" fill="#84BE84" rx="2.4" ry="2.4" style="stroke:#038048;stroke-width:0.8000000000000002;"/><text fill="#000000" font-family="sans-serif" font-size="11.2" lengthAdjust="spacing" textLength="223.2" x="379.6" y="421.5453">createQuestion(questionTypeDenomination,</text><text fill="#000000" font-family="sans-serif" font-size="11.2" lengthAdjust="spacing" textLength="168" x="386" y="436.4422">questionDescription,  optionsList)</text><ellipse cx="372.4" cy="447.9016" fill="#84BE84" rx="2.4" ry="2.4" style="stroke:#038048;stroke-width:0.8000000000000002;"/><text fill="#000000" font-family="sans-serif" font-size="11.2" lengthAdjust="spacing" textLength="164" x="379.6" y="451.3391">generateNewTemplate(filename)</text></g><!--class InterviewTemplateEvaluatorService--><g id="elem_InterviewTemplateEvaluatorService"><rect codeLine="25" fill="#F1F1F1" height="63.3625" id="InterviewTemplateEvaluatorService" rx="2" ry="2" style="stroke:#181818;stroke-width:0.4000000000000001;" width="297.6" x="5.6" y="505.2969"/><ellipse cx="62.6" cy="523.1297" fill="#ADD1B2" rx="8.8" ry="8.8" style="stroke:#181818;stroke-width:0.8000000000000002;"/><path d="M64.8125,519.8297 Q64.9375,519.6547 65.0875,519.5672 Q65.2375,519.4797 65.4125,519.4797 Q65.7125,519.4797 65.9,519.6922 Q66.0875,519.8922 66.0875,520.3797 L66.0875,521.5422 Q66.0875,522.0297 65.9,522.2422 Q65.7125,522.4547 65.4125,522.4547 Q65.1375,522.4547 64.975,522.2922 Q64.8125,522.1422 64.725,521.7297 Q64.6875,521.4422 64.5375,521.2922 Q64.275,520.9922 63.7875,520.8172 Q63.3,520.6422 62.8,520.6422 Q62.1875,520.6422 61.675,520.9047 Q61.175,521.1672 60.775,521.7672 Q60.3875,522.3672 60.3875,523.1922 L60.3875,524.0672 Q60.3875,525.0547 61.1,525.7172 Q61.8125,526.3672 63.0875,526.3672 Q63.8375,526.3672 64.3625,526.1672 Q64.675,526.0422 65.0125,525.6922 Q65.225,525.4797 65.3375,525.4172 Q65.4625,525.3547 65.625,525.3547 Q65.8875,525.3547 66.0875,525.5672 Q66.3,525.7672 66.3,526.0422 Q66.3,526.3172 66.025,526.6422 Q65.625,527.1047 64.9875,527.3672 Q64.125,527.7297 63.0875,527.7297 Q61.875,527.7297 60.9125,527.2297 Q60.125,526.8297 59.575,525.9797 Q59.025,525.1172 59.025,524.0922 L59.025,523.1672 Q59.025,522.1047 59.5125,521.1922 Q60.0125,520.2672 60.8875,519.7797 Q61.7625,519.2797 62.75,519.2797 Q63.3375,519.2797 63.85,519.4172 Q64.375,519.5422 64.8125,519.8297 Z " fill="#000000"/><text fill="#000000" font-family="sans-serif" font-size="9.6" font-style="italic" lengthAdjust="spacing" textLength="42.4" x="146.2" y="519.6563">&#171;service&#187;</text><text fill="#000000" font-family="sans-serif" font-size="11.2" lengthAdjust="spacing" textLength="176.8" x="79" y="534.1516">InterviewTemplateEvaluatorService</text><line style="stroke:#181818;stroke-width:0.4000000000000001;" x1="6.4" x2="302.4" y1="540.9625" y2="540.9625"/><line style="stroke:#181818;stroke-width:0.4000000000000001;" x1="6.4" x2="302.4" y1="547.3625" y2="547.3625"/><ellipse cx="14.4" cy="559.2109" fill="#84BE84" rx="2.4" ry="2.4" style="stroke:#038048;stroke-width:0.8000000000000002;"/><text fill="#000000" font-family="sans-serif" font-size="11.2" lengthAdjust="spacing" textLength="276.8" x="21.6" y="562.6484">evaluateWithGrammar(InterviewTemplate templateFile)</text></g><!--class QuestionType--><g id="elem_QuestionType"><rect codeLine="29" fill="#F1F1F1" height="78.2594" id="QuestionType" rx="2" ry="2" style="stroke:#181818;stroke-width:0.4000000000000001;" width="206.4" x="663.2" y="616.4969"/><ellipse cx="727.4" cy="634.3297" fill="#ADD1B2" rx="8.8" ry="8.8" style="stroke:#181818;stroke-width:0.8000000000000002;"/><path d="M729.6125,631.0297 Q729.7375,630.8547 729.8875,630.7672 Q730.0375,630.6797 730.2125,630.6797 Q730.5125,630.6797 730.7,630.8922 Q730.8875,631.0922 730.8875,631.5797 L730.8875,632.7422 Q730.8875,633.2297 730.7,633.4422 Q730.5125,633.6547 730.2125,633.6547 Q729.9375,633.6547 729.775,633.4922 Q729.6125,633.3422 729.525,632.9297 Q729.4875,632.6422 729.3375,632.4922 Q729.075,632.1922 728.5875,632.0172 Q728.1,631.8422 727.6,631.8422 Q726.9875,631.8422 726.475,632.1047 Q725.975,632.3672 725.575,632.9672 Q725.1875,633.5672 725.1875,634.3922 L725.1875,635.2672 Q725.1875,636.2547 725.9,636.9172 Q726.6125,637.5672 727.8875,637.5672 Q728.6375,637.5672 729.1625,637.3672 Q729.475,637.2422 729.8125,636.8922 Q730.025,636.6797 730.1375,636.6172 Q730.2625,636.5547 730.425,636.5547 Q730.6875,636.5547 730.8875,636.7672 Q731.1,636.9672 731.1,637.2422 Q731.1,637.5172 730.825,637.8422 Q730.425,638.3047 729.7875,638.5672 Q728.925,638.9297 727.8875,638.9297 Q726.675,638.9297 725.7125,638.4297 Q724.925,638.0297 724.375,637.1797 Q723.825,636.3172 723.825,635.2922 L723.825,634.3672 Q723.825,633.3047 724.3125,632.3922 Q724.8125,631.4672 725.6875,630.9797 Q726.5625,630.4797 727.55,630.4797 Q728.1375,630.4797 728.65,630.6172 Q729.175,630.7422 729.6125,631.0297 Z " fill="#000000"/><text fill="#000000" font-family="sans-serif" font-size="9.6" font-style="italic" lengthAdjust="spacing" textLength="44.8" x="757" y="630.8563">&#171;domain&#187;</text><text fill="#000000" font-family="sans-serif" font-size="11.2" lengthAdjust="spacing" textLength="71.2" x="743.8" y="645.3516">QuestionType</text><line style="stroke:#181818;stroke-width:0.4000000000000001;" x1="664" x2="868.8" y1="652.1625" y2="652.1625"/><line style="stroke:#181818;stroke-width:0.4000000000000001;" x1="664" x2="868.8" y1="658.5625" y2="658.5625"/><ellipse cx="672" cy="670.4109" fill="#84BE84" rx="2.4" ry="2.4" style="stroke:#038048;stroke-width:0.8000000000000002;"/><text fill="#000000" font-family="sans-serif" font-size="11.2" lengthAdjust="spacing" textLength="41.6" x="679.2" y="673.8484">toDTO()</text><ellipse cx="672" cy="685.3078" fill="#84BE84" rx="2.4" ry="2.4" style="stroke:#038048;stroke-width:0.8000000000000002;"/><text fill="#000000" font-family="sans-serif" font-size="11.2" lengthAdjust="spacing" textLength="185.6" x="679.2" y="688.7453">valueOf(questionTypeDenomination)</text></g><!--class InterviewTemplateBuilder--><g id="elem_InterviewTemplateBuilder"><rect codeLine="35" fill="#F1F1F1" height="63.3625" id="InterviewTemplateBuilder" rx="2" ry="2" style="stroke:#181818;stroke-width:0.4000000000000001;" width="152" x="331.2" y="505.2969"/><ellipse cx="343.2" cy="523.1297" fill="#ADD1B2" rx="8.8" ry="8.8" style="stroke:#181818;stroke-width:0.8000000000000002;"/><path d="M345.4125,519.8297 Q345.5375,519.6547 345.6875,519.5672 Q345.8375,519.4797 346.0125,519.4797 Q346.3125,519.4797 346.5,519.6922 Q346.6875,519.8922 346.6875,520.3797 L346.6875,521.5422 Q346.6875,522.0297 346.5,522.2422 Q346.3125,522.4547 346.0125,522.4547 Q345.7375,522.4547 345.575,522.2922 Q345.4125,522.1422 345.325,521.7297 Q345.2875,521.4422 345.1375,521.2922 Q344.875,520.9922 344.3875,520.8172 Q343.9,520.6422 343.4,520.6422 Q342.7875,520.6422 342.275,520.9047 Q341.775,521.1672 341.375,521.7672 Q340.9875,522.3672 340.9875,523.1922 L340.9875,524.0672 Q340.9875,525.0547 341.7,525.7172 Q342.4125,526.3672 343.6875,526.3672 Q344.4375,526.3672 344.9625,526.1672 Q345.275,526.0422 345.6125,525.6922 Q345.825,525.4797 345.9375,525.4172 Q346.0625,525.3547 346.225,525.3547 Q346.4875,525.3547 346.6875,525.5672 Q346.9,525.7672 346.9,526.0422 Q346.9,526.3172 346.625,526.6422 Q346.225,527.1047 345.5875,527.3672 Q344.725,527.7297 343.6875,527.7297 Q342.475,527.7297 341.5125,527.2297 Q340.725,526.8297 340.175,525.9797 Q339.625,525.1172 339.625,524.0922 L339.625,523.1672 Q339.625,522.1047 340.1125,521.1922 Q340.6125,520.2672 341.4875,519.7797 Q342.3625,519.2797 343.35,519.2797 Q343.9375,519.2797 344.45,519.4172 Q344.975,519.5422 345.4125,519.8297 Z " fill="#000000"/><text fill="#000000" font-family="sans-serif" font-size="9.6" font-style="italic" lengthAdjust="spacing" textLength="42.4" x="396.4" y="519.6563">&#171;builder&#187;</text><text fill="#000000" font-family="sans-serif" font-size="11.2" lengthAdjust="spacing" textLength="126.4" x="354.4" y="534.1516">InterviewTemplateBuilder</text><line style="stroke:#181818;stroke-width:0.4000000000000001;" x1="332" x2="482.4" y1="540.9625" y2="540.9625"/><line style="stroke:#181818;stroke-width:0.4000000000000001;" x1="332" x2="482.4" y1="547.3625" y2="547.3625"/><ellipse cx="340" cy="559.2109" fill="#84BE84" rx="2.4" ry="2.4" style="stroke:#038048;stroke-width:0.8000000000000002;"/><text fill="#000000" font-family="sans-serif" font-size="11.2" lengthAdjust="spacing" textLength="32" x="347.2" y="562.6484">build()</text></g><!--class QuestionBuilder--><g id="elem_QuestionBuilder"><rect codeLine="39" fill="#F1F1F1" height="63.3625" id="QuestionBuilder" rx="2" ry="2" style="stroke:#181818;stroke-width:0.4000000000000001;" width="106.4" x="511.6" y="505.2969"/><ellipse cx="523.6" cy="523.1297" fill="#ADD1B2" rx="8.8" ry="8.8" style="stroke:#181818;stroke-width:0.8000000000000002;"/><path d="M525.8125,519.8297 Q525.9375,519.6547 526.0875,519.5672 Q526.2375,519.4797 526.4125,519.4797 Q526.7125,519.4797 526.9,519.6922 Q527.0875,519.8922 527.0875,520.3797 L527.0875,521.5422 Q527.0875,522.0297 526.9,522.2422 Q526.7125,522.4547 526.4125,522.4547 Q526.1375,522.4547 525.975,522.2922 Q525.8125,522.1422 525.725,521.7297 Q525.6875,521.4422 525.5375,521.2922 Q525.275,520.9922 524.7875,520.8172 Q524.3,520.6422 523.8,520.6422 Q523.1875,520.6422 522.675,520.9047 Q522.175,521.1672 521.775,521.7672 Q521.3875,522.3672 521.3875,523.1922 L521.3875,524.0672 Q521.3875,525.0547 522.1,525.7172 Q522.8125,526.3672 524.0875,526.3672 Q524.8375,526.3672 525.3625,526.1672 Q525.675,526.0422 526.0125,525.6922 Q526.225,525.4797 526.3375,525.4172 Q526.4625,525.3547 526.625,525.3547 Q526.8875,525.3547 527.0875,525.5672 Q527.3,525.7672 527.3,526.0422 Q527.3,526.3172 527.025,526.6422 Q526.625,527.1047 525.9875,527.3672 Q525.125,527.7297 524.0875,527.7297 Q522.875,527.7297 521.9125,527.2297 Q521.125,526.8297 520.575,525.9797 Q520.025,525.1172 520.025,524.0922 L520.025,523.1672 Q520.025,522.1047 520.5125,521.1922 Q521.0125,520.2672 521.8875,519.7797 Q522.7625,519.2797 523.75,519.2797 Q524.3375,519.2797 524.85,519.4172 Q525.375,519.5422 525.8125,519.8297 Z " fill="#000000"/><text fill="#000000" font-family="sans-serif" font-size="9.6" font-style="italic" lengthAdjust="spacing" textLength="42.4" x="554" y="519.6563">&#171;builder&#187;</text><text fill="#000000" font-family="sans-serif" font-size="11.2" lengthAdjust="spacing" textLength="80.8" x="534.8" y="534.1516">QuestionBuilder</text><line style="stroke:#181818;stroke-width:0.4000000000000001;" x1="512.4" x2="617.2" y1="540.9625" y2="540.9625"/><line style="stroke:#181818;stroke-width:0.4000000000000001;" x1="512.4" x2="617.2" y1="547.3625" y2="547.3625"/><ellipse cx="520.4" cy="559.2109" fill="#84BE84" rx="2.4" ry="2.4" style="stroke:#038048;stroke-width:0.8000000000000002;"/><text fill="#000000" font-family="sans-serif" font-size="11.2" lengthAdjust="spacing" textLength="32" x="527.6" y="562.6484">build()</text></g><!--class Question--><g id="elem_Question"><rect codeLine="43" fill="#F1F1F1" height="78.2594" id="Question" rx="2" ry="2" style="stroke:#181818;stroke-width:0.4000000000000001;" width="212" x="422.8" y="616.4969"/><ellipse cx="502.6" cy="634.3297" fill="#ADD1B2" rx="8.8" ry="8.8" style="stroke:#181818;stroke-width:0.8000000000000002;"/><path d="M504.8125,631.0297 Q504.9375,630.8547 505.0875,630.7672 Q505.2375,630.6797 505.4125,630.6797 Q505.7125,630.6797 505.9,630.8922 Q506.0875,631.0922 506.0875,631.5797 L506.0875,632.7422 Q506.0875,633.2297 505.9,633.4422 Q505.7125,633.6547 505.4125,633.6547 Q505.1375,633.6547 504.975,633.4922 Q504.8125,633.3422 504.725,632.9297 Q504.6875,632.6422 504.5375,632.4922 Q504.275,632.1922 503.7875,632.0172 Q503.3,631.8422 502.8,631.8422 Q502.1875,631.8422 501.675,632.1047 Q501.175,632.3672 500.775,632.9672 Q500.3875,633.5672 500.3875,634.3922 L500.3875,635.2672 Q500.3875,636.2547 501.1,636.9172 Q501.8125,637.5672 503.0875,637.5672 Q503.8375,637.5672 504.3625,637.3672 Q504.675,637.2422 505.0125,636.8922 Q505.225,636.6797 505.3375,636.6172 Q505.4625,636.5547 505.625,636.5547 Q505.8875,636.5547 506.0875,636.7672 Q506.3,636.9672 506.3,637.2422 Q506.3,637.5172 506.025,637.8422 Q505.625,638.3047 504.9875,638.5672 Q504.125,638.9297 503.0875,638.9297 Q501.875,638.9297 500.9125,638.4297 Q500.125,638.0297 499.575,637.1797 Q499.025,636.3172 499.025,635.2922 L499.025,634.3672 Q499.025,633.3047 499.5125,632.3922 Q500.0125,631.4672 500.8875,630.9797 Q501.7625,630.4797 502.75,630.4797 Q503.3375,630.4797 503.85,630.6172 Q504.375,630.7422 504.8125,631.0297 Z " fill="#000000"/><text fill="#000000" font-family="sans-serif" font-size="9.6" font-style="italic" lengthAdjust="spacing" textLength="44.8" x="519.4" y="630.8563">&#171;domain&#187;</text><text fill="#000000" font-family="sans-serif" font-size="11.2" lengthAdjust="spacing" textLength="45.6" x="519" y="645.3516">Question</text><line style="stroke:#181818;stroke-width:0.4000000000000001;" x1="423.6" x2="634" y1="652.1625" y2="652.1625"/><line style="stroke:#181818;stroke-width:0.4000000000000001;" x1="423.6" x2="634" y1="658.5625" y2="658.5625"/><ellipse cx="431.6" cy="677.8594" fill="#84BE84" rx="2.4" ry="2.4" style="stroke:#038048;stroke-width:0.8000000000000002;"/><text fill="#000000" font-family="sans-serif" font-size="11.2" lengthAdjust="spacing" textLength="191.2" x="438.8" y="673.8484">Question(questionTypeDenomination,</text><text fill="#000000" font-family="sans-serif" font-size="11.2" lengthAdjust="spacing" textLength="164.8" x="442" y="688.7453">questionDescription, optionsList)</text></g><!--class InterviewTemplate--><g id="elem_InterviewTemplate"><rect codeLine="48" fill="#F1F1F1" height="63.3625" id="InterviewTemplate" rx="2" ry="2" style="stroke:#181818;stroke-width:0.4000000000000001;" width="261.6" x="133.2" y="624.0969"/><ellipse cx="215" cy="641.9297" fill="#ADD1B2" rx="8.8" ry="8.8" style="stroke:#181818;stroke-width:0.8000000000000002;"/><path d="M217.2125,638.6297 Q217.3375,638.4547 217.4875,638.3672 Q217.6375,638.2797 217.8125,638.2797 Q218.1125,638.2797 218.3,638.4922 Q218.4875,638.6922 218.4875,639.1797 L218.4875,640.3422 Q218.4875,640.8297 218.3,641.0422 Q218.1125,641.2547 217.8125,641.2547 Q217.5375,641.2547 217.375,641.0922 Q217.2125,640.9422 217.125,640.5297 Q217.0875,640.2422 216.9375,640.0922 Q216.675,639.7922 216.1875,639.6172 Q215.7,639.4422 215.2,639.4422 Q214.5875,639.4422 214.075,639.7047 Q213.575,639.9672 213.175,640.5672 Q212.7875,641.1672 212.7875,641.9922 L212.7875,642.8672 Q212.7875,643.8547 213.5,644.5172 Q214.2125,645.1672 215.4875,645.1672 Q216.2375,645.1672 216.7625,644.9672 Q217.075,644.8422 217.4125,644.4922 Q217.625,644.2797 217.7375,644.2172 Q217.8625,644.1547 218.025,644.1547 Q218.2875,644.1547 218.4875,644.3672 Q218.7,644.5672 218.7,644.8422 Q218.7,645.1172 218.425,645.4422 Q218.025,645.9047 217.3875,646.1672 Q216.525,646.5297 215.4875,646.5297 Q214.275,646.5297 213.3125,646.0297 Q212.525,645.6297 211.975,644.7797 Q211.425,643.9172 211.425,642.8922 L211.425,641.9672 Q211.425,640.9047 211.9125,639.9922 Q212.4125,639.0672 213.2875,638.5797 Q214.1625,638.0797 215.15,638.0797 Q215.7375,638.0797 216.25,638.2172 Q216.775,638.3422 217.2125,638.6297 Z " fill="#000000"/><text fill="#000000" font-family="sans-serif" font-size="9.6" font-style="italic" lengthAdjust="spacing" textLength="44.8" x="254.6" y="638.4563">&#171;domain&#187;</text><text fill="#000000" font-family="sans-serif" font-size="11.2" lengthAdjust="spacing" textLength="91.2" x="231.4" y="652.9516">InterviewTemplate</text><line style="stroke:#181818;stroke-width:0.4000000000000001;" x1="134" x2="394" y1="659.7625" y2="659.7625"/><line style="stroke:#181818;stroke-width:0.4000000000000001;" x1="134" x2="394" y1="666.1625" y2="666.1625"/><ellipse cx="142" cy="678.0109" fill="#84BE84" rx="2.4" ry="2.4" style="stroke:#038048;stroke-width:0.8000000000000002;"/><text fill="#000000" font-family="sans-serif" font-size="11.2" lengthAdjust="spacing" textLength="240.8" x="149.2" y="681.4484">RequirementsTemplate(filename, questionsList)</text></g><!--link GenerateInterviewTemplateFileUI to GenerateInterviewTemplateFileController--><g id="link_GenerateInterviewTemplateFileUI_GenerateInterviewTemplateFileController"><path codeLine="54" d="M485.6,115.8569 C485.6,130.3289 485.6,142.4409 485.6,158.8009 " fill="none" id="GenerateInterviewTemplateFileUI-to-GenerateInterviewTemplateFileController" style="stroke:#181818;stroke-width:0.8000000000000002;stroke-dasharray:7.0,7.0;"/><polygon fill="#181818" points="485.6,163.6009,488.8,156.4009,485.6,159.6009,482.4,156.4009,485.6,163.6009" style="stroke:#181818;stroke-width:0.8000000000000002;"/></g><!--link GenerateInterviewTemplateFileController to InterviewTemplateManagerService--><g id="link_GenerateInterviewTemplateFileController_InterviewTemplateManagerService"><path codeLine="55" d="M485.6,301.3849 C485.6,317.2729 485.6,329.1689 485.6,344.3129 " fill="none" id="GenerateInterviewTemplateFileController-to-InterviewTemplateManagerService" style="stroke:#181818;stroke-width:0.8000000000000002;stroke-dasharray:7.0,7.0;"/><polygon fill="#181818" points="485.6,349.1129,488.8,341.9129,485.6,345.1129,482.4,341.9129,485.6,349.1129" style="stroke:#181818;stroke-width:0.8000000000000002;"/></g><!--link InterviewTemplateManagerService to InterviewTemplateEvaluatorService--><g id="link_InterviewTemplateManagerService_InterviewTemplateEvaluatorService"><path codeLine="56" d="M363.448,452.7769 C319.384,470.3369 275.371,487.888 236.203,503.496 " fill="none" id="InterviewTemplateManagerService-to-InterviewTemplateEvaluatorService" style="stroke:#181818;stroke-width:0.8000000000000002;stroke-dasharray:7.0,7.0;"/><polygon fill="#181818" points="231.744,505.2729,239.6171,505.5803,235.4598,503.7922,237.2479,499.6349,231.744,505.2729" style="stroke:#181818;stroke-width:0.8000000000000002;"/></g><!--link InterviewTemplateManagerService to QuestionType--><g id="link_InterviewTemplateManagerService_QuestionType"><path codeLine="58" d="M569.824,457.3289 C590.864,471.9529 612.864,488.4569 632,505.2969 C671.048,539.6729 707.1284,580.9979 733.0164,612.6379 " fill="none" id="InterviewTemplateManagerService-to-QuestionType" style="stroke:#181818;stroke-width:0.8000000000000002;stroke-dasharray:7.0,7.0;"/><polygon fill="#181818" points="736.056,616.3529,733.9732,608.7541,733.523,613.2571,729.02,612.8068,736.056,616.3529" style="stroke:#181818;stroke-width:0.8000000000000002;"/></g><!--link InterviewTemplateManagerService to QuestionBuilder--><g id="link_InterviewTemplateManagerService_QuestionBuilder"><path codeLine="59" d="M517.584,457.4089 C527.288,473.5769 535.1544,486.6849 543.6744,500.8849 " fill="none" id="InterviewTemplateManagerService-to-QuestionBuilder" style="stroke:#181818;stroke-width:0.8000000000000002;stroke-dasharray:7.0,7.0;"/><polygon fill="#181818" points="546.144,505.0009,545.1836,497.1805,544.086,501.5709,539.6957,500.4733,546.144,505.0009" style="stroke:#181818;stroke-width:0.8000000000000002;"/></g><!--link InterviewTemplateManagerService to InterviewTemplateBuilder--><g id="link_InterviewTemplateManagerService_InterviewTemplateBuilder"><path codeLine="60" d="M453.936,457.4089 C444.336,473.5769 436.5565,486.6747 428.1165,500.8747 " fill="none" id="InterviewTemplateManagerService-to-InterviewTemplateBuilder" style="stroke:#181818;stroke-width:0.8000000000000002;stroke-dasharray:7.0,7.0;"/><polygon fill="#181818" points="425.664,505.0009,432.0935,500.4466,427.7077,501.5624,426.5919,497.1766,425.664,505.0009" style="stroke:#181818;stroke-width:0.8000000000000002;"/></g><!--link InterviewTemplateEvaluatorService to InterviewTemplate--><g id="link_InterviewTemplateEvaluatorService_InterviewTemplate"><path codeLine="61" d="M183.48,568.7929 C199.464,585.8889 215.9373,603.5031 231.8813,620.5511 " fill="none" id="InterviewTemplateEvaluatorService-to-InterviewTemplate" style="stroke:#181818;stroke-width:0.8000000000000002;stroke-dasharray:7.0,7.0;"/><polygon fill="#181818" points="235.16,624.0569,232.5791,616.6125,232.4277,621.1354,227.9048,620.9841,235.16,624.0569" style="stroke:#181818;stroke-width:0.8000000000000002;"/></g><!--link InterviewTemplateBuilder to InterviewTemplate--><g id="link_InterviewTemplateBuilder_InterviewTemplate"><path codeLine="63" d="M369.2,568.7929 C348.32,585.8889 326.2267,603.9689 305.3947,621.0169 " fill="none" id="InterviewTemplateBuilder-to-InterviewTemplate" style="stroke:#181818;stroke-width:0.8000000000000002;"/><polygon fill="#181818" points="301.68,624.0569,309.2786,621.9734,304.7756,621.5236,305.2254,617.0205,301.68,624.0569" style="stroke:#181818;stroke-width:0.8000000000000002;"/></g><!--link QuestionBuilder to Question--><g id="link_QuestionBuilder_Question"><path codeLine="64" d="M555.248,568.7929 C550.768,583.3769 546.7914,596.3079 542.0634,611.7239 " fill="none" id="QuestionBuilder-to-Question" style="stroke:#181818;stroke-width:0.8000000000000002;"/><polygon fill="#181818" points="540.656,616.3129,545.8265,610.3676,541.8289,612.4887,539.7078,608.4911,540.656,616.3129" style="stroke:#181818;stroke-width:0.8000000000000002;"/></g><!--link Question to QuestionType--><g id="link_Question_QuestionType"><path codeLine="65" d="M634.84,655.6969 C644.264,655.6969 648.88,655.6969 658.304,655.6969 " fill="none" id="Question-to-QuestionType" style="stroke:#181818;stroke-width:0.8000000000000002;"/><polygon fill="#181818" points="663.104,655.6969,655.904,652.4969,659.104,655.6969,655.904,658.8969,663.104,655.6969" style="stroke:#181818;stroke-width:0.8000000000000002;"/></g><!--link InterviewTemplate to Question--><g id="link_InterviewTemplate_Question"><path codeLine="66" d="M394.848,655.6969 C404.096,655.6969 408.536,655.6969 417.784,655.6969 " fill="none" id="InterviewTemplate-to-Question" style="stroke:#181818;stroke-width:0.8000000000000002;"/><polygon fill="#181818" points="422.584,655.6969,415.384,652.4969,418.584,655.6969,415.384,658.8969,422.584,655.6969" style="stroke:#181818;stroke-width:0.8000000000000002;"/></g><!--SRC=[hLHDJ-Cm4BtdL_X6q3Ojx765AW45X0IjTYdYmiKaqzIIFu8zeI34Vr_RIS1AqZQizfI9P-RDc-SP7wmH2_DhCYaubLWAFawLcAIS6fDaZEQQYYX2XXp8yT7nJtBkF6JMU7mWkG89cY9SImJzmc2p167n42uPX_jhSd9IQ30WaI9JSZebv3twGJ9rjrQR-D2Q4ZQBmlcMy8hsv6CGyhcIg1Nde6q5MXISfKq1Xvzgi84UFuCLan3cpgc0U6KDQGqNeY5dnXRvNOBnJDuAY9-3dnb89PZq5Lm2pR8vR9hmhQ6ZHqaQtmnCgfblT4IK_veRMzN1mMkXD8OKAnrg8Je2t599Sz1txZG5Au2fhBhva8xn6bHo3EBRJxZDEA_lPlv5Ab3qOolpYnVAIufgAtUe0k21uVhAZfcWEkwW40oa2ig5zsUHCoKeQoO2rMovy6Au2h1OxRZW7TAVbOndVkYUAgk6ztzn3vTl9xI9_wSfsz5Jk-8VU2wP1c6NrdHkT_HPAm0-E3L6fSpJCT6-9s4ydWvTxcZe8-0mz-n9j6-FUZ7Q4niDWWadyLi9zRZy6zUjoPsrwqtlQQsPtYJfYs_Fk8jgpZwT9D4iNsEoJvHkNFGN]--></g></svg>