<?xml version="1.0" encoding="UTF-8" standalone="no"?><svg xmlns="http://www.w3.org/2000/svg" xmlns:xlink="http://www.w3.org/1999/xlink" contentStyleType="text/css" height="951px" preserveAspectRatio="none" style="width:1000px;height:951px;background:#FFFFFF;" version="1.1" viewBox="0 0 1000 951" width="1000px" zoomAndPan="magnify"><defs/><g><rect fill="#FFFFFF" height="743.9688" style="stroke:#181818;stroke-width:1.0;" width="10" x="68" y="100.1563"/><rect fill="#FFFFFF" height="108.4688" style="stroke:#181818;stroke-width:1.0;" width="10" x="679" y="131.3125"/><rect fill="#FFFFFF" height="83.4688" style="stroke:#181818;stroke-width:1.0;" width="10" x="679" y="278.9375"/><rect fill="#FFFFFF" height="123.4688" style="stroke:#181818;stroke-width:1.0;" width="10" x="679" y="401.5625"/><rect fill="#FFFFFF" height="39.1563" style="stroke:#181818;stroke-width:1.0;" width="10" x="679" y="564.1875"/><rect fill="#FFFFFF" height="39.1563" style="stroke:#181818;stroke-width:1.0;" width="10" x="679" y="642.5"/><rect fill="#FFFFFF" height="91.3125" style="stroke:#181818;stroke-width:1.0;" width="10" x="679" y="752.8125"/><rect fill="none" height="568.3438" style="stroke:#000000;stroke-width:1.5;" width="977" x="10" y="146.3125"/><rect fill="none" height="192.9375" style="stroke:#000000;stroke-width:1.5;" width="957" x="20" y="293.9375"/><line style="stroke:#181818;stroke-width:0.5;stroke-dasharray:5.0,5.0;" x1="73" x2="73" y1="90.1563" y2="862.125"/><line style="stroke:#181818;stroke-width:0.5;stroke-dasharray:5.0,5.0;" x1="684" x2="684" y1="90.1563" y2="862.125"/><text fill="#000000" font-family="sans-serif" font-size="20" lengthAdjust="spacing" textLength="80" x="30" y="85.7617">Operator</text><ellipse cx="73" cy="13.5" fill="#E2E2F0" rx="8" ry="8" style="stroke:#181818;stroke-width:0.5;"/><path d="M73,21.5 L73,48.5 M60,29.5 L86,29.5 M73,48.5 L60,63.5 M73,48.5 L86,63.5 " fill="none" style="stroke:#181818;stroke-width:0.5;"/><text fill="#000000" font-family="sans-serif" font-size="20" lengthAdjust="spacing" textLength="80" x="30" y="881.8867">Operator</text><ellipse cx="73" cy="894.7813" fill="#E2E2F0" rx="8" ry="8" style="stroke:#181818;stroke-width:0.5;"/><path d="M73,902.7813 L73,929.7813 M60,910.7813 L86,910.7813 M73,929.7813 L60,944.7813 M73,929.7813 L86,944.7813 " fill="none" style="stroke:#181818;stroke-width:0.5;"/><rect fill="#E2E2F0" height="39.1563" rx="2.5" ry="2.5" style="stroke:#181818;stroke-width:0.5;" width="80" x="644" y="50"/><text fill="#000000" font-family="sans-serif" font-size="20" lengthAdjust="spacing" textLength="66" x="651" y="77.7617">System</text><rect fill="#E2E2F0" height="39.1563" rx="2.5" ry="2.5" style="stroke:#181818;stroke-width:0.5;" width="80" x="644" y="861.125"/><text fill="#000000" font-family="sans-serif" font-size="20" lengthAdjust="spacing" textLength="66" x="651" y="888.8867">System</text><rect fill="#FFFFFF" height="743.9688" style="stroke:#181818;stroke-width:1.0;" width="10" x="68" y="100.1563"/><rect fill="#FFFFFF" height="108.4688" style="stroke:#181818;stroke-width:1.0;" width="10" x="679" y="131.3125"/><rect fill="#FFFFFF" height="83.4688" style="stroke:#181818;stroke-width:1.0;" width="10" x="679" y="278.9375"/><rect fill="#FFFFFF" height="123.4688" style="stroke:#181818;stroke-width:1.0;" width="10" x="679" y="401.5625"/><rect fill="#FFFFFF" height="39.1563" style="stroke:#181818;stroke-width:1.0;" width="10" x="679" y="564.1875"/><rect fill="#FFFFFF" height="39.1563" style="stroke:#181818;stroke-width:1.0;" width="10" x="679" y="642.5"/><rect fill="#FFFFFF" height="91.3125" style="stroke:#181818;stroke-width:1.0;" width="10" x="679" y="752.8125"/><polygon fill="#181818" points="667,127.3125,677,131.3125,667,135.3125,671,131.3125" style="stroke:#181818;stroke-width:1.0;"/><line style="stroke:#181818;stroke-width:1.0;" x1="78" x2="673" y1="131.3125" y2="131.3125"/><text fill="#000000" font-family="sans-serif" font-size="20" font-weight="bold" lengthAdjust="spacing" textLength="11" x="85" y="124.918">1</text><text fill="#000000" font-family="sans-serif" font-size="20" lengthAdjust="spacing" textLength="380" x="100" y="124.918">asks to generate a new interview model file</text><path d="M10,146.3125 L96,146.3125 L96,163.4688 L86,173.4688 L10,173.4688 L10,146.3125 " fill="#EEEEEE" style="stroke:#000000;stroke-width:1.5;"/><rect fill="none" height="568.3438" style="stroke:#000000;stroke-width:1.5;" width="977" x="10" y="146.3125"/><text fill="#000000" font-family="sans-serif" font-size="20" font-weight="bold" lengthAdjust="spacing" textLength="41" x="25" y="168.0742">loop</text><text fill="#000000" font-family="sans-serif" font-size="20" font-weight="bold" lengthAdjust="spacing" textLength="203" x="111" y="169.0742">[Until the user wants]</text><polygon fill="#181818" points="89,235.7813,79,239.7813,89,243.7813,85,239.7813" style="stroke:#181818;stroke-width:1.0;"/><line style="stroke:#181818;stroke-width:1.0;stroke-dasharray:2.0,2.0;" x1="83" x2="683" y1="239.7813" y2="239.7813"/><text fill="#000000" font-family="sans-serif" font-size="20" font-weight="bold" lengthAdjust="spacing" textLength="11" x="95" y="233.3867">2</text><text fill="#000000" font-family="sans-serif" font-size="20" lengthAdjust="spacing" textLength="524" x="110" y="233.3867">presents the questions type list and asks to select an option</text><polygon fill="#181818" points="667,274.9375,677,278.9375,667,282.9375,671,278.9375" style="stroke:#181818;stroke-width:1.0;"/><line style="stroke:#181818;stroke-width:1.0;" x1="78" x2="673" y1="278.9375" y2="278.9375"/><text fill="#000000" font-family="sans-serif" font-size="20" font-weight="bold" lengthAdjust="spacing" textLength="11" x="85" y="272.543">3</text><text fill="#000000" font-family="sans-serif" font-size="20" lengthAdjust="spacing" textLength="218" x="100" y="272.543">selects the question type</text><path d="M20,293.9375 L88,293.9375 L88,311.0938 L78,321.0938 L20,321.0938 L20,293.9375 " fill="#EEEEEE" style="stroke:#000000;stroke-width:1.5;"/><rect fill="none" height="192.9375" style="stroke:#000000;stroke-width:1.5;" width="957" x="20" y="293.9375"/><text fill="#000000" font-family="sans-serif" font-size="20" font-weight="bold" lengthAdjust="spacing" textLength="23" x="35" y="315.6992">alt</text><text fill="#000000" font-family="sans-serif" font-size="20" font-weight="bold" lengthAdjust="spacing" textLength="189" x="103" y="316.6992">[New question type]</text><polygon fill="#181818" points="89,358.4063,79,362.4063,89,366.4063,85,362.4063" style="stroke:#181818;stroke-width:1.0;"/><line style="stroke:#181818;stroke-width:1.0;stroke-dasharray:2.0,2.0;" x1="83" x2="683" y1="362.4063" y2="362.4063"/><text fill="#000000" font-family="sans-serif" font-size="20" font-weight="bold" lengthAdjust="spacing" textLength="11" x="95" y="356.0117">4</text><text fill="#000000" font-family="sans-serif" font-size="20" lengthAdjust="spacing" textLength="348" x="110" y="356.0117">asks to introduce the new question type</text><polygon fill="#181818" points="667,397.5625,677,401.5625,667,405.5625,671,401.5625" style="stroke:#181818;stroke-width:1.0;"/><line style="stroke:#181818;stroke-width:1.0;" x1="78" x2="673" y1="401.5625" y2="401.5625"/><text fill="#000000" font-family="sans-serif" font-size="20" font-weight="bold" lengthAdjust="spacing" textLength="11" x="85" y="395.168">5</text><text fill="#000000" font-family="sans-serif" font-size="20" lengthAdjust="spacing" textLength="219" x="100" y="395.168">defines the question type</text><line style="stroke:#181818;stroke-width:1.0;stroke-dasharray:2.0,2.0;" x1="689" x2="731" y1="465.875" y2="465.875"/><line style="stroke:#181818;stroke-width:1.0;stroke-dasharray:2.0,2.0;" x1="731" x2="731" y1="465.875" y2="478.875"/><line style="stroke:#181818;stroke-width:1.0;stroke-dasharray:2.0,2.0;" x1="690" x2="731" y1="478.875" y2="478.875"/><polygon fill="#181818" points="700,474.875,690,478.875,700,482.875,696,478.875" style="stroke:#181818;stroke-width:1.0;"/><text fill="#000000" font-family="sans-serif" font-size="20" font-weight="bold" lengthAdjust="spacing" textLength="11" x="696" y="446.9023">6</text><text fill="#000000" font-family="sans-serif" font-size="20" lengthAdjust="spacing" textLength="231" x="711" y="434.3242">registers the new question</text><text fill="#000000" font-family="sans-serif" font-size="20" lengthAdjust="spacing" textLength="254" x="711" y="459.4805">type in the questions type list</text><polygon fill="#181818" points="89,521.0313,79,525.0313,89,529.0313,85,525.0313" style="stroke:#181818;stroke-width:1.0;"/><line style="stroke:#181818;stroke-width:1.0;stroke-dasharray:2.0,2.0;" x1="83" x2="683" y1="525.0313" y2="525.0313"/><text fill="#000000" font-family="sans-serif" font-size="20" font-weight="bold" lengthAdjust="spacing" textLength="11" x="95" y="518.6367">7</text><text fill="#000000" font-family="sans-serif" font-size="20" lengthAdjust="spacing" textLength="235" x="110" y="518.6367">asks to define the question</text><polygon fill="#181818" points="667,560.1875,677,564.1875,667,568.1875,671,564.1875" style="stroke:#181818;stroke-width:1.0;"/><line style="stroke:#181818;stroke-width:1.0;" x1="78" x2="673" y1="564.1875" y2="564.1875"/><text fill="#000000" font-family="sans-serif" font-size="20" font-weight="bold" lengthAdjust="spacing" textLength="11" x="85" y="557.793">8</text><text fill="#000000" font-family="sans-serif" font-size="20" lengthAdjust="spacing" textLength="175" x="100" y="557.793">defines the question</text><polygon fill="#181818" points="89,599.3438,79,603.3438,89,607.3438,85,603.3438" style="stroke:#181818;stroke-width:1.0;"/><line style="stroke:#181818;stroke-width:1.0;stroke-dasharray:2.0,2.0;" x1="83" x2="683" y1="603.3438" y2="603.3438"/><text fill="#000000" font-family="sans-serif" font-size="20" font-weight="bold" lengthAdjust="spacing" textLength="11" x="95" y="596.9492">9</text><text fill="#000000" font-family="sans-serif" font-size="20" lengthAdjust="spacing" textLength="305" x="110" y="596.9492">asks to define the question answer</text><polygon fill="#181818" points="667,638.5,677,642.5,667,646.5,671,642.5" style="stroke:#181818;stroke-width:1.0;"/><line style="stroke:#181818;stroke-width:1.0;" x1="78" x2="673" y1="642.5" y2="642.5"/><text fill="#000000" font-family="sans-serif" font-size="20" font-weight="bold" lengthAdjust="spacing" textLength="22" x="85" y="636.1055">10</text><text fill="#000000" font-family="sans-serif" font-size="20" lengthAdjust="spacing" textLength="166" x="111" y="636.1055">defines the answer</text><polygon fill="#181818" points="89,677.6563,79,681.6563,89,685.6563,85,681.6563" style="stroke:#181818;stroke-width:1.0;"/><line style="stroke:#181818;stroke-width:1.0;stroke-dasharray:2.0,2.0;" x1="83" x2="683" y1="681.6563" y2="681.6563"/><text fill="#000000" font-family="sans-serif" font-size="20" font-weight="bold" lengthAdjust="spacing" textLength="22" x="95" y="675.2617">11</text><text fill="#000000" font-family="sans-serif" font-size="20" lengthAdjust="spacing" textLength="551" x="121" y="675.2617">confirm that the requirement was successfully set within the file</text><polygon fill="#181818" points="667,748.8125,677,752.8125,667,756.8125,671,752.8125" style="stroke:#181818;stroke-width:1.0;"/><line style="stroke:#181818;stroke-width:1.0;" x1="78" x2="673" y1="752.8125" y2="752.8125"/><text fill="#000000" font-family="sans-serif" font-size="20" font-weight="bold" lengthAdjust="spacing" textLength="22" x="85" y="746.418">12</text><text fill="#000000" font-family="sans-serif" font-size="20" lengthAdjust="spacing" textLength="179" x="111" y="746.418">ask to export the file</text><line style="stroke:#181818;stroke-width:1.0;stroke-dasharray:2.0,2.0;" x1="689" x2="731" y1="791.9688" y2="791.9688"/><line style="stroke:#181818;stroke-width:1.0;stroke-dasharray:2.0,2.0;" x1="731" x2="731" y1="791.9688" y2="804.9688"/><line style="stroke:#181818;stroke-width:1.0;stroke-dasharray:2.0,2.0;" x1="690" x2="731" y1="804.9688" y2="804.9688"/><polygon fill="#181818" points="700,800.9688,690,804.9688,700,808.9688,696,804.9688" style="stroke:#181818;stroke-width:1.0;"/><text fill="#000000" font-family="sans-serif" font-size="20" font-weight="bold" lengthAdjust="spacing" textLength="22" x="696" y="785.5742">13</text><text fill="#000000" font-family="sans-serif" font-size="20" lengthAdjust="spacing" textLength="271" x="722" y="785.5742">exports the interview model file</text><polygon fill="#181818" points="84,840.125,74,844.125,84,848.125,80,844.125" style="stroke:#181818;stroke-width:1.0;"/><line style="stroke:#181818;stroke-width:1.0;stroke-dasharray:2.0,2.0;" x1="78" x2="683" y1="844.125" y2="844.125"/><text fill="#000000" font-family="sans-serif" font-size="20" font-weight="bold" lengthAdjust="spacing" textLength="22" x="90" y="837.7305">14</text><text fill="#000000" font-family="sans-serif" font-size="20" lengthAdjust="spacing" textLength="430" x="116" y="837.7305">confirms the success of the exportation of the file</text><!--SRC=[dLJ1Ri8m3BtdAopkIDEE77RSSI1LEqpQ9MjTY4YJaZWm9Zv-Jb962wr0yobndEVtx3X-gqmhdMoqBRTOGOMr39fUhQ52_I0yFmaPo9hGVA4JGfPa7SoMBJh9gnb83ykLO0HIfMgb8PWLHq_OfAFYeqXtr5uIna2nNC7y9VfXmG5R3sHXZIR28KWmU01b2DrUyQgn5MgebSOUIi8KsjeMtWqf3RH121uT73Yz5wVJIGXWYqdcd8nJBg1rw96FK_Gke2Tb3U-EBO9Mda2Qwe-GHurbT85jOro2gt188VhwQlAbOOA4dqEb9dXZJSCZwEmMkcy39MUIN2Pdgr1YocWceSysnhzlVIty2fJ1IIrzUunvXdMuvbAZyxUKFqrgXJ9J3ShO6BkawP9ej3IP_W19t2l3FVbtMlKe3tvK_i2Jz5ywLzSV85DQKolNy6r92SBXBYY73Oy3Zum77yeIlQ-3raT-nUnKjEaQaMPlWciSjDYFE8etWntbutTh7LrmhcPu-3PoS1Ov_WECgShndGAmTTfcA9dAtRaImdMj-mx-ctu1]--></g></svg>