<?xml version="1.0" encoding="us-ascii" standalone="no"?><svg xmlns="http://www.w3.org/2000/svg" xmlns:xlink="http://www.w3.org/1999/xlink" contentStyleType="text/css" height="576px" preserveAspectRatio="none" style="width:742px;height:576px;background:#FFFFFF;" version="1.1" viewBox="0 0 742 576" width="742px" zoomAndPan="magnify"><defs/><g><rect fill="#FFFFFF" height="381.7832" style="stroke:#181818;stroke-width:1.0;" width="10" x="63.5" y="93.6211"/><rect fill="#FFFFFF" height="31.291" style="stroke:#181818;stroke-width:1.0;" width="10" x="291.5" y="134.2031"/><rect fill="#FFFFFF" height="278.6191" style="stroke:#181818;stroke-width:1.0;" width="10" x="291.5" y="196.7852"/><rect fill="#FFFFFF" height="198.7461" style="stroke:#181818;stroke-width:1.0;" width="10" x="520.5" y="228.0762"/><line style="stroke:#181818;stroke-width:0.5;stroke-dasharray:5.0,5.0;" x1="68" x2="68" y1="83.6211" y2="493.4043"/><line style="stroke:#181818;stroke-width:0.5;stroke-dasharray:5.0,5.0;" x1="296.5" x2="296.5" y1="83.6211" y2="493.4043"/><line style="stroke:#181818;stroke-width:0.5;stroke-dasharray:5.0,5.0;" x1="525" x2="525" y1="83.6211" y2="493.4043"/><text fill="#000000" font-family="sans-serif" font-size="14" lengthAdjust="spacing" textLength="121" x="5" y="80.1074">Customer Manager</text><ellipse cx="68.5" cy="13.5" fill="#E2E2F0" rx="8" ry="8" style="stroke:#181818;stroke-width:0.5;"/><path d="M68.5,21.5 L68.5,48.5 M55.5,29.5 L81.5,29.5 M68.5,48.5 L55.5,63.5 M68.5,48.5 L81.5,63.5 " fill="none" style="stroke:#181818;stroke-width:0.5;"/><text fill="#000000" font-family="sans-serif" font-size="14" lengthAdjust="spacing" textLength="121" x="5" y="507.5117">Customer Manager</text><ellipse cx="68.5" cy="519.5254" fill="#E2E2F0" rx="8" ry="8" style="stroke:#181818;stroke-width:0.5;"/><path d="M68.5,527.5254 L68.5,554.5254 M55.5,535.5254 L81.5,535.5254 M68.5,554.5254 L55.5,569.5254 M68.5,554.5254 L81.5,569.5254 " fill="none" style="stroke:#181818;stroke-width:0.5;"/><rect fill="#E2E2F0" height="32.6211" rx="2.5" ry="2.5" style="stroke:#181818;stroke-width:0.5;" width="60" x="266.5" y="50"/><text fill="#000000" font-family="sans-serif" font-size="14" lengthAdjust="spacing" textLength="46" x="273.5" y="72.1074">System</text><rect fill="#E2E2F0" height="32.6211" rx="2.5" ry="2.5" style="stroke:#181818;stroke-width:0.5;" width="60" x="266.5" y="492.4043"/><text fill="#000000" font-family="sans-serif" font-size="14" lengthAdjust="spacing" textLength="46" x="273.5" y="514.5117">System</text><rect fill="#E2E2F0" height="32.6211" rx="2.5" ry="2.5" style="stroke:#181818;stroke-width:0.5;" width="53" x="499" y="50"/><text fill="#000000" font-family="sans-serif" font-size="14" lengthAdjust="spacing" textLength="39" x="506" y="72.1074">Plugin</text><rect fill="#E2E2F0" height="32.6211" rx="2.5" ry="2.5" style="stroke:#181818;stroke-width:0.5;" width="53" x="499" y="492.4043"/><text fill="#000000" font-family="sans-serif" font-size="14" lengthAdjust="spacing" textLength="39" x="506" y="514.5117">Plugin</text><rect fill="#FFFFFF" height="381.7832" style="stroke:#181818;stroke-width:1.0;" width="10" x="63.5" y="93.6211"/><rect fill="#FFFFFF" height="31.291" style="stroke:#181818;stroke-width:1.0;" width="10" x="291.5" y="134.2031"/><rect fill="#FFFFFF" height="278.6191" style="stroke:#181818;stroke-width:1.0;" width="10" x="291.5" y="196.7852"/><rect fill="#FFFFFF" height="198.7461" style="stroke:#181818;stroke-width:1.0;" width="10" x="520.5" y="228.0762"/><polygon fill="#181818" points="279.5,130.2031,289.5,134.2031,279.5,138.2031,283.5,134.2031" style="stroke:#181818;stroke-width:1.0;"/><line style="stroke:#181818;stroke-width:1.0;" x1="73.5" x2="285.5" y1="134.2031" y2="134.2031"/><text fill="#000000" font-family="sans-serif" font-size="13" font-weight="bold" lengthAdjust="spacing" textLength="7" x="80.5" y="120.2949">1</text><text fill="#000000" font-family="sans-serif" font-size="13" lengthAdjust="spacing" textLength="188" x="91.5" y="111.6494">asks to generate a new interview</text><text fill="#000000" font-family="sans-serif" font-size="13" lengthAdjust="spacing" textLength="55" x="95.5" y="128.9404">model file</text><polygon fill="#181818" points="84.5,161.4941,74.5,165.4941,84.5,169.4941,80.5,165.4941" style="stroke:#181818;stroke-width:1.0;"/><line style="stroke:#181818;stroke-width:1.0;stroke-dasharray:2.0,2.0;" x1="78.5" x2="295.5" y1="165.4941" y2="165.4941"/><text fill="#000000" font-family="sans-serif" font-size="13" font-weight="bold" lengthAdjust="spacing" textLength="7" x="90.5" y="160.2314">2</text><text fill="#000000" font-family="sans-serif" font-size="13" lengthAdjust="spacing" textLength="171" x="101.5" y="160.2314">shows job Openings to select</text><polygon fill="#181818" points="279.5,192.7852,289.5,196.7852,279.5,200.7852,283.5,196.7852" style="stroke:#181818;stroke-width:1.0;"/><line style="stroke:#181818;stroke-width:1.0;" x1="73.5" x2="285.5" y1="196.7852" y2="196.7852"/><text fill="#000000" font-family="sans-serif" font-size="13" font-weight="bold" lengthAdjust="spacing" textLength="7" x="80.5" y="191.5225">3</text><text fill="#000000" font-family="sans-serif" font-size="13" lengthAdjust="spacing" textLength="126" x="91.5" y="191.5225">selects a job Opening</text><polygon fill="#181818" points="508.5,224.0762,518.5,228.0762,508.5,232.0762,512.5,228.0762" style="stroke:#181818;stroke-width:1.0;"/><line style="stroke:#181818;stroke-width:1.0;" x1="301.5" x2="514.5" y1="228.0762" y2="228.0762"/><text fill="#000000" font-family="sans-serif" font-size="13" font-weight="bold" lengthAdjust="spacing" textLength="7" x="308.5" y="222.8135">4</text><text fill="#000000" font-family="sans-serif" font-size="13" lengthAdjust="spacing" textLength="189" x="319.5" y="222.8135">generate and export template file</text><line style="stroke:#181818;stroke-width:1.0;" x1="530.5" x2="572.5" y1="259.3672" y2="259.3672"/><line style="stroke:#181818;stroke-width:1.0;" x1="572.5" x2="572.5" y1="259.3672" y2="272.3672"/><line style="stroke:#181818;stroke-width:1.0;" x1="531.5" x2="572.5" y1="272.3672" y2="272.3672"/><polygon fill="#181818" points="541.5,268.3672,531.5,272.3672,541.5,276.3672,537.5,272.3672" style="stroke:#181818;stroke-width:1.0;"/><text fill="#000000" font-family="sans-serif" font-size="13" font-weight="bold" lengthAdjust="spacing" textLength="7" x="537.5" y="254.1045">5</text><text fill="#000000" font-family="sans-serif" font-size="13" lengthAdjust="spacing" textLength="77" x="548.5" y="254.1045">generates file</text><line style="stroke:#181818;stroke-width:1.0;" x1="530.5" x2="572.5" y1="320.9492" y2="320.9492"/><line style="stroke:#181818;stroke-width:1.0;" x1="572.5" x2="572.5" y1="320.9492" y2="333.9492"/><line style="stroke:#181818;stroke-width:1.0;" x1="531.5" x2="572.5" y1="333.9492" y2="333.9492"/><polygon fill="#181818" points="541.5,329.9492,531.5,333.9492,541.5,337.9492,537.5,333.9492" style="stroke:#181818;stroke-width:1.0;"/><text fill="#000000" font-family="sans-serif" font-size="13" font-weight="bold" lengthAdjust="spacing" textLength="7" x="537.5" y="307.041">6</text><text fill="#000000" font-family="sans-serif" font-size="13" lengthAdjust="spacing" textLength="187" x="548.5" y="298.3955">validates the generated template</text><text fill="#000000" font-family="sans-serif" font-size="13" lengthAdjust="spacing" textLength="157" x="552.5" y="315.6865">file with a specific grammar</text><line style="stroke:#181818;stroke-width:1.0;" x1="530.5" x2="572.5" y1="382.5313" y2="382.5313"/><line style="stroke:#181818;stroke-width:1.0;" x1="572.5" x2="572.5" y1="382.5313" y2="395.5313"/><line style="stroke:#181818;stroke-width:1.0;" x1="531.5" x2="572.5" y1="395.5313" y2="395.5313"/><polygon fill="#181818" points="541.5,391.5313,531.5,395.5313,541.5,399.5313,537.5,395.5313" style="stroke:#181818;stroke-width:1.0;"/><text fill="#000000" font-family="sans-serif" font-size="13" font-weight="bold" lengthAdjust="spacing" textLength="7" x="537.5" y="368.623">7</text><text fill="#000000" font-family="sans-serif" font-size="13" lengthAdjust="spacing" textLength="118" x="548.5" y="359.9775">exports the interview</text><text fill="#000000" font-family="sans-serif" font-size="13" lengthAdjust="spacing" textLength="55" x="552.5" y="377.2686">model file</text><polygon fill="#181818" points="312.5,422.8223,302.5,426.8223,312.5,430.8223,308.5,426.8223" style="stroke:#181818;stroke-width:1.0;"/><line style="stroke:#181818;stroke-width:1.0;stroke-dasharray:2.0,2.0;" x1="306.5" x2="524.5" y1="426.8223" y2="426.8223"/><text fill="#000000" font-family="sans-serif" font-size="13" font-weight="bold" lengthAdjust="spacing" textLength="7" x="318.5" y="421.5596">8</text><text fill="#000000" font-family="sans-serif" font-size="13" lengthAdjust="spacing" textLength="117" x="329.5" y="421.5596">confirms exportation</text><polygon fill="#181818" points="79.5,471.4043,69.5,475.4043,79.5,479.4043,75.5,475.4043" style="stroke:#181818;stroke-width:1.0;"/><line style="stroke:#181818;stroke-width:1.0;stroke-dasharray:2.0,2.0;" x1="73.5" x2="295.5" y1="475.4043" y2="475.4043"/><text fill="#000000" font-family="sans-serif" font-size="13" font-weight="bold" lengthAdjust="spacing" textLength="7" x="85.5" y="461.4961">9</text><text fill="#000000" font-family="sans-serif" font-size="13" lengthAdjust="spacing" textLength="137" x="96.5" y="452.8506">confirms the successful</text><text fill="#000000" font-family="sans-serif" font-size="13" lengthAdjust="spacing" textLength="120" x="100.5" y="470.1416">exportation of the file</text><!--SRC=[TPAnRiCm34HtVGMHFJ-G8KlM10qGT2ZGHP5fXwr46I9jjtzVIGbSEqKzwdZlg9Fje967SCLaZ7KQ4smEWsWCcE1asNQODc053YVJswJagBUiiBbyYsAeqkNjijREVkY8gtO-lbOkZLQnGCpX1DjzyS0k3tmAQ8GE6LCPiC0u0R5Y6WcdTuOG6_JGaiS5foGQo5_1R3CkGtSWjpW9VCGhlFJ8n5rb2tfqQXfSkvTht4Safo_CJsccHktBXRBZTs5k0B_wc1Ho7RqlPtNPsLqRAAu_PdbSQoMErbDJHRtXFDhCz5n9SS54UiiBIu-EMdBG9Hk2JK-q-sftrd-jLiFSXOlSKWhoi5gboClowdLMjS-E4YA3SoZI3ZwdB10GswhNoEUtM1xaN-G7]--></g></svg>