<?xml version="1.0" encoding="UTF-8" standalone="no"?><svg xmlns="http://www.w3.org/2000/svg" xmlns:xlink="http://www.w3.org/1999/xlink" contentStyleType="text/css" height="1169px" preserveAspectRatio="none" style="width:2945px;height:1169px;background:#FFFFFF;" version="1.1" viewBox="0 0 2945 1169" width="2945px" zoomAndPan="magnify"><defs/><g><text fill="#000000" font-family="sans-serif" font-size="14" font-weight="bold" lengthAdjust="spacing" textLength="154" x="1388.5" y="24.5332">US3002 Class Diagram</text><!--class AbstractListUI--><g id="elem_AbstractListUI"><rect codeLine="5" fill="#F1F1F1" height="76.3125" id="AbstractListUI" rx="2.5" ry="2.5" style="stroke:#181818;stroke-width:0.5;" width="156" x="1216.5" y="83.6094"/><ellipse cx="1232.5" cy="101.1875" fill="#A9DCDF" rx="12" ry="12" style="stroke:#181818;stroke-width:1.0;"/><path d="M1234.9531,103.2188 L1230.0781,103.2188 L1229.5938,104.4375 L1230.0781,104.4375 Q1230.8125,104.4375 1231.1094,104.7188 Q1231.4219,104.9844 1231.4219,105.4375 Q1231.4219,105.875 1231.1094,106.1563 Q1230.8125,106.4375 1230.0781,106.4375 L1227.3906,106.4375 Q1226.6719,106.4375 1226.3594,106.1563 Q1226.0469,105.875 1226.0469,105.4375 Q1226.0469,104.9844 1226.375,104.7031 Q1226.7031,104.4219 1227.4375,104.4375 L1230.5781,96.6094 L1229.2813,96.6094 Q1228.5469,96.6094 1228.2344,96.3281 Q1227.9375,96.0469 1227.9375,95.5938 Q1227.9375,95.1406 1228.2344,94.875 Q1228.5469,94.5938 1229.2813,94.5938 L1233.5938,94.5938 L1237.5781,104.4375 Q1238.2813,104.4375 1238.5156,104.5938 Q1238.9688,104.9063 1238.9688,105.4375 Q1238.9688,105.875 1238.6563,106.1563 Q1238.3594,106.4375 1237.6406,106.4375 L1234.9375,106.4375 Q1234.2188,106.4375 1233.9063,106.1563 Q1233.5938,105.875 1233.5938,105.4375 Q1233.5938,104.9844 1233.9063,104.7188 Q1234.2188,104.4375 1234.9375,104.4375 L1235.4219,104.4375 L1234.9531,103.2188 Z M1234.125,101.2188 L1232.5,97.25 L1230.8906,101.2188 L1234.125,101.2188 Z " fill="#000000"/><text fill="#000000" font-family="sans-serif" font-size="20" font-style="italic" lengthAdjust="spacing" textLength="122" x="1247.5" y="109.3711">AbstractListUI</text><line style="stroke:#181818;stroke-width:0.5;" x1="1217.5" x2="1371.5" y1="118.7656" y2="118.7656"/><line style="stroke:#181818;stroke-width:0.5;" x1="1217.5" x2="1371.5" y1="126.7656" y2="126.7656"/><polygon fill="#FFFF44" points="1227.5,139.8438,1231.5,143.8438,1227.5,147.8438,1223.5,143.8438" style="stroke:#B38D22;stroke-width:1.0;"/><text fill="#000000" font-family="sans-serif" font-size="20" lengthAdjust="spacing" textLength="85" x="1237.5" y="151.5273">doShow()</text></g><!--class Serializable--><g id="elem_Serializable"><rect codeLine="9" fill="#F1F1F1" height="51.1563" id="Serializable" rx="2.5" ry="2.5" style="stroke:#181818;stroke-width:0.5;" width="139" x="2571" y="685.1094"/><ellipse cx="2587" cy="702.6875" fill="#B4A7E5" rx="12" ry="12" style="stroke:#181818;stroke-width:1.0;"/><path d="M2588,698.8594 L2588,706.6875 L2590.0313,706.6875 Q2590.75,706.6875 2591.0469,706.9688 Q2591.3594,707.2344 2591.3594,707.6875 Q2591.3594,708.125 2591.0469,708.4063 Q2590.75,708.6875 2590.0313,708.6875 L2583.9844,708.6875 Q2583.25,708.6875 2582.9375,708.4063 Q2582.6406,708.125 2582.6406,707.6875 Q2582.6406,707.2344 2582.9375,706.9688 Q2583.25,706.6875 2583.9844,706.6875 L2586,706.6875 L2586,698.8594 L2583.9844,698.8594 Q2583.25,698.8594 2582.9375,698.5781 Q2582.6406,698.2969 2582.6406,697.8438 Q2582.6406,697.3906 2582.9375,697.125 Q2583.25,696.8438 2583.9844,696.8438 L2590.0313,696.8438 Q2590.75,696.8438 2591.0469,697.125 Q2591.3594,697.3906 2591.3594,697.8438 Q2591.3594,698.2969 2591.0469,698.5781 Q2590.75,698.8594 2590.0313,698.8594 L2588,698.8594 Z " fill="#000000"/><text fill="#000000" font-family="sans-serif" font-size="20" font-style="italic" lengthAdjust="spacing" textLength="105" x="2602" y="710.8711">Serializable</text><line style="stroke:#181818;stroke-width:0.5;" x1="2572" x2="2709" y1="720.2656" y2="720.2656"/><line style="stroke:#181818;stroke-width:0.5;" x1="2572" x2="2709" y1="728.2656" y2="728.2656"/></g><!--class DTOable--><g id="elem_DTOable"><rect codeLine="11" fill="#F1F1F1" height="76.3125" id="DTOable" rx="2.5" ry="2.5" style="stroke:#181818;stroke-width:0.5;" width="114" x="773.5" y="284.1094"/><ellipse cx="789.5" cy="301.6875" fill="#B4A7E5" rx="12" ry="12" style="stroke:#181818;stroke-width:1.0;"/><path d="M790.5,297.8594 L790.5,305.6875 L792.5313,305.6875 Q793.25,305.6875 793.5469,305.9688 Q793.8594,306.2344 793.8594,306.6875 Q793.8594,307.125 793.5469,307.4063 Q793.25,307.6875 792.5313,307.6875 L786.4844,307.6875 Q785.75,307.6875 785.4375,307.4063 Q785.1406,307.125 785.1406,306.6875 Q785.1406,306.2344 785.4375,305.9688 Q785.75,305.6875 786.4844,305.6875 L788.5,305.6875 L788.5,297.8594 L786.4844,297.8594 Q785.75,297.8594 785.4375,297.5781 Q785.1406,297.2969 785.1406,296.8438 Q785.1406,296.3906 785.4375,296.125 Q785.75,295.8438 786.4844,295.8438 L792.5313,295.8438 Q793.25,295.8438 793.5469,296.125 Q793.8594,296.3906 793.8594,296.8438 Q793.8594,297.2969 793.5469,297.5781 Q793.25,297.8594 792.5313,297.8594 L790.5,297.8594 Z " fill="#000000"/><text fill="#000000" font-family="sans-serif" font-size="20" font-style="italic" lengthAdjust="spacing" textLength="80" x="804.5" y="309.8711">DTOable</text><line style="stroke:#181818;stroke-width:0.5;" x1="774.5" x2="886.5" y1="319.2656" y2="319.2656"/><line style="stroke:#181818;stroke-width:0.5;" x1="774.5" x2="886.5" y1="327.2656" y2="327.2656"/><ellipse cx="784.5" cy="345.3438" fill="#84BE84" rx="3" ry="3" style="stroke:#038048;stroke-width:1.0;"/><text fill="#000000" font-family="sans-serif" font-size="20" lengthAdjust="spacing" textLength="73" x="794.5" y="352.0273">toDTO()</text></g><!--class ListCustomerJobOpeningsUI--><g id="elem_ListCustomerJobOpeningsUI"><rect codeLine="15" fill="#F1F1F1" height="76.3125" id="ListCustomerJobOpeningsUI" rx="2.5" ry="2.5" style="stroke:#181818;stroke-width:0.5;" width="284" x="1508.5" y="83.6094"/><ellipse cx="1524.5" cy="101.1875" fill="#ADD1B2" rx="12" ry="12" style="stroke:#181818;stroke-width:1.0;"/><path d="M1526.6406,96.1094 Q1526.8281,95.8594 1527.0469,95.7344 Q1527.2656,95.5938 1527.5156,95.5938 Q1527.9531,95.5938 1528.2344,95.9063 Q1528.5156,96.2031 1528.5156,96.9219 L1528.5156,98.625 Q1528.5156,99.3438 1528.2344,99.6563 Q1527.9531,99.9688 1527.5156,99.9688 Q1527.125,99.9688 1526.875,99.7344 Q1526.625,99.5156 1526.5156,98.9063 Q1526.4531,98.4844 1526.2344,98.2656 Q1525.8438,97.8281 1525.125,97.5625 Q1524.4063,97.2969 1523.6875,97.2969 Q1522.7813,97.2969 1522.0313,97.6875 Q1521.2813,98.0781 1520.7031,98.9688 Q1520.125,99.8438 1520.125,101.0469 L1520.125,102.3438 Q1520.125,103.7969 1521.1719,104.7656 Q1522.2344,105.7344 1524.0938,105.7344 Q1525.2031,105.7344 1525.9844,105.4219 Q1526.4219,105.25 1526.9375,104.7344 Q1527.25,104.4219 1527.4219,104.3281 Q1527.5938,104.2344 1527.8281,104.2344 Q1528.2188,104.2344 1528.5156,104.5469 Q1528.8281,104.8438 1528.8281,105.25 Q1528.8281,105.6563 1528.4219,106.125 Q1527.8281,106.8125 1526.8906,107.2031 Q1525.625,107.7344 1524.1094,107.7344 Q1522.3281,107.7344 1520.9063,107 Q1519.75,106.4063 1518.9375,105.1406 Q1518.125,103.875 1518.125,102.3906 L1518.125,101.0313 Q1518.125,99.4688 1518.8438,98.125 Q1519.5781,96.7656 1520.8594,96.0313 Q1522.1563,95.2969 1523.6094,95.2969 Q1524.4688,95.2969 1525.2188,95.5 Q1525.9844,95.7031 1526.6406,96.1094 Z " fill="#000000"/><text fill="#000000" font-family="sans-serif" font-size="20" lengthAdjust="spacing" textLength="250" x="1539.5" y="109.3711">ListCustomerJobOpeningsUI</text><line style="stroke:#181818;stroke-width:0.5;" x1="1509.5" x2="1791.5" y1="118.7656" y2="118.7656"/><line style="stroke:#181818;stroke-width:0.5;" x1="1509.5" x2="1791.5" y1="126.7656" y2="126.7656"/><ellipse cx="1519.5" cy="144.8438" fill="#84BE84" rx="3" ry="3" style="stroke:#038048;stroke-width:1.0;"/><text fill="#000000" font-family="sans-serif" font-size="20" lengthAdjust="spacing" textLength="85" x="1529.5" y="151.5273">doShow()</text></g><!--class ListCustomerJobOpeningsController--><g id="elem_ListCustomerJobOpeningsController"><rect codeLine="19" fill="#F1F1F1" height="151.7813" id="ListCustomerJobOpeningsController" rx="2.5" ry="2.5" style="stroke:#181818;stroke-width:0.5;" width="647" x="1828" y="45.6094"/><ellipse cx="1989" cy="63.1875" fill="#ADD1B2" rx="12" ry="12" style="stroke:#181818;stroke-width:1.0;"/><path d="M1991.1406,58.1094 Q1991.3281,57.8594 1991.5469,57.7344 Q1991.7656,57.5938 1992.0156,57.5938 Q1992.4531,57.5938 1992.7344,57.9063 Q1993.0156,58.2031 1993.0156,58.9219 L1993.0156,60.625 Q1993.0156,61.3438 1992.7344,61.6563 Q1992.4531,61.9688 1992.0156,61.9688 Q1991.625,61.9688 1991.375,61.7344 Q1991.125,61.5156 1991.0156,60.9063 Q1990.9531,60.4844 1990.7344,60.2656 Q1990.3438,59.8281 1989.625,59.5625 Q1988.9063,59.2969 1988.1875,59.2969 Q1987.2813,59.2969 1986.5313,59.6875 Q1985.7813,60.0781 1985.2031,60.9688 Q1984.625,61.8438 1984.625,63.0469 L1984.625,64.3438 Q1984.625,65.7969 1985.6719,66.7656 Q1986.7344,67.7344 1988.5938,67.7344 Q1989.7031,67.7344 1990.4844,67.4219 Q1990.9219,67.25 1991.4375,66.7344 Q1991.75,66.4219 1991.9219,66.3281 Q1992.0938,66.2344 1992.3281,66.2344 Q1992.7188,66.2344 1993.0156,66.5469 Q1993.3281,66.8438 1993.3281,67.25 Q1993.3281,67.6563 1992.9219,68.125 Q1992.3281,68.8125 1991.3906,69.2031 Q1990.125,69.7344 1988.6094,69.7344 Q1986.8281,69.7344 1985.4063,69 Q1984.25,68.4063 1983.4375,67.1406 Q1982.625,65.875 1982.625,64.3906 L1982.625,63.0313 Q1982.625,61.4688 1983.3438,60.125 Q1984.0781,58.7656 1985.3594,58.0313 Q1986.6563,57.2969 1988.1094,57.2969 Q1988.9688,57.2969 1989.7188,57.5 Q1990.4844,57.7031 1991.1406,58.1094 Z " fill="#000000"/><text fill="#000000" font-family="sans-serif" font-size="20" lengthAdjust="spacing" textLength="316" x="2011" y="71.3711">ListCustomerJobOpeningsController</text><line style="stroke:#181818;stroke-width:0.5;" x1="1829" x2="2474" y1="80.7656" y2="80.7656"/><line style="stroke:#181818;stroke-width:0.5;" x1="1829" x2="2474" y1="88.7656" y2="88.7656"/><ellipse cx="1839" cy="106.8438" fill="#84BE84" rx="3" ry="3" style="stroke:#038048;stroke-width:1.0;"/><text fill="#000000" font-family="sans-serif" font-size="20" lengthAdjust="spacing" textLength="210" x="1849" y="113.5273">getSessionCredentials()</text><ellipse cx="1839" cy="132" fill="#84BE84" rx="3" ry="3" style="stroke:#038048;stroke-width:1.0;"/><text fill="#000000" font-family="sans-serif" font-size="20" lengthAdjust="spacing" textLength="620" x="1849" y="138.6836">getconnection(String username, String password, int PORT_NUMBER)</text><ellipse cx="1839" cy="157.1563" fill="#84BE84" rx="3" ry="3" style="stroke:#038048;stroke-width:1.0;"/><text fill="#000000" font-family="sans-serif" font-size="20" lengthAdjust="spacing" textLength="339" x="1849" y="163.8398">jobOpeningsDataList(String username)</text><ellipse cx="1839" cy="182.3125" fill="#84BE84" rx="3" ry="3" style="stroke:#038048;stroke-width:1.0;"/><text fill="#000000" font-family="sans-serif" font-size="20" lengthAdjust="spacing" textLength="332" x="1849" y="188.9961">closeConnection(int PORT_NUMBER)</text></g><!--class FollowUpConnectionService--><g id="elem_FollowUpConnectionService"><rect codeLine="27" fill="#F1F1F1" height="126.625" id="FollowUpConnectionService" rx="2.5" ry="2.5" style="stroke:#181818;stroke-width:0.5;" width="898" x="1465.5" y="258.6094"/><ellipse cx="1788.5" cy="276.1875" fill="#ADD1B2" rx="12" ry="12" style="stroke:#181818;stroke-width:1.0;"/><path d="M1790.6406,271.1094 Q1790.8281,270.8594 1791.0469,270.7344 Q1791.2656,270.5938 1791.5156,270.5938 Q1791.9531,270.5938 1792.2344,270.9063 Q1792.5156,271.2031 1792.5156,271.9219 L1792.5156,273.625 Q1792.5156,274.3438 1792.2344,274.6563 Q1791.9531,274.9688 1791.5156,274.9688 Q1791.125,274.9688 1790.875,274.7344 Q1790.625,274.5156 1790.5156,273.9063 Q1790.4531,273.4844 1790.2344,273.2656 Q1789.8438,272.8281 1789.125,272.5625 Q1788.4063,272.2969 1787.6875,272.2969 Q1786.7813,272.2969 1786.0313,272.6875 Q1785.2813,273.0781 1784.7031,273.9688 Q1784.125,274.8438 1784.125,276.0469 L1784.125,277.3438 Q1784.125,278.7969 1785.1719,279.7656 Q1786.2344,280.7344 1788.0938,280.7344 Q1789.2031,280.7344 1789.9844,280.4219 Q1790.4219,280.25 1790.9375,279.7344 Q1791.25,279.4219 1791.4219,279.3281 Q1791.5938,279.2344 1791.8281,279.2344 Q1792.2188,279.2344 1792.5156,279.5469 Q1792.8281,279.8438 1792.8281,280.25 Q1792.8281,280.6563 1792.4219,281.125 Q1791.8281,281.8125 1790.8906,282.2031 Q1789.625,282.7344 1788.1094,282.7344 Q1786.3281,282.7344 1784.9063,282 Q1783.75,281.4063 1782.9375,280.1406 Q1782.125,278.875 1782.125,277.3906 L1782.125,276.0313 Q1782.125,274.4688 1782.8438,273.125 Q1783.5781,271.7656 1784.8594,271.0313 Q1786.1563,270.2969 1787.6094,270.2969 Q1788.4688,270.2969 1789.2188,270.5 Q1789.9844,270.7031 1790.6406,271.1094 Z " fill="#000000"/><text fill="#000000" font-family="sans-serif" font-size="20" lengthAdjust="spacing" textLength="243" x="1810.5" y="284.3711">FollowUpConnectionService</text><line style="stroke:#181818;stroke-width:0.5;" x1="1466.5" x2="2362.5" y1="293.7656" y2="293.7656"/><line style="stroke:#181818;stroke-width:0.5;" x1="1466.5" x2="2362.5" y1="301.7656" y2="301.7656"/><ellipse cx="1476.5" cy="319.8438" fill="#84BE84" rx="3" ry="3" style="stroke:#038048;stroke-width:1.0;"/><text fill="#000000" font-family="sans-serif" font-size="20" lengthAdjust="spacing" textLength="373" x="1486.5" y="326.5273">getJobOpeningsDataList(String username)</text><ellipse cx="1476.5" cy="345" fill="#84BE84" rx="3" ry="3" style="stroke:#038048;stroke-width:1.0;"/><text fill="#000000" font-family="sans-serif" font-size="20" lengthAdjust="spacing" textLength="332" x="1486.5" y="351.6836">closeConnection(int PORT_NUMBER)</text><ellipse cx="1476.5" cy="370.1563" fill="#84BE84" rx="3" ry="3" style="stroke:#038048;stroke-width:1.0;"/><text fill="#000000" font-family="sans-serif" font-size="20" lengthAdjust="spacing" textLength="871" x="1486.5" y="376.8398">establishConnection(String username, String password, InetAddress serverIP, int PORT_NUMBER)</text></g><!--class ClientConnectionThread--><g id="elem_ClientConnectionThread"><rect codeLine="35" fill="#F1F1F1" height="151.7813" id="ClientConnectionThread" rx="2.5" ry="2.5" style="stroke:#181818;stroke-width:0.5;" width="516" x="1506.5" y="634.6094"/><ellipse cx="1656" cy="652.1875" fill="#ADD1B2" rx="12" ry="12" style="stroke:#181818;stroke-width:1.0;"/><path d="M1658.1406,647.1094 Q1658.3281,646.8594 1658.5469,646.7344 Q1658.7656,646.5938 1659.0156,646.5938 Q1659.4531,646.5938 1659.7344,646.9063 Q1660.0156,647.2031 1660.0156,647.9219 L1660.0156,649.625 Q1660.0156,650.3438 1659.7344,650.6563 Q1659.4531,650.9688 1659.0156,650.9688 Q1658.625,650.9688 1658.375,650.7344 Q1658.125,650.5156 1658.0156,649.9063 Q1657.9531,649.4844 1657.7344,649.2656 Q1657.3438,648.8281 1656.625,648.5625 Q1655.9063,648.2969 1655.1875,648.2969 Q1654.2813,648.2969 1653.5313,648.6875 Q1652.7813,649.0781 1652.2031,649.9688 Q1651.625,650.8438 1651.625,652.0469 L1651.625,653.3438 Q1651.625,654.7969 1652.6719,655.7656 Q1653.7344,656.7344 1655.5938,656.7344 Q1656.7031,656.7344 1657.4844,656.4219 Q1657.9219,656.25 1658.4375,655.7344 Q1658.75,655.4219 1658.9219,655.3281 Q1659.0938,655.2344 1659.3281,655.2344 Q1659.7188,655.2344 1660.0156,655.5469 Q1660.3281,655.8438 1660.3281,656.25 Q1660.3281,656.6563 1659.9219,657.125 Q1659.3281,657.8125 1658.3906,658.2031 Q1657.125,658.7344 1655.6094,658.7344 Q1653.8281,658.7344 1652.4063,658 Q1651.25,657.4063 1650.4375,656.1406 Q1649.625,654.875 1649.625,653.3906 L1649.625,652.0313 Q1649.625,650.4688 1650.3438,649.125 Q1651.0781,647.7656 1652.3594,647.0313 Q1653.6563,646.2969 1655.1094,646.2969 Q1655.9688,646.2969 1656.7188,646.5 Q1657.4844,646.7031 1658.1406,647.1094 Z " fill="#000000"/><text fill="#000000" font-family="sans-serif" font-size="20" lengthAdjust="spacing" textLength="208" x="1678" y="660.3711">ClientConnectionThread</text><line style="stroke:#181818;stroke-width:0.5;" x1="1507.5" x2="2021.5" y1="669.7656" y2="669.7656"/><line style="stroke:#181818;stroke-width:0.5;" x1="1507.5" x2="2021.5" y1="677.7656" y2="677.7656"/><ellipse cx="1517.5" cy="695.8438" fill="#84BE84" rx="3" ry="3" style="stroke:#038048;stroke-width:1.0;"/><text fill="#000000" font-family="sans-serif" font-size="20" lengthAdjust="spacing" textLength="489" x="1527.5" y="702.5273">receiveJobOpeningsDataList(String username, int code)</text><ellipse cx="1517.5" cy="721" fill="#84BE84" rx="3" ry="3" style="stroke:#038048;stroke-width:1.0;"/><text fill="#000000" font-family="sans-serif" font-size="20" lengthAdjust="spacing" textLength="226" x="1527.5" y="727.6836">closeConnection(int code)</text><ellipse cx="1517.5" cy="746.1563" fill="#84BE84" rx="3" ry="3" style="stroke:#038048;stroke-width:1.0;"/><text fill="#000000" font-family="sans-serif" font-size="20" lengthAdjust="spacing" textLength="243" x="1527.5" y="752.8398">create(Socket clientSocket)</text><ellipse cx="1517.5" cy="771.3125" fill="#84BE84" rx="3" ry="3" style="stroke:#038048;stroke-width:1.0;"/><text fill="#000000" font-family="sans-serif" font-size="20" lengthAdjust="spacing" textLength="378" x="1527.5" y="777.9961">authenticationProtocol(DataDTO dataDTO)</text></g><!--class ListingRequestThread--><g id="elem_ListingRequestThread"><rect codeLine="42" fill="#F1F1F1" height="76.3125" id="ListingRequestThread" rx="2.5" ry="2.5" style="stroke:#181818;stroke-width:0.5;" width="439" x="1267" y="911.6094"/><ellipse cx="1386.5" cy="929.1875" fill="#ADD1B2" rx="12" ry="12" style="stroke:#181818;stroke-width:1.0;"/><path d="M1388.6406,924.1094 Q1388.8281,923.8594 1389.0469,923.7344 Q1389.2656,923.5938 1389.5156,923.5938 Q1389.9531,923.5938 1390.2344,923.9063 Q1390.5156,924.2031 1390.5156,924.9219 L1390.5156,926.625 Q1390.5156,927.3438 1390.2344,927.6563 Q1389.9531,927.9688 1389.5156,927.9688 Q1389.125,927.9688 1388.875,927.7344 Q1388.625,927.5156 1388.5156,926.9063 Q1388.4531,926.4844 1388.2344,926.2656 Q1387.8438,925.8281 1387.125,925.5625 Q1386.4063,925.2969 1385.6875,925.2969 Q1384.7813,925.2969 1384.0313,925.6875 Q1383.2813,926.0781 1382.7031,926.9688 Q1382.125,927.8438 1382.125,929.0469 L1382.125,930.3438 Q1382.125,931.7969 1383.1719,932.7656 Q1384.2344,933.7344 1386.0938,933.7344 Q1387.2031,933.7344 1387.9844,933.4219 Q1388.4219,933.25 1388.9375,932.7344 Q1389.25,932.4219 1389.4219,932.3281 Q1389.5938,932.2344 1389.8281,932.2344 Q1390.2188,932.2344 1390.5156,932.5469 Q1390.8281,932.8438 1390.8281,933.25 Q1390.8281,933.6563 1390.4219,934.125 Q1389.8281,934.8125 1388.8906,935.2031 Q1387.625,935.7344 1386.1094,935.7344 Q1384.3281,935.7344 1382.9063,935 Q1381.75,934.4063 1380.9375,933.1406 Q1380.125,931.875 1380.125,930.3906 L1380.125,929.0313 Q1380.125,927.4688 1380.8438,926.125 Q1381.5781,924.7656 1382.8594,924.0313 Q1384.1563,923.2969 1385.6094,923.2969 Q1386.4688,923.2969 1387.2188,923.5 Q1387.9844,923.7031 1388.6406,924.1094 Z " fill="#000000"/><text fill="#000000" font-family="sans-serif" font-size="20" lengthAdjust="spacing" textLength="191" x="1408.5" y="937.3711">ListingRequestThread</text><line style="stroke:#181818;stroke-width:0.5;" x1="1268" x2="1705" y1="946.7656" y2="946.7656"/><line style="stroke:#181818;stroke-width:0.5;" x1="1268" x2="1705" y1="954.7656" y2="954.7656"/><ellipse cx="1278" cy="972.8438" fill="#84BE84" rx="3" ry="3" style="stroke:#038048;stroke-width:1.0;"/><text fill="#000000" font-family="sans-serif" font-size="20" lengthAdjust="spacing" textLength="412" x="1288" y="979.5273">getJobOpeningsList(int code, String username)</text></g><!--class JobOpeningManagementService--><g id="elem_JobOpeningManagementService"><rect codeLine="47" fill="#F1F1F1" height="76.3125" id="JobOpeningManagementService" rx="2.5" ry="2.5" style="stroke:#181818;stroke-width:0.5;" width="444" x="277.5" y="485.1094"/><ellipse cx="353" cy="502.6875" fill="#ADD1B2" rx="12" ry="12" style="stroke:#181818;stroke-width:1.0;"/><path d="M355.1406,497.6094 Q355.3281,497.3594 355.5469,497.2344 Q355.7656,497.0938 356.0156,497.0938 Q356.4531,497.0938 356.7344,497.4063 Q357.0156,497.7031 357.0156,498.4219 L357.0156,500.125 Q357.0156,500.8438 356.7344,501.1563 Q356.4531,501.4688 356.0156,501.4688 Q355.625,501.4688 355.375,501.2344 Q355.125,501.0156 355.0156,500.4063 Q354.9531,499.9844 354.7344,499.7656 Q354.3438,499.3281 353.625,499.0625 Q352.9063,498.7969 352.1875,498.7969 Q351.2813,498.7969 350.5313,499.1875 Q349.7813,499.5781 349.2031,500.4688 Q348.625,501.3438 348.625,502.5469 L348.625,503.8438 Q348.625,505.2969 349.6719,506.2656 Q350.7344,507.2344 352.5938,507.2344 Q353.7031,507.2344 354.4844,506.9219 Q354.9219,506.75 355.4375,506.2344 Q355.75,505.9219 355.9219,505.8281 Q356.0938,505.7344 356.3281,505.7344 Q356.7188,505.7344 357.0156,506.0469 Q357.3281,506.3438 357.3281,506.75 Q357.3281,507.1563 356.9219,507.625 Q356.3281,508.3125 355.3906,508.7031 Q354.125,509.2344 352.6094,509.2344 Q350.8281,509.2344 349.4063,508.5 Q348.25,507.9063 347.4375,506.6406 Q346.625,505.375 346.625,503.8906 L346.625,502.5313 Q346.625,500.9688 347.3438,499.625 Q348.0781,498.2656 349.3594,497.5313 Q350.6563,496.7969 352.1094,496.7969 Q352.9688,496.7969 353.7188,497 Q354.4844,497.2031 355.1406,497.6094 Z " fill="#000000"/><text fill="#000000" font-family="sans-serif" font-size="20" lengthAdjust="spacing" textLength="284" x="375" y="510.8711">JobOpeningManagementService</text><line style="stroke:#181818;stroke-width:0.5;" x1="278.5" x2="720.5" y1="520.2656" y2="520.2656"/><line style="stroke:#181818;stroke-width:0.5;" x1="278.5" x2="720.5" y1="528.2656" y2="528.2656"/><ellipse cx="288.5" cy="546.3438" fill="#84BE84" rx="3" ry="3" style="stroke:#038048;stroke-width:1.0;"/><text fill="#000000" font-family="sans-serif" font-size="20" lengthAdjust="spacing" textLength="417" x="298.5" y="553.0273">getCustomerJobOpeningData(String username)</text></g><!--class JobOpeningListDTOService--><g id="elem_JobOpeningListDTOService"><rect codeLine="52" fill="#F1F1F1" height="76.3125" id="JobOpeningListDTOService" rx="2.5" ry="2.5" style="stroke:#181818;stroke-width:0.5;" width="781" x="451" y="911.6094"/><ellipse cx="715.5" cy="929.1875" fill="#ADD1B2" rx="12" ry="12" style="stroke:#181818;stroke-width:1.0;"/><path d="M717.6406,924.1094 Q717.8281,923.8594 718.0469,923.7344 Q718.2656,923.5938 718.5156,923.5938 Q718.9531,923.5938 719.2344,923.9063 Q719.5156,924.2031 719.5156,924.9219 L719.5156,926.625 Q719.5156,927.3438 719.2344,927.6563 Q718.9531,927.9688 718.5156,927.9688 Q718.125,927.9688 717.875,927.7344 Q717.625,927.5156 717.5156,926.9063 Q717.4531,926.4844 717.2344,926.2656 Q716.8438,925.8281 716.125,925.5625 Q715.4063,925.2969 714.6875,925.2969 Q713.7813,925.2969 713.0313,925.6875 Q712.2813,926.0781 711.7031,926.9688 Q711.125,927.8438 711.125,929.0469 L711.125,930.3438 Q711.125,931.7969 712.1719,932.7656 Q713.2344,933.7344 715.0938,933.7344 Q716.2031,933.7344 716.9844,933.4219 Q717.4219,933.25 717.9375,932.7344 Q718.25,932.4219 718.4219,932.3281 Q718.5938,932.2344 718.8281,932.2344 Q719.2188,932.2344 719.5156,932.5469 Q719.8281,932.8438 719.8281,933.25 Q719.8281,933.6563 719.4219,934.125 Q718.8281,934.8125 717.8906,935.2031 Q716.625,935.7344 715.1094,935.7344 Q713.3281,935.7344 711.9063,935 Q710.75,934.4063 709.9375,933.1406 Q709.125,931.875 709.125,930.3906 L709.125,929.0313 Q709.125,927.4688 709.8438,926.125 Q710.5781,924.7656 711.8594,924.0313 Q713.1563,923.2969 714.6094,923.2969 Q715.4688,923.2969 716.2188,923.5 Q716.9844,923.7031 717.6406,924.1094 Z " fill="#000000"/><text fill="#000000" font-family="sans-serif" font-size="20" lengthAdjust="spacing" textLength="243" x="737.5" y="937.3711">JobOpeningListDTOService</text><line style="stroke:#181818;stroke-width:0.5;" x1="452" x2="1231" y1="946.7656" y2="946.7656"/><line style="stroke:#181818;stroke-width:0.5;" x1="452" x2="1231" y1="954.7656" y2="954.7656"/><ellipse cx="462" cy="972.8438" fill="#84BE84" rx="3" ry="3" style="stroke:#038048;stroke-width:1.0;"/><text fill="#000000" font-family="sans-serif" font-size="20" lengthAdjust="spacing" textLength="754" x="472" y="979.5273">convertJobOpeningsToCustomerJobOpeningDTO(List&lt;JobOpening&gt; jobOpeningsList)</text></g><!--class CustomerManagementService--><g id="elem_CustomerManagementService"><rect codeLine="56" fill="#F1F1F1" height="76.3125" id="CustomerManagementService" rx="2.5" ry="2.5" style="stroke:#181818;stroke-width:0.5;" width="409" x="7" y="911.6094"/><ellipse cx="75" cy="929.1875" fill="#ADD1B2" rx="12" ry="12" style="stroke:#181818;stroke-width:1.0;"/><path d="M77.1406,924.1094 Q77.3281,923.8594 77.5469,923.7344 Q77.7656,923.5938 78.0156,923.5938 Q78.4531,923.5938 78.7344,923.9063 Q79.0156,924.2031 79.0156,924.9219 L79.0156,926.625 Q79.0156,927.3438 78.7344,927.6563 Q78.4531,927.9688 78.0156,927.9688 Q77.625,927.9688 77.375,927.7344 Q77.125,927.5156 77.0156,926.9063 Q76.9531,926.4844 76.7344,926.2656 Q76.3438,925.8281 75.625,925.5625 Q74.9063,925.2969 74.1875,925.2969 Q73.2813,925.2969 72.5313,925.6875 Q71.7813,926.0781 71.2031,926.9688 Q70.625,927.8438 70.625,929.0469 L70.625,930.3438 Q70.625,931.7969 71.6719,932.7656 Q72.7344,933.7344 74.5938,933.7344 Q75.7031,933.7344 76.4844,933.4219 Q76.9219,933.25 77.4375,932.7344 Q77.75,932.4219 77.9219,932.3281 Q78.0938,932.2344 78.3281,932.2344 Q78.7188,932.2344 79.0156,932.5469 Q79.3281,932.8438 79.3281,933.25 Q79.3281,933.6563 78.9219,934.125 Q78.3281,934.8125 77.3906,935.2031 Q76.125,935.7344 74.6094,935.7344 Q72.8281,935.7344 71.4063,935 Q70.25,934.4063 69.4375,933.1406 Q68.625,931.875 68.625,930.3906 L68.625,929.0313 Q68.625,927.4688 69.3438,926.125 Q70.0781,924.7656 71.3594,924.0313 Q72.6563,923.2969 74.1094,923.2969 Q74.9688,923.2969 75.7188,923.5 Q76.4844,923.7031 77.1406,924.1094 Z " fill="#000000"/><text fill="#000000" font-family="sans-serif" font-size="20" lengthAdjust="spacing" textLength="264" x="97" y="937.3711">CustomerManagementService</text><line style="stroke:#181818;stroke-width:0.5;" x1="8" x2="415" y1="946.7656" y2="946.7656"/><line style="stroke:#181818;stroke-width:0.5;" x1="8" x2="415" y1="954.7656" y2="954.7656"/><ellipse cx="18" cy="972.8438" fill="#84BE84" rx="3" ry="3" style="stroke:#038048;stroke-width:1.0;"/><text fill="#000000" font-family="sans-serif" font-size="20" lengthAdjust="spacing" textLength="382" x="28" y="979.5273">getCustomerByUsername(String username)</text></g><!--class CustomerRepository--><g id="elem_CustomerRepository"><rect codeLine="60" fill="#F1F1F1" height="76.3125" id="CustomerRepository" rx="2.5" ry="2.5" style="stroke:#181818;stroke-width:0.5;" width="409" x="7" y="1086.6094"/><ellipse cx="117" cy="1104.1875" fill="#ADD1B2" rx="12" ry="12" style="stroke:#181818;stroke-width:1.0;"/><path d="M119.1406,1099.1094 Q119.3281,1098.8594 119.5469,1098.7344 Q119.7656,1098.5938 120.0156,1098.5938 Q120.4531,1098.5938 120.7344,1098.9063 Q121.0156,1099.2031 121.0156,1099.9219 L121.0156,1101.625 Q121.0156,1102.3438 120.7344,1102.6563 Q120.4531,1102.9688 120.0156,1102.9688 Q119.625,1102.9688 119.375,1102.7344 Q119.125,1102.5156 119.0156,1101.9063 Q118.9531,1101.4844 118.7344,1101.2656 Q118.3438,1100.8281 117.625,1100.5625 Q116.9063,1100.2969 116.1875,1100.2969 Q115.2813,1100.2969 114.5313,1100.6875 Q113.7813,1101.0781 113.2031,1101.9688 Q112.625,1102.8438 112.625,1104.0469 L112.625,1105.3438 Q112.625,1106.7969 113.6719,1107.7656 Q114.7344,1108.7344 116.5938,1108.7344 Q117.7031,1108.7344 118.4844,1108.4219 Q118.9219,1108.25 119.4375,1107.7344 Q119.75,1107.4219 119.9219,1107.3281 Q120.0938,1107.2344 120.3281,1107.2344 Q120.7188,1107.2344 121.0156,1107.5469 Q121.3281,1107.8438 121.3281,1108.25 Q121.3281,1108.6563 120.9219,1109.125 Q120.3281,1109.8125 119.3906,1110.2031 Q118.125,1110.7344 116.6094,1110.7344 Q114.8281,1110.7344 113.4063,1110 Q112.25,1109.4063 111.4375,1108.1406 Q110.625,1106.875 110.625,1105.3906 L110.625,1104.0313 Q110.625,1102.4688 111.3438,1101.125 Q112.0781,1099.7656 113.3594,1099.0313 Q114.6563,1098.2969 116.1094,1098.2969 Q116.9688,1098.2969 117.7188,1098.5 Q118.4844,1098.7031 119.1406,1099.1094 Z " fill="#000000"/><text fill="#000000" font-family="sans-serif" font-size="20" lengthAdjust="spacing" textLength="180" x="139" y="1112.3711">CustomerRepository</text><line style="stroke:#181818;stroke-width:0.5;" x1="8" x2="415" y1="1121.7656" y2="1121.7656"/><line style="stroke:#181818;stroke-width:0.5;" x1="8" x2="415" y1="1129.7656" y2="1129.7656"/><ellipse cx="18" cy="1147.8438" fill="#84BE84" rx="3" ry="3" style="stroke:#038048;stroke-width:1.0;"/><text fill="#000000" font-family="sans-serif" font-size="20" lengthAdjust="spacing" textLength="382" x="28" y="1154.5273">getCustomerByUsername(String username)</text></g><!--class JobOpeningRepository--><g id="elem_JobOpeningRepository"><rect codeLine="64" fill="#F1F1F1" height="76.3125" id="JobOpeningRepository" rx="2.5" ry="2.5" style="stroke:#181818;stroke-width:0.5;" width="564" x="485.5" y="672.6094"/><ellipse cx="663" cy="690.1875" fill="#ADD1B2" rx="12" ry="12" style="stroke:#181818;stroke-width:1.0;"/><path d="M665.1406,685.1094 Q665.3281,684.8594 665.5469,684.7344 Q665.7656,684.5938 666.0156,684.5938 Q666.4531,684.5938 666.7344,684.9063 Q667.0156,685.2031 667.0156,685.9219 L667.0156,687.625 Q667.0156,688.3438 666.7344,688.6563 Q666.4531,688.9688 666.0156,688.9688 Q665.625,688.9688 665.375,688.7344 Q665.125,688.5156 665.0156,687.9063 Q664.9531,687.4844 664.7344,687.2656 Q664.3438,686.8281 663.625,686.5625 Q662.9063,686.2969 662.1875,686.2969 Q661.2813,686.2969 660.5313,686.6875 Q659.7813,687.0781 659.2031,687.9688 Q658.625,688.8438 658.625,690.0469 L658.625,691.3438 Q658.625,692.7969 659.6719,693.7656 Q660.7344,694.7344 662.5938,694.7344 Q663.7031,694.7344 664.4844,694.4219 Q664.9219,694.25 665.4375,693.7344 Q665.75,693.4219 665.9219,693.3281 Q666.0938,693.2344 666.3281,693.2344 Q666.7188,693.2344 667.0156,693.5469 Q667.3281,693.8438 667.3281,694.25 Q667.3281,694.6563 666.9219,695.125 Q666.3281,695.8125 665.3906,696.2031 Q664.125,696.7344 662.6094,696.7344 Q660.8281,696.7344 659.4063,696 Q658.25,695.4063 657.4375,694.1406 Q656.625,692.875 656.625,691.3906 L656.625,690.0313 Q656.625,688.4688 657.3438,687.125 Q658.0781,685.7656 659.3594,685.0313 Q660.6563,684.2969 662.1094,684.2969 Q662.9688,684.2969 663.7188,684.5 Q664.4844,684.7031 665.1406,685.1094 Z " fill="#000000"/><text fill="#000000" font-family="sans-serif" font-size="20" lengthAdjust="spacing" textLength="200" x="685" y="698.3711">JobOpeningRepository</text><line style="stroke:#181818;stroke-width:0.5;" x1="486.5" x2="1048.5" y1="707.7656" y2="707.7656"/><line style="stroke:#181818;stroke-width:0.5;" x1="486.5" x2="1048.5" y1="715.7656" y2="715.7656"/><ellipse cx="496.5" cy="733.8438" fill="#84BE84" rx="3" ry="3" style="stroke:#038048;stroke-width:1.0;"/><text fill="#000000" font-family="sans-serif" font-size="20" lengthAdjust="spacing" textLength="537" x="506.5" y="740.5273">findAllJobOpeningsWithCustomerCode(String customerCode)</text></g><!--class AuthorizationService--><g id="elem_AuthorizationService"><rect codeLine="68" fill="#F1F1F1" height="76.3125" id="AuthorizationService" rx="2.5" ry="2.5" style="stroke:#181818;stroke-width:0.5;" width="211" x="2399" y="284.1094"/><ellipse cx="2415" cy="301.6875" fill="#ADD1B2" rx="12" ry="12" style="stroke:#181818;stroke-width:1.0;"/><path d="M2417.1406,296.6094 Q2417.3281,296.3594 2417.5469,296.2344 Q2417.7656,296.0938 2418.0156,296.0938 Q2418.4531,296.0938 2418.7344,296.4063 Q2419.0156,296.7031 2419.0156,297.4219 L2419.0156,299.125 Q2419.0156,299.8438 2418.7344,300.1563 Q2418.4531,300.4688 2418.0156,300.4688 Q2417.625,300.4688 2417.375,300.2344 Q2417.125,300.0156 2417.0156,299.4063 Q2416.9531,298.9844 2416.7344,298.7656 Q2416.3438,298.3281 2415.625,298.0625 Q2414.9063,297.7969 2414.1875,297.7969 Q2413.2813,297.7969 2412.5313,298.1875 Q2411.7813,298.5781 2411.2031,299.4688 Q2410.625,300.3438 2410.625,301.5469 L2410.625,302.8438 Q2410.625,304.2969 2411.6719,305.2656 Q2412.7344,306.2344 2414.5938,306.2344 Q2415.7031,306.2344 2416.4844,305.9219 Q2416.9219,305.75 2417.4375,305.2344 Q2417.75,304.9219 2417.9219,304.8281 Q2418.0938,304.7344 2418.3281,304.7344 Q2418.7188,304.7344 2419.0156,305.0469 Q2419.3281,305.3438 2419.3281,305.75 Q2419.3281,306.1563 2418.9219,306.625 Q2418.3281,307.3125 2417.3906,307.7031 Q2416.125,308.2344 2414.6094,308.2344 Q2412.8281,308.2344 2411.4063,307.5 Q2410.25,306.9063 2409.4375,305.6406 Q2408.625,304.375 2408.625,302.8906 L2408.625,301.5313 Q2408.625,299.9688 2409.3438,298.625 Q2410.0781,297.2656 2411.3594,296.5313 Q2412.6563,295.7969 2414.1094,295.7969 Q2414.9688,295.7969 2415.7188,296 Q2416.4844,296.2031 2417.1406,296.6094 Z " fill="#000000"/><text fill="#000000" font-family="sans-serif" font-size="20" lengthAdjust="spacing" textLength="177" x="2430" y="309.8711">AuthorizationService</text><line style="stroke:#181818;stroke-width:0.5;" x1="2400" x2="2609" y1="319.2656" y2="319.2656"/><rect fill="none" height="6" style="stroke:#C82930;stroke-width:1.0;" width="6" x="2407" y="334.3438"/><text fill="#000000" font-family="sans-serif" font-size="20" lengthAdjust="spacing" textLength="96" x="2420" y="344.0273">theSession</text><line style="stroke:#181818;stroke-width:0.5;" x1="2400" x2="2609" y1="352.4219" y2="352.4219"/></g><!--class UserSession--><g id="elem_UserSession"><rect codeLine="72" fill="#F1F1F1" height="76.3125" id="UserSession" rx="2.5" ry="2.5" style="stroke:#181818;stroke-width:0.5;" width="185" x="2571" y="485.1094"/><ellipse cx="2605.45" cy="502.6875" fill="#ADD1B2" rx="12" ry="12" style="stroke:#181818;stroke-width:1.0;"/><path d="M2607.5906,497.6094 Q2607.7781,497.3594 2607.9969,497.2344 Q2608.2156,497.0938 2608.4656,497.0938 Q2608.9031,497.0938 2609.1844,497.4063 Q2609.4656,497.7031 2609.4656,498.4219 L2609.4656,500.125 Q2609.4656,500.8438 2609.1844,501.1563 Q2608.9031,501.4688 2608.4656,501.4688 Q2608.075,501.4688 2607.825,501.2344 Q2607.575,501.0156 2607.4656,500.4063 Q2607.4031,499.9844 2607.1844,499.7656 Q2606.7938,499.3281 2606.075,499.0625 Q2605.3563,498.7969 2604.6375,498.7969 Q2603.7313,498.7969 2602.9813,499.1875 Q2602.2313,499.5781 2601.6531,500.4688 Q2601.075,501.3438 2601.075,502.5469 L2601.075,503.8438 Q2601.075,505.2969 2602.1219,506.2656 Q2603.1844,507.2344 2605.0438,507.2344 Q2606.1531,507.2344 2606.9344,506.9219 Q2607.3719,506.75 2607.8875,506.2344 Q2608.2,505.9219 2608.3719,505.8281 Q2608.5438,505.7344 2608.7781,505.7344 Q2609.1688,505.7344 2609.4656,506.0469 Q2609.7781,506.3438 2609.7781,506.75 Q2609.7781,507.1563 2609.3719,507.625 Q2608.7781,508.3125 2607.8406,508.7031 Q2606.575,509.2344 2605.0594,509.2344 Q2603.2781,509.2344 2601.8563,508.5 Q2600.7,507.9063 2599.8875,506.6406 Q2599.075,505.375 2599.075,503.8906 L2599.075,502.5313 Q2599.075,500.9688 2599.7938,499.625 Q2600.5281,498.2656 2601.8094,497.5313 Q2603.1063,496.7969 2604.5594,496.7969 Q2605.4188,496.7969 2606.1688,497 Q2606.9344,497.2031 2607.5906,497.6094 Z " fill="#000000"/><text fill="#000000" font-family="sans-serif" font-size="20" lengthAdjust="spacing" textLength="110" x="2624.55" y="510.8711">UserSession</text><line style="stroke:#181818;stroke-width:0.5;" x1="2572" x2="2755" y1="520.2656" y2="520.2656"/><rect fill="none" height="6" style="stroke:#C82930;stroke-width:1.0;" width="6" x="2579" y="535.3438"/><text fill="#000000" font-family="sans-serif" font-size="20" lengthAdjust="spacing" textLength="158" x="2592" y="545.0273">authenticatedUser</text><line style="stroke:#181818;stroke-width:0.5;" x1="2572" x2="2755" y1="553.4219" y2="553.4219"/></g><!--class DataDTO--><g id="elem_DataDTO"><rect codeLine="76" fill="#F1F1F1" height="76.3125" id="DataDTO" rx="2.5" ry="2.5" style="stroke:#181818;stroke-width:0.5;" width="717" x="2221" y="911.6094"/><ellipse cx="2533" cy="929.1875" fill="#ADD1B2" rx="12" ry="12" style="stroke:#181818;stroke-width:1.0;"/><path d="M2535.1406,924.1094 Q2535.3281,923.8594 2535.5469,923.7344 Q2535.7656,923.5938 2536.0156,923.5938 Q2536.4531,923.5938 2536.7344,923.9063 Q2537.0156,924.2031 2537.0156,924.9219 L2537.0156,926.625 Q2537.0156,927.3438 2536.7344,927.6563 Q2536.4531,927.9688 2536.0156,927.9688 Q2535.625,927.9688 2535.375,927.7344 Q2535.125,927.5156 2535.0156,926.9063 Q2534.9531,926.4844 2534.7344,926.2656 Q2534.3438,925.8281 2533.625,925.5625 Q2532.9063,925.2969 2532.1875,925.2969 Q2531.2813,925.2969 2530.5313,925.6875 Q2529.7813,926.0781 2529.2031,926.9688 Q2528.625,927.8438 2528.625,929.0469 L2528.625,930.3438 Q2528.625,931.7969 2529.6719,932.7656 Q2530.7344,933.7344 2532.5938,933.7344 Q2533.7031,933.7344 2534.4844,933.4219 Q2534.9219,933.25 2535.4375,932.7344 Q2535.75,932.4219 2535.9219,932.3281 Q2536.0938,932.2344 2536.3281,932.2344 Q2536.7188,932.2344 2537.0156,932.5469 Q2537.3281,932.8438 2537.3281,933.25 Q2537.3281,933.6563 2536.9219,934.125 Q2536.3281,934.8125 2535.3906,935.2031 Q2534.125,935.7344 2532.6094,935.7344 Q2530.8281,935.7344 2529.4063,935 Q2528.25,934.4063 2527.4375,933.1406 Q2526.625,931.875 2526.625,930.3906 L2526.625,929.0313 Q2526.625,927.4688 2527.3438,926.125 Q2528.0781,924.7656 2529.3594,924.0313 Q2530.6563,923.2969 2532.1094,923.2969 Q2532.9688,923.2969 2533.7188,923.5 Q2534.4844,923.7031 2535.1406,924.1094 Z " fill="#000000"/><text fill="#000000" font-family="sans-serif" font-size="20" lengthAdjust="spacing" textLength="84" x="2555" y="937.3711">DataDTO</text><line style="stroke:#181818;stroke-width:0.5;" x1="2222" x2="2937" y1="946.7656" y2="946.7656"/><line style="stroke:#181818;stroke-width:0.5;" x1="2222" x2="2937" y1="954.7656" y2="954.7656"/><ellipse cx="2232" cy="972.8438" fill="#84BE84" rx="3" ry="3" style="stroke:#038048;stroke-width:1.0;"/><text fill="#000000" font-family="sans-serif" font-size="20" lengthAdjust="spacing" textLength="690" x="2242" y="979.5273">create(int version, int code, List&lt;DTOable&gt; jobOpeningCustomerDataDTOList)</text></g><!--class FollowUpServer--><g id="elem_FollowUpServer"><rect codeLine="80" fill="#F1F1F1" height="51.1563" id="FollowUpServer" rx="2.5" ry="2.5" style="stroke:#181818;stroke-width:0.5;" width="173" x="1781" y="497.6094"/><ellipse cx="1797" cy="515.1875" fill="#ADD1B2" rx="12" ry="12" style="stroke:#181818;stroke-width:1.0;"/><path d="M1799.1406,510.1094 Q1799.3281,509.8594 1799.5469,509.7344 Q1799.7656,509.5938 1800.0156,509.5938 Q1800.4531,509.5938 1800.7344,509.9063 Q1801.0156,510.2031 1801.0156,510.9219 L1801.0156,512.625 Q1801.0156,513.3438 1800.7344,513.6563 Q1800.4531,513.9688 1800.0156,513.9688 Q1799.625,513.9688 1799.375,513.7344 Q1799.125,513.5156 1799.0156,512.9063 Q1798.9531,512.4844 1798.7344,512.2656 Q1798.3438,511.8281 1797.625,511.5625 Q1796.9063,511.2969 1796.1875,511.2969 Q1795.2813,511.2969 1794.5313,511.6875 Q1793.7813,512.0781 1793.2031,512.9688 Q1792.625,513.8438 1792.625,515.0469 L1792.625,516.3438 Q1792.625,517.7969 1793.6719,518.7656 Q1794.7344,519.7344 1796.5938,519.7344 Q1797.7031,519.7344 1798.4844,519.4219 Q1798.9219,519.25 1799.4375,518.7344 Q1799.75,518.4219 1799.9219,518.3281 Q1800.0938,518.2344 1800.3281,518.2344 Q1800.7188,518.2344 1801.0156,518.5469 Q1801.3281,518.8438 1801.3281,519.25 Q1801.3281,519.6563 1800.9219,520.125 Q1800.3281,520.8125 1799.3906,521.2031 Q1798.125,521.7344 1796.6094,521.7344 Q1794.8281,521.7344 1793.4063,521 Q1792.25,520.4063 1791.4375,519.1406 Q1790.625,517.875 1790.625,516.3906 L1790.625,515.0313 Q1790.625,513.4688 1791.3438,512.125 Q1792.0781,510.7656 1793.3594,510.0313 Q1794.6563,509.2969 1796.1094,509.2969 Q1796.9688,509.2969 1797.7188,509.5 Q1798.4844,509.7031 1799.1406,510.1094 Z " fill="#000000"/><text fill="#000000" font-family="sans-serif" font-size="20" lengthAdjust="spacing" textLength="139" x="1812" y="523.3711">FollowUpServer</text><line style="stroke:#181818;stroke-width:0.5;" x1="1782" x2="1953" y1="532.7656" y2="532.7656"/><line style="stroke:#181818;stroke-width:0.5;" x1="1782" x2="1953" y1="540.7656" y2="540.7656"/></g><!--class AuthenticationService--><g id="elem_AuthenticationService"><rect codeLine="82" fill="#F1F1F1" height="151.7813" id="AuthenticationService" rx="2.5" ry="2.5" style="stroke:#181818;stroke-width:0.5;" width="444" x="1741.5" y="873.6094"/><ellipse cx="1865.5" cy="891.1875" fill="#ADD1B2" rx="12" ry="12" style="stroke:#181818;stroke-width:1.0;"/><path d="M1867.6406,886.1094 Q1867.8281,885.8594 1868.0469,885.7344 Q1868.2656,885.5938 1868.5156,885.5938 Q1868.9531,885.5938 1869.2344,885.9063 Q1869.5156,886.2031 1869.5156,886.9219 L1869.5156,888.625 Q1869.5156,889.3438 1869.2344,889.6563 Q1868.9531,889.9688 1868.5156,889.9688 Q1868.125,889.9688 1867.875,889.7344 Q1867.625,889.5156 1867.5156,888.9063 Q1867.4531,888.4844 1867.2344,888.2656 Q1866.8438,887.8281 1866.125,887.5625 Q1865.4063,887.2969 1864.6875,887.2969 Q1863.7813,887.2969 1863.0313,887.6875 Q1862.2813,888.0781 1861.7031,888.9688 Q1861.125,889.8438 1861.125,891.0469 L1861.125,892.3438 Q1861.125,893.7969 1862.1719,894.7656 Q1863.2344,895.7344 1865.0938,895.7344 Q1866.2031,895.7344 1866.9844,895.4219 Q1867.4219,895.25 1867.9375,894.7344 Q1868.25,894.4219 1868.4219,894.3281 Q1868.5938,894.2344 1868.8281,894.2344 Q1869.2188,894.2344 1869.5156,894.5469 Q1869.8281,894.8438 1869.8281,895.25 Q1869.8281,895.6563 1869.4219,896.125 Q1868.8281,896.8125 1867.8906,897.2031 Q1866.625,897.7344 1865.1094,897.7344 Q1863.3281,897.7344 1861.9063,897 Q1860.75,896.4063 1859.9375,895.1406 Q1859.125,893.875 1859.125,892.3906 L1859.125,891.0313 Q1859.125,889.4688 1859.8438,888.125 Q1860.5781,886.7656 1861.8594,886.0313 Q1863.1563,885.2969 1864.6094,885.2969 Q1865.4688,885.2969 1866.2188,885.5 Q1866.9844,885.7031 1867.6406,886.1094 Z " fill="#000000"/><text fill="#000000" font-family="sans-serif" font-size="20" lengthAdjust="spacing" textLength="187" x="1887.5" y="899.3711">AuthenticationService</text><line style="stroke:#181818;stroke-width:0.5;" x1="1742.5" x2="2184.5" y1="908.7656" y2="908.7656"/><line style="stroke:#181818;stroke-width:0.5;" x1="1742.5" x2="2184.5" y1="916.7656" y2="916.7656"/><ellipse cx="1752.5" cy="972.5781" fill="#84BE84" rx="3" ry="3" style="stroke:#038048;stroke-width:1.0;"/><text fill="#000000" font-family="sans-serif" font-size="20" lengthAdjust="spacing" textLength="417" x="1762.5" y="941.5273">authenticate(String username, String password,</text><text fill="#000000" font-family="sans-serif" font-size="20" lengthAdjust="spacing" textLength="393" x="1768.5" y="966.6836">Role... BaseRoles.CUSTOMER_MANAGER,</text><text fill="#000000" font-family="sans-serif" font-size="20" lengthAdjust="spacing" textLength="219" x="1768.5" y="991.8398">BaseRoles.CUSTOMER,</text><text fill="#000000" font-family="sans-serif" font-size="20" lengthAdjust="spacing" textLength="220" x="1768.5" y="1016.9961">BaseRoles.CANDIDATE)</text></g><!--class JobOpening--><g id="elem_JobOpening"><rect codeLine="86" fill="#F1F1F1" height="76.3125" id="JobOpening" rx="2.5" ry="2.5" style="stroke:#181818;stroke-width:0.5;" width="139" x="761" y="485.1094"/><ellipse cx="777" cy="502.6875" fill="#ADD1B2" rx="12" ry="12" style="stroke:#181818;stroke-width:1.0;"/><path d="M779.1406,497.6094 Q779.3281,497.3594 779.5469,497.2344 Q779.7656,497.0938 780.0156,497.0938 Q780.4531,497.0938 780.7344,497.4063 Q781.0156,497.7031 781.0156,498.4219 L781.0156,500.125 Q781.0156,500.8438 780.7344,501.1563 Q780.4531,501.4688 780.0156,501.4688 Q779.625,501.4688 779.375,501.2344 Q779.125,501.0156 779.0156,500.4063 Q778.9531,499.9844 778.7344,499.7656 Q778.3438,499.3281 777.625,499.0625 Q776.9063,498.7969 776.1875,498.7969 Q775.2813,498.7969 774.5313,499.1875 Q773.7813,499.5781 773.2031,500.4688 Q772.625,501.3438 772.625,502.5469 L772.625,503.8438 Q772.625,505.2969 773.6719,506.2656 Q774.7344,507.2344 776.5938,507.2344 Q777.7031,507.2344 778.4844,506.9219 Q778.9219,506.75 779.4375,506.2344 Q779.75,505.9219 779.9219,505.8281 Q780.0938,505.7344 780.3281,505.7344 Q780.7188,505.7344 781.0156,506.0469 Q781.3281,506.3438 781.3281,506.75 Q781.3281,507.1563 780.9219,507.625 Q780.3281,508.3125 779.3906,508.7031 Q778.125,509.2344 776.6094,509.2344 Q774.8281,509.2344 773.4063,508.5 Q772.25,507.9063 771.4375,506.6406 Q770.625,505.375 770.625,503.8906 L770.625,502.5313 Q770.625,500.9688 771.3438,499.625 Q772.0781,498.2656 773.3594,497.5313 Q774.6563,496.7969 776.1094,496.7969 Q776.9688,496.7969 777.7188,497 Q778.4844,497.2031 779.1406,497.6094 Z " fill="#000000"/><text fill="#000000" font-family="sans-serif" font-size="20" lengthAdjust="spacing" textLength="105" x="792" y="510.8711">JobOpening</text><line style="stroke:#181818;stroke-width:0.5;" x1="762" x2="899" y1="520.2656" y2="520.2656"/><line style="stroke:#181818;stroke-width:0.5;" x1="762" x2="899" y1="528.2656" y2="528.2656"/><ellipse cx="772" cy="546.3438" fill="#84BE84" rx="3" ry="3" style="stroke:#038048;stroke-width:1.0;"/><text fill="#000000" font-family="sans-serif" font-size="20" lengthAdjust="spacing" textLength="73" x="782" y="553.0273">toDTO()</text></g><!--class Socket--><g id="elem_Socket"><rect codeLine="90" fill="#F1F1F1" height="101.4688" id="Socket" rx="2.5" ry="2.5" style="stroke:#181818;stroke-width:0.5;" width="475" x="1989" y="472.6094"/><ellipse cx="2191.5" cy="490.1875" fill="#ADD1B2" rx="12" ry="12" style="stroke:#181818;stroke-width:1.0;"/><path d="M2193.6406,485.1094 Q2193.8281,484.8594 2194.0469,484.7344 Q2194.2656,484.5938 2194.5156,484.5938 Q2194.9531,484.5938 2195.2344,484.9063 Q2195.5156,485.2031 2195.5156,485.9219 L2195.5156,487.625 Q2195.5156,488.3438 2195.2344,488.6563 Q2194.9531,488.9688 2194.5156,488.9688 Q2194.125,488.9688 2193.875,488.7344 Q2193.625,488.5156 2193.5156,487.9063 Q2193.4531,487.4844 2193.2344,487.2656 Q2192.8438,486.8281 2192.125,486.5625 Q2191.4063,486.2969 2190.6875,486.2969 Q2189.7813,486.2969 2189.0313,486.6875 Q2188.2813,487.0781 2187.7031,487.9688 Q2187.125,488.8438 2187.125,490.0469 L2187.125,491.3438 Q2187.125,492.7969 2188.1719,493.7656 Q2189.2344,494.7344 2191.0938,494.7344 Q2192.2031,494.7344 2192.9844,494.4219 Q2193.4219,494.25 2193.9375,493.7344 Q2194.25,493.4219 2194.4219,493.3281 Q2194.5938,493.2344 2194.8281,493.2344 Q2195.2188,493.2344 2195.5156,493.5469 Q2195.8281,493.8438 2195.8281,494.25 Q2195.8281,494.6563 2195.4219,495.125 Q2194.8281,495.8125 2193.8906,496.2031 Q2192.625,496.7344 2191.1094,496.7344 Q2189.3281,496.7344 2187.9063,496 Q2186.75,495.4063 2185.9375,494.1406 Q2185.125,492.875 2185.125,491.3906 L2185.125,490.0313 Q2185.125,488.4688 2185.8438,487.125 Q2186.5781,485.7656 2187.8594,485.0313 Q2189.1563,484.2969 2190.6094,484.2969 Q2191.4688,484.2969 2192.2188,484.5 Q2192.9844,484.7031 2193.6406,485.1094 Z " fill="#000000"/><text fill="#000000" font-family="sans-serif" font-size="20" lengthAdjust="spacing" textLength="61" x="2213.5" y="498.3711">Socket</text><line style="stroke:#181818;stroke-width:0.5;" x1="1990" x2="2463" y1="507.7656" y2="507.7656"/><line style="stroke:#181818;stroke-width:0.5;" x1="1990" x2="2463" y1="515.7656" y2="515.7656"/><ellipse cx="2000" cy="533.8438" fill="#84BE84" rx="3" ry="3" style="stroke:#038048;stroke-width:1.0;"/><text fill="#000000" font-family="sans-serif" font-size="20" lengthAdjust="spacing" textLength="448" x="2010" y="540.5273">Socket(InetAddress serverIP, int PORT_NUMBER)</text><ellipse cx="2000" cy="559" fill="#84BE84" rx="3" ry="3" style="stroke:#038048;stroke-width:1.0;"/><text fill="#000000" font-family="sans-serif" font-size="20" lengthAdjust="spacing" textLength="60" x="2010" y="565.6836">close()</text></g><!--class ServerSocket--><g id="elem_ServerSocket"><rect codeLine="95" fill="#F1F1F1" height="101.4688" id="ServerSocket" rx="2.5" ry="2.5" style="stroke:#181818;stroke-width:0.5;" width="335" x="2058" y="660.1094"/><ellipse cx="2161.5" cy="677.6875" fill="#ADD1B2" rx="12" ry="12" style="stroke:#181818;stroke-width:1.0;"/><path d="M2163.6406,672.6094 Q2163.8281,672.3594 2164.0469,672.2344 Q2164.2656,672.0938 2164.5156,672.0938 Q2164.9531,672.0938 2165.2344,672.4063 Q2165.5156,672.7031 2165.5156,673.4219 L2165.5156,675.125 Q2165.5156,675.8438 2165.2344,676.1563 Q2164.9531,676.4688 2164.5156,676.4688 Q2164.125,676.4688 2163.875,676.2344 Q2163.625,676.0156 2163.5156,675.4063 Q2163.4531,674.9844 2163.2344,674.7656 Q2162.8438,674.3281 2162.125,674.0625 Q2161.4063,673.7969 2160.6875,673.7969 Q2159.7813,673.7969 2159.0313,674.1875 Q2158.2813,674.5781 2157.7031,675.4688 Q2157.125,676.3438 2157.125,677.5469 L2157.125,678.8438 Q2157.125,680.2969 2158.1719,681.2656 Q2159.2344,682.2344 2161.0938,682.2344 Q2162.2031,682.2344 2162.9844,681.9219 Q2163.4219,681.75 2163.9375,681.2344 Q2164.25,680.9219 2164.4219,680.8281 Q2164.5938,680.7344 2164.8281,680.7344 Q2165.2188,680.7344 2165.5156,681.0469 Q2165.8281,681.3438 2165.8281,681.75 Q2165.8281,682.1563 2165.4219,682.625 Q2164.8281,683.3125 2163.8906,683.7031 Q2162.625,684.2344 2161.1094,684.2344 Q2159.3281,684.2344 2157.9063,683.5 Q2156.75,682.9063 2155.9375,681.6406 Q2155.125,680.375 2155.125,678.8906 L2155.125,677.5313 Q2155.125,675.9688 2155.8438,674.625 Q2156.5781,673.2656 2157.8594,672.5313 Q2159.1563,671.7969 2160.6094,671.7969 Q2161.4688,671.7969 2162.2188,672 Q2162.9844,672.2031 2163.6406,672.6094 Z " fill="#000000"/><text fill="#000000" font-family="sans-serif" font-size="20" lengthAdjust="spacing" textLength="119" x="2183.5" y="685.8711">ServerSocket</text><line style="stroke:#181818;stroke-width:0.5;" x1="2059" x2="2392" y1="695.2656" y2="695.2656"/><line style="stroke:#181818;stroke-width:0.5;" x1="2059" x2="2392" y1="703.2656" y2="703.2656"/><ellipse cx="2069" cy="721.3438" fill="#84BE84" rx="3" ry="3" style="stroke:#038048;stroke-width:1.0;"/><text fill="#000000" font-family="sans-serif" font-size="20" lengthAdjust="spacing" textLength="308" x="2079" y="728.0273">ServerSocket(int PORT_NUMBER)</text><ellipse cx="2069" cy="746.5" fill="#84BE84" rx="3" ry="3" style="stroke:#038048;stroke-width:1.0;"/><text fill="#000000" font-family="sans-serif" font-size="20" lengthAdjust="spacing" textLength="60" x="2079" y="753.1836">close()</text></g><!--class JobOpeningDataDTO--><g id="elem_JobOpeningDataDTO"><rect codeLine="100" fill="#F1F1F1" height="51.1563" id="JobOpeningDataDTO" rx="2.5" ry="2.5" style="stroke:#181818;stroke-width:0.5;" width="223" x="991" y="296.6094"/><ellipse cx="1007" cy="314.1875" fill="#ADD1B2" rx="12" ry="12" style="stroke:#181818;stroke-width:1.0;"/><path d="M1009.1406,309.1094 Q1009.3281,308.8594 1009.5469,308.7344 Q1009.7656,308.5938 1010.0156,308.5938 Q1010.4531,308.5938 1010.7344,308.9063 Q1011.0156,309.2031 1011.0156,309.9219 L1011.0156,311.625 Q1011.0156,312.3438 1010.7344,312.6563 Q1010.4531,312.9688 1010.0156,312.9688 Q1009.625,312.9688 1009.375,312.7344 Q1009.125,312.5156 1009.0156,311.9063 Q1008.9531,311.4844 1008.7344,311.2656 Q1008.3438,310.8281 1007.625,310.5625 Q1006.9063,310.2969 1006.1875,310.2969 Q1005.2813,310.2969 1004.5313,310.6875 Q1003.7813,311.0781 1003.2031,311.9688 Q1002.625,312.8438 1002.625,314.0469 L1002.625,315.3438 Q1002.625,316.7969 1003.6719,317.7656 Q1004.7344,318.7344 1006.5938,318.7344 Q1007.7031,318.7344 1008.4844,318.4219 Q1008.9219,318.25 1009.4375,317.7344 Q1009.75,317.4219 1009.9219,317.3281 Q1010.0938,317.2344 1010.3281,317.2344 Q1010.7188,317.2344 1011.0156,317.5469 Q1011.3281,317.8438 1011.3281,318.25 Q1011.3281,318.6563 1010.9219,319.125 Q1010.3281,319.8125 1009.3906,320.2031 Q1008.125,320.7344 1006.6094,320.7344 Q1004.8281,320.7344 1003.4063,320 Q1002.25,319.4063 1001.4375,318.1406 Q1000.625,316.875 1000.625,315.3906 L1000.625,314.0313 Q1000.625,312.4688 1001.3438,311.125 Q1002.0781,309.7656 1003.3594,309.0313 Q1004.6563,308.2969 1006.1094,308.2969 Q1006.9688,308.2969 1007.7188,308.5 Q1008.4844,308.7031 1009.1406,309.1094 Z " fill="#000000"/><text fill="#000000" font-family="sans-serif" font-size="20" lengthAdjust="spacing" textLength="189" x="1022" y="322.3711">JobOpeningDataDTO</text><line style="stroke:#181818;stroke-width:0.5;" x1="992" x2="1213" y1="331.7656" y2="331.7656"/><line style="stroke:#181818;stroke-width:0.5;" x1="992" x2="1213" y1="339.7656" y2="339.7656"/></g><!--reverse link AbstractListUI to ListCustomerJobOpeningsUI--><g id="link_AbstractListUI_ListCustomerJobOpeningsUI"><path codeLine="104" d="M1392.96,121.6094 C1428.64,121.6094 1469.69,121.6094 1508.39,121.6094 " fill="none" id="AbstractListUI-backto-ListCustomerJobOpeningsUI" style="stroke:#181818;stroke-width:1.0;stroke-dasharray:7.0,7.0;"/><polygon fill="none" points="1392.63,128.6094,1372.63,121.6094,1392.63,114.6094,1392.63,128.6094" style="stroke:#181818;stroke-width:1.0;"/><text fill="#000000" font-family="sans-serif" font-size="20" lengthAdjust="spacing" textLength="99" x="1391" y="113.3711">implements</text></g><!--reverse link DTOable to JobOpening--><g id="link_DTOable_JobOpening"><path codeLine="105" d="M830.5,380.7394 C830.5,414.2794 830.5,455.5694 830.5,484.8494 " fill="none" id="DTOable-backto-JobOpening" style="stroke:#181818;stroke-width:1.0;stroke-dasharray:7.0,7.0;"/><polygon fill="none" points="823.5,380.5394,830.5,360.5394,837.5,380.5394,823.5,380.5394" style="stroke:#181818;stroke-width:1.0;"/><text fill="#000000" font-family="sans-serif" font-size="20" lengthAdjust="spacing" textLength="99" x="831.5" y="437.3711">implements</text></g><!--reverse link Serializable to DataDTO--><g id="link_Serializable_DataDTO"><path codeLine="106" d="M2629.04,756.1194 C2617.52,800.9094 2599.94,869.2094 2589.11,911.2594 " fill="none" id="Serializable-backto-DataDTO" style="stroke:#181818;stroke-width:1.0;stroke-dasharray:7.0,7.0;"/><polygon fill="none" points="2622.32,754.1494,2634.09,736.5294,2635.88,757.6394,2622.32,754.1494" style="stroke:#181818;stroke-width:1.0;"/><text fill="#000000" font-family="sans-serif" font-size="20" lengthAdjust="spacing" textLength="99" x="2613.5" y="838.3711">implements</text></g><!--link ListCustomerJobOpeningsUI to ListCustomerJobOpeningsController--><g id="link_ListCustomerJobOpeningsUI_ListCustomerJobOpeningsController"><path codeLine="108" d="M1792.87,121.6094 C1802.82,121.6094 1812.76,121.6094 1822.7,121.6094 " fill="none" id="ListCustomerJobOpeningsUI-to-ListCustomerJobOpeningsController" style="stroke:#181818;stroke-width:1.0;stroke-dasharray:7.0,7.0;"/><polygon fill="#181818" points="1827.9,121.6094,1818.9,117.6094,1822.9,121.6094,1818.9,125.6094,1827.9,121.6094" style="stroke:#181818;stroke-width:1.0;"/></g><!--link ListCustomerJobOpeningsController to AuthorizationService--><g id="link_ListCustomerJobOpeningsController_AuthorizationService"><path codeLine="110" d="M2284.95,197.6494 C2335.63,226.1494 2391.34,257.4794 2433.97,281.4494 " fill="none" id="ListCustomerJobOpeningsController-to-AuthorizationService" style="stroke:#181818;stroke-width:1.0;stroke-dasharray:7.0,7.0;"/><polygon fill="#181818" points="2438.57,284.0394,2432.6758,276.149,2434.2087,281.5942,2428.7635,283.1271,2438.57,284.0394" style="stroke:#181818;stroke-width:1.0;"/></g><!--link ListCustomerJobOpeningsController to FollowUpConnectionService--><g id="link_ListCustomerJobOpeningsController_FollowUpConnectionService"><path codeLine="111" d="M2061.9,197.6494 C2039.32,216.5694 2015.24,236.7294 1993.24,255.1594 " fill="none" id="ListCustomerJobOpeningsController-to-FollowUpConnectionService" style="stroke:#181818;stroke-width:1.0;stroke-dasharray:7.0,7.0;"/><polygon fill="#181818" points="1989.16,258.5794,1998.6248,255.856,1992.9894,255.3644,1993.4809,249.729,1989.16,258.5794" style="stroke:#181818;stroke-width:1.0;"/></g><!--link ListCustomerJobOpeningsController to JobOpeningDataDTO--><g id="link_ListCustomerJobOpeningsController_JobOpeningDataDTO"><path codeLine="112" d="M1827.56,194.0694 C1821.49,195.2694 1815.47,196.4494 1809.5,197.6094 C1649.32,228.6494 1608.22,230.5094 1447.5,258.6094 C1371.53,271.8894 1286.25,287.3394 1219.49,299.5494 " fill="none" id="ListCustomerJobOpeningsController-to-JobOpeningDataDTO" style="stroke:#181818;stroke-width:1.0;stroke-dasharray:7.0,7.0;"/><polygon fill="#181818" points="1214.31,300.4994,1223.8821,302.8176,1219.2287,299.6012,1222.445,294.9477,1214.31,300.4994" style="stroke:#181818;stroke-width:1.0;"/></g><!--link ListCustomerJobOpeningsController to UserSession--><g id="link_ListCustomerJobOpeningsController_UserSession"><path codeLine="113" d="M2475.06,187.2594 C2544.3,207.2394 2603.82,231.2894 2627.5,258.6094 C2680.93,320.2494 2677.76,422.2994 2670.66,479.6394 " fill="none" id="ListCustomerJobOpeningsController-to-UserSession" style="stroke:#181818;stroke-width:1.0;stroke-dasharray:7.0,7.0;"/><polygon fill="#181818" points="2670.01,484.6994,2675.1342,476.2885,2670.653,479.7409,2667.2007,475.2597,2670.01,484.6994" style="stroke:#181818;stroke-width:1.0;"/></g><!--link FollowUpConnectionService to FollowUpServer--><g id="link_FollowUpConnectionService_FollowUpServer"><path codeLine="116" d="M1899.69,385.7994 C1891.28,421.4094 1881.14,464.3394 1874.52,492.3794 " fill="none" id="FollowUpConnectionService-to-FollowUpServer" style="stroke:#181818;stroke-width:1.0;stroke-dasharray:7.0,7.0;"/><polygon fill="#181818" points="1873.33,497.4394,1879.2799,489.5909,1874.472,492.5715,1871.4914,487.7637,1873.33,497.4394" style="stroke:#181818;stroke-width:1.0;"/></g><!--link FollowUpConnectionService to ClientConnectionThread--><g id="link_FollowUpConnectionService_ClientConnectionThread"><path codeLine="117" d="M1828.45,385.8994 C1802.55,409.8194 1777.35,439.4094 1763.5,472.6094 C1742.98,521.7994 1743.48,581.8894 1748.99,629.2494 " fill="none" id="FollowUpConnectionService-to-ClientConnectionThread" style="stroke:#181818;stroke-width:1.0;stroke-dasharray:7.0,7.0;"/><polygon fill="#181818" points="1749.61,634.3794,1752.4996,624.9639,1749.0092,629.4156,1744.5575,625.9252,1749.61,634.3794" style="stroke:#181818;stroke-width:1.0;"/></g><!--link FollowUpServer to ClientConnectionThread--><g id="link_FollowUpServer_ClientConnectionThread"><path codeLine="118" d="M1853.82,548.7394 C1842.29,569.5094 1825.12,600.4294 1808.91,629.6294 " fill="none" id="FollowUpServer-to-ClientConnectionThread" style="stroke:#181818;stroke-width:1.0;"/><polygon fill="#181818" points="1806.31,634.2994,1814.1774,628.3745,1808.7382,629.9286,1807.1842,624.4894,1806.31,634.2994" style="stroke:#181818;stroke-width:1.0;"/></g><!--link ClientConnectionThread to ListingRequestThread--><g id="link_ClientConnectionThread_ListingRequestThread"><path codeLine="119" d="M1676.16,786.9194 C1629.22,826.9394 1573.35,874.5694 1534.46,907.7294 " fill="none" id="ClientConnectionThread-to-ListingRequestThread" style="stroke:#181818;stroke-width:1.0;"/><polygon fill="#181818" points="1530.27,911.2894,1539.7126,908.4898,1534.0733,908.0437,1534.5194,902.4044,1530.27,911.2894" style="stroke:#181818;stroke-width:1.0;"/></g><!--link ClientConnectionThread to AuthenticationService--><g id="link_ClientConnectionThread_AuthenticationService"><path codeLine="120" d="M1827.74,786.9194 C1849.87,813.2794 1874.77,842.9294 1897.14,869.5794 " fill="none" id="ClientConnectionThread-to-AuthenticationService" style="stroke:#181818;stroke-width:1.0;"/><polygon fill="#181818" points="1900.43,873.4894,1897.7066,864.0245,1897.215,869.66,1891.5796,869.1685,1900.43,873.4894" style="stroke:#181818;stroke-width:1.0;"/></g><!--link ClientConnectionThread to DataDTO--><g id="link_ClientConnectionThread_DataDTO"><path codeLine="121" d="M2022.65,786.6794 C2163.7,827.6994 2332.46,876.7694 2446.95,910.0694 " fill="none" id="ClientConnectionThread-to-DataDTO" style="stroke:#181818;stroke-width:1.0;"/><polygon fill="#181818" points="2452.02,911.5394,2444.5,905.1794,2447.22,910.1394,2442.26,912.8594,2452.02,911.5394" style="stroke:#181818;stroke-width:1.0;"/></g><!--link FollowUpConnectionService to Socket--><g id="link_FollowUpConnectionService_Socket"><path codeLine="123" d="M2012.79,385.7994 C2055.1,412.7894 2104,443.9794 2144.34,469.7094 " fill="none" id="FollowUpConnectionService-to-Socket" style="stroke:#181818;stroke-width:1.0;"/><polygon fill="#181818" points="2148.72,472.4994,2143.2799,464.2893,2144.5035,469.8122,2138.9805,471.0357,2148.72,472.4994" style="stroke:#181818;stroke-width:1.0;"/></g><!--link FollowUpServer to ServerSocket--><g id="link_FollowUpServer_ServerSocket"><path codeLine="124" d="M1915.04,548.7394 C1968.45,576.4194 2056.68,622.1294 2125.45,657.7694 " fill="none" id="FollowUpServer-to-ServerSocket" style="stroke:#181818;stroke-width:1.0;"/><polygon fill="#181818" points="2129.95,660.0994,2123.7964,652.4095,2125.5097,657.8007,2120.1186,659.514,2129.95,660.0994" style="stroke:#181818;stroke-width:1.0;"/></g><!--link JobOpeningManagementService to JobOpeningRepository--><g id="link_JobOpeningManagementService_JobOpeningRepository"><path codeLine="126" d="M553.09,561.1994 C598.46,592.6094 663.35,637.5194 709.85,669.6994 " fill="none" id="JobOpeningManagementService-to-JobOpeningRepository" style="stroke:#181818;stroke-width:1.0;stroke-dasharray:7.0,7.0;"/><polygon fill="#181818" points="714,672.5794,708.8832,664.164,709.8911,669.7303,704.3248,670.7382,714,672.5794" style="stroke:#181818;stroke-width:1.0;"/></g><!--reverse link JobOpening to JobOpeningRepository--><g id="link_JobOpening_JobOpeningRepository"><path codeLine="127" d="M816.19,566.2394 C805.32,598.2594 790.5,641.8894 780.08,672.5794 " fill="none" id="JobOpening-backto-JobOpeningRepository" style="stroke:#181818;stroke-width:1.0;stroke-dasharray:7.0,7.0;"/><polygon fill="#181818" points="817.9,561.1994,811.2068,568.4244,816.2846,565.9312,818.7778,571.009,817.9,561.1994" style="stroke:#181818;stroke-width:1.0;"/></g><!--reverse link JobOpeningDataDTO to JobOpening--><g id="link_JobOpeningDataDTO_JobOpening"><path codeLine="128" d="M1064.77,350.8094 C1031.74,375.0494 982.46,411.1894 939.5,442.6094 C920.59,456.4394 899.83,471.5894 881.54,484.9294 " fill="none" id="JobOpeningDataDTO-backto-JobOpening" style="stroke:#181818;stroke-width:1.0;"/><polygon fill="#181818" points="1069.11,347.6194,1059.4879,349.7205,1065.0793,350.5781,1064.2218,356.1695,1069.11,347.6194" style="stroke:#181818;stroke-width:1.0;"/></g><!--reverse link JobOpeningDataDTO to JobOpeningListDTOService--><g id="link_JobOpeningDataDTO_JobOpeningListDTOService"><path codeLine="129" d="M1108.33,353.1494 C1121.75,430.7594 1147.81,641.9794 1066.5,786.6094 C1034.89,842.8294 974.73,884.5794 924.56,911.6094 " fill="none" id="JobOpeningDataDTO-backto-JobOpeningListDTOService" style="stroke:#181818;stroke-width:1.0;"/><polygon fill="#181818" points="1107.38,347.7994,1104.9859,357.3528,1108.2391,352.725,1112.8669,355.9782,1107.38,347.7994" style="stroke:#181818;stroke-width:1.0;"/></g><!--link JobOpeningRepository to JobOpeningListDTOService--><g id="link_JobOpeningRepository_JobOpeningListDTOService"><path codeLine="130" d="M779.06,748.6394 C792.44,791.4694 814.4,861.8294 828.4,906.6494 " fill="none" id="JobOpeningRepository-to-JobOpeningListDTOService" style="stroke:#181818;stroke-width:1.0;"/><polygon fill="#181818" points="829.9,911.4494,831.0168,901.664,828.4005,906.6795,823.385,904.0632,829.9,911.4494" style="stroke:#181818;stroke-width:1.0;"/></g><!--link JobOpeningManagementService to CustomerManagementService--><g id="link_JobOpeningManagementService_CustomerManagementService"><path codeLine="132" d="M474.19,561.4094 C420.52,640.5194 295.62,824.6194 239.59,907.2094 " fill="none" id="JobOpeningManagementService-to-CustomerManagementService" style="stroke:#181818;stroke-width:1.0;stroke-dasharray:7.0,7.0;"/><polygon fill="#181818" points="236.65,911.5494,245.0037,906.3326,239.4498,907.4068,238.3756,901.8529,236.65,911.5494" style="stroke:#181818;stroke-width:1.0;"/></g><!--link CustomerManagementService to CustomerRepository--><g id="link_CustomerManagementService_CustomerRepository"><path codeLine="134" d="M211.5,987.7194 C211.5,1015.1994 211.5,1052.6794 211.5,1081.3194 " fill="none" id="CustomerManagementService-to-CustomerRepository" style="stroke:#181818;stroke-width:1.0;stroke-dasharray:7.0,7.0;"/><polygon fill="#181818" points="211.5,1086.5594,215.5,1077.5594,211.5,1081.5594,207.5,1077.5594,211.5,1086.5594" style="stroke:#181818;stroke-width:1.0;"/></g><!--reverse link DataDTO to FollowUpConnectionService--><g id="link_DataDTO_FollowUpConnectionService"><path codeLine="136" d="M2572.09,906.6194 C2551.93,793.2694 2496.59,488.5494 2481.5,472.6094 C2448.82,438.0894 2364.55,408.8694 2270.67,385.6694 " fill="none" id="DataDTO-backto-FollowUpConnectionService" style="stroke:#181818;stroke-width:1.0;"/><polygon fill="#181818" points="2572.97,911.5394,2575.315,901.9738,2572.0856,906.6182,2567.4412,903.3888,2572.97,911.5394" style="stroke:#181818;stroke-width:1.0;"/></g><!--link AuthorizationService to UserSession--><g id="link_AuthorizationService_UserSession"><path codeLine="138" d="M2534.41,360.5394 C2561.72,394.7294 2602.05,445.1994 2630.34,480.6094 " fill="none" id="AuthorizationService-to-UserSession" style="stroke:#181818;stroke-width:1.0;"/><polygon fill="#181818" points="2633.73,484.8494,2631.2397,475.3205,2630.61,480.9422,2624.9883,480.3125,2633.73,484.8494" style="stroke:#181818;stroke-width:1.0;"/></g><!--SRC=[hLNTJzim47_tNs5f3tI21CJUfWeff6KgMYbgMkrb4ZB9qNguSMQx863xttVE1t7QfEscFRNntVtkwtTt-f6d6LDi9MJy20bDu86jXRcIgOduAz3pCtAqD2RJdqzFCy5Iiru9FvQhqrWmhRs4imKQ4sAu4K3dqQUpitCQMXaTL39shurYiQ6v3GtApwzSc_c8lf4FD97HKZxtFfBVXF3KW7fWCT0856U2lx9xX7vhY0QpIV5AZgcH-5NO5WuiSBZMHgv0NSlxIGOfJnSwztNSyBLJFyGQA2a4gDnk0IO2hRbCGmK9f0PZqmYJIsAPfX0R5FOYez2QhZMebAtWX9OF6RfwbYevePW6lPrCPtSty_7bS6eXVjHk1ymm6z4ca5MBXTGGrhwsa32dCgahZ5m-pxDQ6ylvn6Eeahd-JowFAMY3pU1w6VvD5KOfc2195DQKejOJgD5jIsriHcLAeU1Ozjh9RAc09Na-2cBWJt10JeMBM2QTsRtB4Dr0BxA3ORbhdHSVLihMPcb943DhUAkaaR4KFUiMwKYJudU3PHZ857wkiM1ExCrUv35NORoNhUv8tU7QQCnIje2LZQ_PusrMs_Xw1u7QG3035n5PZcroevt95XSuZTQuNpzTk0ItCgSk5S3U92vVvcN0hGaqqQQGISsDL2__15E7lW7qmDCa4C8fmJTkbXLsY3shK6FdpK4Ea3TIuL9hZgH7aKxbVgcLRQJbOwxZa0uIAwnLA-AzrSorBC9-MUkQzISv4Vlb0dKRKoLH8csqgTedKJwg-Jgk4we7mUrT8zpz6-5xIgTIWE_xz99fiF-r7ywZsMGydDwDWvlWot1gjRQb6w_1pM0q26R3reQstunoogsi-DixS3-LEwI1bMkxYCv3xn24vhpcRKNP4GsYQ1AEWjbeSXCHid58-xzynHTBu-yuW9yfNsKYdp9DgYEAXhvRe8PIumZdcbL83JNIxRECwcB_dUr4SKwnZq1jCtIWQUTPFD1-gpC7sZcJZBks-pYxCHQqsQFSVXJ9nhXwNgTcnrMr5cqdQvT-wohOPL3LS4UELgsOdBQStCaYPDT5R3QltkgaTTNxwwoXxsXHRvrvRKJeF9tx3HpFNaErYRGlGqk7hcjAIFUXTGsTof1gqlkUjsDmIEj9itcufFy3]--></g></svg>