<?xml version="1.0" encoding="UTF-8" standalone="no"?><svg xmlns="http://www.w3.org/2000/svg" xmlns:xlink="http://www.w3.org/1999/xlink" contentStyleType="text/css" height="1384px" preserveAspectRatio="none" style="width:2157px;height:1384px;background:#FFFFFF;" version="1.1" viewBox="0 0 2157 1384" width="2157px" zoomAndPan="magnify"><defs/><g><text fill="#000000" font-family="sans-serif" font-size="14" font-weight="bold" lengthAdjust="spacing" textLength="154" x="994.75" y="24.5332">US3002 Class Diagram</text><!--class AbstractListUI--><g id="elem_AbstractListUI"><rect codeLine="5" fill="#F1F1F1" height="76.3125" id="AbstractListUI" rx="2.5" ry="2.5" style="stroke:#181818;stroke-width:0.5;" width="156" x="1589" y="45.6094"/><ellipse cx="1605" cy="63.1875" fill="#A9DCDF" rx="12" ry="12" style="stroke:#181818;stroke-width:1.0;"/><path d="M1607.4531,65.2188 L1602.5781,65.2188 L1602.0938,66.4375 L1602.5781,66.4375 Q1603.3125,66.4375 1603.6094,66.7188 Q1603.9219,66.9844 1603.9219,67.4375 Q1603.9219,67.875 1603.6094,68.1563 Q1603.3125,68.4375 1602.5781,68.4375 L1599.8906,68.4375 Q1599.1719,68.4375 1598.8594,68.1563 Q1598.5469,67.875 1598.5469,67.4375 Q1598.5469,66.9844 1598.875,66.7031 Q1599.2031,66.4219 1599.9375,66.4375 L1603.0781,58.6094 L1601.7813,58.6094 Q1601.0469,58.6094 1600.7344,58.3281 Q1600.4375,58.0469 1600.4375,57.5938 Q1600.4375,57.1406 1600.7344,56.875 Q1601.0469,56.5938 1601.7813,56.5938 L1606.0938,56.5938 L1610.0781,66.4375 Q1610.7813,66.4375 1611.0156,66.5938 Q1611.4688,66.9063 1611.4688,67.4375 Q1611.4688,67.875 1611.1563,68.1563 Q1610.8594,68.4375 1610.1406,68.4375 L1607.4375,68.4375 Q1606.7188,68.4375 1606.4063,68.1563 Q1606.0938,67.875 1606.0938,67.4375 Q1606.0938,66.9844 1606.4063,66.7188 Q1606.7188,66.4375 1607.4375,66.4375 L1607.9219,66.4375 L1607.4531,65.2188 Z M1606.625,63.2188 L1605,59.25 L1603.3906,63.2188 L1606.625,63.2188 Z " fill="#000000"/><text fill="#000000" font-family="sans-serif" font-size="20" font-style="italic" lengthAdjust="spacing" textLength="122" x="1620" y="71.3711">AbstractListUI</text><line style="stroke:#181818;stroke-width:0.5;" x1="1590" x2="1744" y1="80.7656" y2="80.7656"/><line style="stroke:#181818;stroke-width:0.5;" x1="1590" x2="1744" y1="88.7656" y2="88.7656"/><polygon fill="#FFFF44" points="1600,101.8438,1604,105.8438,1600,109.8438,1596,105.8438" style="stroke:#B38D22;stroke-width:1.0;"/><text fill="#000000" font-family="sans-serif" font-size="20" lengthAdjust="spacing" textLength="85" x="1610" y="113.5273">doShow()</text></g><!--class DTOable--><g id="elem_DTOable"><rect codeLine="10" fill="#F1F1F1" height="76.3125" id="DTOable" rx="2.5" ry="2.5" style="stroke:#181818;stroke-width:0.5;" width="114" x="590" y="555.1094"/><ellipse cx="606" cy="572.6875" fill="#B4A7E5" rx="12" ry="12" style="stroke:#181818;stroke-width:1.0;"/><path d="M607,568.8594 L607,576.6875 L609.0313,576.6875 Q609.75,576.6875 610.0469,576.9688 Q610.3594,577.2344 610.3594,577.6875 Q610.3594,578.125 610.0469,578.4063 Q609.75,578.6875 609.0313,578.6875 L602.9844,578.6875 Q602.25,578.6875 601.9375,578.4063 Q601.6406,578.125 601.6406,577.6875 Q601.6406,577.2344 601.9375,576.9688 Q602.25,576.6875 602.9844,576.6875 L605,576.6875 L605,568.8594 L602.9844,568.8594 Q602.25,568.8594 601.9375,568.5781 Q601.6406,568.2969 601.6406,567.8438 Q601.6406,567.3906 601.9375,567.125 Q602.25,566.8438 602.9844,566.8438 L609.0313,566.8438 Q609.75,566.8438 610.0469,567.125 Q610.3594,567.3906 610.3594,567.8438 Q610.3594,568.2969 610.0469,568.5781 Q609.75,568.8594 609.0313,568.8594 L607,568.8594 Z " fill="#000000"/><text fill="#000000" font-family="sans-serif" font-size="20" font-style="italic" lengthAdjust="spacing" textLength="80" x="621" y="580.8711">DTOable</text><line style="stroke:#181818;stroke-width:0.5;" x1="591" x2="703" y1="590.2656" y2="590.2656"/><line style="stroke:#181818;stroke-width:0.5;" x1="591" x2="703" y1="598.2656" y2="598.2656"/><ellipse cx="601" cy="616.3438" fill="#84BE84" rx="3" ry="3" style="stroke:#038048;stroke-width:1.0;"/><text fill="#000000" font-family="sans-serif" font-size="20" lengthAdjust="spacing" textLength="73" x="611" y="623.0273">toDTO()</text></g><!--class ListCustomerJobOpeningsUI--><g id="elem_ListCustomerJobOpeningsUI"><rect codeLine="14" fill="#F1F1F1" height="76.3125" id="ListCustomerJobOpeningsUI" rx="2.5" ry="2.5" style="stroke:#181818;stroke-width:0.5;" width="284" x="1525" y="181.6094"/><ellipse cx="1541" cy="199.1875" fill="#ADD1B2" rx="12" ry="12" style="stroke:#181818;stroke-width:1.0;"/><path d="M1543.1406,194.1094 Q1543.3281,193.8594 1543.5469,193.7344 Q1543.7656,193.5938 1544.0156,193.5938 Q1544.4531,193.5938 1544.7344,193.9063 Q1545.0156,194.2031 1545.0156,194.9219 L1545.0156,196.625 Q1545.0156,197.3438 1544.7344,197.6563 Q1544.4531,197.9688 1544.0156,197.9688 Q1543.625,197.9688 1543.375,197.7344 Q1543.125,197.5156 1543.0156,196.9063 Q1542.9531,196.4844 1542.7344,196.2656 Q1542.3438,195.8281 1541.625,195.5625 Q1540.9063,195.2969 1540.1875,195.2969 Q1539.2813,195.2969 1538.5313,195.6875 Q1537.7813,196.0781 1537.2031,196.9688 Q1536.625,197.8438 1536.625,199.0469 L1536.625,200.3438 Q1536.625,201.7969 1537.6719,202.7656 Q1538.7344,203.7344 1540.5938,203.7344 Q1541.7031,203.7344 1542.4844,203.4219 Q1542.9219,203.25 1543.4375,202.7344 Q1543.75,202.4219 1543.9219,202.3281 Q1544.0938,202.2344 1544.3281,202.2344 Q1544.7188,202.2344 1545.0156,202.5469 Q1545.3281,202.8438 1545.3281,203.25 Q1545.3281,203.6563 1544.9219,204.125 Q1544.3281,204.8125 1543.3906,205.2031 Q1542.125,205.7344 1540.6094,205.7344 Q1538.8281,205.7344 1537.4063,205 Q1536.25,204.4063 1535.4375,203.1406 Q1534.625,201.875 1534.625,200.3906 L1534.625,199.0313 Q1534.625,197.4688 1535.3438,196.125 Q1536.0781,194.7656 1537.3594,194.0313 Q1538.6563,193.2969 1540.1094,193.2969 Q1540.9688,193.2969 1541.7188,193.5 Q1542.4844,193.7031 1543.1406,194.1094 Z " fill="#000000"/><text fill="#000000" font-family="sans-serif" font-size="20" lengthAdjust="spacing" textLength="250" x="1556" y="207.3711">ListCustomerJobOpeningsUI</text><line style="stroke:#181818;stroke-width:0.5;" x1="1526" x2="1808" y1="216.7656" y2="216.7656"/><line style="stroke:#181818;stroke-width:0.5;" x1="1526" x2="1808" y1="224.7656" y2="224.7656"/><ellipse cx="1536" cy="242.8438" fill="#84BE84" rx="3" ry="3" style="stroke:#038048;stroke-width:1.0;"/><text fill="#000000" font-family="sans-serif" font-size="20" lengthAdjust="spacing" textLength="85" x="1546" y="249.5273">doShow()</text></g><!--class ListCustomerJobOpeningsController--><g id="elem_ListCustomerJobOpeningsController"><rect codeLine="18" fill="#F1F1F1" height="151.7813" id="ListCustomerJobOpeningsController" rx="2.5" ry="2.5" style="stroke:#181818;stroke-width:0.5;" width="647" x="1343.5" y="317.6094"/><ellipse cx="1504.5" cy="335.1875" fill="#ADD1B2" rx="12" ry="12" style="stroke:#181818;stroke-width:1.0;"/><path d="M1506.6406,330.1094 Q1506.8281,329.8594 1507.0469,329.7344 Q1507.2656,329.5938 1507.5156,329.5938 Q1507.9531,329.5938 1508.2344,329.9063 Q1508.5156,330.2031 1508.5156,330.9219 L1508.5156,332.625 Q1508.5156,333.3438 1508.2344,333.6563 Q1507.9531,333.9688 1507.5156,333.9688 Q1507.125,333.9688 1506.875,333.7344 Q1506.625,333.5156 1506.5156,332.9063 Q1506.4531,332.4844 1506.2344,332.2656 Q1505.8438,331.8281 1505.125,331.5625 Q1504.4063,331.2969 1503.6875,331.2969 Q1502.7813,331.2969 1502.0313,331.6875 Q1501.2813,332.0781 1500.7031,332.9688 Q1500.125,333.8438 1500.125,335.0469 L1500.125,336.3438 Q1500.125,337.7969 1501.1719,338.7656 Q1502.2344,339.7344 1504.0938,339.7344 Q1505.2031,339.7344 1505.9844,339.4219 Q1506.4219,339.25 1506.9375,338.7344 Q1507.25,338.4219 1507.4219,338.3281 Q1507.5938,338.2344 1507.8281,338.2344 Q1508.2188,338.2344 1508.5156,338.5469 Q1508.8281,338.8438 1508.8281,339.25 Q1508.8281,339.6563 1508.4219,340.125 Q1507.8281,340.8125 1506.8906,341.2031 Q1505.625,341.7344 1504.1094,341.7344 Q1502.3281,341.7344 1500.9063,341 Q1499.75,340.4063 1498.9375,339.1406 Q1498.125,337.875 1498.125,336.3906 L1498.125,335.0313 Q1498.125,333.4688 1498.8438,332.125 Q1499.5781,330.7656 1500.8594,330.0313 Q1502.1563,329.2969 1503.6094,329.2969 Q1504.4688,329.2969 1505.2188,329.5 Q1505.9844,329.7031 1506.6406,330.1094 Z " fill="#000000"/><text fill="#000000" font-family="sans-serif" font-size="20" lengthAdjust="spacing" textLength="316" x="1526.5" y="343.3711">ListCustomerJobOpeningsController</text><line style="stroke:#181818;stroke-width:0.5;" x1="1344.5" x2="1989.5" y1="352.7656" y2="352.7656"/><line style="stroke:#181818;stroke-width:0.5;" x1="1344.5" x2="1989.5" y1="360.7656" y2="360.7656"/><ellipse cx="1354.5" cy="378.8438" fill="#84BE84" rx="3" ry="3" style="stroke:#038048;stroke-width:1.0;"/><text fill="#000000" font-family="sans-serif" font-size="20" lengthAdjust="spacing" textLength="210" x="1364.5" y="385.5273">getSessionCredentials()</text><ellipse cx="1354.5" cy="404" fill="#84BE84" rx="3" ry="3" style="stroke:#038048;stroke-width:1.0;"/><text fill="#000000" font-family="sans-serif" font-size="20" lengthAdjust="spacing" textLength="620" x="1364.5" y="410.6836">getconnection(String username, String password, int PORT_NUMBER)</text><ellipse cx="1354.5" cy="429.1563" fill="#84BE84" rx="3" ry="3" style="stroke:#038048;stroke-width:1.0;"/><text fill="#000000" font-family="sans-serif" font-size="20" lengthAdjust="spacing" textLength="339" x="1364.5" y="435.8398">jobOpeningsDataList(String username)</text><ellipse cx="1354.5" cy="454.3125" fill="#84BE84" rx="3" ry="3" style="stroke:#038048;stroke-width:1.0;"/><text fill="#000000" font-family="sans-serif" font-size="20" lengthAdjust="spacing" textLength="332" x="1364.5" y="460.9961">closeConnection(int PORT_NUMBER)</text></g><!--class FollowUpConnectionService--><g id="elem_FollowUpConnectionService"><rect codeLine="26" fill="#F1F1F1" height="126.625" id="FollowUpConnectionService" rx="2.5" ry="2.5" style="stroke:#181818;stroke-width:0.5;" width="646" x="1112" y="529.6094"/><ellipse cx="1309" cy="547.1875" fill="#ADD1B2" rx="12" ry="12" style="stroke:#181818;stroke-width:1.0;"/><path d="M1311.1406,542.1094 Q1311.3281,541.8594 1311.5469,541.7344 Q1311.7656,541.5938 1312.0156,541.5938 Q1312.4531,541.5938 1312.7344,541.9063 Q1313.0156,542.2031 1313.0156,542.9219 L1313.0156,544.625 Q1313.0156,545.3438 1312.7344,545.6563 Q1312.4531,545.9688 1312.0156,545.9688 Q1311.625,545.9688 1311.375,545.7344 Q1311.125,545.5156 1311.0156,544.9063 Q1310.9531,544.4844 1310.7344,544.2656 Q1310.3438,543.8281 1309.625,543.5625 Q1308.9063,543.2969 1308.1875,543.2969 Q1307.2813,543.2969 1306.5313,543.6875 Q1305.7813,544.0781 1305.2031,544.9688 Q1304.625,545.8438 1304.625,547.0469 L1304.625,548.3438 Q1304.625,549.7969 1305.6719,550.7656 Q1306.7344,551.7344 1308.5938,551.7344 Q1309.7031,551.7344 1310.4844,551.4219 Q1310.9219,551.25 1311.4375,550.7344 Q1311.75,550.4219 1311.9219,550.3281 Q1312.0938,550.2344 1312.3281,550.2344 Q1312.7188,550.2344 1313.0156,550.5469 Q1313.3281,550.8438 1313.3281,551.25 Q1313.3281,551.6563 1312.9219,552.125 Q1312.3281,552.8125 1311.3906,553.2031 Q1310.125,553.7344 1308.6094,553.7344 Q1306.8281,553.7344 1305.4063,553 Q1304.25,552.4063 1303.4375,551.1406 Q1302.625,549.875 1302.625,548.3906 L1302.625,547.0313 Q1302.625,545.4688 1303.3438,544.125 Q1304.0781,542.7656 1305.3594,542.0313 Q1306.6563,541.2969 1308.1094,541.2969 Q1308.9688,541.2969 1309.7188,541.5 Q1310.4844,541.7031 1311.1406,542.1094 Z " fill="#000000"/><text fill="#000000" font-family="sans-serif" font-size="20" lengthAdjust="spacing" textLength="243" x="1331" y="555.3711">FollowUpConnectionService</text><line style="stroke:#181818;stroke-width:0.5;" x1="1113" x2="1757" y1="564.7656" y2="564.7656"/><line style="stroke:#181818;stroke-width:0.5;" x1="1113" x2="1757" y1="572.7656" y2="572.7656"/><ellipse cx="1123" cy="590.8438" fill="#84BE84" rx="3" ry="3" style="stroke:#038048;stroke-width:1.0;"/><text fill="#000000" font-family="sans-serif" font-size="20" lengthAdjust="spacing" textLength="373" x="1133" y="597.5273">getJobOpeningsDataList(String username)</text><ellipse cx="1123" cy="616" fill="#84BE84" rx="3" ry="3" style="stroke:#038048;stroke-width:1.0;"/><text fill="#000000" font-family="sans-serif" font-size="20" lengthAdjust="spacing" textLength="332" x="1133" y="622.6836">closeConnection(int PORT_NUMBER)</text><ellipse cx="1123" cy="641.1563" fill="#84BE84" rx="3" ry="3" style="stroke:#038048;stroke-width:1.0;"/><text fill="#000000" font-family="sans-serif" font-size="20" lengthAdjust="spacing" textLength="619" x="1133" y="647.8398">establishConnection(username, password, serverIP, PORT_NUMBER)</text></g><!--class ClientConnectionThread--><g id="elem_ClientConnectionThread"><rect codeLine="34" fill="#F1F1F1" height="151.7813" id="ClientConnectionThread" rx="2.5" ry="2.5" style="stroke:#181818;stroke-width:0.5;" width="433" x="1062.5" y="877.6094"/><ellipse cx="1170.5" cy="895.1875" fill="#ADD1B2" rx="12" ry="12" style="stroke:#181818;stroke-width:1.0;"/><path d="M1172.6406,890.1094 Q1172.8281,889.8594 1173.0469,889.7344 Q1173.2656,889.5938 1173.5156,889.5938 Q1173.9531,889.5938 1174.2344,889.9063 Q1174.5156,890.2031 1174.5156,890.9219 L1174.5156,892.625 Q1174.5156,893.3438 1174.2344,893.6563 Q1173.9531,893.9688 1173.5156,893.9688 Q1173.125,893.9688 1172.875,893.7344 Q1172.625,893.5156 1172.5156,892.9063 Q1172.4531,892.4844 1172.2344,892.2656 Q1171.8438,891.8281 1171.125,891.5625 Q1170.4063,891.2969 1169.6875,891.2969 Q1168.7813,891.2969 1168.0313,891.6875 Q1167.2813,892.0781 1166.7031,892.9688 Q1166.125,893.8438 1166.125,895.0469 L1166.125,896.3438 Q1166.125,897.7969 1167.1719,898.7656 Q1168.2344,899.7344 1170.0938,899.7344 Q1171.2031,899.7344 1171.9844,899.4219 Q1172.4219,899.25 1172.9375,898.7344 Q1173.25,898.4219 1173.4219,898.3281 Q1173.5938,898.2344 1173.8281,898.2344 Q1174.2188,898.2344 1174.5156,898.5469 Q1174.8281,898.8438 1174.8281,899.25 Q1174.8281,899.6563 1174.4219,900.125 Q1173.8281,900.8125 1172.8906,901.2031 Q1171.625,901.7344 1170.1094,901.7344 Q1168.3281,901.7344 1166.9063,901 Q1165.75,900.4063 1164.9375,899.1406 Q1164.125,897.875 1164.125,896.3906 L1164.125,895.0313 Q1164.125,893.4688 1164.8438,892.125 Q1165.5781,890.7656 1166.8594,890.0313 Q1168.1563,889.2969 1169.6094,889.2969 Q1170.4688,889.2969 1171.2188,889.5 Q1171.9844,889.7031 1172.6406,890.1094 Z " fill="#000000"/><text fill="#000000" font-family="sans-serif" font-size="20" lengthAdjust="spacing" textLength="208" x="1192.5" y="903.3711">ClientConnectionThread</text><line style="stroke:#181818;stroke-width:0.5;" x1="1063.5" x2="1494.5" y1="912.7656" y2="912.7656"/><line style="stroke:#181818;stroke-width:0.5;" x1="1063.5" x2="1494.5" y1="920.7656" y2="920.7656"/><ellipse cx="1073.5" cy="938.8438" fill="#84BE84" rx="3" ry="3" style="stroke:#038048;stroke-width:1.0;"/><text fill="#000000" font-family="sans-serif" font-size="20" lengthAdjust="spacing" textLength="406" x="1083.5" y="945.5273">receiveJobOpeningsDataList(username, code)</text><ellipse cx="1073.5" cy="964" fill="#84BE84" rx="3" ry="3" style="stroke:#038048;stroke-width:1.0;"/><text fill="#000000" font-family="sans-serif" font-size="20" lengthAdjust="spacing" textLength="200" x="1083.5" y="970.6836">closeConnection(code)</text><ellipse cx="1073.5" cy="989.1563" fill="#84BE84" rx="3" ry="3" style="stroke:#038048;stroke-width:1.0;"/><text fill="#000000" font-family="sans-serif" font-size="20" lengthAdjust="spacing" textLength="176" x="1083.5" y="995.8398">create(clientSocket)</text><ellipse cx="1073.5" cy="1014.3125" fill="#84BE84" rx="3" ry="3" style="stroke:#038048;stroke-width:1.0;"/><text fill="#000000" font-family="sans-serif" font-size="20" lengthAdjust="spacing" textLength="329" x="1083.5" y="1020.9961">authenticationProtocol(messageDTO)</text></g><!--class ListingRequestThread--><g id="elem_ListingRequestThread"><rect codeLine="41" fill="#F1F1F1" height="76.3125" id="ListingRequestThread" rx="2.5" ry="2.5" style="stroke:#181818;stroke-width:0.5;" width="356" x="1045" y="1127.6094"/><ellipse cx="1123" cy="1145.1875" fill="#ADD1B2" rx="12" ry="12" style="stroke:#181818;stroke-width:1.0;"/><path d="M1125.1406,1140.1094 Q1125.3281,1139.8594 1125.5469,1139.7344 Q1125.7656,1139.5938 1126.0156,1139.5938 Q1126.4531,1139.5938 1126.7344,1139.9063 Q1127.0156,1140.2031 1127.0156,1140.9219 L1127.0156,1142.625 Q1127.0156,1143.3438 1126.7344,1143.6563 Q1126.4531,1143.9688 1126.0156,1143.9688 Q1125.625,1143.9688 1125.375,1143.7344 Q1125.125,1143.5156 1125.0156,1142.9063 Q1124.9531,1142.4844 1124.7344,1142.2656 Q1124.3438,1141.8281 1123.625,1141.5625 Q1122.9063,1141.2969 1122.1875,1141.2969 Q1121.2813,1141.2969 1120.5313,1141.6875 Q1119.7813,1142.0781 1119.2031,1142.9688 Q1118.625,1143.8438 1118.625,1145.0469 L1118.625,1146.3438 Q1118.625,1147.7969 1119.6719,1148.7656 Q1120.7344,1149.7344 1122.5938,1149.7344 Q1123.7031,1149.7344 1124.4844,1149.4219 Q1124.9219,1149.25 1125.4375,1148.7344 Q1125.75,1148.4219 1125.9219,1148.3281 Q1126.0938,1148.2344 1126.3281,1148.2344 Q1126.7188,1148.2344 1127.0156,1148.5469 Q1127.3281,1148.8438 1127.3281,1149.25 Q1127.3281,1149.6563 1126.9219,1150.125 Q1126.3281,1150.8125 1125.3906,1151.2031 Q1124.125,1151.7344 1122.6094,1151.7344 Q1120.8281,1151.7344 1119.4063,1151 Q1118.25,1150.4063 1117.4375,1149.1406 Q1116.625,1147.875 1116.625,1146.3906 L1116.625,1145.0313 Q1116.625,1143.4688 1117.3438,1142.125 Q1118.0781,1140.7656 1119.3594,1140.0313 Q1120.6563,1139.2969 1122.1094,1139.2969 Q1122.9688,1139.2969 1123.7188,1139.5 Q1124.4844,1139.7031 1125.1406,1140.1094 Z " fill="#000000"/><text fill="#000000" font-family="sans-serif" font-size="20" lengthAdjust="spacing" textLength="191" x="1145" y="1153.3711">ListingRequestThread</text><line style="stroke:#181818;stroke-width:0.5;" x1="1046" x2="1400" y1="1162.7656" y2="1162.7656"/><line style="stroke:#181818;stroke-width:0.5;" x1="1046" x2="1400" y1="1170.7656" y2="1170.7656"/><ellipse cx="1056" cy="1188.8438" fill="#84BE84" rx="3" ry="3" style="stroke:#038048;stroke-width:1.0;"/><text fill="#000000" font-family="sans-serif" font-size="20" lengthAdjust="spacing" textLength="329" x="1066" y="1195.5273">getJobOpeningsList(code, username)</text></g><!--class JobOpeningManagementService--><g id="elem_JobOpeningManagementService"><rect codeLine="46" fill="#F1F1F1" height="76.3125" id="JobOpeningManagementService" rx="2.5" ry="2.5" style="stroke:#181818;stroke-width:0.5;" width="387" x="129.5" y="729.1094"/><ellipse cx="176.55" cy="746.6875" fill="#ADD1B2" rx="12" ry="12" style="stroke:#181818;stroke-width:1.0;"/><path d="M178.6906,741.6094 Q178.8781,741.3594 179.0969,741.2344 Q179.3156,741.0938 179.5656,741.0938 Q180.0031,741.0938 180.2844,741.4063 Q180.5656,741.7031 180.5656,742.4219 L180.5656,744.125 Q180.5656,744.8438 180.2844,745.1563 Q180.0031,745.4688 179.5656,745.4688 Q179.175,745.4688 178.925,745.2344 Q178.675,745.0156 178.5656,744.4063 Q178.5031,743.9844 178.2844,743.7656 Q177.8938,743.3281 177.175,743.0625 Q176.4563,742.7969 175.7375,742.7969 Q174.8313,742.7969 174.0813,743.1875 Q173.3313,743.5781 172.7531,744.4688 Q172.175,745.3438 172.175,746.5469 L172.175,747.8438 Q172.175,749.2969 173.2219,750.2656 Q174.2844,751.2344 176.1438,751.2344 Q177.2531,751.2344 178.0344,750.9219 Q178.4719,750.75 178.9875,750.2344 Q179.3,749.9219 179.4719,749.8281 Q179.6438,749.7344 179.8781,749.7344 Q180.2688,749.7344 180.5656,750.0469 Q180.8781,750.3438 180.8781,750.75 Q180.8781,751.1563 180.4719,751.625 Q179.8781,752.3125 178.9406,752.7031 Q177.675,753.2344 176.1594,753.2344 Q174.3781,753.2344 172.9563,752.5 Q171.8,751.9063 170.9875,750.6406 Q170.175,749.375 170.175,747.8906 L170.175,746.5313 Q170.175,744.9688 170.8938,743.625 Q171.6281,742.2656 172.9094,741.5313 Q174.2063,740.7969 175.6594,740.7969 Q176.5188,740.7969 177.2688,741 Q178.0344,741.2031 178.6906,741.6094 Z " fill="#000000"/><text fill="#000000" font-family="sans-serif" font-size="20" lengthAdjust="spacing" textLength="284" x="198.45" y="754.8711">JobOpeningManagementService</text><line style="stroke:#181818;stroke-width:0.5;" x1="130.5" x2="515.5" y1="764.2656" y2="764.2656"/><line style="stroke:#181818;stroke-width:0.5;" x1="130.5" x2="515.5" y1="772.2656" y2="772.2656"/><ellipse cx="140.5" cy="790.3438" fill="#84BE84" rx="3" ry="3" style="stroke:#038048;stroke-width:1.0;"/><text fill="#000000" font-family="sans-serif" font-size="20" lengthAdjust="spacing" textLength="360" x="150.5" y="797.0273">getCustomerJobOpeningData(username)</text></g><!--class JobOpeningListDTOService--><g id="elem_JobOpeningListDTOService"><rect codeLine="51" fill="#F1F1F1" height="76.3125" id="JobOpeningListDTOService" rx="2.5" ry="2.5" style="stroke:#181818;stroke-width:0.5;" width="615" x="394.5" y="1127.6094"/><ellipse cx="576" cy="1145.1875" fill="#ADD1B2" rx="12" ry="12" style="stroke:#181818;stroke-width:1.0;"/><path d="M578.1406,1140.1094 Q578.3281,1139.8594 578.5469,1139.7344 Q578.7656,1139.5938 579.0156,1139.5938 Q579.4531,1139.5938 579.7344,1139.9063 Q580.0156,1140.2031 580.0156,1140.9219 L580.0156,1142.625 Q580.0156,1143.3438 579.7344,1143.6563 Q579.4531,1143.9688 579.0156,1143.9688 Q578.625,1143.9688 578.375,1143.7344 Q578.125,1143.5156 578.0156,1142.9063 Q577.9531,1142.4844 577.7344,1142.2656 Q577.3438,1141.8281 576.625,1141.5625 Q575.9063,1141.2969 575.1875,1141.2969 Q574.2813,1141.2969 573.5313,1141.6875 Q572.7813,1142.0781 572.2031,1142.9688 Q571.625,1143.8438 571.625,1145.0469 L571.625,1146.3438 Q571.625,1147.7969 572.6719,1148.7656 Q573.7344,1149.7344 575.5938,1149.7344 Q576.7031,1149.7344 577.4844,1149.4219 Q577.9219,1149.25 578.4375,1148.7344 Q578.75,1148.4219 578.9219,1148.3281 Q579.0938,1148.2344 579.3281,1148.2344 Q579.7188,1148.2344 580.0156,1148.5469 Q580.3281,1148.8438 580.3281,1149.25 Q580.3281,1149.6563 579.9219,1150.125 Q579.3281,1150.8125 578.3906,1151.2031 Q577.125,1151.7344 575.6094,1151.7344 Q573.8281,1151.7344 572.4063,1151 Q571.25,1150.4063 570.4375,1149.1406 Q569.625,1147.875 569.625,1146.3906 L569.625,1145.0313 Q569.625,1143.4688 570.3438,1142.125 Q571.0781,1140.7656 572.3594,1140.0313 Q573.6563,1139.2969 575.1094,1139.2969 Q575.9688,1139.2969 576.7188,1139.5 Q577.4844,1139.7031 578.1406,1140.1094 Z " fill="#000000"/><text fill="#000000" font-family="sans-serif" font-size="20" lengthAdjust="spacing" textLength="243" x="598" y="1153.3711">JobOpeningListDTOService</text><line style="stroke:#181818;stroke-width:0.5;" x1="395.5" x2="1008.5" y1="1162.7656" y2="1162.7656"/><line style="stroke:#181818;stroke-width:0.5;" x1="395.5" x2="1008.5" y1="1170.7656" y2="1170.7656"/><ellipse cx="405.5" cy="1188.8438" fill="#84BE84" rx="3" ry="3" style="stroke:#038048;stroke-width:1.0;"/><text fill="#000000" font-family="sans-serif" font-size="20" lengthAdjust="spacing" textLength="588" x="415.5" y="1195.5273">convertJobOpeningsToCustomerJobOpeningDTO(jobOpeningsList)</text></g><!--class CustomerManagementService--><g id="elem_CustomerManagementService"><rect codeLine="55" fill="#F1F1F1" height="76.3125" id="CustomerManagementService" rx="2.5" ry="2.5" style="stroke:#181818;stroke-width:0.5;" width="352" x="7" y="1127.6094"/><ellipse cx="47.3" cy="1145.1875" fill="#ADD1B2" rx="12" ry="12" style="stroke:#181818;stroke-width:1.0;"/><path d="M49.4406,1140.1094 Q49.6281,1139.8594 49.8469,1139.7344 Q50.0656,1139.5938 50.3156,1139.5938 Q50.7531,1139.5938 51.0344,1139.9063 Q51.3156,1140.2031 51.3156,1140.9219 L51.3156,1142.625 Q51.3156,1143.3438 51.0344,1143.6563 Q50.7531,1143.9688 50.3156,1143.9688 Q49.925,1143.9688 49.675,1143.7344 Q49.425,1143.5156 49.3156,1142.9063 Q49.2531,1142.4844 49.0344,1142.2656 Q48.6438,1141.8281 47.925,1141.5625 Q47.2063,1141.2969 46.4875,1141.2969 Q45.5813,1141.2969 44.8313,1141.6875 Q44.0813,1142.0781 43.5031,1142.9688 Q42.925,1143.8438 42.925,1145.0469 L42.925,1146.3438 Q42.925,1147.7969 43.9719,1148.7656 Q45.0344,1149.7344 46.8938,1149.7344 Q48.0031,1149.7344 48.7844,1149.4219 Q49.2219,1149.25 49.7375,1148.7344 Q50.05,1148.4219 50.2219,1148.3281 Q50.3938,1148.2344 50.6281,1148.2344 Q51.0188,1148.2344 51.3156,1148.5469 Q51.6281,1148.8438 51.6281,1149.25 Q51.6281,1149.6563 51.2219,1150.125 Q50.6281,1150.8125 49.6906,1151.2031 Q48.425,1151.7344 46.9094,1151.7344 Q45.1281,1151.7344 43.7063,1151 Q42.55,1150.4063 41.7375,1149.1406 Q40.925,1147.875 40.925,1146.3906 L40.925,1145.0313 Q40.925,1143.4688 41.6438,1142.125 Q42.3781,1140.7656 43.6594,1140.0313 Q44.9563,1139.2969 46.4094,1139.2969 Q47.2688,1139.2969 48.0188,1139.5 Q48.7844,1139.7031 49.4406,1140.1094 Z " fill="#000000"/><text fill="#000000" font-family="sans-serif" font-size="20" lengthAdjust="spacing" textLength="264" x="67.7" y="1153.3711">CustomerManagementService</text><line style="stroke:#181818;stroke-width:0.5;" x1="8" x2="358" y1="1162.7656" y2="1162.7656"/><line style="stroke:#181818;stroke-width:0.5;" x1="8" x2="358" y1="1170.7656" y2="1170.7656"/><ellipse cx="18" cy="1188.8438" fill="#84BE84" rx="3" ry="3" style="stroke:#038048;stroke-width:1.0;"/><text fill="#000000" font-family="sans-serif" font-size="20" lengthAdjust="spacing" textLength="325" x="28" y="1195.5273">getCustomerByUsername(username)</text></g><!--class CustomerRepository--><g id="elem_CustomerRepository"><rect codeLine="59" fill="#F1F1F1" height="76.3125" id="CustomerRepository" rx="2.5" ry="2.5" style="stroke:#181818;stroke-width:0.5;" width="352" x="7" y="1301.6094"/><ellipse cx="88.5" cy="1319.1875" fill="#ADD1B2" rx="12" ry="12" style="stroke:#181818;stroke-width:1.0;"/><path d="M90.6406,1314.1094 Q90.8281,1313.8594 91.0469,1313.7344 Q91.2656,1313.5938 91.5156,1313.5938 Q91.9531,1313.5938 92.2344,1313.9063 Q92.5156,1314.2031 92.5156,1314.9219 L92.5156,1316.625 Q92.5156,1317.3438 92.2344,1317.6563 Q91.9531,1317.9688 91.5156,1317.9688 Q91.125,1317.9688 90.875,1317.7344 Q90.625,1317.5156 90.5156,1316.9063 Q90.4531,1316.4844 90.2344,1316.2656 Q89.8438,1315.8281 89.125,1315.5625 Q88.4063,1315.2969 87.6875,1315.2969 Q86.7813,1315.2969 86.0313,1315.6875 Q85.2813,1316.0781 84.7031,1316.9688 Q84.125,1317.8438 84.125,1319.0469 L84.125,1320.3438 Q84.125,1321.7969 85.1719,1322.7656 Q86.2344,1323.7344 88.0938,1323.7344 Q89.2031,1323.7344 89.9844,1323.4219 Q90.4219,1323.25 90.9375,1322.7344 Q91.25,1322.4219 91.4219,1322.3281 Q91.5938,1322.2344 91.8281,1322.2344 Q92.2188,1322.2344 92.5156,1322.5469 Q92.8281,1322.8438 92.8281,1323.25 Q92.8281,1323.6563 92.4219,1324.125 Q91.8281,1324.8125 90.8906,1325.2031 Q89.625,1325.7344 88.1094,1325.7344 Q86.3281,1325.7344 84.9063,1325 Q83.75,1324.4063 82.9375,1323.1406 Q82.125,1321.875 82.125,1320.3906 L82.125,1319.0313 Q82.125,1317.4688 82.8438,1316.125 Q83.5781,1314.7656 84.8594,1314.0313 Q86.1563,1313.2969 87.6094,1313.2969 Q88.4688,1313.2969 89.2188,1313.5 Q89.9844,1313.7031 90.6406,1314.1094 Z " fill="#000000"/><text fill="#000000" font-family="sans-serif" font-size="20" lengthAdjust="spacing" textLength="180" x="110.5" y="1327.3711">CustomerRepository</text><line style="stroke:#181818;stroke-width:0.5;" x1="8" x2="358" y1="1336.7656" y2="1336.7656"/><line style="stroke:#181818;stroke-width:0.5;" x1="8" x2="358" y1="1344.7656" y2="1344.7656"/><ellipse cx="18" cy="1362.8438" fill="#84BE84" rx="3" ry="3" style="stroke:#038048;stroke-width:1.0;"/><text fill="#000000" font-family="sans-serif" font-size="20" lengthAdjust="spacing" textLength="325" x="28" y="1369.5273">getCustomerByUsername(username)</text></g><!--class JobOpeningRepository--><g id="elem_JobOpeningRepository"><rect codeLine="63" fill="#F1F1F1" height="76.3125" id="JobOpeningRepository" rx="2.5" ry="2.5" style="stroke:#181818;stroke-width:0.5;" width="595" x="276.5" y="915.6094"/><ellipse cx="469.5" cy="933.1875" fill="#ADD1B2" rx="12" ry="12" style="stroke:#181818;stroke-width:1.0;"/><path d="M471.6406,928.1094 Q471.8281,927.8594 472.0469,927.7344 Q472.2656,927.5938 472.5156,927.5938 Q472.9531,927.5938 473.2344,927.9063 Q473.5156,928.2031 473.5156,928.9219 L473.5156,930.625 Q473.5156,931.3438 473.2344,931.6563 Q472.9531,931.9688 472.5156,931.9688 Q472.125,931.9688 471.875,931.7344 Q471.625,931.5156 471.5156,930.9063 Q471.4531,930.4844 471.2344,930.2656 Q470.8438,929.8281 470.125,929.5625 Q469.4063,929.2969 468.6875,929.2969 Q467.7813,929.2969 467.0313,929.6875 Q466.2813,930.0781 465.7031,930.9688 Q465.125,931.8438 465.125,933.0469 L465.125,934.3438 Q465.125,935.7969 466.1719,936.7656 Q467.2344,937.7344 469.0938,937.7344 Q470.2031,937.7344 470.9844,937.4219 Q471.4219,937.25 471.9375,936.7344 Q472.25,936.4219 472.4219,936.3281 Q472.5938,936.2344 472.8281,936.2344 Q473.2188,936.2344 473.5156,936.5469 Q473.8281,936.8438 473.8281,937.25 Q473.8281,937.6563 473.4219,938.125 Q472.8281,938.8125 471.8906,939.2031 Q470.625,939.7344 469.1094,939.7344 Q467.3281,939.7344 465.9063,939 Q464.75,938.4063 463.9375,937.1406 Q463.125,935.875 463.125,934.3906 L463.125,933.0313 Q463.125,931.4688 463.8438,930.125 Q464.5781,928.7656 465.8594,928.0313 Q467.1563,927.2969 468.6094,927.2969 Q469.4688,927.2969 470.2188,927.5 Q470.9844,927.7031 471.6406,928.1094 Z " fill="#000000"/><text fill="#000000" font-family="sans-serif" font-size="20" lengthAdjust="spacing" textLength="200" x="491.5" y="941.3711">JobOpeningRepository</text><line style="stroke:#181818;stroke-width:0.5;" x1="277.5" x2="870.5" y1="950.7656" y2="950.7656"/><line style="stroke:#181818;stroke-width:0.5;" x1="277.5" x2="870.5" y1="958.7656" y2="958.7656"/><ellipse cx="287.5" cy="976.8438" fill="#84BE84" rx="3" ry="3" style="stroke:#038048;stroke-width:1.0;"/><text fill="#000000" font-family="sans-serif" font-size="20" lengthAdjust="spacing" textLength="568" x="297.5" y="983.5273">findAllJobOpeningsWithCustomerCode(customerCode.toString())</text></g><!--class AuthorizationService--><g id="elem_AuthorizationService"><rect codeLine="67" fill="#F1F1F1" height="76.3125" id="AuthorizationService" rx="2.5" ry="2.5" style="stroke:#181818;stroke-width:0.5;" width="211" x="1793.5" y="555.1094"/><ellipse cx="1809.5" cy="572.6875" fill="#ADD1B2" rx="12" ry="12" style="stroke:#181818;stroke-width:1.0;"/><path d="M1811.6406,567.6094 Q1811.8281,567.3594 1812.0469,567.2344 Q1812.2656,567.0938 1812.5156,567.0938 Q1812.9531,567.0938 1813.2344,567.4063 Q1813.5156,567.7031 1813.5156,568.4219 L1813.5156,570.125 Q1813.5156,570.8438 1813.2344,571.1563 Q1812.9531,571.4688 1812.5156,571.4688 Q1812.125,571.4688 1811.875,571.2344 Q1811.625,571.0156 1811.5156,570.4063 Q1811.4531,569.9844 1811.2344,569.7656 Q1810.8438,569.3281 1810.125,569.0625 Q1809.4063,568.7969 1808.6875,568.7969 Q1807.7813,568.7969 1807.0313,569.1875 Q1806.2813,569.5781 1805.7031,570.4688 Q1805.125,571.3438 1805.125,572.5469 L1805.125,573.8438 Q1805.125,575.2969 1806.1719,576.2656 Q1807.2344,577.2344 1809.0938,577.2344 Q1810.2031,577.2344 1810.9844,576.9219 Q1811.4219,576.75 1811.9375,576.2344 Q1812.25,575.9219 1812.4219,575.8281 Q1812.5938,575.7344 1812.8281,575.7344 Q1813.2188,575.7344 1813.5156,576.0469 Q1813.8281,576.3438 1813.8281,576.75 Q1813.8281,577.1563 1813.4219,577.625 Q1812.8281,578.3125 1811.8906,578.7031 Q1810.625,579.2344 1809.1094,579.2344 Q1807.3281,579.2344 1805.9063,578.5 Q1804.75,577.9063 1803.9375,576.6406 Q1803.125,575.375 1803.125,573.8906 L1803.125,572.5313 Q1803.125,570.9688 1803.8438,569.625 Q1804.5781,568.2656 1805.8594,567.5313 Q1807.1563,566.7969 1808.6094,566.7969 Q1809.4688,566.7969 1810.2188,567 Q1810.9844,567.2031 1811.6406,567.6094 Z " fill="#000000"/><text fill="#000000" font-family="sans-serif" font-size="20" lengthAdjust="spacing" textLength="177" x="1824.5" y="580.8711">AuthorizationService</text><line style="stroke:#181818;stroke-width:0.5;" x1="1794.5" x2="2003.5" y1="590.2656" y2="590.2656"/><rect fill="none" height="6" style="stroke:#C82930;stroke-width:1.0;" width="6" x="1801.5" y="605.3438"/><text fill="#000000" font-family="sans-serif" font-size="20" lengthAdjust="spacing" textLength="96" x="1814.5" y="615.0273">theSession</text><line style="stroke:#181818;stroke-width:0.5;" x1="1794.5" x2="2003.5" y1="623.4219" y2="623.4219"/></g><!--class UserSession--><g id="elem_UserSession"><rect codeLine="71" fill="#F1F1F1" height="76.3125" id="UserSession" rx="2.5" ry="2.5" style="stroke:#181818;stroke-width:0.5;" width="185" x="1965.5" y="729.1094"/><ellipse cx="1999.95" cy="746.6875" fill="#ADD1B2" rx="12" ry="12" style="stroke:#181818;stroke-width:1.0;"/><path d="M2002.0906,741.6094 Q2002.2781,741.3594 2002.4969,741.2344 Q2002.7156,741.0938 2002.9656,741.0938 Q2003.4031,741.0938 2003.6844,741.4063 Q2003.9656,741.7031 2003.9656,742.4219 L2003.9656,744.125 Q2003.9656,744.8438 2003.6844,745.1563 Q2003.4031,745.4688 2002.9656,745.4688 Q2002.575,745.4688 2002.325,745.2344 Q2002.075,745.0156 2001.9656,744.4063 Q2001.9031,743.9844 2001.6844,743.7656 Q2001.2938,743.3281 2000.575,743.0625 Q1999.8563,742.7969 1999.1375,742.7969 Q1998.2313,742.7969 1997.4813,743.1875 Q1996.7313,743.5781 1996.1531,744.4688 Q1995.575,745.3438 1995.575,746.5469 L1995.575,747.8438 Q1995.575,749.2969 1996.6219,750.2656 Q1997.6844,751.2344 1999.5438,751.2344 Q2000.6531,751.2344 2001.4344,750.9219 Q2001.8719,750.75 2002.3875,750.2344 Q2002.7,749.9219 2002.8719,749.8281 Q2003.0438,749.7344 2003.2781,749.7344 Q2003.6688,749.7344 2003.9656,750.0469 Q2004.2781,750.3438 2004.2781,750.75 Q2004.2781,751.1563 2003.8719,751.625 Q2003.2781,752.3125 2002.3406,752.7031 Q2001.075,753.2344 1999.5594,753.2344 Q1997.7781,753.2344 1996.3563,752.5 Q1995.2,751.9063 1994.3875,750.6406 Q1993.575,749.375 1993.575,747.8906 L1993.575,746.5313 Q1993.575,744.9688 1994.2938,743.625 Q1995.0281,742.2656 1996.3094,741.5313 Q1997.6063,740.7969 1999.0594,740.7969 Q1999.9188,740.7969 2000.6688,741 Q2001.4344,741.2031 2002.0906,741.6094 Z " fill="#000000"/><text fill="#000000" font-family="sans-serif" font-size="20" lengthAdjust="spacing" textLength="110" x="2019.05" y="754.8711">UserSession</text><line style="stroke:#181818;stroke-width:0.5;" x1="1966.5" x2="2149.5" y1="764.2656" y2="764.2656"/><rect fill="none" height="6" style="stroke:#C82930;stroke-width:1.0;" width="6" x="1973.5" y="779.3438"/><text fill="#000000" font-family="sans-serif" font-size="20" lengthAdjust="spacing" textLength="158" x="1986.5" y="789.0273">authenticatedUser</text><line style="stroke:#181818;stroke-width:0.5;" x1="1966.5" x2="2149.5" y1="797.4219" y2="797.4219"/></g><!--class MessageDTO--><g id="elem_MessageDTO"><rect codeLine="75" fill="#F1F1F1" height="51.1563" id="MessageDTO" rx="2.5" ry="2.5" style="stroke:#181818;stroke-width:0.5;" width="157" x="1833.5" y="1140.1094"/><ellipse cx="1849.5" cy="1157.6875" fill="#ADD1B2" rx="12" ry="12" style="stroke:#181818;stroke-width:1.0;"/><path d="M1851.6406,1152.6094 Q1851.8281,1152.3594 1852.0469,1152.2344 Q1852.2656,1152.0938 1852.5156,1152.0938 Q1852.9531,1152.0938 1853.2344,1152.4063 Q1853.5156,1152.7031 1853.5156,1153.4219 L1853.5156,1155.125 Q1853.5156,1155.8438 1853.2344,1156.1563 Q1852.9531,1156.4688 1852.5156,1156.4688 Q1852.125,1156.4688 1851.875,1156.2344 Q1851.625,1156.0156 1851.5156,1155.4063 Q1851.4531,1154.9844 1851.2344,1154.7656 Q1850.8438,1154.3281 1850.125,1154.0625 Q1849.4063,1153.7969 1848.6875,1153.7969 Q1847.7813,1153.7969 1847.0313,1154.1875 Q1846.2813,1154.5781 1845.7031,1155.4688 Q1845.125,1156.3438 1845.125,1157.5469 L1845.125,1158.8438 Q1845.125,1160.2969 1846.1719,1161.2656 Q1847.2344,1162.2344 1849.0938,1162.2344 Q1850.2031,1162.2344 1850.9844,1161.9219 Q1851.4219,1161.75 1851.9375,1161.2344 Q1852.25,1160.9219 1852.4219,1160.8281 Q1852.5938,1160.7344 1852.8281,1160.7344 Q1853.2188,1160.7344 1853.5156,1161.0469 Q1853.8281,1161.3438 1853.8281,1161.75 Q1853.8281,1162.1563 1853.4219,1162.625 Q1852.8281,1163.3125 1851.8906,1163.7031 Q1850.625,1164.2344 1849.1094,1164.2344 Q1847.3281,1164.2344 1845.9063,1163.5 Q1844.75,1162.9063 1843.9375,1161.6406 Q1843.125,1160.375 1843.125,1158.8906 L1843.125,1157.5313 Q1843.125,1155.9688 1843.8438,1154.625 Q1844.5781,1153.2656 1845.8594,1152.5313 Q1847.1563,1151.7969 1848.6094,1151.7969 Q1849.4688,1151.7969 1850.2188,1152 Q1850.9844,1152.2031 1851.6406,1152.6094 Z " fill="#000000"/><text fill="#000000" font-family="sans-serif" font-size="20" lengthAdjust="spacing" textLength="123" x="1864.5" y="1165.8711">MessageDTO</text><line style="stroke:#181818;stroke-width:0.5;" x1="1834.5" x2="1989.5" y1="1175.2656" y2="1175.2656"/><line style="stroke:#181818;stroke-width:0.5;" x1="1834.5" x2="1989.5" y1="1183.2656" y2="1183.2656"/></g><!--class FollowUpServer--><g id="elem_FollowUpServer"><rect codeLine="77" fill="#F1F1F1" height="51.1563" id="FollowUpServer" rx="2.5" ry="2.5" style="stroke:#181818;stroke-width:0.5;" width="173" x="1313.5" y="741.6094"/><ellipse cx="1329.5" cy="759.1875" fill="#ADD1B2" rx="12" ry="12" style="stroke:#181818;stroke-width:1.0;"/><path d="M1331.6406,754.1094 Q1331.8281,753.8594 1332.0469,753.7344 Q1332.2656,753.5938 1332.5156,753.5938 Q1332.9531,753.5938 1333.2344,753.9063 Q1333.5156,754.2031 1333.5156,754.9219 L1333.5156,756.625 Q1333.5156,757.3438 1333.2344,757.6563 Q1332.9531,757.9688 1332.5156,757.9688 Q1332.125,757.9688 1331.875,757.7344 Q1331.625,757.5156 1331.5156,756.9063 Q1331.4531,756.4844 1331.2344,756.2656 Q1330.8438,755.8281 1330.125,755.5625 Q1329.4063,755.2969 1328.6875,755.2969 Q1327.7813,755.2969 1327.0313,755.6875 Q1326.2813,756.0781 1325.7031,756.9688 Q1325.125,757.8438 1325.125,759.0469 L1325.125,760.3438 Q1325.125,761.7969 1326.1719,762.7656 Q1327.2344,763.7344 1329.0938,763.7344 Q1330.2031,763.7344 1330.9844,763.4219 Q1331.4219,763.25 1331.9375,762.7344 Q1332.25,762.4219 1332.4219,762.3281 Q1332.5938,762.2344 1332.8281,762.2344 Q1333.2188,762.2344 1333.5156,762.5469 Q1333.8281,762.8438 1333.8281,763.25 Q1333.8281,763.6563 1333.4219,764.125 Q1332.8281,764.8125 1331.8906,765.2031 Q1330.625,765.7344 1329.1094,765.7344 Q1327.3281,765.7344 1325.9063,765 Q1324.75,764.4063 1323.9375,763.1406 Q1323.125,761.875 1323.125,760.3906 L1323.125,759.0313 Q1323.125,757.4688 1323.8438,756.125 Q1324.5781,754.7656 1325.8594,754.0313 Q1327.1563,753.2969 1328.6094,753.2969 Q1329.4688,753.2969 1330.2188,753.5 Q1330.9844,753.7031 1331.6406,754.1094 Z " fill="#000000"/><text fill="#000000" font-family="sans-serif" font-size="20" lengthAdjust="spacing" textLength="139" x="1344.5" y="767.3711">FollowUpServer</text><line style="stroke:#181818;stroke-width:0.5;" x1="1314.5" x2="1485.5" y1="776.7656" y2="776.7656"/><line style="stroke:#181818;stroke-width:0.5;" x1="1314.5" x2="1485.5" y1="784.7656" y2="784.7656"/></g><!--class AuthenticationService--><g id="elem_AuthenticationService"><rect codeLine="79" fill="#F1F1F1" height="151.7813" id="AuthenticationService" rx="2.5" ry="2.5" style="stroke:#181818;stroke-width:0.5;" width="362" x="1436" y="1089.6094"/><ellipse cx="1519" cy="1107.1875" fill="#ADD1B2" rx="12" ry="12" style="stroke:#181818;stroke-width:1.0;"/><path d="M1521.1406,1102.1094 Q1521.3281,1101.8594 1521.5469,1101.7344 Q1521.7656,1101.5938 1522.0156,1101.5938 Q1522.4531,1101.5938 1522.7344,1101.9063 Q1523.0156,1102.2031 1523.0156,1102.9219 L1523.0156,1104.625 Q1523.0156,1105.3438 1522.7344,1105.6563 Q1522.4531,1105.9688 1522.0156,1105.9688 Q1521.625,1105.9688 1521.375,1105.7344 Q1521.125,1105.5156 1521.0156,1104.9063 Q1520.9531,1104.4844 1520.7344,1104.2656 Q1520.3438,1103.8281 1519.625,1103.5625 Q1518.9063,1103.2969 1518.1875,1103.2969 Q1517.2813,1103.2969 1516.5313,1103.6875 Q1515.7813,1104.0781 1515.2031,1104.9688 Q1514.625,1105.8438 1514.625,1107.0469 L1514.625,1108.3438 Q1514.625,1109.7969 1515.6719,1110.7656 Q1516.7344,1111.7344 1518.5938,1111.7344 Q1519.7031,1111.7344 1520.4844,1111.4219 Q1520.9219,1111.25 1521.4375,1110.7344 Q1521.75,1110.4219 1521.9219,1110.3281 Q1522.0938,1110.2344 1522.3281,1110.2344 Q1522.7188,1110.2344 1523.0156,1110.5469 Q1523.3281,1110.8438 1523.3281,1111.25 Q1523.3281,1111.6563 1522.9219,1112.125 Q1522.3281,1112.8125 1521.3906,1113.2031 Q1520.125,1113.7344 1518.6094,1113.7344 Q1516.8281,1113.7344 1515.4063,1113 Q1514.25,1112.4063 1513.4375,1111.1406 Q1512.625,1109.875 1512.625,1108.3906 L1512.625,1107.0313 Q1512.625,1105.4688 1513.3438,1104.125 Q1514.0781,1102.7656 1515.3594,1102.0313 Q1516.6563,1101.2969 1518.1094,1101.2969 Q1518.9688,1101.2969 1519.7188,1101.5 Q1520.4844,1101.7031 1521.1406,1102.1094 Z " fill="#000000"/><text fill="#000000" font-family="sans-serif" font-size="20" lengthAdjust="spacing" textLength="187" x="1541" y="1115.3711">AuthenticationService</text><line style="stroke:#181818;stroke-width:0.5;" x1="1437" x2="1797" y1="1124.7656" y2="1124.7656"/><line style="stroke:#181818;stroke-width:0.5;" x1="1437" x2="1797" y1="1132.7656" y2="1132.7656"/><ellipse cx="1447" cy="1188.5781" fill="#84BE84" rx="3" ry="3" style="stroke:#038048;stroke-width:1.0;"/><text fill="#000000" font-family="sans-serif" font-size="20" lengthAdjust="spacing" textLength="303" x="1457" y="1157.5273">authenticate(username, password,</text><text fill="#000000" font-family="sans-serif" font-size="20" lengthAdjust="spacing" textLength="329" x="1463" y="1182.6836">BaseRoles.CUSTOMER_MANAGER,</text><text fill="#000000" font-family="sans-serif" font-size="20" lengthAdjust="spacing" textLength="219" x="1463" y="1207.8398">BaseRoles.CUSTOMER,</text><text fill="#000000" font-family="sans-serif" font-size="20" lengthAdjust="spacing" textLength="220" x="1463" y="1232.9961">BaseRoles.CANDIDATE)</text></g><!--class JobOpening--><g id="elem_JobOpening"><rect codeLine="83" fill="#F1F1F1" height="76.3125" id="JobOpening" rx="2.5" ry="2.5" style="stroke:#181818;stroke-width:0.5;" width="139" x="577.5" y="729.1094"/><ellipse cx="593.5" cy="746.6875" fill="#ADD1B2" rx="12" ry="12" style="stroke:#181818;stroke-width:1.0;"/><path d="M595.6406,741.6094 Q595.8281,741.3594 596.0469,741.2344 Q596.2656,741.0938 596.5156,741.0938 Q596.9531,741.0938 597.2344,741.4063 Q597.5156,741.7031 597.5156,742.4219 L597.5156,744.125 Q597.5156,744.8438 597.2344,745.1563 Q596.9531,745.4688 596.5156,745.4688 Q596.125,745.4688 595.875,745.2344 Q595.625,745.0156 595.5156,744.4063 Q595.4531,743.9844 595.2344,743.7656 Q594.8438,743.3281 594.125,743.0625 Q593.4063,742.7969 592.6875,742.7969 Q591.7813,742.7969 591.0313,743.1875 Q590.2813,743.5781 589.7031,744.4688 Q589.125,745.3438 589.125,746.5469 L589.125,747.8438 Q589.125,749.2969 590.1719,750.2656 Q591.2344,751.2344 593.0938,751.2344 Q594.2031,751.2344 594.9844,750.9219 Q595.4219,750.75 595.9375,750.2344 Q596.25,749.9219 596.4219,749.8281 Q596.5938,749.7344 596.8281,749.7344 Q597.2188,749.7344 597.5156,750.0469 Q597.8281,750.3438 597.8281,750.75 Q597.8281,751.1563 597.4219,751.625 Q596.8281,752.3125 595.8906,752.7031 Q594.625,753.2344 593.1094,753.2344 Q591.3281,753.2344 589.9063,752.5 Q588.75,751.9063 587.9375,750.6406 Q587.125,749.375 587.125,747.8906 L587.125,746.5313 Q587.125,744.9688 587.8438,743.625 Q588.5781,742.2656 589.8594,741.5313 Q591.1563,740.7969 592.6094,740.7969 Q593.4688,740.7969 594.2188,741 Q594.9844,741.2031 595.6406,741.6094 Z " fill="#000000"/><text fill="#000000" font-family="sans-serif" font-size="20" lengthAdjust="spacing" textLength="105" x="608.5" y="754.8711">JobOpening</text><line style="stroke:#181818;stroke-width:0.5;" x1="578.5" x2="715.5" y1="764.2656" y2="764.2656"/><line style="stroke:#181818;stroke-width:0.5;" x1="578.5" x2="715.5" y1="772.2656" y2="772.2656"/><ellipse cx="588.5" cy="790.3438" fill="#84BE84" rx="3" ry="3" style="stroke:#038048;stroke-width:1.0;"/><text fill="#000000" font-family="sans-serif" font-size="20" lengthAdjust="spacing" textLength="73" x="598.5" y="797.0273">toDTO()</text></g><!--class Socket--><g id="elem_Socket"><rect codeLine="87" fill="#F1F1F1" height="101.4688" id="Socket" rx="2.5" ry="2.5" style="stroke:#181818;stroke-width:0.5;" width="337" x="1521.5" y="716.6094"/><ellipse cx="1655" cy="734.1875" fill="#ADD1B2" rx="12" ry="12" style="stroke:#181818;stroke-width:1.0;"/><path d="M1657.1406,729.1094 Q1657.3281,728.8594 1657.5469,728.7344 Q1657.7656,728.5938 1658.0156,728.5938 Q1658.4531,728.5938 1658.7344,728.9063 Q1659.0156,729.2031 1659.0156,729.9219 L1659.0156,731.625 Q1659.0156,732.3438 1658.7344,732.6563 Q1658.4531,732.9688 1658.0156,732.9688 Q1657.625,732.9688 1657.375,732.7344 Q1657.125,732.5156 1657.0156,731.9063 Q1656.9531,731.4844 1656.7344,731.2656 Q1656.3438,730.8281 1655.625,730.5625 Q1654.9063,730.2969 1654.1875,730.2969 Q1653.2813,730.2969 1652.5313,730.6875 Q1651.7813,731.0781 1651.2031,731.9688 Q1650.625,732.8438 1650.625,734.0469 L1650.625,735.3438 Q1650.625,736.7969 1651.6719,737.7656 Q1652.7344,738.7344 1654.5938,738.7344 Q1655.7031,738.7344 1656.4844,738.4219 Q1656.9219,738.25 1657.4375,737.7344 Q1657.75,737.4219 1657.9219,737.3281 Q1658.0938,737.2344 1658.3281,737.2344 Q1658.7188,737.2344 1659.0156,737.5469 Q1659.3281,737.8438 1659.3281,738.25 Q1659.3281,738.6563 1658.9219,739.125 Q1658.3281,739.8125 1657.3906,740.2031 Q1656.125,740.7344 1654.6094,740.7344 Q1652.8281,740.7344 1651.4063,740 Q1650.25,739.4063 1649.4375,738.1406 Q1648.625,736.875 1648.625,735.3906 L1648.625,734.0313 Q1648.625,732.4688 1649.3438,731.125 Q1650.0781,729.7656 1651.3594,729.0313 Q1652.6563,728.2969 1654.1094,728.2969 Q1654.9688,728.2969 1655.7188,728.5 Q1656.4844,728.7031 1657.1406,729.1094 Z " fill="#000000"/><text fill="#000000" font-family="sans-serif" font-size="20" lengthAdjust="spacing" textLength="61" x="1677" y="742.3711">Socket</text><line style="stroke:#181818;stroke-width:0.5;" x1="1522.5" x2="1857.5" y1="751.7656" y2="751.7656"/><line style="stroke:#181818;stroke-width:0.5;" x1="1522.5" x2="1857.5" y1="759.7656" y2="759.7656"/><ellipse cx="1532.5" cy="777.8438" fill="#84BE84" rx="3" ry="3" style="stroke:#038048;stroke-width:1.0;"/><text fill="#000000" font-family="sans-serif" font-size="20" lengthAdjust="spacing" textLength="310" x="1542.5" y="784.5273">Socket(serverIP, PORT_NUMBER)</text><ellipse cx="1532.5" cy="803" fill="#84BE84" rx="3" ry="3" style="stroke:#038048;stroke-width:1.0;"/><text fill="#000000" font-family="sans-serif" font-size="20" lengthAdjust="spacing" textLength="60" x="1542.5" y="809.6836">close()</text></g><!--class ServerSocket--><g id="elem_ServerSocket"><rect codeLine="92" fill="#F1F1F1" height="101.4688" id="ServerSocket" rx="2.5" ry="2.5" style="stroke:#181818;stroke-width:0.5;" width="309" x="1530.5" y="903.1094"/><ellipse cx="1621" cy="920.6875" fill="#ADD1B2" rx="12" ry="12" style="stroke:#181818;stroke-width:1.0;"/><path d="M1623.1406,915.6094 Q1623.3281,915.3594 1623.5469,915.2344 Q1623.7656,915.0938 1624.0156,915.0938 Q1624.4531,915.0938 1624.7344,915.4063 Q1625.0156,915.7031 1625.0156,916.4219 L1625.0156,918.125 Q1625.0156,918.8438 1624.7344,919.1563 Q1624.4531,919.4688 1624.0156,919.4688 Q1623.625,919.4688 1623.375,919.2344 Q1623.125,919.0156 1623.0156,918.4063 Q1622.9531,917.9844 1622.7344,917.7656 Q1622.3438,917.3281 1621.625,917.0625 Q1620.9063,916.7969 1620.1875,916.7969 Q1619.2813,916.7969 1618.5313,917.1875 Q1617.7813,917.5781 1617.2031,918.4688 Q1616.625,919.3438 1616.625,920.5469 L1616.625,921.8438 Q1616.625,923.2969 1617.6719,924.2656 Q1618.7344,925.2344 1620.5938,925.2344 Q1621.7031,925.2344 1622.4844,924.9219 Q1622.9219,924.75 1623.4375,924.2344 Q1623.75,923.9219 1623.9219,923.8281 Q1624.0938,923.7344 1624.3281,923.7344 Q1624.7188,923.7344 1625.0156,924.0469 Q1625.3281,924.3438 1625.3281,924.75 Q1625.3281,925.1563 1624.9219,925.625 Q1624.3281,926.3125 1623.3906,926.7031 Q1622.125,927.2344 1620.6094,927.2344 Q1618.8281,927.2344 1617.4063,926.5 Q1616.25,925.9063 1615.4375,924.6406 Q1614.625,923.375 1614.625,921.8906 L1614.625,920.5313 Q1614.625,918.9688 1615.3438,917.625 Q1616.0781,916.2656 1617.3594,915.5313 Q1618.6563,914.7969 1620.1094,914.7969 Q1620.9688,914.7969 1621.7188,915 Q1622.4844,915.2031 1623.1406,915.6094 Z " fill="#000000"/><text fill="#000000" font-family="sans-serif" font-size="20" lengthAdjust="spacing" textLength="119" x="1643" y="928.8711">ServerSocket</text><line style="stroke:#181818;stroke-width:0.5;" x1="1531.5" x2="1838.5" y1="938.2656" y2="938.2656"/><line style="stroke:#181818;stroke-width:0.5;" x1="1531.5" x2="1838.5" y1="946.2656" y2="946.2656"/><ellipse cx="1541.5" cy="964.3438" fill="#84BE84" rx="3" ry="3" style="stroke:#038048;stroke-width:1.0;"/><text fill="#000000" font-family="sans-serif" font-size="20" lengthAdjust="spacing" textLength="282" x="1551.5" y="971.0273">ServerSocket(PORT_NUMBER)</text><ellipse cx="1541.5" cy="989.5" fill="#84BE84" rx="3" ry="3" style="stroke:#038048;stroke-width:1.0;"/><text fill="#000000" font-family="sans-serif" font-size="20" lengthAdjust="spacing" textLength="60" x="1551.5" y="996.1836">close()</text></g><!--class JobOpeningDataDTO--><g id="elem_JobOpeningDataDTO"><rect codeLine="97" fill="#F1F1F1" height="51.1563" id="JobOpeningDataDTO" rx="2.5" ry="2.5" style="stroke:#181818;stroke-width:0.5;" width="223" x="813.5" y="567.6094"/><ellipse cx="829.5" cy="585.1875" fill="#ADD1B2" rx="12" ry="12" style="stroke:#181818;stroke-width:1.0;"/><path d="M831.6406,580.1094 Q831.8281,579.8594 832.0469,579.7344 Q832.2656,579.5938 832.5156,579.5938 Q832.9531,579.5938 833.2344,579.9063 Q833.5156,580.2031 833.5156,580.9219 L833.5156,582.625 Q833.5156,583.3438 833.2344,583.6563 Q832.9531,583.9688 832.5156,583.9688 Q832.125,583.9688 831.875,583.7344 Q831.625,583.5156 831.5156,582.9063 Q831.4531,582.4844 831.2344,582.2656 Q830.8438,581.8281 830.125,581.5625 Q829.4063,581.2969 828.6875,581.2969 Q827.7813,581.2969 827.0313,581.6875 Q826.2813,582.0781 825.7031,582.9688 Q825.125,583.8438 825.125,585.0469 L825.125,586.3438 Q825.125,587.7969 826.1719,588.7656 Q827.2344,589.7344 829.0938,589.7344 Q830.2031,589.7344 830.9844,589.4219 Q831.4219,589.25 831.9375,588.7344 Q832.25,588.4219 832.4219,588.3281 Q832.5938,588.2344 832.8281,588.2344 Q833.2188,588.2344 833.5156,588.5469 Q833.8281,588.8438 833.8281,589.25 Q833.8281,589.6563 833.4219,590.125 Q832.8281,590.8125 831.8906,591.2031 Q830.625,591.7344 829.1094,591.7344 Q827.3281,591.7344 825.9063,591 Q824.75,590.4063 823.9375,589.1406 Q823.125,587.875 823.125,586.3906 L823.125,585.0313 Q823.125,583.4688 823.8438,582.125 Q824.5781,580.7656 825.8594,580.0313 Q827.1563,579.2969 828.6094,579.2969 Q829.4688,579.2969 830.2188,579.5 Q830.9844,579.7031 831.6406,580.1094 Z " fill="#000000"/><text fill="#000000" font-family="sans-serif" font-size="20" lengthAdjust="spacing" textLength="189" x="844.5" y="593.3711">JobOpeningDataDTO</text><line style="stroke:#181818;stroke-width:0.5;" x1="814.5" x2="1035.5" y1="602.7656" y2="602.7656"/><line style="stroke:#181818;stroke-width:0.5;" x1="814.5" x2="1035.5" y1="610.7656" y2="610.7656"/></g><!--reverse link AbstractListUI to ListCustomerJobOpeningsUI--><g id="link_AbstractListUI_ListCustomerJobOpeningsUI"><path codeLine="101" d="M1667,142.1494 C1667,155.4694 1667,169.2994 1667,181.4794 " fill="none" id="AbstractListUI-backto-ListCustomerJobOpeningsUI" style="stroke:#181818;stroke-width:1.0;"/><polygon fill="none" points="1660,141.9394,1667,121.9394,1674,141.9394,1660,141.9394" style="stroke:#181818;stroke-width:1.0;"/></g><!--reverse link DTOable to JobOpening--><g id="link_DTOable_JobOpening"><path codeLine="102" d="M647,651.6994 C647,677.1494 647,706.3394 647,728.8594 " fill="none" id="DTOable-backto-JobOpening" style="stroke:#181818;stroke-width:1.0;"/><polygon fill="none" points="640,651.4294,647,631.4294,654,651.4294,640,651.4294" style="stroke:#181818;stroke-width:1.0;"/></g><!--link ListCustomerJobOpeningsUI to ListCustomerJobOpeningsController--><g id="link_ListCustomerJobOpeningsUI_ListCustomerJobOpeningsController"><path codeLine="104" d="M1667,257.9294 C1667,273.9194 1667,293.2494 1667,312.2094 " fill="none" id="ListCustomerJobOpeningsUI-to-ListCustomerJobOpeningsController" style="stroke:#181818;stroke-width:1.0;stroke-dasharray:7.0,7.0;"/><polygon fill="#181818" points="1667,317.5494,1671,308.5494,1667,312.5494,1663,308.5494,1667,317.5494" style="stroke:#181818;stroke-width:1.0;"/></g><!--link ListCustomerJobOpeningsController to AuthorizationService--><g id="link_ListCustomerJobOpeningsController_AuthorizationService"><path codeLine="106" d="M1755.37,469.8394 C1787.96,497.5794 1823.63,527.9494 1851.28,551.4894 " fill="none" id="ListCustomerJobOpeningsController-to-AuthorizationService" style="stroke:#181818;stroke-width:1.0;stroke-dasharray:7.0,7.0;"/><polygon fill="#181818" points="1855.3,554.9094,1851.0148,546.0416,1851.4836,551.679,1845.8462,552.1479,1855.3,554.9094" style="stroke:#181818;stroke-width:1.0;"/></g><!--link ListCustomerJobOpeningsController to FollowUpConnectionService--><g id="link_ListCustomerJobOpeningsController_FollowUpConnectionService"><path codeLine="107" d="M1578.63,469.8394 C1556.93,488.3094 1533.86,507.9494 1512.71,525.9594 " fill="none" id="ListCustomerJobOpeningsController-to-FollowUpConnectionService" style="stroke:#181818;stroke-width:1.0;stroke-dasharray:7.0,7.0;"/><polygon fill="#181818" points="1508.78,529.2994,1518.2226,526.4998,1512.5833,526.0537,1513.0294,520.4144,1508.78,529.2994" style="stroke:#181818;stroke-width:1.0;"/></g><!--link ListCustomerJobOpeningsController to JobOpeningDataDTO--><g id="link_ListCustomerJobOpeningsController_JobOpeningDataDTO"><path codeLine="108" d="M1343.16,463.5794 C1261.33,483.0094 1173.99,505.4894 1094,529.6094 C1059.46,540.0194 1021.74,553.7394 990.72,565.6694 " fill="none" id="ListCustomerJobOpeningsController-to-JobOpeningDataDTO" style="stroke:#181818;stroke-width:1.0;stroke-dasharray:7.0,7.0;"/><polygon fill="#181818" points="985.8,567.5694,995.6363,568.0659,990.4656,565.7716,992.7599,560.6009,985.8,567.5694" style="stroke:#181818;stroke-width:1.0;"/></g><!--link ListCustomerJobOpeningsController to UserSession--><g id="link_ListCustomerJobOpeningsController_UserSession"><path codeLine="109" d="M1951.99,469.6794 C1978.5,485.8994 2002.64,505.6294 2022,529.6094 C2066.65,584.9094 2067.69,671.9494 2063.48,723.5894 " fill="none" id="ListCustomerJobOpeningsController-to-UserSession" style="stroke:#181818;stroke-width:1.0;stroke-dasharray:7.0,7.0;"/><polygon fill="#181818" points="2063.02,728.7794,2067.8006,720.1686,2063.4624,723.799,2059.832,719.4608,2063.02,728.7794" style="stroke:#181818;stroke-width:1.0;"/></g><!--link FollowUpConnectionService to FollowUpServer--><g id="link_FollowUpConnectionService_FollowUpServer"><path codeLine="112" d="M1422.27,656.6894 C1416.73,683.8994 1410.5,714.4994 1406.04,736.3994 " fill="none" id="FollowUpConnectionService-to-FollowUpServer" style="stroke:#181818;stroke-width:1.0;stroke-dasharray:7.0,7.0;"/><polygon fill="#181818" points="1405.01,741.4994,1410.7289,733.481,1406.0098,736.6004,1402.8904,731.8813,1405.01,741.4994" style="stroke:#181818;stroke-width:1.0;"/></g><!--link FollowUpConnectionService to ClientConnectionThread--><g id="link_FollowUpConnectionService_ClientConnectionThread"><path codeLine="113" d="M1343.01,656.8194 C1324.4,673.9794 1307.14,694.1294 1296,716.6094 C1272.24,764.5494 1268.26,824.7994 1270.08,872.4294 " fill="none" id="FollowUpConnectionService-to-ClientConnectionThread" style="stroke:#181818;stroke-width:1.0;stroke-dasharray:7.0,7.0;"/><polygon fill="#181818" points="1270.3,877.5794,1273.911,868.4164,1270.0859,872.584,1265.9183,868.7589,1270.3,877.5794" style="stroke:#181818;stroke-width:1.0;"/></g><!--link FollowUpServer to ClientConnectionThread--><g id="link_FollowUpServer_ClientConnectionThread"><path codeLine="114" d="M1383.93,792.6094 C1370.39,813.2594 1350.23,843.9994 1331.19,873.0294 " fill="none" id="FollowUpServer-to-ClientConnectionThread" style="stroke:#181818;stroke-width:1.0;"/><polygon fill="#181818" points="1328.39,877.2994,1336.6685,871.964,1331.1305,873.1173,1329.9772,867.5793,1328.39,877.2994" style="stroke:#181818;stroke-width:1.0;"/></g><!--link ClientConnectionThread to ListingRequestThread--><g id="link_ClientConnectionThread_ListingRequestThread"><path codeLine="115" d="M1258.94,1029.8294 C1250.61,1061.0794 1241.25,1096.1494 1234.18,1122.6894 " fill="none" id="ClientConnectionThread-to-ListingRequestThread" style="stroke:#181818;stroke-width:1.0;"/><polygon fill="#181818" points="1232.88,1127.5394,1239.0611,1119.8716,1234.1665,1122.7077,1231.3304,1117.8132,1232.88,1127.5394" style="stroke:#181818;stroke-width:1.0;"/></g><!--link ClientConnectionThread to AuthenticationService--><g id="link_ClientConnectionThread_AuthenticationService"><path codeLine="116" d="M1400.07,1029.8294 C1429.86,1048.3394 1461.82,1068.1894 1491.8,1086.8194 " fill="none" id="ClientConnectionThread-to-AuthenticationService" style="stroke:#181818;stroke-width:1.0;"/><polygon fill="#181818" points="1496.21,1089.5594,1490.6659,1081.4192,1491.9596,1086.9261,1486.4527,1088.2199,1496.21,1089.5594" style="stroke:#181818;stroke-width:1.0;"/></g><!--link ClientConnectionThread to MessageDTO--><g id="link_ClientConnectionThread_MessageDTO"><path codeLine="117" d="M1495.79,1025.0394 C1501.58,1026.6094 1507.32,1028.1394 1513,1029.6094 C1645.48,1063.8794 1690.45,1032.9194 1815,1089.6094 C1840.22,1101.0894 1864.87,1120.2794 1883.01,1136.3794 " fill="none" id="ClientConnectionThread-to-MessageDTO" style="stroke:#181818;stroke-width:1.0;"/><polygon fill="#181818" points="1887.01,1139.9694,1882.9962,1130.9755,1883.2935,1136.6246,1877.6445,1136.9219,1887.01,1139.9694" style="stroke:#181818;stroke-width:1.0;"/></g><!--link FollowUpConnectionService to Socket--><g id="link_FollowUpConnectionService_Socket"><path codeLine="119" d="M1527.78,656.6894 C1555.49,675.3794 1585.57,695.6694 1612.22,713.6394 " fill="none" id="FollowUpConnectionService-to-Socket" style="stroke:#181818;stroke-width:1.0;"/><polygon fill="#181818" points="1616.46,716.5094,1611.2234,708.168,1612.3108,713.7194,1606.7594,714.8068,1616.46,716.5094" style="stroke:#181818;stroke-width:1.0;"/></g><!--link FollowUpServer to ServerSocket--><g id="link_FollowUpServer_ServerSocket"><path codeLine="120" d="M1437.85,792.6094 C1480.05,819.9294 1549.56,864.9294 1604.12,900.2494 " fill="none" id="FollowUpServer-to-ServerSocket" style="stroke:#181818;stroke-width:1.0;"/><polygon fill="#181818" points="1608.36,902.9894,1602.9722,894.7449,1604.1606,900.2755,1598.63,901.4639,1608.36,902.9894" style="stroke:#181818;stroke-width:1.0;"/></g><!--link JobOpeningManagementService to JobOpeningRepository--><g id="link_JobOpeningManagementService_JobOpeningRepository"><path codeLine="122" d="M373.49,805.2194 C415.79,836.3194 476.04,880.6094 519.44,912.5094 " fill="none" id="JobOpeningManagementService-to-JobOpeningRepository" style="stroke:#181818;stroke-width:1.0;stroke-dasharray:7.0,7.0;"/><polygon fill="#181818" points="523.59,915.5494,518.7214,906.988,519.5662,912.5814,513.9727,913.4262,523.59,915.5494" style="stroke:#181818;stroke-width:1.0;"/></g><!--reverse link JobOpening to JobOpeningRepository--><g id="link_JobOpening_JobOpeningRepository"><path codeLine="123" d="M630.26,810.4294 C617.73,842.0794 600.77,884.9594 588.75,915.3294 " fill="none" id="JobOpening-backto-JobOpeningRepository" style="stroke:#181818;stroke-width:1.0;stroke-dasharray:7.0,7.0;"/><polygon fill="#181818" points="632.23,805.4494,625.1918,812.3388,630.3854,810.0967,632.6275,815.2902,632.23,805.4494" style="stroke:#181818;stroke-width:1.0;"/></g><!--reverse link JobOpeningDataDTO to JobOpening--><g id="link_JobOpeningDataDTO_JobOpening"><path codeLine="124" d="M880.71,621.5094 C833.72,650.5794 759.2,696.6894 706.97,729.0094 " fill="none" id="JobOpeningDataDTO-backto-JobOpening" style="stroke:#181818;stroke-width:1.0;"/><polygon fill="#181818" points="885.17,618.7494,875.4127,620.0889,880.9196,621.3826,879.6259,626.8896,885.17,618.7494" style="stroke:#181818;stroke-width:1.0;"/></g><!--reverse link JobOpeningDataDTO to JobOpeningListDTOService--><g id="link_JobOpeningDataDTO_JobOpeningListDTOService"><path codeLine="125" d="M930.55,623.9194 C942.75,698.1194 965.13,894.7694 889,1029.6094 C864.88,1072.3194 821.03,1105.0694 781.85,1127.6094 " fill="none" id="JobOpeningDataDTO-backto-JobOpeningListDTOService" style="stroke:#181818;stroke-width:1.0;"/><polygon fill="#181818" points="929.69,618.7994,927.2375,628.338,930.5189,623.7302,935.1267,627.0117,929.69,618.7994" style="stroke:#181818;stroke-width:1.0;"/></g><!--link JobOpeningRepository to JobOpeningListDTOService--><g id="link_JobOpeningRepository_JobOpeningListDTOService"><path codeLine="126" d="M596.59,991.6694 C619,1028.4394 653.29,1084.6994 676.63,1122.9894 " fill="none" id="JobOpeningRepository-to-JobOpeningListDTOService" style="stroke:#181818;stroke-width:1.0;"/><polygon fill="#181818" points="679.42,1127.5694,678.1427,1117.8037,676.8139,1123.3023,671.3153,1121.9734,679.42,1127.5694" style="stroke:#181818;stroke-width:1.0;"/></g><!--link JobOpeningManagementService to CustomerManagementService--><g id="link_JobOpeningManagementService_CustomerManagementService"><path codeLine="128" d="M297.86,805.3194 C284.82,825.9194 269.48,852.3994 259,877.6094 C224.24,961.2394 201.4,1065.2594 190.48,1122.2894 " fill="none" id="JobOpeningManagementService-to-CustomerManagementService" style="stroke:#181818;stroke-width:1.0;stroke-dasharray:7.0,7.0;"/><polygon fill="#181818" points="189.53,1127.3294,195.1315,1119.2285,190.4583,1122.4163,187.2706,1117.7432,189.53,1127.3294" style="stroke:#181818;stroke-width:1.0;"/></g><!--link CustomerManagementService to CustomerRepository--><g id="link_CustomerManagementService_CustomerRepository"><path codeLine="130" d="M183,1203.9294 C183,1231.0894 183,1267.9094 183,1296.1894 " fill="none" id="CustomerManagementService-to-CustomerRepository" style="stroke:#181818;stroke-width:1.0;stroke-dasharray:7.0,7.0;"/><polygon fill="#181818" points="183,1301.3594,187,1292.3594,183,1296.3594,179,1292.3594,183,1301.3594" style="stroke:#181818;stroke-width:1.0;"/></g><!--reverse link MessageDTO to FollowUpConnectionService--><g id="link_MessageDTO_FollowUpConnectionService"><path codeLine="132" d="M1919.93,1135.0194 C1939.01,1056.6094 1978.67,841.0094 1876,716.6094 C1857,693.5894 1811.17,673.5294 1755.9,656.6794 " fill="none" id="MessageDTO-backto-FollowUpConnectionService" style="stroke:#181818;stroke-width:1.0;"/><polygon fill="#181818" points="1918.7,1139.9794,1924.7419,1132.2015,1919.8992,1135.1253,1916.9754,1130.2827,1918.7,1139.9794" style="stroke:#181818;stroke-width:1.0;"/></g><!--link AuthorizationService to UserSession--><g id="link_AuthorizationService_UserSession"><path codeLine="134" d="M1933.5,631.4294 C1959.02,659.0394 1993.77,696.6294 2020.08,725.0894 " fill="none" id="AuthorizationService-to-UserSession" style="stroke:#181818;stroke-width:1.0;"/><polygon fill="#181818" points="2023.57,728.8594,2020.3896,719.5381,2020.1727,725.1908,2014.52,724.9739,2023.57,728.8594" style="stroke:#181818;stroke-width:1.0;"/></g><!--SRC=[hLLHJzim47xthx2q1u9e2c9l4veKqZ8LhIrgKkrb4ZBEqHhSEBCT46Fyzzb9I-msQPcqjyJttNVVdUzywf7b1P5anGLzX0ndS4zAhgz4hXFs6_3v6JfQQbseBwUd1IUvBbUyJyNgb7AYL9WniZ3E26ccEU1vyldix1p7reO76nkvKreIgd7bWwFrxtUcz7o4Nz4dd8baAPw3O_I646Av1dbFAE11EYLtXlOLdM0jp5-Dg6ciUrmgBLOWhyNTj82SvGjLCPvuZ7lniSbK2iv1LduBq0aenKGUIyWWrunmPMWg2nLv3bGROv1eQRnngK3cP0Kzl3ueJAXd8RCUDcdWc-ailPtCnvV3cQLuQC8EY2PMqJQHXL4k5CHDh1qcMwKwgIkZN3pFYmQTW7nY53R9NF-da2SOb3QNmTJIWJNfDtcReoUGevlUhkQrw9WpKzY69brA85cbM085zWHjgfjOL6Ijej_F3Ps6W5PX4jlNsXwJKY_jXL9YqJTIQ4453rRckia2J7TjDOk9FeDVfSdR4UYNj19cm_QSQZQtqo3793SnLbQFVp-x7MaJ3lQpsR16hqjbMjDKtTMMYXPkCq8FldmdwGt-eDZBb_bQdo_Kfvb18HJJGhxyctyZTulXdkLPnBcJum-cbnlIs5n3G9sVlXPrfmV73djaka18zflumn9YqnphoM_0LkRwiC8uBGIPDJRGyNiRuTUtxV5Cgfbm397NYswPlHXj0_OpnvT4mKnmKFrudgJJyN1sEuucqRVXhDswTHfD1gD1b0vRQzx-sDPJLDdgpw1ZpDTJwVbMI9V1EGWEUVk3iIdl4OwIP1gFedGqdIG8RUsKYpzXsBqWq6QlLB36X53tJkdtlnxU89q4pfAnH6qz-47NpWV_W_uxvVoWdpC9va7gNZkknlgU3u3Rbm7Qcfmmx4HsR1FhqVQAxyEtJkK-XsRezzN48kjkRqlBdGQ4zgqC__wQnn6rlfZzil3m3Wg7PH6szKBdYZdiu4GEFQZFT2X3sn5TQmYXxWtbEZgLGSwpV666lNjyKEjYiAcuhVyN]--></g></svg>