<?xml version="1.0" encoding="UTF-8" standalone="no"?><svg xmlns="http://www.w3.org/2000/svg" xmlns:xlink="http://www.w3.org/1999/xlink" contentStyleType="text/css" height="1099px" preserveAspectRatio="none" style="width:3719px;height:1099px;background:#FFFFFF;" version="1.1" viewBox="0 0 3719 1099" width="3719px" zoomAndPan="magnify"><defs/><g><text fill="#000000" font-family="sans-serif" font-size="14" font-weight="bold" lengthAdjust="spacing" textLength="467" x="1627.75" y="29.5332">US3002 Sequence Diagram [FollowUp Server Connection / Domain]</text><rect fill="#FFFFFF" height="579.875" style="stroke:#181818;stroke-width:1.0;" width="10" x="358" y="181.0781"/><rect fill="#FFFFFF" height="42.1563" style="stroke:#181818;stroke-width:1.0;" width="10" x="358" y="844.4219"/><rect fill="#FFFFFF" height="42.1563" style="stroke:#181818;stroke-width:1.0;" width="10" x="808" y="223.2344"/><rect fill="#FFFFFF" height="75.1563" style="stroke:#181818;stroke-width:1.0;" width="10" x="808" y="886.5781"/><rect fill="#FFFFFF" height="430.8281" style="stroke:#181818;stroke-width:1.0;" width="10" x="1286.5" y="275.3906"/><rect fill="#FFFFFF" height="285.7813" style="stroke:#181818;stroke-width:1.0;" width="10" x="2105.5" y="315.5469"/><rect fill="#FFFFFF" height="30" style="stroke:#181818;stroke-width:1.0;" width="10" x="2717.5" y="463.0156"/><rect fill="#FFFFFF" height="30" style="stroke:#181818;stroke-width:1.0;" width="10" x="2965" y="532.1719"/><rect fill="#FFFFFF" height="69.1563" style="stroke:#181818;stroke-width:1.0;" width="10" x="3248.5" y="354.7031"/><rect fill="#FFFFFF" height="30" style="stroke:#181818;stroke-width:1.0;" width="10" x="3617.5" y="393.8594"/><line style="stroke:#181818;stroke-width:0.5;stroke-dasharray:5.0,5.0;" x1="362.5" x2="362.5" y1="139.9219" y2="986.7344"/><line style="stroke:#181818;stroke-width:0.5;stroke-dasharray:5.0,5.0;" x1="813" x2="813" y1="139.9219" y2="986.7344"/><line style="stroke:#181818;stroke-width:0.5;stroke-dasharray:5.0,5.0;" x1="1291" x2="1291" y1="269.3125" y2="986.7344"/><line style="stroke:#181818;stroke-width:0.5;stroke-dasharray:5.0,5.0;" x1="1896.5" x2="1896.5" y1="644.4063" y2="986.7344"/><line style="stroke:#181818;stroke-width:0.5;stroke-dasharray:5.0,5.0;" x1="2110.5" x2="2110.5" y1="139.9219" y2="986.7344"/><line style="stroke:#181818;stroke-width:0.5;stroke-dasharray:5.0,5.0;" x1="2722.5" x2="2722.5" y1="139.9219" y2="986.7344"/><line style="stroke:#181818;stroke-width:0.5;stroke-dasharray:5.0,5.0;" x1="2969.5" x2="2969.5" y1="139.9219" y2="986.7344"/><line style="stroke:#181818;stroke-width:0.5;stroke-dasharray:5.0,5.0;" x1="3253.5" x2="3253.5" y1="139.9219" y2="986.7344"/><line style="stroke:#181818;stroke-width:0.5;stroke-dasharray:5.0,5.0;" x1="3622.5" x2="3622.5" y1="139.9219" y2="986.7344"/><rect fill="#E2E2F0" height="64.3125" rx="2.5" ry="2.5" style="stroke:#181818;stroke-width:0.5;" width="263" x="231.5" y="74.6094"/><text fill="#000000" font-family="sans-serif" font-size="20" lengthAdjust="spacing" textLength="84" x="321" y="102.3711">«service»</text><text fill="#000000" font-family="sans-serif" font-size="20" lengthAdjust="spacing" textLength="249" x="238.5" y="127.5273">:FollowUpConnectionService</text><rect fill="#E2E2F0" height="64.3125" rx="2.5" ry="2.5" style="stroke:#181818;stroke-width:0.5;" width="263" x="231.5" y="985.7344"/><text fill="#000000" font-family="sans-serif" font-size="20" lengthAdjust="spacing" textLength="84" x="321" y="1013.4961">«service»</text><text fill="#000000" font-family="sans-serif" font-size="20" lengthAdjust="spacing" textLength="249" x="238.5" y="1038.6523">:FollowUpConnectionService</text><rect fill="#E2E2F0" height="39.1563" rx="2.5" ry="2.5" style="stroke:#181818;stroke-width:0.5;" width="228" x="699" y="99.7656"/><text fill="#000000" font-family="sans-serif" font-size="20" lengthAdjust="spacing" textLength="214" x="706" y="127.5273">:ClientConnectionThread</text><rect fill="#E2E2F0" height="39.1563" rx="2.5" ry="2.5" style="stroke:#181818;stroke-width:0.5;" width="228" x="699" y="985.7344"/><text fill="#000000" font-family="sans-serif" font-size="20" lengthAdjust="spacing" textLength="214" x="706" y="1013.4961">:ClientConnectionThread</text><rect fill="#E2E2F0" height="39.1563" rx="2.5" ry="2.5" style="stroke:#181818;stroke-width:0.5;" width="211" x="1186" y="985.7344"/><text fill="#000000" font-family="sans-serif" font-size="20" lengthAdjust="spacing" textLength="197" x="1193" y="1013.4961">:ListingRequestThread</text><rect fill="#E2E2F0" height="39.1563" rx="2.5" ry="2.5" style="stroke:#181818;stroke-width:0.5;" width="104" x="1844.5" y="985.7344"/><text fill="#000000" font-family="sans-serif" font-size="20" lengthAdjust="spacing" textLength="90" x="1851.5" y="1013.4961">:DataDTO</text><rect fill="#E2E2F0" height="64.3125" rx="2.5" ry="2.5" style="stroke:#181818;stroke-width:0.5;" width="304" x="1958.5" y="74.6094"/><text fill="#000000" font-family="sans-serif" font-size="20" lengthAdjust="spacing" textLength="84" x="2068.5" y="102.3711">«service»</text><text fill="#000000" font-family="sans-serif" font-size="20" lengthAdjust="spacing" textLength="290" x="1965.5" y="127.5273">:JobOpeningManagementService</text><rect fill="#E2E2F0" height="64.3125" rx="2.5" ry="2.5" style="stroke:#181818;stroke-width:0.5;" width="304" x="1958.5" y="985.7344"/><text fill="#000000" font-family="sans-serif" font-size="20" lengthAdjust="spacing" textLength="84" x="2068.5" y="1013.4961">«service»</text><text fill="#000000" font-family="sans-serif" font-size="20" lengthAdjust="spacing" textLength="290" x="1965.5" y="1038.6523">:JobOpeningManagementService</text><text fill="#000000" font-family="sans-serif" font-size="20" lengthAdjust="spacing" textLength="110" x="2664.5" y="110.3711">«repository»</text><text fill="#000000" font-family="sans-serif" font-size="20" lengthAdjust="spacing" textLength="206" x="2616.5" y="135.5273">:JobOpeningRepository</text><path d="M2704.5,53.6094 C2704.5,43.6094 2722.5,43.6094 2722.5,43.6094 C2722.5,43.6094 2740.5,43.6094 2740.5,53.6094 L2740.5,79.6094 C2740.5,89.6094 2722.5,89.6094 2722.5,89.6094 C2722.5,89.6094 2704.5,89.6094 2704.5,79.6094 L2704.5,53.6094 " fill="#E2E2F0" style="stroke:#181818;stroke-width:1.5;"/><path d="M2704.5,53.6094 C2704.5,63.6094 2722.5,63.6094 2722.5,63.6094 C2722.5,63.6094 2740.5,63.6094 2740.5,53.6094 " fill="none" style="stroke:#181818;stroke-width:1.5;"/><text fill="#000000" font-family="sans-serif" font-size="20" lengthAdjust="spacing" textLength="110" x="2664.5" y="1006.4961">«repository»</text><text fill="#000000" font-family="sans-serif" font-size="20" lengthAdjust="spacing" textLength="206" x="2616.5" y="1031.6523">:JobOpeningRepository</text><path d="M2704.5,1046.0469 C2704.5,1036.0469 2722.5,1036.0469 2722.5,1036.0469 C2722.5,1036.0469 2740.5,1036.0469 2740.5,1046.0469 L2740.5,1072.0469 C2740.5,1082.0469 2722.5,1082.0469 2722.5,1082.0469 C2722.5,1082.0469 2704.5,1082.0469 2704.5,1072.0469 L2704.5,1046.0469 " fill="#E2E2F0" style="stroke:#181818;stroke-width:1.5;"/><path d="M2704.5,1046.0469 C2704.5,1056.0469 2722.5,1056.0469 2722.5,1056.0469 C2722.5,1056.0469 2740.5,1056.0469 2740.5,1046.0469 " fill="none" style="stroke:#181818;stroke-width:1.5;"/><rect fill="#E2E2F0" height="64.3125" rx="2.5" ry="2.5" style="stroke:#181818;stroke-width:0.5;" width="263" x="2838.5" y="74.6094"/><text fill="#000000" font-family="sans-serif" font-size="20" lengthAdjust="spacing" textLength="84" x="2928" y="102.3711">«service»</text><text fill="#000000" font-family="sans-serif" font-size="20" lengthAdjust="spacing" textLength="249" x="2845.5" y="127.5273">:JobOpeningListDTOService</text><rect fill="#E2E2F0" height="64.3125" rx="2.5" ry="2.5" style="stroke:#181818;stroke-width:0.5;" width="263" x="2838.5" y="985.7344"/><text fill="#000000" font-family="sans-serif" font-size="20" lengthAdjust="spacing" textLength="84" x="2928" y="1013.4961">«service»</text><text fill="#000000" font-family="sans-serif" font-size="20" lengthAdjust="spacing" textLength="249" x="2845.5" y="1038.6523">:JobOpeningListDTOService</text><rect fill="#E2E2F0" height="64.3125" rx="2.5" ry="2.5" style="stroke:#181818;stroke-width:0.5;" width="284" x="3111.5" y="74.6094"/><text fill="#000000" font-family="sans-serif" font-size="20" lengthAdjust="spacing" textLength="84" x="3211.5" y="102.3711">«service»</text><text fill="#000000" font-family="sans-serif" font-size="20" lengthAdjust="spacing" textLength="270" x="3118.5" y="127.5273">:CustomerManagementService</text><rect fill="#E2E2F0" height="64.3125" rx="2.5" ry="2.5" style="stroke:#181818;stroke-width:0.5;" width="284" x="3111.5" y="985.7344"/><text fill="#000000" font-family="sans-serif" font-size="20" lengthAdjust="spacing" textLength="84" x="3211.5" y="1013.4961">«service»</text><text fill="#000000" font-family="sans-serif" font-size="20" lengthAdjust="spacing" textLength="270" x="3118.5" y="1038.6523">:CustomerManagementService</text><text fill="#000000" font-family="sans-serif" font-size="20" lengthAdjust="spacing" textLength="110" x="3564.5" y="110.3711">«repository»</text><text fill="#000000" font-family="sans-serif" font-size="20" lengthAdjust="spacing" textLength="186" x="3526.5" y="135.5273">:CustomerRepository</text><path d="M3604.5,53.6094 C3604.5,43.6094 3622.5,43.6094 3622.5,43.6094 C3622.5,43.6094 3640.5,43.6094 3640.5,53.6094 L3640.5,79.6094 C3640.5,89.6094 3622.5,89.6094 3622.5,89.6094 C3622.5,89.6094 3604.5,89.6094 3604.5,79.6094 L3604.5,53.6094 " fill="#E2E2F0" style="stroke:#181818;stroke-width:1.5;"/><path d="M3604.5,53.6094 C3604.5,63.6094 3622.5,63.6094 3622.5,63.6094 C3622.5,63.6094 3640.5,63.6094 3640.5,53.6094 " fill="none" style="stroke:#181818;stroke-width:1.5;"/><text fill="#000000" font-family="sans-serif" font-size="20" lengthAdjust="spacing" textLength="110" x="3564.5" y="1006.4961">«repository»</text><text fill="#000000" font-family="sans-serif" font-size="20" lengthAdjust="spacing" textLength="186" x="3526.5" y="1031.6523">:CustomerRepository</text><path d="M3604.5,1046.0469 C3604.5,1036.0469 3622.5,1036.0469 3622.5,1036.0469 C3622.5,1036.0469 3640.5,1036.0469 3640.5,1046.0469 L3640.5,1072.0469 C3640.5,1082.0469 3622.5,1082.0469 3622.5,1082.0469 C3622.5,1082.0469 3604.5,1082.0469 3604.5,1072.0469 L3604.5,1046.0469 " fill="#E2E2F0" style="stroke:#181818;stroke-width:1.5;"/><path d="M3604.5,1046.0469 C3604.5,1056.0469 3622.5,1056.0469 3622.5,1056.0469 C3622.5,1056.0469 3640.5,1056.0469 3640.5,1046.0469 " fill="none" style="stroke:#181818;stroke-width:1.5;"/><rect fill="#FFFFFF" height="579.875" style="stroke:#181818;stroke-width:1.0;" width="10" x="358" y="181.0781"/><rect fill="#FFFFFF" height="42.1563" style="stroke:#181818;stroke-width:1.0;" width="10" x="358" y="844.4219"/><rect fill="#FFFFFF" height="42.1563" style="stroke:#181818;stroke-width:1.0;" width="10" x="808" y="223.2344"/><rect fill="#FFFFFF" height="75.1563" style="stroke:#181818;stroke-width:1.0;" width="10" x="808" y="886.5781"/><rect fill="#FFFFFF" height="430.8281" style="stroke:#181818;stroke-width:1.0;" width="10" x="1286.5" y="275.3906"/><rect fill="#FFFFFF" height="285.7813" style="stroke:#181818;stroke-width:1.0;" width="10" x="2105.5" y="315.5469"/><rect fill="#FFFFFF" height="30" style="stroke:#181818;stroke-width:1.0;" width="10" x="2717.5" y="463.0156"/><rect fill="#FFFFFF" height="30" style="stroke:#181818;stroke-width:1.0;" width="10" x="2965" y="532.1719"/><rect fill="#FFFFFF" height="69.1563" style="stroke:#181818;stroke-width:1.0;" width="10" x="3248.5" y="354.7031"/><rect fill="#FFFFFF" height="30" style="stroke:#181818;stroke-width:1.0;" width="10" x="3617.5" y="393.8594"/><polygon fill="#181818" points="346,177.0781,356,181.0781,346,185.0781,350,181.0781" style="stroke:#181818;stroke-width:1.0;"/><line style="stroke:#181818;stroke-width:1.0;" x1="0" x2="352" y1="181.0781" y2="181.0781"/><text fill="#000000" font-family="sans-serif" font-size="20" font-weight="bold" lengthAdjust="spacing" textLength="11" x="7" y="174.6836">1</text><text fill="#000000" font-family="sans-serif" font-size="20" lengthAdjust="spacing" textLength="316" x="22" y="174.6836">getJobOpeningsDataList(username)</text><polygon fill="#181818" points="796,219.2344,806,223.2344,796,227.2344,800,223.2344" style="stroke:#181818;stroke-width:1.0;"/><line style="stroke:#181818;stroke-width:1.0;" x1="368" x2="802" y1="223.2344" y2="223.2344"/><text fill="#000000" font-family="sans-serif" font-size="20" font-weight="bold" lengthAdjust="spacing" textLength="11" x="375" y="216.8398">2</text><text fill="#000000" font-family="sans-serif" font-size="20" lengthAdjust="spacing" textLength="406" x="390" y="216.8398">receiveJobOpeningsDataList(username, code)</text><path d="M124,194.0781 L124,229.0781 L353,229.0781 L353,204.0781 L343,194.0781 L124,194.0781 " fill="#FEFFDD" style="stroke:#181818;stroke-width:0.5;"/><path d="M343,194.0781 L343,204.0781 L353,204.0781 L343,194.0781 " fill="#FEFFDD" style="stroke:#181818;stroke-width:0.5;"/><text fill="#000000" font-family="sans-serif" font-size="20" lengthAdjust="spacing" textLength="208" x="130" y="219.8398">code = 7 (JOBOPLIST)</text><polygon fill="#181818" points="1174,261.3906,1184,265.3906,1174,269.3906,1178,265.3906" style="stroke:#181818;stroke-width:1.0;"/><line style="stroke:#181818;stroke-width:1.0;" x1="813" x2="1180" y1="265.3906" y2="265.3906"/><text fill="#000000" font-family="sans-serif" font-size="20" font-weight="bold" lengthAdjust="spacing" textLength="11" x="820" y="258.9961">3</text><text fill="#000000" font-family="sans-serif" font-size="20" lengthAdjust="spacing" textLength="329" x="835" y="258.9961">getJobOpeningsList(code, username)</text><rect fill="#E2E2F0" height="39.1563" rx="2.5" ry="2.5" style="stroke:#181818;stroke-width:0.5;" width="211" x="1186" y="234.2344"/><text fill="#000000" font-family="sans-serif" font-size="20" lengthAdjust="spacing" textLength="197" x="1193" y="261.9961">:ListingRequestThread</text><polygon fill="#181818" points="2093.5,311.5469,2103.5,315.5469,2093.5,319.5469,2097.5,315.5469" style="stroke:#181818;stroke-width:1.0;"/><line style="stroke:#181818;stroke-width:1.0;" x1="1296.5" x2="2099.5" y1="315.5469" y2="315.5469"/><text fill="#000000" font-family="sans-serif" font-size="20" font-weight="bold" lengthAdjust="spacing" textLength="11" x="1303.5" y="309.1523">4</text><text fill="#000000" font-family="sans-serif" font-size="20" lengthAdjust="spacing" textLength="360" x="1318.5" y="309.1523">getCustomerJobOpeningData(username)</text><polygon fill="#181818" points="3236.5,350.7031,3246.5,354.7031,3236.5,358.7031,3240.5,354.7031" style="stroke:#181818;stroke-width:1.0;"/><line style="stroke:#181818;stroke-width:1.0;" x1="2115.5" x2="3242.5" y1="354.7031" y2="354.7031"/><text fill="#000000" font-family="sans-serif" font-size="20" font-weight="bold" lengthAdjust="spacing" textLength="11" x="2122.5" y="348.3086">5</text><text fill="#000000" font-family="sans-serif" font-size="20" lengthAdjust="spacing" textLength="325" x="2137.5" y="348.3086">getCustomerByUsername(username)</text><polygon fill="#181818" points="3605.5,389.8594,3615.5,393.8594,3605.5,397.8594,3609.5,393.8594" style="stroke:#181818;stroke-width:1.0;"/><line style="stroke:#181818;stroke-width:1.0;" x1="3258.5" x2="3611.5" y1="393.8594" y2="393.8594"/><text fill="#000000" font-family="sans-serif" font-size="20" font-weight="bold" lengthAdjust="spacing" textLength="11" x="3265.5" y="387.4648">6</text><text fill="#000000" font-family="sans-serif" font-size="20" lengthAdjust="spacing" textLength="325" x="3280.5" y="387.4648">getCustomerByUsername(username)</text><polygon fill="#181818" points="2705.5,459.0156,2715.5,463.0156,2705.5,467.0156,2709.5,463.0156" style="stroke:#181818;stroke-width:1.0;"/><line style="stroke:#181818;stroke-width:1.0;" x1="2115.5" x2="2711.5" y1="463.0156" y2="463.0156"/><text fill="#000000" font-family="sans-serif" font-size="20" font-weight="bold" lengthAdjust="spacing" textLength="11" x="2122.5" y="456.6211">7</text><text fill="#000000" font-family="sans-serif" font-size="20" lengthAdjust="spacing" textLength="568" x="2137.5" y="456.6211">findAllJobOpeningsWithCustomerCode(customerCode.toString())</text><polygon fill="#181818" points="2953,528.1719,2963,532.1719,2953,536.1719,2957,532.1719" style="stroke:#181818;stroke-width:1.0;"/><line style="stroke:#181818;stroke-width:1.0;" x1="2115.5" x2="2959" y1="532.1719" y2="532.1719"/><text fill="#000000" font-family="sans-serif" font-size="20" font-weight="bold" lengthAdjust="spacing" textLength="11" x="2122.5" y="525.7773">8</text><text fill="#000000" font-family="sans-serif" font-size="20" lengthAdjust="spacing" textLength="588" x="2137.5" y="525.7773">convertJobOpeningsToCustomerJobOpeningDTO(jobOpeningsList)</text><polygon fill="#181818" points="1307.5,597.3281,1297.5,601.3281,1307.5,605.3281,1303.5,601.3281" style="stroke:#181818;stroke-width:1.0;"/><line style="stroke:#181818;stroke-width:1.0;stroke-dasharray:2.0,2.0;" x1="1301.5" x2="2109.5" y1="601.3281" y2="601.3281"/><text fill="#000000" font-family="sans-serif" font-size="20" font-weight="bold" lengthAdjust="spacing" textLength="11" x="1313.5" y="594.9336">9</text><text fill="#000000" font-family="sans-serif" font-size="20" lengthAdjust="spacing" textLength="309" x="1328.5" y="594.9336">jobOpeningsCustomerDataListDTO</text><polygon fill="#181818" points="1832.5,636.4844,1842.5,640.4844,1832.5,644.4844,1836.5,640.4844" style="stroke:#181818;stroke-width:1.0;"/><line style="stroke:#181818;stroke-width:1.0;" x1="1296.5" x2="1838.5" y1="640.4844" y2="640.4844"/><text fill="#000000" font-family="sans-serif" font-size="20" font-weight="bold" lengthAdjust="spacing" textLength="22" x="1303.5" y="634.0898">10</text><text fill="#000000" font-family="sans-serif" font-size="20" lengthAdjust="spacing" textLength="498" x="1329.5" y="634.0898">create(version, code, jobOpeningCustomerDataDTOList)</text><rect fill="#E2E2F0" height="39.1563" rx="2.5" ry="2.5" style="stroke:#181818;stroke-width:0.5;" width="104" x="1844.5" y="609.3281"/><text fill="#000000" font-family="sans-serif" font-size="20" lengthAdjust="spacing" textLength="90" x="1851.5" y="637.0898">:DataDTO</text><polygon fill="#181818" points="379,702.2188,369,706.2188,379,710.2188,375,706.2188" style="stroke:#181818;stroke-width:1.0;"/><line style="stroke:#181818;stroke-width:1.0;stroke-dasharray:2.0,2.0;" x1="373" x2="1290.5" y1="706.2188" y2="706.2188"/><text fill="#000000" font-family="sans-serif" font-size="20" font-weight="bold" lengthAdjust="spacing" textLength="22" x="385" y="699.8242">11</text><text fill="#000000" font-family="sans-serif" font-size="20" lengthAdjust="spacing" textLength="244" x="411" y="699.8242">sOut.writeObject(dataDTO)</text><path d="M1301,664.4844 L1301,724.4844 L1638,724.4844 L1638,674.4844 L1628,664.4844 L1301,664.4844 " fill="#FEFFDD" style="stroke:#181818;stroke-width:0.5;"/><path d="M1628,664.4844 L1628,674.4844 L1638,674.4844 L1628,664.4844 " fill="#FEFFDD" style="stroke:#181818;stroke-width:0.5;"/><text fill="#000000" font-family="sans-serif" font-size="20" lengthAdjust="spacing" textLength="302" x="1307" y="690.2461">sOut an ObjectOutputStream from</text><text fill="#000000" font-family="sans-serif" font-size="20" lengthAdjust="spacing" textLength="316" x="1307" y="715.4023">the connection's sock OutputStream</text><polygon fill="#181818" points="11,756.9531,1,760.9531,11,764.9531,7,760.9531" style="stroke:#181818;stroke-width:1.0;"/><line style="stroke:#181818;stroke-width:1.0;stroke-dasharray:2.0,2.0;" x1="5" x2="362" y1="760.9531" y2="760.9531"/><text fill="#000000" font-family="sans-serif" font-size="20" font-weight="bold" lengthAdjust="spacing" textLength="22" x="17" y="754.5586">12</text><text fill="#000000" font-family="sans-serif" font-size="20" lengthAdjust="spacing" textLength="268" x="43" y="754.5586">jobOpeningCustomerDataDTO</text><polygon fill="#181818" points="346,840.4219,356,844.4219,346,848.4219,350,844.4219" style="stroke:#181818;stroke-width:1.0;"/><line style="stroke:#181818;stroke-width:1.0;" x1="0" x2="352" y1="844.4219" y2="844.4219"/><text fill="#000000" font-family="sans-serif" font-size="20" font-weight="bold" lengthAdjust="spacing" textLength="22" x="7" y="838.0273">13</text><text fill="#000000" font-family="sans-serif" font-size="20" lengthAdjust="spacing" textLength="306" x="33" y="838.0273">closeConnection(PORT_NUMBER)</text><polygon fill="#181818" points="796,882.5781,806,886.5781,796,890.5781,800,886.5781" style="stroke:#181818;stroke-width:1.0;"/><line style="stroke:#181818;stroke-width:1.0;" x1="363" x2="802" y1="886.5781" y2="886.5781"/><text fill="#000000" font-family="sans-serif" font-size="20" font-weight="bold" lengthAdjust="spacing" textLength="22" x="370" y="880.1836">14</text><text fill="#000000" font-family="sans-serif" font-size="20" lengthAdjust="spacing" textLength="200" x="396" y="880.1836">closeConnection(code)</text><path d="M145,857.4219 L145,892.4219 L353,892.4219 L353,867.4219 L343,857.4219 L145,857.4219 " fill="#FEFFDD" style="stroke:#181818;stroke-width:0.5;"/><path d="M343,857.4219 L343,867.4219 L353,867.4219 L343,857.4219 " fill="#FEFFDD" style="stroke:#181818;stroke-width:0.5;"/><text fill="#000000" font-family="sans-serif" font-size="20" lengthAdjust="spacing" textLength="187" x="151" y="883.1836">code = 1 (DISCONN)</text><line style="stroke:#181818;stroke-width:1.0;stroke-dasharray:2.0,2.0;" x1="818" x2="860" y1="928.7344" y2="928.7344"/><line style="stroke:#181818;stroke-width:1.0;stroke-dasharray:2.0,2.0;" x1="860" x2="860" y1="928.7344" y2="941.7344"/><line style="stroke:#181818;stroke-width:1.0;stroke-dasharray:2.0,2.0;" x1="819" x2="860" y1="941.7344" y2="941.7344"/><polygon fill="#181818" points="829,937.7344,819,941.7344,829,945.7344,825,941.7344" style="stroke:#181818;stroke-width:1.0;"/><text fill="#000000" font-family="sans-serif" font-size="20" font-weight="bold" lengthAdjust="spacing" textLength="22" x="825" y="922.3398">15</text><text fill="#000000" font-family="sans-serif" font-size="20" lengthAdjust="spacing" textLength="172" x="851" y="922.3398">clientSocket.close()</text><line style="stroke:#FFFFFF;stroke-width:1.0;" x1="818" x2="860" y1="960.7344" y2="960.7344"/><line style="stroke:#FFFFFF;stroke-width:1.0;" x1="860" x2="860" y1="960.7344" y2="973.7344"/><line style="stroke:#FFFFFF;stroke-width:1.0;" x1="813" x2="860" y1="973.7344" y2="973.7344"/><polygon fill="#FFFFFF" points="823,969.7344,813,973.7344,823,977.7344,819,973.7344" style="stroke:#FFFFFF;stroke-width:1.0;"/><!--SRC=[bLPTJzim57tthx3OmmAYhDiU9Y6612re822eQRK7XYOtkMqDYPtPJXdxzRjEuiP9CnXzId9zpZttqzMFNEHCiIoLyICaD845Ar9pBeM9-1-WduQ466vIeBFeyt3uYKRmgm0H0nrpjaGSlJkNQIgVPZcQr1eK7KaX83PS2lg1ZcN6kBWd19qO7lES2KDtZeuqdkKn71__48UEe056bNM7CbtIHMhT9ZWSfHo4QH3JbGAML82hY-ctoTd9k0EvujfmiPpO0BJn0BsdnyomyJGi3zJFBmPnAUTX3W8TN3F1bf2XF3yCjDie4gIQCmqMhY2NcXkfdZiCaut1GRSC_oV5Xep2VHslnJ4gj94PgFuehFMLC1n19uZjpuImmaXHP7DGXD31iIirFQHBC4qKskRVXX8Kg5Im37O9mwglcO5DUn07jZok0v19GGny3I-nxTDO9iWf9FAbi334ljElz0iDBiFJyFRg8fhk4X09jKU8vtpJQgJnYGAgfxszhKXAlvPzdpQn9D13kFda73JiLIjLt2wjZGyRNb-YwWOaDTgcgIfcc-ZqULPZUxDTrvyuR4tJhknR6JjzuUUZfsiwvavGVSE2UXPS92TfwfNYEpShHp_2YWInzt9WP6GK7WjssodS7aHFJg_T5uV3XrfYAN1F-cqnbJrrd8R1GxjpF2bsZ3tFvLGxFvi6H5yUWtFX-hz3uVgZwRDwxPLj7EEsD12WRetRjfgOVO_T9qTCfNR3rPfj7HRcu4bn0-7y0RTta5IOrY3KNK_nLuwbuikLALyjd391Ap2-v8N1MW5UHGibi_ACMO7DSdqtlDTKu-r6_RFbiMQYwT5Wu4dyProjvdERXyWSr-YG3kZPRsvskhiiJgM6vgOARiF9zEVDxFhqRFA6FTPbgLPMZvoUNRArs3xIO7mHZSAR6t-jUIjioxczRIFx5y4Sb4g2NNzzKqnIxkFltZsjiC3t7at_clD95EWYGnr_0G00]--></g></svg>