<?xml version="1.0" encoding="UTF-8" standalone="no"?><svg xmlns="http://www.w3.org/2000/svg" xmlns:xlink="http://www.w3.org/1999/xlink" contentStyleType="text/css" height="762px" preserveAspectRatio="none" style="width:1080px;height:762px;background:#FFFFFF;" version="1.1" viewBox="0 0 1080 762" width="1080px" zoomAndPan="magnify"><defs/><g><text fill="#000000" font-family="sans-serif" font-size="14" font-weight="bold" lengthAdjust="spacing" textLength="300" x="391.75" y="29.5332">US3002 Sequence Diagram [Customer App]</text><rect fill="#FFFFFF" height="564.3438" style="stroke:#181818;stroke-width:1.0;" width="10" x="218" y="118.9219"/><rect fill="#FFFFFF" height="145.625" style="stroke:#181818;stroke-width:1.0;" width="10" x="568" y="268.7031"/><rect fill="#FFFFFF" height="39.1563" style="stroke:#181818;stroke-width:1.0;" width="10" x="568" y="549.9531"/><rect fill="#FFFFFF" height="39.1563" style="stroke:#181818;stroke-width:1.0;" width="10" x="928" y="336.0156"/><rect fill="#FFFFFF" height="20" style="stroke:#181818;stroke-width:1.0;" width="10" x="928" y="589.1094"/><rect fill="none" height="194.7813" style="stroke:#000000;stroke-width:1.5;" width="996.5" x="78" y="481.4844"/><line style="stroke:#181818;stroke-width:0.5;stroke-dasharray:5.0,5.0;" x1="223" x2="223" y1="108.9219" y2="693.2656"/><line style="stroke:#181818;stroke-width:0.5;stroke-dasharray:5.0,5.0;" x1="573" x2="573" y1="108.9219" y2="693.2656"/><line style="stroke:#181818;stroke-width:0.5;stroke-dasharray:5.0,5.0;" x1="932.5" x2="932.5" y1="108.9219" y2="693.2656"/><rect fill="#E2E2F0" height="64.3125" rx="2.5" ry="2.5" style="stroke:#181818;stroke-width:0.5;" width="270" x="88" y="43.6094"/><text fill="#000000" font-family="sans-serif" font-size="20" lengthAdjust="spacing" textLength="130" x="158" y="71.3711">«presentation»</text><text fill="#000000" font-family="sans-serif" font-size="20" lengthAdjust="spacing" textLength="256" x="95" y="96.5273">:ListCustomerJobOpeningsUI</text><rect fill="#E2E2F0" height="64.3125" rx="2.5" ry="2.5" style="stroke:#181818;stroke-width:0.5;" width="270" x="88" y="692.2656"/><text fill="#000000" font-family="sans-serif" font-size="20" lengthAdjust="spacing" textLength="130" x="158" y="720.0273">«presentation»</text><text fill="#000000" font-family="sans-serif" font-size="20" lengthAdjust="spacing" textLength="256" x="95" y="745.1836">:ListCustomerJobOpeningsUI</text><rect fill="#E2E2F0" height="64.3125" rx="2.5" ry="2.5" style="stroke:#181818;stroke-width:0.5;" width="336" x="405" y="43.6094"/><text fill="#000000" font-family="sans-serif" font-size="20" lengthAdjust="spacing" textLength="115" x="515.5" y="71.3711">«application»</text><text fill="#000000" font-family="sans-serif" font-size="20" lengthAdjust="spacing" textLength="322" x="412" y="96.5273">:ListCustomerJobOpeningsController</text><rect fill="#E2E2F0" height="64.3125" rx="2.5" ry="2.5" style="stroke:#181818;stroke-width:0.5;" width="336" x="405" y="692.2656"/><text fill="#000000" font-family="sans-serif" font-size="20" lengthAdjust="spacing" textLength="115" x="515.5" y="720.0273">«application»</text><text fill="#000000" font-family="sans-serif" font-size="20" lengthAdjust="spacing" textLength="322" x="412" y="745.1836">:ListCustomerJobOpeningsController</text><rect fill="#E2E2F0" height="64.3125" rx="2.5" ry="2.5" style="stroke:#181818;stroke-width:0.5;" width="263" x="801.5" y="43.6094"/><text fill="#000000" font-family="sans-serif" font-size="20" lengthAdjust="spacing" textLength="84" x="891" y="71.3711">«service»</text><text fill="#000000" font-family="sans-serif" font-size="20" lengthAdjust="spacing" textLength="249" x="808.5" y="96.5273">:FollowUpConnectionService</text><rect fill="#E2E2F0" height="64.3125" rx="2.5" ry="2.5" style="stroke:#181818;stroke-width:0.5;" width="263" x="801.5" y="692.2656"/><text fill="#000000" font-family="sans-serif" font-size="20" lengthAdjust="spacing" textLength="84" x="891" y="720.0273">«service»</text><text fill="#000000" font-family="sans-serif" font-size="20" lengthAdjust="spacing" textLength="249" x="808.5" y="745.1836">:FollowUpConnectionService</text><rect fill="#FFFFFF" height="564.3438" style="stroke:#181818;stroke-width:1.0;" width="10" x="218" y="118.9219"/><rect fill="#FFFFFF" height="145.625" style="stroke:#181818;stroke-width:1.0;" width="10" x="568" y="268.7031"/><rect fill="#FFFFFF" height="39.1563" style="stroke:#181818;stroke-width:1.0;" width="10" x="568" y="549.9531"/><rect fill="#FFFFFF" height="39.1563" style="stroke:#181818;stroke-width:1.0;" width="10" x="928" y="336.0156"/><rect fill="#FFFFFF" height="20" style="stroke:#181818;stroke-width:1.0;" width="10" x="928" y="589.1094"/><rect fill="none" height="85.4688" style="stroke:#000000;stroke-width:1.5;" width="304" x="85" y="118.9219"/><path d="M85,118.9219 L156,118.9219 L156,135.9219 L146,145.9219 L85,145.9219 L85,118.9219 " fill="#EEEEEE" style="stroke:#000000;stroke-width:2.0;"/><text fill="#000000" font-family="sans-serif" font-size="20" font-weight="bold" lengthAdjust="spacing" textLength="26" x="98" y="141.6836">ref</text><text fill="#000000" font-family="sans-serif" font-size="20" lengthAdjust="spacing" textLength="229" x="122.5" y="170.6836">shared-sequence-diagram</text><text fill="#000000" font-family="sans-serif" font-size="20" lengthAdjust="spacing" textLength="296" x="89" y="195.8398">sequence-diagram-tcp-connection</text><polygon fill="#181818" points="556,264.7031,566,268.7031,556,272.7031,560,268.7031" style="stroke:#181818;stroke-width:1.0;"/><line style="stroke:#181818;stroke-width:1.0;" x1="228" x2="562" y1="268.7031" y2="268.7031"/><text fill="#000000" font-family="sans-serif" font-size="20" font-weight="bold" lengthAdjust="spacing" textLength="11" x="235" y="262.3086">1</text><text fill="#000000" font-family="sans-serif" font-size="20" lengthAdjust="spacing" textLength="282" x="250" y="262.3086">jobOpeningsDataList(username)</text><path d="M5,214.3906 L5,299.3906 L213,299.3906 L213,224.3906 L203,214.3906 L5,214.3906 " fill="#FEFFDD" style="stroke:#181818;stroke-width:0.5;"/><path d="M203,214.3906 L203,224.3906 L213,224.3906 L203,214.3906 " fill="#FEFFDD" style="stroke:#181818;stroke-width:0.5;"/><text fill="#000000" font-family="sans-serif" font-size="20" lengthAdjust="spacing" textLength="187" x="11" y="240.1523">username is obtained</text><text fill="#000000" font-family="sans-serif" font-size="20" lengthAdjust="spacing" textLength="166" x="11" y="265.3086">as described in the</text><text fill="#000000" font-family="sans-serif" font-size="20" lengthAdjust="spacing" textLength="137" x="11" y="290.4648">shared diagram</text><polygon fill="#181818" points="916,332.0156,926,336.0156,916,340.0156,920,336.0156" style="stroke:#181818;stroke-width:1.0;"/><line style="stroke:#181818;stroke-width:1.0;" x1="578" x2="922" y1="336.0156" y2="336.0156"/><text fill="#000000" font-family="sans-serif" font-size="20" font-weight="bold" lengthAdjust="spacing" textLength="11" x="585" y="329.6211">2</text><text fill="#000000" font-family="sans-serif" font-size="20" lengthAdjust="spacing" textLength="316" x="600" y="329.6211">getJobOpeningsDataList(username)</text><polygon fill="#181818" points="589,371.1719,579,375.1719,589,379.1719,585,375.1719" style="stroke:#181818;stroke-width:1.0;"/><line style="stroke:#181818;stroke-width:1.0;stroke-dasharray:2.0,2.0;" x1="583" x2="932" y1="375.1719" y2="375.1719"/><text fill="#000000" font-family="sans-serif" font-size="20" font-weight="bold" lengthAdjust="spacing" textLength="11" x="595" y="368.7773">3</text><text fill="#000000" font-family="sans-serif" font-size="20" lengthAdjust="spacing" textLength="268" x="610" y="368.7773">jobOpeningCustomerDataDTO</text><polygon fill="#181818" points="239,410.3281,229,414.3281,239,418.3281,235,414.3281" style="stroke:#181818;stroke-width:1.0;"/><line style="stroke:#181818;stroke-width:1.0;stroke-dasharray:2.0,2.0;" x1="233" x2="572" y1="414.3281" y2="414.3281"/><text fill="#000000" font-family="sans-serif" font-size="20" font-weight="bold" lengthAdjust="spacing" textLength="11" x="245" y="407.9336">4</text><text fill="#000000" font-family="sans-serif" font-size="20" lengthAdjust="spacing" textLength="268" x="260" y="407.9336">jobOpeningCustomerDataDTO</text><line style="stroke:#181818;stroke-width:1.0;" x1="228" x2="270" y1="453.4844" y2="453.4844"/><line style="stroke:#181818;stroke-width:1.0;" x1="270" x2="270" y1="453.4844" y2="466.4844"/><line style="stroke:#181818;stroke-width:1.0;" x1="229" x2="270" y1="466.4844" y2="466.4844"/><polygon fill="#181818" points="239,462.4844,229,466.4844,239,470.4844,235,466.4844" style="stroke:#181818;stroke-width:1.0;"/><text fill="#000000" font-family="sans-serif" font-size="20" font-weight="bold" lengthAdjust="spacing" textLength="11" x="235" y="447.0898">5</text><text fill="#000000" font-family="sans-serif" font-size="20" lengthAdjust="spacing" textLength="85" x="250" y="447.0898">doShow()</text><path d="M78,481.4844 L154,481.4844 L154,498.6406 L144,508.6406 L78,508.6406 L78,481.4844 " fill="#EEEEEE" style="stroke:#000000;stroke-width:1.5;"/><rect fill="none" height="194.7813" style="stroke:#000000;stroke-width:1.5;" width="996.5" x="78" y="481.4844"/><text fill="#000000" font-family="sans-serif" font-size="20" font-weight="bold" lengthAdjust="spacing" textLength="31" x="93" y="503.2461">opt</text><text fill="#000000" font-family="sans-serif" font-size="20" font-weight="bold" lengthAdjust="spacing" textLength="98" x="169" y="504.2461">["0 - Exit"]</text><polygon fill="#181818" points="556,545.9531,566,549.9531,556,553.9531,560,549.9531" style="stroke:#181818;stroke-width:1.0;"/><line style="stroke:#181818;stroke-width:1.0;" x1="228" x2="562" y1="549.9531" y2="549.9531"/><text fill="#000000" font-family="sans-serif" font-size="20" font-weight="bold" lengthAdjust="spacing" textLength="11" x="235" y="543.5586">6</text><text fill="#000000" font-family="sans-serif" font-size="20" lengthAdjust="spacing" textLength="306" x="250" y="543.5586">closeConnection(PORT_NUMBER)</text><polygon fill="#181818" points="916,585.1094,926,589.1094,916,593.1094,920,589.1094" style="stroke:#181818;stroke-width:1.0;"/><line style="stroke:#181818;stroke-width:1.0;" x1="573" x2="922" y1="589.1094" y2="589.1094"/><text fill="#000000" font-family="sans-serif" font-size="20" font-weight="bold" lengthAdjust="spacing" textLength="11" x="580" y="582.7148">7</text><text fill="#000000" font-family="sans-serif" font-size="20" lengthAdjust="spacing" textLength="306" x="595" y="582.7148">closeConnection(PORT_NUMBER)</text><line style="stroke:#FFFFFF;stroke-width:1.0;" x1="938" x2="980" y1="608.1094" y2="608.1094"/><line style="stroke:#FFFFFF;stroke-width:1.0;" x1="980" x2="980" y1="608.1094" y2="621.1094"/><line style="stroke:#FFFFFF;stroke-width:1.0;" x1="933" x2="980" y1="621.1094" y2="621.1094"/><polygon fill="#FFFFFF" points="943,617.1094,933,621.1094,943,625.1094,939,621.1094" style="stroke:#FFFFFF;stroke-width:1.0;"/><line style="stroke:#181818;stroke-width:1.0;" x1="228" x2="270" y1="655.2656" y2="655.2656"/><line style="stroke:#181818;stroke-width:1.0;" x1="270" x2="270" y1="655.2656" y2="668.2656"/><line style="stroke:#181818;stroke-width:1.0;" x1="229" x2="270" y1="668.2656" y2="668.2656"/><polygon fill="#181818" points="239,664.2656,229,668.2656,239,672.2656,235,668.2656" style="stroke:#181818;stroke-width:1.0;"/><text fill="#000000" font-family="sans-serif" font-size="20" font-weight="bold" lengthAdjust="spacing" textLength="11" x="235" y="648.8711">8</text><text fill="#000000" font-family="sans-serif" font-size="20" lengthAdjust="spacing" textLength="107" x="250" y="648.8711">sock.close()</text><!--SRC=[ZLF1Rjim3BthAuZiaXnS1EsjA09iIGkaQ9iXZazTCSWocwYr9KsYas5VFrgkaymDslaaq7gFxprIuLKR9xsiIgjUiO02dsLTqeqrbEe_2ETZ8KXJYP2b5-FnEQJugqQZ46PQhXa7ZzCwaAtGmrVddeHWDj9AEsa81bTNpcD0GvAqDPF93tDvfmDra5kRBnmQRTOXcmz01iZcVGBfNAdLf_WfA_QsBD57dkbgUVTEIq2_rGeZpGtVjRlCCSwWQjZJzcyBvshgjqB8cgofgnmzd_dQLX8s8Zq-WzsoQJw7ZVHO9E4jcQHean7zGaBA9MhVJw0fW7c4oEQGJA9ak8INWwUP9DdO7TQitCWAHy9OxfzROlkYgu8EO7EIsc0XM7o1GNcTypIr0ThWcq3eT3Lz6vuZHp6kAA0HqffdBMkasm_b70Ywm3fmSifHDxU6QRPQY09F44GLZEPK_XSRXzsc6565JJTsDnm9OHrFVWm9NF_MDEX5hKeRyB00m- -BvUhdGtR_xNevwcLp8fmFqNrrxtm2VuVb0lRcOcsVt-ENtKOJFkrRdaphY88VMbtXFpa4VjHdKITdqOoTun37FBozVm40]--></g></svg>