<?xml version="1.0" encoding="UTF-8" standalone="no"?><svg xmlns="http://www.w3.org/2000/svg" xmlns:xlink="http://www.w3.org/1999/xlink" contentStyleType="text/css" height="1475px" preserveAspectRatio="none" style="width:3886px;height:1475px;background:#FFFFFF;" version="1.1" viewBox="0 0 3886 1475" width="3886px" zoomAndPan="magnify"><defs/><g><text fill="#000000" font-family="sans-serif" font-size="14" font-weight="bold" lengthAdjust="spacing" textLength="187" x="1851.25" y="29.5332">US3002 Sequence Diagram</text><rect fill="#FFFFFF" height="1203.5313" style="stroke:#181818;stroke-width:1.0;" width="10" x="218" y="149.9219"/><rect fill="#FFFFFF" height="687.5" style="stroke:#181818;stroke-width:1.0;" width="10" x="579" y="299.7031"/><rect fill="#FFFFFF" height="39.1563" style="stroke:#181818;stroke-width:1.0;" width="10" x="579" y="1122.8281"/><rect fill="#FFFFFF" height="581.0313" style="stroke:#181818;stroke-width:1.0;" width="10" x="940" y="367.0156"/><rect fill="#FFFFFF" height="42.1563" style="stroke:#181818;stroke-width:1.0;" width="10" x="940" y="1161.9844"/><rect fill="#FFFFFF" height="42.1563" style="stroke:#181818;stroke-width:1.0;" width="10" x="1390" y="409.1719"/><rect fill="#FFFFFF" height="75.1563" style="stroke:#181818;stroke-width:1.0;" width="10" x="1390" y="1204.1406"/><rect fill="#FFFFFF" height="424.9844" style="stroke:#181818;stroke-width:1.0;" width="10" x="1868.5" y="461.3281"/><rect fill="#FFFFFF" height="285.7813" style="stroke:#181818;stroke-width:1.0;" width="10" x="2272.5" y="501.4844"/><rect fill="#FFFFFF" height="30" style="stroke:#181818;stroke-width:1.0;" width="10" x="2884.5" y="648.9531"/><rect fill="#FFFFFF" height="30" style="stroke:#181818;stroke-width:1.0;" width="10" x="3132" y="718.1094"/><rect fill="#FFFFFF" height="69.1563" style="stroke:#181818;stroke-width:1.0;" width="10" x="3415.5" y="540.6406"/><rect fill="#FFFFFF" height="30" style="stroke:#181818;stroke-width:1.0;" width="10" x="3784.5" y="579.7969"/><rect fill="none" height="107.625" style="stroke:#000000;stroke-width:1.5;" width="1432" x="803.5" y="802.2656"/><rect fill="none" height="292.0938" style="stroke:#000000;stroke-width:1.5;" width="1539" x="78" y="1054.3594"/><line style="stroke:#181818;stroke-width:0.5;stroke-dasharray:5.0,5.0;" x1="223" x2="223" y1="139.9219" y2="1363.4531"/><line style="stroke:#181818;stroke-width:0.5;stroke-dasharray:5.0,5.0;" x1="584" x2="584" y1="139.9219" y2="1363.4531"/><line style="stroke:#181818;stroke-width:0.5;stroke-dasharray:5.0,5.0;" x1="944.5" x2="944.5" y1="139.9219" y2="1363.4531"/><line style="stroke:#181818;stroke-width:0.5;stroke-dasharray:5.0,5.0;" x1="1395" x2="1395" y1="139.9219" y2="1363.4531"/><line style="stroke:#181818;stroke-width:0.5;stroke-dasharray:5.0,5.0;" x1="1873" x2="1873" y1="455.25" y2="1363.4531"/><line style="stroke:#181818;stroke-width:0.5;stroke-dasharray:5.0,5.0;" x1="2277.5" x2="2277.5" y1="139.9219" y2="1363.4531"/><line style="stroke:#181818;stroke-width:0.5;stroke-dasharray:5.0,5.0;" x1="2889.5" x2="2889.5" y1="139.9219" y2="1363.4531"/><line style="stroke:#181818;stroke-width:0.5;stroke-dasharray:5.0,5.0;" x1="3136.5" x2="3136.5" y1="139.9219" y2="1363.4531"/><line style="stroke:#181818;stroke-width:0.5;stroke-dasharray:5.0,5.0;" x1="3420.5" x2="3420.5" y1="139.9219" y2="1363.4531"/><line style="stroke:#181818;stroke-width:0.5;stroke-dasharray:5.0,5.0;" x1="3789.5" x2="3789.5" y1="139.9219" y2="1363.4531"/><rect fill="#E2E2F0" height="64.3125" rx="2.5" ry="2.5" style="stroke:#181818;stroke-width:0.5;" width="270" x="88" y="74.6094"/><text fill="#000000" font-family="sans-serif" font-size="20" lengthAdjust="spacing" textLength="130" x="158" y="102.3711">«presentation»</text><text fill="#000000" font-family="sans-serif" font-size="20" lengthAdjust="spacing" textLength="256" x="95" y="127.5273">:ListCustomerJobOpeningsUI</text><rect fill="#E2E2F0" height="64.3125" rx="2.5" ry="2.5" style="stroke:#181818;stroke-width:0.5;" width="270" x="88" y="1362.4531"/><text fill="#000000" font-family="sans-serif" font-size="20" lengthAdjust="spacing" textLength="130" x="158" y="1390.2148">«presentation»</text><text fill="#000000" font-family="sans-serif" font-size="20" lengthAdjust="spacing" textLength="256" x="95" y="1415.3711">:ListCustomerJobOpeningsUI</text><rect fill="#E2E2F0" height="64.3125" rx="2.5" ry="2.5" style="stroke:#181818;stroke-width:0.5;" width="336" x="416" y="74.6094"/><text fill="#000000" font-family="sans-serif" font-size="20" lengthAdjust="spacing" textLength="115" x="526.5" y="102.3711">«application»</text><text fill="#000000" font-family="sans-serif" font-size="20" lengthAdjust="spacing" textLength="322" x="423" y="127.5273">:ListCustomerJobOpeningsController</text><rect fill="#E2E2F0" height="64.3125" rx="2.5" ry="2.5" style="stroke:#181818;stroke-width:0.5;" width="336" x="416" y="1362.4531"/><text fill="#000000" font-family="sans-serif" font-size="20" lengthAdjust="spacing" textLength="115" x="526.5" y="1390.2148">«application»</text><text fill="#000000" font-family="sans-serif" font-size="20" lengthAdjust="spacing" textLength="322" x="423" y="1415.3711">:ListCustomerJobOpeningsController</text><rect fill="#E2E2F0" height="64.3125" rx="2.5" ry="2.5" style="stroke:#181818;stroke-width:0.5;" width="263" x="813.5" y="74.6094"/><text fill="#000000" font-family="sans-serif" font-size="20" lengthAdjust="spacing" textLength="84" x="903" y="102.3711">«service»</text><text fill="#000000" font-family="sans-serif" font-size="20" lengthAdjust="spacing" textLength="249" x="820.5" y="127.5273">:FollowUpConnectionService</text><rect fill="#E2E2F0" height="64.3125" rx="2.5" ry="2.5" style="stroke:#181818;stroke-width:0.5;" width="263" x="813.5" y="1362.4531"/><text fill="#000000" font-family="sans-serif" font-size="20" lengthAdjust="spacing" textLength="84" x="903" y="1390.2148">«service»</text><text fill="#000000" font-family="sans-serif" font-size="20" lengthAdjust="spacing" textLength="249" x="820.5" y="1415.3711">:FollowUpConnectionService</text><rect fill="#E2E2F0" height="39.1563" rx="2.5" ry="2.5" style="stroke:#181818;stroke-width:0.5;" width="228" x="1281" y="99.7656"/><text fill="#000000" font-family="sans-serif" font-size="20" lengthAdjust="spacing" textLength="214" x="1288" y="127.5273">:ClientConnectionThread</text><rect fill="#E2E2F0" height="39.1563" rx="2.5" ry="2.5" style="stroke:#181818;stroke-width:0.5;" width="228" x="1281" y="1362.4531"/><text fill="#000000" font-family="sans-serif" font-size="20" lengthAdjust="spacing" textLength="214" x="1288" y="1390.2148">:ClientConnectionThread</text><rect fill="#E2E2F0" height="39.1563" rx="2.5" ry="2.5" style="stroke:#181818;stroke-width:0.5;" width="211" x="1768" y="1362.4531"/><text fill="#000000" font-family="sans-serif" font-size="20" lengthAdjust="spacing" textLength="197" x="1775" y="1390.2148">:ListingRequestThread</text><rect fill="#E2E2F0" height="64.3125" rx="2.5" ry="2.5" style="stroke:#181818;stroke-width:0.5;" width="304" x="2125.5" y="74.6094"/><text fill="#000000" font-family="sans-serif" font-size="20" lengthAdjust="spacing" textLength="84" x="2235.5" y="102.3711">«service»</text><text fill="#000000" font-family="sans-serif" font-size="20" lengthAdjust="spacing" textLength="290" x="2132.5" y="127.5273">:JobOpeningManagementService</text><rect fill="#E2E2F0" height="64.3125" rx="2.5" ry="2.5" style="stroke:#181818;stroke-width:0.5;" width="304" x="2125.5" y="1362.4531"/><text fill="#000000" font-family="sans-serif" font-size="20" lengthAdjust="spacing" textLength="84" x="2235.5" y="1390.2148">«service»</text><text fill="#000000" font-family="sans-serif" font-size="20" lengthAdjust="spacing" textLength="290" x="2132.5" y="1415.3711">:JobOpeningManagementService</text><text fill="#000000" font-family="sans-serif" font-size="20" lengthAdjust="spacing" textLength="110" x="2831.5" y="110.3711">«repository»</text><text fill="#000000" font-family="sans-serif" font-size="20" lengthAdjust="spacing" textLength="206" x="2783.5" y="135.5273">:JobOpeningRepository</text><path d="M2871.5,53.6094 C2871.5,43.6094 2889.5,43.6094 2889.5,43.6094 C2889.5,43.6094 2907.5,43.6094 2907.5,53.6094 L2907.5,79.6094 C2907.5,89.6094 2889.5,89.6094 2889.5,89.6094 C2889.5,89.6094 2871.5,89.6094 2871.5,79.6094 L2871.5,53.6094 " fill="#E2E2F0" style="stroke:#181818;stroke-width:1.5;"/><path d="M2871.5,53.6094 C2871.5,63.6094 2889.5,63.6094 2889.5,63.6094 C2889.5,63.6094 2907.5,63.6094 2907.5,53.6094 " fill="none" style="stroke:#181818;stroke-width:1.5;"/><text fill="#000000" font-family="sans-serif" font-size="20" lengthAdjust="spacing" textLength="110" x="2831.5" y="1383.2148">«repository»</text><text fill="#000000" font-family="sans-serif" font-size="20" lengthAdjust="spacing" textLength="206" x="2783.5" y="1408.3711">:JobOpeningRepository</text><path d="M2871.5,1422.7656 C2871.5,1412.7656 2889.5,1412.7656 2889.5,1412.7656 C2889.5,1412.7656 2907.5,1412.7656 2907.5,1422.7656 L2907.5,1448.7656 C2907.5,1458.7656 2889.5,1458.7656 2889.5,1458.7656 C2889.5,1458.7656 2871.5,1458.7656 2871.5,1448.7656 L2871.5,1422.7656 " fill="#E2E2F0" style="stroke:#181818;stroke-width:1.5;"/><path d="M2871.5,1422.7656 C2871.5,1432.7656 2889.5,1432.7656 2889.5,1432.7656 C2889.5,1432.7656 2907.5,1432.7656 2907.5,1422.7656 " fill="none" style="stroke:#181818;stroke-width:1.5;"/><rect fill="#E2E2F0" height="64.3125" rx="2.5" ry="2.5" style="stroke:#181818;stroke-width:0.5;" width="263" x="3005.5" y="74.6094"/><text fill="#000000" font-family="sans-serif" font-size="20" lengthAdjust="spacing" textLength="84" x="3095" y="102.3711">«service»</text><text fill="#000000" font-family="sans-serif" font-size="20" lengthAdjust="spacing" textLength="249" x="3012.5" y="127.5273">:JobOpeningListDTOService</text><rect fill="#E2E2F0" height="64.3125" rx="2.5" ry="2.5" style="stroke:#181818;stroke-width:0.5;" width="263" x="3005.5" y="1362.4531"/><text fill="#000000" font-family="sans-serif" font-size="20" lengthAdjust="spacing" textLength="84" x="3095" y="1390.2148">«service»</text><text fill="#000000" font-family="sans-serif" font-size="20" lengthAdjust="spacing" textLength="249" x="3012.5" y="1415.3711">:JobOpeningListDTOService</text><rect fill="#E2E2F0" height="64.3125" rx="2.5" ry="2.5" style="stroke:#181818;stroke-width:0.5;" width="284" x="3278.5" y="74.6094"/><text fill="#000000" font-family="sans-serif" font-size="20" lengthAdjust="spacing" textLength="84" x="3378.5" y="102.3711">«service»</text><text fill="#000000" font-family="sans-serif" font-size="20" lengthAdjust="spacing" textLength="270" x="3285.5" y="127.5273">:CustomerManagementService</text><rect fill="#E2E2F0" height="64.3125" rx="2.5" ry="2.5" style="stroke:#181818;stroke-width:0.5;" width="284" x="3278.5" y="1362.4531"/><text fill="#000000" font-family="sans-serif" font-size="20" lengthAdjust="spacing" textLength="84" x="3378.5" y="1390.2148">«service»</text><text fill="#000000" font-family="sans-serif" font-size="20" lengthAdjust="spacing" textLength="270" x="3285.5" y="1415.3711">:CustomerManagementService</text><text fill="#000000" font-family="sans-serif" font-size="20" lengthAdjust="spacing" textLength="110" x="3731.5" y="110.3711">«repository»</text><text fill="#000000" font-family="sans-serif" font-size="20" lengthAdjust="spacing" textLength="186" x="3693.5" y="135.5273">:CustomerRepository</text><path d="M3771.5,53.6094 C3771.5,43.6094 3789.5,43.6094 3789.5,43.6094 C3789.5,43.6094 3807.5,43.6094 3807.5,53.6094 L3807.5,79.6094 C3807.5,89.6094 3789.5,89.6094 3789.5,89.6094 C3789.5,89.6094 3771.5,89.6094 3771.5,79.6094 L3771.5,53.6094 " fill="#E2E2F0" style="stroke:#181818;stroke-width:1.5;"/><path d="M3771.5,53.6094 C3771.5,63.6094 3789.5,63.6094 3789.5,63.6094 C3789.5,63.6094 3807.5,63.6094 3807.5,53.6094 " fill="none" style="stroke:#181818;stroke-width:1.5;"/><text fill="#000000" font-family="sans-serif" font-size="20" lengthAdjust="spacing" textLength="110" x="3731.5" y="1383.2148">«repository»</text><text fill="#000000" font-family="sans-serif" font-size="20" lengthAdjust="spacing" textLength="186" x="3693.5" y="1408.3711">:CustomerRepository</text><path d="M3771.5,1422.7656 C3771.5,1412.7656 3789.5,1412.7656 3789.5,1412.7656 C3789.5,1412.7656 3807.5,1412.7656 3807.5,1422.7656 L3807.5,1448.7656 C3807.5,1458.7656 3789.5,1458.7656 3789.5,1458.7656 C3789.5,1458.7656 3771.5,1458.7656 3771.5,1448.7656 L3771.5,1422.7656 " fill="#E2E2F0" style="stroke:#181818;stroke-width:1.5;"/><path d="M3771.5,1422.7656 C3771.5,1432.7656 3789.5,1432.7656 3789.5,1432.7656 C3789.5,1432.7656 3807.5,1432.7656 3807.5,1422.7656 " fill="none" style="stroke:#181818;stroke-width:1.5;"/><rect fill="#FFFFFF" height="1203.5313" style="stroke:#181818;stroke-width:1.0;" width="10" x="218" y="149.9219"/><rect fill="#FFFFFF" height="687.5" style="stroke:#181818;stroke-width:1.0;" width="10" x="579" y="299.7031"/><rect fill="#FFFFFF" height="39.1563" style="stroke:#181818;stroke-width:1.0;" width="10" x="579" y="1122.8281"/><rect fill="#FFFFFF" height="581.0313" style="stroke:#181818;stroke-width:1.0;" width="10" x="940" y="367.0156"/><rect fill="#FFFFFF" height="42.1563" style="stroke:#181818;stroke-width:1.0;" width="10" x="940" y="1161.9844"/><rect fill="#FFFFFF" height="42.1563" style="stroke:#181818;stroke-width:1.0;" width="10" x="1390" y="409.1719"/><rect fill="#FFFFFF" height="75.1563" style="stroke:#181818;stroke-width:1.0;" width="10" x="1390" y="1204.1406"/><rect fill="#FFFFFF" height="424.9844" style="stroke:#181818;stroke-width:1.0;" width="10" x="1868.5" y="461.3281"/><rect fill="#FFFFFF" height="285.7813" style="stroke:#181818;stroke-width:1.0;" width="10" x="2272.5" y="501.4844"/><rect fill="#FFFFFF" height="30" style="stroke:#181818;stroke-width:1.0;" width="10" x="2884.5" y="648.9531"/><rect fill="#FFFFFF" height="30" style="stroke:#181818;stroke-width:1.0;" width="10" x="3132" y="718.1094"/><rect fill="#FFFFFF" height="69.1563" style="stroke:#181818;stroke-width:1.0;" width="10" x="3415.5" y="540.6406"/><rect fill="#FFFFFF" height="30" style="stroke:#181818;stroke-width:1.0;" width="10" x="3784.5" y="579.7969"/><rect fill="none" height="85.4688" style="stroke:#000000;stroke-width:1.5;" width="304" x="85" y="149.9219"/><path d="M85,149.9219 L156,149.9219 L156,166.9219 L146,176.9219 L85,176.9219 L85,149.9219 " fill="#EEEEEE" style="stroke:#000000;stroke-width:2.0;"/><text fill="#000000" font-family="sans-serif" font-size="20" font-weight="bold" lengthAdjust="spacing" textLength="26" x="98" y="172.6836">ref</text><text fill="#000000" font-family="sans-serif" font-size="20" lengthAdjust="spacing" textLength="229" x="122.5" y="201.6836">shared-sequence-diagram</text><text fill="#000000" font-family="sans-serif" font-size="20" lengthAdjust="spacing" textLength="296" x="89" y="226.8398">sequence-diagram-tcp-connection</text><polygon fill="#181818" points="567,295.7031,577,299.7031,567,303.7031,571,299.7031" style="stroke:#181818;stroke-width:1.0;"/><line style="stroke:#181818;stroke-width:1.0;" x1="228" x2="573" y1="299.7031" y2="299.7031"/><text fill="#000000" font-family="sans-serif" font-size="20" font-weight="bold" lengthAdjust="spacing" textLength="11" x="235" y="293.3086">1</text><text fill="#000000" font-family="sans-serif" font-size="20" lengthAdjust="spacing" textLength="282" x="250" y="293.3086">jobOpeningsDataList(username)</text><path d="M5,245.3906 L5,330.3906 L213,330.3906 L213,255.3906 L203,245.3906 L5,245.3906 " fill="#FEFFDD" style="stroke:#181818;stroke-width:0.5;"/><path d="M203,245.3906 L203,255.3906 L213,255.3906 L203,245.3906 " fill="#FEFFDD" style="stroke:#181818;stroke-width:0.5;"/><text fill="#000000" font-family="sans-serif" font-size="20" lengthAdjust="spacing" textLength="187" x="11" y="271.1523">username is obtained</text><text fill="#000000" font-family="sans-serif" font-size="20" lengthAdjust="spacing" textLength="166" x="11" y="296.3086">as described in the</text><text fill="#000000" font-family="sans-serif" font-size="20" lengthAdjust="spacing" textLength="137" x="11" y="321.4648">shared diagram</text><polygon fill="#181818" points="928,363.0156,938,367.0156,928,371.0156,932,367.0156" style="stroke:#181818;stroke-width:1.0;"/><line style="stroke:#181818;stroke-width:1.0;" x1="589" x2="934" y1="367.0156" y2="367.0156"/><text fill="#000000" font-family="sans-serif" font-size="20" font-weight="bold" lengthAdjust="spacing" textLength="11" x="596" y="360.6211">2</text><text fill="#000000" font-family="sans-serif" font-size="20" lengthAdjust="spacing" textLength="316" x="611" y="360.6211">getJobOpeningsDataList(username)</text><polygon fill="#181818" points="1378,405.1719,1388,409.1719,1378,413.1719,1382,409.1719" style="stroke:#181818;stroke-width:1.0;"/><line style="stroke:#181818;stroke-width:1.0;" x1="950" x2="1384" y1="409.1719" y2="409.1719"/><text fill="#000000" font-family="sans-serif" font-size="20" font-weight="bold" lengthAdjust="spacing" textLength="11" x="957" y="402.7773">3</text><text fill="#000000" font-family="sans-serif" font-size="20" lengthAdjust="spacing" textLength="406" x="972" y="402.7773">receiveJobOpeningsDataList(username, code)</text><path d="M706,380.0156 L706,415.0156 L935,415.0156 L935,390.0156 L925,380.0156 L706,380.0156 " fill="#FEFFDD" style="stroke:#181818;stroke-width:0.5;"/><path d="M925,380.0156 L925,390.0156 L935,390.0156 L925,380.0156 " fill="#FEFFDD" style="stroke:#181818;stroke-width:0.5;"/><text fill="#000000" font-family="sans-serif" font-size="20" lengthAdjust="spacing" textLength="208" x="712" y="405.7773">code = 7 (JOBOPLIST)</text><polygon fill="#181818" points="1756,447.3281,1766,451.3281,1756,455.3281,1760,451.3281" style="stroke:#181818;stroke-width:1.0;"/><line style="stroke:#181818;stroke-width:1.0;" x1="1395" x2="1762" y1="451.3281" y2="451.3281"/><text fill="#000000" font-family="sans-serif" font-size="20" font-weight="bold" lengthAdjust="spacing" textLength="11" x="1402" y="444.9336">4</text><text fill="#000000" font-family="sans-serif" font-size="20" lengthAdjust="spacing" textLength="329" x="1417" y="444.9336">getJobOpeningsList(code, username)</text><rect fill="#E2E2F0" height="39.1563" rx="2.5" ry="2.5" style="stroke:#181818;stroke-width:0.5;" width="211" x="1768" y="420.1719"/><text fill="#000000" font-family="sans-serif" font-size="20" lengthAdjust="spacing" textLength="197" x="1775" y="447.9336">:ListingRequestThread</text><polygon fill="#181818" points="2260.5,497.4844,2270.5,501.4844,2260.5,505.4844,2264.5,501.4844" style="stroke:#181818;stroke-width:1.0;"/><line style="stroke:#181818;stroke-width:1.0;" x1="1878.5" x2="2266.5" y1="501.4844" y2="501.4844"/><text fill="#000000" font-family="sans-serif" font-size="20" font-weight="bold" lengthAdjust="spacing" textLength="11" x="1885.5" y="495.0898">5</text><text fill="#000000" font-family="sans-serif" font-size="20" lengthAdjust="spacing" textLength="360" x="1900.5" y="495.0898">getCustomerJobOpeningData(username)</text><polygon fill="#181818" points="3403.5,536.6406,3413.5,540.6406,3403.5,544.6406,3407.5,540.6406" style="stroke:#181818;stroke-width:1.0;"/><line style="stroke:#181818;stroke-width:1.0;" x1="2282.5" x2="3409.5" y1="540.6406" y2="540.6406"/><text fill="#000000" font-family="sans-serif" font-size="20" font-weight="bold" lengthAdjust="spacing" textLength="11" x="2289.5" y="534.2461">6</text><text fill="#000000" font-family="sans-serif" font-size="20" lengthAdjust="spacing" textLength="325" x="2304.5" y="534.2461">getCustomerByUsername(username)</text><polygon fill="#181818" points="3772.5,575.7969,3782.5,579.7969,3772.5,583.7969,3776.5,579.7969" style="stroke:#181818;stroke-width:1.0;"/><line style="stroke:#181818;stroke-width:1.0;" x1="3425.5" x2="3778.5" y1="579.7969" y2="579.7969"/><text fill="#000000" font-family="sans-serif" font-size="20" font-weight="bold" lengthAdjust="spacing" textLength="11" x="3432.5" y="573.4023">7</text><text fill="#000000" font-family="sans-serif" font-size="20" lengthAdjust="spacing" textLength="325" x="3447.5" y="573.4023">getCustomerByUsername(username)</text><polygon fill="#181818" points="2872.5,644.9531,2882.5,648.9531,2872.5,652.9531,2876.5,648.9531" style="stroke:#181818;stroke-width:1.0;"/><line style="stroke:#181818;stroke-width:1.0;" x1="2282.5" x2="2878.5" y1="648.9531" y2="648.9531"/><text fill="#000000" font-family="sans-serif" font-size="20" font-weight="bold" lengthAdjust="spacing" textLength="11" x="2289.5" y="642.5586">8</text><text fill="#000000" font-family="sans-serif" font-size="20" lengthAdjust="spacing" textLength="568" x="2304.5" y="642.5586">findAllJobOpeningsWithCustomerCode(customerCode.toString())</text><polygon fill="#181818" points="3120,714.1094,3130,718.1094,3120,722.1094,3124,718.1094" style="stroke:#181818;stroke-width:1.0;"/><line style="stroke:#181818;stroke-width:1.0;" x1="2282.5" x2="3126" y1="718.1094" y2="718.1094"/><text fill="#000000" font-family="sans-serif" font-size="20" font-weight="bold" lengthAdjust="spacing" textLength="11" x="2289.5" y="711.7148">9</text><text fill="#000000" font-family="sans-serif" font-size="20" lengthAdjust="spacing" textLength="588" x="2304.5" y="711.7148">convertJobOpeningsToCustomerJobOpeningDTO(jobOpeningsList)</text><polygon fill="#181818" points="1889.5,783.2656,1879.5,787.2656,1889.5,791.2656,1885.5,787.2656" style="stroke:#181818;stroke-width:1.0;"/><line style="stroke:#181818;stroke-width:1.0;stroke-dasharray:2.0,2.0;" x1="1883.5" x2="2276.5" y1="787.2656" y2="787.2656"/><text fill="#000000" font-family="sans-serif" font-size="20" font-weight="bold" lengthAdjust="spacing" textLength="22" x="1895.5" y="780.8711">10</text><text fill="#000000" font-family="sans-serif" font-size="20" lengthAdjust="spacing" textLength="309" x="1921.5" y="780.8711">jobOpeningsCustomerDataListDTO</text><path d="M803.5,802.2656 L889.5,802.2656 L889.5,819.4219 L879.5,829.4219 L803.5,829.4219 L803.5,802.2656 " fill="#EEEEEE" style="stroke:#000000;stroke-width:1.5;"/><rect fill="none" height="107.625" style="stroke:#000000;stroke-width:1.5;" width="1432" x="803.5" y="802.2656"/><text fill="#000000" font-family="sans-serif" font-size="20" font-weight="bold" lengthAdjust="spacing" textLength="41" x="818.5" y="824.0273">loop</text><text fill="#000000" font-family="sans-serif" font-size="20" font-weight="bold" lengthAdjust="spacing" textLength="128" x="904.5" y="825.0273">[for all DTOs]</text><polygon fill="#181818" points="961,882.3125,951,886.3125,961,890.3125,957,886.3125" style="stroke:#181818;stroke-width:1.0;"/><line style="stroke:#181818;stroke-width:1.0;stroke-dasharray:2.0,2.0;" x1="955" x2="1872.5" y1="886.3125" y2="886.3125"/><text fill="#000000" font-family="sans-serif" font-size="20" font-weight="bold" lengthAdjust="spacing" textLength="22" x="967" y="879.918">11</text><text fill="#000000" font-family="sans-serif" font-size="20" lengthAdjust="spacing" textLength="431" x="993" y="879.918">sOut.writeObject(jobOpeningCustomerDataDTO)</text><path d="M1883,844.5781 L1883,904.5781 L2220,904.5781 L2220,854.5781 L2210,844.5781 L1883,844.5781 " fill="#FEFFDD" style="stroke:#181818;stroke-width:0.5;"/><path d="M2210,844.5781 L2210,854.5781 L2220,854.5781 L2210,844.5781 " fill="#FEFFDD" style="stroke:#181818;stroke-width:0.5;"/><text fill="#000000" font-family="sans-serif" font-size="20" lengthAdjust="spacing" textLength="302" x="1889" y="870.3398">sOut an ObjectOutputStream from</text><text fill="#000000" font-family="sans-serif" font-size="20" lengthAdjust="spacing" textLength="316" x="1889" y="895.4961">the connection's sock OutputStream</text><polygon fill="#181818" points="600,944.0469,590,948.0469,600,952.0469,596,948.0469" style="stroke:#181818;stroke-width:1.0;"/><line style="stroke:#181818;stroke-width:1.0;stroke-dasharray:2.0,2.0;" x1="594" x2="944" y1="948.0469" y2="948.0469"/><text fill="#000000" font-family="sans-serif" font-size="20" font-weight="bold" lengthAdjust="spacing" textLength="22" x="606" y="941.6523">12</text><text fill="#000000" font-family="sans-serif" font-size="20" lengthAdjust="spacing" textLength="268" x="632" y="941.6523">jobOpeningCustomerDataDTO</text><polygon fill="#181818" points="239,983.2031,229,987.2031,239,991.2031,235,987.2031" style="stroke:#181818;stroke-width:1.0;"/><line style="stroke:#181818;stroke-width:1.0;stroke-dasharray:2.0,2.0;" x1="233" x2="583" y1="987.2031" y2="987.2031"/><text fill="#000000" font-family="sans-serif" font-size="20" font-weight="bold" lengthAdjust="spacing" textLength="22" x="245" y="980.8086">13</text><text fill="#000000" font-family="sans-serif" font-size="20" lengthAdjust="spacing" textLength="268" x="271" y="980.8086">jobOpeningCustomerDataDTO</text><line style="stroke:#181818;stroke-width:1.0;" x1="228" x2="270" y1="1026.3594" y2="1026.3594"/><line style="stroke:#181818;stroke-width:1.0;" x1="270" x2="270" y1="1026.3594" y2="1039.3594"/><line style="stroke:#181818;stroke-width:1.0;" x1="229" x2="270" y1="1039.3594" y2="1039.3594"/><polygon fill="#181818" points="239,1035.3594,229,1039.3594,239,1043.3594,235,1039.3594" style="stroke:#181818;stroke-width:1.0;"/><text fill="#000000" font-family="sans-serif" font-size="20" font-weight="bold" lengthAdjust="spacing" textLength="22" x="235" y="1019.9648">14</text><text fill="#000000" font-family="sans-serif" font-size="20" lengthAdjust="spacing" textLength="85" x="261" y="1019.9648">doShow()</text><path d="M78,1054.3594 L154,1054.3594 L154,1071.5156 L144,1081.5156 L78,1081.5156 L78,1054.3594 " fill="#EEEEEE" style="stroke:#000000;stroke-width:1.5;"/><rect fill="none" height="292.0938" style="stroke:#000000;stroke-width:1.5;" width="1539" x="78" y="1054.3594"/><text fill="#000000" font-family="sans-serif" font-size="20" font-weight="bold" lengthAdjust="spacing" textLength="31" x="93" y="1076.1211">opt</text><text fill="#000000" font-family="sans-serif" font-size="20" font-weight="bold" lengthAdjust="spacing" textLength="98" x="169" y="1077.1211">["0 - Exit"]</text><polygon fill="#181818" points="567,1118.8281,577,1122.8281,567,1126.8281,571,1122.8281" style="stroke:#181818;stroke-width:1.0;"/><line style="stroke:#181818;stroke-width:1.0;" x1="228" x2="573" y1="1122.8281" y2="1122.8281"/><text fill="#000000" font-family="sans-serif" font-size="20" font-weight="bold" lengthAdjust="spacing" textLength="22" x="235" y="1116.4336">15</text><text fill="#000000" font-family="sans-serif" font-size="20" lengthAdjust="spacing" textLength="306" x="261" y="1116.4336">closeConnection(PORT_NUMBER)</text><polygon fill="#181818" points="928,1157.9844,938,1161.9844,928,1165.9844,932,1161.9844" style="stroke:#181818;stroke-width:1.0;"/><line style="stroke:#181818;stroke-width:1.0;" x1="584" x2="934" y1="1161.9844" y2="1161.9844"/><text fill="#000000" font-family="sans-serif" font-size="20" font-weight="bold" lengthAdjust="spacing" textLength="22" x="591" y="1155.5898">16</text><text fill="#000000" font-family="sans-serif" font-size="20" lengthAdjust="spacing" textLength="306" x="617" y="1155.5898">closeConnection(PORT_NUMBER)</text><polygon fill="#181818" points="1378,1200.1406,1388,1204.1406,1378,1208.1406,1382,1204.1406" style="stroke:#181818;stroke-width:1.0;"/><line style="stroke:#181818;stroke-width:1.0;" x1="945" x2="1384" y1="1204.1406" y2="1204.1406"/><text fill="#000000" font-family="sans-serif" font-size="20" font-weight="bold" lengthAdjust="spacing" textLength="22" x="952" y="1197.7461">17</text><text fill="#000000" font-family="sans-serif" font-size="20" lengthAdjust="spacing" textLength="200" x="978" y="1197.7461">closeConnection(code)</text><path d="M727,1174.9844 L727,1209.9844 L935,1209.9844 L935,1184.9844 L925,1174.9844 L727,1174.9844 " fill="#FEFFDD" style="stroke:#181818;stroke-width:0.5;"/><path d="M925,1174.9844 L925,1184.9844 L935,1184.9844 L925,1174.9844 " fill="#FEFFDD" style="stroke:#181818;stroke-width:0.5;"/><text fill="#000000" font-family="sans-serif" font-size="20" lengthAdjust="spacing" textLength="187" x="733" y="1200.7461">code = 1 (DISCONN)</text><line style="stroke:#181818;stroke-width:1.0;stroke-dasharray:2.0,2.0;" x1="1400" x2="1442" y1="1246.2969" y2="1246.2969"/><line style="stroke:#181818;stroke-width:1.0;stroke-dasharray:2.0,2.0;" x1="1442" x2="1442" y1="1246.2969" y2="1259.2969"/><line style="stroke:#181818;stroke-width:1.0;stroke-dasharray:2.0,2.0;" x1="1401" x2="1442" y1="1259.2969" y2="1259.2969"/><polygon fill="#181818" points="1411,1255.2969,1401,1259.2969,1411,1263.2969,1407,1259.2969" style="stroke:#181818;stroke-width:1.0;"/><text fill="#000000" font-family="sans-serif" font-size="20" font-weight="bold" lengthAdjust="spacing" textLength="22" x="1407" y="1239.9023">18</text><text fill="#000000" font-family="sans-serif" font-size="20" lengthAdjust="spacing" textLength="172" x="1433" y="1239.9023">clientSocket.close()</text><line style="stroke:#FFFFFF;stroke-width:1.0;" x1="1400" x2="1442" y1="1278.2969" y2="1278.2969"/><line style="stroke:#FFFFFF;stroke-width:1.0;" x1="1442" x2="1442" y1="1278.2969" y2="1291.2969"/><line style="stroke:#FFFFFF;stroke-width:1.0;" x1="1395" x2="1442" y1="1291.2969" y2="1291.2969"/><polygon fill="#FFFFFF" points="1405,1287.2969,1395,1291.2969,1405,1295.2969,1401,1291.2969" style="stroke:#FFFFFF;stroke-width:1.0;"/><line style="stroke:#181818;stroke-width:1.0;" x1="228" x2="270" y1="1325.4531" y2="1325.4531"/><line style="stroke:#181818;stroke-width:1.0;" x1="270" x2="270" y1="1325.4531" y2="1338.4531"/><line style="stroke:#181818;stroke-width:1.0;" x1="229" x2="270" y1="1338.4531" y2="1338.4531"/><polygon fill="#181818" points="239,1334.4531,229,1338.4531,239,1342.4531,235,1338.4531" style="stroke:#181818;stroke-width:1.0;"/><text fill="#000000" font-family="sans-serif" font-size="20" font-weight="bold" lengthAdjust="spacing" textLength="22" x="235" y="1319.0586">19</text><text fill="#000000" font-family="sans-serif" font-size="20" lengthAdjust="spacing" textLength="107" x="261" y="1319.0586">sock.close()</text><!--SRC=[bLPTJzim57tthxXY3siHHOmzJ48C2LhGYXX1JQizRDFa9hUj8RKpsobZltxN-MYSD2giJ_77FVTS-zpZcYSXKwxvEb7H4yOGuu9dYRrHqeRYByBf2MDMs0HX5duyEJc547zdA2E4aU1BYcECmgs8HCgbXOFpyrIZGMcv5KfUNFoGPtV2s65ch5gZlbNp84KfvDBCnWV03Sp6RG2Ufec8NeqV4aMjaWHrZZESJkvsk1ZK6n5X3dD3UzNpBAKuYP533ulL8fncGxrf0fmD4q6br17JbKOU5m5tu-cNoVNbg1NYs1AzYJicOxs0SlS-YdLrNxdaIrnJSfyahJkECRTypWswS8sfCi8g_T92c6mNgj2TXRTHSGMDfe7FWuPxwwXkgxiAj_fA6HL0guZTQSPuPfNCrdFKz4sNjE4MdQWqBa1jKBjli-8Quu4ffJk8I-cs9mOsIWVHzhOPoXW8Xx7P60ONkSJW31vh3Owe17S-lOpAbtoDVIOLvPyhIqHPDGl2W9fRBYJ6ZEg8qKHQpAdTX0Ixmf8WLBnSNeVZLPJBEoVWY1HY9IvBjBTxwTG0fS1P5UnmAWqJaiO8nGRteHr1fEAgn0GNbhanV8PFqBiDheA7kt4uxNUotpOBgtCIWUBhy72daZolGp-2kfOOEm2tKrM26hrebm9xrq1SULq7LJOPAwFTCHM2RG9TlSpAsCxJBZNEgjWIfgdU_qLiQTy_ZuxEQ2stYkeo1EAp43A-J1BlAhu9kwhWXtGZlSWR75iLMatRUltc4UwQZKUdSzqdHmP3NAWJgO5zMKnLnprEWzvZKpaU5MTLNkRSkQeyMm4scxfAKUc_1L7f8r4gXONIm9F4uPgjyXeTQeBC7ZzhOJ6OFvAlU5pzH0JG47YfPg1VtcvQB5Ss7pf0u18AE1gacQKxGBw6XIRJSNl8Kw3siVS63BtkuE_DjzMTwhvSGPuzT1bUYt53Obj_oKsAeiaqtngRlzs5oUPHiGfNwhdNPqobzBgSm02k_mXxq7BYA546wzUvzn1Cfh_kPr-lhYVzbdLsUEVUw3QxD_je6xMmp8w3wl2o7MFz0BtHE1m6z_U-hNeMkfFS_Ly9tLyvUvmpSMTOFv50Lv3wyT_VFQz8cZyzc6wRRQ3GFxniZOqRSmBRPdHKwU8Q5aJFy3y0]--></g></svg>