<?xml version="1.0" encoding="UTF-8" standalone="no"?><svg xmlns="http://www.w3.org/2000/svg" xmlns:xlink="http://www.w3.org/1999/xlink" contentStyleType="text/css" height="770px" preserveAspectRatio="none" style="width:1277px;height:770px;background:#FFFFFF;" version="1.1" viewBox="0 0 1277 770" width="1277px" zoomAndPan="magnify"><defs/><g><!--cluster <<aggregate>> Interview Model--><g id="cluster_&lt;&lt;aggregate&gt;&gt; Interview Model"><path d="M190.5,218.8945 L462.5,218.8945 A3.75,3.75 0 0 1 465,221.3945 L472,250.0508 L736.5,250.0508 A2.5,2.5 0 0 1 739,252.5508 L739,579.3945 A2.5,2.5 0 0 1 736.5,581.8945 L190.5,581.8945 A2.5,2.5 0 0 1 188,579.3945 L188,221.3945 A2.5,2.5 0 0 1 190.5,218.8945 " fill="none" style="stroke:#000000;stroke-width:1.5;"/><line style="stroke:#000000;stroke-width:1.5;" x1="188" x2="472" y1="250.0508" y2="250.0508"/><text fill="#000000" font-family="sans-serif" font-size="20" font-weight="bold" lengthAdjust="spacing" textLength="271" x="192" y="241.6563">«aggregate» Interview Model</text></g><!--cluster <<aggregate>> Requirement Specification--><g id="cluster_&lt;&lt;aggregate&gt;&gt; Requirement Specification"><path d="M765.5,428.8945 L1137.5,428.8945 A3.75,3.75 0 0 1 1140,431.3945 L1147,460.0508 L1267.5,460.0508 A2.5,2.5 0 0 1 1270,462.5508 L1270,761.3945 A2.5,2.5 0 0 1 1267.5,763.8945 L765.5,763.8945 A2.5,2.5 0 0 1 763,761.3945 L763,431.3945 A2.5,2.5 0 0 1 765.5,428.8945 " fill="none" style="stroke:#000000;stroke-width:1.5;"/><line style="stroke:#000000;stroke-width:1.5;" x1="763" x2="1147" y1="460.0508" y2="460.0508"/><text fill="#000000" font-family="sans-serif" font-size="20" font-weight="bold" lengthAdjust="spacing" textLength="371" x="767" y="451.6563">«aggregate» Requirement Specification</text></g><!--cluster <<aggregate>> Customer Manager--><g id="cluster_&lt;&lt;aggregate&gt;&gt; Customer Manager"><path d="M553.5,6.8945 L857.5,6.8945 A3.75,3.75 0 0 1 860,9.3945 L867,38.0508 L867.5,38.0508 A2.5,2.5 0 0 1 870,40.5508 L870,157.3945 A2.5,2.5 0 0 1 867.5,159.8945 L553.5,159.8945 A2.5,2.5 0 0 1 551,157.3945 L551,9.3945 A2.5,2.5 0 0 1 553.5,6.8945 " fill="none" style="stroke:#000000;stroke-width:1.5;"/><line style="stroke:#000000;stroke-width:1.5;" x1="551" x2="867" y1="38.0508" y2="38.0508"/><text fill="#000000" font-family="sans-serif" font-size="20" font-weight="bold" lengthAdjust="spacing" textLength="303" x="555" y="29.6563">«aggregate» Customer Manager</text></g><!--class InterviewModel--><g id="elem_InterviewModel"><rect codeLine="14" fill="#F5F5DC" height="93.4688" id="InterviewModel" rx="2.5" ry="2.5" style="stroke:#181818;stroke-width:0.5;" width="167" x="299.5" y="262.8945"/><ellipse cx="315.5" cy="305.6289" fill="#ADD1B2" rx="12" ry="12" style="stroke:#181818;stroke-width:1.0;"/><path d="M313.4531,306.6914 L313.4531,309.6289 L318.5469,309.6289 L318.5469,308.5352 Q318.5469,307.8164 318.8281,307.5195 Q319.1094,307.207 319.5625,307.207 Q320,307.207 320.2813,307.5195 Q320.5625,307.8164 320.5625,308.5352 L320.5625,311.6289 L311.125,311.6289 Q310.4063,311.6289 310.0938,311.3477 Q309.7969,311.0664 309.7969,310.6289 Q309.7969,310.1758 310.1094,309.9102 Q310.4219,309.6289 311.125,309.6289 L311.4375,309.6289 L311.4375,301.8008 L311.125,301.8008 Q310.4063,301.8008 310.0938,301.5195 Q309.7969,301.2383 309.7969,300.7852 Q309.7969,300.332 310.0938,300.0664 Q310.4063,299.7852 311.125,299.7852 L320.1094,299.7852 L320.1094,302.832 Q320.1094,303.5508 319.8281,303.8633 Q319.5625,304.1602 319.125,304.1602 Q318.6719,304.1602 318.3906,303.8633 Q318.1094,303.5664 318.1094,302.832 L318.1094,301.8008 L313.4531,301.8008 L313.4531,304.6914 L315.2031,304.6914 Q315.2031,303.9102 315.3438,303.6758 Q315.6563,303.207 316.2031,303.207 Q316.6563,303.207 316.9219,303.5195 Q317.2031,303.8164 317.2031,304.5352 L317.2031,306.8477 Q317.2031,307.5039 317.0469,307.7227 Q316.7344,308.1758 316.2031,308.1758 Q315.6563,308.1758 315.3438,307.707 Q315.2031,307.4727 315.2031,306.6914 L313.4531,306.6914 Z " fill="#000000"/><text fill="#000000" font-family="sans-serif" font-size="20" font-style="italic" lengthAdjust="spacing" textLength="69" x="362.5" y="288.6563">«entity»</text><text fill="#000000" font-family="sans-serif" font-size="20" font-style="italic" lengthAdjust="spacing" textLength="56" x="369" y="313.8125">«root»</text><text fill="#000000" font-family="sans-serif" font-size="20" lengthAdjust="spacing" textLength="133" x="330.5" y="338.9688">InterviewModel</text><line style="stroke:#181818;stroke-width:0.5;" x1="300.5" x2="465.5" y1="348.3633" y2="348.3633"/></g><!--class InterviewModelName--><g id="elem_InterviewModelName"><rect codeLine="15" fill="#F5F5DC" height="93.4688" id="InterviewModelName" rx="2.5" ry="2.5" style="stroke:#181818;stroke-width:0.5;" width="218" x="204" y="472.8945"/><ellipse cx="220" cy="515.6289" fill="#FF8B40" rx="12" ry="12" style="stroke:#181818;stroke-width:1.0;"/><path d="M220.5,519.707 L223.3906,512.8008 L222.9375,512.8008 Q222.2188,512.8008 221.9063,512.5195 Q221.5938,512.2383 221.5938,511.7852 Q221.5938,511.332 221.9063,511.0664 Q222.2188,510.7852 222.9375,510.7852 L225.625,510.7852 Q226.3438,510.7852 226.6563,511.0664 Q226.9688,511.332 226.9688,511.7852 Q226.9688,512.332 226.5,512.6445 Q226.2656,512.8008 225.5781,512.8008 L221.4688,522.6289 L219.5469,522.6289 L215.4375,512.8008 Q214.7344,512.8008 214.5156,512.6445 Q214.0469,512.332 214.0469,511.7852 Q214.0469,511.332 214.3594,511.0664 Q214.6563,510.7852 215.375,510.7852 L218.0781,510.7852 Q218.7969,510.7852 219.0938,511.0664 Q219.4063,511.332 219.4063,511.7852 Q219.4063,512.2383 219.1094,512.5195 Q218.8125,512.8008 218.0781,512.8008 L217.6094,512.8008 L220.5,519.707 Z " fill="#000000"/><text fill="#000000" font-family="sans-serif" font-size="20" font-style="italic" lengthAdjust="spacing" textLength="128" x="263" y="498.6563">«value object»</text><text fill="#000000" font-family="sans-serif" font-size="20" font-style="italic" lengthAdjust="spacing" textLength="99" x="277.5" y="523.8125">«identifier»</text><text fill="#000000" font-family="sans-serif" font-size="20" lengthAdjust="spacing" textLength="184" x="235" y="548.9688">InterviewModelName</text><line style="stroke:#181818;stroke-width:0.5;" x1="205" x2="421" y1="558.3633" y2="558.3633"/></g><!--class InterviewModelDescription--><g id="elem_InterviewModelDescription"><rect codeLine="16" fill="#F5F5DC" height="68.3125" id="InterviewModelDescription" rx="2.5" ry="2.5" style="stroke:#181818;stroke-width:0.5;" width="265" x="457.5" y="485.3945"/><ellipse cx="473.5" cy="515.5508" fill="#FF8B40" rx="12" ry="12" style="stroke:#181818;stroke-width:1.0;"/><path d="M474,519.6289 L476.8906,512.7227 L476.4375,512.7227 Q475.7188,512.7227 475.4063,512.4414 Q475.0938,512.1602 475.0938,511.707 Q475.0938,511.2539 475.4063,510.9883 Q475.7188,510.707 476.4375,510.707 L479.125,510.707 Q479.8438,510.707 480.1563,510.9883 Q480.4688,511.2539 480.4688,511.707 Q480.4688,512.2539 480,512.5664 Q479.7656,512.7227 479.0781,512.7227 L474.9688,522.5508 L473.0469,522.5508 L468.9375,512.7227 Q468.2344,512.7227 468.0156,512.5664 Q467.5469,512.2539 467.5469,511.707 Q467.5469,511.2539 467.8594,510.9883 Q468.1563,510.707 468.875,510.707 L471.5781,510.707 Q472.2969,510.707 472.5938,510.9883 Q472.9063,511.2539 472.9063,511.707 Q472.9063,512.1602 472.6094,512.4414 Q472.3125,512.7227 471.5781,512.7227 L471.1094,512.7227 L474,519.6289 Z " fill="#000000"/><text fill="#000000" font-family="sans-serif" font-size="20" font-style="italic" lengthAdjust="spacing" textLength="128" x="540" y="511.1563">«value object»</text><text fill="#000000" font-family="sans-serif" font-size="20" lengthAdjust="spacing" textLength="231" x="488.5" y="536.3125">InterviewModelDescription</text><line style="stroke:#181818;stroke-width:0.5;" x1="458.5" x2="721.5" y1="545.707" y2="545.707"/></g><!--class RequirementSpecification--><g id="elem_RequirementSpecification"><rect codeLine="20" fill="#F5F5DC" height="93.4688" id="RequirementSpecification" rx="2.5" ry="2.5" style="stroke:#181818;stroke-width:0.5;" width="256" x="779" y="472.8945"/><ellipse cx="795" cy="515.6289" fill="#ADD1B2" rx="12" ry="12" style="stroke:#181818;stroke-width:1.0;"/><path d="M792.9531,516.6914 L792.9531,519.6289 L798.0469,519.6289 L798.0469,518.5352 Q798.0469,517.8164 798.3281,517.5195 Q798.6094,517.207 799.0625,517.207 Q799.5,517.207 799.7813,517.5195 Q800.0625,517.8164 800.0625,518.5352 L800.0625,521.6289 L790.625,521.6289 Q789.9063,521.6289 789.5938,521.3477 Q789.2969,521.0664 789.2969,520.6289 Q789.2969,520.1758 789.6094,519.9102 Q789.9219,519.6289 790.625,519.6289 L790.9375,519.6289 L790.9375,511.8008 L790.625,511.8008 Q789.9063,511.8008 789.5938,511.5195 Q789.2969,511.2383 789.2969,510.7852 Q789.2969,510.332 789.5938,510.0664 Q789.9063,509.7852 790.625,509.7852 L799.6094,509.7852 L799.6094,512.832 Q799.6094,513.5508 799.3281,513.8633 Q799.0625,514.1602 798.625,514.1602 Q798.1719,514.1602 797.8906,513.8633 Q797.6094,513.5664 797.6094,512.832 L797.6094,511.8008 L792.9531,511.8008 L792.9531,514.6914 L794.7031,514.6914 Q794.7031,513.9102 794.8438,513.6758 Q795.1563,513.207 795.7031,513.207 Q796.1563,513.207 796.4219,513.5195 Q796.7031,513.8164 796.7031,514.5352 L796.7031,516.8477 Q796.7031,517.5039 796.5469,517.7227 Q796.2344,518.1758 795.7031,518.1758 Q795.1563,518.1758 794.8438,517.707 Q794.7031,517.4727 794.7031,516.6914 L792.9531,516.6914 Z " fill="#000000"/><text fill="#000000" font-family="sans-serif" font-size="20" font-style="italic" lengthAdjust="spacing" textLength="69" x="886.5" y="498.6563">«entity»</text><text fill="#000000" font-family="sans-serif" font-size="20" font-style="italic" lengthAdjust="spacing" textLength="56" x="893" y="523.8125">«root»</text><text fill="#000000" font-family="sans-serif" font-size="20" lengthAdjust="spacing" textLength="222" x="810" y="548.9688">RequirementSpecification</text><line style="stroke:#181818;stroke-width:0.5;" x1="780" x2="1034" y1="558.3633" y2="558.3633"/></g><!--class RequirementName--><g id="elem_RequirementName"><rect codeLine="21" fill="#F5F5DC" height="93.4688" id="RequirementName" rx="2.5" ry="2.5" style="stroke:#181818;stroke-width:0.5;" width="196" x="779" y="654.8945"/><ellipse cx="795" cy="697.6289" fill="#FF8B40" rx="12" ry="12" style="stroke:#181818;stroke-width:1.0;"/><path d="M795.5,701.707 L798.3906,694.8008 L797.9375,694.8008 Q797.2188,694.8008 796.9063,694.5195 Q796.5938,694.2383 796.5938,693.7852 Q796.5938,693.332 796.9063,693.0664 Q797.2188,692.7852 797.9375,692.7852 L800.625,692.7852 Q801.3438,692.7852 801.6563,693.0664 Q801.9688,693.332 801.9688,693.7852 Q801.9688,694.332 801.5,694.6445 Q801.2656,694.8008 800.5781,694.8008 L796.4688,704.6289 L794.5469,704.6289 L790.4375,694.8008 Q789.7344,694.8008 789.5156,694.6445 Q789.0469,694.332 789.0469,693.7852 Q789.0469,693.332 789.3594,693.0664 Q789.6563,692.7852 790.375,692.7852 L793.0781,692.7852 Q793.7969,692.7852 794.0938,693.0664 Q794.4063,693.332 794.4063,693.7852 Q794.4063,694.2383 794.1094,694.5195 Q793.8125,694.8008 793.0781,694.8008 L792.6094,694.8008 L795.5,701.707 Z " fill="#000000"/><text fill="#000000" font-family="sans-serif" font-size="20" font-style="italic" lengthAdjust="spacing" textLength="128" x="827" y="680.6563">«value object»</text><text fill="#000000" font-family="sans-serif" font-size="20" font-style="italic" lengthAdjust="spacing" textLength="99" x="841.5" y="705.8125">«identifier»</text><text fill="#000000" font-family="sans-serif" font-size="20" lengthAdjust="spacing" textLength="162" x="810" y="730.9688">RequirementName</text><line style="stroke:#181818;stroke-width:0.5;" x1="780" x2="974" y1="740.3633" y2="740.3633"/></g><!--class RequirementDescription--><g id="elem_RequirementDescription"><rect codeLine="22" fill="#F5F5DC" height="68.3125" id="RequirementDescription" rx="2.5" ry="2.5" style="stroke:#181818;stroke-width:0.5;" width="243" x="1010.5" y="667.3945"/><ellipse cx="1026.5" cy="697.5508" fill="#FF8B40" rx="12" ry="12" style="stroke:#181818;stroke-width:1.0;"/><path d="M1027,701.6289 L1029.8906,694.7227 L1029.4375,694.7227 Q1028.7188,694.7227 1028.4063,694.4414 Q1028.0938,694.1602 1028.0938,693.707 Q1028.0938,693.2539 1028.4063,692.9883 Q1028.7188,692.707 1029.4375,692.707 L1032.125,692.707 Q1032.8438,692.707 1033.1563,692.9883 Q1033.4688,693.2539 1033.4688,693.707 Q1033.4688,694.2539 1033,694.5664 Q1032.7656,694.7227 1032.0781,694.7227 L1027.9688,704.5508 L1026.0469,704.5508 L1021.9375,694.7227 Q1021.2344,694.7227 1021.0156,694.5664 Q1020.5469,694.2539 1020.5469,693.707 Q1020.5469,693.2539 1020.8594,692.9883 Q1021.1563,692.707 1021.875,692.707 L1024.5781,692.707 Q1025.2969,692.707 1025.5938,692.9883 Q1025.9063,693.2539 1025.9063,693.707 Q1025.9063,694.1602 1025.6094,694.4414 Q1025.3125,694.7227 1024.5781,694.7227 L1024.1094,694.7227 L1027,701.6289 Z " fill="#000000"/><text fill="#000000" font-family="sans-serif" font-size="20" font-style="italic" lengthAdjust="spacing" textLength="128" x="1082" y="693.1563">«value object»</text><text fill="#000000" font-family="sans-serif" font-size="20" lengthAdjust="spacing" textLength="209" x="1041.5" y="718.3125">RequirementDescription</text><line style="stroke:#181818;stroke-width:0.5;" x1="1011.5" x2="1252.5" y1="727.707" y2="727.707"/></g><!--class CustomerManager--><g id="elem_CustomerManager"><rect codeLine="25" fill="#F5F5DC" height="93.4688" id="CustomerManager" rx="2.5" ry="2.5" style="stroke:#181818;stroke-width:0.5;" width="197" x="611.5" y="50.8945"/><ellipse cx="627.5" cy="93.6289" fill="#ADD1B2" rx="12" ry="12" style="stroke:#181818;stroke-width:1.0;"/><path d="M625.4531,94.6914 L625.4531,97.6289 L630.5469,97.6289 L630.5469,96.5352 Q630.5469,95.8164 630.8281,95.5195 Q631.1094,95.207 631.5625,95.207 Q632,95.207 632.2813,95.5195 Q632.5625,95.8164 632.5625,96.5352 L632.5625,99.6289 L623.125,99.6289 Q622.4063,99.6289 622.0938,99.3477 Q621.7969,99.0664 621.7969,98.6289 Q621.7969,98.1758 622.1094,97.9102 Q622.4219,97.6289 623.125,97.6289 L623.4375,97.6289 L623.4375,89.8008 L623.125,89.8008 Q622.4063,89.8008 622.0938,89.5195 Q621.7969,89.2383 621.7969,88.7852 Q621.7969,88.332 622.0938,88.0664 Q622.4063,87.7852 623.125,87.7852 L632.1094,87.7852 L632.1094,90.832 Q632.1094,91.5508 631.8281,91.8633 Q631.5625,92.1602 631.125,92.1602 Q630.6719,92.1602 630.3906,91.8633 Q630.1094,91.5664 630.1094,90.832 L630.1094,89.8008 L625.4531,89.8008 L625.4531,92.6914 L627.2031,92.6914 Q627.2031,91.9102 627.3438,91.6758 Q627.6563,91.207 628.2031,91.207 Q628.6563,91.207 628.9219,91.5195 Q629.2031,91.8164 629.2031,92.5352 L629.2031,94.8477 Q629.2031,95.5039 629.0469,95.7227 Q628.7344,96.1758 628.2031,96.1758 Q627.6563,96.1758 627.3438,95.707 Q627.2031,95.4727 627.2031,94.6914 L625.4531,94.6914 Z " fill="#000000"/><text fill="#000000" font-family="sans-serif" font-size="20" font-style="italic" lengthAdjust="spacing" textLength="69" x="689.5" y="76.6563">«entity»</text><text fill="#000000" font-family="sans-serif" font-size="20" font-style="italic" lengthAdjust="spacing" textLength="56" x="696" y="101.8125">«root»</text><text fill="#000000" font-family="sans-serif" font-size="20" lengthAdjust="spacing" textLength="163" x="642.5" y="126.9688">CustomerManager</text><line style="stroke:#181818;stroke-width:0.5;" x1="612.5" x2="807.5" y1="136.3633" y2="136.3633"/></g><!--class PluginJarFile--><g id="elem_PluginJarFile"><rect codeLine="11" fill="#F5F5DC" height="68.3125" id="PluginJarFile" rx="2.5" ry="2.5" style="stroke:#181818;stroke-width:0.5;" width="158" x="7" y="667.3945"/><ellipse cx="23" cy="697.5508" fill="#FF8B40" rx="12" ry="12" style="stroke:#181818;stroke-width:1.0;"/><path d="M23.5,701.6289 L26.3906,694.7227 L25.9375,694.7227 Q25.2188,694.7227 24.9063,694.4414 Q24.5938,694.1602 24.5938,693.707 Q24.5938,693.2539 24.9063,692.9883 Q25.2188,692.707 25.9375,692.707 L28.625,692.707 Q29.3438,692.707 29.6563,692.9883 Q29.9688,693.2539 29.9688,693.707 Q29.9688,694.2539 29.5,694.5664 Q29.2656,694.7227 28.5781,694.7227 L24.4688,704.5508 L22.5469,704.5508 L18.4375,694.7227 Q17.7344,694.7227 17.5156,694.5664 Q17.0469,694.2539 17.0469,693.707 Q17.0469,693.2539 17.3594,692.9883 Q17.6563,692.707 18.375,692.707 L21.0781,692.707 Q21.7969,692.707 22.0938,692.9883 Q22.4063,693.2539 22.4063,693.707 Q22.4063,694.1602 22.1094,694.4414 Q21.8125,694.7227 21.0781,694.7227 L20.6094,694.7227 L23.5,701.6289 Z " fill="#000000"/><text fill="#000000" font-family="sans-serif" font-size="20" font-style="italic" lengthAdjust="spacing" textLength="128" x="36" y="693.1563">«value object»</text><text fill="#000000" font-family="sans-serif" font-size="20" lengthAdjust="spacing" textLength="111" x="44.5" y="718.3125">PluginJarFile</text><line style="stroke:#181818;stroke-width:0.5;" x1="8" x2="164" y1="727.707" y2="727.707"/></g><!--link CustomerManager to InterviewModel--><g id="link_CustomerManager_InterviewModel"><path codeLine="29" d="M639.05,143.9645 C585.68,178.2345 512.7,225.0945 458.31,260.0345 " fill="none" id="CustomerManager-to-InterviewModel" style="stroke:#222222;stroke-width:1.0;"/><polygon fill="#222222" points="454.1,262.7345,463.8336,261.2324,458.3059,260.0307,459.5076,254.503,454.1,262.7345" style="stroke:#222222;stroke-width:1.0;"/><text fill="#000000" font-family="sans-serif" font-size="20" lengthAdjust="spacing" textLength="62" x="586" y="197.6563">selects</text><text fill="#000000" font-family="sans-serif" font-size="20" lengthAdjust="spacing" textLength="31" x="430.5713" y="250.5256">1..*</text></g><!--link CustomerManager to RequirementSpecification--><g id="link_CustomerManager_RequirementSpecification"><path codeLine="30" d="M731.46,144.1445 C768.61,223.3545 844.65,385.4645 883.3,467.8745 " fill="none" id="CustomerManager-to-RequirementSpecification" style="stroke:#222222;stroke-width:1.0;"/><polygon fill="#222222" points="885.57,472.7045,885.3616,462.8579,883.4431,468.1795,878.1215,466.261,885.57,472.7045" style="stroke:#222222;stroke-width:1.0;"/><text fill="#000000" font-family="sans-serif" font-size="20" lengthAdjust="spacing" textLength="62" x="829" y="317.6563">selects</text><text fill="#000000" font-family="sans-serif" font-size="20" lengthAdjust="spacing" textLength="31" x="849.6075" y="460.4916">1..*</text></g><!--link InterviewModel to InterviewModelName--><g id="link_InterviewModel_InterviewModelName"><path codeLine="32" d="M367.64,356.0445 C356.51,389.0945 341.48,433.7745 329.99,467.8945 " fill="none" id="InterviewModel-to-InterviewModelName" style="stroke:#222222;stroke-width:1.0;"/><polygon fill="#222222" points="328.33,472.8545,334.997,465.6053,329.9283,468.1169,327.4167,463.0481,328.33,472.8545" style="stroke:#222222;stroke-width:1.0;"/><polygon fill="#000000" points="366.5522,391.8907,357.4787,404.1065,366.3918,407.1067,366.5522,391.8907" style="stroke:#000000;stroke-width:1.0;"/><text fill="#000000" font-family="sans-serif" font-size="20" lengthAdjust="spacing" textLength="77" x="377" y="407.6563">identifies</text><text fill="#000000" font-family="sans-serif" font-size="20" lengthAdjust="spacing" textLength="11" x="318.6509" y="460.6618">1</text></g><!--link InterviewModel to InterviewModelDescription--><g id="link_InterviewModel_InterviewModelDescription"><path codeLine="33" d="M432.02,355.9245 C442.35,365.7145 453.1,376.0745 463,385.8945 C494.91,417.5545 530.21,454.5545 555.48,481.3945 " fill="none" id="InterviewModel-to-InterviewModelDescription" style="stroke:#222222;stroke-width:1.0;"/><polygon fill="#222222" points="559.14,485.2845,555.9039,475.9825,555.7208,481.6364,550.0669,481.4533,559.14,485.2845" style="stroke:#222222;stroke-width:1.0;"/><polygon fill="#000000" points="489.389,393.7703,496.1876,407.384,502.8911,400.7879,489.389,393.7703" style="stroke:#000000;stroke-width:1.0;"/><text fill="#000000" font-family="sans-serif" font-size="20" lengthAdjust="spacing" textLength="85" x="508" y="407.6563">describes</text><text fill="#000000" font-family="sans-serif" font-size="20" lengthAdjust="spacing" textLength="11" x="541.8906" y="473.0217">1</text></g><!--link InterviewModel to PluginJarFile--><g id="link_InterviewModel_PluginJarFile"><path codeLine="34" d="M299.25,314.9645 C226.58,323.8945 125.34,349.3445 75,420.8945 C24.04,493.3245 51.27,604.4045 71.15,662.3045 " fill="none" id="InterviewModel-to-PluginJarFile" style="stroke:#222222;stroke-width:1.0;"/><polygon fill="#222222" points="72.8,667.0645,73.6155,657.2495,71.1546,662.343,66.0611,659.8821,72.8,667.0645" style="stroke:#222222;stroke-width:1.0;"/><polygon fill="#000000" points="87.3914,512.7857,75.5168,522.3014,83.3778,527.4637,87.3914,512.7857" style="stroke:#000000;stroke-width:1.0;"/><text fill="#000000" font-family="sans-serif" font-size="20" lengthAdjust="spacing" textLength="90" x="96" y="527.6563">configures</text><text fill="#000000" font-family="sans-serif" font-size="20" lengthAdjust="spacing" textLength="11" x="58.7028" y="655.0571">1</text></g><!--link RequirementSpecification to RequirementName--><g id="link_RequirementSpecification_RequirementName"><path codeLine="36" d="M899.35,566.2845 C895.12,591.6745 889.85,623.2845 885.49,649.4345 " fill="none" id="RequirementSpecification-to-RequirementName" style="stroke:#222222;stroke-width:1.0;"/><polygon fill="#222222" points="884.63,654.5945,890.0436,646.3669,885.445,649.6614,882.1506,645.0629,884.63,654.5945" style="stroke:#222222;stroke-width:1.0;"/><polygon fill="#000000" points="902.3153,603.5815,895.2976,617.0836,904.5742,618.6299,902.3153,603.5815" style="stroke:#000000;stroke-width:1.0;"/><text fill="#000000" font-family="sans-serif" font-size="20" lengthAdjust="spacing" textLength="77" x="914" y="619.6563">identifies</text><text fill="#000000" font-family="sans-serif" font-size="20" lengthAdjust="spacing" textLength="11" x="873.9162" y="642.3668">1</text></g><!--link RequirementSpecification to RequirementDescription--><g id="link_RequirementSpecification_RequirementDescription"><path codeLine="37" d="M964.07,566.0445 C1001.98,596.3745 1051.08,635.6545 1086.38,663.9045 " fill="none" id="RequirementSpecification-to-RequirementDescription" style="stroke:#222222;stroke-width:1.0;"/><polygon fill="#222222" points="1090.62,667.2845,1086.0871,658.5408,1086.7143,664.1628,1081.0923,664.79,1090.62,667.2845" style="stroke:#222222;stroke-width:1.0;"/><polygon fill="#000000" points="1033.7533,606.4747,1042.1159,619.1878,1047.9914,611.8444,1033.7533,606.4747" style="stroke:#000000;stroke-width:1.0;"/><text fill="#000000" font-family="sans-serif" font-size="20" lengthAdjust="spacing" textLength="85" x="1053" y="619.6563">describes</text><text fill="#000000" font-family="sans-serif" font-size="20" lengthAdjust="spacing" textLength="11" x="1071.5625" y="655.0217">1</text></g><!--link RequirementSpecification to PluginJarFile--><g id="link_RequirementSpecification_PluginJarFile"><path codeLine="38" d="M807.04,566.0445 C784.96,574.9145 761.45,583.4445 739,589.8945 C539.27,647.3145 296.06,678.7345 170.33,692.2445 " fill="none" id="RequirementSpecification-to-PluginJarFile" style="stroke:#222222;stroke-width:1.0;"/><polygon fill="#222222" points="165.17,692.7945,174.5425,695.8206,170.142,692.2659,173.6967,687.8654,165.17,692.7945" style="stroke:#222222;stroke-width:1.0;"/><polygon fill="#000000" points="719.8473,609.9173,704.7371,608.1184,706.5656,617.3435,719.8473,609.9173" style="stroke:#000000;stroke-width:1.0;"/><text fill="#000000" font-family="sans-serif" font-size="20" lengthAdjust="spacing" textLength="90" x="725" y="619.6563">configures</text><text fill="#000000" font-family="sans-serif" font-size="20" lengthAdjust="spacing" textLength="11" x="172.9755" y="686.6039">1</text></g><!--SRC=[fLHTJzim57tthxWA3ztGqdPe3oYoAhNG2j0O4zruTvrRO-hOcJz06-A_uwGhJIEoWkOtvznpxZbNDtOhgKjcMQ4CNs4EEIvPK7vcj9_BFmX7GzAxzRvqsM1GAgPzA5IVcsB05NCkpIKJaKo8s-X03Oozjt8HF9vpeskX8RcLEG8MfVyDR0ExDd72-4fO4tH-OfIni40fi54qjjOyhA63e_gGU7hpi_7rz1Hknbz_Jk5gSZ7zCISGJwq9trKGKbymEvCAWT8FDvyEPhFZoPVXHxXdAY2OnHroFnh1unCXPVJ01492AHF2ec0U8tIkFTfxYGzmQN9K2JpMBL1x6IEze3KOcwo_HnwbrfXAknBVcjebV6F57cUKnlb5pQL4kpRQfNMAZbjPUcdq_h1FNN6lyLUG5elO4-ObyjYOiqgp5RnHjrFsXX4qgF-Nlo7qdl2TsK-2ywP02vTCHzYs8c_WlsXdqZZUNfgITdcQZY3vtEyV9ksjoS2XYlRSAvmjgNFYMthLjgMz5aXUsRiCNYRhWBwDrnXp5X-DwhBu5tld5ymWlWfBAOAjAPNPpamRWTQkj3o_XzvfVQ_8dX3F]--></g></svg>