<?xml version="1.0" encoding="UTF-8" standalone="no"?><svg xmlns="http://www.w3.org/2000/svg" xmlns:xlink="http://www.w3.org/1999/xlink" contentStyleType="text/css" height="1419px" preserveAspectRatio="none" style="width:2396px;height:1419px;background:#FFFFFF;" version="1.1" viewBox="0 0 2396 1419" width="2396px" zoomAndPan="magnify"><defs/><g><!--cluster <<aggregate>> Interview Model--><g id="cluster_&lt;&lt;aggregate&gt;&gt; Interview Model"><path d="M192.5,638.8945 L464.5,638.8945 A3.75,3.75 0 0 1 467,641.3945 L474,670.0508 L738.5,670.0508 A2.5,2.5 0 0 1 741,672.5508 L741,969.3945 A2.5,2.5 0 0 1 738.5,971.8945 L192.5,971.8945 A2.5,2.5 0 0 1 190,969.3945 L190,641.3945 A2.5,2.5 0 0 1 192.5,638.8945 " fill="none" style="stroke:#000000;stroke-width:1.5;"/><line style="stroke:#000000;stroke-width:1.5;" x1="190" x2="474" y1="670.0508" y2="670.0508"/><text fill="#000000" font-family="sans-serif" font-size="20" font-weight="bold" lengthAdjust="spacing" textLength="271" x="194" y="661.6563">«aggregate» Interview Model</text></g><!--cluster <<aggregate>> Customer Manager--><g id="cluster_&lt;&lt;aggregate&gt;&gt; Customer Manager"><path d="M1131.5,6.8945 L1435.5,6.8945 A3.75,3.75 0 0 1 1438,9.3945 L1445,38.0508 L1445.5,38.0508 A2.5,2.5 0 0 1 1448,40.5508 L1448,157.3945 A2.5,2.5 0 0 1 1445.5,159.8945 L1131.5,159.8945 A2.5,2.5 0 0 1 1129,157.3945 L1129,9.3945 A2.5,2.5 0 0 1 1131.5,6.8945 " fill="none" style="stroke:#000000;stroke-width:1.5;"/><line style="stroke:#000000;stroke-width:1.5;" x1="1129" x2="1445" y1="38.0508" y2="38.0508"/><text fill="#000000" font-family="sans-serif" font-size="20" font-weight="bold" lengthAdjust="spacing" textLength="303" x="1133" y="29.6563">«aggregate» Customer Manager</text></g><!--cluster <<aggregate>> Candidate--><g id="cluster_&lt;&lt;aggregate&gt;&gt; Candidate"><path d="M1905.5,218.8945 L2124.5,218.8945 A3.75,3.75 0 0 1 2127,221.3945 L2134,250.0508 L2386.5,250.0508 A2.5,2.5 0 0 1 2389,252.5508 L2389,776.8945 A2.5,2.5 0 0 1 2386.5,779.3945 L1905.5,779.3945 A2.5,2.5 0 0 1 1903,776.8945 L1903,221.3945 A2.5,2.5 0 0 1 1905.5,218.8945 " fill="none" style="stroke:#000000;stroke-width:1.5;"/><line style="stroke:#000000;stroke-width:1.5;" x1="1903" x2="2134" y1="250.0508" y2="250.0508"/><text fill="#000000" font-family="sans-serif" font-size="20" font-weight="bold" lengthAdjust="spacing" textLength="218" x="1907" y="241.6563">«aggregate» Candidate</text></g><!--cluster <<aggregate>> Application--><g id="cluster_&lt;&lt;aggregate&gt;&gt; Application"><path d="M767.5,428.8945 L996.5,428.8945 A3.75,3.75 0 0 1 999,431.3945 L1006,460.0508 L1876.5,460.0508 A2.5,2.5 0 0 1 1879,462.5508 L1879,1410.3945 A2.5,2.5 0 0 1 1876.5,1412.8945 L767.5,1412.8945 A2.5,2.5 0 0 1 765,1410.3945 L765,431.3945 A2.5,2.5 0 0 1 767.5,428.8945 " fill="none" style="stroke:#000000;stroke-width:1.5;"/><line style="stroke:#000000;stroke-width:1.5;" x1="765" x2="1006" y1="460.0508" y2="460.0508"/><text fill="#000000" font-family="sans-serif" font-size="20" font-weight="bold" lengthAdjust="spacing" textLength="228" x="769" y="451.6563">«aggregate» Application</text></g><!--class InterviewModel--><g id="elem_InterviewModel"><rect codeLine="13" fill="#F5F5DC" height="93.4688" id="InterviewModel" rx="2.5" ry="2.5" style="stroke:#181818;stroke-width:0.5;" width="167" x="508.5" y="682.8945"/><ellipse cx="524.5" cy="725.6289" fill="#ADD1B2" rx="12" ry="12" style="stroke:#181818;stroke-width:1.0;"/><path d="M522.4531,726.6914 L522.4531,729.6289 L527.5469,729.6289 L527.5469,728.5352 Q527.5469,727.8164 527.8281,727.5195 Q528.1094,727.207 528.5625,727.207 Q529,727.207 529.2813,727.5195 Q529.5625,727.8164 529.5625,728.5352 L529.5625,731.6289 L520.125,731.6289 Q519.4063,731.6289 519.0938,731.3477 Q518.7969,731.0664 518.7969,730.6289 Q518.7969,730.1758 519.1094,729.9102 Q519.4219,729.6289 520.125,729.6289 L520.4375,729.6289 L520.4375,721.8008 L520.125,721.8008 Q519.4063,721.8008 519.0938,721.5195 Q518.7969,721.2383 518.7969,720.7852 Q518.7969,720.332 519.0938,720.0664 Q519.4063,719.7852 520.125,719.7852 L529.1094,719.7852 L529.1094,722.832 Q529.1094,723.5508 528.8281,723.8633 Q528.5625,724.1602 528.125,724.1602 Q527.6719,724.1602 527.3906,723.8633 Q527.1094,723.5664 527.1094,722.832 L527.1094,721.8008 L522.4531,721.8008 L522.4531,724.6914 L524.2031,724.6914 Q524.2031,723.9102 524.3438,723.6758 Q524.6563,723.207 525.2031,723.207 Q525.6563,723.207 525.9219,723.5195 Q526.2031,723.8164 526.2031,724.5352 L526.2031,726.8477 Q526.2031,727.5039 526.0469,727.7227 Q525.7344,728.1758 525.2031,728.1758 Q524.6563,728.1758 524.3438,727.707 Q524.2031,727.4727 524.2031,726.6914 L522.4531,726.6914 Z " fill="#000000"/><text fill="#000000" font-family="sans-serif" font-size="20" font-style="italic" lengthAdjust="spacing" textLength="69" x="571.5" y="708.6563">«entity»</text><text fill="#000000" font-family="sans-serif" font-size="20" font-style="italic" lengthAdjust="spacing" textLength="56" x="578" y="733.8125">«root»</text><text fill="#000000" font-family="sans-serif" font-size="20" lengthAdjust="spacing" textLength="133" x="539.5" y="758.9688">InterviewModel</text><line style="stroke:#181818;stroke-width:0.5;" x1="509.5" x2="674.5" y1="768.3633" y2="768.3633"/></g><!--class InterviewModelName--><g id="elem_InterviewModelName"><rect codeLine="14" fill="#F5F5DC" height="93.4688" id="InterviewModelName" rx="2.5" ry="2.5" style="stroke:#181818;stroke-width:0.5;" width="218" x="206" y="862.8945"/><ellipse cx="222" cy="905.6289" fill="#FF8B40" rx="12" ry="12" style="stroke:#181818;stroke-width:1.0;"/><path d="M222.5,909.707 L225.3906,902.8008 L224.9375,902.8008 Q224.2188,902.8008 223.9063,902.5195 Q223.5938,902.2383 223.5938,901.7852 Q223.5938,901.332 223.9063,901.0664 Q224.2188,900.7852 224.9375,900.7852 L227.625,900.7852 Q228.3438,900.7852 228.6563,901.0664 Q228.9688,901.332 228.9688,901.7852 Q228.9688,902.332 228.5,902.6445 Q228.2656,902.8008 227.5781,902.8008 L223.4688,912.6289 L221.5469,912.6289 L217.4375,902.8008 Q216.7344,902.8008 216.5156,902.6445 Q216.0469,902.332 216.0469,901.7852 Q216.0469,901.332 216.3594,901.0664 Q216.6563,900.7852 217.375,900.7852 L220.0781,900.7852 Q220.7969,900.7852 221.0938,901.0664 Q221.4063,901.332 221.4063,901.7852 Q221.4063,902.2383 221.1094,902.5195 Q220.8125,902.8008 220.0781,902.8008 L219.6094,902.8008 L222.5,909.707 Z " fill="#000000"/><text fill="#000000" font-family="sans-serif" font-size="20" font-style="italic" lengthAdjust="spacing" textLength="128" x="265" y="888.6563">«value object»</text><text fill="#000000" font-family="sans-serif" font-size="20" font-style="italic" lengthAdjust="spacing" textLength="99" x="279.5" y="913.8125">«identifier»</text><text fill="#000000" font-family="sans-serif" font-size="20" lengthAdjust="spacing" textLength="184" x="237" y="938.9688">InterviewModelName</text><line style="stroke:#181818;stroke-width:0.5;" x1="207" x2="423" y1="948.3633" y2="948.3633"/></g><!--class InterviewModelDescription--><g id="elem_InterviewModelDescription"><rect codeLine="15" fill="#F5F5DC" height="68.3125" id="InterviewModelDescription" rx="2.5" ry="2.5" style="stroke:#181818;stroke-width:0.5;" width="265" x="459.5" y="875.3945"/><ellipse cx="475.5" cy="905.5508" fill="#FF8B40" rx="12" ry="12" style="stroke:#181818;stroke-width:1.0;"/><path d="M476,909.6289 L478.8906,902.7227 L478.4375,902.7227 Q477.7188,902.7227 477.4063,902.4414 Q477.0938,902.1602 477.0938,901.707 Q477.0938,901.2539 477.4063,900.9883 Q477.7188,900.707 478.4375,900.707 L481.125,900.707 Q481.8438,900.707 482.1563,900.9883 Q482.4688,901.2539 482.4688,901.707 Q482.4688,902.2539 482,902.5664 Q481.7656,902.7227 481.0781,902.7227 L476.9688,912.5508 L475.0469,912.5508 L470.9375,902.7227 Q470.2344,902.7227 470.0156,902.5664 Q469.5469,902.2539 469.5469,901.707 Q469.5469,901.2539 469.8594,900.9883 Q470.1563,900.707 470.875,900.707 L473.5781,900.707 Q474.2969,900.707 474.5938,900.9883 Q474.9063,901.2539 474.9063,901.707 Q474.9063,902.1602 474.6094,902.4414 Q474.3125,902.7227 473.5781,902.7227 L473.1094,902.7227 L476,909.6289 Z " fill="#000000"/><text fill="#000000" font-family="sans-serif" font-size="20" font-style="italic" lengthAdjust="spacing" textLength="128" x="542" y="901.1563">«value object»</text><text fill="#000000" font-family="sans-serif" font-size="20" lengthAdjust="spacing" textLength="231" x="490.5" y="926.3125">InterviewModelDescription</text><line style="stroke:#181818;stroke-width:0.5;" x1="460.5" x2="723.5" y1="935.707" y2="935.707"/></g><!--class CustomerManager--><g id="elem_CustomerManager"><rect codeLine="19" fill="#F5F5DC" height="93.4688" id="CustomerManager" rx="2.5" ry="2.5" style="stroke:#181818;stroke-width:0.5;" width="197" x="1189.5" y="50.8945"/><ellipse cx="1205.5" cy="93.6289" fill="#ADD1B2" rx="12" ry="12" style="stroke:#181818;stroke-width:1.0;"/><path d="M1203.4531,94.6914 L1203.4531,97.6289 L1208.5469,97.6289 L1208.5469,96.5352 Q1208.5469,95.8164 1208.8281,95.5195 Q1209.1094,95.207 1209.5625,95.207 Q1210,95.207 1210.2813,95.5195 Q1210.5625,95.8164 1210.5625,96.5352 L1210.5625,99.6289 L1201.125,99.6289 Q1200.4063,99.6289 1200.0938,99.3477 Q1199.7969,99.0664 1199.7969,98.6289 Q1199.7969,98.1758 1200.1094,97.9102 Q1200.4219,97.6289 1201.125,97.6289 L1201.4375,97.6289 L1201.4375,89.8008 L1201.125,89.8008 Q1200.4063,89.8008 1200.0938,89.5195 Q1199.7969,89.2383 1199.7969,88.7852 Q1199.7969,88.332 1200.0938,88.0664 Q1200.4063,87.7852 1201.125,87.7852 L1210.1094,87.7852 L1210.1094,90.832 Q1210.1094,91.5508 1209.8281,91.8633 Q1209.5625,92.1602 1209.125,92.1602 Q1208.6719,92.1602 1208.3906,91.8633 Q1208.1094,91.5664 1208.1094,90.832 L1208.1094,89.8008 L1203.4531,89.8008 L1203.4531,92.6914 L1205.2031,92.6914 Q1205.2031,91.9102 1205.3438,91.6758 Q1205.6563,91.207 1206.2031,91.207 Q1206.6563,91.207 1206.9219,91.5195 Q1207.2031,91.8164 1207.2031,92.5352 L1207.2031,94.8477 Q1207.2031,95.5039 1207.0469,95.7227 Q1206.7344,96.1758 1206.2031,96.1758 Q1205.6563,96.1758 1205.3438,95.707 Q1205.2031,95.4727 1205.2031,94.6914 L1203.4531,94.6914 Z " fill="#000000"/><text fill="#000000" font-family="sans-serif" font-size="20" font-style="italic" lengthAdjust="spacing" textLength="69" x="1267.5" y="76.6563">«entity»</text><text fill="#000000" font-family="sans-serif" font-size="20" font-style="italic" lengthAdjust="spacing" textLength="56" x="1274" y="101.8125">«root»</text><text fill="#000000" font-family="sans-serif" font-size="20" lengthAdjust="spacing" textLength="163" x="1220.5" y="126.9688">CustomerManager</text><line style="stroke:#181818;stroke-width:0.5;" x1="1190.5" x2="1385.5" y1="136.3633" y2="136.3633"/></g><!--class Candidate--><g id="elem_Candidate"><rect codeLine="23" fill="#F5F5DC" height="93.4688" id="Candidate" rx="2.5" ry="2.5" style="stroke:#181818;stroke-width:0.5;" width="123" x="1944.5" y="262.8945"/><ellipse cx="1960.5" cy="305.6289" fill="#ADD1B2" rx="12" ry="12" style="stroke:#181818;stroke-width:1.0;"/><path d="M1958.4531,306.6914 L1958.4531,309.6289 L1963.5469,309.6289 L1963.5469,308.5352 Q1963.5469,307.8164 1963.8281,307.5195 Q1964.1094,307.207 1964.5625,307.207 Q1965,307.207 1965.2813,307.5195 Q1965.5625,307.8164 1965.5625,308.5352 L1965.5625,311.6289 L1956.125,311.6289 Q1955.4063,311.6289 1955.0938,311.3477 Q1954.7969,311.0664 1954.7969,310.6289 Q1954.7969,310.1758 1955.1094,309.9102 Q1955.4219,309.6289 1956.125,309.6289 L1956.4375,309.6289 L1956.4375,301.8008 L1956.125,301.8008 Q1955.4063,301.8008 1955.0938,301.5195 Q1954.7969,301.2383 1954.7969,300.7852 Q1954.7969,300.332 1955.0938,300.0664 Q1955.4063,299.7852 1956.125,299.7852 L1965.1094,299.7852 L1965.1094,302.832 Q1965.1094,303.5508 1964.8281,303.8633 Q1964.5625,304.1602 1964.125,304.1602 Q1963.6719,304.1602 1963.3906,303.8633 Q1963.1094,303.5664 1963.1094,302.832 L1963.1094,301.8008 L1958.4531,301.8008 L1958.4531,304.6914 L1960.2031,304.6914 Q1960.2031,303.9102 1960.3438,303.6758 Q1960.6563,303.207 1961.2031,303.207 Q1961.6563,303.207 1961.9219,303.5195 Q1962.2031,303.8164 1962.2031,304.5352 L1962.2031,306.8477 Q1962.2031,307.5039 1962.0469,307.7227 Q1961.7344,308.1758 1961.2031,308.1758 Q1960.6563,308.1758 1960.3438,307.707 Q1960.2031,307.4727 1960.2031,306.6914 L1958.4531,306.6914 Z " fill="#000000"/><text fill="#000000" font-family="sans-serif" font-size="20" font-style="italic" lengthAdjust="spacing" textLength="69" x="1985.5" y="288.6563">«entity»</text><text fill="#000000" font-family="sans-serif" font-size="20" font-style="italic" lengthAdjust="spacing" textLength="56" x="1992" y="313.8125">«root»</text><text fill="#000000" font-family="sans-serif" font-size="20" lengthAdjust="spacing" textLength="89" x="1975.5" y="338.9688">Candidate</text><line style="stroke:#181818;stroke-width:0.5;" x1="1945.5" x2="2066.5" y1="348.3633" y2="348.3633"/></g><!--class CandidateName--><g id="elem_CandidateName"><rect codeLine="24" fill="#F5F5DC" height="68.3125" id="CandidateName" rx="2.5" ry="2.5" style="stroke:#181818;stroke-width:0.5;" width="174" x="1919" y="485.3945"/><ellipse cx="1935" cy="515.5508" fill="#FF8B40" rx="12" ry="12" style="stroke:#181818;stroke-width:1.0;"/><path d="M1935.5,519.6289 L1938.3906,512.7227 L1937.9375,512.7227 Q1937.2188,512.7227 1936.9063,512.4414 Q1936.5938,512.1602 1936.5938,511.707 Q1936.5938,511.2539 1936.9063,510.9883 Q1937.2188,510.707 1937.9375,510.707 L1940.625,510.707 Q1941.3438,510.707 1941.6563,510.9883 Q1941.9688,511.2539 1941.9688,511.707 Q1941.9688,512.2539 1941.5,512.5664 Q1941.2656,512.7227 1940.5781,512.7227 L1936.4688,522.5508 L1934.5469,522.5508 L1930.4375,512.7227 Q1929.7344,512.7227 1929.5156,512.5664 Q1929.0469,512.2539 1929.0469,511.707 Q1929.0469,511.2539 1929.3594,510.9883 Q1929.6563,510.707 1930.375,510.707 L1933.0781,510.707 Q1933.7969,510.707 1934.0938,510.9883 Q1934.4063,511.2539 1934.4063,511.707 Q1934.4063,512.1602 1934.1094,512.4414 Q1933.8125,512.7227 1933.0781,512.7227 L1932.6094,512.7227 L1935.5,519.6289 Z " fill="#000000"/><text fill="#000000" font-family="sans-serif" font-size="20" font-style="italic" lengthAdjust="spacing" textLength="128" x="1956" y="511.1563">«value object»</text><text fill="#000000" font-family="sans-serif" font-size="20" lengthAdjust="spacing" textLength="140" x="1950" y="536.3125">CandidateName</text><line style="stroke:#181818;stroke-width:0.5;" x1="1920" x2="2092" y1="545.707" y2="545.707"/></g><!--class PhoneNumber--><g id="elem_PhoneNumber"><rect codeLine="25" fill="#F5F5DC" height="68.3125" id="PhoneNumber" rx="2.5" ry="2.5" style="stroke:#181818;stroke-width:0.5;" width="158" x="2008" y="695.3945"/><ellipse cx="2024" cy="725.5508" fill="#FF8B40" rx="12" ry="12" style="stroke:#181818;stroke-width:1.0;"/><path d="M2024.5,729.6289 L2027.3906,722.7227 L2026.9375,722.7227 Q2026.2188,722.7227 2025.9063,722.4414 Q2025.5938,722.1602 2025.5938,721.707 Q2025.5938,721.2539 2025.9063,720.9883 Q2026.2188,720.707 2026.9375,720.707 L2029.625,720.707 Q2030.3438,720.707 2030.6563,720.9883 Q2030.9688,721.2539 2030.9688,721.707 Q2030.9688,722.2539 2030.5,722.5664 Q2030.2656,722.7227 2029.5781,722.7227 L2025.4688,732.5508 L2023.5469,732.5508 L2019.4375,722.7227 Q2018.7344,722.7227 2018.5156,722.5664 Q2018.0469,722.2539 2018.0469,721.707 Q2018.0469,721.2539 2018.3594,720.9883 Q2018.6563,720.707 2019.375,720.707 L2022.0781,720.707 Q2022.7969,720.707 2023.0938,720.9883 Q2023.4063,721.2539 2023.4063,721.707 Q2023.4063,722.1602 2023.1094,722.4414 Q2022.8125,722.7227 2022.0781,722.7227 L2021.6094,722.7227 L2024.5,729.6289 Z " fill="#000000"/><text fill="#000000" font-family="sans-serif" font-size="20" font-style="italic" lengthAdjust="spacing" textLength="128" x="2037" y="721.1563">«value object»</text><text fill="#000000" font-family="sans-serif" font-size="20" lengthAdjust="spacing" textLength="123" x="2039.5" y="746.3125">PhoneNumber</text><line style="stroke:#181818;stroke-width:0.5;" x1="2009" x2="2165" y1="755.707" y2="755.707"/></g><!--class Email--><g id="elem_Email"><rect codeLine="26" fill="#F5F5DC" height="68.3125" id="Email" rx="2.5" ry="2.5" style="stroke:#181818;stroke-width:0.5;" width="158" x="2201" y="695.3945"/><ellipse cx="2217" cy="725.5508" fill="#FF8B40" rx="12" ry="12" style="stroke:#181818;stroke-width:1.0;"/><path d="M2217.5,729.6289 L2220.3906,722.7227 L2219.9375,722.7227 Q2219.2188,722.7227 2218.9063,722.4414 Q2218.5938,722.1602 2218.5938,721.707 Q2218.5938,721.2539 2218.9063,720.9883 Q2219.2188,720.707 2219.9375,720.707 L2222.625,720.707 Q2223.3438,720.707 2223.6563,720.9883 Q2223.9688,721.2539 2223.9688,721.707 Q2223.9688,722.2539 2223.5,722.5664 Q2223.2656,722.7227 2222.5781,722.7227 L2218.4688,732.5508 L2216.5469,732.5508 L2212.4375,722.7227 Q2211.7344,722.7227 2211.5156,722.5664 Q2211.0469,722.2539 2211.0469,721.707 Q2211.0469,721.2539 2211.3594,720.9883 Q2211.6563,720.707 2212.375,720.707 L2215.0781,720.707 Q2215.7969,720.707 2216.0938,720.9883 Q2216.4063,721.2539 2216.4063,721.707 Q2216.4063,722.1602 2216.1094,722.4414 Q2215.8125,722.7227 2215.0781,722.7227 L2214.6094,722.7227 L2217.5,729.6289 Z " fill="#000000"/><text fill="#000000" font-family="sans-serif" font-size="20" font-style="italic" lengthAdjust="spacing" textLength="128" x="2230" y="721.1563">«value object»</text><text fill="#000000" font-family="sans-serif" font-size="20" lengthAdjust="spacing" textLength="48" x="2270" y="746.3125">Email</text><line style="stroke:#181818;stroke-width:0.5;" x1="2202" x2="2358" y1="755.707" y2="755.707"/></g><!--class Application--><g id="elem_Application"><rect codeLine="30" fill="#F5F5DC" height="93.4688" id="Application" rx="2.5" ry="2.5" style="stroke:#181818;stroke-width:0.5;" width="129" x="1223.5" y="472.8945"/><ellipse cx="1239.5" cy="515.6289" fill="#ADD1B2" rx="12" ry="12" style="stroke:#181818;stroke-width:1.0;"/><path d="M1237.4531,516.6914 L1237.4531,519.6289 L1242.5469,519.6289 L1242.5469,518.5352 Q1242.5469,517.8164 1242.8281,517.5195 Q1243.1094,517.207 1243.5625,517.207 Q1244,517.207 1244.2813,517.5195 Q1244.5625,517.8164 1244.5625,518.5352 L1244.5625,521.6289 L1235.125,521.6289 Q1234.4063,521.6289 1234.0938,521.3477 Q1233.7969,521.0664 1233.7969,520.6289 Q1233.7969,520.1758 1234.1094,519.9102 Q1234.4219,519.6289 1235.125,519.6289 L1235.4375,519.6289 L1235.4375,511.8008 L1235.125,511.8008 Q1234.4063,511.8008 1234.0938,511.5195 Q1233.7969,511.2383 1233.7969,510.7852 Q1233.7969,510.332 1234.0938,510.0664 Q1234.4063,509.7852 1235.125,509.7852 L1244.1094,509.7852 L1244.1094,512.832 Q1244.1094,513.5508 1243.8281,513.8633 Q1243.5625,514.1602 1243.125,514.1602 Q1242.6719,514.1602 1242.3906,513.8633 Q1242.1094,513.5664 1242.1094,512.832 L1242.1094,511.8008 L1237.4531,511.8008 L1237.4531,514.6914 L1239.2031,514.6914 Q1239.2031,513.9102 1239.3438,513.6758 Q1239.6563,513.207 1240.2031,513.207 Q1240.6563,513.207 1240.9219,513.5195 Q1241.2031,513.8164 1241.2031,514.5352 L1241.2031,516.8477 Q1241.2031,517.5039 1241.0469,517.7227 Q1240.7344,518.1758 1240.2031,518.1758 Q1239.6563,518.1758 1239.3438,517.707 Q1239.2031,517.4727 1239.2031,516.6914 L1237.4531,516.6914 Z " fill="#000000"/><text fill="#000000" font-family="sans-serif" font-size="20" font-style="italic" lengthAdjust="spacing" textLength="69" x="1267.5" y="498.6563">«entity»</text><text fill="#000000" font-family="sans-serif" font-size="20" font-style="italic" lengthAdjust="spacing" textLength="56" x="1274" y="523.8125">«root»</text><text fill="#000000" font-family="sans-serif" font-size="20" lengthAdjust="spacing" textLength="95" x="1254.5" y="548.9688">Application</text><line style="stroke:#181818;stroke-width:0.5;" x1="1224.5" x2="1351.5" y1="558.3633" y2="558.3633"/></g><!--class ApplicationDate--><g id="elem_ApplicationDate"><rect codeLine="31" fill="#F5F5DC" height="68.3125" id="ApplicationDate" rx="2.5" ry="2.5" style="stroke:#181818;stroke-width:0.5;" width="171" x="781.5" y="875.3945"/><ellipse cx="797.5" cy="905.5508" fill="#FF8B40" rx="12" ry="12" style="stroke:#181818;stroke-width:1.0;"/><path d="M798,909.6289 L800.8906,902.7227 L800.4375,902.7227 Q799.7188,902.7227 799.4063,902.4414 Q799.0938,902.1602 799.0938,901.707 Q799.0938,901.2539 799.4063,900.9883 Q799.7188,900.707 800.4375,900.707 L803.125,900.707 Q803.8438,900.707 804.1563,900.9883 Q804.4688,901.2539 804.4688,901.707 Q804.4688,902.2539 804,902.5664 Q803.7656,902.7227 803.0781,902.7227 L798.9688,912.5508 L797.0469,912.5508 L792.9375,902.7227 Q792.2344,902.7227 792.0156,902.5664 Q791.5469,902.2539 791.5469,901.707 Q791.5469,901.2539 791.8594,900.9883 Q792.1563,900.707 792.875,900.707 L795.5781,900.707 Q796.2969,900.707 796.5938,900.9883 Q796.9063,901.2539 796.9063,901.707 Q796.9063,902.1602 796.6094,902.4414 Q796.3125,902.7227 795.5781,902.7227 L795.1094,902.7227 L798,909.6289 Z " fill="#000000"/><text fill="#000000" font-family="sans-serif" font-size="20" font-style="italic" lengthAdjust="spacing" textLength="128" x="817" y="901.1563">«value object»</text><text fill="#000000" font-family="sans-serif" font-size="20" lengthAdjust="spacing" textLength="137" x="812.5" y="926.3125">ApplicationDate</text><line style="stroke:#181818;stroke-width:0.5;" x1="782.5" x2="951.5" y1="935.707" y2="935.707"/></g><!--class ApplicationStatus--><g id="elem_ApplicationStatus"><rect codeLine="32" fill="#F5F5DC" height="68.3125" id="ApplicationStatus" rx="2.5" ry="2.5" style="stroke:#181818;stroke-width:0.5;" width="185" x="969.5" y="695.3945"/><ellipse cx="985.5" cy="725.5508" fill="#FF8B40" rx="12" ry="12" style="stroke:#181818;stroke-width:1.0;"/><path d="M986,729.6289 L988.8906,722.7227 L988.4375,722.7227 Q987.7188,722.7227 987.4063,722.4414 Q987.0938,722.1602 987.0938,721.707 Q987.0938,721.2539 987.4063,720.9883 Q987.7188,720.707 988.4375,720.707 L991.125,720.707 Q991.8438,720.707 992.1563,720.9883 Q992.4688,721.2539 992.4688,721.707 Q992.4688,722.2539 992,722.5664 Q991.7656,722.7227 991.0781,722.7227 L986.9688,732.5508 L985.0469,732.5508 L980.9375,722.7227 Q980.2344,722.7227 980.0156,722.5664 Q979.5469,722.2539 979.5469,721.707 Q979.5469,721.2539 979.8594,720.9883 Q980.1563,720.707 980.875,720.707 L983.5781,720.707 Q984.2969,720.707 984.5938,720.9883 Q984.9063,721.2539 984.9063,721.707 Q984.9063,722.1602 984.6094,722.4414 Q984.3125,722.7227 983.5781,722.7227 L983.1094,722.7227 L986,729.6289 Z " fill="#000000"/><text fill="#000000" font-family="sans-serif" font-size="20" font-style="italic" lengthAdjust="spacing" textLength="128" x="1012" y="721.1563">«value object»</text><text fill="#000000" font-family="sans-serif" font-size="20" lengthAdjust="spacing" textLength="151" x="1000.5" y="746.3125">ApplicationStatus</text><line style="stroke:#181818;stroke-width:0.5;" x1="970.5" x2="1153.5" y1="755.707" y2="755.707"/></g><!--class Interview--><g id="elem_Interview"><rect codeLine="33" fill="#F5F5DC" height="68.3125" id="Interview" rx="2.5" ry="2.5" style="stroke:#181818;stroke-width:0.5;" width="158" x="1146" y="875.3945"/><ellipse cx="1162" cy="905.5508" fill="#FF8B40" rx="12" ry="12" style="stroke:#181818;stroke-width:1.0;"/><path d="M1162.5,909.6289 L1165.3906,902.7227 L1164.9375,902.7227 Q1164.2188,902.7227 1163.9063,902.4414 Q1163.5938,902.1602 1163.5938,901.707 Q1163.5938,901.2539 1163.9063,900.9883 Q1164.2188,900.707 1164.9375,900.707 L1167.625,900.707 Q1168.3438,900.707 1168.6563,900.9883 Q1168.9688,901.2539 1168.9688,901.707 Q1168.9688,902.2539 1168.5,902.5664 Q1168.2656,902.7227 1167.5781,902.7227 L1163.4688,912.5508 L1161.5469,912.5508 L1157.4375,902.7227 Q1156.7344,902.7227 1156.5156,902.5664 Q1156.0469,902.2539 1156.0469,901.707 Q1156.0469,901.2539 1156.3594,900.9883 Q1156.6563,900.707 1157.375,900.707 L1160.0781,900.707 Q1160.7969,900.707 1161.0938,900.9883 Q1161.4063,901.2539 1161.4063,901.707 Q1161.4063,902.1602 1161.1094,902.4414 Q1160.8125,902.7227 1160.0781,902.7227 L1159.6094,902.7227 L1162.5,909.6289 Z " fill="#000000"/><text fill="#000000" font-family="sans-serif" font-size="20" font-style="italic" lengthAdjust="spacing" textLength="128" x="1175" y="901.1563">«value object»</text><text fill="#000000" font-family="sans-serif" font-size="20" lengthAdjust="spacing" textLength="79" x="1199.5" y="926.3125">Interview</text><line style="stroke:#181818;stroke-width:0.5;" x1="1147" x2="1303" y1="935.707" y2="935.707"/></g><!--class InterviewAnswer--><g id="elem_InterviewAnswer"><rect codeLine="40" fill="#F5F5DC" height="68.3125" id="InterviewAnswer" rx="2.5" ry="2.5" style="stroke:#181818;stroke-width:0.5;" width="179" x="1364.5" y="1173.8945"/><ellipse cx="1380.5" cy="1204.0508" fill="#FF8B40" rx="12" ry="12" style="stroke:#181818;stroke-width:1.0;"/><path d="M1381,1208.1289 L1383.8906,1201.2227 L1383.4375,1201.2227 Q1382.7188,1201.2227 1382.4063,1200.9414 Q1382.0938,1200.6602 1382.0938,1200.207 Q1382.0938,1199.7539 1382.4063,1199.4883 Q1382.7188,1199.207 1383.4375,1199.207 L1386.125,1199.207 Q1386.8438,1199.207 1387.1563,1199.4883 Q1387.4688,1199.7539 1387.4688,1200.207 Q1387.4688,1200.7539 1387,1201.0664 Q1386.7656,1201.2227 1386.0781,1201.2227 L1381.9688,1211.0508 L1380.0469,1211.0508 L1375.9375,1201.2227 Q1375.2344,1201.2227 1375.0156,1201.0664 Q1374.5469,1200.7539 1374.5469,1200.207 Q1374.5469,1199.7539 1374.8594,1199.4883 Q1375.1563,1199.207 1375.875,1199.207 L1378.5781,1199.207 Q1379.2969,1199.207 1379.5938,1199.4883 Q1379.9063,1199.7539 1379.9063,1200.207 Q1379.9063,1200.6602 1379.6094,1200.9414 Q1379.3125,1201.2227 1378.5781,1201.2227 L1378.1094,1201.2227 L1381,1208.1289 Z " fill="#000000"/><text fill="#000000" font-family="sans-serif" font-size="20" font-style="italic" lengthAdjust="spacing" textLength="128" x="1404" y="1199.6563">«value object»</text><text fill="#000000" font-family="sans-serif" font-size="20" lengthAdjust="spacing" textLength="145" x="1395.5" y="1224.8125">InterviewAnswer</text><line style="stroke:#181818;stroke-width:0.5;" x1="1365.5" x2="1542.5" y1="1234.207" y2="1234.207"/></g><!--class InterviewResult--><g id="elem_InterviewResult"><rect codeLine="35" fill="#F5F5DC" height="68.3125" id="InterviewResult" rx="2.5" ry="2.5" style="stroke:#181818;stroke-width:0.5;" width="168" x="875" y="1173.8945"/><ellipse cx="891" cy="1204.0508" fill="#FF8B40" rx="12" ry="12" style="stroke:#181818;stroke-width:1.0;"/><path d="M891.5,1208.1289 L894.3906,1201.2227 L893.9375,1201.2227 Q893.2188,1201.2227 892.9063,1200.9414 Q892.5938,1200.6602 892.5938,1200.207 Q892.5938,1199.7539 892.9063,1199.4883 Q893.2188,1199.207 893.9375,1199.207 L896.625,1199.207 Q897.3438,1199.207 897.6563,1199.4883 Q897.9688,1199.7539 897.9688,1200.207 Q897.9688,1200.7539 897.5,1201.0664 Q897.2656,1201.2227 896.5781,1201.2227 L892.4688,1211.0508 L890.5469,1211.0508 L886.4375,1201.2227 Q885.7344,1201.2227 885.5156,1201.0664 Q885.0469,1200.7539 885.0469,1200.207 Q885.0469,1199.7539 885.3594,1199.4883 Q885.6563,1199.207 886.375,1199.207 L889.0781,1199.207 Q889.7969,1199.207 890.0938,1199.4883 Q890.4063,1199.7539 890.4063,1200.207 Q890.4063,1200.6602 890.1094,1200.9414 Q889.8125,1201.2227 889.0781,1201.2227 L888.6094,1201.2227 L891.5,1208.1289 Z " fill="#000000"/><text fill="#000000" font-family="sans-serif" font-size="20" font-style="italic" lengthAdjust="spacing" textLength="128" x="909" y="1199.6563">«value object»</text><text fill="#000000" font-family="sans-serif" font-size="20" lengthAdjust="spacing" textLength="134" x="906" y="1224.8125">InterviewResult</text><line style="stroke:#181818;stroke-width:0.5;" x1="876" x2="1042" y1="1234.207" y2="1234.207"/></g><!--class Justification--><g id="elem_Justification"><rect codeLine="36" fill="#F5F5DC" height="68.3125" id="Justification" rx="2.5" ry="2.5" style="stroke:#181818;stroke-width:0.5;" width="158" x="880" y="1328.8945"/><ellipse cx="896" cy="1359.0508" fill="#FF8B40" rx="12" ry="12" style="stroke:#181818;stroke-width:1.0;"/><path d="M896.5,1363.1289 L899.3906,1356.2227 L898.9375,1356.2227 Q898.2188,1356.2227 897.9063,1355.9414 Q897.5938,1355.6602 897.5938,1355.207 Q897.5938,1354.7539 897.9063,1354.4883 Q898.2188,1354.207 898.9375,1354.207 L901.625,1354.207 Q902.3438,1354.207 902.6563,1354.4883 Q902.9688,1354.7539 902.9688,1355.207 Q902.9688,1355.7539 902.5,1356.0664 Q902.2656,1356.2227 901.5781,1356.2227 L897.4688,1366.0508 L895.5469,1366.0508 L891.4375,1356.2227 Q890.7344,1356.2227 890.5156,1356.0664 Q890.0469,1355.7539 890.0469,1355.207 Q890.0469,1354.7539 890.3594,1354.4883 Q890.6563,1354.207 891.375,1354.207 L894.0781,1354.207 Q894.7969,1354.207 895.0938,1354.4883 Q895.4063,1354.7539 895.4063,1355.207 Q895.4063,1355.6602 895.1094,1355.9414 Q894.8125,1356.2227 894.0781,1356.2227 L893.6094,1356.2227 L896.5,1363.1289 Z " fill="#000000"/><text fill="#000000" font-family="sans-serif" font-size="20" font-style="italic" lengthAdjust="spacing" textLength="128" x="909" y="1354.6563">«value object»</text><text fill="#000000" font-family="sans-serif" font-size="20" lengthAdjust="spacing" textLength="102" x="922" y="1379.8125">Justification</text><line style="stroke:#181818;stroke-width:0.5;" x1="881" x2="1037" y1="1389.207" y2="1389.207"/></g><!--class InterviewGrade--><g id="elem_InterviewGrade"><rect codeLine="37" fill="#F5F5DC" height="68.3125" id="InterviewGrade" rx="2.5" ry="2.5" style="stroke:#181818;stroke-width:0.5;" width="169" x="1160.5" y="1173.8945"/><ellipse cx="1176.5" cy="1204.0508" fill="#FF8B40" rx="12" ry="12" style="stroke:#181818;stroke-width:1.0;"/><path d="M1177,1208.1289 L1179.8906,1201.2227 L1179.4375,1201.2227 Q1178.7188,1201.2227 1178.4063,1200.9414 Q1178.0938,1200.6602 1178.0938,1200.207 Q1178.0938,1199.7539 1178.4063,1199.4883 Q1178.7188,1199.207 1179.4375,1199.207 L1182.125,1199.207 Q1182.8438,1199.207 1183.1563,1199.4883 Q1183.4688,1199.7539 1183.4688,1200.207 Q1183.4688,1200.7539 1183,1201.0664 Q1182.7656,1201.2227 1182.0781,1201.2227 L1177.9688,1211.0508 L1176.0469,1211.0508 L1171.9375,1201.2227 Q1171.2344,1201.2227 1171.0156,1201.0664 Q1170.5469,1200.7539 1170.5469,1200.207 Q1170.5469,1199.7539 1170.8594,1199.4883 Q1171.1563,1199.207 1171.875,1199.207 L1174.5781,1199.207 Q1175.2969,1199.207 1175.5938,1199.4883 Q1175.9063,1199.7539 1175.9063,1200.207 Q1175.9063,1200.6602 1175.6094,1200.9414 Q1175.3125,1201.2227 1174.5781,1201.2227 L1174.1094,1201.2227 L1177,1208.1289 Z " fill="#000000"/><text fill="#000000" font-family="sans-serif" font-size="20" font-style="italic" lengthAdjust="spacing" textLength="128" x="1195" y="1199.6563">«value object»</text><text fill="#000000" font-family="sans-serif" font-size="20" lengthAdjust="spacing" textLength="135" x="1191.5" y="1224.8125">InterviewGrade</text><line style="stroke:#181818;stroke-width:0.5;" x1="1161.5" x2="1328.5" y1="1234.207" y2="1234.207"/></g><!--class RequirementAnswer--><g id="elem_RequirementAnswer"><rect codeLine="38" fill="#F5F5DC" height="68.3125" id="RequirementAnswer" rx="2.5" ry="2.5" style="stroke:#181818;stroke-width:0.5;" width="211" x="1332.5" y="695.3945"/><ellipse cx="1348.5" cy="725.5508" fill="#FF8B40" rx="12" ry="12" style="stroke:#181818;stroke-width:1.0;"/><path d="M1349,729.6289 L1351.8906,722.7227 L1351.4375,722.7227 Q1350.7188,722.7227 1350.4063,722.4414 Q1350.0938,722.1602 1350.0938,721.707 Q1350.0938,721.2539 1350.4063,720.9883 Q1350.7188,720.707 1351.4375,720.707 L1354.125,720.707 Q1354.8438,720.707 1355.1563,720.9883 Q1355.4688,721.2539 1355.4688,721.707 Q1355.4688,722.2539 1355,722.5664 Q1354.7656,722.7227 1354.0781,722.7227 L1349.9688,732.5508 L1348.0469,732.5508 L1343.9375,722.7227 Q1343.2344,722.7227 1343.0156,722.5664 Q1342.5469,722.2539 1342.5469,721.707 Q1342.5469,721.2539 1342.8594,720.9883 Q1343.1563,720.707 1343.875,720.707 L1346.5781,720.707 Q1347.2969,720.707 1347.5938,720.9883 Q1347.9063,721.2539 1347.9063,721.707 Q1347.9063,722.1602 1347.6094,722.4414 Q1347.3125,722.7227 1346.5781,722.7227 L1346.1094,722.7227 L1349,729.6289 Z " fill="#000000"/><text fill="#000000" font-family="sans-serif" font-size="20" font-style="italic" lengthAdjust="spacing" textLength="128" x="1388" y="721.1563">«value object»</text><text fill="#000000" font-family="sans-serif" font-size="20" lengthAdjust="spacing" textLength="177" x="1363.5" y="746.3125">RequirementAnswer</text><line style="stroke:#181818;stroke-width:0.5;" x1="1333.5" x2="1542.5" y1="755.707" y2="755.707"/></g><!--class RequirementResult--><g id="elem_RequirementResult"><rect codeLine="39" fill="#F5F5DC" height="68.3125" id="RequirementResult" rx="2.5" ry="2.5" style="stroke:#181818;stroke-width:0.5;" width="200" x="1456" y="875.3945"/><ellipse cx="1472" cy="905.5508" fill="#FF8B40" rx="12" ry="12" style="stroke:#181818;stroke-width:1.0;"/><path d="M1472.5,909.6289 L1475.3906,902.7227 L1474.9375,902.7227 Q1474.2188,902.7227 1473.9063,902.4414 Q1473.5938,902.1602 1473.5938,901.707 Q1473.5938,901.2539 1473.9063,900.9883 Q1474.2188,900.707 1474.9375,900.707 L1477.625,900.707 Q1478.3438,900.707 1478.6563,900.9883 Q1478.9688,901.2539 1478.9688,901.707 Q1478.9688,902.2539 1478.5,902.5664 Q1478.2656,902.7227 1477.5781,902.7227 L1473.4688,912.5508 L1471.5469,912.5508 L1467.4375,902.7227 Q1466.7344,902.7227 1466.5156,902.5664 Q1466.0469,902.2539 1466.0469,901.707 Q1466.0469,901.2539 1466.3594,900.9883 Q1466.6563,900.707 1467.375,900.707 L1470.0781,900.707 Q1470.7969,900.707 1471.0938,900.9883 Q1471.4063,901.2539 1471.4063,901.707 Q1471.4063,902.1602 1471.1094,902.4414 Q1470.8125,902.7227 1470.0781,902.7227 L1469.6094,902.7227 L1472.5,909.6289 Z " fill="#000000"/><text fill="#000000" font-family="sans-serif" font-size="20" font-style="italic" lengthAdjust="spacing" textLength="128" x="1506" y="901.1563">«value object»</text><text fill="#000000" font-family="sans-serif" font-size="20" lengthAdjust="spacing" textLength="166" x="1487" y="926.3125">RequirementResult</text><line style="stroke:#181818;stroke-width:0.5;" x1="1457" x2="1655" y1="935.707" y2="935.707"/></g><!--class Schedule--><g id="elem_Schedule"><rect codeLine="41" fill="#F5F5DC" height="68.3125" id="Schedule" rx="2.5" ry="2.5" style="stroke:#181818;stroke-width:0.5;" width="158" x="1368" y="1044.8945"/><ellipse cx="1384" cy="1075.0508" fill="#FF8B40" rx="12" ry="12" style="stroke:#181818;stroke-width:1.0;"/><path d="M1384.5,1079.1289 L1387.3906,1072.2227 L1386.9375,1072.2227 Q1386.2188,1072.2227 1385.9063,1071.9414 Q1385.5938,1071.6602 1385.5938,1071.207 Q1385.5938,1070.7539 1385.9063,1070.4883 Q1386.2188,1070.207 1386.9375,1070.207 L1389.625,1070.207 Q1390.3438,1070.207 1390.6563,1070.4883 Q1390.9688,1070.7539 1390.9688,1071.207 Q1390.9688,1071.7539 1390.5,1072.0664 Q1390.2656,1072.2227 1389.5781,1072.2227 L1385.4688,1082.0508 L1383.5469,1082.0508 L1379.4375,1072.2227 Q1378.7344,1072.2227 1378.5156,1072.0664 Q1378.0469,1071.7539 1378.0469,1071.207 Q1378.0469,1070.7539 1378.3594,1070.4883 Q1378.6563,1070.207 1379.375,1070.207 L1382.0781,1070.207 Q1382.7969,1070.207 1383.0938,1070.4883 Q1383.4063,1070.7539 1383.4063,1071.207 Q1383.4063,1071.6602 1383.1094,1071.9414 Q1382.8125,1072.2227 1382.0781,1072.2227 L1381.6094,1072.2227 L1384.5,1079.1289 Z " fill="#000000"/><text fill="#000000" font-family="sans-serif" font-size="20" font-style="italic" lengthAdjust="spacing" textLength="128" x="1397" y="1070.6563">«value object»</text><text fill="#000000" font-family="sans-serif" font-size="20" lengthAdjust="spacing" textLength="80" x="1421" y="1095.8125">Schedule</text><line style="stroke:#181818;stroke-width:0.5;" x1="1369" x2="1525" y1="1105.207" y2="1105.207"/></g><!--class File--><g id="elem_File"><rect codeLine="42" fill="#F5F5DC" height="68.3125" id="File" rx="2.5" ry="2.5" style="stroke:#181818;stroke-width:0.5;" width="158" x="1691" y="875.3945"/><ellipse cx="1707" cy="905.5508" fill="#FF8B40" rx="12" ry="12" style="stroke:#181818;stroke-width:1.0;"/><path d="M1707.5,909.6289 L1710.3906,902.7227 L1709.9375,902.7227 Q1709.2188,902.7227 1708.9063,902.4414 Q1708.5938,902.1602 1708.5938,901.707 Q1708.5938,901.2539 1708.9063,900.9883 Q1709.2188,900.707 1709.9375,900.707 L1712.625,900.707 Q1713.3438,900.707 1713.6563,900.9883 Q1713.9688,901.2539 1713.9688,901.707 Q1713.9688,902.2539 1713.5,902.5664 Q1713.2656,902.7227 1712.5781,902.7227 L1708.4688,912.5508 L1706.5469,912.5508 L1702.4375,902.7227 Q1701.7344,902.7227 1701.5156,902.5664 Q1701.0469,902.2539 1701.0469,901.707 Q1701.0469,901.2539 1701.3594,900.9883 Q1701.6563,900.707 1702.375,900.707 L1705.0781,900.707 Q1705.7969,900.707 1706.0938,900.9883 Q1706.4063,901.2539 1706.4063,901.707 Q1706.4063,902.1602 1706.1094,902.4414 Q1705.8125,902.7227 1705.0781,902.7227 L1704.6094,902.7227 L1707.5,909.6289 Z " fill="#000000"/><text fill="#000000" font-family="sans-serif" font-size="20" font-style="italic" lengthAdjust="spacing" textLength="128" x="1720" y="901.1563">«value object»</text><text fill="#000000" font-family="sans-serif" font-size="20" lengthAdjust="spacing" textLength="31" x="1768.5" y="926.3125">File</text><line style="stroke:#181818;stroke-width:0.5;" x1="1692" x2="1848" y1="935.707" y2="935.707"/></g><!--class FullClassName--><g id="elem_FullClassName"><rect codeLine="8" fill="#F5F5DC" height="68.3125" id="FullClassName" rx="2.5" ry="2.5" style="stroke:#181818;stroke-width:0.5;" width="164" x="7" y="875.3945"/><ellipse cx="23" cy="905.5508" fill="#FF8B40" rx="12" ry="12" style="stroke:#181818;stroke-width:1.0;"/><path d="M23.5,909.6289 L26.3906,902.7227 L25.9375,902.7227 Q25.2188,902.7227 24.9063,902.4414 Q24.5938,902.1602 24.5938,901.707 Q24.5938,901.2539 24.9063,900.9883 Q25.2188,900.707 25.9375,900.707 L28.625,900.707 Q29.3438,900.707 29.6563,900.9883 Q29.9688,901.2539 29.9688,901.707 Q29.9688,902.2539 29.5,902.5664 Q29.2656,902.7227 28.5781,902.7227 L24.4688,912.5508 L22.5469,912.5508 L18.4375,902.7227 Q17.7344,902.7227 17.5156,902.5664 Q17.0469,902.2539 17.0469,901.707 Q17.0469,901.2539 17.3594,900.9883 Q17.6563,900.707 18.375,900.707 L21.0781,900.707 Q21.7969,900.707 22.0938,900.9883 Q22.4063,901.2539 22.4063,901.707 Q22.4063,902.1602 22.1094,902.4414 Q21.8125,902.7227 21.0781,902.7227 L20.6094,902.7227 L23.5,909.6289 Z " fill="#000000"/><text fill="#000000" font-family="sans-serif" font-size="20" font-style="italic" lengthAdjust="spacing" textLength="128" x="39" y="901.1563">«value object»</text><text fill="#000000" font-family="sans-serif" font-size="20" lengthAdjust="spacing" textLength="130" x="38" y="926.3125">FullClassName</text><line style="stroke:#181818;stroke-width:0.5;" x1="8" x2="170" y1="935.707" y2="935.707"/></g><!--class InterviewEvaluator--><g id="elem_InterviewEvaluator"><rect codeLine="10" fill="#F5F5DC" height="68.3125" id="InterviewEvaluator" rx="2.5" ry="2.5" style="stroke:#181818;stroke-width:0.5;" width="195" x="872.5" y="275.3945"/><ellipse cx="888.5" cy="305.5508" fill="#4D91F7" rx="12" ry="12" style="stroke:#181818;stroke-width:1.0;"/><path d="M885.5781,311.0352 Q885.3125,311.3477 885.1406,311.4414 Q884.9844,311.5352 884.75,311.5352 Q884.2969,311.5352 884.0156,311.2227 Q883.7344,310.9102 883.7344,310.207 L883.7344,308.8477 Q883.7344,308.1289 884.0156,307.832 Q884.2969,307.5195 884.75,307.5195 Q885.1094,307.5195 885.3438,307.707 Q885.5938,307.8945 885.7188,308.332 Q885.8438,308.7539 885.9844,308.9102 Q886.2656,309.2227 886.9844,309.5352 Q887.7031,309.8477 888.5625,309.8477 Q889.9063,309.8477 890.7656,309.2227 Q891.3125,308.832 891.3125,308.2852 Q891.3125,307.9102 891.0469,307.582 Q890.7813,307.2539 890.1875,307.0352 Q889.7969,306.8945 888.4375,306.6445 Q886.7969,306.332 885.9531,305.9102 Q885.125,305.4727 884.625,304.6914 Q884.1406,303.9102 884.1406,303.0039 Q884.1406,301.5664 885.3438,300.4883 Q886.5469,299.4102 888.4688,299.4102 Q889.2344,299.4102 889.8906,299.582 Q890.5625,299.7539 891.0938,300.0977 Q891.4844,299.7227 891.875,299.7227 Q892.3125,299.7227 892.5938,300.0352 Q892.875,300.332 892.875,301.0508 L892.875,302.5508 Q892.875,303.2852 892.5938,303.5977 Q892.3125,303.8945 891.875,303.8945 Q891.5,303.8945 891.2344,303.6758 Q891.0156,303.5039 890.9063,303.0039 Q890.7969,302.5039 890.6406,302.2852 Q890.3594,301.9258 889.7813,301.6758 Q889.2188,301.4102 888.4844,301.4102 Q887.3906,301.4102 886.7656,301.9258 Q886.1406,302.4258 886.1406,302.9727 Q886.1406,303.332 886.3906,303.6914 Q886.6563,304.0352 887.1563,304.2227 Q887.4844,304.3633 889.0156,304.6758 Q890.5625,304.9727 891.375,305.332 Q892.2031,305.6914 892.75,306.4727 Q893.2969,307.2383 893.2969,308.3008 Q893.2969,309.7852 892.25,310.6758 Q890.875,311.8477 888.7188,311.8477 Q887.8906,311.8477 887.0938,311.6445 Q886.3125,311.4414 885.5781,311.0352 Z " fill="#000000"/><text fill="#000000" font-family="sans-serif" font-size="20" font-style="italic" lengthAdjust="spacing" textLength="86" x="941" y="301.1563">«service»</text><text fill="#000000" font-family="sans-serif" font-size="20" lengthAdjust="spacing" textLength="161" x="903.5" y="326.3125">InterviewEvaluator</text><line style="stroke:#181818;stroke-width:0.5;" x1="873.5" x2="1066.5" y1="335.707" y2="335.707"/></g><!--link CustomerManager to Application--><g id="link_CustomerManager_Application"><path codeLine="45" d="M1288,144.1445 C1288,223.1945 1288,384.8145 1288,467.3845 " fill="none" id="CustomerManager-to-Application" style="stroke:#222222;stroke-width:1.0;"/><polygon fill="#222222" points="1288,472.7045,1292,463.7045,1288,467.7045,1284,463.7045,1288,472.7045" style="stroke:#222222;stroke-width:1.0;"/><text fill="#000000" font-family="sans-serif" font-size="20" lengthAdjust="spacing" textLength="80" x="1289" y="317.6563">overseas</text><text fill="#000000" font-family="sans-serif" font-size="20" lengthAdjust="spacing" textLength="31" x="1254.9172" y="460.4916">0..*</text></g><!--link CustomerManager to Candidate--><g id="link_CustomerManager_Candidate"><path codeLine="46" d="M1386.7,127.2645 C1535.28,170.7145 1812.48,251.7945 1939.42,288.9245 " fill="none" id="CustomerManager-to-Candidate" style="stroke:#222222;stroke-width:1.0;"/><polygon fill="#222222" points="1944.24,290.3345,1936.7375,283.9539,1939.4439,288.9214,1934.4764,291.6278,1944.24,290.3345" style="stroke:#222222;stroke-width:1.0;"/><text fill="#000000" font-family="sans-serif" font-size="20" lengthAdjust="spacing" textLength="80" x="1626" y="197.6563">manages</text><text fill="#000000" font-family="sans-serif" font-size="20" lengthAdjust="spacing" textLength="31" x="1905.2726" y="282.8255">1..*</text></g><!--link CustomerManager to InterviewModel--><g id="link_CustomerManager_InterviewModel"><path codeLine="47" d="M1189.24,108.4045 C1097.43,121.2045 959.5,149.5645 855,210.8945 C743.58,276.2945 713.8,306.3745 654,420.8945 C610.66,503.8845 597.57,614.0845 593.65,677.5245 " fill="none" id="CustomerManager-to-InterviewModel" style="stroke:#222222;stroke-width:1.0;"/><polygon fill="#222222" points="593.34,682.7645,597.8484,674.0081,593.6261,677.7727,589.8615,673.5504,593.34,682.7645" style="stroke:#222222;stroke-width:1.0;"/><text fill="#000000" font-family="sans-serif" font-size="20" lengthAdjust="spacing" textLength="62" x="673" y="407.6563">selects</text><text fill="#000000" font-family="sans-serif" font-size="20" lengthAdjust="spacing" textLength="31" x="595.6029" y="670.5597">1..*</text></g><!--link Candidate to Application--><g id="link_Candidate_Application"><path codeLine="49" d="M1944.47,328.2145 C1811.38,366.7745 1497.49,457.7045 1357.5,498.2645 " fill="none" id="Candidate-to-Application" style="stroke:#222222;stroke-width:1.0;"/><polygon fill="#222222" points="1352.59,499.6845,1362.3463,501.0313,1357.3938,498.2977,1360.1274,493.3452,1352.59,499.6845" style="stroke:#222222;stroke-width:1.0;"/><text fill="#000000" font-family="sans-serif" font-size="20" lengthAdjust="spacing" textLength="67" x="1733" y="407.6563">submits</text><text fill="#000000" font-family="sans-serif" font-size="20" lengthAdjust="spacing" textLength="31" x="1360.4739" y="492.2602">1..*</text></g><!--link Candidate to Email--><g id="link_Candidate_Email"><path codeLine="50" d="M2067.76,339.9545 C2101.71,358.9345 2142.25,386.4745 2169,420.8945 C2233.54,503.9245 2262.8,627.8545 2274.04,689.9845 " fill="none" id="Candidate-to-Email" style="stroke:#222222;stroke-width:1.0;"/><polygon fill="#222222" points="2274.95,695.0745,2277.3219,685.5156,2274.0794,690.1509,2269.4441,686.9084,2274.95,695.0745" style="stroke:#222222;stroke-width:1.0;"/><text fill="#000000" font-family="sans-serif" font-size="20" lengthAdjust="spacing" textLength="105" x="2243" y="527.6563">identified by</text><text fill="#000000" font-family="sans-serif" font-size="20" lengthAdjust="spacing" textLength="11" x="2262.2027" y="683.0687">1</text></g><!--link Candidate to CandidateName--><g id="link_Candidate_CandidateName"><path codeLine="51" d="M2006,356.0445 C2006,393.1945 2006,445.0545 2006,480.0745 " fill="none" id="Candidate-to-CandidateName" style="stroke:#222222;stroke-width:1.0;"/><polygon fill="#222222" points="2006,485.1145,2010,476.1145,2006,480.1145,2002,476.1145,2006,485.1145" style="stroke:#222222;stroke-width:1.0;"/><text fill="#000000" font-family="sans-serif" font-size="20" lengthAdjust="spacing" textLength="31" x="2007" y="407.6563">has</text><text fill="#000000" font-family="sans-serif" font-size="20" lengthAdjust="spacing" textLength="11" x="1994.0891" y="473.1154">1</text></g><!--link Candidate to PhoneNumber--><g id="link_Candidate_PhoneNumber"><path codeLine="52" d="M2064.52,356.1045 C2083.02,374.0845 2101.19,396.3145 2111,420.8945 C2147.41,512.0745 2119.36,630.3745 2100.5,690.1845 " fill="none" id="Candidate-to-PhoneNumber" style="stroke:#222222;stroke-width:1.0;"/><polygon fill="#222222" points="2098.93,695.0845,2105.4915,687.7397,2100.4596,690.3242,2097.875,685.2923,2098.93,695.0845" style="stroke:#222222;stroke-width:1.0;"/><text fill="#000000" font-family="sans-serif" font-size="20" lengthAdjust="spacing" textLength="31" x="2129" y="527.6563">has</text><text fill="#000000" font-family="sans-serif" font-size="20" lengthAdjust="spacing" textLength="11" x="2088.995" y="683.0804">1</text></g><!--link Application to Interview--><g id="link_Application_Interview"><path codeLine="54" d="M1265.53,566.0845 C1256.96,585.5945 1248.05,608.8845 1243,630.8945 C1223.79,714.5345 1222.58,815.8245 1223.63,869.9245 " fill="none" id="Application-to-Interview" style="stroke:#222222;stroke-width:1.0;"/><polygon fill="#222222" points="1223.74,875.0045,1227.5587,865.9261,1223.6397,870.0055,1219.5603,866.0866,1223.74,875.0045" style="stroke:#222222;stroke-width:1.0;"/><text fill="#000000" font-family="sans-serif" font-size="20" lengthAdjust="spacing" textLength="70" x="1244" y="737.6563">includes</text><text fill="#000000" font-family="sans-serif" font-size="20" lengthAdjust="spacing" textLength="34" x="1186.7157" y="862.9872">0..1</text></g><!--link Application to RequirementAnswer--><g id="link_Application_RequirementAnswer"><path codeLine="55" d="M1320.92,566.0445 C1347.93,603.5045 1385.72,655.9045 1410.99,690.9345 " fill="none" id="Application-to-RequirementAnswer" style="stroke:#222222;stroke-width:1.0;"/><polygon fill="#222222" points="1414,695.1145,1411.9758,685.4759,1411.0736,691.0604,1405.4891,690.1582,1414,695.1145" style="stroke:#222222;stroke-width:1.0;"/><text fill="#000000" font-family="sans-serif" font-size="20" lengthAdjust="spacing" textLength="70" x="1359" y="617.6563">includes</text><text fill="#000000" font-family="sans-serif" font-size="20" lengthAdjust="spacing" textLength="11" x="1398.1141" y="683.1154">1</text></g><!--link Application to RequirementResult--><g id="link_Application_RequirementResult"><path codeLine="56" d="M1352.67,526.3645 C1417.68,536.2045 1514.7,562.2045 1561,630.8945 C1609.89,703.4245 1586.93,812.6145 1569.44,870.0145 " fill="none" id="Application-to-RequirementResult" style="stroke:#222222;stroke-width:1.0;"/><polygon fill="#222222" points="1567.87,875.0645,1574.3648,867.6607,1569.3565,870.2906,1566.7265,865.2823,1567.87,875.0645" style="stroke:#222222;stroke-width:1.0;"/><text fill="#000000" font-family="sans-serif" font-size="20" lengthAdjust="spacing" textLength="70" x="1591" y="737.6563">includes</text><text fill="#000000" font-family="sans-serif" font-size="20" lengthAdjust="spacing" textLength="11" x="1557.925" y="863.0571">1</text></g><!--link Application to File--><g id="link_Application_File"><path codeLine="57" d="M1352.83,521.7445 C1436.67,526.9545 1582.3,548.2945 1670,630.8945 C1738.39,695.3145 1760.12,809.9245 1766.94,869.6945 " fill="none" id="Application-to-File" style="stroke:#222222;stroke-width:1.0;"/><polygon fill="#222222" points="1767.51,874.9545,1770.5094,865.5735,1766.9672,869.9841,1762.5567,866.4419,1767.51,874.9545" style="stroke:#222222;stroke-width:1.0;"/><polygon fill="#000000" points="1751.8751,724.3263,1759.9302,737.2363,1765.9801,730.036,1751.8751,724.3263" style="stroke:#000000;stroke-width:1.0;"/><text fill="#000000" font-family="sans-serif" font-size="20" lengthAdjust="spacing" textLength="85" x="1771" y="737.6563">describes</text><text fill="#000000" font-family="sans-serif" font-size="20" lengthAdjust="spacing" textLength="31" x="1733.5304" y="862.9289">1..*</text></g><!--link Application to ApplicationDate--><g id="link_Application_ApplicationDate"><path codeLine="58" d="M1223.42,526.4645 C1109.83,538.6145 881.74,570.1445 834,630.8945 C779.18,700.6545 819.52,812.3345 847.03,870.4645 " fill="none" id="Application-to-ApplicationDate" style="stroke:#222222;stroke-width:1.0;"/><polygon fill="#222222" points="849.32,875.2345,849.0487,865.3894,847.1642,870.7231,841.8305,868.8386,849.32,875.2345" style="stroke:#222222;stroke-width:1.0;"/><text fill="#000000" font-family="sans-serif" font-size="20" lengthAdjust="spacing" textLength="116" x="835" y="737.6563">registered by</text><text fill="#000000" font-family="sans-serif" font-size="20" lengthAdjust="spacing" textLength="11" x="834.3359" y="862.9631">1</text></g><!--link Application to ApplicationStatus--><g id="link_Application_ApplicationStatus"><path codeLine="59" d="M1223.32,529.5245 C1180.36,538.9645 1125.99,557.9445 1093,595.8945 C1070.53,621.7445 1063.57,660.8045 1061.76,689.8345 " fill="none" id="Application-to-ApplicationStatus" style="stroke:#222222;stroke-width:1.0;"/><polygon fill="#222222" points="1061.47,695.1245,1065.927,686.3419,1061.7268,690.1311,1057.9375,685.931,1061.47,695.1245" style="stroke:#222222;stroke-width:1.0;"/><polygon fill="#000000" points="1106.6788,603.8378,1093.0937,610.6934,1099.7178,617.3692,1106.6788,603.8378" style="stroke:#000000;stroke-width:1.0;"/><text fill="#000000" font-family="sans-serif" font-size="20" lengthAdjust="spacing" textLength="101" x="1114" y="617.6563">categorizes</text><text fill="#000000" font-family="sans-serif" font-size="20" lengthAdjust="spacing" textLength="11" x="1049.4713" y="683.127">1</text></g><!--link InterviewEvaluator to Application--><g id="link_InterviewEvaluator_Application"><path codeLine="61" d="M1020.74,343.5845 C1074.42,378.6945 1159.47,434.3245 1219.17,473.3745 " fill="none" id="InterviewEvaluator-to-Application" style="stroke:#222222;stroke-width:1.0;stroke-dasharray:7.0,7.0;"/><polygon fill="#222222" points="1223.42,476.1545,1218.0846,467.876,1219.2379,473.4141,1213.6999,474.5673,1223.42,476.1545" style="stroke:#222222;stroke-width:1.0;"/></g><!--link InterviewEvaluator to InterviewModel--><g id="link_InterviewEvaluator_InterviewModel"><path codeLine="62" d="M884.17,343.4345 C844.47,361.8245 798.75,387.7445 765,420.8945 C688.65,495.8745 635.94,611.7245 610.16,677.7345 " fill="none" id="InterviewEvaluator-to-InterviewModel" style="stroke:#222222;stroke-width:1.0;stroke-dasharray:7.0,7.0;"/><polygon fill="#222222" points="608.2,682.7945,615.1756,675.8418,610.0026,678.1308,607.7136,672.9577,608.2,682.7945" style="stroke:#222222;stroke-width:1.0;"/></g><!--link Interview to InterviewAnswer--><g id="link_Interview_InterviewAnswer"><path codeLine="64" d="M1218.43,943.6545 C1211.85,986.8945 1207.21,1062.7745 1243,1112.8945 C1257.9,1133.7645 1310.56,1157.2345 1359.54,1175.5045 " fill="none" id="Interview-to-InterviewAnswer" style="stroke:#222222;stroke-width:1.0;"/><polygon fill="#222222" points="1364.27,1177.2545,1357.2222,1170.3749,1359.5819,1175.5161,1354.4408,1177.8758,1364.27,1177.2545" style="stroke:#222222;stroke-width:1.0;"/><text fill="#000000" font-family="sans-serif" font-size="20" lengthAdjust="spacing" textLength="106" x="1244" y="1087.1563">described in</text><text fill="#000000" font-family="sans-serif" font-size="20" lengthAdjust="spacing" textLength="11" x="1345.3838" y="1169.4372">1</text></g><!--link Interview to InterviewResult--><g id="link_Interview_InterviewResult"><path codeLine="65" d="M1195.26,943.5445 C1145.25,999.2945 1044.65,1111.4145 992.33,1169.7445 " fill="none" id="Interview-to-InterviewResult" style="stroke:#222222;stroke-width:1.0;"/><polygon fill="#222222" points="988.95,1173.5045,997.9362,1169.4736,992.2877,1169.7817,991.9796,1164.1332,988.95,1173.5045" style="stroke:#222222;stroke-width:1.0;"/><polygon fill="#000000" points="1117.3423,1073.0178,1104.1778,1080.6501,1111.1782,1086.9303,1117.3423,1073.0178" style="stroke:#000000;stroke-width:1.0;"/><text fill="#000000" font-family="sans-serif" font-size="20" lengthAdjust="spacing" textLength="80" x="1125" y="1087.1563">classifies</text><text fill="#000000" font-family="sans-serif" font-size="20" lengthAdjust="spacing" textLength="11" x="981.9995" y="1161.4872">1</text></g><!--link InterviewResult to InterviewGrade--><g id="link_InterviewResult_InterviewGrade"><path codeLine="66" d="M1043.26,1207.8945 C1078.44,1207.8945 1119.36,1207.8945 1155.11,1207.8945 " fill="none" id="InterviewResult-to-InterviewGrade" style="stroke:#222222;stroke-width:1.0;"/><polygon fill="#222222" points="1160.35,1207.8945,1151.35,1203.8945,1155.35,1207.8945,1151.35,1211.8945,1160.35,1207.8945" style="stroke:#222222;stroke-width:1.0;"/><polygon fill="#000000" points="1060.25,1191.4727,1074.7221,1196.1749,1074.7221,1186.7704,1060.25,1191.4727" style="stroke:#000000;stroke-width:1.0;"/><text fill="#000000" font-family="sans-serif" font-size="20" lengthAdjust="spacing" textLength="61" x="1081.25" y="1199.6563">grades</text><text fill="#000000" font-family="sans-serif" font-size="20" lengthAdjust="spacing" textLength="11" x="1141.6027" y="1202.5753">1</text></g><!--link InterviewResult to Justification--><g id="link_InterviewResult_Justification"><path codeLine="67" d="M959,1242.0945 C959,1266.0545 959,1298.4645 959,1323.5245 " fill="none" id="InterviewResult-to-Justification" style="stroke:#222222;stroke-width:1.0;"/><polygon fill="#222222" points="959,1328.7645,963,1319.7645,959,1323.7645,955,1319.7645,959,1328.7645" style="stroke:#222222;stroke-width:1.0;"/><polygon fill="#000000" points="967,1277.4727,962.2977,1291.9448,971.7023,1291.9448,967,1277.4727" style="stroke:#000000;stroke-width:1.0;"/><text fill="#000000" font-family="sans-serif" font-size="20" lengthAdjust="spacing" textLength="65" x="980" y="1293.6563">justifies</text><text fill="#000000" font-family="sans-serif" font-size="20" lengthAdjust="spacing" textLength="11" x="947.0547" y="1316.4983">1</text></g><!--link Interview to Schedule--><g id="link_Interview_Schedule"><path codeLine="68" d="M1268.86,943.4845 C1306.41,971.8245 1360.38,1012.5445 1399.07,1041.7245 " fill="none" id="Interview-to-Schedule" style="stroke:#222222;stroke-width:1.0;"/><polygon fill="#222222" points="1403.23,1044.8745,1398.4448,1036.2663,1399.2352,1041.8677,1393.6338,1042.658,1403.23,1044.8745" style="stroke:#222222;stroke-width:1.0;"/><text fill="#000000" font-family="sans-serif" font-size="20" lengthAdjust="spacing" textLength="78" x="1363" y="1009.6563">follows a</text><text fill="#000000" font-family="sans-serif" font-size="20" lengthAdjust="spacing" textLength="11" x="1383.7617" y="1032.6272">1</text></g><!--link InterviewModel to InterviewModelName--><g id="link_InterviewModel_InterviewModelName"><path codeLine="70" d="M521.03,776.0045 C481.12,801.6445 431.32,833.6445 390.68,859.7645 " fill="none" id="InterviewModel-to-InterviewModelName" style="stroke:#222222;stroke-width:1.0;"/><polygon fill="#222222" points="386.27,862.5945,396.0036,861.0924,390.4759,859.8907,391.6776,854.363,386.27,862.5945" style="stroke:#222222;stroke-width:1.0;"/><polygon fill="#000000" points="484.7303,815.1479,470.0131,819.0155,475.0971,826.9274,484.7303,815.1479" style="stroke:#000000;stroke-width:1.0;"/><text fill="#000000" font-family="sans-serif" font-size="20" lengthAdjust="spacing" textLength="77" x="491" y="827.6563">identifies</text><text fill="#000000" font-family="sans-serif" font-size="20" lengthAdjust="spacing" textLength="11" x="384.1078" y="850.3668">1</text></g><!--link InterviewModel to InterviewModelDescription--><g id="link_InterviewModel_InterviewModelDescription"><path codeLine="71" d="M592,776.2345 C592,805.4245 592,842.7845 592,870.3345 " fill="none" id="InterviewModel-to-InterviewModelDescription" style="stroke:#222222;stroke-width:1.0;"/><polygon fill="#222222" points="592,875.3545,596,866.3545,592,870.3545,588,866.3545,592,875.3545" style="stroke:#222222;stroke-width:1.0;"/><polygon fill="#000000" points="600,811.4727,595.2977,825.9448,604.7023,825.9448,600,811.4727" style="stroke:#000000;stroke-width:1.0;"/><text fill="#000000" font-family="sans-serif" font-size="20" lengthAdjust="spacing" textLength="85" x="613" y="827.6563">describes</text><text fill="#000000" font-family="sans-serif" font-size="20" lengthAdjust="spacing" textLength="11" x="580.0547" y="863.1038">1</text></g><!--link InterviewModel to FullClassName--><g id="link_InterviewModel_FullClassName"><path codeLine="72" d="M508.21,749.6745 C452.94,763.2745 379.33,783.0945 316,805.8945 C262.31,825.2245 203.65,851.8645 159.41,873.1345 " fill="none" id="InterviewModel-to-FullClassName" style="stroke:#222222;stroke-width:1.0;"/><polygon fill="#222222" points="154.91,875.3145,164.754,875.0057,159.4131,873.1416,161.2773,867.8007,154.91,875.3145" style="stroke:#222222;stroke-width:1.0;"/><polygon fill="#000000" points="331.5415,816.8033,316.3298,817.1994,319.4678,826.065,331.5415,816.8033" style="stroke:#000000;stroke-width:1.0;"/><text fill="#000000" font-family="sans-serif" font-size="20" lengthAdjust="spacing" textLength="90" x="337" y="827.6563">configures</text><text fill="#000000" font-family="sans-serif" font-size="20" lengthAdjust="spacing" textLength="11" x="154.293" y="863.0569">1</text></g><!--SRC=[fLRlRvim4FtENt5AlwnJKwLLfMq8HKf_PEgaJbCZxRk12t5hS6QRHbsr_ts7dH1384rRlYHmxvtl7UU7zIClbaonNCZa4LD8SSvAOQQoC3F-5-5y50HwWu54CAqdnYWUbmPl4rbOq2XOy1G1ywLv1hO9wpRnaYMFcP9baLv98HN4o3FqG1EbvCg5Zixj5GI1eyAq5EAg-lUJvGXHzEdtoT5q-lNoOdGCJqoK239-mCICn_3oZrXqEU9jOL0zSLpTL31cA3cnPoT75-cti_cNOz1LEC4rSKariWnX44KionHcp5IXEWlSoHJ505xi4bWOJfBhg0rIVlUSU56afAoAgf9t56K9hqkA8kelvPnpLAxGlbpNg1F5buRBujKkzSkzAhMHEIguOmM5LKll9hoEzWhUim0hKfxI_tRcpNC_PvsqeRk67ZGHMzwlXIpmPvd7jl13MJSvu-837Pqibu8dh7elBSbUn1FTCpWU-DfrwL017dDcc2dr6xZRwT_BwHloIQ5NhpMxZtkFckpeJTmVD9sqK-gMlcFLxugb-2RgFVufkSAStjyxv7hiTmZ-IADdoGBJKXmsIHilvWVWQIkqRM8u78vXC3ez_JneJ7q8yWcLHgOxACGuiuojDOIGs_1UUCkJG_9vGSLfAgjEvC6RzUWopZbXVQZ53fmHX53xSGhnyqxAGTETGbYmpcIU5pbCuDTHz-lCaqFLyI8HPKhocs2NSdSGUmcxZFNmxMVOVjaP2EcuK7rkOYGtwKxUDgmGo1Av9Z6kSrqITgqg1Bh5J2ewRLHB1HrVzTDXmsMx8SDnQp2yLDkYMnjgApEbnkmbk0Q6RgDKur5LspQpDicwJGXPzTE9NnCQnXR2WxjjKcfmlR53c4iXv4e3yyIwNR5JVtqUyIQyaNyVppjxD2UZXzquqr7FP37dMQaivJy0]--></g></svg>