<?xml version="1.0" encoding="UTF-8" standalone="no"?><svg xmlns="http://www.w3.org/2000/svg" xmlns:xlink="http://www.w3.org/1999/xlink" contentStyleType="text/css" height="1616px" preserveAspectRatio="none" style="width:1780px;height:1616px;background:#FFFFFF;" version="1.1" viewBox="0 0 1780 1616" width="1780px" zoomAndPan="magnify"><defs/><g><text fill="#000000" font-family="sans-serif" font-size="14" font-weight="bold" lengthAdjust="spacing" textLength="173" x="796.5" y="24.5332">[US1009] - Class Diagram</text><!--class AbstractUI--><g id="elem_AbstractUI"><rect codeLine="4" fill="#F1F1F1" height="126.625" id="AbstractUI" rx="2.5" ry="2.5" style="stroke:#181818;stroke-width:0.5;" width="126" x="927" y="45.6094"/><ellipse cx="943.45" cy="63.1875" fill="#A9DCDF" rx="12" ry="12" style="stroke:#181818;stroke-width:1.0;"/><path d="M945.9031,65.2188 L941.0281,65.2188 L940.5438,66.4375 L941.0281,66.4375 Q941.7625,66.4375 942.0594,66.7188 Q942.3719,66.9844 942.3719,67.4375 Q942.3719,67.875 942.0594,68.1563 Q941.7625,68.4375 941.0281,68.4375 L938.3406,68.4375 Q937.6219,68.4375 937.3094,68.1563 Q936.9969,67.875 936.9969,67.4375 Q936.9969,66.9844 937.325,66.7031 Q937.6531,66.4219 938.3875,66.4375 L941.5281,58.6094 L940.2313,58.6094 Q939.4969,58.6094 939.1844,58.3281 Q938.8875,58.0469 938.8875,57.5938 Q938.8875,57.1406 939.1844,56.875 Q939.4969,56.5938 940.2313,56.5938 L944.5438,56.5938 L948.5281,66.4375 Q949.2313,66.4375 949.4656,66.5938 Q949.9188,66.9063 949.9188,67.4375 Q949.9188,67.875 949.6063,68.1563 Q949.3094,68.4375 948.5906,68.4375 L945.8875,68.4375 Q945.1688,68.4375 944.8563,68.1563 Q944.5438,67.875 944.5438,67.4375 Q944.5438,66.9844 944.8563,66.7188 Q945.1688,66.4375 945.8875,66.4375 L946.3719,66.4375 L945.9031,65.2188 Z M945.075,63.2188 L943.45,59.25 L941.8406,63.2188 L945.075,63.2188 Z " fill="#000000"/><text fill="#000000" font-family="sans-serif" font-size="20" font-style="italic" lengthAdjust="spacing" textLength="91" x="958.55" y="71.3711">AbstractUI</text><line style="stroke:#181818;stroke-width:0.5;" x1="928" x2="1052" y1="80.7656" y2="80.7656"/><line style="stroke:#181818;stroke-width:0.5;" x1="928" x2="1052" y1="88.7656" y2="88.7656"/><polygon fill="#FFFF44" points="938,101.8438,942,105.8438,938,109.8438,934,105.8438" style="stroke:#B38D22;stroke-width:1.0;"/><text fill="#000000" font-family="sans-serif" font-size="20" lengthAdjust="spacing" textLength="85" x="948" y="113.5273">doShow()</text><polygon fill="#FFFF44" points="938,127,942,131,938,135,934,131" style="stroke:#B38D22;stroke-width:1.0;"/><text fill="#000000" font-family="sans-serif" font-size="20" lengthAdjust="spacing" textLength="60" x="948" y="138.6836">show()</text><polygon fill="#FFFF44" points="938,152.1563,942,156.1563,938,160.1563,934,156.1563" style="stroke:#B38D22;stroke-width:1.0;"/><text fill="#000000" font-family="sans-serif" font-size="20" lengthAdjust="spacing" textLength="99" x="948" y="163.8398">mainLoop()</text></g><!--class AuthorizationService--><g id="elem_AuthorizationService"><rect codeLine="10" fill="#F1F1F1" height="76.3125" id="AuthorizationService" rx="2.5" ry="2.5" style="stroke:#181818;stroke-width:0.5;" width="392" x="1381" y="369.1094"/><ellipse cx="1484" cy="386.6875" fill="#ADD1B2" rx="12" ry="12" style="stroke:#181818;stroke-width:1.0;"/><path d="M1486.1406,381.6094 Q1486.3281,381.3594 1486.5469,381.2344 Q1486.7656,381.0938 1487.0156,381.0938 Q1487.4531,381.0938 1487.7344,381.4063 Q1488.0156,381.7031 1488.0156,382.4219 L1488.0156,384.125 Q1488.0156,384.8438 1487.7344,385.1563 Q1487.4531,385.4688 1487.0156,385.4688 Q1486.625,385.4688 1486.375,385.2344 Q1486.125,385.0156 1486.0156,384.4063 Q1485.9531,383.9844 1485.7344,383.7656 Q1485.3438,383.3281 1484.625,383.0625 Q1483.9063,382.7969 1483.1875,382.7969 Q1482.2813,382.7969 1481.5313,383.1875 Q1480.7813,383.5781 1480.2031,384.4688 Q1479.625,385.3438 1479.625,386.5469 L1479.625,387.8438 Q1479.625,389.2969 1480.6719,390.2656 Q1481.7344,391.2344 1483.5938,391.2344 Q1484.7031,391.2344 1485.4844,390.9219 Q1485.9219,390.75 1486.4375,390.2344 Q1486.75,389.9219 1486.9219,389.8281 Q1487.0938,389.7344 1487.3281,389.7344 Q1487.7188,389.7344 1488.0156,390.0469 Q1488.3281,390.3438 1488.3281,390.75 Q1488.3281,391.1563 1487.9219,391.625 Q1487.3281,392.3125 1486.3906,392.7031 Q1485.125,393.2344 1483.6094,393.2344 Q1481.8281,393.2344 1480.4063,392.5 Q1479.25,391.9063 1478.4375,390.6406 Q1477.625,389.375 1477.625,387.8906 L1477.625,386.5313 Q1477.625,384.9688 1478.3438,383.625 Q1479.0781,382.2656 1480.3594,381.5313 Q1481.6563,380.7969 1483.1094,380.7969 Q1483.9688,380.7969 1484.7188,381 Q1485.4844,381.2031 1486.1406,381.6094 Z " fill="#000000"/><text fill="#000000" font-family="sans-serif" font-size="20" lengthAdjust="spacing" textLength="177" x="1506" y="394.8711">AuthorizationService</text><line style="stroke:#181818;stroke-width:0.5;" x1="1382" x2="1772" y1="404.2656" y2="404.2656"/><line style="stroke:#181818;stroke-width:0.5;" x1="1382" x2="1772" y1="412.2656" y2="412.2656"/><ellipse cx="1392" cy="430.3438" fill="#84BE84" rx="3" ry="3" style="stroke:#038048;stroke-width:1.0;"/><text fill="#000000" font-family="sans-serif" font-size="20" lengthAdjust="spacing" textLength="365" x="1402" y="437.0273">ensureAuthenticatedUserHasAnyOf(roles)</text></g><!--class JobOpeningManagementService--><g id="elem_JobOpeningManagementService"><rect codeLine="14" fill="#F1F1F1" height="76.3125" id="JobOpeningManagementService" rx="2.5" ry="2.5" style="stroke:#181818;stroke-width:0.5;" width="318" x="434" y="591.6094"/><ellipse cx="450" cy="609.1875" fill="#ADD1B2" rx="12" ry="12" style="stroke:#181818;stroke-width:1.0;"/><path d="M452.1406,604.1094 Q452.3281,603.8594 452.5469,603.7344 Q452.7656,603.5938 453.0156,603.5938 Q453.4531,603.5938 453.7344,603.9063 Q454.0156,604.2031 454.0156,604.9219 L454.0156,606.625 Q454.0156,607.3438 453.7344,607.6563 Q453.4531,607.9688 453.0156,607.9688 Q452.625,607.9688 452.375,607.7344 Q452.125,607.5156 452.0156,606.9063 Q451.9531,606.4844 451.7344,606.2656 Q451.3438,605.8281 450.625,605.5625 Q449.9063,605.2969 449.1875,605.2969 Q448.2813,605.2969 447.5313,605.6875 Q446.7813,606.0781 446.2031,606.9688 Q445.625,607.8438 445.625,609.0469 L445.625,610.3438 Q445.625,611.7969 446.6719,612.7656 Q447.7344,613.7344 449.5938,613.7344 Q450.7031,613.7344 451.4844,613.4219 Q451.9219,613.25 452.4375,612.7344 Q452.75,612.4219 452.9219,612.3281 Q453.0938,612.2344 453.3281,612.2344 Q453.7188,612.2344 454.0156,612.5469 Q454.3281,612.8438 454.3281,613.25 Q454.3281,613.6563 453.9219,614.125 Q453.3281,614.8125 452.3906,615.2031 Q451.125,615.7344 449.6094,615.7344 Q447.8281,615.7344 446.4063,615 Q445.25,614.4063 444.4375,613.1406 Q443.625,611.875 443.625,610.3906 L443.625,609.0313 Q443.625,607.4688 444.3438,606.125 Q445.0781,604.7656 446.3594,604.0313 Q447.6563,603.2969 449.1094,603.2969 Q449.9688,603.2969 450.7188,603.5 Q451.4844,603.7031 452.1406,604.1094 Z " fill="#000000"/><text fill="#000000" font-family="sans-serif" font-size="20" lengthAdjust="spacing" textLength="284" x="465" y="617.3711">JobOpeningManagementService</text><line style="stroke:#181818;stroke-width:0.5;" x1="435" x2="751" y1="626.7656" y2="626.7656"/><line style="stroke:#181818;stroke-width:0.5;" x1="435" x2="751" y1="634.7656" y2="634.7656"/><ellipse cx="445" cy="652.8438" fill="#84BE84" rx="3" ry="3" style="stroke:#038048;stroke-width:1.0;"/><text fill="#000000" font-family="sans-serif" font-size="20" lengthAdjust="spacing" textLength="180" x="455" y="659.5273">activeJobOpenings()</text></g><!--class JobOpeningDtoService--><g id="elem_JobOpeningDtoService"><rect codeLine="17" fill="#F1F1F1" height="76.3125" id="JobOpeningDtoService" rx="2.5" ry="2.5" style="stroke:#181818;stroke-width:0.5;" width="268" x="169" y="740.1094"/><ellipse cx="199.85" cy="757.6875" fill="#ADD1B2" rx="12" ry="12" style="stroke:#181818;stroke-width:1.0;"/><path d="M201.9906,752.6094 Q202.1781,752.3594 202.3969,752.2344 Q202.6156,752.0938 202.8656,752.0938 Q203.3031,752.0938 203.5844,752.4063 Q203.8656,752.7031 203.8656,753.4219 L203.8656,755.125 Q203.8656,755.8438 203.5844,756.1563 Q203.3031,756.4688 202.8656,756.4688 Q202.475,756.4688 202.225,756.2344 Q201.975,756.0156 201.8656,755.4063 Q201.8031,754.9844 201.5844,754.7656 Q201.1938,754.3281 200.475,754.0625 Q199.7563,753.7969 199.0375,753.7969 Q198.1313,753.7969 197.3813,754.1875 Q196.6313,754.5781 196.0531,755.4688 Q195.475,756.3438 195.475,757.5469 L195.475,758.8438 Q195.475,760.2969 196.5219,761.2656 Q197.5844,762.2344 199.4438,762.2344 Q200.5531,762.2344 201.3344,761.9219 Q201.7719,761.75 202.2875,761.2344 Q202.6,760.9219 202.7719,760.8281 Q202.9438,760.7344 203.1781,760.7344 Q203.5688,760.7344 203.8656,761.0469 Q204.1781,761.3438 204.1781,761.75 Q204.1781,762.1563 203.7719,762.625 Q203.1781,763.3125 202.2406,763.7031 Q200.975,764.2344 199.4594,764.2344 Q197.6781,764.2344 196.2563,763.5 Q195.1,762.9063 194.2875,761.6406 Q193.475,760.375 193.475,758.8906 L193.475,757.5313 Q193.475,755.9688 194.1938,754.625 Q194.9281,753.2656 196.2094,752.5313 Q197.5063,751.7969 198.9594,751.7969 Q199.8188,751.7969 200.5688,752 Q201.3344,752.2031 201.9906,752.6094 Z " fill="#000000"/><text fill="#000000" font-family="sans-serif" font-size="20" lengthAdjust="spacing" textLength="201" x="218.15" y="765.8711">JobOpeningDtoService</text><line style="stroke:#181818;stroke-width:0.5;" x1="170" x2="436" y1="775.2656" y2="775.2656"/><line style="stroke:#181818;stroke-width:0.5;" x1="170" x2="436" y1="783.2656" y2="783.2656"/><ellipse cx="180" cy="801.3438" fill="#84BE84" rx="3" ry="3" style="stroke:#038048;stroke-width:1.0;"/><text fill="#000000" font-family="sans-serif" font-size="20" lengthAdjust="spacing" textLength="241" x="190" y="808.0273">convertToDto(jobOpenings)</text></g><!--class RequirementSpecificationManagementService--><g id="elem_RequirementSpecificationManagementService"><rect codeLine="21" fill="#F1F1F1" height="76.3125" id="RequirementSpecificationManagementService" rx="2.5" ry="2.5" style="stroke:#181818;stroke-width:0.5;" width="435" x="1095.5" y="740.1094"/><ellipse cx="1111.5" cy="757.6875" fill="#ADD1B2" rx="12" ry="12" style="stroke:#181818;stroke-width:1.0;"/><path d="M1113.6406,752.6094 Q1113.8281,752.3594 1114.0469,752.2344 Q1114.2656,752.0938 1114.5156,752.0938 Q1114.9531,752.0938 1115.2344,752.4063 Q1115.5156,752.7031 1115.5156,753.4219 L1115.5156,755.125 Q1115.5156,755.8438 1115.2344,756.1563 Q1114.9531,756.4688 1114.5156,756.4688 Q1114.125,756.4688 1113.875,756.2344 Q1113.625,756.0156 1113.5156,755.4063 Q1113.4531,754.9844 1113.2344,754.7656 Q1112.8438,754.3281 1112.125,754.0625 Q1111.4063,753.7969 1110.6875,753.7969 Q1109.7813,753.7969 1109.0313,754.1875 Q1108.2813,754.5781 1107.7031,755.4688 Q1107.125,756.3438 1107.125,757.5469 L1107.125,758.8438 Q1107.125,760.2969 1108.1719,761.2656 Q1109.2344,762.2344 1111.0938,762.2344 Q1112.2031,762.2344 1112.9844,761.9219 Q1113.4219,761.75 1113.9375,761.2344 Q1114.25,760.9219 1114.4219,760.8281 Q1114.5938,760.7344 1114.8281,760.7344 Q1115.2188,760.7344 1115.5156,761.0469 Q1115.8281,761.3438 1115.8281,761.75 Q1115.8281,762.1563 1115.4219,762.625 Q1114.8281,763.3125 1113.8906,763.7031 Q1112.625,764.2344 1111.1094,764.2344 Q1109.3281,764.2344 1107.9063,763.5 Q1106.75,762.9063 1105.9375,761.6406 Q1105.125,760.375 1105.125,758.8906 L1105.125,757.5313 Q1105.125,755.9688 1105.8438,754.625 Q1106.5781,753.2656 1107.8594,752.5313 Q1109.1563,751.7969 1110.6094,751.7969 Q1111.4688,751.7969 1112.2188,752 Q1112.9844,752.2031 1113.6406,752.6094 Z " fill="#000000"/><text fill="#000000" font-family="sans-serif" font-size="20" lengthAdjust="spacing" textLength="401" x="1126.5" y="765.8711">RequirementSpecificationManagementService</text><line style="stroke:#181818;stroke-width:0.5;" x1="1096.5" x2="1529.5" y1="775.2656" y2="775.2656"/><line style="stroke:#181818;stroke-width:0.5;" x1="1096.5" x2="1529.5" y1="783.2656" y2="783.2656"/><ellipse cx="1106.5" cy="801.3438" fill="#84BE84" rx="3" ry="3" style="stroke:#038048;stroke-width:1.0;"/><text fill="#000000" font-family="sans-serif" font-size="20" lengthAdjust="spacing" textLength="322" x="1116.5" y="808.0273">availableRequirementSpecifications()</text></g><!--class RequirementSpecificationDtoService--><g id="elem_RequirementSpecificationDtoService"><rect codeLine="24" fill="#F1F1F1" height="76.3125" id="RequirementSpecificationDtoService" rx="2.5" ry="2.5" style="stroke:#181818;stroke-width:0.5;" width="384" x="1078" y="1075.1094"/><ellipse cx="1108.4" cy="1092.6875" fill="#ADD1B2" rx="12" ry="12" style="stroke:#181818;stroke-width:1.0;"/><path d="M1110.5406,1087.6094 Q1110.7281,1087.3594 1110.9469,1087.2344 Q1111.1656,1087.0938 1111.4156,1087.0938 Q1111.8531,1087.0938 1112.1344,1087.4063 Q1112.4156,1087.7031 1112.4156,1088.4219 L1112.4156,1090.125 Q1112.4156,1090.8438 1112.1344,1091.1563 Q1111.8531,1091.4688 1111.4156,1091.4688 Q1111.025,1091.4688 1110.775,1091.2344 Q1110.525,1091.0156 1110.4156,1090.4063 Q1110.3531,1089.9844 1110.1344,1089.7656 Q1109.7438,1089.3281 1109.025,1089.0625 Q1108.3063,1088.7969 1107.5875,1088.7969 Q1106.6813,1088.7969 1105.9313,1089.1875 Q1105.1813,1089.5781 1104.6031,1090.4688 Q1104.025,1091.3438 1104.025,1092.5469 L1104.025,1093.8438 Q1104.025,1095.2969 1105.0719,1096.2656 Q1106.1344,1097.2344 1107.9938,1097.2344 Q1109.1031,1097.2344 1109.8844,1096.9219 Q1110.3219,1096.75 1110.8375,1096.2344 Q1111.15,1095.9219 1111.3219,1095.8281 Q1111.4938,1095.7344 1111.7281,1095.7344 Q1112.1188,1095.7344 1112.4156,1096.0469 Q1112.7281,1096.3438 1112.7281,1096.75 Q1112.7281,1097.1563 1112.3219,1097.625 Q1111.7281,1098.3125 1110.7906,1098.7031 Q1109.525,1099.2344 1108.0094,1099.2344 Q1106.2281,1099.2344 1104.8063,1098.5 Q1103.65,1097.9063 1102.8375,1096.6406 Q1102.025,1095.375 1102.025,1093.8906 L1102.025,1092.5313 Q1102.025,1090.9688 1102.7438,1089.625 Q1103.4781,1088.2656 1104.7594,1087.5313 Q1106.0563,1086.7969 1107.5094,1086.7969 Q1108.3688,1086.7969 1109.1188,1087 Q1109.8844,1087.2031 1110.5406,1087.6094 Z " fill="#000000"/><text fill="#000000" font-family="sans-serif" font-size="20" lengthAdjust="spacing" textLength="318" x="1126.6" y="1100.8711">RequirementSpecificationDtoService</text><line style="stroke:#181818;stroke-width:0.5;" x1="1079" x2="1461" y1="1110.2656" y2="1110.2656"/><line style="stroke:#181818;stroke-width:0.5;" x1="1079" x2="1461" y1="1118.2656" y2="1118.2656"/><ellipse cx="1089" cy="1136.3438" fill="#84BE84" rx="3" ry="3" style="stroke:#038048;stroke-width:1.0;"/><text fill="#000000" font-family="sans-serif" font-size="20" lengthAdjust="spacing" textLength="357" x="1099" y="1143.0273">convertToDto(requirementSpecifications)</text></g><!--class SelectRequirementSpecificationUI--><g id="elem_SelectRequirementSpecificationUI"><rect codeLine="28" fill="#F1F1F1" height="51.1563" id="SelectRequirementSpecificationUI" rx="2.5" ry="2.5" style="stroke:#181818;stroke-width:0.5;" width="330" x="825" y="232.6094"/><ellipse cx="841" cy="250.1875" fill="#ADD1B2" rx="12" ry="12" style="stroke:#181818;stroke-width:1.0;"/><path d="M843.1406,245.1094 Q843.3281,244.8594 843.5469,244.7344 Q843.7656,244.5938 844.0156,244.5938 Q844.4531,244.5938 844.7344,244.9063 Q845.0156,245.2031 845.0156,245.9219 L845.0156,247.625 Q845.0156,248.3438 844.7344,248.6563 Q844.4531,248.9688 844.0156,248.9688 Q843.625,248.9688 843.375,248.7344 Q843.125,248.5156 843.0156,247.9063 Q842.9531,247.4844 842.7344,247.2656 Q842.3438,246.8281 841.625,246.5625 Q840.9063,246.2969 840.1875,246.2969 Q839.2813,246.2969 838.5313,246.6875 Q837.7813,247.0781 837.2031,247.9688 Q836.625,248.8438 836.625,250.0469 L836.625,251.3438 Q836.625,252.7969 837.6719,253.7656 Q838.7344,254.7344 840.5938,254.7344 Q841.7031,254.7344 842.4844,254.4219 Q842.9219,254.25 843.4375,253.7344 Q843.75,253.4219 843.9219,253.3281 Q844.0938,253.2344 844.3281,253.2344 Q844.7188,253.2344 845.0156,253.5469 Q845.3281,253.8438 845.3281,254.25 Q845.3281,254.6563 844.9219,255.125 Q844.3281,255.8125 843.3906,256.2031 Q842.125,256.7344 840.6094,256.7344 Q838.8281,256.7344 837.4063,256 Q836.25,255.4063 835.4375,254.1406 Q834.625,252.875 834.625,251.3906 L834.625,250.0313 Q834.625,248.4688 835.3438,247.125 Q836.0781,245.7656 837.3594,245.0313 Q838.6563,244.2969 840.1094,244.2969 Q840.9688,244.2969 841.7188,244.5 Q842.4844,244.7031 843.1406,245.1094 Z " fill="#000000"/><text fill="#000000" font-family="sans-serif" font-size="20" lengthAdjust="spacing" textLength="296" x="856" y="258.3711">SelectRequirementSpecificationUI</text><line style="stroke:#181818;stroke-width:0.5;" x1="826" x2="1154" y1="267.7656" y2="267.7656"/><line style="stroke:#181818;stroke-width:0.5;" x1="826" x2="1154" y1="275.7656" y2="275.7656"/></g><!--class SelectRequirementSpecificationController--><g id="elem_SelectRequirementSpecificationController"><rect codeLine="30" fill="#F1F1F1" height="126.625" id="SelectRequirementSpecificationController" rx="2.5" ry="2.5" style="stroke:#181818;stroke-width:0.5;" width="711" x="634.5" y="343.6094"/><ellipse cx="804.5" cy="361.1875" fill="#ADD1B2" rx="12" ry="12" style="stroke:#181818;stroke-width:1.0;"/><path d="M806.6406,356.1094 Q806.8281,355.8594 807.0469,355.7344 Q807.2656,355.5938 807.5156,355.5938 Q807.9531,355.5938 808.2344,355.9063 Q808.5156,356.2031 808.5156,356.9219 L808.5156,358.625 Q808.5156,359.3438 808.2344,359.6563 Q807.9531,359.9688 807.5156,359.9688 Q807.125,359.9688 806.875,359.7344 Q806.625,359.5156 806.5156,358.9063 Q806.4531,358.4844 806.2344,358.2656 Q805.8438,357.8281 805.125,357.5625 Q804.4063,357.2969 803.6875,357.2969 Q802.7813,357.2969 802.0313,357.6875 Q801.2813,358.0781 800.7031,358.9688 Q800.125,359.8438 800.125,361.0469 L800.125,362.3438 Q800.125,363.7969 801.1719,364.7656 Q802.2344,365.7344 804.0938,365.7344 Q805.2031,365.7344 805.9844,365.4219 Q806.4219,365.25 806.9375,364.7344 Q807.25,364.4219 807.4219,364.3281 Q807.5938,364.2344 807.8281,364.2344 Q808.2188,364.2344 808.5156,364.5469 Q808.8281,364.8438 808.8281,365.25 Q808.8281,365.6563 808.4219,366.125 Q807.8281,366.8125 806.8906,367.2031 Q805.625,367.7344 804.1094,367.7344 Q802.3281,367.7344 800.9063,367 Q799.75,366.4063 798.9375,365.1406 Q798.125,363.875 798.125,362.3906 L798.125,361.0313 Q798.125,359.4688 798.8438,358.125 Q799.5781,356.7656 800.8594,356.0313 Q802.1563,355.2969 803.6094,355.2969 Q804.4688,355.2969 805.2188,355.5 Q805.9844,355.7031 806.6406,356.1094 Z " fill="#000000"/><text fill="#000000" font-family="sans-serif" font-size="20" lengthAdjust="spacing" textLength="362" x="826.5" y="369.3711">SelectRequirementSpecificationController</text><line style="stroke:#181818;stroke-width:0.5;" x1="635.5" x2="1344.5" y1="378.7656" y2="378.7656"/><line style="stroke:#181818;stroke-width:0.5;" x1="635.5" x2="1344.5" y1="386.7656" y2="386.7656"/><ellipse cx="645.5" cy="404.8438" fill="#84BE84" rx="3" ry="3" style="stroke:#038048;stroke-width:1.0;"/><text fill="#000000" font-family="sans-serif" font-size="20" lengthAdjust="spacing" textLength="180" x="655.5" y="411.5273">activeJobOpenings()</text><ellipse cx="645.5" cy="430" fill="#84BE84" rx="3" ry="3" style="stroke:#038048;stroke-width:1.0;"/><text fill="#000000" font-family="sans-serif" font-size="20" lengthAdjust="spacing" textLength="322" x="655.5" y="436.6836">availableRequirementSpecifications()</text><ellipse cx="645.5" cy="455.1563" fill="#84BE84" rx="3" ry="3" style="stroke:#038048;stroke-width:1.0;"/><text fill="#000000" font-family="sans-serif" font-size="20" lengthAdjust="spacing" textLength="684" x="655.5" y="461.8398">updateRequirementSpecification(jobOpeningDto, requirementSpecificationDto)</text></g><!--class JobOpeningRepository--><g id="elem_JobOpeningRepository"><rect codeLine="36" fill="#F1F1F1" height="101.4688" id="JobOpeningRepository" rx="2.5" ry="2.5" style="stroke:#181818;stroke-width:0.5;" width="303" x="685.5" y="727.6094"/><ellipse cx="732.55" cy="745.1875" fill="#ADD1B2" rx="12" ry="12" style="stroke:#181818;stroke-width:1.0;"/><path d="M734.6906,740.1094 Q734.8781,739.8594 735.0969,739.7344 Q735.3156,739.5938 735.5656,739.5938 Q736.0031,739.5938 736.2844,739.9063 Q736.5656,740.2031 736.5656,740.9219 L736.5656,742.625 Q736.5656,743.3438 736.2844,743.6563 Q736.0031,743.9688 735.5656,743.9688 Q735.175,743.9688 734.925,743.7344 Q734.675,743.5156 734.5656,742.9063 Q734.5031,742.4844 734.2844,742.2656 Q733.8938,741.8281 733.175,741.5625 Q732.4563,741.2969 731.7375,741.2969 Q730.8313,741.2969 730.0813,741.6875 Q729.3313,742.0781 728.7531,742.9688 Q728.175,743.8438 728.175,745.0469 L728.175,746.3438 Q728.175,747.7969 729.2219,748.7656 Q730.2844,749.7344 732.1438,749.7344 Q733.2531,749.7344 734.0344,749.4219 Q734.4719,749.25 734.9875,748.7344 Q735.3,748.4219 735.4719,748.3281 Q735.6438,748.2344 735.8781,748.2344 Q736.2688,748.2344 736.5656,748.5469 Q736.8781,748.8438 736.8781,749.25 Q736.8781,749.6563 736.4719,750.125 Q735.8781,750.8125 734.9406,751.2031 Q733.675,751.7344 732.1594,751.7344 Q730.3781,751.7344 728.9563,751 Q727.8,750.4063 726.9875,749.1406 Q726.175,747.875 726.175,746.3906 L726.175,745.0313 Q726.175,743.4688 726.8938,742.125 Q727.6281,740.7656 728.9094,740.0313 Q730.2063,739.2969 731.6594,739.2969 Q732.5188,739.2969 733.2688,739.5 Q734.0344,739.7031 734.6906,740.1094 Z " fill="#000000"/><text fill="#000000" font-family="sans-serif" font-size="20" lengthAdjust="spacing" textLength="200" x="754.45" y="753.3711">JobOpeningRepository</text><line style="stroke:#181818;stroke-width:0.5;" x1="686.5" x2="987.5" y1="762.7656" y2="762.7656"/><line style="stroke:#181818;stroke-width:0.5;" x1="686.5" x2="987.5" y1="770.7656" y2="770.7656"/><ellipse cx="696.5" cy="788.8438" fill="#84BE84" rx="3" ry="3" style="stroke:#038048;stroke-width:1.0;"/><text fill="#000000" font-family="sans-serif" font-size="20" lengthAdjust="spacing" textLength="276" x="706.5" y="795.5273">findAllJobOpeningsNotStarted()</text><ellipse cx="696.5" cy="814" fill="#84BE84" rx="3" ry="3" style="stroke:#038048;stroke-width:1.0;"/><text fill="#000000" font-family="sans-serif" font-size="20" lengthAdjust="spacing" textLength="212" x="706.5" y="820.6836">ofIdentity(jobReference)</text></g><!--class RequirementSpecificationRepository--><g id="elem_RequirementSpecificationRepository"><rect codeLine="40" fill="#F1F1F1" height="101.4688" id="RequirementSpecificationRepository" rx="2.5" ry="2.5" style="stroke:#181818;stroke-width:0.5;" width="351" x="876.5" y="888.6094"/><ellipse cx="892.5" cy="906.1875" fill="#ADD1B2" rx="12" ry="12" style="stroke:#181818;stroke-width:1.0;"/><path d="M894.6406,901.1094 Q894.8281,900.8594 895.0469,900.7344 Q895.2656,900.5938 895.5156,900.5938 Q895.9531,900.5938 896.2344,900.9063 Q896.5156,901.2031 896.5156,901.9219 L896.5156,903.625 Q896.5156,904.3438 896.2344,904.6563 Q895.9531,904.9688 895.5156,904.9688 Q895.125,904.9688 894.875,904.7344 Q894.625,904.5156 894.5156,903.9063 Q894.4531,903.4844 894.2344,903.2656 Q893.8438,902.8281 893.125,902.5625 Q892.4063,902.2969 891.6875,902.2969 Q890.7813,902.2969 890.0313,902.6875 Q889.2813,903.0781 888.7031,903.9688 Q888.125,904.8438 888.125,906.0469 L888.125,907.3438 Q888.125,908.7969 889.1719,909.7656 Q890.2344,910.7344 892.0938,910.7344 Q893.2031,910.7344 893.9844,910.4219 Q894.4219,910.25 894.9375,909.7344 Q895.25,909.4219 895.4219,909.3281 Q895.5938,909.2344 895.8281,909.2344 Q896.2188,909.2344 896.5156,909.5469 Q896.8281,909.8438 896.8281,910.25 Q896.8281,910.6563 896.4219,911.125 Q895.8281,911.8125 894.8906,912.2031 Q893.625,912.7344 892.1094,912.7344 Q890.3281,912.7344 888.9063,912 Q887.75,911.4063 886.9375,910.1406 Q886.125,908.875 886.125,907.3906 L886.125,906.0313 Q886.125,904.4688 886.8438,903.125 Q887.5781,901.7656 888.8594,901.0313 Q890.1563,900.2969 891.6094,900.2969 Q892.4688,900.2969 893.2188,900.5 Q893.9844,900.7031 894.6406,901.1094 Z " fill="#000000"/><text fill="#000000" font-family="sans-serif" font-size="20" lengthAdjust="spacing" textLength="317" x="907.5" y="914.3711">RequirementSpecificationRepository</text><line style="stroke:#181818;stroke-width:0.5;" x1="877.5" x2="1226.5" y1="923.7656" y2="923.7656"/><line style="stroke:#181818;stroke-width:0.5;" x1="877.5" x2="1226.5" y1="931.7656" y2="931.7656"/><ellipse cx="887.5" cy="949.8438" fill="#84BE84" rx="3" ry="3" style="stroke:#038048;stroke-width:1.0;"/><text fill="#000000" font-family="sans-serif" font-size="20" lengthAdjust="spacing" textLength="249" x="897.5" y="956.5273">requirementsSpecifications()</text><ellipse cx="887.5" cy="975" fill="#84BE84" rx="3" ry="3" style="stroke:#038048;stroke-width:1.0;"/><text fill="#000000" font-family="sans-serif" font-size="20" lengthAdjust="spacing" textLength="250" x="897.5" y="981.6836">ofIdentity(requirementName)</text></g><!--class DomainRepository--><g id="elem_DomainRepository"><rect codeLine="44" fill="#F1F1F1" height="76.3125" id="DomainRepository" rx="2.5" ry="2.5" style="stroke:#181818;stroke-width:0.5;" width="198" x="808" y="1236.6094"/><ellipse cx="824" cy="1254.1875" fill="#B4A7E5" rx="12" ry="12" style="stroke:#181818;stroke-width:1.0;"/><path d="M825,1250.3594 L825,1258.1875 L827.0313,1258.1875 Q827.75,1258.1875 828.0469,1258.4688 Q828.3594,1258.7344 828.3594,1259.1875 Q828.3594,1259.625 828.0469,1259.9063 Q827.75,1260.1875 827.0313,1260.1875 L820.9844,1260.1875 Q820.25,1260.1875 819.9375,1259.9063 Q819.6406,1259.625 819.6406,1259.1875 Q819.6406,1258.7344 819.9375,1258.4688 Q820.25,1258.1875 820.9844,1258.1875 L823,1258.1875 L823,1250.3594 L820.9844,1250.3594 Q820.25,1250.3594 819.9375,1250.0781 Q819.6406,1249.7969 819.6406,1249.3438 Q819.6406,1248.8906 819.9375,1248.625 Q820.25,1248.3438 820.9844,1248.3438 L827.0313,1248.3438 Q827.75,1248.3438 828.0469,1248.625 Q828.3594,1248.8906 828.3594,1249.3438 Q828.3594,1249.7969 828.0469,1250.0781 Q827.75,1250.3594 827.0313,1250.3594 L825,1250.3594 Z " fill="#000000"/><text fill="#000000" font-family="sans-serif" font-size="20" font-style="italic" lengthAdjust="spacing" textLength="164" x="839" y="1262.3711">DomainRepository</text><line style="stroke:#181818;stroke-width:0.5;" x1="809" x2="1005" y1="1271.7656" y2="1271.7656"/><line style="stroke:#181818;stroke-width:0.5;" x1="809" x2="1005" y1="1279.7656" y2="1279.7656"/><ellipse cx="819" cy="1297.8438" fill="#84BE84" rx="3" ry="3" style="stroke:#038048;stroke-width:1.0;"/><text fill="#000000" font-family="sans-serif" font-size="20" lengthAdjust="spacing" textLength="102" x="829" y="1304.5273">save(entity)</text></g><!--class JobOpening--><g id="elem_JobOpening"><rect codeLine="47" fill="#F1F1F1" height="51.1563" id="JobOpening" rx="2.5" ry="2.5" style="stroke:#181818;stroke-width:0.5;" width="139" x="279.5" y="913.6094"/><ellipse cx="295.5" cy="931.1875" fill="#ADD1B2" rx="12" ry="12" style="stroke:#181818;stroke-width:1.0;"/><path d="M297.6406,926.1094 Q297.8281,925.8594 298.0469,925.7344 Q298.2656,925.5938 298.5156,925.5938 Q298.9531,925.5938 299.2344,925.9063 Q299.5156,926.2031 299.5156,926.9219 L299.5156,928.625 Q299.5156,929.3438 299.2344,929.6563 Q298.9531,929.9688 298.5156,929.9688 Q298.125,929.9688 297.875,929.7344 Q297.625,929.5156 297.5156,928.9063 Q297.4531,928.4844 297.2344,928.2656 Q296.8438,927.8281 296.125,927.5625 Q295.4063,927.2969 294.6875,927.2969 Q293.7813,927.2969 293.0313,927.6875 Q292.2813,928.0781 291.7031,928.9688 Q291.125,929.8438 291.125,931.0469 L291.125,932.3438 Q291.125,933.7969 292.1719,934.7656 Q293.2344,935.7344 295.0938,935.7344 Q296.2031,935.7344 296.9844,935.4219 Q297.4219,935.25 297.9375,934.7344 Q298.25,934.4219 298.4219,934.3281 Q298.5938,934.2344 298.8281,934.2344 Q299.2188,934.2344 299.5156,934.5469 Q299.8281,934.8438 299.8281,935.25 Q299.8281,935.6563 299.4219,936.125 Q298.8281,936.8125 297.8906,937.2031 Q296.625,937.7344 295.1094,937.7344 Q293.3281,937.7344 291.9063,937 Q290.75,936.4063 289.9375,935.1406 Q289.125,933.875 289.125,932.3906 L289.125,931.0313 Q289.125,929.4688 289.8438,928.125 Q290.5781,926.7656 291.8594,926.0313 Q293.1563,925.2969 294.6094,925.2969 Q295.4688,925.2969 296.2188,925.5 Q296.9844,925.7031 297.6406,926.1094 Z " fill="#000000"/><text fill="#000000" font-family="sans-serif" font-size="20" lengthAdjust="spacing" textLength="105" x="310.5" y="939.3711">JobOpening</text><line style="stroke:#181818;stroke-width:0.5;" x1="280.5" x2="417.5" y1="948.7656" y2="948.7656"/><line style="stroke:#181818;stroke-width:0.5;" x1="280.5" x2="417.5" y1="956.7656" y2="956.7656"/></g><!--class RequirementSpecification--><g id="elem_RequirementSpecification"><rect codeLine="49" fill="#F1F1F1" height="51.1563" id="RequirementSpecification" rx="2.5" ry="2.5" style="stroke:#181818;stroke-width:0.5;" width="256" x="441" y="1249.1094"/><ellipse cx="457" cy="1266.6875" fill="#ADD1B2" rx="12" ry="12" style="stroke:#181818;stroke-width:1.0;"/><path d="M459.1406,1261.6094 Q459.3281,1261.3594 459.5469,1261.2344 Q459.7656,1261.0938 460.0156,1261.0938 Q460.4531,1261.0938 460.7344,1261.4063 Q461.0156,1261.7031 461.0156,1262.4219 L461.0156,1264.125 Q461.0156,1264.8438 460.7344,1265.1563 Q460.4531,1265.4688 460.0156,1265.4688 Q459.625,1265.4688 459.375,1265.2344 Q459.125,1265.0156 459.0156,1264.4063 Q458.9531,1263.9844 458.7344,1263.7656 Q458.3438,1263.3281 457.625,1263.0625 Q456.9063,1262.7969 456.1875,1262.7969 Q455.2813,1262.7969 454.5313,1263.1875 Q453.7813,1263.5781 453.2031,1264.4688 Q452.625,1265.3438 452.625,1266.5469 L452.625,1267.8438 Q452.625,1269.2969 453.6719,1270.2656 Q454.7344,1271.2344 456.5938,1271.2344 Q457.7031,1271.2344 458.4844,1270.9219 Q458.9219,1270.75 459.4375,1270.2344 Q459.75,1269.9219 459.9219,1269.8281 Q460.0938,1269.7344 460.3281,1269.7344 Q460.7188,1269.7344 461.0156,1270.0469 Q461.3281,1270.3438 461.3281,1270.75 Q461.3281,1271.1563 460.9219,1271.625 Q460.3281,1272.3125 459.3906,1272.7031 Q458.125,1273.2344 456.6094,1273.2344 Q454.8281,1273.2344 453.4063,1272.5 Q452.25,1271.9063 451.4375,1270.6406 Q450.625,1269.375 450.625,1267.8906 L450.625,1266.5313 Q450.625,1264.9688 451.3438,1263.625 Q452.0781,1262.2656 453.3594,1261.5313 Q454.6563,1260.7969 456.1094,1260.7969 Q456.9688,1260.7969 457.7188,1261 Q458.4844,1261.2031 459.1406,1261.6094 Z " fill="#000000"/><text fill="#000000" font-family="sans-serif" font-size="20" lengthAdjust="spacing" textLength="222" x="472" y="1274.8711">RequirementSpecification</text><line style="stroke:#181818;stroke-width:0.5;" x1="442" x2="696" y1="1284.2656" y2="1284.2656"/><line style="stroke:#181818;stroke-width:0.5;" x1="442" x2="696" y1="1292.2656" y2="1292.2656"/></g><!--class DTOable--><g id="elem_DTOable"><rect codeLine="51" fill="#F1F1F1" height="76.3125" id="DTOable" rx="2.5" ry="2.5" style="stroke:#181818;stroke-width:0.5;" width="114" x="342" y="1533.6094"/><ellipse cx="358" cy="1551.1875" fill="#B4A7E5" rx="12" ry="12" style="stroke:#181818;stroke-width:1.0;"/><path d="M359,1547.3594 L359,1555.1875 L361.0313,1555.1875 Q361.75,1555.1875 362.0469,1555.4688 Q362.3594,1555.7344 362.3594,1556.1875 Q362.3594,1556.625 362.0469,1556.9063 Q361.75,1557.1875 361.0313,1557.1875 L354.9844,1557.1875 Q354.25,1557.1875 353.9375,1556.9063 Q353.6406,1556.625 353.6406,1556.1875 Q353.6406,1555.7344 353.9375,1555.4688 Q354.25,1555.1875 354.9844,1555.1875 L357,1555.1875 L357,1547.3594 L354.9844,1547.3594 Q354.25,1547.3594 353.9375,1547.0781 Q353.6406,1546.7969 353.6406,1546.3438 Q353.6406,1545.8906 353.9375,1545.625 Q354.25,1545.3438 354.9844,1545.3438 L361.0313,1545.3438 Q361.75,1545.3438 362.0469,1545.625 Q362.3594,1545.8906 362.3594,1546.3438 Q362.3594,1546.7969 362.0469,1547.0781 Q361.75,1547.3594 361.0313,1547.3594 L359,1547.3594 Z " fill="#000000"/><text fill="#000000" font-family="sans-serif" font-size="20" font-style="italic" lengthAdjust="spacing" textLength="80" x="373" y="1559.3711">DTOable</text><line style="stroke:#181818;stroke-width:0.5;" x1="343" x2="455" y1="1568.7656" y2="1568.7656"/><line style="stroke:#181818;stroke-width:0.5;" x1="343" x2="455" y1="1576.7656" y2="1576.7656"/><ellipse cx="353" cy="1594.8438" fill="#84BE84" rx="3" ry="3" style="stroke:#038048;stroke-width:1.0;"/><text fill="#000000" font-family="sans-serif" font-size="20" lengthAdjust="spacing" textLength="62" x="363" y="1601.5273">toDto()</text></g><!--class RequirementName--><g id="elem_RequirementName"><rect codeLine="54" fill="#F1F1F1" height="101.4688" id="RequirementName" rx="2.5" ry="2.5" style="stroke:#181818;stroke-width:0.5;" width="196" x="320" y="1372.6094"/><ellipse cx="336" cy="1402.7656" fill="#FF8B40" rx="12" ry="12" style="stroke:#181818;stroke-width:1.0;"/><path d="M336.5,1406.8438 L339.3906,1399.9375 L338.9375,1399.9375 Q338.2188,1399.9375 337.9063,1399.6563 Q337.5938,1399.375 337.5938,1398.9219 Q337.5938,1398.4688 337.9063,1398.2031 Q338.2188,1397.9219 338.9375,1397.9219 L341.625,1397.9219 Q342.3438,1397.9219 342.6563,1398.2031 Q342.9688,1398.4688 342.9688,1398.9219 Q342.9688,1399.4688 342.5,1399.7813 Q342.2656,1399.9375 341.5781,1399.9375 L337.4688,1409.7656 L335.5469,1409.7656 L331.4375,1399.9375 Q330.7344,1399.9375 330.5156,1399.7813 Q330.0469,1399.4688 330.0469,1398.9219 Q330.0469,1398.4688 330.3594,1398.2031 Q330.6563,1397.9219 331.375,1397.9219 L334.0781,1397.9219 Q334.7969,1397.9219 335.0938,1398.2031 Q335.4063,1398.4688 335.4063,1398.9219 Q335.4063,1399.375 335.1094,1399.6563 Q334.8125,1399.9375 334.0781,1399.9375 L333.6094,1399.9375 L336.5,1406.8438 Z " fill="#000000"/><text fill="#000000" font-family="sans-serif" font-size="20" font-style="italic" lengthAdjust="spacing" textLength="128" x="368" y="1398.3711">«value object»</text><text fill="#000000" font-family="sans-serif" font-size="20" lengthAdjust="spacing" textLength="162" x="351" y="1423.5273">RequirementName</text><line style="stroke:#181818;stroke-width:0.5;" x1="321" x2="515" y1="1432.9219" y2="1432.9219"/><rect fill="none" height="6" style="stroke:#C82930;stroke-width:1.0;" width="6" x="328" y="1448"/><text fill="#000000" font-family="sans-serif" font-size="20" lengthAdjust="spacing" textLength="48" x="341" y="1457.6836">name</text><line style="stroke:#181818;stroke-width:0.5;" x1="321" x2="515" y1="1466.0781" y2="1466.0781"/></g><!--class JobReference--><g id="elem_JobReference"><rect codeLine="57" fill="#F1F1F1" height="126.625" id="JobReference" rx="2.5" ry="2.5" style="stroke:#181818;stroke-width:0.5;" width="162" x="283" y="1049.6094"/><ellipse cx="300.8" cy="1079.7656" fill="#FF8B40" rx="12" ry="12" style="stroke:#181818;stroke-width:1.0;"/><path d="M301.3,1083.8438 L304.1906,1076.9375 L303.7375,1076.9375 Q303.0188,1076.9375 302.7063,1076.6563 Q302.3938,1076.375 302.3938,1075.9219 Q302.3938,1075.4688 302.7063,1075.2031 Q303.0188,1074.9219 303.7375,1074.9219 L306.425,1074.9219 Q307.1438,1074.9219 307.4563,1075.2031 Q307.7688,1075.4688 307.7688,1075.9219 Q307.7688,1076.4688 307.3,1076.7813 Q307.0656,1076.9375 306.3781,1076.9375 L302.2688,1086.7656 L300.3469,1086.7656 L296.2375,1076.9375 Q295.5344,1076.9375 295.3156,1076.7813 Q294.8469,1076.4688 294.8469,1075.9219 Q294.8469,1075.4688 295.1594,1075.2031 Q295.4563,1074.9219 296.175,1074.9219 L298.8781,1074.9219 Q299.5969,1074.9219 299.8938,1075.2031 Q300.2063,1075.4688 300.2063,1075.9219 Q300.2063,1076.375 299.9094,1076.6563 Q299.6125,1076.9375 298.8781,1076.9375 L298.4094,1076.9375 L301.3,1083.8438 Z " fill="#000000"/><text fill="#000000" font-family="sans-serif" font-size="20" font-style="italic" lengthAdjust="spacing" textLength="128" x="314.2" y="1075.3711">«value object»</text><text fill="#000000" font-family="sans-serif" font-size="20" lengthAdjust="spacing" textLength="123" x="316.7" y="1100.5273">JobReference</text><line style="stroke:#181818;stroke-width:0.5;" x1="284" x2="444" y1="1109.9219" y2="1109.9219"/><rect fill="none" height="6" style="stroke:#C82930;stroke-width:1.0;" width="6" x="291" y="1125"/><text fill="#000000" font-family="sans-serif" font-size="20" lengthAdjust="spacing" textLength="128" x="304" y="1134.6836">customerCode</text><rect fill="none" height="6" style="stroke:#C82930;stroke-width:1.0;" width="6" x="291" y="1150.1563"/><text fill="#000000" font-family="sans-serif" font-size="20" lengthAdjust="spacing" textLength="135" x="304" y="1159.8398">sequentialCode</text><line style="stroke:#181818;stroke-width:0.5;" x1="284" x2="444" y1="1168.2344" y2="1168.2344"/></g><!--class JobOpeningDto--><g id="elem_JobOpeningDto"><rect fill="#F1F1F1" height="51.1563" id="JobOpeningDto" rx="2.5" ry="2.5" style="stroke:#181818;stroke-width:0.5;" width="170" x="7" y="1087.6094"/><ellipse cx="23" cy="1105.1875" fill="#ADD1B2" rx="12" ry="12" style="stroke:#181818;stroke-width:1.0;"/><path d="M25.1406,1100.1094 Q25.3281,1099.8594 25.5469,1099.7344 Q25.7656,1099.5938 26.0156,1099.5938 Q26.4531,1099.5938 26.7344,1099.9063 Q27.0156,1100.2031 27.0156,1100.9219 L27.0156,1102.625 Q27.0156,1103.3438 26.7344,1103.6563 Q26.4531,1103.9688 26.0156,1103.9688 Q25.625,1103.9688 25.375,1103.7344 Q25.125,1103.5156 25.0156,1102.9063 Q24.9531,1102.4844 24.7344,1102.2656 Q24.3438,1101.8281 23.625,1101.5625 Q22.9063,1101.2969 22.1875,1101.2969 Q21.2813,1101.2969 20.5313,1101.6875 Q19.7813,1102.0781 19.2031,1102.9688 Q18.625,1103.8438 18.625,1105.0469 L18.625,1106.3438 Q18.625,1107.7969 19.6719,1108.7656 Q20.7344,1109.7344 22.5938,1109.7344 Q23.7031,1109.7344 24.4844,1109.4219 Q24.9219,1109.25 25.4375,1108.7344 Q25.75,1108.4219 25.9219,1108.3281 Q26.0938,1108.2344 26.3281,1108.2344 Q26.7188,1108.2344 27.0156,1108.5469 Q27.3281,1108.8438 27.3281,1109.25 Q27.3281,1109.6563 26.9219,1110.125 Q26.3281,1110.8125 25.3906,1111.2031 Q24.125,1111.7344 22.6094,1111.7344 Q20.8281,1111.7344 19.4063,1111 Q18.25,1110.4063 17.4375,1109.1406 Q16.625,1107.875 16.625,1106.3906 L16.625,1105.0313 Q16.625,1103.4688 17.3438,1102.125 Q18.0781,1100.7656 19.3594,1100.0313 Q20.6563,1099.2969 22.1094,1099.2969 Q22.9688,1099.2969 23.7188,1099.5 Q24.4844,1099.7031 25.1406,1100.1094 Z " fill="#000000"/><text fill="#000000" font-family="sans-serif" font-size="20" lengthAdjust="spacing" textLength="136" x="38" y="1113.3711">JobOpeningDto</text><line style="stroke:#181818;stroke-width:0.5;" x1="8" x2="176" y1="1122.7656" y2="1122.7656"/><line style="stroke:#181818;stroke-width:0.5;" x1="8" x2="176" y1="1130.7656" y2="1130.7656"/></g><!--class RequirementSpecificationDto--><g id="elem_RequirementSpecificationDto"><rect fill="#F1F1F1" height="51.1563" id="RequirementSpecificationDto" rx="2.5" ry="2.5" style="stroke:#181818;stroke-width:0.5;" width="287" x="1126.5" y="1397.6094"/><ellipse cx="1142.5" cy="1415.1875" fill="#ADD1B2" rx="12" ry="12" style="stroke:#181818;stroke-width:1.0;"/><path d="M1144.6406,1410.1094 Q1144.8281,1409.8594 1145.0469,1409.7344 Q1145.2656,1409.5938 1145.5156,1409.5938 Q1145.9531,1409.5938 1146.2344,1409.9063 Q1146.5156,1410.2031 1146.5156,1410.9219 L1146.5156,1412.625 Q1146.5156,1413.3438 1146.2344,1413.6563 Q1145.9531,1413.9688 1145.5156,1413.9688 Q1145.125,1413.9688 1144.875,1413.7344 Q1144.625,1413.5156 1144.5156,1412.9063 Q1144.4531,1412.4844 1144.2344,1412.2656 Q1143.8438,1411.8281 1143.125,1411.5625 Q1142.4063,1411.2969 1141.6875,1411.2969 Q1140.7813,1411.2969 1140.0313,1411.6875 Q1139.2813,1412.0781 1138.7031,1412.9688 Q1138.125,1413.8438 1138.125,1415.0469 L1138.125,1416.3438 Q1138.125,1417.7969 1139.1719,1418.7656 Q1140.2344,1419.7344 1142.0938,1419.7344 Q1143.2031,1419.7344 1143.9844,1419.4219 Q1144.4219,1419.25 1144.9375,1418.7344 Q1145.25,1418.4219 1145.4219,1418.3281 Q1145.5938,1418.2344 1145.8281,1418.2344 Q1146.2188,1418.2344 1146.5156,1418.5469 Q1146.8281,1418.8438 1146.8281,1419.25 Q1146.8281,1419.6563 1146.4219,1420.125 Q1145.8281,1420.8125 1144.8906,1421.2031 Q1143.625,1421.7344 1142.1094,1421.7344 Q1140.3281,1421.7344 1138.9063,1421 Q1137.75,1420.4063 1136.9375,1419.1406 Q1136.125,1417.875 1136.125,1416.3906 L1136.125,1415.0313 Q1136.125,1413.4688 1136.8438,1412.125 Q1137.5781,1410.7656 1138.8594,1410.0313 Q1140.1563,1409.2969 1141.6094,1409.2969 Q1142.4688,1409.2969 1143.2188,1409.5 Q1143.9844,1409.7031 1144.6406,1410.1094 Z " fill="#000000"/><text fill="#000000" font-family="sans-serif" font-size="20" lengthAdjust="spacing" textLength="253" x="1157.5" y="1423.3711">RequirementSpecificationDto</text><line style="stroke:#181818;stroke-width:0.5;" x1="1127.5" x2="1412.5" y1="1432.7656" y2="1432.7656"/><line style="stroke:#181818;stroke-width:0.5;" x1="1127.5" x2="1412.5" y1="1440.7656" y2="1440.7656"/></g><!--reverse link AbstractUI to SelectRequirementSpecificationUI--><g id="link_AbstractUI_SelectRequirementSpecificationUI"><path codeLine="62" d="M990,193.2594 C990,207.6094 990,221.4594 990,232.5694 " fill="none" id="AbstractUI-backto-SelectRequirementSpecificationUI" style="stroke:#181818;stroke-width:1.0;"/><polygon fill="none" points="983,192.8794,990,172.8794,997,192.8794,983,192.8794" style="stroke:#181818;stroke-width:1.0;"/></g><!--link SelectRequirementSpecificationUI to SelectRequirementSpecificationController--><g id="link_SelectRequirementSpecificationUI_SelectRequirementSpecificationController"><path codeLine="63" d="M990,283.7094 C990,298.6594 990,318.5294 990,337.9094 " fill="none" id="SelectRequirementSpecificationUI-to-SelectRequirementSpecificationController" style="stroke:#181818;stroke-width:1.0;stroke-dasharray:7.0,7.0;"/><polygon fill="#181818" points="990,343.3594,994,334.3594,990,338.3594,986,334.3594,990,343.3594" style="stroke:#181818;stroke-width:1.0;"/></g><!--link SelectRequirementSpecificationController to AuthorizationService--><g id="link_SelectRequirementSpecificationController_AuthorizationService"><path codeLine="65" d="M1345.7,407.1094 C1355.7,407.1094 1365.7,407.1094 1375.7,407.1094 " fill="none" id="SelectRequirementSpecificationController-to-AuthorizationService" style="stroke:#181818;stroke-width:1.0;stroke-dasharray:7.0,7.0;"/><polygon fill="#181818" points="1380.93,407.1094,1371.93,403.1094,1375.93,407.1094,1371.93,411.1094,1380.93,407.1094" style="stroke:#181818;stroke-width:1.0;"/></g><!--link SelectRequirementSpecificationController to JobOpeningManagementService--><g id="link_SelectRequirementSpecificationController_JobOpeningManagementService"><path codeLine="66" d="M877.3,470.7094 C808.82,508.7394 723.47,556.1394 664.25,589.0394 " fill="none" id="SelectRequirementSpecificationController-to-JobOpeningManagementService" style="stroke:#181818;stroke-width:1.0;stroke-dasharray:7.0,7.0;"/><polygon fill="#181818" points="659.68,591.5794,669.49,590.7052,664.0508,589.1512,665.6048,583.712,659.68,591.5794" style="stroke:#181818;stroke-width:1.0;"/></g><!--link SelectRequirementSpecificationController to RequirementSpecificationManagementService--><g id="link_SelectRequirementSpecificationController_RequirementSpecificationManagementService"><path codeLine="67" d="M1044.79,470.7094 C1111.15,546.5094 1221,671.9994 1277.31,736.3294 " fill="none" id="SelectRequirementSpecificationController-to-RequirementSpecificationManagementService" style="stroke:#181818;stroke-width:1.0;stroke-dasharray:7.0,7.0;"/><polygon fill="#181818" points="1280.61,740.0994,1277.6963,730.6914,1277.3185,736.3356,1271.6743,735.9578,1280.61,740.0994" style="stroke:#181818;stroke-width:1.0;"/></g><!--link SelectRequirementSpecificationController to JobOpeningRepository--><g id="link_SelectRequirementSpecificationController_JobOpeningRepository"><path codeLine="68" d="M964.05,470.7094 C934.7,541.4894 887.38,655.5994 859.53,722.7794 " fill="none" id="SelectRequirementSpecificationController-to-JobOpeningRepository" style="stroke:#181818;stroke-width:1.0;stroke-dasharray:7.0,7.0;"/><polygon fill="#181818" points="857.56,727.5294,864.7034,720.7491,859.476,722.911,857.3141,717.6836,857.56,727.5294" style="stroke:#181818;stroke-width:1.0;"/></g><!--link SelectRequirementSpecificationController to RequirementSpecificationRepository--><g id="link_SelectRequirementSpecificationController_RequirementSpecificationRepository"><path codeLine="69" d="M997.33,470.7294 C1009.57,575.4094 1034,784.2094 1045.6,883.3794 " fill="none" id="SelectRequirementSpecificationController-to-RequirementSpecificationRepository" style="stroke:#181818;stroke-width:1.0;stroke-dasharray:7.0,7.0;"/><polygon fill="#181818" points="1046.21,888.5994,1049.1561,879.2015,1045.639,883.6321,1041.2084,880.115,1046.21,888.5994" style="stroke:#181818;stroke-width:1.0;"/></g><!--link SelectRequirementSpecificationController to JobOpeningDto--><g id="link_SelectRequirementSpecificationController_JobOpeningDto"><path codeLine="70" d="M634.43,432.1894 C389.5,458.9194 108,514.4694 108,628.6094 C108,628.6094 108,628.6094 108,779.1094 C108,891.1994 98.84,1024.2594 94.38,1082.4194 " fill="none" id="SelectRequirementSpecificationController-to-JobOpeningDto" style="stroke:#181818;stroke-width:1.0;"/><polygon fill="#181818" points="93.99,1087.4794,98.6723,1078.8147,94.3757,1082.4943,90.6961,1078.1977,93.99,1087.4794" style="stroke:#181818;stroke-width:1.0;"/></g><!--link SelectRequirementSpecificationController to RequirementSpecificationDto--><g id="link_SelectRequirementSpecificationController_RequirementSpecificationDto"><path codeLine="71" d="M1307,470.7194 C1448.54,508.0694 1584,561.3694 1584,628.6094 C1584,628.6094 1584,628.6094 1584,1114.1094 C1584,1253.7794 1423.7,1351.0994 1332.17,1395.2794 " fill="none" id="SelectRequirementSpecificationController-to-RequirementSpecificationDto" style="stroke:#181818;stroke-width:1.0;"/><polygon fill="#181818" points="1327.59,1397.4794,1337.4348,1397.196,1332.0987,1395.318,1333.9767,1389.982,1327.59,1397.4794" style="stroke:#181818;stroke-width:1.0;"/></g><!--link JobOpeningManagementService to JobOpeningRepository--><g id="link_JobOpeningManagementService_JobOpeningRepository"><path codeLine="73" d="M654.89,667.7694 C683.68,685.0594 718.44,705.9294 749.84,724.7794 " fill="none" id="JobOpeningManagementService-to-JobOpeningRepository" style="stroke:#181818;stroke-width:1.0;"/><polygon fill="#181818" points="754.44,727.5394,748.8003,719.4651,750.1588,724.9564,744.6675,726.315,754.44,727.5394" style="stroke:#181818;stroke-width:1.0;"/></g><!--link JobOpeningManagementService to JobOpeningDtoService--><g id="link_JobOpeningManagementService_JobOpeningDtoService"><path codeLine="74" d="M519.45,667.7694 C477.19,689.1094 424.14,715.9094 381.14,737.6394 " fill="none" id="JobOpeningManagementService-to-JobOpeningDtoService" style="stroke:#181818;stroke-width:1.0;stroke-dasharray:7.0,7.0;"/><polygon fill="#181818" points="376.48,739.9894,386.3163,739.4918,380.9406,737.7305,382.702,732.3548,376.48,739.9894" style="stroke:#181818;stroke-width:1.0;"/></g><!--link JobOpeningDtoService to JobOpening--><g id="link_JobOpeningDtoService_JobOpening"><path codeLine="75" d="M313.78,816.3894 C321.9,844.4394 332.88,882.3694 340.4,908.3994 " fill="none" id="JobOpeningDtoService-to-JobOpening" style="stroke:#181818;stroke-width:1.0;"/><polygon fill="#181818" points="341.86,913.4394,343.2068,903.683,340.4732,908.6356,335.5207,905.9019,341.86,913.4394" style="stroke:#181818;stroke-width:1.0;"/></g><!--link JobOpeningManagementService to JobOpening--><g id="link_JobOpeningManagementService_JobOpening"><path codeLine="76" d="M569.24,667.9594 C542.76,708.7094 497.89,775.2494 454,828.6094 C430.12,857.6494 400.23,888.3494 378.45,909.8294 " fill="none" id="JobOpeningManagementService-to-JobOpening" style="stroke:#181818;stroke-width:1.0;"/><polygon fill="#181818" points="374.75,913.4594,383.9707,909.9984,378.314,909.9526,378.3598,904.2959,374.75,913.4594" style="stroke:#181818;stroke-width:1.0;"/></g><!--link JobOpeningManagementService to RequirementSpecification--><g id="link_JobOpeningManagementService_RequirementSpecification"><path codeLine="77" d="M591.61,667.9594 C587.26,784.3294 574.03,1138.8494 570.11,1243.9494 " fill="none" id="JobOpeningManagementService-to-RequirementSpecification" style="stroke:#181818;stroke-width:1.0;stroke-dasharray:7.0,7.0;"/><polygon fill="#181818" points="569.92,1249.0494,574.2513,1240.204,570.1056,1244.0528,566.2568,1239.9071,569.92,1249.0494" style="stroke:#181818;stroke-width:1.0;"/></g><!--link JobOpeningManagementService to RequirementSpecificationRepository--><g id="link_JobOpeningManagementService_RequirementSpecificationRepository"><path codeLine="78" d="M597.07,667.9194 C603.91,712.4494 621.86,786.1994 668,828.6094 C723.2,879.3494 800.3,906.7594 870.94,921.4894 " fill="none" id="JobOpeningManagementService-to-RequirementSpecificationRepository" style="stroke:#181818;stroke-width:1.0;"/><polygon fill="#181818" points="876.02,922.5294,868.0016,916.8105,871.121,921.5296,866.4019,924.649,876.02,922.5294" style="stroke:#181818;stroke-width:1.0;"/></g><!--link JobOpeningDtoService to JobOpeningDto--><g id="link_JobOpeningDtoService_JobOpeningDto"><path codeLine="79" d="M279.41,816.3394 C237.07,883.1594 149.02,1022.1294 110.6,1082.7594 " fill="none" id="JobOpeningDtoService-to-JobOpeningDto" style="stroke:#181818;stroke-width:1.0;"/><polygon fill="#181818" points="107.7,1087.3294,115.9101,1081.8893,110.3872,1083.1128,109.1636,1077.5899,107.7,1087.3294" style="stroke:#181818;stroke-width:1.0;"/></g><!--link RequirementSpecificationManagementService to RequirementSpecificationRepository--><g id="link_RequirementSpecificationManagementService_RequirementSpecificationRepository"><path codeLine="81" d="M1252.14,816.1894 C1218.12,836.9094 1175.18,863.0694 1137.8,885.8394 " fill="none" id="RequirementSpecificationManagementService-to-RequirementSpecificationRepository" style="stroke:#181818;stroke-width:1.0;"/><polygon fill="#181818" points="1133.27,888.5994,1143.0376,887.3366,1137.541,885.9996,1138.878,880.5031,1133.27,888.5994" style="stroke:#181818;stroke-width:1.0;"/></g><!--link RequirementSpecificationManagementService to RequirementSpecificationDtoService--><g id="link_RequirementSpecificationManagementService_RequirementSpecificationDtoService"><path codeLine="82" d="M1308.19,816.3394 C1300.13,878.7794 1283.93,1004.2094 1275.46,1069.8594 " fill="none" id="RequirementSpecificationManagementService-to-RequirementSpecificationDtoService" style="stroke:#181818;stroke-width:1.0;stroke-dasharray:7.0,7.0;"/><polygon fill="#181818" points="1274.81,1074.8694,1279.9312,1066.4567,1275.4512,1069.9107,1271.9972,1065.4307,1274.81,1074.8694" style="stroke:#181818;stroke-width:1.0;"/></g><!--link RequirementSpecificationDtoService to RequirementSpecification--><g id="link_RequirementSpecificationDtoService_RequirementSpecification"><path codeLine="83" d="M1106.97,1151.1994 C976.53,1180.8794 797.01,1221.7294 681.97,1247.9094 " fill="none" id="RequirementSpecificationDtoService-to-RequirementSpecification" style="stroke:#181818;stroke-width:1.0;"/><polygon fill="#181818" points="676.88,1249.0594,686.54,1250.9788,681.7572,1247.9581,684.7779,1243.1753,676.88,1249.0594" style="stroke:#181818;stroke-width:1.0;"/></g><!--link RequirementSpecificationDtoService to RequirementSpecificationDto--><g id="link_RequirementSpecificationDtoService_RequirementSpecificationDto"><path codeLine="84" d="M1270,1151.2594 C1270,1212.9494 1270,1335.3194 1270,1391.9994 " fill="none" id="RequirementSpecificationDtoService-to-RequirementSpecificationDto" style="stroke:#181818;stroke-width:1.0;"/><polygon fill="#181818" points="1270,1397.2794,1274,1388.2794,1270,1392.2794,1266,1388.2794,1270,1397.2794" style="stroke:#181818;stroke-width:1.0;"/></g><!--link JobOpeningRepository to DomainRepository--><g id="link_JobOpeningRepository_DomainRepository"><path codeLine="86" d="M841.32,828.9794 C845.23,871.6994 851.51,934.8194 859,989.6094 C869.8,1068.6394 885.78,1159.4494 896.29,1216.6694 " fill="none" id="JobOpeningRepository-to-DomainRepository" style="stroke:#181818;stroke-width:1.0;stroke-dasharray:7.0,7.0;"/><polygon fill="none" points="903.2,1215.5694,899.96,1236.5094,889.43,1218.1194,903.2,1215.5694" style="stroke:#181818;stroke-width:1.0;"/></g><!--link RequirementSpecificationRepository to DomainRepository--><g id="link_RequirementSpecificationRepository_DomainRepository"><path codeLine="87" d="M1030.45,989.6794 C1003.92,1050.6894 959,1154.0094 931.28,1217.7594 " fill="none" id="RequirementSpecificationRepository-to-DomainRepository" style="stroke:#181818;stroke-width:1.0;stroke-dasharray:7.0,7.0;"/><polygon fill="none" points="937.67,1220.6394,923.27,1236.1894,924.83,1215.0494,937.67,1220.6394" style="stroke:#181818;stroke-width:1.0;"/></g><!--link JobOpening to DTOable--><g id="link_JobOpening_DTOable"><path codeLine="89" d="M322.44,964.6194 C302.34,985.0994 276.32,1016.2594 265,1049.6094 C246.86,1103.0594 261.5,1120.2694 265,1176.6094 C273.24,1309.3794 243.58,1354.0994 302,1473.6094 C310.22,1490.4194 322.53,1506.0494 335.65,1519.6394 " fill="none" id="JobOpening-to-DTOable" style="stroke:#181818;stroke-width:1.0;stroke-dasharray:7.0,7.0;"/><polygon fill="none" points="340.52,1514.6194,350.04,1533.5494,330.8,1524.6894,340.52,1514.6194" style="stroke:#181818;stroke-width:1.0;"/></g><!--link RequirementSpecification to DTOable--><g id="link_RequirementSpecification_DTOable"><path codeLine="90" d="M570.18,1300.2294 C570.91,1339.8694 567.45,1418.9194 533,1473.6094 C518.24,1497.0394 495.59,1516.5794 473.09,1531.8394 " fill="none" id="RequirementSpecification-to-DTOable" style="stroke:#181818;stroke-width:1.0;stroke-dasharray:7.0,7.0;"/><polygon fill="none" points="476.68,1537.8494,456.04,1542.6694,469.17,1526.0394,476.68,1537.8494" style="stroke:#181818;stroke-width:1.0;"/></g><!--link JobOpening to JobOpeningDto--><g id="link_JobOpening_JobOpeningDto"><path codeLine="91" d="M312.18,964.7494 C264.75,996.4894 182.57,1051.4994 133.14,1084.5794 " fill="none" id="JobOpening-to-JobOpeningDto" style="stroke:#181818;stroke-width:1.0;"/><polygon fill="#181818" points="128.75,1087.5094,138.4573,1085.8453,132.9103,1084.7359,134.0197,1079.1889,128.75,1087.5094" style="stroke:#181818;stroke-width:1.0;"/></g><!--link RequirementSpecification to RequirementSpecificationDto--><g id="link_RequirementSpecification_RequirementSpecificationDto"><path codeLine="92" d="M686.33,1300.1294 C814.19,1326.8494 1017.8,1369.3994 1147.61,1396.5294 " fill="none" id="RequirementSpecification-to-RequirementSpecificationDto" style="stroke:#181818;stroke-width:1.0;"/><polygon fill="#181818" points="1152.58,1397.5694,1144.5776,1391.8281,1147.6838,1396.5559,1142.956,1399.662,1152.58,1397.5694" style="stroke:#181818;stroke-width:1.0;"/></g><!--link JobOpening to RequirementSpecification--><g id="link_JobOpening_RequirementSpecification"><path codeLine="93" d="M380.01,964.8194 C404.55,985.5294 438.48,1016.8994 462,1049.6094 C507.76,1113.2494 542.51,1199.5194 558.79,1244.1494 " fill="none" id="JobOpening-to-RequirementSpecification" style="stroke:#181818;stroke-width:1.0;"/><polygon fill="#181818" points="560.5,1248.8594,561.1739,1239.0336,558.7867,1244.1621,553.6582,1241.7749,560.5,1248.8594" style="stroke:#181818;stroke-width:1.0;"/></g><!--link RequirementSpecification to RequirementName--><g id="link_RequirementSpecification_RequirementName"><path codeLine="94" d="M543.73,1300.1294 C524.44,1318.8394 497.15,1345.3194 472.92,1368.8194 " fill="none" id="RequirementSpecification-to-RequirementName" style="stroke:#181818;stroke-width:1.0;"/><polygon fill="#181818" points="469.06,1372.5694,478.3015,1369.1642,472.6452,1369.0842,472.7252,1363.4279,469.06,1372.5694" style="stroke:#181818;stroke-width:1.0;"/></g><!--link JobOpening to JobReference--><g id="link_JobOpening_JobReference"><path codeLine="95" d="M351.15,964.7494 C352.96,985.4794 355.63,1016.1194 358.07,1044.1094 " fill="none" id="JobOpening-to-JobReference" style="stroke:#181818;stroke-width:1.0;"/><polygon fill="#181818" points="358.52,1049.2994,361.708,1039.9808,358.0776,1044.319,353.7394,1040.6886,358.52,1049.2994" style="stroke:#181818;stroke-width:1.0;"/></g><!--SRC=[hLLHRzem47xthx3K5oeQnAOzR192OY2qJbkHIDdBj0UJN5gtnivi9nEb_U-p0nI7nabWovkj-xxxxkwBJprIdX99Lan4Zn3Z61AICJqLN8Vq2V3xFaAQQWRuvo9yr-z_-eK3F6P4AJoXvCu04I9BfIM9D8wA-z7kkBZ66uJDTu5Z4TwBFvtBtL6vXnMX_9iGgRbuGMX7aUbx8UaJqLJm46HE8zYHTJ46hZ89DWQufX7H42yKo2z4ZVXwbdIaOA0SjgzYEKk1KtxtdN1o1oi3Ev1siT5ASpX4gKBACNQYXGkA1Cz1wbjXxZiF1woJTmw_CogtwLA8Q6Arce8yAd926LaoyC5SMRwOEf7In-j83e51f7tiTg8jGyV6G6OE3AIlmoqhxk8iZSs8VJ5ExqsHLrZwErDfYJcaGb4jvDeAJIYFHumvIc-43ZMHncE5695SnzPrUcqJpo412Jo2vicKypWgLKN9JXOdyeQiYaIKQv09CJEU2FltbAaLoQ6p1LVPUDEeT5DESJkp8ohif0iVLTPgjU71eFFZwc8w_VZvG_yIvuHbWCNomTXaE3G40UOcojNqshzcQ9GfBLOWno86SrGcjIsIiEB23DPvTWRFGT1ePTJezLumREroXDf6ujwmydqxWI0mmceUjHEPMZzJPoiy6FG_IJk7i2p96FaqQCsBYr3TXl6seWxKEnQx7q7bFYgdE45DemPVrGqvseskHIr5TzllqPQ9snFs6aQ_7qkBVLp7zA_u8nCUIhK5F0_Vx0dKt2GVqacp3zbk22_dKPY3VpjhBqTJzINMSpfzdC4kj0gjhniB_GK0]--></g></svg>