<?xml version="1.0" encoding="UTF-8" standalone="no"?><svg xmlns="http://www.w3.org/2000/svg" xmlns:xlink="http://www.w3.org/1999/xlink" contentStyleType="text/css" height="1515px" preserveAspectRatio="none" style="width:1442px;height:1515px;background:#FFFFFF;" version="1.1" viewBox="0 0 1442 1515" width="1442px" zoomAndPan="magnify"><defs/><g><text fill="#000000" font-family="sans-serif" font-size="14" font-weight="bold" lengthAdjust="spacing" textLength="173" x="627.93" y="24.5332">[US1009] - Class Diagram</text><!--class AbstractUI--><g id="elem_AbstractUI"><rect codeLine="4" fill="#F1F1F1" height="126.625" id="AbstractUI" rx="2.5" ry="2.5" style="stroke:#181818;stroke-width:0.5;" width="126" x="589.86" y="45.6094"/><ellipse cx="606.31" cy="63.1875" fill="#A9DCDF" rx="12" ry="12" style="stroke:#181818;stroke-width:1.0;"/><path d="M608.7631,65.2188 L603.8881,65.2188 L603.4038,66.4375 L603.8881,66.4375 Q604.6225,66.4375 604.9194,66.7188 Q605.2319,66.9844 605.2319,67.4375 Q605.2319,67.875 604.9194,68.1563 Q604.6225,68.4375 603.8881,68.4375 L601.2006,68.4375 Q600.4819,68.4375 600.1694,68.1563 Q599.8569,67.875 599.8569,67.4375 Q599.8569,66.9844 600.185,66.7031 Q600.5131,66.4219 601.2475,66.4375 L604.3881,58.6094 L603.0913,58.6094 Q602.3569,58.6094 602.0444,58.3281 Q601.7475,58.0469 601.7475,57.5938 Q601.7475,57.1406 602.0444,56.875 Q602.3569,56.5938 603.0913,56.5938 L607.4038,56.5938 L611.3881,66.4375 Q612.0913,66.4375 612.3256,66.5938 Q612.7788,66.9063 612.7788,67.4375 Q612.7788,67.875 612.4663,68.1563 Q612.1694,68.4375 611.4506,68.4375 L608.7475,68.4375 Q608.0288,68.4375 607.7163,68.1563 Q607.4038,67.875 607.4038,67.4375 Q607.4038,66.9844 607.7163,66.7188 Q608.0288,66.4375 608.7475,66.4375 L609.2319,66.4375 L608.7631,65.2188 Z M607.935,63.2188 L606.31,59.25 L604.7006,63.2188 L607.935,63.2188 Z " fill="#000000"/><text fill="#000000" font-family="sans-serif" font-size="20" font-style="italic" lengthAdjust="spacing" textLength="91" x="621.41" y="71.3711">AbstractUI</text><line style="stroke:#181818;stroke-width:0.5;" x1="590.86" x2="714.86" y1="80.7656" y2="80.7656"/><line style="stroke:#181818;stroke-width:0.5;" x1="590.86" x2="714.86" y1="88.7656" y2="88.7656"/><polygon fill="#FFFF44" points="600.86,101.8438,604.86,105.8438,600.86,109.8438,596.86,105.8438" style="stroke:#B38D22;stroke-width:1.0;"/><text fill="#000000" font-family="sans-serif" font-size="20" lengthAdjust="spacing" textLength="85" x="610.86" y="113.5273">doShow()</text><polygon fill="#FFFF44" points="600.86,127,604.86,131,600.86,135,596.86,131" style="stroke:#B38D22;stroke-width:1.0;"/><text fill="#000000" font-family="sans-serif" font-size="20" lengthAdjust="spacing" textLength="60" x="610.86" y="138.6836">show()</text><polygon fill="#FFFF44" points="600.86,152.1563,604.86,156.1563,600.86,160.1563,596.86,156.1563" style="stroke:#B38D22;stroke-width:1.0;"/><text fill="#000000" font-family="sans-serif" font-size="20" lengthAdjust="spacing" textLength="99" x="610.86" y="163.8398">mainLoop()</text></g><!--class AuthorizationService--><g id="elem_AuthorizationService"><rect codeLine="10" fill="#F1F1F1" height="76.3125" id="AuthorizationService" rx="2.5" ry="2.5" style="stroke:#181818;stroke-width:0.5;" width="392" x="1043.86" y="369.1094"/><ellipse cx="1146.86" cy="386.6875" fill="#ADD1B2" rx="12" ry="12" style="stroke:#181818;stroke-width:1.0;"/><path d="M1149.0006,381.6094 Q1149.1881,381.3594 1149.4069,381.2344 Q1149.6256,381.0938 1149.8756,381.0938 Q1150.3131,381.0938 1150.5944,381.4063 Q1150.8756,381.7031 1150.8756,382.4219 L1150.8756,384.125 Q1150.8756,384.8438 1150.5944,385.1563 Q1150.3131,385.4688 1149.8756,385.4688 Q1149.485,385.4688 1149.235,385.2344 Q1148.985,385.0156 1148.8756,384.4063 Q1148.8131,383.9844 1148.5944,383.7656 Q1148.2038,383.3281 1147.485,383.0625 Q1146.7663,382.7969 1146.0475,382.7969 Q1145.1413,382.7969 1144.3913,383.1875 Q1143.6413,383.5781 1143.0631,384.4688 Q1142.485,385.3438 1142.485,386.5469 L1142.485,387.8438 Q1142.485,389.2969 1143.5319,390.2656 Q1144.5944,391.2344 1146.4538,391.2344 Q1147.5631,391.2344 1148.3444,390.9219 Q1148.7819,390.75 1149.2975,390.2344 Q1149.61,389.9219 1149.7819,389.8281 Q1149.9538,389.7344 1150.1881,389.7344 Q1150.5788,389.7344 1150.8756,390.0469 Q1151.1881,390.3438 1151.1881,390.75 Q1151.1881,391.1563 1150.7819,391.625 Q1150.1881,392.3125 1149.2506,392.7031 Q1147.985,393.2344 1146.4694,393.2344 Q1144.6881,393.2344 1143.2663,392.5 Q1142.11,391.9063 1141.2975,390.6406 Q1140.485,389.375 1140.485,387.8906 L1140.485,386.5313 Q1140.485,384.9688 1141.2038,383.625 Q1141.9381,382.2656 1143.2194,381.5313 Q1144.5163,380.7969 1145.9694,380.7969 Q1146.8288,380.7969 1147.5788,381 Q1148.3444,381.2031 1149.0006,381.6094 Z " fill="#000000"/><text fill="#000000" font-family="sans-serif" font-size="20" lengthAdjust="spacing" textLength="177" x="1168.86" y="394.8711">AuthorizationService</text><line style="stroke:#181818;stroke-width:0.5;" x1="1044.86" x2="1434.86" y1="404.2656" y2="404.2656"/><line style="stroke:#181818;stroke-width:0.5;" x1="1044.86" x2="1434.86" y1="412.2656" y2="412.2656"/><ellipse cx="1054.86" cy="430.3438" fill="#84BE84" rx="3" ry="3" style="stroke:#038048;stroke-width:1.0;"/><text fill="#000000" font-family="sans-serif" font-size="20" lengthAdjust="spacing" textLength="365" x="1064.86" y="437.0273">ensureAuthenticatedUserHasAnyOf(roles)</text></g><!--class JobOpeningManagementService--><g id="elem_JobOpeningManagementService"><rect codeLine="14" fill="#F1F1F1" height="76.3125" id="JobOpeningManagementService" rx="2.5" ry="2.5" style="stroke:#181818;stroke-width:0.5;" width="318" x="281.86" y="591.6094"/><ellipse cx="297.86" cy="609.1875" fill="#ADD1B2" rx="12" ry="12" style="stroke:#181818;stroke-width:1.0;"/><path d="M300.0006,604.1094 Q300.1881,603.8594 300.4069,603.7344 Q300.6256,603.5938 300.8756,603.5938 Q301.3131,603.5938 301.5944,603.9063 Q301.8756,604.2031 301.8756,604.9219 L301.8756,606.625 Q301.8756,607.3438 301.5944,607.6563 Q301.3131,607.9688 300.8756,607.9688 Q300.485,607.9688 300.235,607.7344 Q299.985,607.5156 299.8756,606.9063 Q299.8131,606.4844 299.5944,606.2656 Q299.2038,605.8281 298.485,605.5625 Q297.7663,605.2969 297.0475,605.2969 Q296.1413,605.2969 295.3913,605.6875 Q294.6413,606.0781 294.0631,606.9688 Q293.485,607.8438 293.485,609.0469 L293.485,610.3438 Q293.485,611.7969 294.5319,612.7656 Q295.5944,613.7344 297.4538,613.7344 Q298.5631,613.7344 299.3444,613.4219 Q299.7819,613.25 300.2975,612.7344 Q300.61,612.4219 300.7819,612.3281 Q300.9538,612.2344 301.1881,612.2344 Q301.5788,612.2344 301.8756,612.5469 Q302.1881,612.8438 302.1881,613.25 Q302.1881,613.6563 301.7819,614.125 Q301.1881,614.8125 300.2506,615.2031 Q298.985,615.7344 297.4694,615.7344 Q295.6881,615.7344 294.2663,615 Q293.11,614.4063 292.2975,613.1406 Q291.485,611.875 291.485,610.3906 L291.485,609.0313 Q291.485,607.4688 292.2038,606.125 Q292.9381,604.7656 294.2194,604.0313 Q295.5163,603.2969 296.9694,603.2969 Q297.8288,603.2969 298.5788,603.5 Q299.3444,603.7031 300.0006,604.1094 Z " fill="#000000"/><text fill="#000000" font-family="sans-serif" font-size="20" lengthAdjust="spacing" textLength="284" x="312.86" y="617.3711">JobOpeningManagementService</text><line style="stroke:#181818;stroke-width:0.5;" x1="282.86" x2="598.86" y1="626.7656" y2="626.7656"/><line style="stroke:#181818;stroke-width:0.5;" x1="282.86" x2="598.86" y1="634.7656" y2="634.7656"/><ellipse cx="292.86" cy="652.8438" fill="#84BE84" rx="3" ry="3" style="stroke:#038048;stroke-width:1.0;"/><text fill="#000000" font-family="sans-serif" font-size="20" lengthAdjust="spacing" textLength="180" x="302.86" y="659.5273">activeJobOpenings()</text></g><!--class JobOpeningDtoService--><g id="elem_JobOpeningDtoService"><rect codeLine="17" fill="#F1F1F1" height="76.3125" id="JobOpeningDtoService" rx="2.5" ry="2.5" style="stroke:#181818;stroke-width:0.5;" width="268" x="48.86" y="740.1094"/><ellipse cx="79.71" cy="757.6875" fill="#ADD1B2" rx="12" ry="12" style="stroke:#181818;stroke-width:1.0;"/><path d="M81.8506,752.6094 Q82.0381,752.3594 82.2569,752.2344 Q82.4756,752.0938 82.7256,752.0938 Q83.1631,752.0938 83.4444,752.4063 Q83.7256,752.7031 83.7256,753.4219 L83.7256,755.125 Q83.7256,755.8438 83.4444,756.1563 Q83.1631,756.4688 82.7256,756.4688 Q82.335,756.4688 82.085,756.2344 Q81.835,756.0156 81.7256,755.4063 Q81.6631,754.9844 81.4444,754.7656 Q81.0538,754.3281 80.335,754.0625 Q79.6163,753.7969 78.8975,753.7969 Q77.9913,753.7969 77.2413,754.1875 Q76.4913,754.5781 75.9131,755.4688 Q75.335,756.3438 75.335,757.5469 L75.335,758.8438 Q75.335,760.2969 76.3819,761.2656 Q77.4444,762.2344 79.3038,762.2344 Q80.4131,762.2344 81.1944,761.9219 Q81.6319,761.75 82.1475,761.2344 Q82.46,760.9219 82.6319,760.8281 Q82.8038,760.7344 83.0381,760.7344 Q83.4288,760.7344 83.7256,761.0469 Q84.0381,761.3438 84.0381,761.75 Q84.0381,762.1563 83.6319,762.625 Q83.0381,763.3125 82.1006,763.7031 Q80.835,764.2344 79.3194,764.2344 Q77.5381,764.2344 76.1163,763.5 Q74.96,762.9063 74.1475,761.6406 Q73.335,760.375 73.335,758.8906 L73.335,757.5313 Q73.335,755.9688 74.0538,754.625 Q74.7881,753.2656 76.0694,752.5313 Q77.3663,751.7969 78.8194,751.7969 Q79.6788,751.7969 80.4288,752 Q81.1944,752.2031 81.8506,752.6094 Z " fill="#000000"/><text fill="#000000" font-family="sans-serif" font-size="20" lengthAdjust="spacing" textLength="201" x="98.01" y="765.8711">JobOpeningDtoService</text><line style="stroke:#181818;stroke-width:0.5;" x1="49.86" x2="315.86" y1="775.2656" y2="775.2656"/><line style="stroke:#181818;stroke-width:0.5;" x1="49.86" x2="315.86" y1="783.2656" y2="783.2656"/><ellipse cx="59.86" cy="801.3438" fill="#84BE84" rx="3" ry="3" style="stroke:#038048;stroke-width:1.0;"/><text fill="#000000" font-family="sans-serif" font-size="20" lengthAdjust="spacing" textLength="241" x="69.86" y="808.0273">convertToDto(jobOpenings)</text></g><!--class RequirementSpecificationManagementService--><g id="elem_RequirementSpecificationManagementService"><rect codeLine="21" fill="#F1F1F1" height="76.3125" id="RequirementSpecificationManagementService" rx="2.5" ry="2.5" style="stroke:#181818;stroke-width:0.5;" width="435" x="904.36" y="740.1094"/><ellipse cx="920.36" cy="757.6875" fill="#ADD1B2" rx="12" ry="12" style="stroke:#181818;stroke-width:1.0;"/><path d="M922.5006,752.6094 Q922.6881,752.3594 922.9069,752.2344 Q923.1256,752.0938 923.3756,752.0938 Q923.8131,752.0938 924.0944,752.4063 Q924.3756,752.7031 924.3756,753.4219 L924.3756,755.125 Q924.3756,755.8438 924.0944,756.1563 Q923.8131,756.4688 923.3756,756.4688 Q922.985,756.4688 922.735,756.2344 Q922.485,756.0156 922.3756,755.4063 Q922.3131,754.9844 922.0944,754.7656 Q921.7038,754.3281 920.985,754.0625 Q920.2663,753.7969 919.5475,753.7969 Q918.6413,753.7969 917.8913,754.1875 Q917.1413,754.5781 916.5631,755.4688 Q915.985,756.3438 915.985,757.5469 L915.985,758.8438 Q915.985,760.2969 917.0319,761.2656 Q918.0944,762.2344 919.9538,762.2344 Q921.0631,762.2344 921.8444,761.9219 Q922.2819,761.75 922.7975,761.2344 Q923.11,760.9219 923.2819,760.8281 Q923.4538,760.7344 923.6881,760.7344 Q924.0788,760.7344 924.3756,761.0469 Q924.6881,761.3438 924.6881,761.75 Q924.6881,762.1563 924.2819,762.625 Q923.6881,763.3125 922.7506,763.7031 Q921.485,764.2344 919.9694,764.2344 Q918.1881,764.2344 916.7663,763.5 Q915.61,762.9063 914.7975,761.6406 Q913.985,760.375 913.985,758.8906 L913.985,757.5313 Q913.985,755.9688 914.7038,754.625 Q915.4381,753.2656 916.7194,752.5313 Q918.0163,751.7969 919.4694,751.7969 Q920.3288,751.7969 921.0788,752 Q921.8444,752.2031 922.5006,752.6094 Z " fill="#000000"/><text fill="#000000" font-family="sans-serif" font-size="20" lengthAdjust="spacing" textLength="401" x="935.36" y="765.8711">RequirementSpecificationManagementService</text><line style="stroke:#181818;stroke-width:0.5;" x1="905.36" x2="1338.36" y1="775.2656" y2="775.2656"/><line style="stroke:#181818;stroke-width:0.5;" x1="905.36" x2="1338.36" y1="783.2656" y2="783.2656"/><ellipse cx="915.36" cy="801.3438" fill="#84BE84" rx="3" ry="3" style="stroke:#038048;stroke-width:1.0;"/><text fill="#000000" font-family="sans-serif" font-size="20" lengthAdjust="spacing" textLength="322" x="925.36" y="808.0273">availableRequirementSpecifications()</text></g><!--class RequirementSpecificationDtoService--><g id="elem_RequirementSpecificationDtoService"><rect codeLine="24" fill="#F1F1F1" height="76.3125" id="RequirementSpecificationDtoService" rx="2.5" ry="2.5" style="stroke:#181818;stroke-width:0.5;" width="384" x="493.86" y="1049.6094"/><ellipse cx="524.26" cy="1067.1875" fill="#ADD1B2" rx="12" ry="12" style="stroke:#181818;stroke-width:1.0;"/><path d="M526.4006,1062.1094 Q526.5881,1061.8594 526.8069,1061.7344 Q527.0256,1061.5938 527.2756,1061.5938 Q527.7131,1061.5938 527.9944,1061.9063 Q528.2756,1062.2031 528.2756,1062.9219 L528.2756,1064.625 Q528.2756,1065.3438 527.9944,1065.6563 Q527.7131,1065.9688 527.2756,1065.9688 Q526.885,1065.9688 526.635,1065.7344 Q526.385,1065.5156 526.2756,1064.9063 Q526.2131,1064.4844 525.9944,1064.2656 Q525.6038,1063.8281 524.885,1063.5625 Q524.1663,1063.2969 523.4475,1063.2969 Q522.5413,1063.2969 521.7913,1063.6875 Q521.0413,1064.0781 520.4631,1064.9688 Q519.885,1065.8438 519.885,1067.0469 L519.885,1068.3438 Q519.885,1069.7969 520.9319,1070.7656 Q521.9944,1071.7344 523.8538,1071.7344 Q524.9631,1071.7344 525.7444,1071.4219 Q526.1819,1071.25 526.6975,1070.7344 Q527.01,1070.4219 527.1819,1070.3281 Q527.3538,1070.2344 527.5881,1070.2344 Q527.9788,1070.2344 528.2756,1070.5469 Q528.5881,1070.8438 528.5881,1071.25 Q528.5881,1071.6563 528.1819,1072.125 Q527.5881,1072.8125 526.6506,1073.2031 Q525.385,1073.7344 523.8694,1073.7344 Q522.0881,1073.7344 520.6663,1073 Q519.51,1072.4063 518.6975,1071.1406 Q517.885,1069.875 517.885,1068.3906 L517.885,1067.0313 Q517.885,1065.4688 518.6038,1064.125 Q519.3381,1062.7656 520.6194,1062.0313 Q521.9163,1061.2969 523.3694,1061.2969 Q524.2288,1061.2969 524.9788,1061.5 Q525.7444,1061.7031 526.4006,1062.1094 Z " fill="#000000"/><text fill="#000000" font-family="sans-serif" font-size="20" lengthAdjust="spacing" textLength="318" x="542.46" y="1075.3711">RequirementSpecificationDtoService</text><line style="stroke:#181818;stroke-width:0.5;" x1="494.86" x2="876.86" y1="1084.7656" y2="1084.7656"/><line style="stroke:#181818;stroke-width:0.5;" x1="494.86" x2="876.86" y1="1092.7656" y2="1092.7656"/><ellipse cx="504.86" cy="1110.8438" fill="#84BE84" rx="3" ry="3" style="stroke:#038048;stroke-width:1.0;"/><text fill="#000000" font-family="sans-serif" font-size="20" lengthAdjust="spacing" textLength="357" x="514.86" y="1117.5273">convertToDto(requirementSpecifications)</text></g><!--class SelectRequirementSpecificationUI--><g id="elem_SelectRequirementSpecificationUI"><rect codeLine="28" fill="#F1F1F1" height="51.1563" id="SelectRequirementSpecificationUI" rx="2.5" ry="2.5" style="stroke:#181818;stroke-width:0.5;" width="330" x="487.86" y="232.6094"/><ellipse cx="503.86" cy="250.1875" fill="#ADD1B2" rx="12" ry="12" style="stroke:#181818;stroke-width:1.0;"/><path d="M506.0006,245.1094 Q506.1881,244.8594 506.4069,244.7344 Q506.6256,244.5938 506.8756,244.5938 Q507.3131,244.5938 507.5944,244.9063 Q507.8756,245.2031 507.8756,245.9219 L507.8756,247.625 Q507.8756,248.3438 507.5944,248.6563 Q507.3131,248.9688 506.8756,248.9688 Q506.485,248.9688 506.235,248.7344 Q505.985,248.5156 505.8756,247.9063 Q505.8131,247.4844 505.5944,247.2656 Q505.2038,246.8281 504.485,246.5625 Q503.7663,246.2969 503.0475,246.2969 Q502.1413,246.2969 501.3913,246.6875 Q500.6413,247.0781 500.0631,247.9688 Q499.485,248.8438 499.485,250.0469 L499.485,251.3438 Q499.485,252.7969 500.5319,253.7656 Q501.5944,254.7344 503.4538,254.7344 Q504.5631,254.7344 505.3444,254.4219 Q505.7819,254.25 506.2975,253.7344 Q506.61,253.4219 506.7819,253.3281 Q506.9538,253.2344 507.1881,253.2344 Q507.5788,253.2344 507.8756,253.5469 Q508.1881,253.8438 508.1881,254.25 Q508.1881,254.6563 507.7819,255.125 Q507.1881,255.8125 506.2506,256.2031 Q504.985,256.7344 503.4694,256.7344 Q501.6881,256.7344 500.2663,256 Q499.11,255.4063 498.2975,254.1406 Q497.485,252.875 497.485,251.3906 L497.485,250.0313 Q497.485,248.4688 498.2038,247.125 Q498.9381,245.7656 500.2194,245.0313 Q501.5163,244.2969 502.9694,244.2969 Q503.8288,244.2969 504.5788,244.5 Q505.3444,244.7031 506.0006,245.1094 Z " fill="#000000"/><text fill="#000000" font-family="sans-serif" font-size="20" lengthAdjust="spacing" textLength="296" x="518.86" y="258.3711">SelectRequirementSpecificationUI</text><line style="stroke:#181818;stroke-width:0.5;" x1="488.86" x2="816.86" y1="267.7656" y2="267.7656"/><line style="stroke:#181818;stroke-width:0.5;" x1="488.86" x2="816.86" y1="275.7656" y2="275.7656"/></g><!--class SelectRequirementSpecificationController--><g id="elem_SelectRequirementSpecificationController"><rect codeLine="30" fill="#F1F1F1" height="126.625" id="SelectRequirementSpecificationController" rx="2.5" ry="2.5" style="stroke:#181818;stroke-width:0.5;" width="711" x="297.36" y="343.6094"/><ellipse cx="467.36" cy="361.1875" fill="#ADD1B2" rx="12" ry="12" style="stroke:#181818;stroke-width:1.0;"/><path d="M469.5006,356.1094 Q469.6881,355.8594 469.9069,355.7344 Q470.1256,355.5938 470.3756,355.5938 Q470.8131,355.5938 471.0944,355.9063 Q471.3756,356.2031 471.3756,356.9219 L471.3756,358.625 Q471.3756,359.3438 471.0944,359.6563 Q470.8131,359.9688 470.3756,359.9688 Q469.985,359.9688 469.735,359.7344 Q469.485,359.5156 469.3756,358.9063 Q469.3131,358.4844 469.0944,358.2656 Q468.7038,357.8281 467.985,357.5625 Q467.2663,357.2969 466.5475,357.2969 Q465.6413,357.2969 464.8913,357.6875 Q464.1413,358.0781 463.5631,358.9688 Q462.985,359.8438 462.985,361.0469 L462.985,362.3438 Q462.985,363.7969 464.0319,364.7656 Q465.0944,365.7344 466.9538,365.7344 Q468.0631,365.7344 468.8444,365.4219 Q469.2819,365.25 469.7975,364.7344 Q470.11,364.4219 470.2819,364.3281 Q470.4538,364.2344 470.6881,364.2344 Q471.0788,364.2344 471.3756,364.5469 Q471.6881,364.8438 471.6881,365.25 Q471.6881,365.6563 471.2819,366.125 Q470.6881,366.8125 469.7506,367.2031 Q468.485,367.7344 466.9694,367.7344 Q465.1881,367.7344 463.7663,367 Q462.61,366.4063 461.7975,365.1406 Q460.985,363.875 460.985,362.3906 L460.985,361.0313 Q460.985,359.4688 461.7038,358.125 Q462.4381,356.7656 463.7194,356.0313 Q465.0163,355.2969 466.4694,355.2969 Q467.3288,355.2969 468.0788,355.5 Q468.8444,355.7031 469.5006,356.1094 Z " fill="#000000"/><text fill="#000000" font-family="sans-serif" font-size="20" lengthAdjust="spacing" textLength="362" x="489.36" y="369.3711">SelectRequirementSpecificationController</text><line style="stroke:#181818;stroke-width:0.5;" x1="298.36" x2="1007.36" y1="378.7656" y2="378.7656"/><line style="stroke:#181818;stroke-width:0.5;" x1="298.36" x2="1007.36" y1="386.7656" y2="386.7656"/><ellipse cx="308.36" cy="404.8438" fill="#84BE84" rx="3" ry="3" style="stroke:#038048;stroke-width:1.0;"/><text fill="#000000" font-family="sans-serif" font-size="20" lengthAdjust="spacing" textLength="180" x="318.36" y="411.5273">activeJobOpenings()</text><ellipse cx="308.36" cy="430" fill="#84BE84" rx="3" ry="3" style="stroke:#038048;stroke-width:1.0;"/><text fill="#000000" font-family="sans-serif" font-size="20" lengthAdjust="spacing" textLength="322" x="318.36" y="436.6836">availableRequirementSpecifications()</text><ellipse cx="308.36" cy="455.1563" fill="#84BE84" rx="3" ry="3" style="stroke:#038048;stroke-width:1.0;"/><text fill="#000000" font-family="sans-serif" font-size="20" lengthAdjust="spacing" textLength="684" x="318.36" y="461.8398">updateRequirementSpecification(jobOpeningDto, requirementSpecificationDto)</text></g><!--class JobOpeningRepository--><g id="elem_JobOpeningRepository"><rect codeLine="36" fill="#F1F1F1" height="101.4688" id="JobOpeningRepository" rx="2.5" ry="2.5" style="stroke:#181818;stroke-width:0.5;" width="303" x="494.36" y="727.6094"/><ellipse cx="541.41" cy="745.1875" fill="#ADD1B2" rx="12" ry="12" style="stroke:#181818;stroke-width:1.0;"/><path d="M543.5506,740.1094 Q543.7381,739.8594 543.9569,739.7344 Q544.1756,739.5938 544.4256,739.5938 Q544.8631,739.5938 545.1444,739.9063 Q545.4256,740.2031 545.4256,740.9219 L545.4256,742.625 Q545.4256,743.3438 545.1444,743.6563 Q544.8631,743.9688 544.4256,743.9688 Q544.035,743.9688 543.785,743.7344 Q543.535,743.5156 543.4256,742.9063 Q543.3631,742.4844 543.1444,742.2656 Q542.7538,741.8281 542.035,741.5625 Q541.3163,741.2969 540.5975,741.2969 Q539.6913,741.2969 538.9413,741.6875 Q538.1913,742.0781 537.6131,742.9688 Q537.035,743.8438 537.035,745.0469 L537.035,746.3438 Q537.035,747.7969 538.0819,748.7656 Q539.1444,749.7344 541.0038,749.7344 Q542.1131,749.7344 542.8944,749.4219 Q543.3319,749.25 543.8475,748.7344 Q544.16,748.4219 544.3319,748.3281 Q544.5038,748.2344 544.7381,748.2344 Q545.1288,748.2344 545.4256,748.5469 Q545.7381,748.8438 545.7381,749.25 Q545.7381,749.6563 545.3319,750.125 Q544.7381,750.8125 543.8006,751.2031 Q542.535,751.7344 541.0194,751.7344 Q539.2381,751.7344 537.8163,751 Q536.66,750.4063 535.8475,749.1406 Q535.035,747.875 535.035,746.3906 L535.035,745.0313 Q535.035,743.4688 535.7538,742.125 Q536.4881,740.7656 537.7694,740.0313 Q539.0663,739.2969 540.5194,739.2969 Q541.3788,739.2969 542.1288,739.5 Q542.8944,739.7031 543.5506,740.1094 Z " fill="#000000"/><text fill="#000000" font-family="sans-serif" font-size="20" lengthAdjust="spacing" textLength="200" x="563.31" y="753.3711">JobOpeningRepository</text><line style="stroke:#181818;stroke-width:0.5;" x1="495.36" x2="796.36" y1="762.7656" y2="762.7656"/><line style="stroke:#181818;stroke-width:0.5;" x1="495.36" x2="796.36" y1="770.7656" y2="770.7656"/><ellipse cx="505.36" cy="788.8438" fill="#84BE84" rx="3" ry="3" style="stroke:#038048;stroke-width:1.0;"/><text fill="#000000" font-family="sans-serif" font-size="20" lengthAdjust="spacing" textLength="276" x="515.36" y="795.5273">findAllJobOpeningsNotStarted()</text><ellipse cx="505.36" cy="814" fill="#84BE84" rx="3" ry="3" style="stroke:#038048;stroke-width:1.0;"/><text fill="#000000" font-family="sans-serif" font-size="20" lengthAdjust="spacing" textLength="212" x="515.36" y="820.6836">ofIdentity(jobReference)</text></g><!--class RequirementSpecificationRepository--><g id="elem_RequirementSpecificationRepository"><rect codeLine="40" fill="#F1F1F1" height="101.4688" id="RequirementSpecificationRepository" rx="2.5" ry="2.5" style="stroke:#181818;stroke-width:0.5;" width="351" x="1055.36" y="888.6094"/><ellipse cx="1071.36" cy="906.1875" fill="#ADD1B2" rx="12" ry="12" style="stroke:#181818;stroke-width:1.0;"/><path d="M1073.5006,901.1094 Q1073.6881,900.8594 1073.9069,900.7344 Q1074.1256,900.5938 1074.3756,900.5938 Q1074.8131,900.5938 1075.0944,900.9063 Q1075.3756,901.2031 1075.3756,901.9219 L1075.3756,903.625 Q1075.3756,904.3438 1075.0944,904.6563 Q1074.8131,904.9688 1074.3756,904.9688 Q1073.985,904.9688 1073.735,904.7344 Q1073.485,904.5156 1073.3756,903.9063 Q1073.3131,903.4844 1073.0944,903.2656 Q1072.7038,902.8281 1071.985,902.5625 Q1071.2663,902.2969 1070.5475,902.2969 Q1069.6413,902.2969 1068.8913,902.6875 Q1068.1413,903.0781 1067.5631,903.9688 Q1066.985,904.8438 1066.985,906.0469 L1066.985,907.3438 Q1066.985,908.7969 1068.0319,909.7656 Q1069.0944,910.7344 1070.9538,910.7344 Q1072.0631,910.7344 1072.8444,910.4219 Q1073.2819,910.25 1073.7975,909.7344 Q1074.11,909.4219 1074.2819,909.3281 Q1074.4538,909.2344 1074.6881,909.2344 Q1075.0788,909.2344 1075.3756,909.5469 Q1075.6881,909.8438 1075.6881,910.25 Q1075.6881,910.6563 1075.2819,911.125 Q1074.6881,911.8125 1073.7506,912.2031 Q1072.485,912.7344 1070.9694,912.7344 Q1069.1881,912.7344 1067.7663,912 Q1066.61,911.4063 1065.7975,910.1406 Q1064.985,908.875 1064.985,907.3906 L1064.985,906.0313 Q1064.985,904.4688 1065.7038,903.125 Q1066.4381,901.7656 1067.7194,901.0313 Q1069.0163,900.2969 1070.4694,900.2969 Q1071.3288,900.2969 1072.0788,900.5 Q1072.8444,900.7031 1073.5006,901.1094 Z " fill="#000000"/><text fill="#000000" font-family="sans-serif" font-size="20" lengthAdjust="spacing" textLength="317" x="1086.36" y="914.3711">RequirementSpecificationRepository</text><line style="stroke:#181818;stroke-width:0.5;" x1="1056.36" x2="1405.36" y1="923.7656" y2="923.7656"/><line style="stroke:#181818;stroke-width:0.5;" x1="1056.36" x2="1405.36" y1="931.7656" y2="931.7656"/><ellipse cx="1066.36" cy="949.8438" fill="#84BE84" rx="3" ry="3" style="stroke:#038048;stroke-width:1.0;"/><text fill="#000000" font-family="sans-serif" font-size="20" lengthAdjust="spacing" textLength="322" x="1076.36" y="956.5273">availableRequirementSpecifications()</text><ellipse cx="1066.36" cy="975" fill="#84BE84" rx="3" ry="3" style="stroke:#038048;stroke-width:1.0;"/><text fill="#000000" font-family="sans-serif" font-size="20" lengthAdjust="spacing" textLength="250" x="1076.36" y="981.6836">ofIdentity(requirementName)</text></g><!--class DomainRepository--><g id="elem_DomainRepository"><rect codeLine="44" fill="#F1F1F1" height="76.3125" id="DomainRepository" rx="2.5" ry="2.5" style="stroke:#181818;stroke-width:0.5;" width="198" x="924.86" y="1185.6094"/><ellipse cx="940.86" cy="1203.1875" fill="#B4A7E5" rx="12" ry="12" style="stroke:#181818;stroke-width:1.0;"/><path d="M941.86,1199.3594 L941.86,1207.1875 L943.8913,1207.1875 Q944.61,1207.1875 944.9069,1207.4688 Q945.2194,1207.7344 945.2194,1208.1875 Q945.2194,1208.625 944.9069,1208.9063 Q944.61,1209.1875 943.8913,1209.1875 L937.8444,1209.1875 Q937.11,1209.1875 936.7975,1208.9063 Q936.5006,1208.625 936.5006,1208.1875 Q936.5006,1207.7344 936.7975,1207.4688 Q937.11,1207.1875 937.8444,1207.1875 L939.86,1207.1875 L939.86,1199.3594 L937.8444,1199.3594 Q937.11,1199.3594 936.7975,1199.0781 Q936.5006,1198.7969 936.5006,1198.3438 Q936.5006,1197.8906 936.7975,1197.625 Q937.11,1197.3438 937.8444,1197.3438 L943.8913,1197.3438 Q944.61,1197.3438 944.9069,1197.625 Q945.2194,1197.8906 945.2194,1198.3438 Q945.2194,1198.7969 944.9069,1199.0781 Q944.61,1199.3594 943.8913,1199.3594 L941.86,1199.3594 Z " fill="#000000"/><text fill="#000000" font-family="sans-serif" font-size="20" font-style="italic" lengthAdjust="spacing" textLength="164" x="955.86" y="1211.3711">DomainRepository</text><line style="stroke:#181818;stroke-width:0.5;" x1="925.86" x2="1121.86" y1="1220.7656" y2="1220.7656"/><line style="stroke:#181818;stroke-width:0.5;" x1="925.86" x2="1121.86" y1="1228.7656" y2="1228.7656"/><ellipse cx="935.86" cy="1246.8438" fill="#84BE84" rx="3" ry="3" style="stroke:#038048;stroke-width:1.0;"/><text fill="#000000" font-family="sans-serif" font-size="20" lengthAdjust="spacing" textLength="102" x="945.86" y="1253.5273">save(entity)</text></g><!--class JobOpening--><g id="elem_JobOpening"><rect codeLine="47" fill="#F1F1F1" height="51.1563" id="JobOpening" rx="2.5" ry="2.5" style="stroke:#181818;stroke-width:0.5;" width="139" x="222.36" y="913.6094"/><ellipse cx="238.36" cy="931.1875" fill="#ADD1B2" rx="12" ry="12" style="stroke:#181818;stroke-width:1.0;"/><path d="M240.5006,926.1094 Q240.6881,925.8594 240.9069,925.7344 Q241.1256,925.5938 241.3756,925.5938 Q241.8131,925.5938 242.0944,925.9063 Q242.3756,926.2031 242.3756,926.9219 L242.3756,928.625 Q242.3756,929.3438 242.0944,929.6563 Q241.8131,929.9688 241.3756,929.9688 Q240.985,929.9688 240.735,929.7344 Q240.485,929.5156 240.3756,928.9063 Q240.3131,928.4844 240.0944,928.2656 Q239.7038,927.8281 238.985,927.5625 Q238.2663,927.2969 237.5475,927.2969 Q236.6413,927.2969 235.8913,927.6875 Q235.1413,928.0781 234.5631,928.9688 Q233.985,929.8438 233.985,931.0469 L233.985,932.3438 Q233.985,933.7969 235.0319,934.7656 Q236.0944,935.7344 237.9538,935.7344 Q239.0631,935.7344 239.8444,935.4219 Q240.2819,935.25 240.7975,934.7344 Q241.11,934.4219 241.2819,934.3281 Q241.4538,934.2344 241.6881,934.2344 Q242.0788,934.2344 242.3756,934.5469 Q242.6881,934.8438 242.6881,935.25 Q242.6881,935.6563 242.2819,936.125 Q241.6881,936.8125 240.7506,937.2031 Q239.485,937.7344 237.9694,937.7344 Q236.1881,937.7344 234.7663,937 Q233.61,936.4063 232.7975,935.1406 Q231.985,933.875 231.985,932.3906 L231.985,931.0313 Q231.985,929.4688 232.7038,928.125 Q233.4381,926.7656 234.7194,926.0313 Q236.0163,925.2969 237.4694,925.2969 Q238.3288,925.2969 239.0788,925.5 Q239.8444,925.7031 240.5006,926.1094 Z " fill="#000000"/><text fill="#000000" font-family="sans-serif" font-size="20" lengthAdjust="spacing" textLength="105" x="253.36" y="939.3711">JobOpening</text><line style="stroke:#181818;stroke-width:0.5;" x1="223.36" x2="360.36" y1="948.7656" y2="948.7656"/><line style="stroke:#181818;stroke-width:0.5;" x1="223.36" x2="360.36" y1="956.7656" y2="956.7656"/></g><!--class RequirementSpecification--><g id="elem_RequirementSpecification"><rect codeLine="49" fill="#F1F1F1" height="51.1563" id="RequirementSpecification" rx="2.5" ry="2.5" style="stroke:#181818;stroke-width:0.5;" width="256" x="351.86" y="1198.1094"/><ellipse cx="367.86" cy="1215.6875" fill="#ADD1B2" rx="12" ry="12" style="stroke:#181818;stroke-width:1.0;"/><path d="M370.0006,1210.6094 Q370.1881,1210.3594 370.4069,1210.2344 Q370.6256,1210.0938 370.8756,1210.0938 Q371.3131,1210.0938 371.5944,1210.4063 Q371.8756,1210.7031 371.8756,1211.4219 L371.8756,1213.125 Q371.8756,1213.8438 371.5944,1214.1563 Q371.3131,1214.4688 370.8756,1214.4688 Q370.485,1214.4688 370.235,1214.2344 Q369.985,1214.0156 369.8756,1213.4063 Q369.8131,1212.9844 369.5944,1212.7656 Q369.2038,1212.3281 368.485,1212.0625 Q367.7663,1211.7969 367.0475,1211.7969 Q366.1413,1211.7969 365.3913,1212.1875 Q364.6413,1212.5781 364.0631,1213.4688 Q363.485,1214.3438 363.485,1215.5469 L363.485,1216.8438 Q363.485,1218.2969 364.5319,1219.2656 Q365.5944,1220.2344 367.4538,1220.2344 Q368.5631,1220.2344 369.3444,1219.9219 Q369.7819,1219.75 370.2975,1219.2344 Q370.61,1218.9219 370.7819,1218.8281 Q370.9538,1218.7344 371.1881,1218.7344 Q371.5788,1218.7344 371.8756,1219.0469 Q372.1881,1219.3438 372.1881,1219.75 Q372.1881,1220.1563 371.7819,1220.625 Q371.1881,1221.3125 370.2506,1221.7031 Q368.985,1222.2344 367.4694,1222.2344 Q365.6881,1222.2344 364.2663,1221.5 Q363.11,1220.9063 362.2975,1219.6406 Q361.485,1218.375 361.485,1216.8906 L361.485,1215.5313 Q361.485,1213.9688 362.2038,1212.625 Q362.9381,1211.2656 364.2194,1210.5313 Q365.5163,1209.7969 366.9694,1209.7969 Q367.8288,1209.7969 368.5788,1210 Q369.3444,1210.2031 370.0006,1210.6094 Z " fill="#000000"/><text fill="#000000" font-family="sans-serif" font-size="20" lengthAdjust="spacing" textLength="222" x="382.86" y="1223.8711">RequirementSpecification</text><line style="stroke:#181818;stroke-width:0.5;" x1="352.86" x2="606.86" y1="1233.2656" y2="1233.2656"/><line style="stroke:#181818;stroke-width:0.5;" x1="352.86" x2="606.86" y1="1241.2656" y2="1241.2656"/></g><!--class DTOable--><g id="elem_DTOable"><rect codeLine="51" fill="#F1F1F1" height="76.3125" id="DTOable" rx="2.5" ry="2.5" style="stroke:#181818;stroke-width:0.5;" width="114" x="276.86" y="1432.6094"/><ellipse cx="292.86" cy="1450.1875" fill="#B4A7E5" rx="12" ry="12" style="stroke:#181818;stroke-width:1.0;"/><path d="M293.86,1446.3594 L293.86,1454.1875 L295.8913,1454.1875 Q296.61,1454.1875 296.9069,1454.4688 Q297.2194,1454.7344 297.2194,1455.1875 Q297.2194,1455.625 296.9069,1455.9063 Q296.61,1456.1875 295.8913,1456.1875 L289.8444,1456.1875 Q289.11,1456.1875 288.7975,1455.9063 Q288.5006,1455.625 288.5006,1455.1875 Q288.5006,1454.7344 288.7975,1454.4688 Q289.11,1454.1875 289.8444,1454.1875 L291.86,1454.1875 L291.86,1446.3594 L289.8444,1446.3594 Q289.11,1446.3594 288.7975,1446.0781 Q288.5006,1445.7969 288.5006,1445.3438 Q288.5006,1444.8906 288.7975,1444.625 Q289.11,1444.3438 289.8444,1444.3438 L295.8913,1444.3438 Q296.61,1444.3438 296.9069,1444.625 Q297.2194,1444.8906 297.2194,1445.3438 Q297.2194,1445.7969 296.9069,1446.0781 Q296.61,1446.3594 295.8913,1446.3594 L293.86,1446.3594 Z " fill="#000000"/><text fill="#000000" font-family="sans-serif" font-size="20" font-style="italic" lengthAdjust="spacing" textLength="80" x="307.86" y="1458.3711">DTOable</text><line style="stroke:#181818;stroke-width:0.5;" x1="277.86" x2="389.86" y1="1467.7656" y2="1467.7656"/><line style="stroke:#181818;stroke-width:0.5;" x1="277.86" x2="389.86" y1="1475.7656" y2="1475.7656"/><ellipse cx="287.86" cy="1493.8438" fill="#84BE84" rx="3" ry="3" style="stroke:#038048;stroke-width:1.0;"/><text fill="#000000" font-family="sans-serif" font-size="20" lengthAdjust="spacing" textLength="62" x="297.86" y="1500.5273">toDto()</text></g><!--class JobOpeningDto--><g id="elem_JobOpeningDto"><rect fill="#F1F1F1" height="51.1563" id="JobOpeningDto" rx="2.5" ry="2.5" style="stroke:#181818;stroke-width:0.5;" width="170" x="75.86" y="1062.1094"/><ellipse cx="91.86" cy="1079.6875" fill="#ADD1B2" rx="12" ry="12" style="stroke:#181818;stroke-width:1.0;"/><path d="M94.0006,1074.6094 Q94.1881,1074.3594 94.4069,1074.2344 Q94.6256,1074.0938 94.8756,1074.0938 Q95.3131,1074.0938 95.5944,1074.4063 Q95.8756,1074.7031 95.8756,1075.4219 L95.8756,1077.125 Q95.8756,1077.8438 95.5944,1078.1563 Q95.3131,1078.4688 94.8756,1078.4688 Q94.485,1078.4688 94.235,1078.2344 Q93.985,1078.0156 93.8756,1077.4063 Q93.8131,1076.9844 93.5944,1076.7656 Q93.2038,1076.3281 92.485,1076.0625 Q91.7663,1075.7969 91.0475,1075.7969 Q90.1413,1075.7969 89.3913,1076.1875 Q88.6413,1076.5781 88.0631,1077.4688 Q87.485,1078.3438 87.485,1079.5469 L87.485,1080.8438 Q87.485,1082.2969 88.5319,1083.2656 Q89.5944,1084.2344 91.4538,1084.2344 Q92.5631,1084.2344 93.3444,1083.9219 Q93.7819,1083.75 94.2975,1083.2344 Q94.61,1082.9219 94.7819,1082.8281 Q94.9538,1082.7344 95.1881,1082.7344 Q95.5788,1082.7344 95.8756,1083.0469 Q96.1881,1083.3438 96.1881,1083.75 Q96.1881,1084.1563 95.7819,1084.625 Q95.1881,1085.3125 94.2506,1085.7031 Q92.985,1086.2344 91.4694,1086.2344 Q89.6881,1086.2344 88.2663,1085.5 Q87.11,1084.9063 86.2975,1083.6406 Q85.485,1082.375 85.485,1080.8906 L85.485,1079.5313 Q85.485,1077.9688 86.2038,1076.625 Q86.9381,1075.2656 88.2194,1074.5313 Q89.5163,1073.7969 90.9694,1073.7969 Q91.8288,1073.7969 92.5788,1074 Q93.3444,1074.2031 94.0006,1074.6094 Z " fill="#000000"/><text fill="#000000" font-family="sans-serif" font-size="20" lengthAdjust="spacing" textLength="136" x="106.86" y="1087.8711">JobOpeningDto</text><line style="stroke:#181818;stroke-width:0.5;" x1="76.86" x2="244.86" y1="1097.2656" y2="1097.2656"/><line style="stroke:#181818;stroke-width:0.5;" x1="76.86" x2="244.86" y1="1105.2656" y2="1105.2656"/></g><!--class RequirementSpecificationDto--><g id="elem_RequirementSpecificationDto"><rect fill="#F1F1F1" height="51.1563" id="RequirementSpecificationDto" rx="2.5" ry="2.5" style="stroke:#181818;stroke-width:0.5;" width="287" x="510.36" y="1321.6094"/><ellipse cx="526.36" cy="1339.1875" fill="#ADD1B2" rx="12" ry="12" style="stroke:#181818;stroke-width:1.0;"/><path d="M528.5006,1334.1094 Q528.6881,1333.8594 528.9069,1333.7344 Q529.1256,1333.5938 529.3756,1333.5938 Q529.8131,1333.5938 530.0944,1333.9063 Q530.3756,1334.2031 530.3756,1334.9219 L530.3756,1336.625 Q530.3756,1337.3438 530.0944,1337.6563 Q529.8131,1337.9688 529.3756,1337.9688 Q528.985,1337.9688 528.735,1337.7344 Q528.485,1337.5156 528.3756,1336.9063 Q528.3131,1336.4844 528.0944,1336.2656 Q527.7038,1335.8281 526.985,1335.5625 Q526.2663,1335.2969 525.5475,1335.2969 Q524.6413,1335.2969 523.8913,1335.6875 Q523.1413,1336.0781 522.5631,1336.9688 Q521.985,1337.8438 521.985,1339.0469 L521.985,1340.3438 Q521.985,1341.7969 523.0319,1342.7656 Q524.0944,1343.7344 525.9538,1343.7344 Q527.0631,1343.7344 527.8444,1343.4219 Q528.2819,1343.25 528.7975,1342.7344 Q529.11,1342.4219 529.2819,1342.3281 Q529.4538,1342.2344 529.6881,1342.2344 Q530.0788,1342.2344 530.3756,1342.5469 Q530.6881,1342.8438 530.6881,1343.25 Q530.6881,1343.6563 530.2819,1344.125 Q529.6881,1344.8125 528.7506,1345.2031 Q527.485,1345.7344 525.9694,1345.7344 Q524.1881,1345.7344 522.7663,1345 Q521.61,1344.4063 520.7975,1343.1406 Q519.985,1341.875 519.985,1340.3906 L519.985,1339.0313 Q519.985,1337.4688 520.7038,1336.125 Q521.4381,1334.7656 522.7194,1334.0313 Q524.0163,1333.2969 525.4694,1333.2969 Q526.3288,1333.2969 527.0788,1333.5 Q527.8444,1333.7031 528.5006,1334.1094 Z " fill="#000000"/><text fill="#000000" font-family="sans-serif" font-size="20" lengthAdjust="spacing" textLength="253" x="541.36" y="1347.3711">RequirementSpecificationDto</text><line style="stroke:#181818;stroke-width:0.5;" x1="511.36" x2="796.36" y1="1356.7656" y2="1356.7656"/><line style="stroke:#181818;stroke-width:0.5;" x1="511.36" x2="796.36" y1="1364.7656" y2="1364.7656"/></g><!--reverse link AbstractUI to SelectRequirementSpecificationUI--><g id="link_AbstractUI_SelectRequirementSpecificationUI"><path codeLine="56" d="M652.86,193.2594 C652.86,207.6094 652.86,221.4594 652.86,232.5694 " fill="none" id="AbstractUI-backto-SelectRequirementSpecificationUI" style="stroke:#181818;stroke-width:1.0;"/><polygon fill="none" points="645.86,192.8794,652.86,172.8794,659.86,192.8794,645.86,192.8794" style="stroke:#181818;stroke-width:1.0;"/></g><!--link SelectRequirementSpecificationUI to SelectRequirementSpecificationController--><g id="link_SelectRequirementSpecificationUI_SelectRequirementSpecificationController"><path codeLine="57" d="M652.86,283.7094 C652.86,298.6594 652.86,318.5294 652.86,337.9094 " fill="none" id="SelectRequirementSpecificationUI-to-SelectRequirementSpecificationController" style="stroke:#181818;stroke-width:1.0;stroke-dasharray:7.0,7.0;"/><polygon fill="#181818" points="652.86,343.3594,656.86,334.3594,652.86,338.3594,648.86,334.3594,652.86,343.3594" style="stroke:#181818;stroke-width:1.0;"/></g><!--link SelectRequirementSpecificationController to AuthorizationService--><g id="link_SelectRequirementSpecificationController_AuthorizationService"><path codeLine="59" d="M1008.56,407.1094 C1018.56,407.1094 1028.56,407.1094 1038.56,407.1094 " fill="none" id="SelectRequirementSpecificationController-to-AuthorizationService" style="stroke:#181818;stroke-width:1.0;stroke-dasharray:7.0,7.0;"/><polygon fill="#181818" points="1043.79,407.1094,1034.79,403.1094,1038.79,407.1094,1034.79,411.1094,1043.79,407.1094" style="stroke:#181818;stroke-width:1.0;"/></g><!--link SelectRequirementSpecificationController to JobOpeningManagementService--><g id="link_SelectRequirementSpecificationController_JobOpeningManagementService"><path codeLine="60" d="M592.68,470.7094 C556.68,508.1494 511.96,554.6594 480.4,587.4794 " fill="none" id="SelectRequirementSpecificationController-to-JobOpeningManagementService" style="stroke:#181818;stroke-width:1.0;stroke-dasharray:7.0,7.0;"/><polygon fill="#181818" points="476.62,591.4194,485.7316,587.6805,480.0761,587.8062,479.9504,582.1507,476.62,591.4194" style="stroke:#181818;stroke-width:1.0;"/></g><!--link SelectRequirementSpecificationController to RequirementSpecificationManagementService--><g id="link_SelectRequirementSpecificationController_RequirementSpecificationManagementService"><path codeLine="61" d="M732.42,470.7094 C828.96,546.6594 988.91,672.4994 1070.52,736.7194 " fill="none" id="SelectRequirementSpecificationController-to-RequirementSpecificationManagementService" style="stroke:#181818;stroke-width:1.0;stroke-dasharray:7.0,7.0;"/><polygon fill="#181818" points="1074.82,740.0994,1070.2326,731.3841,1070.8949,737.0021,1065.2769,737.6644,1074.82,740.0994" style="stroke:#181818;stroke-width:1.0;"/></g><!--link SelectRequirementSpecificationController to JobOpeningRepository--><g id="link_SelectRequirementSpecificationController_JobOpeningRepository"><path codeLine="62" d="M651.67,470.7094 C650.33,541.3494 648.17,655.1394 646.9,722.3694 " fill="none" id="SelectRequirementSpecificationController-to-JobOpeningRepository" style="stroke:#181818;stroke-width:1.0;stroke-dasharray:7.0,7.0;"/><polygon fill="#181818" points="646.8,727.5294,650.9792,718.6112,646.9,722.5304,642.9808,718.4512,646.8,727.5294" style="stroke:#181818;stroke-width:1.0;"/></g><!--link SelectRequirementSpecificationController to RequirementSpecificationRepository--><g id="link_SelectRequirementSpecificationController_RequirementSpecificationRepository"><path codeLine="63" d="M971.7,470.6194 C1115.13,516.3594 1271.17,594.6094 1356.86,727.6094 C1381.17,765.3394 1375.48,787.7594 1356.86,828.6094 C1347.02,850.1794 1330.61,869.1494 1312.82,884.9794 " fill="none" id="SelectRequirementSpecificationController-to-RequirementSpecificationRepository" style="stroke:#181818;stroke-width:1.0;stroke-dasharray:7.0,7.0;"/><polygon fill="#181818" points="1308.76,888.5094,1318.1735,885.6134,1312.53,885.2249,1312.9184,879.5814,1308.76,888.5094" style="stroke:#181818;stroke-width:1.0;"/></g><!--link SelectRequirementSpecificationController to JobOpening--><g id="link_SelectRequirementSpecificationController_JobOpening"><path codeLine="64" d="M388.68,470.6594 C255.29,517.3894 106.12,596.5394 30.86,727.6094 C8.51,766.5394 6,791.2294 30.86,828.6094 C72.01,890.4994 155.64,917.4794 217.19,929.1994 " fill="none" id="SelectRequirementSpecificationController-to-JobOpening" style="stroke:#181818;stroke-width:1.0;"/><polygon fill="#181818" points="222.33,930.1494,214.2135,924.5707,217.4143,929.2348,212.7502,932.4357,222.33,930.1494" style="stroke:#181818;stroke-width:1.0;"/></g><!--link JobOpeningManagementService to JobOpeningRepository--><g id="link_JobOpeningManagementService_JobOpeningRepository"><path codeLine="66" d="M492.85,667.7694 C516.95,684.9894 546.01,705.7494 572.3,724.5394 " fill="none" id="JobOpeningManagementService-to-JobOpeningRepository" style="stroke:#181818;stroke-width:1.0;"/><polygon fill="#181818" points="576.5,727.5394,571.5098,719.0483,572.4342,724.6291,566.8534,725.5536,576.5,727.5394" style="stroke:#181818;stroke-width:1.0;"/></g><!--link JobOpeningManagementService to JobOpeningDtoService--><g id="link_JobOpeningManagementService_JobOpeningDtoService"><path codeLine="67" d="M375.42,667.7694 C337.98,689.0294 291.01,715.6994 252.84,737.3694 " fill="none" id="JobOpeningManagementService-to-JobOpeningDtoService" style="stroke:#181818;stroke-width:1.0;stroke-dasharray:7.0,7.0;"/><polygon fill="#181818" points="248.23,739.9894,258.0305,739.0145,252.5756,737.5164,254.0737,732.0615,248.23,739.9894" style="stroke:#181818;stroke-width:1.0;"/></g><!--link JobOpeningDtoService to JobOpening--><g id="link_JobOpeningDtoService_JobOpening"><path codeLine="68" d="M208.41,816.3894 C227.81,844.6794 254.08,883.0094 271.93,909.0494 " fill="none" id="JobOpeningDtoService-to-JobOpening" style="stroke:#181818;stroke-width:1.0;"/><polygon fill="#181818" points="274.94,913.4394,273.1531,903.754,272.114,909.3146,266.5534,908.2755,274.94,913.4394" style="stroke:#181818;stroke-width:1.0;"/></g><!--link JobOpeningManagementService to JobOpening--><g id="link_JobOpeningManagementService_JobOpening"><path codeLine="69" d="M422.89,667.6994 C392.92,729.5394 333.36,852.4494 306.09,908.7294 " fill="none" id="JobOpeningManagementService-to-JobOpening" style="stroke:#181818;stroke-width:1.0;"/><polygon fill="#181818" points="303.87,913.3194,311.3838,906.9521,306.0429,908.8162,304.1788,903.4754,303.87,913.3194" style="stroke:#181818;stroke-width:1.0;"/></g><!--link JobOpeningManagementService to RequirementSpecification--><g id="link_JobOpeningManagementService_RequirementSpecification"><path codeLine="70" d="M443.3,667.6394 C450.47,776.4394 471.36,1093.6694 477.89,1192.7094 " fill="none" id="JobOpeningManagementService-to-RequirementSpecification" style="stroke:#181818;stroke-width:1.0;stroke-dasharray:7.0,7.0;"/><polygon fill="#181818" points="478.23,1197.8094,481.6295,1188.5658,477.9012,1192.8202,473.6468,1189.0919,478.23,1197.8094" style="stroke:#181818;stroke-width:1.0;"/></g><!--link JobOpeningManagementService to RequirementSpecificationRepository--><g id="link_JobOpeningManagementService_RequirementSpecificationRepository"><path codeLine="71" d="M600.27,647.0294 C670.8,660.2894 751.86,684.2694 814.86,727.6094 C860.28,758.8594 842.31,796.1394 886.86,828.6094 C934.8,863.5494 994.3,887.6194 1050.28,904.0794 " fill="none" id="JobOpeningManagementService-to-RequirementSpecificationRepository" style="stroke:#181818;stroke-width:1.0;"/><polygon fill="#181818" points="1055.34,905.5494,1047.8026,899.21,1050.5362,904.1626,1045.5837,906.8962,1055.34,905.5494" style="stroke:#181818;stroke-width:1.0;"/></g><!--link JobOpeningDtoService to JobOpeningDto--><g id="link_JobOpeningDtoService_JobOpeningDto"><path codeLine="72" d="M180.21,816.1994 C175.8,877.7894 167.06,999.9694 163.01,1056.5494 " fill="none" id="JobOpeningDtoService-to-JobOpeningDto" style="stroke:#181818;stroke-width:1.0;"/><polygon fill="#181818" points="162.63,1061.8194,167.2628,1053.1282,162.9873,1056.8322,159.2833,1052.5566,162.63,1061.8194" style="stroke:#181818;stroke-width:1.0;"/></g><!--link RequirementSpecificationManagementService to RequirementSpecificationRepository--><g id="link_RequirementSpecificationManagementService_RequirementSpecificationRepository"><path codeLine="74" d="M1147.41,816.3894 C1161.28,836.6094 1178.66,861.9594 1193.96,884.2894 " fill="none" id="RequirementSpecificationManagementService-to-RequirementSpecificationRepository" style="stroke:#181818;stroke-width:1.0;"/><polygon fill="#181818" points="1196.79,888.4194,1195.0031,878.734,1193.964,884.2946,1188.4034,883.2555,1196.79,888.4194" style="stroke:#181818;stroke-width:1.0;"/></g><!--link RequirementSpecificationManagementService to RequirementSpecificationDtoService--><g id="link_RequirementSpecificationManagementService_RequirementSpecificationDtoService"><path codeLine="75" d="M1069.27,816.1994 C986.86,874.3194 827.94,986.3994 742.88,1046.3894 " fill="none" id="RequirementSpecificationManagementService-to-RequirementSpecificationDtoService" style="stroke:#181818;stroke-width:1.0;stroke-dasharray:7.0,7.0;"/><polygon fill="#181818" points="738.64,1049.3894,748.3021,1047.4803,742.7288,1046.5116,743.6976,1040.9383,738.64,1049.3894" style="stroke:#181818;stroke-width:1.0;"/></g><!--link RequirementSpecificationDtoService to RequirementSpecification--><g id="link_RequirementSpecificationDtoService_RequirementSpecification"><path codeLine="76" d="M628.75,1125.7594 C594.93,1147.7594 552.81,1175.1494 522.01,1195.1894 " fill="none" id="RequirementSpecificationDtoService-to-RequirementSpecification" style="stroke:#181818;stroke-width:1.0;"/><polygon fill="#181818" points="517.55,1198.0894,527.2739,1196.5254,521.7386,1195.3589,522.9051,1189.8236,517.55,1198.0894" style="stroke:#181818;stroke-width:1.0;"/></g><!--link RequirementSpecificationDtoService to RequirementSpecificationDto--><g id="link_RequirementSpecificationDtoService_RequirementSpecificationDto"><path codeLine="77" d="M681.24,1125.7794 C674.84,1177.2494 663.42,1269.1994 657.55,1316.3794 " fill="none" id="RequirementSpecificationDtoService-to-RequirementSpecificationDto" style="stroke:#181818;stroke-width:1.0;"/><polygon fill="#181818" points="656.93,1321.3594,662.0064,1312.9196,657.5449,1316.3973,654.0672,1311.9358,656.93,1321.3594" style="stroke:#181818;stroke-width:1.0;"/></g><!--link JobOpeningRepository to DomainRepository--><g id="link_JobOpeningRepository_DomainRepository"><path codeLine="79" d="M694.74,829.0494 C746.16,882.2994 828.65,969.7694 894.86,1049.6094 C926.98,1088.3394 960.91,1134.0494 985.9,1168.7594 " fill="none" id="JobOpeningRepository-to-DomainRepository" style="stroke:#181818;stroke-width:1.0;stroke-dasharray:7.0,7.0;"/><polygon fill="none" points="991.8,1164.9794,997.75,1185.3194,980.42,1173.1294,991.8,1164.9794" style="stroke:#181818;stroke-width:1.0;"/></g><!--link RequirementSpecificationRepository to DomainRepository--><g id="link_RequirementSpecificationRepository_DomainRepository"><path codeLine="80" d="M1194.57,989.6394 C1157.79,1039.8294 1101.08,1117.2294 1063.23,1168.8694 " fill="none" id="RequirementSpecificationRepository-to-DomainRepository" style="stroke:#181818;stroke-width:1.0;stroke-dasharray:7.0,7.0;"/><polygon fill="none" points="1068.65,1173.3294,1051.18,1185.3194,1057.36,1165.0494,1068.65,1173.3294" style="stroke:#181818;stroke-width:1.0;"/></g><!--link JobOpening to DTOable--><g id="link_JobOpening_DTOable"><path codeLine="82" d="M293.83,964.9394 C300.18,1045.0194 320.24,1297.9394 329.32,1412.3694 " fill="none" id="JobOpening-to-DTOable" style="stroke:#181818;stroke-width:1.0;stroke-dasharray:7.0,7.0;"/><polygon fill="none" points="336.3,1411.8794,330.91,1432.3694,322.35,1412.9894,336.3,1411.8794" style="stroke:#181818;stroke-width:1.0;"/></g><!--link RequirementSpecification to DTOable--><g id="link_RequirementSpecification_DTOable"><path codeLine="83" d="M465.06,1249.4494 C442.03,1288.0794 397.1,1363.4894 366.29,1415.1794 " fill="none" id="RequirementSpecification-to-DTOable" style="stroke:#181818;stroke-width:1.0;stroke-dasharray:7.0,7.0;"/><polygon fill="none" points="372.29,1418.7894,356.04,1432.3794,360.27,1411.6194,372.29,1418.7894" style="stroke:#181818;stroke-width:1.0;"/></g><!--link JobOpening to JobOpeningDto--><g id="link_JobOpening_JobOpeningDto"><path codeLine="84" d="M269.93,964.6294 C246.88,990.4094 210.66,1030.9094 186.35,1058.0994 " fill="none" id="JobOpening-to-JobOpeningDto" style="stroke:#181818;stroke-width:1.0;"/><polygon fill="#181818" points="182.86,1062.0094,191.8453,1057.9764,186.1969,1058.2858,185.8876,1052.6374,182.86,1062.0094" style="stroke:#181818;stroke-width:1.0;"/></g><!--link RequirementSpecification to RequirementSpecificationDto--><g id="link_RequirementSpecification_RequirementSpecificationDto"><path codeLine="85" d="M515.07,1249.1994 C543.84,1269.2894 584.5,1297.6794 614.37,1318.5394 " fill="none" id="RequirementSpecification-to-RequirementSpecificationDto" style="stroke:#181818;stroke-width:1.0;"/><polygon fill="#181818" points="618.7,1321.5594,613.603,1313.132,614.5978,1318.7007,609.0291,1319.6955,618.7,1321.5594" style="stroke:#181818;stroke-width:1.0;"/></g><!--link JobOpening to RequirementSpecification--><g id="link_JobOpening_RequirementSpecification"><path codeLine="86" d="M308.14,964.7394 C331.64,1000.2994 376.49,1068.0594 414.86,1125.6094 C430.12,1148.5094 447.47,1174.3894 460.41,1193.6594 " fill="none" id="JobOpening-to-RequirementSpecification" style="stroke:#181818;stroke-width:1.0;"/><polygon fill="#181818" points="463.26,1197.9094,461.5728,1188.2061,460.4766,1193.7557,454.927,1192.6595,463.26,1197.9094" style="stroke:#181818;stroke-width:1.0;"/></g><!--SRC=[hLN1Rjim3BthAmJqaY5raEqsO0WG91ZMOMk0k3aDEoWsdMfL94-YFQJf_dsoay5oQjbgDzyaypq-ai-qUU0oPvhjXKeU8AKfPAmG-559ZFaZq7TJGf2Z0Ffj4x-TJjz_fn5T26OCNNAsiq12sDQWPWdIfBwVdu-R6tear3vND5NnlVerUdC-6lUmPrn-KIgt5xy9ELCKUAyqVsJ8bOn1bpo1CzcOKf2cq535W4IUC8HqOq1_OcOk3wjif9K0ux1zLjjL3fBBtLScsGxs5jQGZgdLoajeeamjvHAxHEM24YLBq7YdxFteHuDrygxXPy7rALqE2SyghROWZugISS6s0dmmLvOlfa-azl4wacCGaA2FlPfeOEZ26iZEGO3sTJYmuZ4jyjIEs1VZzDuMUKsrlpETbbX3hWn7fG-Lq8pBT2w4e_HMOOnCMu_LObHsarQkmqELU0qPQ90934-cdIUmT2URKzSjszS9kKJG6REpNghgAsgdCAo4qGdSPUVZeE9ZEyNTgj9RsmfhFzNj9CxN_k4fYWOTH0OjDebcmUOY93IIJcQTQ-K5194LrhDBNiWKl1rUhR3nmt-IzXh2jYH2-fQnLtuVQD82DGkGTAxk2pdXQWOr-7ena2EitG6rs1U4XFzo0XE74_OwnnbBmA-hZ-bVyNMRkanM5V0qUxPAoN2JV4WdpT-GqnBrSbw4EVZdi_Po35NVOkthz1y0]--></g></svg>