<?xml version="1.0" encoding="UTF-8" standalone="no"?><svg xmlns="http://www.w3.org/2000/svg" xmlns:xlink="http://www.w3.org/1999/xlink" contentStyleType="text/css" height="2340px" preserveAspectRatio="none" style="width:3971px;height:2340px;background:#FFFFFF;" version="1.1" viewBox="0 0 3971 2340" width="3971px" zoomAndPan="magnify"><defs/><g><text fill="#000000" font-family="sans-serif" font-size="14" font-weight="bold" lengthAdjust="spacing" textLength="206" x="1881" y="29.5332">[US1009] - Sequence Diagram</text><rect fill="#FFFFFF" height="2009.9688" style="stroke:#181818;stroke-width:1.0;" width="10" x="87.5" y="175.0781"/><rect fill="#FFFFFF" height="1978.8125" style="stroke:#181818;stroke-width:1.0;" width="10" x="626.5" y="206.2344"/><rect fill="#FFFFFF" height="472.875" style="stroke:#181818;stroke-width:1.0;" width="10" x="1339.5" y="320.7031"/><rect fill="#FFFFFF" height="472.875" style="stroke:#181818;stroke-width:1.0;" width="10" x="1339.5" y="950.2031"/><rect fill="#FFFFFF" height="644.5" style="stroke:#181818;stroke-width:1.0;" width="10" x="1339.5" y="1501.3906"/><rect fill="#FFFFFF" height="30" style="stroke:#181818;stroke-width:1.0;" width="10" x="1733.5" y="359.8594"/><rect fill="#FFFFFF" height="30" style="stroke:#181818;stroke-width:1.0;" width="10" x="1733.5" y="989.3594"/><rect fill="#FFFFFF" height="30" style="stroke:#181818;stroke-width:1.0;" width="10" x="1733.5" y="1540.5469"/><rect fill="#FFFFFF" height="325.4063" style="stroke:#181818;stroke-width:1.0;" width="10" x="1957" y="1058.5156"/><rect fill="#FFFFFF" height="168.7813" style="stroke:#181818;stroke-width:1.0;" width="10" x="2343" y="1175.9844"/><rect fill="#FFFFFF" height="325.4063" style="stroke:#181818;stroke-width:1.0;" width="10" x="2567.5" y="429.0156"/><rect fill="#FFFFFF" height="168.7813" style="stroke:#181818;stroke-width:1.0;" width="10" x="2837.5" y="546.4844"/><rect fill="#FFFFFF" height="39.1563" style="stroke:#181818;stroke-width:1.0;" width="10" x="3025" y="1259.4531"/><rect fill="#FFFFFF" height="39.1563" style="stroke:#181818;stroke-width:1.0;" width="10" x="3212.5" y="629.9531"/><rect fill="#FFFFFF" height="30" style="stroke:#181818;stroke-width:1.0;" width="10" x="3212.5" y="2007.5781"/><rect fill="#FFFFFF" height="39.1563" style="stroke:#181818;stroke-width:1.0;" width="10" x="3385" y="468.1719"/><rect fill="#FFFFFF" height="159.7813" style="stroke:#181818;stroke-width:1.0;" width="10" x="3385" y="1609.7031"/><rect fill="#FFFFFF" height="30" style="stroke:#181818;stroke-width:1.0;" width="10" x="3385" y="2076.7344"/><rect fill="#FFFFFF" height="39.1563" style="stroke:#181818;stroke-width:1.0;" width="10" x="3622" y="1097.6719"/><rect fill="#FFFFFF" height="159.7813" style="stroke:#181818;stroke-width:1.0;" width="10" x="3622" y="1808.6406"/><rect fill="none" height="115.625" style="stroke:#000000;stroke-width:1.5;" width="514" x="2773" y="561.4844"/><rect fill="none" height="115.625" style="stroke:#000000;stroke-width:1.5;" width="938" x="2220" y="1190.9844"/><line style="stroke:#181818;stroke-width:0.5;stroke-dasharray:5.0,5.0;" x1="92" x2="92" y1="165.0781" y2="2203.0469"/><line style="stroke:#181818;stroke-width:0.5;stroke-dasharray:5.0,5.0;" x1="631.5" x2="631.5" y1="165.0781" y2="2203.0469"/><line style="stroke:#181818;stroke-width:0.5;stroke-dasharray:5.0,5.0;" x1="1344.5" x2="1344.5" y1="261.8906" y2="2203.0469"/><line style="stroke:#181818;stroke-width:0.5;stroke-dasharray:5.0,5.0;" x1="1738" x2="1738" y1="165.0781" y2="2203.0469"/><line style="stroke:#181818;stroke-width:0.5;stroke-dasharray:5.0,5.0;" x1="1962" x2="1962" y1="165.0781" y2="2203.0469"/><line style="stroke:#181818;stroke-width:0.5;stroke-dasharray:5.0,5.0;" x1="2348" x2="2348" y1="165.0781" y2="2203.0469"/><line style="stroke:#181818;stroke-width:0.5;stroke-dasharray:5.0,5.0;" x1="2572" x2="2572" y1="165.0781" y2="2203.0469"/><line style="stroke:#181818;stroke-width:0.5;stroke-dasharray:5.0,5.0;" x1="2842" x2="2842" y1="165.0781" y2="2203.0469"/><line style="stroke:#181818;stroke-width:0.5;stroke-dasharray:5.0,5.0;" x1="3030" x2="3030" y1="165.0781" y2="2203.0469"/><line style="stroke:#181818;stroke-width:0.5;stroke-dasharray:5.0,5.0;" x1="3217" x2="3217" y1="165.0781" y2="2203.0469"/><line style="stroke:#181818;stroke-width:0.5;stroke-dasharray:5.0,5.0;" x1="3390" x2="3390" y1="165.0781" y2="2203.0469"/><line style="stroke:#181818;stroke-width:0.5;stroke-dasharray:5.0,5.0;" x1="3627" x2="3627" y1="165.0781" y2="2203.0469"/><text fill="#000000" font-family="sans-serif" font-size="20" lengthAdjust="spacing" textLength="169" x="5" y="160.6836">Customer Manager</text><ellipse cx="92.5" cy="88.4219" fill="#E2E2F0" rx="8" ry="8" style="stroke:#181818;stroke-width:0.5;"/><path d="M92.5,96.4219 L92.5,123.4219 M79.5,104.4219 L105.5,104.4219 M92.5,123.4219 L79.5,138.4219 M92.5,123.4219 L105.5,138.4219 " fill="none" style="stroke:#181818;stroke-width:0.5;"/><text fill="#000000" font-family="sans-serif" font-size="20" lengthAdjust="spacing" textLength="169" x="5" y="2222.8086">Customer Manager</text><ellipse cx="92.5" cy="2235.7031" fill="#E2E2F0" rx="8" ry="8" style="stroke:#181818;stroke-width:0.5;"/><path d="M92.5,2243.7031 L92.5,2270.7031 M79.5,2251.7031 L105.5,2251.7031 M92.5,2270.7031 L79.5,2285.7031 M92.5,2270.7031 L105.5,2285.7031 " fill="none" style="stroke:#181818;stroke-width:0.5;"/><rect fill="#E2E2F0" height="64.3125" rx="2.5" ry="2.5" style="stroke:#181818;stroke-width:0.5;" width="310" x="476.5" y="99.7656"/><text fill="#000000" font-family="sans-serif" font-size="20" font-style="italic" lengthAdjust="spacing" textLength="131" x="566" y="127.5273">«presentation»</text><text fill="#000000" font-family="sans-serif" font-size="20" lengthAdjust="spacing" textLength="296" x="483.5" y="152.6836">SelectRequirementSpecificationUI</text><rect fill="#E2E2F0" height="64.3125" rx="2.5" ry="2.5" style="stroke:#181818;stroke-width:0.5;" width="310" x="476.5" y="2202.0469"/><text fill="#000000" font-family="sans-serif" font-size="20" font-style="italic" lengthAdjust="spacing" textLength="131" x="566" y="2229.8086">«presentation»</text><text fill="#000000" font-family="sans-serif" font-size="20" lengthAdjust="spacing" textLength="296" x="483.5" y="2254.9648">SelectRequirementSpecificationUI</text><rect fill="#E2E2F0" height="64.3125" rx="2.5" ry="2.5" style="stroke:#181818;stroke-width:0.5;" width="376" x="1156.5" y="2202.0469"/><text fill="#000000" font-family="sans-serif" font-size="20" font-style="italic" lengthAdjust="spacing" textLength="118" x="1285.5" y="2229.8086">«application»</text><text fill="#000000" font-family="sans-serif" font-size="20" lengthAdjust="spacing" textLength="362" x="1163.5" y="2254.9648">SelectRequirementSpecificationController</text><rect fill="#E2E2F0" height="64.3125" rx="2.5" ry="2.5" style="stroke:#181818;stroke-width:0.5;" width="191" x="1643" y="99.7656"/><text fill="#000000" font-family="sans-serif" font-size="20" font-style="italic" lengthAdjust="spacing" textLength="86" x="1695.5" y="127.5273">«service»</text><text fill="#000000" font-family="sans-serif" font-size="20" lengthAdjust="spacing" textLength="177" x="1650" y="152.6836">AuthorizationService</text><rect fill="#E2E2F0" height="64.3125" rx="2.5" ry="2.5" style="stroke:#181818;stroke-width:0.5;" width="191" x="1643" y="2202.0469"/><text fill="#000000" font-family="sans-serif" font-size="20" font-style="italic" lengthAdjust="spacing" textLength="86" x="1695.5" y="2229.8086">«service»</text><text fill="#000000" font-family="sans-serif" font-size="20" lengthAdjust="spacing" textLength="177" x="1650" y="2254.9648">AuthorizationService</text><rect fill="#E2E2F0" height="89.4688" rx="2.5" ry="2.5" style="stroke:#181818;stroke-width:0.5;" width="236" x="1844" y="74.6094"/><text fill="#000000" font-family="sans-serif" font-size="20" font-style="italic" lengthAdjust="spacing" textLength="86" x="1919" y="102.3711">«service»</text><text fill="#000000" font-family="sans-serif" font-size="20" lengthAdjust="spacing" textLength="222" x="1851" y="127.5273">RequirementSpecification</text><text fill="#000000" font-family="sans-serif" font-size="20" lengthAdjust="spacing" textLength="179" x="1872.5" y="152.6836">ManagementService</text><rect fill="#E2E2F0" height="89.4688" rx="2.5" ry="2.5" style="stroke:#181818;stroke-width:0.5;" width="236" x="1844" y="2202.0469"/><text fill="#000000" font-family="sans-serif" font-size="20" font-style="italic" lengthAdjust="spacing" textLength="86" x="1919" y="2229.8086">«service»</text><text fill="#000000" font-family="sans-serif" font-size="20" lengthAdjust="spacing" textLength="222" x="1851" y="2254.9648">RequirementSpecification</text><text fill="#000000" font-family="sans-serif" font-size="20" lengthAdjust="spacing" textLength="179" x="1872.5" y="2280.1211">ManagementService</text><rect fill="#E2E2F0" height="89.4688" rx="2.5" ry="2.5" style="stroke:#181818;stroke-width:0.5;" width="236" x="2230" y="74.6094"/><text fill="#000000" font-family="sans-serif" font-size="20" font-style="italic" lengthAdjust="spacing" textLength="86" x="2305" y="102.3711">«service»</text><text fill="#000000" font-family="sans-serif" font-size="20" lengthAdjust="spacing" textLength="222" x="2237" y="127.5273">RequirementSpecification</text><text fill="#000000" font-family="sans-serif" font-size="20" lengthAdjust="spacing" textLength="96" x="2300" y="152.6836">DtoService</text><rect fill="#E2E2F0" height="89.4688" rx="2.5" ry="2.5" style="stroke:#181818;stroke-width:0.5;" width="236" x="2230" y="2202.0469"/><text fill="#000000" font-family="sans-serif" font-size="20" font-style="italic" lengthAdjust="spacing" textLength="86" x="2305" y="2229.8086">«service»</text><text fill="#000000" font-family="sans-serif" font-size="20" lengthAdjust="spacing" textLength="222" x="2237" y="2254.9648">RequirementSpecification</text><text fill="#000000" font-family="sans-serif" font-size="20" lengthAdjust="spacing" textLength="96" x="2300" y="2280.1211">DtoService</text><rect fill="#E2E2F0" height="89.4688" rx="2.5" ry="2.5" style="stroke:#181818;stroke-width:0.5;" width="193" x="2476" y="74.6094"/><text fill="#000000" font-family="sans-serif" font-size="20" font-style="italic" lengthAdjust="spacing" textLength="86" x="2529.5" y="102.3711">«service»</text><text fill="#000000" font-family="sans-serif" font-size="20" lengthAdjust="spacing" textLength="105" x="2520" y="127.5273">JobOpening</text><text fill="#000000" font-family="sans-serif" font-size="20" lengthAdjust="spacing" textLength="179" x="2483" y="152.6836">ManagementService</text><rect fill="#E2E2F0" height="89.4688" rx="2.5" ry="2.5" style="stroke:#181818;stroke-width:0.5;" width="193" x="2476" y="2202.0469"/><text fill="#000000" font-family="sans-serif" font-size="20" font-style="italic" lengthAdjust="spacing" textLength="86" x="2529.5" y="2229.8086">«service»</text><text fill="#000000" font-family="sans-serif" font-size="20" lengthAdjust="spacing" textLength="105" x="2520" y="2254.9648">JobOpening</text><text fill="#000000" font-family="sans-serif" font-size="20" lengthAdjust="spacing" textLength="179" x="2483" y="2280.1211">ManagementService</text><rect fill="#E2E2F0" height="89.4688" rx="2.5" ry="2.5" style="stroke:#181818;stroke-width:0.5;" width="119" x="2783" y="74.6094"/><text fill="#000000" font-family="sans-serif" font-size="20" font-style="italic" lengthAdjust="spacing" textLength="86" x="2799.5" y="102.3711">«service»</text><text fill="#000000" font-family="sans-serif" font-size="20" lengthAdjust="spacing" textLength="105" x="2790" y="127.5273">JobOpening</text><text fill="#000000" font-family="sans-serif" font-size="20" lengthAdjust="spacing" textLength="96" x="2794.5" y="152.6836">DtoService</text><rect fill="#E2E2F0" height="89.4688" rx="2.5" ry="2.5" style="stroke:#181818;stroke-width:0.5;" width="119" x="2783" y="2202.0469"/><text fill="#000000" font-family="sans-serif" font-size="20" font-style="italic" lengthAdjust="spacing" textLength="86" x="2799.5" y="2229.8086">«service»</text><text fill="#000000" font-family="sans-serif" font-size="20" lengthAdjust="spacing" textLength="105" x="2790" y="2254.9648">JobOpening</text><text fill="#000000" font-family="sans-serif" font-size="20" lengthAdjust="spacing" textLength="96" x="2794.5" y="2280.1211">DtoService</text><rect fill="#E2E2F0" height="64.3125" rx="2.5" ry="2.5" style="stroke:#181818;stroke-width:0.5;" width="236" x="2912" y="99.7656"/><text fill="#000000" font-family="sans-serif" font-size="20" font-style="italic" lengthAdjust="spacing" textLength="88" x="2986" y="127.5273">«domain»</text><text fill="#000000" font-family="sans-serif" font-size="20" lengthAdjust="spacing" textLength="222" x="2919" y="152.6836">RequirementSpecification</text><rect fill="#E2E2F0" height="64.3125" rx="2.5" ry="2.5" style="stroke:#181818;stroke-width:0.5;" width="236" x="2912" y="2202.0469"/><text fill="#000000" font-family="sans-serif" font-size="20" font-style="italic" lengthAdjust="spacing" textLength="88" x="2986" y="2229.8086">«domain»</text><text fill="#000000" font-family="sans-serif" font-size="20" lengthAdjust="spacing" textLength="222" x="2919" y="2254.9648">RequirementSpecification</text><rect fill="#E2E2F0" height="64.3125" rx="2.5" ry="2.5" style="stroke:#181818;stroke-width:0.5;" width="119" x="3158" y="99.7656"/><text fill="#000000" font-family="sans-serif" font-size="20" font-style="italic" lengthAdjust="spacing" textLength="88" x="3173.5" y="127.5273">«domain»</text><text fill="#000000" font-family="sans-serif" font-size="20" lengthAdjust="spacing" textLength="105" x="3165" y="152.6836">JobOpening</text><rect fill="#E2E2F0" height="64.3125" rx="2.5" ry="2.5" style="stroke:#181818;stroke-width:0.5;" width="119" x="3158" y="2202.0469"/><text fill="#000000" font-family="sans-serif" font-size="20" font-style="italic" lengthAdjust="spacing" textLength="88" x="3173.5" y="2229.8086">«domain»</text><text fill="#000000" font-family="sans-serif" font-size="20" lengthAdjust="spacing" textLength="105" x="3165" y="2254.9648">JobOpening</text><text fill="#000000" font-family="sans-serif" font-size="20" font-style="italic" lengthAdjust="spacing" textLength="110" x="3332" y="135.5273">«repository»</text><text fill="#000000" font-family="sans-serif" font-size="20" lengthAdjust="spacing" textLength="200" x="3287" y="160.6836">JobOpeningRepository</text><path d="M3372,78.7656 C3372,68.7656 3390,68.7656 3390,68.7656 C3390,68.7656 3408,68.7656 3408,78.7656 L3408,104.7656 C3408,114.7656 3390,114.7656 3390,114.7656 C3390,114.7656 3372,114.7656 3372,104.7656 L3372,78.7656 " fill="#E2E2F0" style="stroke:#181818;stroke-width:1.5;"/><path d="M3372,78.7656 C3372,88.7656 3390,88.7656 3390,88.7656 C3390,88.7656 3408,88.7656 3408,78.7656 " fill="none" style="stroke:#181818;stroke-width:1.5;"/><text fill="#000000" font-family="sans-serif" font-size="20" font-style="italic" lengthAdjust="spacing" textLength="110" x="3332" y="2222.8086">«repository»</text><text fill="#000000" font-family="sans-serif" font-size="20" lengthAdjust="spacing" textLength="200" x="3287" y="2247.9648">JobOpeningRepository</text><path d="M3372,2262.3594 C3372,2252.3594 3390,2252.3594 3390,2252.3594 C3390,2252.3594 3408,2252.3594 3408,2262.3594 L3408,2288.3594 C3408,2298.3594 3390,2298.3594 3390,2298.3594 C3390,2298.3594 3372,2298.3594 3372,2288.3594 L3372,2262.3594 " fill="#E2E2F0" style="stroke:#181818;stroke-width:1.5;"/><path d="M3372,2262.3594 C3372,2272.3594 3390,2272.3594 3390,2272.3594 C3390,2272.3594 3408,2272.3594 3408,2262.3594 " fill="none" style="stroke:#181818;stroke-width:1.5;"/><text fill="#000000" font-family="sans-serif" font-size="20" font-style="italic" lengthAdjust="spacing" textLength="110" x="3569" y="110.3711">«repository»</text><text fill="#000000" font-family="sans-serif" font-size="20" lengthAdjust="spacing" textLength="242" x="3503" y="135.5273">RequirementsSpecifications</text><text fill="#000000" font-family="sans-serif" font-size="20" lengthAdjust="spacing" textLength="95" x="3576.5" y="160.6836">Repository</text><path d="M3609,53.6094 C3609,43.6094 3627,43.6094 3627,43.6094 C3627,43.6094 3645,43.6094 3645,53.6094 L3645,79.6094 C3645,89.6094 3627,89.6094 3627,89.6094 C3627,89.6094 3609,89.6094 3609,79.6094 L3609,53.6094 " fill="#E2E2F0" style="stroke:#181818;stroke-width:1.5;"/><path d="M3609,53.6094 C3609,63.6094 3627,63.6094 3627,63.6094 C3627,63.6094 3645,63.6094 3645,53.6094 " fill="none" style="stroke:#181818;stroke-width:1.5;"/><text fill="#000000" font-family="sans-serif" font-size="20" font-style="italic" lengthAdjust="spacing" textLength="110" x="3569" y="2222.8086">«repository»</text><text fill="#000000" font-family="sans-serif" font-size="20" lengthAdjust="spacing" textLength="242" x="3503" y="2247.9648">RequirementsSpecifications</text><text fill="#000000" font-family="sans-serif" font-size="20" lengthAdjust="spacing" textLength="95" x="3576.5" y="2273.1211">Repository</text><path d="M3609,2287.5156 C3609,2277.5156 3627,2277.5156 3627,2277.5156 C3627,2277.5156 3645,2277.5156 3645,2287.5156 L3645,2313.5156 C3645,2323.5156 3627,2323.5156 3627,2323.5156 C3627,2323.5156 3609,2323.5156 3609,2313.5156 L3609,2287.5156 " fill="#E2E2F0" style="stroke:#181818;stroke-width:1.5;"/><path d="M3609,2287.5156 C3609,2297.5156 3627,2297.5156 3627,2297.5156 C3627,2297.5156 3645,2297.5156 3645,2287.5156 " fill="none" style="stroke:#181818;stroke-width:1.5;"/><rect fill="#FFFFFF" height="2009.9688" style="stroke:#181818;stroke-width:1.0;" width="10" x="87.5" y="175.0781"/><rect fill="#FFFFFF" height="1978.8125" style="stroke:#181818;stroke-width:1.0;" width="10" x="626.5" y="206.2344"/><rect fill="#FFFFFF" height="472.875" style="stroke:#181818;stroke-width:1.0;" width="10" x="1339.5" y="320.7031"/><rect fill="#FFFFFF" height="472.875" style="stroke:#181818;stroke-width:1.0;" width="10" x="1339.5" y="950.2031"/><rect fill="#FFFFFF" height="644.5" style="stroke:#181818;stroke-width:1.0;" width="10" x="1339.5" y="1501.3906"/><rect fill="#FFFFFF" height="30" style="stroke:#181818;stroke-width:1.0;" width="10" x="1733.5" y="359.8594"/><rect fill="#FFFFFF" height="30" style="stroke:#181818;stroke-width:1.0;" width="10" x="1733.5" y="989.3594"/><rect fill="#FFFFFF" height="30" style="stroke:#181818;stroke-width:1.0;" width="10" x="1733.5" y="1540.5469"/><rect fill="#FFFFFF" height="325.4063" style="stroke:#181818;stroke-width:1.0;" width="10" x="1957" y="1058.5156"/><rect fill="#FFFFFF" height="168.7813" style="stroke:#181818;stroke-width:1.0;" width="10" x="2343" y="1175.9844"/><rect fill="#FFFFFF" height="325.4063" style="stroke:#181818;stroke-width:1.0;" width="10" x="2567.5" y="429.0156"/><rect fill="#FFFFFF" height="168.7813" style="stroke:#181818;stroke-width:1.0;" width="10" x="2837.5" y="546.4844"/><rect fill="#FFFFFF" height="39.1563" style="stroke:#181818;stroke-width:1.0;" width="10" x="3025" y="1259.4531"/><rect fill="#FFFFFF" height="39.1563" style="stroke:#181818;stroke-width:1.0;" width="10" x="3212.5" y="629.9531"/><rect fill="#FFFFFF" height="30" style="stroke:#181818;stroke-width:1.0;" width="10" x="3212.5" y="2007.5781"/><rect fill="#FFFFFF" height="39.1563" style="stroke:#181818;stroke-width:1.0;" width="10" x="3385" y="468.1719"/><rect fill="#FFFFFF" height="159.7813" style="stroke:#181818;stroke-width:1.0;" width="10" x="3385" y="1609.7031"/><rect fill="#FFFFFF" height="30" style="stroke:#181818;stroke-width:1.0;" width="10" x="3385" y="2076.7344"/><rect fill="#FFFFFF" height="39.1563" style="stroke:#181818;stroke-width:1.0;" width="10" x="3622" y="1097.6719"/><rect fill="#FFFFFF" height="159.7813" style="stroke:#181818;stroke-width:1.0;" width="10" x="3622" y="1808.6406"/><polygon fill="#181818" points="614.5,202.2344,624.5,206.2344,614.5,210.2344,618.5,206.2344" style="stroke:#181818;stroke-width:1.0;"/><line style="stroke:#181818;stroke-width:1.0;" x1="97.5" x2="620.5" y1="206.2344" y2="206.2344"/><text fill="#000000" font-family="sans-serif" font-size="20" lengthAdjust="spacing" textLength="510" x="104.5" y="199.8398">wants to select requirement specification for a job opening</text><polygon fill="#181818" points="1144.5,241.3906,1154.5,245.3906,1144.5,249.3906,1148.5,245.3906" style="stroke:#181818;stroke-width:1.0;"/><line style="stroke:#181818;stroke-width:1.0;" x1="636.5" x2="1150.5" y1="245.3906" y2="245.3906"/><text fill="#000000" font-family="sans-serif" font-size="20" lengthAdjust="spacing" textLength="56" x="643.5" y="238.9961">create</text><rect fill="#E2E2F0" height="64.3125" rx="2.5" ry="2.5" style="stroke:#181818;stroke-width:0.5;" width="376" x="1156.5" y="214.2344"/><text fill="#000000" font-family="sans-serif" font-size="20" font-style="italic" lengthAdjust="spacing" textLength="118" x="1285.5" y="241.9961">«application»</text><text fill="#000000" font-family="sans-serif" font-size="20" lengthAdjust="spacing" textLength="362" x="1163.5" y="267.1523">SelectRequirementSpecificationController</text><polygon fill="#181818" points="1327.5,316.7031,1337.5,320.7031,1327.5,324.7031,1331.5,320.7031" style="stroke:#181818;stroke-width:1.0;"/><line style="stroke:#181818;stroke-width:1.0;" x1="636.5" x2="1333.5" y1="320.7031" y2="320.7031"/><text fill="#000000" font-family="sans-serif" font-size="20" lengthAdjust="spacing" textLength="180" x="643.5" y="314.3086">activeJobOpenings()</text><polygon fill="#181818" points="1721.5,355.8594,1731.5,359.8594,1721.5,363.8594,1725.5,359.8594" style="stroke:#181818;stroke-width:1.0;"/><line style="stroke:#181818;stroke-width:1.0;" x1="1349.5" x2="1727.5" y1="359.8594" y2="359.8594"/><text fill="#000000" font-family="sans-serif" font-size="20" lengthAdjust="spacing" textLength="365" x="1356.5" y="353.4648">ensureAuthenticatedUserHasAnyOf(roles)</text><polygon fill="#181818" points="2555.5,425.0156,2565.5,429.0156,2555.5,433.0156,2559.5,429.0156" style="stroke:#181818;stroke-width:1.0;"/><line style="stroke:#181818;stroke-width:1.0;" x1="1349.5" x2="2561.5" y1="429.0156" y2="429.0156"/><text fill="#000000" font-family="sans-serif" font-size="20" lengthAdjust="spacing" textLength="180" x="1356.5" y="422.6211">activeJobOpenings()</text><polygon fill="#181818" points="3373,464.1719,3383,468.1719,3373,472.1719,3377,468.1719" style="stroke:#181818;stroke-width:1.0;"/><line style="stroke:#181818;stroke-width:1.0;" x1="2577.5" x2="3379" y1="468.1719" y2="468.1719"/><text fill="#000000" font-family="sans-serif" font-size="20" lengthAdjust="spacing" textLength="276" x="2584.5" y="461.7773">findAllJobOpeningsNotStarted()</text><polygon fill="#181818" points="2588.5,503.3281,2578.5,507.3281,2588.5,511.3281,2584.5,507.3281" style="stroke:#181818;stroke-width:1.0;"/><line style="stroke:#181818;stroke-width:1.0;stroke-dasharray:2.0,2.0;" x1="2582.5" x2="3389" y1="507.3281" y2="507.3281"/><text fill="#000000" font-family="sans-serif" font-size="20" lengthAdjust="spacing" textLength="109" x="2594.5" y="500.9336">jobOpenings</text><polygon fill="#181818" points="2825.5,542.4844,2835.5,546.4844,2825.5,550.4844,2829.5,546.4844" style="stroke:#181818;stroke-width:1.0;"/><line style="stroke:#181818;stroke-width:1.0;" x1="2577.5" x2="2831.5" y1="546.4844" y2="546.4844"/><text fill="#000000" font-family="sans-serif" font-size="20" lengthAdjust="spacing" textLength="241" x="2584.5" y="540.0898">convertToDto(jobOpenings)</text><path d="M2773,561.4844 L2859,561.4844 L2859,578.6406 L2849,588.6406 L2773,588.6406 L2773,561.4844 " fill="#EEEEEE" style="stroke:#000000;stroke-width:1.5;"/><rect fill="none" height="115.625" style="stroke:#000000;stroke-width:1.5;" width="514" x="2773" y="561.4844"/><text fill="#000000" font-family="sans-serif" font-size="20" font-weight="bold" lengthAdjust="spacing" textLength="41" x="2788" y="583.2461">loop</text><text fill="#000000" font-family="sans-serif" font-size="20" font-weight="bold" lengthAdjust="spacing" textLength="165" x="2874" y="584.2461">[for all instances]</text><polygon fill="#181818" points="3200.5,625.9531,3210.5,629.9531,3200.5,633.9531,3204.5,629.9531" style="stroke:#181818;stroke-width:1.0;"/><line style="stroke:#181818;stroke-width:1.0;" x1="2847.5" x2="3206.5" y1="629.9531" y2="629.9531"/><text fill="#000000" font-family="sans-serif" font-size="20" lengthAdjust="spacing" textLength="62" x="2854.5" y="623.5586">toDto()</text><polygon fill="#181818" points="2858.5,665.1094,2848.5,669.1094,2858.5,673.1094,2854.5,669.1094" style="stroke:#181818;stroke-width:1.0;"/><line style="stroke:#181818;stroke-width:1.0;stroke-dasharray:2.0,2.0;" x1="2852.5" x2="3216.5" y1="669.1094" y2="669.1094"/><text fill="#000000" font-family="sans-serif" font-size="20" lengthAdjust="spacing" textLength="130" x="2864.5" y="662.7148">jobOpeningDto</text><polygon fill="#181818" points="2588.5,711.2656,2578.5,715.2656,2588.5,719.2656,2584.5,715.2656" style="stroke:#181818;stroke-width:1.0;"/><line style="stroke:#181818;stroke-width:1.0;stroke-dasharray:2.0,2.0;" x1="2582.5" x2="2841.5" y1="715.2656" y2="715.2656"/><text fill="#000000" font-family="sans-serif" font-size="20" lengthAdjust="spacing" textLength="140" x="2594.5" y="708.8711">jobOpeningDtos</text><polygon fill="#181818" points="1360.5,750.4219,1350.5,754.4219,1360.5,758.4219,1356.5,754.4219" style="stroke:#181818;stroke-width:1.0;"/><line style="stroke:#181818;stroke-width:1.0;stroke-dasharray:2.0,2.0;" x1="1354.5" x2="2571.5" y1="754.4219" y2="754.4219"/><text fill="#000000" font-family="sans-serif" font-size="20" lengthAdjust="spacing" textLength="140" x="1366.5" y="748.0273">jobOpeningDtos</text><polygon fill="#181818" points="647.5,789.5781,637.5,793.5781,647.5,797.5781,643.5,793.5781" style="stroke:#181818;stroke-width:1.0;"/><line style="stroke:#181818;stroke-width:1.0;stroke-dasharray:2.0,2.0;" x1="641.5" x2="1343.5" y1="793.5781" y2="793.5781"/><text fill="#000000" font-family="sans-serif" font-size="20" lengthAdjust="spacing" textLength="140" x="653.5" y="787.1836">jobOpeningDtos</text><polygon fill="#181818" points="108.5,828.7344,98.5,832.7344,108.5,836.7344,104.5,832.7344" style="stroke:#181818;stroke-width:1.0;"/><line style="stroke:#181818;stroke-width:1.0;stroke-dasharray:2.0,2.0;" x1="102.5" x2="625.5" y1="832.7344" y2="832.7344"/><text fill="#000000" font-family="sans-serif" font-size="20" lengthAdjust="spacing" textLength="229" x="114.5" y="826.3398">shows active job openings</text><polygon fill="#181818" points="614.5,867.8906,624.5,871.8906,614.5,875.8906,618.5,871.8906" style="stroke:#181818;stroke-width:1.0;"/><line style="stroke:#181818;stroke-width:1.0;" x1="97.5" x2="620.5" y1="871.8906" y2="871.8906"/><text fill="#000000" font-family="sans-serif" font-size="20" lengthAdjust="spacing" textLength="168" x="104.5" y="865.4961">selects job opening</text><polygon fill="#181818" points="108.5,907.0469,98.5,911.0469,108.5,915.0469,104.5,911.0469" style="stroke:#181818;stroke-width:1.0;"/><line style="stroke:#181818;stroke-width:1.0;stroke-dasharray:2.0,2.0;" x1="102.5" x2="625.5" y1="911.0469" y2="911.0469"/><text fill="#000000" font-family="sans-serif" font-size="20" lengthAdjust="spacing" textLength="280" x="114.5" y="904.6523">shows requirement specification</text><polygon fill="#181818" points="1327.5,946.2031,1337.5,950.2031,1327.5,954.2031,1331.5,950.2031" style="stroke:#181818;stroke-width:1.0;"/><line style="stroke:#181818;stroke-width:1.0;" x1="636.5" x2="1333.5" y1="950.2031" y2="950.2031"/><text fill="#000000" font-family="sans-serif" font-size="20" lengthAdjust="spacing" textLength="322" x="643.5" y="943.8086">availableRequirementSpecifications()</text><polygon fill="#181818" points="1721.5,985.3594,1731.5,989.3594,1721.5,993.3594,1725.5,989.3594" style="stroke:#181818;stroke-width:1.0;"/><line style="stroke:#181818;stroke-width:1.0;" x1="1349.5" x2="1727.5" y1="989.3594" y2="989.3594"/><text fill="#000000" font-family="sans-serif" font-size="20" lengthAdjust="spacing" textLength="365" x="1356.5" y="982.9648">ensureAuthenticatedUserHasAnyOf(roles)</text><polygon fill="#181818" points="1945,1054.5156,1955,1058.5156,1945,1062.5156,1949,1058.5156" style="stroke:#181818;stroke-width:1.0;"/><line style="stroke:#181818;stroke-width:1.0;" x1="1349.5" x2="1951" y1="1058.5156" y2="1058.5156"/><text fill="#000000" font-family="sans-serif" font-size="20" lengthAdjust="spacing" textLength="322" x="1356.5" y="1052.1211">availableRequirementSpecifications()</text><polygon fill="#181818" points="3610,1093.6719,3620,1097.6719,3610,1101.6719,3614,1097.6719" style="stroke:#181818;stroke-width:1.0;"/><line style="stroke:#181818;stroke-width:1.0;" x1="1967" x2="3616" y1="1097.6719" y2="1097.6719"/><text fill="#000000" font-family="sans-serif" font-size="20" lengthAdjust="spacing" textLength="243" x="1974" y="1091.2773">4equirementSpecifications()</text><polygon fill="#181818" points="1978,1132.8281,1968,1136.8281,1978,1140.8281,1974,1136.8281" style="stroke:#181818;stroke-width:1.0;"/><line style="stroke:#181818;stroke-width:1.0;stroke-dasharray:2.0,2.0;" x1="1972" x2="3626" y1="1136.8281" y2="1136.8281"/><text fill="#000000" font-family="sans-serif" font-size="20" lengthAdjust="spacing" textLength="225" x="1984" y="1130.4336">requirementSpecifications</text><polygon fill="#181818" points="2331,1171.9844,2341,1175.9844,2331,1179.9844,2335,1175.9844" style="stroke:#181818;stroke-width:1.0;"/><line style="stroke:#181818;stroke-width:1.0;" x1="1967" x2="2337" y1="1175.9844" y2="1175.9844"/><text fill="#000000" font-family="sans-serif" font-size="20" lengthAdjust="spacing" textLength="357" x="1974" y="1169.5898">convertToDto(requirementSpecifications)</text><path d="M2220,1190.9844 L2306,1190.9844 L2306,1208.1406 L2296,1218.1406 L2220,1218.1406 L2220,1190.9844 " fill="#EEEEEE" style="stroke:#000000;stroke-width:1.5;"/><rect fill="none" height="115.625" style="stroke:#000000;stroke-width:1.5;" width="938" x="2220" y="1190.9844"/><text fill="#000000" font-family="sans-serif" font-size="20" font-weight="bold" lengthAdjust="spacing" textLength="41" x="2235" y="1212.7461">loop</text><text fill="#000000" font-family="sans-serif" font-size="20" font-weight="bold" lengthAdjust="spacing" textLength="165" x="2321" y="1213.7461">[for all instances]</text><polygon fill="#181818" points="3013,1255.4531,3023,1259.4531,3013,1263.4531,3017,1259.4531" style="stroke:#181818;stroke-width:1.0;"/><line style="stroke:#181818;stroke-width:1.0;" x1="2353" x2="3019" y1="1259.4531" y2="1259.4531"/><text fill="#000000" font-family="sans-serif" font-size="20" lengthAdjust="spacing" textLength="62" x="2360" y="1253.0586">toDto()</text><polygon fill="#181818" points="2364,1294.6094,2354,1298.6094,2364,1302.6094,2360,1298.6094" style="stroke:#181818;stroke-width:1.0;"/><line style="stroke:#181818;stroke-width:1.0;stroke-dasharray:2.0,2.0;" x1="2358" x2="3029" y1="1298.6094" y2="1298.6094"/><text fill="#000000" font-family="sans-serif" font-size="20" lengthAdjust="spacing" textLength="246" x="2370" y="1292.2148">requirementSpecificationDto</text><polygon fill="#181818" points="1978,1340.7656,1968,1344.7656,1978,1348.7656,1974,1344.7656" style="stroke:#181818;stroke-width:1.0;"/><line style="stroke:#181818;stroke-width:1.0;stroke-dasharray:2.0,2.0;" x1="1972" x2="2347" y1="1344.7656" y2="1344.7656"/><text fill="#000000" font-family="sans-serif" font-size="20" lengthAdjust="spacing" textLength="256" x="1984" y="1338.3711">requirementSpecificationDtos</text><polygon fill="#181818" points="1360.5,1379.9219,1350.5,1383.9219,1360.5,1387.9219,1356.5,1383.9219" style="stroke:#181818;stroke-width:1.0;"/><line style="stroke:#181818;stroke-width:1.0;stroke-dasharray:2.0,2.0;" x1="1354.5" x2="1961" y1="1383.9219" y2="1383.9219"/><text fill="#000000" font-family="sans-serif" font-size="20" lengthAdjust="spacing" textLength="266" x="1366.5" y="1377.5273">requirementSpecificationsDtos</text><polygon fill="#181818" points="647.5,1419.0781,637.5,1423.0781,647.5,1427.0781,643.5,1423.0781" style="stroke:#181818;stroke-width:1.0;"/><line style="stroke:#181818;stroke-width:1.0;stroke-dasharray:2.0,2.0;" x1="641.5" x2="1343.5" y1="1423.0781" y2="1423.0781"/><text fill="#000000" font-family="sans-serif" font-size="20" lengthAdjust="spacing" textLength="266" x="653.5" y="1416.6836">requirementSpecificationsDtos</text><polygon fill="#181818" points="614.5,1458.2344,624.5,1462.2344,614.5,1466.2344,618.5,1462.2344" style="stroke:#181818;stroke-width:1.0;"/><line style="stroke:#181818;stroke-width:1.0;" x1="97.5" x2="620.5" y1="1462.2344" y2="1462.2344"/><text fill="#000000" font-family="sans-serif" font-size="20" lengthAdjust="spacing" textLength="286" x="104.5" y="1455.8398">selects requirement specification</text><polygon fill="#181818" points="1327.5,1497.3906,1337.5,1501.3906,1327.5,1505.3906,1331.5,1501.3906" style="stroke:#181818;stroke-width:1.0;"/><line style="stroke:#181818;stroke-width:1.0;" x1="636.5" x2="1333.5" y1="1501.3906" y2="1501.3906"/><text fill="#000000" font-family="sans-serif" font-size="20" lengthAdjust="spacing" textLength="684" x="643.5" y="1494.9961">updateRequirementSpecification(jobOpeningDto, requirementSpecificationDto)</text><polygon fill="#181818" points="1721.5,1536.5469,1731.5,1540.5469,1721.5,1544.5469,1725.5,1540.5469" style="stroke:#181818;stroke-width:1.0;"/><line style="stroke:#181818;stroke-width:1.0;" x1="1349.5" x2="1727.5" y1="1540.5469" y2="1540.5469"/><text fill="#000000" font-family="sans-serif" font-size="20" lengthAdjust="spacing" textLength="365" x="1356.5" y="1534.1523">ensureAuthenticatedUserHasAnyOf(roles)</text><polygon fill="#181818" points="3373,1605.7031,3383,1609.7031,3373,1613.7031,3377,1609.7031" style="stroke:#181818;stroke-width:1.0;"/><line style="stroke:#181818;stroke-width:1.0;" x1="1349.5" x2="3379" y1="1609.7031" y2="1609.7031"/><text fill="#000000" font-family="sans-serif" font-size="20" lengthAdjust="spacing" textLength="212" x="1356.5" y="1603.3086">ofIdentity(jobReference)</text><path d="M3400,1622.7031 L3400,1732.7031 L3720,1732.7031 L3720,1632.7031 L3710,1622.7031 L3400,1622.7031 " fill="#FEFFDD" style="stroke:#181818;stroke-width:0.5;"/><path d="M3710,1622.7031 L3710,1632.7031 L3720,1632.7031 L3710,1622.7031 " fill="#FEFFDD" style="stroke:#181818;stroke-width:0.5;"/><text fill="#000000" font-family="sans-serif" font-size="20" lengthAdjust="spacing" textLength="263" x="3406" y="1648.4648">The JobReference is obtained</text><text fill="#000000" font-family="sans-serif" font-size="20" lengthAdjust="spacing" textLength="236" x="3406" y="1673.6211">from the Dto instance. This</text><text fill="#000000" font-family="sans-serif" font-size="20" lengthAdjust="spacing" textLength="299" x="3406" y="1698.7773">method will return the JobOpening</text><text fill="#000000" font-family="sans-serif" font-size="20" lengthAdjust="spacing" textLength="78" x="3406" y="1723.9336">instance.</text><polygon fill="#181818" points="1360.5,1765.4844,1350.5,1769.4844,1360.5,1773.4844,1356.5,1769.4844" style="stroke:#181818;stroke-width:1.0;"/><line style="stroke:#181818;stroke-width:1.0;stroke-dasharray:2.0,2.0;" x1="1354.5" x2="3389" y1="1769.4844" y2="1769.4844"/><text fill="#000000" font-family="sans-serif" font-size="20" lengthAdjust="spacing" textLength="99" x="1366.5" y="1763.0898">jobOpening</text><polygon fill="#181818" points="3610,1804.6406,3620,1808.6406,3610,1812.6406,3614,1808.6406" style="stroke:#181818;stroke-width:1.0;"/><line style="stroke:#181818;stroke-width:1.0;" x1="1349.5" x2="3616" y1="1808.6406" y2="1808.6406"/><text fill="#000000" font-family="sans-serif" font-size="20" lengthAdjust="spacing" textLength="250" x="1356.5" y="1802.2461">ofIdentity(requirementName)</text><path d="M3637,1821.6406 L3637,1931.6406 L3964,1931.6406 L3964,1831.6406 L3954,1821.6406 L3637,1821.6406 " fill="#FEFFDD" style="stroke:#181818;stroke-width:0.5;"/><path d="M3954,1821.6406 L3954,1831.6406 L3964,1831.6406 L3954,1821.6406 " fill="#FEFFDD" style="stroke:#181818;stroke-width:0.5;"/><text fill="#000000" font-family="sans-serif" font-size="20" lengthAdjust="spacing" textLength="302" x="3643" y="1847.4023">The RequirementName is obtained</text><text fill="#000000" font-family="sans-serif" font-size="20" lengthAdjust="spacing" textLength="236" x="3643" y="1872.5586">from the Dto instance. This</text><text fill="#000000" font-family="sans-serif" font-size="20" lengthAdjust="spacing" textLength="188" x="3643" y="1897.7148">method will return the</text><text fill="#000000" font-family="sans-serif" font-size="20" lengthAdjust="spacing" textLength="306" x="3643" y="1922.8711">RequirementSpecification instance.</text><polygon fill="#181818" points="1360.5,1964.4219,1350.5,1968.4219,1360.5,1972.4219,1356.5,1968.4219" style="stroke:#181818;stroke-width:1.0;"/><line style="stroke:#181818;stroke-width:1.0;stroke-dasharray:2.0,2.0;" x1="1354.5" x2="3626" y1="1968.4219" y2="1968.4219"/><text fill="#000000" font-family="sans-serif" font-size="20" lengthAdjust="spacing" textLength="215" x="1366.5" y="1962.0273">requirementSpecification</text><polygon fill="#181818" points="3200.5,2003.5781,3210.5,2007.5781,3200.5,2011.5781,3204.5,2007.5781" style="stroke:#181818;stroke-width:1.0;"/><line style="stroke:#181818;stroke-width:1.0;" x1="1349.5" x2="3206.5" y1="2007.5781" y2="2007.5781"/><text fill="#000000" font-family="sans-serif" font-size="20" lengthAdjust="spacing" textLength="514" x="1356.5" y="2001.1836">changeRequirementSpecification(requirementSpecification)</text><polygon fill="#181818" points="3373,2072.7344,3383,2076.7344,3373,2080.7344,3377,2076.7344" style="stroke:#181818;stroke-width:1.0;"/><line style="stroke:#181818;stroke-width:1.0;" x1="1349.5" x2="3379" y1="2076.7344" y2="2076.7344"/><text fill="#000000" font-family="sans-serif" font-size="20" lengthAdjust="spacing" textLength="154" x="1356.5" y="2070.3398">save(jobOpening)</text><polygon fill="#181818" points="647.5,2141.8906,637.5,2145.8906,647.5,2149.8906,643.5,2145.8906" style="stroke:#181818;stroke-width:1.0;"/><line style="stroke:#181818;stroke-width:1.0;stroke-dasharray:2.0,2.0;" x1="641.5" x2="1343.5" y1="2145.8906" y2="2145.8906"/><text fill="#000000" font-family="sans-serif" font-size="20" lengthAdjust="spacing" textLength="71" x="653.5" y="2139.4961">success</text><polygon fill="#181818" points="103.5,2181.0469,93.5,2185.0469,103.5,2189.0469,99.5,2185.0469" style="stroke:#181818;stroke-width:1.0;"/><line style="stroke:#181818;stroke-width:1.0;stroke-dasharray:2.0,2.0;" x1="97.5" x2="630.5" y1="2185.0469" y2="2185.0469"/><text fill="#000000" font-family="sans-serif" font-size="20" lengthAdjust="spacing" textLength="148" x="109.5" y="2178.6523">displays success</text><!--SRC=[lLPHJzim47xthpZnrA5rOjDULY6a2fWe6Z0bxTEOa9jSMqDgPxPRn7xzpawQE5bIODFsKgdnVTzzPtztjdaGCkUQhpELF60AAIxu9hEVbRIn-8dmuOWnAso6y6qMlpyw-lGTXX3ZZmtA1E5Cy2LX6UE9LHeEJZV6gZLgkEAIBr4V03SmYyyZnYY95Od8kRHm46E6YOs8HcXS8-NACH4BaN0hb9nD2jm4ZezpZORM_VUJazUmd589McLPgU9q6dqXFfxdMHdGfXjlx4ffyTClngYt8a4F7S-c5mGrnQSsh2__hImsmIy4R55y5Vy9svbLRPgxi-bDFzMbcj_aA8LSzacvlDad9SItaZlW_kHzTPJQ2PYgDHUoFscPA8nCkULpRZ0CYp1NHf3xdah0NNJ-rQ5qjT101i9CGvcvbIskAExaycuNMswnjBRxXU496NO4ZrI50Ql0U7E2hjE12TF1WXg6mxsQWoeg2MWdH3fnbCwrXuSZI3JIGlXr13uSwvqmWpSrXGiXfTxrX70M7W6WD1kDpkYanmd1T4O7UC7DM3xTB0RKBsW25WTZAJR_xqYT2PvHuK8OypOZ4UNPZ60XP3hEiW1qhMnioGUODk4Uu1YAanXw5fVsliQ60WF4BcVXLDf29RUexLIHbmS1l2NN1JEMAPKN9vHb8AIndCQTAMYzyJtrY0xQiJKeN50bj4XTPwFefbo6CWrfEmeaJAl6dSgYoCeG-o6xSokDsXzSMCSvpOMIjqTWLkhHb4STMjOqpLzutZHCtKNKsnGjWs-voFWymxvXqk7uVsbuDt9VgyfX6FCpdrIL4sK47r-6BSsy6qH3J-54w3vyA3x0xz9tDaClMQkE_QrHNKW-KKThH7uZgY8A8NsvMur2MDyeTP9djw9jwxg2OZigc_MMtyNGwg8NOykcwcYM5pR39gSxhDTpWqOxlzstAV_fagXOgwcl5fFKCTedfpR21MhtYEoQzrBHFosMArjzcwveFO21CA3cbXu6cBA5LciWlK3rLPvy1zELC6oDzAnBuL6GNJNQZPO-ihvyM0Lm7WENktdZjAThvuMpAxTgyQ3Su3Ik-HgxMZoeUFVDLHmraNzPDEkp3tHjGJXrzdTAvz2fpv_6pOhBPRzv-tYRzshptlpTNuPlCUY33bzrdLkpdyqceM7st7MO2fDd_CbqXTFRBVpd7eY_0000]--></g></svg>