<?xml version="1.0" encoding="us-ascii" standalone="no"?><svg xmlns="http://www.w3.org/2000/svg" xmlns:xlink="http://www.w3.org/1999/xlink" contentStyleType="text/css" height="886.2px" preserveAspectRatio="none" style="width:732px;height:886px;background:#FFFFFF;" version="1.1" viewBox="0 0 732 886" width="732.2px" zoomAndPan="magnify"><defs/><g><!--class SERVICE--><g id="elem_SERVICE"><rect codeLine="5" fill="#F1F1F1" height="70.3391" id="SERVICE" rx="1.75" ry="1.75" style="stroke:#181818;stroke-width:0.3499999999999999;" width="156.1" x="403.55" y="261.1"/><ellipse cx="422.555" cy="284.1521" fill="#ADD1B2" rx="7.7" ry="7.7" style="stroke:#181818;stroke-width:0.6999999999999998;"/><path d="M424.4909,281.2646 Q424.6003,281.1115 424.7316,281.035 Q424.8628,280.9584 425.0159,280.9584 Q425.2784,280.9584 425.4425,281.1443 Q425.6066,281.3193 425.6066,281.7459 L425.6066,282.7631 Q425.6066,283.1896 425.4425,283.3756 Q425.2784,283.5615 425.0159,283.5615 Q424.7753,283.5615 424.6331,283.4193 Q424.4909,283.2881 424.4144,282.9271 Q424.3816,282.6756 424.2503,282.5443 Q424.0206,282.2818 423.5941,282.1287 Q423.1675,281.9756 422.73,281.9756 Q422.1941,281.9756 421.7456,282.2053 Q421.3081,282.435 420.9581,282.96 Q420.6191,283.485 420.6191,284.2068 L420.6191,284.9725 Q420.6191,285.8365 421.2425,286.4162 Q421.8659,286.985 422.9816,286.985 Q423.6378,286.985 424.0972,286.81 Q424.3706,286.7006 424.6659,286.3943 Q424.8519,286.2084 424.9503,286.1537 Q425.0597,286.099 425.2019,286.099 Q425.4316,286.099 425.6066,286.285 Q425.7925,286.46 425.7925,286.7006 Q425.7925,286.9412 425.5519,287.2256 Q425.2019,287.6303 424.6441,287.86 Q423.8894,288.1771 422.9816,288.1771 Q421.9206,288.1771 421.0784,287.7396 Q420.3894,287.3896 419.9081,286.6459 Q419.4269,285.8912 419.4269,284.9943 L419.4269,284.185 Q419.4269,283.2553 419.8534,282.4568 Q420.2909,281.6475 421.0566,281.2209 Q421.8222,280.7834 422.6862,280.7834 Q423.2003,280.7834 423.6487,280.9037 Q424.1081,281.0131 424.4909,281.2646 Z " fill="#000000"/><text fill="#000000" font-family="sans-serif" font-size="9.8" lengthAdjust="spacing" textLength="44.8" x="469.245" y="275.1752">&#171;Domain&#187;</text><text fill="#000000" font-family="sans-serif" font-size="9.8" lengthAdjust="spacing" textLength="44.1" x="469.595" y="288.21">&#171;Service&#187;</text><text fill="#000000" font-family="sans-serif" font-size="9.8" lengthAdjust="spacing" textLength="114.8" x="434.245" y="301.2447">ListCandidateDataService</text><line style="stroke:#181818;stroke-width:0.3499999999999999;" x1="404.25" x2="558.95" y1="307.2043" y2="307.2043"/><line style="stroke:#181818;stroke-width:0.3499999999999999;" x1="404.25" x2="558.95" y1="312.8043" y2="312.8043"/><ellipse cx="411.25" cy="323.1717" fill="#84BE84" rx="2.1" ry="2.1" style="stroke:#038048;stroke-width:0.6999999999999998;"/><text fill="#000000" font-family="sans-serif" font-size="9.8" lengthAdjust="spacing" textLength="137.9" x="417.55" y="326.1795">listCandidateData(Email: email)</text></g><!--class UI--><g id="elem_UI"><rect codeLine="8" fill="#F1F1F1" height="57.3043" id="UI" rx="1.75" ry="1.75" style="stroke:#181818;stroke-width:0.3499999999999999;" width="112.7" x="554.75" y="4.9"/><ellipse cx="565.25" cy="21.4348" fill="#ADD1B2" rx="7.7" ry="7.7" style="stroke:#181818;stroke-width:0.6999999999999998;"/><path d="M567.1859,18.5473 Q567.2953,18.3941 567.4266,18.3176 Q567.5578,18.241 567.7109,18.241 Q567.9734,18.241 568.1375,18.427 Q568.3016,18.602 568.3016,19.0285 L568.3016,20.0457 Q568.3016,20.4723 568.1375,20.6582 Q567.9734,20.8441 567.7109,20.8441 Q567.4703,20.8441 567.3281,20.702 Q567.1859,20.5707 567.1094,20.2098 Q567.0766,19.9582 566.9453,19.827 Q566.7156,19.5645 566.2891,19.4113 Q565.8625,19.2582 565.425,19.2582 Q564.8891,19.2582 564.4406,19.4879 Q564.0031,19.7176 563.6531,20.2426 Q563.3141,20.7676 563.3141,21.4895 L563.3141,22.2551 Q563.3141,23.1191 563.9375,23.6988 Q564.5609,24.2676 565.6766,24.2676 Q566.3328,24.2676 566.7922,24.0926 Q567.0656,23.9832 567.3609,23.677 Q567.5469,23.491 567.6453,23.4363 Q567.7547,23.3816 567.8969,23.3816 Q568.1266,23.3816 568.3016,23.5676 Q568.4875,23.7426 568.4875,23.9832 Q568.4875,24.2238 568.2469,24.5082 Q567.8969,24.9129 567.3391,25.1426 Q566.5844,25.4598 565.6766,25.4598 Q564.6156,25.4598 563.7734,25.0223 Q563.0844,24.6723 562.6031,23.9285 Q562.1219,23.1738 562.1219,22.277 L562.1219,21.4676 Q562.1219,20.5379 562.5484,19.7395 Q562.9859,18.9301 563.7516,18.5035 Q564.5172,18.066 565.3812,18.066 Q565.8953,18.066 566.3437,18.1863 Q566.8031,18.2957 567.1859,18.5473 Z " fill="#000000"/><text fill="#000000" font-family="sans-serif" font-size="9.8" lengthAdjust="spacing" textLength="67.2" x="586.6" y="18.9752">&#171;Presentation&#187;</text><text fill="#000000" font-family="sans-serif" font-size="9.8" lengthAdjust="spacing" textLength="90.3" x="575.05" y="32.01">ListCandidateDataUI</text><line style="stroke:#181818;stroke-width:0.3499999999999999;" x1="555.45" x2="666.75" y1="37.9695" y2="37.9695"/><line style="stroke:#181818;stroke-width:0.6999999999999998;stroke-dasharray:1.0,2.0;" x1="555.45" x2="666.75" y1="43.5695" y2="43.5695"/><ellipse cx="562.45" cy="53.9369" fill="#84BE84" rx="2.1" ry="2.1" style="stroke:#038048;stroke-width:0.6999999999999998;"/><text fill="#000000" font-family="sans-serif" font-size="9.8" lengthAdjust="spacing" textLength="42" x="568.75" y="56.9447">doShow()</text></g><!--class CTRL--><g id="elem_CTRL"><rect codeLine="12" fill="#F1F1F1" height="57.3043" id="CTRL" rx="1.75" ry="1.75" style="stroke:#181818;stroke-width:0.3499999999999999;" width="147.7" x="465.15" y="161"/><ellipse cx="475.65" cy="177.5348" fill="#ADD1B2" rx="7.7" ry="7.7" style="stroke:#181818;stroke-width:0.6999999999999998;"/><path d="M477.5859,174.6473 Q477.6953,174.4941 477.8266,174.4176 Q477.9578,174.341 478.1109,174.341 Q478.3734,174.341 478.5375,174.527 Q478.7016,174.702 478.7016,175.1285 L478.7016,176.1457 Q478.7016,176.5723 478.5375,176.7582 Q478.3734,176.9441 478.1109,176.9441 Q477.8703,176.9441 477.7281,176.802 Q477.5859,176.6707 477.5094,176.3098 Q477.4766,176.0582 477.3453,175.927 Q477.1156,175.6645 476.6891,175.5113 Q476.2625,175.3582 475.825,175.3582 Q475.2891,175.3582 474.8406,175.5879 Q474.4031,175.8176 474.0531,176.3426 Q473.7141,176.8676 473.7141,177.5895 L473.7141,178.3551 Q473.7141,179.2191 474.3375,179.7988 Q474.9609,180.3676 476.0766,180.3676 Q476.7328,180.3676 477.1922,180.1926 Q477.4656,180.0832 477.7609,179.777 Q477.9469,179.591 478.0453,179.5363 Q478.1547,179.4816 478.2969,179.4816 Q478.5266,179.4816 478.7016,179.6676 Q478.8875,179.8426 478.8875,180.0832 Q478.8875,180.3238 478.6469,180.6082 Q478.2969,181.0129 477.7391,181.2426 Q476.9844,181.5598 476.0766,181.5598 Q475.0156,181.5598 474.1734,181.1223 Q473.4844,180.7723 473.0031,180.0285 Q472.5219,179.2738 472.5219,178.377 L472.5219,177.5676 Q472.5219,176.6379 472.9484,175.8395 Q473.3859,175.0301 474.1516,174.6035 Q474.9172,174.166 475.7812,174.166 Q476.2953,174.166 476.7437,174.2863 Q477.2031,174.3957 477.5859,174.6473 Z " fill="#000000"/><text fill="#000000" font-family="sans-serif" font-size="9.8" lengthAdjust="spacing" textLength="59.5" x="518.35" y="175.0752">&#171;Application&#187;</text><text fill="#000000" font-family="sans-serif" font-size="9.8" lengthAdjust="spacing" textLength="125.3" x="485.45" y="188.11">ListCandidateDataController</text><line style="stroke:#181818;stroke-width:0.3499999999999999;" x1="465.85" x2="612.15" y1="194.0695" y2="194.0695"/><line style="stroke:#181818;stroke-width:0.6999999999999998;stroke-dasharray:1.0,2.0;" x1="465.85" x2="612.15" y1="199.6695" y2="199.6695"/><ellipse cx="472.85" cy="210.0369" fill="#84BE84" rx="2.1" ry="2.1" style="stroke:#038048;stroke-width:0.6999999999999998;"/><text fill="#000000" font-family="sans-serif" font-size="9.8" lengthAdjust="spacing" textLength="69.3" x="479.15" y="213.0447">listCandidates()</text></g><!--class DREPO--><g id="elem_DREPO"><rect codeLine="16" fill="#F1F1F1" height="96.4086" id="DREPO" rx="1.75" ry="1.75" style="stroke:#181818;stroke-width:0.3499999999999999;" width="172.2" x="511" y="785.4"/><ellipse cx="553.525" cy="801.9348" fill="#B4A7E5" rx="7.7" ry="7.7" style="stroke:#181818;stroke-width:0.6999999999999998;"/><path d="M554.1922,799.5832 L554.1922,804.2426 L555.3953,804.2426 Q555.8219,804.2426 556.0078,804.4066 Q556.1937,804.5707 556.1937,804.8441 Q556.1937,805.1066 556.0078,805.2707 Q555.8219,805.4348 555.3953,805.4348 L551.7969,805.4348 Q551.3703,805.4348 551.1844,805.2707 Q550.9984,805.1066 550.9984,804.8332 Q550.9984,804.5707 551.1844,804.4066 Q551.3703,804.2426 551.7969,804.2426 L553,804.2426 L553,799.5832 L551.7969,799.5832 Q551.3703,799.5832 551.1844,799.4191 Q550.9984,799.2551 550.9984,798.9816 Q550.9984,798.7191 551.1844,798.5551 Q551.3703,798.391 551.7969,798.391 L555.3953,798.391 Q555.8219,798.391 556.0078,798.5551 Q556.1937,798.7191 556.1937,798.9816 Q556.1937,799.2551 556.0078,799.4191 Q555.8219,799.5832 555.3953,799.5832 L554.1922,799.5832 Z " fill="#000000"/><text fill="#000000" font-family="sans-serif" font-size="9.8" font-style="italic" lengthAdjust="spacing" textLength="77" x="569.975" y="799.4752">&#171;Persistentence&#187;</text><text fill="#000000" font-family="sans-serif" font-size="9.8" font-style="italic" lengthAdjust="spacing" textLength="81.2" x="567.875" y="812.51">DomainRepository</text><line style="stroke:#181818;stroke-width:0.3499999999999999;" x1="511.7" x2="682.5" y1="818.4695" y2="818.4695"/><line style="stroke:#181818;stroke-width:0.6999999999999998;stroke-dasharray:1.0,2.0;" x1="511.7" x2="682.5" y1="824.0695" y2="824.0695"/><rect fill="#F24D5C" height="4.2" style="stroke:#C82930;stroke-width:0.6999999999999998;" width="4.2" x="516.6" y="832.3369"/><text fill="#000000" font-family="sans-serif" font-size="9.8" lengthAdjust="spacing" textLength="33.6" x="525" y="837.4447">findAll()</text><rect fill="#F24D5C" height="4.2" style="stroke:#C82930;stroke-width:0.6999999999999998;" width="4.2" x="516.6" y="845.3717"/><text fill="#000000" font-family="sans-serif" font-size="9.8" lengthAdjust="spacing" textLength="154" x="525" y="850.4795">findAllById(Iterable&lt;Email&gt;: emails)</text><rect fill="#F24D5C" height="4.2" style="stroke:#C82930;stroke-width:0.6999999999999998;" width="4.2" x="516.6" y="858.4064"/><text fill="#000000" font-family="sans-serif" font-size="9.8" lengthAdjust="spacing" textLength="94.5" x="525" y="863.5143">findById(Email: email)</text><rect fill="#F24D5C" height="4.2" style="stroke:#C82930;stroke-width:0.6999999999999998;" width="4.2" x="516.6" y="871.4412"/><text fill="#000000" font-family="sans-serif" font-size="9.8" lengthAdjust="spacing" textLength="82.6" x="525" y="876.549">save(Entity: Entity)</text></g><!--class ABUI--><g id="elem_ABUI"><rect codeLine="23" fill="#F1F1F1" height="57.3043" id="ABUI" rx="1.75" ry="1.75" style="stroke:#181818;stroke-width:0.3499999999999999;" width="89.6" x="637.7" y="161"/><ellipse cx="648.2" cy="177.5348" fill="#B4A7E5" rx="7.7" ry="7.7" style="stroke:#181818;stroke-width:0.6999999999999998;"/><path d="M648.8672,175.1832 L648.8672,179.8426 L650.0703,179.8426 Q650.4969,179.8426 650.6828,180.0066 Q650.8687,180.1707 650.8687,180.4441 Q650.8687,180.7066 650.6828,180.8707 Q650.4969,181.0348 650.0703,181.0348 L646.4719,181.0348 Q646.0453,181.0348 645.8594,180.8707 Q645.6734,180.7066 645.6734,180.4332 Q645.6734,180.1707 645.8594,180.0066 Q646.0453,179.8426 646.4719,179.8426 L647.675,179.8426 L647.675,175.1832 L646.4719,175.1832 Q646.0453,175.1832 645.8594,175.0191 Q645.6734,174.8551 645.6734,174.5816 Q645.6734,174.3191 645.8594,174.1551 Q646.0453,173.991 646.4719,173.991 L650.0703,173.991 Q650.4969,173.991 650.6828,174.1551 Q650.8687,174.3191 650.8687,174.5816 Q650.8687,174.8551 650.6828,175.0191 Q650.4969,175.1832 650.0703,175.1832 L648.8672,175.1832 Z " fill="#000000"/><text fill="#000000" font-family="sans-serif" font-size="9.8" font-style="italic" lengthAdjust="spacing" textLength="67.2" x="658" y="175.0752">&#171;Presentation&#187;</text><text fill="#000000" font-family="sans-serif" font-size="9.8" font-style="italic" lengthAdjust="spacing" textLength="46.2" x="668.5" y="188.11">AbstractUI</text><line style="stroke:#181818;stroke-width:0.3499999999999999;" x1="638.4" x2="726.6" y1="194.0695" y2="194.0695"/><line style="stroke:#181818;stroke-width:0.6999999999999998;stroke-dasharray:1.0,2.0;" x1="638.4" x2="726.6" y1="199.6695" y2="199.6695"/><rect fill="#F24D5C" height="4.2" style="stroke:#C82930;stroke-width:0.6999999999999998;" width="4.2" x="643.3" y="207.9369"/><text fill="#000000" font-family="sans-serif" font-size="9.8" lengthAdjust="spacing" textLength="42" x="651.7" y="213.0447">doShow()</text></g><!--class CREPO--><g id="elem_CREPO"><rect codeLine="27" fill="#F1F1F1" height="109.4434" id="CREPO" rx="1.75" ry="1.75" style="stroke:#181818;stroke-width:0.3499999999999999;" width="172.2" x="511" y="577.5"/><ellipse cx="547.575" cy="600.5521" fill="#ADD1B2" rx="7.7" ry="7.7" style="stroke:#181818;stroke-width:0.6999999999999998;"/><path d="M549.5109,597.6646 Q549.6203,597.5115 549.7516,597.435 Q549.8828,597.3584 550.0359,597.3584 Q550.2984,597.3584 550.4625,597.5443 Q550.6266,597.7193 550.6266,598.1459 L550.6266,599.1631 Q550.6266,599.5896 550.4625,599.7756 Q550.2984,599.9615 550.0359,599.9615 Q549.7953,599.9615 549.6531,599.8193 Q549.5109,599.6881 549.4344,599.3271 Q549.4016,599.0756 549.2703,598.9443 Q549.0406,598.6818 548.6141,598.5287 Q548.1875,598.3756 547.75,598.3756 Q547.2141,598.3756 546.7656,598.6053 Q546.3281,598.835 545.9781,599.36 Q545.6391,599.885 545.6391,600.6068 L545.6391,601.3725 Q545.6391,602.2365 546.2625,602.8162 Q546.8859,603.385 548.0016,603.385 Q548.6578,603.385 549.1172,603.21 Q549.3906,603.1006 549.6859,602.7943 Q549.8719,602.6084 549.9703,602.5537 Q550.0797,602.499 550.2219,602.499 Q550.4516,602.499 550.6266,602.685 Q550.8125,602.86 550.8125,603.1006 Q550.8125,603.3412 550.5719,603.6256 Q550.2219,604.0303 549.6641,604.26 Q548.9094,604.5771 548.0016,604.5771 Q546.9406,604.5771 546.0984,604.1396 Q545.4094,603.7896 544.9281,603.0459 Q544.4469,602.2912 544.4469,601.3943 L544.4469,600.585 Q544.4469,599.6553 544.8734,598.8568 Q545.3109,598.0475 546.0766,597.6209 Q546.8422,597.1834 547.7062,597.1834 Q548.2203,597.1834 548.6687,597.3037 Q549.1281,597.4131 549.5109,597.6646 Z " fill="#000000"/><text fill="#000000" font-family="sans-serif" font-size="9.8" lengthAdjust="spacing" textLength="63" x="576.975" y="591.5752">&#171;Persistence&#187;</text><text fill="#000000" font-family="sans-serif" font-size="9.8" lengthAdjust="spacing" textLength="58.8" x="579.075" y="604.61">&#171;Repository&#187;</text><text fill="#000000" font-family="sans-serif" font-size="9.8" lengthAdjust="spacing" textLength="93.1" x="561.925" y="617.6447">CandidateRepository</text><line style="stroke:#181818;stroke-width:0.3499999999999999;" x1="511.7" x2="682.5" y1="623.6043" y2="623.6043"/><line style="stroke:#181818;stroke-width:0.6999999999999998;stroke-dasharray:1.0,2.0;" x1="511.7" x2="682.5" y1="629.2043" y2="629.2043"/><ellipse cx="518.7" cy="639.5717" fill="#84BE84" rx="2.1" ry="2.1" style="stroke:#038048;stroke-width:0.6999999999999998;"/><text fill="#000000" font-family="sans-serif" font-size="9.8" lengthAdjust="spacing" textLength="33.6" x="525" y="642.5795">findAll()</text><ellipse cx="518.7" cy="652.6064" fill="#84BE84" rx="2.1" ry="2.1" style="stroke:#038048;stroke-width:0.6999999999999998;"/><text fill="#000000" font-family="sans-serif" font-size="9.8" lengthAdjust="spacing" textLength="154" x="525" y="655.6143">findAllById(Iterable&lt;Email&gt;: emails)</text><ellipse cx="518.7" cy="665.6412" fill="#84BE84" rx="2.1" ry="2.1" style="stroke:#038048;stroke-width:0.6999999999999998;"/><text fill="#000000" font-family="sans-serif" font-size="9.8" lengthAdjust="spacing" textLength="94.5" x="525" y="668.649">findById(Email: email)</text><ellipse cx="518.7" cy="678.676" fill="#84BE84" rx="2.1" ry="2.1" style="stroke:#038048;stroke-width:0.6999999999999998;"/><text fill="#000000" font-family="sans-serif" font-size="9.8" lengthAdjust="spacing" textLength="82.6" x="525" y="681.6838">save(Entity: Entity)</text></g><!--class C--><g id="elem_C"><rect codeLine="34" fill="#F1F1F1" height="148.5477" id="C" rx="1.75" ry="1.75" style="stroke:#181818;stroke-width:0.3499999999999999;" width="130.2" x="334.6" y="373.8"/><ellipse cx="366.975" cy="396.8521" fill="#ADD1B2" rx="7.7" ry="7.7" style="stroke:#181818;stroke-width:0.6999999999999998;"/><path d="M368.9109,393.9646 Q369.0203,393.8115 369.1516,393.735 Q369.2828,393.6584 369.4359,393.6584 Q369.6984,393.6584 369.8625,393.8443 Q370.0266,394.0193 370.0266,394.4459 L370.0266,395.4631 Q370.0266,395.8896 369.8625,396.0756 Q369.6984,396.2615 369.4359,396.2615 Q369.1953,396.2615 369.0531,396.1193 Q368.9109,395.9881 368.8344,395.6271 Q368.8016,395.3756 368.6703,395.2443 Q368.4406,394.9818 368.0141,394.8287 Q367.5875,394.6756 367.15,394.6756 Q366.6141,394.6756 366.1656,394.9053 Q365.7281,395.135 365.3781,395.66 Q365.0391,396.185 365.0391,396.9068 L365.0391,397.6725 Q365.0391,398.5365 365.6625,399.1162 Q366.2859,399.685 367.4016,399.685 Q368.0578,399.685 368.5172,399.51 Q368.7906,399.4006 369.0859,399.0943 Q369.2719,398.9084 369.3703,398.8537 Q369.4797,398.799 369.6219,398.799 Q369.8516,398.799 370.0266,398.985 Q370.2125,399.16 370.2125,399.4006 Q370.2125,399.6412 369.9719,399.9256 Q369.6219,400.3303 369.0641,400.56 Q368.3094,400.8771 367.4016,400.8771 Q366.3406,400.8771 365.4984,400.4396 Q364.8094,400.0896 364.3281,399.3459 Q363.8469,398.5912 363.8469,397.6943 L363.8469,396.885 Q363.8469,395.9553 364.2734,395.1568 Q364.7109,394.3475 365.4766,393.9209 Q366.2422,393.4834 367.1062,393.4834 Q367.6203,393.4834 368.0687,393.6037 Q368.5281,393.7131 368.9109,393.9646 Z " fill="#000000"/><text fill="#000000" font-family="sans-serif" font-size="9.8" lengthAdjust="spacing" textLength="44.8" x="388.675" y="387.8752">&#171;Domain&#187;</text><text fill="#000000" font-family="sans-serif" font-size="9.8" lengthAdjust="spacing" textLength="59.5" x="381.325" y="400.91">&#171;Root Entity&#187;</text><text fill="#000000" font-family="sans-serif" font-size="9.8" lengthAdjust="spacing" textLength="45.5" x="388.325" y="413.9447">Candidate</text><line style="stroke:#181818;stroke-width:0.3499999999999999;" x1="335.3" x2="464.1" y1="419.9043" y2="419.9043"/><rect fill="none" height="4.2" style="stroke:#C82930;stroke-width:0.6999999999999998;" width="4.2" x="340.2" y="428.1717"/><text fill="#000000" font-family="sans-serif" font-size="9.8" lengthAdjust="spacing" textLength="100.8" x="348.6" y="433.2795">CandidateName: name</text><rect fill="none" height="4.2" style="stroke:#C82930;stroke-width:0.6999999999999998;" width="4.2" x="340.2" y="441.2064"/><text fill="#000000" font-family="sans-serif" font-size="9.8" lengthAdjust="spacing" textLength="52.5" x="348.6" y="446.3143">Email: email</text><rect fill="none" height="4.2" style="stroke:#C82930;stroke-width:0.6999999999999998;" width="4.2" x="340.2" y="454.2412"/><text fill="#000000" font-family="sans-serif" font-size="9.8" lengthAdjust="spacing" textLength="102.2" x="348.6" y="459.349">PhoneNumber: number</text><line style="stroke:#181818;stroke-width:0.6999999999999998;stroke-dasharray:1.0,2.0;" x1="335.3" x2="464.1" y1="464.6086" y2="464.6086"/><ellipse cx="342.3" cy="474.976" fill="#84BE84" rx="2.1" ry="2.1" style="stroke:#038048;stroke-width:0.6999999999999998;"/><text fill="#000000" font-family="sans-serif" font-size="9.8" lengthAdjust="spacing" textLength="112" x="348.6" y="477.9838">valueOfCandidateName()</text><ellipse cx="342.3" cy="488.0107" fill="#84BE84" rx="2.1" ry="2.1" style="stroke:#038048;stroke-width:0.6999999999999998;"/><text fill="#000000" font-family="sans-serif" font-size="9.8" lengthAdjust="spacing" textLength="65.1" x="348.6" y="491.0186">valueOfEmail()</text><ellipse cx="342.3" cy="501.0455" fill="#84BE84" rx="2.1" ry="2.1" style="stroke:#038048;stroke-width:0.6999999999999998;"/><text fill="#000000" font-family="sans-serif" font-size="9.8" lengthAdjust="spacing" textLength="104.3" x="348.6" y="504.0533">valueOfPhoneNumber()</text><ellipse cx="342.3" cy="514.0803" fill="#84BE84" rx="2.1" ry="2.1" style="stroke:#038048;stroke-width:0.6999999999999998;"/><text fill="#000000" font-family="sans-serif" font-size="9.8" lengthAdjust="spacing" textLength="41.3" x="348.6" y="517.0881">toString()</text></g><!--class CNAME--><g id="elem_CNAME"><rect codeLine="44" fill="#F1F1F1" height="96.4086" id="CNAME" rx="1.75" ry="1.75" style="stroke:#181818;stroke-width:0.3499999999999999;" width="130.2" x="4.9" y="583.8"/><ellipse cx="32.095" cy="606.8521" fill="#ADD1B2" rx="7.7" ry="7.7" style="stroke:#181818;stroke-width:0.6999999999999998;"/><path d="M34.0309,603.9646 Q34.1403,603.8115 34.2716,603.735 Q34.4028,603.6584 34.5559,603.6584 Q34.8184,603.6584 34.9825,603.8443 Q35.1466,604.0193 35.1466,604.4459 L35.1466,605.4631 Q35.1466,605.8896 34.9825,606.0756 Q34.8184,606.2615 34.5559,606.2615 Q34.3153,606.2615 34.1731,606.1193 Q34.0309,605.9881 33.9544,605.6271 Q33.9216,605.3756 33.7903,605.2443 Q33.5606,604.9818 33.1341,604.8287 Q32.7075,604.6756 32.27,604.6756 Q31.7341,604.6756 31.2856,604.9053 Q30.8481,605.135 30.4981,605.66 Q30.1591,606.185 30.1591,606.9068 L30.1591,607.6725 Q30.1591,608.5365 30.7825,609.1162 Q31.4059,609.685 32.5216,609.685 Q33.1778,609.685 33.6372,609.51 Q33.9106,609.4006 34.2059,609.0943 Q34.3919,608.9084 34.4903,608.8537 Q34.5997,608.799 34.7419,608.799 Q34.9716,608.799 35.1466,608.985 Q35.3325,609.16 35.3325,609.4006 Q35.3325,609.6412 35.0919,609.9256 Q34.7419,610.3303 34.1841,610.56 Q33.4294,610.8771 32.5216,610.8771 Q31.4606,610.8771 30.6184,610.4396 Q29.9294,610.0896 29.4481,609.3459 Q28.9669,608.5912 28.9669,607.6943 L28.9669,606.885 Q28.9669,605.9553 29.3934,605.1568 Q29.8309,604.3475 30.5966,603.9209 Q31.3622,603.4834 32.2262,603.4834 Q32.7403,603.4834 33.1887,603.6037 Q33.6481,603.7131 34.0309,603.9646 Z " fill="#000000"/><text fill="#000000" font-family="sans-serif" font-size="9.8" lengthAdjust="spacing" textLength="44.8" x="58.555" y="597.8752">&#171;Domain&#187;</text><text fill="#000000" font-family="sans-serif" font-size="9.8" lengthAdjust="spacing" textLength="67.9" x="47.005" y="610.91">&#171;Value Object&#187;</text><text fill="#000000" font-family="sans-serif" font-size="9.8" lengthAdjust="spacing" textLength="70.7" x="45.605" y="623.9447">CandidateName</text><line style="stroke:#181818;stroke-width:0.3499999999999999;" x1="5.6" x2="134.4" y1="629.9043" y2="629.9043"/><rect fill="none" height="4.2" style="stroke:#C82930;stroke-width:0.6999999999999998;" width="4.2" x="10.5" y="638.1717"/><text fill="#000000" font-family="sans-serif" font-size="9.8" lengthAdjust="spacing" textLength="112" x="18.9" y="643.2795">String: nameOfCandidate</text><line style="stroke:#181818;stroke-width:0.6999999999999998;stroke-dasharray:1.0,2.0;" x1="5.6" x2="134.4" y1="648.5391" y2="648.5391"/><ellipse cx="12.6" cy="658.9064" fill="#84BE84" rx="2.1" ry="2.1" style="stroke:#038048;stroke-width:0.6999999999999998;"/><text fill="#000000" font-family="sans-serif" font-size="9.8" lengthAdjust="spacing" textLength="112" x="18.9" y="661.9143">valueOfCandidateName()</text><ellipse cx="12.6" cy="671.9412" fill="#84BE84" rx="2.1" ry="2.1" style="stroke:#038048;stroke-width:0.6999999999999998;"/><text fill="#000000" font-family="sans-serif" font-size="9.8" lengthAdjust="spacing" textLength="41.3" x="18.9" y="674.949">toString()</text></g><!--class CEMAIL--><g id="elem_CEMAIL"><rect codeLine="50" fill="#F1F1F1" height="96.4086" id="CEMAIL" rx="1.75" ry="1.75" style="stroke:#181818;stroke-width:0.3499999999999999;" width="128.8" x="159.6" y="583.8"/><ellipse cx="187.425" cy="606.8521" fill="#ADD1B2" rx="7.7" ry="7.7" style="stroke:#181818;stroke-width:0.6999999999999998;"/><path d="M189.3609,603.9646 Q189.4703,603.8115 189.6016,603.735 Q189.7328,603.6584 189.8859,603.6584 Q190.1484,603.6584 190.3125,603.8443 Q190.4766,604.0193 190.4766,604.4459 L190.4766,605.4631 Q190.4766,605.8896 190.3125,606.0756 Q190.1484,606.2615 189.8859,606.2615 Q189.6453,606.2615 189.5031,606.1193 Q189.3609,605.9881 189.2844,605.6271 Q189.2516,605.3756 189.1203,605.2443 Q188.8906,604.9818 188.4641,604.8287 Q188.0375,604.6756 187.6,604.6756 Q187.0641,604.6756 186.6156,604.9053 Q186.1781,605.135 185.8281,605.66 Q185.4891,606.185 185.4891,606.9068 L185.4891,607.6725 Q185.4891,608.5365 186.1125,609.1162 Q186.7359,609.685 187.8516,609.685 Q188.5078,609.685 188.9672,609.51 Q189.2406,609.4006 189.5359,609.0943 Q189.7219,608.9084 189.8203,608.8537 Q189.9297,608.799 190.0719,608.799 Q190.3016,608.799 190.4766,608.985 Q190.6625,609.16 190.6625,609.4006 Q190.6625,609.6412 190.4219,609.9256 Q190.0719,610.3303 189.5141,610.56 Q188.7594,610.8771 187.8516,610.8771 Q186.7906,610.8771 185.9484,610.4396 Q185.2594,610.0896 184.7781,609.3459 Q184.2969,608.5912 184.2969,607.6943 L184.2969,606.885 Q184.2969,605.9553 184.7234,605.1568 Q185.1609,604.3475 185.9266,603.9209 Q186.6922,603.4834 187.5562,603.4834 Q188.0703,603.4834 188.5187,603.6037 Q188.9781,603.7131 189.3609,603.9646 Z " fill="#000000"/><text fill="#000000" font-family="sans-serif" font-size="9.8" lengthAdjust="spacing" textLength="44.8" x="212.625" y="597.8752">&#171;Domain&#187;</text><text fill="#000000" font-family="sans-serif" font-size="9.8" lengthAdjust="spacing" textLength="67.9" x="201.075" y="610.91">&#171;Value Object&#187;</text><text fill="#000000" font-family="sans-serif" font-size="9.8" lengthAdjust="spacing" textLength="23.8" x="223.125" y="623.9447">Email</text><line style="stroke:#181818;stroke-width:0.3499999999999999;" x1="160.3" x2="287.7" y1="629.9043" y2="629.9043"/><rect fill="none" height="4.2" style="stroke:#C82930;stroke-width:0.6999999999999998;" width="4.2" x="165.2" y="638.1717"/><text fill="#000000" font-family="sans-serif" font-size="9.8" lengthAdjust="spacing" textLength="110.6" x="173.6" y="643.2795">String: emailOfCandidate</text><line style="stroke:#181818;stroke-width:0.6999999999999998;stroke-dasharray:1.0,2.0;" x1="160.3" x2="287.7" y1="648.5391" y2="648.5391"/><ellipse cx="167.3" cy="658.9064" fill="#84BE84" rx="2.1" ry="2.1" style="stroke:#038048;stroke-width:0.6999999999999998;"/><text fill="#000000" font-family="sans-serif" font-size="9.8" lengthAdjust="spacing" textLength="110.6" x="173.6" y="661.9143">valueOfCandidateEmail()</text><ellipse cx="167.3" cy="671.9412" fill="#84BE84" rx="2.1" ry="2.1" style="stroke:#038048;stroke-width:0.6999999999999998;"/><text fill="#000000" font-family="sans-serif" font-size="9.8" lengthAdjust="spacing" textLength="41.3" x="173.6" y="674.949">toString()</text></g><!--class CPHONE--><g id="elem_CPHONE"><rect codeLine="56" fill="#F1F1F1" height="96.4086" id="CPHONE" rx="1.75" ry="1.75" style="stroke:#181818;stroke-width:0.3499999999999999;" width="172.9" x="313.25" y="583.8"/><ellipse cx="362.775" cy="606.8521" fill="#ADD1B2" rx="7.7" ry="7.7" style="stroke:#181818;stroke-width:0.6999999999999998;"/><path d="M364.7109,603.9646 Q364.8203,603.8115 364.9516,603.735 Q365.0828,603.6584 365.2359,603.6584 Q365.4984,603.6584 365.6625,603.8443 Q365.8266,604.0193 365.8266,604.4459 L365.8266,605.4631 Q365.8266,605.8896 365.6625,606.0756 Q365.4984,606.2615 365.2359,606.2615 Q364.9953,606.2615 364.8531,606.1193 Q364.7109,605.9881 364.6344,605.6271 Q364.6016,605.3756 364.4703,605.2443 Q364.2406,604.9818 363.8141,604.8287 Q363.3875,604.6756 362.95,604.6756 Q362.4141,604.6756 361.9656,604.9053 Q361.5281,605.135 361.1781,605.66 Q360.8391,606.185 360.8391,606.9068 L360.8391,607.6725 Q360.8391,608.5365 361.4625,609.1162 Q362.0859,609.685 363.2016,609.685 Q363.8578,609.685 364.3172,609.51 Q364.5906,609.4006 364.8859,609.0943 Q365.0719,608.9084 365.1703,608.8537 Q365.2797,608.799 365.4219,608.799 Q365.6516,608.799 365.8266,608.985 Q366.0125,609.16 366.0125,609.4006 Q366.0125,609.6412 365.7719,609.9256 Q365.4219,610.3303 364.8641,610.56 Q364.1094,610.8771 363.2016,610.8771 Q362.1406,610.8771 361.2984,610.4396 Q360.6094,610.0896 360.1281,609.3459 Q359.6469,608.5912 359.6469,607.6943 L359.6469,606.885 Q359.6469,605.9553 360.0734,605.1568 Q360.5109,604.3475 361.2766,603.9209 Q362.0422,603.4834 362.9062,603.4834 Q363.4203,603.4834 363.8687,603.6037 Q364.3281,603.7131 364.7109,603.9646 Z " fill="#000000"/><text fill="#000000" font-family="sans-serif" font-size="9.8" lengthAdjust="spacing" textLength="44.8" x="388.675" y="597.8752">&#171;Domain&#187;</text><text fill="#000000" font-family="sans-serif" font-size="9.8" lengthAdjust="spacing" textLength="67.9" x="377.125" y="610.91">&#171;Value Object&#187;</text><text fill="#000000" font-family="sans-serif" font-size="9.8" lengthAdjust="spacing" textLength="63" x="379.575" y="623.9447">PhoneNumber</text><line style="stroke:#181818;stroke-width:0.3499999999999999;" x1="313.95" x2="485.45" y1="629.9043" y2="629.9043"/><rect fill="none" height="4.2" style="stroke:#C82930;stroke-width:0.6999999999999998;" width="4.2" x="318.85" y="638.1717"/><text fill="#000000" font-family="sans-serif" font-size="9.8" lengthAdjust="spacing" textLength="154.7" x="327.25" y="643.2795">Integer: phoneNumberOfCandidate</text><line style="stroke:#181818;stroke-width:0.6999999999999998;stroke-dasharray:1.0,2.0;" x1="313.95" x2="485.45" y1="648.5391" y2="648.5391"/><ellipse cx="320.95" cy="658.9064" fill="#84BE84" rx="2.1" ry="2.1" style="stroke:#038048;stroke-width:0.6999999999999998;"/><text fill="#000000" font-family="sans-serif" font-size="9.8" lengthAdjust="spacing" textLength="149.8" x="327.25" y="661.9143">valueOfCandidatePhoneNumber()</text><ellipse cx="320.95" cy="671.9412" fill="#84BE84" rx="2.1" ry="2.1" style="stroke:#038048;stroke-width:0.6999999999999998;"/><text fill="#000000" font-family="sans-serif" font-size="9.8" lengthAdjust="spacing" textLength="41.3" x="327.25" y="674.949">toString()</text></g><!--reverse link C to CPHONE--><g id="link_C_CPHONE"><path codeLine="63" d="M399.7,530.621 C399.7,551.348 399.7,564.942 399.7,583.723 " fill="none" id="C-backto-CPHONE" style="stroke:#181818;stroke-width:0.6999999999999998;"/><polygon fill="none" points="399.7,522.221,396.9,526.421,399.7,530.621,402.5,526.421,399.7,522.221" style="stroke:#181818;stroke-width:0.6999999999999998;"/></g><!--reverse link C to CNAME--><g id="link_C_CNAME"><path codeLine="64" d="M326.9047,482.455 C275.0697,507.151 208.838,540.344 147,577.5 C143.087,579.852 139.104,582.337 135.121,584.892 " fill="none" id="C-backto-CNAME" style="stroke:#181818;stroke-width:0.6999999999999998;"/><polygon fill="none" points="334.488,478.842,329.492,478.1207,326.9047,482.455,331.9007,483.1762,334.488,478.842" style="stroke:#181818;stroke-width:0.6999999999999998;"/></g><!--reverse link C to CEMAIL--><g id="link_C_CEMAIL"><path codeLine="65" d="M328.7002,522.5283 C307.2172,544.8653 289.611,563.171 269.878,583.695 " fill="none" id="C-backto-CEMAIL" style="stroke:#181818;stroke-width:0.6999999999999998;"/><polygon fill="none" points="334.523,516.474,329.5935,517.5602,328.7002,522.5283,333.6297,521.4421,334.523,516.474" style="stroke:#181818;stroke-width:0.6999999999999998;"/></g><!--link CREPO to DREPO--><g id="link_CREPO_DREPO"><path codeLine="67" d="M597.1,686.714 C597.1,717.402 597.1,742.91 597.1,772.541 " fill="none" id="CREPO-to-DREPO" style="stroke:#181818;stroke-width:0.6999999999999998;stroke-dasharray:7.0,7.0;"/><polygon fill="none" points="597.1,785.141,601.3,772.541,592.9,772.541,597.1,785.141" style="stroke:#181818;stroke-width:0.6999999999999998;"/><text fill="#000000" font-family="sans-serif" font-size="9.1" lengthAdjust="spacing" textLength="46.9" x="597.8" y="739.9198">implements</text></g><!--link UI to ABUI--><g id="link_UI_ABUI"><path codeLine="69" d="M624.029,62.314 C636.93,90.265 651.3545,121.5249 664.2625,149.4899 " fill="none" id="UI-to-ABUI" style="stroke:#181818;stroke-width:0.6999999999999998;stroke-dasharray:7.0,7.0;"/><polygon fill="none" points="669.543,160.93,668.0759,147.7297,660.4491,151.25,669.543,160.93" style="stroke:#181818;stroke-width:0.6999999999999998;"/><text fill="#000000" font-family="sans-serif" font-size="9.1" lengthAdjust="spacing" textLength="46.9" x="649.6" y="115.5198">implements</text></g><!--link UI to CTRL--><g id="link_UI_CTRL"><path codeLine="70" d="M598.045,62.314 C585.018,90.265 566.8913,129.1582 553.8573,157.1232 " fill="none" id="UI-to-CTRL" style="stroke:#181818;stroke-width:0.6999999999999998;stroke-dasharray:7.0,7.0;"/><polygon fill="#181818" points="552.083,160.93,557.2823,156.4026,553.5616,157.7576,552.2066,154.0369,552.083,160.93" style="stroke:#181818;stroke-width:0.6999999999999998;"/></g><!--link CTRL to CREPO--><g id="link_CTRL_CREPO"><path codeLine="72" d="M554.932,218.407 C561.351,231.049 568.12,246.414 571.9,261.1 C600.11,370.776 601.5713,500.1934 599.6533,573.1824 " fill="none" id="CTRL-to-CREPO" style="stroke:#181818;stroke-width:0.6999999999999998;stroke-dasharray:7.0,7.0;"/><polygon fill="#181818" points="599.543,577.381,602.5075,571.1567,599.6349,573.8822,596.9095,571.0096,599.543,577.381" style="stroke:#181818;stroke-width:0.6999999999999998;"/></g><!--link CTRL to SERVICE--><g id="link_CTRL_SERVICE"><path codeLine="73" d="M523.621,218.54 C516.481,231.602 509.9428,243.5623 502.4178,257.3173 " fill="none" id="CTRL-to-SERVICE" style="stroke:#181818;stroke-width:0.6999999999999998;stroke-dasharray:7.0,7.0;"/><polygon fill="#181818" points="500.402,261.002,505.8821,256.8189,502.0818,257.9315,500.9692,254.1312,500.402,261.002" style="stroke:#181818;stroke-width:0.6999999999999998;"/></g><!--link SERVICE to CREPO--><g id="link_SERVICE_CREPO"><path codeLine="75" d="M493.528,331.345 C513.639,389.62 553.0854,503.8939 577.0394,573.2779 " fill="none" id="SERVICE-to-CREPO" style="stroke:#181818;stroke-width:0.6999999999999998;"/><polygon fill="#181818" points="578.41,577.248,579.0008,570.3792,577.2678,573.9396,573.7074,572.2066,578.41,577.248" style="stroke:#181818;stroke-width:0.6999999999999998;"/></g><!--link SERVICE to C--><g id="link_SERVICE_C"><path codeLine="76" d="M462.91,331.142 C456.022,343.805 449.9229,355.0045 441.8659,369.8165 " fill="none" id="SERVICE-to-C" style="stroke:#181818;stroke-width:0.6999999999999998;"/><polygon fill="#181818" points="439.859,373.506,445.329,369.3097,441.5314,370.4314,440.4097,366.6338,439.859,373.506" style="stroke:#181818;stroke-width:0.6999999999999998;"/></g><!--link C to CREPO--><g id="link_C_CREPO"><path codeLine="78" d="M448.413,522.228 C457.996,534.338 468.517,546.259 479.5,556.5 C489.062,565.411 496.3982,571.468 507.4232,579.308 " fill="none" id="C-to-CREPO" style="stroke:#181818;stroke-width:0.6999999999999998;stroke-dasharray:7.0,7.0;"/><polygon fill="#181818" points="510.846,581.742,507.3344,575.8091,507.9937,579.7137,504.0891,580.3729,510.846,581.742" style="stroke:#181818;stroke-width:0.6999999999999998;"/><text fill="#000000" font-family="sans-serif" font-size="9.1" lengthAdjust="spacing" textLength="35" x="480.2" y="553.7198">stored in</text></g><!--SRC=[bLHDZzem4BtxLrXxAIkKSEWjYf2o8L8ZiO2WkwUzcCI0MyUER4E5jltlzHSX2T021vpnlBnvyvpnbvrIjOn6eveYflOL3GjUZGgAf0nAWhO2LG38duJLI3_2hU3xEcSxB8X2hC3mAm2f0SEdE9xm2X4s7d-mE5vXSI05Di6KI9KYLf8IAJn12ldS4qGIhhBbUvvcy1C2g7z3IFleGQPPQGInMPuD2Fmvrrm8B35JI17EhXPxossTjnn-sWfXw0kLVBNZlmRFRRQahYafRfEbd2d1ASN2agRVbzC-RKU_jFGvKrXia7RB2CP2QeZMZ9dpnzcsn3MNH75njDIJPRQOTxa3k26iJ2ZLf9tuvPYNWrpNG6kAOslNsFibsr2BwxZfan8Ty21ZYgXZ1DrwgRjdTBAMIg12UN-Jbxx3mLM7c_PTxt5yxjl4ZNCzEz9BEuOzEuRtsp7ybnt3MtPS_SwNd2kFwUXtghtY03RxCrJX23BzxpDj0NvhiUCCp_RL6WiDjMktyGEYUppVT4WR5tpIylOtMynDIl6L4eHj1pTxV3Slm_dw1ovKfqbJrpKwIrwpfbd7vxfigNoWXySrsNQTbkmroQSNOgp1TwlfklUud9RHJjJYstnsTiXCrjQSRdt6tQtjluS8KiY3mDSy1UQ4Ji_M8GspGnM6uU-nksyYIAgQuahFkGH03xJBcTdkf5ncREy_JMDkGHiQZdFehtO0JdTy49mmdHsZjtazWb8FFIuXOU0l]--></g></svg>