<?xml version="1.0" encoding="UTF-8" standalone="no"?><svg xmlns="http://www.w3.org/2000/svg" xmlns:xlink="http://www.w3.org/1999/xlink" contentStyleType="text/css" height="1315px" preserveAspectRatio="none" style="width:2007px;height:1315px;background:#FFFFFF;" version="1.1" viewBox="0 0 2007 1315" width="2007px" zoomAndPan="magnify"><defs/><g><!--cluster <<aggregate>> Interview Model--><g id="cluster_&lt;&lt;aggregate&gt;&gt; Interview Model"><path d="M8.5,218.8945 L280.5,218.8945 A3.75,3.75 0 0 1 283,221.3945 L290,250.0508 L554.5,250.0508 A2.5,2.5 0 0 1 557,252.5508 L557,581.3945 A2.5,2.5 0 0 1 554.5,583.8945 L8.5,583.8945 A2.5,2.5 0 0 1 6,581.3945 L6,221.3945 A2.5,2.5 0 0 1 8.5,218.8945 " fill="none" style="stroke:#000000;stroke-width:1.5;"/><line style="stroke:#000000;stroke-width:1.5;" x1="6" x2="290" y1="250.0508" y2="250.0508"/><text fill="#000000" font-family="sans-serif" font-size="20" font-weight="bold" lengthAdjust="spacing" textLength="271" x="10" y="241.6563">«aggregate» Interview Model</text></g><!--cluster <<aggregate>> Customer Manager--><g id="cluster_&lt;&lt;aggregate&gt;&gt; Customer Manager"><path d="M589.5,6.8945 L893.5,6.8945 A3.75,3.75 0 0 1 896,9.3945 L903,38.0508 L903.5,38.0508 A2.5,2.5 0 0 1 906,40.5508 L906,157.3945 A2.5,2.5 0 0 1 903.5,159.8945 L589.5,159.8945 A2.5,2.5 0 0 1 587,157.3945 L587,9.3945 A2.5,2.5 0 0 1 589.5,6.8945 " fill="none" style="stroke:#000000;stroke-width:1.5;"/><line style="stroke:#000000;stroke-width:1.5;" x1="587" x2="903" y1="38.0508" y2="38.0508"/><text fill="#000000" font-family="sans-serif" font-size="20" font-weight="bold" lengthAdjust="spacing" textLength="303" x="591" y="29.6563">«aggregate» Customer Manager</text></g><!--cluster <<aggregate>> Candidate--><g id="cluster_&lt;&lt;aggregate&gt;&gt; Candidate"><path d="M855.5,218.8945 L1074.5,218.8945 A3.75,3.75 0 0 1 1077,221.3945 L1084,250.0508 L1084.5,250.0508 A2.5,2.5 0 0 1 1087,252.5508 L1087,369.3945 A2.5,2.5 0 0 1 1084.5,371.8945 L855.5,371.8945 A2.5,2.5 0 0 1 853,369.3945 L853,221.3945 A2.5,2.5 0 0 1 855.5,218.8945 " fill="none" style="stroke:#000000;stroke-width:1.5;"/><line style="stroke:#000000;stroke-width:1.5;" x1="853" x2="1084" y1="250.0508" y2="250.0508"/><text fill="#000000" font-family="sans-serif" font-size="20" font-weight="bold" lengthAdjust="spacing" textLength="218" x="857" y="241.6563">«aggregate» Candidate</text></g><!--cluster <<aggregate>> Application--><g id="cluster_&lt;&lt;aggregate&gt;&gt; Application"><path d="M583.5,430.8945 L812.5,430.8945 A3.75,3.75 0 0 1 815,433.3945 L822,462.0508 L1997.5,462.0508 A2.5,2.5 0 0 1 2000,464.5508 L2000,1306.3945 A2.5,2.5 0 0 1 1997.5,1308.8945 L583.5,1308.8945 A2.5,2.5 0 0 1 581,1306.3945 L581,433.3945 A2.5,2.5 0 0 1 583.5,430.8945 " fill="none" style="stroke:#000000;stroke-width:1.5;"/><line style="stroke:#000000;stroke-width:1.5;" x1="581" x2="822" y1="462.0508" y2="462.0508"/><text fill="#000000" font-family="sans-serif" font-size="20" font-weight="bold" lengthAdjust="spacing" textLength="228" x="585" y="453.6563">«aggregate» Application</text></g><!--class InterviewModel--><g id="elem_InterviewModel"><rect codeLine="10" fill="#F5F5DC" height="93.4688" id="InterviewModel" rx="2.5" ry="2.5" style="stroke:#181818;stroke-width:0.5;" width="167" x="324.5" y="262.8945"/><ellipse cx="340.5" cy="305.6289" fill="#ADD1B2" rx="12" ry="12" style="stroke:#181818;stroke-width:1.0;"/><path d="M338.4531,306.6914 L338.4531,309.6289 L343.5469,309.6289 L343.5469,308.5352 Q343.5469,307.8164 343.8281,307.5195 Q344.1094,307.207 344.5625,307.207 Q345,307.207 345.2813,307.5195 Q345.5625,307.8164 345.5625,308.5352 L345.5625,311.6289 L336.125,311.6289 Q335.4063,311.6289 335.0938,311.3477 Q334.7969,311.0664 334.7969,310.6289 Q334.7969,310.1758 335.1094,309.9102 Q335.4219,309.6289 336.125,309.6289 L336.4375,309.6289 L336.4375,301.8008 L336.125,301.8008 Q335.4063,301.8008 335.0938,301.5195 Q334.7969,301.2383 334.7969,300.7852 Q334.7969,300.332 335.0938,300.0664 Q335.4063,299.7852 336.125,299.7852 L345.1094,299.7852 L345.1094,302.832 Q345.1094,303.5508 344.8281,303.8633 Q344.5625,304.1602 344.125,304.1602 Q343.6719,304.1602 343.3906,303.8633 Q343.1094,303.5664 343.1094,302.832 L343.1094,301.8008 L338.4531,301.8008 L338.4531,304.6914 L340.2031,304.6914 Q340.2031,303.9102 340.3438,303.6758 Q340.6563,303.207 341.2031,303.207 Q341.6563,303.207 341.9219,303.5195 Q342.2031,303.8164 342.2031,304.5352 L342.2031,306.8477 Q342.2031,307.5039 342.0469,307.7227 Q341.7344,308.1758 341.2031,308.1758 Q340.6563,308.1758 340.3438,307.707 Q340.2031,307.4727 340.2031,306.6914 L338.4531,306.6914 Z " fill="#000000"/><text fill="#000000" font-family="sans-serif" font-size="20" font-style="italic" lengthAdjust="spacing" textLength="69" x="387.5" y="288.6563">«entity»</text><text fill="#000000" font-family="sans-serif" font-size="20" font-style="italic" lengthAdjust="spacing" textLength="56" x="394" y="313.8125">«root»</text><text fill="#000000" font-family="sans-serif" font-size="20" lengthAdjust="spacing" textLength="133" x="355.5" y="338.9688">InterviewModel</text><line style="stroke:#181818;stroke-width:0.5;" x1="325.5" x2="490.5" y1="348.3633" y2="348.3633"/></g><!--class InterviewModelName--><g id="elem_InterviewModelName"><rect codeLine="11" fill="#F5F5DC" height="93.4688" id="InterviewModelName" rx="2.5" ry="2.5" style="stroke:#181818;stroke-width:0.5;" width="218" x="22" y="474.8945"/><ellipse cx="38" cy="517.6289" fill="#FF8B40" rx="12" ry="12" style="stroke:#181818;stroke-width:1.0;"/><path d="M38.5,521.707 L41.3906,514.8008 L40.9375,514.8008 Q40.2188,514.8008 39.9063,514.5195 Q39.5938,514.2383 39.5938,513.7852 Q39.5938,513.332 39.9063,513.0664 Q40.2188,512.7852 40.9375,512.7852 L43.625,512.7852 Q44.3438,512.7852 44.6563,513.0664 Q44.9688,513.332 44.9688,513.7852 Q44.9688,514.332 44.5,514.6445 Q44.2656,514.8008 43.5781,514.8008 L39.4688,524.6289 L37.5469,524.6289 L33.4375,514.8008 Q32.7344,514.8008 32.5156,514.6445 Q32.0469,514.332 32.0469,513.7852 Q32.0469,513.332 32.3594,513.0664 Q32.6563,512.7852 33.375,512.7852 L36.0781,512.7852 Q36.7969,512.7852 37.0938,513.0664 Q37.4063,513.332 37.4063,513.7852 Q37.4063,514.2383 37.1094,514.5195 Q36.8125,514.8008 36.0781,514.8008 L35.6094,514.8008 L38.5,521.707 Z " fill="#000000"/><text fill="#000000" font-family="sans-serif" font-size="20" font-style="italic" lengthAdjust="spacing" textLength="128" x="81" y="500.6563">«value object»</text><text fill="#000000" font-family="sans-serif" font-size="20" font-style="italic" lengthAdjust="spacing" textLength="99" x="95.5" y="525.8125">«identifier»</text><text fill="#000000" font-family="sans-serif" font-size="20" lengthAdjust="spacing" textLength="184" x="53" y="550.9688">InterviewModelName</text><line style="stroke:#181818;stroke-width:0.5;" x1="23" x2="239" y1="560.3633" y2="560.3633"/></g><!--class InterviewModelDescription--><g id="elem_InterviewModelDescription"><rect codeLine="12" fill="#F5F5DC" height="68.3125" id="InterviewModelDescription" rx="2.5" ry="2.5" style="stroke:#181818;stroke-width:0.5;" width="265" x="275.5" y="487.3945"/><ellipse cx="291.5" cy="517.5508" fill="#FF8B40" rx="12" ry="12" style="stroke:#181818;stroke-width:1.0;"/><path d="M292,521.6289 L294.8906,514.7227 L294.4375,514.7227 Q293.7188,514.7227 293.4063,514.4414 Q293.0938,514.1602 293.0938,513.707 Q293.0938,513.2539 293.4063,512.9883 Q293.7188,512.707 294.4375,512.707 L297.125,512.707 Q297.8438,512.707 298.1563,512.9883 Q298.4688,513.2539 298.4688,513.707 Q298.4688,514.2539 298,514.5664 Q297.7656,514.7227 297.0781,514.7227 L292.9688,524.5508 L291.0469,524.5508 L286.9375,514.7227 Q286.2344,514.7227 286.0156,514.5664 Q285.5469,514.2539 285.5469,513.707 Q285.5469,513.2539 285.8594,512.9883 Q286.1563,512.707 286.875,512.707 L289.5781,512.707 Q290.2969,512.707 290.5938,512.9883 Q290.9063,513.2539 290.9063,513.707 Q290.9063,514.1602 290.6094,514.4414 Q290.3125,514.7227 289.5781,514.7227 L289.1094,514.7227 L292,521.6289 Z " fill="#000000"/><text fill="#000000" font-family="sans-serif" font-size="20" font-style="italic" lengthAdjust="spacing" textLength="128" x="358" y="513.1563">«value object»</text><text fill="#000000" font-family="sans-serif" font-size="20" lengthAdjust="spacing" textLength="231" x="306.5" y="538.3125">InterviewModelDescription</text><line style="stroke:#181818;stroke-width:0.5;" x1="276.5" x2="539.5" y1="547.707" y2="547.707"/></g><!--class CustomerManager--><g id="elem_CustomerManager"><rect codeLine="16" fill="#F5F5DC" height="93.4688" id="CustomerManager" rx="2.5" ry="2.5" style="stroke:#181818;stroke-width:0.5;" width="197" x="647.5" y="50.8945"/><ellipse cx="663.5" cy="93.6289" fill="#ADD1B2" rx="12" ry="12" style="stroke:#181818;stroke-width:1.0;"/><path d="M661.4531,94.6914 L661.4531,97.6289 L666.5469,97.6289 L666.5469,96.5352 Q666.5469,95.8164 666.8281,95.5195 Q667.1094,95.207 667.5625,95.207 Q668,95.207 668.2813,95.5195 Q668.5625,95.8164 668.5625,96.5352 L668.5625,99.6289 L659.125,99.6289 Q658.4063,99.6289 658.0938,99.3477 Q657.7969,99.0664 657.7969,98.6289 Q657.7969,98.1758 658.1094,97.9102 Q658.4219,97.6289 659.125,97.6289 L659.4375,97.6289 L659.4375,89.8008 L659.125,89.8008 Q658.4063,89.8008 658.0938,89.5195 Q657.7969,89.2383 657.7969,88.7852 Q657.7969,88.332 658.0938,88.0664 Q658.4063,87.7852 659.125,87.7852 L668.1094,87.7852 L668.1094,90.832 Q668.1094,91.5508 667.8281,91.8633 Q667.5625,92.1602 667.125,92.1602 Q666.6719,92.1602 666.3906,91.8633 Q666.1094,91.5664 666.1094,90.832 L666.1094,89.8008 L661.4531,89.8008 L661.4531,92.6914 L663.2031,92.6914 Q663.2031,91.9102 663.3438,91.6758 Q663.6563,91.207 664.2031,91.207 Q664.6563,91.207 664.9219,91.5195 Q665.2031,91.8164 665.2031,92.5352 L665.2031,94.8477 Q665.2031,95.5039 665.0469,95.7227 Q664.7344,96.1758 664.2031,96.1758 Q663.6563,96.1758 663.3438,95.707 Q663.2031,95.4727 663.2031,94.6914 L661.4531,94.6914 Z " fill="#000000"/><text fill="#000000" font-family="sans-serif" font-size="20" font-style="italic" lengthAdjust="spacing" textLength="69" x="725.5" y="76.6563">«entity»</text><text fill="#000000" font-family="sans-serif" font-size="20" font-style="italic" lengthAdjust="spacing" textLength="56" x="732" y="101.8125">«root»</text><text fill="#000000" font-family="sans-serif" font-size="20" lengthAdjust="spacing" textLength="163" x="678.5" y="126.9688">CustomerManager</text><line style="stroke:#181818;stroke-width:0.5;" x1="648.5" x2="843.5" y1="136.3633" y2="136.3633"/></g><!--class Candidate--><g id="elem_Candidate"><rect codeLine="20" fill="#F5F5DC" height="93.4688" id="Candidate" rx="2.5" ry="2.5" style="stroke:#181818;stroke-width:0.5;" width="123" x="908.5" y="262.8945"/><ellipse cx="924.5" cy="305.6289" fill="#ADD1B2" rx="12" ry="12" style="stroke:#181818;stroke-width:1.0;"/><path d="M922.4531,306.6914 L922.4531,309.6289 L927.5469,309.6289 L927.5469,308.5352 Q927.5469,307.8164 927.8281,307.5195 Q928.1094,307.207 928.5625,307.207 Q929,307.207 929.2813,307.5195 Q929.5625,307.8164 929.5625,308.5352 L929.5625,311.6289 L920.125,311.6289 Q919.4063,311.6289 919.0938,311.3477 Q918.7969,311.0664 918.7969,310.6289 Q918.7969,310.1758 919.1094,309.9102 Q919.4219,309.6289 920.125,309.6289 L920.4375,309.6289 L920.4375,301.8008 L920.125,301.8008 Q919.4063,301.8008 919.0938,301.5195 Q918.7969,301.2383 918.7969,300.7852 Q918.7969,300.332 919.0938,300.0664 Q919.4063,299.7852 920.125,299.7852 L929.1094,299.7852 L929.1094,302.832 Q929.1094,303.5508 928.8281,303.8633 Q928.5625,304.1602 928.125,304.1602 Q927.6719,304.1602 927.3906,303.8633 Q927.1094,303.5664 927.1094,302.832 L927.1094,301.8008 L922.4531,301.8008 L922.4531,304.6914 L924.2031,304.6914 Q924.2031,303.9102 924.3438,303.6758 Q924.6563,303.207 925.2031,303.207 Q925.6563,303.207 925.9219,303.5195 Q926.2031,303.8164 926.2031,304.5352 L926.2031,306.8477 Q926.2031,307.5039 926.0469,307.7227 Q925.7344,308.1758 925.2031,308.1758 Q924.6563,308.1758 924.3438,307.707 Q924.2031,307.4727 924.2031,306.6914 L922.4531,306.6914 Z " fill="#000000"/><text fill="#000000" font-family="sans-serif" font-size="20" font-style="italic" lengthAdjust="spacing" textLength="69" x="949.5" y="288.6563">«entity»</text><text fill="#000000" font-family="sans-serif" font-size="20" font-style="italic" lengthAdjust="spacing" textLength="56" x="956" y="313.8125">«root»</text><text fill="#000000" font-family="sans-serif" font-size="20" lengthAdjust="spacing" textLength="89" x="939.5" y="338.9688">Candidate</text><line style="stroke:#181818;stroke-width:0.5;" x1="909.5" x2="1030.5" y1="348.3633" y2="348.3633"/></g><!--class Application--><g id="elem_Application"><rect codeLine="24" fill="#F5F5DC" height="93.4688" id="Application" rx="2.5" ry="2.5" style="stroke:#181818;stroke-width:0.5;" width="129" x="1139.5" y="474.8945"/><ellipse cx="1155.5" cy="517.6289" fill="#ADD1B2" rx="12" ry="12" style="stroke:#181818;stroke-width:1.0;"/><path d="M1153.4531,518.6914 L1153.4531,521.6289 L1158.5469,521.6289 L1158.5469,520.5352 Q1158.5469,519.8164 1158.8281,519.5195 Q1159.1094,519.207 1159.5625,519.207 Q1160,519.207 1160.2813,519.5195 Q1160.5625,519.8164 1160.5625,520.5352 L1160.5625,523.6289 L1151.125,523.6289 Q1150.4063,523.6289 1150.0938,523.3477 Q1149.7969,523.0664 1149.7969,522.6289 Q1149.7969,522.1758 1150.1094,521.9102 Q1150.4219,521.6289 1151.125,521.6289 L1151.4375,521.6289 L1151.4375,513.8008 L1151.125,513.8008 Q1150.4063,513.8008 1150.0938,513.5195 Q1149.7969,513.2383 1149.7969,512.7852 Q1149.7969,512.332 1150.0938,512.0664 Q1150.4063,511.7852 1151.125,511.7852 L1160.1094,511.7852 L1160.1094,514.832 Q1160.1094,515.5508 1159.8281,515.8633 Q1159.5625,516.1602 1159.125,516.1602 Q1158.6719,516.1602 1158.3906,515.8633 Q1158.1094,515.5664 1158.1094,514.832 L1158.1094,513.8008 L1153.4531,513.8008 L1153.4531,516.6914 L1155.2031,516.6914 Q1155.2031,515.9102 1155.3438,515.6758 Q1155.6563,515.207 1156.2031,515.207 Q1156.6563,515.207 1156.9219,515.5195 Q1157.2031,515.8164 1157.2031,516.5352 L1157.2031,518.8477 Q1157.2031,519.5039 1157.0469,519.7227 Q1156.7344,520.1758 1156.2031,520.1758 Q1155.6563,520.1758 1155.3438,519.707 Q1155.2031,519.4727 1155.2031,518.6914 L1153.4531,518.6914 Z " fill="#000000"/><text fill="#000000" font-family="sans-serif" font-size="20" font-style="italic" lengthAdjust="spacing" textLength="69" x="1183.5" y="500.6563">«entity»</text><text fill="#000000" font-family="sans-serif" font-size="20" font-style="italic" lengthAdjust="spacing" textLength="56" x="1190" y="525.8125">«root»</text><text fill="#000000" font-family="sans-serif" font-size="20" lengthAdjust="spacing" textLength="95" x="1170.5" y="550.9688">Application</text><line style="stroke:#181818;stroke-width:0.5;" x1="1140.5" x2="1267.5" y1="560.3633" y2="560.3633"/></g><!--class Email--><g id="elem_Email"><rect codeLine="25" fill="#F5F5DC" height="68.3125" id="Email" rx="2.5" ry="2.5" style="stroke:#181818;stroke-width:0.5;" width="158" x="597" y="785.8945"/><ellipse cx="613" cy="816.0508" fill="#FF8B40" rx="12" ry="12" style="stroke:#181818;stroke-width:1.0;"/><path d="M613.5,820.1289 L616.3906,813.2227 L615.9375,813.2227 Q615.2188,813.2227 614.9063,812.9414 Q614.5938,812.6602 614.5938,812.207 Q614.5938,811.7539 614.9063,811.4883 Q615.2188,811.207 615.9375,811.207 L618.625,811.207 Q619.3438,811.207 619.6563,811.4883 Q619.9688,811.7539 619.9688,812.207 Q619.9688,812.7539 619.5,813.0664 Q619.2656,813.2227 618.5781,813.2227 L614.4688,823.0508 L612.5469,823.0508 L608.4375,813.2227 Q607.7344,813.2227 607.5156,813.0664 Q607.0469,812.7539 607.0469,812.207 Q607.0469,811.7539 607.3594,811.4883 Q607.6563,811.207 608.375,811.207 L611.0781,811.207 Q611.7969,811.207 612.0938,811.4883 Q612.4063,811.7539 612.4063,812.207 Q612.4063,812.6602 612.1094,812.9414 Q611.8125,813.2227 611.0781,813.2227 L610.6094,813.2227 L613.5,820.1289 Z " fill="#000000"/><text fill="#000000" font-family="sans-serif" font-size="20" font-style="italic" lengthAdjust="spacing" textLength="128" x="626" y="811.6563">«value object»</text><text fill="#000000" font-family="sans-serif" font-size="20" lengthAdjust="spacing" textLength="48" x="666" y="836.8125">Email</text><line style="stroke:#181818;stroke-width:0.5;" x1="598" x2="754" y1="846.207" y2="846.207"/></g><!--class ApplicationStatus--><g id="elem_ApplicationStatus"><rect codeLine="26" fill="#F5F5DC" height="68.3125" id="ApplicationStatus" rx="2.5" ry="2.5" style="stroke:#181818;stroke-width:0.5;" width="185" x="739.5" y="656.8945"/><ellipse cx="755.5" cy="687.0508" fill="#FF8B40" rx="12" ry="12" style="stroke:#181818;stroke-width:1.0;"/><path d="M756,691.1289 L758.8906,684.2227 L758.4375,684.2227 Q757.7188,684.2227 757.4063,683.9414 Q757.0938,683.6602 757.0938,683.207 Q757.0938,682.7539 757.4063,682.4883 Q757.7188,682.207 758.4375,682.207 L761.125,682.207 Q761.8438,682.207 762.1563,682.4883 Q762.4688,682.7539 762.4688,683.207 Q762.4688,683.7539 762,684.0664 Q761.7656,684.2227 761.0781,684.2227 L756.9688,694.0508 L755.0469,694.0508 L750.9375,684.2227 Q750.2344,684.2227 750.0156,684.0664 Q749.5469,683.7539 749.5469,683.207 Q749.5469,682.7539 749.8594,682.4883 Q750.1563,682.207 750.875,682.207 L753.5781,682.207 Q754.2969,682.207 754.5938,682.4883 Q754.9063,682.7539 754.9063,683.207 Q754.9063,683.6602 754.6094,683.9414 Q754.3125,684.2227 753.5781,684.2227 L753.1094,684.2227 L756,691.1289 Z " fill="#000000"/><text fill="#000000" font-family="sans-serif" font-size="20" font-style="italic" lengthAdjust="spacing" textLength="128" x="782" y="682.6563">«value object»</text><text fill="#000000" font-family="sans-serif" font-size="20" lengthAdjust="spacing" textLength="151" x="770.5" y="707.8125">ApplicationStatus</text><line style="stroke:#181818;stroke-width:0.5;" x1="740.5" x2="923.5" y1="717.207" y2="717.207"/></g><!--class CandidateName--><g id="elem_CandidateName"><rect codeLine="27" fill="#F5F5DC" height="68.3125" id="CandidateName" rx="2.5" ry="2.5" style="stroke:#181818;stroke-width:0.5;" width="174" x="960" y="656.8945"/><ellipse cx="976" cy="687.0508" fill="#FF8B40" rx="12" ry="12" style="stroke:#181818;stroke-width:1.0;"/><path d="M976.5,691.1289 L979.3906,684.2227 L978.9375,684.2227 Q978.2188,684.2227 977.9063,683.9414 Q977.5938,683.6602 977.5938,683.207 Q977.5938,682.7539 977.9063,682.4883 Q978.2188,682.207 978.9375,682.207 L981.625,682.207 Q982.3438,682.207 982.6563,682.4883 Q982.9688,682.7539 982.9688,683.207 Q982.9688,683.7539 982.5,684.0664 Q982.2656,684.2227 981.5781,684.2227 L977.4688,694.0508 L975.5469,694.0508 L971.4375,684.2227 Q970.7344,684.2227 970.5156,684.0664 Q970.0469,683.7539 970.0469,683.207 Q970.0469,682.7539 970.3594,682.4883 Q970.6563,682.207 971.375,682.207 L974.0781,682.207 Q974.7969,682.207 975.0938,682.4883 Q975.4063,682.7539 975.4063,683.207 Q975.4063,683.6602 975.1094,683.9414 Q974.8125,684.2227 974.0781,684.2227 L973.6094,684.2227 L976.5,691.1289 Z " fill="#000000"/><text fill="#000000" font-family="sans-serif" font-size="20" font-style="italic" lengthAdjust="spacing" textLength="128" x="997" y="682.6563">«value object»</text><text fill="#000000" font-family="sans-serif" font-size="20" lengthAdjust="spacing" textLength="140" x="991" y="707.8125">CandidateName</text><line style="stroke:#181818;stroke-width:0.5;" x1="961" x2="1133" y1="717.207" y2="717.207"/></g><!--class PhoneNumber--><g id="elem_PhoneNumber"><rect codeLine="28" fill="#F5F5DC" height="68.3125" id="PhoneNumber" rx="2.5" ry="2.5" style="stroke:#181818;stroke-width:0.5;" width="158" x="1099" y="785.8945"/><ellipse cx="1115" cy="816.0508" fill="#FF8B40" rx="12" ry="12" style="stroke:#181818;stroke-width:1.0;"/><path d="M1115.5,820.1289 L1118.3906,813.2227 L1117.9375,813.2227 Q1117.2188,813.2227 1116.9063,812.9414 Q1116.5938,812.6602 1116.5938,812.207 Q1116.5938,811.7539 1116.9063,811.4883 Q1117.2188,811.207 1117.9375,811.207 L1120.625,811.207 Q1121.3438,811.207 1121.6563,811.4883 Q1121.9688,811.7539 1121.9688,812.207 Q1121.9688,812.7539 1121.5,813.0664 Q1121.2656,813.2227 1120.5781,813.2227 L1116.4688,823.0508 L1114.5469,823.0508 L1110.4375,813.2227 Q1109.7344,813.2227 1109.5156,813.0664 Q1109.0469,812.7539 1109.0469,812.207 Q1109.0469,811.7539 1109.3594,811.4883 Q1109.6563,811.207 1110.375,811.207 L1113.0781,811.207 Q1113.7969,811.207 1114.0938,811.4883 Q1114.4063,811.7539 1114.4063,812.207 Q1114.4063,812.6602 1114.1094,812.9414 Q1113.8125,813.2227 1113.0781,813.2227 L1112.6094,813.2227 L1115.5,820.1289 Z " fill="#000000"/><text fill="#000000" font-family="sans-serif" font-size="20" font-style="italic" lengthAdjust="spacing" textLength="128" x="1128" y="811.6563">«value object»</text><text fill="#000000" font-family="sans-serif" font-size="20" lengthAdjust="spacing" textLength="123" x="1130.5" y="836.8125">PhoneNumber</text><line style="stroke:#181818;stroke-width:0.5;" x1="1100" x2="1256" y1="846.207" y2="846.207"/></g><!--class Interview--><g id="elem_Interview"><rect codeLine="29" fill="#F5F5DC" height="68.3125" id="Interview" rx="2.5" ry="2.5" style="stroke:#181818;stroke-width:0.5;" width="158" x="1292" y="785.8945"/><ellipse cx="1308" cy="816.0508" fill="#FF8B40" rx="12" ry="12" style="stroke:#181818;stroke-width:1.0;"/><path d="M1308.5,820.1289 L1311.3906,813.2227 L1310.9375,813.2227 Q1310.2188,813.2227 1309.9063,812.9414 Q1309.5938,812.6602 1309.5938,812.207 Q1309.5938,811.7539 1309.9063,811.4883 Q1310.2188,811.207 1310.9375,811.207 L1313.625,811.207 Q1314.3438,811.207 1314.6563,811.4883 Q1314.9688,811.7539 1314.9688,812.207 Q1314.9688,812.7539 1314.5,813.0664 Q1314.2656,813.2227 1313.5781,813.2227 L1309.4688,823.0508 L1307.5469,823.0508 L1303.4375,813.2227 Q1302.7344,813.2227 1302.5156,813.0664 Q1302.0469,812.7539 1302.0469,812.207 Q1302.0469,811.7539 1302.3594,811.4883 Q1302.6563,811.207 1303.375,811.207 L1306.0781,811.207 Q1306.7969,811.207 1307.0938,811.4883 Q1307.4063,811.7539 1307.4063,812.207 Q1307.4063,812.6602 1307.1094,812.9414 Q1306.8125,813.2227 1306.0781,813.2227 L1305.6094,813.2227 L1308.5,820.1289 Z " fill="#000000"/><text fill="#000000" font-family="sans-serif" font-size="20" font-style="italic" lengthAdjust="spacing" textLength="128" x="1321" y="811.6563">«value object»</text><text fill="#000000" font-family="sans-serif" font-size="20" lengthAdjust="spacing" textLength="79" x="1345.5" y="836.8125">Interview</text><line style="stroke:#181818;stroke-width:0.5;" x1="1293" x2="1449" y1="846.207" y2="846.207"/></g><!--class InterviewAnswer--><g id="elem_InterviewAnswer"><rect codeLine="36" fill="#F5F5DC" height="68.3125" id="InterviewAnswer" rx="2.5" ry="2.5" style="stroke:#181818;stroke-width:0.5;" width="179" x="1442.5" y="1069.8945"/><ellipse cx="1458.5" cy="1100.0508" fill="#FF8B40" rx="12" ry="12" style="stroke:#181818;stroke-width:1.0;"/><path d="M1459,1104.1289 L1461.8906,1097.2227 L1461.4375,1097.2227 Q1460.7188,1097.2227 1460.4063,1096.9414 Q1460.0938,1096.6602 1460.0938,1096.207 Q1460.0938,1095.7539 1460.4063,1095.4883 Q1460.7188,1095.207 1461.4375,1095.207 L1464.125,1095.207 Q1464.8438,1095.207 1465.1563,1095.4883 Q1465.4688,1095.7539 1465.4688,1096.207 Q1465.4688,1096.7539 1465,1097.0664 Q1464.7656,1097.2227 1464.0781,1097.2227 L1459.9688,1107.0508 L1458.0469,1107.0508 L1453.9375,1097.2227 Q1453.2344,1097.2227 1453.0156,1097.0664 Q1452.5469,1096.7539 1452.5469,1096.207 Q1452.5469,1095.7539 1452.8594,1095.4883 Q1453.1563,1095.207 1453.875,1095.207 L1456.5781,1095.207 Q1457.2969,1095.207 1457.5938,1095.4883 Q1457.9063,1095.7539 1457.9063,1096.207 Q1457.9063,1096.6602 1457.6094,1096.9414 Q1457.3125,1097.2227 1456.5781,1097.2227 L1456.1094,1097.2227 L1459,1104.1289 Z " fill="#000000"/><text fill="#000000" font-family="sans-serif" font-size="20" font-style="italic" lengthAdjust="spacing" textLength="128" x="1482" y="1095.6563">«value object»</text><text fill="#000000" font-family="sans-serif" font-size="20" lengthAdjust="spacing" textLength="145" x="1473.5" y="1120.8125">InterviewAnswer</text><line style="stroke:#181818;stroke-width:0.5;" x1="1443.5" x2="1620.5" y1="1130.207" y2="1130.207"/></g><!--class InterviewResult--><g id="elem_InterviewResult"><rect codeLine="31" fill="#F5F5DC" height="68.3125" id="InterviewResult" rx="2.5" ry="2.5" style="stroke:#181818;stroke-width:0.5;" width="168" x="953" y="1069.8945"/><ellipse cx="969" cy="1100.0508" fill="#FF8B40" rx="12" ry="12" style="stroke:#181818;stroke-width:1.0;"/><path d="M969.5,1104.1289 L972.3906,1097.2227 L971.9375,1097.2227 Q971.2188,1097.2227 970.9063,1096.9414 Q970.5938,1096.6602 970.5938,1096.207 Q970.5938,1095.7539 970.9063,1095.4883 Q971.2188,1095.207 971.9375,1095.207 L974.625,1095.207 Q975.3438,1095.207 975.6563,1095.4883 Q975.9688,1095.7539 975.9688,1096.207 Q975.9688,1096.7539 975.5,1097.0664 Q975.2656,1097.2227 974.5781,1097.2227 L970.4688,1107.0508 L968.5469,1107.0508 L964.4375,1097.2227 Q963.7344,1097.2227 963.5156,1097.0664 Q963.0469,1096.7539 963.0469,1096.207 Q963.0469,1095.7539 963.3594,1095.4883 Q963.6563,1095.207 964.375,1095.207 L967.0781,1095.207 Q967.7969,1095.207 968.0938,1095.4883 Q968.4063,1095.7539 968.4063,1096.207 Q968.4063,1096.6602 968.1094,1096.9414 Q967.8125,1097.2227 967.0781,1097.2227 L966.6094,1097.2227 L969.5,1104.1289 Z " fill="#000000"/><text fill="#000000" font-family="sans-serif" font-size="20" font-style="italic" lengthAdjust="spacing" textLength="128" x="987" y="1095.6563">«value object»</text><text fill="#000000" font-family="sans-serif" font-size="20" lengthAdjust="spacing" textLength="134" x="984" y="1120.8125">InterviewResult</text><line style="stroke:#181818;stroke-width:0.5;" x1="954" x2="1120" y1="1130.207" y2="1130.207"/></g><!--class Justification--><g id="elem_Justification"><rect codeLine="32" fill="#F5F5DC" height="68.3125" id="Justification" rx="2.5" ry="2.5" style="stroke:#181818;stroke-width:0.5;" width="158" x="958" y="1224.8945"/><ellipse cx="974" cy="1255.0508" fill="#FF8B40" rx="12" ry="12" style="stroke:#181818;stroke-width:1.0;"/><path d="M974.5,1259.1289 L977.3906,1252.2227 L976.9375,1252.2227 Q976.2188,1252.2227 975.9063,1251.9414 Q975.5938,1251.6602 975.5938,1251.207 Q975.5938,1250.7539 975.9063,1250.4883 Q976.2188,1250.207 976.9375,1250.207 L979.625,1250.207 Q980.3438,1250.207 980.6563,1250.4883 Q980.9688,1250.7539 980.9688,1251.207 Q980.9688,1251.7539 980.5,1252.0664 Q980.2656,1252.2227 979.5781,1252.2227 L975.4688,1262.0508 L973.5469,1262.0508 L969.4375,1252.2227 Q968.7344,1252.2227 968.5156,1252.0664 Q968.0469,1251.7539 968.0469,1251.207 Q968.0469,1250.7539 968.3594,1250.4883 Q968.6563,1250.207 969.375,1250.207 L972.0781,1250.207 Q972.7969,1250.207 973.0938,1250.4883 Q973.4063,1250.7539 973.4063,1251.207 Q973.4063,1251.6602 973.1094,1251.9414 Q972.8125,1252.2227 972.0781,1252.2227 L971.6094,1252.2227 L974.5,1259.1289 Z " fill="#000000"/><text fill="#000000" font-family="sans-serif" font-size="20" font-style="italic" lengthAdjust="spacing" textLength="128" x="987" y="1250.6563">«value object»</text><text fill="#000000" font-family="sans-serif" font-size="20" lengthAdjust="spacing" textLength="102" x="1000" y="1275.8125">Justification</text><line style="stroke:#181818;stroke-width:0.5;" x1="959" x2="1115" y1="1285.207" y2="1285.207"/></g><!--class InterviewGrade--><g id="elem_InterviewGrade"><rect codeLine="33" fill="#F5F5DC" height="68.3125" id="InterviewGrade" rx="2.5" ry="2.5" style="stroke:#181818;stroke-width:0.5;" width="169" x="1238.5" y="1069.8945"/><ellipse cx="1254.5" cy="1100.0508" fill="#FF8B40" rx="12" ry="12" style="stroke:#181818;stroke-width:1.0;"/><path d="M1255,1104.1289 L1257.8906,1097.2227 L1257.4375,1097.2227 Q1256.7188,1097.2227 1256.4063,1096.9414 Q1256.0938,1096.6602 1256.0938,1096.207 Q1256.0938,1095.7539 1256.4063,1095.4883 Q1256.7188,1095.207 1257.4375,1095.207 L1260.125,1095.207 Q1260.8438,1095.207 1261.1563,1095.4883 Q1261.4688,1095.7539 1261.4688,1096.207 Q1261.4688,1096.7539 1261,1097.0664 Q1260.7656,1097.2227 1260.0781,1097.2227 L1255.9688,1107.0508 L1254.0469,1107.0508 L1249.9375,1097.2227 Q1249.2344,1097.2227 1249.0156,1097.0664 Q1248.5469,1096.7539 1248.5469,1096.207 Q1248.5469,1095.7539 1248.8594,1095.4883 Q1249.1563,1095.207 1249.875,1095.207 L1252.5781,1095.207 Q1253.2969,1095.207 1253.5938,1095.4883 Q1253.9063,1095.7539 1253.9063,1096.207 Q1253.9063,1096.6602 1253.6094,1096.9414 Q1253.3125,1097.2227 1252.5781,1097.2227 L1252.1094,1097.2227 L1255,1104.1289 Z " fill="#000000"/><text fill="#000000" font-family="sans-serif" font-size="20" font-style="italic" lengthAdjust="spacing" textLength="128" x="1273" y="1095.6563">«value object»</text><text fill="#000000" font-family="sans-serif" font-size="20" lengthAdjust="spacing" textLength="135" x="1269.5" y="1120.8125">InterviewGrade</text><line style="stroke:#181818;stroke-width:0.5;" x1="1239.5" x2="1406.5" y1="1130.207" y2="1130.207"/></g><!--class RequirementAnswer--><g id="elem_RequirementAnswer"><rect codeLine="34" fill="#F5F5DC" height="68.3125" id="RequirementAnswer" rx="2.5" ry="2.5" style="stroke:#181818;stroke-width:0.5;" width="211" x="1453.5" y="656.8945"/><ellipse cx="1469.5" cy="687.0508" fill="#FF8B40" rx="12" ry="12" style="stroke:#181818;stroke-width:1.0;"/><path d="M1470,691.1289 L1472.8906,684.2227 L1472.4375,684.2227 Q1471.7188,684.2227 1471.4063,683.9414 Q1471.0938,683.6602 1471.0938,683.207 Q1471.0938,682.7539 1471.4063,682.4883 Q1471.7188,682.207 1472.4375,682.207 L1475.125,682.207 Q1475.8438,682.207 1476.1563,682.4883 Q1476.4688,682.7539 1476.4688,683.207 Q1476.4688,683.7539 1476,684.0664 Q1475.7656,684.2227 1475.0781,684.2227 L1470.9688,694.0508 L1469.0469,694.0508 L1464.9375,684.2227 Q1464.2344,684.2227 1464.0156,684.0664 Q1463.5469,683.7539 1463.5469,683.207 Q1463.5469,682.7539 1463.8594,682.4883 Q1464.1563,682.207 1464.875,682.207 L1467.5781,682.207 Q1468.2969,682.207 1468.5938,682.4883 Q1468.9063,682.7539 1468.9063,683.207 Q1468.9063,683.6602 1468.6094,683.9414 Q1468.3125,684.2227 1467.5781,684.2227 L1467.1094,684.2227 L1470,691.1289 Z " fill="#000000"/><text fill="#000000" font-family="sans-serif" font-size="20" font-style="italic" lengthAdjust="spacing" textLength="128" x="1509" y="682.6563">«value object»</text><text fill="#000000" font-family="sans-serif" font-size="20" lengthAdjust="spacing" textLength="177" x="1484.5" y="707.8125">RequirementAnswer</text><line style="stroke:#181818;stroke-width:0.5;" x1="1454.5" x2="1663.5" y1="717.207" y2="717.207"/></g><!--class RequirementResult--><g id="elem_RequirementResult"><rect codeLine="35" fill="#F5F5DC" height="68.3125" id="RequirementResult" rx="2.5" ry="2.5" style="stroke:#181818;stroke-width:0.5;" width="200" x="1577" y="785.8945"/><ellipse cx="1593" cy="816.0508" fill="#FF8B40" rx="12" ry="12" style="stroke:#181818;stroke-width:1.0;"/><path d="M1593.5,820.1289 L1596.3906,813.2227 L1595.9375,813.2227 Q1595.2188,813.2227 1594.9063,812.9414 Q1594.5938,812.6602 1594.5938,812.207 Q1594.5938,811.7539 1594.9063,811.4883 Q1595.2188,811.207 1595.9375,811.207 L1598.625,811.207 Q1599.3438,811.207 1599.6563,811.4883 Q1599.9688,811.7539 1599.9688,812.207 Q1599.9688,812.7539 1599.5,813.0664 Q1599.2656,813.2227 1598.5781,813.2227 L1594.4688,823.0508 L1592.5469,823.0508 L1588.4375,813.2227 Q1587.7344,813.2227 1587.5156,813.0664 Q1587.0469,812.7539 1587.0469,812.207 Q1587.0469,811.7539 1587.3594,811.4883 Q1587.6563,811.207 1588.375,811.207 L1591.0781,811.207 Q1591.7969,811.207 1592.0938,811.4883 Q1592.4063,811.7539 1592.4063,812.207 Q1592.4063,812.6602 1592.1094,812.9414 Q1591.8125,813.2227 1591.0781,813.2227 L1590.6094,813.2227 L1593.5,820.1289 Z " fill="#000000"/><text fill="#000000" font-family="sans-serif" font-size="20" font-style="italic" lengthAdjust="spacing" textLength="128" x="1627" y="811.6563">«value object»</text><text fill="#000000" font-family="sans-serif" font-size="20" lengthAdjust="spacing" textLength="166" x="1608" y="836.8125">RequirementResult</text><line style="stroke:#181818;stroke-width:0.5;" x1="1578" x2="1776" y1="846.207" y2="846.207"/></g><!--class Schedule--><g id="elem_Schedule"><rect codeLine="37" fill="#F5F5DC" height="68.3125" id="Schedule" rx="2.5" ry="2.5" style="stroke:#181818;stroke-width:0.5;" width="158" x="1514" y="940.8945"/><ellipse cx="1530" cy="971.0508" fill="#FF8B40" rx="12" ry="12" style="stroke:#181818;stroke-width:1.0;"/><path d="M1530.5,975.1289 L1533.3906,968.2227 L1532.9375,968.2227 Q1532.2188,968.2227 1531.9063,967.9414 Q1531.5938,967.6602 1531.5938,967.207 Q1531.5938,966.7539 1531.9063,966.4883 Q1532.2188,966.207 1532.9375,966.207 L1535.625,966.207 Q1536.3438,966.207 1536.6563,966.4883 Q1536.9688,966.7539 1536.9688,967.207 Q1536.9688,967.7539 1536.5,968.0664 Q1536.2656,968.2227 1535.5781,968.2227 L1531.4688,978.0508 L1529.5469,978.0508 L1525.4375,968.2227 Q1524.7344,968.2227 1524.5156,968.0664 Q1524.0469,967.7539 1524.0469,967.207 Q1524.0469,966.7539 1524.3594,966.4883 Q1524.6563,966.207 1525.375,966.207 L1528.0781,966.207 Q1528.7969,966.207 1529.0938,966.4883 Q1529.4063,966.7539 1529.4063,967.207 Q1529.4063,967.6602 1529.1094,967.9414 Q1528.8125,968.2227 1528.0781,968.2227 L1527.6094,968.2227 L1530.5,975.1289 Z " fill="#000000"/><text fill="#000000" font-family="sans-serif" font-size="20" font-style="italic" lengthAdjust="spacing" textLength="128" x="1543" y="966.6563">«value object»</text><text fill="#000000" font-family="sans-serif" font-size="20" lengthAdjust="spacing" textLength="80" x="1567" y="991.8125">Schedule</text><line style="stroke:#181818;stroke-width:0.5;" x1="1515" x2="1671" y1="1001.207" y2="1001.207"/></g><!--class File--><g id="elem_File"><rect codeLine="38" fill="#F5F5DC" height="68.3125" id="File" rx="2.5" ry="2.5" style="stroke:#181818;stroke-width:0.5;" width="158" x="1812" y="785.8945"/><ellipse cx="1828" cy="816.0508" fill="#FF8B40" rx="12" ry="12" style="stroke:#181818;stroke-width:1.0;"/><path d="M1828.5,820.1289 L1831.3906,813.2227 L1830.9375,813.2227 Q1830.2188,813.2227 1829.9063,812.9414 Q1829.5938,812.6602 1829.5938,812.207 Q1829.5938,811.7539 1829.9063,811.4883 Q1830.2188,811.207 1830.9375,811.207 L1833.625,811.207 Q1834.3438,811.207 1834.6563,811.4883 Q1834.9688,811.7539 1834.9688,812.207 Q1834.9688,812.7539 1834.5,813.0664 Q1834.2656,813.2227 1833.5781,813.2227 L1829.4688,823.0508 L1827.5469,823.0508 L1823.4375,813.2227 Q1822.7344,813.2227 1822.5156,813.0664 Q1822.0469,812.7539 1822.0469,812.207 Q1822.0469,811.7539 1822.3594,811.4883 Q1822.6563,811.207 1823.375,811.207 L1826.0781,811.207 Q1826.7969,811.207 1827.0938,811.4883 Q1827.4063,811.7539 1827.4063,812.207 Q1827.4063,812.6602 1827.1094,812.9414 Q1826.8125,813.2227 1826.0781,813.2227 L1825.6094,813.2227 L1828.5,820.1289 Z " fill="#000000"/><text fill="#000000" font-family="sans-serif" font-size="20" font-style="italic" lengthAdjust="spacing" textLength="128" x="1841" y="811.6563">«value object»</text><text fill="#000000" font-family="sans-serif" font-size="20" lengthAdjust="spacing" textLength="31" x="1889.5" y="836.8125">File</text><line style="stroke:#181818;stroke-width:0.5;" x1="1813" x2="1969" y1="846.207" y2="846.207"/></g><!--link CustomerManager to Candidate--><g id="link_CustomerManager_Candidate"><path codeLine="41" d="M794.6,143.9645 C830.73,177.8345 879.98,224.0045 917.1,258.7945 " fill="none" id="CustomerManager-to-Candidate" style="stroke:#222222;stroke-width:1.0;"/><polygon fill="#222222" points="921.1,262.5545,917.251,253.4889,917.4452,259.1424,911.7917,259.3366,921.1,262.5545" style="stroke:#222222;stroke-width:1.0;"/><text fill="#000000" font-family="sans-serif" font-size="20" lengthAdjust="spacing" textLength="80" x="852" y="197.6563">manages</text><text fill="#000000" font-family="sans-serif" font-size="20" lengthAdjust="spacing" textLength="31" x="881.4463" y="250.3214">1..*</text></g><!--link CustomerManager to InterviewModel--><g id="link_CustomerManager_InterviewModel"><path codeLine="42" d="M672.66,143.9645 C617.5,178.2345 542.07,225.0945 485.84,260.0345 " fill="none" id="CustomerManager-to-InterviewModel" style="stroke:#222222;stroke-width:1.0;"/><polygon fill="#222222" points="481.49,262.7345,491.2441,261.3713,485.734,260.091,487.0143,254.5809,481.49,262.7345" style="stroke:#222222;stroke-width:1.0;"/><text fill="#000000" font-family="sans-serif" font-size="20" lengthAdjust="spacing" textLength="62" x="618" y="197.6563">selects</text><text fill="#000000" font-family="sans-serif" font-size="20" lengthAdjust="spacing" textLength="31" x="458.2824" y="250.5256">1..*</text></g><!--link Candidate to Application--><g id="link_Candidate_Application"><path codeLine="44" d="M1020.77,355.9645 C1058.51,389.8345 1109.96,436.0045 1148.73,470.7945 " fill="none" id="Candidate-to-Application" style="stroke:#222222;stroke-width:1.0;"/><polygon fill="#222222" points="1152.92,474.5545,1148.9062,465.5607,1149.2035,471.2097,1143.5545,471.507,1152.92,474.5545" style="stroke:#222222;stroke-width:1.0;"/><text fill="#000000" font-family="sans-serif" font-size="20" lengthAdjust="spacing" textLength="67" x="1080" y="409.6563">submits</text><text fill="#000000" font-family="sans-serif" font-size="20" lengthAdjust="spacing" textLength="31" x="1112.9733" y="462.3214">1..*</text></g><!--link Application to Interview--><g id="link_Application_Interview"><path codeLine="46" d="M1229.73,568.0745 C1262.65,626.5345 1319.09,726.7345 1349.72,781.1145 " fill="none" id="Application-to-Interview" style="stroke:#222222;stroke-width:1.0;"/><polygon fill="#222222" points="1352.24,785.5845,1351.3277,775.778,1349.7948,781.2232,1344.3496,779.6903,1352.24,785.5845" style="stroke:#222222;stroke-width:1.0;"/><text fill="#000000" font-family="sans-serif" font-size="20" lengthAdjust="spacing" textLength="70" x="1318" y="699.1563">includes</text><text fill="#000000" font-family="sans-serif" font-size="20" lengthAdjust="spacing" textLength="34" x="1312.3173" y="773.5804">0..1</text></g><!--link Application to RequirementAnswer--><g id="link_Application_RequirementAnswer"><path codeLine="47" d="M1268.7,552.9245 C1329.54,581.6245 1420.56,624.5745 1484.42,654.7045 " fill="none" id="Application-to-RequirementAnswer" style="stroke:#222222;stroke-width:1.0;"/><polygon fill="#222222" points="1488.97,656.8545,1482.5457,649.3894,1484.4504,654.7159,1479.1239,656.6207,1488.97,656.8545" style="stroke:#222222;stroke-width:1.0;"/><text fill="#000000" font-family="sans-serif" font-size="20" lengthAdjust="spacing" textLength="70" x="1424" y="621.6563">includes</text><text fill="#000000" font-family="sans-serif" font-size="20" lengthAdjust="spacing" textLength="11" x="1464.9883" y="644.6038">1</text></g><!--link Application to RequirementResult--><g id="link_Application_RequirementResult"><path codeLine="48" d="M1268.6,530.7545 C1387.43,547.6145 1633.03,589.9045 1682,656.8945 C1707.96,692.4045 1700.35,744.9445 1690.49,780.4845 " fill="none" id="Application-to-RequirementResult" style="stroke:#222222;stroke-width:1.0;"/><polygon fill="#222222" points="1689.02,785.5945,1695.3327,778.0347,1690.3898,780.7858,1687.6387,775.843,1689.02,785.5945" style="stroke:#222222;stroke-width:1.0;"/><text fill="#000000" font-family="sans-serif" font-size="20" lengthAdjust="spacing" textLength="70" x="1700" y="699.1563">includes</text><text fill="#000000" font-family="sans-serif" font-size="20" lengthAdjust="spacing" textLength="11" x="1679.0999" y="773.5921">1</text></g><!--link Application to Email--><g id="link_Application_Email"><path codeLine="49" d="M1139.39,528.2745 C1006.59,541.8245 710.33,580.1645 650,656.8945 C622.28,692.1445 638.49,745.3045 655.08,781.0145 " fill="none" id="Application-to-Email" style="stroke:#222222;stroke-width:1.0;"/><polygon fill="#222222" points="657.31,785.7145,657.0762,775.8684,655.1714,781.195,649.8449,779.2902,657.31,785.7145" style="stroke:#222222;stroke-width:1.0;"/><text fill="#000000" font-family="sans-serif" font-size="20" lengthAdjust="spacing" textLength="70" x="651" y="699.1563">includes</text><text fill="#000000" font-family="sans-serif" font-size="20" lengthAdjust="spacing" textLength="11" x="642.1523" y="773.4397">1</text></g><!--link Application to CandidateName--><g id="link_Application_CandidateName"><path codeLine="50" d="M1154.35,568.2945 C1143.79,578.4945 1132.86,589.4045 1123,599.8945 C1107.25,616.6545 1090.67,636.0645 1077.03,652.5545 " fill="none" id="Application-to-CandidateName" style="stroke:#222222;stroke-width:1.0;"/><polygon fill="#222222" points="1073.63,656.6745,1082.4454,652.2826,1076.814,652.8194,1076.2772,647.1881,1073.63,656.6745" style="stroke:#222222;stroke-width:1.0;"/><text fill="#000000" font-family="sans-serif" font-size="20" lengthAdjust="spacing" textLength="70" x="1124" y="621.6563">includes</text><text fill="#000000" font-family="sans-serif" font-size="20" lengthAdjust="spacing" textLength="11" x="1066.2617" y="644.3928">1</text></g><!--link Application to PhoneNumber--><g id="link_Application_PhoneNumber"><path codeLine="51" d="M1202.43,567.9545 C1201.63,586.2845 1200.51,607.6145 1199,626.8945 C1194.8,680.3245 1187.66,741.8745 1182.89,780.5845 " fill="none" id="Application-to-PhoneNumber" style="stroke:#222222;stroke-width:1.0;"/><polygon fill="#222222" points="1182.26,785.6545,1187.3364,777.2148,1182.8749,780.6925,1179.3972,776.2309,1182.26,785.6545" style="stroke:#222222;stroke-width:1.0;"/><text fill="#000000" font-family="sans-serif" font-size="20" lengthAdjust="spacing" textLength="70" x="1197" y="699.1563">includes</text><text fill="#000000" font-family="sans-serif" font-size="20" lengthAdjust="spacing" textLength="11" x="1171.0469" y="773.3694">1</text></g><!--link Application to File--><g id="link_Application_File"><path codeLine="52" d="M1268.58,530.6345 C1401.35,548.6445 1699.19,594.9245 1779,656.8945 C1821.91,690.2045 1854.69,744.5645 1873.39,781.0145 " fill="none" id="Application-to-File" style="stroke:#222222;stroke-width:1.0;"/><polygon fill="#222222" points="1875.83,785.8145,1875.3325,775.9782,1873.5711,781.3539,1868.1954,779.5925,1875.83,785.8145" style="stroke:#222222;stroke-width:1.0;"/><polygon fill="#000000" points="1838.6084,687.9127,1850.1813,697.7929,1853.7786,689.1036,1838.6084,687.9127" style="stroke:#000000;stroke-width:1.0;"/><text fill="#000000" font-family="sans-serif" font-size="20" lengthAdjust="spacing" textLength="85" x="1859" y="699.1563">describes</text><text fill="#000000" font-family="sans-serif" font-size="20" lengthAdjust="spacing" textLength="31" x="1839.5586" y="773.5569">1..*</text></g><!--link Application to ApplicationStatus--><g id="link_Application_ApplicationStatus"><path codeLine="53" d="M1139.34,538.5845 C1090.87,551.9145 1023.6,572.9745 968,599.8945 C937.17,614.8245 905.1,635.7445 879.85,653.6645 " fill="none" id="Application-to-ApplicationStatus" style="stroke:#222222;stroke-width:1.0;"/><polygon fill="#222222" points="875.54,656.7445,885.1912,654.7811,879.6125,653.8437,880.5499,648.2651,875.54,656.7445" style="stroke:#222222;stroke-width:1.0;"/><polygon fill="#000000" points="983.3131,610.2294,968.1772,611.798,971.9899,620.395,983.3131,610.2294" style="stroke:#000000;stroke-width:1.0;"/><text fill="#000000" font-family="sans-serif" font-size="20" lengthAdjust="spacing" textLength="101" x="989" y="621.6563">categorizes</text><text fill="#000000" font-family="sans-serif" font-size="20" lengthAdjust="spacing" textLength="11" x="871.0781" y="644.4749">1</text></g><!--link Interview to InterviewAnswer--><g id="link_Interview_InterviewAnswer"><path codeLine="56" d="M1365.99,854.1245 C1361.73,893.9145 1360.23,961.1545 1389,1008.8945 C1403.65,1033.2045 1427.29,1052.4645 1451.16,1067.0545 " fill="none" id="Interview-to-InterviewAnswer" style="stroke:#222222;stroke-width:1.0;"/><polygon fill="#222222" points="1455.62,1069.7245,1449.9487,1061.6724,1451.3288,1067.1583,1445.8428,1068.5384,1455.62,1069.7245" style="stroke:#222222;stroke-width:1.0;"/><text fill="#000000" font-family="sans-serif" font-size="20" lengthAdjust="spacing" textLength="106" x="1390" y="983.1563">described in</text><text fill="#000000" font-family="sans-serif" font-size="20" lengthAdjust="spacing" textLength="11" x="1430.5469" y="1057.4514">1</text></g><!--link Interview to InterviewResult--><g id="link_Interview_InterviewResult"><path codeLine="57" d="M1331.7,854.0745 C1268.64,907.3145 1145.31,1011.4445 1079.98,1066.6045 " fill="none" id="Interview-to-InterviewResult" style="stroke:#222222;stroke-width:1.0;"/><polygon fill="#222222" points="1076.15,1069.8445,1085.6038,1067.083,1079.9664,1066.6142,1080.4352,1060.9768,1076.15,1069.8445" style="stroke:#222222;stroke-width:1.0;"/><polygon fill="#000000" points="1241.1126,969.8117,1227.0212,975.555,1233.0883,982.7409,1241.1126,969.8117" style="stroke:#000000;stroke-width:1.0;"/><text fill="#000000" font-family="sans-serif" font-size="20" lengthAdjust="spacing" textLength="80" x="1248" y="983.1563">classifies</text><text fill="#000000" font-family="sans-serif" font-size="20" lengthAdjust="spacing" textLength="11" x="1070.9336" y="1057.592">1</text></g><!--link InterviewResult to InterviewGrade--><g id="link_InterviewResult_InterviewGrade"><path codeLine="58" d="M1121.26,1103.8945 C1156.44,1103.8945 1197.36,1103.8945 1233.11,1103.8945 " fill="none" id="InterviewResult-to-InterviewGrade" style="stroke:#222222;stroke-width:1.0;"/><polygon fill="#222222" points="1238.35,1103.8945,1229.35,1099.8945,1233.35,1103.8945,1229.35,1107.8945,1238.35,1103.8945" style="stroke:#222222;stroke-width:1.0;"/><polygon fill="#000000" points="1138.25,1087.4727,1152.7221,1092.1749,1152.7221,1082.7704,1138.25,1087.4727" style="stroke:#000000;stroke-width:1.0;"/><text fill="#000000" font-family="sans-serif" font-size="20" lengthAdjust="spacing" textLength="61" x="1159.25" y="1095.6563">grades</text><text fill="#000000" font-family="sans-serif" font-size="20" lengthAdjust="spacing" textLength="11" x="1219.6027" y="1098.5753">1</text></g><!--link InterviewResult to Justification--><g id="link_InterviewResult_Justification"><path codeLine="59" d="M1037,1138.0945 C1037,1162.0545 1037,1194.4645 1037,1219.5245 " fill="none" id="InterviewResult-to-Justification" style="stroke:#222222;stroke-width:1.0;"/><polygon fill="#222222" points="1037,1224.7645,1041,1215.7645,1037,1219.7645,1033,1215.7645,1037,1224.7645" style="stroke:#222222;stroke-width:1.0;"/><polygon fill="#000000" points="1045,1173.4727,1040.2977,1187.9448,1049.7023,1187.9448,1045,1173.4727" style="stroke:#000000;stroke-width:1.0;"/><text fill="#000000" font-family="sans-serif" font-size="20" lengthAdjust="spacing" textLength="65" x="1058" y="1189.6563">justifies</text><text fill="#000000" font-family="sans-serif" font-size="20" lengthAdjust="spacing" textLength="11" x="1025.0547" y="1212.4983">1</text></g><!--link Interview to Schedule--><g id="link_Interview_Schedule"><path codeLine="60" d="M1418.9,853.9045 C1454.66,878.5545 1503.52,912.2245 1540.37,937.6245 " fill="none" id="Interview-to-Schedule" style="stroke:#222222;stroke-width:1.0;"/><polygon fill="#222222" points="1544.81,940.6845,1539.6597,932.2896,1540.6898,937.8519,1535.1275,938.8819,1544.81,940.6845" style="stroke:#222222;stroke-width:1.0;"/><text fill="#000000" font-family="sans-serif" font-size="20" lengthAdjust="spacing" textLength="78" x="1496" y="905.6563">follows a</text><text fill="#000000" font-family="sans-serif" font-size="20" lengthAdjust="spacing" textLength="11" x="1524.582" y="928.4045">1</text></g><!--link InterviewModel to InterviewModelName--><g id="link_InterviewModel_InterviewModelName"><path codeLine="62" d="M344.36,355.9245 C330.03,366.3345 314.94,377.4245 301,387.8945 C264.78,415.1145 224.8,446.2145 192.72,471.4445 " fill="none" id="InterviewModel-to-InterviewModelName" style="stroke:#222222;stroke-width:1.0;"/><polygon fill="#222222" points="188.44,474.8145,197.9831,472.3795,192.3651,471.7172,193.0274,466.0993,188.44,474.8145" style="stroke:#222222;stroke-width:1.0;"/><polygon fill="#000000" points="315.3638,396.6247,301.0021,401.6542,306.7012,409.1352,315.3638,396.6247" style="stroke:#000000;stroke-width:1.0;"/><text fill="#000000" font-family="sans-serif" font-size="20" lengthAdjust="spacing" textLength="77" x="322" y="409.6563">identifies</text><text fill="#000000" font-family="sans-serif" font-size="20" lengthAdjust="spacing" textLength="11" x="184.4194" y="462.6164">1</text></g><!--link InterviewModel to InterviewModelDescription--><g id="link_InterviewModel_InterviewModelDescription"><path codeLine="63" d="M408,355.9645 C408,393.6745 408,446.6345 408,482.1645 " fill="none" id="InterviewModel-to-InterviewModelDescription" style="stroke:#222222;stroke-width:1.0;"/><polygon fill="#222222" points="408,487.2745,412,478.2745,408,482.2745,404,478.2745,408,487.2745" style="stroke:#222222;stroke-width:1.0;"/><polygon fill="#000000" points="416,393.4727,411.2977,407.9448,420.7023,407.9448,416,393.4727" style="stroke:#000000;stroke-width:1.0;"/><text fill="#000000" font-family="sans-serif" font-size="20" lengthAdjust="spacing" textLength="85" x="429" y="409.6563">describes</text><text fill="#000000" font-family="sans-serif" font-size="20" lengthAdjust="spacing" textLength="11" x="396.0547" y="475.01">1</text></g><!--SRC=[fLN9Rjim4BthAmZdq0Nrag27GX0CE6bTf4228WPwfyInp9WYLPAAqGRvzuueMwPaIuvJNMnftdipGyvYrbpcLDDCg6GDZ31OqaBOkP9smVy2kPe4xrRMvYOSZtD1fIqoCKfKDau4DMR8E4sH70HcfqESOMQjvd5XuJPHqWbDWXLdG23BxHz2TsRJ9bxJP9rgLKXseuJI90QUWWUQQQqsbUdYoZr14EH8eYcGGHJHDDMGKWlJARcL5lGJXmsvKmp4W3m711-GbcCCjTKPIHHLtv4NHLefYt_8yujZkCXQX7kQ0IBV__fqCPz_kVuy-K2Ug2Y0gFWH4kjaC67KN7BG-DgZzHLCedbkkPBzagZnqfdkJM6ioa2JEohHh5lvxinRQsV2FGweP9pX_xRoxhklMOlsIixoNF24bfctH3sB9zjnDTyooiN9ezlZFV65fROmPt3hR4zNG8FtSwKat1TPxCx-jQnz3VTokafr9itcbBykxWCOd0HdSNzWZM6zrzVs1g_VDMLm5lK1VXTSGuOryePqFVOR4lwVWruaAs25EAU6vlmLSEosTgyFXrCok1oDFWwyPWr9vioc3zwQaY4n8D2JGH-ra0VtknQnHPpn4kj_7ZhuP3IwzDGHp6KY2eRHDC6bzE387NSI3XdRUpt5S4FaH1oDvZybw7LyFzGTdRlR41TmkGjYm95qD8B3qHKIV8LKQLop9Ii8ziTQnz8grBqVXf7r4ghJ2wiAB9TPwQCz9DearyKXISkVe_WjeJ4mGl9OlJOfDRXkc90ibH1gOmZragqgz23-UblZ7UpsSKE_Z-TjvkRL_0C0]--></g></svg>