<?xml version="1.0" encoding="UTF-8" standalone="no"?><svg xmlns="http://www.w3.org/2000/svg" xmlns:xlink="http://www.w3.org/1999/xlink" contentStyleType="text/css" height="1773px" preserveAspectRatio="none" style="width:4378px;height:1773px;background:#FFFFFF;" version="1.1" viewBox="0 0 4378 1773" width="4378px" zoomAndPan="magnify"><defs/><g><!--cluster <<aggregate>> Interview Model--><g id="cluster_&lt;&lt;aggregate&gt;&gt; Interview Model"><path d="M3822.5,484.8945 L4094.5,484.8945 A3.75,3.75 0 0 1 4097,487.3945 L4104,516.0508 L4368.5,516.0508 A2.5,2.5 0 0 1 4371,518.5508 L4371,901.3945 A2.5,2.5 0 0 1 4368.5,903.8945 L3822.5,903.8945 A2.5,2.5 0 0 1 3820,901.3945 L3820,487.3945 A2.5,2.5 0 0 1 3822.5,484.8945 " fill="none" style="stroke:#000000;stroke-width:1.5;"/><line style="stroke:#000000;stroke-width:1.5;" x1="3820" x2="4104" y1="516.0508" y2="516.0508"/><text fill="#000000" font-family="sans-serif" font-size="20" font-weight="bold" lengthAdjust="spacing" textLength="271" x="3824" y="507.6563">«aggregate» Interview Model</text></g><!--cluster <<aggregate>> Requirement Specification--><g id="cluster_&lt;&lt;aggregate&gt;&gt; Requirement Specification"><path d="M3244.5,962.8945 L3616.5,962.8945 A3.75,3.75 0 0 1 3619,965.3945 L3626,994.0508 L3746.5,994.0508 A2.5,2.5 0 0 1 3749,996.5508 L3749,1323.3945 A2.5,2.5 0 0 1 3746.5,1325.8945 L3244.5,1325.8945 A2.5,2.5 0 0 1 3242,1323.3945 L3242,965.3945 A2.5,2.5 0 0 1 3244.5,962.8945 " fill="none" style="stroke:#000000;stroke-width:1.5;"/><line style="stroke:#000000;stroke-width:1.5;" x1="3242" x2="3626" y1="994.0508" y2="994.0508"/><text fill="#000000" font-family="sans-serif" font-size="20" font-weight="bold" lengthAdjust="spacing" textLength="371" x="3246" y="985.6563">«aggregate» Requirement Specification</text></g><!--cluster <<aggregate>> Job Opening--><g id="cluster_&lt;&lt;aggregate&gt;&gt; Job Opening"><path d="M518.5,484.8945 L763.5,484.8945 A3.75,3.75 0 0 1 766,487.3945 L773,516.0508 L1908.5,516.0508 A2.5,2.5 0 0 1 1911,518.5508 L1911,1141.3945 A2.5,2.5 0 0 1 1908.5,1143.8945 L518.5,1143.8945 A2.5,2.5 0 0 1 516,1141.3945 L516,487.3945 A2.5,2.5 0 0 1 518.5,484.8945 " fill="none" style="stroke:#000000;stroke-width:1.5;"/><line style="stroke:#000000;stroke-width:1.5;" x1="516" x2="773" y1="516.0508" y2="516.0508"/><text fill="#000000" font-family="sans-serif" font-size="20" font-weight="bold" lengthAdjust="spacing" textLength="244" x="520" y="507.6563">«aggregate» Job Opening</text></g><!--cluster <<aggregate>> Customer Manager--><g id="cluster_&lt;&lt;aggregate&gt;&gt; Customer Manager"><path d="M2583.5,6.8945 L2887.5,6.8945 A3.75,3.75 0 0 1 2890,9.3945 L2897,38.0508 L2897.5,38.0508 A2.5,2.5 0 0 1 2900,40.5508 L2900,185.3945 A2.5,2.5 0 0 1 2897.5,187.8945 L2583.5,187.8945 A2.5,2.5 0 0 1 2581,185.3945 L2581,9.3945 A2.5,2.5 0 0 1 2583.5,6.8945 " fill="none" style="stroke:#000000;stroke-width:1.5;"/><line style="stroke:#000000;stroke-width:1.5;" x1="2581" x2="2897" y1="38.0508" y2="38.0508"/><text fill="#000000" font-family="sans-serif" font-size="20" font-weight="bold" lengthAdjust="spacing" textLength="303" x="2585" y="29.6563">«aggregate» Customer Manager</text></g><!--cluster <<aggregate>> Candidate--><g id="cluster_&lt;&lt;aggregate&gt;&gt; Candidate"><path d="M8.5,246.8945 L227.5,246.8945 A3.75,3.75 0 0 1 230,249.3945 L237,278.0508 L489.5,278.0508 A2.5,2.5 0 0 1 492,280.5508 L492,888.8945 A2.5,2.5 0 0 1 489.5,891.3945 L8.5,891.3945 A2.5,2.5 0 0 1 6,888.8945 L6,249.3945 A2.5,2.5 0 0 1 8.5,246.8945 " fill="none" style="stroke:#000000;stroke-width:1.5;"/><line style="stroke:#000000;stroke-width:1.5;" x1="6" x2="237" y1="278.0508" y2="278.0508"/><text fill="#000000" font-family="sans-serif" font-size="20" font-weight="bold" lengthAdjust="spacing" textLength="218" x="10" y="269.6563">«aggregate» Candidate</text></g><!--cluster <<aggregate>> Application--><g id="cluster_&lt;&lt;aggregate&gt;&gt; Application"><path d="M2106.5,722.8945 L2335.5,722.8945 A3.75,3.75 0 0 1 2338,725.3945 L2345,754.0508 L3215.5,754.0508 A2.5,2.5 0 0 1 3218,756.5508 L3218,1764.3945 A2.5,2.5 0 0 1 3215.5,1766.8945 L2106.5,1766.8945 A2.5,2.5 0 0 1 2104,1764.3945 L2104,725.3945 A2.5,2.5 0 0 1 2106.5,722.8945 " fill="none" style="stroke:#000000;stroke-width:1.5;"/><line style="stroke:#000000;stroke-width:1.5;" x1="2104" x2="2345" y1="754.0508" y2="754.0508"/><text fill="#000000" font-family="sans-serif" font-size="20" font-weight="bold" lengthAdjust="spacing" textLength="228" x="2108" y="745.6563">«aggregate» Application</text></g><!--class InterviewModel--><g id="elem_InterviewModel"><rect codeLine="14" fill="#F5F5DC" height="93.4688" id="InterviewModel" rx="2.5" ry="2.5" style="stroke:#181818;stroke-width:0.5;" width="167" x="3836.5" y="556.8945"/><ellipse cx="3852.5" cy="599.6289" fill="#ADD1B2" rx="12" ry="12" style="stroke:#181818;stroke-width:1.0;"/><path d="M3850.4531,600.6914 L3850.4531,603.6289 L3855.5469,603.6289 L3855.5469,602.5352 Q3855.5469,601.8164 3855.8281,601.5195 Q3856.1094,601.207 3856.5625,601.207 Q3857,601.207 3857.2813,601.5195 Q3857.5625,601.8164 3857.5625,602.5352 L3857.5625,605.6289 L3848.125,605.6289 Q3847.4063,605.6289 3847.0938,605.3477 Q3846.7969,605.0664 3846.7969,604.6289 Q3846.7969,604.1758 3847.1094,603.9102 Q3847.4219,603.6289 3848.125,603.6289 L3848.4375,603.6289 L3848.4375,595.8008 L3848.125,595.8008 Q3847.4063,595.8008 3847.0938,595.5195 Q3846.7969,595.2383 3846.7969,594.7852 Q3846.7969,594.332 3847.0938,594.0664 Q3847.4063,593.7852 3848.125,593.7852 L3857.1094,593.7852 L3857.1094,596.832 Q3857.1094,597.5508 3856.8281,597.8633 Q3856.5625,598.1602 3856.125,598.1602 Q3855.6719,598.1602 3855.3906,597.8633 Q3855.1094,597.5664 3855.1094,596.832 L3855.1094,595.8008 L3850.4531,595.8008 L3850.4531,598.6914 L3852.2031,598.6914 Q3852.2031,597.9102 3852.3438,597.6758 Q3852.6563,597.207 3853.2031,597.207 Q3853.6563,597.207 3853.9219,597.5195 Q3854.2031,597.8164 3854.2031,598.5352 L3854.2031,600.8477 Q3854.2031,601.5039 3854.0469,601.7227 Q3853.7344,602.1758 3853.2031,602.1758 Q3852.6563,602.1758 3852.3438,601.707 Q3852.2031,601.4727 3852.2031,600.6914 L3850.4531,600.6914 Z " fill="#000000"/><text fill="#000000" font-family="sans-serif" font-size="20" font-style="italic" lengthAdjust="spacing" textLength="69" x="3899.5" y="582.6563">«entity»</text><text fill="#000000" font-family="sans-serif" font-size="20" font-style="italic" lengthAdjust="spacing" textLength="56" x="3906" y="607.8125">«root»</text><text fill="#000000" font-family="sans-serif" font-size="20" lengthAdjust="spacing" textLength="133" x="3867.5" y="632.9688">InterviewModel</text><line style="stroke:#181818;stroke-width:0.5;" x1="3837.5" x2="4002.5" y1="642.3633" y2="642.3633"/></g><!--class InterviewModelName--><g id="elem_InterviewModelName"><rect codeLine="15" fill="#F5F5DC" height="93.4688" id="InterviewModelName" rx="2.5" ry="2.5" style="stroke:#181818;stroke-width:0.5;" width="218" x="3836" y="794.8945"/><ellipse cx="3852" cy="837.6289" fill="#FF8B40" rx="12" ry="12" style="stroke:#181818;stroke-width:1.0;"/><path d="M3852.5,841.707 L3855.3906,834.8008 L3854.9375,834.8008 Q3854.2188,834.8008 3853.9063,834.5195 Q3853.5938,834.2383 3853.5938,833.7852 Q3853.5938,833.332 3853.9063,833.0664 Q3854.2188,832.7852 3854.9375,832.7852 L3857.625,832.7852 Q3858.3438,832.7852 3858.6563,833.0664 Q3858.9688,833.332 3858.9688,833.7852 Q3858.9688,834.332 3858.5,834.6445 Q3858.2656,834.8008 3857.5781,834.8008 L3853.4688,844.6289 L3851.5469,844.6289 L3847.4375,834.8008 Q3846.7344,834.8008 3846.5156,834.6445 Q3846.0469,834.332 3846.0469,833.7852 Q3846.0469,833.332 3846.3594,833.0664 Q3846.6563,832.7852 3847.375,832.7852 L3850.0781,832.7852 Q3850.7969,832.7852 3851.0938,833.0664 Q3851.4063,833.332 3851.4063,833.7852 Q3851.4063,834.2383 3851.1094,834.5195 Q3850.8125,834.8008 3850.0781,834.8008 L3849.6094,834.8008 L3852.5,841.707 Z " fill="#000000"/><text fill="#000000" font-family="sans-serif" font-size="20" font-style="italic" lengthAdjust="spacing" textLength="128" x="3895" y="820.6563">«value object»</text><text fill="#000000" font-family="sans-serif" font-size="20" font-style="italic" lengthAdjust="spacing" textLength="99" x="3909.5" y="845.8125">«identifier»</text><text fill="#000000" font-family="sans-serif" font-size="20" lengthAdjust="spacing" textLength="184" x="3867" y="870.9688">InterviewModelName</text><line style="stroke:#181818;stroke-width:0.5;" x1="3837" x2="4053" y1="880.3633" y2="880.3633"/></g><!--class InterviewModelDescription--><g id="elem_InterviewModelDescription"><rect codeLine="16" fill="#F5F5DC" height="68.3125" id="InterviewModelDescription" rx="2.5" ry="2.5" style="stroke:#181818;stroke-width:0.5;" width="265" x="4089.5" y="807.3945"/><ellipse cx="4105.5" cy="837.5508" fill="#FF8B40" rx="12" ry="12" style="stroke:#181818;stroke-width:1.0;"/><path d="M4106,841.6289 L4108.8906,834.7227 L4108.4375,834.7227 Q4107.7188,834.7227 4107.4063,834.4414 Q4107.0938,834.1602 4107.0938,833.707 Q4107.0938,833.2539 4107.4063,832.9883 Q4107.7188,832.707 4108.4375,832.707 L4111.125,832.707 Q4111.8438,832.707 4112.1563,832.9883 Q4112.4688,833.2539 4112.4688,833.707 Q4112.4688,834.2539 4112,834.5664 Q4111.7656,834.7227 4111.0781,834.7227 L4106.9688,844.5508 L4105.0469,844.5508 L4100.9375,834.7227 Q4100.2344,834.7227 4100.0156,834.5664 Q4099.5469,834.2539 4099.5469,833.707 Q4099.5469,833.2539 4099.8594,832.9883 Q4100.1563,832.707 4100.875,832.707 L4103.5781,832.707 Q4104.2969,832.707 4104.5938,832.9883 Q4104.9063,833.2539 4104.9063,833.707 Q4104.9063,834.1602 4104.6094,834.4414 Q4104.3125,834.7227 4103.5781,834.7227 L4103.1094,834.7227 L4106,841.6289 Z " fill="#000000"/><text fill="#000000" font-family="sans-serif" font-size="20" font-style="italic" lengthAdjust="spacing" textLength="128" x="4172" y="833.1563">«value object»</text><text fill="#000000" font-family="sans-serif" font-size="20" lengthAdjust="spacing" textLength="231" x="4120.5" y="858.3125">InterviewModelDescription</text><line style="stroke:#181818;stroke-width:0.5;" x1="4090.5" x2="4353.5" y1="867.707" y2="867.707"/></g><!--class RequirementSpecification--><g id="elem_RequirementSpecification"><rect codeLine="19" fill="#F5F5DC" height="93.4688" id="RequirementSpecification" rx="2.5" ry="2.5" style="stroke:#181818;stroke-width:0.5;" width="256" x="3312" y="1034.8945"/><ellipse cx="3328" cy="1077.6289" fill="#ADD1B2" rx="12" ry="12" style="stroke:#181818;stroke-width:1.0;"/><path d="M3325.9531,1078.6914 L3325.9531,1081.6289 L3331.0469,1081.6289 L3331.0469,1080.5352 Q3331.0469,1079.8164 3331.3281,1079.5195 Q3331.6094,1079.207 3332.0625,1079.207 Q3332.5,1079.207 3332.7813,1079.5195 Q3333.0625,1079.8164 3333.0625,1080.5352 L3333.0625,1083.6289 L3323.625,1083.6289 Q3322.9063,1083.6289 3322.5938,1083.3477 Q3322.2969,1083.0664 3322.2969,1082.6289 Q3322.2969,1082.1758 3322.6094,1081.9102 Q3322.9219,1081.6289 3323.625,1081.6289 L3323.9375,1081.6289 L3323.9375,1073.8008 L3323.625,1073.8008 Q3322.9063,1073.8008 3322.5938,1073.5195 Q3322.2969,1073.2383 3322.2969,1072.7852 Q3322.2969,1072.332 3322.5938,1072.0664 Q3322.9063,1071.7852 3323.625,1071.7852 L3332.6094,1071.7852 L3332.6094,1074.832 Q3332.6094,1075.5508 3332.3281,1075.8633 Q3332.0625,1076.1602 3331.625,1076.1602 Q3331.1719,1076.1602 3330.8906,1075.8633 Q3330.6094,1075.5664 3330.6094,1074.832 L3330.6094,1073.8008 L3325.9531,1073.8008 L3325.9531,1076.6914 L3327.7031,1076.6914 Q3327.7031,1075.9102 3327.8438,1075.6758 Q3328.1563,1075.207 3328.7031,1075.207 Q3329.1563,1075.207 3329.4219,1075.5195 Q3329.7031,1075.8164 3329.7031,1076.5352 L3329.7031,1078.8477 Q3329.7031,1079.5039 3329.5469,1079.7227 Q3329.2344,1080.1758 3328.7031,1080.1758 Q3328.1563,1080.1758 3327.8438,1079.707 Q3327.7031,1079.4727 3327.7031,1078.6914 L3325.9531,1078.6914 Z " fill="#000000"/><text fill="#000000" font-family="sans-serif" font-size="20" font-style="italic" lengthAdjust="spacing" textLength="69" x="3419.5" y="1060.6563">«entity»</text><text fill="#000000" font-family="sans-serif" font-size="20" font-style="italic" lengthAdjust="spacing" textLength="56" x="3426" y="1085.8125">«root»</text><text fill="#000000" font-family="sans-serif" font-size="20" lengthAdjust="spacing" textLength="222" x="3343" y="1110.9688">RequirementSpecification</text><line style="stroke:#181818;stroke-width:0.5;" x1="3313" x2="3567" y1="1120.3633" y2="1120.3633"/></g><!--class RequirementName--><g id="elem_RequirementName"><rect codeLine="20" fill="#F5F5DC" height="93.4688" id="RequirementName" rx="2.5" ry="2.5" style="stroke:#181818;stroke-width:0.5;" width="196" x="3258" y="1216.8945"/><ellipse cx="3274" cy="1259.6289" fill="#FF8B40" rx="12" ry="12" style="stroke:#181818;stroke-width:1.0;"/><path d="M3274.5,1263.707 L3277.3906,1256.8008 L3276.9375,1256.8008 Q3276.2188,1256.8008 3275.9063,1256.5195 Q3275.5938,1256.2383 3275.5938,1255.7852 Q3275.5938,1255.332 3275.9063,1255.0664 Q3276.2188,1254.7852 3276.9375,1254.7852 L3279.625,1254.7852 Q3280.3438,1254.7852 3280.6563,1255.0664 Q3280.9688,1255.332 3280.9688,1255.7852 Q3280.9688,1256.332 3280.5,1256.6445 Q3280.2656,1256.8008 3279.5781,1256.8008 L3275.4688,1266.6289 L3273.5469,1266.6289 L3269.4375,1256.8008 Q3268.7344,1256.8008 3268.5156,1256.6445 Q3268.0469,1256.332 3268.0469,1255.7852 Q3268.0469,1255.332 3268.3594,1255.0664 Q3268.6563,1254.7852 3269.375,1254.7852 L3272.0781,1254.7852 Q3272.7969,1254.7852 3273.0938,1255.0664 Q3273.4063,1255.332 3273.4063,1255.7852 Q3273.4063,1256.2383 3273.1094,1256.5195 Q3272.8125,1256.8008 3272.0781,1256.8008 L3271.6094,1256.8008 L3274.5,1263.707 Z " fill="#000000"/><text fill="#000000" font-family="sans-serif" font-size="20" font-style="italic" lengthAdjust="spacing" textLength="128" x="3306" y="1242.6563">«value object»</text><text fill="#000000" font-family="sans-serif" font-size="20" font-style="italic" lengthAdjust="spacing" textLength="99" x="3320.5" y="1267.8125">«identifier»</text><text fill="#000000" font-family="sans-serif" font-size="20" lengthAdjust="spacing" textLength="162" x="3289" y="1292.9688">RequirementName</text><line style="stroke:#181818;stroke-width:0.5;" x1="3259" x2="3453" y1="1302.3633" y2="1302.3633"/></g><!--class RequirementDescription--><g id="elem_RequirementDescription"><rect codeLine="21" fill="#F5F5DC" height="68.3125" id="RequirementDescription" rx="2.5" ry="2.5" style="stroke:#181818;stroke-width:0.5;" width="243" x="3489.5" y="1229.3945"/><ellipse cx="3505.5" cy="1259.5508" fill="#FF8B40" rx="12" ry="12" style="stroke:#181818;stroke-width:1.0;"/><path d="M3506,1263.6289 L3508.8906,1256.7227 L3508.4375,1256.7227 Q3507.7188,1256.7227 3507.4063,1256.4414 Q3507.0938,1256.1602 3507.0938,1255.707 Q3507.0938,1255.2539 3507.4063,1254.9883 Q3507.7188,1254.707 3508.4375,1254.707 L3511.125,1254.707 Q3511.8438,1254.707 3512.1563,1254.9883 Q3512.4688,1255.2539 3512.4688,1255.707 Q3512.4688,1256.2539 3512,1256.5664 Q3511.7656,1256.7227 3511.0781,1256.7227 L3506.9688,1266.5508 L3505.0469,1266.5508 L3500.9375,1256.7227 Q3500.2344,1256.7227 3500.0156,1256.5664 Q3499.5469,1256.2539 3499.5469,1255.707 Q3499.5469,1255.2539 3499.8594,1254.9883 Q3500.1563,1254.707 3500.875,1254.707 L3503.5781,1254.707 Q3504.2969,1254.707 3504.5938,1254.9883 Q3504.9063,1255.2539 3504.9063,1255.707 Q3504.9063,1256.1602 3504.6094,1256.4414 Q3504.3125,1256.7227 3503.5781,1256.7227 L3503.1094,1256.7227 L3506,1263.6289 Z " fill="#000000"/><text fill="#000000" font-family="sans-serif" font-size="20" font-style="italic" lengthAdjust="spacing" textLength="128" x="3561" y="1255.1563">«value object»</text><text fill="#000000" font-family="sans-serif" font-size="20" lengthAdjust="spacing" textLength="209" x="3520.5" y="1280.3125">RequirementDescription</text><line style="stroke:#181818;stroke-width:0.5;" x1="3490.5" x2="3731.5" y1="1289.707" y2="1289.707"/></g><!--class JobOpening--><g id="elem_JobOpening"><rect codeLine="25" fill="#F5F5DC" height="93.4688" id="JobOpening" rx="2.5" ry="2.5" style="stroke:#181818;stroke-width:0.5;" width="139" x="1594.5" y="556.8945"/><ellipse cx="1610.5" cy="599.6289" fill="#ADD1B2" rx="12" ry="12" style="stroke:#181818;stroke-width:1.0;"/><path d="M1608.4531,600.6914 L1608.4531,603.6289 L1613.5469,603.6289 L1613.5469,602.5352 Q1613.5469,601.8164 1613.8281,601.5195 Q1614.1094,601.207 1614.5625,601.207 Q1615,601.207 1615.2813,601.5195 Q1615.5625,601.8164 1615.5625,602.5352 L1615.5625,605.6289 L1606.125,605.6289 Q1605.4063,605.6289 1605.0938,605.3477 Q1604.7969,605.0664 1604.7969,604.6289 Q1604.7969,604.1758 1605.1094,603.9102 Q1605.4219,603.6289 1606.125,603.6289 L1606.4375,603.6289 L1606.4375,595.8008 L1606.125,595.8008 Q1605.4063,595.8008 1605.0938,595.5195 Q1604.7969,595.2383 1604.7969,594.7852 Q1604.7969,594.332 1605.0938,594.0664 Q1605.4063,593.7852 1606.125,593.7852 L1615.1094,593.7852 L1615.1094,596.832 Q1615.1094,597.5508 1614.8281,597.8633 Q1614.5625,598.1602 1614.125,598.1602 Q1613.6719,598.1602 1613.3906,597.8633 Q1613.1094,597.5664 1613.1094,596.832 L1613.1094,595.8008 L1608.4531,595.8008 L1608.4531,598.6914 L1610.2031,598.6914 Q1610.2031,597.9102 1610.3438,597.6758 Q1610.6563,597.207 1611.2031,597.207 Q1611.6563,597.207 1611.9219,597.5195 Q1612.2031,597.8164 1612.2031,598.5352 L1612.2031,600.8477 Q1612.2031,601.5039 1612.0469,601.7227 Q1611.7344,602.1758 1611.2031,602.1758 Q1610.6563,602.1758 1610.3438,601.707 Q1610.2031,601.4727 1610.2031,600.6914 L1608.4531,600.6914 Z " fill="#000000"/><text fill="#000000" font-family="sans-serif" font-size="20" font-style="italic" lengthAdjust="spacing" textLength="69" x="1643.5" y="582.6563">«entity»</text><text fill="#000000" font-family="sans-serif" font-size="20" font-style="italic" lengthAdjust="spacing" textLength="56" x="1650" y="607.8125">«root»</text><text fill="#000000" font-family="sans-serif" font-size="20" lengthAdjust="spacing" textLength="105" x="1625.5" y="632.9688">JobOpening</text><line style="stroke:#181818;stroke-width:0.5;" x1="1595.5" x2="1732.5" y1="642.3633" y2="642.3633"/></g><!--class JobFunction--><g id="elem_JobFunction"><rect codeLine="26" fill="#F5F5DC" height="68.3125" id="JobFunction" rx="2.5" ry="2.5" style="stroke:#181818;stroke-width:0.5;" width="158" x="816" y="807.3945"/><ellipse cx="832" cy="837.5508" fill="#FF8B40" rx="12" ry="12" style="stroke:#181818;stroke-width:1.0;"/><path d="M832.5,841.6289 L835.3906,834.7227 L834.9375,834.7227 Q834.2188,834.7227 833.9063,834.4414 Q833.5938,834.1602 833.5938,833.707 Q833.5938,833.2539 833.9063,832.9883 Q834.2188,832.707 834.9375,832.707 L837.625,832.707 Q838.3438,832.707 838.6563,832.9883 Q838.9688,833.2539 838.9688,833.707 Q838.9688,834.2539 838.5,834.5664 Q838.2656,834.7227 837.5781,834.7227 L833.4688,844.5508 L831.5469,844.5508 L827.4375,834.7227 Q826.7344,834.7227 826.5156,834.5664 Q826.0469,834.2539 826.0469,833.707 Q826.0469,833.2539 826.3594,832.9883 Q826.6563,832.707 827.375,832.707 L830.0781,832.707 Q830.7969,832.707 831.0938,832.9883 Q831.4063,833.2539 831.4063,833.707 Q831.4063,834.1602 831.1094,834.4414 Q830.8125,834.7227 830.0781,834.7227 L829.6094,834.7227 L832.5,841.6289 Z " fill="#000000"/><text fill="#000000" font-family="sans-serif" font-size="20" font-style="italic" lengthAdjust="spacing" textLength="128" x="845" y="833.1563">«value object»</text><text fill="#000000" font-family="sans-serif" font-size="20" lengthAdjust="spacing" textLength="105" x="856.5" y="858.3125">JobFunction</text><line style="stroke:#181818;stroke-width:0.5;" x1="817" x2="973" y1="867.707" y2="867.707"/></g><!--class JobOpeningStatus--><g id="elem_JobOpeningStatus"><rect codeLine="27" fill="#F5F5DC" height="68.3125" id="JobOpeningStatus" rx="2.5" ry="2.5" style="stroke:#181818;stroke-width:0.5;" width="195" x="1009.5" y="807.3945"/><ellipse cx="1025.5" cy="837.5508" fill="#FF8B40" rx="12" ry="12" style="stroke:#181818;stroke-width:1.0;"/><path d="M1026,841.6289 L1028.8906,834.7227 L1028.4375,834.7227 Q1027.7188,834.7227 1027.4063,834.4414 Q1027.0938,834.1602 1027.0938,833.707 Q1027.0938,833.2539 1027.4063,832.9883 Q1027.7188,832.707 1028.4375,832.707 L1031.125,832.707 Q1031.8438,832.707 1032.1563,832.9883 Q1032.4688,833.2539 1032.4688,833.707 Q1032.4688,834.2539 1032,834.5664 Q1031.7656,834.7227 1031.0781,834.7227 L1026.9688,844.5508 L1025.0469,844.5508 L1020.9375,834.7227 Q1020.2344,834.7227 1020.0156,834.5664 Q1019.5469,834.2539 1019.5469,833.707 Q1019.5469,833.2539 1019.8594,832.9883 Q1020.1563,832.707 1020.875,832.707 L1023.5781,832.707 Q1024.2969,832.707 1024.5938,832.9883 Q1024.9063,833.2539 1024.9063,833.707 Q1024.9063,834.1602 1024.6094,834.4414 Q1024.3125,834.7227 1023.5781,834.7227 L1023.1094,834.7227 L1026,841.6289 Z " fill="#000000"/><text fill="#000000" font-family="sans-serif" font-size="20" font-style="italic" lengthAdjust="spacing" textLength="128" x="1057" y="833.1563">«value object»</text><text fill="#000000" font-family="sans-serif" font-size="20" lengthAdjust="spacing" textLength="161" x="1040.5" y="858.3125">JobOpeningStatus</text><line style="stroke:#181818;stroke-width:0.5;" x1="1010.5" x2="1203.5" y1="867.707" y2="867.707"/></g><!--class ContractType--><g id="elem_ContractType"><rect codeLine="28" fill="#F5F5DC" height="68.3125" id="ContractType" rx="2.5" ry="2.5" style="stroke:#181818;stroke-width:0.5;" width="158" x="1196" y="1047.3945"/><ellipse cx="1212" cy="1077.5508" fill="#FF8B40" rx="12" ry="12" style="stroke:#181818;stroke-width:1.0;"/><path d="M1212.5,1081.6289 L1215.3906,1074.7227 L1214.9375,1074.7227 Q1214.2188,1074.7227 1213.9063,1074.4414 Q1213.5938,1074.1602 1213.5938,1073.707 Q1213.5938,1073.2539 1213.9063,1072.9883 Q1214.2188,1072.707 1214.9375,1072.707 L1217.625,1072.707 Q1218.3438,1072.707 1218.6563,1072.9883 Q1218.9688,1073.2539 1218.9688,1073.707 Q1218.9688,1074.2539 1218.5,1074.5664 Q1218.2656,1074.7227 1217.5781,1074.7227 L1213.4688,1084.5508 L1211.5469,1084.5508 L1207.4375,1074.7227 Q1206.7344,1074.7227 1206.5156,1074.5664 Q1206.0469,1074.2539 1206.0469,1073.707 Q1206.0469,1073.2539 1206.3594,1072.9883 Q1206.6563,1072.707 1207.375,1072.707 L1210.0781,1072.707 Q1210.7969,1072.707 1211.0938,1072.9883 Q1211.4063,1073.2539 1211.4063,1073.707 Q1211.4063,1074.1602 1211.1094,1074.4414 Q1210.8125,1074.7227 1210.0781,1074.7227 L1209.6094,1074.7227 L1212.5,1081.6289 Z " fill="#000000"/><text fill="#000000" font-family="sans-serif" font-size="20" font-style="italic" lengthAdjust="spacing" textLength="128" x="1225" y="1073.1563">«value object»</text><text fill="#000000" font-family="sans-serif" font-size="20" lengthAdjust="spacing" textLength="119" x="1229.5" y="1098.3125">ContractType</text><line style="stroke:#181818;stroke-width:0.5;" x1="1197" x2="1353" y1="1107.707" y2="1107.707"/></g><!--class Mode--><g id="elem_Mode"><rect codeLine="29" fill="#F5F5DC" height="68.3125" id="Mode" rx="2.5" ry="2.5" style="stroke:#181818;stroke-width:0.5;" width="158" x="1382" y="807.3945"/><ellipse cx="1398" cy="837.5508" fill="#FF8B40" rx="12" ry="12" style="stroke:#181818;stroke-width:1.0;"/><path d="M1398.5,841.6289 L1401.3906,834.7227 L1400.9375,834.7227 Q1400.2188,834.7227 1399.9063,834.4414 Q1399.5938,834.1602 1399.5938,833.707 Q1399.5938,833.2539 1399.9063,832.9883 Q1400.2188,832.707 1400.9375,832.707 L1403.625,832.707 Q1404.3438,832.707 1404.6563,832.9883 Q1404.9688,833.2539 1404.9688,833.707 Q1404.9688,834.2539 1404.5,834.5664 Q1404.2656,834.7227 1403.5781,834.7227 L1399.4688,844.5508 L1397.5469,844.5508 L1393.4375,834.7227 Q1392.7344,834.7227 1392.5156,834.5664 Q1392.0469,834.2539 1392.0469,833.707 Q1392.0469,833.2539 1392.3594,832.9883 Q1392.6563,832.707 1393.375,832.707 L1396.0781,832.707 Q1396.7969,832.707 1397.0938,832.9883 Q1397.4063,833.2539 1397.4063,833.707 Q1397.4063,834.1602 1397.1094,834.4414 Q1396.8125,834.7227 1396.0781,834.7227 L1395.6094,834.7227 L1398.5,841.6289 Z " fill="#000000"/><text fill="#000000" font-family="sans-serif" font-size="20" font-style="italic" lengthAdjust="spacing" textLength="128" x="1411" y="833.1563">«value object»</text><text fill="#000000" font-family="sans-serif" font-size="20" lengthAdjust="spacing" textLength="50" x="1450" y="858.3125">Mode</text><line style="stroke:#181818;stroke-width:0.5;" x1="1383" x2="1539" y1="867.707" y2="867.707"/></g><!--class NumberVacancy--><g id="elem_NumberVacancy"><rect codeLine="30" fill="#F5F5DC" height="68.3125" id="NumberVacancy" rx="2.5" ry="2.5" style="stroke:#181818;stroke-width:0.5;" width="177" x="1575.5" y="807.3945"/><ellipse cx="1591.5" cy="837.5508" fill="#FF8B40" rx="12" ry="12" style="stroke:#181818;stroke-width:1.0;"/><path d="M1592,841.6289 L1594.8906,834.7227 L1594.4375,834.7227 Q1593.7188,834.7227 1593.4063,834.4414 Q1593.0938,834.1602 1593.0938,833.707 Q1593.0938,833.2539 1593.4063,832.9883 Q1593.7188,832.707 1594.4375,832.707 L1597.125,832.707 Q1597.8438,832.707 1598.1563,832.9883 Q1598.4688,833.2539 1598.4688,833.707 Q1598.4688,834.2539 1598,834.5664 Q1597.7656,834.7227 1597.0781,834.7227 L1592.9688,844.5508 L1591.0469,844.5508 L1586.9375,834.7227 Q1586.2344,834.7227 1586.0156,834.5664 Q1585.5469,834.2539 1585.5469,833.707 Q1585.5469,833.2539 1585.8594,832.9883 Q1586.1563,832.707 1586.875,832.707 L1589.5781,832.707 Q1590.2969,832.707 1590.5938,832.9883 Q1590.9063,833.2539 1590.9063,833.707 Q1590.9063,834.1602 1590.6094,834.4414 Q1590.3125,834.7227 1589.5781,834.7227 L1589.1094,834.7227 L1592,841.6289 Z " fill="#000000"/><text fill="#000000" font-family="sans-serif" font-size="20" font-style="italic" lengthAdjust="spacing" textLength="128" x="1614" y="833.1563">«value object»</text><text fill="#000000" font-family="sans-serif" font-size="20" lengthAdjust="spacing" textLength="143" x="1606.5" y="858.3125">NumberVacancy</text><line style="stroke:#181818;stroke-width:0.5;" x1="1576.5" x2="1751.5" y1="867.707" y2="867.707"/></g><!--class Description--><g id="elem_Description"><rect codeLine="31" fill="#F5F5DC" height="68.3125" id="Description" rx="2.5" ry="2.5" style="stroke:#181818;stroke-width:0.5;" width="158" x="1734" y="1047.3945"/><ellipse cx="1750" cy="1077.5508" fill="#FF8B40" rx="12" ry="12" style="stroke:#181818;stroke-width:1.0;"/><path d="M1750.5,1081.6289 L1753.3906,1074.7227 L1752.9375,1074.7227 Q1752.2188,1074.7227 1751.9063,1074.4414 Q1751.5938,1074.1602 1751.5938,1073.707 Q1751.5938,1073.2539 1751.9063,1072.9883 Q1752.2188,1072.707 1752.9375,1072.707 L1755.625,1072.707 Q1756.3438,1072.707 1756.6563,1072.9883 Q1756.9688,1073.2539 1756.9688,1073.707 Q1756.9688,1074.2539 1756.5,1074.5664 Q1756.2656,1074.7227 1755.5781,1074.7227 L1751.4688,1084.5508 L1749.5469,1084.5508 L1745.4375,1074.7227 Q1744.7344,1074.7227 1744.5156,1074.5664 Q1744.0469,1074.2539 1744.0469,1073.707 Q1744.0469,1073.2539 1744.3594,1072.9883 Q1744.6563,1072.707 1745.375,1072.707 L1748.0781,1072.707 Q1748.7969,1072.707 1749.0938,1072.9883 Q1749.4063,1073.2539 1749.4063,1073.707 Q1749.4063,1074.1602 1749.1094,1074.4414 Q1748.8125,1074.7227 1748.0781,1074.7227 L1747.6094,1074.7227 L1750.5,1081.6289 Z " fill="#000000"/><text fill="#000000" font-family="sans-serif" font-size="20" font-style="italic" lengthAdjust="spacing" textLength="128" x="1763" y="1073.1563">«value object»</text><text fill="#000000" font-family="sans-serif" font-size="20" lengthAdjust="spacing" textLength="98" x="1778" y="1098.3125">Description</text><line style="stroke:#181818;stroke-width:0.5;" x1="1735" x2="1891" y1="1107.707" y2="1107.707"/></g><!--class JobReference--><g id="elem_JobReference"><rect codeLine="32" fill="#F5F5DC" height="93.4688" id="JobReference" rx="2.5" ry="2.5" style="stroke:#181818;stroke-width:0.5;" width="158" x="532" y="1034.8945"/><ellipse cx="548" cy="1077.6289" fill="#FF8B40" rx="12" ry="12" style="stroke:#181818;stroke-width:1.0;"/><path d="M548.5,1081.707 L551.3906,1074.8008 L550.9375,1074.8008 Q550.2188,1074.8008 549.9063,1074.5195 Q549.5938,1074.2383 549.5938,1073.7852 Q549.5938,1073.332 549.9063,1073.0664 Q550.2188,1072.7852 550.9375,1072.7852 L553.625,1072.7852 Q554.3438,1072.7852 554.6563,1073.0664 Q554.9688,1073.332 554.9688,1073.7852 Q554.9688,1074.332 554.5,1074.6445 Q554.2656,1074.8008 553.5781,1074.8008 L549.4688,1084.6289 L547.5469,1084.6289 L543.4375,1074.8008 Q542.7344,1074.8008 542.5156,1074.6445 Q542.0469,1074.332 542.0469,1073.7852 Q542.0469,1073.332 542.3594,1073.0664 Q542.6563,1072.7852 543.375,1072.7852 L546.0781,1072.7852 Q546.7969,1072.7852 547.0938,1073.0664 Q547.4063,1073.332 547.4063,1073.7852 Q547.4063,1074.2383 547.1094,1074.5195 Q546.8125,1074.8008 546.0781,1074.8008 L545.6094,1074.8008 L548.5,1081.707 Z " fill="#000000"/><text fill="#000000" font-family="sans-serif" font-size="20" font-style="italic" lengthAdjust="spacing" textLength="128" x="561" y="1060.6563">«value object»</text><text fill="#000000" font-family="sans-serif" font-size="20" font-style="italic" lengthAdjust="spacing" textLength="99" x="575.5" y="1085.8125">«identifier»</text><text fill="#000000" font-family="sans-serif" font-size="20" lengthAdjust="spacing" textLength="123" x="563.5" y="1110.9688">JobReference</text><line style="stroke:#181818;stroke-width:0.5;" x1="533" x2="689" y1="1120.3633" y2="1120.3633"/></g><!--class Rank--><g id="elem_Rank"><rect codeLine="33" fill="#F5F5DC" height="68.3125" id="Rank" rx="2.5" ry="2.5" style="stroke:#181818;stroke-width:0.5;" width="158" x="725" y="1047.3945"/><ellipse cx="741" cy="1077.5508" fill="#FF8B40" rx="12" ry="12" style="stroke:#181818;stroke-width:1.0;"/><path d="M741.5,1081.6289 L744.3906,1074.7227 L743.9375,1074.7227 Q743.2188,1074.7227 742.9063,1074.4414 Q742.5938,1074.1602 742.5938,1073.707 Q742.5938,1073.2539 742.9063,1072.9883 Q743.2188,1072.707 743.9375,1072.707 L746.625,1072.707 Q747.3438,1072.707 747.6563,1072.9883 Q747.9688,1073.2539 747.9688,1073.707 Q747.9688,1074.2539 747.5,1074.5664 Q747.2656,1074.7227 746.5781,1074.7227 L742.4688,1084.5508 L740.5469,1084.5508 L736.4375,1074.7227 Q735.7344,1074.7227 735.5156,1074.5664 Q735.0469,1074.2539 735.0469,1073.707 Q735.0469,1073.2539 735.3594,1072.9883 Q735.6563,1072.707 736.375,1072.707 L739.0781,1072.707 Q739.7969,1072.707 740.0938,1072.9883 Q740.4063,1073.2539 740.4063,1073.707 Q740.4063,1074.1602 740.1094,1074.4414 Q739.8125,1074.7227 739.0781,1074.7227 L738.6094,1074.7227 L741.5,1081.6289 Z " fill="#000000"/><text fill="#000000" font-family="sans-serif" font-size="20" font-style="italic" lengthAdjust="spacing" textLength="128" x="754" y="1073.1563">«value object»</text><text fill="#000000" font-family="sans-serif" font-size="20" lengthAdjust="spacing" textLength="45" x="795.5" y="1098.3125">Rank</text><line style="stroke:#181818;stroke-width:0.5;" x1="726" x2="882" y1="1107.707" y2="1107.707"/></g><!--class CustomerManager--><g id="elem_CustomerManager"><rect codeLine="37" fill="#F5F5DC" height="93.4688" id="CustomerManager" rx="2.5" ry="2.5" style="stroke:#181818;stroke-width:0.5;" width="197" x="2641.5" y="78.8945"/><ellipse cx="2657.5" cy="121.6289" fill="#ADD1B2" rx="12" ry="12" style="stroke:#181818;stroke-width:1.0;"/><path d="M2655.4531,122.6914 L2655.4531,125.6289 L2660.5469,125.6289 L2660.5469,124.5352 Q2660.5469,123.8164 2660.8281,123.5195 Q2661.1094,123.207 2661.5625,123.207 Q2662,123.207 2662.2813,123.5195 Q2662.5625,123.8164 2662.5625,124.5352 L2662.5625,127.6289 L2653.125,127.6289 Q2652.4063,127.6289 2652.0938,127.3477 Q2651.7969,127.0664 2651.7969,126.6289 Q2651.7969,126.1758 2652.1094,125.9102 Q2652.4219,125.6289 2653.125,125.6289 L2653.4375,125.6289 L2653.4375,117.8008 L2653.125,117.8008 Q2652.4063,117.8008 2652.0938,117.5195 Q2651.7969,117.2383 2651.7969,116.7852 Q2651.7969,116.332 2652.0938,116.0664 Q2652.4063,115.7852 2653.125,115.7852 L2662.1094,115.7852 L2662.1094,118.832 Q2662.1094,119.5508 2661.8281,119.8633 Q2661.5625,120.1602 2661.125,120.1602 Q2660.6719,120.1602 2660.3906,119.8633 Q2660.1094,119.5664 2660.1094,118.832 L2660.1094,117.8008 L2655.4531,117.8008 L2655.4531,120.6914 L2657.2031,120.6914 Q2657.2031,119.9102 2657.3438,119.6758 Q2657.6563,119.207 2658.2031,119.207 Q2658.6563,119.207 2658.9219,119.5195 Q2659.2031,119.8164 2659.2031,120.5352 L2659.2031,122.8477 Q2659.2031,123.5039 2659.0469,123.7227 Q2658.7344,124.1758 2658.2031,124.1758 Q2657.6563,124.1758 2657.3438,123.707 Q2657.2031,123.4727 2657.2031,122.6914 L2655.4531,122.6914 Z " fill="#000000"/><text fill="#000000" font-family="sans-serif" font-size="20" font-style="italic" lengthAdjust="spacing" textLength="69" x="2719.5" y="104.6563">«entity»</text><text fill="#000000" font-family="sans-serif" font-size="20" font-style="italic" lengthAdjust="spacing" textLength="56" x="2726" y="129.8125">«root»</text><text fill="#000000" font-family="sans-serif" font-size="20" lengthAdjust="spacing" textLength="163" x="2672.5" y="154.9688">CustomerManager</text><line style="stroke:#181818;stroke-width:0.5;" x1="2642.5" x2="2837.5" y1="164.3633" y2="164.3633"/></g><!--class Candidate--><g id="elem_Candidate"><rect codeLine="41" fill="#F5F5DC" height="93.4688" id="Candidate" rx="2.5" ry="2.5" style="stroke:#181818;stroke-width:0.5;" width="123" x="329.5" y="318.8945"/><ellipse cx="345.5" cy="361.6289" fill="#ADD1B2" rx="12" ry="12" style="stroke:#181818;stroke-width:1.0;"/><path d="M343.4531,362.6914 L343.4531,365.6289 L348.5469,365.6289 L348.5469,364.5352 Q348.5469,363.8164 348.8281,363.5195 Q349.1094,363.207 349.5625,363.207 Q350,363.207 350.2813,363.5195 Q350.5625,363.8164 350.5625,364.5352 L350.5625,367.6289 L341.125,367.6289 Q340.4063,367.6289 340.0938,367.3477 Q339.7969,367.0664 339.7969,366.6289 Q339.7969,366.1758 340.1094,365.9102 Q340.4219,365.6289 341.125,365.6289 L341.4375,365.6289 L341.4375,357.8008 L341.125,357.8008 Q340.4063,357.8008 340.0938,357.5195 Q339.7969,357.2383 339.7969,356.7852 Q339.7969,356.332 340.0938,356.0664 Q340.4063,355.7852 341.125,355.7852 L350.1094,355.7852 L350.1094,358.832 Q350.1094,359.5508 349.8281,359.8633 Q349.5625,360.1602 349.125,360.1602 Q348.6719,360.1602 348.3906,359.8633 Q348.1094,359.5664 348.1094,358.832 L348.1094,357.8008 L343.4531,357.8008 L343.4531,360.6914 L345.2031,360.6914 Q345.2031,359.9102 345.3438,359.6758 Q345.6563,359.207 346.2031,359.207 Q346.6563,359.207 346.9219,359.5195 Q347.2031,359.8164 347.2031,360.5352 L347.2031,362.8477 Q347.2031,363.5039 347.0469,363.7227 Q346.7344,364.1758 346.2031,364.1758 Q345.6563,364.1758 345.3438,363.707 Q345.2031,363.4727 345.2031,362.6914 L343.4531,362.6914 Z " fill="#000000"/><text fill="#000000" font-family="sans-serif" font-size="20" font-style="italic" lengthAdjust="spacing" textLength="69" x="370.5" y="344.6563">«entity»</text><text fill="#000000" font-family="sans-serif" font-size="20" font-style="italic" lengthAdjust="spacing" textLength="56" x="377" y="369.8125">«root»</text><text fill="#000000" font-family="sans-serif" font-size="20" lengthAdjust="spacing" textLength="89" x="360.5" y="394.9688">Candidate</text><line style="stroke:#181818;stroke-width:0.5;" x1="330.5" x2="451.5" y1="404.3633" y2="404.3633"/></g><!--class CandidateName--><g id="elem_CandidateName"><rect codeLine="42" fill="#F5F5DC" height="68.3125" id="CandidateName" rx="2.5" ry="2.5" style="stroke:#181818;stroke-width:0.5;" width="174" x="22" y="569.3945"/><ellipse cx="38" cy="599.5508" fill="#FF8B40" rx="12" ry="12" style="stroke:#181818;stroke-width:1.0;"/><path d="M38.5,603.6289 L41.3906,596.7227 L40.9375,596.7227 Q40.2188,596.7227 39.9063,596.4414 Q39.5938,596.1602 39.5938,595.707 Q39.5938,595.2539 39.9063,594.9883 Q40.2188,594.707 40.9375,594.707 L43.625,594.707 Q44.3438,594.707 44.6563,594.9883 Q44.9688,595.2539 44.9688,595.707 Q44.9688,596.2539 44.5,596.5664 Q44.2656,596.7227 43.5781,596.7227 L39.4688,606.5508 L37.5469,606.5508 L33.4375,596.7227 Q32.7344,596.7227 32.5156,596.5664 Q32.0469,596.2539 32.0469,595.707 Q32.0469,595.2539 32.3594,594.9883 Q32.6563,594.707 33.375,594.707 L36.0781,594.707 Q36.7969,594.707 37.0938,594.9883 Q37.4063,595.2539 37.4063,595.707 Q37.4063,596.1602 37.1094,596.4414 Q36.8125,596.7227 36.0781,596.7227 L35.6094,596.7227 L38.5,603.6289 Z " fill="#000000"/><text fill="#000000" font-family="sans-serif" font-size="20" font-style="italic" lengthAdjust="spacing" textLength="128" x="59" y="595.1563">«value object»</text><text fill="#000000" font-family="sans-serif" font-size="20" lengthAdjust="spacing" textLength="140" x="53" y="620.3125">CandidateName</text><line style="stroke:#181818;stroke-width:0.5;" x1="23" x2="195" y1="629.707" y2="629.707"/></g><!--class PhoneNumber--><g id="elem_PhoneNumber"><rect codeLine="43" fill="#F5F5DC" height="68.3125" id="PhoneNumber" rx="2.5" ry="2.5" style="stroke:#181818;stroke-width:0.5;" width="158" x="111" y="807.3945"/><ellipse cx="127" cy="837.5508" fill="#FF8B40" rx="12" ry="12" style="stroke:#181818;stroke-width:1.0;"/><path d="M127.5,841.6289 L130.3906,834.7227 L129.9375,834.7227 Q129.2188,834.7227 128.9063,834.4414 Q128.5938,834.1602 128.5938,833.707 Q128.5938,833.2539 128.9063,832.9883 Q129.2188,832.707 129.9375,832.707 L132.625,832.707 Q133.3438,832.707 133.6563,832.9883 Q133.9688,833.2539 133.9688,833.707 Q133.9688,834.2539 133.5,834.5664 Q133.2656,834.7227 132.5781,834.7227 L128.4688,844.5508 L126.5469,844.5508 L122.4375,834.7227 Q121.7344,834.7227 121.5156,834.5664 Q121.0469,834.2539 121.0469,833.707 Q121.0469,833.2539 121.3594,832.9883 Q121.6563,832.707 122.375,832.707 L125.0781,832.707 Q125.7969,832.707 126.0938,832.9883 Q126.4063,833.2539 126.4063,833.707 Q126.4063,834.1602 126.1094,834.4414 Q125.8125,834.7227 125.0781,834.7227 L124.6094,834.7227 L127.5,841.6289 Z " fill="#000000"/><text fill="#000000" font-family="sans-serif" font-size="20" font-style="italic" lengthAdjust="spacing" textLength="128" x="140" y="833.1563">«value object»</text><text fill="#000000" font-family="sans-serif" font-size="20" lengthAdjust="spacing" textLength="123" x="142.5" y="858.3125">PhoneNumber</text><line style="stroke:#181818;stroke-width:0.5;" x1="112" x2="268" y1="867.707" y2="867.707"/></g><!--class Email--><g id="elem_Email"><rect codeLine="44" fill="#F5F5DC" height="68.3125" id="Email" rx="2.5" ry="2.5" style="stroke:#181818;stroke-width:0.5;" width="158" x="304" y="807.3945"/><ellipse cx="320" cy="837.5508" fill="#FF8B40" rx="12" ry="12" style="stroke:#181818;stroke-width:1.0;"/><path d="M320.5,841.6289 L323.3906,834.7227 L322.9375,834.7227 Q322.2188,834.7227 321.9063,834.4414 Q321.5938,834.1602 321.5938,833.707 Q321.5938,833.2539 321.9063,832.9883 Q322.2188,832.707 322.9375,832.707 L325.625,832.707 Q326.3438,832.707 326.6563,832.9883 Q326.9688,833.2539 326.9688,833.707 Q326.9688,834.2539 326.5,834.5664 Q326.2656,834.7227 325.5781,834.7227 L321.4688,844.5508 L319.5469,844.5508 L315.4375,834.7227 Q314.7344,834.7227 314.5156,834.5664 Q314.0469,834.2539 314.0469,833.707 Q314.0469,833.2539 314.3594,832.9883 Q314.6563,832.707 315.375,832.707 L318.0781,832.707 Q318.7969,832.707 319.0938,832.9883 Q319.4063,833.2539 319.4063,833.707 Q319.4063,834.1602 319.1094,834.4414 Q318.8125,834.7227 318.0781,834.7227 L317.6094,834.7227 L320.5,841.6289 Z " fill="#000000"/><text fill="#000000" font-family="sans-serif" font-size="20" font-style="italic" lengthAdjust="spacing" textLength="128" x="333" y="833.1563">«value object»</text><text fill="#000000" font-family="sans-serif" font-size="20" lengthAdjust="spacing" textLength="48" x="373" y="858.3125">Email</text><line style="stroke:#181818;stroke-width:0.5;" x1="305" x2="461" y1="867.707" y2="867.707"/></g><!--class Application--><g id="elem_Application"><rect codeLine="48" fill="#F5F5DC" height="93.4688" id="Application" rx="2.5" ry="2.5" style="stroke:#181818;stroke-width:0.5;" width="129" x="2567.5" y="794.8945"/><ellipse cx="2583.5" cy="837.6289" fill="#ADD1B2" rx="12" ry="12" style="stroke:#181818;stroke-width:1.0;"/><path d="M2581.4531,838.6914 L2581.4531,841.6289 L2586.5469,841.6289 L2586.5469,840.5352 Q2586.5469,839.8164 2586.8281,839.5195 Q2587.1094,839.207 2587.5625,839.207 Q2588,839.207 2588.2813,839.5195 Q2588.5625,839.8164 2588.5625,840.5352 L2588.5625,843.6289 L2579.125,843.6289 Q2578.4063,843.6289 2578.0938,843.3477 Q2577.7969,843.0664 2577.7969,842.6289 Q2577.7969,842.1758 2578.1094,841.9102 Q2578.4219,841.6289 2579.125,841.6289 L2579.4375,841.6289 L2579.4375,833.8008 L2579.125,833.8008 Q2578.4063,833.8008 2578.0938,833.5195 Q2577.7969,833.2383 2577.7969,832.7852 Q2577.7969,832.332 2578.0938,832.0664 Q2578.4063,831.7852 2579.125,831.7852 L2588.1094,831.7852 L2588.1094,834.832 Q2588.1094,835.5508 2587.8281,835.8633 Q2587.5625,836.1602 2587.125,836.1602 Q2586.6719,836.1602 2586.3906,835.8633 Q2586.1094,835.5664 2586.1094,834.832 L2586.1094,833.8008 L2581.4531,833.8008 L2581.4531,836.6914 L2583.2031,836.6914 Q2583.2031,835.9102 2583.3438,835.6758 Q2583.6563,835.207 2584.2031,835.207 Q2584.6563,835.207 2584.9219,835.5195 Q2585.2031,835.8164 2585.2031,836.5352 L2585.2031,838.8477 Q2585.2031,839.5039 2585.0469,839.7227 Q2584.7344,840.1758 2584.2031,840.1758 Q2583.6563,840.1758 2583.3438,839.707 Q2583.2031,839.4727 2583.2031,838.6914 L2581.4531,838.6914 Z " fill="#000000"/><text fill="#000000" font-family="sans-serif" font-size="20" font-style="italic" lengthAdjust="spacing" textLength="69" x="2611.5" y="820.6563">«entity»</text><text fill="#000000" font-family="sans-serif" font-size="20" font-style="italic" lengthAdjust="spacing" textLength="56" x="2618" y="845.8125">«root»</text><text fill="#000000" font-family="sans-serif" font-size="20" lengthAdjust="spacing" textLength="95" x="2598.5" y="870.9688">Application</text><line style="stroke:#181818;stroke-width:0.5;" x1="2568.5" x2="2695.5" y1="880.3633" y2="880.3633"/></g><!--class ApplicationDate--><g id="elem_ApplicationDate"><rect codeLine="49" fill="#F5F5DC" height="68.3125" id="ApplicationDate" rx="2.5" ry="2.5" style="stroke:#181818;stroke-width:0.5;" width="171" x="2658.5" y="1229.3945"/><ellipse cx="2674.5" cy="1259.5508" fill="#FF8B40" rx="12" ry="12" style="stroke:#181818;stroke-width:1.0;"/><path d="M2675,1263.6289 L2677.8906,1256.7227 L2677.4375,1256.7227 Q2676.7188,1256.7227 2676.4063,1256.4414 Q2676.0938,1256.1602 2676.0938,1255.707 Q2676.0938,1255.2539 2676.4063,1254.9883 Q2676.7188,1254.707 2677.4375,1254.707 L2680.125,1254.707 Q2680.8438,1254.707 2681.1563,1254.9883 Q2681.4688,1255.2539 2681.4688,1255.707 Q2681.4688,1256.2539 2681,1256.5664 Q2680.7656,1256.7227 2680.0781,1256.7227 L2675.9688,1266.5508 L2674.0469,1266.5508 L2669.9375,1256.7227 Q2669.2344,1256.7227 2669.0156,1256.5664 Q2668.5469,1256.2539 2668.5469,1255.707 Q2668.5469,1255.2539 2668.8594,1254.9883 Q2669.1563,1254.707 2669.875,1254.707 L2672.5781,1254.707 Q2673.2969,1254.707 2673.5938,1254.9883 Q2673.9063,1255.2539 2673.9063,1255.707 Q2673.9063,1256.1602 2673.6094,1256.4414 Q2673.3125,1256.7227 2672.5781,1256.7227 L2672.1094,1256.7227 L2675,1263.6289 Z " fill="#000000"/><text fill="#000000" font-family="sans-serif" font-size="20" font-style="italic" lengthAdjust="spacing" textLength="128" x="2694" y="1255.1563">«value object»</text><text fill="#000000" font-family="sans-serif" font-size="20" lengthAdjust="spacing" textLength="137" x="2689.5" y="1280.3125">ApplicationDate</text><line style="stroke:#181818;stroke-width:0.5;" x1="2659.5" x2="2828.5" y1="1289.707" y2="1289.707"/></g><!--class ApplicationStatus--><g id="elem_ApplicationStatus"><rect codeLine="50" fill="#F5F5DC" height="68.3125" id="ApplicationStatus" rx="2.5" ry="2.5" style="stroke:#181818;stroke-width:0.5;" width="185" x="2874.5" y="1047.3945"/><ellipse cx="2890.5" cy="1077.5508" fill="#FF8B40" rx="12" ry="12" style="stroke:#181818;stroke-width:1.0;"/><path d="M2891,1081.6289 L2893.8906,1074.7227 L2893.4375,1074.7227 Q2892.7188,1074.7227 2892.4063,1074.4414 Q2892.0938,1074.1602 2892.0938,1073.707 Q2892.0938,1073.2539 2892.4063,1072.9883 Q2892.7188,1072.707 2893.4375,1072.707 L2896.125,1072.707 Q2896.8438,1072.707 2897.1563,1072.9883 Q2897.4688,1073.2539 2897.4688,1073.707 Q2897.4688,1074.2539 2897,1074.5664 Q2896.7656,1074.7227 2896.0781,1074.7227 L2891.9688,1084.5508 L2890.0469,1084.5508 L2885.9375,1074.7227 Q2885.2344,1074.7227 2885.0156,1074.5664 Q2884.5469,1074.2539 2884.5469,1073.707 Q2884.5469,1073.2539 2884.8594,1072.9883 Q2885.1563,1072.707 2885.875,1072.707 L2888.5781,1072.707 Q2889.2969,1072.707 2889.5938,1072.9883 Q2889.9063,1073.2539 2889.9063,1073.707 Q2889.9063,1074.1602 2889.6094,1074.4414 Q2889.3125,1074.7227 2888.5781,1074.7227 L2888.1094,1074.7227 L2891,1081.6289 Z " fill="#000000"/><text fill="#000000" font-family="sans-serif" font-size="20" font-style="italic" lengthAdjust="spacing" textLength="128" x="2917" y="1073.1563">«value object»</text><text fill="#000000" font-family="sans-serif" font-size="20" lengthAdjust="spacing" textLength="151" x="2905.5" y="1098.3125">ApplicationStatus</text><line style="stroke:#181818;stroke-width:0.5;" x1="2875.5" x2="3058.5" y1="1107.707" y2="1107.707"/></g><!--class Interview--><g id="elem_Interview"><rect codeLine="51" fill="#F5F5DC" height="68.3125" id="Interview" rx="2.5" ry="2.5" style="stroke:#181818;stroke-width:0.5;" width="158" x="2910" y="1229.3945"/><ellipse cx="2926" cy="1259.5508" fill="#FF8B40" rx="12" ry="12" style="stroke:#181818;stroke-width:1.0;"/><path d="M2926.5,1263.6289 L2929.3906,1256.7227 L2928.9375,1256.7227 Q2928.2188,1256.7227 2927.9063,1256.4414 Q2927.5938,1256.1602 2927.5938,1255.707 Q2927.5938,1255.2539 2927.9063,1254.9883 Q2928.2188,1254.707 2928.9375,1254.707 L2931.625,1254.707 Q2932.3438,1254.707 2932.6563,1254.9883 Q2932.9688,1255.2539 2932.9688,1255.707 Q2932.9688,1256.2539 2932.5,1256.5664 Q2932.2656,1256.7227 2931.5781,1256.7227 L2927.4688,1266.5508 L2925.5469,1266.5508 L2921.4375,1256.7227 Q2920.7344,1256.7227 2920.5156,1256.5664 Q2920.0469,1256.2539 2920.0469,1255.707 Q2920.0469,1255.2539 2920.3594,1254.9883 Q2920.6563,1254.707 2921.375,1254.707 L2924.0781,1254.707 Q2924.7969,1254.707 2925.0938,1254.9883 Q2925.4063,1255.2539 2925.4063,1255.707 Q2925.4063,1256.1602 2925.1094,1256.4414 Q2924.8125,1256.7227 2924.0781,1256.7227 L2923.6094,1256.7227 L2926.5,1263.6289 Z " fill="#000000"/><text fill="#000000" font-family="sans-serif" font-size="20" font-style="italic" lengthAdjust="spacing" textLength="128" x="2939" y="1255.1563">«value object»</text><text fill="#000000" font-family="sans-serif" font-size="20" lengthAdjust="spacing" textLength="79" x="2963.5" y="1280.3125">Interview</text><line style="stroke:#181818;stroke-width:0.5;" x1="2911" x2="3067" y1="1289.707" y2="1289.707"/></g><!--class InterviewAnswer--><g id="elem_InterviewAnswer"><rect codeLine="58" fill="#F5F5DC" height="68.3125" id="InterviewAnswer" rx="2.5" ry="2.5" style="stroke:#181818;stroke-width:0.5;" width="179" x="2916.5" y="1527.8945"/><ellipse cx="2932.5" cy="1558.0508" fill="#FF8B40" rx="12" ry="12" style="stroke:#181818;stroke-width:1.0;"/><path d="M2933,1562.1289 L2935.8906,1555.2227 L2935.4375,1555.2227 Q2934.7188,1555.2227 2934.4063,1554.9414 Q2934.0938,1554.6602 2934.0938,1554.207 Q2934.0938,1553.7539 2934.4063,1553.4883 Q2934.7188,1553.207 2935.4375,1553.207 L2938.125,1553.207 Q2938.8438,1553.207 2939.1563,1553.4883 Q2939.4688,1553.7539 2939.4688,1554.207 Q2939.4688,1554.7539 2939,1555.0664 Q2938.7656,1555.2227 2938.0781,1555.2227 L2933.9688,1565.0508 L2932.0469,1565.0508 L2927.9375,1555.2227 Q2927.2344,1555.2227 2927.0156,1555.0664 Q2926.5469,1554.7539 2926.5469,1554.207 Q2926.5469,1553.7539 2926.8594,1553.4883 Q2927.1563,1553.207 2927.875,1553.207 L2930.5781,1553.207 Q2931.2969,1553.207 2931.5938,1553.4883 Q2931.9063,1553.7539 2931.9063,1554.207 Q2931.9063,1554.6602 2931.6094,1554.9414 Q2931.3125,1555.2227 2930.5781,1555.2227 L2930.1094,1555.2227 L2933,1562.1289 Z " fill="#000000"/><text fill="#000000" font-family="sans-serif" font-size="20" font-style="italic" lengthAdjust="spacing" textLength="128" x="2956" y="1553.6563">«value object»</text><text fill="#000000" font-family="sans-serif" font-size="20" lengthAdjust="spacing" textLength="145" x="2947.5" y="1578.8125">InterviewAnswer</text><line style="stroke:#181818;stroke-width:0.5;" x1="2917.5" x2="3094.5" y1="1588.207" y2="1588.207"/></g><!--class InterviewResult--><g id="elem_InterviewResult"><rect codeLine="53" fill="#F5F5DC" height="68.3125" id="InterviewResult" rx="2.5" ry="2.5" style="stroke:#181818;stroke-width:0.5;" width="168" x="2427" y="1527.8945"/><ellipse cx="2443" cy="1558.0508" fill="#FF8B40" rx="12" ry="12" style="stroke:#181818;stroke-width:1.0;"/><path d="M2443.5,1562.1289 L2446.3906,1555.2227 L2445.9375,1555.2227 Q2445.2188,1555.2227 2444.9063,1554.9414 Q2444.5938,1554.6602 2444.5938,1554.207 Q2444.5938,1553.7539 2444.9063,1553.4883 Q2445.2188,1553.207 2445.9375,1553.207 L2448.625,1553.207 Q2449.3438,1553.207 2449.6563,1553.4883 Q2449.9688,1553.7539 2449.9688,1554.207 Q2449.9688,1554.7539 2449.5,1555.0664 Q2449.2656,1555.2227 2448.5781,1555.2227 L2444.4688,1565.0508 L2442.5469,1565.0508 L2438.4375,1555.2227 Q2437.7344,1555.2227 2437.5156,1555.0664 Q2437.0469,1554.7539 2437.0469,1554.207 Q2437.0469,1553.7539 2437.3594,1553.4883 Q2437.6563,1553.207 2438.375,1553.207 L2441.0781,1553.207 Q2441.7969,1553.207 2442.0938,1553.4883 Q2442.4063,1553.7539 2442.4063,1554.207 Q2442.4063,1554.6602 2442.1094,1554.9414 Q2441.8125,1555.2227 2441.0781,1555.2227 L2440.6094,1555.2227 L2443.5,1562.1289 Z " fill="#000000"/><text fill="#000000" font-family="sans-serif" font-size="20" font-style="italic" lengthAdjust="spacing" textLength="128" x="2461" y="1553.6563">«value object»</text><text fill="#000000" font-family="sans-serif" font-size="20" lengthAdjust="spacing" textLength="134" x="2458" y="1578.8125">InterviewResult</text><line style="stroke:#181818;stroke-width:0.5;" x1="2428" x2="2594" y1="1588.207" y2="1588.207"/></g><!--class Justification--><g id="elem_Justification"><rect codeLine="54" fill="#F5F5DC" height="68.3125" id="Justification" rx="2.5" ry="2.5" style="stroke:#181818;stroke-width:0.5;" width="158" x="2432" y="1682.8945"/><ellipse cx="2448" cy="1713.0508" fill="#FF8B40" rx="12" ry="12" style="stroke:#181818;stroke-width:1.0;"/><path d="M2448.5,1717.1289 L2451.3906,1710.2227 L2450.9375,1710.2227 Q2450.2188,1710.2227 2449.9063,1709.9414 Q2449.5938,1709.6602 2449.5938,1709.207 Q2449.5938,1708.7539 2449.9063,1708.4883 Q2450.2188,1708.207 2450.9375,1708.207 L2453.625,1708.207 Q2454.3438,1708.207 2454.6563,1708.4883 Q2454.9688,1708.7539 2454.9688,1709.207 Q2454.9688,1709.7539 2454.5,1710.0664 Q2454.2656,1710.2227 2453.5781,1710.2227 L2449.4688,1720.0508 L2447.5469,1720.0508 L2443.4375,1710.2227 Q2442.7344,1710.2227 2442.5156,1710.0664 Q2442.0469,1709.7539 2442.0469,1709.207 Q2442.0469,1708.7539 2442.3594,1708.4883 Q2442.6563,1708.207 2443.375,1708.207 L2446.0781,1708.207 Q2446.7969,1708.207 2447.0938,1708.4883 Q2447.4063,1708.7539 2447.4063,1709.207 Q2447.4063,1709.6602 2447.1094,1709.9414 Q2446.8125,1710.2227 2446.0781,1710.2227 L2445.6094,1710.2227 L2448.5,1717.1289 Z " fill="#000000"/><text fill="#000000" font-family="sans-serif" font-size="20" font-style="italic" lengthAdjust="spacing" textLength="128" x="2461" y="1708.6563">«value object»</text><text fill="#000000" font-family="sans-serif" font-size="20" lengthAdjust="spacing" textLength="102" x="2474" y="1733.8125">Justification</text><line style="stroke:#181818;stroke-width:0.5;" x1="2433" x2="2589" y1="1743.207" y2="1743.207"/></g><!--class InterviewGrade--><g id="elem_InterviewGrade"><rect codeLine="55" fill="#F5F5DC" height="68.3125" id="InterviewGrade" rx="2.5" ry="2.5" style="stroke:#181818;stroke-width:0.5;" width="169" x="2712.5" y="1527.8945"/><ellipse cx="2728.5" cy="1558.0508" fill="#FF8B40" rx="12" ry="12" style="stroke:#181818;stroke-width:1.0;"/><path d="M2729,1562.1289 L2731.8906,1555.2227 L2731.4375,1555.2227 Q2730.7188,1555.2227 2730.4063,1554.9414 Q2730.0938,1554.6602 2730.0938,1554.207 Q2730.0938,1553.7539 2730.4063,1553.4883 Q2730.7188,1553.207 2731.4375,1553.207 L2734.125,1553.207 Q2734.8438,1553.207 2735.1563,1553.4883 Q2735.4688,1553.7539 2735.4688,1554.207 Q2735.4688,1554.7539 2735,1555.0664 Q2734.7656,1555.2227 2734.0781,1555.2227 L2729.9688,1565.0508 L2728.0469,1565.0508 L2723.9375,1555.2227 Q2723.2344,1555.2227 2723.0156,1555.0664 Q2722.5469,1554.7539 2722.5469,1554.207 Q2722.5469,1553.7539 2722.8594,1553.4883 Q2723.1563,1553.207 2723.875,1553.207 L2726.5781,1553.207 Q2727.2969,1553.207 2727.5938,1553.4883 Q2727.9063,1553.7539 2727.9063,1554.207 Q2727.9063,1554.6602 2727.6094,1554.9414 Q2727.3125,1555.2227 2726.5781,1555.2227 L2726.1094,1555.2227 L2729,1562.1289 Z " fill="#000000"/><text fill="#000000" font-family="sans-serif" font-size="20" font-style="italic" lengthAdjust="spacing" textLength="128" x="2747" y="1553.6563">«value object»</text><text fill="#000000" font-family="sans-serif" font-size="20" lengthAdjust="spacing" textLength="135" x="2743.5" y="1578.8125">InterviewGrade</text><line style="stroke:#181818;stroke-width:0.5;" x1="2713.5" x2="2880.5" y1="1588.207" y2="1588.207"/></g><!--class RequirementAnswer--><g id="elem_RequirementAnswer"><rect codeLine="56" fill="#F5F5DC" height="68.3125" id="RequirementAnswer" rx="2.5" ry="2.5" style="stroke:#181818;stroke-width:0.5;" width="211" x="2120.5" y="1047.3945"/><ellipse cx="2136.5" cy="1077.5508" fill="#FF8B40" rx="12" ry="12" style="stroke:#181818;stroke-width:1.0;"/><path d="M2137,1081.6289 L2139.8906,1074.7227 L2139.4375,1074.7227 Q2138.7188,1074.7227 2138.4063,1074.4414 Q2138.0938,1074.1602 2138.0938,1073.707 Q2138.0938,1073.2539 2138.4063,1072.9883 Q2138.7188,1072.707 2139.4375,1072.707 L2142.125,1072.707 Q2142.8438,1072.707 2143.1563,1072.9883 Q2143.4688,1073.2539 2143.4688,1073.707 Q2143.4688,1074.2539 2143,1074.5664 Q2142.7656,1074.7227 2142.0781,1074.7227 L2137.9688,1084.5508 L2136.0469,1084.5508 L2131.9375,1074.7227 Q2131.2344,1074.7227 2131.0156,1074.5664 Q2130.5469,1074.2539 2130.5469,1073.707 Q2130.5469,1073.2539 2130.8594,1072.9883 Q2131.1563,1072.707 2131.875,1072.707 L2134.5781,1072.707 Q2135.2969,1072.707 2135.5938,1072.9883 Q2135.9063,1073.2539 2135.9063,1073.707 Q2135.9063,1074.1602 2135.6094,1074.4414 Q2135.3125,1074.7227 2134.5781,1074.7227 L2134.1094,1074.7227 L2137,1081.6289 Z " fill="#000000"/><text fill="#000000" font-family="sans-serif" font-size="20" font-style="italic" lengthAdjust="spacing" textLength="128" x="2176" y="1073.1563">«value object»</text><text fill="#000000" font-family="sans-serif" font-size="20" lengthAdjust="spacing" textLength="177" x="2151.5" y="1098.3125">RequirementAnswer</text><line style="stroke:#181818;stroke-width:0.5;" x1="2121.5" x2="2330.5" y1="1107.707" y2="1107.707"/></g><!--class RequirementResult--><g id="elem_RequirementResult"><rect codeLine="57" fill="#F5F5DC" height="68.3125" id="RequirementResult" rx="2.5" ry="2.5" style="stroke:#181818;stroke-width:0.5;" width="200" x="2230" y="1229.3945"/><ellipse cx="2246" cy="1259.5508" fill="#FF8B40" rx="12" ry="12" style="stroke:#181818;stroke-width:1.0;"/><path d="M2246.5,1263.6289 L2249.3906,1256.7227 L2248.9375,1256.7227 Q2248.2188,1256.7227 2247.9063,1256.4414 Q2247.5938,1256.1602 2247.5938,1255.707 Q2247.5938,1255.2539 2247.9063,1254.9883 Q2248.2188,1254.707 2248.9375,1254.707 L2251.625,1254.707 Q2252.3438,1254.707 2252.6563,1254.9883 Q2252.9688,1255.2539 2252.9688,1255.707 Q2252.9688,1256.2539 2252.5,1256.5664 Q2252.2656,1256.7227 2251.5781,1256.7227 L2247.4688,1266.5508 L2245.5469,1266.5508 L2241.4375,1256.7227 Q2240.7344,1256.7227 2240.5156,1256.5664 Q2240.0469,1256.2539 2240.0469,1255.707 Q2240.0469,1255.2539 2240.3594,1254.9883 Q2240.6563,1254.707 2241.375,1254.707 L2244.0781,1254.707 Q2244.7969,1254.707 2245.0938,1254.9883 Q2245.4063,1255.2539 2245.4063,1255.707 Q2245.4063,1256.1602 2245.1094,1256.4414 Q2244.8125,1256.7227 2244.0781,1256.7227 L2243.6094,1256.7227 L2246.5,1263.6289 Z " fill="#000000"/><text fill="#000000" font-family="sans-serif" font-size="20" font-style="italic" lengthAdjust="spacing" textLength="128" x="2280" y="1255.1563">«value object»</text><text fill="#000000" font-family="sans-serif" font-size="20" lengthAdjust="spacing" textLength="166" x="2261" y="1280.3125">RequirementResult</text><line style="stroke:#181818;stroke-width:0.5;" x1="2231" x2="2429" y1="1289.707" y2="1289.707"/></g><!--class Schedule--><g id="elem_Schedule"><rect codeLine="59" fill="#F5F5DC" height="68.3125" id="Schedule" rx="2.5" ry="2.5" style="stroke:#181818;stroke-width:0.5;" width="158" x="3044" y="1398.8945"/><ellipse cx="3060" cy="1429.0508" fill="#FF8B40" rx="12" ry="12" style="stroke:#181818;stroke-width:1.0;"/><path d="M3060.5,1433.1289 L3063.3906,1426.2227 L3062.9375,1426.2227 Q3062.2188,1426.2227 3061.9063,1425.9414 Q3061.5938,1425.6602 3061.5938,1425.207 Q3061.5938,1424.7539 3061.9063,1424.4883 Q3062.2188,1424.207 3062.9375,1424.207 L3065.625,1424.207 Q3066.3438,1424.207 3066.6563,1424.4883 Q3066.9688,1424.7539 3066.9688,1425.207 Q3066.9688,1425.7539 3066.5,1426.0664 Q3066.2656,1426.2227 3065.5781,1426.2227 L3061.4688,1436.0508 L3059.5469,1436.0508 L3055.4375,1426.2227 Q3054.7344,1426.2227 3054.5156,1426.0664 Q3054.0469,1425.7539 3054.0469,1425.207 Q3054.0469,1424.7539 3054.3594,1424.4883 Q3054.6563,1424.207 3055.375,1424.207 L3058.0781,1424.207 Q3058.7969,1424.207 3059.0938,1424.4883 Q3059.4063,1424.7539 3059.4063,1425.207 Q3059.4063,1425.6602 3059.1094,1425.9414 Q3058.8125,1426.2227 3058.0781,1426.2227 L3057.6094,1426.2227 L3060.5,1433.1289 Z " fill="#000000"/><text fill="#000000" font-family="sans-serif" font-size="20" font-style="italic" lengthAdjust="spacing" textLength="128" x="3073" y="1424.6563">«value object»</text><text fill="#000000" font-family="sans-serif" font-size="20" lengthAdjust="spacing" textLength="80" x="3097" y="1449.8125">Schedule</text><line style="stroke:#181818;stroke-width:0.5;" x1="3045" x2="3201" y1="1459.207" y2="1459.207"/></g><!--class File--><g id="elem_File"><rect codeLine="60" fill="#F5F5DC" height="68.3125" id="File" rx="2.5" ry="2.5" style="stroke:#181818;stroke-width:0.5;" width="158" x="2465" y="1229.3945"/><ellipse cx="2481" cy="1259.5508" fill="#FF8B40" rx="12" ry="12" style="stroke:#181818;stroke-width:1.0;"/><path d="M2481.5,1263.6289 L2484.3906,1256.7227 L2483.9375,1256.7227 Q2483.2188,1256.7227 2482.9063,1256.4414 Q2482.5938,1256.1602 2482.5938,1255.707 Q2482.5938,1255.2539 2482.9063,1254.9883 Q2483.2188,1254.707 2483.9375,1254.707 L2486.625,1254.707 Q2487.3438,1254.707 2487.6563,1254.9883 Q2487.9688,1255.2539 2487.9688,1255.707 Q2487.9688,1256.2539 2487.5,1256.5664 Q2487.2656,1256.7227 2486.5781,1256.7227 L2482.4688,1266.5508 L2480.5469,1266.5508 L2476.4375,1256.7227 Q2475.7344,1256.7227 2475.5156,1256.5664 Q2475.0469,1256.2539 2475.0469,1255.707 Q2475.0469,1255.2539 2475.3594,1254.9883 Q2475.6563,1254.707 2476.375,1254.707 L2479.0781,1254.707 Q2479.7969,1254.707 2480.0938,1254.9883 Q2480.4063,1255.2539 2480.4063,1255.707 Q2480.4063,1256.1602 2480.1094,1256.4414 Q2479.8125,1256.7227 2479.0781,1256.7227 L2478.6094,1256.7227 L2481.5,1263.6289 Z " fill="#000000"/><text fill="#000000" font-family="sans-serif" font-size="20" font-style="italic" lengthAdjust="spacing" textLength="128" x="2494" y="1255.1563">«value object»</text><text fill="#000000" font-family="sans-serif" font-size="20" lengthAdjust="spacing" textLength="31" x="2542.5" y="1280.3125">File</text><line style="stroke:#181818;stroke-width:0.5;" x1="2466" x2="2622" y1="1289.707" y2="1289.707"/></g><!--class Address--><g id="elem_Address"><rect codeLine="7" fill="#F5F5DC" height="68.3125" id="Address" rx="2.5" ry="2.5" style="stroke:#181818;stroke-width:0.5;" width="158" x="1927" y="1047.3945"/><ellipse cx="1943" cy="1077.5508" fill="#FF8B40" rx="12" ry="12" style="stroke:#181818;stroke-width:1.0;"/><path d="M1943.5,1081.6289 L1946.3906,1074.7227 L1945.9375,1074.7227 Q1945.2188,1074.7227 1944.9063,1074.4414 Q1944.5938,1074.1602 1944.5938,1073.707 Q1944.5938,1073.2539 1944.9063,1072.9883 Q1945.2188,1072.707 1945.9375,1072.707 L1948.625,1072.707 Q1949.3438,1072.707 1949.6563,1072.9883 Q1949.9688,1073.2539 1949.9688,1073.707 Q1949.9688,1074.2539 1949.5,1074.5664 Q1949.2656,1074.7227 1948.5781,1074.7227 L1944.4688,1084.5508 L1942.5469,1084.5508 L1938.4375,1074.7227 Q1937.7344,1074.7227 1937.5156,1074.5664 Q1937.0469,1074.2539 1937.0469,1073.707 Q1937.0469,1073.2539 1937.3594,1072.9883 Q1937.6563,1072.707 1938.375,1072.707 L1941.0781,1072.707 Q1941.7969,1072.707 1942.0938,1072.9883 Q1942.4063,1073.2539 1942.4063,1073.707 Q1942.4063,1074.1602 1942.1094,1074.4414 Q1941.8125,1074.7227 1941.0781,1074.7227 L1940.6094,1074.7227 L1943.5,1081.6289 Z " fill="#000000"/><text fill="#000000" font-family="sans-serif" font-size="20" font-style="italic" lengthAdjust="spacing" textLength="128" x="1956" y="1073.1563">«value object»</text><text fill="#000000" font-family="sans-serif" font-size="20" lengthAdjust="spacing" textLength="73" x="1983.5" y="1098.3125">Address</text><line style="stroke:#181818;stroke-width:0.5;" x1="1928" x2="2084" y1="1107.707" y2="1107.707"/></g><!--class FullClassName--><g id="elem_FullClassName"><rect codeLine="9" fill="#F5F5DC" height="68.3125" id="FullClassName" rx="2.5" ry="2.5" style="stroke:#181818;stroke-width:0.5;" width="164" x="3768" y="1229.3945"/><ellipse cx="3784" cy="1259.5508" fill="#FF8B40" rx="12" ry="12" style="stroke:#181818;stroke-width:1.0;"/><path d="M3784.5,1263.6289 L3787.3906,1256.7227 L3786.9375,1256.7227 Q3786.2188,1256.7227 3785.9063,1256.4414 Q3785.5938,1256.1602 3785.5938,1255.707 Q3785.5938,1255.2539 3785.9063,1254.9883 Q3786.2188,1254.707 3786.9375,1254.707 L3789.625,1254.707 Q3790.3438,1254.707 3790.6563,1254.9883 Q3790.9688,1255.2539 3790.9688,1255.707 Q3790.9688,1256.2539 3790.5,1256.5664 Q3790.2656,1256.7227 3789.5781,1256.7227 L3785.4688,1266.5508 L3783.5469,1266.5508 L3779.4375,1256.7227 Q3778.7344,1256.7227 3778.5156,1256.5664 Q3778.0469,1256.2539 3778.0469,1255.707 Q3778.0469,1255.2539 3778.3594,1254.9883 Q3778.6563,1254.707 3779.375,1254.707 L3782.0781,1254.707 Q3782.7969,1254.707 3783.0938,1254.9883 Q3783.4063,1255.2539 3783.4063,1255.707 Q3783.4063,1256.1602 3783.1094,1256.4414 Q3782.8125,1256.7227 3782.0781,1256.7227 L3781.6094,1256.7227 L3784.5,1263.6289 Z " fill="#000000"/><text fill="#000000" font-family="sans-serif" font-size="20" font-style="italic" lengthAdjust="spacing" textLength="128" x="3800" y="1255.1563">«value object»</text><text fill="#000000" font-family="sans-serif" font-size="20" lengthAdjust="spacing" textLength="130" x="3799" y="1280.3125">FullClassName</text><line style="stroke:#181818;stroke-width:0.5;" x1="3769" x2="3931" y1="1289.707" y2="1289.707"/></g><!--link CustomerManager to JobOpening--><g id="link_CustomerManager_JobOpening"><path codeLine="63" d="M2641.18,170.1145 C2427.75,264.5245 1927.72,485.7345 1738.41,569.4745 " fill="none" id="CustomerManager-to-JobOpening" style="stroke:#222222;stroke-width:1.0;"/><polygon fill="#222222" points="1733.72,571.5545,1743.5689,571.5602,1738.2902,569.5265,1740.324,564.2479,1733.72,571.5545" style="stroke:#222222;stroke-width:1.0;"/><text fill="#000000" font-family="sans-serif" font-size="20" lengthAdjust="spacing" textLength="77" x="2477" y="373.6563">registers</text><text fill="#000000" font-family="sans-serif" font-size="20" lengthAdjust="spacing" textLength="31" x="1741.5762" y="563.2143">1..*</text></g><!--link CustomerManager to Application--><g id="link_CustomerManager_Application"><path codeLine="64" d="M2751.33,171.8945 C2766.05,237.8345 2787.8,363.5945 2769,468.8945 C2747.63,588.5845 2690.4,720.2145 2657.05,790.1545 " fill="none" id="CustomerManager-to-Application" style="stroke:#222222;stroke-width:1.0;"/><polygon fill="#222222" points="2654.89,794.6745,2662.3795,788.2786,2657.0458,790.1631,2655.1613,784.8294,2654.89,794.6745" style="stroke:#222222;stroke-width:1.0;"/><text fill="#000000" font-family="sans-serif" font-size="20" lengthAdjust="spacing" textLength="80" x="2773" y="463.6563">overseas</text><text fill="#000000" font-family="sans-serif" font-size="20" lengthAdjust="spacing" textLength="31" x="2624.883" y="782.4576">0..*</text></g><!--link CustomerManager to Candidate--><g id="link_CustomerManager_Candidate"><path codeLine="65" d="M2641.31,136.3945 C2246.81,176.3645 788.49,324.1245 457.93,357.6145 " fill="none" id="CustomerManager-to-Candidate" style="stroke:#222222;stroke-width:1.0;"/><polygon fill="#222222" points="452.67,358.1445,462.0251,361.2238,457.6449,357.6442,461.2245,353.264,452.67,358.1445" style="stroke:#222222;stroke-width:1.0;"/><text fill="#000000" font-family="sans-serif" font-size="20" lengthAdjust="spacing" textLength="80" x="1914" y="225.6563">manages</text><text fill="#000000" font-family="sans-serif" font-size="20" lengthAdjust="spacing" textLength="31" x="460.6282" y="351.8534">1..*</text></g><!--link CustomerManager to InterviewModel--><g id="link_CustomerManager_InterviewModel"><path codeLine="66" d="M2838.58,166.1545 C3064.29,257.2145 3615.73,479.6545 3831.44,566.6745 " fill="none" id="CustomerManager-to-InterviewModel" style="stroke:#222222;stroke-width:1.0;"/><polygon fill="#222222" points="3836.16,568.5745,3829.3156,561.4926,3831.5246,566.7003,3826.3168,568.9093,3836.16,568.5745" style="stroke:#222222;stroke-width:1.0;"/><text fill="#000000" font-family="sans-serif" font-size="20" lengthAdjust="spacing" textLength="62" x="3448" y="373.6563">selects</text><text fill="#000000" font-family="sans-serif" font-size="20" lengthAdjust="spacing" textLength="31" x="3797.5543" y="560.7013">1..*</text></g><!--link Candidate to Application--><g id="link_Candidate_Application"><path codeLine="68" d="M452.66,367.6545 C701.16,373.2345 1629.21,398.9745 1911,476.8945 C2166.71,547.6045 2438.39,712.4245 2562.67,793.5745 " fill="none" id="Candidate-to-Application" style="stroke:#222222;stroke-width:1.0;"/><polygon fill="#222222" points="2567.03,796.4245,2561.6878,788.1504,2562.8457,793.6875,2557.3086,794.8454,2567.03,796.4245" style="stroke:#222222;stroke-width:1.0;"/><text fill="#000000" font-family="sans-serif" font-size="20" lengthAdjust="spacing" textLength="67" x="2315" y="611.6563">submits</text><text fill="#000000" font-family="sans-serif" font-size="20" lengthAdjust="spacing" textLength="31" x="2528.6117" y="786.8738">1..*</text></g><!--link Candidate to JobOpening--><g id="link_Candidate_JobOpening"><path codeLine="69" d="M452.83,377.8545 C664.5,417.0945 1359.65,545.9745 1589.49,588.5845 " fill="none" id="Candidate-to-JobOpening" style="stroke:#222222;stroke-width:1.0;"/><polygon fill="#222222" points="1594.5,589.5145,1586.3835,583.9358,1589.5843,588.6,1584.9202,591.8009,1594.5,589.5145" style="stroke:#222222;stroke-width:1.0;"/><text fill="#000000" font-family="sans-serif" font-size="20" lengthAdjust="spacing" textLength="92" x="914" y="463.6563">applies for</text><text fill="#000000" font-family="sans-serif" font-size="20" lengthAdjust="spacing" textLength="31" x="1555.3984" y="582.747">1..*</text></g><!--link Candidate to Email--><g id="link_Candidate_Email"><path codeLine="70" d="M390.23,412.2745 C388.65,505.5545 385.1,715.8045 383.64,802.2145 " fill="none" id="Candidate-to-Email" style="stroke:#222222;stroke-width:1.0;"/><polygon fill="#222222" points="383.56,807.2245,387.6882,798.2826,383.6314,802.225,379.689,798.1683,383.56,807.2245" style="stroke:#222222;stroke-width:1.0;"/><text fill="#000000" font-family="sans-serif" font-size="20" lengthAdjust="spacing" textLength="105" x="391" y="611.6563">identified by</text><text fill="#000000" font-family="sans-serif" font-size="20" lengthAdjust="spacing" textLength="11" x="371.7109" y="794.9514">1</text></g><!--link Candidate to CandidateName--><g id="link_Candidate_CandidateName"><path codeLine="71" d="M329.13,385.5145 C295.62,397.9345 254.88,416.5745 224,441.8945 C182.27,476.1145 148.37,528.9445 128.46,564.5545 " fill="none" id="Candidate-to-CandidateName" style="stroke:#222222;stroke-width:1.0;"/><polygon fill="#222222" points="125.86,569.2445,133.7126,563.3,128.2773,564.8677,126.7096,559.4324,125.86,569.2445" style="stroke:#222222;stroke-width:1.0;"/><text fill="#000000" font-family="sans-serif" font-size="20" lengthAdjust="spacing" textLength="31" x="225" y="463.6563">has</text><text fill="#000000" font-family="sans-serif" font-size="20" lengthAdjust="spacing" textLength="11" x="116.8125" y="556.9749">1</text></g><!--link Candidate to PhoneNumber--><g id="link_Candidate_PhoneNumber"><path codeLine="72" d="M371.54,412.2745 C331.95,505.6545 242.65,716.2245 206.08,802.4745 " fill="none" id="Candidate-to-PhoneNumber" style="stroke:#222222;stroke-width:1.0;"/><polygon fill="#222222" points="204.06,807.2245,211.2391,800.482,206.0003,802.6164,203.866,797.3776,204.06,807.2245" style="stroke:#222222;stroke-width:1.0;"/><text fill="#000000" font-family="sans-serif" font-size="20" lengthAdjust="spacing" textLength="31" x="343" y="611.6563">has</text><text fill="#000000" font-family="sans-serif" font-size="20" lengthAdjust="spacing" textLength="11" x="194.5313" y="794.9514">1</text></g><!--link JobOpening to JobReference--><g id="link_JobOpening_JobReference"><path codeLine="74" d="M1594.3,605.9745 C1368.95,611.8245 671.16,636.2345 612,714.8945 C542.49,807.3145 571.44,953.3845 593.89,1029.8745 " fill="none" id="JobOpening-to-JobReference" style="stroke:#222222;stroke-width:1.0;"/><polygon fill="#222222" points="595.36,1034.8145,596.6186,1025.0464,593.9298,1030.0234,588.9528,1027.3347,595.36,1034.8145" style="stroke:#222222;stroke-width:1.0;"/><text fill="#000000" font-family="sans-serif" font-size="20" lengthAdjust="spacing" textLength="70" x="613" y="849.6563">includes</text><text fill="#000000" font-family="sans-serif" font-size="20" lengthAdjust="spacing" textLength="11" x="581.5193" y="1022.6164">1</text></g><!--link JobOpening to Mode--><g id="link_JobOpening_Mode"><path codeLine="75" d="M1613.28,649.9245 C1603.28,659.5345 1593.08,669.8245 1584,679.8945 C1547.99,719.8045 1511.05,769.3945 1487.18,802.8045 " fill="none" id="JobOpening-to-Mode" style="stroke:#222222;stroke-width:1.0;"/><polygon fill="#222222" points="1484.04,807.2045,1492.5194,802.1946,1486.9408,803.132,1486.0034,797.5534,1484.04,807.2045" style="stroke:#222222;stroke-width:1.0;"/><text fill="#000000" font-family="sans-serif" font-size="20" lengthAdjust="spacing" textLength="70" x="1585" y="701.6563">includes</text><text fill="#000000" font-family="sans-serif" font-size="20" lengthAdjust="spacing" textLength="11" x="1476.0547" y="794.928">1</text></g><!--link JobOpening to NumberVacancy--><g id="link_JobOpening_NumberVacancy"><path codeLine="76" d="M1664,649.8945 C1664,694.0845 1664,760.4145 1664,802.0045 " fill="none" id="JobOpening-to-NumberVacancy" style="stroke:#222222;stroke-width:1.0;"/><polygon fill="#222222" points="1664,807.2045,1668,798.2045,1664,802.2045,1660,798.2045,1664,807.2045" style="stroke:#222222;stroke-width:1.0;"/><text fill="#000000" font-family="sans-serif" font-size="20" lengthAdjust="spacing" textLength="70" x="1665" y="701.6563">includes</text><text fill="#000000" font-family="sans-serif" font-size="20" lengthAdjust="spacing" textLength="11" x="1652.0547" y="794.928">1</text></g><!--link JobOpening to Address--><g id="link_JobOpening_Address"><path codeLine="77" d="M1733.72,622.2245 C1784.05,638.5045 1850.08,667.4145 1891,714.8945 C1974.65,811.9645 1997.53,969.8945 2003.73,1042.1345 " fill="none" id="JobOpening-to-Address" style="stroke:#222222;stroke-width:1.0;"/><polygon fill="#222222" points="2004.14,1047.1845,2007.381,1037.8842,2003.726,1042.2017,1999.4085,1038.5467,2004.14,1047.1845" style="stroke:#222222;stroke-width:1.0;"/><text fill="#000000" font-family="sans-serif" font-size="20" lengthAdjust="spacing" textLength="70" x="1983" y="849.6563">includes</text><text fill="#000000" font-family="sans-serif" font-size="20" lengthAdjust="spacing" textLength="11" x="1991.875" y="1034.9045">1</text></g><!--link JobOpening to JobFunction--><g id="link_JobOpening_JobFunction"><path codeLine="78" d="M1594.09,604.4745 C1478.88,606.4745 1243.14,618.5445 1055,679.8945 C1024.55,689.8245 1016.29,694.0145 992,714.8945 C962.36,740.3645 935.78,776.1645 917.97,803.0045 " fill="none" id="JobOpening-to-JobFunction" style="stroke:#222222;stroke-width:1.0;"/><polygon fill="#222222" points="915.18,807.2345,923.4796,801.932,917.937,803.0633,916.8056,797.5208,915.18,807.2345" style="stroke:#222222;stroke-width:1.0;"/><text fill="#000000" font-family="sans-serif" font-size="20" lengthAdjust="spacing" textLength="70" x="1056" y="701.6563">includes</text><text fill="#000000" font-family="sans-serif" font-size="20" lengthAdjust="spacing" textLength="11" x="906.7031" y="794.9631">1</text></g><!--link JobOpening to Description--><g id="link_JobOpening_Description"><path codeLine="79" d="M1723.18,649.9645 C1741.87,667.9245 1760.19,690.1845 1770,714.8945 C1814.7,827.4545 1816.78,973.7245 1814.85,1042.0645 " fill="none" id="JobOpening-to-Description" style="stroke:#222222;stroke-width:1.0;"/><polygon fill="#222222" points="1814.69,1047.2445,1818.9707,1038.3746,1814.8471,1042.247,1810.9747,1038.1233,1814.69,1047.2445" style="stroke:#222222;stroke-width:1.0;"/><text fill="#000000" font-family="sans-serif" font-size="20" lengthAdjust="spacing" textLength="70" x="1812" y="849.6563">includes</text><text fill="#000000" font-family="sans-serif" font-size="20" lengthAdjust="spacing" textLength="11" x="1803.0352" y="1034.9749">1</text></g><!--link JobOpening to ContractType--><g id="link_JobOpening_ContractType"><path codeLine="80" d="M1594.39,615.3845 C1497.65,632.2045 1330.23,667.4445 1293,714.8945 C1217.36,811.2945 1245.48,969.9045 1263.95,1042.2645 " fill="none" id="JobOpening-to-ContractType" style="stroke:#222222;stroke-width:1.0;"/><polygon fill="#222222" points="1265.26,1047.3245,1266.8703,1037.6082,1264.0037,1042.4849,1259.127,1039.6183,1265.26,1047.3245" style="stroke:#222222;stroke-width:1.0;"/><text fill="#000000" font-family="sans-serif" font-size="20" lengthAdjust="spacing" textLength="70" x="1294" y="849.6563">includes</text><text fill="#000000" font-family="sans-serif" font-size="20" lengthAdjust="spacing" textLength="11" x="1251.6406" y="1035.0686">1</text></g><!--link JobOpening to JobOpeningStatus--><g id="link_JobOpening_JobOpeningStatus"><path codeLine="81" d="M1594.37,605.7945 C1470.89,609.6845 1220.43,624.3945 1156,679.8945 C1120.86,710.1545 1110.48,764.8345 1107.65,801.8645 " fill="none" id="JobOpening-to-JobOpeningStatus" style="stroke:#222222;stroke-width:1.0;"/><polygon fill="#222222" points="1107.28,807.1945,1111.888,798.4902,1107.623,802.2063,1103.9069,797.9413,1107.28,807.1945" style="stroke:#222222;stroke-width:1.0;"/><text fill="#000000" font-family="sans-serif" font-size="20" lengthAdjust="spacing" textLength="108" x="1157" y="701.6563">classified by</text><text fill="#000000" font-family="sans-serif" font-size="20" lengthAdjust="spacing" textLength="11" x="1095.3828" y="794.9163">1</text></g><!--link JobOpening to RequirementSpecification--><g id="link_JobOpening_RequirementSpecification"><path codeLine="82" d="M1733.57,607.5645 C2027.29,621.1645 3153.79,675.7045 3218,714.8945 C3336.06,786.9445 3399.85,947.6845 3425.84,1029.8745 " fill="none" id="JobOpening-to-RequirementSpecification" style="stroke:#222222;stroke-width:1.0;"/><polygon fill="#222222" points="3427.35,1034.6945,3428.4668,1024.9092,3425.8505,1029.9247,3420.835,1027.3084,3427.35,1034.6945" style="stroke:#222222;stroke-width:1.0;"/><text fill="#000000" font-family="sans-serif" font-size="20" lengthAdjust="spacing" textLength="70" x="3378" y="849.6563">includes</text><text fill="#000000" font-family="sans-serif" font-size="20" lengthAdjust="spacing" textLength="11" x="3413.9111" y="1022.4803">1</text></g><!--link JobOpening to InterviewModel--><g id="link_JobOpening_InterviewModel"><path codeLine="83" d="M1733.6,590.8845 C1887.28,563.9645 2267.5,501.2645 2589,479.8945 C3057.98,448.7245 3617.97,544.1745 3831.44,585.4045 " fill="none" id="JobOpening-to-InterviewModel" style="stroke:#222222;stroke-width:1.0;"/><polygon fill="#222222" points="3836.42,586.3645,3828.3507,580.7177,3831.5122,585.4087,3826.8213,588.5702,3836.42,586.3645" style="stroke:#222222;stroke-width:1.0;"/><text fill="#000000" font-family="sans-serif" font-size="20" lengthAdjust="spacing" textLength="70" x="2697" y="463.6563">includes</text><text fill="#000000" font-family="sans-serif" font-size="20" lengthAdjust="spacing" textLength="11" x="3817.4863" y="606.7089">1</text></g><!--link JobOpening to Rank--><g id="link_JobOpening_Rank"><path codeLine="85" d="M1594.45,607.3345 C1387.13,616.8045 784.16,649.7545 727,714.8945 C644.07,809.4045 730.93,970.4145 777.96,1042.9745 " fill="none" id="JobOpening-to-Rank" style="stroke:#222222;stroke-width:1.0;"/><polygon fill="#222222" points="780.72,1047.2045,779.1561,1037.4806,777.9895,1043.0159,772.4543,1041.8494,780.72,1047.2045" style="stroke:#222222;stroke-width:1.0;"/><text fill="#000000" font-family="sans-serif" font-size="20" lengthAdjust="spacing" textLength="70" x="728" y="849.6563">includes</text><text fill="#000000" font-family="sans-serif" font-size="20" lengthAdjust="spacing" textLength="8" x="768.0313" y="1034.928">*</text></g><!--link JobOpening to Application--><g id="link_JobOpening_Application"><path codeLine="86" d="M1733.79,617.4445 C1808.01,631.6145 1928.7,655.5045 2032,679.8945 C2225.11,725.4945 2450.61,788.4645 2562.16,820.2745 " fill="none" id="JobOpening-to-Application" style="stroke:#222222;stroke-width:1.0;"/><polygon fill="#222222" points="2567.06,821.6745,2559.5002,815.3619,2562.2513,820.3047,2557.3085,823.0558,2567.06,821.6745" style="stroke:#222222;stroke-width:1.0;"/><polygon fill="#000000" points="2130.2295,691.57,2143.1681,699.5793,2145.4048,690.4446,2130.2295,691.57" style="stroke:#000000;stroke-width:1.0;"/><text fill="#000000" font-family="sans-serif" font-size="20" lengthAdjust="spacing" textLength="118" x="2151" y="701.6563">associated to</text><text fill="#000000" font-family="sans-serif" font-size="20" lengthAdjust="spacing" textLength="11" x="2548.3556" y="813.8951">1</text></g><!--link Application to Interview--><g id="link_Application_Interview"><path codeLine="89" d="M2696.94,848.8945 C2809.22,861.6445 3031.99,894.1445 3077,954.8945 C3129.12,1025.2445 3105.89,1069.2445 3077,1151.8945 C3067.29,1179.6745 3047.35,1205.6945 3028.9,1225.4945 " fill="none" id="Application-to-Interview" style="stroke:#222222;stroke-width:1.0;"/><polygon fill="#222222" points="3025.23,1229.3645,3034.3185,1225.57,3028.664,1225.7303,3028.5037,1220.0757,3025.23,1229.3645" style="stroke:#222222;stroke-width:1.0;"/><text fill="#000000" font-family="sans-serif" font-size="20" lengthAdjust="spacing" textLength="70" x="3108" y="1089.6563">includes</text><text fill="#000000" font-family="sans-serif" font-size="20" lengthAdjust="spacing" textLength="34" x="2994.5352" y="1217.1155">0..1</text></g><!--link Application to RequirementAnswer--><g id="link_Application_RequirementAnswer"><path codeLine="90" d="M2567.49,844.1945 C2499.93,849.1045 2393.73,865.7045 2321,919.8945 C2279.62,950.7145 2252.95,1005.3545 2238.71,1042.2145 " fill="none" id="Application-to-RequirementAnswer" style="stroke:#222222;stroke-width:1.0;"/><polygon fill="#222222" points="2236.86,1047.0645,2243.7912,1040.0675,2238.6328,1042.3894,2236.311,1037.231,2236.86,1047.0645" style="stroke:#222222;stroke-width:1.0;"/><text fill="#000000" font-family="sans-serif" font-size="20" lengthAdjust="spacing" textLength="70" x="2322" y="941.6563">includes</text><text fill="#000000" font-family="sans-serif" font-size="20" lengthAdjust="spacing" textLength="11" x="2226.7478" y="1035.0571">1</text></g><!--link Application to RequirementResult--><g id="link_Application_RequirementResult"><path codeLine="91" d="M2567.12,873.4845 C2532.21,892.8845 2490.59,920.6645 2462,954.8945 C2393,1037.5145 2354.73,1161.6245 2338.85,1223.8845 " fill="none" id="Application-to-RequirementResult" style="stroke:#222222;stroke-width:1.0;"/><polygon fill="#222222" points="2337.57,1228.9845,2343.6334,1221.2234,2338.7827,1224.1338,2335.8723,1219.2831,2337.57,1228.9845" style="stroke:#222222;stroke-width:1.0;"/><text fill="#000000" font-family="sans-serif" font-size="20" lengthAdjust="spacing" textLength="70" x="2463" y="1089.6563">includes</text><text fill="#000000" font-family="sans-serif" font-size="20" lengthAdjust="spacing" textLength="11" x="2326.9128" y="1216.9638">1</text></g><!--link Application to File--><g id="link_Application_File"><path codeLine="92" d="M2601.66,888.1345 C2590.07,907.8645 2577.98,931.7045 2571,954.8945 C2542.83,1048.5445 2541.1,1164.9445 2542.43,1224.0645 " fill="none" id="Application-to-File" style="stroke:#222222;stroke-width:1.0;"/><polygon fill="#222222" points="2542.56,1229.2545,2546.3533,1220.1655,2542.4457,1224.2558,2538.3554,1220.3483,2542.56,1229.2545" style="stroke:#222222;stroke-width:1.0;"/><polygon fill="#000000" points="2580.3891,1073.5942,2573.2453,1087.03,2582.507,1088.663,2580.3891,1073.5942" style="stroke:#000000;stroke-width:1.0;"/><text fill="#000000" font-family="sans-serif" font-size="20" lengthAdjust="spacing" textLength="85" x="2592" y="1089.6563">describes</text><text fill="#000000" font-family="sans-serif" font-size="20" lengthAdjust="spacing" textLength="31" x="2508.6484" y="1216.9866">1..*</text></g><!--link Application to ApplicationDate--><g id="link_Application_ApplicationDate"><path codeLine="93" d="M2655.02,888.0345 C2664.44,908.1345 2674.79,932.2945 2682,954.8945 C2712.1,1049.3345 2730.74,1164.9145 2739,1223.8445 " fill="none" id="Application-to-ApplicationDate" style="stroke:#222222;stroke-width:1.0;"/><polygon fill="#222222" points="2739.72,1229.0245,2742.4491,1219.5613,2739.0349,1224.0717,2734.5245,1220.6575,2739.72,1229.0245" style="stroke:#222222;stroke-width:1.0;"/><text fill="#000000" font-family="sans-serif" font-size="20" lengthAdjust="spacing" textLength="116" x="2728" y="1089.6563">registered by</text><text fill="#000000" font-family="sans-serif" font-size="20" lengthAdjust="spacing" textLength="11" x="2727.1002" y="1217.0105">1</text></g><!--link Application to ApplicationStatus--><g id="link_Application_ApplicationStatus"><path codeLine="94" d="M2696.83,869.5745 C2741.27,889.7645 2800.37,919.8145 2847,954.8945 C2881.33,980.7145 2914.62,1016.6745 2937.39,1043.4845 " fill="none" id="Application-to-ApplicationStatus" style="stroke:#222222;stroke-width:1.0;"/><polygon fill="#222222" points="2940.67,1047.3745,2937.9259,1037.9157,2937.4467,1043.5522,2931.8102,1043.073,2940.67,1047.3745" style="stroke:#222222;stroke-width:1.0;"/><polygon fill="#000000" points="2832.5168,928.7857,2841.4901,941.0752,2847,933.4538,2832.5168,928.7857" style="stroke:#000000;stroke-width:1.0;"/><text fill="#000000" font-family="sans-serif" font-size="20" lengthAdjust="spacing" textLength="101" x="2852" y="941.6563">categorizes</text><text fill="#000000" font-family="sans-serif" font-size="20" lengthAdjust="spacing" textLength="11" x="2924.1992" y="1035.1272">1</text></g><!--link Interview to InterviewAnswer--><g id="link_Interview_InterviewAnswer"><path codeLine="97" d="M2962.8,1297.6645 C2934.37,1338.0345 2895.93,1408.0145 2919,1466.8945 C2927.52,1488.6445 2943.7,1508.3745 2959.82,1524.0745 " fill="none" id="Interview-to-InterviewAnswer" style="stroke:#222222;stroke-width:1.0;"/><polygon fill="#222222" points="2963.47,1527.5745,2959.7311,1518.463,2959.8568,1524.1184,2954.2013,1524.2441,2963.47,1527.5745" style="stroke:#222222;stroke-width:1.0;"/><text fill="#000000" font-family="sans-serif" font-size="20" lengthAdjust="spacing" textLength="106" x="2920" y="1441.1563">described in</text><text fill="#000000" font-family="sans-serif" font-size="20" lengthAdjust="spacing" textLength="11" x="2944.515" y="1515.5687">1</text></g><!--link Interview to InterviewResult--><g id="link_Interview_InterviewResult"><path codeLine="98" d="M2935.56,1297.5445 C2845.03,1353.6945 2662.27,1467.0645 2568.84,1525.0145 " fill="none" id="Interview-to-InterviewResult" style="stroke:#222222;stroke-width:1.0;"/><polygon fill="#222222" points="2564.46,1527.7345,2574.2193,1526.4097,2568.7144,1525.1077,2570.0164,1519.6027,2564.46,1527.7345" style="stroke:#222222;stroke-width:1.0;"/><polygon fill="#000000" points="2785.7984,1428.7558,2771.0214,1432.3882,2775.9786,1440.3802,2785.7984,1428.7558" style="stroke:#000000;stroke-width:1.0;"/><text fill="#000000" font-family="sans-serif" font-size="20" lengthAdjust="spacing" textLength="80" x="2792" y="1441.1563">classifies</text><text fill="#000000" font-family="sans-serif" font-size="20" lengthAdjust="spacing" textLength="11" x="2561.7031" y="1515.4631">1</text></g><!--link InterviewResult to InterviewGrade--><g id="link_InterviewResult_InterviewGrade"><path codeLine="99" d="M2595.26,1561.8945 C2630.44,1561.8945 2671.36,1561.8945 2707.11,1561.8945 " fill="none" id="InterviewResult-to-InterviewGrade" style="stroke:#222222;stroke-width:1.0;"/><polygon fill="#222222" points="2712.35,1561.8945,2703.35,1557.8945,2707.35,1561.8945,2703.35,1565.8945,2712.35,1561.8945" style="stroke:#222222;stroke-width:1.0;"/><polygon fill="#000000" points="2612.25,1545.4727,2626.7221,1550.1749,2626.7221,1540.7704,2612.25,1545.4727" style="stroke:#000000;stroke-width:1.0;"/><text fill="#000000" font-family="sans-serif" font-size="20" lengthAdjust="spacing" textLength="61" x="2633.25" y="1553.6563">grades</text><text fill="#000000" font-family="sans-serif" font-size="20" lengthAdjust="spacing" textLength="11" x="2693.6027" y="1556.5753">1</text></g><!--link InterviewResult to Justification--><g id="link_InterviewResult_Justification"><path codeLine="100" d="M2511,1596.0945 C2511,1620.0545 2511,1652.4645 2511,1677.5245 " fill="none" id="InterviewResult-to-Justification" style="stroke:#222222;stroke-width:1.0;"/><polygon fill="#222222" points="2511,1682.7645,2515,1673.7645,2511,1677.7645,2507,1673.7645,2511,1682.7645" style="stroke:#222222;stroke-width:1.0;"/><polygon fill="#000000" points="2519,1631.4727,2514.2977,1645.9448,2523.7023,1645.9448,2519,1631.4727" style="stroke:#000000;stroke-width:1.0;"/><text fill="#000000" font-family="sans-serif" font-size="20" lengthAdjust="spacing" textLength="65" x="2532" y="1647.6563">justifies</text><text fill="#000000" font-family="sans-serif" font-size="20" lengthAdjust="spacing" textLength="11" x="2499.0547" y="1670.4983">1</text></g><!--link Interview to Schedule--><g id="link_Interview_Schedule"><path codeLine="101" d="M3015.47,1297.4845 C3037.86,1325.4745 3069.93,1365.5545 3093.21,1394.6545 " fill="none" id="Interview-to-Schedule" style="stroke:#222222;stroke-width:1.0;"/><polygon fill="#222222" points="3096.58,1398.8745,3094.0685,1389.3513,3093.4513,1394.9744,3087.8282,1394.3572,3096.58,1398.8745" style="stroke:#222222;stroke-width:1.0;"/><text fill="#000000" font-family="sans-serif" font-size="20" lengthAdjust="spacing" textLength="78" x="3072" y="1363.6563">follows a</text><text fill="#000000" font-family="sans-serif" font-size="20" lengthAdjust="spacing" textLength="11" x="3080.0938" y="1386.6272">1</text></g><!--link InterviewModel to InterviewModelName--><g id="link_InterviewModel_InterviewModelName"><path codeLine="103" d="M3924.82,649.8945 C3929.06,689.9245 3935.23,748.1245 3939.62,789.6545 " fill="none" id="InterviewModel-to-InterviewModelName" style="stroke:#222222;stroke-width:1.0;"/><polygon fill="#222222" points="3940.15,794.6245,3943.1789,785.253,3939.6229,789.6524,3935.2235,786.0964,3940.15,794.6245" style="stroke:#222222;stroke-width:1.0;"/><polygon fill="#000000" points="3937.1575,685.5171,3934.0054,700.404,3943.3577,699.4136,3937.1575,685.5171" style="stroke:#000000;stroke-width:1.0;"/><text fill="#000000" font-family="sans-serif" font-size="20" lengthAdjust="spacing" textLength="77" x="3951" y="701.6563">identifies</text><text fill="#000000" font-family="sans-serif" font-size="20" lengthAdjust="spacing" textLength="11" x="3927.7592" y="782.4008">1</text></g><!--link InterviewModel to InterviewModelDescription--><g id="link_InterviewModel_InterviewModelDescription"><path codeLine="104" d="M3994.11,649.9645 C4008.59,659.4845 4023.47,669.7345 4037,679.8945 C4089.66,719.4245 4146.31,769.8545 4182.85,803.5445 " fill="none" id="InterviewModel-to-InterviewModelDescription" style="stroke:#222222;stroke-width:1.0;"/><polygon fill="#222222" points="4186.76,807.1545,4182.8555,798.1127,4183.0843,803.7649,4177.4321,803.9937,4186.76,807.1545" style="stroke:#222222;stroke-width:1.0;"/><polygon fill="#000000" points="4069.7948,688.4234,4078.0522,701.2049,4083.988,693.9103,4069.7948,688.4234" style="stroke:#000000;stroke-width:1.0;"/><text fill="#000000" font-family="sans-serif" font-size="20" lengthAdjust="spacing" textLength="85" x="4089" y="701.6563">describes</text><text fill="#000000" font-family="sans-serif" font-size="20" lengthAdjust="spacing" textLength="11" x="4168.7578" y="794.8694">1</text></g><!--link InterviewModel to FullClassName--><g id="link_InterviewModel_FullClassName"><path codeLine="105" d="M3864.2,649.9545 C3846.22,668.0645 3828.5,690.4245 3819,714.8945 C3749.27,894.5545 3809.19,1132.4045 3837.33,1224.0945 " fill="none" id="InterviewModel-to-FullClassName" style="stroke:#222222;stroke-width:1.0;"/><polygon fill="#222222" points="3838.89,1229.1345,3840.0417,1219.3532,3837.4076,1224.3593,3832.4015,1221.7252,3838.89,1229.1345" style="stroke:#222222;stroke-width:1.0;"/><polygon fill="#000000" points="3795.374,925.4814,3790.0003,939.7179,3799.3946,940.1575,3795.374,925.4814" style="stroke:#000000;stroke-width:1.0;"/><text fill="#000000" font-family="sans-serif" font-size="20" lengthAdjust="spacing" textLength="90" x="3808" y="941.6563">configures</text><text fill="#000000" font-family="sans-serif" font-size="20" lengthAdjust="spacing" textLength="11" x="3825.139" y="1217.1387">1</text></g><!--link RequirementSpecification to RequirementName--><g id="link_RequirementSpecification_RequirementName"><path codeLine="107" d="M3378.55,1128.2945 C3369.81,1137.7245 3362.08,1148.3445 3357,1159.8945 C3349.98,1175.8345 3348.18,1194.5745 3348.64,1211.6345 " fill="none" id="RequirementSpecification-to-RequirementName" style="stroke:#222222;stroke-width:1.0;"/><polygon fill="#222222" points="3348.85,1216.8645,3352.4871,1207.7119,3348.6502,1211.8685,3344.4935,1208.0316,3348.85,1216.8645" style="stroke:#222222;stroke-width:1.0;"/><polygon fill="#000000" points="3367.7024,1165.9429,3358.3879,1177.9759,3367.2396,1181.1528,3367.7024,1165.9429" style="stroke:#000000;stroke-width:1.0;"/><text fill="#000000" font-family="sans-serif" font-size="20" lengthAdjust="spacing" textLength="77" x="3378" y="1181.6563">identifies</text><text fill="#000000" font-family="sans-serif" font-size="20" lengthAdjust="spacing" textLength="11" x="3336.1502" y="1204.6731">1</text></g><!--link RequirementSpecification to RequirementDescription--><g id="link_RequirementSpecification_RequirementDescription"><path codeLine="108" d="M3458.83,1127.9445 C3468.37,1147.5145 3481.28,1169.7645 3497,1186.8945 C3510.76,1201.8845 3528.09,1215.3045 3545.06,1226.5245 " fill="none" id="RequirementSpecification-to-RequirementDescription" style="stroke:#222222;stroke-width:1.0;"/><polygon fill="#222222" points="3549.36,1229.3245,3544.0049,1221.0588,3545.1714,1226.5941,3539.6361,1227.7606,3549.36,1229.3245" style="stroke:#222222;stroke-width:1.0;"/><polygon fill="#000000" points="3499.7329,1167.4512,3505.7218,1181.44,3512.8005,1175.2482,3499.7329,1167.4512" style="stroke:#000000;stroke-width:1.0;"/><text fill="#000000" font-family="sans-serif" font-size="20" lengthAdjust="spacing" textLength="85" x="3518" y="1181.6563">describes</text><text fill="#000000" font-family="sans-serif" font-size="20" lengthAdjust="spacing" textLength="11" x="3526.8203" y="1217.0686">1</text></g><!--link RequirementSpecification to FullClassName--><g id="link_RequirementSpecification_FullClassName"><path codeLine="109" d="M3547.38,1128.0645 C3567.88,1137.8545 3588.89,1148.6645 3608,1159.8945 C3625.55,1170.2045 3626.72,1177.9345 3645,1186.8945 C3688.2,1208.0645 3703.84,1200.3045 3749,1216.8945 C3757.61,1220.0545 3766.51,1223.6145 3775.3,1227.3245 " fill="none" id="RequirementSpecification-to-FullClassName" style="stroke:#222222;stroke-width:1.0;"/><polygon fill="#222222" points="3780.17,1229.3945,3773.4544,1222.1903,3775.5691,1227.437,3770.3224,1229.5517,3780.17,1229.3945" style="stroke:#222222;stroke-width:1.0;"/><polygon fill="#000000" points="3645.6654,1170.2784,3657.0563,1180.368,3660.8114,1171.7457,3645.6654,1170.2784" style="stroke:#000000;stroke-width:1.0;"/><text fill="#000000" font-family="sans-serif" font-size="20" lengthAdjust="spacing" textLength="90" x="3666" y="1181.6563">configures</text><text fill="#000000" font-family="sans-serif" font-size="20" lengthAdjust="spacing" textLength="11" x="3755.7518" y="1216.8595">1</text></g><!--SRC=[fLThRzCy5FxUNt7KVU0YXZQ414JHf38e0WbUj2A-kyvfPfROmNOs3SH_Vu-JDhNJN9gjNzBsFC-v-LmSSoDamJJBCyLlC844DwpCx599kn9_45wTpMPcXm6UCMCMrcgnBYr-vafMeBFPjKWGC2_iFR2TsBI9xnc_IRKgPNAfCgLXZI953xJGMjtLefDNrMSs0_fKP5WaYKPwnl7JdozEbiktxr-VFODRbfK8QlqBkRsuWB__Y5BZbsMMNRfltrYEuwmdUqkVfKLzA_3keyCnI_uGVVNYv7NoxdppvXaO9-QuPHOK5aiHvd7CqbHZogmJDLhWgqemcyFVAXYKLb2M6cab9Ftr_yIBOwsKyyefxt2g8ep75CTq9AHp8r3NZlRf-e26Qr5OeUHeclxrHNk5lqkXCIUJi2gGartEdCfMt1ukW1sH0O_wkF0zHTDYxml-Yrh3VmLA8TDMk2JP2Ze33DmYxBAK_2XV0jRMmieoMve9r4jgSisu_N5Vu0IQAve9y6zblaRzat4c-VrHl8OwvNGWICaLRb2Zv0-gagPEcBmPv0yMnMLfhCfHmrScIQnRbR4JRwMzzJzWWCb49FIzhNdtlw-pKHfMm0vwr8pSyxvVAudrmKvWVSoPo1xHPekYoBgdYYVnWkwP8nxuGvsbOmFmc9ERRRyE1ZbzKtyXpTrOilkuLsXefK_YVg7gz6Vp0wn-qcniJlGF-0U4wx4V4F1Z4htYrvYK6KwPKKjn19vQeJqcJaylO7x-ykNpkJVv8w0U4OOYC1q4npYh67wRHA1k2O_C3DdOpv88yaey26_TQYAwAMKKZQ4u6aKUFFJ7bEjS4BOJwYtI29ZZeO6DqW6wWi_hEHD1CzeJMDyVQ9s7mo-2QsQwb7cZhiRCF5SQLBXpoBRaMPbGiWBm5bijq15Ck3Nxm3lqxcuyejI_OOofz7Vl63QuI0pxS71TYUg6QCwfqq3lhR77s9PsK8uD-4bNUgwGwr9OP-MxLdmeeOxot57S5M4aws6LKwoA2ogn1Ao2c5uyJazdFgHfs7EldtmR8RWsSZWwUmc7ZEsu76PKNLXDhOXU4brjhAa3usxbxHMx7r3r8NU5SBXSgJI8d2fDxvZEbClKR9-InbfhTk_zIoYYGK8TkLU2panxRxP9rMAB87MFJlokrFqT6i6l-cT8QS3D3ebegcMPkZF0ge1RDNmGGlCww0symCGGpsloy5HxsC4xDQLDoOr8IzsSJc-VTbHTXyzJwBskZoeP2k9_]--></g></svg>