<?xml version="1.0" encoding="UTF-8" standalone="no"?><svg xmlns="http://www.w3.org/2000/svg" xmlns:xlink="http://www.w3.org/1999/xlink" contentStyleType="text/css" height="2198px" preserveAspectRatio="none" style="width:2607px;height:2198px;background:#FFFFFF;" version="1.1" viewBox="0 0 2607 2198" width="2607px" zoomAndPan="magnify"><defs/><g><text fill="#000000" font-family="sans-serif" font-size="14" font-weight="bold" lengthAdjust="spacing" textLength="196" x="1207" y="29.5332">US1004 - Sequence Diagram</text><rect fill="#FFFFFF" height="1918.125" style="stroke:#181818;stroke-width:1.0;" width="10" x="102.5" y="149.9219"/><rect fill="#FFFFFF" height="283.25" style="stroke:#181818;stroke-width:1.0;" width="10" x="746.5" y="181.0781"/><rect fill="#FFFFFF" height="343.25" style="stroke:#181818;stroke-width:1.0;" width="10" x="746.5" y="503.4844"/><rect fill="#FFFFFF" height="234.0938" style="stroke:#181818;stroke-width:1.0;" width="10" x="746.5" y="930.2031"/><rect fill="#FFFFFF" height="873.5938" style="stroke:#181818;stroke-width:1.0;" width="10" x="746.5" y="1203.4531"/><rect fill="#FFFFFF" height="129.625" style="stroke:#181818;stroke-width:1.0;" width="10" x="1519.5" y="295.5469"/><rect fill="#FFFFFF" height="264.9375" style="stroke:#181818;stroke-width:1.0;" width="10" x="1519.5" y="542.6406"/><rect fill="#FFFFFF" height="155.7813" style="stroke:#181818;stroke-width:1.0;" width="10" x="1519.5" y="969.3594"/><rect fill="#FFFFFF" height="779.2813" style="stroke:#181818;stroke-width:1.0;" width="10" x="1519.5" y="1249.6094"/><rect fill="#FFFFFF" height="297.4063" style="stroke:#181818;stroke-width:1.0;" width="10" x="1524.5" y="1609.1719"/><rect fill="#FFFFFF" height="30" style="stroke:#181818;stroke-width:1.0;" width="10" x="2120.5" y="581.7969"/><rect fill="#FFFFFF" height="30" style="stroke:#181818;stroke-width:1.0;" width="10" x="2120.5" y="1409.3906"/><rect fill="#FFFFFF" height="39.1563" style="stroke:#181818;stroke-width:1.0;" width="10" x="2335" y="650.9531"/><rect fill="#FFFFFF" height="39.1563" style="stroke:#181818;stroke-width:1.0;" width="10" x="2335" y="1478.5469"/><rect fill="#FFFFFF" height="30" style="stroke:#181818;stroke-width:1.0;" width="10" x="2335" y="1959.7344"/><rect fill="#FFFFFF" height="39.1563" style="stroke:#181818;stroke-width:1.0;" width="10" x="2513.5" y="729.2656"/><rect fill="#FFFFFF" height="39.1563" style="stroke:#181818;stroke-width:1.0;" width="10" x="2513.5" y="1815.2656"/><rect fill="none" height="349.7188" style="stroke:#000000;stroke-width:1.5;" width="2204.5" x="10" y="861.7344"/><rect fill="none" height="102.625" style="stroke:#000000;stroke-width:1.5;" width="812" x="1392.5" y="984.3594"/><rect fill="none" height="388.875" style="stroke:#000000;stroke-width:1.5;" width="1218.5" x="1382.5" y="1532.7031"/><rect fill="none" height="233.25" style="stroke:#000000;stroke-width:1.5;" width="1198.5" x="1392.5" y="1629.1719"/><line style="stroke:#181818;stroke-width:0.5;stroke-dasharray:5.0,5.0;" x1="107" x2="107" y1="139.9219" y2="2086.0469"/><line style="stroke:#181818;stroke-width:0.5;stroke-dasharray:5.0,5.0;" x1="751.5" x2="751.5" y1="139.9219" y2="2086.0469"/><line style="stroke:#181818;stroke-width:0.5;stroke-dasharray:5.0,5.0;" x1="1524.5" x2="1524.5" y1="236.7344" y2="2086.0469"/><line style="stroke:#181818;stroke-width:0.5;stroke-dasharray:5.0,5.0;" x1="2125" x2="2125" y1="139.9219" y2="2086.0469"/><line style="stroke:#181818;stroke-width:0.5;stroke-dasharray:5.0,5.0;" x1="2340" x2="2340" y1="139.9219" y2="2086.0469"/><line style="stroke:#181818;stroke-width:0.5;stroke-dasharray:5.0,5.0;" x1="2518" x2="2518" y1="139.9219" y2="2086.0469"/><text fill="#000000" font-family="sans-serif" font-size="20" lengthAdjust="spacing" textLength="169" x="20" y="135.5273">Customer Manager</text><ellipse cx="107.5" cy="63.2656" fill="#E2E2F0" rx="8" ry="8" style="stroke:#181818;stroke-width:0.5;"/><path d="M107.5,71.2656 L107.5,98.2656 M94.5,79.2656 L120.5,79.2656 M107.5,98.2656 L94.5,113.2656 M107.5,98.2656 L120.5,113.2656 " fill="none" style="stroke:#181818;stroke-width:0.5;"/><text fill="#000000" font-family="sans-serif" font-size="20" lengthAdjust="spacing" textLength="169" x="20" y="2105.8086">Customer Manager</text><ellipse cx="107.5" cy="2118.7031" fill="#E2E2F0" rx="8" ry="8" style="stroke:#181818;stroke-width:0.5;"/><path d="M107.5,2126.7031 L107.5,2153.7031 M94.5,2134.7031 L120.5,2134.7031 M107.5,2153.7031 L94.5,2168.7031 M107.5,2153.7031 L120.5,2168.7031 " fill="none" style="stroke:#181818;stroke-width:0.5;"/><rect fill="#E2E2F0" height="64.3125" rx="2.5" ry="2.5" style="stroke:#181818;stroke-width:0.5;" width="178" x="662.5" y="74.6094"/><text fill="#000000" font-family="sans-serif" font-size="20" font-style="italic" lengthAdjust="spacing" textLength="131" x="686" y="102.3711">«presentation»</text><text fill="#000000" font-family="sans-serif" font-size="20" lengthAdjust="spacing" textLength="164" x="669.5" y="127.5273">:EditJobOpeningUI</text><rect fill="#E2E2F0" height="64.3125" rx="2.5" ry="2.5" style="stroke:#181818;stroke-width:0.5;" width="178" x="662.5" y="2085.0469"/><text fill="#000000" font-family="sans-serif" font-size="20" font-style="italic" lengthAdjust="spacing" textLength="131" x="686" y="2112.8086">«presentation»</text><text fill="#000000" font-family="sans-serif" font-size="20" lengthAdjust="spacing" textLength="164" x="669.5" y="2137.9648">:EditJobOpeningUI</text><rect fill="#E2E2F0" height="64.3125" rx="2.5" ry="2.5" style="stroke:#181818;stroke-width:0.5;" width="244" x="1402.5" y="2085.0469"/><text fill="#000000" font-family="sans-serif" font-size="20" font-style="italic" lengthAdjust="spacing" textLength="118" x="1465.5" y="2112.8086">«application»</text><text fill="#000000" font-family="sans-serif" font-size="20" lengthAdjust="spacing" textLength="230" x="1409.5" y="2137.9648">:EditJobOpeningController</text><rect fill="#E2E2F0" height="64.3125" rx="2.5" ry="2.5" style="stroke:#181818;stroke-width:0.5;" width="197" x="2027" y="74.6094"/><text fill="#000000" font-family="sans-serif" font-size="20" font-style="italic" lengthAdjust="spacing" textLength="86" x="2082.5" y="102.3711">«service»</text><text fill="#000000" font-family="sans-serif" font-size="20" lengthAdjust="spacing" textLength="183" x="2034" y="127.5273">:AuthorizationService</text><rect fill="#E2E2F0" height="64.3125" rx="2.5" ry="2.5" style="stroke:#181818;stroke-width:0.5;" width="197" x="2027" y="2085.0469"/><text fill="#000000" font-family="sans-serif" font-size="20" font-style="italic" lengthAdjust="spacing" textLength="86" x="2082.5" y="2112.8086">«service»</text><text fill="#000000" font-family="sans-serif" font-size="20" lengthAdjust="spacing" textLength="183" x="2034" y="2137.9648">:AuthorizationService</text><text fill="#000000" font-family="sans-serif" font-size="20" font-style="italic" lengthAdjust="spacing" textLength="110" x="2282" y="110.3711">«repository»</text><text fill="#000000" font-family="sans-serif" font-size="20" lengthAdjust="spacing" textLength="206" x="2234" y="135.5273">:JobOpeningRepository</text><path d="M2322,53.6094 C2322,43.6094 2340,43.6094 2340,43.6094 C2340,43.6094 2358,43.6094 2358,53.6094 L2358,79.6094 C2358,89.6094 2340,89.6094 2340,89.6094 C2340,89.6094 2322,89.6094 2322,79.6094 L2322,53.6094 " fill="#E2E2F0" style="stroke:#181818;stroke-width:1.5;"/><path d="M2322,53.6094 C2322,63.6094 2340,63.6094 2340,63.6094 C2340,63.6094 2358,63.6094 2358,53.6094 " fill="none" style="stroke:#181818;stroke-width:1.5;"/><text fill="#000000" font-family="sans-serif" font-size="20" font-style="italic" lengthAdjust="spacing" textLength="110" x="2282" y="2105.8086">«repository»</text><text fill="#000000" font-family="sans-serif" font-size="20" lengthAdjust="spacing" textLength="206" x="2234" y="2130.9648">:JobOpeningRepository</text><path d="M2322,2145.3594 C2322,2135.3594 2340,2135.3594 2340,2135.3594 C2340,2135.3594 2358,2135.3594 2358,2145.3594 L2358,2171.3594 C2358,2181.3594 2340,2181.3594 2340,2181.3594 C2340,2181.3594 2322,2181.3594 2322,2171.3594 L2322,2145.3594 " fill="#E2E2F0" style="stroke:#181818;stroke-width:1.5;"/><path d="M2322,2145.3594 C2322,2155.3594 2340,2155.3594 2340,2155.3594 C2340,2155.3594 2358,2155.3594 2358,2145.3594 " fill="none" style="stroke:#181818;stroke-width:1.5;"/><rect fill="#E2E2F0" height="64.3125" rx="2.5" ry="2.5" style="stroke:#181818;stroke-width:0.5;" width="125" x="2456" y="74.6094"/><text fill="#000000" font-family="sans-serif" font-size="20" font-style="italic" lengthAdjust="spacing" textLength="88" x="2474.5" y="102.3711">«domain»</text><text fill="#000000" font-family="sans-serif" font-size="20" lengthAdjust="spacing" textLength="111" x="2463" y="127.5273">:JobOpening</text><rect fill="#E2E2F0" height="64.3125" rx="2.5" ry="2.5" style="stroke:#181818;stroke-width:0.5;" width="125" x="2456" y="2085.0469"/><text fill="#000000" font-family="sans-serif" font-size="20" font-style="italic" lengthAdjust="spacing" textLength="88" x="2474.5" y="2112.8086">«domain»</text><text fill="#000000" font-family="sans-serif" font-size="20" lengthAdjust="spacing" textLength="111" x="2463" y="2137.9648">:JobOpening</text><rect fill="#FFFFFF" height="1918.125" style="stroke:#181818;stroke-width:1.0;" width="10" x="102.5" y="149.9219"/><rect fill="#FFFFFF" height="283.25" style="stroke:#181818;stroke-width:1.0;" width="10" x="746.5" y="181.0781"/><rect fill="#FFFFFF" height="343.25" style="stroke:#181818;stroke-width:1.0;" width="10" x="746.5" y="503.4844"/><rect fill="#FFFFFF" height="234.0938" style="stroke:#181818;stroke-width:1.0;" width="10" x="746.5" y="930.2031"/><rect fill="#FFFFFF" height="873.5938" style="stroke:#181818;stroke-width:1.0;" width="10" x="746.5" y="1203.4531"/><rect fill="#FFFFFF" height="129.625" style="stroke:#181818;stroke-width:1.0;" width="10" x="1519.5" y="295.5469"/><rect fill="#FFFFFF" height="264.9375" style="stroke:#181818;stroke-width:1.0;" width="10" x="1519.5" y="542.6406"/><rect fill="#FFFFFF" height="155.7813" style="stroke:#181818;stroke-width:1.0;" width="10" x="1519.5" y="969.3594"/><rect fill="#FFFFFF" height="779.2813" style="stroke:#181818;stroke-width:1.0;" width="10" x="1519.5" y="1249.6094"/><rect fill="#FFFFFF" height="297.4063" style="stroke:#181818;stroke-width:1.0;" width="10" x="1524.5" y="1609.1719"/><rect fill="#FFFFFF" height="30" style="stroke:#181818;stroke-width:1.0;" width="10" x="2120.5" y="581.7969"/><rect fill="#FFFFFF" height="30" style="stroke:#181818;stroke-width:1.0;" width="10" x="2120.5" y="1409.3906"/><rect fill="#FFFFFF" height="39.1563" style="stroke:#181818;stroke-width:1.0;" width="10" x="2335" y="650.9531"/><rect fill="#FFFFFF" height="39.1563" style="stroke:#181818;stroke-width:1.0;" width="10" x="2335" y="1478.5469"/><rect fill="#FFFFFF" height="30" style="stroke:#181818;stroke-width:1.0;" width="10" x="2335" y="1959.7344"/><rect fill="#FFFFFF" height="39.1563" style="stroke:#181818;stroke-width:1.0;" width="10" x="2513.5" y="729.2656"/><rect fill="#FFFFFF" height="39.1563" style="stroke:#181818;stroke-width:1.0;" width="10" x="2513.5" y="1815.2656"/><polygon fill="#181818" points="734.5,177.0781,744.5,181.0781,734.5,185.0781,738.5,181.0781" style="stroke:#181818;stroke-width:1.0;"/><line style="stroke:#181818;stroke-width:1.0;" x1="112.5" x2="740.5" y1="181.0781" y2="181.0781"/><text fill="#000000" font-family="sans-serif" font-size="20" font-weight="bold" lengthAdjust="spacing" textLength="11" x="119.5" y="174.6836">1</text><text fill="#000000" font-family="sans-serif" font-size="20" lengthAdjust="spacing" textLength="208" x="134.5" y="174.6836">asks to edit job opening</text><polygon fill="#181818" points="1390.5,216.2344,1400.5,220.2344,1390.5,224.2344,1394.5,220.2344" style="stroke:#181818;stroke-width:1.0;"/><line style="stroke:#181818;stroke-width:1.0;" x1="756.5" x2="1396.5" y1="220.2344" y2="220.2344"/><text fill="#000000" font-family="sans-serif" font-size="20" font-weight="bold" lengthAdjust="spacing" textLength="11" x="763.5" y="213.8398">2</text><text fill="#000000" font-family="sans-serif" font-size="20" lengthAdjust="spacing" textLength="56" x="778.5" y="213.8398">create</text><rect fill="#E2E2F0" height="64.3125" rx="2.5" ry="2.5" style="stroke:#181818;stroke-width:0.5;" width="244" x="1402.5" y="189.0781"/><text fill="#000000" font-family="sans-serif" font-size="20" font-style="italic" lengthAdjust="spacing" textLength="118" x="1465.5" y="216.8398">«application»</text><text fill="#000000" font-family="sans-serif" font-size="20" lengthAdjust="spacing" textLength="230" x="1409.5" y="241.9961">:EditJobOpeningController</text><polygon fill="#181818" points="1507.5,291.5469,1517.5,295.5469,1507.5,299.5469,1511.5,295.5469" style="stroke:#181818;stroke-width:1.0;"/><line style="stroke:#181818;stroke-width:1.0;" x1="756.5" x2="1513.5" y1="295.5469" y2="295.5469"/><text fill="#000000" font-family="sans-serif" font-size="20" font-weight="bold" lengthAdjust="spacing" textLength="11" x="763.5" y="289.1523">3</text><text fill="#000000" font-family="sans-serif" font-size="20" lengthAdjust="spacing" textLength="178" x="778.5" y="289.1523">getJobOpeningList()</text><rect fill="none" height="85.4688" style="stroke:#000000;stroke-width:1.5;" width="474" x="1399.5" y="303.5469"/><path d="M1399.5,303.5469 L1470.5,303.5469 L1470.5,320.5469 L1460.5,330.5469 L1399.5,330.5469 L1399.5,303.5469 " fill="#EEEEEE" style="stroke:#000000;stroke-width:2.0;"/><text fill="#000000" font-family="sans-serif" font-size="20" font-weight="bold" lengthAdjust="spacing" textLength="26" x="1412.5" y="326.3086">ref</text><text fill="#000000" font-family="sans-serif" font-size="20" font-weight="bold" lengthAdjust="spacing" textLength="58" x="1403.5" y="355.3086">[ref1]:</text><text fill="#000000" font-family="sans-serif" font-size="20" lengthAdjust="spacing" textLength="55" x="1467.5" y="355.3086">Check</text><text fill="#000000" font-family="sans-serif" font-size="20" font-weight="bold" lengthAdjust="spacing" textLength="341" x="1528.5" y="355.3086">sequence-diagram-get-job-openings</text><text fill="#000000" font-family="sans-serif" font-size="20" lengthAdjust="spacing" textLength="103" x="1510.5" y="380.4648">in the folder</text><text fill="#000000" font-family="sans-serif" font-size="20" font-weight="bold" lengthAdjust="spacing" textLength="143" x="1619.5" y="380.4648">team-decisions</text><polygon fill="#181818" points="767.5,421.1719,757.5,425.1719,767.5,429.1719,763.5,425.1719" style="stroke:#181818;stroke-width:1.0;"/><line style="stroke:#181818;stroke-width:1.0;stroke-dasharray:2.0,2.0;" x1="761.5" x2="1523.5" y1="425.1719" y2="425.1719"/><text fill="#000000" font-family="sans-serif" font-size="20" font-weight="bold" lengthAdjust="spacing" textLength="11" x="773.5" y="418.7773">4</text><text fill="#000000" font-family="sans-serif" font-size="20" lengthAdjust="spacing" textLength="172" x="788.5" y="418.7773">jobOpeningListDTO</text><polygon fill="#181818" points="123.5,460.3281,113.5,464.3281,123.5,468.3281,119.5,464.3281" style="stroke:#181818;stroke-width:1.0;"/><line style="stroke:#181818;stroke-width:1.0;stroke-dasharray:2.0,2.0;" x1="117.5" x2="750.5" y1="464.3281" y2="464.3281"/><text fill="#000000" font-family="sans-serif" font-size="20" font-weight="bold" lengthAdjust="spacing" textLength="11" x="129.5" y="457.9336">5</text><text fill="#000000" font-family="sans-serif" font-size="20" lengthAdjust="spacing" textLength="424" x="144.5" y="457.9336">displays the job openings and asks to select one</text><polygon fill="#181818" points="734.5,499.4844,744.5,503.4844,734.5,507.4844,738.5,503.4844" style="stroke:#181818;stroke-width:1.0;"/><line style="stroke:#181818;stroke-width:1.0;" x1="112.5" x2="740.5" y1="503.4844" y2="503.4844"/><text fill="#000000" font-family="sans-serif" font-size="20" font-weight="bold" lengthAdjust="spacing" textLength="11" x="119.5" y="497.0898">6</text><text fill="#000000" font-family="sans-serif" font-size="20" lengthAdjust="spacing" textLength="168" x="134.5" y="497.0898">selects job opening</text><polygon fill="#181818" points="1507.5,538.6406,1517.5,542.6406,1507.5,546.6406,1511.5,542.6406" style="stroke:#181818;stroke-width:1.0;"/><line style="stroke:#181818;stroke-width:1.0;" x1="756.5" x2="1513.5" y1="542.6406" y2="542.6406"/><text fill="#000000" font-family="sans-serif" font-size="20" font-weight="bold" lengthAdjust="spacing" textLength="11" x="763.5" y="536.2461">7</text><text fill="#000000" font-family="sans-serif" font-size="20" lengthAdjust="spacing" textLength="416" x="778.5" y="536.2461">editableJobOpeningInformation(jobOpeningDto)</text><polygon fill="#181818" points="2108.5,577.7969,2118.5,581.7969,2108.5,585.7969,2112.5,581.7969" style="stroke:#181818;stroke-width:1.0;"/><line style="stroke:#181818;stroke-width:1.0;" x1="1529.5" x2="2114.5" y1="581.7969" y2="581.7969"/><text fill="#000000" font-family="sans-serif" font-size="20" font-weight="bold" lengthAdjust="spacing" textLength="11" x="1536.5" y="575.4023">8</text><text fill="#000000" font-family="sans-serif" font-size="20" lengthAdjust="spacing" textLength="365" x="1551.5" y="575.4023">ensureAuthenticatedUserHasAnyOf(roles)</text><polygon fill="#181818" points="2323,646.9531,2333,650.9531,2323,654.9531,2327,650.9531" style="stroke:#181818;stroke-width:1.0;"/><line style="stroke:#181818;stroke-width:1.0;" x1="1529.5" x2="2329" y1="650.9531" y2="650.9531"/><text fill="#000000" font-family="sans-serif" font-size="20" font-weight="bold" lengthAdjust="spacing" textLength="11" x="1536.5" y="644.5586">9</text><text fill="#000000" font-family="sans-serif" font-size="20" lengthAdjust="spacing" textLength="212" x="1551.5" y="644.5586">ofIdentity(jobReference)</text><polygon fill="#181818" points="1540.5,686.1094,1530.5,690.1094,1540.5,694.1094,1536.5,690.1094" style="stroke:#181818;stroke-width:1.0;"/><line style="stroke:#181818;stroke-width:1.0;stroke-dasharray:2.0,2.0;" x1="1534.5" x2="2339" y1="690.1094" y2="690.1094"/><text fill="#000000" font-family="sans-serif" font-size="20" font-weight="bold" lengthAdjust="spacing" textLength="22" x="1546.5" y="683.7148">10</text><text fill="#000000" font-family="sans-serif" font-size="20" lengthAdjust="spacing" textLength="99" x="1572.5" y="683.7148">jobOpening</text><polygon fill="#181818" points="2501.5,725.2656,2511.5,729.2656,2501.5,733.2656,2505.5,729.2656" style="stroke:#181818;stroke-width:1.0;"/><line style="stroke:#181818;stroke-width:1.0;" x1="1529.5" x2="2507.5" y1="729.2656" y2="729.2656"/><text fill="#000000" font-family="sans-serif" font-size="20" font-weight="bold" lengthAdjust="spacing" textLength="22" x="1536.5" y="722.8711">11</text><text fill="#000000" font-family="sans-serif" font-size="20" lengthAdjust="spacing" textLength="286" x="1562.5" y="722.8711">editableJobOpeningInformation()</text><polygon fill="#181818" points="1540.5,764.4219,1530.5,768.4219,1540.5,772.4219,1536.5,768.4219" style="stroke:#181818;stroke-width:1.0;"/><line style="stroke:#181818;stroke-width:1.0;stroke-dasharray:2.0,2.0;" x1="1534.5" x2="2517.5" y1="768.4219" y2="768.4219"/><text fill="#000000" font-family="sans-serif" font-size="20" font-weight="bold" lengthAdjust="spacing" textLength="22" x="1546.5" y="762.0273">12</text><text fill="#000000" font-family="sans-serif" font-size="20" lengthAdjust="spacing" textLength="226" x="1572.5" y="762.0273">editableInformationValues</text><polygon fill="#181818" points="767.5,803.5781,757.5,807.5781,767.5,811.5781,763.5,807.5781" style="stroke:#181818;stroke-width:1.0;"/><line style="stroke:#181818;stroke-width:1.0;stroke-dasharray:2.0,2.0;" x1="761.5" x2="1523.5" y1="807.5781" y2="807.5781"/><text fill="#000000" font-family="sans-serif" font-size="20" font-weight="bold" lengthAdjust="spacing" textLength="22" x="773.5" y="801.1836">13</text><text fill="#000000" font-family="sans-serif" font-size="20" lengthAdjust="spacing" textLength="226" x="799.5" y="801.1836">editableInformationValues</text><polygon fill="#181818" points="123.5,842.7344,113.5,846.7344,123.5,850.7344,119.5,846.7344" style="stroke:#181818;stroke-width:1.0;"/><line style="stroke:#181818;stroke-width:1.0;stroke-dasharray:2.0,2.0;" x1="117.5" x2="750.5" y1="846.7344" y2="846.7344"/><text fill="#000000" font-family="sans-serif" font-size="20" font-weight="bold" lengthAdjust="spacing" textLength="22" x="129.5" y="840.3398">14</text><text fill="#000000" font-family="sans-serif" font-size="20" lengthAdjust="spacing" textLength="584" x="155.5" y="840.3398">shows all the information that can be edited and asks to select one</text><path d="M10,861.7344 L96,861.7344 L96,878.8906 L86,888.8906 L10,888.8906 L10,861.7344 " fill="#EEEEEE" style="stroke:#000000;stroke-width:1.5;"/><rect fill="none" height="349.7188" style="stroke:#000000;stroke-width:1.5;" width="2204.5" x="10" y="861.7344"/><text fill="#000000" font-family="sans-serif" font-size="20" font-weight="bold" lengthAdjust="spacing" textLength="41" x="25" y="883.4961">loop</text><text fill="#000000" font-family="sans-serif" font-size="20" font-weight="bold" lengthAdjust="spacing" textLength="238" x="111" y="884.4961">[while user wants to edit]</text><polygon fill="#181818" points="734.5,926.2031,744.5,930.2031,734.5,934.2031,738.5,930.2031" style="stroke:#181818;stroke-width:1.0;"/><line style="stroke:#181818;stroke-width:1.0;" x1="112.5" x2="740.5" y1="930.2031" y2="930.2031"/><text fill="#000000" font-family="sans-serif" font-size="20" font-weight="bold" lengthAdjust="spacing" textLength="22" x="119.5" y="923.8086">15</text><text fill="#000000" font-family="sans-serif" font-size="20" lengthAdjust="spacing" textLength="322" x="145.5" y="923.8086">selects information that wants to edit</text><polygon fill="#181818" points="1507.5,965.3594,1517.5,969.3594,1507.5,973.3594,1511.5,969.3594" style="stroke:#181818;stroke-width:1.0;"/><line style="stroke:#181818;stroke-width:1.0;" x1="756.5" x2="1513.5" y1="969.3594" y2="969.3594"/><text fill="#000000" font-family="sans-serif" font-size="20" font-weight="bold" lengthAdjust="spacing" textLength="22" x="763.5" y="962.9648">16</text><text fill="#000000" font-family="sans-serif" font-size="20" lengthAdjust="spacing" textLength="352" x="789.5" y="962.9648">necessaryInformation(selectInformation)</text><path d="M1392.5,984.3594 L1460.5,984.3594 L1460.5,1001.5156 L1450.5,1011.5156 L1392.5,1011.5156 L1392.5,984.3594 " fill="#EEEEEE" style="stroke:#000000;stroke-width:1.5;"/><rect fill="none" height="102.625" style="stroke:#000000;stroke-width:1.5;" width="812" x="1392.5" y="984.3594"/><text fill="#000000" font-family="sans-serif" font-size="20" font-weight="bold" lengthAdjust="spacing" textLength="23" x="1407.5" y="1006.1211">alt</text><text fill="#000000" font-family="sans-serif" font-size="20" font-weight="bold" lengthAdjust="spacing" textLength="724" x="1475.5" y="1007.1211">[information == (requirements | interviewModel | ContractType | WorkMode)]</text><rect fill="none" height="60.3125" style="stroke:#000000;stroke-width:1.5;" width="395" x="1399.5" y="1021.6719"/><path d="M1399.5,1021.6719 L1470.5,1021.6719 L1470.5,1038.6719 L1460.5,1048.6719 L1399.5,1048.6719 L1399.5,1021.6719 " fill="#EEEEEE" style="stroke:#000000;stroke-width:2.0;"/><text fill="#000000" font-family="sans-serif" font-size="20" font-weight="bold" lengthAdjust="spacing" textLength="26" x="1412.5" y="1044.4336">ref</text><text fill="#000000" font-family="sans-serif" font-size="20" lengthAdjust="spacing" textLength="55" x="1403.5" y="1073.4336">Check</text><text fill="#000000" font-family="sans-serif" font-size="20" font-weight="bold" lengthAdjust="spacing" textLength="326" x="1464.5" y="1073.4336">sequence-diagram-get-information</text><polygon fill="#181818" points="767.5,1121.1406,757.5,1125.1406,767.5,1129.1406,763.5,1125.1406" style="stroke:#181818;stroke-width:1.0;"/><line style="stroke:#181818;stroke-width:1.0;stroke-dasharray:2.0,2.0;" x1="761.5" x2="1523.5" y1="1125.1406" y2="1125.1406"/><text fill="#000000" font-family="sans-serif" font-size="20" font-weight="bold" lengthAdjust="spacing" textLength="22" x="773.5" y="1118.7461">17</text><text fill="#000000" font-family="sans-serif" font-size="20" lengthAdjust="spacing" textLength="219" x="799.5" y="1118.7461">necessaryInformationDto</text><polygon fill="#181818" points="123.5,1160.2969,113.5,1164.2969,123.5,1168.2969,119.5,1164.2969" style="stroke:#181818;stroke-width:1.0;"/><line style="stroke:#181818;stroke-width:1.0;stroke-dasharray:2.0,2.0;" x1="117.5" x2="750.5" y1="1164.2969" y2="1164.2969"/><text fill="#000000" font-family="sans-serif" font-size="20" font-weight="bold" lengthAdjust="spacing" textLength="22" x="129.5" y="1157.9023">18</text><text fill="#000000" font-family="sans-serif" font-size="20" lengthAdjust="spacing" textLength="248" x="155.5" y="1157.9023">asks for the new information</text><polygon fill="#181818" points="734.5,1199.4531,744.5,1203.4531,734.5,1207.4531,738.5,1203.4531" style="stroke:#181818;stroke-width:1.0;"/><line style="stroke:#181818;stroke-width:1.0;" x1="112.5" x2="740.5" y1="1203.4531" y2="1203.4531"/><text fill="#000000" font-family="sans-serif" font-size="20" font-weight="bold" lengthAdjust="spacing" textLength="22" x="119.5" y="1197.0586">19</text><text fill="#000000" font-family="sans-serif" font-size="20" lengthAdjust="spacing" textLength="251" x="145.5" y="1197.0586">provides the new information</text><polygon fill="#181818" points="1507.5,1245.6094,1517.5,1249.6094,1507.5,1253.6094,1511.5,1249.6094" style="stroke:#181818;stroke-width:1.0;"/><line style="stroke:#181818;stroke-width:1.0;" x1="756.5" x2="1513.5" y1="1249.6094" y2="1249.6094"/><text fill="#000000" font-family="sans-serif" font-size="20" font-weight="bold" lengthAdjust="spacing" textLength="22" x="763.5" y="1243.2148">20</text><text fill="#000000" font-family="sans-serif" font-size="20" lengthAdjust="spacing" textLength="718" x="789.5" y="1243.2148">changeJobOpeningInformation(jobOpeningDto, selectInformation, newInformation)</text><path d="M1202,1262.6094 L1202,1372.6094 L1514,1372.6094 L1514,1272.6094 L1504,1262.6094 L1202,1262.6094 " fill="#FEFFDD" style="stroke:#181818;stroke-width:0.5;"/><path d="M1504,1262.6094 L1504,1272.6094 L1514,1272.6094 L1504,1262.6094 " fill="#FEFFDD" style="stroke:#181818;stroke-width:0.5;"/><text fill="#000000" font-family="sans-serif" font-size="20" lengthAdjust="spacing" textLength="208" x="1208" y="1288.3711">This method will contain</text><text fill="#000000" font-family="sans-serif" font-size="20" lengthAdjust="spacing" textLength="273" x="1208" y="1313.5273">a variable number of attributes,</text><text fill="#000000" font-family="sans-serif" font-size="20" lengthAdjust="spacing" textLength="291" x="1208" y="1338.6836">depending on how many changes</text><text fill="#000000" font-family="sans-serif" font-size="20" lengthAdjust="spacing" textLength="141" x="1208" y="1363.8398">the user makes.</text><polygon fill="#181818" points="2108.5,1405.3906,2118.5,1409.3906,2108.5,1413.3906,2112.5,1409.3906" style="stroke:#181818;stroke-width:1.0;"/><line style="stroke:#181818;stroke-width:1.0;" x1="1529.5" x2="2114.5" y1="1409.3906" y2="1409.3906"/><text fill="#000000" font-family="sans-serif" font-size="20" font-weight="bold" lengthAdjust="spacing" textLength="22" x="1536.5" y="1402.9961">21</text><text fill="#000000" font-family="sans-serif" font-size="20" lengthAdjust="spacing" textLength="365" x="1562.5" y="1402.9961">ensureAuthenticatedUserHasAnyOf(roles)</text><polygon fill="#181818" points="2323,1474.5469,2333,1478.5469,2323,1482.5469,2327,1478.5469" style="stroke:#181818;stroke-width:1.0;"/><line style="stroke:#181818;stroke-width:1.0;" x1="1529.5" x2="2329" y1="1478.5469" y2="1478.5469"/><text fill="#000000" font-family="sans-serif" font-size="20" font-weight="bold" lengthAdjust="spacing" textLength="22" x="1536.5" y="1472.1523">22</text><text fill="#000000" font-family="sans-serif" font-size="20" lengthAdjust="spacing" textLength="212" x="1562.5" y="1472.1523">ofIdentity(jobReference)</text><polygon fill="#181818" points="1540.5,1513.7031,1530.5,1517.7031,1540.5,1521.7031,1536.5,1517.7031" style="stroke:#181818;stroke-width:1.0;"/><line style="stroke:#181818;stroke-width:1.0;stroke-dasharray:2.0,2.0;" x1="1534.5" x2="2339" y1="1517.7031" y2="1517.7031"/><text fill="#000000" font-family="sans-serif" font-size="20" font-weight="bold" lengthAdjust="spacing" textLength="22" x="1546.5" y="1511.3086">23</text><text fill="#000000" font-family="sans-serif" font-size="20" lengthAdjust="spacing" textLength="99" x="1572.5" y="1511.3086">jobOpening</text><path d="M1382.5,1532.7031 L1468.5,1532.7031 L1468.5,1549.8594 L1458.5,1559.8594 L1382.5,1559.8594 L1382.5,1532.7031 " fill="#EEEEEE" style="stroke:#000000;stroke-width:1.5;"/><rect fill="none" height="388.875" style="stroke:#000000;stroke-width:1.5;" width="1218.5" x="1382.5" y="1532.7031"/><text fill="#000000" font-family="sans-serif" font-size="20" font-weight="bold" lengthAdjust="spacing" textLength="41" x="1397.5" y="1554.4648">loop</text><text fill="#000000" font-family="sans-serif" font-size="20" font-weight="bold" lengthAdjust="spacing" textLength="244" x="1483.5" y="1555.4648">[for each newInformation]</text><line style="stroke:#181818;stroke-width:1.0;" x1="1529.5" x2="1576.5" y1="1596.1719" y2="1596.1719"/><line style="stroke:#181818;stroke-width:1.0;" x1="1576.5" x2="1576.5" y1="1596.1719" y2="1609.1719"/><line style="stroke:#181818;stroke-width:1.0;" x1="1535.5" x2="1576.5" y1="1609.1719" y2="1609.1719"/><polygon fill="#181818" points="1545.5,1605.1719,1535.5,1609.1719,1545.5,1613.1719,1541.5,1609.1719" style="stroke:#181818;stroke-width:1.0;"/><text fill="#000000" font-family="sans-serif" font-size="20" font-weight="bold" lengthAdjust="spacing" textLength="22" x="1541.5" y="1589.7773">24</text><text fill="#000000" font-family="sans-serif" font-size="20" lengthAdjust="spacing" textLength="551" x="1567.5" y="1589.7773">editInformation(jobOpening, selectInformation, newInformation)</text><path d="M1392.5,1629.1719 L1460.5,1629.1719 L1460.5,1646.3281 L1450.5,1656.3281 L1392.5,1656.3281 L1392.5,1629.1719 " fill="#EEEEEE" style="stroke:#000000;stroke-width:1.5;"/><rect fill="none" height="233.25" style="stroke:#000000;stroke-width:1.5;" width="1198.5" x="1392.5" y="1629.1719"/><text fill="#000000" font-family="sans-serif" font-size="20" font-weight="bold" lengthAdjust="spacing" textLength="23" x="1407.5" y="1650.9336">alt</text><text fill="#000000" font-family="sans-serif" font-size="20" font-weight="bold" lengthAdjust="spacing" textLength="803" x="1475.5" y="1651.9336">[selectedInformation == (requirements | interviewModel | ContractType | WorkMode)]</text><rect fill="none" height="110.625" style="stroke:#000000;stroke-width:1.5;" width="390" x="1399.5" y="1666.4844"/><path d="M1399.5,1666.4844 L1470.5,1666.4844 L1470.5,1683.4844 L1460.5,1693.4844 L1399.5,1693.4844 L1399.5,1666.4844 " fill="#EEEEEE" style="stroke:#000000;stroke-width:2.0;"/><text fill="#000000" font-family="sans-serif" font-size="20" font-weight="bold" lengthAdjust="spacing" textLength="26" x="1412.5" y="1689.2461">ref</text><text fill="#000000" font-family="sans-serif" font-size="20" lengthAdjust="spacing" textLength="6" x="1591.5" y="1718.2461"> </text><text fill="#000000" font-family="sans-serif" font-size="20" lengthAdjust="spacing" textLength="51" x="1403.5" y="1743.4023">check</text><text fill="#000000" font-family="sans-serif" font-size="20" font-weight="bold" lengthAdjust="spacing" textLength="325" x="1460.5" y="1743.4023">sequence-diagram-change-models</text><text fill="#000000" font-family="sans-serif" font-size="20" lengthAdjust="spacing" textLength="6" x="1591.5" y="1768.5586"> </text><line style="stroke:#000000;stroke-width:1.0;stroke-dasharray:2.0,2.0;" x1="1392.5" x2="2591" y1="1783.1094" y2="1783.1094"/><polygon fill="#181818" points="2501.5,1811.2656,2511.5,1815.2656,2501.5,1819.2656,2505.5,1815.2656" style="stroke:#181818;stroke-width:1.0;"/><line style="stroke:#181818;stroke-width:1.0;" x1="1534.5" x2="2507.5" y1="1815.2656" y2="1815.2656"/><text fill="#000000" font-family="sans-serif" font-size="20" font-weight="bold" lengthAdjust="spacing" textLength="22" x="1541.5" y="1808.8711">25</text><text fill="#000000" font-family="sans-serif" font-size="20" lengthAdjust="spacing" textLength="493" x="1567.5" y="1808.8711">changeInformation(selectedInformation, newInformation)</text><polygon fill="#181818" points="1545.5,1850.4219,1535.5,1854.4219,1545.5,1858.4219,1541.5,1854.4219" style="stroke:#181818;stroke-width:1.0;"/><line style="stroke:#181818;stroke-width:1.0;stroke-dasharray:2.0,2.0;" x1="1539.5" x2="2517.5" y1="1854.4219" y2="1854.4219"/><text fill="#000000" font-family="sans-serif" font-size="20" font-weight="bold" lengthAdjust="spacing" textLength="22" x="1551.5" y="1848.0273">26</text><text fill="#000000" font-family="sans-serif" font-size="20" lengthAdjust="spacing" textLength="71" x="1577.5" y="1848.0273">success</text><line style="stroke:#181818;stroke-width:1.0;stroke-dasharray:2.0,2.0;" x1="1534.5" x2="1576.5" y1="1905.5781" y2="1905.5781"/><line style="stroke:#181818;stroke-width:1.0;stroke-dasharray:2.0,2.0;" x1="1576.5" x2="1576.5" y1="1905.5781" y2="1918.5781"/><line style="stroke:#181818;stroke-width:1.0;stroke-dasharray:2.0,2.0;" x1="1529.5" x2="1576.5" y1="1918.5781" y2="1918.5781"/><polygon fill="#181818" points="1539.5,1914.5781,1529.5,1918.5781,1539.5,1922.5781,1535.5,1918.5781" style="stroke:#181818;stroke-width:1.0;"/><text fill="#000000" font-family="sans-serif" font-size="20" font-weight="bold" lengthAdjust="spacing" textLength="22" x="1541.5" y="1899.1836">27</text><text fill="#000000" font-family="sans-serif" font-size="20" lengthAdjust="spacing" textLength="6" x="1567.5" y="1899.1836"> </text><polygon fill="#181818" points="2323,1955.7344,2333,1959.7344,2323,1963.7344,2327,1959.7344" style="stroke:#181818;stroke-width:1.0;"/><line style="stroke:#181818;stroke-width:1.0;" x1="1529.5" x2="2329" y1="1959.7344" y2="1959.7344"/><text fill="#000000" font-family="sans-serif" font-size="20" font-weight="bold" lengthAdjust="spacing" textLength="22" x="1536.5" y="1953.3398">28</text><text fill="#000000" font-family="sans-serif" font-size="20" lengthAdjust="spacing" textLength="154" x="1562.5" y="1953.3398">save(jobOpening)</text><polygon fill="#181818" points="767.5,2024.8906,757.5,2028.8906,767.5,2032.8906,763.5,2028.8906" style="stroke:#181818;stroke-width:1.0;"/><line style="stroke:#181818;stroke-width:1.0;stroke-dasharray:2.0,2.0;" x1="761.5" x2="1523.5" y1="2028.8906" y2="2028.8906"/><text fill="#000000" font-family="sans-serif" font-size="20" font-weight="bold" lengthAdjust="spacing" textLength="22" x="773.5" y="2022.4961">29</text><text fill="#000000" font-family="sans-serif" font-size="20" lengthAdjust="spacing" textLength="6" x="799.5" y="2022.4961"> </text><polygon fill="#181818" points="118.5,2064.0469,108.5,2068.0469,118.5,2072.0469,114.5,2068.0469" style="stroke:#181818;stroke-width:1.0;"/><line style="stroke:#181818;stroke-width:1.0;stroke-dasharray:2.0,2.0;" x1="112.5" x2="745.5" y1="2068.0469" y2="2068.0469"/><text fill="#000000" font-family="sans-serif" font-size="20" font-weight="bold" lengthAdjust="spacing" textLength="22" x="124.5" y="2061.6523">30</text><text fill="#000000" font-family="sans-serif" font-size="20" lengthAdjust="spacing" textLength="148" x="150.5" y="2061.6523">displays success</text><!--SRC=[vLPTRzis57tNhxZ8on8XRj9XJq8R84Wor4KB3uwp0Xs6WHQlRSuKgP6K3HVzyRkaB8kIvTGFUviU38kwvtuU7jAkXIgPOONK-HevS5omIhfVjNBFuXl2pxV9JoldIflTt9IIALSLyaskYnkB_rIeSXnnmPQ4Jn8dd4HuUNvxU_iBZE1vRm2FZG6hd5PLCKT3_tEd3LmyLDRf0WryPeejqLm0i-JYQPfGKaxaegIGS94zSU4-wlcaH2NKycLSsutXtRlIe4Nbc1DQtTsz2dkWeeoMSX_cOJRzH0vOMKgH3-FlAxVIHdmBNv_HR4IE0Nl_CllmbS2sNYCWPuxDcKL2jH6dM6ehgD9TG7sS_3Lz-cr2E7FuS1IpHUynPCvrmOHFp_TDR9Z3kac9_uNHdMz5HjPh2qu3KjNmjvw3hlr4e351nXxWYq_J37A3z25U9KTBZBhsILXtUTNwy3P9Od01UaE32wzf-WSjlFqpIrDuM66-XZJj4sH4NaUKrMYVbKtJH2XmAuI5bfnSfQb3ikEO2qlzzWQeE93d90cPZKAbcQyjIkvnDaauzlBpzNXhtvyCkB14tfqDqQBEM60KeEcRHOcv0wqmzkTxrkrpRMTFjnZeQHkQXO6mkSIsgMErqAO8jBfigtbq-Yg0UyNufRe1TpNpCW1KjZBe2Khiz_n5_a9i_C3ilTfD5fT4TBGzRm4RbgBwwiLEZ3rFCz2BCVVktSvdESK56Z_IdjkzUUsZuVZeK7rRNpzq1zW6Xnzrx2X-4pgAsdY8SBypMQ4zJYAElsVOsUXwG3swsPNU4hMa37mJhGzwPmvofc2E8GOfxdaCb5gNi5q9KjYAnWnR4el3Pgy9DqJHezZ7k5UPgp17QvdPnUsldKSh9qdBfEkayFuzN1hI1M6mG9_8T_hil8RYzhFcA6aXg3JvckrAfDSlsgpzfwlQet-wsWFHywhsH8cGiZIGHc6Q_vJo01-6-a2xTPWDJHDRGeJv4Z3mGU4sRahVns4CXtbcK1gz4HpjINoCzbLukXnFCrynjJn7XQxXQCRNFkuvC_UFqhGaSU6w8vgjX8K2wKpbi1MqFNAQDHri1mC66sQ4ttXGNnH8WO0vPyIyScYl3uOSALTEoT9U0TfjK32rszTd3rQ-Ms6t56oDzardvZx5_uco1ZO4-f71gZV7RdwjTWvpuonYd1226eby_5y9mh0UT0GXFoK8DLL6XO_XBnh3UY0jzkVNxA9ZGUnKzeFjCdXasIhtAdFgW1fMfm0TrA633WmIqB8DHeCzGRnJj8h5yTNBLtJtQihh76tX5lil]--></g></svg>