<?xml version="1.0" encoding="UTF-8" standalone="no"?><svg xmlns="http://www.w3.org/2000/svg" xmlns:xlink="http://www.w3.org/1999/xlink" contentStyleType="text/css" height="820px" preserveAspectRatio="none" style="width:820px;height:820px;background:#FFFFFF;" version="1.1" viewBox="0 0 820 820" width="820px" zoomAndPan="magnify"><defs/><g><!--class AuthenticationService--><g id="elem_AuthenticationService"><rect codeLine="4" fill="#F1F1F1" height="101.4688" id="AuthenticationService" rx="2.5" ry="2.5" style="stroke:#181818;stroke-width:0.5;" width="221" x="277" y="7"/><ellipse cx="293" cy="37.1563" fill="#ADD1B2" rx="12" ry="12" style="stroke:#181818;stroke-width:1.0;"/><path d="M295.1406,32.0781 Q295.3281,31.8281 295.5469,31.7031 Q295.7656,31.5625 296.0156,31.5625 Q296.4531,31.5625 296.7344,31.875 Q297.0156,32.1719 297.0156,32.8906 L297.0156,34.5938 Q297.0156,35.3125 296.7344,35.625 Q296.4531,35.9375 296.0156,35.9375 Q295.625,35.9375 295.375,35.7031 Q295.125,35.4844 295.0156,34.875 Q294.9531,34.4531 294.7344,34.2344 Q294.3438,33.7969 293.625,33.5313 Q292.9063,33.2656 292.1875,33.2656 Q291.2813,33.2656 290.5313,33.6563 Q289.7813,34.0469 289.2031,34.9375 Q288.625,35.8125 288.625,37.0156 L288.625,38.3125 Q288.625,39.7656 289.6719,40.7344 Q290.7344,41.7031 292.5938,41.7031 Q293.7031,41.7031 294.4844,41.3906 Q294.9219,41.2188 295.4375,40.7031 Q295.75,40.3906 295.9219,40.2969 Q296.0938,40.2031 296.3281,40.2031 Q296.7188,40.2031 297.0156,40.5156 Q297.3281,40.8125 297.3281,41.2188 Q297.3281,41.625 296.9219,42.0938 Q296.3281,42.7813 295.3906,43.1719 Q294.125,43.7031 292.6094,43.7031 Q290.8281,43.7031 289.4063,42.9688 Q288.25,42.375 287.4375,41.1094 Q286.625,39.8438 286.625,38.3594 L286.625,37 Q286.625,35.4375 287.3438,34.0938 Q288.0781,32.7344 289.3594,32 Q290.6563,31.2656 292.1094,31.2656 Q292.9688,31.2656 293.7188,31.4688 Q294.4844,31.6719 295.1406,32.0781 Z " fill="#000000"/><text fill="#000000" font-family="sans-serif" font-size="20" font-style="italic" lengthAdjust="spacing" textLength="86" x="358.5" y="32.7617">«service»</text><text fill="#000000" font-family="sans-serif" font-size="20" lengthAdjust="spacing" textLength="187" x="308" y="57.918">AuthenticationService</text><line style="stroke:#181818;stroke-width:0.5;" x1="278" x2="497" y1="67.3125" y2="67.3125"/><line style="stroke:#181818;stroke-width:0.5;" x1="278" x2="497" y1="75.3125" y2="75.3125"/><ellipse cx="288" cy="93.3906" fill="#84BE84" rx="3" ry="3" style="stroke:#038048;stroke-width:1.0;"/><text fill="#000000" font-family="sans-serif" font-size="20" lengthAdjust="spacing" textLength="120" x="298" y="100.0742">authenticate()</text></g><!--class AuthorizationService--><g id="elem_AuthorizationService"><rect codeLine="8" fill="#F1F1F1" height="76.3125" id="AuthorizationService" rx="2.5" ry="2.5" style="stroke:#181818;stroke-width:0.5;" width="211" x="7" y="329"/><ellipse cx="23" cy="359.1563" fill="#ADD1B2" rx="12" ry="12" style="stroke:#181818;stroke-width:1.0;"/><path d="M25.1406,354.0781 Q25.3281,353.8281 25.5469,353.7031 Q25.7656,353.5625 26.0156,353.5625 Q26.4531,353.5625 26.7344,353.875 Q27.0156,354.1719 27.0156,354.8906 L27.0156,356.5938 Q27.0156,357.3125 26.7344,357.625 Q26.4531,357.9375 26.0156,357.9375 Q25.625,357.9375 25.375,357.7031 Q25.125,357.4844 25.0156,356.875 Q24.9531,356.4531 24.7344,356.2344 Q24.3438,355.7969 23.625,355.5313 Q22.9063,355.2656 22.1875,355.2656 Q21.2813,355.2656 20.5313,355.6563 Q19.7813,356.0469 19.2031,356.9375 Q18.625,357.8125 18.625,359.0156 L18.625,360.3125 Q18.625,361.7656 19.6719,362.7344 Q20.7344,363.7031 22.5938,363.7031 Q23.7031,363.7031 24.4844,363.3906 Q24.9219,363.2188 25.4375,362.7031 Q25.75,362.3906 25.9219,362.2969 Q26.0938,362.2031 26.3281,362.2031 Q26.7188,362.2031 27.0156,362.5156 Q27.3281,362.8125 27.3281,363.2188 Q27.3281,363.625 26.9219,364.0938 Q26.3281,364.7813 25.3906,365.1719 Q24.125,365.7031 22.6094,365.7031 Q20.8281,365.7031 19.4063,364.9688 Q18.25,364.375 17.4375,363.1094 Q16.625,361.8438 16.625,360.3594 L16.625,359 Q16.625,357.4375 17.3438,356.0938 Q18.0781,354.7344 19.3594,354 Q20.6563,353.2656 22.1094,353.2656 Q22.9688,353.2656 23.7188,353.4688 Q24.4844,353.6719 25.1406,354.0781 Z " fill="#000000"/><text fill="#000000" font-family="sans-serif" font-size="20" font-style="italic" lengthAdjust="spacing" textLength="86" x="83.5" y="354.7617">«service»</text><text fill="#000000" font-family="sans-serif" font-size="20" lengthAdjust="spacing" textLength="177" x="38" y="379.918">AuthorizationService</text><line style="stroke:#181818;stroke-width:0.5;" x1="8" x2="217" y1="389.3125" y2="389.3125"/><line style="stroke:#181818;stroke-width:0.5;" x1="8" x2="217" y1="397.3125" y2="397.3125"/></g><!--class PasswordEncoder--><g id="elem_PasswordEncoder"><rect codeLine="11" fill="#F1F1F1" height="76.3125" id="PasswordEncoder" rx="2.5" ry="2.5" style="stroke:#181818;stroke-width:0.5;" width="195" x="259" y="737"/><ellipse cx="275" cy="767.1563" fill="#ADD1B2" rx="12" ry="12" style="stroke:#181818;stroke-width:1.0;"/><path d="M277.1406,762.0781 Q277.3281,761.8281 277.5469,761.7031 Q277.7656,761.5625 278.0156,761.5625 Q278.4531,761.5625 278.7344,761.875 Q279.0156,762.1719 279.0156,762.8906 L279.0156,764.5938 Q279.0156,765.3125 278.7344,765.625 Q278.4531,765.9375 278.0156,765.9375 Q277.625,765.9375 277.375,765.7031 Q277.125,765.4844 277.0156,764.875 Q276.9531,764.4531 276.7344,764.2344 Q276.3438,763.7969 275.625,763.5313 Q274.9063,763.2656 274.1875,763.2656 Q273.2813,763.2656 272.5313,763.6563 Q271.7813,764.0469 271.2031,764.9375 Q270.625,765.8125 270.625,767.0156 L270.625,768.3125 Q270.625,769.7656 271.6719,770.7344 Q272.7344,771.7031 274.5938,771.7031 Q275.7031,771.7031 276.4844,771.3906 Q276.9219,771.2188 277.4375,770.7031 Q277.75,770.3906 277.9219,770.2969 Q278.0938,770.2031 278.3281,770.2031 Q278.7188,770.2031 279.0156,770.5156 Q279.3281,770.8125 279.3281,771.2188 Q279.3281,771.625 278.9219,772.0938 Q278.3281,772.7813 277.3906,773.1719 Q276.125,773.7031 274.6094,773.7031 Q272.8281,773.7031 271.4063,772.9688 Q270.25,772.375 269.4375,771.1094 Q268.625,769.8438 268.625,768.3594 L268.625,767 Q268.625,765.4375 269.3438,764.0938 Q270.0781,762.7344 271.3594,762 Q272.6563,761.2656 274.1094,761.2656 Q274.9688,761.2656 275.7188,761.4688 Q276.4844,761.6719 277.1406,762.0781 Z " fill="#000000"/><text fill="#000000" font-family="sans-serif" font-size="20" font-style="italic" lengthAdjust="spacing" textLength="86" x="327.5" y="762.7617">«service»</text><text fill="#000000" font-family="sans-serif" font-size="20" lengthAdjust="spacing" textLength="161" x="290" y="787.918">PasswordEncoder</text><line style="stroke:#181818;stroke-width:0.5;" x1="260" x2="453" y1="797.3125" y2="797.3125"/><line style="stroke:#181818;stroke-width:0.5;" x1="260" x2="453" y1="805.3125" y2="805.3125"/></g><!--class PasswordPolicy--><g id="elem_PasswordPolicy"><rect codeLine="14" fill="#F1F1F1" height="76.3125" id="PasswordPolicy" rx="2.5" ry="2.5" style="stroke:#181818;stroke-width:0.5;" width="174" x="516.5" y="737"/><ellipse cx="532.5" cy="767.1563" fill="#ADD1B2" rx="12" ry="12" style="stroke:#181818;stroke-width:1.0;"/><path d="M534.6406,762.0781 Q534.8281,761.8281 535.0469,761.7031 Q535.2656,761.5625 535.5156,761.5625 Q535.9531,761.5625 536.2344,761.875 Q536.5156,762.1719 536.5156,762.8906 L536.5156,764.5938 Q536.5156,765.3125 536.2344,765.625 Q535.9531,765.9375 535.5156,765.9375 Q535.125,765.9375 534.875,765.7031 Q534.625,765.4844 534.5156,764.875 Q534.4531,764.4531 534.2344,764.2344 Q533.8438,763.7969 533.125,763.5313 Q532.4063,763.2656 531.6875,763.2656 Q530.7813,763.2656 530.0313,763.6563 Q529.2813,764.0469 528.7031,764.9375 Q528.125,765.8125 528.125,767.0156 L528.125,768.3125 Q528.125,769.7656 529.1719,770.7344 Q530.2344,771.7031 532.0938,771.7031 Q533.2031,771.7031 533.9844,771.3906 Q534.4219,771.2188 534.9375,770.7031 Q535.25,770.3906 535.4219,770.2969 Q535.5938,770.2031 535.8281,770.2031 Q536.2188,770.2031 536.5156,770.5156 Q536.8281,770.8125 536.8281,771.2188 Q536.8281,771.625 536.4219,772.0938 Q535.8281,772.7813 534.8906,773.1719 Q533.625,773.7031 532.1094,773.7031 Q530.3281,773.7031 528.9063,772.9688 Q527.75,772.375 526.9375,771.1094 Q526.125,769.8438 526.125,768.3594 L526.125,767 Q526.125,765.4375 526.8438,764.0938 Q527.5781,762.7344 528.8594,762 Q530.1563,761.2656 531.6094,761.2656 Q532.4688,761.2656 533.2188,761.4688 Q533.9844,761.6719 534.6406,762.0781 Z " fill="#000000"/><text fill="#000000" font-family="sans-serif" font-size="20" font-style="italic" lengthAdjust="spacing" textLength="86" x="574.5" y="762.7617">«service»</text><text fill="#000000" font-family="sans-serif" font-size="20" lengthAdjust="spacing" textLength="140" x="547.5" y="787.918">PasswordPolicy</text><line style="stroke:#181818;stroke-width:0.5;" x1="517.5" x2="689.5" y1="797.3125" y2="797.3125"/><line style="stroke:#181818;stroke-width:0.5;" x1="517.5" x2="689.5" y1="805.3125" y2="805.3125"/></g><!--class Password--><g id="elem_Password"><rect codeLine="16" fill="#F1F1F1" height="76.3125" id="Password" rx="2.5" ry="2.5" style="stroke:#181818;stroke-width:0.5;" width="122" x="485.5" y="588.5"/><ellipse cx="501.5" cy="618.6563" fill="#ADD1B2" rx="12" ry="12" style="stroke:#181818;stroke-width:1.0;"/><path d="M503.6406,613.5781 Q503.8281,613.3281 504.0469,613.2031 Q504.2656,613.0625 504.5156,613.0625 Q504.9531,613.0625 505.2344,613.375 Q505.5156,613.6719 505.5156,614.3906 L505.5156,616.0938 Q505.5156,616.8125 505.2344,617.125 Q504.9531,617.4375 504.5156,617.4375 Q504.125,617.4375 503.875,617.2031 Q503.625,616.9844 503.5156,616.375 Q503.4531,615.9531 503.2344,615.7344 Q502.8438,615.2969 502.125,615.0313 Q501.4063,614.7656 500.6875,614.7656 Q499.7813,614.7656 499.0313,615.1563 Q498.2813,615.5469 497.7031,616.4375 Q497.125,617.3125 497.125,618.5156 L497.125,619.8125 Q497.125,621.2656 498.1719,622.2344 Q499.2344,623.2031 501.0938,623.2031 Q502.2031,623.2031 502.9844,622.8906 Q503.4219,622.7188 503.9375,622.2031 Q504.25,621.8906 504.4219,621.7969 Q504.5938,621.7031 504.8281,621.7031 Q505.2188,621.7031 505.5156,622.0156 Q505.8281,622.3125 505.8281,622.7188 Q505.8281,623.125 505.4219,623.5938 Q504.8281,624.2813 503.8906,624.6719 Q502.625,625.2031 501.1094,625.2031 Q499.3281,625.2031 497.9063,624.4688 Q496.75,623.875 495.9375,622.6094 Q495.125,621.3438 495.125,619.8594 L495.125,618.5 Q495.125,616.9375 495.8438,615.5938 Q496.5781,614.2344 497.8594,613.5 Q499.1563,612.7656 500.6094,612.7656 Q501.4688,612.7656 502.2188,612.9688 Q502.9844,613.1719 503.6406,613.5781 Z " fill="#000000"/><text fill="#000000" font-family="sans-serif" font-size="20" font-style="italic" lengthAdjust="spacing" textLength="70" x="525.5" y="614.2617">«value»</text><text fill="#000000" font-family="sans-serif" font-size="20" lengthAdjust="spacing" textLength="88" x="516.5" y="639.418">Password</text><line style="stroke:#181818;stroke-width:0.5;" x1="486.5" x2="606.5" y1="648.8125" y2="648.8125"/><line style="stroke:#181818;stroke-width:0.5;" x1="486.5" x2="606.5" y1="656.8125" y2="656.8125"/></g><!--class UserSession--><g id="elem_UserSession"><rect codeLine="20" fill="#F1F1F1" height="51.1563" id="UserSession" rx="2.5" ry="2.5" style="stroke:#181818;stroke-width:0.5;" width="144" x="57.5" y="465"/><ellipse cx="73.5" cy="482.5781" fill="#ADD1B2" rx="12" ry="12" style="stroke:#181818;stroke-width:1.0;"/><path d="M75.6406,477.5 Q75.8281,477.25 76.0469,477.125 Q76.2656,476.9844 76.5156,476.9844 Q76.9531,476.9844 77.2344,477.2969 Q77.5156,477.5938 77.5156,478.3125 L77.5156,480.0156 Q77.5156,480.7344 77.2344,481.0469 Q76.9531,481.3594 76.5156,481.3594 Q76.125,481.3594 75.875,481.125 Q75.625,480.9063 75.5156,480.2969 Q75.4531,479.875 75.2344,479.6563 Q74.8438,479.2188 74.125,478.9531 Q73.4063,478.6875 72.6875,478.6875 Q71.7813,478.6875 71.0313,479.0781 Q70.2813,479.4688 69.7031,480.3594 Q69.125,481.2344 69.125,482.4375 L69.125,483.7344 Q69.125,485.1875 70.1719,486.1563 Q71.2344,487.125 73.0938,487.125 Q74.2031,487.125 74.9844,486.8125 Q75.4219,486.6406 75.9375,486.125 Q76.25,485.8125 76.4219,485.7188 Q76.5938,485.625 76.8281,485.625 Q77.2188,485.625 77.5156,485.9375 Q77.8281,486.2344 77.8281,486.6406 Q77.8281,487.0469 77.4219,487.5156 Q76.8281,488.2031 75.8906,488.5938 Q74.625,489.125 73.1094,489.125 Q71.3281,489.125 69.9063,488.3906 Q68.75,487.7969 67.9375,486.5313 Q67.125,485.2656 67.125,483.7813 L67.125,482.4219 Q67.125,480.8594 67.8438,479.5156 Q68.5781,478.1563 69.8594,477.4219 Q71.1563,476.6875 72.6094,476.6875 Q73.4688,476.6875 74.2188,476.8906 Q74.9844,477.0938 75.6406,477.5 Z " fill="#000000"/><text fill="#000000" font-family="sans-serif" font-size="20" lengthAdjust="spacing" textLength="110" x="88.5" y="490.7617">UserSession</text><line style="stroke:#181818;stroke-width:0.5;" x1="58.5" x2="200.5" y1="500.1563" y2="500.1563"/><line style="stroke:#181818;stroke-width:0.5;" x1="58.5" x2="200.5" y1="508.1563" y2="508.1563"/></g><!--class SystemUser--><g id="elem_SystemUser"><rect codeLine="25" fill="#F1F1F1" height="76.3125" id="SystemUser" rx="2.5" ry="2.5" style="stroke:#181818;stroke-width:0.5;" width="141" x="77" y="588.5"/><ellipse cx="93" cy="618.6563" fill="#ADD1B2" rx="12" ry="12" style="stroke:#181818;stroke-width:1.0;"/><path d="M95.1406,613.5781 Q95.3281,613.3281 95.5469,613.2031 Q95.7656,613.0625 96.0156,613.0625 Q96.4531,613.0625 96.7344,613.375 Q97.0156,613.6719 97.0156,614.3906 L97.0156,616.0938 Q97.0156,616.8125 96.7344,617.125 Q96.4531,617.4375 96.0156,617.4375 Q95.625,617.4375 95.375,617.2031 Q95.125,616.9844 95.0156,616.375 Q94.9531,615.9531 94.7344,615.7344 Q94.3438,615.2969 93.625,615.0313 Q92.9063,614.7656 92.1875,614.7656 Q91.2813,614.7656 90.5313,615.1563 Q89.7813,615.5469 89.2031,616.4375 Q88.625,617.3125 88.625,618.5156 L88.625,619.8125 Q88.625,621.2656 89.6719,622.2344 Q90.7344,623.2031 92.5938,623.2031 Q93.7031,623.2031 94.4844,622.8906 Q94.9219,622.7188 95.4375,622.2031 Q95.75,621.8906 95.9219,621.7969 Q96.0938,621.7031 96.3281,621.7031 Q96.7188,621.7031 97.0156,622.0156 Q97.3281,622.3125 97.3281,622.7188 Q97.3281,623.125 96.9219,623.5938 Q96.3281,624.2813 95.3906,624.6719 Q94.125,625.2031 92.6094,625.2031 Q90.8281,625.2031 89.4063,624.4688 Q88.25,623.875 87.4375,622.6094 Q86.625,621.3438 86.625,619.8594 L86.625,618.5 Q86.625,616.9375 87.3438,615.5938 Q88.0781,614.2344 89.3594,613.5 Q90.6563,612.7656 92.1094,612.7656 Q92.9688,612.7656 93.7188,612.9688 Q94.4844,613.1719 95.1406,613.5781 Z " fill="#000000"/><text fill="#000000" font-family="sans-serif" font-size="20" font-style="italic" lengthAdjust="spacing" textLength="56" x="133.5" y="614.2617">«root»</text><text fill="#000000" font-family="sans-serif" font-size="20" lengthAdjust="spacing" textLength="107" x="108" y="639.418">SystemUser</text><line style="stroke:#181818;stroke-width:0.5;" x1="78" x2="217" y1="648.8125" y2="648.8125"/><line style="stroke:#181818;stroke-width:0.5;" x1="78" x2="217" y1="656.8125" y2="656.8125"/></g><!--class UserName--><g id="elem_UserName"><rect codeLine="27" fill="#F1F1F1" height="101.4688" id="UserName" rx="2.5" ry="2.5" style="stroke:#181818;stroke-width:0.5;" width="126" x="324.5" y="576"/><ellipse cx="340.5" cy="618.7344" fill="#ADD1B2" rx="12" ry="12" style="stroke:#181818;stroke-width:1.0;"/><path d="M342.6406,613.6563 Q342.8281,613.4063 343.0469,613.2813 Q343.2656,613.1406 343.5156,613.1406 Q343.9531,613.1406 344.2344,613.4531 Q344.5156,613.75 344.5156,614.4688 L344.5156,616.1719 Q344.5156,616.8906 344.2344,617.2031 Q343.9531,617.5156 343.5156,617.5156 Q343.125,617.5156 342.875,617.2813 Q342.625,617.0625 342.5156,616.4531 Q342.4531,616.0313 342.2344,615.8125 Q341.8438,615.375 341.125,615.1094 Q340.4063,614.8438 339.6875,614.8438 Q338.7813,614.8438 338.0313,615.2344 Q337.2813,615.625 336.7031,616.5156 Q336.125,617.3906 336.125,618.5938 L336.125,619.8906 Q336.125,621.3438 337.1719,622.3125 Q338.2344,623.2813 340.0938,623.2813 Q341.2031,623.2813 341.9844,622.9688 Q342.4219,622.7969 342.9375,622.2813 Q343.25,621.9688 343.4219,621.875 Q343.5938,621.7813 343.8281,621.7813 Q344.2188,621.7813 344.5156,622.0938 Q344.8281,622.3906 344.8281,622.7969 Q344.8281,623.2031 344.4219,623.6719 Q343.8281,624.3594 342.8906,624.75 Q341.625,625.2813 340.1094,625.2813 Q338.3281,625.2813 336.9063,624.5469 Q335.75,623.9531 334.9375,622.6875 Q334.125,621.4219 334.125,619.9375 L334.125,618.5781 Q334.125,617.0156 334.8438,615.6719 Q335.5781,614.3125 336.8594,613.5781 Q338.1563,612.8438 339.6094,612.8438 Q340.4688,612.8438 341.2188,613.0469 Q341.9844,613.25 342.6406,613.6563 Z " fill="#000000"/><text fill="#000000" font-family="sans-serif" font-size="20" font-style="italic" lengthAdjust="spacing" textLength="70" x="366.5" y="601.7617">«value»</text><text fill="#000000" font-family="sans-serif" font-size="20" font-style="italic" lengthAdjust="spacing" textLength="38" x="382.5" y="626.918">«id»</text><text fill="#000000" font-family="sans-serif" font-size="20" lengthAdjust="spacing" textLength="92" x="355.5" y="652.0742">UserName</text><line style="stroke:#181818;stroke-width:0.5;" x1="325.5" x2="449.5" y1="661.4688" y2="661.4688"/><line style="stroke:#181818;stroke-width:0.5;" x1="325.5" x2="449.5" y1="669.4688" y2="669.4688"/></g><!--class Role--><g id="elem_Role"><rect codeLine="30" fill="#F1F1F1" height="101.4688" id="Role" rx="2.5" ry="2.5" style="stroke:#181818;stroke-width:0.5;" width="100" x="713.5" y="168"/><ellipse cx="729.5" cy="210.7344" fill="#ADD1B2" rx="12" ry="12" style="stroke:#181818;stroke-width:1.0;"/><path d="M731.6406,205.6563 Q731.8281,205.4063 732.0469,205.2813 Q732.2656,205.1406 732.5156,205.1406 Q732.9531,205.1406 733.2344,205.4531 Q733.5156,205.75 733.5156,206.4688 L733.5156,208.1719 Q733.5156,208.8906 733.2344,209.2031 Q732.9531,209.5156 732.5156,209.5156 Q732.125,209.5156 731.875,209.2813 Q731.625,209.0625 731.5156,208.4531 Q731.4531,208.0313 731.2344,207.8125 Q730.8438,207.375 730.125,207.1094 Q729.4063,206.8438 728.6875,206.8438 Q727.7813,206.8438 727.0313,207.2344 Q726.2813,207.625 725.7031,208.5156 Q725.125,209.3906 725.125,210.5938 L725.125,211.8906 Q725.125,213.3438 726.1719,214.3125 Q727.2344,215.2813 729.0938,215.2813 Q730.2031,215.2813 730.9844,214.9688 Q731.4219,214.7969 731.9375,214.2813 Q732.25,213.9688 732.4219,213.875 Q732.5938,213.7813 732.8281,213.7813 Q733.2188,213.7813 733.5156,214.0938 Q733.8281,214.3906 733.8281,214.7969 Q733.8281,215.2031 733.4219,215.6719 Q732.8281,216.3594 731.8906,216.75 Q730.625,217.2813 729.1094,217.2813 Q727.3281,217.2813 725.9063,216.5469 Q724.75,215.9531 723.9375,214.6875 Q723.125,213.4219 723.125,211.9375 L723.125,210.5781 Q723.125,209.0156 723.8438,207.6719 Q724.5781,206.3125 725.8594,205.5781 Q727.1563,204.8438 728.6094,204.8438 Q729.4688,204.8438 730.2188,205.0469 Q730.9844,205.25 731.6406,205.6563 Z " fill="#000000"/><text fill="#000000" font-family="sans-serif" font-size="20" font-style="italic" lengthAdjust="spacing" textLength="70" x="742.5" y="193.7617">«value»</text><text fill="#000000" font-family="sans-serif" font-size="20" font-style="italic" lengthAdjust="spacing" textLength="38" x="758.5" y="218.918">«id»</text><text fill="#000000" font-family="sans-serif" font-size="20" lengthAdjust="spacing" textLength="40" x="757.5" y="244.0742">Role</text><line style="stroke:#181818;stroke-width:0.5;" x1="714.5" x2="812.5" y1="253.4688" y2="253.4688"/><line style="stroke:#181818;stroke-width:0.5;" x1="714.5" x2="812.5" y1="261.4688" y2="261.4688"/></g><!--link AuthenticationService to AuthorizationService--><g id="link_AuthenticationService_AuthorizationService"><path codeLine="33" d="M314.01,108.07 C290.75,125.55 265.82,146.3 245.5,168 C200.02,216.55 159.25,282.14 135.18,324.26 " fill="none" id="AuthenticationService-to-AuthorizationService" style="stroke:#181818;stroke-width:1.0;stroke-dasharray:7.0,7.0;"/><polygon fill="#181818" points="132.62,328.77,140.5479,322.9263,135.093,324.4244,133.5949,318.9695,132.62,328.77" style="stroke:#181818;stroke-width:1.0;"/></g><!--link AuthenticationService to Role--><g id="link_AuthenticationService_Role"><path codeLine="34" d="M498.21,92.55 C555.66,111.82 626.23,138.05 686.5,168 C693.92,171.69 701.52,175.93 708.91,180.35 " fill="none" id="AuthenticationService-to-Role" style="stroke:#181818;stroke-width:1.0;stroke-dasharray:7.0,7.0;"/><polygon fill="#181818" points="713.48,183.12,707.8522,175.0374,709.2027,180.5307,703.7094,181.8811,713.48,183.12" style="stroke:#181818;stroke-width:1.0;"/></g><!--link AuthenticationService to PasswordPolicy--><g id="link_AuthenticationService_PasswordPolicy"><path codeLine="35" d="M474.63,108.1 C554.52,160.79 660.5,252.13 660.5,366 C660.5,366 660.5,366 660.5,491.5 C660.5,578.19 634.39,676.95 617.51,731.72 " fill="none" id="AuthenticationService-to-PasswordPolicy" style="stroke:#181818;stroke-width:1.0;stroke-dasharray:7.0,7.0;"/><polygon fill="#181818" points="616.01,736.56,622.4846,729.1384,617.4834,731.782,614.8398,726.7809,616.01,736.56" style="stroke:#181818;stroke-width:1.0;"/></g><!--link AuthenticationService to PasswordEncoder--><g id="link_AuthenticationService_PasswordEncoder"><path codeLine="36" d="M356.11,108.02 C321.75,167.06 271.5,269.86 271.5,366 C271.5,366 271.5,366 271.5,491.5 C271.5,575.4 279.22,597.66 306.5,677 C312.98,695.83 322.56,715.55 331.62,732.26 " fill="none" id="AuthenticationService-to-PasswordEncoder" style="stroke:#181818;stroke-width:1.0;stroke-dasharray:7.0,7.0;"/><polygon fill="#181818" points="334.15,736.89,333.325,727.0758,331.7437,732.5071,326.3124,730.9258,334.15,736.89" style="stroke:#181818;stroke-width:1.0;"/></g><!--link AuthenticationService to UserName--><g id="link_AuthenticationService_UserName"><path codeLine="37" d="M387.5,108.32 C387.5,214.19 387.5,460.86 387.5,570.86 " fill="none" id="AuthenticationService-to-UserName" style="stroke:#181818;stroke-width:1.0;stroke-dasharray:7.0,7.0;"/><polygon fill="#181818" points="387.5,575.99,391.5,566.99,387.5,570.99,383.5,566.99,387.5,575.99" style="stroke:#181818;stroke-width:1.0;"/></g><!--link AuthorizationService to UserSession--><g id="link_AuthorizationService_UserSession"><path codeLine="39" d="M117.69,405.11 C120.15,422.7 123.05,443.41 125.36,459.91 " fill="none" id="AuthorizationService-to-UserSession" style="stroke:#181818;stroke-width:1.0;"/><polygon fill="#181818" points="126.06,464.89,128.7891,455.4268,125.3749,459.9372,120.8645,456.523,126.06,464.89" style="stroke:#181818;stroke-width:1.0;"/></g><!--link UserSession to SystemUser--><g id="link_UserSession_SystemUser"><path codeLine="41" d="M132.8,516.08 C135.32,534.82 138.85,561.1 141.82,583.2 " fill="none" id="UserSession-to-SystemUser" style="stroke:#181818;stroke-width:1.0;"/><polygon fill="#181818" points="142.52,588.43,145.2758,578.9746,141.8489,583.4752,137.3482,580.0483,142.52,588.43" style="stroke:#181818;stroke-width:1.0;"/></g><!--link SystemUser to UserName--><g id="link_SystemUser_UserName"><path codeLine="43" d="M218.28,626.5 C251.85,626.5 285.42,626.5 318.99,626.5 " fill="none" id="SystemUser-to-UserName" style="stroke:#181818;stroke-width:1.0;"/><polygon fill="#181818" points="324.37,626.5,315.37,622.5,319.37,626.5,315.37,630.5,324.37,626.5" style="stroke:#181818;stroke-width:1.0;"/></g><!--link SystemUser to Password--><g id="link_SystemUser_Password"><path codeLine="44" d="M209.01,588.38 C270.83,555.11 368.38,516.42 450,546 C472.12,554.02 492.73,569.56 509.17,584.88 " fill="none" id="SystemUser-to-Password" style="stroke:#181818;stroke-width:1.0;"/><polygon fill="#181818" points="512.83,588.34,509.0544,579.2436,509.2029,584.8985,503.548,585.047,512.83,588.34" style="stroke:#181818;stroke-width:1.0;"/></g><!--link Password to PasswordPolicy--><g id="link_Password_PasswordPolicy"><path codeLine="46" d="M561.03,664.85 C569.03,685.42 578.99,711.01 587.25,732.24 " fill="none" id="Password-to-PasswordPolicy" style="stroke:#181818;stroke-width:1.0;stroke-dasharray:7.0,7.0;"/><polygon fill="#181818" points="589.09,736.97,589.5502,727.1319,587.275,732.3111,582.0959,730.0359,589.09,736.97" style="stroke:#181818;stroke-width:1.0;"/></g><!--link Password to PasswordEncoder--><g id="link_Password_PasswordEncoder"><path codeLine="47" d="M498.06,664.85 C470.71,685.94 436.52,712.3 408.59,733.83 " fill="none" id="Password-to-PasswordEncoder" style="stroke:#181818;stroke-width:1.0;stroke-dasharray:7.0,7.0;"/><polygon fill="#181818" points="404.52,736.97,414.0876,734.6331,408.4767,733.9132,409.1967,728.3023,404.52,736.97" style="stroke:#181818;stroke-width:1.0;"/></g><!--SRC=[ZP5DJiCm48NtSmhlMeI246ih4WjOLXKH1x3i8LXrFCXsMhM8k-EaJkgeQS0BovhtUNxU-9ssNyA9nf3SeM8AFqHhmYlPKEaJigT705Yn2jrUI_GWZV2UFRVX4stGKWHDDecCStz-bINx1XRFFHCN4jTty0DP1dBwj91WPBVnEf1JBrQIGlSNjYMZvV6Aca9HtWlJZYcI_1x_LEXzR2h5LtsCYRfsMCSX4bWTVS2cbpXtH65IfOjlH8DP5SwrclRxHkOMCE_lGr6KiyRTvCk-o88yzUmVODh10ZdCVfxYQiT5GfBB0BdbdNXn5Y1pESyy3G-j0OpBdHbjLXkcwSul]--></g></svg>