<?xml version="1.0" encoding="UTF-8" standalone="no"?><svg xmlns="http://www.w3.org/2000/svg" xmlns:xlink="http://www.w3.org/1999/xlink" contentStyleType="text/css" height="1549px" preserveAspectRatio="none" style="width:1622px;height:1549px;background:#FFFFFF;" version="1.1" viewBox="0 0 1622 1549" width="1622px" zoomAndPan="magnify"><defs/><g><rect fill="#FFFFFF" height="1350.3125" style="stroke:#181818;stroke-width:1.0;" width="10" x="23.5" y="100.1563"/><rect fill="#FFFFFF" height="1310.1563" style="stroke:#181818;stroke-width:1.0;" width="10" x="274.5" y="131.3125"/><rect fill="#FFFFFF" height="1141.5313" style="stroke:#181818;stroke-width:1.0;" width="10" x="279.5" y="253.7813"/><rect fill="#FFFFFF" height="1037.2188" style="stroke:#181818;stroke-width:1.0;" width="10" x="284.5" y="305.9375"/><rect fill="#FFFFFF" height="274.0938" style="stroke:#181818;stroke-width:1.0;" width="10" x="457" y="360.0938"/><rect fill="#FFFFFF" height="498.0313" style="stroke:#181818;stroke-width:1.0;" width="10" x="612" y="792.9688"/><rect fill="#FFFFFF" height="404.7188" style="stroke:#181818;stroke-width:1.0;" width="10" x="617" y="840.125"/><rect fill="#FFFFFF" height="300.4063" style="stroke:#181818;stroke-width:1.0;" width="10" x="622" y="892.2813"/><rect fill="#FFFFFF" height="117.4688" style="stroke:#181818;stroke-width:1.0;" width="10" x="1043.5" y="477.5625"/><rect fill="#FFFFFF" height="39.1563" style="stroke:#181818;stroke-width:1.0;" width="10" x="1300" y="516.7188"/><rect fill="#FFFFFF" height="39.1563" style="stroke:#181818;stroke-width:1.0;" width="10" x="1506" y="936.4375"/><rect fill="none" height="649.8125" style="stroke:#000000;stroke-width:1.5;" width="1418.5" x="198" y="649.1875"/><rect fill="none" height="157.9375" style="stroke:#000000;stroke-width:1.5;" width="230" x="627" y="990.5938"/><line style="stroke:#181818;stroke-width:0.5;stroke-dasharray:5.0,5.0;" x1="28" x2="28" y1="90.1563" y2="1459.4688"/><line style="stroke:#181818;stroke-width:0.5;stroke-dasharray:5.0,5.0;" x1="279" x2="279" y1="90.1563" y2="1459.4688"/><line style="stroke:#181818;stroke-width:0.5;stroke-dasharray:5.0,5.0;" x1="461.5" x2="461.5" y1="366.5938" y2="1459.4688"/><line style="stroke:#181818;stroke-width:0.5;stroke-dasharray:5.0,5.0;" x1="616.5" x2="616.5" y1="734.1563" y2="1459.4688"/><line style="stroke:#181818;stroke-width:0.5;stroke-dasharray:5.0,5.0;" x1="815.5" x2="815.5" y1="186.9688" y2="1459.4688"/><line style="stroke:#181818;stroke-width:0.5;stroke-dasharray:5.0,5.0;" x1="1048.5" x2="1048.5" y1="90.1563" y2="1459.4688"/><line style="stroke:#181818;stroke-width:0.5;stroke-dasharray:5.0,5.0;" x1="1304.5" x2="1304.5" y1="90.1563" y2="1459.4688"/><line style="stroke:#181818;stroke-width:0.5;stroke-dasharray:5.0,5.0;" x1="1510.5" x2="1510.5" y1="90.1563" y2="1459.4688"/><text fill="#000000" font-family="sans-serif" font-size="20" lengthAdjust="spacing" textLength="41" x="5" y="85.7617">User</text><ellipse cx="28.5" cy="13.5" fill="#E2E2F0" rx="8" ry="8" style="stroke:#181818;stroke-width:0.5;"/><path d="M28.5,21.5 L28.5,48.5 M15.5,29.5 L41.5,29.5 M28.5,48.5 L15.5,63.5 M28.5,48.5 L41.5,63.5 " fill="none" style="stroke:#181818;stroke-width:0.5;"/><text fill="#000000" font-family="sans-serif" font-size="20" lengthAdjust="spacing" textLength="41" x="5" y="1479.2305">User</text><ellipse cx="28.5" cy="1492.125" fill="#E2E2F0" rx="8" ry="8" style="stroke:#181818;stroke-width:0.5;"/><path d="M28.5,1500.125 L28.5,1527.125 M15.5,1508.125 L41.5,1508.125 M28.5,1527.125 L15.5,1542.125 M28.5,1527.125 L41.5,1542.125 " fill="none" style="stroke:#181818;stroke-width:0.5;"/><rect fill="#E2E2F0" height="64.3125" rx="2.5" ry="2.5" style="stroke:#181818;stroke-width:0.5;" width="143" x="208" y="24.8438"/><text fill="#000000" font-family="sans-serif" font-size="20" font-style="italic" lengthAdjust="spacing" textLength="118" x="220.5" y="52.6055">«application»</text><text fill="#000000" font-family="sans-serif" font-size="20" lengthAdjust="spacing" textLength="129" x="215" y="77.7617">BaseAplication</text><rect fill="#E2E2F0" height="64.3125" rx="2.5" ry="2.5" style="stroke:#181818;stroke-width:0.5;" width="143" x="208" y="1458.4688"/><text fill="#000000" font-family="sans-serif" font-size="20" font-style="italic" lengthAdjust="spacing" textLength="118" x="220.5" y="1486.2305">«application»</text><text fill="#000000" font-family="sans-serif" font-size="20" lengthAdjust="spacing" textLength="129" x="215" y="1511.3867">BaseAplication</text><rect fill="#E2E2F0" height="64.3125" rx="2.5" ry="2.5" style="stroke:#181818;stroke-width:0.5;" width="145" x="389.5" y="1458.4688"/><text fill="#000000" font-family="sans-serif" font-size="20" font-style="italic" lengthAdjust="spacing" textLength="131" x="396.5" y="1486.2305">«presentation»</text><text fill="#000000" font-family="sans-serif" font-size="20" lengthAdjust="spacing" textLength="66" x="429" y="1511.3867">LoginUI</text><rect fill="#E2E2F0" height="64.3125" rx="2.5" ry="2.5" style="stroke:#181818;stroke-width:0.5;" width="145" x="544.5" y="1458.4688"/><text fill="#000000" font-family="sans-serif" font-size="20" font-style="italic" lengthAdjust="spacing" textLength="131" x="551.5" y="1486.2305">«presentation»</text><text fill="#000000" font-family="sans-serif" font-size="20" lengthAdjust="spacing" textLength="90" x="572" y="1511.3867">MainMenu</text><rect fill="#E2E2F0" height="64.3125" rx="2.5" ry="2.5" style="stroke:#181818;stroke-width:0.5;" width="153" x="739.5" y="1458.4688"/><text fill="#000000" font-family="sans-serif" font-size="20" font-style="italic" lengthAdjust="spacing" textLength="139" x="746.5" y="1486.2305">«infrastructure»</text><text fill="#000000" font-family="sans-serif" font-size="20" lengthAdjust="spacing" textLength="121" x="755.5" y="1511.3867">AuthzRegistry</text><rect fill="#E2E2F0" height="64.3125" rx="2.5" ry="2.5" style="stroke:#181818;stroke-width:0.5;" width="292" x="902.5" y="24.8438"/><text fill="#000000" font-family="sans-serif" font-size="20" font-style="italic" lengthAdjust="spacing" textLength="139" x="979" y="52.6055">«infrastructure»</text><text fill="#000000" font-family="sans-serif" font-size="20" lengthAdjust="spacing" textLength="278" x="909.5" y="77.7617">AuthenticationCredentialHandler</text><rect fill="#E2E2F0" height="64.3125" rx="2.5" ry="2.5" style="stroke:#181818;stroke-width:0.5;" width="292" x="902.5" y="1458.4688"/><text fill="#000000" font-family="sans-serif" font-size="20" font-style="italic" lengthAdjust="spacing" textLength="139" x="979" y="1486.2305">«infrastructure»</text><text fill="#000000" font-family="sans-serif" font-size="20" lengthAdjust="spacing" textLength="278" x="909.5" y="1511.3867">AuthenticationCredentialHandler</text><rect fill="#E2E2F0" height="64.3125" rx="2.5" ry="2.5" style="stroke:#181818;stroke-width:0.5;" width="201" x="1204.5" y="24.8438"/><text fill="#000000" font-family="sans-serif" font-size="20" font-style="italic" lengthAdjust="spacing" textLength="86" x="1262" y="52.6055">«service»</text><text fill="#000000" font-family="sans-serif" font-size="20" lengthAdjust="spacing" textLength="187" x="1211.5" y="77.7617">AuthenticationService</text><rect fill="#E2E2F0" height="64.3125" rx="2.5" ry="2.5" style="stroke:#181818;stroke-width:0.5;" width="201" x="1204.5" y="1458.4688"/><text fill="#000000" font-family="sans-serif" font-size="20" font-style="italic" lengthAdjust="spacing" textLength="86" x="1262" y="1486.2305">«service»</text><text fill="#000000" font-family="sans-serif" font-size="20" lengthAdjust="spacing" textLength="187" x="1211.5" y="1511.3867">AuthenticationService</text><rect fill="#E2E2F0" height="64.3125" rx="2.5" ry="2.5" style="stroke:#181818;stroke-width:0.5;" width="191" x="1415.5" y="24.8438"/><text fill="#000000" font-family="sans-serif" font-size="20" font-style="italic" lengthAdjust="spacing" textLength="86" x="1468" y="52.6055">«service»</text><text fill="#000000" font-family="sans-serif" font-size="20" lengthAdjust="spacing" textLength="177" x="1422.5" y="77.7617">AuthorizationService</text><rect fill="#E2E2F0" height="64.3125" rx="2.5" ry="2.5" style="stroke:#181818;stroke-width:0.5;" width="191" x="1415.5" y="1458.4688"/><text fill="#000000" font-family="sans-serif" font-size="20" font-style="italic" lengthAdjust="spacing" textLength="86" x="1468" y="1486.2305">«service»</text><text fill="#000000" font-family="sans-serif" font-size="20" lengthAdjust="spacing" textLength="177" x="1422.5" y="1511.3867">AuthorizationService</text><rect fill="#FFFFFF" height="1350.3125" style="stroke:#181818;stroke-width:1.0;" width="10" x="23.5" y="100.1563"/><rect fill="#FFFFFF" height="1310.1563" style="stroke:#181818;stroke-width:1.0;" width="10" x="274.5" y="131.3125"/><rect fill="#FFFFFF" height="1141.5313" style="stroke:#181818;stroke-width:1.0;" width="10" x="279.5" y="253.7813"/><rect fill="#FFFFFF" height="1037.2188" style="stroke:#181818;stroke-width:1.0;" width="10" x="284.5" y="305.9375"/><rect fill="#FFFFFF" height="274.0938" style="stroke:#181818;stroke-width:1.0;" width="10" x="457" y="360.0938"/><rect fill="#FFFFFF" height="498.0313" style="stroke:#181818;stroke-width:1.0;" width="10" x="612" y="792.9688"/><rect fill="#FFFFFF" height="404.7188" style="stroke:#181818;stroke-width:1.0;" width="10" x="617" y="840.125"/><rect fill="#FFFFFF" height="300.4063" style="stroke:#181818;stroke-width:1.0;" width="10" x="622" y="892.2813"/><rect fill="#FFFFFF" height="117.4688" style="stroke:#181818;stroke-width:1.0;" width="10" x="1043.5" y="477.5625"/><rect fill="#FFFFFF" height="39.1563" style="stroke:#181818;stroke-width:1.0;" width="10" x="1300" y="516.7188"/><rect fill="#FFFFFF" height="39.1563" style="stroke:#181818;stroke-width:1.0;" width="10" x="1506" y="936.4375"/><polygon fill="#181818" points="262.5,127.3125,272.5,131.3125,262.5,135.3125,266.5,131.3125" style="stroke:#181818;stroke-width:1.0;"/><line style="stroke:#181818;stroke-width:1.0;" x1="33.5" x2="268.5" y1="131.3125" y2="131.3125"/><text fill="#000000" font-family="sans-serif" font-size="20" font-weight="bold" lengthAdjust="spacing" textLength="11" x="40.5" y="124.918">1</text><text fill="#000000" font-family="sans-serif" font-size="20" lengthAdjust="spacing" textLength="207" x="55.5" y="124.918">wants to run application</text><polygon fill="#181818" points="727.5,166.4688,737.5,170.4688,727.5,174.4688,731.5,170.4688" style="stroke:#181818;stroke-width:1.0;"/><line style="stroke:#181818;stroke-width:1.0;" x1="284.5" x2="733.5" y1="170.4688" y2="170.4688"/><text fill="#000000" font-family="sans-serif" font-size="20" font-weight="bold" lengthAdjust="spacing" textLength="11" x="291.5" y="164.0742">2</text><text fill="#000000" font-family="sans-serif" font-size="20" lengthAdjust="spacing" textLength="324" x="306.5" y="164.0742">configure(userRepo, policy, encoder)</text><rect fill="#E2E2F0" height="64.3125" rx="2.5" ry="2.5" style="stroke:#181818;stroke-width:0.5;" width="153" x="739.5" y="139.3125"/><text fill="#000000" font-family="sans-serif" font-size="20" font-style="italic" lengthAdjust="spacing" textLength="139" x="746.5" y="167.0742">«infrastructure»</text><text fill="#000000" font-family="sans-serif" font-size="20" lengthAdjust="spacing" textLength="121" x="755.5" y="192.2305">AuthzRegistry</text><line style="stroke:#181818;stroke-width:1.0;" x1="284.5" x2="331.5" y1="240.7813" y2="240.7813"/><line style="stroke:#181818;stroke-width:1.0;" x1="331.5" x2="331.5" y1="240.7813" y2="253.7813"/><line style="stroke:#181818;stroke-width:1.0;" x1="290.5" x2="331.5" y1="253.7813" y2="253.7813"/><polygon fill="#181818" points="300.5,249.7813,290.5,253.7813,300.5,257.7813,296.5,253.7813" style="stroke:#181818;stroke-width:1.0;"/><text fill="#000000" font-family="sans-serif" font-size="20" font-weight="bold" lengthAdjust="spacing" textLength="11" x="296.5" y="234.3867">3</text><text fill="#000000" font-family="sans-serif" font-size="20" lengthAdjust="spacing" textLength="41" x="311.5" y="234.3867">run()</text><line style="stroke:#181818;stroke-width:1.0;" x1="289.5" x2="336.5" y1="292.9375" y2="292.9375"/><line style="stroke:#181818;stroke-width:1.0;" x1="336.5" x2="336.5" y1="292.9375" y2="305.9375"/><line style="stroke:#181818;stroke-width:1.0;" x1="295.5" x2="336.5" y1="305.9375" y2="305.9375"/><polygon fill="#181818" points="305.5,301.9375,295.5,305.9375,305.5,309.9375,301.5,305.9375" style="stroke:#181818;stroke-width:1.0;"/><text fill="#000000" font-family="sans-serif" font-size="20" font-weight="bold" lengthAdjust="spacing" textLength="11" x="301.5" y="286.543">4</text><text fill="#000000" font-family="sans-serif" font-size="20" lengthAdjust="spacing" textLength="78" x="316.5" y="286.543">doMain()</text><polygon fill="#181818" points="377.5,346.0938,387.5,350.0938,377.5,354.0938,381.5,350.0938" style="stroke:#181818;stroke-width:1.0;"/><line style="stroke:#181818;stroke-width:1.0;" x1="294.5" x2="383.5" y1="350.0938" y2="350.0938"/><text fill="#000000" font-family="sans-serif" font-size="20" font-weight="bold" lengthAdjust="spacing" textLength="11" x="301.5" y="343.6992">5</text><text fill="#000000" font-family="sans-serif" font-size="20" lengthAdjust="spacing" textLength="56" x="316.5" y="343.6992">create</text><rect fill="#E2E2F0" height="64.3125" rx="2.5" ry="2.5" style="stroke:#181818;stroke-width:0.5;" width="145" x="389.5" y="318.9375"/><text fill="#000000" font-family="sans-serif" font-size="20" font-style="italic" lengthAdjust="spacing" textLength="131" x="396.5" y="346.6992">«presentation»</text><text fill="#000000" font-family="sans-serif" font-size="20" lengthAdjust="spacing" textLength="66" x="429" y="371.8555">LoginUI</text><line style="stroke:#181818;stroke-width:1.0;" x1="467" x2="509" y1="425.4063" y2="425.4063"/><line style="stroke:#181818;stroke-width:1.0;" x1="509" x2="509" y1="425.4063" y2="438.4063"/><line style="stroke:#181818;stroke-width:1.0;" x1="468" x2="509" y1="438.4063" y2="438.4063"/><polygon fill="#181818" points="478,434.4063,468,438.4063,478,442.4063,474,438.4063" style="stroke:#181818;stroke-width:1.0;"/><text fill="#000000" font-family="sans-serif" font-size="20" font-weight="bold" lengthAdjust="spacing" textLength="11" x="474" y="419.0117">6</text><text fill="#000000" font-family="sans-serif" font-size="20" lengthAdjust="spacing" textLength="60" x="489" y="419.0117">show()</text><polygon fill="#181818" points="1031.5,473.5625,1041.5,477.5625,1031.5,481.5625,1035.5,477.5625" style="stroke:#181818;stroke-width:1.0;"/><line style="stroke:#181818;stroke-width:1.0;" x1="467" x2="1037.5" y1="477.5625" y2="477.5625"/><text fill="#000000" font-family="sans-serif" font-size="20" font-weight="bold" lengthAdjust="spacing" textLength="11" x="474" y="471.168">7</text><text fill="#000000" font-family="sans-serif" font-size="20" lengthAdjust="spacing" textLength="131" x="489" y="471.168">authenticated()</text><polygon fill="#181818" points="1288,512.7188,1298,516.7188,1288,520.7188,1292,516.7188" style="stroke:#181818;stroke-width:1.0;"/><line style="stroke:#181818;stroke-width:1.0;" x1="1053.5" x2="1294" y1="516.7188" y2="516.7188"/><text fill="#000000" font-family="sans-serif" font-size="20" font-weight="bold" lengthAdjust="spacing" textLength="11" x="1060.5" y="510.3242">8</text><text fill="#000000" font-family="sans-serif" font-size="20" lengthAdjust="spacing" textLength="120" x="1075.5" y="510.3242">authenticate()</text><polygon fill="#181818" points="1064.5,551.875,1054.5,555.875,1064.5,559.875,1060.5,555.875" style="stroke:#181818;stroke-width:1.0;"/><line style="stroke:#181818;stroke-width:1.0;stroke-dasharray:2.0,2.0;" x1="1058.5" x2="1304" y1="555.875" y2="555.875"/><text fill="#000000" font-family="sans-serif" font-size="20" font-weight="bold" lengthAdjust="spacing" textLength="11" x="1070.5" y="549.4805">9</text><text fill="#000000" font-family="sans-serif" font-size="20" lengthAdjust="spacing" textLength="69" x="1085.5" y="549.4805">boolean</text><polygon fill="#181818" points="478,591.0313,468,595.0313,478,599.0313,474,595.0313" style="stroke:#181818;stroke-width:1.0;"/><line style="stroke:#181818;stroke-width:1.0;stroke-dasharray:2.0,2.0;" x1="472" x2="1047.5" y1="595.0313" y2="595.0313"/><text fill="#000000" font-family="sans-serif" font-size="20" font-weight="bold" lengthAdjust="spacing" textLength="22" x="484" y="588.6367">10</text><text fill="#000000" font-family="sans-serif" font-size="20" lengthAdjust="spacing" textLength="69" x="510" y="588.6367">boolean</text><polygon fill="#181818" points="305.5,630.1875,295.5,634.1875,305.5,638.1875,301.5,634.1875" style="stroke:#181818;stroke-width:1.0;"/><line style="stroke:#181818;stroke-width:1.0;stroke-dasharray:2.0,2.0;" x1="299.5" x2="461" y1="634.1875" y2="634.1875"/><text fill="#000000" font-family="sans-serif" font-size="20" font-weight="bold" lengthAdjust="spacing" textLength="22" x="311.5" y="627.793">11</text><text fill="#000000" font-family="sans-serif" font-size="20" lengthAdjust="spacing" textLength="69" x="337.5" y="627.793">boolean</text><path d="M198,649.1875 L266,649.1875 L266,666.3438 L256,676.3438 L198,676.3438 L198,649.1875 " fill="#EEEEEE" style="stroke:#000000;stroke-width:1.5;"/><rect fill="none" height="649.8125" style="stroke:#000000;stroke-width:1.5;" width="1418.5" x="198" y="649.1875"/><text fill="#000000" font-family="sans-serif" font-size="20" font-weight="bold" lengthAdjust="spacing" textLength="23" x="213" y="670.9492">alt</text><text fill="#000000" font-family="sans-serif" font-size="20" font-weight="bold" lengthAdjust="spacing" textLength="52" x="281" y="671.9492">[true]</text><polygon fill="#181818" points="532.5,713.6563,542.5,717.6563,532.5,721.6563,536.5,717.6563" style="stroke:#181818;stroke-width:1.0;"/><line style="stroke:#181818;stroke-width:1.0;" x1="294.5" x2="538.5" y1="717.6563" y2="717.6563"/><text fill="#000000" font-family="sans-serif" font-size="20" font-weight="bold" lengthAdjust="spacing" textLength="22" x="301.5" y="711.2617">12</text><text fill="#000000" font-family="sans-serif" font-size="20" lengthAdjust="spacing" textLength="56" x="327.5" y="711.2617">create</text><rect fill="#E2E2F0" height="64.3125" rx="2.5" ry="2.5" style="stroke:#181818;stroke-width:0.5;" width="145" x="544.5" y="686.5"/><text fill="#000000" font-family="sans-serif" font-size="20" font-style="italic" lengthAdjust="spacing" textLength="131" x="551.5" y="714.2617">«presentation»</text><text fill="#000000" font-family="sans-serif" font-size="20" lengthAdjust="spacing" textLength="90" x="572" y="739.418">MainMenu</text><polygon fill="#181818" points="600,788.9688,610,792.9688,600,796.9688,604,792.9688" style="stroke:#181818;stroke-width:1.0;"/><line style="stroke:#181818;stroke-width:1.0;" x1="294.5" x2="606" y1="792.9688" y2="792.9688"/><text fill="#000000" font-family="sans-serif" font-size="20" font-weight="bold" lengthAdjust="spacing" textLength="22" x="301.5" y="786.5742">13</text><text fill="#000000" font-family="sans-serif" font-size="20" lengthAdjust="spacing" textLength="99" x="327.5" y="786.5742">mainLoop()</text><line style="stroke:#181818;stroke-width:1.0;" x1="622" x2="669" y1="827.125" y2="827.125"/><line style="stroke:#181818;stroke-width:1.0;" x1="669" x2="669" y1="827.125" y2="840.125"/><line style="stroke:#181818;stroke-width:1.0;" x1="628" x2="669" y1="840.125" y2="840.125"/><polygon fill="#181818" points="638,836.125,628,840.125,638,844.125,634,840.125" style="stroke:#181818;stroke-width:1.0;"/><text fill="#000000" font-family="sans-serif" font-size="20" font-weight="bold" lengthAdjust="spacing" textLength="22" x="634" y="820.7305">14</text><text fill="#000000" font-family="sans-serif" font-size="20" lengthAdjust="spacing" textLength="85" x="660" y="820.7305">doShow()</text><line style="stroke:#181818;stroke-width:1.0;" x1="627" x2="674" y1="879.2813" y2="879.2813"/><line style="stroke:#181818;stroke-width:1.0;" x1="674" x2="674" y1="879.2813" y2="892.2813"/><line style="stroke:#181818;stroke-width:1.0;" x1="633" x2="674" y1="892.2813" y2="892.2813"/><polygon fill="#181818" points="643,888.2813,633,892.2813,643,896.2813,639,892.2813" style="stroke:#181818;stroke-width:1.0;"/><text fill="#000000" font-family="sans-serif" font-size="20" font-weight="bold" lengthAdjust="spacing" textLength="22" x="639" y="872.8867">15</text><text fill="#000000" font-family="sans-serif" font-size="20" lengthAdjust="spacing" textLength="144" x="665" y="872.8867">buildMainMenu()</text><polygon fill="#181818" points="1494,932.4375,1504,936.4375,1494,940.4375,1498,936.4375" style="stroke:#181818;stroke-width:1.0;"/><line style="stroke:#181818;stroke-width:1.0;" x1="632" x2="1500" y1="936.4375" y2="936.4375"/><text fill="#000000" font-family="sans-serif" font-size="20" font-weight="bold" lengthAdjust="spacing" textLength="22" x="639" y="930.043">16</text><text fill="#000000" font-family="sans-serif" font-size="20" lengthAdjust="spacing" textLength="346" x="665" y="930.043">isAuthenticatedUserAuthorizedTo(roles)</text><polygon fill="#181818" points="643,971.5938,633,975.5938,643,979.5938,639,975.5938" style="stroke:#181818;stroke-width:1.0;"/><line style="stroke:#181818;stroke-width:1.0;stroke-dasharray:2.0,2.0;" x1="637" x2="1510" y1="975.5938" y2="975.5938"/><text fill="#000000" font-family="sans-serif" font-size="20" font-weight="bold" lengthAdjust="spacing" textLength="22" x="649" y="969.1992">17</text><text fill="#000000" font-family="sans-serif" font-size="20" lengthAdjust="spacing" textLength="69" x="675" y="969.1992">boolean</text><path d="M627,990.5938 L695,990.5938 L695,1007.75 L685,1017.75 L627,1017.75 L627,990.5938 " fill="#EEEEEE" style="stroke:#000000;stroke-width:1.5;"/><rect fill="none" height="157.9375" style="stroke:#000000;stroke-width:1.5;" width="230" x="627" y="990.5938"/><text fill="#000000" font-family="sans-serif" font-size="20" font-weight="bold" lengthAdjust="spacing" textLength="23" x="642" y="1012.3555">alt</text><text fill="#000000" font-family="sans-serif" font-size="20" font-weight="bold" lengthAdjust="spacing" textLength="52" x="710" y="1013.3555">[true]</text><path d="M637,1032.9063 L637,1142.9063 L847,1142.9063 L847,1042.9063 L837,1032.9063 L637,1032.9063 " fill="#FEFFDD" style="stroke:#181818;stroke-width:0.5;"/><path d="M837,1032.9063 L837,1042.9063 L847,1042.9063 L837,1032.9063 " fill="#FEFFDD" style="stroke:#181818;stroke-width:0.5;"/><text fill="#000000" font-family="sans-serif" font-size="20" lengthAdjust="spacing" textLength="136" x="643" y="1058.668">the menu of the</text><text fill="#000000" font-family="sans-serif" font-size="20" lengthAdjust="spacing" textLength="126" x="643" y="1083.8242">application will</text><text fill="#000000" font-family="sans-serif" font-size="20" lengthAdjust="spacing" textLength="157" x="643" y="1108.9805">present according</text><text fill="#000000" font-family="sans-serif" font-size="20" lengthAdjust="spacing" textLength="189" x="643" y="1134.1367">to the role of the user</text><line style="stroke:#181818;stroke-width:1.0;stroke-dasharray:2.0,2.0;" x1="632" x2="674" y1="1191.6875" y2="1191.6875"/><line style="stroke:#181818;stroke-width:1.0;stroke-dasharray:2.0,2.0;" x1="674" x2="674" y1="1191.6875" y2="1204.6875"/><line style="stroke:#181818;stroke-width:1.0;stroke-dasharray:2.0,2.0;" x1="627" x2="674" y1="1204.6875" y2="1204.6875"/><polygon fill="#181818" points="637,1200.6875,627,1204.6875,637,1208.6875,633,1204.6875" style="stroke:#181818;stroke-width:1.0;"/><text fill="#000000" font-family="sans-serif" font-size="20" font-weight="bold" lengthAdjust="spacing" textLength="22" x="639" y="1185.293">18</text><text fill="#000000" font-family="sans-serif" font-size="20" lengthAdjust="spacing" textLength="6" x="665" y="1185.293"> </text><line style="stroke:#181818;stroke-width:1.0;stroke-dasharray:2.0,2.0;" x1="627" x2="669" y1="1243.8438" y2="1243.8438"/><line style="stroke:#181818;stroke-width:1.0;stroke-dasharray:2.0,2.0;" x1="669" x2="669" y1="1243.8438" y2="1256.8438"/><line style="stroke:#181818;stroke-width:1.0;stroke-dasharray:2.0,2.0;" x1="622" x2="669" y1="1256.8438" y2="1256.8438"/><polygon fill="#181818" points="632,1252.8438,622,1256.8438,632,1260.8438,628,1256.8438" style="stroke:#181818;stroke-width:1.0;"/><text fill="#000000" font-family="sans-serif" font-size="20" font-weight="bold" lengthAdjust="spacing" textLength="22" x="634" y="1237.4492">19</text><text fill="#000000" font-family="sans-serif" font-size="20" lengthAdjust="spacing" textLength="6" x="660" y="1237.4492"> </text><polygon fill="#181818" points="305.5,1287,295.5,1291,305.5,1295,301.5,1291" style="stroke:#181818;stroke-width:1.0;"/><line style="stroke:#181818;stroke-width:1.0;stroke-dasharray:2.0,2.0;" x1="299.5" x2="616" y1="1291" y2="1291"/><text fill="#000000" font-family="sans-serif" font-size="20" font-weight="bold" lengthAdjust="spacing" textLength="22" x="311.5" y="1284.6055">20</text><text fill="#000000" font-family="sans-serif" font-size="20" lengthAdjust="spacing" textLength="6" x="337.5" y="1284.6055"> </text><line style="stroke:#181818;stroke-width:1.0;stroke-dasharray:2.0,2.0;" x1="294.5" x2="336.5" y1="1342.1563" y2="1342.1563"/><line style="stroke:#181818;stroke-width:1.0;stroke-dasharray:2.0,2.0;" x1="336.5" x2="336.5" y1="1342.1563" y2="1355.1563"/><line style="stroke:#181818;stroke-width:1.0;stroke-dasharray:2.0,2.0;" x1="289.5" x2="336.5" y1="1355.1563" y2="1355.1563"/><polygon fill="#181818" points="299.5,1351.1563,289.5,1355.1563,299.5,1359.1563,295.5,1355.1563" style="stroke:#181818;stroke-width:1.0;"/><text fill="#000000" font-family="sans-serif" font-size="20" font-weight="bold" lengthAdjust="spacing" textLength="22" x="301.5" y="1335.7617">21</text><text fill="#000000" font-family="sans-serif" font-size="20" lengthAdjust="spacing" textLength="6" x="327.5" y="1335.7617"> </text><line style="stroke:#181818;stroke-width:1.0;stroke-dasharray:2.0,2.0;" x1="289.5" x2="331.5" y1="1394.3125" y2="1394.3125"/><line style="stroke:#181818;stroke-width:1.0;stroke-dasharray:2.0,2.0;" x1="331.5" x2="331.5" y1="1394.3125" y2="1407.3125"/><line style="stroke:#181818;stroke-width:1.0;stroke-dasharray:2.0,2.0;" x1="284.5" x2="331.5" y1="1407.3125" y2="1407.3125"/><polygon fill="#181818" points="294.5,1403.3125,284.5,1407.3125,294.5,1411.3125,290.5,1407.3125" style="stroke:#181818;stroke-width:1.0;"/><text fill="#000000" font-family="sans-serif" font-size="20" font-weight="bold" lengthAdjust="spacing" textLength="22" x="296.5" y="1387.918">22</text><text fill="#000000" font-family="sans-serif" font-size="20" lengthAdjust="spacing" textLength="6" x="322.5" y="1387.918"> </text><polygon fill="#181818" points="44.5,1437.4688,34.5,1441.4688,44.5,1445.4688,40.5,1441.4688" style="stroke:#181818;stroke-width:1.0;"/><line style="stroke:#181818;stroke-width:1.0;stroke-dasharray:2.0,2.0;" x1="38.5" x2="278.5" y1="1441.4688" y2="1441.4688"/><text fill="#000000" font-family="sans-serif" font-size="20" font-weight="bold" lengthAdjust="spacing" textLength="22" x="50.5" y="1435.0742">23</text><text fill="#000000" font-family="sans-serif" font-size="20" lengthAdjust="spacing" textLength="6" x="76.5" y="1435.0742"> </text><!--SRC=[bLJDRk8m4BxxAKQSA2hIQezHXHIgNRKIkOJb0KmyWDLWHuvJr3pzZXqds41NsfmIVp-U-SPE-o5Lmmq_rxhwG0423xohxM-jx5Rs23z_CDvPhRhp7WtZbTK6PhiMpGnu2xljhv8nqbjPoOOh2xCrRp5lQbbnAxNoh7KEBo-ycHPNAmRq9BADFagrU_VypUwT18t15fNzLb5mgGfKdPSKnRqYOUUTFVKb7cLhpPUNv2L9f3eOJajTPJk3ZqHa6Cf-DIZS5w_Vk19rY21_VVjFdosQJrcXLrEs9vAtmz8ZdJQoVoZh4nrpiv6VtE8m51UNUu7bokMVmOKSMx0QJASW6iPLjywPbn7TgV9oiSYWqkeWZzJJlAFDIcpqCpIQn5_FWAhI0iqJOm8dbxoSNFpMcTjm_fHiC-015jfDyeOHMRZJi5XG1vL1Ggyq0ZpD4G8lW_QaB-GLhTE0CXzOc02AU2z2FTcDaSYEbx9ZibltR3-svMY-rxf6hk8K9gRtdQfxm1mB8C8o9FA0vNfblBP0HmpZT8h2Jsc89bxEu4onRhHkGXoJLr7uRxeodaXbqGosrzpkYS5mtybQZDVkN-JXU6OWsppEtVqsnYEDue-U6-gplV7nsYdateVdDm-XEEGcw7u8P8e7mgCq4OmydYpemrZW-51TSAO-74Jl2HPT3xZ8kax0y9UXYYjjX5J7r5PxPzTPS0PtSHAEUr09NnyB7snYkBaCFKzBKR_K1OiuaB5xGa3fAB4KyFimvew8nsFONRflWH4P_lSf-1S0]--></g></svg>