<?xml version="1.0" encoding="UTF-8" standalone="no"?><svg xmlns="http://www.w3.org/2000/svg" xmlns:xlink="http://www.w3.org/1999/xlink" contentStyleType="text/css" height="980px" preserveAspectRatio="none" style="width:2182px;height:980px;background:#FFFFFF;" version="1.1" viewBox="0 0 2182 980" width="2182px" zoomAndPan="magnify"><defs/><g><!--cluster <<aggregate>> Requirement Specification--><g id="cluster_&lt;&lt;aggregate&gt;&gt; Requirement Specification"><path d="M1790.5,640.8945 L2162.5,640.8945 A3.75,3.75 0 0 1 2165,643.3945 L2172,672.0508 L2172.5,672.0508 A2.5,2.5 0 0 1 2175,674.5508 L2175,971.3945 A2.5,2.5 0 0 1 2172.5,973.8945 L1790.5,973.8945 A2.5,2.5 0 0 1 1788,971.3945 L1788,643.3945 A2.5,2.5 0 0 1 1790.5,640.8945 " fill="none" style="stroke:#000000;stroke-width:1.5;"/><line style="stroke:#000000;stroke-width:1.5;" x1="1788" x2="2172" y1="672.0508" y2="672.0508"/><text fill="#000000" font-family="sans-serif" font-size="20" font-weight="bold" lengthAdjust="spacing" textLength="371" x="1792" y="663.6563">«aggregate» Requirement Specification</text></g><!--cluster <<aggregate>> Job Opening--><g id="cluster_&lt;&lt;aggregate&gt;&gt; Job Opening"><path d="M602.5,428.8945 L847.5,428.8945 A3.75,3.75 0 0 1 850,431.3945 L857,460.0508 L1761.5,460.0508 A2.5,2.5 0 0 1 1764,462.5508 L1764,971.3945 A2.5,2.5 0 0 1 1761.5,973.8945 L602.5,973.8945 A2.5,2.5 0 0 1 600,971.3945 L600,431.3945 A2.5,2.5 0 0 1 602.5,428.8945 " fill="none" style="stroke:#000000;stroke-width:1.5;"/><line style="stroke:#000000;stroke-width:1.5;" x1="600" x2="857" y1="460.0508" y2="460.0508"/><text fill="#000000" font-family="sans-serif" font-size="20" font-weight="bold" lengthAdjust="spacing" textLength="244" x="604" y="451.6563">«aggregate» Job Opening</text></g><!--cluster <<aggregate>> Customer Manager--><g id="cluster_&lt;&lt;aggregate&gt;&gt; Customer Manager"><path d="M963.5,6.8945 L1267.5,6.8945 A3.75,3.75 0 0 1 1270,9.3945 L1277,38.0508 L1277.5,38.0508 A2.5,2.5 0 0 1 1280,40.5508 L1280,157.3945 A2.5,2.5 0 0 1 1277.5,159.8945 L963.5,159.8945 A2.5,2.5 0 0 1 961,157.3945 L961,9.3945 A2.5,2.5 0 0 1 963.5,6.8945 " fill="none" style="stroke:#000000;stroke-width:1.5;"/><line style="stroke:#000000;stroke-width:1.5;" x1="961" x2="1277" y1="38.0508" y2="38.0508"/><text fill="#000000" font-family="sans-serif" font-size="20" font-weight="bold" lengthAdjust="spacing" textLength="303" x="965" y="29.6563">«aggregate» Customer Manager</text></g><!--cluster <<aggregate>> Entity--><g id="cluster_&lt;&lt;aggregate&gt;&gt; Entity"><path d="M8.5,218.8945 L187.5,218.8945 A3.75,3.75 0 0 1 190,221.3945 L197,250.0508 L404.5,250.0508 A2.5,2.5 0 0 1 407,252.5508 L407,579.3945 A2.5,2.5 0 0 1 404.5,581.8945 L8.5,581.8945 A2.5,2.5 0 0 1 6,579.3945 L6,221.3945 A2.5,2.5 0 0 1 8.5,218.8945 " fill="none" style="stroke:#000000;stroke-width:1.5;"/><line style="stroke:#000000;stroke-width:1.5;" x1="6" x2="197" y1="250.0508" y2="250.0508"/><text fill="#000000" font-family="sans-serif" font-size="20" font-weight="bold" lengthAdjust="spacing" textLength="178" x="10" y="241.6563">«aggregate» Entity</text></g><!--cluster <<aggregate>> Customer--><g id="cluster_&lt;&lt;aggregate&gt;&gt; Customer"><path d="M228.5,6.8945 L444.5,6.8945 A3.75,3.75 0 0 1 447,9.3945 L454,38.0508 L454.5,38.0508 A2.5,2.5 0 0 1 457,40.5508 L457,157.3945 A2.5,2.5 0 0 1 454.5,159.8945 L228.5,159.8945 A2.5,2.5 0 0 1 226,157.3945 L226,9.3945 A2.5,2.5 0 0 1 228.5,6.8945 " fill="none" style="stroke:#000000;stroke-width:1.5;"/><line style="stroke:#000000;stroke-width:1.5;" x1="226" x2="454" y1="38.0508" y2="38.0508"/><text fill="#000000" font-family="sans-serif" font-size="20" font-weight="bold" lengthAdjust="spacing" textLength="215" x="230" y="29.6563">«aggregate» Customer</text></g><!--class RequirementSpecification--><g id="elem_RequirementSpecification"><rect codeLine="13" fill="#F5F5DC" height="93.4688" id="RequirementSpecification" rx="2.5" ry="2.5" style="stroke:#181818;stroke-width:0.5;" width="256" x="1804" y="684.8945"/><ellipse cx="1820" cy="727.6289" fill="#ADD1B2" rx="12" ry="12" style="stroke:#181818;stroke-width:1.0;"/><path d="M1817.9531,728.6914 L1817.9531,731.6289 L1823.0469,731.6289 L1823.0469,730.5352 Q1823.0469,729.8164 1823.3281,729.5195 Q1823.6094,729.207 1824.0625,729.207 Q1824.5,729.207 1824.7813,729.5195 Q1825.0625,729.8164 1825.0625,730.5352 L1825.0625,733.6289 L1815.625,733.6289 Q1814.9063,733.6289 1814.5938,733.3477 Q1814.2969,733.0664 1814.2969,732.6289 Q1814.2969,732.1758 1814.6094,731.9102 Q1814.9219,731.6289 1815.625,731.6289 L1815.9375,731.6289 L1815.9375,723.8008 L1815.625,723.8008 Q1814.9063,723.8008 1814.5938,723.5195 Q1814.2969,723.2383 1814.2969,722.7852 Q1814.2969,722.332 1814.5938,722.0664 Q1814.9063,721.7852 1815.625,721.7852 L1824.6094,721.7852 L1824.6094,724.832 Q1824.6094,725.5508 1824.3281,725.8633 Q1824.0625,726.1602 1823.625,726.1602 Q1823.1719,726.1602 1822.8906,725.8633 Q1822.6094,725.5664 1822.6094,724.832 L1822.6094,723.8008 L1817.9531,723.8008 L1817.9531,726.6914 L1819.7031,726.6914 Q1819.7031,725.9102 1819.8438,725.6758 Q1820.1563,725.207 1820.7031,725.207 Q1821.1563,725.207 1821.4219,725.5195 Q1821.7031,725.8164 1821.7031,726.5352 L1821.7031,728.8477 Q1821.7031,729.5039 1821.5469,729.7227 Q1821.2344,730.1758 1820.7031,730.1758 Q1820.1563,730.1758 1819.8438,729.707 Q1819.7031,729.4727 1819.7031,728.6914 L1817.9531,728.6914 Z " fill="#000000"/><text fill="#000000" font-family="sans-serif" font-size="20" font-style="italic" lengthAdjust="spacing" textLength="69" x="1911.5" y="710.6563">«entity»</text><text fill="#000000" font-family="sans-serif" font-size="20" font-style="italic" lengthAdjust="spacing" textLength="56" x="1918" y="735.8125">«root»</text><text fill="#000000" font-family="sans-serif" font-size="20" lengthAdjust="spacing" textLength="222" x="1835" y="760.9688">RequirementSpecification</text><line style="stroke:#181818;stroke-width:0.5;" x1="1805" x2="2059" y1="770.3633" y2="770.3633"/></g><!--class RequirementName--><g id="elem_RequirementName"><rect codeLine="14" fill="#F5F5DC" height="93.4688" id="RequirementName" rx="2.5" ry="2.5" style="stroke:#181818;stroke-width:0.5;" width="196" x="1834" y="864.8945"/><ellipse cx="1850" cy="907.6289" fill="#FF8B40" rx="12" ry="12" style="stroke:#181818;stroke-width:1.0;"/><path d="M1850.5,911.707 L1853.3906,904.8008 L1852.9375,904.8008 Q1852.2188,904.8008 1851.9063,904.5195 Q1851.5938,904.2383 1851.5938,903.7852 Q1851.5938,903.332 1851.9063,903.0664 Q1852.2188,902.7852 1852.9375,902.7852 L1855.625,902.7852 Q1856.3438,902.7852 1856.6563,903.0664 Q1856.9688,903.332 1856.9688,903.7852 Q1856.9688,904.332 1856.5,904.6445 Q1856.2656,904.8008 1855.5781,904.8008 L1851.4688,914.6289 L1849.5469,914.6289 L1845.4375,904.8008 Q1844.7344,904.8008 1844.5156,904.6445 Q1844.0469,904.332 1844.0469,903.7852 Q1844.0469,903.332 1844.3594,903.0664 Q1844.6563,902.7852 1845.375,902.7852 L1848.0781,902.7852 Q1848.7969,902.7852 1849.0938,903.0664 Q1849.4063,903.332 1849.4063,903.7852 Q1849.4063,904.2383 1849.1094,904.5195 Q1848.8125,904.8008 1848.0781,904.8008 L1847.6094,904.8008 L1850.5,911.707 Z " fill="#000000"/><text fill="#000000" font-family="sans-serif" font-size="20" font-style="italic" lengthAdjust="spacing" textLength="128" x="1882" y="890.6563">«value object»</text><text fill="#000000" font-family="sans-serif" font-size="20" font-style="italic" lengthAdjust="spacing" textLength="99" x="1896.5" y="915.8125">«identifier»</text><text fill="#000000" font-family="sans-serif" font-size="20" lengthAdjust="spacing" textLength="162" x="1865" y="940.9688">RequirementName</text><line style="stroke:#181818;stroke-width:0.5;" x1="1835" x2="2029" y1="950.3633" y2="950.3633"/></g><!--class JobOpening--><g id="elem_JobOpening"><rect codeLine="19" fill="#F5F5DC" height="93.4688" id="JobOpening" rx="2.5" ry="2.5" style="stroke:#181818;stroke-width:0.5;" width="139" x="1050.5" y="472.8945"/><ellipse cx="1066.5" cy="515.6289" fill="#ADD1B2" rx="12" ry="12" style="stroke:#181818;stroke-width:1.0;"/><path d="M1064.4531,516.6914 L1064.4531,519.6289 L1069.5469,519.6289 L1069.5469,518.5352 Q1069.5469,517.8164 1069.8281,517.5195 Q1070.1094,517.207 1070.5625,517.207 Q1071,517.207 1071.2813,517.5195 Q1071.5625,517.8164 1071.5625,518.5352 L1071.5625,521.6289 L1062.125,521.6289 Q1061.4063,521.6289 1061.0938,521.3477 Q1060.7969,521.0664 1060.7969,520.6289 Q1060.7969,520.1758 1061.1094,519.9102 Q1061.4219,519.6289 1062.125,519.6289 L1062.4375,519.6289 L1062.4375,511.8008 L1062.125,511.8008 Q1061.4063,511.8008 1061.0938,511.5195 Q1060.7969,511.2383 1060.7969,510.7852 Q1060.7969,510.332 1061.0938,510.0664 Q1061.4063,509.7852 1062.125,509.7852 L1071.1094,509.7852 L1071.1094,512.832 Q1071.1094,513.5508 1070.8281,513.8633 Q1070.5625,514.1602 1070.125,514.1602 Q1069.6719,514.1602 1069.3906,513.8633 Q1069.1094,513.5664 1069.1094,512.832 L1069.1094,511.8008 L1064.4531,511.8008 L1064.4531,514.6914 L1066.2031,514.6914 Q1066.2031,513.9102 1066.3438,513.6758 Q1066.6563,513.207 1067.2031,513.207 Q1067.6563,513.207 1067.9219,513.5195 Q1068.2031,513.8164 1068.2031,514.5352 L1068.2031,516.8477 Q1068.2031,517.5039 1068.0469,517.7227 Q1067.7344,518.1758 1067.2031,518.1758 Q1066.6563,518.1758 1066.3438,517.707 Q1066.2031,517.4727 1066.2031,516.6914 L1064.4531,516.6914 Z " fill="#000000"/><text fill="#000000" font-family="sans-serif" font-size="20" font-style="italic" lengthAdjust="spacing" textLength="69" x="1099.5" y="498.6563">«entity»</text><text fill="#000000" font-family="sans-serif" font-size="20" font-style="italic" lengthAdjust="spacing" textLength="56" x="1106" y="523.8125">«root»</text><text fill="#000000" font-family="sans-serif" font-size="20" lengthAdjust="spacing" textLength="105" x="1081.5" y="548.9688">JobOpening</text><line style="stroke:#181818;stroke-width:0.5;" x1="1051.5" x2="1188.5" y1="558.3633" y2="558.3633"/></g><!--class JobFunction--><g id="elem_JobFunction"><rect codeLine="20" fill="#F5F5DC" height="68.3125" id="JobFunction" rx="2.5" ry="2.5" style="stroke:#181818;stroke-width:0.5;" width="158" x="616" y="697.3945"/><ellipse cx="632" cy="727.5508" fill="#FF8B40" rx="12" ry="12" style="stroke:#181818;stroke-width:1.0;"/><path d="M632.5,731.6289 L635.3906,724.7227 L634.9375,724.7227 Q634.2188,724.7227 633.9063,724.4414 Q633.5938,724.1602 633.5938,723.707 Q633.5938,723.2539 633.9063,722.9883 Q634.2188,722.707 634.9375,722.707 L637.625,722.707 Q638.3438,722.707 638.6563,722.9883 Q638.9688,723.2539 638.9688,723.707 Q638.9688,724.2539 638.5,724.5664 Q638.2656,724.7227 637.5781,724.7227 L633.4688,734.5508 L631.5469,734.5508 L627.4375,724.7227 Q626.7344,724.7227 626.5156,724.5664 Q626.0469,724.2539 626.0469,723.707 Q626.0469,723.2539 626.3594,722.9883 Q626.6563,722.707 627.375,722.707 L630.0781,722.707 Q630.7969,722.707 631.0938,722.9883 Q631.4063,723.2539 631.4063,723.707 Q631.4063,724.1602 631.1094,724.4414 Q630.8125,724.7227 630.0781,724.7227 L629.6094,724.7227 L632.5,731.6289 Z " fill="#000000"/><text fill="#000000" font-family="sans-serif" font-size="20" font-style="italic" lengthAdjust="spacing" textLength="128" x="645" y="723.1563">«value object»</text><text fill="#000000" font-family="sans-serif" font-size="20" lengthAdjust="spacing" textLength="105" x="656.5" y="748.3125">JobFunction</text><line style="stroke:#181818;stroke-width:0.5;" x1="617" x2="773" y1="757.707" y2="757.707"/></g><!--class ContractType--><g id="elem_ContractType"><rect codeLine="21" fill="#F5F5DC" height="68.3125" id="ContractType" rx="2.5" ry="2.5" style="stroke:#181818;stroke-width:0.5;" width="158" x="765" y="877.3945"/><ellipse cx="781" cy="907.5508" fill="#FF8B40" rx="12" ry="12" style="stroke:#181818;stroke-width:1.0;"/><path d="M781.5,911.6289 L784.3906,904.7227 L783.9375,904.7227 Q783.2188,904.7227 782.9063,904.4414 Q782.5938,904.1602 782.5938,903.707 Q782.5938,903.2539 782.9063,902.9883 Q783.2188,902.707 783.9375,902.707 L786.625,902.707 Q787.3438,902.707 787.6563,902.9883 Q787.9688,903.2539 787.9688,903.707 Q787.9688,904.2539 787.5,904.5664 Q787.2656,904.7227 786.5781,904.7227 L782.4688,914.5508 L780.5469,914.5508 L776.4375,904.7227 Q775.7344,904.7227 775.5156,904.5664 Q775.0469,904.2539 775.0469,903.707 Q775.0469,903.2539 775.3594,902.9883 Q775.6563,902.707 776.375,902.707 L779.0781,902.707 Q779.7969,902.707 780.0938,902.9883 Q780.4063,903.2539 780.4063,903.707 Q780.4063,904.1602 780.1094,904.4414 Q779.8125,904.7227 779.0781,904.7227 L778.6094,904.7227 L781.5,911.6289 Z " fill="#000000"/><text fill="#000000" font-family="sans-serif" font-size="20" font-style="italic" lengthAdjust="spacing" textLength="128" x="794" y="903.1563">«value object»</text><text fill="#000000" font-family="sans-serif" font-size="20" lengthAdjust="spacing" textLength="119" x="798.5" y="928.3125">ContractType</text><line style="stroke:#181818;stroke-width:0.5;" x1="766" x2="922" y1="937.707" y2="937.707"/></g><!--class Mode--><g id="elem_Mode"><rect codeLine="22" fill="#F5F5DC" height="68.3125" id="Mode" rx="2.5" ry="2.5" style="stroke:#181818;stroke-width:0.5;" width="158" x="951" y="697.3945"/><ellipse cx="967" cy="727.5508" fill="#FF8B40" rx="12" ry="12" style="stroke:#181818;stroke-width:1.0;"/><path d="M967.5,731.6289 L970.3906,724.7227 L969.9375,724.7227 Q969.2188,724.7227 968.9063,724.4414 Q968.5938,724.1602 968.5938,723.707 Q968.5938,723.2539 968.9063,722.9883 Q969.2188,722.707 969.9375,722.707 L972.625,722.707 Q973.3438,722.707 973.6563,722.9883 Q973.9688,723.2539 973.9688,723.707 Q973.9688,724.2539 973.5,724.5664 Q973.2656,724.7227 972.5781,724.7227 L968.4688,734.5508 L966.5469,734.5508 L962.4375,724.7227 Q961.7344,724.7227 961.5156,724.5664 Q961.0469,724.2539 961.0469,723.707 Q961.0469,723.2539 961.3594,722.9883 Q961.6563,722.707 962.375,722.707 L965.0781,722.707 Q965.7969,722.707 966.0938,722.9883 Q966.4063,723.2539 966.4063,723.707 Q966.4063,724.1602 966.1094,724.4414 Q965.8125,724.7227 965.0781,724.7227 L964.6094,724.7227 L967.5,731.6289 Z " fill="#000000"/><text fill="#000000" font-family="sans-serif" font-size="20" font-style="italic" lengthAdjust="spacing" textLength="128" x="980" y="723.1563">«value object»</text><text fill="#000000" font-family="sans-serif" font-size="20" lengthAdjust="spacing" textLength="50" x="1019" y="748.3125">Mode</text><line style="stroke:#181818;stroke-width:0.5;" x1="952" x2="1108" y1="757.707" y2="757.707"/></g><!--class NumberVacancy--><g id="elem_NumberVacancy"><rect codeLine="23" fill="#F5F5DC" height="68.3125" id="NumberVacancy" rx="2.5" ry="2.5" style="stroke:#181818;stroke-width:0.5;" width="177" x="1144.5" y="697.3945"/><ellipse cx="1160.5" cy="727.5508" fill="#FF8B40" rx="12" ry="12" style="stroke:#181818;stroke-width:1.0;"/><path d="M1161,731.6289 L1163.8906,724.7227 L1163.4375,724.7227 Q1162.7188,724.7227 1162.4063,724.4414 Q1162.0938,724.1602 1162.0938,723.707 Q1162.0938,723.2539 1162.4063,722.9883 Q1162.7188,722.707 1163.4375,722.707 L1166.125,722.707 Q1166.8438,722.707 1167.1563,722.9883 Q1167.4688,723.2539 1167.4688,723.707 Q1167.4688,724.2539 1167,724.5664 Q1166.7656,724.7227 1166.0781,724.7227 L1161.9688,734.5508 L1160.0469,734.5508 L1155.9375,724.7227 Q1155.2344,724.7227 1155.0156,724.5664 Q1154.5469,724.2539 1154.5469,723.707 Q1154.5469,723.2539 1154.8594,722.9883 Q1155.1563,722.707 1155.875,722.707 L1158.5781,722.707 Q1159.2969,722.707 1159.5938,722.9883 Q1159.9063,723.2539 1159.9063,723.707 Q1159.9063,724.1602 1159.6094,724.4414 Q1159.3125,724.7227 1158.5781,724.7227 L1158.1094,724.7227 L1161,731.6289 Z " fill="#000000"/><text fill="#000000" font-family="sans-serif" font-size="20" font-style="italic" lengthAdjust="spacing" textLength="128" x="1183" y="723.1563">«value object»</text><text fill="#000000" font-family="sans-serif" font-size="20" lengthAdjust="spacing" textLength="143" x="1175.5" y="748.3125">NumberVacancy</text><line style="stroke:#181818;stroke-width:0.5;" x1="1145.5" x2="1320.5" y1="757.707" y2="757.707"/></g><!--class Description--><g id="elem_Description"><rect codeLine="24" fill="#F5F5DC" height="68.3125" id="Description" rx="2.5" ry="2.5" style="stroke:#181818;stroke-width:0.5;" width="158" x="1204" y="877.3945"/><ellipse cx="1220" cy="907.5508" fill="#FF8B40" rx="12" ry="12" style="stroke:#181818;stroke-width:1.0;"/><path d="M1220.5,911.6289 L1223.3906,904.7227 L1222.9375,904.7227 Q1222.2188,904.7227 1221.9063,904.4414 Q1221.5938,904.1602 1221.5938,903.707 Q1221.5938,903.2539 1221.9063,902.9883 Q1222.2188,902.707 1222.9375,902.707 L1225.625,902.707 Q1226.3438,902.707 1226.6563,902.9883 Q1226.9688,903.2539 1226.9688,903.707 Q1226.9688,904.2539 1226.5,904.5664 Q1226.2656,904.7227 1225.5781,904.7227 L1221.4688,914.5508 L1219.5469,914.5508 L1215.4375,904.7227 Q1214.7344,904.7227 1214.5156,904.5664 Q1214.0469,904.2539 1214.0469,903.707 Q1214.0469,903.2539 1214.3594,902.9883 Q1214.6563,902.707 1215.375,902.707 L1218.0781,902.707 Q1218.7969,902.707 1219.0938,902.9883 Q1219.4063,903.2539 1219.4063,903.707 Q1219.4063,904.1602 1219.1094,904.4414 Q1218.8125,904.7227 1218.0781,904.7227 L1217.6094,904.7227 L1220.5,911.6289 Z " fill="#000000"/><text fill="#000000" font-family="sans-serif" font-size="20" font-style="italic" lengthAdjust="spacing" textLength="128" x="1233" y="903.1563">«value object»</text><text fill="#000000" font-family="sans-serif" font-size="20" lengthAdjust="spacing" textLength="98" x="1248" y="928.3125">Description</text><line style="stroke:#181818;stroke-width:0.5;" x1="1205" x2="1361" y1="937.707" y2="937.707"/></g><!--class JobReference--><g id="elem_JobReference"><rect codeLine="25" fill="#F5F5DC" height="93.4688" id="JobReference" rx="2.5" ry="2.5" style="stroke:#181818;stroke-width:0.5;" width="158" x="1397" y="864.8945"/><ellipse cx="1413" cy="907.6289" fill="#FF8B40" rx="12" ry="12" style="stroke:#181818;stroke-width:1.0;"/><path d="M1413.5,911.707 L1416.3906,904.8008 L1415.9375,904.8008 Q1415.2188,904.8008 1414.9063,904.5195 Q1414.5938,904.2383 1414.5938,903.7852 Q1414.5938,903.332 1414.9063,903.0664 Q1415.2188,902.7852 1415.9375,902.7852 L1418.625,902.7852 Q1419.3438,902.7852 1419.6563,903.0664 Q1419.9688,903.332 1419.9688,903.7852 Q1419.9688,904.332 1419.5,904.6445 Q1419.2656,904.8008 1418.5781,904.8008 L1414.4688,914.6289 L1412.5469,914.6289 L1408.4375,904.8008 Q1407.7344,904.8008 1407.5156,904.6445 Q1407.0469,904.332 1407.0469,903.7852 Q1407.0469,903.332 1407.3594,903.0664 Q1407.6563,902.7852 1408.375,902.7852 L1411.0781,902.7852 Q1411.7969,902.7852 1412.0938,903.0664 Q1412.4063,903.332 1412.4063,903.7852 Q1412.4063,904.2383 1412.1094,904.5195 Q1411.8125,904.8008 1411.0781,904.8008 L1410.6094,904.8008 L1413.5,911.707 Z " fill="#000000"/><text fill="#000000" font-family="sans-serif" font-size="20" font-style="italic" lengthAdjust="spacing" textLength="128" x="1426" y="890.6563">«value object»</text><text fill="#000000" font-family="sans-serif" font-size="20" font-style="italic" lengthAdjust="spacing" textLength="99" x="1440.5" y="915.8125">«identifier»</text><text fill="#000000" font-family="sans-serif" font-size="20" lengthAdjust="spacing" textLength="123" x="1428.5" y="940.9688">JobReference</text><line style="stroke:#181818;stroke-width:0.5;" x1="1398" x2="1554" y1="950.3633" y2="950.3633"/></g><!--class Rank--><g id="elem_Rank"><rect codeLine="26" fill="#F5F5DC" height="68.3125" id="Rank" rx="2.5" ry="2.5" style="stroke:#181818;stroke-width:0.5;" width="158" x="1590" y="877.3945"/><ellipse cx="1606" cy="907.5508" fill="#FF8B40" rx="12" ry="12" style="stroke:#181818;stroke-width:1.0;"/><path d="M1606.5,911.6289 L1609.3906,904.7227 L1608.9375,904.7227 Q1608.2188,904.7227 1607.9063,904.4414 Q1607.5938,904.1602 1607.5938,903.707 Q1607.5938,903.2539 1607.9063,902.9883 Q1608.2188,902.707 1608.9375,902.707 L1611.625,902.707 Q1612.3438,902.707 1612.6563,902.9883 Q1612.9688,903.2539 1612.9688,903.707 Q1612.9688,904.2539 1612.5,904.5664 Q1612.2656,904.7227 1611.5781,904.7227 L1607.4688,914.5508 L1605.5469,914.5508 L1601.4375,904.7227 Q1600.7344,904.7227 1600.5156,904.5664 Q1600.0469,904.2539 1600.0469,903.707 Q1600.0469,903.2539 1600.3594,902.9883 Q1600.6563,902.707 1601.375,902.707 L1604.0781,902.707 Q1604.7969,902.707 1605.0938,902.9883 Q1605.4063,903.2539 1605.4063,903.707 Q1605.4063,904.1602 1605.1094,904.4414 Q1604.8125,904.7227 1604.0781,904.7227 L1603.6094,904.7227 L1606.5,911.6289 Z " fill="#000000"/><text fill="#000000" font-family="sans-serif" font-size="20" font-style="italic" lengthAdjust="spacing" textLength="128" x="1619" y="903.1563">«value object»</text><text fill="#000000" font-family="sans-serif" font-size="20" lengthAdjust="spacing" textLength="45" x="1660.5" y="928.3125">Rank</text><line style="stroke:#181818;stroke-width:0.5;" x1="1591" x2="1747" y1="937.707" y2="937.707"/></g><!--class CustomerManager--><g id="elem_CustomerManager"><rect codeLine="31" fill="#F5F5DC" height="93.4688" id="CustomerManager" rx="2.5" ry="2.5" style="stroke:#181818;stroke-width:0.5;" width="197" x="1021.5" y="50.8945"/><ellipse cx="1037.5" cy="93.6289" fill="#ADD1B2" rx="12" ry="12" style="stroke:#181818;stroke-width:1.0;"/><path d="M1035.4531,94.6914 L1035.4531,97.6289 L1040.5469,97.6289 L1040.5469,96.5352 Q1040.5469,95.8164 1040.8281,95.5195 Q1041.1094,95.207 1041.5625,95.207 Q1042,95.207 1042.2813,95.5195 Q1042.5625,95.8164 1042.5625,96.5352 L1042.5625,99.6289 L1033.125,99.6289 Q1032.4063,99.6289 1032.0938,99.3477 Q1031.7969,99.0664 1031.7969,98.6289 Q1031.7969,98.1758 1032.1094,97.9102 Q1032.4219,97.6289 1033.125,97.6289 L1033.4375,97.6289 L1033.4375,89.8008 L1033.125,89.8008 Q1032.4063,89.8008 1032.0938,89.5195 Q1031.7969,89.2383 1031.7969,88.7852 Q1031.7969,88.332 1032.0938,88.0664 Q1032.4063,87.7852 1033.125,87.7852 L1042.1094,87.7852 L1042.1094,90.832 Q1042.1094,91.5508 1041.8281,91.8633 Q1041.5625,92.1602 1041.125,92.1602 Q1040.6719,92.1602 1040.3906,91.8633 Q1040.1094,91.5664 1040.1094,90.832 L1040.1094,89.8008 L1035.4531,89.8008 L1035.4531,92.6914 L1037.2031,92.6914 Q1037.2031,91.9102 1037.3438,91.6758 Q1037.6563,91.207 1038.2031,91.207 Q1038.6563,91.207 1038.9219,91.5195 Q1039.2031,91.8164 1039.2031,92.5352 L1039.2031,94.8477 Q1039.2031,95.5039 1039.0469,95.7227 Q1038.7344,96.1758 1038.2031,96.1758 Q1037.6563,96.1758 1037.3438,95.707 Q1037.2031,95.4727 1037.2031,94.6914 L1035.4531,94.6914 Z " fill="#000000"/><text fill="#000000" font-family="sans-serif" font-size="20" font-style="italic" lengthAdjust="spacing" textLength="69" x="1099.5" y="76.6563">«entity»</text><text fill="#000000" font-family="sans-serif" font-size="20" font-style="italic" lengthAdjust="spacing" textLength="56" x="1106" y="101.8125">«root»</text><text fill="#000000" font-family="sans-serif" font-size="20" lengthAdjust="spacing" textLength="163" x="1052.5" y="126.9688">CustomerManager</text><line style="stroke:#181818;stroke-width:0.5;" x1="1022.5" x2="1217.5" y1="136.3633" y2="136.3633"/></g><!--class Entity--><g id="elem_Entity"><rect codeLine="35" fill="#F5F5DC" height="93.4688" id="Entity" rx="2.5" ry="2.5" style="stroke:#181818;stroke-width:0.5;" width="99" x="291.5" y="262.8945"/><ellipse cx="307.5" cy="305.6289" fill="#ADD1B2" rx="12" ry="12" style="stroke:#181818;stroke-width:1.0;"/><path d="M305.4531,306.6914 L305.4531,309.6289 L310.5469,309.6289 L310.5469,308.5352 Q310.5469,307.8164 310.8281,307.5195 Q311.1094,307.207 311.5625,307.207 Q312,307.207 312.2813,307.5195 Q312.5625,307.8164 312.5625,308.5352 L312.5625,311.6289 L303.125,311.6289 Q302.4063,311.6289 302.0938,311.3477 Q301.7969,311.0664 301.7969,310.6289 Q301.7969,310.1758 302.1094,309.9102 Q302.4219,309.6289 303.125,309.6289 L303.4375,309.6289 L303.4375,301.8008 L303.125,301.8008 Q302.4063,301.8008 302.0938,301.5195 Q301.7969,301.2383 301.7969,300.7852 Q301.7969,300.332 302.0938,300.0664 Q302.4063,299.7852 303.125,299.7852 L312.1094,299.7852 L312.1094,302.832 Q312.1094,303.5508 311.8281,303.8633 Q311.5625,304.1602 311.125,304.1602 Q310.6719,304.1602 310.3906,303.8633 Q310.1094,303.5664 310.1094,302.832 L310.1094,301.8008 L305.4531,301.8008 L305.4531,304.6914 L307.2031,304.6914 Q307.2031,303.9102 307.3438,303.6758 Q307.6563,303.207 308.2031,303.207 Q308.6563,303.207 308.9219,303.5195 Q309.2031,303.8164 309.2031,304.5352 L309.2031,306.8477 Q309.2031,307.5039 309.0469,307.7227 Q308.7344,308.1758 308.2031,308.1758 Q307.6563,308.1758 307.3438,307.707 Q307.2031,307.4727 307.2031,306.6914 L305.4531,306.6914 Z " fill="#000000"/><text fill="#000000" font-family="sans-serif" font-size="20" font-style="italic" lengthAdjust="spacing" textLength="69" x="320.5" y="288.6563">«entity»</text><text fill="#000000" font-family="sans-serif" font-size="20" font-style="italic" lengthAdjust="spacing" textLength="56" x="327" y="313.8125">«root»</text><text fill="#000000" font-family="sans-serif" font-size="20" lengthAdjust="spacing" textLength="49" x="330.5" y="338.9688">Entity</text><line style="stroke:#181818;stroke-width:0.5;" x1="292.5" x2="389.5" y1="348.3633" y2="348.3633"/></g><!--class CustomerCode--><g id="elem_CustomerCode"><rect codeLine="36" fill="#F5F5DC" height="93.4688" id="CustomerCode" rx="2.5" ry="2.5" style="stroke:#181818;stroke-width:0.5;" width="166" x="22" y="472.8945"/><ellipse cx="38" cy="515.6289" fill="#FF8B40" rx="12" ry="12" style="stroke:#181818;stroke-width:1.0;"/><path d="M38.5,519.707 L41.3906,512.8008 L40.9375,512.8008 Q40.2188,512.8008 39.9063,512.5195 Q39.5938,512.2383 39.5938,511.7852 Q39.5938,511.332 39.9063,511.0664 Q40.2188,510.7852 40.9375,510.7852 L43.625,510.7852 Q44.3438,510.7852 44.6563,511.0664 Q44.9688,511.332 44.9688,511.7852 Q44.9688,512.332 44.5,512.6445 Q44.2656,512.8008 43.5781,512.8008 L39.4688,522.6289 L37.5469,522.6289 L33.4375,512.8008 Q32.7344,512.8008 32.5156,512.6445 Q32.0469,512.332 32.0469,511.7852 Q32.0469,511.332 32.3594,511.0664 Q32.6563,510.7852 33.375,510.7852 L36.0781,510.7852 Q36.7969,510.7852 37.0938,511.0664 Q37.4063,511.332 37.4063,511.7852 Q37.4063,512.2383 37.1094,512.5195 Q36.8125,512.8008 36.0781,512.8008 L35.6094,512.8008 L38.5,519.707 Z " fill="#000000"/><text fill="#000000" font-family="sans-serif" font-size="20" font-style="italic" lengthAdjust="spacing" textLength="128" x="55" y="498.6563">«value object»</text><text fill="#000000" font-family="sans-serif" font-size="20" font-style="italic" lengthAdjust="spacing" textLength="99" x="69.5" y="523.8125">«identifier»</text><text fill="#000000" font-family="sans-serif" font-size="20" lengthAdjust="spacing" textLength="132" x="53" y="548.9688">CustomerCode</text><line style="stroke:#181818;stroke-width:0.5;" x1="23" x2="187" y1="558.3633" y2="558.3633"/></g><!--class CompanyName--><g id="elem_CompanyName"><rect codeLine="37" fill="#F5F5DC" height="68.3125" id="CompanyName" rx="2.5" ry="2.5" style="stroke:#181818;stroke-width:0.5;" width="168" x="223" y="485.3945"/><ellipse cx="239" cy="515.5508" fill="#FF8B40" rx="12" ry="12" style="stroke:#181818;stroke-width:1.0;"/><path d="M239.5,519.6289 L242.3906,512.7227 L241.9375,512.7227 Q241.2188,512.7227 240.9063,512.4414 Q240.5938,512.1602 240.5938,511.707 Q240.5938,511.2539 240.9063,510.9883 Q241.2188,510.707 241.9375,510.707 L244.625,510.707 Q245.3438,510.707 245.6563,510.9883 Q245.9688,511.2539 245.9688,511.707 Q245.9688,512.2539 245.5,512.5664 Q245.2656,512.7227 244.5781,512.7227 L240.4688,522.5508 L238.5469,522.5508 L234.4375,512.7227 Q233.7344,512.7227 233.5156,512.5664 Q233.0469,512.2539 233.0469,511.707 Q233.0469,511.2539 233.3594,510.9883 Q233.6563,510.707 234.375,510.707 L237.0781,510.707 Q237.7969,510.707 238.0938,510.9883 Q238.4063,511.2539 238.4063,511.707 Q238.4063,512.1602 238.1094,512.4414 Q237.8125,512.7227 237.0781,512.7227 L236.6094,512.7227 L239.5,519.6289 Z " fill="#000000"/><text fill="#000000" font-family="sans-serif" font-size="20" font-style="italic" lengthAdjust="spacing" textLength="128" x="257" y="511.1563">«value object»</text><text fill="#000000" font-family="sans-serif" font-size="20" lengthAdjust="spacing" textLength="134" x="254" y="536.3125">CompanyName</text><line style="stroke:#181818;stroke-width:0.5;" x1="224" x2="390" y1="545.707" y2="545.707"/></g><!--class Customer--><g id="elem_Customer"><rect codeLine="40" fill="#F5F5DC" height="93.4688" id="Customer" rx="2.5" ry="2.5" style="stroke:#181818;stroke-width:0.5;" width="119" x="281.5" y="50.8945"/><ellipse cx="297.5" cy="93.6289" fill="#ADD1B2" rx="12" ry="12" style="stroke:#181818;stroke-width:1.0;"/><path d="M295.4531,94.6914 L295.4531,97.6289 L300.5469,97.6289 L300.5469,96.5352 Q300.5469,95.8164 300.8281,95.5195 Q301.1094,95.207 301.5625,95.207 Q302,95.207 302.2813,95.5195 Q302.5625,95.8164 302.5625,96.5352 L302.5625,99.6289 L293.125,99.6289 Q292.4063,99.6289 292.0938,99.3477 Q291.7969,99.0664 291.7969,98.6289 Q291.7969,98.1758 292.1094,97.9102 Q292.4219,97.6289 293.125,97.6289 L293.4375,97.6289 L293.4375,89.8008 L293.125,89.8008 Q292.4063,89.8008 292.0938,89.5195 Q291.7969,89.2383 291.7969,88.7852 Q291.7969,88.332 292.0938,88.0664 Q292.4063,87.7852 293.125,87.7852 L302.1094,87.7852 L302.1094,90.832 Q302.1094,91.5508 301.8281,91.8633 Q301.5625,92.1602 301.125,92.1602 Q300.6719,92.1602 300.3906,91.8633 Q300.1094,91.5664 300.1094,90.832 L300.1094,89.8008 L295.4531,89.8008 L295.4531,92.6914 L297.2031,92.6914 Q297.2031,91.9102 297.3438,91.6758 Q297.6563,91.207 298.2031,91.207 Q298.6563,91.207 298.9219,91.5195 Q299.2031,91.8164 299.2031,92.5352 L299.2031,94.8477 Q299.2031,95.5039 299.0469,95.7227 Q298.7344,96.1758 298.2031,96.1758 Q297.6563,96.1758 297.3438,95.707 Q297.2031,95.4727 297.2031,94.6914 L295.4531,94.6914 Z " fill="#000000"/><text fill="#000000" font-family="sans-serif" font-size="20" font-style="italic" lengthAdjust="spacing" textLength="69" x="320.5" y="76.6563">«entity»</text><text fill="#000000" font-family="sans-serif" font-size="20" font-style="italic" lengthAdjust="spacing" textLength="56" x="327" y="101.8125">«root»</text><text fill="#000000" font-family="sans-serif" font-size="20" lengthAdjust="spacing" textLength="85" x="312.5" y="126.9688">Customer</text><line style="stroke:#181818;stroke-width:0.5;" x1="282.5" x2="399.5" y1="136.3633" y2="136.3633"/></g><!--class Address--><g id="elem_Address"><rect codeLine="10" fill="#F5F5DC" height="68.3125" id="Address" rx="2.5" ry="2.5" style="stroke:#181818;stroke-width:0.5;" width="158" x="426" y="485.3945"/><ellipse cx="442" cy="515.5508" fill="#FF8B40" rx="12" ry="12" style="stroke:#181818;stroke-width:1.0;"/><path d="M442.5,519.6289 L445.3906,512.7227 L444.9375,512.7227 Q444.2188,512.7227 443.9063,512.4414 Q443.5938,512.1602 443.5938,511.707 Q443.5938,511.2539 443.9063,510.9883 Q444.2188,510.707 444.9375,510.707 L447.625,510.707 Q448.3438,510.707 448.6563,510.9883 Q448.9688,511.2539 448.9688,511.707 Q448.9688,512.2539 448.5,512.5664 Q448.2656,512.7227 447.5781,512.7227 L443.4688,522.5508 L441.5469,522.5508 L437.4375,512.7227 Q436.7344,512.7227 436.5156,512.5664 Q436.0469,512.2539 436.0469,511.707 Q436.0469,511.2539 436.3594,510.9883 Q436.6563,510.707 437.375,510.707 L440.0781,510.707 Q440.7969,510.707 441.0938,510.9883 Q441.4063,511.2539 441.4063,511.707 Q441.4063,512.1602 441.1094,512.4414 Q440.8125,512.7227 440.0781,512.7227 L439.6094,512.7227 L442.5,519.6289 Z " fill="#000000"/><text fill="#000000" font-family="sans-serif" font-size="20" font-style="italic" lengthAdjust="spacing" textLength="128" x="455" y="511.1563">«value object»</text><text fill="#000000" font-family="sans-serif" font-size="20" lengthAdjust="spacing" textLength="73" x="482.5" y="536.3125">Address</text><line style="stroke:#181818;stroke-width:0.5;" x1="427" x2="583" y1="545.707" y2="545.707"/></g><!--link Entity to JobOpening--><g id="link_Entity_JobOpening"><path codeLine="45" d="M390.62,323.6445 C523.4,359.0945 887.44,456.2945 1045.32,498.4545 " fill="none" id="Entity-to-JobOpening" style="stroke:#222222;stroke-width:1.0;"/><polygon fill="#222222" points="1050.39,499.8045,1042.7223,493.6235,1045.5584,498.518,1040.6638,501.3541,1050.39,499.8045" style="stroke:#222222;stroke-width:1.0;"/><text fill="#000000" font-family="sans-serif" font-size="20" lengthAdjust="spacing" textLength="52" x="708" y="407.6563">sends</text><text fill="#000000" font-family="sans-serif" font-size="20" lengthAdjust="spacing" textLength="31" x="1011.5439" y="492.5935">1..*</text></g><!--link Entity to CompanyName--><g id="link_Entity_CompanyName"><path codeLine="46" d="M303.98,356.1045 C298.22,365.4645 293.15,375.6045 290,385.8945 C280.51,416.8945 286.45,453.5545 293.81,480.4445 " fill="none" id="Entity-to-CompanyName" style="stroke:#222222;stroke-width:1.0;"/><polygon fill="#222222" points="295.19,485.3445,296.598,475.5968,293.8334,480.5321,288.8981,477.7674,295.19,485.3445" style="stroke:#222222;stroke-width:1.0;"/><text fill="#000000" font-family="sans-serif" font-size="20" lengthAdjust="spacing" textLength="133" x="291" y="407.6563">is described by</text><text fill="#000000" font-family="sans-serif" font-size="20" lengthAdjust="spacing" textLength="11" x="281.2148" y="473.092">1</text></g><!--link Entity to Address--><g id="link_Entity_Address"><path codeLine="47" d="M390.82,348.0245 C404.1,359.3645 417.84,372.4045 429,385.8945 C453.13,415.0545 473.98,452.8945 487.71,480.6645 " fill="none" id="Entity-to-Address" style="stroke:#222222;stroke-width:1.0;"/><polygon fill="#222222" points="490.02,485.3745,489.6606,475.5322,487.8239,480.8826,482.4736,479.0459,490.02,485.3745" style="stroke:#222222;stroke-width:1.0;"/><text fill="#000000" font-family="sans-serif" font-size="20" lengthAdjust="spacing" textLength="107" x="449" y="407.6563">is located at</text><text fill="#000000" font-family="sans-serif" font-size="20" lengthAdjust="spacing" textLength="11" x="475.5" y="473.1272">1</text></g><!--link Entity to CustomerCode--><g id="link_Entity_CustomerCode"><path codeLine="48" d="M291.39,318.0345 C248.49,327.1345 187.62,346.3845 150,385.8945 C128.87,408.0945 117.63,440.5845 111.68,467.8345 " fill="none" id="Entity-to-CustomerCode" style="stroke:#222222;stroke-width:1.0;"/><polygon fill="#222222" points="110.62,472.8645,116.3659,464.8655,111.6363,467.9689,108.5329,463.2394,110.62,472.8645" style="stroke:#222222;stroke-width:1.0;"/><text fill="#000000" font-family="sans-serif" font-size="20" lengthAdjust="spacing" textLength="125" x="151" y="407.6563">is identified by</text><text fill="#000000" font-family="sans-serif" font-size="20" lengthAdjust="spacing" textLength="11" x="99.6361" y="460.6731">1</text></g><!--link CustomerManager to Entity--><g id="link_CustomerManager_Entity"><path codeLine="50" d="M1021.34,124.9945 C855.41,169.7245 525.87,258.5545 395.72,293.6445 " fill="none" id="CustomerManager-to-Entity" style="stroke:#222222;stroke-width:1.0;"/><polygon fill="#222222" points="390.8,294.9745,400.5304,296.4972,395.6281,293.6747,398.4506,288.7723,390.8,294.9745" style="stroke:#222222;stroke-width:1.0;"/><text fill="#000000" font-family="sans-serif" font-size="20" lengthAdjust="spacing" textLength="80" x="824" y="197.6563">manages</text><text fill="#000000" font-family="sans-serif" font-size="20" lengthAdjust="spacing" textLength="31" x="398.3503" y="287.6056">1..*</text></g><!--link CustomerManager to JobOpening--><g id="link_CustomerManager_JobOpening"><path codeLine="51" d="M1120,144.1445 C1120,223.1945 1120,384.8145 1120,467.3845 " fill="none" id="CustomerManager-to-JobOpening" style="stroke:#222222;stroke-width:1.0;"/><polygon fill="#222222" points="1120,472.7045,1124,463.7045,1120,467.7045,1116,463.7045,1120,472.7045" style="stroke:#222222;stroke-width:1.0;"/><text fill="#000000" font-family="sans-serif" font-size="20" lengthAdjust="spacing" textLength="77" x="1121" y="317.6563">registers</text><text fill="#000000" font-family="sans-serif" font-size="20" lengthAdjust="spacing" textLength="31" x="1086.9172" y="460.4916">1..*</text></g><!--link CustomerManager to RequirementSpecification--><g id="link_CustomerManager_RequirementSpecification"><path codeLine="52" d="M1218.66,126.9545 C1355.53,170.8045 1604.15,266.2445 1764,420.8945 C1841.13,495.5145 1891.47,613.3245 1915.5,680.0045 " fill="none" id="CustomerManager-to-RequirementSpecification" style="stroke:#222222;stroke-width:1.0;"/><polygon fill="#222222" points="1917.19,684.7145,1917.9167,674.8925,1915.502,680.0081,1910.3864,677.5934,1917.19,684.7145" style="stroke:#222222;stroke-width:1.0;"/><text fill="#000000" font-family="sans-serif" font-size="20" lengthAdjust="spacing" textLength="62" x="1754" y="407.6563">selects</text><text fill="#000000" font-family="sans-serif" font-size="20" lengthAdjust="spacing" textLength="31" x="1882.1171" y="672.5029">1..*</text></g><!--link Customer to Entity--><g id="link_Customer_Entity"><path codeLine="54" d="M341,143.9645 C341,177.4145 341,222.8845 341,257.5245 " fill="none" id="Customer-to-Entity" style="stroke:#222222;stroke-width:1.0;"/><polygon fill="#222222" points="341,262.5545,345,253.5545,341,257.5545,337,253.5545,341,262.5545" style="stroke:#222222;stroke-width:1.0;"/><text fill="#000000" font-family="sans-serif" font-size="20" lengthAdjust="spacing" textLength="94" x="342" y="197.6563">represents</text><text fill="#000000" font-family="sans-serif" font-size="20" lengthAdjust="spacing" textLength="11" x="329.2609" y="250.3214">1</text></g><!--link JobOpening to JobReference--><g id="link_JobOpening_JobReference"><path codeLine="56" d="M1189.52,524.6045 C1263.21,533.0445 1377.17,558.1945 1438,632.8945 C1490.34,697.1645 1489.83,798.8845 1483.64,859.6745 " fill="none" id="JobOpening-to-JobReference" style="stroke:#222222;stroke-width:1.0;"/><polygon fill="#222222" points="1483.1,864.7045,1488.0291,856.1779,1483.6286,859.7326,1480.074,855.3321,1483.1,864.7045" style="stroke:#222222;stroke-width:1.0;"/><text fill="#000000" font-family="sans-serif" font-size="20" lengthAdjust="spacing" textLength="70" x="1486" y="739.6563">includes</text><text fill="#000000" font-family="sans-serif" font-size="20" lengthAdjust="spacing" textLength="11" x="1472.315" y="852.4916">1</text></g><!--link JobOpening to Mode--><g id="link_JobOpening_Mode"><path codeLine="57" d="M1089.86,566.1545 C1083.82,576.3645 1077.85,587.3045 1073,597.8945 C1058.92,628.6345 1047.4,665.3145 1039.83,692.2745 " fill="none" id="JobOpening-to-Mode" style="stroke:#222222;stroke-width:1.0;"/><polygon fill="#222222" points="1038.47,697.1945,1044.7201,689.5829,1039.8001,692.3747,1037.0083,687.4547,1038.47,697.1945" style="stroke:#222222;stroke-width:1.0;"/><text fill="#000000" font-family="sans-serif" font-size="20" lengthAdjust="spacing" textLength="70" x="1074" y="619.6563">includes</text><text fill="#000000" font-family="sans-serif" font-size="20" lengthAdjust="spacing" textLength="11" x="1027.9805" y="684.9163">1</text></g><!--link JobOpening to NumberVacancy--><g id="link_JobOpening_NumberVacancy"><path codeLine="58" d="M1144.52,565.9645 C1164.9,603.8245 1193.55,657.0745 1212.66,692.6045 " fill="none" id="JobOpening-to-NumberVacancy" style="stroke:#222222;stroke-width:1.0;"/><polygon fill="#222222" points="1215.18,697.2745,1214.4312,687.4542,1212.8078,692.8731,1207.3889,691.2497,1215.18,697.2745" style="stroke:#222222;stroke-width:1.0;"/><text fill="#000000" font-family="sans-serif" font-size="20" lengthAdjust="spacing" textLength="70" x="1174" y="619.6563">includes</text><text fill="#000000" font-family="sans-serif" font-size="20" lengthAdjust="spacing" textLength="11" x="1200.1719" y="685.01">1</text></g><!--link JobOpening to Address--><g id="link_JobOpening_Address"><path codeLine="59" d="M1050.18,519.3945 C936.43,519.3945 711.57,519.3945 589.17,519.3945 " fill="none" id="JobOpening-to-Address" style="stroke:#222222;stroke-width:1.0;"/><polygon fill="#222222" points="584.14,519.3945,593.14,523.3945,589.14,519.3945,593.14,515.3945,584.14,519.3945" style="stroke:#222222;stroke-width:1.0;"/><text fill="#000000" font-family="sans-serif" font-size="20" lengthAdjust="spacing" textLength="70" x="782.25" y="511.1563">includes</text><text fill="#000000" font-family="sans-serif" font-size="20" lengthAdjust="spacing" textLength="11" x="591.9427" y="513.9967">1</text></g><!--link JobOpening to JobFunction--><g id="link_JobOpening_JobFunction"><path codeLine="60" d="M1050.16,528.4045 C959.4,540.0045 807.25,563.8845 763,597.8945 C732.57,621.2745 714.57,662.0845 704.81,692.2445 " fill="none" id="JobOpening-to-JobFunction" style="stroke:#222222;stroke-width:1.0;"/><polygon fill="#222222" points="703.2,697.3745,709.715,689.9884,704.6995,692.6047,702.0832,687.5892,703.2,697.3745" style="stroke:#222222;stroke-width:1.0;"/><text fill="#000000" font-family="sans-serif" font-size="20" lengthAdjust="spacing" textLength="70" x="764" y="619.6563">includes</text><text fill="#000000" font-family="sans-serif" font-size="20" lengthAdjust="spacing" textLength="11" x="692.6641" y="685.1272">1</text></g><!--link JobOpening to Description--><g id="link_JobOpening_Description"><path codeLine="61" d="M1189.6,535.6645 C1240.73,550.9245 1306.7,579.9945 1339,632.8945 C1385.33,708.7845 1338.21,816.0045 1306.58,872.3645 " fill="none" id="JobOpening-to-Description" style="stroke:#222222;stroke-width:1.0;"/><polygon fill="#222222" points="1303.96,876.9945,1311.8796,871.1397,1306.4269,872.6454,1304.9211,867.1927,1303.96,876.9945" style="stroke:#222222;stroke-width:1.0;"/><text fill="#000000" font-family="sans-serif" font-size="20" lengthAdjust="spacing" textLength="70" x="1359" y="739.6563">includes</text><text fill="#000000" font-family="sans-serif" font-size="20" lengthAdjust="spacing" textLength="11" x="1295.5206" y="864.9755">1</text></g><!--link JobOpening to ContractType--><g id="link_JobOpening_ContractType"><path codeLine="62" d="M1050.36,530.4145 C989.82,543.1045 905.24,571.3045 862,632.8945 C811.5,704.8045 823.71,814.7345 834.99,872.2745 " fill="none" id="JobOpening-to-ContractType" style="stroke:#222222;stroke-width:1.0;"/><polygon fill="#222222" points="836,877.3345,838.1465,867.7224,835.0139,872.4327,830.3036,869.3002,836,877.3345" style="stroke:#222222;stroke-width:1.0;"/><text fill="#000000" font-family="sans-serif" font-size="20" lengthAdjust="spacing" textLength="70" x="863" y="739.6563">includes</text><text fill="#000000" font-family="sans-serif" font-size="20" lengthAdjust="spacing" textLength="11" x="822.6797" y="865.0803">1</text></g><!--link JobOpening to RequirementSpecification--><g id="link_JobOpening_RequirementSpecification"><path codeLine="63" d="M1189.55,523.6545 C1297.47,530.1145 1510.94,548.4645 1685,597.8945 C1721.94,608.3845 1729.79,615.4545 1764,632.8945 C1793.52,647.9445 1825.12,665.7945 1852.86,682.0945 " fill="none" id="JobOpening-to-RequirementSpecification" style="stroke:#222222;stroke-width:1.0;"/><polygon fill="#222222" points="1857.28,684.6945,1851.5693,676.6703,1852.9762,682.1494,1847.4971,683.5564,1857.28,684.6945" style="stroke:#222222;stroke-width:1.0;"/><text fill="#000000" font-family="sans-serif" font-size="20" lengthAdjust="spacing" textLength="70" x="1748" y="619.6563">includes</text><text fill="#000000" font-family="sans-serif" font-size="20" lengthAdjust="spacing" textLength="11" x="1835.5004" y="672.4803">1</text></g><!--link JobOpening to Rank--><g id="link_JobOpening_Rank"><path codeLine="64" d="M1189.68,530.0145 C1300.45,546.5845 1509.85,583.5445 1565,632.8945 C1635.53,696.0045 1658.4,811.6945 1665.68,871.8145 " fill="none" id="JobOpening-to-Rank" style="stroke:#222222;stroke-width:1.0;"/><polygon fill="#222222" points="1666.3,877.1045,1669.2195,867.6983,1665.715,872.1389,1661.2744,868.6344,1666.3,877.1045" style="stroke:#222222;stroke-width:1.0;"/><text fill="#000000" font-family="sans-serif" font-size="20" lengthAdjust="spacing" textLength="70" x="1647" y="739.6563">includes</text><text fill="#000000" font-family="sans-serif" font-size="20" lengthAdjust="spacing" textLength="8" x="1657.1903" y="865.1037">*</text></g><!--link RequirementSpecification to RequirementName--><g id="link_RequirementSpecification_RequirementName"><path codeLine="66" d="M1932,778.2345 C1932,803.1445 1932,834.0145 1932,859.6545 " fill="none" id="RequirementSpecification-to-RequirementName" style="stroke:#222222;stroke-width:1.0;"/><polygon fill="#222222" points="1932,864.7145,1936,855.7145,1932,859.7145,1928,855.7145,1932,864.7145" style="stroke:#222222;stroke-width:1.0;"/><polygon fill="#000000" points="1940,813.4727,1935.2977,827.9448,1944.7023,827.9448,1940,813.4727" style="stroke:#000000;stroke-width:1.0;"/><text fill="#000000" font-family="sans-serif" font-size="20" lengthAdjust="spacing" textLength="77" x="1953" y="829.6563">identifies</text><text fill="#000000" font-family="sans-serif" font-size="20" lengthAdjust="spacing" textLength="11" x="1920.2609" y="852.5029">1</text></g><!--SRC=[bPLDRzf048Rl-ojMv40RbIIDUgWi2yaXa2PgWeGfrsYz7fmjzgwxksv5elxtZh_0fh59V45YdlbwPpms6o5JfbaIAxw1a8QmPbbiPqfQNpm3lRmWmoThK-ESdwSnapPBuZEkadCUCsD6eM0HEXDYwZYqC7ZMQX5a5cwvaaMW2_8aGg2Gf7PBMMqsXuvNZ6yYhJ8PJbIiD0r0HD20FAtLdz9qSbayX92X_yrRJA_foll-OqhdLtVJfK-ASDGBGmtuwxeVLfzEPhElLrykFjBVBCw0gk0dS3iUqvU_XAIOc4L01wxBeaX3n2oWQG6_Cg4X0Mcfdm8NQy6P5KeEw0kX-A11O4SDheLXufB0MAwhbShpvGbptxB4Xki3Iw2_LDT55J7WMe0kAyVQXzxDpM9wuosdVbSVTogWynIaaD51vMYf3A_MsYeLsLacUTLOlw9xhmakasRSBhSflCFjNeNlmH-o902zOfn9ldsJtyxr6WpN8drpMtir5h063PA_UshDz0icDxt-vPIxHZl9Z5K9Q7hF99hrmNnhSsNjNCZkTs1Qy0TXop_ViDvr_idHSRwkKhr3IShazlWBKdHoHAaEXVhsFzT_wFd-V7BhBM_d3pwf11YDndJm-UpiTD1yanngG8Qc3GrQNJXK63ot-UO5U7Y3xGuksVfo5HnUPsmXnCFvNyYcl0Mx4x48EXoDoE4AD6ekepaqAKoc3zstvr2KL1WBkjUXyoRcwiGuBjEgRjTIrQ53CKsA6g1_IJO47jLm-or40IIFCvIr3LViVILI7zE-8nrmnJPcr1UoUJQxq9fjtg9ZREkm7gcXPnZTIKvpn_mwDQ3XuoFf35QdE_YcEVkbn4_nFm00]--></g></svg>