<?xml version="1.0" encoding="us-ascii" standalone="no"?><svg xmlns="http://www.w3.org/2000/svg" xmlns:xlink="http://www.w3.org/1999/xlink" contentStyleType="text/css" height="286px" preserveAspectRatio="none" style="width:705px;height:286px;background:#FFFFFF;" version="1.1" viewBox="0 0 705 286" width="705.5px" zoomAndPan="magnify"><defs/><g><!--cluster <<aggregate>> Interview Model--><g id="cluster_&lt;&lt;aggregate&gt;&gt; Interview Model"><path d="M424.75,89.5068 L528.25,89.5068 A1.875,1.875 0 0 1 529.5,90.7568 L533,101.8174 L634.75,101.8174 A1.25,1.25 0 0 1 636,103.0674 L636,223.2568 A1.25,1.25 0 0 1 634.75,224.5068 L424.75,224.5068 A1.25,1.25 0 0 1 423.5,223.2568 L423.5,90.7568 A1.25,1.25 0 0 1 424.75,89.5068 " fill="none" style="stroke:#000000;stroke-width:0.75;"/><line style="stroke:#000000;stroke-width:0.75;" x1="423.5" x2="533" y1="101.8174" y2="101.8174"/><text fill="#000000" font-family="sans-serif" font-size="7" font-weight="bold" lengthAdjust="spacing" textLength="103" x="425.5" y="98.0605">&#171;aggregate&#187; Interview Model</text></g><!--cluster <<aggregate>> Job Opening--><g id="cluster_&lt;&lt;aggregate&gt;&gt; Job Opening"><path d="M4.25,89.5068 L95.75,89.5068 A1.875,1.875 0 0 1 97,90.7568 L100.5,101.8174 L410.25,101.8174 A1.25,1.25 0 0 1 411.5,103.0674 L411.5,281.2568 A1.25,1.25 0 0 1 410.25,282.5068 L4.25,282.5068 A1.25,1.25 0 0 1 3,281.2568 L3,90.7568 A1.25,1.25 0 0 1 4.25,89.5068 " fill="none" style="stroke:#000000;stroke-width:0.75;"/><line style="stroke:#000000;stroke-width:0.75;" x1="3" x2="100.5" y1="101.8174" y2="101.8174"/><text fill="#000000" font-family="sans-serif" font-size="7" font-weight="bold" lengthAdjust="spacing" textLength="91" x="5" y="98.0605">&#171;aggregate&#187; Job Opening</text></g><!--cluster <<aggregate>> Customer Manager--><g id="cluster_&lt;&lt;aggregate&gt;&gt; Customer Manager"><path d="M355.75,3.0068 L469.25,3.0068 A1.875,1.875 0 0 1 470.5,4.2568 L474,15.3174 L474.25,15.3174 A1.25,1.25 0 0 1 475.5,16.5674 L475.5,62.7568 A1.25,1.25 0 0 1 474.25,64.0068 L355.75,64.0068 A1.25,1.25 0 0 1 354.5,62.7568 L354.5,4.2568 A1.25,1.25 0 0 1 355.75,3.0068 " fill="none" style="stroke:#000000;stroke-width:0.75;"/><line style="stroke:#000000;stroke-width:0.75;" x1="354.5" x2="474" y1="15.3174" y2="15.3174"/><text fill="#000000" font-family="sans-serif" font-size="7" font-weight="bold" lengthAdjust="spacing" textLength="113" x="356.5" y="11.5605">&#171;aggregate&#187; Customer Manager</text></g><!--class InterviewModel--><g id="elem_InterviewModel"><rect codeLine="14" fill="#F5F5DC" height="34.2715" id="InterviewModel" rx="1.25" ry="1.25" style="stroke:#181818;stroke-width:0.25;" width="62.5" x="440.75" y="108.0068"/><ellipse cx="448.25" cy="123.1426" fill="#ADD1B2" rx="5.5" ry="5.5" style="stroke:#181818;stroke-width:0.5;"/><path d="M447.6797,123.541 L447.6797,124.791 L449.8438,124.791 L449.8438,124.3301 Q449.8438,124.0254 449.9609,123.8926 Q450.0859,123.7598 450.2734,123.7598 Q450.4609,123.7598 450.5781,123.8926 Q450.6953,124.0254 450.6953,124.3301 L450.6953,125.6426 L446.6953,125.6426 Q446.3828,125.6426 446.25,125.5254 Q446.125,125.4082 446.125,125.2129 Q446.125,125.0254 446.2578,124.9082 Q446.3906,124.791 446.6953,124.791 L446.8281,124.791 L446.8281,121.4629 L446.6953,121.4629 Q446.3828,121.4629 446.25,121.3457 Q446.125,121.2285 446.125,121.0332 Q446.125,120.8457 446.25,120.7285 Q446.3828,120.6113 446.6953,120.6113 L450.5078,120.6113 L450.5078,121.9082 Q450.5078,122.2129 450.3906,122.3457 Q450.2813,122.4707 450.0859,122.4707 Q449.8984,122.4707 449.7813,122.3457 Q449.6641,122.2129 449.6641,121.9082 L449.6641,121.4629 L447.6797,121.4629 L447.6797,122.6895 L448.4219,122.6895 Q448.4219,122.3613 448.4844,122.2676 Q448.6172,122.0645 448.8516,122.0645 Q449.0391,122.0645 449.1563,122.1973 Q449.2734,122.3223 449.2734,122.627 L449.2734,123.6113 Q449.2734,123.8848 449.2109,123.9785 Q449.0781,124.1738 448.8516,124.1738 Q448.6172,124.1738 448.4844,123.9707 Q448.4219,123.877 448.4219,123.541 L447.6797,123.541 Z " fill="#000000"/><text fill="#000000" font-family="sans-serif" font-size="6" font-style="italic" lengthAdjust="spacing" textLength="21.5" x="467.75" y="116.9814">&#171;entity&#187;</text><text fill="#000000" font-family="sans-serif" font-size="6" font-style="italic" lengthAdjust="spacing" textLength="17.5" x="469.75" y="124.9619">&#171;root&#187;</text><text fill="#000000" font-family="sans-serif" font-size="7" lengthAdjust="spacing" textLength="46.5" x="455.25" y="134.0215">InterviewModel</text><line style="stroke:#181818;stroke-width:0.25;" x1="441.25" x2="502.75" y1="138.2783" y2="138.2783"/></g><!--class InterviewModelName--><g id="elem_InterviewModelName"><rect codeLine="15" fill="#F5F5DC" height="34.2715" id="InterviewModelName" rx="1.25" ry="1.25" style="stroke:#181818;stroke-width:0.25;" width="80.5" x="431.75" y="182.0068"/><ellipse cx="439.25" cy="197.1426" fill="#FF8B40" rx="5.5" ry="5.5" style="stroke:#181818;stroke-width:0.5;"/><path d="M439.5469,198.7754 L440.7813,195.8379 L440.5859,195.8379 Q440.2813,195.8379 440.1484,195.7207 Q440.0156,195.6035 440.0156,195.4082 Q440.0156,195.2207 440.1484,195.1035 Q440.2813,194.9863 440.5859,194.9863 L441.7266,194.9863 Q442.0313,194.9863 442.1641,195.1035 Q442.2969,195.2207 442.2969,195.4082 Q442.2969,195.6426 442.0938,195.7754 Q442,195.8379 441.7031,195.8379 L439.9609,200.0176 L439.1406,200.0176 L437.3984,195.8379 Q437.1016,195.8379 437.0078,195.7754 Q436.8047,195.6426 436.8047,195.4082 Q436.8047,195.2207 436.9375,195.1035 Q437.0703,194.9863 437.375,194.9863 L438.5234,194.9863 Q438.8281,194.9863 438.9531,195.1035 Q439.0859,195.2207 439.0859,195.4082 Q439.0859,195.6035 438.9531,195.7207 Q438.8281,195.8379 438.5234,195.8379 L438.3203,195.8379 L439.5469,198.7754 Z " fill="#000000"/><text fill="#000000" font-family="sans-serif" font-size="6" font-style="italic" lengthAdjust="spacing" textLength="40.5" x="458.25" y="190.9814">&#171;value object&#187;</text><text fill="#000000" font-family="sans-serif" font-size="6" font-style="italic" lengthAdjust="spacing" textLength="30.5" x="463.25" y="198.9619">&#171;identifier&#187;</text><text fill="#000000" font-family="sans-serif" font-size="7" lengthAdjust="spacing" textLength="64.5" x="446.25" y="208.0215">InterviewModelName</text><line style="stroke:#181818;stroke-width:0.25;" x1="432.25" x2="511.75" y1="212.2783" y2="212.2783"/></g><!--class InterviewModelDescription--><g id="elem_InterviewModelDescription"><rect codeLine="16" fill="#F5F5DC" height="26.291" id="InterviewModelDescription" rx="1.25" ry="1.25" style="stroke:#181818;stroke-width:0.25;" width="98" x="530" y="186.0068"/><ellipse cx="537.5" cy="197.1523" fill="#FF8B40" rx="5.5" ry="5.5" style="stroke:#181818;stroke-width:0.5;"/><path d="M537.7969,198.7852 L539.0313,195.8477 L538.8359,195.8477 Q538.5313,195.8477 538.3984,195.7305 Q538.2656,195.6133 538.2656,195.418 Q538.2656,195.2305 538.3984,195.1133 Q538.5313,194.9961 538.8359,194.9961 L539.9766,194.9961 Q540.2813,194.9961 540.4141,195.1133 Q540.5469,195.2305 540.5469,195.418 Q540.5469,195.6523 540.3438,195.7852 Q540.25,195.8477 539.9531,195.8477 L538.2109,200.0273 L537.3906,200.0273 L535.6484,195.8477 Q535.3516,195.8477 535.2578,195.7852 Q535.0547,195.6523 535.0547,195.418 Q535.0547,195.2305 535.1875,195.1133 Q535.3203,194.9961 535.625,194.9961 L536.7734,194.9961 Q537.0781,194.9961 537.2031,195.1133 Q537.3359,195.2305 537.3359,195.418 Q537.3359,195.6133 537.2031,195.7305 Q537.0781,195.8477 536.7734,195.8477 L536.5703,195.8477 L537.7969,198.7852 Z " fill="#000000"/><text fill="#000000" font-family="sans-serif" font-size="6" font-style="italic" lengthAdjust="spacing" textLength="40.5" x="565.25" y="194.9814">&#171;value object&#187;</text><text fill="#000000" font-family="sans-serif" font-size="7" lengthAdjust="spacing" textLength="82" x="544.5" y="204.041">InterviewModelDescription</text><line style="stroke:#181818;stroke-width:0.25;" x1="530.5" x2="627.5" y1="208.2979" y2="208.2979"/></g><!--class JobOpening--><g id="elem_JobOpening"><rect codeLine="22" fill="#F5F5DC" height="34.2715" id="JobOpening" rx="1.25" ry="1.25" style="stroke:#181818;stroke-width:0.25;" width="54" x="255" y="108.0068"/><ellipse cx="262.5" cy="123.1426" fill="#ADD1B2" rx="5.5" ry="5.5" style="stroke:#181818;stroke-width:0.5;"/><path d="M261.9297,123.541 L261.9297,124.791 L264.0938,124.791 L264.0938,124.3301 Q264.0938,124.0254 264.2109,123.8926 Q264.3359,123.7598 264.5234,123.7598 Q264.7109,123.7598 264.8281,123.8926 Q264.9453,124.0254 264.9453,124.3301 L264.9453,125.6426 L260.9453,125.6426 Q260.6328,125.6426 260.5,125.5254 Q260.375,125.4082 260.375,125.2129 Q260.375,125.0254 260.5078,124.9082 Q260.6406,124.791 260.9453,124.791 L261.0781,124.791 L261.0781,121.4629 L260.9453,121.4629 Q260.6328,121.4629 260.5,121.3457 Q260.375,121.2285 260.375,121.0332 Q260.375,120.8457 260.5,120.7285 Q260.6328,120.6113 260.9453,120.6113 L264.7578,120.6113 L264.7578,121.9082 Q264.7578,122.2129 264.6406,122.3457 Q264.5313,122.4707 264.3359,122.4707 Q264.1484,122.4707 264.0313,122.3457 Q263.9141,122.2129 263.9141,121.9082 L263.9141,121.4629 L261.9297,121.4629 L261.9297,122.6895 L262.6719,122.6895 Q262.6719,122.3613 262.7344,122.2676 Q262.8672,122.0645 263.1016,122.0645 Q263.2891,122.0645 263.4063,122.1973 Q263.5234,122.3223 263.5234,122.627 L263.5234,123.6113 Q263.5234,123.8848 263.4609,123.9785 Q263.3281,124.1738 263.1016,124.1738 Q262.8672,124.1738 262.7344,123.9707 Q262.6719,123.877 262.6719,123.541 L261.9297,123.541 Z " fill="#000000"/><text fill="#000000" font-family="sans-serif" font-size="6" font-style="italic" lengthAdjust="spacing" textLength="21.5" x="277.75" y="116.9814">&#171;entity&#187;</text><text fill="#000000" font-family="sans-serif" font-size="6" font-style="italic" lengthAdjust="spacing" textLength="17.5" x="279.75" y="124.9619">&#171;root&#187;</text><text fill="#000000" font-family="sans-serif" font-size="7" lengthAdjust="spacing" textLength="38" x="269.5" y="134.0215">JobOpening</text><line style="stroke:#181818;stroke-width:0.25;" x1="255.5" x2="308.5" y1="138.2783" y2="138.2783"/></g><!--class JobFunction--><g id="elem_JobFunction"><rect codeLine="23" fill="#F5F5DC" height="26.291" id="JobFunction" rx="1.25" ry="1.25" style="stroke:#181818;stroke-width:0.25;" width="54.5" x="11.25" y="186.0068"/><ellipse cx="18.75" cy="197.1523" fill="#FF8B40" rx="5.5" ry="5.5" style="stroke:#181818;stroke-width:0.5;"/><path d="M19.0469,198.7852 L20.2813,195.8477 L20.0859,195.8477 Q19.7813,195.8477 19.6484,195.7305 Q19.5156,195.6133 19.5156,195.418 Q19.5156,195.2305 19.6484,195.1133 Q19.7813,194.9961 20.0859,194.9961 L21.2266,194.9961 Q21.5313,194.9961 21.6641,195.1133 Q21.7969,195.2305 21.7969,195.418 Q21.7969,195.6523 21.5938,195.7852 Q21.5,195.8477 21.2031,195.8477 L19.4609,200.0273 L18.6406,200.0273 L16.8984,195.8477 Q16.6016,195.8477 16.5078,195.7852 Q16.3047,195.6523 16.3047,195.418 Q16.3047,195.2305 16.4375,195.1133 Q16.5703,194.9961 16.875,194.9961 L18.0234,194.9961 Q18.3281,194.9961 18.4531,195.1133 Q18.5859,195.2305 18.5859,195.418 Q18.5859,195.6133 18.4531,195.7305 Q18.3281,195.8477 18.0234,195.8477 L17.8203,195.8477 L19.0469,198.7852 Z " fill="#000000"/><text fill="#000000" font-family="sans-serif" font-size="6" font-style="italic" lengthAdjust="spacing" textLength="40.5" x="24.75" y="194.9814">&#171;value object&#187;</text><text fill="#000000" font-family="sans-serif" font-size="7" lengthAdjust="spacing" textLength="38.5" x="25.75" y="204.041">JobFunction</text><line style="stroke:#181818;stroke-width:0.25;" x1="11.75" x2="65.25" y1="208.2979" y2="208.2979"/></g><!--class ContractType--><g id="elem_ContractType"><rect codeLine="24" fill="#F5F5DC" height="26.291" id="ContractType" rx="1.25" ry="1.25" style="stroke:#181818;stroke-width:0.25;" width="59" x="71.5" y="248.0068"/><ellipse cx="79" cy="259.1523" fill="#FF8B40" rx="5.5" ry="5.5" style="stroke:#181818;stroke-width:0.5;"/><path d="M79.2969,260.7852 L80.5313,257.8477 L80.3359,257.8477 Q80.0313,257.8477 79.8984,257.7305 Q79.7656,257.6133 79.7656,257.418 Q79.7656,257.2305 79.8984,257.1133 Q80.0313,256.9961 80.3359,256.9961 L81.4766,256.9961 Q81.7813,256.9961 81.9141,257.1133 Q82.0469,257.2305 82.0469,257.418 Q82.0469,257.6523 81.8438,257.7852 Q81.75,257.8477 81.4531,257.8477 L79.7109,262.0273 L78.8906,262.0273 L77.1484,257.8477 Q76.8516,257.8477 76.7578,257.7852 Q76.5547,257.6523 76.5547,257.418 Q76.5547,257.2305 76.6875,257.1133 Q76.8203,256.9961 77.125,256.9961 L78.2734,256.9961 Q78.5781,256.9961 78.7031,257.1133 Q78.8359,257.2305 78.8359,257.418 Q78.8359,257.6133 78.7031,257.7305 Q78.5781,257.8477 78.2734,257.8477 L78.0703,257.8477 L79.2969,260.7852 Z " fill="#000000"/><text fill="#000000" font-family="sans-serif" font-size="6" font-style="italic" lengthAdjust="spacing" textLength="40.5" x="87.25" y="256.9814">&#171;value object&#187;</text><text fill="#000000" font-family="sans-serif" font-size="7" lengthAdjust="spacing" textLength="43" x="86" y="266.041">ContractType</text><line style="stroke:#181818;stroke-width:0.25;" x1="72" x2="130" y1="270.2979" y2="270.2979"/></g><!--class Mode--><g id="elem_Mode"><rect codeLine="25" fill="#F5F5DC" height="26.291" id="Mode" rx="1.25" ry="1.25" style="stroke:#181818;stroke-width:0.25;" width="54.5" x="143.75" y="186.0068"/><ellipse cx="151.25" cy="197.1523" fill="#FF8B40" rx="5.5" ry="5.5" style="stroke:#181818;stroke-width:0.5;"/><path d="M151.5469,198.7852 L152.7813,195.8477 L152.5859,195.8477 Q152.2813,195.8477 152.1484,195.7305 Q152.0156,195.6133 152.0156,195.418 Q152.0156,195.2305 152.1484,195.1133 Q152.2813,194.9961 152.5859,194.9961 L153.7266,194.9961 Q154.0313,194.9961 154.1641,195.1133 Q154.2969,195.2305 154.2969,195.418 Q154.2969,195.6523 154.0938,195.7852 Q154,195.8477 153.7031,195.8477 L151.9609,200.0273 L151.1406,200.0273 L149.3984,195.8477 Q149.1016,195.8477 149.0078,195.7852 Q148.8047,195.6523 148.8047,195.418 Q148.8047,195.2305 148.9375,195.1133 Q149.0703,194.9961 149.375,194.9961 L150.5234,194.9961 Q150.8281,194.9961 150.9531,195.1133 Q151.0859,195.2305 151.0859,195.418 Q151.0859,195.6133 150.9531,195.7305 Q150.8281,195.8477 150.5234,195.8477 L150.3203,195.8477 L151.5469,198.7852 Z " fill="#000000"/><text fill="#000000" font-family="sans-serif" font-size="6" font-style="italic" lengthAdjust="spacing" textLength="40.5" x="157.25" y="194.9814">&#171;value object&#187;</text><text fill="#000000" font-family="sans-serif" font-size="7" lengthAdjust="spacing" textLength="17.5" x="168.75" y="204.041">Mode</text><line style="stroke:#181818;stroke-width:0.25;" x1="144.25" x2="197.75" y1="208.2979" y2="208.2979"/></g><!--class NumberVacancy--><g id="elem_NumberVacancy"><rect codeLine="26" fill="#F5F5DC" height="26.291" id="NumberVacancy" rx="1.25" ry="1.25" style="stroke:#181818;stroke-width:0.25;" width="67.5" x="215.75" y="186.0068"/><ellipse cx="223.25" cy="197.1523" fill="#FF8B40" rx="5.5" ry="5.5" style="stroke:#181818;stroke-width:0.5;"/><path d="M223.5469,198.7852 L224.7813,195.8477 L224.5859,195.8477 Q224.2813,195.8477 224.1484,195.7305 Q224.0156,195.6133 224.0156,195.418 Q224.0156,195.2305 224.1484,195.1133 Q224.2813,194.9961 224.5859,194.9961 L225.7266,194.9961 Q226.0313,194.9961 226.1641,195.1133 Q226.2969,195.2305 226.2969,195.418 Q226.2969,195.6523 226.0938,195.7852 Q226,195.8477 225.7031,195.8477 L223.9609,200.0273 L223.1406,200.0273 L221.3984,195.8477 Q221.1016,195.8477 221.0078,195.7852 Q220.8047,195.6523 220.8047,195.418 Q220.8047,195.2305 220.9375,195.1133 Q221.0703,194.9961 221.375,194.9961 L222.5234,194.9961 Q222.8281,194.9961 222.9531,195.1133 Q223.0859,195.2305 223.0859,195.418 Q223.0859,195.6133 222.9531,195.7305 Q222.8281,195.8477 222.5234,195.8477 L222.3203,195.8477 L223.5469,198.7852 Z " fill="#000000"/><text fill="#000000" font-family="sans-serif" font-size="6" font-style="italic" lengthAdjust="spacing" textLength="40.5" x="235.75" y="194.9814">&#171;value object&#187;</text><text fill="#000000" font-family="sans-serif" font-size="7" lengthAdjust="spacing" textLength="51.5" x="230.25" y="204.041">NumberVacancy</text><line style="stroke:#181818;stroke-width:0.25;" x1="216.25" x2="282.75" y1="208.2979" y2="208.2979"/></g><!--class Description--><g id="elem_Description"><rect codeLine="27" fill="#F5F5DC" height="26.291" id="Description" rx="1.25" ry="1.25" style="stroke:#181818;stroke-width:0.25;" width="54.5" x="276.75" y="248.0068"/><ellipse cx="284.25" cy="259.1523" fill="#FF8B40" rx="5.5" ry="5.5" style="stroke:#181818;stroke-width:0.5;"/><path d="M284.5469,260.7852 L285.7813,257.8477 L285.5859,257.8477 Q285.2813,257.8477 285.1484,257.7305 Q285.0156,257.6133 285.0156,257.418 Q285.0156,257.2305 285.1484,257.1133 Q285.2813,256.9961 285.5859,256.9961 L286.7266,256.9961 Q287.0313,256.9961 287.1641,257.1133 Q287.2969,257.2305 287.2969,257.418 Q287.2969,257.6523 287.0938,257.7852 Q287,257.8477 286.7031,257.8477 L284.9609,262.0273 L284.1406,262.0273 L282.3984,257.8477 Q282.1016,257.8477 282.0078,257.7852 Q281.8047,257.6523 281.8047,257.418 Q281.8047,257.2305 281.9375,257.1133 Q282.0703,256.9961 282.375,256.9961 L283.5234,256.9961 Q283.8281,256.9961 283.9531,257.1133 Q284.0859,257.2305 284.0859,257.418 Q284.0859,257.6133 283.9531,257.7305 Q283.8281,257.8477 283.5234,257.8477 L283.3203,257.8477 L284.5469,260.7852 Z " fill="#000000"/><text fill="#000000" font-family="sans-serif" font-size="6" font-style="italic" lengthAdjust="spacing" textLength="40.5" x="290.25" y="256.9814">&#171;value object&#187;</text><text fill="#000000" font-family="sans-serif" font-size="7" lengthAdjust="spacing" textLength="35.5" x="292.75" y="266.041">Description</text><line style="stroke:#181818;stroke-width:0.25;" x1="277.25" x2="330.75" y1="270.2979" y2="270.2979"/></g><!--class Rank--><g id="elem_Rank"><rect codeLine="28" fill="#F5F5DC" height="26.291" id="Rank" rx="1.25" ry="1.25" style="stroke:#181818;stroke-width:0.25;" width="54.5" x="348.75" y="248.0068"/><ellipse cx="356.25" cy="259.1523" fill="#FF8B40" rx="5.5" ry="5.5" style="stroke:#181818;stroke-width:0.5;"/><path d="M356.5469,260.7852 L357.7813,257.8477 L357.5859,257.8477 Q357.2813,257.8477 357.1484,257.7305 Q357.0156,257.6133 357.0156,257.418 Q357.0156,257.2305 357.1484,257.1133 Q357.2813,256.9961 357.5859,256.9961 L358.7266,256.9961 Q359.0313,256.9961 359.1641,257.1133 Q359.2969,257.2305 359.2969,257.418 Q359.2969,257.6523 359.0938,257.7852 Q359,257.8477 358.7031,257.8477 L356.9609,262.0273 L356.1406,262.0273 L354.3984,257.8477 Q354.1016,257.8477 354.0078,257.7852 Q353.8047,257.6523 353.8047,257.418 Q353.8047,257.2305 353.9375,257.1133 Q354.0703,256.9961 354.375,256.9961 L355.5234,256.9961 Q355.8281,256.9961 355.9531,257.1133 Q356.0859,257.2305 356.0859,257.418 Q356.0859,257.6133 355.9531,257.7305 Q355.8281,257.8477 355.5234,257.8477 L355.3203,257.8477 L356.5469,260.7852 Z " fill="#000000"/><text fill="#000000" font-family="sans-serif" font-size="6" font-style="italic" lengthAdjust="spacing" textLength="40.5" x="362.25" y="256.9814">&#171;value object&#187;</text><text fill="#000000" font-family="sans-serif" font-size="7" lengthAdjust="spacing" textLength="16.5" x="374.25" y="266.041">Rank</text><line style="stroke:#181818;stroke-width:0.25;" x1="349.25" x2="402.75" y1="270.2979" y2="270.2979"/></g><!--class CustomerManager--><g id="elem_CustomerManager"><rect codeLine="31" fill="#F5F5DC" height="34.2715" id="CustomerManager" rx="1.25" ry="1.25" style="stroke:#181818;stroke-width:0.25;" width="74.5" x="377.75" y="21.5068"/><ellipse cx="385.25" cy="36.6426" fill="#ADD1B2" rx="5.5" ry="5.5" style="stroke:#181818;stroke-width:0.5;"/><path d="M384.6797,37.041 L384.6797,38.291 L386.8438,38.291 L386.8438,37.8301 Q386.8438,37.5254 386.9609,37.3926 Q387.0859,37.2598 387.2734,37.2598 Q387.4609,37.2598 387.5781,37.3926 Q387.6953,37.5254 387.6953,37.8301 L387.6953,39.1426 L383.6953,39.1426 Q383.3828,39.1426 383.25,39.0254 Q383.125,38.9082 383.125,38.7129 Q383.125,38.5254 383.2578,38.4082 Q383.3906,38.291 383.6953,38.291 L383.8281,38.291 L383.8281,34.9629 L383.6953,34.9629 Q383.3828,34.9629 383.25,34.8457 Q383.125,34.7285 383.125,34.5332 Q383.125,34.3457 383.25,34.2285 Q383.3828,34.1113 383.6953,34.1113 L387.5078,34.1113 L387.5078,35.4082 Q387.5078,35.7129 387.3906,35.8457 Q387.2813,35.9707 387.0859,35.9707 Q386.8984,35.9707 386.7813,35.8457 Q386.6641,35.7129 386.6641,35.4082 L386.6641,34.9629 L384.6797,34.9629 L384.6797,36.1895 L385.4219,36.1895 Q385.4219,35.8613 385.4844,35.7676 Q385.6172,35.5645 385.8516,35.5645 Q386.0391,35.5645 386.1563,35.6973 Q386.2734,35.8223 386.2734,36.127 L386.2734,37.1113 Q386.2734,37.3848 386.2109,37.4785 Q386.0781,37.6738 385.8516,37.6738 Q385.6172,37.6738 385.4844,37.4707 Q385.4219,37.377 385.4219,37.041 L384.6797,37.041 Z " fill="#000000"/><text fill="#000000" font-family="sans-serif" font-size="6" font-style="italic" lengthAdjust="spacing" textLength="21.5" x="410.75" y="30.4814">&#171;entity&#187;</text><text fill="#000000" font-family="sans-serif" font-size="6" font-style="italic" lengthAdjust="spacing" textLength="17.5" x="412.75" y="38.4619">&#171;root&#187;</text><text fill="#000000" font-family="sans-serif" font-size="7" lengthAdjust="spacing" textLength="58.5" x="392.25" y="47.5215">CustomerManager</text><line style="stroke:#181818;stroke-width:0.25;" x1="378.25" x2="451.75" y1="51.7783" y2="51.7783"/></g><!--class PluginJarFile--><g id="elem_PluginJarFile"><rect codeLine="10" fill="#F5F5DC" height="26.291" id="PluginJarFile" rx="1.25" ry="1.25" style="stroke:#181818;stroke-width:0.25;" width="56.5" x="645.75" y="186.0068"/><ellipse cx="653.25" cy="197.1523" fill="#FF8B40" rx="5.5" ry="5.5" style="stroke:#181818;stroke-width:0.5;"/><path d="M653.5469,198.7852 L654.7813,195.8477 L654.5859,195.8477 Q654.2813,195.8477 654.1484,195.7305 Q654.0156,195.6133 654.0156,195.418 Q654.0156,195.2305 654.1484,195.1133 Q654.2813,194.9961 654.5859,194.9961 L655.7266,194.9961 Q656.0313,194.9961 656.1641,195.1133 Q656.2969,195.2305 656.2969,195.418 Q656.2969,195.6523 656.0938,195.7852 Q656,195.8477 655.7031,195.8477 L653.9609,200.0273 L653.1406,200.0273 L651.3984,195.8477 Q651.1016,195.8477 651.0078,195.7852 Q650.8047,195.6523 650.8047,195.418 Q650.8047,195.2305 650.9375,195.1133 Q651.0703,194.9961 651.375,194.9961 L652.5234,194.9961 Q652.8281,194.9961 652.9531,195.1133 Q653.0859,195.2305 653.0859,195.418 Q653.0859,195.6133 652.9531,195.7305 Q652.8281,195.8477 652.5234,195.8477 L652.3203,195.8477 L653.5469,198.7852 Z " fill="#000000"/><text fill="#000000" font-family="sans-serif" font-size="6" font-style="italic" lengthAdjust="spacing" textLength="40.5" x="660.25" y="194.9814">&#171;value object&#187;</text><text fill="#000000" font-family="sans-serif" font-size="7" lengthAdjust="spacing" textLength="40.5" x="660.25" y="204.041">PluginJarFile</text><line style="stroke:#181818;stroke-width:0.25;" x1="646.25" x2="701.75" y1="208.2979" y2="208.2979"/></g><!--link CustomerManager to InterviewModel--><g id="link_CustomerManager_InterviewModel"><path codeLine="34" d="M426.26,56.1468 C436.255,71.1368 449.1111,90.4256 459.0961,105.4056 " fill="none" id="CustomerManager-to-InterviewModel" style="stroke:#222222;stroke-width:0.5;"/><polygon fill="#222222" points="460.76,107.9018,459.9283,103.0481,459.3734,105.8216,456.6,105.2667,460.76,107.9018" style="stroke:#222222;stroke-width:0.5;"/><text fill="#000000" font-family="sans-serif" font-size="6.5" lengthAdjust="spacing" textLength="21" x="442.5" y="79.521">selects</text><text fill="#000000" font-family="sans-serif" font-size="6.5" lengthAdjust="spacing" textLength="10" x="447.6643" y="102.3332">1..*</text></g><!--link CustomerManager to JobOpening--><g id="link_CustomerManager_JobOpening"><path codeLine="35" d="M388.88,56.0468 C365.505,71.0718 333.9385,91.3695 310.5835,106.3845 " fill="none" id="CustomerManager-to-JobOpening" style="stroke:#222222;stroke-width:0.5;"/><polygon fill="#222222" points="308.06,108.0068,312.9268,107.2556,310.1629,106.6549,310.7637,103.891,308.06,108.0068" style="stroke:#222222;stroke-width:0.5;"/><text fill="#000000" font-family="sans-serif" font-size="6.5" lengthAdjust="spacing" textLength="25" x="361" y="79.521">registers</text><text fill="#000000" font-family="sans-serif" font-size="6.5" lengthAdjust="spacing" textLength="10" x="302.2062" y="102.325">1..*</text></g><!--link InterviewModel to InterviewModelName--><g id="link_InterviewModel_InterviewModelName"><path codeLine="37" d="M472,142.6868 C472,154.4818 472,167.1418 472,178.9168 " fill="none" id="InterviewModel-to-InterviewModelName" style="stroke:#222222;stroke-width:0.5;"/><polygon fill="#222222" points="472,181.9168,474,177.4168,472,179.4168,470,177.4168,472,181.9168" style="stroke:#222222;stroke-width:0.5;"/><polygon fill="#000000" points="474.5,159.8296,473.0305,164.3521,475.9695,164.3521,474.5,159.8296" style="stroke:#000000;stroke-width:0.5;"/><text fill="#000000" font-family="sans-serif" font-size="6.5" lengthAdjust="spacing" textLength="25.5" x="479" y="165.021">identifies</text><text fill="#000000" font-family="sans-serif" font-size="6.5" lengthAdjust="spacing" textLength="3.5" x="468.1664" y="176.3511">1</text></g><!--link InterviewModel to InterviewModelDescription--><g id="link_InterviewModel_InterviewModelDescription"><path codeLine="38" d="M496.68,142.5968 C516.06,155.8168 540.1515,172.2566 557.8065,184.2966 " fill="none" id="InterviewModel-to-InterviewModelDescription" style="stroke:#222222;stroke-width:0.5;"/><polygon fill="#222222" points="560.285,185.9868,557.6941,181.7991,558.2196,184.5783,555.4404,185.1038,560.285,185.9868" style="stroke:#222222;stroke-width:0.5;"/><polygon fill="#000000" points="532.4348,160.9207,535.3427,164.6833,536.9989,162.2555,532.4348,160.9207" style="stroke:#000000;stroke-width:0.5;"/><text fill="#000000" font-family="sans-serif" font-size="6.5" lengthAdjust="spacing" textLength="28" x="539" y="165.021">describes</text><text fill="#000000" font-family="sans-serif" font-size="6.5" lengthAdjust="spacing" textLength="3.5" x="551.7967" y="180.2737">1</text></g><!--link InterviewModel to PluginJarFile--><g id="link_InterviewModel_PluginJarFile"><path codeLine="39" d="M503.29,135.2668 C522.96,141.3618 548.82,149.5868 571.5,157.5068 C600.45,167.6168 607.625,170.3718 636,182.0068 C639.135,183.2918 639.643,183.4891 642.883,184.8791 " fill="none" id="InterviewModel-to-PluginJarFile" style="stroke:#222222;stroke-width:0.5;"/><polygon fill="#222222" points="645.64,186.0618,642.293,182.4497,643.3425,185.0762,640.716,186.1257,645.64,186.0618" style="stroke:#222222;stroke-width:0.5;"/><polygon fill="#000000" points="597.1444,161.4924,600.9137,164.3915,601.8979,161.6223,597.1444,161.4924" style="stroke:#000000;stroke-width:0.5;"/><text fill="#000000" font-family="sans-serif" font-size="6.5" lengthAdjust="spacing" textLength="29.5" x="604" y="165.021">configures</text><text fill="#000000" font-family="sans-serif" font-size="6.5" lengthAdjust="spacing" textLength="3.5" x="638.2822" y="182.3636">1</text></g><!--link JobOpening to Mode--><g id="link_JobOpening_Mode"><path codeLine="42" d="M256.395,142.5968 C236.29,155.8168 211.2368,172.2989 192.9218,184.3389 " fill="none" id="JobOpening-to-Mode" style="stroke:#222222;stroke-width:0.5;"/><polygon fill="#222222" points="190.415,185.9868,195.2739,185.1861,192.504,184.6135,193.0766,181.8437,190.415,185.9868" style="stroke:#222222;stroke-width:0.5;"/><text fill="#000000" font-family="sans-serif" font-size="6.5" lengthAdjust="spacing" textLength="24" x="234" y="165.021">includes</text><text fill="#000000" font-family="sans-serif" font-size="6.5" lengthAdjust="spacing" textLength="3.5" x="191.2208" y="180.2737">1</text></g><!--link JobOpening to NumberVacancy--><g id="link_JobOpening_NumberVacancy"><path codeLine="43" d="M274.46,142.6868 C268.61,155.8268 261.8394,171.0358 256.4944,183.0508 " fill="none" id="JobOpening-to-NumberVacancy" style="stroke:#222222;stroke-width:0.5;"/><polygon fill="#222222" points="255.275,185.7918,258.9314,182.4932,256.2911,183.5077,255.2767,180.8674,255.275,185.7918" style="stroke:#222222;stroke-width:0.5;"/><text fill="#000000" font-family="sans-serif" font-size="6.5" lengthAdjust="spacing" textLength="24" x="268.5" y="165.021">includes</text><text fill="#000000" font-family="sans-serif" font-size="6.5" lengthAdjust="spacing" textLength="3.5" x="252.6555" y="180.4696">1</text></g><!--link JobOpening to JobFunction--><g id="link_JobOpening_JobFunction"><path codeLine="44" d="M254.875,127.3968 C205.275,130.7868 102.24,139.7868 71.5,157.5068 C59.98,164.1468 52.4647,173.9251 46.7797,183.3901 " fill="none" id="JobOpening-to-JobFunction" style="stroke:#222222;stroke-width:0.5;"/><polygon fill="#222222" points="45.235,185.9618,49.2665,183.134,46.5222,183.8187,45.8375,181.0744,45.235,185.9618" style="stroke:#222222;stroke-width:0.5;"/><text fill="#000000" font-family="sans-serif" font-size="6.5" lengthAdjust="spacing" textLength="24" x="72" y="165.021">includes</text><text fill="#000000" font-family="sans-serif" font-size="6.5" lengthAdjust="spacing" textLength="3.5" x="42.8878" y="180.4597">1</text></g><!--link JobOpening to Description--><g id="link_JobOpening_Description"><path codeLine="45" d="M291.39,142.6168 C293.605,147.3068 295.695,152.4918 297,157.5068 C305.255,189.2368 305.4002,225.2035 304.7402,244.9585 " fill="none" id="JobOpening-to-Description" style="stroke:#222222;stroke-width:0.5;"/><polygon fill="#222222" points="304.64,247.9568,306.7891,243.5261,304.7235,245.4582,302.7914,243.3926,304.64,247.9568" style="stroke:#222222;stroke-width:0.5;"/><text fill="#000000" font-family="sans-serif" font-size="6.5" lengthAdjust="spacing" textLength="24" x="305.5" y="202.021">includes</text><text fill="#000000" font-family="sans-serif" font-size="6.5" lengthAdjust="spacing" textLength="3.5" x="300.8833" y="242.4535">1</text></g><!--link JobOpening to ContractType--><g id="link_JobOpening_ContractType"><path codeLine="46" d="M254.975,126.1018 C216.26,128.1768 145.745,138.1868 110,182.0068 C94.69,200.7718 95.7581,227.9867 98.1781,245.0217 " fill="none" id="JobOpening-to-ContractType" style="stroke:#222222;stroke-width:0.5;"/><polygon fill="#222222" points="98.6,247.9918,99.9472,243.2553,98.2484,245.5167,95.987,243.8179,98.6,247.9918" style="stroke:#222222;stroke-width:0.5;"/><text fill="#000000" font-family="sans-serif" font-size="6.5" lengthAdjust="spacing" textLength="24" x="110.5" y="202.021">includes</text><text fill="#000000" font-family="sans-serif" font-size="6.5" lengthAdjust="spacing" textLength="3.5" x="94.0884" y="242.2799">1</text></g><!--link JobOpening to InterviewModel--><g id="link_JobOpening_InterviewModel"><path codeLine="47" d="M309.02,125.2568 C343.75,125.2568 400.94,125.2568 437.65,125.2568 " fill="none" id="JobOpening-to-InterviewModel" style="stroke:#222222;stroke-width:0.5;"/><polygon fill="#222222" points="440.65,125.2568,436.15,123.2568,438.15,125.2568,436.15,127.2568,440.65,125.2568" style="stroke:#222222;stroke-width:0.5;"/><text fill="#000000" font-family="sans-serif" font-size="6.5" lengthAdjust="spacing" textLength="24" x="362.875" y="121.771">includes</text><text fill="#000000" font-family="sans-serif" font-size="6.5" lengthAdjust="spacing" textLength="3.5" x="433.3228" y="123.3012">1</text></g><!--link JobOpening to Rank--><g id="link_JobOpening_Rank"><path codeLine="48" d="M299.865,142.7368 C310.525,153.4118 323.905,167.8068 334,182.0068 C349.445,203.7268 361.8562,229.0795 369.1512,245.1695 " fill="none" id="JobOpening-to-Rank" style="stroke:#222222;stroke-width:0.5;"/><polygon fill="#222222" points="370.39,247.9018,370.3533,242.9775,369.3577,245.6249,366.7103,244.6293,370.39,247.9018" style="stroke:#222222;stroke-width:0.5;"/><text fill="#000000" font-family="sans-serif" font-size="6.5" lengthAdjust="spacing" textLength="24" x="361.5" y="202.021">includes</text><text fill="#000000" font-family="sans-serif" font-size="6.5" lengthAdjust="spacing" textLength="2.5" x="366.3036" y="242.3858">*</text></g><!--SRC=[bLHTRzem57tthxYY3spJ0jsqXocAa08D3BIs4p3U7USszKZio7PQiQh_VGxX8sI4ZpmbEUTSd-jxxFQpCPbskzqieSBaQT9XCksoX6hjH9p6YgQ4w2KN6RMli0PyOnGFSuDZ9iMC_qMu9SyyGi0qCokWMrZNXNtAbh6IkOW6Cf4AGkGnLaY-KlArX6w-hXz2shCV_ZIuWuN_ytS0Z_r9C9yHKjQ3NqaUSp6XQiWJ1C_xiFXyCnn-xt-x_GWlDCaHPFW7cUdruEszg1LC5-D1C2EPTK9ZX9RdqJXM65E3bZGM1jKBnrUubn4cBNWZO1yKXjl6TkWQjCkL_wtEyvIKnIh5CeMYj7SeUA3f6O-UPtVHrdpYg4hBJRNkK3F5CyEbEDzsqRa_6as3aJzlxdqYGtZCK70Hr_gso0OuslE1JSiTve9TP6ol6aXX56Lclihm2bcn5LVG7_8qHBMWZ0gskaYtarwptrNTb8hbIO7blpTDP91h8rDKS4-5XLLjB5juWpRcqOw_JdMS7hI-T3gVMlLGkw0niSxqASq-42vOjrpR4fgGMgbIq3fo2bpOvLo3TvckCW4NelL7U4fzS3MuO6-g9nxdQYqXRSSXbLHlDMMWh3l1ajokSPHpcA8pvEfnQA9kkTMCdUCU79W6yeRwtu2RAzlHbedTa_u1]--></g></svg>